<?xml version="1.0" encoding="UTF-8" standalone="no"?>
<!DOCTYPE svg PUBLIC "-//W3C//DTD SVG 1.1//EN"
 "http://www.w3.org/Graphics/SVG/1.1/DTD/svg11.dtd">
<!-- Generated by graphviz version 12.2.1 (20241206.2353)
 -->
<!-- Title: AlternateValue Pages: 1 -->
<svg width="662pt" height="390pt"
 viewBox="0.00 0.00 662.20 390.00" xmlns="http://www.w3.org/2000/svg" xmlns:xlink="http://www.w3.org/1999/xlink">
<g id="graph0" class="graph" transform="scale(1 1) rotate(0) translate(4 386)">
<title>AlternateValue</title>
<polygon fill="white" stroke="none" points="-4,4 -4,-386 658.2,-386 658.2,4 -4,4"/>
<!-- AlternateValue&#45;&gt;PinboardItem -->
<g id="edge1" class="edge">
<title>AlternateValue&#45;&gt;PinboardItem</title>
<path fill="none" stroke="black" d="M86.56,-209.46C102.6,-242.98 137.53,-305.51 187.3,-337 211.77,-352.49 243.19,-359.42 269.87,-362.4"/>
<polygon fill="black" stroke="black" points="269.19,-365.85 279.48,-363.31 269.85,-358.88 269.19,-365.85"/>
</g>
<!-- AlternateValue&#45;&gt;Role -->
<g id="edge2" class="edge">
<title>AlternateValue&#45;&gt;Role</title>
<path fill="none" stroke="black" d="M95.85,-209.43C116.22,-231.71 150.5,-265.05 187.3,-283 219.04,-298.48 258.97,-305.09 287.71,-307.91"/>
<polygon fill="black" stroke="black" points="287.13,-311.37 297.4,-308.74 287.73,-304.4 287.13,-311.37"/>
</g>
<!-- AlternateValue&#45;&gt;VerifierRole -->
<g id="edge3" class="edge">
<title>AlternateValue&#45;&gt;VerifierRole</title>
<path fill="none" stroke="black" d="M125.63,-204.49C144.75,-211.03 166.93,-218.25 187.3,-224 215.56,-231.98 247.48,-239.47 273.5,-245.2"/>
<polygon fill="black" stroke="black" points="272.64,-248.6 283.16,-247.3 274.13,-241.76 272.64,-248.6"/>
</g>
<!-- AlternateValue&#45;&gt;Creator -->
<g id="edge6" class="edge">
<title>AlternateValue&#45;&gt;Creator</title>
<path fill="none" stroke="black" stroke-dasharray="5,2" d="M144.19,-205.11C225.03,-223 362.39,-241.1 465.45,-191 492.15,-178.02 510.98,-147.82 520.91,-128.18"/>
<polygon fill="black" stroke="black" points="145.18,-201.75 134.65,-202.93 143.62,-208.57 145.18,-201.75"/>
</g>
<!-- AlternateValue&#45;&gt;Language -->
<g id="edge7" class="edge">
<title>AlternateValue&#45;&gt;Language</title>
<path fill="none" stroke="black" stroke-dasharray="5,2" d="M162.97,-179.02C207.17,-174.93 258.45,-170.19 291.37,-167.14"/>
<polygon fill="black" stroke="black" points="162.75,-175.52 153.12,-179.93 163.4,-182.49 162.75,-175.52"/>
</g>
<!-- AlternateValue&#45;&gt;Project -->
<g id="edge8" class="edge">
<title>AlternateValue&#45;&gt;Project</title>
<path fill="none" stroke="black" stroke-dasharray="5,2" d="M125.38,-162.04C144.32,-153.12 166.45,-143.65 187.3,-137 225.23,-124.9 270.83,-117.26 298.96,-113.31"/>
<polygon fill="black" stroke="black" points="124.08,-158.78 116.57,-166.26 127.1,-165.09 124.08,-158.78"/>
</g>
<!-- AlternateValue&#45;&gt;Updater -->
<g id="edge9" class="edge">
<title>AlternateValue&#45;&gt;Updater</title>
<path fill="none" stroke="black" stroke-dasharray="5,2" d="M98.73,-156.02C118.64,-131 150.4,-97.62 187.3,-83 340.76,-22.2 396.84,-50.6 558.7,-83 570.76,-85.41 583.39,-90.13 594.25,-94.95"/>
<polygon fill="black" stroke="black" points="96.21,-153.56 92.87,-163.62 101.75,-157.84 96.21,-153.56"/>
</g>
<!-- AlternateValue&#45;&gt;Objects with Alternate values -->
<g id="edge5" class="edge">
<title>AlternateValue&#45;&gt;Objects with Alternate values</title>
<path fill="none" stroke="black" stroke-dasharray="5,2" d="M93.95,-154.97C112.73,-123.35 145.68,-76.07 187.3,-50 201.16,-41.31 217.14,-34.98 233.2,-30.37"/>
<polygon fill="black" stroke="black" points="91.09,-152.92 89.12,-163.33 97.15,-156.43 91.09,-152.92"/>
</g>
<!-- Role&#45;&gt;Verifier -->
<!-- VerifierRole&#45;&gt;Verifier -->
<g id="edge4" class="edge">
<title>VerifierRole&#45;&gt;Verifier</title>
<path fill="none" stroke="black" stroke-dasharray="1,5" d="M368.19,-261.46C403.67,-266.21 454.72,-273.05 489.75,-277.74"/>
<polygon fill="black" stroke="black" points="489.09,-281.18 499.47,-279.04 490.02,-274.24 489.09,-281.18"/>
</g>
<!-- Creator&#45;&gt;Updater -->
<!-- Project&#45;&gt;Creator -->
<!-- AlternateValue -->
<g id="node1" class="node">
<title>AlternateValue</title>
<g id="a_node1"><a xlink:href="/develop/Data/models.html#alternate-value" xlink:title="AlternateValue" target="_top">
<polygon fill="#cdefab" stroke="#dedede" points="147.3,-179.54 147.3,-194.46 105.33,-205 45.97,-205 4,-194.46 4,-179.54 45.97,-169 105.33,-169 147.3,-179.54"/>
<polygon fill="none" stroke="#dedede" points="151.3,-176.42 151.3,-197.58 105.82,-209 45.48,-209 0,-197.58 0,-176.42 45.48,-165 105.82,-165 151.3,-176.42"/>
<text text-anchor="middle" x="75.65" y="-181.95" font-family="Times,serif" font-size="14.00">AlternateValue</text>
</a>
</g>
</g>
<!-- PinboardItem -->
<g id="node2" class="node">
<title>PinboardItem</title>
<g id="a_node2"><a xlink:href="/develop/Data/models.html#pinboard-item" xlink:title="PinboardItem" target="_top">
<polygon fill="#eeefff" stroke="#dddeee" points="371.5,-382 281.25,-382 281.25,-346 371.5,-346 371.5,-382"/>
<text text-anchor="middle" x="326.37" y="-358.95" font-family="Times,serif" font-size="14.00">PinboardItem</text>
</a>
</g>
</g>
<!-- Role -->
<g id="node3" class="node">
<title>Role</title>
<g id="a_node3"><a xlink:href="/develop/Data/models.html#role" xlink:title="Role" target="_top">
<polygon fill="#eeefff" stroke="#dddeee" points="353.37,-328 299.37,-328 299.37,-292 353.37,-292 353.37,-328"/>
<text text-anchor="middle" x="326.37" y="-304.95" font-family="Times,serif" font-size="14.00">Role</text>
</a>
</g>
</g>
<!-- VerifierRole -->
<g id="node4" class="node">
<title>VerifierRole</title>
<g id="a_node4"><a xlink:href="/develop/Data/models.html#verifier-role" xlink:title="VerifierRole" target="_top">
<polygon fill="#eeefff" stroke="#dddeee" points="367.75,-274 285,-274 285,-238 367.75,-238 367.75,-274"/>
<text text-anchor="middle" x="326.37" y="-250.95" font-family="Times,serif" font-size="14.00">VerifierRole</text>
</a>
</g>
</g>
<!-- Verifier -->
<g id="node5" class="node">
<title>Verifier</title>
<g id="a_node5"><a xlink:href="/develop/Data/models.html#verifier" xlink:title="Verifier" target="_top">
<polygon fill="#eeefff" stroke="#dddeee" points="558.7,-301 501.45,-301 501.45,-265 558.7,-265 558.7,-301"/>
<text text-anchor="middle" x="530.08" y="-277.95" font-family="Times,serif" font-size="14.00">Verifier</text>
</a>
</g>
</g>
<!-- Creator -->
<g id="node6" class="node">
<title>Creator</title>
<g id="a_node6"><a xlink:href="/develop/Data/models.html#creator" xlink:title="Creator" target="_top">
<polygon fill="#eeefff" stroke="#dddeee" points="558.33,-128 501.83,-128 501.83,-92 558.33,-92 558.33,-128"/>
<text text-anchor="middle" x="530.08" y="-104.95" font-family="Times,serif" font-size="14.00">Creator</text>
</a>
</g>
</g>
<!-- Language -->
<g id="node7" class="node">
<title>Language</title>
<g id="a_node7"><a xlink:href="/develop/Data/models.html#language" xlink:title="Language" target="_top">
<polygon fill="#eeefff" stroke="#dddeee" points="361,-182 291.75,-182 291.75,-146 361,-146 361,-182"/>
<text text-anchor="middle" x="326.37" y="-158.95" font-family="Times,serif" font-size="14.00">Language</text>
</a>
</g>
</g>
<!-- Project -->
<g id="node8" class="node">
<title>Project</title>
<g id="a_node8"><a xlink:href="/develop/Data/models.html#project" xlink:title="Project" target="_top">
<polygon fill="#eeefff" stroke="#dddeee" points="353.5,-128 299.25,-128 299.25,-92 353.5,-92 353.5,-128"/>
<text text-anchor="middle" x="326.37" y="-104.95" font-family="Times,serif" font-size="14.00">Project</text>
</a>
</g>
</g>
<!-- Updater -->
<g id="node9" class="node">
<title>Updater</title>
<g id="a_node9"><a xlink:href="/develop/Data/models.html#updater" xlink:title="Updater" target="_top">
<polygon fill="#eeefff" stroke="#dddeee" points="654.2,-128 594.7,-128 594.7,-92 654.2,-92 654.2,-128"/>
<text text-anchor="middle" x="624.45" y="-104.95" font-family="Times,serif" font-size="14.00">Updater</text>
</a>
</g>
</g>
<!-- Objects with Alternate values -->
<g id="node10" class="node">
<title>Objects with Alternate values</title>
<g id="a_node10"><a xlink:href="/develop/Data/models.html#objects with alternate value" xlink:title="Objects with Alternate values" target="_top">
<polygon fill="#cdabef" stroke="#dedede" points="465.45,-18 395.91,-36 256.83,-36 187.3,-18 256.83,0 395.91,0 465.45,-18"/>
<text text-anchor="middle" x="326.37" y="-12.95" font-family="Times,serif" font-size="14.00">Objects with Alternate values</text>
</a>
</g>
</g>
</g>
</svg>
