<?xml version="1.0" encoding="UTF-8" standalone="no"?>
<!DOCTYPE svg PUBLIC "-//W3C//DTD SVG 1.1//EN"
 "http://www.w3.org/Graphics/SVG/1.1/DTD/svg11.dtd">
<!-- Generated by graphviz version 12.2.1 (20241206.2353)
 -->
<!-- Title: AssertedDistribution Pages: 1 -->
<svg width="1100pt" height="1195pt"
 viewBox="0.00 0.00 1100.44 1195.00" xmlns="http://www.w3.org/2000/svg" xmlns:xlink="http://www.w3.org/1999/xlink">
<g id="graph0" class="graph" transform="scale(1 1) rotate(0) translate(4 1191)">
<title>AssertedDistribution</title>
<polygon fill="white" stroke="none" points="-4,4 -4,-1191 1096.44,-1191 1096.44,4 -4,4"/>
<!-- Citation&#45;&gt;Source -->
<g id="edge18" class="edge">
<title>Citation&#45;&gt;Source</title>
<path fill="none" stroke="black" stroke-dasharray="1,5" d="M102.44,-1114C195.52,-1114 426.14,-1114 517.04,-1114"/>
<polygon fill="black" stroke="black" points="516.89,-1117.5 526.89,-1114 516.89,-1110.5 516.89,-1117.5"/>
</g>
<!-- Citation&#45;&gt;CitationTopic -->
<g id="edge1" class="edge">
<title>Citation&#45;&gt;CitationTopic</title>
<path fill="none" stroke="black" stroke-dasharray="1,5" d="M96.47,-1123.58C125.44,-1131.77 167.7,-1143.72 201.61,-1153.31"/>
<polygon fill="black" stroke="black" points="200.26,-1156.57 210.84,-1155.92 202.16,-1149.83 200.26,-1156.57"/>
</g>
<!-- Confidence&#45;&gt;ConfidenceLevel -->
<g id="edge3" class="edge">
<title>Confidence&#45;&gt;ConfidenceLevel</title>
<path fill="none" stroke="black" stroke-dasharray="1,5" d="M115.48,-517C139.09,-517 167.13,-517 192.01,-517"/>
<polygon fill="black" stroke="black" points="191.68,-520.5 201.68,-517 191.68,-513.5 191.68,-520.5"/>
</g>
<!-- Tag&#45;&gt;Keyword -->
<g id="edge9" class="edge">
<title>Tag&#45;&gt;Keyword</title>
<path fill="none" stroke="black" stroke-dasharray="1,5" d="M88.82,-463C120.68,-463 174.89,-463 213.16,-463"/>
<polygon fill="black" stroke="black" points="212.96,-466.5 222.96,-463 212.96,-459.5 212.96,-466.5"/>
</g>
<!-- AssertedDistribution&#45;&gt;Citation -->
<g id="edge2" class="edge">
<title>AssertedDistribution&#45;&gt;Citation</title>
<path fill="none" stroke="black" d="M249.03,-597.33C218.14,-682.93 107.3,-990.08 72.87,-1085.51"/>
<polygon fill="black" stroke="black" points="69.67,-1084.05 69.57,-1094.64 76.26,-1086.42 69.67,-1084.05"/>
</g>
<!-- AssertedDistribution&#45;&gt;Confidence -->
<g id="edge4" class="edge">
<title>AssertedDistribution&#45;&gt;Confidence</title>
<path fill="none" stroke="black" d="M196.23,-556.85C169.58,-548.91 138.67,-539.69 113.29,-532.12"/>
<polygon fill="black" stroke="black" points="114.45,-528.81 103.87,-529.31 112.45,-535.52 114.45,-528.81"/>
</g>
<!-- AssertedDistribution&#45;&gt;DataAttribute -->
<g id="edge5" class="edge">
<title>AssertedDistribution&#45;&gt;DataAttribute</title>
<path fill="none" stroke="black" d="M220.42,-597.45C193.82,-613.39 156.76,-634.92 123.18,-652 118.36,-654.45 113.28,-656.91 108.18,-659.29"/>
<polygon fill="black" stroke="black" points="106.81,-656.07 99.17,-663.41 109.72,-662.43 106.81,-656.07"/>
</g>
<!-- AssertedDistribution&#45;&gt;Identifier -->
<g id="edge6" class="edge">
<title>AssertedDistribution&#45;&gt;Identifier</title>
<path fill="none" stroke="black" d="M190.56,-592.1C164.47,-598.81 135.09,-606.36 111.07,-612.54"/>
<polygon fill="black" stroke="black" points="110.37,-609.1 101.56,-614.98 112.11,-615.88 110.37,-609.1"/>
</g>
<!-- AssertedDistribution&#45;&gt;Tag -->
<g id="edge21" class="edge">
<title>AssertedDistribution&#45;&gt;Tag</title>
<path fill="none" stroke="black" d="M185.79,-558.79C176.33,-554.86 167.16,-550 159.18,-544 136.12,-526.67 145.22,-508.6 123.18,-490 115.58,-483.59 106.23,-478.44 97.17,-474.42"/>
<polygon fill="black" stroke="black" points="98.76,-471.29 88.18,-470.79 96.14,-477.78 98.76,-471.29"/>
</g>
<!-- AssertedDistribution&#45;&gt;Note -->
<g id="edge10" class="edge">
<title>AssertedDistribution&#45;&gt;Note</title>
<path fill="none" stroke="black" d="M158.95,-572.98C138.86,-572.57 118.82,-572.16 102.26,-571.82"/>
<polygon fill="black" stroke="black" points="102.45,-568.32 92.38,-571.61 102.31,-575.32 102.45,-568.32"/>
</g>
<!-- AssertedDistribution&#45;&gt;Source -->
<g id="edge38" class="edge">
<title>AssertedDistribution&#45;&gt;Source</title>
<path fill="none" stroke="black" stroke-dasharray="1,5" d="M263.2,-607.42C276.66,-708.42 322.64,-1014.56 393,-1081 426.47,-1112.6 481.62,-1117.54 518.06,-1116.83"/>
<polygon fill="none" stroke="black" points="257.96,-598.24 265.89,-597.2 266.93,-605.13 259,-606.17 257.96,-598.24"/>
<polyline fill="none" stroke="black" points="262.97,-605.65 263.23,-607.63"/>
<polygon fill="none" stroke="black" points="527.62,-1112.49 527.9,-1120.49 519.9,-1120.77 519.63,-1112.77 527.62,-1112.49"/>
<polyline fill="none" stroke="black" points="519.77,-1116.77 517.77,-1116.84"/>
</g>
<!-- AssertedDistribution&#45;&gt;Otu -->
<g id="edge32" class="edge">
<title>AssertedDistribution&#45;&gt;Otu</title>
<path fill="none" stroke="black" stroke-dasharray="5,2" d="M287.44,-605.53C312.65,-630.72 351.83,-665.25 393,-684 437.61,-704.31 495.28,-709.97 528.32,-711.49"/>
<polygon fill="black" stroke="black" points="290,-603.15 280.5,-598.47 285.01,-608.05 290,-603.15"/>
</g>
<!-- AssertedDistribution&#45;&gt;TaxonName -->
<g id="edge39" class="edge">
<title>AssertedDistribution&#45;&gt;TaxonName</title>
<path fill="none" stroke="black" stroke-dasharray="1,5" d="M314,-600.21C337.87,-610.36 366.41,-621.43 393,-629 429.36,-639.35 471.45,-646.49 503.58,-650.97"/>
<polygon fill="none" stroke="black" points="303.3,-599.95 306.46,-592.6 313.81,-595.77 310.64,-603.11 303.3,-599.95"/>
<polyline fill="none" stroke="black" points="312.23,-599.44 314.06,-600.23"/>
<polygon fill="none" stroke="black" points="513.69,-648.3 512.61,-656.23 504.69,-655.16 505.76,-647.23 513.69,-648.3"/>
<polyline fill="none" stroke="black" points="505.22,-651.19 503.24,-650.92"/>
</g>
<!-- AssertedDistribution&#45;&gt;ImportAttribute -->
<g id="edge7" class="edge">
<title>AssertedDistribution&#45;&gt;ImportAttribute</title>
<path fill="none" stroke="black" d="M357.12,-583.95C401.94,-588.05 453.68,-592.77 492.97,-596.36"/>
<polygon fill="black" stroke="black" points="492.44,-599.83 502.72,-597.25 493.07,-592.86 492.44,-599.83"/>
</g>
<!-- AssertedDistribution&#45;&gt;InternalAttribute -->
<g id="edge8" class="edge">
<title>AssertedDistribution&#45;&gt;InternalAttribute</title>
<path fill="none" stroke="black" d="M357.12,-566.05C401.08,-562.03 451.7,-557.41 490.7,-553.85"/>
<polygon fill="black" stroke="black" points="491,-557.33 500.64,-552.94 490.36,-550.36 491,-557.33"/>
</g>
<!-- AssertedDistribution&#45;&gt;RelatedOriginRelationship -->
<g id="edge16" class="edge">
<title>AssertedDistribution&#45;&gt;RelatedOriginRelationship</title>
<path fill="none" stroke="black" d="M323.22,-557.36C334.67,-553.46 346.35,-548.99 357,-544 374.2,-535.95 374.78,-526.32 393,-521 462.42,-500.72 658.83,-480.06 718.44,-521 809.43,-583.49 828.69,-728.53 832.75,-791.23"/>
<polygon fill="black" stroke="black" points="829.25,-791.32 833.29,-801.12 836.23,-790.94 829.25,-791.32"/>
</g>
<!-- AssertedDistribution&#45;&gt;OriginRelationship -->
<g id="edge13" class="edge">
<title>AssertedDistribution&#45;&gt;OriginRelationship</title>
<path fill="none" stroke="black" d="M265.78,-597.4C280.57,-642.72 320.6,-745.13 393,-794 419.57,-811.93 454.06,-819.31 484.36,-821.95"/>
<polygon fill="black" stroke="black" points="484.01,-825.44 494.23,-822.64 484.5,-818.46 484.01,-825.44"/>
</g>
<!-- AssertedDistribution&#45;&gt;PinboardItem -->
<g id="edge15" class="edge">
<title>AssertedDistribution&#45;&gt;PinboardItem</title>
<path fill="none" stroke="black" d="M335.53,-559.83C343.55,-555.74 350.97,-550.56 357,-544 405.79,-491.01 339.04,-433.7 393,-386 447.47,-337.86 646.74,-364.97 718.44,-353 738.11,-349.72 759.42,-345.05 778.32,-340.51"/>
<polygon fill="black" stroke="black" points="779.08,-343.93 787.96,-338.16 777.42,-337.13 779.08,-343.93"/>
</g>
<!-- AssertedDistribution&#45;&gt;Role -->
<g id="edge17" class="edge">
<title>AssertedDistribution&#45;&gt;Role</title>
<path fill="none" stroke="black" d="M337.36,-560.08C344.86,-555.94 351.65,-550.68 357,-544 413.83,-473.18 331.33,-203.63 393,-137 424.06,-103.45 479.81,-101.37 517.04,-104.48"/>
<polygon fill="black" stroke="black" points="516.61,-107.95 526.91,-105.48 517.32,-100.99 516.61,-107.95"/>
</g>
<!-- AssertedDistribution&#45;&gt;SubsequentCitation -->
<g id="edge19" class="edge">
<title>AssertedDistribution&#45;&gt;SubsequentCitation</title>
<path fill="none" stroke="black" d="M262.09,-597.45C274.04,-683.16 321.06,-988.02 393,-1048 420.72,-1071.11 644.88,-1082.91 762.43,-1087.56"/>
<polygon fill="black" stroke="black" points="762.17,-1091.06 772.3,-1087.95 762.44,-1084.06 762.17,-1091.06"/>
</g>
<!-- AssertedDistribution&#45;&gt;Uri -->
<g id="edge23" class="edge">
<title>AssertedDistribution&#45;&gt;Uri</title>
<path fill="none" stroke="black" d="M336.51,-560.02C344.26,-555.9 351.34,-550.65 357,-544 428.33,-460.18 315.95,-377.58 393,-299 424.93,-266.45 480.21,-264.06 517.12,-266.83"/>
<polygon fill="black" stroke="black" points="516.62,-270.3 526.9,-267.74 517.27,-263.33 516.62,-270.3"/>
</g>
<!-- AssertedDistribution&#45;&gt;Uuid -->
<g id="edge24" class="edge">
<title>AssertedDistribution&#45;&gt;Uuid</title>
<path fill="none" stroke="black" d="M336.68,-560.17C344.4,-556.01 351.43,-550.73 357,-544 442.41,-440.94 300.54,-341.78 393,-245 424.5,-212.04 479.89,-209.75 516.94,-212.66"/>
<polygon fill="black" stroke="black" points="516.48,-216.13 526.77,-213.61 517.15,-209.16 516.48,-216.13"/>
</g>
<!-- AssertedDistribution&#45;&gt;VerifierRole -->
<g id="edge25" class="edge">
<title>AssertedDistribution&#45;&gt;VerifierRole</title>
<path fill="none" stroke="black" d="M337.27,-560.01C344.79,-555.88 351.6,-550.64 357,-544 406.76,-482.83 339.06,-248.51 393,-191 420.42,-161.78 466.58,-156.53 502.58,-157.72"/>
<polygon fill="black" stroke="black" points="502.2,-161.21 512.37,-158.24 502.57,-154.22 502.2,-161.21"/>
</g>
<!-- AssertedDistribution&#45;&gt;Version -->
<g id="edge27" class="edge">
<title>AssertedDistribution&#45;&gt;Version</title>
<path fill="none" stroke="black" d="M335.74,-560.02C343.73,-555.9 351.07,-550.66 357,-544 413.01,-481.13 333.59,-417.66 393,-358 424.8,-326.07 478.67,-321.31 515.42,-322.38"/>
<polygon fill="black" stroke="black" points="515.04,-325.87 525.19,-322.83 515.36,-318.87 515.04,-325.87"/>
</g>
<!-- AssertedDistribution&#45;&gt;Creator -->
<g id="edge29" class="edge">
<title>AssertedDistribution&#45;&gt;Creator</title>
<path fill="none" stroke="black" stroke-dasharray="5,2" d="M344.33,-554.12C348.91,-551.18 353.19,-547.82 357,-544 394.81,-506.07 349.85,-460.71 393,-429 509.56,-343.35 574.76,-412.41 718.44,-429 748.89,-432.52 782.98,-441.09 806.16,-447.63"/>
<polygon fill="black" stroke="black" points="342.88,-550.92 335.87,-558.85 346.3,-557.02 342.88,-550.92"/>
</g>
<!-- AssertedDistribution&#45;&gt;Gazetteer -->
<g id="edge30" class="edge">
<title>AssertedDistribution&#45;&gt;Gazetteer</title>
<path fill="none" stroke="black" stroke-dasharray="5,2" d="M346.8,-554.03C350.58,-551.1 354.02,-547.78 357,-544 425.22,-457.62 320.09,-132.45 393,-50 424.76,-14.09 484.19,-11.47 521.49,-13.95"/>
<polygon fill="black" stroke="black" points="345.17,-550.92 338.73,-559.33 349.01,-556.77 345.17,-550.92"/>
</g>
<!-- AssertedDistribution&#45;&gt;GeographicArea -->
<g id="edge31" class="edge">
<title>AssertedDistribution&#45;&gt;GeographicArea</title>
<path fill="none" stroke="black" stroke-dasharray="5,2" d="M258.87,-608.87C260.33,-689.33 276.02,-892.74 393,-994 422.81,-1019.8 467.7,-1025.59 502.63,-1025.46"/>
<polygon fill="black" stroke="black" points="262.37,-608.96 258.76,-599 255.37,-609.03 262.37,-608.96"/>
</g>
<!-- AssertedDistribution&#45;&gt;Project -->
<g id="edge33" class="edge">
<title>AssertedDistribution&#45;&gt;Project</title>
<path fill="none" stroke="black" stroke-dasharray="5,2" d="M341.08,-553.98C346.71,-551.07 352.09,-547.76 357,-544 380.5,-526.02 368.54,-504.64 393,-488 434.18,-459.99 494.09,-455.27 528.25,-455.12"/>
<polygon fill="black" stroke="black" points="339.69,-550.77 332.1,-558.17 342.64,-557.11 339.69,-550.77"/>
</g>
<!-- AssertedDistribution&#45;&gt;Updater -->
<g id="edge34" class="edge">
<title>AssertedDistribution&#45;&gt;Updater</title>
<path fill="none" stroke="black" stroke-dasharray="5,2" d="M346.78,-554.01C350.56,-551.09 354.01,-547.77 357,-544 420.9,-463.52 317.57,-152.77 393,-83 435.66,-43.55 870.96,-72.33 915.19,-110 1017.28,-196.94 1022.55,-379.52 1021.49,-437.75"/>
<polygon fill="black" stroke="black" points="345.14,-550.9 338.69,-559.31 348.98,-556.76 345.14,-550.9"/>
</g>
<!-- AssertedDistribution&#45;&gt;CachedMapRegister -->
<g id="edge35" class="edge">
<title>AssertedDistribution&#45;&gt;CachedMapRegister</title>
<path fill="none" stroke="black" d="M260.61,-607.66C265.86,-679.97 289.22,-853.94 393,-940 417.42,-960.24 451.21,-967.98 481.59,-970.26"/>
<polygon fill="none" stroke="black" points="255.98,-598.12 263.96,-597.59 264.48,-605.58 256.5,-606.1 255.98,-598.12"/>
<polyline fill="none" stroke="black" points="260.49,-605.84 260.62,-607.83"/>
<polygon fill="none" stroke="black" points="491.47,-966.82 491.02,-974.8 483.03,-974.35 483.49,-966.36 491.47,-966.82"/>
<polyline fill="none" stroke="black" points="483.26,-970.36 481.26,-970.24"/>
</g>
<!-- AssertedDistribution&#45;&gt;DwcOccurrence -->
<g id="edge36" class="edge">
<title>AssertedDistribution&#45;&gt;DwcOccurrence</title>
<path fill="none" stroke="black" d="M263.38,-607.5C273.53,-670.77 305.18,-810.44 393,-881 420.99,-903.48 460.37,-911.62 493.27,-914.06"/>
<polygon fill="none" stroke="black" points="257.94,-598.41 265.85,-597.2 267.06,-605.11 259.15,-606.32 257.94,-598.41"/>
<polyline fill="none" stroke="black" points="263.1,-605.71 263.41,-607.69"/>
<polygon fill="none" stroke="black" points="503.43,-910.65 502.96,-918.63 494.98,-918.17 495.44,-910.18 503.43,-910.65"/>
<polyline fill="none" stroke="black" points="495.21,-914.18 493.21,-914.06"/>
</g>
<!-- AssertedDistribution&#45;&gt;OriginCitation -->
<g id="edge37" class="edge">
<title>AssertedDistribution&#45;&gt;OriginCitation</title>
<path fill="none" stroke="black" d="M264.66,-607.51C276.62,-666.33 310.63,-789.75 393,-848 452.45,-890.04 648.69,-865.11 718.44,-886 745.5,-894.11 773.87,-908.28 795.71,-920.59"/>
<polygon fill="none" stroke="black" points="258.85,-598.56 266.7,-597.03 268.23,-604.88 260.38,-606.41 258.85,-598.56"/>
<polyline fill="none" stroke="black" points="264.3,-605.65 264.68,-607.61"/>
<polygon fill="none" stroke="black" points="806.21,-922.01 802.22,-928.95 795.28,-924.96 799.27,-918.02 806.21,-922.01"/>
<polyline fill="none" stroke="black" points="797.28,-921.49 795.54,-920.49"/>
</g>
<!-- AssertedDistribution&#45;&gt;Objects with Asserted distributions -->
<g id="edge28" class="edge">
<title>AssertedDistribution&#45;&gt;Objects with Asserted distributions</title>
<path fill="none" stroke="black" stroke-dasharray="5,2" d="M276,-607.41C297.69,-645.49 339.04,-707.47 393,-739 406.41,-746.83 421.44,-752.6 436.79,-756.83"/>
<polygon fill="black" stroke="black" points="279.06,-605.71 271.15,-598.67 272.94,-609.11 279.06,-605.71"/>
</g>
<!-- Source&#45;&gt;SubsequentCitation -->
<!-- Source&#45;&gt;OriginCitation -->
<!-- CitationTopic&#45;&gt;Topic -->
<g id="edge22" class="edge">
<title>CitationTopic&#45;&gt;Topic</title>
<path fill="none" stroke="black" stroke-dasharray="1,5" d="M303.99,-1169C362.23,-1169 462.78,-1169 517.17,-1169"/>
<polygon fill="black" stroke="black" points="516.85,-1172.5 526.85,-1169 516.85,-1165.5 516.85,-1172.5"/>
</g>
<!-- RelatedOriginRelationship&#45;&gt;OriginFieldOccurrence -->
<g id="edge11" class="edge">
<title>RelatedOriginRelationship&#45;&gt;OriginFieldOccurrence</title>
<path fill="none" stroke="black" stroke-dasharray="1,5" d="M898.96,-839.43C914.36,-843.93 930.96,-848.77 946.81,-853.4"/>
<polygon fill="black" stroke="black" points="945.6,-856.69 956.18,-856.13 947.57,-849.97 945.6,-856.69"/>
</g>
<!-- RelatedOriginRelationship&#45;&gt;OriginLot -->
<g id="edge12" class="edge">
<title>RelatedOriginRelationship&#45;&gt;OriginLot</title>
<path fill="none" stroke="black" stroke-dasharray="1,5" d="M915.61,-821C935.99,-821 957.2,-821 975.2,-821"/>
<polygon fill="black" stroke="black" points="975.01,-824.5 985.01,-821 975.01,-817.5 975.01,-824.5"/>
</g>
<!-- RelatedOriginRelationship&#45;&gt;OriginSpecimen -->
<g id="edge14" class="edge">
<title>RelatedOriginRelationship&#45;&gt;OriginSpecimen</title>
<path fill="none" stroke="black" stroke-dasharray="1,5" d="M898.96,-802.57C917.95,-797.02 938.78,-790.95 957.76,-785.4"/>
<polygon fill="black" stroke="black" points="958.63,-788.8 967.24,-782.64 956.66,-782.08 958.63,-788.8"/>
</g>
<!-- OriginRelationship&#45;&gt;RelatedOriginRelationship -->
<!-- Role&#45;&gt;Verifier -->
<!-- SubsequentCitation&#45;&gt;SubsequentSource -->
<g id="edge20" class="edge">
<title>SubsequentCitation&#45;&gt;SubsequentSource</title>
<path fill="none" stroke="black" stroke-dasharray="1,5" d="M896.14,-1090C914.12,-1090 933.97,-1090 952.43,-1090"/>
<polygon fill="black" stroke="black" points="952.21,-1093.5 962.21,-1090 952.21,-1086.5 952.21,-1093.5"/>
</g>
<!-- VerifierRole&#45;&gt;Verifier -->
<g id="edge26" class="edge">
<title>VerifierRole&#45;&gt;Verifier</title>
<path fill="none" stroke="black" stroke-dasharray="1,5" d="M597.31,-160.05C650.28,-154.88 742.35,-145.91 794.62,-140.82"/>
<polygon fill="black" stroke="black" points="794.64,-144.33 804.26,-139.88 793.96,-137.37 794.64,-144.33"/>
</g>
<!-- Version&#45;&gt;PinboardItem -->
<!-- Creator&#45;&gt;Updater -->
<!-- Project&#45;&gt;Creator -->
<!-- Citation -->
<g id="node1" class="node">
<title>Citation</title>
<g id="a_node1"><a xlink:href="/develop/Data/models.html#citation" xlink:title="Citation" target="_top">
<ellipse fill="#abcdef" stroke="#dddeee" cx="61.59" cy="-1114" rx="40.6" ry="18"/>
<text text-anchor="middle" x="61.59" y="-1108.95" font-family="Times,serif" font-size="14.00">Citation</text>
</a>
</g>
</g>
<!-- Confidence -->
<g id="node2" class="node">
<title>Confidence</title>
<g id="a_node2"><a xlink:href="/develop/Data/models.html#confidence" xlink:title="Confidence" target="_top">
<ellipse fill="#abcdef" stroke="#dddeee" cx="61.59" cy="-517" rx="53.4" ry="18"/>
<text text-anchor="middle" x="61.59" y="-511.95" font-family="Times,serif" font-size="14.00">Confidence</text>
</a>
</g>
</g>
<!-- DataAttribute -->
<g id="node3" class="node">
<title>DataAttribute</title>
<g id="a_node3"><a xlink:href="/develop/Data/models.html#data-attribute" xlink:title="DataAttribute" target="_top">
<ellipse fill="#abcdef" stroke="#dddeee" cx="61.59" cy="-679" rx="61.59" ry="18"/>
<text text-anchor="middle" x="61.59" y="-673.95" font-family="Times,serif" font-size="14.00">DataAttribute</text>
</a>
</g>
</g>
<!-- Identifier -->
<g id="node4" class="node">
<title>Identifier</title>
<g id="a_node4"><a xlink:href="/develop/Data/models.html#identifier" xlink:title="Identifier" target="_top">
<ellipse fill="#abcdef" stroke="#dddeee" cx="61.59" cy="-625" rx="45.21" ry="18"/>
<text text-anchor="middle" x="61.59" y="-619.95" font-family="Times,serif" font-size="14.00">Identifier</text>
</a>
</g>
</g>
<!-- Tag -->
<g id="node5" class="node">
<title>Tag</title>
<g id="a_node5"><a xlink:href="/develop/Data/models.html#tag" xlink:title="Tag" target="_top">
<ellipse fill="#abcdef" stroke="#dddeee" cx="61.59" cy="-463" rx="27" ry="18"/>
<text text-anchor="middle" x="61.59" y="-457.95" font-family="Times,serif" font-size="14.00">Tag</text>
</a>
</g>
</g>
<!-- Note -->
<g id="node6" class="node">
<title>Note</title>
<g id="a_node6"><a xlink:href="/develop/Data/models.html#note" xlink:title="Note" target="_top">
<ellipse fill="#abcdef" stroke="#dddeee" cx="61.59" cy="-571" rx="28.83" ry="18"/>
<text text-anchor="middle" x="61.59" y="-565.95" font-family="Times,serif" font-size="14.00">Note</text>
</a>
</g>
</g>
<!-- AssertedDistribution -->
<g id="node7" class="node">
<title>AssertedDistribution</title>
<g id="a_node7"><a xlink:href="/develop/Data/models.html#asserted-distribution" xlink:title="AssertedDistribution" target="_top">
<polygon fill="#cdefab" stroke="#dedede" points="353,-567.54 353,-582.46 297.4,-593 218.77,-593 163.18,-582.46 163.18,-567.54 218.77,-557 297.4,-557 353,-567.54"/>
<polygon fill="none" stroke="#dedede" points="357,-564.23 357,-585.77 297.78,-597 218.4,-597 159.18,-585.77 159.18,-564.23 218.4,-553 297.78,-553 357,-564.23"/>
<text text-anchor="middle" x="258.09" y="-569.95" font-family="Times,serif" font-size="14.00">AssertedDistribution</text>
</a>
</g>
</g>
<!-- Source -->
<g id="node8" class="node">
<title>Source</title>
<g id="a_node8"><a xlink:href="/develop/Data/models.html#source" xlink:title="Source" target="_top">
<path fill="#fedcba" stroke="#dddeee" d="M540.72,-1096C540.72,-1096 570.72,-1096 570.72,-1096 576.72,-1096 582.72,-1102 582.72,-1108 582.72,-1108 582.72,-1120 582.72,-1120 582.72,-1126 576.72,-1132 570.72,-1132 570.72,-1132 540.72,-1132 540.72,-1132 534.72,-1132 528.72,-1126 528.72,-1120 528.72,-1120 528.72,-1108 528.72,-1108 528.72,-1102 534.72,-1096 540.72,-1096"/>
<text text-anchor="middle" x="555.72" y="-1109.2" font-family="Times,serif" font-size="14.00">Source</text>
</a>
</g>
</g>
<!-- Otu -->
<g id="node9" class="node">
<title>Otu</title>
<g id="a_node9"><a xlink:href="/develop/Data/models.html#otu" xlink:title="Otu" target="_top">
<path fill="#fedcba" stroke="#dddeee" d="M540.72,-694C540.72,-694 570.72,-694 570.72,-694 576.72,-694 582.72,-700 582.72,-706 582.72,-706 582.72,-718 582.72,-718 582.72,-724 576.72,-730 570.72,-730 570.72,-730 540.72,-730 540.72,-730 534.72,-730 528.72,-724 528.72,-718 528.72,-718 528.72,-706 528.72,-706 528.72,-700 534.72,-694 540.72,-694"/>
<text text-anchor="middle" x="555.72" y="-707.2" font-family="Times,serif" font-size="14.00">Otu</text>
</a>
</g>
</g>
<!-- TaxonName -->
<g id="node10" class="node">
<title>TaxonName</title>
<g id="a_node10"><a xlink:href="/develop/Data/models.html#taxon-name" xlink:title="TaxonName" target="_top">
<path fill="#fedcba" stroke="#dddeee" d="M525.97,-639C525.97,-639 585.47,-639 585.47,-639 591.47,-639 597.47,-645 597.47,-651 597.47,-651 597.47,-663 597.47,-663 597.47,-669 591.47,-675 585.47,-675 585.47,-675 525.97,-675 525.97,-675 519.97,-675 513.97,-669 513.97,-663 513.97,-663 513.97,-651 513.97,-651 513.97,-645 519.97,-639 525.97,-639"/>
<text text-anchor="middle" x="555.72" y="-652.2" font-family="Times,serif" font-size="14.00">TaxonName</text>
</a>
</g>
</g>
<!-- CitationTopic -->
<g id="node11" class="node">
<title>CitationTopic</title>
<g id="a_node11"><a xlink:href="/develop/Data/models.html#citation-topic" xlink:title="CitationTopic" target="_top">
<polygon fill="#eeefff" stroke="#dddeee" points="303.59,-1187 212.59,-1187 212.59,-1151 303.59,-1151 303.59,-1187"/>
<text text-anchor="middle" x="258.09" y="-1163.95" font-family="Times,serif" font-size="14.00">CitationTopic</text>
</a>
</g>
</g>
<!-- ConfidenceLevel -->
<g id="node12" class="node">
<title>ConfidenceLevel</title>
<g id="a_node12"><a xlink:href="/develop/Data/models.html#confidence-level" xlink:title="ConfidenceLevel" target="_top">
<polygon fill="#eeefff" stroke="#dddeee" points="312.59,-535 203.59,-535 203.59,-499 312.59,-499 312.59,-535"/>
<text text-anchor="middle" x="258.09" y="-511.95" font-family="Times,serif" font-size="14.00">ConfidenceLevel</text>
</a>
</g>
</g>
<!-- ImportAttribute -->
<g id="node13" class="node">
<title>ImportAttribute</title>
<g id="a_node13"><a xlink:href="/develop/Data/models.html#import-attribute" xlink:title="ImportAttribute" target="_top">
<polygon fill="#eeefff" stroke="#dddeee" points="606.85,-620 504.6,-620 504.6,-584 606.85,-584 606.85,-620"/>
<text text-anchor="middle" x="555.72" y="-596.95" font-family="Times,serif" font-size="14.00">ImportAttribute</text>
</a>
</g>
</g>
<!-- InternalAttribute -->
<g id="node14" class="node">
<title>InternalAttribute</title>
<g id="a_node14"><a xlink:href="/develop/Data/models.html#internal-attribute" xlink:title="InternalAttribute" target="_top">
<polygon fill="#eeefff" stroke="#dddeee" points="609.1,-566 502.35,-566 502.35,-530 609.1,-530 609.1,-566"/>
<text text-anchor="middle" x="555.72" y="-542.95" font-family="Times,serif" font-size="14.00">InternalAttribute</text>
</a>
</g>
</g>
<!-- Keyword -->
<g id="node15" class="node">
<title>Keyword</title>
<g id="a_node15"><a xlink:href="/develop/Data/models.html#keyword" xlink:title="Keyword" target="_top">
<polygon fill="#eeefff" stroke="#dddeee" points="291.21,-481 224.96,-481 224.96,-445 291.21,-445 291.21,-481"/>
<text text-anchor="middle" x="258.09" y="-457.95" font-family="Times,serif" font-size="14.00">Keyword</text>
</a>
</g>
</g>
<!-- RelatedOriginRelationship -->
<g id="node16" class="node">
<title>RelatedOriginRelationship</title>
<g id="a_node16"><a xlink:href="/develop/Data/models.html#related-origin-relationship" xlink:title="RelatedOriginRelationship" target="_top">
<polygon fill="#eeefff" stroke="#dddeee" points="915.19,-839 754.44,-839 754.44,-803 915.19,-803 915.19,-839"/>
<text text-anchor="middle" x="834.82" y="-815.95" font-family="Times,serif" font-size="14.00">RelatedOriginRelationship</text>
</a>
</g>
</g>
<!-- OriginFieldOccurrence -->
<g id="node17" class="node">
<title>OriginFieldOccurrence</title>
<g id="a_node17"><a xlink:href="/develop/Data/models.html#origin-field-occurrence" xlink:title="OriginFieldOccurrence" target="_top">
<polygon fill="#eeefff" stroke="#dddeee" points="1092.44,-893 951.19,-893 951.19,-857 1092.44,-857 1092.44,-893"/>
<text text-anchor="middle" x="1021.82" y="-869.95" font-family="Times,serif" font-size="14.00">OriginFieldOccurrence</text>
</a>
</g>
</g>
<!-- OriginLot -->
<g id="node18" class="node">
<title>OriginLot</title>
<g id="a_node18"><a xlink:href="/develop/Data/models.html#origin-lot" xlink:title="OriginLot" target="_top">
<polygon fill="#eeefff" stroke="#dddeee" points="1056.82,-839 986.82,-839 986.82,-803 1056.82,-803 1056.82,-839"/>
<text text-anchor="middle" x="1021.82" y="-815.95" font-family="Times,serif" font-size="14.00">OriginLot</text>
</a>
</g>
</g>
<!-- OriginRelationship -->
<g id="node19" class="node">
<title>OriginRelationship</title>
<g id="a_node19"><a xlink:href="/develop/Data/models.html#origin-relationship" xlink:title="OriginRelationship" target="_top">
<polygon fill="#eeefff" stroke="#dddeee" points="615.47,-839 495.97,-839 495.97,-803 615.47,-803 615.47,-839"/>
<text text-anchor="middle" x="555.72" y="-815.95" font-family="Times,serif" font-size="14.00">OriginRelationship</text>
</a>
</g>
</g>
<!-- OriginSpecimen -->
<g id="node20" class="node">
<title>OriginSpecimen</title>
<g id="a_node20"><a xlink:href="/develop/Data/models.html#origin-specimen" xlink:title="OriginSpecimen" target="_top">
<polygon fill="#eeefff" stroke="#dddeee" points="1074.44,-785 969.19,-785 969.19,-749 1074.44,-749 1074.44,-785"/>
<text text-anchor="middle" x="1021.82" y="-761.95" font-family="Times,serif" font-size="14.00">OriginSpecimen</text>
</a>
</g>
</g>
<!-- PinboardItem -->
<g id="node21" class="node">
<title>PinboardItem</title>
<g id="a_node21"><a xlink:href="/develop/Data/models.html#pinboard-item" xlink:title="PinboardItem" target="_top">
<polygon fill="#eeefff" stroke="#dddeee" points="879.94,-344 789.69,-344 789.69,-308 879.94,-308 879.94,-344"/>
<text text-anchor="middle" x="834.82" y="-320.95" font-family="Times,serif" font-size="14.00">PinboardItem</text>
</a>
</g>
</g>
<!-- Role -->
<g id="node22" class="node">
<title>Role</title>
<g id="a_node22"><a xlink:href="/develop/Data/models.html#role" xlink:title="Role" target="_top">
<polygon fill="#eeefff" stroke="#dddeee" points="582.72,-128 528.72,-128 528.72,-92 582.72,-92 582.72,-128"/>
<text text-anchor="middle" x="555.72" y="-104.95" font-family="Times,serif" font-size="14.00">Role</text>
</a>
</g>
</g>
<!-- SubsequentCitation -->
<g id="node23" class="node">
<title>SubsequentCitation</title>
<g id="a_node23"><a xlink:href="/develop/Data/models.html#subsequent-citation" xlink:title="SubsequentCitation" target="_top">
<polygon fill="#eeefff" stroke="#dddeee" points="895.69,-1108 773.94,-1108 773.94,-1072 895.69,-1072 895.69,-1108"/>
<text text-anchor="middle" x="834.82" y="-1084.95" font-family="Times,serif" font-size="14.00">SubsequentCitation</text>
</a>
</g>
</g>
<!-- SubsequentSource -->
<g id="node24" class="node">
<title>SubsequentSource</title>
<g id="a_node24"><a xlink:href="/develop/Data/models.html#subsequent-source" xlink:title="SubsequentSource" target="_top">
<polygon fill="#eeefff" stroke="#dddeee" points="1079.69,-1108 963.94,-1108 963.94,-1072 1079.69,-1072 1079.69,-1108"/>
<text text-anchor="middle" x="1021.82" y="-1084.95" font-family="Times,serif" font-size="14.00">SubsequentSource</text>
</a>
</g>
</g>
<!-- Topic -->
<g id="node25" class="node">
<title>Topic</title>
<g id="a_node25"><a xlink:href="/develop/Data/models.html#topic" xlink:title="Topic" target="_top">
<polygon fill="#eeefff" stroke="#dddeee" points="582.72,-1187 528.72,-1187 528.72,-1151 582.72,-1151 582.72,-1187"/>
<text text-anchor="middle" x="555.72" y="-1163.95" font-family="Times,serif" font-size="14.00">Topic</text>
</a>
</g>
</g>
<!-- Uri -->
<g id="node26" class="node">
<title>Uri</title>
<g id="a_node26"><a xlink:href="/develop/Data/models.html#uri" xlink:title="Uri" target="_top">
<polygon fill="#eeefff" stroke="#dddeee" points="582.72,-290 528.72,-290 528.72,-254 582.72,-254 582.72,-290"/>
<text text-anchor="middle" x="555.72" y="-266.95" font-family="Times,serif" font-size="14.00">Uri</text>
</a>
</g>
</g>
<!-- Uuid -->
<g id="node27" class="node">
<title>Uuid</title>
<g id="a_node27"><a xlink:href="/develop/Data/models.html#uuid" xlink:title="Uuid" target="_top">
<polygon fill="#eeefff" stroke="#dddeee" points="582.72,-236 528.72,-236 528.72,-200 582.72,-200 582.72,-236"/>
<text text-anchor="middle" x="555.72" y="-212.95" font-family="Times,serif" font-size="14.00">Uuid</text>
</a>
</g>
</g>
<!-- VerifierRole -->
<g id="node28" class="node">
<title>VerifierRole</title>
<g id="a_node28"><a xlink:href="/develop/Data/models.html#verifier-role" xlink:title="VerifierRole" target="_top">
<polygon fill="#eeefff" stroke="#dddeee" points="597.1,-182 514.35,-182 514.35,-146 597.1,-146 597.1,-182"/>
<text text-anchor="middle" x="555.72" y="-158.95" font-family="Times,serif" font-size="14.00">VerifierRole</text>
</a>
</g>
</g>
<!-- Verifier -->
<g id="node29" class="node">
<title>Verifier</title>
<g id="a_node29"><a xlink:href="/develop/Data/models.html#verifier" xlink:title="Verifier" target="_top">
<polygon fill="#eeefff" stroke="#dddeee" points="863.44,-155 806.19,-155 806.19,-119 863.44,-119 863.44,-155"/>
<text text-anchor="middle" x="834.82" y="-131.95" font-family="Times,serif" font-size="14.00">Verifier</text>
</a>
</g>
</g>
<!-- Version -->
<g id="node30" class="node">
<title>Version</title>
<g id="a_node30"><a xlink:href="/develop/Data/models.html#version" xlink:title="Version" target="_top">
<polygon fill="#eeefff" stroke="#dddeee" points="584.35,-344 527.1,-344 527.1,-308 584.35,-308 584.35,-344"/>
<text text-anchor="middle" x="555.72" y="-320.95" font-family="Times,serif" font-size="14.00">Version</text>
</a>
</g>
</g>
<!-- Creator -->
<g id="node31" class="node">
<title>Creator</title>
<g id="a_node31"><a xlink:href="/develop/Data/models.html#creator" xlink:title="Creator" target="_top">
<polygon fill="#eeefff" stroke="#dddeee" points="863.07,-474 806.57,-474 806.57,-438 863.07,-438 863.07,-474"/>
<text text-anchor="middle" x="834.82" y="-450.95" font-family="Times,serif" font-size="14.00">Creator</text>
</a>
</g>
</g>
<!-- Gazetteer -->
<g id="node32" class="node">
<title>Gazetteer</title>
<g id="a_node32"><a xlink:href="/develop/Data/models.html#gazetteer" xlink:title="Gazetteer" target="_top">
<polygon fill="#eeefff" stroke="#dddeee" points="589.6,-36 521.85,-36 521.85,0 589.6,0 589.6,-36"/>
<text text-anchor="middle" x="555.72" y="-12.95" font-family="Times,serif" font-size="14.00">Gazetteer</text>
</a>
</g>
</g>
<!-- GeographicArea -->
<g id="node33" class="node">
<title>GeographicArea</title>
<g id="a_node33"><a xlink:href="/develop/Data/models.html#geographic-area" xlink:title="GeographicArea" target="_top">
<polygon fill="#eeefff" stroke="#dddeee" points="608.35,-1039 503.1,-1039 503.1,-1003 608.35,-1003 608.35,-1039"/>
<text text-anchor="middle" x="555.72" y="-1015.95" font-family="Times,serif" font-size="14.00">GeographicArea</text>
</a>
</g>
</g>
<!-- Project -->
<g id="node34" class="node">
<title>Project</title>
<g id="a_node34"><a xlink:href="/develop/Data/models.html#project" xlink:title="Project" target="_top">
<polygon fill="#eeefff" stroke="#dddeee" points="582.85,-474 528.6,-474 528.6,-438 582.85,-438 582.85,-474"/>
<text text-anchor="middle" x="555.72" y="-450.95" font-family="Times,serif" font-size="14.00">Project</text>
</a>
</g>
</g>
<!-- Updater -->
<g id="node35" class="node">
<title>Updater</title>
<g id="a_node35"><a xlink:href="/develop/Data/models.html#updater" xlink:title="Updater" target="_top">
<polygon fill="#eeefff" stroke="#dddeee" points="1051.57,-474 992.07,-474 992.07,-438 1051.57,-438 1051.57,-474"/>
<text text-anchor="middle" x="1021.82" y="-450.95" font-family="Times,serif" font-size="14.00">Updater</text>
</a>
</g>
</g>
<!-- CachedMapRegister -->
<g id="node36" class="node">
<title>CachedMapRegister</title>
<g id="a_node36"><a xlink:href="/develop/Data/models.html#cached-map-register" xlink:title="CachedMapRegister" target="_top">
<polygon fill="#eeefff" stroke="#dddeee" points="619.22,-985 492.22,-985 492.22,-949 619.22,-949 619.22,-985"/>
<text text-anchor="middle" x="555.72" y="-961.95" font-family="Times,serif" font-size="14.00">CachedMapRegister</text>
</a>
</g>
</g>
<!-- DwcOccurrence -->
<g id="node37" class="node">
<title>DwcOccurrence</title>
<g id="a_node37"><a xlink:href="/develop/Data/models.html#dwc-occurrence" xlink:title="DwcOccurrence" target="_top">
<polygon fill="#eeefff" stroke="#dddeee" points="607.6,-931 503.85,-931 503.85,-895 607.6,-895 607.6,-931"/>
<text text-anchor="middle" x="555.72" y="-907.95" font-family="Times,serif" font-size="14.00">DwcOccurrence</text>
</a>
</g>
</g>
<!-- OriginCitation -->
<g id="node38" class="node">
<title>OriginCitation</title>
<g id="a_node38"><a xlink:href="/develop/Data/models.html#origin-citation" xlink:title="OriginCitation" target="_top">
<polygon fill="#eeefff" stroke="#dddeee" points="882.19,-962 787.44,-962 787.44,-926 882.19,-926 882.19,-962"/>
<text text-anchor="middle" x="834.82" y="-938.95" font-family="Times,serif" font-size="14.00">OriginCitation</text>
</a>
</g>
</g>
<!-- Objects with Asserted distributions -->
<g id="node39" class="node">
<title>Objects with Asserted distributions</title>
<g id="a_node39"><a xlink:href="/develop/Data/models.html#objects with asserted distribution" xlink:title="Objects with Asserted distributions" target="_top">
<polygon fill="#cdabef" stroke="#dedede" points="718.44,-767 637.08,-785 474.36,-785 393,-767 474.36,-749 637.08,-749 718.44,-767"/>
<text text-anchor="middle" x="555.72" y="-761.95" font-family="Times,serif" font-size="14.00">Objects with Asserted distributions</text>
</a>
</g>
</g>
</g>
</svg>
