<?xml version="1.0" encoding="UTF-8" standalone="no"?>
<!DOCTYPE svg PUBLIC "-//W3C//DTD SVG 1.1//EN"
 "http://www.w3.org/Graphics/SVG/1.1/DTD/svg11.dtd">
<!-- Generated by graphviz version 12.2.1 (20241206.2353)
 -->
<!-- Title: Attribution Pages: 1 -->
<svg width="804pt" height="795pt"
 viewBox="0.00 0.00 803.86 794.64" xmlns="http://www.w3.org/2000/svg" xmlns:xlink="http://www.w3.org/1999/xlink">
<g id="graph0" class="graph" transform="scale(1 1) rotate(0) translate(4 790.64)">
<title>Attribution</title>
<polygon fill="white" stroke="none" points="-4,4 -4,-790.64 799.86,-790.64 799.86,4 -4,4"/>
<!-- Attribution&#45;&gt;Confidence -->
<g id="edge10" class="edge">
<title>Attribution&#45;&gt;Confidence</title>
<path fill="none" stroke="black" d="M39.81,-311.51C27.98,-305.55 16.74,-297.31 9.82,-286 -4.67,-262.3 -1.33,-186.44 9.82,-161 18.62,-140.95 36.05,-124.01 52.23,-111.61"/>
<polygon fill="black" stroke="black" points="54.28,-114.45 60.31,-105.74 50.16,-108.79 54.28,-114.45"/>
</g>
<!-- Attribution&#45;&gt;Tag -->
<g id="edge19" class="edge">
<title>Attribution&#45;&gt;Tag</title>
<path fill="none" stroke="black" d="M39.81,-311.51C27.98,-305.55 16.74,-297.31 9.82,-286 -10.1,-253.42 28.69,-218.09 58.41,-197.29"/>
<polygon fill="black" stroke="black" points="60.06,-200.39 66.4,-191.91 56.15,-194.59 60.06,-200.39"/>
</g>
<!-- Attribution&#45;&gt;Note -->
<g id="edge15" class="edge">
<title>Attribution&#45;&gt;Note</title>
<path fill="none" stroke="black" d="M87.96,-303.57C87.96,-301.57 87.96,-299.57 87.96,-297.57"/>
<polygon fill="black" stroke="black" points="91.46,-297.64 87.96,-287.64 84.46,-297.64 91.46,-297.64"/>
</g>
<!-- Attribution&#45;&gt;CopyrightHolderRole -->
<g id="edge11" class="edge">
<title>Attribution&#45;&gt;CopyrightHolderRole</title>
<path fill="none" stroke="black" d="M93.05,-348.36C102.33,-394.05 128.63,-499.65 184.1,-569 203.1,-592.75 230.95,-612.17 255.01,-626.03"/>
<polygon fill="black" stroke="black" points="253.29,-629.08 263.73,-630.89 256.7,-622.97 253.29,-629.08"/>
</g>
<!-- Attribution&#45;&gt;CreatorRole -->
<g id="edge12" class="edge">
<title>Attribution&#45;&gt;CreatorRole</title>
<path fill="none" stroke="black" d="M101.31,-348.42C117.69,-376.82 148.69,-426.26 184.1,-461 206.78,-483.25 236.3,-503.29 260.36,-517.88"/>
<polygon fill="black" stroke="black" points="258.28,-520.71 268.66,-522.82 261.85,-514.7 258.28,-520.71"/>
</g>
<!-- Attribution&#45;&gt;EditorRole -->
<g id="edge13" class="edge">
<title>Attribution&#45;&gt;EditorRole</title>
<path fill="none" stroke="black" d="M109.06,-348.31C126.96,-366.81 154.8,-392.35 184.1,-407 206.36,-418.13 233.23,-424.72 255.87,-428.6"/>
<polygon fill="black" stroke="black" points="255.03,-432.01 265.45,-430.11 256.11,-425.1 255.03,-432.01"/>
</g>
<!-- Attribution&#45;&gt;OwnerRole -->
<g id="edge16" class="edge">
<title>Attribution&#45;&gt;OwnerRole</title>
<path fill="none" stroke="black" d="M137.22,-340.25C152.2,-344.52 168.79,-349.11 184.1,-353 207.03,-358.84 232.6,-364.69 254.21,-369.45"/>
<polygon fill="black" stroke="black" points="253.44,-372.86 263.96,-371.58 254.93,-366.02 253.44,-372.86"/>
</g>
<!-- Attribution&#45;&gt;PinboardItem -->
<g id="edge17" class="edge">
<title>Attribution&#45;&gt;PinboardItem</title>
<path fill="none" stroke="black" d="M148.54,-326C179.71,-326 217.63,-326 248.2,-326"/>
<polygon fill="black" stroke="black" points="248.02,-329.5 258.02,-326 248.02,-322.5 248.02,-329.5"/>
</g>
<!-- Attribution&#45;&gt;Role -->
<g id="edge18" class="edge">
<title>Attribution&#45;&gt;Role</title>
<path fill="none" stroke="black" d="M137.22,-311.75C152.2,-307.48 168.79,-302.89 184.1,-299 211.61,-292 242.92,-284.97 266.62,-279.85"/>
<polygon fill="black" stroke="black" points="267.07,-283.33 276.11,-277.81 265.6,-276.48 267.07,-283.33"/>
</g>
<!-- Attribution&#45;&gt;VerifierRole -->
<g id="edge20" class="edge">
<title>Attribution&#45;&gt;VerifierRole</title>
<path fill="none" stroke="black" d="M128.17,-308.76C135.18,-304.78 142.14,-300.17 148.1,-295 168.78,-277.05 161.26,-260.1 184.1,-245 204.01,-231.84 229.41,-225.02 251.7,-221.52"/>
<polygon fill="black" stroke="black" points="252.08,-225 261.52,-220.18 251.14,-218.07 252.08,-225"/>
</g>
<!-- Attribution&#45;&gt;Creator -->
<g id="edge23" class="edge">
<title>Attribution&#45;&gt;Creator</title>
<path fill="none" stroke="black" stroke-dasharray="5,2" d="M139.58,-303.13C142.68,-300.65 145.56,-297.94 148.1,-295 180,-257.93 146.59,-222.39 184.1,-191 225.76,-156.13 372.02,-161.9 425.61,-153 470.03,-145.62 521.54,-136.5 552.41,-130.97"/>
<polygon fill="black" stroke="black" points="137.84,-300.07 131.63,-308.65 141.84,-305.82 137.84,-300.07"/>
</g>
<!-- Attribution&#45;&gt;Project -->
<g id="edge24" class="edge">
<title>Attribution&#45;&gt;Project</title>
<path fill="none" stroke="black" stroke-dasharray="5,2" d="M139.84,-303.34C142.88,-300.81 145.68,-298.04 148.1,-295 187.31,-245.75 139.67,-202.61 184.1,-158 208.77,-133.22 250.38,-127.01 277.47,-125.77"/>
<polygon fill="black" stroke="black" points="138.1,-300.29 131.99,-308.94 142.16,-305.98 138.1,-300.29"/>
</g>
<!-- Attribution&#45;&gt;Updater -->
<g id="edge25" class="edge">
<title>Attribution&#45;&gt;Updater</title>
<path fill="none" stroke="black" stroke-dasharray="5,2" d="M91.65,-359.75C99.47,-448.46 125.51,-684.58 184.1,-731 274.02,-802.25 615.03,-807.69 700.36,-731 745.2,-690.71 761.56,-241.32 764.58,-144.37"/>
<polygon fill="black" stroke="black" points="95.15,-359.66 90.81,-349.99 88.18,-360.25 95.15,-359.66"/>
</g>
<!-- Attribution&#45;&gt;Objects with Attributions -->
<g id="edge22" class="edge">
<title>Attribution&#45;&gt;Objects with Attributions</title>
<path fill="none" stroke="black" stroke-dasharray="5,2" d="M93.62,-359.67C105.24,-438.7 137.91,-632.76 184.1,-677 192.33,-684.89 202.35,-690.66 213.06,-694.85"/>
<polygon fill="black" stroke="black" points="97.11,-359.34 92.22,-349.94 90.18,-360.34 97.11,-359.34"/>
</g>
<!-- Confidence&#45;&gt;ConfidenceLevel -->
<g id="edge9" class="edge">
<title>Confidence&#45;&gt;ConfidenceLevel</title>
<path fill="none" stroke="black" stroke-dasharray="1,5" d="M117.87,-73.68C136.4,-64.36 161.18,-52.78 184.1,-45 201.65,-39.04 221.09,-34.01 239.12,-29.97"/>
<polygon fill="black" stroke="black" points="239.62,-33.45 248.65,-27.91 238.13,-26.6 239.62,-33.45"/>
</g>
<!-- Tag&#45;&gt;Keyword -->
<g id="edge14" class="edge">
<title>Tag&#45;&gt;Keyword</title>
<path fill="none" stroke="black" stroke-dasharray="1,5" d="M102.83,-163.5C120.06,-145.23 151.23,-115.3 184.1,-99 207.78,-87.25 236.63,-80.55 260.08,-76.76"/>
<polygon fill="black" stroke="black" points="260.57,-80.23 269.95,-75.3 259.55,-73.3 260.57,-80.23"/>
</g>
<!-- CopyrightHolderRole&#45;&gt;AttributionCopyrightHolder -->
<g id="edge1" class="edge">
<title>CopyrightHolderRole&#45;&gt;AttributionCopyrightHolder</title>
<path fill="none" stroke="black" stroke-dasharray="1,5" d="M372.22,-663.07C406.25,-669.78 448.3,-678.06 485.64,-685.42"/>
<polygon fill="black" stroke="black" points="484.58,-688.77 495.07,-687.27 485.93,-681.91 484.58,-688.77"/>
</g>
<!-- CopyrightHolderRole&#45;&gt;AttributionOrganizationCopyrightHolder -->
<g id="edge4" class="edge">
<title>CopyrightHolderRole&#45;&gt;AttributionOrganizationCopyrightHolder</title>
<path fill="none" stroke="black" stroke-dasharray="1,5" d="M372.22,-650C395.65,-650 422.88,-650 449.75,-650"/>
<polygon fill="black" stroke="black" points="449.72,-653.5 459.72,-650 449.72,-646.5 449.72,-653.5"/>
</g>
<!-- CreatorRole&#45;&gt;AttributionCreator -->
<g id="edge2" class="edge">
<title>CreatorRole&#45;&gt;AttributionCreator</title>
<path fill="none" stroke="black" stroke-dasharray="1,5" d="M346.3,-549.97C389.67,-558.51 459.27,-572.22 511.26,-582.46"/>
<polygon fill="black" stroke="black" points="510.43,-585.86 520.91,-584.36 511.78,-579 510.43,-585.86"/>
</g>
<!-- CreatorRole&#45;&gt;AttributionOrganizationCreator -->
<g id="edge5" class="edge">
<title>CreatorRole&#45;&gt;AttributionOrganizationCreator</title>
<path fill="none" stroke="black" stroke-dasharray="1,5" d="M346.3,-542C380.36,-542 430.59,-542 475.77,-542"/>
<polygon fill="black" stroke="black" points="475.62,-545.5 485.62,-542 475.62,-538.5 475.62,-545.5"/>
</g>
<!-- EditorRole&#45;&gt;AttributionEditor -->
<g id="edge3" class="edge">
<title>EditorRole&#45;&gt;AttributionEditor</title>
<path fill="none" stroke="black" stroke-dasharray="1,5" d="M342.83,-441.28C386.76,-449.94 460.86,-464.53 514.56,-475.11"/>
<polygon fill="black" stroke="black" points="513.72,-478.51 524.21,-477.01 515.07,-471.64 513.72,-478.51"/>
</g>
<!-- EditorRole&#45;&gt;AttributionOrganizationEditor -->
<g id="edge6" class="edge">
<title>EditorRole&#45;&gt;AttributionOrganizationEditor</title>
<path fill="none" stroke="black" stroke-dasharray="1,5" d="M342.83,-434C377.73,-434 431.69,-434 479.32,-434"/>
<polygon fill="black" stroke="black" points="479.12,-437.5 489.12,-434 479.12,-430.5 479.12,-437.5"/>
</g>
<!-- OwnerRole&#45;&gt;AttributionOrganizationOwner -->
<g id="edge7" class="edge">
<title>OwnerRole&#45;&gt;AttributionOrganizationOwner</title>
<path fill="none" stroke="black" stroke-dasharray="1,5" d="M344.26,-380C378.77,-380 431.03,-380 477.58,-380"/>
<polygon fill="black" stroke="black" points="477.45,-383.5 487.45,-380 477.45,-376.5 477.45,-383.5"/>
</g>
<!-- OwnerRole&#45;&gt;AttributionOwner -->
<g id="edge8" class="edge">
<title>OwnerRole&#45;&gt;AttributionOwner</title>
<path fill="none" stroke="black" stroke-dasharray="1,5" d="M344.26,-372.43C388.01,-363.82 460.28,-349.58 513.29,-339.14"/>
<polygon fill="black" stroke="black" points="513.67,-342.63 522.8,-337.26 512.31,-335.76 513.67,-342.63"/>
</g>
<!-- Role&#45;&gt;Verifier -->
<!-- VerifierRole&#45;&gt;Verifier -->
<g id="edge21" class="edge">
<title>VerifierRole&#45;&gt;Verifier</title>
<path fill="none" stroke="black" stroke-dasharray="1,5" d="M346.6,-222.01C398.9,-227.16 489.05,-236.04 540.66,-241.13"/>
<polygon fill="black" stroke="black" points="540.18,-244.6 550.48,-242.09 540.87,-237.63 540.18,-244.6"/>
</g>
<!-- Creator&#45;&gt;Updater -->
<!-- Project&#45;&gt;Creator -->
<!-- Attribution -->
<g id="node1" class="node">
<title>Attribution</title>
<g id="a_node1"><a xlink:href="/develop/Data/models.html#attribution" xlink:title="Attribution" target="_top">
<polygon fill="#cdefab" stroke="#dedede" points="144.1,-318.54 144.1,-333.46 111.21,-344 64.71,-344 31.82,-333.46 31.82,-318.54 64.71,-308 111.21,-308 144.1,-318.54"/>
<polygon fill="none" stroke="#dedede" points="148.1,-315.63 148.1,-336.37 111.84,-348 64.08,-348 27.82,-336.37 27.82,-315.63 64.08,-304 111.84,-304 148.1,-315.63"/>
<text text-anchor="middle" x="87.96" y="-320.95" font-family="Times,serif" font-size="14.00">Attribution</text>
</a>
</g>
</g>
<!-- Confidence -->
<g id="node2" class="node">
<title>Confidence</title>
<g id="a_node2"><a xlink:href="/develop/Data/models.html#confidence" xlink:title="Confidence" target="_top">
<ellipse fill="#abcdef" stroke="#dddeee" cx="87.96" cy="-89" rx="53.4" ry="18"/>
<text text-anchor="middle" x="87.96" y="-83.95" font-family="Times,serif" font-size="14.00">Confidence</text>
</a>
</g>
</g>
<!-- Tag -->
<g id="node3" class="node">
<title>Tag</title>
<g id="a_node3"><a xlink:href="/develop/Data/models.html#tag" xlink:title="Tag" target="_top">
<ellipse fill="#abcdef" stroke="#dddeee" cx="87.96" cy="-179" rx="27" ry="18"/>
<text text-anchor="middle" x="87.96" y="-173.95" font-family="Times,serif" font-size="14.00">Tag</text>
</a>
</g>
</g>
<!-- Note -->
<g id="node4" class="node">
<title>Note</title>
<g id="a_node4"><a xlink:href="/develop/Data/models.html#note" xlink:title="Note" target="_top">
<ellipse fill="#abcdef" stroke="#dddeee" cx="87.96" cy="-268" rx="28.83" ry="18"/>
<text text-anchor="middle" x="87.96" y="-262.95" font-family="Times,serif" font-size="14.00">Note</text>
</a>
</g>
</g>
<!-- CopyrightHolderRole -->
<g id="node5" class="node">
<title>CopyrightHolderRole</title>
<g id="a_node5"><a xlink:href="/develop/Data/models.html#copyright-holder-role" xlink:title="CopyrightHolderRole" target="_top">
<polygon fill="#eeefff" stroke="#dddeee" points="371.73,-668 237.98,-668 237.98,-632 371.73,-632 371.73,-668"/>
<text text-anchor="middle" x="304.86" y="-644.95" font-family="Times,serif" font-size="14.00">CopyrightHolderRole</text>
</a>
</g>
</g>
<!-- AttributionCopyrightHolder -->
<g id="node6" class="node">
<title>AttributionCopyrightHolder</title>
<g id="a_node6"><a xlink:href="/develop/Data/models.html#attribution-copyright-holder" xlink:title="AttributionCopyrightHolder" target="_top">
<polygon fill="#eeefff" stroke="#dddeee" points="665.11,-722 496.86,-722 496.86,-686 665.11,-686 665.11,-722"/>
<text text-anchor="middle" x="580.99" y="-698.95" font-family="Times,serif" font-size="14.00">AttributionCopyrightHolder</text>
</a>
</g>
</g>
<!-- CreatorRole -->
<g id="node7" class="node">
<title>CreatorRole</title>
<g id="a_node7"><a xlink:href="/develop/Data/models.html#creator-role" xlink:title="CreatorRole" target="_top">
<polygon fill="#eeefff" stroke="#dddeee" points="345.86,-560 263.86,-560 263.86,-524 345.86,-524 345.86,-560"/>
<text text-anchor="middle" x="304.86" y="-536.95" font-family="Times,serif" font-size="14.00">CreatorRole</text>
</a>
</g>
</g>
<!-- AttributionCreator -->
<g id="node8" class="node">
<title>AttributionCreator</title>
<g id="a_node8"><a xlink:href="/develop/Data/models.html#attribution-creator" xlink:title="AttributionCreator" target="_top">
<polygon fill="#eeefff" stroke="#dddeee" points="639.24,-614 522.74,-614 522.74,-578 639.24,-578 639.24,-614"/>
<text text-anchor="middle" x="580.99" y="-590.95" font-family="Times,serif" font-size="14.00">AttributionCreator</text>
</a>
</g>
</g>
<!-- EditorRole -->
<g id="node9" class="node">
<title>EditorRole</title>
<g id="a_node9"><a xlink:href="/develop/Data/models.html#editor-role" xlink:title="EditorRole" target="_top">
<polygon fill="#eeefff" stroke="#dddeee" points="342.48,-452 267.23,-452 267.23,-416 342.48,-416 342.48,-452"/>
<text text-anchor="middle" x="304.86" y="-428.95" font-family="Times,serif" font-size="14.00">EditorRole</text>
</a>
</g>
</g>
<!-- AttributionEditor -->
<g id="node10" class="node">
<title>AttributionEditor</title>
<g id="a_node10"><a xlink:href="/develop/Data/models.html#attribution-editor" xlink:title="AttributionEditor" target="_top">
<polygon fill="#eeefff" stroke="#dddeee" points="635.86,-506 526.11,-506 526.11,-470 635.86,-470 635.86,-506"/>
<text text-anchor="middle" x="580.99" y="-482.95" font-family="Times,serif" font-size="14.00">AttributionEditor</text>
</a>
</g>
</g>
<!-- AttributionOrganizationCopyrightHolder -->
<g id="node11" class="node">
<title>AttributionOrganizationCopyrightHolder</title>
<g id="a_node11"><a xlink:href="/develop/Data/models.html#attribution-organization-copyright-holder" xlink:title="AttributionOrganizationCopyrightHolder" target="_top">
<polygon fill="#eeefff" stroke="#dddeee" points="700.36,-668 461.61,-668 461.61,-632 700.36,-632 700.36,-668"/>
<text text-anchor="middle" x="580.99" y="-644.95" font-family="Times,serif" font-size="14.00">AttributionOrganizationCopyrightHolder</text>
</a>
</g>
</g>
<!-- AttributionOrganizationCreator -->
<g id="node12" class="node">
<title>AttributionOrganizationCreator</title>
<g id="a_node12"><a xlink:href="/develop/Data/models.html#attribution-organization-creator" xlink:title="AttributionOrganizationCreator" target="_top">
<polygon fill="#eeefff" stroke="#dddeee" points="674.49,-560 487.49,-560 487.49,-524 674.49,-524 674.49,-560"/>
<text text-anchor="middle" x="580.99" y="-536.95" font-family="Times,serif" font-size="14.00">AttributionOrganizationCreator</text>
</a>
</g>
</g>
<!-- AttributionOrganizationEditor -->
<g id="node13" class="node">
<title>AttributionOrganizationEditor</title>
<g id="a_node13"><a xlink:href="/develop/Data/models.html#attribution-organization-editor" xlink:title="AttributionOrganizationEditor" target="_top">
<polygon fill="#eeefff" stroke="#dddeee" points="671.11,-452 490.86,-452 490.86,-416 671.11,-416 671.11,-452"/>
<text text-anchor="middle" x="580.99" y="-428.95" font-family="Times,serif" font-size="14.00">AttributionOrganizationEditor</text>
</a>
</g>
</g>
<!-- OwnerRole -->
<g id="node14" class="node">
<title>OwnerRole</title>
<g id="a_node14"><a xlink:href="/develop/Data/models.html#owner-role" xlink:title="OwnerRole" target="_top">
<polygon fill="#eeefff" stroke="#dddeee" points="343.98,-398 265.73,-398 265.73,-362 343.98,-362 343.98,-398"/>
<text text-anchor="middle" x="304.86" y="-374.95" font-family="Times,serif" font-size="14.00">OwnerRole</text>
</a>
</g>
</g>
<!-- AttributionOrganizationOwner -->
<g id="node15" class="node">
<title>AttributionOrganizationOwner</title>
<g id="a_node15"><a xlink:href="/develop/Data/models.html#attribution-organization-owner" xlink:title="AttributionOrganizationOwner" target="_top">
<polygon fill="#eeefff" stroke="#dddeee" points="672.61,-398 489.36,-398 489.36,-362 672.61,-362 672.61,-398"/>
<text text-anchor="middle" x="580.99" y="-374.95" font-family="Times,serif" font-size="14.00">AttributionOrganizationOwner</text>
</a>
</g>
</g>
<!-- AttributionOwner -->
<g id="node16" class="node">
<title>AttributionOwner</title>
<g id="a_node16"><a xlink:href="/develop/Data/models.html#attribution-owner" xlink:title="AttributionOwner" target="_top">
<polygon fill="#eeefff" stroke="#dddeee" points="637.36,-344 524.61,-344 524.61,-308 637.36,-308 637.36,-344"/>
<text text-anchor="middle" x="580.99" y="-320.95" font-family="Times,serif" font-size="14.00">AttributionOwner</text>
</a>
</g>
</g>
<!-- ConfidenceLevel -->
<g id="node17" class="node">
<title>ConfidenceLevel</title>
<g id="a_node17"><a xlink:href="/develop/Data/models.html#confidence-level" xlink:title="ConfidenceLevel" target="_top">
<polygon fill="#eeefff" stroke="#dddeee" points="359.36,-36 250.36,-36 250.36,0 359.36,0 359.36,-36"/>
<text text-anchor="middle" x="304.86" y="-12.95" font-family="Times,serif" font-size="14.00">ConfidenceLevel</text>
</a>
</g>
</g>
<!-- Keyword -->
<g id="node18" class="node">
<title>Keyword</title>
<g id="a_node18"><a xlink:href="/develop/Data/models.html#keyword" xlink:title="Keyword" target="_top">
<polygon fill="#eeefff" stroke="#dddeee" points="337.98,-90 271.73,-90 271.73,-54 337.98,-54 337.98,-90"/>
<text text-anchor="middle" x="304.86" y="-66.95" font-family="Times,serif" font-size="14.00">Keyword</text>
</a>
</g>
</g>
<!-- PinboardItem -->
<g id="node19" class="node">
<title>PinboardItem</title>
<g id="a_node19"><a xlink:href="/develop/Data/models.html#pinboard-item" xlink:title="PinboardItem" target="_top">
<polygon fill="#eeefff" stroke="#dddeee" points="349.98,-344 259.73,-344 259.73,-308 349.98,-308 349.98,-344"/>
<text text-anchor="middle" x="304.86" y="-320.95" font-family="Times,serif" font-size="14.00">PinboardItem</text>
</a>
</g>
</g>
<!-- Role -->
<g id="node20" class="node">
<title>Role</title>
<g id="a_node20"><a xlink:href="/develop/Data/models.html#role" xlink:title="Role" target="_top">
<polygon fill="#eeefff" stroke="#dddeee" points="331.86,-290 277.86,-290 277.86,-254 331.86,-254 331.86,-290"/>
<text text-anchor="middle" x="304.86" y="-266.95" font-family="Times,serif" font-size="14.00">Role</text>
</a>
</g>
</g>
<!-- VerifierRole -->
<g id="node21" class="node">
<title>VerifierRole</title>
<g id="a_node21"><a xlink:href="/develop/Data/models.html#verifier-role" xlink:title="VerifierRole" target="_top">
<polygon fill="#eeefff" stroke="#dddeee" points="346.23,-236 263.48,-236 263.48,-200 346.23,-200 346.23,-236"/>
<text text-anchor="middle" x="304.86" y="-212.95" font-family="Times,serif" font-size="14.00">VerifierRole</text>
</a>
</g>
</g>
<!-- Verifier -->
<g id="node22" class="node">
<title>Verifier</title>
<g id="a_node22"><a xlink:href="/develop/Data/models.html#verifier" xlink:title="Verifier" target="_top">
<polygon fill="#eeefff" stroke="#dddeee" points="609.61,-263 552.36,-263 552.36,-227 609.61,-227 609.61,-263"/>
<text text-anchor="middle" x="580.99" y="-239.95" font-family="Times,serif" font-size="14.00">Verifier</text>
</a>
</g>
</g>
<!-- Creator -->
<g id="node23" class="node">
<title>Creator</title>
<g id="a_node23"><a xlink:href="/develop/Data/models.html#creator" xlink:title="Creator" target="_top">
<polygon fill="#eeefff" stroke="#dddeee" points="609.24,-144 552.74,-144 552.74,-108 609.24,-108 609.24,-144"/>
<text text-anchor="middle" x="580.99" y="-120.95" font-family="Times,serif" font-size="14.00">Creator</text>
</a>
</g>
</g>
<!-- Project -->
<g id="node24" class="node">
<title>Project</title>
<g id="a_node24"><a xlink:href="/develop/Data/models.html#project" xlink:title="Project" target="_top">
<polygon fill="#eeefff" stroke="#dddeee" points="331.98,-144 277.73,-144 277.73,-108 331.98,-108 331.98,-144"/>
<text text-anchor="middle" x="304.86" y="-120.95" font-family="Times,serif" font-size="14.00">Project</text>
</a>
</g>
</g>
<!-- Updater -->
<g id="node25" class="node">
<title>Updater</title>
<g id="a_node25"><a xlink:href="/develop/Data/models.html#updater" xlink:title="Updater" target="_top">
<polygon fill="#eeefff" stroke="#dddeee" points="795.86,-144 736.36,-144 736.36,-108 795.86,-108 795.86,-144"/>
<text text-anchor="middle" x="766.11" y="-120.95" font-family="Times,serif" font-size="14.00">Updater</text>
</a>
</g>
</g>
<!-- Objects with Attributions -->
<g id="node26" class="node">
<title>Objects with Attributions</title>
<g id="a_node26"><a xlink:href="/develop/Data/models.html#objects with attribution" xlink:title="Objects with Attributions" target="_top">
<polygon fill="#cdabef" stroke="#dedede" points="425.61,-704 365.23,-722 244.48,-722 184.1,-704 244.48,-686 365.23,-686 425.61,-704"/>
<text text-anchor="middle" x="304.86" y="-698.95" font-family="Times,serif" font-size="14.00">Objects with Attributions</text>
</a>
</g>
</g>
</g>
</svg>
