<?xml version="1.0" encoding="UTF-8" standalone="no"?>
<!DOCTYPE svg PUBLIC "-//W3C//DTD SVG 1.1//EN"
 "http://www.w3.org/Graphics/SVG/1.1/DTD/svg11.dtd">
<!-- Generated by graphviz version 2.50.0 (20211204.2007)
 -->
<!-- Title: Attribution Pages: 1 -->
<svg width="720pt" height="704pt"
 viewBox="0.00 0.00 720.21 704.28" xmlns="http://www.w3.org/2000/svg" xmlns:xlink="http://www.w3.org/1999/xlink">
<g id="graph0" class="graph" transform="scale(1 1) rotate(0) translate(4 700.28)">
<title>Attribution</title>
<polygon fill="white" stroke="transparent" points="-4,4 -4,-700.28 716.21,-700.28 716.21,4 -4,4"/>
<!-- Attribution&#45;&gt;Confidence -->
<g id="edge6" class="edge">
<title>Attribution&#45;&gt;Confidence</title>
<path fill="none" stroke="black" d="M39.32,-311.46C27.64,-305.49 16.52,-297.25 9.72,-286 -4.65,-262.23 -1.27,-186.51 9.72,-161 18.49,-140.65 36.15,-123.37 52.26,-110.84"/>
<polygon fill="black" stroke="black" points="54.54,-113.5 60.49,-104.73 50.37,-107.88 54.54,-113.5"/>
</g>
<!-- Attribution&#45;&gt;Tag -->
<g id="edge15" class="edge">
<title>Attribution&#45;&gt;Tag</title>
<path fill="none" stroke="black" d="M39.32,-311.46C27.64,-305.49 16.52,-297.25 9.72,-286 -9.92,-253.5 28.24,-217.99 57.3,-197.15"/>
<polygon fill="black" stroke="black" points="59.34,-200 65.58,-191.43 55.36,-194.24 59.34,-200"/>
</g>
<!-- Attribution&#45;&gt;Note -->
<g id="edge11" class="edge">
<title>Attribution&#45;&gt;Note</title>
<path fill="none" stroke="black" d="M85.89,-303.88C85.89,-301.38 85.89,-298.89 85.89,-296.39"/>
<polygon fill="black" stroke="black" points="89.39,-296.12 85.89,-286.12 82.39,-296.13 89.39,-296.12"/>
</g>
<!-- Attribution&#45;&gt;CopyrightHolderRole -->
<g id="edge7" class="edge">
<title>Attribution&#45;&gt;CopyrightHolderRole</title>
<path fill="none" stroke="black" d="M91.36,-348.26C100.56,-388.14 125.53,-471.61 180.06,-515 191.12,-523.81 204.58,-529.82 218.33,-533.92"/>
<polygon fill="black" stroke="black" points="217.79,-537.4 228.36,-536.57 219.58,-530.63 217.79,-537.4"/>
</g>
<!-- Attribution&#45;&gt;CreatorRole -->
<g id="edge8" class="edge">
<title>Attribution&#45;&gt;CreatorRole</title>
<path fill="none" stroke="black" d="M95.91,-348C109.5,-378.32 138.2,-432.42 180.06,-461 198.77,-473.78 222.76,-480.55 243.95,-484.12"/>
<polygon fill="black" stroke="black" points="243.69,-487.62 254.09,-485.63 244.72,-480.7 243.69,-487.62"/>
</g>
<!-- Attribution&#45;&gt;EditorRole -->
<g id="edge9" class="edge">
<title>Attribution&#45;&gt;EditorRole</title>
<path fill="none" stroke="black" d="M106.52,-348.25C124.02,-366.71 151.25,-392.24 180.06,-407 200.94,-417.7 226.14,-424.23 247.58,-428.19"/>
<polygon fill="black" stroke="black" points="247.01,-431.64 257.45,-429.87 248.19,-424.74 247.01,-431.64"/>
</g>
<!-- Attribution&#45;&gt;OwnerRole -->
<g id="edge12" class="edge">
<title>Attribution&#45;&gt;OwnerRole</title>
<path fill="none" stroke="black" d="M133.68,-340.06C148.47,-344.37 164.91,-349.02 180.06,-353 201.62,-358.66 225.6,-364.4 246.04,-369.12"/>
<polygon fill="black" stroke="black" points="245.53,-372.6 256.06,-371.42 247.1,-365.77 245.53,-372.6"/>
</g>
<!-- Attribution&#45;&gt;PinboardItem -->
<g id="edge13" class="edge">
<title>Attribution&#45;&gt;PinboardItem</title>
<path fill="none" stroke="black" d="M144.21,-326C174.07,-326 210.41,-326 239.89,-326"/>
<polygon fill="black" stroke="black" points="240.01,-329.5 250.01,-326 240.01,-322.5 240.01,-329.5"/>
</g>
<!-- Attribution&#45;&gt;Role -->
<g id="edge14" class="edge">
<title>Attribution&#45;&gt;Role</title>
<path fill="none" stroke="black" d="M133.68,-311.94C148.47,-307.63 164.91,-302.98 180.06,-299 206.28,-292.11 236.1,-285.11 258.74,-279.97"/>
<polygon fill="black" stroke="black" points="259.62,-283.36 268.6,-277.74 258.08,-276.53 259.62,-283.36"/>
</g>
<!-- Attribution&#45;&gt;VerifierRole -->
<g id="edge16" class="edge">
<title>Attribution&#45;&gt;VerifierRole</title>
<path fill="none" stroke="black" d="M124.18,-308.96C131.16,-304.91 138.13,-300.22 144.06,-295 164.61,-276.91 157.29,-260.21 180.06,-245 198.82,-232.46 222.72,-225.72 243.83,-222.1"/>
<polygon fill="black" stroke="black" points="244.57,-225.53 253.93,-220.56 243.52,-218.61 244.57,-225.53"/>
</g>
<!-- Attribution&#45;&gt;Creator -->
<g id="edge19" class="edge">
<title>Attribution&#45;&gt;Creator</title>
<path fill="none" stroke="black" stroke-dasharray="5,2" d="M134.7,-303.9C138.12,-301.21 141.31,-298.24 144.06,-295 175.7,-257.7 142.65,-222.52 180.06,-191 259.67,-123.91 309.02,-172.93 411.21,-153 442.73,-146.85 478.64,-138.56 502.8,-132.8"/>
<polygon fill="black" stroke="black" points="132.57,-301.11 126.36,-309.69 136.57,-306.86 132.57,-301.11"/>
</g>
<!-- Attribution&#45;&gt;Project -->
<g id="edge20" class="edge">
<title>Attribution&#45;&gt;Project</title>
<path fill="none" stroke="black" stroke-dasharray="5,2" d="M135.4,-303.77C138.6,-301.12 141.54,-298.21 144.06,-295 182.93,-245.48 135.89,-202.86 180.06,-158 203.1,-134.6 241.72,-127.92 267.67,-126.22"/>
<polygon fill="black" stroke="black" points="133.09,-301.12 127.01,-309.81 137.18,-306.81 133.09,-301.12"/>
</g>
<!-- Attribution&#45;&gt;Updater -->
<g id="edge21" class="edge">
<title>Attribution&#45;&gt;Updater</title>
<path fill="none" stroke="black" stroke-dasharray="5,2" d="M92.11,-358.09C104.22,-428.15 136.56,-591.05 180.06,-623 337.49,-738.61 486.03,-714.62 616.21,-569 673.65,-504.74 680.35,-219.41 681.11,-144.22"/>
<polygon fill="black" stroke="black" points="95.53,-357.34 90.4,-348.07 88.63,-358.51 95.53,-357.34"/>
</g>
<!-- Attribution&#45;&gt;Objects with Attributions -->
<g id="edge18" class="edge">
<title>Attribution&#45;&gt;Objects with Attributions</title>
<path fill="none" stroke="black" stroke-dasharray="5,2" d="M89.81,-358.42C96.33,-410.81 116.87,-513.8 180.06,-569 188.83,-576.66 199.38,-582.25 210.47,-586.31"/>
<polygon fill="black" stroke="black" points="93.27,-357.88 88.66,-348.34 86.32,-358.67 93.27,-357.88"/>
</g>
<!-- Confidence&#45;&gt;ConfidenceLevel -->
<g id="edge5" class="edge">
<title>Confidence&#45;&gt;ConfidenceLevel</title>
<path fill="none" stroke="black" stroke-dasharray="1,5" d="M114.78,-73.94C132.96,-64.6 157.43,-52.91 180.06,-45 196.19,-39.36 214.02,-34.52 230.7,-30.57"/>
<polygon fill="black" stroke="black" points="231.96,-33.87 240.92,-28.22 230.39,-27.05 231.96,-33.87"/>
</g>
<!-- Tag&#45;&gt;Keyword -->
<g id="edge10" class="edge">
<title>Tag&#45;&gt;Keyword</title>
<path fill="none" stroke="black" stroke-dasharray="1,5" d="M100.43,-163.54C117.27,-145.32 147.75,-115.43 180.06,-99 202.49,-87.59 229.85,-80.91 252.21,-77.05"/>
<polygon fill="black" stroke="black" points="252.77,-80.51 262.1,-75.47 251.67,-73.59 252.77,-80.51"/>
</g>
<!-- CopyrightHolderRole&#45;&gt;AttributionCopyrightHolder -->
<g id="edge1" class="edge">
<title>CopyrightHolderRole&#45;&gt;AttributionCopyrightHolder</title>
<path fill="none" stroke="black" stroke-dasharray="1,5" d="M362.77,-542C385.82,-542 412.15,-542 437,-542"/>
<polygon fill="black" stroke="black" points="437.18,-545.5 447.18,-542 437.18,-538.5 437.18,-545.5"/>
</g>
<!-- CreatorRole&#45;&gt;AttributionCreator -->
<g id="edge2" class="edge">
<title>CreatorRole&#45;&gt;AttributionCreator</title>
<path fill="none" stroke="black" stroke-dasharray="1,5" d="M337.14,-488C371.76,-488 422.29,-488 463.04,-488"/>
<polygon fill="black" stroke="black" points="463.18,-491.5 473.18,-488 463.18,-484.5 463.18,-491.5"/>
</g>
<!-- EditorRole&#45;&gt;AttributionEditor -->
<g id="edge3" class="edge">
<title>EditorRole&#45;&gt;AttributionEditor</title>
<path fill="none" stroke="black" stroke-dasharray="1,5" d="M333.72,-434C369.29,-434 423.72,-434 466.36,-434"/>
<polygon fill="black" stroke="black" points="466.37,-437.5 476.37,-434 466.37,-430.5 466.37,-437.5"/>
</g>
<!-- OwnerRole&#45;&gt;AttributionOwner -->
<g id="edge4" class="edge">
<title>OwnerRole&#45;&gt;AttributionOwner</title>
<path fill="none" stroke="black" stroke-dasharray="1,5" d="M335.29,-380C370.43,-380 423.04,-380 464.82,-380"/>
<polygon fill="black" stroke="black" points="464.92,-383.5 474.92,-380 464.92,-376.5 464.92,-383.5"/>
</g>
<!-- Role&#45;&gt;Verifier -->
<!-- VerifierRole&#45;&gt;Verifier -->
<g id="edge17" class="edge">
<title>VerifierRole&#45;&gt;Verifier</title>
<path fill="none" stroke="black" stroke-dasharray="1,5" d="M337.14,-222.67C381.02,-227.73 450.46,-235.74 493.15,-240.67"/>
<polygon fill="black" stroke="black" points="492.8,-244.15 503.14,-241.82 493.6,-237.2 492.8,-244.15"/>
</g>
<!-- Creator&#45;&gt;Updater -->
<!-- Project&#45;&gt;Creator -->
<!-- Attribution -->
<g id="node1" class="node">
<title>Attribution</title>
<g id="a_node1"><a xlink:href="/develop/Data/models.html#attribution" xlink:title="Attribution" target="_top">
<polygon fill="#cdefab" stroke="#dedede" points="140.22,-318.54 140.22,-333.46 108.39,-344 63.39,-344 31.56,-333.46 31.56,-318.54 63.39,-308 108.39,-308 140.22,-318.54"/>
<polygon fill="none" stroke="#dedede" points="144.23,-315.66 144.23,-336.34 109.04,-348 62.74,-348 27.55,-336.34 27.55,-315.66 62.74,-304 109.04,-304 144.23,-315.66"/>
<text text-anchor="middle" x="85.89" y="-322.3" font-family="Times,serif" font-size="14.00">Attribution</text>
</a>
</g>
</g>
<!-- Confidence -->
<g id="node2" class="node">
<title>Confidence</title>
<g id="a_node2"><a xlink:href="/develop/Data/models.html#confidence" xlink:title="Confidence" target="_top">
<ellipse fill="#abcdef" stroke="#dddeee" cx="85.89" cy="-89" rx="50.89" ry="18"/>
<text text-anchor="middle" x="85.89" y="-85.3" font-family="Times,serif" font-size="14.00">Confidence</text>
</a>
</g>
</g>
<!-- Tag -->
<g id="node3" class="node">
<title>Tag</title>
<g id="a_node3"><a xlink:href="/develop/Data/models.html#tag" xlink:title="Tag" target="_top">
<ellipse fill="#abcdef" stroke="#dddeee" cx="85.89" cy="-179" rx="27" ry="18"/>
<text text-anchor="middle" x="85.89" y="-175.3" font-family="Times,serif" font-size="14.00">Tag</text>
</a>
</g>
</g>
<!-- Note -->
<g id="node4" class="node">
<title>Note</title>
<g id="a_node4"><a xlink:href="/develop/Data/models.html#note" xlink:title="Note" target="_top">
<ellipse fill="#abcdef" stroke="#dddeee" cx="85.89" cy="-268" rx="27.9" ry="18"/>
<text text-anchor="middle" x="85.89" y="-264.3" font-family="Times,serif" font-size="14.00">Note</text>
</a>
</g>
</g>
<!-- CopyrightHolderRole -->
<g id="node5" class="node">
<title>CopyrightHolderRole</title>
<g id="a_node5"><a xlink:href="/develop/Data/models.html#copyright-holder-role" xlink:title="CopyrightHolderRole" target="_top">
<polygon fill="#eeefff" stroke="#dddeee" points="362.63,-560 228.63,-560 228.63,-524 362.63,-524 362.63,-560"/>
<text text-anchor="middle" x="295.63" y="-538.3" font-family="Times,serif" font-size="14.00">CopyrightHolderRole</text>
</a>
</g>
</g>
<!-- AttributionCopyrightHolder -->
<g id="node6" class="node">
<title>AttributionCopyrightHolder</title>
<g id="a_node6"><a xlink:href="/develop/Data/models.html#attribution-copyright-holder" xlink:title="AttributionCopyrightHolder" target="_top">
<polygon fill="#eeefff" stroke="#dddeee" points="616.21,-560 447.21,-560 447.21,-524 616.21,-524 616.21,-560"/>
<text text-anchor="middle" x="531.71" y="-538.3" font-family="Times,serif" font-size="14.00">AttributionCopyrightHolder</text>
</a>
</g>
</g>
<!-- CreatorRole -->
<g id="node7" class="node">
<title>CreatorRole</title>
<g id="a_node7"><a xlink:href="/develop/Data/models.html#creator-role" xlink:title="CreatorRole" target="_top">
<polygon fill="#eeefff" stroke="#dddeee" points="337.13,-506 254.13,-506 254.13,-470 337.13,-470 337.13,-506"/>
<text text-anchor="middle" x="295.63" y="-484.3" font-family="Times,serif" font-size="14.00">CreatorRole</text>
</a>
</g>
</g>
<!-- AttributionCreator -->
<g id="node8" class="node">
<title>AttributionCreator</title>
<g id="a_node8"><a xlink:href="/develop/Data/models.html#attribution-creator" xlink:title="AttributionCreator" target="_top">
<polygon fill="#eeefff" stroke="#dddeee" points="590.21,-506 473.21,-506 473.21,-470 590.21,-470 590.21,-506"/>
<text text-anchor="middle" x="531.71" y="-484.3" font-family="Times,serif" font-size="14.00">AttributionCreator</text>
</a>
</g>
</g>
<!-- EditorRole -->
<g id="node9" class="node">
<title>EditorRole</title>
<g id="a_node9"><a xlink:href="/develop/Data/models.html#editor-role" xlink:title="EditorRole" target="_top">
<polygon fill="#eeefff" stroke="#dddeee" points="333.63,-452 257.63,-452 257.63,-416 333.63,-416 333.63,-452"/>
<text text-anchor="middle" x="295.63" y="-430.3" font-family="Times,serif" font-size="14.00">EditorRole</text>
</a>
</g>
</g>
<!-- AttributionEditor -->
<g id="node10" class="node">
<title>AttributionEditor</title>
<g id="a_node10"><a xlink:href="/develop/Data/models.html#attribution-editor" xlink:title="AttributionEditor" target="_top">
<polygon fill="#eeefff" stroke="#dddeee" points="586.71,-452 476.71,-452 476.71,-416 586.71,-416 586.71,-452"/>
<text text-anchor="middle" x="531.71" y="-430.3" font-family="Times,serif" font-size="14.00">AttributionEditor</text>
</a>
</g>
</g>
<!-- OwnerRole -->
<g id="node11" class="node">
<title>OwnerRole</title>
<g id="a_node11"><a xlink:href="/develop/Data/models.html#owner-role" xlink:title="OwnerRole" target="_top">
<polygon fill="#eeefff" stroke="#dddeee" points="335.13,-398 256.13,-398 256.13,-362 335.13,-362 335.13,-398"/>
<text text-anchor="middle" x="295.63" y="-376.3" font-family="Times,serif" font-size="14.00">OwnerRole</text>
</a>
</g>
</g>
<!-- AttributionOwner -->
<g id="node12" class="node">
<title>AttributionOwner</title>
<g id="a_node12"><a xlink:href="/develop/Data/models.html#attribution-owner" xlink:title="AttributionOwner" target="_top">
<polygon fill="#eeefff" stroke="#dddeee" points="588.21,-398 475.21,-398 475.21,-362 588.21,-362 588.21,-398"/>
<text text-anchor="middle" x="531.71" y="-376.3" font-family="Times,serif" font-size="14.00">AttributionOwner</text>
</a>
</g>
</g>
<!-- ConfidenceLevel -->
<g id="node13" class="node">
<title>ConfidenceLevel</title>
<g id="a_node13"><a xlink:href="/develop/Data/models.html#confidence-level" xlink:title="ConfidenceLevel" target="_top">
<polygon fill="#eeefff" stroke="#dddeee" points="350.13,-36 241.13,-36 241.13,0 350.13,0 350.13,-36"/>
<text text-anchor="middle" x="295.63" y="-14.3" font-family="Times,serif" font-size="14.00">ConfidenceLevel</text>
</a>
</g>
</g>
<!-- Keyword -->
<g id="node14" class="node">
<title>Keyword</title>
<g id="a_node14"><a xlink:href="/develop/Data/models.html#keyword" xlink:title="Keyword" target="_top">
<polygon fill="#eeefff" stroke="#dddeee" points="329.13,-90 262.13,-90 262.13,-54 329.13,-54 329.13,-90"/>
<text text-anchor="middle" x="295.63" y="-68.3" font-family="Times,serif" font-size="14.00">Keyword</text>
</a>
</g>
</g>
<!-- PinboardItem -->
<g id="node15" class="node">
<title>PinboardItem</title>
<g id="a_node15"><a xlink:href="/develop/Data/models.html#pinboard-item" xlink:title="PinboardItem" target="_top">
<polygon fill="#eeefff" stroke="#dddeee" points="341.13,-344 250.13,-344 250.13,-308 341.13,-308 341.13,-344"/>
<text text-anchor="middle" x="295.63" y="-322.3" font-family="Times,serif" font-size="14.00">PinboardItem</text>
</a>
</g>
</g>
<!-- Role -->
<g id="node16" class="node">
<title>Role</title>
<g id="a_node16"><a xlink:href="/develop/Data/models.html#role" xlink:title="Role" target="_top">
<polygon fill="#eeefff" stroke="#dddeee" points="322.63,-290 268.63,-290 268.63,-254 322.63,-254 322.63,-290"/>
<text text-anchor="middle" x="295.63" y="-268.3" font-family="Times,serif" font-size="14.00">Role</text>
</a>
</g>
</g>
<!-- VerifierRole -->
<g id="node17" class="node">
<title>VerifierRole</title>
<g id="a_node17"><a xlink:href="/develop/Data/models.html#verifier-role" xlink:title="VerifierRole" target="_top">
<polygon fill="#eeefff" stroke="#dddeee" points="337.13,-236 254.13,-236 254.13,-200 337.13,-200 337.13,-236"/>
<text text-anchor="middle" x="295.63" y="-214.3" font-family="Times,serif" font-size="14.00">VerifierRole</text>
</a>
</g>
</g>
<!-- Verifier -->
<g id="node18" class="node">
<title>Verifier</title>
<g id="a_node18"><a xlink:href="/develop/Data/models.html#verifier" xlink:title="Verifier" target="_top">
<polygon fill="#eeefff" stroke="#dddeee" points="560.21,-263 503.21,-263 503.21,-227 560.21,-227 560.21,-263"/>
<text text-anchor="middle" x="531.71" y="-241.3" font-family="Times,serif" font-size="14.00">Verifier</text>
</a>
</g>
</g>
<!-- Creator -->
<g id="node19" class="node">
<title>Creator</title>
<g id="a_node19"><a xlink:href="/develop/Data/models.html#creator" xlink:title="Creator" target="_top">
<polygon fill="#eeefff" stroke="#dddeee" points="560.21,-144 503.21,-144 503.21,-108 560.21,-108 560.21,-144"/>
<text text-anchor="middle" x="531.71" y="-122.3" font-family="Times,serif" font-size="14.00">Creator</text>
</a>
</g>
</g>
<!-- Project -->
<g id="node20" class="node">
<title>Project</title>
<g id="a_node20"><a xlink:href="/develop/Data/models.html#project" xlink:title="Project" target="_top">
<polygon fill="#eeefff" stroke="#dddeee" points="323.13,-144 268.13,-144 268.13,-108 323.13,-108 323.13,-144"/>
<text text-anchor="middle" x="295.63" y="-122.3" font-family="Times,serif" font-size="14.00">Project</text>
</a>
</g>
</g>
<!-- Updater -->
<g id="node21" class="node">
<title>Updater</title>
<g id="a_node21"><a xlink:href="/develop/Data/models.html#updater" xlink:title="Updater" target="_top">
<polygon fill="#eeefff" stroke="#dddeee" points="712.21,-144 652.21,-144 652.21,-108 712.21,-108 712.21,-144"/>
<text text-anchor="middle" x="682.21" y="-122.3" font-family="Times,serif" font-size="14.00">Updater</text>
</a>
</g>
</g>
<!-- Objects with Attributions -->
<g id="node22" class="node">
<title>Objects with Attributions</title>
<g id="a_node22"><a xlink:href="/develop/Data/models.html#objects with attribution" xlink:title="Objects with Attributions" target="_top">
<polygon fill="#cdabef" stroke="#dedede" points="411.28,-596 353.46,-614 237.81,-614 179.98,-596 237.81,-578 353.46,-578 411.28,-596"/>
<text text-anchor="middle" x="295.63" y="-592.3" font-family="Times,serif" font-size="14.00">Objects with Attributions</text>
</a>
</g>
</g>
</g>
</svg>
