<?xml version="1.0" encoding="UTF-8" standalone="no"?>
<!DOCTYPE svg PUBLIC "-//W3C//DTD SVG 1.1//EN"
 "http://www.w3.org/Graphics/SVG/1.1/DTD/svg11.dtd">
<!-- Generated by graphviz version 12.2.1 (20241206.2353)
 -->
<!-- Title: BiocurationClassification Pages: 1 -->
<svg width="835pt" height="390pt"
 viewBox="0.00 0.00 835.05 390.00" xmlns="http://www.w3.org/2000/svg" xmlns:xlink="http://www.w3.org/1999/xlink">
<g id="graph0" class="graph" transform="scale(1 1) rotate(0) translate(4 386)">
<title>BiocurationClassification</title>
<polygon fill="white" stroke="none" points="-4,4 -4,-386 831.05,-386 831.05,4 -4,4"/>
<!-- BiocurationClassification&#45;&gt;PinboardItem -->
<g id="edge1" class="edge">
<title>BiocurationClassification&#45;&gt;PinboardItem</title>
<path fill="none" stroke="black" d="M132.99,-201.27C156.9,-236.59 208.72,-304.74 271.5,-337 310.72,-357.15 360.55,-363.43 398.21,-364.94"/>
<polygon fill="black" stroke="black" points="397.87,-368.43 407.97,-365.22 398.07,-361.43 397.87,-368.43"/>
</g>
<!-- BiocurationClassification&#45;&gt;Role -->
<g id="edge2" class="edge">
<title>BiocurationClassification&#45;&gt;Role</title>
<path fill="none" stroke="black" d="M143.72,-201.34C172.39,-225.65 221.89,-263.62 271.5,-283 319.12,-301.6 378.32,-307.5 416.11,-309.31"/>
<polygon fill="black" stroke="black" points="415.95,-312.8 426.08,-309.7 416.22,-305.81 415.95,-312.8"/>
</g>
<!-- BiocurationClassification&#45;&gt;VerifierRole -->
<g id="edge3" class="edge">
<title>BiocurationClassification&#45;&gt;VerifierRole</title>
<path fill="none" stroke="black" d="M174.68,-199.83C203.31,-209.85 238.91,-221.31 271.5,-229 314.94,-239.25 365.16,-246.34 401.89,-250.68"/>
<polygon fill="black" stroke="black" points="401.48,-254.15 411.82,-251.81 402.28,-247.2 401.48,-254.15"/>
</g>
<!-- BiocurationClassification&#45;&gt;BiocurationClass -->
<g id="edge5" class="edge">
<title>BiocurationClassification&#45;&gt;BiocurationClass</title>
<path fill="none" stroke="black" stroke-dasharray="5,2" d="M247.2,-187.82C300.27,-191.46 358.89,-195.48 400.1,-198.31"/>
<polygon fill="black" stroke="black" points="247.7,-184.34 237.48,-187.15 247.22,-191.32 247.7,-184.34"/>
</g>
<!-- BiocurationClassification&#45;&gt;Creator -->
<g id="edge7" class="edge">
<title>BiocurationClassification&#45;&gt;Creator</title>
<path fill="none" stroke="black" stroke-dasharray="5,2" d="M247.15,-173.32C376.49,-166.76 566.84,-154.56 638.3,-137 650.54,-133.99 663.44,-128.91 674.41,-123.96"/>
<polygon fill="black" stroke="black" points="247.32,-169.81 237.51,-173.81 247.67,-176.8 247.32,-169.81"/>
</g>
<!-- BiocurationClassification&#45;&gt;Project -->
<g id="edge8" class="edge">
<title>BiocurationClassification&#45;&gt;Project</title>
<path fill="none" stroke="black" stroke-dasharray="5,2" d="M201.37,-157.97C224.04,-152.47 248.66,-146.76 271.5,-142 326.74,-130.48 391.96,-119.71 427.52,-114.08"/>
<polygon fill="black" stroke="black" points="200.77,-154.51 191.88,-160.28 202.43,-161.31 200.77,-154.51"/>
</g>
<!-- BiocurationClassification&#45;&gt;Updater -->
<g id="edge9" class="edge">
<title>BiocurationClassification&#45;&gt;Updater</title>
<path fill="none" stroke="black" stroke-dasharray="5,2" d="M153.06,-149.43C182.33,-126.28 226.69,-95.91 271.5,-83 467.97,-26.39 531.06,-42.87 731.55,-83 743.62,-85.41 756.24,-90.13 767.1,-94.95"/>
<polygon fill="black" stroke="black" points="150.87,-146.7 145.28,-155.71 155.26,-152.15 150.87,-146.7"/>
</g>
<!-- BiocurationClassification&#45;&gt;Objects with Biocuration classifications -->
<g id="edge6" class="edge">
<title>BiocurationClassification&#45;&gt;Objects with Biocuration classifications</title>
<path fill="none" stroke="black" stroke-dasharray="5,2" d="M145.76,-148.22C173.99,-118.14 221.13,-73.56 271.5,-50 290.28,-41.21 311.18,-34.82 331.94,-30.18"/>
<polygon fill="black" stroke="black" points="143.2,-145.83 138.99,-155.55 148.35,-150.57 143.2,-145.83"/>
</g>
<!-- Role&#45;&gt;Verifier -->
<!-- VerifierRole&#45;&gt;Verifier -->
<g id="edge4" class="edge">
<title>VerifierRole&#45;&gt;Verifier</title>
<path fill="none" stroke="black" stroke-dasharray="1,5" d="M496.53,-260.46C542.61,-265.52 617.23,-273.7 662.71,-278.7"/>
<polygon fill="black" stroke="black" points="662.06,-282.15 672.39,-279.76 662.83,-275.19 662.06,-282.15"/>
</g>
<!-- Creator&#45;&gt;Updater -->
<!-- Project&#45;&gt;Creator -->
<!-- BiocurationClassification -->
<g id="node1" class="node">
<title>BiocurationClassification</title>
<g id="a_node1"><a xlink:href="/develop/Data/models.html#biocuration-classification" xlink:title="BiocurationClassification" target="_top">
<polygon fill="#cdefab" stroke="#dedede" points="231.5,-171.54 231.5,-186.46 164.87,-197 70.63,-197 4,-186.46 4,-171.54 70.63,-161 164.87,-161 231.5,-171.54"/>
<polygon fill="none" stroke="#dedede" points="235.5,-168.13 235.5,-189.87 165.18,-201 70.32,-201 0,-189.87 0,-168.13 70.32,-157 165.18,-157 235.5,-168.13"/>
<text text-anchor="middle" x="117.75" y="-173.95" font-family="Times,serif" font-size="14.00">BiocurationClassification</text>
</a>
</g>
</g>
<!-- PinboardItem -->
<g id="node2" class="node">
<title>PinboardItem</title>
<g id="a_node2"><a xlink:href="/develop/Data/models.html#pinboard-item" xlink:title="PinboardItem" target="_top">
<polygon fill="#eeefff" stroke="#dddeee" points="500.03,-382 409.78,-382 409.78,-346 500.03,-346 500.03,-382"/>
<text text-anchor="middle" x="454.9" y="-358.95" font-family="Times,serif" font-size="14.00">PinboardItem</text>
</a>
</g>
</g>
<!-- Role -->
<g id="node3" class="node">
<title>Role</title>
<g id="a_node3"><a xlink:href="/develop/Data/models.html#role" xlink:title="Role" target="_top">
<polygon fill="#eeefff" stroke="#dddeee" points="481.9,-328 427.9,-328 427.9,-292 481.9,-292 481.9,-328"/>
<text text-anchor="middle" x="454.9" y="-304.95" font-family="Times,serif" font-size="14.00">Role</text>
</a>
</g>
</g>
<!-- VerifierRole -->
<g id="node4" class="node">
<title>VerifierRole</title>
<g id="a_node4"><a xlink:href="/develop/Data/models.html#verifier-role" xlink:title="VerifierRole" target="_top">
<polygon fill="#eeefff" stroke="#dddeee" points="496.28,-274 413.53,-274 413.53,-238 496.28,-238 496.28,-274"/>
<text text-anchor="middle" x="454.9" y="-250.95" font-family="Times,serif" font-size="14.00">VerifierRole</text>
</a>
</g>
</g>
<!-- Verifier -->
<g id="node5" class="node">
<title>Verifier</title>
<g id="a_node5"><a xlink:href="/develop/Data/models.html#verifier" xlink:title="Verifier" target="_top">
<polygon fill="#eeefff" stroke="#dddeee" points="731.55,-301 674.3,-301 674.3,-265 731.55,-265 731.55,-301"/>
<text text-anchor="middle" x="702.93" y="-277.95" font-family="Times,serif" font-size="14.00">Verifier</text>
</a>
</g>
</g>
<!-- BiocurationClass -->
<g id="node6" class="node">
<title>BiocurationClass</title>
<g id="a_node6"><a xlink:href="/develop/Data/models.html#biocuration-class" xlink:title="BiocurationClass" target="_top">
<polygon fill="#eeefff" stroke="#dddeee" points="509.4,-220 400.4,-220 400.4,-184 509.4,-184 509.4,-220"/>
<text text-anchor="middle" x="454.9" y="-196.95" font-family="Times,serif" font-size="14.00">BiocurationClass</text>
</a>
</g>
</g>
<!-- Creator -->
<g id="node7" class="node">
<title>Creator</title>
<g id="a_node7"><a xlink:href="/develop/Data/models.html#creator" xlink:title="Creator" target="_top">
<polygon fill="#eeefff" stroke="#dddeee" points="731.18,-128 674.68,-128 674.68,-92 731.18,-92 731.18,-128"/>
<text text-anchor="middle" x="702.93" y="-104.95" font-family="Times,serif" font-size="14.00">Creator</text>
</a>
</g>
</g>
<!-- Project -->
<g id="node8" class="node">
<title>Project</title>
<g id="a_node8"><a xlink:href="/develop/Data/models.html#project" xlink:title="Project" target="_top">
<polygon fill="#eeefff" stroke="#dddeee" points="482.03,-128 427.78,-128 427.78,-92 482.03,-92 482.03,-128"/>
<text text-anchor="middle" x="454.9" y="-104.95" font-family="Times,serif" font-size="14.00">Project</text>
</a>
</g>
</g>
<!-- Updater -->
<g id="node9" class="node">
<title>Updater</title>
<g id="a_node9"><a xlink:href="/develop/Data/models.html#updater" xlink:title="Updater" target="_top">
<polygon fill="#eeefff" stroke="#dddeee" points="827.05,-128 767.55,-128 767.55,-92 827.05,-92 827.05,-128"/>
<text text-anchor="middle" x="797.3" y="-104.95" font-family="Times,serif" font-size="14.00">Updater</text>
</a>
</g>
</g>
<!-- Objects with Biocuration classifications -->
<g id="node10" class="node">
<title>Objects with Biocuration classifications</title>
<g id="a_node10"><a xlink:href="/develop/Data/models.html#objects with biocuration classification" xlink:title="Objects with Biocuration classifications" target="_top">
<polygon fill="#cdabef" stroke="#dedede" points="638.3,-18 546.6,-36 363.2,-36 271.5,-18 363.2,0 546.6,0 638.3,-18"/>
<text text-anchor="middle" x="454.9" y="-12.95" font-family="Times,serif" font-size="14.00">Objects with Biocuration classifications</text>
</a>
</g>
</g>
</g>
</svg>
