<?xml version="1.0" encoding="UTF-8" standalone="no"?>
<!DOCTYPE svg PUBLIC "-//W3C//DTD SVG 1.1//EN"
 "http://www.w3.org/Graphics/SVG/1.1/DTD/svg11.dtd">
<!-- Generated by graphviz version 12.2.1 (20241206.2353)
 -->
<!-- Title: BiologicalRelationshipType Pages: 1 -->
<svg width="630pt" height="383pt"
 viewBox="0.00 0.00 629.80 383.14" xmlns="http://www.w3.org/2000/svg" xmlns:xlink="http://www.w3.org/1999/xlink">
<g id="graph0" class="graph" transform="scale(1 1) rotate(0) translate(4 379.14)">
<title>BiologicalRelationshipType</title>
<polygon fill="white" stroke="none" points="-4,4 -4,-379.14 625.8,-379.14 625.8,4 -4,4"/>
<!-- BiologicalRelationshipType&#45;&gt;PinboardItem -->
<g id="edge1" class="edge">
<title>BiologicalRelationshipType&#45;&gt;PinboardItem</title>
<path fill="none" stroke="black" d="M146.59,-190.43C174.18,-224.63 231.29,-290.3 292.55,-330.14 297.05,-333.06 301.91,-335.75 306.9,-338.2"/>
<polygon fill="black" stroke="black" points="305.31,-341.32 315.87,-342.26 308.2,-334.95 305.31,-341.32"/>
</g>
<!-- BiologicalRelationshipType&#45;&gt;Role -->
<g id="edge2" class="edge">
<title>BiologicalRelationshipType&#45;&gt;Role</title>
<path fill="none" stroke="black" d="M158.79,-190.45C190.62,-213.84 243.36,-250.65 292.55,-276.14 302.76,-281.43 314.24,-286.3 324.88,-290.41"/>
<polygon fill="black" stroke="black" points="323.56,-293.66 334.16,-293.88 326.01,-287.1 323.56,-293.66"/>
</g>
<!-- BiologicalRelationshipType&#45;&gt;VerifierRole -->
<g id="edge3" class="edge">
<title>BiologicalRelationshipType&#45;&gt;VerifierRole</title>
<path fill="none" stroke="black" d="M189.76,-189.21C227.2,-202.25 274.75,-218.81 310.37,-231.22"/>
<polygon fill="black" stroke="black" points="308.99,-234.45 319.59,-234.43 311.29,-227.84 308.99,-234.45"/>
</g>
<!-- BiologicalRelationshipType&#45;&gt;BiologicalProperty -->
<g id="edge5" class="edge">
<title>BiologicalRelationshipType&#45;&gt;BiologicalProperty</title>
<path fill="none" stroke="black" stroke-dasharray="5,2" d="M254.63,-182.69C271.55,-184.66 288.2,-186.59 303.16,-188.33"/>
<polygon fill="black" stroke="black" points="255.34,-179.25 245,-181.58 254.53,-186.21 255.34,-179.25"/>
</g>
<!-- BiologicalRelationshipType&#45;&gt;BiologicalRelationship -->
<g id="edge6" class="edge">
<title>BiologicalRelationshipType&#45;&gt;BiologicalRelationship</title>
<path fill="none" stroke="black" stroke-dasharray="5,2" d="M254.81,-153.56C267.65,-152.07 280.35,-150.6 292.26,-149.21"/>
<polygon fill="black" stroke="black" points="254.53,-150.07 245,-154.7 255.34,-157.02 254.53,-150.07"/>
</g>
<!-- BiologicalRelationshipType&#45;&gt;Creator -->
<g id="edge7" class="edge">
<title>BiologicalRelationshipType&#45;&gt;Creator</title>
<path fill="none" stroke="black" stroke-dasharray="5,2" d="M200.56,-143.61C229.06,-134.06 262.25,-123.24 292.55,-114.14 354.51,-95.53 371.91,-97.27 433.05,-76.14 445.07,-71.98 458.05,-66.64 469.12,-61.8"/>
<polygon fill="black" stroke="black" points="199.68,-140.22 191.32,-146.72 201.92,-146.85 199.68,-140.22"/>
</g>
<!-- BiologicalRelationshipType&#45;&gt;Project -->
<g id="edge8" class="edge">
<title>BiologicalRelationshipType&#45;&gt;Project</title>
<path fill="none" stroke="black" stroke-dasharray="5,2" d="M179.9,-140.21C211.95,-122.77 254.4,-100.1 292.55,-81.14 306.55,-74.18 322.35,-66.84 335.33,-60.95"/>
<polygon fill="black" stroke="black" points="178.3,-137.09 171.2,-144.96 181.66,-143.24 178.3,-137.09"/>
</g>
<!-- BiologicalRelationshipType&#45;&gt;Updater -->
<g id="edge9" class="edge">
<title>BiologicalRelationshipType&#45;&gt;Updater</title>
<path fill="none" stroke="black" stroke-dasharray="5,2" d="M152.28,-136.9C180.65,-101.29 232.55,-45.05 292.55,-22.14 389.6,14.93 424.43,-1.75 526.3,-22.14 538.36,-24.55 550.99,-29.26 561.85,-34.08"/>
<polygon fill="black" stroke="black" points="149.57,-134.68 146.18,-144.72 155.09,-138.99 149.57,-134.68"/>
</g>
<!-- Role&#45;&gt;Verifier -->
<!-- VerifierRole&#45;&gt;Verifier -->
<g id="edge4" class="edge">
<title>VerifierRole&#45;&gt;Verifier</title>
<path fill="none" stroke="black" stroke-dasharray="1,5" d="M404.39,-257.39C421.38,-260.84 441.04,-264.83 457.84,-268.25"/>
<polygon fill="black" stroke="black" points="456.97,-271.64 467.46,-270.2 458.36,-264.78 456.97,-271.64"/>
</g>
<!-- Creator&#45;&gt;Updater -->
<!-- Project&#45;&gt;Creator -->
<!-- BiologicalRelationshipType -->
<g id="node1" class="node">
<title>BiologicalRelationshipType</title>
<g id="a_node1"><a xlink:href="/develop/Data/models.html#biological-relationship-type" xlink:title="BiologicalRelationshipType" target="_top">
<polygon fill="#cdefab" stroke="#dedede" points="252.55,-160.68 252.55,-175.59 179.75,-186.14 76.8,-186.14 4,-175.59 4,-160.68 76.8,-150.14 179.75,-150.14 252.55,-160.68"/>
<polygon fill="none" stroke="#dedede" points="256.55,-157.22 256.55,-179.06 180.04,-190.14 76.51,-190.14 0,-179.06 0,-157.22 76.51,-146.14 180.04,-146.14 256.55,-157.22"/>
<text text-anchor="middle" x="128.28" y="-163.09" font-family="Times,serif" font-size="14.00">BiologicalRelationshipType</text>
</a>
</g>
</g>
<!-- PinboardItem -->
<g id="node2" class="node">
<title>PinboardItem</title>
<g id="a_node2"><a xlink:href="/develop/Data/models.html#pinboard-item" xlink:title="PinboardItem" target="_top">
<polygon fill="#eeefff" stroke="#dddeee" points="407.93,-375.14 317.68,-375.14 317.68,-339.14 407.93,-339.14 407.93,-375.14"/>
<text text-anchor="middle" x="362.8" y="-352.09" font-family="Times,serif" font-size="14.00">PinboardItem</text>
</a>
</g>
</g>
<!-- Role -->
<g id="node3" class="node">
<title>Role</title>
<g id="a_node3"><a xlink:href="/develop/Data/models.html#role" xlink:title="Role" target="_top">
<polygon fill="#eeefff" stroke="#dddeee" points="389.8,-321.14 335.8,-321.14 335.8,-285.14 389.8,-285.14 389.8,-321.14"/>
<text text-anchor="middle" x="362.8" y="-298.09" font-family="Times,serif" font-size="14.00">Role</text>
</a>
</g>
</g>
<!-- VerifierRole -->
<g id="node4" class="node">
<title>VerifierRole</title>
<g id="a_node4"><a xlink:href="/develop/Data/models.html#verifier-role" xlink:title="VerifierRole" target="_top">
<polygon fill="#eeefff" stroke="#dddeee" points="404.18,-267.14 321.43,-267.14 321.43,-231.14 404.18,-231.14 404.18,-267.14"/>
<text text-anchor="middle" x="362.8" y="-244.09" font-family="Times,serif" font-size="14.00">VerifierRole</text>
</a>
</g>
</g>
<!-- Verifier -->
<g id="node5" class="node">
<title>Verifier</title>
<g id="a_node5"><a xlink:href="/develop/Data/models.html#verifier" xlink:title="Verifier" target="_top">
<polygon fill="#eeefff" stroke="#dddeee" points="526.3,-294.14 469.05,-294.14 469.05,-258.14 526.3,-258.14 526.3,-294.14"/>
<text text-anchor="middle" x="497.68" y="-271.09" font-family="Times,serif" font-size="14.00">Verifier</text>
</a>
</g>
</g>
<!-- BiologicalProperty -->
<g id="node6" class="node">
<title>BiologicalProperty</title>
<g id="a_node6"><a xlink:href="/develop/Data/models.html#biological-property" xlink:title="BiologicalProperty" target="_top">
<polygon fill="#eeefff" stroke="#dddeee" points="422.18,-213.14 303.43,-213.14 303.43,-177.14 422.18,-177.14 422.18,-213.14"/>
<text text-anchor="middle" x="362.8" y="-190.09" font-family="Times,serif" font-size="14.00">BiologicalProperty</text>
</a>
</g>
</g>
<!-- BiologicalRelationship -->
<g id="node7" class="node">
<title>BiologicalRelationship</title>
<g id="a_node7"><a xlink:href="/develop/Data/models.html#biological-relationship" xlink:title="BiologicalRelationship" target="_top">
<polygon fill="#eeefff" stroke="#dddeee" points="433.05,-159.14 292.55,-159.14 292.55,-123.14 433.05,-123.14 433.05,-159.14"/>
<text text-anchor="middle" x="362.8" y="-136.09" font-family="Times,serif" font-size="14.00">BiologicalRelationship</text>
</a>
</g>
</g>
<!-- Creator -->
<g id="node8" class="node">
<title>Creator</title>
<g id="a_node8"><a xlink:href="/develop/Data/models.html#creator" xlink:title="Creator" target="_top">
<polygon fill="#eeefff" stroke="#dddeee" points="525.93,-67.14 469.43,-67.14 469.43,-31.14 525.93,-31.14 525.93,-67.14"/>
<text text-anchor="middle" x="497.68" y="-44.09" font-family="Times,serif" font-size="14.00">Creator</text>
</a>
</g>
</g>
<!-- Project -->
<g id="node9" class="node">
<title>Project</title>
<g id="a_node9"><a xlink:href="/develop/Data/models.html#project" xlink:title="Project" target="_top">
<polygon fill="#eeefff" stroke="#dddeee" points="389.93,-67.14 335.68,-67.14 335.68,-31.14 389.93,-31.14 389.93,-67.14"/>
<text text-anchor="middle" x="362.8" y="-44.09" font-family="Times,serif" font-size="14.00">Project</text>
</a>
</g>
</g>
<!-- Updater -->
<g id="node10" class="node">
<title>Updater</title>
<g id="a_node10"><a xlink:href="/develop/Data/models.html#updater" xlink:title="Updater" target="_top">
<polygon fill="#eeefff" stroke="#dddeee" points="621.8,-67.14 562.3,-67.14 562.3,-31.14 621.8,-31.14 621.8,-67.14"/>
<text text-anchor="middle" x="592.05" y="-44.09" font-family="Times,serif" font-size="14.00">Updater</text>
</a>
</g>
</g>
</g>
</svg>
