<?xml version="1.0" encoding="UTF-8" standalone="no"?>
<!DOCTYPE svg PUBLIC "-//W3C//DTD SVG 1.1//EN"
 "http://www.w3.org/Graphics/SVG/1.1/DTD/svg11.dtd">
<!-- Generated by graphviz version 2.50.0 (20211204.2007)
 -->
<!-- Title: BiologicalAssociationsBiologicalAssociationsGraph Pages: 1 -->
<svg width="841pt" height="383pt"
 viewBox="0.00 0.00 840.50 383.44" xmlns="http://www.w3.org/2000/svg" xmlns:xlink="http://www.w3.org/1999/xlink">
<g id="graph0" class="graph" transform="scale(1 1) rotate(0) translate(4 379.44)">
<title>BiologicalAssociationsBiologicalAssociationsGraph</title>
<polygon fill="white" stroke="transparent" points="-4,4 -4,-379.44 836.5,-379.44 836.5,4 -4,4"/>
<!-- BiologicalAssociationsBiologicalAssociationsGraph&#45;&gt;BiologicalAssociation -->
<g id="edge5" class="edge">
<title>BiologicalAssociationsBiologicalAssociationsGraph&#45;&gt;BiologicalAssociation</title>
<path fill="none" stroke="black" stroke-dasharray="5,2" d="M253.48,-195.1C300.81,-230.32 386.65,-290.63 467.5,-328.94 475.1,-332.54 483.28,-335.85 491.48,-338.83"/>
<polygon fill="black" stroke="black" points="255.49,-192.23 245.38,-189.04 251.29,-197.83 255.49,-192.23"/>
</g>
<!-- BiologicalAssociationsBiologicalAssociationsGraph&#45;&gt;PinboardItem -->
<g id="edge1" class="edge">
<title>BiologicalAssociationsBiologicalAssociationsGraph&#45;&gt;PinboardItem</title>
<path fill="none" stroke="black" d="M263.75,-188.95C313.69,-211.93 395.25,-248.25 467.5,-274.94 477.95,-278.8 489.24,-282.58 500.11,-286.03"/>
<polygon fill="black" stroke="black" points="499.35,-289.46 509.94,-289.1 501.44,-282.78 499.35,-289.46"/>
</g>
<!-- BiologicalAssociationsBiologicalAssociationsGraph&#45;&gt;Role -->
<g id="edge2" class="edge">
<title>BiologicalAssociationsBiologicalAssociationsGraph&#45;&gt;Role</title>
<path fill="none" stroke="black" d="M307.26,-188.64C376.58,-205.27 468.54,-227.32 518.49,-239.3"/>
<polygon fill="black" stroke="black" points="517.94,-242.77 528.48,-241.7 519.57,-235.96 517.94,-242.77"/>
</g>
<!-- BiologicalAssociationsBiologicalAssociationsGraph&#45;&gt;VerifierRole -->
<g id="edge3" class="edge">
<title>BiologicalAssociationsBiologicalAssociationsGraph&#45;&gt;VerifierRole</title>
<path fill="none" stroke="black" d="M395.02,-181.19C435.03,-184.39 474.32,-187.53 503.9,-189.89"/>
<polygon fill="black" stroke="black" points="503.69,-193.39 513.94,-190.69 504.25,-186.41 503.69,-193.39"/>
</g>
<!-- BiologicalAssociationsBiologicalAssociationsGraph&#45;&gt;BiologicalAssociationsGraph -->
<g id="edge6" class="edge">
<title>BiologicalAssociationsBiologicalAssociationsGraph&#45;&gt;BiologicalAssociationsGraph</title>
<path fill="none" stroke="black" stroke-dasharray="5,2" d="M405.28,-151.87C426.81,-150.15 447.9,-148.46 467.14,-146.92"/>
<polygon fill="black" stroke="black" points="404.71,-148.4 395.02,-152.69 405.27,-155.38 404.71,-148.4"/>
</g>
<!-- BiologicalAssociationsBiologicalAssociationsGraph&#45;&gt;Creator -->
<g id="edge7" class="edge">
<title>BiologicalAssociationsBiologicalAssociationsGraph&#45;&gt;Creator</title>
<path fill="none" stroke="black" stroke-dasharray="5,2" d="M324.73,-143.69C450.84,-116.54 642.53,-75.24 643.5,-74.94 655.49,-71.13 668.33,-65.91 679.3,-61.07"/>
<polygon fill="black" stroke="black" points="323.67,-140.34 314.64,-145.86 325.15,-147.18 323.67,-140.34"/>
</g>
<!-- BiologicalAssociationsBiologicalAssociationsGraph&#45;&gt;Project -->
<g id="edge8" class="edge">
<title>BiologicalAssociationsBiologicalAssociationsGraph&#45;&gt;Project</title>
<path fill="none" stroke="black" stroke-dasharray="5,2" d="M289.33,-141.37C364.13,-115.01 476.8,-75.31 527.77,-57.36"/>
<polygon fill="black" stroke="black" points="287.76,-138.21 279.49,-144.83 290.08,-144.81 287.76,-138.21"/>
</g>
<!-- BiologicalAssociationsBiologicalAssociationsGraph&#45;&gt;Updater -->
<g id="edge9" class="edge">
<title>BiologicalAssociationsBiologicalAssociationsGraph&#45;&gt;Updater</title>
<path fill="none" stroke="black" stroke-dasharray="5,2" d="M251.65,-138.43C297.75,-102.81 383.03,-43.74 467.5,-20.94 582.93,10.22 619.26,2.45 736.5,-20.94 748.61,-23.35 761.28,-28.06 772.18,-32.88"/>
<polygon fill="black" stroke="black" points="249.23,-135.88 243.51,-144.8 253.54,-141.4 249.23,-135.88"/>
</g>
<!-- Role&#45;&gt;Verifier -->
<!-- VerifierRole&#45;&gt;Verifier -->
<g id="edge4" class="edge">
<title>VerifierRole&#45;&gt;Verifier</title>
<path fill="none" stroke="black" stroke-dasharray="1,5" d="M597.23,-201.24C619.63,-205.26 647.23,-210.21 669.15,-214.15"/>
<polygon fill="black" stroke="black" points="668.64,-217.61 679.1,-215.93 669.87,-210.72 668.64,-217.61"/>
</g>
<!-- Creator&#45;&gt;Updater -->
<!-- Project&#45;&gt;Creator -->
<!-- BiologicalAssociation -->
<g id="node1" class="node">
<title>BiologicalAssociation</title>
<g id="a_node1"><a xlink:href="/develop/Data/models.html#biological-association" xlink:title="BiologicalAssociation" target="_top">
<path fill="#fedcba" stroke="#dddeee" d="M499,-338.94C499,-338.94 612,-338.94 612,-338.94 618,-338.94 624,-344.94 624,-350.94 624,-350.94 624,-362.94 624,-362.94 624,-368.94 618,-374.94 612,-374.94 612,-374.94 499,-374.94 499,-374.94 493,-374.94 487,-368.94 487,-362.94 487,-362.94 487,-350.94 487,-350.94 487,-344.94 493,-338.94 499,-338.94"/>
<text text-anchor="middle" x="555.5" y="-353.24" font-family="Times,serif" font-size="14.00">BiologicalAssociation</text>
</a>
</g>
</g>
<!-- BiologicalAssociationsBiologicalAssociationsGraph -->
<g id="node2" class="node">
<title>BiologicalAssociationsBiologicalAssociationsGraph</title>
<g id="a_node2"><a xlink:href="/develop/Data/models.html#biological-associations-biological-associations-graph" xlink:title="BiologicalAssociationsBiologicalAssociationsGraph" target="_top">
<polygon fill="#cdefab" stroke="#dedede" points="427.26,-159.48 427.26,-174.39 303.36,-184.94 128.14,-184.94 4.24,-174.39 4.24,-159.48 128.14,-148.94 303.36,-148.94 427.26,-159.48"/>
<polygon fill="none" stroke="#dedede" points="431.25,-155.81 431.25,-178.07 303.53,-188.94 127.97,-188.94 0.25,-178.07 0.25,-155.81 127.97,-144.94 303.53,-144.94 431.25,-155.81"/>
<text text-anchor="middle" x="215.75" y="-163.24" font-family="Times,serif" font-size="14.00">BiologicalAssociationsBiologicalAssociationsGraph</text>
</a>
</g>
</g>
<!-- PinboardItem -->
<g id="node3" class="node">
<title>PinboardItem</title>
<g id="a_node3"><a xlink:href="/develop/Data/models.html#pinboard-item" xlink:title="PinboardItem" target="_top">
<polygon fill="#eeefff" stroke="#dddeee" points="601,-319.94 510,-319.94 510,-283.94 601,-283.94 601,-319.94"/>
<text text-anchor="middle" x="555.5" y="-298.24" font-family="Times,serif" font-size="14.00">PinboardItem</text>
</a>
</g>
</g>
<!-- Role -->
<g id="node4" class="node">
<title>Role</title>
<g id="a_node4"><a xlink:href="/develop/Data/models.html#role" xlink:title="Role" target="_top">
<polygon fill="#eeefff" stroke="#dddeee" points="582.5,-265.94 528.5,-265.94 528.5,-229.94 582.5,-229.94 582.5,-265.94"/>
<text text-anchor="middle" x="555.5" y="-244.24" font-family="Times,serif" font-size="14.00">Role</text>
</a>
</g>
</g>
<!-- VerifierRole -->
<g id="node5" class="node">
<title>VerifierRole</title>
<g id="a_node5"><a xlink:href="/develop/Data/models.html#verifier-role" xlink:title="VerifierRole" target="_top">
<polygon fill="#eeefff" stroke="#dddeee" points="597,-211.94 514,-211.94 514,-175.94 597,-175.94 597,-211.94"/>
<text text-anchor="middle" x="555.5" y="-190.24" font-family="Times,serif" font-size="14.00">VerifierRole</text>
</a>
</g>
</g>
<!-- Verifier -->
<g id="node6" class="node">
<title>Verifier</title>
<g id="a_node6"><a xlink:href="/develop/Data/models.html#verifier" xlink:title="Verifier" target="_top">
<polygon fill="#eeefff" stroke="#dddeee" points="736.5,-238.94 679.5,-238.94 679.5,-202.94 736.5,-202.94 736.5,-238.94"/>
<text text-anchor="middle" x="708" y="-217.24" font-family="Times,serif" font-size="14.00">Verifier</text>
</a>
</g>
</g>
<!-- BiologicalAssociationsGraph -->
<g id="node7" class="node">
<title>BiologicalAssociationsGraph</title>
<g id="a_node7"><a xlink:href="/develop/Data/models.html#biological-associations-graph" xlink:title="BiologicalAssociationsGraph" target="_top">
<polygon fill="#eeefff" stroke="#dddeee" points="643.5,-157.94 467.5,-157.94 467.5,-121.94 643.5,-121.94 643.5,-157.94"/>
<text text-anchor="middle" x="555.5" y="-136.24" font-family="Times,serif" font-size="14.00">BiologicalAssociationsGraph</text>
</a>
</g>
</g>
<!-- Creator -->
<g id="node8" class="node">
<title>Creator</title>
<g id="a_node8"><a xlink:href="/develop/Data/models.html#creator" xlink:title="Creator" target="_top">
<polygon fill="#eeefff" stroke="#dddeee" points="736.5,-65.94 679.5,-65.94 679.5,-29.94 736.5,-29.94 736.5,-65.94"/>
<text text-anchor="middle" x="708" y="-44.24" font-family="Times,serif" font-size="14.00">Creator</text>
</a>
</g>
</g>
<!-- Project -->
<g id="node9" class="node">
<title>Project</title>
<g id="a_node9"><a xlink:href="/develop/Data/models.html#project" xlink:title="Project" target="_top">
<polygon fill="#eeefff" stroke="#dddeee" points="583,-65.94 528,-65.94 528,-29.94 583,-29.94 583,-65.94"/>
<text text-anchor="middle" x="555.5" y="-44.24" font-family="Times,serif" font-size="14.00">Project</text>
</a>
</g>
</g>
<!-- Updater -->
<g id="node10" class="node">
<title>Updater</title>
<g id="a_node10"><a xlink:href="/develop/Data/models.html#updater" xlink:title="Updater" target="_top">
<polygon fill="#eeefff" stroke="#dddeee" points="832.5,-65.94 772.5,-65.94 772.5,-29.94 832.5,-29.94 832.5,-65.94"/>
<text text-anchor="middle" x="802.5" y="-44.24" font-family="Times,serif" font-size="14.00">Updater</text>
</a>
</g>
</g>
</g>
</svg>
