<?xml version="1.0" encoding="UTF-8" standalone="no"?>
<!DOCTYPE svg PUBLIC "-//W3C//DTD SVG 1.1//EN"
 "http://www.w3.org/Graphics/SVG/1.1/DTD/svg11.dtd">
<!-- Generated by graphviz version 12.2.1 (20241206.2353)
 -->
<!-- Title: BiologicalAssociationsGraph Pages: 1 -->
<svg width="1061pt" height="630pt"
 viewBox="0.00 0.00 1060.94 630.00" xmlns="http://www.w3.org/2000/svg" xmlns:xlink="http://www.w3.org/1999/xlink">
<g id="graph0" class="graph" transform="scale(1 1) rotate(0) translate(4 626)">
<title>BiologicalAssociationsGraph</title>
<polygon fill="white" stroke="none" points="-4,4 -4,-626 1056.94,-626 1056.94,4 -4,4"/>
<!-- Citation&#45;&gt;Source -->
<g id="edge10" class="edge">
<title>Citation&#45;&gt;Source</title>
<path fill="none" stroke="black" stroke-dasharray="1,5" d="M86.19,-549C185.67,-549 443.35,-549 540.37,-549"/>
<polygon fill="black" stroke="black" points="540.14,-552.5 550.14,-549 540.14,-545.5 540.14,-552.5"/>
</g>
<!-- Citation&#45;&gt;CitationTopic -->
<g id="edge3" class="edge">
<title>Citation&#45;&gt;CitationTopic</title>
<path fill="none" stroke="black" stroke-dasharray="1,5" d="M80.82,-557.96C113.78,-566.49 163.97,-579.48 202.64,-589.49"/>
<polygon fill="black" stroke="black" points="201.7,-592.87 212.26,-591.98 203.45,-586.09 201.7,-592.87"/>
</g>
<!-- Tag&#45;&gt;Keyword -->
<g id="edge6" class="edge">
<title>Tag&#45;&gt;Keyword</title>
<path fill="none" stroke="black" stroke-dasharray="1,5" d="M72.69,-268.88C108.28,-268.71 172.01,-268.41 214.82,-268.21"/>
<polygon fill="black" stroke="black" points="214.8,-271.71 224.78,-268.16 214.77,-264.71 214.8,-271.71"/>
</g>
<!-- Source&#45;&gt;SubsequentCitation -->
<!-- Source&#45;&gt;OriginCitation -->
<!-- BiologicalAssociationsGraph&#45;&gt;Citation -->
<g id="edge4" class="edge">
<title>BiologicalAssociationsGraph&#45;&gt;Citation</title>
<path fill="none" stroke="black" d="M237.27,-348.48C197.28,-390.44 111.55,-480.42 69.9,-524.14"/>
<polygon fill="black" stroke="black" points="67.59,-521.49 63.22,-531.14 72.66,-526.32 67.59,-521.49"/>
</g>
<!-- BiologicalAssociationsGraph&#45;&gt;Identifier -->
<g id="edge5" class="edge">
<title>BiologicalAssociationsGraph&#45;&gt;Identifier</title>
<path fill="none" stroke="black" d="M180.98,-345.02C152.25,-352.05 120.51,-359.82 95.05,-366.05"/>
<polygon fill="black" stroke="black" points="94.55,-362.57 85.67,-368.34 96.21,-369.37 94.55,-362.57"/>
</g>
<!-- BiologicalAssociationsGraph&#45;&gt;Tag -->
<g id="edge13" class="edge">
<title>BiologicalAssociationsGraph&#45;&gt;Tag</title>
<path fill="none" stroke="black" d="M175.86,-307.71C159.42,-303.76 142.32,-299.43 126.42,-295 111.18,-290.75 94.5,-285.45 80.33,-280.75"/>
<polygon fill="black" stroke="black" points="81.6,-277.49 71,-277.62 79.37,-284.12 81.6,-277.49"/>
</g>
<!-- BiologicalAssociationsGraph&#45;&gt;Note -->
<g id="edge7" class="edge">
<title>BiologicalAssociationsGraph&#45;&gt;Note</title>
<path fill="none" stroke="black" d="M126.19,-324.75C111.6,-324.62 97.71,-324.48 85.73,-324.37"/>
<polygon fill="black" stroke="black" points="85.97,-320.87 75.94,-324.28 85.9,-327.87 85.97,-320.87"/>
</g>
<!-- BiologicalAssociationsGraph&#45;&gt;Source -->
<g id="edge23" class="edge">
<title>BiologicalAssociationsGraph&#45;&gt;Source</title>
<path fill="none" stroke="black" stroke-dasharray="1,5" d="M279.22,-357.13C306.44,-399.95 361.37,-476.24 428.94,-516 463.74,-536.48 509.91,-544.27 541.61,-547.22"/>
<polygon fill="none" stroke="black" points="270.56,-350.82 277.34,-346.58 281.58,-353.36 274.8,-357.6 270.56,-350.82"/>
<polyline fill="none" stroke="black" points="278.19,-355.48 279.25,-357.18"/>
<polygon fill="none" stroke="black" points="551.59,-544.02 550.94,-552 542.97,-551.35 543.62,-543.37 551.59,-544.02"/>
<polyline fill="none" stroke="black" points="543.29,-547.36 541.3,-547.2"/>
</g>
<!-- BiologicalAssociationsGraph&#45;&gt;BiologicalAssociationsBiologicalAssociationsGraph -->
<g id="edge2" class="edge">
<title>BiologicalAssociationsGraph&#45;&gt;BiologicalAssociationsBiologicalAssociationsGraph</title>
<path fill="none" stroke="black" d="M354.99,-309.41C368.07,-305.54 381.07,-300.79 392.94,-295 411.4,-285.99 410.4,-274.84 428.94,-266 436.84,-262.24 445.19,-258.91 453.73,-255.97"/>
<polygon fill="black" stroke="black" points="454.76,-259.32 463.2,-252.92 452.61,-252.66 454.76,-259.32"/>
</g>
<!-- BiologicalAssociationsGraph&#45;&gt;PinboardItem -->
<g id="edge8" class="edge">
<title>BiologicalAssociationsGraph&#45;&gt;PinboardItem</title>
<path fill="none" stroke="black" d="M366.98,-311C376.37,-306.83 385.23,-301.58 392.94,-295 425.09,-267.57 396.11,-233.6 428.94,-207 454.87,-186 491.7,-179.18 522.27,-177.64"/>
<polygon fill="black" stroke="black" points="522.24,-181.15 532.13,-177.34 522.03,-174.15 522.24,-181.15"/>
</g>
<!-- BiologicalAssociationsGraph&#45;&gt;Role -->
<g id="edge9" class="edge">
<title>BiologicalAssociationsGraph&#45;&gt;Role</title>
<path fill="none" stroke="black" d="M370.68,-311.46C378.93,-307.15 386.52,-301.75 392.94,-295 454.03,-230.87 366.24,-161.55 428.94,-99 457.85,-70.16 506.52,-66.37 540.36,-67.85"/>
<polygon fill="black" stroke="black" points="539.95,-71.33 550.15,-68.47 540.39,-64.34 539.95,-71.33"/>
</g>
<!-- BiologicalAssociationsGraph&#45;&gt;SubsequentCitation -->
<g id="edge11" class="edge">
<title>BiologicalAssociationsGraph&#45;&gt;SubsequentCitation</title>
<path fill="none" stroke="black" d="M314.4,-348.26C347.02,-361 389.8,-376.32 428.94,-386 559.81,-418.36 597.05,-402.31 729.19,-429 739.55,-431.09 750.41,-433.6 761.04,-436.22"/>
<polygon fill="black" stroke="black" points="759.99,-439.56 770.54,-438.62 761.7,-432.78 759.99,-439.56"/>
</g>
<!-- BiologicalAssociationsGraph&#45;&gt;Uri -->
<g id="edge15" class="edge">
<title>BiologicalAssociationsGraph&#45;&gt;Uri</title>
<path fill="none" stroke="black" d="M371.27,-311.56C379.34,-307.22 386.73,-301.78 392.94,-295 468.78,-212.24 351.01,-125.8 428.94,-45 457.37,-15.52 506.36,-11.91 540.39,-13.61"/>
<polygon fill="black" stroke="black" points="540.02,-17.09 550.24,-14.29 540.51,-10.11 540.02,-17.09"/>
</g>
<!-- BiologicalAssociationsGraph&#45;&gt;Uuid -->
<g id="edge16" class="edge">
<title>BiologicalAssociationsGraph&#45;&gt;Uuid</title>
<path fill="none" stroke="black" d="M292.03,-348.35C324.72,-370.65 378.19,-404.35 428.94,-424 465.62,-438.2 509.93,-446.69 540.68,-451.32"/>
<polygon fill="black" stroke="black" points="539.86,-454.74 550.25,-452.7 540.85,-447.81 539.86,-454.74"/>
</g>
<!-- BiologicalAssociationsGraph&#45;&gt;VerifierRole -->
<g id="edge17" class="edge">
<title>BiologicalAssociationsGraph&#45;&gt;VerifierRole</title>
<path fill="none" stroke="black" d="M369.57,-311.31C378.16,-307.04 386.13,-301.69 392.94,-295 439.39,-249.38 381.34,-197.42 428.94,-153 454.64,-129.02 494.13,-122.72 526.02,-122.17"/>
<polygon fill="black" stroke="black" points="525.85,-125.67 535.87,-122.2 525.88,-118.67 525.85,-125.67"/>
</g>
<!-- BiologicalAssociationsGraph&#45;&gt;Creator -->
<g id="edge19" class="edge">
<title>BiologicalAssociationsGraph&#45;&gt;Creator</title>
<path fill="none" stroke="black" stroke-dasharray="5,2" d="M362.48,-307C384.33,-303.67 407.34,-300.72 428.94,-299 561.96,-288.4 596.84,-281.94 729.19,-299 755.23,-302.36 784.07,-310.3 804.6,-316.7"/>
<polygon fill="black" stroke="black" points="362.01,-303.53 352.67,-308.53 363.1,-310.44 362.01,-303.53"/>
</g>
<!-- BiologicalAssociationsGraph&#45;&gt;Project -->
<g id="edge20" class="edge">
<title>BiologicalAssociationsGraph&#45;&gt;Project</title>
<path fill="none" stroke="black" stroke-dasharray="5,2" d="M404.48,-326C460.33,-326 518.67,-326 551.48,-326"/>
<polygon fill="black" stroke="black" points="404.5,-322.5 394.5,-326 404.5,-329.5 404.5,-322.5"/>
</g>
<!-- BiologicalAssociationsGraph&#45;&gt;Updater -->
<g id="edge21" class="edge">
<title>BiologicalAssociationsGraph&#45;&gt;Updater</title>
<path fill="none" stroke="black" stroke-dasharray="5,2" d="M362.48,-345C384.33,-348.33 407.34,-351.28 428.94,-353 638.17,-369.68 693.4,-382.59 901.19,-353 922.97,-349.9 946.78,-342.9 964.84,-336.81"/>
<polygon fill="black" stroke="black" points="363.1,-341.56 352.67,-343.47 362.01,-348.47 363.1,-341.56"/>
</g>
<!-- BiologicalAssociationsGraph&#45;&gt;OriginCitation -->
<g id="edge22" class="edge">
<title>BiologicalAssociationsGraph&#45;&gt;OriginCitation</title>
<path fill="none" stroke="black" d="M282.94,-356.42C311.95,-393.44 366.4,-454.52 428.94,-483 489.22,-510.45 678.8,-520.24 775,-523.5"/>
<polygon fill="none" stroke="black" points="273.94,-351.3 280.28,-346.42 285.16,-352.75 278.83,-357.64 273.94,-351.3"/>
<polyline fill="none" stroke="black" points="282,-355.19 283.22,-356.78"/>
<polygon fill="none" stroke="black" points="785.04,-519.82 784.78,-527.82 776.78,-527.56 777.04,-519.56 785.04,-519.82"/>
<polyline fill="none" stroke="black" points="776.91,-523.56 774.92,-523.5"/>
</g>
<!-- BiologicalAssociationsBiologicalAssociationsGraph&#45;&gt;BiologicalAssociation -->
<g id="edge1" class="edge">
<title>BiologicalAssociationsBiologicalAssociationsGraph&#45;&gt;BiologicalAssociation</title>
<path fill="none" stroke="black" stroke-dasharray="1,5" d="M729.64,-234C737.74,-234 745.7,-234 753.39,-234"/>
<polygon fill="black" stroke="black" points="753.32,-237.5 763.32,-234 753.32,-230.5 753.32,-237.5"/>
</g>
<!-- CitationTopic&#45;&gt;Topic -->
<g id="edge14" class="edge">
<title>CitationTopic&#45;&gt;Topic</title>
<path fill="none" stroke="black" stroke-dasharray="1,5" d="M305.48,-604C368.31,-604 481.47,-604 540.27,-604"/>
<polygon fill="black" stroke="black" points="540.11,-607.5 550.11,-604 540.11,-600.5 540.11,-607.5"/>
</g>
<!-- Role&#45;&gt;Verifier -->
<!-- SubsequentCitation&#45;&gt;SubsequentSource -->
<g id="edge12" class="edge">
<title>SubsequentCitation&#45;&gt;SubsequentSource</title>
<path fill="none" stroke="black" stroke-dasharray="1,5" d="M894.18,-456C904.46,-456 915.21,-456 925.69,-456"/>
<polygon fill="black" stroke="black" points="925.41,-459.5 935.41,-456 925.41,-452.5 925.41,-459.5"/>
</g>
<!-- VerifierRole&#45;&gt;Verifier -->
<g id="edge18" class="edge">
<title>VerifierRole&#45;&gt;Verifier</title>
<path fill="none" stroke="black" stroke-dasharray="1,5" d="M620.86,-121.63C668.39,-116.54 746.39,-108.19 793.16,-103.18"/>
<polygon fill="black" stroke="black" points="793.27,-106.69 802.84,-102.14 792.52,-99.73 793.27,-106.69"/>
</g>
<!-- Creator&#45;&gt;Updater -->
<!-- Project&#45;&gt;Creator -->
<!-- Citation -->
<g id="node1" class="node">
<title>Citation</title>
<g id="a_node1"><a xlink:href="/develop/Data/models.html#citation" xlink:title="Citation" target="_top">
<ellipse fill="#abcdef" stroke="#dddeee" cx="45.21" cy="-549" rx="40.6" ry="18"/>
<text text-anchor="middle" x="45.21" y="-543.95" font-family="Times,serif" font-size="14.00">Citation</text>
</a>
</g>
</g>
<!-- Identifier -->
<g id="node2" class="node">
<title>Identifier</title>
<g id="a_node2"><a xlink:href="/develop/Data/models.html#identifier" xlink:title="Identifier" target="_top">
<ellipse fill="#abcdef" stroke="#dddeee" cx="45.21" cy="-378" rx="45.21" ry="18"/>
<text text-anchor="middle" x="45.21" y="-372.95" font-family="Times,serif" font-size="14.00">Identifier</text>
</a>
</g>
</g>
<!-- Tag -->
<g id="node3" class="node">
<title>Tag</title>
<g id="a_node3"><a xlink:href="/develop/Data/models.html#tag" xlink:title="Tag" target="_top">
<ellipse fill="#abcdef" stroke="#dddeee" cx="45.21" cy="-269" rx="27" ry="18"/>
<text text-anchor="middle" x="45.21" y="-263.95" font-family="Times,serif" font-size="14.00">Tag</text>
</a>
</g>
</g>
<!-- Note -->
<g id="node4" class="node">
<title>Note</title>
<g id="a_node4"><a xlink:href="/develop/Data/models.html#note" xlink:title="Note" target="_top">
<ellipse fill="#abcdef" stroke="#dddeee" cx="45.21" cy="-324" rx="28.83" ry="18"/>
<text text-anchor="middle" x="45.21" y="-318.95" font-family="Times,serif" font-size="14.00">Note</text>
</a>
</g>
</g>
<!-- BiologicalAssociation -->
<g id="node5" class="node">
<title>BiologicalAssociation</title>
<g id="a_node5"><a xlink:href="/develop/Data/models.html#biological-association" xlink:title="BiologicalAssociation" target="_top">
<path fill="#fedcba" stroke="#dddeee" d="M777.19,-216C777.19,-216 889.19,-216 889.19,-216 895.19,-216 901.19,-222 901.19,-228 901.19,-228 901.19,-240 901.19,-240 901.19,-246 895.19,-252 889.19,-252 889.19,-252 777.19,-252 777.19,-252 771.19,-252 765.19,-246 765.19,-240 765.19,-240 765.19,-228 765.19,-228 765.19,-222 771.19,-216 777.19,-216"/>
<text text-anchor="middle" x="833.19" y="-229.2" font-family="Times,serif" font-size="14.00">BiologicalAssociation</text>
</a>
</g>
</g>
<!-- Source -->
<g id="node6" class="node">
<title>Source</title>
<g id="a_node6"><a xlink:href="/develop/Data/models.html#source" xlink:title="Source" target="_top">
<path fill="#fedcba" stroke="#dddeee" d="M564.07,-531C564.07,-531 594.07,-531 594.07,-531 600.07,-531 606.07,-537 606.07,-543 606.07,-543 606.07,-555 606.07,-555 606.07,-561 600.07,-567 594.07,-567 594.07,-567 564.07,-567 564.07,-567 558.07,-567 552.07,-561 552.07,-555 552.07,-555 552.07,-543 552.07,-543 552.07,-537 558.07,-531 564.07,-531"/>
<text text-anchor="middle" x="579.07" y="-544.2" font-family="Times,serif" font-size="14.00">Source</text>
</a>
</g>
</g>
<!-- BiologicalAssociationsGraph -->
<g id="node7" class="node">
<title>BiologicalAssociationsGraph</title>
<g id="a_node7"><a xlink:href="/develop/Data/models.html#biological-associations-graph" xlink:title="BiologicalAssociationsGraph" target="_top">
<polygon fill="#cdefab" stroke="#dedede" points="388.94,-318.54 388.94,-333.46 313.22,-344 206.14,-344 130.42,-333.46 130.42,-318.54 206.14,-308 313.22,-308 388.94,-318.54"/>
<polygon fill="none" stroke="#dedede" points="392.94,-315.06 392.94,-336.94 313.5,-348 205.86,-348 126.42,-336.94 126.42,-315.06 205.86,-304 313.5,-304 392.94,-315.06"/>
<text text-anchor="middle" x="259.68" y="-320.95" font-family="Times,serif" font-size="14.00">BiologicalAssociationsGraph</text>
</a>
</g>
</g>
<!-- BiologicalAssociationsBiologicalAssociationsGraph -->
<g id="node8" class="node">
<title>BiologicalAssociationsBiologicalAssociationsGraph</title>
<g id="a_node8"><a xlink:href="/develop/Data/models.html#biological-associations-biological-associations-graph" xlink:title="BiologicalAssociationsBiologicalAssociationsGraph" target="_top">
<polygon fill="#eeefff" stroke="#dddeee" points="729.19,-252 428.94,-252 428.94,-216 729.19,-216 729.19,-252"/>
<text text-anchor="middle" x="579.07" y="-228.95" font-family="Times,serif" font-size="14.00">BiologicalAssociationsBiologicalAssociationsGraph</text>
</a>
</g>
</g>
<!-- CitationTopic -->
<g id="node9" class="node">
<title>CitationTopic</title>
<g id="a_node9"><a xlink:href="/develop/Data/models.html#citation-topic" xlink:title="CitationTopic" target="_top">
<polygon fill="#eeefff" stroke="#dddeee" points="305.18,-622 214.18,-622 214.18,-586 305.18,-586 305.18,-622"/>
<text text-anchor="middle" x="259.68" y="-598.95" font-family="Times,serif" font-size="14.00">CitationTopic</text>
</a>
</g>
</g>
<!-- Keyword -->
<g id="node10" class="node">
<title>Keyword</title>
<g id="a_node10"><a xlink:href="/develop/Data/models.html#keyword" xlink:title="Keyword" target="_top">
<polygon fill="#eeefff" stroke="#dddeee" points="292.81,-286 226.56,-286 226.56,-250 292.81,-250 292.81,-286"/>
<text text-anchor="middle" x="259.68" y="-262.95" font-family="Times,serif" font-size="14.00">Keyword</text>
</a>
</g>
</g>
<!-- PinboardItem -->
<g id="node11" class="node">
<title>PinboardItem</title>
<g id="a_node11"><a xlink:href="/develop/Data/models.html#pinboard-item" xlink:title="PinboardItem" target="_top">
<polygon fill="#eeefff" stroke="#dddeee" points="624.19,-198 533.94,-198 533.94,-162 624.19,-162 624.19,-198"/>
<text text-anchor="middle" x="579.07" y="-174.95" font-family="Times,serif" font-size="14.00">PinboardItem</text>
</a>
</g>
</g>
<!-- Role -->
<g id="node12" class="node">
<title>Role</title>
<g id="a_node12"><a xlink:href="/develop/Data/models.html#role" xlink:title="Role" target="_top">
<polygon fill="#eeefff" stroke="#dddeee" points="606.07,-90 552.07,-90 552.07,-54 606.07,-54 606.07,-90"/>
<text text-anchor="middle" x="579.07" y="-66.95" font-family="Times,serif" font-size="14.00">Role</text>
</a>
</g>
</g>
<!-- SubsequentCitation -->
<g id="node13" class="node">
<title>SubsequentCitation</title>
<g id="a_node13"><a xlink:href="/develop/Data/models.html#subsequent-citation" xlink:title="SubsequentCitation" target="_top">
<polygon fill="#eeefff" stroke="#dddeee" points="894.07,-474 772.32,-474 772.32,-438 894.07,-438 894.07,-474"/>
<text text-anchor="middle" x="833.19" y="-450.95" font-family="Times,serif" font-size="14.00">SubsequentCitation</text>
</a>
</g>
</g>
<!-- SubsequentSource -->
<g id="node14" class="node">
<title>SubsequentSource</title>
<g id="a_node14"><a xlink:href="/develop/Data/models.html#subsequent-source" xlink:title="SubsequentSource" target="_top">
<polygon fill="#eeefff" stroke="#dddeee" points="1052.94,-474 937.19,-474 937.19,-438 1052.94,-438 1052.94,-474"/>
<text text-anchor="middle" x="995.07" y="-450.95" font-family="Times,serif" font-size="14.00">SubsequentSource</text>
</a>
</g>
</g>
<!-- Topic -->
<g id="node15" class="node">
<title>Topic</title>
<g id="a_node15"><a xlink:href="/develop/Data/models.html#topic" xlink:title="Topic" target="_top">
<polygon fill="#eeefff" stroke="#dddeee" points="606.07,-622 552.07,-622 552.07,-586 606.07,-586 606.07,-622"/>
<text text-anchor="middle" x="579.07" y="-598.95" font-family="Times,serif" font-size="14.00">Topic</text>
</a>
</g>
</g>
<!-- Uri -->
<g id="node16" class="node">
<title>Uri</title>
<g id="a_node16"><a xlink:href="/develop/Data/models.html#uri" xlink:title="Uri" target="_top">
<polygon fill="#eeefff" stroke="#dddeee" points="606.07,-36 552.07,-36 552.07,0 606.07,0 606.07,-36"/>
<text text-anchor="middle" x="579.07" y="-12.95" font-family="Times,serif" font-size="14.00">Uri</text>
</a>
</g>
</g>
<!-- Uuid -->
<g id="node17" class="node">
<title>Uuid</title>
<g id="a_node17"><a xlink:href="/develop/Data/models.html#uuid" xlink:title="Uuid" target="_top">
<polygon fill="#eeefff" stroke="#dddeee" points="606.07,-474 552.07,-474 552.07,-438 606.07,-438 606.07,-474"/>
<text text-anchor="middle" x="579.07" y="-450.95" font-family="Times,serif" font-size="14.00">Uuid</text>
</a>
</g>
</g>
<!-- VerifierRole -->
<g id="node18" class="node">
<title>VerifierRole</title>
<g id="a_node18"><a xlink:href="/develop/Data/models.html#verifier-role" xlink:title="VerifierRole" target="_top">
<polygon fill="#eeefff" stroke="#dddeee" points="620.44,-144 537.69,-144 537.69,-108 620.44,-108 620.44,-144"/>
<text text-anchor="middle" x="579.07" y="-120.95" font-family="Times,serif" font-size="14.00">VerifierRole</text>
</a>
</g>
</g>
<!-- Verifier -->
<g id="node19" class="node">
<title>Verifier</title>
<g id="a_node19"><a xlink:href="/develop/Data/models.html#verifier" xlink:title="Verifier" target="_top">
<polygon fill="#eeefff" stroke="#dddeee" points="861.82,-117 804.57,-117 804.57,-81 861.82,-81 861.82,-117"/>
<text text-anchor="middle" x="833.19" y="-93.95" font-family="Times,serif" font-size="14.00">Verifier</text>
</a>
</g>
</g>
<!-- Creator -->
<g id="node20" class="node">
<title>Creator</title>
<g id="a_node20"><a xlink:href="/develop/Data/models.html#creator" xlink:title="Creator" target="_top">
<polygon fill="#eeefff" stroke="#dddeee" points="861.44,-344 804.94,-344 804.94,-308 861.44,-308 861.44,-344"/>
<text text-anchor="middle" x="833.19" y="-320.95" font-family="Times,serif" font-size="14.00">Creator</text>
</a>
</g>
</g>
<!-- Project -->
<g id="node21" class="node">
<title>Project</title>
<g id="a_node21"><a xlink:href="/develop/Data/models.html#project" xlink:title="Project" target="_top">
<polygon fill="#eeefff" stroke="#dddeee" points="606.19,-344 551.94,-344 551.94,-308 606.19,-308 606.19,-344"/>
<text text-anchor="middle" x="579.07" y="-320.95" font-family="Times,serif" font-size="14.00">Project</text>
</a>
</g>
</g>
<!-- Updater -->
<g id="node22" class="node">
<title>Updater</title>
<g id="a_node22"><a xlink:href="/develop/Data/models.html#updater" xlink:title="Updater" target="_top">
<polygon fill="#eeefff" stroke="#dddeee" points="1024.82,-344 965.32,-344 965.32,-308 1024.82,-308 1024.82,-344"/>
<text text-anchor="middle" x="995.07" y="-320.95" font-family="Times,serif" font-size="14.00">Updater</text>
</a>
</g>
</g>
<!-- OriginCitation -->
<g id="node23" class="node">
<title>OriginCitation</title>
<g id="a_node23"><a xlink:href="/develop/Data/models.html#origin-citation" xlink:title="OriginCitation" target="_top">
<polygon fill="#eeefff" stroke="#dddeee" points="880.57,-543 785.82,-543 785.82,-507 880.57,-507 880.57,-543"/>
<text text-anchor="middle" x="833.19" y="-519.95" font-family="Times,serif" font-size="14.00">OriginCitation</text>
</a>
</g>
</g>
</g>
</svg>
