<?xml version="1.0" encoding="UTF-8" standalone="no"?>
<!DOCTYPE svg PUBLIC "-//W3C//DTD SVG 1.1//EN"
 "http://www.w3.org/Graphics/SVG/1.1/DTD/svg11.dtd">
<!-- Generated by graphviz version 12.2.1 (20241206.2353)
 -->
<!-- Title: BiologicalAssociation Pages: 1 -->
<svg width="1189pt" height="873pt"
 viewBox="0.00 0.00 1189.34 873.00" xmlns="http://www.w3.org/2000/svg" xmlns:xlink="http://www.w3.org/1999/xlink">
<g id="graph0" class="graph" transform="scale(1 1) rotate(0) translate(4 869)">
<title>BiologicalAssociation</title>
<polygon fill="white" stroke="none" points="-4,4 -4,-869 1185.34,-869 1185.34,4 -4,4"/>
<!-- Citation&#45;&gt;Source -->
<g id="edge19" class="edge">
<title>Citation&#45;&gt;Source</title>
<path fill="none" stroke="black" stroke-dasharray="1,5" d="M102.54,-754C198.43,-754 440.59,-754 534.08,-754"/>
<polygon fill="black" stroke="black" points="533.98,-757.5 543.98,-754 533.98,-750.5 533.98,-757.5"/>
</g>
<!-- Citation&#45;&gt;CitationTopic -->
<g id="edge3" class="edge">
<title>Citation&#45;&gt;CitationTopic</title>
<path fill="none" stroke="black" stroke-dasharray="1,5" d="M90.4,-766.93C122.04,-781.64 174.3,-805.94 212.98,-823.92"/>
<polygon fill="black" stroke="black" points="211.08,-826.89 221.62,-827.94 214.03,-820.55 211.08,-826.89"/>
</g>
<!-- Confidence&#45;&gt;ConfidenceLevel -->
<g id="edge5" class="edge">
<title>Confidence&#45;&gt;ConfidenceLevel</title>
<path fill="none" stroke="black" stroke-dasharray="1,5" d="M115.41,-594C140.52,-594 170.77,-594 197.31,-594"/>
<polygon fill="black" stroke="black" points="197.3,-597.5 207.3,-594 197.3,-590.5 197.3,-597.5"/>
</g>
<!-- Depiction&#45;&gt;Image -->
<g id="edge10" class="edge">
<title>Depiction&#45;&gt;Image</title>
<path fill="none" stroke="black" stroke-dasharray="1,5" d="M109.24,-378C144.4,-378 192.02,-378 224.82,-378"/>
<polygon fill="black" stroke="black" points="224.67,-381.5 234.67,-378 224.67,-374.5 224.67,-381.5"/>
</g>
<!-- Tag&#45;&gt;Keyword -->
<g id="edge13" class="edge">
<title>Tag&#45;&gt;Keyword</title>
<path fill="none" stroke="black" stroke-dasharray="1,5" d="M88.74,-324C121.73,-324 178.95,-324 218.7,-324"/>
<polygon fill="black" stroke="black" points="218.66,-327.5 228.66,-324 218.66,-320.5 218.66,-327.5"/>
</g>
<!-- BiologicalAssociation&#45;&gt;Citation -->
<g id="edge4" class="edge">
<title>BiologicalAssociation&#45;&gt;Citation</title>
<path fill="none" stroke="black" d="M237.04,-483.18C214.65,-503.46 182.2,-535.09 159.18,-567 121.62,-619.05 90.13,-687.72 74.06,-725.69"/>
<polygon fill="black" stroke="black" points="70.96,-724.02 70.34,-734.59 77.42,-726.71 70.96,-724.02"/>
</g>
<!-- BiologicalAssociation&#45;&gt;Confidence -->
<g id="edge6" class="edge">
<title>BiologicalAssociation&#45;&gt;Confidence</title>
<path fill="none" stroke="black" d="M236.93,-483.44C209.88,-506.34 165.44,-541.98 123.18,-567 118.22,-569.93 112.9,-572.75 107.53,-575.38"/>
<polygon fill="black" stroke="black" points="106.19,-572.15 98.62,-579.56 109.16,-578.48 106.19,-572.15"/>
</g>
<!-- BiologicalAssociation&#45;&gt;DataAttribute -->
<g id="edge7" class="edge">
<title>BiologicalAssociation&#45;&gt;DataAttribute</title>
<path fill="none" stroke="black" d="M164.75,-473.23C153.06,-474.69 141.33,-476.16 130.2,-477.55"/>
<polygon fill="black" stroke="black" points="129.83,-474.07 120.34,-478.78 130.7,-481.01 129.83,-474.07"/>
</g>
<!-- BiologicalAssociation&#45;&gt;Depiction -->
<g id="edge8" class="edge">
<title>BiologicalAssociation&#45;&gt;Depiction</title>
<path fill="none" stroke="black" d="M212.76,-440.31C179.57,-426.54 136.43,-408.64 104.91,-395.56"/>
<polygon fill="black" stroke="black" points="106.26,-392.33 95.68,-391.73 103.58,-398.8 106.26,-392.33"/>
</g>
<!-- BiologicalAssociation&#45;&gt;Identifier -->
<g id="edge9" class="edge">
<title>BiologicalAssociation&#45;&gt;Identifier</title>
<path fill="none" stroke="black" d="M170.9,-447.7C152.04,-444.97 132.79,-442.18 115.85,-439.72"/>
<polygon fill="black" stroke="black" points="116.42,-436.27 106.02,-438.3 115.42,-443.2 116.42,-436.27"/>
</g>
<!-- BiologicalAssociation&#45;&gt;Tag -->
<g id="edge24" class="edge">
<title>BiologicalAssociation&#45;&gt;Tag</title>
<path fill="none" stroke="black" d="M212.86,-440.22C194.69,-431.12 174.79,-419.24 159.18,-405 137.86,-385.56 145.22,-369.6 123.18,-351 115.58,-344.59 106.23,-339.44 97.17,-335.42"/>
<polygon fill="black" stroke="black" points="98.76,-332.29 88.18,-331.79 96.14,-338.78 98.76,-332.29"/>
</g>
<!-- BiologicalAssociation&#45;&gt;Note -->
<g id="edge14" class="edge">
<title>BiologicalAssociation&#45;&gt;Note</title>
<path fill="none" stroke="black" d="M210.73,-481.5C174.95,-495.62 128.4,-514.01 97.11,-526.37"/>
<polygon fill="black" stroke="black" points="96.14,-522.99 88.13,-529.91 98.71,-529.5 96.14,-522.99"/>
</g>
<!-- BiologicalAssociation&#45;&gt;Source -->
<g id="edge36" class="edge">
<title>BiologicalAssociation&#45;&gt;Source</title>
<path fill="none" stroke="black" stroke-dasharray="1,5" d="M301.87,-489.96C324.35,-509.4 351.71,-536.89 368.08,-567 402.69,-630.66 351.41,-676.25 404.08,-726 439.08,-759.05 497.56,-761.35 535.37,-758.67"/>
<polygon fill="none" stroke="black" points="291.95,-486.81 297.12,-480.7 303.22,-485.87 298.06,-491.98 291.95,-486.81"/>
<polyline fill="none" stroke="black" points="300.64,-488.92 302.17,-490.21"/>
<polygon fill="none" stroke="black" points="544.61,-753.86 545.3,-761.83 537.33,-762.51 536.64,-754.54 544.61,-753.86"/>
<polyline fill="none" stroke="black" points="536.98,-758.53 534.99,-758.7"/>
</g>
<!-- BiologicalAssociation&#45;&gt;BiologicalAssociationsBiologicalAssociationsGraph -->
<g id="edge1" class="edge">
<title>BiologicalAssociation&#45;&gt;BiologicalAssociationsBiologicalAssociationsGraph</title>
<path fill="none" stroke="black" d="M368.17,-461C382.04,-461 396.53,-461 411.1,-461"/>
<polygon fill="black" stroke="black" points="410.74,-464.5 420.74,-461 410.74,-457.5 410.74,-464.5"/>
</g>
<!-- BiologicalAssociation&#45;&gt;ImportAttribute -->
<g id="edge11" class="edge">
<title>BiologicalAssociation&#45;&gt;ImportAttribute</title>
<path fill="none" stroke="black" d="M315.73,-440.39C333.74,-431.41 353.19,-419.56 368.08,-405 391.15,-382.46 377.57,-360.36 404.08,-342 434.78,-320.74 476.15,-313.91 510.1,-312.43"/>
<polygon fill="black" stroke="black" points="509.9,-315.94 519.8,-312.17 509.7,-308.94 509.9,-315.94"/>
</g>
<!-- BiologicalAssociation&#45;&gt;InternalAttribute -->
<g id="edge12" class="edge">
<title>BiologicalAssociation&#45;&gt;InternalAttribute</title>
<path fill="none" stroke="black" d="M319.71,-441.03C337.26,-432.31 355.4,-420.48 368.08,-405 402.57,-362.92 363.04,-323.71 404.08,-288 432.16,-263.58 473.3,-256.67 507.8,-255.95"/>
<polygon fill="black" stroke="black" points="507.71,-259.45 517.7,-255.93 507.7,-252.45 507.71,-259.45"/>
</g>
<!-- BiologicalAssociation&#45;&gt;BiologicalRelationship -->
<g id="edge31" class="edge">
<title>BiologicalAssociation&#45;&gt;BiologicalRelationship</title>
<path fill="none" stroke="black" stroke-dasharray="5,2" d="M332.86,-436.25C346.52,-428.29 359.34,-418.03 368.08,-405 409.57,-343.2 352.84,-125.98 404.08,-72 428.84,-45.92 468.07,-38.56 502.36,-38.01"/>
<polygon fill="black" stroke="black" points="331.3,-433.12 324.15,-440.94 334.61,-439.29 331.3,-433.12"/>
</g>
<!-- BiologicalAssociation&#45;&gt;PinboardItem -->
<g id="edge17" class="edge">
<title>BiologicalAssociation&#45;&gt;PinboardItem</title>
<path fill="none" stroke="black" d="M322.06,-441.46C339.36,-432.87 356.75,-421 368.08,-405 426.65,-322.38 332.51,-251.65 404.08,-180 432.88,-151.18 479.43,-145.61 516.19,-146.58"/>
<polygon fill="black" stroke="black" points="515.59,-150.06 525.73,-147.01 515.9,-143.07 515.59,-150.06"/>
</g>
<!-- BiologicalAssociation&#45;&gt;Role -->
<g id="edge18" class="edge">
<title>BiologicalAssociation&#45;&gt;Role</title>
<path fill="none" stroke="black" d="M321.07,-441.4C338.51,-432.76 356.24,-420.88 368.08,-405 414.53,-342.75 347.87,-287.59 404.08,-234 438.6,-201.1 496.43,-199 534.32,-201.91"/>
<polygon fill="black" stroke="black" points="533.61,-205.36 543.89,-202.8 534.26,-198.39 533.61,-205.36"/>
</g>
<!-- BiologicalAssociation&#45;&gt;SubsequentCitation -->
<g id="edge22" class="edge">
<title>BiologicalAssociation&#45;&gt;SubsequentCitation</title>
<path fill="none" stroke="black" d="M294.65,-483.17C318.54,-502.53 350.75,-532.83 368.08,-567 411.93,-653.4 330.13,-719.4 404.08,-782 463.36,-832.18 691.93,-806.09 809.69,-788.59"/>
<polygon fill="black" stroke="black" points="809.86,-792.11 819.23,-787.16 808.82,-785.19 809.86,-792.11"/>
</g>
<!-- BiologicalAssociation&#45;&gt;Uri -->
<g id="edge26" class="edge">
<title>BiologicalAssociation&#45;&gt;Uri</title>
<path fill="none" stroke="black" d="M292.29,-483.18C315.39,-503 347.73,-533.93 368.08,-567 393.94,-609.01 366.36,-640.21 404.08,-672 440.19,-702.42 496.73,-705.34 534.01,-703.27"/>
<polygon fill="black" stroke="black" points="534.15,-706.77 543.87,-702.56 533.65,-699.79 534.15,-706.77"/>
</g>
<!-- BiologicalAssociation&#45;&gt;Uuid -->
<g id="edge27" class="edge">
<title>BiologicalAssociation&#45;&gt;Uuid</title>
<path fill="none" stroke="black" d="M287.98,-483.47C309.45,-504.47 341.84,-537 368.08,-567 385.18,-586.54 381.92,-599.48 404.08,-613 443.85,-637.26 498,-643.79 533.87,-645.22"/>
<polygon fill="black" stroke="black" points="533.68,-648.71 543.77,-645.48 533.87,-641.72 533.68,-648.71"/>
</g>
<!-- BiologicalAssociation&#45;&gt;VerifierRole -->
<g id="edge28" class="edge">
<title>BiologicalAssociation&#45;&gt;VerifierRole</title>
<path fill="none" stroke="black" d="M322.35,-441.66C339.67,-433.08 356.99,-421.17 368.08,-405 438.83,-301.92 317.07,-215.78 404.08,-126 433.46,-95.69 482.41,-90.84 519.86,-92.45"/>
<polygon fill="black" stroke="black" points="519.37,-95.93 529.56,-93.04 519.8,-88.94 519.37,-95.93"/>
</g>
<!-- BiologicalAssociation&#45;&gt;Creator -->
<g id="edge32" class="edge">
<title>BiologicalAssociation&#45;&gt;Creator</title>
<path fill="none" stroke="black" stroke-dasharray="5,2" d="M301.79,-489.91C328.57,-508.84 366.48,-531.87 404.08,-542 569.74,-586.62 779.13,-541.43 853.22,-522.49"/>
<polygon fill="black" stroke="black" points="304.18,-487.32 294.02,-484.3 300.08,-492.99 304.18,-487.32"/>
</g>
<!-- BiologicalAssociation&#45;&gt;Project -->
<g id="edge33" class="edge">
<title>BiologicalAssociation&#45;&gt;Project</title>
<path fill="none" stroke="black" stroke-dasharray="5,2" d="M354.71,-478.87C371.12,-482.01 388.1,-485.17 404.08,-488 453.86,-496.83 512.18,-505.94 545.25,-511"/>
<polygon fill="black" stroke="black" points="355.43,-475.45 344.95,-477 354.11,-482.32 355.43,-475.45"/>
</g>
<!-- BiologicalAssociation&#45;&gt;Updater -->
<g id="edge34" class="edge">
<title>BiologicalAssociation&#45;&gt;Updater</title>
<path fill="none" stroke="black" stroke-dasharray="5,2" d="M343.89,-440.94C479.26,-410.4 762.13,-362.85 986.09,-434 1024.64,-446.25 1061.39,-476.67 1082.47,-496.55"/>
<polygon fill="black" stroke="black" points="343.26,-437.49 334.3,-443.14 344.83,-444.32 343.26,-437.49"/>
</g>
<!-- BiologicalAssociation&#45;&gt;OriginCitation -->
<g id="edge35" class="edge">
<title>BiologicalAssociation&#45;&gt;OriginCitation</title>
<path fill="none" stroke="black" d="M293.96,-490.04C320.44,-514.44 361.64,-548.1 404.08,-566 543.82,-624.95 593.54,-584 741.34,-618 769.01,-624.37 799.17,-633.4 824.34,-641.55"/>
<polygon fill="none" stroke="black" points="284.2,-486.38 289.67,-480.54 295.5,-486.01 290.04,-491.85 284.2,-486.38"/>
<polyline fill="none" stroke="black" points="292.77,-488.93 294.23,-490.29"/>
<polygon fill="none" stroke="black" points="834.85,-640.78 832.37,-648.39 824.76,-645.9 827.25,-638.29 834.85,-640.78"/>
<polyline fill="none" stroke="black" points="826.01,-642.1 824.11,-641.47"/>
</g>
<!-- BiologicalAssociation&#45;&gt;Objects with Biological associations -->
<g id="edge30" class="edge">
<title>BiologicalAssociation&#45;&gt;Objects with Biological associations</title>
<path fill="none" stroke="black" stroke-dasharray="5,2" d="M318.77,-434.44C344.18,-422.83 375.18,-409.86 404.08,-401 426.04,-394.27 450.06,-388.68 472.89,-384.16"/>
<polygon fill="black" stroke="black" points="317.58,-431.13 309.98,-438.51 320.52,-437.48 317.58,-431.13"/>
</g>
<!-- Source&#45;&gt;SubsequentCitation -->
<!-- Source&#45;&gt;OriginCitation -->
<!-- BiologicalAssociationsBiologicalAssociationsGraph&#45;&gt;BiologicalAssociationsGraph -->
<g id="edge2" class="edge">
<title>BiologicalAssociationsBiologicalAssociationsGraph&#45;&gt;BiologicalAssociationsGraph</title>
<path fill="none" stroke="black" stroke-dasharray="1,5" d="M723.17,-461C743.34,-461 763.61,-461 782.57,-461"/>
<polygon fill="black" stroke="black" points="782.37,-464.5 792.37,-461 782.37,-457.5 782.37,-464.5"/>
</g>
<!-- CitationTopic&#45;&gt;Topic -->
<g id="edge25" class="edge">
<title>CitationTopic&#45;&gt;Topic</title>
<path fill="none" stroke="black" stroke-dasharray="1,5" d="M309.61,-847C370.27,-847 477.2,-847 533.92,-847"/>
<polygon fill="black" stroke="black" points="533.71,-850.5 543.71,-847 533.71,-843.5 533.71,-850.5"/>
</g>
<!-- ObjectBiologicalRelationshipType&#45;&gt;ObjectBiologicalProperty -->
<g id="edge15" class="edge">
<title>ObjectBiologicalRelationshipType&#45;&gt;ObjectBiologicalProperty</title>
<path fill="none" stroke="black" stroke-dasharray="1,5" d="M984.06,-72C993.62,-72 1003.27,-72 1012.69,-72"/>
<polygon fill="black" stroke="black" points="1012.55,-75.5 1022.55,-72 1012.55,-68.5 1012.55,-75.5"/>
</g>
<!-- BiologicalRelationship&#45;&gt;ObjectBiologicalRelationshipType -->
<g id="edge16" class="edge">
<title>BiologicalRelationship&#45;&gt;ObjectBiologicalRelationshipType</title>
<path fill="none" stroke="black" stroke-dasharray="1,5" d="M643.38,-51.13C680.16,-54.36 726.21,-58.41 767.94,-62.08"/>
<polygon fill="black" stroke="black" points="767.52,-65.56 777.79,-62.95 768.13,-58.59 767.52,-65.56"/>
</g>
<!-- BiologicalRelationship&#45;&gt;SubjectBiologicalRelationshipType -->
<g id="edge21" class="edge">
<title>BiologicalRelationship&#45;&gt;SubjectBiologicalRelationshipType</title>
<path fill="none" stroke="black" stroke-dasharray="1,5" d="M643.38,-38.87C679.44,-35.7 724.4,-31.75 765.47,-28.14"/>
<polygon fill="black" stroke="black" points="765.77,-31.62 775.43,-27.26 765.16,-24.65 765.77,-31.62"/>
</g>
<!-- Role&#45;&gt;Verifier -->
<!-- SubjectBiologicalRelationshipType&#45;&gt;SubjectBiologicalProperty -->
<g id="edge20" class="edge">
<title>SubjectBiologicalRelationshipType&#45;&gt;SubjectBiologicalProperty</title>
<path fill="none" stroke="black" stroke-dasharray="1,5" d="M986.29,-18C994.43,-18 1002.61,-18 1010.64,-18"/>
<polygon fill="black" stroke="black" points="1010.38,-21.5 1020.38,-18 1010.38,-14.5 1010.38,-21.5"/>
</g>
<!-- SubsequentCitation&#45;&gt;SubsequentSource -->
<g id="edge23" class="edge">
<title>SubsequentCitation&#45;&gt;SubsequentSource</title>
<path fill="none" stroke="black" stroke-dasharray="1,5" d="M942.86,-777C970.56,-777 1003.58,-777 1032.23,-777"/>
<polygon fill="black" stroke="black" points="1031.88,-780.5 1041.88,-777 1031.88,-773.5 1031.88,-780.5"/>
</g>
<!-- VerifierRole&#45;&gt;Verifier -->
<g id="edge29" class="edge">
<title>VerifierRole&#45;&gt;Verifier</title>
<path fill="none" stroke="black" stroke-dasharray="1,5" d="M614.29,-104.07C648.41,-108.69 698.36,-116.26 741.34,-126 775.71,-133.79 814.09,-145.29 841.86,-154.13"/>
<polygon fill="black" stroke="black" points="840.66,-157.43 851.25,-157.16 842.81,-150.76 840.66,-157.43"/>
</g>
<!-- Creator&#45;&gt;Updater -->
<!-- Project&#45;&gt;Creator -->
<!-- Citation -->
<g id="node1" class="node">
<title>Citation</title>
<g id="a_node1"><a xlink:href="/develop/Data/models.html#citation" xlink:title="Citation" target="_top">
<ellipse fill="#abcdef" stroke="#dddeee" cx="61.59" cy="-754" rx="40.6" ry="18"/>
<text text-anchor="middle" x="61.59" y="-748.95" font-family="Times,serif" font-size="14.00">Citation</text>
</a>
</g>
</g>
<!-- Confidence -->
<g id="node2" class="node">
<title>Confidence</title>
<g id="a_node2"><a xlink:href="/develop/Data/models.html#confidence" xlink:title="Confidence" target="_top">
<ellipse fill="#abcdef" stroke="#dddeee" cx="61.59" cy="-594" rx="53.4" ry="18"/>
<text text-anchor="middle" x="61.59" y="-588.95" font-family="Times,serif" font-size="14.00">Confidence</text>
</a>
</g>
</g>
<!-- DataAttribute -->
<g id="node3" class="node">
<title>DataAttribute</title>
<g id="a_node3"><a xlink:href="/develop/Data/models.html#data-attribute" xlink:title="DataAttribute" target="_top">
<ellipse fill="#abcdef" stroke="#dddeee" cx="61.59" cy="-486" rx="61.59" ry="18"/>
<text text-anchor="middle" x="61.59" y="-480.95" font-family="Times,serif" font-size="14.00">DataAttribute</text>
</a>
</g>
</g>
<!-- Depiction -->
<g id="node4" class="node">
<title>Depiction</title>
<g id="a_node4"><a xlink:href="/develop/Data/models.html#depiction" xlink:title="Depiction" target="_top">
<ellipse fill="#abcdef" stroke="#dddeee" cx="61.59" cy="-378" rx="47.26" ry="18"/>
<text text-anchor="middle" x="61.59" y="-372.95" font-family="Times,serif" font-size="14.00">Depiction</text>
</a>
</g>
</g>
<!-- Identifier -->
<g id="node5" class="node">
<title>Identifier</title>
<g id="a_node5"><a xlink:href="/develop/Data/models.html#identifier" xlink:title="Identifier" target="_top">
<ellipse fill="#abcdef" stroke="#dddeee" cx="61.59" cy="-432" rx="45.21" ry="18"/>
<text text-anchor="middle" x="61.59" y="-426.95" font-family="Times,serif" font-size="14.00">Identifier</text>
</a>
</g>
</g>
<!-- Tag -->
<g id="node6" class="node">
<title>Tag</title>
<g id="a_node6"><a xlink:href="/develop/Data/models.html#tag" xlink:title="Tag" target="_top">
<ellipse fill="#abcdef" stroke="#dddeee" cx="61.59" cy="-324" rx="27" ry="18"/>
<text text-anchor="middle" x="61.59" y="-318.95" font-family="Times,serif" font-size="14.00">Tag</text>
</a>
</g>
</g>
<!-- Note -->
<g id="node7" class="node">
<title>Note</title>
<g id="a_node7"><a xlink:href="/develop/Data/models.html#note" xlink:title="Note" target="_top">
<ellipse fill="#abcdef" stroke="#dddeee" cx="61.59" cy="-540" rx="28.83" ry="18"/>
<text text-anchor="middle" x="61.59" y="-534.95" font-family="Times,serif" font-size="14.00">Note</text>
</a>
</g>
</g>
<!-- BiologicalAssociation -->
<g id="node8" class="node">
<title>BiologicalAssociation</title>
<g id="a_node8"><a xlink:href="/develop/Data/models.html#biological-association" xlink:title="BiologicalAssociation" target="_top">
<polygon fill="#cdefab" stroke="#dedede" points="364.08,-453.54 364.08,-468.46 305.24,-479 222.02,-479 163.18,-468.46 163.18,-453.54 222.02,-443 305.24,-443 364.08,-453.54"/>
<polygon fill="none" stroke="#dedede" points="368.08,-450.2 368.08,-471.8 305.59,-483 221.66,-483 159.18,-471.8 159.18,-450.2 221.66,-439 305.59,-439 368.08,-450.2"/>
<text text-anchor="middle" x="263.63" y="-455.95" font-family="Times,serif" font-size="14.00">BiologicalAssociation</text>
</a>
</g>
</g>
<!-- Source -->
<g id="node9" class="node">
<title>Source</title>
<g id="a_node9"><a xlink:href="/develop/Data/models.html#source" xlink:title="Source" target="_top">
<path fill="#fedcba" stroke="#dddeee" d="M557.71,-736C557.71,-736 587.71,-736 587.71,-736 593.71,-736 599.71,-742 599.71,-748 599.71,-748 599.71,-760 599.71,-760 599.71,-766 593.71,-772 587.71,-772 587.71,-772 557.71,-772 557.71,-772 551.71,-772 545.71,-766 545.71,-760 545.71,-760 545.71,-748 545.71,-748 545.71,-742 551.71,-736 557.71,-736"/>
<text text-anchor="middle" x="572.71" y="-749.2" font-family="Times,serif" font-size="14.00">Source</text>
</a>
</g>
</g>
<!-- BiologicalAssociationsBiologicalAssociationsGraph -->
<g id="node10" class="node">
<title>BiologicalAssociationsBiologicalAssociationsGraph</title>
<g id="a_node10"><a xlink:href="/develop/Data/models.html#biological-associations-biological-associations-graph" xlink:title="BiologicalAssociationsBiologicalAssociationsGraph" target="_top">
<polygon fill="#eeefff" stroke="#dddeee" points="722.84,-479 422.59,-479 422.59,-443 722.84,-443 722.84,-479"/>
<text text-anchor="middle" x="572.71" y="-455.95" font-family="Times,serif" font-size="14.00">BiologicalAssociationsBiologicalAssociationsGraph</text>
</a>
</g>
</g>
<!-- BiologicalAssociationsGraph -->
<g id="node11" class="node">
<title>BiologicalAssociationsGraph</title>
<g id="a_node11"><a xlink:href="/develop/Data/models.html#biological-associations-graph" xlink:title="BiologicalAssociationsGraph" target="_top">
<polygon fill="#eeefff" stroke="#dddeee" points="969.21,-479 794.21,-479 794.21,-443 969.21,-443 969.21,-479"/>
<text text-anchor="middle" x="881.71" y="-455.95" font-family="Times,serif" font-size="14.00">BiologicalAssociationsGraph</text>
</a>
</g>
</g>
<!-- CitationTopic -->
<g id="node12" class="node">
<title>CitationTopic</title>
<g id="a_node12"><a xlink:href="/develop/Data/models.html#citation-topic" xlink:title="CitationTopic" target="_top">
<polygon fill="#eeefff" stroke="#dddeee" points="309.13,-865 218.13,-865 218.13,-829 309.13,-829 309.13,-865"/>
<text text-anchor="middle" x="263.63" y="-841.95" font-family="Times,serif" font-size="14.00">CitationTopic</text>
</a>
</g>
</g>
<!-- ConfidenceLevel -->
<g id="node13" class="node">
<title>ConfidenceLevel</title>
<g id="a_node13"><a xlink:href="/develop/Data/models.html#confidence-level" xlink:title="ConfidenceLevel" target="_top">
<polygon fill="#eeefff" stroke="#dddeee" points="318.13,-612 209.13,-612 209.13,-576 318.13,-576 318.13,-612"/>
<text text-anchor="middle" x="263.63" y="-588.95" font-family="Times,serif" font-size="14.00">ConfidenceLevel</text>
</a>
</g>
</g>
<!-- Image -->
<g id="node14" class="node">
<title>Image</title>
<g id="a_node14"><a xlink:href="/develop/Data/models.html#image" xlink:title="Image" target="_top">
<polygon fill="#eeefff" stroke="#dddeee" points="290.63,-396 236.63,-396 236.63,-360 290.63,-360 290.63,-396"/>
<text text-anchor="middle" x="263.63" y="-372.95" font-family="Times,serif" font-size="14.00">Image</text>
</a>
</g>
</g>
<!-- ImportAttribute -->
<g id="node15" class="node">
<title>ImportAttribute</title>
<g id="a_node15"><a xlink:href="/develop/Data/models.html#import-attribute" xlink:title="ImportAttribute" target="_top">
<polygon fill="#eeefff" stroke="#dddeee" points="623.84,-333 521.59,-333 521.59,-297 623.84,-297 623.84,-333"/>
<text text-anchor="middle" x="572.71" y="-309.95" font-family="Times,serif" font-size="14.00">ImportAttribute</text>
</a>
</g>
</g>
<!-- InternalAttribute -->
<g id="node16" class="node">
<title>InternalAttribute</title>
<g id="a_node16"><a xlink:href="/develop/Data/models.html#internal-attribute" xlink:title="InternalAttribute" target="_top">
<polygon fill="#eeefff" stroke="#dddeee" points="626.09,-279 519.34,-279 519.34,-243 626.09,-243 626.09,-279"/>
<text text-anchor="middle" x="572.71" y="-255.95" font-family="Times,serif" font-size="14.00">InternalAttribute</text>
</a>
</g>
</g>
<!-- Keyword -->
<g id="node17" class="node">
<title>Keyword</title>
<g id="a_node17"><a xlink:href="/develop/Data/models.html#keyword" xlink:title="Keyword" target="_top">
<polygon fill="#eeefff" stroke="#dddeee" points="296.75,-342 230.5,-342 230.5,-306 296.75,-306 296.75,-342"/>
<text text-anchor="middle" x="263.63" y="-318.95" font-family="Times,serif" font-size="14.00">Keyword</text>
</a>
</g>
</g>
<!-- ObjectBiologicalRelationshipType -->
<g id="node18" class="node">
<title>ObjectBiologicalRelationshipType</title>
<g id="a_node18"><a xlink:href="/develop/Data/models.html#object-biological-relationship-type" xlink:title="ObjectBiologicalRelationshipType" target="_top">
<polygon fill="#eeefff" stroke="#dddeee" points="983.84,-90 779.59,-90 779.59,-54 983.84,-54 983.84,-90"/>
<text text-anchor="middle" x="881.71" y="-66.95" font-family="Times,serif" font-size="14.00">ObjectBiologicalRelationshipType</text>
</a>
</g>
</g>
<!-- ObjectBiologicalProperty -->
<g id="node19" class="node">
<title>ObjectBiologicalProperty</title>
<g id="a_node19"><a xlink:href="/develop/Data/models.html#object-biological-property" xlink:title="ObjectBiologicalProperty" target="_top">
<polygon fill="#eeefff" stroke="#dddeee" points="1179.09,-90 1024.34,-90 1024.34,-54 1179.09,-54 1179.09,-90"/>
<text text-anchor="middle" x="1101.71" y="-66.95" font-family="Times,serif" font-size="14.00">ObjectBiologicalProperty</text>
</a>
</g>
</g>
<!-- BiologicalRelationship -->
<g id="node20" class="node">
<title>BiologicalRelationship</title>
<g id="a_node20"><a xlink:href="/develop/Data/models.html#biological-relationship" xlink:title="BiologicalRelationship" target="_top">
<polygon fill="#eeefff" stroke="#dddeee" points="642.96,-63 502.46,-63 502.46,-27 642.96,-27 642.96,-63"/>
<text text-anchor="middle" x="572.71" y="-39.95" font-family="Times,serif" font-size="14.00">BiologicalRelationship</text>
</a>
</g>
</g>
<!-- PinboardItem -->
<g id="node21" class="node">
<title>PinboardItem</title>
<g id="a_node21"><a xlink:href="/develop/Data/models.html#pinboard-item" xlink:title="PinboardItem" target="_top">
<polygon fill="#eeefff" stroke="#dddeee" points="617.84,-171 527.59,-171 527.59,-135 617.84,-135 617.84,-171"/>
<text text-anchor="middle" x="572.71" y="-147.95" font-family="Times,serif" font-size="14.00">PinboardItem</text>
</a>
</g>
</g>
<!-- Role -->
<g id="node22" class="node">
<title>Role</title>
<g id="a_node22"><a xlink:href="/develop/Data/models.html#role" xlink:title="Role" target="_top">
<polygon fill="#eeefff" stroke="#dddeee" points="599.71,-225 545.71,-225 545.71,-189 599.71,-189 599.71,-225"/>
<text text-anchor="middle" x="572.71" y="-201.95" font-family="Times,serif" font-size="14.00">Role</text>
</a>
</g>
</g>
<!-- SubjectBiologicalRelationshipType -->
<g id="node23" class="node">
<title>SubjectBiologicalRelationshipType</title>
<g id="a_node23"><a xlink:href="/develop/Data/models.html#subject-biological-relationship-type" xlink:title="SubjectBiologicalRelationshipType" target="_top">
<polygon fill="#eeefff" stroke="#dddeee" points="986.09,-36 777.34,-36 777.34,0 986.09,0 986.09,-36"/>
<text text-anchor="middle" x="881.71" y="-12.95" font-family="Times,serif" font-size="14.00">SubjectBiologicalRelationshipType</text>
</a>
</g>
</g>
<!-- SubjectBiologicalProperty -->
<g id="node24" class="node">
<title>SubjectBiologicalProperty</title>
<g id="a_node24"><a xlink:href="/develop/Data/models.html#subject-biological-property" xlink:title="SubjectBiologicalProperty" target="_top">
<polygon fill="#eeefff" stroke="#dddeee" points="1181.34,-36 1022.09,-36 1022.09,0 1181.34,0 1181.34,-36"/>
<text text-anchor="middle" x="1101.71" y="-12.95" font-family="Times,serif" font-size="14.00">SubjectBiologicalProperty</text>
</a>
</g>
</g>
<!-- SubsequentCitation -->
<g id="node25" class="node">
<title>SubsequentCitation</title>
<g id="a_node25"><a xlink:href="/develop/Data/models.html#subsequent-citation" xlink:title="SubsequentCitation" target="_top">
<polygon fill="#eeefff" stroke="#dddeee" points="942.59,-795 820.84,-795 820.84,-759 942.59,-759 942.59,-795"/>
<text text-anchor="middle" x="881.71" y="-771.95" font-family="Times,serif" font-size="14.00">SubsequentCitation</text>
</a>
</g>
</g>
<!-- SubsequentSource -->
<g id="node26" class="node">
<title>SubsequentSource</title>
<g id="a_node26"><a xlink:href="/develop/Data/models.html#subsequent-source" xlink:title="SubsequentSource" target="_top">
<polygon fill="#eeefff" stroke="#dddeee" points="1159.59,-795 1043.84,-795 1043.84,-759 1159.59,-759 1159.59,-795"/>
<text text-anchor="middle" x="1101.71" y="-771.95" font-family="Times,serif" font-size="14.00">SubsequentSource</text>
</a>
</g>
</g>
<!-- Topic -->
<g id="node27" class="node">
<title>Topic</title>
<g id="a_node27"><a xlink:href="/develop/Data/models.html#topic" xlink:title="Topic" target="_top">
<polygon fill="#eeefff" stroke="#dddeee" points="599.71,-865 545.71,-865 545.71,-829 599.71,-829 599.71,-865"/>
<text text-anchor="middle" x="572.71" y="-841.95" font-family="Times,serif" font-size="14.00">Topic</text>
</a>
</g>
</g>
<!-- Uri -->
<g id="node28" class="node">
<title>Uri</title>
<g id="a_node28"><a xlink:href="/develop/Data/models.html#uri" xlink:title="Uri" target="_top">
<polygon fill="#eeefff" stroke="#dddeee" points="599.71,-717 545.71,-717 545.71,-681 599.71,-681 599.71,-717"/>
<text text-anchor="middle" x="572.71" y="-693.95" font-family="Times,serif" font-size="14.00">Uri</text>
</a>
</g>
</g>
<!-- Uuid -->
<g id="node29" class="node">
<title>Uuid</title>
<g id="a_node29"><a xlink:href="/develop/Data/models.html#uuid" xlink:title="Uuid" target="_top">
<polygon fill="#eeefff" stroke="#dddeee" points="599.71,-663 545.71,-663 545.71,-627 599.71,-627 599.71,-663"/>
<text text-anchor="middle" x="572.71" y="-639.95" font-family="Times,serif" font-size="14.00">Uuid</text>
</a>
</g>
</g>
<!-- VerifierRole -->
<g id="node30" class="node">
<title>VerifierRole</title>
<g id="a_node30"><a xlink:href="/develop/Data/models.html#verifier-role" xlink:title="VerifierRole" target="_top">
<polygon fill="#eeefff" stroke="#dddeee" points="614.09,-117 531.34,-117 531.34,-81 614.09,-81 614.09,-117"/>
<text text-anchor="middle" x="572.71" y="-93.95" font-family="Times,serif" font-size="14.00">VerifierRole</text>
</a>
</g>
</g>
<!-- Verifier -->
<g id="node31" class="node">
<title>Verifier</title>
<g id="a_node31"><a xlink:href="/develop/Data/models.html#verifier" xlink:title="Verifier" target="_top">
<polygon fill="#eeefff" stroke="#dddeee" points="910.34,-185 853.09,-185 853.09,-149 910.34,-149 910.34,-185"/>
<text text-anchor="middle" x="881.71" y="-161.95" font-family="Times,serif" font-size="14.00">Verifier</text>
</a>
</g>
</g>
<!-- Creator -->
<g id="node32" class="node">
<title>Creator</title>
<g id="a_node32"><a xlink:href="/develop/Data/models.html#creator" xlink:title="Creator" target="_top">
<polygon fill="#eeefff" stroke="#dddeee" points="909.96,-533 853.46,-533 853.46,-497 909.96,-497 909.96,-533"/>
<text text-anchor="middle" x="881.71" y="-509.95" font-family="Times,serif" font-size="14.00">Creator</text>
</a>
</g>
</g>
<!-- Project -->
<g id="node33" class="node">
<title>Project</title>
<g id="a_node33"><a xlink:href="/develop/Data/models.html#project" xlink:title="Project" target="_top">
<polygon fill="#eeefff" stroke="#dddeee" points="599.84,-533 545.59,-533 545.59,-497 599.84,-497 599.84,-533"/>
<text text-anchor="middle" x="572.71" y="-509.95" font-family="Times,serif" font-size="14.00">Project</text>
</a>
</g>
</g>
<!-- Updater -->
<g id="node34" class="node">
<title>Updater</title>
<g id="a_node34"><a xlink:href="/develop/Data/models.html#updater" xlink:title="Updater" target="_top">
<polygon fill="#eeefff" stroke="#dddeee" points="1131.46,-533 1071.96,-533 1071.96,-497 1131.46,-497 1131.46,-533"/>
<text text-anchor="middle" x="1101.71" y="-509.95" font-family="Times,serif" font-size="14.00">Updater</text>
</a>
</g>
</g>
<!-- OriginCitation -->
<g id="node35" class="node">
<title>OriginCitation</title>
<g id="a_node35"><a xlink:href="/develop/Data/models.html#origin-citation" xlink:title="OriginCitation" target="_top">
<polygon fill="#eeefff" stroke="#dddeee" points="929.09,-679 834.34,-679 834.34,-643 929.09,-643 929.09,-679"/>
<text text-anchor="middle" x="881.71" y="-655.95" font-family="Times,serif" font-size="14.00">OriginCitation</text>
</a>
</g>
</g>
<!-- Objects with Biological associations -->
<g id="node36" class="node">
<title>Objects with Biological associations</title>
<g id="a_node36"><a xlink:href="/develop/Data/models.html#objects with biological association" xlink:title="Objects with Biological associations" target="_top">
<polygon fill="#cdabef" stroke="#dedede" points="741.34,-369 657.03,-387 488.4,-387 404.08,-369 488.4,-351 657.03,-351 741.34,-369"/>
<text text-anchor="middle" x="572.71" y="-363.95" font-family="Times,serif" font-size="14.00">Objects with Biological associations</text>
</a>
</g>
</g>
</g>
</svg>
