<?xml version="1.0" encoding="UTF-8" standalone="no"?>
<!DOCTYPE svg PUBLIC "-//W3C//DTD SVG 1.1//EN"
 "http://www.w3.org/Graphics/SVG/1.1/DTD/svg11.dtd">
<!-- Generated by graphviz version 2.50.0 (20211204.2007)
 -->
<!-- Title: BiologicalAssociationsGraph Pages: 1 -->
<svg width="1040pt" height="522pt"
 viewBox="0.00 0.00 1039.62 521.50" xmlns="http://www.w3.org/2000/svg" xmlns:xlink="http://www.w3.org/1999/xlink">
<g id="graph0" class="graph" transform="scale(1 1) rotate(0) translate(4 517.5)">
<title>BiologicalAssociationsGraph</title>
<polygon fill="white" stroke="transparent" points="-4,4 -4,-517.5 1035.62,-517.5 1035.62,4 -4,4"/>
<!-- Citation&#45;&gt;Source -->
<g id="edge7" class="edge">
<title>Citation&#45;&gt;Source</title>
<path fill="none" stroke="black" stroke-dasharray="1,5" d="M67.09,-311.62C127.16,-339.32 276.44,-406.57 405.62,-452 443.85,-465.44 488.62,-477.9 519.13,-485.91"/>
<polygon fill="black" stroke="black" points="518.35,-489.32 528.91,-488.45 520.11,-482.54 518.35,-489.32"/>
</g>
<!-- Citation&#45;&gt;CitationTopic -->
<g id="edge3" class="edge">
<title>Citation&#45;&gt;CitationTopic</title>
<path fill="none" stroke="black" stroke-dasharray="1,5" d="M52.26,-281.85C86.12,-234.45 181.15,-101.48 221.88,-44.48"/>
<polygon fill="black" stroke="black" points="224.97,-46.18 227.94,-36.01 219.27,-42.11 224.97,-46.18"/>
</g>
<!-- Source&#45;&gt;SubsequentCitation -->
<!-- Source&#45;&gt;OriginCitation -->
<!-- BiologicalAssociationsGraph&#45;&gt;Citation -->
<g id="edge4" class="edge">
<title>BiologicalAssociationsGraph&#45;&gt;Citation</title>
<path fill="none" stroke="black" d="M114.06,-299C105.11,-299 96.46,-299 88.42,-299"/>
<polygon fill="black" stroke="black" points="88.24,-295.5 78.24,-299 88.24,-302.5 88.24,-295.5"/>
</g>
<!-- BiologicalAssociationsGraph&#45;&gt;Source -->
<g id="edge17" class="edge">
<title>BiologicalAssociationsGraph&#45;&gt;Source</title>
<path fill="none" stroke="black" stroke-dasharray="1,5" d="M274.61,-328.19C300.7,-352.47 338.31,-388.23 369.62,-421 386.38,-438.53 384.75,-449.66 405.62,-462 440.57,-482.65 487.03,-490.41 518.83,-493.31"/>
<polygon fill="none" stroke="black" points="264.52,-324.28 269.96,-318.42 275.82,-323.86 270.38,-329.72 264.52,-324.28"/>
<polyline fill="none" stroke="black" points="273.1,-326.79 274.57,-328.15 "/>
<polygon fill="none" stroke="black" points="529.33,-490.13 528.7,-498.1 520.72,-497.47 521.35,-489.49 529.33,-490.13"/>
<polyline fill="none" stroke="black" points="521.04,-493.48 519.04,-493.32 "/>
</g>
<!-- BiologicalAssociationsGraph&#45;&gt;BiologicalAssociationsBiologicalAssociationsGraph -->
<g id="edge2" class="edge">
<title>BiologicalAssociationsGraph&#45;&gt;BiologicalAssociationsBiologicalAssociationsGraph</title>
<path fill="none" stroke="black" d="M369.39,-288.06C377.96,-287.32 386.65,-286.56 395.35,-285.81"/>
<polygon fill="black" stroke="black" points="395.91,-289.28 405.57,-284.93 395.31,-282.3 395.91,-289.28"/>
</g>
<!-- BiologicalAssociationsGraph&#45;&gt;PinboardItem -->
<g id="edge5" class="edge">
<title>BiologicalAssociationsGraph&#45;&gt;PinboardItem</title>
<path fill="none" stroke="black" d="M253.84,-276.93C276.17,-234.76 331.01,-143.03 405.62,-99 434.07,-82.21 470.46,-75.39 500.22,-72.8"/>
<polygon fill="black" stroke="black" points="500.72,-76.27 510.44,-72.05 500.21,-69.29 500.72,-76.27"/>
</g>
<!-- BiologicalAssociationsGraph&#45;&gt;Role -->
<g id="edge6" class="edge">
<title>BiologicalAssociationsGraph&#45;&gt;Role</title>
<path fill="none" stroke="black" d="M277.37,-276.84C309.45,-257.18 359.12,-229.02 405.62,-212 443.08,-198.29 488.08,-189.65 518.86,-184.85"/>
<polygon fill="black" stroke="black" points="519.75,-188.26 529.12,-183.31 518.71,-181.33 519.75,-188.26"/>
</g>
<!-- BiologicalAssociationsGraph&#45;&gt;SubsequentCitation -->
<g id="edge8" class="edge">
<title>BiologicalAssociationsGraph&#45;&gt;SubsequentCitation</title>
<path fill="none" stroke="black" d="M280.57,-321.03C312.71,-338.68 360.69,-362.5 405.62,-375 519.81,-406.76 658.12,-415.36 739.85,-417.51"/>
<polygon fill="black" stroke="black" points="739.94,-421.02 750.02,-417.76 740.11,-414.02 739.94,-421.02"/>
</g>
<!-- BiologicalAssociationsGraph&#45;&gt;VerifierRole -->
<g id="edge11" class="edge">
<title>BiologicalAssociationsGraph&#45;&gt;VerifierRole</title>
<path fill="none" stroke="black" d="M260.42,-276.79C287.75,-244.01 343.72,-183.27 405.62,-153 436.35,-137.97 474.32,-131.24 504.31,-128.26"/>
<polygon fill="black" stroke="black" points="504.9,-131.72 514.55,-127.35 504.28,-124.75 504.9,-131.72"/>
</g>
<!-- BiologicalAssociationsGraph&#45;&gt;Creator -->
<g id="edge13" class="edge">
<title>BiologicalAssociationsGraph&#45;&gt;Creator</title>
<path fill="none" stroke="black" stroke-dasharray="5,2" d="M304.03,-324.47C334.07,-335.63 371.14,-347.43 405.62,-353 537.69,-374.33 573.93,-370.02 706.62,-353 732.78,-349.64 761.76,-341.7 782.39,-335.3"/>
<polygon fill="black" stroke="black" points="305.12,-321.14 294.53,-320.88 302.65,-327.69 305.12,-321.14"/>
</g>
<!-- BiologicalAssociationsGraph&#45;&gt;Project -->
<g id="edge14" class="edge">
<title>BiologicalAssociationsGraph&#45;&gt;Project</title>
<path fill="none" stroke="black" stroke-dasharray="5,2" d="M379.47,-310.81C435.65,-315.67 495.26,-320.82 528.58,-323.71"/>
<polygon fill="black" stroke="black" points="379.65,-307.32 369.39,-309.94 379.05,-314.29 379.65,-307.32"/>
</g>
<!-- BiologicalAssociationsGraph&#45;&gt;Updater -->
<g id="edge15" class="edge">
<title>BiologicalAssociationsGraph&#45;&gt;Updater</title>
<path fill="none" stroke="black" stroke-dasharray="5,2" d="M304.39,-273.49C334.37,-262.39 371.28,-250.65 405.62,-245 509.56,-227.9 781.2,-205.47 879.62,-243 913.59,-255.95 943.03,-287.65 959.25,-307.91"/>
<polygon fill="black" stroke="black" points="303.03,-270.26 294.91,-277.06 305.5,-276.81 303.03,-270.26"/>
</g>
<!-- BiologicalAssociationsGraph&#45;&gt;OriginCitation -->
<g id="edge16" class="edge">
<title>BiologicalAssociationsGraph&#45;&gt;OriginCitation</title>
<path fill="none" stroke="black" d="M276.22,-327.57C307.59,-352.87 356.87,-388.83 405.62,-409 413.67,-412.33 643.96,-455.81 753.4,-476.37"/>
<polygon fill="none" stroke="black" points="265.72,-324.16 270.78,-317.97 276.98,-323.03 271.92,-329.22 265.72,-324.16"/>
<polyline fill="none" stroke="black" points="274.45,-326.13 276,-327.39 "/>
<polygon fill="none" stroke="black" points="764.02,-474.29 762.54,-482.15 754.68,-480.68 756.16,-472.81 764.02,-474.29"/>
<polyline fill="none" stroke="black" points="755.42,-476.75 753.45,-476.38 "/>
</g>
<!-- BiologicalAssociationsBiologicalAssociationsGraph&#45;&gt;BiologicalAssociation -->
<g id="edge1" class="edge">
<title>BiologicalAssociationsBiologicalAssociationsGraph&#45;&gt;BiologicalAssociation</title>
<path fill="none" stroke="black" stroke-dasharray="1,5" d="M706.85,-271.41C715.56,-271.37 724.11,-271.34 732.33,-271.31"/>
<polygon fill="black" stroke="black" points="732.58,-274.81 742.56,-271.27 732.55,-267.81 732.58,-274.81"/>
</g>
<!-- CitationTopic&#45;&gt;Topic -->
<g id="edge10" class="edge">
<title>CitationTopic&#45;&gt;Topic</title>
<path fill="none" stroke="black" stroke-dasharray="1,5" d="M287.89,-18C350.23,-18 461.53,-18 518.83,-18"/>
<polygon fill="black" stroke="black" points="518.88,-21.5 528.88,-18 518.88,-14.5 518.88,-21.5"/>
</g>
<!-- Role&#45;&gt;Verifier -->
<!-- SubsequentCitation&#45;&gt;SubsequentSource -->
<g id="edge9" class="edge">
<title>SubsequentCitation&#45;&gt;SubsequentSource</title>
<path fill="none" stroke="black" stroke-dasharray="1,5" d="M872.34,-418C883.06,-418 894.29,-418 905.19,-418"/>
<polygon fill="black" stroke="black" points="905.52,-421.5 915.52,-418 905.52,-414.5 905.52,-421.5"/>
</g>
<!-- VerifierRole&#45;&gt;Verifier -->
<g id="edge12" class="edge">
<title>VerifierRole&#45;&gt;Verifier</title>
<path fill="none" stroke="black" stroke-dasharray="1,5" d="M597.77,-130.18C645.95,-135.13 725.59,-143.31 772.43,-148.13"/>
<polygon fill="black" stroke="black" points="772.16,-151.62 782.47,-149.16 772.88,-144.65 772.16,-151.62"/>
</g>
<!-- Creator&#45;&gt;Updater -->
<!-- Project&#45;&gt;Creator -->
<!-- Citation -->
<g id="node1" class="node">
<title>Citation</title>
<g id="a_node1"><a xlink:href="/develop/Data/models.html#citation" xlink:title="Citation" target="_top">
<ellipse fill="#abcdef" stroke="#dddeee" cx="39" cy="-299" rx="38.99" ry="18"/>
<text text-anchor="middle" x="39" y="-295.3" font-family="Times,serif" font-size="14.00">Citation</text>
</a>
</g>
</g>
<!-- BiologicalAssociation -->
<g id="node2" class="node">
<title>BiologicalAssociation</title>
<g id="a_node2"><a xlink:href="/develop/Data/models.html#biological-association" xlink:title="BiologicalAssociation" target="_top">
<path fill="#fedcba" stroke="#dddeee" d="M754.62,-253C754.62,-253 867.62,-253 867.62,-253 873.62,-253 879.62,-259 879.62,-265 879.62,-265 879.62,-277 879.62,-277 879.62,-283 873.62,-289 867.62,-289 867.62,-289 754.62,-289 754.62,-289 748.62,-289 742.62,-283 742.62,-277 742.62,-277 742.62,-265 742.62,-265 742.62,-259 748.62,-253 754.62,-253"/>
<text text-anchor="middle" x="811.12" y="-267.3" font-family="Times,serif" font-size="14.00">BiologicalAssociation</text>
</a>
</g>
</g>
<!-- Source -->
<g id="node3" class="node">
<title>Source</title>
<g id="a_node3"><a xlink:href="/develop/Data/models.html#source" xlink:title="Source" target="_top">
<path fill="#fedcba" stroke="#dddeee" d="M541.12,-477C541.12,-477 571.12,-477 571.12,-477 577.12,-477 583.12,-483 583.12,-489 583.12,-489 583.12,-501 583.12,-501 583.12,-507 577.12,-513 571.12,-513 571.12,-513 541.12,-513 541.12,-513 535.12,-513 529.12,-507 529.12,-501 529.12,-501 529.12,-489 529.12,-489 529.12,-483 535.12,-477 541.12,-477"/>
<text text-anchor="middle" x="556.12" y="-491.3" font-family="Times,serif" font-size="14.00">Source</text>
</a>
</g>
</g>
<!-- BiologicalAssociationsGraph -->
<g id="node4" class="node">
<title>BiologicalAssociationsGraph</title>
<g id="a_node4"><a xlink:href="/develop/Data/models.html#biological-associations-graph" xlink:title="BiologicalAssociationsGraph" target="_top">
<polygon fill="#cdefab" stroke="#dedede" points="365.44,-291.54 365.44,-306.46 293.02,-317 190.6,-317 118.17,-306.46 118.17,-291.54 190.6,-281 293.02,-281 365.44,-291.54"/>
<polygon fill="none" stroke="#dedede" points="369.44,-288.08 369.44,-309.92 293.31,-321 190.31,-321 114.18,-309.92 114.18,-288.08 190.31,-277 293.31,-277 369.44,-288.08"/>
<text text-anchor="middle" x="241.81" y="-295.3" font-family="Times,serif" font-size="14.00">BiologicalAssociationsGraph</text>
</a>
</g>
</g>
<!-- BiologicalAssociationsBiologicalAssociationsGraph -->
<g id="node5" class="node">
<title>BiologicalAssociationsBiologicalAssociationsGraph</title>
<g id="a_node5"><a xlink:href="/develop/Data/models.html#biological-associations-biological-associations-graph" xlink:title="BiologicalAssociationsBiologicalAssociationsGraph" target="_top">
<polygon fill="#eeefff" stroke="#dddeee" points="706.62,-290 405.62,-290 405.62,-254 706.62,-254 706.62,-290"/>
<text text-anchor="middle" x="556.12" y="-268.3" font-family="Times,serif" font-size="14.00">BiologicalAssociationsBiologicalAssociationsGraph</text>
</a>
</g>
</g>
<!-- CitationTopic -->
<g id="node6" class="node">
<title>CitationTopic</title>
<g id="a_node6"><a xlink:href="/develop/Data/models.html#citation-topic" xlink:title="CitationTopic" target="_top">
<polygon fill="#eeefff" stroke="#dddeee" points="287.81,-36 195.81,-36 195.81,0 287.81,0 287.81,-36"/>
<text text-anchor="middle" x="241.81" y="-14.3" font-family="Times,serif" font-size="14.00">CitationTopic</text>
</a>
</g>
</g>
<!-- PinboardItem -->
<g id="node7" class="node">
<title>PinboardItem</title>
<g id="a_node7"><a xlink:href="/develop/Data/models.html#pinboard-item" xlink:title="PinboardItem" target="_top">
<polygon fill="#eeefff" stroke="#dddeee" points="601.62,-90 510.62,-90 510.62,-54 601.62,-54 601.62,-90"/>
<text text-anchor="middle" x="556.12" y="-68.3" font-family="Times,serif" font-size="14.00">PinboardItem</text>
</a>
</g>
</g>
<!-- Role -->
<g id="node8" class="node">
<title>Role</title>
<g id="a_node8"><a xlink:href="/develop/Data/models.html#role" xlink:title="Role" target="_top">
<polygon fill="#eeefff" stroke="#dddeee" points="583.12,-198 529.12,-198 529.12,-162 583.12,-162 583.12,-198"/>
<text text-anchor="middle" x="556.12" y="-176.3" font-family="Times,serif" font-size="14.00">Role</text>
</a>
</g>
</g>
<!-- SubsequentCitation -->
<g id="node9" class="node">
<title>SubsequentCitation</title>
<g id="a_node9"><a xlink:href="/develop/Data/models.html#subsequent-citation" xlink:title="SubsequentCitation" target="_top">
<polygon fill="#eeefff" stroke="#dddeee" points="872.12,-436 750.12,-436 750.12,-400 872.12,-400 872.12,-436"/>
<text text-anchor="middle" x="811.12" y="-414.3" font-family="Times,serif" font-size="14.00">SubsequentCitation</text>
</a>
</g>
</g>
<!-- SubsequentSource -->
<g id="node10" class="node">
<title>SubsequentSource</title>
<g id="a_node10"><a xlink:href="/develop/Data/models.html#subsequent-source" xlink:title="SubsequentSource" target="_top">
<polygon fill="#eeefff" stroke="#dddeee" points="1031.62,-436 915.62,-436 915.62,-400 1031.62,-400 1031.62,-436"/>
<text text-anchor="middle" x="973.62" y="-414.3" font-family="Times,serif" font-size="14.00">SubsequentSource</text>
</a>
</g>
</g>
<!-- Topic -->
<g id="node11" class="node">
<title>Topic</title>
<g id="a_node11"><a xlink:href="/develop/Data/models.html#topic" xlink:title="Topic" target="_top">
<polygon fill="#eeefff" stroke="#dddeee" points="583.12,-36 529.12,-36 529.12,0 583.12,0 583.12,-36"/>
<text text-anchor="middle" x="556.12" y="-14.3" font-family="Times,serif" font-size="14.00">Topic</text>
</a>
</g>
</g>
<!-- VerifierRole -->
<g id="node12" class="node">
<title>VerifierRole</title>
<g id="a_node12"><a xlink:href="/develop/Data/models.html#verifier-role" xlink:title="VerifierRole" target="_top">
<polygon fill="#eeefff" stroke="#dddeee" points="597.62,-144 514.62,-144 514.62,-108 597.62,-108 597.62,-144"/>
<text text-anchor="middle" x="556.12" y="-122.3" font-family="Times,serif" font-size="14.00">VerifierRole</text>
</a>
</g>
</g>
<!-- Verifier -->
<g id="node13" class="node">
<title>Verifier</title>
<g id="a_node13"><a xlink:href="/develop/Data/models.html#verifier" xlink:title="Verifier" target="_top">
<polygon fill="#eeefff" stroke="#dddeee" points="839.62,-170 782.62,-170 782.62,-134 839.62,-134 839.62,-170"/>
<text text-anchor="middle" x="811.12" y="-148.3" font-family="Times,serif" font-size="14.00">Verifier</text>
</a>
</g>
</g>
<!-- Creator -->
<g id="node14" class="node">
<title>Creator</title>
<g id="a_node14"><a xlink:href="/develop/Data/models.html#creator" xlink:title="Creator" target="_top">
<polygon fill="#eeefff" stroke="#dddeee" points="839.62,-344 782.62,-344 782.62,-308 839.62,-308 839.62,-344"/>
<text text-anchor="middle" x="811.12" y="-322.3" font-family="Times,serif" font-size="14.00">Creator</text>
</a>
</g>
</g>
<!-- Project -->
<g id="node15" class="node">
<title>Project</title>
<g id="a_node15"><a xlink:href="/develop/Data/models.html#project" xlink:title="Project" target="_top">
<polygon fill="#eeefff" stroke="#dddeee" points="583.62,-344 528.62,-344 528.62,-308 583.62,-308 583.62,-344"/>
<text text-anchor="middle" x="556.12" y="-322.3" font-family="Times,serif" font-size="14.00">Project</text>
</a>
</g>
</g>
<!-- Updater -->
<g id="node16" class="node">
<title>Updater</title>
<g id="a_node16"><a xlink:href="/develop/Data/models.html#updater" xlink:title="Updater" target="_top">
<polygon fill="#eeefff" stroke="#dddeee" points="1003.62,-344 943.62,-344 943.62,-308 1003.62,-308 1003.62,-344"/>
<text text-anchor="middle" x="973.62" y="-322.3" font-family="Times,serif" font-size="14.00">Updater</text>
</a>
</g>
</g>
<!-- OriginCitation -->
<g id="node17" class="node">
<title>OriginCitation</title>
<g id="a_node17"><a xlink:href="/develop/Data/models.html#origin-citation" xlink:title="OriginCitation" target="_top">
<polygon fill="#eeefff" stroke="#dddeee" points="858.62,-505 763.62,-505 763.62,-469 858.62,-469 858.62,-505"/>
<text text-anchor="middle" x="811.12" y="-483.3" font-family="Times,serif" font-size="14.00">OriginCitation</text>
</a>
</g>
</g>
</g>
</svg>
