<?xml version="1.0" encoding="UTF-8" standalone="no"?>
<!DOCTYPE svg PUBLIC "-//W3C//DTD SVG 1.1//EN"
 "http://www.w3.org/Graphics/SVG/1.1/DTD/svg11.dtd">
<!-- Generated by graphviz version 12.2.1 (20241206.2353)
 -->
<!-- Title: CachedMapRegister Pages: 1 -->
<svg width="658pt" height="260pt"
 viewBox="0.00 0.00 658.30 260.00" xmlns="http://www.w3.org/2000/svg" xmlns:xlink="http://www.w3.org/1999/xlink">
<g id="graph0" class="graph" transform="scale(1 1) rotate(0) translate(4 256)">
<title>CachedMapRegister</title>
<polygon fill="white" stroke="none" points="-4,4 -4,-256 654.3,-256 654.3,4 -4,4"/>
<!-- CachedMapRegister&#45;&gt;PinboardItem -->
<g id="edge1" class="edge">
<title>CachedMapRegister&#45;&gt;PinboardItem</title>
<path fill="none" stroke="black" d="M127.96,-148.33C153.8,-166.97 193.27,-192.72 231.61,-207 265.59,-219.65 305.78,-226.4 337.6,-229.98"/>
<polygon fill="black" stroke="black" points="337.1,-233.45 347.41,-231.01 337.83,-226.49 337.1,-233.45"/>
</g>
<!-- CachedMapRegister&#45;&gt;Role -->
<g id="edge2" class="edge">
<title>CachedMapRegister&#45;&gt;Role</title>
<path fill="none" stroke="black" d="M172.82,-141.53C191.95,-145.41 212.53,-149.47 231.61,-153 273.99,-160.84 322.81,-168.85 355.63,-174.09"/>
<polygon fill="black" stroke="black" points="355.03,-177.54 365.46,-175.65 356.13,-170.63 355.03,-177.54"/>
</g>
<!-- CachedMapRegister&#45;&gt;VerifierRole -->
<g id="edge3" class="edge">
<title>CachedMapRegister&#45;&gt;VerifierRole</title>
<path fill="none" stroke="black" d="M196.06,-126C244.56,-126 301.26,-126 341.4,-126"/>
<polygon fill="black" stroke="black" points="341.26,-129.5 351.26,-126 341.26,-122.5 341.26,-129.5"/>
</g>
<!-- CachedMapRegister&#45;&gt;Project -->
<g id="edge6" class="edge">
<title>CachedMapRegister&#45;&gt;Project</title>
<path fill="none" stroke="black" stroke-dasharray="5,2" d="M183.72,-108.28C199.61,-105.09 216.11,-101.87 231.61,-99 279.2,-90.19 334.9,-81.18 366.95,-76.11"/>
<polygon fill="black" stroke="black" points="183.42,-104.76 174.31,-110.17 184.8,-111.63 183.42,-104.76"/>
</g>
<!-- CachedMapRegister&#45;&gt;Objects with Cached map registers -->
<g id="edge5" class="edge">
<title>CachedMapRegister&#45;&gt;Objects with Cached map registers</title>
<path fill="none" stroke="black" stroke-dasharray="5,2" d="M137.25,-97.09C162.73,-79.34 197.62,-57.66 231.61,-45 248.42,-38.74 266.75,-33.93 284.83,-30.23"/>
<polygon fill="black" stroke="black" points="135.33,-94.15 129.2,-102.79 139.38,-99.86 135.33,-94.15"/>
</g>
<!-- Role&#45;&gt;Verifier -->
<!-- VerifierRole&#45;&gt;Verifier -->
<g id="edge4" class="edge">
<title>VerifierRole&#45;&gt;Verifier</title>
<path fill="none" stroke="black" stroke-dasharray="1,5" d="M436.14,-130.89C477.35,-135.83 540.57,-143.4 581.27,-148.28"/>
<polygon fill="black" stroke="black" points="580.78,-151.74 591.12,-149.46 581.61,-144.79 580.78,-151.74"/>
</g>
<!-- CachedMapRegister -->
<g id="node1" class="node">
<title>CachedMapRegister</title>
<g id="a_node1"><a xlink:href="/develop/Data/models.html#cached-map-register" xlink:title="CachedMapRegister" target="_top">
<polygon fill="#cdefab" stroke="#dedede" points="191.61,-118.54 191.61,-133.46 136.66,-144 58.95,-144 4,-133.46 4,-118.54 58.95,-108 136.66,-108 191.61,-118.54"/>
<polygon fill="none" stroke="#dedede" points="195.61,-115.24 195.61,-136.76 137.04,-148 58.57,-148 0,-136.76 0,-115.24 58.57,-104 137.04,-104 195.61,-115.24"/>
<text text-anchor="middle" x="97.81" y="-120.95" font-family="Times,serif" font-size="14.00">CachedMapRegister</text>
</a>
</g>
</g>
<!-- PinboardItem -->
<g id="node2" class="node">
<title>PinboardItem</title>
<g id="a_node2"><a xlink:href="/develop/Data/models.html#pinboard-item" xlink:title="PinboardItem" target="_top">
<polygon fill="#eeefff" stroke="#dddeee" points="439.46,-252 349.21,-252 349.21,-216 439.46,-216 439.46,-252"/>
<text text-anchor="middle" x="394.33" y="-228.95" font-family="Times,serif" font-size="14.00">PinboardItem</text>
</a>
</g>
</g>
<!-- Role -->
<g id="node3" class="node">
<title>Role</title>
<g id="a_node3"><a xlink:href="/develop/Data/models.html#role" xlink:title="Role" target="_top">
<polygon fill="#eeefff" stroke="#dddeee" points="421.33,-198 367.33,-198 367.33,-162 421.33,-162 421.33,-198"/>
<text text-anchor="middle" x="394.33" y="-174.95" font-family="Times,serif" font-size="14.00">Role</text>
</a>
</g>
</g>
<!-- VerifierRole -->
<g id="node4" class="node">
<title>VerifierRole</title>
<g id="a_node4"><a xlink:href="/develop/Data/models.html#verifier-role" xlink:title="VerifierRole" target="_top">
<polygon fill="#eeefff" stroke="#dddeee" points="435.71,-144 352.96,-144 352.96,-108 435.71,-108 435.71,-144"/>
<text text-anchor="middle" x="394.33" y="-120.95" font-family="Times,serif" font-size="14.00">VerifierRole</text>
</a>
</g>
</g>
<!-- Verifier -->
<g id="node5" class="node">
<title>Verifier</title>
<g id="a_node5"><a xlink:href="/develop/Data/models.html#verifier" xlink:title="Verifier" target="_top">
<polygon fill="#eeefff" stroke="#dddeee" points="650.3,-171 593.05,-171 593.05,-135 650.3,-135 650.3,-171"/>
<text text-anchor="middle" x="621.67" y="-147.95" font-family="Times,serif" font-size="14.00">Verifier</text>
</a>
</g>
</g>
<!-- Project -->
<g id="node6" class="node">
<title>Project</title>
<g id="a_node6"><a xlink:href="/develop/Data/models.html#project" xlink:title="Project" target="_top">
<polygon fill="#eeefff" stroke="#dddeee" points="421.46,-90 367.21,-90 367.21,-54 421.46,-54 421.46,-90"/>
<text text-anchor="middle" x="394.33" y="-66.95" font-family="Times,serif" font-size="14.00">Project</text>
</a>
</g>
</g>
<!-- Objects with Cached map registers -->
<g id="node7" class="node">
<title>Objects with Cached map registers</title>
<g id="a_node7"><a xlink:href="/develop/Data/models.html#objects with cached map register" xlink:title="Objects with Cached map registers" target="_top">
<polygon fill="#cdabef" stroke="#dedede" points="557.05,-18 475.69,-36 312.97,-36 231.61,-18 312.97,0 475.69,0 557.05,-18"/>
<text text-anchor="middle" x="394.33" y="-12.95" font-family="Times,serif" font-size="14.00">Objects with Cached map registers</text>
</a>
</g>
</g>
</g>
</svg>
