<?xml version="1.0" encoding="UTF-8" standalone="no"?>
<!DOCTYPE svg PUBLIC "-//W3C//DTD SVG 1.1//EN"
 "http://www.w3.org/Graphics/SVG/1.1/DTD/svg11.dtd">
<!-- Generated by graphviz version 12.2.1 (20241206.2353)
 -->
<!-- Title: CachedMapItemTranslation Pages: 1 -->
<svg width="556pt" height="260pt"
 viewBox="0.00 0.00 556.41 260.00" xmlns="http://www.w3.org/2000/svg" xmlns:xlink="http://www.w3.org/1999/xlink">
<g id="graph0" class="graph" transform="scale(1 1) rotate(0) translate(4 256)">
<title>CachedMapItemTranslation</title>
<polygon fill="white" stroke="none" points="-4,4 -4,-256 552.41,-256 552.41,4 -4,4"/>
<!-- CachedMapItemTranslation&#45;&gt;PinboardItem -->
<g id="edge1" class="edge">
<title>CachedMapItemTranslation&#45;&gt;PinboardItem</title>
<path fill="none" stroke="black" d="M171.21,-148.37C203.92,-165.58 251.01,-189.33 293.66,-207 301.55,-210.27 309.99,-213.45 318.31,-216.42"/>
<polygon fill="black" stroke="black" points="317.12,-219.71 327.72,-219.68 319.42,-213.09 317.12,-219.71"/>
</g>
<!-- CachedMapItemTranslation&#45;&gt;Role -->
<g id="edge2" class="edge">
<title>CachedMapItemTranslation&#45;&gt;Role</title>
<path fill="none" stroke="black" d="M211.28,-144.06C253.46,-153.41 302.93,-164.38 336.03,-171.71"/>
<polygon fill="black" stroke="black" points="335.02,-175.07 345.54,-173.82 336.53,-168.24 335.02,-175.07"/>
</g>
<!-- CachedMapItemTranslation&#45;&gt;VerifierRole -->
<g id="edge3" class="edge">
<title>CachedMapItemTranslation&#45;&gt;VerifierRole</title>
<path fill="none" stroke="black" d="M258.04,-126C280.33,-126 302.34,-126 321.06,-126"/>
<polygon fill="black" stroke="black" points="321.04,-129.5 331.04,-126 321.04,-122.5 321.04,-129.5"/>
</g>
<!-- CachedMapItemTranslation&#45;&gt;GeographicItem -->
<g id="edge5" class="edge">
<title>CachedMapItemTranslation&#45;&gt;GeographicItem</title>
<path fill="none" stroke="black" stroke-dasharray="5,2" d="M222.12,-105.54C255.89,-98.05 292.89,-89.85 321.84,-83.43"/>
<polygon fill="black" stroke="black" points="221.76,-102.03 212.75,-107.62 223.27,-108.87 221.76,-102.03"/>
</g>
<!-- CachedMapItemTranslation&#45;&gt;TranslatedGeographicItem -->
<g id="edge6" class="edge">
<title>CachedMapItemTranslation&#45;&gt;TranslatedGeographicItem</title>
<path fill="none" stroke="black" stroke-dasharray="5,2" d="M181.19,-98.41C213.07,-81.84 255.17,-60.95 293.66,-45 300.82,-42.03 308.43,-39.14 316,-36.41"/>
<polygon fill="black" stroke="black" points="179.79,-95.19 172.55,-102.93 183.04,-101.4 179.79,-95.19"/>
</g>
<!-- Role&#45;&gt;Verifier -->
<!-- VerifierRole&#45;&gt;Verifier -->
<g id="edge4" class="edge">
<title>VerifierRole&#45;&gt;Verifier</title>
<path fill="none" stroke="black" stroke-dasharray="1,5" d="M416.11,-133.66C436.04,-137.42 459.93,-141.92 479.65,-145.63"/>
<polygon fill="black" stroke="black" points="478.75,-149.02 489.23,-147.43 480.05,-142.14 478.75,-149.02"/>
</g>
<!-- CachedMapItemTranslation -->
<g id="node1" class="node">
<title>CachedMapItemTranslation</title>
<g id="a_node1"><a xlink:href="/develop/Data/models.html#cached-map-item-translation" xlink:title="CachedMapItemTranslation" target="_top">
<polygon fill="#cdefab" stroke="#dedede" points="253.66,-118.54 253.66,-133.46 180.54,-144 77.12,-144 4,-133.46 4,-118.54 77.12,-108 180.54,-108 253.66,-118.54"/>
<polygon fill="none" stroke="#dedede" points="257.66,-115.08 257.66,-136.92 180.82,-148 76.84,-148 0,-136.92 0,-115.08 76.84,-104 180.82,-104 257.66,-115.08"/>
<text text-anchor="middle" x="128.83" y="-120.95" font-family="Times,serif" font-size="14.00">CachedMapItemTranslation</text>
</a>
</g>
</g>
<!-- PinboardItem -->
<g id="node2" class="node">
<title>PinboardItem</title>
<g id="a_node2"><a xlink:href="/develop/Data/models.html#pinboard-item" xlink:title="PinboardItem" target="_top">
<polygon fill="#eeefff" stroke="#dddeee" points="419.53,-252 329.28,-252 329.28,-216 419.53,-216 419.53,-252"/>
<text text-anchor="middle" x="374.41" y="-228.95" font-family="Times,serif" font-size="14.00">PinboardItem</text>
</a>
</g>
</g>
<!-- Role -->
<g id="node3" class="node">
<title>Role</title>
<g id="a_node3"><a xlink:href="/develop/Data/models.html#role" xlink:title="Role" target="_top">
<polygon fill="#eeefff" stroke="#dddeee" points="401.41,-198 347.41,-198 347.41,-162 401.41,-162 401.41,-198"/>
<text text-anchor="middle" x="374.41" y="-174.95" font-family="Times,serif" font-size="14.00">Role</text>
</a>
</g>
</g>
<!-- VerifierRole -->
<g id="node4" class="node">
<title>VerifierRole</title>
<g id="a_node4"><a xlink:href="/develop/Data/models.html#verifier-role" xlink:title="VerifierRole" target="_top">
<polygon fill="#eeefff" stroke="#dddeee" points="415.78,-144 333.03,-144 333.03,-108 415.78,-108 415.78,-144"/>
<text text-anchor="middle" x="374.41" y="-120.95" font-family="Times,serif" font-size="14.00">VerifierRole</text>
</a>
</g>
</g>
<!-- Verifier -->
<g id="node5" class="node">
<title>Verifier</title>
<g id="a_node5"><a xlink:href="/develop/Data/models.html#verifier" xlink:title="Verifier" target="_top">
<polygon fill="#eeefff" stroke="#dddeee" points="548.41,-171 491.16,-171 491.16,-135 548.41,-135 548.41,-171"/>
<text text-anchor="middle" x="519.78" y="-147.95" font-family="Times,serif" font-size="14.00">Verifier</text>
</a>
</g>
</g>
<!-- GeographicItem -->
<g id="node6" class="node">
<title>GeographicItem</title>
<g id="a_node6"><a xlink:href="/develop/Data/models.html#geographic-item" xlink:title="GeographicItem" target="_top">
<polygon fill="#eeefff" stroke="#dddeee" points="426.66,-90 322.16,-90 322.16,-54 426.66,-54 426.66,-90"/>
<text text-anchor="middle" x="374.41" y="-66.95" font-family="Times,serif" font-size="14.00">GeographicItem</text>
</a>
</g>
</g>
<!-- TranslatedGeographicItem -->
<g id="node7" class="node">
<title>TranslatedGeographicItem</title>
<g id="a_node7"><a xlink:href="/develop/Data/models.html#translated-geographic-item" xlink:title="TranslatedGeographicItem" target="_top">
<polygon fill="#eeefff" stroke="#dddeee" points="455.16,-36 293.66,-36 293.66,0 455.16,0 455.16,-36"/>
<text text-anchor="middle" x="374.41" y="-12.95" font-family="Times,serif" font-size="14.00">TranslatedGeographicItem</text>
</a>
</g>
</g>
</g>
</svg>
