<?xml version="1.0" encoding="UTF-8" standalone="no"?>
<!DOCTYPE svg PUBLIC "-//W3C//DTD SVG 1.1//EN"
 "http://www.w3.org/Graphics/SVG/1.1/DTD/svg11.dtd">
<!-- Generated by graphviz version 12.2.1 (20241206.2353)
 -->
<!-- Title: CitationTopic Pages: 1 -->
<svg width="583pt" height="375pt"
 viewBox="0.00 0.00 582.64 375.39" xmlns="http://www.w3.org/2000/svg" xmlns:xlink="http://www.w3.org/1999/xlink">
<g id="graph0" class="graph" transform="scale(1 1) rotate(0) translate(4 371.39)">
<title>CitationTopic</title>
<polygon fill="white" stroke="none" points="-4,4 -4,-371.39 578.64,-371.39 578.64,4 -4,4"/>
<!-- CitationTopic&#45;&gt;Citation -->
<g id="edge5" class="edge">
<title>CitationTopic&#45;&gt;Citation</title>
<path fill="none" stroke="black" stroke-dasharray="5,2" d="M105.41,-162.89C97.12,-162.89 88.99,-162.89 81.45,-162.89"/>
<polygon fill="black" stroke="black" points="105.27,-166.39 115.27,-162.89 105.27,-159.39 105.27,-166.39"/>
</g>
<!-- CitationTopic&#45;&gt;Source -->
<g id="edge10" class="edge">
<title>CitationTopic&#45;&gt;Source</title>
<path fill="none" stroke="black" stroke-dasharray="1,5" d="M205.34,-194.17C223.74,-228.21 256.57,-282.84 295.64,-320.89 298.55,-323.73 301.8,-326.43 305.18,-328.96"/>
<polygon fill="none" stroke="black" points="197.24,-187.47 204.3,-183.71 208.06,-190.77 201,-194.53 197.24,-187.47"/>
<polyline fill="none" stroke="black" points="204.53,-192.65 205.47,-194.42"/>
<polygon fill="none" stroke="black" points="315.57,-331.29 311.02,-337.87 304.44,-333.32 308.99,-326.74 315.57,-331.29"/>
<polyline fill="none" stroke="black" points="306.72,-330.03 305.07,-328.89"/>
</g>
<!-- CitationTopic&#45;&gt;PinboardItem -->
<g id="edge1" class="edge">
<title>CitationTopic&#45;&gt;PinboardItem</title>
<path fill="none" stroke="black" d="M209.29,-185.09C229.72,-207.23 263.07,-241.51 295.64,-266.89 296.59,-267.64 297.57,-268.38 298.57,-269.11"/>
<polygon fill="black" stroke="black" points="296.39,-271.86 306.6,-274.69 300.38,-266.11 296.39,-271.86"/>
</g>
<!-- CitationTopic&#45;&gt;Role -->
<g id="edge2" class="edge">
<title>CitationTopic&#45;&gt;Role</title>
<path fill="none" stroke="black" d="M227.36,-182.32C250.74,-194.3 280.56,-209.57 303.61,-221.37"/>
<polygon fill="black" stroke="black" points="301.83,-224.39 312.33,-225.84 305.02,-218.16 301.83,-224.39"/>
</g>
<!-- CitationTopic&#45;&gt;VerifierRole -->
<g id="edge3" class="edge">
<title>CitationTopic&#45;&gt;VerifierRole</title>
<path fill="none" stroke="black" d="M259.75,-173.65C269.21,-175.1 278.77,-176.56 287.83,-177.94"/>
<polygon fill="black" stroke="black" points="287.08,-181.37 297.5,-179.42 288.14,-174.45 287.08,-181.37"/>
</g>
<!-- CitationTopic&#45;&gt;Creator -->
<g id="edge6" class="edge">
<title>CitationTopic&#45;&gt;Creator</title>
<path fill="none" stroke="black" stroke-dasharray="5,2" d="M268.96,-149.46C305.07,-142.46 348.06,-132.84 385.89,-120.89 398.02,-117.06 411.01,-111.77 422.07,-106.89"/>
<polygon fill="black" stroke="black" points="268.65,-145.96 259.48,-151.27 269.96,-152.84 268.65,-145.96"/>
</g>
<!-- CitationTopic&#45;&gt;Project -->
<g id="edge7" class="edge">
<title>CitationTopic&#45;&gt;Project</title>
<path fill="none" stroke="black" stroke-dasharray="5,2" d="M240.33,-139.53C264.8,-128.29 293.12,-115.3 313.26,-106.05"/>
<polygon fill="black" stroke="black" points="239.11,-136.23 231.48,-143.59 242.03,-142.6 239.11,-136.23"/>
</g>
<!-- CitationTopic&#45;&gt;Topic -->
<g id="edge8" class="edge">
<title>CitationTopic&#45;&gt;Topic</title>
<path fill="none" stroke="black" stroke-dasharray="5,2" d="M219.61,-132.83C240.18,-113.05 268.52,-87.17 295.64,-66.89 301.25,-62.7 307.54,-58.55 313.57,-54.81"/>
<polygon fill="black" stroke="black" points="217.4,-130.1 212.65,-139.57 222.27,-135.12 217.4,-130.1"/>
</g>
<!-- CitationTopic&#45;&gt;Updater -->
<g id="edge9" class="edge">
<title>CitationTopic&#45;&gt;Updater</title>
<path fill="none" stroke="black" stroke-dasharray="5,2" d="M201.79,-130.12C217.45,-93.88 248.25,-37.4 295.64,-12.89 374.36,27.83 477.63,-40.88 522.04,-75.63"/>
<polygon fill="black" stroke="black" points="198.6,-128.68 197.99,-139.25 205.06,-131.36 198.6,-128.68"/>
</g>
<!-- Role&#45;&gt;Verifier -->
<!-- VerifierRole&#45;&gt;Verifier -->
<g id="edge4" class="edge">
<title>VerifierRole&#45;&gt;Verifier</title>
<path fill="none" stroke="black" stroke-dasharray="1,5" d="M382.5,-196.1C391.63,-198.39 401.31,-200.81 410.37,-203.08"/>
<polygon fill="black" stroke="black" points="409.43,-206.45 419.98,-205.49 411.13,-199.66 409.43,-206.45"/>
</g>
<!-- Creator&#45;&gt;Updater -->
<!-- Project&#45;&gt;Creator -->
<!-- Citation -->
<g id="node1" class="node">
<title>Citation</title>
<g id="a_node1"><a xlink:href="/develop/Data/models.html#citation" xlink:title="Citation" target="_top">
<ellipse fill="#abcdef" stroke="#dddeee" cx="40.6" cy="-162.89" rx="40.6" ry="18"/>
<text text-anchor="middle" x="40.6" y="-157.84" font-family="Times,serif" font-size="14.00">Citation</text>
</a>
</g>
</g>
<!-- Source -->
<g id="node2" class="node">
<title>Source</title>
<g id="a_node2"><a xlink:href="/develop/Data/models.html#source" xlink:title="Source" target="_top">
<path fill="#fedcba" stroke="#dddeee" d="M325.76,-330.89C325.76,-330.89 355.76,-330.89 355.76,-330.89 361.76,-330.89 367.76,-336.89 367.76,-342.89 367.76,-342.89 367.76,-354.89 367.76,-354.89 367.76,-360.89 361.76,-366.89 355.76,-366.89 355.76,-366.89 325.76,-366.89 325.76,-366.89 319.76,-366.89 313.76,-360.89 313.76,-354.89 313.76,-354.89 313.76,-342.89 313.76,-342.89 313.76,-336.89 319.76,-330.89 325.76,-330.89"/>
<text text-anchor="middle" x="340.76" y="-344.09" font-family="Times,serif" font-size="14.00">Source</text>
</a>
</g>
</g>
<!-- CitationTopic -->
<g id="node3" class="node">
<title>CitationTopic</title>
<g id="a_node3"><a xlink:href="/develop/Data/models.html#citation-topic" xlink:title="CitationTopic" target="_top">
<polygon fill="#cdefab" stroke="#dedede" points="255.64,-155.43 255.64,-170.35 216.26,-180.89 160.58,-180.89 121.21,-170.35 121.21,-155.43 160.58,-144.89 216.26,-144.89 255.64,-155.43"/>
<polygon fill="none" stroke="#dedede" points="259.64,-152.36 259.64,-173.42 216.79,-184.89 160.05,-184.89 117.21,-173.42 117.21,-152.36 160.05,-140.89 216.79,-140.89 259.64,-152.36"/>
<text text-anchor="middle" x="188.42" y="-157.84" font-family="Times,serif" font-size="14.00">CitationTopic</text>
</a>
</g>
</g>
<!-- PinboardItem -->
<g id="node4" class="node">
<title>PinboardItem</title>
<g id="a_node4"><a xlink:href="/develop/Data/models.html#pinboard-item" xlink:title="PinboardItem" target="_top">
<polygon fill="#eeefff" stroke="#dddeee" points="385.89,-311.89 295.64,-311.89 295.64,-275.89 385.89,-275.89 385.89,-311.89"/>
<text text-anchor="middle" x="340.76" y="-288.84" font-family="Times,serif" font-size="14.00">PinboardItem</text>
</a>
</g>
</g>
<!-- Role -->
<g id="node5" class="node">
<title>Role</title>
<g id="a_node5"><a xlink:href="/develop/Data/models.html#role" xlink:title="Role" target="_top">
<polygon fill="#eeefff" stroke="#dddeee" points="367.76,-257.89 313.76,-257.89 313.76,-221.89 367.76,-221.89 367.76,-257.89"/>
<text text-anchor="middle" x="340.76" y="-234.84" font-family="Times,serif" font-size="14.00">Role</text>
</a>
</g>
</g>
<!-- VerifierRole -->
<g id="node6" class="node">
<title>VerifierRole</title>
<g id="a_node6"><a xlink:href="/develop/Data/models.html#verifier-role" xlink:title="VerifierRole" target="_top">
<polygon fill="#eeefff" stroke="#dddeee" points="382.14,-203.89 299.39,-203.89 299.39,-167.89 382.14,-167.89 382.14,-203.89"/>
<text text-anchor="middle" x="340.76" y="-180.84" font-family="Times,serif" font-size="14.00">VerifierRole</text>
</a>
</g>
</g>
<!-- Verifier -->
<g id="node7" class="node">
<title>Verifier</title>
<g id="a_node7"><a xlink:href="/develop/Data/models.html#verifier" xlink:title="Verifier" target="_top">
<polygon fill="#eeefff" stroke="#dddeee" points="479.14,-230.89 421.89,-230.89 421.89,-194.89 479.14,-194.89 479.14,-230.89"/>
<text text-anchor="middle" x="450.51" y="-207.84" font-family="Times,serif" font-size="14.00">Verifier</text>
</a>
</g>
</g>
<!-- Creator -->
<g id="node8" class="node">
<title>Creator</title>
<g id="a_node8"><a xlink:href="/develop/Data/models.html#creator" xlink:title="Creator" target="_top">
<polygon fill="#eeefff" stroke="#dddeee" points="478.76,-111.89 422.26,-111.89 422.26,-75.89 478.76,-75.89 478.76,-111.89"/>
<text text-anchor="middle" x="450.51" y="-88.84" font-family="Times,serif" font-size="14.00">Creator</text>
</a>
</g>
</g>
<!-- Project -->
<g id="node9" class="node">
<title>Project</title>
<g id="a_node9"><a xlink:href="/develop/Data/models.html#project" xlink:title="Project" target="_top">
<polygon fill="#eeefff" stroke="#dddeee" points="367.89,-111.89 313.64,-111.89 313.64,-75.89 367.89,-75.89 367.89,-111.89"/>
<text text-anchor="middle" x="340.76" y="-88.84" font-family="Times,serif" font-size="14.00">Project</text>
</a>
</g>
</g>
<!-- Topic -->
<g id="node10" class="node">
<title>Topic</title>
<g id="a_node10"><a xlink:href="/develop/Data/models.html#topic" xlink:title="Topic" target="_top">
<polygon fill="#eeefff" stroke="#dddeee" points="367.76,-57.89 313.76,-57.89 313.76,-21.89 367.76,-21.89 367.76,-57.89"/>
<text text-anchor="middle" x="340.76" y="-34.84" font-family="Times,serif" font-size="14.00">Topic</text>
</a>
</g>
</g>
<!-- Updater -->
<g id="node11" class="node">
<title>Updater</title>
<g id="a_node11"><a xlink:href="/develop/Data/models.html#updater" xlink:title="Updater" target="_top">
<polygon fill="#eeefff" stroke="#dddeee" points="574.64,-111.89 515.14,-111.89 515.14,-75.89 574.64,-75.89 574.64,-111.89"/>
<text text-anchor="middle" x="544.89" y="-88.84" font-family="Times,serif" font-size="14.00">Updater</text>
</a>
</g>
</g>
</g>
</svg>
