<?xml version="1.0" encoding="UTF-8" standalone="no"?>
<!DOCTYPE svg PUBLIC "-//W3C//DTD SVG 1.1//EN"
 "http://www.w3.org/Graphics/SVG/1.1/DTD/svg11.dtd">
<!-- Generated by graphviz version 12.2.1 (20241206.2353)
 -->
<!-- Title: CollectingEvent Pages: 1 -->
<svg width="932pt" height="1506pt"
 viewBox="0.00 0.00 931.69 1505.52" xmlns="http://www.w3.org/2000/svg" xmlns:xlink="http://www.w3.org/1999/xlink">
<g id="graph0" class="graph" transform="scale(1 1) rotate(0) translate(4 1501.52)">
<title>CollectingEvent</title>
<polygon fill="white" stroke="none" points="-4,4 -4,-1501.52 927.69,-1501.52 927.69,4 -4,4"/>
<!-- Citation&#45;&gt;Source -->
<g id="edge36" class="edge">
<title>Citation&#45;&gt;Source</title>
<path fill="none" stroke="black" stroke-dasharray="1,5" d="M129.75,-1424.52C207.65,-1424.52 378.6,-1424.52 454.43,-1424.52"/>
<polygon fill="black" stroke="black" points="454.25,-1428.02 464.25,-1424.52 454.25,-1421.02 454.25,-1428.02"/>
</g>
<!-- Citation&#45;&gt;CitationTopic -->
<g id="edge1" class="edge">
<title>Citation&#45;&gt;CitationTopic</title>
<path fill="none" stroke="black" stroke-dasharray="1,5" d="M123.75,-1433.72C154.69,-1442.09 200.93,-1454.6 237.28,-1464.43"/>
<polygon fill="black" stroke="black" points="236.18,-1467.76 246.75,-1466.99 238.01,-1461 236.18,-1467.76"/>
</g>
<!-- Confidence&#45;&gt;ConfidenceLevel -->
<g id="edge7" class="edge">
<title>Confidence&#45;&gt;ConfidenceLevel</title>
<path fill="none" stroke="black" stroke-dasharray="1,5" d="M142.61,-898.52C168.78,-898.52 200.59,-898.52 228.22,-898.52"/>
<polygon fill="black" stroke="black" points="227.85,-902.02 237.85,-898.52 227.85,-895.02 227.85,-902.02"/>
</g>
<!-- Depiction&#45;&gt;Image -->
<g id="edge23" class="edge">
<title>Depiction&#45;&gt;Image</title>
<path fill="none" stroke="black" stroke-dasharray="1,5" d="M136.37,-682.52C172.55,-682.52 222.05,-682.52 255.66,-682.52"/>
<polygon fill="black" stroke="black" points="255.32,-686.02 265.32,-682.52 255.32,-679.02 255.32,-686.02"/>
</g>
<!-- Tag&#45;&gt;Keyword -->
<g id="edge26" class="edge">
<title>Tag&#45;&gt;Keyword</title>
<path fill="none" stroke="black" stroke-dasharray="1,5" d="M115.88,-628.52C149.56,-628.52 208.57,-628.52 249.18,-628.52"/>
<polygon fill="black" stroke="black" points="249.11,-632.02 259.11,-628.52 249.11,-625.02 249.11,-632.02"/>
</g>
<!-- ProtocolRelationship&#45;&gt;Protocol -->
<g id="edge32" class="edge">
<title>ProtocolRelationship&#45;&gt;Protocol</title>
<path fill="none" stroke="black" stroke-dasharray="1,5" d="M177.72,-574.52C203.44,-574.52 230.35,-574.52 251.7,-574.52"/>
<polygon fill="black" stroke="black" points="251.44,-578.02 261.44,-574.52 251.44,-571.02 251.44,-578.02"/>
</g>
<!-- CollectingEvent&#45;&gt;Citation -->
<g id="edge2" class="edge">
<title>CollectingEvent&#45;&gt;Citation</title>
<path fill="none" stroke="black" d="M276.25,-762.97C258.18,-788.14 229.84,-830.79 213.43,-871.52 136.48,-1062.41 102.68,-1310.63 92.89,-1394.98"/>
<polygon fill="black" stroke="black" points="89.44,-1394.38 91.79,-1404.71 96.39,-1395.17 89.44,-1394.38"/>
</g>
<!-- CollectingEvent&#45;&gt;Confidence -->
<g id="edge8" class="edge">
<title>CollectingEvent&#45;&gt;Confidence</title>
<path fill="none" stroke="black" d="M279.05,-762.92C259.69,-792.08 222.03,-842.73 177.43,-871.52 167.99,-877.61 157.1,-882.39 146.27,-886.13"/>
<polygon fill="black" stroke="black" points="145.44,-882.72 136.96,-889.07 147.55,-889.39 145.44,-882.72"/>
</g>
<!-- CollectingEvent&#45;&gt;DataAttribute -->
<g id="edge10" class="edge">
<title>CollectingEvent&#45;&gt;DataAttribute</title>
<path fill="none" stroke="black" d="M231.12,-755.75C204.6,-762.27 173.8,-769.84 147.73,-776.25"/>
<polygon fill="black" stroke="black" points="147.22,-772.77 138.35,-778.56 148.89,-779.57 147.22,-772.77"/>
</g>
<!-- CollectingEvent&#45;&gt;Depiction -->
<g id="edge11" class="edge">
<title>CollectingEvent&#45;&gt;Depiction</title>
<path fill="none" stroke="black" d="M235.89,-724.21C205.14,-715.44 167.62,-704.74 138.29,-696.37"/>
<polygon fill="black" stroke="black" points="139.52,-693.08 128.94,-693.71 137.6,-699.81 139.52,-693.08"/>
</g>
<!-- CollectingEvent&#45;&gt;Identifier -->
<g id="edge22" class="edge">
<title>CollectingEvent&#45;&gt;Identifier</title>
<path fill="none" stroke="black" d="M213.31,-738.95C190.66,-738.5 166.49,-738.03 145.59,-737.62"/>
<polygon fill="black" stroke="black" points="145.92,-734.12 135.85,-737.42 145.78,-741.12 145.92,-734.12"/>
</g>
<!-- CollectingEvent&#45;&gt;Tag -->
<g id="edge39" class="edge">
<title>CollectingEvent&#45;&gt;Tag</title>
<path fill="none" stroke="black" d="M237.11,-723.83C228.69,-719.91 220.48,-715.19 213.43,-709.52 190.94,-691.45 200.55,-672.76 177.43,-655.52 162.69,-644.53 143.42,-637.96 126.7,-634.06"/>
<polygon fill="black" stroke="black" points="127.6,-630.67 117.1,-632.07 126.18,-637.53 127.6,-630.67"/>
</g>
<!-- CollectingEvent&#45;&gt;Note -->
<g id="edge28" class="edge">
<title>CollectingEvent&#45;&gt;Note</title>
<path fill="none" stroke="black" d="M264.51,-762.94C241.92,-779.81 209.02,-802.52 177.43,-817.52 161.56,-825.05 143.09,-831.1 127.2,-835.55"/>
<polygon fill="black" stroke="black" points="126.38,-832.14 117.63,-838.11 128.2,-838.91 126.38,-832.14"/>
</g>
<!-- CollectingEvent&#45;&gt;ProtocolRelationship -->
<g id="edge31" class="edge">
<title>CollectingEvent&#45;&gt;ProtocolRelationship</title>
<path fill="none" stroke="black" d="M234.08,-724.55C226.44,-720.58 219.26,-715.64 213.43,-709.52 178.55,-672.87 213.62,-636.88 177.43,-601.52 173.74,-597.91 169.58,-594.79 165.13,-592.08"/>
<polygon fill="black" stroke="black" points="166.81,-589.01 156.33,-587.49 163.58,-595.22 166.81,-589.01"/>
</g>
<!-- CollectingEvent&#45;&gt;CollectionObject -->
<g id="edge4" class="edge">
<title>CollectingEvent&#45;&gt;CollectionObject</title>
<path fill="none" stroke="black" d="M312.8,-762.62C331.68,-787.5 360.73,-829.88 374.69,-871.52 399.91,-946.69 361.45,-1164.36 410.69,-1226.52 415.42,-1232.49 421.5,-1237.19 428.2,-1240.89"/>
<polygon fill="black" stroke="black" points="426.45,-1243.94 437,-1245 429.41,-1237.6 426.45,-1243.94"/>
</g>
<!-- CollectingEvent&#45;&gt;Source -->
<g id="edge53" class="edge">
<title>CollectingEvent&#45;&gt;Source</title>
<path fill="none" stroke="black" stroke-dasharray="1,5" d="M319.5,-771.08C338.23,-796.39 362.82,-834.14 374.69,-871.52 409.77,-981.91 342.73,-1297.72 410.69,-1391.52 421.2,-1406.01 439.2,-1414.16 455.59,-1418.72"/>
<polygon fill="none" stroke="black" points="310.51,-765.8 316.9,-760.98 321.71,-767.37 315.33,-772.19 310.51,-765.8"/>
<polyline fill="none" stroke="black" points="318.52,-769.78 319.72,-771.38"/>
<polygon fill="none" stroke="black" points="465.96,-1417.12 464.08,-1424.9 456.3,-1423.01 458.19,-1415.24 465.96,-1417.12"/>
<polyline fill="none" stroke="black" points="457.24,-1419.12 455.3,-1418.65"/>
</g>
<!-- CollectingEvent&#45;&gt;CollectorRole -->
<g id="edge5" class="edge">
<title>CollectingEvent&#45;&gt;CollectorRole</title>
<path fill="none" stroke="black" d="M312.46,-762.74C331.04,-787.72 359.82,-830.2 374.69,-871.52 412.26,-975.9 339.45,-1033.48 410.69,-1118.52 417.35,-1126.47 426.42,-1132.09 436.08,-1136.06"/>
<polygon fill="black" stroke="black" points="434.69,-1139.28 445.29,-1139.26 436.99,-1132.67 434.69,-1139.28"/>
</g>
<!-- CollectingEvent&#45;&gt;Conveyance -->
<g id="edge9" class="edge">
<title>CollectingEvent&#45;&gt;Conveyance</title>
<path fill="none" stroke="black" d="M312.15,-762.86C330.46,-787.94 359.01,-830.5 374.69,-871.52 405.87,-953.02 353.34,-998.75 410.69,-1064.52 418.47,-1073.43 429.26,-1079.41 440.44,-1083.42"/>
<polygon fill="black" stroke="black" points="439.16,-1086.69 449.75,-1086.25 441.2,-1079.99 439.16,-1086.69"/>
</g>
<!-- CollectingEvent&#45;&gt;OriginRelationship -->
<g id="edge29" class="edge">
<title>CollectingEvent&#45;&gt;OriginRelationship</title>
<path fill="none" stroke="black" d="M308.82,-762.63C324.88,-788.57 352.12,-832.92 374.69,-871.52 391.17,-899.69 386.09,-914.08 410.69,-935.52 414.46,-938.8 418.6,-941.77 422.96,-944.45"/>
<polygon fill="black" stroke="black" points="421.02,-947.37 431.47,-949.13 424.4,-941.24 421.02,-947.37"/>
</g>
<!-- CollectingEvent&#45;&gt;Documentation -->
<g id="edge13" class="edge">
<title>CollectingEvent&#45;&gt;Documentation</title>
<path fill="none" stroke="black" d="M311.06,-762.72C328.67,-788.01 356.86,-831.09 374.69,-871.52 397.68,-923.63 374.68,-950.38 410.69,-994.52 416.79,-1001.98 424.52,-1008.32 432.79,-1013.64"/>
<polygon fill="black" stroke="black" points="430.97,-1016.63 441.37,-1018.67 434.51,-1010.59 430.97,-1016.63"/>
</g>
<!-- CollectingEvent&#45;&gt;Georeference -->
<g id="edge20" class="edge">
<title>CollectingEvent&#45;&gt;Georeference</title>
<path fill="none" stroke="black" d="M355.04,-724.88C362.44,-720.86 369.29,-715.83 374.69,-709.52 423.21,-652.82 362.29,-602.31 410.69,-545.52 417.85,-537.12 427.49,-530.92 437.64,-526.33"/>
<polygon fill="black" stroke="black" points="438.89,-529.6 446.9,-522.67 436.32,-523.09 438.89,-529.6"/>
</g>
<!-- CollectingEvent&#45;&gt;FieldOccurrence -->
<g id="edge17" class="edge">
<title>CollectingEvent&#45;&gt;FieldOccurrence</title>
<path fill="none" stroke="black" d="M355.37,-725.15C362.72,-721.1 369.47,-715.98 374.69,-709.52 437.81,-631.44 345.63,-562.98 410.69,-486.52 415.74,-480.58 422.13,-475.95 429.09,-472.33"/>
<polygon fill="black" stroke="black" points="430.48,-475.54 438.24,-468.32 427.67,-469.13 430.48,-475.54"/>
</g>
<!-- CollectingEvent&#45;&gt;GeoLocateGeoreference -->
<g id="edge18" class="edge">
<title>CollectingEvent&#45;&gt;GeoLocateGeoreference</title>
<path fill="none" stroke="black" d="M335.49,-760.81C357.47,-771.47 385.27,-784.4 410.69,-794.52 414.77,-796.14 418.99,-797.75 423.26,-799.32"/>
<polygon fill="black" stroke="black" points="421.92,-802.56 432.52,-802.65 424.29,-795.97 421.92,-802.56"/>
</g>
<!-- CollectingEvent&#45;&gt;GPXGeoreference -->
<g id="edge21" class="edge">
<title>CollectingEvent&#45;&gt;GPXGeoreference</title>
<path fill="none" stroke="black" d="M375.14,-751.5C391.25,-753.71 408.03,-756.01 423.69,-758.16"/>
<polygon fill="black" stroke="black" points="422.98,-761.59 433.37,-759.48 423.93,-754.66 422.98,-761.59"/>
</g>
<!-- CollectingEvent&#45;&gt;ImportAttribute -->
<g id="edge24" class="edge">
<title>CollectingEvent&#45;&gt;ImportAttribute</title>
<path fill="none" stroke="black" d="M375.14,-729.53C393.57,-727.01 412.88,-724.36 430.38,-721.96"/>
<polygon fill="black" stroke="black" points="430.66,-725.45 440.09,-720.63 429.71,-718.52 430.66,-725.45"/>
</g>
<!-- CollectingEvent&#45;&gt;InternalAttribute -->
<g id="edge25" class="edge">
<title>CollectingEvent&#45;&gt;InternalAttribute</title>
<path fill="none" stroke="black" d="M345.42,-722.65C355.28,-718.67 365.43,-714.22 374.69,-709.52 391.62,-700.92 393.55,-694.68 410.69,-686.52 416.45,-683.77 422.57,-681.19 428.75,-678.79"/>
<polygon fill="black" stroke="black" points="429.59,-682.21 437.76,-675.46 427.17,-675.64 429.59,-682.21"/>
</g>
<!-- CollectingEvent&#45;&gt;Label -->
<g id="edge27" class="edge">
<title>CollectingEvent&#45;&gt;Label</title>
<path fill="none" stroke="black" d="M352.6,-724.32C360.63,-720.37 368.3,-715.5 374.69,-709.52 402.27,-683.7 382.47,-657.63 410.69,-632.52 422.82,-621.73 439.38,-615.23 454.38,-611.33"/>
<polygon fill="black" stroke="black" points="455,-614.78 463.98,-609.15 453.46,-607.95 455,-614.78"/>
</g>
<!-- CollectingEvent&#45;&gt;PinboardItem -->
<g id="edge30" class="edge">
<title>CollectingEvent&#45;&gt;PinboardItem</title>
<path fill="none" stroke="black" d="M356.79,-725.2C363.74,-721.14 370,-716.01 374.69,-709.52 418.85,-648.49 356.03,-84.35 410.69,-32.52 473.48,27.02 583.49,-8.83 645.23,-36.52"/>
<polygon fill="black" stroke="black" points="643.52,-39.59 654.07,-40.59 646.45,-33.23 643.52,-39.59"/>
</g>
<!-- CollectingEvent&#45;&gt;RelatedOriginRelationship -->
<g id="edge33" class="edge">
<title>CollectingEvent&#45;&gt;RelatedOriginRelationship</title>
<path fill="none" stroke="black" d="M307.74,-762.72C331.29,-803.1 381.96,-885.93 410.69,-902.52 467.47,-935.29 541.7,-941.11 599.44,-939.23"/>
<polygon fill="black" stroke="black" points="599.41,-942.74 609.25,-938.82 599.11,-935.74 599.41,-942.74"/>
</g>
<!-- CollectingEvent&#45;&gt;Role -->
<g id="edge34" class="edge">
<title>CollectingEvent&#45;&gt;Role</title>
<path fill="none" stroke="black" d="M356.21,-725.28C363.34,-721.21 369.81,-716.05 374.69,-709.52 431.2,-633.97 352.3,-360.61 410.69,-286.52 421.21,-273.18 438.52,-266.37 454.47,-262.91"/>
<polygon fill="black" stroke="black" points="454.99,-266.38 464.24,-261.21 453.79,-259.48 454.99,-266.38"/>
</g>
<!-- CollectingEvent&#45;&gt;SubsequentCitation -->
<g id="edge37" class="edge">
<title>CollectingEvent&#45;&gt;SubsequentCitation</title>
<path fill="none" stroke="black" d="M313.35,-763.01C332.42,-787.88 361.35,-829.96 374.69,-871.52 407.26,-972.94 341.9,-1268.19 410.69,-1349.52 424.29,-1365.59 540.87,-1390.33 619.22,-1405.41"/>
<polygon fill="black" stroke="black" points="618.52,-1408.84 629,-1407.28 619.83,-1401.97 618.52,-1408.84"/>
</g>
<!-- CollectingEvent&#45;&gt;Uri -->
<g id="edge41" class="edge">
<title>CollectingEvent&#45;&gt;Uri</title>
<path fill="none" stroke="black" d="M356.02,-725.14C363.19,-721.09 369.71,-715.97 374.69,-709.52 459.47,-599.74 326.13,-509.46 410.69,-399.52 421.36,-385.65 438.91,-377.78 454.98,-373.32"/>
<polygon fill="black" stroke="black" points="455.38,-376.83 464.29,-371.1 453.75,-370.02 455.38,-376.83"/>
</g>
<!-- CollectingEvent&#45;&gt;Uuid -->
<g id="edge42" class="edge">
<title>CollectingEvent&#45;&gt;Uuid</title>
<path fill="none" stroke="black" d="M356.13,-725.22C363.28,-721.16 369.77,-716.02 374.69,-709.52 474.21,-578.18 307.9,-469.3 410.69,-340.52 421.29,-327.24 438.61,-320.44 454.55,-316.97"/>
<polygon fill="black" stroke="black" points="455.06,-320.44 464.3,-315.26 453.84,-313.54 455.06,-320.44"/>
</g>
<!-- CollectingEvent&#45;&gt;VerifierRole -->
<g id="edge43" class="edge">
<title>CollectingEvent&#45;&gt;VerifierRole</title>
<path fill="none" stroke="black" d="M356.29,-725.34C363.42,-721.26 369.85,-716.09 374.69,-709.52 442.09,-618.05 343.48,-291.12 410.69,-199.52 418.04,-189.5 429.01,-182.62 440.52,-177.89"/>
<polygon fill="black" stroke="black" points="441.48,-181.27 449.74,-174.63 439.14,-174.67 441.48,-181.27"/>
</g>
<!-- CollectingEvent&#45;&gt;Version -->
<g id="edge45" class="edge">
<title>CollectingEvent&#45;&gt;Version</title>
<path fill="none" stroke="black" d="M356.76,-725.18C363.72,-721.12 369.98,-716 374.69,-709.52 456.24,-597.35 326.35,-196.59 410.69,-86.52 420.73,-73.41 437.35,-66.6 452.95,-63.08"/>
<polygon fill="black" stroke="black" points="453.32,-66.57 462.53,-61.33 452.07,-59.68 453.32,-66.57"/>
</g>
<!-- CollectingEvent&#45;&gt;Creator -->
<g id="edge46" class="edge">
<title>CollectingEvent&#45;&gt;Creator</title>
<path fill="none" stroke="black" stroke-dasharray="5,2" d="M363.95,-718.96C367.87,-716.18 371.51,-713.05 374.69,-709.52 415.13,-664.68 362.67,-615.12 410.69,-578.52 468.84,-534.19 514.86,-537.23 575.19,-578.52 671.52,-644.43 687.44,-803.45 690.06,-857.32"/>
<polygon fill="black" stroke="black" points="362.34,-715.84 355.63,-724.04 365.99,-721.81 362.34,-715.84"/>
</g>
<!-- CollectingEvent&#45;&gt;GeographicArea -->
<g id="edge47" class="edge">
<title>CollectingEvent&#45;&gt;GeographicArea</title>
<path fill="none" stroke="black" stroke-dasharray="5,2" d="M365.79,-718.87C369.12,-716.12 372.14,-713.02 374.69,-709.52 449.48,-607.24 333.36,-240.87 410.69,-140.52 417.95,-131.1 428.61,-124.93 439.83,-120.9"/>
<polygon fill="black" stroke="black" points="363.84,-715.97 357.59,-724.52 367.81,-721.74 363.84,-715.97"/>
</g>
<!-- CollectingEvent&#45;&gt;Project -->
<g id="edge48" class="edge">
<title>CollectingEvent&#45;&gt;Project</title>
<path fill="none" stroke="black" stroke-dasharray="5,2" d="M321.24,-771.39C343.02,-795.36 375.99,-827.9 410.69,-848.52 427.69,-858.61 448.96,-865.51 465.47,-869.8"/>
<polygon fill="black" stroke="black" points="324.01,-769.24 314.74,-764.11 318.79,-773.9 324.01,-769.24"/>
</g>
<!-- CollectingEvent&#45;&gt;Updater -->
<g id="edge49" class="edge">
<title>CollectingEvent&#45;&gt;Updater</title>
<path fill="none" stroke="black" stroke-dasharray="5,2" d="M319.71,-771.68C338.29,-797.02 362.56,-834.51 374.69,-871.52 403.25,-958.64 343.09,-1220.58 410.69,-1282.52 423.8,-1294.53 756.14,-1294.18 771.94,-1281.52 834.16,-1231.67 858.1,-966.49 863.55,-893.9"/>
<polygon fill="black" stroke="black" points="322.61,-769.71 313.81,-763.8 317,-773.9 322.61,-769.71"/>
</g>
<!-- CollectingEvent&#45;&gt;AccessionProviderRole -->
<g id="edge50" class="edge">
<title>CollectingEvent&#45;&gt;AccessionProviderRole</title>
<path fill="none" stroke="black" d="M364.62,-719.38C368.37,-716.5 371.79,-713.23 374.69,-709.52 451.24,-611.78 327.3,-524.49 410.69,-432.52 461.1,-376.93 508.31,-428.54 575.19,-394.52 611.76,-375.92 646.28,-343.26 667.86,-320.34"/>
<polygon fill="none" stroke="black" points="358.55,-728.14 354.16,-721.46 360.85,-717.07 365.24,-723.75 358.55,-728.14"/>
<polyline fill="none" stroke="black" points="363.05,-720.41 364.72,-719.31"/>
<polygon fill="none" stroke="black" points="671.66,-310.33 677.54,-315.76 672.11,-321.64 666.23,-316.21 671.66,-310.33"/>
<polyline fill="none" stroke="black" points="669.17,-318.92 667.81,-320.39"/>
</g>
<!-- CollectingEvent&#45;&gt;DeaccessionRecipientRole -->
<g id="edge51" class="edge">
<title>CollectingEvent&#45;&gt;DeaccessionRecipientRole</title>
<path fill="none" stroke="black" d="M364.85,-719.56C368.55,-716.63 371.89,-713.31 374.69,-709.52 437.96,-624.09 332.75,-304.8 410.69,-232.52 470.66,-176.9 572.69,-197.85 635.6,-218.74"/>
<polygon fill="none" stroke="black" points="358.91,-728.36 354.45,-721.72 361.09,-717.26 365.55,-723.9 358.91,-728.36"/>
<polyline fill="none" stroke="black" points="363.32,-720.58 364.98,-719.47"/>
<polygon fill="none" stroke="black" points="646.17,-218.13 643.57,-225.7 636.01,-223.11 638.6,-215.54 646.17,-218.13"/>
<polyline fill="none" stroke="black" points="637.3,-219.32 635.41,-218.67"/>
</g>
<!-- CollectingEvent&#45;&gt;OriginCitation -->
<g id="edge52" class="edge">
<title>CollectingEvent&#45;&gt;OriginCitation</title>
<path fill="none" stroke="black" d="M319.04,-770.66C337.75,-795.99 362.52,-833.98 374.69,-871.52 405.23,-965.68 343.25,-1243.06 410.69,-1315.52 440.07,-1347.07 560.54,-1355.57 633.51,-1357.8"/>
<polygon fill="none" stroke="black" points="310.06,-765.38 316.46,-760.57 321.27,-766.96 314.87,-771.77 310.06,-765.38"/>
<polyline fill="none" stroke="black" points="318.07,-769.36 319.27,-770.96"/>
<polygon fill="none" stroke="black" points="643.53,-1354.07 643.31,-1362.07 635.31,-1361.85 635.53,-1353.85 643.53,-1354.07"/>
<polyline fill="none" stroke="black" points="635.42,-1357.85 633.42,-1357.79"/>
</g>
<!-- CollectingEvent&#45;&gt;VerbatimDataGeoreference -->
<g id="edge54" class="edge">
<title>CollectingEvent&#45;&gt;VerbatimDataGeoreference</title>
<path fill="none" stroke="black" d="M318.66,-770.79C337.15,-796.19 361.81,-834.22 374.69,-871.52 396.69,-935.19 368.1,-1120.33 410.69,-1172.52 411.1,-1173.02 411.53,-1173.51 411.96,-1174"/>
<polygon fill="none" stroke="black" points="309.74,-765.45 316.17,-760.69 320.93,-767.12 314.5,-771.88 309.74,-765.45"/>
<polyline fill="none" stroke="black" points="317.71,-769.5 318.9,-771.11"/>
<polygon fill="none" stroke="black" points="422,-1177.81 416.58,-1183.69 410.7,-1178.28 416.11,-1172.39 422,-1177.81"/>
<polyline fill="none" stroke="black" points="413.4,-1175.33 411.93,-1173.98"/>
</g>
<!-- CollectionObject&#45;&gt;CollectionObjectOtu -->
<g id="edge3" class="edge">
<title>CollectionObject&#45;&gt;CollectionObjectOtu</title>
<path fill="none" stroke="black" stroke-dasharray="1,5" d="M547.41,-1254.52C568.43,-1254.52 592.92,-1254.52 615.64,-1254.52"/>
<polygon fill="black" stroke="black" points="615.47,-1258.02 625.47,-1254.52 615.47,-1251.02 615.47,-1258.02"/>
</g>
<!-- Source&#45;&gt;SubsequentCitation -->
<!-- Source&#45;&gt;OriginCitation -->
<!-- CitationTopic&#45;&gt;Topic -->
<g id="edge40" class="edge">
<title>CitationTopic&#45;&gt;Topic</title>
<path fill="none" stroke="black" stroke-dasharray="1,5" d="M339.74,-1479.52C374.29,-1479.52 421.6,-1479.52 454.26,-1479.52"/>
<polygon fill="black" stroke="black" points="454.07,-1483.02 464.07,-1479.52 454.07,-1476.02 454.07,-1483.02"/>
</g>
<!-- CollectorRole&#45;&gt;Collector -->
<g id="edge6" class="edge">
<title>CollectorRole&#45;&gt;Collector</title>
<path fill="none" stroke="black" stroke-dasharray="1,5" d="M539.05,-1145.52C571.47,-1145.52 614.92,-1145.52 646.98,-1145.52"/>
<polygon fill="black" stroke="black" points="646.73,-1149.02 656.73,-1145.52 646.73,-1142.02 646.73,-1149.02"/>
</g>
<!-- Conveyance&#45;&gt;Sound -->
<g id="edge35" class="edge">
<title>Conveyance&#45;&gt;Sound</title>
<path fill="none" stroke="black" stroke-dasharray="1,5" d="M534.68,-1091.52C569.5,-1091.52 619.19,-1091.52 653.04,-1091.52"/>
<polygon fill="black" stroke="black" points="652.8,-1095.02 662.8,-1091.52 652.8,-1088.02 652.8,-1095.02"/>
</g>
<!-- OriginRelationship&#45;&gt;DerivedSound -->
<g id="edge12" class="edge">
<title>OriginRelationship&#45;&gt;DerivedSound</title>
<path fill="none" stroke="black" stroke-dasharray="1,5" d="M552.94,-972.32C578.25,-974.38 607.72,-976.77 632.88,-978.82"/>
<polygon fill="black" stroke="black" points="632.35,-982.29 642.6,-979.61 632.92,-975.31 632.35,-982.29"/>
</g>
<!-- OriginRelationship&#45;&gt;RelatedOriginRelationship -->
<!-- Documentation&#45;&gt;Document -->
<g id="edge14" class="edge">
<title>Documentation&#45;&gt;Document</title>
<path fill="none" stroke="black" stroke-dasharray="1,5" d="M543.31,-1037.52C574.07,-1037.52 613.42,-1037.52 643.71,-1037.52"/>
<polygon fill="black" stroke="black" points="643.32,-1041.02 653.32,-1037.52 643.32,-1034.02 643.32,-1041.02"/>
</g>
<!-- Georeference&#45;&gt;ErrorGeographicItem -->
<g id="edge15" class="edge">
<title>Georeference&#45;&gt;ErrorGeographicItem</title>
<path fill="none" stroke="black" stroke-dasharray="1,5" d="M537.58,-525.5C559.95,-531.65 587.87,-539.31 613.7,-546.41"/>
<polygon fill="black" stroke="black" points="612.6,-549.73 623.17,-549.01 614.45,-542.98 612.6,-549.73"/>
</g>
<!-- Georeference&#45;&gt;GeographicItem -->
<g id="edge19" class="edge">
<title>Georeference&#45;&gt;GeographicItem</title>
<path fill="none" stroke="black" stroke-dasharray="1,5" d="M537.58,-513.52C564.05,-513.52 598.27,-513.52 627.63,-513.52"/>
<polygon fill="black" stroke="black" points="627.53,-517.02 637.53,-513.52 627.53,-510.02 627.53,-517.02"/>
</g>
<!-- FieldOccurrence&#45;&gt;FieldOccurrenceOtu -->
<g id="edge16" class="edge">
<title>FieldOccurrence&#45;&gt;FieldOccurrenceOtu</title>
<path fill="none" stroke="black" stroke-dasharray="1,5" d="M546.38,-459.52C567.98,-459.52 593.4,-459.52 616.83,-459.52"/>
<polygon fill="black" stroke="black" points="616.63,-463.02 626.63,-459.52 616.63,-456.02 616.63,-463.02"/>
</g>
<!-- Role&#45;&gt;Verifier -->
<!-- Role&#45;&gt;AccessionProviderRole -->
<!-- Role&#45;&gt;DeaccessionRecipientRole -->
<!-- SubsequentCitation&#45;&gt;SubsequentSource -->
<g id="edge38" class="edge">
<title>SubsequentCitation&#45;&gt;SubsequentSource</title>
<path fill="none" stroke="black" stroke-dasharray="1,5" d="M752.81,-1418.52C766.82,-1418.52 781.84,-1418.52 796.18,-1418.52"/>
<polygon fill="black" stroke="black" points="795.99,-1422.02 805.99,-1418.52 795.99,-1415.02 795.99,-1422.02"/>
</g>
<!-- VerifierRole&#45;&gt;Verifier -->
<g id="edge44" class="edge">
<title>VerifierRole&#45;&gt;Verifier</title>
<path fill="none" stroke="black" stroke-dasharray="1,5" d="M534.68,-169.38C568.9,-170.95 617.47,-173.17 651.27,-174.72"/>
<polygon fill="black" stroke="black" points="650.9,-178.2 661.05,-175.17 651.22,-171.21 650.9,-178.2"/>
</g>
<!-- Version&#45;&gt;PinboardItem -->
<!-- Creator&#45;&gt;Updater -->
<!-- Project&#45;&gt;Creator -->
<!-- Citation -->
<g id="node1" class="node">
<title>Citation</title>
<g id="a_node1"><a xlink:href="/develop/Data/models.html#citation" xlink:title="Citation" target="_top">
<ellipse fill="#abcdef" stroke="#dddeee" cx="88.71" cy="-1424.52" rx="40.6" ry="18"/>
<text text-anchor="middle" x="88.71" y="-1419.47" font-family="Times,serif" font-size="14.00">Citation</text>
</a>
</g>
</g>
<!-- Confidence -->
<g id="node2" class="node">
<title>Confidence</title>
<g id="a_node2"><a xlink:href="/develop/Data/models.html#confidence" xlink:title="Confidence" target="_top">
<ellipse fill="#abcdef" stroke="#dddeee" cx="88.71" cy="-898.52" rx="53.4" ry="18"/>
<text text-anchor="middle" x="88.71" y="-893.47" font-family="Times,serif" font-size="14.00">Confidence</text>
</a>
</g>
</g>
<!-- DataAttribute -->
<g id="node3" class="node">
<title>DataAttribute</title>
<g id="a_node3"><a xlink:href="/develop/Data/models.html#data-attribute" xlink:title="DataAttribute" target="_top">
<ellipse fill="#abcdef" stroke="#dddeee" cx="88.71" cy="-790.52" rx="61.59" ry="18"/>
<text text-anchor="middle" x="88.71" y="-785.47" font-family="Times,serif" font-size="14.00">DataAttribute</text>
</a>
</g>
</g>
<!-- Depiction -->
<g id="node4" class="node">
<title>Depiction</title>
<g id="a_node4"><a xlink:href="/develop/Data/models.html#depiction" xlink:title="Depiction" target="_top">
<ellipse fill="#abcdef" stroke="#dddeee" cx="88.71" cy="-682.52" rx="47.26" ry="18"/>
<text text-anchor="middle" x="88.71" y="-677.47" font-family="Times,serif" font-size="14.00">Depiction</text>
</a>
</g>
</g>
<!-- Identifier -->
<g id="node5" class="node">
<title>Identifier</title>
<g id="a_node5"><a xlink:href="/develop/Data/models.html#identifier" xlink:title="Identifier" target="_top">
<ellipse fill="#abcdef" stroke="#dddeee" cx="88.71" cy="-736.52" rx="45.21" ry="18"/>
<text text-anchor="middle" x="88.71" y="-731.47" font-family="Times,serif" font-size="14.00">Identifier</text>
</a>
</g>
</g>
<!-- Tag -->
<g id="node6" class="node">
<title>Tag</title>
<g id="a_node6"><a xlink:href="/develop/Data/models.html#tag" xlink:title="Tag" target="_top">
<ellipse fill="#abcdef" stroke="#dddeee" cx="88.71" cy="-628.52" rx="27" ry="18"/>
<text text-anchor="middle" x="88.71" y="-623.47" font-family="Times,serif" font-size="14.00">Tag</text>
</a>
</g>
</g>
<!-- Note -->
<g id="node7" class="node">
<title>Note</title>
<g id="a_node7"><a xlink:href="/develop/Data/models.html#note" xlink:title="Note" target="_top">
<ellipse fill="#abcdef" stroke="#dddeee" cx="88.71" cy="-844.52" rx="28.83" ry="18"/>
<text text-anchor="middle" x="88.71" y="-839.47" font-family="Times,serif" font-size="14.00">Note</text>
</a>
</g>
</g>
<!-- ProtocolRelationship -->
<g id="node8" class="node">
<title>ProtocolRelationship</title>
<g id="a_node8"><a xlink:href="/develop/Data/models.html#protocol-relationship" xlink:title="ProtocolRelationship" target="_top">
<ellipse fill="#abcdef" stroke="#dddeee" cx="88.71" cy="-574.52" rx="88.71" ry="18"/>
<text text-anchor="middle" x="88.71" y="-569.47" font-family="Times,serif" font-size="14.00">ProtocolRelationship</text>
</a>
</g>
</g>
<!-- CollectingEvent -->
<g id="node9" class="node">
<title>CollectingEvent</title>
<g id="a_node9"><a xlink:href="/develop/Data/models.html#collecting-event" xlink:title="CollectingEvent" target="_top">
<polygon fill="#cdefab" stroke="#dedede" points="370.69,-733.06 370.69,-747.97 325.8,-758.52 262.32,-758.52 217.43,-747.97 217.43,-733.06 262.32,-722.52 325.8,-722.52 370.69,-733.06"/>
<polygon fill="none" stroke="#dedede" points="374.69,-729.89 374.69,-751.14 326.27,-762.52 261.85,-762.52 213.43,-751.14 213.43,-729.89 261.85,-718.52 326.27,-718.52 374.69,-729.89"/>
<text text-anchor="middle" x="294.06" y="-735.47" font-family="Times,serif" font-size="14.00">CollectingEvent</text>
</a>
</g>
</g>
<!-- CollectionObject -->
<g id="node10" class="node">
<title>CollectionObject</title>
<g id="a_node10"><a xlink:href="/develop/Data/models.html#collection-object" xlink:title="CollectionObject" target="_top">
<path fill="#fedcba" stroke="#dddeee" d="M450.82,-1236.52C450.82,-1236.52 535.07,-1236.52 535.07,-1236.52 541.07,-1236.52 547.07,-1242.52 547.07,-1248.52 547.07,-1248.52 547.07,-1260.52 547.07,-1260.52 547.07,-1266.52 541.07,-1272.52 535.07,-1272.52 535.07,-1272.52 450.82,-1272.52 450.82,-1272.52 444.82,-1272.52 438.82,-1266.52 438.82,-1260.52 438.82,-1260.52 438.82,-1248.52 438.82,-1248.52 438.82,-1242.52 444.82,-1236.52 450.82,-1236.52"/>
<text text-anchor="middle" x="492.94" y="-1249.72" font-family="Times,serif" font-size="14.00">CollectionObject</text>
</a>
</g>
</g>
<!-- Source -->
<g id="node11" class="node">
<title>Source</title>
<g id="a_node11"><a xlink:href="/develop/Data/models.html#source" xlink:title="Source" target="_top">
<path fill="#fedcba" stroke="#dddeee" d="M477.94,-1406.52C477.94,-1406.52 507.94,-1406.52 507.94,-1406.52 513.94,-1406.52 519.94,-1412.52 519.94,-1418.52 519.94,-1418.52 519.94,-1430.52 519.94,-1430.52 519.94,-1436.52 513.94,-1442.52 507.94,-1442.52 507.94,-1442.52 477.94,-1442.52 477.94,-1442.52 471.94,-1442.52 465.94,-1436.52 465.94,-1430.52 465.94,-1430.52 465.94,-1418.52 465.94,-1418.52 465.94,-1412.52 471.94,-1406.52 477.94,-1406.52"/>
<text text-anchor="middle" x="492.94" y="-1419.72" font-family="Times,serif" font-size="14.00">Source</text>
</a>
</g>
</g>
<!-- CitationTopic -->
<g id="node12" class="node">
<title>CitationTopic</title>
<g id="a_node12"><a xlink:href="/develop/Data/models.html#citation-topic" xlink:title="CitationTopic" target="_top">
<polygon fill="#eeefff" stroke="#dddeee" points="339.56,-1497.52 248.56,-1497.52 248.56,-1461.52 339.56,-1461.52 339.56,-1497.52"/>
<text text-anchor="middle" x="294.06" y="-1474.47" font-family="Times,serif" font-size="14.00">CitationTopic</text>
</a>
</g>
</g>
<!-- CollectionObjectOtu -->
<g id="node13" class="node">
<title>CollectionObjectOtu</title>
<g id="a_node13"><a xlink:href="/develop/Data/models.html#collection-object-otu" xlink:title="CollectionObjectOtu" target="_top">
<polygon fill="#eeefff" stroke="#dddeee" points="755.82,-1272.52 627.32,-1272.52 627.32,-1236.52 755.82,-1236.52 755.82,-1272.52"/>
<text text-anchor="middle" x="691.57" y="-1249.47" font-family="Times,serif" font-size="14.00">CollectionObjectOtu</text>
</a>
</g>
</g>
<!-- CollectorRole -->
<g id="node14" class="node">
<title>CollectorRole</title>
<g id="a_node14"><a xlink:href="/develop/Data/models.html#collector-role" xlink:title="CollectorRole" target="_top">
<polygon fill="#eeefff" stroke="#dddeee" points="538.82,-1163.52 447.07,-1163.52 447.07,-1127.52 538.82,-1127.52 538.82,-1163.52"/>
<text text-anchor="middle" x="492.94" y="-1140.47" font-family="Times,serif" font-size="14.00">CollectorRole</text>
</a>
</g>
</g>
<!-- Collector -->
<g id="node15" class="node">
<title>Collector</title>
<g id="a_node15"><a xlink:href="/develop/Data/models.html#collector" xlink:title="Collector" target="_top">
<polygon fill="#eeefff" stroke="#dddeee" points="724.69,-1163.52 658.44,-1163.52 658.44,-1127.52 724.69,-1127.52 724.69,-1163.52"/>
<text text-anchor="middle" x="691.57" y="-1140.47" font-family="Times,serif" font-size="14.00">Collector</text>
</a>
</g>
</g>
<!-- ConfidenceLevel -->
<g id="node16" class="node">
<title>ConfidenceLevel</title>
<g id="a_node16"><a xlink:href="/develop/Data/models.html#confidence-level" xlink:title="ConfidenceLevel" target="_top">
<polygon fill="#eeefff" stroke="#dddeee" points="348.56,-916.52 239.56,-916.52 239.56,-880.52 348.56,-880.52 348.56,-916.52"/>
<text text-anchor="middle" x="294.06" y="-893.47" font-family="Times,serif" font-size="14.00">ConfidenceLevel</text>
</a>
</g>
</g>
<!-- Conveyance -->
<g id="node17" class="node">
<title>Conveyance</title>
<g id="a_node17"><a xlink:href="/develop/Data/models.html#conveyance" xlink:title="Conveyance" target="_top">
<polygon fill="#eeefff" stroke="#dddeee" points="534.32,-1109.52 451.57,-1109.52 451.57,-1073.52 534.32,-1073.52 534.32,-1109.52"/>
<text text-anchor="middle" x="492.94" y="-1086.47" font-family="Times,serif" font-size="14.00">Conveyance</text>
</a>
</g>
</g>
<!-- OriginRelationship -->
<g id="node18" class="node">
<title>OriginRelationship</title>
<g id="a_node18"><a xlink:href="/develop/Data/models.html#origin-relationship" xlink:title="OriginRelationship" target="_top">
<polygon fill="#eeefff" stroke="#dddeee" points="552.69,-985.52 433.19,-985.52 433.19,-949.52 552.69,-949.52 552.69,-985.52"/>
<text text-anchor="middle" x="492.94" y="-962.47" font-family="Times,serif" font-size="14.00">OriginRelationship</text>
</a>
</g>
</g>
<!-- DerivedSound -->
<g id="node19" class="node">
<title>DerivedSound</title>
<g id="a_node19"><a xlink:href="/develop/Data/models.html#derived-sound" xlink:title="DerivedSound" target="_top">
<polygon fill="#eeefff" stroke="#dddeee" points="738.57,-1001.52 644.57,-1001.52 644.57,-965.52 738.57,-965.52 738.57,-1001.52"/>
<text text-anchor="middle" x="691.57" y="-978.47" font-family="Times,serif" font-size="14.00">DerivedSound</text>
</a>
</g>
</g>
<!-- Documentation -->
<g id="node20" class="node">
<title>Documentation</title>
<g id="a_node20"><a xlink:href="/develop/Data/models.html#documentation" xlink:title="Documentation" target="_top">
<polygon fill="#eeefff" stroke="#dddeee" points="542.94,-1055.52 442.94,-1055.52 442.94,-1019.52 542.94,-1019.52 542.94,-1055.52"/>
<text text-anchor="middle" x="492.94" y="-1032.47" font-family="Times,serif" font-size="14.00">Documentation</text>
</a>
</g>
</g>
<!-- Document -->
<g id="node21" class="node">
<title>Document</title>
<g id="a_node21"><a xlink:href="/develop/Data/models.html#document" xlink:title="Document" target="_top">
<polygon fill="#eeefff" stroke="#dddeee" points="728.07,-1055.52 655.07,-1055.52 655.07,-1019.52 728.07,-1019.52 728.07,-1055.52"/>
<text text-anchor="middle" x="691.57" y="-1032.47" font-family="Times,serif" font-size="14.00">Document</text>
</a>
</g>
</g>
<!-- Georeference -->
<g id="node22" class="node">
<title>Georeference</title>
<g id="a_node22"><a xlink:href="/develop/Data/models.html#georeference" xlink:title="Georeference" target="_top">
<polygon fill="#eeefff" stroke="#dddeee" points="537.32,-531.52 448.57,-531.52 448.57,-495.52 537.32,-495.52 537.32,-531.52"/>
<text text-anchor="middle" x="492.94" y="-508.47" font-family="Times,serif" font-size="14.00">Georeference</text>
</a>
</g>
</g>
<!-- ErrorGeographicItem -->
<g id="node23" class="node">
<title>ErrorGeographicItem</title>
<g id="a_node23"><a xlink:href="/develop/Data/models.html#error-geographic-item" xlink:title="ErrorGeographicItem" target="_top">
<polygon fill="#eeefff" stroke="#dddeee" points="758.07,-585.52 625.07,-585.52 625.07,-549.52 758.07,-549.52 758.07,-585.52"/>
<text text-anchor="middle" x="691.57" y="-562.47" font-family="Times,serif" font-size="14.00">ErrorGeographicItem</text>
</a>
</g>
</g>
<!-- FieldOccurrence -->
<g id="node24" class="node">
<title>FieldOccurrence</title>
<g id="a_node24"><a xlink:href="/develop/Data/models.html#field-occurrence" xlink:title="FieldOccurrence" target="_top">
<polygon fill="#eeefff" stroke="#dddeee" points="545.94,-477.52 439.94,-477.52 439.94,-441.52 545.94,-441.52 545.94,-477.52"/>
<text text-anchor="middle" x="492.94" y="-454.47" font-family="Times,serif" font-size="14.00">FieldOccurrence</text>
</a>
</g>
</g>
<!-- FieldOccurrenceOtu -->
<g id="node25" class="node">
<title>FieldOccurrenceOtu</title>
<g id="a_node25"><a xlink:href="/develop/Data/models.html#field-occurrence-otu" xlink:title="FieldOccurrenceOtu" target="_top">
<polygon fill="#eeefff" stroke="#dddeee" points="754.69,-477.52 628.44,-477.52 628.44,-441.52 754.69,-441.52 754.69,-477.52"/>
<text text-anchor="middle" x="691.57" y="-454.47" font-family="Times,serif" font-size="14.00">FieldOccurrenceOtu</text>
</a>
</g>
</g>
<!-- GeoLocateGeoreference -->
<g id="node26" class="node">
<title>GeoLocateGeoreference</title>
<g id="a_node26"><a xlink:href="/develop/Data/models.html#geo-locate-georeference" xlink:title="GeoLocateGeoreference" target="_top">
<polygon fill="#eeefff" stroke="#dddeee" points="566.94,-839.52 418.94,-839.52 418.94,-803.52 566.94,-803.52 566.94,-839.52"/>
<text text-anchor="middle" x="492.94" y="-816.47" font-family="Times,serif" font-size="14.00">GeoLocateGeoreference</text>
</a>
</g>
</g>
<!-- GeographicItem -->
<g id="node27" class="node">
<title>GeographicItem</title>
<g id="a_node27"><a xlink:href="/develop/Data/models.html#geographic-item" xlink:title="GeographicItem" target="_top">
<polygon fill="#eeefff" stroke="#dddeee" points="743.82,-531.52 639.32,-531.52 639.32,-495.52 743.82,-495.52 743.82,-531.52"/>
<text text-anchor="middle" x="691.57" y="-508.47" font-family="Times,serif" font-size="14.00">GeographicItem</text>
</a>
</g>
</g>
<!-- GPXGeoreference -->
<g id="node28" class="node">
<title>GPXGeoreference</title>
<g id="a_node28"><a xlink:href="/develop/Data/models.html#gpx-georeference" xlink:title="GPXGeoreference" target="_top">
<polygon fill="#eeefff" stroke="#dddeee" points="550.82,-785.52 435.07,-785.52 435.07,-749.52 550.82,-749.52 550.82,-785.52"/>
<text text-anchor="middle" x="492.94" y="-762.47" font-family="Times,serif" font-size="14.00">GPXGeoreference</text>
</a>
</g>
</g>
<!-- Image -->
<g id="node29" class="node">
<title>Image</title>
<g id="a_node29"><a xlink:href="/develop/Data/models.html#image" xlink:title="Image" target="_top">
<polygon fill="#eeefff" stroke="#dddeee" points="321.06,-700.52 267.06,-700.52 267.06,-664.52 321.06,-664.52 321.06,-700.52"/>
<text text-anchor="middle" x="294.06" y="-677.47" font-family="Times,serif" font-size="14.00">Image</text>
</a>
</g>
</g>
<!-- ImportAttribute -->
<g id="node30" class="node">
<title>ImportAttribute</title>
<g id="a_node30"><a xlink:href="/develop/Data/models.html#import-attribute" xlink:title="ImportAttribute" target="_top">
<polygon fill="#eeefff" stroke="#dddeee" points="544.07,-731.52 441.82,-731.52 441.82,-695.52 544.07,-695.52 544.07,-731.52"/>
<text text-anchor="middle" x="492.94" y="-708.47" font-family="Times,serif" font-size="14.00">ImportAttribute</text>
</a>
</g>
</g>
<!-- InternalAttribute -->
<g id="node31" class="node">
<title>InternalAttribute</title>
<g id="a_node31"><a xlink:href="/develop/Data/models.html#internal-attribute" xlink:title="InternalAttribute" target="_top">
<polygon fill="#eeefff" stroke="#dddeee" points="546.32,-677.52 439.57,-677.52 439.57,-641.52 546.32,-641.52 546.32,-677.52"/>
<text text-anchor="middle" x="492.94" y="-654.47" font-family="Times,serif" font-size="14.00">InternalAttribute</text>
</a>
</g>
</g>
<!-- Keyword -->
<g id="node32" class="node">
<title>Keyword</title>
<g id="a_node32"><a xlink:href="/develop/Data/models.html#keyword" xlink:title="Keyword" target="_top">
<polygon fill="#eeefff" stroke="#dddeee" points="327.19,-646.52 260.94,-646.52 260.94,-610.52 327.19,-610.52 327.19,-646.52"/>
<text text-anchor="middle" x="294.06" y="-623.47" font-family="Times,serif" font-size="14.00">Keyword</text>
</a>
</g>
</g>
<!-- Label -->
<g id="node33" class="node">
<title>Label</title>
<g id="a_node33"><a xlink:href="/develop/Data/models.html#label" xlink:title="Label" target="_top">
<polygon fill="#eeefff" stroke="#dddeee" points="519.94,-623.52 465.94,-623.52 465.94,-587.52 519.94,-587.52 519.94,-623.52"/>
<text text-anchor="middle" x="492.94" y="-600.47" font-family="Times,serif" font-size="14.00">Label</text>
</a>
</g>
</g>
<!-- PinboardItem -->
<g id="node34" class="node">
<title>PinboardItem</title>
<g id="a_node34"><a xlink:href="/develop/Data/models.html#pinboard-item" xlink:title="PinboardItem" target="_top">
<polygon fill="#eeefff" stroke="#dddeee" points="736.69,-77.52 646.44,-77.52 646.44,-41.52 736.69,-41.52 736.69,-77.52"/>
<text text-anchor="middle" x="691.57" y="-54.47" font-family="Times,serif" font-size="14.00">PinboardItem</text>
</a>
</g>
</g>
<!-- Protocol -->
<g id="node35" class="node">
<title>Protocol</title>
<g id="a_node35"><a xlink:href="/develop/Data/models.html#protocol" xlink:title="Protocol" target="_top">
<polygon fill="#eeefff" stroke="#dddeee" points="324.94,-592.52 263.19,-592.52 263.19,-556.52 324.94,-556.52 324.94,-592.52"/>
<text text-anchor="middle" x="294.06" y="-569.47" font-family="Times,serif" font-size="14.00">Protocol</text>
</a>
</g>
</g>
<!-- RelatedOriginRelationship -->
<g id="node36" class="node">
<title>RelatedOriginRelationship</title>
<g id="a_node36"><a xlink:href="/develop/Data/models.html#related-origin-relationship" xlink:title="RelatedOriginRelationship" target="_top">
<polygon fill="#eeefff" stroke="#dddeee" points="771.94,-947.52 611.19,-947.52 611.19,-911.52 771.94,-911.52 771.94,-947.52"/>
<text text-anchor="middle" x="691.57" y="-924.47" font-family="Times,serif" font-size="14.00">RelatedOriginRelationship</text>
</a>
</g>
</g>
<!-- Role -->
<g id="node37" class="node">
<title>Role</title>
<g id="a_node37"><a xlink:href="/develop/Data/models.html#role" xlink:title="Role" target="_top">
<polygon fill="#eeefff" stroke="#dddeee" points="519.94,-277.52 465.94,-277.52 465.94,-241.52 519.94,-241.52 519.94,-277.52"/>
<text text-anchor="middle" x="492.94" y="-254.47" font-family="Times,serif" font-size="14.00">Role</text>
</a>
</g>
</g>
<!-- Sound -->
<g id="node38" class="node">
<title>Sound</title>
<g id="a_node38"><a xlink:href="/develop/Data/models.html#sound" xlink:title="Sound" target="_top">
<polygon fill="#eeefff" stroke="#dddeee" points="718.57,-1109.52 664.57,-1109.52 664.57,-1073.52 718.57,-1073.52 718.57,-1109.52"/>
<text text-anchor="middle" x="691.57" y="-1086.47" font-family="Times,serif" font-size="14.00">Sound</text>
</a>
</g>
</g>
<!-- SubsequentCitation -->
<g id="node39" class="node">
<title>SubsequentCitation</title>
<g id="a_node39"><a xlink:href="/develop/Data/models.html#subsequent-citation" xlink:title="SubsequentCitation" target="_top">
<polygon fill="#eeefff" stroke="#dddeee" points="752.44,-1436.52 630.69,-1436.52 630.69,-1400.52 752.44,-1400.52 752.44,-1436.52"/>
<text text-anchor="middle" x="691.57" y="-1413.47" font-family="Times,serif" font-size="14.00">SubsequentCitation</text>
</a>
</g>
</g>
<!-- SubsequentSource -->
<g id="node40" class="node">
<title>SubsequentSource</title>
<g id="a_node40"><a xlink:href="/develop/Data/models.html#subsequent-source" xlink:title="SubsequentSource" target="_top">
<polygon fill="#eeefff" stroke="#dddeee" points="923.69,-1436.52 807.94,-1436.52 807.94,-1400.52 923.69,-1400.52 923.69,-1436.52"/>
<text text-anchor="middle" x="865.82" y="-1413.47" font-family="Times,serif" font-size="14.00">SubsequentSource</text>
</a>
</g>
</g>
<!-- Topic -->
<g id="node41" class="node">
<title>Topic</title>
<g id="a_node41"><a xlink:href="/develop/Data/models.html#topic" xlink:title="Topic" target="_top">
<polygon fill="#eeefff" stroke="#dddeee" points="519.94,-1497.52 465.94,-1497.52 465.94,-1461.52 519.94,-1461.52 519.94,-1497.52"/>
<text text-anchor="middle" x="492.94" y="-1474.47" font-family="Times,serif" font-size="14.00">Topic</text>
</a>
</g>
</g>
<!-- Uri -->
<g id="node42" class="node">
<title>Uri</title>
<g id="a_node42"><a xlink:href="/develop/Data/models.html#uri" xlink:title="Uri" target="_top">
<polygon fill="#eeefff" stroke="#dddeee" points="519.94,-385.52 465.94,-385.52 465.94,-349.52 519.94,-349.52 519.94,-385.52"/>
<text text-anchor="middle" x="492.94" y="-362.47" font-family="Times,serif" font-size="14.00">Uri</text>
</a>
</g>
</g>
<!-- Uuid -->
<g id="node43" class="node">
<title>Uuid</title>
<g id="a_node43"><a xlink:href="/develop/Data/models.html#uuid" xlink:title="Uuid" target="_top">
<polygon fill="#eeefff" stroke="#dddeee" points="519.94,-331.52 465.94,-331.52 465.94,-295.52 519.94,-295.52 519.94,-331.52"/>
<text text-anchor="middle" x="492.94" y="-308.47" font-family="Times,serif" font-size="14.00">Uuid</text>
</a>
</g>
</g>
<!-- VerifierRole -->
<g id="node44" class="node">
<title>VerifierRole</title>
<g id="a_node44"><a xlink:href="/develop/Data/models.html#verifier-role" xlink:title="VerifierRole" target="_top">
<polygon fill="#eeefff" stroke="#dddeee" points="534.32,-185.52 451.57,-185.52 451.57,-149.52 534.32,-149.52 534.32,-185.52"/>
<text text-anchor="middle" x="492.94" y="-162.47" font-family="Times,serif" font-size="14.00">VerifierRole</text>
</a>
</g>
</g>
<!-- Verifier -->
<g id="node45" class="node">
<title>Verifier</title>
<g id="a_node45"><a xlink:href="/develop/Data/models.html#verifier" xlink:title="Verifier" target="_top">
<polygon fill="#eeefff" stroke="#dddeee" points="720.19,-194.52 662.94,-194.52 662.94,-158.52 720.19,-158.52 720.19,-194.52"/>
<text text-anchor="middle" x="691.57" y="-171.47" font-family="Times,serif" font-size="14.00">Verifier</text>
</a>
</g>
</g>
<!-- Version -->
<g id="node46" class="node">
<title>Version</title>
<g id="a_node46"><a xlink:href="/develop/Data/models.html#version" xlink:title="Version" target="_top">
<polygon fill="#eeefff" stroke="#dddeee" points="521.57,-77.52 464.32,-77.52 464.32,-41.52 521.57,-41.52 521.57,-77.52"/>
<text text-anchor="middle" x="492.94" y="-54.47" font-family="Times,serif" font-size="14.00">Version</text>
</a>
</g>
</g>
<!-- Creator -->
<g id="node47" class="node">
<title>Creator</title>
<g id="a_node47"><a xlink:href="/develop/Data/models.html#creator" xlink:title="Creator" target="_top">
<polygon fill="#eeefff" stroke="#dddeee" points="719.82,-893.52 663.32,-893.52 663.32,-857.52 719.82,-857.52 719.82,-893.52"/>
<text text-anchor="middle" x="691.57" y="-870.47" font-family="Times,serif" font-size="14.00">Creator</text>
</a>
</g>
</g>
<!-- GeographicArea -->
<g id="node48" class="node">
<title>GeographicArea</title>
<g id="a_node48"><a xlink:href="/develop/Data/models.html#geographic-area" xlink:title="GeographicArea" target="_top">
<polygon fill="#eeefff" stroke="#dddeee" points="545.57,-131.52 440.32,-131.52 440.32,-95.52 545.57,-95.52 545.57,-131.52"/>
<text text-anchor="middle" x="492.94" y="-108.47" font-family="Times,serif" font-size="14.00">GeographicArea</text>
</a>
</g>
</g>
<!-- Project -->
<g id="node49" class="node">
<title>Project</title>
<g id="a_node49"><a xlink:href="/develop/Data/models.html#project" xlink:title="Project" target="_top">
<polygon fill="#eeefff" stroke="#dddeee" points="520.07,-893.52 465.82,-893.52 465.82,-857.52 520.07,-857.52 520.07,-893.52"/>
<text text-anchor="middle" x="492.94" y="-870.47" font-family="Times,serif" font-size="14.00">Project</text>
</a>
</g>
</g>
<!-- Updater -->
<g id="node50" class="node">
<title>Updater</title>
<g id="a_node50"><a xlink:href="/develop/Data/models.html#updater" xlink:title="Updater" target="_top">
<polygon fill="#eeefff" stroke="#dddeee" points="895.57,-893.52 836.07,-893.52 836.07,-857.52 895.57,-857.52 895.57,-893.52"/>
<text text-anchor="middle" x="865.82" y="-870.47" font-family="Times,serif" font-size="14.00">Updater</text>
</a>
</g>
</g>
<!-- AccessionProviderRole -->
<g id="node51" class="node">
<title>AccessionProviderRole</title>
<g id="a_node51"><a xlink:href="/develop/Data/models.html#accession-provider-role" xlink:title="AccessionProviderRole" target="_top">
<polygon fill="#eeefff" stroke="#dddeee" points="763.32,-312.52 619.82,-312.52 619.82,-276.52 763.32,-276.52 763.32,-312.52"/>
<text text-anchor="middle" x="691.57" y="-289.47" font-family="Times,serif" font-size="14.00">AccessionProviderRole</text>
</a>
</g>
</g>
<!-- DeaccessionRecipientRole -->
<g id="node52" class="node">
<title>DeaccessionRecipientRole</title>
<g id="a_node52"><a xlink:href="/develop/Data/models.html#deaccession-recipient-role" xlink:title="DeaccessionRecipientRole" target="_top">
<polygon fill="#eeefff" stroke="#dddeee" points="771.94,-258.52 611.19,-258.52 611.19,-222.52 771.94,-222.52 771.94,-258.52"/>
<text text-anchor="middle" x="691.57" y="-235.47" font-family="Times,serif" font-size="14.00">DeaccessionRecipientRole</text>
</a>
</g>
</g>
<!-- OriginCitation -->
<g id="node53" class="node">
<title>OriginCitation</title>
<g id="a_node53"><a xlink:href="/develop/Data/models.html#origin-citation" xlink:title="OriginCitation" target="_top">
<polygon fill="#eeefff" stroke="#dddeee" points="738.94,-1376.52 644.19,-1376.52 644.19,-1340.52 738.94,-1340.52 738.94,-1376.52"/>
<text text-anchor="middle" x="691.57" y="-1353.47" font-family="Times,serif" font-size="14.00">OriginCitation</text>
</a>
</g>
</g>
<!-- VerbatimDataGeoreference -->
<g id="node54" class="node">
<title>VerbatimDataGeoreference</title>
<g id="a_node54"><a xlink:href="/develop/Data/models.html#verbatim-data-georeference" xlink:title="VerbatimDataGeoreference" target="_top">
<polygon fill="#eeefff" stroke="#dddeee" points="575.19,-1217.52 410.69,-1217.52 410.69,-1181.52 575.19,-1181.52 575.19,-1217.52"/>
<text text-anchor="middle" x="492.94" y="-1194.47" font-family="Times,serif" font-size="14.00">VerbatimDataGeoreference</text>
</a>
</g>
</g>
</g>
</svg>
