<?xml version="1.0" encoding="UTF-8" standalone="no"?>
<!DOCTYPE svg PUBLIC "-//W3C//DTD SVG 1.1//EN"
 "http://www.w3.org/Graphics/SVG/1.1/DTD/svg11.dtd">
<!-- Generated by graphviz version 12.2.1 (20241206.2353)
 -->
<!-- Title: CollectionObjectObservation Pages: 1 -->
<svg width="831pt" height="342pt"
 viewBox="0.00 0.00 831.43 341.63" xmlns="http://www.w3.org/2000/svg" xmlns:xlink="http://www.w3.org/1999/xlink">
<g id="graph0" class="graph" transform="scale(1 1) rotate(0) translate(4 337.63)">
<title>CollectionObjectObservation</title>
<polygon fill="white" stroke="none" points="-4,4 -4,-337.63 827.43,-337.63 827.43,4 -4,4"/>
<!-- Depiction&#45;&gt;Image -->
<g id="edge4" class="edge">
<title>Depiction&#45;&gt;Image</title>
<path fill="none" stroke="black" stroke-dasharray="1,5" d="M94.95,-209.57C133.72,-209.93 188.19,-210.44 224.31,-210.78"/>
<polygon fill="black" stroke="black" points="224.26,-214.28 234.29,-210.87 224.33,-207.28 224.26,-214.28"/>
</g>
<!-- Tag&#45;&gt;Keyword -->
<g id="edge5" class="edge">
<title>Tag&#45;&gt;Keyword</title>
<path fill="none" stroke="black" stroke-dasharray="1,5" d="M74.49,-96.89C110.37,-96.55 175.22,-95.95 218.5,-95.54"/>
<polygon fill="black" stroke="black" points="218.35,-99.04 228.31,-95.45 218.28,-92.04 218.35,-99.04"/>
</g>
<!-- CollectionObjectObservation&#45;&gt;Depiction -->
<g id="edge2" class="edge">
<title>CollectionObjectObservation&#45;&gt;Depiction</title>
<path fill="none" stroke="black" d="M180.52,-171.51C163.92,-175.48 146.62,-179.79 130.51,-184.13 118.94,-187.25 106.53,-190.87 94.95,-194.38"/>
<polygon fill="black" stroke="black" points="94.14,-190.96 85.6,-197.24 96.18,-197.66 94.14,-190.96"/>
</g>
<!-- CollectionObjectObservation&#45;&gt;Tag -->
<g id="edge9" class="edge">
<title>CollectionObjectObservation&#45;&gt;Tag</title>
<path fill="none" stroke="black" d="M180.52,-134.76C163.92,-130.79 146.62,-126.47 130.51,-122.13 114.67,-117.86 97.25,-112.65 82.55,-108.09"/>
<polygon fill="black" stroke="black" points="83.93,-104.85 73.34,-105.21 81.84,-111.54 83.93,-104.85"/>
</g>
<!-- CollectionObjectObservation&#45;&gt;Note -->
<g id="edge6" class="edge">
<title>CollectionObjectObservation&#45;&gt;Note</title>
<path fill="none" stroke="black" d="M130.23,-153.13C114.82,-153.13 100.15,-153.13 87.58,-153.13"/>
<polygon fill="black" stroke="black" points="87.74,-149.63 77.74,-153.13 87.74,-156.63 87.74,-149.63"/>
</g>
<!-- CollectionObjectObservation&#45;&gt;DerivedCollectionObject -->
<g id="edge3" class="edge">
<title>CollectionObjectObservation&#45;&gt;DerivedCollectionObject</title>
<path fill="none" stroke="black" d="M371.1,-168.04C380.14,-172.24 388.61,-177.52 395.93,-184.13 432.23,-216.91 397.56,-253.32 431.93,-288.13 432.53,-288.74 433.14,-289.34 433.77,-289.92"/>
<polygon fill="black" stroke="black" points="431.38,-292.49 441.43,-295.83 435.65,-286.95 431.38,-292.49"/>
</g>
<!-- CollectionObjectObservation&#45;&gt;PinboardItem -->
<g id="edge7" class="edge">
<title>CollectionObjectObservation&#45;&gt;PinboardItem</title>
<path fill="none" stroke="black" d="M365.21,-168.87C376.06,-172.86 386.55,-177.87 395.93,-184.13 418.7,-199.34 410.07,-217.64 431.93,-234.13 437.93,-238.66 444.77,-242.49 451.81,-245.7"/>
<polygon fill="black" stroke="black" points="450.22,-248.83 460.8,-249.41 452.89,-242.36 450.22,-248.83"/>
</g>
<!-- CollectionObjectObservation&#45;&gt;Role -->
<g id="edge8" class="edge">
<title>CollectionObjectObservation&#45;&gt;Role</title>
<path fill="none" stroke="black" d="M346.35,-171.41C388.15,-180.72 436.91,-191.57 469.61,-198.85"/>
<polygon fill="black" stroke="black" points="468.47,-202.18 478.99,-200.94 469.99,-195.35 468.47,-202.18"/>
</g>
<!-- CollectionObjectObservation&#45;&gt;VerifierRole -->
<g id="edge10" class="edge">
<title>CollectionObjectObservation&#45;&gt;VerifierRole</title>
<path fill="none" stroke="black" d="M396.16,-153.13C416.94,-153.13 437.29,-153.13 454.76,-153.13"/>
<polygon fill="black" stroke="black" points="454.57,-156.63 464.57,-153.13 454.57,-149.63 454.57,-156.63"/>
</g>
<!-- CollectionObjectObservation&#45;&gt;Creator -->
<g id="edge12" class="edge">
<title>CollectionObjectObservation&#45;&gt;Creator</title>
<path fill="none" stroke="black" stroke-dasharray="5,2" d="M369.12,-134.35C431.73,-122.5 512.63,-106.08 583.68,-88.13 604.53,-82.87 627.77,-75.78 645.29,-70.19"/>
<polygon fill="black" stroke="black" points="368.72,-130.86 359.54,-136.15 370.01,-137.74 368.72,-130.86"/>
</g>
<!-- CollectionObjectObservation&#45;&gt;Project -->
<g id="edge13" class="edge">
<title>CollectionObjectObservation&#45;&gt;Project</title>
<path fill="none" stroke="black" stroke-dasharray="5,2" d="M369.08,-133.04C378.35,-129.9 387.43,-126.28 395.93,-122.13 414.39,-113.11 414.32,-103.71 431.93,-93.13 447.2,-83.96 465.57,-76.06 480.3,-70.41"/>
<polygon fill="black" stroke="black" points="368.05,-129.69 359.58,-136.05 370.17,-136.36 368.05,-129.69"/>
</g>
<!-- CollectionObjectObservation&#45;&gt;Updater -->
<g id="edge14" class="edge">
<title>CollectionObjectObservation&#45;&gt;Updater</title>
<path fill="none" stroke="black" stroke-dasharray="5,2" d="M380.34,-132.94C385.88,-129.81 391.13,-126.23 395.93,-122.13 428.06,-94.69 396.84,-57.69 431.93,-34.13 536.48,36.06 698.55,-20.26 763.91,-47.98"/>
<polygon fill="black" stroke="black" points="378.8,-129.8 371.43,-137.41 381.94,-136.05 378.8,-129.8"/>
</g>
<!-- DerivedCollectionObject&#45;&gt;CollectionObject -->
<g id="edge1" class="edge">
<title>DerivedCollectionObject&#45;&gt;CollectionObject</title>
<path fill="none" stroke="black" stroke-dasharray="1,5" d="M584.08,-315.13C592.12,-315.13 600.24,-315.13 608.13,-315.13"/>
<polygon fill="black" stroke="black" points="607.99,-318.63 617.99,-315.13 607.99,-311.63 607.99,-318.63"/>
</g>
<!-- Role&#45;&gt;Verifier -->
<!-- VerifierRole&#45;&gt;Verifier -->
<g id="edge11" class="edge">
<title>VerifierRole&#45;&gt;Verifier</title>
<path fill="none" stroke="black" stroke-dasharray="1,5" d="M549.34,-159.81C575.17,-164.06 608.45,-169.54 633.94,-173.73"/>
<polygon fill="black" stroke="black" points="633.13,-177.15 643.56,-175.32 634.26,-170.24 633.13,-177.15"/>
</g>
<!-- Creator&#45;&gt;Updater -->
<!-- Project&#45;&gt;Creator -->
<!-- Depiction -->
<g id="node1" class="node">
<title>Depiction</title>
<g id="a_node1"><a xlink:href="/develop/Data/models.html#depiction" xlink:title="Depiction" target="_top">
<ellipse fill="#abcdef" stroke="#dddeee" cx="47.26" cy="-209.13" rx="47.26" ry="18"/>
<text text-anchor="middle" x="47.26" y="-204.08" font-family="Times,serif" font-size="14.00">Depiction</text>
</a>
</g>
</g>
<!-- Tag -->
<g id="node2" class="node">
<title>Tag</title>
<g id="a_node2"><a xlink:href="/develop/Data/models.html#tag" xlink:title="Tag" target="_top">
<ellipse fill="#abcdef" stroke="#dddeee" cx="47.26" cy="-97.13" rx="27" ry="18"/>
<text text-anchor="middle" x="47.26" y="-92.08" font-family="Times,serif" font-size="14.00">Tag</text>
</a>
</g>
</g>
<!-- Note -->
<g id="node3" class="node">
<title>Note</title>
<g id="a_node3"><a xlink:href="/develop/Data/models.html#note" xlink:title="Note" target="_top">
<ellipse fill="#abcdef" stroke="#dddeee" cx="47.26" cy="-153.13" rx="28.83" ry="18"/>
<text text-anchor="middle" x="47.26" y="-148.08" font-family="Times,serif" font-size="14.00">Note</text>
</a>
</g>
</g>
<!-- CollectionObject -->
<g id="node4" class="node">
<title>CollectionObject</title>
<g id="a_node4"><a xlink:href="/develop/Data/models.html#collection-object" xlink:title="CollectionObject" target="_top">
<path fill="#fedcba" stroke="#dddeee" d="M631.68,-297.13C631.68,-297.13 715.93,-297.13 715.93,-297.13 721.93,-297.13 727.93,-303.13 727.93,-309.13 727.93,-309.13 727.93,-321.13 727.93,-321.13 727.93,-327.13 721.93,-333.13 715.93,-333.13 715.93,-333.13 631.68,-333.13 631.68,-333.13 625.68,-333.13 619.68,-327.13 619.68,-321.13 619.68,-321.13 619.68,-309.13 619.68,-309.13 619.68,-303.13 625.68,-297.13 631.68,-297.13"/>
<text text-anchor="middle" x="673.8" y="-310.33" font-family="Times,serif" font-size="14.00">CollectionObject</text>
</a>
</g>
</g>
<!-- CollectionObjectObservation -->
<g id="node5" class="node">
<title>CollectionObjectObservation</title>
<g id="a_node5"><a xlink:href="/develop/Data/models.html#collection-object-observation" xlink:title="CollectionObjectObservation" target="_top">
<polygon fill="#cdefab" stroke="#dedede" points="391.93,-145.68 391.93,-160.59 316.53,-171.13 209.91,-171.13 134.51,-160.59 134.51,-145.68 209.91,-135.13 316.53,-135.13 391.93,-145.68"/>
<polygon fill="none" stroke="#dedede" points="395.93,-142.2 395.93,-164.07 316.81,-175.13 209.63,-175.13 130.51,-164.07 130.51,-142.2 209.63,-131.13 316.81,-131.13 395.93,-142.2"/>
<text text-anchor="middle" x="263.22" y="-148.08" font-family="Times,serif" font-size="14.00">CollectionObjectObservation</text>
</a>
</g>
</g>
<!-- DerivedCollectionObject -->
<g id="node6" class="node">
<title>DerivedCollectionObject</title>
<g id="a_node6"><a xlink:href="/develop/Data/models.html#derived-collection-object" xlink:title="DerivedCollectionObject" target="_top">
<polygon fill="#eeefff" stroke="#dddeee" points="583.68,-333.13 431.93,-333.13 431.93,-297.13 583.68,-297.13 583.68,-333.13"/>
<text text-anchor="middle" x="507.8" y="-310.08" font-family="Times,serif" font-size="14.00">DerivedCollectionObject</text>
</a>
</g>
</g>
<!-- Image -->
<g id="node7" class="node">
<title>Image</title>
<g id="a_node7"><a xlink:href="/develop/Data/models.html#image" xlink:title="Image" target="_top">
<polygon fill="#eeefff" stroke="#dddeee" points="290.22,-229.13 236.22,-229.13 236.22,-193.13 290.22,-193.13 290.22,-229.13"/>
<text text-anchor="middle" x="263.22" y="-206.08" font-family="Times,serif" font-size="14.00">Image</text>
</a>
</g>
</g>
<!-- Keyword -->
<g id="node8" class="node">
<title>Keyword</title>
<g id="a_node8"><a xlink:href="/develop/Data/models.html#keyword" xlink:title="Keyword" target="_top">
<polygon fill="#eeefff" stroke="#dddeee" points="296.35,-113.13 230.1,-113.13 230.1,-77.13 296.35,-77.13 296.35,-113.13"/>
<text text-anchor="middle" x="263.22" y="-90.08" font-family="Times,serif" font-size="14.00">Keyword</text>
</a>
</g>
</g>
<!-- PinboardItem -->
<g id="node9" class="node">
<title>PinboardItem</title>
<g id="a_node9"><a xlink:href="/develop/Data/models.html#pinboard-item" xlink:title="PinboardItem" target="_top">
<polygon fill="#eeefff" stroke="#dddeee" points="552.93,-279.13 462.68,-279.13 462.68,-243.13 552.93,-243.13 552.93,-279.13"/>
<text text-anchor="middle" x="507.8" y="-256.08" font-family="Times,serif" font-size="14.00">PinboardItem</text>
</a>
</g>
</g>
<!-- Role -->
<g id="node10" class="node">
<title>Role</title>
<g id="a_node10"><a xlink:href="/develop/Data/models.html#role" xlink:title="Role" target="_top">
<polygon fill="#eeefff" stroke="#dddeee" points="534.8,-225.13 480.8,-225.13 480.8,-189.13 534.8,-189.13 534.8,-225.13"/>
<text text-anchor="middle" x="507.8" y="-202.08" font-family="Times,serif" font-size="14.00">Role</text>
</a>
</g>
</g>
<!-- VerifierRole -->
<g id="node11" class="node">
<title>VerifierRole</title>
<g id="a_node11"><a xlink:href="/develop/Data/models.html#verifier-role" xlink:title="VerifierRole" target="_top">
<polygon fill="#eeefff" stroke="#dddeee" points="549.18,-171.13 466.43,-171.13 466.43,-135.13 549.18,-135.13 549.18,-171.13"/>
<text text-anchor="middle" x="507.8" y="-148.08" font-family="Times,serif" font-size="14.00">VerifierRole</text>
</a>
</g>
</g>
<!-- Verifier -->
<g id="node12" class="node">
<title>Verifier</title>
<g id="a_node12"><a xlink:href="/develop/Data/models.html#verifier" xlink:title="Verifier" target="_top">
<polygon fill="#eeefff" stroke="#dddeee" points="702.43,-198.13 645.18,-198.13 645.18,-162.13 702.43,-162.13 702.43,-198.13"/>
<text text-anchor="middle" x="673.8" y="-175.08" font-family="Times,serif" font-size="14.00">Verifier</text>
</a>
</g>
</g>
<!-- Creator -->
<g id="node13" class="node">
<title>Creator</title>
<g id="a_node13"><a xlink:href="/develop/Data/models.html#creator" xlink:title="Creator" target="_top">
<polygon fill="#eeefff" stroke="#dddeee" points="702.05,-79.13 645.55,-79.13 645.55,-43.13 702.05,-43.13 702.05,-79.13"/>
<text text-anchor="middle" x="673.8" y="-56.08" font-family="Times,serif" font-size="14.00">Creator</text>
</a>
</g>
</g>
<!-- Project -->
<g id="node14" class="node">
<title>Project</title>
<g id="a_node14"><a xlink:href="/develop/Data/models.html#project" xlink:title="Project" target="_top">
<polygon fill="#eeefff" stroke="#dddeee" points="534.93,-79.13 480.68,-79.13 480.68,-43.13 534.93,-43.13 534.93,-79.13"/>
<text text-anchor="middle" x="507.8" y="-56.08" font-family="Times,serif" font-size="14.00">Project</text>
</a>
</g>
</g>
<!-- Updater -->
<g id="node15" class="node">
<title>Updater</title>
<g id="a_node15"><a xlink:href="/develop/Data/models.html#updater" xlink:title="Updater" target="_top">
<polygon fill="#eeefff" stroke="#dddeee" points="823.43,-79.13 763.93,-79.13 763.93,-43.13 823.43,-43.13 823.43,-79.13"/>
<text text-anchor="middle" x="793.68" y="-56.08" font-family="Times,serif" font-size="14.00">Updater</text>
</a>
</g>
</g>
</g>
</svg>
