<?xml version="1.0" encoding="UTF-8" standalone="no"?>
<!DOCTYPE svg PUBLIC "-//W3C//DTD SVG 1.1//EN"
 "http://www.w3.org/Graphics/SVG/1.1/DTD/svg11.dtd">
<!-- Generated by graphviz version 12.2.1 (20241206.2353)
 -->
<!-- Title: CollectionProfile Pages: 1 -->
<svg width="618pt" height="496pt"
 viewBox="0.00 0.00 618.44 495.97" xmlns="http://www.w3.org/2000/svg" xmlns:xlink="http://www.w3.org/1999/xlink">
<g id="graph0" class="graph" transform="scale(1 1) rotate(0) translate(4 491.97)">
<title>CollectionProfile</title>
<polygon fill="white" stroke="none" points="-4,4 -4,-491.97 614.44,-491.97 614.44,4 -4,4"/>
<!-- Tag&#45;&gt;Keyword -->
<g id="edge2" class="edge">
<title>Tag&#45;&gt;Keyword</title>
<path fill="none" stroke="black" stroke-dasharray="1,5" d="M72.51,-169.15C97.73,-168.84 136.26,-168.37 166.12,-168.01"/>
<polygon fill="black" stroke="black" points="166.02,-171.51 175.98,-167.89 165.94,-164.51 166.02,-171.51"/>
</g>
<!-- CollectionProfile&#45;&gt;Identifier -->
<g id="edge1" class="edge">
<title>CollectionProfile&#45;&gt;Identifier</title>
<path fill="none" stroke="black" d="M155.61,-243.06C134.93,-249.75 111.61,-257.3 91.82,-263.71"/>
<polygon fill="black" stroke="black" points="90.81,-260.36 82.37,-266.77 92.96,-267.02 90.81,-260.36"/>
</g>
<!-- CollectionProfile&#45;&gt;Tag -->
<g id="edge6" class="edge">
<title>CollectionProfile&#45;&gt;Tag</title>
<path fill="none" stroke="black" d="M157.46,-207.53C132.19,-198.88 102.6,-188.76 80.29,-181.13"/>
<polygon fill="black" stroke="black" points="81.69,-177.91 71.1,-177.99 79.43,-184.53 81.69,-177.91"/>
</g>
<!-- CollectionProfile&#45;&gt;Note -->
<g id="edge3" class="edge">
<title>CollectionProfile&#45;&gt;Note</title>
<path fill="none" stroke="black" d="M126.19,-224.96C112.01,-224.88 97.9,-224.79 85.57,-224.71"/>
<polygon fill="black" stroke="black" points="85.89,-221.22 75.87,-224.65 85.85,-228.22 85.89,-221.22"/>
</g>
<!-- CollectionProfile&#45;&gt;Otu -->
<g id="edge13" class="edge">
<title>CollectionProfile&#45;&gt;Otu</title>
<path fill="none" stroke="black" stroke-dasharray="5,2" d="M224.05,-258.36C242.02,-303.7 279.3,-386.1 331.44,-441.47 336.54,-446.89 342.9,-451.71 349.19,-455.76"/>
<polygon fill="black" stroke="black" points="227.33,-257.13 220.45,-249.07 220.81,-259.66 227.33,-257.13"/>
</g>
<!-- CollectionProfile&#45;&gt;PinboardItem -->
<g id="edge4" class="edge">
<title>CollectionProfile&#45;&gt;PinboardItem</title>
<path fill="none" stroke="black" d="M224.53,-247.75C244.16,-281.09 284.69,-344.6 331.44,-387.47 332.06,-388.04 332.7,-388.61 333.34,-389.16"/>
<polygon fill="black" stroke="black" points="331.01,-391.79 341.07,-395.13 335.29,-386.25 331.01,-391.79"/>
</g>
<!-- CollectionProfile&#45;&gt;Role -->
<g id="edge5" class="edge">
<title>CollectionProfile&#45;&gt;Role</title>
<path fill="none" stroke="black" d="M234.19,-247.92C257.41,-270.75 295.38,-306.51 331.44,-333.47 334.16,-335.5 337.04,-337.53 339.97,-339.49"/>
<polygon fill="black" stroke="black" points="337.8,-342.26 348.1,-344.73 341.59,-336.37 337.8,-342.26"/>
</g>
<!-- CollectionProfile&#45;&gt;Uri -->
<g id="edge7" class="edge">
<title>CollectionProfile&#45;&gt;Uri</title>
<path fill="none" stroke="black" d="M253.22,-245.91C279.69,-259.01 313.71,-275.86 339.16,-288.45"/>
<polygon fill="black" stroke="black" points="337.28,-291.43 347.79,-292.73 340.39,-285.15 337.28,-291.43"/>
</g>
<!-- CollectionProfile&#45;&gt;Uuid -->
<g id="edge8" class="edge">
<title>CollectionProfile&#45;&gt;Uuid</title>
<path fill="none" stroke="black" d="M288.48,-238.1C305.67,-240.94 323.18,-243.83 337.95,-246.27"/>
<polygon fill="black" stroke="black" points="337.21,-249.69 347.65,-247.87 338.35,-242.79 337.21,-249.69"/>
</g>
<!-- CollectionProfile&#45;&gt;VerifierRole -->
<g id="edge9" class="edge">
<title>CollectionProfile&#45;&gt;VerifierRole</title>
<path fill="none" stroke="black" d="M288.48,-212.84C300.33,-210.89 312.33,-208.91 323.48,-207.07"/>
<polygon fill="black" stroke="black" points="323.96,-210.54 333.26,-205.45 322.82,-203.63 323.96,-210.54"/>
</g>
<!-- CollectionProfile&#45;&gt;Container -->
<g id="edge11" class="edge">
<title>CollectionProfile&#45;&gt;Container</title>
<path fill="none" stroke="black" stroke-dasharray="5,2" d="M275.79,-203.38C282.51,-200.58 289.17,-197.59 295.44,-194.47 312.44,-186.01 315.34,-181.54 331.44,-171.47 336.01,-168.62 340.86,-165.62 345.61,-162.69"/>
<polygon fill="black" stroke="black" points="274.6,-200.09 266.63,-207.06 277.21,-206.58 274.6,-200.09"/>
</g>
<!-- CollectionProfile&#45;&gt;Creator -->
<g id="edge12" class="edge">
<title>CollectionProfile&#45;&gt;Creator</title>
<path fill="none" stroke="black" stroke-dasharray="5,2" d="M282.51,-204.11C287.15,-201.28 291.53,-198.08 295.44,-194.47 323.23,-168.88 304.22,-143.66 331.44,-117.47 362.81,-87.3 381.6,-96.42 421.69,-79.47 433.52,-74.47 446.57,-68.94 457.76,-64.19"/>
<polygon fill="black" stroke="black" points="281.15,-200.87 274.02,-208.71 284.48,-207.03 281.15,-200.87"/>
</g>
<!-- CollectionProfile&#45;&gt;Project -->
<g id="edge14" class="edge">
<title>CollectionProfile&#45;&gt;Project</title>
<path fill="none" stroke="black" stroke-dasharray="5,2" d="M283.83,-204.1C288.04,-201.27 291.97,-198.08 295.44,-194.47 331.1,-157.39 301.14,-126.04 331.44,-84.47 336.24,-77.9 342.79,-72.13 349.38,-67.36"/>
<polygon fill="black" stroke="black" points="282.39,-200.88 275.52,-208.94 285.92,-206.93 282.39,-200.88"/>
</g>
<!-- CollectionProfile&#45;&gt;Updater -->
<g id="edge15" class="edge">
<title>CollectionProfile&#45;&gt;Updater</title>
<path fill="none" stroke="black" stroke-dasharray="5,2" d="M284.82,-204.12C288.72,-201.29 292.31,-198.09 295.44,-194.47 345.65,-136.36 271.75,-73.79 331.44,-25.47 395.13,26.08 500.09,-13.21 550.67,-37.3"/>
<polygon fill="black" stroke="black" points="283.19,-201.01 276.54,-209.26 286.88,-206.96 283.19,-201.01"/>
</g>
<!-- Role&#45;&gt;Verifier -->
<!-- VerifierRole&#45;&gt;Verifier -->
<g id="edge10" class="edge">
<title>VerifierRole&#45;&gt;Verifier</title>
<path fill="none" stroke="black" stroke-dasharray="1,5" d="M408.82,-216.76C413.21,-219.57 417.62,-222.52 421.69,-225.47 433.61,-234.1 446.09,-244.38 456.8,-253.65"/>
<polygon fill="black" stroke="black" points="454.37,-256.17 464.2,-260.13 458.99,-250.91 454.37,-256.17"/>
</g>
<!-- Creator&#45;&gt;Updater -->
<!-- Project&#45;&gt;Creator -->
<!-- Identifier -->
<g id="node1" class="node">
<title>Identifier</title>
<g id="a_node1"><a xlink:href="/develop/Data/models.html#identifier" xlink:title="Identifier" target="_top">
<ellipse fill="#abcdef" stroke="#dddeee" cx="45.21" cy="-278.47" rx="45.21" ry="18"/>
<text text-anchor="middle" x="45.21" y="-273.42" font-family="Times,serif" font-size="14.00">Identifier</text>
</a>
</g>
</g>
<!-- Tag -->
<g id="node2" class="node">
<title>Tag</title>
<g id="a_node2"><a xlink:href="/develop/Data/models.html#tag" xlink:title="Tag" target="_top">
<ellipse fill="#abcdef" stroke="#dddeee" cx="45.21" cy="-169.47" rx="27" ry="18"/>
<text text-anchor="middle" x="45.21" y="-164.42" font-family="Times,serif" font-size="14.00">Tag</text>
</a>
</g>
</g>
<!-- Note -->
<g id="node3" class="node">
<title>Note</title>
<g id="a_node3"><a xlink:href="/develop/Data/models.html#note" xlink:title="Note" target="_top">
<ellipse fill="#abcdef" stroke="#dddeee" cx="45.21" cy="-224.47" rx="28.83" ry="18"/>
<text text-anchor="middle" x="45.21" y="-219.42" font-family="Times,serif" font-size="14.00">Note</text>
</a>
</g>
</g>
<!-- Otu -->
<g id="node4" class="node">
<title>Otu</title>
<g id="a_node4"><a xlink:href="/develop/Data/models.html#otu" xlink:title="Otu" target="_top">
<path fill="#fedcba" stroke="#dddeee" d="M361.57,-451.47C361.57,-451.47 391.57,-451.47 391.57,-451.47 397.57,-451.47 403.57,-457.47 403.57,-463.47 403.57,-463.47 403.57,-475.47 403.57,-475.47 403.57,-481.47 397.57,-487.47 391.57,-487.47 391.57,-487.47 361.57,-487.47 361.57,-487.47 355.57,-487.47 349.57,-481.47 349.57,-475.47 349.57,-475.47 349.57,-463.47 349.57,-463.47 349.57,-457.47 355.57,-451.47 361.57,-451.47"/>
<text text-anchor="middle" x="376.57" y="-464.67" font-family="Times,serif" font-size="14.00">Otu</text>
</a>
</g>
</g>
<!-- CollectionProfile -->
<g id="node5" class="node">
<title>CollectionProfile</title>
<g id="a_node5"><a xlink:href="/develop/Data/models.html#collection-profile" xlink:title="CollectionProfile" target="_top">
<polygon fill="#cdefab" stroke="#dedede" points="291.44,-218.02 291.44,-232.93 244.28,-243.47 177.58,-243.47 130.42,-232.93 130.42,-218.02 177.58,-207.47 244.28,-207.47 291.44,-218.02"/>
<polygon fill="none" stroke="#dedede" points="295.44,-214.81 295.44,-236.13 244.72,-247.47 177.14,-247.47 126.42,-236.13 126.42,-214.81 177.14,-203.47 244.72,-203.47 295.44,-214.81"/>
<text text-anchor="middle" x="210.93" y="-220.42" font-family="Times,serif" font-size="14.00">CollectionProfile</text>
</a>
</g>
</g>
<!-- Keyword -->
<g id="node6" class="node">
<title>Keyword</title>
<g id="a_node6"><a xlink:href="/develop/Data/models.html#keyword" xlink:title="Keyword" target="_top">
<polygon fill="#eeefff" stroke="#dddeee" points="244.06,-185.47 177.81,-185.47 177.81,-149.47 244.06,-149.47 244.06,-185.47"/>
<text text-anchor="middle" x="210.93" y="-162.42" font-family="Times,serif" font-size="14.00">Keyword</text>
</a>
</g>
</g>
<!-- PinboardItem -->
<g id="node7" class="node">
<title>PinboardItem</title>
<g id="a_node7"><a xlink:href="/develop/Data/models.html#pinboard-item" xlink:title="PinboardItem" target="_top">
<polygon fill="#eeefff" stroke="#dddeee" points="421.69,-432.47 331.44,-432.47 331.44,-396.47 421.69,-396.47 421.69,-432.47"/>
<text text-anchor="middle" x="376.57" y="-409.42" font-family="Times,serif" font-size="14.00">PinboardItem</text>
</a>
</g>
</g>
<!-- Role -->
<g id="node8" class="node">
<title>Role</title>
<g id="a_node8"><a xlink:href="/develop/Data/models.html#role" xlink:title="Role" target="_top">
<polygon fill="#eeefff" stroke="#dddeee" points="403.57,-378.47 349.57,-378.47 349.57,-342.47 403.57,-342.47 403.57,-378.47"/>
<text text-anchor="middle" x="376.57" y="-355.42" font-family="Times,serif" font-size="14.00">Role</text>
</a>
</g>
</g>
<!-- Uri -->
<g id="node9" class="node">
<title>Uri</title>
<g id="a_node9"><a xlink:href="/develop/Data/models.html#uri" xlink:title="Uri" target="_top">
<polygon fill="#eeefff" stroke="#dddeee" points="403.57,-324.47 349.57,-324.47 349.57,-288.47 403.57,-288.47 403.57,-324.47"/>
<text text-anchor="middle" x="376.57" y="-301.42" font-family="Times,serif" font-size="14.00">Uri</text>
</a>
</g>
</g>
<!-- Uuid -->
<g id="node10" class="node">
<title>Uuid</title>
<g id="a_node10"><a xlink:href="/develop/Data/models.html#uuid" xlink:title="Uuid" target="_top">
<polygon fill="#eeefff" stroke="#dddeee" points="403.57,-270.47 349.57,-270.47 349.57,-234.47 403.57,-234.47 403.57,-270.47"/>
<text text-anchor="middle" x="376.57" y="-247.42" font-family="Times,serif" font-size="14.00">Uuid</text>
</a>
</g>
</g>
<!-- VerifierRole -->
<g id="node11" class="node">
<title>VerifierRole</title>
<g id="a_node11"><a xlink:href="/develop/Data/models.html#verifier-role" xlink:title="VerifierRole" target="_top">
<polygon fill="#eeefff" stroke="#dddeee" points="417.94,-216.47 335.19,-216.47 335.19,-180.47 417.94,-180.47 417.94,-216.47"/>
<text text-anchor="middle" x="376.57" y="-193.42" font-family="Times,serif" font-size="14.00">VerifierRole</text>
</a>
</g>
</g>
<!-- Verifier -->
<g id="node12" class="node">
<title>Verifier</title>
<g id="a_node12"><a xlink:href="/develop/Data/models.html#verifier" xlink:title="Verifier" target="_top">
<polygon fill="#eeefff" stroke="#dddeee" points="514.94,-297.47 457.69,-297.47 457.69,-261.47 514.94,-261.47 514.94,-297.47"/>
<text text-anchor="middle" x="486.32" y="-274.42" font-family="Times,serif" font-size="14.00">Verifier</text>
</a>
</g>
</g>
<!-- Container -->
<g id="node13" class="node">
<title>Container</title>
<g id="a_node13"><a xlink:href="/develop/Data/models.html#container" xlink:title="Container" target="_top">
<polygon fill="#eeefff" stroke="#dddeee" points="411.19,-162.47 341.94,-162.47 341.94,-126.47 411.19,-126.47 411.19,-162.47"/>
<text text-anchor="middle" x="376.57" y="-139.42" font-family="Times,serif" font-size="14.00">Container</text>
</a>
</g>
</g>
<!-- Creator -->
<g id="node14" class="node">
<title>Creator</title>
<g id="a_node14"><a xlink:href="/develop/Data/models.html#creator" xlink:title="Creator" target="_top">
<polygon fill="#eeefff" stroke="#dddeee" points="514.57,-70.47 458.07,-70.47 458.07,-34.47 514.57,-34.47 514.57,-70.47"/>
<text text-anchor="middle" x="486.32" y="-47.42" font-family="Times,serif" font-size="14.00">Creator</text>
</a>
</g>
</g>
<!-- Project -->
<g id="node15" class="node">
<title>Project</title>
<g id="a_node15"><a xlink:href="/develop/Data/models.html#project" xlink:title="Project" target="_top">
<polygon fill="#eeefff" stroke="#dddeee" points="403.69,-70.47 349.44,-70.47 349.44,-34.47 403.69,-34.47 403.69,-70.47"/>
<text text-anchor="middle" x="376.57" y="-47.42" font-family="Times,serif" font-size="14.00">Project</text>
</a>
</g>
</g>
<!-- Updater -->
<g id="node16" class="node">
<title>Updater</title>
<g id="a_node16"><a xlink:href="/develop/Data/models.html#updater" xlink:title="Updater" target="_top">
<polygon fill="#eeefff" stroke="#dddeee" points="610.44,-70.47 550.94,-70.47 550.94,-34.47 610.44,-34.47 610.44,-70.47"/>
<text text-anchor="middle" x="580.69" y="-47.42" font-family="Times,serif" font-size="14.00">Updater</text>
</a>
</g>
</g>
</g>
</svg>
