<?xml version="1.0" encoding="UTF-8" standalone="no"?>
<!DOCTYPE svg PUBLIC "-//W3C//DTD SVG 1.1//EN"
 "http://www.w3.org/Graphics/SVG/1.1/DTD/svg11.dtd">
<!-- Generated by graphviz version 2.50.0 (20211204.2007)
 -->
<!-- Title: CollectingEvent Pages: 1 -->
<svg width="867pt" height="1155pt"
 viewBox="0.00 0.00 866.62 1155.00" xmlns="http://www.w3.org/2000/svg" xmlns:xlink="http://www.w3.org/1999/xlink">
<g id="graph0" class="graph" transform="scale(1 1) rotate(0) translate(4 1151)">
<title>CollectingEvent</title>
<polygon fill="white" stroke="transparent" points="-4,4 -4,-1151 862.62,-1151 862.62,4 -4,4"/>
<!-- Citation&#45;&gt;Source -->
<g id="edge26" class="edge">
<title>Citation&#45;&gt;Source</title>
<path fill="none" stroke="black" stroke-dasharray="1,5" d="M98.27,-1074C169.15,-1074 320.27,-1074 389.77,-1074"/>
<polygon fill="black" stroke="black" points="389.81,-1077.5 399.81,-1074 389.81,-1070.5 389.81,-1077.5"/>
</g>
<!-- Citation&#45;&gt;CitationTopic -->
<g id="edge1" class="edge">
<title>Citation&#45;&gt;CitationTopic</title>
<path fill="none" stroke="black" stroke-dasharray="1,5" d="M91.78,-1084.22C115.27,-1091.8 147.9,-1102.34 175.61,-1111.29"/>
<polygon fill="black" stroke="black" points="174.59,-1114.64 185.18,-1114.38 176.74,-1107.98 174.59,-1114.64"/>
</g>
<!-- Confidence&#45;&gt;ConfidenceLevel -->
<g id="edge6" class="edge">
<title>Confidence&#45;&gt;ConfidenceLevel</title>
<path fill="none" stroke="black" stroke-dasharray="1,5" d="M109.86,-736C127.59,-736 147.81,-736 166.56,-736"/>
<polygon fill="black" stroke="black" points="166.81,-739.5 176.81,-736 166.81,-732.5 166.81,-739.5"/>
</g>
<!-- Depiction&#45;&gt;Image -->
<g id="edge19" class="edge">
<title>Depiction&#45;&gt;Image</title>
<path fill="none" stroke="black" stroke-dasharray="1,5" d="M104.89,-520C132.61,-520 167.76,-520 193.82,-520"/>
<polygon fill="black" stroke="black" points="194.03,-523.5 204.03,-520 194.03,-516.5 194.03,-523.5"/>
</g>
<!-- Tag&#45;&gt;Keyword -->
<g id="edge20" class="edge">
<title>Tag&#45;&gt;Keyword</title>
<path fill="none" stroke="black" stroke-dasharray="1,5" d="M86.38,-466C113.29,-466 155.6,-466 187.42,-466"/>
<polygon fill="black" stroke="black" points="187.77,-469.5 197.77,-466 187.77,-462.5 187.77,-469.5"/>
</g>
<!-- CollectingEvent&#45;&gt;Citation -->
<g id="edge2" class="edge">
<title>CollectingEvent&#45;&gt;Citation</title>
<path fill="none" stroke="black" d="M210.86,-625.02C193.64,-645.45 169.08,-677.39 154.29,-709 98.96,-827.22 72.7,-982.8 63.8,-1045.75"/>
<polygon fill="black" stroke="black" points="60.32,-1045.34 62.42,-1055.72 67.25,-1046.29 60.32,-1045.34"/>
</g>
<!-- CollectingEvent&#45;&gt;Confidence -->
<g id="edge7" class="edge">
<title>CollectingEvent&#45;&gt;Confidence</title>
<path fill="none" stroke="black" d="M211.11,-625.1C190.02,-648.22 154.43,-684.49 118.29,-709 113.45,-712.28 108.15,-715.35 102.78,-718.16"/>
<polygon fill="black" stroke="black" points="101.15,-715.06 93.75,-722.64 104.26,-721.34 101.15,-715.06"/>
</g>
<!-- CollectingEvent&#45;&gt;DataAttribute -->
<g id="edge8" class="edge">
<title>CollectingEvent&#45;&gt;DataAttribute</title>
<path fill="none" stroke="black" d="M189.09,-622.19C162.66,-634.45 128.5,-650.29 101.98,-662.6"/>
<polygon fill="black" stroke="black" points="100.18,-659.57 92.58,-666.95 103.12,-665.92 100.18,-659.57"/>
</g>
<!-- CollectingEvent&#45;&gt;Depiction -->
<g id="edge9" class="edge">
<title>CollectingEvent&#45;&gt;Depiction</title>
<path fill="none" stroke="black" d="M191.4,-583.16C169.9,-572.33 142.7,-558.76 118.29,-547 112.02,-543.98 105.35,-540.83 98.85,-537.79"/>
<polygon fill="black" stroke="black" points="100.05,-534.48 89.5,-533.44 97.09,-540.83 100.05,-534.48"/>
</g>
<!-- CollectingEvent&#45;&gt;Identifier -->
<g id="edge18" class="edge">
<title>CollectingEvent&#45;&gt;Identifier</title>
<path fill="none" stroke="black" d="M155.68,-613.98C140.28,-616.24 124.42,-618.57 110.15,-620.66"/>
<polygon fill="black" stroke="black" points="109.46,-617.22 100.07,-622.14 110.48,-624.15 109.46,-617.22"/>
</g>
<!-- CollectingEvent&#45;&gt;Tag -->
<g id="edge29" class="edge">
<title>CollectingEvent&#45;&gt;Tag</title>
<path fill="none" stroke="black" d="M196.56,-581.87C182.57,-572.23 166.76,-560.06 154.29,-547 134.37,-526.14 140.19,-511.77 118.29,-493 110.97,-486.72 101.94,-481.6 93.2,-477.57"/>
<polygon fill="black" stroke="black" points="94.5,-474.32 83.93,-473.63 91.76,-480.76 94.5,-474.32"/>
</g>
<!-- CollectingEvent&#45;&gt;Note -->
<g id="edge22" class="edge">
<title>CollectingEvent&#45;&gt;Note</title>
<path fill="none" stroke="black" d="M159.66,-590.95C137.89,-587.24 114.82,-583.31 96.38,-580.17"/>
<polygon fill="black" stroke="black" points="96.83,-576.7 86.38,-578.47 95.65,-583.6 96.83,-576.7"/>
</g>
<!-- CollectingEvent&#45;&gt;CollectionObject -->
<g id="edge3" class="edge">
<title>CollectingEvent&#45;&gt;CollectionObject</title>
<path fill="none" stroke="black" d="M252,-625.04C269.19,-645.49 293.72,-677.44 308.62,-709 335.3,-765.55 302.03,-799.22 344.62,-845 349.8,-850.57 356.14,-855.04 362.98,-858.61"/>
<polygon fill="black" stroke="black" points="361.99,-862.01 372.54,-862.96 364.89,-855.63 361.99,-862.01"/>
</g>
<!-- CollectingEvent&#45;&gt;Source -->
<g id="edge41" class="edge">
<title>CollectingEvent&#45;&gt;Source</title>
<path fill="none" stroke="black" stroke-dasharray="1,5" d="M260.62,-633.14C277.53,-653.1 297.79,-680.73 308.62,-709 335.14,-778.31 299.88,-981.79 344.62,-1041 355.44,-1055.32 373.51,-1063.45 389.9,-1068.05"/>
<polygon fill="none" stroke="black" points="250.83,-627.96 256.87,-622.72 262.12,-628.76 256.08,-634.01 250.83,-627.96"/>
<polyline fill="none" stroke="black" points="259.1,-631.38 260.41,-632.89 "/>
<polygon fill="none" stroke="black" points="400.75,-1066.6 398.84,-1074.37 391.08,-1072.46 392.98,-1064.69 400.75,-1066.6"/>
<polyline fill="none" stroke="black" points="392.03,-1068.58 390.09,-1068.1 "/>
</g>
<!-- CollectingEvent&#45;&gt;CollectorRole -->
<g id="edge4" class="edge">
<title>CollectingEvent&#45;&gt;CollectorRole</title>
<path fill="none" stroke="black" d="M250.37,-625.33C266.68,-646.23 290.85,-678.7 308.62,-709 327.72,-741.59 317.07,-760.14 344.62,-786 352.26,-793.17 361.7,-798.81 371.41,-803.2"/>
<polygon fill="black" stroke="black" points="370.18,-806.48 380.76,-807.05 372.84,-800.01 370.18,-806.48"/>
</g>
<!-- CollectingEvent&#45;&gt;Documentation -->
<g id="edge10" class="edge">
<title>CollectingEvent&#45;&gt;Documentation</title>
<path fill="none" stroke="black" d="M271.43,-582.96C285.34,-573.85 299.75,-561.78 308.62,-547 365.92,-451.5 273.08,-384.36 344.62,-299 350.59,-291.87 358.5,-286.61 367.04,-282.73"/>
<polygon fill="black" stroke="black" points="368.45,-285.94 376.5,-279.05 365.91,-279.42 368.45,-285.94"/>
</g>
<!-- CollectingEvent&#45;&gt;Georeference -->
<g id="edge16" class="edge">
<title>CollectingEvent&#45;&gt;Georeference</title>
<path fill="none" stroke="black" d="M271.63,-583.07C285.57,-573.98 299.94,-561.89 308.62,-547 376.68,-430.22 259.12,-349.7 344.62,-245 351.76,-236.25 361.82,-230.31 372.44,-226.29"/>
<polygon fill="black" stroke="black" points="373.85,-229.52 382.29,-223.11 371.69,-222.86 373.85,-229.52"/>
</g>
<!-- CollectingEvent&#45;&gt;GeoLocateGeoreference -->
<g id="edge14" class="edge">
<title>CollectingEvent&#45;&gt;GeoLocateGeoreference</title>
<path fill="none" stroke="black" d="M273.32,-583.61C294.41,-573.9 320.66,-562.28 344.62,-553 349.44,-551.13 354.46,-549.27 359.53,-547.45"/>
<polygon fill="black" stroke="black" points="361.03,-550.64 369.3,-544.02 358.7,-544.03 361.03,-550.64"/>
</g>
<!-- CollectingEvent&#45;&gt;GpxGeoreference -->
<g id="edge17" class="edge">
<title>CollectingEvent&#45;&gt;GpxGeoreference</title>
<path fill="none" stroke="black" d="M265.62,-581.79C279.64,-572.05 295.67,-559.82 308.62,-547 327.56,-528.23 322.97,-514.57 344.62,-499 349.7,-495.34 355.31,-492.16 361.13,-489.39"/>
<polygon fill="black" stroke="black" points="362.63,-492.56 370.42,-485.38 359.85,-486.13 362.63,-492.56"/>
</g>
<!-- CollectingEvent&#45;&gt;Label -->
<g id="edge21" class="edge">
<title>CollectingEvent&#45;&gt;Label</title>
<path fill="none" stroke="black" d="M269.19,-582.51C283.13,-573.2 298.16,-561.11 308.62,-547 337.25,-508.38 310.29,-478.66 344.62,-445 356.75,-433.1 374.24,-426.44 389.91,-422.72"/>
<polygon fill="black" stroke="black" points="390.78,-426.12 399.87,-420.67 389.37,-419.26 390.78,-426.12"/>
</g>
<!-- CollectingEvent&#45;&gt;PinboardItem -->
<g id="edge24" class="edge">
<title>CollectingEvent&#45;&gt;PinboardItem</title>
<path fill="none" stroke="black" d="M271.95,-583.26C285.93,-574.19 300.25,-562.06 308.62,-547 358.84,-456.59 268.71,-153.24 344.62,-83 408.52,-23.86 519.15,-60 580.64,-87.53"/>
<polygon fill="black" stroke="black" points="579.53,-90.86 590.07,-91.85 582.45,-84.5 579.53,-90.86"/>
</g>
<!-- CollectingEvent&#45;&gt;Role -->
<g id="edge25" class="edge">
<title>CollectingEvent&#45;&gt;Role</title>
<path fill="none" stroke="black" d="M308.72,-593.94C336.49,-590.64 366.64,-587.06 389.43,-584.36"/>
<polygon fill="black" stroke="black" points="390.15,-587.8 399.66,-583.14 389.32,-580.85 390.15,-587.8"/>
</g>
<!-- CollectingEvent&#45;&gt;SubsequentCitation -->
<g id="edge27" class="edge">
<title>CollectingEvent&#45;&gt;SubsequentCitation</title>
<path fill="none" stroke="black" d="M253.74,-625.39C271.57,-645.57 296.07,-676.92 308.62,-709 332.43,-769.89 301.53,-951.82 344.62,-1001 348.18,-1005.06 473.24,-1036.54 555.15,-1056.81"/>
<polygon fill="black" stroke="black" points="554.37,-1060.22 564.92,-1059.23 556.05,-1053.43 554.37,-1060.22"/>
</g>
<!-- CollectingEvent&#45;&gt;VerifierRole -->
<g id="edge31" class="edge">
<title>CollectingEvent&#45;&gt;VerifierRole</title>
<path fill="none" stroke="black" d="M270.7,-583.01C284.69,-573.85 299.34,-561.72 308.62,-547 354.22,-474.67 290.02,-423.82 344.62,-358 352.73,-348.21 364.25,-341.41 376.07,-336.68"/>
<polygon fill="black" stroke="black" points="377.3,-339.95 385.56,-333.31 374.96,-333.35 377.3,-339.95"/>
</g>
<!-- CollectingEvent&#45;&gt;Version -->
<g id="edge33" class="edge">
<title>CollectingEvent&#45;&gt;Version</title>
<path fill="none" stroke="black" d="M271.77,-583.15C285.72,-574.08 300.07,-561.97 308.62,-547 387.47,-408.9 276.21,-334.57 344.62,-191 355.23,-168.71 374.63,-149.05 391.84,-134.67"/>
<polygon fill="black" stroke="black" points="394.47,-137.05 400.06,-128.05 390.08,-131.6 394.47,-137.05"/>
</g>
<!-- CollectingEvent&#45;&gt;Creator -->
<g id="edge34" class="edge">
<title>CollectingEvent&#45;&gt;Creator</title>
<path fill="none" stroke="black" stroke-dasharray="5,2" d="M254.22,-633.54C284.95,-676.44 338.05,-749.71 344.62,-753 410.18,-785.84 439.68,-775.08 509.62,-753 548.62,-740.69 585.89,-709.97 607.09,-690.1"/>
<polygon fill="black" stroke="black" points="256.88,-631.24 248.21,-625.14 251.19,-635.31 256.88,-631.24"/>
</g>
<!-- CollectingEvent&#45;&gt;GeographicArea -->
<g id="edge35" class="edge">
<title>CollectingEvent&#45;&gt;GeographicArea</title>
<path fill="none" stroke="black" stroke-dasharray="5,2" d="M280.5,-577.38C291.54,-569.17 301.98,-559.02 308.62,-547 362.15,-450.06 278.98,-139.18 344.62,-50 351.82,-40.21 362.49,-33.41 373.74,-28.69"/>
<polygon fill="black" stroke="black" points="278.22,-574.7 271.99,-583.28 282.2,-580.46 278.22,-574.7"/>
</g>
<!-- CollectingEvent&#45;&gt;Project -->
<g id="edge36" class="edge">
<title>CollectingEvent&#45;&gt;Project</title>
<path fill="none" stroke="black" stroke-dasharray="5,2" d="M290.77,-623.78C326.85,-636.63 371.46,-652.52 399.35,-662.46"/>
<polygon fill="black" stroke="black" points="291.92,-620.47 281.32,-620.41 289.57,-627.06 291.92,-620.47"/>
</g>
<!-- CollectingEvent&#45;&gt;Updater -->
<g id="edge37" class="edge">
<title>CollectingEvent&#45;&gt;Updater</title>
<path fill="none" stroke="black" stroke-dasharray="5,2" d="M259.54,-633.05C276.21,-653.16 296.62,-680.99 308.62,-709 342.63,-788.41 286.05,-836.5 344.62,-900 407.41,-968.08 453.82,-942.67 545.62,-955 616.53,-964.53 648.66,-996.96 706.62,-955 794.38,-891.46 800.78,-742.39 800.21,-690.33"/>
<polygon fill="black" stroke="black" points="262.02,-630.56 252.89,-625.19 256.68,-635.09 262.02,-630.56"/>
</g>
<!-- CollectingEvent&#45;&gt;AccessionProviderRole -->
<g id="edge38" class="edge">
<title>CollectingEvent&#45;&gt;AccessionProviderRole</title>
<path fill="none" stroke="black" d="M278.62,-577.11C289.9,-568.81 300.92,-558.7 308.62,-547 347.72,-487.55 288.93,-435.3 344.62,-391 402.01,-345.35 444.96,-356.4 509.62,-391 535.05,-404.61 528.63,-421.69 545.62,-445 564.45,-470.83 587.28,-499.28 603.63,-519.2"/>
<polygon fill="none" stroke="black" points="272.69,-586.11 268.12,-579.54 274.69,-574.97 279.26,-581.54 272.69,-586.11"/>
<polyline fill="none" stroke="black" points="276.98,-578.25 278.62,-577.11 "/>
<polygon fill="none" stroke="black" points="613.08,-524.38 606.91,-529.47 601.82,-523.3 607.99,-518.21 613.08,-524.38"/>
<polyline fill="none" stroke="black" points="604.91,-520.75 603.63,-519.21 "/>
</g>
<!-- CollectingEvent&#45;&gt;DeaccessionRecipientRole -->
<g id="edge39" class="edge">
<title>CollectingEvent&#45;&gt;DeaccessionRecipientRole</title>
<path fill="none" stroke="black" d="M318.93,-606.39C327.61,-606.64 336.28,-606.85 344.62,-607 417.94,-608.31 436.33,-609.54 509.62,-607 517.92,-606.71 526.55,-606.31 535.19,-605.84"/>
<polygon fill="none" stroke="black" points="308.65,-610.09 308.89,-602.09 316.88,-602.33 316.64,-610.33 308.65,-610.09"/>
<polyline fill="none" stroke="black" points="316.76,-606.33 318.76,-606.39 "/>
<polygon fill="none" stroke="black" points="545.08,-601.26 545.54,-609.24 537.56,-609.71 537.1,-601.72 545.08,-601.26"/>
<polyline fill="none" stroke="black" points="537.33,-605.71 535.33,-605.83 "/>
</g>
<!-- CollectingEvent&#45;&gt;OriginCitation -->
<g id="edge40" class="edge">
<title>CollectingEvent&#45;&gt;OriginCitation</title>
<path fill="none" stroke="black" d="M259.98,-632.86C276.83,-652.9 297.27,-680.72 308.62,-709 351.38,-815.64 265.59,-881.6 344.62,-965 374.55,-996.59 495.11,-1010.71 568.08,-1016.47"/>
<polygon fill="none" stroke="black" points="250.22,-627.65 256.28,-622.43 261.5,-628.5 255.44,-633.72 250.22,-627.65"/>
<polyline fill="none" stroke="black" points="258.47,-631.11 259.77,-632.62 "/>
<polygon fill="none" stroke="black" points="578.79,-1013.27 578.18,-1021.25 570.2,-1020.64 570.81,-1012.67 578.79,-1013.27"/>
<polyline fill="none" stroke="black" points="570.51,-1016.65 568.51,-1016.5 "/>
</g>
<!-- CollectingEvent&#45;&gt;VerbatimDataGeoreference -->
<g id="edge42" class="edge">
<title>CollectingEvent&#45;&gt;VerbatimDataGeoreference</title>
<path fill="none" stroke="black" d="M260.41,-632.41C281.78,-653.44 312.87,-681.08 344.62,-699 347.63,-700.7 350.76,-702.31 353.97,-703.84"/>
<polygon fill="none" stroke="black" points="250.45,-628.1 256.1,-622.45 261.76,-628.1 256.1,-633.76 250.45,-628.1"/>
<polyline fill="none" stroke="black" points="258.93,-630.93 260.35,-632.34 "/>
<polygon fill="none" stroke="black" points="364.81,-704.27 361.57,-711.59 354.25,-708.34 357.5,-701.03 364.81,-704.27"/>
<polyline fill="none" stroke="black" points="355.88,-704.69 354.05,-703.88 "/>
</g>
<!-- CollectionObject&#45;&gt;Otu -->
<g id="edge23" class="edge">
<title>CollectionObject&#45;&gt;Otu</title>
<path fill="none" stroke="black" stroke-dasharray="1,5" d="M481.69,-873C515.73,-873 558.88,-873 588.92,-873"/>
<polygon fill="black" stroke="black" points="588.96,-876.5 598.96,-873 588.96,-869.5 588.96,-876.5"/>
</g>
<!-- CollectionObject&#45;&gt;DwcOccurrence -->
<g id="edge12" class="edge">
<title>CollectionObject&#45;&gt;DwcOccurrence</title>
<path fill="none" stroke="black" stroke-dasharray="1,5" d="M481.69,-887.96C507.15,-895.06 537.7,-903.6 564.06,-910.95"/>
<polygon fill="black" stroke="black" points="563.36,-914.39 573.93,-913.71 565.24,-907.65 563.36,-914.39"/>
</g>
<!-- Source&#45;&gt;SubsequentCitation -->
<!-- Source&#45;&gt;OriginCitation -->
<!-- CitationTopic&#45;&gt;Topic -->
<g id="edge30" class="edge">
<title>CitationTopic&#45;&gt;Topic</title>
<path fill="none" stroke="black" stroke-dasharray="1,5" d="M277.86,-1129C312.01,-1129 358.18,-1129 389.88,-1129"/>
<polygon fill="black" stroke="black" points="390.03,-1132.5 400.03,-1129 390.03,-1125.5 390.03,-1132.5"/>
</g>
<!-- CollectorRole&#45;&gt;Collector -->
<g id="edge5" class="edge">
<title>CollectorRole&#45;&gt;Collector</title>
<path fill="none" stroke="black" stroke-dasharray="1,5" d="M473.31,-818C506.11,-818 550.2,-818 582.41,-818"/>
<polygon fill="black" stroke="black" points="582.42,-821.5 592.42,-818 582.42,-814.5 582.42,-821.5"/>
</g>
<!-- Documentation&#45;&gt;Document -->
<g id="edge11" class="edge">
<title>Documentation&#45;&gt;Document</title>
<path fill="none" stroke="black" stroke-dasharray="1,5" d="M477.83,-272C508.82,-272 548.44,-272 578.78,-272"/>
<polygon fill="black" stroke="black" points="579.1,-275.5 589.1,-272 579.1,-268.5 579.1,-275.5"/>
</g>
<!-- Georeference&#45;&gt;ErrorGeographicItem -->
<g id="edge13" class="edge">
<title>Georeference&#45;&gt;ErrorGeographicItem</title>
<path fill="none" stroke="black" stroke-dasharray="1,5" d="M471.84,-206.02C494.65,-199.76 523.22,-191.93 549.49,-184.73"/>
<polygon fill="black" stroke="black" points="550.71,-188.03 559.43,-182.01 548.86,-181.27 550.71,-188.03"/>
</g>
<!-- Georeference&#45;&gt;GeographicItem -->
<g id="edge15" class="edge">
<title>Georeference&#45;&gt;GeographicItem</title>
<path fill="none" stroke="black" stroke-dasharray="1,5" d="M471.84,-218C498.71,-218 533.55,-218 563.23,-218"/>
<polygon fill="black" stroke="black" points="563.49,-221.5 573.49,-218 563.49,-214.5 563.49,-221.5"/>
</g>
<!-- Role&#45;&gt;Verifier -->
<!-- Role&#45;&gt;AccessionProviderRole -->
<!-- Role&#45;&gt;DeaccessionRecipientRole -->
<!-- SubsequentCitation&#45;&gt;SubsequentSource -->
<g id="edge28" class="edge">
<title>SubsequentCitation&#45;&gt;SubsequentSource</title>
<path fill="none" stroke="black" stroke-dasharray="1,5" d="M687.45,-1074C701.97,-1074 717.58,-1074 732.4,-1074"/>
<polygon fill="black" stroke="black" points="732.51,-1077.5 742.51,-1074 732.51,-1070.5 732.51,-1077.5"/>
</g>
<!-- VerifierRole&#45;&gt;Verifier -->
<g id="edge32" class="edge">
<title>VerifierRole&#45;&gt;Verifier</title>
<path fill="none" stroke="black" stroke-dasharray="1,5" d="M468.68,-340.96C481.86,-346.08 496.47,-352.02 509.62,-358 536.56,-370.25 566.16,-385.66 588.65,-397.8"/>
<polygon fill="black" stroke="black" points="587.06,-400.92 597.51,-402.62 590.4,-394.77 587.06,-400.92"/>
</g>
<!-- Version&#45;&gt;PinboardItem -->
<!-- Creator&#45;&gt;Updater -->
<!-- Project&#45;&gt;Creator -->
<!-- Citation -->
<g id="node1" class="node">
<title>Citation</title>
<g id="a_node1"><a xlink:href="/develop/Data/models.html#citation" xlink:title="Citation" target="_top">
<ellipse fill="#abcdef" stroke="#dddeee" cx="59.14" cy="-1074" rx="38.99" ry="18"/>
<text text-anchor="middle" x="59.14" y="-1070.3" font-family="Times,serif" font-size="14.00">Citation</text>
</a>
</g>
</g>
<!-- Confidence -->
<g id="node2" class="node">
<title>Confidence</title>
<g id="a_node2"><a xlink:href="/develop/Data/models.html#confidence" xlink:title="Confidence" target="_top">
<ellipse fill="#abcdef" stroke="#dddeee" cx="59.14" cy="-736" rx="50.89" ry="18"/>
<text text-anchor="middle" x="59.14" y="-732.3" font-family="Times,serif" font-size="14.00">Confidence</text>
</a>
</g>
</g>
<!-- DataAttribute -->
<g id="node3" class="node">
<title>DataAttribute</title>
<g id="a_node3"><a xlink:href="/develop/Data/models.html#data-attribute" xlink:title="DataAttribute" target="_top">
<ellipse fill="#abcdef" stroke="#dddeee" cx="59.14" cy="-682" rx="59.29" ry="18"/>
<text text-anchor="middle" x="59.14" y="-678.3" font-family="Times,serif" font-size="14.00">DataAttribute</text>
</a>
</g>
</g>
<!-- Depiction -->
<g id="node4" class="node">
<title>Depiction</title>
<g id="a_node4"><a xlink:href="/develop/Data/models.html#depiction" xlink:title="Depiction" target="_top">
<ellipse fill="#abcdef" stroke="#dddeee" cx="59.14" cy="-520" rx="45.49" ry="18"/>
<text text-anchor="middle" x="59.14" y="-516.3" font-family="Times,serif" font-size="14.00">Depiction</text>
</a>
</g>
</g>
<!-- Identifier -->
<g id="node5" class="node">
<title>Identifier</title>
<g id="a_node5"><a xlink:href="/develop/Data/models.html#identifier" xlink:title="Identifier" target="_top">
<ellipse fill="#abcdef" stroke="#dddeee" cx="59.14" cy="-628" rx="42.79" ry="18"/>
<text text-anchor="middle" x="59.14" y="-624.3" font-family="Times,serif" font-size="14.00">Identifier</text>
</a>
</g>
</g>
<!-- Tag -->
<g id="node6" class="node">
<title>Tag</title>
<g id="a_node6"><a xlink:href="/develop/Data/models.html#tag" xlink:title="Tag" target="_top">
<ellipse fill="#abcdef" stroke="#dddeee" cx="59.14" cy="-466" rx="27" ry="18"/>
<text text-anchor="middle" x="59.14" y="-462.3" font-family="Times,serif" font-size="14.00">Tag</text>
</a>
</g>
</g>
<!-- Note -->
<g id="node7" class="node">
<title>Note</title>
<g id="a_node7"><a xlink:href="/develop/Data/models.html#note" xlink:title="Note" target="_top">
<ellipse fill="#abcdef" stroke="#dddeee" cx="59.14" cy="-574" rx="27.9" ry="18"/>
<text text-anchor="middle" x="59.14" y="-570.3" font-family="Times,serif" font-size="14.00">Note</text>
</a>
</g>
</g>
<!-- CollectingEvent -->
<g id="node8" class="node">
<title>CollectingEvent</title>
<g id="a_node8"><a xlink:href="/develop/Data/models.html#collecting-event" xlink:title="CollectingEvent" target="_top">
<polygon fill="#cdefab" stroke="#dedede" points="304.77,-595.54 304.77,-610.46 261.82,-621 201.08,-621 158.13,-610.46 158.13,-595.54 201.08,-585 261.82,-585 304.77,-595.54"/>
<polygon fill="none" stroke="#dedede" points="308.78,-592.41 308.78,-613.59 262.31,-625 200.6,-625 154.13,-613.59 154.13,-592.41 200.6,-581 262.31,-581 308.78,-592.41"/>
<text text-anchor="middle" x="231.45" y="-599.3" font-family="Times,serif" font-size="14.00">CollectingEvent</text>
</a>
</g>
</g>
<!-- CollectionObject -->
<g id="node9" class="node">
<title>CollectionObject</title>
<g id="a_node9"><a xlink:href="/develop/Data/models.html#collection-object" xlink:title="CollectionObject" target="_top">
<path fill="#fedcba" stroke="#dddeee" d="M384.62,-855C384.62,-855 469.62,-855 469.62,-855 475.62,-855 481.62,-861 481.62,-867 481.62,-867 481.62,-879 481.62,-879 481.62,-885 475.62,-891 469.62,-891 469.62,-891 384.62,-891 384.62,-891 378.62,-891 372.62,-885 372.62,-879 372.62,-879 372.62,-867 372.62,-867 372.62,-861 378.62,-855 384.62,-855"/>
<text text-anchor="middle" x="427.12" y="-869.3" font-family="Times,serif" font-size="14.00">CollectionObject</text>
</a>
</g>
</g>
<!-- Otu -->
<g id="node10" class="node">
<title>Otu</title>
<g id="a_node10"><a xlink:href="/develop/Data/models.html#otu" xlink:title="Otu" target="_top">
<path fill="#fedcba" stroke="#dddeee" d="M611.12,-855C611.12,-855 641.12,-855 641.12,-855 647.12,-855 653.12,-861 653.12,-867 653.12,-867 653.12,-879 653.12,-879 653.12,-885 647.12,-891 641.12,-891 641.12,-891 611.12,-891 611.12,-891 605.12,-891 599.12,-885 599.12,-879 599.12,-879 599.12,-867 599.12,-867 599.12,-861 605.12,-855 611.12,-855"/>
<text text-anchor="middle" x="626.12" y="-869.3" font-family="Times,serif" font-size="14.00">Otu</text>
</a>
</g>
</g>
<!-- Source -->
<g id="node11" class="node">
<title>Source</title>
<g id="a_node11"><a xlink:href="/develop/Data/models.html#source" xlink:title="Source" target="_top">
<path fill="#fedcba" stroke="#dddeee" d="M412.12,-1056C412.12,-1056 442.12,-1056 442.12,-1056 448.12,-1056 454.12,-1062 454.12,-1068 454.12,-1068 454.12,-1080 454.12,-1080 454.12,-1086 448.12,-1092 442.12,-1092 442.12,-1092 412.12,-1092 412.12,-1092 406.12,-1092 400.12,-1086 400.12,-1080 400.12,-1080 400.12,-1068 400.12,-1068 400.12,-1062 406.12,-1056 412.12,-1056"/>
<text text-anchor="middle" x="427.12" y="-1070.3" font-family="Times,serif" font-size="14.00">Source</text>
</a>
</g>
</g>
<!-- CitationTopic -->
<g id="node12" class="node">
<title>CitationTopic</title>
<g id="a_node12"><a xlink:href="/develop/Data/models.html#citation-topic" xlink:title="CitationTopic" target="_top">
<polygon fill="#eeefff" stroke="#dddeee" points="277.45,-1147 185.45,-1147 185.45,-1111 277.45,-1111 277.45,-1147"/>
<text text-anchor="middle" x="231.45" y="-1125.3" font-family="Times,serif" font-size="14.00">CitationTopic</text>
</a>
</g>
</g>
<!-- CollectorRole -->
<g id="node13" class="node">
<title>CollectorRole</title>
<g id="a_node13"><a xlink:href="/develop/Data/models.html#collector-role" xlink:title="CollectorRole" target="_top">
<polygon fill="#eeefff" stroke="#dddeee" points="473.12,-836 381.12,-836 381.12,-800 473.12,-800 473.12,-836"/>
<text text-anchor="middle" x="427.12" y="-814.3" font-family="Times,serif" font-size="14.00">CollectorRole</text>
</a>
</g>
</g>
<!-- Collector -->
<g id="node14" class="node">
<title>Collector</title>
<g id="a_node14"><a xlink:href="/develop/Data/models.html#collector" xlink:title="Collector" target="_top">
<polygon fill="#eeefff" stroke="#dddeee" points="659.62,-836 592.62,-836 592.62,-800 659.62,-800 659.62,-836"/>
<text text-anchor="middle" x="626.12" y="-814.3" font-family="Times,serif" font-size="14.00">Collector</text>
</a>
</g>
</g>
<!-- ConfidenceLevel -->
<g id="node15" class="node">
<title>ConfidenceLevel</title>
<g id="a_node15"><a xlink:href="/develop/Data/models.html#confidence-level" xlink:title="ConfidenceLevel" target="_top">
<polygon fill="#eeefff" stroke="#dddeee" points="285.95,-754 176.95,-754 176.95,-718 285.95,-718 285.95,-754"/>
<text text-anchor="middle" x="231.45" y="-732.3" font-family="Times,serif" font-size="14.00">ConfidenceLevel</text>
</a>
</g>
</g>
<!-- Documentation -->
<g id="node16" class="node">
<title>Documentation</title>
<g id="a_node16"><a xlink:href="/develop/Data/models.html#documentation" xlink:title="Documentation" target="_top">
<polygon fill="#eeefff" stroke="#dddeee" points="477.62,-290 376.62,-290 376.62,-254 477.62,-254 477.62,-290"/>
<text text-anchor="middle" x="427.12" y="-268.3" font-family="Times,serif" font-size="14.00">Documentation</text>
</a>
</g>
</g>
<!-- Document -->
<g id="node17" class="node">
<title>Document</title>
<g id="a_node17"><a xlink:href="/develop/Data/models.html#document" xlink:title="Document" target="_top">
<polygon fill="#eeefff" stroke="#dddeee" points="663.12,-290 589.12,-290 589.12,-254 663.12,-254 663.12,-290"/>
<text text-anchor="middle" x="626.12" y="-268.3" font-family="Times,serif" font-size="14.00">Document</text>
</a>
</g>
</g>
<!-- DwcOccurrence -->
<g id="node18" class="node">
<title>DwcOccurrence</title>
<g id="a_node18"><a xlink:href="/develop/Data/models.html#dwc-occurrence" xlink:title="DwcOccurrence" target="_top">
<polygon fill="#eeefff" stroke="#dddeee" points="678.12,-946 574.12,-946 574.12,-910 678.12,-910 678.12,-946"/>
<text text-anchor="middle" x="626.12" y="-924.3" font-family="Times,serif" font-size="14.00">DwcOccurrence</text>
</a>
</g>
</g>
<!-- Georeference -->
<g id="node19" class="node">
<title>Georeference</title>
<g id="a_node19"><a xlink:href="/develop/Data/models.html#georeference" xlink:title="Georeference" target="_top">
<polygon fill="#eeefff" stroke="#dddeee" points="471.62,-236 382.62,-236 382.62,-200 471.62,-200 471.62,-236"/>
<text text-anchor="middle" x="427.12" y="-214.3" font-family="Times,serif" font-size="14.00">Georeference</text>
</a>
</g>
</g>
<!-- ErrorGeographicItem -->
<g id="node20" class="node">
<title>ErrorGeographicItem</title>
<g id="a_node20"><a xlink:href="/develop/Data/models.html#error-geographic-item" xlink:title="ErrorGeographicItem" target="_top">
<polygon fill="#eeefff" stroke="#dddeee" points="693.12,-182 559.12,-182 559.12,-146 693.12,-146 693.12,-182"/>
<text text-anchor="middle" x="626.12" y="-160.3" font-family="Times,serif" font-size="14.00">ErrorGeographicItem</text>
</a>
</g>
</g>
<!-- GeoLocateGeoreference -->
<g id="node21" class="node">
<title>GeoLocateGeoreference</title>
<g id="a_node21"><a xlink:href="/develop/Data/models.html#geo-locate-georeference" xlink:title="GeoLocateGeoreference" target="_top">
<polygon fill="#eeefff" stroke="#dddeee" points="501.62,-544 352.62,-544 352.62,-508 501.62,-508 501.62,-544"/>
<text text-anchor="middle" x="427.12" y="-522.3" font-family="Times,serif" font-size="14.00">GeoLocateGeoreference</text>
</a>
</g>
</g>
<!-- GeographicItem -->
<g id="node22" class="node">
<title>GeographicItem</title>
<g id="a_node22"><a xlink:href="/develop/Data/models.html#geographic-item" xlink:title="GeographicItem" target="_top">
<polygon fill="#eeefff" stroke="#dddeee" points="678.62,-236 573.62,-236 573.62,-200 678.62,-200 678.62,-236"/>
<text text-anchor="middle" x="626.12" y="-214.3" font-family="Times,serif" font-size="14.00">GeographicItem</text>
</a>
</g>
</g>
<!-- GpxGeoreference -->
<g id="node23" class="node">
<title>GpxGeoreference</title>
<g id="a_node23"><a xlink:href="/develop/Data/models.html#gpx-georeference" xlink:title="GpxGeoreference" target="_top">
<polygon fill="#eeefff" stroke="#dddeee" points="483.62,-490 370.62,-490 370.62,-454 483.62,-454 483.62,-490"/>
<text text-anchor="middle" x="427.12" y="-468.3" font-family="Times,serif" font-size="14.00">GpxGeoreference</text>
</a>
</g>
</g>
<!-- Image -->
<g id="node24" class="node">
<title>Image</title>
<g id="a_node24"><a xlink:href="/develop/Data/models.html#image" xlink:title="Image" target="_top">
<polygon fill="#eeefff" stroke="#dddeee" points="258.45,-538 204.45,-538 204.45,-502 258.45,-502 258.45,-538"/>
<text text-anchor="middle" x="231.45" y="-516.3" font-family="Times,serif" font-size="14.00">Image</text>
</a>
</g>
</g>
<!-- Keyword -->
<g id="node25" class="node">
<title>Keyword</title>
<g id="a_node25"><a xlink:href="/develop/Data/models.html#keyword" xlink:title="Keyword" target="_top">
<polygon fill="#eeefff" stroke="#dddeee" points="264.95,-484 197.95,-484 197.95,-448 264.95,-448 264.95,-484"/>
<text text-anchor="middle" x="231.45" y="-462.3" font-family="Times,serif" font-size="14.00">Keyword</text>
</a>
</g>
</g>
<!-- Label -->
<g id="node26" class="node">
<title>Label</title>
<g id="a_node26"><a xlink:href="/develop/Data/models.html#label" xlink:title="Label" target="_top">
<polygon fill="#eeefff" stroke="#dddeee" points="454.12,-436 400.12,-436 400.12,-400 454.12,-400 454.12,-436"/>
<text text-anchor="middle" x="427.12" y="-414.3" font-family="Times,serif" font-size="14.00">Label</text>
</a>
</g>
</g>
<!-- PinboardItem -->
<g id="node27" class="node">
<title>PinboardItem</title>
<g id="a_node27"><a xlink:href="/develop/Data/models.html#pinboard-item" xlink:title="PinboardItem" target="_top">
<polygon fill="#eeefff" stroke="#dddeee" points="671.62,-128 580.62,-128 580.62,-92 671.62,-92 671.62,-128"/>
<text text-anchor="middle" x="626.12" y="-106.3" font-family="Times,serif" font-size="14.00">PinboardItem</text>
</a>
</g>
</g>
<!-- Role -->
<g id="node28" class="node">
<title>Role</title>
<g id="a_node28"><a xlink:href="/develop/Data/models.html#role" xlink:title="Role" target="_top">
<polygon fill="#eeefff" stroke="#dddeee" points="454.12,-598 400.12,-598 400.12,-562 454.12,-562 454.12,-598"/>
<text text-anchor="middle" x="427.12" y="-576.3" font-family="Times,serif" font-size="14.00">Role</text>
</a>
</g>
</g>
<!-- SubsequentCitation -->
<g id="node29" class="node">
<title>SubsequentCitation</title>
<g id="a_node29"><a xlink:href="/develop/Data/models.html#subsequent-citation" xlink:title="SubsequentCitation" target="_top">
<polygon fill="#eeefff" stroke="#dddeee" points="687.12,-1092 565.12,-1092 565.12,-1056 687.12,-1056 687.12,-1092"/>
<text text-anchor="middle" x="626.12" y="-1070.3" font-family="Times,serif" font-size="14.00">SubsequentCitation</text>
</a>
</g>
</g>
<!-- SubsequentSource -->
<g id="node30" class="node">
<title>SubsequentSource</title>
<g id="a_node30"><a xlink:href="/develop/Data/models.html#subsequent-source" xlink:title="SubsequentSource" target="_top">
<polygon fill="#eeefff" stroke="#dddeee" points="858.62,-1092 742.62,-1092 742.62,-1056 858.62,-1056 858.62,-1092"/>
<text text-anchor="middle" x="800.62" y="-1070.3" font-family="Times,serif" font-size="14.00">SubsequentSource</text>
</a>
</g>
</g>
<!-- Topic -->
<g id="node31" class="node">
<title>Topic</title>
<g id="a_node31"><a xlink:href="/develop/Data/models.html#topic" xlink:title="Topic" target="_top">
<polygon fill="#eeefff" stroke="#dddeee" points="454.12,-1147 400.12,-1147 400.12,-1111 454.12,-1111 454.12,-1147"/>
<text text-anchor="middle" x="427.12" y="-1125.3" font-family="Times,serif" font-size="14.00">Topic</text>
</a>
</g>
</g>
<!-- VerifierRole -->
<g id="node32" class="node">
<title>VerifierRole</title>
<g id="a_node32"><a xlink:href="/develop/Data/models.html#verifier-role" xlink:title="VerifierRole" target="_top">
<polygon fill="#eeefff" stroke="#dddeee" points="468.62,-344 385.62,-344 385.62,-308 468.62,-308 468.62,-344"/>
<text text-anchor="middle" x="427.12" y="-322.3" font-family="Times,serif" font-size="14.00">VerifierRole</text>
</a>
</g>
</g>
<!-- Verifier -->
<g id="node33" class="node">
<title>Verifier</title>
<g id="a_node33"><a xlink:href="/develop/Data/models.html#verifier" xlink:title="Verifier" target="_top">
<polygon fill="#eeefff" stroke="#dddeee" points="654.62,-436 597.62,-436 597.62,-400 654.62,-400 654.62,-436"/>
<text text-anchor="middle" x="626.12" y="-414.3" font-family="Times,serif" font-size="14.00">Verifier</text>
</a>
</g>
</g>
<!-- Version -->
<g id="node34" class="node">
<title>Version</title>
<g id="a_node34"><a xlink:href="/develop/Data/models.html#version" xlink:title="Version" target="_top">
<polygon fill="#eeefff" stroke="#dddeee" points="456.12,-128 398.12,-128 398.12,-92 456.12,-92 456.12,-128"/>
<text text-anchor="middle" x="427.12" y="-106.3" font-family="Times,serif" font-size="14.00">Version</text>
</a>
</g>
</g>
<!-- Creator -->
<g id="node35" class="node">
<title>Creator</title>
<g id="a_node35"><a xlink:href="/develop/Data/models.html#creator" xlink:title="Creator" target="_top">
<polygon fill="#eeefff" stroke="#dddeee" points="654.62,-690 597.62,-690 597.62,-654 654.62,-654 654.62,-690"/>
<text text-anchor="middle" x="626.12" y="-668.3" font-family="Times,serif" font-size="14.00">Creator</text>
</a>
</g>
</g>
<!-- GeographicArea -->
<g id="node36" class="node">
<title>GeographicArea</title>
<g id="a_node36"><a xlink:href="/develop/Data/models.html#geographic-area" xlink:title="GeographicArea" target="_top">
<polygon fill="#eeefff" stroke="#dddeee" points="480.12,-36 374.12,-36 374.12,0 480.12,0 480.12,-36"/>
<text text-anchor="middle" x="427.12" y="-14.3" font-family="Times,serif" font-size="14.00">GeographicArea</text>
</a>
</g>
</g>
<!-- Project -->
<g id="node37" class="node">
<title>Project</title>
<g id="a_node37"><a xlink:href="/develop/Data/models.html#project" xlink:title="Project" target="_top">
<polygon fill="#eeefff" stroke="#dddeee" points="454.62,-690 399.62,-690 399.62,-654 454.62,-654 454.62,-690"/>
<text text-anchor="middle" x="427.12" y="-668.3" font-family="Times,serif" font-size="14.00">Project</text>
</a>
</g>
</g>
<!-- Updater -->
<g id="node38" class="node">
<title>Updater</title>
<g id="a_node38"><a xlink:href="/develop/Data/models.html#updater" xlink:title="Updater" target="_top">
<polygon fill="#eeefff" stroke="#dddeee" points="830.62,-690 770.62,-690 770.62,-654 830.62,-654 830.62,-690"/>
<text text-anchor="middle" x="800.62" y="-668.3" font-family="Times,serif" font-size="14.00">Updater</text>
</a>
</g>
</g>
<!-- AccessionProviderRole -->
<g id="node39" class="node">
<title>AccessionProviderRole</title>
<g id="a_node39"><a xlink:href="/develop/Data/models.html#accession-provider-role" xlink:title="AccessionProviderRole" target="_top">
<polygon fill="#eeefff" stroke="#dddeee" points="698.12,-563 554.12,-563 554.12,-527 698.12,-527 698.12,-563"/>
<text text-anchor="middle" x="626.12" y="-541.3" font-family="Times,serif" font-size="14.00">AccessionProviderRole</text>
</a>
</g>
</g>
<!-- DeaccessionRecipientRole -->
<g id="node40" class="node">
<title>DeaccessionRecipientRole</title>
<g id="a_node40"><a xlink:href="/develop/Data/models.html#deaccession-recipient-role" xlink:title="DeaccessionRecipientRole" target="_top">
<polygon fill="#eeefff" stroke="#dddeee" points="706.62,-617 545.62,-617 545.62,-581 706.62,-581 706.62,-617"/>
<text text-anchor="middle" x="626.12" y="-595.3" font-family="Times,serif" font-size="14.00">DeaccessionRecipientRole</text>
</a>
</g>
</g>
<!-- OriginCitation -->
<g id="node41" class="node">
<title>OriginCitation</title>
<g id="a_node41"><a xlink:href="/develop/Data/models.html#origin-citation" xlink:title="OriginCitation" target="_top">
<polygon fill="#eeefff" stroke="#dddeee" points="673.62,-1038 578.62,-1038 578.62,-1002 673.62,-1002 673.62,-1038"/>
<text text-anchor="middle" x="626.12" y="-1016.3" font-family="Times,serif" font-size="14.00">OriginCitation</text>
</a>
</g>
</g>
<!-- VerbatimDataGeoreference -->
<g id="node42" class="node">
<title>VerbatimDataGeoreference</title>
<g id="a_node42"><a xlink:href="/develop/Data/models.html#verbatim-data-georeference" xlink:title="VerbatimDataGeoreference" target="_top">
<polygon fill="#eeefff" stroke="#dddeee" points="509.62,-744 344.62,-744 344.62,-708 509.62,-708 509.62,-744"/>
<text text-anchor="middle" x="427.12" y="-722.3" font-family="Times,serif" font-size="14.00">VerbatimDataGeoreference</text>
</a>
</g>
</g>
</g>
</svg>
