<?xml version="1.0" encoding="UTF-8" standalone="no"?>
<!DOCTYPE svg PUBLIC "-//W3C//DTD SVG 1.1//EN"
 "http://www.w3.org/Graphics/SVG/1.1/DTD/svg11.dtd">
<!-- Generated by graphviz version 12.2.1 (20241206.2353)
 -->
<!-- Title: CommonName Pages: 1 -->
<svg width="785pt" height="957pt"
 viewBox="0.00 0.00 785.47 957.00" xmlns="http://www.w3.org/2000/svg" xmlns:xlink="http://www.w3.org/1999/xlink">
<g id="graph0" class="graph" transform="scale(1 1) rotate(0) translate(4 953)">
<title>CommonName</title>
<polygon fill="white" stroke="none" points="-4,4 -4,-953 781.47,-953 781.47,4 -4,4"/>
<!-- AlternateValue&#45;&gt;AlternateValueLanguage -->
<g id="edge1" class="edge">
<title>AlternateValue&#45;&gt;AlternateValueLanguage</title>
<path fill="none" stroke="black" stroke-dasharray="1,5" d="M124.69,-912.69C136.09,-914.41 148.29,-916.26 160.38,-918.09"/>
<polygon fill="black" stroke="black" points="159.54,-921.5 169.95,-919.53 160.58,-914.58 159.54,-921.5"/>
</g>
<!-- Citation&#45;&gt;Source -->
<g id="edge13" class="edge">
<title>Citation&#45;&gt;Source</title>
<path fill="none" stroke="black" stroke-dasharray="1,5" d="M107.27,-822C174.67,-822 309.79,-822 375.7,-822"/>
<polygon fill="black" stroke="black" points="375.66,-825.5 385.66,-822 375.66,-818.5 375.66,-825.5"/>
</g>
<!-- Citation&#45;&gt;CitationTopic -->
<g id="edge3" class="edge">
<title>Citation&#45;&gt;CitationTopic</title>
<path fill="none" stroke="black" stroke-dasharray="1,5" d="M100.37,-832.22C125.51,-839.96 160.62,-850.77 190.05,-859.83"/>
<polygon fill="black" stroke="black" points="188.98,-863.17 199.57,-862.76 191.04,-856.48 188.98,-863.17"/>
</g>
<!-- Tag&#45;&gt;Keyword -->
<g id="edge9" class="edge">
<title>Tag&#45;&gt;Keyword</title>
<path fill="none" stroke="black" stroke-dasharray="1,5" d="M93.55,-408C122.02,-408 167.86,-408 201.81,-408"/>
<polygon fill="black" stroke="black" points="201.77,-411.5 211.77,-408 201.77,-404.5 201.77,-411.5"/>
</g>
<!-- Source&#45;&gt;SubsequentCitation -->
<!-- Source&#45;&gt;OriginCitation -->
<!-- CommonName&#45;&gt;AlternateValue -->
<g id="edge2" class="edge">
<title>CommonName&#45;&gt;AlternateValue</title>
<path fill="none" stroke="black" d="M243.11,-513.42C235.08,-572.75 207.11,-737.01 132.39,-849 124.49,-860.84 113.34,-871.54 102.48,-880.29"/>
<polygon fill="black" stroke="black" points="100.52,-877.38 94.72,-886.24 104.78,-882.93 100.52,-877.38"/>
</g>
<!-- CommonName&#45;&gt;Citation -->
<g id="edge4" class="edge">
<title>CommonName&#45;&gt;Citation</title>
<path fill="none" stroke="black" d="M233.87,-513.12C202.32,-571.58 116.78,-730.11 82.1,-794.38"/>
<polygon fill="black" stroke="black" points="79.18,-792.41 77.52,-802.87 85.34,-795.73 79.18,-792.41"/>
</g>
<!-- CommonName&#45;&gt;DataAttribute -->
<g id="edge5" class="edge">
<title>CommonName&#45;&gt;DataAttribute</title>
<path fill="none" stroke="black" d="M203.96,-510.64C182.62,-520.53 156.21,-532.61 132.39,-543 126.42,-545.6 120.11,-548.29 113.87,-550.91"/>
<polygon fill="black" stroke="black" points="112.78,-547.58 104.9,-554.66 115.48,-554.04 112.78,-547.58"/>
</g>
<!-- CommonName&#45;&gt;Identifier -->
<g id="edge6" class="edge">
<title>CommonName&#45;&gt;Identifier</title>
<path fill="none" stroke="black" d="M168.1,-501.88C151.93,-504.14 135.24,-506.48 120.21,-508.58"/>
<polygon fill="black" stroke="black" points="119.99,-505.08 110.57,-509.93 120.96,-512.01 119.99,-505.08"/>
</g>
<!-- CommonName&#45;&gt;Tag -->
<g id="edge16" class="edge">
<title>CommonName&#45;&gt;Tag</title>
<path fill="none" stroke="black" d="M206.48,-470.79C184.79,-459.84 157.29,-446.29 132.39,-435 122.15,-430.36 110.87,-425.57 100.61,-421.34"/>
<polygon fill="black" stroke="black" points="101.96,-418.12 91.38,-417.58 99.32,-424.6 101.96,-418.12"/>
</g>
<!-- CommonName&#45;&gt;Note -->
<g id="edge10" class="edge">
<title>CommonName&#45;&gt;Note</title>
<path fill="none" stroke="black" d="M172.04,-479.02C149.16,-475.31 124.87,-471.36 105.44,-468.21"/>
<polygon fill="black" stroke="black" points="106.25,-464.8 95.82,-466.65 105.12,-471.7 106.25,-464.8"/>
</g>
<!-- CommonName&#45;&gt;Source -->
<g id="edge29" class="edge">
<title>CommonName&#45;&gt;Source</title>
<path fill="none" stroke="black" stroke-dasharray="1,5" d="M253.14,-523.39C264.19,-582.05 294.37,-707.35 361.22,-789 366.04,-794.89 372.21,-800.04 378.6,-804.42"/>
<polygon fill="none" stroke="black" points="247.44,-514.45 255.32,-513.02 256.75,-520.89 248.88,-522.32 247.44,-514.45"/>
<polyline fill="none" stroke="black" points="252.81,-521.6 253.17,-523.57"/>
<polygon fill="none" stroke="black" points="389.05,-806.25 384.8,-813.03 378.02,-808.78 382.27,-802 389.05,-806.25"/>
<polyline fill="none" stroke="black" points="380.15,-805.39 378.45,-804.33"/>
</g>
<!-- CommonName&#45;&gt;Otu -->
<g id="edge25" class="edge">
<title>CommonName&#45;&gt;Otu</title>
<path fill="none" stroke="black" stroke-dasharray="5,2" d="M287.82,-462.04C317.35,-440.73 353.66,-414.69 361.22,-410 369.46,-404.89 378.71,-399.76 387.11,-395.31"/>
<polygon fill="black" stroke="black" points="285.8,-459.18 279.74,-467.87 289.9,-464.85 285.8,-459.18"/>
</g>
<!-- CommonName&#45;&gt;TaxonName -->
<g id="edge30" class="edge">
<title>CommonName&#45;&gt;TaxonName</title>
<path fill="none" stroke="black" stroke-dasharray="1,5" d="M292.95,-464.4C304.52,-456.06 316.23,-446.09 325.22,-435 350.04,-404.4 334.18,-382.65 361.22,-354 362.25,-352.91 363.34,-351.85 364.47,-350.83"/>
<polygon fill="none" stroke="black" points="287.28,-473.19 282.73,-466.61 289.31,-462.06 293.86,-468.64 287.28,-473.19"/>
<polyline fill="none" stroke="black" points="291.58,-465.35 293.23,-464.21"/>
<polygon fill="none" stroke="black" points="369.62,-341.76 374.53,-348.08 368.21,-352.99 363.3,-346.67 369.62,-341.76"/>
<polyline fill="none" stroke="black" points="365.76,-349.83 364.18,-351.06"/>
</g>
<!-- CommonName&#45;&gt;ImportAttribute -->
<g id="edge7" class="edge">
<title>CommonName&#45;&gt;ImportAttribute</title>
<path fill="none" stroke="black" d="M286.14,-470.78C300.29,-461.59 315.27,-449.5 325.22,-435 360.61,-383.45 322.06,-347.74 361.22,-299 361.46,-298.7 361.71,-298.4 361.96,-298.11"/>
<polygon fill="black" stroke="black" points="364.15,-300.86 369.03,-291.45 359.35,-295.76 364.15,-300.86"/>
</g>
<!-- CommonName&#45;&gt;InternalAttribute -->
<g id="edge8" class="edge">
<title>CommonName&#45;&gt;InternalAttribute</title>
<path fill="none" stroke="black" d="M287.09,-470.88C301.18,-461.76 315.88,-449.7 325.22,-435 371.31,-362.45 309.82,-313.88 361.22,-245 361.45,-244.69 361.69,-244.39 361.92,-244.09"/>
<polygon fill="black" stroke="black" points="364.15,-246.8 368.81,-237.29 359.23,-241.82 364.15,-246.8"/>
</g>
<!-- CommonName&#45;&gt;PinboardItem -->
<g id="edge11" class="edge">
<title>CommonName&#45;&gt;PinboardItem</title>
<path fill="none" stroke="black" d="M287.4,-471.08C301.54,-461.99 316.19,-449.89 325.22,-435 382.1,-341.29 297.47,-280.17 361.22,-191 361.45,-190.69 361.67,-190.38 361.91,-190.07"/>
<polygon fill="black" stroke="black" points="364.16,-192.78 368.68,-183.2 359.17,-187.87 364.16,-192.78"/>
</g>
<!-- CommonName&#45;&gt;Role -->
<g id="edge12" class="edge">
<title>CommonName&#45;&gt;Role</title>
<path fill="none" stroke="black" d="M300.26,-473.91C325.1,-465.83 354.16,-456.36 376.64,-449.04"/>
<polygon fill="black" stroke="black" points="377.56,-452.42 385.98,-446 375.39,-445.76 377.56,-452.42"/>
</g>
<!-- CommonName&#45;&gt;SubsequentCitation -->
<g id="edge14" class="edge">
<title>CommonName&#45;&gt;SubsequentCitation</title>
<path fill="none" stroke="black" d="M250.42,-513.24C257.72,-564.64 283.16,-692.17 361.22,-756 381.2,-772.33 442.55,-783.56 492.55,-790.27"/>
<polygon fill="black" stroke="black" points="491.81,-793.7 502.18,-791.52 492.71,-786.76 491.81,-793.7"/>
</g>
<!-- CommonName&#45;&gt;Uri -->
<g id="edge18" class="edge">
<title>CommonName&#45;&gt;Uri</title>
<path fill="none" stroke="black" d="M288.22,-471.06C302.29,-462.03 316.67,-449.98 325.22,-435 410.45,-285.77 270.26,-195.81 361.22,-50 365.28,-43.5 371.19,-38.13 377.59,-33.76"/>
<polygon fill="black" stroke="black" points="379.05,-36.96 385.86,-28.84 375.47,-30.95 379.05,-36.96"/>
</g>
<!-- CommonName&#45;&gt;Uuid -->
<g id="edge19" class="edge">
<title>CommonName&#45;&gt;Uuid</title>
<path fill="none" stroke="black" d="M255.61,-513.2C270.73,-553.7 307.34,-640.63 361.22,-697 366.05,-702.06 371.85,-706.62 377.8,-710.62"/>
<polygon fill="black" stroke="black" points="375.53,-713.33 385.87,-715.62 379.21,-707.38 375.53,-713.33"/>
</g>
<!-- CommonName&#45;&gt;VerifierRole -->
<g id="edge20" class="edge">
<title>CommonName&#45;&gt;VerifierRole</title>
<path fill="none" stroke="black" d="M276.39,-513.17C298.87,-530.16 331.28,-553.72 361.22,-572 362.87,-573.01 364.57,-574.01 366.29,-575.01"/>
<polygon fill="black" stroke="black" points="364.56,-578.06 375,-579.89 367.98,-571.95 364.56,-578.06"/>
</g>
<!-- CommonName&#45;&gt;Creator -->
<g id="edge22" class="edge">
<title>CommonName&#45;&gt;Creator</title>
<path fill="none" stroke="black" stroke-dasharray="5,2" d="M297.36,-464.66C308.23,-456.58 318.49,-446.67 325.22,-435 364.51,-366.89 302.86,-135.7 361.22,-83 409.69,-39.24 493.16,-72.33 536.28,-94.41"/>
<polygon fill="black" stroke="black" points="295.64,-461.6 289.4,-470.16 299.62,-467.36 295.64,-461.6"/>
</g>
<!-- CommonName&#45;&gt;GeographicArea -->
<g id="edge23" class="edge">
<title>CommonName&#45;&gt;GeographicArea</title>
<path fill="none" stroke="black" stroke-dasharray="5,2" d="M311.02,-511.59C327.69,-517.02 345.48,-522.81 361.48,-528.03"/>
<polygon fill="black" stroke="black" points="312.29,-508.32 301.7,-508.55 310.13,-514.98 312.29,-508.32"/>
</g>
<!-- CommonName&#45;&gt;Language -->
<g id="edge24" class="edge">
<title>CommonName&#45;&gt;Language</title>
<path fill="none" stroke="black" stroke-dasharray="5,2" d="M336.53,-491C351.86,-491 366.91,-491 379.59,-491"/>
<polygon fill="black" stroke="black" points="336.88,-487.5 326.88,-491 336.88,-494.5 336.88,-487.5"/>
</g>
<!-- CommonName&#45;&gt;Project -->
<g id="edge26" class="edge">
<title>CommonName&#45;&gt;Project</title>
<path fill="none" stroke="black" stroke-dasharray="5,2" d="M297.21,-464.58C308.08,-456.49 318.38,-446.61 325.22,-435 392.94,-320.06 285.07,-246.54 361.22,-137 367.41,-128.1 377.46,-121.94 387.1,-117.78"/>
<polygon fill="black" stroke="black" points="295.49,-461.51 289.26,-470.08 299.47,-467.27 295.49,-461.51"/>
</g>
<!-- CommonName&#45;&gt;Updater -->
<g id="edge27" class="edge">
<title>CommonName&#45;&gt;Updater</title>
<path fill="none" stroke="black" stroke-dasharray="5,2" d="M264.12,-523.51C282.62,-556.31 316.16,-605 361.22,-626 472.66,-677.92 550.99,-642.62 625.72,-545 677.59,-477.24 709.12,-202.29 716.77,-128.37"/>
<polygon fill="black" stroke="black" points="267.24,-521.91 259.38,-514.81 261.09,-525.26 267.24,-521.91"/>
</g>
<!-- CommonName&#45;&gt;OriginCitation -->
<g id="edge28" class="edge">
<title>CommonName&#45;&gt;OriginCitation</title>
<path fill="none" stroke="black" d="M261.59,-522.92C279.4,-560.57 313.82,-622.6 361.22,-659 373.23,-668.22 451.85,-694 507.54,-711.57"/>
<polygon fill="none" stroke="black" points="253.8,-515.58 261.06,-512.23 264.42,-519.49 257.15,-522.84 253.8,-515.58"/>
<polyline fill="none" stroke="black" points="260.78,-521.17 261.62,-522.98"/>
<polygon fill="none" stroke="black" points="518.03,-710.67 515.63,-718.3 507.99,-715.9 510.39,-708.27 518.03,-710.67"/>
<polyline fill="none" stroke="black" points="509.19,-712.09 507.29,-711.49"/>
</g>
<!-- CitationTopic&#45;&gt;Topic -->
<g id="edge17" class="edge">
<title>CitationTopic&#45;&gt;Topic</title>
<path fill="none" stroke="black" stroke-dasharray="1,5" d="M292.67,-877C318.71,-877 351.15,-877 375.87,-877"/>
<polygon fill="black" stroke="black" points="375.81,-880.5 385.81,-877 375.81,-873.5 375.81,-880.5"/>
</g>
<!-- Role&#45;&gt;Verifier -->
<!-- SubsequentCitation&#45;&gt;SubsequentSource -->
<g id="edge15" class="edge">
<title>SubsequentCitation&#45;&gt;SubsequentSource</title>
<path fill="none" stroke="black" stroke-dasharray="1,5" d="M626.22,-798C634.15,-798 642.33,-798 650.38,-798"/>
<polygon fill="black" stroke="black" points="650.14,-801.5 660.14,-798 650.14,-794.5 650.14,-801.5"/>
</g>
<!-- VerifierRole&#45;&gt;Verifier -->
<g id="edge21" class="edge">
<title>VerifierRole&#45;&gt;Verifier</title>
<path fill="none" stroke="black" stroke-dasharray="1,5" d="M451.75,-580.58C457.21,-577.74 462.75,-574.82 467.97,-572 487.23,-561.62 508.45,-549.72 526.01,-539.74"/>
<polygon fill="black" stroke="black" points="527.62,-542.85 534.58,-534.86 524.16,-536.77 527.62,-542.85"/>
</g>
<!-- Creator&#45;&gt;Updater -->
<!-- Project&#45;&gt;Creator -->
<!-- AlternateValue -->
<g id="node1" class="node">
<title>AlternateValue</title>
<g id="a_node1"><a xlink:href="/develop/Data/models.html#alternate-value" xlink:title="AlternateValue" target="_top">
<ellipse fill="#abcdef" stroke="#dddeee" cx="66.19" cy="-904" rx="66.19" ry="18"/>
<text text-anchor="middle" x="66.19" y="-898.95" font-family="Times,serif" font-size="14.00">AlternateValue</text>
</a>
</g>
</g>
<!-- Citation -->
<g id="node2" class="node">
<title>Citation</title>
<g id="a_node2"><a xlink:href="/develop/Data/models.html#citation" xlink:title="Citation" target="_top">
<ellipse fill="#abcdef" stroke="#dddeee" cx="66.19" cy="-822" rx="40.6" ry="18"/>
<text text-anchor="middle" x="66.19" y="-816.95" font-family="Times,serif" font-size="14.00">Citation</text>
</a>
</g>
</g>
<!-- DataAttribute -->
<g id="node3" class="node">
<title>DataAttribute</title>
<g id="a_node3"><a xlink:href="/develop/Data/models.html#data-attribute" xlink:title="DataAttribute" target="_top">
<ellipse fill="#abcdef" stroke="#dddeee" cx="66.19" cy="-570" rx="61.59" ry="18"/>
<text text-anchor="middle" x="66.19" y="-564.95" font-family="Times,serif" font-size="14.00">DataAttribute</text>
</a>
</g>
</g>
<!-- Identifier -->
<g id="node4" class="node">
<title>Identifier</title>
<g id="a_node4"><a xlink:href="/develop/Data/models.html#identifier" xlink:title="Identifier" target="_top">
<ellipse fill="#abcdef" stroke="#dddeee" cx="66.19" cy="-516" rx="45.21" ry="18"/>
<text text-anchor="middle" x="66.19" y="-510.95" font-family="Times,serif" font-size="14.00">Identifier</text>
</a>
</g>
</g>
<!-- Tag -->
<g id="node5" class="node">
<title>Tag</title>
<g id="a_node5"><a xlink:href="/develop/Data/models.html#tag" xlink:title="Tag" target="_top">
<ellipse fill="#abcdef" stroke="#dddeee" cx="66.19" cy="-408" rx="27" ry="18"/>
<text text-anchor="middle" x="66.19" y="-402.95" font-family="Times,serif" font-size="14.00">Tag</text>
</a>
</g>
</g>
<!-- Note -->
<g id="node6" class="node">
<title>Note</title>
<g id="a_node6"><a xlink:href="/develop/Data/models.html#note" xlink:title="Note" target="_top">
<ellipse fill="#abcdef" stroke="#dddeee" cx="66.19" cy="-462" rx="28.83" ry="18"/>
<text text-anchor="middle" x="66.19" y="-456.95" font-family="Times,serif" font-size="14.00">Note</text>
</a>
</g>
</g>
<!-- Source -->
<g id="node7" class="node">
<title>Source</title>
<g id="a_node7"><a xlink:href="/develop/Data/models.html#source" xlink:title="Source" target="_top">
<path fill="#fedcba" stroke="#dddeee" d="M399.6,-804C399.6,-804 429.6,-804 429.6,-804 435.6,-804 441.6,-810 441.6,-816 441.6,-816 441.6,-828 441.6,-828 441.6,-834 435.6,-840 429.6,-840 429.6,-840 399.6,-840 399.6,-840 393.6,-840 387.6,-834 387.6,-828 387.6,-828 387.6,-816 387.6,-816 387.6,-810 393.6,-804 399.6,-804"/>
<text text-anchor="middle" x="414.6" y="-817.2" font-family="Times,serif" font-size="14.00">Source</text>
</a>
</g>
</g>
<!-- Otu -->
<g id="node8" class="node">
<title>Otu</title>
<g id="a_node8"><a xlink:href="/develop/Data/models.html#otu" xlink:title="Otu" target="_top">
<path fill="#fedcba" stroke="#dddeee" d="M399.6,-364C399.6,-364 429.6,-364 429.6,-364 435.6,-364 441.6,-370 441.6,-376 441.6,-376 441.6,-388 441.6,-388 441.6,-394 435.6,-400 429.6,-400 429.6,-400 399.6,-400 399.6,-400 393.6,-400 387.6,-394 387.6,-388 387.6,-388 387.6,-376 387.6,-376 387.6,-370 393.6,-364 399.6,-364"/>
<text text-anchor="middle" x="414.6" y="-377.2" font-family="Times,serif" font-size="14.00">Otu</text>
</a>
</g>
</g>
<!-- TaxonName -->
<g id="node9" class="node">
<title>TaxonName</title>
<g id="a_node9"><a xlink:href="/develop/Data/models.html#taxon-name" xlink:title="TaxonName" target="_top">
<path fill="#fedcba" stroke="#dddeee" d="M384.85,-309C384.85,-309 444.35,-309 444.35,-309 450.35,-309 456.35,-315 456.35,-321 456.35,-321 456.35,-333 456.35,-333 456.35,-339 450.35,-345 444.35,-345 444.35,-345 384.85,-345 384.85,-345 378.85,-345 372.85,-339 372.85,-333 372.85,-333 372.85,-321 372.85,-321 372.85,-315 378.85,-309 384.85,-309"/>
<text text-anchor="middle" x="414.6" y="-322.2" font-family="Times,serif" font-size="14.00">TaxonName</text>
</a>
</g>
</g>
<!-- CommonName -->
<g id="node10" class="node">
<title>CommonName</title>
<g id="a_node10"><a xlink:href="/develop/Data/models.html#common-name" xlink:title="CommonName" target="_top">
<polygon fill="#cdefab" stroke="#dedede" points="321.22,-483.54 321.22,-498.46 277.63,-509 215.98,-509 172.39,-498.46 172.39,-483.54 215.98,-473 277.63,-473 321.22,-483.54"/>
<polygon fill="none" stroke="#dedede" points="325.22,-480.4 325.22,-501.6 278.11,-513 215.5,-513 168.39,-501.6 168.39,-480.4 215.5,-469 278.11,-469 325.22,-480.4"/>
<text text-anchor="middle" x="246.81" y="-485.95" font-family="Times,serif" font-size="14.00">CommonName</text>
</a>
</g>
</g>
<!-- AlternateValueLanguage -->
<g id="node11" class="node">
<title>AlternateValueLanguage</title>
<g id="a_node11"><a xlink:href="/develop/Data/models.html#alternate-value-language" xlink:title="AlternateValueLanguage" target="_top">
<polygon fill="#eeefff" stroke="#dddeee" points="321.93,-949 171.68,-949 171.68,-913 321.93,-913 321.93,-949"/>
<text text-anchor="middle" x="246.81" y="-925.95" font-family="Times,serif" font-size="14.00">AlternateValueLanguage</text>
</a>
</g>
</g>
<!-- CitationTopic -->
<g id="node12" class="node">
<title>CitationTopic</title>
<g id="a_node12"><a xlink:href="/develop/Data/models.html#citation-topic" xlink:title="CitationTopic" target="_top">
<polygon fill="#eeefff" stroke="#dddeee" points="292.31,-895 201.31,-895 201.31,-859 292.31,-859 292.31,-895"/>
<text text-anchor="middle" x="246.81" y="-871.95" font-family="Times,serif" font-size="14.00">CitationTopic</text>
</a>
</g>
</g>
<!-- ImportAttribute -->
<g id="node13" class="node">
<title>ImportAttribute</title>
<g id="a_node13"><a xlink:href="/develop/Data/models.html#import-attribute" xlink:title="ImportAttribute" target="_top">
<polygon fill="#eeefff" stroke="#dddeee" points="465.72,-290 363.47,-290 363.47,-254 465.72,-254 465.72,-290"/>
<text text-anchor="middle" x="414.6" y="-266.95" font-family="Times,serif" font-size="14.00">ImportAttribute</text>
</a>
</g>
</g>
<!-- InternalAttribute -->
<g id="node14" class="node">
<title>InternalAttribute</title>
<g id="a_node14"><a xlink:href="/develop/Data/models.html#internal-attribute" xlink:title="InternalAttribute" target="_top">
<polygon fill="#eeefff" stroke="#dddeee" points="467.97,-236 361.22,-236 361.22,-200 467.97,-200 467.97,-236"/>
<text text-anchor="middle" x="414.6" y="-212.95" font-family="Times,serif" font-size="14.00">InternalAttribute</text>
</a>
</g>
</g>
<!-- Keyword -->
<g id="node15" class="node">
<title>Keyword</title>
<g id="a_node15"><a xlink:href="/develop/Data/models.html#keyword" xlink:title="Keyword" target="_top">
<polygon fill="#eeefff" stroke="#dddeee" points="279.93,-426 213.68,-426 213.68,-390 279.93,-390 279.93,-426"/>
<text text-anchor="middle" x="246.81" y="-402.95" font-family="Times,serif" font-size="14.00">Keyword</text>
</a>
</g>
</g>
<!-- PinboardItem -->
<g id="node16" class="node">
<title>PinboardItem</title>
<g id="a_node16"><a xlink:href="/develop/Data/models.html#pinboard-item" xlink:title="PinboardItem" target="_top">
<polygon fill="#eeefff" stroke="#dddeee" points="459.72,-182 369.47,-182 369.47,-146 459.72,-146 459.72,-182"/>
<text text-anchor="middle" x="414.6" y="-158.95" font-family="Times,serif" font-size="14.00">PinboardItem</text>
</a>
</g>
</g>
<!-- Role -->
<g id="node17" class="node">
<title>Role</title>
<g id="a_node17"><a xlink:href="/develop/Data/models.html#role" xlink:title="Role" target="_top">
<polygon fill="#eeefff" stroke="#dddeee" points="441.6,-455 387.6,-455 387.6,-419 441.6,-419 441.6,-455"/>
<text text-anchor="middle" x="414.6" y="-431.95" font-family="Times,serif" font-size="14.00">Role</text>
</a>
</g>
</g>
<!-- SubsequentCitation -->
<g id="node18" class="node">
<title>SubsequentCitation</title>
<g id="a_node18"><a xlink:href="/develop/Data/models.html#subsequent-citation" xlink:title="SubsequentCitation" target="_top">
<polygon fill="#eeefff" stroke="#dddeee" points="625.72,-816 503.97,-816 503.97,-780 625.72,-780 625.72,-816"/>
<text text-anchor="middle" x="564.85" y="-792.95" font-family="Times,serif" font-size="14.00">SubsequentCitation</text>
</a>
</g>
</g>
<!-- SubsequentSource -->
<g id="node19" class="node">
<title>SubsequentSource</title>
<g id="a_node19"><a xlink:href="/develop/Data/models.html#subsequent-source" xlink:title="SubsequentSource" target="_top">
<polygon fill="#eeefff" stroke="#dddeee" points="777.47,-816 661.72,-816 661.72,-780 777.47,-780 777.47,-816"/>
<text text-anchor="middle" x="719.6" y="-792.95" font-family="Times,serif" font-size="14.00">SubsequentSource</text>
</a>
</g>
</g>
<!-- Topic -->
<g id="node20" class="node">
<title>Topic</title>
<g id="a_node20"><a xlink:href="/develop/Data/models.html#topic" xlink:title="Topic" target="_top">
<polygon fill="#eeefff" stroke="#dddeee" points="441.6,-895 387.6,-895 387.6,-859 441.6,-859 441.6,-895"/>
<text text-anchor="middle" x="414.6" y="-871.95" font-family="Times,serif" font-size="14.00">Topic</text>
</a>
</g>
</g>
<!-- Uri -->
<g id="node21" class="node">
<title>Uri</title>
<g id="a_node21"><a xlink:href="/develop/Data/models.html#uri" xlink:title="Uri" target="_top">
<polygon fill="#eeefff" stroke="#dddeee" points="441.6,-36 387.6,-36 387.6,0 441.6,0 441.6,-36"/>
<text text-anchor="middle" x="414.6" y="-12.95" font-family="Times,serif" font-size="14.00">Uri</text>
</a>
</g>
</g>
<!-- Uuid -->
<g id="node22" class="node">
<title>Uuid</title>
<g id="a_node22"><a xlink:href="/develop/Data/models.html#uuid" xlink:title="Uuid" target="_top">
<polygon fill="#eeefff" stroke="#dddeee" points="441.6,-747 387.6,-747 387.6,-711 441.6,-711 441.6,-747"/>
<text text-anchor="middle" x="414.6" y="-723.95" font-family="Times,serif" font-size="14.00">Uuid</text>
</a>
</g>
</g>
<!-- VerifierRole -->
<g id="node23" class="node">
<title>VerifierRole</title>
<g id="a_node23"><a xlink:href="/develop/Data/models.html#verifier-role" xlink:title="VerifierRole" target="_top">
<polygon fill="#eeefff" stroke="#dddeee" points="455.97,-617 373.22,-617 373.22,-581 455.97,-581 455.97,-617"/>
<text text-anchor="middle" x="414.6" y="-593.95" font-family="Times,serif" font-size="14.00">VerifierRole</text>
</a>
</g>
</g>
<!-- Verifier -->
<g id="node24" class="node">
<title>Verifier</title>
<g id="a_node24"><a xlink:href="/develop/Data/models.html#verifier" xlink:title="Verifier" target="_top">
<polygon fill="#eeefff" stroke="#dddeee" points="593.47,-536 536.22,-536 536.22,-500 593.47,-500 593.47,-536"/>
<text text-anchor="middle" x="564.85" y="-512.95" font-family="Times,serif" font-size="14.00">Verifier</text>
</a>
</g>
</g>
<!-- Creator -->
<g id="node25" class="node">
<title>Creator</title>
<g id="a_node25"><a xlink:href="/develop/Data/models.html#creator" xlink:title="Creator" target="_top">
<polygon fill="#eeefff" stroke="#dddeee" points="593.1,-128 536.6,-128 536.6,-92 593.1,-92 593.1,-128"/>
<text text-anchor="middle" x="564.85" y="-104.95" font-family="Times,serif" font-size="14.00">Creator</text>
</a>
</g>
</g>
<!-- GeographicArea -->
<g id="node26" class="node">
<title>GeographicArea</title>
<g id="a_node26"><a xlink:href="/develop/Data/models.html#geographic-area" xlink:title="GeographicArea" target="_top">
<polygon fill="#eeefff" stroke="#dddeee" points="467.22,-563 361.97,-563 361.97,-527 467.22,-527 467.22,-563"/>
<text text-anchor="middle" x="414.6" y="-539.95" font-family="Times,serif" font-size="14.00">GeographicArea</text>
</a>
</g>
</g>
<!-- Language -->
<g id="node27" class="node">
<title>Language</title>
<g id="a_node27"><a xlink:href="/develop/Data/models.html#language" xlink:title="Language" target="_top">
<polygon fill="#eeefff" stroke="#dddeee" points="449.22,-509 379.97,-509 379.97,-473 449.22,-473 449.22,-509"/>
<text text-anchor="middle" x="414.6" y="-485.95" font-family="Times,serif" font-size="14.00">Language</text>
</a>
</g>
</g>
<!-- Project -->
<g id="node28" class="node">
<title>Project</title>
<g id="a_node28"><a xlink:href="/develop/Data/models.html#project" xlink:title="Project" target="_top">
<polygon fill="#eeefff" stroke="#dddeee" points="441.72,-128 387.47,-128 387.47,-92 441.72,-92 441.72,-128"/>
<text text-anchor="middle" x="414.6" y="-104.95" font-family="Times,serif" font-size="14.00">Project</text>
</a>
</g>
</g>
<!-- Updater -->
<g id="node29" class="node">
<title>Updater</title>
<g id="a_node29"><a xlink:href="/develop/Data/models.html#updater" xlink:title="Updater" target="_top">
<polygon fill="#eeefff" stroke="#dddeee" points="749.35,-128 689.85,-128 689.85,-92 749.35,-92 749.35,-128"/>
<text text-anchor="middle" x="719.6" y="-104.95" font-family="Times,serif" font-size="14.00">Updater</text>
</a>
</g>
</g>
<!-- OriginCitation -->
<g id="node30" class="node">
<title>OriginCitation</title>
<g id="a_node30"><a xlink:href="/develop/Data/models.html#origin-citation" xlink:title="OriginCitation" target="_top">
<polygon fill="#eeefff" stroke="#dddeee" points="612.22,-747 517.47,-747 517.47,-711 612.22,-711 612.22,-747"/>
<text text-anchor="middle" x="564.85" y="-723.95" font-family="Times,serif" font-size="14.00">OriginCitation</text>
</a>
</g>
</g>
</g>
</svg>
