<?xml version="1.0" encoding="UTF-8" standalone="no"?>
<!DOCTYPE svg PUBLIC "-//W3C//DTD SVG 1.1//EN"
 "http://www.w3.org/Graphics/SVG/1.1/DTD/svg11.dtd">
<!-- Generated by graphviz version 2.50.0 (20211204.2007)
 -->
<!-- Title: CommonName Pages: 1 -->
<svg width="774pt" height="741pt"
 viewBox="0.00 0.00 774.39 741.00" xmlns="http://www.w3.org/2000/svg" xmlns:xlink="http://www.w3.org/1999/xlink">
<g id="graph0" class="graph" transform="scale(1 1) rotate(0) translate(4 737)">
<title>CommonName</title>
<polygon fill="white" stroke="transparent" points="-4,4 -4,-737 770.39,-737 770.39,4 -4,4"/>
<!-- AlternateValue&#45;&gt;AlternateValueLanguage -->
<g id="edge1" class="edge">
<title>AlternateValue&#45;&gt;AlternateValueLanguage</title>
<path fill="none" stroke="black" stroke-dasharray="1,5" d="M119.97,-696.62C130.61,-698.28 141.99,-700.05 153.31,-701.81"/>
<polygon fill="black" stroke="black" points="152.81,-705.28 163.23,-703.36 153.89,-698.36 152.81,-705.28"/>
</g>
<!-- Citation&#45;&gt;Source -->
<g id="edge11" class="edge">
<title>Citation&#45;&gt;Source</title>
<path fill="none" stroke="black" stroke-dasharray="1,5" d="M102.78,-606C168.3,-606 301.51,-606 365.91,-606"/>
<polygon fill="black" stroke="black" points="366,-609.5 376,-606 366,-602.5 366,-609.5"/>
</g>
<!-- Citation&#45;&gt;CitationTopic -->
<g id="edge3" class="edge">
<title>Citation&#45;&gt;CitationTopic</title>
<path fill="none" stroke="black" stroke-dasharray="1,5" d="M96.46,-616.09C120.57,-623.74 154.31,-634.46 182.79,-643.5"/>
<polygon fill="black" stroke="black" points="182.03,-646.93 192.62,-646.63 184.15,-640.26 182.03,-646.93"/>
</g>
<!-- Tag&#45;&gt;Keyword -->
<g id="edge7" class="edge">
<title>Tag&#45;&gt;Keyword</title>
<path fill="none" stroke="black" stroke-dasharray="1,5" d="M91,-284C118.58,-284 162.36,-284 194.96,-284"/>
<polygon fill="black" stroke="black" points="195.11,-287.5 205.11,-284 195.11,-280.5 195.11,-287.5"/>
</g>
<!-- Source&#45;&gt;SubsequentCitation -->
<!-- Source&#45;&gt;OriginCitation -->
<!-- CommonName&#45;&gt;AlternateValue -->
<g id="edge2" class="edge">
<title>CommonName&#45;&gt;AlternateValue</title>
<path fill="none" stroke="black" d="M232.42,-389.02C219.81,-436.84 185.24,-552.34 127.39,-633 118.92,-644.81 107.44,-655.82 96.63,-664.84"/>
<polygon fill="black" stroke="black" points="94.16,-662.33 88.55,-671.32 98.54,-667.79 94.16,-662.33"/>
</g>
<!-- CommonName&#45;&gt;Citation -->
<g id="edge4" class="edge">
<title>CommonName&#45;&gt;Citation</title>
<path fill="none" stroke="black" d="M221.86,-389.11C189.63,-433.59 117.12,-533.65 83.05,-580.67"/>
<polygon fill="black" stroke="black" points="80.18,-578.66 77.15,-588.81 85.85,-582.77 80.18,-578.66"/>
</g>
<!-- CommonName&#45;&gt;DataAttribute -->
<g id="edge5" class="edge">
<title>CommonName&#45;&gt;DataAttribute</title>
<path fill="none" stroke="black" d="M197.88,-386.22C176.96,-396.17 150.88,-408.42 127.39,-419 121.22,-421.78 114.68,-424.66 108.25,-427.47"/>
<polygon fill="black" stroke="black" points="106.74,-424.31 98.95,-431.49 109.52,-430.73 106.74,-424.31"/>
</g>
<!-- CommonName&#45;&gt;Identifier -->
<g id="edge6" class="edge">
<title>CommonName&#45;&gt;Identifier</title>
<path fill="none" stroke="black" d="M163.95,-377.67C147.34,-380.07 130.1,-382.56 114.73,-384.78"/>
<polygon fill="black" stroke="black" points="113.83,-381.37 104.43,-386.26 114.83,-388.3 113.83,-381.37"/>
</g>
<!-- CommonName&#45;&gt;Tag -->
<g id="edge14" class="edge">
<title>CommonName&#45;&gt;Tag</title>
<path fill="none" stroke="black" d="M200.08,-347.1C178.87,-336.13 151.83,-322.44 127.39,-311 117.49,-306.36 106.58,-301.56 96.68,-297.32"/>
<polygon fill="black" stroke="black" points="97.76,-293.98 87.19,-293.29 95.02,-300.42 97.76,-293.98"/>
</g>
<!-- CommonName&#45;&gt;Note -->
<g id="edge8" class="edge">
<title>CommonName&#45;&gt;Note</title>
<path fill="none" stroke="black" d="M167.87,-355.28C144.9,-351.43 120.33,-347.31 100.92,-344.07"/>
<polygon fill="black" stroke="black" points="101.44,-340.6 91,-342.4 100.28,-347.51 101.44,-340.6"/>
</g>
<!-- CommonName&#45;&gt;Source -->
<g id="edge25" class="edge">
<title>CommonName&#45;&gt;Source</title>
<path fill="none" stroke="black" stroke-dasharray="1,5" d="M250.94,-398.57C267.31,-441.87 301.43,-520.32 350.39,-573 355.44,-578.44 361.58,-583.35 367.84,-587.63"/>
<polygon fill="none" stroke="black" points="243.69,-390.51 251.19,-387.73 253.97,-395.23 246.46,-398.01 243.69,-390.51"/>
<polyline fill="none" stroke="black" points="250.21,-396.62 250.91,-398.49 "/>
<polygon fill="none" stroke="black" points="378.52,-589.68 374.22,-596.43 367.47,-592.14 371.77,-585.39 378.52,-589.68"/>
<polyline fill="none" stroke="black" points="369.62,-588.76 367.93,-587.69 "/>
</g>
<!-- CommonName&#45;&gt;Otu -->
<g id="edge21" class="edge">
<title>CommonName&#45;&gt;Otu</title>
<path fill="none" stroke="black" stroke-dasharray="5,2" d="M284.4,-341.53C313.82,-324.69 351.4,-303.18 376.14,-289.02"/>
<polygon fill="black" stroke="black" points="282.49,-338.59 275.55,-346.59 285.97,-344.66 282.49,-338.59"/>
</g>
<!-- CommonName&#45;&gt;TaxonName -->
<g id="edge26" class="edge">
<title>CommonName&#45;&gt;TaxonName</title>
<path fill="none" stroke="black" stroke-dasharray="1,5" d="M282.07,-340.1C293.4,-331.65 305.07,-321.71 314.39,-311 336.06,-286.09 326.73,-269.04 350.39,-246 351.33,-245.08 352.31,-244.19 353.32,-243.32"/>
<polygon fill="none" stroke="black" points="276.26,-349.22 271.58,-342.73 278.07,-338.05 282.75,-344.54 276.26,-349.22"/>
<polyline fill="none" stroke="black" points="280.41,-341.29 282.03,-340.12 "/>
<polygon fill="none" stroke="black" points="359.19,-233.91 363.99,-240.31 357.6,-245.11 352.79,-238.71 359.19,-233.91"/>
<polyline fill="none" stroke="black" points="355.19,-241.91 353.59,-243.11 "/>
</g>
<!-- CommonName&#45;&gt;PinboardItem -->
<g id="edge9" class="edge">
<title>CommonName&#45;&gt;PinboardItem</title>
<path fill="none" stroke="black" d="M276.16,-346.6C289.85,-337.32 304.49,-325.2 314.39,-311 346.23,-265.32 314.87,-233.88 350.39,-191 350.98,-190.28 351.61,-189.58 352.25,-188.89"/>
<polygon fill="black" stroke="black" points="354.68,-191.41 359.84,-182.16 350.04,-186.17 354.68,-191.41"/>
</g>
<!-- CommonName&#45;&gt;Role -->
<g id="edge10" class="edge">
<title>CommonName&#45;&gt;Role</title>
<path fill="none" stroke="black" d="M277.43,-346.92C291.12,-337.74 305.44,-325.63 314.39,-311 363.13,-231.35 298,-181.3 350.39,-104 354.72,-97.61 360.8,-92.26 367.28,-87.88"/>
<polygon fill="black" stroke="black" points="369.47,-90.65 376.24,-82.5 365.87,-84.65 369.47,-90.65"/>
</g>
<!-- CommonName&#45;&gt;SubsequentCitation -->
<g id="edge12" class="edge">
<title>CommonName&#45;&gt;SubsequentCitation</title>
<path fill="none" stroke="black" d="M248.98,-389.1C264.58,-424.34 299.72,-493.26 350.39,-532 371.54,-548.17 432.74,-567.65 482.28,-581.61"/>
<polygon fill="black" stroke="black" points="481.45,-585.01 492.02,-584.32 483.33,-578.26 481.45,-585.01"/>
</g>
<!-- CommonName&#45;&gt;VerifierRole -->
<g id="edge16" class="edge">
<title>CommonName&#45;&gt;VerifierRole</title>
<path fill="none" stroke="black" d="M277.71,-347.09C291.45,-337.94 305.71,-325.8 314.39,-311 374.74,-208.09 281.73,-142.56 350.39,-45 351.53,-43.38 352.8,-41.85 354.17,-40.4"/>
<polygon fill="black" stroke="black" points="356.46,-43.05 361.75,-33.87 351.89,-37.74 356.46,-43.05"/>
</g>
<!-- CommonName&#45;&gt;Creator -->
<g id="edge18" class="edge">
<title>CommonName&#45;&gt;Creator</title>
<path fill="none" stroke="black" stroke-dasharray="5,2" d="M291.3,-344.68C337.11,-328.37 404.69,-313.33 456.39,-340 504.44,-364.79 533.69,-425.98 545.84,-456.73"/>
<polygon fill="black" stroke="black" points="290.04,-341.42 281.87,-348.17 292.46,-347.99 290.04,-341.42"/>
</g>
<!-- CommonName&#45;&gt;GeographicArea -->
<g id="edge19" class="edge">
<title>CommonName&#45;&gt;GeographicArea</title>
<path fill="none" stroke="black" stroke-dasharray="5,2" d="M299.96,-386.96C316.45,-392.44 334.2,-398.34 350.21,-403.66"/>
<polygon fill="black" stroke="black" points="301.01,-383.62 290.41,-383.79 298.8,-390.26 301.01,-383.62"/>
</g>
<!-- CommonName&#45;&gt;Language -->
<g id="edge20" class="edge">
<title>CommonName&#45;&gt;Language</title>
<path fill="none" stroke="black" stroke-dasharray="5,2" d="M324.23,-367C339.79,-367 355.2,-367 368.17,-367"/>
<polygon fill="black" stroke="black" points="324.01,-363.5 314.01,-367 324.01,-370.5 324.01,-363.5"/>
</g>
<!-- CommonName&#45;&gt;Project -->
<g id="edge22" class="edge">
<title>CommonName&#45;&gt;Project</title>
<path fill="none" stroke="black" stroke-dasharray="5,2" d="M275.74,-395.45C296.9,-411.69 324.52,-431.94 350.39,-448 358.43,-452.99 367.49,-457.92 375.76,-462.17"/>
<polygon fill="black" stroke="black" points="277.72,-392.56 267.67,-389.22 273.44,-398.1 277.72,-392.56"/>
</g>
<!-- CommonName&#45;&gt;Updater -->
<g id="edge23" class="edge">
<title>CommonName&#45;&gt;Updater</title>
<path fill="none" stroke="black" stroke-dasharray="5,2" d="M285.55,-340.81C296.47,-332.56 307.07,-322.54 314.39,-311 356.68,-244.31 289.15,-186.86 350.39,-137 386.92,-107.25 414.3,-115.83 456.39,-137 596.45,-207.45 678.02,-397.14 700.78,-456.79"/>
<polygon fill="black" stroke="black" points="283.3,-338.12 277.19,-346.77 287.36,-343.82 283.3,-338.12"/>
</g>
<!-- CommonName&#45;&gt;OriginCitation -->
<g id="edge24" class="edge">
<title>CommonName&#45;&gt;OriginCitation</title>
<path fill="none" stroke="black" d="M256.41,-397.84C274.96,-429.28 308.07,-476.9 350.39,-502 394.48,-528.15 452.69,-536.92 495.3,-539.58"/>
<polygon fill="none" stroke="black" points="247.89,-391.04 254.82,-387.05 258.81,-393.98 251.87,-397.97 247.89,-391.04"/>
<polyline fill="none" stroke="black" points="255.34,-395.98 256.34,-397.71 "/>
<polygon fill="none" stroke="black" points="505.71,-536.12 505.29,-544.11 497.3,-543.69 497.72,-535.7 505.71,-536.12"/>
<polyline fill="none" stroke="black" points="497.51,-539.7 495.52,-539.59 "/>
</g>
<!-- CitationTopic&#45;&gt;Topic -->
<g id="edge15" class="edge">
<title>CitationTopic&#45;&gt;Topic</title>
<path fill="none" stroke="black" stroke-dasharray="1,5" d="M285.15,-661C310.68,-661 342.14,-661 366.04,-661"/>
<polygon fill="black" stroke="black" points="366.11,-664.5 376.11,-661 366.11,-657.5 366.11,-664.5"/>
</g>
<!-- Role&#45;&gt;Verifier -->
<!-- SubsequentCitation&#45;&gt;SubsequentSource -->
<g id="edge13" class="edge">
<title>SubsequentCitation&#45;&gt;SubsequentSource</title>
<path fill="none" stroke="black" stroke-dasharray="1,5" d="M614.42,-600C622.75,-600 631.36,-600 639.82,-600"/>
<polygon fill="black" stroke="black" points="640.03,-603.5 650.03,-600 640.03,-596.5 640.03,-603.5"/>
</g>
<!-- VerifierRole&#45;&gt;Verifier -->
<g id="edge17" class="edge">
<title>VerifierRole&#45;&gt;Verifier</title>
<path fill="none" stroke="black" stroke-dasharray="1,5" d="M445.22,-25.45C466.99,-29.42 493.58,-34.27 514.83,-38.15"/>
<polygon fill="black" stroke="black" points="514.32,-41.61 524.78,-39.96 515.57,-34.73 514.32,-41.61"/>
</g>
<!-- Creator&#45;&gt;Updater -->
<!-- Project&#45;&gt;Creator -->
<!-- AlternateValue -->
<g id="node1" class="node">
<title>AlternateValue</title>
<g id="a_node1"><a xlink:href="/develop/Data/models.html#alternate-value" xlink:title="AlternateValue" target="_top">
<ellipse fill="#abcdef" stroke="#dddeee" cx="63.69" cy="-688" rx="63.89" ry="18"/>
<text text-anchor="middle" x="63.69" y="-684.3" font-family="Times,serif" font-size="14.00">AlternateValue</text>
</a>
</g>
</g>
<!-- Citation -->
<g id="node2" class="node">
<title>Citation</title>
<g id="a_node2"><a xlink:href="/develop/Data/models.html#citation" xlink:title="Citation" target="_top">
<ellipse fill="#abcdef" stroke="#dddeee" cx="63.69" cy="-606" rx="38.99" ry="18"/>
<text text-anchor="middle" x="63.69" y="-602.3" font-family="Times,serif" font-size="14.00">Citation</text>
</a>
</g>
</g>
<!-- DataAttribute -->
<g id="node3" class="node">
<title>DataAttribute</title>
<g id="a_node3"><a xlink:href="/develop/Data/models.html#data-attribute" xlink:title="DataAttribute" target="_top">
<ellipse fill="#abcdef" stroke="#dddeee" cx="63.69" cy="-446" rx="59.29" ry="18"/>
<text text-anchor="middle" x="63.69" y="-442.3" font-family="Times,serif" font-size="14.00">DataAttribute</text>
</a>
</g>
</g>
<!-- Identifier -->
<g id="node4" class="node">
<title>Identifier</title>
<g id="a_node4"><a xlink:href="/develop/Data/models.html#identifier" xlink:title="Identifier" target="_top">
<ellipse fill="#abcdef" stroke="#dddeee" cx="63.69" cy="-392" rx="42.79" ry="18"/>
<text text-anchor="middle" x="63.69" y="-388.3" font-family="Times,serif" font-size="14.00">Identifier</text>
</a>
</g>
</g>
<!-- Tag -->
<g id="node5" class="node">
<title>Tag</title>
<g id="a_node5"><a xlink:href="/develop/Data/models.html#tag" xlink:title="Tag" target="_top">
<ellipse fill="#abcdef" stroke="#dddeee" cx="63.69" cy="-284" rx="27" ry="18"/>
<text text-anchor="middle" x="63.69" y="-280.3" font-family="Times,serif" font-size="14.00">Tag</text>
</a>
</g>
</g>
<!-- Note -->
<g id="node6" class="node">
<title>Note</title>
<g id="a_node6"><a xlink:href="/develop/Data/models.html#note" xlink:title="Note" target="_top">
<ellipse fill="#abcdef" stroke="#dddeee" cx="63.69" cy="-338" rx="27.9" ry="18"/>
<text text-anchor="middle" x="63.69" y="-334.3" font-family="Times,serif" font-size="14.00">Note</text>
</a>
</g>
</g>
<!-- Source -->
<g id="node7" class="node">
<title>Source</title>
<g id="a_node7"><a xlink:href="/develop/Data/models.html#source" xlink:title="Source" target="_top">
<path fill="#fedcba" stroke="#dddeee" d="M388.39,-588C388.39,-588 418.39,-588 418.39,-588 424.39,-588 430.39,-594 430.39,-600 430.39,-600 430.39,-612 430.39,-612 430.39,-618 424.39,-624 418.39,-624 418.39,-624 388.39,-624 388.39,-624 382.39,-624 376.39,-618 376.39,-612 376.39,-612 376.39,-600 376.39,-600 376.39,-594 382.39,-588 388.39,-588"/>
<text text-anchor="middle" x="403.39" y="-602.3" font-family="Times,serif" font-size="14.00">Source</text>
</a>
</g>
</g>
<!-- Otu -->
<g id="node8" class="node">
<title>Otu</title>
<g id="a_node8"><a xlink:href="/develop/Data/models.html#otu" xlink:title="Otu" target="_top">
<path fill="#fedcba" stroke="#dddeee" d="M388.39,-256C388.39,-256 418.39,-256 418.39,-256 424.39,-256 430.39,-262 430.39,-268 430.39,-268 430.39,-280 430.39,-280 430.39,-286 424.39,-292 418.39,-292 418.39,-292 388.39,-292 388.39,-292 382.39,-292 376.39,-286 376.39,-280 376.39,-280 376.39,-268 376.39,-268 376.39,-262 382.39,-256 388.39,-256"/>
<text text-anchor="middle" x="403.39" y="-270.3" font-family="Times,serif" font-size="14.00">Otu</text>
</a>
</g>
</g>
<!-- TaxonName -->
<g id="node9" class="node">
<title>TaxonName</title>
<g id="a_node9"><a xlink:href="/develop/Data/models.html#taxon-name" xlink:title="TaxonName" target="_top">
<path fill="#fedcba" stroke="#dddeee" d="M373.39,-201C373.39,-201 433.39,-201 433.39,-201 439.39,-201 445.39,-207 445.39,-213 445.39,-213 445.39,-225 445.39,-225 445.39,-231 439.39,-237 433.39,-237 433.39,-237 373.39,-237 373.39,-237 367.39,-237 361.39,-231 361.39,-225 361.39,-225 361.39,-213 361.39,-213 361.39,-207 367.39,-201 373.39,-201"/>
<text text-anchor="middle" x="403.39" y="-215.3" font-family="Times,serif" font-size="14.00">TaxonName</text>
</a>
</g>
</g>
<!-- CommonName -->
<g id="node10" class="node">
<title>CommonName</title>
<g id="a_node10"><a xlink:href="/develop/Data/models.html#common-name" xlink:title="CommonName" target="_top">
<polygon fill="#cdefab" stroke="#dedede" points="309.99,-359.54 309.99,-374.46 268.34,-385 209.44,-385 167.79,-374.46 167.79,-359.54 209.44,-349 268.34,-349 309.99,-359.54"/>
<polygon fill="none" stroke="#dedede" points="313.99,-356.43 313.99,-377.57 268.84,-389 208.94,-389 163.78,-377.57 163.78,-356.43 208.94,-345 268.84,-345 313.99,-356.43"/>
<text text-anchor="middle" x="238.89" y="-363.3" font-family="Times,serif" font-size="14.00">CommonName</text>
</a>
</g>
</g>
<!-- AlternateValueLanguage -->
<g id="node11" class="node">
<title>AlternateValueLanguage</title>
<g id="a_node11"><a xlink:href="/develop/Data/models.html#alternate-value-language" xlink:title="AlternateValueLanguage" target="_top">
<polygon fill="#eeefff" stroke="#dddeee" points="314.39,-733 163.39,-733 163.39,-697 314.39,-697 314.39,-733"/>
<text text-anchor="middle" x="238.89" y="-711.3" font-family="Times,serif" font-size="14.00">AlternateValueLanguage</text>
</a>
</g>
</g>
<!-- CitationTopic -->
<g id="node12" class="node">
<title>CitationTopic</title>
<g id="a_node12"><a xlink:href="/develop/Data/models.html#citation-topic" xlink:title="CitationTopic" target="_top">
<polygon fill="#eeefff" stroke="#dddeee" points="284.89,-679 192.89,-679 192.89,-643 284.89,-643 284.89,-679"/>
<text text-anchor="middle" x="238.89" y="-657.3" font-family="Times,serif" font-size="14.00">CitationTopic</text>
</a>
</g>
</g>
<!-- Keyword -->
<g id="node13" class="node">
<title>Keyword</title>
<g id="a_node13"><a xlink:href="/develop/Data/models.html#keyword" xlink:title="Keyword" target="_top">
<polygon fill="#eeefff" stroke="#dddeee" points="272.39,-302 205.39,-302 205.39,-266 272.39,-266 272.39,-302"/>
<text text-anchor="middle" x="238.89" y="-280.3" font-family="Times,serif" font-size="14.00">Keyword</text>
</a>
</g>
</g>
<!-- PinboardItem -->
<g id="node14" class="node">
<title>PinboardItem</title>
<g id="a_node14"><a xlink:href="/develop/Data/models.html#pinboard-item" xlink:title="PinboardItem" target="_top">
<polygon fill="#eeefff" stroke="#dddeee" points="448.89,-182 357.89,-182 357.89,-146 448.89,-146 448.89,-182"/>
<text text-anchor="middle" x="403.39" y="-160.3" font-family="Times,serif" font-size="14.00">PinboardItem</text>
</a>
</g>
</g>
<!-- Role -->
<g id="node15" class="node">
<title>Role</title>
<g id="a_node15"><a xlink:href="/develop/Data/models.html#role" xlink:title="Role" target="_top">
<polygon fill="#eeefff" stroke="#dddeee" points="430.39,-90 376.39,-90 376.39,-54 430.39,-54 430.39,-90"/>
<text text-anchor="middle" x="403.39" y="-68.3" font-family="Times,serif" font-size="14.00">Role</text>
</a>
</g>
</g>
<!-- SubsequentCitation -->
<g id="node16" class="node">
<title>SubsequentCitation</title>
<g id="a_node16"><a xlink:href="/develop/Data/models.html#subsequent-citation" xlink:title="SubsequentCitation" target="_top">
<polygon fill="#eeefff" stroke="#dddeee" points="614.39,-618 492.39,-618 492.39,-582 614.39,-582 614.39,-618"/>
<text text-anchor="middle" x="553.39" y="-596.3" font-family="Times,serif" font-size="14.00">SubsequentCitation</text>
</a>
</g>
</g>
<!-- SubsequentSource -->
<g id="node17" class="node">
<title>SubsequentSource</title>
<g id="a_node17"><a xlink:href="/develop/Data/models.html#subsequent-source" xlink:title="SubsequentSource" target="_top">
<polygon fill="#eeefff" stroke="#dddeee" points="766.39,-618 650.39,-618 650.39,-582 766.39,-582 766.39,-618"/>
<text text-anchor="middle" x="708.39" y="-596.3" font-family="Times,serif" font-size="14.00">SubsequentSource</text>
</a>
</g>
</g>
<!-- Topic -->
<g id="node18" class="node">
<title>Topic</title>
<g id="a_node18"><a xlink:href="/develop/Data/models.html#topic" xlink:title="Topic" target="_top">
<polygon fill="#eeefff" stroke="#dddeee" points="430.39,-679 376.39,-679 376.39,-643 430.39,-643 430.39,-679"/>
<text text-anchor="middle" x="403.39" y="-657.3" font-family="Times,serif" font-size="14.00">Topic</text>
</a>
</g>
</g>
<!-- VerifierRole -->
<g id="node19" class="node">
<title>VerifierRole</title>
<g id="a_node19"><a xlink:href="/develop/Data/models.html#verifier-role" xlink:title="VerifierRole" target="_top">
<polygon fill="#eeefff" stroke="#dddeee" points="444.89,-36 361.89,-36 361.89,0 444.89,0 444.89,-36"/>
<text text-anchor="middle" x="403.39" y="-14.3" font-family="Times,serif" font-size="14.00">VerifierRole</text>
</a>
</g>
</g>
<!-- Verifier -->
<g id="node20" class="node">
<title>Verifier</title>
<g id="a_node20"><a xlink:href="/develop/Data/models.html#verifier" xlink:title="Verifier" target="_top">
<polygon fill="#eeefff" stroke="#dddeee" points="581.89,-63 524.89,-63 524.89,-27 581.89,-27 581.89,-63"/>
<text text-anchor="middle" x="553.39" y="-41.3" font-family="Times,serif" font-size="14.00">Verifier</text>
</a>
</g>
</g>
<!-- Creator -->
<g id="node21" class="node">
<title>Creator</title>
<g id="a_node21"><a xlink:href="/develop/Data/models.html#creator" xlink:title="Creator" target="_top">
<polygon fill="#eeefff" stroke="#dddeee" points="581.89,-493 524.89,-493 524.89,-457 581.89,-457 581.89,-493"/>
<text text-anchor="middle" x="553.39" y="-471.3" font-family="Times,serif" font-size="14.00">Creator</text>
</a>
</g>
</g>
<!-- GeographicArea -->
<g id="node22" class="node">
<title>GeographicArea</title>
<g id="a_node22"><a xlink:href="/develop/Data/models.html#geographic-area" xlink:title="GeographicArea" target="_top">
<polygon fill="#eeefff" stroke="#dddeee" points="456.39,-439 350.39,-439 350.39,-403 456.39,-403 456.39,-439"/>
<text text-anchor="middle" x="403.39" y="-417.3" font-family="Times,serif" font-size="14.00">GeographicArea</text>
</a>
</g>
</g>
<!-- Language -->
<g id="node23" class="node">
<title>Language</title>
<g id="a_node23"><a xlink:href="/develop/Data/models.html#language" xlink:title="Language" target="_top">
<polygon fill="#eeefff" stroke="#dddeee" points="438.39,-385 368.39,-385 368.39,-349 438.39,-349 438.39,-385"/>
<text text-anchor="middle" x="403.39" y="-363.3" font-family="Times,serif" font-size="14.00">Language</text>
</a>
</g>
</g>
<!-- Project -->
<g id="node24" class="node">
<title>Project</title>
<g id="a_node24"><a xlink:href="/develop/Data/models.html#project" xlink:title="Project" target="_top">
<polygon fill="#eeefff" stroke="#dddeee" points="430.89,-493 375.89,-493 375.89,-457 430.89,-457 430.89,-493"/>
<text text-anchor="middle" x="403.39" y="-471.3" font-family="Times,serif" font-size="14.00">Project</text>
</a>
</g>
</g>
<!-- Updater -->
<g id="node25" class="node">
<title>Updater</title>
<g id="a_node25"><a xlink:href="/develop/Data/models.html#updater" xlink:title="Updater" target="_top">
<polygon fill="#eeefff" stroke="#dddeee" points="738.39,-493 678.39,-493 678.39,-457 738.39,-457 738.39,-493"/>
<text text-anchor="middle" x="708.39" y="-471.3" font-family="Times,serif" font-size="14.00">Updater</text>
</a>
</g>
</g>
<!-- OriginCitation -->
<g id="node26" class="node">
<title>OriginCitation</title>
<g id="a_node26"><a xlink:href="/develop/Data/models.html#origin-citation" xlink:title="OriginCitation" target="_top">
<polygon fill="#eeefff" stroke="#dddeee" points="600.89,-558 505.89,-558 505.89,-522 600.89,-522 600.89,-558"/>
<text text-anchor="middle" x="553.39" y="-536.3" font-family="Times,serif" font-size="14.00">OriginCitation</text>
</a>
</g>
</g>
</g>
</svg>
