<?xml version="1.0" encoding="UTF-8" standalone="no"?>
<!DOCTYPE svg PUBLIC "-//W3C//DTD SVG 1.1//EN"
 "http://www.w3.org/Graphics/SVG/1.1/DTD/svg11.dtd">
<!-- Generated by graphviz version 12.2.1 (20241206.2353)
 -->
<!-- Title: Confidence Pages: 1 -->
<svg width="723pt" height="632pt"
 viewBox="0.00 0.00 723.34 632.00" xmlns="http://www.w3.org/2000/svg" xmlns:xlink="http://www.w3.org/1999/xlink">
<g id="graph0" class="graph" transform="scale(1 1) rotate(0) translate(4 628)">
<title>Confidence</title>
<polygon fill="white" stroke="none" points="-4,4 -4,-628 719.34,-628 719.34,4 -4,4"/>
<!-- Confidence&#45;&gt;Citation -->
<g id="edge2" class="edge">
<title>Confidence&#45;&gt;Citation</title>
<path fill="none" stroke="black" d="M61.8,-290.91C61.8,-228.14 61.8,-165.36 61.8,-102.59"/>
<polygon fill="black" stroke="black" points="65.3,-102.79 61.8,-92.79 58.3,-102.79 65.3,-102.79"/>
</g>
<!-- Confidence&#45;&gt;Source -->
<g id="edge18" class="edge">
<title>Confidence&#45;&gt;Source</title>
<path fill="none" stroke="black" stroke-dasharray="1,5" d="M69.03,-280.52C79.55,-234.73 105.2,-151.69 159.6,-106 183.54,-85.89 218.63,-77.94 245.05,-74.85"/>
<polygon fill="none" stroke="black" points="70.86,-290.88 63.05,-289.16 64.76,-281.35 72.57,-283.06 70.86,-290.88"/>
<polyline fill="none" stroke="black" points="68.67,-282.21 69.09,-280.25"/>
<polygon fill="none" stroke="black" points="254.54,-69.89 255.33,-77.85 247.37,-78.64 246.58,-70.68 254.54,-69.89"/>
<polyline fill="none" stroke="black" points="246.97,-74.66 244.98,-74.85"/>
</g>
<!-- Confidence&#45;&gt;ControlledVocabularyTerm -->
<g id="edge13" class="edge">
<title>Confidence&#45;&gt;ControlledVocabularyTerm</title>
<path fill="none" stroke="black" stroke-dasharray="5,2" d="M135.35,-313C156.06,-313 178.77,-313 199.99,-313"/>
<polygon fill="black" stroke="black" points="135.58,-309.5 125.58,-313 135.58,-316.5 135.58,-309.5"/>
</g>
<!-- Confidence&#45;&gt;PinboardItem -->
<g id="edge3" class="edge">
<title>Confidence&#45;&gt;PinboardItem</title>
<path fill="none" stroke="black" d="M112.42,-298.68C127.53,-294.45 144.21,-289.91 159.6,-286 181.31,-280.49 205.32,-274.88 226.26,-270.14"/>
<polygon fill="black" stroke="black" points="226.76,-273.62 235.75,-268.01 225.22,-266.79 226.76,-273.62"/>
</g>
<!-- Confidence&#45;&gt;Role -->
<g id="edge4" class="edge">
<title>Confidence&#45;&gt;Role</title>
<path fill="none" stroke="black" d="M82.89,-290.76C101.1,-271.99 129.6,-245.87 159.6,-231 186.13,-217.85 219.06,-211.04 244.03,-207.56"/>
<polygon fill="black" stroke="black" points="244.26,-211.06 253.74,-206.33 243.38,-204.11 244.26,-211.06"/>
</g>
<!-- Confidence&#45;&gt;SubsequentCitation -->
<g id="edge6" class="edge">
<title>Confidence&#45;&gt;SubsequentCitation</title>
<path fill="none" stroke="black" d="M71.44,-290.69C84.96,-259.19 114.34,-202.64 159.6,-177 243.12,-129.67 357.04,-131.23 430,-138.88"/>
<polygon fill="black" stroke="black" points="429.51,-142.35 439.84,-139.98 430.29,-135.39 429.51,-142.35"/>
</g>
<!-- Confidence&#45;&gt;VerifierRole -->
<g id="edge9" class="edge">
<title>Confidence&#45;&gt;VerifierRole</title>
<path fill="none" stroke="black" d="M82.89,-335.24C101.1,-354.01 129.6,-380.13 159.6,-395 181.3,-405.76 207.28,-412.27 229.68,-416.19"/>
<polygon fill="black" stroke="black" points="229.11,-419.64 239.54,-417.77 230.22,-412.73 229.11,-419.64"/>
</g>
<!-- Confidence&#45;&gt;ConfidenceLevel -->
<g id="edge11" class="edge">
<title>Confidence&#45;&gt;ConfidenceLevel</title>
<path fill="none" stroke="black" stroke-dasharray="5,2" d="M65.53,-346.62C71.88,-402.28 92.69,-513.4 159.6,-574 178.12,-590.77 204.36,-598.95 227.77,-602.87"/>
<polygon fill="black" stroke="black" points="69.02,-346.4 64.5,-336.82 62.06,-347.13 69.02,-346.4"/>
</g>
<!-- Confidence&#45;&gt;Creator -->
<g id="edge14" class="edge">
<title>Confidence&#45;&gt;Creator</title>
<path fill="none" stroke="black" stroke-dasharray="5,2" d="M65.79,-346.47C72.44,-398.48 93.56,-497.29 159.6,-541 258.97,-606.77 411.88,-553.29 474.03,-526.75"/>
<polygon fill="black" stroke="black" points="69.28,-346.24 64.66,-336.71 62.33,-347.05 69.28,-346.24"/>
</g>
<!-- Confidence&#45;&gt;Project -->
<g id="edge15" class="edge">
<title>Confidence&#45;&gt;Project</title>
<path fill="none" stroke="black" stroke-dasharray="5,2" d="M72.95,-346.06C86.48,-384.52 114.15,-447.2 159.6,-482 187.61,-503.45 228.69,-510.58 255.32,-512.91"/>
<polygon fill="black" stroke="black" points="76.36,-345.21 69.84,-336.86 69.73,-347.45 76.36,-345.21"/>
</g>
<!-- Confidence&#45;&gt;Updater -->
<g id="edge16" class="edge">
<title>Confidence&#45;&gt;Updater</title>
<path fill="none" stroke="black" stroke-dasharray="5,2" d="M76.25,-345.77C91.37,-378.02 119.22,-425.72 159.6,-449 237.72,-494.04 475.01,-470.12 563.59,-487 585.36,-491.15 609.38,-498.2 627.53,-504.05"/>
<polygon fill="black" stroke="black" points="79.53,-344.53 72.23,-336.86 73.15,-347.41 79.53,-344.53"/>
</g>
<!-- Confidence&#45;&gt;OriginCitation -->
<g id="edge17" class="edge">
<title>Confidence&#45;&gt;OriginCitation</title>
<path fill="none" stroke="black" d="M70.59,-280.65C82.37,-239.33 108.92,-169 159.6,-134 162.51,-131.98 348.28,-107.78 444.82,-95.32"/>
<polygon fill="none" stroke="black" points="71.84,-291.31 64.12,-289.21 66.22,-281.49 73.94,-283.59 71.84,-291.31"/>
<polyline fill="none" stroke="black" points="70.08,-282.54 70.61,-280.61"/>
<polygon fill="none" stroke="black" points="453.99,-90.1 455.01,-98.04 447.08,-99.06 446.06,-91.13 453.99,-90.1"/>
<polyline fill="none" stroke="black" points="446.57,-95.09 444.58,-95.35"/>
</g>
<!-- Confidence&#45;&gt;Objects with Confidences -->
<g id="edge12" class="edge">
<title>Confidence&#45;&gt;Objects with Confidences</title>
<path fill="none" stroke="black" stroke-dasharray="5,2" d="M122.43,-330.9C134.68,-334.39 147.53,-337.92 159.6,-341 175.8,-345.13 193.3,-349.22 209.86,-352.92"/>
<polygon fill="black" stroke="black" points="123.41,-327.54 112.83,-328.13 121.47,-334.26 123.41,-327.54"/>
</g>
<!-- Citation&#45;&gt;Source -->
<g id="edge5" class="edge">
<title>Citation&#45;&gt;Source</title>
<path fill="none" stroke="black" stroke-dasharray="1,5" d="M102.7,-73C142.93,-73 204.58,-73 244.01,-73"/>
<polygon fill="black" stroke="black" points="243.98,-76.5 253.98,-73 243.98,-69.5 243.98,-76.5"/>
</g>
<!-- Citation&#45;&gt;CitationTopic -->
<g id="edge1" class="edge">
<title>Citation&#45;&gt;CitationTopic</title>
<path fill="none" stroke="black" stroke-dasharray="1,5" d="M95.81,-62.88C114.45,-57.31 138.24,-50.44 159.6,-45 181.08,-39.52 204.85,-34.12 225.67,-29.61"/>
<polygon fill="black" stroke="black" points="226.37,-33.03 235.41,-27.51 224.9,-26.19 226.37,-33.03"/>
</g>
<!-- Source&#45;&gt;SubsequentCitation -->
<!-- Source&#45;&gt;OriginCitation -->
<!-- CitationTopic&#45;&gt;Topic -->
<g id="edge8" class="edge">
<title>CitationTopic&#45;&gt;Topic</title>
<path fill="none" stroke="black" stroke-dasharray="1,5" d="M328.62,-18C368.55,-18 426.27,-18 463.89,-18"/>
<polygon fill="black" stroke="black" points="463.84,-21.5 473.84,-18 463.84,-14.5 463.84,-21.5"/>
</g>
<!-- Role&#45;&gt;Verifier -->
<!-- SubsequentCitation&#45;&gt;SubsequentSource -->
<g id="edge7" class="edge">
<title>SubsequentCitation&#45;&gt;SubsequentSource</title>
<path fill="none" stroke="black" stroke-dasharray="1,5" d="M564.09,-150C572.02,-150 580.2,-150 588.25,-150"/>
<polygon fill="black" stroke="black" points="588.01,-153.5 598.01,-150 588.01,-146.5 588.01,-153.5"/>
</g>
<!-- VerifierRole&#45;&gt;Verifier -->
<g id="edge10" class="edge">
<title>VerifierRole&#45;&gt;Verifier</title>
<path fill="none" stroke="black" stroke-dasharray="1,5" d="M324.32,-417.83C348.85,-414.16 380.23,-407.38 405.84,-395 432.4,-382.16 458.09,-360.61 476.18,-343.41"/>
<polygon fill="black" stroke="black" points="478.62,-345.92 483.34,-336.43 473.73,-340.91 478.62,-345.92"/>
</g>
<!-- Creator&#45;&gt;Updater -->
<!-- Project&#45;&gt;Creator -->
<!-- Confidence -->
<g id="node1" class="node">
<title>Confidence</title>
<g id="a_node1"><a xlink:href="/develop/Data/models.html#confidence" xlink:title="Confidence" target="_top">
<polygon fill="#cdefab" stroke="#dedede" points="119.6,-305.54 119.6,-320.46 85.74,-331 37.86,-331 4,-320.46 4,-305.54 37.86,-295 85.74,-295 119.6,-305.54"/>
<polygon fill="none" stroke="#dedede" points="123.6,-302.6 123.6,-323.4 86.35,-335 37.25,-335 0,-323.4 0,-302.6 37.25,-291 86.35,-291 123.6,-302.6"/>
<text text-anchor="middle" x="61.8" y="-307.95" font-family="Times,serif" font-size="14.00">Confidence</text>
</a>
</g>
</g>
<!-- Citation -->
<g id="node2" class="node">
<title>Citation</title>
<g id="a_node2"><a xlink:href="/develop/Data/models.html#citation" xlink:title="Citation" target="_top">
<ellipse fill="#abcdef" stroke="#dddeee" cx="61.8" cy="-73" rx="40.6" ry="18"/>
<text text-anchor="middle" x="61.8" y="-67.95" font-family="Times,serif" font-size="14.00">Citation</text>
</a>
</g>
</g>
<!-- Source -->
<g id="node3" class="node">
<title>Source</title>
<g id="a_node3"><a xlink:href="/develop/Data/models.html#source" xlink:title="Source" target="_top">
<path fill="#fedcba" stroke="#dddeee" d="M267.72,-55C267.72,-55 297.72,-55 297.72,-55 303.72,-55 309.72,-61 309.72,-67 309.72,-67 309.72,-79 309.72,-79 309.72,-85 303.72,-91 297.72,-91 297.72,-91 267.72,-91 267.72,-91 261.72,-91 255.72,-85 255.72,-79 255.72,-79 255.72,-67 255.72,-67 255.72,-61 261.72,-55 267.72,-55"/>
<text text-anchor="middle" x="282.72" y="-68.2" font-family="Times,serif" font-size="14.00">Source</text>
</a>
</g>
</g>
<!-- ControlledVocabularyTerm -->
<g id="node4" class="node">
<title>ControlledVocabularyTerm</title>
<g id="a_node4"><a xlink:href="/develop/Data/models.html#controlled-vocabulary-term" xlink:title="ControlledVocabularyTerm" target="_top">
<path fill="#fedcba" stroke="#dddeee" d="M212.09,-295C212.09,-295 353.34,-295 353.34,-295 359.34,-295 365.34,-301 365.34,-307 365.34,-307 365.34,-319 365.34,-319 365.34,-325 359.34,-331 353.34,-331 353.34,-331 212.09,-331 212.09,-331 206.09,-331 200.09,-325 200.09,-319 200.09,-319 200.09,-307 200.09,-307 200.09,-301 206.09,-295 212.09,-295"/>
<text text-anchor="middle" x="282.72" y="-308.2" font-family="Times,serif" font-size="14.00">ControlledVocabularyTerm</text>
</a>
</g>
</g>
<!-- CitationTopic -->
<g id="node5" class="node">
<title>CitationTopic</title>
<g id="a_node5"><a xlink:href="/develop/Data/models.html#citation-topic" xlink:title="CitationTopic" target="_top">
<polygon fill="#eeefff" stroke="#dddeee" points="328.22,-36 237.22,-36 237.22,0 328.22,0 328.22,-36"/>
<text text-anchor="middle" x="282.72" y="-12.95" font-family="Times,serif" font-size="14.00">CitationTopic</text>
</a>
</g>
</g>
<!-- PinboardItem -->
<g id="node6" class="node">
<title>PinboardItem</title>
<g id="a_node6"><a xlink:href="/develop/Data/models.html#pinboard-item" xlink:title="PinboardItem" target="_top">
<polygon fill="#eeefff" stroke="#dddeee" points="327.84,-276 237.59,-276 237.59,-240 327.84,-240 327.84,-276"/>
<text text-anchor="middle" x="282.72" y="-252.95" font-family="Times,serif" font-size="14.00">PinboardItem</text>
</a>
</g>
</g>
<!-- Role -->
<g id="node7" class="node">
<title>Role</title>
<g id="a_node7"><a xlink:href="/develop/Data/models.html#role" xlink:title="Role" target="_top">
<polygon fill="#eeefff" stroke="#dddeee" points="309.72,-222 255.72,-222 255.72,-186 309.72,-186 309.72,-222"/>
<text text-anchor="middle" x="282.72" y="-198.95" font-family="Times,serif" font-size="14.00">Role</text>
</a>
</g>
</g>
<!-- SubsequentCitation -->
<g id="node8" class="node">
<title>SubsequentCitation</title>
<g id="a_node8"><a xlink:href="/develop/Data/models.html#subsequent-citation" xlink:title="SubsequentCitation" target="_top">
<polygon fill="#eeefff" stroke="#dddeee" points="563.59,-168 441.84,-168 441.84,-132 563.59,-132 563.59,-168"/>
<text text-anchor="middle" x="502.72" y="-144.95" font-family="Times,serif" font-size="14.00">SubsequentCitation</text>
</a>
</g>
</g>
<!-- SubsequentSource -->
<g id="node9" class="node">
<title>SubsequentSource</title>
<g id="a_node9"><a xlink:href="/develop/Data/models.html#subsequent-source" xlink:title="SubsequentSource" target="_top">
<polygon fill="#eeefff" stroke="#dddeee" points="715.34,-168 599.59,-168 599.59,-132 715.34,-132 715.34,-168"/>
<text text-anchor="middle" x="657.47" y="-144.95" font-family="Times,serif" font-size="14.00">SubsequentSource</text>
</a>
</g>
</g>
<!-- Topic -->
<g id="node10" class="node">
<title>Topic</title>
<g id="a_node10"><a xlink:href="/develop/Data/models.html#topic" xlink:title="Topic" target="_top">
<polygon fill="#eeefff" stroke="#dddeee" points="529.72,-36 475.72,-36 475.72,0 529.72,0 529.72,-36"/>
<text text-anchor="middle" x="502.72" y="-12.95" font-family="Times,serif" font-size="14.00">Topic</text>
</a>
</g>
</g>
<!-- VerifierRole -->
<g id="node11" class="node">
<title>VerifierRole</title>
<g id="a_node11"><a xlink:href="/develop/Data/models.html#verifier-role" xlink:title="VerifierRole" target="_top">
<polygon fill="#eeefff" stroke="#dddeee" points="324.09,-440 241.34,-440 241.34,-404 324.09,-404 324.09,-440"/>
<text text-anchor="middle" x="282.72" y="-416.95" font-family="Times,serif" font-size="14.00">VerifierRole</text>
</a>
</g>
</g>
<!-- Verifier -->
<g id="node12" class="node">
<title>Verifier</title>
<g id="a_node12"><a xlink:href="/develop/Data/models.html#verifier" xlink:title="Verifier" target="_top">
<polygon fill="#eeefff" stroke="#dddeee" points="531.34,-335 474.09,-335 474.09,-299 531.34,-299 531.34,-335"/>
<text text-anchor="middle" x="502.72" y="-311.95" font-family="Times,serif" font-size="14.00">Verifier</text>
</a>
</g>
</g>
<!-- ConfidenceLevel -->
<g id="node13" class="node">
<title>ConfidenceLevel</title>
<g id="a_node13"><a xlink:href="/develop/Data/models.html#confidence-level" xlink:title="ConfidenceLevel" target="_top">
<polygon fill="#eeefff" stroke="#dddeee" points="337.22,-624 228.22,-624 228.22,-588 337.22,-588 337.22,-624"/>
<text text-anchor="middle" x="282.72" y="-600.95" font-family="Times,serif" font-size="14.00">ConfidenceLevel</text>
</a>
</g>
</g>
<!-- Creator -->
<g id="node14" class="node">
<title>Creator</title>
<g id="a_node14"><a xlink:href="/develop/Data/models.html#creator" xlink:title="Creator" target="_top">
<polygon fill="#eeefff" stroke="#dddeee" points="530.97,-532 474.47,-532 474.47,-496 530.97,-496 530.97,-532"/>
<text text-anchor="middle" x="502.72" y="-508.95" font-family="Times,serif" font-size="14.00">Creator</text>
</a>
</g>
</g>
<!-- Project -->
<g id="node15" class="node">
<title>Project</title>
<g id="a_node15"><a xlink:href="/develop/Data/models.html#project" xlink:title="Project" target="_top">
<polygon fill="#eeefff" stroke="#dddeee" points="309.84,-532 255.59,-532 255.59,-496 309.84,-496 309.84,-532"/>
<text text-anchor="middle" x="282.72" y="-508.95" font-family="Times,serif" font-size="14.00">Project</text>
</a>
</g>
</g>
<!-- Updater -->
<g id="node16" class="node">
<title>Updater</title>
<g id="a_node16"><a xlink:href="/develop/Data/models.html#updater" xlink:title="Updater" target="_top">
<polygon fill="#eeefff" stroke="#dddeee" points="687.22,-532 627.72,-532 627.72,-496 687.22,-496 687.22,-532"/>
<text text-anchor="middle" x="657.47" y="-508.95" font-family="Times,serif" font-size="14.00">Updater</text>
</a>
</g>
</g>
<!-- OriginCitation -->
<g id="node17" class="node">
<title>OriginCitation</title>
<g id="a_node17"><a xlink:href="/develop/Data/models.html#origin-citation" xlink:title="OriginCitation" target="_top">
<polygon fill="#eeefff" stroke="#dddeee" points="550.09,-106 455.34,-106 455.34,-70 550.09,-70 550.09,-106"/>
<text text-anchor="middle" x="502.72" y="-82.95" font-family="Times,serif" font-size="14.00">OriginCitation</text>
</a>
</g>
</g>
<!-- Objects with Confidences -->
<g id="node18" class="node">
<title>Objects with Confidences</title>
<g id="a_node18"><a xlink:href="/develop/Data/models.html#objects with confidence" xlink:title="Objects with Confidences" target="_top">
<polygon fill="#cdabef" stroke="#dedede" points="405.84,-368 344.28,-386 221.16,-386 159.6,-368 221.16,-350 344.28,-350 405.84,-368"/>
<text text-anchor="middle" x="282.72" y="-362.95" font-family="Times,serif" font-size="14.00">Objects with Confidences</text>
</a>
</g>
</g>
</g>
</svg>
