<?xml version="1.0" encoding="UTF-8" standalone="no"?>
<!DOCTYPE svg PUBLIC "-//W3C//DTD SVG 1.1//EN"
 "http://www.w3.org/Graphics/SVG/1.1/DTD/svg11.dtd">
<!-- Generated by graphviz version 12.2.1 (20241206.2353)
 -->
<!-- Title: Content Pages: 1 -->
<svg width="728pt" height="771pt"
 viewBox="0.00 0.00 728.43 770.68" xmlns="http://www.w3.org/2000/svg" xmlns:xlink="http://www.w3.org/1999/xlink">
<g id="graph0" class="graph" transform="scale(1 1) rotate(0) translate(4 766.68)">
<title>Content</title>
<polygon fill="white" stroke="none" points="-4,4 -4,-766.68 724.43,-766.68 724.43,4 -4,4"/>
<!-- Citation&#45;&gt;Source -->
<g id="edge12" class="edge">
<title>Citation&#45;&gt;Source</title>
<path fill="none" stroke="black" stroke-dasharray="1,5" d="M102.54,-689.68C159.43,-689.68 263.05,-689.68 318.74,-689.68"/>
<polygon fill="black" stroke="black" points="318.67,-693.18 328.67,-689.68 318.67,-686.18 318.67,-693.18"/>
</g>
<!-- Citation&#45;&gt;CitationTopic -->
<g id="edge1" class="edge">
<title>Citation&#45;&gt;CitationTopic</title>
<path fill="none" stroke="black" stroke-dasharray="1,5" d="M93.69,-701.08C112.05,-707.81 135.83,-716.52 157.3,-724.39"/>
<polygon fill="black" stroke="black" points="155.94,-727.62 166.53,-727.77 158.35,-721.05 155.94,-727.62"/>
</g>
<!-- Confidence&#45;&gt;ConfidenceLevel -->
<g id="edge3" class="edge">
<title>Confidence&#45;&gt;ConfidenceLevel</title>
<path fill="none" stroke="black" stroke-dasharray="1,5" d="M115.08,-355.33C125.45,-355.26 136.45,-355.19 147.18,-355.12"/>
<polygon fill="black" stroke="black" points="147.2,-358.62 157.17,-355.05 147.15,-351.62 147.2,-358.62"/>
</g>
<!-- Depiction&#45;&gt;Image -->
<g id="edge7" class="edge">
<title>Depiction&#45;&gt;Image</title>
<path fill="none" stroke="black" stroke-dasharray="1,5" d="M109.25,-301.37C130.45,-301.23 155.18,-301.07 175.15,-300.93"/>
<polygon fill="black" stroke="black" points="175.1,-304.43 185.07,-300.87 175.05,-297.43 175.1,-304.43"/>
</g>
<!-- Source&#45;&gt;SubsequentCitation -->
<!-- Source&#45;&gt;OriginCitation -->
<!-- Content&#45;&gt;Citation -->
<g id="edge2" class="edge">
<title>Content&#45;&gt;Citation</title>
<path fill="none" stroke="black" d="M200.7,-434.79C173.58,-484.84 107.52,-606.76 77.67,-661.85"/>
<polygon fill="black" stroke="black" points="74.61,-660.14 72.93,-670.6 80.77,-663.48 74.61,-660.14"/>
</g>
<!-- Content&#45;&gt;Confidence -->
<g id="edge4" class="edge">
<title>Content&#45;&gt;Confidence</title>
<path fill="none" stroke="black" d="M175.27,-398.48C155.09,-390.81 130,-381.29 108.63,-373.17"/>
<polygon fill="black" stroke="black" points="110.16,-370.01 99.57,-369.73 107.68,-376.55 110.16,-370.01"/>
</g>
<!-- Content&#45;&gt;DataAttribute -->
<g id="edge5" class="edge">
<title>Content&#45;&gt;DataAttribute</title>
<path fill="none" stroke="black" d="M166.15,-412.06C156.07,-411.93 145.18,-411.78 134.38,-411.64"/>
<polygon fill="black" stroke="black" points="134.76,-408.15 124.71,-411.51 134.67,-415.14 134.76,-408.15"/>
</g>
<!-- Content&#45;&gt;Depiction -->
<g id="edge6" class="edge">
<title>Content&#45;&gt;Depiction</title>
<path fill="none" stroke="black" d="M179.66,-396.67C172.48,-392.36 165.23,-387.32 159.18,-381.68 138.33,-362.28 145.02,-346.96 123.18,-328.68 118.54,-324.8 113.25,-321.38 107.79,-318.39"/>
<polygon fill="black" stroke="black" points="109.71,-315.44 99.2,-314.14 106.6,-321.71 109.71,-315.44"/>
</g>
<!-- Content&#45;&gt;Attribution -->
<g id="edge25" class="edge">
<title>Content&#45;&gt;Attribution</title>
<path fill="none" stroke="black" d="M163.93,-429.57C146.33,-435.67 126.53,-442.53 109.12,-448.56"/>
<polygon fill="none" stroke="black" points="171.67,-422.66 174.29,-430.22 166.73,-432.84 164.11,-425.28 171.67,-422.66"/>
<polyline fill="none" stroke="black" points="165.42,-429.06 163.53,-429.71"/>
<polygon fill="none" stroke="black" points="101.09,-455.58 98.47,-448.02 106.03,-445.4 108.64,-452.96 101.09,-455.58"/>
<polyline fill="none" stroke="black" points="107.33,-449.18 109.22,-448.53"/>
</g>
<!-- Content&#45;&gt;Source -->
<g id="edge28" class="edge">
<title>Content&#45;&gt;Source</title>
<path fill="none" stroke="black" stroke-dasharray="1,5" d="M219.68,-445.17C228.81,-495.31 252.23,-592.46 304.18,-656.68 308.96,-662.6 315.11,-667.77 321.49,-672.15"/>
<polygon fill="none" stroke="black" points="214.04,-436.11 221.92,-434.73 223.3,-442.61 215.41,-443.99 214.04,-436.11"/>
<polyline fill="none" stroke="black" points="219.35,-443.3 219.7,-445.27"/>
<polygon fill="none" stroke="black" points="331.95,-673.98 327.7,-680.76 320.92,-676.51 325.17,-669.73 331.95,-673.98"/>
<polyline fill="none" stroke="black" points="323.04,-673.12 321.35,-672.06"/>
</g>
<!-- Content&#45;&gt;Otu -->
<g id="edge21" class="edge">
<title>Content&#45;&gt;Otu</title>
<path fill="none" stroke="black" stroke-dasharray="5,2" d="M262.41,-394.18C285.06,-385.4 311.27,-375.24 330.27,-367.87"/>
<polygon fill="black" stroke="black" points="261.42,-390.81 253.36,-397.69 263.95,-397.33 261.42,-390.81"/>
</g>
<!-- Content&#45;&gt;ImportAttribute -->
<g id="edge8" class="edge">
<title>Content&#45;&gt;ImportAttribute</title>
<path fill="none" stroke="black" d="M247.62,-396.59C254.8,-392.29 262.07,-387.26 268.18,-381.68 288.65,-362.96 283.38,-349.05 304.18,-330.68 305.41,-329.6 306.69,-328.53 308.01,-327.5"/>
<polygon fill="black" stroke="black" points="309.74,-330.56 315.92,-321.96 305.72,-324.83 309.74,-330.56"/>
</g>
<!-- Content&#45;&gt;InternalAttribute -->
<g id="edge9" class="edge">
<title>Content&#45;&gt;InternalAttribute</title>
<path fill="none" stroke="black" d="M249.44,-397.45C256.37,-393.15 263.07,-387.91 268.18,-381.68 299.71,-343.2 271.7,-313.38 304.18,-275.68 304.52,-275.29 304.87,-274.89 305.22,-274.51"/>
<polygon fill="black" stroke="black" points="307.28,-277.36 312.44,-268.11 302.63,-272.13 307.28,-277.36"/>
</g>
<!-- Content&#45;&gt;PinboardItem -->
<g id="edge10" class="edge">
<title>Content&#45;&gt;PinboardItem</title>
<path fill="none" stroke="black" d="M251.1,-397.91C257.75,-393.62 263.93,-388.27 268.18,-381.68 311.74,-314.11 244.56,-75.63 304.18,-21.68 347.26,17.31 418.13,-4.63 463.61,-25.5"/>
<polygon fill="black" stroke="black" points="461.85,-28.54 472.38,-29.68 464.86,-22.22 461.85,-28.54"/>
</g>
<!-- Content&#45;&gt;Role -->
<g id="edge11" class="edge">
<title>Content&#45;&gt;Role</title>
<path fill="none" stroke="black" d="M250.22,-397.67C257.02,-393.38 263.47,-388.09 268.18,-381.68 311.32,-322.94 259.6,-279.35 304.18,-221.68 308.49,-216.11 314.27,-211.58 320.42,-207.93"/>
<polygon fill="black" stroke="black" points="321.58,-211.27 328.89,-203.6 318.39,-205.04 321.58,-211.27"/>
</g>
<!-- Content&#45;&gt;SubsequentCitation -->
<g id="edge13" class="edge">
<title>Content&#45;&gt;SubsequentCitation</title>
<path fill="none" stroke="black" d="M218.47,-434.93C226.66,-476.2 249.84,-564.97 304.18,-614.68 323.91,-632.74 385.51,-652.3 435.66,-665.97"/>
<polygon fill="black" stroke="black" points="434.46,-669.28 445.03,-668.49 436.28,-662.51 434.46,-669.28"/>
</g>
<!-- Content&#45;&gt;Topic -->
<g id="edge23" class="edge">
<title>Content&#45;&gt;Topic</title>
<path fill="none" stroke="black" stroke-dasharray="5,2" d="M216.09,-446.18C220.32,-506.92 237.15,-636.49 304.18,-717.68 310.95,-725.89 320.86,-731.88 330.25,-736.11"/>
<polygon fill="black" stroke="black" points="219.6,-446.26 215.5,-436.49 212.62,-446.68 219.6,-446.26"/>
</g>
<!-- Content&#45;&gt;VerifierRole -->
<g id="edge16" class="edge">
<title>Content&#45;&gt;VerifierRole</title>
<path fill="none" stroke="black" d="M251.95,-426.87C268.2,-433.06 287.52,-440.41 305.1,-447.1"/>
<polygon fill="black" stroke="black" points="303.78,-450.34 314.37,-450.63 306.27,-443.8 303.78,-450.34"/>
</g>
<!-- Content&#45;&gt;Version -->
<g id="edge18" class="edge">
<title>Content&#45;&gt;Version</title>
<path fill="none" stroke="black" d="M251,-397.84C257.66,-393.56 263.87,-388.23 268.18,-381.68 342.27,-269.16 231.39,-194.06 304.18,-80.68 307.99,-74.74 313.34,-69.73 319.18,-65.57"/>
<polygon fill="black" stroke="black" points="320.66,-68.76 327.31,-60.51 316.97,-62.82 320.66,-68.76"/>
</g>
<!-- Content&#45;&gt;Creator -->
<g id="edge19" class="edge">
<title>Content&#45;&gt;Creator</title>
<path fill="none" stroke="black" stroke-dasharray="5,2" d="M259.73,-391.19C262.94,-388.35 265.83,-385.19 268.18,-381.68 335,-281.79 213.71,-192.81 304.18,-113.68 353.33,-70.69 436.5,-103.45 479.4,-125.28"/>
<polygon fill="black" stroke="black" points="257.79,-388.28 251.86,-397.06 261.97,-393.89 257.79,-388.28"/>
</g>
<!-- Content&#45;&gt;Language -->
<g id="edge20" class="edge">
<title>Content&#45;&gt;Language</title>
<path fill="none" stroke="black" stroke-dasharray="5,2" d="M242.87,-441.71C259.73,-458.14 282.12,-478.4 304.18,-493.68 309.89,-497.64 316.27,-501.41 322.55,-504.8"/>
<polygon fill="black" stroke="black" points="245.71,-439.59 236.13,-435.05 240.78,-444.57 245.71,-439.59"/>
</g>
<!-- Content&#45;&gt;Project -->
<g id="edge22" class="edge">
<title>Content&#45;&gt;Project</title>
<path fill="none" stroke="black" stroke-dasharray="5,2" d="M259.61,-391.11C262.84,-388.29 265.77,-385.15 268.18,-381.68 323.12,-302.42 247.3,-245.57 304.18,-167.68 310.51,-159.01 320.46,-152.91 329.99,-148.73"/>
<polygon fill="black" stroke="black" points="257.66,-388.2 251.7,-396.96 261.82,-393.82 257.66,-388.2"/>
</g>
<!-- Content&#45;&gt;Updater -->
<g id="edge24" class="edge">
<title>Content&#45;&gt;Updater</title>
<path fill="none" stroke="black" stroke-dasharray="5,2" d="M225.85,-445.38C238.95,-477.97 264.11,-526.17 304.18,-547.68 345.98,-570.12 367.98,-567.85 410.93,-547.68 575.43,-470.45 641.89,-227.51 657.67,-158.89"/>
<polygon fill="black" stroke="black" points="229.25,-444.48 222.41,-436.4 222.72,-446.99 229.25,-444.48"/>
</g>
<!-- Content&#45;&gt;OriginCitation -->
<g id="edge26" class="edge">
<title>Content&#45;&gt;OriginCitation</title>
<path fill="none" stroke="black" d="M222.75,-444.57C234.2,-483.01 258.97,-546.66 304.18,-580.68 345.98,-612.15 405.72,-621.74 449.5,-624.15"/>
<polygon fill="none" stroke="black" points="216.29,-436.49 223.98,-434.3 226.17,-441.99 218.48,-444.18 216.29,-436.49"/>
<polyline fill="none" stroke="black" points="222.33,-443.09 222.87,-445.01"/>
<polygon fill="none" stroke="black" points="459.67,-620.59 459.32,-628.59 451.32,-628.24 451.67,-620.24 459.67,-620.59"/>
<polyline fill="none" stroke="black" points="451.5,-624.24 449.5,-624.15"/>
</g>
<!-- Content&#45;&gt;PublicContent -->
<g id="edge27" class="edge">
<title>Content&#45;&gt;PublicContent</title>
<path fill="none" stroke="black" d="M271.74,-412.68C281.16,-412.68 290.91,-412.68 300.3,-412.68"/>
<polygon fill="none" stroke="black" points="262.02,-416.68 262.02,-408.68 270.02,-408.68 270.02,-416.68 262.02,-416.68"/>
<polyline fill="none" stroke="black" points="270.02,-412.68 272.02,-412.68"/>
<polygon fill="none" stroke="black" points="310.22,-408.68 310.22,-416.68 302.22,-416.68 302.22,-408.68 310.22,-408.68"/>
<polyline fill="none" stroke="black" points="302.22,-412.68 300.22,-412.68"/>
</g>
<!-- CitationTopic&#45;&gt;Topic -->
<g id="edge15" class="edge">
<title>CitationTopic&#45;&gt;Topic</title>
<path fill="none" stroke="black" stroke-dasharray="1,5" d="M259.57,-744.68C278.61,-744.68 300.57,-744.68 318.77,-744.68"/>
<polygon fill="black" stroke="black" points="318.6,-748.18 328.6,-744.68 318.6,-741.18 318.6,-748.18"/>
</g>
<!-- Role&#45;&gt;Verifier -->
<!-- SubsequentCitation&#45;&gt;SubsequentSource -->
<g id="edge14" class="edge">
<title>SubsequentCitation&#45;&gt;SubsequentSource</title>
<path fill="none" stroke="black" stroke-dasharray="1,5" d="M569.17,-683.68C577.11,-683.68 585.28,-683.68 593.34,-683.68"/>
<polygon fill="black" stroke="black" points="593.09,-687.18 603.09,-683.68 593.09,-680.18 593.09,-687.18"/>
</g>
<!-- VerifierRole&#45;&gt;Verifier -->
<g id="edge17" class="edge">
<title>VerifierRole&#45;&gt;Verifier</title>
<path fill="none" stroke="black" stroke-dasharray="1,5" d="M398.15,-448.32C402.62,-445.66 406.97,-442.77 410.93,-439.68 441.13,-416.11 469.28,-382.09 487.16,-358.34"/>
<polygon fill="black" stroke="black" points="489.91,-360.51 493.04,-350.39 484.28,-356.35 489.91,-360.51"/>
</g>
<!-- Version&#45;&gt;PinboardItem -->
<!-- Creator&#45;&gt;Updater -->
<!-- Project&#45;&gt;Creator -->
<!-- Citation -->
<g id="node1" class="node">
<title>Citation</title>
<g id="a_node1"><a xlink:href="/develop/Data/models.html#citation" xlink:title="Citation" target="_top">
<ellipse fill="#abcdef" stroke="#dddeee" cx="61.59" cy="-689.68" rx="40.6" ry="18"/>
<text text-anchor="middle" x="61.59" y="-684.63" font-family="Times,serif" font-size="14.00">Citation</text>
</a>
</g>
</g>
<!-- Confidence -->
<g id="node2" class="node">
<title>Confidence</title>
<g id="a_node2"><a xlink:href="/develop/Data/models.html#confidence" xlink:title="Confidence" target="_top">
<ellipse fill="#abcdef" stroke="#dddeee" cx="61.59" cy="-355.68" rx="53.4" ry="18"/>
<text text-anchor="middle" x="61.59" y="-350.63" font-family="Times,serif" font-size="14.00">Confidence</text>
</a>
</g>
</g>
<!-- DataAttribute -->
<g id="node3" class="node">
<title>DataAttribute</title>
<g id="a_node3"><a xlink:href="/develop/Data/models.html#data-attribute" xlink:title="DataAttribute" target="_top">
<ellipse fill="#abcdef" stroke="#dddeee" cx="61.59" cy="-410.68" rx="61.59" ry="18"/>
<text text-anchor="middle" x="61.59" y="-405.63" font-family="Times,serif" font-size="14.00">DataAttribute</text>
</a>
</g>
</g>
<!-- Depiction -->
<g id="node4" class="node">
<title>Depiction</title>
<g id="a_node4"><a xlink:href="/develop/Data/models.html#depiction" xlink:title="Depiction" target="_top">
<ellipse fill="#abcdef" stroke="#dddeee" cx="61.59" cy="-301.68" rx="47.26" ry="18"/>
<text text-anchor="middle" x="61.59" y="-296.63" font-family="Times,serif" font-size="14.00">Depiction</text>
</a>
</g>
</g>
<!-- Attribution -->
<g id="node5" class="node">
<title>Attribution</title>
<g id="a_node5"><a xlink:href="/develop/Data/models.html#attribution" xlink:title="Attribution" target="_top">
<ellipse fill="#abcdef" stroke="#dddeee" cx="61.59" cy="-464.68" rx="51.86" ry="18"/>
<text text-anchor="middle" x="61.59" y="-459.63" font-family="Times,serif" font-size="14.00">Attribution</text>
</a>
</g>
</g>
<!-- Source -->
<g id="node6" class="node">
<title>Source</title>
<g id="a_node6"><a xlink:href="/develop/Data/models.html#source" xlink:title="Source" target="_top">
<path fill="#fedcba" stroke="#dddeee" d="M342.55,-671.68C342.55,-671.68 372.55,-671.68 372.55,-671.68 378.55,-671.68 384.55,-677.68 384.55,-683.68 384.55,-683.68 384.55,-695.68 384.55,-695.68 384.55,-701.68 378.55,-707.68 372.55,-707.68 372.55,-707.68 342.55,-707.68 342.55,-707.68 336.55,-707.68 330.55,-701.68 330.55,-695.68 330.55,-695.68 330.55,-683.68 330.55,-683.68 330.55,-677.68 336.55,-671.68 342.55,-671.68"/>
<text text-anchor="middle" x="357.55" y="-684.88" font-family="Times,serif" font-size="14.00">Source</text>
</a>
</g>
</g>
<!-- Otu -->
<g id="node7" class="node">
<title>Otu</title>
<g id="a_node7"><a xlink:href="/develop/Data/models.html#otu" xlink:title="Otu" target="_top">
<path fill="#fedcba" stroke="#dddeee" d="M342.55,-339.68C342.55,-339.68 372.55,-339.68 372.55,-339.68 378.55,-339.68 384.55,-345.68 384.55,-351.68 384.55,-351.68 384.55,-363.68 384.55,-363.68 384.55,-369.68 378.55,-375.68 372.55,-375.68 372.55,-375.68 342.55,-375.68 342.55,-375.68 336.55,-375.68 330.55,-369.68 330.55,-363.68 330.55,-363.68 330.55,-351.68 330.55,-351.68 330.55,-345.68 336.55,-339.68 342.55,-339.68"/>
<text text-anchor="middle" x="357.55" y="-352.88" font-family="Times,serif" font-size="14.00">Otu</text>
</a>
</g>
</g>
<!-- Content -->
<g id="node8" class="node">
<title>Content</title>
<g id="a_node8"><a xlink:href="/develop/Data/models.html#content" xlink:title="Content" target="_top">
<polygon fill="#cdefab" stroke="#dedede" points="257.07,-405.23 257.07,-420.14 231.65,-430.68 195.7,-430.68 170.28,-420.14 170.28,-405.23 195.7,-394.68 231.65,-394.68 257.07,-405.23"/>
<polygon fill="none" stroke="#dedede" points="261.07,-402.56 261.07,-422.81 232.45,-434.68 194.9,-434.68 166.28,-422.81 166.28,-402.56 194.9,-390.68 232.45,-390.68 261.07,-402.56"/>
<text text-anchor="middle" x="213.68" y="-407.63" font-family="Times,serif" font-size="14.00">Content</text>
</a>
</g>
</g>
<!-- CitationTopic -->
<g id="node9" class="node">
<title>CitationTopic</title>
<g id="a_node9"><a xlink:href="/develop/Data/models.html#citation-topic" xlink:title="CitationTopic" target="_top">
<polygon fill="#eeefff" stroke="#dddeee" points="259.18,-762.68 168.18,-762.68 168.18,-726.68 259.18,-726.68 259.18,-762.68"/>
<text text-anchor="middle" x="213.68" y="-739.63" font-family="Times,serif" font-size="14.00">CitationTopic</text>
</a>
</g>
</g>
<!-- ConfidenceLevel -->
<g id="node10" class="node">
<title>ConfidenceLevel</title>
<g id="a_node10"><a xlink:href="/develop/Data/models.html#confidence-level" xlink:title="ConfidenceLevel" target="_top">
<polygon fill="#eeefff" stroke="#dddeee" points="268.18,-372.68 159.18,-372.68 159.18,-336.68 268.18,-336.68 268.18,-372.68"/>
<text text-anchor="middle" x="213.68" y="-349.63" font-family="Times,serif" font-size="14.00">ConfidenceLevel</text>
</a>
</g>
</g>
<!-- Image -->
<g id="node11" class="node">
<title>Image</title>
<g id="a_node11"><a xlink:href="/develop/Data/models.html#image" xlink:title="Image" target="_top">
<polygon fill="#eeefff" stroke="#dddeee" points="240.68,-318.68 186.68,-318.68 186.68,-282.68 240.68,-282.68 240.68,-318.68"/>
<text text-anchor="middle" x="213.68" y="-295.63" font-family="Times,serif" font-size="14.00">Image</text>
</a>
</g>
</g>
<!-- ImportAttribute -->
<g id="node12" class="node">
<title>ImportAttribute</title>
<g id="a_node12"><a xlink:href="/develop/Data/models.html#import-attribute" xlink:title="ImportAttribute" target="_top">
<polygon fill="#eeefff" stroke="#dddeee" points="408.68,-320.68 306.43,-320.68 306.43,-284.68 408.68,-284.68 408.68,-320.68"/>
<text text-anchor="middle" x="357.55" y="-297.63" font-family="Times,serif" font-size="14.00">ImportAttribute</text>
</a>
</g>
</g>
<!-- InternalAttribute -->
<g id="node13" class="node">
<title>InternalAttribute</title>
<g id="a_node13"><a xlink:href="/develop/Data/models.html#internal-attribute" xlink:title="InternalAttribute" target="_top">
<polygon fill="#eeefff" stroke="#dddeee" points="410.93,-266.68 304.18,-266.68 304.18,-230.68 410.93,-230.68 410.93,-266.68"/>
<text text-anchor="middle" x="357.55" y="-243.63" font-family="Times,serif" font-size="14.00">InternalAttribute</text>
</a>
</g>
</g>
<!-- PinboardItem -->
<g id="node14" class="node">
<title>PinboardItem</title>
<g id="a_node14"><a xlink:href="/develop/Data/models.html#pinboard-item" xlink:title="PinboardItem" target="_top">
<polygon fill="#eeefff" stroke="#dddeee" points="552.93,-66.68 462.68,-66.68 462.68,-30.68 552.93,-30.68 552.93,-66.68"/>
<text text-anchor="middle" x="507.8" y="-43.63" font-family="Times,serif" font-size="14.00">PinboardItem</text>
</a>
</g>
</g>
<!-- Role -->
<g id="node15" class="node">
<title>Role</title>
<g id="a_node15"><a xlink:href="/develop/Data/models.html#role" xlink:title="Role" target="_top">
<polygon fill="#eeefff" stroke="#dddeee" points="384.55,-212.68 330.55,-212.68 330.55,-176.68 384.55,-176.68 384.55,-212.68"/>
<text text-anchor="middle" x="357.55" y="-189.63" font-family="Times,serif" font-size="14.00">Role</text>
</a>
</g>
</g>
<!-- SubsequentCitation -->
<g id="node16" class="node">
<title>SubsequentCitation</title>
<g id="a_node16"><a xlink:href="/develop/Data/models.html#subsequent-citation" xlink:title="SubsequentCitation" target="_top">
<polygon fill="#eeefff" stroke="#dddeee" points="568.68,-701.68 446.93,-701.68 446.93,-665.68 568.68,-665.68 568.68,-701.68"/>
<text text-anchor="middle" x="507.8" y="-678.63" font-family="Times,serif" font-size="14.00">SubsequentCitation</text>
</a>
</g>
</g>
<!-- SubsequentSource -->
<g id="node17" class="node">
<title>SubsequentSource</title>
<g id="a_node17"><a xlink:href="/develop/Data/models.html#subsequent-source" xlink:title="SubsequentSource" target="_top">
<polygon fill="#eeefff" stroke="#dddeee" points="720.43,-701.68 604.68,-701.68 604.68,-665.68 720.43,-665.68 720.43,-701.68"/>
<text text-anchor="middle" x="662.55" y="-678.63" font-family="Times,serif" font-size="14.00">SubsequentSource</text>
</a>
</g>
</g>
<!-- Topic -->
<g id="node18" class="node">
<title>Topic</title>
<g id="a_node18"><a xlink:href="/develop/Data/models.html#topic" xlink:title="Topic" target="_top">
<polygon fill="#eeefff" stroke="#dddeee" points="384.55,-762.68 330.55,-762.68 330.55,-726.68 384.55,-726.68 384.55,-762.68"/>
<text text-anchor="middle" x="357.55" y="-739.63" font-family="Times,serif" font-size="14.00">Topic</text>
</a>
</g>
</g>
<!-- VerifierRole -->
<g id="node19" class="node">
<title>VerifierRole</title>
<g id="a_node19"><a xlink:href="/develop/Data/models.html#verifier-role" xlink:title="VerifierRole" target="_top">
<polygon fill="#eeefff" stroke="#dddeee" points="398.93,-484.68 316.18,-484.68 316.18,-448.68 398.93,-448.68 398.93,-484.68"/>
<text text-anchor="middle" x="357.55" y="-461.63" font-family="Times,serif" font-size="14.00">VerifierRole</text>
</a>
</g>
</g>
<!-- Verifier -->
<g id="node20" class="node">
<title>Verifier</title>
<g id="a_node20"><a xlink:href="/develop/Data/models.html#verifier" xlink:title="Verifier" target="_top">
<polygon fill="#eeefff" stroke="#dddeee" points="536.43,-348.68 479.18,-348.68 479.18,-312.68 536.43,-312.68 536.43,-348.68"/>
<text text-anchor="middle" x="507.8" y="-325.63" font-family="Times,serif" font-size="14.00">Verifier</text>
</a>
</g>
</g>
<!-- Version -->
<g id="node21" class="node">
<title>Version</title>
<g id="a_node21"><a xlink:href="/develop/Data/models.html#version" xlink:title="Version" target="_top">
<polygon fill="#eeefff" stroke="#dddeee" points="386.18,-66.68 328.93,-66.68 328.93,-30.68 386.18,-30.68 386.18,-66.68"/>
<text text-anchor="middle" x="357.55" y="-43.63" font-family="Times,serif" font-size="14.00">Version</text>
</a>
</g>
</g>
<!-- Creator -->
<g id="node22" class="node">
<title>Creator</title>
<g id="a_node22"><a xlink:href="/develop/Data/models.html#creator" xlink:title="Creator" target="_top">
<polygon fill="#eeefff" stroke="#dddeee" points="536.05,-158.68 479.55,-158.68 479.55,-122.68 536.05,-122.68 536.05,-158.68"/>
<text text-anchor="middle" x="507.8" y="-135.63" font-family="Times,serif" font-size="14.00">Creator</text>
</a>
</g>
</g>
<!-- Language -->
<g id="node23" class="node">
<title>Language</title>
<g id="a_node23"><a xlink:href="/develop/Data/models.html#language" xlink:title="Language" target="_top">
<polygon fill="#eeefff" stroke="#dddeee" points="392.18,-538.68 322.93,-538.68 322.93,-502.68 392.18,-502.68 392.18,-538.68"/>
<text text-anchor="middle" x="357.55" y="-515.63" font-family="Times,serif" font-size="14.00">Language</text>
</a>
</g>
</g>
<!-- Project -->
<g id="node24" class="node">
<title>Project</title>
<g id="a_node24"><a xlink:href="/develop/Data/models.html#project" xlink:title="Project" target="_top">
<polygon fill="#eeefff" stroke="#dddeee" points="384.68,-158.68 330.43,-158.68 330.43,-122.68 384.68,-122.68 384.68,-158.68"/>
<text text-anchor="middle" x="357.55" y="-135.63" font-family="Times,serif" font-size="14.00">Project</text>
</a>
</g>
</g>
<!-- Updater -->
<g id="node25" class="node">
<title>Updater</title>
<g id="a_node25"><a xlink:href="/develop/Data/models.html#updater" xlink:title="Updater" target="_top">
<polygon fill="#eeefff" stroke="#dddeee" points="692.3,-158.68 632.8,-158.68 632.8,-122.68 692.3,-122.68 692.3,-158.68"/>
<text text-anchor="middle" x="662.55" y="-135.63" font-family="Times,serif" font-size="14.00">Updater</text>
</a>
</g>
</g>
<!-- OriginCitation -->
<g id="node26" class="node">
<title>OriginCitation</title>
<g id="a_node26"><a xlink:href="/develop/Data/models.html#origin-citation" xlink:title="OriginCitation" target="_top">
<polygon fill="#eeefff" stroke="#dddeee" points="555.18,-641.68 460.43,-641.68 460.43,-605.68 555.18,-605.68 555.18,-641.68"/>
<text text-anchor="middle" x="507.8" y="-618.63" font-family="Times,serif" font-size="14.00">OriginCitation</text>
</a>
</g>
</g>
<!-- PublicContent -->
<g id="node27" class="node">
<title>PublicContent</title>
<g id="a_node27"><a xlink:href="/develop/Data/models.html#public-content" xlink:title="PublicContent" target="_top">
<polygon fill="#eeefff" stroke="#dddeee" points="404.18,-430.68 310.93,-430.68 310.93,-394.68 404.18,-394.68 404.18,-430.68"/>
<text text-anchor="middle" x="357.55" y="-407.63" font-family="Times,serif" font-size="14.00">PublicContent</text>
</a>
</g>
</g>
</g>
</svg>
