<?xml version="1.0" encoding="UTF-8" standalone="no"?>
<!DOCTYPE svg PUBLIC "-//W3C//DTD SVG 1.1//EN"
 "http://www.w3.org/Graphics/SVG/1.1/DTD/svg11.dtd">
<!-- Generated by graphviz version 2.50.0 (20211204.2007)
 -->
<!-- Title: DatasetRecordField Pages: 1 -->
<svg width="415pt" height="314pt"
 viewBox="0.00 0.00 415.47 314.00" xmlns="http://www.w3.org/2000/svg" xmlns:xlink="http://www.w3.org/1999/xlink">
<g id="graph0" class="graph" transform="scale(1 1) rotate(0) translate(4 310)">
<title>DatasetRecordField</title>
<polygon fill="white" stroke="transparent" points="-4,4 -4,-310 411.47,-310 411.47,4 -4,4"/>
<!-- DatasetRecordField&#45;&gt;PinboardItem -->
<g id="edge1" class="edge">
<title>DatasetRecordField&#45;&gt;PinboardItem</title>
<path fill="none" stroke="black" d="M115.35,-175.09C139.88,-197.97 180.29,-234.06 218.47,-261 220.08,-262.14 221.75,-263.27 223.44,-264.4"/>
<polygon fill="black" stroke="black" points="221.79,-267.49 232.11,-269.87 225.53,-261.57 221.79,-267.49"/>
</g>
<!-- DatasetRecordField&#45;&gt;Role -->
<g id="edge2" class="edge">
<title>DatasetRecordField&#45;&gt;Role</title>
<path fill="none" stroke="black" d="M135.95,-173.44C165.09,-187.06 202.89,-204.74 230.13,-217.48"/>
<polygon fill="black" stroke="black" points="228.75,-220.7 239.29,-221.76 231.71,-214.35 228.75,-220.7"/>
</g>
<!-- DatasetRecordField&#45;&gt;VerifierRole -->
<g id="edge3" class="edge">
<title>DatasetRecordField&#45;&gt;VerifierRole</title>
<path fill="none" stroke="black" d="M173.52,-165.67C187.54,-167.85 201.73,-170.07 214.64,-172.08"/>
<polygon fill="black" stroke="black" points="214.27,-175.56 224.69,-173.65 215.35,-168.65 214.27,-175.56"/>
</g>
<!-- DatasetRecordField&#45;&gt;DatasetRecord -->
<g id="edge5" class="edge">
<title>DatasetRecordField&#45;&gt;DatasetRecord</title>
<path fill="none" stroke="black" stroke-dasharray="5,2" d="M183.57,-138.76C195.53,-136.9 207.36,-135.06 218.16,-133.37"/>
<polygon fill="black" stroke="black" points="182.87,-135.33 173.52,-140.33 183.94,-142.25 182.87,-135.33"/>
</g>
<!-- DatasetRecordField&#45;&gt;ImportDataset -->
<g id="edge6" class="edge">
<title>DatasetRecordField&#45;&gt;ImportDataset</title>
<path fill="none" stroke="black" d="M145.04,-128.31C168.1,-117.53 194.95,-104.97 217.44,-94.46"/>
<polygon fill="none" stroke="black" points="137.64,-136.18 134.25,-128.94 141.5,-125.55 144.89,-132.8 137.64,-136.18"/>
<polyline fill="none" stroke="black" points="143.19,-129.17 145.01,-128.32 "/>
<polygon fill="none" stroke="black" points="225.09,-86.46 228.48,-93.71 221.23,-97.1 217.84,-89.85 225.09,-86.46"/>
<polyline fill="none" stroke="black" points="219.54,-93.48 217.73,-94.32 "/>
</g>
<!-- DatasetRecordField&#45;&gt;Project -->
<g id="edge7" class="edge">
<title>DatasetRecordField&#45;&gt;Project</title>
<path fill="none" stroke="black" d="M122.98,-123.85C147.75,-101.07 184.02,-69.31 218.47,-45 222.11,-42.43 226.02,-39.88 229.96,-37.44"/>
<polygon fill="none" stroke="black" points="118.07,-133.84 112.63,-127.97 118.51,-122.54 123.94,-128.41 118.07,-133.84"/>
<polyline fill="none" stroke="black" points="121.22,-125.47 122.69,-124.11 "/>
<polygon fill="none" stroke="black" points="236.53,-28.86 240.63,-35.73 233.76,-39.83 229.66,-32.96 236.53,-28.86"/>
<polyline fill="none" stroke="black" points="231.71,-36.4 229.99,-37.42 "/>
</g>
<!-- Role&#45;&gt;Verifier -->
<!-- VerifierRole&#45;&gt;Verifier -->
<g id="edge4" class="edge">
<title>VerifierRole&#45;&gt;Verifier</title>
<path fill="none" stroke="black" stroke-dasharray="1,5" d="M307.98,-189.9C318.52,-192.47 329.82,-195.24 340.21,-197.77"/>
<polygon fill="black" stroke="black" points="339.68,-201.25 350.22,-200.22 341.34,-194.45 339.68,-201.25"/>
</g>
<!-- DatasetRecordField -->
<g id="node1" class="node">
<title>DatasetRecordField</title>
<g id="a_node1"><a xlink:href="/develop/Data/models.html#dataset-record-field" xlink:title="DatasetRecordField" target="_top">
<polygon fill="#cdefab" stroke="#dedede" points="178.69,-145.54 178.69,-160.46 127.46,-171 55.01,-171 3.78,-160.46 3.78,-145.54 55.01,-135 127.46,-135 178.69,-145.54"/>
<polygon fill="none" stroke="#dedede" points="182.7,-142.29 182.7,-163.71 127.87,-175 54.6,-175 -0.23,-163.71 -0.23,-142.29 54.6,-131 127.87,-131 182.7,-142.29"/>
<text text-anchor="middle" x="91.23" y="-149.3" font-family="Times,serif" font-size="14.00">DatasetRecordField</text>
</a>
</g>
</g>
<!-- PinboardItem -->
<g id="node2" class="node">
<title>PinboardItem</title>
<g id="a_node2"><a xlink:href="/develop/Data/models.html#pinboard-item" xlink:title="PinboardItem" target="_top">
<polygon fill="#eeefff" stroke="#dddeee" points="311.97,-306 220.97,-306 220.97,-270 311.97,-270 311.97,-306"/>
<text text-anchor="middle" x="266.47" y="-284.3" font-family="Times,serif" font-size="14.00">PinboardItem</text>
</a>
</g>
</g>
<!-- Role -->
<g id="node3" class="node">
<title>Role</title>
<g id="a_node3"><a xlink:href="/develop/Data/models.html#role" xlink:title="Role" target="_top">
<polygon fill="#eeefff" stroke="#dddeee" points="293.47,-252 239.47,-252 239.47,-216 293.47,-216 293.47,-252"/>
<text text-anchor="middle" x="266.47" y="-230.3" font-family="Times,serif" font-size="14.00">Role</text>
</a>
</g>
</g>
<!-- VerifierRole -->
<g id="node4" class="node">
<title>VerifierRole</title>
<g id="a_node4"><a xlink:href="/develop/Data/models.html#verifier-role" xlink:title="VerifierRole" target="_top">
<polygon fill="#eeefff" stroke="#dddeee" points="307.97,-198 224.97,-198 224.97,-162 307.97,-162 307.97,-198"/>
<text text-anchor="middle" x="266.47" y="-176.3" font-family="Times,serif" font-size="14.00">VerifierRole</text>
</a>
</g>
</g>
<!-- Verifier -->
<g id="node5" class="node">
<title>Verifier</title>
<g id="a_node5"><a xlink:href="/develop/Data/models.html#verifier" xlink:title="Verifier" target="_top">
<polygon fill="#eeefff" stroke="#dddeee" points="407.47,-225 350.47,-225 350.47,-189 407.47,-189 407.47,-225"/>
<text text-anchor="middle" x="378.97" y="-203.3" font-family="Times,serif" font-size="14.00">Verifier</text>
</a>
</g>
</g>
<!-- DatasetRecord -->
<g id="node6" class="node">
<title>DatasetRecord</title>
<g id="a_node6"><a xlink:href="/develop/Data/models.html#dataset-record" xlink:title="DatasetRecord" target="_top">
<polygon fill="#eeefff" stroke="#dddeee" points="314.47,-144 218.47,-144 218.47,-108 314.47,-108 314.47,-144"/>
<text text-anchor="middle" x="266.47" y="-122.3" font-family="Times,serif" font-size="14.00">DatasetRecord</text>
</a>
</g>
</g>
<!-- ImportDataset -->
<g id="node7" class="node">
<title>ImportDataset</title>
<g id="a_node7"><a xlink:href="/develop/Data/models.html#import-dataset" xlink:title="ImportDataset" target="_top">
<polygon fill="#eeefff" stroke="#dddeee" points="313.97,-90 218.97,-90 218.97,-54 313.97,-54 313.97,-90"/>
<text text-anchor="middle" x="266.47" y="-68.3" font-family="Times,serif" font-size="14.00">ImportDataset</text>
</a>
</g>
</g>
<!-- Project -->
<g id="node8" class="node">
<title>Project</title>
<g id="a_node8"><a xlink:href="/develop/Data/models.html#project" xlink:title="Project" target="_top">
<polygon fill="#eeefff" stroke="#dddeee" points="293.97,-36 238.97,-36 238.97,0 293.97,0 293.97,-36"/>
<text text-anchor="middle" x="266.47" y="-14.3" font-family="Times,serif" font-size="14.00">Project</text>
</a>
</g>
</g>
</g>
</svg>
