<?xml version="1.0" encoding="UTF-8" standalone="no"?>
<!DOCTYPE svg PUBLIC "-//W3C//DTD SVG 1.1//EN"
 "http://www.w3.org/Graphics/SVG/1.1/DTD/svg11.dtd">
<!-- Generated by graphviz version 12.2.1 (20241206.2353)
 -->
<!-- Title: DataAttribute Pages: 1 -->
<svg width="760pt" height="576pt"
 viewBox="0.00 0.00 759.98 576.00" xmlns="http://www.w3.org/2000/svg" xmlns:xlink="http://www.w3.org/1999/xlink">
<g id="graph0" class="graph" transform="scale(1 1) rotate(0) translate(4 572)">
<title>DataAttribute</title>
<polygon fill="white" stroke="none" points="-4,4 -4,-572 755.98,-572 755.98,4 -4,4"/>
<!-- DataAttribute&#45;&gt;Citation -->
<g id="edge2" class="edge">
<title>DataAttribute&#45;&gt;Citation</title>
<path fill="none" stroke="black" d="M70.66,-262.67C70.66,-209.31 70.66,-155.96 70.66,-102.6"/>
<polygon fill="black" stroke="black" points="74.16,-102.73 70.66,-92.73 67.16,-102.73 74.16,-102.73"/>
</g>
<!-- DataAttribute&#45;&gt;Source -->
<g id="edge17" class="edge">
<title>DataAttribute&#45;&gt;Source</title>
<path fill="none" stroke="black" stroke-dasharray="1,5" d="M81.91,-252.82C96.5,-212.3 127.19,-143.45 177.32,-106 204.93,-85.38 243.96,-77.55 272.34,-74.63"/>
<polygon fill="none" stroke="black" points="82.4,-263.56 74.85,-260.93 77.48,-253.38 85.03,-256.01 82.4,-263.56"/>
<polyline fill="none" stroke="black" points="81.25,-254.69 81.91,-252.8"/>
<polygon fill="none" stroke="black" points="281.8,-69.79 282.49,-77.76 274.52,-78.45 273.83,-70.48 281.8,-69.79"/>
<polyline fill="none" stroke="black" points="274.18,-74.47 272.18,-74.64"/>
</g>
<!-- DataAttribute&#45;&gt;PinboardItem -->
<g id="edge3" class="edge">
<title>DataAttribute&#45;&gt;PinboardItem</title>
<path fill="none" stroke="black" d="M141.56,-292.95C177.14,-297 219.79,-301.86 253.14,-305.65"/>
<polygon fill="black" stroke="black" points="252.68,-309.12 263.01,-306.78 253.47,-302.17 252.68,-309.12"/>
</g>
<!-- DataAttribute&#45;&gt;Role -->
<g id="edge4" class="edge">
<title>DataAttribute&#45;&gt;Role</title>
<path fill="none" stroke="black" d="M141.56,-277.05C184.05,-272.21 236.63,-266.23 271.39,-262.27"/>
<polygon fill="black" stroke="black" points="271.41,-265.79 280.95,-261.18 270.61,-258.83 271.41,-265.79"/>
</g>
<!-- DataAttribute&#45;&gt;SubsequentCitation -->
<g id="edge6" class="edge">
<title>DataAttribute&#45;&gt;SubsequentCitation</title>
<path fill="none" stroke="black" d="M105.16,-264.21C125.34,-252.63 151.98,-238.98 177.32,-231 190.96,-226.71 365.38,-203.54 466.7,-190.3"/>
<polygon fill="black" stroke="black" points="467.11,-193.78 476.57,-189.01 466.2,-186.84 467.11,-193.78"/>
</g>
<!-- DataAttribute&#45;&gt;VerifierRole -->
<g id="edge9" class="edge">
<title>DataAttribute&#45;&gt;VerifierRole</title>
<path fill="none" stroke="black" d="M87.15,-307.48C105.62,-332.45 138.87,-372.02 177.32,-393 201.65,-406.27 231.73,-413.03 256.99,-416.48"/>
<polygon fill="black" stroke="black" points="256.37,-419.93 266.72,-417.66 257.21,-412.98 256.37,-419.93"/>
</g>
<!-- DataAttribute&#45;&gt;Creator -->
<g id="edge12" class="edge">
<title>DataAttribute&#45;&gt;Creator</title>
<path fill="none" stroke="black" stroke-dasharray="5,2" d="M79.93,-318.54C92.77,-363.09 121.99,-440.71 177.32,-480 274.66,-549.12 325.91,-497.22 442.48,-523 465.78,-528.15 491.82,-535.6 510.87,-541.36"/>
<polygon fill="black" stroke="black" points="83.3,-317.61 77.27,-308.9 76.55,-319.47 83.3,-317.61"/>
</g>
<!-- DataAttribute&#45;&gt;Predicate -->
<g id="edge13" class="edge">
<title>DataAttribute&#45;&gt;Predicate</title>
<path fill="none" stroke="black" stroke-dasharray="5,2" d="M100.66,-254.94C120.56,-235.97 148.5,-212.41 177.32,-198 208.97,-182.18 248.88,-173.9 276.4,-169.76"/>
<polygon fill="black" stroke="black" points="98.45,-252.21 93.73,-261.7 103.33,-257.23 98.45,-252.21"/>
</g>
<!-- DataAttribute&#45;&gt;Project -->
<g id="edge14" class="edge">
<title>DataAttribute&#45;&gt;Project</title>
<path fill="none" stroke="black" stroke-dasharray="5,2" d="M77.23,-318.19C87.56,-369.12 114.65,-466.08 177.32,-518 207.29,-542.82 253.5,-548.92 282.43,-550.14"/>
<polygon fill="black" stroke="black" points="80.72,-317.82 75.4,-308.66 73.85,-319.14 80.72,-317.82"/>
</g>
<!-- DataAttribute&#45;&gt;Updater -->
<g id="edge15" class="edge">
<title>DataAttribute&#45;&gt;Updater</title>
<path fill="none" stroke="black" stroke-dasharray="5,2" d="M83.22,-317.8C98.46,-355.76 129.11,-416.89 177.32,-447 278.05,-509.91 325.97,-456.99 442.48,-480 513.77,-494.08 530.28,-503.3 600.23,-523 621.56,-529.01 645.59,-536 663.86,-541.36"/>
<polygon fill="black" stroke="black" points="86.58,-316.77 79.71,-308.7 80.05,-319.29 86.58,-316.77"/>
</g>
<!-- DataAttribute&#45;&gt;OriginCitation -->
<g id="edge16" class="edge">
<title>DataAttribute&#45;&gt;OriginCitation</title>
<path fill="none" stroke="black" d="M84.95,-253.54C101.28,-219.13 132.45,-165.38 177.32,-139 202.93,-123.95 386,-107.79 481.18,-100.28"/>
<polygon fill="none" stroke="black" points="84.58,-263.91 77.31,-260.56 80.66,-253.29 87.92,-256.64 84.58,-263.91"/>
<polyline fill="none" stroke="black" points="84.29,-254.97 85.13,-253.15"/>
<polygon fill="none" stroke="black" points="490.69,-95.53 491.31,-103.5 483.34,-104.13 482.71,-96.15 490.69,-95.53"/>
<polyline fill="none" stroke="black" points="483.02,-100.14 481.03,-100.3"/>
</g>
<!-- DataAttribute&#45;&gt;Objects with Data attributes -->
<g id="edge11" class="edge">
<title>DataAttribute&#45;&gt;Objects with Data attributes</title>
<path fill="none" stroke="black" stroke-dasharray="5,2" d="M115.72,-310.89C134.24,-320.87 156.33,-331.63 177.32,-339 192.62,-344.37 209.3,-348.81 225.5,-352.43"/>
<polygon fill="black" stroke="black" points="117.61,-307.93 107.16,-306.18 114.23,-314.07 117.61,-307.93"/>
</g>
<!-- Citation&#45;&gt;Source -->
<g id="edge5" class="edge">
<title>Citation&#45;&gt;Source</title>
<path fill="none" stroke="black" stroke-dasharray="1,5" d="M111.64,-73C156.18,-73 227.64,-73 271.23,-73"/>
<polygon fill="black" stroke="black" points="271.22,-76.5 281.22,-73 271.22,-69.5 271.22,-76.5"/>
</g>
<!-- Citation&#45;&gt;CitationTopic -->
<g id="edge1" class="edge">
<title>Citation&#45;&gt;CitationTopic</title>
<path fill="none" stroke="black" stroke-dasharray="1,5" d="M105.8,-63.43C126.43,-57.77 153.31,-50.64 177.32,-45 202,-39.2 229.45,-33.46 252.86,-28.77"/>
<polygon fill="black" stroke="black" points="253.39,-32.23 262.52,-26.85 252.03,-25.37 253.39,-32.23"/>
</g>
<!-- Source&#45;&gt;SubsequentCitation -->
<!-- Source&#45;&gt;OriginCitation -->
<!-- CitationTopic&#45;&gt;Topic -->
<g id="edge8" class="edge">
<title>CitationTopic&#45;&gt;Topic</title>
<path fill="none" stroke="black" stroke-dasharray="1,5" d="M355.84,-18C398.17,-18 460.86,-18 500.65,-18"/>
<polygon fill="black" stroke="black" points="500.46,-21.5 510.46,-18 500.46,-14.5 500.46,-21.5"/>
</g>
<!-- Role&#45;&gt;Verifier -->
<!-- SubsequentCitation&#45;&gt;SubsequentSource -->
<g id="edge7" class="edge">
<title>SubsequentCitation&#45;&gt;SubsequentSource</title>
<path fill="none" stroke="black" stroke-dasharray="1,5" d="M600.72,-181C608.66,-181 616.84,-181 624.89,-181"/>
<polygon fill="black" stroke="black" points="624.64,-184.5 634.64,-181 624.64,-177.5 624.64,-184.5"/>
</g>
<!-- VerifierRole&#45;&gt;Verifier -->
<g id="edge10" class="edge">
<title>VerifierRole&#45;&gt;Verifier</title>
<path fill="none" stroke="black" stroke-dasharray="1,5" d="M351.54,-414.99C378.01,-410.93 412.99,-404.02 442.48,-393 462.82,-385.4 484.01,-373.9 501.27,-363.46"/>
<polygon fill="black" stroke="black" points="503,-366.51 509.66,-358.27 499.31,-360.56 503,-366.51"/>
</g>
<!-- Creator&#45;&gt;Updater -->
<!-- Project&#45;&gt;Creator -->
<!-- DataAttribute -->
<g id="node1" class="node">
<title>DataAttribute</title>
<g id="a_node1"><a xlink:href="/develop/Data/models.html#data-attribute" xlink:title="DataAttribute" target="_top">
<polygon fill="#cdefab" stroke="#dedede" points="137.32,-277.54 137.32,-292.46 98.27,-303 43.05,-303 4,-292.46 4,-277.54 43.05,-267 98.27,-267 137.32,-277.54"/>
<polygon fill="none" stroke="#dedede" points="141.32,-274.48 141.32,-295.52 98.8,-307 42.52,-307 0,-295.52 0,-274.48 42.52,-263 98.8,-263 141.32,-274.48"/>
<text text-anchor="middle" x="70.66" y="-279.95" font-family="Times,serif" font-size="14.00">DataAttribute</text>
</a>
</g>
</g>
<!-- Citation -->
<g id="node2" class="node">
<title>Citation</title>
<g id="a_node2"><a xlink:href="/develop/Data/models.html#citation" xlink:title="Citation" target="_top">
<ellipse fill="#abcdef" stroke="#dddeee" cx="70.66" cy="-73" rx="40.6" ry="18"/>
<text text-anchor="middle" x="70.66" y="-67.95" font-family="Times,serif" font-size="14.00">Citation</text>
</a>
</g>
</g>
<!-- Source -->
<g id="node3" class="node">
<title>Source</title>
<g id="a_node3"><a xlink:href="/develop/Data/models.html#source" xlink:title="Source" target="_top">
<path fill="#fedcba" stroke="#dddeee" d="M294.9,-55C294.9,-55 324.9,-55 324.9,-55 330.9,-55 336.9,-61 336.9,-67 336.9,-67 336.9,-79 336.9,-79 336.9,-85 330.9,-91 324.9,-91 324.9,-91 294.9,-91 294.9,-91 288.9,-91 282.9,-85 282.9,-79 282.9,-79 282.9,-67 282.9,-67 282.9,-61 288.9,-55 294.9,-55"/>
<text text-anchor="middle" x="309.9" y="-68.2" font-family="Times,serif" font-size="14.00">Source</text>
</a>
</g>
</g>
<!-- CitationTopic -->
<g id="node4" class="node">
<title>CitationTopic</title>
<g id="a_node4"><a xlink:href="/develop/Data/models.html#citation-topic" xlink:title="CitationTopic" target="_top">
<polygon fill="#eeefff" stroke="#dddeee" points="355.4,-36 264.4,-36 264.4,0 355.4,0 355.4,-36"/>
<text text-anchor="middle" x="309.9" y="-12.95" font-family="Times,serif" font-size="14.00">CitationTopic</text>
</a>
</g>
</g>
<!-- PinboardItem -->
<g id="node5" class="node">
<title>PinboardItem</title>
<g id="a_node5"><a xlink:href="/develop/Data/models.html#pinboard-item" xlink:title="PinboardItem" target="_top">
<polygon fill="#eeefff" stroke="#dddeee" points="355.03,-330 264.78,-330 264.78,-294 355.03,-294 355.03,-330"/>
<text text-anchor="middle" x="309.9" y="-306.95" font-family="Times,serif" font-size="14.00">PinboardItem</text>
</a>
</g>
</g>
<!-- Role -->
<g id="node6" class="node">
<title>Role</title>
<g id="a_node6"><a xlink:href="/develop/Data/models.html#role" xlink:title="Role" target="_top">
<polygon fill="#eeefff" stroke="#dddeee" points="336.9,-276 282.9,-276 282.9,-240 336.9,-240 336.9,-276"/>
<text text-anchor="middle" x="309.9" y="-252.95" font-family="Times,serif" font-size="14.00">Role</text>
</a>
</g>
</g>
<!-- SubsequentCitation -->
<g id="node7" class="node">
<title>SubsequentCitation</title>
<g id="a_node7"><a xlink:href="/develop/Data/models.html#subsequent-citation" xlink:title="SubsequentCitation" target="_top">
<polygon fill="#eeefff" stroke="#dddeee" points="600.23,-199 478.48,-199 478.48,-163 600.23,-163 600.23,-199"/>
<text text-anchor="middle" x="539.35" y="-175.95" font-family="Times,serif" font-size="14.00">SubsequentCitation</text>
</a>
</g>
</g>
<!-- SubsequentSource -->
<g id="node8" class="node">
<title>SubsequentSource</title>
<g id="a_node8"><a xlink:href="/develop/Data/models.html#subsequent-source" xlink:title="SubsequentSource" target="_top">
<polygon fill="#eeefff" stroke="#dddeee" points="751.98,-199 636.23,-199 636.23,-163 751.98,-163 751.98,-199"/>
<text text-anchor="middle" x="694.1" y="-175.95" font-family="Times,serif" font-size="14.00">SubsequentSource</text>
</a>
</g>
</g>
<!-- Topic -->
<g id="node9" class="node">
<title>Topic</title>
<g id="a_node9"><a xlink:href="/develop/Data/models.html#topic" xlink:title="Topic" target="_top">
<polygon fill="#eeefff" stroke="#dddeee" points="566.35,-36 512.35,-36 512.35,0 566.35,0 566.35,-36"/>
<text text-anchor="middle" x="539.35" y="-12.95" font-family="Times,serif" font-size="14.00">Topic</text>
</a>
</g>
</g>
<!-- VerifierRole -->
<g id="node10" class="node">
<title>VerifierRole</title>
<g id="a_node10"><a xlink:href="/develop/Data/models.html#verifier-role" xlink:title="VerifierRole" target="_top">
<polygon fill="#eeefff" stroke="#dddeee" points="351.28,-438 268.53,-438 268.53,-402 351.28,-402 351.28,-438"/>
<text text-anchor="middle" x="309.9" y="-414.95" font-family="Times,serif" font-size="14.00">VerifierRole</text>
</a>
</g>
</g>
<!-- Verifier -->
<g id="node11" class="node">
<title>Verifier</title>
<g id="a_node11"><a xlink:href="/develop/Data/models.html#verifier" xlink:title="Verifier" target="_top">
<polygon fill="#eeefff" stroke="#dddeee" points="567.98,-357 510.73,-357 510.73,-321 567.98,-321 567.98,-357"/>
<text text-anchor="middle" x="539.35" y="-333.95" font-family="Times,serif" font-size="14.00">Verifier</text>
</a>
</g>
</g>
<!-- Creator -->
<g id="node12" class="node">
<title>Creator</title>
<g id="a_node12"><a xlink:href="/develop/Data/models.html#creator" xlink:title="Creator" target="_top">
<polygon fill="#eeefff" stroke="#dddeee" points="567.6,-568 511.1,-568 511.1,-532 567.6,-532 567.6,-568"/>
<text text-anchor="middle" x="539.35" y="-544.95" font-family="Times,serif" font-size="14.00">Creator</text>
</a>
</g>
</g>
<!-- Predicate -->
<g id="node13" class="node">
<title>Predicate</title>
<g id="a_node13"><a xlink:href="/develop/Data/models.html#predicate" xlink:title="Predicate" target="_top">
<polygon fill="#eeefff" stroke="#dddeee" points="343.03,-184 276.78,-184 276.78,-148 343.03,-148 343.03,-184"/>
<text text-anchor="middle" x="309.9" y="-160.95" font-family="Times,serif" font-size="14.00">Predicate</text>
</a>
</g>
</g>
<!-- Project -->
<g id="node14" class="node">
<title>Project</title>
<g id="a_node14"><a xlink:href="/develop/Data/models.html#project" xlink:title="Project" target="_top">
<polygon fill="#eeefff" stroke="#dddeee" points="337.03,-568 282.78,-568 282.78,-532 337.03,-532 337.03,-568"/>
<text text-anchor="middle" x="309.9" y="-544.95" font-family="Times,serif" font-size="14.00">Project</text>
</a>
</g>
</g>
<!-- Updater -->
<g id="node15" class="node">
<title>Updater</title>
<g id="a_node15"><a xlink:href="/develop/Data/models.html#updater" xlink:title="Updater" target="_top">
<polygon fill="#eeefff" stroke="#dddeee" points="723.85,-568 664.35,-568 664.35,-532 723.85,-532 723.85,-568"/>
<text text-anchor="middle" x="694.1" y="-544.95" font-family="Times,serif" font-size="14.00">Updater</text>
</a>
</g>
</g>
<!-- OriginCitation -->
<g id="node16" class="node">
<title>OriginCitation</title>
<g id="a_node16"><a xlink:href="/develop/Data/models.html#origin-citation" xlink:title="OriginCitation" target="_top">
<polygon fill="#eeefff" stroke="#dddeee" points="586.73,-114 491.98,-114 491.98,-78 586.73,-78 586.73,-114"/>
<text text-anchor="middle" x="539.35" y="-90.95" font-family="Times,serif" font-size="14.00">OriginCitation</text>
</a>
</g>
</g>
<!-- Objects with Data attributes -->
<g id="node17" class="node">
<title>Objects with Data attributes</title>
<g id="a_node17"><a xlink:href="/develop/Data/models.html#objects with data attribute" xlink:title="Objects with Data attributes" target="_top">
<polygon fill="#cdabef" stroke="#dedede" points="442.48,-366 376.19,-384 243.61,-384 177.32,-366 243.61,-348 376.19,-348 442.48,-366"/>
<text text-anchor="middle" x="309.9" y="-360.95" font-family="Times,serif" font-size="14.00">Objects with Data attributes</text>
</a>
</g>
</g>
</g>
</svg>
