<?xml version="1.0" encoding="UTF-8" standalone="no"?>
<!DOCTYPE svg PUBLIC "-//W3C//DTD SVG 1.1//EN"
 "http://www.w3.org/Graphics/SVG/1.1/DTD/svg11.dtd">
<!-- Generated by graphviz version 12.2.1 (20241206.2353)
 -->
<!-- Title: DatasetRecordField Pages: 1 -->
<svg width="423pt" height="314pt"
 viewBox="0.00 0.00 422.82 314.00" xmlns="http://www.w3.org/2000/svg" xmlns:xlink="http://www.w3.org/1999/xlink">
<g id="graph0" class="graph" transform="scale(1 1) rotate(0) translate(4 310)">
<title>DatasetRecordField</title>
<polygon fill="white" stroke="none" points="-4,4 -4,-310 418.82,-310 418.82,4 -4,4"/>
<!-- DatasetRecordField&#45;&gt;PinboardItem -->
<g id="edge1" class="edge">
<title>DatasetRecordField&#45;&gt;PinboardItem</title>
<path fill="none" stroke="black" d="M120.45,-175.42C145.87,-198.24 187.3,-233.99 226.07,-261 227.24,-261.81 228.44,-262.63 229.65,-263.43"/>
<polygon fill="black" stroke="black" points="227.6,-266.28 237.92,-268.69 231.35,-260.37 227.6,-266.28"/>
</g>
<!-- DatasetRecordField&#45;&gt;Role -->
<g id="edge2" class="edge">
<title>DatasetRecordField&#45;&gt;Role</title>
<path fill="none" stroke="black" d="M141.11,-173.65C170.55,-187.14 208.51,-204.53 236.11,-217.18"/>
<polygon fill="black" stroke="black" points="234.58,-220.33 245.13,-221.31 237.5,-213.96 234.58,-220.33"/>
</g>
<!-- DatasetRecordField&#45;&gt;VerifierRole -->
<g id="edge3" class="edge">
<title>DatasetRecordField&#45;&gt;VerifierRole</title>
<path fill="none" stroke="black" d="M181.06,-165.99C194.74,-168.08 208.53,-170.18 221.12,-172.1"/>
<polygon fill="black" stroke="black" points="220.38,-175.53 230.8,-173.58 221.44,-168.61 220.38,-175.53"/>
</g>
<!-- DatasetRecordField&#45;&gt;DatasetRecord -->
<g id="edge5" class="edge">
<title>DatasetRecordField&#45;&gt;DatasetRecord</title>
<path fill="none" stroke="black" stroke-dasharray="5,2" d="M192.24,-138.31C203.88,-136.53 215.32,-134.78 225.78,-133.19"/>
<polygon fill="black" stroke="black" points="191.92,-134.82 182.56,-139.79 192.97,-141.74 191.92,-134.82"/>
</g>
<!-- DatasetRecordField&#45;&gt;ImportDataset -->
<g id="edge6" class="edge">
<title>DatasetRecordField&#45;&gt;ImportDataset</title>
<path fill="none" stroke="black" d="M150.63,-127.99C173.81,-117.36 200.65,-105.07 223.26,-94.71"/>
<polygon fill="none" stroke="black" points="143.23,-135.78 139.89,-128.51 147.17,-125.17 150.5,-132.45 143.23,-135.78"/>
<polyline fill="none" stroke="black" points="148.83,-128.81 150.65,-127.98"/>
<polygon fill="none" stroke="black" points="230.54,-86.97 233.87,-94.25 226.6,-97.58 223.27,-90.3 230.54,-86.97"/>
<polyline fill="none" stroke="black" points="224.94,-93.94 223.12,-94.77"/>
</g>
<!-- DatasetRecordField&#45;&gt;Project -->
<g id="edge7" class="edge">
<title>DatasetRecordField&#45;&gt;Project</title>
<path fill="none" stroke="black" d="M128.01,-123.84C153.61,-101.13 190.94,-69.47 226.07,-45 229.81,-42.4 233.81,-39.81 237.84,-37.33"/>
<polygon fill="none" stroke="black" points="123.49,-133.23 118.16,-127.26 124.13,-121.93 129.46,-127.9 123.49,-133.23"/>
<polyline fill="none" stroke="black" points="126.79,-124.92 128.29,-123.59"/>
<polygon fill="none" stroke="black" points="244.14,-28.91 248.24,-35.78 241.37,-39.88 237.27,-33.01 244.14,-28.91"/>
<polyline fill="none" stroke="black" points="239.32,-36.45 237.6,-37.47"/>
</g>
<!-- Role&#45;&gt;Verifier -->
<!-- VerifierRole&#45;&gt;Verifier -->
<g id="edge4" class="edge">
<title>VerifierRole&#45;&gt;Verifier</title>
<path fill="none" stroke="black" stroke-dasharray="1,5" d="M315.61,-189.98C325.59,-192.42 336.24,-195.02 346.13,-197.44"/>
<polygon fill="black" stroke="black" points="345.29,-200.84 355.84,-199.82 346.96,-194.04 345.29,-200.84"/>
</g>
<!-- DatasetRecordField -->
<g id="node1" class="node">
<title>DatasetRecordField</title>
<g id="a_node1"><a xlink:href="/develop/Data/models.html#dataset-record-field" xlink:title="DatasetRecordField" target="_top">
<polygon fill="#cdefab" stroke="#dedede" points="186.07,-145.54 186.07,-160.46 132.75,-171 57.33,-171 4,-160.46 4,-145.54 57.33,-135 132.75,-135 186.07,-145.54"/>
<polygon fill="none" stroke="#dedede" points="190.07,-142.26 190.07,-163.74 133.14,-175 56.94,-175 0,-163.74 0,-142.26 56.94,-131 133.14,-131 190.07,-142.26"/>
<text text-anchor="middle" x="95.04" y="-147.95" font-family="Times,serif" font-size="14.00">DatasetRecordField</text>
</a>
</g>
</g>
<!-- PinboardItem -->
<g id="node2" class="node">
<title>PinboardItem</title>
<g id="a_node2"><a xlink:href="/develop/Data/models.html#pinboard-item" xlink:title="PinboardItem" target="_top">
<polygon fill="#eeefff" stroke="#dddeee" points="318.95,-306 228.7,-306 228.7,-270 318.95,-270 318.95,-306"/>
<text text-anchor="middle" x="273.82" y="-282.95" font-family="Times,serif" font-size="14.00">PinboardItem</text>
</a>
</g>
</g>
<!-- Role -->
<g id="node3" class="node">
<title>Role</title>
<g id="a_node3"><a xlink:href="/develop/Data/models.html#role" xlink:title="Role" target="_top">
<polygon fill="#eeefff" stroke="#dddeee" points="300.82,-252 246.82,-252 246.82,-216 300.82,-216 300.82,-252"/>
<text text-anchor="middle" x="273.82" y="-228.95" font-family="Times,serif" font-size="14.00">Role</text>
</a>
</g>
</g>
<!-- VerifierRole -->
<g id="node4" class="node">
<title>VerifierRole</title>
<g id="a_node4"><a xlink:href="/develop/Data/models.html#verifier-role" xlink:title="VerifierRole" target="_top">
<polygon fill="#eeefff" stroke="#dddeee" points="315.2,-198 232.45,-198 232.45,-162 315.2,-162 315.2,-198"/>
<text text-anchor="middle" x="273.82" y="-174.95" font-family="Times,serif" font-size="14.00">VerifierRole</text>
</a>
</g>
</g>
<!-- Verifier -->
<g id="node5" class="node">
<title>Verifier</title>
<g id="a_node5"><a xlink:href="/develop/Data/models.html#verifier" xlink:title="Verifier" target="_top">
<polygon fill="#eeefff" stroke="#dddeee" points="414.82,-225 357.57,-225 357.57,-189 414.82,-189 414.82,-225"/>
<text text-anchor="middle" x="386.2" y="-201.95" font-family="Times,serif" font-size="14.00">Verifier</text>
</a>
</g>
</g>
<!-- DatasetRecord -->
<g id="node6" class="node">
<title>DatasetRecord</title>
<g id="a_node6"><a xlink:href="/develop/Data/models.html#dataset-record" xlink:title="DatasetRecord" target="_top">
<polygon fill="#eeefff" stroke="#dddeee" points="321.57,-144 226.07,-144 226.07,-108 321.57,-108 321.57,-144"/>
<text text-anchor="middle" x="273.82" y="-120.95" font-family="Times,serif" font-size="14.00">DatasetRecord</text>
</a>
</g>
</g>
<!-- ImportDataset -->
<g id="node7" class="node">
<title>ImportDataset</title>
<g id="a_node7"><a xlink:href="/develop/Data/models.html#import-dataset" xlink:title="ImportDataset" target="_top">
<polygon fill="#eeefff" stroke="#dddeee" points="320.82,-90 226.82,-90 226.82,-54 320.82,-54 320.82,-90"/>
<text text-anchor="middle" x="273.82" y="-66.95" font-family="Times,serif" font-size="14.00">ImportDataset</text>
</a>
</g>
</g>
<!-- Project -->
<g id="node8" class="node">
<title>Project</title>
<g id="a_node8"><a xlink:href="/develop/Data/models.html#project" xlink:title="Project" target="_top">
<polygon fill="#eeefff" stroke="#dddeee" points="300.95,-36 246.7,-36 246.7,0 300.95,0 300.95,-36"/>
<text text-anchor="middle" x="273.82" y="-12.95" font-family="Times,serif" font-size="14.00">Project</text>
</a>
</g>
</g>
</g>
</svg>
