<?xml version="1.0" encoding="UTF-8" standalone="no"?>
<!DOCTYPE svg PUBLIC "-//W3C//DTD SVG 1.1//EN"
 "http://www.w3.org/Graphics/SVG/1.1/DTD/svg11.dtd">
<!-- Generated by graphviz version 12.2.1 (20241206.2353)
 -->
<!-- Title: DatasetRecord Pages: 1 -->
<svg width="476pt" height="327pt"
 viewBox="0.00 0.00 475.83 326.87" xmlns="http://www.w3.org/2000/svg" xmlns:xlink="http://www.w3.org/1999/xlink">
<g id="graph0" class="graph" transform="scale(1 1) rotate(0) translate(4 322.87)">
<title>DatasetRecord</title>
<polygon fill="white" stroke="none" points="-4,4 -4,-322.87 471.83,-322.87 471.83,4 -4,4"/>
<!-- DatasetRecord&#45;&gt;PinboardItem -->
<g id="edge1" class="edge">
<title>DatasetRecord&#45;&gt;PinboardItem</title>
<path fill="none" stroke="black" d="M91.1,-169.03C110.81,-196.03 146.84,-241.99 185.08,-273.87 186,-274.64 186.95,-275.4 187.92,-276.15"/>
<polygon fill="black" stroke="black" points="185.63,-278.82 195.81,-281.76 189.69,-273.11 185.63,-278.82"/>
</g>
<!-- DatasetRecord&#45;&gt;Role -->
<g id="edge2" class="edge">
<title>DatasetRecord&#45;&gt;Role</title>
<path fill="none" stroke="black" d="M106.87,-168.43C128.6,-183.23 158.35,-203.13 185.08,-219.87 188.22,-221.83 191.5,-223.84 194.8,-225.84"/>
<polygon fill="black" stroke="black" points="192.97,-228.82 203.35,-230.93 196.55,-222.81 192.97,-228.82"/>
</g>
<!-- DatasetRecord&#45;&gt;VerifierRole -->
<g id="edge3" class="edge">
<title>DatasetRecord&#45;&gt;VerifierRole</title>
<path fill="none" stroke="black" d="M129.5,-162.83C145.76,-167.63 163.55,-172.9 179.63,-177.65"/>
<polygon fill="black" stroke="black" points="178.42,-180.95 189.01,-180.43 180.41,-174.23 178.42,-180.95"/>
</g>
<!-- DatasetRecord&#45;&gt;Creator -->
<g id="edge5" class="edge">
<title>DatasetRecord&#45;&gt;Creator</title>
<path fill="none" stroke="black" stroke-dasharray="5,2" d="M160.47,-153.7C198.78,-153.19 243.34,-147.35 279.08,-127.87 304.83,-113.83 323.7,-84.54 333.94,-65.3"/>
<polygon fill="black" stroke="black" points="160.83,-150.2 150.83,-153.7 160.83,-157.2 160.83,-150.2"/>
</g>
<!-- DatasetRecord&#45;&gt;ImportDataset -->
<g id="edge6" class="edge">
<title>DatasetRecord&#45;&gt;ImportDataset</title>
<path fill="none" stroke="black" stroke-dasharray="5,2" d="M140.23,-127.74C155.16,-123.32 170.75,-118.71 184.72,-114.58"/>
<polygon fill="black" stroke="black" points="139.55,-124.29 130.95,-130.48 141.54,-131 139.55,-124.29"/>
</g>
<!-- DatasetRecord&#45;&gt;Project -->
<g id="edge7" class="edge">
<title>DatasetRecord&#45;&gt;Project</title>
<path fill="none" stroke="black" stroke-dasharray="5,2" d="M116.2,-118.97C136.68,-105.12 162,-88.31 185.08,-73.87 191.36,-69.94 198.21,-65.83 204.65,-62.03"/>
<polygon fill="black" stroke="black" points="114.43,-115.94 108.12,-124.45 118.36,-121.74 114.43,-115.94"/>
</g>
<!-- DatasetRecord&#45;&gt;Updater -->
<g id="edge8" class="edge">
<title>DatasetRecord&#45;&gt;Updater</title>
<path fill="none" stroke="black" stroke-dasharray="5,2" d="M92.51,-114.56C110.74,-83.73 142.86,-39.21 185.08,-19.87 260.74,14.79 290.73,-3.54 372.33,-19.87 384.39,-22.28 397.01,-26.99 407.88,-31.82"/>
<polygon fill="black" stroke="black" points="89.54,-112.71 87.62,-123.12 95.62,-116.18 89.54,-112.71"/>
</g>
<!-- Role&#45;&gt;Verifier -->
<!-- VerifierRole&#45;&gt;Verifier -->
<g id="edge4" class="edge">
<title>VerifierRole&#45;&gt;Verifier</title>
<path fill="none" stroke="black" stroke-dasharray="1,5" d="M273.9,-202.92C283.7,-205.34 294.14,-207.91 303.85,-210.3"/>
<polygon fill="black" stroke="black" points="302.81,-213.65 313.36,-212.64 304.49,-206.85 302.81,-213.65"/>
</g>
<!-- Creator&#45;&gt;Updater -->
<!-- Project&#45;&gt;Creator -->
<!-- DatasetRecord -->
<g id="node1" class="node">
<title>DatasetRecord</title>
<g id="a_node1"><a xlink:href="/develop/Data/models.html#dataset-record" xlink:title="DatasetRecord" target="_top">
<polygon fill="#cdefab" stroke="#dedede" points="145.08,-139.41 145.08,-154.32 103.76,-164.87 45.32,-164.87 4,-154.32 4,-139.41 45.32,-128.87 103.76,-128.87 145.08,-139.41"/>
<polygon fill="none" stroke="#dedede" points="149.08,-136.31 149.08,-157.43 104.26,-168.87 44.82,-168.87 0,-157.43 0,-136.31 44.82,-124.87 104.26,-124.87 149.08,-136.31"/>
<text text-anchor="middle" x="74.54" y="-141.82" font-family="Times,serif" font-size="14.00">DatasetRecord</text>
</a>
</g>
</g>
<!-- PinboardItem -->
<g id="node2" class="node">
<title>PinboardItem</title>
<g id="a_node2"><a xlink:href="/develop/Data/models.html#pinboard-item" xlink:title="PinboardItem" target="_top">
<polygon fill="#eeefff" stroke="#dddeee" points="277.2,-318.87 186.95,-318.87 186.95,-282.87 277.2,-282.87 277.2,-318.87"/>
<text text-anchor="middle" x="232.08" y="-295.82" font-family="Times,serif" font-size="14.00">PinboardItem</text>
</a>
</g>
</g>
<!-- Role -->
<g id="node3" class="node">
<title>Role</title>
<g id="a_node3"><a xlink:href="/develop/Data/models.html#role" xlink:title="Role" target="_top">
<polygon fill="#eeefff" stroke="#dddeee" points="259.08,-264.87 205.08,-264.87 205.08,-228.87 259.08,-228.87 259.08,-264.87"/>
<text text-anchor="middle" x="232.08" y="-241.82" font-family="Times,serif" font-size="14.00">Role</text>
</a>
</g>
</g>
<!-- VerifierRole -->
<g id="node4" class="node">
<title>VerifierRole</title>
<g id="a_node4"><a xlink:href="/develop/Data/models.html#verifier-role" xlink:title="VerifierRole" target="_top">
<polygon fill="#eeefff" stroke="#dddeee" points="273.45,-210.87 190.7,-210.87 190.7,-174.87 273.45,-174.87 273.45,-210.87"/>
<text text-anchor="middle" x="232.08" y="-187.82" font-family="Times,serif" font-size="14.00">VerifierRole</text>
</a>
</g>
</g>
<!-- Verifier -->
<g id="node5" class="node">
<title>Verifier</title>
<g id="a_node5"><a xlink:href="/develop/Data/models.html#verifier" xlink:title="Verifier" target="_top">
<polygon fill="#eeefff" stroke="#dddeee" points="372.33,-237.87 315.08,-237.87 315.08,-201.87 372.33,-201.87 372.33,-237.87"/>
<text text-anchor="middle" x="343.7" y="-214.82" font-family="Times,serif" font-size="14.00">Verifier</text>
</a>
</g>
</g>
<!-- Creator -->
<g id="node6" class="node">
<title>Creator</title>
<g id="a_node6"><a xlink:href="/develop/Data/models.html#creator" xlink:title="Creator" target="_top">
<polygon fill="#eeefff" stroke="#dddeee" points="371.95,-64.87 315.45,-64.87 315.45,-28.87 371.95,-28.87 371.95,-64.87"/>
<text text-anchor="middle" x="343.7" y="-41.82" font-family="Times,serif" font-size="14.00">Creator</text>
</a>
</g>
</g>
<!-- ImportDataset -->
<g id="node7" class="node">
<title>ImportDataset</title>
<g id="a_node7"><a xlink:href="/develop/Data/models.html#import-dataset" xlink:title="ImportDataset" target="_top">
<polygon fill="#eeefff" stroke="#dddeee" points="279.08,-118.87 185.08,-118.87 185.08,-82.87 279.08,-82.87 279.08,-118.87"/>
<text text-anchor="middle" x="232.08" y="-95.82" font-family="Times,serif" font-size="14.00">ImportDataset</text>
</a>
</g>
</g>
<!-- Project -->
<g id="node8" class="node">
<title>Project</title>
<g id="a_node8"><a xlink:href="/develop/Data/models.html#project" xlink:title="Project" target="_top">
<polygon fill="#eeefff" stroke="#dddeee" points="259.2,-64.87 204.95,-64.87 204.95,-28.87 259.2,-28.87 259.2,-64.87"/>
<text text-anchor="middle" x="232.08" y="-41.82" font-family="Times,serif" font-size="14.00">Project</text>
</a>
</g>
</g>
<!-- Updater -->
<g id="node9" class="node">
<title>Updater</title>
<g id="a_node9"><a xlink:href="/develop/Data/models.html#updater" xlink:title="Updater" target="_top">
<polygon fill="#eeefff" stroke="#dddeee" points="467.83,-64.87 408.33,-64.87 408.33,-28.87 467.83,-28.87 467.83,-64.87"/>
<text text-anchor="middle" x="438.08" y="-41.82" font-family="Times,serif" font-size="14.00">Updater</text>
</a>
</g>
</g>
</g>
</svg>
