<?xml version="1.0" encoding="UTF-8" standalone="no"?>
<!DOCTYPE svg PUBLIC "-//W3C//DTD SVG 1.1//EN"
 "http://www.w3.org/Graphics/SVG/1.1/DTD/svg11.dtd">
<!-- Generated by graphviz version 12.2.1 (20241206.2353)
 -->
<!-- Title: DerivedCollectionObject Pages: 1 -->
<svg width="639pt" height="389pt"
 viewBox="0.00 0.00 639.18 388.75" xmlns="http://www.w3.org/2000/svg" xmlns:xlink="http://www.w3.org/1999/xlink">
<g id="graph0" class="graph" transform="scale(1 1) rotate(0) translate(4 384.75)">
<title>DerivedCollectionObject</title>
<polygon fill="white" stroke="none" points="-4,4 -4,-384.75 635.18,-384.75 635.18,4 -4,4"/>
<!-- DerivedCollectionObject&#45;&gt;CollectionObject -->
<g id="edge5" class="edge">
<title>DerivedCollectionObject&#45;&gt;CollectionObject</title>
<path fill="none" stroke="black" stroke-dasharray="5,2" d="M138.85,-203.92C165.39,-240.3 213.54,-299.44 268.18,-334.25 278.12,-340.59 289.63,-345.62 300.94,-349.56"/>
<polygon fill="black" stroke="black" points="141.82,-202.06 133.14,-195.98 136.13,-206.14 141.82,-202.06"/>
</g>
<!-- DerivedCollectionObject&#45;&gt;PinboardItem -->
<g id="edge1" class="edge">
<title>DerivedCollectionObject&#45;&gt;PinboardItem</title>
<path fill="none" stroke="black" d="M143,-194.72C171.85,-218.75 220.7,-256.6 268.18,-280.25 277.86,-285.08 288.58,-289.26 299.08,-292.8"/>
<polygon fill="black" stroke="black" points="297.85,-296.08 308.44,-295.8 299.98,-289.42 297.85,-296.08"/>
</g>
<!-- DerivedCollectionObject&#45;&gt;Role -->
<g id="edge2" class="edge">
<title>DerivedCollectionObject&#45;&gt;Role</title>
<path fill="none" stroke="black" d="M173.23,-192.91C201.6,-203.2 236.62,-215.67 268.18,-226.25 284.2,-231.63 302,-237.26 317.24,-241.99"/>
<polygon fill="black" stroke="black" points="315.79,-245.2 326.38,-244.8 317.86,-238.51 315.79,-245.2"/>
</g>
<!-- DerivedCollectionObject&#45;&gt;VerifierRole -->
<g id="edge3" class="edge">
<title>DerivedCollectionObject&#45;&gt;VerifierRole</title>
<path fill="none" stroke="black" d="M225.63,-184.61C252.33,-187.65 279.71,-190.76 302.32,-193.34"/>
<polygon fill="black" stroke="black" points="301.84,-196.8 312.17,-194.46 302.63,-189.85 301.84,-196.8"/>
</g>
<!-- DerivedCollectionObject&#45;&gt;CollectionObjectObservation -->
<g id="edge6" class="edge">
<title>DerivedCollectionObject&#45;&gt;CollectionObjectObservation</title>
<path fill="none" stroke="black" stroke-dasharray="5,2" d="M236.93,-158.61C247.36,-157.43 257.77,-156.24 267.85,-155.09"/>
<polygon fill="black" stroke="black" points="236.67,-155.12 227.13,-159.73 237.46,-162.07 236.67,-155.12"/>
</g>
<!-- DerivedCollectionObject&#45;&gt;Creator -->
<g id="edge7" class="edge">
<title>DerivedCollectionObject&#45;&gt;Creator</title>
<path fill="none" stroke="black" stroke-dasharray="5,2" d="M181.44,-147.19C208.04,-137.38 239.34,-126.51 268.18,-118.25 344.38,-96.43 366.89,-104.28 442.43,-80.25 454.55,-76.4 467.54,-71.11 478.6,-66.23"/>
<polygon fill="black" stroke="black" points="180.3,-143.88 172.15,-150.65 182.75,-150.44 180.3,-143.88"/>
</g>
<!-- DerivedCollectionObject&#45;&gt;Project -->
<g id="edge8" class="edge">
<title>DerivedCollectionObject&#45;&gt;Project</title>
<path fill="none" stroke="black" stroke-dasharray="5,2" d="M161.81,-143.87C191.34,-125.79 231.25,-102.59 268.18,-85.25 287.67,-76.1 310.55,-67.7 327.83,-61.81"/>
<polygon fill="black" stroke="black" points="160.17,-140.76 153.5,-148.99 163.85,-146.72 160.17,-140.76"/>
</g>
<!-- DerivedCollectionObject&#45;&gt;Updater -->
<g id="edge9" class="edge">
<title>DerivedCollectionObject&#45;&gt;Updater</title>
<path fill="none" stroke="black" stroke-dasharray="5,2" d="M138.03,-140.78C163.8,-105.22 211.21,-49.28 268.18,-26.25 378.4,18.3 419.1,-2.92 535.68,-26.25 547.74,-28.67 560.36,-33.38 571.22,-38.2"/>
<polygon fill="black" stroke="black" points="135.45,-138.37 132.52,-148.56 141.16,-142.42 135.45,-138.37"/>
</g>
<!-- Role&#45;&gt;Verifier -->
<!-- VerifierRole&#45;&gt;Verifier -->
<g id="edge4" class="edge">
<title>VerifierRole&#45;&gt;Verifier</title>
<path fill="none" stroke="black" stroke-dasharray="1,5" d="M396.83,-206.56C418.71,-210.51 445.58,-215.35 467.2,-219.25"/>
<polygon fill="black" stroke="black" points="466.33,-222.65 476.8,-220.98 467.58,-215.76 466.33,-222.65"/>
</g>
<!-- Creator&#45;&gt;Updater -->
<!-- Project&#45;&gt;Creator -->
<!-- CollectionObject -->
<g id="node1" class="node">
<title>CollectionObject</title>
<g id="a_node1"><a xlink:href="/develop/Data/models.html#collection-object" xlink:title="CollectionObject" target="_top">
<path fill="#fedcba" stroke="#dddeee" d="M313.18,-344.25C313.18,-344.25 397.43,-344.25 397.43,-344.25 403.43,-344.25 409.43,-350.25 409.43,-356.25 409.43,-356.25 409.43,-368.25 409.43,-368.25 409.43,-374.25 403.43,-380.25 397.43,-380.25 397.43,-380.25 313.18,-380.25 313.18,-380.25 307.18,-380.25 301.18,-374.25 301.18,-368.25 301.18,-368.25 301.18,-356.25 301.18,-356.25 301.18,-350.25 307.18,-344.25 313.18,-344.25"/>
<text text-anchor="middle" x="355.3" y="-357.45" font-family="Times,serif" font-size="14.00">CollectionObject</text>
</a>
</g>
</g>
<!-- DerivedCollectionObject -->
<g id="node2" class="node">
<title>DerivedCollectionObject</title>
<g id="a_node2"><a xlink:href="/develop/Data/models.html#derived-collection-object" xlink:title="DerivedCollectionObject" target="_top">
<polygon fill="#cdefab" stroke="#dedede" points="228.18,-164.8 228.18,-179.71 162.52,-190.25 69.66,-190.25 4,-179.71 4,-164.8 69.66,-154.25 162.52,-154.25 228.18,-164.8"/>
<polygon fill="none" stroke="#dedede" points="232.18,-161.39 232.18,-183.12 162.84,-194.25 69.34,-194.25 0,-183.12 0,-161.39 69.34,-150.25 162.84,-150.25 232.18,-161.39"/>
<text text-anchor="middle" x="116.09" y="-167.2" font-family="Times,serif" font-size="14.00">DerivedCollectionObject</text>
</a>
</g>
</g>
<!-- PinboardItem -->
<g id="node3" class="node">
<title>PinboardItem</title>
<g id="a_node3"><a xlink:href="/develop/Data/models.html#pinboard-item" xlink:title="PinboardItem" target="_top">
<polygon fill="#eeefff" stroke="#dddeee" points="400.43,-325.25 310.18,-325.25 310.18,-289.25 400.43,-289.25 400.43,-325.25"/>
<text text-anchor="middle" x="355.3" y="-302.2" font-family="Times,serif" font-size="14.00">PinboardItem</text>
</a>
</g>
</g>
<!-- Role -->
<g id="node4" class="node">
<title>Role</title>
<g id="a_node4"><a xlink:href="/develop/Data/models.html#role" xlink:title="Role" target="_top">
<polygon fill="#eeefff" stroke="#dddeee" points="382.3,-271.25 328.3,-271.25 328.3,-235.25 382.3,-235.25 382.3,-271.25"/>
<text text-anchor="middle" x="355.3" y="-248.2" font-family="Times,serif" font-size="14.00">Role</text>
</a>
</g>
</g>
<!-- VerifierRole -->
<g id="node5" class="node">
<title>VerifierRole</title>
<g id="a_node5"><a xlink:href="/develop/Data/models.html#verifier-role" xlink:title="VerifierRole" target="_top">
<polygon fill="#eeefff" stroke="#dddeee" points="396.68,-217.25 313.93,-217.25 313.93,-181.25 396.68,-181.25 396.68,-217.25"/>
<text text-anchor="middle" x="355.3" y="-194.2" font-family="Times,serif" font-size="14.00">VerifierRole</text>
</a>
</g>
</g>
<!-- Verifier -->
<g id="node6" class="node">
<title>Verifier</title>
<g id="a_node6"><a xlink:href="/develop/Data/models.html#verifier" xlink:title="Verifier" target="_top">
<polygon fill="#eeefff" stroke="#dddeee" points="535.68,-244.25 478.43,-244.25 478.43,-208.25 535.68,-208.25 535.68,-244.25"/>
<text text-anchor="middle" x="507.05" y="-221.2" font-family="Times,serif" font-size="14.00">Verifier</text>
</a>
</g>
</g>
<!-- CollectionObjectObservation -->
<g id="node7" class="node">
<title>CollectionObjectObservation</title>
<g id="a_node7"><a xlink:href="/develop/Data/models.html#collection-object-observation" xlink:title="CollectionObjectObservation" target="_top">
<polygon fill="#eeefff" stroke="#dddeee" points="442.43,-163.25 268.18,-163.25 268.18,-127.25 442.43,-127.25 442.43,-163.25"/>
<text text-anchor="middle" x="355.3" y="-140.2" font-family="Times,serif" font-size="14.00">CollectionObjectObservation</text>
</a>
</g>
</g>
<!-- Creator -->
<g id="node8" class="node">
<title>Creator</title>
<g id="a_node8"><a xlink:href="/develop/Data/models.html#creator" xlink:title="Creator" target="_top">
<polygon fill="#eeefff" stroke="#dddeee" points="535.3,-71.25 478.8,-71.25 478.8,-35.25 535.3,-35.25 535.3,-71.25"/>
<text text-anchor="middle" x="507.05" y="-48.2" font-family="Times,serif" font-size="14.00">Creator</text>
</a>
</g>
</g>
<!-- Project -->
<g id="node9" class="node">
<title>Project</title>
<g id="a_node9"><a xlink:href="/develop/Data/models.html#project" xlink:title="Project" target="_top">
<polygon fill="#eeefff" stroke="#dddeee" points="382.43,-71.25 328.18,-71.25 328.18,-35.25 382.43,-35.25 382.43,-71.25"/>
<text text-anchor="middle" x="355.3" y="-48.2" font-family="Times,serif" font-size="14.00">Project</text>
</a>
</g>
</g>
<!-- Updater -->
<g id="node10" class="node">
<title>Updater</title>
<g id="a_node10"><a xlink:href="/develop/Data/models.html#updater" xlink:title="Updater" target="_top">
<polygon fill="#eeefff" stroke="#dddeee" points="631.18,-71.25 571.68,-71.25 571.68,-35.25 631.18,-35.25 631.18,-71.25"/>
<text text-anchor="middle" x="601.43" y="-48.2" font-family="Times,serif" font-size="14.00">Updater</text>
</a>
</g>
</g>
</g>
</svg>
