<?xml version="1.0" encoding="UTF-8" standalone="no"?>
<!DOCTYPE svg PUBLIC "-//W3C//DTD SVG 1.1//EN"
 "http://www.w3.org/Graphics/SVG/1.1/DTD/svg11.dtd">
<!-- Generated by graphviz version 12.2.1 (20241206.2353)
 -->
<!-- Title: Descriptor Pages: 1 -->
<svg width="861pt" height="956pt"
 viewBox="0.00 0.00 861.39 956.00" xmlns="http://www.w3.org/2000/svg" xmlns:xlink="http://www.w3.org/1999/xlink">
<g id="graph0" class="graph" transform="scale(1 1) rotate(0) translate(4 952)">
<title>Descriptor</title>
<polygon fill="white" stroke="none" points="-4,4 -4,-952 857.39,-952 857.39,4 -4,4"/>
<!-- AlternateValue&#45;&gt;AlternateValueLanguage -->
<g id="edge1" class="edge">
<title>AlternateValue&#45;&gt;AlternateValueLanguage</title>
<path fill="none" stroke="black" stroke-dasharray="1,5" d="M124.6,-911.84C134.9,-913.43 145.84,-915.11 156.74,-916.79"/>
<polygon fill="black" stroke="black" points="156.14,-920.24 166.56,-918.3 157.21,-913.32 156.14,-920.24"/>
</g>
<!-- Citation&#45;&gt;Source -->
<g id="edge23" class="edge">
<title>Citation&#45;&gt;Source</title>
<path fill="none" stroke="black" stroke-dasharray="1,5" d="M107.25,-821C181.29,-821 338.54,-821 410.68,-821"/>
<polygon fill="black" stroke="black" points="410.39,-824.5 420.39,-821 410.39,-817.5 410.39,-824.5"/>
</g>
<!-- Citation&#45;&gt;CitationTopic -->
<g id="edge3" class="edge">
<title>Citation&#45;&gt;CitationTopic</title>
<path fill="none" stroke="black" stroke-dasharray="1,5" d="M100.17,-831.35C124.62,-839.02 158.52,-849.65 187.11,-858.62"/>
<polygon fill="black" stroke="black" points="185.74,-861.86 196.33,-861.51 187.83,-855.18 185.74,-861.86"/>
</g>
<!-- Confidence&#45;&gt;ConfidenceLevel -->
<g id="edge5" class="edge">
<title>Confidence&#45;&gt;ConfidenceLevel</title>
<path fill="none" stroke="black" stroke-dasharray="1,5" d="M119.8,-431C137.92,-431 158.44,-431 177.44,-431"/>
<polygon fill="black" stroke="black" points="177.22,-434.5 187.22,-431 177.22,-427.5 177.22,-434.5"/>
</g>
<!-- Depiction&#45;&gt;Image -->
<g id="edge12" class="edge">
<title>Depiction&#45;&gt;Image</title>
<path fill="none" stroke="black" stroke-dasharray="1,5" d="M113.72,-377C142.26,-377 178.33,-377 205.03,-377"/>
<polygon fill="black" stroke="black" points="204.7,-380.5 214.7,-377 204.7,-373.5 204.7,-380.5"/>
</g>
<!-- Tag&#45;&gt;Keyword -->
<g id="edge15" class="edge">
<title>Tag&#45;&gt;Keyword</title>
<path fill="none" stroke="black" stroke-dasharray="1,5" d="M93.44,-323C121.3,-323 165.78,-323 198.91,-323"/>
<polygon fill="black" stroke="black" points="198.6,-326.5 208.6,-323 198.6,-319.5 198.6,-326.5"/>
</g>
<!-- Descriptor&#45;&gt;AlternateValue -->
<g id="edge2" class="edge">
<title>Descriptor&#45;&gt;AlternateValue</title>
<path fill="none" stroke="black" d="M240.08,-511.48C232.74,-570.97 206.59,-735.68 132.39,-848 124.54,-859.87 113.4,-870.58 102.55,-879.33"/>
<polygon fill="black" stroke="black" points="100.59,-876.42 94.77,-885.28 104.84,-881.98 100.59,-876.42"/>
</g>
<!-- Descriptor&#45;&gt;Citation -->
<g id="edge4" class="edge">
<title>Descriptor&#45;&gt;Citation</title>
<path fill="none" stroke="black" d="M230.8,-511.19C199.83,-569.83 115.86,-728.84 81.82,-793.3"/>
<polygon fill="black" stroke="black" points="78.9,-791.33 77.33,-801.81 85.09,-794.6 78.9,-791.33"/>
</g>
<!-- Descriptor&#45;&gt;Confidence -->
<g id="edge6" class="edge">
<title>Descriptor&#45;&gt;Confidence</title>
<path fill="none" stroke="black" d="M197.72,-474.18C172.69,-465.9 141.47,-455.57 115.84,-447.09"/>
<polygon fill="black" stroke="black" points="117.27,-443.88 106.67,-444.06 115.07,-450.52 117.27,-443.88"/>
</g>
<!-- Descriptor&#45;&gt;DataAttribute -->
<g id="edge7" class="edge">
<title>Descriptor&#45;&gt;DataAttribute</title>
<path fill="none" stroke="black" d="M216.42,-509.69C194.74,-526.26 162.66,-549.4 132.39,-566 127.08,-568.91 121.4,-571.7 115.68,-574.31"/>
<polygon fill="black" stroke="black" points="114.57,-570.98 106.81,-578.19 117.37,-577.39 114.57,-570.98"/>
</g>
<!-- Descriptor&#45;&gt;Depiction -->
<g id="edge8" class="edge">
<title>Descriptor&#45;&gt;Depiction</title>
<path fill="none" stroke="black" d="M196.63,-474.75C186.68,-470.36 176.68,-464.83 168.39,-458 146.13,-439.65 154.68,-422.31 132.39,-404 126.98,-399.56 120.75,-395.76 114.32,-392.53"/>
<polygon fill="black" stroke="black" points="116.08,-389.49 105.53,-388.54 113.19,-395.86 116.08,-389.49"/>
</g>
<!-- Descriptor&#45;&gt;Identifier -->
<g id="edge11" class="edge">
<title>Descriptor&#45;&gt;Identifier</title>
<path fill="none" stroke="black" d="M194.58,-502.67C169.67,-509.78 139.32,-518.43 114.5,-525.51"/>
<polygon fill="black" stroke="black" points="113.63,-522.12 104.98,-528.22 115.55,-528.85 113.63,-522.12"/>
</g>
<!-- Descriptor&#45;&gt;Tag -->
<g id="edge26" class="edge">
<title>Descriptor&#45;&gt;Tag</title>
<path fill="none" stroke="black" d="M193.65,-475.57C184.32,-471.19 175.32,-465.46 168.39,-458 133.97,-420.92 166.87,-387.02 132.39,-350 124.58,-341.62 113.78,-335.76 103.21,-331.69"/>
<polygon fill="black" stroke="black" points="104.44,-328.42 93.85,-328.56 102.22,-335.05 104.44,-328.42"/>
</g>
<!-- Descriptor&#45;&gt;Note -->
<g id="edge16" class="edge">
<title>Descriptor&#45;&gt;Note</title>
<path fill="none" stroke="black" d="M185.36,-487.7C159.69,-487.11 130.02,-486.43 106.84,-485.9"/>
<polygon fill="black" stroke="black" points="106.95,-482.41 96.88,-485.68 106.79,-489.4 106.95,-482.41"/>
</g>
<!-- Descriptor&#45;&gt;Observation -->
<g id="edge20" class="edge">
<title>Descriptor&#45;&gt;Observation</title>
<path fill="none" stroke="black" d="M301.81,-489C331.5,-489 367.48,-489 396.35,-489"/>
<polygon fill="black" stroke="black" points="396.33,-492.5 406.33,-489 396.33,-485.5 396.33,-492.5"/>
</g>
<!-- Descriptor&#45;&gt;Source -->
<g id="edge36" class="edge">
<title>Descriptor&#45;&gt;Source</title>
<path fill="none" stroke="black" stroke-dasharray="1,5" d="M247.49,-521.31C254.77,-581.92 278.83,-713.25 354.64,-788 369.96,-803.11 392.61,-811.33 411.8,-815.79"/>
<polygon fill="none" stroke="black" points="242.43,-512.13 250.38,-511.24 251.28,-519.19 243.33,-520.08 242.43,-512.13"/>
<polyline fill="none" stroke="black" points="247.3,-519.64 247.52,-521.62"/>
<polygon fill="none" stroke="black" points="422.35,-813.88 420.73,-821.71 412.9,-820.1 414.51,-812.26 422.35,-813.88"/>
<polyline fill="none" stroke="black" points="413.7,-816.18 411.75,-815.78"/>
</g>
<!-- Descriptor&#45;&gt;Documentation -->
<g id="edge9" class="edge">
<title>Descriptor&#45;&gt;Documentation</title>
<path fill="none" stroke="black" d="M295.54,-476.36C304.49,-471.94 312.8,-466 318.64,-458 372.97,-383.6 296.1,-116.14 354.64,-45 363.12,-34.69 375.27,-28.17 388.01,-24.09"/>
<polygon fill="black" stroke="black" points="388.58,-27.56 397.34,-21.59 386.77,-20.8 388.58,-27.56"/>
</g>
<!-- Descriptor&#45;&gt;ImportAttribute -->
<g id="edge13" class="edge">
<title>Descriptor&#45;&gt;ImportAttribute</title>
<path fill="none" stroke="black" d="M294.56,-476.08C303.7,-471.68 312.32,-465.81 318.64,-458 373.23,-390.49 297.82,-331.65 354.64,-266 363.16,-256.16 374.84,-249.33 387.07,-244.61"/>
<polygon fill="black" stroke="black" points="388.08,-247.96 396.45,-241.46 385.85,-241.33 388.08,-247.96"/>
</g>
<!-- Descriptor&#45;&gt;InternalAttribute -->
<g id="edge14" class="edge">
<title>Descriptor&#45;&gt;InternalAttribute</title>
<path fill="none" stroke="black" d="M295.2,-476.1C304.18,-471.71 312.58,-465.83 318.64,-458 387.61,-368.87 280.65,-292 354.64,-207 362.63,-197.82 373.53,-191.66 385.07,-187.56"/>
<polygon fill="black" stroke="black" points="385.76,-191.01 394.33,-184.78 383.75,-184.3 385.76,-191.01"/>
</g>
<!-- Descriptor&#45;&gt;ObservationMatrixColumn -->
<g id="edge19" class="edge">
<title>Descriptor&#45;&gt;ObservationMatrixColumn</title>
<path fill="none" stroke="black" d="M293.83,-475.69C316.3,-469.62 343.47,-462.29 368.71,-455.47"/>
<polygon fill="black" stroke="black" points="369.56,-458.87 378.3,-452.88 367.74,-452.11 369.56,-458.87"/>
</g>
<!-- Descriptor&#45;&gt;ObservationMatrixColumnItem -->
<g id="edge18" class="edge">
<title>Descriptor&#45;&gt;ObservationMatrixColumnItem</title>
<path fill="none" stroke="black" d="M295.35,-476.22C304.32,-471.81 312.67,-465.91 318.64,-458 400.82,-349.02 266.31,-257.07 354.64,-153 354.89,-152.7 355.15,-152.4 355.42,-152.1"/>
<polygon fill="black" stroke="black" points="357.7,-154.76 362.71,-145.42 352.97,-149.6 357.7,-154.76"/>
</g>
<!-- Descriptor&#45;&gt;PinboardItem -->
<g id="edge21" class="edge">
<title>Descriptor&#45;&gt;PinboardItem</title>
<path fill="none" stroke="black" d="M295.46,-476.3C304.42,-471.89 312.74,-465.96 318.64,-458 414.06,-329.12 251.95,-222.16 354.64,-99 364.22,-87.51 378.36,-80.73 392.76,-76.79"/>
<polygon fill="black" stroke="black" points="393.3,-80.26 402.28,-74.63 391.75,-73.43 393.3,-80.26"/>
</g>
<!-- Descriptor&#45;&gt;Role -->
<g id="edge22" class="edge">
<title>Descriptor&#45;&gt;Role</title>
<path fill="none" stroke="black" d="M293.32,-475.52C302.66,-471.15 311.68,-465.43 318.64,-458 352.36,-421.99 318.9,-387.01 354.64,-353 369.66,-338.71 391.76,-331.91 410.71,-328.71"/>
<polygon fill="black" stroke="black" points="411.09,-332.19 420.52,-327.35 410.13,-325.26 411.09,-332.19"/>
</g>
<!-- Descriptor&#45;&gt;SubsequentCitation -->
<g id="edge24" class="edge">
<title>Descriptor&#45;&gt;SubsequentCitation</title>
<path fill="none" stroke="black" d="M246.52,-511.23C252.48,-563.19 275.02,-692.92 354.64,-755 386.94,-780.19 494.57,-790.34 567.95,-794.38"/>
<polygon fill="black" stroke="black" points="567.73,-797.87 577.9,-794.9 568.1,-790.88 567.73,-797.87"/>
</g>
<!-- Descriptor&#45;&gt;Uri -->
<g id="edge28" class="edge">
<title>Descriptor&#45;&gt;Uri</title>
<path fill="none" stroke="black" d="M250.37,-511.18C262.61,-553.27 294.83,-645.05 354.64,-696 370.45,-709.47 392.21,-717.35 410.77,-721.92"/>
<polygon fill="black" stroke="black" points="409.84,-725.3 420.36,-724.04 411.34,-718.47 409.84,-725.3"/>
</g>
<!-- Descriptor&#45;&gt;Uuid -->
<g id="edge29" class="edge">
<title>Descriptor&#45;&gt;Uuid</title>
<path fill="none" stroke="black" d="M260.38,-511.11C279.88,-536.8 315.26,-578.86 354.64,-604 371.82,-614.97 393.2,-622.65 411.18,-627.73"/>
<polygon fill="black" stroke="black" points="410.13,-631.07 420.69,-630.24 411.92,-624.3 410.13,-631.07"/>
</g>
<!-- Descriptor&#45;&gt;VerifierRole -->
<g id="edge30" class="edge">
<title>Descriptor&#45;&gt;VerifierRole</title>
<path fill="none" stroke="black" d="M290.27,-474.58C300.22,-470.2 310.26,-464.72 318.64,-458 340.28,-440.64 332.03,-423.09 354.64,-407 367.05,-398.17 382.31,-392.21 396.89,-388.19"/>
<polygon fill="black" stroke="black" points="397.5,-391.65 406.37,-385.85 395.82,-384.85 397.5,-391.65"/>
</g>
<!-- Descriptor&#45;&gt;Creator -->
<g id="edge32" class="edge">
<title>Descriptor&#45;&gt;Creator</title>
<path fill="none" stroke="black" stroke-dasharray="5,2" d="M273.91,-519.23C294.49,-538.13 323.75,-560.76 354.64,-571 445.26,-601.03 560.33,-570.83 612.2,-553.85"/>
<polygon fill="black" stroke="black" points="276.41,-516.78 266.74,-512.45 271.6,-521.86 276.41,-516.78"/>
</g>
<!-- Descriptor&#45;&gt;Project -->
<g id="edge33" class="edge">
<title>Descriptor&#45;&gt;Project</title>
<path fill="none" stroke="black" stroke-dasharray="5,2" d="M304.53,-505.2C343.46,-515.71 392.26,-528.88 421.82,-536.86"/>
<polygon fill="black" stroke="black" points="305.86,-501.94 295.3,-502.71 304.04,-508.69 305.86,-501.94"/>
</g>
<!-- Descriptor&#45;&gt;Updater -->
<g id="edge34" class="edge">
<title>Descriptor&#45;&gt;Updater</title>
<path fill="none" stroke="black" stroke-dasharray="5,2" d="M304.34,-470.33C309.69,-466.88 314.6,-462.81 318.64,-458 365.24,-402.52 298.03,-344.22 354.64,-299 420.35,-246.5 460.08,-291.88 543.89,-299 614.76,-305.02 645.83,-281.9 701.64,-326 766.67,-377.4 786.87,-482.94 792.52,-525.55"/>
<polygon fill="black" stroke="black" points="302.7,-467.24 295.66,-475.16 306.1,-473.36 302.7,-467.24"/>
</g>
<!-- Descriptor&#45;&gt;OriginCitation -->
<g id="edge35" class="edge">
<title>Descriptor&#45;&gt;OriginCitation</title>
<path fill="none" stroke="black" d="M255.11,-520.95C270.29,-561.31 302.32,-629.5 354.64,-663 391.37,-686.52 510.7,-695.63 582.82,-699.05"/>
<polygon fill="none" stroke="black" points="248.02,-513.17 255.54,-510.44 258.27,-517.95 250.75,-520.69 248.02,-513.17"/>
<polyline fill="none" stroke="black" points="254.51,-519.32 255.2,-521.2"/>
<polygon fill="none" stroke="black" points="592.79,-695.5 592.43,-703.49 584.44,-703.13 584.8,-695.14 592.79,-695.5"/>
<polyline fill="none" stroke="black" points="584.62,-699.13 582.62,-699.04"/>
</g>
<!-- Observation&#45;&gt;ObservationMatrix -->
<!-- Source&#45;&gt;SubsequentCitation -->
<!-- Source&#45;&gt;OriginCitation -->
<!-- CitationTopic&#45;&gt;Topic -->
<g id="edge27" class="edge">
<title>CitationTopic&#45;&gt;Topic</title>
<path fill="none" stroke="black" stroke-dasharray="1,5" d="M289.48,-876C325.75,-876 376.19,-876 410.42,-876"/>
<polygon fill="black" stroke="black" points="410.29,-879.5 420.29,-876 410.29,-872.5 410.29,-879.5"/>
</g>
<!-- Documentation&#45;&gt;Document -->
<g id="edge10" class="edge">
<title>Documentation&#45;&gt;Document</title>
<path fill="none" stroke="black" stroke-dasharray="1,5" d="M499.56,-18C528.28,-18 564.31,-18 592.65,-18"/>
<polygon fill="black" stroke="black" points="592.37,-21.5 602.37,-18 592.37,-14.5 592.37,-21.5"/>
</g>
<!-- ObservationMatrixColumn&#45;&gt;ObservationMatrix -->
<g id="edge17" class="edge">
<title>ObservationMatrixColumn&#45;&gt;ObservationMatrix</title>
<path fill="none" stroke="black" stroke-dasharray="1,5" d="M531.45,-434C544.14,-434 557.16,-434 569.58,-434"/>
<polygon fill="black" stroke="black" points="569.27,-437.5 579.27,-434 569.27,-430.5 569.27,-437.5"/>
</g>
<!-- Role&#45;&gt;Verifier -->
<!-- SubsequentCitation&#45;&gt;SubsequentSource -->
<g id="edge25" class="edge">
<title>SubsequentCitation&#45;&gt;SubsequentSource</title>
<path fill="none" stroke="black" stroke-dasharray="1,5" d="M702.13,-797C710.07,-797 718.25,-797 726.3,-797"/>
<polygon fill="black" stroke="black" points="726.05,-800.5 736.05,-797 726.05,-793.5 726.05,-800.5"/>
</g>
<!-- VerifierRole&#45;&gt;Verifier -->
<g id="edge31" class="edge">
<title>VerifierRole&#45;&gt;Verifier</title>
<path fill="none" stroke="black" stroke-dasharray="1,5" d="M490.92,-374.21C523.36,-369.58 568.54,-363.15 600.59,-358.58"/>
<polygon fill="black" stroke="black" points="600.85,-362.08 610.26,-357.2 599.87,-355.15 600.85,-362.08"/>
</g>
<!-- Creator&#45;&gt;Updater -->
<!-- Project&#45;&gt;Creator -->
<!-- AlternateValue -->
<g id="node1" class="node">
<title>AlternateValue</title>
<g id="a_node1"><a xlink:href="/develop/Data/models.html#alternate-value" xlink:title="AlternateValue" target="_top">
<ellipse fill="#abcdef" stroke="#dddeee" cx="66.19" cy="-903" rx="66.19" ry="18"/>
<text text-anchor="middle" x="66.19" y="-897.95" font-family="Times,serif" font-size="14.00">AlternateValue</text>
</a>
</g>
</g>
<!-- Citation -->
<g id="node2" class="node">
<title>Citation</title>
<g id="a_node2"><a xlink:href="/develop/Data/models.html#citation" xlink:title="Citation" target="_top">
<ellipse fill="#abcdef" stroke="#dddeee" cx="66.19" cy="-821" rx="40.6" ry="18"/>
<text text-anchor="middle" x="66.19" y="-815.95" font-family="Times,serif" font-size="14.00">Citation</text>
</a>
</g>
</g>
<!-- Confidence -->
<g id="node3" class="node">
<title>Confidence</title>
<g id="a_node3"><a xlink:href="/develop/Data/models.html#confidence" xlink:title="Confidence" target="_top">
<ellipse fill="#abcdef" stroke="#dddeee" cx="66.19" cy="-431" rx="53.4" ry="18"/>
<text text-anchor="middle" x="66.19" y="-425.95" font-family="Times,serif" font-size="14.00">Confidence</text>
</a>
</g>
</g>
<!-- DataAttribute -->
<g id="node4" class="node">
<title>DataAttribute</title>
<g id="a_node4"><a xlink:href="/develop/Data/models.html#data-attribute" xlink:title="DataAttribute" target="_top">
<ellipse fill="#abcdef" stroke="#dddeee" cx="66.19" cy="-593" rx="61.59" ry="18"/>
<text text-anchor="middle" x="66.19" y="-587.95" font-family="Times,serif" font-size="14.00">DataAttribute</text>
</a>
</g>
</g>
<!-- Depiction -->
<g id="node5" class="node">
<title>Depiction</title>
<g id="a_node5"><a xlink:href="/develop/Data/models.html#depiction" xlink:title="Depiction" target="_top">
<ellipse fill="#abcdef" stroke="#dddeee" cx="66.19" cy="-377" rx="47.26" ry="18"/>
<text text-anchor="middle" x="66.19" y="-371.95" font-family="Times,serif" font-size="14.00">Depiction</text>
</a>
</g>
</g>
<!-- Identifier -->
<g id="node6" class="node">
<title>Identifier</title>
<g id="a_node6"><a xlink:href="/develop/Data/models.html#identifier" xlink:title="Identifier" target="_top">
<ellipse fill="#abcdef" stroke="#dddeee" cx="66.19" cy="-539" rx="45.21" ry="18"/>
<text text-anchor="middle" x="66.19" y="-533.95" font-family="Times,serif" font-size="14.00">Identifier</text>
</a>
</g>
</g>
<!-- Tag -->
<g id="node7" class="node">
<title>Tag</title>
<g id="a_node7"><a xlink:href="/develop/Data/models.html#tag" xlink:title="Tag" target="_top">
<ellipse fill="#abcdef" stroke="#dddeee" cx="66.19" cy="-323" rx="27" ry="18"/>
<text text-anchor="middle" x="66.19" y="-317.95" font-family="Times,serif" font-size="14.00">Tag</text>
</a>
</g>
</g>
<!-- Note -->
<g id="node8" class="node">
<title>Note</title>
<g id="a_node8"><a xlink:href="/develop/Data/models.html#note" xlink:title="Note" target="_top">
<ellipse fill="#abcdef" stroke="#dddeee" cx="66.19" cy="-485" rx="28.83" ry="18"/>
<text text-anchor="middle" x="66.19" y="-479.95" font-family="Times,serif" font-size="14.00">Note</text>
</a>
</g>
</g>
<!-- Descriptor -->
<g id="node9" class="node">
<title>Descriptor</title>
<g id="a_node9"><a xlink:href="/develop/Data/models.html#descriptor" xlink:title="Descriptor" target="_top">
<polygon fill="#cdefab" stroke="#dedede" points="297.43,-481.54 297.43,-496.46 265.85,-507 221.18,-507 189.59,-496.46 189.59,-481.54 221.18,-471 265.85,-471 297.43,-481.54"/>
<polygon fill="none" stroke="#dedede" points="301.43,-478.66 301.43,-499.34 266.5,-511 220.53,-511 185.59,-499.34 185.59,-478.66 220.53,-467 266.5,-467 301.43,-478.66"/>
<text text-anchor="middle" x="243.51" y="-483.95" font-family="Times,serif" font-size="14.00">Descriptor</text>
</a>
</g>
</g>
<!-- Observation -->
<g id="node10" class="node">
<title>Observation</title>
<g id="a_node10"><a xlink:href="/develop/Data/models.html#observation" xlink:title="Observation" target="_top">
<path fill="#fedcba" stroke="#dddeee" d="M420.26,-471C420.26,-471 478.26,-471 478.26,-471 484.26,-471 490.26,-477 490.26,-483 490.26,-483 490.26,-495 490.26,-495 490.26,-501 484.26,-507 478.26,-507 478.26,-507 420.26,-507 420.26,-507 414.26,-507 408.26,-501 408.26,-495 408.26,-495 408.26,-483 408.26,-483 408.26,-477 414.26,-471 420.26,-471"/>
<text text-anchor="middle" x="449.26" y="-484.2" font-family="Times,serif" font-size="14.00">Observation</text>
</a>
</g>
</g>
<!-- Source -->
<g id="node11" class="node">
<title>Source</title>
<g id="a_node11"><a xlink:href="/develop/Data/models.html#source" xlink:title="Source" target="_top">
<path fill="#fedcba" stroke="#dddeee" d="M434.26,-803C434.26,-803 464.26,-803 464.26,-803 470.26,-803 476.26,-809 476.26,-815 476.26,-815 476.26,-827 476.26,-827 476.26,-833 470.26,-839 464.26,-839 464.26,-839 434.26,-839 434.26,-839 428.26,-839 422.26,-833 422.26,-827 422.26,-827 422.26,-815 422.26,-815 422.26,-809 428.26,-803 434.26,-803"/>
<text text-anchor="middle" x="449.26" y="-816.2" font-family="Times,serif" font-size="14.00">Source</text>
</a>
</g>
</g>
<!-- AlternateValueLanguage -->
<g id="node12" class="node">
<title>AlternateValueLanguage</title>
<g id="a_node12"><a xlink:href="/develop/Data/models.html#alternate-value-language" xlink:title="AlternateValueLanguage" target="_top">
<polygon fill="#eeefff" stroke="#dddeee" points="318.64,-948 168.39,-948 168.39,-912 318.64,-912 318.64,-948"/>
<text text-anchor="middle" x="243.51" y="-924.95" font-family="Times,serif" font-size="14.00">AlternateValueLanguage</text>
</a>
</g>
</g>
<!-- CitationTopic -->
<g id="node13" class="node">
<title>CitationTopic</title>
<g id="a_node13"><a xlink:href="/develop/Data/models.html#citation-topic" xlink:title="CitationTopic" target="_top">
<polygon fill="#eeefff" stroke="#dddeee" points="289.01,-894 198.01,-894 198.01,-858 289.01,-858 289.01,-894"/>
<text text-anchor="middle" x="243.51" y="-870.95" font-family="Times,serif" font-size="14.00">CitationTopic</text>
</a>
</g>
</g>
<!-- ConfidenceLevel -->
<g id="node14" class="node">
<title>ConfidenceLevel</title>
<g id="a_node14"><a xlink:href="/develop/Data/models.html#confidence-level" xlink:title="ConfidenceLevel" target="_top">
<polygon fill="#eeefff" stroke="#dddeee" points="298.01,-449 189.01,-449 189.01,-413 298.01,-413 298.01,-449"/>
<text text-anchor="middle" x="243.51" y="-425.95" font-family="Times,serif" font-size="14.00">ConfidenceLevel</text>
</a>
</g>
</g>
<!-- Documentation -->
<g id="node15" class="node">
<title>Documentation</title>
<g id="a_node15"><a xlink:href="/develop/Data/models.html#documentation" xlink:title="Documentation" target="_top">
<polygon fill="#eeefff" stroke="#dddeee" points="499.26,-36 399.26,-36 399.26,0 499.26,0 499.26,-36"/>
<text text-anchor="middle" x="449.26" y="-12.95" font-family="Times,serif" font-size="14.00">Documentation</text>
</a>
</g>
</g>
<!-- Document -->
<g id="node16" class="node">
<title>Document</title>
<g id="a_node16"><a xlink:href="/develop/Data/models.html#document" xlink:title="Document" target="_top">
<polygon fill="#eeefff" stroke="#dddeee" points="677.26,-36 604.26,-36 604.26,0 677.26,0 677.26,-36"/>
<text text-anchor="middle" x="640.76" y="-12.95" font-family="Times,serif" font-size="14.00">Document</text>
</a>
</g>
</g>
<!-- Image -->
<g id="node17" class="node">
<title>Image</title>
<g id="a_node17"><a xlink:href="/develop/Data/models.html#image" xlink:title="Image" target="_top">
<polygon fill="#eeefff" stroke="#dddeee" points="270.51,-395 216.51,-395 216.51,-359 270.51,-359 270.51,-395"/>
<text text-anchor="middle" x="243.51" y="-371.95" font-family="Times,serif" font-size="14.00">Image</text>
</a>
</g>
</g>
<!-- ImportAttribute -->
<g id="node18" class="node">
<title>ImportAttribute</title>
<g id="a_node18"><a xlink:href="/develop/Data/models.html#import-attribute" xlink:title="ImportAttribute" target="_top">
<polygon fill="#eeefff" stroke="#dddeee" points="500.39,-252 398.14,-252 398.14,-216 500.39,-216 500.39,-252"/>
<text text-anchor="middle" x="449.26" y="-228.95" font-family="Times,serif" font-size="14.00">ImportAttribute</text>
</a>
</g>
</g>
<!-- InternalAttribute -->
<g id="node19" class="node">
<title>InternalAttribute</title>
<g id="a_node19"><a xlink:href="/develop/Data/models.html#internal-attribute" xlink:title="InternalAttribute" target="_top">
<polygon fill="#eeefff" stroke="#dddeee" points="502.64,-198 395.89,-198 395.89,-162 502.64,-162 502.64,-198"/>
<text text-anchor="middle" x="449.26" y="-174.95" font-family="Times,serif" font-size="14.00">InternalAttribute</text>
</a>
</g>
</g>
<!-- Keyword -->
<g id="node20" class="node">
<title>Keyword</title>
<g id="a_node20"><a xlink:href="/develop/Data/models.html#keyword" xlink:title="Keyword" target="_top">
<polygon fill="#eeefff" stroke="#dddeee" points="276.64,-341 210.39,-341 210.39,-305 276.64,-305 276.64,-341"/>
<text text-anchor="middle" x="243.51" y="-317.95" font-family="Times,serif" font-size="14.00">Keyword</text>
</a>
</g>
</g>
<!-- ObservationMatrixColumn -->
<g id="node21" class="node">
<title>ObservationMatrixColumn</title>
<g id="a_node21"><a xlink:href="/develop/Data/models.html#observation-matrix-column" xlink:title="ObservationMatrixColumn" target="_top">
<polygon fill="#eeefff" stroke="#dddeee" points="531.14,-452 367.39,-452 367.39,-416 531.14,-416 531.14,-452"/>
<text text-anchor="middle" x="449.26" y="-428.95" font-family="Times,serif" font-size="14.00">ObservationMatrixColumn</text>
</a>
</g>
</g>
<!-- ObservationMatrix -->
<g id="node22" class="node">
<title>ObservationMatrix</title>
<g id="a_node22"><a xlink:href="/develop/Data/models.html#observation-matrix" xlink:title="ObservationMatrix" target="_top">
<polygon fill="#eeefff" stroke="#dddeee" points="700.51,-452 581.01,-452 581.01,-416 700.51,-416 700.51,-452"/>
<text text-anchor="middle" x="640.76" y="-428.95" font-family="Times,serif" font-size="14.00">ObservationMatrix</text>
</a>
</g>
</g>
<!-- ObservationMatrixColumnItem -->
<g id="node23" class="node">
<title>ObservationMatrixColumnItem</title>
<g id="a_node23"><a xlink:href="/develop/Data/models.html#observation-matrix-column-item" xlink:title="ObservationMatrixColumnItem" target="_top">
<polygon fill="#eeefff" stroke="#dddeee" points="543.89,-144 354.64,-144 354.64,-108 543.89,-108 543.89,-144"/>
<text text-anchor="middle" x="449.26" y="-120.95" font-family="Times,serif" font-size="14.00">ObservationMatrixColumnItem</text>
</a>
</g>
</g>
<!-- PinboardItem -->
<g id="node24" class="node">
<title>PinboardItem</title>
<g id="a_node24"><a xlink:href="/develop/Data/models.html#pinboard-item" xlink:title="PinboardItem" target="_top">
<polygon fill="#eeefff" stroke="#dddeee" points="494.39,-90 404.14,-90 404.14,-54 494.39,-54 494.39,-90"/>
<text text-anchor="middle" x="449.26" y="-66.95" font-family="Times,serif" font-size="14.00">PinboardItem</text>
</a>
</g>
</g>
<!-- Role -->
<g id="node25" class="node">
<title>Role</title>
<g id="a_node25"><a xlink:href="/develop/Data/models.html#role" xlink:title="Role" target="_top">
<polygon fill="#eeefff" stroke="#dddeee" points="476.26,-344 422.26,-344 422.26,-308 476.26,-308 476.26,-344"/>
<text text-anchor="middle" x="449.26" y="-320.95" font-family="Times,serif" font-size="14.00">Role</text>
</a>
</g>
</g>
<!-- SubsequentCitation -->
<g id="node26" class="node">
<title>SubsequentCitation</title>
<g id="a_node26"><a xlink:href="/develop/Data/models.html#subsequent-citation" xlink:title="SubsequentCitation" target="_top">
<polygon fill="#eeefff" stroke="#dddeee" points="701.64,-815 579.89,-815 579.89,-779 701.64,-779 701.64,-815"/>
<text text-anchor="middle" x="640.76" y="-791.95" font-family="Times,serif" font-size="14.00">SubsequentCitation</text>
</a>
</g>
</g>
<!-- SubsequentSource -->
<g id="node27" class="node">
<title>SubsequentSource</title>
<g id="a_node27"><a xlink:href="/develop/Data/models.html#subsequent-source" xlink:title="SubsequentSource" target="_top">
<polygon fill="#eeefff" stroke="#dddeee" points="853.39,-815 737.64,-815 737.64,-779 853.39,-779 853.39,-815"/>
<text text-anchor="middle" x="795.51" y="-791.95" font-family="Times,serif" font-size="14.00">SubsequentSource</text>
</a>
</g>
</g>
<!-- Topic -->
<g id="node28" class="node">
<title>Topic</title>
<g id="a_node28"><a xlink:href="/develop/Data/models.html#topic" xlink:title="Topic" target="_top">
<polygon fill="#eeefff" stroke="#dddeee" points="476.26,-894 422.26,-894 422.26,-858 476.26,-858 476.26,-894"/>
<text text-anchor="middle" x="449.26" y="-870.95" font-family="Times,serif" font-size="14.00">Topic</text>
</a>
</g>
</g>
<!-- Uri -->
<g id="node29" class="node">
<title>Uri</title>
<g id="a_node29"><a xlink:href="/develop/Data/models.html#uri" xlink:title="Uri" target="_top">
<polygon fill="#eeefff" stroke="#dddeee" points="476.26,-746 422.26,-746 422.26,-710 476.26,-710 476.26,-746"/>
<text text-anchor="middle" x="449.26" y="-722.95" font-family="Times,serif" font-size="14.00">Uri</text>
</a>
</g>
</g>
<!-- Uuid -->
<g id="node30" class="node">
<title>Uuid</title>
<g id="a_node30"><a xlink:href="/develop/Data/models.html#uuid" xlink:title="Uuid" target="_top">
<polygon fill="#eeefff" stroke="#dddeee" points="476.26,-654 422.26,-654 422.26,-618 476.26,-618 476.26,-654"/>
<text text-anchor="middle" x="449.26" y="-630.95" font-family="Times,serif" font-size="14.00">Uuid</text>
</a>
</g>
</g>
<!-- VerifierRole -->
<g id="node31" class="node">
<title>VerifierRole</title>
<g id="a_node31"><a xlink:href="/develop/Data/models.html#verifier-role" xlink:title="VerifierRole" target="_top">
<polygon fill="#eeefff" stroke="#dddeee" points="490.64,-398 407.89,-398 407.89,-362 490.64,-362 490.64,-398"/>
<text text-anchor="middle" x="449.26" y="-374.95" font-family="Times,serif" font-size="14.00">VerifierRole</text>
</a>
</g>
</g>
<!-- Verifier -->
<g id="node32" class="node">
<title>Verifier</title>
<g id="a_node32"><a xlink:href="/develop/Data/models.html#verifier" xlink:title="Verifier" target="_top">
<polygon fill="#eeefff" stroke="#dddeee" points="669.39,-371 612.14,-371 612.14,-335 669.39,-335 669.39,-371"/>
<text text-anchor="middle" x="640.76" y="-347.95" font-family="Times,serif" font-size="14.00">Verifier</text>
</a>
</g>
</g>
<!-- Creator -->
<g id="node33" class="node">
<title>Creator</title>
<g id="a_node33"><a xlink:href="/develop/Data/models.html#creator" xlink:title="Creator" target="_top">
<polygon fill="#eeefff" stroke="#dddeee" points="669.01,-562 612.51,-562 612.51,-526 669.01,-526 669.01,-562"/>
<text text-anchor="middle" x="640.76" y="-538.95" font-family="Times,serif" font-size="14.00">Creator</text>
</a>
</g>
</g>
<!-- Project -->
<g id="node34" class="node">
<title>Project</title>
<g id="a_node34"><a xlink:href="/develop/Data/models.html#project" xlink:title="Project" target="_top">
<polygon fill="#eeefff" stroke="#dddeee" points="476.39,-562 422.14,-562 422.14,-526 476.39,-526 476.39,-562"/>
<text text-anchor="middle" x="449.26" y="-538.95" font-family="Times,serif" font-size="14.00">Project</text>
</a>
</g>
</g>
<!-- Updater -->
<g id="node35" class="node">
<title>Updater</title>
<g id="a_node35"><a xlink:href="/develop/Data/models.html#updater" xlink:title="Updater" target="_top">
<polygon fill="#eeefff" stroke="#dddeee" points="825.26,-562 765.76,-562 765.76,-526 825.26,-526 825.26,-562"/>
<text text-anchor="middle" x="795.51" y="-538.95" font-family="Times,serif" font-size="14.00">Updater</text>
</a>
</g>
</g>
<!-- OriginCitation -->
<g id="node36" class="node">
<title>OriginCitation</title>
<g id="a_node36"><a xlink:href="/develop/Data/models.html#origin-citation" xlink:title="OriginCitation" target="_top">
<polygon fill="#eeefff" stroke="#dddeee" points="688.14,-719 593.39,-719 593.39,-683 688.14,-683 688.14,-719"/>
<text text-anchor="middle" x="640.76" y="-695.95" font-family="Times,serif" font-size="14.00">OriginCitation</text>
</a>
</g>
</g>
</g>
</svg>
