<?xml version="1.0" encoding="UTF-8" standalone="no"?>
<!DOCTYPE svg PUBLIC "-//W3C//DTD SVG 1.1//EN"
 "http://www.w3.org/Graphics/SVG/1.1/DTD/svg11.dtd">
<!-- Generated by graphviz version 12.2.1 (20241206.2353)
 -->
<!-- Title: Document Pages: 1 -->
<svg width="575pt" height="441pt"
 viewBox="0.00 0.00 575.01 441.40" xmlns="http://www.w3.org/2000/svg" xmlns:xlink="http://www.w3.org/1999/xlink">
<g id="graph0" class="graph" transform="scale(1 1) rotate(0) translate(4 437.4)">
<title>Document</title>
<polygon fill="white" stroke="none" points="-4,4 -4,-437.4 571.01,-437.4 571.01,4 -4,4"/>
<!-- Tag&#45;&gt;Keyword -->
<g id="edge3" class="edge">
<title>Tag&#45;&gt;Keyword</title>
<path fill="none" stroke="black" stroke-dasharray="1,5" d="M72.65,-142.52C91.58,-142.24 117.52,-141.86 139.52,-141.54"/>
<polygon fill="black" stroke="black" points="139.48,-145.04 149.43,-141.4 139.38,-138.04 139.48,-145.04"/>
</g>
<!-- Document&#45;&gt;Identifier -->
<g id="edge2" class="edge">
<title>Document&#45;&gt;Identifier</title>
<path fill="none" stroke="black" d="M141.97,-214.89C125.34,-221.32 106.16,-228.73 89.36,-235.23"/>
<polygon fill="black" stroke="black" points="88.19,-231.93 80.12,-238.8 90.71,-238.46 88.19,-231.93"/>
</g>
<!-- Document&#45;&gt;Tag -->
<g id="edge8" class="edge">
<title>Document&#45;&gt;Tag</title>
<path fill="none" stroke="black" d="M143.19,-182.51C122.95,-174.24 98.69,-164.33 79.5,-156.5"/>
<polygon fill="black" stroke="black" points="80.84,-153.26 70.26,-152.72 78.19,-159.74 80.84,-153.26"/>
</g>
<!-- Document&#45;&gt;Note -->
<g id="edge4" class="edge">
<title>Document&#45;&gt;Note</title>
<path fill="none" stroke="black" d="M126.14,-198.49C112.57,-198.39 98.39,-198.28 85.8,-198.19"/>
<polygon fill="black" stroke="black" points="85.83,-194.69 75.8,-198.12 85.78,-201.69 85.83,-194.69"/>
</g>
<!-- Document&#45;&gt;Documentation -->
<g id="edge1" class="edge">
<title>Document&#45;&gt;Documentation</title>
<path fill="none" stroke="black" d="M191.48,-221.3C202.94,-259.56 230.8,-338.18 278.26,-387.9 278.84,-388.51 279.43,-389.1 280.04,-389.69"/>
<polygon fill="black" stroke="black" points="277.53,-392.16 287.49,-395.77 281.96,-386.74 277.53,-392.16"/>
</g>
<!-- Document&#45;&gt;PinboardItem -->
<g id="edge5" class="edge">
<title>Document&#45;&gt;PinboardItem</title>
<path fill="none" stroke="black" d="M196.54,-221.36C211.82,-250.25 241.56,-300.67 278.26,-333.9 278.89,-334.48 279.54,-335.04 280.21,-335.6"/>
<polygon fill="black" stroke="black" points="278.05,-338.36 288.16,-341.52 282.23,-332.75 278.05,-338.36"/>
</g>
<!-- Document&#45;&gt;Role -->
<g id="edge6" class="edge">
<title>Document&#45;&gt;Role</title>
<path fill="none" stroke="black" d="M207.88,-221C226.03,-238.17 252.66,-262 278.26,-279.9 282.36,-282.77 286.78,-285.57 291.25,-288.22"/>
<polygon fill="black" stroke="black" points="289.22,-291.09 299.64,-293 292.68,-285.01 289.22,-291.09"/>
</g>
<!-- Document&#45;&gt;Uri -->
<g id="edge9" class="edge">
<title>Document&#45;&gt;Uri</title>
<path fill="none" stroke="black" d="M226.77,-214.67C246.83,-222.3 270.73,-231.39 290.19,-238.8"/>
<polygon fill="black" stroke="black" points="288.77,-242 299.36,-242.29 291.26,-235.46 288.77,-242"/>
</g>
<!-- Document&#45;&gt;Uuid -->
<g id="edge10" class="edge">
<title>Document&#45;&gt;Uuid</title>
<path fill="none" stroke="black" d="M242.66,-198.9C258.4,-198.9 275.08,-198.9 289.43,-198.9"/>
<polygon fill="black" stroke="black" points="289.35,-202.4 299.35,-198.9 289.35,-195.4 289.35,-202.4"/>
</g>
<!-- Document&#45;&gt;VerifierRole -->
<g id="edge11" class="edge">
<title>Document&#45;&gt;VerifierRole</title>
<path fill="none" stroke="black" d="M226.77,-183.14C242.21,-177.27 259.91,-170.53 276.12,-164.36"/>
<polygon fill="black" stroke="black" points="277,-167.77 285.1,-160.95 274.51,-161.23 277,-167.77"/>
</g>
<!-- Document&#45;&gt;Creator -->
<g id="edge13" class="edge">
<title>Document&#45;&gt;Creator</title>
<path fill="none" stroke="black" stroke-dasharray="5,2" d="M232.28,-175.64C235.79,-173.21 239.17,-170.63 242.26,-167.9 262.8,-149.79 256.54,-134.58 278.26,-117.9 315.97,-88.94 334.15,-97.64 378.26,-79.9 390.17,-75.11 403.24,-69.61 414.42,-64.83"/>
<polygon fill="black" stroke="black" points="230.62,-172.55 224.04,-180.86 234.36,-178.46 230.62,-172.55"/>
</g>
<!-- Document&#45;&gt;Project -->
<g id="edge14" class="edge">
<title>Document&#45;&gt;Project</title>
<path fill="none" stroke="black" stroke-dasharray="5,2" d="M233.54,-175.88C236.69,-173.43 239.64,-170.77 242.26,-167.9 269.39,-138.23 252.33,-115.64 278.26,-84.9 284.48,-77.53 292.84,-71.22 300.88,-66.2"/>
<polygon fill="black" stroke="black" points="231.78,-172.85 225.53,-181.4 235.75,-178.61 231.78,-172.85"/>
</g>
<!-- Document&#45;&gt;Updater -->
<g id="edge15" class="edge">
<title>Document&#45;&gt;Updater</title>
<path fill="none" stroke="black" stroke-dasharray="5,2" d="M234.61,-175.88C237.43,-173.45 240.02,-170.79 242.26,-167.9 282.19,-116.48 226.88,-65.89 278.26,-25.9 345.79,26.65 455.2,-13.68 507.12,-37.97"/>
<polygon fill="black" stroke="black" points="232.8,-172.87 226.84,-181.63 236.96,-178.5 232.8,-172.87"/>
</g>
<!-- Documentation&#45;&gt;Source -->
<g id="edge7" class="edge">
<title>Documentation&#45;&gt;Source</title>
<path fill="none" stroke="black" stroke-dasharray="1,5" d="M378.66,-414.9C387.16,-414.9 395.87,-414.9 404,-414.9"/>
<polygon fill="black" stroke="black" points="403.9,-418.4 413.9,-414.9 403.9,-411.4 403.9,-418.4"/>
</g>
<!-- Role&#45;&gt;Verifier -->
<!-- VerifierRole&#45;&gt;Verifier -->
<g id="edge12" class="edge">
<title>VerifierRole&#45;&gt;Verifier</title>
<path fill="none" stroke="black" stroke-dasharray="1,5" d="M364.83,-163.4C369.44,-166.11 374.02,-168.98 378.26,-171.9 390.47,-180.32 403.08,-190.64 413.83,-199.99"/>
<polygon fill="black" stroke="black" points="411.43,-202.54 421.23,-206.55 416.07,-197.3 411.43,-202.54"/>
</g>
<!-- Creator&#45;&gt;Updater -->
<!-- Project&#45;&gt;Creator -->
<!-- Identifier -->
<g id="node1" class="node">
<title>Identifier</title>
<g id="a_node1"><a xlink:href="/develop/Data/models.html#identifier" xlink:title="Identifier" target="_top">
<ellipse fill="#abcdef" stroke="#dddeee" cx="45.21" cy="-251.9" rx="45.21" ry="18"/>
<text text-anchor="middle" x="45.21" y="-246.85" font-family="Times,serif" font-size="14.00">Identifier</text>
</a>
</g>
</g>
<!-- Tag -->
<g id="node2" class="node">
<title>Tag</title>
<g id="a_node2"><a xlink:href="/develop/Data/models.html#tag" xlink:title="Tag" target="_top">
<ellipse fill="#abcdef" stroke="#dddeee" cx="45.21" cy="-142.9" rx="27" ry="18"/>
<text text-anchor="middle" x="45.21" y="-137.85" font-family="Times,serif" font-size="14.00">Tag</text>
</a>
</g>
</g>
<!-- Note -->
<g id="node3" class="node">
<title>Note</title>
<g id="a_node3"><a xlink:href="/develop/Data/models.html#note" xlink:title="Note" target="_top">
<ellipse fill="#abcdef" stroke="#dddeee" cx="45.21" cy="-197.9" rx="28.83" ry="18"/>
<text text-anchor="middle" x="45.21" y="-192.85" font-family="Times,serif" font-size="14.00">Note</text>
</a>
</g>
</g>
<!-- Source -->
<g id="node4" class="node">
<title>Source</title>
<g id="a_node4"><a xlink:href="/develop/Data/models.html#source" xlink:title="Source" target="_top">
<path fill="#fedcba" stroke="#dddeee" d="M427.89,-396.9C427.89,-396.9 457.89,-396.9 457.89,-396.9 463.89,-396.9 469.89,-402.9 469.89,-408.9 469.89,-408.9 469.89,-420.9 469.89,-420.9 469.89,-426.9 463.89,-432.9 457.89,-432.9 457.89,-432.9 427.89,-432.9 427.89,-432.9 421.89,-432.9 415.89,-426.9 415.89,-420.9 415.89,-420.9 415.89,-408.9 415.89,-408.9 415.89,-402.9 421.89,-396.9 427.89,-396.9"/>
<text text-anchor="middle" x="442.89" y="-410.1" font-family="Times,serif" font-size="14.00">Source</text>
</a>
</g>
</g>
<!-- Document -->
<g id="node5" class="node">
<title>Document</title>
<g id="a_node5"><a xlink:href="/develop/Data/models.html#document" xlink:title="Document" target="_top">
<polygon fill="#cdefab" stroke="#dedede" points="238.26,-191.45 238.26,-206.36 206.67,-216.9 162.01,-216.9 130.42,-206.36 130.42,-191.45 162.01,-180.9 206.67,-180.9 238.26,-191.45"/>
<polygon fill="none" stroke="#dedede" points="242.26,-188.57 242.26,-209.24 207.32,-220.9 161.36,-220.9 126.42,-209.24 126.42,-188.57 161.36,-176.9 207.32,-176.9 242.26,-188.57"/>
<text text-anchor="middle" x="184.34" y="-193.85" font-family="Times,serif" font-size="14.00">Document</text>
</a>
</g>
</g>
<!-- Documentation -->
<g id="node6" class="node">
<title>Documentation</title>
<g id="a_node6"><a xlink:href="/develop/Data/models.html#documentation" xlink:title="Documentation" target="_top">
<polygon fill="#eeefff" stroke="#dddeee" points="378.26,-432.9 278.26,-432.9 278.26,-396.9 378.26,-396.9 378.26,-432.9"/>
<text text-anchor="middle" x="328.26" y="-409.85" font-family="Times,serif" font-size="14.00">Documentation</text>
</a>
</g>
</g>
<!-- Keyword -->
<g id="node7" class="node">
<title>Keyword</title>
<g id="a_node7"><a xlink:href="/develop/Data/models.html#keyword" xlink:title="Keyword" target="_top">
<polygon fill="#eeefff" stroke="#dddeee" points="217.46,-158.9 151.21,-158.9 151.21,-122.9 217.46,-122.9 217.46,-158.9"/>
<text text-anchor="middle" x="184.34" y="-135.85" font-family="Times,serif" font-size="14.00">Keyword</text>
</a>
</g>
</g>
<!-- PinboardItem -->
<g id="node8" class="node">
<title>PinboardItem</title>
<g id="a_node8"><a xlink:href="/develop/Data/models.html#pinboard-item" xlink:title="PinboardItem" target="_top">
<polygon fill="#eeefff" stroke="#dddeee" points="373.39,-378.9 283.14,-378.9 283.14,-342.9 373.39,-342.9 373.39,-378.9"/>
<text text-anchor="middle" x="328.26" y="-355.85" font-family="Times,serif" font-size="14.00">PinboardItem</text>
</a>
</g>
</g>
<!-- Role -->
<g id="node9" class="node">
<title>Role</title>
<g id="a_node9"><a xlink:href="/develop/Data/models.html#role" xlink:title="Role" target="_top">
<polygon fill="#eeefff" stroke="#dddeee" points="355.26,-324.9 301.26,-324.9 301.26,-288.9 355.26,-288.9 355.26,-324.9"/>
<text text-anchor="middle" x="328.26" y="-301.85" font-family="Times,serif" font-size="14.00">Role</text>
</a>
</g>
</g>
<!-- Uri -->
<g id="node10" class="node">
<title>Uri</title>
<g id="a_node10"><a xlink:href="/develop/Data/models.html#uri" xlink:title="Uri" target="_top">
<polygon fill="#eeefff" stroke="#dddeee" points="355.26,-270.9 301.26,-270.9 301.26,-234.9 355.26,-234.9 355.26,-270.9"/>
<text text-anchor="middle" x="328.26" y="-247.85" font-family="Times,serif" font-size="14.00">Uri</text>
</a>
</g>
</g>
<!-- Uuid -->
<g id="node11" class="node">
<title>Uuid</title>
<g id="a_node11"><a xlink:href="/develop/Data/models.html#uuid" xlink:title="Uuid" target="_top">
<polygon fill="#eeefff" stroke="#dddeee" points="355.26,-216.9 301.26,-216.9 301.26,-180.9 355.26,-180.9 355.26,-216.9"/>
<text text-anchor="middle" x="328.26" y="-193.85" font-family="Times,serif" font-size="14.00">Uuid</text>
</a>
</g>
</g>
<!-- VerifierRole -->
<g id="node12" class="node">
<title>VerifierRole</title>
<g id="a_node12"><a xlink:href="/develop/Data/models.html#verifier-role" xlink:title="VerifierRole" target="_top">
<polygon fill="#eeefff" stroke="#dddeee" points="369.64,-162.9 286.89,-162.9 286.89,-126.9 369.64,-126.9 369.64,-162.9"/>
<text text-anchor="middle" x="328.26" y="-139.85" font-family="Times,serif" font-size="14.00">VerifierRole</text>
</a>
</g>
</g>
<!-- Verifier -->
<g id="node13" class="node">
<title>Verifier</title>
<g id="a_node13"><a xlink:href="/develop/Data/models.html#verifier" xlink:title="Verifier" target="_top">
<polygon fill="#eeefff" stroke="#dddeee" points="471.51,-243.9 414.26,-243.9 414.26,-207.9 471.51,-207.9 471.51,-243.9"/>
<text text-anchor="middle" x="442.89" y="-220.85" font-family="Times,serif" font-size="14.00">Verifier</text>
</a>
</g>
</g>
<!-- Creator -->
<g id="node14" class="node">
<title>Creator</title>
<g id="a_node14"><a xlink:href="/develop/Data/models.html#creator" xlink:title="Creator" target="_top">
<polygon fill="#eeefff" stroke="#dddeee" points="471.14,-70.9 414.64,-70.9 414.64,-34.9 471.14,-34.9 471.14,-70.9"/>
<text text-anchor="middle" x="442.89" y="-47.85" font-family="Times,serif" font-size="14.00">Creator</text>
</a>
</g>
</g>
<!-- Project -->
<g id="node15" class="node">
<title>Project</title>
<g id="a_node15"><a xlink:href="/develop/Data/models.html#project" xlink:title="Project" target="_top">
<polygon fill="#eeefff" stroke="#dddeee" points="355.39,-70.9 301.14,-70.9 301.14,-34.9 355.39,-34.9 355.39,-70.9"/>
<text text-anchor="middle" x="328.26" y="-47.85" font-family="Times,serif" font-size="14.00">Project</text>
</a>
</g>
</g>
<!-- Updater -->
<g id="node16" class="node">
<title>Updater</title>
<g id="a_node16"><a xlink:href="/develop/Data/models.html#updater" xlink:title="Updater" target="_top">
<polygon fill="#eeefff" stroke="#dddeee" points="567.01,-70.9 507.51,-70.9 507.51,-34.9 567.01,-34.9 567.01,-70.9"/>
<text text-anchor="middle" x="537.26" y="-47.85" font-family="Times,serif" font-size="14.00">Updater</text>
</a>
</g>
</g>
</g>
</svg>
