<?xml version="1.0" encoding="UTF-8" standalone="no"?>
<!DOCTYPE svg PUBLIC "-//W3C//DTD SVG 1.1//EN"
 "http://www.w3.org/Graphics/SVG/1.1/DTD/svg11.dtd">
<!-- Generated by graphviz version 12.2.1 (20241206.2353)
 -->
<!-- Title: Download Pages: 1 -->
<svg width="438pt" height="272pt"
 viewBox="0.00 0.00 437.73 271.97" xmlns="http://www.w3.org/2000/svg" xmlns:xlink="http://www.w3.org/1999/xlink">
<g id="graph0" class="graph" transform="scale(1 1) rotate(0) translate(4 267.97)">
<title>Download</title>
<polygon fill="white" stroke="none" points="-4,4 -4,-267.97 433.73,-267.97 433.73,4 -4,4"/>
<!-- Download&#45;&gt;PinboardItem -->
<g id="edge1" class="edge">
<title>Download&#45;&gt;PinboardItem</title>
<path fill="none" stroke="black" d="M75.09,-137.42C92.43,-159.75 121.1,-194.18 150.73,-218.97 151.52,-219.63 152.32,-220.28 153.13,-220.92"/>
<polygon fill="black" stroke="black" points="150.91,-223.63 161.05,-226.68 155.02,-217.97 150.91,-223.63"/>
</g>
<!-- Download&#45;&gt;Role -->
<g id="edge2" class="edge">
<title>Download&#45;&gt;Role</title>
<path fill="none" stroke="black" d="M91.41,-133.61C111.75,-145.09 137.83,-159.8 158.72,-171.59"/>
<polygon fill="black" stroke="black" points="156.76,-174.5 167.19,-176.37 160.2,-168.4 156.76,-174.5"/>
</g>
<!-- Download&#45;&gt;VerifierRole -->
<g id="edge3" class="edge">
<title>Download&#45;&gt;VerifierRole</title>
<path fill="none" stroke="black" d="M115.07,-124.53C124.34,-126.09 133.9,-127.7 143.04,-129.24"/>
<polygon fill="black" stroke="black" points="142.41,-132.69 152.86,-130.9 143.58,-125.78 142.41,-132.69"/>
</g>
<!-- Download&#45;&gt;Creator -->
<g id="edge5" class="edge">
<title>Download&#45;&gt;Creator</title>
<path fill="none" stroke="black" stroke-dasharray="5,2" d="M125.99,-102.37C160.76,-95.15 203.57,-85.11 240.98,-72.97 253.08,-69.05 266.07,-63.74 277.14,-58.88"/>
<polygon fill="black" stroke="black" points="125.59,-98.88 116.49,-104.31 126.99,-105.74 125.59,-98.88"/>
</g>
<!-- Download&#45;&gt;Project -->
<g id="edge6" class="edge">
<title>Download&#45;&gt;Project</title>
<path fill="none" stroke="black" stroke-dasharray="5,2" d="M103.74,-92.03C125.22,-81.18 150.11,-68.59 168.45,-59.32"/>
<polygon fill="black" stroke="black" points="102.21,-88.89 94.87,-96.52 105.37,-95.13 102.21,-88.89"/>
</g>
<!-- Download&#45;&gt;Updater -->
<g id="edge7" class="edge">
<title>Download&#45;&gt;Updater</title>
<path fill="none" stroke="black" stroke-dasharray="5,2" d="M78.21,-83.59C94.56,-60.91 120.01,-32.05 150.73,-18.97 225.78,12.96 254.26,-2.97 334.23,-18.97 346.29,-21.39 358.92,-26.1 369.78,-30.92"/>
<polygon fill="black" stroke="black" points="75.46,-81.42 72.63,-91.63 81.21,-85.41 75.46,-81.42"/>
</g>
<!-- Role&#45;&gt;Verifier -->
<!-- VerifierRole&#45;&gt;Verifier -->
<g id="edge4" class="edge">
<title>VerifierRole&#45;&gt;Verifier</title>
<path fill="none" stroke="black" stroke-dasharray="1,5" d="M237.59,-148.18C246.73,-150.47 256.4,-152.89 265.47,-155.17"/>
<polygon fill="black" stroke="black" points="264.53,-158.54 275.08,-157.57 266.23,-151.75 264.53,-158.54"/>
</g>
<!-- Creator&#45;&gt;Updater -->
<!-- Project&#45;&gt;Creator -->
<!-- Download -->
<g id="node1" class="node">
<title>Download</title>
<g id="a_node1"><a xlink:href="/develop/Data/models.html#download" xlink:title="Download" target="_top">
<polygon fill="#cdefab" stroke="#dedede" points="110.73,-107.52 110.73,-122.43 79.47,-132.97 35.26,-132.97 4,-122.43 4,-107.52 35.26,-96.97 79.47,-96.97 110.73,-107.52"/>
<polygon fill="none" stroke="#dedede" points="114.73,-104.65 114.73,-125.3 80.13,-136.97 34.6,-136.97 0,-125.3 0,-104.65 34.6,-92.97 80.13,-92.97 114.73,-104.65"/>
<text text-anchor="middle" x="57.37" y="-109.92" font-family="Times,serif" font-size="14.00">Download</text>
</a>
</g>
</g>
<!-- PinboardItem -->
<g id="node2" class="node">
<title>PinboardItem</title>
<g id="a_node2"><a xlink:href="/develop/Data/models.html#pinboard-item" xlink:title="PinboardItem" target="_top">
<polygon fill="#eeefff" stroke="#dddeee" points="240.98,-263.97 150.73,-263.97 150.73,-227.97 240.98,-227.97 240.98,-263.97"/>
<text text-anchor="middle" x="195.86" y="-240.92" font-family="Times,serif" font-size="14.00">PinboardItem</text>
</a>
</g>
</g>
<!-- Role -->
<g id="node3" class="node">
<title>Role</title>
<g id="a_node3"><a xlink:href="/develop/Data/models.html#role" xlink:title="Role" target="_top">
<polygon fill="#eeefff" stroke="#dddeee" points="222.86,-209.97 168.86,-209.97 168.86,-173.97 222.86,-173.97 222.86,-209.97"/>
<text text-anchor="middle" x="195.86" y="-186.92" font-family="Times,serif" font-size="14.00">Role</text>
</a>
</g>
</g>
<!-- VerifierRole -->
<g id="node4" class="node">
<title>VerifierRole</title>
<g id="a_node4"><a xlink:href="/develop/Data/models.html#verifier-role" xlink:title="VerifierRole" target="_top">
<polygon fill="#eeefff" stroke="#dddeee" points="237.23,-155.97 154.48,-155.97 154.48,-119.97 237.23,-119.97 237.23,-155.97"/>
<text text-anchor="middle" x="195.86" y="-132.92" font-family="Times,serif" font-size="14.00">VerifierRole</text>
</a>
</g>
</g>
<!-- Verifier -->
<g id="node5" class="node">
<title>Verifier</title>
<g id="a_node5"><a xlink:href="/develop/Data/models.html#verifier" xlink:title="Verifier" target="_top">
<polygon fill="#eeefff" stroke="#dddeee" points="334.23,-182.97 276.98,-182.97 276.98,-146.97 334.23,-146.97 334.23,-182.97"/>
<text text-anchor="middle" x="305.61" y="-159.92" font-family="Times,serif" font-size="14.00">Verifier</text>
</a>
</g>
</g>
<!-- Creator -->
<g id="node6" class="node">
<title>Creator</title>
<g id="a_node6"><a xlink:href="/develop/Data/models.html#creator" xlink:title="Creator" target="_top">
<polygon fill="#eeefff" stroke="#dddeee" points="333.86,-63.97 277.36,-63.97 277.36,-27.97 333.86,-27.97 333.86,-63.97"/>
<text text-anchor="middle" x="305.61" y="-40.92" font-family="Times,serif" font-size="14.00">Creator</text>
</a>
</g>
</g>
<!-- Project -->
<g id="node7" class="node">
<title>Project</title>
<g id="a_node7"><a xlink:href="/develop/Data/models.html#project" xlink:title="Project" target="_top">
<polygon fill="#eeefff" stroke="#dddeee" points="222.98,-63.97 168.73,-63.97 168.73,-27.97 222.98,-27.97 222.98,-63.97"/>
<text text-anchor="middle" x="195.86" y="-40.92" font-family="Times,serif" font-size="14.00">Project</text>
</a>
</g>
</g>
<!-- Updater -->
<g id="node8" class="node">
<title>Updater</title>
<g id="a_node8"><a xlink:href="/develop/Data/models.html#updater" xlink:title="Updater" target="_top">
<polygon fill="#eeefff" stroke="#dddeee" points="429.73,-63.97 370.23,-63.97 370.23,-27.97 429.73,-27.97 429.73,-63.97"/>
<text text-anchor="middle" x="399.98" y="-40.92" font-family="Times,serif" font-size="14.00">Updater</text>
</a>
</g>
</g>
</g>
</svg>
