<?xml version="1.0" encoding="UTF-8" standalone="no"?>
<!DOCTYPE svg PUBLIC "-//W3C//DTD SVG 1.1//EN"
 "http://www.w3.org/Graphics/SVG/1.1/DTD/svg11.dtd">
<!-- Generated by graphviz version 12.2.1 (20241206.2353)
 -->
<!-- Title: Extract Pages: 1 -->
<svg width="913pt" height="1615pt"
 viewBox="0.00 0.00 913.18 1615.42" xmlns="http://www.w3.org/2000/svg" xmlns:xlink="http://www.w3.org/1999/xlink">
<g id="graph0" class="graph" transform="scale(1 1) rotate(0) translate(4 1611.42)">
<title>Extract</title>
<polygon fill="white" stroke="none" points="-4,4 -4,-1611.42 909.18,-1611.42 909.18,4 -4,4"/>
<!-- Citation&#45;&gt;Source -->
<g id="edge36" class="edge">
<title>Citation&#45;&gt;Source</title>
<path fill="none" stroke="black" stroke-dasharray="1,5" d="M129.52,-1534.42C198.23,-1534.42 338.16,-1534.42 405.22,-1534.42"/>
<polygon fill="black" stroke="black" points="404.96,-1537.92 414.96,-1534.42 404.96,-1530.92 404.96,-1537.92"/>
</g>
<!-- Citation&#45;&gt;CitationTopic -->
<g id="edge1" class="edge">
<title>Citation&#45;&gt;CitationTopic</title>
<path fill="none" stroke="black" stroke-dasharray="1,5" d="M122.63,-1544.63C147.48,-1552.35 182.16,-1563.11 211.3,-1572.15"/>
<polygon fill="black" stroke="black" points="210.12,-1575.45 220.71,-1575.08 212.2,-1568.77 210.12,-1575.45"/>
</g>
<!-- Confidence&#45;&gt;ConfidenceLevel -->
<g id="edge4" class="edge">
<title>Confidence&#45;&gt;ConfidenceLevel</title>
<path fill="none" stroke="black" stroke-dasharray="1,5" d="M142.4,-726.12C161.08,-726.02 182.32,-725.9 201.91,-725.79"/>
<polygon fill="black" stroke="black" points="201.72,-729.29 211.7,-725.73 201.68,-722.29 201.72,-729.29"/>
</g>
<!-- Tag&#45;&gt;Keyword -->
<g id="edge16" class="edge">
<title>Tag&#45;&gt;Keyword</title>
<path fill="none" stroke="black" stroke-dasharray="1,5" d="M115.86,-671.42C144.02,-671.42 189.32,-671.42 222.97,-671.42"/>
<polygon fill="black" stroke="black" points="222.83,-674.92 232.83,-671.42 222.83,-667.92 222.83,-674.92"/>
</g>
<!-- ProtocolRelationship&#45;&gt;Protocol -->
<g id="edge32" class="edge">
<title>ProtocolRelationship&#45;&gt;Protocol</title>
<path fill="none" stroke="black" stroke-dasharray="1,5" d="M177.8,-617.42C194.36,-617.42 210.94,-617.42 225.24,-617.42"/>
<polygon fill="black" stroke="black" points="225.14,-620.92 235.14,-617.42 225.14,-613.92 225.14,-620.92"/>
</g>
<!-- Observation&#45;&gt;Descriptor -->
<g id="edge9" class="edge">
<title>Observation&#45;&gt;Descriptor</title>
<path fill="none" stroke="black" stroke-dasharray="1,5" d="M485.07,-1256.42C517.52,-1256.42 563.14,-1256.42 597.24,-1256.42"/>
<polygon fill="black" stroke="black" points="596.81,-1259.92 606.81,-1256.42 596.81,-1252.92 596.81,-1259.92"/>
</g>
<!-- Observation&#45;&gt;ObservationMatrix -->
<!-- Source&#45;&gt;SubsequentCitation -->
<!-- Source&#45;&gt;OriginCitation -->
<!-- Extract&#45;&gt;Citation -->
<g id="edge2" class="edge">
<title>Extract&#45;&gt;Citation</title>
<path fill="none" stroke="black" d="M261.7,-805.58C236.25,-913.41 125.48,-1382.86 96.61,-1505.19"/>
<polygon fill="black" stroke="black" points="93.24,-1504.22 94.35,-1514.75 100.06,-1505.82 93.24,-1504.22"/>
</g>
<!-- Extract&#45;&gt;Confidence -->
<g id="edge5" class="edge">
<title>Extract&#45;&gt;Confidence</title>
<path fill="none" stroke="black" d="M228.17,-770.82C212.43,-765.71 194.06,-759.77 177.43,-754.42 165.07,-750.44 151.72,-746.17 139.26,-742.19"/>
<polygon fill="black" stroke="black" points="140.62,-738.95 130.03,-739.25 138.49,-745.62 140.62,-738.95"/>
</g>
<!-- Extract&#45;&gt;DataAttribute -->
<g id="edge6" class="edge">
<title>Extract&#45;&gt;DataAttribute</title>
<path fill="none" stroke="black" d="M226.45,-795.29C202.05,-802.45 170.66,-811.67 144.11,-819.46"/>
<polygon fill="black" stroke="black" points="143.13,-816.1 134.52,-822.27 145.1,-822.81 143.13,-816.1"/>
</g>
<!-- Extract&#45;&gt;Identifier -->
<g id="edge13" class="edge">
<title>Extract&#45;&gt;Identifier</title>
<path fill="none" stroke="black" d="M222.92,-782.92C199.4,-782.66 170.22,-782.33 145.16,-782.04"/>
<polygon fill="black" stroke="black" points="145.53,-778.55 135.49,-781.94 145.45,-785.55 145.53,-778.55"/>
</g>
<!-- Extract&#45;&gt;Tag -->
<g id="edge39" class="edge">
<title>Extract&#45;&gt;Tag</title>
<path fill="none" stroke="black" d="M234.75,-767.91C227.29,-763.49 219.71,-758.27 213.43,-752.42 192.58,-733.02 200.24,-716.46 177.43,-699.42 162.65,-688.38 143.38,-681.61 126.66,-677.49"/>
<polygon fill="black" stroke="black" points="127.58,-674.11 117.06,-675.38 126.07,-680.95 127.58,-674.11"/>
</g>
<!-- Extract&#45;&gt;ProtocolRelationship -->
<g id="edge31" class="edge">
<title>Extract&#45;&gt;ProtocolRelationship</title>
<path fill="none" stroke="black" d="M232.97,-768.71C225.75,-764.32 218.72,-758.91 213.43,-752.42 181.47,-713.19 213.62,-679.78 177.43,-644.42 173.74,-640.81 169.58,-637.69 165.13,-634.98"/>
<polygon fill="black" stroke="black" points="166.81,-631.91 156.33,-630.39 163.58,-638.12 166.81,-631.91"/>
</g>
<!-- Extract&#45;&gt;Observation -->
<g id="edge20" class="edge">
<title>Extract&#45;&gt;Observation</title>
<path fill="none" stroke="black" d="M270.5,-805.67C276.63,-886.62 301.52,-1164.08 358.43,-1228.42 367.04,-1238.15 379.11,-1244.51 391.44,-1248.66"/>
<polygon fill="black" stroke="black" points="390.22,-1251.95 400.8,-1251.35 392.15,-1245.23 390.22,-1251.95"/>
</g>
<!-- Extract&#45;&gt;Source -->
<g id="edge53" class="edge">
<title>Extract&#45;&gt;Source</title>
<path fill="none" stroke="black" stroke-dasharray="1,5" d="M268.71,-816.2C268.5,-942.03 273.77,-1392.51 358.43,-1501.42 370.03,-1516.35 389.35,-1524.53 406.56,-1529.02"/>
<polygon fill="none" stroke="black" points="264.74,-806.2 272.74,-806.22 272.71,-814.22 264.71,-814.2 264.74,-806.2"/>
<polyline fill="none" stroke="black" points="268.71,-814.21 268.71,-816.21"/>
<polygon fill="none" stroke="black" points="416.78,-1527.24 415.01,-1535.04 407.2,-1533.27 408.98,-1525.46 416.78,-1527.24"/>
<polyline fill="none" stroke="black" points="408.09,-1529.36 406.14,-1528.92"/>
</g>
<!-- Extract&#45;&gt;RelatedOriginRelationship -->
<g id="edge33" class="edge">
<title>Extract&#45;&gt;RelatedOriginRelationship</title>
<path fill="none" stroke="black" d="M312.72,-778.78C371.4,-776.21 476.98,-775.48 553.27,-776.78"/>
<polygon fill="black" stroke="black" points="553.2,-780.28 563.26,-776.97 553.33,-773.28 553.2,-780.28"/>
</g>
<!-- Extract&#45;&gt;OriginRelationship -->
<g id="edge27" class="edge">
<title>Extract&#45;&gt;OriginRelationship</title>
<path fill="none" stroke="black" d="M307.92,-771.08C327.27,-764.95 351.22,-757.37 373.54,-750.3"/>
<polygon fill="black" stroke="black" points="374.42,-753.7 382.9,-747.34 372.31,-747.02 374.42,-753.7"/>
</g>
<!-- Extract&#45;&gt;ExtractorRole -->
<g id="edge10" class="edge">
<title>Extract&#45;&gt;ExtractorRole</title>
<path fill="none" stroke="black" d="M301.22,-768.03C308.67,-763.61 316.22,-758.36 322.43,-752.42 335.75,-739.66 395.81,-641.83 425.68,-592.57"/>
<polygon fill="black" stroke="black" points="428.6,-594.51 430.79,-584.14 422.62,-590.88 428.6,-594.51"/>
</g>
<!-- Extract&#45;&gt;ImportAttribute -->
<g id="edge14" class="edge">
<title>Extract&#45;&gt;ImportAttribute</title>
<path fill="none" stroke="black" d="M303.92,-769.11C311,-764.73 317.72,-759.21 322.43,-752.42 377.59,-672.77 295.03,-610.69 358.43,-537.42 364.71,-530.16 372.95,-524.83 381.82,-520.93"/>
<polygon fill="black" stroke="black" points="382.87,-524.27 391.02,-517.5 380.42,-517.71 382.87,-524.27"/>
</g>
<!-- Extract&#45;&gt;InternalAttribute -->
<g id="edge15" class="edge">
<title>Extract&#45;&gt;InternalAttribute</title>
<path fill="none" stroke="black" d="M304.08,-769.22C311.16,-764.83 317.83,-759.29 322.43,-752.42 389.47,-652.14 281.01,-575.92 358.43,-483.42 364.11,-476.63 371.51,-471.53 379.56,-467.7"/>
<polygon fill="black" stroke="black" points="380.64,-471.03 388.62,-464.06 378.04,-464.54 380.64,-471.03"/>
</g>
<!-- Extract&#45;&gt;ObservationMatrixRow -->
<g id="edge19" class="edge">
<title>Extract&#45;&gt;ObservationMatrixRow</title>
<path fill="none" stroke="black" d="M271.08,-805.7C278.43,-876.62 305.1,-1094.92 358.43,-1136.42 427.05,-1189.81 534.86,-1157.92 596.61,-1132.17"/>
<polygon fill="black" stroke="black" points="597.64,-1135.53 605.45,-1128.38 594.88,-1129.1 597.64,-1135.53"/>
</g>
<!-- Extract&#45;&gt;ObservationMatrixRowItem -->
<g id="edge18" class="edge">
<title>Extract&#45;&gt;ObservationMatrixRowItem</title>
<path fill="none" stroke="black" d="M280.87,-805.83C311.6,-863.48 393.38,-1016.92 427.45,-1080.84"/>
<polygon fill="black" stroke="black" points="424.36,-1082.49 432.15,-1089.67 430.53,-1079.19 424.36,-1082.49"/>
</g>
<!-- Extract&#45;&gt;PinboardItem -->
<g id="edge30" class="edge">
<title>Extract&#45;&gt;PinboardItem</title>
<path fill="none" stroke="black" d="M304.19,-769.3C311.27,-764.9 317.91,-759.34 322.43,-752.42 401.38,-631.46 266.95,-541.2 358.43,-429.42 365.87,-420.32 376.4,-414.25 387.49,-410.21"/>
<polygon fill="black" stroke="black" points="388.24,-413.64 396.78,-407.37 386.19,-406.95 388.24,-413.64"/>
</g>
<!-- Extract&#45;&gt;Role -->
<g id="edge34" class="edge">
<title>Extract&#45;&gt;Role</title>
<path fill="none" stroke="black" d="M304.44,-769.46C311.51,-765.05 318.08,-759.45 322.43,-752.42 390.01,-643.16 279.51,-276.79 358.43,-175.42 369.47,-161.24 388.01,-154.38 404.9,-151.11"/>
<polygon fill="black" stroke="black" points="405.36,-154.58 414.71,-149.61 404.3,-147.66 405.36,-154.58"/>
</g>
<!-- Extract&#45;&gt;SubsequentCitation -->
<g id="edge37" class="edge">
<title>Extract&#45;&gt;SubsequentCitation</title>
<path fill="none" stroke="black" d="M270.25,-805.56C277.17,-917.73 310.63,-1419.85 358.43,-1468.42 387.5,-1497.96 498.18,-1506.86 572.98,-1509.46"/>
<polygon fill="black" stroke="black" points="572.58,-1512.95 582.69,-1509.77 572.8,-1505.96 572.58,-1512.95"/>
</g>
<!-- Extract&#45;&gt;Uri -->
<g id="edge41" class="edge">
<title>Extract&#45;&gt;Uri</title>
<path fill="none" stroke="black" d="M304.37,-769.41C311.44,-765.01 318.03,-759.42 322.43,-752.42 378.05,-663.92 293.63,-365.44 358.43,-283.42 369.57,-269.32 388.12,-262.47 404.99,-259.18"/>
<polygon fill="black" stroke="black" points="405.44,-262.65 414.79,-257.67 404.37,-255.74 405.44,-262.65"/>
</g>
<!-- Extract&#45;&gt;Uuid -->
<g id="edge42" class="edge">
<title>Extract&#45;&gt;Uuid</title>
<path fill="none" stroke="black" d="M304.41,-769.43C311.47,-765.03 318.06,-759.43 322.43,-752.42 384.03,-653.54 286.57,-321.11 358.43,-229.42 369.51,-215.27 388.06,-208.42 404.94,-205.14"/>
<polygon fill="black" stroke="black" points="405.4,-208.61 414.75,-203.63 404.33,-201.7 405.4,-208.61"/>
</g>
<!-- Extract&#45;&gt;VerifierRole -->
<g id="edge43" class="edge">
<title>Extract&#45;&gt;VerifierRole</title>
<path fill="none" stroke="black" d="M304.47,-769.47C311.53,-765.07 318.1,-759.46 322.43,-752.42 396,-632.78 272.44,-232.47 358.43,-121.42 366.43,-111.09 378.41,-104.64 390.86,-100.64"/>
<polygon fill="black" stroke="black" points="391.6,-104.06 400.35,-98.1 389.79,-97.3 391.6,-104.06"/>
</g>
<!-- Extract&#45;&gt;Creator -->
<g id="edge45" class="edge">
<title>Extract&#45;&gt;Creator</title>
<path fill="none" stroke="black" stroke-dasharray="5,2" d="M313.45,-762.63C316.9,-759.61 319.99,-756.22 322.43,-752.42 367.87,-681.58 302.72,-438.5 358.43,-375.42 409.81,-317.22 453.24,-354.71 528.93,-337.42 559.01,-330.55 593.45,-322.46 616.81,-316.94"/>
<polygon fill="black" stroke="black" points="311.49,-759.72 305.49,-768.45 315.63,-765.37 311.49,-759.72"/>
</g>
<!-- Extract&#45;&gt;Project -->
<g id="edge46" class="edge">
<title>Extract&#45;&gt;Project</title>
<path fill="none" stroke="black" stroke-dasharray="5,2" d="M313.48,-762.65C316.92,-759.63 320,-756.23 322.43,-752.42 371.52,-675.25 303.24,-415.36 358.43,-342.42 372.02,-324.45 396.98,-316.57 416.21,-313.12"/>
<polygon fill="black" stroke="black" points="311.52,-759.74 305.53,-768.48 315.66,-765.38 311.52,-759.74"/>
</g>
<!-- Extract&#45;&gt;Repository -->
<g id="edge47" class="edge">
<title>Extract&#45;&gt;Repository</title>
<path fill="none" stroke="black" stroke-dasharray="5,2" d="M269.36,-817.15C271.52,-933.61 284.22,-1316.7 358.43,-1409.42 369.96,-1423.83 388.76,-1431.76 405.68,-1436.11"/>
<polygon fill="black" stroke="black" points="272.87,-817.27 269.2,-807.33 265.87,-817.39 272.87,-817.27"/>
</g>
<!-- Extract&#45;&gt;Updater -->
<g id="edge48" class="edge">
<title>Extract&#45;&gt;Updater</title>
<path fill="none" stroke="black" stroke-dasharray="5,2" d="M313.62,-762.73C317.04,-759.7 320.07,-756.27 322.43,-752.42 362.2,-687.41 303.14,-119.88 358.43,-67.42 477.15,45.23 592.86,1.22 725.68,-94.42 794.25,-143.79 821.07,-249.73 829.33,-292.23"/>
<polygon fill="black" stroke="black" points="311.67,-759.83 305.71,-768.59 315.83,-765.45 311.67,-759.83"/>
</g>
<!-- Extract&#45;&gt;Container -->
<g id="edge49" class="edge">
<title>Extract&#45;&gt;Container</title>
<path fill="none" stroke="black" stroke-dasharray="1,5" d="M270.23,-816C275.01,-919.68 294.73,-1239.76 358.43,-1317.42 368.6,-1329.82 384.14,-1337.42 399.12,-1342.08"/>
<polygon fill="none" stroke="black" points="265.81,-806.5 273.8,-806.14 274.15,-814.13 266.16,-814.49 265.81,-806.5"/>
<polyline fill="none" stroke="black" points="270.16,-814.31 270.25,-816.31"/>
<polygon fill="none" stroke="black" points="409.39,-1340.75 407.28,-1348.46 399.56,-1346.35 401.67,-1338.63 409.39,-1340.75"/>
<polyline fill="none" stroke="black" points="400.62,-1342.49 398.69,-1341.96"/>
</g>
<!-- Extract&#45;&gt;ContainerItem -->
<g id="edge50" class="edge">
<title>Extract&#45;&gt;ContainerItem</title>
<path fill="none" stroke="black" d="M270.21,-816.24C274.82,-916.44 293.84,-1215.67 358.43,-1283.42 412.07,-1339.68 453.19,-1304.9 528.93,-1322.42 547.95,-1326.82 568.73,-1331.67 587.35,-1336.03"/>
<polygon fill="none" stroke="black" points="265.78,-806.51 273.77,-806.16 274.13,-814.15 266.13,-814.5 265.78,-806.51"/>
<polyline fill="none" stroke="black" points="270.13,-814.33 270.22,-816.33"/>
<polygon fill="none" stroke="black" points="597.87,-1334.39 596.04,-1342.18 588.25,-1340.35 590.08,-1332.56 597.87,-1334.39"/>
<polyline fill="none" stroke="black" points="589.17,-1336.46 587.22,-1336"/>
</g>
<!-- Extract&#45;&gt;OriginCitation -->
<g id="edge51" class="edge">
<title>Extract&#45;&gt;OriginCitation</title>
<path fill="none" stroke="black" d="M269.18,-816.22C270.74,-928.37 281.71,-1294.17 358.43,-1376.42 411.38,-1433.19 453.24,-1397.13 528.93,-1414.42 547.96,-1418.77 568.75,-1423.6 587.36,-1427.97"/>
<polygon fill="none" stroke="black" points="265.06,-806.43 273.06,-806.33 273.16,-814.33 265.16,-814.43 265.06,-806.43"/>
<polyline fill="none" stroke="black" points="269.16,-814.38 269.18,-816.38"/>
<polygon fill="none" stroke="black" points="597.88,-1426.33 596.05,-1434.12 588.27,-1432.29 590.09,-1424.5 597.88,-1426.33"/>
<polyline fill="none" stroke="black" points="589.18,-1428.39 587.23,-1427.94"/>
</g>
<!-- Extract&#45;&gt;ParentContainerItem -->
<g id="edge52" class="edge">
<title>Extract&#45;&gt;ParentContainerItem</title>
<path fill="none" stroke="black" stroke-dasharray="1,5" d="M272.54,-816.02C282.34,-899.13 311.88,-1116.11 358.43,-1169.42 361.88,-1173.37 365.87,-1176.83 370.2,-1179.87"/>
<polygon fill="none" stroke="black" points="267.42,-806.62 275.37,-805.7 276.29,-813.65 268.34,-814.57 267.42,-806.62"/>
<polyline fill="none" stroke="black" points="272.31,-814.11 272.54,-816.09"/>
<polygon fill="none" stroke="black" points="380.56,-1181.53 376.37,-1188.35 369.55,-1184.17 373.74,-1177.35 380.56,-1181.53"/>
<polyline fill="none" stroke="black" points="371.64,-1180.76 369.94,-1179.71"/>
</g>
<!-- CitationTopic&#45;&gt;Topic -->
<g id="edge40" class="edge">
<title>CitationTopic&#45;&gt;Topic</title>
<path fill="none" stroke="black" stroke-dasharray="1,5" d="M313.67,-1589.42C341.96,-1589.42 378.12,-1589.42 404.95,-1589.42"/>
<polygon fill="black" stroke="black" points="404.68,-1592.92 414.68,-1589.42 404.68,-1585.92 404.68,-1592.92"/>
</g>
<!-- RelatedOriginRelationship&#45;&gt;CollectionObject -->
<g id="edge3" class="edge">
<title>RelatedOriginRelationship&#45;&gt;CollectionObject</title>
<path fill="none" stroke="black" stroke-dasharray="1,5" d="M650.09,-800.77C660.23,-845.49 692.1,-961.21 761.68,-1026.42 764.07,-1028.66 766.67,-1030.73 769.4,-1032.65"/>
<polygon fill="black" stroke="black" points="767.49,-1035.58 777.86,-1037.77 771.12,-1029.6 767.49,-1035.58"/>
</g>
<!-- RelatedOriginRelationship&#45;&gt;Otu -->
<g id="edge29" class="edge">
<title>RelatedOriginRelationship&#45;&gt;Otu</title>
<path fill="none" stroke="black" stroke-dasharray="1,5" d="M652.85,-800.7C667.03,-837.88 704.04,-922.89 761.68,-971.42 771.33,-979.54 783.62,-985.5 795.24,-989.78"/>
<polygon fill="black" stroke="black" points="794.04,-993.07 804.64,-992.91 796.25,-986.43 794.04,-993.07"/>
</g>
<!-- RelatedOriginRelationship&#45;&gt;Extract -->
<g id="edge12" class="edge">
<title>RelatedOriginRelationship&#45;&gt;Extract</title>
<path fill="none" stroke="black" stroke-dasharray="1,5" d="M564.78,-788.26C492.45,-790.15 387.59,-790.2 324.08,-788.22"/>
<polygon fill="black" stroke="black" points="324.35,-784.73 314.23,-787.88 324.11,-791.72 324.35,-784.73"/>
</g>
<!-- RelatedOriginRelationship&#45;&gt;OriginCollectionObject -->
<g id="edge21" class="edge">
<title>RelatedOriginRelationship&#45;&gt;OriginCollectionObject</title>
<path fill="none" stroke="black" stroke-dasharray="1,5" d="M657.54,-800.69C675.99,-829.29 715.31,-884.73 761.68,-917.42 763.23,-918.51 764.83,-919.57 766.47,-920.59"/>
<polygon fill="black" stroke="black" points="764.47,-923.48 774.9,-925.29 767.88,-917.36 764.47,-923.48"/>
</g>
<!-- RelatedOriginRelationship&#45;&gt;OriginExtract -->
<g id="edge22" class="edge">
<title>RelatedOriginRelationship&#45;&gt;OriginExtract</title>
<path fill="none" stroke="black" stroke-dasharray="1,5" d="M668.64,-800.63C691.13,-818.34 727.31,-845.16 761.68,-863.42 766.7,-866.09 772.05,-868.62 777.46,-871"/>
<polygon fill="black" stroke="black" points="775.93,-874.15 786.5,-874.77 778.62,-867.69 775.93,-874.15"/>
</g>
<!-- RelatedOriginRelationship&#45;&gt;OriginFieldOccurrence -->
<g id="edge23" class="edge">
<title>RelatedOriginRelationship&#45;&gt;OriginFieldOccurrence</title>
<path fill="none" stroke="black" stroke-dasharray="1,5" d="M709.83,-800.85C725.32,-805.34 742.03,-810.19 757.97,-814.82"/>
<polygon fill="black" stroke="black" points="756.83,-818.13 767.41,-817.56 758.78,-811.41 756.83,-818.13"/>
</g>
<!-- RelatedOriginRelationship&#45;&gt;OriginLot -->
<g id="edge24" class="edge">
<title>RelatedOriginRelationship&#45;&gt;OriginLot</title>
<path fill="none" stroke="black" stroke-dasharray="1,5" d="M726.05,-782.42C746.77,-782.42 768.39,-782.42 786.68,-782.42"/>
<polygon fill="black" stroke="black" points="786.67,-785.92 796.67,-782.42 786.67,-778.92 786.67,-785.92"/>
</g>
<!-- RelatedOriginRelationship&#45;&gt;OriginOtu -->
<g id="edge25" class="edge">
<title>RelatedOriginRelationship&#45;&gt;OriginOtu</title>
<path fill="none" stroke="black" stroke-dasharray="1,5" d="M709.83,-763.99C734.99,-756.69 763.37,-748.45 786.47,-741.75"/>
<polygon fill="black" stroke="black" points="787.28,-745.16 795.9,-739.01 785.33,-738.44 787.28,-745.16"/>
</g>
<!-- RelatedOriginRelationship&#45;&gt;OriginRangedLot -->
<g id="edge26" class="edge">
<title>RelatedOriginRelationship&#45;&gt;OriginRangedLot</title>
<path fill="none" stroke="black" stroke-dasharray="1,5" d="M712.2,-763.95C716.97,-761.44 721.52,-758.61 725.68,-755.42 748.55,-737.84 739.13,-719.41 761.68,-701.42 763.64,-699.85 765.7,-698.37 767.84,-696.97"/>
<polygon fill="black" stroke="black" points="769.4,-700.11 776.3,-692.07 765.89,-694.05 769.4,-700.11"/>
</g>
<!-- RelatedOriginRelationship&#45;&gt;OriginSpecimen -->
<g id="edge28" class="edge">
<title>RelatedOriginRelationship&#45;&gt;OriginSpecimen</title>
<path fill="none" stroke="black" stroke-dasharray="1,5" d="M715.1,-763.93C718.92,-761.44 722.5,-758.62 725.68,-755.42 761.34,-719.53 726.67,-683.95 761.68,-647.42 764.4,-644.58 767.45,-642.04 770.71,-639.76"/>
<polygon fill="black" stroke="black" points="772.28,-642.9 779.09,-634.78 768.71,-636.88 772.28,-642.9"/>
</g>
<!-- OriginRelationship&#45;&gt;Sequence -->
<g id="edge35" class="edge">
<title>OriginRelationship&#45;&gt;Sequence</title>
<path fill="none" stroke="black" stroke-dasharray="1,5" d="M503.76,-712.14C534.72,-703.61 571.98,-693.34 600.36,-685.53"/>
<polygon fill="black" stroke="black" points="600.99,-688.98 609.7,-682.95 599.13,-682.23 600.99,-688.98"/>
</g>
<!-- OriginRelationship&#45;&gt;RelatedOriginRelationship -->
<!-- OriginRelationship&#45;&gt;DerivedExtract -->
<g id="edge7" class="edge">
<title>OriginRelationship&#45;&gt;DerivedExtract</title>
<path fill="none" stroke="black" stroke-dasharray="1,5" d="M466.99,-710.19C490.29,-691.87 528.44,-663.77 564.93,-645.42 571.24,-642.24 578.02,-639.3 584.85,-636.62"/>
<polygon fill="black" stroke="black" points="586.01,-639.92 594.16,-633.14 583.57,-633.36 586.01,-639.92"/>
</g>
<!-- OriginRelationship&#45;&gt;DerivedSequence -->
<g id="edge8" class="edge">
<title>OriginRelationship&#45;&gt;DerivedSequence</title>
<path fill="none" stroke="black" stroke-dasharray="1,5" d="M503.76,-728.42C527.08,-728.42 553.97,-728.42 577.96,-728.42"/>
<polygon fill="black" stroke="black" points="577.95,-731.92 587.95,-728.42 577.95,-724.92 577.95,-731.92"/>
</g>
<!-- ExtractorRole&#45;&gt;Extractor -->
<g id="edge11" class="edge">
<title>ExtractorRole&#45;&gt;Extractor</title>
<path fill="none" stroke="black" stroke-dasharray="1,5" d="M489.97,-564.42C523.07,-564.42 567.69,-564.42 600.44,-564.42"/>
<polygon fill="black" stroke="black" points="600.42,-567.92 610.42,-564.42 600.42,-560.92 600.42,-567.92"/>
</g>
<!-- ObservationMatrixRow&#45;&gt;ObservationMatrix -->
<g id="edge17" class="edge">
<title>ObservationMatrixRow&#45;&gt;ObservationMatrix</title>
<path fill="none" stroke="black" stroke-dasharray="1,5" d="M718.26,-1109.42C732.63,-1109.42 747.71,-1109.42 762.02,-1109.42"/>
<polygon fill="black" stroke="black" points="761.8,-1112.92 771.8,-1109.42 761.8,-1105.92 761.8,-1112.92"/>
</g>
<!-- ObservationMatrixRowItem&#45;&gt;ObservationMatrixRow -->
<!-- Role&#45;&gt;Verifier -->
<!-- SubsequentCitation&#45;&gt;SubsequentSource -->
<g id="edge38" class="edge">
<title>SubsequentCitation&#45;&gt;SubsequentSource</title>
<path fill="none" stroke="black" stroke-dasharray="1,5" d="M706.47,-1510.42C724.77,-1510.42 745.01,-1510.42 763.82,-1510.42"/>
<polygon fill="black" stroke="black" points="763.8,-1513.92 773.8,-1510.42 763.8,-1506.92 763.8,-1513.92"/>
</g>
<!-- VerifierRole&#45;&gt;Verifier -->
<g id="edge44" class="edge">
<title>VerifierRole&#45;&gt;Verifier</title>
<path fill="none" stroke="black" stroke-dasharray="1,5" d="M485.07,-99.88C520.08,-104.62 570.42,-111.43 605.08,-116.11"/>
<polygon fill="black" stroke="black" points="604.3,-119.54 614.68,-117.41 605.24,-112.6 604.3,-119.54"/>
</g>
<!-- Creator&#45;&gt;Updater -->
<!-- Project&#45;&gt;Creator -->
<!-- Container&#45;&gt;ContainerItem -->
<!-- Citation -->
<g id="node1" class="node">
<title>Citation</title>
<g id="a_node1"><a xlink:href="/develop/Data/models.html#citation" xlink:title="Citation" target="_top">
<ellipse fill="#abcdef" stroke="#dddeee" cx="88.71" cy="-1534.42" rx="40.6" ry="18"/>
<text text-anchor="middle" x="88.71" y="-1529.37" font-family="Times,serif" font-size="14.00">Citation</text>
</a>
</g>
</g>
<!-- Confidence -->
<g id="node2" class="node">
<title>Confidence</title>
<g id="a_node2"><a xlink:href="/develop/Data/models.html#confidence" xlink:title="Confidence" target="_top">
<ellipse fill="#abcdef" stroke="#dddeee" cx="88.71" cy="-726.42" rx="53.4" ry="18"/>
<text text-anchor="middle" x="88.71" y="-721.37" font-family="Times,serif" font-size="14.00">Confidence</text>
</a>
</g>
</g>
<!-- DataAttribute -->
<g id="node3" class="node">
<title>DataAttribute</title>
<g id="a_node3"><a xlink:href="/develop/Data/models.html#data-attribute" xlink:title="DataAttribute" target="_top">
<ellipse fill="#abcdef" stroke="#dddeee" cx="88.71" cy="-835.42" rx="61.59" ry="18"/>
<text text-anchor="middle" x="88.71" y="-830.37" font-family="Times,serif" font-size="14.00">DataAttribute</text>
</a>
</g>
</g>
<!-- Identifier -->
<g id="node4" class="node">
<title>Identifier</title>
<g id="a_node4"><a xlink:href="/develop/Data/models.html#identifier" xlink:title="Identifier" target="_top">
<ellipse fill="#abcdef" stroke="#dddeee" cx="88.71" cy="-781.42" rx="45.21" ry="18"/>
<text text-anchor="middle" x="88.71" y="-776.37" font-family="Times,serif" font-size="14.00">Identifier</text>
</a>
</g>
</g>
<!-- Tag -->
<g id="node5" class="node">
<title>Tag</title>
<g id="a_node5"><a xlink:href="/develop/Data/models.html#tag" xlink:title="Tag" target="_top">
<ellipse fill="#abcdef" stroke="#dddeee" cx="88.71" cy="-671.42" rx="27" ry="18"/>
<text text-anchor="middle" x="88.71" y="-666.37" font-family="Times,serif" font-size="14.00">Tag</text>
</a>
</g>
</g>
<!-- ProtocolRelationship -->
<g id="node6" class="node">
<title>ProtocolRelationship</title>
<g id="a_node6"><a xlink:href="/develop/Data/models.html#protocol-relationship" xlink:title="ProtocolRelationship" target="_top">
<ellipse fill="#abcdef" stroke="#dddeee" cx="88.71" cy="-617.42" rx="88.71" ry="18"/>
<text text-anchor="middle" x="88.71" y="-612.37" font-family="Times,serif" font-size="14.00">ProtocolRelationship</text>
</a>
</g>
</g>
<!-- CollectionObject -->
<g id="node7" class="node">
<title>CollectionObject</title>
<g id="a_node7"><a xlink:href="/develop/Data/models.html#collection-object" xlink:title="CollectionObject" target="_top">
<path fill="#fedcba" stroke="#dddeee" d="M791.3,-1036.42C791.3,-1036.42 875.55,-1036.42 875.55,-1036.42 881.55,-1036.42 887.55,-1042.42 887.55,-1048.42 887.55,-1048.42 887.55,-1060.42 887.55,-1060.42 887.55,-1066.42 881.55,-1072.42 875.55,-1072.42 875.55,-1072.42 791.3,-1072.42 791.3,-1072.42 785.3,-1072.42 779.3,-1066.42 779.3,-1060.42 779.3,-1060.42 779.3,-1048.42 779.3,-1048.42 779.3,-1042.42 785.3,-1036.42 791.3,-1036.42"/>
<text text-anchor="middle" x="833.43" y="-1049.62" font-family="Times,serif" font-size="14.00">CollectionObject</text>
</a>
</g>
</g>
<!-- Observation -->
<g id="node8" class="node">
<title>Observation</title>
<g id="a_node8"><a xlink:href="/develop/Data/models.html#observation" xlink:title="Observation" target="_top">
<path fill="#fedcba" stroke="#dddeee" d="M414.68,-1238.42C414.68,-1238.42 472.68,-1238.42 472.68,-1238.42 478.68,-1238.42 484.68,-1244.42 484.68,-1250.42 484.68,-1250.42 484.68,-1262.42 484.68,-1262.42 484.68,-1268.42 478.68,-1274.42 472.68,-1274.42 472.68,-1274.42 414.68,-1274.42 414.68,-1274.42 408.68,-1274.42 402.68,-1268.42 402.68,-1262.42 402.68,-1262.42 402.68,-1250.42 402.68,-1250.42 402.68,-1244.42 408.68,-1238.42 414.68,-1238.42"/>
<text text-anchor="middle" x="443.68" y="-1251.62" font-family="Times,serif" font-size="14.00">Observation</text>
</a>
</g>
</g>
<!-- Descriptor -->
<g id="node9" class="node">
<title>Descriptor</title>
<g id="a_node9"><a xlink:href="/develop/Data/models.html#descriptor" xlink:title="Descriptor" target="_top">
<path fill="#fedcba" stroke="#dddeee" d="M620.8,-1238.42C620.8,-1238.42 669.8,-1238.42 669.8,-1238.42 675.8,-1238.42 681.8,-1244.42 681.8,-1250.42 681.8,-1250.42 681.8,-1262.42 681.8,-1262.42 681.8,-1268.42 675.8,-1274.42 669.8,-1274.42 669.8,-1274.42 620.8,-1274.42 620.8,-1274.42 614.8,-1274.42 608.8,-1268.42 608.8,-1262.42 608.8,-1262.42 608.8,-1250.42 608.8,-1250.42 608.8,-1244.42 614.8,-1238.42 620.8,-1238.42"/>
<text text-anchor="middle" x="645.3" y="-1251.62" font-family="Times,serif" font-size="14.00">Descriptor</text>
</a>
</g>
</g>
<!-- Otu -->
<g id="node10" class="node">
<title>Otu</title>
<g id="a_node10"><a xlink:href="/develop/Data/models.html#otu" xlink:title="Otu" target="_top">
<path fill="#fedcba" stroke="#dddeee" d="M818.43,-981.42C818.43,-981.42 848.43,-981.42 848.43,-981.42 854.43,-981.42 860.43,-987.42 860.43,-993.42 860.43,-993.42 860.43,-1005.42 860.43,-1005.42 860.43,-1011.42 854.43,-1017.42 848.43,-1017.42 848.43,-1017.42 818.43,-1017.42 818.43,-1017.42 812.43,-1017.42 806.43,-1011.42 806.43,-1005.42 806.43,-1005.42 806.43,-993.42 806.43,-993.42 806.43,-987.42 812.43,-981.42 818.43,-981.42"/>
<text text-anchor="middle" x="833.43" y="-994.62" font-family="Times,serif" font-size="14.00">Otu</text>
</a>
</g>
</g>
<!-- Sequence -->
<g id="node11" class="node">
<title>Sequence</title>
<g id="a_node11"><a xlink:href="/develop/Data/models.html#sequence" xlink:title="Sequence" target="_top">
<path fill="#fedcba" stroke="#dddeee" d="M623.43,-655.42C623.43,-655.42 667.18,-655.42 667.18,-655.42 673.18,-655.42 679.18,-661.42 679.18,-667.42 679.18,-667.42 679.18,-679.42 679.18,-679.42 679.18,-685.42 673.18,-691.42 667.18,-691.42 667.18,-691.42 623.43,-691.42 623.43,-691.42 617.43,-691.42 611.43,-685.42 611.43,-679.42 611.43,-679.42 611.43,-667.42 611.43,-667.42 611.43,-661.42 617.43,-655.42 623.43,-655.42"/>
<text text-anchor="middle" x="645.3" y="-668.62" font-family="Times,serif" font-size="14.00">Sequence</text>
</a>
</g>
</g>
<!-- Source -->
<g id="node12" class="node">
<title>Source</title>
<g id="a_node12"><a xlink:href="/develop/Data/models.html#source" xlink:title="Source" target="_top">
<path fill="#fedcba" stroke="#dddeee" d="M428.68,-1516.42C428.68,-1516.42 458.68,-1516.42 458.68,-1516.42 464.68,-1516.42 470.68,-1522.42 470.68,-1528.42 470.68,-1528.42 470.68,-1540.42 470.68,-1540.42 470.68,-1546.42 464.68,-1552.42 458.68,-1552.42 458.68,-1552.42 428.68,-1552.42 428.68,-1552.42 422.68,-1552.42 416.68,-1546.42 416.68,-1540.42 416.68,-1540.42 416.68,-1528.42 416.68,-1528.42 416.68,-1522.42 422.68,-1516.42 428.68,-1516.42"/>
<text text-anchor="middle" x="443.68" y="-1529.62" font-family="Times,serif" font-size="14.00">Source</text>
</a>
</g>
</g>
<!-- Extract -->
<g id="node13" class="node">
<title>Extract</title>
<g id="a_node13"><a xlink:href="/develop/Data/models.html#extract" xlink:title="Extract" target="_top">
<polygon fill="#cdefab" stroke="#dedede" points="308.55,-775.96 308.55,-790.87 284.75,-801.42 251.1,-801.42 227.3,-790.87 227.3,-775.96 251.1,-765.42 284.75,-765.42 308.55,-775.96"/>
<polygon fill="none" stroke="#dedede" points="312.55,-773.36 312.55,-793.48 285.6,-805.42 250.25,-805.42 223.3,-793.48 223.3,-773.36 250.25,-761.42 285.6,-761.42 312.55,-773.36"/>
<text text-anchor="middle" x="267.93" y="-778.37" font-family="Times,serif" font-size="14.00">Extract</text>
</a>
</g>
</g>
<!-- CitationTopic -->
<g id="node14" class="node">
<title>CitationTopic</title>
<g id="a_node14"><a xlink:href="/develop/Data/models.html#citation-topic" xlink:title="CitationTopic" target="_top">
<polygon fill="#eeefff" stroke="#dddeee" points="313.43,-1607.42 222.43,-1607.42 222.43,-1571.42 313.43,-1571.42 313.43,-1607.42"/>
<text text-anchor="middle" x="267.93" y="-1584.37" font-family="Times,serif" font-size="14.00">CitationTopic</text>
</a>
</g>
</g>
<!-- RelatedOriginRelationship -->
<g id="node15" class="node">
<title>RelatedOriginRelationship</title>
<g id="a_node15"><a xlink:href="/develop/Data/models.html#related-origin-relationship" xlink:title="RelatedOriginRelationship" target="_top">
<polygon fill="#eeefff" stroke="#dddeee" points="725.68,-800.42 564.93,-800.42 564.93,-764.42 725.68,-764.42 725.68,-800.42"/>
<text text-anchor="middle" x="645.3" y="-777.37" font-family="Times,serif" font-size="14.00">RelatedOriginRelationship</text>
</a>
</g>
</g>
<!-- ConfidenceLevel -->
<g id="node16" class="node">
<title>ConfidenceLevel</title>
<g id="a_node16"><a xlink:href="/develop/Data/models.html#confidence-level" xlink:title="ConfidenceLevel" target="_top">
<polygon fill="#eeefff" stroke="#dddeee" points="322.43,-743.42 213.43,-743.42 213.43,-707.42 322.43,-707.42 322.43,-743.42"/>
<text text-anchor="middle" x="267.93" y="-720.37" font-family="Times,serif" font-size="14.00">ConfidenceLevel</text>
</a>
</g>
</g>
<!-- OriginRelationship -->
<g id="node17" class="node">
<title>OriginRelationship</title>
<g id="a_node17"><a xlink:href="/develop/Data/models.html#origin-relationship" xlink:title="OriginRelationship" target="_top">
<polygon fill="#eeefff" stroke="#dddeee" points="503.43,-746.42 383.93,-746.42 383.93,-710.42 503.43,-710.42 503.43,-746.42"/>
<text text-anchor="middle" x="443.68" y="-723.37" font-family="Times,serif" font-size="14.00">OriginRelationship</text>
</a>
</g>
</g>
<!-- DerivedExtract -->
<g id="node18" class="node">
<title>DerivedExtract</title>
<g id="a_node18"><a xlink:href="/develop/Data/models.html#derived-extract" xlink:title="DerivedExtract" target="_top">
<polygon fill="#eeefff" stroke="#dddeee" points="694.55,-636.42 596.05,-636.42 596.05,-600.42 694.55,-600.42 694.55,-636.42"/>
<text text-anchor="middle" x="645.3" y="-613.37" font-family="Times,serif" font-size="14.00">DerivedExtract</text>
</a>
</g>
</g>
<!-- DerivedSequence -->
<g id="node19" class="node">
<title>DerivedSequence</title>
<g id="a_node19"><a xlink:href="/develop/Data/models.html#derived-sequence" xlink:title="DerivedSequence" target="_top">
<polygon fill="#eeefff" stroke="#dddeee" points="700.93,-746.42 589.68,-746.42 589.68,-710.42 700.93,-710.42 700.93,-746.42"/>
<text text-anchor="middle" x="645.3" y="-723.37" font-family="Times,serif" font-size="14.00">DerivedSequence</text>
</a>
</g>
</g>
<!-- ExtractorRole -->
<g id="node20" class="node">
<title>ExtractorRole</title>
<g id="a_node20"><a xlink:href="/develop/Data/models.html#extractor-role" xlink:title="ExtractorRole" target="_top">
<polygon fill="#eeefff" stroke="#dddeee" points="489.55,-582.42 397.8,-582.42 397.8,-546.42 489.55,-546.42 489.55,-582.42"/>
<text text-anchor="middle" x="443.68" y="-559.37" font-family="Times,serif" font-size="14.00">ExtractorRole</text>
</a>
</g>
</g>
<!-- Extractor -->
<g id="node21" class="node">
<title>Extractor</title>
<g id="a_node21"><a xlink:href="/develop/Data/models.html#extractor" xlink:title="Extractor" target="_top">
<polygon fill="#eeefff" stroke="#dddeee" points="678.43,-582.42 612.18,-582.42 612.18,-546.42 678.43,-546.42 678.43,-582.42"/>
<text text-anchor="middle" x="645.3" y="-559.37" font-family="Times,serif" font-size="14.00">Extractor</text>
</a>
</g>
</g>
<!-- ImportAttribute -->
<g id="node22" class="node">
<title>ImportAttribute</title>
<g id="a_node22"><a xlink:href="/develop/Data/models.html#import-attribute" xlink:title="ImportAttribute" target="_top">
<polygon fill="#eeefff" stroke="#dddeee" points="494.8,-528.42 392.55,-528.42 392.55,-492.42 494.8,-492.42 494.8,-528.42"/>
<text text-anchor="middle" x="443.68" y="-505.37" font-family="Times,serif" font-size="14.00">ImportAttribute</text>
</a>
</g>
</g>
<!-- InternalAttribute -->
<g id="node23" class="node">
<title>InternalAttribute</title>
<g id="a_node23"><a xlink:href="/develop/Data/models.html#internal-attribute" xlink:title="InternalAttribute" target="_top">
<polygon fill="#eeefff" stroke="#dddeee" points="497.05,-474.42 390.3,-474.42 390.3,-438.42 497.05,-438.42 497.05,-474.42"/>
<text text-anchor="middle" x="443.68" y="-451.37" font-family="Times,serif" font-size="14.00">InternalAttribute</text>
</a>
</g>
</g>
<!-- Keyword -->
<g id="node24" class="node">
<title>Keyword</title>
<g id="a_node24"><a xlink:href="/develop/Data/models.html#keyword" xlink:title="Keyword" target="_top">
<polygon fill="#eeefff" stroke="#dddeee" points="301.05,-689.42 234.8,-689.42 234.8,-653.42 301.05,-653.42 301.05,-689.42"/>
<text text-anchor="middle" x="267.93" y="-666.37" font-family="Times,serif" font-size="14.00">Keyword</text>
</a>
</g>
</g>
<!-- ObservationMatrixRow -->
<g id="node25" class="node">
<title>ObservationMatrixRow</title>
<g id="a_node25"><a xlink:href="/develop/Data/models.html#observation-matrix-row" xlink:title="ObservationMatrixRow" target="_top">
<polygon fill="#eeefff" stroke="#dddeee" points="717.8,-1127.42 572.8,-1127.42 572.8,-1091.42 717.8,-1091.42 717.8,-1127.42"/>
<text text-anchor="middle" x="645.3" y="-1104.37" font-family="Times,serif" font-size="14.00">ObservationMatrixRow</text>
</a>
</g>
</g>
<!-- ObservationMatrix -->
<g id="node26" class="node">
<title>ObservationMatrix</title>
<g id="a_node26"><a xlink:href="/develop/Data/models.html#observation-matrix" xlink:title="ObservationMatrix" target="_top">
<polygon fill="#eeefff" stroke="#dddeee" points="893.18,-1127.42 773.68,-1127.42 773.68,-1091.42 893.18,-1091.42 893.18,-1127.42"/>
<text text-anchor="middle" x="833.43" y="-1104.37" font-family="Times,serif" font-size="14.00">ObservationMatrix</text>
</a>
</g>
</g>
<!-- ObservationMatrixRowItem -->
<g id="node27" class="node">
<title>ObservationMatrixRowItem</title>
<g id="a_node27"><a xlink:href="/develop/Data/models.html#observation-matrix-row-item" xlink:title="ObservationMatrixRowItem" target="_top">
<polygon fill="#eeefff" stroke="#dddeee" points="528.93,-1127.42 358.43,-1127.42 358.43,-1091.42 528.93,-1091.42 528.93,-1127.42"/>
<text text-anchor="middle" x="443.68" y="-1104.37" font-family="Times,serif" font-size="14.00">ObservationMatrixRowItem</text>
</a>
</g>
</g>
<!-- OriginCollectionObject -->
<g id="node28" class="node">
<title>OriginCollectionObject</title>
<g id="a_node28"><a xlink:href="/develop/Data/models.html#origin-collection-object" xlink:title="OriginCollectionObject" target="_top">
<polygon fill="#eeefff" stroke="#dddeee" points="905.18,-962.42 761.68,-962.42 761.68,-926.42 905.18,-926.42 905.18,-962.42"/>
<text text-anchor="middle" x="833.43" y="-939.37" font-family="Times,serif" font-size="14.00">OriginCollectionObject</text>
</a>
</g>
</g>
<!-- OriginExtract -->
<g id="node29" class="node">
<title>OriginExtract</title>
<g id="a_node29"><a xlink:href="/develop/Data/models.html#origin-extract" xlink:title="OriginExtract" target="_top">
<polygon fill="#eeefff" stroke="#dddeee" points="878.55,-908.42 788.3,-908.42 788.3,-872.42 878.55,-872.42 878.55,-908.42"/>
<text text-anchor="middle" x="833.43" y="-885.37" font-family="Times,serif" font-size="14.00">OriginExtract</text>
</a>
</g>
</g>
<!-- OriginFieldOccurrence -->
<g id="node30" class="node">
<title>OriginFieldOccurrence</title>
<g id="a_node30"><a xlink:href="/develop/Data/models.html#origin-field-occurrence" xlink:title="OriginFieldOccurrence" target="_top">
<polygon fill="#eeefff" stroke="#dddeee" points="904.05,-854.42 762.8,-854.42 762.8,-818.42 904.05,-818.42 904.05,-854.42"/>
<text text-anchor="middle" x="833.43" y="-831.37" font-family="Times,serif" font-size="14.00">OriginFieldOccurrence</text>
</a>
</g>
</g>
<!-- OriginLot -->
<g id="node31" class="node">
<title>OriginLot</title>
<g id="a_node31"><a xlink:href="/develop/Data/models.html#origin-lot" xlink:title="OriginLot" target="_top">
<polygon fill="#eeefff" stroke="#dddeee" points="868.43,-800.42 798.43,-800.42 798.43,-764.42 868.43,-764.42 868.43,-800.42"/>
<text text-anchor="middle" x="833.43" y="-777.37" font-family="Times,serif" font-size="14.00">OriginLot</text>
</a>
</g>
</g>
<!-- OriginOtu -->
<g id="node32" class="node">
<title>OriginOtu</title>
<g id="a_node32"><a xlink:href="/develop/Data/models.html#origin-otu" xlink:title="OriginOtu" target="_top">
<polygon fill="#eeefff" stroke="#dddeee" points="869.18,-746.42 797.68,-746.42 797.68,-710.42 869.18,-710.42 869.18,-746.42"/>
<text text-anchor="middle" x="833.43" y="-723.37" font-family="Times,serif" font-size="14.00">OriginOtu</text>
</a>
</g>
</g>
<!-- OriginRangedLot -->
<g id="node33" class="node">
<title>OriginRangedLot</title>
<g id="a_node33"><a xlink:href="/develop/Data/models.html#origin-ranged-lot" xlink:title="OriginRangedLot" target="_top">
<polygon fill="#eeefff" stroke="#dddeee" points="889.05,-692.42 777.8,-692.42 777.8,-656.42 889.05,-656.42 889.05,-692.42"/>
<text text-anchor="middle" x="833.43" y="-669.37" font-family="Times,serif" font-size="14.00">OriginRangedLot</text>
</a>
</g>
</g>
<!-- OriginSpecimen -->
<g id="node34" class="node">
<title>OriginSpecimen</title>
<g id="a_node34"><a xlink:href="/develop/Data/models.html#origin-specimen" xlink:title="OriginSpecimen" target="_top">
<polygon fill="#eeefff" stroke="#dddeee" points="886.05,-638.42 780.8,-638.42 780.8,-602.42 886.05,-602.42 886.05,-638.42"/>
<text text-anchor="middle" x="833.43" y="-615.37" font-family="Times,serif" font-size="14.00">OriginSpecimen</text>
</a>
</g>
</g>
<!-- PinboardItem -->
<g id="node35" class="node">
<title>PinboardItem</title>
<g id="a_node35"><a xlink:href="/develop/Data/models.html#pinboard-item" xlink:title="PinboardItem" target="_top">
<polygon fill="#eeefff" stroke="#dddeee" points="488.8,-420.42 398.55,-420.42 398.55,-384.42 488.8,-384.42 488.8,-420.42"/>
<text text-anchor="middle" x="443.68" y="-397.37" font-family="Times,serif" font-size="14.00">PinboardItem</text>
</a>
</g>
</g>
<!-- Protocol -->
<g id="node36" class="node">
<title>Protocol</title>
<g id="a_node36"><a xlink:href="/develop/Data/models.html#protocol" xlink:title="Protocol" target="_top">
<polygon fill="#eeefff" stroke="#dddeee" points="298.8,-635.42 237.05,-635.42 237.05,-599.42 298.8,-599.42 298.8,-635.42"/>
<text text-anchor="middle" x="267.93" y="-612.37" font-family="Times,serif" font-size="14.00">Protocol</text>
</a>
</g>
</g>
<!-- Role -->
<g id="node37" class="node">
<title>Role</title>
<g id="a_node37"><a xlink:href="/develop/Data/models.html#role" xlink:title="Role" target="_top">
<polygon fill="#eeefff" stroke="#dddeee" points="470.68,-166.42 416.68,-166.42 416.68,-130.42 470.68,-130.42 470.68,-166.42"/>
<text text-anchor="middle" x="443.68" y="-143.37" font-family="Times,serif" font-size="14.00">Role</text>
</a>
</g>
</g>
<!-- SubsequentCitation -->
<g id="node38" class="node">
<title>SubsequentCitation</title>
<g id="a_node38"><a xlink:href="/develop/Data/models.html#subsequent-citation" xlink:title="SubsequentCitation" target="_top">
<polygon fill="#eeefff" stroke="#dddeee" points="706.18,-1528.42 584.43,-1528.42 584.43,-1492.42 706.18,-1492.42 706.18,-1528.42"/>
<text text-anchor="middle" x="645.3" y="-1505.37" font-family="Times,serif" font-size="14.00">SubsequentCitation</text>
</a>
</g>
</g>
<!-- SubsequentSource -->
<g id="node39" class="node">
<title>SubsequentSource</title>
<g id="a_node39"><a xlink:href="/develop/Data/models.html#subsequent-source" xlink:title="SubsequentSource" target="_top">
<polygon fill="#eeefff" stroke="#dddeee" points="891.3,-1528.42 775.55,-1528.42 775.55,-1492.42 891.3,-1492.42 891.3,-1528.42"/>
<text text-anchor="middle" x="833.43" y="-1505.37" font-family="Times,serif" font-size="14.00">SubsequentSource</text>
</a>
</g>
</g>
<!-- Topic -->
<g id="node40" class="node">
<title>Topic</title>
<g id="a_node40"><a xlink:href="/develop/Data/models.html#topic" xlink:title="Topic" target="_top">
<polygon fill="#eeefff" stroke="#dddeee" points="470.68,-1607.42 416.68,-1607.42 416.68,-1571.42 470.68,-1571.42 470.68,-1607.42"/>
<text text-anchor="middle" x="443.68" y="-1584.37" font-family="Times,serif" font-size="14.00">Topic</text>
</a>
</g>
</g>
<!-- Uri -->
<g id="node41" class="node">
<title>Uri</title>
<g id="a_node41"><a xlink:href="/develop/Data/models.html#uri" xlink:title="Uri" target="_top">
<polygon fill="#eeefff" stroke="#dddeee" points="470.68,-274.42 416.68,-274.42 416.68,-238.42 470.68,-238.42 470.68,-274.42"/>
<text text-anchor="middle" x="443.68" y="-251.37" font-family="Times,serif" font-size="14.00">Uri</text>
</a>
</g>
</g>
<!-- Uuid -->
<g id="node42" class="node">
<title>Uuid</title>
<g id="a_node42"><a xlink:href="/develop/Data/models.html#uuid" xlink:title="Uuid" target="_top">
<polygon fill="#eeefff" stroke="#dddeee" points="470.68,-220.42 416.68,-220.42 416.68,-184.42 470.68,-184.42 470.68,-220.42"/>
<text text-anchor="middle" x="443.68" y="-197.37" font-family="Times,serif" font-size="14.00">Uuid</text>
</a>
</g>
</g>
<!-- VerifierRole -->
<g id="node43" class="node">
<title>VerifierRole</title>
<g id="a_node43"><a xlink:href="/develop/Data/models.html#verifier-role" xlink:title="VerifierRole" target="_top">
<polygon fill="#eeefff" stroke="#dddeee" points="485.05,-112.42 402.3,-112.42 402.3,-76.42 485.05,-76.42 485.05,-112.42"/>
<text text-anchor="middle" x="443.68" y="-89.37" font-family="Times,serif" font-size="14.00">VerifierRole</text>
</a>
</g>
</g>
<!-- Verifier -->
<g id="node44" class="node">
<title>Verifier</title>
<g id="a_node44"><a xlink:href="/develop/Data/models.html#verifier" xlink:title="Verifier" target="_top">
<polygon fill="#eeefff" stroke="#dddeee" points="673.93,-139.42 616.68,-139.42 616.68,-103.42 673.93,-103.42 673.93,-139.42"/>
<text text-anchor="middle" x="645.3" y="-116.37" font-family="Times,serif" font-size="14.00">Verifier</text>
</a>
</g>
</g>
<!-- Creator -->
<g id="node45" class="node">
<title>Creator</title>
<g id="a_node45"><a xlink:href="/develop/Data/models.html#creator" xlink:title="Creator" target="_top">
<polygon fill="#eeefff" stroke="#dddeee" points="673.55,-328.42 617.05,-328.42 617.05,-292.42 673.55,-292.42 673.55,-328.42"/>
<text text-anchor="middle" x="645.3" y="-305.37" font-family="Times,serif" font-size="14.00">Creator</text>
</a>
</g>
</g>
<!-- Project -->
<g id="node46" class="node">
<title>Project</title>
<g id="a_node46"><a xlink:href="/develop/Data/models.html#project" xlink:title="Project" target="_top">
<polygon fill="#eeefff" stroke="#dddeee" points="470.8,-328.42 416.55,-328.42 416.55,-292.42 470.8,-292.42 470.8,-328.42"/>
<text text-anchor="middle" x="443.68" y="-305.37" font-family="Times,serif" font-size="14.00">Project</text>
</a>
</g>
</g>
<!-- Repository -->
<g id="node47" class="node">
<title>Repository</title>
<g id="a_node47"><a xlink:href="/develop/Data/models.html#repository" xlink:title="Repository" target="_top">
<polygon fill="#eeefff" stroke="#dddeee" points="481.3,-1459.42 406.05,-1459.42 406.05,-1423.42 481.3,-1423.42 481.3,-1459.42"/>
<text text-anchor="middle" x="443.68" y="-1436.37" font-family="Times,serif" font-size="14.00">Repository</text>
</a>
</g>
</g>
<!-- Updater -->
<g id="node48" class="node">
<title>Updater</title>
<g id="a_node48"><a xlink:href="/develop/Data/models.html#updater" xlink:title="Updater" target="_top">
<polygon fill="#eeefff" stroke="#dddeee" points="863.18,-328.42 803.68,-328.42 803.68,-292.42 863.18,-292.42 863.18,-328.42"/>
<text text-anchor="middle" x="833.43" y="-305.37" font-family="Times,serif" font-size="14.00">Updater</text>
</a>
</g>
</g>
<!-- Container -->
<g id="node49" class="node">
<title>Container</title>
<g id="a_node49"><a xlink:href="/develop/Data/models.html#container" xlink:title="Container" target="_top">
<polygon fill="#eeefff" stroke="#dddeee" points="478.3,-1367.42 409.05,-1367.42 409.05,-1331.42 478.3,-1331.42 478.3,-1367.42"/>
<text text-anchor="middle" x="443.68" y="-1344.37" font-family="Times,serif" font-size="14.00">Container</text>
</a>
</g>
</g>
<!-- ContainerItem -->
<g id="node50" class="node">
<title>ContainerItem</title>
<g id="a_node50"><a xlink:href="/develop/Data/models.html#container-item" xlink:title="ContainerItem" target="_top">
<polygon fill="#eeefff" stroke="#dddeee" points="692.68,-1367.42 597.93,-1367.42 597.93,-1331.42 692.68,-1331.42 692.68,-1367.42"/>
<text text-anchor="middle" x="645.3" y="-1344.37" font-family="Times,serif" font-size="14.00">ContainerItem</text>
</a>
</g>
</g>
<!-- OriginCitation -->
<g id="node51" class="node">
<title>OriginCitation</title>
<g id="a_node51"><a xlink:href="/develop/Data/models.html#origin-citation" xlink:title="OriginCitation" target="_top">
<polygon fill="#eeefff" stroke="#dddeee" points="692.68,-1459.42 597.93,-1459.42 597.93,-1423.42 692.68,-1423.42 692.68,-1459.42"/>
<text text-anchor="middle" x="645.3" y="-1436.37" font-family="Times,serif" font-size="14.00">OriginCitation</text>
</a>
</g>
</g>
<!-- ParentContainerItem -->
<g id="node52" class="node">
<title>ParentContainerItem</title>
<g id="a_node52"><a xlink:href="/develop/Data/models.html#parent-container-item" xlink:title="ParentContainerItem" target="_top">
<polygon fill="#eeefff" stroke="#dddeee" points="508.3,-1219.42 379.05,-1219.42 379.05,-1183.42 508.3,-1183.42 508.3,-1219.42"/>
<text text-anchor="middle" x="443.68" y="-1196.37" font-family="Times,serif" font-size="14.00">ParentContainerItem</text>
</a>
</g>
</g>
</g>
</svg>
