<?xml version="1.0" encoding="UTF-8" standalone="no"?>
<!DOCTYPE svg PUBLIC "-//W3C//DTD SVG 1.1//EN"
 "http://www.w3.org/Graphics/SVG/1.1/DTD/svg11.dtd">
<!-- Generated by graphviz version 12.2.1 (20241206.2353)
 -->
<!-- Title: Gazetteer Pages: 1 -->
<svg width="801pt" height="686pt"
 viewBox="0.00 0.00 800.64 686.00" xmlns="http://www.w3.org/2000/svg" xmlns:xlink="http://www.w3.org/1999/xlink">
<g id="graph0" class="graph" transform="scale(1 1) rotate(0) translate(4 682)">
<title>Gazetteer</title>
<polygon fill="white" stroke="none" points="-4,4 -4,-682 796.64,-682 796.64,4 -4,4"/>
<!-- AlternateValue&#45;&gt;AlternateValueLanguage -->
<g id="edge1" class="edge">
<title>AlternateValue&#45;&gt;AlternateValueLanguage</title>
<path fill="none" stroke="black" stroke-dasharray="1,5" d="M132.48,-396.37C140.35,-396.42 148.48,-396.46 156.6,-396.51"/>
<polygon fill="black" stroke="black" points="156.49,-400.01 166.51,-396.57 156.53,-393.01 156.49,-400.01"/>
</g>
<!-- Citation&#45;&gt;Source -->
<g id="edge12" class="edge">
<title>Citation&#45;&gt;Source</title>
<path fill="none" stroke="black" stroke-dasharray="1,5" d="M107.08,-73C175.33,-73 313.59,-73 380.26,-73"/>
<polygon fill="black" stroke="black" points="379.95,-76.5 389.95,-73 379.95,-69.5 379.95,-76.5"/>
</g>
<!-- Citation&#45;&gt;CitationTopic -->
<g id="edge4" class="edge">
<title>Citation&#45;&gt;CitationTopic</title>
<path fill="none" stroke="black" stroke-dasharray="1,5" d="M100.17,-62.65C124.62,-54.98 158.52,-44.35 187.11,-35.38"/>
<polygon fill="black" stroke="black" points="187.83,-38.82 196.33,-32.49 185.74,-32.14 187.83,-38.82"/>
</g>
<!-- Source&#45;&gt;SubsequentCitation -->
<!-- Source&#45;&gt;OriginCitation -->
<!-- Gazetteer&#45;&gt;AlternateValue -->
<g id="edge2" class="edge">
<title>Gazetteer&#45;&gt;AlternateValue</title>
<path fill="none" stroke="black" d="M198.94,-353.17C175.18,-360.89 145.58,-370.51 120.46,-378.68"/>
<polygon fill="black" stroke="black" points="119.5,-375.31 111.07,-381.73 121.67,-381.97 119.5,-375.31"/>
</g>
<!-- Gazetteer&#45;&gt;Citation -->
<g id="edge5" class="edge">
<title>Gazetteer&#45;&gt;Citation</title>
<path fill="none" stroke="black" d="M227.83,-316.72C195.74,-268.04 119.49,-152.34 84.85,-99.79"/>
<polygon fill="black" stroke="black" points="87.96,-98.14 79.53,-91.72 82.11,-101.99 87.96,-98.14"/>
</g>
<!-- Gazetteer&#45;&gt;DataAttribute -->
<g id="edge6" class="edge">
<title>Gazetteer&#45;&gt;DataAttribute</title>
<path fill="none" stroke="black" d="M189.1,-339.3C173.43,-339.39 156.02,-339.49 139.39,-339.59"/>
<polygon fill="black" stroke="black" points="139.51,-336.09 129.53,-339.64 139.55,-343.09 139.51,-336.09"/>
</g>
<!-- Gazetteer&#45;&gt;Note -->
<g id="edge9" class="edge">
<title>Gazetteer&#45;&gt;Note</title>
<path fill="none" stroke="black" d="M197.62,-325.43C168.36,-316.58 130.68,-305.19 103.35,-296.93"/>
<polygon fill="black" stroke="black" points="104.72,-293.69 94.14,-294.14 102.69,-300.39 104.72,-293.69"/>
</g>
<!-- Gazetteer&#45;&gt;AssertedDistribution -->
<g id="edge3" class="edge">
<title>Gazetteer&#45;&gt;AssertedDistribution</title>
<path fill="none" stroke="black" d="M297.95,-347.63C312.28,-349.94 328.04,-352.49 343.29,-354.95"/>
<polygon fill="black" stroke="black" points="342.35,-358.35 352.78,-356.49 343.47,-351.44 342.35,-358.35"/>
</g>
<!-- Gazetteer&#45;&gt;Source -->
<g id="edge23" class="edge">
<title>Gazetteer&#45;&gt;Source</title>
<path fill="none" stroke="black" stroke-dasharray="1,5" d="M252.62,-306.67C266.3,-257.84 298.16,-164.75 354.64,-106 362.31,-98.02 372.34,-91.58 382.15,-86.59"/>
<polygon fill="none" stroke="black" points="253.89,-317.24 246.17,-315.14 248.27,-307.42 255.99,-309.52 253.89,-317.24"/>
<polyline fill="none" stroke="black" points="252.13,-308.47 252.66,-306.54"/>
<polygon fill="none" stroke="black" points="389.24,-78.84 392.64,-86.08 385.4,-89.48 382,-82.24 389.24,-78.84"/>
<polyline fill="none" stroke="black" points="383.7,-85.86 381.89,-86.71"/>
</g>
<!-- Gazetteer&#45;&gt;ImportAttribute -->
<g id="edge7" class="edge">
<title>Gazetteer&#45;&gt;ImportAttribute</title>
<path fill="none" stroke="black" d="M297.95,-330.68C316.32,-327.82 337.05,-324.59 356.04,-321.63"/>
<polygon fill="black" stroke="black" points="356.46,-325.11 365.8,-320.11 355.38,-318.19 356.46,-325.11"/>
</g>
<!-- Gazetteer&#45;&gt;InternalAttribute -->
<g id="edge8" class="edge">
<title>Gazetteer&#45;&gt;InternalAttribute</title>
<path fill="none" stroke="black" d="M278.52,-321.75C300.17,-310.91 328.89,-296.8 354.64,-285 357.54,-283.67 360.52,-282.33 363.54,-280.98"/>
<polygon fill="black" stroke="black" points="364.73,-284.28 372.48,-277.05 361.92,-277.87 364.73,-284.28"/>
</g>
<!-- Gazetteer&#45;&gt;PinboardItem -->
<g id="edge10" class="edge">
<title>Gazetteer&#45;&gt;PinboardItem</title>
<path fill="none" stroke="black" d="M262.81,-316.64C283.21,-292.87 318.13,-255.42 354.64,-231 357.47,-229.1 360.46,-227.29 363.54,-225.57"/>
<polygon fill="black" stroke="black" points="364.94,-228.79 372.22,-221.09 361.73,-222.57 364.94,-228.79"/>
</g>
<!-- Gazetteer&#45;&gt;Role -->
<g id="edge11" class="edge">
<title>Gazetteer&#45;&gt;Role</title>
<path fill="none" stroke="black" d="M285.25,-354.23C296.3,-358.84 308.12,-364.23 318.64,-370 335.72,-379.37 337.59,-385.57 354.64,-395 362.96,-399.6 372.22,-403.95 381.03,-407.76"/>
<polygon fill="black" stroke="black" points="379.5,-410.91 390.07,-411.54 382.2,-404.46 379.5,-410.91"/>
</g>
<!-- Gazetteer&#45;&gt;SubsequentCitation -->
<g id="edge13" class="edge">
<title>Gazetteer&#45;&gt;SubsequentCitation</title>
<path fill="none" stroke="black" d="M252.82,-316.56C267.42,-280.58 301.26,-210.62 354.64,-177 400.06,-148.39 460.7,-140.6 507.49,-139.58"/>
<polygon fill="black" stroke="black" points="507.29,-143.08 517.25,-139.47 507.21,-136.08 507.29,-143.08"/>
</g>
<!-- Gazetteer&#45;&gt;VerifierRole -->
<g id="edge16" class="edge">
<title>Gazetteer&#45;&gt;VerifierRole</title>
<path fill="none" stroke="black" d="M290.85,-352.14C300.89,-356.59 310.82,-362.43 318.64,-370 346.35,-396.85 327.03,-422.05 354.64,-449 358.29,-452.57 362.49,-455.7 366.95,-458.44"/>
<polygon fill="black" stroke="black" points="365.22,-461.48 375.69,-463.11 368.52,-455.31 365.22,-461.48"/>
</g>
<!-- Gazetteer&#45;&gt;Creator -->
<g id="edge18" class="edge">
<title>Gazetteer&#45;&gt;Creator</title>
<path fill="none" stroke="black" stroke-dasharray="5,2" d="M302.93,-356.29C308.9,-360.02 314.34,-364.53 318.64,-370 381.26,-449.59 287.58,-519.11 354.64,-595 356.31,-596.89 491.64,-635.31 551.29,-652.18"/>
<polygon fill="black" stroke="black" points="304.99,-353.43 294.53,-351.79 301.68,-359.6 304.99,-353.43"/>
</g>
<!-- Gazetteer&#45;&gt;GeographicItem -->
<g id="edge19" class="edge">
<title>Gazetteer&#45;&gt;GeographicItem</title>
<path fill="none" stroke="black" stroke-dasharray="5,2" d="M302.64,-356.53C308.66,-360.21 314.19,-364.65 318.64,-370 366.93,-428.02 308.47,-476.27 354.64,-536 358.78,-541.36 364.06,-545.89 369.8,-549.7"/>
<polygon fill="black" stroke="black" points="304.67,-353.64 294.2,-352.05 301.39,-359.83 304.67,-353.64"/>
</g>
<!-- Gazetteer&#45;&gt;Project -->
<g id="edge20" class="edge">
<title>Gazetteer&#45;&gt;Project</title>
<path fill="none" stroke="black" stroke-dasharray="5,2" d="M303.69,-356.63C309.38,-360.28 314.55,-364.69 318.64,-370 389.32,-461.7 287.32,-533.81 354.64,-628 363.44,-640.31 378.38,-648.18 391.54,-653.03"/>
<polygon fill="black" stroke="black" points="305.48,-353.62 295.03,-351.88 302.11,-359.76 305.48,-353.62"/>
</g>
<!-- Gazetteer&#45;&gt;Updater -->
<g id="edge21" class="edge">
<title>Gazetteer&#45;&gt;Updater</title>
<path fill="none" stroke="black" stroke-dasharray="5,2" d="M302.14,-356.61C308.29,-360.28 313.99,-364.7 318.64,-370 358.99,-416.06 311.84,-459.2 354.64,-503 396.26,-545.6 427.51,-519.72 483.14,-541 565.69,-572.58 658.67,-620.03 704.71,-644.37"/>
<polygon fill="black" stroke="black" points="304,-353.63 293.51,-352.12 300.77,-359.84 304,-353.63"/>
</g>
<!-- Gazetteer&#45;&gt;OriginCitation -->
<g id="edge22" class="edge">
<title>Gazetteer&#45;&gt;OriginCitation</title>
<path fill="none" stroke="black" d="M253.15,-306.73C266.91,-261.69 298.2,-180.63 354.64,-137 367.97,-126.69 460.33,-105.82 522.32,-92.67"/>
<polygon fill="none" stroke="black" points="254.23,-317.21 246.56,-314.95 248.82,-307.28 256.49,-309.54 254.23,-317.21"/>
<polyline fill="none" stroke="black" points="252.66,-308.41 253.22,-306.49"/>
<polygon fill="none" stroke="black" points="531.06,-86.74 532.71,-94.57 524.88,-96.22 523.23,-88.39 531.06,-86.74"/>
<polyline fill="none" stroke="black" points="524.06,-92.3 522.1,-92.72"/>
</g>
<!-- CitationTopic&#45;&gt;Topic -->
<g id="edge15" class="edge">
<title>CitationTopic&#45;&gt;Topic</title>
<path fill="none" stroke="black" stroke-dasharray="1,5" d="M289.16,-18C317.39,-18 353.47,-18 380.24,-18"/>
<polygon fill="black" stroke="black" points="379.95,-21.5 389.95,-18 379.95,-14.5 379.95,-21.5"/>
</g>
<!-- Role&#45;&gt;Verifier -->
<!-- SubsequentCitation&#45;&gt;SubsequentSource -->
<g id="edge14" class="edge">
<title>SubsequentCitation&#45;&gt;SubsequentSource</title>
<path fill="none" stroke="black" stroke-dasharray="1,5" d="M641.38,-143C649.32,-143 657.5,-143 665.55,-143"/>
<polygon fill="black" stroke="black" points="665.3,-146.5 675.3,-143 665.3,-139.5 665.3,-146.5"/>
</g>
<!-- VerifierRole&#45;&gt;Verifier -->
<g id="edge17" class="edge">
<title>VerifierRole&#45;&gt;Verifier</title>
<path fill="none" stroke="black" stroke-dasharray="1,5" d="M460.45,-469.12C484.83,-464.98 515.68,-459.75 539.81,-455.65"/>
<polygon fill="black" stroke="black" points="540.29,-459.12 549.56,-454 539.12,-452.22 540.29,-459.12"/>
</g>
<!-- Creator&#45;&gt;Updater -->
<!-- Project&#45;&gt;Creator -->
<!-- AlternateValue -->
<g id="node1" class="node">
<title>AlternateValue</title>
<g id="a_node1"><a xlink:href="/develop/Data/models.html#alternate-value" xlink:title="AlternateValue" target="_top">
<ellipse fill="#abcdef" stroke="#dddeee" cx="66.19" cy="-396" rx="66.19" ry="18"/>
<text text-anchor="middle" x="66.19" y="-390.95" font-family="Times,serif" font-size="14.00">AlternateValue</text>
</a>
</g>
</g>
<!-- Citation -->
<g id="node2" class="node">
<title>Citation</title>
<g id="a_node2"><a xlink:href="/develop/Data/models.html#citation" xlink:title="Citation" target="_top">
<ellipse fill="#abcdef" stroke="#dddeee" cx="66.19" cy="-73" rx="40.6" ry="18"/>
<text text-anchor="middle" x="66.19" y="-67.95" font-family="Times,serif" font-size="14.00">Citation</text>
</a>
</g>
</g>
<!-- DataAttribute -->
<g id="node3" class="node">
<title>DataAttribute</title>
<g id="a_node3"><a xlink:href="/develop/Data/models.html#data-attribute" xlink:title="DataAttribute" target="_top">
<ellipse fill="#abcdef" stroke="#dddeee" cx="66.19" cy="-340" rx="61.59" ry="18"/>
<text text-anchor="middle" x="66.19" y="-334.95" font-family="Times,serif" font-size="14.00">DataAttribute</text>
</a>
</g>
</g>
<!-- Note -->
<g id="node4" class="node">
<title>Note</title>
<g id="a_node4"><a xlink:href="/develop/Data/models.html#note" xlink:title="Note" target="_top">
<ellipse fill="#abcdef" stroke="#dddeee" cx="66.19" cy="-286" rx="28.83" ry="18"/>
<text text-anchor="middle" x="66.19" y="-280.95" font-family="Times,serif" font-size="14.00">Note</text>
</a>
</g>
</g>
<!-- AssertedDistribution -->
<g id="node5" class="node">
<title>AssertedDistribution</title>
<g id="a_node5"><a xlink:href="/develop/Data/models.html#asserted-distribution" xlink:title="AssertedDistribution" target="_top">
<path fill="#fedcba" stroke="#dddeee" d="M366.64,-349C366.64,-349 471.14,-349 471.14,-349 477.14,-349 483.14,-355 483.14,-361 483.14,-361 483.14,-373 483.14,-373 483.14,-379 477.14,-385 471.14,-385 471.14,-385 366.64,-385 366.64,-385 360.64,-385 354.64,-379 354.64,-373 354.64,-373 354.64,-361 354.64,-361 354.64,-355 360.64,-349 366.64,-349"/>
<text text-anchor="middle" x="418.89" y="-362.2" font-family="Times,serif" font-size="14.00">AssertedDistribution</text>
</a>
</g>
</g>
<!-- Source -->
<g id="node6" class="node">
<title>Source</title>
<g id="a_node6"><a xlink:href="/develop/Data/models.html#source" xlink:title="Source" target="_top">
<path fill="#fedcba" stroke="#dddeee" d="M403.89,-55C403.89,-55 433.89,-55 433.89,-55 439.89,-55 445.89,-61 445.89,-67 445.89,-67 445.89,-79 445.89,-79 445.89,-85 439.89,-91 433.89,-91 433.89,-91 403.89,-91 403.89,-91 397.89,-91 391.89,-85 391.89,-79 391.89,-79 391.89,-67 391.89,-67 391.89,-61 397.89,-55 403.89,-55"/>
<text text-anchor="middle" x="418.89" y="-68.2" font-family="Times,serif" font-size="14.00">Source</text>
</a>
</g>
</g>
<!-- Gazetteer -->
<g id="node7" class="node">
<title>Gazetteer</title>
<g id="a_node7"><a xlink:href="/develop/Data/models.html#gazetteer" xlink:title="Gazetteer" target="_top">
<polygon fill="#cdefab" stroke="#dedede" points="293.56,-331.54 293.56,-346.46 264.24,-357 222.78,-357 193.47,-346.46 193.47,-331.54 222.78,-321 264.24,-321 293.56,-331.54"/>
<polygon fill="none" stroke="#dedede" points="297.56,-328.73 297.56,-349.27 264.94,-361 222.09,-361 189.47,-349.27 189.47,-328.73 222.09,-317 264.94,-317 297.56,-328.73"/>
<text text-anchor="middle" x="243.51" y="-333.95" font-family="Times,serif" font-size="14.00">Gazetteer</text>
</a>
</g>
</g>
<!-- AlternateValueLanguage -->
<g id="node8" class="node">
<title>AlternateValueLanguage</title>
<g id="a_node8"><a xlink:href="/develop/Data/models.html#alternate-value-language" xlink:title="AlternateValueLanguage" target="_top">
<polygon fill="#eeefff" stroke="#dddeee" points="318.64,-415 168.39,-415 168.39,-379 318.64,-379 318.64,-415"/>
<text text-anchor="middle" x="243.51" y="-391.95" font-family="Times,serif" font-size="14.00">AlternateValueLanguage</text>
</a>
</g>
</g>
<!-- CitationTopic -->
<g id="node9" class="node">
<title>CitationTopic</title>
<g id="a_node9"><a xlink:href="/develop/Data/models.html#citation-topic" xlink:title="CitationTopic" target="_top">
<polygon fill="#eeefff" stroke="#dddeee" points="289.01,-36 198.01,-36 198.01,0 289.01,0 289.01,-36"/>
<text text-anchor="middle" x="243.51" y="-12.95" font-family="Times,serif" font-size="14.00">CitationTopic</text>
</a>
</g>
</g>
<!-- ImportAttribute -->
<g id="node10" class="node">
<title>ImportAttribute</title>
<g id="a_node10"><a xlink:href="/develop/Data/models.html#import-attribute" xlink:title="ImportAttribute" target="_top">
<polygon fill="#eeefff" stroke="#dddeee" points="470.01,-330 367.76,-330 367.76,-294 470.01,-294 470.01,-330"/>
<text text-anchor="middle" x="418.89" y="-306.95" font-family="Times,serif" font-size="14.00">ImportAttribute</text>
</a>
</g>
</g>
<!-- InternalAttribute -->
<g id="node11" class="node">
<title>InternalAttribute</title>
<g id="a_node11"><a xlink:href="/develop/Data/models.html#internal-attribute" xlink:title="InternalAttribute" target="_top">
<polygon fill="#eeefff" stroke="#dddeee" points="472.26,-276 365.51,-276 365.51,-240 472.26,-240 472.26,-276"/>
<text text-anchor="middle" x="418.89" y="-252.95" font-family="Times,serif" font-size="14.00">InternalAttribute</text>
</a>
</g>
</g>
<!-- PinboardItem -->
<g id="node12" class="node">
<title>PinboardItem</title>
<g id="a_node12"><a xlink:href="/develop/Data/models.html#pinboard-item" xlink:title="PinboardItem" target="_top">
<polygon fill="#eeefff" stroke="#dddeee" points="464.01,-222 373.76,-222 373.76,-186 464.01,-186 464.01,-222"/>
<text text-anchor="middle" x="418.89" y="-198.95" font-family="Times,serif" font-size="14.00">PinboardItem</text>
</a>
</g>
</g>
<!-- Role -->
<g id="node13" class="node">
<title>Role</title>
<g id="a_node13"><a xlink:href="/develop/Data/models.html#role" xlink:title="Role" target="_top">
<polygon fill="#eeefff" stroke="#dddeee" points="445.89,-440 391.89,-440 391.89,-404 445.89,-404 445.89,-440"/>
<text text-anchor="middle" x="418.89" y="-416.95" font-family="Times,serif" font-size="14.00">Role</text>
</a>
</g>
</g>
<!-- SubsequentCitation -->
<g id="node14" class="node">
<title>SubsequentCitation</title>
<g id="a_node14"><a xlink:href="/develop/Data/models.html#subsequent-citation" xlink:title="SubsequentCitation" target="_top">
<polygon fill="#eeefff" stroke="#dddeee" points="640.89,-161 519.14,-161 519.14,-125 640.89,-125 640.89,-161"/>
<text text-anchor="middle" x="580.01" y="-137.95" font-family="Times,serif" font-size="14.00">SubsequentCitation</text>
</a>
</g>
</g>
<!-- SubsequentSource -->
<g id="node15" class="node">
<title>SubsequentSource</title>
<g id="a_node15"><a xlink:href="/develop/Data/models.html#subsequent-source" xlink:title="SubsequentSource" target="_top">
<polygon fill="#eeefff" stroke="#dddeee" points="792.64,-161 676.89,-161 676.89,-125 792.64,-125 792.64,-161"/>
<text text-anchor="middle" x="734.76" y="-137.95" font-family="Times,serif" font-size="14.00">SubsequentSource</text>
</a>
</g>
</g>
<!-- Topic -->
<g id="node16" class="node">
<title>Topic</title>
<g id="a_node16"><a xlink:href="/develop/Data/models.html#topic" xlink:title="Topic" target="_top">
<polygon fill="#eeefff" stroke="#dddeee" points="445.89,-36 391.89,-36 391.89,0 445.89,0 445.89,-36"/>
<text text-anchor="middle" x="418.89" y="-12.95" font-family="Times,serif" font-size="14.00">Topic</text>
</a>
</g>
</g>
<!-- VerifierRole -->
<g id="node17" class="node">
<title>VerifierRole</title>
<g id="a_node17"><a xlink:href="/develop/Data/models.html#verifier-role" xlink:title="VerifierRole" target="_top">
<polygon fill="#eeefff" stroke="#dddeee" points="460.26,-494 377.51,-494 377.51,-458 460.26,-458 460.26,-494"/>
<text text-anchor="middle" x="418.89" y="-470.95" font-family="Times,serif" font-size="14.00">VerifierRole</text>
</a>
</g>
</g>
<!-- Verifier -->
<g id="node18" class="node">
<title>Verifier</title>
<g id="a_node18"><a xlink:href="/develop/Data/models.html#verifier" xlink:title="Verifier" target="_top">
<polygon fill="#eeefff" stroke="#dddeee" points="608.64,-467 551.39,-467 551.39,-431 608.64,-431 608.64,-467"/>
<text text-anchor="middle" x="580.01" y="-443.95" font-family="Times,serif" font-size="14.00">Verifier</text>
</a>
</g>
</g>
<!-- Creator -->
<g id="node19" class="node">
<title>Creator</title>
<g id="a_node19"><a xlink:href="/develop/Data/models.html#creator" xlink:title="Creator" target="_top">
<polygon fill="#eeefff" stroke="#dddeee" points="608.26,-678 551.76,-678 551.76,-642 608.26,-642 608.26,-678"/>
<text text-anchor="middle" x="580.01" y="-654.95" font-family="Times,serif" font-size="14.00">Creator</text>
</a>
</g>
</g>
<!-- GeographicItem -->
<g id="node20" class="node">
<title>GeographicItem</title>
<g id="a_node20"><a xlink:href="/develop/Data/models.html#geographic-item" xlink:title="GeographicItem" target="_top">
<polygon fill="#eeefff" stroke="#dddeee" points="471.14,-586 366.64,-586 366.64,-550 471.14,-550 471.14,-586"/>
<text text-anchor="middle" x="418.89" y="-562.95" font-family="Times,serif" font-size="14.00">GeographicItem</text>
</a>
</g>
</g>
<!-- Project -->
<g id="node21" class="node">
<title>Project</title>
<g id="a_node21"><a xlink:href="/develop/Data/models.html#project" xlink:title="Project" target="_top">
<polygon fill="#eeefff" stroke="#dddeee" points="446.01,-678 391.76,-678 391.76,-642 446.01,-642 446.01,-678"/>
<text text-anchor="middle" x="418.89" y="-654.95" font-family="Times,serif" font-size="14.00">Project</text>
</a>
</g>
</g>
<!-- Updater -->
<g id="node22" class="node">
<title>Updater</title>
<g id="a_node22"><a xlink:href="/develop/Data/models.html#updater" xlink:title="Updater" target="_top">
<polygon fill="#eeefff" stroke="#dddeee" points="764.51,-678 705.01,-678 705.01,-642 764.51,-642 764.51,-678"/>
<text text-anchor="middle" x="734.76" y="-654.95" font-family="Times,serif" font-size="14.00">Updater</text>
</a>
</g>
</g>
<!-- OriginCitation -->
<g id="node23" class="node">
<title>OriginCitation</title>
<g id="a_node23"><a xlink:href="/develop/Data/models.html#origin-citation" xlink:title="OriginCitation" target="_top">
<polygon fill="#eeefff" stroke="#dddeee" points="627.39,-99 532.64,-99 532.64,-63 627.39,-63 627.39,-99"/>
<text text-anchor="middle" x="580.01" y="-75.95" font-family="Times,serif" font-size="14.00">OriginCitation</text>
</a>
</g>
</g>
</g>
</svg>
