<?xml version="1.0" encoding="UTF-8" standalone="no"?>
<!DOCTYPE svg PUBLIC "-//W3C//DTD SVG 1.1//EN"
 "http://www.w3.org/Graphics/SVG/1.1/DTD/svg11.dtd">
<!-- Generated by graphviz version 12.2.1 (20241206.2353)
 -->
<!-- Title: GeographicAreasGeographicItem Pages: 1 -->
<svg width="608pt" height="314pt"
 viewBox="0.00 0.00 608.23 314.00" xmlns="http://www.w3.org/2000/svg" xmlns:xlink="http://www.w3.org/1999/xlink">
<g id="graph0" class="graph" transform="scale(1 1) rotate(0) translate(4 310)">
<title>GeographicAreasGeographicItem</title>
<polygon fill="white" stroke="none" points="-4,4 -4,-310 604.23,-310 604.23,4 -4,4"/>
<!-- GeographicAreasGeographicItem&#45;&gt;CachedMapItemTranslation -->
<g id="edge1" class="edge">
<title>GeographicAreasGeographicItem&#45;&gt;CachedMapItemTranslation</title>
<path fill="none" stroke="black" d="M185.45,-175.37C221.82,-198.98 282.22,-236.14 337.98,-261 341.49,-262.57 345.13,-264.09 348.82,-265.56"/>
<polygon fill="black" stroke="black" points="347.35,-268.74 357.94,-269.02 349.83,-262.2 347.35,-268.74"/>
</g>
<!-- GeographicAreasGeographicItem&#45;&gt;PinboardItem -->
<g id="edge2" class="edge">
<title>GeographicAreasGeographicItem&#45;&gt;PinboardItem</title>
<path fill="none" stroke="black" d="M222.44,-174.18C267.3,-187.66 324.57,-204.87 366.15,-217.37"/>
<polygon fill="black" stroke="black" points="365.14,-220.72 375.72,-220.25 367.15,-214.02 365.14,-220.72"/>
</g>
<!-- GeographicAreasGeographicItem&#45;&gt;Role -->
<g id="edge3" class="edge">
<title>GeographicAreasGeographicItem&#45;&gt;Role</title>
<path fill="none" stroke="black" d="M285.94,-166.42C322.14,-170.05 358.42,-173.68 384.32,-176.28"/>
<polygon fill="black" stroke="black" points="383.64,-179.73 393.94,-177.24 384.34,-172.76 383.64,-179.73"/>
</g>
<!-- GeographicAreasGeographicItem&#45;&gt;VerifierRole -->
<g id="edge4" class="edge">
<title>GeographicAreasGeographicItem&#45;&gt;VerifierRole</title>
<path fill="none" stroke="black" d="M285.94,-139.58C315.69,-136.6 345.48,-133.61 369.53,-131.2"/>
<polygon fill="black" stroke="black" points="369.74,-134.7 379.34,-130.22 369.04,-127.74 369.74,-134.7"/>
</g>
<!-- GeographicAreasGeographicItem&#45;&gt;GeographicArea -->
<g id="edge6" class="edge">
<title>GeographicAreasGeographicItem&#45;&gt;GeographicArea</title>
<path fill="none" stroke="black" stroke-dasharray="5,2" d="M233.21,-128.59C277.54,-115.26 331.1,-99.16 369.74,-87.55"/>
<polygon fill="black" stroke="black" points="232.46,-125.16 223.89,-131.39 234.48,-131.86 232.46,-125.16"/>
</g>
<!-- GeographicAreasGeographicItem&#45;&gt;GeographicItem -->
<g id="edge7" class="edge">
<title>GeographicAreasGeographicItem&#45;&gt;GeographicItem</title>
<path fill="none" stroke="black" stroke-dasharray="5,2" d="M194.87,-124.56C231.7,-101.01 286.79,-67.82 337.98,-45 348.14,-40.47 359.29,-36.33 370.05,-32.72"/>
<polygon fill="black" stroke="black" points="193.23,-121.45 186.72,-129.81 197.02,-127.33 193.23,-121.45"/>
</g>
<!-- Role&#45;&gt;Verifier -->
<!-- VerifierRole&#45;&gt;Verifier -->
<g id="edge5" class="edge">
<title>VerifierRole&#45;&gt;Verifier</title>
<path fill="none" stroke="black" stroke-dasharray="1,5" d="M464.07,-133.45C485.07,-137.3 510.59,-141.99 531.39,-145.8"/>
<polygon fill="black" stroke="black" points="530.75,-149.25 541.22,-147.61 532.02,-142.36 530.75,-149.25"/>
</g>
<!-- GeographicAreasGeographicItem -->
<g id="node1" class="node">
<title>GeographicAreasGeographicItem</title>
<g id="a_node1"><a xlink:href="/develop/Data/models.html#geographic-areas-geographic-item" xlink:title="GeographicAreasGeographicItem" target="_top">
<polygon fill="#cdefab" stroke="#dedede" points="297.98,-145.54 297.98,-160.46 211.87,-171 90.1,-171 4,-160.46 4,-145.54 90.1,-135 211.87,-135 297.98,-145.54"/>
<polygon fill="none" stroke="#dedede" points="301.98,-142 301.98,-164 212.12,-175 89.86,-175 0,-164 0,-142 89.86,-131 212.12,-131 301.98,-142"/>
<text text-anchor="middle" x="150.99" y="-147.95" font-family="Times,serif" font-size="14.00">GeographicAreasGeographicItem</text>
</a>
</g>
</g>
<!-- CachedMapItemTranslation -->
<g id="node2" class="node">
<title>CachedMapItemTranslation</title>
<g id="a_node2"><a xlink:href="/develop/Data/models.html#cached-map-item-translation" xlink:title="CachedMapItemTranslation" target="_top">
<polygon fill="#eeefff" stroke="#dddeee" points="506.98,-306 337.98,-306 337.98,-270 506.98,-270 506.98,-306"/>
<text text-anchor="middle" x="422.48" y="-282.95" font-family="Times,serif" font-size="14.00">CachedMapItemTranslation</text>
</a>
</g>
</g>
<!-- PinboardItem -->
<g id="node3" class="node">
<title>PinboardItem</title>
<g id="a_node3"><a xlink:href="/develop/Data/models.html#pinboard-item" xlink:title="PinboardItem" target="_top">
<polygon fill="#eeefff" stroke="#dddeee" points="467.6,-252 377.35,-252 377.35,-216 467.6,-216 467.6,-252"/>
<text text-anchor="middle" x="422.48" y="-228.95" font-family="Times,serif" font-size="14.00">PinboardItem</text>
</a>
</g>
</g>
<!-- Role -->
<g id="node4" class="node">
<title>Role</title>
<g id="a_node4"><a xlink:href="/develop/Data/models.html#role" xlink:title="Role" target="_top">
<polygon fill="#eeefff" stroke="#dddeee" points="449.48,-198 395.48,-198 395.48,-162 449.48,-162 449.48,-198"/>
<text text-anchor="middle" x="422.48" y="-174.95" font-family="Times,serif" font-size="14.00">Role</text>
</a>
</g>
</g>
<!-- VerifierRole -->
<g id="node5" class="node">
<title>VerifierRole</title>
<g id="a_node5"><a xlink:href="/develop/Data/models.html#verifier-role" xlink:title="VerifierRole" target="_top">
<polygon fill="#eeefff" stroke="#dddeee" points="463.85,-144 381.1,-144 381.1,-108 463.85,-108 463.85,-144"/>
<text text-anchor="middle" x="422.48" y="-120.95" font-family="Times,serif" font-size="14.00">VerifierRole</text>
</a>
</g>
</g>
<!-- Verifier -->
<g id="node6" class="node">
<title>Verifier</title>
<g id="a_node6"><a xlink:href="/develop/Data/models.html#verifier" xlink:title="Verifier" target="_top">
<polygon fill="#eeefff" stroke="#dddeee" points="600.23,-171 542.98,-171 542.98,-135 600.23,-135 600.23,-171"/>
<text text-anchor="middle" x="571.6" y="-147.95" font-family="Times,serif" font-size="14.00">Verifier</text>
</a>
</g>
</g>
<!-- GeographicArea -->
<g id="node7" class="node">
<title>GeographicArea</title>
<g id="a_node7"><a xlink:href="/develop/Data/models.html#geographic-area" xlink:title="GeographicArea" target="_top">
<polygon fill="#eeefff" stroke="#dddeee" points="475.1,-90 369.85,-90 369.85,-54 475.1,-54 475.1,-90"/>
<text text-anchor="middle" x="422.48" y="-66.95" font-family="Times,serif" font-size="14.00">GeographicArea</text>
</a>
</g>
</g>
<!-- GeographicItem -->
<g id="node8" class="node">
<title>GeographicItem</title>
<g id="a_node8"><a xlink:href="/develop/Data/models.html#geographic-item" xlink:title="GeographicItem" target="_top">
<polygon fill="#eeefff" stroke="#dddeee" points="474.73,-36 370.23,-36 370.23,0 474.73,0 474.73,-36"/>
<text text-anchor="middle" x="422.48" y="-12.95" font-family="Times,serif" font-size="14.00">GeographicItem</text>
</a>
</g>
</g>
</g>
</svg>
