<?xml version="1.0" encoding="UTF-8" standalone="no"?>
<!DOCTYPE svg PUBLIC "-//W3C//DTD SVG 1.1//EN"
 "http://www.w3.org/Graphics/SVG/1.1/DTD/svg11.dtd">
<!-- Generated by graphviz version 2.50.0 (20211204.2007)
 -->
<!-- Title: GeographicItem Pages: 1 -->
<svg width="1016pt" height="583pt"
 viewBox="0.00 0.00 1015.73 582.79" xmlns="http://www.w3.org/2000/svg" xmlns:xlink="http://www.w3.org/1999/xlink">
<g id="graph0" class="graph" transform="scale(1 1) rotate(0) translate(4 578.79)">
<title>GeographicItem</title>
<polygon fill="white" stroke="transparent" points="-4,4 -4,-578.79 1011.73,-578.79 1011.73,4 -4,4"/>
<!-- GeographicItem&#45;&gt;GeoreferencesThroughErrorGeographicItem -->
<g id="edge8" class="edge">
<title>GeographicItem&#45;&gt;GeoreferencesThroughErrorGeographicItem</title>
<path fill="none" stroke="black" d="M82.39,-308.99C91.27,-357.29 119.29,-472.17 191.73,-529.79 193.3,-531.03 194.91,-532.23 196.56,-533.37"/>
<polygon fill="black" stroke="black" points="194.76,-536.37 205.11,-538.65 198.44,-530.42 194.76,-536.37"/>
</g>
<!-- GeographicItem&#45;&gt;Georeference -->
<g id="edge7" class="edge">
<title>GeographicItem&#45;&gt;Georeference</title>
<path fill="none" stroke="black" d="M85.51,-308.95C98.74,-349.04 132.33,-433.36 191.73,-475.79 213.16,-491.09 241.43,-498.07 265.96,-501.13"/>
<polygon fill="black" stroke="black" points="265.89,-504.64 276.2,-502.21 266.63,-497.68 265.89,-504.64"/>
</g>
<!-- GeographicItem&#45;&gt;GadmGeographicArea -->
<g id="edge3" class="edge">
<title>GeographicItem&#45;&gt;GadmGeographicArea</title>
<path fill="none" stroke="black" d="M90.94,-308.95C108.77,-339.45 145.13,-393.78 191.73,-421.79 206.46,-430.64 223.66,-436.62 240.59,-440.65"/>
<polygon fill="black" stroke="black" points="239.99,-444.1 250.5,-442.8 241.47,-437.26 239.99,-444.1"/>
</g>
<!-- GeographicItem&#45;&gt;GeographicAreasGeographicItem -->
<g id="edge6" class="edge">
<title>GeographicItem&#45;&gt;GeographicAreasGeographicItem</title>
<path fill="none" stroke="black" d="M103.43,-309.08C125.13,-327.56 158.41,-353.1 191.73,-367.79 197.88,-370.5 204.31,-372.94 210.88,-375.14"/>
<polygon fill="black" stroke="black" points="210,-378.53 220.59,-378.2 212.1,-371.86 210,-378.53"/>
</g>
<!-- GeographicItem&#45;&gt;NeGeographicArea -->
<g id="edge9" class="edge">
<title>GeographicItem&#45;&gt;NeGeographicArea</title>
<path fill="none" stroke="black" d="M139.13,-301.52C156.12,-305.59 174.63,-309.94 191.73,-313.79 210.42,-317.99 230.69,-322.36 249.47,-326.32"/>
<polygon fill="black" stroke="black" points="248.92,-329.78 259.43,-328.42 250.36,-322.93 248.92,-329.78"/>
</g>
<!-- GeographicItem&#45;&gt;PinboardItem -->
<g id="edge11" class="edge">
<title>GeographicItem&#45;&gt;PinboardItem</title>
<path fill="none" stroke="black" d="M155.74,-286.79C191.27,-286.79 232.65,-286.79 264.95,-286.79"/>
<polygon fill="black" stroke="black" points="265.1,-290.29 275.1,-286.79 265.1,-283.29 265.1,-290.29"/>
</g>
<!-- GeographicItem&#45;&gt;Role -->
<g id="edge12" class="edge">
<title>GeographicItem&#45;&gt;Role</title>
<path fill="none" stroke="black" d="M139.13,-272.06C156.12,-267.99 174.63,-263.64 191.73,-259.79 222.7,-252.82 258,-245.41 283.67,-240.12"/>
<polygon fill="black" stroke="black" points="284.61,-243.51 293.7,-238.07 283.2,-236.65 284.61,-243.51"/>
</g>
<!-- GeographicItem&#45;&gt;TdwgGeographicArea -->
<g id="edge13" class="edge">
<title>GeographicItem&#45;&gt;TdwgGeographicArea</title>
<path fill="none" stroke="black" d="M103.43,-264.5C125.13,-246.02 158.41,-220.48 191.73,-205.79 207.46,-198.86 225.06,-193.67 242.07,-189.79"/>
<polygon fill="black" stroke="black" points="242.95,-193.18 251.99,-187.66 241.48,-186.34 242.95,-193.18"/>
</g>
<!-- GeographicItem&#45;&gt;VerifierRole -->
<g id="edge14" class="edge">
<title>GeographicItem&#45;&gt;VerifierRole</title>
<path fill="none" stroke="black" d="M90.94,-264.63C108.77,-234.13 145.13,-179.8 191.73,-151.79 215,-137.8 244.45,-130.99 269.23,-127.7"/>
<polygon fill="black" stroke="black" points="269.65,-131.18 279.18,-126.54 268.84,-124.23 269.65,-131.18"/>
</g>
<!-- GeographicItem&#45;&gt;Creator -->
<g id="edge16" class="edge">
<title>GeographicItem&#45;&gt;Creator</title>
<path fill="none" stroke="black" stroke-dasharray="5,2" d="M88.8,-255.01C103.87,-212.25 136.74,-137.06 191.73,-97.79 221.49,-76.54 264.44,-71.34 292.23,-70.4"/>
<polygon fill="black" stroke="black" points="85.43,-254.03 85.51,-264.63 92.05,-256.29 85.43,-254.03"/>
</g>
<!-- GeographicItem&#45;&gt;Updater -->
<g id="edge17" class="edge">
<title>GeographicItem&#45;&gt;Updater</title>
<path fill="none" stroke="black" stroke-dasharray="5,2" d="M82.93,-254.39C91.71,-199.79 118.03,-90.82 191.73,-43.79 333.14,46.45 550.55,-26.9 628.59,-58.28"/>
<polygon fill="black" stroke="black" points="79.43,-254.14 81.4,-264.55 86.35,-255.18 79.43,-254.14"/>
</g>
<!-- GeoreferencesThroughErrorGeographicItem&#45;&gt;CollectingEventsThroughGeoreferenceErrorGeographicItem -->
<g id="edge1" class="edge">
<title>GeoreferencesThroughErrorGeographicItem&#45;&gt;CollectingEventsThroughGeoreferenceErrorGeographicItem</title>
<path fill="none" stroke="black" stroke-dasharray="1,5" d="M450.2,-556.79C458.52,-556.79 466.98,-556.79 475.49,-556.79"/>
<polygon fill="black" stroke="black" points="475.49,-560.29 485.49,-556.79 475.49,-553.29 475.49,-560.29"/>
</g>
<!-- Georeference&#45;&gt;CollectingEventsThroughGeoreference -->
<g id="edge2" class="edge">
<title>Georeference&#45;&gt;CollectingEventsThroughGeoreference</title>
<path fill="none" stroke="black" stroke-dasharray="1,5" d="M365.32,-502.79C407.95,-502.79 474.91,-502.79 534,-502.79"/>
<polygon fill="black" stroke="black" points="534.17,-506.29 544.17,-502.79 534.17,-499.29 534.17,-506.29"/>
</g>
<!-- GeographicArea&#45;&gt;GeographicAreaType -->
<g id="edge4" class="edge">
<title>GeographicArea&#45;&gt;GeographicAreaType</title>
<path fill="none" stroke="black" stroke-dasharray="1,5" d="M711.84,-399.87C753.74,-403.95 813.21,-409.75 860.47,-414.35"/>
<polygon fill="black" stroke="black" points="860.38,-417.86 870.67,-415.35 861.06,-410.89 860.38,-417.86"/>
</g>
<!-- GeographicArea&#45;&gt;ParentGeographicArea -->
<g id="edge10" class="edge">
<title>GeographicArea&#45;&gt;ParentGeographicArea</title>
<path fill="none" stroke="black" stroke-dasharray="1,5" d="M711.84,-389.71C752.86,-385.71 810.73,-380.07 857.49,-375.51"/>
<polygon fill="black" stroke="black" points="857.98,-378.98 867.6,-374.53 857.3,-372.01 857.98,-378.98"/>
</g>
<!-- GeographicAreasGeographicItem&#45;&gt;GeographicArea -->
<g id="edge5" class="edge">
<title>GeographicAreasGeographicItem&#45;&gt;GeographicArea</title>
<path fill="none" stroke="black" stroke-dasharray="1,5" d="M421.18,-394.79C477.55,-394.79 546.34,-394.79 595.18,-394.79"/>
<polygon fill="black" stroke="black" points="595.29,-398.29 605.29,-394.79 595.29,-391.29 595.29,-398.29"/>
</g>
<!-- Role&#45;&gt;Verifier -->
<!-- VerifierRole&#45;&gt;Verifier -->
<g id="edge15" class="edge">
<title>VerifierRole&#45;&gt;Verifier</title>
<path fill="none" stroke="black" stroke-dasharray="1,5" d="M362.26,-131.3C427.9,-141.85 556.52,-162.52 620.19,-172.75"/>
<polygon fill="black" stroke="black" points="619.77,-176.23 630.2,-174.36 620.88,-169.32 619.77,-176.23"/>
</g>
<!-- Creator&#45;&gt;Updater -->
<!-- GeographicItem -->
<g id="node1" class="node">
<title>GeographicItem</title>
<g id="a_node1"><a xlink:href="/develop/Data/models.html#geographic-item" xlink:title="GeographicItem" target="_top">
<polygon fill="#cdefab" stroke="#dedede" points="151.61,-279.33 151.61,-294.24 108.41,-304.79 47.32,-304.79 4.13,-294.24 4.13,-279.33 47.32,-268.79 108.41,-268.79 151.61,-279.33"/>
<polygon fill="none" stroke="#dedede" points="155.6,-276.19 155.6,-297.39 108.89,-308.79 46.84,-308.79 0.13,-297.39 0.13,-276.19 46.84,-264.79 108.89,-264.79 155.6,-276.19"/>
<text text-anchor="middle" x="77.87" y="-283.09" font-family="Times,serif" font-size="14.00">GeographicItem</text>
</a>
</g>
</g>
<!-- GeoreferencesThroughErrorGeographicItem -->
<g id="node2" class="node">
<title>GeoreferencesThroughErrorGeographicItem</title>
<g id="a_node2"><a xlink:href="/develop/Data/models.html#georeferences-through-error-geographic-item" xlink:title="GeoreferencesThroughErrorGeographicItem" target="_top">
<polygon fill="#eeefff" stroke="#dddeee" points="449.73,-574.79 191.73,-574.79 191.73,-538.79 449.73,-538.79 449.73,-574.79"/>
<text text-anchor="middle" x="320.73" y="-553.09" font-family="Times,serif" font-size="14.00">GeoreferencesThroughErrorGeographicItem</text>
</a>
</g>
</g>
<!-- CollectingEventsThroughGeoreferenceErrorGeographicItem -->
<g id="node3" class="node">
<title>CollectingEventsThroughGeoreferenceErrorGeographicItem</title>
<g id="a_node3"><a xlink:href="/develop/Data/models.html#collecting-events-through-georeference-error-geographic-item" xlink:title="CollectingEventsThroughGeoreferenceErrorGeographicItem" target="_top">
<polygon fill="#eeefff" stroke="#dddeee" points="831.73,-574.79 485.73,-574.79 485.73,-538.79 831.73,-538.79 831.73,-574.79"/>
<text text-anchor="middle" x="658.73" y="-553.09" font-family="Times,serif" font-size="14.00">CollectingEventsThroughGeoreferenceErrorGeographicItem</text>
</a>
</g>
</g>
<!-- Georeference -->
<g id="node4" class="node">
<title>Georeference</title>
<g id="a_node4"><a xlink:href="/develop/Data/models.html#georeference" xlink:title="Georeference" target="_top">
<polygon fill="#eeefff" stroke="#dddeee" points="365.23,-520.79 276.23,-520.79 276.23,-484.79 365.23,-484.79 365.23,-520.79"/>
<text text-anchor="middle" x="320.73" y="-499.09" font-family="Times,serif" font-size="14.00">Georeference</text>
</a>
</g>
</g>
<!-- CollectingEventsThroughGeoreference -->
<g id="node5" class="node">
<title>CollectingEventsThroughGeoreference</title>
<g id="a_node5"><a xlink:href="/develop/Data/models.html#collecting-events-through-georeference" xlink:title="CollectingEventsThroughGeoreference" target="_top">
<polygon fill="#eeefff" stroke="#dddeee" points="773.23,-520.79 544.23,-520.79 544.23,-484.79 773.23,-484.79 773.23,-520.79"/>
<text text-anchor="middle" x="658.73" y="-499.09" font-family="Times,serif" font-size="14.00">CollectingEventsThroughGeoreference</text>
</a>
</g>
</g>
<!-- GadmGeographicArea -->
<g id="node6" class="node">
<title>GadmGeographicArea</title>
<g id="a_node6"><a xlink:href="/develop/Data/models.html#gadm-geographic-area" xlink:title="GadmGeographicArea" target="_top">
<polygon fill="#eeefff" stroke="#dddeee" points="390.73,-466.79 250.73,-466.79 250.73,-430.79 390.73,-430.79 390.73,-466.79"/>
<text text-anchor="middle" x="320.73" y="-445.09" font-family="Times,serif" font-size="14.00">GadmGeographicArea</text>
</a>
</g>
</g>
<!-- GeographicArea -->
<g id="node7" class="node">
<title>GeographicArea</title>
<g id="a_node7"><a xlink:href="/develop/Data/models.html#geographic-area" xlink:title="GeographicArea" target="_top">
<polygon fill="#eeefff" stroke="#dddeee" points="711.73,-412.79 605.73,-412.79 605.73,-376.79 711.73,-376.79 711.73,-412.79"/>
<text text-anchor="middle" x="658.73" y="-391.09" font-family="Times,serif" font-size="14.00">GeographicArea</text>
</a>
</g>
</g>
<!-- GeographicAreaType -->
<g id="node8" class="node">
<title>GeographicAreaType</title>
<g id="a_node8"><a xlink:href="/develop/Data/models.html#geographic-area-type" xlink:title="GeographicAreaType" target="_top">
<polygon fill="#eeefff" stroke="#dddeee" points="1004.73,-439.79 870.73,-439.79 870.73,-403.79 1004.73,-403.79 1004.73,-439.79"/>
<text text-anchor="middle" x="937.73" y="-418.09" font-family="Times,serif" font-size="14.00">GeographicAreaType</text>
</a>
</g>
</g>
<!-- GeographicAreasGeographicItem -->
<g id="node9" class="node">
<title>GeographicAreasGeographicItem</title>
<g id="a_node9"><a xlink:href="/develop/Data/models.html#geographic-areas-geographic-item" xlink:title="GeographicAreasGeographicItem" target="_top">
<polygon fill="#eeefff" stroke="#dddeee" points="420.73,-412.79 220.73,-412.79 220.73,-376.79 420.73,-376.79 420.73,-412.79"/>
<text text-anchor="middle" x="320.73" y="-391.09" font-family="Times,serif" font-size="14.00">GeographicAreasGeographicItem</text>
</a>
</g>
</g>
<!-- NeGeographicArea -->
<g id="node10" class="node">
<title>NeGeographicArea</title>
<g id="a_node10"><a xlink:href="/develop/Data/models.html#ne-geographic-area" xlink:title="NeGeographicArea" target="_top">
<polygon fill="#eeefff" stroke="#dddeee" points="381.73,-358.79 259.73,-358.79 259.73,-322.79 381.73,-322.79 381.73,-358.79"/>
<text text-anchor="middle" x="320.73" y="-337.09" font-family="Times,serif" font-size="14.00">NeGeographicArea</text>
</a>
</g>
</g>
<!-- ParentGeographicArea -->
<g id="node11" class="node">
<title>ParentGeographicArea</title>
<g id="a_node11"><a xlink:href="/develop/Data/models.html#parent-geographic-area" xlink:title="ParentGeographicArea" target="_top">
<polygon fill="#eeefff" stroke="#dddeee" points="1007.73,-385.79 867.73,-385.79 867.73,-349.79 1007.73,-349.79 1007.73,-385.79"/>
<text text-anchor="middle" x="937.73" y="-364.09" font-family="Times,serif" font-size="14.00">ParentGeographicArea</text>
</a>
</g>
</g>
<!-- PinboardItem -->
<g id="node12" class="node">
<title>PinboardItem</title>
<g id="a_node12"><a xlink:href="/develop/Data/models.html#pinboard-item" xlink:title="PinboardItem" target="_top">
<polygon fill="#eeefff" stroke="#dddeee" points="366.23,-304.79 275.23,-304.79 275.23,-268.79 366.23,-268.79 366.23,-304.79"/>
<text text-anchor="middle" x="320.73" y="-283.09" font-family="Times,serif" font-size="14.00">PinboardItem</text>
</a>
</g>
</g>
<!-- Role -->
<g id="node13" class="node">
<title>Role</title>
<g id="a_node13"><a xlink:href="/develop/Data/models.html#role" xlink:title="Role" target="_top">
<polygon fill="#eeefff" stroke="#dddeee" points="347.73,-250.79 293.73,-250.79 293.73,-214.79 347.73,-214.79 347.73,-250.79"/>
<text text-anchor="middle" x="320.73" y="-229.09" font-family="Times,serif" font-size="14.00">Role</text>
</a>
</g>
</g>
<!-- TdwgGeographicArea -->
<g id="node14" class="node">
<title>TdwgGeographicArea</title>
<g id="a_node14"><a xlink:href="/develop/Data/models.html#tdwg-geographic-area" xlink:title="TdwgGeographicArea" target="_top">
<polygon fill="#eeefff" stroke="#dddeee" points="389.23,-196.79 252.23,-196.79 252.23,-160.79 389.23,-160.79 389.23,-196.79"/>
<text text-anchor="middle" x="320.73" y="-175.09" font-family="Times,serif" font-size="14.00">TdwgGeographicArea</text>
</a>
</g>
</g>
<!-- VerifierRole -->
<g id="node15" class="node">
<title>VerifierRole</title>
<g id="a_node15"><a xlink:href="/develop/Data/models.html#verifier-role" xlink:title="VerifierRole" target="_top">
<polygon fill="#eeefff" stroke="#dddeee" points="362.23,-142.79 279.23,-142.79 279.23,-106.79 362.23,-106.79 362.23,-142.79"/>
<text text-anchor="middle" x="320.73" y="-121.09" font-family="Times,serif" font-size="14.00">VerifierRole</text>
</a>
</g>
</g>
<!-- Verifier -->
<g id="node16" class="node">
<title>Verifier</title>
<g id="a_node16"><a xlink:href="/develop/Data/models.html#verifier" xlink:title="Verifier" target="_top">
<polygon fill="#eeefff" stroke="#dddeee" points="687.23,-196.79 630.23,-196.79 630.23,-160.79 687.23,-160.79 687.23,-196.79"/>
<text text-anchor="middle" x="658.73" y="-175.09" font-family="Times,serif" font-size="14.00">Verifier</text>
</a>
</g>
</g>
<!-- Creator -->
<g id="node17" class="node">
<title>Creator</title>
<g id="a_node17"><a xlink:href="/develop/Data/models.html#creator" xlink:title="Creator" target="_top">
<polygon fill="#eeefff" stroke="#dddeee" points="349.23,-88.79 292.23,-88.79 292.23,-52.79 349.23,-52.79 349.23,-88.79"/>
<text text-anchor="middle" x="320.73" y="-67.09" font-family="Times,serif" font-size="14.00">Creator</text>
</a>
</g>
</g>
<!-- Updater -->
<g id="node18" class="node">
<title>Updater</title>
<g id="a_node18"><a xlink:href="/develop/Data/models.html#updater" xlink:title="Updater" target="_top">
<polygon fill="#eeefff" stroke="#dddeee" points="688.73,-88.79 628.73,-88.79 628.73,-52.79 688.73,-52.79 688.73,-88.79"/>
<text text-anchor="middle" x="658.73" y="-67.09" font-family="Times,serif" font-size="14.00">Updater</text>
</a>
</g>
</g>
</g>
</svg>
