<?xml version="1.0" encoding="UTF-8" standalone="no"?>
<!DOCTYPE svg PUBLIC "-//W3C//DTD SVG 1.1//EN"
 "http://www.w3.org/Graphics/SVG/1.1/DTD/svg11.dtd">
<!-- Generated by graphviz version 12.2.1 (20241206.2353)
 -->
<!-- Title: GeographicItem Pages: 1 -->
<svg width="1021pt" height="566pt"
 viewBox="0.00 0.00 1020.87 565.76" xmlns="http://www.w3.org/2000/svg" xmlns:xlink="http://www.w3.org/1999/xlink">
<g id="graph0" class="graph" transform="scale(1 1) rotate(0) translate(4 561.76)">
<title>GeographicItem</title>
<polygon fill="white" stroke="none" points="-4,4 -4,-561.76 1016.87,-561.76 1016.87,4 -4,4"/>
<!-- GeographicItem&#45;&gt;CachedMapItem -->
<g id="edge1" class="edge">
<title>GeographicItem&#45;&gt;CachedMapItem</title>
<path fill="none" stroke="black" d="M86.41,-299.98C96.61,-347.15 127.18,-457.52 198.37,-512.76 216.29,-526.67 239.72,-533.83 261.61,-537.39"/>
<polygon fill="black" stroke="black" points="261,-540.84 271.39,-538.74 261.96,-533.91 261,-540.84"/>
</g>
<!-- GeographicItem&#45;&gt;GeoreferencesThroughErrorGeographicItem -->
<g id="edge9" class="edge">
<title>GeographicItem&#45;&gt;GeoreferencesThroughErrorGeographicItem</title>
<path fill="none" stroke="black" d="M89.96,-300.23C104.65,-339.12 140.3,-418.67 198.37,-458.76 199.98,-459.87 201.62,-460.93 203.29,-461.95"/>
<polygon fill="black" stroke="black" points="201.4,-464.91 211.86,-466.63 204.75,-458.76 201.4,-464.91"/>
</g>
<!-- GeographicItem&#45;&gt;Georeference -->
<g id="edge8" class="edge">
<title>GeographicItem&#45;&gt;Georeference</title>
<path fill="none" stroke="black" d="M96.08,-300.07C115.35,-329 152.97,-378.82 198.37,-404.76 220.36,-417.33 247.49,-424.07 271.08,-427.67"/>
<polygon fill="black" stroke="black" points="270.46,-431.12 280.84,-429 271.41,-424.18 270.46,-431.12"/>
</g>
<!-- GeographicItem&#45;&gt;Gazetteer -->
<g id="edge4" class="edge">
<title>GeographicItem&#45;&gt;Gazetteer</title>
<path fill="none" stroke="black" d="M111.19,-300.06C133.79,-316.4 166.58,-337.89 198.37,-350.76 224.95,-361.52 256.45,-368.24 281.52,-372.28"/>
<polygon fill="black" stroke="black" points="280.99,-375.74 291.4,-373.78 282.04,-368.82 280.99,-375.74"/>
</g>
<!-- GeographicItem&#45;&gt;GeographicAreasGeographicItem -->
<g id="edge7" class="edge">
<title>GeographicItem&#45;&gt;GeographicAreasGeographicItem</title>
<path fill="none" stroke="black" d="M152.74,-291.07C172.75,-294.84 195.03,-299.04 216.76,-303.14"/>
<polygon fill="black" stroke="black" points="216.09,-306.58 226.57,-304.99 217.39,-299.7 216.09,-306.58"/>
</g>
<!-- GeographicItem&#45;&gt;PinboardItem -->
<g id="edge11" class="edge">
<title>GeographicItem&#45;&gt;PinboardItem</title>
<path fill="none" stroke="black" d="M162.86,-275.49C238.64,-272.92 355.11,-267.86 455.87,-258.76 507.5,-254.1 566.03,-246.26 607.76,-240.22"/>
<polygon fill="black" stroke="black" points="608.17,-243.7 617.56,-238.79 607.16,-236.77 608.17,-243.7"/>
</g>
<!-- GeographicItem&#45;&gt;Role -->
<g id="edge12" class="edge">
<title>GeographicItem&#45;&gt;Role</title>
<path fill="none" stroke="black" d="M111.19,-255.46C133.79,-239.12 166.58,-217.63 198.37,-204.76 227.44,-193 262.39,-186.07 288.38,-182.18"/>
<polygon fill="black" stroke="black" points="288.72,-185.66 298.14,-180.81 287.75,-178.73 288.72,-185.66"/>
</g>
<!-- GeographicItem&#45;&gt;VerifierRole -->
<g id="edge13" class="edge">
<title>GeographicItem&#45;&gt;VerifierRole</title>
<path fill="none" stroke="black" d="M96.08,-255.46C115.35,-226.53 152.97,-176.71 198.37,-150.76 221.31,-137.66 249.84,-130.89 274.12,-127.4"/>
<polygon fill="black" stroke="black" points="274.31,-130.91 283.79,-126.17 273.43,-123.96 274.31,-130.91"/>
</g>
<!-- GeographicItem&#45;&gt;Version -->
<g id="edge15" class="edge">
<title>GeographicItem&#45;&gt;Version</title>
<path fill="none" stroke="black" d="M152.74,-264.46C196.42,-256.22 250.87,-245.96 286.97,-239.15"/>
<polygon fill="black" stroke="black" points="287.34,-242.64 296.52,-237.35 286.05,-235.76 287.34,-242.64"/>
</g>
<!-- GeographicItem&#45;&gt;Creator -->
<g id="edge16" class="edge">
<title>GeographicItem&#45;&gt;Creator</title>
<path fill="none" stroke="black" stroke-dasharray="5,2" d="M94.11,-244.69C110.79,-203.32 145.17,-133.49 198.37,-96.76 228.32,-76.09 270.93,-70.73 298.56,-69.6"/>
<polygon fill="black" stroke="black" points="90.89,-243.3 90.51,-253.89 97.41,-245.85 90.89,-243.3"/>
</g>
<!-- GeographicItem&#45;&gt;Updater -->
<g id="edge17" class="edge">
<title>GeographicItem&#45;&gt;Updater</title>
<path fill="none" stroke="black" stroke-dasharray="5,2" d="M87.46,-244.22C97.88,-190.66 126.67,-87.3 198.37,-42.76 340.44,45.47 556.41,-26.42 634.25,-57.35"/>
<polygon fill="black" stroke="black" points="84.03,-243.52 85.67,-253.99 90.91,-244.78 84.03,-243.52"/>
</g>
<!-- GeoreferencesThroughErrorGeographicItem&#45;&gt;CollectingEventsThroughGeoreferenceErrorGeographicItem -->
<g id="edge2" class="edge">
<title>GeoreferencesThroughErrorGeographicItem&#45;&gt;CollectingEventsThroughGeoreferenceErrorGeographicItem</title>
<path fill="none" stroke="black" stroke-dasharray="1,5" d="M456.35,-485.76C464.21,-485.76 472.18,-485.76 480.21,-485.76"/>
<polygon fill="black" stroke="black" points="480.07,-489.26 490.07,-485.76 480.07,-482.26 480.07,-489.26"/>
</g>
<!-- Georeference&#45;&gt;CollectingEventsThroughGeoreference -->
<g id="edge3" class="edge">
<title>Georeference&#45;&gt;CollectingEventsThroughGeoreference</title>
<path fill="none" stroke="black" stroke-dasharray="1,5" d="M371.97,-431.76C414.25,-431.76 480.28,-431.76 538.8,-431.76"/>
<polygon fill="black" stroke="black" points="538.51,-435.26 548.51,-431.76 538.51,-428.26 538.51,-435.26"/>
</g>
<!-- GeographicArea&#45;&gt;GeographicAreaType -->
<g id="edge5" class="edge">
<title>GeographicArea&#45;&gt;GeographicAreaType</title>
<path fill="none" stroke="black" stroke-dasharray="1,5" d="M717.51,-328.84C758.98,-332.89 817.71,-338.63 864.69,-343.21"/>
<polygon fill="black" stroke="black" points="864.25,-346.69 874.55,-344.18 864.94,-339.72 864.25,-346.69"/>
</g>
<!-- GeographicArea&#45;&gt;ParentGeographicArea -->
<g id="edge10" class="edge">
<title>GeographicArea&#45;&gt;ParentGeographicArea</title>
<path fill="none" stroke="black" stroke-dasharray="1,5" d="M717.51,-318.69C758.05,-314.73 815.05,-309.16 861.48,-304.63"/>
<polygon fill="black" stroke="black" points="861.61,-308.13 871.22,-303.67 860.93,-301.16 861.61,-308.13"/>
</g>
<!-- GeographicAreasGeographicItem&#45;&gt;GeographicArea -->
<g id="edge6" class="edge">
<title>GeographicAreasGeographicItem&#45;&gt;GeographicArea</title>
<path fill="none" stroke="black" stroke-dasharray="1,5" d="M426.93,-323.76C482.92,-323.76 551.31,-323.76 600.13,-323.76"/>
<polygon fill="black" stroke="black" points="599.96,-327.26 609.96,-323.76 599.96,-320.26 599.96,-327.26"/>
</g>
<!-- Role&#45;&gt;Verifier -->
<!-- VerifierRole&#45;&gt;Verifier -->
<g id="edge14" class="edge">
<title>VerifierRole&#45;&gt;Verifier</title>
<path fill="none" stroke="black" stroke-dasharray="1,5" d="M368.91,-127.05C433.99,-132.29 560.48,-142.47 624.45,-147.62"/>
<polygon fill="black" stroke="black" points="623.88,-151.08 634.12,-148.4 624.44,-144.11 623.88,-151.08"/>
</g>
<!-- Version&#45;&gt;PinboardItem -->
<!-- Creator&#45;&gt;Updater -->
<!-- GeographicItem -->
<g id="node1" class="node">
<title>GeographicItem</title>
<g id="a_node1"><a xlink:href="/develop/Data/models.html#geographic-item" xlink:title="GeographicItem" target="_top">
<polygon fill="#cdefab" stroke="#dedede" points="158.37,-270.31 158.37,-285.22 113.16,-295.76 49.22,-295.76 4,-285.22 4,-270.31 49.22,-259.76 113.16,-259.76 158.37,-270.31"/>
<polygon fill="none" stroke="#dedede" points="162.37,-267.13 162.37,-288.39 113.62,-299.76 48.76,-299.76 0,-288.39 0,-267.13 48.76,-255.76 113.62,-255.76 162.37,-267.13"/>
<text text-anchor="middle" x="81.19" y="-272.71" font-family="Times,serif" font-size="14.00">GeographicItem</text>
</a>
</g>
</g>
<!-- CachedMapItem -->
<g id="node2" class="node">
<title>CachedMapItem</title>
<g id="a_node2"><a xlink:href="/develop/Data/models.html#cached-map-item" xlink:title="CachedMapItem" target="_top">
<polygon fill="#eeefff" stroke="#dddeee" points="380.87,-557.76 273.37,-557.76 273.37,-521.76 380.87,-521.76 380.87,-557.76"/>
<text text-anchor="middle" x="327.12" y="-534.71" font-family="Times,serif" font-size="14.00">CachedMapItem</text>
</a>
</g>
</g>
<!-- GeoreferencesThroughErrorGeographicItem -->
<g id="node3" class="node">
<title>GeoreferencesThroughErrorGeographicItem</title>
<g id="a_node3"><a xlink:href="/develop/Data/models.html#georeferences-through-error-geographic-item" xlink:title="GeoreferencesThroughErrorGeographicItem" target="_top">
<polygon fill="#eeefff" stroke="#dddeee" points="455.87,-503.76 198.37,-503.76 198.37,-467.76 455.87,-467.76 455.87,-503.76"/>
<text text-anchor="middle" x="327.12" y="-480.71" font-family="Times,serif" font-size="14.00">GeoreferencesThroughErrorGeographicItem</text>
</a>
</g>
</g>
<!-- CollectingEventsThroughGeoreferenceErrorGeographicItem -->
<g id="node4" class="node">
<title>CollectingEventsThroughGeoreferenceErrorGeographicItem</title>
<g id="a_node4"><a xlink:href="/develop/Data/models.html#collecting-events-through-georeference-error-geographic-item" xlink:title="CollectingEventsThroughGeoreferenceErrorGeographicItem" target="_top">
<polygon fill="#eeefff" stroke="#dddeee" points="837.12,-503.76 491.87,-503.76 491.87,-467.76 837.12,-467.76 837.12,-503.76"/>
<text text-anchor="middle" x="664.5" y="-480.71" font-family="Times,serif" font-size="14.00">CollectingEventsThroughGeoreferenceErrorGeographicItem</text>
</a>
</g>
</g>
<!-- Georeference -->
<g id="node5" class="node">
<title>Georeference</title>
<g id="a_node5"><a xlink:href="/develop/Data/models.html#georeference" xlink:title="Georeference" target="_top">
<polygon fill="#eeefff" stroke="#dddeee" points="371.5,-449.76 282.75,-449.76 282.75,-413.76 371.5,-413.76 371.5,-449.76"/>
<text text-anchor="middle" x="327.12" y="-426.71" font-family="Times,serif" font-size="14.00">Georeference</text>
</a>
</g>
</g>
<!-- CollectingEventsThroughGeoreference -->
<g id="node6" class="node">
<title>CollectingEventsThroughGeoreference</title>
<g id="a_node6"><a xlink:href="/develop/Data/models.html#collecting-events-through-georeference" xlink:title="CollectingEventsThroughGeoreference" target="_top">
<polygon fill="#eeefff" stroke="#dddeee" points="778.62,-449.76 550.37,-449.76 550.37,-413.76 778.62,-413.76 778.62,-449.76"/>
<text text-anchor="middle" x="664.5" y="-426.71" font-family="Times,serif" font-size="14.00">CollectingEventsThroughGeoreference</text>
</a>
</g>
</g>
<!-- Gazetteer -->
<g id="node7" class="node">
<title>Gazetteer</title>
<g id="a_node7"><a xlink:href="/develop/Data/models.html#gazetteer" xlink:title="Gazetteer" target="_top">
<polygon fill="#eeefff" stroke="#dddeee" points="361,-395.76 293.25,-395.76 293.25,-359.76 361,-359.76 361,-395.76"/>
<text text-anchor="middle" x="327.12" y="-372.71" font-family="Times,serif" font-size="14.00">Gazetteer</text>
</a>
</g>
</g>
<!-- GeographicArea -->
<g id="node8" class="node">
<title>GeographicArea</title>
<g id="a_node8"><a xlink:href="/develop/Data/models.html#geographic-area" xlink:title="GeographicArea" target="_top">
<polygon fill="#eeefff" stroke="#dddeee" points="717.12,-341.76 611.87,-341.76 611.87,-305.76 717.12,-305.76 717.12,-341.76"/>
<text text-anchor="middle" x="664.5" y="-318.71" font-family="Times,serif" font-size="14.00">GeographicArea</text>
</a>
</g>
</g>
<!-- GeographicAreaType -->
<g id="node9" class="node">
<title>GeographicAreaType</title>
<g id="a_node9"><a xlink:href="/develop/Data/models.html#geographic-area-type" xlink:title="GeographicAreaType" target="_top">
<polygon fill="#eeefff" stroke="#dddeee" points="1009.5,-368.76 876.5,-368.76 876.5,-332.76 1009.5,-332.76 1009.5,-368.76"/>
<text text-anchor="middle" x="943" y="-345.71" font-family="Times,serif" font-size="14.00">GeographicAreaType</text>
</a>
</g>
</g>
<!-- GeographicAreasGeographicItem -->
<g id="node10" class="node">
<title>GeographicAreasGeographicItem</title>
<g id="a_node10"><a xlink:href="/develop/Data/models.html#geographic-areas-geographic-item" xlink:title="GeographicAreasGeographicItem" target="_top">
<polygon fill="#eeefff" stroke="#dddeee" points="426.62,-341.76 227.62,-341.76 227.62,-305.76 426.62,-305.76 426.62,-341.76"/>
<text text-anchor="middle" x="327.12" y="-318.71" font-family="Times,serif" font-size="14.00">GeographicAreasGeographicItem</text>
</a>
</g>
</g>
<!-- ParentGeographicArea -->
<g id="node11" class="node">
<title>ParentGeographicArea</title>
<g id="a_node11"><a xlink:href="/develop/Data/models.html#parent-geographic-area" xlink:title="ParentGeographicArea" target="_top">
<polygon fill="#eeefff" stroke="#dddeee" points="1012.87,-314.76 873.12,-314.76 873.12,-278.76 1012.87,-278.76 1012.87,-314.76"/>
<text text-anchor="middle" x="943" y="-291.71" font-family="Times,serif" font-size="14.00">ParentGeographicArea</text>
</a>
</g>
</g>
<!-- PinboardItem -->
<g id="node12" class="node">
<title>PinboardItem</title>
<g id="a_node12"><a xlink:href="/develop/Data/models.html#pinboard-item" xlink:title="PinboardItem" target="_top">
<polygon fill="#eeefff" stroke="#dddeee" points="709.62,-249.76 619.37,-249.76 619.37,-213.76 709.62,-213.76 709.62,-249.76"/>
<text text-anchor="middle" x="664.5" y="-226.71" font-family="Times,serif" font-size="14.00">PinboardItem</text>
</a>
</g>
</g>
<!-- Role -->
<g id="node13" class="node">
<title>Role</title>
<g id="a_node13"><a xlink:href="/develop/Data/models.html#role" xlink:title="Role" target="_top">
<polygon fill="#eeefff" stroke="#dddeee" points="354.12,-195.76 300.12,-195.76 300.12,-159.76 354.12,-159.76 354.12,-195.76"/>
<text text-anchor="middle" x="327.12" y="-172.71" font-family="Times,serif" font-size="14.00">Role</text>
</a>
</g>
</g>
<!-- VerifierRole -->
<g id="node14" class="node">
<title>VerifierRole</title>
<g id="a_node14"><a xlink:href="/develop/Data/models.html#verifier-role" xlink:title="VerifierRole" target="_top">
<polygon fill="#eeefff" stroke="#dddeee" points="368.5,-141.76 285.75,-141.76 285.75,-105.76 368.5,-105.76 368.5,-141.76"/>
<text text-anchor="middle" x="327.12" y="-118.71" font-family="Times,serif" font-size="14.00">VerifierRole</text>
</a>
</g>
</g>
<!-- Verifier -->
<g id="node15" class="node">
<title>Verifier</title>
<g id="a_node15"><a xlink:href="/develop/Data/models.html#verifier" xlink:title="Verifier" target="_top">
<polygon fill="#eeefff" stroke="#dddeee" points="693.12,-168.76 635.87,-168.76 635.87,-132.76 693.12,-132.76 693.12,-168.76"/>
<text text-anchor="middle" x="664.5" y="-145.71" font-family="Times,serif" font-size="14.00">Verifier</text>
</a>
</g>
</g>
<!-- Version -->
<g id="node16" class="node">
<title>Version</title>
<g id="a_node16"><a xlink:href="/develop/Data/models.html#version" xlink:title="Version" target="_top">
<polygon fill="#eeefff" stroke="#dddeee" points="355.75,-249.76 298.5,-249.76 298.5,-213.76 355.75,-213.76 355.75,-249.76"/>
<text text-anchor="middle" x="327.12" y="-226.71" font-family="Times,serif" font-size="14.00">Version</text>
</a>
</g>
</g>
<!-- Creator -->
<g id="node17" class="node">
<title>Creator</title>
<g id="a_node17"><a xlink:href="/develop/Data/models.html#creator" xlink:title="Creator" target="_top">
<polygon fill="#eeefff" stroke="#dddeee" points="355.37,-87.76 298.87,-87.76 298.87,-51.76 355.37,-51.76 355.37,-87.76"/>
<text text-anchor="middle" x="327.12" y="-64.71" font-family="Times,serif" font-size="14.00">Creator</text>
</a>
</g>
</g>
<!-- Updater -->
<g id="node18" class="node">
<title>Updater</title>
<g id="a_node18"><a xlink:href="/develop/Data/models.html#updater" xlink:title="Updater" target="_top">
<polygon fill="#eeefff" stroke="#dddeee" points="694.25,-87.76 634.75,-87.76 634.75,-51.76 694.25,-51.76 694.25,-87.76"/>
<text text-anchor="middle" x="664.5" y="-64.71" font-family="Times,serif" font-size="14.00">Updater</text>
</a>
</g>
</g>
</g>
</svg>
