<?xml version="1.0" encoding="UTF-8" standalone="no"?>
<!DOCTYPE svg PUBLIC "-//W3C//DTD SVG 1.1//EN"
 "http://www.w3.org/Graphics/SVG/1.1/DTD/svg11.dtd">
<!-- Generated by graphviz version 2.50.0 (20211204.2007)
 -->
<!-- Title: Georeference Pages: 1 -->
<svg width="828pt" height="682pt"
 viewBox="0.00 0.00 827.51 681.66" xmlns="http://www.w3.org/2000/svg" xmlns:xlink="http://www.w3.org/1999/xlink">
<g id="graph0" class="graph" transform="scale(1 1) rotate(0) translate(4 677.66)">
<title>Georeference</title>
<polygon fill="white" stroke="transparent" points="-4,4 -4,-677.66 823.51,-677.66 823.51,4 -4,4"/>
<!-- Citation&#45;&gt;Source -->
<g id="edge15" class="edge">
<title>Citation&#45;&gt;Source</title>
<path fill="none" stroke="black" stroke-dasharray="1,5" d="M124.17,-600.66C193.01,-600.66 337.38,-600.66 405.04,-600.66"/>
<polygon fill="black" stroke="black" points="405.22,-604.16 415.22,-600.66 405.22,-597.16 405.22,-604.16"/>
</g>
<!-- Citation&#45;&gt;CitationTopic -->
<g id="edge1" class="edge">
<title>Citation&#45;&gt;CitationTopic</title>
<path fill="none" stroke="black" stroke-dasharray="1,5" d="M118.5,-610.24C145.63,-618.28 184.96,-629.92 217,-639.41"/>
<polygon fill="black" stroke="black" points="216.11,-642.79 226.69,-642.28 218.1,-636.08 216.11,-642.79"/>
</g>
<!-- Confidence&#45;&gt;ConfidenceLevel -->
<g id="edge4" class="edge">
<title>Confidence&#45;&gt;ConfidenceLevel</title>
<path fill="none" stroke="black" stroke-dasharray="1,5" d="M135.92,-275.39C158.01,-275.28 184.29,-275.13 207.82,-275.01"/>
<polygon fill="black" stroke="black" points="208.09,-278.51 218.07,-274.95 208.05,-271.51 208.09,-278.51"/>
</g>
<!-- Tag&#45;&gt;Keyword -->
<g id="edge9" class="edge">
<title>Tag&#45;&gt;Keyword</title>
<path fill="none" stroke="black" stroke-dasharray="1,5" d="M112.36,-220.66C142.67,-220.66 193,-220.66 229.03,-220.66"/>
<polygon fill="black" stroke="black" points="229.24,-224.16 239.24,-220.66 229.24,-217.16 229.24,-224.16"/>
</g>
<!-- ProtocolRelationship&#45;&gt;Protocol -->
<g id="edge13" class="edge">
<title>ProtocolRelationship&#45;&gt;Protocol</title>
<path fill="none" stroke="black" stroke-dasharray="1,5" d="M170.32,-166.66C191.67,-166.66 213.63,-166.66 231.65,-166.66"/>
<polygon fill="black" stroke="black" points="231.77,-170.16 241.77,-166.66 231.77,-163.16 231.77,-170.16"/>
</g>
<!-- CollectingEvent&#45;&gt;CollectionObject -->
<g id="edge3" class="edge">
<title>CollectingEvent&#45;&gt;CollectionObject</title>
<path fill="none" stroke="black" stroke-dasharray="1,5" d="M494.76,-360.66C509.67,-360.66 526.13,-360.66 541.71,-360.66"/>
<polygon fill="black" stroke="black" points="541.79,-364.16 551.79,-360.66 541.79,-357.16 541.79,-364.16"/>
</g>
<!-- Source&#45;&gt;SubsequentCitation -->
<!-- Source&#45;&gt;OriginCitation -->
<!-- Georeference&#45;&gt;Citation -->
<g id="edge2" class="edge">
<title>Georeference&#45;&gt;Citation</title>
<path fill="none" stroke="black" d="M256.54,-354.82C222.36,-404.14 140.15,-522.75 103.86,-575.1"/>
<polygon fill="black" stroke="black" points="100.86,-573.28 98.04,-583.49 106.62,-577.27 100.86,-573.28"/>
</g>
<!-- Georeference&#45;&gt;Confidence -->
<g id="edge5" class="edge">
<title>Georeference&#45;&gt;Confidence</title>
<path fill="none" stroke="black" d="M222.26,-317.43C194.84,-309.02 160.94,-298.62 133.84,-290.3"/>
<polygon fill="black" stroke="black" points="134.77,-286.92 124.18,-287.33 132.71,-293.61 134.77,-286.92"/>
</g>
<!-- Georeference&#45;&gt;DataAttribute -->
<g id="edge6" class="edge">
<title>Georeference&#45;&gt;DataAttribute</title>
<path fill="none" stroke="black" d="M220.12,-347.16C194.85,-354.23 164.49,-362.73 139.07,-369.85"/>
<polygon fill="black" stroke="black" points="137.91,-366.54 129.22,-372.6 139.8,-373.28 137.91,-366.54"/>
</g>
<!-- Georeference&#45;&gt;Tag -->
<g id="edge18" class="edge">
<title>Georeference&#45;&gt;Tag</title>
<path fill="none" stroke="black" d="M227.9,-315.89C220.25,-311.89 212.7,-307.15 206.28,-301.66 184.65,-283.15 192.99,-265.84 170.28,-248.66 156.18,-237.99 137.8,-231.26 121.82,-227.08"/>
<polygon fill="black" stroke="black" points="122.26,-223.59 111.73,-224.69 120.65,-230.4 122.26,-223.59"/>
</g>
<!-- Georeference&#45;&gt;Note -->
<g id="edge10" class="edge">
<title>Georeference&#45;&gt;Note</title>
<path fill="none" stroke="black" d="M205.94,-331.95C178.24,-331.65 147.04,-331.32 123.43,-331.06"/>
<polygon fill="black" stroke="black" points="123.19,-327.56 113.15,-330.95 123.11,-334.56 123.19,-327.56"/>
</g>
<!-- Georeference&#45;&gt;ProtocolRelationship -->
<g id="edge12" class="edge">
<title>Georeference&#45;&gt;ProtocolRelationship</title>
<path fill="none" stroke="black" d="M225.23,-316.5C218.2,-312.49 211.55,-307.6 206.28,-301.66 172.71,-263.81 206.26,-229.24 170.28,-193.66 166.33,-189.75 161.81,-186.41 156.96,-183.55"/>
<polygon fill="black" stroke="black" points="158.42,-180.36 147.93,-178.9 155.22,-186.59 158.42,-180.36"/>
</g>
<!-- Georeference&#45;&gt;CollectingEvent -->
<g id="edge22" class="edge">
<title>Georeference&#45;&gt;CollectingEvent</title>
<path fill="none" stroke="black" stroke-dasharray="5,2" d="M348.84,-345.18C362.89,-347.53 377.27,-349.93 390.38,-352.12"/>
<polygon fill="black" stroke="black" points="349.14,-341.68 338.7,-343.49 347.99,-348.59 349.14,-341.68"/>
</g>
<!-- Georeference&#45;&gt;Source -->
<g id="edge29" class="edge">
<title>Georeference&#45;&gt;Source</title>
<path fill="none" stroke="black" stroke-dasharray="1,5" d="M280.34,-364.69C291.71,-413.89 319.61,-508.58 375.51,-567.66 383.88,-576.52 395.15,-583.35 406,-588.43"/>
<polygon fill="none" stroke="black" points="274.25,-355.78 282.06,-354.04 283.8,-361.85 275.99,-363.59 274.25,-355.78"/>
<polyline fill="none" stroke="black" points="279.9,-362.72 280.33,-364.67 "/>
<polygon fill="none" stroke="black" points="416.93,-588.79 413.76,-596.14 406.41,-592.97 409.58,-585.62 416.93,-588.79"/>
<polyline fill="none" stroke="black" points="408,-589.3 406.16,-588.51 "/>
</g>
<!-- Georeference&#45;&gt;GeoreferencerRole -->
<g id="edge7" class="edge">
<title>Georeference&#45;&gt;GeoreferencerRole</title>
<path fill="none" stroke="black" d="M339.66,-322.07C350.54,-320.32 361.85,-318.49 372.81,-316.73"/>
<polygon fill="black" stroke="black" points="373.43,-320.17 382.74,-315.13 372.31,-313.26 373.43,-320.17"/>
</g>
<!-- Georeference&#45;&gt;PinboardItem -->
<g id="edge11" class="edge">
<title>Georeference&#45;&gt;PinboardItem</title>
<path fill="none" stroke="black" d="M313.86,-314.77C322.42,-310.67 331.35,-306.17 339.51,-301.66 356.12,-292.48 358.65,-287.4 375.51,-278.66 379.45,-276.62 383.58,-274.62 387.77,-272.69"/>
<polygon fill="black" stroke="black" points="389.27,-275.85 396.98,-268.59 386.42,-269.46 389.27,-275.85"/>
</g>
<!-- Georeference&#45;&gt;Role -->
<g id="edge14" class="edge">
<title>Georeference&#45;&gt;Role</title>
<path fill="none" stroke="black" d="M319.31,-316.33C326.65,-312.32 333.73,-307.46 339.51,-301.66 366.17,-274.9 348.15,-250.71 375.51,-224.66 383.95,-216.62 395.11,-210.84 405.85,-206.75"/>
<polygon fill="black" stroke="black" points="407.17,-210 415.5,-203.45 404.91,-203.38 407.17,-210"/>
</g>
<!-- Georeference&#45;&gt;SubsequentCitation -->
<g id="edge16" class="edge">
<title>Georeference&#45;&gt;SubsequentCitation</title>
<path fill="none" stroke="black" d="M306.89,-352.85C326.35,-364.16 351.76,-377.91 375.51,-387.66 432.88,-411.23 452.32,-402.63 509.51,-426.66 529.77,-435.18 551.2,-446.94 568.65,-457.31"/>
<polygon fill="black" stroke="black" points="567.02,-460.41 577.39,-462.58 570.64,-454.42 567.02,-460.41"/>
</g>
<!-- Georeference&#45;&gt;VerifierRole -->
<g id="edge20" class="edge">
<title>Georeference&#45;&gt;VerifierRole</title>
<path fill="none" stroke="black" d="M320.84,-316.73C327.83,-312.7 334.4,-307.74 339.51,-301.66 378.35,-255.43 335.45,-215.84 375.51,-170.66 380.03,-165.56 385.67,-161.4 391.72,-158.02"/>
<polygon fill="black" stroke="black" points="393.35,-161.12 400.82,-153.6 390.29,-154.82 393.35,-161.12"/>
</g>
<!-- Georeference&#45;&gt;Creator -->
<g id="edge23" class="edge">
<title>Georeference&#45;&gt;Creator</title>
<path fill="none" stroke="black" stroke-dasharray="5,2" d="M330.56,-311.05C333.92,-308.27 336.96,-305.16 339.51,-301.66 412.58,-201.3 282.24,-106.6 375.51,-24.66 432.44,25.35 530.23,-12.93 577.84,-36.59"/>
<polygon fill="black" stroke="black" points="328.39,-308.3 322.23,-316.92 332.42,-314.02 328.39,-308.3"/>
</g>
<!-- Georeference&#45;&gt;ErrorGeographicItem -->
<g id="edge24" class="edge">
<title>Georeference&#45;&gt;ErrorGeographicItem</title>
<path fill="none" stroke="black" stroke-dasharray="5,2" d="M288.47,-363.94C305.27,-396.97 335.76,-448.61 375.51,-480.66 379.65,-484 384.26,-486.99 389.07,-489.63"/>
<polygon fill="black" stroke="black" points="291.48,-362.13 283.9,-354.74 285.21,-365.25 291.48,-362.13"/>
</g>
<!-- Georeference&#45;&gt;GeographicItem -->
<g id="edge25" class="edge">
<title>Georeference&#45;&gt;GeographicItem</title>
<path fill="none" stroke="black" stroke-dasharray="5,2" d="M302.82,-361.76C322.28,-380.35 349.11,-404.16 375.51,-421.66 383.04,-426.66 391.47,-431.34 399.73,-435.51"/>
<polygon fill="black" stroke="black" points="305.1,-359.1 295.48,-354.66 300.24,-364.13 305.1,-359.1"/>
</g>
<!-- Georeference&#45;&gt;Project -->
<g id="edge26" class="edge">
<title>Georeference&#45;&gt;Project</title>
<path fill="none" stroke="black" stroke-dasharray="5,2" d="M329.97,-311.31C333.54,-308.47 336.79,-305.27 339.51,-301.66 398.67,-223.28 316.74,-162.34 375.51,-83.66 385.03,-70.91 400.99,-62.98 414.83,-58.21"/>
<polygon fill="black" stroke="black" points="327.98,-308.43 321.72,-316.98 331.94,-314.2 327.98,-308.43"/>
</g>
<!-- Georeference&#45;&gt;Updater -->
<g id="edge27" class="edge">
<title>Georeference&#45;&gt;Updater</title>
<path fill="none" stroke="black" stroke-dasharray="5,2" d="M329.86,-311.23C333.45,-308.4 336.74,-305.23 339.51,-301.66 390.92,-235.53 314.45,-174 375.51,-116.66 423.21,-71.87 603.45,-92.05 667.51,-78.66 689.23,-74.12 713.28,-67.09 731.48,-61.33"/>
<polygon fill="black" stroke="black" points="327.87,-308.35 321.57,-316.86 331.8,-314.13 327.87,-308.35"/>
</g>
<!-- Georeference&#45;&gt;OriginCitation -->
<g id="edge28" class="edge">
<title>Georeference&#45;&gt;OriginCitation</title>
<path fill="none" stroke="black" d="M280.58,-364.67C291.83,-410.09 319.09,-492.43 375.51,-534.66 402.21,-554.66 489.45,-566.29 548.48,-572.06"/>
<polygon fill="none" stroke="black" points="274.34,-355.68 282.13,-353.84 283.97,-361.63 276.18,-363.47 274.34,-355.68"/>
<polyline fill="none" stroke="black" points="280.08,-362.55 280.54,-364.49 "/>
<polygon fill="none" stroke="black" points="559.16,-569.05 558.41,-577.02 550.44,-576.26 551.2,-568.3 559.16,-569.05"/>
<polyline fill="none" stroke="black" points="550.82,-572.28 548.83,-572.09 "/>
</g>
<!-- CitationTopic&#45;&gt;Topic -->
<g id="edge19" class="edge">
<title>CitationTopic&#45;&gt;Topic</title>
<path fill="none" stroke="black" stroke-dasharray="1,5" d="M319.25,-655.66C346.23,-655.66 379.99,-655.66 405.2,-655.66"/>
<polygon fill="black" stroke="black" points="405.43,-659.16 415.43,-655.66 405.43,-652.16 405.43,-659.16"/>
</g>
<!-- GeoreferencerRole&#45;&gt;Georeferencer -->
<g id="edge8" class="edge">
<title>GeoreferencerRole&#45;&gt;Georeferencer</title>
<path fill="none" stroke="black" stroke-dasharray="1,5" d="M502.45,-305.66C517.67,-305.66 534.01,-305.66 549.09,-305.66"/>
<polygon fill="black" stroke="black" points="549.3,-309.16 559.3,-305.66 549.3,-302.16 549.3,-309.16"/>
</g>
<!-- Role&#45;&gt;Verifier -->
<!-- SubsequentCitation&#45;&gt;SubsequentSource -->
<g id="edge17" class="edge">
<title>SubsequentCitation&#45;&gt;SubsequentSource</title>
<path fill="none" stroke="black" stroke-dasharray="1,5" d="M667.54,-480.66C675.87,-480.66 684.48,-480.66 692.93,-480.66"/>
<polygon fill="black" stroke="black" points="693.15,-484.16 703.15,-480.66 693.15,-477.16 693.15,-484.16"/>
</g>
<!-- VerifierRole&#45;&gt;Verifier -->
<g id="edge21" class="edge">
<title>VerifierRole&#45;&gt;Verifier</title>
<path fill="none" stroke="black" stroke-dasharray="1,5" d="M484.39,-150.48C509.98,-154.74 542.71,-160.2 567.7,-164.36"/>
<polygon fill="black" stroke="black" points="567.45,-167.87 577.89,-166.06 568.6,-160.96 567.45,-167.87"/>
</g>
<!-- Creator&#45;&gt;Updater -->
<!-- Project&#45;&gt;Creator -->
<!-- Citation -->
<g id="node1" class="node">
<title>Citation</title>
<g id="a_node1"><a xlink:href="/develop/Data/models.html#citation" xlink:title="Citation" target="_top">
<ellipse fill="#abcdef" stroke="#dddeee" cx="85.14" cy="-600.66" rx="38.99" ry="18"/>
<text text-anchor="middle" x="85.14" y="-596.96" font-family="Times,serif" font-size="14.00">Citation</text>
</a>
</g>
</g>
<!-- Confidence -->
<g id="node2" class="node">
<title>Confidence</title>
<g id="a_node2"><a xlink:href="/develop/Data/models.html#confidence" xlink:title="Confidence" target="_top">
<ellipse fill="#abcdef" stroke="#dddeee" cx="85.14" cy="-275.66" rx="50.89" ry="18"/>
<text text-anchor="middle" x="85.14" y="-271.96" font-family="Times,serif" font-size="14.00">Confidence</text>
</a>
</g>
</g>
<!-- DataAttribute -->
<g id="node3" class="node">
<title>DataAttribute</title>
<g id="a_node3"><a xlink:href="/develop/Data/models.html#data-attribute" xlink:title="DataAttribute" target="_top">
<ellipse fill="#abcdef" stroke="#dddeee" cx="85.14" cy="-384.66" rx="59.29" ry="18"/>
<text text-anchor="middle" x="85.14" y="-380.96" font-family="Times,serif" font-size="14.00">DataAttribute</text>
</a>
</g>
</g>
<!-- Tag -->
<g id="node4" class="node">
<title>Tag</title>
<g id="a_node4"><a xlink:href="/develop/Data/models.html#tag" xlink:title="Tag" target="_top">
<ellipse fill="#abcdef" stroke="#dddeee" cx="85.14" cy="-220.66" rx="27" ry="18"/>
<text text-anchor="middle" x="85.14" y="-216.96" font-family="Times,serif" font-size="14.00">Tag</text>
</a>
</g>
</g>
<!-- Note -->
<g id="node5" class="node">
<title>Note</title>
<g id="a_node5"><a xlink:href="/develop/Data/models.html#note" xlink:title="Note" target="_top">
<ellipse fill="#abcdef" stroke="#dddeee" cx="85.14" cy="-330.66" rx="27.9" ry="18"/>
<text text-anchor="middle" x="85.14" y="-326.96" font-family="Times,serif" font-size="14.00">Note</text>
</a>
</g>
</g>
<!-- ProtocolRelationship -->
<g id="node6" class="node">
<title>ProtocolRelationship</title>
<g id="a_node6"><a xlink:href="/develop/Data/models.html#protocol-relationship" xlink:title="ProtocolRelationship" target="_top">
<ellipse fill="#abcdef" stroke="#dddeee" cx="85.14" cy="-166.66" rx="85.29" ry="18"/>
<text text-anchor="middle" x="85.14" y="-162.96" font-family="Times,serif" font-size="14.00">ProtocolRelationship</text>
</a>
</g>
</g>
<!-- CollectingEvent -->
<g id="node7" class="node">
<title>CollectingEvent</title>
<g id="a_node7"><a xlink:href="/develop/Data/models.html#collecting-event" xlink:title="CollectingEvent" target="_top">
<path fill="#fedcba" stroke="#dddeee" d="M402.51,-342.66C402.51,-342.66 482.51,-342.66 482.51,-342.66 488.51,-342.66 494.51,-348.66 494.51,-354.66 494.51,-354.66 494.51,-366.66 494.51,-366.66 494.51,-372.66 488.51,-378.66 482.51,-378.66 482.51,-378.66 402.51,-378.66 402.51,-378.66 396.51,-378.66 390.51,-372.66 390.51,-366.66 390.51,-366.66 390.51,-354.66 390.51,-354.66 390.51,-348.66 396.51,-342.66 402.51,-342.66"/>
<text text-anchor="middle" x="442.51" y="-356.96" font-family="Times,serif" font-size="14.00">CollectingEvent</text>
</a>
</g>
</g>
<!-- CollectionObject -->
<g id="node8" class="node">
<title>CollectionObject</title>
<g id="a_node8"><a xlink:href="/develop/Data/models.html#collection-object" xlink:title="CollectionObject" target="_top">
<path fill="#fedcba" stroke="#dddeee" d="M564.01,-342.66C564.01,-342.66 649.01,-342.66 649.01,-342.66 655.01,-342.66 661.01,-348.66 661.01,-354.66 661.01,-354.66 661.01,-366.66 661.01,-366.66 661.01,-372.66 655.01,-378.66 649.01,-378.66 649.01,-378.66 564.01,-378.66 564.01,-378.66 558.01,-378.66 552.01,-372.66 552.01,-366.66 552.01,-366.66 552.01,-354.66 552.01,-354.66 552.01,-348.66 558.01,-342.66 564.01,-342.66"/>
<text text-anchor="middle" x="606.51" y="-356.96" font-family="Times,serif" font-size="14.00">CollectionObject</text>
</a>
</g>
</g>
<!-- Source -->
<g id="node9" class="node">
<title>Source</title>
<g id="a_node9"><a xlink:href="/develop/Data/models.html#source" xlink:title="Source" target="_top">
<path fill="#fedcba" stroke="#dddeee" d="M427.51,-582.66C427.51,-582.66 457.51,-582.66 457.51,-582.66 463.51,-582.66 469.51,-588.66 469.51,-594.66 469.51,-594.66 469.51,-606.66 469.51,-606.66 469.51,-612.66 463.51,-618.66 457.51,-618.66 457.51,-618.66 427.51,-618.66 427.51,-618.66 421.51,-618.66 415.51,-612.66 415.51,-606.66 415.51,-606.66 415.51,-594.66 415.51,-594.66 415.51,-588.66 421.51,-582.66 427.51,-582.66"/>
<text text-anchor="middle" x="442.51" y="-596.96" font-family="Times,serif" font-size="14.00">Source</text>
</a>
</g>
</g>
<!-- Georeference -->
<g id="node10" class="node">
<title>Georeference</title>
<g id="a_node10"><a xlink:href="/develop/Data/models.html#georeference" xlink:title="Georeference" target="_top">
<polygon fill="#cdefab" stroke="#dedede" points="335.61,-325.21 335.61,-340.12 298.87,-350.66 246.92,-350.66 210.18,-340.12 210.18,-325.21 246.92,-314.66 298.87,-314.66 335.61,-325.21"/>
<polygon fill="none" stroke="#dedede" points="339.62,-322.19 339.62,-343.13 299.44,-354.66 246.35,-354.66 206.17,-343.13 206.17,-322.19 246.35,-310.66 299.44,-310.66 339.62,-322.19"/>
<text text-anchor="middle" x="272.9" y="-328.96" font-family="Times,serif" font-size="14.00">Georeference</text>
</a>
</g>
</g>
<!-- CitationTopic -->
<g id="node11" class="node">
<title>CitationTopic</title>
<g id="a_node11"><a xlink:href="/develop/Data/models.html#citation-topic" xlink:title="CitationTopic" target="_top">
<polygon fill="#eeefff" stroke="#dddeee" points="318.9,-673.66 226.9,-673.66 226.9,-637.66 318.9,-637.66 318.9,-673.66"/>
<text text-anchor="middle" x="272.9" y="-651.96" font-family="Times,serif" font-size="14.00">CitationTopic</text>
</a>
</g>
</g>
<!-- ConfidenceLevel -->
<g id="node12" class="node">
<title>ConfidenceLevel</title>
<g id="a_node12"><a xlink:href="/develop/Data/models.html#confidence-level" xlink:title="ConfidenceLevel" target="_top">
<polygon fill="#eeefff" stroke="#dddeee" points="327.4,-292.66 218.4,-292.66 218.4,-256.66 327.4,-256.66 327.4,-292.66"/>
<text text-anchor="middle" x="272.9" y="-270.96" font-family="Times,serif" font-size="14.00">ConfidenceLevel</text>
</a>
</g>
</g>
<!-- GeoreferencerRole -->
<g id="node13" class="node">
<title>GeoreferencerRole</title>
<g id="a_node13"><a xlink:href="/develop/Data/models.html#georeferencer-role" xlink:title="GeoreferencerRole" target="_top">
<polygon fill="#eeefff" stroke="#dddeee" points="502.01,-323.66 383.01,-323.66 383.01,-287.66 502.01,-287.66 502.01,-323.66"/>
<text text-anchor="middle" x="442.51" y="-301.96" font-family="Times,serif" font-size="14.00">GeoreferencerRole</text>
</a>
</g>
</g>
<!-- Georeferencer -->
<g id="node14" class="node">
<title>Georeferencer</title>
<g id="a_node14"><a xlink:href="/develop/Data/models.html#georeferencer" xlink:title="Georeferencer" target="_top">
<polygon fill="#eeefff" stroke="#dddeee" points="653.51,-323.66 559.51,-323.66 559.51,-287.66 653.51,-287.66 653.51,-323.66"/>
<text text-anchor="middle" x="606.51" y="-301.96" font-family="Times,serif" font-size="14.00">Georeferencer</text>
</a>
</g>
</g>
<!-- Keyword -->
<g id="node15" class="node">
<title>Keyword</title>
<g id="a_node15"><a xlink:href="/develop/Data/models.html#keyword" xlink:title="Keyword" target="_top">
<polygon fill="#eeefff" stroke="#dddeee" points="306.4,-238.66 239.4,-238.66 239.4,-202.66 306.4,-202.66 306.4,-238.66"/>
<text text-anchor="middle" x="272.9" y="-216.96" font-family="Times,serif" font-size="14.00">Keyword</text>
</a>
</g>
</g>
<!-- PinboardItem -->
<g id="node16" class="node">
<title>PinboardItem</title>
<g id="a_node16"><a xlink:href="/develop/Data/models.html#pinboard-item" xlink:title="PinboardItem" target="_top">
<polygon fill="#eeefff" stroke="#dddeee" points="488.01,-269.66 397.01,-269.66 397.01,-233.66 488.01,-233.66 488.01,-269.66"/>
<text text-anchor="middle" x="442.51" y="-247.96" font-family="Times,serif" font-size="14.00">PinboardItem</text>
</a>
</g>
</g>
<!-- Protocol -->
<g id="node17" class="node">
<title>Protocol</title>
<g id="a_node17"><a xlink:href="/develop/Data/models.html#protocol" xlink:title="Protocol" target="_top">
<polygon fill="#eeefff" stroke="#dddeee" points="303.9,-184.66 241.9,-184.66 241.9,-148.66 303.9,-148.66 303.9,-184.66"/>
<text text-anchor="middle" x="272.9" y="-162.96" font-family="Times,serif" font-size="14.00">Protocol</text>
</a>
</g>
</g>
<!-- Role -->
<g id="node18" class="node">
<title>Role</title>
<g id="a_node18"><a xlink:href="/develop/Data/models.html#role" xlink:title="Role" target="_top">
<polygon fill="#eeefff" stroke="#dddeee" points="469.51,-215.66 415.51,-215.66 415.51,-179.66 469.51,-179.66 469.51,-215.66"/>
<text text-anchor="middle" x="442.51" y="-193.96" font-family="Times,serif" font-size="14.00">Role</text>
</a>
</g>
</g>
<!-- SubsequentCitation -->
<g id="node19" class="node">
<title>SubsequentCitation</title>
<g id="a_node19"><a xlink:href="/develop/Data/models.html#subsequent-citation" xlink:title="SubsequentCitation" target="_top">
<polygon fill="#eeefff" stroke="#dddeee" points="667.51,-498.66 545.51,-498.66 545.51,-462.66 667.51,-462.66 667.51,-498.66"/>
<text text-anchor="middle" x="606.51" y="-476.96" font-family="Times,serif" font-size="14.00">SubsequentCitation</text>
</a>
</g>
</g>
<!-- SubsequentSource -->
<g id="node20" class="node">
<title>SubsequentSource</title>
<g id="a_node20"><a xlink:href="/develop/Data/models.html#subsequent-source" xlink:title="SubsequentSource" target="_top">
<polygon fill="#eeefff" stroke="#dddeee" points="819.51,-498.66 703.51,-498.66 703.51,-462.66 819.51,-462.66 819.51,-498.66"/>
<text text-anchor="middle" x="761.51" y="-476.96" font-family="Times,serif" font-size="14.00">SubsequentSource</text>
</a>
</g>
</g>
<!-- Topic -->
<g id="node21" class="node">
<title>Topic</title>
<g id="a_node21"><a xlink:href="/develop/Data/models.html#topic" xlink:title="Topic" target="_top">
<polygon fill="#eeefff" stroke="#dddeee" points="469.51,-673.66 415.51,-673.66 415.51,-637.66 469.51,-637.66 469.51,-673.66"/>
<text text-anchor="middle" x="442.51" y="-651.96" font-family="Times,serif" font-size="14.00">Topic</text>
</a>
</g>
</g>
<!-- VerifierRole -->
<g id="node22" class="node">
<title>VerifierRole</title>
<g id="a_node22"><a xlink:href="/develop/Data/models.html#verifier-role" xlink:title="VerifierRole" target="_top">
<polygon fill="#eeefff" stroke="#dddeee" points="484.01,-161.66 401.01,-161.66 401.01,-125.66 484.01,-125.66 484.01,-161.66"/>
<text text-anchor="middle" x="442.51" y="-139.96" font-family="Times,serif" font-size="14.00">VerifierRole</text>
</a>
</g>
</g>
<!-- Verifier -->
<g id="node23" class="node">
<title>Verifier</title>
<g id="a_node23"><a xlink:href="/develop/Data/models.html#verifier" xlink:title="Verifier" target="_top">
<polygon fill="#eeefff" stroke="#dddeee" points="635.01,-188.66 578.01,-188.66 578.01,-152.66 635.01,-152.66 635.01,-188.66"/>
<text text-anchor="middle" x="606.51" y="-166.96" font-family="Times,serif" font-size="14.00">Verifier</text>
</a>
</g>
</g>
<!-- Creator -->
<g id="node24" class="node">
<title>Creator</title>
<g id="a_node24"><a xlink:href="/develop/Data/models.html#creator" xlink:title="Creator" target="_top">
<polygon fill="#eeefff" stroke="#dddeee" points="635.01,-69.66 578.01,-69.66 578.01,-33.66 635.01,-33.66 635.01,-69.66"/>
<text text-anchor="middle" x="606.51" y="-47.96" font-family="Times,serif" font-size="14.00">Creator</text>
</a>
</g>
</g>
<!-- ErrorGeographicItem -->
<g id="node25" class="node">
<title>ErrorGeographicItem</title>
<g id="a_node25"><a xlink:href="/develop/Data/models.html#error-geographic-item" xlink:title="ErrorGeographicItem" target="_top">
<polygon fill="#eeefff" stroke="#dddeee" points="509.51,-525.66 375.51,-525.66 375.51,-489.66 509.51,-489.66 509.51,-525.66"/>
<text text-anchor="middle" x="442.51" y="-503.96" font-family="Times,serif" font-size="14.00">ErrorGeographicItem</text>
</a>
</g>
</g>
<!-- GeographicItem -->
<g id="node26" class="node">
<title>GeographicItem</title>
<g id="a_node26"><a xlink:href="/develop/Data/models.html#geographic-item" xlink:title="GeographicItem" target="_top">
<polygon fill="#eeefff" stroke="#dddeee" points="495.01,-471.66 390.01,-471.66 390.01,-435.66 495.01,-435.66 495.01,-471.66"/>
<text text-anchor="middle" x="442.51" y="-449.96" font-family="Times,serif" font-size="14.00">GeographicItem</text>
</a>
</g>
</g>
<!-- Project -->
<g id="node27" class="node">
<title>Project</title>
<g id="a_node27"><a xlink:href="/develop/Data/models.html#project" xlink:title="Project" target="_top">
<polygon fill="#eeefff" stroke="#dddeee" points="470.01,-69.66 415.01,-69.66 415.01,-33.66 470.01,-33.66 470.01,-69.66"/>
<text text-anchor="middle" x="442.51" y="-47.96" font-family="Times,serif" font-size="14.00">Project</text>
</a>
</g>
</g>
<!-- Updater -->
<g id="node28" class="node">
<title>Updater</title>
<g id="a_node28"><a xlink:href="/develop/Data/models.html#updater" xlink:title="Updater" target="_top">
<polygon fill="#eeefff" stroke="#dddeee" points="791.51,-69.66 731.51,-69.66 731.51,-33.66 791.51,-33.66 791.51,-69.66"/>
<text text-anchor="middle" x="761.51" y="-47.96" font-family="Times,serif" font-size="14.00">Updater</text>
</a>
</g>
</g>
<!-- OriginCitation -->
<g id="node29" class="node">
<title>OriginCitation</title>
<g id="a_node29"><a xlink:href="/develop/Data/models.html#origin-citation" xlink:title="OriginCitation" target="_top">
<polygon fill="#eeefff" stroke="#dddeee" points="654.01,-594.66 559.01,-594.66 559.01,-558.66 654.01,-558.66 654.01,-594.66"/>
<text text-anchor="middle" x="606.51" y="-572.96" font-family="Times,serif" font-size="14.00">OriginCitation</text>
</a>
</g>
</g>
</g>
</svg>
