<?xml version="1.0" encoding="UTF-8" standalone="no"?>
<!DOCTYPE svg PUBLIC "-//W3C//DTD SVG 1.1//EN"
 "http://www.w3.org/Graphics/SVG/1.1/DTD/svg11.dtd">
<!-- Generated by graphviz version 12.2.1 (20241206.2353)
 -->
<!-- Title: Georeference Pages: 1 -->
<svg width="857pt" height="928pt"
 viewBox="0.00 0.00 857.03 927.90" xmlns="http://www.w3.org/2000/svg" xmlns:xlink="http://www.w3.org/1999/xlink">
<g id="graph0" class="graph" transform="scale(1 1) rotate(0) translate(4 923.9)">
<title>Georeference</title>
<polygon fill="white" stroke="none" points="-4,4 -4,-923.9 853.03,-923.9 853.03,4 -4,4"/>
<!-- Citation&#45;&gt;Source -->
<g id="edge21" class="edge">
<title>Citation&#45;&gt;Source</title>
<path fill="none" stroke="black" stroke-dasharray="1,5" d="M129.74,-846.9C200.69,-846.9 347.49,-846.9 416.56,-846.9"/>
<polygon fill="black" stroke="black" points="416.23,-850.4 426.23,-846.9 416.23,-843.4 416.23,-850.4"/>
</g>
<!-- Citation&#45;&gt;CitationTopic -->
<g id="edge1" class="edge">
<title>Citation&#45;&gt;CitationTopic</title>
<path fill="none" stroke="black" stroke-dasharray="1,5" d="M123.64,-856.61C152.02,-864.73 193.08,-876.47 226.27,-885.97"/>
<polygon fill="black" stroke="black" points="225.16,-889.29 235.74,-888.67 227.09,-882.56 225.16,-889.29"/>
</g>
<!-- Confidence&#45;&gt;ConfidenceLevel -->
<g id="edge5" class="edge">
<title>Confidence&#45;&gt;ConfidenceLevel</title>
<path fill="none" stroke="black" stroke-dasharray="1,5" d="M142.51,-386.63C165.54,-386.51 192.77,-386.37 217.03,-386.24"/>
<polygon fill="black" stroke="black" points="216.81,-389.74 226.79,-386.19 216.77,-382.74 216.81,-389.74"/>
</g>
<!-- Tag&#45;&gt;Keyword -->
<g id="edge14" class="edge">
<title>Tag&#45;&gt;Keyword</title>
<path fill="none" stroke="black" stroke-dasharray="1,5" d="M116.04,-331.9C147.55,-331.9 200.75,-331.9 238.41,-331.9"/>
<polygon fill="black" stroke="black" points="238.04,-335.4 248.04,-331.9 238.04,-328.4 238.04,-335.4"/>
</g>
<!-- ProtocolRelationship&#45;&gt;Protocol -->
<g id="edge19" class="edge">
<title>ProtocolRelationship&#45;&gt;Protocol</title>
<path fill="none" stroke="black" stroke-dasharray="1,5" d="M177.69,-277.9C199.59,-277.9 222.06,-277.9 240.51,-277.9"/>
<polygon fill="black" stroke="black" points="240.49,-281.4 250.49,-277.9 240.49,-274.4 240.49,-281.4"/>
</g>
<!-- CollectionObject&#45;&gt;Otu -->
<g id="edge16" class="edge">
<title>CollectionObject&#45;&gt;Otu</title>
<path fill="none" stroke="black" stroke-dasharray="1,5" d="M675.45,-552.9C698.63,-552.9 725.23,-552.9 746.27,-552.9"/>
<polygon fill="black" stroke="black" points="746.13,-556.4 756.13,-552.9 746.13,-549.4 746.13,-556.4"/>
</g>
<!-- CollectionObject&#45;&gt;CollectionObjectOtu -->
<g id="edge3" class="edge">
<title>CollectionObject&#45;&gt;CollectionObjectOtu</title>
<path fill="none" stroke="black" stroke-dasharray="1,5" d="M675.45,-534.74C689.31,-530.03 704.39,-524.9 718.77,-520.01"/>
<polygon fill="black" stroke="black" points="719.83,-523.35 728.17,-516.81 717.57,-516.72 719.83,-523.35"/>
</g>
<!-- CollectingEvent&#45;&gt;CollectionObject -->
<g id="edge4" class="edge">
<title>CollectingEvent&#45;&gt;CollectionObject</title>
<path fill="none" stroke="black" stroke-dasharray="1,5" d="M507.03,-552.9C522.23,-552.9 539.11,-552.9 555.09,-552.9"/>
<polygon fill="black" stroke="black" points="555.01,-556.4 565.01,-552.9 555.01,-549.4 555.01,-556.4"/>
</g>
<!-- CollectingEvent&#45;&gt;FieldOccurrence -->
<g id="edge9" class="edge">
<title>CollectingEvent&#45;&gt;FieldOccurrence</title>
<path fill="none" stroke="black" stroke-dasharray="1,5" d="M507.03,-570C522.84,-575.31 540.45,-581.21 556.98,-586.76"/>
<polygon fill="black" stroke="black" points="555.63,-590 566.22,-589.86 557.86,-583.36 555.63,-590"/>
</g>
<!-- Source&#45;&gt;SubsequentCitation -->
<!-- Source&#45;&gt;OriginCitation -->
<!-- Georeference&#45;&gt;Citation -->
<g id="edge2" class="edge">
<title>Georeference&#45;&gt;Citation</title>
<path fill="none" stroke="black" d="M271.28,-466.34C238.45,-535.14 139.25,-743.08 103.09,-818.87"/>
<polygon fill="black" stroke="black" points="100.02,-817.17 98.87,-827.7 106.34,-820.18 100.02,-817.17"/>
</g>
<!-- Georeference&#45;&gt;Confidence -->
<g id="edge6" class="edge">
<title>Georeference&#45;&gt;Confidence</title>
<path fill="none" stroke="black" d="M229.78,-428.43C202.03,-420.2 168.07,-410.13 140.53,-401.97"/>
<polygon fill="black" stroke="black" points="141.58,-398.63 131,-399.14 139.6,-405.34 141.58,-398.63"/>
</g>
<!-- Georeference&#45;&gt;DataAttribute -->
<g id="edge7" class="edge">
<title>Georeference&#45;&gt;DataAttribute</title>
<path fill="none" stroke="black" d="M227.25,-458.71C201.77,-465.6 171.49,-473.78 145.84,-480.72"/>
<polygon fill="black" stroke="black" points="144.99,-477.33 136.25,-483.32 146.82,-484.08 144.99,-477.33"/>
</g>
<!-- Georeference&#45;&gt;Tag -->
<g id="edge24" class="edge">
<title>Georeference&#45;&gt;Tag</title>
<path fill="none" stroke="black" d="M235.29,-427.01C227.54,-423.06 219.92,-418.37 213.43,-412.9 191.64,-394.57 200.24,-376.94 177.43,-359.9 162.65,-348.87 143.38,-342.09 126.66,-337.98"/>
<polygon fill="black" stroke="black" points="127.58,-334.59 117.06,-335.86 126.07,-341.43 127.58,-334.59"/>
</g>
<!-- Georeference&#45;&gt;Note -->
<g id="edge15" class="edge">
<title>Georeference&#45;&gt;Note</title>
<path fill="none" stroke="black" d="M213.3,-443.19C184.97,-442.89 153.17,-442.56 128.92,-442.31"/>
<polygon fill="black" stroke="black" points="129.22,-438.81 119.18,-442.21 129.15,-445.81 129.22,-438.81"/>
</g>
<!-- Georeference&#45;&gt;ProtocolRelationship -->
<g id="edge18" class="edge">
<title>Georeference&#45;&gt;ProtocolRelationship</title>
<path fill="none" stroke="black" d="M232.54,-427.64C225.45,-423.68 218.76,-418.82 213.43,-412.9 179.54,-375.33 213.62,-340.26 177.43,-304.9 173.74,-301.3 169.58,-298.17 165.13,-295.46"/>
<polygon fill="black" stroke="black" points="166.81,-292.4 156.33,-290.87 163.58,-298.6 166.81,-292.4"/>
</g>
<!-- Georeference&#45;&gt;CollectingEvent -->
<g id="edge28" class="edge">
<title>Georeference&#45;&gt;CollectingEvent</title>
<path fill="none" stroke="black" stroke-dasharray="5,2" d="M326.02,-470.85C356.97,-490.69 398.24,-517.14 425.44,-534.58"/>
<polygon fill="black" stroke="black" points="327.95,-467.93 317.64,-465.48 324.17,-473.82 327.95,-467.93"/>
</g>
<!-- Georeference&#45;&gt;Source -->
<g id="edge36" class="edge">
<title>Georeference&#45;&gt;Source</title>
<path fill="none" stroke="black" stroke-dasharray="1,5" d="M284.7,-476.67C287.89,-546.52 304.47,-711.99 388.53,-813.9 396.31,-823.32 407.45,-830.32 418.34,-835.38"/>
<polygon fill="none" stroke="black" points="280.32,-466.96 288.31,-466.64 288.63,-474.64 280.63,-474.95 280.32,-466.96"/>
<polyline fill="none" stroke="black" points="284.63,-474.8 284.71,-476.79"/>
<polygon fill="none" stroke="black" points="428.85,-835.46 425.75,-842.84 418.38,-839.73 421.48,-832.36 428.85,-835.46"/>
<polyline fill="none" stroke="black" points="419.93,-836.05 418.09,-835.27"/>
</g>
<!-- Georeference&#45;&gt;GeoreferencerRole -->
<g id="edge11" class="edge">
<title>Georeference&#45;&gt;GeoreferencerRole</title>
<path fill="none" stroke="black" d="M334.51,-428.07C341.37,-424.06 347.71,-419.08 352.53,-412.9 407.11,-343.15 332.79,-285.73 388.53,-216.9 388.78,-216.6 389.03,-216.3 389.29,-216"/>
<polygon fill="black" stroke="black" points="391.56,-218.66 396.52,-209.3 386.81,-213.53 391.56,-218.66"/>
</g>
<!-- Georeference&#45;&gt;ImportAttribute -->
<g id="edge12" class="edge">
<title>Georeference&#45;&gt;ImportAttribute</title>
<path fill="none" stroke="black" d="M327.63,-426.17C336.09,-422.18 344.75,-417.69 352.53,-412.9 370.04,-402.14 371.2,-394.93 388.53,-383.9 393.04,-381.04 397.83,-378.25 402.7,-375.59"/>
<polygon fill="black" stroke="black" points="404.17,-378.78 411.39,-371.03 400.91,-372.58 404.17,-378.78"/>
</g>
<!-- Georeference&#45;&gt;InternalAttribute -->
<g id="edge13" class="edge">
<title>Georeference&#45;&gt;InternalAttribute</title>
<path fill="none" stroke="black" d="M332.73,-427.52C339.99,-423.56 346.91,-418.73 352.53,-412.9 381.87,-382.48 358.69,-354.82 388.53,-324.9 389.7,-323.73 390.93,-322.61 392.2,-321.54"/>
<polygon fill="black" stroke="black" points="393.88,-324.64 399.98,-315.98 389.81,-318.94 393.88,-324.64"/>
</g>
<!-- Georeference&#45;&gt;PinboardItem -->
<g id="edge17" class="edge">
<title>Georeference&#45;&gt;PinboardItem</title>
<path fill="none" stroke="black" d="M333.81,-427.98C340.85,-423.97 347.42,-419.01 352.53,-412.9 394.34,-362.99 345.9,-320.11 388.53,-270.9 391.71,-267.24 395.45,-264.07 399.52,-261.32"/>
<polygon fill="black" stroke="black" points="401.21,-264.39 408.16,-256.4 397.74,-258.31 401.21,-264.39"/>
</g>
<!-- Georeference&#45;&gt;Role -->
<g id="edge20" class="edge">
<title>Georeference&#45;&gt;Role</title>
<path fill="none" stroke="black" d="M335.2,-428.13C341.89,-424.12 347.98,-419.12 352.53,-412.9 432.91,-303.13 306.32,-217.31 388.53,-108.9 395.56,-99.64 406.32,-93.54 417.11,-89.52"/>
<polygon fill="black" stroke="black" points="417.83,-92.97 426.32,-86.62 415.73,-86.29 417.83,-92.97"/>
</g>
<!-- Georeference&#45;&gt;SubsequentCitation -->
<g id="edge22" class="edge">
<title>Georeference&#45;&gt;SubsequentCitation</title>
<path fill="none" stroke="black" d="M286.4,-466.12C292.99,-514.98 315.94,-631.97 388.53,-688.9 412.87,-707.99 489.81,-717.8 548.37,-722.63"/>
<polygon fill="black" stroke="black" points="548.07,-726.12 558.31,-723.41 548.62,-719.14 548.07,-726.12"/>
</g>
<!-- Georeference&#45;&gt;VerifierRole -->
<g id="edge26" class="edge">
<title>Georeference&#45;&gt;VerifierRole</title>
<path fill="none" stroke="black" d="M334.72,-428.23C341.56,-424.2 347.83,-419.17 352.53,-412.9 419.98,-323.17 319.58,-251.49 388.53,-162.9 392.55,-157.74 397.73,-153.56 403.4,-150.17"/>
<polygon fill="black" stroke="black" points="404.6,-153.49 411.96,-145.87 401.46,-147.23 404.6,-153.49"/>
</g>
<!-- Georeference&#45;&gt;Creator -->
<g id="edge29" class="edge">
<title>Georeference&#45;&gt;Creator</title>
<path fill="none" stroke="black" stroke-dasharray="5,2" d="M345.76,-425.2C359.7,-421.75 374.52,-418.68 388.53,-416.9 447.17,-409.45 462.95,-409.02 521.53,-416.9 545.96,-420.19 572.9,-427.87 592.42,-434.2"/>
<polygon fill="black" stroke="black" points="345.07,-421.77 336.26,-427.65 346.82,-428.54 345.07,-421.77"/>
</g>
<!-- Georeference&#45;&gt;ErrorGeographicItem -->
<g id="edge30" class="edge">
<title>Georeference&#45;&gt;ErrorGeographicItem</title>
<path fill="none" stroke="black" stroke-dasharray="5,2" d="M288.44,-477.46C297.59,-534.31 323.43,-650.32 388.53,-721.9 393.3,-727.15 399.12,-731.63 405.3,-735.43"/>
<polygon fill="black" stroke="black" points="291.93,-477.12 286.96,-467.76 285.01,-478.18 291.93,-477.12"/>
</g>
<!-- Georeference&#45;&gt;GeographicItem -->
<g id="edge31" class="edge">
<title>Georeference&#45;&gt;GeographicItem</title>
<path fill="none" stroke="black" stroke-dasharray="5,2" d="M294.31,-476.93C308.99,-518.9 339.66,-591.12 388.53,-634.9 392.66,-638.6 397.35,-641.82 402.3,-644.64"/>
<polygon fill="black" stroke="black" points="297.69,-475.98 291.16,-467.63 291.06,-478.22 297.69,-475.98"/>
</g>
<!-- Georeference&#45;&gt;Project -->
<g id="edge32" class="edge">
<title>Georeference&#45;&gt;Project</title>
<path fill="none" stroke="black" stroke-dasharray="5,2" d="M363.88,-443.9C386.88,-443.9 410.39,-443.9 427.63,-443.9"/>
<polygon fill="black" stroke="black" points="364.17,-440.4 354.17,-443.9 364.17,-447.4 364.17,-440.4"/>
</g>
<!-- Georeference&#45;&gt;Updater -->
<g id="edge33" class="edge">
<title>Georeference&#45;&gt;Updater</title>
<path fill="none" stroke="black" stroke-dasharray="5,2" d="M344.46,-421.63C347.48,-419.03 350.22,-416.13 352.53,-412.9 399.2,-347.98 329.24,-108.54 388.53,-54.9 486.51,33.71 586.42,6.55 684.53,-81.9 737.29,-129.47 772.17,-358.53 781.36,-425.49"/>
<polygon fill="black" stroke="black" points="342.61,-418.64 336.53,-427.32 346.69,-424.33 342.61,-418.64"/>
</g>
<!-- Georeference&#45;&gt;CachedMapRegister -->
<g id="edge34" class="edge">
<title>Georeference&#45;&gt;CachedMapRegister</title>
<path fill="none" stroke="black" d="M301.51,-475.16C319.83,-505.42 351.11,-550.87 388.53,-579.9 390.54,-581.46 392.65,-582.95 394.83,-584.37"/>
<polygon fill="none" stroke="black" points="293.06,-468.76 299.94,-464.68 304.02,-471.56 297.14,-475.64 293.06,-468.76"/>
<polyline fill="none" stroke="black" points="300.58,-473.6 301.6,-475.32"/>
<polygon fill="none" stroke="black" points="405.14,-585.81 401.07,-592.7 394.18,-588.63 398.25,-581.74 405.14,-585.81"/>
<polyline fill="none" stroke="black" points="396.21,-585.19 394.49,-584.17"/>
</g>
<!-- Georeference&#45;&gt;OriginCitation -->
<g id="edge35" class="edge">
<title>Georeference&#45;&gt;OriginCitation</title>
<path fill="none" stroke="black" d="M283.68,-476.57C284.97,-544.41 298.17,-700.89 388.53,-780.9 413.83,-803.3 503.1,-814.29 563.11,-819.26"/>
<polygon fill="none" stroke="black" points="279.57,-466.64 287.57,-466.55 287.66,-474.55 279.66,-474.64 279.57,-466.64"/>
<polyline fill="none" stroke="black" points="283.66,-474.59 283.68,-476.59"/>
<polygon fill="none" stroke="black" points="573.03,-816.04 572.39,-824.01 564.42,-823.38 565.05,-815.4 573.03,-816.04"/>
<polyline fill="none" stroke="black" points="564.74,-819.39 562.74,-819.23"/>
</g>
<!-- CitationTopic&#45;&gt;Topic -->
<g id="edge25" class="edge">
<title>CitationTopic&#45;&gt;Topic</title>
<path fill="none" stroke="black" stroke-dasharray="1,5" d="M328.66,-901.9C355.97,-901.9 390.5,-901.9 416.41,-901.9"/>
<polygon fill="black" stroke="black" points="416.14,-905.4 426.14,-901.9 416.14,-898.4 416.14,-905.4"/>
</g>
<!-- FieldOccurrence&#45;&gt;FieldOccurrenceOtu -->
<g id="edge8" class="edge">
<title>FieldOccurrence&#45;&gt;FieldOccurrenceOtu</title>
<path fill="none" stroke="black" stroke-dasharray="1,5" d="M674.1,-607.9C685.51,-607.9 697.8,-607.9 709.88,-607.9"/>
<polygon fill="black" stroke="black" points="709.84,-611.4 719.84,-607.9 709.84,-604.4 709.84,-611.4"/>
</g>
<!-- GeoreferencerRole&#45;&gt;GeoreferenceAuthor -->
<g id="edge10" class="edge">
<title>GeoreferencerRole&#45;&gt;GeoreferenceAuthor</title>
<path fill="none" stroke="black" stroke-dasharray="1,5" d="M514.78,-189.9C524.9,-189.9 535.54,-189.9 546.01,-189.9"/>
<polygon fill="black" stroke="black" points="545.75,-193.4 555.75,-189.9 545.75,-186.4 545.75,-193.4"/>
</g>
<!-- Role&#45;&gt;Verifier -->
<!-- SubsequentCitation&#45;&gt;SubsequentSource -->
<g id="edge23" class="edge">
<title>SubsequentCitation&#45;&gt;SubsequentSource</title>
<path fill="none" stroke="black" stroke-dasharray="1,5" d="M682.26,-726.9C693,-726.9 704.25,-726.9 715.2,-726.9"/>
<polygon fill="black" stroke="black" points="714.94,-730.4 724.94,-726.9 714.94,-723.4 714.94,-730.4"/>
</g>
<!-- VerifierRole&#45;&gt;Verifier -->
<g id="edge27" class="edge">
<title>VerifierRole&#45;&gt;Verifier</title>
<path fill="none" stroke="black" stroke-dasharray="1,5" d="M496.57,-129.23C522.4,-124.98 555.68,-119.5 581.17,-115.3"/>
<polygon fill="black" stroke="black" points="581.49,-118.79 590.79,-113.72 580.36,-111.89 581.49,-118.79"/>
</g>
<!-- Creator&#45;&gt;Updater -->
<!-- Project&#45;&gt;Creator -->
<!-- Citation -->
<g id="node1" class="node">
<title>Citation</title>
<g id="a_node1"><a xlink:href="/develop/Data/models.html#citation" xlink:title="Citation" target="_top">
<ellipse fill="#abcdef" stroke="#dddeee" cx="88.71" cy="-846.9" rx="40.6" ry="18"/>
<text text-anchor="middle" x="88.71" y="-841.85" font-family="Times,serif" font-size="14.00">Citation</text>
</a>
</g>
</g>
<!-- Confidence -->
<g id="node2" class="node">
<title>Confidence</title>
<g id="a_node2"><a xlink:href="/develop/Data/models.html#confidence" xlink:title="Confidence" target="_top">
<ellipse fill="#abcdef" stroke="#dddeee" cx="88.71" cy="-386.9" rx="53.4" ry="18"/>
<text text-anchor="middle" x="88.71" y="-381.85" font-family="Times,serif" font-size="14.00">Confidence</text>
</a>
</g>
</g>
<!-- DataAttribute -->
<g id="node3" class="node">
<title>DataAttribute</title>
<g id="a_node3"><a xlink:href="/develop/Data/models.html#data-attribute" xlink:title="DataAttribute" target="_top">
<ellipse fill="#abcdef" stroke="#dddeee" cx="88.71" cy="-495.9" rx="61.59" ry="18"/>
<text text-anchor="middle" x="88.71" y="-490.85" font-family="Times,serif" font-size="14.00">DataAttribute</text>
</a>
</g>
</g>
<!-- Tag -->
<g id="node4" class="node">
<title>Tag</title>
<g id="a_node4"><a xlink:href="/develop/Data/models.html#tag" xlink:title="Tag" target="_top">
<ellipse fill="#abcdef" stroke="#dddeee" cx="88.71" cy="-331.9" rx="27" ry="18"/>
<text text-anchor="middle" x="88.71" y="-326.85" font-family="Times,serif" font-size="14.00">Tag</text>
</a>
</g>
</g>
<!-- Note -->
<g id="node5" class="node">
<title>Note</title>
<g id="a_node5"><a xlink:href="/develop/Data/models.html#note" xlink:title="Note" target="_top">
<ellipse fill="#abcdef" stroke="#dddeee" cx="88.71" cy="-441.9" rx="28.83" ry="18"/>
<text text-anchor="middle" x="88.71" y="-436.85" font-family="Times,serif" font-size="14.00">Note</text>
</a>
</g>
</g>
<!-- ProtocolRelationship -->
<g id="node6" class="node">
<title>ProtocolRelationship</title>
<g id="a_node6"><a xlink:href="/develop/Data/models.html#protocol-relationship" xlink:title="ProtocolRelationship" target="_top">
<ellipse fill="#abcdef" stroke="#dddeee" cx="88.71" cy="-277.9" rx="88.71" ry="18"/>
<text text-anchor="middle" x="88.71" y="-272.85" font-family="Times,serif" font-size="14.00">ProtocolRelationship</text>
</a>
</g>
</g>
<!-- CollectionObject -->
<g id="node7" class="node">
<title>CollectionObject</title>
<g id="a_node7"><a xlink:href="/develop/Data/models.html#collection-object" xlink:title="CollectionObject" target="_top">
<path fill="#fedcba" stroke="#dddeee" d="M578.91,-534.9C578.91,-534.9 663.16,-534.9 663.16,-534.9 669.16,-534.9 675.16,-540.9 675.16,-546.9 675.16,-546.9 675.16,-558.9 675.16,-558.9 675.16,-564.9 669.16,-570.9 663.16,-570.9 663.16,-570.9 578.91,-570.9 578.91,-570.9 572.91,-570.9 566.91,-564.9 566.91,-558.9 566.91,-558.9 566.91,-546.9 566.91,-546.9 566.91,-540.9 572.91,-534.9 578.91,-534.9"/>
<text text-anchor="middle" x="621.03" y="-548.1" font-family="Times,serif" font-size="14.00">CollectionObject</text>
</a>
</g>
</g>
<!-- CollectingEvent -->
<g id="node8" class="node">
<title>CollectingEvent</title>
<g id="a_node8"><a xlink:href="/develop/Data/models.html#collecting-event" xlink:title="CollectingEvent" target="_top">
<path fill="#fedcba" stroke="#dddeee" d="M415.16,-534.9C415.16,-534.9 494.91,-534.9 494.91,-534.9 500.91,-534.9 506.91,-540.9 506.91,-546.9 506.91,-546.9 506.91,-558.9 506.91,-558.9 506.91,-564.9 500.91,-570.9 494.91,-570.9 494.91,-570.9 415.16,-570.9 415.16,-570.9 409.16,-570.9 403.16,-564.9 403.16,-558.9 403.16,-558.9 403.16,-546.9 403.16,-546.9 403.16,-540.9 409.16,-534.9 415.16,-534.9"/>
<text text-anchor="middle" x="455.03" y="-548.1" font-family="Times,serif" font-size="14.00">CollectingEvent</text>
</a>
</g>
</g>
<!-- Otu -->
<g id="node9" class="node">
<title>Otu</title>
<g id="a_node9"><a xlink:href="/develop/Data/models.html#otu" xlink:title="Otu" target="_top">
<path fill="#fedcba" stroke="#dddeee" d="M769.78,-534.9C769.78,-534.9 799.78,-534.9 799.78,-534.9 805.78,-534.9 811.78,-540.9 811.78,-546.9 811.78,-546.9 811.78,-558.9 811.78,-558.9 811.78,-564.9 805.78,-570.9 799.78,-570.9 799.78,-570.9 769.78,-570.9 769.78,-570.9 763.78,-570.9 757.78,-564.9 757.78,-558.9 757.78,-558.9 757.78,-546.9 757.78,-546.9 757.78,-540.9 763.78,-534.9 769.78,-534.9"/>
<text text-anchor="middle" x="784.78" y="-548.1" font-family="Times,serif" font-size="14.00">Otu</text>
</a>
</g>
</g>
<!-- Source -->
<g id="node10" class="node">
<title>Source</title>
<g id="a_node10"><a xlink:href="/develop/Data/models.html#source" xlink:title="Source" target="_top">
<path fill="#fedcba" stroke="#dddeee" d="M440.03,-828.9C440.03,-828.9 470.03,-828.9 470.03,-828.9 476.03,-828.9 482.03,-834.9 482.03,-840.9 482.03,-840.9 482.03,-852.9 482.03,-852.9 482.03,-858.9 476.03,-864.9 470.03,-864.9 470.03,-864.9 440.03,-864.9 440.03,-864.9 434.03,-864.9 428.03,-858.9 428.03,-852.9 428.03,-852.9 428.03,-840.9 428.03,-840.9 428.03,-834.9 434.03,-828.9 440.03,-828.9"/>
<text text-anchor="middle" x="455.03" y="-842.1" font-family="Times,serif" font-size="14.00">Source</text>
</a>
</g>
</g>
<!-- Georeference -->
<g id="node11" class="node">
<title>Georeference</title>
<g id="a_node11"><a xlink:href="/develop/Data/models.html#georeference" xlink:title="Georeference" target="_top">
<polygon fill="#cdefab" stroke="#dedede" points="348.53,-436.45 348.53,-451.36 310.13,-461.9 255.83,-461.9 217.43,-451.36 217.43,-436.45 255.83,-425.9 310.13,-425.9 348.53,-436.45"/>
<polygon fill="none" stroke="#dedede" points="352.53,-433.4 352.53,-454.41 310.67,-465.9 255.29,-465.9 213.43,-454.41 213.43,-433.4 255.29,-421.9 310.67,-421.9 352.53,-433.4"/>
<text text-anchor="middle" x="282.98" y="-438.85" font-family="Times,serif" font-size="14.00">Georeference</text>
</a>
</g>
</g>
<!-- CitationTopic -->
<g id="node12" class="node">
<title>CitationTopic</title>
<g id="a_node12"><a xlink:href="/develop/Data/models.html#citation-topic" xlink:title="CitationTopic" target="_top">
<polygon fill="#eeefff" stroke="#dddeee" points="328.48,-919.9 237.48,-919.9 237.48,-883.9 328.48,-883.9 328.48,-919.9"/>
<text text-anchor="middle" x="282.98" y="-896.85" font-family="Times,serif" font-size="14.00">CitationTopic</text>
</a>
</g>
</g>
<!-- CollectionObjectOtu -->
<g id="node13" class="node">
<title>CollectionObjectOtu</title>
<g id="a_node13"><a xlink:href="/develop/Data/models.html#collection-object-otu" xlink:title="CollectionObjectOtu" target="_top">
<polygon fill="#eeefff" stroke="#dddeee" points="849.03,-515.9 720.53,-515.9 720.53,-479.9 849.03,-479.9 849.03,-515.9"/>
<text text-anchor="middle" x="784.78" y="-492.85" font-family="Times,serif" font-size="14.00">CollectionObjectOtu</text>
</a>
</g>
</g>
<!-- ConfidenceLevel -->
<g id="node14" class="node">
<title>ConfidenceLevel</title>
<g id="a_node14"><a xlink:href="/develop/Data/models.html#confidence-level" xlink:title="ConfidenceLevel" target="_top">
<polygon fill="#eeefff" stroke="#dddeee" points="337.48,-403.9 228.48,-403.9 228.48,-367.9 337.48,-367.9 337.48,-403.9"/>
<text text-anchor="middle" x="282.98" y="-380.85" font-family="Times,serif" font-size="14.00">ConfidenceLevel</text>
</a>
</g>
</g>
<!-- FieldOccurrence -->
<g id="node15" class="node">
<title>FieldOccurrence</title>
<g id="a_node15"><a xlink:href="/develop/Data/models.html#field-occurrence" xlink:title="FieldOccurrence" target="_top">
<polygon fill="#eeefff" stroke="#dddeee" points="674.03,-625.9 568.03,-625.9 568.03,-589.9 674.03,-589.9 674.03,-625.9"/>
<text text-anchor="middle" x="621.03" y="-602.85" font-family="Times,serif" font-size="14.00">FieldOccurrence</text>
</a>
</g>
</g>
<!-- FieldOccurrenceOtu -->
<g id="node16" class="node">
<title>FieldOccurrenceOtu</title>
<g id="a_node16"><a xlink:href="/develop/Data/models.html#field-occurrence-otu" xlink:title="FieldOccurrenceOtu" target="_top">
<polygon fill="#eeefff" stroke="#dddeee" points="847.91,-625.9 721.66,-625.9 721.66,-589.9 847.91,-589.9 847.91,-625.9"/>
<text text-anchor="middle" x="784.78" y="-602.85" font-family="Times,serif" font-size="14.00">FieldOccurrenceOtu</text>
</a>
</g>
</g>
<!-- GeoreferencerRole -->
<g id="node17" class="node">
<title>GeoreferencerRole</title>
<g id="a_node17"><a xlink:href="/develop/Data/models.html#georeferencer-role" xlink:title="GeoreferencerRole" target="_top">
<polygon fill="#eeefff" stroke="#dddeee" points="514.41,-207.9 395.66,-207.9 395.66,-171.9 514.41,-171.9 514.41,-207.9"/>
<text text-anchor="middle" x="455.03" y="-184.85" font-family="Times,serif" font-size="14.00">GeoreferencerRole</text>
</a>
</g>
</g>
<!-- GeoreferenceAuthor -->
<g id="node18" class="node">
<title>GeoreferenceAuthor</title>
<g id="a_node18"><a xlink:href="/develop/Data/models.html#georeference-author" xlink:title="GeoreferenceAuthor" target="_top">
<polygon fill="#eeefff" stroke="#dddeee" points="684.53,-207.9 557.53,-207.9 557.53,-171.9 684.53,-171.9 684.53,-207.9"/>
<text text-anchor="middle" x="621.03" y="-184.85" font-family="Times,serif" font-size="14.00">GeoreferenceAuthor</text>
</a>
</g>
</g>
<!-- ImportAttribute -->
<g id="node19" class="node">
<title>ImportAttribute</title>
<g id="a_node19"><a xlink:href="/develop/Data/models.html#import-attribute" xlink:title="ImportAttribute" target="_top">
<polygon fill="#eeefff" stroke="#dddeee" points="506.16,-369.9 403.91,-369.9 403.91,-333.9 506.16,-333.9 506.16,-369.9"/>
<text text-anchor="middle" x="455.03" y="-346.85" font-family="Times,serif" font-size="14.00">ImportAttribute</text>
</a>
</g>
</g>
<!-- InternalAttribute -->
<g id="node20" class="node">
<title>InternalAttribute</title>
<g id="a_node20"><a xlink:href="/develop/Data/models.html#internal-attribute" xlink:title="InternalAttribute" target="_top">
<polygon fill="#eeefff" stroke="#dddeee" points="508.41,-315.9 401.66,-315.9 401.66,-279.9 508.41,-279.9 508.41,-315.9"/>
<text text-anchor="middle" x="455.03" y="-292.85" font-family="Times,serif" font-size="14.00">InternalAttribute</text>
</a>
</g>
</g>
<!-- Keyword -->
<g id="node21" class="node">
<title>Keyword</title>
<g id="a_node21"><a xlink:href="/develop/Data/models.html#keyword" xlink:title="Keyword" target="_top">
<polygon fill="#eeefff" stroke="#dddeee" points="316.11,-349.9 249.86,-349.9 249.86,-313.9 316.11,-313.9 316.11,-349.9"/>
<text text-anchor="middle" x="282.98" y="-326.85" font-family="Times,serif" font-size="14.00">Keyword</text>
</a>
</g>
</g>
<!-- PinboardItem -->
<g id="node22" class="node">
<title>PinboardItem</title>
<g id="a_node22"><a xlink:href="/develop/Data/models.html#pinboard-item" xlink:title="PinboardItem" target="_top">
<polygon fill="#eeefff" stroke="#dddeee" points="500.16,-261.9 409.91,-261.9 409.91,-225.9 500.16,-225.9 500.16,-261.9"/>
<text text-anchor="middle" x="455.03" y="-238.85" font-family="Times,serif" font-size="14.00">PinboardItem</text>
</a>
</g>
</g>
<!-- Protocol -->
<g id="node23" class="node">
<title>Protocol</title>
<g id="a_node23"><a xlink:href="/develop/Data/models.html#protocol" xlink:title="Protocol" target="_top">
<polygon fill="#eeefff" stroke="#dddeee" points="313.86,-295.9 252.11,-295.9 252.11,-259.9 313.86,-259.9 313.86,-295.9"/>
<text text-anchor="middle" x="282.98" y="-272.85" font-family="Times,serif" font-size="14.00">Protocol</text>
</a>
</g>
</g>
<!-- Role -->
<g id="node24" class="node">
<title>Role</title>
<g id="a_node24"><a xlink:href="/develop/Data/models.html#role" xlink:title="Role" target="_top">
<polygon fill="#eeefff" stroke="#dddeee" points="482.03,-99.9 428.03,-99.9 428.03,-63.9 482.03,-63.9 482.03,-99.9"/>
<text text-anchor="middle" x="455.03" y="-76.85" font-family="Times,serif" font-size="14.00">Role</text>
</a>
</g>
</g>
<!-- SubsequentCitation -->
<g id="node25" class="node">
<title>SubsequentCitation</title>
<g id="a_node25"><a xlink:href="/develop/Data/models.html#subsequent-citation" xlink:title="SubsequentCitation" target="_top">
<polygon fill="#eeefff" stroke="#dddeee" points="681.91,-744.9 560.16,-744.9 560.16,-708.9 681.91,-708.9 681.91,-744.9"/>
<text text-anchor="middle" x="621.03" y="-721.85" font-family="Times,serif" font-size="14.00">SubsequentCitation</text>
</a>
</g>
</g>
<!-- SubsequentSource -->
<g id="node26" class="node">
<title>SubsequentSource</title>
<g id="a_node26"><a xlink:href="/develop/Data/models.html#subsequent-source" xlink:title="SubsequentSource" target="_top">
<polygon fill="#eeefff" stroke="#dddeee" points="842.66,-744.9 726.91,-744.9 726.91,-708.9 842.66,-708.9 842.66,-744.9"/>
<text text-anchor="middle" x="784.78" y="-721.85" font-family="Times,serif" font-size="14.00">SubsequentSource</text>
</a>
</g>
</g>
<!-- Topic -->
<g id="node27" class="node">
<title>Topic</title>
<g id="a_node27"><a xlink:href="/develop/Data/models.html#topic" xlink:title="Topic" target="_top">
<polygon fill="#eeefff" stroke="#dddeee" points="482.03,-919.9 428.03,-919.9 428.03,-883.9 482.03,-883.9 482.03,-919.9"/>
<text text-anchor="middle" x="455.03" y="-896.85" font-family="Times,serif" font-size="14.00">Topic</text>
</a>
</g>
</g>
<!-- VerifierRole -->
<g id="node28" class="node">
<title>VerifierRole</title>
<g id="a_node28"><a xlink:href="/develop/Data/models.html#verifier-role" xlink:title="VerifierRole" target="_top">
<polygon fill="#eeefff" stroke="#dddeee" points="496.41,-153.9 413.66,-153.9 413.66,-117.9 496.41,-117.9 496.41,-153.9"/>
<text text-anchor="middle" x="455.03" y="-130.85" font-family="Times,serif" font-size="14.00">VerifierRole</text>
</a>
</g>
</g>
<!-- Verifier -->
<g id="node29" class="node">
<title>Verifier</title>
<g id="a_node29"><a xlink:href="/develop/Data/models.html#verifier" xlink:title="Verifier" target="_top">
<polygon fill="#eeefff" stroke="#dddeee" points="649.66,-126.9 592.41,-126.9 592.41,-90.9 649.66,-90.9 649.66,-126.9"/>
<text text-anchor="middle" x="621.03" y="-103.85" font-family="Times,serif" font-size="14.00">Verifier</text>
</a>
</g>
</g>
<!-- Creator -->
<g id="node30" class="node">
<title>Creator</title>
<g id="a_node30"><a xlink:href="/develop/Data/models.html#creator" xlink:title="Creator" target="_top">
<polygon fill="#eeefff" stroke="#dddeee" points="649.28,-461.9 592.78,-461.9 592.78,-425.9 649.28,-425.9 649.28,-461.9"/>
<text text-anchor="middle" x="621.03" y="-438.85" font-family="Times,serif" font-size="14.00">Creator</text>
</a>
</g>
</g>
<!-- ErrorGeographicItem -->
<g id="node31" class="node">
<title>ErrorGeographicItem</title>
<g id="a_node31"><a xlink:href="/develop/Data/models.html#error-geographic-item" xlink:title="ErrorGeographicItem" target="_top">
<polygon fill="#eeefff" stroke="#dddeee" points="521.53,-771.9 388.53,-771.9 388.53,-735.9 521.53,-735.9 521.53,-771.9"/>
<text text-anchor="middle" x="455.03" y="-748.85" font-family="Times,serif" font-size="14.00">ErrorGeographicItem</text>
</a>
</g>
</g>
<!-- GeographicItem -->
<g id="node32" class="node">
<title>GeographicItem</title>
<g id="a_node32"><a xlink:href="/develop/Data/models.html#geographic-item" xlink:title="GeographicItem" target="_top">
<polygon fill="#eeefff" stroke="#dddeee" points="507.28,-679.9 402.78,-679.9 402.78,-643.9 507.28,-643.9 507.28,-679.9"/>
<text text-anchor="middle" x="455.03" y="-656.85" font-family="Times,serif" font-size="14.00">GeographicItem</text>
</a>
</g>
</g>
<!-- Project -->
<g id="node33" class="node">
<title>Project</title>
<g id="a_node33"><a xlink:href="/develop/Data/models.html#project" xlink:title="Project" target="_top">
<polygon fill="#eeefff" stroke="#dddeee" points="482.16,-461.9 427.91,-461.9 427.91,-425.9 482.16,-425.9 482.16,-461.9"/>
<text text-anchor="middle" x="455.03" y="-438.85" font-family="Times,serif" font-size="14.00">Project</text>
</a>
</g>
</g>
<!-- Updater -->
<g id="node34" class="node">
<title>Updater</title>
<g id="a_node34"><a xlink:href="/develop/Data/models.html#updater" xlink:title="Updater" target="_top">
<polygon fill="#eeefff" stroke="#dddeee" points="814.53,-461.9 755.03,-461.9 755.03,-425.9 814.53,-425.9 814.53,-461.9"/>
<text text-anchor="middle" x="784.78" y="-438.85" font-family="Times,serif" font-size="14.00">Updater</text>
</a>
</g>
</g>
<!-- CachedMapRegister -->
<g id="node35" class="node">
<title>CachedMapRegister</title>
<g id="a_node35"><a xlink:href="/develop/Data/models.html#cached-map-register" xlink:title="CachedMapRegister" target="_top">
<polygon fill="#eeefff" stroke="#dddeee" points="518.53,-625.9 391.53,-625.9 391.53,-589.9 518.53,-589.9 518.53,-625.9"/>
<text text-anchor="middle" x="455.03" y="-602.85" font-family="Times,serif" font-size="14.00">CachedMapRegister</text>
</a>
</g>
</g>
<!-- OriginCitation -->
<g id="node36" class="node">
<title>OriginCitation</title>
<g id="a_node36"><a xlink:href="/develop/Data/models.html#origin-citation" xlink:title="OriginCitation" target="_top">
<polygon fill="#eeefff" stroke="#dddeee" points="668.41,-840.9 573.66,-840.9 573.66,-804.9 668.41,-804.9 668.41,-840.9"/>
<text text-anchor="middle" x="621.03" y="-817.85" font-family="Times,serif" font-size="14.00">OriginCitation</text>
</a>
</g>
</g>
</g>
</svg>
