<?xml version="1.0" encoding="UTF-8" standalone="no"?>
<!DOCTYPE svg PUBLIC "-//W3C//DTD SVG 1.1//EN"
 "http://www.w3.org/Graphics/SVG/1.1/DTD/svg11.dtd">
<!-- Generated by graphviz version 12.2.1 (20241206.2353)
 -->
<!-- Title: Identifier Pages: 1 -->
<svg width="566pt" height="444pt"
 viewBox="0.00 0.00 565.95 444.00" xmlns="http://www.w3.org/2000/svg" xmlns:xlink="http://www.w3.org/1999/xlink">
<g id="graph0" class="graph" transform="scale(1 1) rotate(0) translate(4 440)">
<title>Identifier</title>
<polygon fill="white" stroke="none" points="-4,4 -4,-440 561.95,-440 561.95,4 -4,4"/>
<!-- Identifier&#45;&gt;Label -->
<g id="edge1" class="edge">
<title>Identifier&#45;&gt;Label</title>
<path fill="none" stroke="black" d="M58.27,-232.21C67,-270.7 90.4,-349.64 141.87,-391 162.93,-407.92 192.9,-414.52 216.64,-416.97"/>
<polygon fill="black" stroke="black" points="216.31,-420.45 226.55,-417.76 216.87,-413.47 216.31,-420.45"/>
</g>
<!-- Identifier&#45;&gt;PinboardItem -->
<g id="edge2" class="edge">
<title>Identifier&#45;&gt;PinboardItem</title>
<path fill="none" stroke="black" d="M63.14,-232.14C76.27,-260.88 103.14,-310.49 141.87,-337 158.59,-348.44 179.59,-355.06 198.92,-358.88"/>
<polygon fill="black" stroke="black" points="198.12,-362.29 208.58,-360.56 199.32,-355.4 198.12,-362.29"/>
</g>
<!-- Identifier&#45;&gt;Role -->
<g id="edge3" class="edge">
<title>Identifier&#45;&gt;Role</title>
<path fill="none" stroke="black" d="M74.68,-232.01C91.35,-248.41 116.14,-270.12 141.87,-283 165.46,-294.81 194.44,-301.6 217.11,-305.42"/>
<polygon fill="black" stroke="black" points="216.41,-308.85 226.83,-306.93 217.48,-301.94 216.41,-308.85"/>
</g>
<!-- Identifier&#45;&gt;VerifierRole -->
<g id="edge4" class="edge">
<title>Identifier&#45;&gt;VerifierRole</title>
<path fill="none" stroke="black" d="M103.78,-221.43C133.96,-228.35 172.37,-237.16 202.87,-244.15"/>
<polygon fill="black" stroke="black" points="201.72,-247.48 212.24,-246.3 203.28,-240.66 201.72,-247.48"/>
</g>
<!-- Identifier&#45;&gt;Creator -->
<g id="edge6" class="edge">
<title>Identifier&#45;&gt;Creator</title>
<path fill="none" stroke="black" stroke-dasharray="5,2" d="M117.39,-220.75C184.09,-228.85 290.11,-232.43 369.2,-191 395.34,-177.31 414.21,-147.62 424.33,-128.24"/>
<polygon fill="black" stroke="black" points="118.09,-217.31 107.72,-219.5 117.19,-224.25 118.09,-217.31"/>
</g>
<!-- Identifier&#45;&gt;Namespace -->
<g id="edge8" class="edge">
<title>Identifier&#45;&gt;Namespace</title>
<path fill="none" stroke="black" stroke-dasharray="5,2" d="M114.62,-196.08C147.44,-188.56 187,-179.49 215.66,-172.91"/>
<polygon fill="black" stroke="black" points="114.22,-192.59 105.25,-198.23 115.78,-199.41 114.22,-192.59"/>
</g>
<!-- Identifier&#45;&gt;Project -->
<g id="edge9" class="edge">
<title>Identifier&#45;&gt;Project</title>
<path fill="none" stroke="black" stroke-dasharray="5,2" d="M82.62,-180.38C98.73,-165.34 119.96,-147.97 141.87,-137 169.57,-123.14 204.71,-116.18 228.32,-112.84"/>
<polygon fill="black" stroke="black" points="80.57,-177.5 75.78,-186.94 85.42,-182.55 80.57,-177.5"/>
</g>
<!-- Identifier&#45;&gt;Updater -->
<g id="edge10" class="edge">
<title>Identifier&#45;&gt;Updater</title>
<path fill="none" stroke="black" stroke-dasharray="5,2" d="M66.2,-177.11C79.61,-146.48 104.32,-102.67 141.87,-83 268.08,-16.88 322.74,-55.04 462.45,-83 474.51,-85.41 487.14,-90.13 498,-94.95"/>
<polygon fill="black" stroke="black" points="62.98,-175.76 62.36,-186.33 69.44,-178.45 62.98,-175.76"/>
</g>
<!-- Identifier&#45;&gt;Objects with Identifiers -->
<g id="edge7" class="edge">
<title>Identifier&#45;&gt;Objects with Identifiers</title>
<path fill="none" stroke="black" stroke-dasharray="5,2" d="M63.47,-177.22C75.73,-140.84 100.52,-82.93 141.87,-50 152.84,-41.26 166.09,-34.91 179.58,-30.29"/>
<polygon fill="black" stroke="black" points="60.27,-175.74 60.53,-186.33 66.93,-177.89 60.27,-175.74"/>
</g>
<!-- Role&#45;&gt;Verifier -->
<!-- VerifierRole&#45;&gt;Verifier -->
<g id="edge5" class="edge">
<title>VerifierRole&#45;&gt;Verifier</title>
<path fill="none" stroke="black" stroke-dasharray="1,5" d="M296.98,-262.19C326.02,-266.64 364.94,-272.6 393.67,-277"/>
<polygon fill="black" stroke="black" points="393.01,-280.44 403.42,-278.5 394.07,-273.52 393.01,-280.44"/>
</g>
<!-- Creator&#45;&gt;Updater -->
<!-- Project&#45;&gt;Creator -->
<!-- Identifier -->
<g id="node1" class="node">
<title>Identifier</title>
<g id="a_node1"><a xlink:href="/develop/Data/models.html#identifier" xlink:title="Identifier" target="_top">
<polygon fill="#cdefab" stroke="#dedede" points="101.87,-202.54 101.87,-217.46 73.2,-228 32.67,-228 4,-217.46 4,-202.54 32.67,-192 73.2,-192 101.87,-202.54"/>
<polygon fill="none" stroke="#dedede" points="105.87,-199.75 105.87,-220.25 73.92,-232 31.95,-232 0,-220.25 0,-199.75 31.95,-188 73.92,-188 105.87,-199.75"/>
<text text-anchor="middle" x="52.93" y="-204.95" font-family="Times,serif" font-size="14.00">Identifier</text>
</a>
</g>
</g>
<!-- Label -->
<g id="node2" class="node">
<title>Label</title>
<g id="a_node2"><a xlink:href="/develop/Data/models.html#label" xlink:title="Label" target="_top">
<polygon fill="#eeefff" stroke="#dddeee" points="282.54,-436 228.54,-436 228.54,-400 282.54,-400 282.54,-436"/>
<text text-anchor="middle" x="255.54" y="-412.95" font-family="Times,serif" font-size="14.00">Label</text>
</a>
</g>
</g>
<!-- PinboardItem -->
<g id="node3" class="node">
<title>PinboardItem</title>
<g id="a_node3"><a xlink:href="/develop/Data/models.html#pinboard-item" xlink:title="PinboardItem" target="_top">
<polygon fill="#eeefff" stroke="#dddeee" points="300.66,-382 210.41,-382 210.41,-346 300.66,-346 300.66,-382"/>
<text text-anchor="middle" x="255.54" y="-358.95" font-family="Times,serif" font-size="14.00">PinboardItem</text>
</a>
</g>
</g>
<!-- Role -->
<g id="node4" class="node">
<title>Role</title>
<g id="a_node4"><a xlink:href="/develop/Data/models.html#role" xlink:title="Role" target="_top">
<polygon fill="#eeefff" stroke="#dddeee" points="282.54,-328 228.54,-328 228.54,-292 282.54,-292 282.54,-328"/>
<text text-anchor="middle" x="255.54" y="-304.95" font-family="Times,serif" font-size="14.00">Role</text>
</a>
</g>
</g>
<!-- VerifierRole -->
<g id="node5" class="node">
<title>VerifierRole</title>
<g id="a_node5"><a xlink:href="/develop/Data/models.html#verifier-role" xlink:title="VerifierRole" target="_top">
<polygon fill="#eeefff" stroke="#dddeee" points="296.91,-274 214.16,-274 214.16,-238 296.91,-238 296.91,-274"/>
<text text-anchor="middle" x="255.54" y="-250.95" font-family="Times,serif" font-size="14.00">VerifierRole</text>
</a>
</g>
</g>
<!-- Verifier -->
<g id="node6" class="node">
<title>Verifier</title>
<g id="a_node6"><a xlink:href="/develop/Data/models.html#verifier" xlink:title="Verifier" target="_top">
<polygon fill="#eeefff" stroke="#dddeee" points="462.45,-301 405.2,-301 405.2,-265 462.45,-265 462.45,-301"/>
<text text-anchor="middle" x="433.83" y="-277.95" font-family="Times,serif" font-size="14.00">Verifier</text>
</a>
</g>
</g>
<!-- Creator -->
<g id="node7" class="node">
<title>Creator</title>
<g id="a_node7"><a xlink:href="/develop/Data/models.html#creator" xlink:title="Creator" target="_top">
<polygon fill="#eeefff" stroke="#dddeee" points="462.08,-128 405.58,-128 405.58,-92 462.08,-92 462.08,-128"/>
<text text-anchor="middle" x="433.83" y="-104.95" font-family="Times,serif" font-size="14.00">Creator</text>
</a>
</g>
</g>
<!-- Namespace -->
<g id="node8" class="node">
<title>Namespace</title>
<g id="a_node8"><a xlink:href="/develop/Data/models.html#namespace" xlink:title="Namespace" target="_top">
<polygon fill="#eeefff" stroke="#dddeee" points="295.04,-182 216.04,-182 216.04,-146 295.04,-146 295.04,-182"/>
<text text-anchor="middle" x="255.54" y="-158.95" font-family="Times,serif" font-size="14.00">Namespace</text>
</a>
</g>
</g>
<!-- Project -->
<g id="node9" class="node">
<title>Project</title>
<g id="a_node9"><a xlink:href="/develop/Data/models.html#project" xlink:title="Project" target="_top">
<polygon fill="#eeefff" stroke="#dddeee" points="282.66,-128 228.41,-128 228.41,-92 282.66,-92 282.66,-128"/>
<text text-anchor="middle" x="255.54" y="-104.95" font-family="Times,serif" font-size="14.00">Project</text>
</a>
</g>
</g>
<!-- Updater -->
<g id="node10" class="node">
<title>Updater</title>
<g id="a_node10"><a xlink:href="/develop/Data/models.html#updater" xlink:title="Updater" target="_top">
<polygon fill="#eeefff" stroke="#dddeee" points="557.95,-128 498.45,-128 498.45,-92 557.95,-92 557.95,-128"/>
<text text-anchor="middle" x="528.2" y="-104.95" font-family="Times,serif" font-size="14.00">Updater</text>
</a>
</g>
</g>
<!-- Objects with Identifiers -->
<g id="node11" class="node">
<title>Objects with Identifiers</title>
<g id="a_node11"><a xlink:href="/develop/Data/models.html#objects with identifier" xlink:title="Objects with Identifiers" target="_top">
<polygon fill="#cdabef" stroke="#dedede" points="369.2,-18 312.37,-36 198.7,-36 141.87,-18 198.7,0 312.37,0 369.2,-18"/>
<text text-anchor="middle" x="255.54" y="-12.95" font-family="Times,serif" font-size="14.00">Objects with Identifiers</text>
</a>
</g>
</g>
</g>
</svg>
