<?xml version="1.0" encoding="UTF-8" standalone="no"?>
<!DOCTYPE svg PUBLIC "-//W3C//DTD SVG 1.1//EN"
 "http://www.w3.org/Graphics/SVG/1.1/DTD/svg11.dtd">
<!-- Generated by graphviz version 12.2.1 (20241206.2353)
 -->
<!-- Title: Image Pages: 1 -->
<svg width="831pt" height="1557pt"
 viewBox="0.00 0.00 831.43 1556.50" xmlns="http://www.w3.org/2000/svg" xmlns:xlink="http://www.w3.org/1999/xlink">
<g id="graph0" class="graph" transform="scale(1 1) rotate(0) translate(4 1552.5)">
<title>Image</title>
<polygon fill="white" stroke="none" points="-4,4 -4,-1552.5 827.43,-1552.5 827.43,4 -4,4"/>
<!-- Depiction&#45;&gt;BiologicalAssociation -->
<g id="edge1" class="edge">
<title>Depiction&#45;&gt;BiologicalAssociation</title>
<path fill="none" stroke="black" stroke-dasharray="1,5" d="M91.3,-1047.6C97.02,-992.88 121.36,-829.54 213.43,-742 216.16,-739.4 219.14,-737.04 222.29,-734.9"/>
<polygon fill="black" stroke="black" points="224.03,-737.94 230.9,-729.88 220.5,-731.9 224.03,-737.94"/>
</g>
<!-- Depiction&#45;&gt;CollectingEvent -->
<g id="edge5" class="edge">
<title>Depiction&#45;&gt;CollectingEvent</title>
<path fill="none" stroke="black" stroke-dasharray="1,5" d="M90.13,-1047.62C92.52,-987.1 108.38,-791.92 213.43,-687 220.22,-680.21 228.68,-675.07 237.62,-671.17"/>
<polygon fill="black" stroke="black" points="238.73,-674.49 246.85,-667.68 236.26,-667.95 238.73,-674.49"/>
</g>
<!-- Depiction&#45;&gt;CollectionObject -->
<g id="edge7" class="edge">
<title>Depiction&#45;&gt;CollectionObject</title>
<path fill="none" stroke="black" stroke-dasharray="1,5" d="M89.15,-1084.34C88.16,-1150.58 93.86,-1380.05 213.43,-1503 219.65,-1509.4 227.36,-1514.29 235.6,-1518.02"/>
<polygon fill="black" stroke="black" points="234.24,-1521.24 244.83,-1521.61 236.78,-1514.72 234.24,-1521.24"/>
</g>
<!-- Depiction&#45;&gt;Descriptor -->
<g id="edge11" class="edge">
<title>Depiction&#45;&gt;Descriptor</title>
<path fill="none" stroke="black" stroke-dasharray="1,5" d="M90.02,-1084.14C92.06,-1144.77 106.95,-1342.52 213.43,-1448 223.97,-1458.44 238.49,-1464.85 252.61,-1468.79"/>
<polygon fill="black" stroke="black" points="251.76,-1472.18 262.3,-1471.09 253.38,-1465.37 251.76,-1472.18"/>
</g>
<!-- Depiction&#45;&gt;Observation -->
<g id="edge19" class="edge">
<title>Depiction&#45;&gt;Observation</title>
<path fill="none" stroke="black" stroke-dasharray="1,5" d="M91.16,-1084.22C96.53,-1139.17 120.06,-1304.89 213.43,-1393 223.03,-1402.07 235.65,-1408.09 248.26,-1412.09"/>
<polygon fill="black" stroke="black" points="247.23,-1415.44 257.8,-1414.71 249.08,-1408.69 247.23,-1415.44"/>
</g>
<!-- Depiction&#45;&gt;Otu -->
<g id="edge20" class="edge">
<title>Depiction&#45;&gt;Otu</title>
<path fill="none" stroke="black" stroke-dasharray="1,5" d="M92.73,-1084.26C101.74,-1132.93 132.97,-1266.88 213.43,-1338 226.97,-1349.97 245.8,-1356.64 262.4,-1360.35"/>
<polygon fill="black" stroke="black" points="261.48,-1363.73 271.96,-1362.19 262.8,-1356.86 261.48,-1363.73"/>
</g>
<!-- Depiction&#45;&gt;TaxonName -->
<g id="edge31" class="edge">
<title>Depiction&#45;&gt;TaxonName</title>
<path fill="none" stroke="black" stroke-dasharray="1,5" d="M95.06,-1084.04C108.2,-1125.3 146.02,-1227.21 213.43,-1282 223.24,-1289.97 235.38,-1295.7 247.42,-1299.8"/>
<polygon fill="black" stroke="black" points="246.34,-1303.14 256.93,-1302.7 248.38,-1296.44 246.34,-1303.14"/>
</g>
<!-- Depiction&#45;&gt;CharacterState -->
<g id="edge2" class="edge">
<title>Depiction&#45;&gt;CharacterState</title>
<path fill="none" stroke="black" stroke-dasharray="1,5" d="M98.61,-1084C116.02,-1117.38 157.78,-1189.01 213.43,-1228 221.91,-1233.94 231.75,-1238.62 241.69,-1242.28"/>
<polygon fill="black" stroke="black" points="240.42,-1245.55 251.01,-1245.39 242.63,-1238.91 240.42,-1245.55"/>
</g>
<!-- Depiction&#45;&gt;CollectionObjectObservation -->
<g id="edge6" class="edge">
<title>Depiction&#45;&gt;CollectionObjectObservation</title>
<path fill="none" stroke="black" stroke-dasharray="1,5" d="M104.84,-1083.06C126.64,-1106.67 169.15,-1149.19 213.43,-1174 215.79,-1175.32 218.23,-1176.59 220.72,-1177.81"/>
<polygon fill="black" stroke="black" points="219.27,-1180.99 229.82,-1181.88 222.13,-1174.6 219.27,-1180.99"/>
</g>
<!-- Depiction&#45;&gt;Container -->
<g id="edge8" class="edge">
<title>Depiction&#45;&gt;Container</title>
<path fill="none" stroke="black" stroke-dasharray="1,5" d="M119.34,-1080.01C144.18,-1091.49 180.72,-1107.78 213.43,-1120 226.73,-1124.97 241.41,-1129.81 254.82,-1133.98"/>
<polygon fill="black" stroke="black" points="253.69,-1137.3 264.28,-1136.87 255.74,-1130.6 253.69,-1137.3"/>
</g>
<!-- Depiction&#45;&gt;Content -->
<g id="edge9" class="edge">
<title>Depiction&#45;&gt;Content</title>
<path fill="none" stroke="black" stroke-dasharray="1,5" d="M133.96,-1071.69C171.17,-1076.48 223.91,-1083.27 259.8,-1087.88"/>
<polygon fill="black" stroke="black" points="258.95,-1091.3 269.32,-1089.11 259.84,-1084.36 258.95,-1091.3"/>
</g>
<!-- Depiction&#45;&gt;FieldOccurrence -->
<g id="edge12" class="edge">
<title>Depiction&#45;&gt;FieldOccurrence</title>
<path fill="none" stroke="black" stroke-dasharray="1,5" d="M133.96,-1060.31C163.54,-1056.5 202.92,-1051.43 235.86,-1047.2"/>
<polygon fill="black" stroke="black" points="236.24,-1050.68 245.71,-1045.93 235.35,-1043.73 236.24,-1050.68"/>
</g>
<!-- Depiction&#45;&gt;Label -->
<g id="edge15" class="edge">
<title>Depiction&#45;&gt;Label</title>
<path fill="none" stroke="black" stroke-dasharray="1,5" d="M119.34,-1051.99C144.18,-1040.51 180.72,-1024.22 213.43,-1012 229.37,-1006.04 247.29,-1000.28 262.64,-995.62"/>
<polygon fill="black" stroke="black" points="263.27,-999.08 271.85,-992.86 261.27,-992.37 263.27,-999.08"/>
</g>
<!-- Depiction&#45;&gt;Lead -->
<g id="edge16" class="edge">
<title>Depiction&#45;&gt;Lead</title>
<path fill="none" stroke="black" stroke-dasharray="1,5" d="M104.84,-1048.94C126.64,-1025.33 169.15,-982.81 213.43,-958 228.5,-949.56 246.56,-943.38 262.24,-939.08"/>
<polygon fill="black" stroke="black" points="262.88,-942.53 271.7,-936.65 261.14,-935.75 262.88,-942.53"/>
</g>
<!-- Depiction&#45;&gt;Loan -->
<g id="edge17" class="edge">
<title>Depiction&#45;&gt;Loan</title>
<path fill="none" stroke="black" stroke-dasharray="1,5" d="M98.61,-1048C116.02,-1014.62 157.78,-942.99 213.43,-904 227.78,-893.94 246.03,-887.52 262.04,-883.47"/>
<polygon fill="black" stroke="black" points="262.76,-886.9 271.73,-881.27 261.2,-880.08 262.76,-886.9"/>
</g>
<!-- Depiction&#45;&gt;Person -->
<g id="edge21" class="edge">
<title>Depiction&#45;&gt;Person</title>
<path fill="none" stroke="black" stroke-dasharray="1,5" d="M95.02,-1047.91C108.07,-1006.55 145.73,-904.43 213.43,-850 227.32,-838.83 245.87,-832.26 262.19,-828.4"/>
<polygon fill="black" stroke="black" points="262.5,-831.91 271.58,-826.45 261.07,-825.06 262.5,-831.91"/>
</g>
<!-- Depiction&#45;&gt;TaxonDetermination -->
<g id="edge30" class="edge">
<title>Depiction&#45;&gt;TaxonDetermination</title>
<path fill="none" stroke="black" stroke-dasharray="1,5" d="M92.78,-1047.87C101.89,-999.55 133.36,-866.58 213.43,-796 217.16,-792.71 221.3,-789.81 225.68,-787.27"/>
<polygon fill="black" stroke="black" points="226.91,-790.58 234.25,-782.94 223.75,-784.33 226.91,-790.58"/>
</g>
<!-- Citation&#45;&gt;Source -->
<g id="edge26" class="edge">
<title>Citation&#45;&gt;Source</title>
<path fill="none" stroke="black" stroke-dasharray="1,5" d="M129.46,-549C202.92,-549 358.94,-549 430.51,-549"/>
<polygon fill="black" stroke="black" points="430.13,-552.5 440.13,-549 430.13,-545.5 430.13,-552.5"/>
</g>
<!-- Citation&#45;&gt;CitationTopic -->
<g id="edge3" class="edge">
<title>Citation&#45;&gt;CitationTopic</title>
<path fill="none" stroke="black" stroke-dasharray="1,5" d="M124.36,-558.08C156.78,-566.58 205.77,-579.42 243.71,-589.36"/>
<polygon fill="black" stroke="black" points="242.57,-592.68 253.13,-591.83 244.34,-585.91 242.57,-592.68"/>
</g>
<!-- Tag&#45;&gt;Keyword -->
<g id="edge14" class="edge">
<title>Tag&#45;&gt;Keyword</title>
<path fill="none" stroke="black" stroke-dasharray="1,5" d="M115.87,-275C150.91,-275 213.6,-275 255.87,-275"/>
<polygon fill="black" stroke="black" points="255.7,-278.5 265.7,-275 255.7,-271.5 255.7,-278.5"/>
</g>
<!-- ProtocolRelationship&#45;&gt;Protocol -->
<g id="edge24" class="edge">
<title>ProtocolRelationship&#45;&gt;Protocol</title>
<path fill="none" stroke="black" stroke-dasharray="1,5" d="M177.79,-221C205.68,-221 235.2,-221 258.19,-221"/>
<polygon fill="black" stroke="black" points="258.06,-224.5 268.06,-221 258.06,-217.5 258.06,-224.5"/>
</g>
<!-- Source&#45;&gt;SubsequentCitation -->
<!-- Source&#45;&gt;OriginCitation -->
<!-- Image&#45;&gt;Depiction -->
<g id="edge10" class="edge">
<title>Image&#45;&gt;Depiction</title>
<path fill="none" stroke="black" d="M290.9,-355.31C274.54,-397.97 238.45,-494.22 213.43,-577 161.35,-749.26 113.16,-960.08 96.18,-1036.54"/>
<polygon fill="black" stroke="black" points="92.79,-1035.63 94.05,-1046.15 99.63,-1037.14 92.79,-1035.63"/>
</g>
<!-- Image&#45;&gt;Citation -->
<g id="edge4" class="edge">
<title>Image&#45;&gt;Citation</title>
<path fill="none" stroke="black" d="M280.83,-353.72C257.13,-379.81 214.88,-425.82 177.43,-464 156.88,-484.95 132.92,-508.08 115.24,-524.92"/>
<polygon fill="black" stroke="black" points="113.05,-522.17 108.21,-531.6 117.87,-527.25 113.05,-522.17"/>
</g>
<!-- Image&#45;&gt;Identifier -->
<g id="edge13" class="edge">
<title>Image&#45;&gt;Identifier</title>
<path fill="none" stroke="black" d="M275.38,-350.95C251.5,-368.01 213.41,-393.47 177.43,-410 165.22,-415.61 151.54,-420.45 138.68,-424.42"/>
<polygon fill="black" stroke="black" points="137.7,-421.06 129.1,-427.26 139.69,-427.77 137.7,-421.06"/>
</g>
<!-- Image&#45;&gt;Tag -->
<g id="edge29" class="edge">
<title>Image&#45;&gt;Tag</title>
<path fill="none" stroke="black" d="M260.24,-322.13C221.39,-311.4 162.49,-295.12 125.07,-284.77"/>
<polygon fill="black" stroke="black" points="126.23,-281.46 115.65,-282.17 124.36,-288.21 126.23,-281.46"/>
</g>
<!-- Image&#45;&gt;Note -->
<g id="edge18" class="edge">
<title>Image&#45;&gt;Note</title>
<path fill="none" stroke="black" d="M259.01,-342.66C220.71,-351.79 163.77,-365.35 126.69,-374.19"/>
<polygon fill="black" stroke="black" points="126.25,-370.7 117.34,-376.42 127.88,-377.5 126.25,-370.7"/>
</g>
<!-- Image&#45;&gt;ProtocolRelationship -->
<g id="edge23" class="edge">
<title>Image&#45;&gt;ProtocolRelationship</title>
<path fill="none" stroke="black" d="M259.16,-324.24C243.74,-319.48 226.69,-312.38 213.43,-302 190.71,-284.22 200.55,-265.24 177.43,-248 172.56,-244.37 167.19,-241.22 161.59,-238.49"/>
<polygon fill="black" stroke="black" points="163.25,-235.4 152.69,-234.62 160.46,-241.82 163.25,-235.4"/>
</g>
<!-- Image&#45;&gt;Attribution -->
<g id="edge40" class="edge">
<title>Image&#45;&gt;Attribution</title>
<path fill="none" stroke="black" d="M248.39,-332.02C219.1,-331.47 182.14,-330.76 151.27,-330.17"/>
<polygon fill="none" stroke="black" points="258.39,-328.21 258.24,-336.21 250.24,-336.06 250.39,-328.06 258.39,-328.21"/>
<polyline fill="none" stroke="black" points="250.31,-332.06 248.31,-332.02"/>
<polygon fill="none" stroke="black" points="141.2,-333.98 141.35,-325.98 149.35,-326.14 149.2,-334.13 141.2,-333.98"/>
<polyline fill="none" stroke="black" points="149.28,-330.14 151.28,-330.17"/>
</g>
<!-- Image&#45;&gt;Source -->
<g id="edge43" class="edge">
<title>Image&#45;&gt;Source</title>
<path fill="none" stroke="black" stroke-dasharray="1,5" d="M318.14,-364.44C339.35,-402.86 378.75,-468.59 423.68,-516 426.64,-519.12 429.92,-522.17 433.32,-525.07"/>
<polygon fill="none" stroke="black" points="309.88,-357.65 316.9,-353.81 320.73,-360.84 313.71,-364.67 309.88,-357.65"/>
<polyline fill="none" stroke="black" points="317.22,-362.75 318.18,-364.51"/>
<polygon fill="none" stroke="black" points="443.49,-528.1 438.48,-534.34 432.24,-529.33 437.25,-523.09 443.49,-528.1"/>
<polyline fill="none" stroke="black" points="434.75,-526.21 433.19,-524.96"/>
</g>
<!-- Image&#45;&gt;PinboardItem -->
<g id="edge22" class="edge">
<title>Image&#45;&gt;PinboardItem</title>
<path fill="none" stroke="black" d="M342.2,-326.9C358.4,-322.51 375.95,-314.97 387.68,-302 431.92,-253.07 386.75,-212.66 423.68,-158 425.1,-155.9 426.7,-153.88 428.44,-151.97"/>
<polygon fill="black" stroke="black" points="430.75,-154.6 435.64,-145.2 425.96,-149.5 430.75,-154.6"/>
</g>
<!-- Image&#45;&gt;Role -->
<g id="edge25" class="edge">
<title>Image&#45;&gt;Role</title>
<path fill="none" stroke="black" d="M342.2,-327.41C358.61,-323.11 376.31,-315.49 387.68,-302 446.73,-231.94 372.04,-174.7 423.68,-99 426.04,-95.53 429.02,-92.43 432.3,-89.68"/>
<polygon fill="black" stroke="black" points="434.1,-92.69 440.25,-84.06 430.06,-86.97 434.1,-92.69"/>
</g>
<!-- Image&#45;&gt;SubsequentCitation -->
<g id="edge27" class="edge">
<title>Image&#45;&gt;SubsequentCitation</title>
<path fill="none" stroke="black" d="M313.24,-355.29C331.92,-388.58 371.72,-450.81 423.68,-483 458.13,-504.35 502.16,-514.88 538.75,-520.06"/>
<polygon fill="black" stroke="black" points="537.97,-523.49 548.34,-521.31 538.88,-516.55 537.97,-523.49"/>
</g>
<!-- Image&#45;&gt;Uri -->
<g id="edge33" class="edge">
<title>Image&#45;&gt;Uri</title>
<path fill="none" stroke="black" d="M323.9,-351.87C347.94,-371.85 387.59,-403.9 423.68,-429 426.3,-430.83 429.05,-432.67 431.84,-434.48"/>
<polygon fill="black" stroke="black" points="429.75,-437.3 440.07,-439.7 433.49,-431.39 429.75,-437.3"/>
</g>
<!-- Image&#45;&gt;Uuid -->
<g id="edge34" class="edge">
<title>Image&#45;&gt;Uuid</title>
<path fill="none" stroke="black" d="M334.8,-346.8C362.61,-358.34 402.24,-374.79 431,-386.73"/>
<polygon fill="black" stroke="black" points="429.47,-389.88 440.05,-390.48 432.15,-383.42 429.47,-389.88"/>
</g>
<!-- Image&#45;&gt;VerifierRole -->
<g id="edge35" class="edge">
<title>Image&#45;&gt;VerifierRole</title>
<path fill="none" stroke="black" d="M341.99,-327.72C358.57,-323.47 376.45,-315.81 387.68,-302 458.2,-215.19 366.32,-145.77 425.22,-45.89"/>
<polygon fill="black" stroke="black" points="428,-48.05 430.38,-37.73 422.08,-44.31 428,-48.05"/>
</g>
<!-- Image&#45;&gt;Creator -->
<g id="edge37" class="edge">
<title>Image&#45;&gt;Creator</title>
<path fill="none" stroke="black" stroke-dasharray="5,2" d="M353.02,-321.66C365.4,-317.1 377.87,-310.76 387.68,-302 414.66,-277.9 392.96,-248.1 423.68,-229 457.74,-207.82 476.26,-215.22 513.93,-229 547.9,-241.43 578.12,-271.8 595.18,-291.61"/>
<polygon fill="black" stroke="black" points="352.06,-318.29 343.67,-324.76 354.26,-324.94 352.06,-318.29"/>
</g>
<!-- Image&#45;&gt;Project -->
<g id="edge38" class="edge">
<title>Image&#45;&gt;Project</title>
<path fill="none" stroke="black" stroke-dasharray="5,2" d="M353.5,-325.81C382.74,-321.77 417.99,-316.89 441.54,-313.63"/>
<polygon fill="black" stroke="black" points="353.15,-322.33 343.72,-327.17 354.11,-329.26 353.15,-322.33"/>
</g>
<!-- Image&#45;&gt;Updater -->
<g id="edge39" class="edge">
<title>Image&#45;&gt;Updater</title>
<path fill="none" stroke="black" stroke-dasharray="5,2" d="M353.15,-322.3C365.64,-317.72 378.13,-311.22 387.68,-302 418.67,-272.07 388,-236.15 423.68,-212 528.46,-141.06 684.67,-247.16 742.22,-291.78"/>
<polygon fill="black" stroke="black" points="352.11,-318.96 343.68,-325.38 354.28,-325.62 352.11,-318.96"/>
</g>
<!-- Image&#45;&gt;OriginCitation -->
<g id="edge41" class="edge">
<title>Image&#45;&gt;OriginCitation</title>
<path fill="none" stroke="black" d="M352.52,-338.46C396.33,-344.24 460.68,-355.32 513.93,-375 534.83,-382.73 556.59,-394.63 574.09,-405.29"/>
<polygon fill="none" stroke="black" points="342.11,-341.17 343.12,-333.24 351.06,-334.25 350.05,-342.18 342.11,-341.17"/>
<polyline fill="none" stroke="black" points="350.55,-338.21 352.54,-338.47"/>
<polygon fill="none" stroke="black" points="584.51,-407.07 580.29,-413.86 573.49,-409.63 577.72,-402.84 584.51,-407.07"/>
<polyline fill="none" stroke="black" points="575.61,-406.23 573.91,-405.18"/>
</g>
<!-- Image&#45;&gt;SledImage -->
<g id="edge42" class="edge">
<title>Image&#45;&gt;SledImage</title>
<path fill="none" stroke="black" d="M348.61,-317.75C361.46,-313.13 375.26,-307.74 387.68,-302 395.91,-298.19 412.5,-288.78 428.46,-279.45"/>
<polygon fill="none" stroke="black" points="340.8,-324.73 338.15,-317.18 345.7,-314.53 348.35,-322.08 340.8,-324.73"/>
<polyline fill="none" stroke="black" points="347.03,-318.3 348.91,-317.64"/>
<polygon fill="none" stroke="black" points="434.74,-271.11 438.79,-278.01 431.9,-282.06 427.84,-275.17 434.74,-271.11"/>
<polyline fill="none" stroke="black" points="429.87,-278.62 428.15,-279.63"/>
</g>
<!-- CitationTopic&#45;&gt;Topic -->
<g id="edge32" class="edge">
<title>CitationTopic&#45;&gt;Topic</title>
<path fill="none" stroke="black" stroke-dasharray="1,5" d="M346.54,-604C372.66,-604 405.18,-604 429.97,-604"/>
<polygon fill="black" stroke="black" points="429.94,-607.5 439.94,-604 429.94,-600.5 429.94,-607.5"/>
</g>
<!-- Role&#45;&gt;Verifier -->
<!-- SubsequentCitation&#45;&gt;SubsequentSource -->
<g id="edge28" class="edge">
<title>SubsequentCitation&#45;&gt;SubsequentSource</title>
<path fill="none" stroke="black" stroke-dasharray="1,5" d="M672.17,-525C680.11,-525 688.28,-525 696.34,-525"/>
<polygon fill="black" stroke="black" points="696.09,-528.5 706.09,-525 696.09,-521.5 696.09,-528.5"/>
</g>
<!-- VerifierRole&#45;&gt;Verifier -->
<g id="edge36" class="edge">
<title>VerifierRole&#45;&gt;Verifier</title>
<path fill="none" stroke="black" stroke-dasharray="1,5" d="M510.67,-25.88C529.65,-29.54 552.11,-33.87 570.85,-37.49"/>
<polygon fill="black" stroke="black" points="570,-40.89 580.49,-39.35 571.33,-34.02 570,-40.89"/>
</g>
<!-- Creator&#45;&gt;Updater -->
<!-- Project&#45;&gt;Creator -->
<!-- Depiction -->
<g id="node1" class="node">
<title>Depiction</title>
<g id="a_node1"><a xlink:href="/develop/Data/models.html#depiction" xlink:title="Depiction" target="_top">
<ellipse fill="#abcdef" stroke="#dddeee" cx="88.71" cy="-1066" rx="47.26" ry="18"/>
<text text-anchor="middle" x="88.71" y="-1060.95" font-family="Times,serif" font-size="14.00">Depiction</text>
</a>
</g>
</g>
<!-- Citation -->
<g id="node2" class="node">
<title>Citation</title>
<g id="a_node2"><a xlink:href="/develop/Data/models.html#citation" xlink:title="Citation" target="_top">
<ellipse fill="#abcdef" stroke="#dddeee" cx="88.71" cy="-549" rx="40.6" ry="18"/>
<text text-anchor="middle" x="88.71" y="-543.95" font-family="Times,serif" font-size="14.00">Citation</text>
</a>
</g>
</g>
<!-- Identifier -->
<g id="node3" class="node">
<title>Identifier</title>
<g id="a_node3"><a xlink:href="/develop/Data/models.html#identifier" xlink:title="Identifier" target="_top">
<ellipse fill="#abcdef" stroke="#dddeee" cx="88.71" cy="-437" rx="45.21" ry="18"/>
<text text-anchor="middle" x="88.71" y="-431.95" font-family="Times,serif" font-size="14.00">Identifier</text>
</a>
</g>
</g>
<!-- Tag -->
<g id="node4" class="node">
<title>Tag</title>
<g id="a_node4"><a xlink:href="/develop/Data/models.html#tag" xlink:title="Tag" target="_top">
<ellipse fill="#abcdef" stroke="#dddeee" cx="88.71" cy="-275" rx="27" ry="18"/>
<text text-anchor="middle" x="88.71" y="-269.95" font-family="Times,serif" font-size="14.00">Tag</text>
</a>
</g>
</g>
<!-- Note -->
<g id="node5" class="node">
<title>Note</title>
<g id="a_node5"><a xlink:href="/develop/Data/models.html#note" xlink:title="Note" target="_top">
<ellipse fill="#abcdef" stroke="#dddeee" cx="88.71" cy="-383" rx="28.83" ry="18"/>
<text text-anchor="middle" x="88.71" y="-377.95" font-family="Times,serif" font-size="14.00">Note</text>
</a>
</g>
</g>
<!-- ProtocolRelationship -->
<g id="node6" class="node">
<title>ProtocolRelationship</title>
<g id="a_node6"><a xlink:href="/develop/Data/models.html#protocol-relationship" xlink:title="ProtocolRelationship" target="_top">
<ellipse fill="#abcdef" stroke="#dddeee" cx="88.71" cy="-221" rx="88.71" ry="18"/>
<text text-anchor="middle" x="88.71" y="-215.95" font-family="Times,serif" font-size="14.00">ProtocolRelationship</text>
</a>
</g>
</g>
<!-- Attribution -->
<g id="node7" class="node">
<title>Attribution</title>
<g id="a_node7"><a xlink:href="/develop/Data/models.html#attribution" xlink:title="Attribution" target="_top">
<ellipse fill="#abcdef" stroke="#dddeee" cx="88.71" cy="-329" rx="51.86" ry="18"/>
<text text-anchor="middle" x="88.71" y="-323.95" font-family="Times,serif" font-size="14.00">Attribution</text>
</a>
</g>
</g>
<!-- BiologicalAssociation -->
<g id="node8" class="node">
<title>BiologicalAssociation</title>
<g id="a_node8"><a xlink:href="/develop/Data/models.html#biological-association" xlink:title="BiologicalAssociation" target="_top">
<path fill="#fedcba" stroke="#dddeee" d="M244.55,-696C244.55,-696 356.55,-696 356.55,-696 362.55,-696 368.55,-702 368.55,-708 368.55,-708 368.55,-720 368.55,-720 368.55,-726 362.55,-732 356.55,-732 356.55,-732 244.55,-732 244.55,-732 238.55,-732 232.55,-726 232.55,-720 232.55,-720 232.55,-708 232.55,-708 232.55,-702 238.55,-696 244.55,-696"/>
<text text-anchor="middle" x="300.55" y="-709.2" font-family="Times,serif" font-size="14.00">BiologicalAssociation</text>
</a>
</g>
</g>
<!-- CollectingEvent -->
<g id="node9" class="node">
<title>CollectingEvent</title>
<g id="a_node9"><a xlink:href="/develop/Data/models.html#collecting-event" xlink:title="CollectingEvent" target="_top">
<path fill="#fedcba" stroke="#dddeee" d="M260.68,-641C260.68,-641 340.43,-641 340.43,-641 346.43,-641 352.43,-647 352.43,-653 352.43,-653 352.43,-665 352.43,-665 352.43,-671 346.43,-677 340.43,-677 340.43,-677 260.68,-677 260.68,-677 254.68,-677 248.68,-671 248.68,-665 248.68,-665 248.68,-653 248.68,-653 248.68,-647 254.68,-641 260.68,-641"/>
<text text-anchor="middle" x="300.55" y="-654.2" font-family="Times,serif" font-size="14.00">CollectingEvent</text>
</a>
</g>
</g>
<!-- CollectionObject -->
<g id="node10" class="node">
<title>CollectionObject</title>
<g id="a_node10"><a xlink:href="/develop/Data/models.html#collection-object" xlink:title="CollectionObject" target="_top">
<path fill="#fedcba" stroke="#dddeee" d="M258.43,-1512C258.43,-1512 342.68,-1512 342.68,-1512 348.68,-1512 354.68,-1518 354.68,-1524 354.68,-1524 354.68,-1536 354.68,-1536 354.68,-1542 348.68,-1548 342.68,-1548 342.68,-1548 258.43,-1548 258.43,-1548 252.43,-1548 246.43,-1542 246.43,-1536 246.43,-1536 246.43,-1524 246.43,-1524 246.43,-1518 252.43,-1512 258.43,-1512"/>
<text text-anchor="middle" x="300.55" y="-1525.2" font-family="Times,serif" font-size="14.00">CollectionObject</text>
</a>
</g>
</g>
<!-- Descriptor -->
<g id="node11" class="node">
<title>Descriptor</title>
<g id="a_node11"><a xlink:href="/develop/Data/models.html#descriptor" xlink:title="Descriptor" target="_top">
<path fill="#fedcba" stroke="#dddeee" d="M276.05,-1457C276.05,-1457 325.05,-1457 325.05,-1457 331.05,-1457 337.05,-1463 337.05,-1469 337.05,-1469 337.05,-1481 337.05,-1481 337.05,-1487 331.05,-1493 325.05,-1493 325.05,-1493 276.05,-1493 276.05,-1493 270.05,-1493 264.05,-1487 264.05,-1481 264.05,-1481 264.05,-1469 264.05,-1469 264.05,-1463 270.05,-1457 276.05,-1457"/>
<text text-anchor="middle" x="300.55" y="-1470.2" font-family="Times,serif" font-size="14.00">Descriptor</text>
</a>
</g>
</g>
<!-- Observation -->
<g id="node12" class="node">
<title>Observation</title>
<g id="a_node12"><a xlink:href="/develop/Data/models.html#observation" xlink:title="Observation" target="_top">
<path fill="#fedcba" stroke="#dddeee" d="M271.55,-1402C271.55,-1402 329.55,-1402 329.55,-1402 335.55,-1402 341.55,-1408 341.55,-1414 341.55,-1414 341.55,-1426 341.55,-1426 341.55,-1432 335.55,-1438 329.55,-1438 329.55,-1438 271.55,-1438 271.55,-1438 265.55,-1438 259.55,-1432 259.55,-1426 259.55,-1426 259.55,-1414 259.55,-1414 259.55,-1408 265.55,-1402 271.55,-1402"/>
<text text-anchor="middle" x="300.55" y="-1415.2" font-family="Times,serif" font-size="14.00">Observation</text>
</a>
</g>
</g>
<!-- Otu -->
<g id="node13" class="node">
<title>Otu</title>
<g id="a_node13"><a xlink:href="/develop/Data/models.html#otu" xlink:title="Otu" target="_top">
<path fill="#fedcba" stroke="#dddeee" d="M285.55,-1347C285.55,-1347 315.55,-1347 315.55,-1347 321.55,-1347 327.55,-1353 327.55,-1359 327.55,-1359 327.55,-1371 327.55,-1371 327.55,-1377 321.55,-1383 315.55,-1383 315.55,-1383 285.55,-1383 285.55,-1383 279.55,-1383 273.55,-1377 273.55,-1371 273.55,-1371 273.55,-1359 273.55,-1359 273.55,-1353 279.55,-1347 285.55,-1347"/>
<text text-anchor="middle" x="300.55" y="-1360.2" font-family="Times,serif" font-size="14.00">Otu</text>
</a>
</g>
</g>
<!-- Source -->
<g id="node14" class="node">
<title>Source</title>
<g id="a_node14"><a xlink:href="/develop/Data/models.html#source" xlink:title="Source" target="_top">
<path fill="#fedcba" stroke="#dddeee" d="M453.8,-531C453.8,-531 483.8,-531 483.8,-531 489.8,-531 495.8,-537 495.8,-543 495.8,-543 495.8,-555 495.8,-555 495.8,-561 489.8,-567 483.8,-567 483.8,-567 453.8,-567 453.8,-567 447.8,-567 441.8,-561 441.8,-555 441.8,-555 441.8,-543 441.8,-543 441.8,-537 447.8,-531 453.8,-531"/>
<text text-anchor="middle" x="468.8" y="-544.2" font-family="Times,serif" font-size="14.00">Source</text>
</a>
</g>
</g>
<!-- TaxonName -->
<g id="node15" class="node">
<title>TaxonName</title>
<g id="a_node15"><a xlink:href="/develop/Data/models.html#taxon-name" xlink:title="TaxonName" target="_top">
<path fill="#fedcba" stroke="#dddeee" d="M270.8,-1292C270.8,-1292 330.3,-1292 330.3,-1292 336.3,-1292 342.3,-1298 342.3,-1304 342.3,-1304 342.3,-1316 342.3,-1316 342.3,-1322 336.3,-1328 330.3,-1328 330.3,-1328 270.8,-1328 270.8,-1328 264.8,-1328 258.8,-1322 258.8,-1316 258.8,-1316 258.8,-1304 258.8,-1304 258.8,-1298 264.8,-1292 270.8,-1292"/>
<text text-anchor="middle" x="300.55" y="-1305.2" font-family="Times,serif" font-size="14.00">TaxonName</text>
</a>
</g>
</g>
<!-- Image -->
<g id="node16" class="node">
<title>Image</title>
<g id="a_node16"><a xlink:href="/develop/Data/models.html#image" xlink:title="Image" target="_top">
<polygon fill="#cdefab" stroke="#dedede" points="337.85,-325.54 337.85,-340.46 316,-351 285.1,-351 263.25,-340.46 263.25,-325.54 285.1,-315 316,-315 337.85,-325.54"/>
<polygon fill="none" stroke="#dedede" points="341.85,-323.03 341.85,-342.97 316.92,-355 284.19,-355 259.25,-342.97 259.25,-323.03 284.19,-311 316.92,-311 341.85,-323.03"/>
<text text-anchor="middle" x="300.55" y="-327.95" font-family="Times,serif" font-size="14.00">Image</text>
</a>
</g>
</g>
<!-- CharacterState -->
<g id="node17" class="node">
<title>CharacterState</title>
<g id="a_node17"><a xlink:href="/develop/Data/models.html#character-state" xlink:title="CharacterState" target="_top">
<polygon fill="#eeefff" stroke="#dddeee" points="348.3,-1273 252.8,-1273 252.8,-1237 348.3,-1237 348.3,-1273"/>
<text text-anchor="middle" x="300.55" y="-1249.95" font-family="Times,serif" font-size="14.00">CharacterState</text>
</a>
</g>
</g>
<!-- CitationTopic -->
<g id="node18" class="node">
<title>CitationTopic</title>
<g id="a_node18"><a xlink:href="/develop/Data/models.html#citation-topic" xlink:title="CitationTopic" target="_top">
<polygon fill="#eeefff" stroke="#dddeee" points="346.05,-622 255.05,-622 255.05,-586 346.05,-586 346.05,-622"/>
<text text-anchor="middle" x="300.55" y="-598.95" font-family="Times,serif" font-size="14.00">CitationTopic</text>
</a>
</g>
</g>
<!-- CollectionObjectObservation -->
<g id="node19" class="node">
<title>CollectionObjectObservation</title>
<g id="a_node19"><a xlink:href="/develop/Data/models.html#collection-object-observation" xlink:title="CollectionObjectObservation" target="_top">
<polygon fill="#eeefff" stroke="#dddeee" points="387.68,-1219 213.43,-1219 213.43,-1183 387.68,-1183 387.68,-1219"/>
<text text-anchor="middle" x="300.55" y="-1195.95" font-family="Times,serif" font-size="14.00">CollectionObjectObservation</text>
</a>
</g>
</g>
<!-- Container -->
<g id="node20" class="node">
<title>Container</title>
<g id="a_node20"><a xlink:href="/develop/Data/models.html#container" xlink:title="Container" target="_top">
<polygon fill="#eeefff" stroke="#dddeee" points="335.18,-1165 265.93,-1165 265.93,-1129 335.18,-1129 335.18,-1165"/>
<text text-anchor="middle" x="300.55" y="-1141.95" font-family="Times,serif" font-size="14.00">Container</text>
</a>
</g>
</g>
<!-- Content -->
<g id="node21" class="node">
<title>Content</title>
<g id="a_node21"><a xlink:href="/develop/Data/models.html#content" xlink:title="Content" target="_top">
<polygon fill="#eeefff" stroke="#dddeee" points="329.93,-1111 271.18,-1111 271.18,-1075 329.93,-1075 329.93,-1111"/>
<text text-anchor="middle" x="300.55" y="-1087.95" font-family="Times,serif" font-size="14.00">Content</text>
</a>
</g>
</g>
<!-- FieldOccurrence -->
<g id="node22" class="node">
<title>FieldOccurrence</title>
<g id="a_node22"><a xlink:href="/develop/Data/models.html#field-occurrence" xlink:title="FieldOccurrence" target="_top">
<polygon fill="#eeefff" stroke="#dddeee" points="353.55,-1057 247.55,-1057 247.55,-1021 353.55,-1021 353.55,-1057"/>
<text text-anchor="middle" x="300.55" y="-1033.95" font-family="Times,serif" font-size="14.00">FieldOccurrence</text>
</a>
</g>
</g>
<!-- Keyword -->
<g id="node23" class="node">
<title>Keyword</title>
<g id="a_node23"><a xlink:href="/develop/Data/models.html#keyword" xlink:title="Keyword" target="_top">
<polygon fill="#eeefff" stroke="#dddeee" points="333.68,-293 267.43,-293 267.43,-257 333.68,-257 333.68,-293"/>
<text text-anchor="middle" x="300.55" y="-269.95" font-family="Times,serif" font-size="14.00">Keyword</text>
</a>
</g>
</g>
<!-- Label -->
<g id="node24" class="node">
<title>Label</title>
<g id="a_node24"><a xlink:href="/develop/Data/models.html#label" xlink:title="Label" target="_top">
<polygon fill="#eeefff" stroke="#dddeee" points="327.55,-1003 273.55,-1003 273.55,-967 327.55,-967 327.55,-1003"/>
<text text-anchor="middle" x="300.55" y="-979.95" font-family="Times,serif" font-size="14.00">Label</text>
</a>
</g>
</g>
<!-- Lead -->
<g id="node25" class="node">
<title>Lead</title>
<g id="a_node25"><a xlink:href="/develop/Data/models.html#lead" xlink:title="Lead" target="_top">
<polygon fill="#eeefff" stroke="#dddeee" points="327.55,-949 273.55,-949 273.55,-913 327.55,-913 327.55,-949"/>
<text text-anchor="middle" x="300.55" y="-925.95" font-family="Times,serif" font-size="14.00">Lead</text>
</a>
</g>
</g>
<!-- Loan -->
<g id="node26" class="node">
<title>Loan</title>
<g id="a_node26"><a xlink:href="/develop/Data/models.html#loan" xlink:title="Loan" target="_top">
<polygon fill="#eeefff" stroke="#dddeee" points="327.55,-895 273.55,-895 273.55,-859 327.55,-859 327.55,-895"/>
<text text-anchor="middle" x="300.55" y="-871.95" font-family="Times,serif" font-size="14.00">Loan</text>
</a>
</g>
</g>
<!-- Person -->
<g id="node27" class="node">
<title>Person</title>
<g id="a_node27"><a xlink:href="/develop/Data/models.html#person" xlink:title="Person" target="_top">
<polygon fill="#eeefff" stroke="#dddeee" points="327.55,-841 273.55,-841 273.55,-805 327.55,-805 327.55,-841"/>
<text text-anchor="middle" x="300.55" y="-817.95" font-family="Times,serif" font-size="14.00">Person</text>
</a>
</g>
</g>
<!-- PinboardItem -->
<g id="node28" class="node">
<title>PinboardItem</title>
<g id="a_node28"><a xlink:href="/develop/Data/models.html#pinboard-item" xlink:title="PinboardItem" target="_top">
<polygon fill="#eeefff" stroke="#dddeee" points="513.93,-144 423.68,-144 423.68,-108 513.93,-108 513.93,-144"/>
<text text-anchor="middle" x="468.8" y="-120.95" font-family="Times,serif" font-size="14.00">PinboardItem</text>
</a>
</g>
</g>
<!-- Protocol -->
<g id="node29" class="node">
<title>Protocol</title>
<g id="a_node29"><a xlink:href="/develop/Data/models.html#protocol" xlink:title="Protocol" target="_top">
<polygon fill="#eeefff" stroke="#dddeee" points="331.43,-239 269.68,-239 269.68,-203 331.43,-203 331.43,-239"/>
<text text-anchor="middle" x="300.55" y="-215.95" font-family="Times,serif" font-size="14.00">Protocol</text>
</a>
</g>
</g>
<!-- Role -->
<g id="node30" class="node">
<title>Role</title>
<g id="a_node30"><a xlink:href="/develop/Data/models.html#role" xlink:title="Role" target="_top">
<polygon fill="#eeefff" stroke="#dddeee" points="495.8,-90 441.8,-90 441.8,-54 495.8,-54 495.8,-90"/>
<text text-anchor="middle" x="468.8" y="-66.95" font-family="Times,serif" font-size="14.00">Role</text>
</a>
</g>
</g>
<!-- SubsequentCitation -->
<g id="node31" class="node">
<title>SubsequentCitation</title>
<g id="a_node31"><a xlink:href="/develop/Data/models.html#subsequent-citation" xlink:title="SubsequentCitation" target="_top">
<polygon fill="#eeefff" stroke="#dddeee" points="671.68,-543 549.93,-543 549.93,-507 671.68,-507 671.68,-543"/>
<text text-anchor="middle" x="610.8" y="-519.95" font-family="Times,serif" font-size="14.00">SubsequentCitation</text>
</a>
</g>
</g>
<!-- SubsequentSource -->
<g id="node32" class="node">
<title>SubsequentSource</title>
<g id="a_node32"><a xlink:href="/develop/Data/models.html#subsequent-source" xlink:title="SubsequentSource" target="_top">
<polygon fill="#eeefff" stroke="#dddeee" points="823.43,-543 707.68,-543 707.68,-507 823.43,-507 823.43,-543"/>
<text text-anchor="middle" x="765.55" y="-519.95" font-family="Times,serif" font-size="14.00">SubsequentSource</text>
</a>
</g>
</g>
<!-- TaxonDetermination -->
<g id="node33" class="node">
<title>TaxonDetermination</title>
<g id="a_node33"><a xlink:href="/develop/Data/models.html#taxon-determination" xlink:title="TaxonDetermination" target="_top">
<polygon fill="#eeefff" stroke="#dddeee" points="365.18,-787 235.93,-787 235.93,-751 365.18,-751 365.18,-787"/>
<text text-anchor="middle" x="300.55" y="-763.95" font-family="Times,serif" font-size="14.00">TaxonDetermination</text>
</a>
</g>
</g>
<!-- Topic -->
<g id="node34" class="node">
<title>Topic</title>
<g id="a_node34"><a xlink:href="/develop/Data/models.html#topic" xlink:title="Topic" target="_top">
<polygon fill="#eeefff" stroke="#dddeee" points="495.8,-622 441.8,-622 441.8,-586 495.8,-586 495.8,-622"/>
<text text-anchor="middle" x="468.8" y="-598.95" font-family="Times,serif" font-size="14.00">Topic</text>
</a>
</g>
</g>
<!-- Uri -->
<g id="node35" class="node">
<title>Uri</title>
<g id="a_node35"><a xlink:href="/develop/Data/models.html#uri" xlink:title="Uri" target="_top">
<polygon fill="#eeefff" stroke="#dddeee" points="495.8,-474 441.8,-474 441.8,-438 495.8,-438 495.8,-474"/>
<text text-anchor="middle" x="468.8" y="-450.95" font-family="Times,serif" font-size="14.00">Uri</text>
</a>
</g>
</g>
<!-- Uuid -->
<g id="node36" class="node">
<title>Uuid</title>
<g id="a_node36"><a xlink:href="/develop/Data/models.html#uuid" xlink:title="Uuid" target="_top">
<polygon fill="#eeefff" stroke="#dddeee" points="495.8,-420 441.8,-420 441.8,-384 495.8,-384 495.8,-420"/>
<text text-anchor="middle" x="468.8" y="-396.95" font-family="Times,serif" font-size="14.00">Uuid</text>
</a>
</g>
</g>
<!-- VerifierRole -->
<g id="node37" class="node">
<title>VerifierRole</title>
<g id="a_node37"><a xlink:href="/develop/Data/models.html#verifier-role" xlink:title="VerifierRole" target="_top">
<polygon fill="#eeefff" stroke="#dddeee" points="510.18,-36 427.43,-36 427.43,0 510.18,0 510.18,-36"/>
<text text-anchor="middle" x="468.8" y="-12.95" font-family="Times,serif" font-size="14.00">VerifierRole</text>
</a>
</g>
</g>
<!-- Verifier -->
<g id="node38" class="node">
<title>Verifier</title>
<g id="a_node38"><a xlink:href="/develop/Data/models.html#verifier" xlink:title="Verifier" target="_top">
<polygon fill="#eeefff" stroke="#dddeee" points="639.43,-63 582.18,-63 582.18,-27 639.43,-27 639.43,-63"/>
<text text-anchor="middle" x="610.8" y="-39.95" font-family="Times,serif" font-size="14.00">Verifier</text>
</a>
</g>
</g>
<!-- Creator -->
<g id="node39" class="node">
<title>Creator</title>
<g id="a_node39"><a xlink:href="/develop/Data/models.html#creator" xlink:title="Creator" target="_top">
<polygon fill="#eeefff" stroke="#dddeee" points="639.05,-328 582.55,-328 582.55,-292 639.05,-292 639.05,-328"/>
<text text-anchor="middle" x="610.8" y="-304.95" font-family="Times,serif" font-size="14.00">Creator</text>
</a>
</g>
</g>
<!-- Project -->
<g id="node40" class="node">
<title>Project</title>
<g id="a_node40"><a xlink:href="/develop/Data/models.html#project" xlink:title="Project" target="_top">
<polygon fill="#eeefff" stroke="#dddeee" points="495.93,-328 441.68,-328 441.68,-292 495.93,-292 495.93,-328"/>
<text text-anchor="middle" x="468.8" y="-304.95" font-family="Times,serif" font-size="14.00">Project</text>
</a>
</g>
</g>
<!-- Updater -->
<g id="node41" class="node">
<title>Updater</title>
<g id="a_node41"><a xlink:href="/develop/Data/models.html#updater" xlink:title="Updater" target="_top">
<polygon fill="#eeefff" stroke="#dddeee" points="795.3,-328 735.8,-328 735.8,-292 795.3,-292 795.3,-328"/>
<text text-anchor="middle" x="765.55" y="-304.95" font-family="Times,serif" font-size="14.00">Updater</text>
</a>
</g>
</g>
<!-- OriginCitation -->
<g id="node42" class="node">
<title>OriginCitation</title>
<g id="a_node42"><a xlink:href="/develop/Data/models.html#origin-citation" xlink:title="OriginCitation" target="_top">
<polygon fill="#eeefff" stroke="#dddeee" points="658.18,-447 563.43,-447 563.43,-411 658.18,-411 658.18,-447"/>
<text text-anchor="middle" x="610.8" y="-423.95" font-family="Times,serif" font-size="14.00">OriginCitation</text>
</a>
</g>
</g>
<!-- SledImage -->
<g id="node43" class="node">
<title>SledImage</title>
<g id="a_node43"><a xlink:href="/develop/Data/models.html#sled-image" xlink:title="SledImage" target="_top">
<polygon fill="#eeefff" stroke="#dddeee" points="506.05,-274 431.55,-274 431.55,-238 506.05,-238 506.05,-274"/>
<text text-anchor="middle" x="468.8" y="-250.95" font-family="Times,serif" font-size="14.00">SledImage</text>
</a>
</g>
</g>
</g>
</svg>
