<?xml version="1.0" encoding="UTF-8" standalone="no"?>
<!DOCTYPE svg PUBLIC "-//W3C//DTD SVG 1.1//EN"
 "http://www.w3.org/Graphics/SVG/1.1/DTD/svg11.dtd">
<!-- Generated by graphviz version 2.50.0 (20211204.2007)
 -->
<!-- Title: ImportDataset Pages: 1 -->
<svg width="603pt" height="493pt"
 viewBox="0.00 0.00 602.66 492.91" xmlns="http://www.w3.org/2000/svg" xmlns:xlink="http://www.w3.org/1999/xlink">
<g id="graph0" class="graph" transform="scale(1 1) rotate(0) translate(4 488.91)">
<title>ImportDataset</title>
<polygon fill="white" stroke="transparent" points="-4,4 -4,-488.91 598.66,-488.91 598.66,4 -4,4"/>
<!-- ImportDataset&#45;&gt;DatasetRecordField -->
<g id="edge1" class="edge">
<title>ImportDataset&#45;&gt;DatasetRecordField</title>
<path fill="none" stroke="black" d="M77.9,-257.94C90.22,-298.92 121.85,-387.44 177.66,-439.91 178.77,-440.95 179.93,-441.95 181.12,-442.92"/>
<polygon fill="black" stroke="black" points="179.29,-445.92 189.48,-448.83 183.33,-440.2 179.29,-445.92"/>
</g>
<!-- ImportDataset&#45;&gt;DatasetRecord -->
<g id="edge2" class="edge">
<title>ImportDataset&#45;&gt;DatasetRecord</title>
<path fill="none" stroke="black" d="M82.54,-258.1C99,-290.16 133.29,-349.54 177.66,-385.91 179.24,-387.2 180.89,-388.44 182.6,-389.64"/>
<polygon fill="black" stroke="black" points="181.16,-392.87 191.5,-395.2 184.87,-386.93 181.16,-392.87"/>
</g>
<!-- ImportDataset&#45;&gt;OriginRelationship -->
<g id="edge3" class="edge">
<title>ImportDataset&#45;&gt;OriginRelationship</title>
<path fill="none" stroke="black" d="M92.04,-257.94C112.2,-278.98 144.81,-310.53 177.66,-331.91 179.83,-333.32 182.08,-334.68 184.39,-336.01"/>
<polygon fill="black" stroke="black" points="183.02,-339.25 193.49,-340.89 186.33,-333.08 183.02,-339.25"/>
</g>
<!-- ImportDataset&#45;&gt;PinboardItem -->
<g id="edge4" class="edge">
<title>ImportDataset&#45;&gt;PinboardItem</title>
<path fill="none" stroke="black" d="M114.8,-253.68C136.34,-262.58 162.63,-273.46 185.44,-282.89"/>
<polygon fill="black" stroke="black" points="184.4,-286.25 194.98,-286.84 187.07,-279.78 184.4,-286.25"/>
</g>
<!-- ImportDataset&#45;&gt;RelatedOriginRelationship -->
<g id="edge5" class="edge">
<title>ImportDataset&#45;&gt;RelatedOriginRelationship</title>
<path fill="none" stroke="black" d="M141.67,-240.82C188.41,-245.98 250.49,-256.5 301.66,-277.91 334.46,-291.63 367.21,-315.83 389.41,-334.22"/>
<polygon fill="black" stroke="black" points="387.19,-336.93 397.09,-340.7 391.7,-331.58 387.19,-336.93"/>
</g>
<!-- ImportDataset&#45;&gt;Role -->
<g id="edge6" class="edge">
<title>ImportDataset&#45;&gt;Role</title>
<path fill="none" stroke="black" d="M141.62,-226.29C162.52,-223.4 184.59,-220.36 202.39,-217.91"/>
<polygon fill="black" stroke="black" points="202.92,-221.37 212.34,-216.53 201.96,-214.43 202.92,-221.37"/>
</g>
<!-- ImportDataset&#45;&gt;VerifierRole -->
<g id="edge7" class="edge">
<title>ImportDataset&#45;&gt;VerifierRole</title>
<path fill="none" stroke="black" d="M111.18,-217.04C131.05,-207.57 155.58,-196.01 177.66,-185.91 181.23,-184.27 184.93,-182.6 188.65,-180.92"/>
<polygon fill="black" stroke="black" points="190.22,-184.06 197.91,-176.78 187.36,-177.67 190.22,-184.06"/>
</g>
<!-- ImportDataset&#45;&gt;Creator -->
<g id="edge9" class="edge">
<title>ImportDataset&#45;&gt;Creator</title>
<path fill="none" stroke="black" stroke-dasharray="5,2" d="M94.95,-205.93C114.55,-182.5 144.68,-150.83 177.66,-131.91 196.26,-121.24 330.66,-87.88 389.6,-73.55"/>
<polygon fill="black" stroke="black" points="92.1,-203.89 88.47,-213.84 97.51,-208.33 92.1,-203.89"/>
</g>
<!-- ImportDataset&#45;&gt;Project -->
<g id="edge10" class="edge">
<title>ImportDataset&#45;&gt;Project</title>
<path fill="none" stroke="black" stroke-dasharray="5,2" d="M90.12,-205.06C109.08,-175.06 141.04,-129.63 177.66,-98.91 187.83,-90.37 200.65,-83.22 211.91,-77.86"/>
<polygon fill="black" stroke="black" points="86.96,-203.5 84.66,-213.84 92.91,-207.2 86.96,-203.5"/>
</g>
<!-- ImportDataset&#45;&gt;Updater -->
<g id="edge11" class="edge">
<title>ImportDataset&#45;&gt;Updater</title>
<path fill="none" stroke="black" stroke-dasharray="5,2" d="M78.47,-203.75C89.85,-157.96 117.89,-75.56 177.66,-39.91 300.19,33.18 358.75,-12 498.66,-39.91 510.77,-42.32 523.44,-47.03 534.34,-51.85"/>
<polygon fill="black" stroke="black" points="75.01,-203.21 76.11,-213.75 81.82,-204.82 75.01,-203.21"/>
</g>
<!-- OriginRelationship&#45;&gt;RelatedOriginRelationship -->
<!-- Role&#45;&gt;Verifier -->
<!-- VerifierRole&#45;&gt;Verifier -->
<g id="edge8" class="edge">
<title>VerifierRole&#45;&gt;Verifier</title>
<path fill="none" stroke="black" stroke-dasharray="1,5" d="M281.6,-165.17C311.17,-169.69 350.79,-175.75 379.56,-180.15"/>
<polygon fill="black" stroke="black" points="379.22,-183.64 389.63,-181.69 380.28,-176.72 379.22,-183.64"/>
</g>
<!-- Creator&#45;&gt;Updater -->
<!-- Project&#45;&gt;Creator -->
<!-- ImportDataset -->
<g id="node1" class="node">
<title>ImportDataset</title>
<g id="a_node1"><a xlink:href="/develop/Data/models.html#import-dataset" xlink:title="ImportDataset" target="_top">
<polygon fill="#cdefab" stroke="#dedede" points="137.51,-228.45 137.51,-243.36 98.45,-253.91 43.21,-253.91 4.16,-243.36 4.16,-228.45 43.21,-217.91 98.45,-217.91 137.51,-228.45"/>
<polygon fill="none" stroke="#dedede" points="141.5,-225.38 141.5,-246.43 98.98,-257.91 42.69,-257.91 0.17,-246.43 0.17,-225.38 42.69,-213.91 98.98,-213.91 141.5,-225.38"/>
<text text-anchor="middle" x="70.83" y="-232.21" font-family="Times,serif" font-size="14.00">ImportDataset</text>
</a>
</g>
</g>
<!-- DatasetRecordField -->
<g id="node2" class="node">
<title>DatasetRecordField</title>
<g id="a_node2"><a xlink:href="/develop/Data/models.html#dataset-record-field" xlink:title="DatasetRecordField" target="_top">
<polygon fill="#eeefff" stroke="#dddeee" points="301.66,-484.91 177.66,-484.91 177.66,-448.91 301.66,-448.91 301.66,-484.91"/>
<text text-anchor="middle" x="239.66" y="-463.21" font-family="Times,serif" font-size="14.00">DatasetRecordField</text>
</a>
</g>
</g>
<!-- DatasetRecord -->
<g id="node3" class="node">
<title>DatasetRecord</title>
<g id="a_node3"><a xlink:href="/develop/Data/models.html#dataset-record" xlink:title="DatasetRecord" target="_top">
<polygon fill="#eeefff" stroke="#dddeee" points="287.66,-430.91 191.66,-430.91 191.66,-394.91 287.66,-394.91 287.66,-430.91"/>
<text text-anchor="middle" x="239.66" y="-409.21" font-family="Times,serif" font-size="14.00">DatasetRecord</text>
</a>
</g>
</g>
<!-- OriginRelationship -->
<g id="node4" class="node">
<title>OriginRelationship</title>
<g id="a_node4"><a xlink:href="/develop/Data/models.html#origin-relationship" xlink:title="OriginRelationship" target="_top">
<polygon fill="#eeefff" stroke="#dddeee" points="299.66,-376.91 179.66,-376.91 179.66,-340.91 299.66,-340.91 299.66,-376.91"/>
<text text-anchor="middle" x="239.66" y="-355.21" font-family="Times,serif" font-size="14.00">OriginRelationship</text>
</a>
</g>
</g>
<!-- PinboardItem -->
<g id="node5" class="node">
<title>PinboardItem</title>
<g id="a_node5"><a xlink:href="/develop/Data/models.html#pinboard-item" xlink:title="PinboardItem" target="_top">
<polygon fill="#eeefff" stroke="#dddeee" points="285.16,-322.91 194.16,-322.91 194.16,-286.91 285.16,-286.91 285.16,-322.91"/>
<text text-anchor="middle" x="239.66" y="-301.21" font-family="Times,serif" font-size="14.00">PinboardItem</text>
</a>
</g>
</g>
<!-- RelatedOriginRelationship -->
<g id="node6" class="node">
<title>RelatedOriginRelationship</title>
<g id="a_node6"><a xlink:href="/develop/Data/models.html#related-origin-relationship" xlink:title="RelatedOriginRelationship" target="_top">
<polygon fill="#eeefff" stroke="#dddeee" points="498.66,-376.91 337.66,-376.91 337.66,-340.91 498.66,-340.91 498.66,-376.91"/>
<text text-anchor="middle" x="418.16" y="-355.21" font-family="Times,serif" font-size="14.00">RelatedOriginRelationship</text>
</a>
</g>
</g>
<!-- Role -->
<g id="node7" class="node">
<title>Role</title>
<g id="a_node7"><a xlink:href="/develop/Data/models.html#role" xlink:title="Role" target="_top">
<polygon fill="#eeefff" stroke="#dddeee" points="266.66,-230.91 212.66,-230.91 212.66,-194.91 266.66,-194.91 266.66,-230.91"/>
<text text-anchor="middle" x="239.66" y="-209.21" font-family="Times,serif" font-size="14.00">Role</text>
</a>
</g>
</g>
<!-- VerifierRole -->
<g id="node8" class="node">
<title>VerifierRole</title>
<g id="a_node8"><a xlink:href="/develop/Data/models.html#verifier-role" xlink:title="VerifierRole" target="_top">
<polygon fill="#eeefff" stroke="#dddeee" points="281.16,-176.91 198.16,-176.91 198.16,-140.91 281.16,-140.91 281.16,-176.91"/>
<text text-anchor="middle" x="239.66" y="-155.21" font-family="Times,serif" font-size="14.00">VerifierRole</text>
</a>
</g>
</g>
<!-- Verifier -->
<g id="node9" class="node">
<title>Verifier</title>
<g id="a_node9"><a xlink:href="/develop/Data/models.html#verifier" xlink:title="Verifier" target="_top">
<polygon fill="#eeefff" stroke="#dddeee" points="446.66,-203.91 389.66,-203.91 389.66,-167.91 446.66,-167.91 446.66,-203.91"/>
<text text-anchor="middle" x="418.16" y="-182.21" font-family="Times,serif" font-size="14.00">Verifier</text>
</a>
</g>
</g>
<!-- Creator -->
<g id="node10" class="node">
<title>Creator</title>
<g id="a_node10"><a xlink:href="/develop/Data/models.html#creator" xlink:title="Creator" target="_top">
<polygon fill="#eeefff" stroke="#dddeee" points="446.66,-84.91 389.66,-84.91 389.66,-48.91 446.66,-48.91 446.66,-84.91"/>
<text text-anchor="middle" x="418.16" y="-63.21" font-family="Times,serif" font-size="14.00">Creator</text>
</a>
</g>
</g>
<!-- Project -->
<g id="node11" class="node">
<title>Project</title>
<g id="a_node11"><a xlink:href="/develop/Data/models.html#project" xlink:title="Project" target="_top">
<polygon fill="#eeefff" stroke="#dddeee" points="267.16,-84.91 212.16,-84.91 212.16,-48.91 267.16,-48.91 267.16,-84.91"/>
<text text-anchor="middle" x="239.66" y="-63.21" font-family="Times,serif" font-size="14.00">Project</text>
</a>
</g>
</g>
<!-- Updater -->
<g id="node12" class="node">
<title>Updater</title>
<g id="a_node12"><a xlink:href="/develop/Data/models.html#updater" xlink:title="Updater" target="_top">
<polygon fill="#eeefff" stroke="#dddeee" points="594.66,-84.91 534.66,-84.91 534.66,-48.91 594.66,-48.91 594.66,-84.91"/>
<text text-anchor="middle" x="564.66" y="-63.21" font-family="Times,serif" font-size="14.00">Updater</text>
</a>
</g>
</g>
</g>
</svg>
