<?xml version="1.0" encoding="UTF-8" standalone="no"?>
<!DOCTYPE svg PUBLIC "-//W3C//DTD SVG 1.1//EN"
 "http://www.w3.org/Graphics/SVG/1.1/DTD/svg11.dtd">
<!-- Generated by graphviz version 12.2.1 (20241206.2353)
 -->
<!-- Title: ImportDataset Pages: 1 -->
<svg width="606pt" height="493pt"
 viewBox="0.00 0.00 606.36 492.54" xmlns="http://www.w3.org/2000/svg" xmlns:xlink="http://www.w3.org/1999/xlink">
<g id="graph0" class="graph" transform="scale(1 1) rotate(0) translate(4 488.54)">
<title>ImportDataset</title>
<polygon fill="white" stroke="none" points="-4,4 -4,-488.54 602.36,-488.54 602.36,4 -4,4"/>
<!-- ImportDataset&#45;&gt;DatasetRecordField -->
<g id="edge1" class="edge">
<title>ImportDataset&#45;&gt;DatasetRecordField</title>
<path fill="none" stroke="black" d="M80.92,-257.89C93.88,-298.99 126.7,-387.15 182.86,-439.54 183.62,-440.25 184.4,-440.94 185.19,-441.61"/>
<polygon fill="black" stroke="black" points="182.96,-444.31 193.11,-447.33 187.06,-438.64 182.96,-444.31"/>
</g>
<!-- ImportDataset&#45;&gt;DatasetRecord -->
<g id="edge2" class="edge">
<title>ImportDataset&#45;&gt;DatasetRecord</title>
<path fill="none" stroke="black" d="M85.7,-257.98C102.79,-290.07 138.08,-349.19 182.86,-385.54 184.15,-386.59 185.48,-387.6 186.85,-388.58"/>
<polygon fill="black" stroke="black" points="184.74,-391.38 195.06,-393.78 188.49,-385.47 184.74,-391.38"/>
</g>
<!-- ImportDataset&#45;&gt;OriginRelationship -->
<g id="edge3" class="edge">
<title>ImportDataset&#45;&gt;OriginRelationship</title>
<path fill="none" stroke="black" d="M95.65,-257.92C116.41,-278.91 149.67,-310.18 182.86,-331.54 184.5,-332.59 186.18,-333.62 187.89,-334.63"/>
<polygon fill="black" stroke="black" points="186.2,-337.69 196.66,-339.4 189.55,-331.55 186.2,-337.69"/>
</g>
<!-- ImportDataset&#45;&gt;PinboardItem -->
<g id="edge4" class="edge">
<title>ImportDataset&#45;&gt;PinboardItem</title>
<path fill="none" stroke="black" d="M118.85,-253.67C140.22,-262.39 166.03,-272.93 188.62,-282.15"/>
<polygon fill="black" stroke="black" points="187.09,-285.3 197.67,-285.84 189.74,-278.82 187.09,-285.3"/>
</g>
<!-- ImportDataset&#45;&gt;RelatedOriginRelationship -->
<g id="edge5" class="edge">
<title>ImportDataset&#45;&gt;RelatedOriginRelationship</title>
<path fill="none" stroke="black" d="M147.17,-240.62C194.01,-245.83 255.38,-256.35 306.11,-277.54 338.47,-291.06 370.74,-314.81 392.89,-333.11"/>
<polygon fill="black" stroke="black" points="390.39,-335.58 400.29,-339.35 394.9,-330.23 390.39,-335.58"/>
</g>
<!-- ImportDataset&#45;&gt;Role -->
<g id="edge6" class="edge">
<title>ImportDataset&#45;&gt;Role</title>
<path fill="none" stroke="black" d="M147.11,-225.65C167.32,-222.9 188.46,-220.03 205.77,-217.67"/>
<polygon fill="black" stroke="black" points="206.15,-221.15 215.59,-216.34 205.2,-214.22 206.15,-221.15"/>
</g>
<!-- ImportDataset&#45;&gt;VerifierRole -->
<g id="edge7" class="edge">
<title>ImportDataset&#45;&gt;VerifierRole</title>
<path fill="none" stroke="black" d="M115.57,-216.42C135.81,-207.05 160.58,-195.64 182.86,-185.54 185.96,-184.14 189.16,-182.7 192.38,-181.25"/>
<polygon fill="black" stroke="black" points="193.62,-184.53 201.31,-177.24 190.75,-178.14 193.62,-184.53"/>
</g>
<!-- ImportDataset&#45;&gt;Creator -->
<g id="edge9" class="edge">
<title>ImportDataset&#45;&gt;Creator</title>
<path fill="none" stroke="black" stroke-dasharray="5,2" d="M99.17,-204.56C119.36,-181.25 149.86,-150.23 182.86,-131.54 201.45,-121.02 335.33,-87.58 394.03,-73.21"/>
<polygon fill="black" stroke="black" points="96.73,-202.02 92.93,-211.91 102.07,-206.55 96.73,-202.02"/>
</g>
<!-- ImportDataset&#45;&gt;Project -->
<g id="edge10" class="edge">
<title>ImportDataset&#45;&gt;Project</title>
<path fill="none" stroke="black" stroke-dasharray="5,2" d="M94.02,-203.71C113.66,-173.74 146.19,-129.03 182.86,-98.54 193.02,-90.1 205.77,-82.96 216.95,-77.58"/>
<polygon fill="black" stroke="black" points="91.16,-201.69 88.69,-211.99 97.04,-205.48 91.16,-201.69"/>
</g>
<!-- ImportDataset&#45;&gt;Updater -->
<g id="edge11" class="edge">
<title>ImportDataset&#45;&gt;Updater</title>
<path fill="none" stroke="black" stroke-dasharray="5,2" d="M81.72,-202.49C93.83,-156.49 122.95,-74.87 182.86,-39.54 305.38,32.69 363.41,-11.63 502.86,-39.54 514.93,-41.96 527.55,-46.67 538.41,-51.49"/>
<polygon fill="black" stroke="black" points="78.4,-201.35 79.36,-211.9 85.19,-203.04 78.4,-201.35"/>
</g>
<!-- OriginRelationship&#45;&gt;RelatedOriginRelationship -->
<!-- Role&#45;&gt;Verifier -->
<!-- VerifierRole&#45;&gt;Verifier -->
<g id="edge8" class="edge">
<title>VerifierRole&#45;&gt;Verifier</title>
<path fill="none" stroke="black" stroke-dasharray="1,5" d="M286.31,-164.8C315.23,-169.24 353.79,-175.16 382.33,-179.54"/>
<polygon fill="black" stroke="black" points="381.59,-182.96 392.01,-181.02 382.65,-176.04 381.59,-182.96"/>
</g>
<!-- Creator&#45;&gt;Updater -->
<!-- Project&#45;&gt;Creator -->
<!-- ImportDataset -->
<g id="node1" class="node">
<title>ImportDataset</title>
<g id="a_node1"><a xlink:href="/develop/Data/models.html#import-dataset" xlink:title="ImportDataset" target="_top">
<polygon fill="#cdefab" stroke="#dedede" points="142.86,-228.09 142.86,-243 102.19,-253.54 44.67,-253.54 4,-243 4,-228.09 44.67,-217.54 102.19,-217.54 142.86,-228.09"/>
<polygon fill="none" stroke="#dedede" points="146.86,-224.99 146.86,-246.09 102.7,-257.54 44.16,-257.54 0,-246.09 0,-224.99 44.16,-213.54 102.7,-213.54 146.86,-224.99"/>
<text text-anchor="middle" x="73.43" y="-230.49" font-family="Times,serif" font-size="14.00">ImportDataset</text>
</a>
</g>
</g>
<!-- DatasetRecordField -->
<g id="node2" class="node">
<title>DatasetRecordField</title>
<g id="a_node2"><a xlink:href="/develop/Data/models.html#dataset-record-field" xlink:title="DatasetRecordField" target="_top">
<polygon fill="#eeefff" stroke="#dddeee" points="306.11,-484.54 182.86,-484.54 182.86,-448.54 306.11,-448.54 306.11,-484.54"/>
<text text-anchor="middle" x="244.49" y="-461.49" font-family="Times,serif" font-size="14.00">DatasetRecordField</text>
</a>
</g>
</g>
<!-- DatasetRecord -->
<g id="node3" class="node">
<title>DatasetRecord</title>
<g id="a_node3"><a xlink:href="/develop/Data/models.html#dataset-record" xlink:title="DatasetRecord" target="_top">
<polygon fill="#eeefff" stroke="#dddeee" points="292.24,-430.54 196.74,-430.54 196.74,-394.54 292.24,-394.54 292.24,-430.54"/>
<text text-anchor="middle" x="244.49" y="-407.49" font-family="Times,serif" font-size="14.00">DatasetRecord</text>
</a>
</g>
</g>
<!-- OriginRelationship -->
<g id="node4" class="node">
<title>OriginRelationship</title>
<g id="a_node4"><a xlink:href="/develop/Data/models.html#origin-relationship" xlink:title="OriginRelationship" target="_top">
<polygon fill="#eeefff" stroke="#dddeee" points="304.24,-376.54 184.74,-376.54 184.74,-340.54 304.24,-340.54 304.24,-376.54"/>
<text text-anchor="middle" x="244.49" y="-353.49" font-family="Times,serif" font-size="14.00">OriginRelationship</text>
</a>
</g>
</g>
<!-- PinboardItem -->
<g id="node5" class="node">
<title>PinboardItem</title>
<g id="a_node5"><a xlink:href="/develop/Data/models.html#pinboard-item" xlink:title="PinboardItem" target="_top">
<polygon fill="#eeefff" stroke="#dddeee" points="289.61,-322.54 199.36,-322.54 199.36,-286.54 289.61,-286.54 289.61,-322.54"/>
<text text-anchor="middle" x="244.49" y="-299.49" font-family="Times,serif" font-size="14.00">PinboardItem</text>
</a>
</g>
</g>
<!-- RelatedOriginRelationship -->
<g id="node6" class="node">
<title>RelatedOriginRelationship</title>
<g id="a_node6"><a xlink:href="/develop/Data/models.html#related-origin-relationship" xlink:title="RelatedOriginRelationship" target="_top">
<polygon fill="#eeefff" stroke="#dddeee" points="502.86,-376.54 342.11,-376.54 342.11,-340.54 502.86,-340.54 502.86,-376.54"/>
<text text-anchor="middle" x="422.49" y="-353.49" font-family="Times,serif" font-size="14.00">RelatedOriginRelationship</text>
</a>
</g>
</g>
<!-- Role -->
<g id="node7" class="node">
<title>Role</title>
<g id="a_node7"><a xlink:href="/develop/Data/models.html#role" xlink:title="Role" target="_top">
<polygon fill="#eeefff" stroke="#dddeee" points="271.49,-230.54 217.49,-230.54 217.49,-194.54 271.49,-194.54 271.49,-230.54"/>
<text text-anchor="middle" x="244.49" y="-207.49" font-family="Times,serif" font-size="14.00">Role</text>
</a>
</g>
</g>
<!-- VerifierRole -->
<g id="node8" class="node">
<title>VerifierRole</title>
<g id="a_node8"><a xlink:href="/develop/Data/models.html#verifier-role" xlink:title="VerifierRole" target="_top">
<polygon fill="#eeefff" stroke="#dddeee" points="285.86,-176.54 203.11,-176.54 203.11,-140.54 285.86,-140.54 285.86,-176.54"/>
<text text-anchor="middle" x="244.49" y="-153.49" font-family="Times,serif" font-size="14.00">VerifierRole</text>
</a>
</g>
</g>
<!-- Verifier -->
<g id="node9" class="node">
<title>Verifier</title>
<g id="a_node9"><a xlink:href="/develop/Data/models.html#verifier" xlink:title="Verifier" target="_top">
<polygon fill="#eeefff" stroke="#dddeee" points="451.11,-203.54 393.86,-203.54 393.86,-167.54 451.11,-167.54 451.11,-203.54"/>
<text text-anchor="middle" x="422.49" y="-180.49" font-family="Times,serif" font-size="14.00">Verifier</text>
</a>
</g>
</g>
<!-- Creator -->
<g id="node10" class="node">
<title>Creator</title>
<g id="a_node10"><a xlink:href="/develop/Data/models.html#creator" xlink:title="Creator" target="_top">
<polygon fill="#eeefff" stroke="#dddeee" points="450.74,-84.54 394.24,-84.54 394.24,-48.54 450.74,-48.54 450.74,-84.54"/>
<text text-anchor="middle" x="422.49" y="-61.49" font-family="Times,serif" font-size="14.00">Creator</text>
</a>
</g>
</g>
<!-- Project -->
<g id="node11" class="node">
<title>Project</title>
<g id="a_node11"><a xlink:href="/develop/Data/models.html#project" xlink:title="Project" target="_top">
<polygon fill="#eeefff" stroke="#dddeee" points="271.61,-84.54 217.36,-84.54 217.36,-48.54 271.61,-48.54 271.61,-84.54"/>
<text text-anchor="middle" x="244.49" y="-61.49" font-family="Times,serif" font-size="14.00">Project</text>
</a>
</g>
</g>
<!-- Updater -->
<g id="node12" class="node">
<title>Updater</title>
<g id="a_node12"><a xlink:href="/develop/Data/models.html#updater" xlink:title="Updater" target="_top">
<polygon fill="#eeefff" stroke="#dddeee" points="598.36,-84.54 538.86,-84.54 538.86,-48.54 598.36,-48.54 598.36,-84.54"/>
<text text-anchor="middle" x="568.61" y="-61.49" font-family="Times,serif" font-size="14.00">Updater</text>
</a>
</g>
</g>
</g>
</svg>
