<?xml version="1.0" encoding="UTF-8" standalone="no"?>
<!DOCTYPE svg PUBLIC "-//W3C//DTD SVG 1.1//EN"
 "http://www.w3.org/Graphics/SVG/1.1/DTD/svg11.dtd">
<!-- Generated by graphviz version 12.2.1 (20241206.2353)
 -->
<!-- Title: Label Pages: 1 -->
<svg width="637pt" height="336pt"
 viewBox="0.00 0.00 636.93 336.00" xmlns="http://www.w3.org/2000/svg" xmlns:xlink="http://www.w3.org/1999/xlink">
<g id="graph0" class="graph" transform="scale(1 1) rotate(0) translate(4 332)">
<title>Label</title>
<polygon fill="white" stroke="none" points="-4,4 -4,-332 632.93,-332 632.93,4 -4,4"/>
<!-- Depiction&#45;&gt;Image -->
<g id="edge2" class="edge">
<title>Depiction&#45;&gt;Image</title>
<path fill="none" stroke="black" stroke-dasharray="1,5" d="M94.91,-212.78C106.71,-212.98 119.23,-213.19 130.52,-213.37"/>
<polygon fill="black" stroke="black" points="130.18,-216.87 140.23,-213.54 130.29,-209.87 130.18,-216.87"/>
</g>
<!-- Tag&#45;&gt;Keyword -->
<g id="edge3" class="edge">
<title>Tag&#45;&gt;Keyword</title>
<path fill="none" stroke="black" stroke-dasharray="1,5" d="M74.54,-99.56C89.21,-99.32 107.84,-99.01 124.61,-98.73"/>
<polygon fill="black" stroke="black" points="124.39,-102.23 134.33,-98.56 124.27,-95.23 124.39,-102.23"/>
</g>
<!-- Label&#45;&gt;Depiction -->
<g id="edge1" class="edge">
<title>Label&#45;&gt;Depiction</title>
<path fill="none" stroke="black" d="M138.09,-170C123.08,-177.02 104.69,-185.62 88.47,-193.2"/>
<polygon fill="black" stroke="black" points="87.12,-189.97 79.55,-197.37 90.09,-196.31 87.12,-189.97"/>
</g>
<!-- Label&#45;&gt;Tag -->
<g id="edge7" class="edge">
<title>Label&#45;&gt;Tag</title>
<path fill="none" stroke="black" d="M137.95,-141.93C120.34,-133.7 98.12,-123.31 80.2,-114.93"/>
<polygon fill="black" stroke="black" points="81.86,-111.85 71.32,-110.78 78.9,-118.19 81.86,-111.85"/>
</g>
<!-- Label&#45;&gt;Note -->
<g id="edge4" class="edge">
<title>Label&#45;&gt;Note</title>
<path fill="none" stroke="black" d="M130.16,-156C116.67,-156 101.45,-156 87.82,-156"/>
<polygon fill="black" stroke="black" points="87.86,-152.5 77.86,-156 87.86,-159.5 87.86,-152.5"/>
</g>
<!-- Label&#45;&gt;PinboardItem -->
<g id="edge5" class="edge">
<title>Label&#45;&gt;PinboardItem</title>
<path fill="none" stroke="black" d="M194.47,-173.01C199.28,-177.17 203.94,-181.91 207.58,-187 234.04,-224.1 209.97,-252.23 243.58,-283 255.13,-293.57 270.46,-300.06 285.53,-304.01"/>
<polygon fill="black" stroke="black" points="284.4,-307.35 294.93,-306.14 285.95,-300.52 284.4,-307.35"/>
</g>
<!-- Label&#45;&gt;Role -->
<g id="edge6" class="edge">
<title>Label&#45;&gt;Role</title>
<path fill="none" stroke="black" d="M192.82,-173.75C197.82,-177.94 202.99,-182.5 207.58,-187 225.12,-204.23 222.83,-215.81 243.58,-229 261.46,-240.37 284.16,-247.03 303.13,-250.88"/>
<polygon fill="black" stroke="black" points="302.43,-254.31 312.9,-252.66 303.69,-247.43 302.43,-254.31"/>
</g>
<!-- Label&#45;&gt;VerifierRole -->
<g id="edge8" class="edge">
<title>Label&#45;&gt;VerifierRole</title>
<path fill="none" stroke="black" d="M207.96,-166.21C231.87,-172.65 263.06,-181.05 289.22,-188.09"/>
<polygon fill="black" stroke="black" points="288.06,-191.4 298.63,-190.62 289.88,-184.64 288.06,-191.4"/>
</g>
<!-- Label&#45;&gt;Creator -->
<g id="edge10" class="edge">
<title>Label&#45;&gt;Creator</title>
<path fill="none" stroke="black" stroke-dasharray="5,2" d="M219.22,-157.37C273.93,-157.79 364.58,-155.16 440.18,-137 452.43,-134.06 465.33,-128.99 476.29,-124.03"/>
<polygon fill="black" stroke="black" points="219.33,-153.87 209.29,-157.25 219.25,-160.87 219.33,-153.87"/>
</g>
<!-- Label&#45;&gt;Project -->
<g id="edge12" class="edge">
<title>Label&#45;&gt;Project</title>
<path fill="none" stroke="black" stroke-dasharray="5,2" d="M219.01,-142.82C250.08,-134.45 289.08,-123.95 314.47,-117.11"/>
<polygon fill="black" stroke="black" points="218.17,-139.42 209.42,-145.4 219.99,-146.18 218.17,-139.42"/>
</g>
<!-- Label&#45;&gt;Updater -->
<g id="edge13" class="edge">
<title>Label&#45;&gt;Updater</title>
<path fill="none" stroke="black" stroke-dasharray="5,2" d="M201.29,-130.9C203.45,-128.95 205.57,-126.97 207.58,-125 225.12,-107.77 221.24,-93.27 243.58,-83 360.61,-29.17 407.11,-57.72 533.43,-83 545.49,-85.41 558.11,-90.13 568.98,-94.95"/>
<polygon fill="black" stroke="black" points="199.22,-128.06 193.96,-137.26 203.81,-133.35 199.22,-128.06"/>
</g>
<!-- Label&#45;&gt;Objects with Labels -->
<g id="edge11" class="edge">
<title>Label&#45;&gt;Objects with Labels</title>
<path fill="none" stroke="black" stroke-dasharray="5,2" d="M202.49,-130.86C204.3,-128.96 206.01,-127 207.58,-125 230.36,-95.88 215.79,-74.39 243.58,-50 253.2,-41.55 265.1,-35.33 277.25,-30.74"/>
<polygon fill="black" stroke="black" points="200.11,-128.29 195.24,-137.7 204.91,-133.38 200.11,-128.29"/>
</g>
<!-- Role&#45;&gt;Verifier -->
<!-- VerifierRole&#45;&gt;Verifier -->
<g id="edge9" class="edge">
<title>VerifierRole&#45;&gt;Verifier</title>
<path fill="none" stroke="black" stroke-dasharray="1,5" d="M383.49,-208.81C408.4,-212.99 440.14,-218.32 464.77,-222.45"/>
<polygon fill="black" stroke="black" points="463.94,-225.86 474.38,-224.06 465.1,-218.96 463.94,-225.86"/>
</g>
<!-- Creator&#45;&gt;Updater -->
<!-- Project&#45;&gt;Creator -->
<!-- Depiction -->
<g id="node1" class="node">
<title>Depiction</title>
<g id="a_node1"><a xlink:href="/develop/Data/models.html#depiction" xlink:title="Depiction" target="_top">
<ellipse fill="#abcdef" stroke="#dddeee" cx="47.26" cy="-212" rx="47.26" ry="18"/>
<text text-anchor="middle" x="47.26" y="-206.95" font-family="Times,serif" font-size="14.00">Depiction</text>
</a>
</g>
</g>
<!-- Tag -->
<g id="node2" class="node">
<title>Tag</title>
<g id="a_node2"><a xlink:href="/develop/Data/models.html#tag" xlink:title="Tag" target="_top">
<ellipse fill="#abcdef" stroke="#dddeee" cx="47.26" cy="-100" rx="27" ry="18"/>
<text text-anchor="middle" x="47.26" y="-94.95" font-family="Times,serif" font-size="14.00">Tag</text>
</a>
</g>
</g>
<!-- Note -->
<g id="node3" class="node">
<title>Note</title>
<g id="a_node3"><a xlink:href="/develop/Data/models.html#note" xlink:title="Note" target="_top">
<ellipse fill="#abcdef" stroke="#dddeee" cx="47.26" cy="-156" rx="28.83" ry="18"/>
<text text-anchor="middle" x="47.26" y="-150.95" font-family="Times,serif" font-size="14.00">Note</text>
</a>
</g>
</g>
<!-- Label -->
<g id="node4" class="node">
<title>Label</title>
<g id="a_node4"><a xlink:href="/develop/Data/models.html#label" xlink:title="Label" target="_top">
<polygon fill="#cdefab" stroke="#dedede" points="203.58,-148.54 203.58,-163.46 183.35,-174 154.74,-174 134.51,-163.46 134.51,-148.54 154.74,-138 183.35,-138 203.58,-148.54"/>
<polygon fill="none" stroke="#dedede" points="207.58,-146.12 207.58,-165.88 184.33,-178 153.76,-178 130.51,-165.88 130.51,-146.12 153.76,-134 184.33,-134 207.58,-146.12"/>
<text text-anchor="middle" x="169.05" y="-150.95" font-family="Times,serif" font-size="14.00">Label</text>
</a>
</g>
</g>
<!-- Image -->
<g id="node5" class="node">
<title>Image</title>
<g id="a_node5"><a xlink:href="/develop/Data/models.html#image" xlink:title="Image" target="_top">
<polygon fill="#eeefff" stroke="#dddeee" points="196.05,-232 142.05,-232 142.05,-196 196.05,-196 196.05,-232"/>
<text text-anchor="middle" x="169.05" y="-208.95" font-family="Times,serif" font-size="14.00">Image</text>
</a>
</g>
</g>
<!-- Keyword -->
<g id="node6" class="node">
<title>Keyword</title>
<g id="a_node6"><a xlink:href="/develop/Data/models.html#keyword" xlink:title="Keyword" target="_top">
<polygon fill="#eeefff" stroke="#dddeee" points="202.17,-116 135.92,-116 135.92,-80 202.17,-80 202.17,-116"/>
<text text-anchor="middle" x="169.05" y="-92.95" font-family="Times,serif" font-size="14.00">Keyword</text>
</a>
</g>
</g>
<!-- PinboardItem -->
<g id="node7" class="node">
<title>PinboardItem</title>
<g id="a_node7"><a xlink:href="/develop/Data/models.html#pinboard-item" xlink:title="PinboardItem" target="_top">
<polygon fill="#eeefff" stroke="#dddeee" points="387,-328 296.75,-328 296.75,-292 387,-292 387,-328"/>
<text text-anchor="middle" x="341.88" y="-304.95" font-family="Times,serif" font-size="14.00">PinboardItem</text>
</a>
</g>
</g>
<!-- Role -->
<g id="node8" class="node">
<title>Role</title>
<g id="a_node8"><a xlink:href="/develop/Data/models.html#role" xlink:title="Role" target="_top">
<polygon fill="#eeefff" stroke="#dddeee" points="368.88,-274 314.88,-274 314.88,-238 368.88,-238 368.88,-274"/>
<text text-anchor="middle" x="341.88" y="-250.95" font-family="Times,serif" font-size="14.00">Role</text>
</a>
</g>
</g>
<!-- VerifierRole -->
<g id="node9" class="node">
<title>VerifierRole</title>
<g id="a_node9"><a xlink:href="/develop/Data/models.html#verifier-role" xlink:title="VerifierRole" target="_top">
<polygon fill="#eeefff" stroke="#dddeee" points="383.25,-220 300.5,-220 300.5,-184 383.25,-184 383.25,-220"/>
<text text-anchor="middle" x="341.88" y="-196.95" font-family="Times,serif" font-size="14.00">VerifierRole</text>
</a>
</g>
</g>
<!-- Verifier -->
<g id="node10" class="node">
<title>Verifier</title>
<g id="a_node10"><a xlink:href="/develop/Data/models.html#verifier" xlink:title="Verifier" target="_top">
<polygon fill="#eeefff" stroke="#dddeee" points="533.43,-247 476.18,-247 476.18,-211 533.43,-211 533.43,-247"/>
<text text-anchor="middle" x="504.8" y="-223.95" font-family="Times,serif" font-size="14.00">Verifier</text>
</a>
</g>
</g>
<!-- Creator -->
<g id="node11" class="node">
<title>Creator</title>
<g id="a_node11"><a xlink:href="/develop/Data/models.html#creator" xlink:title="Creator" target="_top">
<polygon fill="#eeefff" stroke="#dddeee" points="533.05,-128 476.55,-128 476.55,-92 533.05,-92 533.05,-128"/>
<text text-anchor="middle" x="504.8" y="-104.95" font-family="Times,serif" font-size="14.00">Creator</text>
</a>
</g>
</g>
<!-- Project -->
<g id="node12" class="node">
<title>Project</title>
<g id="a_node12"><a xlink:href="/develop/Data/models.html#project" xlink:title="Project" target="_top">
<polygon fill="#eeefff" stroke="#dddeee" points="369,-128 314.75,-128 314.75,-92 369,-92 369,-128"/>
<text text-anchor="middle" x="341.88" y="-104.95" font-family="Times,serif" font-size="14.00">Project</text>
</a>
</g>
</g>
<!-- Updater -->
<g id="node13" class="node">
<title>Updater</title>
<g id="a_node13"><a xlink:href="/develop/Data/models.html#updater" xlink:title="Updater" target="_top">
<polygon fill="#eeefff" stroke="#dddeee" points="628.93,-128 569.43,-128 569.43,-92 628.93,-92 628.93,-128"/>
<text text-anchor="middle" x="599.18" y="-104.95" font-family="Times,serif" font-size="14.00">Updater</text>
</a>
</g>
</g>
<!-- Objects with Labels -->
<g id="node14" class="node">
<title>Objects with Labels</title>
<g id="a_node14"><a xlink:href="/develop/Data/models.html#objects with label" xlink:title="Objects with Labels" target="_top">
<polygon fill="#cdabef" stroke="#dedede" points="440.18,-18 391.03,-36 292.73,-36 243.58,-18 292.73,0 391.03,0 440.18,-18"/>
<text text-anchor="middle" x="341.88" y="-12.95" font-family="Times,serif" font-size="14.00">Objects with Labels</text>
</a>
</g>
</g>
</g>
</svg>
