<?xml version="1.0" encoding="UTF-8" standalone="no"?>
<!DOCTYPE svg PUBLIC "-//W3C//DTD SVG 1.1//EN"
 "http://www.w3.org/Graphics/SVG/1.1/DTD/svg11.dtd">
<!-- Generated by graphviz version 12.2.1 (20241206.2353)
 -->
<!-- Title: Language Pages: 1 -->
<svg width="408pt" height="451pt"
 viewBox="0.00 0.00 408.30 450.96" xmlns="http://www.w3.org/2000/svg" xmlns:xlink="http://www.w3.org/1999/xlink">
<g id="graph0" class="graph" transform="scale(1 1) rotate(0) translate(4 446.96)">
<title>Language</title>
<polygon fill="white" stroke="none" points="-4,4 -4,-446.96 404.3,-446.96 404.3,4 -4,4"/>
<!-- Language&#45;&gt;Source -->
<g id="edge6" class="edge">
<title>Language&#45;&gt;Source</title>
<path fill="none" stroke="black" d="M60.89,-229.75C70.34,-268.91 95.18,-350.28 146.3,-396.46 157.71,-406.77 173.17,-413.34 187.34,-417.51"/>
<polygon fill="black" stroke="black" points="186.3,-420.86 196.85,-419.98 188.05,-414.08 186.3,-420.86"/>
</g>
<!-- Language&#45;&gt;AlternateValueTranslation -->
<g id="edge1" class="edge">
<title>Language&#45;&gt;AlternateValueTranslation</title>
<path fill="none" stroke="black" d="M65.55,-229.9C79.15,-259.72 107.03,-312.16 146.3,-342.46 147.62,-343.48 148.97,-344.46 150.36,-345.4"/>
<polygon fill="black" stroke="black" points="148.29,-348.24 158.67,-350.35 151.87,-342.23 148.29,-348.24"/>
</g>
<!-- Language&#45;&gt;CommonName -->
<g id="edge2" class="edge">
<title>Language&#45;&gt;CommonName</title>
<path fill="none" stroke="black" d="M76.07,-229.75C93.18,-247.73 119.29,-272.56 146.3,-288.46 151.93,-291.78 158.04,-294.77 164.26,-297.45"/>
<polygon fill="black" stroke="black" points="162.8,-300.63 173.39,-301.09 165.4,-294.13 162.8,-300.63"/>
</g>
<!-- Language&#45;&gt;PinboardItem -->
<g id="edge3" class="edge">
<title>Language&#45;&gt;PinboardItem</title>
<path fill="none" stroke="black" d="M100.4,-221.65C121.5,-228.42 146.96,-236.58 169.32,-243.75"/>
<polygon fill="black" stroke="black" points="167.98,-247 178.58,-246.72 170.12,-240.34 167.98,-247"/>
</g>
<!-- Language&#45;&gt;Role -->
<g id="edge4" class="edge">
<title>Language&#45;&gt;Role</title>
<path fill="none" stroke="black" d="M110.36,-207.46C135.3,-207.46 164.28,-207.46 186.8,-207.46"/>
<polygon fill="black" stroke="black" points="186.75,-210.96 196.75,-207.46 186.75,-203.96 186.75,-210.96"/>
</g>
<!-- Language&#45;&gt;Serial -->
<g id="edge5" class="edge">
<title>Language&#45;&gt;Serial</title>
<path fill="none" stroke="black" d="M100.4,-193.28C127.56,-184.57 161.95,-173.54 187.64,-165.3"/>
<polygon fill="black" stroke="black" points="188.53,-168.69 196.98,-162.3 186.39,-162.03 188.53,-168.69"/>
</g>
<!-- Language&#45;&gt;VerifierRole -->
<g id="edge7" class="edge">
<title>Language&#45;&gt;VerifierRole</title>
<path fill="none" stroke="black" d="M76.07,-185.18C93.18,-167.2 119.29,-142.37 146.3,-126.46 154.58,-121.59 163.87,-117.42 173.08,-113.92"/>
<polygon fill="black" stroke="black" points="174.11,-117.27 182.36,-110.62 171.77,-110.67 174.11,-117.27"/>
</g>
<!-- Language&#45;&gt;Creator -->
<g id="edge9" class="edge">
<title>Language&#45;&gt;Creator</title>
<path fill="none" stroke="black" stroke-dasharray="5,2" d="M70.33,-174.89C85.15,-144.39 111.17,-99.57 146.3,-72.46 161.09,-61.05 181.04,-54.27 197.09,-50.35"/>
<polygon fill="black" stroke="black" points="67.29,-173.12 66.2,-183.66 73.63,-176.11 67.29,-173.12"/>
</g>
<!-- Language&#45;&gt;Updater -->
<g id="edge10" class="edge">
<title>Language&#45;&gt;Updater</title>
<path fill="none" stroke="black" stroke-dasharray="5,2" d="M61.1,-174.17C69.69,-129.75 91.97,-52.74 146.3,-18.46 206.89,19.76 295.32,-10.68 340.55,-31"/>
<polygon fill="black" stroke="black" points="57.7,-173.29 59.38,-183.75 64.59,-174.53 57.7,-173.29"/>
</g>
<!-- Role&#45;&gt;Verifier -->
<!-- VerifierRole&#45;&gt;Verifier -->
<g id="edge8" class="edge">
<title>VerifierRole&#45;&gt;Verifier</title>
<path fill="none" stroke="black" stroke-dasharray="1,5" d="M267.34,-113C279.45,-117.16 292.71,-121.86 304.8,-126.46 313.37,-129.72 322.49,-133.4 331.1,-136.96"/>
<polygon fill="black" stroke="black" points="329.69,-140.17 340.26,-140.8 332.39,-133.71 329.69,-140.17"/>
</g>
<!-- Creator&#45;&gt;Updater -->
<!-- Source -->
<g id="node1" class="node">
<title>Source</title>
<g id="a_node1"><a xlink:href="/develop/Data/models.html#source" xlink:title="Source" target="_top">
<path fill="#fedcba" stroke="#dddeee" d="M210.55,-406.46C210.55,-406.46 240.55,-406.46 240.55,-406.46 246.55,-406.46 252.55,-412.46 252.55,-418.46 252.55,-418.46 252.55,-430.46 252.55,-430.46 252.55,-436.46 246.55,-442.46 240.55,-442.46 240.55,-442.46 210.55,-442.46 210.55,-442.46 204.55,-442.46 198.55,-436.46 198.55,-430.46 198.55,-430.46 198.55,-418.46 198.55,-418.46 198.55,-412.46 204.55,-406.46 210.55,-406.46"/>
<text text-anchor="middle" x="225.55" y="-419.66" font-family="Times,serif" font-size="14.00">Source</text>
</a>
</g>
</g>
<!-- Language -->
<g id="node2" class="node">
<title>Language</title>
<g id="a_node2"><a xlink:href="/develop/Data/models.html#language" xlink:title="Language" target="_top">
<polygon fill="#cdefab" stroke="#dedede" points="106.3,-200.01 106.3,-214.92 76.34,-225.46 33.96,-225.46 4,-214.92 4,-200.01 33.96,-189.46 76.34,-189.46 106.3,-200.01"/>
<polygon fill="none" stroke="#dedede" points="110.3,-197.18 110.3,-217.75 77.02,-229.46 33.28,-229.46 0,-217.75 0,-197.18 33.28,-185.46 77.02,-185.46 110.3,-197.18"/>
<text text-anchor="middle" x="55.15" y="-202.41" font-family="Times,serif" font-size="14.00">Language</text>
</a>
</g>
</g>
<!-- AlternateValueTranslation -->
<g id="node3" class="node">
<title>AlternateValueTranslation</title>
<g id="a_node3"><a xlink:href="/develop/Data/models.html#alternate-value-translation" xlink:title="AlternateValueTranslation" target="_top">
<polygon fill="#eeefff" stroke="#dddeee" points="304.8,-387.46 146.3,-387.46 146.3,-351.46 304.8,-351.46 304.8,-387.46"/>
<text text-anchor="middle" x="225.55" y="-364.41" font-family="Times,serif" font-size="14.00">AlternateValueTranslation</text>
</a>
</g>
</g>
<!-- CommonName -->
<g id="node4" class="node">
<title>CommonName</title>
<g id="a_node4"><a xlink:href="/develop/Data/models.html#common-name" xlink:title="CommonName" target="_top">
<polygon fill="#eeefff" stroke="#dddeee" points="275.93,-333.46 175.18,-333.46 175.18,-297.46 275.93,-297.46 275.93,-333.46"/>
<text text-anchor="middle" x="225.55" y="-310.41" font-family="Times,serif" font-size="14.00">CommonName</text>
</a>
</g>
</g>
<!-- PinboardItem -->
<g id="node5" class="node">
<title>PinboardItem</title>
<g id="a_node5"><a xlink:href="/develop/Data/models.html#pinboard-item" xlink:title="PinboardItem" target="_top">
<polygon fill="#eeefff" stroke="#dddeee" points="270.68,-279.46 180.43,-279.46 180.43,-243.46 270.68,-243.46 270.68,-279.46"/>
<text text-anchor="middle" x="225.55" y="-256.41" font-family="Times,serif" font-size="14.00">PinboardItem</text>
</a>
</g>
</g>
<!-- Role -->
<g id="node6" class="node">
<title>Role</title>
<g id="a_node6"><a xlink:href="/develop/Data/models.html#role" xlink:title="Role" target="_top">
<polygon fill="#eeefff" stroke="#dddeee" points="252.55,-225.46 198.55,-225.46 198.55,-189.46 252.55,-189.46 252.55,-225.46"/>
<text text-anchor="middle" x="225.55" y="-202.41" font-family="Times,serif" font-size="14.00">Role</text>
</a>
</g>
</g>
<!-- Serial -->
<g id="node7" class="node">
<title>Serial</title>
<g id="a_node7"><a xlink:href="/develop/Data/models.html#serial" xlink:title="Serial" target="_top">
<polygon fill="#eeefff" stroke="#dddeee" points="252.55,-171.46 198.55,-171.46 198.55,-135.46 252.55,-135.46 252.55,-171.46"/>
<text text-anchor="middle" x="225.55" y="-148.41" font-family="Times,serif" font-size="14.00">Serial</text>
</a>
</g>
</g>
<!-- VerifierRole -->
<g id="node8" class="node">
<title>VerifierRole</title>
<g id="a_node8"><a xlink:href="/develop/Data/models.html#verifier-role" xlink:title="VerifierRole" target="_top">
<polygon fill="#eeefff" stroke="#dddeee" points="266.93,-117.46 184.18,-117.46 184.18,-81.46 266.93,-81.46 266.93,-117.46"/>
<text text-anchor="middle" x="225.55" y="-94.41" font-family="Times,serif" font-size="14.00">VerifierRole</text>
</a>
</g>
</g>
<!-- Verifier -->
<g id="node9" class="node">
<title>Verifier</title>
<g id="a_node9"><a xlink:href="/develop/Data/models.html#verifier" xlink:title="Verifier" target="_top">
<polygon fill="#eeefff" stroke="#dddeee" points="399.18,-171.46 341.93,-171.46 341.93,-135.46 399.18,-135.46 399.18,-171.46"/>
<text text-anchor="middle" x="370.55" y="-148.41" font-family="Times,serif" font-size="14.00">Verifier</text>
</a>
</g>
</g>
<!-- Creator -->
<g id="node10" class="node">
<title>Creator</title>
<g id="a_node10"><a xlink:href="/develop/Data/models.html#creator" xlink:title="Creator" target="_top">
<polygon fill="#eeefff" stroke="#dddeee" points="253.8,-63.46 197.3,-63.46 197.3,-27.46 253.8,-27.46 253.8,-63.46"/>
<text text-anchor="middle" x="225.55" y="-40.41" font-family="Times,serif" font-size="14.00">Creator</text>
</a>
</g>
</g>
<!-- Updater -->
<g id="node11" class="node">
<title>Updater</title>
<g id="a_node11"><a xlink:href="/develop/Data/models.html#updater" xlink:title="Updater" target="_top">
<polygon fill="#eeefff" stroke="#dddeee" points="400.3,-63.46 340.8,-63.46 340.8,-27.46 400.3,-27.46 400.3,-63.46"/>
<text text-anchor="middle" x="370.55" y="-40.41" font-family="Times,serif" font-size="14.00">Updater</text>
</a>
</g>
</g>
</g>
</svg>
