<?xml version="1.0" encoding="UTF-8" standalone="no"?>
<!DOCTYPE svg PUBLIC "-//W3C//DTD SVG 1.1//EN"
 "http://www.w3.org/Graphics/SVG/1.1/DTD/svg11.dtd">
<!-- Generated by graphviz version 12.2.1 (20241206.2353)
 -->
<!-- Title: Lead Pages: 1 -->
<svg width="719pt" height="899pt"
 viewBox="0.00 0.00 719.48 899.25" xmlns="http://www.w3.org/2000/svg" xmlns:xlink="http://www.w3.org/1999/xlink">
<g id="graph0" class="graph" transform="scale(1 1) rotate(0) translate(4 895.25)">
<title>Lead</title>
<polygon fill="white" stroke="none" points="-4,4 -4,-895.25 715.48,-895.25 715.48,4 -4,4"/>
<!-- Citation&#45;&gt;Source -->
<g id="edge14" class="edge">
<title>Citation&#45;&gt;Source</title>
<path fill="none" stroke="black" stroke-dasharray="1,5" d="M92.89,-818.25C146.78,-818.25 241.96,-818.25 294.59,-818.25"/>
<polygon fill="black" stroke="black" points="294.56,-821.75 304.56,-818.25 294.56,-814.75 294.56,-821.75"/>
</g>
<!-- Citation&#45;&gt;CitationTopic -->
<g id="edge3" class="edge">
<title>Citation&#45;&gt;CitationTopic</title>
<path fill="none" stroke="black" stroke-dasharray="1,5" d="M82.34,-830.6C96.31,-836.44 113.44,-843.62 129.65,-850.4"/>
<polygon fill="black" stroke="black" points="128.15,-853.57 138.72,-854.2 130.85,-847.11 128.15,-853.57"/>
</g>
<!-- Depiction&#45;&gt;Image -->
<g id="edge7" class="edge">
<title>Depiction&#45;&gt;Image</title>
<path fill="none" stroke="black" stroke-dasharray="1,5" d="M99.55,-384.54C115.03,-384.31 132.04,-384.05 146.74,-383.82"/>
<polygon fill="black" stroke="black" points="146.49,-387.33 156.44,-383.68 146.39,-380.33 146.49,-387.33"/>
</g>
<!-- Tag&#45;&gt;Keyword -->
<g id="edge8" class="edge">
<title>Tag&#45;&gt;Keyword</title>
<path fill="none" stroke="black" stroke-dasharray="1,5" d="M79.13,-330.85C96.74,-330.59 120.34,-330.23 140.72,-329.92"/>
<polygon fill="black" stroke="black" points="140.5,-333.42 150.45,-329.77 140.39,-326.42 140.5,-333.42"/>
</g>
<!-- Source&#45;&gt;SubsequentCitation -->
<!-- Source&#45;&gt;OriginCitation -->
<!-- Lead&#45;&gt;Citation -->
<g id="edge4" class="edge">
<title>Lead&#45;&gt;Citation</title>
<path fill="none" stroke="black" d="M176.51,-463.4C153.96,-528.13 88.15,-717 62.89,-789.47"/>
<polygon fill="black" stroke="black" points="59.68,-788.05 59.7,-798.64 66.29,-790.35 59.68,-788.05"/>
</g>
<!-- Lead&#45;&gt;Depiction -->
<g id="edge5" class="edge">
<title>Lead&#45;&gt;Depiction</title>
<path fill="none" stroke="black" d="M154.37,-428.53C136.73,-421.01 114.12,-411.37 94.72,-403.1"/>
<polygon fill="black" stroke="black" points="96.29,-399.96 85.72,-399.26 93.55,-406.4 96.29,-399.96"/>
</g>
<!-- Lead&#45;&gt;Tag -->
<g id="edge17" class="edge">
<title>Lead&#45;&gt;Tag</title>
<path fill="none" stroke="black" d="M158.98,-425.98C152.34,-421.37 145.44,-415.99 139.73,-410.25 119.88,-390.35 124.74,-376.93 103.73,-358.25 98.33,-353.46 91.94,-349.22 85.53,-345.61"/>
<polygon fill="black" stroke="black" points="87.43,-342.65 76.95,-341.15 84.21,-348.87 87.43,-342.65"/>
</g>
<!-- Lead&#45;&gt;Attribution -->
<g id="edge27" class="edge">
<title>Lead&#45;&gt;Attribution</title>
<path fill="none" stroke="black" d="M138.81,-441.25C130.95,-441.25 122.65,-441.25 114.44,-441.25"/>
<polygon fill="none" stroke="black" points="148.73,-437.25 148.73,-445.25 140.73,-445.25 140.73,-437.25 148.73,-437.25"/>
<polyline fill="none" stroke="black" points="140.73,-441.25 138.73,-441.25"/>
<polygon fill="none" stroke="black" points="104.53,-445.25 104.53,-437.25 112.53,-437.25 112.53,-445.25 104.53,-445.25"/>
<polyline fill="none" stroke="black" points="112.53,-441.25 114.53,-441.25"/>
</g>
<!-- Lead&#45;&gt;Source -->
<g id="edge29" class="edge">
<title>Lead&#45;&gt;Source</title>
<path fill="none" stroke="black" stroke-dasharray="1,5" d="M190.27,-473.68C200.31,-549.66 228.31,-736.47 266.73,-785.25 274.28,-794.85 285.37,-801.89 296.28,-806.94"/>
<polygon fill="none" stroke="black" points="185.08,-464.73 193.01,-463.7 194.04,-471.63 186.11,-472.67 185.08,-464.73"/>
<polyline fill="none" stroke="black" points="190.08,-472.15 190.33,-474.13"/>
<polygon fill="none" stroke="black" points="306.81,-806.99 303.73,-814.38 296.35,-811.3 299.43,-803.91 306.81,-806.99"/>
<polyline fill="none" stroke="black" points="297.89,-807.61 296.04,-806.84"/>
</g>
<!-- Lead&#45;&gt;Otu -->
<g id="edge22" class="edge">
<title>Lead&#45;&gt;Otu</title>
<path fill="none" stroke="black" stroke-dasharray="5,2" d="M203.6,-473.33C217.89,-497.21 240.09,-529.18 266.73,-550.25 278.27,-559.39 293.23,-566.08 305.94,-570.63"/>
<polygon fill="black" stroke="black" points="206.79,-471.84 198.73,-464.96 200.73,-475.36 206.79,-471.84"/>
</g>
<!-- Lead&#45;&gt;TaxonName -->
<g id="edge30" class="edge">
<title>Lead&#45;&gt;TaxonName</title>
<path fill="none" stroke="black" stroke-dasharray="1,5" d="M217.29,-464.08C231.9,-474.28 249.79,-486.06 266.73,-495.25 271.55,-497.87 276.67,-500.42 281.84,-502.85"/>
<polygon fill="none" stroke="black" points="207.2,-461.83 211.82,-455.3 218.35,-459.93 213.73,-466.46 207.2,-461.83"/>
<polyline fill="none" stroke="black" points="216.04,-463.19 217.67,-464.35"/>
<polygon fill="none" stroke="black" points="292.34,-503.24 289.02,-510.52 281.74,-507.21 285.05,-499.92 292.34,-503.24"/>
<polyline fill="none" stroke="black" points="283.4,-503.57 281.58,-502.74"/>
</g>
<!-- Lead&#45;&gt;AncestorHierarchy -->
<g id="edge1" class="edge">
<title>Lead&#45;&gt;AncestorHierarchy</title>
<path fill="none" stroke="black" d="M221.2,-447.72C233.7,-450.03 248.27,-452.73 262.66,-455.39"/>
<polygon fill="black" stroke="black" points="261.64,-458.76 272.11,-457.14 262.91,-451.88 261.64,-458.76"/>
</g>
<!-- Lead&#45;&gt;Child -->
<g id="edge2" class="edge">
<title>Lead&#45;&gt;Child</title>
<path fill="none" stroke="black" d="M221.2,-434.79C243.32,-430.7 271.92,-425.41 294.54,-421.22"/>
<polygon fill="black" stroke="black" points="295.08,-424.68 304.28,-419.42 293.81,-417.8 295.08,-424.68"/>
</g>
<!-- Lead&#45;&gt;DescendantHierarchy -->
<g id="edge6" class="edge">
<title>Lead&#45;&gt;DescendantHierarchy</title>
<path fill="none" stroke="black" d="M209.7,-424.74C229.18,-411.19 255.45,-393.28 266.73,-387.25 269.11,-385.98 271.56,-384.73 274.05,-383.5"/>
<polygon fill="black" stroke="black" points="275.54,-386.67 283.11,-379.26 272.57,-380.33 275.54,-386.67"/>
</g>
<!-- Lead&#45;&gt;PinboardItem -->
<g id="edge9" class="edge">
<title>Lead&#45;&gt;PinboardItem</title>
<path fill="none" stroke="black" d="M212.6,-426.27C219.09,-421.72 225.63,-416.3 230.73,-410.25 255.06,-381.36 239.4,-359.34 266.73,-333.25 270.13,-330.01 273.98,-327.12 278.06,-324.57"/>
<polygon fill="black" stroke="black" points="279.48,-327.79 286.59,-319.93 276.14,-321.64 279.48,-327.79"/>
</g>
<!-- Lead&#45;&gt;Redirecter -->
<g id="edge10" class="edge">
<title>Lead&#45;&gt;Redirecter</title>
<path fill="none" stroke="black" d="M213.32,-426.82C219.8,-422.27 226.16,-416.71 230.73,-410.25 265.58,-360.95 226.73,-324.49 266.73,-279.25 272.04,-273.24 278.9,-268.54 286.18,-264.87"/>
<polygon fill="black" stroke="black" points="287.45,-268.14 295.23,-260.95 284.66,-261.71 287.45,-268.14"/>
</g>
<!-- Lead&#45;&gt;Role -->
<g id="edge11" class="edge">
<title>Lead&#45;&gt;Role</title>
<path fill="none" stroke="black" d="M213.65,-427.05C220.14,-422.5 226.41,-416.88 230.73,-410.25 276.44,-340.06 213.67,-290.07 266.73,-225.25 273.95,-216.42 284.55,-210.45 295.11,-206.42"/>
<polygon fill="black" stroke="black" points="296.11,-209.77 304.54,-203.35 293.94,-203.12 296.11,-209.77"/>
</g>
<!-- Lead&#45;&gt;SubsequentCitation -->
<g id="edge15" class="edge">
<title>Lead&#45;&gt;SubsequentCitation</title>
<path fill="none" stroke="black" d="M191.06,-463.7C199.85,-499.09 221.86,-567.69 266.73,-605.25 268.33,-606.59 358.66,-632.29 425.62,-651.22"/>
<polygon fill="black" stroke="black" points="424.54,-654.55 435.11,-653.9 426.44,-647.81 424.54,-654.55"/>
</g>
<!-- Lead&#45;&gt;VerifierRole -->
<g id="edge19" class="edge">
<title>Lead&#45;&gt;VerifierRole</title>
<path fill="none" stroke="black" d="M213.84,-427.17C220.33,-422.62 226.55,-416.97 230.73,-410.25 287.41,-319.01 200.47,-255.81 266.73,-171.25 270.76,-166.11 275.94,-161.93 281.63,-158.55"/>
<polygon fill="black" stroke="black" points="282.82,-161.86 290.19,-154.25 279.68,-155.61 282.82,-161.86"/>
</g>
<!-- Lead&#45;&gt;Creator -->
<g id="edge21" class="edge">
<title>Lead&#45;&gt;Creator</title>
<path fill="none" stroke="black" stroke-dasharray="5,2" d="M222.81,-420.18C225.88,-417.19 228.61,-413.88 230.73,-410.25 274,-336.02 203.2,-83.12 266.73,-25.25 322.9,25.91 421.49,-13.19 469.25,-37.16"/>
<polygon fill="black" stroke="black" points="220.78,-417.32 215.27,-426.37 225.22,-422.73 220.78,-417.32"/>
</g>
<!-- Lead&#45;&gt;Parent -->
<g id="edge23" class="edge">
<title>Lead&#45;&gt;Parent</title>
<path fill="none" stroke="black" stroke-dasharray="5,2" d="M187.88,-474.87C192.27,-528.65 208.29,-634.47 266.73,-698.25 276.95,-709.41 292.47,-716.08 305.83,-720"/>
<polygon fill="black" stroke="black" points="191.39,-474.83 187.18,-465.11 184.41,-475.33 191.39,-474.83"/>
</g>
<!-- Lead&#45;&gt;Project -->
<g id="edge24" class="edge">
<title>Lead&#45;&gt;Project</title>
<path fill="none" stroke="black" stroke-dasharray="5,2" d="M222.75,-420.14C225.83,-417.16 228.58,-413.87 230.73,-410.25 305.19,-284.94 182.84,-203.47 266.73,-84.25 275.9,-71.21 291.91,-63.26 305.81,-58.54"/>
<polygon fill="black" stroke="black" points="220.72,-417.28 215.2,-426.33 225.15,-422.7 220.72,-417.28"/>
</g>
<!-- Lead&#45;&gt;Redirect -->
<g id="edge25" class="edge">
<title>Lead&#45;&gt;Redirect</title>
<path fill="none" stroke="black" stroke-dasharray="5,2" d="M192.2,-474.9C201.39,-517.83 222.74,-592.16 266.73,-639.25 276.23,-649.43 289.66,-656.77 301.89,-661.83"/>
<polygon fill="black" stroke="black" points="195.64,-474.26 190.22,-465.16 188.78,-475.65 195.64,-474.26"/>
</g>
<!-- Lead&#45;&gt;Updater -->
<g id="edge26" class="edge">
<title>Lead&#45;&gt;Updater</title>
<path fill="none" stroke="black" stroke-dasharray="5,2" d="M222.71,-420.11C225.79,-417.14 228.56,-413.85 230.73,-410.25 298.44,-297.88 174.27,-210.34 266.73,-117.25 313,-70.67 495.46,-92.68 559.73,-79.25 581.42,-74.72 605.44,-67.68 623.61,-61.93"/>
<polygon fill="black" stroke="black" points="220.67,-417.26 215.14,-426.29 225.1,-422.68 220.67,-417.26"/>
</g>
<!-- Lead&#45;&gt;OriginCitation -->
<g id="edge28" class="edge">
<title>Lead&#45;&gt;OriginCitation</title>
<path fill="none" stroke="black" d="M190.2,-473.7C199.67,-545.45 225.84,-714.23 266.73,-752.25 291.26,-775.07 379.8,-785.93 439.59,-790.76"/>
<polygon fill="none" stroke="black" points="184.97,-464.46 192.91,-463.43 193.93,-471.36 186,-472.39 184.97,-464.46"/>
<polyline fill="none" stroke="black" points="189.97,-471.88 190.22,-473.86"/>
<polygon fill="none" stroke="black" points="449.84,-787.54 449.22,-795.51 441.25,-794.9 441.86,-786.92 449.84,-787.54"/>
<polyline fill="none" stroke="black" points="441.56,-790.91 439.56,-790.76"/>
</g>
<!-- AncestorHierarchy&#45;&gt;SelfAndAncestor -->
<g id="edge12" class="edge">
<title>AncestorHierarchy&#45;&gt;SelfAndAncestor</title>
<path fill="none" stroke="black" stroke-dasharray="1,5" d="M392.89,-468.25C405.28,-468.25 418.43,-468.25 431.06,-468.25"/>
<polygon fill="black" stroke="black" points="430.96,-471.75 440.96,-468.25 430.96,-464.75 430.96,-471.75"/>
</g>
<!-- CitationTopic&#45;&gt;Topic -->
<g id="edge18" class="edge">
<title>CitationTopic&#45;&gt;Topic</title>
<path fill="none" stroke="black" stroke-dasharray="1,5" d="M231.22,-873.25C251.48,-873.25 275.14,-873.25 294.46,-873.25"/>
<polygon fill="black" stroke="black" points="294.34,-876.75 304.34,-873.25 294.34,-869.75 294.34,-876.75"/>
</g>
<!-- DescendantHierarchy&#45;&gt;SelfAndDescendant -->
<g id="edge13" class="edge">
<title>DescendantHierarchy&#45;&gt;SelfAndDescendant</title>
<path fill="none" stroke="black" stroke-dasharray="1,5" d="M399.85,-360.25C407.82,-360.25 415.99,-360.25 424.04,-360.25"/>
<polygon fill="black" stroke="black" points="423.81,-363.75 433.81,-360.25 423.81,-356.75 423.81,-363.75"/>
</g>
<!-- Role&#45;&gt;Verifier -->
<!-- SubsequentCitation&#45;&gt;SubsequentSource -->
<g id="edge16" class="edge">
<title>SubsequentCitation&#45;&gt;SubsequentSource</title>
<path fill="none" stroke="black" stroke-dasharray="1,5" d="M559.1,-671.25C567.32,-671.25 575.8,-671.25 584.15,-671.25"/>
<polygon fill="black" stroke="black" points="583.91,-674.75 593.91,-671.25 583.9,-667.75 583.91,-674.75"/>
</g>
<!-- VerifierRole&#45;&gt;Verifier -->
<g id="edge20" class="edge">
<title>VerifierRole&#45;&gt;Verifier</title>
<path fill="none" stroke="black" stroke-dasharray="1,5" d="M374.81,-151C400.05,-155.19 432.34,-160.56 457.35,-164.71"/>
<polygon fill="black" stroke="black" points="456.7,-168.15 467.14,-166.34 457.84,-161.25 456.7,-168.15"/>
</g>
<!-- Creator&#45;&gt;Updater -->
<!-- Project&#45;&gt;Creator -->
<!-- Citation -->
<g id="node1" class="node">
<title>Citation</title>
<g id="a_node1"><a xlink:href="/develop/Data/models.html#citation" xlink:title="Citation" target="_top">
<ellipse fill="#abcdef" stroke="#dddeee" cx="51.86" cy="-818.25" rx="40.6" ry="18"/>
<text text-anchor="middle" x="51.86" y="-813.2" font-family="Times,serif" font-size="14.00">Citation</text>
</a>
</g>
</g>
<!-- Depiction -->
<g id="node2" class="node">
<title>Depiction</title>
<g id="a_node2"><a xlink:href="/develop/Data/models.html#depiction" xlink:title="Depiction" target="_top">
<ellipse fill="#abcdef" stroke="#dddeee" cx="51.86" cy="-385.25" rx="47.26" ry="18"/>
<text text-anchor="middle" x="51.86" y="-380.2" font-family="Times,serif" font-size="14.00">Depiction</text>
</a>
</g>
</g>
<!-- Tag -->
<g id="node3" class="node">
<title>Tag</title>
<g id="a_node3"><a xlink:href="/develop/Data/models.html#tag" xlink:title="Tag" target="_top">
<ellipse fill="#abcdef" stroke="#dddeee" cx="51.86" cy="-331.25" rx="27" ry="18"/>
<text text-anchor="middle" x="51.86" y="-326.2" font-family="Times,serif" font-size="14.00">Tag</text>
</a>
</g>
</g>
<!-- Attribution -->
<g id="node4" class="node">
<title>Attribution</title>
<g id="a_node4"><a xlink:href="/develop/Data/models.html#attribution" xlink:title="Attribution" target="_top">
<ellipse fill="#abcdef" stroke="#dddeee" cx="51.86" cy="-441.25" rx="51.86" ry="18"/>
<text text-anchor="middle" x="51.86" y="-436.2" font-family="Times,serif" font-size="14.00">Attribution</text>
</a>
</g>
</g>
<!-- Source -->
<g id="node5" class="node">
<title>Source</title>
<g id="a_node5"><a xlink:href="/develop/Data/models.html#source" xlink:title="Source" target="_top">
<path fill="#fedcba" stroke="#dddeee" d="M318.23,-800.25C318.23,-800.25 348.23,-800.25 348.23,-800.25 354.23,-800.25 360.23,-806.25 360.23,-812.25 360.23,-812.25 360.23,-824.25 360.23,-824.25 360.23,-830.25 354.23,-836.25 348.23,-836.25 348.23,-836.25 318.23,-836.25 318.23,-836.25 312.23,-836.25 306.23,-830.25 306.23,-824.25 306.23,-824.25 306.23,-812.25 306.23,-812.25 306.23,-806.25 312.23,-800.25 318.23,-800.25"/>
<text text-anchor="middle" x="333.23" y="-813.45" font-family="Times,serif" font-size="14.00">Source</text>
</a>
</g>
</g>
<!-- Otu -->
<g id="node6" class="node">
<title>Otu</title>
<g id="a_node6"><a xlink:href="/develop/Data/models.html#otu" xlink:title="Otu" target="_top">
<path fill="#fedcba" stroke="#dddeee" d="M318.23,-560.25C318.23,-560.25 348.23,-560.25 348.23,-560.25 354.23,-560.25 360.23,-566.25 360.23,-572.25 360.23,-572.25 360.23,-584.25 360.23,-584.25 360.23,-590.25 354.23,-596.25 348.23,-596.25 348.23,-596.25 318.23,-596.25 318.23,-596.25 312.23,-596.25 306.23,-590.25 306.23,-584.25 306.23,-584.25 306.23,-572.25 306.23,-572.25 306.23,-566.25 312.23,-560.25 318.23,-560.25"/>
<text text-anchor="middle" x="333.23" y="-573.45" font-family="Times,serif" font-size="14.00">Otu</text>
</a>
</g>
</g>
<!-- TaxonName -->
<g id="node7" class="node">
<title>TaxonName</title>
<g id="a_node7"><a xlink:href="/develop/Data/models.html#taxon-name" xlink:title="TaxonName" target="_top">
<path fill="#fedcba" stroke="#dddeee" d="M303.48,-505.25C303.48,-505.25 362.98,-505.25 362.98,-505.25 368.98,-505.25 374.98,-511.25 374.98,-517.25 374.98,-517.25 374.98,-529.25 374.98,-529.25 374.98,-535.25 368.98,-541.25 362.98,-541.25 362.98,-541.25 303.48,-541.25 303.48,-541.25 297.48,-541.25 291.48,-535.25 291.48,-529.25 291.48,-529.25 291.48,-517.25 291.48,-517.25 291.48,-511.25 297.48,-505.25 303.48,-505.25"/>
<text text-anchor="middle" x="333.23" y="-518.45" font-family="Times,serif" font-size="14.00">TaxonName</text>
</a>
</g>
</g>
<!-- Lead -->
<g id="node8" class="node">
<title>Lead</title>
<g id="a_node8"><a xlink:href="/develop/Data/models.html#lead" xlink:title="Lead" target="_top">
<polygon fill="#cdefab" stroke="#dedede" points="216.99,-433.8 216.99,-448.71 198.38,-459.25 172.07,-459.25 153.47,-448.71 153.47,-433.8 172.07,-423.25 198.38,-423.25 216.99,-433.8"/>
<polygon fill="none" stroke="#dedede" points="220.99,-431.47 220.99,-451.04 199.44,-463.25 171.02,-463.25 149.47,-451.04 149.47,-431.47 171.02,-419.25 199.44,-419.25 220.99,-431.47"/>
<text text-anchor="middle" x="185.23" y="-436.2" font-family="Times,serif" font-size="14.00">Lead</text>
</a>
</g>
</g>
<!-- AncestorHierarchy -->
<g id="node9" class="node">
<title>AncestorHierarchy</title>
<g id="a_node9"><a xlink:href="/develop/Data/models.html#ancestor-hierarchy" xlink:title="AncestorHierarchy" target="_top">
<polygon fill="#eeefff" stroke="#dddeee" points="392.6,-486.25 273.85,-486.25 273.85,-450.25 392.6,-450.25 392.6,-486.25"/>
<text text-anchor="middle" x="333.23" y="-463.2" font-family="Times,serif" font-size="14.00">AncestorHierarchy</text>
</a>
</g>
</g>
<!-- Child -->
<g id="node10" class="node">
<title>Child</title>
<g id="a_node10"><a xlink:href="/develop/Data/models.html#child" xlink:title="Child" target="_top">
<polygon fill="#eeefff" stroke="#dddeee" points="360.23,-432.25 306.23,-432.25 306.23,-396.25 360.23,-396.25 360.23,-432.25"/>
<text text-anchor="middle" x="333.23" y="-409.2" font-family="Times,serif" font-size="14.00">Child</text>
</a>
</g>
</g>
<!-- CitationTopic -->
<g id="node11" class="node">
<title>CitationTopic</title>
<g id="a_node11"><a xlink:href="/develop/Data/models.html#citation-topic" xlink:title="CitationTopic" target="_top">
<polygon fill="#eeefff" stroke="#dddeee" points="230.73,-891.25 139.73,-891.25 139.73,-855.25 230.73,-855.25 230.73,-891.25"/>
<text text-anchor="middle" x="185.23" y="-868.2" font-family="Times,serif" font-size="14.00">CitationTopic</text>
</a>
</g>
</g>
<!-- DescendantHierarchy -->
<g id="node12" class="node">
<title>DescendantHierarchy</title>
<g id="a_node12"><a xlink:href="/develop/Data/models.html#descendant-hierarchy" xlink:title="DescendantHierarchy" target="_top">
<polygon fill="#eeefff" stroke="#dddeee" points="399.73,-378.25 266.73,-378.25 266.73,-342.25 399.73,-342.25 399.73,-378.25"/>
<text text-anchor="middle" x="333.23" y="-355.2" font-family="Times,serif" font-size="14.00">DescendantHierarchy</text>
</a>
</g>
</g>
<!-- Image -->
<g id="node13" class="node">
<title>Image</title>
<g id="a_node13"><a xlink:href="/develop/Data/models.html#image" xlink:title="Image" target="_top">
<polygon fill="#eeefff" stroke="#dddeee" points="212.23,-401.25 158.23,-401.25 158.23,-365.25 212.23,-365.25 212.23,-401.25"/>
<text text-anchor="middle" x="185.23" y="-378.2" font-family="Times,serif" font-size="14.00">Image</text>
</a>
</g>
</g>
<!-- Keyword -->
<g id="node14" class="node">
<title>Keyword</title>
<g id="a_node14"><a xlink:href="/develop/Data/models.html#keyword" xlink:title="Keyword" target="_top">
<polygon fill="#eeefff" stroke="#dddeee" points="218.35,-347.25 152.1,-347.25 152.1,-311.25 218.35,-311.25 218.35,-347.25"/>
<text text-anchor="middle" x="185.23" y="-324.2" font-family="Times,serif" font-size="14.00">Keyword</text>
</a>
</g>
</g>
<!-- PinboardItem -->
<g id="node15" class="node">
<title>PinboardItem</title>
<g id="a_node15"><a xlink:href="/develop/Data/models.html#pinboard-item" xlink:title="PinboardItem" target="_top">
<polygon fill="#eeefff" stroke="#dddeee" points="378.35,-324.25 288.1,-324.25 288.1,-288.25 378.35,-288.25 378.35,-324.25"/>
<text text-anchor="middle" x="333.23" y="-301.2" font-family="Times,serif" font-size="14.00">PinboardItem</text>
</a>
</g>
</g>
<!-- Redirecter -->
<g id="node16" class="node">
<title>Redirecter</title>
<g id="a_node16"><a xlink:href="/develop/Data/models.html#redirecter" xlink:title="Redirecter" target="_top">
<polygon fill="#eeefff" stroke="#dddeee" points="369.35,-270.25 297.1,-270.25 297.1,-234.25 369.35,-234.25 369.35,-270.25"/>
<text text-anchor="middle" x="333.23" y="-247.2" font-family="Times,serif" font-size="14.00">Redirecter</text>
</a>
</g>
</g>
<!-- Role -->
<g id="node17" class="node">
<title>Role</title>
<g id="a_node17"><a xlink:href="/develop/Data/models.html#role" xlink:title="Role" target="_top">
<polygon fill="#eeefff" stroke="#dddeee" points="360.23,-216.25 306.23,-216.25 306.23,-180.25 360.23,-180.25 360.23,-216.25"/>
<text text-anchor="middle" x="333.23" y="-193.2" font-family="Times,serif" font-size="14.00">Role</text>
</a>
</g>
</g>
<!-- SelfAndAncestor -->
<g id="node18" class="node">
<title>SelfAndAncestor</title>
<g id="a_node18"><a xlink:href="/develop/Data/models.html#self-and-ancestor" xlink:title="SelfAndAncestor" target="_top">
<polygon fill="#eeefff" stroke="#dddeee" points="552.6,-486.25 442.85,-486.25 442.85,-450.25 552.6,-450.25 552.6,-486.25"/>
<text text-anchor="middle" x="497.73" y="-463.2" font-family="Times,serif" font-size="14.00">SelfAndAncestor</text>
</a>
</g>
</g>
<!-- SelfAndDescendant -->
<g id="node19" class="node">
<title>SelfAndDescendant</title>
<g id="a_node19"><a xlink:href="/develop/Data/models.html#self-and-descendant" xlink:title="SelfAndDescendant" target="_top">
<polygon fill="#eeefff" stroke="#dddeee" points="559.73,-378.25 435.73,-378.25 435.73,-342.25 559.73,-342.25 559.73,-378.25"/>
<text text-anchor="middle" x="497.73" y="-355.2" font-family="Times,serif" font-size="14.00">SelfAndDescendant</text>
</a>
</g>
</g>
<!-- SubsequentCitation -->
<g id="node20" class="node">
<title>SubsequentCitation</title>
<g id="a_node20"><a xlink:href="/develop/Data/models.html#subsequent-citation" xlink:title="SubsequentCitation" target="_top">
<polygon fill="#eeefff" stroke="#dddeee" points="558.6,-689.25 436.85,-689.25 436.85,-653.25 558.6,-653.25 558.6,-689.25"/>
<text text-anchor="middle" x="497.73" y="-666.2" font-family="Times,serif" font-size="14.00">SubsequentCitation</text>
</a>
</g>
</g>
<!-- SubsequentSource -->
<g id="node21" class="node">
<title>SubsequentSource</title>
<g id="a_node21"><a xlink:href="/develop/Data/models.html#subsequent-source" xlink:title="SubsequentSource" target="_top">
<polygon fill="#eeefff" stroke="#dddeee" points="711.48,-689.25 595.73,-689.25 595.73,-653.25 711.48,-653.25 711.48,-689.25"/>
<text text-anchor="middle" x="653.6" y="-666.2" font-family="Times,serif" font-size="14.00">SubsequentSource</text>
</a>
</g>
</g>
<!-- Topic -->
<g id="node22" class="node">
<title>Topic</title>
<g id="a_node22"><a xlink:href="/develop/Data/models.html#topic" xlink:title="Topic" target="_top">
<polygon fill="#eeefff" stroke="#dddeee" points="360.23,-891.25 306.23,-891.25 306.23,-855.25 360.23,-855.25 360.23,-891.25"/>
<text text-anchor="middle" x="333.23" y="-868.2" font-family="Times,serif" font-size="14.00">Topic</text>
</a>
</g>
</g>
<!-- VerifierRole -->
<g id="node23" class="node">
<title>VerifierRole</title>
<g id="a_node23"><a xlink:href="/develop/Data/models.html#verifier-role" xlink:title="VerifierRole" target="_top">
<polygon fill="#eeefff" stroke="#dddeee" points="374.6,-162.25 291.85,-162.25 291.85,-126.25 374.6,-126.25 374.6,-162.25"/>
<text text-anchor="middle" x="333.23" y="-139.2" font-family="Times,serif" font-size="14.00">VerifierRole</text>
</a>
</g>
</g>
<!-- Verifier -->
<g id="node24" class="node">
<title>Verifier</title>
<g id="a_node24"><a xlink:href="/develop/Data/models.html#verifier" xlink:title="Verifier" target="_top">
<polygon fill="#eeefff" stroke="#dddeee" points="526.35,-189.25 469.1,-189.25 469.1,-153.25 526.35,-153.25 526.35,-189.25"/>
<text text-anchor="middle" x="497.73" y="-166.2" font-family="Times,serif" font-size="14.00">Verifier</text>
</a>
</g>
</g>
<!-- Creator -->
<g id="node25" class="node">
<title>Creator</title>
<g id="a_node25"><a xlink:href="/develop/Data/models.html#creator" xlink:title="Creator" target="_top">
<polygon fill="#eeefff" stroke="#dddeee" points="525.98,-70.25 469.48,-70.25 469.48,-34.25 525.98,-34.25 525.98,-70.25"/>
<text text-anchor="middle" x="497.73" y="-47.2" font-family="Times,serif" font-size="14.00">Creator</text>
</a>
</g>
</g>
<!-- Parent -->
<g id="node26" class="node">
<title>Parent</title>
<g id="a_node26"><a xlink:href="/develop/Data/models.html#parent" xlink:title="Parent" target="_top">
<polygon fill="#eeefff" stroke="#dddeee" points="360.23,-743.25 306.23,-743.25 306.23,-707.25 360.23,-707.25 360.23,-743.25"/>
<text text-anchor="middle" x="333.23" y="-720.2" font-family="Times,serif" font-size="14.00">Parent</text>
</a>
</g>
</g>
<!-- Project -->
<g id="node27" class="node">
<title>Project</title>
<g id="a_node27"><a xlink:href="/develop/Data/models.html#project" xlink:title="Project" target="_top">
<polygon fill="#eeefff" stroke="#dddeee" points="360.35,-70.25 306.1,-70.25 306.1,-34.25 360.35,-34.25 360.35,-70.25"/>
<text text-anchor="middle" x="333.23" y="-47.2" font-family="Times,serif" font-size="14.00">Project</text>
</a>
</g>
</g>
<!-- Redirect -->
<g id="node28" class="node">
<title>Redirect</title>
<g id="a_node28"><a xlink:href="/develop/Data/models.html#redirect" xlink:title="Redirect" target="_top">
<polygon fill="#eeefff" stroke="#dddeee" points="364.1,-689.25 302.35,-689.25 302.35,-653.25 364.1,-653.25 364.1,-689.25"/>
<text text-anchor="middle" x="333.23" y="-666.2" font-family="Times,serif" font-size="14.00">Redirect</text>
</a>
</g>
</g>
<!-- Updater -->
<g id="node29" class="node">
<title>Updater</title>
<g id="a_node29"><a xlink:href="/develop/Data/models.html#updater" xlink:title="Updater" target="_top">
<polygon fill="#eeefff" stroke="#dddeee" points="683.35,-70.25 623.85,-70.25 623.85,-34.25 683.35,-34.25 683.35,-70.25"/>
<text text-anchor="middle" x="653.6" y="-47.2" font-family="Times,serif" font-size="14.00">Updater</text>
</a>
</g>
</g>
<!-- OriginCitation -->
<g id="node30" class="node">
<title>OriginCitation</title>
<g id="a_node30"><a xlink:href="/develop/Data/models.html#origin-citation" xlink:title="OriginCitation" target="_top">
<polygon fill="#eeefff" stroke="#dddeee" points="545.1,-812.25 450.35,-812.25 450.35,-776.25 545.1,-776.25 545.1,-812.25"/>
<text text-anchor="middle" x="497.73" y="-789.2" font-family="Times,serif" font-size="14.00">OriginCitation</text>
</a>
</g>
</g>
</g>
</svg>
