<?xml version="1.0" encoding="UTF-8" standalone="no"?>
<!DOCTYPE svg PUBLIC "-//W3C//DTD SVG 1.1//EN"
 "http://www.w3.org/Graphics/SVG/1.1/DTD/svg11.dtd">
<!-- Generated by graphviz version 12.2.1 (20241206.2353)
 -->
<!-- Title: Loan Pages: 1 -->
<svg width="637pt" height="746pt"
 viewBox="0.00 0.00 637.31 745.72" xmlns="http://www.w3.org/2000/svg" xmlns:xlink="http://www.w3.org/1999/xlink">
<g id="graph0" class="graph" transform="scale(1 1) rotate(0) translate(4 741.72)">
<title>Loan</title>
<polygon fill="white" stroke="none" points="-4,4 -4,-741.72 633.31,-741.72 633.31,4 -4,4"/>
<!-- Depiction&#45;&gt;Image -->
<g id="edge6" class="edge">
<title>Depiction&#45;&gt;Image</title>
<path fill="none" stroke="black" stroke-dasharray="1,5" d="M109.09,-283.72C124.78,-283.72 142.07,-283.72 156.97,-283.72"/>
<polygon fill="black" stroke="black" points="156.82,-287.22 166.82,-283.72 156.82,-280.22 156.82,-287.22"/>
</g>
<!-- Tag&#45;&gt;Keyword -->
<g id="edge9" class="edge">
<title>Tag&#45;&gt;Keyword</title>
<path fill="none" stroke="black" stroke-dasharray="1,5" d="M88.96,-229.72C106.64,-229.72 130.34,-229.72 150.8,-229.72"/>
<polygon fill="black" stroke="black" points="150.58,-233.22 160.58,-229.72 150.58,-226.22 150.58,-233.22"/>
</g>
<!-- Loan&#45;&gt;DataAttribute -->
<g id="edge1" class="edge">
<title>Loan&#45;&gt;DataAttribute</title>
<path fill="none" stroke="black" d="M178.83,-362.89C165.51,-379.74 145.1,-403.02 123.18,-418.72 119.33,-421.47 115.16,-424.04 110.87,-426.4"/>
<polygon fill="black" stroke="black" points="109.41,-423.22 102.08,-430.87 112.58,-429.46 109.41,-423.22"/>
</g>
<!-- Loan&#45;&gt;Depiction -->
<g id="edge2" class="edge">
<title>Loan&#45;&gt;Depiction</title>
<path fill="none" stroke="black" d="M164.67,-328.61C146.75,-320.73 123.7,-310.59 104.04,-301.94"/>
<polygon fill="black" stroke="black" points="105.46,-298.75 94.9,-297.93 102.64,-305.16 105.46,-298.75"/>
</g>
<!-- Loan&#45;&gt;Identifier -->
<g id="edge5" class="edge">
<title>Loan&#45;&gt;Identifier</title>
<path fill="none" stroke="black" d="M162.72,-353.76C145.63,-360.24 124.32,-368.32 105.75,-375.36"/>
<polygon fill="black" stroke="black" points="104.72,-372.01 96.61,-378.82 107.2,-378.55 104.72,-372.01"/>
</g>
<!-- Loan&#45;&gt;Tag -->
<g id="edge19" class="edge">
<title>Loan&#45;&gt;Tag</title>
<path fill="none" stroke="black" d="M172.72,-324.21C168.03,-320.01 163.26,-315.38 159.18,-310.72 140.17,-289.02 145.22,-275.32 123.18,-256.72 115.58,-250.31 106.23,-245.16 97.17,-241.14"/>
<polygon fill="black" stroke="black" points="98.76,-238.01 88.18,-237.5 96.14,-244.5 98.76,-238.01"/>
</g>
<!-- Loan&#45;&gt;Note -->
<g id="edge15" class="edge">
<title>Loan&#45;&gt;Note</title>
<path fill="none" stroke="black" d="M158.69,-340.63C141.21,-340.1 120.13,-339.46 102.17,-338.92"/>
<polygon fill="black" stroke="black" points="102.5,-335.43 92.4,-338.62 102.29,-342.43 102.5,-335.43"/>
</g>
<!-- Loan&#45;&gt;Documentation -->
<g id="edge3" class="edge">
<title>Loan&#45;&gt;Documentation</title>
<path fill="none" stroke="black" d="M198.31,-363.75C204.4,-432.47 226.02,-641.34 267.81,-692.72 269.21,-694.45 270.75,-696.07 272.39,-697.59"/>
<polygon fill="black" stroke="black" points="270.05,-700.2 280.14,-703.45 274.27,-694.62 270.05,-700.2"/>
</g>
<!-- Loan&#45;&gt;ImportAttribute -->
<g id="edge7" class="edge">
<title>Loan&#45;&gt;ImportAttribute</title>
<path fill="none" stroke="black" d="M199.21,-363.79C207.16,-425.21 232.09,-596.35 267.81,-638.72 268.91,-640.03 270.08,-641.27 271.32,-642.45"/>
<polygon fill="black" stroke="black" points="269.05,-645.12 279.08,-648.52 273.36,-639.61 269.05,-645.12"/>
</g>
<!-- Loan&#45;&gt;InternalAttribute -->
<g id="edge8" class="edge">
<title>Loan&#45;&gt;InternalAttribute</title>
<path fill="none" stroke="black" d="M196.95,-364.16C199.09,-410.95 210.35,-519.91 267.81,-584.72 268.37,-585.35 268.95,-585.97 269.54,-586.58"/>
<polygon fill="black" stroke="black" points="266.98,-589 276.9,-592.71 271.46,-583.62 266.98,-589"/>
</g>
<!-- Loan&#45;&gt;LoanItem -->
<g id="edge10" class="edge">
<title>Loan&#45;&gt;LoanItem</title>
<path fill="none" stroke="black" d="M199.18,-363.94C204.96,-402.63 222,-482.81 267.81,-530.72 273.05,-536.2 279.58,-540.63 286.44,-544.18"/>
<polygon fill="black" stroke="black" points="284.68,-547.23 295.23,-548.17 287.57,-540.85 284.68,-547.23"/>
</g>
<!-- Loan&#45;&gt;LoanRecipientRole -->
<g id="edge11" class="edge">
<title>Loan&#45;&gt;LoanRecipientRole</title>
<path fill="none" stroke="black" d="M203.07,-364.01C212.79,-393.43 233.62,-445.17 267.81,-476.72 268.57,-477.42 269.35,-478.11 270.16,-478.78"/>
<polygon fill="black" stroke="black" points="267.99,-481.53 278.16,-484.49 272.05,-475.84 267.99,-481.53"/>
</g>
<!-- Loan&#45;&gt;LoanSupervisorRole -->
<g id="edge13" class="edge">
<title>Loan&#45;&gt;LoanSupervisorRole</title>
<path fill="none" stroke="black" d="M211.34,-363.4C224.48,-381.25 245.05,-406.22 267.81,-422.72 269.16,-423.7 270.55,-424.65 271.98,-425.58"/>
<polygon fill="black" stroke="black" points="270.07,-428.52 280.47,-430.56 273.61,-422.48 270.07,-428.52"/>
</g>
<!-- Loan&#45;&gt;Role -->
<g id="edge18" class="edge">
<title>Loan&#45;&gt;Role</title>
<path fill="none" stroke="black" d="M227.61,-354.24C247.3,-362.17 272.86,-372.45 293.6,-380.8"/>
<polygon fill="black" stroke="black" points="292.26,-384.03 302.85,-384.52 294.87,-377.54 292.26,-384.03"/>
</g>
<!-- Loan&#45;&gt;PinboardItem -->
<g id="edge17" class="edge">
<title>Loan&#45;&gt;PinboardItem</title>
<path fill="none" stroke="black" d="M218.13,-324.1C222.83,-319.91 227.64,-315.31 231.81,-310.72 250.21,-290.45 243.43,-273.2 267.81,-260.72 318.58,-234.71 384.72,-249.25 429.92,-265.27"/>
<polygon fill="black" stroke="black" points="428.64,-268.53 439.23,-268.71 431.07,-261.96 428.64,-268.53"/>
</g>
<!-- Loan&#45;&gt;Uri -->
<g id="edge20" class="edge">
<title>Loan&#45;&gt;Uri</title>
<path fill="none" stroke="black" d="M219.27,-324.39C223.8,-320.25 228.25,-315.6 231.81,-310.72 255.49,-278.22 240.26,-257.01 267.81,-227.72 275,-220.07 284.43,-213.95 293.78,-209.2"/>
<polygon fill="black" stroke="black" points="295.2,-212.4 302.82,-205.04 292.28,-206.05 295.2,-212.4"/>
</g>
<!-- Loan&#45;&gt;Uuid -->
<g id="edge21" class="edge">
<title>Loan&#45;&gt;Uuid</title>
<path fill="none" stroke="black" d="M219.88,-324.8C224.37,-320.63 228.65,-315.87 231.81,-310.72 265.8,-255.19 225.53,-218.23 267.81,-168.72 274.59,-160.78 284.13,-155.11 293.73,-151.08"/>
<polygon fill="black" stroke="black" points="294.82,-154.41 303.03,-147.72 292.44,-147.83 294.82,-154.41"/>
</g>
<!-- Loan&#45;&gt;VerifierRole -->
<g id="edge22" class="edge">
<title>Loan&#45;&gt;VerifierRole</title>
<path fill="none" stroke="black" d="M232.1,-341.72C246.47,-341.72 263.33,-341.72 279.01,-341.72"/>
<polygon fill="black" stroke="black" points="278.65,-345.22 288.65,-341.72 278.65,-338.22 278.65,-345.22"/>
</g>
<!-- Loan&#45;&gt;Version -->
<g id="edge24" class="edge">
<title>Loan&#45;&gt;Version</title>
<path fill="none" stroke="black" d="M227.61,-329.2C246.91,-321.43 271.84,-311.4 292.35,-303.15"/>
<polygon fill="black" stroke="black" points="293.54,-306.44 301.51,-299.46 290.93,-299.94 293.54,-306.44"/>
</g>
<!-- Loan&#45;&gt;Creator -->
<g id="edge25" class="edge">
<title>Loan&#45;&gt;Creator</title>
<path fill="none" stroke="black" stroke-dasharray="5,2" d="M227.78,-316.97C229.29,-314.97 230.66,-312.89 231.81,-310.72 262.01,-253.73 219.45,-65.4 267.81,-22.72 319.99,23.35 409.25,-11.78 454.16,-34.43"/>
<polygon fill="black" stroke="black" points="225.55,-314.22 221.39,-323.96 230.72,-318.93 225.55,-314.22"/>
</g>
<!-- Loan&#45;&gt;Project -->
<g id="edge26" class="edge">
<title>Loan&#45;&gt;Project</title>
<path fill="none" stroke="black" stroke-dasharray="5,2" d="M227.7,-316.92C229.23,-314.94 230.62,-312.87 231.81,-310.72 281.48,-220.46 207.28,-165.09 267.81,-81.72 276.58,-69.63 291.28,-61.79 304.25,-56.9"/>
<polygon fill="black" stroke="black" points="225.47,-314.17 221.27,-323.9 230.62,-318.91 225.47,-314.17"/>
</g>
<!-- Loan&#45;&gt;Updater -->
<g id="edge27" class="edge">
<title>Loan&#45;&gt;Updater</title>
<path fill="none" stroke="black" stroke-dasharray="5,2" d="M227.63,-316.89C229.18,-314.91 230.6,-312.85 231.81,-310.72 275.51,-233.68 203.95,-176.09 267.81,-114.72 310.86,-73.34 476.23,-92.56 533.81,-76.72 545.78,-73.42 558.5,-68.47 569.46,-63.7"/>
<polygon fill="black" stroke="black" points="225.41,-314.14 221.17,-323.85 230.54,-318.9 225.41,-314.14"/>
</g>
<!-- Documentation&#45;&gt;Document -->
<g id="edge4" class="edge">
<title>Documentation&#45;&gt;Document</title>
<path fill="none" stroke="black" stroke-dasharray="1,5" d="M381.88,-719.72C398.82,-719.72 417.75,-719.72 434.52,-719.72"/>
<polygon fill="black" stroke="black" points="434.23,-723.22 444.23,-719.72 434.23,-716.22 434.23,-723.22"/>
</g>
<!-- LoanRecipientRole&#45;&gt;LoanRecipient -->
<g id="edge12" class="edge">
<title>LoanRecipientRole&#45;&gt;LoanRecipient</title>
<path fill="none" stroke="black" stroke-dasharray="1,5" d="M392.43,-503.72C402.66,-503.72 413.28,-503.72 423.48,-503.72"/>
<polygon fill="black" stroke="black" points="423.25,-507.22 433.25,-503.72 423.25,-500.22 423.25,-507.22"/>
</g>
<!-- LoanSupervisorRole&#45;&gt;LoanSupervisor -->
<g id="edge14" class="edge">
<title>LoanSupervisorRole&#45;&gt;LoanSupervisor</title>
<path fill="none" stroke="black" stroke-dasharray="1,5" d="M395.87,-449.72C403.86,-449.72 412.04,-449.72 420,-449.72"/>
<polygon fill="black" stroke="black" points="419.98,-453.22 429.98,-449.72 419.98,-446.22 419.98,-453.22"/>
</g>
<!-- Role&#45;&gt;Person -->
<g id="edge16" class="edge">
<title>Role&#45;&gt;Person</title>
<path fill="none" stroke="black" stroke-dasharray="1,5" d="M358.98,-395.72C382.63,-395.72 417.64,-395.72 444.22,-395.72"/>
<polygon fill="black" stroke="black" points="443.88,-399.22 453.88,-395.72 443.88,-392.22 443.88,-399.22"/>
</g>
<!-- Role&#45;&gt;Verifier -->
<!-- VerifierRole&#45;&gt;Verifier -->
<g id="edge23" class="edge">
<title>VerifierRole&#45;&gt;Verifier</title>
<path fill="none" stroke="black" stroke-dasharray="1,5" d="M373.4,-341.72C394.92,-341.72 421.21,-341.72 442.49,-341.72"/>
<polygon fill="black" stroke="black" points="442.23,-345.22 452.23,-341.72 442.23,-338.22 442.23,-345.22"/>
</g>
<!-- Version&#45;&gt;PinboardItem -->
<!-- Creator&#45;&gt;Updater -->
<!-- Project&#45;&gt;Creator -->
<!-- DataAttribute -->
<g id="node1" class="node">
<title>DataAttribute</title>
<g id="a_node1"><a xlink:href="/develop/Data/models.html#data-attribute" xlink:title="DataAttribute" target="_top">
<ellipse fill="#abcdef" stroke="#dddeee" cx="61.59" cy="-445.72" rx="61.59" ry="18"/>
<text text-anchor="middle" x="61.59" y="-440.67" font-family="Times,serif" font-size="14.00">DataAttribute</text>
</a>
</g>
</g>
<!-- Depiction -->
<g id="node2" class="node">
<title>Depiction</title>
<g id="a_node2"><a xlink:href="/develop/Data/models.html#depiction" xlink:title="Depiction" target="_top">
<ellipse fill="#abcdef" stroke="#dddeee" cx="61.59" cy="-283.72" rx="47.26" ry="18"/>
<text text-anchor="middle" x="61.59" y="-278.67" font-family="Times,serif" font-size="14.00">Depiction</text>
</a>
</g>
</g>
<!-- Identifier -->
<g id="node3" class="node">
<title>Identifier</title>
<g id="a_node3"><a xlink:href="/develop/Data/models.html#identifier" xlink:title="Identifier" target="_top">
<ellipse fill="#abcdef" stroke="#dddeee" cx="61.59" cy="-391.72" rx="45.21" ry="18"/>
<text text-anchor="middle" x="61.59" y="-386.67" font-family="Times,serif" font-size="14.00">Identifier</text>
</a>
</g>
</g>
<!-- Tag -->
<g id="node4" class="node">
<title>Tag</title>
<g id="a_node4"><a xlink:href="/develop/Data/models.html#tag" xlink:title="Tag" target="_top">
<ellipse fill="#abcdef" stroke="#dddeee" cx="61.59" cy="-229.72" rx="27" ry="18"/>
<text text-anchor="middle" x="61.59" y="-224.67" font-family="Times,serif" font-size="14.00">Tag</text>
</a>
</g>
</g>
<!-- Note -->
<g id="node5" class="node">
<title>Note</title>
<g id="a_node5"><a xlink:href="/develop/Data/models.html#note" xlink:title="Note" target="_top">
<ellipse fill="#abcdef" stroke="#dddeee" cx="61.59" cy="-337.72" rx="28.83" ry="18"/>
<text text-anchor="middle" x="61.59" y="-332.67" font-family="Times,serif" font-size="14.00">Note</text>
</a>
</g>
</g>
<!-- Loan -->
<g id="node6" class="node">
<title>Loan</title>
<g id="a_node6"><a xlink:href="/develop/Data/models.html#loan" xlink:title="Loan" target="_top">
<polygon fill="#cdefab" stroke="#dedede" points="227.81,-334.26 227.81,-349.18 208.88,-359.72 182.11,-359.72 163.18,-349.18 163.18,-334.26 182.11,-323.72 208.88,-323.72 227.81,-334.26"/>
<polygon fill="none" stroke="#dedede" points="231.81,-331.91 231.81,-351.53 209.91,-363.72 181.07,-363.72 159.18,-351.53 159.18,-331.91 181.07,-319.72 209.91,-319.72 231.81,-331.91"/>
<text text-anchor="middle" x="195.49" y="-336.67" font-family="Times,serif" font-size="14.00">Loan</text>
</a>
</g>
</g>
<!-- Documentation -->
<g id="node7" class="node">
<title>Documentation</title>
<g id="a_node7"><a xlink:href="/develop/Data/models.html#documentation" xlink:title="Documentation" target="_top">
<polygon fill="#eeefff" stroke="#dddeee" points="381.68,-737.72 281.68,-737.72 281.68,-701.72 381.68,-701.72 381.68,-737.72"/>
<text text-anchor="middle" x="331.68" y="-714.67" font-family="Times,serif" font-size="14.00">Documentation</text>
</a>
</g>
</g>
<!-- Document -->
<g id="node8" class="node">
<title>Document</title>
<g id="a_node8"><a xlink:href="/develop/Data/models.html#document" xlink:title="Document" target="_top">
<polygon fill="#eeefff" stroke="#dddeee" points="519.18,-737.72 446.18,-737.72 446.18,-701.72 519.18,-701.72 519.18,-737.72"/>
<text text-anchor="middle" x="482.68" y="-714.67" font-family="Times,serif" font-size="14.00">Document</text>
</a>
</g>
</g>
<!-- Image -->
<g id="node9" class="node">
<title>Image</title>
<g id="a_node9"><a xlink:href="/develop/Data/models.html#image" xlink:title="Image" target="_top">
<polygon fill="#eeefff" stroke="#dddeee" points="222.49,-301.72 168.49,-301.72 168.49,-265.72 222.49,-265.72 222.49,-301.72"/>
<text text-anchor="middle" x="195.49" y="-278.67" font-family="Times,serif" font-size="14.00">Image</text>
</a>
</g>
</g>
<!-- ImportAttribute -->
<g id="node10" class="node">
<title>ImportAttribute</title>
<g id="a_node10"><a xlink:href="/develop/Data/models.html#import-attribute" xlink:title="ImportAttribute" target="_top">
<polygon fill="#eeefff" stroke="#dddeee" points="382.81,-683.72 280.56,-683.72 280.56,-647.72 382.81,-647.72 382.81,-683.72"/>
<text text-anchor="middle" x="331.68" y="-660.67" font-family="Times,serif" font-size="14.00">ImportAttribute</text>
</a>
</g>
</g>
<!-- InternalAttribute -->
<g id="node11" class="node">
<title>InternalAttribute</title>
<g id="a_node11"><a xlink:href="/develop/Data/models.html#internal-attribute" xlink:title="InternalAttribute" target="_top">
<polygon fill="#eeefff" stroke="#dddeee" points="385.06,-629.72 278.31,-629.72 278.31,-593.72 385.06,-593.72 385.06,-629.72"/>
<text text-anchor="middle" x="331.68" y="-606.67" font-family="Times,serif" font-size="14.00">InternalAttribute</text>
</a>
</g>
</g>
<!-- Keyword -->
<g id="node12" class="node">
<title>Keyword</title>
<g id="a_node12"><a xlink:href="/develop/Data/models.html#keyword" xlink:title="Keyword" target="_top">
<polygon fill="#eeefff" stroke="#dddeee" points="228.62,-247.72 162.37,-247.72 162.37,-211.72 228.62,-211.72 228.62,-247.72"/>
<text text-anchor="middle" x="195.49" y="-224.67" font-family="Times,serif" font-size="14.00">Keyword</text>
</a>
</g>
</g>
<!-- LoanItem -->
<g id="node13" class="node">
<title>LoanItem</title>
<g id="a_node13"><a xlink:href="/develop/Data/models.html#loan-item" xlink:title="LoanItem" target="_top">
<polygon fill="#eeefff" stroke="#dddeee" points="366.31,-575.72 297.06,-575.72 297.06,-539.72 366.31,-539.72 366.31,-575.72"/>
<text text-anchor="middle" x="331.68" y="-552.67" font-family="Times,serif" font-size="14.00">LoanItem</text>
</a>
</g>
</g>
<!-- LoanRecipientRole -->
<g id="node14" class="node">
<title>LoanRecipientRole</title>
<g id="a_node14"><a xlink:href="/develop/Data/models.html#loan-recipient-role" xlink:title="LoanRecipientRole" target="_top">
<polygon fill="#eeefff" stroke="#dddeee" points="392.18,-521.72 271.18,-521.72 271.18,-485.72 392.18,-485.72 392.18,-521.72"/>
<text text-anchor="middle" x="331.68" y="-498.67" font-family="Times,serif" font-size="14.00">LoanRecipientRole</text>
</a>
</g>
</g>
<!-- LoanRecipient -->
<g id="node15" class="node">
<title>LoanRecipient</title>
<g id="a_node15"><a xlink:href="/develop/Data/models.html#loan-recipient" xlink:title="LoanRecipient" target="_top">
<polygon fill="#eeefff" stroke="#dddeee" points="530.43,-521.72 434.93,-521.72 434.93,-485.72 530.43,-485.72 530.43,-521.72"/>
<text text-anchor="middle" x="482.68" y="-498.67" font-family="Times,serif" font-size="14.00">LoanRecipient</text>
</a>
</g>
</g>
<!-- LoanSupervisorRole -->
<g id="node16" class="node">
<title>LoanSupervisorRole</title>
<g id="a_node16"><a xlink:href="/develop/Data/models.html#loan-supervisor-role" xlink:title="LoanSupervisorRole" target="_top">
<polygon fill="#eeefff" stroke="#dddeee" points="395.56,-467.72 267.81,-467.72 267.81,-431.72 395.56,-431.72 395.56,-467.72"/>
<text text-anchor="middle" x="331.68" y="-444.67" font-family="Times,serif" font-size="14.00">LoanSupervisorRole</text>
</a>
</g>
</g>
<!-- LoanSupervisor -->
<g id="node17" class="node">
<title>LoanSupervisor</title>
<g id="a_node17"><a xlink:href="/develop/Data/models.html#loan-supervisor" xlink:title="LoanSupervisor" target="_top">
<polygon fill="#eeefff" stroke="#dddeee" points="533.81,-467.72 431.56,-467.72 431.56,-431.72 533.81,-431.72 533.81,-467.72"/>
<text text-anchor="middle" x="482.68" y="-444.67" font-family="Times,serif" font-size="14.00">LoanSupervisor</text>
</a>
</g>
</g>
<!-- Role -->
<g id="node18" class="node">
<title>Role</title>
<g id="a_node18"><a xlink:href="/develop/Data/models.html#role" xlink:title="Role" target="_top">
<polygon fill="#eeefff" stroke="#dddeee" points="358.68,-413.72 304.68,-413.72 304.68,-377.72 358.68,-377.72 358.68,-413.72"/>
<text text-anchor="middle" x="331.68" y="-390.67" font-family="Times,serif" font-size="14.00">Role</text>
</a>
</g>
</g>
<!-- Person -->
<g id="node19" class="node">
<title>Person</title>
<g id="a_node19"><a xlink:href="/develop/Data/models.html#person" xlink:title="Person" target="_top">
<polygon fill="#eeefff" stroke="#dddeee" points="509.68,-413.72 455.68,-413.72 455.68,-377.72 509.68,-377.72 509.68,-413.72"/>
<text text-anchor="middle" x="482.68" y="-390.67" font-family="Times,serif" font-size="14.00">Person</text>
</a>
</g>
</g>
<!-- PinboardItem -->
<g id="node20" class="node">
<title>PinboardItem</title>
<g id="a_node20"><a xlink:href="/develop/Data/models.html#pinboard-item" xlink:title="PinboardItem" target="_top">
<polygon fill="#eeefff" stroke="#dddeee" points="527.81,-305.72 437.56,-305.72 437.56,-269.72 527.81,-269.72 527.81,-305.72"/>
<text text-anchor="middle" x="482.68" y="-282.67" font-family="Times,serif" font-size="14.00">PinboardItem</text>
</a>
</g>
</g>
<!-- Uri -->
<g id="node21" class="node">
<title>Uri</title>
<g id="a_node21"><a xlink:href="/develop/Data/models.html#uri" xlink:title="Uri" target="_top">
<polygon fill="#eeefff" stroke="#dddeee" points="358.68,-213.72 304.68,-213.72 304.68,-177.72 358.68,-177.72 358.68,-213.72"/>
<text text-anchor="middle" x="331.68" y="-190.67" font-family="Times,serif" font-size="14.00">Uri</text>
</a>
</g>
</g>
<!-- Uuid -->
<g id="node22" class="node">
<title>Uuid</title>
<g id="a_node22"><a xlink:href="/develop/Data/models.html#uuid" xlink:title="Uuid" target="_top">
<polygon fill="#eeefff" stroke="#dddeee" points="358.68,-159.72 304.68,-159.72 304.68,-123.72 358.68,-123.72 358.68,-159.72"/>
<text text-anchor="middle" x="331.68" y="-136.67" font-family="Times,serif" font-size="14.00">Uuid</text>
</a>
</g>
</g>
<!-- VerifierRole -->
<g id="node23" class="node">
<title>VerifierRole</title>
<g id="a_node23"><a xlink:href="/develop/Data/models.html#verifier-role" xlink:title="VerifierRole" target="_top">
<polygon fill="#eeefff" stroke="#dddeee" points="373.06,-359.72 290.31,-359.72 290.31,-323.72 373.06,-323.72 373.06,-359.72"/>
<text text-anchor="middle" x="331.68" y="-336.67" font-family="Times,serif" font-size="14.00">VerifierRole</text>
</a>
</g>
</g>
<!-- Verifier -->
<g id="node24" class="node">
<title>Verifier</title>
<g id="a_node24"><a xlink:href="/develop/Data/models.html#verifier" xlink:title="Verifier" target="_top">
<polygon fill="#eeefff" stroke="#dddeee" points="511.31,-359.72 454.06,-359.72 454.06,-323.72 511.31,-323.72 511.31,-359.72"/>
<text text-anchor="middle" x="482.68" y="-336.67" font-family="Times,serif" font-size="14.00">Verifier</text>
</a>
</g>
</g>
<!-- Version -->
<g id="node25" class="node">
<title>Version</title>
<g id="a_node25"><a xlink:href="/develop/Data/models.html#version" xlink:title="Version" target="_top">
<polygon fill="#eeefff" stroke="#dddeee" points="360.31,-305.72 303.06,-305.72 303.06,-269.72 360.31,-269.72 360.31,-305.72"/>
<text text-anchor="middle" x="331.68" y="-282.67" font-family="Times,serif" font-size="14.00">Version</text>
</a>
</g>
</g>
<!-- Creator -->
<g id="node26" class="node">
<title>Creator</title>
<g id="a_node26"><a xlink:href="/develop/Data/models.html#creator" xlink:title="Creator" target="_top">
<polygon fill="#eeefff" stroke="#dddeee" points="510.93,-67.72 454.43,-67.72 454.43,-31.72 510.93,-31.72 510.93,-67.72"/>
<text text-anchor="middle" x="482.68" y="-44.67" font-family="Times,serif" font-size="14.00">Creator</text>
</a>
</g>
</g>
<!-- Project -->
<g id="node27" class="node">
<title>Project</title>
<g id="a_node27"><a xlink:href="/develop/Data/models.html#project" xlink:title="Project" target="_top">
<polygon fill="#eeefff" stroke="#dddeee" points="358.81,-67.72 304.56,-67.72 304.56,-31.72 358.81,-31.72 358.81,-67.72"/>
<text text-anchor="middle" x="331.68" y="-44.67" font-family="Times,serif" font-size="14.00">Project</text>
</a>
</g>
</g>
<!-- Updater -->
<g id="node28" class="node">
<title>Updater</title>
<g id="a_node28"><a xlink:href="/develop/Data/models.html#updater" xlink:title="Updater" target="_top">
<polygon fill="#eeefff" stroke="#dddeee" points="629.31,-67.72 569.81,-67.72 569.81,-31.72 629.31,-31.72 629.31,-67.72"/>
<text text-anchor="middle" x="599.56" y="-44.67" font-family="Times,serif" font-size="14.00">Updater</text>
</a>
</g>
</g>
</g>
</svg>
