<?xml version="1.0" encoding="UTF-8" standalone="no"?>
<!DOCTYPE svg PUBLIC "-//W3C//DTD SVG 1.1//EN"
 "http://www.w3.org/Graphics/SVG/1.1/DTD/svg11.dtd">
<!-- Generated by graphviz version 2.50.0 (20211204.2007)
 -->
<!-- Title: LoanItem Pages: 1 -->
<svg width="720pt" height="390pt"
 viewBox="0.00 0.00 720.43 390.00" xmlns="http://www.w3.org/2000/svg" xmlns:xlink="http://www.w3.org/1999/xlink">
<g id="graph0" class="graph" transform="scale(1 1) rotate(0) translate(4 386)">
<title>LoanItem</title>
<polygon fill="white" stroke="transparent" points="-4,4 -4,-386 716.43,-386 716.43,4 -4,4"/>
<!-- Tag&#45;&gt;Keyword -->
<g id="edge2" class="edge">
<title>Tag&#45;&gt;Keyword</title>
<path fill="none" stroke="black" stroke-dasharray="1,5" d="M86.32,-129.82C107.86,-129.67 138.82,-129.46 163.92,-129.29"/>
<polygon fill="black" stroke="black" points="163.95,-132.79 173.93,-129.22 163.91,-125.79 163.95,-132.79"/>
</g>
<!-- LoanItem&#45;&gt;DataAttribute -->
<g id="edge1" class="edge">
<title>LoanItem&#45;&gt;DataAttribute</title>
<path fill="none" stroke="black" d="M165.88,-201.72C147.75,-208.28 126.27,-216.06 107.43,-222.88"/>
<polygon fill="black" stroke="black" points="106.05,-219.66 97.84,-226.35 108.44,-226.24 106.05,-219.66"/>
</g>
<!-- LoanItem&#45;&gt;Tag -->
<g id="edge6" class="edge">
<title>LoanItem&#45;&gt;Tag</title>
<path fill="none" stroke="black" d="M167.3,-171.73C143.94,-162.63 114.65,-151.22 92.59,-142.63"/>
<polygon fill="black" stroke="black" points="93.61,-139.27 83.02,-138.91 91.07,-145.8 93.61,-139.27"/>
</g>
<!-- LoanItem&#45;&gt;Note -->
<g id="edge3" class="edge">
<title>LoanItem&#45;&gt;Note</title>
<path fill="none" stroke="black" d="M154,-186.64C135.32,-186.51 114.68,-186.37 97.52,-186.26"/>
<polygon fill="black" stroke="black" points="97.36,-182.75 87.34,-186.19 97.31,-189.75 97.36,-182.75"/>
</g>
<!-- LoanItem&#45;&gt;PinboardItem -->
<g id="edge4" class="edge">
<title>LoanItem&#45;&gt;PinboardItem</title>
<path fill="none" stroke="black" d="M215.31,-209.15C226.63,-242.26 252.59,-304.27 296.78,-337 313.32,-349.25 334.64,-356.02 354.26,-359.73"/>
<polygon fill="black" stroke="black" points="353.89,-363.21 364.33,-361.4 355.04,-356.31 353.89,-363.21"/>
</g>
<!-- LoanItem&#45;&gt;Role -->
<g id="edge5" class="edge">
<title>LoanItem&#45;&gt;Role</title>
<path fill="none" stroke="black" d="M222.99,-209.21C238.56,-231.32 265.36,-264.52 296.78,-283 320.02,-296.67 349.82,-303.43 372.88,-306.76"/>
<polygon fill="black" stroke="black" points="372.59,-310.25 382.96,-308.07 373.49,-303.31 372.59,-310.25"/>
</g>
<!-- LoanItem&#45;&gt;VerifierRole -->
<g id="edge7" class="edge">
<title>LoanItem&#45;&gt;VerifierRole</title>
<path fill="none" stroke="black" d="M244.65,-203.29C260.48,-210.13 279.38,-217.9 296.78,-224 316.74,-231 339.08,-237.61 358.55,-242.98"/>
<polygon fill="black" stroke="black" points="357.88,-246.43 368.45,-245.68 359.72,-239.67 357.88,-246.43"/>
</g>
<!-- LoanItem&#45;&gt;Creator -->
<g id="edge9" class="edge">
<title>LoanItem&#45;&gt;Creator</title>
<path fill="none" stroke="black" stroke-dasharray="5,2" d="M264.46,-202.15C330.09,-216.79 440.48,-231.37 523.43,-191 550.1,-178.02 568.88,-147.81 578.79,-128.18"/>
<polygon fill="black" stroke="black" points="264.85,-198.65 254.32,-199.81 263.27,-205.47 264.85,-198.65"/>
</g>
<!-- LoanItem&#45;&gt;Loan -->
<g id="edge10" class="edge">
<title>LoanItem&#45;&gt;Loan</title>
<path fill="none" stroke="black" stroke-dasharray="5,2" d="M271.34,-179.8C308.98,-175.48 354.84,-170.22 383,-166.99"/>
<polygon fill="black" stroke="black" points="270.51,-176.37 260.97,-180.99 271.3,-183.32 270.51,-176.37"/>
</g>
<!-- LoanItem&#45;&gt;Project -->
<g id="edge12" class="edge">
<title>LoanItem&#45;&gt;Project</title>
<path fill="none" stroke="black" stroke-dasharray="5,2" d="M248.42,-163.73C269.26,-151.69 291.51,-139.08 296.78,-137 325.14,-125.81 359.42,-118.39 382.59,-114.21"/>
<polygon fill="black" stroke="black" points="246.53,-160.78 239.63,-168.82 250.04,-166.83 246.53,-160.78"/>
</g>
<!-- LoanItem&#45;&gt;Updater -->
<g id="edge13" class="edge">
<title>LoanItem&#45;&gt;Updater</title>
<path fill="none" stroke="black" stroke-dasharray="5,2" d="M251.67,-164.3C254.95,-161.73 258.04,-158.96 260.78,-156 285.35,-129.45 266.06,-102.1 296.78,-83 357.1,-45.49 546.77,-69.11 616.43,-83 628.53,-85.41 641.2,-90.13 652.11,-94.95"/>
<polygon fill="black" stroke="black" points="249.39,-161.63 243.25,-170.27 253.44,-167.34 249.39,-161.63"/>
</g>
<!-- LoanItem&#45;&gt;Objects with Loan items -->
<g id="edge11" class="edge">
<title>LoanItem&#45;&gt;Objects with Loan items</title>
<path fill="none" stroke="black" stroke-dasharray="5,2" d="M252.64,-164.23C255.62,-161.7 258.38,-158.96 260.78,-156 292.12,-117.35 260.73,-84.29 296.78,-50 306.62,-40.64 319.01,-33.98 331.93,-29.26"/>
<polygon fill="black" stroke="black" points="250.28,-161.62 244.37,-170.41 254.47,-167.23 250.28,-161.62"/>
</g>
<!-- Role&#45;&gt;Verifier -->
<!-- VerifierRole&#45;&gt;Verifier -->
<g id="edge8" class="edge">
<title>VerifierRole&#45;&gt;Verifier</title>
<path fill="none" stroke="black" stroke-dasharray="1,5" d="M451.88,-262.26C481.25,-266.77 520.57,-272.81 549.21,-277.21"/>
<polygon fill="black" stroke="black" points="548.82,-280.69 559.24,-278.75 549.88,-273.77 548.82,-280.69"/>
</g>
<!-- Creator&#45;&gt;Updater -->
<!-- Project&#45;&gt;Creator -->
<!-- DataAttribute -->
<g id="node1" class="node">
<title>DataAttribute</title>
<g id="a_node1"><a xlink:href="/develop/Data/models.html#data-attribute" xlink:title="DataAttribute" target="_top">
<ellipse fill="#abcdef" stroke="#dddeee" cx="59.14" cy="-240" rx="59.29" ry="18"/>
<text text-anchor="middle" x="59.14" y="-236.3" font-family="Times,serif" font-size="14.00">DataAttribute</text>
</a>
</g>
</g>
<!-- Tag -->
<g id="node2" class="node">
<title>Tag</title>
<g id="a_node2"><a xlink:href="/develop/Data/models.html#tag" xlink:title="Tag" target="_top">
<ellipse fill="#abcdef" stroke="#dddeee" cx="59.14" cy="-130" rx="27" ry="18"/>
<text text-anchor="middle" x="59.14" y="-126.3" font-family="Times,serif" font-size="14.00">Tag</text>
</a>
</g>
</g>
<!-- Note -->
<g id="node3" class="node">
<title>Note</title>
<g id="a_node3"><a xlink:href="/develop/Data/models.html#note" xlink:title="Note" target="_top">
<ellipse fill="#abcdef" stroke="#dddeee" cx="59.14" cy="-186" rx="27.9" ry="18"/>
<text text-anchor="middle" x="59.14" y="-182.3" font-family="Times,serif" font-size="14.00">Note</text>
</a>
</g>
</g>
<!-- LoanItem -->
<g id="node4" class="node">
<title>LoanItem</title>
<g id="a_node4"><a xlink:href="/develop/Data/models.html#loan-item" xlink:title="LoanItem" target="_top">
<polygon fill="#cdefab" stroke="#dedede" points="257.01,-179.54 257.01,-194.46 228.03,-205 187.04,-205 158.06,-194.46 158.06,-179.54 187.04,-169 228.03,-169 257.01,-179.54"/>
<polygon fill="none" stroke="#dedede" points="261.02,-176.75 261.02,-197.25 228.74,-209 186.33,-209 154.04,-197.25 154.04,-176.75 186.33,-165 228.74,-165 261.02,-176.75"/>
<text text-anchor="middle" x="207.53" y="-183.3" font-family="Times,serif" font-size="14.00">LoanItem</text>
</a>
</g>
</g>
<!-- Keyword -->
<g id="node5" class="node">
<title>Keyword</title>
<g id="a_node5"><a xlink:href="/develop/Data/models.html#keyword" xlink:title="Keyword" target="_top">
<polygon fill="#eeefff" stroke="#dddeee" points="241.03,-147 174.03,-147 174.03,-111 241.03,-111 241.03,-147"/>
<text text-anchor="middle" x="207.53" y="-125.3" font-family="Times,serif" font-size="14.00">Keyword</text>
</a>
</g>
</g>
<!-- PinboardItem -->
<g id="node6" class="node">
<title>PinboardItem</title>
<g id="a_node6"><a xlink:href="/develop/Data/models.html#pinboard-item" xlink:title="PinboardItem" target="_top">
<polygon fill="#eeefff" stroke="#dddeee" points="455.6,-382 364.6,-382 364.6,-346 455.6,-346 455.6,-382"/>
<text text-anchor="middle" x="410.1" y="-360.3" font-family="Times,serif" font-size="14.00">PinboardItem</text>
</a>
</g>
</g>
<!-- Role -->
<g id="node7" class="node">
<title>Role</title>
<g id="a_node7"><a xlink:href="/develop/Data/models.html#role" xlink:title="Role" target="_top">
<polygon fill="#eeefff" stroke="#dddeee" points="437.1,-328 383.1,-328 383.1,-292 437.1,-292 437.1,-328"/>
<text text-anchor="middle" x="410.1" y="-306.3" font-family="Times,serif" font-size="14.00">Role</text>
</a>
</g>
</g>
<!-- VerifierRole -->
<g id="node8" class="node">
<title>VerifierRole</title>
<g id="a_node8"><a xlink:href="/develop/Data/models.html#verifier-role" xlink:title="VerifierRole" target="_top">
<polygon fill="#eeefff" stroke="#dddeee" points="451.6,-274 368.6,-274 368.6,-238 451.6,-238 451.6,-274"/>
<text text-anchor="middle" x="410.1" y="-252.3" font-family="Times,serif" font-size="14.00">VerifierRole</text>
</a>
</g>
</g>
<!-- Verifier -->
<g id="node9" class="node">
<title>Verifier</title>
<g id="a_node9"><a xlink:href="/develop/Data/models.html#verifier" xlink:title="Verifier" target="_top">
<polygon fill="#eeefff" stroke="#dddeee" points="616.43,-301 559.43,-301 559.43,-265 616.43,-265 616.43,-301"/>
<text text-anchor="middle" x="587.93" y="-279.3" font-family="Times,serif" font-size="14.00">Verifier</text>
</a>
</g>
</g>
<!-- Creator -->
<g id="node10" class="node">
<title>Creator</title>
<g id="a_node10"><a xlink:href="/develop/Data/models.html#creator" xlink:title="Creator" target="_top">
<polygon fill="#eeefff" stroke="#dddeee" points="616.43,-128 559.43,-128 559.43,-92 616.43,-92 616.43,-128"/>
<text text-anchor="middle" x="587.93" y="-106.3" font-family="Times,serif" font-size="14.00">Creator</text>
</a>
</g>
</g>
<!-- Loan -->
<g id="node11" class="node">
<title>Loan</title>
<g id="a_node11"><a xlink:href="/develop/Data/models.html#loan" xlink:title="Loan" target="_top">
<polygon fill="#eeefff" stroke="#dddeee" points="437.1,-182 383.1,-182 383.1,-146 437.1,-146 437.1,-182"/>
<text text-anchor="middle" x="410.1" y="-160.3" font-family="Times,serif" font-size="14.00">Loan</text>
</a>
</g>
</g>
<!-- Project -->
<g id="node12" class="node">
<title>Project</title>
<g id="a_node12"><a xlink:href="/develop/Data/models.html#project" xlink:title="Project" target="_top">
<polygon fill="#eeefff" stroke="#dddeee" points="437.6,-128 382.6,-128 382.6,-92 437.6,-92 437.6,-128"/>
<text text-anchor="middle" x="410.1" y="-106.3" font-family="Times,serif" font-size="14.00">Project</text>
</a>
</g>
</g>
<!-- Updater -->
<g id="node13" class="node">
<title>Updater</title>
<g id="a_node13"><a xlink:href="/develop/Data/models.html#updater" xlink:title="Updater" target="_top">
<polygon fill="#eeefff" stroke="#dddeee" points="712.43,-128 652.43,-128 652.43,-92 712.43,-92 712.43,-128"/>
<text text-anchor="middle" x="682.43" y="-106.3" font-family="Times,serif" font-size="14.00">Updater</text>
</a>
</g>
</g>
<!-- Objects with Loan items -->
<g id="node14" class="node">
<title>Objects with Loan items</title>
<g id="a_node14"><a xlink:href="/develop/Data/models.html#objects with loan item" xlink:title="Objects with Loan items" target="_top">
<polygon fill="#cdabef" stroke="#dedede" points="523.25,-18 466.68,-36 353.53,-36 296.95,-18 353.53,0 466.68,0 523.25,-18"/>
<text text-anchor="middle" x="410.1" y="-14.3" font-family="Times,serif" font-size="14.00">Objects with Loan items</text>
</a>
</g>
</g>
</g>
</svg>
