<?xml version="1.0" encoding="UTF-8" standalone="no"?>
<!DOCTYPE svg PUBLIC "-//W3C//DTD SVG 1.1//EN"
 "http://www.w3.org/Graphics/SVG/1.1/DTD/svg11.dtd">
<!-- Generated by graphviz version 2.50.0 (20211204.2007)
 -->
<!-- Title: Loan Pages: 1 -->
<svg width="631pt" height="529pt"
 viewBox="0.00 0.00 631.20 528.67" xmlns="http://www.w3.org/2000/svg" xmlns:xlink="http://www.w3.org/1999/xlink">
<g id="graph0" class="graph" transform="scale(1 1) rotate(0) translate(4 524.67)">
<title>Loan</title>
<polygon fill="white" stroke="transparent" points="-4,4 -4,-524.67 627.2,-524.67 627.2,4 -4,4"/>
<!-- Depiction&#45;&gt;Image -->
<g id="edge6" class="edge">
<title>Depiction&#45;&gt;Image</title>
<path fill="none" stroke="black" stroke-dasharray="1,5" d="M104.95,-174.67C120.27,-174.67 137.22,-174.67 151.81,-174.67"/>
<polygon fill="black" stroke="black" points="151.95,-178.17 161.95,-174.67 151.95,-171.17 151.95,-178.17"/>
</g>
<!-- Tag&#45;&gt;Keyword -->
<g id="edge7" class="edge">
<title>Tag&#45;&gt;Keyword</title>
<path fill="none" stroke="black" stroke-dasharray="1,5" d="M86.38,-120.67C103.38,-120.67 125.92,-120.67 145.47,-120.67"/>
<polygon fill="black" stroke="black" points="145.67,-124.17 155.67,-120.67 145.67,-117.17 145.67,-124.17"/>
</g>
<!-- Loan&#45;&gt;DataAttribute -->
<g id="edge1" class="edge">
<title>Loan&#45;&gt;DataAttribute</title>
<path fill="none" stroke="black" d="M173.16,-253.42C160.11,-270.26 139.97,-293.72 118.29,-309.67 114.35,-312.56 110.05,-315.26 105.63,-317.74"/>
<polygon fill="black" stroke="black" points="103.71,-314.8 96.46,-322.53 106.95,-321 103.71,-314.8"/>
</g>
<!-- Loan&#45;&gt;Depiction -->
<g id="edge2" class="edge">
<title>Loan&#45;&gt;Depiction</title>
<path fill="none" stroke="black" d="M159.58,-219.69C141.74,-211.61 118.57,-201.12 99.09,-192.3"/>
<polygon fill="black" stroke="black" points="100.41,-189.05 89.86,-188.12 97.52,-195.43 100.41,-189.05"/>
</g>
<!-- Loan&#45;&gt;Identifier -->
<g id="edge5" class="edge">
<title>Loan&#45;&gt;Identifier</title>
<path fill="none" stroke="black" d="M157.52,-244.66C140.42,-251.33 118.92,-259.72 100.48,-266.92"/>
<polygon fill="black" stroke="black" points="99.2,-263.67 91.15,-270.56 101.74,-270.19 99.2,-263.67"/>
</g>
<!-- Loan&#45;&gt;Tag -->
<g id="edge17" class="edge">
<title>Loan&#45;&gt;Tag</title>
<path fill="none" stroke="black" d="M167.35,-215.07C162.84,-210.87 158.24,-206.27 154.29,-201.67 135.5,-179.78 140.19,-166.44 118.29,-147.67 110.97,-141.39 101.94,-136.27 93.2,-132.24"/>
<polygon fill="black" stroke="black" points="94.5,-128.99 83.93,-128.29 91.76,-135.43 94.5,-128.99"/>
</g>
<!-- Loan&#45;&gt;Note -->
<g id="edge13" class="edge">
<title>Loan&#45;&gt;Note</title>
<path fill="none" stroke="black" d="M154.26,-231.6C136.76,-231.06 115.39,-230.39 97.43,-229.83"/>
<polygon fill="black" stroke="black" points="97.42,-226.33 87.31,-229.51 97.2,-233.32 97.42,-226.33"/>
</g>
<!-- Loan&#45;&gt;Documentation -->
<g id="edge3" class="edge">
<title>Loan&#45;&gt;Documentation</title>
<path fill="none" stroke="black" d="M190.54,-254.75C192.34,-301.32 202.82,-410.66 260.2,-475.67 261.73,-477.41 263.4,-479.04 265.17,-480.57"/>
<polygon fill="black" stroke="black" points="263.35,-483.57 273.5,-486.64 267.48,-477.92 263.35,-483.57"/>
</g>
<!-- Loan&#45;&gt;LoanItem -->
<g id="edge8" class="edge">
<title>Loan&#45;&gt;LoanItem</title>
<path fill="none" stroke="black" d="M192.75,-254.88C198.22,-293.57 214.63,-373.74 260.2,-421.67 265.67,-427.43 272.58,-432.02 279.8,-435.66"/>
<polygon fill="black" stroke="black" points="278.47,-438.9 289.03,-439.78 281.32,-432.51 278.47,-438.9"/>
</g>
<!-- Loan&#45;&gt;LoanRecipientRole -->
<g id="edge9" class="edge">
<title>Loan&#45;&gt;LoanRecipientRole</title>
<path fill="none" stroke="black" d="M196.5,-254.71C205.86,-284.09 226.17,-336.04 260.2,-367.67 261.31,-368.7 262.48,-369.71 263.68,-370.67"/>
<polygon fill="black" stroke="black" points="261.89,-373.69 272.09,-376.55 265.9,-367.95 261.89,-373.69"/>
</g>
<!-- Loan&#45;&gt;LoanSupervisorRole -->
<g id="edge11" class="edge">
<title>Loan&#45;&gt;LoanSupervisorRole</title>
<path fill="none" stroke="black" d="M204.47,-254.01C217.28,-271.89 237.55,-297.1 260.2,-313.67 262.03,-315.01 263.94,-316.3 265.91,-317.54"/>
<polygon fill="black" stroke="black" points="264.4,-320.71 274.81,-322.67 267.89,-314.64 264.4,-320.71"/>
</g>
<!-- Loan&#45;&gt;Role -->
<g id="edge16" class="edge">
<title>Loan&#45;&gt;Role</title>
<path fill="none" stroke="black" d="M220.41,-244.92C240.39,-253.03 266.67,-263.71 287.66,-272.23"/>
<polygon fill="black" stroke="black" points="286.6,-275.58 297.18,-276.1 289.24,-269.1 286.6,-275.58"/>
</g>
<!-- Loan&#45;&gt;PinboardItem -->
<g id="edge15" class="edge">
<title>Loan&#45;&gt;PinboardItem</title>
<path fill="none" stroke="black" d="M211.01,-214.96C215.53,-210.77 220.16,-206.2 224.2,-201.67 242.41,-181.21 235.83,-164.15 260.2,-151.67 312.02,-125.12 379.79,-140.66 425.16,-157.03"/>
<polygon fill="black" stroke="black" points="424.18,-160.4 434.77,-160.63 426.63,-153.84 424.18,-160.4"/>
</g>
<!-- Loan&#45;&gt;VerifierRole -->
<g id="edge18" class="edge">
<title>Loan&#45;&gt;VerifierRole</title>
<path fill="none" stroke="black" d="M224.48,-232.67C239,-232.67 256.22,-232.67 272.18,-232.67"/>
<polygon fill="black" stroke="black" points="272.45,-236.17 282.45,-232.67 272.45,-229.17 272.45,-236.17"/>
</g>
<!-- Loan&#45;&gt;Version -->
<g id="edge20" class="edge">
<title>Loan&#45;&gt;Version</title>
<path fill="none" stroke="black" d="M220.41,-220.41C239.73,-212.57 264.94,-202.33 285.56,-193.95"/>
<polygon fill="black" stroke="black" points="287.02,-197.14 294.97,-190.13 284.38,-190.65 287.02,-197.14"/>
</g>
<!-- Loan&#45;&gt;Creator -->
<g id="edge21" class="edge">
<title>Loan&#45;&gt;Creator</title>
<path fill="none" stroke="black" stroke-dasharray="5,2" d="M219.66,-208.35C221.35,-206.21 222.89,-203.98 224.2,-201.67 264.32,-130.63 197.1,-73.39 260.2,-21.67 314.04,22.48 402.48,-11.53 447.1,-33.61"/>
<polygon fill="black" stroke="black" points="216.75,-206.34 212.57,-216.07 221.91,-211.07 216.75,-206.34"/>
</g>
<!-- Loan&#45;&gt;Project -->
<g id="edge22" class="edge">
<title>Loan&#45;&gt;Project</title>
<path fill="none" stroke="black" stroke-dasharray="5,2" d="M219.43,-208.21C221.17,-206.1 222.79,-203.91 224.2,-201.67 254,-154.13 224.27,-123.76 260.2,-80.67 269.55,-69.45 283.82,-61.75 296.41,-56.72"/>
<polygon fill="black" stroke="black" points="216.52,-206.18 212.22,-215.86 221.62,-210.98 216.52,-206.18"/>
</g>
<!-- Loan&#45;&gt;Updater -->
<g id="edge23" class="edge">
<title>Loan&#45;&gt;Updater</title>
<path fill="none" stroke="black" stroke-dasharray="5,2" d="M218.95,-207.88C220.81,-205.85 222.58,-203.77 224.2,-201.67 245.29,-174.25 232.66,-153.6 260.2,-132.67 356.79,-59.22 411.35,-111.76 527.2,-75.67 539.21,-71.92 552.08,-66.82 563.17,-62.06"/>
<polygon fill="black" stroke="black" points="216.07,-205.81 211.51,-215.37 221.04,-210.74 216.07,-205.81"/>
</g>
<!-- Documentation&#45;&gt;Document -->
<g id="edge4" class="edge">
<title>Documentation&#45;&gt;Document</title>
<path fill="none" stroke="black" stroke-dasharray="1,5" d="M374.98,-502.67C392.14,-502.67 411.29,-502.67 428.18,-502.67"/>
<polygon fill="black" stroke="black" points="428.37,-506.17 438.37,-502.67 428.37,-499.17 428.37,-506.17"/>
</g>
<!-- LoanRecipientRole&#45;&gt;LoanRecipient -->
<g id="edge10" class="edge">
<title>LoanRecipientRole&#45;&gt;LoanRecipient</title>
<path fill="none" stroke="black" stroke-dasharray="1,5" d="M385.57,-394.67C396.03,-394.67 406.87,-394.67 417.24,-394.67"/>
<polygon fill="black" stroke="black" points="417.43,-398.17 427.43,-394.67 417.43,-391.17 417.43,-398.17"/>
</g>
<!-- LoanSupervisorRole&#45;&gt;LoanSupervisor -->
<g id="edge12" class="edge">
<title>LoanSupervisorRole&#45;&gt;LoanSupervisor</title>
<path fill="none" stroke="black" stroke-dasharray="1,5" d="M388.6,-340.67C396.97,-340.67 405.54,-340.67 413.87,-340.67"/>
<polygon fill="black" stroke="black" points="413.88,-344.17 423.88,-340.67 413.88,-337.17 413.88,-344.17"/>
</g>
<!-- Role&#45;&gt;Person -->
<g id="edge14" class="edge">
<title>Role&#45;&gt;Person</title>
<path fill="none" stroke="black" stroke-dasharray="1,5" d="M351.24,-286.67C375.31,-286.67 411.33,-286.67 438.26,-286.67"/>
<polygon fill="black" stroke="black" points="438.45,-290.17 448.45,-286.67 438.45,-283.17 438.45,-290.17"/>
</g>
<!-- Role&#45;&gt;Verifier -->
<!-- VerifierRole&#45;&gt;Verifier -->
<g id="edge19" class="edge">
<title>VerifierRole&#45;&gt;Verifier</title>
<path fill="none" stroke="black" stroke-dasharray="1,5" d="M366.05,-232.67C388.19,-232.67 415.36,-232.67 437,-232.67"/>
<polygon fill="black" stroke="black" points="437.12,-236.17 447.12,-232.67 437.12,-229.17 437.12,-236.17"/>
</g>
<!-- Version&#45;&gt;PinboardItem -->
<!-- Creator&#45;&gt;Updater -->
<!-- Project&#45;&gt;Creator -->
<!-- DataAttribute -->
<g id="node1" class="node">
<title>DataAttribute</title>
<g id="a_node1"><a xlink:href="/develop/Data/models.html#data-attribute" xlink:title="DataAttribute" target="_top">
<ellipse fill="#abcdef" stroke="#dddeee" cx="59.14" cy="-336.67" rx="59.29" ry="18"/>
<text text-anchor="middle" x="59.14" y="-332.97" font-family="Times,serif" font-size="14.00">DataAttribute</text>
</a>
</g>
</g>
<!-- Depiction -->
<g id="node2" class="node">
<title>Depiction</title>
<g id="a_node2"><a xlink:href="/develop/Data/models.html#depiction" xlink:title="Depiction" target="_top">
<ellipse fill="#abcdef" stroke="#dddeee" cx="59.14" cy="-174.67" rx="45.49" ry="18"/>
<text text-anchor="middle" x="59.14" y="-170.97" font-family="Times,serif" font-size="14.00">Depiction</text>
</a>
</g>
</g>
<!-- Identifier -->
<g id="node3" class="node">
<title>Identifier</title>
<g id="a_node3"><a xlink:href="/develop/Data/models.html#identifier" xlink:title="Identifier" target="_top">
<ellipse fill="#abcdef" stroke="#dddeee" cx="59.14" cy="-282.67" rx="42.79" ry="18"/>
<text text-anchor="middle" x="59.14" y="-278.97" font-family="Times,serif" font-size="14.00">Identifier</text>
</a>
</g>
</g>
<!-- Tag -->
<g id="node4" class="node">
<title>Tag</title>
<g id="a_node4"><a xlink:href="/develop/Data/models.html#tag" xlink:title="Tag" target="_top">
<ellipse fill="#abcdef" stroke="#dddeee" cx="59.14" cy="-120.67" rx="27" ry="18"/>
<text text-anchor="middle" x="59.14" y="-116.97" font-family="Times,serif" font-size="14.00">Tag</text>
</a>
</g>
</g>
<!-- Note -->
<g id="node5" class="node">
<title>Note</title>
<g id="a_node5"><a xlink:href="/develop/Data/models.html#note" xlink:title="Note" target="_top">
<ellipse fill="#abcdef" stroke="#dddeee" cx="59.14" cy="-228.67" rx="27.9" ry="18"/>
<text text-anchor="middle" x="59.14" y="-224.97" font-family="Times,serif" font-size="14.00">Note</text>
</a>
</g>
</g>
<!-- Loan -->
<g id="node6" class="node">
<title>Loan</title>
<g id="a_node6"><a xlink:href="/develop/Data/models.html#loan" xlink:title="Loan" target="_top">
<polygon fill="#cdefab" stroke="#dedede" points="220.16,-225.21 220.16,-240.12 202.05,-250.67 176.44,-250.67 158.33,-240.12 158.33,-225.21 176.44,-214.67 202.05,-214.67 220.16,-225.21"/>
<polygon fill="none" stroke="#dedede" points="224.15,-222.91 224.15,-242.42 203.12,-254.67 175.36,-254.67 154.34,-242.42 154.34,-222.91 175.36,-210.67 203.12,-210.67 224.15,-222.91"/>
<text text-anchor="middle" x="189.24" y="-228.97" font-family="Times,serif" font-size="14.00">Loan</text>
</a>
</g>
</g>
<!-- Documentation -->
<g id="node7" class="node">
<title>Documentation</title>
<g id="a_node7"><a xlink:href="/develop/Data/models.html#documentation" xlink:title="Documentation" target="_top">
<polygon fill="#eeefff" stroke="#dddeee" points="374.7,-520.67 273.7,-520.67 273.7,-484.67 374.7,-484.67 374.7,-520.67"/>
<text text-anchor="middle" x="324.2" y="-498.97" font-family="Times,serif" font-size="14.00">Documentation</text>
</a>
</g>
</g>
<!-- Document -->
<g id="node8" class="node">
<title>Document</title>
<g id="a_node8"><a xlink:href="/develop/Data/models.html#document" xlink:title="Document" target="_top">
<polygon fill="#eeefff" stroke="#dddeee" points="512.7,-520.67 438.7,-520.67 438.7,-484.67 512.7,-484.67 512.7,-520.67"/>
<text text-anchor="middle" x="475.7" y="-498.97" font-family="Times,serif" font-size="14.00">Document</text>
</a>
</g>
</g>
<!-- Image -->
<g id="node9" class="node">
<title>Image</title>
<g id="a_node9"><a xlink:href="/develop/Data/models.html#image" xlink:title="Image" target="_top">
<polygon fill="#eeefff" stroke="#dddeee" points="216.24,-192.67 162.24,-192.67 162.24,-156.67 216.24,-156.67 216.24,-192.67"/>
<text text-anchor="middle" x="189.24" y="-170.97" font-family="Times,serif" font-size="14.00">Image</text>
</a>
</g>
</g>
<!-- Keyword -->
<g id="node10" class="node">
<title>Keyword</title>
<g id="a_node10"><a xlink:href="/develop/Data/models.html#keyword" xlink:title="Keyword" target="_top">
<polygon fill="#eeefff" stroke="#dddeee" points="222.74,-138.67 155.74,-138.67 155.74,-102.67 222.74,-102.67 222.74,-138.67"/>
<text text-anchor="middle" x="189.24" y="-116.97" font-family="Times,serif" font-size="14.00">Keyword</text>
</a>
</g>
</g>
<!-- LoanItem -->
<g id="node11" class="node">
<title>LoanItem</title>
<g id="a_node11"><a xlink:href="/develop/Data/models.html#loan-item" xlink:title="LoanItem" target="_top">
<polygon fill="#eeefff" stroke="#dddeee" points="359.2,-466.67 289.2,-466.67 289.2,-430.67 359.2,-430.67 359.2,-466.67"/>
<text text-anchor="middle" x="324.2" y="-444.97" font-family="Times,serif" font-size="14.00">LoanItem</text>
</a>
</g>
</g>
<!-- LoanRecipientRole -->
<g id="node12" class="node">
<title>LoanRecipientRole</title>
<g id="a_node12"><a xlink:href="/develop/Data/models.html#loan-recipient-role" xlink:title="LoanRecipientRole" target="_top">
<polygon fill="#eeefff" stroke="#dddeee" points="385.2,-412.67 263.2,-412.67 263.2,-376.67 385.2,-376.67 385.2,-412.67"/>
<text text-anchor="middle" x="324.2" y="-390.97" font-family="Times,serif" font-size="14.00">LoanRecipientRole</text>
</a>
</g>
</g>
<!-- LoanRecipient -->
<g id="node13" class="node">
<title>LoanRecipient</title>
<g id="a_node13"><a xlink:href="/develop/Data/models.html#loan-recipient" xlink:title="LoanRecipient" target="_top">
<polygon fill="#eeefff" stroke="#dddeee" points="523.7,-412.67 427.7,-412.67 427.7,-376.67 523.7,-376.67 523.7,-412.67"/>
<text text-anchor="middle" x="475.7" y="-390.97" font-family="Times,serif" font-size="14.00">LoanRecipient</text>
</a>
</g>
</g>
<!-- LoanSupervisorRole -->
<g id="node14" class="node">
<title>LoanSupervisorRole</title>
<g id="a_node14"><a xlink:href="/develop/Data/models.html#loan-supervisor-role" xlink:title="LoanSupervisorRole" target="_top">
<polygon fill="#eeefff" stroke="#dddeee" points="388.2,-358.67 260.2,-358.67 260.2,-322.67 388.2,-322.67 388.2,-358.67"/>
<text text-anchor="middle" x="324.2" y="-336.97" font-family="Times,serif" font-size="14.00">LoanSupervisorRole</text>
</a>
</g>
</g>
<!-- LoanSupervisor -->
<g id="node15" class="node">
<title>LoanSupervisor</title>
<g id="a_node15"><a xlink:href="/develop/Data/models.html#loan-supervisor" xlink:title="LoanSupervisor" target="_top">
<polygon fill="#eeefff" stroke="#dddeee" points="527.2,-358.67 424.2,-358.67 424.2,-322.67 527.2,-322.67 527.2,-358.67"/>
<text text-anchor="middle" x="475.7" y="-336.97" font-family="Times,serif" font-size="14.00">LoanSupervisor</text>
</a>
</g>
</g>
<!-- Role -->
<g id="node16" class="node">
<title>Role</title>
<g id="a_node16"><a xlink:href="/develop/Data/models.html#role" xlink:title="Role" target="_top">
<polygon fill="#eeefff" stroke="#dddeee" points="351.2,-304.67 297.2,-304.67 297.2,-268.67 351.2,-268.67 351.2,-304.67"/>
<text text-anchor="middle" x="324.2" y="-282.97" font-family="Times,serif" font-size="14.00">Role</text>
</a>
</g>
</g>
<!-- Person -->
<g id="node17" class="node">
<title>Person</title>
<g id="a_node17"><a xlink:href="/develop/Data/models.html#person" xlink:title="Person" target="_top">
<polygon fill="#eeefff" stroke="#dddeee" points="502.7,-304.67 448.7,-304.67 448.7,-268.67 502.7,-268.67 502.7,-304.67"/>
<text text-anchor="middle" x="475.7" y="-282.97" font-family="Times,serif" font-size="14.00">Person</text>
</a>
</g>
</g>
<!-- PinboardItem -->
<g id="node18" class="node">
<title>PinboardItem</title>
<g id="a_node18"><a xlink:href="/develop/Data/models.html#pinboard-item" xlink:title="PinboardItem" target="_top">
<polygon fill="#eeefff" stroke="#dddeee" points="521.2,-196.67 430.2,-196.67 430.2,-160.67 521.2,-160.67 521.2,-196.67"/>
<text text-anchor="middle" x="475.7" y="-174.97" font-family="Times,serif" font-size="14.00">PinboardItem</text>
</a>
</g>
</g>
<!-- VerifierRole -->
<g id="node19" class="node">
<title>VerifierRole</title>
<g id="a_node19"><a xlink:href="/develop/Data/models.html#verifier-role" xlink:title="VerifierRole" target="_top">
<polygon fill="#eeefff" stroke="#dddeee" points="365.7,-250.67 282.7,-250.67 282.7,-214.67 365.7,-214.67 365.7,-250.67"/>
<text text-anchor="middle" x="324.2" y="-228.97" font-family="Times,serif" font-size="14.00">VerifierRole</text>
</a>
</g>
</g>
<!-- Verifier -->
<g id="node20" class="node">
<title>Verifier</title>
<g id="a_node20"><a xlink:href="/develop/Data/models.html#verifier" xlink:title="Verifier" target="_top">
<polygon fill="#eeefff" stroke="#dddeee" points="504.2,-250.67 447.2,-250.67 447.2,-214.67 504.2,-214.67 504.2,-250.67"/>
<text text-anchor="middle" x="475.7" y="-228.97" font-family="Times,serif" font-size="14.00">Verifier</text>
</a>
</g>
</g>
<!-- Version -->
<g id="node21" class="node">
<title>Version</title>
<g id="a_node21"><a xlink:href="/develop/Data/models.html#version" xlink:title="Version" target="_top">
<polygon fill="#eeefff" stroke="#dddeee" points="353.2,-196.67 295.2,-196.67 295.2,-160.67 353.2,-160.67 353.2,-196.67"/>
<text text-anchor="middle" x="324.2" y="-174.97" font-family="Times,serif" font-size="14.00">Version</text>
</a>
</g>
</g>
<!-- Creator -->
<g id="node22" class="node">
<title>Creator</title>
<g id="a_node22"><a xlink:href="/develop/Data/models.html#creator" xlink:title="Creator" target="_top">
<polygon fill="#eeefff" stroke="#dddeee" points="504.2,-66.67 447.2,-66.67 447.2,-30.67 504.2,-30.67 504.2,-66.67"/>
<text text-anchor="middle" x="475.7" y="-44.97" font-family="Times,serif" font-size="14.00">Creator</text>
</a>
</g>
</g>
<!-- Project -->
<g id="node23" class="node">
<title>Project</title>
<g id="a_node23"><a xlink:href="/develop/Data/models.html#project" xlink:title="Project" target="_top">
<polygon fill="#eeefff" stroke="#dddeee" points="351.7,-66.67 296.7,-66.67 296.7,-30.67 351.7,-30.67 351.7,-66.67"/>
<text text-anchor="middle" x="324.2" y="-44.97" font-family="Times,serif" font-size="14.00">Project</text>
</a>
</g>
</g>
<!-- Updater -->
<g id="node24" class="node">
<title>Updater</title>
<g id="a_node24"><a xlink:href="/develop/Data/models.html#updater" xlink:title="Updater" target="_top">
<polygon fill="#eeefff" stroke="#dddeee" points="623.2,-66.67 563.2,-66.67 563.2,-30.67 623.2,-30.67 623.2,-66.67"/>
<text text-anchor="middle" x="593.2" y="-44.97" font-family="Times,serif" font-size="14.00">Updater</text>
</a>
</g>
</g>
</g>
</svg>
