<?xml version="1.0" encoding="UTF-8" standalone="no"?>
<!DOCTYPE svg PUBLIC "-//W3C//DTD SVG 1.1//EN"
 "http://www.w3.org/Graphics/SVG/1.1/DTD/svg11.dtd">
<!-- Generated by graphviz version 12.2.1 (20241206.2353)
 -->
<!-- Title: LoanItem Pages: 1 -->
<svg width="739pt" height="498pt"
 viewBox="0.00 0.00 739.01 498.00" xmlns="http://www.w3.org/2000/svg" xmlns:xlink="http://www.w3.org/1999/xlink">
<g id="graph0" class="graph" transform="scale(1 1) rotate(0) translate(4 494)">
<title>LoanItem</title>
<polygon fill="white" stroke="none" points="-4,4 -4,-494 735.01,-494 735.01,4 -4,4"/>
<!-- Tag&#45;&gt;Keyword -->
<g id="edge4" class="edge">
<title>Tag&#45;&gt;Keyword</title>
<path fill="none" stroke="black" stroke-dasharray="1,5" d="M88.84,-175.83C111.01,-175.68 143.21,-175.47 169.31,-175.29"/>
<polygon fill="black" stroke="black" points="169.32,-178.79 179.3,-175.23 169.27,-171.79 169.32,-178.79"/>
</g>
<!-- LoanItem&#45;&gt;DataAttribute -->
<g id="edge1" class="edge">
<title>LoanItem&#45;&gt;DataAttribute</title>
<path fill="none" stroke="black" d="M171.08,-247.85C153.04,-254.2 131.83,-261.65 112.98,-268.28"/>
<polygon fill="black" stroke="black" points="111.89,-264.95 103.62,-271.57 114.21,-271.56 111.89,-264.95"/>
</g>
<!-- LoanItem&#45;&gt;Tag -->
<g id="edge8" class="edge">
<title>LoanItem&#45;&gt;Tag</title>
<path fill="none" stroke="black" d="M172.57,-217.59C148.66,-208.55 118.8,-197.26 96.23,-188.72"/>
<polygon fill="black" stroke="black" points="97.49,-185.46 86.9,-185.19 95.01,-192 97.49,-185.46"/>
</g>
<!-- LoanItem&#45;&gt;Note -->
<g id="edge5" class="edge">
<title>LoanItem&#45;&gt;Note</title>
<path fill="none" stroke="black" d="M158.92,-232.64C140.11,-232.51 119.4,-232.38 102.02,-232.26"/>
<polygon fill="black" stroke="black" points="102.12,-228.76 92.1,-232.2 102.08,-235.76 102.12,-228.76"/>
</g>
<!-- LoanItem&#45;&gt;ImportAttribute -->
<g id="edge2" class="edge">
<title>LoanItem&#45;&gt;ImportAttribute</title>
<path fill="none" stroke="black" d="M218.11,-255.18C224.79,-298.62 245.85,-395.04 305.48,-445 320.95,-457.97 341.45,-464.99 360.99,-468.72"/>
<polygon fill="black" stroke="black" points="360.41,-472.17 370.84,-470.31 361.52,-465.26 360.41,-472.17"/>
</g>
<!-- LoanItem&#45;&gt;InternalAttribute -->
<g id="edge3" class="edge">
<title>LoanItem&#45;&gt;InternalAttribute</title>
<path fill="none" stroke="black" d="M221.64,-255.24C232.67,-289.88 258.84,-356.34 305.48,-391 320.91,-402.47 340.4,-409.18 359.04,-413.08"/>
<polygon fill="black" stroke="black" points="358.23,-416.49 368.7,-414.84 359.48,-409.6 358.23,-416.49"/>
</g>
<!-- LoanItem&#45;&gt;PinboardItem -->
<g id="edge6" class="edge">
<title>LoanItem&#45;&gt;PinboardItem</title>
<path fill="none" stroke="black" d="M228.59,-255.38C244,-279.35 271.69,-316.68 305.48,-337 324,-348.14 346.7,-354.68 367.19,-358.53"/>
<polygon fill="black" stroke="black" points="366.37,-361.94 376.81,-360.15 367.53,-355.04 366.37,-361.94"/>
</g>
<!-- LoanItem&#45;&gt;Role -->
<g id="edge7" class="edge">
<title>LoanItem&#45;&gt;Role</title>
<path fill="none" stroke="black" d="M245.17,-252.34C262.25,-262.69 284.42,-274.92 305.48,-283 331.37,-292.93 361.93,-299.82 385.38,-304.15"/>
<polygon fill="black" stroke="black" points="384.66,-307.57 395.11,-305.87 385.87,-300.68 384.66,-307.57"/>
</g>
<!-- LoanItem&#45;&gt;VerifierRole -->
<g id="edge9" class="edge">
<title>LoanItem&#45;&gt;VerifierRole</title>
<path fill="none" stroke="black" d="M269.86,-239.04C301.06,-242.5 340,-246.82 370.78,-250.23"/>
<polygon fill="black" stroke="black" points="370.32,-253.7 380.64,-251.32 371.09,-246.74 370.32,-253.7"/>
</g>
<!-- LoanItem&#45;&gt;Creator -->
<g id="edge11" class="edge">
<title>LoanItem&#45;&gt;Creator</title>
<path fill="none" stroke="black" stroke-dasharray="5,2" d="M281.07,-227.24C369.99,-219.04 520.07,-203.6 542.26,-191 567.77,-176.52 586.71,-147.35 597.02,-128.25"/>
<polygon fill="black" stroke="black" points="280.9,-223.74 271.26,-228.14 281.54,-230.71 280.9,-223.74"/>
</g>
<!-- LoanItem&#45;&gt;Loan -->
<g id="edge12" class="edge">
<title>LoanItem&#45;&gt;Loan</title>
<path fill="none" stroke="black" stroke-dasharray="5,2" d="M263.19,-212.07C276.74,-206.5 291.57,-200.73 305.48,-196 336.28,-185.53 372.5,-176.07 396.48,-170.2"/>
<polygon fill="black" stroke="black" points="261.93,-208.81 254.05,-215.89 264.63,-215.27 261.93,-208.81"/>
</g>
<!-- LoanItem&#45;&gt;Project -->
<g id="edge14" class="edge">
<title>LoanItem&#45;&gt;Project</title>
<path fill="none" stroke="black" stroke-dasharray="5,2" d="M260.61,-209.73C263.77,-207.32 266.77,-204.74 269.48,-202 292.66,-178.48 279.1,-156.87 305.48,-137 332.04,-116.99 370.89,-111.42 396.52,-110.08"/>
<polygon fill="black" stroke="black" points="258.9,-206.66 252.64,-215.21 262.87,-212.43 258.9,-206.66"/>
</g>
<!-- LoanItem&#45;&gt;Updater -->
<g id="edge15" class="edge">
<title>LoanItem&#45;&gt;Updater</title>
<path fill="none" stroke="black" stroke-dasharray="5,2" d="M262.08,-209.66C264.78,-207.3 267.29,-204.75 269.48,-202 303.89,-158.77 261.11,-115.93 305.48,-83 364.37,-39.29 563.6,-68.61 635.51,-83 647.58,-85.41 660.2,-90.13 671.06,-94.95"/>
<polygon fill="black" stroke="black" points="260.01,-206.84 254.11,-215.64 264.21,-212.44 260.01,-206.84"/>
</g>
<!-- LoanItem&#45;&gt;Objects with Loan items -->
<g id="edge13" class="edge">
<title>LoanItem&#45;&gt;Objects with Loan items</title>
<path fill="none" stroke="black" stroke-dasharray="5,2" d="M262.39,-209.7C265,-207.34 267.4,-204.77 269.48,-202 311.03,-146.39 257.22,-99.91 305.48,-50 314.8,-40.36 326.72,-33.53 339.38,-28.71"/>
<polygon fill="black" stroke="black" points="260.45,-206.78 254.66,-215.66 264.72,-212.33 260.45,-206.78"/>
</g>
<!-- Role&#45;&gt;Verifier -->
<!-- VerifierRole&#45;&gt;Verifier -->
<g id="edge10" class="edge">
<title>VerifierRole&#45;&gt;Verifier</title>
<path fill="none" stroke="black" stroke-dasharray="1,5" d="M465.49,-262.06C495.68,-266.56 536.63,-272.67 566.51,-277.13"/>
<polygon fill="black" stroke="black" points="565.87,-280.57 576.28,-278.58 566.9,-273.65 565.87,-280.57"/>
</g>
<!-- Creator&#45;&gt;Updater -->
<!-- Project&#45;&gt;Creator -->
<!-- DataAttribute -->
<g id="node1" class="node">
<title>DataAttribute</title>
<g id="a_node1"><a xlink:href="/develop/Data/models.html#data-attribute" xlink:title="DataAttribute" target="_top">
<ellipse fill="#abcdef" stroke="#dddeee" cx="61.59" cy="-286" rx="61.59" ry="18"/>
<text text-anchor="middle" x="61.59" y="-280.95" font-family="Times,serif" font-size="14.00">DataAttribute</text>
</a>
</g>
</g>
<!-- Tag -->
<g id="node2" class="node">
<title>Tag</title>
<g id="a_node2"><a xlink:href="/develop/Data/models.html#tag" xlink:title="Tag" target="_top">
<ellipse fill="#abcdef" stroke="#dddeee" cx="61.59" cy="-176" rx="27" ry="18"/>
<text text-anchor="middle" x="61.59" y="-170.95" font-family="Times,serif" font-size="14.00">Tag</text>
</a>
</g>
</g>
<!-- Note -->
<g id="node3" class="node">
<title>Note</title>
<g id="a_node3"><a xlink:href="/develop/Data/models.html#note" xlink:title="Note" target="_top">
<ellipse fill="#abcdef" stroke="#dddeee" cx="61.59" cy="-232" rx="28.83" ry="18"/>
<text text-anchor="middle" x="61.59" y="-226.95" font-family="Times,serif" font-size="14.00">Note</text>
</a>
</g>
</g>
<!-- LoanItem -->
<g id="node4" class="node">
<title>LoanItem</title>
<g id="a_node4"><a xlink:href="/develop/Data/models.html#loan-item" xlink:title="LoanItem" target="_top">
<polygon fill="#cdefab" stroke="#dedede" points="265.48,-225.54 265.48,-240.46 235.51,-251 193.14,-251 163.18,-240.46 163.18,-225.54 193.14,-215 235.51,-215 265.48,-225.54"/>
<polygon fill="none" stroke="#dedede" points="269.48,-222.71 269.48,-243.29 236.2,-255 192.46,-255 159.18,-243.29 159.18,-222.71 192.46,-211 236.2,-211 269.48,-222.71"/>
<text text-anchor="middle" x="214.33" y="-227.95" font-family="Times,serif" font-size="14.00">LoanItem</text>
</a>
</g>
</g>
<!-- ImportAttribute -->
<g id="node5" class="node">
<title>ImportAttribute</title>
<g id="a_node5"><a xlink:href="/develop/Data/models.html#import-attribute" xlink:title="ImportAttribute" target="_top">
<polygon fill="#eeefff" stroke="#dddeee" points="475,-490 372.75,-490 372.75,-454 475,-454 475,-490"/>
<text text-anchor="middle" x="423.87" y="-466.95" font-family="Times,serif" font-size="14.00">ImportAttribute</text>
</a>
</g>
</g>
<!-- InternalAttribute -->
<g id="node6" class="node">
<title>InternalAttribute</title>
<g id="a_node6"><a xlink:href="/develop/Data/models.html#internal-attribute" xlink:title="InternalAttribute" target="_top">
<polygon fill="#eeefff" stroke="#dddeee" points="477.25,-436 370.5,-436 370.5,-400 477.25,-400 477.25,-436"/>
<text text-anchor="middle" x="423.87" y="-412.95" font-family="Times,serif" font-size="14.00">InternalAttribute</text>
</a>
</g>
</g>
<!-- Keyword -->
<g id="node7" class="node">
<title>Keyword</title>
<g id="a_node7"><a xlink:href="/develop/Data/models.html#keyword" xlink:title="Keyword" target="_top">
<polygon fill="#eeefff" stroke="#dddeee" points="247.45,-193 181.2,-193 181.2,-157 247.45,-157 247.45,-193"/>
<text text-anchor="middle" x="214.33" y="-169.95" font-family="Times,serif" font-size="14.00">Keyword</text>
</a>
</g>
</g>
<!-- PinboardItem -->
<g id="node8" class="node">
<title>PinboardItem</title>
<g id="a_node8"><a xlink:href="/develop/Data/models.html#pinboard-item" xlink:title="PinboardItem" target="_top">
<polygon fill="#eeefff" stroke="#dddeee" points="469,-382 378.75,-382 378.75,-346 469,-346 469,-382"/>
<text text-anchor="middle" x="423.87" y="-358.95" font-family="Times,serif" font-size="14.00">PinboardItem</text>
</a>
</g>
</g>
<!-- Role -->
<g id="node9" class="node">
<title>Role</title>
<g id="a_node9"><a xlink:href="/develop/Data/models.html#role" xlink:title="Role" target="_top">
<polygon fill="#eeefff" stroke="#dddeee" points="450.87,-328 396.87,-328 396.87,-292 450.87,-292 450.87,-328"/>
<text text-anchor="middle" x="423.87" y="-304.95" font-family="Times,serif" font-size="14.00">Role</text>
</a>
</g>
</g>
<!-- VerifierRole -->
<g id="node10" class="node">
<title>VerifierRole</title>
<g id="a_node10"><a xlink:href="/develop/Data/models.html#verifier-role" xlink:title="VerifierRole" target="_top">
<polygon fill="#eeefff" stroke="#dddeee" points="465.25,-274 382.5,-274 382.5,-238 465.25,-238 465.25,-274"/>
<text text-anchor="middle" x="423.87" y="-250.95" font-family="Times,serif" font-size="14.00">VerifierRole</text>
</a>
</g>
</g>
<!-- Verifier -->
<g id="node11" class="node">
<title>Verifier</title>
<g id="a_node11"><a xlink:href="/develop/Data/models.html#verifier" xlink:title="Verifier" target="_top">
<polygon fill="#eeefff" stroke="#dddeee" points="635.51,-301 578.26,-301 578.26,-265 635.51,-265 635.51,-301"/>
<text text-anchor="middle" x="606.89" y="-277.95" font-family="Times,serif" font-size="14.00">Verifier</text>
</a>
</g>
</g>
<!-- Creator -->
<g id="node12" class="node">
<title>Creator</title>
<g id="a_node12"><a xlink:href="/develop/Data/models.html#creator" xlink:title="Creator" target="_top">
<polygon fill="#eeefff" stroke="#dddeee" points="635.14,-128 578.64,-128 578.64,-92 635.14,-92 635.14,-128"/>
<text text-anchor="middle" x="606.89" y="-104.95" font-family="Times,serif" font-size="14.00">Creator</text>
</a>
</g>
</g>
<!-- Loan -->
<g id="node13" class="node">
<title>Loan</title>
<g id="a_node13"><a xlink:href="/develop/Data/models.html#loan" xlink:title="Loan" target="_top">
<polygon fill="#eeefff" stroke="#dddeee" points="450.87,-182 396.87,-182 396.87,-146 450.87,-146 450.87,-182"/>
<text text-anchor="middle" x="423.87" y="-158.95" font-family="Times,serif" font-size="14.00">Loan</text>
</a>
</g>
</g>
<!-- Project -->
<g id="node14" class="node">
<title>Project</title>
<g id="a_node14"><a xlink:href="/develop/Data/models.html#project" xlink:title="Project" target="_top">
<polygon fill="#eeefff" stroke="#dddeee" points="451,-128 396.75,-128 396.75,-92 451,-92 451,-128"/>
<text text-anchor="middle" x="423.87" y="-104.95" font-family="Times,serif" font-size="14.00">Project</text>
</a>
</g>
</g>
<!-- Updater -->
<g id="node15" class="node">
<title>Updater</title>
<g id="a_node15"><a xlink:href="/develop/Data/models.html#updater" xlink:title="Updater" target="_top">
<polygon fill="#eeefff" stroke="#dddeee" points="731.01,-128 671.51,-128 671.51,-92 731.01,-92 731.01,-128"/>
<text text-anchor="middle" x="701.26" y="-104.95" font-family="Times,serif" font-size="14.00">Updater</text>
</a>
</g>
</g>
<!-- Objects with Loan items -->
<g id="node16" class="node">
<title>Objects with Loan items</title>
<g id="a_node16"><a xlink:href="/develop/Data/models.html#objects with loan item" xlink:title="Objects with Loan items" target="_top">
<polygon fill="#cdabef" stroke="#dedede" points="542.26,-18 483.07,-36 364.67,-36 305.48,-18 364.67,0 483.07,0 542.26,-18"/>
<text text-anchor="middle" x="423.87" y="-12.95" font-family="Times,serif" font-size="14.00">Objects with Loan items</text>
</a>
</g>
</g>
</g>
</svg>
