<?xml version="1.0" encoding="UTF-8" standalone="no"?>
<!DOCTYPE svg PUBLIC "-//W3C//DTD SVG 1.1//EN"
 "http://www.w3.org/Graphics/SVG/1.1/DTD/svg11.dtd">
<!-- Generated by graphviz version 12.2.1 (20241206.2353)
 -->
<!-- Title: Namespace Pages: 1 -->
<svg width="504pt" height="242pt"
 viewBox="0.00 0.00 504.12 242.09" xmlns="http://www.w3.org/2000/svg" xmlns:xlink="http://www.w3.org/1999/xlink">
<g id="graph0" class="graph" transform="scale(1 1) rotate(0) translate(4 238.09)">
<title>Namespace</title>
<polygon fill="white" stroke="none" points="-4,4 -4,-238.09 500.12,-238.09 500.12,4 -4,4"/>
<!-- Namespace&#45;&gt;Identifier -->
<g id="edge1" class="edge">
<title>Namespace&#45;&gt;Identifier</title>
<path fill="none" stroke="black" d="M126.15,-117.18C118.12,-117.18 109.92,-117.18 101.99,-117.18"/>
<polygon fill="black" stroke="black" points="102.13,-113.68 92.13,-117.18 102.13,-120.68 102.13,-113.68"/>
</g>
<!-- Namespace&#45;&gt;PinboardItem -->
<g id="edge2" class="edge">
<title>Namespace&#45;&gt;PinboardItem</title>
<path fill="none" stroke="black" d="M202.08,-139.65C217.85,-165.83 247.92,-207.74 287.12,-225.18 323.16,-241.21 367.52,-232.21 400.84,-220.45"/>
<polygon fill="black" stroke="black" points="401.68,-223.87 409.82,-217.09 399.23,-217.31 401.68,-223.87"/>
</g>
<!-- Namespace&#45;&gt;Role -->
<g id="edge3" class="edge">
<title>Namespace&#45;&gt;Role</title>
<path fill="none" stroke="black" d="M248.58,-128.71C262.57,-131.45 277.13,-134.31 289.88,-136.8"/>
<polygon fill="black" stroke="black" points="289.04,-140.21 299.53,-138.69 290.39,-133.34 289.04,-140.21"/>
</g>
<!-- Namespace&#45;&gt;VerifierRole -->
<g id="edge4" class="edge">
<title>Namespace&#45;&gt;VerifierRole</title>
<path fill="none" stroke="black" d="M248.58,-105.65C257.53,-103.9 266.71,-102.1 275.49,-100.37"/>
<polygon fill="black" stroke="black" points="276.14,-103.81 285.28,-98.45 274.8,-96.94 276.14,-103.81"/>
</g>
<!-- Namespace&#45;&gt;Version -->
<g id="edge6" class="edge">
<title>Namespace&#45;&gt;Version</title>
<path fill="none" stroke="black" d="M222.76,-136.58C242.87,-148.41 268.63,-163.56 289.58,-175.88"/>
<polygon fill="black" stroke="black" points="287.73,-178.85 298.12,-180.9 291.28,-172.82 287.73,-178.85"/>
</g>
<!-- Namespace&#45;&gt;Creator -->
<g id="edge7" class="edge">
<title>Namespace&#45;&gt;Creator</title>
<path fill="none" stroke="black" stroke-dasharray="5,2" d="M232.52,-92.04C254.48,-79.12 280.6,-63.76 299.88,-52.42"/>
<polygon fill="black" stroke="black" points="230.91,-88.92 224.07,-97.01 234.46,-94.96 230.91,-88.92"/>
</g>
<!-- Namespace&#45;&gt;Updater -->
<g id="edge8" class="edge">
<title>Namespace&#45;&gt;Updater</title>
<path fill="none" stroke="black" stroke-dasharray="5,2" d="M207.98,-85.26C224.78,-59.34 252.36,-24.65 287.12,-9.18 330.99,10.34 387.18,-7.24 420.79,-21.73"/>
<polygon fill="black" stroke="black" points="205.21,-83.09 202.88,-93.43 211.15,-86.8 205.21,-83.09"/>
</g>
<!-- Role&#45;&gt;Verifier -->
<!-- VerifierRole&#45;&gt;Verifier -->
<g id="edge5" class="edge">
<title>VerifierRole&#45;&gt;Verifier</title>
<path fill="none" stroke="black" stroke-dasharray="1,5" d="M370.29,-99.32C383.5,-102.28 398.09,-105.55 411.15,-108.47"/>
<polygon fill="black" stroke="black" points="410.15,-111.84 420.68,-110.61 411.69,-105.01 410.15,-111.84"/>
</g>
<!-- Version&#45;&gt;PinboardItem -->
<!-- Creator&#45;&gt;Updater -->
<!-- Identifier -->
<g id="node1" class="node">
<title>Identifier</title>
<g id="a_node1"><a xlink:href="/develop/Data/models.html#identifier" xlink:title="Identifier" target="_top">
<ellipse fill="#abcdef" stroke="#dddeee" cx="45.21" cy="-117.18" rx="45.21" ry="18"/>
<text text-anchor="middle" x="45.21" y="-112.13" font-family="Times,serif" font-size="14.00">Identifier</text>
</a>
</g>
</g>
<!-- Namespace -->
<g id="node2" class="node">
<title>Namespace</title>
<g id="a_node2"><a xlink:href="/develop/Data/models.html#namespace" xlink:title="Namespace" target="_top">
<polygon fill="#cdefab" stroke="#dedede" points="247.12,-109.72 247.12,-124.63 212.94,-135.18 164.6,-135.18 130.42,-124.63 130.42,-109.72 164.6,-99.18 212.94,-99.18 247.12,-109.72"/>
<polygon fill="none" stroke="#dedede" points="251.12,-106.77 251.12,-127.59 213.54,-139.18 164,-139.18 126.42,-127.59 126.42,-106.77 164,-95.18 213.54,-95.18 251.12,-106.77"/>
<text text-anchor="middle" x="188.77" y="-112.13" font-family="Times,serif" font-size="14.00">Namespace</text>
</a>
</g>
</g>
<!-- PinboardItem -->
<g id="node3" class="node">
<title>PinboardItem</title>
<g id="a_node3"><a xlink:href="/develop/Data/models.html#pinboard-item" xlink:title="PinboardItem" target="_top">
<polygon fill="#eeefff" stroke="#dddeee" points="496.12,-216.18 405.87,-216.18 405.87,-180.18 496.12,-180.18 496.12,-216.18"/>
<text text-anchor="middle" x="451" y="-193.13" font-family="Times,serif" font-size="14.00">PinboardItem</text>
</a>
</g>
</g>
<!-- Role -->
<g id="node4" class="node">
<title>Role</title>
<g id="a_node4"><a xlink:href="/develop/Data/models.html#role" xlink:title="Role" target="_top">
<polygon fill="#eeefff" stroke="#dddeee" points="355.5,-162.18 301.5,-162.18 301.5,-126.18 355.5,-126.18 355.5,-162.18"/>
<text text-anchor="middle" x="328.5" y="-139.13" font-family="Times,serif" font-size="14.00">Role</text>
</a>
</g>
</g>
<!-- VerifierRole -->
<g id="node5" class="node">
<title>VerifierRole</title>
<g id="a_node5"><a xlink:href="/develop/Data/models.html#verifier-role" xlink:title="VerifierRole" target="_top">
<polygon fill="#eeefff" stroke="#dddeee" points="369.87,-108.18 287.12,-108.18 287.12,-72.18 369.87,-72.18 369.87,-108.18"/>
<text text-anchor="middle" x="328.5" y="-85.13" font-family="Times,serif" font-size="14.00">VerifierRole</text>
</a>
</g>
</g>
<!-- Verifier -->
<g id="node6" class="node">
<title>Verifier</title>
<g id="a_node6"><a xlink:href="/develop/Data/models.html#verifier" xlink:title="Verifier" target="_top">
<polygon fill="#eeefff" stroke="#dddeee" points="479.62,-135.18 422.37,-135.18 422.37,-99.18 479.62,-99.18 479.62,-135.18"/>
<text text-anchor="middle" x="451" y="-112.13" font-family="Times,serif" font-size="14.00">Verifier</text>
</a>
</g>
</g>
<!-- Version -->
<g id="node7" class="node">
<title>Version</title>
<g id="a_node7"><a xlink:href="/develop/Data/models.html#version" xlink:title="Version" target="_top">
<polygon fill="#eeefff" stroke="#dddeee" points="357.12,-216.18 299.87,-216.18 299.87,-180.18 357.12,-180.18 357.12,-216.18"/>
<text text-anchor="middle" x="328.5" y="-193.13" font-family="Times,serif" font-size="14.00">Version</text>
</a>
</g>
</g>
<!-- Creator -->
<g id="node8" class="node">
<title>Creator</title>
<g id="a_node8"><a xlink:href="/develop/Data/models.html#creator" xlink:title="Creator" target="_top">
<polygon fill="#eeefff" stroke="#dddeee" points="356.75,-54.18 300.25,-54.18 300.25,-18.18 356.75,-18.18 356.75,-54.18"/>
<text text-anchor="middle" x="328.5" y="-31.13" font-family="Times,serif" font-size="14.00">Creator</text>
</a>
</g>
</g>
<!-- Updater -->
<g id="node9" class="node">
<title>Updater</title>
<g id="a_node9"><a xlink:href="/develop/Data/models.html#updater" xlink:title="Updater" target="_top">
<polygon fill="#eeefff" stroke="#dddeee" points="480.75,-54.18 421.25,-54.18 421.25,-18.18 480.75,-18.18 480.75,-54.18"/>
<text text-anchor="middle" x="451" y="-31.13" font-family="Times,serif" font-size="14.00">Updater</text>
</a>
</g>
</g>
</g>
</svg>
