<?xml version="1.0" encoding="UTF-8" standalone="no"?>
<!DOCTYPE svg PUBLIC "-//W3C//DTD SVG 1.1//EN"
 "http://www.w3.org/Graphics/SVG/1.1/DTD/svg11.dtd">
<!-- Generated by graphviz version 12.2.1 (20241206.2353)
 -->
<!-- Title: Note Pages: 1 -->
<svg width="493pt" height="390pt"
 viewBox="0.00 0.00 492.67 390.00" xmlns="http://www.w3.org/2000/svg" xmlns:xlink="http://www.w3.org/1999/xlink">
<g id="graph0" class="graph" transform="scale(1 1) rotate(0) translate(4 386)">
<title>Note</title>
<polygon fill="white" stroke="none" points="-4,4 -4,-386 488.67,-386 488.67,4 -4,4"/>
<!-- Note&#45;&gt;Tag -->
<g id="edge4" class="edge">
<title>Note&#45;&gt;Tag</title>
<path fill="none" stroke="black" d="M35.21,-164.77C35.21,-147.97 35.21,-131.17 35.21,-114.37"/>
<polygon fill="black" stroke="black" points="38.71,-114.84 35.21,-104.84 31.71,-114.84 38.71,-114.84"/>
</g>
<!-- Note&#45;&gt;PinboardItem -->
<g id="edge2" class="edge">
<title>Note&#45;&gt;PinboardItem</title>
<path fill="none" stroke="black" d="M40.56,-209.38C48.13,-242.22 66.84,-303.21 106.41,-337 117.29,-346.29 131.19,-352.38 144.94,-356.39"/>
<polygon fill="black" stroke="black" points="143.85,-359.72 154.4,-358.79 145.57,-352.94 143.85,-359.72"/>
</g>
<!-- Note&#45;&gt;Role -->
<g id="edge3" class="edge">
<title>Note&#45;&gt;Role</title>
<path fill="none" stroke="black" d="M47,-209.39C58.68,-231.31 79.33,-264.08 106.41,-283 123.01,-294.59 144.54,-301.25 162.79,-305.05"/>
<polygon fill="black" stroke="black" points="161.97,-308.46 172.44,-306.83 163.25,-301.57 161.97,-308.46"/>
</g>
<!-- Note&#45;&gt;VerifierRole -->
<g id="edge5" class="edge">
<title>Note&#45;&gt;VerifierRole</title>
<path fill="none" stroke="black" d="M62.07,-201.87C75.13,-209.06 91.36,-217.51 106.41,-224 119.87,-229.8 134.76,-235.29 148.64,-240.02"/>
<polygon fill="black" stroke="black" points="147.47,-243.32 158.06,-243.17 149.69,-236.68 147.47,-243.32"/>
</g>
<!-- Note&#45;&gt;Creator -->
<g id="edge7" class="edge">
<title>Note&#45;&gt;Creator</title>
<path fill="none" stroke="black" stroke-dasharray="5,2" d="M81.91,-193.57C134.22,-199.74 222.18,-206 295.92,-191 308.15,-188.51 320.95,-183.59 331.83,-178.62"/>
<polygon fill="black" stroke="black" points="82.53,-190.12 72.18,-192.37 81.67,-197.07 82.53,-190.12"/>
</g>
<!-- Note&#45;&gt;Project -->
<g id="edge9" class="edge">
<title>Note&#45;&gt;Project</title>
<path fill="none" stroke="black" stroke-dasharray="5,2" d="M81.89,-180.59C111.45,-176.44 148.92,-171.19 173.67,-167.72"/>
<polygon fill="black" stroke="black" points="81.49,-177.11 72.08,-181.97 82.47,-184.05 81.49,-177.11"/>
</g>
<!-- Note&#45;&gt;Updater -->
<g id="edge10" class="edge">
<title>Note&#45;&gt;Updater</title>
<path fill="none" stroke="black" stroke-dasharray="5,2" d="M64.18,-161.01C76.24,-151.51 91.08,-141.9 106.41,-137 226.12,-98.73 265.95,-112.34 389.17,-137 401.24,-139.41 413.86,-144.13 424.72,-148.95"/>
<polygon fill="black" stroke="black" points="62.17,-158.13 56.7,-167.21 66.64,-163.52 62.17,-158.13"/>
</g>
<!-- Note&#45;&gt;Objects with Notes -->
<g id="edge8" class="edge">
<title>Note&#45;&gt;Objects with Notes</title>
<path fill="none" stroke="black" stroke-dasharray="5,2" d="M56.27,-155.81C68.84,-138.45 86.42,-117.64 106.41,-104 117.35,-96.54 130.19,-90.67 142.8,-86.11"/>
<polygon fill="black" stroke="black" points="53.55,-153.6 50.69,-163.8 59.29,-157.61 53.55,-153.6"/>
</g>
<!-- Tag&#45;&gt;Keyword -->
<g id="edge1" class="edge">
<title>Tag&#45;&gt;Keyword</title>
<path fill="none" stroke="black" stroke-dasharray="1,5" d="M55.24,-72.51C69.02,-63.88 88.32,-52.63 106.41,-45 122.52,-38.21 140.87,-32.5 157.05,-28.12"/>
<polygon fill="black" stroke="black" points="157.59,-31.59 166.38,-25.67 155.82,-24.82 157.59,-31.59"/>
</g>
<!-- Role&#45;&gt;Verifier -->
<!-- VerifierRole&#45;&gt;Verifier -->
<g id="edge6" class="edge">
<title>VerifierRole&#45;&gt;Verifier</title>
<path fill="none" stroke="black" stroke-dasharray="1,5" d="M242.7,-262.95C266.65,-267.06 296.82,-272.24 320.51,-276.3"/>
<polygon fill="black" stroke="black" points="319.62,-279.7 330.07,-277.94 320.8,-272.8 319.62,-279.7"/>
</g>
<!-- Creator&#45;&gt;Updater -->
<!-- Project&#45;&gt;Creator -->
<!-- Note -->
<g id="node1" class="node">
<title>Note</title>
<g id="a_node1"><a xlink:href="/develop/Data/models.html#note" xlink:title="Note" target="_top">
<polygon fill="#cdefab" stroke="#dedede" points="66.41,-179.54 66.41,-194.46 48.13,-205 22.28,-205 4,-194.46 4,-179.54 22.28,-169 48.13,-169 66.41,-179.54"/>
<polygon fill="none" stroke="#dedede" points="70.41,-177.23 70.41,-196.77 49.2,-209 21.21,-209 0,-196.77 0,-177.23 21.21,-165 49.2,-165 70.41,-177.23"/>
<text text-anchor="middle" x="35.21" y="-181.95" font-family="Times,serif" font-size="14.00">Note</text>
</a>
</g>
</g>
<!-- Tag -->
<g id="node2" class="node">
<title>Tag</title>
<g id="a_node2"><a xlink:href="/develop/Data/models.html#tag" xlink:title="Tag" target="_top">
<ellipse fill="#abcdef" stroke="#dddeee" cx="35.21" cy="-85" rx="27" ry="18"/>
<text text-anchor="middle" x="35.21" y="-79.95" font-family="Times,serif" font-size="14.00">Tag</text>
</a>
</g>
</g>
<!-- Keyword -->
<g id="node3" class="node">
<title>Keyword</title>
<g id="a_node3"><a xlink:href="/develop/Data/models.html#keyword" xlink:title="Keyword" target="_top">
<polygon fill="#eeefff" stroke="#dddeee" points="234.29,-36 168.04,-36 168.04,0 234.29,0 234.29,-36"/>
<text text-anchor="middle" x="201.17" y="-12.95" font-family="Times,serif" font-size="14.00">Keyword</text>
</a>
</g>
</g>
<!-- PinboardItem -->
<g id="node4" class="node">
<title>PinboardItem</title>
<g id="a_node4"><a xlink:href="/develop/Data/models.html#pinboard-item" xlink:title="PinboardItem" target="_top">
<polygon fill="#eeefff" stroke="#dddeee" points="246.29,-382 156.04,-382 156.04,-346 246.29,-346 246.29,-382"/>
<text text-anchor="middle" x="201.17" y="-358.95" font-family="Times,serif" font-size="14.00">PinboardItem</text>
</a>
</g>
</g>
<!-- Role -->
<g id="node5" class="node">
<title>Role</title>
<g id="a_node5"><a xlink:href="/develop/Data/models.html#role" xlink:title="Role" target="_top">
<polygon fill="#eeefff" stroke="#dddeee" points="228.17,-328 174.17,-328 174.17,-292 228.17,-292 228.17,-328"/>
<text text-anchor="middle" x="201.17" y="-304.95" font-family="Times,serif" font-size="14.00">Role</text>
</a>
</g>
</g>
<!-- VerifierRole -->
<g id="node6" class="node">
<title>VerifierRole</title>
<g id="a_node6"><a xlink:href="/develop/Data/models.html#verifier-role" xlink:title="VerifierRole" target="_top">
<polygon fill="#eeefff" stroke="#dddeee" points="242.54,-274 159.79,-274 159.79,-238 242.54,-238 242.54,-274"/>
<text text-anchor="middle" x="201.17" y="-250.95" font-family="Times,serif" font-size="14.00">VerifierRole</text>
</a>
</g>
</g>
<!-- Verifier -->
<g id="node7" class="node">
<title>Verifier</title>
<g id="a_node7"><a xlink:href="/develop/Data/models.html#verifier" xlink:title="Verifier" target="_top">
<polygon fill="#eeefff" stroke="#dddeee" points="389.17,-301 331.92,-301 331.92,-265 389.17,-265 389.17,-301"/>
<text text-anchor="middle" x="360.55" y="-277.95" font-family="Times,serif" font-size="14.00">Verifier</text>
</a>
</g>
</g>
<!-- Creator -->
<g id="node8" class="node">
<title>Creator</title>
<g id="a_node8"><a xlink:href="/develop/Data/models.html#creator" xlink:title="Creator" target="_top">
<polygon fill="#eeefff" stroke="#dddeee" points="388.8,-182 332.3,-182 332.3,-146 388.8,-146 388.8,-182"/>
<text text-anchor="middle" x="360.55" y="-158.95" font-family="Times,serif" font-size="14.00">Creator</text>
</a>
</g>
</g>
<!-- Project -->
<g id="node9" class="node">
<title>Project</title>
<g id="a_node9"><a xlink:href="/develop/Data/models.html#project" xlink:title="Project" target="_top">
<polygon fill="#eeefff" stroke="#dddeee" points="228.29,-182 174.04,-182 174.04,-146 228.29,-146 228.29,-182"/>
<text text-anchor="middle" x="201.17" y="-158.95" font-family="Times,serif" font-size="14.00">Project</text>
</a>
</g>
</g>
<!-- Updater -->
<g id="node10" class="node">
<title>Updater</title>
<g id="a_node10"><a xlink:href="/develop/Data/models.html#updater" xlink:title="Updater" target="_top">
<polygon fill="#eeefff" stroke="#dddeee" points="484.67,-182 425.17,-182 425.17,-146 484.67,-146 484.67,-182"/>
<text text-anchor="middle" x="454.92" y="-158.95" font-family="Times,serif" font-size="14.00">Updater</text>
</a>
</g>
</g>
<!-- Objects with Notes -->
<g id="node11" class="node">
<title>Objects with Notes</title>
<g id="a_node11"><a xlink:href="/develop/Data/models.html#objects with note" xlink:title="Objects with Notes" target="_top">
<polygon fill="#cdabef" stroke="#dedede" points="295.92,-72 248.55,-90 153.79,-90 106.41,-72 153.79,-54 248.55,-54 295.92,-72"/>
<text text-anchor="middle" x="201.17" y="-66.95" font-family="Times,serif" font-size="14.00">Objects with Notes</text>
</a>
</g>
</g>
</g>
</svg>
