<?xml version="1.0" encoding="UTF-8" standalone="no"?>
<!DOCTYPE svg PUBLIC "-//W3C//DTD SVG 1.1//EN"
 "http://www.w3.org/Graphics/SVG/1.1/DTD/svg11.dtd">
<!-- Generated by graphviz version 12.2.1 (20241206.2353)
 -->
<!-- Title: ObservationMatrixRow Pages: 1 -->
<svg width="1056pt" height="684pt"
 viewBox="0.00 0.00 1055.93 684.00" xmlns="http://www.w3.org/2000/svg" xmlns:xlink="http://www.w3.org/1999/xlink">
<g id="graph0" class="graph" transform="scale(1 1) rotate(0) translate(4 680)">
<title>ObservationMatrixRow</title>
<polygon fill="white" stroke="none" points="-4,4 -4,-680 1051.93,-680 1051.93,4 -4,4"/>
<!-- Citation&#45;&gt;Source -->
<g id="edge8" class="edge">
<title>Citation&#45;&gt;Source</title>
<path fill="none" stroke="black" stroke-dasharray="1,5" d="M86.14,-603C182.9,-603 428.85,-603 523.04,-603"/>
<polygon fill="black" stroke="black" points="522.76,-606.5 532.76,-603 522.76,-599.5 522.76,-606.5"/>
</g>
<!-- Citation&#45;&gt;CitationTopic -->
<g id="edge1" class="edge">
<title>Citation&#45;&gt;CitationTopic</title>
<path fill="none" stroke="black" stroke-dasharray="1,5" d="M79.8,-612.71C107.79,-620.8 148.24,-632.49 181.04,-641.97"/>
<polygon fill="black" stroke="black" points="179.81,-645.25 190.38,-644.67 181.75,-638.53 179.81,-645.25"/>
</g>
<!-- Tag&#45;&gt;Keyword -->
<g id="edge4" class="edge">
<title>Tag&#45;&gt;Keyword</title>
<path fill="none" stroke="black" stroke-dasharray="1,5" d="M72.67,-291.86C103.64,-291.7 155.38,-291.43 192.44,-291.23"/>
<polygon fill="black" stroke="black" points="192.42,-294.73 202.4,-291.18 192.38,-287.73 192.42,-294.73"/>
</g>
<!-- Source&#45;&gt;SubsequentCitation -->
<!-- Source&#45;&gt;OriginCitation -->
<!-- ObservationMatrixRow&#45;&gt;Citation -->
<g id="edge2" class="edge">
<title>ObservationMatrixRow&#45;&gt;Citation</title>
<path fill="none" stroke="black" d="M219.82,-371.29C184.72,-418.14 103.45,-526.6 65.89,-576.73"/>
<polygon fill="black" stroke="black" points="63.09,-574.63 59.9,-584.73 68.7,-578.82 63.09,-574.63"/>
</g>
<!-- ObservationMatrixRow&#45;&gt;Identifier -->
<g id="edge3" class="edge">
<title>ObservationMatrixRow&#45;&gt;Identifier</title>
<path fill="none" stroke="black" d="M169.04,-367.44C144.39,-374.17 117.02,-381.65 94.39,-387.84"/>
<polygon fill="black" stroke="black" points="93.54,-384.44 84.82,-390.45 95.38,-391.19 93.54,-384.44"/>
</g>
<!-- ObservationMatrixRow&#45;&gt;Tag -->
<g id="edge11" class="edge">
<title>ObservationMatrixRow&#45;&gt;Tag</title>
<path fill="none" stroke="black" d="M169.15,-330.48C155,-326.47 140.2,-322.17 126.42,-318 111.38,-313.45 94.86,-308.14 80.74,-303.52"/>
<polygon fill="black" stroke="black" points="82.03,-300.26 71.44,-300.45 79.84,-306.91 82.03,-300.26"/>
</g>
<!-- ObservationMatrixRow&#45;&gt;Note -->
<g id="edge5" class="edge">
<title>ObservationMatrixRow&#45;&gt;Note</title>
<path fill="none" stroke="black" d="M126.13,-347.84C111.73,-347.69 97.79,-347.54 85.71,-347.42"/>
<polygon fill="black" stroke="black" points="85.84,-343.92 75.8,-347.31 85.77,-350.92 85.84,-343.92"/>
</g>
<!-- ObservationMatrixRow&#45;&gt;Source -->
<g id="edge23" class="edge">
<title>ObservationMatrixRow&#45;&gt;Source</title>
<path fill="none" stroke="black" stroke-dasharray="1,5" d="M250.14,-380.94C269.75,-430.06 314.33,-523.33 384.62,-570 426.74,-597.96 486.38,-603.71 524.25,-604.19"/>
<polygon fill="none" stroke="black" points="242.78,-373.08 250.24,-370.18 253.14,-377.63 245.68,-380.54 242.78,-373.08"/>
<polyline fill="none" stroke="black" points="249.41,-379.09 250.14,-380.95"/>
<polygon fill="none" stroke="black" points="533.82,-600.19 533.82,-608.19 525.82,-608.19 525.82,-600.19 533.82,-600.19"/>
<polyline fill="none" stroke="black" points="525.82,-604.19 523.82,-604.19"/>
</g>
<!-- ObservationMatrixRow&#45;&gt;PinboardItem -->
<g id="edge6" class="edge">
<title>ObservationMatrixRow&#45;&gt;PinboardItem</title>
<path fill="none" stroke="black" d="M320.26,-332.97C330.32,-329.03 340.06,-324.11 348.62,-318 371.5,-301.67 361,-281.23 384.62,-266 420.32,-242.99 468.12,-235.43 504.88,-233.39"/>
<polygon fill="black" stroke="black" points="504.55,-236.9 514.39,-232.98 504.25,-229.91 504.55,-236.9"/>
</g>
<!-- ObservationMatrixRow&#45;&gt;Role -->
<g id="edge7" class="edge">
<title>ObservationMatrixRow&#45;&gt;Role</title>
<path fill="none" stroke="black" d="M325.13,-333.82C333.76,-329.72 341.82,-324.54 348.62,-318 386.01,-282.05 345.12,-240.6 384.62,-207 422.91,-174.44 483.57,-172.36 522.7,-175.17"/>
<polygon fill="black" stroke="black" points="522.33,-178.65 532.6,-176.03 522.94,-171.67 522.33,-178.65"/>
</g>
<!-- ObservationMatrixRow&#45;&gt;SubsequentCitation -->
<g id="edge9" class="edge">
<title>ObservationMatrixRow&#45;&gt;SubsequentCitation</title>
<path fill="none" stroke="black" d="M249.05,-371.38C269.14,-411.3 317.05,-494.17 384.62,-532 522.89,-609.41 582.25,-549.24 738.43,-576 746.39,-577.36 754.7,-578.95 762.95,-580.61"/>
<polygon fill="black" stroke="black" points="762.13,-584.02 772.64,-582.62 763.56,-577.17 762.13,-584.02"/>
</g>
<!-- ObservationMatrixRow&#45;&gt;Uri -->
<g id="edge13" class="edge">
<title>ObservationMatrixRow&#45;&gt;Uri</title>
<path fill="none" stroke="black" d="M326.59,-334.07C334.79,-329.91 342.36,-324.65 348.62,-318 400.09,-263.37 329.92,-204.39 384.62,-153 421.54,-118.32 483.31,-116.99 522.96,-120.51"/>
<polygon fill="black" stroke="black" points="522.44,-123.97 532.75,-121.54 523.17,-117.01 522.44,-123.97"/>
</g>
<!-- ObservationMatrixRow&#45;&gt;Uuid -->
<g id="edge14" class="edge">
<title>ObservationMatrixRow&#45;&gt;Uuid</title>
<path fill="none" stroke="black" d="M327.47,-334.11C335.4,-329.94 342.67,-324.66 348.62,-318 414.38,-244.47 314.51,-168.38 384.62,-99 420.73,-63.28 482.99,-62.3 522.94,-66.17"/>
<polygon fill="black" stroke="black" points="522.48,-69.64 532.81,-67.3 523.27,-62.69 522.48,-69.64"/>
</g>
<!-- ObservationMatrixRow&#45;&gt;VerifierRole -->
<g id="edge15" class="edge">
<title>ObservationMatrixRow&#45;&gt;VerifierRole</title>
<path fill="none" stroke="black" d="M327.69,-334.3C335.58,-330.09 342.77,-324.76 348.62,-318 428.74,-225.49 299.01,-132.45 384.62,-45 416.2,-12.75 469.01,-8.51 508.55,-10.82"/>
<polygon fill="black" stroke="black" points="508.09,-14.3 518.33,-11.56 508.62,-7.32 508.09,-14.3"/>
</g>
<!-- ObservationMatrixRow&#45;&gt;Creator -->
<g id="edge17" class="edge">
<title>ObservationMatrixRow&#45;&gt;Creator</title>
<path fill="none" stroke="black" stroke-dasharray="5,2" d="M360.42,-355.36C497.16,-363.11 704.41,-376.91 738.43,-391 771.64,-404.76 801.87,-434.43 819.16,-453.79"/>
<polygon fill="black" stroke="black" points="360.75,-351.87 350.57,-354.81 360.35,-358.86 360.75,-351.87"/>
</g>
<!-- ObservationMatrixRow&#45;&gt;ObservationMatrix -->
<g id="edge18" class="edge">
<title>ObservationMatrixRow&#45;&gt;ObservationMatrix</title>
<path fill="none" stroke="black" stroke-dasharray="5,2" d="M317.79,-370.12C339.4,-375.59 362.85,-381.27 384.62,-386 423.3,-394.4 467.08,-402.37 501.29,-408.26"/>
<polygon fill="black" stroke="black" points="318.7,-366.74 308.14,-367.66 316.97,-373.52 318.7,-366.74"/>
</g>
<!-- ObservationMatrixRow&#45;&gt;Project -->
<g id="edge20" class="edge">
<title>ObservationMatrixRow&#45;&gt;Project</title>
<path fill="none" stroke="black" stroke-dasharray="5,2" d="M273.51,-378.26C301.71,-400.23 343.34,-429.14 384.62,-445 435.1,-464.39 498.76,-469.89 534,-471.43"/>
<polygon fill="black" stroke="black" points="276.04,-375.8 266.03,-372.34 271.7,-381.29 276.04,-375.8"/>
</g>
<!-- ObservationMatrixRow&#45;&gt;Updater -->
<g id="edge21" class="edge">
<title>ObservationMatrixRow&#45;&gt;Updater</title>
<path fill="none" stroke="black" stroke-dasharray="5,2" d="M320.75,-327.92C330.24,-324.88 339.71,-321.56 348.62,-318 365.42,-311.29 367.06,-303.35 384.62,-299 537.26,-261.19 588.3,-252.22 738.43,-299 837.87,-329.99 932.68,-415.73 971.1,-453.61"/>
<polygon fill="black" stroke="black" points="320,-324.49 311.48,-330.79 322.07,-331.18 320,-324.49"/>
</g>
<!-- ObservationMatrixRow&#45;&gt;OriginCitation -->
<g id="edge22" class="edge">
<title>ObservationMatrixRow&#45;&gt;OriginCitation</title>
<path fill="none" stroke="black" d="M258.36,-380C283.11,-415.68 329.02,-472.73 384.62,-499 452.68,-531.16 671.91,-536.45 777.04,-537.09"/>
<polygon fill="none" stroke="black" points="249.5,-374.08 256.12,-369.59 260.61,-376.2 254,-380.7 249.5,-374.08"/>
<polyline fill="none" stroke="black" points="257.3,-378.45 258.43,-380.1"/>
<polygon fill="none" stroke="black" points="786.97,-533.14 786.94,-541.14 778.94,-541.1 778.97,-533.1 786.97,-533.14"/>
<polyline fill="none" stroke="black" points="778.95,-537.1 776.95,-537.09"/>
</g>
<!-- ObservationMatrixRow&#45;&gt;Objects with Observation matrix rows -->
<g id="edge19" class="edge">
<title>ObservationMatrixRow&#45;&gt;Objects with Observation matrix rows</title>
<path fill="none" stroke="black" stroke-dasharray="5,2" d="M360.13,-340.31C382.51,-338.72 405.97,-337.04 428.63,-335.42"/>
<polygon fill="black" stroke="black" points="360.12,-336.81 350.4,-341.01 360.62,-343.79 360.12,-336.81"/>
</g>
<!-- CitationTopic&#45;&gt;Topic -->
<g id="edge12" class="edge">
<title>CitationTopic&#45;&gt;Topic</title>
<path fill="none" stroke="black" stroke-dasharray="1,5" d="M283.29,-658C347.15,-658 463.25,-658 522.91,-658"/>
<polygon fill="black" stroke="black" points="522.89,-661.5 532.89,-658 522.89,-654.5 522.89,-661.5"/>
</g>
<!-- Role&#45;&gt;Verifier -->
<!-- SubsequentCitation&#45;&gt;SubsequentSource -->
<g id="edge10" class="edge">
<title>SubsequentCitation&#45;&gt;SubsequentSource</title>
<path fill="none" stroke="black" stroke-dasharray="1,5" d="M896.67,-597C904.61,-597 912.78,-597 920.84,-597"/>
<polygon fill="black" stroke="black" points="920.59,-600.5 930.59,-597 920.59,-593.5 920.59,-600.5"/>
</g>
<!-- VerifierRole&#45;&gt;Verifier -->
<g id="edge16" class="edge">
<title>VerifierRole&#45;&gt;Verifier</title>
<path fill="none" stroke="black" stroke-dasharray="1,5" d="M603.34,-20.1C639.64,-22.94 693.75,-29.56 738.43,-45 759.26,-52.2 780.78,-63.87 798.15,-74.53"/>
<polygon fill="black" stroke="black" points="796.25,-77.47 806.57,-79.84 799.98,-71.55 796.25,-77.47"/>
</g>
<!-- Creator&#45;&gt;Updater -->
<!-- Project&#45;&gt;Creator -->
<!-- Citation -->
<g id="node1" class="node">
<title>Citation</title>
<g id="a_node1"><a xlink:href="/develop/Data/models.html#citation" xlink:title="Citation" target="_top">
<ellipse fill="#abcdef" stroke="#dddeee" cx="45.21" cy="-603" rx="40.6" ry="18"/>
<text text-anchor="middle" x="45.21" y="-597.95" font-family="Times,serif" font-size="14.00">Citation</text>
</a>
</g>
</g>
<!-- Identifier -->
<g id="node2" class="node">
<title>Identifier</title>
<g id="a_node2"><a xlink:href="/develop/Data/models.html#identifier" xlink:title="Identifier" target="_top">
<ellipse fill="#abcdef" stroke="#dddeee" cx="45.21" cy="-401" rx="45.21" ry="18"/>
<text text-anchor="middle" x="45.21" y="-395.95" font-family="Times,serif" font-size="14.00">Identifier</text>
</a>
</g>
</g>
<!-- Tag -->
<g id="node3" class="node">
<title>Tag</title>
<g id="a_node3"><a xlink:href="/develop/Data/models.html#tag" xlink:title="Tag" target="_top">
<ellipse fill="#abcdef" stroke="#dddeee" cx="45.21" cy="-292" rx="27" ry="18"/>
<text text-anchor="middle" x="45.21" y="-286.95" font-family="Times,serif" font-size="14.00">Tag</text>
</a>
</g>
</g>
<!-- Note -->
<g id="node4" class="node">
<title>Note</title>
<g id="a_node4"><a xlink:href="/develop/Data/models.html#note" xlink:title="Note" target="_top">
<ellipse fill="#abcdef" stroke="#dddeee" cx="45.21" cy="-347" rx="28.83" ry="18"/>
<text text-anchor="middle" x="45.21" y="-341.95" font-family="Times,serif" font-size="14.00">Note</text>
</a>
</g>
</g>
<!-- Source -->
<g id="node5" class="node">
<title>Source</title>
<g id="a_node5"><a xlink:href="/develop/Data/models.html#source" xlink:title="Source" target="_top">
<path fill="#fedcba" stroke="#dddeee" d="M546.53,-585C546.53,-585 576.53,-585 576.53,-585 582.53,-585 588.53,-591 588.53,-597 588.53,-597 588.53,-609 588.53,-609 588.53,-615 582.53,-621 576.53,-621 576.53,-621 546.53,-621 546.53,-621 540.53,-621 534.53,-615 534.53,-609 534.53,-609 534.53,-597 534.53,-597 534.53,-591 540.53,-585 546.53,-585"/>
<text text-anchor="middle" x="561.53" y="-598.2" font-family="Times,serif" font-size="14.00">Source</text>
</a>
</g>
</g>
<!-- ObservationMatrixRow -->
<g id="node6" class="node">
<title>ObservationMatrixRow</title>
<g id="a_node6"><a xlink:href="/develop/Data/models.html#observation-matrix-row" xlink:title="ObservationMatrixRow" target="_top">
<polygon fill="#cdefab" stroke="#dedede" points="344.62,-341.54 344.62,-356.46 281.88,-367 193.16,-367 130.42,-356.46 130.42,-341.54 193.16,-331 281.88,-331 344.62,-341.54"/>
<polygon fill="none" stroke="#dedede" points="348.62,-338.16 348.62,-359.84 282.22,-371 192.82,-371 126.42,-359.84 126.42,-338.16 192.82,-327 282.22,-327 348.62,-338.16"/>
<text text-anchor="middle" x="237.52" y="-343.95" font-family="Times,serif" font-size="14.00">ObservationMatrixRow</text>
</a>
</g>
</g>
<!-- CitationTopic -->
<g id="node7" class="node">
<title>CitationTopic</title>
<g id="a_node7"><a xlink:href="/develop/Data/models.html#citation-topic" xlink:title="CitationTopic" target="_top">
<polygon fill="#eeefff" stroke="#dddeee" points="283.02,-676 192.02,-676 192.02,-640 283.02,-640 283.02,-676"/>
<text text-anchor="middle" x="237.52" y="-652.95" font-family="Times,serif" font-size="14.00">CitationTopic</text>
</a>
</g>
</g>
<!-- Keyword -->
<g id="node8" class="node">
<title>Keyword</title>
<g id="a_node8"><a xlink:href="/develop/Data/models.html#keyword" xlink:title="Keyword" target="_top">
<polygon fill="#eeefff" stroke="#dddeee" points="270.65,-309 204.4,-309 204.4,-273 270.65,-273 270.65,-309"/>
<text text-anchor="middle" x="237.52" y="-285.95" font-family="Times,serif" font-size="14.00">Keyword</text>
</a>
</g>
</g>
<!-- PinboardItem -->
<g id="node9" class="node">
<title>PinboardItem</title>
<g id="a_node9"><a xlink:href="/develop/Data/models.html#pinboard-item" xlink:title="PinboardItem" target="_top">
<polygon fill="#eeefff" stroke="#dddeee" points="606.65,-252 516.4,-252 516.4,-216 606.65,-216 606.65,-252"/>
<text text-anchor="middle" x="561.53" y="-228.95" font-family="Times,serif" font-size="14.00">PinboardItem</text>
</a>
</g>
</g>
<!-- Role -->
<g id="node10" class="node">
<title>Role</title>
<g id="a_node10"><a xlink:href="/develop/Data/models.html#role" xlink:title="Role" target="_top">
<polygon fill="#eeefff" stroke="#dddeee" points="588.53,-198 534.53,-198 534.53,-162 588.53,-162 588.53,-198"/>
<text text-anchor="middle" x="561.53" y="-174.95" font-family="Times,serif" font-size="14.00">Role</text>
</a>
</g>
</g>
<!-- SubsequentCitation -->
<g id="node11" class="node">
<title>SubsequentCitation</title>
<g id="a_node11"><a xlink:href="/develop/Data/models.html#subsequent-citation" xlink:title="SubsequentCitation" target="_top">
<polygon fill="#eeefff" stroke="#dddeee" points="896.18,-615 774.43,-615 774.43,-579 896.18,-579 896.18,-615"/>
<text text-anchor="middle" x="835.3" y="-591.95" font-family="Times,serif" font-size="14.00">SubsequentCitation</text>
</a>
</g>
</g>
<!-- SubsequentSource -->
<g id="node12" class="node">
<title>SubsequentSource</title>
<g id="a_node12"><a xlink:href="/develop/Data/models.html#subsequent-source" xlink:title="SubsequentSource" target="_top">
<polygon fill="#eeefff" stroke="#dddeee" points="1047.93,-615 932.18,-615 932.18,-579 1047.93,-579 1047.93,-615"/>
<text text-anchor="middle" x="990.05" y="-591.95" font-family="Times,serif" font-size="14.00">SubsequentSource</text>
</a>
</g>
</g>
<!-- Topic -->
<g id="node13" class="node">
<title>Topic</title>
<g id="a_node13"><a xlink:href="/develop/Data/models.html#topic" xlink:title="Topic" target="_top">
<polygon fill="#eeefff" stroke="#dddeee" points="588.53,-676 534.53,-676 534.53,-640 588.53,-640 588.53,-676"/>
<text text-anchor="middle" x="561.53" y="-652.95" font-family="Times,serif" font-size="14.00">Topic</text>
</a>
</g>
</g>
<!-- Uri -->
<g id="node14" class="node">
<title>Uri</title>
<g id="a_node14"><a xlink:href="/develop/Data/models.html#uri" xlink:title="Uri" target="_top">
<polygon fill="#eeefff" stroke="#dddeee" points="588.53,-144 534.53,-144 534.53,-108 588.53,-108 588.53,-144"/>
<text text-anchor="middle" x="561.53" y="-120.95" font-family="Times,serif" font-size="14.00">Uri</text>
</a>
</g>
</g>
<!-- Uuid -->
<g id="node15" class="node">
<title>Uuid</title>
<g id="a_node15"><a xlink:href="/develop/Data/models.html#uuid" xlink:title="Uuid" target="_top">
<polygon fill="#eeefff" stroke="#dddeee" points="588.53,-90 534.53,-90 534.53,-54 588.53,-54 588.53,-90"/>
<text text-anchor="middle" x="561.53" y="-66.95" font-family="Times,serif" font-size="14.00">Uuid</text>
</a>
</g>
</g>
<!-- VerifierRole -->
<g id="node16" class="node">
<title>VerifierRole</title>
<g id="a_node16"><a xlink:href="/develop/Data/models.html#verifier-role" xlink:title="VerifierRole" target="_top">
<polygon fill="#eeefff" stroke="#dddeee" points="602.9,-36 520.15,-36 520.15,0 602.9,0 602.9,-36"/>
<text text-anchor="middle" x="561.53" y="-12.95" font-family="Times,serif" font-size="14.00">VerifierRole</text>
</a>
</g>
</g>
<!-- Verifier -->
<g id="node17" class="node">
<title>Verifier</title>
<g id="a_node17"><a xlink:href="/develop/Data/models.html#verifier" xlink:title="Verifier" target="_top">
<polygon fill="#eeefff" stroke="#dddeee" points="863.93,-117 806.68,-117 806.68,-81 863.93,-81 863.93,-117"/>
<text text-anchor="middle" x="835.3" y="-93.95" font-family="Times,serif" font-size="14.00">Verifier</text>
</a>
</g>
</g>
<!-- Creator -->
<g id="node18" class="node">
<title>Creator</title>
<g id="a_node18"><a xlink:href="/develop/Data/models.html#creator" xlink:title="Creator" target="_top">
<polygon fill="#eeefff" stroke="#dddeee" points="863.55,-490 807.05,-490 807.05,-454 863.55,-454 863.55,-490"/>
<text text-anchor="middle" x="835.3" y="-466.95" font-family="Times,serif" font-size="14.00">Creator</text>
</a>
</g>
</g>
<!-- ObservationMatrix -->
<g id="node19" class="node">
<title>ObservationMatrix</title>
<g id="a_node19"><a xlink:href="/develop/Data/models.html#observation-matrix" xlink:title="ObservationMatrix" target="_top">
<polygon fill="#eeefff" stroke="#dddeee" points="621.28,-436 501.78,-436 501.78,-400 621.28,-400 621.28,-436"/>
<text text-anchor="middle" x="561.53" y="-412.95" font-family="Times,serif" font-size="14.00">ObservationMatrix</text>
</a>
</g>
</g>
<!-- Project -->
<g id="node20" class="node">
<title>Project</title>
<g id="a_node20"><a xlink:href="/develop/Data/models.html#project" xlink:title="Project" target="_top">
<polygon fill="#eeefff" stroke="#dddeee" points="588.65,-490 534.4,-490 534.4,-454 588.65,-454 588.65,-490"/>
<text text-anchor="middle" x="561.53" y="-466.95" font-family="Times,serif" font-size="14.00">Project</text>
</a>
</g>
</g>
<!-- Updater -->
<g id="node21" class="node">
<title>Updater</title>
<g id="a_node21"><a xlink:href="/develop/Data/models.html#updater" xlink:title="Updater" target="_top">
<polygon fill="#eeefff" stroke="#dddeee" points="1019.8,-490 960.3,-490 960.3,-454 1019.8,-454 1019.8,-490"/>
<text text-anchor="middle" x="990.05" y="-466.95" font-family="Times,serif" font-size="14.00">Updater</text>
</a>
</g>
</g>
<!-- OriginCitation -->
<g id="node22" class="node">
<title>OriginCitation</title>
<g id="a_node22"><a xlink:href="/develop/Data/models.html#origin-citation" xlink:title="OriginCitation" target="_top">
<polygon fill="#eeefff" stroke="#dddeee" points="882.68,-555 787.93,-555 787.93,-519 882.68,-519 882.68,-555"/>
<text text-anchor="middle" x="835.3" y="-531.95" font-family="Times,serif" font-size="14.00">OriginCitation</text>
</a>
</g>
</g>
<!-- Objects with Observation matrix rows -->
<g id="node23" class="node">
<title>Objects with Observation matrix rows</title>
<g id="a_node23"><a xlink:href="/develop/Data/models.html#objects with observation matrix row" xlink:title="Objects with Observation matrix rows" target="_top">
<polygon fill="#cdabef" stroke="#dedede" points="738.43,-326 649.98,-344 473.07,-344 384.62,-326 473.07,-308 649.98,-308 738.43,-326"/>
<text text-anchor="middle" x="561.53" y="-320.95" font-family="Times,serif" font-size="14.00">Objects with Observation matrix rows</text>
</a>
</g>
</g>
</g>
</svg>
