<?xml version="1.0" encoding="UTF-8" standalone="no"?>
<!DOCTYPE svg PUBLIC "-//W3C//DTD SVG 1.1//EN"
 "http://www.w3.org/Graphics/SVG/1.1/DTD/svg11.dtd">
<!-- Generated by graphviz version 2.50.0 (20211204.2007)
 -->
<!-- Title: ObservationMatrixColumnItem Pages: 1 -->
<svg width="750pt" height="333pt"
 viewBox="0.00 0.00 750.12 332.89" xmlns="http://www.w3.org/2000/svg" xmlns:xlink="http://www.w3.org/1999/xlink">
<g id="graph0" class="graph" transform="scale(1 1) rotate(0) translate(4 328.89)">
<title>ObservationMatrixColumnItem</title>
<polygon fill="white" stroke="transparent" points="-4,4 -4,-328.89 746.12,-328.89 746.12,4 -4,4"/>
<!-- Tag&#45;&gt;Keyword -->
<g id="edge2" class="edge">
<title>Tag&#45;&gt;Keyword</title>
<path fill="none" stroke="black" stroke-dasharray="1,5" d="M70.21,-95.77C106.39,-95.6 171.95,-95.3 215.35,-95.09"/>
<polygon fill="black" stroke="black" points="215.62,-98.59 225.61,-95.05 215.59,-91.59 215.62,-98.59"/>
</g>
<!-- ObservationMatrixColumnItem&#45;&gt;Identifier -->
<g id="edge1" class="edge">
<title>ObservationMatrixColumnItem&#45;&gt;Identifier</title>
<path fill="none" stroke="black" d="M181.32,-171.95C150.78,-179.49 116.68,-187.91 90.09,-194.48"/>
<polygon fill="black" stroke="black" points="89.16,-191.11 80.29,-196.9 90.84,-197.9 89.16,-191.11"/>
</g>
<!-- ObservationMatrixColumnItem&#45;&gt;Tag -->
<g id="edge6" class="edge">
<title>ObservationMatrixColumnItem&#45;&gt;Tag</title>
<path fill="none" stroke="black" d="M173.2,-134.93C156.1,-130.94 138.31,-126.51 121.79,-121.89 106.77,-117.69 90.35,-112.33 76.48,-107.57"/>
<polygon fill="black" stroke="black" points="77.48,-104.21 66.89,-104.23 75.18,-110.83 77.48,-104.21"/>
</g>
<!-- ObservationMatrixColumnItem&#45;&gt;Note -->
<g id="edge3" class="edge">
<title>ObservationMatrixColumnItem&#45;&gt;Note</title>
<path fill="none" stroke="black" d="M121.39,-152.25C106.83,-152.19 93.07,-152.12 81.29,-152.07"/>
<polygon fill="black" stroke="black" points="81.09,-148.57 71.07,-152.02 81.05,-155.57 81.09,-148.57"/>
</g>
<!-- ObservationMatrixColumnItem&#45;&gt;PinboardItem -->
<g id="edge4" class="edge">
<title>ObservationMatrixColumnItem&#45;&gt;PinboardItem</title>
<path fill="none" stroke="black" d="M286.78,-174.93C319.66,-201.81 378.27,-247.63 433.12,-279.89 435.58,-281.34 438.13,-282.76 440.72,-284.15"/>
<polygon fill="black" stroke="black" points="439.19,-287.3 449.68,-288.75 442.38,-281.07 439.19,-287.3"/>
</g>
<!-- ObservationMatrixColumnItem&#45;&gt;Role -->
<g id="edge5" class="edge">
<title>ObservationMatrixColumnItem&#45;&gt;Role</title>
<path fill="none" stroke="black" d="M311.58,-174.96C355.56,-193.95 417.85,-220.84 456.58,-237.55"/>
<polygon fill="black" stroke="black" points="455.32,-240.82 465.89,-241.57 458.1,-234.4 455.32,-240.82"/>
</g>
<!-- ObservationMatrixColumnItem&#45;&gt;VerifierRole -->
<g id="edge7" class="edge">
<title>ObservationMatrixColumnItem&#45;&gt;VerifierRole</title>
<path fill="none" stroke="black" d="M348.7,-170.42C380.11,-176.65 414.39,-183.46 441.55,-188.85"/>
<polygon fill="black" stroke="black" points="441.11,-192.33 451.6,-190.85 442.47,-185.47 441.11,-192.33"/>
</g>
<!-- ObservationMatrixColumnItem&#45;&gt;Creator -->
<g id="edge9" class="edge">
<title>ObservationMatrixColumnItem&#45;&gt;Creator</title>
<path fill="none" stroke="black" stroke-dasharray="5,2" d="M386.51,-166.88C440.59,-167.43 502.77,-160.45 553.12,-133.89 579.2,-120.14 598.04,-90.47 608.14,-71.11"/>
<polygon fill="black" stroke="black" points="386.57,-163.38 376.51,-166.69 386.44,-170.38 386.57,-163.38"/>
</g>
<!-- ObservationMatrixColumnItem&#45;&gt;ObservationMatrix -->
<g id="edge10" class="edge">
<title>ObservationMatrixColumnItem&#45;&gt;ObservationMatrix</title>
<path fill="none" stroke="black" stroke-dasharray="5,2" d="M358.67,-133.39C383.9,-128.38 410.26,-123.15 432.83,-118.67"/>
<polygon fill="black" stroke="black" points="357.83,-129.99 348.7,-135.37 359.19,-136.86 357.83,-129.99"/>
</g>
<!-- ObservationMatrixColumnItem&#45;&gt;Project -->
<g id="edge11" class="edge">
<title>ObservationMatrixColumnItem&#45;&gt;Project</title>
<path fill="none" stroke="black" stroke-dasharray="5,2" d="M372.4,-133.88C381.04,-130.51 389.39,-126.55 397.12,-121.89 418.17,-109.2 413.48,-94.69 433.12,-79.89 442.84,-72.57 454.86,-66.62 465.5,-62.19"/>
<polygon fill="black" stroke="black" points="371.14,-130.61 362.92,-137.3 373.52,-137.19 371.14,-130.61"/>
</g>
<!-- ObservationMatrixColumnItem&#45;&gt;Updater -->
<g id="edge12" class="edge">
<title>ObservationMatrixColumnItem&#45;&gt;Updater</title>
<path fill="none" stroke="black" stroke-dasharray="5,2" d="M380,-133.78C386.12,-130.4 391.89,-126.46 397.12,-121.89 431.45,-91.93 395.67,-51.85 433.12,-25.89 509.64,27.14 627.76,-14.57 682.03,-38.73"/>
<polygon fill="black" stroke="black" points="378.21,-130.77 370.82,-138.36 381.33,-137.03 378.21,-130.77"/>
</g>
<!-- Role&#45;&gt;Verifier -->
<!-- VerifierRole&#45;&gt;Verifier -->
<g id="edge8" class="edge">
<title>VerifierRole&#45;&gt;Verifier</title>
<path fill="none" stroke="black" stroke-dasharray="1,5" d="M534.91,-207.88C549.14,-211.02 565.03,-214.52 578.98,-217.6"/>
<polygon fill="black" stroke="black" points="578.23,-221.02 588.75,-219.75 579.74,-214.18 578.23,-221.02"/>
</g>
<!-- Creator&#45;&gt;Updater -->
<!-- Project&#45;&gt;Creator -->
<!-- Identifier -->
<g id="node1" class="node">
<title>Identifier</title>
<g id="a_node1"><a xlink:href="/develop/Data/models.html#identifier" xlink:title="Identifier" target="_top">
<ellipse fill="#abcdef" stroke="#dddeee" cx="42.9" cy="-205.89" rx="42.79" ry="18"/>
<text text-anchor="middle" x="42.9" y="-202.19" font-family="Times,serif" font-size="14.00">Identifier</text>
</a>
</g>
</g>
<!-- Tag -->
<g id="node2" class="node">
<title>Tag</title>
<g id="a_node2"><a xlink:href="/develop/Data/models.html#tag" xlink:title="Tag" target="_top">
<ellipse fill="#abcdef" stroke="#dddeee" cx="42.9" cy="-95.89" rx="27" ry="18"/>
<text text-anchor="middle" x="42.9" y="-92.19" font-family="Times,serif" font-size="14.00">Tag</text>
</a>
</g>
</g>
<!-- Note -->
<g id="node3" class="node">
<title>Note</title>
<g id="a_node3"><a xlink:href="/develop/Data/models.html#note" xlink:title="Note" target="_top">
<ellipse fill="#abcdef" stroke="#dddeee" cx="42.9" cy="-151.89" rx="27.9" ry="18"/>
<text text-anchor="middle" x="42.9" y="-148.19" font-family="Times,serif" font-size="14.00">Note</text>
</a>
</g>
</g>
<!-- ObservationMatrixColumnItem -->
<g id="node4" class="node">
<title>ObservationMatrixColumnItem</title>
<g id="a_node4"><a xlink:href="/develop/Data/models.html#observation-matrix-column-item" xlink:title="ObservationMatrixColumnItem" target="_top">
<polygon fill="#cdefab" stroke="#dedede" points="393.28,-145.44 393.28,-160.35 314.89,-170.89 204.02,-170.89 125.63,-160.35 125.63,-145.44 204.02,-134.89 314.89,-134.89 393.28,-145.44"/>
<polygon fill="none" stroke="#dedede" points="397.28,-141.94 397.28,-163.85 315.16,-174.89 203.76,-174.89 121.63,-163.85 121.63,-141.94 203.76,-130.89 315.16,-130.89 397.28,-141.94"/>
<text text-anchor="middle" x="259.46" y="-149.19" font-family="Times,serif" font-size="14.00">ObservationMatrixColumnItem</text>
</a>
</g>
</g>
<!-- Keyword -->
<g id="node5" class="node">
<title>Keyword</title>
<g id="a_node5"><a xlink:href="/develop/Data/models.html#keyword" xlink:title="Keyword" target="_top">
<polygon fill="#eeefff" stroke="#dddeee" points="292.96,-112.89 225.96,-112.89 225.96,-76.89 292.96,-76.89 292.96,-112.89"/>
<text text-anchor="middle" x="259.46" y="-91.19" font-family="Times,serif" font-size="14.00">Keyword</text>
</a>
</g>
</g>
<!-- PinboardItem -->
<g id="node6" class="node">
<title>PinboardItem</title>
<g id="a_node6"><a xlink:href="/develop/Data/models.html#pinboard-item" xlink:title="PinboardItem" target="_top">
<polygon fill="#eeefff" stroke="#dddeee" points="538.62,-324.89 447.62,-324.89 447.62,-288.89 538.62,-288.89 538.62,-324.89"/>
<text text-anchor="middle" x="493.12" y="-303.19" font-family="Times,serif" font-size="14.00">PinboardItem</text>
</a>
</g>
</g>
<!-- Role -->
<g id="node7" class="node">
<title>Role</title>
<g id="a_node7"><a xlink:href="/develop/Data/models.html#role" xlink:title="Role" target="_top">
<polygon fill="#eeefff" stroke="#dddeee" points="520.12,-270.89 466.12,-270.89 466.12,-234.89 520.12,-234.89 520.12,-270.89"/>
<text text-anchor="middle" x="493.12" y="-249.19" font-family="Times,serif" font-size="14.00">Role</text>
</a>
</g>
</g>
<!-- VerifierRole -->
<g id="node8" class="node">
<title>VerifierRole</title>
<g id="a_node8"><a xlink:href="/develop/Data/models.html#verifier-role" xlink:title="VerifierRole" target="_top">
<polygon fill="#eeefff" stroke="#dddeee" points="534.62,-216.89 451.62,-216.89 451.62,-180.89 534.62,-180.89 534.62,-216.89"/>
<text text-anchor="middle" x="493.12" y="-195.19" font-family="Times,serif" font-size="14.00">VerifierRole</text>
</a>
</g>
</g>
<!-- Verifier -->
<g id="node9" class="node">
<title>Verifier</title>
<g id="a_node9"><a xlink:href="/develop/Data/models.html#verifier" xlink:title="Verifier" target="_top">
<polygon fill="#eeefff" stroke="#dddeee" points="646.12,-243.89 589.12,-243.89 589.12,-207.89 646.12,-207.89 646.12,-243.89"/>
<text text-anchor="middle" x="617.62" y="-222.19" font-family="Times,serif" font-size="14.00">Verifier</text>
</a>
</g>
</g>
<!-- Creator -->
<g id="node10" class="node">
<title>Creator</title>
<g id="a_node10"><a xlink:href="/develop/Data/models.html#creator" xlink:title="Creator" target="_top">
<polygon fill="#eeefff" stroke="#dddeee" points="646.12,-70.89 589.12,-70.89 589.12,-34.89 646.12,-34.89 646.12,-70.89"/>
<text text-anchor="middle" x="617.62" y="-49.19" font-family="Times,serif" font-size="14.00">Creator</text>
</a>
</g>
</g>
<!-- ObservationMatrix -->
<g id="node11" class="node">
<title>ObservationMatrix</title>
<g id="a_node11"><a xlink:href="/develop/Data/models.html#observation-matrix" xlink:title="ObservationMatrix" target="_top">
<polygon fill="#eeefff" stroke="#dddeee" points="553.12,-124.89 433.12,-124.89 433.12,-88.89 553.12,-88.89 553.12,-124.89"/>
<text text-anchor="middle" x="493.12" y="-103.19" font-family="Times,serif" font-size="14.00">ObservationMatrix</text>
</a>
</g>
</g>
<!-- Project -->
<g id="node12" class="node">
<title>Project</title>
<g id="a_node12"><a xlink:href="/develop/Data/models.html#project" xlink:title="Project" target="_top">
<polygon fill="#eeefff" stroke="#dddeee" points="520.62,-70.89 465.62,-70.89 465.62,-34.89 520.62,-34.89 520.62,-70.89"/>
<text text-anchor="middle" x="493.12" y="-49.19" font-family="Times,serif" font-size="14.00">Project</text>
</a>
</g>
</g>
<!-- Updater -->
<g id="node13" class="node">
<title>Updater</title>
<g id="a_node13"><a xlink:href="/develop/Data/models.html#updater" xlink:title="Updater" target="_top">
<polygon fill="#eeefff" stroke="#dddeee" points="742.12,-70.89 682.12,-70.89 682.12,-34.89 742.12,-34.89 742.12,-70.89"/>
<text text-anchor="middle" x="712.12" y="-49.19" font-family="Times,serif" font-size="14.00">Updater</text>
</a>
</g>
</g>
</g>
</svg>
