<?xml version="1.0" encoding="UTF-8" standalone="no"?>
<!DOCTYPE svg PUBLIC "-//W3C//DTD SVG 1.1//EN"
 "http://www.w3.org/Graphics/SVG/1.1/DTD/svg11.dtd">
<!-- Generated by graphviz version 12.2.1 (20241206.2353)
 -->
<!-- Title: Observation Pages: 1 -->
<svg width="948pt" height="848pt"
 viewBox="0.00 0.00 948.22 848.00" xmlns="http://www.w3.org/2000/svg" xmlns:xlink="http://www.w3.org/1999/xlink">
<g id="graph0" class="graph" transform="scale(1 1) rotate(0) translate(4 844)">
<title>Observation</title>
<polygon fill="white" stroke="none" points="-4,4 -4,-844 944.22,-844 944.22,4 -4,4"/>
<!-- Citation&#45;&gt;Source -->
<g id="edge17" class="edge">
<title>Citation&#45;&gt;Source</title>
<path fill="none" stroke="black" stroke-dasharray="1,5" d="M129.78,-767C209.77,-767 388.25,-767 466.11,-767"/>
<polygon fill="black" stroke="black" points="465.77,-770.5 475.77,-767 465.77,-763.5 465.77,-770.5"/>
</g>
<!-- Citation&#45;&gt;CitationTopic -->
<g id="edge1" class="edge">
<title>Citation&#45;&gt;CitationTopic</title>
<path fill="none" stroke="black" stroke-dasharray="1,5" d="M123.2,-776.83C150.4,-784.82 189.34,-796.26 221.23,-805.62"/>
<polygon fill="black" stroke="black" points="220.15,-808.95 230.73,-808.41 222.13,-802.24 220.15,-808.95"/>
</g>
<!-- Confidence&#45;&gt;ConfidenceLevel -->
<g id="edge3" class="edge">
<title>Confidence&#45;&gt;ConfidenceLevel</title>
<path fill="none" stroke="black" stroke-dasharray="1,5" d="M142.38,-610C163.95,-610 189.12,-610 211.83,-610"/>
<polygon fill="black" stroke="black" points="211.58,-613.5 221.58,-610 211.58,-606.5 211.58,-613.5"/>
</g>
<!-- Depiction&#45;&gt;Image -->
<g id="edge8" class="edge">
<title>Depiction&#45;&gt;Image</title>
<path fill="none" stroke="black" stroke-dasharray="1,5" d="M136.01,-394C167.85,-394 209.61,-394 239.39,-394"/>
<polygon fill="black" stroke="black" points="239.06,-397.5 249.06,-394 239.06,-390.5 239.06,-397.5"/>
</g>
<!-- Tag&#45;&gt;Keyword -->
<g id="edge11" class="edge">
<title>Tag&#45;&gt;Keyword</title>
<path fill="none" stroke="black" stroke-dasharray="1,5" d="M116.15,-340C146.54,-340 196.88,-340 233.16,-340"/>
<polygon fill="black" stroke="black" points="232.89,-343.5 242.89,-340 232.89,-336.5 232.89,-343.5"/>
</g>
<!-- ProtocolRelationship&#45;&gt;Protocol -->
<g id="edge15" class="edge">
<title>ProtocolRelationship&#45;&gt;Protocol</title>
<path fill="none" stroke="black" stroke-dasharray="1,5" d="M177.87,-286C198.07,-286 218.6,-286 235.71,-286"/>
<polygon fill="black" stroke="black" points="235.44,-289.5 245.44,-286 235.44,-282.5 235.44,-289.5"/>
</g>
<!-- Observation&#45;&gt;Citation -->
<g id="edge2" class="edge">
<title>Observation&#45;&gt;Citation</title>
<path fill="none" stroke="black" d="M265.89,-474.33C248.19,-509.5 212.05,-579.72 177.43,-637 155.2,-673.78 127.04,-714.62 108.71,-740.54"/>
<polygon fill="black" stroke="black" points="106.01,-738.29 103.08,-748.47 111.72,-742.34 106.01,-738.29"/>
</g>
<!-- Observation&#45;&gt;Confidence -->
<g id="edge4" class="edge">
<title>Observation&#45;&gt;Confidence</title>
<path fill="none" stroke="black" d="M265.71,-474.45C249.89,-503.67 218.41,-554.37 177.43,-583 168.32,-589.36 157.66,-594.26 146.97,-598.03"/>
<polygon fill="black" stroke="black" points="146.24,-594.59 137.78,-600.96 148.37,-601.26 146.24,-594.59"/>
</g>
<!-- Observation&#45;&gt;DataAttribute -->
<g id="edge5" class="edge">
<title>Observation&#45;&gt;DataAttribute</title>
<path fill="none" stroke="black" d="M253.33,-474.3C234.15,-491.33 205.75,-514.31 177.43,-529 168.29,-533.74 158.17,-537.81 148.16,-541.24"/>
<polygon fill="black" stroke="black" points="147.26,-537.85 138.82,-544.25 149.41,-544.51 147.26,-537.85"/>
</g>
<!-- Observation&#45;&gt;Depiction -->
<g id="edge6" class="edge">
<title>Observation&#45;&gt;Depiction</title>
<path fill="none" stroke="black" d="M228.13,-436.75C211.99,-431.73 193.94,-426.11 177.43,-421 164.35,-416.95 150.16,-412.58 137.09,-408.55"/>
<polygon fill="black" stroke="black" points="138.46,-405.31 127.87,-405.72 136.4,-412 138.46,-405.31"/>
</g>
<!-- Observation&#45;&gt;Identifier -->
<g id="edge7" class="edge">
<title>Observation&#45;&gt;Identifier</title>
<path fill="none" stroke="black" d="M224.36,-466.05C197.28,-473.28 164.5,-482.03 138.07,-489.09"/>
<polygon fill="black" stroke="black" points="137.38,-485.65 128.62,-491.61 139.19,-492.41 137.38,-485.65"/>
</g>
<!-- Observation&#45;&gt;Tag -->
<g id="edge20" class="edge">
<title>Observation&#45;&gt;Tag</title>
<path fill="none" stroke="black" d="M234.01,-434.93C226.71,-430.98 219.53,-426.33 213.43,-421 191.71,-402.02 200.55,-384.24 177.43,-367 162.69,-356.01 143.42,-349.44 126.7,-345.54"/>
<polygon fill="black" stroke="black" points="127.6,-342.16 117.1,-343.56 126.18,-349.01 127.6,-342.16"/>
</g>
<!-- Observation&#45;&gt;Note -->
<g id="edge12" class="edge">
<title>Observation&#45;&gt;Note</title>
<path fill="none" stroke="black" d="M213.04,-450.63C185.16,-450.04 153.36,-449.36 129.04,-448.84"/>
<polygon fill="black" stroke="black" points="129.34,-445.35 119.26,-448.63 129.19,-452.34 129.34,-445.35"/>
</g>
<!-- Observation&#45;&gt;ProtocolRelationship -->
<g id="edge14" class="edge">
<title>Observation&#45;&gt;ProtocolRelationship</title>
<path fill="none" stroke="black" d="M231.77,-435.63C224.96,-431.65 218.52,-426.82 213.43,-421 180.09,-382.94 213.62,-348.36 177.43,-313 173.74,-309.39 169.58,-306.27 165.13,-303.56"/>
<polygon fill="black" stroke="black" points="166.81,-300.49 156.33,-298.97 163.58,-306.7 166.81,-300.49"/>
</g>
<!-- Observation&#45;&gt;Source -->
<g id="edge33" class="edge">
<title>Observation&#45;&gt;Source</title>
<path fill="none" stroke="black" stroke-dasharray="1,5" d="M296.47,-483.07C310.51,-509.11 329.92,-547.59 342.56,-583 365.76,-647.98 330.37,-684.64 378.56,-734 401.52,-757.51 439.09,-764.93 467.07,-766.97"/>
<polygon fill="none" stroke="black" points="288.28,-476.43 295.31,-472.6 299.14,-479.62 292.12,-483.45 288.28,-476.43"/>
<polyline fill="none" stroke="black" points="295.63,-481.54 296.58,-483.29"/>
<polygon fill="none" stroke="black" points="476.99,-763.48 476.56,-771.47 468.58,-771.05 469,-763.06 476.99,-763.48"/>
<polyline fill="none" stroke="black" points="468.79,-767.06 466.79,-766.95"/>
</g>
<!-- Observation&#45;&gt;Descriptor -->
<g id="edge28" class="edge">
<title>Observation&#45;&gt;Descriptor</title>
<path fill="none" stroke="black" stroke-dasharray="5,2" d="M341.61,-434.56C353.84,-431.29 366.58,-427.96 378.56,-425 408.48,-417.6 442.64,-410.01 467.69,-404.6"/>
<polygon fill="black" stroke="black" points="340.76,-431.17 332.02,-437.15 342.59,-437.93 340.76,-431.17"/>
</g>
<!-- Observation&#45;&gt;ImportAttribute -->
<g id="edge9" class="edge">
<title>Observation&#45;&gt;ImportAttribute</title>
<path fill="none" stroke="black" d="M321.57,-435.02C328.99,-431.04 336.32,-426.36 342.56,-421 363.89,-402.69 355.19,-384.61 378.56,-369 397.12,-356.61 420.37,-349.78 441.77,-346.06"/>
<polygon fill="black" stroke="black" points="442.24,-349.53 451.6,-344.57 441.19,-342.61 442.24,-349.53"/>
</g>
<!-- Observation&#45;&gt;InternalAttribute -->
<g id="edge10" class="edge">
<title>Observation&#45;&gt;InternalAttribute</title>
<path fill="none" stroke="black" d="M324.19,-435.61C331,-431.63 337.45,-426.8 342.56,-421 375.45,-383.67 341.42,-348.11 378.56,-315 395.23,-300.15 418.08,-292.79 439.7,-289.34"/>
<polygon fill="black" stroke="black" points="439.89,-292.85 449.35,-288.07 438.97,-285.91 439.89,-292.85"/>
</g>
<!-- Observation&#45;&gt;PinboardItem -->
<g id="edge13" class="edge">
<title>Observation&#45;&gt;PinboardItem</title>
<path fill="none" stroke="black" d="M325.05,-435.86C331.68,-431.87 337.84,-426.97 342.56,-421 387.78,-363.83 326.8,-312.32 378.56,-261 396.68,-243.04 423.7,-235.76 448,-233.19"/>
<polygon fill="black" stroke="black" points="448.09,-236.7 457.79,-232.42 447.54,-229.72 448.09,-236.7"/>
</g>
<!-- Observation&#45;&gt;Role -->
<g id="edge16" class="edge">
<title>Observation&#45;&gt;Role</title>
<path fill="none" stroke="black" d="M326.03,-436.16C332.45,-432.14 338.3,-427.16 342.56,-421 390.39,-352.02 322.79,-107.73 378.56,-45 400.1,-20.78 437.71,-15.4 466.08,-15.25"/>
<polygon fill="black" stroke="black" points="465.64,-18.74 475.71,-15.42 465.77,-11.74 465.64,-18.74"/>
</g>
<!-- Observation&#45;&gt;SubsequentCitation -->
<g id="edge18" class="edge">
<title>Observation&#45;&gt;SubsequentCitation</title>
<path fill="none" stroke="black" d="M291.11,-474.24C304.79,-499.93 327.14,-543.7 342.56,-583 362.59,-634.04 336.53,-665.79 378.56,-701 399.32,-718.39 559.5,-731.91 655.16,-738.52"/>
<polygon fill="black" stroke="black" points="654.76,-742.01 664.98,-739.19 655.24,-735.02 654.76,-742.01"/>
</g>
<!-- Observation&#45;&gt;Uri -->
<g id="edge22" class="edge">
<title>Observation&#45;&gt;Uri</title>
<path fill="none" stroke="black" d="M325.51,-436.21C332.08,-432.17 338.11,-427.17 342.56,-421 412.91,-323.56 297.01,-241.27 378.56,-153 400.39,-129.37 437.55,-123.83 465.71,-123.48"/>
<polygon fill="black" stroke="black" points="465.6,-126.98 475.64,-123.6 465.68,-119.98 465.6,-126.98"/>
</g>
<!-- Observation&#45;&gt;Uuid -->
<g id="edge23" class="edge">
<title>Observation&#45;&gt;Uuid</title>
<path fill="none" stroke="black" d="M325.62,-436.29C332.19,-432.25 338.18,-427.22 342.56,-421 425.55,-303.32 282.02,-205.85 378.56,-99 400.2,-75.06 437.55,-69.59 465.81,-69.34"/>
<polygon fill="black" stroke="black" points="465.73,-72.84 475.79,-69.5 465.84,-65.84 465.73,-72.84"/>
</g>
<!-- Observation&#45;&gt;VerifierRole -->
<g id="edge24" class="edge">
<title>Observation&#45;&gt;VerifierRole</title>
<path fill="none" stroke="black" d="M325.33,-436.08C331.93,-432.06 338.01,-427.1 342.56,-421 400.31,-343.75 311.95,-276.75 378.56,-207 397.12,-187.57 426.07,-180.47 451.45,-178.39"/>
<polygon fill="black" stroke="black" points="451.5,-181.89 461.29,-177.85 451.12,-174.9 451.5,-181.89"/>
</g>
<!-- Observation&#45;&gt;CharacterState -->
<g id="edge26" class="edge">
<title>Observation&#45;&gt;CharacterState</title>
<path fill="none" stroke="black" stroke-dasharray="5,2" d="M294.3,-484.62C318.68,-536.05 365,-631.27 378.56,-642 400.62,-659.45 431.11,-667.48 456.47,-671.14"/>
<polygon fill="black" stroke="black" points="297.53,-483.27 290.09,-475.72 291.2,-486.26 297.53,-483.27"/>
</g>
<!-- Observation&#45;&gt;Creator -->
<g id="edge27" class="edge">
<title>Observation&#45;&gt;Creator</title>
<path fill="none" stroke="black" stroke-dasharray="5,2" d="M295.32,-484.22C311.9,-512.99 340.52,-553.23 378.56,-571 488.1,-622.17 638.27,-577.19 699.22,-554.84"/>
<polygon fill="black" stroke="black" points="298.41,-482.58 290.5,-475.53 292.29,-485.97 298.41,-482.58"/>
</g>
<!-- Observation&#45;&gt;Project -->
<g id="edge30" class="edge">
<title>Observation&#45;&gt;Project</title>
<path fill="none" stroke="black" stroke-dasharray="5,2" d="M317.77,-478.99C335.64,-490.46 357.51,-503.19 378.56,-512 411.23,-525.67 451.22,-534.66 477.05,-539.53"/>
<polygon fill="black" stroke="black" points="319.83,-476.16 309.55,-473.61 316,-482.01 319.83,-476.16"/>
</g>
<!-- Observation&#45;&gt;Updater -->
<g id="edge31" class="edge">
<title>Observation&#45;&gt;Updater</title>
<path fill="none" stroke="black" stroke-dasharray="5,2" d="M339.32,-470.15C352.18,-473.51 365.75,-476.69 378.56,-479 558.61,-511.51 608.72,-482.86 788.47,-517 810.24,-521.14 834.25,-528.18 852.41,-534.04"/>
<polygon fill="black" stroke="black" points="340.27,-466.78 329.71,-467.55 338.45,-473.53 340.27,-466.78"/>
</g>
<!-- Observation&#45;&gt;OriginCitation -->
<g id="edge32" class="edge">
<title>Observation&#45;&gt;OriginCitation</title>
<path fill="none" stroke="black" d="M291.8,-483.77C307.16,-517.56 336.25,-569.8 378.56,-597 402.69,-612.51 577.35,-637.92 669.69,-650.48"/>
<polygon fill="none" stroke="black" points="284.19,-476.42 291.52,-473.2 294.74,-480.52 287.42,-483.74 284.19,-476.42"/>
<polyline fill="none" stroke="black" points="291.08,-482.13 291.88,-483.96"/>
<polygon fill="none" stroke="black" points="680.03,-647.85 678.95,-655.77 671.03,-654.7 672.1,-646.77 680.03,-647.85"/>
<polyline fill="none" stroke="black" points="671.56,-650.74 669.58,-650.47"/>
</g>
<!-- Observation&#45;&gt;Objects with Observations -->
<g id="edge29" class="edge">
<title>Observation&#45;&gt;Objects with Observations</title>
<path fill="none" stroke="black" stroke-dasharray="5,2" d="M354.11,-452C361.47,-452 369.07,-452 376.76,-452"/>
<polygon fill="black" stroke="black" points="354.28,-448.5 344.28,-452 354.28,-455.5 354.28,-448.5"/>
</g>
<!-- Source&#45;&gt;SubsequentCitation -->
<!-- Source&#45;&gt;OriginCitation -->
<!-- CitationTopic&#45;&gt;Topic -->
<g id="edge21" class="edge">
<title>CitationTopic&#45;&gt;Topic</title>
<path fill="none" stroke="black" stroke-dasharray="1,5" d="M323.92,-822C365.57,-822 426.86,-822 466.01,-822"/>
<polygon fill="black" stroke="black" points="465.89,-825.5 475.89,-822 465.89,-818.5 465.89,-825.5"/>
</g>
<!-- Role&#45;&gt;Verifier -->
<!-- SubsequentCitation&#45;&gt;SubsequentSource -->
<g id="edge19" class="edge">
<title>SubsequentCitation&#45;&gt;SubsequentSource</title>
<path fill="none" stroke="black" stroke-dasharray="1,5" d="M788.96,-743C796.9,-743 805.07,-743 813.13,-743"/>
<polygon fill="black" stroke="black" points="812.88,-746.5 822.88,-743 812.88,-739.5 812.88,-746.5"/>
</g>
<!-- VerifierRole&#45;&gt;Verifier -->
<g id="edge25" class="edge">
<title>VerifierRole&#45;&gt;Verifier</title>
<path fill="none" stroke="black" stroke-dasharray="1,5" d="M546.24,-174.41C571.15,-170.21 603.41,-163.37 630.72,-153 651.02,-145.29 672.2,-133.78 689.47,-123.36"/>
<polygon fill="black" stroke="black" points="691.19,-126.42 697.87,-118.19 687.52,-120.46 691.19,-126.42"/>
</g>
<!-- Creator&#45;&gt;Updater -->
<!-- Project&#45;&gt;Creator -->
<!-- Citation -->
<g id="node1" class="node">
<title>Citation</title>
<g id="a_node1"><a xlink:href="/develop/Data/models.html#citation" xlink:title="Citation" target="_top">
<ellipse fill="#abcdef" stroke="#dddeee" cx="88.71" cy="-767" rx="40.6" ry="18"/>
<text text-anchor="middle" x="88.71" y="-761.95" font-family="Times,serif" font-size="14.00">Citation</text>
</a>
</g>
</g>
<!-- Confidence -->
<g id="node2" class="node">
<title>Confidence</title>
<g id="a_node2"><a xlink:href="/develop/Data/models.html#confidence" xlink:title="Confidence" target="_top">
<ellipse fill="#abcdef" stroke="#dddeee" cx="88.71" cy="-610" rx="53.4" ry="18"/>
<text text-anchor="middle" x="88.71" y="-604.95" font-family="Times,serif" font-size="14.00">Confidence</text>
</a>
</g>
</g>
<!-- DataAttribute -->
<g id="node3" class="node">
<title>DataAttribute</title>
<g id="a_node3"><a xlink:href="/develop/Data/models.html#data-attribute" xlink:title="DataAttribute" target="_top">
<ellipse fill="#abcdef" stroke="#dddeee" cx="88.71" cy="-556" rx="61.59" ry="18"/>
<text text-anchor="middle" x="88.71" y="-550.95" font-family="Times,serif" font-size="14.00">DataAttribute</text>
</a>
</g>
</g>
<!-- Depiction -->
<g id="node4" class="node">
<title>Depiction</title>
<g id="a_node4"><a xlink:href="/develop/Data/models.html#depiction" xlink:title="Depiction" target="_top">
<ellipse fill="#abcdef" stroke="#dddeee" cx="88.71" cy="-394" rx="47.26" ry="18"/>
<text text-anchor="middle" x="88.71" y="-388.95" font-family="Times,serif" font-size="14.00">Depiction</text>
</a>
</g>
</g>
<!-- Identifier -->
<g id="node5" class="node">
<title>Identifier</title>
<g id="a_node5"><a xlink:href="/develop/Data/models.html#identifier" xlink:title="Identifier" target="_top">
<ellipse fill="#abcdef" stroke="#dddeee" cx="88.71" cy="-502" rx="45.21" ry="18"/>
<text text-anchor="middle" x="88.71" y="-496.95" font-family="Times,serif" font-size="14.00">Identifier</text>
</a>
</g>
</g>
<!-- Tag -->
<g id="node6" class="node">
<title>Tag</title>
<g id="a_node6"><a xlink:href="/develop/Data/models.html#tag" xlink:title="Tag" target="_top">
<ellipse fill="#abcdef" stroke="#dddeee" cx="88.71" cy="-340" rx="27" ry="18"/>
<text text-anchor="middle" x="88.71" y="-334.95" font-family="Times,serif" font-size="14.00">Tag</text>
</a>
</g>
</g>
<!-- Note -->
<g id="node7" class="node">
<title>Note</title>
<g id="a_node7"><a xlink:href="/develop/Data/models.html#note" xlink:title="Note" target="_top">
<ellipse fill="#abcdef" stroke="#dddeee" cx="88.71" cy="-448" rx="28.83" ry="18"/>
<text text-anchor="middle" x="88.71" y="-442.95" font-family="Times,serif" font-size="14.00">Note</text>
</a>
</g>
</g>
<!-- ProtocolRelationship -->
<g id="node8" class="node">
<title>ProtocolRelationship</title>
<g id="a_node8"><a xlink:href="/develop/Data/models.html#protocol-relationship" xlink:title="ProtocolRelationship" target="_top">
<ellipse fill="#abcdef" stroke="#dddeee" cx="88.71" cy="-286" rx="88.71" ry="18"/>
<text text-anchor="middle" x="88.71" y="-280.95" font-family="Times,serif" font-size="14.00">ProtocolRelationship</text>
</a>
</g>
</g>
<!-- Observation -->
<g id="node9" class="node">
<title>Observation</title>
<g id="a_node9"><a xlink:href="/develop/Data/models.html#observation" xlink:title="Observation" target="_top">
<polygon fill="#cdefab" stroke="#dedede" points="338.56,-444.54 338.56,-459.46 303.08,-470 252.91,-470 217.43,-459.46 217.43,-444.54 252.91,-434 303.08,-434 338.56,-444.54"/>
<polygon fill="none" stroke="#dedede" points="342.56,-441.56 342.56,-462.44 303.66,-474 252.33,-474 213.43,-462.44 213.43,-441.56 252.33,-430 303.66,-430 342.56,-441.56"/>
<text text-anchor="middle" x="277.99" y="-446.95" font-family="Times,serif" font-size="14.00">Observation</text>
</a>
</g>
</g>
<!-- Source -->
<g id="node10" class="node">
<title>Source</title>
<g id="a_node10"><a xlink:href="/develop/Data/models.html#source" xlink:title="Source" target="_top">
<path fill="#fedcba" stroke="#dddeee" d="M489.64,-749C489.64,-749 519.64,-749 519.64,-749 525.64,-749 531.64,-755 531.64,-761 531.64,-761 531.64,-773 531.64,-773 531.64,-779 525.64,-785 519.64,-785 519.64,-785 489.64,-785 489.64,-785 483.64,-785 477.64,-779 477.64,-773 477.64,-773 477.64,-761 477.64,-761 477.64,-755 483.64,-749 489.64,-749"/>
<text text-anchor="middle" x="504.64" y="-762.2" font-family="Times,serif" font-size="14.00">Source</text>
</a>
</g>
</g>
<!-- Descriptor -->
<g id="node11" class="node">
<title>Descriptor</title>
<g id="a_node11"><a xlink:href="/develop/Data/models.html#descriptor" xlink:title="Descriptor" target="_top">
<path fill="#fedcba" stroke="#dddeee" d="M480.14,-379C480.14,-379 529.14,-379 529.14,-379 535.14,-379 541.14,-385 541.14,-391 541.14,-391 541.14,-403 541.14,-403 541.14,-409 535.14,-415 529.14,-415 529.14,-415 480.14,-415 480.14,-415 474.14,-415 468.14,-409 468.14,-403 468.14,-403 468.14,-391 468.14,-391 468.14,-385 474.14,-379 480.14,-379"/>
<text text-anchor="middle" x="504.64" y="-392.2" font-family="Times,serif" font-size="14.00">Descriptor</text>
</a>
</g>
</g>
<!-- CitationTopic -->
<g id="node12" class="node">
<title>CitationTopic</title>
<g id="a_node12"><a xlink:href="/develop/Data/models.html#citation-topic" xlink:title="CitationTopic" target="_top">
<polygon fill="#eeefff" stroke="#dddeee" points="323.49,-840 232.49,-840 232.49,-804 323.49,-804 323.49,-840"/>
<text text-anchor="middle" x="277.99" y="-816.95" font-family="Times,serif" font-size="14.00">CitationTopic</text>
</a>
</g>
</g>
<!-- ConfidenceLevel -->
<g id="node13" class="node">
<title>ConfidenceLevel</title>
<g id="a_node13"><a xlink:href="/develop/Data/models.html#confidence-level" xlink:title="ConfidenceLevel" target="_top">
<polygon fill="#eeefff" stroke="#dddeee" points="332.49,-628 223.49,-628 223.49,-592 332.49,-592 332.49,-628"/>
<text text-anchor="middle" x="277.99" y="-604.95" font-family="Times,serif" font-size="14.00">ConfidenceLevel</text>
</a>
</g>
</g>
<!-- Image -->
<g id="node14" class="node">
<title>Image</title>
<g id="a_node14"><a xlink:href="/develop/Data/models.html#image" xlink:title="Image" target="_top">
<polygon fill="#eeefff" stroke="#dddeee" points="304.99,-412 250.99,-412 250.99,-376 304.99,-376 304.99,-412"/>
<text text-anchor="middle" x="277.99" y="-388.95" font-family="Times,serif" font-size="14.00">Image</text>
</a>
</g>
</g>
<!-- ImportAttribute -->
<g id="node15" class="node">
<title>ImportAttribute</title>
<g id="a_node15"><a xlink:href="/develop/Data/models.html#import-attribute" xlink:title="ImportAttribute" target="_top">
<polygon fill="#eeefff" stroke="#dddeee" points="555.76,-360 453.51,-360 453.51,-324 555.76,-324 555.76,-360"/>
<text text-anchor="middle" x="504.64" y="-336.95" font-family="Times,serif" font-size="14.00">ImportAttribute</text>
</a>
</g>
</g>
<!-- InternalAttribute -->
<g id="node16" class="node">
<title>InternalAttribute</title>
<g id="a_node16"><a xlink:href="/develop/Data/models.html#internal-attribute" xlink:title="InternalAttribute" target="_top">
<polygon fill="#eeefff" stroke="#dddeee" points="558.01,-306 451.26,-306 451.26,-270 558.01,-270 558.01,-306"/>
<text text-anchor="middle" x="504.64" y="-282.95" font-family="Times,serif" font-size="14.00">InternalAttribute</text>
</a>
</g>
</g>
<!-- Keyword -->
<g id="node17" class="node">
<title>Keyword</title>
<g id="a_node17"><a xlink:href="/develop/Data/models.html#keyword" xlink:title="Keyword" target="_top">
<polygon fill="#eeefff" stroke="#dddeee" points="311.12,-358 244.87,-358 244.87,-322 311.12,-322 311.12,-358"/>
<text text-anchor="middle" x="277.99" y="-334.95" font-family="Times,serif" font-size="14.00">Keyword</text>
</a>
</g>
</g>
<!-- PinboardItem -->
<g id="node18" class="node">
<title>PinboardItem</title>
<g id="a_node18"><a xlink:href="/develop/Data/models.html#pinboard-item" xlink:title="PinboardItem" target="_top">
<polygon fill="#eeefff" stroke="#dddeee" points="549.76,-252 459.51,-252 459.51,-216 549.76,-216 549.76,-252"/>
<text text-anchor="middle" x="504.64" y="-228.95" font-family="Times,serif" font-size="14.00">PinboardItem</text>
</a>
</g>
</g>
<!-- Protocol -->
<g id="node19" class="node">
<title>Protocol</title>
<g id="a_node19"><a xlink:href="/develop/Data/models.html#protocol" xlink:title="Protocol" target="_top">
<polygon fill="#eeefff" stroke="#dddeee" points="308.87,-304 247.12,-304 247.12,-268 308.87,-268 308.87,-304"/>
<text text-anchor="middle" x="277.99" y="-280.95" font-family="Times,serif" font-size="14.00">Protocol</text>
</a>
</g>
</g>
<!-- Role -->
<g id="node20" class="node">
<title>Role</title>
<g id="a_node20"><a xlink:href="/develop/Data/models.html#role" xlink:title="Role" target="_top">
<polygon fill="#eeefff" stroke="#dddeee" points="531.64,-36 477.64,-36 477.64,0 531.64,0 531.64,-36"/>
<text text-anchor="middle" x="504.64" y="-12.95" font-family="Times,serif" font-size="14.00">Role</text>
</a>
</g>
</g>
<!-- SubsequentCitation -->
<g id="node21" class="node">
<title>SubsequentCitation</title>
<g id="a_node21"><a xlink:href="/develop/Data/models.html#subsequent-citation" xlink:title="SubsequentCitation" target="_top">
<polygon fill="#eeefff" stroke="#dddeee" points="788.47,-761 666.72,-761 666.72,-725 788.47,-725 788.47,-761"/>
<text text-anchor="middle" x="727.59" y="-737.95" font-family="Times,serif" font-size="14.00">SubsequentCitation</text>
</a>
</g>
</g>
<!-- SubsequentSource -->
<g id="node22" class="node">
<title>SubsequentSource</title>
<g id="a_node22"><a xlink:href="/develop/Data/models.html#subsequent-source" xlink:title="SubsequentSource" target="_top">
<polygon fill="#eeefff" stroke="#dddeee" points="940.22,-761 824.47,-761 824.47,-725 940.22,-725 940.22,-761"/>
<text text-anchor="middle" x="882.34" y="-737.95" font-family="Times,serif" font-size="14.00">SubsequentSource</text>
</a>
</g>
</g>
<!-- Topic -->
<g id="node23" class="node">
<title>Topic</title>
<g id="a_node23"><a xlink:href="/develop/Data/models.html#topic" xlink:title="Topic" target="_top">
<polygon fill="#eeefff" stroke="#dddeee" points="531.64,-840 477.64,-840 477.64,-804 531.64,-804 531.64,-840"/>
<text text-anchor="middle" x="504.64" y="-816.95" font-family="Times,serif" font-size="14.00">Topic</text>
</a>
</g>
</g>
<!-- Uri -->
<g id="node24" class="node">
<title>Uri</title>
<g id="a_node24"><a xlink:href="/develop/Data/models.html#uri" xlink:title="Uri" target="_top">
<polygon fill="#eeefff" stroke="#dddeee" points="531.64,-144 477.64,-144 477.64,-108 531.64,-108 531.64,-144"/>
<text text-anchor="middle" x="504.64" y="-120.95" font-family="Times,serif" font-size="14.00">Uri</text>
</a>
</g>
</g>
<!-- Uuid -->
<g id="node25" class="node">
<title>Uuid</title>
<g id="a_node25"><a xlink:href="/develop/Data/models.html#uuid" xlink:title="Uuid" target="_top">
<polygon fill="#eeefff" stroke="#dddeee" points="531.64,-90 477.64,-90 477.64,-54 531.64,-54 531.64,-90"/>
<text text-anchor="middle" x="504.64" y="-66.95" font-family="Times,serif" font-size="14.00">Uuid</text>
</a>
</g>
</g>
<!-- VerifierRole -->
<g id="node26" class="node">
<title>VerifierRole</title>
<g id="a_node26"><a xlink:href="/develop/Data/models.html#verifier-role" xlink:title="VerifierRole" target="_top">
<polygon fill="#eeefff" stroke="#dddeee" points="546.01,-198 463.26,-198 463.26,-162 546.01,-162 546.01,-198"/>
<text text-anchor="middle" x="504.64" y="-174.95" font-family="Times,serif" font-size="14.00">VerifierRole</text>
</a>
</g>
</g>
<!-- Verifier -->
<g id="node27" class="node">
<title>Verifier</title>
<g id="a_node27"><a xlink:href="/develop/Data/models.html#verifier" xlink:title="Verifier" target="_top">
<polygon fill="#eeefff" stroke="#dddeee" points="756.22,-117 698.97,-117 698.97,-81 756.22,-81 756.22,-117"/>
<text text-anchor="middle" x="727.59" y="-93.95" font-family="Times,serif" font-size="14.00">Verifier</text>
</a>
</g>
</g>
<!-- CharacterState -->
<g id="node28" class="node">
<title>CharacterState</title>
<g id="a_node28"><a xlink:href="/develop/Data/models.html#character-state" xlink:title="CharacterState" target="_top">
<polygon fill="#eeefff" stroke="#dddeee" points="552.39,-692 456.89,-692 456.89,-656 552.39,-656 552.39,-692"/>
<text text-anchor="middle" x="504.64" y="-668.95" font-family="Times,serif" font-size="14.00">CharacterState</text>
</a>
</g>
</g>
<!-- Creator -->
<g id="node29" class="node">
<title>Creator</title>
<g id="a_node29"><a xlink:href="/develop/Data/models.html#creator" xlink:title="Creator" target="_top">
<polygon fill="#eeefff" stroke="#dddeee" points="755.84,-562 699.34,-562 699.34,-526 755.84,-526 755.84,-562"/>
<text text-anchor="middle" x="727.59" y="-538.95" font-family="Times,serif" font-size="14.00">Creator</text>
</a>
</g>
</g>
<!-- Project -->
<g id="node30" class="node">
<title>Project</title>
<g id="a_node30"><a xlink:href="/develop/Data/models.html#project" xlink:title="Project" target="_top">
<polygon fill="#eeefff" stroke="#dddeee" points="531.76,-562 477.51,-562 477.51,-526 531.76,-526 531.76,-562"/>
<text text-anchor="middle" x="504.64" y="-538.95" font-family="Times,serif" font-size="14.00">Project</text>
</a>
</g>
</g>
<!-- Updater -->
<g id="node31" class="node">
<title>Updater</title>
<g id="a_node31"><a xlink:href="/develop/Data/models.html#updater" xlink:title="Updater" target="_top">
<polygon fill="#eeefff" stroke="#dddeee" points="912.09,-562 852.59,-562 852.59,-526 912.09,-526 912.09,-562"/>
<text text-anchor="middle" x="882.34" y="-538.95" font-family="Times,serif" font-size="14.00">Updater</text>
</a>
</g>
</g>
<!-- OriginCitation -->
<g id="node32" class="node">
<title>OriginCitation</title>
<g id="a_node32"><a xlink:href="/develop/Data/models.html#origin-citation" xlink:title="OriginCitation" target="_top">
<polygon fill="#eeefff" stroke="#dddeee" points="774.97,-676 680.22,-676 680.22,-640 774.97,-640 774.97,-676"/>
<text text-anchor="middle" x="727.59" y="-652.95" font-family="Times,serif" font-size="14.00">OriginCitation</text>
</a>
</g>
</g>
<!-- Objects with Observations -->
<g id="node33" class="node">
<title>Objects with Observations</title>
<g id="a_node33"><a xlink:href="/develop/Data/models.html#objects with observation" xlink:title="Objects with Observations" target="_top">
<polygon fill="#cdabef" stroke="#dedede" points="630.72,-452 567.68,-470 441.6,-470 378.56,-452 441.6,-434 567.68,-434 630.72,-452"/>
<text text-anchor="middle" x="504.64" y="-446.95" font-family="Times,serif" font-size="14.00">Objects with Observations</text>
</a>
</g>
</g>
</g>
</svg>
