<?xml version="1.0" encoding="UTF-8" standalone="no"?>
<!DOCTYPE svg PUBLIC "-//W3C//DTD SVG 1.1//EN"
 "http://www.w3.org/Graphics/SVG/1.1/DTD/svg11.dtd">
<!-- Generated by graphviz version 12.2.1 (20241206.2353)
 -->
<!-- Title: ObservationMatrixColumnItem Pages: 1 -->
<svg width="766pt" height="443pt"
 viewBox="0.00 0.00 766.24 443.19" xmlns="http://www.w3.org/2000/svg" xmlns:xlink="http://www.w3.org/1999/xlink">
<g id="graph0" class="graph" transform="scale(1 1) rotate(0) translate(4 439.19)">
<title>ObservationMatrixColumnItem</title>
<polygon fill="white" stroke="none" points="-4,4 -4,-439.19 762.24,-439.19 762.24,4 -4,4"/>
<!-- Tag&#45;&gt;Keyword -->
<g id="edge2" class="edge">
<title>Tag&#45;&gt;Keyword</title>
<path fill="none" stroke="black" stroke-dasharray="1,5" d="M72.67,-144.08C110.34,-143.91 179.92,-143.6 225.37,-143.39"/>
<polygon fill="black" stroke="black" points="225.15,-146.89 235.14,-143.35 225.12,-139.89 225.15,-146.89"/>
</g>
<!-- ObservationMatrixColumnItem&#45;&gt;Identifier -->
<g id="edge1" class="edge">
<title>ObservationMatrixColumnItem&#45;&gt;Identifier</title>
<path fill="none" stroke="black" d="M188.17,-220.45C157.31,-227.79 123.07,-235.93 95.95,-242.37"/>
<polygon fill="black" stroke="black" points="95.19,-238.96 86.27,-244.67 96.81,-245.77 95.19,-238.96"/>
</g>
<!-- ObservationMatrixColumnItem&#45;&gt;Tag -->
<g id="edge6" class="edge">
<title>ObservationMatrixColumnItem&#45;&gt;Tag</title>
<path fill="none" stroke="black" d="M179,-183.04C161.48,-179.11 143.32,-174.76 126.42,-170.19 111.14,-166.07 94.46,-160.79 80.29,-156.07"/>
<polygon fill="black" stroke="black" points="81.57,-152.81 70.97,-152.92 79.33,-159.44 81.57,-152.81"/>
</g>
<!-- ObservationMatrixColumnItem&#45;&gt;Note -->
<g id="edge3" class="edge">
<title>ObservationMatrixColumnItem&#45;&gt;Note</title>
<path fill="none" stroke="black" d="M126.26,-200.55C111.58,-200.49 97.69,-200.43 85.73,-200.37"/>
<polygon fill="black" stroke="black" points="85.98,-196.87 75.97,-200.33 85.95,-203.87 85.98,-196.87"/>
</g>
<!-- ObservationMatrixColumnItem&#45;&gt;PinboardItem -->
<g id="edge4" class="edge">
<title>ObservationMatrixColumnItem&#45;&gt;PinboardItem</title>
<path fill="none" stroke="black" d="M287.74,-223.64C316.91,-261.98 380.98,-340.72 449.99,-390.19 451.53,-391.3 453.12,-392.37 454.75,-393.41"/>
<polygon fill="black" stroke="black" points="452.69,-396.27 463.09,-398.3 456.23,-390.23 452.69,-396.27"/>
</g>
<!-- ObservationMatrixColumnItem&#45;&gt;Role -->
<g id="edge5" class="edge">
<title>ObservationMatrixColumnItem&#45;&gt;Role</title>
<path fill="none" stroke="black" d="M297.19,-223.68C330.89,-252.16 392.24,-301.67 449.99,-336.19 456.93,-340.34 464.62,-344.3 472.09,-347.83"/>
<polygon fill="black" stroke="black" points="470.46,-350.94 481.01,-351.91 473.37,-344.57 470.46,-350.94"/>
</g>
<!-- ObservationMatrixColumnItem&#45;&gt;Uri -->
<g id="edge7" class="edge">
<title>ObservationMatrixColumnItem&#45;&gt;Uri</title>
<path fill="none" stroke="black" d="M320.42,-223.57C365.58,-244.1 431.45,-274.05 472.12,-292.54"/>
<polygon fill="black" stroke="black" points="470.46,-295.63 481.01,-296.59 473.36,-289.26 470.46,-295.63"/>
</g>
<!-- ObservationMatrixColumnItem&#45;&gt;Uuid -->
<g id="edge8" class="edge">
<title>ObservationMatrixColumnItem&#45;&gt;Uuid</title>
<path fill="none" stroke="black" d="M354.95,-220.23C394.63,-229.25 440.03,-239.58 471.16,-246.65"/>
<polygon fill="black" stroke="black" points="470.35,-250.06 480.88,-248.86 471.9,-243.23 470.35,-250.06"/>
</g>
<!-- ObservationMatrixColumnItem&#45;&gt;VerifierRole -->
<g id="edge9" class="edge">
<title>ObservationMatrixColumnItem&#45;&gt;VerifierRole</title>
<path fill="none" stroke="black" d="M414.18,-201.19C429.23,-201.19 443.73,-201.19 456.67,-201.19"/>
<polygon fill="black" stroke="black" points="456.57,-204.69 466.57,-201.19 456.57,-197.69 456.57,-204.69"/>
</g>
<!-- ObservationMatrixColumnItem&#45;&gt;Creator -->
<g id="edge11" class="edge">
<title>ObservationMatrixColumnItem&#45;&gt;Creator</title>
<path fill="none" stroke="black" stroke-dasharray="5,2" d="M391.11,-183.54C460.42,-171.71 539.66,-154.9 569.49,-136.19 594.19,-120.71 613.23,-92.11 623.81,-73.37"/>
<polygon fill="black" stroke="black" points="390.85,-180.03 381.57,-185.14 392.01,-186.93 390.85,-180.03"/>
</g>
<!-- ObservationMatrixColumnItem&#45;&gt;ObservationMatrix -->
<g id="edge12" class="edge">
<title>ObservationMatrixColumnItem&#45;&gt;ObservationMatrix</title>
<path fill="none" stroke="black" stroke-dasharray="5,2" d="M385.33,-181.49C395.23,-178.27 404.92,-174.53 413.99,-170.19 432.53,-161.33 432.9,-152.6 449.99,-141.19 457.05,-136.49 464.85,-131.86 472.41,-127.66"/>
<polygon fill="black" stroke="black" points="384.52,-178.08 375.98,-184.35 386.56,-184.78 384.52,-178.08"/>
</g>
<!-- ObservationMatrixColumnItem&#45;&gt;Project -->
<g id="edge13" class="edge">
<title>ObservationMatrixColumnItem&#45;&gt;Project</title>
<path fill="none" stroke="black" stroke-dasharray="5,2" d="M397.46,-181.45C403.33,-178.21 408.89,-174.48 413.99,-170.19 446.36,-143.03 420.75,-112.7 449.99,-82.19 458.69,-73.12 471.02,-66.82 482.15,-62.6"/>
<polygon fill="black" stroke="black" points="396.09,-178.23 388.68,-185.8 399.19,-184.5 396.09,-178.23"/>
</g>
<!-- ObservationMatrixColumnItem&#45;&gt;Updater -->
<g id="edge14" class="edge">
<title>ObservationMatrixColumnItem&#45;&gt;Updater</title>
<path fill="none" stroke="black" stroke-dasharray="5,2" d="M400.02,-181.16C405.02,-177.97 409.71,-174.33 413.99,-170.19 460.82,-124.96 398.61,-68.18 449.99,-28.19 523.53,29.03 643.38,-15.07 698.32,-40.47"/>
<polygon fill="black" stroke="black" points="398.37,-178.07 391.38,-186.04 401.81,-184.17 398.37,-178.07"/>
</g>
<!-- Role&#45;&gt;Verifier -->
<!-- VerifierRole&#45;&gt;Verifier -->
<g id="edge10" class="edge">
<title>VerifierRole&#45;&gt;Verifier</title>
<path fill="none" stroke="black" stroke-dasharray="1,5" d="M551.34,-218.08C557.57,-221.17 563.81,-224.58 569.49,-228.19 582.32,-236.36 595.32,-246.91 606.2,-256.51"/>
<polygon fill="black" stroke="black" points="603.53,-258.82 613.3,-262.93 608.23,-253.63 603.53,-258.82"/>
</g>
<!-- Creator&#45;&gt;Updater -->
<!-- Project&#45;&gt;Creator -->
<!-- Identifier -->
<g id="node1" class="node">
<title>Identifier</title>
<g id="a_node1"><a xlink:href="/develop/Data/models.html#identifier" xlink:title="Identifier" target="_top">
<ellipse fill="#abcdef" stroke="#dddeee" cx="45.21" cy="-254.19" rx="45.21" ry="18"/>
<text text-anchor="middle" x="45.21" y="-249.14" font-family="Times,serif" font-size="14.00">Identifier</text>
</a>
</g>
</g>
<!-- Tag -->
<g id="node2" class="node">
<title>Tag</title>
<g id="a_node2"><a xlink:href="/develop/Data/models.html#tag" xlink:title="Tag" target="_top">
<ellipse fill="#abcdef" stroke="#dddeee" cx="45.21" cy="-144.19" rx="27" ry="18"/>
<text text-anchor="middle" x="45.21" y="-139.14" font-family="Times,serif" font-size="14.00">Tag</text>
</a>
</g>
</g>
<!-- Note -->
<g id="node3" class="node">
<title>Note</title>
<g id="a_node3"><a xlink:href="/develop/Data/models.html#note" xlink:title="Note" target="_top">
<ellipse fill="#abcdef" stroke="#dddeee" cx="45.21" cy="-200.19" rx="28.83" ry="18"/>
<text text-anchor="middle" x="45.21" y="-195.14" font-family="Times,serif" font-size="14.00">Note</text>
</a>
</g>
</g>
<!-- ObservationMatrixColumnItem -->
<g id="node4" class="node">
<title>ObservationMatrixColumnItem</title>
<g id="a_node4"><a xlink:href="/develop/Data/models.html#observation-matrix-column-item" xlink:title="ObservationMatrixColumnItem" target="_top">
<polygon fill="#cdefab" stroke="#dedede" points="409.99,-193.74 409.99,-208.65 328.11,-219.19 212.3,-219.19 130.42,-208.65 130.42,-193.74 212.3,-183.19 328.11,-183.19 409.99,-193.74"/>
<polygon fill="none" stroke="#dedede" points="413.99,-190.22 413.99,-212.17 328.36,-223.19 212.05,-223.19 126.42,-212.17 126.42,-190.22 212.05,-179.19 328.36,-179.19 413.99,-190.22"/>
<text text-anchor="middle" x="270.21" y="-196.14" font-family="Times,serif" font-size="14.00">ObservationMatrixColumnItem</text>
</a>
</g>
</g>
<!-- Keyword -->
<g id="node5" class="node">
<title>Keyword</title>
<g id="a_node5"><a xlink:href="/develop/Data/models.html#keyword" xlink:title="Keyword" target="_top">
<polygon fill="#eeefff" stroke="#dddeee" points="303.33,-161.19 237.08,-161.19 237.08,-125.19 303.33,-125.19 303.33,-161.19"/>
<text text-anchor="middle" x="270.21" y="-138.14" font-family="Times,serif" font-size="14.00">Keyword</text>
</a>
</g>
</g>
<!-- PinboardItem -->
<g id="node6" class="node">
<title>PinboardItem</title>
<g id="a_node6"><a xlink:href="/develop/Data/models.html#pinboard-item" xlink:title="PinboardItem" target="_top">
<polygon fill="#eeefff" stroke="#dddeee" points="554.87,-435.19 464.62,-435.19 464.62,-399.19 554.87,-399.19 554.87,-435.19"/>
<text text-anchor="middle" x="509.74" y="-412.14" font-family="Times,serif" font-size="14.00">PinboardItem</text>
</a>
</g>
</g>
<!-- Role -->
<g id="node7" class="node">
<title>Role</title>
<g id="a_node7"><a xlink:href="/develop/Data/models.html#role" xlink:title="Role" target="_top">
<polygon fill="#eeefff" stroke="#dddeee" points="536.74,-381.19 482.74,-381.19 482.74,-345.19 536.74,-345.19 536.74,-381.19"/>
<text text-anchor="middle" x="509.74" y="-358.14" font-family="Times,serif" font-size="14.00">Role</text>
</a>
</g>
</g>
<!-- Uri -->
<g id="node8" class="node">
<title>Uri</title>
<g id="a_node8"><a xlink:href="/develop/Data/models.html#uri" xlink:title="Uri" target="_top">
<polygon fill="#eeefff" stroke="#dddeee" points="536.74,-327.19 482.74,-327.19 482.74,-291.19 536.74,-291.19 536.74,-327.19"/>
<text text-anchor="middle" x="509.74" y="-304.14" font-family="Times,serif" font-size="14.00">Uri</text>
</a>
</g>
</g>
<!-- Uuid -->
<g id="node9" class="node">
<title>Uuid</title>
<g id="a_node9"><a xlink:href="/develop/Data/models.html#uuid" xlink:title="Uuid" target="_top">
<polygon fill="#eeefff" stroke="#dddeee" points="536.74,-273.19 482.74,-273.19 482.74,-237.19 536.74,-237.19 536.74,-273.19"/>
<text text-anchor="middle" x="509.74" y="-250.14" font-family="Times,serif" font-size="14.00">Uuid</text>
</a>
</g>
</g>
<!-- VerifierRole -->
<g id="node10" class="node">
<title>VerifierRole</title>
<g id="a_node10"><a xlink:href="/develop/Data/models.html#verifier-role" xlink:title="VerifierRole" target="_top">
<polygon fill="#eeefff" stroke="#dddeee" points="551.12,-219.19 468.37,-219.19 468.37,-183.19 551.12,-183.19 551.12,-219.19"/>
<text text-anchor="middle" x="509.74" y="-196.14" font-family="Times,serif" font-size="14.00">VerifierRole</text>
</a>
</g>
</g>
<!-- Verifier -->
<g id="node11" class="node">
<title>Verifier</title>
<g id="a_node11"><a xlink:href="/develop/Data/models.html#verifier" xlink:title="Verifier" target="_top">
<polygon fill="#eeefff" stroke="#dddeee" points="662.74,-300.19 605.49,-300.19 605.49,-264.19 662.74,-264.19 662.74,-300.19"/>
<text text-anchor="middle" x="634.12" y="-277.14" font-family="Times,serif" font-size="14.00">Verifier</text>
</a>
</g>
</g>
<!-- Creator -->
<g id="node12" class="node">
<title>Creator</title>
<g id="a_node12"><a xlink:href="/develop/Data/models.html#creator" xlink:title="Creator" target="_top">
<polygon fill="#eeefff" stroke="#dddeee" points="662.37,-73.19 605.87,-73.19 605.87,-37.19 662.37,-37.19 662.37,-73.19"/>
<text text-anchor="middle" x="634.12" y="-50.14" font-family="Times,serif" font-size="14.00">Creator</text>
</a>
</g>
</g>
<!-- ObservationMatrix -->
<g id="node13" class="node">
<title>ObservationMatrix</title>
<g id="a_node13"><a xlink:href="/develop/Data/models.html#observation-matrix" xlink:title="ObservationMatrix" target="_top">
<polygon fill="#eeefff" stroke="#dddeee" points="569.49,-127.19 449.99,-127.19 449.99,-91.19 569.49,-91.19 569.49,-127.19"/>
<text text-anchor="middle" x="509.74" y="-104.14" font-family="Times,serif" font-size="14.00">ObservationMatrix</text>
</a>
</g>
</g>
<!-- Project -->
<g id="node14" class="node">
<title>Project</title>
<g id="a_node14"><a xlink:href="/develop/Data/models.html#project" xlink:title="Project" target="_top">
<polygon fill="#eeefff" stroke="#dddeee" points="536.87,-73.19 482.62,-73.19 482.62,-37.19 536.87,-37.19 536.87,-73.19"/>
<text text-anchor="middle" x="509.74" y="-50.14" font-family="Times,serif" font-size="14.00">Project</text>
</a>
</g>
</g>
<!-- Updater -->
<g id="node15" class="node">
<title>Updater</title>
<g id="a_node15"><a xlink:href="/develop/Data/models.html#updater" xlink:title="Updater" target="_top">
<polygon fill="#eeefff" stroke="#dddeee" points="758.24,-73.19 698.74,-73.19 698.74,-37.19 758.24,-37.19 758.24,-73.19"/>
<text text-anchor="middle" x="728.49" y="-50.14" font-family="Times,serif" font-size="14.00">Updater</text>
</a>
</g>
</g>
</g>
</svg>
