<?xml version="1.0" encoding="UTF-8" standalone="no"?>
<!DOCTYPE svg PUBLIC "-//W3C//DTD SVG 1.1//EN"
 "http://www.w3.org/Graphics/SVG/1.1/DTD/svg11.dtd">
<!-- Generated by graphviz version 12.2.1 (20241206.2353)
 -->
<!-- Title: ObservationMatrix Pages: 1 -->
<svg width="1101pt" height="1023pt"
 viewBox="0.00 0.00 1101.42 1022.77" xmlns="http://www.w3.org/2000/svg" xmlns:xlink="http://www.w3.org/1999/xlink">
<g id="graph0" class="graph" transform="scale(1 1) rotate(0) translate(4 1018.77)">
<title>ObservationMatrix</title>
<polygon fill="white" stroke="none" points="-4,4 -4,-1018.77 1097.42,-1018.77 1097.42,4 -4,4"/>
<!-- AlternateValue&#45;&gt;AlternateValueLanguage -->
<g id="edge1" class="edge">
<title>AlternateValue&#45;&gt;AlternateValueLanguage</title>
<path fill="none" stroke="black" stroke-dasharray="1,5" d="M79.06,-878.13C96.04,-902.3 129.55,-945.19 168.39,-969.27 170.56,-970.62 172.79,-971.9 175.09,-973.12"/>
<polygon fill="black" stroke="black" points="173.54,-976.26 184.07,-977.43 176.57,-969.95 173.54,-976.26"/>
</g>
<!-- Citation&#45;&gt;Source -->
<g id="edge25" class="edge">
<title>Citation&#45;&gt;Source</title>
<path fill="none" stroke="black" stroke-dasharray="1,5" d="M106.86,-667.64C185.17,-662.43 358.69,-650.89 435.42,-645.78"/>
<polygon fill="black" stroke="black" points="435.62,-649.28 445.37,-645.12 435.16,-642.3 435.62,-649.28"/>
</g>
<!-- Citation&#45;&gt;CitationTopic -->
<g id="edge3" class="edge">
<title>Citation&#45;&gt;CitationTopic</title>
<path fill="none" stroke="black" stroke-dasharray="1,5" d="M79.53,-687.7C112.08,-733.72 200.56,-858.75 240.1,-914.64"/>
<polygon fill="black" stroke="black" points="237.16,-916.55 245.8,-922.69 242.88,-912.51 237.16,-916.55"/>
</g>
<!-- Tag&#45;&gt;Keyword -->
<g id="edge15" class="edge">
<title>Tag&#45;&gt;Keyword</title>
<path fill="none" stroke="black" stroke-dasharray="1,5" d="M93.55,-400.27C125.09,-400.27 178.34,-400.27 216.04,-400.27"/>
<polygon fill="black" stroke="black" points="215.68,-403.77 225.68,-400.27 215.68,-396.77 215.68,-403.77"/>
</g>
<!-- Source&#45;&gt;SubsequentCitation -->
<!-- Source&#45;&gt;OriginCitation -->
<!-- ObservationMatrix&#45;&gt;AlternateValue -->
<g id="edge2" class="edge">
<title>ObservationMatrix&#45;&gt;AlternateValue</title>
<path fill="none" stroke="black" d="M246.33,-557.77C212.06,-615.65 120.92,-769.55 83.54,-832.67"/>
<polygon fill="black" stroke="black" points="80.67,-830.65 78.59,-841.04 86.69,-834.21 80.67,-830.65"/>
</g>
<!-- ObservationMatrix&#45;&gt;Citation -->
<g id="edge4" class="edge">
<title>ObservationMatrix&#45;&gt;Citation</title>
<path fill="none" stroke="black" d="M237.87,-557.5C213.77,-581.15 172.95,-618.51 132.39,-643.27 125.27,-647.62 117.33,-651.56 109.51,-655.01"/>
<polygon fill="black" stroke="black" points="108.28,-651.73 100.4,-658.81 110.97,-658.19 108.28,-651.73"/>
</g>
<!-- ObservationMatrix&#45;&gt;DataAttribute -->
<g id="edge6" class="edge">
<title>ObservationMatrix&#45;&gt;DataAttribute</title>
<path fill="none" stroke="black" d="M212.55,-515.17C188.57,-504.97 158.95,-492.41 132.39,-481.27 126.31,-478.73 119.9,-476.06 113.58,-473.43"/>
<polygon fill="black" stroke="black" points="115.06,-470.25 104.48,-469.65 112.38,-476.72 115.06,-470.25"/>
</g>
<!-- ObservationMatrix&#45;&gt;Identifier -->
<g id="edge12" class="edge">
<title>ObservationMatrix&#45;&gt;Identifier</title>
<path fill="none" stroke="black" d="M212.55,-555.37C188.57,-565.58 158.95,-578.14 132.39,-589.27 124.94,-592.4 117,-595.7 109.32,-598.89"/>
<polygon fill="black" stroke="black" points="108.02,-595.64 100.12,-602.7 110.69,-602.11 108.02,-595.64"/>
</g>
<!-- ObservationMatrix&#45;&gt;Tag -->
<g id="edge28" class="edge">
<title>ObservationMatrix&#45;&gt;Tag</title>
<path fill="none" stroke="black" d="M237.87,-513.05C213.77,-489.4 172.95,-452.04 132.39,-427.27 122.87,-421.46 111.87,-416.37 101.65,-412.22"/>
<polygon fill="black" stroke="black" points="102.98,-408.98 92.39,-408.64 100.46,-415.51 102.98,-408.98"/>
</g>
<!-- ObservationMatrix&#45;&gt;Note -->
<g id="edge16" class="edge">
<title>ObservationMatrix&#45;&gt;Note</title>
<path fill="none" stroke="black" d="M173.32,-547.39C149.84,-550.68 125.56,-554.09 106.17,-556.81"/>
<polygon fill="black" stroke="black" points="105.68,-553.34 96.27,-558.2 106.66,-560.27 105.68,-553.34"/>
</g>
<!-- ObservationMatrix&#45;&gt;Attribution -->
<g id="edge38" class="edge">
<title>ObservationMatrix&#45;&gt;Attribution</title>
<path fill="none" stroke="black" d="M162.88,-521.7C149.93,-519.88 137,-518.07 125.02,-516.39"/>
<polygon fill="none" stroke="black" points="173.31,-519.12 172.2,-527.04 164.27,-525.93 165.39,-518.01 173.31,-519.12"/>
<polyline fill="none" stroke="black" points="164.83,-521.97 162.85,-521.69"/>
<polygon fill="none" stroke="black" points="114.71,-518.98 115.82,-511.06 123.74,-512.17 122.63,-520.09 114.71,-518.98"/>
<polyline fill="none" stroke="black" points="123.19,-516.13 125.17,-516.41"/>
</g>
<!-- ObservationMatrix&#45;&gt;Otu -->
<g id="edge35" class="edge">
<title>ObservationMatrix&#45;&gt;Otu</title>
<path fill="none" stroke="black" stroke-dasharray="5,2" d="M264.37,-568.69C271.71,-636.09 297.99,-788.74 388.92,-869.27 398.38,-877.65 771.85,-965.82 875.25,-990.11"/>
<polygon fill="black" stroke="black" points="267.88,-568.61 263.4,-559.01 260.92,-569.31 267.88,-568.61"/>
</g>
<!-- ObservationMatrix&#45;&gt;Source -->
<g id="edge40" class="edge">
<title>ObservationMatrix&#45;&gt;Source</title>
<path fill="none" stroke="black" stroke-dasharray="1,5" d="M305.12,-563.22C329.28,-578.16 360.19,-596.29 388.92,-610.27 404.45,-617.83 422.17,-624.98 437.35,-630.68"/>
<polygon fill="none" stroke="black" points="294.52,-561.33 298.75,-554.54 305.54,-558.77 301.31,-565.56 294.52,-561.33"/>
<polyline fill="none" stroke="black" points="303.43,-562.16 305.12,-563.22"/>
<polygon fill="none" stroke="black" points="447.82,-630.28 445.05,-637.79 437.54,-635.02 440.31,-627.51 447.82,-630.28"/>
<polyline fill="none" stroke="black" points="438.93,-631.27 437.05,-630.57"/>
</g>
<!-- ObservationMatrix&#45;&gt;ObservationMatrixRow -->
<g id="edge20" class="edge">
<title>ObservationMatrix&#45;&gt;ObservationMatrixRow</title>
<path fill="none" stroke="black" d="M263.06,-557.63C268.07,-616.16 290.56,-773.82 388.92,-839.27 458.65,-885.68 559.1,-871.06 624.23,-853.75"/>
<polygon fill="black" stroke="black" points="625,-857.17 633.71,-851.14 623.14,-850.42 625,-857.17"/>
</g>
<!-- ObservationMatrix&#45;&gt;ObservationMatrixColumn -->
<g id="edge18" class="edge">
<title>ObservationMatrix&#45;&gt;ObservationMatrixColumn</title>
<path fill="none" stroke="black" d="M271.47,-557.52C289.01,-594.22 329.56,-666.46 388.92,-697.27 459.61,-733.96 681.47,-732.58 808.95,-728.41"/>
<polygon fill="black" stroke="black" points="808.84,-731.91 818.72,-728.07 808.61,-724.92 808.84,-731.91"/>
</g>
<!-- ObservationMatrix&#45;&gt;Documentation -->
<g id="edge8" class="edge">
<title>ObservationMatrix&#45;&gt;Documentation</title>
<path fill="none" stroke="black" d="M310.03,-515.42C333.68,-505.94 362.65,-494.64 388.92,-485.27 396.77,-482.48 405.07,-479.66 413.29,-476.94"/>
<polygon fill="black" stroke="black" points="414.13,-480.35 422.55,-473.92 411.96,-473.7 414.13,-480.35"/>
</g>
<!-- ObservationMatrix&#45;&gt;ImportAttribute -->
<g id="edge13" class="edge">
<title>ObservationMatrix&#45;&gt;ImportAttribute</title>
<path fill="none" stroke="black" d="M283.66,-512.86C307.63,-489.57 348.05,-453.48 388.92,-431.27 396.24,-427.3 404.24,-423.79 412.3,-420.74"/>
<polygon fill="black" stroke="black" points="413.21,-424.14 421.46,-417.49 410.87,-417.54 413.21,-424.14"/>
</g>
<!-- ObservationMatrix&#45;&gt;InternalAttribute -->
<g id="edge14" class="edge">
<title>ObservationMatrix&#45;&gt;InternalAttribute</title>
<path fill="none" stroke="black" d="M281.41,-512.94C300.25,-491.39 329.21,-457.65 352.92,-427.27 369.77,-405.69 366.77,-393.37 388.92,-377.27 395.26,-372.67 402.41,-368.83 409.8,-365.63"/>
<polygon fill="black" stroke="black" points="410.89,-368.96 418.94,-362.07 408.35,-362.44 410.89,-368.96"/>
</g>
<!-- ObservationMatrix&#45;&gt;ObservationMatrixColumnItem -->
<g id="edge17" class="edge">
<title>ObservationMatrix&#45;&gt;ObservationMatrixColumnItem</title>
<path fill="none" stroke="black" d="M268.2,-557.71C282.26,-601.53 319.82,-698.03 388.92,-742.27 420.56,-762.53 510.66,-771.39 583.95,-775.26"/>
<polygon fill="black" stroke="black" points="583.41,-778.74 593.58,-775.74 583.77,-771.75 583.41,-778.74"/>
</g>
<!-- ObservationMatrix&#45;&gt;ObservationMatrixRowItem -->
<g id="edge19" class="edge">
<title>ObservationMatrix&#45;&gt;ObservationMatrixRowItem</title>
<path fill="none" stroke="black" d="M267.38,-557.59C280.67,-605.12 318.03,-717.17 388.92,-780.27 392.09,-783.09 395.53,-785.67 399.15,-788.03"/>
<polygon fill="black" stroke="black" points="397.37,-791.05 407.78,-793.03 400.87,-784.99 397.37,-791.05"/>
</g>
<!-- ObservationMatrix&#45;&gt;PinboardItem -->
<g id="edge22" class="edge">
<title>ObservationMatrix&#45;&gt;PinboardItem</title>
<path fill="none" stroke="black" d="M284.67,-513.15C304.99,-492.54 334.22,-460.13 352.92,-427.27 377.12,-384.76 353.94,-357.46 388.92,-323.27 397,-315.38 407.38,-309.8 418.08,-305.85"/>
<polygon fill="black" stroke="black" points="418.91,-309.25 427.37,-302.87 416.78,-302.59 418.91,-309.25"/>
</g>
<!-- ObservationMatrix&#45;&gt;Role -->
<g id="edge23" class="edge">
<title>ObservationMatrix&#45;&gt;Role</title>
<path fill="none" stroke="black" d="M286.36,-512.81C307.21,-492.48 336.26,-460.66 352.92,-427.27 385.08,-362.83 340.23,-322.35 388.92,-269.27 400.9,-256.22 419.2,-249.44 435.68,-245.94"/>
<polygon fill="black" stroke="black" points="435.97,-249.45 445.21,-244.27 434.76,-242.55 435.97,-249.45"/>
</g>
<!-- ObservationMatrix&#45;&gt;SubsequentCitation -->
<g id="edge26" class="edge">
<title>ObservationMatrix&#45;&gt;SubsequentCitation</title>
<path fill="none" stroke="black" d="M342.09,-548.61C357.63,-551.17 373.78,-553.81 388.92,-556.27 467.13,-568.98 556.84,-583.29 617.66,-592.96"/>
<polygon fill="black" stroke="black" points="616.75,-596.36 627.18,-594.47 617.85,-589.45 616.75,-596.36"/>
</g>
<!-- ObservationMatrix&#45;&gt;Uri -->
<g id="edge30" class="edge">
<title>ObservationMatrix&#45;&gt;Uri</title>
<path fill="none" stroke="black" d="M287.1,-513.17C308.44,-493.05 337.77,-461.37 352.92,-427.27 401.36,-318.25 312.29,-252.7 388.92,-161.27 400.47,-147.5 419.06,-140.68 435.84,-137.33"/>
<polygon fill="black" stroke="black" points="436.25,-140.81 445.57,-135.76 435.14,-133.9 436.25,-140.81"/>
</g>
<!-- ObservationMatrix&#45;&gt;Uuid -->
<g id="edge31" class="edge">
<title>ObservationMatrix&#45;&gt;Uuid</title>
<path fill="none" stroke="black" d="M287.72,-512.85C309.14,-492.77 338.25,-461.32 352.92,-427.27 381.24,-361.56 343.57,-162.63 388.92,-107.27 400.31,-93.37 418.89,-86.54 435.7,-83.22"/>
<polygon fill="black" stroke="black" points="436.13,-86.69 445.46,-81.67 435.03,-79.78 436.13,-86.69"/>
</g>
<!-- ObservationMatrix&#45;&gt;VerifierRole -->
<g id="edge32" class="edge">
<title>ObservationMatrix&#45;&gt;VerifierRole</title>
<path fill="none" stroke="black" d="M286.82,-513.04C307.97,-492.84 337.2,-461.11 352.92,-427.27 393.19,-340.6 326.3,-287.47 388.92,-215.27 397.41,-205.49 409.44,-199.22 421.76,-195.22"/>
<polygon fill="black" stroke="black" points="422.41,-198.67 431.13,-192.65 420.56,-191.92 422.41,-198.67"/>
</g>
<!-- ObservationMatrix&#45;&gt;Creator -->
<g id="edge34" class="edge">
<title>ObservationMatrix&#45;&gt;Creator</title>
<path fill="none" stroke="black" stroke-dasharray="5,2" d="M364.41,-542.51C421.91,-545.09 494.82,-545.93 559.42,-539.27 595.09,-535.6 635.42,-526.38 661.49,-519.73"/>
<polygon fill="black" stroke="black" points="364.79,-539.02 354.64,-542.04 364.46,-546.02 364.79,-539.02"/>
</g>
<!-- ObservationMatrix&#45;&gt;Project -->
<g id="edge36" class="edge">
<title>ObservationMatrix&#45;&gt;Project</title>
<path fill="none" stroke="black" stroke-dasharray="5,2" d="M364.39,-524.1C394.85,-520.79 425.65,-517.44 446.66,-515.16"/>
<polygon fill="black" stroke="black" points="364.27,-520.6 354.7,-525.16 365.02,-527.55 364.27,-520.6"/>
</g>
<!-- ObservationMatrix&#45;&gt;Updater -->
<g id="edge37" class="edge">
<title>ObservationMatrix&#45;&gt;Updater</title>
<path fill="none" stroke="black" stroke-dasharray="5,2" d="M295.97,-505.15C316.21,-485.22 340.27,-457.3 352.92,-427.27 385.34,-350.33 327.12,-109.41 388.92,-53.27 526.48,71.68 666.59,-44.77 784.67,-188.27 864.46,-285.24 891.99,-441.15 899.31,-494.04"/>
<polygon fill="black" stroke="black" points="293.75,-502.42 288.95,-511.87 298.59,-507.48 293.75,-502.42"/>
</g>
<!-- ObservationMatrix&#45;&gt;OriginCitation -->
<g id="edge39" class="edge">
<title>ObservationMatrix&#45;&gt;OriginCitation</title>
<path fill="none" stroke="black" d="M279.96,-566.48C301.33,-599.52 340.08,-649.8 388.92,-671.27 467.66,-705.9 569.63,-697.12 632.14,-686.51"/>
<polygon fill="none" stroke="black" points="271.28,-560.21 278.04,-555.94 282.31,-562.71 275.54,-566.98 271.28,-560.21"/>
<polyline fill="none" stroke="black" points="278.93,-564.84 279.99,-566.54"/>
<polygon fill="none" stroke="black" points="641.02,-680.88 642.41,-688.76 634.53,-690.15 633.14,-682.28 641.02,-680.88"/>
<polyline fill="none" stroke="black" points="633.84,-686.21 631.87,-686.56"/>
</g>
<!-- CitationTopic&#45;&gt;Topic -->
<g id="edge29" class="edge">
<title>CitationTopic&#45;&gt;Topic</title>
<path fill="none" stroke="black" stroke-dasharray="1,5" d="M306.51,-942.27C344.75,-942.27 399.11,-942.27 435.23,-942.27"/>
<polygon fill="black" stroke="black" points="435.21,-945.77 445.21,-942.27 435.21,-938.77 435.21,-945.77"/>
</g>
<!-- ObservationMatrixRow&#45;&gt;CollectionObject -->
<g id="edge5" class="edge">
<title>ObservationMatrixRow&#45;&gt;CollectionObject</title>
<path fill="none" stroke="black" stroke-dasharray="1,5" d="M729.97,-850.63C747.24,-859.38 767.49,-870.5 784.67,-882.27 802.09,-894.21 802.37,-902.74 820.67,-913.27 825.98,-916.33 831.68,-919.13 837.51,-921.67"/>
<polygon fill="black" stroke="black" points="836.09,-924.87 846.67,-925.41 838.73,-918.39 836.09,-924.87"/>
</g>
<!-- ObservationMatrixRow&#45;&gt;Otu -->
<g id="edge21" class="edge">
<title>ObservationMatrixRow&#45;&gt;Otu</title>
<path fill="none" stroke="black" stroke-dasharray="1,5" d="M740.16,-850.61C755.98,-858.43 772.54,-868.89 784.67,-882.27 812.77,-913.28 790.06,-940.74 820.67,-969.27 832.58,-980.37 849.18,-986.92 864.24,-990.78"/>
<polygon fill="black" stroke="black" points="863.36,-994.17 873.88,-992.91 864.87,-987.33 863.36,-994.17"/>
</g>
<!-- ObservationMatrixRow&#45;&gt;ObservationMatrixColumn -->
<!-- ObservationMatrixRow&#45;&gt;Extract -->
<g id="edge10" class="edge">
<title>ObservationMatrixRow&#45;&gt;Extract</title>
<path fill="none" stroke="black" stroke-dasharray="1,5" d="M762.9,-850.71C796.82,-859.41 835.89,-869.43 863.9,-876.62"/>
<polygon fill="black" stroke="black" points="862.78,-879.94 873.34,-879.04 864.52,-873.16 862.78,-879.94"/>
</g>
<!-- ObservationMatrixRow&#45;&gt;FieldOccurrence -->
<g id="edge11" class="edge">
<title>ObservationMatrixRow&#45;&gt;FieldOccurrence</title>
<path fill="none" stroke="black" stroke-dasharray="1,5" d="M762.9,-832.27C787.26,-832.27 814.28,-832.27 837.95,-832.27"/>
<polygon fill="black" stroke="black" points="837.76,-835.77 847.76,-832.27 837.76,-828.77 837.76,-835.77"/>
</g>
<!-- ObservationMatrixRow&#45;&gt;Sound -->
<g id="edge24" class="edge">
<title>ObservationMatrixRow&#45;&gt;Sound</title>
<path fill="none" stroke="black" stroke-dasharray="1,5" d="M762.9,-813.84C796.92,-805.11 836.14,-795.05 864.16,-787.87"/>
<polygon fill="black" stroke="black" points="864.78,-791.32 873.6,-785.44 863.04,-784.54 864.78,-791.32"/>
</g>
<!-- ObservationMatrixColumn&#45;&gt;Descriptor -->
<g id="edge7" class="edge">
<title>ObservationMatrixColumn&#45;&gt;Descriptor</title>
<path fill="none" stroke="black" stroke-dasharray="1,5" d="M984.64,-724.27C992.95,-724.27 1001.18,-724.27 1008.93,-724.27"/>
<polygon fill="black" stroke="black" points="1008.77,-727.77 1018.77,-724.27 1008.77,-720.77 1008.77,-727.77"/>
</g>
<!-- Documentation&#45;&gt;Document -->
<g id="edge9" class="edge">
<title>Documentation&#45;&gt;Document</title>
<path fill="none" stroke="black" stroke-dasharray="1,5" d="M524.51,-458.27C559.86,-458.27 607.19,-458.27 642.01,-458.27"/>
<polygon fill="black" stroke="black" points="641.8,-461.77 651.8,-458.27 641.8,-454.77 641.8,-461.77"/>
</g>
<!-- ObservationMatrixRowItem&#45;&gt;ObservationMatrixRow -->
<!-- ObservationMatrixRowItem&#45;&gt;ObservationMatrixColumnItem -->
<!-- Role&#45;&gt;Verifier -->
<!-- SubsequentCitation&#45;&gt;SubsequentSource -->
<g id="edge27" class="edge">
<title>SubsequentCitation&#45;&gt;SubsequentSource</title>
<path fill="none" stroke="black" stroke-dasharray="1,5" d="M751.37,-604.27C776.87,-604.27 806.71,-604.27 833.04,-604.27"/>
<polygon fill="black" stroke="black" points="832.96,-607.77 842.96,-604.27 832.96,-600.77 832.96,-607.77"/>
</g>
<!-- VerifierRole&#45;&gt;Verifier -->
<g id="edge33" class="edge">
<title>VerifierRole&#45;&gt;Verifier</title>
<path fill="none" stroke="black" stroke-dasharray="1,5" d="M515.9,-193.42C554.46,-198.28 611.94,-205.54 649.94,-210.34"/>
<polygon fill="black" stroke="black" points="649.21,-213.77 659.57,-211.55 650.09,-206.83 649.21,-213.77"/>
</g>
<!-- Creator&#45;&gt;Updater -->
<!-- Project&#45;&gt;Creator -->
<!-- AlternateValue -->
<g id="node1" class="node">
<title>AlternateValue</title>
<g id="a_node1"><a xlink:href="/develop/Data/models.html#alternate-value" xlink:title="AlternateValue" target="_top">
<ellipse fill="#abcdef" stroke="#dddeee" cx="66.19" cy="-860.27" rx="66.19" ry="18"/>
<text text-anchor="middle" x="66.19" y="-855.22" font-family="Times,serif" font-size="14.00">AlternateValue</text>
</a>
</g>
</g>
<!-- Citation -->
<g id="node2" class="node">
<title>Citation</title>
<g id="a_node2"><a xlink:href="/develop/Data/models.html#citation" xlink:title="Citation" target="_top">
<ellipse fill="#abcdef" stroke="#dddeee" cx="66.19" cy="-670.27" rx="40.6" ry="18"/>
<text text-anchor="middle" x="66.19" y="-665.22" font-family="Times,serif" font-size="14.00">Citation</text>
</a>
</g>
</g>
<!-- DataAttribute -->
<g id="node3" class="node">
<title>DataAttribute</title>
<g id="a_node3"><a xlink:href="/develop/Data/models.html#data-attribute" xlink:title="DataAttribute" target="_top">
<ellipse fill="#abcdef" stroke="#dddeee" cx="66.19" cy="-454.27" rx="61.59" ry="18"/>
<text text-anchor="middle" x="66.19" y="-449.22" font-family="Times,serif" font-size="14.00">DataAttribute</text>
</a>
</g>
</g>
<!-- Identifier -->
<g id="node4" class="node">
<title>Identifier</title>
<g id="a_node4"><a xlink:href="/develop/Data/models.html#identifier" xlink:title="Identifier" target="_top">
<ellipse fill="#abcdef" stroke="#dddeee" cx="66.19" cy="-616.27" rx="45.21" ry="18"/>
<text text-anchor="middle" x="66.19" y="-611.22" font-family="Times,serif" font-size="14.00">Identifier</text>
</a>
</g>
</g>
<!-- Tag -->
<g id="node5" class="node">
<title>Tag</title>
<g id="a_node5"><a xlink:href="/develop/Data/models.html#tag" xlink:title="Tag" target="_top">
<ellipse fill="#abcdef" stroke="#dddeee" cx="66.19" cy="-400.27" rx="27" ry="18"/>
<text text-anchor="middle" x="66.19" y="-395.22" font-family="Times,serif" font-size="14.00">Tag</text>
</a>
</g>
</g>
<!-- Note -->
<g id="node6" class="node">
<title>Note</title>
<g id="a_node6"><a xlink:href="/develop/Data/models.html#note" xlink:title="Note" target="_top">
<ellipse fill="#abcdef" stroke="#dddeee" cx="66.19" cy="-562.27" rx="28.83" ry="18"/>
<text text-anchor="middle" x="66.19" y="-557.22" font-family="Times,serif" font-size="14.00">Note</text>
</a>
</g>
</g>
<!-- Attribution -->
<g id="node7" class="node">
<title>Attribution</title>
<g id="a_node7"><a xlink:href="/develop/Data/models.html#attribution" xlink:title="Attribution" target="_top">
<ellipse fill="#abcdef" stroke="#dddeee" cx="66.19" cy="-508.27" rx="51.86" ry="18"/>
<text text-anchor="middle" x="66.19" y="-503.22" font-family="Times,serif" font-size="14.00">Attribution</text>
</a>
</g>
</g>
<!-- CollectionObject -->
<g id="node8" class="node">
<title>CollectionObject</title>
<g id="a_node8"><a xlink:href="/develop/Data/models.html#collection-object" xlink:title="CollectionObject" target="_top">
<path fill="#fedcba" stroke="#dddeee" d="M860.42,-923.27C860.42,-923.27 944.67,-923.27 944.67,-923.27 950.67,-923.27 956.67,-929.27 956.67,-935.27 956.67,-935.27 956.67,-947.27 956.67,-947.27 956.67,-953.27 950.67,-959.27 944.67,-959.27 944.67,-959.27 860.42,-959.27 860.42,-959.27 854.42,-959.27 848.42,-953.27 848.42,-947.27 848.42,-947.27 848.42,-935.27 848.42,-935.27 848.42,-929.27 854.42,-923.27 860.42,-923.27"/>
<text text-anchor="middle" x="902.55" y="-936.47" font-family="Times,serif" font-size="14.00">CollectionObject</text>
</a>
</g>
</g>
<!-- Descriptor -->
<g id="node9" class="node">
<title>Descriptor</title>
<g id="a_node9"><a xlink:href="/develop/Data/models.html#descriptor" xlink:title="Descriptor" target="_top">
<path fill="#fedcba" stroke="#dddeee" d="M1032.42,-706.27C1032.42,-706.27 1081.42,-706.27 1081.42,-706.27 1087.42,-706.27 1093.42,-712.27 1093.42,-718.27 1093.42,-718.27 1093.42,-730.27 1093.42,-730.27 1093.42,-736.27 1087.42,-742.27 1081.42,-742.27 1081.42,-742.27 1032.42,-742.27 1032.42,-742.27 1026.42,-742.27 1020.42,-736.27 1020.42,-730.27 1020.42,-730.27 1020.42,-718.27 1020.42,-718.27 1020.42,-712.27 1026.42,-706.27 1032.42,-706.27"/>
<text text-anchor="middle" x="1056.92" y="-719.47" font-family="Times,serif" font-size="14.00">Descriptor</text>
</a>
</g>
</g>
<!-- Otu -->
<g id="node10" class="node">
<title>Otu</title>
<g id="a_node10"><a xlink:href="/develop/Data/models.html#otu" xlink:title="Otu" target="_top">
<path fill="#fedcba" stroke="#dddeee" d="M887.55,-978.27C887.55,-978.27 917.55,-978.27 917.55,-978.27 923.55,-978.27 929.55,-984.27 929.55,-990.27 929.55,-990.27 929.55,-1002.27 929.55,-1002.27 929.55,-1008.27 923.55,-1014.27 917.55,-1014.27 917.55,-1014.27 887.55,-1014.27 887.55,-1014.27 881.55,-1014.27 875.55,-1008.27 875.55,-1002.27 875.55,-1002.27 875.55,-990.27 875.55,-990.27 875.55,-984.27 881.55,-978.27 887.55,-978.27"/>
<text text-anchor="middle" x="902.55" y="-991.47" font-family="Times,serif" font-size="14.00">Otu</text>
</a>
</g>
</g>
<!-- Source -->
<g id="node11" class="node">
<title>Source</title>
<g id="a_node11"><a xlink:href="/develop/Data/models.html#source" xlink:title="Source" target="_top">
<path fill="#fedcba" stroke="#dddeee" d="M459.17,-625.27C459.17,-625.27 489.17,-625.27 489.17,-625.27 495.17,-625.27 501.17,-631.27 501.17,-637.27 501.17,-637.27 501.17,-649.27 501.17,-649.27 501.17,-655.27 495.17,-661.27 489.17,-661.27 489.17,-661.27 459.17,-661.27 459.17,-661.27 453.17,-661.27 447.17,-655.27 447.17,-649.27 447.17,-649.27 447.17,-637.27 447.17,-637.27 447.17,-631.27 453.17,-625.27 459.17,-625.27"/>
<text text-anchor="middle" x="474.17" y="-638.47" font-family="Times,serif" font-size="14.00">Source</text>
</a>
</g>
</g>
<!-- ObservationMatrix -->
<g id="node12" class="node">
<title>ObservationMatrix</title>
<g id="a_node12"><a xlink:href="/develop/Data/models.html#observation-matrix" xlink:title="ObservationMatrix" target="_top">
<polygon fill="#cdefab" stroke="#dedede" points="348.92,-527.82 348.92,-542.73 297.22,-553.27 224.09,-553.27 172.39,-542.73 172.39,-527.82 224.09,-517.27 297.22,-517.27 348.92,-527.82"/>
<polygon fill="none" stroke="#dedede" points="352.92,-524.55 352.92,-546 297.62,-557.27 223.69,-557.27 168.39,-546 168.39,-524.55 223.69,-513.27 297.62,-513.27 352.92,-524.55"/>
<text text-anchor="middle" x="260.65" y="-530.22" font-family="Times,serif" font-size="14.00">ObservationMatrix</text>
</a>
</g>
</g>
<!-- AlternateValueLanguage -->
<g id="node13" class="node">
<title>AlternateValueLanguage</title>
<g id="a_node13"><a xlink:href="/develop/Data/models.html#alternate-value-language" xlink:title="AlternateValueLanguage" target="_top">
<polygon fill="#eeefff" stroke="#dddeee" points="335.78,-1014.27 185.53,-1014.27 185.53,-978.27 335.78,-978.27 335.78,-1014.27"/>
<text text-anchor="middle" x="260.65" y="-991.22" font-family="Times,serif" font-size="14.00">AlternateValueLanguage</text>
</a>
</g>
</g>
<!-- CitationTopic -->
<g id="node14" class="node">
<title>CitationTopic</title>
<g id="a_node14"><a xlink:href="/develop/Data/models.html#citation-topic" xlink:title="CitationTopic" target="_top">
<polygon fill="#eeefff" stroke="#dddeee" points="306.15,-960.27 215.15,-960.27 215.15,-924.27 306.15,-924.27 306.15,-960.27"/>
<text text-anchor="middle" x="260.65" y="-937.22" font-family="Times,serif" font-size="14.00">CitationTopic</text>
</a>
</g>
</g>
<!-- ObservationMatrixRow -->
<g id="node15" class="node">
<title>ObservationMatrixRow</title>
<g id="a_node15"><a xlink:href="/develop/Data/models.html#observation-matrix-row" xlink:title="ObservationMatrixRow" target="_top">
<polygon fill="#eeefff" stroke="#dddeee" points="762.55,-850.27 617.55,-850.27 617.55,-814.27 762.55,-814.27 762.55,-850.27"/>
<text text-anchor="middle" x="690.05" y="-827.22" font-family="Times,serif" font-size="14.00">ObservationMatrixRow</text>
</a>
</g>
</g>
<!-- ObservationMatrixColumn -->
<g id="node16" class="node">
<title>ObservationMatrixColumn</title>
<g id="a_node16"><a xlink:href="/develop/Data/models.html#observation-matrix-column" xlink:title="ObservationMatrixColumn" target="_top">
<polygon fill="#eeefff" stroke="#dddeee" points="984.42,-742.27 820.67,-742.27 820.67,-706.27 984.42,-706.27 984.42,-742.27"/>
<text text-anchor="middle" x="902.55" y="-719.22" font-family="Times,serif" font-size="14.00">ObservationMatrixColumn</text>
</a>
</g>
</g>
<!-- Documentation -->
<g id="node17" class="node">
<title>Documentation</title>
<g id="a_node17"><a xlink:href="/develop/Data/models.html#documentation" xlink:title="Documentation" target="_top">
<polygon fill="#eeefff" stroke="#dddeee" points="524.17,-476.27 424.17,-476.27 424.17,-440.27 524.17,-440.27 524.17,-476.27"/>
<text text-anchor="middle" x="474.17" y="-453.22" font-family="Times,serif" font-size="14.00">Documentation</text>
</a>
</g>
</g>
<!-- Document -->
<g id="node18" class="node">
<title>Document</title>
<g id="a_node18"><a xlink:href="/develop/Data/models.html#document" xlink:title="Document" target="_top">
<polygon fill="#eeefff" stroke="#dddeee" points="726.55,-476.27 653.55,-476.27 653.55,-440.27 726.55,-440.27 726.55,-476.27"/>
<text text-anchor="middle" x="690.05" y="-453.22" font-family="Times,serif" font-size="14.00">Document</text>
</a>
</g>
</g>
<!-- Extract -->
<g id="node19" class="node">
<title>Extract</title>
<g id="a_node19"><a xlink:href="/develop/Data/models.html#extract" xlink:title="Extract" target="_top">
<polygon fill="#eeefff" stroke="#dddeee" points="930.05,-904.27 875.05,-904.27 875.05,-868.27 930.05,-868.27 930.05,-904.27"/>
<text text-anchor="middle" x="902.55" y="-881.22" font-family="Times,serif" font-size="14.00">Extract</text>
</a>
</g>
</g>
<!-- FieldOccurrence -->
<g id="node20" class="node">
<title>FieldOccurrence</title>
<g id="a_node20"><a xlink:href="/develop/Data/models.html#field-occurrence" xlink:title="FieldOccurrence" target="_top">
<polygon fill="#eeefff" stroke="#dddeee" points="955.55,-850.27 849.55,-850.27 849.55,-814.27 955.55,-814.27 955.55,-850.27"/>
<text text-anchor="middle" x="902.55" y="-827.22" font-family="Times,serif" font-size="14.00">FieldOccurrence</text>
</a>
</g>
</g>
<!-- ImportAttribute -->
<g id="node21" class="node">
<title>ImportAttribute</title>
<g id="a_node21"><a xlink:href="/develop/Data/models.html#import-attribute" xlink:title="ImportAttribute" target="_top">
<polygon fill="#eeefff" stroke="#dddeee" points="525.3,-422.27 423.05,-422.27 423.05,-386.27 525.3,-386.27 525.3,-422.27"/>
<text text-anchor="middle" x="474.17" y="-399.22" font-family="Times,serif" font-size="14.00">ImportAttribute</text>
</a>
</g>
</g>
<!-- InternalAttribute -->
<g id="node22" class="node">
<title>InternalAttribute</title>
<g id="a_node22"><a xlink:href="/develop/Data/models.html#internal-attribute" xlink:title="InternalAttribute" target="_top">
<polygon fill="#eeefff" stroke="#dddeee" points="527.55,-368.27 420.8,-368.27 420.8,-332.27 527.55,-332.27 527.55,-368.27"/>
<text text-anchor="middle" x="474.17" y="-345.22" font-family="Times,serif" font-size="14.00">InternalAttribute</text>
</a>
</g>
</g>
<!-- Keyword -->
<g id="node23" class="node">
<title>Keyword</title>
<g id="a_node23"><a xlink:href="/develop/Data/models.html#keyword" xlink:title="Keyword" target="_top">
<polygon fill="#eeefff" stroke="#dddeee" points="293.78,-418.27 227.53,-418.27 227.53,-382.27 293.78,-382.27 293.78,-418.27"/>
<text text-anchor="middle" x="260.65" y="-395.22" font-family="Times,serif" font-size="14.00">Keyword</text>
</a>
</g>
</g>
<!-- ObservationMatrixColumnItem -->
<g id="node24" class="node">
<title>ObservationMatrixColumnItem</title>
<g id="a_node24"><a xlink:href="/develop/Data/models.html#observation-matrix-column-item" xlink:title="ObservationMatrixColumnItem" target="_top">
<polygon fill="#eeefff" stroke="#dddeee" points="784.67,-796.27 595.42,-796.27 595.42,-760.27 784.67,-760.27 784.67,-796.27"/>
<text text-anchor="middle" x="690.05" y="-773.22" font-family="Times,serif" font-size="14.00">ObservationMatrixColumnItem</text>
</a>
</g>
</g>
<!-- ObservationMatrixRowItem -->
<g id="node25" class="node">
<title>ObservationMatrixRowItem</title>
<g id="a_node25"><a xlink:href="/develop/Data/models.html#observation-matrix-row-item" xlink:title="ObservationMatrixRowItem" target="_top">
<polygon fill="#eeefff" stroke="#dddeee" points="559.42,-830.27 388.92,-830.27 388.92,-794.27 559.42,-794.27 559.42,-830.27"/>
<text text-anchor="middle" x="474.17" y="-807.22" font-family="Times,serif" font-size="14.00">ObservationMatrixRowItem</text>
</a>
</g>
</g>
<!-- PinboardItem -->
<g id="node26" class="node">
<title>PinboardItem</title>
<g id="a_node26"><a xlink:href="/develop/Data/models.html#pinboard-item" xlink:title="PinboardItem" target="_top">
<polygon fill="#eeefff" stroke="#dddeee" points="519.3,-314.27 429.05,-314.27 429.05,-278.27 519.3,-278.27 519.3,-314.27"/>
<text text-anchor="middle" x="474.17" y="-291.22" font-family="Times,serif" font-size="14.00">PinboardItem</text>
</a>
</g>
</g>
<!-- Role -->
<g id="node27" class="node">
<title>Role</title>
<g id="a_node27"><a xlink:href="/develop/Data/models.html#role" xlink:title="Role" target="_top">
<polygon fill="#eeefff" stroke="#dddeee" points="501.17,-260.27 447.17,-260.27 447.17,-224.27 501.17,-224.27 501.17,-260.27"/>
<text text-anchor="middle" x="474.17" y="-237.22" font-family="Times,serif" font-size="14.00">Role</text>
</a>
</g>
</g>
<!-- Sound -->
<g id="node28" class="node">
<title>Sound</title>
<g id="a_node28"><a xlink:href="/develop/Data/models.html#sound" xlink:title="Sound" target="_top">
<polygon fill="#eeefff" stroke="#dddeee" points="929.55,-796.27 875.55,-796.27 875.55,-760.27 929.55,-760.27 929.55,-796.27"/>
<text text-anchor="middle" x="902.55" y="-773.22" font-family="Times,serif" font-size="14.00">Sound</text>
</a>
</g>
</g>
<!-- SubsequentCitation -->
<g id="node29" class="node">
<title>SubsequentCitation</title>
<g id="a_node29"><a xlink:href="/develop/Data/models.html#subsequent-citation" xlink:title="SubsequentCitation" target="_top">
<polygon fill="#eeefff" stroke="#dddeee" points="750.92,-622.27 629.17,-622.27 629.17,-586.27 750.92,-586.27 750.92,-622.27"/>
<text text-anchor="middle" x="690.05" y="-599.22" font-family="Times,serif" font-size="14.00">SubsequentCitation</text>
</a>
</g>
</g>
<!-- SubsequentSource -->
<g id="node30" class="node">
<title>SubsequentSource</title>
<g id="a_node30"><a xlink:href="/develop/Data/models.html#subsequent-source" xlink:title="SubsequentSource" target="_top">
<polygon fill="#eeefff" stroke="#dddeee" points="960.42,-622.27 844.67,-622.27 844.67,-586.27 960.42,-586.27 960.42,-622.27"/>
<text text-anchor="middle" x="902.55" y="-599.22" font-family="Times,serif" font-size="14.00">SubsequentSource</text>
</a>
</g>
</g>
<!-- Topic -->
<g id="node31" class="node">
<title>Topic</title>
<g id="a_node31"><a xlink:href="/develop/Data/models.html#topic" xlink:title="Topic" target="_top">
<polygon fill="#eeefff" stroke="#dddeee" points="501.17,-960.27 447.17,-960.27 447.17,-924.27 501.17,-924.27 501.17,-960.27"/>
<text text-anchor="middle" x="474.17" y="-937.22" font-family="Times,serif" font-size="14.00">Topic</text>
</a>
</g>
</g>
<!-- Uri -->
<g id="node32" class="node">
<title>Uri</title>
<g id="a_node32"><a xlink:href="/develop/Data/models.html#uri" xlink:title="Uri" target="_top">
<polygon fill="#eeefff" stroke="#dddeee" points="501.17,-152.27 447.17,-152.27 447.17,-116.27 501.17,-116.27 501.17,-152.27"/>
<text text-anchor="middle" x="474.17" y="-129.22" font-family="Times,serif" font-size="14.00">Uri</text>
</a>
</g>
</g>
<!-- Uuid -->
<g id="node33" class="node">
<title>Uuid</title>
<g id="a_node33"><a xlink:href="/develop/Data/models.html#uuid" xlink:title="Uuid" target="_top">
<polygon fill="#eeefff" stroke="#dddeee" points="501.17,-98.27 447.17,-98.27 447.17,-62.27 501.17,-62.27 501.17,-98.27"/>
<text text-anchor="middle" x="474.17" y="-75.22" font-family="Times,serif" font-size="14.00">Uuid</text>
</a>
</g>
</g>
<!-- VerifierRole -->
<g id="node34" class="node">
<title>VerifierRole</title>
<g id="a_node34"><a xlink:href="/develop/Data/models.html#verifier-role" xlink:title="VerifierRole" target="_top">
<polygon fill="#eeefff" stroke="#dddeee" points="515.55,-206.27 432.8,-206.27 432.8,-170.27 515.55,-170.27 515.55,-206.27"/>
<text text-anchor="middle" x="474.17" y="-183.22" font-family="Times,serif" font-size="14.00">VerifierRole</text>
</a>
</g>
</g>
<!-- Verifier -->
<g id="node35" class="node">
<title>Verifier</title>
<g id="a_node35"><a xlink:href="/develop/Data/models.html#verifier" xlink:title="Verifier" target="_top">
<polygon fill="#eeefff" stroke="#dddeee" points="718.67,-233.27 661.42,-233.27 661.42,-197.27 718.67,-197.27 718.67,-233.27"/>
<text text-anchor="middle" x="690.05" y="-210.22" font-family="Times,serif" font-size="14.00">Verifier</text>
</a>
</g>
</g>
<!-- Creator -->
<g id="node36" class="node">
<title>Creator</title>
<g id="a_node36"><a xlink:href="/develop/Data/models.html#creator" xlink:title="Creator" target="_top">
<polygon fill="#eeefff" stroke="#dddeee" points="718.3,-530.27 661.8,-530.27 661.8,-494.27 718.3,-494.27 718.3,-530.27"/>
<text text-anchor="middle" x="690.05" y="-507.22" font-family="Times,serif" font-size="14.00">Creator</text>
</a>
</g>
</g>
<!-- Project -->
<g id="node37" class="node">
<title>Project</title>
<g id="a_node37"><a xlink:href="/develop/Data/models.html#project" xlink:title="Project" target="_top">
<polygon fill="#eeefff" stroke="#dddeee" points="501.3,-530.27 447.05,-530.27 447.05,-494.27 501.3,-494.27 501.3,-530.27"/>
<text text-anchor="middle" x="474.17" y="-507.22" font-family="Times,serif" font-size="14.00">Project</text>
</a>
</g>
</g>
<!-- Updater -->
<g id="node38" class="node">
<title>Updater</title>
<g id="a_node38"><a xlink:href="/develop/Data/models.html#updater" xlink:title="Updater" target="_top">
<polygon fill="#eeefff" stroke="#dddeee" points="932.3,-530.27 872.8,-530.27 872.8,-494.27 932.3,-494.27 932.3,-530.27"/>
<text text-anchor="middle" x="902.55" y="-507.22" font-family="Times,serif" font-size="14.00">Updater</text>
</a>
</g>
</g>
<!-- OriginCitation -->
<g id="node39" class="node">
<title>OriginCitation</title>
<g id="a_node39"><a xlink:href="/develop/Data/models.html#origin-citation" xlink:title="OriginCitation" target="_top">
<polygon fill="#eeefff" stroke="#dddeee" points="737.42,-692.27 642.67,-692.27 642.67,-656.27 737.42,-656.27 737.42,-692.27"/>
<text text-anchor="middle" x="690.05" y="-669.22" font-family="Times,serif" font-size="14.00">OriginCitation</text>
</a>
</g>
</g>
</g>
</svg>
