<?xml version="1.0" encoding="UTF-8" standalone="no"?>
<!DOCTYPE svg PUBLIC "-//W3C//DTD SVG 1.1//EN"
 "http://www.w3.org/Graphics/SVG/1.1/DTD/svg11.dtd">
<!-- Generated by graphviz version 2.50.0 (20211204.2007)
 -->
<!-- Title: OtuPageLayout Pages: 1 -->
<svg width="525pt" height="387pt"
 viewBox="0.00 0.00 525.11 387.25" xmlns="http://www.w3.org/2000/svg" xmlns:xlink="http://www.w3.org/1999/xlink">
<g id="graph0" class="graph" transform="scale(1 1) rotate(0) translate(4 383.25)">
<title>OtuPageLayout</title>
<polygon fill="white" stroke="transparent" points="-4,4 -4,-383.25 521.11,-383.25 521.11,4 -4,4"/>
<!-- OtuPageLayout&#45;&gt;OtuPageLayoutSection -->
<g id="edge1" class="edge">
<title>OtuPageLayout&#45;&gt;OtuPageLayoutSection</title>
<path fill="none" stroke="black" d="M85.65,-194.25C101.69,-228.67 137.11,-295.34 186.11,-334.25 187.67,-335.49 189.31,-336.68 190.99,-337.83"/>
<polygon fill="black" stroke="black" points="189.4,-340.95 199.77,-343.13 193.02,-334.96 189.4,-340.95"/>
</g>
<!-- OtuPageLayout&#45;&gt;PinboardItem -->
<g id="edge2" class="edge">
<title>OtuPageLayout&#45;&gt;PinboardItem</title>
<path fill="none" stroke="black" d="M93.81,-194.42C113.98,-218.38 148.97,-256.33 186.11,-280.25 191.09,-283.45 196.51,-286.37 202.05,-289.01"/>
<polygon fill="black" stroke="black" points="200.89,-292.32 211.45,-293.17 203.73,-285.92 200.89,-292.32"/>
</g>
<!-- OtuPageLayout&#45;&gt;Role -->
<g id="edge3" class="edge">
<title>OtuPageLayout&#45;&gt;Role</title>
<path fill="none" stroke="black" d="M114.12,-191.95C135.13,-202.57 161.83,-215.63 186.11,-226.25 197.18,-231.09 209.43,-235.97 220.54,-240.22"/>
<polygon fill="black" stroke="black" points="219.36,-243.52 229.95,-243.78 221.84,-236.97 219.36,-243.52"/>
</g>
<!-- OtuPageLayout&#45;&gt;StandardSection -->
<g id="edge4" class="edge">
<title>OtuPageLayout&#45;&gt;StandardSection</title>
<path fill="none" stroke="black" d="M149.03,-161.3C164.16,-159.03 179.95,-156.67 194.62,-154.47"/>
<polygon fill="black" stroke="black" points="195.2,-157.92 204.57,-152.97 194.16,-151 195.2,-157.92"/>
</g>
<!-- OtuPageLayout&#45;&gt;VerifierRole -->
<g id="edge6" class="edge">
<title>OtuPageLayout&#45;&gt;VerifierRole</title>
<path fill="none" stroke="black" d="M149.03,-183.19C168.01,-186.04 188.05,-189.04 205.59,-191.67"/>
<polygon fill="black" stroke="black" points="205.2,-195.15 215.6,-193.17 206.23,-188.23 205.2,-195.15"/>
</g>
<!-- OtuPageLayout&#45;&gt;Creator -->
<g id="edge8" class="edge">
<title>OtuPageLayout&#45;&gt;Creator</title>
<path fill="none" stroke="black" stroke-dasharray="5,2" d="M121.88,-147.27C141.31,-137.35 164.43,-126.38 186.11,-118.25 247.28,-95.3 266.34,-101.52 328.11,-80.25 340,-76.15 352.82,-70.87 363.8,-66.07"/>
<polygon fill="black" stroke="black" points="120.22,-144.19 112.94,-151.9 123.43,-150.41 120.22,-144.19"/>
</g>
<!-- OtuPageLayout&#45;&gt;Project -->
<g id="edge9" class="edge">
<title>OtuPageLayout&#45;&gt;Project</title>
<path fill="none" stroke="black" stroke-dasharray="5,2" d="M108.29,-143.36C129.46,-125.27 158.28,-102.26 186.11,-85.25 199.79,-76.88 216.02,-69.33 229.41,-63.66"/>
<polygon fill="black" stroke="black" points="105.85,-140.84 100.57,-150.03 110.43,-146.14 105.85,-140.84"/>
</g>
<!-- OtuPageLayout&#45;&gt;Updater -->
<g id="edge10" class="edge">
<title>OtuPageLayout&#45;&gt;Updater</title>
<path fill="none" stroke="black" stroke-dasharray="5,2" d="M89.29,-140.61C106,-105.3 138.46,-50 186.11,-26.25 279.58,20.35 318.68,-5.82 421.11,-26.25 433.21,-28.66 445.88,-33.37 456.79,-38.19"/>
<polygon fill="black" stroke="black" points="85.97,-139.45 84.99,-150 92.34,-142.37 85.97,-139.45"/>
</g>
<!-- Role&#45;&gt;Verifier -->
<!-- StandardSection&#45;&gt;Topic -->
<g id="edge5" class="edge">
<title>StandardSection&#45;&gt;Topic</title>
<path fill="none" stroke="black" stroke-dasharray="1,5" d="M309.72,-145.25C324.92,-145.25 341.23,-145.25 355.26,-145.25"/>
<polygon fill="black" stroke="black" points="355.49,-148.75 365.49,-145.25 355.49,-141.75 355.49,-148.75"/>
</g>
<!-- VerifierRole&#45;&gt;Verifier -->
<g id="edge7" class="edge">
<title>VerifierRole&#45;&gt;Verifier</title>
<path fill="none" stroke="black" stroke-dasharray="1,5" d="M298.89,-207.49C316.28,-211.01 336.47,-215.1 353.56,-218.55"/>
<polygon fill="black" stroke="black" points="353.25,-222.06 363.75,-220.61 354.64,-215.2 353.25,-222.06"/>
</g>
<!-- Creator&#45;&gt;Updater -->
<!-- Project&#45;&gt;Creator -->
<!-- OtuPageLayout -->
<g id="node1" class="node">
<title>OtuPageLayout</title>
<g id="a_node1"><a xlink:href="/develop/Data/models.html#otu-page-layout" xlink:title="OtuPageLayout" target="_top">
<polygon fill="#cdefab" stroke="#dedede" points="146.16,-164.79 146.16,-179.7 104.5,-190.25 45.6,-190.25 3.95,-179.7 3.95,-164.79 45.6,-154.25 104.5,-154.25 146.16,-164.79"/>
<polygon fill="none" stroke="#dedede" points="150.16,-161.68 150.16,-182.81 105,-194.25 45.1,-194.25 -0.05,-182.81 -0.05,-161.68 45.1,-150.25 105,-150.25 150.16,-161.68"/>
<text text-anchor="middle" x="75.05" y="-168.55" font-family="Times,serif" font-size="14.00">OtuPageLayout</text>
</a>
</g>
</g>
<!-- OtuPageLayoutSection -->
<g id="node2" class="node">
<title>OtuPageLayoutSection</title>
<g id="a_node2"><a xlink:href="/develop/Data/models.html#otu-page-layout-section" xlink:title="OtuPageLayoutSection" target="_top">
<polygon fill="#eeefff" stroke="#dddeee" points="328.11,-379.25 186.11,-379.25 186.11,-343.25 328.11,-343.25 328.11,-379.25"/>
<text text-anchor="middle" x="257.11" y="-357.55" font-family="Times,serif" font-size="14.00">OtuPageLayoutSection</text>
</a>
</g>
</g>
<!-- PinboardItem -->
<g id="node3" class="node">
<title>PinboardItem</title>
<g id="a_node3"><a xlink:href="/develop/Data/models.html#pinboard-item" xlink:title="PinboardItem" target="_top">
<polygon fill="#eeefff" stroke="#dddeee" points="302.61,-325.25 211.61,-325.25 211.61,-289.25 302.61,-289.25 302.61,-325.25"/>
<text text-anchor="middle" x="257.11" y="-303.55" font-family="Times,serif" font-size="14.00">PinboardItem</text>
</a>
</g>
</g>
<!-- Role -->
<g id="node4" class="node">
<title>Role</title>
<g id="a_node4"><a xlink:href="/develop/Data/models.html#role" xlink:title="Role" target="_top">
<polygon fill="#eeefff" stroke="#dddeee" points="284.11,-271.25 230.11,-271.25 230.11,-235.25 284.11,-235.25 284.11,-271.25"/>
<text text-anchor="middle" x="257.11" y="-249.55" font-family="Times,serif" font-size="14.00">Role</text>
</a>
</g>
</g>
<!-- StandardSection -->
<g id="node5" class="node">
<title>StandardSection</title>
<g id="a_node5"><a xlink:href="/develop/Data/models.html#standard-section" xlink:title="StandardSection" target="_top">
<polygon fill="#eeefff" stroke="#dddeee" points="309.61,-163.25 204.61,-163.25 204.61,-127.25 309.61,-127.25 309.61,-163.25"/>
<text text-anchor="middle" x="257.11" y="-141.55" font-family="Times,serif" font-size="14.00">StandardSection</text>
</a>
</g>
</g>
<!-- Topic -->
<g id="node6" class="node">
<title>Topic</title>
<g id="a_node6"><a xlink:href="/develop/Data/models.html#topic" xlink:title="Topic" target="_top">
<polygon fill="#eeefff" stroke="#dddeee" points="419.61,-163.25 365.61,-163.25 365.61,-127.25 419.61,-127.25 419.61,-163.25"/>
<text text-anchor="middle" x="392.61" y="-141.55" font-family="Times,serif" font-size="14.00">Topic</text>
</a>
</g>
</g>
<!-- VerifierRole -->
<g id="node7" class="node">
<title>VerifierRole</title>
<g id="a_node7"><a xlink:href="/develop/Data/models.html#verifier-role" xlink:title="VerifierRole" target="_top">
<polygon fill="#eeefff" stroke="#dddeee" points="298.61,-217.25 215.61,-217.25 215.61,-181.25 298.61,-181.25 298.61,-217.25"/>
<text text-anchor="middle" x="257.11" y="-195.55" font-family="Times,serif" font-size="14.00">VerifierRole</text>
</a>
</g>
</g>
<!-- Verifier -->
<g id="node8" class="node">
<title>Verifier</title>
<g id="a_node8"><a xlink:href="/develop/Data/models.html#verifier" xlink:title="Verifier" target="_top">
<polygon fill="#eeefff" stroke="#dddeee" points="421.11,-244.25 364.11,-244.25 364.11,-208.25 421.11,-208.25 421.11,-244.25"/>
<text text-anchor="middle" x="392.61" y="-222.55" font-family="Times,serif" font-size="14.00">Verifier</text>
</a>
</g>
</g>
<!-- Creator -->
<g id="node9" class="node">
<title>Creator</title>
<g id="a_node9"><a xlink:href="/develop/Data/models.html#creator" xlink:title="Creator" target="_top">
<polygon fill="#eeefff" stroke="#dddeee" points="421.11,-71.25 364.11,-71.25 364.11,-35.25 421.11,-35.25 421.11,-71.25"/>
<text text-anchor="middle" x="392.61" y="-49.55" font-family="Times,serif" font-size="14.00">Creator</text>
</a>
</g>
</g>
<!-- Project -->
<g id="node10" class="node">
<title>Project</title>
<g id="a_node10"><a xlink:href="/develop/Data/models.html#project" xlink:title="Project" target="_top">
<polygon fill="#eeefff" stroke="#dddeee" points="284.61,-71.25 229.61,-71.25 229.61,-35.25 284.61,-35.25 284.61,-71.25"/>
<text text-anchor="middle" x="257.11" y="-49.55" font-family="Times,serif" font-size="14.00">Project</text>
</a>
</g>
</g>
<!-- Updater -->
<g id="node11" class="node">
<title>Updater</title>
<g id="a_node11"><a xlink:href="/develop/Data/models.html#updater" xlink:title="Updater" target="_top">
<polygon fill="#eeefff" stroke="#dddeee" points="517.11,-71.25 457.11,-71.25 457.11,-35.25 517.11,-35.25 517.11,-71.25"/>
<text text-anchor="middle" x="487.11" y="-49.55" font-family="Times,serif" font-size="14.00">Updater</text>
</a>
</g>
</g>
</g>
</svg>
