<?xml version="1.0" encoding="UTF-8" standalone="no"?>
<!DOCTYPE svg PUBLIC "-//W3C//DTD SVG 1.1//EN"
 "http://www.w3.org/Graphics/SVG/1.1/DTD/svg11.dtd">
<!-- Generated by graphviz version 2.50.0 (20211204.2007)
 -->
<!-- Title: Otu Pages: 1 -->
<svg width="1189pt" height="1351pt"
 viewBox="0.00 0.00 1189.29 1351.00" xmlns="http://www.w3.org/2000/svg" xmlns:xlink="http://www.w3.org/1999/xlink">
<g id="graph0" class="graph" transform="scale(1 1) rotate(0) translate(4 1347)">
<title>Otu</title>
<polygon fill="white" stroke="transparent" points="-4,4 -4,-1347 1185.29,-1347 1185.29,4 -4,4"/>
<!-- Citation&#45;&gt;Source -->
<g id="edge38" class="edge">
<title>Citation&#45;&gt;Source</title>
<path fill="none" stroke="black" stroke-dasharray="1,5" d="M98.22,-1270C161.09,-1270 285.76,-1270 347.46,-1270"/>
<polygon fill="black" stroke="black" points="347.51,-1273.5 357.51,-1270 347.51,-1266.5 347.51,-1273.5"/>
</g>
<!-- Citation&#45;&gt;CitationTopic -->
<g id="edge3" class="edge">
<title>Citation&#45;&gt;CitationTopic</title>
<path fill="none" stroke="black" stroke-dasharray="1,5" d="M90.02,-1281.13C108.07,-1287.85 131.63,-1296.63 152.93,-1304.56"/>
<polygon fill="black" stroke="black" points="151.94,-1307.93 162.53,-1308.14 154.38,-1301.37 151.94,-1307.93"/>
</g>
<!-- Confidence&#45;&gt;ConfidenceLevel -->
<g id="edge9" class="edge">
<title>Confidence&#45;&gt;ConfidenceLevel</title>
<path fill="none" stroke="black" stroke-dasharray="1,5" d="M110.13,-629C120.96,-629 132.55,-629 143.82,-629"/>
<polygon fill="black" stroke="black" points="144.06,-632.5 154.06,-629 144.06,-625.5 144.06,-632.5"/>
</g>
<!-- Depiction&#45;&gt;Image -->
<g id="edge23" class="edge">
<title>Depiction&#45;&gt;Image</title>
<path fill="none" stroke="black" stroke-dasharray="1,5" d="M104.84,-575C126.24,-575 151.52,-575 171.67,-575"/>
<polygon fill="black" stroke="black" points="171.7,-578.5 181.7,-575 171.7,-571.5 171.7,-578.5"/>
</g>
<!-- Tag&#45;&gt;Keyword -->
<g id="edge24" class="edge">
<title>Tag&#45;&gt;Keyword</title>
<path fill="none" stroke="black" stroke-dasharray="1,5" d="M86.2,-521C108.03,-521 139.62,-521 165.13,-521"/>
<polygon fill="black" stroke="black" points="165.29,-524.5 175.29,-521 165.29,-517.5 165.29,-524.5"/>
</g>
<!-- Otu&#45;&gt;Citation -->
<g id="edge4" class="edge">
<title>Otu&#45;&gt;Citation</title>
<path fill="none" stroke="black" d="M202.19,-709.1C179.28,-799.59 92.6,-1141.85 67.19,-1242.19"/>
<polygon fill="black" stroke="black" points="63.79,-1241.36 64.73,-1251.91 70.57,-1243.08 63.79,-1241.36"/>
</g>
<!-- Otu&#45;&gt;Confidence -->
<g id="edge10" class="edge">
<title>Otu&#45;&gt;Confidence</title>
<path fill="none" stroke="black" d="M179.53,-675.9C158.01,-667.45 128.01,-655.66 103.47,-646.02"/>
<polygon fill="black" stroke="black" points="104.6,-642.71 94.02,-642.31 102.05,-649.22 104.6,-642.71"/>
</g>
<!-- Otu&#45;&gt;DataAttribute -->
<g id="edge13" class="edge">
<title>Otu&#45;&gt;DataAttribute</title>
<path fill="none" stroke="black" d="M177.63,-686.18C163.3,-685.79 145.54,-685.31 128.2,-684.84"/>
<polygon fill="black" stroke="black" points="128.17,-681.34 118.07,-684.57 127.98,-688.34 128.17,-681.34"/>
</g>
<!-- Otu&#45;&gt;Depiction -->
<g id="edge14" class="edge">
<title>Otu&#45;&gt;Depiction</title>
<path fill="none" stroke="black" d="M181.39,-674.83C172.19,-669.81 162.19,-663.42 154.29,-656 133.26,-636.25 140.19,-620.77 118.29,-602 113.69,-598.06 108.41,-594.57 102.96,-591.52"/>
<polygon fill="black" stroke="black" points="104.2,-588.22 93.7,-586.8 101.02,-594.46 104.2,-588.22"/>
</g>
<!-- Otu&#45;&gt;Identifier -->
<g id="edge22" class="edge">
<title>Otu&#45;&gt;Identifier</title>
<path fill="none" stroke="black" d="M189.79,-705.14C172.52,-721.87 145.17,-746.67 118.29,-764 112.57,-767.69 106.27,-771.15 99.98,-774.29"/>
<polygon fill="black" stroke="black" points="98.38,-771.18 90.86,-778.65 101.39,-777.5 98.38,-771.18"/>
</g>
<!-- Otu&#45;&gt;Tag -->
<g id="edge41" class="edge">
<title>Otu&#45;&gt;Tag</title>
<path fill="none" stroke="black" d="M179.96,-675.77C170.72,-670.87 161.07,-664.32 154.29,-656 122.33,-616.78 151.99,-585.74 118.29,-548 111.81,-540.75 102.98,-535.3 94.16,-531.27"/>
<polygon fill="black" stroke="black" points="95.28,-527.95 84.7,-527.43 92.65,-534.43 95.28,-527.95"/>
</g>
<!-- Otu&#45;&gt;Note -->
<g id="edge27" class="edge">
<title>Otu&#45;&gt;Note</title>
<path fill="none" stroke="black" d="M178.15,-697.04C153.76,-705.3 119.21,-717 93.79,-725.61"/>
<polygon fill="black" stroke="black" points="92.54,-722.33 84.2,-728.86 94.79,-728.96 92.54,-722.33"/>
</g>
<!-- Otu&#45;&gt;AssertedDistribution -->
<g id="edge1" class="edge">
<title>Otu&#45;&gt;AssertedDistribution</title>
<path fill="none" stroke="black" d="M210,-709.14C211.71,-763.09 223.66,-902.57 299.29,-980 302.75,-983.54 306.67,-986.64 310.88,-989.34"/>
<polygon fill="black" stroke="black" points="309.44,-992.55 319.87,-994.36 312.85,-986.43 309.44,-992.55"/>
</g>
<!-- Otu&#45;&gt;BiologicalAssociation -->
<g id="edge2" class="edge">
<title>Otu&#45;&gt;BiologicalAssociation</title>
<path fill="none" stroke="black" d="M212.32,-709.12C218.65,-754.66 239.25,-859.62 299.29,-920 302.78,-923.51 306.7,-926.66 310.87,-929.48"/>
<polygon fill="black" stroke="black" points="309.38,-932.67 319.76,-934.82 312.99,-926.67 309.38,-932.67"/>
</g>
<!-- Otu&#45;&gt;Observation -->
<g id="edge31" class="edge">
<title>Otu&#45;&gt;Observation</title>
<path fill="none" stroke="black" d="M224.52,-706.81C241.4,-728.93 270.48,-765.27 299.29,-793 314.79,-807.92 333.52,-822.83 349.41,-834.68"/>
<polygon fill="black" stroke="black" points="347.77,-837.83 357.9,-840.94 351.92,-832.19 347.77,-837.83"/>
</g>
<!-- Otu&#45;&gt;Source -->
<g id="edge53" class="edge">
<title>Otu&#45;&gt;Source</title>
<path fill="none" stroke="black" stroke-dasharray="1,5" d="M210.93,-719.12C215.28,-824.31 234.02,-1156.27 299.29,-1237 311.21,-1251.74 330.6,-1259.92 347.8,-1264.44"/>
<polygon fill="none" stroke="black" points="206.54,-709.27 214.53,-708.95 214.85,-716.94 206.86,-717.26 206.54,-709.27"/>
<polyline fill="none" stroke="black" points="210.85,-717.1 210.93,-719.1 "/>
<polygon fill="none" stroke="black" points="358.51,-1262.81 356.71,-1270.6 348.91,-1268.8 350.71,-1261.01 358.51,-1262.81"/>
<polyline fill="none" stroke="black" points="349.81,-1264.9 347.86,-1264.45 "/>
</g>
<!-- Otu&#45;&gt;TaxonName -->
<g id="edge49" class="edge">
<title>Otu&#45;&gt;TaxonName</title>
<path fill="none" stroke="black" stroke-dasharray="5,2" d="M250.27,-692.58C278.07,-696.42 314.83,-701.49 342.75,-705.34"/>
<polygon fill="black" stroke="black" points="250.48,-689.08 240.1,-691.18 249.53,-696.01 250.48,-689.08"/>
</g>
<!-- Otu&#45;&gt;TaxonDetermination -->
<g id="edge42" class="edge">
<title>Otu&#45;&gt;TaxonDetermination</title>
<path fill="none" stroke="black" d="M237.75,-675.87C247,-670.99 256.63,-664.42 263.29,-656 297.59,-612.68 260.52,-576.37 299.29,-537 302.69,-533.55 306.53,-530.53 310.65,-527.91"/>
<polygon fill="black" stroke="black" points="312.4,-530.94 319.46,-523.04 309.01,-524.81 312.4,-530.94"/>
</g>
<!-- Otu&#45;&gt;CollectionProfile -->
<g id="edge7" class="edge">
<title>Otu&#45;&gt;CollectionProfile</title>
<path fill="none" stroke="black" d="M237.12,-675.45C254.8,-668.04 278.34,-658.29 299.29,-650 307.86,-646.61 316.94,-643.09 325.86,-639.67"/>
<polygon fill="black" stroke="black" points="327.33,-642.86 335.43,-636.03 324.84,-636.32 327.33,-642.86"/>
</g>
<!-- Otu&#45;&gt;CommonName -->
<g id="edge8" class="edge">
<title>Otu&#45;&gt;CommonName</title>
<path fill="none" stroke="black" d="M236.53,-675.18C245.77,-670.2 255.7,-663.74 263.29,-656 286.41,-632.42 273.76,-611.95 299.29,-591 306.71,-584.91 315.53,-580.18 324.63,-576.52"/>
<polygon fill="black" stroke="black" points="325.94,-579.77 334.16,-573.07 323.56,-573.18 325.94,-579.77"/>
</g>
<!-- Otu&#45;&gt;Content -->
<g id="edge12" class="edge">
<title>Otu&#45;&gt;Content</title>
<path fill="none" stroke="black" d="M238.18,-676.19C247.47,-671.34 257.01,-664.7 263.29,-656 309.27,-592.33 246.72,-541.35 299.29,-483 310.99,-470.02 328.91,-463.24 345.25,-459.72"/>
<polygon fill="black" stroke="black" points="345.93,-463.15 355.14,-457.92 344.68,-456.26 345.93,-463.15"/>
</g>
<!-- Otu&#45;&gt;OriginRelationship -->
<g id="edge32" class="edge">
<title>Otu&#45;&gt;OriginRelationship</title>
<path fill="none" stroke="black" d="M238.41,-676.36C247.72,-671.52 257.22,-664.85 263.29,-656 321.09,-571.78 251.95,-519.52 299.29,-429 311.05,-406.51 331.44,-386.69 349.25,-372.28"/>
<polygon fill="black" stroke="black" points="351.49,-374.98 357.21,-366.06 347.18,-369.46 351.49,-374.98"/>
</g>
<!-- Otu&#45;&gt;LoanItem -->
<g id="edge25" class="edge">
<title>Otu&#45;&gt;LoanItem</title>
<path fill="none" stroke="black" d="M238.75,-676.58C248.1,-671.77 257.52,-665.05 263.29,-656 311.94,-579.6 244.57,-322.18 299.29,-250 309.08,-237.08 324.74,-229.38 339.94,-224.78"/>
<polygon fill="black" stroke="black" points="341.01,-228.12 349.79,-222.19 339.22,-221.35 341.01,-228.12"/>
</g>
<!-- Otu&#45;&gt;Loan -->
<g id="edge51" class="edge">
<title>Otu&#45;&gt;Loan</title>
<path fill="none" stroke="black" stroke-dasharray="1,5" d="M247.38,-671.47C253.59,-667.32 259.3,-662.21 263.29,-656 308.07,-586.32 243.78,-346.48 299.29,-285 309.31,-273.91 512.41,-238.34 596.41,-224.04"/>
<polygon fill="none" stroke="black" points="240.73,-680.01 236.69,-673.1 243.59,-669.06 247.64,-675.96 240.73,-680.01"/>
<polyline fill="none" stroke="black" points="245.61,-672.51 247.34,-671.5 "/>
<polygon fill="none" stroke="black" points="605.61,-218.42 606.95,-226.31 599.06,-227.65 597.72,-219.76 605.61,-218.42"/>
<polyline fill="none" stroke="black" points="598.39,-223.71 596.42,-224.04 "/>
</g>
<!-- Otu&#45;&gt;ObservationMatrixRow -->
<g id="edge30" class="edge">
<title>Otu&#45;&gt;ObservationMatrixRow</title>
<path fill="none" stroke="black" d="M240.02,-681.72C289.13,-674.2 388.95,-663.37 470.29,-683 517.6,-694.42 566.63,-722.14 598.17,-742.41"/>
<polygon fill="black" stroke="black" points="596.31,-745.38 606.59,-747.92 600.14,-739.52 596.31,-745.38"/>
</g>
<!-- Otu&#45;&gt;ObservationMatrixRowItem -->
<g id="edge29" class="edge">
<title>Otu&#45;&gt;ObservationMatrixRowItem</title>
<path fill="none" stroke="black" d="M232.68,-701.73C250.39,-712.7 275.76,-727.52 299.29,-738 304.23,-740.2 309.4,-742.32 314.64,-744.35"/>
<polygon fill="black" stroke="black" points="313.53,-747.67 324.13,-747.88 315.98,-741.11 313.53,-747.67"/>
</g>
<!-- Otu&#45;&gt;PinboardItem -->
<g id="edge33" class="edge">
<title>Otu&#45;&gt;PinboardItem</title>
<path fill="none" stroke="black" d="M238.81,-676.62C248.16,-671.8 257.57,-665.09 263.29,-656 318.47,-568.27 230.36,-268.39 299.29,-191 308.54,-180.61 485.49,-150.16 577.58,-134.91"/>
<polygon fill="black" stroke="black" points="578.27,-138.34 587.57,-133.26 577.13,-131.44 578.27,-138.34"/>
</g>
<!-- Otu&#45;&gt;RelatedBiologicalAssociation -->
<g id="edge34" class="edge">
<title>Otu&#45;&gt;RelatedBiologicalAssociation</title>
<path fill="none" stroke="black" d="M212.77,-709.23C219.68,-751.24 240.89,-842.01 299.29,-886 317.89,-900.02 442.61,-915.2 533.98,-924.66"/>
<polygon fill="black" stroke="black" points="533.8,-928.16 544.1,-925.7 534.51,-921.19 533.8,-928.16"/>
</g>
<!-- Otu&#45;&gt;RelatedOriginRelationship -->
<g id="edge35" class="edge">
<title>Otu&#45;&gt;RelatedOriginRelationship</title>
<path fill="none" stroke="black" d="M238.66,-676.52C248,-671.7 257.44,-665 263.29,-656 304.09,-593.22 245.66,-373.25 299.29,-321 332.71,-288.44 455.64,-286.14 542.37,-288.93"/>
<polygon fill="black" stroke="black" points="542.38,-292.43 552.5,-289.28 542.63,-285.43 542.38,-292.43"/>
</g>
<!-- Otu&#45;&gt;Role -->
<g id="edge36" class="edge">
<title>Otu&#45;&gt;Role</title>
<path fill="none" stroke="black" d="M238.87,-676.66C248.23,-671.85 257.63,-665.12 263.29,-656 328.66,-550.59 222.94,-196.76 299.29,-99 310.78,-84.29 330.33,-77.45 347.74,-74.34"/>
<polygon fill="black" stroke="black" points="348.26,-77.8 357.66,-72.9 347.26,-70.87 348.26,-77.8"/>
</g>
<!-- Otu&#45;&gt;SubsequentCitation -->
<g id="edge39" class="edge">
<title>Otu&#45;&gt;SubsequentCitation</title>
<path fill="none" stroke="black" d="M210.44,-709.1C213.5,-797.96 229.48,-1127.8 299.29,-1199 317.55,-1217.62 469.93,-1241.59 562.11,-1254.59"/>
<polygon fill="black" stroke="black" points="561.83,-1258.09 572.22,-1256.01 562.8,-1251.15 561.83,-1258.09"/>
</g>
<!-- Otu&#45;&gt;VerifierRole -->
<g id="edge44" class="edge">
<title>Otu&#45;&gt;VerifierRole</title>
<path fill="none" stroke="black" d="M238.9,-676.68C248.26,-671.87 257.66,-665.14 263.29,-656 334.64,-540.21 215.88,-152.43 299.29,-45 307.64,-34.24 320.31,-27.69 333.32,-23.73"/>
<polygon fill="black" stroke="black" points="334.45,-27.05 343.26,-21.18 332.71,-20.27 334.45,-27.05"/>
</g>
<!-- Otu&#45;&gt;Version -->
<g id="edge46" class="edge">
<title>Otu&#45;&gt;Version</title>
<path fill="none" stroke="black" d="M238.84,-676.63C248.19,-671.82 257.6,-665.1 263.29,-656 322.12,-561.93 232.99,-246.97 299.29,-158 310.16,-143.42 328.51,-135.48 345.34,-131.16"/>
<polygon fill="black" stroke="black" points="346.54,-134.48 355.55,-128.91 345.03,-127.65 346.54,-134.48"/>
</g>
<!-- Otu&#45;&gt;Creator -->
<g id="edge47" class="edge">
<title>Otu&#45;&gt;Creator</title>
<path fill="none" stroke="black" stroke-dasharray="5,2" d="M212.93,-719.16C221.68,-802.05 249.06,-1019.91 299.29,-1069 310.37,-1079.83 526.84,-1119.9 604.69,-1134.03"/>
<polygon fill="black" stroke="black" points="216.4,-718.65 211.89,-709.06 209.43,-719.37 216.4,-718.65"/>
</g>
<!-- Otu&#45;&gt;Project -->
<g id="edge48" class="edge">
<title>Otu&#45;&gt;Project</title>
<path fill="none" stroke="black" stroke-dasharray="5,2" d="M212.71,-719.46C221.25,-807.51 248.77,-1048.15 299.29,-1107 313.8,-1123.9 338.21,-1131.9 357.08,-1135.67"/>
<polygon fill="black" stroke="black" points="216.18,-718.89 211.74,-709.27 209.21,-719.55 216.18,-718.89"/>
</g>
<!-- Otu&#45;&gt;Updater -->
<g id="edge50" class="edge">
<title>Otu&#45;&gt;Updater</title>
<path fill="none" stroke="black" stroke-dasharray="5,2" d="M213.65,-719.57C223.57,-797.63 252.53,-992.11 299.29,-1035 308.86,-1043.78 747.62,-1109.15 760.29,-1112 782.54,-1117 807.31,-1124.1 825.98,-1129.76"/>
<polygon fill="black" stroke="black" points="217.08,-718.85 212.37,-709.36 210.14,-719.71 217.08,-718.85"/>
</g>
<!-- Otu&#45;&gt;OriginCitation -->
<g id="edge52" class="edge">
<title>Otu&#45;&gt;OriginCitation</title>
<path fill="none" stroke="black" d="M211.01,-719.43C215.39,-817.01 233.73,-1104.94 299.29,-1166 338.17,-1202.21 491.06,-1206.1 575.5,-1205.35"/>
<polygon fill="none" stroke="black" points="206.58,-709.45 214.57,-709.11 214.91,-717.1 206.92,-717.45 206.58,-709.45"/>
<polyline fill="none" stroke="black" points="210.92,-717.28 211,-719.27 "/>
<polygon fill="none" stroke="black" points="585.64,-1201.23 585.74,-1209.23 577.74,-1209.32 577.65,-1201.32 585.64,-1201.23"/>
<polyline fill="none" stroke="black" points="577.69,-1205.32 575.69,-1205.35 "/>
</g>
<!-- AssertedDistribution&#45;&gt;GeographicAreasFromAssertedDistribution -->
<g id="edge19" class="edge">
<title>AssertedDistribution&#45;&gt;GeographicAreasFromAssertedDistribution</title>
<path fill="none" stroke="black" stroke-dasharray="1,5" d="M449.59,-1008C464,-1008 479.84,-1008 495.98,-1008"/>
<polygon fill="black" stroke="black" points="496.06,-1011.5 506.06,-1008 496.06,-1004.5 496.06,-1011.5"/>
</g>
<!-- BiologicalAssociation&#45;&gt;RelatedBiologicalAssociation -->
<!-- CollectionObject&#45;&gt;CollectingEvent -->
<g id="edge5" class="edge">
<title>CollectionObject&#45;&gt;CollectingEvent</title>
<path fill="none" stroke="black" stroke-dasharray="1,5" d="M688.07,-511C720.03,-511 760.67,-511 793.88,-511"/>
<polygon fill="black" stroke="black" points="793.93,-514.5 803.93,-511 793.93,-507.5 793.93,-514.5"/>
</g>
<!-- CollectionObject&#45;&gt;Extract -->
<g id="edge18" class="edge">
<title>CollectionObject&#45;&gt;Extract</title>
<path fill="none" stroke="black" stroke-dasharray="1,5" d="M688.07,-524.38C728.42,-534.43 782.62,-547.91 818.23,-556.78"/>
<polygon fill="black" stroke="black" points="817.65,-560.24 828.2,-559.26 819.34,-553.45 817.65,-560.24"/>
</g>
<!-- CollectingEvent&#45;&gt;GeographicAreasFromCollectingEvent -->
<g id="edge20" class="edge">
<title>CollectingEvent&#45;&gt;GeographicAreasFromCollectingEvent</title>
<path fill="none" stroke="black" stroke-dasharray="1,5" d="M908.45,-496.02C922.62,-491.99 938.02,-487.72 952.29,-484 960.62,-481.83 969.31,-479.63 978.02,-477.48"/>
<polygon fill="black" stroke="black" points="978.95,-480.85 987.83,-475.07 977.29,-474.05 978.95,-480.85"/>
</g>
<!-- CollectingEvent&#45;&gt;Georeference -->
<g id="edge21" class="edge">
<title>CollectingEvent&#45;&gt;Georeference</title>
<path fill="none" stroke="black" stroke-dasharray="1,5" d="M908.29,-511C939.73,-511 980,-511 1011.95,-511"/>
<polygon fill="black" stroke="black" points="1012.01,-514.5 1022.01,-511 1012.01,-507.5 1012.01,-514.5"/>
</g>
<!-- Observation&#45;&gt;Descriptor -->
<g id="edge17" class="edge">
<title>Observation&#45;&gt;Descriptor</title>
<path fill="none" stroke="black" stroke-dasharray="1,5" d="M426.49,-859C470.26,-859 539.73,-859 585.66,-859"/>
<polygon fill="black" stroke="black" points="585.95,-862.5 595.95,-859 585.95,-855.5 585.95,-862.5"/>
</g>
<!-- Observation&#45;&gt;ObservationMatrix -->
<!-- Source&#45;&gt;SubsequentCitation -->
<!-- Source&#45;&gt;OriginCitation -->
<!-- CitationTopic&#45;&gt;Topic -->
<g id="edge43" class="edge">
<title>CitationTopic&#45;&gt;Topic</title>
<path fill="none" stroke="black" stroke-dasharray="1,5" d="M255.05,-1325C283.85,-1325 320.65,-1325 347.53,-1325"/>
<polygon fill="black" stroke="black" points="347.66,-1328.5 357.66,-1325 347.66,-1321.5 347.66,-1328.5"/>
</g>
<!-- TaxonDetermination&#45;&gt;CollectionObject -->
<g id="edge6" class="edge">
<title>TaxonDetermination&#45;&gt;CollectionObject</title>
<path fill="none" stroke="black" stroke-dasharray="1,5" d="M449.91,-510.26C486.42,-510.41 532,-510.59 568.46,-510.74"/>
<polygon fill="black" stroke="black" points="568.47,-514.24 578.49,-510.78 568.5,-507.24 568.47,-514.24"/>
</g>
<!-- Content&#45;&gt;ContentTopic -->
<g id="edge11" class="edge">
<title>Content&#45;&gt;ContentTopic</title>
<path fill="none" stroke="black" stroke-dasharray="1,5" d="M414.55,-456C454.35,-456 527.01,-456 577.39,-456"/>
<polygon fill="black" stroke="black" points="577.47,-459.5 587.47,-456 577.47,-452.5 577.47,-459.5"/>
</g>
<!-- OriginRelationship&#45;&gt;DerivedExtract -->
<g id="edge15" class="edge">
<title>OriginRelationship&#45;&gt;DerivedExtract</title>
<path fill="none" stroke="black" stroke-dasharray="1,5" d="M444.83,-348C483.8,-348 534.64,-348 573.54,-348"/>
<polygon fill="black" stroke="black" points="573.66,-351.5 583.66,-348 573.66,-344.5 573.66,-351.5"/>
</g>
<!-- OriginRelationship&#45;&gt;DerivedSequence -->
<g id="edge16" class="edge">
<title>OriginRelationship&#45;&gt;DerivedSequence</title>
<path fill="none" stroke="black" stroke-dasharray="1,5" d="M444.91,-361.36C464.44,-365.75 486.29,-370.62 506.29,-375 526.02,-379.32 547.5,-383.95 567.04,-388.14"/>
<polygon fill="black" stroke="black" points="566.55,-391.61 577.07,-390.28 568.02,-384.77 566.55,-391.61"/>
</g>
<!-- OriginRelationship&#45;&gt;RelatedOriginRelationship -->
<!-- Extract&#45;&gt;Sequence -->
<g id="edge37" class="edge">
<title>Extract&#45;&gt;Sequence</title>
<path fill="none" stroke="black" stroke-dasharray="1,5" d="M884.55,-566C919.65,-566 981.08,-566 1022.58,-566"/>
<polygon fill="black" stroke="black" points="1022.68,-569.5 1032.68,-566 1022.68,-562.5 1022.68,-569.5"/>
</g>
<!-- LoanItem&#45;&gt;Loan -->
<g id="edge26" class="edge">
<title>LoanItem&#45;&gt;Loan</title>
<path fill="none" stroke="black" stroke-dasharray="1,5" d="M419.81,-218C466.1,-218 548.58,-218 596.02,-218"/>
<polygon fill="black" stroke="black" points="596.15,-221.5 606.15,-218 596.15,-214.5 596.15,-221.5"/>
</g>
<!-- ObservationMatrixRow&#45;&gt;ObservationMatrix -->
<g id="edge28" class="edge">
<title>ObservationMatrixRow&#45;&gt;ObservationMatrix</title>
<path fill="none" stroke="black" stroke-dasharray="1,5" d="M706.35,-766C731.92,-766 760.63,-766 785.97,-766"/>
<polygon fill="black" stroke="black" points="786.24,-769.5 796.24,-766 786.24,-762.5 786.24,-769.5"/>
</g>
<!-- ObservationMatrixRowItem&#45;&gt;ObservationMatrixRow -->
<!-- Role&#45;&gt;Verifier -->
<!-- SubsequentCitation&#45;&gt;SubsequentSource -->
<g id="edge40" class="edge">
<title>SubsequentCitation&#45;&gt;SubsequentSource</title>
<path fill="none" stroke="black" stroke-dasharray="1,5" d="M694.39,-1264C723.31,-1264 758.11,-1264 787.93,-1264"/>
<polygon fill="black" stroke="black" points="788.25,-1267.5 798.25,-1264 788.25,-1260.5 788.25,-1267.5"/>
</g>
<!-- VerifierRole&#45;&gt;Verifier -->
<g id="edge45" class="edge">
<title>VerifierRole&#45;&gt;Verifier</title>
<path fill="none" stroke="black" stroke-dasharray="1,5" d="M426.49,-22.46C473.18,-27.57 549.11,-35.89 594.52,-40.86"/>
<polygon fill="black" stroke="black" points="594.23,-44.35 604.55,-41.96 594.99,-37.39 594.23,-44.35"/>
</g>
<!-- Version&#45;&gt;PinboardItem -->
<!-- Creator&#45;&gt;Updater -->
<!-- Project&#45;&gt;Creator -->
<!-- Citation -->
<g id="node1" class="node">
<title>Citation</title>
<g id="a_node1"><a xlink:href="/develop/Data/models.html#citation" xlink:title="Citation" target="_top">
<ellipse fill="#abcdef" stroke="#dddeee" cx="59.14" cy="-1270" rx="38.99" ry="18"/>
<text text-anchor="middle" x="59.14" y="-1266.3" font-family="Times,serif" font-size="14.00">Citation</text>
</a>
</g>
</g>
<!-- Confidence -->
<g id="node2" class="node">
<title>Confidence</title>
<g id="a_node2"><a xlink:href="/develop/Data/models.html#confidence" xlink:title="Confidence" target="_top">
<ellipse fill="#abcdef" stroke="#dddeee" cx="59.14" cy="-629" rx="50.89" ry="18"/>
<text text-anchor="middle" x="59.14" y="-625.3" font-family="Times,serif" font-size="14.00">Confidence</text>
</a>
</g>
</g>
<!-- DataAttribute -->
<g id="node3" class="node">
<title>DataAttribute</title>
<g id="a_node3"><a xlink:href="/develop/Data/models.html#data-attribute" xlink:title="DataAttribute" target="_top">
<ellipse fill="#abcdef" stroke="#dddeee" cx="59.14" cy="-683" rx="59.29" ry="18"/>
<text text-anchor="middle" x="59.14" y="-679.3" font-family="Times,serif" font-size="14.00">DataAttribute</text>
</a>
</g>
</g>
<!-- Depiction -->
<g id="node4" class="node">
<title>Depiction</title>
<g id="a_node4"><a xlink:href="/develop/Data/models.html#depiction" xlink:title="Depiction" target="_top">
<ellipse fill="#abcdef" stroke="#dddeee" cx="59.14" cy="-575" rx="45.49" ry="18"/>
<text text-anchor="middle" x="59.14" y="-571.3" font-family="Times,serif" font-size="14.00">Depiction</text>
</a>
</g>
</g>
<!-- Identifier -->
<g id="node5" class="node">
<title>Identifier</title>
<g id="a_node5"><a xlink:href="/develop/Data/models.html#identifier" xlink:title="Identifier" target="_top">
<ellipse fill="#abcdef" stroke="#dddeee" cx="59.14" cy="-791" rx="42.79" ry="18"/>
<text text-anchor="middle" x="59.14" y="-787.3" font-family="Times,serif" font-size="14.00">Identifier</text>
</a>
</g>
</g>
<!-- Tag -->
<g id="node6" class="node">
<title>Tag</title>
<g id="a_node6"><a xlink:href="/develop/Data/models.html#tag" xlink:title="Tag" target="_top">
<ellipse fill="#abcdef" stroke="#dddeee" cx="59.14" cy="-521" rx="27" ry="18"/>
<text text-anchor="middle" x="59.14" y="-517.3" font-family="Times,serif" font-size="14.00">Tag</text>
</a>
</g>
</g>
<!-- Note -->
<g id="node7" class="node">
<title>Note</title>
<g id="a_node7"><a xlink:href="/develop/Data/models.html#note" xlink:title="Note" target="_top">
<ellipse fill="#abcdef" stroke="#dddeee" cx="59.14" cy="-737" rx="27.9" ry="18"/>
<text text-anchor="middle" x="59.14" y="-733.3" font-family="Times,serif" font-size="14.00">Note</text>
</a>
</g>
</g>
<!-- Otu -->
<g id="node8" class="node">
<title>Otu</title>
<g id="a_node8"><a xlink:href="/develop/Data/models.html#otu" xlink:title="Otu" target="_top">
<polygon fill="#cdefab" stroke="#dedede" points="235.79,-679.54 235.79,-694.46 219.97,-705 197.61,-705 181.79,-694.46 181.79,-679.54 197.61,-669 219.97,-669 235.79,-679.54"/>
<polygon fill="none" stroke="#dedede" points="239.79,-677.4 239.79,-696.6 221.18,-709 196.39,-709 177.79,-696.6 177.79,-677.4 196.39,-665 221.18,-665 239.79,-677.4"/>
<text text-anchor="middle" x="208.79" y="-683.3" font-family="Times,serif" font-size="14.00">Otu</text>
</a>
</g>
</g>
<!-- AssertedDistribution -->
<g id="node9" class="node">
<title>AssertedDistribution</title>
<g id="a_node9"><a xlink:href="/develop/Data/models.html#asserted-distribution" xlink:title="AssertedDistribution" target="_top">
<path fill="#fedcba" stroke="#dddeee" d="M332.29,-990C332.29,-990 437.29,-990 437.29,-990 443.29,-990 449.29,-996 449.29,-1002 449.29,-1002 449.29,-1014 449.29,-1014 449.29,-1020 443.29,-1026 437.29,-1026 437.29,-1026 332.29,-1026 332.29,-1026 326.29,-1026 320.29,-1020 320.29,-1014 320.29,-1014 320.29,-1002 320.29,-1002 320.29,-996 326.29,-990 332.29,-990"/>
<text text-anchor="middle" x="384.79" y="-1004.3" font-family="Times,serif" font-size="14.00">AssertedDistribution</text>
</a>
</g>
</g>
<!-- BiologicalAssociation -->
<g id="node10" class="node">
<title>BiologicalAssociation</title>
<g id="a_node10"><a xlink:href="/develop/Data/models.html#biological-association" xlink:title="BiologicalAssociation" target="_top">
<path fill="#fedcba" stroke="#dddeee" d="M328.29,-935C328.29,-935 441.29,-935 441.29,-935 447.29,-935 453.29,-941 453.29,-947 453.29,-947 453.29,-959 453.29,-959 453.29,-965 447.29,-971 441.29,-971 441.29,-971 328.29,-971 328.29,-971 322.29,-971 316.29,-965 316.29,-959 316.29,-959 316.29,-947 316.29,-947 316.29,-941 322.29,-935 328.29,-935"/>
<text text-anchor="middle" x="384.79" y="-949.3" font-family="Times,serif" font-size="14.00">BiologicalAssociation</text>
</a>
</g>
</g>
<!-- CollectionObject -->
<g id="node11" class="node">
<title>CollectionObject</title>
<g id="a_node11"><a xlink:href="/develop/Data/models.html#collection-object" xlink:title="CollectionObject" target="_top">
<path fill="#fedcba" stroke="#dddeee" d="M590.79,-493C590.79,-493 675.79,-493 675.79,-493 681.79,-493 687.79,-499 687.79,-505 687.79,-505 687.79,-517 687.79,-517 687.79,-523 681.79,-529 675.79,-529 675.79,-529 590.79,-529 590.79,-529 584.79,-529 578.79,-523 578.79,-517 578.79,-517 578.79,-505 578.79,-505 578.79,-499 584.79,-493 590.79,-493"/>
<text text-anchor="middle" x="633.29" y="-507.3" font-family="Times,serif" font-size="14.00">CollectionObject</text>
</a>
</g>
</g>
<!-- CollectingEvent -->
<g id="node12" class="node">
<title>CollectingEvent</title>
<g id="a_node12"><a xlink:href="/develop/Data/models.html#collecting-event" xlink:title="CollectingEvent" target="_top">
<path fill="#fedcba" stroke="#dddeee" d="M816.29,-493C816.29,-493 896.29,-493 896.29,-493 902.29,-493 908.29,-499 908.29,-505 908.29,-505 908.29,-517 908.29,-517 908.29,-523 902.29,-529 896.29,-529 896.29,-529 816.29,-529 816.29,-529 810.29,-529 804.29,-523 804.29,-517 804.29,-517 804.29,-505 804.29,-505 804.29,-499 810.29,-493 816.29,-493"/>
<text text-anchor="middle" x="856.29" y="-507.3" font-family="Times,serif" font-size="14.00">CollectingEvent</text>
</a>
</g>
</g>
<!-- Observation -->
<g id="node13" class="node">
<title>Observation</title>
<g id="a_node13"><a xlink:href="/develop/Data/models.html#observation" xlink:title="Observation" target="_top">
<path fill="#fedcba" stroke="#dddeee" d="M355.29,-841C355.29,-841 414.29,-841 414.29,-841 420.29,-841 426.29,-847 426.29,-853 426.29,-853 426.29,-865 426.29,-865 426.29,-871 420.29,-877 414.29,-877 414.29,-877 355.29,-877 355.29,-877 349.29,-877 343.29,-871 343.29,-865 343.29,-865 343.29,-853 343.29,-853 343.29,-847 349.29,-841 355.29,-841"/>
<text text-anchor="middle" x="384.79" y="-855.3" font-family="Times,serif" font-size="14.00">Observation</text>
</a>
</g>
</g>
<!-- Descriptor -->
<g id="node14" class="node">
<title>Descriptor</title>
<g id="a_node14"><a xlink:href="/develop/Data/models.html#descriptor" xlink:title="Descriptor" target="_top">
<path fill="#fedcba" stroke="#dddeee" d="M608.29,-841C608.29,-841 658.29,-841 658.29,-841 664.29,-841 670.29,-847 670.29,-853 670.29,-853 670.29,-865 670.29,-865 670.29,-871 664.29,-877 658.29,-877 658.29,-877 608.29,-877 608.29,-877 602.29,-877 596.29,-871 596.29,-865 596.29,-865 596.29,-853 596.29,-853 596.29,-847 602.29,-841 608.29,-841"/>
<text text-anchor="middle" x="633.29" y="-855.3" font-family="Times,serif" font-size="14.00">Descriptor</text>
</a>
</g>
</g>
<!-- Sequence -->
<g id="node15" class="node">
<title>Sequence</title>
<g id="a_node15"><a xlink:href="/develop/Data/models.html#sequence" xlink:title="Sequence" target="_top">
<path fill="#fedcba" stroke="#dddeee" d="M1044.79,-548C1044.79,-548 1088.79,-548 1088.79,-548 1094.79,-548 1100.79,-554 1100.79,-560 1100.79,-560 1100.79,-572 1100.79,-572 1100.79,-578 1094.79,-584 1088.79,-584 1088.79,-584 1044.79,-584 1044.79,-584 1038.79,-584 1032.79,-578 1032.79,-572 1032.79,-572 1032.79,-560 1032.79,-560 1032.79,-554 1038.79,-548 1044.79,-548"/>
<text text-anchor="middle" x="1066.79" y="-562.3" font-family="Times,serif" font-size="14.00">Sequence</text>
</a>
</g>
</g>
<!-- Source -->
<g id="node16" class="node">
<title>Source</title>
<g id="a_node16"><a xlink:href="/develop/Data/models.html#source" xlink:title="Source" target="_top">
<path fill="#fedcba" stroke="#dddeee" d="M369.79,-1252C369.79,-1252 399.79,-1252 399.79,-1252 405.79,-1252 411.79,-1258 411.79,-1264 411.79,-1264 411.79,-1276 411.79,-1276 411.79,-1282 405.79,-1288 399.79,-1288 399.79,-1288 369.79,-1288 369.79,-1288 363.79,-1288 357.79,-1282 357.79,-1276 357.79,-1276 357.79,-1264 357.79,-1264 357.79,-1258 363.79,-1252 369.79,-1252"/>
<text text-anchor="middle" x="384.79" y="-1266.3" font-family="Times,serif" font-size="14.00">Source</text>
</a>
</g>
</g>
<!-- TaxonName -->
<g id="node17" class="node">
<title>TaxonName</title>
<g id="a_node17"><a xlink:href="/develop/Data/models.html#taxon-name" xlink:title="TaxonName" target="_top">
<path fill="#fedcba" stroke="#dddeee" d="M354.79,-693C354.79,-693 414.79,-693 414.79,-693 420.79,-693 426.79,-699 426.79,-705 426.79,-705 426.79,-717 426.79,-717 426.79,-723 420.79,-729 414.79,-729 414.79,-729 354.79,-729 354.79,-729 348.79,-729 342.79,-723 342.79,-717 342.79,-717 342.79,-705 342.79,-705 342.79,-699 348.79,-693 354.79,-693"/>
<text text-anchor="middle" x="384.79" y="-707.3" font-family="Times,serif" font-size="14.00">TaxonName</text>
</a>
</g>
</g>
<!-- CitationTopic -->
<g id="node18" class="node">
<title>CitationTopic</title>
<g id="a_node18"><a xlink:href="/develop/Data/models.html#citation-topic" xlink:title="CitationTopic" target="_top">
<polygon fill="#eeefff" stroke="#dddeee" points="254.79,-1343 162.79,-1343 162.79,-1307 254.79,-1307 254.79,-1343"/>
<text text-anchor="middle" x="208.79" y="-1321.3" font-family="Times,serif" font-size="14.00">CitationTopic</text>
</a>
</g>
</g>
<!-- TaxonDetermination -->
<g id="node19" class="node">
<title>TaxonDetermination</title>
<g id="a_node19"><a xlink:href="/develop/Data/models.html#taxon-determination" xlink:title="TaxonDetermination" target="_top">
<polygon fill="#eeefff" stroke="#dddeee" points="449.79,-528 319.79,-528 319.79,-492 449.79,-492 449.79,-528"/>
<text text-anchor="middle" x="384.79" y="-506.3" font-family="Times,serif" font-size="14.00">TaxonDetermination</text>
</a>
</g>
</g>
<!-- CollectionProfile -->
<g id="node20" class="node">
<title>CollectionProfile</title>
<g id="a_node20"><a xlink:href="/develop/Data/models.html#collection-profile" xlink:title="CollectionProfile" target="_top">
<polygon fill="#eeefff" stroke="#dddeee" points="439.29,-636 330.29,-636 330.29,-600 439.29,-600 439.29,-636"/>
<text text-anchor="middle" x="384.79" y="-614.3" font-family="Times,serif" font-size="14.00">CollectionProfile</text>
</a>
</g>
</g>
<!-- CommonName -->
<g id="node21" class="node">
<title>CommonName</title>
<g id="a_node21"><a xlink:href="/develop/Data/models.html#common-name" xlink:title="CommonName" target="_top">
<polygon fill="#eeefff" stroke="#dddeee" points="435.29,-582 334.29,-582 334.29,-546 435.29,-546 435.29,-582"/>
<text text-anchor="middle" x="384.79" y="-560.3" font-family="Times,serif" font-size="14.00">CommonName</text>
</a>
</g>
</g>
<!-- ConfidenceLevel -->
<g id="node22" class="node">
<title>ConfidenceLevel</title>
<g id="a_node22"><a xlink:href="/develop/Data/models.html#confidence-level" xlink:title="ConfidenceLevel" target="_top">
<polygon fill="#eeefff" stroke="#dddeee" points="263.29,-647 154.29,-647 154.29,-611 263.29,-611 263.29,-647"/>
<text text-anchor="middle" x="208.79" y="-625.3" font-family="Times,serif" font-size="14.00">ConfidenceLevel</text>
</a>
</g>
</g>
<!-- Content -->
<g id="node23" class="node">
<title>Content</title>
<g id="a_node23"><a xlink:href="/develop/Data/models.html#content" xlink:title="Content" target="_top">
<polygon fill="#eeefff" stroke="#dddeee" points="414.29,-474 355.29,-474 355.29,-438 414.29,-438 414.29,-474"/>
<text text-anchor="middle" x="384.79" y="-452.3" font-family="Times,serif" font-size="14.00">Content</text>
</a>
</g>
</g>
<!-- ContentTopic -->
<g id="node24" class="node">
<title>ContentTopic</title>
<g id="a_node24"><a xlink:href="/develop/Data/models.html#content-topic" xlink:title="ContentTopic" target="_top">
<polygon fill="#eeefff" stroke="#dddeee" points="678.79,-474 587.79,-474 587.79,-438 678.79,-438 678.79,-474"/>
<text text-anchor="middle" x="633.29" y="-452.3" font-family="Times,serif" font-size="14.00">ContentTopic</text>
</a>
</g>
</g>
<!-- OriginRelationship -->
<g id="node25" class="node">
<title>OriginRelationship</title>
<g id="a_node25"><a xlink:href="/develop/Data/models.html#origin-relationship" xlink:title="OriginRelationship" target="_top">
<polygon fill="#eeefff" stroke="#dddeee" points="444.79,-366 324.79,-366 324.79,-330 444.79,-330 444.79,-366"/>
<text text-anchor="middle" x="384.79" y="-344.3" font-family="Times,serif" font-size="14.00">OriginRelationship</text>
</a>
</g>
</g>
<!-- DerivedExtract -->
<g id="node26" class="node">
<title>DerivedExtract</title>
<g id="a_node26"><a xlink:href="/develop/Data/models.html#derived-extract" xlink:title="DerivedExtract" target="_top">
<polygon fill="#eeefff" stroke="#dddeee" points="682.79,-366 583.79,-366 583.79,-330 682.79,-330 682.79,-366"/>
<text text-anchor="middle" x="633.29" y="-344.3" font-family="Times,serif" font-size="14.00">DerivedExtract</text>
</a>
</g>
</g>
<!-- DerivedSequence -->
<g id="node27" class="node">
<title>DerivedSequence</title>
<g id="a_node27"><a xlink:href="/develop/Data/models.html#derived-sequence" xlink:title="DerivedSequence" target="_top">
<polygon fill="#eeefff" stroke="#dddeee" points="689.29,-420 577.29,-420 577.29,-384 689.29,-384 689.29,-420"/>
<text text-anchor="middle" x="633.29" y="-398.3" font-family="Times,serif" font-size="14.00">DerivedSequence</text>
</a>
</g>
</g>
<!-- Extract -->
<g id="node28" class="node">
<title>Extract</title>
<g id="a_node28"><a xlink:href="/develop/Data/models.html#extract" xlink:title="Extract" target="_top">
<polygon fill="#eeefff" stroke="#dddeee" points="884.29,-584 828.29,-584 828.29,-548 884.29,-548 884.29,-584"/>
<text text-anchor="middle" x="856.29" y="-562.3" font-family="Times,serif" font-size="14.00">Extract</text>
</a>
</g>
</g>
<!-- GeographicAreasFromAssertedDistribution -->
<g id="node29" class="node">
<title>GeographicAreasFromAssertedDistribution</title>
<g id="a_node29"><a xlink:href="/develop/Data/models.html#geographic-areas-from-asserted-distribution" xlink:title="GeographicAreasFromAssertedDistribution" target="_top">
<polygon fill="#eeefff" stroke="#dddeee" points="760.29,-1026 506.29,-1026 506.29,-990 760.29,-990 760.29,-1026"/>
<text text-anchor="middle" x="633.29" y="-1004.3" font-family="Times,serif" font-size="14.00">GeographicAreasFromAssertedDistribution</text>
</a>
</g>
</g>
<!-- GeographicAreasFromCollectingEvent -->
<g id="node30" class="node">
<title>GeographicAreasFromCollectingEvent</title>
<g id="a_node30"><a xlink:href="/develop/Data/models.html#geographic-areas-from-collecting-event" xlink:title="GeographicAreasFromCollectingEvent" target="_top">
<polygon fill="#eeefff" stroke="#dddeee" points="1181.29,-475 952.29,-475 952.29,-439 1181.29,-439 1181.29,-475"/>
<text text-anchor="middle" x="1066.79" y="-453.3" font-family="Times,serif" font-size="14.00">GeographicAreasFromCollectingEvent</text>
</a>
</g>
</g>
<!-- Georeference -->
<g id="node31" class="node">
<title>Georeference</title>
<g id="a_node31"><a xlink:href="/develop/Data/models.html#georeference" xlink:title="Georeference" target="_top">
<polygon fill="#eeefff" stroke="#dddeee" points="1111.29,-529 1022.29,-529 1022.29,-493 1111.29,-493 1111.29,-529"/>
<text text-anchor="middle" x="1066.79" y="-507.3" font-family="Times,serif" font-size="14.00">Georeference</text>
</a>
</g>
</g>
<!-- Image -->
<g id="node32" class="node">
<title>Image</title>
<g id="a_node32"><a xlink:href="/develop/Data/models.html#image" xlink:title="Image" target="_top">
<polygon fill="#eeefff" stroke="#dddeee" points="235.79,-593 181.79,-593 181.79,-557 235.79,-557 235.79,-593"/>
<text text-anchor="middle" x="208.79" y="-571.3" font-family="Times,serif" font-size="14.00">Image</text>
</a>
</g>
</g>
<!-- Keyword -->
<g id="node33" class="node">
<title>Keyword</title>
<g id="a_node33"><a xlink:href="/develop/Data/models.html#keyword" xlink:title="Keyword" target="_top">
<polygon fill="#eeefff" stroke="#dddeee" points="242.29,-539 175.29,-539 175.29,-503 242.29,-503 242.29,-539"/>
<text text-anchor="middle" x="208.79" y="-517.3" font-family="Times,serif" font-size="14.00">Keyword</text>
</a>
</g>
</g>
<!-- LoanItem -->
<g id="node34" class="node">
<title>LoanItem</title>
<g id="a_node34"><a xlink:href="/develop/Data/models.html#loan-item" xlink:title="LoanItem" target="_top">
<polygon fill="#eeefff" stroke="#dddeee" points="419.79,-236 349.79,-236 349.79,-200 419.79,-200 419.79,-236"/>
<text text-anchor="middle" x="384.79" y="-214.3" font-family="Times,serif" font-size="14.00">LoanItem</text>
</a>
</g>
</g>
<!-- Loan -->
<g id="node35" class="node">
<title>Loan</title>
<g id="a_node35"><a xlink:href="/develop/Data/models.html#loan" xlink:title="Loan" target="_top">
<polygon fill="#eeefff" stroke="#dddeee" points="660.29,-236 606.29,-236 606.29,-200 660.29,-200 660.29,-236"/>
<text text-anchor="middle" x="633.29" y="-214.3" font-family="Times,serif" font-size="14.00">Loan</text>
</a>
</g>
</g>
<!-- ObservationMatrixRow -->
<g id="node36" class="node">
<title>ObservationMatrixRow</title>
<g id="a_node36"><a xlink:href="/develop/Data/models.html#observation-matrix-row" xlink:title="ObservationMatrixRow" target="_top">
<polygon fill="#eeefff" stroke="#dddeee" points="706.29,-784 560.29,-784 560.29,-748 706.29,-748 706.29,-784"/>
<text text-anchor="middle" x="633.29" y="-762.3" font-family="Times,serif" font-size="14.00">ObservationMatrixRow</text>
</a>
</g>
</g>
<!-- ObservationMatrix -->
<g id="node37" class="node">
<title>ObservationMatrix</title>
<g id="a_node37"><a xlink:href="/develop/Data/models.html#observation-matrix" xlink:title="ObservationMatrix" target="_top">
<polygon fill="#eeefff" stroke="#dddeee" points="916.29,-784 796.29,-784 796.29,-748 916.29,-748 916.29,-784"/>
<text text-anchor="middle" x="856.29" y="-762.3" font-family="Times,serif" font-size="14.00">ObservationMatrix</text>
</a>
</g>
</g>
<!-- ObservationMatrixRowItem -->
<g id="node38" class="node">
<title>ObservationMatrixRowItem</title>
<g id="a_node38"><a xlink:href="/develop/Data/models.html#observation-matrix-row-item" xlink:title="ObservationMatrixRowItem" target="_top">
<polygon fill="#eeefff" stroke="#dddeee" points="470.29,-784 299.29,-784 299.29,-748 470.29,-748 470.29,-784"/>
<text text-anchor="middle" x="384.79" y="-762.3" font-family="Times,serif" font-size="14.00">ObservationMatrixRowItem</text>
</a>
</g>
</g>
<!-- PinboardItem -->
<g id="node39" class="node">
<title>PinboardItem</title>
<g id="a_node39"><a xlink:href="/develop/Data/models.html#pinboard-item" xlink:title="PinboardItem" target="_top">
<polygon fill="#eeefff" stroke="#dddeee" points="678.79,-144 587.79,-144 587.79,-108 678.79,-108 678.79,-144"/>
<text text-anchor="middle" x="633.29" y="-122.3" font-family="Times,serif" font-size="14.00">PinboardItem</text>
</a>
</g>
</g>
<!-- RelatedBiologicalAssociation -->
<g id="node40" class="node">
<title>RelatedBiologicalAssociation</title>
<g id="a_node40"><a xlink:href="/develop/Data/models.html#related-biological-association" xlink:title="RelatedBiologicalAssociation" target="_top">
<polygon fill="#eeefff" stroke="#dddeee" points="722.29,-952 544.29,-952 544.29,-916 722.29,-916 722.29,-952"/>
<text text-anchor="middle" x="633.29" y="-930.3" font-family="Times,serif" font-size="14.00">RelatedBiologicalAssociation</text>
</a>
</g>
</g>
<!-- RelatedOriginRelationship -->
<g id="node41" class="node">
<title>RelatedOriginRelationship</title>
<g id="a_node41"><a xlink:href="/develop/Data/models.html#related-origin-relationship" xlink:title="RelatedOriginRelationship" target="_top">
<polygon fill="#eeefff" stroke="#dddeee" points="713.79,-312 552.79,-312 552.79,-276 713.79,-276 713.79,-312"/>
<text text-anchor="middle" x="633.29" y="-290.3" font-family="Times,serif" font-size="14.00">RelatedOriginRelationship</text>
</a>
</g>
</g>
<!-- Role -->
<g id="node42" class="node">
<title>Role</title>
<g id="a_node42"><a xlink:href="/develop/Data/models.html#role" xlink:title="Role" target="_top">
<polygon fill="#eeefff" stroke="#dddeee" points="411.79,-90 357.79,-90 357.79,-54 411.79,-54 411.79,-90"/>
<text text-anchor="middle" x="384.79" y="-68.3" font-family="Times,serif" font-size="14.00">Role</text>
</a>
</g>
</g>
<!-- SubsequentCitation -->
<g id="node43" class="node">
<title>SubsequentCitation</title>
<g id="a_node43"><a xlink:href="/develop/Data/models.html#subsequent-citation" xlink:title="SubsequentCitation" target="_top">
<polygon fill="#eeefff" stroke="#dddeee" points="694.29,-1282 572.29,-1282 572.29,-1246 694.29,-1246 694.29,-1282"/>
<text text-anchor="middle" x="633.29" y="-1260.3" font-family="Times,serif" font-size="14.00">SubsequentCitation</text>
</a>
</g>
</g>
<!-- SubsequentSource -->
<g id="node44" class="node">
<title>SubsequentSource</title>
<g id="a_node44"><a xlink:href="/develop/Data/models.html#subsequent-source" xlink:title="SubsequentSource" target="_top">
<polygon fill="#eeefff" stroke="#dddeee" points="914.29,-1282 798.29,-1282 798.29,-1246 914.29,-1246 914.29,-1282"/>
<text text-anchor="middle" x="856.29" y="-1260.3" font-family="Times,serif" font-size="14.00">SubsequentSource</text>
</a>
</g>
</g>
<!-- Topic -->
<g id="node45" class="node">
<title>Topic</title>
<g id="a_node45"><a xlink:href="/develop/Data/models.html#topic" xlink:title="Topic" target="_top">
<polygon fill="#eeefff" stroke="#dddeee" points="411.79,-1343 357.79,-1343 357.79,-1307 411.79,-1307 411.79,-1343"/>
<text text-anchor="middle" x="384.79" y="-1321.3" font-family="Times,serif" font-size="14.00">Topic</text>
</a>
</g>
</g>
<!-- VerifierRole -->
<g id="node46" class="node">
<title>VerifierRole</title>
<g id="a_node46"><a xlink:href="/develop/Data/models.html#verifier-role" xlink:title="VerifierRole" target="_top">
<polygon fill="#eeefff" stroke="#dddeee" points="426.29,-36 343.29,-36 343.29,0 426.29,0 426.29,-36"/>
<text text-anchor="middle" x="384.79" y="-14.3" font-family="Times,serif" font-size="14.00">VerifierRole</text>
</a>
</g>
</g>
<!-- Verifier -->
<g id="node47" class="node">
<title>Verifier</title>
<g id="a_node47"><a xlink:href="/develop/Data/models.html#verifier" xlink:title="Verifier" target="_top">
<polygon fill="#eeefff" stroke="#dddeee" points="661.79,-63 604.79,-63 604.79,-27 661.79,-27 661.79,-63"/>
<text text-anchor="middle" x="633.29" y="-41.3" font-family="Times,serif" font-size="14.00">Verifier</text>
</a>
</g>
</g>
<!-- Version -->
<g id="node48" class="node">
<title>Version</title>
<g id="a_node48"><a xlink:href="/develop/Data/models.html#version" xlink:title="Version" target="_top">
<polygon fill="#eeefff" stroke="#dddeee" points="413.79,-144 355.79,-144 355.79,-108 413.79,-108 413.79,-144"/>
<text text-anchor="middle" x="384.79" y="-122.3" font-family="Times,serif" font-size="14.00">Version</text>
</a>
</g>
</g>
<!-- Creator -->
<g id="node49" class="node">
<title>Creator</title>
<g id="a_node49"><a xlink:href="/develop/Data/models.html#creator" xlink:title="Creator" target="_top">
<polygon fill="#eeefff" stroke="#dddeee" points="661.79,-1157 604.79,-1157 604.79,-1121 661.79,-1121 661.79,-1157"/>
<text text-anchor="middle" x="633.29" y="-1135.3" font-family="Times,serif" font-size="14.00">Creator</text>
</a>
</g>
</g>
<!-- Project -->
<g id="node50" class="node">
<title>Project</title>
<g id="a_node50"><a xlink:href="/develop/Data/models.html#project" xlink:title="Project" target="_top">
<polygon fill="#eeefff" stroke="#dddeee" points="412.29,-1157 357.29,-1157 357.29,-1121 412.29,-1121 412.29,-1157"/>
<text text-anchor="middle" x="384.79" y="-1135.3" font-family="Times,serif" font-size="14.00">Project</text>
</a>
</g>
</g>
<!-- Updater -->
<g id="node51" class="node">
<title>Updater</title>
<g id="a_node51"><a xlink:href="/develop/Data/models.html#updater" xlink:title="Updater" target="_top">
<polygon fill="#eeefff" stroke="#dddeee" points="886.29,-1157 826.29,-1157 826.29,-1121 886.29,-1121 886.29,-1157"/>
<text text-anchor="middle" x="856.29" y="-1135.3" font-family="Times,serif" font-size="14.00">Updater</text>
</a>
</g>
</g>
<!-- OriginCitation -->
<g id="node52" class="node">
<title>OriginCitation</title>
<g id="a_node52"><a xlink:href="/develop/Data/models.html#origin-citation" xlink:title="OriginCitation" target="_top">
<polygon fill="#eeefff" stroke="#dddeee" points="680.79,-1222 585.79,-1222 585.79,-1186 680.79,-1186 680.79,-1222"/>
<text text-anchor="middle" x="633.29" y="-1200.3" font-family="Times,serif" font-size="14.00">OriginCitation</text>
</a>
</g>
</g>
</g>
</svg>
