<?xml version="1.0" encoding="UTF-8" standalone="no"?>
<!DOCTYPE svg PUBLIC "-//W3C//DTD SVG 1.1//EN"
 "http://www.w3.org/Graphics/SVG/1.1/DTD/svg11.dtd">
<!-- Generated by graphviz version 2.50.0 (20211204.2007)
 -->
<!-- Title: Person Pages: 1 -->
<svg width="988pt" height="810pt"
 viewBox="0.00 0.00 988.39 810.00" xmlns="http://www.w3.org/2000/svg" xmlns:xlink="http://www.w3.org/1999/xlink">
<g id="graph0" class="graph" transform="scale(1 1) rotate(0) translate(4 806)">
<title>Person</title>
<polygon fill="white" stroke="transparent" points="-4,4 -4,-806 984.39,-806 984.39,4 -4,4"/>
<!-- AlternateValue&#45;&gt;AlternateValueLanguage -->
<g id="edge1" class="edge">
<title>AlternateValue&#45;&gt;AlternateValueLanguage</title>
<path fill="none" stroke="black" stroke-dasharray="1,5" d="M127.71,-522C135.98,-522 144.57,-522 153.13,-522"/>
<polygon fill="black" stroke="black" points="153.14,-525.5 163.14,-522 153.14,-518.5 153.14,-525.5"/>
</g>
<!-- Depiction&#45;&gt;Image -->
<g id="edge19" class="edge">
<title>Depiction&#45;&gt;Image</title>
<path fill="none" stroke="black" stroke-dasharray="1,5" d="M109.3,-306C137.96,-306 174.73,-306 201.61,-306"/>
<polygon fill="black" stroke="black" points="201.74,-309.5 211.74,-306 201.74,-302.5 201.74,-309.5"/>
</g>
<!-- Tag&#45;&gt;Keyword -->
<g id="edge20" class="edge">
<title>Tag&#45;&gt;Keyword</title>
<path fill="none" stroke="black" stroke-dasharray="1,5" d="M91,-252C118.58,-252 162.36,-252 194.96,-252"/>
<polygon fill="black" stroke="black" points="195.11,-255.5 205.11,-252 195.11,-248.5 195.11,-255.5"/>
</g>
<!-- CollectingEvent&#45;&gt;CollectionObject -->
<g id="edge7" class="edge">
<title>CollectingEvent&#45;&gt;CollectionObject</title>
<path fill="none" stroke="black" stroke-dasharray="1,5" d="M667.05,-675C684.03,-675 703.14,-675 720.95,-675"/>
<polygon fill="black" stroke="black" points="721.26,-678.5 731.26,-675 721.26,-671.5 721.26,-678.5"/>
</g>
<!-- CollectionObject&#45;&gt;DwcOccurrence -->
<g id="edge12" class="edge">
<title>CollectionObject&#45;&gt;DwcOccurrence</title>
<path fill="none" stroke="black" stroke-dasharray="1,5" d="M840.41,-675C848.88,-675 857.7,-675 866.32,-675"/>
<polygon fill="black" stroke="black" points="866.34,-678.5 876.34,-675 866.34,-671.5 866.34,-678.5"/>
</g>
<!-- Person&#45;&gt;AlternateValue -->
<g id="edge2" class="edge">
<title>Person&#45;&gt;AlternateValue</title>
<path fill="none" stroke="black" d="M220.16,-410.05C199.71,-433.28 164.16,-470.61 127.39,-495 122.82,-498.03 117.86,-500.85 112.79,-503.43"/>
<polygon fill="black" stroke="black" points="111.13,-500.34 103.62,-507.81 114.15,-506.66 111.13,-500.34"/>
</g>
<!-- Person&#45;&gt;DataAttribute -->
<g id="edge9" class="edge">
<title>Person&#45;&gt;DataAttribute</title>
<path fill="none" stroke="black" d="M207.06,-403.84C184.96,-414.4 154.45,-428.81 127.39,-441 121.22,-443.78 114.68,-446.66 108.25,-449.47"/>
<polygon fill="black" stroke="black" points="106.74,-446.31 98.95,-453.49 109.52,-452.73 106.74,-446.31"/>
</g>
<!-- Person&#45;&gt;Depiction -->
<g id="edge10" class="edge">
<title>Person&#45;&gt;Depiction</title>
<path fill="none" stroke="black" d="M208.59,-373.52C186.46,-361.99 155.24,-346.04 127.39,-333 120.22,-329.64 112.52,-326.2 105.06,-322.94"/>
<polygon fill="black" stroke="black" points="106.36,-319.69 95.8,-318.94 103.59,-326.12 106.36,-319.69"/>
</g>
<!-- Person&#45;&gt;Identifier -->
<g id="edge18" class="edge">
<title>Person&#45;&gt;Identifier</title>
<path fill="none" stroke="black" d="M197.74,-394.8C172.97,-398.37 141.01,-402.98 114.61,-406.79"/>
<polygon fill="black" stroke="black" points="113.83,-403.37 104.43,-408.26 114.83,-410.3 113.83,-403.37"/>
</g>
<!-- Person&#45;&gt;Tag -->
<g id="edge28" class="edge">
<title>Person&#45;&gt;Tag</title>
<path fill="none" stroke="black" d="M211.31,-372.29C196.24,-362.05 177.61,-348.05 163.39,-333 143.58,-312.04 149.55,-297.47 127.39,-279 118.9,-271.93 108.28,-266.43 98.21,-262.29"/>
<polygon fill="black" stroke="black" points="99.4,-259 88.81,-258.73 96.93,-265.55 99.4,-259"/>
</g>
<!-- Person&#45;&gt;Note -->
<g id="edge21" class="edge">
<title>Person&#45;&gt;Note</title>
<path fill="none" stroke="black" d="M197.79,-382.29C168.53,-377.39 129.2,-370.8 100.89,-366.06"/>
<polygon fill="black" stroke="black" points="101.44,-362.6 91,-364.4 100.28,-369.51 101.44,-362.6"/>
</g>
<!-- Person&#45;&gt;AuthorRole -->
<g id="edge3" class="edge">
<title>Person&#45;&gt;AuthorRole</title>
<path fill="none" stroke="black" d="M258.9,-409.55C276.37,-429.71 301.47,-462.13 314.39,-495 357.39,-604.39 276.8,-665.35 350.39,-757 356.67,-764.82 365.45,-770.38 374.75,-774.33"/>
<polygon fill="black" stroke="black" points="373.55,-777.62 384.15,-777.76 375.96,-771.04 373.55,-777.62"/>
</g>
<!-- Person&#45;&gt;TaxonNameAuthorRole -->
<g id="edge30" class="edge">
<title>Person&#45;&gt;TaxonNameAuthorRole</title>
<path fill="none" stroke="black" d="M258.64,-409.66C275.92,-429.89 300.88,-462.37 314.39,-495 350.1,-581.28 291.07,-629.88 350.39,-702 351.36,-703.18 352.38,-704.31 353.46,-705.39"/>
<polygon fill="black" stroke="black" points="351.28,-708.13 361.19,-711.87 355.77,-702.76 351.28,-708.13"/>
</g>
<!-- Person&#45;&gt;CollectorRole -->
<g id="edge8" class="edge">
<title>Person&#45;&gt;CollectorRole</title>
<path fill="none" stroke="black" d="M258.2,-409.85C275.17,-430.22 299.91,-462.79 314.39,-495 342.86,-558.32 304.69,-594.74 350.39,-647 355.54,-652.89 362.07,-657.55 369.11,-661.23"/>
<polygon fill="black" stroke="black" points="367.66,-664.42 378.21,-665.39 370.57,-658.05 367.66,-664.42"/>
</g>
<!-- Person&#45;&gt;DeterminerRole -->
<g id="edge11" class="edge">
<title>Person&#45;&gt;DeterminerRole</title>
<path fill="none" stroke="black" d="M257.35,-410.26C273.7,-430.93 298.01,-463.71 314.39,-495 335.91,-536.11 317.61,-560.15 350.39,-593 354.11,-596.73 358.39,-599.95 362.98,-602.73"/>
<polygon fill="black" stroke="black" points="361.63,-605.97 372.1,-607.55 364.9,-599.78 361.63,-605.97"/>
</g>
<!-- Person&#45;&gt;EditorRole -->
<g id="edge14" class="edge">
<title>Person&#45;&gt;EditorRole</title>
<path fill="none" stroke="black" d="M255.26,-411.3C282.61,-450.79 338.05,-529.71 350.39,-539 358.24,-544.91 367.53,-549.64 376.79,-553.39"/>
<polygon fill="black" stroke="black" points="375.79,-556.75 386.38,-556.94 378.22,-550.18 375.79,-556.75"/>
</g>
<!-- Person&#45;&gt;GeoreferencerRole -->
<g id="edge15" class="edge">
<title>Person&#45;&gt;GeoreferencerRole</title>
<path fill="none" stroke="black" d="M258.93,-409.44C279.7,-430.74 314.75,-463.89 350.39,-485 353.04,-486.57 355.79,-488.07 358.61,-489.51"/>
<polygon fill="black" stroke="black" points="357.26,-492.74 367.79,-493.87 360.26,-486.42 357.26,-492.74"/>
</g>
<!-- Person&#45;&gt;SourceRole -->
<g id="edge26" class="edge">
<title>Person&#45;&gt;SourceRole</title>
<path fill="none" stroke="black" d="M274.4,-401.98C302.72,-412.63 343.16,-427.83 374.76,-439.71"/>
<polygon fill="black" stroke="black" points="373.67,-443.04 384.26,-443.29 376.13,-436.49 373.67,-443.04"/>
</g>
<!-- Person&#45;&gt;OriginRelationship -->
<g id="edge22" class="edge">
<title>Person&#45;&gt;OriginRelationship</title>
<path fill="none" stroke="black" d="M280.16,-383.95C301.76,-381.24 329,-377.83 353.91,-374.71"/>
<polygon fill="black" stroke="black" points="354.56,-378.15 364.05,-373.44 353.69,-371.21 354.56,-378.15"/>
</g>
<!-- Person&#45;&gt;PinboardItem -->
<g id="edge23" class="edge">
<title>Person&#45;&gt;PinboardItem</title>
<path fill="none" stroke="black" d="M269.77,-373.68C291.66,-362.9 322.33,-348.72 350.39,-339 370.04,-332.19 487.93,-303.86 559.2,-286.92"/>
<polygon fill="black" stroke="black" points="560.44,-290.23 569.36,-284.51 558.82,-283.42 560.44,-290.23"/>
</g>
<!-- Person&#45;&gt;RelatedOriginRelationship -->
<g id="edge24" class="edge">
<title>Person&#45;&gt;RelatedOriginRelationship</title>
<path fill="none" stroke="black" d="M280.35,-392.87C331.37,-397 421.7,-401.84 498.39,-393 511.43,-391.5 525.14,-389.07 538.37,-386.27"/>
<polygon fill="black" stroke="black" points="539.37,-389.63 548.38,-384.06 537.86,-382.79 539.37,-389.63"/>
</g>
<!-- Person&#45;&gt;Role -->
<g id="edge25" class="edge">
<title>Person&#45;&gt;Role</title>
<path fill="none" stroke="black" d="M267.96,-373.03C283.33,-363.13 301.77,-349.22 314.39,-333 339.84,-300.3 320.82,-276.03 350.39,-247 360.55,-237.03 374.56,-230.36 387.59,-225.97"/>
<polygon fill="black" stroke="black" points="388.73,-229.28 397.29,-223.04 386.7,-222.58 388.73,-229.28"/>
</g>
<!-- Person&#45;&gt;VerifierRole -->
<g id="edge31" class="edge">
<title>Person&#45;&gt;VerifierRole</title>
<path fill="none" stroke="black" d="M269.27,-373.47C284.87,-363.8 303.09,-349.97 314.39,-333 350.46,-278.8 306.85,-239.41 350.39,-191 356.56,-184.14 364.63,-179.02 373.16,-175.19"/>
<polygon fill="black" stroke="black" points="374.47,-178.44 382.51,-171.53 371.92,-171.92 374.47,-178.44"/>
</g>
<!-- Person&#45;&gt;Version -->
<g id="edge33" class="edge">
<title>Person&#45;&gt;Version</title>
<path fill="none" stroke="black" d="M263.71,-371.08C296.02,-346.78 349.81,-306.34 350.39,-306 361.5,-299.51 374.16,-293.51 385.79,-288.51"/>
<polygon fill="black" stroke="black" points="387.39,-291.64 395.26,-284.55 384.69,-285.18 387.39,-291.64"/>
</g>
<!-- Person&#45;&gt;Creator -->
<g id="edge34" class="edge">
<title>Person&#45;&gt;Creator</title>
<path fill="none" stroke="black" stroke-dasharray="5,2" d="M278.57,-368.3C291.97,-359.22 305.77,-347.34 314.39,-333 367.45,-244.69 287.48,-185.59 350.39,-104 361.37,-89.75 380.03,-81.72 395.73,-77.27"/>
<polygon fill="black" stroke="black" points="276.42,-365.52 269.89,-373.86 280.2,-371.42 276.42,-365.52"/>
</g>
<!-- Person&#45;&gt;Updater -->
<g id="edge35" class="edge">
<title>Person&#45;&gt;Updater</title>
<path fill="none" stroke="black" stroke-dasharray="5,2" d="M278.38,-368.18C291.75,-359.09 305.59,-347.22 314.39,-333 360.98,-257.68 289.67,-201.48 350.39,-137 354.48,-132.66 516.97,-94.51 584.71,-78.76"/>
<polygon fill="black" stroke="black" points="276.23,-365.4 269.71,-373.76 280.02,-371.29 276.23,-365.4"/>
</g>
<!-- Person&#45;&gt;User -->
<g id="edge36" class="edge">
<title>Person&#45;&gt;User</title>
<path fill="none" stroke="black" d="M278.82,-368.45C292.24,-359.38 306,-347.47 314.39,-333 379.08,-221.4 270.24,-146.07 350.39,-45 359.35,-33.69 373.54,-27.12 387.03,-23.3"/>
<polygon fill="none" stroke="black" points="272.25,-377.36 267.96,-370.61 274.71,-366.32 279,-373.07 272.25,-377.36"/>
<polyline fill="none" stroke="black" points="276.85,-369.7 278.54,-368.62 "/>
<polygon fill="none" stroke="black" points="396.19,-17 398.05,-24.77 390.27,-26.64 388.41,-18.86 396.19,-17"/>
<polyline fill="none" stroke="black" points="389.34,-22.75 387.39,-23.22 "/>
</g>
<!-- AuthorRole&#45;&gt;AuthoredSource -->
<g id="edge4" class="edge">
<title>AuthorRole&#45;&gt;AuthoredSource</title>
<path fill="none" stroke="black" stroke-dasharray="1,5" d="M464.45,-784C489.82,-784 523.42,-784 552.34,-784"/>
<polygon fill="black" stroke="black" points="552.35,-787.5 562.35,-784 552.35,-780.5 552.35,-787.5"/>
</g>
<!-- TaxonNameAuthorRole&#45;&gt;AuthoredTaxonName -->
<g id="edge5" class="edge">
<title>TaxonNameAuthorRole&#45;&gt;AuthoredTaxonName</title>
<path fill="none" stroke="black" stroke-dasharray="1,5" d="M498.54,-730C511.19,-730 524.39,-730 537.14,-730"/>
<polygon fill="black" stroke="black" points="537.25,-733.5 547.25,-730 537.25,-726.5 537.25,-733.5"/>
</g>
<!-- CollectorRole&#45;&gt;CollectingEvent -->
<g id="edge6" class="edge">
<title>CollectorRole&#45;&gt;CollectingEvent</title>
<path fill="none" stroke="black" stroke-dasharray="1,5" d="M470.54,-675C495.17,-675 526,-675 552.75,-675"/>
<polygon fill="black" stroke="black" points="552.79,-678.5 562.79,-675 552.79,-671.5 552.79,-678.5"/>
</g>
<!-- DeterminerRole&#45;&gt;TaxonDetermination -->
<g id="edge29" class="edge">
<title>DeterminerRole&#45;&gt;TaxonDetermination</title>
<path fill="none" stroke="black" stroke-dasharray="1,5" d="M476.4,-620C495.8,-620 518.31,-620 539.44,-620"/>
<polygon fill="black" stroke="black" points="539.68,-623.5 549.68,-620 539.68,-616.5 539.68,-623.5"/>
</g>
<!-- EditorRole&#45;&gt;EditedSource -->
<g id="edge13" class="edge">
<title>EditorRole&#45;&gt;EditedSource</title>
<path fill="none" stroke="black" stroke-dasharray="1,5" d="M462.63,-566C490.39,-566 528.73,-566 559.85,-566"/>
<polygon fill="black" stroke="black" points="560.11,-569.5 570.11,-566 560.11,-562.5 560.11,-569.5"/>
</g>
<!-- GeoreferencerRole&#45;&gt;Georeference -->
<g id="edge16" class="edge">
<title>GeoreferencerRole&#45;&gt;Georeference</title>
<path fill="none" stroke="black" stroke-dasharray="1,5" d="M484,-512C508.29,-512 536.28,-512 560.04,-512"/>
<polygon fill="black" stroke="black" points="560.29,-515.5 570.29,-512 560.29,-508.5 560.29,-515.5"/>
</g>
<!-- SourceRole&#45;&gt;HumanSource -->
<g id="edge17" class="edge">
<title>SourceRole&#45;&gt;HumanSource</title>
<path fill="none" stroke="black" stroke-dasharray="1,5" d="M464.45,-458C491.17,-458 527.03,-458 556.92,-458"/>
<polygon fill="black" stroke="black" points="557.22,-461.5 567.22,-458 557.22,-454.5 557.22,-461.5"/>
</g>
<!-- OriginRelationship&#45;&gt;RelatedOriginRelationship -->
<!-- Role&#45;&gt;Source -->
<g id="edge27" class="edge">
<title>Role&#45;&gt;Source</title>
<path fill="none" stroke="black" stroke-dasharray="1,5" d="M451.6,-218.14C484.28,-218.31 540.35,-218.61 577.27,-218.81"/>
<polygon fill="black" stroke="black" points="577.58,-222.31 587.6,-218.86 577.62,-215.31 577.58,-222.31"/>
</g>
<!-- Role&#45;&gt;Verifier -->
<!-- VerifierRole&#45;&gt;Verifier -->
<g id="edge32" class="edge">
<title>VerifierRole&#45;&gt;Verifier</title>
<path fill="none" stroke="black" stroke-dasharray="1,5" d="M466.29,-164C498.88,-164 544.16,-164 575.95,-164"/>
<polygon fill="black" stroke="black" points="576.17,-167.5 586.17,-164 576.17,-160.5 576.17,-167.5"/>
</g>
<!-- Version&#45;&gt;PinboardItem -->
<!-- Creator&#45;&gt;Updater -->
<!-- AlternateValue -->
<g id="node1" class="node">
<title>AlternateValue</title>
<g id="a_node1"><a xlink:href="/develop/Data/models.html#alternate-value" xlink:title="AlternateValue" target="_top">
<ellipse fill="#abcdef" stroke="#dddeee" cx="63.69" cy="-522" rx="63.89" ry="18"/>
<text text-anchor="middle" x="63.69" y="-518.3" font-family="Times,serif" font-size="14.00">AlternateValue</text>
</a>
</g>
</g>
<!-- DataAttribute -->
<g id="node2" class="node">
<title>DataAttribute</title>
<g id="a_node2"><a xlink:href="/develop/Data/models.html#data-attribute" xlink:title="DataAttribute" target="_top">
<ellipse fill="#abcdef" stroke="#dddeee" cx="63.69" cy="-468" rx="59.29" ry="18"/>
<text text-anchor="middle" x="63.69" y="-464.3" font-family="Times,serif" font-size="14.00">DataAttribute</text>
</a>
</g>
</g>
<!-- Depiction -->
<g id="node3" class="node">
<title>Depiction</title>
<g id="a_node3"><a xlink:href="/develop/Data/models.html#depiction" xlink:title="Depiction" target="_top">
<ellipse fill="#abcdef" stroke="#dddeee" cx="63.69" cy="-306" rx="45.49" ry="18"/>
<text text-anchor="middle" x="63.69" y="-302.3" font-family="Times,serif" font-size="14.00">Depiction</text>
</a>
</g>
</g>
<!-- Identifier -->
<g id="node4" class="node">
<title>Identifier</title>
<g id="a_node4"><a xlink:href="/develop/Data/models.html#identifier" xlink:title="Identifier" target="_top">
<ellipse fill="#abcdef" stroke="#dddeee" cx="63.69" cy="-414" rx="42.79" ry="18"/>
<text text-anchor="middle" x="63.69" y="-410.3" font-family="Times,serif" font-size="14.00">Identifier</text>
</a>
</g>
</g>
<!-- Tag -->
<g id="node5" class="node">
<title>Tag</title>
<g id="a_node5"><a xlink:href="/develop/Data/models.html#tag" xlink:title="Tag" target="_top">
<ellipse fill="#abcdef" stroke="#dddeee" cx="63.69" cy="-252" rx="27" ry="18"/>
<text text-anchor="middle" x="63.69" y="-248.3" font-family="Times,serif" font-size="14.00">Tag</text>
</a>
</g>
</g>
<!-- Note -->
<g id="node6" class="node">
<title>Note</title>
<g id="a_node6"><a xlink:href="/develop/Data/models.html#note" xlink:title="Note" target="_top">
<ellipse fill="#abcdef" stroke="#dddeee" cx="63.69" cy="-360" rx="27.9" ry="18"/>
<text text-anchor="middle" x="63.69" y="-356.3" font-family="Times,serif" font-size="14.00">Note</text>
</a>
</g>
</g>
<!-- CollectingEvent -->
<g id="node7" class="node">
<title>CollectingEvent</title>
<g id="a_node7"><a xlink:href="/develop/Data/models.html#collecting-event" xlink:title="CollectingEvent" target="_top">
<path fill="#fedcba" stroke="#dddeee" d="M574.89,-657C574.89,-657 654.89,-657 654.89,-657 660.89,-657 666.89,-663 666.89,-669 666.89,-669 666.89,-681 666.89,-681 666.89,-687 660.89,-693 654.89,-693 654.89,-693 574.89,-693 574.89,-693 568.89,-693 562.89,-687 562.89,-681 562.89,-681 562.89,-669 562.89,-669 562.89,-663 568.89,-657 574.89,-657"/>
<text text-anchor="middle" x="614.89" y="-671.3" font-family="Times,serif" font-size="14.00">CollectingEvent</text>
</a>
</g>
</g>
<!-- CollectionObject -->
<g id="node8" class="node">
<title>CollectionObject</title>
<g id="a_node8"><a xlink:href="/develop/Data/models.html#collection-object" xlink:title="CollectionObject" target="_top">
<path fill="#fedcba" stroke="#dddeee" d="M743.39,-657C743.39,-657 828.39,-657 828.39,-657 834.39,-657 840.39,-663 840.39,-669 840.39,-669 840.39,-681 840.39,-681 840.39,-687 834.39,-693 828.39,-693 828.39,-693 743.39,-693 743.39,-693 737.39,-693 731.39,-687 731.39,-681 731.39,-681 731.39,-669 731.39,-669 731.39,-663 737.39,-657 743.39,-657"/>
<text text-anchor="middle" x="785.89" y="-671.3" font-family="Times,serif" font-size="14.00">CollectionObject</text>
</a>
</g>
</g>
<!-- Source -->
<g id="node9" class="node">
<title>Source</title>
<g id="a_node9"><a xlink:href="/develop/Data/models.html#source" xlink:title="Source" target="_top">
<path fill="#fedcba" stroke="#dddeee" d="M599.89,-201C599.89,-201 629.89,-201 629.89,-201 635.89,-201 641.89,-207 641.89,-213 641.89,-213 641.89,-225 641.89,-225 641.89,-231 635.89,-237 629.89,-237 629.89,-237 599.89,-237 599.89,-237 593.89,-237 587.89,-231 587.89,-225 587.89,-225 587.89,-213 587.89,-213 587.89,-207 593.89,-201 599.89,-201"/>
<text text-anchor="middle" x="614.89" y="-215.3" font-family="Times,serif" font-size="14.00">Source</text>
</a>
</g>
</g>
<!-- Person -->
<g id="node10" class="node">
<title>Person</title>
<g id="a_node10"><a xlink:href="/develop/Data/models.html#person" xlink:title="Person" target="_top">
<polygon fill="#cdefab" stroke="#dedede" points="275.98,-381.54 275.98,-396.46 254.25,-407 223.52,-407 201.8,-396.46 201.8,-381.54 223.52,-371 254.25,-371 275.98,-381.54"/>
<polygon fill="none" stroke="#dedede" points="279.96,-379.03 279.96,-398.97 255.16,-411 222.61,-411 197.82,-398.97 197.82,-379.03 222.61,-367 255.16,-367 279.96,-379.03"/>
<text text-anchor="middle" x="238.89" y="-385.3" font-family="Times,serif" font-size="14.00">Person</text>
</a>
</g>
</g>
<!-- AlternateValueLanguage -->
<g id="node11" class="node">
<title>AlternateValueLanguage</title>
<g id="a_node11"><a xlink:href="/develop/Data/models.html#alternate-value-language" xlink:title="AlternateValueLanguage" target="_top">
<polygon fill="#eeefff" stroke="#dddeee" points="314.39,-540 163.39,-540 163.39,-504 314.39,-504 314.39,-540"/>
<text text-anchor="middle" x="238.89" y="-518.3" font-family="Times,serif" font-size="14.00">AlternateValueLanguage</text>
</a>
</g>
</g>
<!-- AuthorRole -->
<g id="node12" class="node">
<title>AuthorRole</title>
<g id="a_node12"><a xlink:href="/develop/Data/models.html#author-role" xlink:title="AuthorRole" target="_top">
<polygon fill="#eeefff" stroke="#dddeee" points="464.39,-802 384.39,-802 384.39,-766 464.39,-766 464.39,-802"/>
<text text-anchor="middle" x="424.39" y="-780.3" font-family="Times,serif" font-size="14.00">AuthorRole</text>
</a>
</g>
</g>
<!-- AuthoredSource -->
<g id="node13" class="node">
<title>AuthoredSource</title>
<g id="a_node13"><a xlink:href="/develop/Data/models.html#authored-source" xlink:title="AuthoredSource" target="_top">
<polygon fill="#eeefff" stroke="#dddeee" points="667.39,-802 562.39,-802 562.39,-766 667.39,-766 667.39,-802"/>
<text text-anchor="middle" x="614.89" y="-780.3" font-family="Times,serif" font-size="14.00">AuthoredSource</text>
</a>
</g>
</g>
<!-- TaxonNameAuthorRole -->
<g id="node14" class="node">
<title>TaxonNameAuthorRole</title>
<g id="a_node14"><a xlink:href="/develop/Data/models.html#taxon-name-author-role" xlink:title="TaxonNameAuthorRole" target="_top">
<polygon fill="#eeefff" stroke="#dddeee" points="498.39,-748 350.39,-748 350.39,-712 498.39,-712 498.39,-748"/>
<text text-anchor="middle" x="424.39" y="-726.3" font-family="Times,serif" font-size="14.00">TaxonNameAuthorRole</text>
</a>
</g>
</g>
<!-- AuthoredTaxonName -->
<g id="node15" class="node">
<title>AuthoredTaxonName</title>
<g id="a_node15"><a xlink:href="/develop/Data/models.html#authored-taxon-name" xlink:title="AuthoredTaxonName" target="_top">
<polygon fill="#eeefff" stroke="#dddeee" points="682.39,-748 547.39,-748 547.39,-712 682.39,-712 682.39,-748"/>
<text text-anchor="middle" x="614.89" y="-726.3" font-family="Times,serif" font-size="14.00">AuthoredTaxonName</text>
</a>
</g>
</g>
<!-- CollectorRole -->
<g id="node16" class="node">
<title>CollectorRole</title>
<g id="a_node16"><a xlink:href="/develop/Data/models.html#collector-role" xlink:title="CollectorRole" target="_top">
<polygon fill="#eeefff" stroke="#dddeee" points="470.39,-693 378.39,-693 378.39,-657 470.39,-657 470.39,-693"/>
<text text-anchor="middle" x="424.39" y="-671.3" font-family="Times,serif" font-size="14.00">CollectorRole</text>
</a>
</g>
</g>
<!-- DeterminerRole -->
<g id="node17" class="node">
<title>DeterminerRole</title>
<g id="a_node17"><a xlink:href="/develop/Data/models.html#determiner-role" xlink:title="DeterminerRole" target="_top">
<polygon fill="#eeefff" stroke="#dddeee" points="476.39,-638 372.39,-638 372.39,-602 476.39,-602 476.39,-638"/>
<text text-anchor="middle" x="424.39" y="-616.3" font-family="Times,serif" font-size="14.00">DeterminerRole</text>
</a>
</g>
</g>
<!-- DwcOccurrence -->
<g id="node18" class="node">
<title>DwcOccurrence</title>
<g id="a_node18"><a xlink:href="/develop/Data/models.html#dwc-occurrence" xlink:title="DwcOccurrence" target="_top">
<polygon fill="#eeefff" stroke="#dddeee" points="980.39,-693 876.39,-693 876.39,-657 980.39,-657 980.39,-693"/>
<text text-anchor="middle" x="928.39" y="-671.3" font-family="Times,serif" font-size="14.00">DwcOccurrence</text>
</a>
</g>
</g>
<!-- EditorRole -->
<g id="node19" class="node">
<title>EditorRole</title>
<g id="a_node19"><a xlink:href="/develop/Data/models.html#editor-role" xlink:title="EditorRole" target="_top">
<polygon fill="#eeefff" stroke="#dddeee" points="462.39,-584 386.39,-584 386.39,-548 462.39,-548 462.39,-584"/>
<text text-anchor="middle" x="424.39" y="-562.3" font-family="Times,serif" font-size="14.00">EditorRole</text>
</a>
</g>
</g>
<!-- EditedSource -->
<g id="node20" class="node">
<title>EditedSource</title>
<g id="a_node20"><a xlink:href="/develop/Data/models.html#edited-source" xlink:title="EditedSource" target="_top">
<polygon fill="#eeefff" stroke="#dddeee" points="659.39,-584 570.39,-584 570.39,-548 659.39,-548 659.39,-584"/>
<text text-anchor="middle" x="614.89" y="-562.3" font-family="Times,serif" font-size="14.00">EditedSource</text>
</a>
</g>
</g>
<!-- GeoreferencerRole -->
<g id="node21" class="node">
<title>GeoreferencerRole</title>
<g id="a_node21"><a xlink:href="/develop/Data/models.html#georeferencer-role" xlink:title="GeoreferencerRole" target="_top">
<polygon fill="#eeefff" stroke="#dddeee" points="483.89,-530 364.89,-530 364.89,-494 483.89,-494 483.89,-530"/>
<text text-anchor="middle" x="424.39" y="-508.3" font-family="Times,serif" font-size="14.00">GeoreferencerRole</text>
</a>
</g>
</g>
<!-- Georeference -->
<g id="node22" class="node">
<title>Georeference</title>
<g id="a_node22"><a xlink:href="/develop/Data/models.html#georeference" xlink:title="Georeference" target="_top">
<polygon fill="#eeefff" stroke="#dddeee" points="659.39,-530 570.39,-530 570.39,-494 659.39,-494 659.39,-530"/>
<text text-anchor="middle" x="614.89" y="-508.3" font-family="Times,serif" font-size="14.00">Georeference</text>
</a>
</g>
</g>
<!-- SourceRole -->
<g id="node23" class="node">
<title>SourceRole</title>
<g id="a_node23"><a xlink:href="/develop/Data/models.html#source-role" xlink:title="SourceRole" target="_top">
<polygon fill="#eeefff" stroke="#dddeee" points="464.39,-476 384.39,-476 384.39,-440 464.39,-440 464.39,-476"/>
<text text-anchor="middle" x="424.39" y="-454.3" font-family="Times,serif" font-size="14.00">SourceRole</text>
</a>
</g>
</g>
<!-- HumanSource -->
<g id="node24" class="node">
<title>HumanSource</title>
<g id="a_node24"><a xlink:href="/develop/Data/models.html#human-source" xlink:title="HumanSource" target="_top">
<polygon fill="#eeefff" stroke="#dddeee" points="662.39,-476 567.39,-476 567.39,-440 662.39,-440 662.39,-476"/>
<text text-anchor="middle" x="614.89" y="-454.3" font-family="Times,serif" font-size="14.00">HumanSource</text>
</a>
</g>
</g>
<!-- Image -->
<g id="node25" class="node">
<title>Image</title>
<g id="a_node25"><a xlink:href="/develop/Data/models.html#image" xlink:title="Image" target="_top">
<polygon fill="#eeefff" stroke="#dddeee" points="265.89,-324 211.89,-324 211.89,-288 265.89,-288 265.89,-324"/>
<text text-anchor="middle" x="238.89" y="-302.3" font-family="Times,serif" font-size="14.00">Image</text>
</a>
</g>
</g>
<!-- Keyword -->
<g id="node26" class="node">
<title>Keyword</title>
<g id="a_node26"><a xlink:href="/develop/Data/models.html#keyword" xlink:title="Keyword" target="_top">
<polygon fill="#eeefff" stroke="#dddeee" points="272.39,-270 205.39,-270 205.39,-234 272.39,-234 272.39,-270"/>
<text text-anchor="middle" x="238.89" y="-248.3" font-family="Times,serif" font-size="14.00">Keyword</text>
</a>
</g>
</g>
<!-- OriginRelationship -->
<g id="node27" class="node">
<title>OriginRelationship</title>
<g id="a_node27"><a xlink:href="/develop/Data/models.html#origin-relationship" xlink:title="OriginRelationship" target="_top">
<polygon fill="#eeefff" stroke="#dddeee" points="484.39,-384 364.39,-384 364.39,-348 484.39,-348 484.39,-384"/>
<text text-anchor="middle" x="424.39" y="-362.3" font-family="Times,serif" font-size="14.00">OriginRelationship</text>
</a>
</g>
</g>
<!-- PinboardItem -->
<g id="node28" class="node">
<title>PinboardItem</title>
<g id="a_node28"><a xlink:href="/develop/Data/models.html#pinboard-item" xlink:title="PinboardItem" target="_top">
<polygon fill="#eeefff" stroke="#dddeee" points="660.39,-292 569.39,-292 569.39,-256 660.39,-256 660.39,-292"/>
<text text-anchor="middle" x="614.89" y="-270.3" font-family="Times,serif" font-size="14.00">PinboardItem</text>
</a>
</g>
</g>
<!-- RelatedOriginRelationship -->
<g id="node29" class="node">
<title>RelatedOriginRelationship</title>
<g id="a_node29"><a xlink:href="/develop/Data/models.html#related-origin-relationship" xlink:title="RelatedOriginRelationship" target="_top">
<polygon fill="#eeefff" stroke="#dddeee" points="695.39,-384 534.39,-384 534.39,-348 695.39,-348 695.39,-384"/>
<text text-anchor="middle" x="614.89" y="-362.3" font-family="Times,serif" font-size="14.00">RelatedOriginRelationship</text>
</a>
</g>
</g>
<!-- Role -->
<g id="node30" class="node">
<title>Role</title>
<g id="a_node30"><a xlink:href="/develop/Data/models.html#role" xlink:title="Role" target="_top">
<polygon fill="#eeefff" stroke="#dddeee" points="451.39,-236 397.39,-236 397.39,-200 451.39,-200 451.39,-236"/>
<text text-anchor="middle" x="424.39" y="-214.3" font-family="Times,serif" font-size="14.00">Role</text>
</a>
</g>
</g>
<!-- TaxonDetermination -->
<g id="node31" class="node">
<title>TaxonDetermination</title>
<g id="a_node31"><a xlink:href="/develop/Data/models.html#taxon-determination" xlink:title="TaxonDetermination" target="_top">
<polygon fill="#eeefff" stroke="#dddeee" points="679.89,-638 549.89,-638 549.89,-602 679.89,-602 679.89,-638"/>
<text text-anchor="middle" x="614.89" y="-616.3" font-family="Times,serif" font-size="14.00">TaxonDetermination</text>
</a>
</g>
</g>
<!-- VerifierRole -->
<g id="node32" class="node">
<title>VerifierRole</title>
<g id="a_node32"><a xlink:href="/develop/Data/models.html#verifier-role" xlink:title="VerifierRole" target="_top">
<polygon fill="#eeefff" stroke="#dddeee" points="465.89,-182 382.89,-182 382.89,-146 465.89,-146 465.89,-182"/>
<text text-anchor="middle" x="424.39" y="-160.3" font-family="Times,serif" font-size="14.00">VerifierRole</text>
</a>
</g>
</g>
<!-- Verifier -->
<g id="node33" class="node">
<title>Verifier</title>
<g id="a_node33"><a xlink:href="/develop/Data/models.html#verifier" xlink:title="Verifier" target="_top">
<polygon fill="#eeefff" stroke="#dddeee" points="643.39,-182 586.39,-182 586.39,-146 643.39,-146 643.39,-182"/>
<text text-anchor="middle" x="614.89" y="-160.3" font-family="Times,serif" font-size="14.00">Verifier</text>
</a>
</g>
</g>
<!-- Version -->
<g id="node34" class="node">
<title>Version</title>
<g id="a_node34"><a xlink:href="/develop/Data/models.html#version" xlink:title="Version" target="_top">
<polygon fill="#eeefff" stroke="#dddeee" points="453.39,-292 395.39,-292 395.39,-256 453.39,-256 453.39,-292"/>
<text text-anchor="middle" x="424.39" y="-270.3" font-family="Times,serif" font-size="14.00">Version</text>
</a>
</g>
</g>
<!-- Creator -->
<g id="node35" class="node">
<title>Creator</title>
<g id="a_node35"><a xlink:href="/develop/Data/models.html#creator" xlink:title="Creator" target="_top">
<polygon fill="#eeefff" stroke="#dddeee" points="452.89,-90 395.89,-90 395.89,-54 452.89,-54 452.89,-90"/>
<text text-anchor="middle" x="424.39" y="-68.3" font-family="Times,serif" font-size="14.00">Creator</text>
</a>
</g>
</g>
<!-- Updater -->
<g id="node36" class="node">
<title>Updater</title>
<g id="a_node36"><a xlink:href="/develop/Data/models.html#updater" xlink:title="Updater" target="_top">
<polygon fill="#eeefff" stroke="#dddeee" points="644.89,-90 584.89,-90 584.89,-54 644.89,-54 644.89,-90"/>
<text text-anchor="middle" x="614.89" y="-68.3" font-family="Times,serif" font-size="14.00">Updater</text>
</a>
</g>
</g>
<!-- User -->
<g id="node37" class="node">
<title>User</title>
<g id="a_node37"><a xlink:href="/develop/Data/models.html#user" xlink:title="User" target="_top">
<polygon fill="#eeefff" stroke="#dddeee" points="451.39,-36 397.39,-36 397.39,0 451.39,0 451.39,-36"/>
<text text-anchor="middle" x="424.39" y="-14.3" font-family="Times,serif" font-size="14.00">User</text>
</a>
</g>
</g>
</g>
</svg>
