<?xml version="1.0" encoding="UTF-8" standalone="no"?>
<!DOCTYPE svg PUBLIC "-//W3C//DTD SVG 1.1//EN"
 "http://www.w3.org/Graphics/SVG/1.1/DTD/svg11.dtd">
<!-- Generated by graphviz version 12.2.1 (20241206.2353)
 -->
<!-- Title: Person Pages: 1 -->
<svg width="851pt" height="1026pt"
 viewBox="0.00 0.00 850.89 1026.00" xmlns="http://www.w3.org/2000/svg" xmlns:xlink="http://www.w3.org/1999/xlink">
<g id="graph0" class="graph" transform="scale(1 1) rotate(0) translate(4 1022)">
<title>Person</title>
<polygon fill="white" stroke="none" points="-4,4 -4,-1022 846.89,-1022 846.89,4 -4,4"/>
<!-- AlternateValue&#45;&gt;AlternateValueLanguage -->
<g id="edge1" class="edge">
<title>AlternateValue&#45;&gt;AlternateValueLanguage</title>
<path fill="none" stroke="black" stroke-dasharray="1,5" d="M132.48,-630C140.35,-630 148.48,-630 156.6,-630"/>
<polygon fill="black" stroke="black" points="156.51,-633.5 166.51,-630 156.51,-626.5 156.51,-633.5"/>
</g>
<!-- Depiction&#45;&gt;Image -->
<g id="edge18" class="edge">
<title>Depiction&#45;&gt;Image</title>
<path fill="none" stroke="black" stroke-dasharray="1,5" d="M113.72,-414C142.26,-414 178.33,-414 205.03,-414"/>
<polygon fill="black" stroke="black" points="204.7,-417.5 214.7,-414 204.7,-410.5 204.7,-417.5"/>
</g>
<!-- Tag&#45;&gt;Keyword -->
<g id="edge21" class="edge">
<title>Tag&#45;&gt;Keyword</title>
<path fill="none" stroke="black" stroke-dasharray="1,5" d="M93.44,-360C121.3,-360 165.78,-360 198.91,-360"/>
<polygon fill="black" stroke="black" points="198.6,-363.5 208.6,-360 198.6,-356.5 198.6,-363.5"/>
</g>
<!-- CollectingEvent&#45;&gt;CollectionObject -->
<g id="edge7" class="edge">
<title>CollectingEvent&#45;&gt;CollectionObject</title>
<path fill="none" stroke="black" stroke-dasharray="1,5" d="M670.28,-891C686.88,-891 705.54,-891 723.02,-891"/>
<polygon fill="black" stroke="black" points="722.78,-894.5 732.78,-891 722.78,-887.5 722.78,-894.5"/>
</g>
<!-- Person&#45;&gt;AlternateValue -->
<g id="edge2" class="edge">
<title>Person&#45;&gt;AlternateValue</title>
<path fill="none" stroke="black" d="M224.55,-518.57C204.18,-541.92 169.03,-579.02 132.39,-603 128.01,-605.87 123.27,-608.53 118.42,-610.98"/>
<polygon fill="black" stroke="black" points="117.31,-607.63 109.75,-615.05 120.29,-613.97 117.31,-607.63"/>
</g>
<!-- Person&#45;&gt;DataAttribute -->
<g id="edge9" class="edge">
<title>Person&#45;&gt;DataAttribute</title>
<path fill="none" stroke="black" d="M211.37,-512.2C189.42,-522.79 159.26,-537.1 132.39,-549 126.43,-551.64 120.14,-554.34 113.9,-556.98"/>
<polygon fill="black" stroke="black" points="112.81,-553.64 104.93,-560.73 115.51,-560.1 112.81,-553.64"/>
</g>
<!-- Person&#45;&gt;Depiction -->
<g id="edge10" class="edge">
<title>Person&#45;&gt;Depiction</title>
<path fill="none" stroke="black" d="M212.91,-481.15C190.91,-469.58 160.05,-453.74 132.39,-441 125.36,-437.76 117.83,-434.48 110.48,-431.37"/>
<polygon fill="black" stroke="black" points="111.88,-428.16 101.3,-427.55 109.19,-434.63 111.88,-428.16"/>
</g>
<!-- Person&#45;&gt;Identifier -->
<g id="edge17" class="edge">
<title>Person&#45;&gt;Identifier</title>
<path fill="none" stroke="black" d="M200.25,-503.03C176.31,-506.44 146.13,-510.74 120.57,-514.39"/>
<polygon fill="black" stroke="black" points="120.09,-510.92 110.69,-515.8 121.08,-517.85 120.09,-510.92"/>
</g>
<!-- Person&#45;&gt;Tag -->
<g id="edge29" class="edge">
<title>Person&#45;&gt;Tag</title>
<path fill="none" stroke="black" d="M215.37,-479.78C200.5,-469.58 182.33,-455.79 168.39,-441 148.6,-420.01 154.68,-405.31 132.39,-387 123.77,-379.92 113.03,-374.46 102.77,-370.36"/>
<polygon fill="black" stroke="black" points="103.97,-367.07 93.38,-366.96 101.59,-373.66 103.97,-367.07"/>
</g>
<!-- Person&#45;&gt;Note -->
<g id="edge22" class="edge">
<title>Person&#45;&gt;Note</title>
<path fill="none" stroke="black" d="M200.3,-490.02C171.58,-485.27 133.86,-479.03 105.91,-474.4"/>
<polygon fill="black" stroke="black" points="106.52,-470.96 96.08,-472.78 105.38,-477.86 106.52,-470.96"/>
</g>
<!-- Person&#45;&gt;AuthorRole -->
<g id="edge3" class="edge">
<title>Person&#45;&gt;AuthorRole</title>
<path fill="none" stroke="black" d="M264.05,-517.84C281.63,-537.96 306.51,-570.14 318.64,-603 347.25,-680.5 304.25,-907.53 354.64,-973 360.48,-980.59 368.68,-986.04 377.48,-989.96"/>
<polygon fill="black" stroke="black" points="375.98,-993.14 386.57,-993.37 378.43,-986.58 375.98,-993.14"/>
</g>
<!-- Person&#45;&gt;TaxonNameAuthorRole -->
<g id="edge31" class="edge">
<title>Person&#45;&gt;TaxonNameAuthorRole</title>
<path fill="none" stroke="black" d="M263.93,-517.89C281.42,-538.04 306.23,-570.24 318.64,-603 343.59,-668.89 311.53,-862.27 354.64,-918 355.16,-918.68 355.71,-919.35 356.27,-920"/>
<polygon fill="black" stroke="black" points="353.64,-922.33 363.37,-926.52 358.38,-917.18 353.64,-922.33"/>
</g>
<!-- Person&#45;&gt;CollectorRole -->
<g id="edge8" class="edge">
<title>Person&#45;&gt;CollectorRole</title>
<path fill="none" stroke="black" d="M263.75,-517.96C281.12,-538.16 305.84,-570.39 318.64,-603 361.25,-711.6 282.18,-771.58 354.64,-863 359.32,-868.91 365.41,-873.57 372.07,-877.25"/>
<polygon fill="black" stroke="black" points="370.22,-880.25 380.76,-881.32 373.19,-873.91 370.22,-880.25"/>
</g>
<!-- Person&#45;&gt;DeterminerRole -->
<g id="edge11" class="edge">
<title>Person&#45;&gt;DeterminerRole</title>
<path fill="none" stroke="black" d="M263.49,-518.06C280.67,-538.34 305.27,-570.62 318.64,-603 354.11,-688.91 295.19,-737.55 354.64,-809 357.92,-812.95 361.84,-816.31 366.13,-819.19"/>
<polygon fill="black" stroke="black" points="364.26,-822.16 374.69,-824 367.68,-816.05 364.26,-822.16"/>
</g>
<!-- Person&#45;&gt;EditorRole -->
<g id="edge13" class="edge">
<title>Person&#45;&gt;EditorRole</title>
<path fill="none" stroke="black" d="M263.05,-518.25C279.92,-538.66 304.31,-571.03 318.64,-603 347.04,-666.35 308.67,-702.98 354.64,-755 361.3,-762.54 370.28,-767.98 379.64,-771.91"/>
<polygon fill="black" stroke="black" points="378.26,-775.13 388.85,-775.21 380.62,-768.54 378.26,-775.13"/>
</g>
<!-- Person&#45;&gt;GeoreferencerRole -->
<g id="edge14" class="edge">
<title>Person&#45;&gt;GeoreferencerRole</title>
<path fill="none" stroke="black" d="M262.19,-518.67C278.45,-539.38 302.43,-571.95 318.64,-603 340.11,-644.13 321.89,-668.13 354.64,-701 356.17,-702.54 357.79,-703.99 359.5,-705.36"/>
<polygon fill="black" stroke="black" points="357.09,-707.95 367.32,-710.69 361.03,-702.16 357.09,-707.95"/>
</g>
<!-- Person&#45;&gt;SourceRole -->
<g id="edge27" class="edge">
<title>Person&#45;&gt;SourceRole</title>
<path fill="none" stroke="black" d="M259.83,-519.3C287.08,-558.78 342.33,-637.7 354.64,-647 361.66,-652.3 369.83,-656.65 378.11,-660.2"/>
<polygon fill="black" stroke="black" points="376.57,-663.36 387.16,-663.72 379.11,-656.83 376.57,-663.36"/>
</g>
<!-- Person&#45;&gt;ImportAttribute -->
<g id="edge19" class="edge">
<title>Person&#45;&gt;ImportAttribute</title>
<path fill="none" stroke="black" d="M263.87,-517.83C284.6,-539.13 319.32,-572 354.64,-593 358.43,-595.26 362.45,-597.38 366.56,-599.36"/>
<polygon fill="black" stroke="black" points="365,-602.5 375.55,-603.39 367.86,-596.11 365,-602.5"/>
</g>
<!-- Person&#45;&gt;InternalAttribute -->
<g id="edge20" class="edge">
<title>Person&#45;&gt;InternalAttribute</title>
<path fill="none" stroke="black" d="M280.18,-510.47C305.16,-519.9 339.12,-532.72 368.11,-543.67"/>
<polygon fill="black" stroke="black" points="366.54,-546.81 377.13,-547.07 369.01,-540.26 366.54,-546.81"/>
</g>
<!-- Person&#45;&gt;OriginRelationship -->
<g id="edge23" class="edge">
<title>Person&#45;&gt;OriginRelationship</title>
<path fill="none" stroke="black" d="M286.9,-491.67C307.65,-489.05 333.19,-485.84 356.76,-482.87"/>
<polygon fill="black" stroke="black" points="357.16,-486.35 366.65,-481.63 356.29,-479.4 357.16,-486.35"/>
</g>
<!-- Person&#45;&gt;PinboardItem -->
<g id="edge24" class="edge">
<title>Person&#45;&gt;PinboardItem</title>
<path fill="none" stroke="black" d="M274.75,-481.45C296.54,-470.7 326.87,-456.65 354.64,-447 374.14,-440.22 490.76,-412.09 561.88,-395.13"/>
<polygon fill="black" stroke="black" points="562.49,-398.59 571.41,-392.86 560.87,-391.78 562.49,-398.59"/>
</g>
<!-- Person&#45;&gt;RelatedOriginRelationship -->
<g id="edge25" class="edge">
<title>Person&#45;&gt;RelatedOriginRelationship</title>
<path fill="none" stroke="black" d="M286.58,-501C337.68,-505.09 426.42,-509.71 501.89,-501 513.94,-499.61 526.55,-497.43 538.84,-494.89"/>
<polygon fill="black" stroke="black" points="539.49,-498.33 548.52,-492.8 538.01,-491.49 539.49,-498.33"/>
</g>
<!-- Person&#45;&gt;Role -->
<g id="edge26" class="edge">
<title>Person&#45;&gt;Role</title>
<path fill="none" stroke="black" d="M273.17,-480.53C288.31,-470.65 306.27,-456.93 318.64,-441 344.05,-408.27 325.1,-384.06 354.64,-355 364.37,-345.43 377.66,-338.9 390.21,-334.5"/>
<polygon fill="black" stroke="black" points="390.99,-337.93 399.5,-331.62 388.91,-331.24 390.99,-337.93"/>
</g>
<!-- Person&#45;&gt;Uri -->
<g id="edge32" class="edge">
<title>Person&#45;&gt;Uri</title>
<path fill="none" stroke="black" d="M274.94,-481.26C290.42,-471.69 308.14,-458.02 318.64,-441 365.14,-365.62 297.7,-312.84 354.64,-245 363.53,-234.4 377.01,-227.96 389.94,-224.05"/>
<polygon fill="black" stroke="black" points="390.75,-227.45 399.58,-221.59 389.02,-220.67 390.75,-227.45"/>
</g>
<!-- Person&#45;&gt;Uuid -->
<g id="edge33" class="edge">
<title>Person&#45;&gt;Uuid</title>
<path fill="none" stroke="black" d="M275.2,-481.42C290.76,-471.9 308.47,-458.22 318.64,-441 375.72,-344.34 284.14,-278.36 354.64,-191 363.33,-180.23 376.76,-173.76 389.72,-169.87"/>
<polygon fill="black" stroke="black" points="390.54,-173.27 399.39,-167.44 388.84,-166.48 390.54,-173.27"/>
</g>
<!-- Person&#45;&gt;VerifierRole -->
<g id="edge34" class="edge">
<title>Person&#45;&gt;VerifierRole</title>
<path fill="none" stroke="black" d="M274.49,-480.98C289.84,-471.32 307.58,-457.66 318.64,-441 354.65,-386.76 311.14,-347.45 354.64,-299 360.45,-292.53 367.96,-287.6 375.94,-283.85"/>
<polygon fill="black" stroke="black" points="377.21,-287.11 385.19,-280.14 374.6,-280.62 377.21,-287.11"/>
</g>
<!-- Person&#45;&gt;Version -->
<g id="edge36" class="edge">
<title>Person&#45;&gt;Version</title>
<path fill="none" stroke="black" d="M268.9,-478.56C300.99,-454.31 353.49,-414.67 354.64,-414 365.36,-407.71 377.53,-401.89 388.81,-396.97"/>
<polygon fill="black" stroke="black" points="390.03,-400.26 397.88,-393.15 387.31,-393.81 390.03,-400.26"/>
</g>
<!-- Person&#45;&gt;Creator -->
<g id="edge37" class="edge">
<title>Person&#45;&gt;Creator</title>
<path fill="none" stroke="black" stroke-dasharray="5,2" d="M284.78,-475.54C297.7,-466.6 310.71,-455.01 318.64,-441 392.84,-309.92 265.76,-225.62 354.64,-104 365.29,-89.43 384.06,-81.39 399.84,-77.01"/>
<polygon fill="black" stroke="black" points="283.22,-472.38 276.72,-480.75 287.02,-478.25 283.22,-472.38"/>
</g>
<!-- Person&#45;&gt;Updater -->
<g id="edge38" class="edge">
<title>Person&#45;&gt;Updater</title>
<path fill="none" stroke="black" stroke-dasharray="5,2" d="M284.69,-475.49C297.6,-466.54 310.63,-454.96 318.64,-441 386.34,-322.99 264.62,-239.02 354.64,-137 358.57,-132.54 520.61,-94.47 588.16,-78.75"/>
<polygon fill="black" stroke="black" points="283.13,-472.32 276.64,-480.7 286.94,-478.2 283.13,-472.32"/>
</g>
<!-- Person&#45;&gt;User -->
<g id="edge39" class="edge">
<title>Person&#45;&gt;User</title>
<path fill="none" stroke="black" d="M284.15,-476.12C297.33,-467.13 310.67,-455.34 318.64,-441 361.56,-363.76 300.97,-115.2 354.64,-45 363.36,-33.59 377.44,-27 390.9,-23.2"/>
<polygon fill="none" stroke="black" points="278.14,-484.73 273.82,-477.99 280.56,-473.67 284.88,-480.41 278.14,-484.73"/>
<polyline fill="none" stroke="black" points="282.72,-477.04 284.4,-475.96"/>
<polygon fill="none" stroke="black" points="399.55,-17.02 401.4,-24.8 393.62,-26.66 391.76,-18.88 399.55,-17.02"/>
<polyline fill="none" stroke="black" points="392.69,-22.77 390.75,-23.23"/>
</g>
<!-- AuthorRole&#45;&gt;AuthoredSource -->
<g id="edge4" class="edge">
<title>AuthorRole&#45;&gt;AuthoredSource</title>
<path fill="none" stroke="black" stroke-dasharray="1,5" d="M468.22,-1000C492.98,-1000 525.62,-1000 554.04,-1000"/>
<polygon fill="black" stroke="black" points="554,-1003.5 564,-1000 554,-996.5 554,-1003.5"/>
</g>
<!-- TaxonNameAuthorRole&#45;&gt;AuthoredTaxonName -->
<g id="edge5" class="edge">
<title>TaxonNameAuthorRole&#45;&gt;AuthoredTaxonName</title>
<path fill="none" stroke="black" stroke-dasharray="1,5" d="M502.22,-946C514.47,-946 527.22,-946 539.58,-946"/>
<polygon fill="black" stroke="black" points="539.29,-949.5 549.29,-946 539.28,-942.5 539.29,-949.5"/>
</g>
<!-- CollectorRole&#45;&gt;CollectingEvent -->
<g id="edge6" class="edge">
<title>CollectorRole&#45;&gt;CollectingEvent</title>
<path fill="none" stroke="black" stroke-dasharray="1,5" d="M474.29,-891C498.33,-891 528.29,-891 554.57,-891"/>
<polygon fill="black" stroke="black" points="554.45,-894.5 564.45,-891 554.45,-887.5 554.45,-894.5"/>
</g>
<!-- DeterminerRole&#45;&gt;TaxonDetermination -->
<g id="edge30" class="edge">
<title>DeterminerRole&#45;&gt;TaxonDetermination</title>
<path fill="none" stroke="black" stroke-dasharray="1,5" d="M480.63,-836C499.53,-836 521.34,-836 541.91,-836"/>
<polygon fill="black" stroke="black" points="541.67,-839.5 551.67,-836 541.67,-832.5 541.67,-839.5"/>
</g>
<!-- EditorRole&#45;&gt;EditedSource -->
<g id="edge12" class="edge">
<title>EditorRole&#45;&gt;EditedSource</title>
<path fill="none" stroke="black" stroke-dasharray="1,5" d="M465.96,-782C493.25,-782 530.95,-782 561.9,-782"/>
<polygon fill="black" stroke="black" points="561.88,-785.5 571.88,-782 561.88,-778.5 561.88,-785.5"/>
</g>
<!-- GeoreferencerRole&#45;&gt;Georeference -->
<g id="edge15" class="edge">
<title>GeoreferencerRole&#45;&gt;Georeference</title>
<path fill="none" stroke="black" stroke-dasharray="1,5" d="M487.97,-728C511.66,-728 538.84,-728 562.15,-728"/>
<polygon fill="black" stroke="black" points="562.09,-731.5 572.09,-728 562.09,-724.5 562.09,-731.5"/>
</g>
<!-- SourceRole&#45;&gt;HumanSource -->
<g id="edge16" class="edge">
<title>SourceRole&#45;&gt;HumanSource</title>
<path fill="none" stroke="black" stroke-dasharray="1,5" d="M468.22,-674C494.61,-674 529.95,-674 559.59,-674"/>
<polygon fill="black" stroke="black" points="559.54,-677.5 569.54,-674 559.54,-670.5 559.54,-677.5"/>
</g>
<!-- OriginRelationship&#45;&gt;RelatedOriginRelationship -->
<!-- Role&#45;&gt;Source -->
<g id="edge28" class="edge">
<title>Role&#45;&gt;Source</title>
<path fill="none" stroke="black" stroke-dasharray="1,5" d="M455.4,-326.14C487.72,-326.31 542.96,-326.6 579.78,-326.8"/>
<polygon fill="black" stroke="black" points="579.51,-330.3 589.53,-326.85 579.55,-323.3 579.51,-330.3"/>
</g>
<!-- Role&#45;&gt;Verifier -->
<!-- VerifierRole&#45;&gt;Verifier -->
<g id="edge35" class="edge">
<title>VerifierRole&#45;&gt;Verifier</title>
<path fill="none" stroke="black" stroke-dasharray="1,5" d="M470.06,-272C502.04,-272 546.28,-272 577.89,-272"/>
<polygon fill="black" stroke="black" points="577.82,-275.5 587.82,-272 577.82,-268.5 577.82,-275.5"/>
</g>
<!-- Version&#45;&gt;PinboardItem -->
<!-- Creator&#45;&gt;Updater -->
<!-- AlternateValue -->
<g id="node1" class="node">
<title>AlternateValue</title>
<g id="a_node1"><a xlink:href="/develop/Data/models.html#alternate-value" xlink:title="AlternateValue" target="_top">
<ellipse fill="#abcdef" stroke="#dddeee" cx="66.19" cy="-630" rx="66.19" ry="18"/>
<text text-anchor="middle" x="66.19" y="-624.95" font-family="Times,serif" font-size="14.00">AlternateValue</text>
</a>
</g>
</g>
<!-- DataAttribute -->
<g id="node2" class="node">
<title>DataAttribute</title>
<g id="a_node2"><a xlink:href="/develop/Data/models.html#data-attribute" xlink:title="DataAttribute" target="_top">
<ellipse fill="#abcdef" stroke="#dddeee" cx="66.19" cy="-576" rx="61.59" ry="18"/>
<text text-anchor="middle" x="66.19" y="-570.95" font-family="Times,serif" font-size="14.00">DataAttribute</text>
</a>
</g>
</g>
<!-- Depiction -->
<g id="node3" class="node">
<title>Depiction</title>
<g id="a_node3"><a xlink:href="/develop/Data/models.html#depiction" xlink:title="Depiction" target="_top">
<ellipse fill="#abcdef" stroke="#dddeee" cx="66.19" cy="-414" rx="47.26" ry="18"/>
<text text-anchor="middle" x="66.19" y="-408.95" font-family="Times,serif" font-size="14.00">Depiction</text>
</a>
</g>
</g>
<!-- Identifier -->
<g id="node4" class="node">
<title>Identifier</title>
<g id="a_node4"><a xlink:href="/develop/Data/models.html#identifier" xlink:title="Identifier" target="_top">
<ellipse fill="#abcdef" stroke="#dddeee" cx="66.19" cy="-522" rx="45.21" ry="18"/>
<text text-anchor="middle" x="66.19" y="-516.95" font-family="Times,serif" font-size="14.00">Identifier</text>
</a>
</g>
</g>
<!-- Tag -->
<g id="node5" class="node">
<title>Tag</title>
<g id="a_node5"><a xlink:href="/develop/Data/models.html#tag" xlink:title="Tag" target="_top">
<ellipse fill="#abcdef" stroke="#dddeee" cx="66.19" cy="-360" rx="27" ry="18"/>
<text text-anchor="middle" x="66.19" y="-354.95" font-family="Times,serif" font-size="14.00">Tag</text>
</a>
</g>
</g>
<!-- Note -->
<g id="node6" class="node">
<title>Note</title>
<g id="a_node6"><a xlink:href="/develop/Data/models.html#note" xlink:title="Note" target="_top">
<ellipse fill="#abcdef" stroke="#dddeee" cx="66.19" cy="-468" rx="28.83" ry="18"/>
<text text-anchor="middle" x="66.19" y="-462.95" font-family="Times,serif" font-size="14.00">Note</text>
</a>
</g>
</g>
<!-- CollectingEvent -->
<g id="node7" class="node">
<title>CollectingEvent</title>
<g id="a_node7"><a xlink:href="/develop/Data/models.html#collecting-event" xlink:title="CollectingEvent" target="_top">
<path fill="#fedcba" stroke="#dddeee" d="M578.39,-873C578.39,-873 658.14,-873 658.14,-873 664.14,-873 670.14,-879 670.14,-885 670.14,-885 670.14,-897 670.14,-897 670.14,-903 664.14,-909 658.14,-909 658.14,-909 578.39,-909 578.39,-909 572.39,-909 566.39,-903 566.39,-897 566.39,-897 566.39,-885 566.39,-885 566.39,-879 572.39,-873 578.39,-873"/>
<text text-anchor="middle" x="618.26" y="-886.2" font-family="Times,serif" font-size="14.00">CollectingEvent</text>
</a>
</g>
</g>
<!-- CollectionObject -->
<g id="node8" class="node">
<title>CollectionObject</title>
<g id="a_node8"><a xlink:href="/develop/Data/models.html#collection-object" xlink:title="CollectionObject" target="_top">
<path fill="#fedcba" stroke="#dddeee" d="M746.64,-873C746.64,-873 830.89,-873 830.89,-873 836.89,-873 842.89,-879 842.89,-885 842.89,-885 842.89,-897 842.89,-897 842.89,-903 836.89,-909 830.89,-909 830.89,-909 746.64,-909 746.64,-909 740.64,-909 734.64,-903 734.64,-897 734.64,-897 734.64,-885 734.64,-885 734.64,-879 740.64,-873 746.64,-873"/>
<text text-anchor="middle" x="788.76" y="-886.2" font-family="Times,serif" font-size="14.00">CollectionObject</text>
</a>
</g>
</g>
<!-- Source -->
<g id="node9" class="node">
<title>Source</title>
<g id="a_node9"><a xlink:href="/develop/Data/models.html#source" xlink:title="Source" target="_top">
<path fill="#fedcba" stroke="#dddeee" d="M603.26,-309C603.26,-309 633.26,-309 633.26,-309 639.26,-309 645.26,-315 645.26,-321 645.26,-321 645.26,-333 645.26,-333 645.26,-339 639.26,-345 633.26,-345 633.26,-345 603.26,-345 603.26,-345 597.26,-345 591.26,-339 591.26,-333 591.26,-333 591.26,-321 591.26,-321 591.26,-315 597.26,-309 603.26,-309"/>
<text text-anchor="middle" x="618.26" y="-322.2" font-family="Times,serif" font-size="14.00">Source</text>
</a>
</g>
</g>
<!-- Person -->
<g id="node10" class="node">
<title>Person</title>
<g id="a_node10"><a xlink:href="/develop/Data/models.html#person" xlink:title="Person" target="_top">
<polygon fill="#cdefab" stroke="#dedede" points="282.48,-489.54 282.48,-504.46 259.65,-515 227.37,-515 204.55,-504.46 204.55,-489.54 227.37,-479 259.65,-479 282.48,-489.54"/>
<polygon fill="none" stroke="#dedede" points="286.48,-486.99 286.48,-507.01 260.53,-519 226.49,-519 200.55,-507.01 200.55,-486.99 226.49,-475 260.53,-475 286.48,-486.99"/>
<text text-anchor="middle" x="243.51" y="-491.95" font-family="Times,serif" font-size="14.00">Person</text>
</a>
</g>
</g>
<!-- AlternateValueLanguage -->
<g id="node11" class="node">
<title>AlternateValueLanguage</title>
<g id="a_node11"><a xlink:href="/develop/Data/models.html#alternate-value-language" xlink:title="AlternateValueLanguage" target="_top">
<polygon fill="#eeefff" stroke="#dddeee" points="318.64,-648 168.39,-648 168.39,-612 318.64,-612 318.64,-648"/>
<text text-anchor="middle" x="243.51" y="-624.95" font-family="Times,serif" font-size="14.00">AlternateValueLanguage</text>
</a>
</g>
</g>
<!-- AuthorRole -->
<g id="node12" class="node">
<title>AuthorRole</title>
<g id="a_node12"><a xlink:href="/develop/Data/models.html#author-role" xlink:title="AuthorRole" target="_top">
<polygon fill="#eeefff" stroke="#dddeee" points="468.14,-1018 388.39,-1018 388.39,-982 468.14,-982 468.14,-1018"/>
<text text-anchor="middle" x="428.26" y="-994.95" font-family="Times,serif" font-size="14.00">AuthorRole</text>
</a>
</g>
</g>
<!-- AuthoredSource -->
<g id="node13" class="node">
<title>AuthoredSource</title>
<g id="a_node13"><a xlink:href="/develop/Data/models.html#authored-source" xlink:title="AuthoredSource" target="_top">
<polygon fill="#eeefff" stroke="#dddeee" points="670.51,-1018 566.01,-1018 566.01,-982 670.51,-982 670.51,-1018"/>
<text text-anchor="middle" x="618.26" y="-994.95" font-family="Times,serif" font-size="14.00">AuthoredSource</text>
</a>
</g>
</g>
<!-- TaxonNameAuthorRole -->
<g id="node14" class="node">
<title>TaxonNameAuthorRole</title>
<g id="a_node14"><a xlink:href="/develop/Data/models.html#taxon-name-author-role" xlink:title="TaxonNameAuthorRole" target="_top">
<polygon fill="#eeefff" stroke="#dddeee" points="501.89,-964 354.64,-964 354.64,-928 501.89,-928 501.89,-964"/>
<text text-anchor="middle" x="428.26" y="-940.95" font-family="Times,serif" font-size="14.00">TaxonNameAuthorRole</text>
</a>
</g>
</g>
<!-- AuthoredTaxonName -->
<g id="node15" class="node">
<title>AuthoredTaxonName</title>
<g id="a_node15"><a xlink:href="/develop/Data/models.html#authored-taxon-name" xlink:title="AuthoredTaxonName" target="_top">
<polygon fill="#eeefff" stroke="#dddeee" points="685.51,-964 551.01,-964 551.01,-928 685.51,-928 685.51,-964"/>
<text text-anchor="middle" x="618.26" y="-940.95" font-family="Times,serif" font-size="14.00">AuthoredTaxonName</text>
</a>
</g>
</g>
<!-- CollectorRole -->
<g id="node16" class="node">
<title>CollectorRole</title>
<g id="a_node16"><a xlink:href="/develop/Data/models.html#collector-role" xlink:title="CollectorRole" target="_top">
<polygon fill="#eeefff" stroke="#dddeee" points="474.14,-909 382.39,-909 382.39,-873 474.14,-873 474.14,-909"/>
<text text-anchor="middle" x="428.26" y="-885.95" font-family="Times,serif" font-size="14.00">CollectorRole</text>
</a>
</g>
</g>
<!-- DeterminerRole -->
<g id="node17" class="node">
<title>DeterminerRole</title>
<g id="a_node17"><a xlink:href="/develop/Data/models.html#determiner-role" xlink:title="DeterminerRole" target="_top">
<polygon fill="#eeefff" stroke="#dddeee" points="480.14,-854 376.39,-854 376.39,-818 480.14,-818 480.14,-854"/>
<text text-anchor="middle" x="428.26" y="-830.95" font-family="Times,serif" font-size="14.00">DeterminerRole</text>
</a>
</g>
</g>
<!-- EditorRole -->
<g id="node18" class="node">
<title>EditorRole</title>
<g id="a_node18"><a xlink:href="/develop/Data/models.html#editor-role" xlink:title="EditorRole" target="_top">
<polygon fill="#eeefff" stroke="#dddeee" points="465.89,-800 390.64,-800 390.64,-764 465.89,-764 465.89,-800"/>
<text text-anchor="middle" x="428.26" y="-776.95" font-family="Times,serif" font-size="14.00">EditorRole</text>
</a>
</g>
</g>
<!-- EditedSource -->
<g id="node19" class="node">
<title>EditedSource</title>
<g id="a_node19"><a xlink:href="/develop/Data/models.html#edited-source" xlink:title="EditedSource" target="_top">
<polygon fill="#eeefff" stroke="#dddeee" points="662.64,-800 573.89,-800 573.89,-764 662.64,-764 662.64,-800"/>
<text text-anchor="middle" x="618.26" y="-776.95" font-family="Times,serif" font-size="14.00">EditedSource</text>
</a>
</g>
</g>
<!-- GeoreferencerRole -->
<g id="node20" class="node">
<title>GeoreferencerRole</title>
<g id="a_node20"><a xlink:href="/develop/Data/models.html#georeferencer-role" xlink:title="GeoreferencerRole" target="_top">
<polygon fill="#eeefff" stroke="#dddeee" points="487.64,-746 368.89,-746 368.89,-710 487.64,-710 487.64,-746"/>
<text text-anchor="middle" x="428.26" y="-722.95" font-family="Times,serif" font-size="14.00">GeoreferencerRole</text>
</a>
</g>
</g>
<!-- Georeference -->
<g id="node21" class="node">
<title>Georeference</title>
<g id="a_node21"><a xlink:href="/develop/Data/models.html#georeference" xlink:title="Georeference" target="_top">
<polygon fill="#eeefff" stroke="#dddeee" points="662.64,-746 573.89,-746 573.89,-710 662.64,-710 662.64,-746"/>
<text text-anchor="middle" x="618.26" y="-722.95" font-family="Times,serif" font-size="14.00">Georeference</text>
</a>
</g>
</g>
<!-- SourceRole -->
<g id="node22" class="node">
<title>SourceRole</title>
<g id="a_node22"><a xlink:href="/develop/Data/models.html#source-role" xlink:title="SourceRole" target="_top">
<polygon fill="#eeefff" stroke="#dddeee" points="467.76,-692 388.76,-692 388.76,-656 467.76,-656 467.76,-692"/>
<text text-anchor="middle" x="428.26" y="-668.95" font-family="Times,serif" font-size="14.00">SourceRole</text>
</a>
</g>
</g>
<!-- HumanSource -->
<g id="node23" class="node">
<title>HumanSource</title>
<g id="a_node23"><a xlink:href="/develop/Data/models.html#human-source" xlink:title="HumanSource" target="_top">
<polygon fill="#eeefff" stroke="#dddeee" points="665.26,-692 571.26,-692 571.26,-656 665.26,-656 665.26,-692"/>
<text text-anchor="middle" x="618.26" y="-668.95" font-family="Times,serif" font-size="14.00">HumanSource</text>
</a>
</g>
</g>
<!-- Image -->
<g id="node24" class="node">
<title>Image</title>
<g id="a_node24"><a xlink:href="/develop/Data/models.html#image" xlink:title="Image" target="_top">
<polygon fill="#eeefff" stroke="#dddeee" points="270.51,-432 216.51,-432 216.51,-396 270.51,-396 270.51,-432"/>
<text text-anchor="middle" x="243.51" y="-408.95" font-family="Times,serif" font-size="14.00">Image</text>
</a>
</g>
</g>
<!-- ImportAttribute -->
<g id="node25" class="node">
<title>ImportAttribute</title>
<g id="a_node25"><a xlink:href="/develop/Data/models.html#import-attribute" xlink:title="ImportAttribute" target="_top">
<polygon fill="#eeefff" stroke="#dddeee" points="479.39,-638 377.14,-638 377.14,-602 479.39,-602 479.39,-638"/>
<text text-anchor="middle" x="428.26" y="-614.95" font-family="Times,serif" font-size="14.00">ImportAttribute</text>
</a>
</g>
</g>
<!-- InternalAttribute -->
<g id="node26" class="node">
<title>InternalAttribute</title>
<g id="a_node26"><a xlink:href="/develop/Data/models.html#internal-attribute" xlink:title="InternalAttribute" target="_top">
<polygon fill="#eeefff" stroke="#dddeee" points="481.64,-584 374.89,-584 374.89,-548 481.64,-548 481.64,-584"/>
<text text-anchor="middle" x="428.26" y="-560.95" font-family="Times,serif" font-size="14.00">InternalAttribute</text>
</a>
</g>
</g>
<!-- Keyword -->
<g id="node27" class="node">
<title>Keyword</title>
<g id="a_node27"><a xlink:href="/develop/Data/models.html#keyword" xlink:title="Keyword" target="_top">
<polygon fill="#eeefff" stroke="#dddeee" points="276.64,-378 210.39,-378 210.39,-342 276.64,-342 276.64,-378"/>
<text text-anchor="middle" x="243.51" y="-354.95" font-family="Times,serif" font-size="14.00">Keyword</text>
</a>
</g>
</g>
<!-- OriginRelationship -->
<g id="node28" class="node">
<title>OriginRelationship</title>
<g id="a_node28"><a xlink:href="/develop/Data/models.html#origin-relationship" xlink:title="OriginRelationship" target="_top">
<polygon fill="#eeefff" stroke="#dddeee" points="488.01,-492 368.51,-492 368.51,-456 488.01,-456 488.01,-492"/>
<text text-anchor="middle" x="428.26" y="-468.95" font-family="Times,serif" font-size="14.00">OriginRelationship</text>
</a>
</g>
</g>
<!-- PinboardItem -->
<g id="node29" class="node">
<title>PinboardItem</title>
<g id="a_node29"><a xlink:href="/develop/Data/models.html#pinboard-item" xlink:title="PinboardItem" target="_top">
<polygon fill="#eeefff" stroke="#dddeee" points="663.39,-400 573.14,-400 573.14,-364 663.39,-364 663.39,-400"/>
<text text-anchor="middle" x="618.26" y="-376.95" font-family="Times,serif" font-size="14.00">PinboardItem</text>
</a>
</g>
</g>
<!-- RelatedOriginRelationship -->
<g id="node30" class="node">
<title>RelatedOriginRelationship</title>
<g id="a_node30"><a xlink:href="/develop/Data/models.html#related-origin-relationship" xlink:title="RelatedOriginRelationship" target="_top">
<polygon fill="#eeefff" stroke="#dddeee" points="698.64,-492 537.89,-492 537.89,-456 698.64,-456 698.64,-492"/>
<text text-anchor="middle" x="618.26" y="-468.95" font-family="Times,serif" font-size="14.00">RelatedOriginRelationship</text>
</a>
</g>
</g>
<!-- Role -->
<g id="node31" class="node">
<title>Role</title>
<g id="a_node31"><a xlink:href="/develop/Data/models.html#role" xlink:title="Role" target="_top">
<polygon fill="#eeefff" stroke="#dddeee" points="455.26,-344 401.26,-344 401.26,-308 455.26,-308 455.26,-344"/>
<text text-anchor="middle" x="428.26" y="-320.95" font-family="Times,serif" font-size="14.00">Role</text>
</a>
</g>
</g>
<!-- TaxonDetermination -->
<g id="node32" class="node">
<title>TaxonDetermination</title>
<g id="a_node32"><a xlink:href="/develop/Data/models.html#taxon-determination" xlink:title="TaxonDetermination" target="_top">
<polygon fill="#eeefff" stroke="#dddeee" points="682.89,-854 553.64,-854 553.64,-818 682.89,-818 682.89,-854"/>
<text text-anchor="middle" x="618.26" y="-830.95" font-family="Times,serif" font-size="14.00">TaxonDetermination</text>
</a>
</g>
</g>
<!-- Uri -->
<g id="node33" class="node">
<title>Uri</title>
<g id="a_node33"><a xlink:href="/develop/Data/models.html#uri" xlink:title="Uri" target="_top">
<polygon fill="#eeefff" stroke="#dddeee" points="455.26,-236 401.26,-236 401.26,-200 455.26,-200 455.26,-236"/>
<text text-anchor="middle" x="428.26" y="-212.95" font-family="Times,serif" font-size="14.00">Uri</text>
</a>
</g>
</g>
<!-- Uuid -->
<g id="node34" class="node">
<title>Uuid</title>
<g id="a_node34"><a xlink:href="/develop/Data/models.html#uuid" xlink:title="Uuid" target="_top">
<polygon fill="#eeefff" stroke="#dddeee" points="455.26,-182 401.26,-182 401.26,-146 455.26,-146 455.26,-182"/>
<text text-anchor="middle" x="428.26" y="-158.95" font-family="Times,serif" font-size="14.00">Uuid</text>
</a>
</g>
</g>
<!-- VerifierRole -->
<g id="node35" class="node">
<title>VerifierRole</title>
<g id="a_node35"><a xlink:href="/develop/Data/models.html#verifier-role" xlink:title="VerifierRole" target="_top">
<polygon fill="#eeefff" stroke="#dddeee" points="469.64,-290 386.89,-290 386.89,-254 469.64,-254 469.64,-290"/>
<text text-anchor="middle" x="428.26" y="-266.95" font-family="Times,serif" font-size="14.00">VerifierRole</text>
</a>
</g>
</g>
<!-- Verifier -->
<g id="node36" class="node">
<title>Verifier</title>
<g id="a_node36"><a xlink:href="/develop/Data/models.html#verifier" xlink:title="Verifier" target="_top">
<polygon fill="#eeefff" stroke="#dddeee" points="646.89,-290 589.64,-290 589.64,-254 646.89,-254 646.89,-290"/>
<text text-anchor="middle" x="618.26" y="-266.95" font-family="Times,serif" font-size="14.00">Verifier</text>
</a>
</g>
</g>
<!-- Version -->
<g id="node37" class="node">
<title>Version</title>
<g id="a_node37"><a xlink:href="/develop/Data/models.html#version" xlink:title="Version" target="_top">
<polygon fill="#eeefff" stroke="#dddeee" points="456.89,-400 399.64,-400 399.64,-364 456.89,-364 456.89,-400"/>
<text text-anchor="middle" x="428.26" y="-376.95" font-family="Times,serif" font-size="14.00">Version</text>
</a>
</g>
</g>
<!-- Creator -->
<g id="node38" class="node">
<title>Creator</title>
<g id="a_node38"><a xlink:href="/develop/Data/models.html#creator" xlink:title="Creator" target="_top">
<polygon fill="#eeefff" stroke="#dddeee" points="456.51,-90 400.01,-90 400.01,-54 456.51,-54 456.51,-90"/>
<text text-anchor="middle" x="428.26" y="-66.95" font-family="Times,serif" font-size="14.00">Creator</text>
</a>
</g>
</g>
<!-- Updater -->
<g id="node39" class="node">
<title>Updater</title>
<g id="a_node39"><a xlink:href="/develop/Data/models.html#updater" xlink:title="Updater" target="_top">
<polygon fill="#eeefff" stroke="#dddeee" points="648.01,-90 588.51,-90 588.51,-54 648.01,-54 648.01,-90"/>
<text text-anchor="middle" x="618.26" y="-66.95" font-family="Times,serif" font-size="14.00">Updater</text>
</a>
</g>
</g>
<!-- User -->
<g id="node40" class="node">
<title>User</title>
<g id="a_node40"><a xlink:href="/develop/Data/models.html#user" xlink:title="User" target="_top">
<polygon fill="#eeefff" stroke="#dddeee" points="455.26,-36 401.26,-36 401.26,0 455.26,0 455.26,-36"/>
<text text-anchor="middle" x="428.26" y="-12.95" font-family="Times,serif" font-size="14.00">User</text>
</a>
</g>
</g>
</g>
</svg>
