<?xml version="1.0" encoding="UTF-8" standalone="no"?>
<!DOCTYPE svg PUBLIC "-//W3C//DTD SVG 1.1//EN"
 "http://www.w3.org/Graphics/SVG/1.1/DTD/svg11.dtd">
<!-- Generated by graphviz version 12.2.1 (20241206.2353)
 -->
<!-- Title: ProjectMember Pages: 1 -->
<svg width="481pt" height="336pt"
 viewBox="0.00 0.00 480.94 336.00" xmlns="http://www.w3.org/2000/svg" xmlns:xlink="http://www.w3.org/1999/xlink">
<g id="graph0" class="graph" transform="scale(1 1) rotate(0) translate(4 332)">
<title>ProjectMember</title>
<polygon fill="white" stroke="none" points="-4,4 -4,-332 476.94,-332 476.94,4 -4,4"/>
<!-- ProjectMember&#45;&gt;PinboardItem -->
<g id="edge1" class="edge">
<title>ProjectMember&#45;&gt;PinboardItem</title>
<path fill="none" stroke="black" d="M96.81,-178.46C117.68,-205.35 155.24,-250.78 193.94,-283 194.73,-283.65 195.53,-284.3 196.35,-284.95"/>
<polygon fill="black" stroke="black" points="194.13,-287.66 204.28,-290.69 198.23,-281.99 194.13,-287.66"/>
</g>
<!-- ProjectMember&#45;&gt;Role -->
<g id="edge2" class="edge">
<title>ProjectMember&#45;&gt;Role</title>
<path fill="none" stroke="black" d="M113.27,-177.58C135.94,-192.21 166.66,-211.92 193.94,-229 196.65,-230.7 199.47,-232.45 202.3,-234.2"/>
<polygon fill="black" stroke="black" points="200.24,-237.04 210.59,-239.3 203.91,-231.08 200.24,-237.04"/>
</g>
<!-- ProjectMember&#45;&gt;VerifierRole -->
<g id="edge3" class="edge">
<title>ProjectMember&#45;&gt;VerifierRole</title>
<path fill="none" stroke="black" d="M136.16,-172.35C152.6,-177.13 170.48,-182.34 186.61,-187.03"/>
<polygon fill="black" stroke="black" points="185.43,-190.33 196.01,-189.76 187.39,-183.61 185.43,-190.33"/>
</g>
<!-- ProjectMember&#45;&gt;Creator -->
<g id="edge5" class="edge">
<title>ProjectMember&#45;&gt;Creator</title>
<path fill="none" stroke="black" stroke-dasharray="5,2" d="M169.05,-153.68C205.21,-151.2 247.11,-146.35 284.19,-137 296.41,-133.92 309.31,-128.82 320.27,-123.88"/>
<polygon fill="black" stroke="black" points="169.29,-150.16 159.53,-154.28 169.73,-157.14 169.29,-150.16"/>
</g>
<!-- ProjectMember&#45;&gt;Project -->
<g id="edge6" class="edge">
<title>ProjectMember&#45;&gt;Project</title>
<path fill="none" stroke="black" stroke-dasharray="5,2" d="M147.19,-136.44C169.96,-129.82 194.06,-122.8 211.72,-117.67"/>
<polygon fill="black" stroke="black" points="146.23,-133.08 137.61,-139.23 148.19,-139.8 146.23,-133.08"/>
</g>
<!-- ProjectMember&#45;&gt;Updater -->
<g id="edge7" class="edge">
<title>ProjectMember&#45;&gt;Updater</title>
<path fill="none" stroke="black" stroke-dasharray="5,2" d="M114.42,-126.52C135.79,-110.21 164.67,-91.57 193.94,-83 272.21,-60.08 297.47,-66.99 377.44,-83 389.51,-85.41 402.13,-90.13 412.99,-94.95"/>
<polygon fill="black" stroke="black" points="112.34,-123.69 106.64,-132.62 116.67,-129.2 112.34,-123.69"/>
</g>
<!-- ProjectMember&#45;&gt;User -->
<g id="edge8" class="edge">
<title>ProjectMember&#45;&gt;User</title>
<path fill="none" stroke="black" stroke-dasharray="5,2" d="M110.5,-125.69C132.94,-103.9 164.52,-74.2 193.94,-50 199.64,-45.31 205.97,-40.51 212,-36.1"/>
<polygon fill="black" stroke="black" points="108.16,-123.08 103.45,-132.58 113.05,-128.09 108.16,-123.08"/>
</g>
<!-- Role&#45;&gt;Verifier -->
<!-- VerifierRole&#45;&gt;Verifier -->
<g id="edge4" class="edge">
<title>VerifierRole&#45;&gt;Verifier</title>
<path fill="none" stroke="black" stroke-dasharray="1,5" d="M280.8,-212.21C289.94,-214.5 299.61,-216.92 308.68,-219.19"/>
<polygon fill="black" stroke="black" points="307.74,-222.56 318.29,-221.6 309.44,-215.77 307.74,-222.56"/>
</g>
<!-- Creator&#45;&gt;Updater -->
<!-- Project&#45;&gt;Creator -->
<!-- ProjectMember -->
<g id="node1" class="node">
<title>ProjectMember</title>
<g id="a_node1"><a xlink:href="/develop/Data/models.html#project-member" xlink:title="ProjectMember" target="_top">
<polygon fill="#cdefab" stroke="#dedede" points="153.94,-148.54 153.94,-163.46 110.03,-174 47.92,-174 4,-163.46 4,-148.54 47.92,-138 110.03,-138 153.94,-148.54"/>
<polygon fill="none" stroke="#dedede" points="157.94,-145.39 157.94,-166.61 110.5,-178 47.44,-178 0,-166.61 0,-145.39 47.44,-134 110.5,-134 157.94,-145.39"/>
<text text-anchor="middle" x="78.97" y="-150.95" font-family="Times,serif" font-size="14.00">ProjectMember</text>
</a>
</g>
</g>
<!-- PinboardItem -->
<g id="node2" class="node">
<title>PinboardItem</title>
<g id="a_node2"><a xlink:href="/develop/Data/models.html#pinboard-item" xlink:title="PinboardItem" target="_top">
<polygon fill="#eeefff" stroke="#dddeee" points="284.19,-328 193.94,-328 193.94,-292 284.19,-292 284.19,-328"/>
<text text-anchor="middle" x="239.07" y="-304.95" font-family="Times,serif" font-size="14.00">PinboardItem</text>
</a>
</g>
</g>
<!-- Role -->
<g id="node3" class="node">
<title>Role</title>
<g id="a_node3"><a xlink:href="/develop/Data/models.html#role" xlink:title="Role" target="_top">
<polygon fill="#eeefff" stroke="#dddeee" points="266.07,-274 212.07,-274 212.07,-238 266.07,-238 266.07,-274"/>
<text text-anchor="middle" x="239.07" y="-250.95" font-family="Times,serif" font-size="14.00">Role</text>
</a>
</g>
</g>
<!-- VerifierRole -->
<g id="node4" class="node">
<title>VerifierRole</title>
<g id="a_node4"><a xlink:href="/develop/Data/models.html#verifier-role" xlink:title="VerifierRole" target="_top">
<polygon fill="#eeefff" stroke="#dddeee" points="280.44,-220 197.69,-220 197.69,-184 280.44,-184 280.44,-220"/>
<text text-anchor="middle" x="239.07" y="-196.95" font-family="Times,serif" font-size="14.00">VerifierRole</text>
</a>
</g>
</g>
<!-- Verifier -->
<g id="node5" class="node">
<title>Verifier</title>
<g id="a_node5"><a xlink:href="/develop/Data/models.html#verifier" xlink:title="Verifier" target="_top">
<polygon fill="#eeefff" stroke="#dddeee" points="377.44,-247 320.19,-247 320.19,-211 377.44,-211 377.44,-247"/>
<text text-anchor="middle" x="348.82" y="-223.95" font-family="Times,serif" font-size="14.00">Verifier</text>
</a>
</g>
</g>
<!-- Creator -->
<g id="node6" class="node">
<title>Creator</title>
<g id="a_node6"><a xlink:href="/develop/Data/models.html#creator" xlink:title="Creator" target="_top">
<polygon fill="#eeefff" stroke="#dddeee" points="377.07,-128 320.57,-128 320.57,-92 377.07,-92 377.07,-128"/>
<text text-anchor="middle" x="348.82" y="-104.95" font-family="Times,serif" font-size="14.00">Creator</text>
</a>
</g>
</g>
<!-- Project -->
<g id="node7" class="node">
<title>Project</title>
<g id="a_node7"><a xlink:href="/develop/Data/models.html#project" xlink:title="Project" target="_top">
<polygon fill="#eeefff" stroke="#dddeee" points="266.19,-128 211.94,-128 211.94,-92 266.19,-92 266.19,-128"/>
<text text-anchor="middle" x="239.07" y="-104.95" font-family="Times,serif" font-size="14.00">Project</text>
</a>
</g>
</g>
<!-- Updater -->
<g id="node8" class="node">
<title>Updater</title>
<g id="a_node8"><a xlink:href="/develop/Data/models.html#updater" xlink:title="Updater" target="_top">
<polygon fill="#eeefff" stroke="#dddeee" points="472.94,-128 413.44,-128 413.44,-92 472.94,-92 472.94,-128"/>
<text text-anchor="middle" x="443.19" y="-104.95" font-family="Times,serif" font-size="14.00">Updater</text>
</a>
</g>
</g>
<!-- User -->
<g id="node9" class="node">
<title>User</title>
<g id="a_node9"><a xlink:href="/develop/Data/models.html#user" xlink:title="User" target="_top">
<polygon fill="#eeefff" stroke="#dddeee" points="266.07,-36 212.07,-36 212.07,0 266.07,0 266.07,-36"/>
<text text-anchor="middle" x="239.07" y="-12.95" font-family="Times,serif" font-size="14.00">User</text>
</a>
</g>
</g>
</g>
</svg>
