<?xml version="1.0" encoding="UTF-8" standalone="no"?>
<!DOCTYPE svg PUBLIC "-//W3C//DTD SVG 1.1//EN"
 "http://www.w3.org/Graphics/SVG/1.1/DTD/svg11.dtd">
<!-- Generated by graphviz version 12.2.1 (20241206.2353)
 -->
<!-- Title: ProjectSource Pages: 1 -->
<svg width="467pt" height="328pt"
 viewBox="0.00 0.00 466.54 327.66" xmlns="http://www.w3.org/2000/svg" xmlns:xlink="http://www.w3.org/1999/xlink">
<g id="graph0" class="graph" transform="scale(1 1) rotate(0) translate(4 323.66)">
<title>ProjectSource</title>
<polygon fill="white" stroke="none" points="-4,4 -4,-323.66 462.54,-323.66 462.54,4 -4,4"/>
<!-- ProjectSource&#45;&gt;Source -->
<g id="edge7" class="edge">
<title>ProjectSource&#45;&gt;Source</title>
<path fill="none" stroke="black" stroke-dasharray="5,2" d="M93.28,-169.9C113.07,-198.96 145.04,-242.06 179.54,-273.16 184.93,-278.02 191.26,-282.57 197.42,-286.54"/>
<polygon fill="black" stroke="black" points="96.38,-168.22 87.9,-161.87 90.56,-172.12 96.38,-168.22"/>
</g>
<!-- ProjectSource&#45;&gt;PinboardItem -->
<g id="edge1" class="edge">
<title>ProjectSource&#45;&gt;PinboardItem</title>
<path fill="none" stroke="black" d="M100.31,-160.26C121.55,-177 151.87,-200.27 179.54,-219.16 180.71,-219.96 181.9,-220.76 183.11,-221.56"/>
<polygon fill="black" stroke="black" points="180.98,-224.36 191.28,-226.84 184.78,-218.48 180.98,-224.36"/>
</g>
<!-- ProjectSource&#45;&gt;Role -->
<g id="edge2" class="edge">
<title>ProjectSource&#45;&gt;Role</title>
<path fill="none" stroke="black" d="M120.51,-155.24C141.83,-162.87 166.58,-171.73 186.49,-178.85"/>
<polygon fill="black" stroke="black" points="185.27,-182.14 195.87,-182.21 187.63,-175.55 185.27,-182.14"/>
</g>
<!-- ProjectSource&#45;&gt;VerifierRole -->
<g id="edge3" class="edge">
<title>ProjectSource&#45;&gt;VerifierRole</title>
<path fill="none" stroke="black" d="M143.8,-138.16C153.15,-138.16 162.6,-138.16 171.56,-138.16"/>
<polygon fill="black" stroke="black" points="171.49,-141.66 181.49,-138.16 171.49,-134.66 171.49,-141.66"/>
</g>
<!-- ProjectSource&#45;&gt;Creator -->
<g id="edge5" class="edge">
<title>ProjectSource&#45;&gt;Creator</title>
<path fill="none" stroke="black" stroke-dasharray="5,2" d="M135.68,-118.86C174.59,-106.57 225.42,-89.86 269.79,-73.16 281.69,-68.68 294.65,-63.28 305.74,-58.49"/>
<polygon fill="black" stroke="black" points="134.97,-115.42 126.48,-121.76 137.07,-122.1 134.97,-115.42"/>
</g>
<!-- ProjectSource&#45;&gt;Project -->
<g id="edge6" class="edge">
<title>ProjectSource&#45;&gt;Project</title>
<path fill="none" stroke="black" stroke-dasharray="5,2" d="M116.34,-111.59C142.57,-95.6 175.09,-75.78 197.42,-62.16"/>
<polygon fill="black" stroke="black" points="114.64,-108.53 107.93,-116.72 118.29,-114.51 114.64,-108.53"/>
</g>
<!-- ProjectSource&#45;&gt;Updater -->
<g id="edge8" class="edge">
<title>ProjectSource&#45;&gt;Updater</title>
<path fill="none" stroke="black" stroke-dasharray="5,2" d="M90.63,-106.25C108.78,-77.41 139.86,-36.87 179.54,-19.16 254.02,14.08 283.07,-3.15 363.04,-19.16 375.1,-21.57 387.72,-26.28 398.59,-31.11"/>
<polygon fill="black" stroke="black" points="87.75,-104.25 85.54,-114.61 93.73,-107.89 87.75,-104.25"/>
</g>
<!-- Role&#45;&gt;Verifier -->
<!-- VerifierRole&#45;&gt;Verifier -->
<g id="edge4" class="edge">
<title>VerifierRole&#45;&gt;Verifier</title>
<path fill="none" stroke="black" stroke-dasharray="1,5" d="M266.4,-148.37C275.54,-150.65 285.21,-153.08 294.28,-155.35"/>
<polygon fill="black" stroke="black" points="293.33,-158.72 303.88,-157.76 295.04,-151.93 293.33,-158.72"/>
</g>
<!-- Creator&#45;&gt;Updater -->
<!-- Project&#45;&gt;Creator -->
<!-- Source -->
<g id="node1" class="node">
<title>Source</title>
<g id="a_node1"><a xlink:href="/develop/Data/models.html#source" xlink:title="Source" target="_top">
<path fill="#fedcba" stroke="#dddeee" d="M209.66,-283.16C209.66,-283.16 239.66,-283.16 239.66,-283.16 245.66,-283.16 251.66,-289.16 251.66,-295.16 251.66,-295.16 251.66,-307.16 251.66,-307.16 251.66,-313.16 245.66,-319.16 239.66,-319.16 239.66,-319.16 209.66,-319.16 209.66,-319.16 203.66,-319.16 197.66,-313.16 197.66,-307.16 197.66,-307.16 197.66,-295.16 197.66,-295.16 197.66,-289.16 203.66,-283.16 209.66,-283.16"/>
<text text-anchor="middle" x="224.66" y="-296.36" font-family="Times,serif" font-size="14.00">Source</text>
</a>
</g>
</g>
<!-- ProjectSource -->
<g id="node2" class="node">
<title>ProjectSource</title>
<g id="a_node2"><a xlink:href="/develop/Data/models.html#project-source" xlink:title="ProjectSource" target="_top">
<polygon fill="#cdefab" stroke="#dedede" points="139.54,-130.7 139.54,-145.61 99.84,-156.16 43.7,-156.16 4,-145.61 4,-130.7 43.7,-120.16 99.84,-120.16 139.54,-130.7"/>
<polygon fill="none" stroke="#dedede" points="143.54,-127.63 143.54,-148.69 100.36,-160.16 43.18,-160.16 0,-148.69 0,-127.63 43.18,-116.16 100.36,-116.16 143.54,-127.63"/>
<text text-anchor="middle" x="71.77" y="-133.11" font-family="Times,serif" font-size="14.00">ProjectSource</text>
</a>
</g>
</g>
<!-- PinboardItem -->
<g id="node3" class="node">
<title>PinboardItem</title>
<g id="a_node3"><a xlink:href="/develop/Data/models.html#pinboard-item" xlink:title="PinboardItem" target="_top">
<polygon fill="#eeefff" stroke="#dddeee" points="269.79,-264.16 179.54,-264.16 179.54,-228.16 269.79,-228.16 269.79,-264.16"/>
<text text-anchor="middle" x="224.66" y="-241.11" font-family="Times,serif" font-size="14.00">PinboardItem</text>
</a>
</g>
</g>
<!-- Role -->
<g id="node4" class="node">
<title>Role</title>
<g id="a_node4"><a xlink:href="/develop/Data/models.html#role" xlink:title="Role" target="_top">
<polygon fill="#eeefff" stroke="#dddeee" points="251.66,-210.16 197.66,-210.16 197.66,-174.16 251.66,-174.16 251.66,-210.16"/>
<text text-anchor="middle" x="224.66" y="-187.11" font-family="Times,serif" font-size="14.00">Role</text>
</a>
</g>
</g>
<!-- VerifierRole -->
<g id="node5" class="node">
<title>VerifierRole</title>
<g id="a_node5"><a xlink:href="/develop/Data/models.html#verifier-role" xlink:title="VerifierRole" target="_top">
<polygon fill="#eeefff" stroke="#dddeee" points="266.04,-156.16 183.29,-156.16 183.29,-120.16 266.04,-120.16 266.04,-156.16"/>
<text text-anchor="middle" x="224.66" y="-133.11" font-family="Times,serif" font-size="14.00">VerifierRole</text>
</a>
</g>
</g>
<!-- Verifier -->
<g id="node6" class="node">
<title>Verifier</title>
<g id="a_node6"><a xlink:href="/develop/Data/models.html#verifier" xlink:title="Verifier" target="_top">
<polygon fill="#eeefff" stroke="#dddeee" points="363.04,-183.16 305.79,-183.16 305.79,-147.16 363.04,-147.16 363.04,-183.16"/>
<text text-anchor="middle" x="334.41" y="-160.11" font-family="Times,serif" font-size="14.00">Verifier</text>
</a>
</g>
</g>
<!-- Creator -->
<g id="node7" class="node">
<title>Creator</title>
<g id="a_node7"><a xlink:href="/develop/Data/models.html#creator" xlink:title="Creator" target="_top">
<polygon fill="#eeefff" stroke="#dddeee" points="362.66,-64.16 306.16,-64.16 306.16,-28.16 362.66,-28.16 362.66,-64.16"/>
<text text-anchor="middle" x="334.41" y="-41.11" font-family="Times,serif" font-size="14.00">Creator</text>
</a>
</g>
</g>
<!-- Project -->
<g id="node8" class="node">
<title>Project</title>
<g id="a_node8"><a xlink:href="/develop/Data/models.html#project" xlink:title="Project" target="_top">
<polygon fill="#eeefff" stroke="#dddeee" points="251.79,-64.16 197.54,-64.16 197.54,-28.16 251.79,-28.16 251.79,-64.16"/>
<text text-anchor="middle" x="224.66" y="-41.11" font-family="Times,serif" font-size="14.00">Project</text>
</a>
</g>
</g>
<!-- Updater -->
<g id="node9" class="node">
<title>Updater</title>
<g id="a_node9"><a xlink:href="/develop/Data/models.html#updater" xlink:title="Updater" target="_top">
<polygon fill="#eeefff" stroke="#dddeee" points="458.54,-64.16 399.04,-64.16 399.04,-28.16 458.54,-28.16 458.54,-64.16"/>
<text text-anchor="middle" x="428.79" y="-41.11" font-family="Times,serif" font-size="14.00">Updater</text>
</a>
</g>
</g>
</g>
</svg>
