<?xml version="1.0" encoding="UTF-8" standalone="no"?>
<!DOCTYPE svg PUBLIC "-//W3C//DTD SVG 1.1//EN"
 "http://www.w3.org/Graphics/SVG/1.1/DTD/svg11.dtd">
<!-- Generated by graphviz version 2.50.0 (20211204.2007)
 -->
<!-- Title: ProtocolRelationship Pages: 1 -->
<svg width="738pt" height="390pt"
 viewBox="0.00 0.00 737.52 390.00" xmlns="http://www.w3.org/2000/svg" xmlns:xlink="http://www.w3.org/1999/xlink">
<g id="graph0" class="graph" transform="scale(1 1) rotate(0) translate(4 386)">
<title>ProtocolRelationship</title>
<polygon fill="white" stroke="transparent" points="-4,4 -4,-386 733.52,-386 733.52,4 -4,4"/>
<!-- ProtocolRelationship&#45;&gt;PinboardItem -->
<g id="edge1" class="edge">
<title>ProtocolRelationship&#45;&gt;PinboardItem</title>
<path fill="none" stroke="black" d="M109.61,-209.06C129.83,-242.65 173.14,-305.97 228.32,-337 258.71,-354.09 297.33,-360.86 328.43,-363.34"/>
<polygon fill="black" stroke="black" points="328.45,-366.85 338.66,-364.02 328.92,-359.86 328.45,-366.85"/>
</g>
<!-- ProtocolRelationship&#45;&gt;Role -->
<g id="edge2" class="edge">
<title>ProtocolRelationship&#45;&gt;Role</title>
<path fill="none" stroke="black" d="M120.21,-209.09C144.9,-231.42 186.25,-265.11 228.32,-283 266.73,-299.34 314.52,-305.79 346.82,-308.34"/>
<polygon fill="black" stroke="black" points="346.92,-311.86 357.14,-309.06 347.41,-304.87 346.92,-311.86"/>
</g>
<!-- ProtocolRelationship&#45;&gt;VerifierRole -->
<g id="edge3" class="edge">
<title>ProtocolRelationship&#45;&gt;VerifierRole</title>
<path fill="none" stroke="black" d="M156.66,-204.76C179.04,-211.18 204.75,-218.25 228.32,-224 262.99,-232.46 302.39,-240.57 332.8,-246.51"/>
<polygon fill="black" stroke="black" points="332.26,-249.97 342.74,-248.43 333.59,-243.09 332.26,-249.97"/>
</g>
<!-- ProtocolRelationship&#45;&gt;Creator -->
<g id="edge5" class="edge">
<title>ProtocolRelationship&#45;&gt;Creator</title>
<path fill="none" stroke="black" stroke-dasharray="5,2" d="M202.63,-190.5C211.32,-190.7 219.97,-190.87 228.32,-191 367.06,-193.12 404.56,-218.71 540.52,-191 552.73,-188.51 565.5,-183.59 576.35,-178.62"/>
<polygon fill="black" stroke="black" points="202.51,-186.99 192.42,-190.25 202.34,-193.99 202.51,-186.99"/>
</g>
<!-- ProtocolRelationship&#45;&gt;Project -->
<g id="edge6" class="edge">
<title>ProtocolRelationship&#45;&gt;Project</title>
<path fill="none" stroke="black" stroke-dasharray="5,2" d="M202.74,-178.52C258.25,-174.06 321.86,-168.95 356.85,-166.13"/>
<polygon fill="black" stroke="black" points="202.17,-175.05 192.48,-179.34 202.73,-182.03 202.17,-175.05"/>
</g>
<!-- ProtocolRelationship&#45;&gt;Protocol -->
<g id="edge7" class="edge">
<title>ProtocolRelationship&#45;&gt;Protocol</title>
<path fill="none" stroke="black" stroke-dasharray="5,2" d="M153.34,-162.86C176.26,-153.73 203.23,-143.9 228.32,-137 271.01,-125.26 321.78,-117.57 353.31,-113.5"/>
<polygon fill="black" stroke="black" points="151.74,-159.73 143.78,-166.72 154.36,-166.22 151.74,-159.73"/>
</g>
<!-- ProtocolRelationship&#45;&gt;Updater -->
<g id="edge9" class="edge">
<title>ProtocolRelationship&#45;&gt;Updater</title>
<path fill="none" stroke="black" stroke-dasharray="5,2" d="M123.3,-157.22C147.6,-131.99 186.28,-97.64 228.32,-83 359.35,-37.35 405.64,-50.44 540.52,-83 590.71,-95.12 642.86,-126.05 672.92,-146"/>
<polygon fill="black" stroke="black" points="120.54,-155.05 116.24,-164.73 125.64,-159.85 120.54,-155.05"/>
</g>
<!-- ProtocolRelationship&#45;&gt;Objects with Protocol relationships -->
<g id="edge8" class="edge">
<title>ProtocolRelationship&#45;&gt;Objects with Protocol relationships</title>
<path fill="none" stroke="black" stroke-dasharray="5,2" d="M117.85,-156.28C140.94,-124.51 181.31,-76.01 228.32,-50 244.31,-41.15 262.47,-34.74 280.57,-30.09"/>
<polygon fill="black" stroke="black" points="114.76,-154.58 111.8,-164.76 120.46,-158.65 114.76,-154.58"/>
</g>
<!-- Role&#45;&gt;Verifier -->
<!-- VerifierRole&#45;&gt;Verifier -->
<g id="edge4" class="edge">
<title>VerifierRole&#45;&gt;Verifier</title>
<path fill="none" stroke="black" stroke-dasharray="1,5" d="M426.02,-261.02C466.26,-265.98 527.38,-273.53 566.51,-278.37"/>
<polygon fill="black" stroke="black" points="566.08,-281.84 576.44,-279.59 566.94,-274.89 566.08,-281.84"/>
</g>
<!-- Creator&#45;&gt;Updater -->
<!-- Project&#45;&gt;Creator -->
<!-- ProtocolRelationship -->
<g id="node1" class="node">
<title>ProtocolRelationship</title>
<g id="a_node1"><a xlink:href="/develop/Data/models.html#protocol-relationship" xlink:title="ProtocolRelationship" target="_top">
<polygon fill="#cdefab" stroke="#dedede" points="188.47,-179.54 188.47,-194.46 134.39,-205 57.92,-205 3.85,-194.46 3.85,-179.54 57.92,-169 134.39,-169 188.47,-179.54"/>
<polygon fill="none" stroke="#dedede" points="192.47,-176.25 192.47,-197.75 134.78,-209 57.53,-209 -0.16,-197.75 -0.16,-176.25 57.53,-165 134.78,-165 192.47,-176.25"/>
<text text-anchor="middle" x="96.16" y="-183.3" font-family="Times,serif" font-size="14.00">ProtocolRelationship</text>
</a>
</g>
</g>
<!-- PinboardItem -->
<g id="node2" class="node">
<title>PinboardItem</title>
<g id="a_node2"><a xlink:href="/develop/Data/models.html#pinboard-item" xlink:title="PinboardItem" target="_top">
<polygon fill="#eeefff" stroke="#dddeee" points="429.92,-382 338.92,-382 338.92,-346 429.92,-346 429.92,-382"/>
<text text-anchor="middle" x="384.42" y="-360.3" font-family="Times,serif" font-size="14.00">PinboardItem</text>
</a>
</g>
</g>
<!-- Role -->
<g id="node3" class="node">
<title>Role</title>
<g id="a_node3"><a xlink:href="/develop/Data/models.html#role" xlink:title="Role" target="_top">
<polygon fill="#eeefff" stroke="#dddeee" points="411.42,-328 357.42,-328 357.42,-292 411.42,-292 411.42,-328"/>
<text text-anchor="middle" x="384.42" y="-306.3" font-family="Times,serif" font-size="14.00">Role</text>
</a>
</g>
</g>
<!-- VerifierRole -->
<g id="node4" class="node">
<title>VerifierRole</title>
<g id="a_node4"><a xlink:href="/develop/Data/models.html#verifier-role" xlink:title="VerifierRole" target="_top">
<polygon fill="#eeefff" stroke="#dddeee" points="425.92,-274 342.92,-274 342.92,-238 425.92,-238 425.92,-274"/>
<text text-anchor="middle" x="384.42" y="-252.3" font-family="Times,serif" font-size="14.00">VerifierRole</text>
</a>
</g>
</g>
<!-- Verifier -->
<g id="node5" class="node">
<title>Verifier</title>
<g id="a_node5"><a xlink:href="/develop/Data/models.html#verifier" xlink:title="Verifier" target="_top">
<polygon fill="#eeefff" stroke="#dddeee" points="633.52,-301 576.52,-301 576.52,-265 633.52,-265 633.52,-301"/>
<text text-anchor="middle" x="605.02" y="-279.3" font-family="Times,serif" font-size="14.00">Verifier</text>
</a>
</g>
</g>
<!-- Creator -->
<g id="node6" class="node">
<title>Creator</title>
<g id="a_node6"><a xlink:href="/develop/Data/models.html#creator" xlink:title="Creator" target="_top">
<polygon fill="#eeefff" stroke="#dddeee" points="633.52,-182 576.52,-182 576.52,-146 633.52,-146 633.52,-182"/>
<text text-anchor="middle" x="605.02" y="-160.3" font-family="Times,serif" font-size="14.00">Creator</text>
</a>
</g>
</g>
<!-- Project -->
<g id="node7" class="node">
<title>Project</title>
<g id="a_node7"><a xlink:href="/develop/Data/models.html#project" xlink:title="Project" target="_top">
<polygon fill="#eeefff" stroke="#dddeee" points="411.92,-182 356.92,-182 356.92,-146 411.92,-146 411.92,-182"/>
<text text-anchor="middle" x="384.42" y="-160.3" font-family="Times,serif" font-size="14.00">Project</text>
</a>
</g>
</g>
<!-- Protocol -->
<g id="node8" class="node">
<title>Protocol</title>
<g id="a_node8"><a xlink:href="/develop/Data/models.html#protocol" xlink:title="Protocol" target="_top">
<polygon fill="#eeefff" stroke="#dddeee" points="415.42,-128 353.42,-128 353.42,-92 415.42,-92 415.42,-128"/>
<text text-anchor="middle" x="384.42" y="-106.3" font-family="Times,serif" font-size="14.00">Protocol</text>
</a>
</g>
</g>
<!-- Updater -->
<g id="node9" class="node">
<title>Updater</title>
<g id="a_node9"><a xlink:href="/develop/Data/models.html#updater" xlink:title="Updater" target="_top">
<polygon fill="#eeefff" stroke="#dddeee" points="729.52,-182 669.52,-182 669.52,-146 729.52,-146 729.52,-182"/>
<text text-anchor="middle" x="699.52" y="-160.3" font-family="Times,serif" font-size="14.00">Updater</text>
</a>
</g>
</g>
<!-- Objects with Protocol relationships -->
<g id="node10" class="node">
<title>Objects with Protocol relationships</title>
<g id="a_node10"><a xlink:href="/develop/Data/models.html#objects with protocol relationship" xlink:title="Objects with Protocol relationships" target="_top">
<polygon fill="#cdabef" stroke="#dedede" points="540.62,-18 462.52,-36 306.32,-36 228.21,-18 306.32,0 462.52,0 540.62,-18"/>
<text text-anchor="middle" x="384.42" y="-14.3" font-family="Times,serif" font-size="14.00">Objects with Protocol relationships</text>
</a>
</g>
</g>
</g>
</svg>
