<?xml version="1.0" encoding="UTF-8" standalone="no"?>
<!DOCTYPE svg PUBLIC "-//W3C//DTD SVG 1.1//EN"
 "http://www.w3.org/Graphics/SVG/1.1/DTD/svg11.dtd">
<!-- Generated by graphviz version 12.2.1 (20241206.2353)
 -->
<!-- Title: Protocol Pages: 1 -->
<svg width="766pt" height="522pt"
 viewBox="0.00 0.00 766.15 522.00" xmlns="http://www.w3.org/2000/svg" xmlns:xlink="http://www.w3.org/1999/xlink">
<g id="graph0" class="graph" transform="scale(1 1) rotate(0) translate(4 518)">
<title>Protocol</title>
<polygon fill="white" stroke="none" points="-4,4 -4,-518 762.15,-518 762.15,4 -4,4"/>
<!-- Citation&#45;&gt;Source -->
<g id="edge8" class="edge">
<title>Citation&#45;&gt;Source</title>
<path fill="none" stroke="black" stroke-dasharray="1,5" d="M129.65,-441C189.49,-441 301.59,-441 360.03,-441"/>
<polygon fill="black" stroke="black" points="359.8,-444.5 369.8,-441 359.8,-437.5 359.8,-444.5"/>
</g>
<!-- Citation&#45;&gt;CitationTopic -->
<g id="edge1" class="edge">
<title>Citation&#45;&gt;CitationTopic</title>
<path fill="none" stroke="black" stroke-dasharray="1,5" d="M122.53,-451.47C146.24,-459.04 178.83,-469.44 206.55,-478.29"/>
<polygon fill="black" stroke="black" points="205.27,-481.55 215.86,-481.26 207.39,-474.89 205.27,-481.55"/>
</g>
<!-- Source&#45;&gt;SubsequentCitation -->
<!-- Source&#45;&gt;OriginCitation -->
<!-- Protocol&#45;&gt;Citation -->
<g id="edge2" class="edge">
<title>Protocol&#45;&gt;Citation</title>
<path fill="none" stroke="black" d="M240.3,-293.31C208.22,-324.78 148.32,-383.52 114.54,-416.65"/>
<polygon fill="black" stroke="black" points="112.32,-413.93 107.63,-423.43 117.22,-418.93 112.32,-413.93"/>
</g>
<!-- Protocol&#45;&gt;ProtocolRelationship -->
<g id="edge6" class="edge">
<title>Protocol&#45;&gt;ProtocolRelationship</title>
<path fill="none" stroke="black" d="M213.05,-272C205.47,-272 197.41,-272 189.18,-272"/>
<polygon fill="black" stroke="black" points="189.41,-268.5 179.41,-272 189.41,-275.5 189.41,-268.5"/>
</g>
<!-- Protocol&#45;&gt;Source -->
<g id="edge18" class="edge">
<title>Protocol&#45;&gt;Source</title>
<path fill="none" stroke="black" stroke-dasharray="1,5" d="M278.8,-303.57C293.6,-332.92 318.47,-376.71 348.65,-408 352.84,-412.35 357.71,-416.45 362.7,-420.18"/>
<polygon fill="none" stroke="black" points="270.82,-296.42 277.99,-292.88 281.53,-300.05 274.36,-303.59 270.82,-296.42"/>
<polyline fill="none" stroke="black" points="277.94,-301.82 278.83,-303.62"/>
<polygon fill="none" stroke="black" points="373.03,-422.52 368.45,-429.08 361.89,-424.49 366.48,-417.93 373.03,-422.52"/>
<polyline fill="none" stroke="black" points="364.18,-421.21 362.55,-420.07"/>
</g>
<!-- Protocol&#45;&gt;Documentation -->
<g id="edge3" class="edge">
<title>Protocol&#45;&gt;Documentation</title>
<path fill="none" stroke="black" d="M267.09,-249.71C274.13,-205.79 295.2,-106.93 348.65,-45 349,-44.6 349.35,-44.2 349.72,-43.8"/>
<polygon fill="black" stroke="black" points="351.96,-46.49 357.11,-37.23 347.31,-41.26 351.96,-46.49"/>
</g>
<!-- Protocol&#45;&gt;PinboardItem -->
<g id="edge5" class="edge">
<title>Protocol&#45;&gt;PinboardItem</title>
<path fill="none" stroke="black" d="M270.2,-249.51C280.94,-213.81 306.11,-143.67 348.65,-99 349.23,-98.39 349.82,-97.8 350.43,-97.21"/>
<polygon fill="black" stroke="black" points="352.35,-100.16 357.87,-91.12 347.92,-94.74 352.35,-100.16"/>
</g>
<!-- Protocol&#45;&gt;Role -->
<g id="edge7" class="edge">
<title>Protocol&#45;&gt;Role</title>
<path fill="none" stroke="black" d="M313.03,-272C328.55,-272 345.44,-272 360.03,-272"/>
<polygon fill="black" stroke="black" points="359.65,-275.5 369.65,-272 359.65,-268.5 359.65,-275.5"/>
</g>
<!-- Protocol&#45;&gt;SubsequentCitation -->
<g id="edge9" class="edge">
<title>Protocol&#45;&gt;SubsequentCitation</title>
<path fill="none" stroke="black" d="M287.26,-292.37C303.44,-305.54 326.09,-322.02 348.65,-332 388.06,-349.43 435.15,-360.06 473.29,-366.39"/>
<polygon fill="black" stroke="black" points="472.38,-369.79 482.8,-367.9 473.48,-362.88 472.38,-369.79"/>
</g>
<!-- Protocol&#45;&gt;VerifierRole -->
<g id="edge12" class="edge">
<title>Protocol&#45;&gt;VerifierRole</title>
<path fill="none" stroke="black" d="M301.26,-256.96C315.17,-251.33 331.24,-244.84 346.21,-238.79"/>
<polygon fill="black" stroke="black" points="347.52,-242.04 355.48,-235.04 344.89,-235.55 347.52,-242.04"/>
</g>
<!-- Protocol&#45;&gt;Creator -->
<g id="edge14" class="edge">
<title>Protocol&#45;&gt;Creator</title>
<path fill="none" stroke="black" stroke-dasharray="5,2" d="M290.03,-241.13C305.57,-224.32 326.54,-204.31 348.65,-191 377.58,-173.58 470.1,-146.57 516.89,-133.54"/>
<polygon fill="black" stroke="black" points="287.53,-238.67 283.43,-248.44 292.73,-243.36 287.53,-238.67"/>
</g>
<!-- Protocol&#45;&gt;Project -->
<g id="edge15" class="edge">
<title>Protocol&#45;&gt;Project</title>
<path fill="none" stroke="black" stroke-dasharray="5,2" d="M283.28,-240.12C298.94,-215.83 322.63,-182.51 348.65,-158 355.38,-151.66 363.52,-145.79 371.21,-140.84"/>
<polygon fill="black" stroke="black" points="280.49,-237.99 278.1,-248.32 286.4,-241.74 280.49,-237.99"/>
</g>
<!-- Protocol&#45;&gt;Updater -->
<g id="edge16" class="edge">
<title>Protocol&#45;&gt;Updater</title>
<path fill="none" stroke="black" stroke-dasharray="5,2" d="M312.61,-290.32C324.25,-293.92 336.76,-297.15 348.65,-299 462.46,-316.72 510.49,-335.78 606.4,-272 653.68,-240.56 681.77,-175.96 693.23,-144.31"/>
<polygon fill="black" stroke="black" points="313.8,-287.02 303.2,-287.26 311.63,-293.68 313.8,-287.02"/>
</g>
<!-- Protocol&#45;&gt;OriginCitation -->
<g id="edge17" class="edge">
<title>Protocol&#45;&gt;OriginCitation</title>
<path fill="none" stroke="black" d="M287.1,-302.55C302.73,-321.51 324.82,-345.18 348.65,-361 391.51,-389.45 446.83,-409.05 487.75,-420.9"/>
<polygon fill="none" stroke="black" points="277.8,-297.38 284.03,-292.36 289.05,-298.59 282.82,-303.61 277.8,-297.38"/>
<polyline fill="none" stroke="black" points="285.94,-301.1 287.19,-302.66"/>
<polygon fill="none" stroke="black" points="498.43,-419.77 496.26,-427.46 488.56,-425.29 490.73,-417.59 498.43,-419.77"/>
<polyline fill="none" stroke="black" points="489.65,-421.44 487.72,-420.9"/>
</g>
<!-- CitationTopic&#45;&gt;Topic -->
<g id="edge11" class="edge">
<title>CitationTopic&#45;&gt;Topic</title>
<path fill="none" stroke="black" stroke-dasharray="1,5" d="M308.9,-496C325.61,-496 344.39,-496 360.36,-496"/>
<polygon fill="black" stroke="black" points="359.9,-499.5 369.9,-496 359.9,-492.5 359.9,-499.5"/>
</g>
<!-- Documentation&#45;&gt;Document -->
<g id="edge4" class="edge">
<title>Documentation&#45;&gt;Document</title>
<path fill="none" stroke="black" stroke-dasharray="1,5" d="M449.1,-18C464.65,-18 481.77,-18 497.17,-18"/>
<polygon fill="black" stroke="black" points="497.04,-21.5 507.04,-18 497.04,-14.5 497.04,-21.5"/>
</g>
<!-- Role&#45;&gt;Verifier -->
<!-- SubsequentCitation&#45;&gt;SubsequentSource -->
<g id="edge10" class="edge">
<title>SubsequentCitation&#45;&gt;SubsequentSource</title>
<path fill="none" stroke="black" stroke-dasharray="1,5" d="M606.89,-375C614.83,-375 623.01,-375 631.06,-375"/>
<polygon fill="black" stroke="black" points="630.81,-378.5 640.81,-375 630.81,-371.5 630.81,-378.5"/>
</g>
<!-- VerifierRole&#45;&gt;Verifier -->
<g id="edge13" class="edge">
<title>VerifierRole&#45;&gt;Verifier</title>
<path fill="none" stroke="black" stroke-dasharray="1,5" d="M440.39,-225.59C460.68,-229.37 485.1,-233.93 505.19,-237.67"/>
<polygon fill="black" stroke="black" points="504.5,-241.1 514.97,-239.49 505.78,-234.22 504.5,-241.1"/>
</g>
<!-- Creator&#45;&gt;Updater -->
<!-- Project&#45;&gt;Creator -->
<!-- Citation -->
<g id="node1" class="node">
<title>Citation</title>
<g id="a_node1"><a xlink:href="/develop/Data/models.html#citation" xlink:title="Citation" target="_top">
<ellipse fill="#abcdef" stroke="#dddeee" cx="88.71" cy="-441" rx="40.6" ry="18"/>
<text text-anchor="middle" x="88.71" y="-435.95" font-family="Times,serif" font-size="14.00">Citation</text>
</a>
</g>
</g>
<!-- ProtocolRelationship -->
<g id="node2" class="node">
<title>ProtocolRelationship</title>
<g id="a_node2"><a xlink:href="/develop/Data/models.html#protocol-relationship" xlink:title="ProtocolRelationship" target="_top">
<ellipse fill="#abcdef" stroke="#dddeee" cx="88.71" cy="-272" rx="88.71" ry="18"/>
<text text-anchor="middle" x="88.71" y="-266.95" font-family="Times,serif" font-size="14.00">ProtocolRelationship</text>
</a>
</g>
</g>
<!-- Source -->
<g id="node3" class="node">
<title>Source</title>
<g id="a_node3"><a xlink:href="/develop/Data/models.html#source" xlink:title="Source" target="_top">
<path fill="#fedcba" stroke="#dddeee" d="M383.65,-423C383.65,-423 413.65,-423 413.65,-423 419.65,-423 425.65,-429 425.65,-435 425.65,-435 425.65,-447 425.65,-447 425.65,-453 419.65,-459 413.65,-459 413.65,-459 383.65,-459 383.65,-459 377.65,-459 371.65,-453 371.65,-447 371.65,-447 371.65,-435 371.65,-435 371.65,-429 377.65,-423 383.65,-423"/>
<text text-anchor="middle" x="398.65" y="-436.2" font-family="Times,serif" font-size="14.00">Source</text>
</a>
</g>
</g>
<!-- Protocol -->
<g id="node4" class="node">
<title>Protocol</title>
<g id="a_node4"><a xlink:href="/develop/Data/models.html#protocol" xlink:title="Protocol" target="_top">
<polygon fill="#cdefab" stroke="#dedede" points="308.65,-264.54 308.65,-279.46 281.93,-290 244.14,-290 217.43,-279.46 217.43,-264.54 244.14,-254 281.93,-254 308.65,-264.54"/>
<polygon fill="none" stroke="#dedede" points="312.65,-261.82 312.65,-282.18 282.69,-294 243.38,-294 213.43,-282.18 213.43,-261.82 243.38,-250 282.69,-250 312.65,-261.82"/>
<text text-anchor="middle" x="263.04" y="-266.95" font-family="Times,serif" font-size="14.00">Protocol</text>
</a>
</g>
</g>
<!-- CitationTopic -->
<g id="node5" class="node">
<title>CitationTopic</title>
<g id="a_node5"><a xlink:href="/develop/Data/models.html#citation-topic" xlink:title="CitationTopic" target="_top">
<polygon fill="#eeefff" stroke="#dddeee" points="308.54,-514 217.54,-514 217.54,-478 308.54,-478 308.54,-514"/>
<text text-anchor="middle" x="263.04" y="-490.95" font-family="Times,serif" font-size="14.00">CitationTopic</text>
</a>
</g>
</g>
<!-- Documentation -->
<g id="node6" class="node">
<title>Documentation</title>
<g id="a_node6"><a xlink:href="/develop/Data/models.html#documentation" xlink:title="Documentation" target="_top">
<polygon fill="#eeefff" stroke="#dddeee" points="448.65,-36 348.65,-36 348.65,0 448.65,0 448.65,-36"/>
<text text-anchor="middle" x="398.65" y="-12.95" font-family="Times,serif" font-size="14.00">Documentation</text>
</a>
</g>
</g>
<!-- Document -->
<g id="node7" class="node">
<title>Document</title>
<g id="a_node7"><a xlink:href="/develop/Data/models.html#document" xlink:title="Document" target="_top">
<polygon fill="#eeefff" stroke="#dddeee" points="582.02,-36 509.02,-36 509.02,0 582.02,0 582.02,-36"/>
<text text-anchor="middle" x="545.52" y="-12.95" font-family="Times,serif" font-size="14.00">Document</text>
</a>
</g>
</g>
<!-- PinboardItem -->
<g id="node8" class="node">
<title>PinboardItem</title>
<g id="a_node8"><a xlink:href="/develop/Data/models.html#pinboard-item" xlink:title="PinboardItem" target="_top">
<polygon fill="#eeefff" stroke="#dddeee" points="443.77,-90 353.52,-90 353.52,-54 443.77,-54 443.77,-90"/>
<text text-anchor="middle" x="398.65" y="-66.95" font-family="Times,serif" font-size="14.00">PinboardItem</text>
</a>
</g>
</g>
<!-- Role -->
<g id="node9" class="node">
<title>Role</title>
<g id="a_node9"><a xlink:href="/develop/Data/models.html#role" xlink:title="Role" target="_top">
<polygon fill="#eeefff" stroke="#dddeee" points="425.65,-290 371.65,-290 371.65,-254 425.65,-254 425.65,-290"/>
<text text-anchor="middle" x="398.65" y="-266.95" font-family="Times,serif" font-size="14.00">Role</text>
</a>
</g>
</g>
<!-- SubsequentCitation -->
<g id="node10" class="node">
<title>SubsequentCitation</title>
<g id="a_node10"><a xlink:href="/develop/Data/models.html#subsequent-citation" xlink:title="SubsequentCitation" target="_top">
<polygon fill="#eeefff" stroke="#dddeee" points="606.4,-393 484.65,-393 484.65,-357 606.4,-357 606.4,-393"/>
<text text-anchor="middle" x="545.52" y="-369.95" font-family="Times,serif" font-size="14.00">SubsequentCitation</text>
</a>
</g>
</g>
<!-- SubsequentSource -->
<g id="node11" class="node">
<title>SubsequentSource</title>
<g id="a_node11"><a xlink:href="/develop/Data/models.html#subsequent-source" xlink:title="SubsequentSource" target="_top">
<polygon fill="#eeefff" stroke="#dddeee" points="758.15,-393 642.4,-393 642.4,-357 758.15,-357 758.15,-393"/>
<text text-anchor="middle" x="700.27" y="-369.95" font-family="Times,serif" font-size="14.00">SubsequentSource</text>
</a>
</g>
</g>
<!-- Topic -->
<g id="node12" class="node">
<title>Topic</title>
<g id="a_node12"><a xlink:href="/develop/Data/models.html#topic" xlink:title="Topic" target="_top">
<polygon fill="#eeefff" stroke="#dddeee" points="425.65,-514 371.65,-514 371.65,-478 425.65,-478 425.65,-514"/>
<text text-anchor="middle" x="398.65" y="-490.95" font-family="Times,serif" font-size="14.00">Topic</text>
</a>
</g>
</g>
<!-- VerifierRole -->
<g id="node13" class="node">
<title>VerifierRole</title>
<g id="a_node13"><a xlink:href="/develop/Data/models.html#verifier-role" xlink:title="VerifierRole" target="_top">
<polygon fill="#eeefff" stroke="#dddeee" points="440.02,-236 357.27,-236 357.27,-200 440.02,-200 440.02,-236"/>
<text text-anchor="middle" x="398.65" y="-212.95" font-family="Times,serif" font-size="14.00">VerifierRole</text>
</a>
</g>
</g>
<!-- Verifier -->
<g id="node14" class="node">
<title>Verifier</title>
<g id="a_node14"><a xlink:href="/develop/Data/models.html#verifier" xlink:title="Verifier" target="_top">
<polygon fill="#eeefff" stroke="#dddeee" points="574.15,-263 516.9,-263 516.9,-227 574.15,-227 574.15,-263"/>
<text text-anchor="middle" x="545.52" y="-239.95" font-family="Times,serif" font-size="14.00">Verifier</text>
</a>
</g>
</g>
<!-- Creator -->
<g id="node15" class="node">
<title>Creator</title>
<g id="a_node15"><a xlink:href="/develop/Data/models.html#creator" xlink:title="Creator" target="_top">
<polygon fill="#eeefff" stroke="#dddeee" points="573.77,-144 517.27,-144 517.27,-108 573.77,-108 573.77,-144"/>
<text text-anchor="middle" x="545.52" y="-120.95" font-family="Times,serif" font-size="14.00">Creator</text>
</a>
</g>
</g>
<!-- Project -->
<g id="node16" class="node">
<title>Project</title>
<g id="a_node16"><a xlink:href="/develop/Data/models.html#project" xlink:title="Project" target="_top">
<polygon fill="#eeefff" stroke="#dddeee" points="425.77,-144 371.52,-144 371.52,-108 425.77,-108 425.77,-144"/>
<text text-anchor="middle" x="398.65" y="-120.95" font-family="Times,serif" font-size="14.00">Project</text>
</a>
</g>
</g>
<!-- Updater -->
<g id="node17" class="node">
<title>Updater</title>
<g id="a_node17"><a xlink:href="/develop/Data/models.html#updater" xlink:title="Updater" target="_top">
<polygon fill="#eeefff" stroke="#dddeee" points="730.02,-144 670.52,-144 670.52,-108 730.02,-108 730.02,-144"/>
<text text-anchor="middle" x="700.27" y="-120.95" font-family="Times,serif" font-size="14.00">Updater</text>
</a>
</g>
</g>
<!-- OriginCitation -->
<g id="node18" class="node">
<title>OriginCitation</title>
<g id="a_node18"><a xlink:href="/develop/Data/models.html#origin-citation" xlink:title="OriginCitation" target="_top">
<polygon fill="#eeefff" stroke="#dddeee" points="592.9,-453 498.15,-453 498.15,-417 592.9,-417 592.9,-453"/>
<text text-anchor="middle" x="545.52" y="-429.95" font-family="Times,serif" font-size="14.00">OriginCitation</text>
</a>
</g>
</g>
</g>
</svg>
