<?xml version="1.0" encoding="UTF-8" standalone="no"?>
<!DOCTYPE svg PUBLIC "-//W3C//DTD SVG 1.1//EN"
 "http://www.w3.org/Graphics/SVG/1.1/DTD/svg11.dtd">
<!-- Generated by graphviz version 2.50.0 (20211204.2007)
 -->
<!-- Title: Repository Pages: 1 -->
<svg width="563pt" height="341pt"
 viewBox="0.00 0.00 563.39 340.50" xmlns="http://www.w3.org/2000/svg" xmlns:xlink="http://www.w3.org/1999/xlink">
<g id="graph0" class="graph" transform="scale(1 1) rotate(0) translate(4 336.5)">
<title>Repository</title>
<polygon fill="white" stroke="transparent" points="-4,4 -4,-336.5 559.39,-336.5 559.39,4 -4,4"/>
<!-- AlternateValue&#45;&gt;AlternateValueLanguage -->
<g id="edge1" class="edge">
<title>AlternateValue&#45;&gt;AlternateValueLanguage</title>
<path fill="none" stroke="black" stroke-dasharray="1,5" d="M127.71,-288C135.98,-288 144.57,-288 153.13,-288"/>
<polygon fill="black" stroke="black" points="153.14,-291.5 163.14,-288 153.14,-284.5 153.14,-291.5"/>
</g>
<!-- Confidence&#45;&gt;ConfidenceLevel -->
<g id="edge4" class="edge">
<title>Confidence&#45;&gt;ConfidenceLevel</title>
<path fill="none" stroke="black" stroke-dasharray="1,5" d="M114.79,-234C133.34,-234 154.62,-234 174.21,-234"/>
<polygon fill="black" stroke="black" points="174.28,-237.5 184.28,-234 174.28,-230.5 174.28,-237.5"/>
</g>
<!-- Tag&#45;&gt;Keyword -->
<g id="edge9" class="edge">
<title>Tag&#45;&gt;Keyword</title>
<path fill="none" stroke="black" stroke-dasharray="1,5" d="M91,-18C118.58,-18 162.36,-18 194.96,-18"/>
<polygon fill="black" stroke="black" points="195.11,-21.5 205.11,-18 195.11,-14.5 195.11,-21.5"/>
</g>
<!-- Repository&#45;&gt;AlternateValue -->
<g id="edge2" class="edge">
<title>Repository&#45;&gt;AlternateValue</title>
<path fill="none" stroke="black" d="M207.71,-170.18C193.36,-180.14 176.5,-193.12 163.39,-207 143.58,-227.96 149.55,-242.53 127.39,-261 123.6,-264.15 119.4,-266.99 115,-269.54"/>
<polygon fill="black" stroke="black" points="113.03,-266.62 105.8,-274.36 116.28,-272.82 113.03,-266.62"/>
</g>
<!-- Repository&#45;&gt;Confidence -->
<g id="edge5" class="edge">
<title>Repository&#45;&gt;Confidence</title>
<path fill="none" stroke="black" d="M203.82,-168.96C182.11,-180.23 153.29,-194.87 127.39,-207 120.75,-210.11 113.65,-213.29 106.72,-216.33"/>
<polygon fill="black" stroke="black" points="105.19,-213.18 97.41,-220.37 107.97,-219.6 105.19,-213.18"/>
</g>
<!-- Repository&#45;&gt;DataAttribute -->
<g id="edge6" class="edge">
<title>Repository&#45;&gt;DataAttribute</title>
<path fill="none" stroke="black" d="M181.45,-160.45C163.81,-163.4 144.26,-166.68 126.28,-169.69"/>
<polygon fill="black" stroke="black" points="125.47,-166.27 116.19,-171.38 126.63,-173.18 125.47,-166.27"/>
</g>
<!-- Repository&#45;&gt;Identifier -->
<g id="edge8" class="edge">
<title>Repository&#45;&gt;Identifier</title>
<path fill="none" stroke="black" d="M181.27,-142.83C159.69,-139.71 135.27,-136.19 114.37,-133.17"/>
<polygon fill="black" stroke="black" points="114.83,-129.7 104.43,-131.74 113.83,-136.63 114.83,-129.7"/>
</g>
<!-- Repository&#45;&gt;Tag -->
<g id="edge13" class="edge">
<title>Repository&#45;&gt;Tag</title>
<path fill="none" stroke="black" d="M219.03,-128.68C198.42,-105.38 163.5,-68.95 127.39,-45 118.35,-39.01 107.77,-33.85 97.89,-29.69"/>
<polygon fill="black" stroke="black" points="98.93,-26.34 88.34,-25.88 96.33,-32.84 98.93,-26.34"/>
</g>
<!-- Repository&#45;&gt;Note -->
<g id="edge10" class="edge">
<title>Repository&#45;&gt;Note</title>
<path fill="none" stroke="black" d="M201.7,-133.6C180.19,-123.35 152.33,-110.23 127.39,-99 117.5,-94.55 106.67,-89.83 96.84,-85.6"/>
<polygon fill="black" stroke="black" points="97.98,-82.28 87.41,-81.57 95.23,-88.72 97.98,-82.28"/>
</g>
<!-- Repository&#45;&gt;CollectionObject -->
<g id="edge3" class="edge">
<title>Repository&#45;&gt;CollectionObject</title>
<path fill="none" stroke="black" d="M271.81,-169.8C286.23,-179.5 302.63,-192.37 314.39,-207 338.56,-237.08 323.86,-257.98 350.39,-286 351.58,-287.26 352.84,-288.47 354.15,-289.63"/>
<polygon fill="black" stroke="black" points="352.12,-292.49 362.18,-295.82 356.39,-286.94 352.12,-292.49"/>
</g>
<!-- Repository&#45;&gt;Extract -->
<g id="edge7" class="edge">
<title>Repository&#45;&gt;Extract</title>
<path fill="none" stroke="black" d="M267,-171.67C294.08,-192.17 333.96,-221.93 350.39,-232 355.86,-235.35 361.8,-238.66 367.67,-241.75"/>
<polygon fill="black" stroke="black" points="366.25,-244.95 376.75,-246.39 369.44,-238.72 366.25,-244.95"/>
</g>
<!-- Repository&#45;&gt;PinboardItem -->
<g id="edge11" class="edge">
<title>Repository&#45;&gt;PinboardItem</title>
<path fill="none" stroke="black" d="M284.27,-165.61C304.42,-172.25 328.45,-180.16 349.66,-187.15"/>
<polygon fill="black" stroke="black" points="348.59,-190.48 359.19,-190.28 350.78,-183.83 348.59,-190.48"/>
</g>
<!-- Repository&#45;&gt;Role -->
<g id="edge12" class="edge">
<title>Repository&#45;&gt;Role</title>
<path fill="none" stroke="black" d="M284.27,-136.39C310.45,-127.77 343.16,-117 367.76,-108.9"/>
<polygon fill="black" stroke="black" points="369.02,-112.17 377.42,-105.71 366.83,-105.52 369.02,-112.17"/>
</g>
<!-- Repository&#45;&gt;VerifierRole -->
<g id="edge14" class="edge">
<title>Repository&#45;&gt;VerifierRole</title>
<path fill="none" stroke="black" d="M296.33,-151C314.77,-151 335.13,-151 353.13,-151"/>
<polygon fill="black" stroke="black" points="353.14,-154.5 363.14,-151 353.14,-147.5 353.14,-154.5"/>
</g>
<!-- Repository&#45;&gt;Creator -->
<g id="edge16" class="edge">
<title>Repository&#45;&gt;Creator</title>
<path fill="none" stroke="black" stroke-dasharray="5,2" d="M273.93,-123.78C295.28,-107.29 323.71,-86.35 350.39,-70 358.55,-65 367.75,-60.1 376.2,-55.89"/>
<polygon fill="black" stroke="black" points="271.57,-121.18 265.83,-130.09 275.87,-126.7 271.57,-121.18"/>
</g>
<!-- Repository&#45;&gt;Updater -->
<g id="edge17" class="edge">
<title>Repository&#45;&gt;Updater</title>
<path fill="none" stroke="black" stroke-dasharray="5,2" d="M260.08,-120.66C284.96,-84.39 326.82,-27.16 350.39,-16 397.63,6.38 459.4,-13.18 495.2,-28.64"/>
<polygon fill="black" stroke="black" points="257.18,-118.71 254.45,-128.94 262.97,-122.65 257.18,-118.71"/>
</g>
<!-- Role&#45;&gt;Verifier -->
<!-- VerifierRole&#45;&gt;Verifier -->
<g id="edge15" class="edge">
<title>VerifierRole&#45;&gt;Verifier</title>
<path fill="none" stroke="black" stroke-dasharray="1,5" d="M446.67,-141.71C459.67,-138.75 473.98,-135.49 486.74,-132.58"/>
<polygon fill="black" stroke="black" points="487.62,-135.97 496.59,-130.33 486.06,-129.14 487.62,-135.97"/>
</g>
<!-- Creator&#45;&gt;Updater -->
<!-- AlternateValue -->
<g id="node1" class="node">
<title>AlternateValue</title>
<g id="a_node1"><a xlink:href="/develop/Data/models.html#alternate-value" xlink:title="AlternateValue" target="_top">
<ellipse fill="#abcdef" stroke="#dddeee" cx="63.69" cy="-288" rx="63.89" ry="18"/>
<text text-anchor="middle" x="63.69" y="-284.3" font-family="Times,serif" font-size="14.00">AlternateValue</text>
</a>
</g>
</g>
<!-- Confidence -->
<g id="node2" class="node">
<title>Confidence</title>
<g id="a_node2"><a xlink:href="/develop/Data/models.html#confidence" xlink:title="Confidence" target="_top">
<ellipse fill="#abcdef" stroke="#dddeee" cx="63.69" cy="-234" rx="50.89" ry="18"/>
<text text-anchor="middle" x="63.69" y="-230.3" font-family="Times,serif" font-size="14.00">Confidence</text>
</a>
</g>
</g>
<!-- DataAttribute -->
<g id="node3" class="node">
<title>DataAttribute</title>
<g id="a_node3"><a xlink:href="/develop/Data/models.html#data-attribute" xlink:title="DataAttribute" target="_top">
<ellipse fill="#abcdef" stroke="#dddeee" cx="63.69" cy="-180" rx="59.29" ry="18"/>
<text text-anchor="middle" x="63.69" y="-176.3" font-family="Times,serif" font-size="14.00">DataAttribute</text>
</a>
</g>
</g>
<!-- Identifier -->
<g id="node4" class="node">
<title>Identifier</title>
<g id="a_node4"><a xlink:href="/develop/Data/models.html#identifier" xlink:title="Identifier" target="_top">
<ellipse fill="#abcdef" stroke="#dddeee" cx="63.69" cy="-126" rx="42.79" ry="18"/>
<text text-anchor="middle" x="63.69" y="-122.3" font-family="Times,serif" font-size="14.00">Identifier</text>
</a>
</g>
</g>
<!-- Tag -->
<g id="node5" class="node">
<title>Tag</title>
<g id="a_node5"><a xlink:href="/develop/Data/models.html#tag" xlink:title="Tag" target="_top">
<ellipse fill="#abcdef" stroke="#dddeee" cx="63.69" cy="-18" rx="27" ry="18"/>
<text text-anchor="middle" x="63.69" y="-14.3" font-family="Times,serif" font-size="14.00">Tag</text>
</a>
</g>
</g>
<!-- Note -->
<g id="node6" class="node">
<title>Note</title>
<g id="a_node6"><a xlink:href="/develop/Data/models.html#note" xlink:title="Note" target="_top">
<ellipse fill="#abcdef" stroke="#dddeee" cx="63.69" cy="-72" rx="27.9" ry="18"/>
<text text-anchor="middle" x="63.69" y="-68.3" font-family="Times,serif" font-size="14.00">Note</text>
</a>
</g>
</g>
<!-- CollectionObject -->
<g id="node7" class="node">
<title>CollectionObject</title>
<g id="a_node7"><a xlink:href="/develop/Data/models.html#collection-object" xlink:title="CollectionObject" target="_top">
<path fill="#fedcba" stroke="#dddeee" d="M362.39,-296C362.39,-296 447.39,-296 447.39,-296 453.39,-296 459.39,-302 459.39,-308 459.39,-308 459.39,-320 459.39,-320 459.39,-326 453.39,-332 447.39,-332 447.39,-332 362.39,-332 362.39,-332 356.39,-332 350.39,-326 350.39,-320 350.39,-320 350.39,-308 350.39,-308 350.39,-302 356.39,-296 362.39,-296"/>
<text text-anchor="middle" x="404.89" y="-310.3" font-family="Times,serif" font-size="14.00">CollectionObject</text>
</a>
</g>
</g>
<!-- Repository -->
<g id="node8" class="node">
<title>Repository</title>
<g id="a_node8"><a xlink:href="/develop/Data/models.html#repository" xlink:title="Repository" target="_top">
<polygon fill="#cdefab" stroke="#dedede" points="292.32,-143.54 292.32,-158.46 261.02,-169 216.76,-169 185.46,-158.46 185.46,-143.54 216.76,-133 261.02,-133 292.32,-143.54"/>
<polygon fill="none" stroke="#dedede" points="296.32,-140.67 296.32,-161.33 261.68,-173 216.1,-173 181.46,-161.33 181.46,-140.67 216.1,-129 261.68,-129 296.32,-140.67"/>
<text text-anchor="middle" x="238.89" y="-147.3" font-family="Times,serif" font-size="14.00">Repository</text>
</a>
</g>
</g>
<!-- AlternateValueLanguage -->
<g id="node9" class="node">
<title>AlternateValueLanguage</title>
<g id="a_node9"><a xlink:href="/develop/Data/models.html#alternate-value-language" xlink:title="AlternateValueLanguage" target="_top">
<polygon fill="#eeefff" stroke="#dddeee" points="314.39,-306 163.39,-306 163.39,-270 314.39,-270 314.39,-306"/>
<text text-anchor="middle" x="238.89" y="-284.3" font-family="Times,serif" font-size="14.00">AlternateValueLanguage</text>
</a>
</g>
</g>
<!-- ConfidenceLevel -->
<g id="node10" class="node">
<title>ConfidenceLevel</title>
<g id="a_node10"><a xlink:href="/develop/Data/models.html#confidence-level" xlink:title="ConfidenceLevel" target="_top">
<polygon fill="#eeefff" stroke="#dddeee" points="293.39,-252 184.39,-252 184.39,-216 293.39,-216 293.39,-252"/>
<text text-anchor="middle" x="238.89" y="-230.3" font-family="Times,serif" font-size="14.00">ConfidenceLevel</text>
</a>
</g>
</g>
<!-- Extract -->
<g id="node11" class="node">
<title>Extract</title>
<g id="a_node11"><a xlink:href="/develop/Data/models.html#extract" xlink:title="Extract" target="_top">
<polygon fill="#eeefff" stroke="#dddeee" points="432.89,-277 376.89,-277 376.89,-241 432.89,-241 432.89,-277"/>
<text text-anchor="middle" x="404.89" y="-255.3" font-family="Times,serif" font-size="14.00">Extract</text>
</a>
</g>
</g>
<!-- Keyword -->
<g id="node12" class="node">
<title>Keyword</title>
<g id="a_node12"><a xlink:href="/develop/Data/models.html#keyword" xlink:title="Keyword" target="_top">
<polygon fill="#eeefff" stroke="#dddeee" points="272.39,-36 205.39,-36 205.39,0 272.39,0 272.39,-36"/>
<text text-anchor="middle" x="238.89" y="-14.3" font-family="Times,serif" font-size="14.00">Keyword</text>
</a>
</g>
</g>
<!-- PinboardItem -->
<g id="node13" class="node">
<title>PinboardItem</title>
<g id="a_node13"><a xlink:href="/develop/Data/models.html#pinboard-item" xlink:title="PinboardItem" target="_top">
<polygon fill="#eeefff" stroke="#dddeee" points="450.39,-223 359.39,-223 359.39,-187 450.39,-187 450.39,-223"/>
<text text-anchor="middle" x="404.89" y="-201.3" font-family="Times,serif" font-size="14.00">PinboardItem</text>
</a>
</g>
</g>
<!-- Role -->
<g id="node14" class="node">
<title>Role</title>
<g id="a_node14"><a xlink:href="/develop/Data/models.html#role" xlink:title="Role" target="_top">
<polygon fill="#eeefff" stroke="#dddeee" points="431.89,-115 377.89,-115 377.89,-79 431.89,-79 431.89,-115"/>
<text text-anchor="middle" x="404.89" y="-93.3" font-family="Times,serif" font-size="14.00">Role</text>
</a>
</g>
</g>
<!-- VerifierRole -->
<g id="node15" class="node">
<title>VerifierRole</title>
<g id="a_node15"><a xlink:href="/develop/Data/models.html#verifier-role" xlink:title="VerifierRole" target="_top">
<polygon fill="#eeefff" stroke="#dddeee" points="446.39,-169 363.39,-169 363.39,-133 446.39,-133 446.39,-169"/>
<text text-anchor="middle" x="404.89" y="-147.3" font-family="Times,serif" font-size="14.00">VerifierRole</text>
</a>
</g>
</g>
<!-- Verifier -->
<g id="node16" class="node">
<title>Verifier</title>
<g id="a_node16"><a xlink:href="/develop/Data/models.html#verifier" xlink:title="Verifier" target="_top">
<polygon fill="#eeefff" stroke="#dddeee" points="553.89,-142 496.89,-142 496.89,-106 553.89,-106 553.89,-142"/>
<text text-anchor="middle" x="525.39" y="-120.3" font-family="Times,serif" font-size="14.00">Verifier</text>
</a>
</g>
</g>
<!-- Creator -->
<g id="node17" class="node">
<title>Creator</title>
<g id="a_node17"><a xlink:href="/develop/Data/models.html#creator" xlink:title="Creator" target="_top">
<polygon fill="#eeefff" stroke="#dddeee" points="433.39,-61 376.39,-61 376.39,-25 433.39,-25 433.39,-61"/>
<text text-anchor="middle" x="404.89" y="-39.3" font-family="Times,serif" font-size="14.00">Creator</text>
</a>
</g>
</g>
<!-- Updater -->
<g id="node18" class="node">
<title>Updater</title>
<g id="a_node18"><a xlink:href="/develop/Data/models.html#updater" xlink:title="Updater" target="_top">
<polygon fill="#eeefff" stroke="#dddeee" points="555.39,-61 495.39,-61 495.39,-25 555.39,-25 555.39,-61"/>
<text text-anchor="middle" x="525.39" y="-39.3" font-family="Times,serif" font-size="14.00">Updater</text>
</a>
</g>
</g>
</g>
</svg>
