<?xml version="1.0" encoding="UTF-8" standalone="no"?>
<!DOCTYPE svg PUBLIC "-//W3C//DTD SVG 1.1//EN"
 "http://www.w3.org/Graphics/SVG/1.1/DTD/svg11.dtd">
<!-- Generated by graphviz version 12.2.1 (20241206.2353)
 -->
<!-- Title: Role Pages: 1 -->
<svg width="397pt" height="390pt"
 viewBox="0.00 0.00 397.13 390.00" xmlns="http://www.w3.org/2000/svg" xmlns:xlink="http://www.w3.org/1999/xlink">
<g id="graph0" class="graph" transform="scale(1 1) rotate(0) translate(4 386)">
<title>Role</title>
<polygon fill="white" stroke="none" points="-4,4 -4,-386 393.13,-386 393.13,4 -4,4"/>
<!-- Role&#45;&gt;Role -->
<g id="edge2" class="edge">
<title>Role&#45;&gt;Role</title>
<path fill="none" stroke="black" d="M8.47,-205.77C-2.73,-218.11 6,-231 34.65,-231 55.25,-231 65.55,-224.34 65.56,-216.01"/>
<polygon fill="black" stroke="black" points="68.84,-214.76 61.47,-207.14 62.48,-217.69 68.84,-214.76"/>
</g>
<!-- Role&#45;&gt;PinboardItem -->
<g id="edge1" class="edge">
<title>Role&#45;&gt;PinboardItem</title>
<path fill="none" stroke="black" d="M40.24,-213.31C47.99,-245.4 66.77,-304.28 105.31,-337 116.04,-346.12 129.71,-352.16 143.25,-356.16"/>
<polygon fill="black" stroke="black" points="141.99,-359.45 152.55,-358.57 143.75,-352.67 141.99,-359.45"/>
</g>
<!-- Role&#45;&gt;VerifierRole -->
<g id="edge3" class="edge">
<title>Role&#45;&gt;VerifierRole</title>
<path fill="none" stroke="black" d="M48.41,-213.26C60.68,-232.85 80.94,-260.85 105.31,-278 117.68,-286.71 132.62,-293.22 146.88,-298.01"/>
<polygon fill="black" stroke="black" points="145.57,-301.27 156.16,-300.9 147.65,-294.58 145.57,-301.27"/>
</g>
<!-- Role&#45;&gt;Verifier -->
<!-- Role&#45;&gt;Creator -->
<g id="edge5" class="edge">
<title>Role&#45;&gt;Creator</title>
<path fill="none" stroke="black" stroke-dasharray="5,2" d="M80.84,-198.49C109.72,-203.28 146.24,-209.34 170.86,-213.42"/>
<polygon fill="black" stroke="black" points="81.72,-195.09 71.28,-196.91 80.57,-202 81.72,-195.09"/>
</g>
<!-- Role&#45;&gt;Organization -->
<g id="edge6" class="edge">
<title>Role&#45;&gt;Organization</title>
<path fill="none" stroke="black" stroke-dasharray="5,2" d="M80.87,-183.5C104.36,-179.61 132.89,-174.87 155.98,-171.05"/>
<polygon fill="black" stroke="black" points="80.57,-180 71.28,-185.09 81.72,-186.91 80.57,-180"/>
</g>
<!-- Role&#45;&gt;Person -->
<g id="edge7" class="edge">
<title>Role&#45;&gt;Person</title>
<path fill="none" stroke="black" stroke-dasharray="5,2" d="M63.95,-165.12C76,-155.19 90.64,-144.47 105.31,-137 126.62,-126.15 152.95,-119.03 172.18,-114.84"/>
<polygon fill="black" stroke="black" points="61.79,-162.37 56.44,-171.51 66.33,-167.7 61.79,-162.37"/>
</g>
<!-- Role&#45;&gt;Updater -->
<g id="edge9" class="edge">
<title>Role&#45;&gt;Updater</title>
<path fill="none" stroke="black" stroke-dasharray="5,2" d="M46.74,-158.38C57.37,-132.77 76.17,-98.88 105.31,-83 178.8,-42.95 222.8,-38.41 293.63,-83 334.77,-108.89 350.36,-168.99 355.77,-199.51"/>
<polygon fill="black" stroke="black" points="43.61,-156.77 43.23,-167.36 50.13,-159.32 43.61,-156.77"/>
</g>
<!-- Role&#45;&gt;Objects with Roles -->
<g id="edge8" class="edge">
<title>Role&#45;&gt;Objects with Roles</title>
<path fill="none" stroke="black" stroke-dasharray="5,2" d="M44.12,-157.68C53.85,-125.84 72.81,-78.59 105.31,-50 114.68,-41.75 126.28,-35.61 138.08,-31.04"/>
<polygon fill="black" stroke="black" points="40.79,-156.61 41.37,-167.19 47.51,-158.56 40.79,-156.61"/>
</g>
<!-- VerifierRole&#45;&gt;Verifier -->
<g id="edge4" class="edge">
<title>VerifierRole&#45;&gt;Verifier</title>
<path fill="none" stroke="black" stroke-dasharray="1,5" d="M241.14,-310C265.06,-310 295.17,-310 318.88,-310"/>
<polygon fill="black" stroke="black" points="318.78,-313.5 328.78,-310 318.78,-306.5 318.78,-313.5"/>
</g>
<!-- Creator&#45;&gt;Updater -->
<!-- Role -->
<g id="node1" class="node">
<title>Role</title>
<g id="a_node1"><a xlink:href="/develop/Data/models.html#role" xlink:title="Role" target="_top">
<polygon fill="#cdefab" stroke="#dedede" points="65.31,-183.54 65.31,-198.46 47.35,-209 21.96,-209 4,-198.46 4,-183.54 21.96,-173 47.35,-173 65.31,-183.54"/>
<polygon fill="none" stroke="#dedede" points="69.31,-181.25 69.31,-200.75 48.44,-213 20.87,-213 0,-200.75 0,-181.25 20.87,-169 48.44,-169 69.31,-181.25"/>
<text text-anchor="middle" x="34.65" y="-185.95" font-family="Times,serif" font-size="14.00">Role</text>
</a>
</g>
</g>
<!-- PinboardItem -->
<g id="node2" class="node">
<title>PinboardItem</title>
<g id="a_node2"><a xlink:href="/develop/Data/models.html#pinboard-item" xlink:title="PinboardItem" target="_top">
<polygon fill="#eeefff" stroke="#dddeee" points="244.6,-382 154.35,-382 154.35,-346 244.6,-346 244.6,-382"/>
<text text-anchor="middle" x="199.47" y="-358.95" font-family="Times,serif" font-size="14.00">PinboardItem</text>
</a>
</g>
</g>
<!-- VerifierRole -->
<g id="node3" class="node">
<title>VerifierRole</title>
<g id="a_node3"><a xlink:href="/develop/Data/models.html#verifier-role" xlink:title="VerifierRole" target="_top">
<polygon fill="#eeefff" stroke="#dddeee" points="240.85,-328 158.1,-328 158.1,-292 240.85,-292 240.85,-328"/>
<text text-anchor="middle" x="199.47" y="-304.95" font-family="Times,serif" font-size="14.00">VerifierRole</text>
</a>
</g>
</g>
<!-- Verifier -->
<g id="node4" class="node">
<title>Verifier</title>
<g id="a_node4"><a xlink:href="/develop/Data/models.html#verifier" xlink:title="Verifier" target="_top">
<polygon fill="#eeefff" stroke="#dddeee" points="388.01,-328 330.76,-328 330.76,-292 388.01,-292 388.01,-328"/>
<text text-anchor="middle" x="359.38" y="-304.95" font-family="Times,serif" font-size="14.00">Verifier</text>
</a>
</g>
</g>
<!-- Creator -->
<g id="node5" class="node">
<title>Creator</title>
<g id="a_node5"><a xlink:href="/develop/Data/models.html#creator" xlink:title="Creator" target="_top">
<polygon fill="#eeefff" stroke="#dddeee" points="227.72,-236 171.22,-236 171.22,-200 227.72,-200 227.72,-236"/>
<text text-anchor="middle" x="199.47" y="-212.95" font-family="Times,serif" font-size="14.00">Creator</text>
</a>
</g>
</g>
<!-- Organization -->
<g id="node6" class="node">
<title>Organization</title>
<g id="a_node6"><a xlink:href="/develop/Data/models.html#organization" xlink:title="Organization" target="_top">
<polygon fill="#eeefff" stroke="#dddeee" points="242.72,-182 156.22,-182 156.22,-146 242.72,-146 242.72,-182"/>
<text text-anchor="middle" x="199.47" y="-158.95" font-family="Times,serif" font-size="14.00">Organization</text>
</a>
</g>
</g>
<!-- Person -->
<g id="node7" class="node">
<title>Person</title>
<g id="a_node7"><a xlink:href="/develop/Data/models.html#person" xlink:title="Person" target="_top">
<polygon fill="#eeefff" stroke="#dddeee" points="226.47,-128 172.47,-128 172.47,-92 226.47,-92 226.47,-128"/>
<text text-anchor="middle" x="199.47" y="-104.95" font-family="Times,serif" font-size="14.00">Person</text>
</a>
</g>
</g>
<!-- Updater -->
<g id="node8" class="node">
<title>Updater</title>
<g id="a_node8"><a xlink:href="/develop/Data/models.html#updater" xlink:title="Updater" target="_top">
<polygon fill="#eeefff" stroke="#dddeee" points="389.13,-236 329.63,-236 329.63,-200 389.13,-200 389.13,-236"/>
<text text-anchor="middle" x="359.38" y="-212.95" font-family="Times,serif" font-size="14.00">Updater</text>
</a>
</g>
</g>
<!-- Objects with Roles -->
<g id="node9" class="node">
<title>Objects with Roles</title>
<g id="a_node9"><a xlink:href="/develop/Data/models.html#objects with role" xlink:title="Objects with Roles" target="_top">
<polygon fill="#cdabef" stroke="#dedede" points="293.63,-18 246.55,-36 152.39,-36 105.31,-18 152.39,0 246.55,0 293.63,-18"/>
<text text-anchor="middle" x="199.47" y="-12.95" font-family="Times,serif" font-size="14.00">Objects with Roles</text>
</a>
</g>
</g>
</g>
</svg>
