<?xml version="1.0" encoding="UTF-8" standalone="no"?>
<!DOCTYPE svg PUBLIC "-//W3C//DTD SVG 1.1//EN"
 "http://www.w3.org/Graphics/SVG/1.1/DTD/svg11.dtd">
<!-- Generated by graphviz version 2.50.0 (20211204.2007)
 -->
<!-- Title: Sequence Pages: 1 -->
<svg width="1098pt" height="881pt"
 viewBox="0.00 0.00 1098.28 880.53" xmlns="http://www.w3.org/2000/svg" xmlns:xlink="http://www.w3.org/1999/xlink">
<g id="graph0" class="graph" transform="scale(1 1) rotate(0) translate(4 876.53)">
<title>Sequence</title>
<polygon fill="white" stroke="transparent" points="-4,4 -4,-876.53 1094.28,-876.53 1094.28,4 -4,4"/>
<!-- AlternateValue&#45;&gt;AlternateValueLanguage -->
<g id="edge1" class="edge">
<title>AlternateValue&#45;&gt;AlternateValueLanguage</title>
<path fill="none" stroke="black" stroke-dasharray="1,5" d="M149.07,-573.53C164.01,-573.53 180.19,-573.53 195.94,-573.53"/>
<polygon fill="black" stroke="black" points="196.2,-577.03 206.2,-573.53 196.2,-570.03 196.2,-577.03"/>
</g>
<!-- Confidence&#45;&gt;ConfidenceLevel -->
<g id="edge5" class="edge">
<title>Confidence&#45;&gt;ConfidenceLevel</title>
<path fill="none" stroke="black" stroke-dasharray="1,5" d="M136.01,-519.53C160.58,-519.53 190.47,-519.53 216.71,-519.53"/>
<polygon fill="black" stroke="black" points="216.94,-523.03 226.94,-519.53 216.94,-516.03 216.94,-523.03"/>
</g>
<!-- Tag&#45;&gt;Keyword -->
<g id="edge15" class="edge">
<title>Tag&#45;&gt;Keyword</title>
<path fill="none" stroke="black" stroke-dasharray="1,5" d="M112.39,-303.53C144.55,-303.53 199.46,-303.53 237.81,-303.53"/>
<polygon fill="black" stroke="black" points="238.15,-307.03 248.15,-303.53 238.15,-300.03 238.15,-307.03"/>
</g>
<!-- ProtocolRelationship&#45;&gt;Protocol -->
<g id="edge25" class="edge">
<title>ProtocolRelationship&#45;&gt;Protocol</title>
<path fill="none" stroke="black" stroke-dasharray="1,5" d="M170.38,-249.53C194.71,-249.53 220.14,-249.53 240.46,-249.53"/>
<polygon fill="black" stroke="black" points="240.58,-253.03 250.58,-249.53 240.58,-246.03 240.58,-253.03"/>
</g>
<!-- Sequence&#45;&gt;AlternateValue -->
<g id="edge2" class="edge">
<title>Sequence&#45;&gt;AlternateValue</title>
<path fill="none" stroke="black" d="M259.26,-433.05C243.84,-448.92 222.93,-471.34 206.28,-492.53 188.47,-515.21 193.31,-529.15 170.28,-546.53 163.26,-551.83 155.15,-556.12 146.8,-559.57"/>
<polygon fill="black" stroke="black" points="145.45,-556.34 137.32,-563.13 147.91,-562.89 145.45,-556.34"/>
</g>
<!-- Sequence&#45;&gt;Confidence -->
<g id="edge6" class="edge">
<title>Sequence&#45;&gt;Confidence</title>
<path fill="none" stroke="black" d="M257.26,-432.28C235.84,-450.29 202.71,-476 170.28,-492.53 159.82,-497.86 148.09,-502.42 136.78,-506.19"/>
<polygon fill="black" stroke="black" points="135.47,-502.94 127,-509.3 137.59,-509.61 135.47,-502.94"/>
</g>
<!-- Sequence&#45;&gt;DataAttribute -->
<g id="edge7" class="edge">
<title>Sequence&#45;&gt;DataAttribute</title>
<path fill="none" stroke="black" d="M235.68,-424.04C206.91,-432.02 169.49,-442.4 139.29,-450.78"/>
<polygon fill="black" stroke="black" points="138.04,-447.5 129.34,-453.54 139.91,-454.24 138.04,-447.5"/>
</g>
<!-- Sequence&#45;&gt;Identifier -->
<g id="edge14" class="edge">
<title>Sequence&#45;&gt;Identifier</title>
<path fill="none" stroke="black" d="M230,-411.53C201.85,-411.53 166.91,-411.53 138.52,-411.53"/>
<polygon fill="black" stroke="black" points="138.38,-408.03 128.38,-411.53 138.38,-415.03 138.38,-408.03"/>
</g>
<!-- Sequence&#45;&gt;Tag -->
<g id="edge36" class="edge">
<title>Sequence&#45;&gt;Tag</title>
<path fill="none" stroke="black" d="M257.26,-390.77C235.84,-372.76 202.71,-347.06 170.28,-330.53 154.7,-322.58 136.31,-316.36 120.7,-311.9"/>
<polygon fill="black" stroke="black" points="121.47,-308.48 110.9,-309.22 119.62,-315.23 121.47,-308.48"/>
</g>
<!-- Sequence&#45;&gt;Note -->
<g id="edge16" class="edge">
<title>Sequence&#45;&gt;Note</title>
<path fill="none" stroke="black" d="M235.77,-399.04C200.83,-389.34 153.09,-376.1 121.02,-367.2"/>
<polygon fill="black" stroke="black" points="121.76,-363.78 111.19,-364.48 119.89,-370.52 121.76,-363.78"/>
</g>
<!-- Sequence&#45;&gt;ProtocolRelationship -->
<g id="edge24" class="edge">
<title>Sequence&#45;&gt;ProtocolRelationship</title>
<path fill="none" stroke="black" d="M259.26,-390C243.84,-374.13 222.93,-351.71 206.28,-330.53 188.47,-307.84 193.31,-293.91 170.28,-276.53 165.22,-272.7 159.6,-269.41 153.73,-266.58"/>
<polygon fill="black" stroke="black" points="154.92,-263.28 144.35,-262.5 152.12,-269.7 154.92,-263.28"/>
</g>
<!-- Sequence&#45;&gt;BlastQuerySequenceRelationship -->
<g id="edge3" class="edge">
<title>Sequence&#45;&gt;BlastQuerySequenceRelationship</title>
<path fill="none" stroke="black" d="M308.34,-431.68C325.25,-446.56 346.26,-468.36 357.28,-492.53 386.89,-557.43 348.23,-756.22 393.28,-811.53 400.01,-819.78 408.35,-826.47 417.54,-831.88"/>
<polygon fill="black" stroke="black" points="416.12,-835.09 426.59,-836.69 419.4,-828.91 416.12,-835.09"/>
</g>
<!-- Sequence&#45;&gt;OriginRelationship -->
<g id="edge20" class="edge">
<title>Sequence&#45;&gt;OriginRelationship</title>
<path fill="none" stroke="black" d="M307.79,-431.45C324.67,-446.38 345.88,-468.33 357.28,-492.53 407.04,-598.04 315.07,-665.97 393.28,-752.53 409.07,-769.99 432.63,-778.69 455.47,-782.8"/>
<polygon fill="black" stroke="black" points="455.13,-786.29 465.54,-784.34 456.18,-779.37 455.13,-786.29"/>
</g>
<!-- Sequence&#45;&gt;Documentation -->
<g id="edge9" class="edge">
<title>Sequence&#45;&gt;Documentation</title>
<path fill="none" stroke="black" d="M307.29,-431.69C323.93,-446.74 345.07,-468.73 357.28,-492.53 393.16,-562.39 337.68,-610.07 393.28,-665.53 411.92,-684.11 439.71,-691.56 464.94,-694.07"/>
<polygon fill="black" stroke="black" points="464.96,-697.58 475.2,-694.84 465.49,-690.6 464.96,-697.58"/>
</g>
<!-- Sequence&#45;&gt;ForwardPrimerRelationship -->
<g id="edge11" class="edge">
<title>Sequence&#45;&gt;ForwardPrimerRelationship</title>
<path fill="none" stroke="black" d="M306.64,-432.04C322.99,-447.25 344.02,-469.3 357.28,-492.53 384.68,-540.51 352.47,-574.28 393.28,-611.53 404.12,-621.42 417.59,-628.08 431.73,-632.5"/>
<polygon fill="black" stroke="black" points="431.03,-635.94 441.6,-635.21 432.89,-629.19 431.03,-635.94"/>
</g>
<!-- Sequence&#45;&gt;GeneAttribute -->
<g id="edge13" class="edge">
<title>Sequence&#45;&gt;GeneAttribute</title>
<path fill="none" stroke="black" d="M304.84,-432.65C320.53,-448.32 341.53,-470.67 357.28,-492.53 376.6,-519.31 366.67,-537.97 393.28,-557.53 414.83,-573.36 443.46,-580.42 468.51,-583.4"/>
<polygon fill="black" stroke="black" points="468.33,-586.9 478.63,-584.41 469.03,-579.93 468.33,-586.9"/>
</g>
<!-- Sequence&#45;&gt;RelatedOriginRelationship -->
<g id="edge28" class="edge">
<title>Sequence&#45;&gt;RelatedOriginRelationship</title>
<path fill="none" stroke="black" d="M307.64,-431.52C324.45,-446.48 345.64,-468.45 357.28,-492.53 401.76,-584.49 317.75,-650.76 393.28,-719.53 440.49,-762.5 617.71,-759.71 727.54,-753.39"/>
<polygon fill="black" stroke="black" points="727.85,-756.88 737.62,-752.79 727.43,-749.89 727.85,-756.88"/>
</g>
<!-- Sequence&#45;&gt;PinboardItem -->
<g id="edge23" class="edge">
<title>Sequence&#45;&gt;PinboardItem</title>
<path fill="none" stroke="black" d="M313.15,-429.59C334.78,-441.63 364.92,-456.8 393.28,-465.53 507.01,-500.52 540.73,-485.12 658.28,-503.53 692.95,-508.95 731.79,-515.54 762.4,-520.85"/>
<polygon fill="black" stroke="black" points="761.99,-524.33 772.44,-522.59 763.19,-517.43 761.99,-524.33"/>
</g>
<!-- Sequence&#45;&gt;ReferenceSequenceForAssemblyRelationship -->
<g id="edge26" class="edge">
<title>Sequence&#45;&gt;ReferenceSequenceForAssemblyRelationship</title>
<path fill="none" stroke="black" d="M333.52,-417.19C348.23,-418.83 365.07,-420.71 382.51,-422.65"/>
<polygon fill="black" stroke="black" points="382.51,-426.17 392.84,-423.81 383.29,-419.22 382.51,-426.17"/>
</g>
<!-- Sequence&#45;&gt;RelatedSequenceRelationship -->
<g id="edge29" class="edge">
<title>Sequence&#45;&gt;RelatedSequenceRelationship</title>
<path fill="none" stroke="black" d="M333.52,-405.87C360.4,-402.87 394.38,-399.08 426.21,-395.52"/>
<polygon fill="black" stroke="black" points="426.9,-398.97 436.45,-394.38 426.13,-392.01 426.9,-398.97"/>
</g>
<!-- Sequence&#45;&gt;ReversePrimerRelationship -->
<g id="edge31" class="edge">
<title>Sequence&#45;&gt;ReversePrimerRelationship</title>
<path fill="none" stroke="black" d="M313.8,-393.74C335.46,-381.98 365.39,-367.03 393.28,-357.53 405.77,-353.27 419.15,-349.58 432.44,-346.41"/>
<polygon fill="black" stroke="black" points="433.59,-349.73 442.56,-344.08 432.03,-342.91 433.59,-349.73"/>
</g>
<!-- Sequence&#45;&gt;Role -->
<g id="edge33" class="edge">
<title>Sequence&#45;&gt;Role</title>
<path fill="none" stroke="black" d="M305.77,-390.48C321.7,-375.02 342.61,-352.89 357.28,-330.53 378.9,-297.59 362.59,-274.22 393.28,-249.53 420.13,-227.93 459.83,-222.27 488.58,-221.35"/>
<polygon fill="black" stroke="black" points="488.68,-224.84 498.63,-221.2 488.58,-217.85 488.68,-224.84"/>
</g>
<!-- Sequence&#45;&gt;SequenceRelationship -->
<g id="edge34" class="edge">
<title>Sequence&#45;&gt;SequenceRelationship</title>
<path fill="none" stroke="black" d="M301.12,-389.43C318.1,-372.33 342.85,-347.82 357.28,-321.53 387.17,-267.09 348.12,-229.14 393.28,-186.53 407.86,-172.78 427.48,-165.22 447.1,-161.58"/>
<polygon fill="black" stroke="black" points="447.67,-165.03 457.03,-160.06 446.62,-158.11 447.67,-165.03"/>
</g>
<!-- Sequence&#45;&gt;VerifierRole -->
<g id="edge37" class="edge">
<title>Sequence&#45;&gt;VerifierRole</title>
<path fill="none" stroke="black" d="M302.75,-389.24C328.53,-360.96 372.56,-314.54 393.28,-303.53 418.07,-290.36 448.63,-283.61 474.05,-280.15"/>
<polygon fill="black" stroke="black" points="474.74,-283.59 484.24,-278.9 473.89,-276.64 474.74,-283.59"/>
</g>
<!-- Sequence&#45;&gt;Version -->
<g id="edge39" class="edge">
<title>Sequence&#45;&gt;Version</title>
<path fill="none" stroke="black" d="M304.11,-432.97C325.06,-452.83 358.81,-481.75 393.28,-498.53 422.85,-512.91 459.38,-521.13 486.43,-525.63"/>
<polygon fill="black" stroke="black" points="486.24,-529.14 496.66,-527.23 487.32,-522.22 486.24,-529.14"/>
</g>
<!-- Sequence&#45;&gt;Creator -->
<g id="edge40" class="edge">
<title>Sequence&#45;&gt;Creator</title>
<path fill="none" stroke="black" stroke-dasharray="5,2" d="M315.96,-384.24C331.1,-369.89 347.74,-351.03 357.28,-330.53 383.84,-273.45 346.03,-91.12 393.28,-49.53 508.18,51.59 715.38,-28.95 789.77,-63.1"/>
<polygon fill="black" stroke="black" points="313.24,-381.99 308.22,-391.32 317.96,-387.15 313.24,-381.99"/>
</g>
<!-- Sequence&#45;&gt;Project -->
<g id="edge41" class="edge">
<title>Sequence&#45;&gt;Project</title>
<path fill="none" stroke="black" stroke-dasharray="5,2" d="M315.34,-384.41C330.49,-369.99 347.33,-351.02 357.28,-330.53 400.96,-240.62 325.41,-181.91 393.28,-108.53 420.01,-79.63 468.06,-74.85 498.09,-75"/>
<polygon fill="black" stroke="black" points="312.6,-382.18 307.61,-391.53 317.34,-387.33 312.6,-382.18"/>
</g>
<!-- Sequence&#45;&gt;Updater -->
<g id="edge42" class="edge">
<title>Sequence&#45;&gt;Updater</title>
<path fill="none" stroke="black" stroke-dasharray="5,2" d="M315.1,-384.29C330.19,-369.84 347.05,-350.88 357.28,-330.53 395.7,-254.13 329.33,-198.29 393.28,-141.53 439.02,-100.94 882.11,-114.4 942.28,-103.53 963.37,-99.72 986.5,-92.81 1004.17,-86.94"/>
<polygon fill="black" stroke="black" points="312.36,-382.06 307.41,-391.43 317.12,-387.19 312.36,-382.06"/>
</g>
<!-- BlastQuerySequenceRelationship&#45;&gt;BlastQuerySequenceSequence -->
<g id="edge4" class="edge">
<title>BlastQuerySequenceRelationship&#45;&gt;BlastQuerySequenceSequence</title>
<path fill="none" stroke="black" stroke-dasharray="1,5" d="M625.13,-854.53C654.58,-854.53 686.91,-854.53 716.51,-854.53"/>
<polygon fill="black" stroke="black" points="716.86,-858.03 726.86,-854.53 716.86,-851.03 716.86,-858.03"/>
</g>
<!-- OriginRelationship&#45;&gt;DerivedSequence -->
<g id="edge8" class="edge">
<title>OriginRelationship&#45;&gt;DerivedSequence</title>
<path fill="none" stroke="black" stroke-dasharray="1,5" d="M585.92,-787.78C634.19,-790.44 702.31,-794.19 752.14,-796.94"/>
<polygon fill="black" stroke="black" points="751.99,-800.44 762.16,-797.49 752.37,-793.45 751.99,-800.44"/>
</g>
<!-- OriginRelationship&#45;&gt;RelatedOriginRelationship -->
<!-- Documentation&#45;&gt;Document -->
<g id="edge10" class="edge">
<title>Documentation&#45;&gt;Document</title>
<path fill="none" stroke="black" stroke-dasharray="1,5" d="M576.39,-692.53C630.93,-692.53 717.86,-692.53 771.03,-692.53"/>
<polygon fill="black" stroke="black" points="771.19,-696.03 781.19,-692.53 771.19,-689.03 771.19,-696.03"/>
</g>
<!-- ForwardPrimerRelationship&#45;&gt;ForwardPrimerSequence -->
<g id="edge12" class="edge">
<title>ForwardPrimerRelationship&#45;&gt;ForwardPrimerSequence</title>
<path fill="none" stroke="black" stroke-dasharray="1,5" d="M610.03,-638.53C648.2,-638.53 693.4,-638.53 731.83,-638.53"/>
<polygon fill="black" stroke="black" points="731.97,-642.03 741.97,-638.53 731.97,-635.03 731.97,-642.03"/>
</g>
<!-- RelatedOriginRelationship&#45;&gt;OriginExtract -->
<g id="edge17" class="edge">
<title>RelatedOriginRelationship&#45;&gt;OriginExtract</title>
<path fill="none" stroke="black" stroke-dasharray="1,5" d="M898.88,-729.94C913.37,-726.67 928.31,-723.13 942.28,-719.53 954.13,-716.47 966.75,-712.92 978.71,-709.42"/>
<polygon fill="black" stroke="black" points="979.97,-712.69 988.57,-706.49 977.98,-705.98 979.97,-712.69"/>
</g>
<!-- RelatedOriginRelationship&#45;&gt;OriginLot -->
<g id="edge18" class="edge">
<title>RelatedOriginRelationship&#45;&gt;OriginLot</title>
<path fill="none" stroke="black" stroke-dasharray="1,5" d="M899.07,-738.33C914.3,-734.26 929.47,-728.28 942.28,-719.53 966.1,-703.25 956.59,-684.54 978.28,-665.53 981.75,-662.49 985.63,-659.7 989.66,-657.17"/>
<polygon fill="black" stroke="black" points="991.72,-660.03 998.68,-652.05 988.26,-653.95 991.72,-660.03"/>
</g>
<!-- RelatedOriginRelationship&#45;&gt;OriginRangedLot -->
<g id="edge19" class="edge">
<title>RelatedOriginRelationship&#45;&gt;OriginRangedLot</title>
<path fill="none" stroke="black" stroke-dasharray="1,5" d="M899.07,-754.73C914.3,-758.79 929.47,-764.77 942.28,-773.53 966.1,-789.8 956.59,-808.52 978.28,-827.53 979.58,-828.66 980.93,-829.76 982.32,-830.82"/>
<polygon fill="black" stroke="black" points="980.45,-833.78 990.68,-836.51 984.39,-827.99 980.45,-833.78"/>
</g>
<!-- RelatedOriginRelationship&#45;&gt;OriginSequence -->
<g id="edge21" class="edge">
<title>RelatedOriginRelationship&#45;&gt;OriginSequence</title>
<path fill="none" stroke="black" stroke-dasharray="1,5" d="M898.88,-763.12C913.37,-766.39 928.31,-769.92 942.28,-773.53 951.98,-776.03 962.2,-778.86 972.14,-781.73"/>
<polygon fill="black" stroke="black" points="971.39,-785.15 981.97,-784.6 973.35,-778.43 971.39,-785.15"/>
</g>
<!-- RelatedOriginRelationship&#45;&gt;OriginSpecimen -->
<g id="edge22" class="edge">
<title>RelatedOriginRelationship&#45;&gt;OriginSpecimen</title>
<path fill="none" stroke="black" stroke-dasharray="1,5" d="M898.97,-746.53C922.78,-746.53 948.51,-746.53 971.03,-746.53"/>
<polygon fill="black" stroke="black" points="971.13,-750.03 981.13,-746.53 971.13,-743.03 971.13,-750.03"/>
</g>
<!-- ReferenceSequenceForAssemblyRelationship&#45;&gt;ReferenceSequenceForAssemblySequence -->
<g id="edge27" class="edge">
<title>ReferenceSequenceForAssemblyRelationship&#45;&gt;ReferenceSequenceForAssemblySequence</title>
<path fill="none" stroke="black" stroke-dasharray="1,5" d="M658.44,-438.53C666.87,-438.53 675.36,-438.53 683.8,-438.53"/>
<polygon fill="black" stroke="black" points="684.06,-442.03 694.06,-438.53 684.06,-435.03 684.06,-442.03"/>
</g>
<!-- RelatedSequenceRelationship&#45;&gt;RelatedSequence -->
<g id="edge30" class="edge">
<title>RelatedSequenceRelationship&#45;&gt;RelatedSequence</title>
<path fill="none" stroke="black" stroke-dasharray="1,5" d="M615.13,-384.53C659.6,-384.53 712.53,-384.53 753.07,-384.53"/>
<polygon fill="black" stroke="black" points="753.1,-388.03 763.1,-384.53 753.1,-381.03 753.1,-388.03"/>
</g>
<!-- ReversePrimerRelationship&#45;&gt;ReversePrimerSequence -->
<g id="edge32" class="edge">
<title>ReversePrimerRelationship&#45;&gt;ReversePrimerSequence</title>
<path fill="none" stroke="black" stroke-dasharray="1,5" d="M608.87,-330.53C647.68,-330.53 693.96,-330.53 733.05,-330.53"/>
<polygon fill="black" stroke="black" points="733.34,-334.03 743.34,-330.53 733.34,-327.03 733.34,-334.03"/>
</g>
<!-- Role&#45;&gt;Verifier -->
<!-- SequenceRelationship&#45;&gt;Sequence -->
<g id="edge35" class="edge">
<title>SequenceRelationship&#45;&gt;Sequence</title>
<path fill="none" stroke="black" stroke-dasharray="1,5" d="M457.03,-176.97C434.25,-180.84 410.32,-188.45 393.28,-204.53 348.12,-247.14 387.17,-285.09 357.28,-339.53 347.83,-356.75 333.95,-373.2 320.73,-386.14"/>
<polygon fill="black" stroke="black" points="317.96,-383.94 313.06,-393.34 322.75,-389.05 317.96,-383.94"/>
</g>
<!-- VerifierRole&#45;&gt;Verifier -->
<g id="edge38" class="edge">
<title>VerifierRole&#45;&gt;Verifier</title>
<path fill="none" stroke="black" stroke-dasharray="1,5" d="M567.48,-272.74C623.82,-267.51 724.78,-258.12 779.51,-253.04"/>
<polygon fill="black" stroke="black" points="779.86,-256.52 789.5,-252.11 779.22,-249.55 779.86,-256.52"/>
</g>
<!-- Version&#45;&gt;PinboardItem -->
<!-- Creator&#45;&gt;Updater -->
<!-- Project&#45;&gt;Creator -->
<!-- AlternateValue -->
<g id="node1" class="node">
<title>AlternateValue</title>
<g id="a_node1"><a xlink:href="/develop/Data/models.html#alternate-value" xlink:title="AlternateValue" target="_top">
<ellipse fill="#abcdef" stroke="#dddeee" cx="85.14" cy="-573.53" rx="63.89" ry="18"/>
<text text-anchor="middle" x="85.14" y="-569.83" font-family="Times,serif" font-size="14.00">AlternateValue</text>
</a>
</g>
</g>
<!-- Confidence -->
<g id="node2" class="node">
<title>Confidence</title>
<g id="a_node2"><a xlink:href="/develop/Data/models.html#confidence" xlink:title="Confidence" target="_top">
<ellipse fill="#abcdef" stroke="#dddeee" cx="85.14" cy="-519.53" rx="50.89" ry="18"/>
<text text-anchor="middle" x="85.14" y="-515.83" font-family="Times,serif" font-size="14.00">Confidence</text>
</a>
</g>
</g>
<!-- DataAttribute -->
<g id="node3" class="node">
<title>DataAttribute</title>
<g id="a_node3"><a xlink:href="/develop/Data/models.html#data-attribute" xlink:title="DataAttribute" target="_top">
<ellipse fill="#abcdef" stroke="#dddeee" cx="85.14" cy="-465.53" rx="59.29" ry="18"/>
<text text-anchor="middle" x="85.14" y="-461.83" font-family="Times,serif" font-size="14.00">DataAttribute</text>
</a>
</g>
</g>
<!-- Identifier -->
<g id="node4" class="node">
<title>Identifier</title>
<g id="a_node4"><a xlink:href="/develop/Data/models.html#identifier" xlink:title="Identifier" target="_top">
<ellipse fill="#abcdef" stroke="#dddeee" cx="85.14" cy="-411.53" rx="42.79" ry="18"/>
<text text-anchor="middle" x="85.14" y="-407.83" font-family="Times,serif" font-size="14.00">Identifier</text>
</a>
</g>
</g>
<!-- Tag -->
<g id="node5" class="node">
<title>Tag</title>
<g id="a_node5"><a xlink:href="/develop/Data/models.html#tag" xlink:title="Tag" target="_top">
<ellipse fill="#abcdef" stroke="#dddeee" cx="85.14" cy="-303.53" rx="27" ry="18"/>
<text text-anchor="middle" x="85.14" y="-299.83" font-family="Times,serif" font-size="14.00">Tag</text>
</a>
</g>
</g>
<!-- Note -->
<g id="node6" class="node">
<title>Note</title>
<g id="a_node6"><a xlink:href="/develop/Data/models.html#note" xlink:title="Note" target="_top">
<ellipse fill="#abcdef" stroke="#dddeee" cx="85.14" cy="-357.53" rx="27.9" ry="18"/>
<text text-anchor="middle" x="85.14" y="-353.83" font-family="Times,serif" font-size="14.00">Note</text>
</a>
</g>
</g>
<!-- ProtocolRelationship -->
<g id="node7" class="node">
<title>ProtocolRelationship</title>
<g id="a_node7"><a xlink:href="/develop/Data/models.html#protocol-relationship" xlink:title="ProtocolRelationship" target="_top">
<ellipse fill="#abcdef" stroke="#dddeee" cx="85.14" cy="-249.53" rx="85.29" ry="18"/>
<text text-anchor="middle" x="85.14" y="-245.83" font-family="Times,serif" font-size="14.00">ProtocolRelationship</text>
</a>
</g>
</g>
<!-- Sequence -->
<g id="node8" class="node">
<title>Sequence</title>
<g id="a_node8"><a xlink:href="/develop/Data/models.html#sequence" xlink:title="Sequence" target="_top">
<polygon fill="#cdefab" stroke="#dedede" points="329.47,-404.07 329.47,-418.98 301.54,-429.53 262.03,-429.53 234.1,-418.98 234.1,-404.07 262.03,-393.53 301.54,-393.53 329.47,-404.07"/>
<polygon fill="none" stroke="#dedede" points="333.46,-401.3 333.46,-421.75 302.26,-433.53 261.31,-433.53 230.11,-421.75 230.11,-401.3 261.31,-389.53 302.26,-389.53 333.46,-401.3"/>
<text text-anchor="middle" x="281.78" y="-407.83" font-family="Times,serif" font-size="14.00">Sequence</text>
</a>
</g>
</g>
<!-- AlternateValueLanguage -->
<g id="node9" class="node">
<title>AlternateValueLanguage</title>
<g id="a_node9"><a xlink:href="/develop/Data/models.html#alternate-value-language" xlink:title="AlternateValueLanguage" target="_top">
<polygon fill="#eeefff" stroke="#dddeee" points="357.28,-591.53 206.28,-591.53 206.28,-555.53 357.28,-555.53 357.28,-591.53"/>
<text text-anchor="middle" x="281.78" y="-569.83" font-family="Times,serif" font-size="14.00">AlternateValueLanguage</text>
</a>
</g>
</g>
<!-- BlastQuerySequenceRelationship -->
<g id="node10" class="node">
<title>BlastQuerySequenceRelationship</title>
<g id="a_node10"><a xlink:href="/develop/Data/models.html#blast-query-sequence-relationship" xlink:title="BlastQuerySequenceRelationship" target="_top">
<polygon fill="#eeefff" stroke="#dddeee" points="624.78,-872.53 426.78,-872.53 426.78,-836.53 624.78,-836.53 624.78,-872.53"/>
<text text-anchor="middle" x="525.78" y="-850.83" font-family="Times,serif" font-size="14.00">BlastQuerySequenceRelationship</text>
</a>
</g>
</g>
<!-- BlastQuerySequenceSequence -->
<g id="node11" class="node">
<title>BlastQuerySequenceSequence</title>
<g id="a_node11"><a xlink:href="/develop/Data/models.html#blast-query-sequence-sequence" xlink:title="BlastQuerySequenceSequence" target="_top">
<polygon fill="#eeefff" stroke="#dddeee" points="909.28,-872.53 727.28,-872.53 727.28,-836.53 909.28,-836.53 909.28,-872.53"/>
<text text-anchor="middle" x="818.28" y="-850.83" font-family="Times,serif" font-size="14.00">BlastQuerySequenceSequence</text>
</a>
</g>
</g>
<!-- ConfidenceLevel -->
<g id="node12" class="node">
<title>ConfidenceLevel</title>
<g id="a_node12"><a xlink:href="/develop/Data/models.html#confidence-level" xlink:title="ConfidenceLevel" target="_top">
<polygon fill="#eeefff" stroke="#dddeee" points="336.28,-537.53 227.28,-537.53 227.28,-501.53 336.28,-501.53 336.28,-537.53"/>
<text text-anchor="middle" x="281.78" y="-515.83" font-family="Times,serif" font-size="14.00">ConfidenceLevel</text>
</a>
</g>
</g>
<!-- OriginRelationship -->
<g id="node13" class="node">
<title>OriginRelationship</title>
<g id="a_node13"><a xlink:href="/develop/Data/models.html#origin-relationship" xlink:title="OriginRelationship" target="_top">
<polygon fill="#eeefff" stroke="#dddeee" points="585.78,-802.53 465.78,-802.53 465.78,-766.53 585.78,-766.53 585.78,-802.53"/>
<text text-anchor="middle" x="525.78" y="-780.83" font-family="Times,serif" font-size="14.00">OriginRelationship</text>
</a>
</g>
</g>
<!-- DerivedSequence -->
<g id="node14" class="node">
<title>DerivedSequence</title>
<g id="a_node14"><a xlink:href="/develop/Data/models.html#derived-sequence" xlink:title="DerivedSequence" target="_top">
<polygon fill="#eeefff" stroke="#dddeee" points="874.28,-818.53 762.28,-818.53 762.28,-782.53 874.28,-782.53 874.28,-818.53"/>
<text text-anchor="middle" x="818.28" y="-796.83" font-family="Times,serif" font-size="14.00">DerivedSequence</text>
</a>
</g>
</g>
<!-- Documentation -->
<g id="node15" class="node">
<title>Documentation</title>
<g id="a_node15"><a xlink:href="/develop/Data/models.html#documentation" xlink:title="Documentation" target="_top">
<polygon fill="#eeefff" stroke="#dddeee" points="576.28,-710.53 475.28,-710.53 475.28,-674.53 576.28,-674.53 576.28,-710.53"/>
<text text-anchor="middle" x="525.78" y="-688.83" font-family="Times,serif" font-size="14.00">Documentation</text>
</a>
</g>
</g>
<!-- Document -->
<g id="node16" class="node">
<title>Document</title>
<g id="a_node16"><a xlink:href="/develop/Data/models.html#document" xlink:title="Document" target="_top">
<polygon fill="#eeefff" stroke="#dddeee" points="855.28,-710.53 781.28,-710.53 781.28,-674.53 855.28,-674.53 855.28,-710.53"/>
<text text-anchor="middle" x="818.28" y="-688.83" font-family="Times,serif" font-size="14.00">Document</text>
</a>
</g>
</g>
<!-- ForwardPrimerRelationship -->
<g id="node17" class="node">
<title>ForwardPrimerRelationship</title>
<g id="a_node17"><a xlink:href="/develop/Data/models.html#forward-primer-relationship" xlink:title="ForwardPrimerRelationship" target="_top">
<polygon fill="#eeefff" stroke="#dddeee" points="609.78,-656.53 441.78,-656.53 441.78,-620.53 609.78,-620.53 609.78,-656.53"/>
<text text-anchor="middle" x="525.78" y="-634.83" font-family="Times,serif" font-size="14.00">ForwardPrimerRelationship</text>
</a>
</g>
</g>
<!-- ForwardPrimerSequence -->
<g id="node18" class="node">
<title>ForwardPrimerSequence</title>
<g id="a_node18"><a xlink:href="/develop/Data/models.html#forward-primer-sequence" xlink:title="ForwardPrimerSequence" target="_top">
<polygon fill="#eeefff" stroke="#dddeee" points="894.28,-656.53 742.28,-656.53 742.28,-620.53 894.28,-620.53 894.28,-656.53"/>
<text text-anchor="middle" x="818.28" y="-634.83" font-family="Times,serif" font-size="14.00">ForwardPrimerSequence</text>
</a>
</g>
</g>
<!-- GeneAttribute -->
<g id="node19" class="node">
<title>GeneAttribute</title>
<g id="a_node19"><a xlink:href="/develop/Data/models.html#gene-attribute" xlink:title="GeneAttribute" target="_top">
<polygon fill="#eeefff" stroke="#dddeee" points="572.78,-602.53 478.78,-602.53 478.78,-566.53 572.78,-566.53 572.78,-602.53"/>
<text text-anchor="middle" x="525.78" y="-580.83" font-family="Times,serif" font-size="14.00">GeneAttribute</text>
</a>
</g>
</g>
<!-- Keyword -->
<g id="node20" class="node">
<title>Keyword</title>
<g id="a_node20"><a xlink:href="/develop/Data/models.html#keyword" xlink:title="Keyword" target="_top">
<polygon fill="#eeefff" stroke="#dddeee" points="315.28,-321.53 248.28,-321.53 248.28,-285.53 315.28,-285.53 315.28,-321.53"/>
<text text-anchor="middle" x="281.78" y="-299.83" font-family="Times,serif" font-size="14.00">Keyword</text>
</a>
</g>
</g>
<!-- RelatedOriginRelationship -->
<g id="node21" class="node">
<title>RelatedOriginRelationship</title>
<g id="a_node21"><a xlink:href="/develop/Data/models.html#related-origin-relationship" xlink:title="RelatedOriginRelationship" target="_top">
<polygon fill="#eeefff" stroke="#dddeee" points="898.78,-764.53 737.78,-764.53 737.78,-728.53 898.78,-728.53 898.78,-764.53"/>
<text text-anchor="middle" x="818.28" y="-742.83" font-family="Times,serif" font-size="14.00">RelatedOriginRelationship</text>
</a>
</g>
</g>
<!-- OriginExtract -->
<g id="node22" class="node">
<title>OriginExtract</title>
<g id="a_node22"><a xlink:href="/develop/Data/models.html#origin-extract" xlink:title="OriginExtract" target="_top">
<polygon fill="#eeefff" stroke="#dddeee" points="1079.78,-710.53 988.78,-710.53 988.78,-674.53 1079.78,-674.53 1079.78,-710.53"/>
<text text-anchor="middle" x="1034.28" y="-688.83" font-family="Times,serif" font-size="14.00">OriginExtract</text>
</a>
</g>
</g>
<!-- OriginLot -->
<g id="node23" class="node">
<title>OriginLot</title>
<g id="a_node23"><a xlink:href="/develop/Data/models.html#origin-lot" xlink:title="OriginLot" target="_top">
<polygon fill="#eeefff" stroke="#dddeee" points="1069.78,-656.53 998.78,-656.53 998.78,-620.53 1069.78,-620.53 1069.78,-656.53"/>
<text text-anchor="middle" x="1034.28" y="-634.83" font-family="Times,serif" font-size="14.00">OriginLot</text>
</a>
</g>
</g>
<!-- OriginRangedLot -->
<g id="node24" class="node">
<title>OriginRangedLot</title>
<g id="a_node24"><a xlink:href="/develop/Data/models.html#origin-ranged-lot" xlink:title="OriginRangedLot" target="_top">
<polygon fill="#eeefff" stroke="#dddeee" points="1090.28,-872.53 978.28,-872.53 978.28,-836.53 1090.28,-836.53 1090.28,-872.53"/>
<text text-anchor="middle" x="1034.28" y="-850.83" font-family="Times,serif" font-size="14.00">OriginRangedLot</text>
</a>
</g>
</g>
<!-- OriginSequence -->
<g id="node25" class="node">
<title>OriginSequence</title>
<g id="a_node25"><a xlink:href="/develop/Data/models.html#origin-sequence" xlink:title="OriginSequence" target="_top">
<polygon fill="#eeefff" stroke="#dddeee" points="1086.28,-818.53 982.28,-818.53 982.28,-782.53 1086.28,-782.53 1086.28,-818.53"/>
<text text-anchor="middle" x="1034.28" y="-796.83" font-family="Times,serif" font-size="14.00">OriginSequence</text>
</a>
</g>
</g>
<!-- OriginSpecimen -->
<g id="node26" class="node">
<title>OriginSpecimen</title>
<g id="a_node26"><a xlink:href="/develop/Data/models.html#origin-specimen" xlink:title="OriginSpecimen" target="_top">
<polygon fill="#eeefff" stroke="#dddeee" points="1087.28,-764.53 981.28,-764.53 981.28,-728.53 1087.28,-728.53 1087.28,-764.53"/>
<text text-anchor="middle" x="1034.28" y="-742.83" font-family="Times,serif" font-size="14.00">OriginSpecimen</text>
</a>
</g>
</g>
<!-- PinboardItem -->
<g id="node27" class="node">
<title>PinboardItem</title>
<g id="a_node27"><a xlink:href="/develop/Data/models.html#pinboard-item" xlink:title="PinboardItem" target="_top">
<polygon fill="#eeefff" stroke="#dddeee" points="863.78,-548.53 772.78,-548.53 772.78,-512.53 863.78,-512.53 863.78,-548.53"/>
<text text-anchor="middle" x="818.28" y="-526.83" font-family="Times,serif" font-size="14.00">PinboardItem</text>
</a>
</g>
</g>
<!-- Protocol -->
<g id="node28" class="node">
<title>Protocol</title>
<g id="a_node28"><a xlink:href="/develop/Data/models.html#protocol" xlink:title="Protocol" target="_top">
<polygon fill="#eeefff" stroke="#dddeee" points="312.78,-267.53 250.78,-267.53 250.78,-231.53 312.78,-231.53 312.78,-267.53"/>
<text text-anchor="middle" x="281.78" y="-245.83" font-family="Times,serif" font-size="14.00">Protocol</text>
</a>
</g>
</g>
<!-- ReferenceSequenceForAssemblyRelationship -->
<g id="node29" class="node">
<title>ReferenceSequenceForAssemblyRelationship</title>
<g id="a_node29"><a xlink:href="/develop/Data/models.html#reference-sequence-for-assembly-relationship" xlink:title="ReferenceSequenceForAssemblyRelationship" target="_top">
<polygon fill="#eeefff" stroke="#dddeee" points="658.28,-456.53 393.28,-456.53 393.28,-420.53 658.28,-420.53 658.28,-456.53"/>
<text text-anchor="middle" x="525.78" y="-434.83" font-family="Times,serif" font-size="14.00">ReferenceSequenceForAssemblyRelationship</text>
</a>
</g>
</g>
<!-- ReferenceSequenceForAssemblySequence -->
<g id="node30" class="node">
<title>ReferenceSequenceForAssemblySequence</title>
<g id="a_node30"><a xlink:href="/develop/Data/models.html#reference-sequence-for-assembly-sequence" xlink:title="ReferenceSequenceForAssemblySequence" target="_top">
<polygon fill="#eeefff" stroke="#dddeee" points="942.28,-456.53 694.28,-456.53 694.28,-420.53 942.28,-420.53 942.28,-456.53"/>
<text text-anchor="middle" x="818.28" y="-434.83" font-family="Times,serif" font-size="14.00">ReferenceSequenceForAssemblySequence</text>
</a>
</g>
</g>
<!-- RelatedSequenceRelationship -->
<g id="node31" class="node">
<title>RelatedSequenceRelationship</title>
<g id="a_node31"><a xlink:href="/develop/Data/models.html#related-sequence-relationship" xlink:title="RelatedSequenceRelationship" target="_top">
<polygon fill="#eeefff" stroke="#dddeee" points="614.78,-402.53 436.78,-402.53 436.78,-366.53 614.78,-366.53 614.78,-402.53"/>
<text text-anchor="middle" x="525.78" y="-380.83" font-family="Times,serif" font-size="14.00">RelatedSequenceRelationship</text>
</a>
</g>
</g>
<!-- RelatedSequence -->
<g id="node32" class="node">
<title>RelatedSequence</title>
<g id="a_node32"><a xlink:href="/develop/Data/models.html#related-sequence" xlink:title="RelatedSequence" target="_top">
<polygon fill="#eeefff" stroke="#dddeee" points="873.28,-402.53 763.28,-402.53 763.28,-366.53 873.28,-366.53 873.28,-402.53"/>
<text text-anchor="middle" x="818.28" y="-380.83" font-family="Times,serif" font-size="14.00">RelatedSequence</text>
</a>
</g>
</g>
<!-- ReversePrimerRelationship -->
<g id="node33" class="node">
<title>ReversePrimerRelationship</title>
<g id="a_node33"><a xlink:href="/develop/Data/models.html#reverse-primer-relationship" xlink:title="ReversePrimerRelationship" target="_top">
<polygon fill="#eeefff" stroke="#dddeee" points="608.78,-348.53 442.78,-348.53 442.78,-312.53 608.78,-312.53 608.78,-348.53"/>
<text text-anchor="middle" x="525.78" y="-326.83" font-family="Times,serif" font-size="14.00">ReversePrimerRelationship</text>
</a>
</g>
</g>
<!-- ReversePrimerSequence -->
<g id="node34" class="node">
<title>ReversePrimerSequence</title>
<g id="a_node34"><a xlink:href="/develop/Data/models.html#reverse-primer-sequence" xlink:title="ReversePrimerSequence" target="_top">
<polygon fill="#eeefff" stroke="#dddeee" points="892.78,-348.53 743.78,-348.53 743.78,-312.53 892.78,-312.53 892.78,-348.53"/>
<text text-anchor="middle" x="818.28" y="-326.83" font-family="Times,serif" font-size="14.00">ReversePrimerSequence</text>
</a>
</g>
</g>
<!-- Role -->
<g id="node35" class="node">
<title>Role</title>
<g id="a_node35"><a xlink:href="/develop/Data/models.html#role" xlink:title="Role" target="_top">
<polygon fill="#eeefff" stroke="#dddeee" points="552.78,-240.53 498.78,-240.53 498.78,-204.53 552.78,-204.53 552.78,-240.53"/>
<text text-anchor="middle" x="525.78" y="-218.83" font-family="Times,serif" font-size="14.00">Role</text>
</a>
</g>
</g>
<!-- SequenceRelationship -->
<g id="node36" class="node">
<title>SequenceRelationship</title>
<g id="a_node36"><a xlink:href="/develop/Data/models.html#sequence-relationship" xlink:title="SequenceRelationship" target="_top">
<polygon fill="#eeefff" stroke="#dddeee" points="594.28,-186.53 457.28,-186.53 457.28,-150.53 594.28,-150.53 594.28,-186.53"/>
<text text-anchor="middle" x="525.78" y="-164.83" font-family="Times,serif" font-size="14.00">SequenceRelationship</text>
</a>
</g>
</g>
<!-- VerifierRole -->
<g id="node37" class="node">
<title>VerifierRole</title>
<g id="a_node37"><a xlink:href="/develop/Data/models.html#verifier-role" xlink:title="VerifierRole" target="_top">
<polygon fill="#eeefff" stroke="#dddeee" points="567.28,-294.53 484.28,-294.53 484.28,-258.53 567.28,-258.53 567.28,-294.53"/>
<text text-anchor="middle" x="525.78" y="-272.83" font-family="Times,serif" font-size="14.00">VerifierRole</text>
</a>
</g>
</g>
<!-- Verifier -->
<g id="node38" class="node">
<title>Verifier</title>
<g id="a_node38"><a xlink:href="/develop/Data/models.html#verifier" xlink:title="Verifier" target="_top">
<polygon fill="#eeefff" stroke="#dddeee" points="846.78,-267.53 789.78,-267.53 789.78,-231.53 846.78,-231.53 846.78,-267.53"/>
<text text-anchor="middle" x="818.28" y="-245.83" font-family="Times,serif" font-size="14.00">Verifier</text>
</a>
</g>
</g>
<!-- Version -->
<g id="node39" class="node">
<title>Version</title>
<g id="a_node39"><a xlink:href="/develop/Data/models.html#version" xlink:title="Version" target="_top">
<polygon fill="#eeefff" stroke="#dddeee" points="554.78,-548.53 496.78,-548.53 496.78,-512.53 554.78,-512.53 554.78,-548.53"/>
<text text-anchor="middle" x="525.78" y="-526.83" font-family="Times,serif" font-size="14.00">Version</text>
</a>
</g>
</g>
<!-- Creator -->
<g id="node40" class="node">
<title>Creator</title>
<g id="a_node40"><a xlink:href="/develop/Data/models.html#creator" xlink:title="Creator" target="_top">
<polygon fill="#eeefff" stroke="#dddeee" points="846.78,-94.53 789.78,-94.53 789.78,-58.53 846.78,-58.53 846.78,-94.53"/>
<text text-anchor="middle" x="818.28" y="-72.83" font-family="Times,serif" font-size="14.00">Creator</text>
</a>
</g>
</g>
<!-- Project -->
<g id="node41" class="node">
<title>Project</title>
<g id="a_node41"><a xlink:href="/develop/Data/models.html#project" xlink:title="Project" target="_top">
<polygon fill="#eeefff" stroke="#dddeee" points="553.28,-94.53 498.28,-94.53 498.28,-58.53 553.28,-58.53 553.28,-94.53"/>
<text text-anchor="middle" x="525.78" y="-72.83" font-family="Times,serif" font-size="14.00">Project</text>
</a>
</g>
</g>
<!-- Updater -->
<g id="node42" class="node">
<title>Updater</title>
<g id="a_node42"><a xlink:href="/develop/Data/models.html#updater" xlink:title="Updater" target="_top">
<polygon fill="#eeefff" stroke="#dddeee" points="1064.28,-94.53 1004.28,-94.53 1004.28,-58.53 1064.28,-58.53 1064.28,-94.53"/>
<text text-anchor="middle" x="1034.28" y="-72.83" font-family="Times,serif" font-size="14.00">Updater</text>
</a>
</g>
</g>
</g>
</svg>
