<?xml version="1.0" encoding="UTF-8" standalone="no"?>
<!DOCTYPE svg PUBLIC "-//W3C//DTD SVG 1.1//EN"
 "http://www.w3.org/Graphics/SVG/1.1/DTD/svg11.dtd">
<!-- Generated by graphviz version 12.2.1 (20241206.2353)
 -->
<!-- Title: Sequence Pages: 1 -->
<svg width="1103pt" height="1097pt"
 viewBox="0.00 0.00 1102.93 1097.49" xmlns="http://www.w3.org/2000/svg" xmlns:xlink="http://www.w3.org/1999/xlink">
<g id="graph0" class="graph" transform="scale(1 1) rotate(0) translate(4 1093.49)">
<title>Sequence</title>
<polygon fill="white" stroke="none" points="-4,4 -4,-1093.49 1098.93,-1093.49 1098.93,4 -4,4"/>
<!-- AlternateValue&#45;&gt;AlternateValueLanguage -->
<g id="edge1" class="edge">
<title>AlternateValue&#45;&gt;AlternateValueLanguage</title>
<path fill="none" stroke="black" stroke-dasharray="1,5" d="M155.32,-682.49C170.25,-682.49 186.33,-682.49 201.96,-682.49"/>
<polygon fill="black" stroke="black" points="201.72,-685.99 211.72,-682.49 201.72,-678.99 201.72,-685.99"/>
</g>
<!-- Confidence&#45;&gt;ConfidenceLevel -->
<g id="edge5" class="edge">
<title>Confidence&#45;&gt;ConfidenceLevel</title>
<path fill="none" stroke="black" stroke-dasharray="1,5" d="M142.47,-628.49C167,-628.49 196.41,-628.49 222.32,-628.49"/>
<polygon fill="black" stroke="black" points="222.05,-631.99 232.05,-628.49 222.05,-624.99 222.05,-631.99"/>
</g>
<!-- Tag&#45;&gt;Keyword -->
<g id="edge17" class="edge">
<title>Tag&#45;&gt;Keyword</title>
<path fill="none" stroke="black" stroke-dasharray="1,5" d="M115.98,-412.49C148.63,-412.49 204.81,-412.49 243.95,-412.49"/>
<polygon fill="black" stroke="black" points="243.74,-415.99 253.74,-412.49 243.74,-408.99 243.74,-415.99"/>
</g>
<!-- ProtocolRelationship&#45;&gt;Protocol -->
<g id="edge27" class="edge">
<title>ProtocolRelationship&#45;&gt;Protocol</title>
<path fill="none" stroke="black" stroke-dasharray="1,5" d="M177.64,-358.49C201.34,-358.49 225.89,-358.49 245.76,-358.49"/>
<polygon fill="black" stroke="black" points="245.66,-361.99 255.66,-358.49 245.66,-354.99 245.66,-361.99"/>
</g>
<!-- Sequence&#45;&gt;AlternateValue -->
<g id="edge2" class="edge">
<title>Sequence&#45;&gt;AlternateValue</title>
<path fill="none" stroke="black" d="M265.82,-542.37C250.51,-558.23 229.88,-580.48 213.43,-601.49 195.64,-624.19 200.55,-638.25 177.43,-655.49 170.42,-660.71 162.39,-664.94 154.1,-668.35"/>
<polygon fill="black" stroke="black" points="153.1,-664.99 144.93,-671.73 155.52,-671.56 153.1,-664.99"/>
</g>
<!-- Sequence&#45;&gt;Confidence -->
<g id="edge6" class="edge">
<title>Sequence&#45;&gt;Confidence</title>
<path fill="none" stroke="black" d="M263.75,-541.7C242.43,-559.75 209.65,-585.27 177.43,-601.49 166.97,-606.76 155.28,-611.22 143.94,-614.92"/>
<polygon fill="black" stroke="black" points="143.19,-611.49 134.66,-617.78 145.25,-618.18 143.19,-611.49"/>
</g>
<!-- Sequence&#45;&gt;DataAttribute -->
<g id="edge7" class="edge">
<title>Sequence&#45;&gt;DataAttribute</title>
<path fill="none" stroke="black" d="M240.43,-533.35C211.87,-541.15 175.29,-551.13 145.32,-559.31"/>
<polygon fill="black" stroke="black" points="144.79,-555.83 136.07,-561.84 146.63,-562.58 144.79,-555.83"/>
</g>
<!-- Sequence&#45;&gt;Identifier -->
<g id="edge14" class="edge">
<title>Sequence&#45;&gt;Identifier</title>
<path fill="none" stroke="black" d="M234.16,-520.49C206.63,-520.49 173.09,-520.49 145.26,-520.49"/>
<polygon fill="black" stroke="black" points="145.63,-516.99 135.63,-520.49 145.63,-523.99 145.63,-516.99"/>
</g>
<!-- Sequence&#45;&gt;Tag -->
<g id="edge38" class="edge">
<title>Sequence&#45;&gt;Tag</title>
<path fill="none" stroke="black" d="M263.75,-499.28C242.43,-481.22 209.65,-455.71 177.43,-439.49 161.12,-431.28 141.85,-425.01 125.52,-420.59"/>
<polygon fill="black" stroke="black" points="126.79,-417.3 116.23,-418.2 125.04,-424.08 126.79,-417.3"/>
</g>
<!-- Sequence&#45;&gt;Note -->
<g id="edge18" class="edge">
<title>Sequence&#45;&gt;Note</title>
<path fill="none" stroke="black" d="M240.46,-507.63C205.48,-498.09 158.46,-485.25 126.29,-476.47"/>
<polygon fill="black" stroke="black" points="127.61,-473.2 117.04,-473.95 125.76,-479.96 127.61,-473.2"/>
</g>
<!-- Sequence&#45;&gt;ProtocolRelationship -->
<g id="edge26" class="edge">
<title>Sequence&#45;&gt;ProtocolRelationship</title>
<path fill="none" stroke="black" d="M265.82,-498.61C250.51,-482.75 229.88,-460.5 213.43,-439.49 195.64,-416.78 200.55,-402.73 177.43,-385.49 172.56,-381.86 167.19,-378.71 161.59,-375.98"/>
<polygon fill="black" stroke="black" points="163.25,-372.89 152.69,-372.11 160.46,-379.31 163.25,-372.89"/>
</g>
<!-- Sequence&#45;&gt;BlastQuerySequenceRelationship -->
<g id="edge3" class="edge">
<title>Sequence&#45;&gt;BlastQuerySequenceRelationship</title>
<path fill="none" stroke="black" d="M315.56,-540.89C332.41,-555.74 353.13,-577.39 363.68,-601.49 401.86,-688.72 340.62,-953.79 399.68,-1028.49 406.06,-1036.56 413.99,-1043.14 422.78,-1048.49"/>
<polygon fill="black" stroke="black" points="420.82,-1051.41 431.28,-1053.11 424.16,-1045.26 420.82,-1051.41"/>
</g>
<!-- Sequence&#45;&gt;OriginRelationship -->
<g id="edge22" class="edge">
<title>Sequence&#45;&gt;OriginRelationship</title>
<path fill="none" stroke="black" d="M315.45,-540.94C332.26,-555.8 352.97,-577.46 363.68,-601.49 397.13,-676.54 345.84,-907.42 399.68,-969.49 414.85,-986.98 437.84,-995.74 460.36,-999.89"/>
<polygon fill="black" stroke="black" points="459.78,-1003.35 470.19,-1001.4 460.84,-996.43 459.78,-1003.35"/>
</g>
<!-- Sequence&#45;&gt;Documentation -->
<g id="edge9" class="edge">
<title>Sequence&#45;&gt;Documentation</title>
<path fill="none" stroke="black" d="M315.23,-541.04C331.93,-555.95 352.61,-577.62 363.68,-601.49 416.65,-715.71 314.08,-790.15 399.68,-882.49 417.42,-901.63 444.83,-909.17 470.01,-911.61"/>
<polygon fill="black" stroke="black" points="469.65,-915.09 479.87,-912.29 470.14,-908.11 469.65,-915.09"/>
</g>
<!-- Sequence&#45;&gt;ForwardPrimerRelationship -->
<g id="edge11" class="edge">
<title>Sequence&#45;&gt;ForwardPrimerRelationship</title>
<path fill="none" stroke="black" d="M315,-541.15C331.61,-556.11 352.25,-577.79 363.68,-601.49 408.03,-693.5 329.12,-754.62 399.68,-828.49 409.78,-839.07 422.85,-846.08 436.81,-850.63"/>
<polygon fill="black" stroke="black" points="435.59,-853.93 446.16,-853.25 437.47,-847.19 435.59,-853.93"/>
</g>
<!-- Sequence&#45;&gt;GeneAttribute -->
<g id="edge13" class="edge">
<title>Sequence&#45;&gt;GeneAttribute</title>
<path fill="none" stroke="black" d="M314.64,-541.33C331.09,-556.36 351.69,-578.07 363.68,-601.49 399.46,-671.4 344.09,-719.01 399.68,-774.49 418.88,-793.65 447.83,-800.95 473.65,-803.23"/>
<polygon fill="black" stroke="black" points="473.16,-806.7 483.36,-803.83 473.59,-799.72 473.16,-806.7"/>
</g>
<!-- Sequence&#45;&gt;ImportAttribute -->
<g id="edge15" class="edge">
<title>Sequence&#45;&gt;ImportAttribute</title>
<path fill="none" stroke="black" d="M313.64,-541.35C329.84,-556.56 350.57,-578.46 363.68,-601.49 391.01,-649.51 358.87,-683.23 399.68,-720.49 418.35,-737.54 444.82,-744.97 469.1,-747.89"/>
<polygon fill="black" stroke="black" points="468.64,-751.36 478.93,-748.81 469.3,-744.39 468.64,-751.36"/>
</g>
<!-- Sequence&#45;&gt;InternalAttribute -->
<g id="edge16" class="edge">
<title>Sequence&#45;&gt;InternalAttribute</title>
<path fill="none" stroke="black" d="M311.82,-541.96C327.39,-557.63 348.1,-579.82 363.68,-601.49 382.96,-628.3 373.07,-646.93 399.68,-666.49 418.9,-680.62 443.79,-687.76 466.71,-691.25"/>
<polygon fill="black" stroke="black" points="466.26,-694.72 476.62,-692.52 467.15,-687.77 466.26,-694.72"/>
</g>
<!-- Sequence&#45;&gt;RelatedOriginRelationship -->
<g id="edge30" class="edge">
<title>Sequence&#45;&gt;RelatedOriginRelationship</title>
<path fill="none" stroke="black" d="M315.38,-540.97C332.16,-555.85 352.85,-577.51 363.68,-601.49 394.49,-669.73 345.6,-884.7 399.68,-936.49 423.09,-958.91 614.58,-963.26 731.79,-963.79"/>
<polygon fill="black" stroke="black" points="731.71,-967.29 741.73,-963.83 731.74,-960.29 731.71,-967.29"/>
</g>
<!-- Sequence&#45;&gt;PinboardItem -->
<g id="edge25" class="edge">
<title>Sequence&#45;&gt;PinboardItem</title>
<path fill="none" stroke="black" d="M320.75,-539.07C342.22,-551.03 371.8,-565.89 399.68,-574.49 513.05,-609.48 546.71,-594.1 663.93,-612.49 698.24,-617.87 736.63,-624.38 767.08,-629.66"/>
<polygon fill="black" stroke="black" points="766.39,-633.09 776.85,-631.36 767.59,-626.2 766.39,-633.09"/>
</g>
<!-- Sequence&#45;&gt;ReferenceSequenceForAssemblyRelationship -->
<g id="edge28" class="edge">
<title>Sequence&#45;&gt;ReferenceSequenceForAssemblyRelationship</title>
<path fill="none" stroke="black" d="M343.09,-526.48C356.85,-528.02 372.32,-529.75 388.32,-531.54"/>
<polygon fill="black" stroke="black" points="387.63,-534.99 397.96,-532.62 388.41,-528.03 387.63,-534.99"/>
</g>
<!-- Sequence&#45;&gt;RelatedSequenceRelationship -->
<g id="edge31" class="edge">
<title>Sequence&#45;&gt;RelatedSequenceRelationship</title>
<path fill="none" stroke="black" d="M343.09,-514.5C369.18,-511.58 401.4,-507.97 431.75,-504.57"/>
<polygon fill="black" stroke="black" points="431.77,-508.09 441.32,-503.5 430.99,-501.14 431.77,-508.09"/>
</g>
<!-- Sequence&#45;&gt;ReversePrimerRelationship -->
<g id="edge33" class="edge">
<title>Sequence&#45;&gt;ReversePrimerRelationship</title>
<path fill="none" stroke="black" d="M321.4,-502.19C342.91,-490.51 372.28,-475.86 399.68,-466.49 411.88,-462.32 424.94,-458.69 437.93,-455.56"/>
<polygon fill="black" stroke="black" points="438.37,-459.05 447.33,-453.39 436.8,-452.23 438.37,-459.05"/>
</g>
<!-- Sequence&#45;&gt;Role -->
<g id="edge35" class="edge">
<title>Sequence&#45;&gt;Role</title>
<path fill="none" stroke="black" d="M312.75,-499.09C328.56,-483.63 349.16,-461.66 363.68,-439.49 385.26,-406.53 368.99,-383.19 399.68,-358.49 426.01,-337.29 464.75,-331.46 493.3,-330.38"/>
<polygon fill="black" stroke="black" points="493.01,-333.89 502.95,-330.21 492.89,-326.89 493.01,-333.89"/>
</g>
<!-- Sequence&#45;&gt;SequenceRelationship -->
<g id="edge36" class="edge">
<title>Sequence&#45;&gt;SequenceRelationship</title>
<path fill="none" stroke="black" d="M308.11,-498.04C325,-480.95 349.4,-456.57 363.68,-430.49 393.49,-376.02 354.52,-338.12 399.68,-295.49 413.95,-282.02 433.07,-274.5 452.28,-270.79"/>
<polygon fill="black" stroke="black" points="452.74,-274.26 462.08,-269.26 451.66,-267.34 452.74,-274.26"/>
</g>
<!-- Sequence&#45;&gt;Uri -->
<g id="edge39" class="edge">
<title>Sequence&#45;&gt;Uri</title>
<path fill="none" stroke="black" d="M314.77,-499.71C331.27,-484.71 351.89,-463.01 363.68,-439.49 402,-363.05 339.66,-311.4 399.68,-250.49 423.8,-226.01 463.8,-220.8 493.29,-220.77"/>
<polygon fill="black" stroke="black" points="492.84,-224.26 502.91,-220.96 492.98,-217.26 492.84,-224.26"/>
</g>
<!-- Sequence&#45;&gt;Uuid -->
<g id="edge40" class="edge">
<title>Sequence&#45;&gt;Uuid</title>
<path fill="none" stroke="black" d="M315.08,-499.87C331.72,-484.92 352.37,-463.24 363.68,-439.49 410.58,-340.9 324.67,-275.82 399.68,-196.49 423.36,-171.44 463.61,-166.35 493.29,-166.51"/>
<polygon fill="black" stroke="black" points="492.88,-170 502.97,-166.77 493.07,-163 492.88,-170"/>
</g>
<!-- Sequence&#45;&gt;VerifierRole -->
<g id="edge41" class="edge">
<title>Sequence&#45;&gt;VerifierRole</title>
<path fill="none" stroke="black" d="M309.44,-498.2C335.13,-469.93 379,-423.5 399.68,-412.49 423.96,-399.56 453.82,-392.81 478.91,-389.3"/>
<polygon fill="black" stroke="black" points="479.08,-392.8 488.56,-388.09 478.21,-385.86 479.08,-392.8"/>
</g>
<!-- Sequence&#45;&gt;Version -->
<g id="edge43" class="edge">
<title>Sequence&#45;&gt;Version</title>
<path fill="none" stroke="black" d="M311.2,-542.31C332.1,-562.16 365.52,-590.82 399.68,-607.49 428.75,-621.68 464.61,-629.87 491.47,-634.41"/>
<polygon fill="black" stroke="black" points="490.84,-637.85 501.26,-635.95 491.93,-630.93 490.84,-637.85"/>
</g>
<!-- Sequence&#45;&gt;Creator -->
<g id="edge44" class="edge">
<title>Sequence&#45;&gt;Creator</title>
<path fill="none" stroke="black" stroke-dasharray="5,2" d="M323.61,-492.61C338.55,-478.38 354.69,-459.78 363.68,-439.49 398.81,-360.1 335.52,-108.98 399.68,-50.49 512.55,52.42 720.43,-29.24 795.15,-63.87"/>
<polygon fill="black" stroke="black" points="321.61,-489.7 316.61,-499.03 326.35,-494.86 321.61,-489.7"/>
</g>
<!-- Sequence&#45;&gt;Project -->
<g id="edge45" class="edge">
<title>Sequence&#45;&gt;Project</title>
<path fill="none" stroke="black" stroke-dasharray="5,2" d="M323.46,-492.55C338.37,-478.29 354.53,-459.71 363.68,-439.49 394.09,-372.28 351.03,-164.95 399.68,-109.49 425.71,-79.81 474.28,-75.33 504.44,-75.75"/>
<polygon fill="black" stroke="black" points="321.47,-489.63 316.48,-498.98 326.21,-494.78 321.47,-489.63"/>
</g>
<!-- Sequence&#45;&gt;Updater -->
<g id="edge46" class="edge">
<title>Sequence&#45;&gt;Updater</title>
<path fill="none" stroke="black" stroke-dasharray="5,2" d="M323.36,-492.5C338.23,-478.23 354.41,-459.66 363.68,-439.49 391.44,-379.08 351.47,-188.28 399.68,-142.49 443.93,-100.45 887.62,-115.38 947.68,-104.49 968.68,-100.68 991.72,-93.78 1009.31,-87.9"/>
<polygon fill="black" stroke="black" points="321.36,-489.58 316.39,-498.93 326.11,-494.72 321.36,-489.58"/>
</g>
<!-- BlastQuerySequenceRelationship&#45;&gt;BlastQuerySequenceSequence -->
<g id="edge4" class="edge">
<title>BlastQuerySequenceRelationship&#45;&gt;BlastQuerySequenceSequence</title>
<path fill="none" stroke="black" stroke-dasharray="1,5" d="M630.98,-1071.49C660.27,-1071.49 692.41,-1071.49 721.87,-1071.49"/>
<polygon fill="black" stroke="black" points="721.5,-1074.99 731.5,-1071.49 721.5,-1067.99 721.5,-1074.99"/>
</g>
<!-- OriginRelationship&#45;&gt;DerivedSequence -->
<g id="edge8" class="edge">
<title>OriginRelationship&#45;&gt;DerivedSequence</title>
<path fill="none" stroke="black" stroke-dasharray="1,5" d="M591.84,-1004.75C639.62,-1007.38 706.89,-1011.09 756.52,-1013.83"/>
<polygon fill="black" stroke="black" points="756.09,-1017.31 766.26,-1014.37 756.47,-1010.32 756.09,-1017.31"/>
</g>
<!-- OriginRelationship&#45;&gt;RelatedOriginRelationship -->
<!-- Documentation&#45;&gt;Document -->
<g id="edge10" class="edge">
<title>Documentation&#45;&gt;Document</title>
<path fill="none" stroke="black" stroke-dasharray="1,5" d="M582,-909.49C636.08,-909.49 722.35,-909.49 775.62,-909.49"/>
<polygon fill="black" stroke="black" points="775.6,-912.99 785.6,-909.49 775.6,-905.99 775.6,-912.99"/>
</g>
<!-- ForwardPrimerRelationship&#45;&gt;ForwardPrimerSequence -->
<g id="edge12" class="edge">
<title>ForwardPrimerRelationship&#45;&gt;ForwardPrimerSequence</title>
<path fill="none" stroke="black" stroke-dasharray="1,5" d="M615.9,-855.49C653.84,-855.49 698.72,-855.49 736.98,-855.49"/>
<polygon fill="black" stroke="black" points="736.59,-858.99 746.59,-855.49 736.59,-851.99 736.59,-858.99"/>
</g>
<!-- RelatedOriginRelationship&#45;&gt;OriginExtract -->
<g id="edge19" class="edge">
<title>RelatedOriginRelationship&#45;&gt;OriginExtract</title>
<path fill="none" stroke="black" stroke-dasharray="1,5" d="M904.65,-946.83C919.02,-943.58 933.83,-940.07 947.68,-936.49 959.12,-933.53 971.29,-930.1 982.88,-926.7"/>
<polygon fill="black" stroke="black" points="983.73,-930.1 992.32,-923.89 981.74,-923.39 983.73,-930.1"/>
</g>
<!-- RelatedOriginRelationship&#45;&gt;OriginLot -->
<g id="edge20" class="edge">
<title>RelatedOriginRelationship&#45;&gt;OriginLot</title>
<path fill="none" stroke="black" stroke-dasharray="1,5" d="M904.51,-955.28C919.72,-951.21 934.87,-945.24 947.68,-936.49 971.49,-920.21 962.01,-901.53 983.68,-882.49 986.84,-879.71 990.35,-877.14 994.01,-874.78"/>
<polygon fill="black" stroke="black" points="995.72,-877.83 1002.62,-869.8 992.21,-871.77 995.72,-877.83"/>
</g>
<!-- RelatedOriginRelationship&#45;&gt;OriginRangedLot -->
<g id="edge21" class="edge">
<title>RelatedOriginRelationship&#45;&gt;OriginRangedLot</title>
<path fill="none" stroke="black" stroke-dasharray="1,5" d="M904.51,-971.7C919.72,-975.77 934.87,-981.74 947.68,-990.49 971.49,-1006.76 962.01,-1025.45 983.68,-1044.49 984.46,-1045.18 985.26,-1045.85 986.08,-1046.51"/>
<polygon fill="black" stroke="black" points="984.01,-1049.33 994.2,-1052.23 988.04,-1043.61 984.01,-1049.33"/>
</g>
<!-- RelatedOriginRelationship&#45;&gt;OriginSequence -->
<g id="edge23" class="edge">
<title>RelatedOriginRelationship&#45;&gt;OriginSequence</title>
<path fill="none" stroke="black" stroke-dasharray="1,5" d="M904.65,-980.14C919.02,-983.39 933.83,-986.91 947.68,-990.49 957.15,-992.94 967.12,-995.71 976.84,-998.52"/>
<polygon fill="black" stroke="black" points="975.64,-1001.81 986.23,-1001.27 977.61,-995.1 975.64,-1001.81"/>
</g>
<!-- RelatedOriginRelationship&#45;&gt;OriginSpecimen -->
<g id="edge24" class="edge">
<title>RelatedOriginRelationship&#45;&gt;OriginSpecimen</title>
<path fill="none" stroke="black" stroke-dasharray="1,5" d="M904.6,-963.49C927.9,-963.49 953.03,-963.49 975.15,-963.49"/>
<polygon fill="black" stroke="black" points="974.9,-966.99 984.9,-963.49 974.9,-959.99 974.9,-966.99"/>
</g>
<!-- ReferenceSequenceForAssemblyRelationship&#45;&gt;ReferenceSequenceForAssemblySequence -->
<g id="edge29" class="edge">
<title>ReferenceSequenceForAssemblyRelationship&#45;&gt;ReferenceSequenceForAssemblySequence</title>
<path fill="none" stroke="black" stroke-dasharray="1,5" d="M664.23,-547.49C672.27,-547.49 680.38,-547.49 688.44,-547.49"/>
<polygon fill="black" stroke="black" points="688.28,-550.99 698.28,-547.49 688.28,-543.99 688.28,-550.99"/>
</g>
<!-- RelatedSequenceRelationship&#45;&gt;RelatedSequence -->
<g id="edge32" class="edge">
<title>RelatedSequenceRelationship&#45;&gt;RelatedSequence</title>
<path fill="none" stroke="black" stroke-dasharray="1,5" d="M620.6,-493.49C664.69,-493.49 717.2,-493.49 757.65,-493.49"/>
<polygon fill="black" stroke="black" points="757.48,-496.99 767.48,-493.49 757.48,-489.99 757.48,-496.99"/>
</g>
<!-- ReversePrimerRelationship&#45;&gt;ReversePrimerSequence -->
<g id="edge34" class="edge">
<title>ReversePrimerRelationship&#45;&gt;ReversePrimerSequence</title>
<path fill="none" stroke="black" stroke-dasharray="1,5" d="M614.74,-439.49C653.16,-439.49 698.91,-439.49 737.71,-439.49"/>
<polygon fill="black" stroke="black" points="737.47,-442.99 747.47,-439.49 737.47,-435.99 737.47,-442.99"/>
</g>
<!-- Role&#45;&gt;Verifier -->
<!-- SequenceRelationship&#45;&gt;Sequence -->
<g id="edge37" class="edge">
<title>SequenceRelationship&#45;&gt;Sequence</title>
<path fill="none" stroke="black" stroke-dasharray="1,5" d="M463.58,-285.92C440.76,-289.77 416.75,-297.37 399.68,-313.49 354.52,-356.12 393.49,-394.02 363.68,-448.49 354.52,-465.22 341.19,-481.25 328.35,-494.03"/>
<polygon fill="black" stroke="black" points="325.97,-491.47 321.14,-500.89 330.8,-496.54 325.97,-491.47"/>
</g>
<!-- VerifierRole&#45;&gt;Verifier -->
<g id="edge42" class="edge">
<title>VerifierRole&#45;&gt;Verifier</title>
<path fill="none" stroke="black" stroke-dasharray="1,5" d="M573.43,-381.71C629.2,-376.51 728.78,-367.24 783.72,-362.13"/>
<polygon fill="black" stroke="black" points="783.92,-365.62 793.55,-361.21 783.27,-358.65 783.92,-365.62"/>
</g>
<!-- Version&#45;&gt;PinboardItem -->
<!-- Creator&#45;&gt;Updater -->
<!-- Project&#45;&gt;Creator -->
<!-- AlternateValue -->
<g id="node1" class="node">
<title>AlternateValue</title>
<g id="a_node1"><a xlink:href="/develop/Data/models.html#alternate-value" xlink:title="AlternateValue" target="_top">
<ellipse fill="#abcdef" stroke="#dddeee" cx="88.71" cy="-682.49" rx="66.19" ry="18"/>
<text text-anchor="middle" x="88.71" y="-677.44" font-family="Times,serif" font-size="14.00">AlternateValue</text>
</a>
</g>
</g>
<!-- Confidence -->
<g id="node2" class="node">
<title>Confidence</title>
<g id="a_node2"><a xlink:href="/develop/Data/models.html#confidence" xlink:title="Confidence" target="_top">
<ellipse fill="#abcdef" stroke="#dddeee" cx="88.71" cy="-628.49" rx="53.4" ry="18"/>
<text text-anchor="middle" x="88.71" y="-623.44" font-family="Times,serif" font-size="14.00">Confidence</text>
</a>
</g>
</g>
<!-- DataAttribute -->
<g id="node3" class="node">
<title>DataAttribute</title>
<g id="a_node3"><a xlink:href="/develop/Data/models.html#data-attribute" xlink:title="DataAttribute" target="_top">
<ellipse fill="#abcdef" stroke="#dddeee" cx="88.71" cy="-574.49" rx="61.59" ry="18"/>
<text text-anchor="middle" x="88.71" y="-569.44" font-family="Times,serif" font-size="14.00">DataAttribute</text>
</a>
</g>
</g>
<!-- Identifier -->
<g id="node4" class="node">
<title>Identifier</title>
<g id="a_node4"><a xlink:href="/develop/Data/models.html#identifier" xlink:title="Identifier" target="_top">
<ellipse fill="#abcdef" stroke="#dddeee" cx="88.71" cy="-520.49" rx="45.21" ry="18"/>
<text text-anchor="middle" x="88.71" y="-515.44" font-family="Times,serif" font-size="14.00">Identifier</text>
</a>
</g>
</g>
<!-- Tag -->
<g id="node5" class="node">
<title>Tag</title>
<g id="a_node5"><a xlink:href="/develop/Data/models.html#tag" xlink:title="Tag" target="_top">
<ellipse fill="#abcdef" stroke="#dddeee" cx="88.71" cy="-412.49" rx="27" ry="18"/>
<text text-anchor="middle" x="88.71" y="-407.44" font-family="Times,serif" font-size="14.00">Tag</text>
</a>
</g>
</g>
<!-- Note -->
<g id="node6" class="node">
<title>Note</title>
<g id="a_node6"><a xlink:href="/develop/Data/models.html#note" xlink:title="Note" target="_top">
<ellipse fill="#abcdef" stroke="#dddeee" cx="88.71" cy="-466.49" rx="28.83" ry="18"/>
<text text-anchor="middle" x="88.71" y="-461.44" font-family="Times,serif" font-size="14.00">Note</text>
</a>
</g>
</g>
<!-- ProtocolRelationship -->
<g id="node7" class="node">
<title>ProtocolRelationship</title>
<g id="a_node7"><a xlink:href="/develop/Data/models.html#protocol-relationship" xlink:title="ProtocolRelationship" target="_top">
<ellipse fill="#abcdef" stroke="#dddeee" cx="88.71" cy="-358.49" rx="88.71" ry="18"/>
<text text-anchor="middle" x="88.71" y="-353.44" font-family="Times,serif" font-size="14.00">ProtocolRelationship</text>
</a>
</g>
</g>
<!-- Sequence -->
<g id="node8" class="node">
<title>Sequence</title>
<g id="a_node8"><a xlink:href="/develop/Data/models.html#sequence" xlink:title="Sequence" target="_top">
<polygon fill="#cdefab" stroke="#dedede" points="338.59,-513.03 338.59,-527.94 309.28,-538.49 267.82,-538.49 238.51,-527.94 238.51,-513.03 267.82,-502.49 309.28,-502.49 338.59,-513.03"/>
<polygon fill="none" stroke="#dedede" points="342.59,-510.22 342.59,-530.76 309.98,-542.49 267.13,-542.49 234.51,-530.76 234.51,-510.22 267.13,-498.49 309.98,-498.49 342.59,-510.22"/>
<text text-anchor="middle" x="288.55" y="-515.44" font-family="Times,serif" font-size="14.00">Sequence</text>
</a>
</g>
</g>
<!-- AlternateValueLanguage -->
<g id="node9" class="node">
<title>AlternateValueLanguage</title>
<g id="a_node9"><a xlink:href="/develop/Data/models.html#alternate-value-language" xlink:title="AlternateValueLanguage" target="_top">
<polygon fill="#eeefff" stroke="#dddeee" points="363.68,-700.49 213.43,-700.49 213.43,-664.49 363.68,-664.49 363.68,-700.49"/>
<text text-anchor="middle" x="288.55" y="-677.44" font-family="Times,serif" font-size="14.00">AlternateValueLanguage</text>
</a>
</g>
</g>
<!-- BlastQuerySequenceRelationship -->
<g id="node10" class="node">
<title>BlastQuerySequenceRelationship</title>
<g id="a_node10"><a xlink:href="/develop/Data/models.html#blast-query-sequence-relationship" xlink:title="BlastQuerySequenceRelationship" target="_top">
<polygon fill="#eeefff" stroke="#dddeee" points="630.55,-1089.49 433.05,-1089.49 433.05,-1053.49 630.55,-1053.49 630.55,-1089.49"/>
<text text-anchor="middle" x="531.8" y="-1066.44" font-family="Times,serif" font-size="14.00">BlastQuerySequenceRelationship</text>
</a>
</g>
</g>
<!-- BlastQuerySequenceSequence -->
<g id="node11" class="node">
<title>BlastQuerySequenceSequence</title>
<g id="a_node11"><a xlink:href="/develop/Data/models.html#blast-query-sequence-sequence" xlink:title="BlastQuerySequenceSequence" target="_top">
<polygon fill="#eeefff" stroke="#dddeee" points="914.3,-1089.49 733.3,-1089.49 733.3,-1053.49 914.3,-1053.49 914.3,-1089.49"/>
<text text-anchor="middle" x="823.8" y="-1066.44" font-family="Times,serif" font-size="14.00">BlastQuerySequenceSequence</text>
</a>
</g>
</g>
<!-- ConfidenceLevel -->
<g id="node12" class="node">
<title>ConfidenceLevel</title>
<g id="a_node12"><a xlink:href="/develop/Data/models.html#confidence-level" xlink:title="ConfidenceLevel" target="_top">
<polygon fill="#eeefff" stroke="#dddeee" points="343.05,-646.49 234.05,-646.49 234.05,-610.49 343.05,-610.49 343.05,-646.49"/>
<text text-anchor="middle" x="288.55" y="-623.44" font-family="Times,serif" font-size="14.00">ConfidenceLevel</text>
</a>
</g>
</g>
<!-- OriginRelationship -->
<g id="node13" class="node">
<title>OriginRelationship</title>
<g id="a_node13"><a xlink:href="/develop/Data/models.html#origin-relationship" xlink:title="OriginRelationship" target="_top">
<polygon fill="#eeefff" stroke="#dddeee" points="591.55,-1019.49 472.05,-1019.49 472.05,-983.49 591.55,-983.49 591.55,-1019.49"/>
<text text-anchor="middle" x="531.8" y="-996.44" font-family="Times,serif" font-size="14.00">OriginRelationship</text>
</a>
</g>
</g>
<!-- DerivedSequence -->
<g id="node14" class="node">
<title>DerivedSequence</title>
<g id="a_node14"><a xlink:href="/develop/Data/models.html#derived-sequence" xlink:title="DerivedSequence" target="_top">
<polygon fill="#eeefff" stroke="#dddeee" points="879.43,-1035.49 768.18,-1035.49 768.18,-999.49 879.43,-999.49 879.43,-1035.49"/>
<text text-anchor="middle" x="823.8" y="-1012.44" font-family="Times,serif" font-size="14.00">DerivedSequence</text>
</a>
</g>
</g>
<!-- Documentation -->
<g id="node15" class="node">
<title>Documentation</title>
<g id="a_node15"><a xlink:href="/develop/Data/models.html#documentation" xlink:title="Documentation" target="_top">
<polygon fill="#eeefff" stroke="#dddeee" points="581.8,-927.49 481.8,-927.49 481.8,-891.49 581.8,-891.49 581.8,-927.49"/>
<text text-anchor="middle" x="531.8" y="-904.44" font-family="Times,serif" font-size="14.00">Documentation</text>
</a>
</g>
</g>
<!-- Document -->
<g id="node16" class="node">
<title>Document</title>
<g id="a_node16"><a xlink:href="/develop/Data/models.html#document" xlink:title="Document" target="_top">
<polygon fill="#eeefff" stroke="#dddeee" points="860.3,-927.49 787.3,-927.49 787.3,-891.49 860.3,-891.49 860.3,-927.49"/>
<text text-anchor="middle" x="823.8" y="-904.44" font-family="Times,serif" font-size="14.00">Document</text>
</a>
</g>
</g>
<!-- ForwardPrimerRelationship -->
<g id="node17" class="node">
<title>ForwardPrimerRelationship</title>
<g id="a_node17"><a xlink:href="/develop/Data/models.html#forward-primer-relationship" xlink:title="ForwardPrimerRelationship" target="_top">
<polygon fill="#eeefff" stroke="#dddeee" points="615.55,-873.49 448.05,-873.49 448.05,-837.49 615.55,-837.49 615.55,-873.49"/>
<text text-anchor="middle" x="531.8" y="-850.44" font-family="Times,serif" font-size="14.00">ForwardPrimerRelationship</text>
</a>
</g>
</g>
<!-- ForwardPrimerSequence -->
<g id="node18" class="node">
<title>ForwardPrimerSequence</title>
<g id="a_node18"><a xlink:href="/develop/Data/models.html#forward-primer-sequence" xlink:title="ForwardPrimerSequence" target="_top">
<polygon fill="#eeefff" stroke="#dddeee" points="899.3,-873.49 748.3,-873.49 748.3,-837.49 899.3,-837.49 899.3,-873.49"/>
<text text-anchor="middle" x="823.8" y="-850.44" font-family="Times,serif" font-size="14.00">ForwardPrimerSequence</text>
</a>
</g>
</g>
<!-- GeneAttribute -->
<g id="node19" class="node">
<title>GeneAttribute</title>
<g id="a_node19"><a xlink:href="/develop/Data/models.html#gene-attribute" xlink:title="GeneAttribute" target="_top">
<polygon fill="#eeefff" stroke="#dddeee" points="578.43,-819.49 485.18,-819.49 485.18,-783.49 578.43,-783.49 578.43,-819.49"/>
<text text-anchor="middle" x="531.8" y="-796.44" font-family="Times,serif" font-size="14.00">GeneAttribute</text>
</a>
</g>
</g>
<!-- ImportAttribute -->
<g id="node20" class="node">
<title>ImportAttribute</title>
<g id="a_node20"><a xlink:href="/develop/Data/models.html#import-attribute" xlink:title="ImportAttribute" target="_top">
<polygon fill="#eeefff" stroke="#dddeee" points="582.93,-765.49 480.68,-765.49 480.68,-729.49 582.93,-729.49 582.93,-765.49"/>
<text text-anchor="middle" x="531.8" y="-742.44" font-family="Times,serif" font-size="14.00">ImportAttribute</text>
</a>
</g>
</g>
<!-- InternalAttribute -->
<g id="node21" class="node">
<title>InternalAttribute</title>
<g id="a_node21"><a xlink:href="/develop/Data/models.html#internal-attribute" xlink:title="InternalAttribute" target="_top">
<polygon fill="#eeefff" stroke="#dddeee" points="585.18,-711.49 478.43,-711.49 478.43,-675.49 585.18,-675.49 585.18,-711.49"/>
<text text-anchor="middle" x="531.8" y="-688.44" font-family="Times,serif" font-size="14.00">InternalAttribute</text>
</a>
</g>
</g>
<!-- Keyword -->
<g id="node22" class="node">
<title>Keyword</title>
<g id="a_node22"><a xlink:href="/develop/Data/models.html#keyword" xlink:title="Keyword" target="_top">
<polygon fill="#eeefff" stroke="#dddeee" points="321.68,-430.49 255.43,-430.49 255.43,-394.49 321.68,-394.49 321.68,-430.49"/>
<text text-anchor="middle" x="288.55" y="-407.44" font-family="Times,serif" font-size="14.00">Keyword</text>
</a>
</g>
</g>
<!-- RelatedOriginRelationship -->
<g id="node23" class="node">
<title>RelatedOriginRelationship</title>
<g id="a_node23"><a xlink:href="/develop/Data/models.html#related-origin-relationship" xlink:title="RelatedOriginRelationship" target="_top">
<polygon fill="#eeefff" stroke="#dddeee" points="904.18,-981.49 743.43,-981.49 743.43,-945.49 904.18,-945.49 904.18,-981.49"/>
<text text-anchor="middle" x="823.8" y="-958.44" font-family="Times,serif" font-size="14.00">RelatedOriginRelationship</text>
</a>
</g>
</g>
<!-- OriginExtract -->
<g id="node24" class="node">
<title>OriginExtract</title>
<g id="a_node24"><a xlink:href="/develop/Data/models.html#origin-extract" xlink:title="OriginExtract" target="_top">
<polygon fill="#eeefff" stroke="#dddeee" points="1084.43,-927.49 994.18,-927.49 994.18,-891.49 1084.43,-891.49 1084.43,-927.49"/>
<text text-anchor="middle" x="1039.3" y="-904.44" font-family="Times,serif" font-size="14.00">OriginExtract</text>
</a>
</g>
</g>
<!-- OriginLot -->
<g id="node25" class="node">
<title>OriginLot</title>
<g id="a_node25"><a xlink:href="/develop/Data/models.html#origin-lot" xlink:title="OriginLot" target="_top">
<polygon fill="#eeefff" stroke="#dddeee" points="1074.3,-873.49 1004.3,-873.49 1004.3,-837.49 1074.3,-837.49 1074.3,-873.49"/>
<text text-anchor="middle" x="1039.3" y="-850.44" font-family="Times,serif" font-size="14.00">OriginLot</text>
</a>
</g>
</g>
<!-- OriginRangedLot -->
<g id="node26" class="node">
<title>OriginRangedLot</title>
<g id="a_node26"><a xlink:href="/develop/Data/models.html#origin-ranged-lot" xlink:title="OriginRangedLot" target="_top">
<polygon fill="#eeefff" stroke="#dddeee" points="1094.93,-1089.49 983.68,-1089.49 983.68,-1053.49 1094.93,-1053.49 1094.93,-1089.49"/>
<text text-anchor="middle" x="1039.3" y="-1066.44" font-family="Times,serif" font-size="14.00">OriginRangedLot</text>
</a>
</g>
</g>
<!-- OriginSequence -->
<g id="node27" class="node">
<title>OriginSequence</title>
<g id="a_node27"><a xlink:href="/develop/Data/models.html#origin-sequence" xlink:title="OriginSequence" target="_top">
<polygon fill="#eeefff" stroke="#dddeee" points="1090.8,-1035.49 987.8,-1035.49 987.8,-999.49 1090.8,-999.49 1090.8,-1035.49"/>
<text text-anchor="middle" x="1039.3" y="-1012.44" font-family="Times,serif" font-size="14.00">OriginSequence</text>
</a>
</g>
</g>
<!-- OriginSpecimen -->
<g id="node28" class="node">
<title>OriginSpecimen</title>
<g id="a_node28"><a xlink:href="/develop/Data/models.html#origin-specimen" xlink:title="OriginSpecimen" target="_top">
<polygon fill="#eeefff" stroke="#dddeee" points="1091.93,-981.49 986.68,-981.49 986.68,-945.49 1091.93,-945.49 1091.93,-981.49"/>
<text text-anchor="middle" x="1039.3" y="-958.44" font-family="Times,serif" font-size="14.00">OriginSpecimen</text>
</a>
</g>
</g>
<!-- PinboardItem -->
<g id="node29" class="node">
<title>PinboardItem</title>
<g id="a_node29"><a xlink:href="/develop/Data/models.html#pinboard-item" xlink:title="PinboardItem" target="_top">
<polygon fill="#eeefff" stroke="#dddeee" points="868.93,-657.49 778.68,-657.49 778.68,-621.49 868.93,-621.49 868.93,-657.49"/>
<text text-anchor="middle" x="823.8" y="-634.44" font-family="Times,serif" font-size="14.00">PinboardItem</text>
</a>
</g>
</g>
<!-- Protocol -->
<g id="node30" class="node">
<title>Protocol</title>
<g id="a_node30"><a xlink:href="/develop/Data/models.html#protocol" xlink:title="Protocol" target="_top">
<polygon fill="#eeefff" stroke="#dddeee" points="319.43,-376.49 257.68,-376.49 257.68,-340.49 319.43,-340.49 319.43,-376.49"/>
<text text-anchor="middle" x="288.55" y="-353.44" font-family="Times,serif" font-size="14.00">Protocol</text>
</a>
</g>
</g>
<!-- ReferenceSequenceForAssemblyRelationship -->
<g id="node31" class="node">
<title>ReferenceSequenceForAssemblyRelationship</title>
<g id="a_node31"><a xlink:href="/develop/Data/models.html#reference-sequence-for-assembly-relationship" xlink:title="ReferenceSequenceForAssemblyRelationship" target="_top">
<polygon fill="#eeefff" stroke="#dddeee" points="663.93,-565.49 399.68,-565.49 399.68,-529.49 663.93,-529.49 663.93,-565.49"/>
<text text-anchor="middle" x="531.8" y="-542.44" font-family="Times,serif" font-size="14.00">ReferenceSequenceForAssemblyRelationship</text>
</a>
</g>
</g>
<!-- ReferenceSequenceForAssemblySequence -->
<g id="node32" class="node">
<title>ReferenceSequenceForAssemblySequence</title>
<g id="a_node32"><a xlink:href="/develop/Data/models.html#reference-sequence-for-assembly-sequence" xlink:title="ReferenceSequenceForAssemblySequence" target="_top">
<polygon fill="#eeefff" stroke="#dddeee" points="947.68,-565.49 699.93,-565.49 699.93,-529.49 947.68,-529.49 947.68,-565.49"/>
<text text-anchor="middle" x="823.8" y="-542.44" font-family="Times,serif" font-size="14.00">ReferenceSequenceForAssemblySequence</text>
</a>
</g>
</g>
<!-- RelatedSequenceRelationship -->
<g id="node33" class="node">
<title>RelatedSequenceRelationship</title>
<g id="a_node33"><a xlink:href="/develop/Data/models.html#related-sequence-relationship" xlink:title="RelatedSequenceRelationship" target="_top">
<polygon fill="#eeefff" stroke="#dddeee" points="620.43,-511.49 443.18,-511.49 443.18,-475.49 620.43,-475.49 620.43,-511.49"/>
<text text-anchor="middle" x="531.8" y="-488.44" font-family="Times,serif" font-size="14.00">RelatedSequenceRelationship</text>
</a>
</g>
</g>
<!-- RelatedSequence -->
<g id="node34" class="node">
<title>RelatedSequence</title>
<g id="a_node34"><a xlink:href="/develop/Data/models.html#related-sequence" xlink:title="RelatedSequence" target="_top">
<polygon fill="#eeefff" stroke="#dddeee" points="878.3,-511.49 769.3,-511.49 769.3,-475.49 878.3,-475.49 878.3,-511.49"/>
<text text-anchor="middle" x="823.8" y="-488.44" font-family="Times,serif" font-size="14.00">RelatedSequence</text>
</a>
</g>
</g>
<!-- ReversePrimerRelationship -->
<g id="node35" class="node">
<title>ReversePrimerRelationship</title>
<g id="a_node35"><a xlink:href="/develop/Data/models.html#reverse-primer-relationship" xlink:title="ReversePrimerRelationship" target="_top">
<polygon fill="#eeefff" stroke="#dddeee" points="614.43,-457.49 449.18,-457.49 449.18,-421.49 614.43,-421.49 614.43,-457.49"/>
<text text-anchor="middle" x="531.8" y="-434.44" font-family="Times,serif" font-size="14.00">ReversePrimerRelationship</text>
</a>
</g>
</g>
<!-- ReversePrimerSequence -->
<g id="node36" class="node">
<title>ReversePrimerSequence</title>
<g id="a_node36"><a xlink:href="/develop/Data/models.html#reverse-primer-sequence" xlink:title="ReversePrimerSequence" target="_top">
<polygon fill="#eeefff" stroke="#dddeee" points="898.18,-457.49 749.43,-457.49 749.43,-421.49 898.18,-421.49 898.18,-457.49"/>
<text text-anchor="middle" x="823.8" y="-434.44" font-family="Times,serif" font-size="14.00">ReversePrimerSequence</text>
</a>
</g>
</g>
<!-- Role -->
<g id="node37" class="node">
<title>Role</title>
<g id="a_node37"><a xlink:href="/develop/Data/models.html#role" xlink:title="Role" target="_top">
<polygon fill="#eeefff" stroke="#dddeee" points="558.8,-349.49 504.8,-349.49 504.8,-313.49 558.8,-313.49 558.8,-349.49"/>
<text text-anchor="middle" x="531.8" y="-326.44" font-family="Times,serif" font-size="14.00">Role</text>
</a>
</g>
</g>
<!-- SequenceRelationship -->
<g id="node38" class="node">
<title>SequenceRelationship</title>
<g id="a_node38"><a xlink:href="/develop/Data/models.html#sequence-relationship" xlink:title="SequenceRelationship" target="_top">
<polygon fill="#eeefff" stroke="#dddeee" points="599.8,-295.49 463.8,-295.49 463.8,-259.49 599.8,-259.49 599.8,-295.49"/>
<text text-anchor="middle" x="531.8" y="-272.44" font-family="Times,serif" font-size="14.00">SequenceRelationship</text>
</a>
</g>
</g>
<!-- Uri -->
<g id="node39" class="node">
<title>Uri</title>
<g id="a_node39"><a xlink:href="/develop/Data/models.html#uri" xlink:title="Uri" target="_top">
<polygon fill="#eeefff" stroke="#dddeee" points="558.8,-241.49 504.8,-241.49 504.8,-205.49 558.8,-205.49 558.8,-241.49"/>
<text text-anchor="middle" x="531.8" y="-218.44" font-family="Times,serif" font-size="14.00">Uri</text>
</a>
</g>
</g>
<!-- Uuid -->
<g id="node40" class="node">
<title>Uuid</title>
<g id="a_node40"><a xlink:href="/develop/Data/models.html#uuid" xlink:title="Uuid" target="_top">
<polygon fill="#eeefff" stroke="#dddeee" points="558.8,-187.49 504.8,-187.49 504.8,-151.49 558.8,-151.49 558.8,-187.49"/>
<text text-anchor="middle" x="531.8" y="-164.44" font-family="Times,serif" font-size="14.00">Uuid</text>
</a>
</g>
</g>
<!-- VerifierRole -->
<g id="node41" class="node">
<title>VerifierRole</title>
<g id="a_node41"><a xlink:href="/develop/Data/models.html#verifier-role" xlink:title="VerifierRole" target="_top">
<polygon fill="#eeefff" stroke="#dddeee" points="573.18,-403.49 490.43,-403.49 490.43,-367.49 573.18,-367.49 573.18,-403.49"/>
<text text-anchor="middle" x="531.8" y="-380.44" font-family="Times,serif" font-size="14.00">VerifierRole</text>
</a>
</g>
</g>
<!-- Verifier -->
<g id="node42" class="node">
<title>Verifier</title>
<g id="a_node42"><a xlink:href="/develop/Data/models.html#verifier" xlink:title="Verifier" target="_top">
<polygon fill="#eeefff" stroke="#dddeee" points="852.43,-376.49 795.18,-376.49 795.18,-340.49 852.43,-340.49 852.43,-376.49"/>
<text text-anchor="middle" x="823.8" y="-353.44" font-family="Times,serif" font-size="14.00">Verifier</text>
</a>
</g>
</g>
<!-- Version -->
<g id="node43" class="node">
<title>Version</title>
<g id="a_node43"><a xlink:href="/develop/Data/models.html#version" xlink:title="Version" target="_top">
<polygon fill="#eeefff" stroke="#dddeee" points="560.43,-657.49 503.18,-657.49 503.18,-621.49 560.43,-621.49 560.43,-657.49"/>
<text text-anchor="middle" x="531.8" y="-634.44" font-family="Times,serif" font-size="14.00">Version</text>
</a>
</g>
</g>
<!-- Creator -->
<g id="node44" class="node">
<title>Creator</title>
<g id="a_node44"><a xlink:href="/develop/Data/models.html#creator" xlink:title="Creator" target="_top">
<polygon fill="#eeefff" stroke="#dddeee" points="852.05,-95.49 795.55,-95.49 795.55,-59.49 852.05,-59.49 852.05,-95.49"/>
<text text-anchor="middle" x="823.8" y="-72.44" font-family="Times,serif" font-size="14.00">Creator</text>
</a>
</g>
</g>
<!-- Project -->
<g id="node45" class="node">
<title>Project</title>
<g id="a_node45"><a xlink:href="/develop/Data/models.html#project" xlink:title="Project" target="_top">
<polygon fill="#eeefff" stroke="#dddeee" points="558.93,-95.49 504.68,-95.49 504.68,-59.49 558.93,-59.49 558.93,-95.49"/>
<text text-anchor="middle" x="531.8" y="-72.44" font-family="Times,serif" font-size="14.00">Project</text>
</a>
</g>
</g>
<!-- Updater -->
<g id="node46" class="node">
<title>Updater</title>
<g id="a_node46"><a xlink:href="/develop/Data/models.html#updater" xlink:title="Updater" target="_top">
<polygon fill="#eeefff" stroke="#dddeee" points="1069.05,-95.49 1009.55,-95.49 1009.55,-59.49 1069.05,-59.49 1069.05,-95.49"/>
<text text-anchor="middle" x="1039.3" y="-72.44" font-family="Times,serif" font-size="14.00">Updater</text>
</a>
</g>
</g>
</g>
</svg>
