<?xml version="1.0" encoding="UTF-8" standalone="no"?>
<!DOCTYPE svg PUBLIC "-//W3C//DTD SVG 1.1//EN"
 "http://www.w3.org/Graphics/SVG/1.1/DTD/svg11.dtd">
<!-- Generated by graphviz version 12.2.1 (20241206.2353)
 -->
<!-- Title: Serial Pages: 1 -->
<svg width="752pt" height="826pt"
 viewBox="0.00 0.00 752.39 826.04" xmlns="http://www.w3.org/2000/svg" xmlns:xlink="http://www.w3.org/1999/xlink">
<g id="graph0" class="graph" transform="scale(1 1) rotate(0) translate(4 822.04)">
<title>Serial</title>
<polygon fill="white" stroke="none" points="-4,4 -4,-822.04 748.39,-822.04 748.39,4 -4,4"/>
<!-- AlternateValue&#45;&gt;AlternateValueLanguage -->
<g id="edge1" class="edge">
<title>AlternateValue&#45;&gt;AlternateValueLanguage</title>
<path fill="none" stroke="black" stroke-dasharray="1,5" d="M132.48,-517.54C140.35,-517.54 148.48,-517.54 156.6,-517.54"/>
<polygon fill="black" stroke="black" points="156.51,-521.04 166.51,-517.54 156.51,-514.04 156.51,-521.04"/>
</g>
<!-- Tag&#45;&gt;Keyword -->
<g id="edge9" class="edge">
<title>Tag&#45;&gt;Keyword</title>
<path fill="none" stroke="black" stroke-dasharray="1,5" d="M93.44,-301.54C121.3,-301.54 165.78,-301.54 198.91,-301.54"/>
<polygon fill="black" stroke="black" points="198.6,-305.04 208.6,-301.54 198.6,-298.04 198.6,-305.04"/>
</g>
<!-- Serial&#45;&gt;AlternateValue -->
<g id="edge2" class="edge">
<title>Serial&#45;&gt;AlternateValue</title>
<path fill="none" stroke="black" d="M220.81,-427.96C199.35,-445.58 165.05,-472.12 132.39,-490.54 127.51,-493.29 122.3,-495.91 117.02,-498.38"/>
<polygon fill="black" stroke="black" points="115.97,-495.02 108.26,-502.28 118.82,-501.41 115.97,-495.02"/>
</g>
<!-- Serial&#45;&gt;DataAttribute -->
<g id="edge3" class="edge">
<title>Serial&#45;&gt;DataAttribute</title>
<path fill="none" stroke="black" d="M206.1,-398.32C181.31,-390.68 148.09,-380.45 120.36,-371.91"/>
<polygon fill="black" stroke="black" points="121.67,-368.65 111.08,-369.05 119.61,-375.34 121.67,-368.65"/>
</g>
<!-- Serial&#45;&gt;Identifier -->
<g id="edge4" class="edge">
<title>Serial&#45;&gt;Identifier</title>
<path fill="none" stroke="black" d="M206.18,-420.73C179.27,-429.02 142.38,-440.38 113.37,-449.31"/>
<polygon fill="black" stroke="black" points="112.65,-445.87 104.12,-452.16 114.71,-452.56 112.65,-445.87"/>
</g>
<!-- Serial&#45;&gt;Tag -->
<g id="edge16" class="edge">
<title>Serial&#45;&gt;Tag</title>
<path fill="none" stroke="black" d="M220.81,-391.11C199.35,-373.49 165.05,-346.95 132.39,-328.54 122.67,-323.06 111.62,-318.06 101.41,-313.89"/>
<polygon fill="black" stroke="black" points="102.76,-310.67 92.17,-310.27 100.2,-317.18 102.76,-310.67"/>
</g>
<!-- Serial&#45;&gt;Note -->
<g id="edge10" class="edge">
<title>Serial&#45;&gt;Note</title>
<path fill="none" stroke="black" d="M203.96,-409.54C175.12,-409.54 135.82,-409.54 106.74,-409.54"/>
<polygon fill="black" stroke="black" points="106.88,-406.04 96.88,-409.54 106.88,-413.04 106.88,-406.04"/>
</g>
<!-- Serial&#45;&gt;Source -->
<g id="edge14" class="edge">
<title>Serial&#45;&gt;Source</title>
<path fill="none" stroke="black" d="M267.32,-427.57C284.47,-442.49 306.93,-465.29 318.64,-490.54 371.61,-604.76 274.3,-674.58 354.64,-771.54 366.57,-785.94 386.01,-793 403.4,-796.44"/>
<polygon fill="black" stroke="black" points="402.51,-799.84 412.94,-797.97 403.62,-792.93 402.51,-799.84"/>
</g>
<!-- Serial&#45;&gt;SucceedingSerialChronology -->
<g id="edge15" class="edge">
<title>Serial&#45;&gt;SucceedingSerialChronology</title>
<path fill="none" stroke="black" d="M267.11,-427.66C284.14,-442.65 306.55,-465.47 318.64,-490.54 363,-582.55 287.89,-640.21 354.64,-717.54 354.9,-717.84 355.16,-718.13 355.43,-718.43"/>
<polygon fill="black" stroke="black" points="353.04,-720.99 362.82,-725.05 357.71,-715.77 353.04,-720.99"/>
</g>
<!-- Serial&#45;&gt;PrecedingSerialChronology -->
<g id="edge12" class="edge">
<title>Serial&#45;&gt;PrecedingSerialChronology</title>
<path fill="none" stroke="black" d="M266.78,-427.83C283.63,-442.9 305.96,-465.76 318.64,-490.54 354.42,-560.44 301.91,-605.33 354.64,-663.54 355.01,-663.94 355.38,-664.34 355.76,-664.74"/>
<polygon fill="black" stroke="black" points="353.47,-667.39 363.36,-671.19 358,-662.05 353.47,-667.39"/>
</g>
<!-- Serial&#45;&gt;ImportAttribute -->
<g id="edge7" class="edge">
<title>Serial&#45;&gt;ImportAttribute</title>
<path fill="none" stroke="black" d="M266.18,-428.15C282.7,-443.4 304.87,-466.35 318.64,-490.54 345.97,-538.56 315.76,-570.27 354.64,-609.54 361.61,-616.58 370.38,-621.78 379.65,-625.64"/>
<polygon fill="black" stroke="black" points="378.24,-628.85 388.83,-628.93 380.6,-622.26 378.24,-628.85"/>
</g>
<!-- Serial&#45;&gt;InternalAttribute -->
<g id="edge8" class="edge">
<title>Serial&#45;&gt;InternalAttribute</title>
<path fill="none" stroke="black" d="M264.59,-429.19C280.23,-445.02 302,-468.23 318.64,-490.54 337.23,-515.47 330.71,-530.67 354.64,-550.54 361.45,-556.2 369.37,-560.91 377.58,-564.81"/>
<polygon fill="black" stroke="black" points="376.12,-568 386.69,-568.74 378.9,-561.57 376.12,-568"/>
</g>
<!-- Serial&#45;&gt;PinboardItem -->
<g id="edge11" class="edge">
<title>Serial&#45;&gt;PinboardItem</title>
<path fill="none" stroke="black" d="M261.97,-430.03C286.95,-458.73 332.33,-508.42 354.64,-517.54 434.75,-550.26 536.71,-529.18 598.49,-510.32"/>
<polygon fill="black" stroke="black" points="599.24,-513.76 607.72,-507.42 597.14,-507.08 599.24,-513.76"/>
</g>
<!-- Serial&#45;&gt;Role -->
<g id="edge13" class="edge">
<title>Serial&#45;&gt;Role</title>
<path fill="none" stroke="black" d="M265.37,-390.42C281.43,-374.89 303.39,-351.82 318.64,-328.54 340.22,-295.58 325.23,-273.75 354.64,-247.54 368.13,-235.5 386.96,-228.83 403.57,-225.14"/>
<polygon fill="black" stroke="black" points="403.97,-228.62 413.13,-223.3 402.65,-221.75 403.97,-228.62"/>
</g>
<!-- Serial&#45;&gt;Translation -->
<g id="edge17" class="edge">
<title>Serial&#45;&gt;Translation</title>
<path fill="none" stroke="black" d="M282.82,-414.81C313.89,-419.08 357.89,-425.13 391.56,-429.77"/>
<polygon fill="black" stroke="black" points="390.67,-433.18 401.06,-431.07 391.63,-426.24 390.67,-433.18"/>
</g>
<!-- Serial&#45;&gt;Uri -->
<g id="edge18" class="edge">
<title>Serial&#45;&gt;Uri</title>
<path fill="none" stroke="black" d="M282.82,-404.27C317.69,-399.47 368.87,-392.43 403.44,-387.67"/>
<polygon fill="black" stroke="black" points="403.55,-391.19 412.98,-386.36 402.59,-384.25 403.55,-391.19"/>
</g>
<!-- Serial&#45;&gt;Uuid -->
<g id="edge19" class="edge">
<title>Serial&#45;&gt;Uuid</title>
<path fill="none" stroke="black" d="M272.5,-394.34C294.44,-382.79 325.96,-366.98 354.64,-355.54 370.45,-349.22 388.35,-343.41 403.72,-338.8"/>
<polygon fill="black" stroke="black" points="404.33,-342.27 412.94,-336.1 402.36,-335.55 404.33,-342.27"/>
</g>
<!-- Serial&#45;&gt;VerifierRole -->
<g id="edge20" class="edge">
<title>Serial&#45;&gt;VerifierRole</title>
<path fill="none" stroke="black" d="M262.83,-389.44C288.43,-361.75 334.08,-313.85 354.64,-301.54 365.24,-295.19 377.48,-290.19 389.35,-286.31"/>
<polygon fill="black" stroke="black" points="390.08,-289.74 398.63,-283.49 388.05,-283.04 390.08,-289.74"/>
</g>
<!-- Serial&#45;&gt;Version -->
<g id="edge22" class="edge">
<title>Serial&#45;&gt;Version</title>
<path fill="none" stroke="black" d="M272.5,-424.73C294.44,-436.28 325.96,-452.09 354.64,-463.54 369.83,-469.6 386.95,-475.21 401.91,-479.73"/>
<polygon fill="black" stroke="black" points="400.82,-483.05 411.4,-482.53 402.8,-476.34 400.82,-483.05"/>
</g>
<!-- Serial&#45;&gt;Creator -->
<g id="edge23" class="edge">
<title>Serial&#45;&gt;Creator</title>
<path fill="none" stroke="black" stroke-dasharray="5,2" d="M274.56,-383.38C289.77,-368.66 307.36,-349.13 318.64,-328.54 348.46,-274.07 311.69,-238.38 354.64,-193.54 369.81,-177.69 394.15,-171.1 413.08,-168.38"/>
<polygon fill="black" stroke="black" points="272.4,-380.61 267.51,-390.01 277.19,-385.71 272.4,-380.61"/>
</g>
<!-- Serial&#45;&gt;Language -->
<g id="edge24" class="edge">
<title>Serial&#45;&gt;Language</title>
<path fill="none" stroke="black" stroke-dasharray="5,2" d="M275.17,-383.7C290.56,-369.07 308.11,-349.53 318.64,-328.54 356.96,-252.09 297.77,-203.39 354.64,-139.54 367.77,-124.79 388.84,-118.02 406.85,-114.95"/>
<polygon fill="black" stroke="black" points="273.01,-380.93 268.02,-390.28 277.75,-386.09 273.01,-380.93"/>
</g>
<!-- Serial&#45;&gt;TranslatedFromSerial -->
<g id="edge25" class="edge">
<title>Serial&#45;&gt;TranslatedFromSerial</title>
<path fill="none" stroke="black" stroke-dasharray="5,2" d="M275.52,-383.87C291.01,-369.29 308.55,-349.74 318.64,-328.54 365.55,-229.95 283.72,-168.54 354.64,-85.54 360.03,-79.22 366.89,-74.36 374.36,-70.63"/>
<polygon fill="black" stroke="black" points="273.36,-381.11 268.31,-390.43 278.06,-386.29 273.36,-381.11"/>
</g>
<!-- Serial&#45;&gt;Updater -->
<g id="edge26" class="edge">
<title>Serial&#45;&gt;Updater</title>
<path fill="none" stroke="black" stroke-dasharray="5,2" d="M275.75,-383.98C291.3,-369.43 308.83,-349.87 318.64,-328.54 346.4,-268.13 304.88,-75.63 354.64,-31.54 412.6,19.83 457.94,-0.49 528.89,-31.54 583.85,-55.58 625.37,-117.12 643.54,-148.11"/>
<polygon fill="black" stroke="black" points="273.58,-381.22 268.49,-390.52 278.27,-386.42 273.58,-381.22"/>
</g>
<!-- SucceedingSerialChronology&#45;&gt;ImmediatelyPrecedingSerial -->
<g id="edge5" class="edge">
<title>SucceedingSerialChronology&#45;&gt;ImmediatelyPrecedingSerial</title>
<path fill="none" stroke="black" stroke-dasharray="1,5" d="M529.14,-744.54C538.44,-744.54 547.95,-744.54 557.35,-744.54"/>
<polygon fill="black" stroke="black" points="557.24,-748.04 567.24,-744.54 557.24,-741.04 557.24,-748.04"/>
</g>
<!-- PrecedingSerialChronology&#45;&gt;ImmediatelySucceedingSerial -->
<g id="edge6" class="edge">
<title>PrecedingSerialChronology&#45;&gt;ImmediatelySucceedingSerial</title>
<path fill="none" stroke="black" stroke-dasharray="1,5" d="M525.2,-690.54C534.4,-690.54 543.84,-690.54 553.23,-690.54"/>
<polygon fill="black" stroke="black" points="553.12,-694.04 563.12,-690.54 553.12,-687.04 553.12,-694.04"/>
</g>
<!-- Role&#45;&gt;Verifier -->
<!-- VerifierRole&#45;&gt;Verifier -->
<g id="edge21" class="edge">
<title>VerifierRole&#45;&gt;Verifier</title>
<path fill="none" stroke="black" stroke-dasharray="1,5" d="M483.42,-269.33C521.28,-264.48 577.32,-257.31 614.63,-252.53"/>
<polygon fill="black" stroke="black" points="614.59,-256.06 624.07,-251.32 613.7,-249.12 614.59,-256.06"/>
</g>
<!-- Version&#45;&gt;PinboardItem -->
<!-- Creator&#45;&gt;Updater -->
<!-- AlternateValue -->
<g id="node1" class="node">
<title>AlternateValue</title>
<g id="a_node1"><a xlink:href="/develop/Data/models.html#alternate-value" xlink:title="AlternateValue" target="_top">
<ellipse fill="#abcdef" stroke="#dddeee" cx="66.19" cy="-517.54" rx="66.19" ry="18"/>
<text text-anchor="middle" x="66.19" y="-512.49" font-family="Times,serif" font-size="14.00">AlternateValue</text>
</a>
</g>
</g>
<!-- DataAttribute -->
<g id="node2" class="node">
<title>DataAttribute</title>
<g id="a_node2"><a xlink:href="/develop/Data/models.html#data-attribute" xlink:title="DataAttribute" target="_top">
<ellipse fill="#abcdef" stroke="#dddeee" cx="66.19" cy="-355.54" rx="61.59" ry="18"/>
<text text-anchor="middle" x="66.19" y="-350.49" font-family="Times,serif" font-size="14.00">DataAttribute</text>
</a>
</g>
</g>
<!-- Identifier -->
<g id="node3" class="node">
<title>Identifier</title>
<g id="a_node3"><a xlink:href="/develop/Data/models.html#identifier" xlink:title="Identifier" target="_top">
<ellipse fill="#abcdef" stroke="#dddeee" cx="66.19" cy="-463.54" rx="45.21" ry="18"/>
<text text-anchor="middle" x="66.19" y="-458.49" font-family="Times,serif" font-size="14.00">Identifier</text>
</a>
</g>
</g>
<!-- Tag -->
<g id="node4" class="node">
<title>Tag</title>
<g id="a_node4"><a xlink:href="/develop/Data/models.html#tag" xlink:title="Tag" target="_top">
<ellipse fill="#abcdef" stroke="#dddeee" cx="66.19" cy="-301.54" rx="27" ry="18"/>
<text text-anchor="middle" x="66.19" y="-296.49" font-family="Times,serif" font-size="14.00">Tag</text>
</a>
</g>
</g>
<!-- Note -->
<g id="node5" class="node">
<title>Note</title>
<g id="a_node5"><a xlink:href="/develop/Data/models.html#note" xlink:title="Note" target="_top">
<ellipse fill="#abcdef" stroke="#dddeee" cx="66.19" cy="-409.54" rx="28.83" ry="18"/>
<text text-anchor="middle" x="66.19" y="-404.49" font-family="Times,serif" font-size="14.00">Note</text>
</a>
</g>
</g>
<!-- Source -->
<g id="node6" class="node">
<title>Source</title>
<g id="a_node6"><a xlink:href="/develop/Data/models.html#source" xlink:title="Source" target="_top">
<path fill="#fedcba" stroke="#dddeee" d="M426.76,-781.54C426.76,-781.54 456.76,-781.54 456.76,-781.54 462.76,-781.54 468.76,-787.54 468.76,-793.54 468.76,-793.54 468.76,-805.54 468.76,-805.54 468.76,-811.54 462.76,-817.54 456.76,-817.54 456.76,-817.54 426.76,-817.54 426.76,-817.54 420.76,-817.54 414.76,-811.54 414.76,-805.54 414.76,-805.54 414.76,-793.54 414.76,-793.54 414.76,-787.54 420.76,-781.54 426.76,-781.54"/>
<text text-anchor="middle" x="441.76" y="-794.74" font-family="Times,serif" font-size="14.00">Source</text>
</a>
</g>
</g>
<!-- Serial -->
<g id="node7" class="node">
<title>Serial</title>
<g id="a_node7"><a xlink:href="/develop/Data/models.html#serial" xlink:title="Serial" target="_top">
<polygon fill="#cdefab" stroke="#dedede" points="278.6,-402.08 278.6,-416.99 258.05,-427.54 228.98,-427.54 208.43,-416.99 208.43,-402.08 228.98,-391.54 258.05,-391.54 278.6,-402.08"/>
<polygon fill="none" stroke="#dedede" points="282.6,-399.64 282.6,-419.44 259.01,-431.54 228.01,-431.54 204.43,-419.44 204.43,-399.64 228.01,-387.54 259.01,-387.54 282.6,-399.64"/>
<text text-anchor="middle" x="243.51" y="-404.49" font-family="Times,serif" font-size="14.00">Serial</text>
</a>
</g>
</g>
<!-- AlternateValueLanguage -->
<g id="node8" class="node">
<title>AlternateValueLanguage</title>
<g id="a_node8"><a xlink:href="/develop/Data/models.html#alternate-value-language" xlink:title="AlternateValueLanguage" target="_top">
<polygon fill="#eeefff" stroke="#dddeee" points="318.64,-535.54 168.39,-535.54 168.39,-499.54 318.64,-499.54 318.64,-535.54"/>
<text text-anchor="middle" x="243.51" y="-512.49" font-family="Times,serif" font-size="14.00">AlternateValueLanguage</text>
</a>
</g>
</g>
<!-- SucceedingSerialChronology -->
<g id="node9" class="node">
<title>SucceedingSerialChronology</title>
<g id="a_node9"><a xlink:href="/develop/Data/models.html#succeeding-serial-chronology" xlink:title="SucceedingSerialChronology" target="_top">
<polygon fill="#eeefff" stroke="#dddeee" points="528.89,-762.54 354.64,-762.54 354.64,-726.54 528.89,-726.54 528.89,-762.54"/>
<text text-anchor="middle" x="441.76" y="-739.49" font-family="Times,serif" font-size="14.00">SucceedingSerialChronology</text>
</a>
</g>
</g>
<!-- ImmediatelyPrecedingSerial -->
<g id="node10" class="node">
<title>ImmediatelyPrecedingSerial</title>
<g id="a_node10"><a xlink:href="/develop/Data/models.html#immediately-preceding-serial" xlink:title="ImmediatelyPrecedingSerial" target="_top">
<polygon fill="#eeefff" stroke="#dddeee" points="740.26,-762.54 569.01,-762.54 569.01,-726.54 740.26,-726.54 740.26,-762.54"/>
<text text-anchor="middle" x="654.64" y="-739.49" font-family="Times,serif" font-size="14.00">ImmediatelyPrecedingSerial</text>
</a>
</g>
</g>
<!-- PrecedingSerialChronology -->
<g id="node11" class="node">
<title>PrecedingSerialChronology</title>
<g id="a_node11"><a xlink:href="/develop/Data/models.html#preceding-serial-chronology" xlink:title="PrecedingSerialChronology" target="_top">
<polygon fill="#eeefff" stroke="#dddeee" points="524.76,-708.54 358.76,-708.54 358.76,-672.54 524.76,-672.54 524.76,-708.54"/>
<text text-anchor="middle" x="441.76" y="-685.49" font-family="Times,serif" font-size="14.00">PrecedingSerialChronology</text>
</a>
</g>
</g>
<!-- ImmediatelySucceedingSerial -->
<g id="node12" class="node">
<title>ImmediatelySucceedingSerial</title>
<g id="a_node12"><a xlink:href="/develop/Data/models.html#immediately-succeeding-serial" xlink:title="ImmediatelySucceedingSerial" target="_top">
<polygon fill="#eeefff" stroke="#dddeee" points="744.39,-708.54 564.89,-708.54 564.89,-672.54 744.39,-672.54 744.39,-708.54"/>
<text text-anchor="middle" x="654.64" y="-685.49" font-family="Times,serif" font-size="14.00">ImmediatelySucceedingSerial</text>
</a>
</g>
</g>
<!-- ImportAttribute -->
<g id="node13" class="node">
<title>ImportAttribute</title>
<g id="a_node13"><a xlink:href="/develop/Data/models.html#import-attribute" xlink:title="ImportAttribute" target="_top">
<polygon fill="#eeefff" stroke="#dddeee" points="492.89,-654.54 390.64,-654.54 390.64,-618.54 492.89,-618.54 492.89,-654.54"/>
<text text-anchor="middle" x="441.76" y="-631.49" font-family="Times,serif" font-size="14.00">ImportAttribute</text>
</a>
</g>
</g>
<!-- InternalAttribute -->
<g id="node14" class="node">
<title>InternalAttribute</title>
<g id="a_node14"><a xlink:href="/develop/Data/models.html#internal-attribute" xlink:title="InternalAttribute" target="_top">
<polygon fill="#eeefff" stroke="#dddeee" points="495.14,-600.54 388.39,-600.54 388.39,-564.54 495.14,-564.54 495.14,-600.54"/>
<text text-anchor="middle" x="441.76" y="-577.49" font-family="Times,serif" font-size="14.00">InternalAttribute</text>
</a>
</g>
</g>
<!-- Keyword -->
<g id="node15" class="node">
<title>Keyword</title>
<g id="a_node15"><a xlink:href="/develop/Data/models.html#keyword" xlink:title="Keyword" target="_top">
<polygon fill="#eeefff" stroke="#dddeee" points="276.64,-319.54 210.39,-319.54 210.39,-283.54 276.64,-283.54 276.64,-319.54"/>
<text text-anchor="middle" x="243.51" y="-296.49" font-family="Times,serif" font-size="14.00">Keyword</text>
</a>
</g>
</g>
<!-- PinboardItem -->
<g id="node16" class="node">
<title>PinboardItem</title>
<g id="a_node16"><a xlink:href="/develop/Data/models.html#pinboard-item" xlink:title="PinboardItem" target="_top">
<polygon fill="#eeefff" stroke="#dddeee" points="699.76,-508.54 609.51,-508.54 609.51,-472.54 699.76,-472.54 699.76,-508.54"/>
<text text-anchor="middle" x="654.64" y="-485.49" font-family="Times,serif" font-size="14.00">PinboardItem</text>
</a>
</g>
</g>
<!-- Role -->
<g id="node17" class="node">
<title>Role</title>
<g id="a_node17"><a xlink:href="/develop/Data/models.html#role" xlink:title="Role" target="_top">
<polygon fill="#eeefff" stroke="#dddeee" points="468.76,-238.54 414.76,-238.54 414.76,-202.54 468.76,-202.54 468.76,-238.54"/>
<text text-anchor="middle" x="441.76" y="-215.49" font-family="Times,serif" font-size="14.00">Role</text>
</a>
</g>
</g>
<!-- Translation -->
<g id="node18" class="node">
<title>Translation</title>
<g id="a_node18"><a xlink:href="/develop/Data/models.html#translation" xlink:title="Translation" target="_top">
<polygon fill="#eeefff" stroke="#dddeee" points="480.51,-454.54 403.01,-454.54 403.01,-418.54 480.51,-418.54 480.51,-454.54"/>
<text text-anchor="middle" x="441.76" y="-431.49" font-family="Times,serif" font-size="14.00">Translation</text>
</a>
</g>
</g>
<!-- Uri -->
<g id="node19" class="node">
<title>Uri</title>
<g id="a_node19"><a xlink:href="/develop/Data/models.html#uri" xlink:title="Uri" target="_top">
<polygon fill="#eeefff" stroke="#dddeee" points="468.76,-400.54 414.76,-400.54 414.76,-364.54 468.76,-364.54 468.76,-400.54"/>
<text text-anchor="middle" x="441.76" y="-377.49" font-family="Times,serif" font-size="14.00">Uri</text>
</a>
</g>
</g>
<!-- Uuid -->
<g id="node20" class="node">
<title>Uuid</title>
<g id="a_node20"><a xlink:href="/develop/Data/models.html#uuid" xlink:title="Uuid" target="_top">
<polygon fill="#eeefff" stroke="#dddeee" points="468.76,-346.54 414.76,-346.54 414.76,-310.54 468.76,-310.54 468.76,-346.54"/>
<text text-anchor="middle" x="441.76" y="-323.49" font-family="Times,serif" font-size="14.00">Uuid</text>
</a>
</g>
</g>
<!-- VerifierRole -->
<g id="node21" class="node">
<title>VerifierRole</title>
<g id="a_node21"><a xlink:href="/develop/Data/models.html#verifier-role" xlink:title="VerifierRole" target="_top">
<polygon fill="#eeefff" stroke="#dddeee" points="483.14,-292.54 400.39,-292.54 400.39,-256.54 483.14,-256.54 483.14,-292.54"/>
<text text-anchor="middle" x="441.76" y="-269.49" font-family="Times,serif" font-size="14.00">VerifierRole</text>
</a>
</g>
</g>
<!-- Verifier -->
<g id="node22" class="node">
<title>Verifier</title>
<g id="a_node22"><a xlink:href="/develop/Data/models.html#verifier" xlink:title="Verifier" target="_top">
<polygon fill="#eeefff" stroke="#dddeee" points="683.26,-265.54 626.01,-265.54 626.01,-229.54 683.26,-229.54 683.26,-265.54"/>
<text text-anchor="middle" x="654.64" y="-242.49" font-family="Times,serif" font-size="14.00">Verifier</text>
</a>
</g>
</g>
<!-- Version -->
<g id="node23" class="node">
<title>Version</title>
<g id="a_node23"><a xlink:href="/develop/Data/models.html#version" xlink:title="Version" target="_top">
<polygon fill="#eeefff" stroke="#dddeee" points="470.39,-508.54 413.14,-508.54 413.14,-472.54 470.39,-472.54 470.39,-508.54"/>
<text text-anchor="middle" x="441.76" y="-485.49" font-family="Times,serif" font-size="14.00">Version</text>
</a>
</g>
</g>
<!-- Creator -->
<g id="node24" class="node">
<title>Creator</title>
<g id="a_node24"><a xlink:href="/develop/Data/models.html#creator" xlink:title="Creator" target="_top">
<polygon fill="#eeefff" stroke="#dddeee" points="470.01,-184.54 413.51,-184.54 413.51,-148.54 470.01,-148.54 470.01,-184.54"/>
<text text-anchor="middle" x="441.76" y="-161.49" font-family="Times,serif" font-size="14.00">Creator</text>
</a>
</g>
</g>
<!-- Language -->
<g id="node25" class="node">
<title>Language</title>
<g id="a_node25"><a xlink:href="/develop/Data/models.html#language" xlink:title="Language" target="_top">
<polygon fill="#eeefff" stroke="#dddeee" points="476.39,-130.54 407.14,-130.54 407.14,-94.54 476.39,-94.54 476.39,-130.54"/>
<text text-anchor="middle" x="441.76" y="-107.49" font-family="Times,serif" font-size="14.00">Language</text>
</a>
</g>
</g>
<!-- TranslatedFromSerial -->
<g id="node26" class="node">
<title>TranslatedFromSerial</title>
<g id="a_node26"><a xlink:href="/develop/Data/models.html#translated-from-serial" xlink:title="TranslatedFromSerial" target="_top">
<polygon fill="#eeefff" stroke="#dddeee" points="509.01,-76.54 374.51,-76.54 374.51,-40.54 509.01,-40.54 509.01,-76.54"/>
<text text-anchor="middle" x="441.76" y="-53.49" font-family="Times,serif" font-size="14.00">TranslatedFromSerial</text>
</a>
</g>
</g>
<!-- Updater -->
<g id="node27" class="node">
<title>Updater</title>
<g id="a_node27"><a xlink:href="/develop/Data/models.html#updater" xlink:title="Updater" target="_top">
<polygon fill="#eeefff" stroke="#dddeee" points="684.39,-184.54 624.89,-184.54 624.89,-148.54 684.39,-148.54 684.39,-184.54"/>
<text text-anchor="middle" x="654.64" y="-161.49" font-family="Times,serif" font-size="14.00">Updater</text>
</a>
</g>
</g>
</g>
</svg>
