<?xml version="1.0" encoding="UTF-8" standalone="no"?>
<!DOCTYPE svg PUBLIC "-//W3C//DTD SVG 1.1//EN"
 "http://www.w3.org/Graphics/SVG/1.1/DTD/svg11.dtd">
<!-- Generated by graphviz version 12.2.1 (20241206.2353)
 -->
<!-- Title: SledImage Pages: 1 -->
<svg width="572pt" height="375pt"
 viewBox="0.00 0.00 571.57 374.65" xmlns="http://www.w3.org/2000/svg" xmlns:xlink="http://www.w3.org/1999/xlink">
<g id="graph0" class="graph" transform="scale(1 1) rotate(0) translate(4 370.65)">
<title>SledImage</title>
<polygon fill="white" stroke="none" points="-4,4 -4,-370.65 567.57,-370.65 567.57,4 -4,4"/>
<!-- Depiction&#45;&gt;CollectionObject -->
<g id="edge1" class="edge">
<title>Depiction&#45;&gt;CollectionObject</title>
<path fill="none" stroke="black" stroke-dasharray="1,5" d="M90.73,-331.42C101.19,-333.21 112.63,-335.17 123.89,-337.09"/>
<polygon fill="black" stroke="black" points="123.09,-340.51 133.54,-338.74 124.27,-333.61 123.09,-340.51"/>
</g>
<!-- Tag&#45;&gt;Keyword -->
<g id="edge3" class="edge">
<title>Tag&#45;&gt;Keyword</title>
<path fill="none" stroke="black" stroke-dasharray="1,5" d="M74.64,-195.53C94.4,-195.81 121.87,-196.2 144.89,-196.53"/>
<polygon fill="black" stroke="black" points="144.55,-200.03 154.6,-196.67 144.65,-193.03 144.55,-200.03"/>
</g>
<!-- SledImage&#45;&gt;Tag -->
<g id="edge7" class="edge">
<title>SledImage&#45;&gt;Tag</title>
<path fill="none" stroke="black" d="M147.57,-155.51C126.64,-163.86 101.5,-173.9 81.75,-181.78"/>
<polygon fill="black" stroke="black" points="80.5,-178.51 72.51,-185.47 83.1,-185.01 80.5,-178.51"/>
</g>
<!-- SledImage&#45;&gt;Note -->
<g id="edge4" class="edge">
<title>SledImage&#45;&gt;Note</title>
<path fill="none" stroke="black" d="M130.1,-139.15C115.85,-139.15 100.93,-139.15 87.8,-139.15"/>
<polygon fill="black" stroke="black" points="87.82,-135.65 77.82,-139.15 87.82,-142.65 87.82,-135.65"/>
</g>
<!-- SledImage&#45;&gt;Image -->
<g id="edge11" class="edge">
<title>SledImage&#45;&gt;Image</title>
<path fill="none" stroke="black" stroke-dasharray="5,2" d="M240.07,-161.99C243.17,-164.48 246.05,-167.2 248.57,-170.15 280.33,-207.35 253.91,-236.04 284.57,-274.15 289.41,-280.17 295.98,-285.19 302.57,-289.21"/>
<polygon fill="black" stroke="black" points="242.34,-159.3 232.14,-156.43 238.32,-165.03 242.34,-159.3"/>
</g>
<!-- SledImage&#45;&gt;PinboardItem -->
<g id="edge5" class="edge">
<title>SledImage&#45;&gt;PinboardItem</title>
<path fill="none" stroke="black" d="M228.7,-156.3C235.69,-160.32 242.64,-164.96 248.57,-170.15 269.18,-188.18 264.5,-201.53 284.57,-220.15 285.19,-220.72 285.82,-221.29 286.46,-221.85"/>
<polygon fill="black" stroke="black" points="284.12,-224.47 294.16,-227.84 288.42,-218.94 284.12,-224.47"/>
</g>
<!-- SledImage&#45;&gt;Role -->
<g id="edge6" class="edge">
<title>SledImage&#45;&gt;Role</title>
<path fill="none" stroke="black" d="M231.99,-155.35C251.04,-162.8 273.44,-171.55 291.88,-178.76"/>
<polygon fill="black" stroke="black" points="290.51,-181.98 301.1,-182.36 293.06,-175.46 290.51,-181.98"/>
</g>
<!-- SledImage&#45;&gt;VerifierRole -->
<g id="edge8" class="edge">
<title>SledImage&#45;&gt;VerifierRole</title>
<path fill="none" stroke="black" d="M248.73,-139.15C258.06,-139.15 267.67,-139.15 276.84,-139.15"/>
<polygon fill="black" stroke="black" points="276.66,-142.65 286.66,-139.15 276.66,-135.65 276.66,-142.65"/>
</g>
<!-- SledImage&#45;&gt;Creator -->
<g id="edge10" class="edge">
<title>SledImage&#45;&gt;Creator</title>
<path fill="none" stroke="black" stroke-dasharray="5,2" d="M246.02,-120.59C282.77,-108.05 331.93,-90.8 374.82,-74.15 386.68,-69.55 399.62,-64.13 410.73,-59.36"/>
<polygon fill="black" stroke="black" points="245.29,-117.14 236.95,-123.68 247.54,-123.77 245.29,-117.14"/>
</g>
<!-- SledImage&#45;&gt;Project -->
<g id="edge12" class="edge">
<title>SledImage&#45;&gt;Project</title>
<path fill="none" stroke="black" stroke-dasharray="5,2" d="M230.1,-112.81C253.34,-97.33 282.06,-78.21 302.5,-64.6"/>
<polygon fill="black" stroke="black" points="228.16,-109.89 221.78,-118.35 232.04,-115.72 228.16,-109.89"/>
</g>
<!-- SledImage&#45;&gt;Updater -->
<g id="edge13" class="edge">
<title>SledImage&#45;&gt;Updater</title>
<path fill="none" stroke="black" stroke-dasharray="5,2" d="M205.49,-106.98C220.82,-78.26 247.64,-38.04 284.57,-20.15 357.97,15.4 388.1,-4.15 468.07,-20.15 480.13,-22.57 492.76,-27.28 503.62,-32.1"/>
<polygon fill="black" stroke="black" points="202.51,-105.14 201.06,-115.64 208.74,-108.33 202.51,-105.14"/>
</g>
<!-- Image&#45;&gt;Depiction -->
<g id="edge2" class="edge">
<title>Image&#45;&gt;Depiction</title>
<path fill="none" stroke="black" stroke-dasharray="1,5" d="M302.44,-303.31C257.61,-306.98 165.32,-314.55 105.15,-319.49"/>
<polygon fill="black" stroke="black" points="105.13,-315.98 95.45,-320.28 105.7,-322.95 105.13,-315.98"/>
</g>
<!-- Role&#45;&gt;Verifier -->
<!-- VerifierRole&#45;&gt;Verifier -->
<g id="edge9" class="edge">
<title>VerifierRole&#45;&gt;Verifier</title>
<path fill="none" stroke="black" stroke-dasharray="1,5" d="M371.43,-149.36C380.57,-151.65 390.24,-154.07 399.31,-156.34"/>
<polygon fill="black" stroke="black" points="398.36,-159.72 408.92,-158.75 400.07,-152.93 398.36,-159.72"/>
</g>
<!-- Creator&#45;&gt;Updater -->
<!-- Project&#45;&gt;Creator -->
<!-- Depiction -->
<g id="node1" class="node">
<title>Depiction</title>
<g id="a_node1"><a xlink:href="/develop/Data/models.html#depiction" xlink:title="Depiction" target="_top">
<ellipse fill="#abcdef" stroke="#dddeee" cx="47.26" cy="-324.15" rx="47.26" ry="18"/>
<text text-anchor="middle" x="47.26" y="-319.1" font-family="Times,serif" font-size="14.00">Depiction</text>
</a>
</g>
</g>
<!-- Tag -->
<g id="node2" class="node">
<title>Tag</title>
<g id="a_node2"><a xlink:href="/develop/Data/models.html#tag" xlink:title="Tag" target="_top">
<ellipse fill="#abcdef" stroke="#dddeee" cx="47.26" cy="-195.15" rx="27" ry="18"/>
<text text-anchor="middle" x="47.26" y="-190.1" font-family="Times,serif" font-size="14.00">Tag</text>
</a>
</g>
</g>
<!-- Note -->
<g id="node3" class="node">
<title>Note</title>
<g id="a_node3"><a xlink:href="/develop/Data/models.html#note" xlink:title="Note" target="_top">
<ellipse fill="#abcdef" stroke="#dddeee" cx="47.26" cy="-139.15" rx="28.83" ry="18"/>
<text text-anchor="middle" x="47.26" y="-134.1" font-family="Times,serif" font-size="14.00">Note</text>
</a>
</g>
</g>
<!-- CollectionObject -->
<g id="node4" class="node">
<title>CollectionObject</title>
<g id="a_node4"><a xlink:href="/develop/Data/models.html#collection-object" xlink:title="CollectionObject" target="_top">
<path fill="#fedcba" stroke="#dddeee" d="M147.42,-330.15C147.42,-330.15 231.67,-330.15 231.67,-330.15 237.67,-330.15 243.67,-336.15 243.67,-342.15 243.67,-342.15 243.67,-354.15 243.67,-354.15 243.67,-360.15 237.67,-366.15 231.67,-366.15 231.67,-366.15 147.42,-366.15 147.42,-366.15 141.42,-366.15 135.42,-360.15 135.42,-354.15 135.42,-354.15 135.42,-342.15 135.42,-342.15 135.42,-336.15 141.42,-330.15 147.42,-330.15"/>
<text text-anchor="middle" x="189.54" y="-343.35" font-family="Times,serif" font-size="14.00">CollectionObject</text>
</a>
</g>
</g>
<!-- SledImage -->
<g id="node5" class="node">
<title>SledImage</title>
<g id="a_node5"><a xlink:href="/develop/Data/models.html#sled-image" xlink:title="SledImage" target="_top">
<polygon fill="#cdefab" stroke="#dedede" points="244.57,-131.7 244.57,-146.61 212.34,-157.15 166.75,-157.15 134.51,-146.61 134.51,-131.7 166.75,-121.15 212.34,-121.15 244.57,-131.7"/>
<polygon fill="none" stroke="#dedede" points="248.57,-128.8 248.57,-149.51 212.97,-161.15 166.11,-161.15 130.51,-149.51 130.51,-128.8 166.11,-117.15 212.97,-117.15 248.57,-128.8"/>
<text text-anchor="middle" x="189.54" y="-134.1" font-family="Times,serif" font-size="14.00">SledImage</text>
</a>
</g>
</g>
<!-- Image -->
<g id="node6" class="node">
<title>Image</title>
<g id="a_node6"><a xlink:href="/develop/Data/models.html#image" xlink:title="Image" target="_top">
<polygon fill="#eeefff" stroke="#dddeee" points="356.7,-319.15 302.7,-319.15 302.7,-283.15 356.7,-283.15 356.7,-319.15"/>
<text text-anchor="middle" x="329.7" y="-296.1" font-family="Times,serif" font-size="14.00">Image</text>
</a>
</g>
</g>
<!-- Keyword -->
<g id="node7" class="node">
<title>Keyword</title>
<g id="a_node7"><a xlink:href="/develop/Data/models.html#keyword" xlink:title="Keyword" target="_top">
<polygon fill="#eeefff" stroke="#dddeee" points="222.67,-215.15 156.42,-215.15 156.42,-179.15 222.67,-179.15 222.67,-215.15"/>
<text text-anchor="middle" x="189.54" y="-192.1" font-family="Times,serif" font-size="14.00">Keyword</text>
</a>
</g>
</g>
<!-- PinboardItem -->
<g id="node8" class="node">
<title>PinboardItem</title>
<g id="a_node8"><a xlink:href="/develop/Data/models.html#pinboard-item" xlink:title="PinboardItem" target="_top">
<polygon fill="#eeefff" stroke="#dddeee" points="374.82,-265.15 284.57,-265.15 284.57,-229.15 374.82,-229.15 374.82,-265.15"/>
<text text-anchor="middle" x="329.7" y="-242.1" font-family="Times,serif" font-size="14.00">PinboardItem</text>
</a>
</g>
</g>
<!-- Role -->
<g id="node9" class="node">
<title>Role</title>
<g id="a_node9"><a xlink:href="/develop/Data/models.html#role" xlink:title="Role" target="_top">
<polygon fill="#eeefff" stroke="#dddeee" points="356.7,-211.15 302.7,-211.15 302.7,-175.15 356.7,-175.15 356.7,-211.15"/>
<text text-anchor="middle" x="329.7" y="-188.1" font-family="Times,serif" font-size="14.00">Role</text>
</a>
</g>
</g>
<!-- VerifierRole -->
<g id="node10" class="node">
<title>VerifierRole</title>
<g id="a_node10"><a xlink:href="/develop/Data/models.html#verifier-role" xlink:title="VerifierRole" target="_top">
<polygon fill="#eeefff" stroke="#dddeee" points="371.07,-157.15 288.32,-157.15 288.32,-121.15 371.07,-121.15 371.07,-157.15"/>
<text text-anchor="middle" x="329.7" y="-134.1" font-family="Times,serif" font-size="14.00">VerifierRole</text>
</a>
</g>
</g>
<!-- Verifier -->
<g id="node11" class="node">
<title>Verifier</title>
<g id="a_node11"><a xlink:href="/develop/Data/models.html#verifier" xlink:title="Verifier" target="_top">
<polygon fill="#eeefff" stroke="#dddeee" points="468.07,-184.15 410.82,-184.15 410.82,-148.15 468.07,-148.15 468.07,-184.15"/>
<text text-anchor="middle" x="439.45" y="-161.1" font-family="Times,serif" font-size="14.00">Verifier</text>
</a>
</g>
</g>
<!-- Creator -->
<g id="node12" class="node">
<title>Creator</title>
<g id="a_node12"><a xlink:href="/develop/Data/models.html#creator" xlink:title="Creator" target="_top">
<polygon fill="#eeefff" stroke="#dddeee" points="467.7,-65.15 411.2,-65.15 411.2,-29.15 467.7,-29.15 467.7,-65.15"/>
<text text-anchor="middle" x="439.45" y="-42.1" font-family="Times,serif" font-size="14.00">Creator</text>
</a>
</g>
</g>
<!-- Project -->
<g id="node13" class="node">
<title>Project</title>
<g id="a_node13"><a xlink:href="/develop/Data/models.html#project" xlink:title="Project" target="_top">
<polygon fill="#eeefff" stroke="#dddeee" points="356.82,-65.15 302.57,-65.15 302.57,-29.15 356.82,-29.15 356.82,-65.15"/>
<text text-anchor="middle" x="329.7" y="-42.1" font-family="Times,serif" font-size="14.00">Project</text>
</a>
</g>
</g>
<!-- Updater -->
<g id="node14" class="node">
<title>Updater</title>
<g id="a_node14"><a xlink:href="/develop/Data/models.html#updater" xlink:title="Updater" target="_top">
<polygon fill="#eeefff" stroke="#dddeee" points="563.57,-65.15 504.07,-65.15 504.07,-29.15 563.57,-29.15 563.57,-65.15"/>
<text text-anchor="middle" x="533.82" y="-42.1" font-family="Times,serif" font-size="14.00">Updater</text>
</a>
</g>
</g>
</g>
</svg>
