<?xml version="1.0" encoding="UTF-8" standalone="no"?>
<!DOCTYPE svg PUBLIC "-//W3C//DTD SVG 1.1//EN"
 "http://www.w3.org/Graphics/SVG/1.1/DTD/svg11.dtd">
<!-- Generated by graphviz version 12.2.1 (20241206.2353)
 -->
<!-- Title: Source Pages: 1 -->
<svg width="784pt" height="752pt"
 viewBox="0.00 0.00 783.64 752.00" xmlns="http://www.w3.org/2000/svg" xmlns:xlink="http://www.w3.org/1999/xlink">
<g id="graph0" class="graph" transform="scale(1 1) rotate(0) translate(4 748)">
<title>Source</title>
<polygon fill="white" stroke="none" points="-4,4 -4,-748 779.64,-748 779.64,4 -4,4"/>
<!-- AlternateValue&#45;&gt;AlternateValueLanguage -->
<g id="edge1" class="edge">
<title>AlternateValue&#45;&gt;AlternateValueLanguage</title>
<path fill="none" stroke="black" stroke-dasharray="1,5" d="M132.48,-458C140.35,-458 148.48,-458 156.6,-458"/>
<polygon fill="black" stroke="black" points="156.51,-461.5 166.51,-458 156.51,-454.5 156.51,-461.5"/>
</g>
<!-- Citation&#45;&gt;CitationTopic -->
<g id="edge3" class="edge">
<title>Citation&#45;&gt;CitationTopic</title>
<path fill="none" stroke="black" stroke-dasharray="1,5" d="M93.82,-146.63C120.79,-133.1 163.06,-111.88 195.64,-95.52"/>
<polygon fill="black" stroke="black" points="197.13,-98.69 204.5,-91.08 193.99,-92.44 197.13,-98.69"/>
</g>
<!-- Tag&#45;&gt;Keyword -->
<g id="edge11" class="edge">
<title>Tag&#45;&gt;Keyword</title>
<path fill="none" stroke="black" stroke-dasharray="1,5" d="M92.69,-42.78C120.47,-38.19 165.41,-30.75 198.83,-25.23"/>
<polygon fill="black" stroke="black" points="199.34,-28.69 208.64,-23.6 198.2,-21.78 199.34,-28.69"/>
</g>
<!-- Source&#45;&gt;AlternateValue -->
<g id="edge2" class="edge">
<title>Source&#45;&gt;AlternateValue</title>
<path fill="none" stroke="black" d="M212.44,-391.09C190.48,-402.65 159.86,-418.35 132.39,-431 126.82,-433.56 120.95,-436.15 115.09,-438.66"/>
<polygon fill="black" stroke="black" points="113.89,-435.37 106.04,-442.49 116.61,-441.82 113.89,-435.37"/>
</g>
<!-- Source&#45;&gt;Citation -->
<g id="edge4" class="edge">
<title>Source&#45;&gt;Citation</title>
<path fill="none" stroke="black" d="M224.73,-353.19C192.09,-313.16 122.8,-228.19 88.02,-185.54"/>
<polygon fill="black" stroke="black" points="90.94,-183.58 81.91,-178.04 85.51,-188.01 90.94,-183.58"/>
</g>
<!-- Source&#45;&gt;DataAttribute -->
<g id="edge5" class="edge">
<title>Source&#45;&gt;DataAttribute</title>
<path fill="none" stroke="black" d="M199.61,-382.1C179.14,-385.48 154.22,-389.61 131.54,-393.36"/>
<polygon fill="black" stroke="black" points="131.06,-389.89 121.76,-394.97 132.2,-396.79 131.06,-389.89"/>
</g>
<!-- Source&#45;&gt;Identifier -->
<g id="edge8" class="edge">
<title>Source&#45;&gt;Identifier</title>
<path fill="none" stroke="black" d="M199.64,-368.89C175.78,-365.48 145.85,-361.22 120.48,-357.6"/>
<polygon fill="black" stroke="black" points="121.08,-354.15 110.69,-356.2 120.09,-361.08 121.08,-354.15"/>
</g>
<!-- Source&#45;&gt;Tag -->
<g id="edge18" class="edge">
<title>Source&#45;&gt;Tag</title>
<path fill="none" stroke="black" d="M234.34,-352.82C217.85,-309.23 178.26,-209.91 132.39,-133 119.19,-110.87 101.35,-87.7 87.68,-70.99"/>
<polygon fill="black" stroke="black" points="90.61,-69.04 81.53,-63.58 85.22,-73.51 90.61,-69.04"/>
</g>
<!-- Source&#45;&gt;Note -->
<g id="edge12" class="edge">
<title>Source&#45;&gt;Note</title>
<path fill="none" stroke="black" d="M210.89,-359.57C188.98,-349 159.07,-334.81 132.39,-323 122.43,-318.59 111.54,-313.99 101.55,-309.86"/>
<polygon fill="black" stroke="black" points="103.14,-306.73 92.55,-306.17 100.48,-313.21 103.14,-306.73"/>
</g>
<!-- Source&#45;&gt;Documentation -->
<g id="edge6" class="edge">
<title>Source&#45;&gt;Documentation</title>
<path fill="none" stroke="black" d="M275.27,-390.54C290.84,-400.05 308.55,-413.73 318.64,-431 379.25,-534.77 285.38,-600.78 354.64,-699 354.71,-699.1 354.78,-699.2 354.85,-699.3"/>
<polygon fill="black" stroke="black" points="352.17,-701.56 361.59,-706.42 357.26,-696.75 352.17,-701.56"/>
</g>
<!-- Source&#45;&gt;ImportAttribute -->
<g id="edge9" class="edge">
<title>Source&#45;&gt;ImportAttribute</title>
<path fill="none" stroke="black" d="M271.56,-392.31C286.39,-402.54 304.57,-416.34 318.64,-431 338.1,-451.28 333.52,-464.45 354.64,-483 355.41,-483.68 356.2,-484.35 357.02,-485"/>
<polygon fill="black" stroke="black" points="354.83,-487.74 365.01,-490.69 358.89,-482.04 354.83,-487.74"/>
</g>
<!-- Source&#45;&gt;InternalAttribute -->
<g id="edge10" class="edge">
<title>Source&#45;&gt;InternalAttribute</title>
<path fill="none" stroke="black" d="M275.84,-390.62C299.72,-402.52 333,-419.11 360.05,-432.59"/>
<polygon fill="black" stroke="black" points="358.22,-435.59 368.73,-436.92 361.35,-429.33 358.22,-435.59"/>
</g>
<!-- Source&#45;&gt;OriginCitation -->
<g id="edge13" class="edge">
<title>Source&#45;&gt;OriginCitation</title>
<path fill="none" stroke="black" d="M287.21,-376.07C306.17,-378.45 328.78,-382.05 349.22,-385.9"/>
<polygon fill="black" stroke="black" points="348.35,-389.3 358.84,-387.78 349.69,-382.43 348.35,-389.3"/>
</g>
<!-- Source&#45;&gt;OriginCitation -->
<!-- Source&#45;&gt;PinboardItem -->
<g id="edge14" class="edge">
<title>Source&#45;&gt;PinboardItem</title>
<path fill="none" stroke="black" d="M274.44,-359.1C296.34,-347.77 326.93,-332.56 354.64,-321 367.19,-315.76 435.74,-292.13 486.19,-274.86"/>
<polygon fill="black" stroke="black" points="487.21,-278.21 495.54,-271.66 484.95,-271.59 487.21,-278.21"/>
</g>
<!-- Source&#45;&gt;ProjectSource -->
<g id="edge15" class="edge">
<title>Source&#45;&gt;ProjectSource</title>
<path fill="none" stroke="black" d="M251.29,-352.59C264.99,-310.33 299.44,-217.73 354.64,-158 356.84,-155.62 359.26,-153.35 361.82,-151.2"/>
<polygon fill="black" stroke="black" points="363.8,-154.08 369.69,-145.27 359.6,-148.49 363.8,-154.08"/>
</g>
<!-- Source&#45;&gt;Role -->
<g id="edge17" class="edge">
<title>Source&#45;&gt;Role</title>
<path fill="none" stroke="black" d="M273.97,-391.38C289.17,-401.14 306.93,-414.79 318.64,-431 347.77,-471.33 322.16,-499.3 354.64,-537 359.04,-542.11 364.66,-546.39 370.56,-549.91"/>
<polygon fill="black" stroke="black" points="368.79,-552.93 379.28,-554.45 372.03,-546.72 368.79,-552.93"/>
</g>
<!-- Source&#45;&gt;Uri -->
<g id="edge20" class="edge">
<title>Source&#45;&gt;Uri</title>
<path fill="none" stroke="black" d="M275.04,-390.67C290.55,-400.23 308.27,-413.9 318.64,-431 368.66,-513.46 297.76,-567.11 354.64,-645 358.83,-650.75 364.62,-655.36 370.82,-659.04"/>
<polygon fill="black" stroke="black" points="368.88,-661.98 379.38,-663.39 372.05,-655.74 368.88,-661.98"/>
</g>
<!-- Source&#45;&gt;Uuid -->
<g id="edge21" class="edge">
<title>Source&#45;&gt;Uuid</title>
<path fill="none" stroke="black" d="M274.67,-390.9C290.07,-400.53 307.8,-414.19 318.64,-431 358.13,-492.26 310.06,-533.33 354.64,-591 358.95,-596.58 364.73,-601.11 370.89,-604.75"/>
<polygon fill="black" stroke="black" points="368.86,-607.64 379.35,-609.08 372.04,-601.41 368.86,-607.64"/>
</g>
<!-- Source&#45;&gt;VerifierRole -->
<g id="edge22" class="edge">
<title>Source&#45;&gt;VerifierRole</title>
<path fill="none" stroke="black" d="M287.21,-367.91C308.03,-364.45 333.24,-360.26 355.16,-356.62"/>
<polygon fill="black" stroke="black" points="355.5,-360.11 364.79,-355.02 354.35,-353.2 355.5,-360.11"/>
</g>
<!-- Source&#45;&gt;Version -->
<g id="edge24" class="edge">
<title>Source&#45;&gt;Version</title>
<path fill="none" stroke="black" d="M267.1,-355.84C288.94,-337.64 323.25,-309.87 354.64,-288 359.33,-284.73 364.35,-281.43 369.36,-278.25"/>
<polygon fill="black" stroke="black" points="370.96,-281.38 377.6,-273.13 367.26,-275.43 370.96,-281.38"/>
</g>
<!-- Source&#45;&gt;Creator -->
<g id="edge25" class="edge">
<title>Source&#45;&gt;Creator</title>
<path fill="none" stroke="black" stroke-dasharray="5,2" d="M255.38,-341.83C270.67,-300.69 302.65,-231.64 354.64,-196 441.5,-136.46 486.82,-183.41 587.64,-153 599.64,-149.38 612.44,-144.19 623.36,-139.32"/>
<polygon fill="black" stroke="black" points="252.09,-340.63 252.02,-351.22 258.68,-342.99 252.09,-340.63"/>
</g>
<!-- Source&#45;&gt;Updater -->
<g id="edge26" class="edge">
<title>Source&#45;&gt;Updater</title>
<path fill="none" stroke="black" stroke-dasharray="5,2" d="M260.19,-342.73C278.25,-309.07 311.11,-257.33 354.64,-229 385.76,-208.74 644.79,-164.41 680.14,-153 692.08,-149.15 704.89,-144.02 715.94,-139.28"/>
<polygon fill="black" stroke="black" points="257.29,-340.72 255.77,-351.21 263.49,-343.96 257.29,-340.72"/>
</g>
<!-- CitationTopic&#45;&gt;Topic -->
<g id="edge19" class="edge">
<title>CitationTopic&#45;&gt;Topic</title>
<path fill="none" stroke="black" stroke-dasharray="1,5" d="M289.35,-72C314.42,-72 345.33,-72 369.17,-72"/>
<polygon fill="black" stroke="black" points="369.08,-75.5 379.08,-72 369.08,-68.5 369.08,-75.5"/>
</g>
<!-- Documentation&#45;&gt;Document -->
<g id="edge7" class="edge">
<title>Documentation&#45;&gt;Document</title>
<path fill="none" stroke="black" stroke-dasharray="1,5" d="M458.35,-726C470.16,-726 482.74,-726 494.44,-726"/>
<polygon fill="black" stroke="black" points="494.28,-729.5 504.28,-726 494.28,-722.5 494.28,-729.5"/>
</g>
<!-- ProjectSource&#45;&gt;Project -->
<g id="edge16" class="edge">
<title>ProjectSource&#45;&gt;Project</title>
<path fill="none" stroke="black" stroke-dasharray="1,5" d="M454.24,-126C470.37,-126 488.36,-126 503.79,-126"/>
<polygon fill="black" stroke="black" points="503.51,-129.5 513.51,-126 503.51,-122.5 503.51,-129.5"/>
</g>
<!-- Project&#45;&gt;Creator -->
<!-- Role&#45;&gt;Verifier -->
<!-- VerifierRole&#45;&gt;Verifier -->
<g id="edge23" class="edge">
<title>VerifierRole&#45;&gt;Verifier</title>
<path fill="none" stroke="black" stroke-dasharray="1,5" d="M448.17,-366.43C452.75,-369.1 457.26,-371.97 461.39,-375 482.84,-390.75 503.87,-412.32 519.01,-429.24"/>
<polygon fill="black" stroke="black" points="516.13,-431.27 525.35,-436.47 521.39,-426.65 516.13,-431.27"/>
</g>
<!-- Version&#45;&gt;PinboardItem -->
<!-- Creator&#45;&gt;Updater -->
<!-- AlternateValue -->
<g id="node1" class="node">
<title>AlternateValue</title>
<g id="a_node1"><a xlink:href="/develop/Data/models.html#alternate-value" xlink:title="AlternateValue" target="_top">
<ellipse fill="#abcdef" stroke="#dddeee" cx="66.19" cy="-458" rx="66.19" ry="18"/>
<text text-anchor="middle" x="66.19" y="-452.95" font-family="Times,serif" font-size="14.00">AlternateValue</text>
</a>
</g>
</g>
<!-- Citation -->
<g id="node2" class="node">
<title>Citation</title>
<g id="a_node2"><a xlink:href="/develop/Data/models.html#citation" xlink:title="Citation" target="_top">
<ellipse fill="#abcdef" stroke="#dddeee" cx="66.19" cy="-160" rx="40.6" ry="18"/>
<text text-anchor="middle" x="66.19" y="-154.95" font-family="Times,serif" font-size="14.00">Citation</text>
</a>
</g>
</g>
<!-- DataAttribute -->
<g id="node3" class="node">
<title>DataAttribute</title>
<g id="a_node3"><a xlink:href="/develop/Data/models.html#data-attribute" xlink:title="DataAttribute" target="_top">
<ellipse fill="#abcdef" stroke="#dddeee" cx="66.19" cy="-404" rx="61.59" ry="18"/>
<text text-anchor="middle" x="66.19" y="-398.95" font-family="Times,serif" font-size="14.00">DataAttribute</text>
</a>
</g>
</g>
<!-- Identifier -->
<g id="node4" class="node">
<title>Identifier</title>
<g id="a_node4"><a xlink:href="/develop/Data/models.html#identifier" xlink:title="Identifier" target="_top">
<ellipse fill="#abcdef" stroke="#dddeee" cx="66.19" cy="-350" rx="45.21" ry="18"/>
<text text-anchor="middle" x="66.19" y="-344.95" font-family="Times,serif" font-size="14.00">Identifier</text>
</a>
</g>
</g>
<!-- Tag -->
<g id="node5" class="node">
<title>Tag</title>
<g id="a_node5"><a xlink:href="/develop/Data/models.html#tag" xlink:title="Tag" target="_top">
<ellipse fill="#abcdef" stroke="#dddeee" cx="66.19" cy="-47" rx="27" ry="18"/>
<text text-anchor="middle" x="66.19" y="-41.95" font-family="Times,serif" font-size="14.00">Tag</text>
</a>
</g>
</g>
<!-- Note -->
<g id="node6" class="node">
<title>Note</title>
<g id="a_node6"><a xlink:href="/develop/Data/models.html#note" xlink:title="Note" target="_top">
<ellipse fill="#abcdef" stroke="#dddeee" cx="66.19" cy="-296" rx="28.83" ry="18"/>
<text text-anchor="middle" x="66.19" y="-290.95" font-family="Times,serif" font-size="14.00">Note</text>
</a>
</g>
</g>
<!-- Source -->
<g id="node7" class="node">
<title>Source</title>
<g id="a_node7"><a xlink:href="/develop/Data/models.html#source" xlink:title="Source" target="_top">
<polygon fill="#cdefab" stroke="#dedede" points="283.03,-367.54 283.03,-382.46 259.88,-393 227.14,-393 204,-382.46 204,-367.54 227.14,-357 259.88,-357 283.03,-367.54"/>
<polygon fill="none" stroke="#dedede" points="287.03,-364.97 287.03,-385.03 260.75,-397 226.28,-397 200,-385.03 200,-364.97 226.28,-353 260.75,-353 287.03,-364.97"/>
<text text-anchor="middle" x="243.51" y="-369.95" font-family="Times,serif" font-size="14.00">Source</text>
</a>
</g>
</g>
<!-- AlternateValueLanguage -->
<g id="node8" class="node">
<title>AlternateValueLanguage</title>
<g id="a_node8"><a xlink:href="/develop/Data/models.html#alternate-value-language" xlink:title="AlternateValueLanguage" target="_top">
<polygon fill="#eeefff" stroke="#dddeee" points="318.64,-476 168.39,-476 168.39,-440 318.64,-440 318.64,-476"/>
<text text-anchor="middle" x="243.51" y="-452.95" font-family="Times,serif" font-size="14.00">AlternateValueLanguage</text>
</a>
</g>
</g>
<!-- CitationTopic -->
<g id="node9" class="node">
<title>CitationTopic</title>
<g id="a_node9"><a xlink:href="/develop/Data/models.html#citation-topic" xlink:title="CitationTopic" target="_top">
<polygon fill="#eeefff" stroke="#dddeee" points="289.01,-90 198.01,-90 198.01,-54 289.01,-54 289.01,-90"/>
<text text-anchor="middle" x="243.51" y="-66.95" font-family="Times,serif" font-size="14.00">CitationTopic</text>
</a>
</g>
</g>
<!-- Documentation -->
<g id="node10" class="node">
<title>Documentation</title>
<g id="a_node10"><a xlink:href="/develop/Data/models.html#documentation" xlink:title="Documentation" target="_top">
<polygon fill="#eeefff" stroke="#dddeee" points="458.01,-744 358.01,-744 358.01,-708 458.01,-708 458.01,-744"/>
<text text-anchor="middle" x="408.01" y="-720.95" font-family="Times,serif" font-size="14.00">Documentation</text>
</a>
</g>
</g>
<!-- Document -->
<g id="node11" class="node">
<title>Document</title>
<g id="a_node11"><a xlink:href="/develop/Data/models.html#document" xlink:title="Document" target="_top">
<polygon fill="#eeefff" stroke="#dddeee" points="579.01,-744 506.01,-744 506.01,-708 579.01,-708 579.01,-744"/>
<text text-anchor="middle" x="542.51" y="-720.95" font-family="Times,serif" font-size="14.00">Document</text>
</a>
</g>
</g>
<!-- ImportAttribute -->
<g id="node12" class="node">
<title>ImportAttribute</title>
<g id="a_node12"><a xlink:href="/develop/Data/models.html#import-attribute" xlink:title="ImportAttribute" target="_top">
<polygon fill="#eeefff" stroke="#dddeee" points="459.14,-528 356.89,-528 356.89,-492 459.14,-492 459.14,-528"/>
<text text-anchor="middle" x="408.01" y="-504.95" font-family="Times,serif" font-size="14.00">ImportAttribute</text>
</a>
</g>
</g>
<!-- InternalAttribute -->
<g id="node13" class="node">
<title>InternalAttribute</title>
<g id="a_node13"><a xlink:href="/develop/Data/models.html#internal-attribute" xlink:title="InternalAttribute" target="_top">
<polygon fill="#eeefff" stroke="#dddeee" points="461.39,-474 354.64,-474 354.64,-438 461.39,-438 461.39,-474"/>
<text text-anchor="middle" x="408.01" y="-450.95" font-family="Times,serif" font-size="14.00">InternalAttribute</text>
</a>
</g>
</g>
<!-- Keyword -->
<g id="node14" class="node">
<title>Keyword</title>
<g id="a_node14"><a xlink:href="/develop/Data/models.html#keyword" xlink:title="Keyword" target="_top">
<polygon fill="#eeefff" stroke="#dddeee" points="276.64,-36 210.39,-36 210.39,0 276.64,0 276.64,-36"/>
<text text-anchor="middle" x="243.51" y="-12.95" font-family="Times,serif" font-size="14.00">Keyword</text>
</a>
</g>
</g>
<!-- OriginCitation -->
<g id="node15" class="node">
<title>OriginCitation</title>
<g id="a_node15"><a xlink:href="/develop/Data/models.html#origin-citation" xlink:title="OriginCitation" target="_top">
<polygon fill="#eeefff" stroke="#dddeee" points="455.39,-420 360.64,-420 360.64,-384 455.39,-384 455.39,-420"/>
<text text-anchor="middle" x="408.01" y="-396.95" font-family="Times,serif" font-size="14.00">OriginCitation</text>
</a>
</g>
</g>
<!-- PinboardItem -->
<g id="node16" class="node">
<title>PinboardItem</title>
<g id="a_node16"><a xlink:href="/develop/Data/models.html#pinboard-item" xlink:title="PinboardItem" target="_top">
<polygon fill="#eeefff" stroke="#dddeee" points="587.64,-274 497.39,-274 497.39,-238 587.64,-238 587.64,-274"/>
<text text-anchor="middle" x="542.51" y="-250.95" font-family="Times,serif" font-size="14.00">PinboardItem</text>
</a>
</g>
</g>
<!-- ProjectSource -->
<g id="node17" class="node">
<title>ProjectSource</title>
<g id="a_node17"><a xlink:href="/develop/Data/models.html#project-source" xlink:title="ProjectSource" target="_top">
<polygon fill="#eeefff" stroke="#dddeee" points="453.89,-144 362.14,-144 362.14,-108 453.89,-108 453.89,-144"/>
<text text-anchor="middle" x="408.01" y="-120.95" font-family="Times,serif" font-size="14.00">ProjectSource</text>
</a>
</g>
</g>
<!-- Project -->
<g id="node18" class="node">
<title>Project</title>
<g id="a_node18"><a xlink:href="/develop/Data/models.html#project" xlink:title="Project" target="_top">
<polygon fill="#eeefff" stroke="#dddeee" points="569.64,-144 515.39,-144 515.39,-108 569.64,-108 569.64,-144"/>
<text text-anchor="middle" x="542.51" y="-120.95" font-family="Times,serif" font-size="14.00">Project</text>
</a>
</g>
</g>
<!-- Role -->
<g id="node19" class="node">
<title>Role</title>
<g id="a_node19"><a xlink:href="/develop/Data/models.html#role" xlink:title="Role" target="_top">
<polygon fill="#eeefff" stroke="#dddeee" points="435.01,-582 381.01,-582 381.01,-546 435.01,-546 435.01,-582"/>
<text text-anchor="middle" x="408.01" y="-558.95" font-family="Times,serif" font-size="14.00">Role</text>
</a>
</g>
</g>
<!-- Topic -->
<g id="node20" class="node">
<title>Topic</title>
<g id="a_node20"><a xlink:href="/develop/Data/models.html#topic" xlink:title="Topic" target="_top">
<polygon fill="#eeefff" stroke="#dddeee" points="435.01,-90 381.01,-90 381.01,-54 435.01,-54 435.01,-90"/>
<text text-anchor="middle" x="408.01" y="-66.95" font-family="Times,serif" font-size="14.00">Topic</text>
</a>
</g>
</g>
<!-- Uri -->
<g id="node21" class="node">
<title>Uri</title>
<g id="a_node21"><a xlink:href="/develop/Data/models.html#uri" xlink:title="Uri" target="_top">
<polygon fill="#eeefff" stroke="#dddeee" points="435.01,-690 381.01,-690 381.01,-654 435.01,-654 435.01,-690"/>
<text text-anchor="middle" x="408.01" y="-666.95" font-family="Times,serif" font-size="14.00">Uri</text>
</a>
</g>
</g>
<!-- Uuid -->
<g id="node22" class="node">
<title>Uuid</title>
<g id="a_node22"><a xlink:href="/develop/Data/models.html#uuid" xlink:title="Uuid" target="_top">
<polygon fill="#eeefff" stroke="#dddeee" points="435.01,-636 381.01,-636 381.01,-600 435.01,-600 435.01,-636"/>
<text text-anchor="middle" x="408.01" y="-612.95" font-family="Times,serif" font-size="14.00">Uuid</text>
</a>
</g>
</g>
<!-- VerifierRole -->
<g id="node23" class="node">
<title>VerifierRole</title>
<g id="a_node23"><a xlink:href="/develop/Data/models.html#verifier-role" xlink:title="VerifierRole" target="_top">
<polygon fill="#eeefff" stroke="#dddeee" points="449.39,-366 366.64,-366 366.64,-330 449.39,-330 449.39,-366"/>
<text text-anchor="middle" x="408.01" y="-342.95" font-family="Times,serif" font-size="14.00">VerifierRole</text>
</a>
</g>
</g>
<!-- Verifier -->
<g id="node24" class="node">
<title>Verifier</title>
<g id="a_node24"><a xlink:href="/develop/Data/models.html#verifier" xlink:title="Verifier" target="_top">
<polygon fill="#eeefff" stroke="#dddeee" points="571.14,-474 513.89,-474 513.89,-438 571.14,-438 571.14,-474"/>
<text text-anchor="middle" x="542.51" y="-450.95" font-family="Times,serif" font-size="14.00">Verifier</text>
</a>
</g>
</g>
<!-- Version -->
<g id="node25" class="node">
<title>Version</title>
<g id="a_node25"><a xlink:href="/develop/Data/models.html#version" xlink:title="Version" target="_top">
<polygon fill="#eeefff" stroke="#dddeee" points="436.64,-274 379.39,-274 379.39,-238 436.64,-238 436.64,-274"/>
<text text-anchor="middle" x="408.01" y="-250.95" font-family="Times,serif" font-size="14.00">Version</text>
</a>
</g>
</g>
<!-- Creator -->
<g id="node26" class="node">
<title>Creator</title>
<g id="a_node26"><a xlink:href="/develop/Data/models.html#creator" xlink:title="Creator" target="_top">
<polygon fill="#eeefff" stroke="#dddeee" points="680.14,-144 623.64,-144 623.64,-108 680.14,-108 680.14,-144"/>
<text text-anchor="middle" x="651.89" y="-120.95" font-family="Times,serif" font-size="14.00">Creator</text>
</a>
</g>
</g>
<!-- Updater -->
<g id="node27" class="node">
<title>Updater</title>
<g id="a_node27"><a xlink:href="/develop/Data/models.html#updater" xlink:title="Updater" target="_top">
<polygon fill="#eeefff" stroke="#dddeee" points="775.64,-144 716.14,-144 716.14,-108 775.64,-108 775.64,-144"/>
<text text-anchor="middle" x="745.89" y="-120.95" font-family="Times,serif" font-size="14.00">Updater</text>
</a>
</g>
</g>
</g>
</svg>
