<?xml version="1.0" encoding="UTF-8" standalone="no"?>
<!DOCTYPE svg PUBLIC "-//W3C//DTD SVG 1.1//EN"
 "http://www.w3.org/Graphics/SVG/1.1/DTD/svg11.dtd">
<!-- Generated by graphviz version 12.2.1 (20241206.2353)
 -->
<!-- Title: SqedDepiction Pages: 1 -->
<svg width="622pt" height="392pt"
 viewBox="0.00 0.00 621.70 391.50" xmlns="http://www.w3.org/2000/svg" xmlns:xlink="http://www.w3.org/1999/xlink">
<g id="graph0" class="graph" transform="scale(1 1) rotate(0) translate(4 387.5)">
<title>SqedDepiction</title>
<polygon fill="white" stroke="none" points="-4,4 -4,-387.5 617.7,-387.5 617.7,4 -4,4"/>
<!-- Tag&#45;&gt;Keyword -->
<g id="edge1" class="edge">
<title>Tag&#45;&gt;Keyword</title>
<path fill="none" stroke="black" stroke-dasharray="1,5" d="M74.43,-236.17C97.93,-236.32 132.91,-236.54 160.7,-236.72"/>
<polygon fill="black" stroke="black" points="160.57,-240.22 170.6,-236.78 160.62,-233.22 160.57,-240.22"/>
</g>
<!-- SqedDepiction&#45;&gt;Tag -->
<g id="edge5" class="edge">
<title>SqedDepiction&#45;&gt;Tag</title>
<path fill="none" stroke="black" d="M156.55,-196.52C132.43,-205.31 103.79,-215.75 82.02,-223.69"/>
<polygon fill="black" stroke="black" points="80.95,-220.36 72.75,-227.07 83.34,-226.93 80.95,-220.36"/>
</g>
<!-- SqedDepiction&#45;&gt;Note -->
<g id="edge2" class="edge">
<title>SqedDepiction&#45;&gt;Note</title>
<path fill="none" stroke="black" d="M130.23,-179.48C115.6,-179.57 100.79,-179.66 87.86,-179.75"/>
<polygon fill="black" stroke="black" points="88.06,-176.25 78.08,-179.81 88.11,-183.25 88.06,-176.25"/>
</g>
<!-- SqedDepiction&#45;&gt;Depiction -->
<g id="edge9" class="edge">
<title>SqedDepiction&#45;&gt;Depiction</title>
<path fill="none" stroke="black" stroke-dasharray="5,2" d="M143.42,-158.26C123.04,-151.35 101.05,-143.9 83.35,-137.89"/>
<polygon fill="black" stroke="black" points="142.19,-161.54 152.78,-161.43 144.44,-154.91 142.19,-161.54"/>
</g>
<!-- SqedDepiction&#45;&gt;CollectionObject -->
<g id="edge12" class="edge">
<title>SqedDepiction&#45;&gt;CollectionObject</title>
<path fill="none" stroke="black" stroke-dasharray="1,5" d="M269.68,-200.25C273.72,-203.11 277.46,-206.34 280.7,-210 319.62,-253.9 279.77,-291.42 316.7,-337 317.42,-337.89 318.18,-338.76 318.97,-339.6"/>
<polygon fill="none" stroke="black" points="259.33,-198.55 263.54,-191.75 270.35,-195.96 266.13,-202.76 259.33,-198.55"/>
<polyline fill="none" stroke="black" points="268.24,-199.36 269.94,-200.41"/>
<polygon fill="none" stroke="black" points="329.09,-343.2 323.79,-349.2 317.79,-343.9 323.09,-337.9 329.09,-343.2"/>
<polyline fill="none" stroke="black" points="320.44,-340.9 318.94,-339.58"/>
</g>
<!-- SqedDepiction&#45;&gt;PinboardItem -->
<g id="edge3" class="edge">
<title>SqedDepiction&#45;&gt;PinboardItem</title>
<path fill="none" stroke="black" d="M259.3,-195.42C267.05,-199.37 274.5,-204.17 280.7,-210 307.06,-234.78 291.28,-257.27 316.7,-283 317.19,-283.49 317.69,-283.98 318.2,-284.46"/>
<polygon fill="black" stroke="black" points="316,-287.18 326,-290.66 320.35,-281.7 316,-287.18"/>
</g>
<!-- SqedDepiction&#45;&gt;Role -->
<g id="edge4" class="edge">
<title>SqedDepiction&#45;&gt;Role</title>
<path fill="none" stroke="black" d="M251.95,-197.22C261.52,-201.27 271.5,-205.66 280.7,-210 297.06,-217.72 300.64,-220.68 316.7,-229 322.16,-231.83 327.94,-234.79 333.6,-237.68"/>
<polygon fill="black" stroke="black" points="331.73,-240.66 342.23,-242.07 334.9,-234.42 331.73,-240.66"/>
</g>
<!-- SqedDepiction&#45;&gt;VerifierRole -->
<g id="edge6" class="edge">
<title>SqedDepiction&#45;&gt;VerifierRole</title>
<path fill="none" stroke="black" d="M281.05,-189.49C293.41,-191.23 305.99,-193 317.65,-194.65"/>
<polygon fill="black" stroke="black" points="317.06,-198.1 327.45,-196.03 318.04,-191.17 317.06,-198.1"/>
</g>
<!-- SqedDepiction&#45;&gt;Creator -->
<g id="edge8" class="edge">
<title>SqedDepiction&#45;&gt;Creator</title>
<path fill="none" stroke="black" stroke-dasharray="5,2" d="M292.32,-166.82C333,-159.95 382,-150.08 424.95,-137 437,-133.33 449.87,-128.13 460.86,-123.27"/>
<polygon fill="black" stroke="black" points="291.87,-163.35 282.58,-168.43 293.01,-170.25 291.87,-163.35"/>
</g>
<!-- SqedDepiction&#45;&gt;Project -->
<g id="edge10" class="edge">
<title>SqedDepiction&#45;&gt;Project</title>
<path fill="none" stroke="black" stroke-dasharray="5,2" d="M260.72,-156.12C288.49,-144.39 321.06,-130.61 343.34,-121.2"/>
<polygon fill="black" stroke="black" points="259.59,-152.8 251.74,-159.92 262.31,-159.25 259.59,-152.8"/>
</g>
<!-- SqedDepiction&#45;&gt;Updater -->
<g id="edge11" class="edge">
<title>SqedDepiction&#45;&gt;Updater</title>
<path fill="none" stroke="black" stroke-dasharray="5,2" d="M231.06,-148.1C251.24,-125.26 282.11,-95.96 316.7,-83 400.56,-51.57 430.39,-65.42 518.2,-83 530.26,-85.41 542.89,-90.13 553.75,-94.95"/>
<polygon fill="black" stroke="black" points="228.43,-145.78 224.58,-155.65 233.75,-150.33 228.43,-145.78"/>
</g>
<!-- SqedDepiction&#45;&gt;Image -->
<g id="edge13" class="edge">
<title>SqedDepiction&#45;&gt;Image</title>
<path fill="none" stroke="black" stroke-dasharray="1,5" d="M228.25,-148.37C248.89,-120.56 281.9,-79.51 316.7,-50 322.29,-45.26 328.66,-40.78 335.01,-36.75"/>
<polygon fill="none" stroke="black" points="225.78,-158.51 219.33,-153.78 224.06,-147.33 230.51,-152.06 225.78,-158.51"/>
<polyline fill="none" stroke="black" points="227.28,-149.69 228.47,-148.08"/>
<polygon fill="none" stroke="black" points="341.06,-28.41 345.21,-35.25 338.37,-39.39 334.22,-32.55 341.06,-28.41"/>
<polyline fill="none" stroke="black" points="336.3,-35.97 334.59,-37.01"/>
</g>
<!-- Role&#45;&gt;Verifier -->
<!-- VerifierRole&#45;&gt;Verifier -->
<g id="edge7" class="edge">
<title>VerifierRole&#45;&gt;Verifier</title>
<path fill="none" stroke="black" stroke-dasharray="1,5" d="M412.66,-211.44C424.72,-214.23 437.88,-217.28 449.8,-220.03"/>
<polygon fill="black" stroke="black" points="448.78,-223.39 459.31,-222.23 450.35,-216.57 448.78,-223.39"/>
</g>
<!-- Creator&#45;&gt;Updater -->
<!-- Project&#45;&gt;Creator -->
<!-- Tag -->
<g id="node1" class="node">
<title>Tag</title>
<g id="a_node1"><a xlink:href="/develop/Data/models.html#tag" xlink:title="Tag" target="_top">
<ellipse fill="#abcdef" stroke="#dddeee" cx="47.26" cy="-236" rx="27" ry="18"/>
<text text-anchor="middle" x="47.26" y="-230.95" font-family="Times,serif" font-size="14.00">Tag</text>
</a>
</g>
</g>
<!-- Note -->
<g id="node2" class="node">
<title>Note</title>
<g id="a_node2"><a xlink:href="/develop/Data/models.html#note" xlink:title="Note" target="_top">
<ellipse fill="#abcdef" stroke="#dddeee" cx="47.26" cy="-180" rx="28.83" ry="18"/>
<text text-anchor="middle" x="47.26" y="-174.95" font-family="Times,serif" font-size="14.00">Note</text>
</a>
</g>
</g>
<!-- Depiction -->
<g id="node3" class="node">
<title>Depiction</title>
<g id="a_node3"><a xlink:href="/develop/Data/models.html#depiction" xlink:title="Depiction" target="_top">
<ellipse fill="#abcdef" stroke="#dddeee" cx="47.26" cy="-126" rx="47.26" ry="18"/>
<text text-anchor="middle" x="47.26" y="-120.95" font-family="Times,serif" font-size="14.00">Depiction</text>
</a>
</g>
</g>
<!-- CollectionObject -->
<g id="node4" class="node">
<title>CollectionObject</title>
<g id="a_node4"><a xlink:href="/develop/Data/models.html#collection-object" xlink:title="CollectionObject" target="_top">
<path fill="#fedcba" stroke="#dddeee" d="M328.7,-347C328.7,-347 412.95,-347 412.95,-347 418.95,-347 424.95,-353 424.95,-359 424.95,-359 424.95,-371 424.95,-371 424.95,-377 418.95,-383 412.95,-383 412.95,-383 328.7,-383 328.7,-383 322.7,-383 316.7,-377 316.7,-371 316.7,-371 316.7,-359 316.7,-359 316.7,-353 322.7,-347 328.7,-347"/>
<text text-anchor="middle" x="370.83" y="-360.2" font-family="Times,serif" font-size="14.00">CollectionObject</text>
</a>
</g>
</g>
<!-- SqedDepiction -->
<g id="node5" class="node">
<title>SqedDepiction</title>
<g id="a_node5"><a xlink:href="/develop/Data/models.html#sqed-depiction" xlink:title="SqedDepiction" target="_top">
<polygon fill="#cdefab" stroke="#dedede" points="276.7,-171.54 276.7,-186.46 235.06,-197 176.16,-197 134.51,-186.46 134.51,-171.54 176.16,-161 235.06,-161 276.7,-171.54"/>
<polygon fill="none" stroke="#dedede" points="280.7,-168.43 280.7,-189.57 235.55,-201 175.66,-201 130.51,-189.57 130.51,-168.43 175.66,-157 235.55,-157 280.7,-168.43"/>
<text text-anchor="middle" x="205.61" y="-173.95" font-family="Times,serif" font-size="14.00">SqedDepiction</text>
</a>
</g>
</g>
<!-- Keyword -->
<g id="node6" class="node">
<title>Keyword</title>
<g id="a_node6"><a xlink:href="/develop/Data/models.html#keyword" xlink:title="Keyword" target="_top">
<polygon fill="#eeefff" stroke="#dddeee" points="238.73,-255 172.48,-255 172.48,-219 238.73,-219 238.73,-255"/>
<text text-anchor="middle" x="205.61" y="-231.95" font-family="Times,serif" font-size="14.00">Keyword</text>
</a>
</g>
</g>
<!-- PinboardItem -->
<g id="node7" class="node">
<title>PinboardItem</title>
<g id="a_node7"><a xlink:href="/develop/Data/models.html#pinboard-item" xlink:title="PinboardItem" target="_top">
<polygon fill="#eeefff" stroke="#dddeee" points="415.95,-328 325.7,-328 325.7,-292 415.95,-292 415.95,-328"/>
<text text-anchor="middle" x="370.83" y="-304.95" font-family="Times,serif" font-size="14.00">PinboardItem</text>
</a>
</g>
</g>
<!-- Role -->
<g id="node8" class="node">
<title>Role</title>
<g id="a_node8"><a xlink:href="/develop/Data/models.html#role" xlink:title="Role" target="_top">
<polygon fill="#eeefff" stroke="#dddeee" points="397.83,-274 343.83,-274 343.83,-238 397.83,-238 397.83,-274"/>
<text text-anchor="middle" x="370.83" y="-250.95" font-family="Times,serif" font-size="14.00">Role</text>
</a>
</g>
</g>
<!-- VerifierRole -->
<g id="node9" class="node">
<title>VerifierRole</title>
<g id="a_node9"><a xlink:href="/develop/Data/models.html#verifier-role" xlink:title="VerifierRole" target="_top">
<polygon fill="#eeefff" stroke="#dddeee" points="412.2,-220 329.45,-220 329.45,-184 412.2,-184 412.2,-220"/>
<text text-anchor="middle" x="370.83" y="-196.95" font-family="Times,serif" font-size="14.00">VerifierRole</text>
</a>
</g>
</g>
<!-- Verifier -->
<g id="node10" class="node">
<title>Verifier</title>
<g id="a_node10"><a xlink:href="/develop/Data/models.html#verifier" xlink:title="Verifier" target="_top">
<polygon fill="#eeefff" stroke="#dddeee" points="518.2,-247 460.95,-247 460.95,-211 518.2,-211 518.2,-247"/>
<text text-anchor="middle" x="489.58" y="-223.95" font-family="Times,serif" font-size="14.00">Verifier</text>
</a>
</g>
</g>
<!-- Creator -->
<g id="node11" class="node">
<title>Creator</title>
<g id="a_node11"><a xlink:href="/develop/Data/models.html#creator" xlink:title="Creator" target="_top">
<polygon fill="#eeefff" stroke="#dddeee" points="517.83,-128 461.33,-128 461.33,-92 517.83,-92 517.83,-128"/>
<text text-anchor="middle" x="489.58" y="-104.95" font-family="Times,serif" font-size="14.00">Creator</text>
</a>
</g>
</g>
<!-- Project -->
<g id="node12" class="node">
<title>Project</title>
<g id="a_node12"><a xlink:href="/develop/Data/models.html#project" xlink:title="Project" target="_top">
<polygon fill="#eeefff" stroke="#dddeee" points="397.95,-128 343.7,-128 343.7,-92 397.95,-92 397.95,-128"/>
<text text-anchor="middle" x="370.83" y="-104.95" font-family="Times,serif" font-size="14.00">Project</text>
</a>
</g>
</g>
<!-- Updater -->
<g id="node13" class="node">
<title>Updater</title>
<g id="a_node13"><a xlink:href="/develop/Data/models.html#updater" xlink:title="Updater" target="_top">
<polygon fill="#eeefff" stroke="#dddeee" points="613.7,-128 554.2,-128 554.2,-92 613.7,-92 613.7,-128"/>
<text text-anchor="middle" x="583.95" y="-104.95" font-family="Times,serif" font-size="14.00">Updater</text>
</a>
</g>
</g>
<!-- Image -->
<g id="node14" class="node">
<title>Image</title>
<g id="a_node14"><a xlink:href="/develop/Data/models.html#image" xlink:title="Image" target="_top">
<polygon fill="#eeefff" stroke="#dddeee" points="397.83,-36 343.83,-36 343.83,0 397.83,0 397.83,-36"/>
<text text-anchor="middle" x="370.83" y="-12.95" font-family="Times,serif" font-size="14.00">Image</text>
</a>
</g>
</g>
</g>
</svg>
