<?xml version="1.0" encoding="UTF-8" standalone="no"?>
<!DOCTYPE svg PUBLIC "-//W3C//DTD SVG 1.1//EN"
 "http://www.w3.org/Graphics/SVG/1.1/DTD/svg11.dtd">
<!-- Generated by graphviz version 12.2.1 (20241206.2353)
 -->
<!-- Title: TaggedSectionKeyword Pages: 1 -->
<svg width="600pt" height="385pt"
 viewBox="0.00 0.00 599.53 385.06" xmlns="http://www.w3.org/2000/svg" xmlns:xlink="http://www.w3.org/1999/xlink">
<g id="graph0" class="graph" transform="scale(1 1) rotate(0) translate(4 381.06)">
<title>TaggedSectionKeyword</title>
<polygon fill="white" stroke="none" points="-4,4 -4,-381.06 595.53,-381.06 595.53,4 -4,4"/>
<!-- TaggedSectionKeyword&#45;&gt;PinboardItem -->
<g id="edge1" class="edge">
<title>TaggedSectionKeyword&#45;&gt;PinboardItem</title>
<path fill="none" stroke="black" d="M130.56,-204.32C155.83,-236.45 206.54,-295.92 261.53,-332.06 266.22,-335.14 271.31,-337.95 276.53,-340.49"/>
<polygon fill="black" stroke="black" points="274.74,-343.53 285.3,-344.44 277.61,-337.14 274.74,-343.53"/>
</g>
<!-- TaggedSectionKeyword&#45;&gt;Role -->
<g id="edge2" class="edge">
<title>TaggedSectionKeyword&#45;&gt;Role</title>
<path fill="none" stroke="black" d="M144.06,-204.41C173.18,-225.23 218.91,-256.25 261.53,-278.06 271.81,-283.32 283.36,-288.19 294.06,-292.3"/>
<polygon fill="black" stroke="black" points="292.8,-295.57 303.39,-295.77 295.24,-289 292.8,-295.57"/>
</g>
<!-- TaggedSectionKeyword&#45;&gt;VerifierRole -->
<g id="edge3" class="edge">
<title>TaggedSectionKeyword&#45;&gt;VerifierRole</title>
<path fill="none" stroke="black" d="M175.48,-201.65C208.49,-212.13 248.66,-224.88 279.93,-234.8"/>
<polygon fill="black" stroke="black" points="278.56,-238.04 289.15,-237.73 280.68,-231.37 278.56,-238.04"/>
</g>
<!-- TaggedSectionKeyword&#45;&gt;Creator -->
<g id="edge5" class="edge">
<title>TaggedSectionKeyword&#45;&gt;Creator</title>
<path fill="none" stroke="black" stroke-dasharray="5,2" d="M187.52,-204.02C249.81,-217.97 338.82,-226.62 402.78,-186.06 443.7,-160.11 458.78,-100.04 463.95,-69.54"/>
<polygon fill="black" stroke="black" points="188.61,-200.69 178.08,-201.81 187.02,-207.5 188.61,-200.69"/>
</g>
<!-- TaggedSectionKeyword&#45;&gt;Keyword -->
<g id="edge6" class="edge">
<title>TaggedSectionKeyword&#45;&gt;Keyword</title>
<path fill="none" stroke="black" stroke-dasharray="5,2" d="M234.94,-169.24C258.44,-166.75 281.15,-164.35 298.6,-162.5"/>
<polygon fill="black" stroke="black" points="234.81,-165.73 225.24,-170.27 235.55,-172.69 234.81,-165.73"/>
</g>
<!-- TaggedSectionKeyword&#45;&gt;OtuPageLayoutSection -->
<g id="edge7" class="edge">
<title>TaggedSectionKeyword&#45;&gt;OtuPageLayoutSection</title>
<path fill="none" stroke="black" stroke-dasharray="5,2" d="M182.01,-157.89C213.35,-146.78 249.93,-133.83 279.02,-123.53"/>
<polygon fill="black" stroke="black" points="180.85,-154.58 172.59,-161.22 183.19,-161.18 180.85,-154.58"/>
</g>
<!-- TaggedSectionKeyword&#45;&gt;Project -->
<g id="edge8" class="edge">
<title>TaggedSectionKeyword&#45;&gt;Project</title>
<path fill="none" stroke="black" stroke-dasharray="5,2" d="M150.23,-152.6C179.19,-130.16 221.35,-99.57 261.53,-78.06 275.24,-70.72 291.4,-64.32 304.69,-59.61"/>
<polygon fill="black" stroke="black" points="148.23,-149.72 142.51,-158.64 152.54,-155.24 148.23,-149.72"/>
</g>
<!-- TaggedSectionKeyword&#45;&gt;Updater -->
<g id="edge9" class="edge">
<title>TaggedSectionKeyword&#45;&gt;Updater</title>
<path fill="none" stroke="black" stroke-dasharray="5,2" d="M132.25,-149.96C156.37,-111.68 202.54,-49.66 261.53,-24.06 357.14,17.43 393.83,-3.61 496.03,-24.06 508.09,-26.47 520.71,-31.19 531.58,-36.01"/>
<polygon fill="black" stroke="black" points="129.36,-147.97 127.11,-158.32 135.33,-151.64 129.36,-147.97"/>
</g>
<!-- Role&#45;&gt;Verifier -->
<!-- VerifierRole&#45;&gt;Verifier -->
<g id="edge4" class="edge">
<title>VerifierRole&#45;&gt;Verifier</title>
<path fill="none" stroke="black" stroke-dasharray="1,5" d="M373.86,-259.31C390.9,-262.76 410.61,-266.76 427.46,-270.17"/>
<polygon fill="black" stroke="black" points="426.62,-273.57 437.11,-272.12 428.01,-266.71 426.62,-273.57"/>
</g>
<!-- Creator&#45;&gt;Updater -->
<!-- Project&#45;&gt;Creator -->
<!-- TaggedSectionKeyword -->
<g id="node1" class="node">
<title>TaggedSectionKeyword</title>
<g id="a_node1"><a xlink:href="/develop/Data/models.html#tagged-section-keyword" xlink:title="TaggedSectionKeyword" target="_top">
<polygon fill="#cdefab" stroke="#dedede" points="221.53,-174.6 221.53,-189.52 157.82,-200.06 67.71,-200.06 4,-189.52 4,-174.6 67.71,-164.06 157.82,-164.06 221.53,-174.6"/>
<polygon fill="none" stroke="#dedede" points="225.53,-171.21 225.53,-192.91 158.14,-204.06 67.38,-204.06 0,-192.91 0,-171.21 67.38,-160.06 158.14,-160.06 225.53,-171.21"/>
<text text-anchor="middle" x="112.76" y="-177.01" font-family="Times,serif" font-size="14.00">TaggedSectionKeyword</text>
</a>
</g>
</g>
<!-- PinboardItem -->
<g id="node2" class="node">
<title>PinboardItem</title>
<g id="a_node2"><a xlink:href="/develop/Data/models.html#pinboard-item" xlink:title="PinboardItem" target="_top">
<polygon fill="#eeefff" stroke="#dddeee" points="377.28,-377.06 287.03,-377.06 287.03,-341.06 377.28,-341.06 377.28,-377.06"/>
<text text-anchor="middle" x="332.15" y="-354.01" font-family="Times,serif" font-size="14.00">PinboardItem</text>
</a>
</g>
</g>
<!-- Role -->
<g id="node3" class="node">
<title>Role</title>
<g id="a_node3"><a xlink:href="/develop/Data/models.html#role" xlink:title="Role" target="_top">
<polygon fill="#eeefff" stroke="#dddeee" points="359.15,-323.06 305.15,-323.06 305.15,-287.06 359.15,-287.06 359.15,-323.06"/>
<text text-anchor="middle" x="332.15" y="-300.01" font-family="Times,serif" font-size="14.00">Role</text>
</a>
</g>
</g>
<!-- VerifierRole -->
<g id="node4" class="node">
<title>VerifierRole</title>
<g id="a_node4"><a xlink:href="/develop/Data/models.html#verifier-role" xlink:title="VerifierRole" target="_top">
<polygon fill="#eeefff" stroke="#dddeee" points="373.53,-269.06 290.78,-269.06 290.78,-233.06 373.53,-233.06 373.53,-269.06"/>
<text text-anchor="middle" x="332.15" y="-246.01" font-family="Times,serif" font-size="14.00">VerifierRole</text>
</a>
</g>
</g>
<!-- Verifier -->
<g id="node5" class="node">
<title>Verifier</title>
<g id="a_node5"><a xlink:href="/develop/Data/models.html#verifier" xlink:title="Verifier" target="_top">
<polygon fill="#eeefff" stroke="#dddeee" points="496.03,-296.06 438.78,-296.06 438.78,-260.06 496.03,-260.06 496.03,-296.06"/>
<text text-anchor="middle" x="467.4" y="-273.01" font-family="Times,serif" font-size="14.00">Verifier</text>
</a>
</g>
</g>
<!-- Creator -->
<g id="node6" class="node">
<title>Creator</title>
<g id="a_node6"><a xlink:href="/develop/Data/models.html#creator" xlink:title="Creator" target="_top">
<polygon fill="#eeefff" stroke="#dddeee" points="495.65,-69.06 439.15,-69.06 439.15,-33.06 495.65,-33.06 495.65,-69.06"/>
<text text-anchor="middle" x="467.4" y="-46.01" font-family="Times,serif" font-size="14.00">Creator</text>
</a>
</g>
</g>
<!-- Keyword -->
<g id="node7" class="node">
<title>Keyword</title>
<g id="a_node7"><a xlink:href="/develop/Data/models.html#keyword" xlink:title="Keyword" target="_top">
<polygon fill="#eeefff" stroke="#dddeee" points="365.28,-177.06 299.03,-177.06 299.03,-141.06 365.28,-141.06 365.28,-177.06"/>
<text text-anchor="middle" x="332.15" y="-154.01" font-family="Times,serif" font-size="14.00">Keyword</text>
</a>
</g>
</g>
<!-- OtuPageLayoutSection -->
<g id="node8" class="node">
<title>OtuPageLayoutSection</title>
<g id="a_node8"><a xlink:href="/develop/Data/models.html#otu-page-layout-section" xlink:title="OtuPageLayoutSection" target="_top">
<polygon fill="#eeefff" stroke="#dddeee" points="402.78,-123.06 261.53,-123.06 261.53,-87.06 402.78,-87.06 402.78,-123.06"/>
<text text-anchor="middle" x="332.15" y="-100.01" font-family="Times,serif" font-size="14.00">OtuPageLayoutSection</text>
</a>
</g>
</g>
<!-- Project -->
<g id="node9" class="node">
<title>Project</title>
<g id="a_node9"><a xlink:href="/develop/Data/models.html#project" xlink:title="Project" target="_top">
<polygon fill="#eeefff" stroke="#dddeee" points="359.28,-69.06 305.03,-69.06 305.03,-33.06 359.28,-33.06 359.28,-69.06"/>
<text text-anchor="middle" x="332.15" y="-46.01" font-family="Times,serif" font-size="14.00">Project</text>
</a>
</g>
</g>
<!-- Updater -->
<g id="node10" class="node">
<title>Updater</title>
<g id="a_node10"><a xlink:href="/develop/Data/models.html#updater" xlink:title="Updater" target="_top">
<polygon fill="#eeefff" stroke="#dddeee" points="591.53,-69.06 532.03,-69.06 532.03,-33.06 591.53,-33.06 591.53,-69.06"/>
<text text-anchor="middle" x="561.78" y="-46.01" font-family="Times,serif" font-size="14.00">Updater</text>
</a>
</g>
</g>
</g>
</svg>
