<?xml version="1.0" encoding="UTF-8" standalone="no"?>
<!DOCTYPE svg PUBLIC "-//W3C//DTD SVG 1.1//EN"
 "http://www.w3.org/Graphics/SVG/1.1/DTD/svg11.dtd">
<!-- Generated by graphviz version 2.50.0 (20211204.2007)
 -->
<!-- Title: TaxonNameClassification Pages: 1 -->
<svg width="789pt" height="509pt"
 viewBox="0.00 0.00 789.30 509.24" xmlns="http://www.w3.org/2000/svg" xmlns:xlink="http://www.w3.org/1999/xlink">
<g id="graph0" class="graph" transform="scale(1 1) rotate(0) translate(4 505.24)">
<title>TaxonNameClassification</title>
<polygon fill="white" stroke="transparent" points="-4,4 -4,-505.24 785.3,-505.24 785.3,4 -4,4"/>
<!-- Citation&#45;&gt;Source -->
<g id="edge6" class="edge">
<title>Citation&#45;&gt;Source</title>
<path fill="none" stroke="black" stroke-dasharray="1,5" d="M78.3,-428.24C152.77,-428.24 316.12,-428.24 388.75,-428.24"/>
<polygon fill="black" stroke="black" points="388.79,-431.74 398.79,-428.24 388.79,-424.74 388.79,-431.74"/>
</g>
<!-- Citation&#45;&gt;CitationTopic -->
<g id="edge1" class="edge">
<title>Citation&#45;&gt;CitationTopic</title>
<path fill="none" stroke="black" stroke-dasharray="1,5" d="M72.34,-437.7C99.95,-445.77 140.27,-457.56 172.97,-467.12"/>
<polygon fill="black" stroke="black" points="172.28,-470.56 182.86,-470 174.24,-463.84 172.28,-470.56"/>
</g>
<!-- Source&#45;&gt;SubsequentCitation -->
<!-- Source&#45;&gt;OriginCitation -->
<!-- TaxonNameClassification&#45;&gt;Citation -->
<g id="edge2" class="edge">
<title>TaxonNameClassification&#45;&gt;Citation</title>
<path fill="none" stroke="black" d="M205.74,-265.27C170.07,-300.35 100.65,-368.61 63.99,-404.65"/>
<polygon fill="black" stroke="black" points="61.37,-402.32 56.69,-411.83 66.28,-407.31 61.37,-402.32"/>
</g>
<!-- TaxonNameClassification&#45;&gt;Note -->
<g id="edge3" class="edge">
<title>TaxonNameClassification&#45;&gt;Note</title>
<path fill="none" stroke="black" d="M113.68,-243.24C100.63,-243.24 88.13,-243.24 77.25,-243.24"/>
<polygon fill="black" stroke="black" points="76.95,-239.74 66.95,-243.24 76.95,-246.74 76.95,-239.74"/>
</g>
<!-- TaxonNameClassification&#45;&gt;Source -->
<g id="edge17" class="edge">
<title>TaxonNameClassification&#45;&gt;Source</title>
<path fill="none" stroke="black" stroke-dasharray="1,5" d="M257.02,-273.06C286.14,-304.72 334.59,-355.57 380.3,-395.24 383.66,-398.16 387.25,-401.1 390.9,-403.96"/>
<polygon fill="none" stroke="black" points="247.1,-268.14 253,-262.74 258.4,-268.64 252.5,-274.04 247.1,-268.14"/>
<polyline fill="none" stroke="black" points="255.45,-271.34 256.8,-272.82 "/>
<polygon fill="none" stroke="black" points="401.29,-406.87 396.43,-413.23 390.07,-408.36 394.93,-402.01 401.29,-406.87"/>
<polyline fill="none" stroke="black" points="392.5,-405.19 390.92,-403.97 "/>
</g>
<!-- TaxonNameClassification&#45;&gt;TaxonName -->
<g id="edge14" class="edge">
<title>TaxonNameClassification&#45;&gt;TaxonName</title>
<path fill="none" stroke="black" stroke-dasharray="5,2" d="M264.35,-214.39C294.26,-189.58 339.22,-153.31 380.3,-124.24 384.92,-120.97 389.91,-117.65 394.82,-114.48"/>
<polygon fill="black" stroke="black" points="261.77,-211.98 256.33,-221.07 266.25,-217.36 261.77,-211.98"/>
</g>
<!-- TaxonNameClassification&#45;&gt;PinboardItem -->
<g id="edge4" class="edge">
<title>TaxonNameClassification&#45;&gt;PinboardItem</title>
<path fill="none" stroke="black" d="M245.56,-221.1C270.84,-185.83 323.97,-116.02 380.3,-68.24 381.46,-67.26 382.66,-66.28 383.9,-65.32"/>
<polygon fill="black" stroke="black" points="386.27,-67.93 392.35,-59.25 382.19,-62.24 386.27,-67.93"/>
</g>
<!-- TaxonNameClassification&#45;&gt;Role -->
<g id="edge5" class="edge">
<title>TaxonNameClassification&#45;&gt;Role</title>
<path fill="none" stroke="black" d="M297.13,-261.83C328.01,-270.39 363.4,-280.21 389.08,-287.34"/>
<polygon fill="black" stroke="black" points="388.19,-290.72 398.76,-290.02 390.06,-283.97 388.19,-290.72"/>
</g>
<!-- TaxonNameClassification&#45;&gt;SubsequentCitation -->
<g id="edge7" class="edge">
<title>TaxonNameClassification&#45;&gt;SubsequentCitation</title>
<path fill="none" stroke="black" d="M262.9,-265.31C292.33,-284.04 337.41,-310.07 380.3,-324.24 417.72,-336.6 461.2,-343.31 496.81,-346.95"/>
<polygon fill="black" stroke="black" points="496.83,-350.46 507.12,-347.93 497.5,-343.49 496.83,-350.46"/>
</g>
<!-- TaxonNameClassification&#45;&gt;VerifierRole -->
<g id="edge10" class="edge">
<title>TaxonNameClassification&#45;&gt;VerifierRole</title>
<path fill="none" stroke="black" d="M344.5,-243.24C354.72,-243.24 364.68,-243.24 373.92,-243.24"/>
<polygon fill="black" stroke="black" points="374.01,-246.74 384.01,-243.24 374.01,-239.74 374.01,-246.74"/>
</g>
<!-- TaxonNameClassification&#45;&gt;Creator -->
<g id="edge12" class="edge">
<title>TaxonNameClassification&#45;&gt;Creator</title>
<path fill="none" stroke="black" stroke-dasharray="5,2" d="M240.07,-211.14C258.22,-158.73 302.26,-56.39 380.3,-14.24 415.88,4.98 435.42,4.43 471.3,-14.24 519.99,-39.58 549.11,-102.18 561.02,-133.21"/>
<polygon fill="black" stroke="black" points="236.65,-210.33 236.78,-220.93 243.28,-212.56 236.65,-210.33"/>
</g>
<!-- TaxonNameClassification&#45;&gt;Project -->
<g id="edge13" class="edge">
<title>TaxonNameClassification&#45;&gt;Project</title>
<path fill="none" stroke="black" stroke-dasharray="5,2" d="M285.9,-216.89C322.69,-199.5 369.25,-177.5 398.02,-163.9"/>
<polygon fill="black" stroke="black" points="284.31,-213.77 276.77,-221.21 287.31,-220.1 284.31,-213.77"/>
</g>
<!-- TaxonNameClassification&#45;&gt;Updater -->
<g id="edge15" class="edge">
<title>TaxonNameClassification&#45;&gt;Updater</title>
<path fill="none" stroke="black" stroke-dasharray="5,2" d="M325.12,-225.77C343.42,-222.52 362.44,-219.21 380.3,-216.24 490.73,-197.89 519.97,-202.35 629.3,-178.24 650.97,-173.46 675.02,-166.44 693.23,-160.75"/>
<polygon fill="black" stroke="black" points="324.27,-222.37 315.04,-227.57 325.5,-229.26 324.27,-222.37"/>
</g>
<!-- TaxonNameClassification&#45;&gt;OriginCitation -->
<g id="edge16" class="edge">
<title>TaxonNameClassification&#45;&gt;OriginCitation</title>
<path fill="none" stroke="black" d="M265.26,-271.49C294.73,-294.26 338.58,-326.05 380.3,-348.24 422.31,-370.59 472.81,-389.61 510.73,-402.48"/>
<polygon fill="none" stroke="black" points="254.88,-268.47 259.8,-262.16 266.11,-267.08 261.19,-273.39 254.88,-268.47"/>
<polyline fill="none" stroke="black" points="263.65,-270.23 265.23,-271.46 "/>
<polygon fill="none" stroke="black" points="521.85,-401.99 519.31,-409.57 511.73,-407.03 514.27,-399.45 521.85,-401.99"/>
<polyline fill="none" stroke="black" points="513,-403.24 511.1,-402.6 "/>
</g>
<!-- CitationTopic&#45;&gt;Topic -->
<g id="edge9" class="edge">
<title>CitationTopic&#45;&gt;Topic</title>
<path fill="none" stroke="black" stroke-dasharray="1,5" d="M275.29,-483.24C309.7,-483.24 356.46,-483.24 388.47,-483.24"/>
<polygon fill="black" stroke="black" points="388.72,-486.74 398.72,-483.24 388.72,-479.74 388.72,-486.74"/>
</g>
<!-- Role&#45;&gt;Verifier -->
<!-- SubsequentCitation&#45;&gt;SubsequentSource -->
<g id="edge8" class="edge">
<title>SubsequentCitation&#45;&gt;SubsequentSource</title>
<path fill="none" stroke="black" stroke-dasharray="1,5" d="M629.33,-351.24C637.66,-351.24 646.27,-351.24 654.72,-351.24"/>
<polygon fill="black" stroke="black" points="654.94,-354.74 664.94,-351.24 654.94,-347.74 654.94,-354.74"/>
</g>
<!-- VerifierRole&#45;&gt;Verifier -->
<g id="edge11" class="edge">
<title>VerifierRole&#45;&gt;Verifier</title>
<path fill="none" stroke="black" stroke-dasharray="1,5" d="M467.44,-252.21C487.08,-256.54 510.51,-261.71 529.74,-265.96"/>
<polygon fill="black" stroke="black" points="529.13,-269.41 539.65,-268.14 530.64,-262.57 529.13,-269.41"/>
</g>
<!-- Creator&#45;&gt;Updater -->
<!-- Project&#45;&gt;Creator -->
<!-- Citation -->
<g id="node1" class="node">
<title>Citation</title>
<g id="a_node1"><a xlink:href="/develop/Data/models.html#citation" xlink:title="Citation" target="_top">
<ellipse fill="#abcdef" stroke="#dddeee" cx="39" cy="-428.24" rx="38.99" ry="18"/>
<text text-anchor="middle" x="39" y="-424.54" font-family="Times,serif" font-size="14.00">Citation</text>
</a>
</g>
</g>
<!-- Note -->
<g id="node2" class="node">
<title>Note</title>
<g id="a_node2"><a xlink:href="/develop/Data/models.html#note" xlink:title="Note" target="_top">
<ellipse fill="#abcdef" stroke="#dddeee" cx="39" cy="-243.24" rx="27.9" ry="18"/>
<text text-anchor="middle" x="39" y="-239.54" font-family="Times,serif" font-size="14.00">Note</text>
</a>
</g>
</g>
<!-- Source -->
<g id="node3" class="node">
<title>Source</title>
<g id="a_node3"><a xlink:href="/develop/Data/models.html#source" xlink:title="Source" target="_top">
<path fill="#fedcba" stroke="#dddeee" d="M410.8,-410.24C410.8,-410.24 440.8,-410.24 440.8,-410.24 446.8,-410.24 452.8,-416.24 452.8,-422.24 452.8,-422.24 452.8,-434.24 452.8,-434.24 452.8,-440.24 446.8,-446.24 440.8,-446.24 440.8,-446.24 410.8,-446.24 410.8,-446.24 404.8,-446.24 398.8,-440.24 398.8,-434.24 398.8,-434.24 398.8,-422.24 398.8,-422.24 398.8,-416.24 404.8,-410.24 410.8,-410.24"/>
<text text-anchor="middle" x="425.8" y="-424.54" font-family="Times,serif" font-size="14.00">Source</text>
</a>
</g>
</g>
<!-- TaxonName -->
<g id="node4" class="node">
<title>TaxonName</title>
<g id="a_node4"><a xlink:href="/develop/Data/models.html#taxon-name" xlink:title="TaxonName" target="_top">
<path fill="#fedcba" stroke="#dddeee" d="M395.8,-78.24C395.8,-78.24 455.8,-78.24 455.8,-78.24 461.8,-78.24 467.8,-84.24 467.8,-90.24 467.8,-90.24 467.8,-102.24 467.8,-102.24 467.8,-108.24 461.8,-114.24 455.8,-114.24 455.8,-114.24 395.8,-114.24 395.8,-114.24 389.8,-114.24 383.8,-108.24 383.8,-102.24 383.8,-102.24 383.8,-90.24 383.8,-90.24 383.8,-84.24 389.8,-78.24 395.8,-78.24"/>
<text text-anchor="middle" x="425.8" y="-92.54" font-family="Times,serif" font-size="14.00">TaxonName</text>
</a>
</g>
</g>
<!-- TaxonNameClassification -->
<g id="node5" class="node">
<title>TaxonNameClassification</title>
<g id="a_node5"><a xlink:href="/develop/Data/models.html#taxon-name-classification" xlink:title="TaxonNameClassification" target="_top">
<polygon fill="#cdefab" stroke="#dedede" points="340.44,-235.79 340.44,-250.7 275.25,-261.24 183.04,-261.24 117.85,-250.7 117.85,-235.79 183.04,-225.24 275.25,-225.24 340.44,-235.79"/>
<polygon fill="none" stroke="#dedede" points="344.45,-232.38 344.45,-254.1 275.57,-265.24 182.72,-265.24 113.84,-254.1 113.84,-232.38 182.72,-221.24 275.57,-221.24 344.45,-232.38"/>
<text text-anchor="middle" x="229.14" y="-239.54" font-family="Times,serif" font-size="14.00">TaxonNameClassification</text>
</a>
</g>
</g>
<!-- CitationTopic -->
<g id="node6" class="node">
<title>CitationTopic</title>
<g id="a_node6"><a xlink:href="/develop/Data/models.html#citation-topic" xlink:title="CitationTopic" target="_top">
<polygon fill="#eeefff" stroke="#dddeee" points="275.14,-501.24 183.14,-501.24 183.14,-465.24 275.14,-465.24 275.14,-501.24"/>
<text text-anchor="middle" x="229.14" y="-479.54" font-family="Times,serif" font-size="14.00">CitationTopic</text>
</a>
</g>
</g>
<!-- PinboardItem -->
<g id="node7" class="node">
<title>PinboardItem</title>
<g id="a_node7"><a xlink:href="/develop/Data/models.html#pinboard-item" xlink:title="PinboardItem" target="_top">
<polygon fill="#eeefff" stroke="#dddeee" points="471.3,-59.24 380.3,-59.24 380.3,-23.24 471.3,-23.24 471.3,-59.24"/>
<text text-anchor="middle" x="425.8" y="-37.54" font-family="Times,serif" font-size="14.00">PinboardItem</text>
</a>
</g>
</g>
<!-- Role -->
<g id="node8" class="node">
<title>Role</title>
<g id="a_node8"><a xlink:href="/develop/Data/models.html#role" xlink:title="Role" target="_top">
<polygon fill="#eeefff" stroke="#dddeee" points="452.8,-315.24 398.8,-315.24 398.8,-279.24 452.8,-279.24 452.8,-315.24"/>
<text text-anchor="middle" x="425.8" y="-293.54" font-family="Times,serif" font-size="14.00">Role</text>
</a>
</g>
</g>
<!-- SubsequentCitation -->
<g id="node9" class="node">
<title>SubsequentCitation</title>
<g id="a_node9"><a xlink:href="/develop/Data/models.html#subsequent-citation" xlink:title="SubsequentCitation" target="_top">
<polygon fill="#eeefff" stroke="#dddeee" points="629.3,-369.24 507.3,-369.24 507.3,-333.24 629.3,-333.24 629.3,-369.24"/>
<text text-anchor="middle" x="568.3" y="-347.54" font-family="Times,serif" font-size="14.00">SubsequentCitation</text>
</a>
</g>
</g>
<!-- SubsequentSource -->
<g id="node10" class="node">
<title>SubsequentSource</title>
<g id="a_node10"><a xlink:href="/develop/Data/models.html#subsequent-source" xlink:title="SubsequentSource" target="_top">
<polygon fill="#eeefff" stroke="#dddeee" points="781.3,-369.24 665.3,-369.24 665.3,-333.24 781.3,-333.24 781.3,-369.24"/>
<text text-anchor="middle" x="723.3" y="-347.54" font-family="Times,serif" font-size="14.00">SubsequentSource</text>
</a>
</g>
</g>
<!-- Topic -->
<g id="node11" class="node">
<title>Topic</title>
<g id="a_node11"><a xlink:href="/develop/Data/models.html#topic" xlink:title="Topic" target="_top">
<polygon fill="#eeefff" stroke="#dddeee" points="452.8,-501.24 398.8,-501.24 398.8,-465.24 452.8,-465.24 452.8,-501.24"/>
<text text-anchor="middle" x="425.8" y="-479.54" font-family="Times,serif" font-size="14.00">Topic</text>
</a>
</g>
</g>
<!-- VerifierRole -->
<g id="node12" class="node">
<title>VerifierRole</title>
<g id="a_node12"><a xlink:href="/develop/Data/models.html#verifier-role" xlink:title="VerifierRole" target="_top">
<polygon fill="#eeefff" stroke="#dddeee" points="467.3,-261.24 384.3,-261.24 384.3,-225.24 467.3,-225.24 467.3,-261.24"/>
<text text-anchor="middle" x="425.8" y="-239.54" font-family="Times,serif" font-size="14.00">VerifierRole</text>
</a>
</g>
</g>
<!-- Verifier -->
<g id="node13" class="node">
<title>Verifier</title>
<g id="a_node13"><a xlink:href="/develop/Data/models.html#verifier" xlink:title="Verifier" target="_top">
<polygon fill="#eeefff" stroke="#dddeee" points="596.8,-292.24 539.8,-292.24 539.8,-256.24 596.8,-256.24 596.8,-292.24"/>
<text text-anchor="middle" x="568.3" y="-270.54" font-family="Times,serif" font-size="14.00">Verifier</text>
</a>
</g>
</g>
<!-- Creator -->
<g id="node14" class="node">
<title>Creator</title>
<g id="a_node14"><a xlink:href="/develop/Data/models.html#creator" xlink:title="Creator" target="_top">
<polygon fill="#eeefff" stroke="#dddeee" points="596.8,-169.24 539.8,-169.24 539.8,-133.24 596.8,-133.24 596.8,-169.24"/>
<text text-anchor="middle" x="568.3" y="-147.54" font-family="Times,serif" font-size="14.00">Creator</text>
</a>
</g>
</g>
<!-- Project -->
<g id="node15" class="node">
<title>Project</title>
<g id="a_node15"><a xlink:href="/develop/Data/models.html#project" xlink:title="Project" target="_top">
<polygon fill="#eeefff" stroke="#dddeee" points="453.3,-169.24 398.3,-169.24 398.3,-133.24 453.3,-133.24 453.3,-169.24"/>
<text text-anchor="middle" x="425.8" y="-147.54" font-family="Times,serif" font-size="14.00">Project</text>
</a>
</g>
</g>
<!-- Updater -->
<g id="node16" class="node">
<title>Updater</title>
<g id="a_node16"><a xlink:href="/develop/Data/models.html#updater" xlink:title="Updater" target="_top">
<polygon fill="#eeefff" stroke="#dddeee" points="753.3,-169.24 693.3,-169.24 693.3,-133.24 753.3,-133.24 753.3,-169.24"/>
<text text-anchor="middle" x="723.3" y="-147.54" font-family="Times,serif" font-size="14.00">Updater</text>
</a>
</g>
</g>
<!-- OriginCitation -->
<g id="node17" class="node">
<title>OriginCitation</title>
<g id="a_node17"><a xlink:href="/develop/Data/models.html#origin-citation" xlink:title="OriginCitation" target="_top">
<polygon fill="#eeefff" stroke="#dddeee" points="615.8,-438.24 520.8,-438.24 520.8,-402.24 615.8,-402.24 615.8,-438.24"/>
<text text-anchor="middle" x="568.3" y="-416.54" font-family="Times,serif" font-size="14.00">OriginCitation</text>
</a>
</g>
</g>
</g>
</svg>
