<?xml version="1.0" encoding="UTF-8" standalone="no"?>
<!DOCTYPE svg PUBLIC "-//W3C//DTD SVG 1.1//EN"
 "http://www.w3.org/Graphics/SVG/1.1/DTD/svg11.dtd">
<!-- Generated by graphviz version 2.50.0 (20211204.2007)
 -->
<!-- Title: TaxonDetermination Pages: 1 -->
<svg width="916pt" height="686pt"
 viewBox="0.00 0.00 916.19 686.00" xmlns="http://www.w3.org/2000/svg" xmlns:xlink="http://www.w3.org/1999/xlink">
<g id="graph0" class="graph" transform="scale(1 1) rotate(0) translate(4 682)">
<title>TaxonDetermination</title>
<polygon fill="white" stroke="transparent" points="-4,4 -4,-682 912.19,-682 912.19,4 -4,4"/>
<!-- Citation&#45;&gt;Source -->
<g id="edge16" class="edge">
<title>Citation&#45;&gt;Source</title>
<path fill="none" stroke="black" stroke-dasharray="1,5" d="M124.17,-605C206.02,-605 397.95,-605 478.31,-605"/>
<polygon fill="black" stroke="black" points="478.43,-608.5 488.43,-605 478.43,-601.5 478.43,-608.5"/>
</g>
<!-- Citation&#45;&gt;CitationTopic -->
<g id="edge1" class="edge">
<title>Citation&#45;&gt;CitationTopic</title>
<path fill="none" stroke="black" stroke-dasharray="1,5" d="M119.67,-613.59C153.36,-622.23 205.85,-635.68 245.66,-645.88"/>
<polygon fill="black" stroke="black" points="244.93,-649.31 255.49,-648.4 246.67,-642.53 244.93,-649.31"/>
</g>
<!-- Confidence&#45;&gt;ConfidenceLevel -->
<g id="edge3" class="edge">
<title>Confidence&#45;&gt;ConfidenceLevel</title>
<path fill="none" stroke="black" stroke-dasharray="1,5" d="M135.91,-309.77C165.97,-309.63 204.57,-309.45 236.86,-309.3"/>
<polygon fill="black" stroke="black" points="237.12,-312.8 247.11,-309.25 237.09,-305.8 237.12,-312.8"/>
</g>
<!-- Depiction&#45;&gt;Image -->
<g id="edge9" class="edge">
<title>Depiction&#45;&gt;Image</title>
<path fill="none" stroke="black" stroke-dasharray="1,5" d="M130.87,-255C170.44,-255 227.48,-255 264.33,-255"/>
<polygon fill="black" stroke="black" points="264.62,-258.5 274.62,-255 264.62,-251.5 264.62,-258.5"/>
</g>
<!-- ProtocolRelationship&#45;&gt;Protocol -->
<g id="edge14" class="edge">
<title>ProtocolRelationship&#45;&gt;Protocol</title>
<path fill="none" stroke="black" stroke-dasharray="1,5" d="M170.34,-201C201.27,-201 234.88,-201 260.23,-201"/>
<polygon fill="black" stroke="black" points="260.56,-204.5 270.56,-201 260.56,-197.5 260.56,-204.5"/>
</g>
<!-- Source&#45;&gt;SubsequentCitation -->
<!-- Source&#45;&gt;OriginCitation -->
<!-- TaxonDetermination&#45;&gt;Citation -->
<g id="edge2" class="edge">
<title>TaxonDetermination&#45;&gt;Citation</title>
<path fill="none" stroke="black" d="M280.8,-389.12C240.53,-433.78 149.78,-534.43 107.98,-580.78"/>
<polygon fill="black" stroke="black" points="105.33,-578.49 101.23,-588.26 110.53,-583.18 105.33,-578.49"/>
</g>
<!-- TaxonDetermination&#45;&gt;Confidence -->
<g id="edge4" class="edge">
<title>TaxonDetermination&#45;&gt;Confidence</title>
<path fill="none" stroke="black" d="M237.21,-350.13C204.92,-341.55 166.26,-331.28 136.12,-323.28"/>
<polygon fill="black" stroke="black" points="136.82,-319.84 126.25,-320.65 135.02,-326.6 136.82,-319.84"/>
</g>
<!-- TaxonDetermination&#45;&gt;DataAttribute -->
<g id="edge5" class="edge">
<title>TaxonDetermination&#45;&gt;DataAttribute</title>
<path fill="none" stroke="black" d="M233.85,-383.21C204.35,-390.36 170.07,-398.66 141.97,-405.47"/>
<polygon fill="black" stroke="black" points="140.81,-402.15 131.92,-407.91 142.46,-408.95 140.81,-402.15"/>
</g>
<!-- TaxonDetermination&#45;&gt;Depiction -->
<g id="edge6" class="edge">
<title>TaxonDetermination&#45;&gt;Depiction</title>
<path fill="none" stroke="black" d="M232.98,-350.86C223.5,-346.91 214.28,-342.02 206.28,-336 183.54,-318.87 192.99,-300.18 170.28,-283 160.31,-275.45 148.19,-269.88 136.29,-265.78"/>
<polygon fill="black" stroke="black" points="136.99,-262.33 126.4,-262.67 134.9,-269.01 136.99,-262.33"/>
</g>
<!-- TaxonDetermination&#45;&gt;Note -->
<g id="edge11" class="edge">
<title>TaxonDetermination&#45;&gt;Note</title>
<path fill="none" stroke="black" d="M206.28,-366.12C177.08,-365.85 146.58,-365.56 123.63,-365.35"/>
<polygon fill="black" stroke="black" points="123.35,-361.85 113.32,-365.25 123.29,-368.85 123.35,-361.85"/>
</g>
<!-- TaxonDetermination&#45;&gt;ProtocolRelationship -->
<g id="edge13" class="edge">
<title>TaxonDetermination&#45;&gt;ProtocolRelationship</title>
<path fill="none" stroke="black" d="M228.98,-351.61C220.61,-347.56 212.77,-342.45 206.28,-336 170.43,-300.31 206.26,-263.58 170.28,-228 166.33,-224.09 161.81,-220.75 156.96,-217.89"/>
<polygon fill="black" stroke="black" points="158.42,-214.7 147.93,-213.24 155.22,-220.93 158.42,-214.7"/>
</g>
<!-- TaxonDetermination&#45;&gt;Source -->
<g id="edge28" class="edge">
<title>TaxonDetermination&#45;&gt;Source</title>
<path fill="none" stroke="black" stroke-dasharray="1,5" d="M315.46,-398.74C334.73,-443.16 375.33,-523.81 433.19,-572 446.38,-582.98 463.69,-590.68 478.97,-595.86"/>
<polygon fill="none" stroke="black" points="307.77,-390.88 315.13,-387.75 318.26,-395.11 310.9,-398.24 307.77,-390.88"/>
<polyline fill="none" stroke="black" points="314.58,-396.68 315.36,-398.52 "/>
<polygon fill="none" stroke="black" points="489.85,-595.1 487.45,-602.73 479.82,-600.32 482.22,-592.69 489.85,-595.1"/>
<polyline fill="none" stroke="black" points="481.02,-596.51 479.11,-595.91 "/>
</g>
<!-- TaxonDetermination&#45;&gt;Otu -->
<g id="edge24" class="edge">
<title>TaxonDetermination&#45;&gt;Otu</title>
<path fill="none" stroke="black" stroke-dasharray="5,2" d="M371.46,-345.96C380.21,-342.84 388.97,-339.49 397.19,-336 413.85,-328.93 416.59,-324.18 433.19,-317 451.32,-309.16 472.42,-301.96 488.61,-296.83"/>
<polygon fill="black" stroke="black" points="370.3,-342.65 362.01,-349.25 372.6,-349.27 370.3,-342.65"/>
</g>
<!-- TaxonDetermination&#45;&gt;DeterminerRole -->
<g id="edge7" class="edge">
<title>TaxonDetermination&#45;&gt;DeterminerRole</title>
<path fill="none" stroke="black" d="M372.79,-351.26C381.63,-347.26 390.06,-342.26 397.19,-336 424.99,-311.61 405.43,-285.42 433.19,-261 439.32,-255.61 446.55,-251.29 454.14,-247.83"/>
<polygon fill="black" stroke="black" points="455.57,-251.03 463.52,-244.02 452.93,-244.54 455.57,-251.03"/>
</g>
<!-- TaxonDetermination&#45;&gt;Label -->
<g id="edge10" class="edge">
<title>TaxonDetermination&#45;&gt;Label</title>
<path fill="none" stroke="black" d="M375.27,-351.68C383.41,-347.62 390.99,-342.49 397.19,-336 438.33,-292.97 392.12,-250.08 433.19,-207 445,-194.61 462.62,-187.9 478.46,-184.27"/>
<polygon fill="black" stroke="black" points="479.38,-187.66 488.53,-182.3 478.04,-180.79 479.38,-187.66"/>
</g>
<!-- TaxonDetermination&#45;&gt;PinboardItem -->
<g id="edge12" class="edge">
<title>TaxonDetermination&#45;&gt;PinboardItem</title>
<path fill="none" stroke="black" d="M376.22,-351.89C384.11,-347.79 391.36,-342.59 397.19,-336 452.1,-273.9 378.38,-215.18 433.19,-153 440.44,-144.78 450.24,-139.06 460.54,-135.07"/>
<polygon fill="black" stroke="black" points="461.7,-138.37 470.07,-131.88 459.48,-131.74 461.7,-138.37"/>
</g>
<!-- TaxonDetermination&#45;&gt;Role -->
<g id="edge15" class="edge">
<title>TaxonDetermination&#45;&gt;Role</title>
<path fill="none" stroke="black" d="M376.5,-352.13C384.34,-347.99 391.51,-342.72 397.19,-336 466.01,-254.66 364.49,-180.43 433.19,-99 444.31,-85.82 462.02,-79.04 478.09,-75.57"/>
<polygon fill="black" stroke="black" points="479.11,-78.94 488.33,-73.73 477.87,-72.05 479.11,-78.94"/>
</g>
<!-- TaxonDetermination&#45;&gt;SubsequentCitation -->
<g id="edge17" class="edge">
<title>TaxonDetermination&#45;&gt;SubsequentCitation</title>
<path fill="none" stroke="black" d="M335.54,-389.15C361.19,-405.65 398.25,-427.71 433.19,-442 503.33,-470.7 525.05,-465.18 598.19,-485 606.63,-487.29 615.48,-489.72 624.24,-492.16"/>
<polygon fill="black" stroke="black" points="623.5,-495.58 634.07,-494.9 625.38,-488.84 623.5,-495.58"/>
</g>
<!-- TaxonDetermination&#45;&gt;VerifierRole -->
<g id="edge20" class="edge">
<title>TaxonDetermination&#45;&gt;VerifierRole</title>
<path fill="none" stroke="black" d="M377.14,-352.03C384.77,-347.91 391.71,-342.66 397.19,-336 479.98,-235.36 350.54,-145.76 433.19,-45 441.02,-35.46 452.31,-29.26 464.01,-25.25"/>
<polygon fill="black" stroke="black" points="465.25,-28.53 473.86,-22.36 463.28,-21.81 465.25,-28.53"/>
</g>
<!-- TaxonDetermination&#45;&gt;BiologicalCollectionObject -->
<g id="edge22" class="edge">
<title>TaxonDetermination&#45;&gt;BiologicalCollectionObject</title>
<path fill="none" stroke="black" stroke-dasharray="5,2" d="M330.87,-396.45C355.87,-421.32 394.39,-456.53 433.19,-480 441.78,-485.19 451.35,-489.83 460.84,-493.86"/>
<polygon fill="black" stroke="black" points="333.08,-393.71 323.55,-389.09 328.12,-398.65 333.08,-393.71"/>
</g>
<!-- TaxonDetermination&#45;&gt;Creator -->
<g id="edge23" class="edge">
<title>TaxonDetermination&#45;&gt;Creator</title>
<path fill="none" stroke="black" stroke-dasharray="5,2" d="M407.38,-376.04C464.1,-379.03 535.27,-379.68 598.19,-371 621.69,-367.76 647.53,-360.25 666.48,-353.98"/>
<polygon fill="black" stroke="black" points="407.51,-372.54 397.33,-375.48 407.11,-379.53 407.51,-372.54"/>
</g>
<!-- TaxonDetermination&#45;&gt;Project -->
<g id="edge25" class="edge">
<title>TaxonDetermination&#45;&gt;Project</title>
<path fill="none" stroke="black" stroke-dasharray="5,2" d="M407.37,-355.65C437.28,-352.4 467.33,-349.14 487.99,-346.9"/>
<polygon fill="black" stroke="black" points="406.81,-352.19 397.25,-356.74 407.57,-359.15 406.81,-352.19"/>
</g>
<!-- TaxonDetermination&#45;&gt;Updater -->
<g id="edge26" class="edge">
<title>TaxonDetermination&#45;&gt;Updater</title>
<path fill="none" stroke="black" stroke-dasharray="5,2" d="M386.95,-383.32C402.28,-385.68 418.17,-387.74 433.19,-389 576.47,-401 615.22,-399.28 756.19,-371 777.95,-366.63 802,-359.59 820.19,-353.79"/>
<polygon fill="black" stroke="black" points="387.4,-379.85 376.97,-381.72 386.3,-386.76 387.4,-379.85"/>
</g>
<!-- TaxonDetermination&#45;&gt;OriginCitation -->
<g id="edge27" class="edge">
<title>TaxonDetermination&#45;&gt;OriginCitation</title>
<path fill="none" stroke="black" d="M317.09,-398.27C337.09,-438 377.27,-505.42 433.19,-539 466.71,-559.13 571.23,-571.07 637.39,-576.8"/>
<polygon fill="none" stroke="black" points="309.09,-391.05 316.27,-387.52 319.79,-394.7 312.61,-398.23 309.09,-391.05"/>
<polyline fill="none" stroke="black" points="316.2,-396.46 317.09,-398.26 "/>
<polygon fill="none" stroke="black" points="648,-573.68 647.33,-581.66 639.35,-580.98 640.03,-573.01 648,-573.68"/>
<polyline fill="none" stroke="black" points="639.69,-577 637.7,-576.83 "/>
</g>
<!-- CitationTopic&#45;&gt;Topic -->
<g id="edge19" class="edge">
<title>CitationTopic&#45;&gt;Topic</title>
<path fill="none" stroke="black" stroke-dasharray="1,5" d="M347.95,-660C386.9,-660 442.39,-660 478.47,-660"/>
<polygon fill="black" stroke="black" points="478.56,-663.5 488.56,-660 478.56,-656.5 478.56,-663.5"/>
</g>
<!-- DeterminerRole&#45;&gt;Determiner -->
<g id="edge8" class="edge">
<title>DeterminerRole&#45;&gt;Determiner</title>
<path fill="none" stroke="black" stroke-dasharray="1,5" d="M568.03,-234C592.38,-234 621.33,-234 645.35,-234"/>
<polygon fill="black" stroke="black" points="645.66,-237.5 655.66,-234 645.66,-230.5 645.66,-237.5"/>
</g>
<!-- Role&#45;&gt;Verifier -->
<!-- SubsequentCitation&#45;&gt;SubsequentSource -->
<g id="edge18" class="edge">
<title>SubsequentCitation&#45;&gt;SubsequentSource</title>
<path fill="none" stroke="black" stroke-dasharray="1,5" d="M756.22,-512C764.56,-512 773.16,-512 781.62,-512"/>
<polygon fill="black" stroke="black" points="781.84,-515.5 791.84,-512 781.84,-508.5 781.84,-515.5"/>
</g>
<!-- VerifierRole&#45;&gt;Verifier -->
<g id="edge21" class="edge">
<title>VerifierRole&#45;&gt;Verifier</title>
<path fill="none" stroke="black" stroke-dasharray="1,5" d="M557.42,-24.19C587.22,-28.73 627.38,-34.84 656.46,-39.26"/>
<polygon fill="black" stroke="black" points="656.22,-42.76 666.63,-40.81 657.27,-35.84 656.22,-42.76"/>
</g>
<!-- Creator&#45;&gt;Updater -->
<!-- Project&#45;&gt;Creator -->
<!-- Citation -->
<g id="node1" class="node">
<title>Citation</title>
<g id="a_node1"><a xlink:href="/develop/Data/models.html#citation" xlink:title="Citation" target="_top">
<ellipse fill="#abcdef" stroke="#dddeee" cx="85.14" cy="-605" rx="38.99" ry="18"/>
<text text-anchor="middle" x="85.14" y="-601.3" font-family="Times,serif" font-size="14.00">Citation</text>
</a>
</g>
</g>
<!-- Confidence -->
<g id="node2" class="node">
<title>Confidence</title>
<g id="a_node2"><a xlink:href="/develop/Data/models.html#confidence" xlink:title="Confidence" target="_top">
<ellipse fill="#abcdef" stroke="#dddeee" cx="85.14" cy="-310" rx="50.89" ry="18"/>
<text text-anchor="middle" x="85.14" y="-306.3" font-family="Times,serif" font-size="14.00">Confidence</text>
</a>
</g>
</g>
<!-- DataAttribute -->
<g id="node3" class="node">
<title>DataAttribute</title>
<g id="a_node3"><a xlink:href="/develop/Data/models.html#data-attribute" xlink:title="DataAttribute" target="_top">
<ellipse fill="#abcdef" stroke="#dddeee" cx="85.14" cy="-419" rx="59.29" ry="18"/>
<text text-anchor="middle" x="85.14" y="-415.3" font-family="Times,serif" font-size="14.00">DataAttribute</text>
</a>
</g>
</g>
<!-- Depiction -->
<g id="node4" class="node">
<title>Depiction</title>
<g id="a_node4"><a xlink:href="/develop/Data/models.html#depiction" xlink:title="Depiction" target="_top">
<ellipse fill="#abcdef" stroke="#dddeee" cx="85.14" cy="-255" rx="45.49" ry="18"/>
<text text-anchor="middle" x="85.14" y="-251.3" font-family="Times,serif" font-size="14.00">Depiction</text>
</a>
</g>
</g>
<!-- Note -->
<g id="node5" class="node">
<title>Note</title>
<g id="a_node5"><a xlink:href="/develop/Data/models.html#note" xlink:title="Note" target="_top">
<ellipse fill="#abcdef" stroke="#dddeee" cx="85.14" cy="-365" rx="27.9" ry="18"/>
<text text-anchor="middle" x="85.14" y="-361.3" font-family="Times,serif" font-size="14.00">Note</text>
</a>
</g>
</g>
<!-- ProtocolRelationship -->
<g id="node6" class="node">
<title>ProtocolRelationship</title>
<g id="a_node6"><a xlink:href="/develop/Data/models.html#protocol-relationship" xlink:title="ProtocolRelationship" target="_top">
<ellipse fill="#abcdef" stroke="#dddeee" cx="85.14" cy="-201" rx="85.29" ry="18"/>
<text text-anchor="middle" x="85.14" y="-197.3" font-family="Times,serif" font-size="14.00">ProtocolRelationship</text>
</a>
</g>
</g>
<!-- Source -->
<g id="node7" class="node">
<title>Source</title>
<g id="a_node7"><a xlink:href="/develop/Data/models.html#source" xlink:title="Source" target="_top">
<path fill="#fedcba" stroke="#dddeee" d="M500.69,-587C500.69,-587 530.69,-587 530.69,-587 536.69,-587 542.69,-593 542.69,-599 542.69,-599 542.69,-611 542.69,-611 542.69,-617 536.69,-623 530.69,-623 530.69,-623 500.69,-623 500.69,-623 494.69,-623 488.69,-617 488.69,-611 488.69,-611 488.69,-599 488.69,-599 488.69,-593 494.69,-587 500.69,-587"/>
<text text-anchor="middle" x="515.69" y="-601.3" font-family="Times,serif" font-size="14.00">Source</text>
</a>
</g>
</g>
<!-- Otu -->
<g id="node8" class="node">
<title>Otu</title>
<g id="a_node8"><a xlink:href="/develop/Data/models.html#otu" xlink:title="Otu" target="_top">
<path fill="#fedcba" stroke="#dddeee" d="M500.69,-271C500.69,-271 530.69,-271 530.69,-271 536.69,-271 542.69,-277 542.69,-283 542.69,-283 542.69,-295 542.69,-295 542.69,-301 536.69,-307 530.69,-307 530.69,-307 500.69,-307 500.69,-307 494.69,-307 488.69,-301 488.69,-295 488.69,-295 488.69,-283 488.69,-283 488.69,-277 494.69,-271 500.69,-271"/>
<text text-anchor="middle" x="515.69" y="-285.3" font-family="Times,serif" font-size="14.00">Otu</text>
</a>
</g>
</g>
<!-- TaxonDetermination -->
<g id="node9" class="node">
<title>TaxonDetermination</title>
<g id="a_node9"><a xlink:href="/develop/Data/models.html#taxon-determination" xlink:title="TaxonDetermination" target="_top">
<polygon fill="#cdefab" stroke="#dedede" points="393.15,-359.54 393.15,-374.46 339.6,-385 263.88,-385 210.33,-374.46 210.33,-359.54 263.88,-349 339.6,-349 393.15,-359.54"/>
<polygon fill="none" stroke="#dedede" points="397.15,-356.25 397.15,-377.75 339.99,-389 263.49,-389 206.33,-377.75 206.33,-356.25 263.49,-345 339.99,-345 397.15,-356.25"/>
<text text-anchor="middle" x="301.74" y="-363.3" font-family="Times,serif" font-size="14.00">TaxonDetermination</text>
</a>
</g>
</g>
<!-- CitationTopic -->
<g id="node10" class="node">
<title>CitationTopic</title>
<g id="a_node10"><a xlink:href="/develop/Data/models.html#citation-topic" xlink:title="CitationTopic" target="_top">
<polygon fill="#eeefff" stroke="#dddeee" points="347.74,-678 255.74,-678 255.74,-642 347.74,-642 347.74,-678"/>
<text text-anchor="middle" x="301.74" y="-656.3" font-family="Times,serif" font-size="14.00">CitationTopic</text>
</a>
</g>
</g>
<!-- ConfidenceLevel -->
<g id="node11" class="node">
<title>ConfidenceLevel</title>
<g id="a_node11"><a xlink:href="/develop/Data/models.html#confidence-level" xlink:title="ConfidenceLevel" target="_top">
<polygon fill="#eeefff" stroke="#dddeee" points="356.24,-327 247.24,-327 247.24,-291 356.24,-291 356.24,-327"/>
<text text-anchor="middle" x="301.74" y="-305.3" font-family="Times,serif" font-size="14.00">ConfidenceLevel</text>
</a>
</g>
</g>
<!-- DeterminerRole -->
<g id="node12" class="node">
<title>DeterminerRole</title>
<g id="a_node12"><a xlink:href="/develop/Data/models.html#determiner-role" xlink:title="DeterminerRole" target="_top">
<polygon fill="#eeefff" stroke="#dddeee" points="567.69,-252 463.69,-252 463.69,-216 567.69,-216 567.69,-252"/>
<text text-anchor="middle" x="515.69" y="-230.3" font-family="Times,serif" font-size="14.00">DeterminerRole</text>
</a>
</g>
</g>
<!-- Determiner -->
<g id="node13" class="node">
<title>Determiner</title>
<g id="a_node13"><a xlink:href="/develop/Data/models.html#determiner" xlink:title="Determiner" target="_top">
<polygon fill="#eeefff" stroke="#dddeee" points="734.69,-252 655.69,-252 655.69,-216 734.69,-216 734.69,-252"/>
<text text-anchor="middle" x="695.19" y="-230.3" font-family="Times,serif" font-size="14.00">Determiner</text>
</a>
</g>
</g>
<!-- Image -->
<g id="node14" class="node">
<title>Image</title>
<g id="a_node14"><a xlink:href="/develop/Data/models.html#image" xlink:title="Image" target="_top">
<polygon fill="#eeefff" stroke="#dddeee" points="328.74,-273 274.74,-273 274.74,-237 328.74,-237 328.74,-273"/>
<text text-anchor="middle" x="301.74" y="-251.3" font-family="Times,serif" font-size="14.00">Image</text>
</a>
</g>
</g>
<!-- Label -->
<g id="node15" class="node">
<title>Label</title>
<g id="a_node15"><a xlink:href="/develop/Data/models.html#label" xlink:title="Label" target="_top">
<polygon fill="#eeefff" stroke="#dddeee" points="542.69,-198 488.69,-198 488.69,-162 542.69,-162 542.69,-198"/>
<text text-anchor="middle" x="515.69" y="-176.3" font-family="Times,serif" font-size="14.00">Label</text>
</a>
</g>
</g>
<!-- PinboardItem -->
<g id="node16" class="node">
<title>PinboardItem</title>
<g id="a_node16"><a xlink:href="/develop/Data/models.html#pinboard-item" xlink:title="PinboardItem" target="_top">
<polygon fill="#eeefff" stroke="#dddeee" points="561.19,-144 470.19,-144 470.19,-108 561.19,-108 561.19,-144"/>
<text text-anchor="middle" x="515.69" y="-122.3" font-family="Times,serif" font-size="14.00">PinboardItem</text>
</a>
</g>
</g>
<!-- Protocol -->
<g id="node17" class="node">
<title>Protocol</title>
<g id="a_node17"><a xlink:href="/develop/Data/models.html#protocol" xlink:title="Protocol" target="_top">
<polygon fill="#eeefff" stroke="#dddeee" points="332.74,-219 270.74,-219 270.74,-183 332.74,-183 332.74,-219"/>
<text text-anchor="middle" x="301.74" y="-197.3" font-family="Times,serif" font-size="14.00">Protocol</text>
</a>
</g>
</g>
<!-- Role -->
<g id="node18" class="node">
<title>Role</title>
<g id="a_node18"><a xlink:href="/develop/Data/models.html#role" xlink:title="Role" target="_top">
<polygon fill="#eeefff" stroke="#dddeee" points="542.69,-90 488.69,-90 488.69,-54 542.69,-54 542.69,-90"/>
<text text-anchor="middle" x="515.69" y="-68.3" font-family="Times,serif" font-size="14.00">Role</text>
</a>
</g>
</g>
<!-- SubsequentCitation -->
<g id="node19" class="node">
<title>SubsequentCitation</title>
<g id="a_node19"><a xlink:href="/develop/Data/models.html#subsequent-citation" xlink:title="SubsequentCitation" target="_top">
<polygon fill="#eeefff" stroke="#dddeee" points="756.19,-530 634.19,-530 634.19,-494 756.19,-494 756.19,-530"/>
<text text-anchor="middle" x="695.19" y="-508.3" font-family="Times,serif" font-size="14.00">SubsequentCitation</text>
</a>
</g>
</g>
<!-- SubsequentSource -->
<g id="node20" class="node">
<title>SubsequentSource</title>
<g id="a_node20"><a xlink:href="/develop/Data/models.html#subsequent-source" xlink:title="SubsequentSource" target="_top">
<polygon fill="#eeefff" stroke="#dddeee" points="908.19,-530 792.19,-530 792.19,-494 908.19,-494 908.19,-530"/>
<text text-anchor="middle" x="850.19" y="-508.3" font-family="Times,serif" font-size="14.00">SubsequentSource</text>
</a>
</g>
</g>
<!-- Topic -->
<g id="node21" class="node">
<title>Topic</title>
<g id="a_node21"><a xlink:href="/develop/Data/models.html#topic" xlink:title="Topic" target="_top">
<polygon fill="#eeefff" stroke="#dddeee" points="542.69,-678 488.69,-678 488.69,-642 542.69,-642 542.69,-678"/>
<text text-anchor="middle" x="515.69" y="-656.3" font-family="Times,serif" font-size="14.00">Topic</text>
</a>
</g>
</g>
<!-- VerifierRole -->
<g id="node22" class="node">
<title>VerifierRole</title>
<g id="a_node22"><a xlink:href="/develop/Data/models.html#verifier-role" xlink:title="VerifierRole" target="_top">
<polygon fill="#eeefff" stroke="#dddeee" points="557.19,-36 474.19,-36 474.19,0 557.19,0 557.19,-36"/>
<text text-anchor="middle" x="515.69" y="-14.3" font-family="Times,serif" font-size="14.00">VerifierRole</text>
</a>
</g>
</g>
<!-- Verifier -->
<g id="node23" class="node">
<title>Verifier</title>
<g id="a_node23"><a xlink:href="/develop/Data/models.html#verifier" xlink:title="Verifier" target="_top">
<polygon fill="#eeefff" stroke="#dddeee" points="723.69,-63 666.69,-63 666.69,-27 723.69,-27 723.69,-63"/>
<text text-anchor="middle" x="695.19" y="-41.3" font-family="Times,serif" font-size="14.00">Verifier</text>
</a>
</g>
</g>
<!-- BiologicalCollectionObject -->
<g id="node24" class="node">
<title>BiologicalCollectionObject</title>
<g id="a_node24"><a xlink:href="/develop/Data/models.html#biological-collection-object" xlink:title="BiologicalCollectionObject" target="_top">
<polygon fill="#eeefff" stroke="#dddeee" points="598.19,-530 433.19,-530 433.19,-494 598.19,-494 598.19,-530"/>
<text text-anchor="middle" x="515.69" y="-508.3" font-family="Times,serif" font-size="14.00">BiologicalCollectionObject</text>
</a>
</g>
</g>
<!-- Creator -->
<g id="node25" class="node">
<title>Creator</title>
<g id="a_node25"><a xlink:href="/develop/Data/models.html#creator" xlink:title="Creator" target="_top">
<polygon fill="#eeefff" stroke="#dddeee" points="723.69,-362 666.69,-362 666.69,-326 723.69,-326 723.69,-362"/>
<text text-anchor="middle" x="695.19" y="-340.3" font-family="Times,serif" font-size="14.00">Creator</text>
</a>
</g>
</g>
<!-- Project -->
<g id="node26" class="node">
<title>Project</title>
<g id="a_node26"><a xlink:href="/develop/Data/models.html#project" xlink:title="Project" target="_top">
<polygon fill="#eeefff" stroke="#dddeee" points="543.19,-362 488.19,-362 488.19,-326 543.19,-326 543.19,-362"/>
<text text-anchor="middle" x="515.69" y="-340.3" font-family="Times,serif" font-size="14.00">Project</text>
</a>
</g>
</g>
<!-- Updater -->
<g id="node27" class="node">
<title>Updater</title>
<g id="a_node27"><a xlink:href="/develop/Data/models.html#updater" xlink:title="Updater" target="_top">
<polygon fill="#eeefff" stroke="#dddeee" points="880.19,-362 820.19,-362 820.19,-326 880.19,-326 880.19,-362"/>
<text text-anchor="middle" x="850.19" y="-340.3" font-family="Times,serif" font-size="14.00">Updater</text>
</a>
</g>
</g>
<!-- OriginCitation -->
<g id="node28" class="node">
<title>OriginCitation</title>
<g id="a_node28"><a xlink:href="/develop/Data/models.html#origin-citation" xlink:title="OriginCitation" target="_top">
<polygon fill="#eeefff" stroke="#dddeee" points="742.69,-599 647.69,-599 647.69,-563 742.69,-563 742.69,-599"/>
<text text-anchor="middle" x="695.19" y="-577.3" font-family="Times,serif" font-size="14.00">OriginCitation</text>
</a>
</g>
</g>
</g>
</svg>
