<?xml version="1.0" encoding="UTF-8" standalone="no"?>
<!DOCTYPE svg PUBLIC "-//W3C//DTD SVG 1.1//EN"
 "http://www.w3.org/Graphics/SVG/1.1/DTD/svg11.dtd">
<!-- Generated by graphviz version 12.2.1 (20241206.2353)
 -->
<!-- Title: TaxonNameRelationship Pages: 1 -->
<svg width="827pt" height="563pt"
 viewBox="0.00 0.00 826.88 563.39" xmlns="http://www.w3.org/2000/svg" xmlns:xlink="http://www.w3.org/1999/xlink">
<g id="graph0" class="graph" transform="scale(1 1) rotate(0) translate(4 559.39)">
<title>TaxonNameRelationship</title>
<polygon fill="white" stroke="none" points="-4,4 -4,-559.39 822.88,-559.39 822.88,4 -4,4"/>
<!-- Citation&#45;&gt;Source -->
<g id="edge6" class="edge">
<title>Citation&#45;&gt;Source</title>
<path fill="none" stroke="black" stroke-dasharray="1,5" d="M81.52,-482.39C159.71,-482.39 332.07,-482.39 408.55,-482.39"/>
<polygon fill="black" stroke="black" points="408.46,-485.89 418.46,-482.39 408.46,-478.89 408.46,-485.89"/>
</g>
<!-- Citation&#45;&gt;CitationTopic -->
<g id="edge1" class="edge">
<title>Citation&#45;&gt;CitationTopic</title>
<path fill="none" stroke="black" stroke-dasharray="1,5" d="M75.26,-492.1C103.31,-500.19 143.84,-511.88 176.7,-521.36"/>
<polygon fill="black" stroke="black" points="175.49,-524.65 186.07,-524.06 177.43,-517.93 175.49,-524.65"/>
</g>
<!-- Source&#45;&gt;SubsequentCitation -->
<!-- Source&#45;&gt;OriginCitation -->
<!-- TaxonNameRelationship&#45;&gt;Citation -->
<g id="edge2" class="edge">
<title>TaxonNameRelationship&#45;&gt;Citation</title>
<path fill="none" stroke="black" d="M212.66,-288.64C176.95,-329.08 101.64,-414.39 64,-457.03"/>
<polygon fill="black" stroke="black" points="61.56,-454.5 57.57,-464.31 66.81,-459.13 61.56,-454.5"/>
</g>
<!-- TaxonNameRelationship&#45;&gt;Note -->
<g id="edge3" class="edge">
<title>TaxonNameRelationship&#45;&gt;Note</title>
<path fill="none" stroke="black" d="M117.1,-266.39C104.2,-266.39 91.8,-266.39 80.91,-266.39"/>
<polygon fill="black" stroke="black" points="81.25,-262.89 71.25,-266.39 81.25,-269.89 81.25,-262.89"/>
</g>
<!-- TaxonNameRelationship&#45;&gt;Source -->
<g id="edge18" class="edge">
<title>TaxonNameRelationship&#45;&gt;Source</title>
<path fill="none" stroke="black" stroke-dasharray="1,5" d="M254.11,-297.09C280.47,-336.16 330.21,-404.02 385.38,-449.39 393.03,-455.68 402.06,-461.34 410.8,-466.12"/>
<polygon fill="none" stroke="black" points="245.48,-291.38 252.14,-286.94 256.58,-293.59 249.93,-298.03 245.48,-291.38"/>
<polyline fill="none" stroke="black" points="253.25,-295.81 254.36,-297.47"/>
<polygon fill="none" stroke="black" points="421.48,-467.17 417.79,-474.26 410.69,-470.57 414.39,-463.47 421.48,-467.17"/>
<polyline fill="none" stroke="black" points="412.54,-467.02 410.77,-466.1"/>
</g>
<!-- TaxonNameRelationship&#45;&gt;PinboardItem -->
<g id="edge4" class="edge">
<title>TaxonNameRelationship&#45;&gt;PinboardItem</title>
<path fill="none" stroke="black" d="M345,-254.39C361.01,-252.65 376.87,-250.93 391.14,-249.38"/>
<polygon fill="black" stroke="black" points="391.13,-252.9 400.7,-248.35 390.38,-245.95 391.13,-252.9"/>
</g>
<!-- TaxonNameRelationship&#45;&gt;Role -->
<g id="edge5" class="edge">
<title>TaxonNameRelationship&#45;&gt;Role</title>
<path fill="none" stroke="black" d="M291.13,-245.76C328.72,-232.11 376.91,-214.61 409.56,-202.76"/>
<polygon fill="black" stroke="black" points="410.37,-206.19 418.58,-199.49 407.98,-199.61 410.37,-206.19"/>
</g>
<!-- TaxonNameRelationship&#45;&gt;SubsequentCitation -->
<g id="edge7" class="edge">
<title>TaxonNameRelationship&#45;&gt;SubsequentCitation</title>
<path fill="none" stroke="black" d="M339.35,-279.34C390.86,-286.48 453.66,-296.34 509.38,-308.39 517.34,-310.11 525.62,-312.12 533.82,-314.24"/>
<polygon fill="black" stroke="black" points="532.91,-317.61 543.47,-316.8 534.71,-310.85 532.91,-317.61"/>
</g>
<!-- TaxonNameRelationship&#45;&gt;VerifierRole -->
<g id="edge10" class="edge">
<title>TaxonNameRelationship&#45;&gt;VerifierRole</title>
<path fill="none" stroke="black" d="M263.34,-243.98C293.01,-221.66 340.91,-187.26 385.38,-162.39 388.72,-160.53 392.21,-158.69 395.76,-156.92"/>
<polygon fill="black" stroke="black" points="396.97,-160.22 404.47,-152.73 393.94,-153.91 396.97,-160.22"/>
</g>
<!-- TaxonNameRelationship&#45;&gt;Creator -->
<g id="edge12" class="edge">
<title>TaxonNameRelationship&#45;&gt;Creator</title>
<path fill="none" stroke="black" stroke-dasharray="5,2" d="M242.9,-233.22C259.55,-176.72 302.12,-63.36 385.38,-16.39 447.19,18.47 534.11,-10.94 577.85,-30.09"/>
<polygon fill="black" stroke="black" points="239.6,-232.02 240.23,-242.6 246.34,-233.93 239.6,-232.02"/>
</g>
<!-- TaxonNameRelationship&#45;&gt;ObjectTaxonName -->
<g id="edge13" class="edge">
<title>TaxonNameRelationship&#45;&gt;ObjectTaxonName</title>
<path fill="none" stroke="black" stroke-dasharray="5,2" d="M275.7,-295.08C305.51,-315.13 347.06,-341.88 385.38,-362.39 390.9,-365.34 396.8,-368.25 402.68,-371"/>
<polygon fill="black" stroke="black" points="277.95,-292.37 267.71,-289.67 274.03,-298.17 277.95,-292.37"/>
</g>
<!-- TaxonNameRelationship&#45;&gt;Project -->
<g id="edge14" class="edge">
<title>TaxonNameRelationship&#45;&gt;Project</title>
<path fill="none" stroke="black" stroke-dasharray="5,2" d="M253.54,-234.45C279.43,-193.53 328.83,-122.29 385.38,-75.39 395.69,-66.84 408.66,-59.65 419.98,-54.26"/>
<polygon fill="black" stroke="black" points="250.6,-232.55 248.27,-242.89 256.54,-236.26 250.6,-232.55"/>
</g>
<!-- TaxonNameRelationship&#45;&gt;SubjectTaxonName -->
<g id="edge15" class="edge">
<title>TaxonNameRelationship&#45;&gt;SubjectTaxonName</title>
<path fill="none" stroke="black" stroke-dasharray="5,2" d="M306.26,-289.81C333.43,-298.65 363.94,-308.57 389.53,-316.9"/>
<polygon fill="black" stroke="black" points="307.67,-286.58 297.08,-286.82 305.51,-293.24 307.67,-286.58"/>
</g>
<!-- TaxonNameRelationship&#45;&gt;Updater -->
<g id="edge16" class="edge">
<title>TaxonNameRelationship&#45;&gt;Updater</title>
<path fill="none" stroke="black" stroke-dasharray="5,2" d="M254.6,-234.68C280.22,-197.61 327.94,-137.64 385.38,-108.39 497.99,-51.07 543.51,-96.55 667.13,-70.39 688.82,-65.8 712.83,-58.77 731.01,-53.03"/>
<polygon fill="black" stroke="black" points="251.83,-232.53 249.12,-242.77 257.63,-236.45 251.83,-232.53"/>
</g>
<!-- TaxonNameRelationship&#45;&gt;OriginCitation -->
<g id="edge17" class="edge">
<title>TaxonNameRelationship&#45;&gt;OriginCitation</title>
<path fill="none" stroke="black" d="M256.21,-297.25C282.68,-332.02 330.53,-387.47 385.38,-416.39 436.25,-443.22 501.78,-453.06 548.02,-456.6"/>
<polygon fill="none" stroke="black" points="247.05,-291.68 253.46,-286.89 258.25,-293.29 251.84,-298.08 247.05,-291.68"/>
<polyline fill="none" stroke="black" points="255.04,-295.69 256.24,-297.29"/>
<polygon fill="none" stroke="black" points="558.23,-453.29 557.68,-461.27 549.7,-460.72 550.25,-452.74 558.23,-453.29"/>
<polyline fill="none" stroke="black" points="549.98,-456.73 547.98,-456.59"/>
</g>
<!-- CitationTopic&#45;&gt;Topic -->
<g id="edge9" class="edge">
<title>CitationTopic&#45;&gt;Topic</title>
<path fill="none" stroke="black" stroke-dasharray="1,5" d="M279.27,-537.39C317.89,-537.39 372.91,-537.39 409.11,-537.39"/>
<polygon fill="black" stroke="black" points="408.65,-540.89 418.65,-537.39 408.65,-533.89 408.65,-540.89"/>
</g>
<!-- Role&#45;&gt;Verifier -->
<!-- SubsequentCitation&#45;&gt;SubsequentSource -->
<g id="edge8" class="edge">
<title>SubsequentCitation&#45;&gt;SubsequentSource</title>
<path fill="none" stroke="black" stroke-dasharray="1,5" d="M667.63,-335.39C675.56,-335.39 683.74,-335.39 691.79,-335.39"/>
<polygon fill="black" stroke="black" points="691.55,-338.89 701.55,-335.39 691.55,-331.89 691.55,-338.89"/>
</g>
<!-- VerifierRole&#45;&gt;Verifier -->
<g id="edge11" class="edge">
<title>VerifierRole&#45;&gt;Verifier</title>
<path fill="none" stroke="black" stroke-dasharray="1,5" d="M489.19,-142.42C512.96,-146.51 542.76,-151.64 566.22,-155.67"/>
<polygon fill="black" stroke="black" points="565.56,-159.11 576.01,-157.36 566.75,-152.21 565.56,-159.11"/>
</g>
<!-- Creator&#45;&gt;Updater -->
<!-- Project&#45;&gt;Creator -->
<!-- Citation -->
<g id="node1" class="node">
<title>Citation</title>
<g id="a_node1"><a xlink:href="/develop/Data/models.html#citation" xlink:title="Citation" target="_top">
<ellipse fill="#abcdef" stroke="#dddeee" cx="40.6" cy="-482.39" rx="40.6" ry="18"/>
<text text-anchor="middle" x="40.6" y="-477.34" font-family="Times,serif" font-size="14.00">Citation</text>
</a>
</g>
</g>
<!-- Note -->
<g id="node2" class="node">
<title>Note</title>
<g id="a_node2"><a xlink:href="/develop/Data/models.html#note" xlink:title="Note" target="_top">
<ellipse fill="#abcdef" stroke="#dddeee" cx="40.6" cy="-266.39" rx="28.83" ry="18"/>
<text text-anchor="middle" x="40.6" y="-261.34" font-family="Times,serif" font-size="14.00">Note</text>
</a>
</g>
</g>
<!-- Source -->
<g id="node3" class="node">
<title>Source</title>
<g id="a_node3"><a xlink:href="/develop/Data/models.html#source" xlink:title="Source" target="_top">
<path fill="#fedcba" stroke="#dddeee" d="M432.38,-464.39C432.38,-464.39 462.38,-464.39 462.38,-464.39 468.38,-464.39 474.38,-470.39 474.38,-476.39 474.38,-476.39 474.38,-488.39 474.38,-488.39 474.38,-494.39 468.38,-500.39 462.38,-500.39 462.38,-500.39 432.38,-500.39 432.38,-500.39 426.38,-500.39 420.38,-494.39 420.38,-488.39 420.38,-488.39 420.38,-476.39 420.38,-476.39 420.38,-470.39 426.38,-464.39 432.38,-464.39"/>
<text text-anchor="middle" x="447.38" y="-477.59" font-family="Times,serif" font-size="14.00">Source</text>
</a>
</g>
</g>
<!-- TaxonNameRelationship -->
<g id="node4" class="node">
<title>TaxonNameRelationship</title>
<g id="a_node4"><a xlink:href="/develop/Data/models.html#taxon-name-relationship" xlink:title="TaxonNameRelationship" target="_top">
<polygon fill="#cdefab" stroke="#dedede" points="345.38,-258.94 345.38,-273.85 279.72,-284.39 186.87,-284.39 121.21,-273.85 121.21,-258.94 186.87,-248.39 279.72,-248.39 345.38,-258.94"/>
<polygon fill="none" stroke="#dedede" points="349.38,-255.53 349.38,-277.26 280.04,-288.39 186.55,-288.39 117.21,-277.26 117.21,-255.53 186.55,-244.39 280.04,-244.39 349.38,-255.53"/>
<text text-anchor="middle" x="233.29" y="-261.34" font-family="Times,serif" font-size="14.00">TaxonNameRelationship</text>
</a>
</g>
</g>
<!-- CitationTopic -->
<g id="node5" class="node">
<title>CitationTopic</title>
<g id="a_node5"><a xlink:href="/develop/Data/models.html#citation-topic" xlink:title="CitationTopic" target="_top">
<polygon fill="#eeefff" stroke="#dddeee" points="278.79,-555.39 187.79,-555.39 187.79,-519.39 278.79,-519.39 278.79,-555.39"/>
<text text-anchor="middle" x="233.29" y="-532.34" font-family="Times,serif" font-size="14.00">CitationTopic</text>
</a>
</g>
</g>
<!-- PinboardItem -->
<g id="node6" class="node">
<title>PinboardItem</title>
<g id="a_node6"><a xlink:href="/develop/Data/models.html#pinboard-item" xlink:title="PinboardItem" target="_top">
<polygon fill="#eeefff" stroke="#dddeee" points="492.51,-261.39 402.26,-261.39 402.26,-225.39 492.51,-225.39 492.51,-261.39"/>
<text text-anchor="middle" x="447.38" y="-238.34" font-family="Times,serif" font-size="14.00">PinboardItem</text>
</a>
</g>
</g>
<!-- Role -->
<g id="node7" class="node">
<title>Role</title>
<g id="a_node7"><a xlink:href="/develop/Data/models.html#role" xlink:title="Role" target="_top">
<polygon fill="#eeefff" stroke="#dddeee" points="474.38,-207.39 420.38,-207.39 420.38,-171.39 474.38,-171.39 474.38,-207.39"/>
<text text-anchor="middle" x="447.38" y="-184.34" font-family="Times,serif" font-size="14.00">Role</text>
</a>
</g>
</g>
<!-- SubsequentCitation -->
<g id="node8" class="node">
<title>SubsequentCitation</title>
<g id="a_node8"><a xlink:href="/develop/Data/models.html#subsequent-citation" xlink:title="SubsequentCitation" target="_top">
<polygon fill="#eeefff" stroke="#dddeee" points="667.13,-353.39 545.38,-353.39 545.38,-317.39 667.13,-317.39 667.13,-353.39"/>
<text text-anchor="middle" x="606.26" y="-330.34" font-family="Times,serif" font-size="14.00">SubsequentCitation</text>
</a>
</g>
</g>
<!-- SubsequentSource -->
<g id="node9" class="node">
<title>SubsequentSource</title>
<g id="a_node9"><a xlink:href="/develop/Data/models.html#subsequent-source" xlink:title="SubsequentSource" target="_top">
<polygon fill="#eeefff" stroke="#dddeee" points="818.88,-353.39 703.13,-353.39 703.13,-317.39 818.88,-317.39 818.88,-353.39"/>
<text text-anchor="middle" x="761.01" y="-330.34" font-family="Times,serif" font-size="14.00">SubsequentSource</text>
</a>
</g>
</g>
<!-- Topic -->
<g id="node10" class="node">
<title>Topic</title>
<g id="a_node10"><a xlink:href="/develop/Data/models.html#topic" xlink:title="Topic" target="_top">
<polygon fill="#eeefff" stroke="#dddeee" points="474.38,-555.39 420.38,-555.39 420.38,-519.39 474.38,-519.39 474.38,-555.39"/>
<text text-anchor="middle" x="447.38" y="-532.34" font-family="Times,serif" font-size="14.00">Topic</text>
</a>
</g>
</g>
<!-- VerifierRole -->
<g id="node11" class="node">
<title>VerifierRole</title>
<g id="a_node11"><a xlink:href="/develop/Data/models.html#verifier-role" xlink:title="VerifierRole" target="_top">
<polygon fill="#eeefff" stroke="#dddeee" points="488.76,-153.39 406.01,-153.39 406.01,-117.39 488.76,-117.39 488.76,-153.39"/>
<text text-anchor="middle" x="447.38" y="-130.34" font-family="Times,serif" font-size="14.00">VerifierRole</text>
</a>
</g>
</g>
<!-- Verifier -->
<g id="node12" class="node">
<title>Verifier</title>
<g id="a_node12"><a xlink:href="/develop/Data/models.html#verifier" xlink:title="Verifier" target="_top">
<polygon fill="#eeefff" stroke="#dddeee" points="634.88,-180.39 577.63,-180.39 577.63,-144.39 634.88,-144.39 634.88,-180.39"/>
<text text-anchor="middle" x="606.26" y="-157.34" font-family="Times,serif" font-size="14.00">Verifier</text>
</a>
</g>
</g>
<!-- Creator -->
<g id="node13" class="node">
<title>Creator</title>
<g id="a_node13"><a xlink:href="/develop/Data/models.html#creator" xlink:title="Creator" target="_top">
<polygon fill="#eeefff" stroke="#dddeee" points="634.51,-61.39 578.01,-61.39 578.01,-25.39 634.51,-25.39 634.51,-61.39"/>
<text text-anchor="middle" x="606.26" y="-38.34" font-family="Times,serif" font-size="14.00">Creator</text>
</a>
</g>
</g>
<!-- ObjectTaxonName -->
<g id="node14" class="node">
<title>ObjectTaxonName</title>
<g id="a_node14"><a xlink:href="/develop/Data/models.html#object-taxon-name" xlink:title="ObjectTaxonName" target="_top">
<polygon fill="#eeefff" stroke="#dddeee" points="507.13,-407.39 387.63,-407.39 387.63,-371.39 507.13,-371.39 507.13,-407.39"/>
<text text-anchor="middle" x="447.38" y="-384.34" font-family="Times,serif" font-size="14.00">ObjectTaxonName</text>
</a>
</g>
</g>
<!-- Project -->
<g id="node15" class="node">
<title>Project</title>
<g id="a_node15"><a xlink:href="/develop/Data/models.html#project" xlink:title="Project" target="_top">
<polygon fill="#eeefff" stroke="#dddeee" points="474.51,-61.39 420.26,-61.39 420.26,-25.39 474.51,-25.39 474.51,-61.39"/>
<text text-anchor="middle" x="447.38" y="-38.34" font-family="Times,serif" font-size="14.00">Project</text>
</a>
</g>
</g>
<!-- SubjectTaxonName -->
<g id="node16" class="node">
<title>SubjectTaxonName</title>
<g id="a_node16"><a xlink:href="/develop/Data/models.html#subject-taxon-name" xlink:title="SubjectTaxonName" target="_top">
<polygon fill="#eeefff" stroke="#dddeee" points="509.38,-353.39 385.38,-353.39 385.38,-317.39 509.38,-317.39 509.38,-353.39"/>
<text text-anchor="middle" x="447.38" y="-330.34" font-family="Times,serif" font-size="14.00">SubjectTaxonName</text>
</a>
</g>
</g>
<!-- Updater -->
<g id="node17" class="node">
<title>Updater</title>
<g id="a_node17"><a xlink:href="/develop/Data/models.html#updater" xlink:title="Updater" target="_top">
<polygon fill="#eeefff" stroke="#dddeee" points="790.76,-61.39 731.26,-61.39 731.26,-25.39 790.76,-25.39 790.76,-61.39"/>
<text text-anchor="middle" x="761.01" y="-38.34" font-family="Times,serif" font-size="14.00">Updater</text>
</a>
</g>
</g>
<!-- OriginCitation -->
<g id="node18" class="node">
<title>OriginCitation</title>
<g id="a_node18"><a xlink:href="/develop/Data/models.html#origin-citation" xlink:title="OriginCitation" target="_top">
<polygon fill="#eeefff" stroke="#dddeee" points="653.63,-476.39 558.88,-476.39 558.88,-440.39 653.63,-440.39 653.63,-476.39"/>
<text text-anchor="middle" x="606.26" y="-453.34" font-family="Times,serif" font-size="14.00">OriginCitation</text>
</a>
</g>
</g>
</g>
</svg>
