<?xml version="1.0" encoding="UTF-8" standalone="no"?>
<!DOCTYPE svg PUBLIC "-//W3C//DTD SVG 1.1//EN"
 "http://www.w3.org/Graphics/SVG/1.1/DTD/svg11.dtd">
<!-- Generated by graphviz version 12.2.1 (20241206.2353)
 -->
<!-- Title: TaxonDetermination Pages: 1 -->
<svg width="1125pt" height="794pt"
 viewBox="0.00 0.00 1124.73 794.00" xmlns="http://www.w3.org/2000/svg" xmlns:xlink="http://www.w3.org/1999/xlink">
<g id="graph0" class="graph" transform="scale(1 1) rotate(0) translate(4 790)">
<title>TaxonDetermination</title>
<polygon fill="white" stroke="none" points="-4,4 -4,-790 1120.73,-790 1120.73,4 -4,4"/>
<!-- Citation&#45;&gt;Source -->
<g id="edge19" class="edge">
<title>Citation&#45;&gt;Source</title>
<path fill="none" stroke="black" stroke-dasharray="1,5" d="M129.73,-713C227.52,-713 477.6,-713 572.96,-713"/>
<polygon fill="black" stroke="black" points="572.81,-716.5 582.81,-713 572.81,-709.5 572.81,-716.5"/>
</g>
<!-- Citation&#45;&gt;CitationTopic -->
<g id="edge1" class="edge">
<title>Citation&#45;&gt;CitationTopic</title>
<path fill="none" stroke="black" stroke-dasharray="1,5" d="M124.92,-721.71C160.23,-730.45 215.12,-744.04 256.31,-754.24"/>
<polygon fill="black" stroke="black" points="255.26,-757.58 265.8,-756.59 256.94,-750.79 255.26,-757.58"/>
</g>
<!-- Confidence&#45;&gt;ConfidenceLevel -->
<g id="edge3" class="edge">
<title>Confidence&#45;&gt;ConfidenceLevel</title>
<path fill="none" stroke="black" stroke-dasharray="1,5" d="M142.37,-349.76C173.59,-349.62 213.42,-349.44 246.63,-349.29"/>
<polygon fill="black" stroke="black" points="246.58,-352.79 256.56,-349.25 246.55,-345.79 246.58,-352.79"/>
</g>
<!-- Depiction&#45;&gt;Image -->
<g id="edge10" class="edge">
<title>Depiction&#45;&gt;Image</title>
<path fill="none" stroke="black" stroke-dasharray="1,5" d="M136.29,-295C177.34,-295 236.39,-295 274.44,-295"/>
<polygon fill="black" stroke="black" points="274.03,-298.5 284.03,-295 274.03,-291.5 274.03,-298.5"/>
</g>
<!-- ProtocolRelationship&#45;&gt;Protocol -->
<g id="edge17" class="edge">
<title>ProtocolRelationship&#45;&gt;Protocol</title>
<path fill="none" stroke="black" stroke-dasharray="1,5" d="M177.84,-241C209.78,-241 244.37,-241 270.41,-241"/>
<polygon fill="black" stroke="black" points="270.22,-244.5 280.22,-241 270.22,-237.5 270.22,-244.5"/>
</g>
<!-- Source&#45;&gt;SubsequentCitation -->
<!-- Source&#45;&gt;OriginCitation -->
<!-- TaxonDetermination&#45;&gt;Citation -->
<g id="edge2" class="edge">
<title>TaxonDetermination&#45;&gt;Citation</title>
<path fill="none" stroke="black" d="M295.67,-429.35C255.57,-484.57 151.94,-627.29 108.9,-686.58"/>
<polygon fill="black" stroke="black" points="106.23,-684.3 103.18,-694.45 111.89,-688.41 106.23,-684.3"/>
</g>
<!-- TaxonDetermination&#45;&gt;Confidence -->
<g id="edge4" class="edge">
<title>TaxonDetermination&#45;&gt;Confidence</title>
<path fill="none" stroke="black" d="M245.27,-389.91C212.54,-381.51 173.65,-371.53 142.94,-363.66"/>
<polygon fill="black" stroke="black" points="144.05,-360.33 133.49,-361.23 142.31,-367.11 144.05,-360.33"/>
</g>
<!-- TaxonDetermination&#45;&gt;DataAttribute -->
<g id="edge5" class="edge">
<title>TaxonDetermination&#45;&gt;DataAttribute</title>
<path fill="none" stroke="black" d="M241.69,-423.43C211.77,-430.43 177.26,-438.51 148.69,-445.2"/>
<polygon fill="black" stroke="black" points="148.06,-441.75 139.12,-447.44 149.66,-448.56 148.06,-441.75"/>
</g>
<!-- TaxonDetermination&#45;&gt;Depiction -->
<g id="edge6" class="edge">
<title>TaxonDetermination&#45;&gt;Depiction</title>
<path fill="none" stroke="black" d="M240.25,-390.77C230.72,-386.84 221.48,-381.99 213.43,-376 190.58,-359 200.24,-340.04 177.43,-323 167.33,-315.46 155.13,-309.9 143.08,-305.83"/>
<polygon fill="black" stroke="black" points="144.15,-302.5 133.57,-302.93 142.11,-309.19 144.15,-302.5"/>
</g>
<!-- TaxonDetermination&#45;&gt;Note -->
<g id="edge14" class="edge">
<title>TaxonDetermination&#45;&gt;Note</title>
<path fill="none" stroke="black" d="M213.09,-406.11C183.39,-405.84 152.5,-405.57 129.05,-405.35"/>
<polygon fill="black" stroke="black" points="129.4,-401.86 119.37,-405.27 129.33,-408.86 129.4,-401.86"/>
</g>
<!-- TaxonDetermination&#45;&gt;ProtocolRelationship -->
<g id="edge16" class="edge">
<title>TaxonDetermination&#45;&gt;ProtocolRelationship</title>
<path fill="none" stroke="black" d="M236.13,-391.53C227.77,-387.49 219.94,-382.41 213.43,-376 177.35,-340.52 213.62,-303.36 177.43,-268 173.74,-264.39 169.58,-261.27 165.13,-258.56"/>
<polygon fill="black" stroke="black" points="166.81,-255.49 156.33,-253.97 163.58,-261.7 166.81,-255.49"/>
</g>
<!-- TaxonDetermination&#45;&gt;Source -->
<g id="edge31" class="edge">
<title>TaxonDetermination&#45;&gt;Source</title>
<path fill="none" stroke="black" stroke-dasharray="1,5" d="M320.12,-439.28C333.07,-497.21 368.6,-618.5 448.36,-680 484.48,-707.85 538.14,-713.86 573.75,-714.4"/>
<polygon fill="none" stroke="black" points="314.15,-430.56 321.97,-428.87 323.66,-436.7 315.83,-438.38 314.15,-430.56"/>
<polyline fill="none" stroke="black" points="319.74,-437.54 320.16,-439.49"/>
<polygon fill="none" stroke="black" points="583.68,-710.41 583.67,-718.41 575.67,-718.4 575.68,-710.4 583.68,-710.41"/>
<polyline fill="none" stroke="black" points="575.68,-714.4 573.68,-714.4"/>
</g>
<!-- TaxonDetermination&#45;&gt;Otu -->
<g id="edge26" class="edge">
<title>TaxonDetermination&#45;&gt;Otu</title>
<path fill="none" stroke="black" stroke-dasharray="5,2" d="M423.84,-417.37C481.96,-422.86 548.53,-429.14 584.42,-432.52"/>
<polygon fill="black" stroke="black" points="424.51,-413.92 414.23,-416.47 423.85,-420.89 424.51,-413.92"/>
</g>
<!-- TaxonDetermination&#45;&gt;DeterminerRole -->
<g id="edge7" class="edge">
<title>TaxonDetermination&#45;&gt;DeterminerRole</title>
<path fill="none" stroke="black" d="M391.63,-391.98C399.45,-387.86 406.61,-382.63 412.36,-376 476.73,-301.83 380.01,-228.51 448.36,-158 473.87,-131.69 514.26,-123.66 548.37,-122.22"/>
<polygon fill="black" stroke="black" points="548.24,-125.72 558.16,-122 548.08,-118.72 548.24,-125.72"/>
</g>
<!-- TaxonDetermination&#45;&gt;ImportAttribute -->
<g id="edge11" class="edge">
<title>TaxonDetermination&#45;&gt;ImportAttribute</title>
<path fill="none" stroke="black" d="M412.72,-398.01C457.68,-393.92 509.51,-389.2 548.85,-385.62"/>
<polygon fill="black" stroke="black" points="548.97,-389.13 558.61,-384.74 548.34,-382.16 548.97,-389.13"/>
</g>
<!-- TaxonDetermination&#45;&gt;InternalAttribute -->
<g id="edge12" class="edge">
<title>TaxonDetermination&#45;&gt;InternalAttribute</title>
<path fill="none" stroke="black" d="M378.39,-389.39C389.91,-385.49 401.65,-381 412.36,-376 429.57,-367.97 430.64,-359.81 448.36,-353 479.58,-341.01 516.18,-334.34 546.71,-330.63"/>
<polygon fill="black" stroke="black" points="547.05,-334.12 556.59,-329.52 546.26,-327.16 547.05,-334.12"/>
</g>
<!-- TaxonDetermination&#45;&gt;Label -->
<g id="edge13" class="edge">
<title>TaxonDetermination&#45;&gt;Label</title>
<path fill="none" stroke="black" d="M387.97,-391.24C396.81,-387.25 405.22,-382.26 412.36,-376 440.79,-351.11 418.27,-321.84 448.36,-299 484.24,-271.77 537.5,-267.84 573.11,-268.84"/>
<polygon fill="black" stroke="black" points="572.81,-272.33 582.95,-269.27 573.12,-265.34 572.81,-272.33"/>
</g>
<!-- TaxonDetermination&#45;&gt;PinboardItem -->
<g id="edge15" class="edge">
<title>TaxonDetermination&#45;&gt;PinboardItem</title>
<path fill="none" stroke="black" d="M390.48,-391.62C398.6,-387.57 406.15,-382.45 412.36,-376 454.27,-332.53 403.52,-285.43 448.36,-245 476.86,-219.31 520.13,-213.14 554.84,-213.09"/>
<polygon fill="black" stroke="black" points="554.67,-216.58 564.73,-213.26 554.79,-209.59 554.67,-216.58"/>
</g>
<!-- TaxonDetermination&#45;&gt;Role -->
<g id="edge18" class="edge">
<title>TaxonDetermination&#45;&gt;Role</title>
<path fill="none" stroke="black" d="M391.86,-392.17C399.63,-388.02 406.72,-382.73 412.36,-376 492.11,-280.85 362.16,-188.33 448.36,-99 480.14,-66.08 535.68,-63.78 572.82,-66.68"/>
<polygon fill="black" stroke="black" points="572.38,-70.15 582.67,-67.62 573.05,-63.18 572.38,-70.15"/>
</g>
<!-- TaxonDetermination&#45;&gt;SubsequentCitation -->
<g id="edge20" class="edge">
<title>TaxonDetermination&#45;&gt;SubsequentCitation</title>
<path fill="none" stroke="black" d="M319.95,-429.4C333.89,-476.35 373,-584.9 448.36,-636 569.91,-718.42 630,-662.61 774.98,-686 788.14,-688.12 802.16,-690.45 815.66,-692.72"/>
<polygon fill="black" stroke="black" points="814.92,-696.15 825.36,-694.36 816.08,-689.25 814.92,-696.15"/>
</g>
<!-- TaxonDetermination&#45;&gt;VerifierRole -->
<g id="edge23" class="edge">
<title>TaxonDetermination&#45;&gt;VerifierRole</title>
<path fill="none" stroke="black" d="M392.47,-392.03C400.04,-387.9 406.91,-382.65 412.36,-376 506.22,-261.6 346.73,-152.55 448.36,-45 476.07,-15.68 522.6,-10.49 558.75,-11.73"/>
<polygon fill="black" stroke="black" points="558.41,-15.22 568.58,-12.26 558.78,-8.23 558.41,-15.22"/>
</g>
<!-- TaxonDetermination&#45;&gt;Creator -->
<g id="edge25" class="edge">
<title>TaxonDetermination&#45;&gt;Creator</title>
<path fill="none" stroke="black" stroke-dasharray="5,2" d="M329.26,-439.49C350,-479.03 391.05,-543.88 448.36,-571 579.58,-633.09 636.87,-615.71 774.98,-571 812.88,-558.73 848.72,-528.32 869.24,-508.45"/>
<polygon fill="black" stroke="black" points="332.42,-437.97 324.76,-430.65 326.18,-441.15 332.42,-437.97"/>
</g>
<!-- TaxonDetermination&#45;&gt;Project -->
<g id="edge27" class="edge">
<title>TaxonDetermination&#45;&gt;Project</title>
<path fill="none" stroke="black" stroke-dasharray="5,2" d="M369.07,-432.74C393.02,-443.07 421.65,-454.33 448.36,-462 495.23,-475.45 551.66,-483.41 584.13,-487.22"/>
<polygon fill="black" stroke="black" points="370.72,-429.64 360.15,-428.83 367.91,-436.05 370.72,-429.64"/>
</g>
<!-- TaxonDetermination&#45;&gt;Updater -->
<g id="edge29" class="edge">
<title>TaxonDetermination&#45;&gt;Updater</title>
<path fill="none" stroke="black" stroke-dasharray="5,2" d="M400.99,-386.04C405.14,-383.11 408.98,-379.79 412.36,-376 468.16,-313.52 383.72,-244.27 448.36,-191 504.37,-144.84 708.32,-162.3 774.98,-191 914.13,-250.91 1016.81,-416.64 1047.99,-471.85"/>
<polygon fill="black" stroke="black" points="399.48,-382.86 392.74,-391.04 403.11,-388.85 399.48,-382.86"/>
</g>
<!-- TaxonDetermination&#45;&gt;OriginCitation -->
<g id="edge30" class="edge">
<title>TaxonDetermination&#45;&gt;OriginCitation</title>
<path fill="none" stroke="black" d="M325.31,-439.2C343.45,-485.05 383.58,-567.7 448.36,-605 511.85,-641.55 726.64,-640.72 830.21,-638.02"/>
<polygon fill="none" stroke="black" points="318.01,-431.37 325.48,-428.5 328.35,-435.97 320.88,-438.84 318.01,-431.37"/>
<polyline fill="none" stroke="black" points="324.61,-437.4 325.33,-439.27"/>
<polygon fill="none" stroke="black" points="839.87,-633.75 840.09,-641.74 832.09,-641.97 831.87,-633.97 839.87,-633.75"/>
<polyline fill="none" stroke="black" points="831.98,-637.97 829.98,-638.02"/>
</g>
<!-- TaxonDetermination&#45;&gt;Objects with Taxon determinations -->
<g id="edge28" class="edge">
<title>TaxonDetermination&#45;&gt;Objects with Taxon determinations</title>
<path fill="none" stroke="black" stroke-dasharray="5,2" d="M341.85,-437.43C367.11,-462.93 406.65,-498.11 448.36,-517 463.59,-523.89 480.33,-529.05 497.1,-532.9"/>
<polygon fill="black" stroke="black" points="344.38,-435.01 334.9,-430.28 339.35,-439.89 344.38,-435.01"/>
</g>
<!-- CitationTopic&#45;&gt;Topic -->
<g id="edge22" class="edge">
<title>CitationTopic&#45;&gt;Topic</title>
<path fill="none" stroke="black" stroke-dasharray="1,5" d="M358.65,-768C417.18,-768 518.69,-768 573.31,-768"/>
<polygon fill="black" stroke="black" points="573.03,-771.5 583.03,-768 573.03,-764.5 573.03,-771.5"/>
</g>
<!-- DeterminerRole&#45;&gt;Determiner -->
<g id="edge8" class="edge">
<title>DeterminerRole&#45;&gt;Determiner</title>
<path fill="none" stroke="black" stroke-dasharray="1,5" d="M663.95,-126C713.62,-126 788.44,-126 837.49,-126"/>
<polygon fill="black" stroke="black" points="837.26,-129.5 847.26,-126 837.26,-122.5 837.26,-129.5"/>
</g>
<!-- DeterminerRole&#45;&gt;DeterminersOrganization -->
<g id="edge9" class="edge">
<title>DeterminerRole&#45;&gt;DeterminersOrganization</title>
<path fill="none" stroke="black" stroke-dasharray="1,5" d="M664.02,-118.42C696.03,-113.46 738.03,-106.52 774.98,-99 784,-97.17 793.39,-95.12 802.73,-93"/>
<polygon fill="black" stroke="black" points="803.22,-96.48 812.18,-90.82 801.64,-89.65 803.22,-96.48"/>
</g>
<!-- Role&#45;&gt;Verifier -->
<!-- SubsequentCitation&#45;&gt;SubsequentSource -->
<g id="edge21" class="edge">
<title>SubsequentCitation&#45;&gt;SubsequentSource</title>
<path fill="none" stroke="black" stroke-dasharray="1,5" d="M949,-705C961.98,-705 975.8,-705 989.08,-705"/>
<polygon fill="black" stroke="black" points="989.07,-708.5 999.07,-705 989.07,-701.5 989.07,-708.5"/>
</g>
<!-- VerifierRole&#45;&gt;Verifier -->
<g id="edge24" class="edge">
<title>VerifierRole&#45;&gt;Verifier</title>
<path fill="none" stroke="black" stroke-dasharray="1,5" d="M653.44,-18C705.78,-18 795.98,-18 847.63,-18"/>
<polygon fill="black" stroke="black" points="847.44,-21.5 857.44,-18 847.44,-14.5 847.44,-21.5"/>
</g>
<!-- Creator&#45;&gt;Updater -->
<!-- Project&#45;&gt;Creator -->
<!-- Citation -->
<g id="node1" class="node">
<title>Citation</title>
<g id="a_node1"><a xlink:href="/develop/Data/models.html#citation" xlink:title="Citation" target="_top">
<ellipse fill="#abcdef" stroke="#dddeee" cx="88.71" cy="-713" rx="40.6" ry="18"/>
<text text-anchor="middle" x="88.71" y="-707.95" font-family="Times,serif" font-size="14.00">Citation</text>
</a>
</g>
</g>
<!-- Confidence -->
<g id="node2" class="node">
<title>Confidence</title>
<g id="a_node2"><a xlink:href="/develop/Data/models.html#confidence" xlink:title="Confidence" target="_top">
<ellipse fill="#abcdef" stroke="#dddeee" cx="88.71" cy="-350" rx="53.4" ry="18"/>
<text text-anchor="middle" x="88.71" y="-344.95" font-family="Times,serif" font-size="14.00">Confidence</text>
</a>
</g>
</g>
<!-- DataAttribute -->
<g id="node3" class="node">
<title>DataAttribute</title>
<g id="a_node3"><a xlink:href="/develop/Data/models.html#data-attribute" xlink:title="DataAttribute" target="_top">
<ellipse fill="#abcdef" stroke="#dddeee" cx="88.71" cy="-459" rx="61.59" ry="18"/>
<text text-anchor="middle" x="88.71" y="-453.95" font-family="Times,serif" font-size="14.00">DataAttribute</text>
</a>
</g>
</g>
<!-- Depiction -->
<g id="node4" class="node">
<title>Depiction</title>
<g id="a_node4"><a xlink:href="/develop/Data/models.html#depiction" xlink:title="Depiction" target="_top">
<ellipse fill="#abcdef" stroke="#dddeee" cx="88.71" cy="-295" rx="47.26" ry="18"/>
<text text-anchor="middle" x="88.71" y="-289.95" font-family="Times,serif" font-size="14.00">Depiction</text>
</a>
</g>
</g>
<!-- Note -->
<g id="node5" class="node">
<title>Note</title>
<g id="a_node5"><a xlink:href="/develop/Data/models.html#note" xlink:title="Note" target="_top">
<ellipse fill="#abcdef" stroke="#dddeee" cx="88.71" cy="-405" rx="28.83" ry="18"/>
<text text-anchor="middle" x="88.71" y="-399.95" font-family="Times,serif" font-size="14.00">Note</text>
</a>
</g>
</g>
<!-- ProtocolRelationship -->
<g id="node6" class="node">
<title>ProtocolRelationship</title>
<g id="a_node6"><a xlink:href="/develop/Data/models.html#protocol-relationship" xlink:title="ProtocolRelationship" target="_top">
<ellipse fill="#abcdef" stroke="#dddeee" cx="88.71" cy="-241" rx="88.71" ry="18"/>
<text text-anchor="middle" x="88.71" y="-235.95" font-family="Times,serif" font-size="14.00">ProtocolRelationship</text>
</a>
</g>
</g>
<!-- Source -->
<g id="node7" class="node">
<title>Source</title>
<g id="a_node7"><a xlink:href="/develop/Data/models.html#source" xlink:title="Source" target="_top">
<path fill="#fedcba" stroke="#dddeee" d="M596.67,-695C596.67,-695 626.67,-695 626.67,-695 632.67,-695 638.67,-701 638.67,-707 638.67,-707 638.67,-719 638.67,-719 638.67,-725 632.67,-731 626.67,-731 626.67,-731 596.67,-731 596.67,-731 590.67,-731 584.67,-725 584.67,-719 584.67,-719 584.67,-707 584.67,-707 584.67,-701 590.67,-695 596.67,-695"/>
<text text-anchor="middle" x="611.67" y="-708.2" font-family="Times,serif" font-size="14.00">Source</text>
</a>
</g>
</g>
<!-- Otu -->
<g id="node8" class="node">
<title>Otu</title>
<g id="a_node8"><a xlink:href="/develop/Data/models.html#otu" xlink:title="Otu" target="_top">
<path fill="#fedcba" stroke="#dddeee" d="M596.67,-417C596.67,-417 626.67,-417 626.67,-417 632.67,-417 638.67,-423 638.67,-429 638.67,-429 638.67,-441 638.67,-441 638.67,-447 632.67,-453 626.67,-453 626.67,-453 596.67,-453 596.67,-453 590.67,-453 584.67,-447 584.67,-441 584.67,-441 584.67,-429 584.67,-429 584.67,-423 590.67,-417 596.67,-417"/>
<text text-anchor="middle" x="611.67" y="-430.2" font-family="Times,serif" font-size="14.00">Otu</text>
</a>
</g>
</g>
<!-- TaxonDetermination -->
<g id="node9" class="node">
<title>TaxonDetermination</title>
<g id="a_node9"><a xlink:href="/develop/Data/models.html#taxon-determination" xlink:title="TaxonDetermination" target="_top">
<polygon fill="#cdefab" stroke="#dedede" points="408.36,-399.54 408.36,-414.46 352.44,-425 273.35,-425 217.43,-414.46 217.43,-399.54 273.35,-389 352.44,-389 408.36,-399.54"/>
<polygon fill="none" stroke="#dedede" points="412.36,-396.23 412.36,-417.77 352.81,-429 272.98,-429 213.43,-417.77 213.43,-396.23 272.98,-385 352.81,-385 412.36,-396.23"/>
<text text-anchor="middle" x="312.9" y="-401.95" font-family="Times,serif" font-size="14.00">TaxonDetermination</text>
</a>
</g>
</g>
<!-- CitationTopic -->
<g id="node10" class="node">
<title>CitationTopic</title>
<g id="a_node10"><a xlink:href="/develop/Data/models.html#citation-topic" xlink:title="CitationTopic" target="_top">
<polygon fill="#eeefff" stroke="#dddeee" points="358.4,-786 267.4,-786 267.4,-750 358.4,-750 358.4,-786"/>
<text text-anchor="middle" x="312.9" y="-762.95" font-family="Times,serif" font-size="14.00">CitationTopic</text>
</a>
</g>
</g>
<!-- ConfidenceLevel -->
<g id="node11" class="node">
<title>ConfidenceLevel</title>
<g id="a_node11"><a xlink:href="/develop/Data/models.html#confidence-level" xlink:title="ConfidenceLevel" target="_top">
<polygon fill="#eeefff" stroke="#dddeee" points="367.4,-367 258.4,-367 258.4,-331 367.4,-331 367.4,-367"/>
<text text-anchor="middle" x="312.9" y="-343.95" font-family="Times,serif" font-size="14.00">ConfidenceLevel</text>
</a>
</g>
</g>
<!-- DeterminerRole -->
<g id="node12" class="node">
<title>DeterminerRole</title>
<g id="a_node12"><a xlink:href="/develop/Data/models.html#determiner-role" xlink:title="DeterminerRole" target="_top">
<polygon fill="#eeefff" stroke="#dddeee" points="663.55,-144 559.8,-144 559.8,-108 663.55,-108 663.55,-144"/>
<text text-anchor="middle" x="611.67" y="-120.95" font-family="Times,serif" font-size="14.00">DeterminerRole</text>
</a>
</g>
</g>
<!-- Determiner -->
<g id="node13" class="node">
<title>Determiner</title>
<g id="a_node13"><a xlink:href="/develop/Data/models.html#determiner" xlink:title="Determiner" target="_top">
<polygon fill="#eeefff" stroke="#dddeee" points="927.11,-144 848.86,-144 848.86,-108 927.11,-108 927.11,-144"/>
<text text-anchor="middle" x="887.98" y="-120.95" font-family="Times,serif" font-size="14.00">Determiner</text>
</a>
</g>
</g>
<!-- DeterminersOrganization -->
<g id="node14" class="node">
<title>DeterminersOrganization</title>
<g id="a_node14"><a xlink:href="/develop/Data/models.html#determiners-organization" xlink:title="DeterminersOrganization" target="_top">
<polygon fill="#eeefff" stroke="#dddeee" points="964.98,-90 810.98,-90 810.98,-54 964.98,-54 964.98,-90"/>
<text text-anchor="middle" x="887.98" y="-66.95" font-family="Times,serif" font-size="14.00">DeterminersOrganization</text>
</a>
</g>
</g>
<!-- Image -->
<g id="node15" class="node">
<title>Image</title>
<g id="a_node15"><a xlink:href="/develop/Data/models.html#image" xlink:title="Image" target="_top">
<polygon fill="#eeefff" stroke="#dddeee" points="339.9,-313 285.9,-313 285.9,-277 339.9,-277 339.9,-313"/>
<text text-anchor="middle" x="312.9" y="-289.95" font-family="Times,serif" font-size="14.00">Image</text>
</a>
</g>
</g>
<!-- ImportAttribute -->
<g id="node16" class="node">
<title>ImportAttribute</title>
<g id="a_node16"><a xlink:href="/develop/Data/models.html#import-attribute" xlink:title="ImportAttribute" target="_top">
<polygon fill="#eeefff" stroke="#dddeee" points="662.8,-398 560.55,-398 560.55,-362 662.8,-362 662.8,-398"/>
<text text-anchor="middle" x="611.67" y="-374.95" font-family="Times,serif" font-size="14.00">ImportAttribute</text>
</a>
</g>
</g>
<!-- InternalAttribute -->
<g id="node17" class="node">
<title>InternalAttribute</title>
<g id="a_node17"><a xlink:href="/develop/Data/models.html#internal-attribute" xlink:title="InternalAttribute" target="_top">
<polygon fill="#eeefff" stroke="#dddeee" points="665.05,-344 558.3,-344 558.3,-308 665.05,-308 665.05,-344"/>
<text text-anchor="middle" x="611.67" y="-320.95" font-family="Times,serif" font-size="14.00">InternalAttribute</text>
</a>
</g>
</g>
<!-- Label -->
<g id="node18" class="node">
<title>Label</title>
<g id="a_node18"><a xlink:href="/develop/Data/models.html#label" xlink:title="Label" target="_top">
<polygon fill="#eeefff" stroke="#dddeee" points="638.67,-290 584.67,-290 584.67,-254 638.67,-254 638.67,-290"/>
<text text-anchor="middle" x="611.67" y="-266.95" font-family="Times,serif" font-size="14.00">Label</text>
</a>
</g>
</g>
<!-- PinboardItem -->
<g id="node19" class="node">
<title>PinboardItem</title>
<g id="a_node19"><a xlink:href="/develop/Data/models.html#pinboard-item" xlink:title="PinboardItem" target="_top">
<polygon fill="#eeefff" stroke="#dddeee" points="656.8,-236 566.55,-236 566.55,-200 656.8,-200 656.8,-236"/>
<text text-anchor="middle" x="611.67" y="-212.95" font-family="Times,serif" font-size="14.00">PinboardItem</text>
</a>
</g>
</g>
<!-- Protocol -->
<g id="node20" class="node">
<title>Protocol</title>
<g id="a_node20"><a xlink:href="/develop/Data/models.html#protocol" xlink:title="Protocol" target="_top">
<polygon fill="#eeefff" stroke="#dddeee" points="343.77,-259 282.02,-259 282.02,-223 343.77,-223 343.77,-259"/>
<text text-anchor="middle" x="312.9" y="-235.95" font-family="Times,serif" font-size="14.00">Protocol</text>
</a>
</g>
</g>
<!-- Role -->
<g id="node21" class="node">
<title>Role</title>
<g id="a_node21"><a xlink:href="/develop/Data/models.html#role" xlink:title="Role" target="_top">
<polygon fill="#eeefff" stroke="#dddeee" points="638.67,-90 584.67,-90 584.67,-54 638.67,-54 638.67,-90"/>
<text text-anchor="middle" x="611.67" y="-66.95" font-family="Times,serif" font-size="14.00">Role</text>
</a>
</g>
</g>
<!-- SubsequentCitation -->
<g id="node22" class="node">
<title>SubsequentCitation</title>
<g id="a_node22"><a xlink:href="/develop/Data/models.html#subsequent-citation" xlink:title="SubsequentCitation" target="_top">
<polygon fill="#eeefff" stroke="#dddeee" points="948.86,-723 827.11,-723 827.11,-687 948.86,-687 948.86,-723"/>
<text text-anchor="middle" x="887.98" y="-699.95" font-family="Times,serif" font-size="14.00">SubsequentCitation</text>
</a>
</g>
</g>
<!-- SubsequentSource -->
<g id="node23" class="node">
<title>SubsequentSource</title>
<g id="a_node23"><a xlink:href="/develop/Data/models.html#subsequent-source" xlink:title="SubsequentSource" target="_top">
<polygon fill="#eeefff" stroke="#dddeee" points="1116.73,-723 1000.98,-723 1000.98,-687 1116.73,-687 1116.73,-723"/>
<text text-anchor="middle" x="1058.86" y="-699.95" font-family="Times,serif" font-size="14.00">SubsequentSource</text>
</a>
</g>
</g>
<!-- Topic -->
<g id="node24" class="node">
<title>Topic</title>
<g id="a_node24"><a xlink:href="/develop/Data/models.html#topic" xlink:title="Topic" target="_top">
<polygon fill="#eeefff" stroke="#dddeee" points="638.67,-786 584.67,-786 584.67,-750 638.67,-750 638.67,-786"/>
<text text-anchor="middle" x="611.67" y="-762.95" font-family="Times,serif" font-size="14.00">Topic</text>
</a>
</g>
</g>
<!-- VerifierRole -->
<g id="node25" class="node">
<title>VerifierRole</title>
<g id="a_node25"><a xlink:href="/develop/Data/models.html#verifier-role" xlink:title="VerifierRole" target="_top">
<polygon fill="#eeefff" stroke="#dddeee" points="653.05,-36 570.3,-36 570.3,0 653.05,0 653.05,-36"/>
<text text-anchor="middle" x="611.67" y="-12.95" font-family="Times,serif" font-size="14.00">VerifierRole</text>
</a>
</g>
</g>
<!-- Verifier -->
<g id="node26" class="node">
<title>Verifier</title>
<g id="a_node26"><a xlink:href="/develop/Data/models.html#verifier" xlink:title="Verifier" target="_top">
<polygon fill="#eeefff" stroke="#dddeee" points="916.61,-36 859.36,-36 859.36,0 916.61,0 916.61,-36"/>
<text text-anchor="middle" x="887.98" y="-12.95" font-family="Times,serif" font-size="14.00">Verifier</text>
</a>
</g>
</g>
<!-- Creator -->
<g id="node27" class="node">
<title>Creator</title>
<g id="a_node27"><a xlink:href="/develop/Data/models.html#creator" xlink:title="Creator" target="_top">
<polygon fill="#eeefff" stroke="#dddeee" points="916.23,-508 859.73,-508 859.73,-472 916.23,-472 916.23,-508"/>
<text text-anchor="middle" x="887.98" y="-484.95" font-family="Times,serif" font-size="14.00">Creator</text>
</a>
</g>
</g>
<!-- Project -->
<g id="node28" class="node">
<title>Project</title>
<g id="a_node28"><a xlink:href="/develop/Data/models.html#project" xlink:title="Project" target="_top">
<polygon fill="#eeefff" stroke="#dddeee" points="638.8,-508 584.55,-508 584.55,-472 638.8,-472 638.8,-508"/>
<text text-anchor="middle" x="611.67" y="-484.95" font-family="Times,serif" font-size="14.00">Project</text>
</a>
</g>
</g>
<!-- Updater -->
<g id="node29" class="node">
<title>Updater</title>
<g id="a_node29"><a xlink:href="/develop/Data/models.html#updater" xlink:title="Updater" target="_top">
<polygon fill="#eeefff" stroke="#dddeee" points="1088.61,-508 1029.11,-508 1029.11,-472 1088.61,-472 1088.61,-508"/>
<text text-anchor="middle" x="1058.86" y="-484.95" font-family="Times,serif" font-size="14.00">Updater</text>
</a>
</g>
</g>
<!-- OriginCitation -->
<g id="node30" class="node">
<title>OriginCitation</title>
<g id="a_node30"><a xlink:href="/develop/Data/models.html#origin-citation" xlink:title="OriginCitation" target="_top">
<polygon fill="#eeefff" stroke="#dddeee" points="935.36,-654 840.61,-654 840.61,-618 935.36,-618 935.36,-654"/>
<text text-anchor="middle" x="887.98" y="-630.95" font-family="Times,serif" font-size="14.00">OriginCitation</text>
</a>
</g>
</g>
<!-- Objects with Taxon determinations -->
<g id="node31" class="node">
<title>Objects with Taxon determinations</title>
<g id="a_node31"><a xlink:href="/develop/Data/models.html#objects with taxon determination" xlink:title="Objects with Taxon determinations" target="_top">
<polygon fill="#cdabef" stroke="#dedede" points="774.98,-544 693.33,-562 530.02,-562 448.36,-544 530.02,-526 693.33,-526 774.98,-544"/>
<text text-anchor="middle" x="611.67" y="-538.95" font-family="Times,serif" font-size="14.00">Objects with Taxon determinations</text>
</a>
</g>
</g>
</g>
</svg>
