<?xml version="1.0" encoding="UTF-8" standalone="no"?>
<!DOCTYPE svg PUBLIC "-//W3C//DTD SVG 1.1//EN"
 "http://www.w3.org/Graphics/SVG/1.1/DTD/svg11.dtd">
<!-- Generated by graphviz version 12.2.1 (20241206.2353)
 -->
<!-- Title: TypeMaterial Pages: 1 -->
<svg width="762pt" height="687pt"
 viewBox="0.00 0.00 762.25 686.50" xmlns="http://www.w3.org/2000/svg" xmlns:xlink="http://www.w3.org/1999/xlink">
<g id="graph0" class="graph" transform="scale(1 1) rotate(0) translate(4 682.5)">
<title>TypeMaterial</title>
<polygon fill="white" stroke="none" points="-4,4 -4,-682.5 758.25,-682.5 758.25,4 -4,4"/>
<!-- Citation&#45;&gt;Source -->
<g id="edge13" class="edge">
<title>Citation&#45;&gt;Source</title>
<path fill="none" stroke="black" stroke-dasharray="1,5" d="M102.69,-605.5C166.46,-605.5 290.12,-605.5 352.18,-605.5"/>
<polygon fill="black" stroke="black" points="351.87,-609 361.87,-605.5 351.87,-602 351.87,-609"/>
</g>
<!-- Citation&#45;&gt;CitationTopic -->
<g id="edge1" class="edge">
<title>Citation&#45;&gt;CitationTopic</title>
<path fill="none" stroke="black" stroke-dasharray="1,5" d="M95.04,-616.24C117.2,-623.57 147.12,-633.47 173.06,-642.05"/>
<polygon fill="black" stroke="black" points="171.86,-645.34 182.46,-645.16 174.06,-638.69 171.86,-645.34"/>
</g>
<!-- Confidence&#45;&gt;ConfidenceLevel -->
<g id="edge3" class="edge">
<title>Confidence&#45;&gt;ConfidenceLevel</title>
<path fill="none" stroke="black" stroke-dasharray="1,5" d="M115.19,-314.18C130.5,-314.09 147.41,-313.99 163.41,-313.89"/>
<polygon fill="black" stroke="black" points="163.37,-317.39 173.35,-313.83 163.33,-310.39 163.37,-317.39"/>
</g>
<!-- Tag&#45;&gt;Keyword -->
<g id="edge8" class="edge">
<title>Tag&#45;&gt;Keyword</title>
<path fill="none" stroke="black" stroke-dasharray="1,5" d="M88.93,-260.34C114.75,-260.19 154.56,-259.95 185.13,-259.76"/>
<polygon fill="black" stroke="black" points="184.85,-263.26 194.83,-259.7 184.81,-256.26 184.85,-263.26"/>
</g>
<!-- Source&#45;&gt;SubsequentCitation -->
<!-- Source&#45;&gt;OriginCitation -->
<!-- TypeMaterial&#45;&gt;Citation -->
<g id="edge2" class="edge">
<title>TypeMaterial&#45;&gt;Citation</title>
<path fill="none" stroke="black" d="M213.02,-393.76C182.21,-437.12 114.28,-532.74 81.3,-579.17"/>
<polygon fill="black" stroke="black" points="78.63,-576.88 75.69,-587.06 84.33,-580.93 78.63,-576.88"/>
</g>
<!-- TypeMaterial&#45;&gt;Confidence -->
<g id="edge4" class="edge">
<title>TypeMaterial&#45;&gt;Confidence</title>
<path fill="none" stroke="black" d="M180.28,-354.85C158.34,-347.33 132.49,-338.47 110.61,-330.96"/>
<polygon fill="black" stroke="black" points="111.92,-327.72 101.33,-327.78 109.65,-334.34 111.92,-327.72"/>
</g>
<!-- TypeMaterial&#45;&gt;DataAttribute -->
<g id="edge5" class="edge">
<title>TypeMaterial&#45;&gt;DataAttribute</title>
<path fill="none" stroke="black" d="M158.88,-370.66C150.99,-370.56 142.94,-370.47 135.02,-370.37"/>
<polygon fill="black" stroke="black" points="135.1,-366.87 125.06,-370.25 135.02,-373.87 135.1,-366.87"/>
</g>
<!-- TypeMaterial&#45;&gt;Tag -->
<g id="edge16" class="edge">
<title>TypeMaterial&#45;&gt;Tag</title>
<path fill="none" stroke="black" d="M181.39,-354.7C173.52,-350.73 165.78,-346.02 159.18,-340.5 137.33,-322.23 145.02,-305.77 123.18,-287.5 115.56,-281.13 106.2,-275.98 97.13,-271.96"/>
<polygon fill="black" stroke="black" points="98.73,-268.84 88.15,-268.32 96.1,-275.32 98.73,-268.84"/>
</g>
<!-- TypeMaterial&#45;&gt;Note -->
<g id="edge9" class="edge">
<title>TypeMaterial&#45;&gt;Note</title>
<path fill="none" stroke="black" d="M177.84,-387.45C152.2,-395.47 121.73,-405 98.57,-412.25"/>
<polygon fill="black" stroke="black" points="97.78,-408.82 89.28,-415.15 99.87,-415.51 97.78,-408.82"/>
</g>
<!-- TypeMaterial&#45;&gt;Source -->
<g id="edge26" class="edge">
<title>TypeMaterial&#45;&gt;Source</title>
<path fill="none" stroke="black" stroke-dasharray="1,5" d="M241.62,-403.58C257.19,-446.16 289.36,-521.84 336.5,-572.5 341.69,-578.07 348.02,-583.07 354.48,-587.39"/>
<polygon fill="none" stroke="black" points="234.51,-395.57 242.04,-392.88 244.74,-400.41 237.2,-403.11 234.51,-395.57"/>
<polyline fill="none" stroke="black" points="240.97,-401.76 241.64,-403.64"/>
<polygon fill="none" stroke="black" points="364.95,-589.18 360.74,-595.98 353.94,-591.76 358.16,-584.96 364.95,-589.18"/>
<polyline fill="none" stroke="black" points="356.05,-588.36 354.35,-587.31"/>
</g>
<!-- TypeMaterial&#45;&gt;CollectionObject -->
<g id="edge20" class="edge">
<title>TypeMaterial&#45;&gt;CollectionObject</title>
<path fill="none" stroke="black" stroke-dasharray="5,2" d="M284.11,-348.79C289.7,-346.11 295.25,-343.32 300.5,-340.5 317.22,-331.5 320.09,-327.05 336.5,-317.5 342,-314.3 347.89,-311.04 353.68,-307.92"/>
<polygon fill="black" stroke="black" points="283.01,-345.44 275.43,-352.84 285.97,-351.78 283.01,-345.44"/>
</g>
<!-- TypeMaterial&#45;&gt;ImportAttribute -->
<g id="edge6" class="edge">
<title>TypeMaterial&#45;&gt;ImportAttribute</title>
<path fill="none" stroke="black" d="M280.18,-355.03C287.58,-351.07 294.67,-346.28 300.5,-340.5 327.9,-313.34 309.8,-289.36 336.5,-261.5 336.97,-261.01 337.45,-260.53 337.94,-260.05"/>
<polygon fill="black" stroke="black" points="339.9,-262.97 345.45,-253.94 335.48,-257.54 339.9,-262.97"/>
</g>
<!-- TypeMaterial&#45;&gt;InternalAttribute -->
<g id="edge7" class="edge">
<title>TypeMaterial&#45;&gt;InternalAttribute</title>
<path fill="none" stroke="black" d="M281.73,-355.42C288.76,-351.44 295.33,-346.53 300.5,-340.5 340.33,-293.99 297.88,-255.02 336.5,-207.5 336.74,-207.2 336.99,-206.9 337.25,-206.61"/>
<polygon fill="black" stroke="black" points="339.51,-209.28 344.45,-199.9 334.75,-204.15 339.51,-209.28"/>
</g>
<!-- TypeMaterial&#45;&gt;Protonym -->
<g id="edge23" class="edge">
<title>TypeMaterial&#45;&gt;Protonym</title>
<path fill="none" stroke="black" stroke-dasharray="5,2" d="M292.2,-349.25C295.3,-346.64 298.1,-343.74 300.5,-340.5 379.04,-234.3 260.72,-153.69 336.5,-45.5 341.19,-38.81 348.04,-33.67 355.28,-29.77"/>
<polygon fill="black" stroke="black" points="290.25,-346.35 284.09,-354.97 294.28,-352.07 290.25,-346.35"/>
</g>
<!-- TypeMaterial&#45;&gt;PinboardItem -->
<g id="edge11" class="edge">
<title>TypeMaterial&#45;&gt;PinboardItem</title>
<path fill="none" stroke="black" d="M282.7,-355.72C289.52,-351.71 295.77,-346.72 300.5,-340.5 366.06,-254.3 273.18,-187.36 336.5,-99.5 336.73,-99.19 336.96,-98.87 337.19,-98.57"/>
<polygon fill="black" stroke="black" points="339.52,-101.19 344.09,-91.63 334.55,-96.26 339.52,-101.19"/>
</g>
<!-- TypeMaterial&#45;&gt;Role -->
<g id="edge12" class="edge">
<title>TypeMaterial&#45;&gt;Role</title>
<path fill="none" stroke="black" d="M282.13,-355.75C289.11,-351.73 295.56,-346.72 300.5,-340.5 353.13,-274.22 285.59,-221.11 336.5,-153.5 340.87,-147.7 346.84,-143.05 353.2,-139.35"/>
<polygon fill="black" stroke="black" points="354.6,-142.56 362,-134.98 351.48,-136.3 354.6,-142.56"/>
</g>
<!-- TypeMaterial&#45;&gt;SubsequentCitation -->
<g id="edge14" class="edge">
<title>TypeMaterial&#45;&gt;SubsequentCitation</title>
<path fill="none" stroke="black" d="M243.35,-393.96C260.49,-422.51 294.05,-471.15 336.5,-496.5 376.57,-520.43 428.03,-531.16 469.26,-535.92"/>
<polygon fill="black" stroke="black" points="468.78,-539.39 479.09,-536.96 469.51,-532.43 468.78,-539.39"/>
</g>
<!-- TypeMaterial&#45;&gt;VerifierRole -->
<g id="edge18" class="edge">
<title>TypeMaterial&#45;&gt;VerifierRole</title>
<path fill="none" stroke="black" d="M298.64,-359.97C311.8,-357.73 325.4,-355.42 337.95,-353.29"/>
<polygon fill="black" stroke="black" points="338.36,-356.77 347.64,-351.64 337.19,-349.87 338.36,-356.77"/>
</g>
<!-- TypeMaterial&#45;&gt;Creator -->
<g id="edge21" class="edge">
<title>TypeMaterial&#45;&gt;Creator</title>
<path fill="none" stroke="black" stroke-dasharray="5,2" d="M272.28,-398.44C291.08,-409.11 314.09,-420.11 336.5,-425.5 398.54,-440.43 473.3,-421.42 512.88,-408.53"/>
<polygon fill="black" stroke="black" points="274.29,-395.56 263.89,-393.52 270.75,-401.6 274.29,-395.56"/>
</g>
<!-- TypeMaterial&#45;&gt;Project -->
<g id="edge22" class="edge">
<title>TypeMaterial&#45;&gt;Project</title>
<path fill="none" stroke="black" stroke-dasharray="5,2" d="M309.91,-384.95C329.12,-388.21 348.35,-391.48 363.11,-393.99"/>
<polygon fill="black" stroke="black" points="310.57,-381.51 300.13,-383.28 309.4,-388.41 310.57,-381.51"/>
</g>
<!-- TypeMaterial&#45;&gt;Updater -->
<g id="edge24" class="edge">
<title>TypeMaterial&#45;&gt;Updater</title>
<path fill="none" stroke="black" stroke-dasharray="5,2" d="M263.48,-400.9C283.12,-416.57 309.49,-434.27 336.5,-442.5 455.09,-478.64 604.3,-432.83 666.3,-410"/>
<polygon fill="black" stroke="black" points="265.79,-398.27 255.85,-394.62 261.34,-403.68 265.79,-398.27"/>
</g>
<!-- TypeMaterial&#45;&gt;OriginCitation -->
<g id="edge25" class="edge">
<title>TypeMaterial&#45;&gt;OriginCitation</title>
<path fill="none" stroke="black" d="M244.57,-403.21C261.39,-438.53 293.09,-495.05 336.5,-528.5 359.97,-546.59 432.2,-569.39 484.08,-584.2"/>
<polygon fill="none" stroke="black" points="236.8,-395.98 244.06,-392.61 247.43,-399.87 240.17,-403.24 236.8,-395.98"/>
<polyline fill="none" stroke="black" points="243.8,-401.55 244.64,-403.37"/>
<polygon fill="none" stroke="black" points="494.77,-583.06 492.59,-590.76 484.89,-588.59 487.07,-580.89 494.77,-583.06"/>
<polyline fill="none" stroke="black" points="485.98,-584.74 484.06,-584.19"/>
</g>
<!-- CitationTopic&#45;&gt;Topic -->
<g id="edge17" class="edge">
<title>CitationTopic&#45;&gt;Topic</title>
<path fill="none" stroke="black" stroke-dasharray="1,5" d="M275.49,-660.5C299.55,-660.5 328.91,-660.5 351.83,-660.5"/>
<polygon fill="black" stroke="black" points="351.65,-664 361.65,-660.5 351.65,-657 351.65,-664"/>
</g>
<!-- Protonym&#45;&gt;Otu -->
<g id="edge10" class="edge">
<title>Protonym&#45;&gt;Otu</title>
<path fill="none" stroke="black" stroke-dasharray="1,5" d="M425.81,-18.5C448.89,-18.5 479.35,-18.5 503.1,-18.5"/>
<polygon fill="black" stroke="black" points="502.98,-22 512.98,-18.5 502.98,-15 502.98,-22"/>
</g>
<!-- Role&#45;&gt;Verifier -->
<!-- SubsequentCitation&#45;&gt;SubsequentSource -->
<g id="edge15" class="edge">
<title>SubsequentCitation&#45;&gt;SubsequentSource</title>
<path fill="none" stroke="black" stroke-dasharray="1,5" d="M602.99,-539.5C610.93,-539.5 619.11,-539.5 627.16,-539.5"/>
<polygon fill="black" stroke="black" points="626.91,-543 636.91,-539.5 626.91,-536 626.91,-543"/>
</g>
<!-- VerifierRole&#45;&gt;Verifier -->
<g id="edge19" class="edge">
<title>VerifierRole&#45;&gt;Verifier</title>
<path fill="none" stroke="black" stroke-dasharray="1,5" d="M429.09,-326.07C434.46,-323.05 439.82,-319.82 444.75,-316.5 469.24,-299.99 494.67,-278.26 513.18,-261.46"/>
<polygon fill="black" stroke="black" points="515.31,-264.26 520.31,-254.91 510.58,-259.1 515.31,-264.26"/>
</g>
<!-- Creator&#45;&gt;Updater -->
<!-- Project&#45;&gt;Creator -->
<!-- Citation -->
<g id="node1" class="node">
<title>Citation</title>
<g id="a_node1"><a xlink:href="/develop/Data/models.html#citation" xlink:title="Citation" target="_top">
<ellipse fill="#abcdef" stroke="#dddeee" cx="61.59" cy="-605.5" rx="40.6" ry="18"/>
<text text-anchor="middle" x="61.59" y="-600.45" font-family="Times,serif" font-size="14.00">Citation</text>
</a>
</g>
</g>
<!-- Confidence -->
<g id="node2" class="node">
<title>Confidence</title>
<g id="a_node2"><a xlink:href="/develop/Data/models.html#confidence" xlink:title="Confidence" target="_top">
<ellipse fill="#abcdef" stroke="#dddeee" cx="61.59" cy="-314.5" rx="53.4" ry="18"/>
<text text-anchor="middle" x="61.59" y="-309.45" font-family="Times,serif" font-size="14.00">Confidence</text>
</a>
</g>
</g>
<!-- DataAttribute -->
<g id="node3" class="node">
<title>DataAttribute</title>
<g id="a_node3"><a xlink:href="/develop/Data/models.html#data-attribute" xlink:title="DataAttribute" target="_top">
<ellipse fill="#abcdef" stroke="#dddeee" cx="61.59" cy="-369.5" rx="61.59" ry="18"/>
<text text-anchor="middle" x="61.59" y="-364.45" font-family="Times,serif" font-size="14.00">DataAttribute</text>
</a>
</g>
</g>
<!-- Tag -->
<g id="node4" class="node">
<title>Tag</title>
<g id="a_node4"><a xlink:href="/develop/Data/models.html#tag" xlink:title="Tag" target="_top">
<ellipse fill="#abcdef" stroke="#dddeee" cx="61.59" cy="-260.5" rx="27" ry="18"/>
<text text-anchor="middle" x="61.59" y="-255.45" font-family="Times,serif" font-size="14.00">Tag</text>
</a>
</g>
</g>
<!-- Note -->
<g id="node5" class="node">
<title>Note</title>
<g id="a_node5"><a xlink:href="/develop/Data/models.html#note" xlink:title="Note" target="_top">
<ellipse fill="#abcdef" stroke="#dddeee" cx="61.59" cy="-423.5" rx="28.83" ry="18"/>
<text text-anchor="middle" x="61.59" y="-418.45" font-family="Times,serif" font-size="14.00">Note</text>
</a>
</g>
</g>
<!-- Otu -->
<g id="node6" class="node">
<title>Otu</title>
<g id="a_node6"><a xlink:href="/develop/Data/models.html#otu" xlink:title="Otu" target="_top">
<path fill="#fedcba" stroke="#dddeee" d="M526.62,-0.5C526.62,-0.5 556.62,-0.5 556.62,-0.5 562.62,-0.5 568.62,-6.5 568.62,-12.5 568.62,-12.5 568.62,-24.5 568.62,-24.5 568.62,-30.5 562.62,-36.5 556.62,-36.5 556.62,-36.5 526.62,-36.5 526.62,-36.5 520.62,-36.5 514.62,-30.5 514.62,-24.5 514.62,-24.5 514.62,-12.5 514.62,-12.5 514.62,-6.5 520.62,-0.5 526.62,-0.5"/>
<text text-anchor="middle" x="541.62" y="-13.7" font-family="Times,serif" font-size="14.00">Otu</text>
</a>
</g>
</g>
<!-- Source -->
<g id="node7" class="node">
<title>Source</title>
<g id="a_node7"><a xlink:href="/develop/Data/models.html#source" xlink:title="Source" target="_top">
<path fill="#fedcba" stroke="#dddeee" d="M375.62,-587.5C375.62,-587.5 405.62,-587.5 405.62,-587.5 411.62,-587.5 417.62,-593.5 417.62,-599.5 417.62,-599.5 417.62,-611.5 417.62,-611.5 417.62,-617.5 411.62,-623.5 405.62,-623.5 405.62,-623.5 375.62,-623.5 375.62,-623.5 369.62,-623.5 363.62,-617.5 363.62,-611.5 363.62,-611.5 363.62,-599.5 363.62,-599.5 363.62,-593.5 369.62,-587.5 375.62,-587.5"/>
<text text-anchor="middle" x="390.62" y="-600.7" font-family="Times,serif" font-size="14.00">Source</text>
</a>
</g>
</g>
<!-- CollectionObject -->
<g id="node8" class="node">
<title>CollectionObject</title>
<g id="a_node8"><a xlink:href="/develop/Data/models.html#collection-object" xlink:title="CollectionObject" target="_top">
<path fill="#fedcba" stroke="#dddeee" d="M348.5,-271.5C348.5,-271.5 432.75,-271.5 432.75,-271.5 438.75,-271.5 444.75,-277.5 444.75,-283.5 444.75,-283.5 444.75,-295.5 444.75,-295.5 444.75,-301.5 438.75,-307.5 432.75,-307.5 432.75,-307.5 348.5,-307.5 348.5,-307.5 342.5,-307.5 336.5,-301.5 336.5,-295.5 336.5,-295.5 336.5,-283.5 336.5,-283.5 336.5,-277.5 342.5,-271.5 348.5,-271.5"/>
<text text-anchor="middle" x="390.62" y="-284.7" font-family="Times,serif" font-size="14.00">CollectionObject</text>
</a>
</g>
</g>
<!-- TypeMaterial -->
<g id="node9" class="node">
<title>TypeMaterial</title>
<g id="a_node9"><a xlink:href="/develop/Data/models.html#type-material" xlink:title="TypeMaterial" target="_top">
<polygon fill="#cdefab" stroke="#dedede" points="296.5,-364.04 296.5,-378.96 257.45,-389.5 202.22,-389.5 163.18,-378.96 163.18,-364.04 202.22,-353.5 257.45,-353.5 296.5,-364.04"/>
<polygon fill="none" stroke="#dedede" points="300.5,-360.98 300.5,-382.02 257.98,-393.5 201.69,-393.5 159.18,-382.02 159.18,-360.98 201.69,-349.5 257.98,-349.5 300.5,-360.98"/>
<text text-anchor="middle" x="229.84" y="-366.45" font-family="Times,serif" font-size="14.00">TypeMaterial</text>
</a>
</g>
</g>
<!-- CitationTopic -->
<g id="node10" class="node">
<title>CitationTopic</title>
<g id="a_node10"><a xlink:href="/develop/Data/models.html#citation-topic" xlink:title="CitationTopic" target="_top">
<polygon fill="#eeefff" stroke="#dddeee" points="275.34,-678.5 184.34,-678.5 184.34,-642.5 275.34,-642.5 275.34,-678.5"/>
<text text-anchor="middle" x="229.84" y="-655.45" font-family="Times,serif" font-size="14.00">CitationTopic</text>
</a>
</g>
</g>
<!-- ConfidenceLevel -->
<g id="node11" class="node">
<title>ConfidenceLevel</title>
<g id="a_node11"><a xlink:href="/develop/Data/models.html#confidence-level" xlink:title="ConfidenceLevel" target="_top">
<polygon fill="#eeefff" stroke="#dddeee" points="284.34,-331.5 175.34,-331.5 175.34,-295.5 284.34,-295.5 284.34,-331.5"/>
<text text-anchor="middle" x="229.84" y="-308.45" font-family="Times,serif" font-size="14.00">ConfidenceLevel</text>
</a>
</g>
</g>
<!-- ImportAttribute -->
<g id="node12" class="node">
<title>ImportAttribute</title>
<g id="a_node12"><a xlink:href="/develop/Data/models.html#import-attribute" xlink:title="ImportAttribute" target="_top">
<polygon fill="#eeefff" stroke="#dddeee" points="441.75,-252.5 339.5,-252.5 339.5,-216.5 441.75,-216.5 441.75,-252.5"/>
<text text-anchor="middle" x="390.62" y="-229.45" font-family="Times,serif" font-size="14.00">ImportAttribute</text>
</a>
</g>
</g>
<!-- InternalAttribute -->
<g id="node13" class="node">
<title>InternalAttribute</title>
<g id="a_node13"><a xlink:href="/develop/Data/models.html#internal-attribute" xlink:title="InternalAttribute" target="_top">
<polygon fill="#eeefff" stroke="#dddeee" points="444,-198.5 337.25,-198.5 337.25,-162.5 444,-162.5 444,-198.5"/>
<text text-anchor="middle" x="390.62" y="-175.45" font-family="Times,serif" font-size="14.00">InternalAttribute</text>
</a>
</g>
</g>
<!-- Keyword -->
<g id="node14" class="node">
<title>Keyword</title>
<g id="a_node14"><a xlink:href="/develop/Data/models.html#keyword" xlink:title="Keyword" target="_top">
<polygon fill="#eeefff" stroke="#dddeee" points="262.96,-277.5 196.71,-277.5 196.71,-241.5 262.96,-241.5 262.96,-277.5"/>
<text text-anchor="middle" x="229.84" y="-254.45" font-family="Times,serif" font-size="14.00">Keyword</text>
</a>
</g>
</g>
<!-- Protonym -->
<g id="node15" class="node">
<title>Protonym</title>
<g id="a_node15"><a xlink:href="/develop/Data/models.html#protonym" xlink:title="Protonym" target="_top">
<polygon fill="#eeefff" stroke="#dddeee" points="425.62,-36.5 355.62,-36.5 355.62,-0.5 425.62,-0.5 425.62,-36.5"/>
<text text-anchor="middle" x="390.62" y="-13.45" font-family="Times,serif" font-size="14.00">Protonym</text>
</a>
</g>
</g>
<!-- PinboardItem -->
<g id="node16" class="node">
<title>PinboardItem</title>
<g id="a_node16"><a xlink:href="/develop/Data/models.html#pinboard-item" xlink:title="PinboardItem" target="_top">
<polygon fill="#eeefff" stroke="#dddeee" points="435.75,-90.5 345.5,-90.5 345.5,-54.5 435.75,-54.5 435.75,-90.5"/>
<text text-anchor="middle" x="390.62" y="-67.45" font-family="Times,serif" font-size="14.00">PinboardItem</text>
</a>
</g>
</g>
<!-- Role -->
<g id="node17" class="node">
<title>Role</title>
<g id="a_node17"><a xlink:href="/develop/Data/models.html#role" xlink:title="Role" target="_top">
<polygon fill="#eeefff" stroke="#dddeee" points="417.62,-144.5 363.62,-144.5 363.62,-108.5 417.62,-108.5 417.62,-144.5"/>
<text text-anchor="middle" x="390.62" y="-121.45" font-family="Times,serif" font-size="14.00">Role</text>
</a>
</g>
</g>
<!-- SubsequentCitation -->
<g id="node18" class="node">
<title>SubsequentCitation</title>
<g id="a_node18"><a xlink:href="/develop/Data/models.html#subsequent-citation" xlink:title="SubsequentCitation" target="_top">
<polygon fill="#eeefff" stroke="#dddeee" points="602.5,-557.5 480.75,-557.5 480.75,-521.5 602.5,-521.5 602.5,-557.5"/>
<text text-anchor="middle" x="541.62" y="-534.45" font-family="Times,serif" font-size="14.00">SubsequentCitation</text>
</a>
</g>
</g>
<!-- SubsequentSource -->
<g id="node19" class="node">
<title>SubsequentSource</title>
<g id="a_node19"><a xlink:href="/develop/Data/models.html#subsequent-source" xlink:title="SubsequentSource" target="_top">
<polygon fill="#eeefff" stroke="#dddeee" points="754.25,-557.5 638.5,-557.5 638.5,-521.5 754.25,-521.5 754.25,-557.5"/>
<text text-anchor="middle" x="696.37" y="-534.45" font-family="Times,serif" font-size="14.00">SubsequentSource</text>
</a>
</g>
</g>
<!-- Topic -->
<g id="node20" class="node">
<title>Topic</title>
<g id="a_node20"><a xlink:href="/develop/Data/models.html#topic" xlink:title="Topic" target="_top">
<polygon fill="#eeefff" stroke="#dddeee" points="417.62,-678.5 363.62,-678.5 363.62,-642.5 417.62,-642.5 417.62,-678.5"/>
<text text-anchor="middle" x="390.62" y="-655.45" font-family="Times,serif" font-size="14.00">Topic</text>
</a>
</g>
</g>
<!-- VerifierRole -->
<g id="node21" class="node">
<title>VerifierRole</title>
<g id="a_node21"><a xlink:href="/develop/Data/models.html#verifier-role" xlink:title="VerifierRole" target="_top">
<polygon fill="#eeefff" stroke="#dddeee" points="432,-362.5 349.25,-362.5 349.25,-326.5 432,-326.5 432,-362.5"/>
<text text-anchor="middle" x="390.62" y="-339.45" font-family="Times,serif" font-size="14.00">VerifierRole</text>
</a>
</g>
</g>
<!-- Verifier -->
<g id="node22" class="node">
<title>Verifier</title>
<g id="a_node22"><a xlink:href="/develop/Data/models.html#verifier" xlink:title="Verifier" target="_top">
<polygon fill="#eeefff" stroke="#dddeee" points="570.25,-253.5 513,-253.5 513,-217.5 570.25,-217.5 570.25,-253.5"/>
<text text-anchor="middle" x="541.62" y="-230.45" font-family="Times,serif" font-size="14.00">Verifier</text>
</a>
</g>
</g>
<!-- Creator -->
<g id="node23" class="node">
<title>Creator</title>
<g id="a_node23"><a xlink:href="/develop/Data/models.html#creator" xlink:title="Creator" target="_top">
<polygon fill="#eeefff" stroke="#dddeee" points="569.87,-416.5 513.37,-416.5 513.37,-380.5 569.87,-380.5 569.87,-416.5"/>
<text text-anchor="middle" x="541.62" y="-393.45" font-family="Times,serif" font-size="14.00">Creator</text>
</a>
</g>
</g>
<!-- Project -->
<g id="node24" class="node">
<title>Project</title>
<g id="a_node24"><a xlink:href="/develop/Data/models.html#project" xlink:title="Project" target="_top">
<polygon fill="#eeefff" stroke="#dddeee" points="417.75,-416.5 363.5,-416.5 363.5,-380.5 417.75,-380.5 417.75,-416.5"/>
<text text-anchor="middle" x="390.62" y="-393.45" font-family="Times,serif" font-size="14.00">Project</text>
</a>
</g>
</g>
<!-- Updater -->
<g id="node25" class="node">
<title>Updater</title>
<g id="a_node25"><a xlink:href="/develop/Data/models.html#updater" xlink:title="Updater" target="_top">
<polygon fill="#eeefff" stroke="#dddeee" points="726.12,-416.5 666.62,-416.5 666.62,-380.5 726.12,-380.5 726.12,-416.5"/>
<text text-anchor="middle" x="696.37" y="-393.45" font-family="Times,serif" font-size="14.00">Updater</text>
</a>
</g>
</g>
<!-- OriginCitation -->
<g id="node26" class="node">
<title>OriginCitation</title>
<g id="a_node26"><a xlink:href="/develop/Data/models.html#origin-citation" xlink:title="OriginCitation" target="_top">
<polygon fill="#eeefff" stroke="#dddeee" points="589,-617.5 494.25,-617.5 494.25,-581.5 589,-581.5 589,-617.5"/>
<text text-anchor="middle" x="541.62" y="-594.45" font-family="Times,serif" font-size="14.00">OriginCitation</text>
</a>
</g>
</g>
</g>
</svg>
