<?xml version="1.0" encoding="UTF-8" standalone="no"?>
<!DOCTYPE svg PUBLIC "-//W3C//DTD SVG 1.1//EN"
 "http://www.w3.org/Graphics/SVG/1.1/DTD/svg11.dtd">
<!-- Generated by graphviz version 2.50.0 (20211204.2007)
 -->
<!-- Title: TypeMaterial Pages: 1 -->
<svg width="753pt" height="578pt"
 viewBox="0.00 0.00 753.33 578.00" xmlns="http://www.w3.org/2000/svg" xmlns:xlink="http://www.w3.org/1999/xlink">
<g id="graph0" class="graph" transform="scale(1 1) rotate(0) translate(4 574)">
<title>TypeMaterial</title>
<polygon fill="white" stroke="transparent" points="-4,4 -4,-574 749.33,-574 749.33,4 -4,4"/>
<!-- Citation&#45;&gt;Source -->
<g id="edge10" class="edge">
<title>Citation&#45;&gt;Source</title>
<path fill="none" stroke="black" stroke-dasharray="1,5" d="M98.39,-497C160.46,-497 282.31,-497 343.27,-497"/>
<polygon fill="black" stroke="black" points="343.57,-500.5 353.57,-497 343.57,-493.5 343.57,-500.5"/>
</g>
<!-- Citation&#45;&gt;CitationTopic -->
<g id="edge1" class="edge">
<title>Citation&#45;&gt;CitationTopic</title>
<path fill="none" stroke="black" stroke-dasharray="1,5" d="M91.22,-507.6C112.46,-514.85 141.18,-524.66 166.24,-533.21"/>
<polygon fill="black" stroke="black" points="165.4,-536.62 176,-536.54 167.67,-530 165.4,-536.62"/>
</g>
<!-- Confidence&#45;&gt;ConfidenceLevel -->
<g id="edge3" class="edge">
<title>Confidence&#45;&gt;ConfidenceLevel</title>
<path fill="none" stroke="black" stroke-dasharray="1,5" d="M110.25,-247.69C125.19,-247.6 141.76,-247.49 157.44,-247.4"/>
<polygon fill="black" stroke="black" points="157.62,-250.9 167.6,-247.33 157.57,-243.9 157.62,-250.9"/>
</g>
<!-- Tag&#45;&gt;Keyword -->
<g id="edge6" class="edge">
<title>Tag&#45;&gt;Keyword</title>
<path fill="none" stroke="black" stroke-dasharray="1,5" d="M86.4,-193.84C111.26,-193.68 149.04,-193.45 178.31,-193.27"/>
<polygon fill="black" stroke="black" points="178.68,-196.76 188.66,-193.2 178.64,-189.76 178.68,-196.76"/>
</g>
<!-- Source&#45;&gt;SubsequentCitation -->
<!-- Source&#45;&gt;OriginCitation -->
<!-- TypeMaterial&#45;&gt;Citation -->
<g id="edge2" class="edge">
<title>TypeMaterial&#45;&gt;Citation</title>
<path fill="none" stroke="black" d="M202.81,-327.03C172.51,-363.13 112.51,-434.61 80.84,-472.35"/>
<polygon fill="black" stroke="black" points="77.91,-470.39 74.16,-480.3 83.27,-474.89 77.91,-470.39"/>
</g>
<!-- TypeMaterial&#45;&gt;Confidence -->
<g id="edge4" class="edge">
<title>TypeMaterial&#45;&gt;Confidence</title>
<path fill="none" stroke="black" d="M174.92,-288.59C153.12,-280.88 127.22,-271.72 105.54,-264.06"/>
<polygon fill="black" stroke="black" points="106.51,-260.68 95.91,-260.65 104.17,-267.28 106.51,-260.68"/>
</g>
<!-- TypeMaterial&#45;&gt;DataAttribute -->
<g id="edge5" class="edge">
<title>TypeMaterial&#45;&gt;DataAttribute</title>
<path fill="none" stroke="black" d="M154.17,-304.17C145.71,-304.06 137.04,-303.95 128.56,-303.85"/>
<polygon fill="black" stroke="black" points="128.37,-300.35 118.33,-303.72 128.28,-307.35 128.37,-300.35"/>
</g>
<!-- TypeMaterial&#45;&gt;Tag -->
<g id="edge13" class="edge">
<title>TypeMaterial&#45;&gt;Tag</title>
<path fill="none" stroke="black" d="M176.02,-288.17C168.32,-284.19 160.74,-279.47 154.29,-274 132.58,-255.58 139.99,-239.44 118.29,-221 110.94,-214.75 101.9,-209.64 93.17,-205.61"/>
<polygon fill="black" stroke="black" points="94.46,-202.36 83.89,-201.66 91.72,-208.8 94.46,-202.36"/>
</g>
<!-- TypeMaterial&#45;&gt;Note -->
<g id="edge7" class="edge">
<title>TypeMaterial&#45;&gt;Note</title>
<path fill="none" stroke="black" d="M172.53,-320.74C147.23,-328.9 116.94,-338.67 94.19,-346.02"/>
<polygon fill="black" stroke="black" points="93.06,-342.7 84.62,-349.1 95.21,-349.36 93.06,-342.7"/>
</g>
<!-- TypeMaterial&#45;&gt;Source -->
<g id="edge23" class="edge">
<title>TypeMaterial&#45;&gt;Source</title>
<path fill="none" stroke="black" stroke-dasharray="1,5" d="M238.25,-336.33C255.78,-370.67 287.42,-425.95 326.33,-464 331.8,-469.35 338.28,-474.25 344.82,-478.53"/>
<polygon fill="none" stroke="black" points="230.12,-329.02 237.27,-325.43 240.85,-332.59 233.7,-336.17 230.12,-329.02"/>
<polyline fill="none" stroke="black" points="237.28,-334.38 238.17,-336.17 "/>
<polygon fill="none" stroke="black" points="355.77,-480.59 351.58,-487.4 344.77,-483.2 348.96,-476.39 355.77,-480.59"/>
<polyline fill="none" stroke="black" points="346.87,-479.79 345.16,-478.74 "/>
</g>
<!-- TypeMaterial&#45;&gt;CollectionObject -->
<g id="edge17" class="edge">
<title>TypeMaterial&#45;&gt;CollectionObject</title>
<path fill="none" stroke="black" stroke-dasharray="5,2" d="M278.04,-283.41C282.43,-280.59 286.61,-277.46 290.33,-274 314.51,-251.51 302.7,-232.07 326.33,-209 330.08,-205.34 334.4,-202.04 338.94,-199.1"/>
<polygon fill="black" stroke="black" points="276.25,-280.4 269.37,-288.46 279.77,-286.45 276.25,-280.4"/>
</g>
<!-- TypeMaterial&#45;&gt;PinboardItem -->
<g id="edge8" class="edge">
<title>TypeMaterial&#45;&gt;PinboardItem</title>
<path fill="none" stroke="black" d="M271.48,-288.93C278.51,-284.93 285.12,-280.01 290.33,-274 327.04,-231.57 290.34,-196.05 326.33,-153 326.94,-152.27 327.58,-151.55 328.24,-150.85"/>
<polygon fill="black" stroke="black" points="330.82,-153.24 336.05,-144.03 326.21,-147.97 330.82,-153.24"/>
</g>
<!-- TypeMaterial&#45;&gt;Role -->
<g id="edge9" class="edge">
<title>TypeMaterial&#45;&gt;Role</title>
<path fill="none" stroke="black" d="M271.93,-289.31C278.91,-285.26 285.39,-280.23 290.33,-274 339.65,-211.77 278.07,-162.06 326.33,-99 331.02,-92.87 337.49,-88.02 344.31,-84.23"/>
<polygon fill="black" stroke="black" points="346.22,-87.19 353.7,-79.69 343.18,-80.89 346.22,-87.19"/>
</g>
<!-- TypeMaterial&#45;&gt;SubsequentCitation -->
<g id="edge11" class="edge">
<title>TypeMaterial&#45;&gt;SubsequentCitation</title>
<path fill="none" stroke="black" d="M238.23,-327.35C256.3,-352.84 289.01,-394.18 326.33,-419 367.33,-446.27 419.81,-464.45 461.41,-475.72"/>
<polygon fill="black" stroke="black" points="460.64,-479.13 471.2,-478.3 462.42,-472.36 460.64,-479.13"/>
</g>
<!-- TypeMaterial&#45;&gt;VerifierRole -->
<g id="edge15" class="edge">
<title>TypeMaterial&#45;&gt;VerifierRole</title>
<path fill="none" stroke="black" d="M272.52,-289.3C279.34,-285.27 285.61,-280.24 290.33,-274 352.41,-191.78 265.65,-128.27 326.33,-45 327.72,-43.09 329.29,-41.3 330.99,-39.63"/>
<polygon fill="black" stroke="black" points="333.56,-42.06 339.17,-33.07 329.18,-36.6 333.56,-42.06"/>
</g>
<!-- TypeMaterial&#45;&gt;Creator -->
<g id="edge18" class="edge">
<title>TypeMaterial&#45;&gt;Creator</title>
<path fill="none" stroke="black" stroke-dasharray="5,2" d="M297.49,-291.78C338.32,-284.14 389.81,-273.89 435.33,-263 458.56,-257.44 484.64,-250.03 503.75,-244.38"/>
<polygon fill="black" stroke="black" points="296.8,-288.35 287.61,-293.62 298.08,-295.23 296.8,-288.35"/>
</g>
<!-- TypeMaterial&#45;&gt;Project -->
<g id="edge19" class="edge">
<title>TypeMaterial&#45;&gt;Project</title>
<path fill="none" stroke="black" stroke-dasharray="5,2" d="M273.51,-282.87C299.95,-271.21 331.31,-257.39 353.08,-247.79"/>
<polygon fill="black" stroke="black" points="271.76,-279.81 264.02,-287.05 274.58,-286.22 271.76,-279.81"/>
</g>
<!-- TypeMaterial&#45;&gt;Protonym -->
<g id="edge20" class="edge">
<title>TypeMaterial&#45;&gt;Protonym</title>
<path fill="none" stroke="black" stroke-dasharray="5,2" d="M300.74,-316.38C316.24,-318.66 331.78,-320.94 344.93,-322.87"/>
<polygon fill="black" stroke="black" points="301,-312.88 290.59,-314.89 299.98,-319.8 301,-312.88"/>
</g>
<!-- TypeMaterial&#45;&gt;Updater -->
<g id="edge21" class="edge">
<title>TypeMaterial&#45;&gt;Updater</title>
<path fill="none" stroke="black" stroke-dasharray="5,2" d="M264.89,-330.5C283.05,-340.21 305.04,-350.11 326.33,-355 373.54,-365.85 388.06,-365.64 435.33,-355 522.13,-335.46 614.19,-282.28 658.84,-254.09"/>
<polygon fill="black" stroke="black" points="266.21,-327.23 255.76,-325.47 262.83,-333.36 266.21,-327.23"/>
</g>
<!-- TypeMaterial&#45;&gt;OriginCitation -->
<g id="edge22" class="edge">
<title>TypeMaterial&#45;&gt;OriginCitation</title>
<path fill="none" stroke="black" d="M251.79,-334.17C271.16,-352.34 298.29,-374.72 326.33,-388 373.38,-410.3 431.94,-421.1 474.4,-426.3"/>
<polygon fill="none" stroke="black" points="241.73,-330.08 247.26,-324.3 253.04,-329.83 247.51,-335.61 241.73,-330.08"/>
<polyline fill="none" stroke="black" points="250.27,-332.72 251.72,-334.11 "/>
<polygon fill="none" stroke="black" points="485.02,-423.5 484.1,-431.45 476.16,-430.53 477.07,-422.58 485.02,-423.5"/>
<polyline fill="none" stroke="black" points="476.61,-426.55 474.63,-426.32 "/>
</g>
<!-- CitationTopic&#45;&gt;Topic -->
<g id="edge14" class="edge">
<title>CitationTopic&#45;&gt;Topic</title>
<path fill="none" stroke="black" stroke-dasharray="1,5" d="M268.58,-552C292.43,-552 321.28,-552 343.63,-552"/>
<polygon fill="black" stroke="black" points="343.71,-555.5 353.71,-552 343.71,-548.5 343.71,-555.5"/>
</g>
<!-- Role&#45;&gt;Verifier -->
<!-- SubsequentCitation&#45;&gt;SubsequentSource -->
<g id="edge12" class="edge">
<title>SubsequentCitation&#45;&gt;SubsequentSource</title>
<path fill="none" stroke="black" stroke-dasharray="1,5" d="M593.36,-491C601.69,-491 610.29,-491 618.75,-491"/>
<polygon fill="black" stroke="black" points="618.97,-494.5 628.97,-491 618.97,-487.5 618.97,-494.5"/>
</g>
<!-- VerifierRole&#45;&gt;Verifier -->
<g id="edge16" class="edge">
<title>VerifierRole&#45;&gt;Verifier</title>
<path fill="none" stroke="black" stroke-dasharray="1,5" d="M422.68,-25.38C444.82,-29.38 471.99,-34.28 493.62,-38.19"/>
<polygon fill="black" stroke="black" points="493.29,-41.69 503.75,-40.02 494.53,-34.8 493.29,-41.69"/>
</g>
<!-- Creator&#45;&gt;Updater -->
<!-- Project&#45;&gt;Creator -->
<!-- Citation -->
<g id="node1" class="node">
<title>Citation</title>
<g id="a_node1"><a xlink:href="/develop/Data/models.html#citation" xlink:title="Citation" target="_top">
<ellipse fill="#abcdef" stroke="#dddeee" cx="59.14" cy="-497" rx="38.99" ry="18"/>
<text text-anchor="middle" x="59.14" y="-493.3" font-family="Times,serif" font-size="14.00">Citation</text>
</a>
</g>
</g>
<!-- Confidence -->
<g id="node2" class="node">
<title>Confidence</title>
<g id="a_node2"><a xlink:href="/develop/Data/models.html#confidence" xlink:title="Confidence" target="_top">
<ellipse fill="#abcdef" stroke="#dddeee" cx="59.14" cy="-248" rx="50.89" ry="18"/>
<text text-anchor="middle" x="59.14" y="-244.3" font-family="Times,serif" font-size="14.00">Confidence</text>
</a>
</g>
</g>
<!-- DataAttribute -->
<g id="node3" class="node">
<title>DataAttribute</title>
<g id="a_node3"><a xlink:href="/develop/Data/models.html#data-attribute" xlink:title="DataAttribute" target="_top">
<ellipse fill="#abcdef" stroke="#dddeee" cx="59.14" cy="-303" rx="59.29" ry="18"/>
<text text-anchor="middle" x="59.14" y="-299.3" font-family="Times,serif" font-size="14.00">DataAttribute</text>
</a>
</g>
</g>
<!-- Tag -->
<g id="node4" class="node">
<title>Tag</title>
<g id="a_node4"><a xlink:href="/develop/Data/models.html#tag" xlink:title="Tag" target="_top">
<ellipse fill="#abcdef" stroke="#dddeee" cx="59.14" cy="-194" rx="27" ry="18"/>
<text text-anchor="middle" x="59.14" y="-190.3" font-family="Times,serif" font-size="14.00">Tag</text>
</a>
</g>
</g>
<!-- Note -->
<g id="node5" class="node">
<title>Note</title>
<g id="a_node5"><a xlink:href="/develop/Data/models.html#note" xlink:title="Note" target="_top">
<ellipse fill="#abcdef" stroke="#dddeee" cx="59.14" cy="-357" rx="27.9" ry="18"/>
<text text-anchor="middle" x="59.14" y="-353.3" font-family="Times,serif" font-size="14.00">Note</text>
</a>
</g>
</g>
<!-- Source -->
<g id="node6" class="node">
<title>Source</title>
<g id="a_node6"><a xlink:href="/develop/Data/models.html#source" xlink:title="Source" target="_top">
<path fill="#fedcba" stroke="#dddeee" d="M365.83,-479C365.83,-479 395.83,-479 395.83,-479 401.83,-479 407.83,-485 407.83,-491 407.83,-491 407.83,-503 407.83,-503 407.83,-509 401.83,-515 395.83,-515 395.83,-515 365.83,-515 365.83,-515 359.83,-515 353.83,-509 353.83,-503 353.83,-503 353.83,-491 353.83,-491 353.83,-485 359.83,-479 365.83,-479"/>
<text text-anchor="middle" x="380.83" y="-493.3" font-family="Times,serif" font-size="14.00">Source</text>
</a>
</g>
</g>
<!-- CollectionObject -->
<g id="node7" class="node">
<title>CollectionObject</title>
<g id="a_node7"><a xlink:href="/develop/Data/models.html#collection-object" xlink:title="CollectionObject" target="_top">
<path fill="#fedcba" stroke="#dddeee" d="M338.33,-163C338.33,-163 423.33,-163 423.33,-163 429.33,-163 435.33,-169 435.33,-175 435.33,-175 435.33,-187 435.33,-187 435.33,-193 429.33,-199 423.33,-199 423.33,-199 338.33,-199 338.33,-199 332.33,-199 326.33,-193 326.33,-187 326.33,-187 326.33,-175 326.33,-175 326.33,-169 332.33,-163 338.33,-163"/>
<text text-anchor="middle" x="380.83" y="-177.3" font-family="Times,serif" font-size="14.00">CollectionObject</text>
</a>
</g>
</g>
<!-- TypeMaterial -->
<g id="node8" class="node">
<title>TypeMaterial</title>
<g id="a_node8"><a xlink:href="/develop/Data/models.html#type-material" xlink:title="TypeMaterial" target="_top">
<polygon fill="#cdefab" stroke="#dedede" points="286.34,-297.54 286.34,-312.46 248.83,-323 195.78,-323 158.27,-312.46 158.27,-297.54 195.78,-287 248.83,-287 286.34,-297.54"/>
<polygon fill="none" stroke="#dedede" points="290.34,-294.51 290.34,-315.49 249.38,-327 195.23,-327 154.27,-315.49 154.27,-294.51 195.23,-283 249.38,-283 290.34,-294.51"/>
<text text-anchor="middle" x="222.31" y="-301.3" font-family="Times,serif" font-size="14.00">TypeMaterial</text>
</a>
</g>
</g>
<!-- CitationTopic -->
<g id="node9" class="node">
<title>CitationTopic</title>
<g id="a_node9"><a xlink:href="/develop/Data/models.html#citation-topic" xlink:title="CitationTopic" target="_top">
<polygon fill="#eeefff" stroke="#dddeee" points="268.31,-570 176.31,-570 176.31,-534 268.31,-534 268.31,-570"/>
<text text-anchor="middle" x="222.31" y="-548.3" font-family="Times,serif" font-size="14.00">CitationTopic</text>
</a>
</g>
</g>
<!-- ConfidenceLevel -->
<g id="node10" class="node">
<title>ConfidenceLevel</title>
<g id="a_node10"><a xlink:href="/develop/Data/models.html#confidence-level" xlink:title="ConfidenceLevel" target="_top">
<polygon fill="#eeefff" stroke="#dddeee" points="276.81,-265 167.81,-265 167.81,-229 276.81,-229 276.81,-265"/>
<text text-anchor="middle" x="222.31" y="-243.3" font-family="Times,serif" font-size="14.00">ConfidenceLevel</text>
</a>
</g>
</g>
<!-- Keyword -->
<g id="node11" class="node">
<title>Keyword</title>
<g id="a_node11"><a xlink:href="/develop/Data/models.html#keyword" xlink:title="Keyword" target="_top">
<polygon fill="#eeefff" stroke="#dddeee" points="255.81,-211 188.81,-211 188.81,-175 255.81,-175 255.81,-211"/>
<text text-anchor="middle" x="222.31" y="-189.3" font-family="Times,serif" font-size="14.00">Keyword</text>
</a>
</g>
</g>
<!-- PinboardItem -->
<g id="node12" class="node">
<title>PinboardItem</title>
<g id="a_node12"><a xlink:href="/develop/Data/models.html#pinboard-item" xlink:title="PinboardItem" target="_top">
<polygon fill="#eeefff" stroke="#dddeee" points="426.33,-144 335.33,-144 335.33,-108 426.33,-108 426.33,-144"/>
<text text-anchor="middle" x="380.83" y="-122.3" font-family="Times,serif" font-size="14.00">PinboardItem</text>
</a>
</g>
</g>
<!-- Role -->
<g id="node13" class="node">
<title>Role</title>
<g id="a_node13"><a xlink:href="/develop/Data/models.html#role" xlink:title="Role" target="_top">
<polygon fill="#eeefff" stroke="#dddeee" points="407.83,-90 353.83,-90 353.83,-54 407.83,-54 407.83,-90"/>
<text text-anchor="middle" x="380.83" y="-68.3" font-family="Times,serif" font-size="14.00">Role</text>
</a>
</g>
</g>
<!-- SubsequentCitation -->
<g id="node14" class="node">
<title>SubsequentCitation</title>
<g id="a_node14"><a xlink:href="/develop/Data/models.html#subsequent-citation" xlink:title="SubsequentCitation" target="_top">
<polygon fill="#eeefff" stroke="#dddeee" points="593.33,-509 471.33,-509 471.33,-473 593.33,-473 593.33,-509"/>
<text text-anchor="middle" x="532.33" y="-487.3" font-family="Times,serif" font-size="14.00">SubsequentCitation</text>
</a>
</g>
</g>
<!-- SubsequentSource -->
<g id="node15" class="node">
<title>SubsequentSource</title>
<g id="a_node15"><a xlink:href="/develop/Data/models.html#subsequent-source" xlink:title="SubsequentSource" target="_top">
<polygon fill="#eeefff" stroke="#dddeee" points="745.33,-509 629.33,-509 629.33,-473 745.33,-473 745.33,-509"/>
<text text-anchor="middle" x="687.33" y="-487.3" font-family="Times,serif" font-size="14.00">SubsequentSource</text>
</a>
</g>
</g>
<!-- Topic -->
<g id="node16" class="node">
<title>Topic</title>
<g id="a_node16"><a xlink:href="/develop/Data/models.html#topic" xlink:title="Topic" target="_top">
<polygon fill="#eeefff" stroke="#dddeee" points="407.83,-570 353.83,-570 353.83,-534 407.83,-534 407.83,-570"/>
<text text-anchor="middle" x="380.83" y="-548.3" font-family="Times,serif" font-size="14.00">Topic</text>
</a>
</g>
</g>
<!-- VerifierRole -->
<g id="node17" class="node">
<title>VerifierRole</title>
<g id="a_node17"><a xlink:href="/develop/Data/models.html#verifier-role" xlink:title="VerifierRole" target="_top">
<polygon fill="#eeefff" stroke="#dddeee" points="422.33,-36 339.33,-36 339.33,0 422.33,0 422.33,-36"/>
<text text-anchor="middle" x="380.83" y="-14.3" font-family="Times,serif" font-size="14.00">VerifierRole</text>
</a>
</g>
</g>
<!-- Verifier -->
<g id="node18" class="node">
<title>Verifier</title>
<g id="a_node18"><a xlink:href="/develop/Data/models.html#verifier" xlink:title="Verifier" target="_top">
<polygon fill="#eeefff" stroke="#dddeee" points="560.83,-63 503.83,-63 503.83,-27 560.83,-27 560.83,-63"/>
<text text-anchor="middle" x="532.33" y="-41.3" font-family="Times,serif" font-size="14.00">Verifier</text>
</a>
</g>
</g>
<!-- Creator -->
<g id="node19" class="node">
<title>Creator</title>
<g id="a_node19"><a xlink:href="/develop/Data/models.html#creator" xlink:title="Creator" target="_top">
<polygon fill="#eeefff" stroke="#dddeee" points="560.83,-254 503.83,-254 503.83,-218 560.83,-218 560.83,-254"/>
<text text-anchor="middle" x="532.33" y="-232.3" font-family="Times,serif" font-size="14.00">Creator</text>
</a>
</g>
</g>
<!-- Project -->
<g id="node20" class="node">
<title>Project</title>
<g id="a_node20"><a xlink:href="/develop/Data/models.html#project" xlink:title="Project" target="_top">
<polygon fill="#eeefff" stroke="#dddeee" points="408.33,-254 353.33,-254 353.33,-218 408.33,-218 408.33,-254"/>
<text text-anchor="middle" x="380.83" y="-232.3" font-family="Times,serif" font-size="14.00">Project</text>
</a>
</g>
</g>
<!-- Protonym -->
<g id="node21" class="node">
<title>Protonym</title>
<g id="a_node21"><a xlink:href="/develop/Data/models.html#protonym" xlink:title="Protonym" target="_top">
<polygon fill="#eeefff" stroke="#dddeee" points="416.33,-346 345.33,-346 345.33,-310 416.33,-310 416.33,-346"/>
<text text-anchor="middle" x="380.83" y="-324.3" font-family="Times,serif" font-size="14.00">Protonym</text>
</a>
</g>
</g>
<!-- Updater -->
<g id="node22" class="node">
<title>Updater</title>
<g id="a_node22"><a xlink:href="/develop/Data/models.html#updater" xlink:title="Updater" target="_top">
<polygon fill="#eeefff" stroke="#dddeee" points="717.33,-254 657.33,-254 657.33,-218 717.33,-218 717.33,-254"/>
<text text-anchor="middle" x="687.33" y="-232.3" font-family="Times,serif" font-size="14.00">Updater</text>
</a>
</g>
</g>
<!-- OriginCitation -->
<g id="node23" class="node">
<title>OriginCitation</title>
<g id="a_node23"><a xlink:href="/develop/Data/models.html#origin-citation" xlink:title="OriginCitation" target="_top">
<polygon fill="#eeefff" stroke="#dddeee" points="579.83,-449 484.83,-449 484.83,-413 579.83,-413 579.83,-449"/>
<text text-anchor="middle" x="532.33" y="-427.3" font-family="Times,serif" font-size="14.00">OriginCitation</text>
</a>
</g>
</g>
</g>
</svg>
