<?xml version="1.0" encoding="utf-8"?>
<!-- Generator: Adobe Illustrator 26.0.2, SVG Export Plug-In . SVG Version: 6.00 Build 0)  -->
<svg version="1.1" id="Layer_1" xmlns="http://www.w3.org/2000/svg" xmlns:xlink="http://www.w3.org/1999/xlink" x="0px" y="0px"
	 viewBox="0 0 1787.7 713.4" style="enable-background:new 0 0 1787.7 713.4;" xml:space="preserve">
<style type="text/css">
	.st0{fill:none;stroke:#000000;stroke-width:2;}
	.st1{fill:#2196F3;stroke:#FFFFFF;}
	.st2{font-family:'ArialMT';}
	.st3{font-size:17.489px;}
	.st4{fill:#EF6C00;stroke:#FFFFFF;}
	.st5{fill:#7E57C2;stroke:#FFFFFF;}
	.st6{fill:#009688;stroke:#FFFFFF;}
	.st7{fill:#CDDC39;stroke:#FFFFFF;}
	.st8{stroke:#FFFFFF;}
	.st9{fill:#FF9800;stroke:#FFFFFF;}
	.st10{fill:#4CAF50;stroke:#FFFFFF;}
	.st11{fill:#E91E63;stroke:#FFFFFF;}
	.st12{fill:#9C27B0;stroke:#FFFFFF;}
</style>
<line class="st0" x1="904.2" y1="448.9" x2="911.5" y2="518.8"/>
<line class="st0" x1="1414.3" y1="393.8" x2="904.2" y2="448.9"/>
<line class="st0" x1="1464.5" y1="359.8" x2="1414.3" y2="393.8"/>
<line class="st0" x1="1399.7" y1="298.9" x2="1414.3" y2="408.4"/>
<line class="st0" x1="864" y1="582.2" x2="904.2" y2="448.9"/>
<line class="st0" x1="732.4" y1="523.6" x2="904.2" y2="448.9"/>
<line class="st0" x1="796.1" y1="399.7" x2="904.2" y2="448.9"/>
<line class="st0" x1="678.3" y1="340.7" x2="580.8" y2="390.6"/>
<line class="st0" x1="678.3" y1="340.7" x2="796.1" y2="399.7"/>
<line class="st0" x1="583.9" y1="286.2" x2="678.3" y2="340.7"/>
<line class="st0" x1="460.7" y1="286.3" x2="583.9" y2="286.2"/>
<line class="st0" x1="376" y1="250.6" x2="460.7" y2="286.3"/>
<line class="st0" x1="279.7" y1="213.1" x2="376" y2="250.6"/>
<line class="st0" x1="181.2" y1="183.1" x2="279.7" y2="213.1"/>
<line class="st0" x1="103.6" y1="136.6" x2="181.2" y2="183.1"/>
<line class="st0" x1="47.9" y1="90.2" x2="30.6" y2="36"/>
<line class="st0" x1="47.9" y1="90.2" x2="103.6" y2="136.6"/>
<line class="st0" x1="110.2" y1="226.4" x2="103.6" y2="136.6"/>
<line class="st0" x1="181.2" y1="277.3" x2="110.2" y2="226.4"/>
<line class="st0" x1="307" y1="305.7" x2="181.2" y2="277.3"/>
<line class="st0" x1="732.4" y1="435.2" x2="796.1" y2="399.7"/>
<line class="st0" x1="904.2" y1="448.9" x2="769.8" y2="631.2"/>
<line class="st0" x1="783.4" y1="680.1" x2="769.8" y2="631.2"/>
<g>
	<circle class="st1" cx="904.2" cy="448.9" r="14.6"/>
	<text transform="matrix(1 0 0 1 918.7573 471.4365)" class="st2 st3">CollectionObject 1131633, 5c5ff4a9-0986-4748-a8ea-5573fccb4e36</text>
</g>
<g>
	<polygon class="st4" points="911.5,504.2 896.9,533.4 926.1,533.4 	"/>
	<text transform="matrix(1 0 0 1 926.0522 524.0248)" class="st2 st3">5c5ff4a9-0986-4748-a8ea-5573fccb4e36</text>
</g>
<g>
	<circle class="st5" cx="1414.3" cy="393.8" r="14.6"/>
	<text transform="matrix(1 0 0 1 1428.877 399.0361)" class="st2 st3">crowPontiac, IllMay 15, 1934J.C. McConaha</text>
</g>
<g>
	<g transform="translate(1264.9338649554772, 605.4379583572295)">
		<path d="M208.8-259.5c-4.7-4.2-4.5-11.1-0.6-15c3.9-4.1,10.2-4.2,14.4-0.4c4.2,3.8,4.8,10.9-0.1,15.4c1,0.4,1.9,0.9,2.8,1.3
			c2.5,1,3.8,3.1,4.5,5.5c0.4,1.3,0.4,2.6,0.4,3.9c0,0.1,0,0.3-0.1,0.4c-3.1,3.4-6.8,5.7-11.5,6.3c-5.4,0.9-10.2-0.4-14.6-3.6
			c-1-0.7-1.7-1.6-2.6-2.5c-0.1-0.1-0.3-0.3-0.3-0.4c-0.1-3.1,0.4-5.8,2.6-8.2c0.6-0.6,1.3-1,2-1.5
			C206.7-258.6,207.8-259,208.8-259.5z M220.6-258.1c-3.4,1.6-6.6,1.6-9.9,0c-0.1,0.1-0.3,0.1-0.4,0.3c-1.2,0.6-2.3,1.2-3.5,1.6
			c-1.2,0.6-2,1.3-2.6,2.5c-0.7,1.3-1,2.9-1,4.4c0,0.1,0.1,0.3,0.1,0.4c3.9,3.9,8.7,5.8,14.3,5.2c4.1-0.4,7.4-2.3,10.3-5.1
			c0.1-0.1,0.3-0.4,0.3-0.6c-0.1-1-0.1-2-0.4-3.1c-0.4-1.7-1.6-3.1-3.2-3.8c-1.2-0.4-2.2-1-3.4-1.6
			C220.9-258,220.7-258.1,220.6-258.1z M215.6-275.6c-4.7,0-8.3,3.8-8.3,8.3c0,4.5,3.8,8.3,8.3,8.3c4.5,0,8.3-3.6,8.3-8.3
			C223.9-271.8,220.2-275.6,215.6-275.6z"/>
		<path class="st6" d="M220.6-258.1c0.1,0.1,0.3,0.3,0.4,0.3c1.2,0.6,2.2,1.2,3.4,1.6c1.7,0.7,2.8,2,3.2,3.8c0.3,1,0.3,2,0.4,3.1
			c0,0.1-0.1,0.4-0.3,0.6c-2.9,2.9-6.3,4.7-10.3,5.1c-5.5,0.6-10.3-1.3-14.3-5.2c-0.1-0.1-0.1-0.3-0.1-0.4c0-1.6,0.3-3.1,1-4.4
			c0.6-1.2,1.5-1.9,2.6-2.5c1.2-0.6,2.3-1.2,3.5-1.6c0.1-0.1,0.3-0.1,0.4-0.3C214-256.5,217.2-256.5,220.6-258.1z"/>
		<path class="st6" d="M215.6-275.6c4.5,0,8.3,3.8,8.3,8.3c0,4.5-3.8,8.3-8.3,8.3c-4.5,0-8.3-3.8-8.3-8.3
			C207.3-271.8,211-275.6,215.6-275.6z"/>
	</g>
	<text transform="matrix(1 0 0 1 1495.1445 347.5849)" class="st2 st3">McConaha, J.C.</text>
</g>
<g>
	<rect x="1385.2" y="284.3" class="st7" width="29.1" height="29.1"/>
	<text transform="matrix(1 0 0 1 1414.3027 304.1074)" class="st2 st3">Georeference</text>
</g>
<g>
	<circle class="st6" cx="864" cy="582.2" r="14.6"/>
	<text transform="matrix(1 0 0 1 878.6089 587.4545)" class="st2 st3">Illinois Natural History Survey (INHS)</text>
</g>
<g>
	<circle class="st8" cx="732.4" cy="523.6" r="14.6"/>
	<text transform="matrix(1 0 0 1 746.9819 543.4614)" class="st2 st3">Female</text>
</g>
<g>
	<circle class="st9" cx="796.1" cy="399.7" r="14.6"/>
	<text transform="matrix(1 0 0 1 810.6548 404.9062)" class="st2 st3">Myrsidea interrupta (Osborn, 1896) by Emerson on 1947</text>
</g>
<g>
	<polygon class="st10" points="690.9,333.4 690.9,348 678.3,355.3 665.7,348 665.7,333.4 678.3,326.1 	"/>
	<text transform="matrix(1 0 0 1 692.8706 345.9208)" class="st2 st3">Myrsidea interrupta (Osborn, 1896)</text>
</g>
<g>
	<polygon class="st4" points="580.8,376.1 566.3,405.2 595.4,405.2 	"/>
	<text transform="matrix(1 0 0 1 595.4224 401.7031)" class="st2 st3">Taxon Code 48026</text>
</g>
<g>
	<rect x="569.3" y="271.6" class="st11" width="29.1" height="29.1"/>
	<text transform="matrix(1 0 0 1 598.4849 291.4404)" class="st2 st3">Myrsidea interrupta (Osborn, 1896)</text>
</g>
<g>
	<rect x="446.1" y="271.7" class="st11" width="29.1" height="29.1"/>
	<text transform="matrix(1 0 0 1 480.3999 310.915)" class="st2 st3">Myrsidea</text>
</g>
<g>
	<rect x="361.4" y="236" class="st11" width="29.1" height="29.1"/>
	<text transform="matrix(1 0 0 1 390.5669 255.8681)" class="st2 st3">Menoponidae</text>
</g>
<g>
	<rect x="265.1" y="198.5" class="st11" width="29.1" height="29.1"/>
	<text transform="matrix(1 0 0 1 294.2363 218.3056)" class="st2 st3">Amblycera</text>
</g>
<g>
	<rect x="166.6" y="168.5" class="st11" width="29.1" height="29.1"/>
	<text transform="matrix(1 0 0 1 202.772 181.475)" class="st2 st3">Psocodea</text>
</g>
<g>
	<rect x="89" y="122" class="st11" width="29.1" height="29.1"/>
	<text transform="matrix(1 0 0 1 118.1929 141.8002)" class="st2 st3">Insecta Linnaeus, 1758</text>
</g>
<g>
	<g transform="translate(583.1444024808567, 310.9727118624481)">
		<path d="M-542.1-217.1c-4.7-4.2-4.5-11.1-0.6-15c3.9-4.1,10.2-4.2,14.4-0.4c4.2,3.8,4.8,10.9-0.1,15.4c1,0.4,1.9,0.9,2.8,1.3
			c2.5,1,3.8,3.1,4.5,5.5c0.4,1.3,0.4,2.6,0.4,3.9c0,0.1,0,0.3-0.1,0.4c-3.1,3.4-6.8,5.7-11.5,6.3c-5.4,0.9-10.2-0.4-14.6-3.6
			c-1-0.7-1.7-1.6-2.6-2.5c-0.1-0.1-0.3-0.3-0.3-0.4c-0.1-3.1,0.4-5.8,2.6-8.2c0.6-0.6,1.3-1,2-1.5
			C-544.1-216.2-543.1-216.7-542.1-217.1z M-530.3-215.8c-3.4,1.6-6.6,1.6-9.9,0c-0.1,0.1-0.3,0.1-0.4,0.3c-1.2,0.6-2.3,1.2-3.5,1.6
			c-1.2,0.6-2,1.3-2.6,2.5c-0.7,1.3-1,2.9-1,4.4c0,0.1,0.1,0.3,0.1,0.4c3.9,3.9,8.7,5.8,14.3,5.2c4.1-0.4,7.4-2.3,10.3-5.1
			c0.1-0.1,0.3-0.4,0.3-0.6c-0.1-1-0.1-2-0.4-3.1c-0.4-1.7-1.6-3.1-3.2-3.8c-1.2-0.4-2.2-1-3.4-1.6
			C-530-215.7-530.2-215.8-530.3-215.8z M-535.3-233.3c-4.7,0-8.3,3.8-8.3,8.3s3.8,8.3,8.3,8.3s8.3-3.6,8.3-8.3
			C-526.9-229.5-530.7-233.3-535.3-233.3z"/>
		<path class="st6" d="M-530.3-215.8c0.1,0.1,0.3,0.3,0.4,0.3c1.2,0.6,2.2,1.2,3.4,1.6c1.7,0.7,2.8,2,3.2,3.8c0.3,1,0.3,2,0.4,3.1
			c0,0.1-0.1,0.4-0.3,0.6c-2.9,2.9-6.3,4.7-10.3,5.1c-5.5,0.6-10.3-1.3-14.3-5.2c-0.1-0.1-0.1-0.3-0.1-0.4c0-1.6,0.3-3.1,1-4.4
			c0.6-1.2,1.5-1.9,2.6-2.5c1.2-0.6,2.3-1.2,3.5-1.6c0.1-0.1,0.3-0.1,0.4-0.3C-536.9-214.2-533.6-214.2-530.3-215.8z"/>
		<path class="st6" d="M-535.3-233.3c4.5,0,8.3,3.8,8.3,8.3s-3.8,8.3-8.3,8.3s-8.3-3.8-8.3-8.3S-539.9-233.3-535.3-233.3z"/>
	</g>
	<text transform="matrix(1 0 0 1 62.4668 95.4575)" class="st2 st3">Linnaeus, Carolus</text>
</g>
<g>
	<polygon class="st4" points="30.6,21.4 16,50.5 45.2,50.5 	"/>
	<text transform="matrix(1 0 0 1 45.1572 41.2162)" class="st2 st3">Q1043</text>
</g>
<g>
	<rect x="95.7" y="211.8" class="st11" width="29.1" height="29.1"/>
	<text transform="matrix(1 0 0 1 124.8115 231.6445)" class="st2 st3">Arthropoda</text>
</g>
<g>
	<rect x="166.6" y="262.7" class="st11" width="29.1" height="29.1"/>
	<text transform="matrix(1 0 0 1 202.772 271.6201)" class="st2 st3">Animalia</text>
</g>
<g>
	<rect x="292.5" y="291.1" class="st11" width="29.1" height="29.1"/>
	<text transform="matrix(1 0 0 1 321.6138 310.915)" class="st2 st3">Root</text>
</g>
<g>
	<g transform="translate(1076.8453119539995, 532.949724510705)">
		<path d="M-351.3-94.1c-4.7-4.2-4.5-11.1-0.6-15c3.9-4.1,10.2-4.2,14.4-0.4s4.8,10.9-0.1,15.4c1,0.4,1.9,0.9,2.8,1.3
			c2.5,1,3.8,3.1,4.5,5.5c0.4,1.3,0.4,2.6,0.4,3.9c0,0.1,0,0.3-0.1,0.4c-3.1,3.4-6.8,5.7-11.5,6.3c-5.4,0.9-10.2-0.4-14.6-3.6
			c-1-0.7-1.7-1.6-2.6-2.5c-0.1-0.1-0.3-0.3-0.3-0.4c-0.1-3.1,0.4-5.8,2.6-8.2c0.6-0.6,1.3-1,2-1.5
			C-353.3-93.2-352.3-93.7-351.3-94.1z M-339.5-92.8c-3.4,1.6-6.6,1.6-9.9,0c-0.1,0.1-0.3,0.1-0.4,0.3c-1.2,0.6-2.3,1.2-3.5,1.6
			c-1.2,0.6-2,1.3-2.6,2.5c-0.7,1.3-1,2.9-1,4.4c0,0.1,0.1,0.3,0.1,0.4c3.9,3.9,8.7,5.8,14.3,5.2c4.1-0.4,7.4-2.3,10.3-5.1
			c0.1-0.1,0.3-0.4,0.3-0.6c-0.1-1-0.1-2-0.4-3.1c-0.4-1.7-1.6-3.1-3.2-3.8c-1.2-0.4-2.2-1-3.4-1.6
			C-339.2-92.6-339.3-92.8-339.5-92.8z M-344.4-110.3c-4.7,0-8.3,3.8-8.3,8.3s3.8,8.3,8.3,8.3c4.5,0,8.3-3.6,8.3-8.3
			C-336.1-106.5-339.9-110.3-344.4-110.3z"/>
		<path class="st6" d="M-339.5-92.8c0.1,0.1,0.3,0.3,0.4,0.3c1.2,0.6,2.2,1.2,3.4,1.6c1.7,0.7,2.8,2,3.2,3.8c0.3,1,0.3,2,0.4,3.1
			c0,0.1-0.1,0.4-0.3,0.6c-2.9,2.9-6.3,4.7-10.3,5.1c-5.5,0.6-10.3-1.3-14.3-5.2c-0.1-0.1-0.1-0.3-0.1-0.4c0-1.6,0.3-3.1,1-4.4
			c0.6-1.2,1.5-1.9,2.6-2.5c1.2-0.6,2.3-1.2,3.5-1.6c0.1-0.1,0.3-0.1,0.4-0.3C-346-91.2-342.8-91.2-339.5-92.8z"/>
		<path class="st6" d="M-344.4-110.3c4.5,0,8.3,3.8,8.3,8.3s-3.8,8.3-8.3,8.3c-4.5,0-8.3-3.8-8.3-8.3S-349.1-110.3-344.4-110.3z"/>
	</g>
	<text transform="matrix(1 0 0 1 746.9819 444.8329)" class="st2 st3">Emerson, K. C.</text>
</g>
<g>
	<polygon class="st10" points="796,672.9 796,687.4 783.4,694.7 770.7,687.4 770.7,672.9 783.4,665.6 	"/>
	<text transform="matrix(1 0 0 1 797.9399 685.393)" class="st2 st3">Corvus brachyrhynchos Brehm, 1822</text>
</g>
<g>
	<rect x="755.2" y="616.6" class="st12" width="29.1" height="29.1"/>
	<text transform="matrix(1 0 0 1 784.3423 636.4243)" class="st2 st3">Has biological relationship with</text>
</g>
</svg>
