<?xml version="1.0" encoding="UTF-8" standalone="no"?>
<!DOCTYPE svg PUBLIC "-//W3C//DTD SVG 1.1//EN"
 "http://www.w3.org/Graphics/SVG/1.1/DTD/svg11.dtd">
<!-- Generated by graphviz version 2.50.0 (20211204.2007)
 -->
<!-- Title: AlternateValue Pages: 1 -->
<svg width="645pt" height="390pt"
 viewBox="0.00 0.00 644.56 390.00" xmlns="http://www.w3.org/2000/svg" xmlns:xlink="http://www.w3.org/1999/xlink">
<g id="graph0" class="graph" transform="scale(1 1) rotate(0) translate(4 386)">
<title>AlternateValue</title>
<polygon fill="white" stroke="transparent" points="-4,4 -4,-386 640.56,-386 640.56,4 -4,4"/>
<!-- AlternateValue&#45;&gt;PinboardItem -->
<g id="edge1" class="edge">
<title>AlternateValue&#45;&gt;PinboardItem</title>
<path fill="none" stroke="black" d="M83.37,-209.13C98.8,-242.5 132.73,-305.18 181.88,-337 204.64,-351.73 233.84,-358.65 258.98,-361.82"/>
<polygon fill="black" stroke="black" points="258.79,-365.32 269.11,-362.93 259.55,-358.36 258.79,-365.32"/>
</g>
<!-- AlternateValue&#45;&gt;Role -->
<g id="edge2" class="edge">
<title>AlternateValue&#45;&gt;Role</title>
<path fill="none" stroke="black" d="M92.59,-209.38C112.4,-231.61 145.78,-264.91 181.88,-283 212.08,-298.13 250.2,-304.78 277.68,-307.7"/>
<polygon fill="black" stroke="black" points="277.36,-311.19 287.65,-308.65 278.02,-304.22 277.36,-311.19"/>
</g>
<!-- AlternateValue&#45;&gt;VerifierRole -->
<g id="edge3" class="edge">
<title>AlternateValue&#45;&gt;VerifierRole</title>
<path fill="none" stroke="black" d="M120.93,-204.16C139.76,-210.76 161.73,-218.11 181.88,-224 208.51,-231.78 238.54,-239.17 263.21,-244.89"/>
<polygon fill="black" stroke="black" points="262.55,-248.33 273.08,-247.15 264.11,-241.5 262.55,-248.33"/>
</g>
<!-- AlternateValue&#45;&gt;Creator -->
<g id="edge6" class="edge">
<title>AlternateValue&#45;&gt;Creator</title>
<path fill="none" stroke="black" stroke-dasharray="5,2" d="M138.71,-204.43C216.38,-221.69 348.48,-239.22 447.56,-191 474.23,-178.02 493.01,-147.81 502.92,-128.18"/>
<polygon fill="black" stroke="black" points="139.11,-200.93 128.58,-202.11 137.55,-207.75 139.11,-200.93"/>
</g>
<!-- AlternateValue&#45;&gt;Language -->
<g id="edge7" class="edge">
<title>AlternateValue&#45;&gt;Language</title>
<path fill="none" stroke="black" stroke-dasharray="5,2" d="M155.9,-179.14C198.18,-175.08 247.47,-170.36 279.56,-167.28"/>
<polygon fill="black" stroke="black" points="155.5,-175.66 145.88,-180.1 156.17,-182.63 155.5,-175.66"/>
</g>
<!-- AlternateValue&#45;&gt;Project -->
<g id="edge8" class="edge">
<title>AlternateValue&#45;&gt;Project</title>
<path fill="none" stroke="black" stroke-dasharray="5,2" d="M120.23,-162.69C138.98,-153.61 161.07,-143.85 181.88,-137 217.39,-125.32 260.01,-117.69 286.99,-113.61"/>
<polygon fill="black" stroke="black" points="118.46,-159.65 111.04,-167.21 121.56,-165.93 118.46,-159.65"/>
</g>
<!-- AlternateValue&#45;&gt;Updater -->
<g id="edge9" class="edge">
<title>AlternateValue&#45;&gt;Updater</title>
<path fill="none" stroke="black" stroke-dasharray="5,2" d="M94.81,-156.7C114.09,-131.61 145.24,-97.78 181.88,-83 329.72,-23.37 384.23,-51.82 540.56,-83 552.66,-85.41 565.33,-90.13 576.24,-94.95"/>
<polygon fill="black" stroke="black" points="91.92,-154.72 88.74,-164.83 97.53,-158.91 91.92,-154.72"/>
</g>
<!-- AlternateValue&#45;&gt;Objects with Alternate values -->
<g id="edge5" class="edge">
<title>AlternateValue&#45;&gt;Objects with Alternate values</title>
<path fill="none" stroke="black" stroke-dasharray="5,2" d="M90.06,-156.14C108.16,-124.6 140.49,-76.58 181.88,-50 195.46,-41.28 211.21,-34.94 227,-30.32"/>
<polygon fill="black" stroke="black" points="86.96,-154.53 85.13,-164.96 93.06,-157.95 86.96,-154.53"/>
</g>
<!-- Role&#45;&gt;Verifier -->
<!-- VerifierRole&#45;&gt;Verifier -->
<g id="edge4" class="edge">
<title>VerifierRole&#45;&gt;Verifier</title>
<path fill="none" stroke="black" stroke-dasharray="1,5" d="M356.67,-261.66C390.99,-266.4 439.62,-273.13 473.08,-277.75"/>
<polygon fill="black" stroke="black" points="472.99,-281.27 483.37,-279.17 473.95,-274.34 472.99,-281.27"/>
</g>
<!-- Creator&#45;&gt;Updater -->
<!-- Project&#45;&gt;Creator -->
<!-- AlternateValue -->
<g id="node1" class="node">
<title>AlternateValue</title>
<g id="a_node1"><a xlink:href="/develop/Data/models.html#alternate-value" xlink:title="AlternateValue" target="_top">
<polygon fill="#cdefab" stroke="#dedede" points="141.83,-179.54 141.83,-194.46 101.48,-205 44.41,-205 4.05,-194.46 4.05,-179.54 44.41,-169 101.48,-169 141.83,-179.54"/>
<polygon fill="none" stroke="#dedede" points="145.83,-176.45 145.83,-197.55 101.99,-209 43.89,-209 0.06,-197.55 0.06,-176.45 43.89,-165 101.99,-165 145.83,-176.45"/>
<text text-anchor="middle" x="72.94" y="-183.3" font-family="Times,serif" font-size="14.00">AlternateValue</text>
</a>
</g>
</g>
<!-- PinboardItem -->
<g id="node2" class="node">
<title>PinboardItem</title>
<g id="a_node2"><a xlink:href="/develop/Data/models.html#pinboard-item" xlink:title="PinboardItem" target="_top">
<polygon fill="#eeefff" stroke="#dddeee" points="360.22,-382 269.22,-382 269.22,-346 360.22,-346 360.22,-382"/>
<text text-anchor="middle" x="314.72" y="-360.3" font-family="Times,serif" font-size="14.00">PinboardItem</text>
</a>
</g>
</g>
<!-- Role -->
<g id="node3" class="node">
<title>Role</title>
<g id="a_node3"><a xlink:href="/develop/Data/models.html#role" xlink:title="Role" target="_top">
<polygon fill="#eeefff" stroke="#dddeee" points="341.72,-328 287.72,-328 287.72,-292 341.72,-292 341.72,-328"/>
<text text-anchor="middle" x="314.72" y="-306.3" font-family="Times,serif" font-size="14.00">Role</text>
</a>
</g>
</g>
<!-- VerifierRole -->
<g id="node4" class="node">
<title>VerifierRole</title>
<g id="a_node4"><a xlink:href="/develop/Data/models.html#verifier-role" xlink:title="VerifierRole" target="_top">
<polygon fill="#eeefff" stroke="#dddeee" points="356.22,-274 273.22,-274 273.22,-238 356.22,-238 356.22,-274"/>
<text text-anchor="middle" x="314.72" y="-252.3" font-family="Times,serif" font-size="14.00">VerifierRole</text>
</a>
</g>
</g>
<!-- Verifier -->
<g id="node5" class="node">
<title>Verifier</title>
<g id="a_node5"><a xlink:href="/develop/Data/models.html#verifier" xlink:title="Verifier" target="_top">
<polygon fill="#eeefff" stroke="#dddeee" points="540.56,-301 483.56,-301 483.56,-265 540.56,-265 540.56,-301"/>
<text text-anchor="middle" x="512.06" y="-279.3" font-family="Times,serif" font-size="14.00">Verifier</text>
</a>
</g>
</g>
<!-- Creator -->
<g id="node6" class="node">
<title>Creator</title>
<g id="a_node6"><a xlink:href="/develop/Data/models.html#creator" xlink:title="Creator" target="_top">
<polygon fill="#eeefff" stroke="#dddeee" points="540.56,-128 483.56,-128 483.56,-92 540.56,-92 540.56,-128"/>
<text text-anchor="middle" x="512.06" y="-106.3" font-family="Times,serif" font-size="14.00">Creator</text>
</a>
</g>
</g>
<!-- Language -->
<g id="node7" class="node">
<title>Language</title>
<g id="a_node7"><a xlink:href="/develop/Data/models.html#language" xlink:title="Language" target="_top">
<polygon fill="#eeefff" stroke="#dddeee" points="349.72,-182 279.72,-182 279.72,-146 349.72,-146 349.72,-182"/>
<text text-anchor="middle" x="314.72" y="-160.3" font-family="Times,serif" font-size="14.00">Language</text>
</a>
</g>
</g>
<!-- Project -->
<g id="node8" class="node">
<title>Project</title>
<g id="a_node8"><a xlink:href="/develop/Data/models.html#project" xlink:title="Project" target="_top">
<polygon fill="#eeefff" stroke="#dddeee" points="342.22,-128 287.22,-128 287.22,-92 342.22,-92 342.22,-128"/>
<text text-anchor="middle" x="314.72" y="-106.3" font-family="Times,serif" font-size="14.00">Project</text>
</a>
</g>
</g>
<!-- Updater -->
<g id="node9" class="node">
<title>Updater</title>
<g id="a_node9"><a xlink:href="/develop/Data/models.html#updater" xlink:title="Updater" target="_top">
<polygon fill="#eeefff" stroke="#dddeee" points="636.56,-128 576.56,-128 576.56,-92 636.56,-92 636.56,-128"/>
<text text-anchor="middle" x="606.56" y="-106.3" font-family="Times,serif" font-size="14.00">Updater</text>
</a>
</g>
</g>
<!-- Objects with Alternate values -->
<g id="node10" class="node">
<title>Objects with Alternate values</title>
<g id="a_node10"><a xlink:href="/develop/Data/models.html#objects with alternate value" xlink:title="Objects with Alternate values" target="_top">
<polygon fill="#cdabef" stroke="#dedede" points="447.39,-18 381.06,-36 248.38,-36 182.05,-18 248.38,0 381.06,0 447.39,-18"/>
<text text-anchor="middle" x="314.72" y="-14.3" font-family="Times,serif" font-size="14.00">Objects with Alternate values</text>
</a>
</g>
</g>
</g>
</svg>
