<?xml version="1.0" encoding="UTF-8" standalone="no"?>
<!DOCTYPE svg PUBLIC "-//W3C//DTD SVG 1.1//EN"
 "http://www.w3.org/Graphics/SVG/1.1/DTD/svg11.dtd">
<!-- Generated by graphviz version 2.50.0 (20211204.2007)
 -->
<!-- Title: AlternateValue Pages: 1 -->
<svg width="667pt" height="428pt"
 viewBox="0.00 0.00 667.00 428.00" xmlns="http://www.w3.org/2000/svg" xmlns:xlink="http://www.w3.org/1999/xlink">
<g id="graph0" class="graph" transform="scale(1 1) rotate(0) translate(4 424)">
<title>AlternateValue</title>
<polygon fill="white" stroke="transparent" points="-4,4 -4,-424 663,-424 663,4 -4,4"/>
<text text-anchor="middle" x="329.5" y="-22.8" font-family="Times,serif" font-size="14.00">Algorithmically generated relationships for AlternateValue based on assertions of &#39;has_many&#39;, &#39;has_one&#39;, &#39;belongs_to&#39;. </text>
<text text-anchor="middle" x="329.5" y="-7.8" font-family="Times,serif" font-size="14.00">Generated 2022&#45;01&#45;25 11:37:09 &#45;0600.</text>
<!-- AlternateValue&#45;&gt;PinboardItem -->
<g id="edge1" class="edge">
<title>AlternateValue&#45;&gt;PinboardItem</title>
<path fill="none" stroke="black" d="M94.59,-247.13C110.02,-280.5 143.95,-343.18 193.11,-375 215.86,-389.73 245.07,-396.65 270.2,-399.82"/>
<polygon fill="black" stroke="black" points="270.01,-403.32 280.33,-400.93 270.77,-396.36 270.01,-403.32"/>
</g>
<!-- AlternateValue&#45;&gt;Role -->
<g id="edge2" class="edge">
<title>AlternateValue&#45;&gt;Role</title>
<path fill="none" stroke="black" d="M103.81,-247.38C123.62,-269.61 157.01,-302.91 193.11,-321 223.3,-336.13 261.42,-342.78 288.9,-345.7"/>
<polygon fill="black" stroke="black" points="288.58,-349.19 298.87,-346.65 289.24,-342.22 288.58,-349.19"/>
</g>
<!-- AlternateValue&#45;&gt;VerifierRole -->
<g id="edge3" class="edge">
<title>AlternateValue&#45;&gt;VerifierRole</title>
<path fill="none" stroke="black" d="M132.15,-242.16C150.98,-248.76 172.95,-256.11 193.11,-262 219.73,-269.78 249.76,-277.17 274.43,-282.89"/>
<polygon fill="black" stroke="black" points="273.77,-286.33 284.3,-285.15 275.33,-279.5 273.77,-286.33"/>
</g>
<!-- AlternateValue&#45;&gt;Creator -->
<g id="edge6" class="edge">
<title>AlternateValue&#45;&gt;Creator</title>
<path fill="none" stroke="black" stroke-dasharray="5,2" d="M149.93,-242.43C227.6,-259.69 359.7,-277.22 458.78,-229 485.45,-216.02 504.23,-185.81 514.14,-166.18"/>
<polygon fill="black" stroke="black" points="150.33,-238.93 139.81,-240.11 148.77,-245.75 150.33,-238.93"/>
</g>
<!-- AlternateValue&#45;&gt;Language -->
<g id="edge7" class="edge">
<title>AlternateValue&#45;&gt;Language</title>
<path fill="none" stroke="black" stroke-dasharray="5,2" d="M167.12,-217.14C209.4,-213.08 258.69,-208.36 290.78,-205.28"/>
<polygon fill="black" stroke="black" points="166.73,-213.66 157.11,-218.1 167.39,-220.63 166.73,-213.66"/>
</g>
<!-- AlternateValue&#45;&gt;Project -->
<g id="edge8" class="edge">
<title>AlternateValue&#45;&gt;Project</title>
<path fill="none" stroke="black" stroke-dasharray="5,2" d="M131.45,-200.69C150.2,-191.61 172.3,-181.85 193.11,-175 228.61,-163.32 271.24,-155.69 298.21,-151.61"/>
<polygon fill="black" stroke="black" points="129.69,-197.65 122.26,-205.21 132.78,-203.93 129.69,-197.65"/>
</g>
<!-- AlternateValue&#45;&gt;Updater -->
<g id="edge9" class="edge">
<title>AlternateValue&#45;&gt;Updater</title>
<path fill="none" stroke="black" stroke-dasharray="5,2" d="M106.03,-194.7C125.31,-169.61 156.46,-135.78 193.11,-121 340.94,-61.37 395.45,-89.82 551.78,-121 563.88,-123.41 576.55,-128.13 587.46,-132.95"/>
<polygon fill="black" stroke="black" points="103.14,-192.72 99.96,-202.83 108.75,-196.91 103.14,-192.72"/>
</g>
<!-- AlternateValue&#45;&gt;Objects with Alternate values -->
<g id="edge5" class="edge">
<title>AlternateValue&#45;&gt;Objects with Alternate values</title>
<path fill="none" stroke="black" stroke-dasharray="5,2" d="M101.29,-194.14C119.38,-162.6 151.71,-114.58 193.11,-88 206.68,-79.28 222.43,-72.94 238.22,-68.32"/>
<polygon fill="black" stroke="black" points="98.18,-192.53 96.35,-202.96 104.29,-195.95 98.18,-192.53"/>
</g>
<!-- Role&#45;&gt;Verifier -->
<!-- VerifierRole&#45;&gt;Verifier -->
<g id="edge4" class="edge">
<title>VerifierRole&#45;&gt;Verifier</title>
<path fill="none" stroke="black" d="M367.89,-299.66C402.21,-304.4 450.84,-311.13 484.3,-315.75"/>
<polygon fill="black" stroke="black" points="484.21,-319.27 494.59,-317.17 485.17,-312.34 484.21,-319.27"/>
</g>
<!-- Creator&#45;&gt;Updater -->
<!-- Project&#45;&gt;Creator -->
<!-- AlternateValue -->
<g id="node1" class="node">
<title>AlternateValue</title>
<g id="a_node1"><a xlink:href="/develop/Data/models.html#alternate-value" xlink:title="AlternateValue" target="_top">
<polygon fill="#cdefab" stroke="#dedede" points="153.05,-217.54 153.05,-232.46 112.7,-243 55.63,-243 15.28,-232.46 15.28,-217.54 55.63,-207 112.7,-207 153.05,-217.54"/>
<polygon fill="none" stroke="#dedede" points="157.05,-214.45 157.05,-235.55 113.21,-247 55.12,-247 11.28,-235.55 11.28,-214.45 55.12,-203 113.21,-203 157.05,-214.45"/>
<text text-anchor="middle" x="84.16" y="-221.3" font-family="Times,serif" font-size="14.00">AlternateValue</text>
</a>
</g>
</g>
<!-- PinboardItem -->
<g id="node2" class="node">
<title>PinboardItem</title>
<g id="a_node2"><a xlink:href="/develop/Data/models.html#pinboard-item" xlink:title="PinboardItem" target="_top">
<polygon fill="#eeefff" stroke="#dddeee" points="371.44,-420 280.44,-420 280.44,-384 371.44,-384 371.44,-420"/>
<text text-anchor="middle" x="325.94" y="-398.3" font-family="Times,serif" font-size="14.00">PinboardItem</text>
</a>
</g>
</g>
<!-- Role -->
<g id="node3" class="node">
<title>Role</title>
<g id="a_node3"><a xlink:href="/develop/Data/models.html#role" xlink:title="Role" target="_top">
<polygon fill="#eeefff" stroke="#dddeee" points="352.94,-366 298.94,-366 298.94,-330 352.94,-330 352.94,-366"/>
<text text-anchor="middle" x="325.94" y="-344.3" font-family="Times,serif" font-size="14.00">Role</text>
</a>
</g>
</g>
<!-- VerifierRole -->
<g id="node4" class="node">
<title>VerifierRole</title>
<g id="a_node4"><a xlink:href="/develop/Data/models.html#verifier-role" xlink:title="VerifierRole" target="_top">
<polygon fill="#eeefff" stroke="#dddeee" points="367.44,-312 284.44,-312 284.44,-276 367.44,-276 367.44,-312"/>
<text text-anchor="middle" x="325.94" y="-290.3" font-family="Times,serif" font-size="14.00">VerifierRole</text>
</a>
</g>
</g>
<!-- Verifier -->
<g id="node5" class="node">
<title>Verifier</title>
<g id="a_node5"><a xlink:href="/develop/Data/models.html#verifier" xlink:title="Verifier" target="_top">
<polygon fill="#eeefff" stroke="#dddeee" points="551.78,-339 494.78,-339 494.78,-303 551.78,-303 551.78,-339"/>
<text text-anchor="middle" x="523.28" y="-317.3" font-family="Times,serif" font-size="14.00">Verifier</text>
</a>
</g>
</g>
<!-- Creator -->
<g id="node6" class="node">
<title>Creator</title>
<g id="a_node6"><a xlink:href="/develop/Data/models.html#creator" xlink:title="Creator" target="_top">
<polygon fill="#eeefff" stroke="#dddeee" points="551.78,-166 494.78,-166 494.78,-130 551.78,-130 551.78,-166"/>
<text text-anchor="middle" x="523.28" y="-144.3" font-family="Times,serif" font-size="14.00">Creator</text>
</a>
</g>
</g>
<!-- Language -->
<g id="node7" class="node">
<title>Language</title>
<g id="a_node7"><a xlink:href="/develop/Data/models.html#language" xlink:title="Language" target="_top">
<polygon fill="#eeefff" stroke="#dddeee" points="360.94,-220 290.94,-220 290.94,-184 360.94,-184 360.94,-220"/>
<text text-anchor="middle" x="325.94" y="-198.3" font-family="Times,serif" font-size="14.00">Language</text>
</a>
</g>
</g>
<!-- Project -->
<g id="node8" class="node">
<title>Project</title>
<g id="a_node8"><a xlink:href="/develop/Data/models.html#project" xlink:title="Project" target="_top">
<polygon fill="#eeefff" stroke="#dddeee" points="353.44,-166 298.44,-166 298.44,-130 353.44,-130 353.44,-166"/>
<text text-anchor="middle" x="325.94" y="-144.3" font-family="Times,serif" font-size="14.00">Project</text>
</a>
</g>
</g>
<!-- Updater -->
<g id="node9" class="node">
<title>Updater</title>
<g id="a_node9"><a xlink:href="/develop/Data/models.html#updater" xlink:title="Updater" target="_top">
<polygon fill="#eeefff" stroke="#dddeee" points="647.78,-166 587.78,-166 587.78,-130 647.78,-130 647.78,-166"/>
<text text-anchor="middle" x="617.78" y="-144.3" font-family="Times,serif" font-size="14.00">Updater</text>
</a>
</g>
</g>
<!-- Objects with Alternate values -->
<g id="node10" class="node">
<title>Objects with Alternate values</title>
<g id="a_node10"><a xlink:href="/develop/Data/models.html#objects with alternate value" xlink:title="Objects with Alternate values" target="_top">
<polygon fill="#cdabef" stroke="#dedede" points="458.62,-56 392.28,-74 259.61,-74 193.27,-56 259.61,-38 392.28,-38 458.62,-56"/>
<text text-anchor="middle" x="325.94" y="-52.3" font-family="Times,serif" font-size="14.00">Objects with Alternate values</text>
</a>
</g>
</g>
</g>
</svg>
