<?xml version="1.0" encoding="UTF-8" standalone="no"?>
<!DOCTYPE svg PUBLIC "-//W3C//DTD SVG 1.1//EN"
 "http://www.w3.org/Graphics/SVG/1.1/DTD/svg11.dtd">
<!-- Generated by graphviz version 2.50.0 (20211204.2007)
 -->
<!-- Title: AssertedDistribution Pages: 1 -->
<svg width="857pt" height="817pt"
 viewBox="0.00 0.00 856.79 817.00" xmlns="http://www.w3.org/2000/svg" xmlns:xlink="http://www.w3.org/1999/xlink">
<g id="graph0" class="graph" transform="scale(1 1) rotate(0) translate(4 813)">
<title>AssertedDistribution</title>
<polygon fill="white" stroke="transparent" points="-4,4 -4,-813 852.79,-813 852.79,4 -4,4"/>
<!-- Citation&#45;&gt;Source -->
<g id="edge16" class="edge">
<title>Citation&#45;&gt;Source</title>
<path fill="none" stroke="black" d="M98.18,-736C171.32,-736 330.65,-736 402.44,-736"/>
<polygon fill="black" stroke="black" points="402.78,-739.5 412.78,-736 402.78,-732.5 402.78,-739.5"/>
</g>
<!-- Citation&#45;&gt;CitationTopic -->
<g id="edge1" class="edge">
<title>Citation&#45;&gt;CitationTopic</title>
<path fill="none" stroke="black" d="M92.45,-745.45C120.02,-753.53 160.28,-765.31 192.94,-774.87"/>
<polygon fill="black" stroke="black" points="192.23,-778.31 202.81,-777.76 194.2,-771.59 192.23,-778.31"/>
</g>
<!-- Confidence&#45;&gt;ConfidenceLevel -->
<g id="edge3" class="edge">
<title>Confidence&#45;&gt;ConfidenceLevel</title>
<path fill="none" stroke="black" d="M110,-362C132.74,-362 159.93,-362 184.15,-362"/>
<polygon fill="black" stroke="black" points="184.32,-365.5 194.32,-362 184.32,-358.5 184.32,-365.5"/>
</g>
<!-- Tag&#45;&gt;Keyword -->
<g id="edge8" class="edge">
<title>Tag&#45;&gt;Keyword</title>
<path fill="none" stroke="black" d="M86.27,-308C117.02,-308 168.51,-308 205.14,-308"/>
<polygon fill="black" stroke="black" points="205.52,-311.5 215.52,-308 205.52,-304.5 205.52,-311.5"/>
</g>
<!-- AssertedDistribution&#45;&gt;Citation -->
<g id="edge2" class="edge">
<title>AssertedDistribution&#45;&gt;Citation</title>
<path fill="none" stroke="black" d="M234.78,-442.31C200.98,-499.15 111.75,-649.21 75.64,-709.94"/>
<polygon fill="black" stroke="black" points="72.62,-708.18 70.51,-718.56 78.63,-711.75 72.62,-708.18"/>
</g>
<!-- AssertedDistribution&#45;&gt;Confidence -->
<g id="edge4" class="edge">
<title>AssertedDistribution&#45;&gt;Confidence</title>
<path fill="none" stroke="black" d="M190.08,-402.11C163.68,-393.96 132.82,-384.43 107.8,-376.71"/>
<polygon fill="black" stroke="black" points="108.76,-373.34 98.17,-373.74 106.69,-380.03 108.76,-373.34"/>
</g>
<!-- AssertedDistribution&#45;&gt;DataAttribute -->
<g id="edge5" class="edge">
<title>AssertedDistribution&#45;&gt;DataAttribute</title>
<path fill="none" stroke="black" d="M213.07,-442.06C187.26,-458.01 151.08,-479.71 118.29,-497 113.31,-499.63 108.02,-502.27 102.74,-504.82"/>
<polygon fill="black" stroke="black" points="100.86,-501.84 93.33,-509.29 103.86,-508.17 100.86,-501.84"/>
</g>
<!-- AssertedDistribution&#45;&gt;Identifier -->
<g id="edge7" class="edge">
<title>AssertedDistribution&#45;&gt;Identifier</title>
<path fill="none" stroke="black" d="M184.62,-436.88C158.74,-443.76 129.4,-451.57 105.71,-457.87"/>
<polygon fill="black" stroke="black" points="104.69,-454.52 95.93,-460.48 106.49,-461.29 104.69,-454.52"/>
</g>
<!-- AssertedDistribution&#45;&gt;Tag -->
<g id="edge19" class="edge">
<title>AssertedDistribution&#45;&gt;Tag</title>
<path fill="none" stroke="black" d="M180.74,-403.87C171.34,-399.91 162.2,-395.03 154.29,-389 131.35,-371.52 140.19,-353.77 118.29,-335 110.97,-328.72 101.94,-323.6 93.2,-319.57"/>
<polygon fill="black" stroke="black" points="94.5,-316.32 83.93,-315.63 91.76,-322.76 94.5,-316.32"/>
</g>
<!-- AssertedDistribution&#45;&gt;Note -->
<g id="edge9" class="edge">
<title>AssertedDistribution&#45;&gt;Note</title>
<path fill="none" stroke="black" d="M154.49,-418.01C134.36,-417.58 114.21,-417.15 97.73,-416.8"/>
<polygon fill="black" stroke="black" points="97.54,-413.3 87.47,-416.58 97.39,-420.29 97.54,-413.3"/>
</g>
<!-- AssertedDistribution&#45;&gt;Source -->
<g id="edge31" class="edge">
<title>AssertedDistribution&#45;&gt;Source</title>
<path fill="none" stroke="black" stroke-dasharray="1,5" d="M257.65,-451.96C272.53,-508.59 310.25,-627.66 379.79,-703 388.79,-712.75 401.34,-720.32 412.55,-725.74"/>
<polygon fill="black" stroke="black" points="261.01,-450.96 255.13,-442.14 254.22,-452.69 261.01,-450.96"/>
</g>
<!-- AssertedDistribution&#45;&gt;Otu -->
<g id="edge25" class="edge">
<title>AssertedDistribution&#45;&gt;Otu</title>
<path fill="none" stroke="black" stroke-dasharray="5,2" d="M353.69,-420C375.63,-420 396.88,-420 412.67,-420"/>
<polygon fill="black" stroke="black" points="353.59,-416.5 343.59,-420 353.59,-423.5 353.59,-416.5"/>
</g>
<!-- AssertedDistribution&#45;&gt;TaxonName -->
<g id="edge32" class="edge">
<title>AssertedDistribution&#45;&gt;TaxonName</title>
<path fill="none" stroke="black" stroke-dasharray="1,5" d="M319.91,-399.64C346.11,-392 375.02,-383.58 397.77,-376.95"/>
<polygon fill="black" stroke="black" points="318.64,-396.36 310.02,-402.52 320.6,-403.08 318.64,-396.36"/>
</g>
<!-- AssertedDistribution&#45;&gt;GeographicArea -->
<g id="edge24" class="edge">
<title>AssertedDistribution&#45;&gt;GeographicArea</title>
<path fill="none" stroke="black" stroke-dasharray="5,2" d="M329.04,-399.73C334.36,-396.65 339.35,-393.09 343.79,-389 373.96,-361.19 352.21,-334.37 379.79,-304 384.65,-298.65 390.61,-294.02 396.86,-290.06"/>
<polygon fill="black" stroke="black" points="327.12,-396.79 319.85,-404.5 330.34,-403.01 327.12,-396.79"/>
</g>
<!-- AssertedDistribution&#45;&gt;GeographicItem -->
<g id="edge29" class="edge">
<title>AssertedDistribution&#45;&gt;GeographicItem</title>
<path fill="none" stroke="black" stroke-dasharray="1,5" d="M326.4,-399.56C332.55,-396.5 338.44,-393 343.79,-389 366.3,-372.16 356.87,-353.27 379.79,-337 394.9,-326.27 499.12,-299.9 563.75,-284.25"/>
<polygon fill="black" stroke="black" points="324.89,-396.41 317.25,-403.74 327.8,-402.77 324.89,-396.41"/>
</g>
<!-- AssertedDistribution&#45;&gt;RelatedOriginRelationship -->
<g id="edge14" class="edge">
<title>AssertedDistribution&#45;&gt;RelatedOriginRelationship</title>
<path fill="none" stroke="black" d="M323.08,-404.89C330.88,-400.8 338.05,-395.6 343.79,-389 402.47,-321.5 311.12,-248.31 379.79,-191 433.48,-146.19 519.65,-172.76 571.53,-195.7"/>
<polygon fill="black" stroke="black" points="570.25,-198.96 580.8,-199.92 573.15,-192.59 570.25,-198.96"/>
</g>
<!-- AssertedDistribution&#45;&gt;OriginRelationship -->
<g id="edge11" class="edge">
<title>AssertedDistribution&#45;&gt;OriginRelationship</title>
<path fill="none" stroke="black" d="M322.2,-404.76C330.26,-400.69 337.73,-395.53 343.79,-389 388.67,-340.65 337.63,-295.74 379.79,-245 380.4,-244.26 381.04,-243.54 381.7,-242.84"/>
<polygon fill="black" stroke="black" points="384.29,-245.23 389.53,-236.03 379.69,-239.95 384.29,-245.23"/>
</g>
<!-- AssertedDistribution&#45;&gt;PinboardItem -->
<g id="edge13" class="edge">
<title>AssertedDistribution&#45;&gt;PinboardItem</title>
<path fill="none" stroke="black" d="M323.24,-405.03C331.02,-400.91 338.14,-395.67 343.79,-389 410.97,-309.73 319.91,-242.91 379.79,-158 381.7,-155.29 383.92,-152.78 386.36,-150.47"/>
<polygon fill="black" stroke="black" points="388.64,-153.12 394.2,-144.11 384.23,-147.69 388.64,-153.12"/>
</g>
<!-- AssertedDistribution&#45;&gt;Role -->
<g id="edge15" class="edge">
<title>AssertedDistribution&#45;&gt;Role</title>
<path fill="none" stroke="black" d="M324.02,-405.06C331.56,-400.93 338.42,-395.68 343.79,-389 440.2,-269.26 290.1,-169.85 379.79,-45 385.55,-36.99 394.27,-31.3 403.25,-27.28"/>
<polygon fill="black" stroke="black" points="404.53,-30.54 412.6,-23.67 402.01,-24.01 404.53,-30.54"/>
</g>
<!-- AssertedDistribution&#45;&gt;SubsequentCitation -->
<g id="edge17" class="edge">
<title>AssertedDistribution&#45;&gt;SubsequentCitation</title>
<path fill="none" stroke="black" d="M255.6,-442.14C268.72,-489.78 306.2,-602.51 379.79,-662 405.3,-682.62 485.49,-703.07 545.25,-716.07"/>
<polygon fill="black" stroke="black" points="544.52,-719.49 555.03,-718.17 545.99,-712.65 544.52,-719.49"/>
</g>
<!-- AssertedDistribution&#45;&gt;VerifierRole -->
<g id="edge21" class="edge">
<title>AssertedDistribution&#45;&gt;VerifierRole</title>
<path fill="none" stroke="black" d="M323.44,-405.2C331.18,-401.05 338.24,-395.76 343.79,-389 426.21,-288.62 303,-203.75 379.79,-99 382.49,-95.32 385.8,-92.13 389.48,-89.37"/>
<polygon fill="black" stroke="black" points="391.42,-92.28 397.99,-83.98 387.67,-86.37 391.42,-92.28"/>
</g>
<!-- AssertedDistribution&#45;&gt;Creator -->
<g id="edge23" class="edge">
<title>AssertedDistribution&#45;&gt;Creator</title>
<path fill="none" stroke="black" stroke-dasharray="5,2" d="M329.8,-437.86C390.91,-452.14 469.69,-472.01 499.79,-486 535.55,-502.62 572.01,-530.37 594.15,-548.68"/>
<polygon fill="black" stroke="black" points="330.31,-434.38 319.77,-435.53 328.72,-441.2 330.31,-434.38"/>
</g>
<!-- AssertedDistribution&#45;&gt;Project -->
<g id="edge26" class="edge">
<title>AssertedDistribution&#45;&gt;Project</title>
<path fill="none" stroke="black" stroke-dasharray="5,2" d="M276.78,-449.59C301.6,-475.79 340.52,-513.83 379.79,-540 389.82,-546.68 401.77,-552.5 412.29,-557"/>
<polygon fill="black" stroke="black" points="279.25,-447.1 269.86,-442.2 274.14,-451.89 279.25,-447.1"/>
</g>
<!-- AssertedDistribution&#45;&gt;Updater -->
<g id="edge27" class="edge">
<title>AssertedDistribution&#45;&gt;Updater</title>
<path fill="none" stroke="black" stroke-dasharray="5,2" d="M262.65,-451.39C281.25,-492.88 320.39,-564.2 379.79,-594 509.06,-658.86 690.74,-604.05 760.73,-578.44"/>
<polygon fill="black" stroke="black" points="265.78,-449.79 258.57,-442.02 259.36,-452.59 265.78,-449.79"/>
</g>
<!-- AssertedDistribution&#45;&gt;DwcOccurrence -->
<g id="edge28" class="edge">
<title>AssertedDistribution&#45;&gt;DwcOccurrence</title>
<path fill="none" stroke="black" stroke-dasharray="1,5" d="M302.03,-445.61C333.81,-461.28 373.69,-480.93 402.17,-494.96"/>
<polygon fill="black" stroke="black" points="303.39,-442.38 292.87,-441.1 300.29,-448.66 303.39,-442.38"/>
</g>
<!-- AssertedDistribution&#45;&gt;OriginCitation -->
<g id="edge30" class="edge">
<title>AssertedDistribution&#45;&gt;OriginCitation</title>
<path fill="none" stroke="black" stroke-dasharray="1,5" d="M260.5,-451.64C277.61,-498.09 316.17,-583.87 379.79,-627 436.55,-665.48 517.98,-672.22 568.69,-672.15"/>
<polygon fill="black" stroke="black" points="263.75,-450.32 257.08,-442.09 257.16,-452.68 263.75,-450.32"/>
</g>
<!-- Source&#45;&gt;SubsequentCitation -->
<!-- Source&#45;&gt;OriginCitation -->
<!-- CitationTopic&#45;&gt;Topic -->
<g id="edge20" class="edge">
<title>CitationTopic&#45;&gt;Topic</title>
<path fill="none" stroke="black" d="M295.25,-791C328.03,-791 371.79,-791 402.34,-791"/>
<polygon fill="black" stroke="black" points="402.56,-794.5 412.56,-791 402.56,-787.5 402.56,-794.5"/>
</g>
<!-- GeographicArea&#45;&gt;GeographicItem -->
<g id="edge6" class="edge">
<title>GeographicArea&#45;&gt;GeographicItem</title>
<path fill="none" stroke="black" d="M493.15,-272C512.12,-272 533.74,-272 553.46,-272"/>
<polygon fill="black" stroke="black" points="553.57,-275.5 563.57,-272 553.57,-268.5 553.57,-275.5"/>
</g>
<!-- RelatedOriginRelationship&#45;&gt;OriginLot -->
<g id="edge10" class="edge">
<title>RelatedOriginRelationship&#45;&gt;OriginLot</title>
<path fill="none" stroke="black" d="M696.98,-205.53C713.46,-202.95 730.26,-200.32 744.96,-198.02"/>
<polygon fill="black" stroke="black" points="745.91,-201.41 755.25,-196.41 744.83,-194.49 745.91,-201.41"/>
</g>
<!-- RelatedOriginRelationship&#45;&gt;OriginSpecimen -->
<g id="edge12" class="edge">
<title>RelatedOriginRelationship&#45;&gt;OriginSpecimen</title>
<path fill="none" stroke="black" d="M696.98,-230.47C707.2,-232.07 717.54,-233.69 727.43,-235.24"/>
<polygon fill="black" stroke="black" points="727.13,-238.73 737.55,-236.82 728.21,-231.82 727.13,-238.73"/>
</g>
<!-- OriginRelationship&#45;&gt;RelatedOriginRelationship -->
<!-- Role&#45;&gt;Verifier -->
<!-- SubsequentCitation&#45;&gt;SubsequentSource -->
<g id="edge18" class="edge">
<title>SubsequentCitation&#45;&gt;SubsequentSource</title>
<path fill="none" stroke="black" d="M677.62,-730C692.15,-730 707.75,-730 722.57,-730"/>
<polygon fill="black" stroke="black" points="722.68,-733.5 732.68,-730 722.68,-726.5 722.68,-733.5"/>
</g>
<!-- VerifierRole&#45;&gt;Verifier -->
<g id="edge22" class="edge">
<title>VerifierRole&#45;&gt;Verifier</title>
<path fill="none" stroke="black" d="M481.7,-65.67C510.77,-61.17 549.51,-55.18 577.78,-50.8"/>
<polygon fill="black" stroke="black" points="578.34,-54.26 587.69,-49.27 577.27,-47.34 578.34,-54.26"/>
</g>
<!-- Creator&#45;&gt;Updater -->
<!-- Project&#45;&gt;Creator -->
<!-- Citation -->
<g id="node1" class="node">
<title>Citation</title>
<g id="a_node1"><a xlink:href="/develop/Data/models.html#citation" xlink:title="Citation" target="_top">
<ellipse fill="#abcdef" stroke="#dddeee" cx="59.14" cy="-736" rx="38.99" ry="18"/>
<text text-anchor="middle" x="59.14" y="-732.3" font-family="Times,serif" font-size="14.00">Citation</text>
</a>
</g>
</g>
<!-- Confidence -->
<g id="node2" class="node">
<title>Confidence</title>
<g id="a_node2"><a xlink:href="/develop/Data/models.html#confidence" xlink:title="Confidence" target="_top">
<ellipse fill="#abcdef" stroke="#dddeee" cx="59.14" cy="-362" rx="50.89" ry="18"/>
<text text-anchor="middle" x="59.14" y="-358.3" font-family="Times,serif" font-size="14.00">Confidence</text>
</a>
</g>
</g>
<!-- DataAttribute -->
<g id="node3" class="node">
<title>DataAttribute</title>
<g id="a_node3"><a xlink:href="/develop/Data/models.html#data-attribute" xlink:title="DataAttribute" target="_top">
<ellipse fill="#abcdef" stroke="#dddeee" cx="59.14" cy="-524" rx="59.29" ry="18"/>
<text text-anchor="middle" x="59.14" y="-520.3" font-family="Times,serif" font-size="14.00">DataAttribute</text>
</a>
</g>
</g>
<!-- Identifier -->
<g id="node4" class="node">
<title>Identifier</title>
<g id="a_node4"><a xlink:href="/develop/Data/models.html#identifier" xlink:title="Identifier" target="_top">
<ellipse fill="#abcdef" stroke="#dddeee" cx="59.14" cy="-470" rx="42.79" ry="18"/>
<text text-anchor="middle" x="59.14" y="-466.3" font-family="Times,serif" font-size="14.00">Identifier</text>
</a>
</g>
</g>
<!-- Tag -->
<g id="node5" class="node">
<title>Tag</title>
<g id="a_node5"><a xlink:href="/develop/Data/models.html#tag" xlink:title="Tag" target="_top">
<ellipse fill="#abcdef" stroke="#dddeee" cx="59.14" cy="-308" rx="27" ry="18"/>
<text text-anchor="middle" x="59.14" y="-304.3" font-family="Times,serif" font-size="14.00">Tag</text>
</a>
</g>
</g>
<!-- Note -->
<g id="node6" class="node">
<title>Note</title>
<g id="a_node6"><a xlink:href="/develop/Data/models.html#note" xlink:title="Note" target="_top">
<ellipse fill="#abcdef" stroke="#dddeee" cx="59.14" cy="-416" rx="27.9" ry="18"/>
<text text-anchor="middle" x="59.14" y="-412.3" font-family="Times,serif" font-size="14.00">Note</text>
</a>
</g>
</g>
<!-- AssertedDistribution -->
<g id="node7" class="node">
<title>AssertedDistribution</title>
<g id="a_node7"><a xlink:href="/develop/Data/models.html#asserted-distribution" xlink:title="AssertedDistribution" target="_top">
<polygon fill="#cdefab" stroke="#dedede" points="339.55,-412.54 339.55,-427.46 286.53,-438 211.55,-438 158.53,-427.46 158.53,-412.54 211.55,-402 286.53,-402 339.55,-412.54"/>
<polygon fill="none" stroke="#dedede" points="343.54,-409.26 343.54,-430.74 286.92,-442 211.16,-442 154.54,-430.74 154.54,-409.26 211.16,-398 286.92,-398 343.54,-409.26"/>
<text text-anchor="middle" x="249.04" y="-416.3" font-family="Times,serif" font-size="14.00">AssertedDistribution</text>
</a>
</g>
</g>
<!-- Source -->
<g id="node8" class="node">
<title>Source</title>
<g id="a_node8"><a xlink:href="/develop/Data/models.html#source" xlink:title="Source" target="_top">
<path fill="#fedcba" stroke="#dddeee" d="M424.79,-718C424.79,-718 454.79,-718 454.79,-718 460.79,-718 466.79,-724 466.79,-730 466.79,-730 466.79,-742 466.79,-742 466.79,-748 460.79,-754 454.79,-754 454.79,-754 424.79,-754 424.79,-754 418.79,-754 412.79,-748 412.79,-742 412.79,-742 412.79,-730 412.79,-730 412.79,-724 418.79,-718 424.79,-718"/>
<text text-anchor="middle" x="439.79" y="-732.3" font-family="Times,serif" font-size="14.00">Source</text>
</a>
</g>
</g>
<!-- Otu -->
<g id="node9" class="node">
<title>Otu</title>
<g id="a_node9"><a xlink:href="/develop/Data/models.html#otu" xlink:title="Otu" target="_top">
<path fill="#fedcba" stroke="#dddeee" d="M424.79,-402C424.79,-402 454.79,-402 454.79,-402 460.79,-402 466.79,-408 466.79,-414 466.79,-414 466.79,-426 466.79,-426 466.79,-432 460.79,-438 454.79,-438 454.79,-438 424.79,-438 424.79,-438 418.79,-438 412.79,-432 412.79,-426 412.79,-426 412.79,-414 412.79,-414 412.79,-408 418.79,-402 424.79,-402"/>
<text text-anchor="middle" x="439.79" y="-416.3" font-family="Times,serif" font-size="14.00">Otu</text>
</a>
</g>
</g>
<!-- TaxonName -->
<g id="node10" class="node">
<title>TaxonName</title>
<g id="a_node10"><a xlink:href="/develop/Data/models.html#taxon-name" xlink:title="TaxonName" target="_top">
<path fill="#fedcba" stroke="#dddeee" d="M409.79,-347C409.79,-347 469.79,-347 469.79,-347 475.79,-347 481.79,-353 481.79,-359 481.79,-359 481.79,-371 481.79,-371 481.79,-377 475.79,-383 469.79,-383 469.79,-383 409.79,-383 409.79,-383 403.79,-383 397.79,-377 397.79,-371 397.79,-371 397.79,-359 397.79,-359 397.79,-353 403.79,-347 409.79,-347"/>
<text text-anchor="middle" x="439.79" y="-361.3" font-family="Times,serif" font-size="14.00">TaxonName</text>
</a>
</g>
</g>
<!-- CitationTopic -->
<g id="node11" class="node">
<title>CitationTopic</title>
<g id="a_node11"><a xlink:href="/develop/Data/models.html#citation-topic" xlink:title="CitationTopic" target="_top">
<polygon fill="#eeefff" stroke="#dddeee" points="295.04,-809 203.04,-809 203.04,-773 295.04,-773 295.04,-809"/>
<text text-anchor="middle" x="249.04" y="-787.3" font-family="Times,serif" font-size="14.00">CitationTopic</text>
</a>
</g>
</g>
<!-- ConfidenceLevel -->
<g id="node12" class="node">
<title>ConfidenceLevel</title>
<g id="a_node12"><a xlink:href="/develop/Data/models.html#confidence-level" xlink:title="ConfidenceLevel" target="_top">
<polygon fill="#eeefff" stroke="#dddeee" points="303.54,-380 194.54,-380 194.54,-344 303.54,-344 303.54,-380"/>
<text text-anchor="middle" x="249.04" y="-358.3" font-family="Times,serif" font-size="14.00">ConfidenceLevel</text>
</a>
</g>
</g>
<!-- GeographicArea -->
<g id="node13" class="node">
<title>GeographicArea</title>
<g id="a_node13"><a xlink:href="/develop/Data/models.html#geographic-area" xlink:title="GeographicArea" target="_top">
<polygon fill="#eeefff" stroke="#dddeee" points="492.79,-290 386.79,-290 386.79,-254 492.79,-254 492.79,-290"/>
<text text-anchor="middle" x="439.79" y="-268.3" font-family="Times,serif" font-size="14.00">GeographicArea</text>
</a>
</g>
</g>
<!-- GeographicItem -->
<g id="node14" class="node">
<title>GeographicItem</title>
<g id="a_node14"><a xlink:href="/develop/Data/models.html#geographic-item" xlink:title="GeographicItem" target="_top">
<polygon fill="#eeefff" stroke="#dddeee" points="668.79,-290 563.79,-290 563.79,-254 668.79,-254 668.79,-290"/>
<text text-anchor="middle" x="616.29" y="-268.3" font-family="Times,serif" font-size="14.00">GeographicItem</text>
</a>
</g>
</g>
<!-- Keyword -->
<g id="node15" class="node">
<title>Keyword</title>
<g id="a_node15"><a xlink:href="/develop/Data/models.html#keyword" xlink:title="Keyword" target="_top">
<polygon fill="#eeefff" stroke="#dddeee" points="282.54,-326 215.54,-326 215.54,-290 282.54,-290 282.54,-326"/>
<text text-anchor="middle" x="249.04" y="-304.3" font-family="Times,serif" font-size="14.00">Keyword</text>
</a>
</g>
</g>
<!-- RelatedOriginRelationship -->
<g id="node16" class="node">
<title>RelatedOriginRelationship</title>
<g id="a_node16"><a xlink:href="/develop/Data/models.html#related-origin-relationship" xlink:title="RelatedOriginRelationship" target="_top">
<polygon fill="#eeefff" stroke="#dddeee" points="696.79,-236 535.79,-236 535.79,-200 696.79,-200 696.79,-236"/>
<text text-anchor="middle" x="616.29" y="-214.3" font-family="Times,serif" font-size="14.00">RelatedOriginRelationship</text>
</a>
</g>
</g>
<!-- OriginLot -->
<g id="node17" class="node">
<title>OriginLot</title>
<g id="a_node17"><a xlink:href="/develop/Data/models.html#origin-lot" xlink:title="OriginLot" target="_top">
<polygon fill="#eeefff" stroke="#dddeee" points="826.29,-209 755.29,-209 755.29,-173 826.29,-173 826.29,-209"/>
<text text-anchor="middle" x="790.79" y="-187.3" font-family="Times,serif" font-size="14.00">OriginLot</text>
</a>
</g>
</g>
<!-- OriginRelationship -->
<g id="node18" class="node">
<title>OriginRelationship</title>
<g id="a_node18"><a xlink:href="/develop/Data/models.html#origin-relationship" xlink:title="OriginRelationship" target="_top">
<polygon fill="#eeefff" stroke="#dddeee" points="499.79,-236 379.79,-236 379.79,-200 499.79,-200 499.79,-236"/>
<text text-anchor="middle" x="439.79" y="-214.3" font-family="Times,serif" font-size="14.00">OriginRelationship</text>
</a>
</g>
</g>
<!-- OriginSpecimen -->
<g id="node19" class="node">
<title>OriginSpecimen</title>
<g id="a_node19"><a xlink:href="/develop/Data/models.html#origin-specimen" xlink:title="OriginSpecimen" target="_top">
<polygon fill="#eeefff" stroke="#dddeee" points="843.79,-263 737.79,-263 737.79,-227 843.79,-227 843.79,-263"/>
<text text-anchor="middle" x="790.79" y="-241.3" font-family="Times,serif" font-size="14.00">OriginSpecimen</text>
</a>
</g>
</g>
<!-- PinboardItem -->
<g id="node20" class="node">
<title>PinboardItem</title>
<g id="a_node20"><a xlink:href="/develop/Data/models.html#pinboard-item" xlink:title="PinboardItem" target="_top">
<polygon fill="#eeefff" stroke="#dddeee" points="485.29,-144 394.29,-144 394.29,-108 485.29,-108 485.29,-144"/>
<text text-anchor="middle" x="439.79" y="-122.3" font-family="Times,serif" font-size="14.00">PinboardItem</text>
</a>
</g>
</g>
<!-- Role -->
<g id="node21" class="node">
<title>Role</title>
<g id="a_node21"><a xlink:href="/develop/Data/models.html#role" xlink:title="Role" target="_top">
<polygon fill="#eeefff" stroke="#dddeee" points="466.79,-36 412.79,-36 412.79,0 466.79,0 466.79,-36"/>
<text text-anchor="middle" x="439.79" y="-14.3" font-family="Times,serif" font-size="14.00">Role</text>
</a>
</g>
</g>
<!-- SubsequentCitation -->
<g id="node22" class="node">
<title>SubsequentCitation</title>
<g id="a_node22"><a xlink:href="/develop/Data/models.html#subsequent-citation" xlink:title="SubsequentCitation" target="_top">
<polygon fill="#eeefff" stroke="#dddeee" points="677.29,-748 555.29,-748 555.29,-712 677.29,-712 677.29,-748"/>
<text text-anchor="middle" x="616.29" y="-726.3" font-family="Times,serif" font-size="14.00">SubsequentCitation</text>
</a>
</g>
</g>
<!-- SubsequentSource -->
<g id="node23" class="node">
<title>SubsequentSource</title>
<g id="a_node23"><a xlink:href="/develop/Data/models.html#subsequent-source" xlink:title="SubsequentSource" target="_top">
<polygon fill="#eeefff" stroke="#dddeee" points="848.79,-748 732.79,-748 732.79,-712 848.79,-712 848.79,-748"/>
<text text-anchor="middle" x="790.79" y="-726.3" font-family="Times,serif" font-size="14.00">SubsequentSource</text>
</a>
</g>
</g>
<!-- Topic -->
<g id="node24" class="node">
<title>Topic</title>
<g id="a_node24"><a xlink:href="/develop/Data/models.html#topic" xlink:title="Topic" target="_top">
<polygon fill="#eeefff" stroke="#dddeee" points="466.79,-809 412.79,-809 412.79,-773 466.79,-773 466.79,-809"/>
<text text-anchor="middle" x="439.79" y="-787.3" font-family="Times,serif" font-size="14.00">Topic</text>
</a>
</g>
</g>
<!-- VerifierRole -->
<g id="node25" class="node">
<title>VerifierRole</title>
<g id="a_node25"><a xlink:href="/develop/Data/models.html#verifier-role" xlink:title="VerifierRole" target="_top">
<polygon fill="#eeefff" stroke="#dddeee" points="481.29,-90 398.29,-90 398.29,-54 481.29,-54 481.29,-90"/>
<text text-anchor="middle" x="439.79" y="-68.3" font-family="Times,serif" font-size="14.00">VerifierRole</text>
</a>
</g>
</g>
<!-- Verifier -->
<g id="node26" class="node">
<title>Verifier</title>
<g id="a_node26"><a xlink:href="/develop/Data/models.html#verifier" xlink:title="Verifier" target="_top">
<polygon fill="#eeefff" stroke="#dddeee" points="644.79,-63 587.79,-63 587.79,-27 644.79,-27 644.79,-63"/>
<text text-anchor="middle" x="616.29" y="-41.3" font-family="Times,serif" font-size="14.00">Verifier</text>
</a>
</g>
</g>
<!-- Creator -->
<g id="node27" class="node">
<title>Creator</title>
<g id="a_node27"><a xlink:href="/develop/Data/models.html#creator" xlink:title="Creator" target="_top">
<polygon fill="#eeefff" stroke="#dddeee" points="644.79,-585 587.79,-585 587.79,-549 644.79,-549 644.79,-585"/>
<text text-anchor="middle" x="616.29" y="-563.3" font-family="Times,serif" font-size="14.00">Creator</text>
</a>
</g>
</g>
<!-- Project -->
<g id="node28" class="node">
<title>Project</title>
<g id="a_node28"><a xlink:href="/develop/Data/models.html#project" xlink:title="Project" target="_top">
<polygon fill="#eeefff" stroke="#dddeee" points="467.29,-585 412.29,-585 412.29,-549 467.29,-549 467.29,-585"/>
<text text-anchor="middle" x="439.79" y="-563.3" font-family="Times,serif" font-size="14.00">Project</text>
</a>
</g>
</g>
<!-- Updater -->
<g id="node29" class="node">
<title>Updater</title>
<g id="a_node29"><a xlink:href="/develop/Data/models.html#updater" xlink:title="Updater" target="_top">
<polygon fill="#eeefff" stroke="#dddeee" points="820.79,-585 760.79,-585 760.79,-549 820.79,-549 820.79,-585"/>
<text text-anchor="middle" x="790.79" y="-563.3" font-family="Times,serif" font-size="14.00">Updater</text>
</a>
</g>
</g>
<!-- DwcOccurrence -->
<g id="node30" class="node">
<title>DwcOccurrence</title>
<g id="a_node30"><a xlink:href="/develop/Data/models.html#dwc-occurrence" xlink:title="DwcOccurrence" target="_top">
<polygon fill="#eeefff" stroke="#dddeee" points="491.79,-531 387.79,-531 387.79,-495 491.79,-495 491.79,-531"/>
<text text-anchor="middle" x="439.79" y="-509.3" font-family="Times,serif" font-size="14.00">DwcOccurrence</text>
</a>
</g>
</g>
<!-- OriginCitation -->
<g id="node31" class="node">
<title>OriginCitation</title>
<g id="a_node31"><a xlink:href="/develop/Data/models.html#origin-citation" xlink:title="OriginCitation" target="_top">
<polygon fill="#eeefff" stroke="#dddeee" points="663.79,-688 568.79,-688 568.79,-652 663.79,-652 663.79,-688"/>
<text text-anchor="middle" x="616.29" y="-666.3" font-family="Times,serif" font-size="14.00">OriginCitation</text>
</a>
</g>
</g>
</g>
</svg>
