<?xml version="1.0" encoding="UTF-8" standalone="no"?>
<!DOCTYPE svg PUBLIC "-//W3C//DTD SVG 1.1//EN"
 "http://www.w3.org/Graphics/SVG/1.1/DTD/svg11.dtd">
<!-- Generated by graphviz version 2.50.0 (20211204.2007)
 -->
<!-- Title: AssertedDistribution Pages: 1 -->
<svg width="857pt" height="855pt"
 viewBox="0.00 0.00 856.79 855.00" xmlns="http://www.w3.org/2000/svg" xmlns:xlink="http://www.w3.org/1999/xlink">
<g id="graph0" class="graph" transform="scale(1 1) rotate(0) translate(4 851)">
<title>AssertedDistribution</title>
<polygon fill="white" stroke="transparent" points="-4,4 -4,-851 852.79,-851 852.79,4 -4,4"/>
<text text-anchor="middle" x="424.4" y="-22.8" font-family="Times,serif" font-size="14.00">Algorithmically generated relationships for AssertedDistribution based on assertions of &#39;has_many&#39;, &#39;has_one&#39;, &#39;belongs_to&#39;. </text>
<text text-anchor="middle" x="424.4" y="-7.8" font-family="Times,serif" font-size="14.00">Generated 2022&#45;01&#45;25 11:37:10 &#45;0600.</text>
<!-- Citation&#45;&gt;Source -->
<g id="edge16" class="edge">
<title>Citation&#45;&gt;Source</title>
<path fill="none" stroke="black" d="M98.18,-774C171.32,-774 330.65,-774 402.44,-774"/>
<polygon fill="black" stroke="black" points="402.78,-777.5 412.78,-774 402.78,-770.5 402.78,-777.5"/>
</g>
<!-- Citation&#45;&gt;CitationTopic -->
<g id="edge1" class="edge">
<title>Citation&#45;&gt;CitationTopic</title>
<path fill="none" stroke="black" d="M92.45,-783.45C120.02,-791.53 160.28,-803.31 192.94,-812.87"/>
<polygon fill="black" stroke="black" points="192.23,-816.31 202.81,-815.76 194.2,-809.59 192.23,-816.31"/>
</g>
<!-- Confidence&#45;&gt;ConfidenceLevel -->
<g id="edge3" class="edge">
<title>Confidence&#45;&gt;ConfidenceLevel</title>
<path fill="none" stroke="black" d="M110,-400C132.74,-400 159.93,-400 184.15,-400"/>
<polygon fill="black" stroke="black" points="184.32,-403.5 194.32,-400 184.32,-396.5 184.32,-403.5"/>
</g>
<!-- Tag&#45;&gt;Keyword -->
<g id="edge8" class="edge">
<title>Tag&#45;&gt;Keyword</title>
<path fill="none" stroke="black" d="M86.27,-346C117.02,-346 168.51,-346 205.14,-346"/>
<polygon fill="black" stroke="black" points="205.52,-349.5 215.52,-346 205.52,-342.5 205.52,-349.5"/>
</g>
<!-- AssertedDistribution&#45;&gt;Citation -->
<g id="edge2" class="edge">
<title>AssertedDistribution&#45;&gt;Citation</title>
<path fill="none" stroke="black" d="M234.78,-480.31C200.98,-537.15 111.75,-687.21 75.64,-747.94"/>
<polygon fill="black" stroke="black" points="72.62,-746.18 70.51,-756.56 78.63,-749.75 72.62,-746.18"/>
</g>
<!-- AssertedDistribution&#45;&gt;Confidence -->
<g id="edge4" class="edge">
<title>AssertedDistribution&#45;&gt;Confidence</title>
<path fill="none" stroke="black" d="M190.08,-440.11C163.68,-431.96 132.82,-422.43 107.8,-414.71"/>
<polygon fill="black" stroke="black" points="108.76,-411.34 98.17,-411.74 106.69,-418.03 108.76,-411.34"/>
</g>
<!-- AssertedDistribution&#45;&gt;DataAttribute -->
<g id="edge5" class="edge">
<title>AssertedDistribution&#45;&gt;DataAttribute</title>
<path fill="none" stroke="black" d="M213.07,-480.06C187.26,-496.01 151.08,-517.71 118.29,-535 113.31,-537.63 108.02,-540.27 102.74,-542.82"/>
<polygon fill="black" stroke="black" points="100.86,-539.84 93.33,-547.29 103.86,-546.17 100.86,-539.84"/>
</g>
<!-- AssertedDistribution&#45;&gt;Identifier -->
<g id="edge7" class="edge">
<title>AssertedDistribution&#45;&gt;Identifier</title>
<path fill="none" stroke="black" d="M184.62,-474.88C158.74,-481.76 129.4,-489.57 105.71,-495.87"/>
<polygon fill="black" stroke="black" points="104.69,-492.52 95.93,-498.48 106.49,-499.29 104.69,-492.52"/>
</g>
<!-- AssertedDistribution&#45;&gt;Tag -->
<g id="edge19" class="edge">
<title>AssertedDistribution&#45;&gt;Tag</title>
<path fill="none" stroke="black" d="M180.74,-441.87C171.34,-437.91 162.2,-433.03 154.29,-427 131.35,-409.52 140.19,-391.77 118.29,-373 110.97,-366.72 101.94,-361.6 93.2,-357.57"/>
<polygon fill="black" stroke="black" points="94.5,-354.32 83.93,-353.63 91.76,-360.76 94.5,-354.32"/>
</g>
<!-- AssertedDistribution&#45;&gt;Note -->
<g id="edge9" class="edge">
<title>AssertedDistribution&#45;&gt;Note</title>
<path fill="none" stroke="black" d="M154.49,-456.01C134.36,-455.58 114.21,-455.15 97.73,-454.8"/>
<polygon fill="black" stroke="black" points="97.54,-451.3 87.47,-454.58 97.39,-458.29 97.54,-451.3"/>
</g>
<!-- AssertedDistribution&#45;&gt;Source -->
<g id="edge31" class="edge">
<title>AssertedDistribution&#45;&gt;Source</title>
<path fill="none" stroke="black" stroke-dasharray="1,5" d="M257.65,-489.96C272.53,-546.59 310.25,-665.66 379.79,-741 388.79,-750.75 401.34,-758.32 412.55,-763.74"/>
<polygon fill="black" stroke="black" points="261.01,-488.96 255.13,-480.14 254.22,-490.69 261.01,-488.96"/>
</g>
<!-- AssertedDistribution&#45;&gt;Otu -->
<g id="edge25" class="edge">
<title>AssertedDistribution&#45;&gt;Otu</title>
<path fill="none" stroke="black" stroke-dasharray="5,2" d="M353.69,-458C375.63,-458 396.88,-458 412.67,-458"/>
<polygon fill="black" stroke="black" points="353.59,-454.5 343.59,-458 353.59,-461.5 353.59,-454.5"/>
</g>
<!-- AssertedDistribution&#45;&gt;TaxonName -->
<g id="edge32" class="edge">
<title>AssertedDistribution&#45;&gt;TaxonName</title>
<path fill="none" stroke="black" stroke-dasharray="1,5" d="M319.91,-437.64C346.11,-430 375.02,-421.58 397.77,-414.95"/>
<polygon fill="black" stroke="black" points="318.64,-434.36 310.02,-440.52 320.6,-441.08 318.64,-434.36"/>
</g>
<!-- AssertedDistribution&#45;&gt;GeographicArea -->
<g id="edge24" class="edge">
<title>AssertedDistribution&#45;&gt;GeographicArea</title>
<path fill="none" stroke="black" stroke-dasharray="5,2" d="M329.04,-437.73C334.36,-434.65 339.35,-431.09 343.79,-427 373.96,-399.19 352.21,-372.37 379.79,-342 384.65,-336.65 390.61,-332.02 396.86,-328.06"/>
<polygon fill="black" stroke="black" points="327.12,-434.79 319.85,-442.5 330.34,-441.01 327.12,-434.79"/>
</g>
<!-- AssertedDistribution&#45;&gt;GeographicItem -->
<g id="edge29" class="edge">
<title>AssertedDistribution&#45;&gt;GeographicItem</title>
<path fill="none" stroke="black" stroke-dasharray="1,5" d="M326.4,-437.56C332.55,-434.5 338.44,-431 343.79,-427 366.3,-410.16 356.87,-391.27 379.79,-375 394.9,-364.27 499.12,-337.9 563.75,-322.25"/>
<polygon fill="black" stroke="black" points="324.89,-434.41 317.25,-441.74 327.8,-440.77 324.89,-434.41"/>
</g>
<!-- AssertedDistribution&#45;&gt;RelatedOriginRelationship -->
<g id="edge14" class="edge">
<title>AssertedDistribution&#45;&gt;RelatedOriginRelationship</title>
<path fill="none" stroke="black" d="M323.08,-442.89C330.88,-438.8 338.05,-433.6 343.79,-427 402.47,-359.5 311.12,-286.31 379.79,-229 433.48,-184.19 519.65,-210.76 571.53,-233.7"/>
<polygon fill="black" stroke="black" points="570.25,-236.96 580.8,-237.92 573.15,-230.59 570.25,-236.96"/>
</g>
<!-- AssertedDistribution&#45;&gt;OriginRelationship -->
<g id="edge11" class="edge">
<title>AssertedDistribution&#45;&gt;OriginRelationship</title>
<path fill="none" stroke="black" d="M322.2,-442.76C330.26,-438.69 337.73,-433.53 343.79,-427 388.67,-378.65 337.63,-333.74 379.79,-283 380.4,-282.26 381.04,-281.54 381.7,-280.84"/>
<polygon fill="black" stroke="black" points="384.29,-283.23 389.53,-274.03 379.69,-277.95 384.29,-283.23"/>
</g>
<!-- AssertedDistribution&#45;&gt;PinboardItem -->
<g id="edge13" class="edge">
<title>AssertedDistribution&#45;&gt;PinboardItem</title>
<path fill="none" stroke="black" d="M323.24,-443.03C331.02,-438.91 338.14,-433.67 343.79,-427 410.97,-347.73 319.91,-280.91 379.79,-196 381.7,-193.29 383.92,-190.78 386.36,-188.47"/>
<polygon fill="black" stroke="black" points="388.64,-191.12 394.2,-182.11 384.23,-185.69 388.64,-191.12"/>
</g>
<!-- AssertedDistribution&#45;&gt;Role -->
<g id="edge15" class="edge">
<title>AssertedDistribution&#45;&gt;Role</title>
<path fill="none" stroke="black" d="M324.02,-443.06C331.56,-438.93 338.42,-433.68 343.79,-427 440.2,-307.26 290.1,-207.85 379.79,-83 385.55,-74.99 394.27,-69.3 403.25,-65.28"/>
<polygon fill="black" stroke="black" points="404.53,-68.54 412.6,-61.67 402.01,-62.01 404.53,-68.54"/>
</g>
<!-- AssertedDistribution&#45;&gt;SubsequentCitation -->
<g id="edge17" class="edge">
<title>AssertedDistribution&#45;&gt;SubsequentCitation</title>
<path fill="none" stroke="black" d="M255.6,-480.14C268.72,-527.78 306.2,-640.51 379.79,-700 405.3,-720.62 485.49,-741.07 545.25,-754.07"/>
<polygon fill="black" stroke="black" points="544.52,-757.49 555.03,-756.17 545.99,-750.65 544.52,-757.49"/>
</g>
<!-- AssertedDistribution&#45;&gt;VerifierRole -->
<g id="edge21" class="edge">
<title>AssertedDistribution&#45;&gt;VerifierRole</title>
<path fill="none" stroke="black" d="M323.44,-443.2C331.18,-439.05 338.24,-433.76 343.79,-427 426.21,-326.62 303,-241.75 379.79,-137 382.49,-133.32 385.8,-130.13 389.48,-127.37"/>
<polygon fill="black" stroke="black" points="391.42,-130.28 397.99,-121.98 387.67,-124.37 391.42,-130.28"/>
</g>
<!-- AssertedDistribution&#45;&gt;Creator -->
<g id="edge23" class="edge">
<title>AssertedDistribution&#45;&gt;Creator</title>
<path fill="none" stroke="black" stroke-dasharray="5,2" d="M329.8,-475.86C390.91,-490.14 469.69,-510.01 499.79,-524 535.55,-540.62 572.01,-568.37 594.15,-586.68"/>
<polygon fill="black" stroke="black" points="330.31,-472.38 319.77,-473.53 328.72,-479.2 330.31,-472.38"/>
</g>
<!-- AssertedDistribution&#45;&gt;Project -->
<g id="edge26" class="edge">
<title>AssertedDistribution&#45;&gt;Project</title>
<path fill="none" stroke="black" stroke-dasharray="5,2" d="M276.78,-487.59C301.6,-513.79 340.52,-551.83 379.79,-578 389.82,-584.68 401.77,-590.5 412.29,-595"/>
<polygon fill="black" stroke="black" points="279.25,-485.1 269.86,-480.2 274.14,-489.89 279.25,-485.1"/>
</g>
<!-- AssertedDistribution&#45;&gt;Updater -->
<g id="edge27" class="edge">
<title>AssertedDistribution&#45;&gt;Updater</title>
<path fill="none" stroke="black" stroke-dasharray="5,2" d="M262.65,-489.39C281.25,-530.88 320.39,-602.2 379.79,-632 509.06,-696.86 690.74,-642.05 760.73,-616.44"/>
<polygon fill="black" stroke="black" points="265.78,-487.79 258.57,-480.02 259.36,-490.59 265.78,-487.79"/>
</g>
<!-- AssertedDistribution&#45;&gt;DwcOccurrence -->
<g id="edge28" class="edge">
<title>AssertedDistribution&#45;&gt;DwcOccurrence</title>
<path fill="none" stroke="black" stroke-dasharray="1,5" d="M302.03,-483.61C333.81,-499.28 373.69,-518.93 402.17,-532.96"/>
<polygon fill="black" stroke="black" points="303.39,-480.38 292.87,-479.1 300.29,-486.66 303.39,-480.38"/>
</g>
<!-- AssertedDistribution&#45;&gt;OriginCitation -->
<g id="edge30" class="edge">
<title>AssertedDistribution&#45;&gt;OriginCitation</title>
<path fill="none" stroke="black" stroke-dasharray="1,5" d="M260.5,-489.64C277.61,-536.09 316.17,-621.87 379.79,-665 436.55,-703.48 517.98,-710.22 568.69,-710.15"/>
<polygon fill="black" stroke="black" points="263.75,-488.32 257.08,-480.09 257.16,-490.68 263.75,-488.32"/>
</g>
<!-- Source&#45;&gt;SubsequentCitation -->
<!-- Source&#45;&gt;OriginCitation -->
<!-- CitationTopic&#45;&gt;Topic -->
<g id="edge20" class="edge">
<title>CitationTopic&#45;&gt;Topic</title>
<path fill="none" stroke="black" d="M295.25,-829C328.03,-829 371.79,-829 402.34,-829"/>
<polygon fill="black" stroke="black" points="402.56,-832.5 412.56,-829 402.56,-825.5 402.56,-832.5"/>
</g>
<!-- GeographicArea&#45;&gt;GeographicItem -->
<g id="edge6" class="edge">
<title>GeographicArea&#45;&gt;GeographicItem</title>
<path fill="none" stroke="black" d="M493.15,-310C512.12,-310 533.74,-310 553.46,-310"/>
<polygon fill="black" stroke="black" points="553.57,-313.5 563.57,-310 553.57,-306.5 553.57,-313.5"/>
</g>
<!-- RelatedOriginRelationship&#45;&gt;OriginLot -->
<g id="edge10" class="edge">
<title>RelatedOriginRelationship&#45;&gt;OriginLot</title>
<path fill="none" stroke="black" d="M696.98,-243.53C713.46,-240.95 730.26,-238.32 744.96,-236.02"/>
<polygon fill="black" stroke="black" points="745.91,-239.41 755.25,-234.41 744.83,-232.49 745.91,-239.41"/>
</g>
<!-- RelatedOriginRelationship&#45;&gt;OriginSpecimen -->
<g id="edge12" class="edge">
<title>RelatedOriginRelationship&#45;&gt;OriginSpecimen</title>
<path fill="none" stroke="black" d="M696.98,-268.47C707.2,-270.07 717.54,-271.69 727.43,-273.24"/>
<polygon fill="black" stroke="black" points="727.13,-276.73 737.55,-274.82 728.21,-269.82 727.13,-276.73"/>
</g>
<!-- OriginRelationship&#45;&gt;RelatedOriginRelationship -->
<!-- Role&#45;&gt;Verifier -->
<!-- SubsequentCitation&#45;&gt;SubsequentSource -->
<g id="edge18" class="edge">
<title>SubsequentCitation&#45;&gt;SubsequentSource</title>
<path fill="none" stroke="black" d="M677.62,-768C692.15,-768 707.75,-768 722.57,-768"/>
<polygon fill="black" stroke="black" points="722.68,-771.5 732.68,-768 722.68,-764.5 722.68,-771.5"/>
</g>
<!-- VerifierRole&#45;&gt;Verifier -->
<g id="edge22" class="edge">
<title>VerifierRole&#45;&gt;Verifier</title>
<path fill="none" stroke="black" d="M481.7,-103.67C510.77,-99.17 549.51,-93.18 577.78,-88.8"/>
<polygon fill="black" stroke="black" points="578.34,-92.26 587.69,-87.27 577.27,-85.34 578.34,-92.26"/>
</g>
<!-- Creator&#45;&gt;Updater -->
<!-- Project&#45;&gt;Creator -->
<!-- Citation -->
<g id="node1" class="node">
<title>Citation</title>
<g id="a_node1"><a xlink:href="/develop/Data/models.html#citation" xlink:title="Citation" target="_top">
<ellipse fill="#abcdef" stroke="#dddeee" cx="59.14" cy="-774" rx="38.99" ry="18"/>
<text text-anchor="middle" x="59.14" y="-770.3" font-family="Times,serif" font-size="14.00">Citation</text>
</a>
</g>
</g>
<!-- Confidence -->
<g id="node2" class="node">
<title>Confidence</title>
<g id="a_node2"><a xlink:href="/develop/Data/models.html#confidence" xlink:title="Confidence" target="_top">
<ellipse fill="#abcdef" stroke="#dddeee" cx="59.14" cy="-400" rx="50.89" ry="18"/>
<text text-anchor="middle" x="59.14" y="-396.3" font-family="Times,serif" font-size="14.00">Confidence</text>
</a>
</g>
</g>
<!-- DataAttribute -->
<g id="node3" class="node">
<title>DataAttribute</title>
<g id="a_node3"><a xlink:href="/develop/Data/models.html#data-attribute" xlink:title="DataAttribute" target="_top">
<ellipse fill="#abcdef" stroke="#dddeee" cx="59.14" cy="-562" rx="59.29" ry="18"/>
<text text-anchor="middle" x="59.14" y="-558.3" font-family="Times,serif" font-size="14.00">DataAttribute</text>
</a>
</g>
</g>
<!-- Identifier -->
<g id="node4" class="node">
<title>Identifier</title>
<g id="a_node4"><a xlink:href="/develop/Data/models.html#identifier" xlink:title="Identifier" target="_top">
<ellipse fill="#abcdef" stroke="#dddeee" cx="59.14" cy="-508" rx="42.79" ry="18"/>
<text text-anchor="middle" x="59.14" y="-504.3" font-family="Times,serif" font-size="14.00">Identifier</text>
</a>
</g>
</g>
<!-- Tag -->
<g id="node5" class="node">
<title>Tag</title>
<g id="a_node5"><a xlink:href="/develop/Data/models.html#tag" xlink:title="Tag" target="_top">
<ellipse fill="#abcdef" stroke="#dddeee" cx="59.14" cy="-346" rx="27" ry="18"/>
<text text-anchor="middle" x="59.14" y="-342.3" font-family="Times,serif" font-size="14.00">Tag</text>
</a>
</g>
</g>
<!-- Note -->
<g id="node6" class="node">
<title>Note</title>
<g id="a_node6"><a xlink:href="/develop/Data/models.html#note" xlink:title="Note" target="_top">
<ellipse fill="#abcdef" stroke="#dddeee" cx="59.14" cy="-454" rx="27.9" ry="18"/>
<text text-anchor="middle" x="59.14" y="-450.3" font-family="Times,serif" font-size="14.00">Note</text>
</a>
</g>
</g>
<!-- AssertedDistribution -->
<g id="node7" class="node">
<title>AssertedDistribution</title>
<g id="a_node7"><a xlink:href="/develop/Data/models.html#asserted-distribution" xlink:title="AssertedDistribution" target="_top">
<polygon fill="#cdefab" stroke="#dedede" points="339.55,-450.54 339.55,-465.46 286.53,-476 211.55,-476 158.53,-465.46 158.53,-450.54 211.55,-440 286.53,-440 339.55,-450.54"/>
<polygon fill="none" stroke="#dedede" points="343.54,-447.26 343.54,-468.74 286.92,-480 211.16,-480 154.54,-468.74 154.54,-447.26 211.16,-436 286.92,-436 343.54,-447.26"/>
<text text-anchor="middle" x="249.04" y="-454.3" font-family="Times,serif" font-size="14.00">AssertedDistribution</text>
</a>
</g>
</g>
<!-- Source -->
<g id="node8" class="node">
<title>Source</title>
<g id="a_node8"><a xlink:href="/develop/Data/models.html#source" xlink:title="Source" target="_top">
<path fill="#fedcba" stroke="#dddeee" d="M424.79,-756C424.79,-756 454.79,-756 454.79,-756 460.79,-756 466.79,-762 466.79,-768 466.79,-768 466.79,-780 466.79,-780 466.79,-786 460.79,-792 454.79,-792 454.79,-792 424.79,-792 424.79,-792 418.79,-792 412.79,-786 412.79,-780 412.79,-780 412.79,-768 412.79,-768 412.79,-762 418.79,-756 424.79,-756"/>
<text text-anchor="middle" x="439.79" y="-770.3" font-family="Times,serif" font-size="14.00">Source</text>
</a>
</g>
</g>
<!-- Otu -->
<g id="node9" class="node">
<title>Otu</title>
<g id="a_node9"><a xlink:href="/develop/Data/models.html#otu" xlink:title="Otu" target="_top">
<path fill="#fedcba" stroke="#dddeee" d="M424.79,-440C424.79,-440 454.79,-440 454.79,-440 460.79,-440 466.79,-446 466.79,-452 466.79,-452 466.79,-464 466.79,-464 466.79,-470 460.79,-476 454.79,-476 454.79,-476 424.79,-476 424.79,-476 418.79,-476 412.79,-470 412.79,-464 412.79,-464 412.79,-452 412.79,-452 412.79,-446 418.79,-440 424.79,-440"/>
<text text-anchor="middle" x="439.79" y="-454.3" font-family="Times,serif" font-size="14.00">Otu</text>
</a>
</g>
</g>
<!-- TaxonName -->
<g id="node10" class="node">
<title>TaxonName</title>
<g id="a_node10"><a xlink:href="/develop/Data/models.html#taxon-name" xlink:title="TaxonName" target="_top">
<path fill="#fedcba" stroke="#dddeee" d="M409.79,-385C409.79,-385 469.79,-385 469.79,-385 475.79,-385 481.79,-391 481.79,-397 481.79,-397 481.79,-409 481.79,-409 481.79,-415 475.79,-421 469.79,-421 469.79,-421 409.79,-421 409.79,-421 403.79,-421 397.79,-415 397.79,-409 397.79,-409 397.79,-397 397.79,-397 397.79,-391 403.79,-385 409.79,-385"/>
<text text-anchor="middle" x="439.79" y="-399.3" font-family="Times,serif" font-size="14.00">TaxonName</text>
</a>
</g>
</g>
<!-- CitationTopic -->
<g id="node11" class="node">
<title>CitationTopic</title>
<g id="a_node11"><a xlink:href="/develop/Data/models.html#citation-topic" xlink:title="CitationTopic" target="_top">
<polygon fill="#eeefff" stroke="#dddeee" points="295.04,-847 203.04,-847 203.04,-811 295.04,-811 295.04,-847"/>
<text text-anchor="middle" x="249.04" y="-825.3" font-family="Times,serif" font-size="14.00">CitationTopic</text>
</a>
</g>
</g>
<!-- ConfidenceLevel -->
<g id="node12" class="node">
<title>ConfidenceLevel</title>
<g id="a_node12"><a xlink:href="/develop/Data/models.html#confidence-level" xlink:title="ConfidenceLevel" target="_top">
<polygon fill="#eeefff" stroke="#dddeee" points="303.54,-418 194.54,-418 194.54,-382 303.54,-382 303.54,-418"/>
<text text-anchor="middle" x="249.04" y="-396.3" font-family="Times,serif" font-size="14.00">ConfidenceLevel</text>
</a>
</g>
</g>
<!-- GeographicArea -->
<g id="node13" class="node">
<title>GeographicArea</title>
<g id="a_node13"><a xlink:href="/develop/Data/models.html#geographic-area" xlink:title="GeographicArea" target="_top">
<polygon fill="#eeefff" stroke="#dddeee" points="492.79,-328 386.79,-328 386.79,-292 492.79,-292 492.79,-328"/>
<text text-anchor="middle" x="439.79" y="-306.3" font-family="Times,serif" font-size="14.00">GeographicArea</text>
</a>
</g>
</g>
<!-- GeographicItem -->
<g id="node14" class="node">
<title>GeographicItem</title>
<g id="a_node14"><a xlink:href="/develop/Data/models.html#geographic-item" xlink:title="GeographicItem" target="_top">
<polygon fill="#eeefff" stroke="#dddeee" points="668.79,-328 563.79,-328 563.79,-292 668.79,-292 668.79,-328"/>
<text text-anchor="middle" x="616.29" y="-306.3" font-family="Times,serif" font-size="14.00">GeographicItem</text>
</a>
</g>
</g>
<!-- Keyword -->
<g id="node15" class="node">
<title>Keyword</title>
<g id="a_node15"><a xlink:href="/develop/Data/models.html#keyword" xlink:title="Keyword" target="_top">
<polygon fill="#eeefff" stroke="#dddeee" points="282.54,-364 215.54,-364 215.54,-328 282.54,-328 282.54,-364"/>
<text text-anchor="middle" x="249.04" y="-342.3" font-family="Times,serif" font-size="14.00">Keyword</text>
</a>
</g>
</g>
<!-- RelatedOriginRelationship -->
<g id="node16" class="node">
<title>RelatedOriginRelationship</title>
<g id="a_node16"><a xlink:href="/develop/Data/models.html#related-origin-relationship" xlink:title="RelatedOriginRelationship" target="_top">
<polygon fill="#eeefff" stroke="#dddeee" points="696.79,-274 535.79,-274 535.79,-238 696.79,-238 696.79,-274"/>
<text text-anchor="middle" x="616.29" y="-252.3" font-family="Times,serif" font-size="14.00">RelatedOriginRelationship</text>
</a>
</g>
</g>
<!-- OriginLot -->
<g id="node17" class="node">
<title>OriginLot</title>
<g id="a_node17"><a xlink:href="/develop/Data/models.html#origin-lot" xlink:title="OriginLot" target="_top">
<polygon fill="#eeefff" stroke="#dddeee" points="826.29,-247 755.29,-247 755.29,-211 826.29,-211 826.29,-247"/>
<text text-anchor="middle" x="790.79" y="-225.3" font-family="Times,serif" font-size="14.00">OriginLot</text>
</a>
</g>
</g>
<!-- OriginRelationship -->
<g id="node18" class="node">
<title>OriginRelationship</title>
<g id="a_node18"><a xlink:href="/develop/Data/models.html#origin-relationship" xlink:title="OriginRelationship" target="_top">
<polygon fill="#eeefff" stroke="#dddeee" points="499.79,-274 379.79,-274 379.79,-238 499.79,-238 499.79,-274"/>
<text text-anchor="middle" x="439.79" y="-252.3" font-family="Times,serif" font-size="14.00">OriginRelationship</text>
</a>
</g>
</g>
<!-- OriginSpecimen -->
<g id="node19" class="node">
<title>OriginSpecimen</title>
<g id="a_node19"><a xlink:href="/develop/Data/models.html#origin-specimen" xlink:title="OriginSpecimen" target="_top">
<polygon fill="#eeefff" stroke="#dddeee" points="843.79,-301 737.79,-301 737.79,-265 843.79,-265 843.79,-301"/>
<text text-anchor="middle" x="790.79" y="-279.3" font-family="Times,serif" font-size="14.00">OriginSpecimen</text>
</a>
</g>
</g>
<!-- PinboardItem -->
<g id="node20" class="node">
<title>PinboardItem</title>
<g id="a_node20"><a xlink:href="/develop/Data/models.html#pinboard-item" xlink:title="PinboardItem" target="_top">
<polygon fill="#eeefff" stroke="#dddeee" points="485.29,-182 394.29,-182 394.29,-146 485.29,-146 485.29,-182"/>
<text text-anchor="middle" x="439.79" y="-160.3" font-family="Times,serif" font-size="14.00">PinboardItem</text>
</a>
</g>
</g>
<!-- Role -->
<g id="node21" class="node">
<title>Role</title>
<g id="a_node21"><a xlink:href="/develop/Data/models.html#role" xlink:title="Role" target="_top">
<polygon fill="#eeefff" stroke="#dddeee" points="466.79,-74 412.79,-74 412.79,-38 466.79,-38 466.79,-74"/>
<text text-anchor="middle" x="439.79" y="-52.3" font-family="Times,serif" font-size="14.00">Role</text>
</a>
</g>
</g>
<!-- SubsequentCitation -->
<g id="node22" class="node">
<title>SubsequentCitation</title>
<g id="a_node22"><a xlink:href="/develop/Data/models.html#subsequent-citation" xlink:title="SubsequentCitation" target="_top">
<polygon fill="#eeefff" stroke="#dddeee" points="677.29,-786 555.29,-786 555.29,-750 677.29,-750 677.29,-786"/>
<text text-anchor="middle" x="616.29" y="-764.3" font-family="Times,serif" font-size="14.00">SubsequentCitation</text>
</a>
</g>
</g>
<!-- SubsequentSource -->
<g id="node23" class="node">
<title>SubsequentSource</title>
<g id="a_node23"><a xlink:href="/develop/Data/models.html#subsequent-source" xlink:title="SubsequentSource" target="_top">
<polygon fill="#eeefff" stroke="#dddeee" points="848.79,-786 732.79,-786 732.79,-750 848.79,-750 848.79,-786"/>
<text text-anchor="middle" x="790.79" y="-764.3" font-family="Times,serif" font-size="14.00">SubsequentSource</text>
</a>
</g>
</g>
<!-- Topic -->
<g id="node24" class="node">
<title>Topic</title>
<g id="a_node24"><a xlink:href="/develop/Data/models.html#topic" xlink:title="Topic" target="_top">
<polygon fill="#eeefff" stroke="#dddeee" points="466.79,-847 412.79,-847 412.79,-811 466.79,-811 466.79,-847"/>
<text text-anchor="middle" x="439.79" y="-825.3" font-family="Times,serif" font-size="14.00">Topic</text>
</a>
</g>
</g>
<!-- VerifierRole -->
<g id="node25" class="node">
<title>VerifierRole</title>
<g id="a_node25"><a xlink:href="/develop/Data/models.html#verifier-role" xlink:title="VerifierRole" target="_top">
<polygon fill="#eeefff" stroke="#dddeee" points="481.29,-128 398.29,-128 398.29,-92 481.29,-92 481.29,-128"/>
<text text-anchor="middle" x="439.79" y="-106.3" font-family="Times,serif" font-size="14.00">VerifierRole</text>
</a>
</g>
</g>
<!-- Verifier -->
<g id="node26" class="node">
<title>Verifier</title>
<g id="a_node26"><a xlink:href="/develop/Data/models.html#verifier" xlink:title="Verifier" target="_top">
<polygon fill="#eeefff" stroke="#dddeee" points="644.79,-101 587.79,-101 587.79,-65 644.79,-65 644.79,-101"/>
<text text-anchor="middle" x="616.29" y="-79.3" font-family="Times,serif" font-size="14.00">Verifier</text>
</a>
</g>
</g>
<!-- Creator -->
<g id="node27" class="node">
<title>Creator</title>
<g id="a_node27"><a xlink:href="/develop/Data/models.html#creator" xlink:title="Creator" target="_top">
<polygon fill="#eeefff" stroke="#dddeee" points="644.79,-623 587.79,-623 587.79,-587 644.79,-587 644.79,-623"/>
<text text-anchor="middle" x="616.29" y="-601.3" font-family="Times,serif" font-size="14.00">Creator</text>
</a>
</g>
</g>
<!-- Project -->
<g id="node28" class="node">
<title>Project</title>
<g id="a_node28"><a xlink:href="/develop/Data/models.html#project" xlink:title="Project" target="_top">
<polygon fill="#eeefff" stroke="#dddeee" points="467.29,-623 412.29,-623 412.29,-587 467.29,-587 467.29,-623"/>
<text text-anchor="middle" x="439.79" y="-601.3" font-family="Times,serif" font-size="14.00">Project</text>
</a>
</g>
</g>
<!-- Updater -->
<g id="node29" class="node">
<title>Updater</title>
<g id="a_node29"><a xlink:href="/develop/Data/models.html#updater" xlink:title="Updater" target="_top">
<polygon fill="#eeefff" stroke="#dddeee" points="820.79,-623 760.79,-623 760.79,-587 820.79,-587 820.79,-623"/>
<text text-anchor="middle" x="790.79" y="-601.3" font-family="Times,serif" font-size="14.00">Updater</text>
</a>
</g>
</g>
<!-- DwcOccurrence -->
<g id="node30" class="node">
<title>DwcOccurrence</title>
<g id="a_node30"><a xlink:href="/develop/Data/models.html#dwc-occurrence" xlink:title="DwcOccurrence" target="_top">
<polygon fill="#eeefff" stroke="#dddeee" points="491.79,-569 387.79,-569 387.79,-533 491.79,-533 491.79,-569"/>
<text text-anchor="middle" x="439.79" y="-547.3" font-family="Times,serif" font-size="14.00">DwcOccurrence</text>
</a>
</g>
</g>
<!-- OriginCitation -->
<g id="node31" class="node">
<title>OriginCitation</title>
<g id="a_node31"><a xlink:href="/develop/Data/models.html#origin-citation" xlink:title="OriginCitation" target="_top">
<polygon fill="#eeefff" stroke="#dddeee" points="663.79,-726 568.79,-726 568.79,-690 663.79,-690 663.79,-726"/>
<text text-anchor="middle" x="616.29" y="-704.3" font-family="Times,serif" font-size="14.00">OriginCitation</text>
</a>
</g>
</g>
</g>
</svg>
