<?xml version="1.0" encoding="UTF-8" standalone="no"?>
<!DOCTYPE svg PUBLIC "-//W3C//DTD SVG 1.1//EN"
 "http://www.w3.org/Graphics/SVG/1.1/DTD/svg11.dtd">
<!-- Generated by graphviz version 2.50.0 (20211204.2007)
 -->
<!-- Title: Attribution Pages: 1 -->
<svg width="720pt" height="742pt"
 viewBox="0.00 0.00 720.21 742.28" xmlns="http://www.w3.org/2000/svg" xmlns:xlink="http://www.w3.org/1999/xlink">
<g id="graph0" class="graph" transform="scale(1 1) rotate(0) translate(4 738.28)">
<title>Attribution</title>
<polygon fill="white" stroke="transparent" points="-4,4 -4,-738.28 716.21,-738.28 716.21,4 -4,4"/>
<text text-anchor="middle" x="356.1" y="-22.8" font-family="Times,serif" font-size="14.00">Algorithmically generated relationships for Attribution based on assertions of &#39;has_many&#39;, &#39;has_one&#39;, &#39;belongs_to&#39;. </text>
<text text-anchor="middle" x="356.1" y="-7.8" font-family="Times,serif" font-size="14.00">Generated 2022&#45;01&#45;25 11:37:05 &#45;0600.</text>
<!-- Attribution&#45;&gt;Confidence -->
<g id="edge6" class="edge">
<title>Attribution&#45;&gt;Confidence</title>
<path fill="none" stroke="black" d="M39.32,-349.46C27.64,-343.49 16.52,-335.25 9.72,-324 -4.65,-300.23 -1.27,-224.51 9.72,-199 18.49,-178.65 36.15,-161.37 52.26,-148.84"/>
<polygon fill="black" stroke="black" points="54.54,-151.5 60.49,-142.73 50.37,-145.88 54.54,-151.5"/>
</g>
<!-- Attribution&#45;&gt;Tag -->
<g id="edge15" class="edge">
<title>Attribution&#45;&gt;Tag</title>
<path fill="none" stroke="black" d="M39.32,-349.46C27.64,-343.49 16.52,-335.25 9.72,-324 -9.92,-291.5 28.24,-255.99 57.3,-235.15"/>
<polygon fill="black" stroke="black" points="59.34,-238 65.58,-229.43 55.36,-232.24 59.34,-238"/>
</g>
<!-- Attribution&#45;&gt;Note -->
<g id="edge11" class="edge">
<title>Attribution&#45;&gt;Note</title>
<path fill="none" stroke="black" d="M85.89,-341.88C85.89,-339.38 85.89,-336.89 85.89,-334.39"/>
<polygon fill="black" stroke="black" points="89.39,-334.12 85.89,-324.12 82.39,-334.13 89.39,-334.12"/>
</g>
<!-- Attribution&#45;&gt;CopyrightHolderRole -->
<g id="edge7" class="edge">
<title>Attribution&#45;&gt;CopyrightHolderRole</title>
<path fill="none" stroke="black" d="M91.36,-386.26C100.56,-426.14 125.53,-509.61 180.06,-553 191.12,-561.81 204.58,-567.82 218.33,-571.92"/>
<polygon fill="black" stroke="black" points="217.79,-575.4 228.36,-574.57 219.58,-568.63 217.79,-575.4"/>
</g>
<!-- Attribution&#45;&gt;CreatorRole -->
<g id="edge8" class="edge">
<title>Attribution&#45;&gt;CreatorRole</title>
<path fill="none" stroke="black" d="M95.91,-386C109.5,-416.32 138.2,-470.42 180.06,-499 198.77,-511.78 222.76,-518.55 243.95,-522.12"/>
<polygon fill="black" stroke="black" points="243.69,-525.62 254.09,-523.63 244.72,-518.7 243.69,-525.62"/>
</g>
<!-- Attribution&#45;&gt;EditorRole -->
<g id="edge9" class="edge">
<title>Attribution&#45;&gt;EditorRole</title>
<path fill="none" stroke="black" d="M106.52,-386.25C124.02,-404.71 151.25,-430.24 180.06,-445 200.94,-455.7 226.14,-462.23 247.58,-466.19"/>
<polygon fill="black" stroke="black" points="247.01,-469.64 257.45,-467.87 248.19,-462.74 247.01,-469.64"/>
</g>
<!-- Attribution&#45;&gt;OwnerRole -->
<g id="edge12" class="edge">
<title>Attribution&#45;&gt;OwnerRole</title>
<path fill="none" stroke="black" d="M133.68,-378.06C148.47,-382.37 164.91,-387.02 180.06,-391 201.62,-396.66 225.6,-402.4 246.04,-407.12"/>
<polygon fill="black" stroke="black" points="245.53,-410.6 256.06,-409.42 247.1,-403.77 245.53,-410.6"/>
</g>
<!-- Attribution&#45;&gt;PinboardItem -->
<g id="edge13" class="edge">
<title>Attribution&#45;&gt;PinboardItem</title>
<path fill="none" stroke="black" d="M144.21,-364C174.07,-364 210.41,-364 239.89,-364"/>
<polygon fill="black" stroke="black" points="240.01,-367.5 250.01,-364 240.01,-360.5 240.01,-367.5"/>
</g>
<!-- Attribution&#45;&gt;Role -->
<g id="edge14" class="edge">
<title>Attribution&#45;&gt;Role</title>
<path fill="none" stroke="black" d="M133.68,-349.94C148.47,-345.63 164.91,-340.98 180.06,-337 206.28,-330.11 236.1,-323.11 258.74,-317.97"/>
<polygon fill="black" stroke="black" points="259.62,-321.36 268.6,-315.74 258.08,-314.53 259.62,-321.36"/>
</g>
<!-- Attribution&#45;&gt;VerifierRole -->
<g id="edge16" class="edge">
<title>Attribution&#45;&gt;VerifierRole</title>
<path fill="none" stroke="black" d="M124.18,-346.96C131.16,-342.91 138.13,-338.22 144.06,-333 164.61,-314.91 157.29,-298.21 180.06,-283 198.82,-270.46 222.72,-263.72 243.83,-260.1"/>
<polygon fill="black" stroke="black" points="244.57,-263.53 253.93,-258.56 243.52,-256.61 244.57,-263.53"/>
</g>
<!-- Attribution&#45;&gt;Creator -->
<g id="edge19" class="edge">
<title>Attribution&#45;&gt;Creator</title>
<path fill="none" stroke="black" stroke-dasharray="5,2" d="M134.7,-341.9C138.12,-339.21 141.31,-336.24 144.06,-333 175.7,-295.7 142.65,-260.52 180.06,-229 259.67,-161.91 309.02,-210.93 411.21,-191 442.73,-184.85 478.64,-176.56 502.8,-170.8"/>
<polygon fill="black" stroke="black" points="132.57,-339.11 126.36,-347.69 136.57,-344.86 132.57,-339.11"/>
</g>
<!-- Attribution&#45;&gt;Project -->
<g id="edge20" class="edge">
<title>Attribution&#45;&gt;Project</title>
<path fill="none" stroke="black" stroke-dasharray="5,2" d="M135.4,-341.77C138.6,-339.12 141.54,-336.21 144.06,-333 182.93,-283.48 135.89,-240.86 180.06,-196 203.1,-172.6 241.72,-165.92 267.67,-164.22"/>
<polygon fill="black" stroke="black" points="133.09,-339.12 127.01,-347.81 137.18,-344.81 133.09,-339.12"/>
</g>
<!-- Attribution&#45;&gt;Updater -->
<g id="edge21" class="edge">
<title>Attribution&#45;&gt;Updater</title>
<path fill="none" stroke="black" stroke-dasharray="5,2" d="M92.11,-396.09C104.22,-466.15 136.56,-629.05 180.06,-661 337.49,-776.61 486.03,-752.62 616.21,-607 673.65,-542.74 680.35,-257.41 681.11,-182.22"/>
<polygon fill="black" stroke="black" points="95.53,-395.34 90.4,-386.07 88.63,-396.51 95.53,-395.34"/>
</g>
<!-- Attribution&#45;&gt;Objects with Attributions -->
<g id="edge18" class="edge">
<title>Attribution&#45;&gt;Objects with Attributions</title>
<path fill="none" stroke="black" stroke-dasharray="5,2" d="M89.81,-396.42C96.33,-448.81 116.87,-551.8 180.06,-607 188.83,-614.66 199.38,-620.25 210.47,-624.31"/>
<polygon fill="black" stroke="black" points="93.27,-395.88 88.66,-386.34 86.32,-396.67 93.27,-395.88"/>
</g>
<!-- Confidence&#45;&gt;ConfidenceLevel -->
<g id="edge5" class="edge">
<title>Confidence&#45;&gt;ConfidenceLevel</title>
<path fill="none" stroke="black" d="M114.78,-111.94C132.96,-102.6 157.43,-90.91 180.06,-83 196.19,-77.36 214.02,-72.52 230.7,-68.57"/>
<polygon fill="black" stroke="black" points="231.96,-71.87 240.92,-66.22 230.39,-65.05 231.96,-71.87"/>
</g>
<!-- Tag&#45;&gt;Keyword -->
<g id="edge10" class="edge">
<title>Tag&#45;&gt;Keyword</title>
<path fill="none" stroke="black" d="M100.43,-201.54C117.27,-183.32 147.75,-153.43 180.06,-137 202.49,-125.59 229.85,-118.91 252.21,-115.05"/>
<polygon fill="black" stroke="black" points="252.77,-118.51 262.1,-113.47 251.67,-111.59 252.77,-118.51"/>
</g>
<!-- CopyrightHolderRole&#45;&gt;AttributionCopyrightHolder -->
<g id="edge1" class="edge">
<title>CopyrightHolderRole&#45;&gt;AttributionCopyrightHolder</title>
<path fill="none" stroke="black" d="M362.77,-580C385.82,-580 412.15,-580 437,-580"/>
<polygon fill="black" stroke="black" points="437.18,-583.5 447.18,-580 437.18,-576.5 437.18,-583.5"/>
</g>
<!-- CreatorRole&#45;&gt;AttributionCreator -->
<g id="edge2" class="edge">
<title>CreatorRole&#45;&gt;AttributionCreator</title>
<path fill="none" stroke="black" d="M337.14,-526C371.76,-526 422.29,-526 463.04,-526"/>
<polygon fill="black" stroke="black" points="463.18,-529.5 473.18,-526 463.18,-522.5 463.18,-529.5"/>
</g>
<!-- EditorRole&#45;&gt;AttributionEditor -->
<g id="edge3" class="edge">
<title>EditorRole&#45;&gt;AttributionEditor</title>
<path fill="none" stroke="black" d="M333.72,-472C369.29,-472 423.72,-472 466.36,-472"/>
<polygon fill="black" stroke="black" points="466.37,-475.5 476.37,-472 466.37,-468.5 466.37,-475.5"/>
</g>
<!-- OwnerRole&#45;&gt;AttributionOwner -->
<g id="edge4" class="edge">
<title>OwnerRole&#45;&gt;AttributionOwner</title>
<path fill="none" stroke="black" d="M335.29,-418C370.43,-418 423.04,-418 464.82,-418"/>
<polygon fill="black" stroke="black" points="464.92,-421.5 474.92,-418 464.92,-414.5 464.92,-421.5"/>
</g>
<!-- Role&#45;&gt;Verifier -->
<!-- VerifierRole&#45;&gt;Verifier -->
<g id="edge17" class="edge">
<title>VerifierRole&#45;&gt;Verifier</title>
<path fill="none" stroke="black" d="M337.14,-260.67C381.02,-265.73 450.46,-273.74 493.15,-278.67"/>
<polygon fill="black" stroke="black" points="492.8,-282.15 503.14,-279.82 493.6,-275.2 492.8,-282.15"/>
</g>
<!-- Creator&#45;&gt;Updater -->
<!-- Project&#45;&gt;Creator -->
<!-- Attribution -->
<g id="node1" class="node">
<title>Attribution</title>
<g id="a_node1"><a xlink:href="/develop/Data/models.html#attribution" xlink:title="Attribution" target="_top">
<polygon fill="#cdefab" stroke="#dedede" points="140.22,-356.54 140.22,-371.46 108.39,-382 63.39,-382 31.56,-371.46 31.56,-356.54 63.39,-346 108.39,-346 140.22,-356.54"/>
<polygon fill="none" stroke="#dedede" points="144.23,-353.66 144.23,-374.34 109.04,-386 62.74,-386 27.55,-374.34 27.55,-353.66 62.74,-342 109.04,-342 144.23,-353.66"/>
<text text-anchor="middle" x="85.89" y="-360.3" font-family="Times,serif" font-size="14.00">Attribution</text>
</a>
</g>
</g>
<!-- Confidence -->
<g id="node2" class="node">
<title>Confidence</title>
<g id="a_node2"><a xlink:href="/develop/Data/models.html#confidence" xlink:title="Confidence" target="_top">
<ellipse fill="#abcdef" stroke="#dddeee" cx="85.89" cy="-127" rx="50.89" ry="18"/>
<text text-anchor="middle" x="85.89" y="-123.3" font-family="Times,serif" font-size="14.00">Confidence</text>
</a>
</g>
</g>
<!-- Tag -->
<g id="node3" class="node">
<title>Tag</title>
<g id="a_node3"><a xlink:href="/develop/Data/models.html#tag" xlink:title="Tag" target="_top">
<ellipse fill="#abcdef" stroke="#dddeee" cx="85.89" cy="-217" rx="27" ry="18"/>
<text text-anchor="middle" x="85.89" y="-213.3" font-family="Times,serif" font-size="14.00">Tag</text>
</a>
</g>
</g>
<!-- Note -->
<g id="node4" class="node">
<title>Note</title>
<g id="a_node4"><a xlink:href="/develop/Data/models.html#note" xlink:title="Note" target="_top">
<ellipse fill="#abcdef" stroke="#dddeee" cx="85.89" cy="-306" rx="27.9" ry="18"/>
<text text-anchor="middle" x="85.89" y="-302.3" font-family="Times,serif" font-size="14.00">Note</text>
</a>
</g>
</g>
<!-- CopyrightHolderRole -->
<g id="node5" class="node">
<title>CopyrightHolderRole</title>
<g id="a_node5"><a xlink:href="/develop/Data/models.html#copyright-holder-role" xlink:title="CopyrightHolderRole" target="_top">
<polygon fill="#eeefff" stroke="#dddeee" points="362.63,-598 228.63,-598 228.63,-562 362.63,-562 362.63,-598"/>
<text text-anchor="middle" x="295.63" y="-576.3" font-family="Times,serif" font-size="14.00">CopyrightHolderRole</text>
</a>
</g>
</g>
<!-- AttributionCopyrightHolder -->
<g id="node6" class="node">
<title>AttributionCopyrightHolder</title>
<g id="a_node6"><a xlink:href="/develop/Data/models.html#attribution-copyright-holder" xlink:title="AttributionCopyrightHolder" target="_top">
<polygon fill="#eeefff" stroke="#dddeee" points="616.21,-598 447.21,-598 447.21,-562 616.21,-562 616.21,-598"/>
<text text-anchor="middle" x="531.71" y="-576.3" font-family="Times,serif" font-size="14.00">AttributionCopyrightHolder</text>
</a>
</g>
</g>
<!-- CreatorRole -->
<g id="node7" class="node">
<title>CreatorRole</title>
<g id="a_node7"><a xlink:href="/develop/Data/models.html#creator-role" xlink:title="CreatorRole" target="_top">
<polygon fill="#eeefff" stroke="#dddeee" points="337.13,-544 254.13,-544 254.13,-508 337.13,-508 337.13,-544"/>
<text text-anchor="middle" x="295.63" y="-522.3" font-family="Times,serif" font-size="14.00">CreatorRole</text>
</a>
</g>
</g>
<!-- AttributionCreator -->
<g id="node8" class="node">
<title>AttributionCreator</title>
<g id="a_node8"><a xlink:href="/develop/Data/models.html#attribution-creator" xlink:title="AttributionCreator" target="_top">
<polygon fill="#eeefff" stroke="#dddeee" points="590.21,-544 473.21,-544 473.21,-508 590.21,-508 590.21,-544"/>
<text text-anchor="middle" x="531.71" y="-522.3" font-family="Times,serif" font-size="14.00">AttributionCreator</text>
</a>
</g>
</g>
<!-- EditorRole -->
<g id="node9" class="node">
<title>EditorRole</title>
<g id="a_node9"><a xlink:href="/develop/Data/models.html#editor-role" xlink:title="EditorRole" target="_top">
<polygon fill="#eeefff" stroke="#dddeee" points="333.63,-490 257.63,-490 257.63,-454 333.63,-454 333.63,-490"/>
<text text-anchor="middle" x="295.63" y="-468.3" font-family="Times,serif" font-size="14.00">EditorRole</text>
</a>
</g>
</g>
<!-- AttributionEditor -->
<g id="node10" class="node">
<title>AttributionEditor</title>
<g id="a_node10"><a xlink:href="/develop/Data/models.html#attribution-editor" xlink:title="AttributionEditor" target="_top">
<polygon fill="#eeefff" stroke="#dddeee" points="586.71,-490 476.71,-490 476.71,-454 586.71,-454 586.71,-490"/>
<text text-anchor="middle" x="531.71" y="-468.3" font-family="Times,serif" font-size="14.00">AttributionEditor</text>
</a>
</g>
</g>
<!-- OwnerRole -->
<g id="node11" class="node">
<title>OwnerRole</title>
<g id="a_node11"><a xlink:href="/develop/Data/models.html#owner-role" xlink:title="OwnerRole" target="_top">
<polygon fill="#eeefff" stroke="#dddeee" points="335.13,-436 256.13,-436 256.13,-400 335.13,-400 335.13,-436"/>
<text text-anchor="middle" x="295.63" y="-414.3" font-family="Times,serif" font-size="14.00">OwnerRole</text>
</a>
</g>
</g>
<!-- AttributionOwner -->
<g id="node12" class="node">
<title>AttributionOwner</title>
<g id="a_node12"><a xlink:href="/develop/Data/models.html#attribution-owner" xlink:title="AttributionOwner" target="_top">
<polygon fill="#eeefff" stroke="#dddeee" points="588.21,-436 475.21,-436 475.21,-400 588.21,-400 588.21,-436"/>
<text text-anchor="middle" x="531.71" y="-414.3" font-family="Times,serif" font-size="14.00">AttributionOwner</text>
</a>
</g>
</g>
<!-- ConfidenceLevel -->
<g id="node13" class="node">
<title>ConfidenceLevel</title>
<g id="a_node13"><a xlink:href="/develop/Data/models.html#confidence-level" xlink:title="ConfidenceLevel" target="_top">
<polygon fill="#eeefff" stroke="#dddeee" points="350.13,-74 241.13,-74 241.13,-38 350.13,-38 350.13,-74"/>
<text text-anchor="middle" x="295.63" y="-52.3" font-family="Times,serif" font-size="14.00">ConfidenceLevel</text>
</a>
</g>
</g>
<!-- Keyword -->
<g id="node14" class="node">
<title>Keyword</title>
<g id="a_node14"><a xlink:href="/develop/Data/models.html#keyword" xlink:title="Keyword" target="_top">
<polygon fill="#eeefff" stroke="#dddeee" points="329.13,-128 262.13,-128 262.13,-92 329.13,-92 329.13,-128"/>
<text text-anchor="middle" x="295.63" y="-106.3" font-family="Times,serif" font-size="14.00">Keyword</text>
</a>
</g>
</g>
<!-- PinboardItem -->
<g id="node15" class="node">
<title>PinboardItem</title>
<g id="a_node15"><a xlink:href="/develop/Data/models.html#pinboard-item" xlink:title="PinboardItem" target="_top">
<polygon fill="#eeefff" stroke="#dddeee" points="341.13,-382 250.13,-382 250.13,-346 341.13,-346 341.13,-382"/>
<text text-anchor="middle" x="295.63" y="-360.3" font-family="Times,serif" font-size="14.00">PinboardItem</text>
</a>
</g>
</g>
<!-- Role -->
<g id="node16" class="node">
<title>Role</title>
<g id="a_node16"><a xlink:href="/develop/Data/models.html#role" xlink:title="Role" target="_top">
<polygon fill="#eeefff" stroke="#dddeee" points="322.63,-328 268.63,-328 268.63,-292 322.63,-292 322.63,-328"/>
<text text-anchor="middle" x="295.63" y="-306.3" font-family="Times,serif" font-size="14.00">Role</text>
</a>
</g>
</g>
<!-- VerifierRole -->
<g id="node17" class="node">
<title>VerifierRole</title>
<g id="a_node17"><a xlink:href="/develop/Data/models.html#verifier-role" xlink:title="VerifierRole" target="_top">
<polygon fill="#eeefff" stroke="#dddeee" points="337.13,-274 254.13,-274 254.13,-238 337.13,-238 337.13,-274"/>
<text text-anchor="middle" x="295.63" y="-252.3" font-family="Times,serif" font-size="14.00">VerifierRole</text>
</a>
</g>
</g>
<!-- Verifier -->
<g id="node18" class="node">
<title>Verifier</title>
<g id="a_node18"><a xlink:href="/develop/Data/models.html#verifier" xlink:title="Verifier" target="_top">
<polygon fill="#eeefff" stroke="#dddeee" points="560.21,-301 503.21,-301 503.21,-265 560.21,-265 560.21,-301"/>
<text text-anchor="middle" x="531.71" y="-279.3" font-family="Times,serif" font-size="14.00">Verifier</text>
</a>
</g>
</g>
<!-- Creator -->
<g id="node19" class="node">
<title>Creator</title>
<g id="a_node19"><a xlink:href="/develop/Data/models.html#creator" xlink:title="Creator" target="_top">
<polygon fill="#eeefff" stroke="#dddeee" points="560.21,-182 503.21,-182 503.21,-146 560.21,-146 560.21,-182"/>
<text text-anchor="middle" x="531.71" y="-160.3" font-family="Times,serif" font-size="14.00">Creator</text>
</a>
</g>
</g>
<!-- Project -->
<g id="node20" class="node">
<title>Project</title>
<g id="a_node20"><a xlink:href="/develop/Data/models.html#project" xlink:title="Project" target="_top">
<polygon fill="#eeefff" stroke="#dddeee" points="323.13,-182 268.13,-182 268.13,-146 323.13,-146 323.13,-182"/>
<text text-anchor="middle" x="295.63" y="-160.3" font-family="Times,serif" font-size="14.00">Project</text>
</a>
</g>
</g>
<!-- Updater -->
<g id="node21" class="node">
<title>Updater</title>
<g id="a_node21"><a xlink:href="/develop/Data/models.html#updater" xlink:title="Updater" target="_top">
<polygon fill="#eeefff" stroke="#dddeee" points="712.21,-182 652.21,-182 652.21,-146 712.21,-146 712.21,-182"/>
<text text-anchor="middle" x="682.21" y="-160.3" font-family="Times,serif" font-size="14.00">Updater</text>
</a>
</g>
</g>
<!-- Objects with Attributions -->
<g id="node22" class="node">
<title>Objects with Attributions</title>
<g id="a_node22"><a xlink:href="/develop/Data/models.html#objects with attribution" xlink:title="Objects with Attributions" target="_top">
<polygon fill="#cdabef" stroke="#dedede" points="411.28,-634 353.46,-652 237.81,-652 179.98,-634 237.81,-616 353.46,-616 411.28,-634"/>
<text text-anchor="middle" x="295.63" y="-630.3" font-family="Times,serif" font-size="14.00">Objects with Attributions</text>
</a>
</g>
</g>
</g>
</svg>
