<?xml version="1.0" encoding="UTF-8" standalone="no"?>
<!DOCTYPE svg PUBLIC "-//W3C//DTD SVG 1.1//EN"
 "http://www.w3.org/Graphics/SVG/1.1/DTD/svg11.dtd">
<!-- Generated by graphviz version 2.50.0 (20211204.2007)
 -->
<!-- Title: BiocurationClassification Pages: 1 -->
<svg width="623pt" height="387pt"
 viewBox="0.00 0.00 622.68 386.58" xmlns="http://www.w3.org/2000/svg" xmlns:xlink="http://www.w3.org/1999/xlink">
<g id="graph0" class="graph" transform="scale(1 1) rotate(0) translate(4 382.58)">
<title>BiocurationClassification</title>
<polygon fill="white" stroke="transparent" points="-4,4 -4,-382.58 618.68,-382.58 618.68,4 -4,4"/>
<!-- BiocurationClassification&#45;&gt;PinboardItem -->
<g id="edge1" class="edge">
<title>BiocurationClassification&#45;&gt;PinboardItem</title>
<path fill="none" stroke="black" d="M127.83,-193.77C151.57,-228.45 202.02,-295.46 260.68,-333.58 269.02,-339.01 278.55,-343.44 288.09,-347.02"/>
<polygon fill="black" stroke="black" points="286.98,-350.35 297.58,-350.33 289.29,-343.74 286.98,-350.35"/>
</g>
<!-- BiocurationClassification&#45;&gt;Role -->
<g id="edge2" class="edge">
<title>BiocurationClassification&#45;&gt;Role</title>
<path fill="none" stroke="black" d="M138.32,-193.73C166.4,-217.66 214.17,-255.59 260.68,-279.58 274.99,-286.97 291.74,-292.93 306.32,-297.35"/>
<polygon fill="black" stroke="black" points="305.43,-300.74 316.01,-300.17 307.39,-294.02 305.43,-300.74"/>
</g>
<!-- BiocurationClassification&#45;&gt;VerifierRole -->
<g id="edge3" class="edge">
<title>BiocurationClassification&#45;&gt;VerifierRole</title>
<path fill="none" stroke="black" d="M167.77,-192C195.5,-202.28 229.81,-214.82 260.68,-225.58 270.7,-229.08 281.46,-232.72 291.76,-236.16"/>
<polygon fill="black" stroke="black" points="290.87,-239.55 301.46,-239.38 293.08,-232.91 290.87,-239.55"/>
</g>
<!-- BiocurationClassification&#45;&gt;BiocurationClass -->
<g id="edge5" class="edge">
<title>BiocurationClassification&#45;&gt;BiocurationClass</title>
<path fill="none" stroke="black" stroke-dasharray="5,2" d="M226.84,-184.98C248.2,-187.5 269.6,-190.02 288.06,-192.2"/>
<polygon fill="black" stroke="black" points="227.05,-181.48 216.71,-183.78 226.23,-188.43 227.05,-181.48"/>
</g>
<!-- BiocurationClassification&#45;&gt;BiologicalCollectionObject -->
<g id="edge6" class="edge">
<title>BiocurationClassification&#45;&gt;BiologicalCollectionObject</title>
<path fill="none" stroke="black" stroke-dasharray="5,2" d="M226.72,-158.21C238.13,-156.86 249.55,-155.51 260.53,-154.22"/>
<polygon fill="black" stroke="black" points="226.23,-154.74 216.71,-159.39 227.05,-161.69 226.23,-154.74"/>
</g>
<!-- BiocurationClassification&#45;&gt;Creator -->
<g id="edge7" class="edge">
<title>BiocurationClassification&#45;&gt;Creator</title>
<path fill="none" stroke="black" stroke-dasharray="5,2" d="M174.74,-147.13C200.96,-137.2 232.07,-126.08 260.68,-117.58 332.81,-96.15 354.11,-102.84 425.68,-79.58 437.64,-75.7 450.47,-70.46 461.45,-65.63"/>
<polygon fill="black" stroke="black" points="173.41,-143.89 165.31,-150.73 175.9,-150.43 173.41,-143.89"/>
</g>
<!-- BiocurationClassification&#45;&gt;Project -->
<g id="edge8" class="edge">
<title>BiocurationClassification&#45;&gt;Project</title>
<path fill="none" stroke="black" stroke-dasharray="5,2" d="M155.92,-143.99C184.82,-125.88 224.26,-102.34 260.68,-84.58 278.57,-75.86 299.5,-67.68 315.66,-61.78"/>
<polygon fill="black" stroke="black" points="153.9,-141.13 147.31,-149.42 157.63,-147.05 153.9,-141.13"/>
</g>
<!-- BiocurationClassification&#45;&gt;Updater -->
<g id="edge9" class="edge">
<title>BiocurationClassification&#45;&gt;Updater</title>
<path fill="none" stroke="black" stroke-dasharray="5,2" d="M133.05,-140.88C157.87,-105.37 204.19,-48.83 260.68,-25.58 366.71,18.05 406.22,-3.16 518.68,-25.58 530.78,-28 543.45,-32.71 554.36,-37.53"/>
<polygon fill="black" stroke="black" points="129.96,-139.19 127.21,-149.42 135.74,-143.14 129.96,-139.19"/>
</g>
<!-- Role&#45;&gt;Verifier -->
<!-- VerifierRole&#45;&gt;Verifier -->
<g id="edge4" class="edge">
<title>VerifierRole&#45;&gt;Verifier</title>
<path fill="none" stroke="black" d="M384.95,-260.18C405.88,-264.07 431.19,-268.79 451.63,-272.59"/>
<polygon fill="black" stroke="black" points="451.06,-276.05 461.53,-274.44 452.34,-269.17 451.06,-276.05"/>
</g>
<!-- Creator&#45;&gt;Updater -->
<!-- Project&#45;&gt;Creator -->
<!-- BiocurationClassification -->
<g id="node1" class="node">
<title>BiocurationClassification</title>
<g id="a_node1"><a xlink:href="/develop/Data/models.html#biocuration-classification" xlink:title="BiocurationClassification" target="_top">
<polygon fill="#cdefab" stroke="#dedede" points="220.52,-164.13 220.52,-179.04 157.15,-189.58 67.53,-189.58 4.16,-179.04 4.16,-164.13 67.53,-153.58 157.15,-153.58 220.52,-164.13"/>
<polygon fill="none" stroke="#dedede" points="224.51,-160.74 224.51,-182.43 157.48,-193.58 67.2,-193.58 0.16,-182.43 0.16,-160.74 67.2,-149.58 157.48,-149.58 224.51,-160.74"/>
<text text-anchor="middle" x="112.34" y="-167.88" font-family="Times,serif" font-size="14.00">BiocurationClassification</text>
</a>
</g>
</g>
<!-- PinboardItem -->
<g id="node2" class="node">
<title>PinboardItem</title>
<g id="a_node2"><a xlink:href="/develop/Data/models.html#pinboard-item" xlink:title="PinboardItem" target="_top">
<polygon fill="#eeefff" stroke="#dddeee" points="388.68,-378.58 297.68,-378.58 297.68,-342.58 388.68,-342.58 388.68,-378.58"/>
<text text-anchor="middle" x="343.18" y="-356.88" font-family="Times,serif" font-size="14.00">PinboardItem</text>
</a>
</g>
</g>
<!-- Role -->
<g id="node3" class="node">
<title>Role</title>
<g id="a_node3"><a xlink:href="/develop/Data/models.html#role" xlink:title="Role" target="_top">
<polygon fill="#eeefff" stroke="#dddeee" points="370.18,-324.58 316.18,-324.58 316.18,-288.58 370.18,-288.58 370.18,-324.58"/>
<text text-anchor="middle" x="343.18" y="-302.88" font-family="Times,serif" font-size="14.00">Role</text>
</a>
</g>
</g>
<!-- VerifierRole -->
<g id="node4" class="node">
<title>VerifierRole</title>
<g id="a_node4"><a xlink:href="/develop/Data/models.html#verifier-role" xlink:title="VerifierRole" target="_top">
<polygon fill="#eeefff" stroke="#dddeee" points="384.68,-270.58 301.68,-270.58 301.68,-234.58 384.68,-234.58 384.68,-270.58"/>
<text text-anchor="middle" x="343.18" y="-248.88" font-family="Times,serif" font-size="14.00">VerifierRole</text>
</a>
</g>
</g>
<!-- Verifier -->
<g id="node5" class="node">
<title>Verifier</title>
<g id="a_node5"><a xlink:href="/develop/Data/models.html#verifier" xlink:title="Verifier" target="_top">
<polygon fill="#eeefff" stroke="#dddeee" points="518.68,-297.58 461.68,-297.58 461.68,-261.58 518.68,-261.58 518.68,-297.58"/>
<text text-anchor="middle" x="490.18" y="-275.88" font-family="Times,serif" font-size="14.00">Verifier</text>
</a>
</g>
</g>
<!-- BiocurationClass -->
<g id="node6" class="node">
<title>BiocurationClass</title>
<g id="a_node6"><a xlink:href="/develop/Data/models.html#biocuration-class" xlink:title="BiocurationClass" target="_top">
<polygon fill="#eeefff" stroke="#dddeee" points="398.18,-216.58 288.18,-216.58 288.18,-180.58 398.18,-180.58 398.18,-216.58"/>
<text text-anchor="middle" x="343.18" y="-194.88" font-family="Times,serif" font-size="14.00">BiocurationClass</text>
</a>
</g>
</g>
<!-- BiologicalCollectionObject -->
<g id="node7" class="node">
<title>BiologicalCollectionObject</title>
<g id="a_node7"><a xlink:href="/develop/Data/models.html#biological-collection-object" xlink:title="BiologicalCollectionObject" target="_top">
<polygon fill="#eeefff" stroke="#dddeee" points="425.68,-162.58 260.68,-162.58 260.68,-126.58 425.68,-126.58 425.68,-162.58"/>
<text text-anchor="middle" x="343.18" y="-140.88" font-family="Times,serif" font-size="14.00">BiologicalCollectionObject</text>
</a>
</g>
</g>
<!-- Creator -->
<g id="node8" class="node">
<title>Creator</title>
<g id="a_node8"><a xlink:href="/develop/Data/models.html#creator" xlink:title="Creator" target="_top">
<polygon fill="#eeefff" stroke="#dddeee" points="518.68,-70.58 461.68,-70.58 461.68,-34.58 518.68,-34.58 518.68,-70.58"/>
<text text-anchor="middle" x="490.18" y="-48.88" font-family="Times,serif" font-size="14.00">Creator</text>
</a>
</g>
</g>
<!-- Project -->
<g id="node9" class="node">
<title>Project</title>
<g id="a_node9"><a xlink:href="/develop/Data/models.html#project" xlink:title="Project" target="_top">
<polygon fill="#eeefff" stroke="#dddeee" points="370.68,-70.58 315.68,-70.58 315.68,-34.58 370.68,-34.58 370.68,-70.58"/>
<text text-anchor="middle" x="343.18" y="-48.88" font-family="Times,serif" font-size="14.00">Project</text>
</a>
</g>
</g>
<!-- Updater -->
<g id="node10" class="node">
<title>Updater</title>
<g id="a_node10"><a xlink:href="/develop/Data/models.html#updater" xlink:title="Updater" target="_top">
<polygon fill="#eeefff" stroke="#dddeee" points="614.68,-70.58 554.68,-70.58 554.68,-34.58 614.68,-34.58 614.68,-70.58"/>
<text text-anchor="middle" x="584.68" y="-48.88" font-family="Times,serif" font-size="14.00">Updater</text>
</a>
</g>
</g>
</g>
</svg>
