<?xml version="1.0" encoding="UTF-8" standalone="no"?>
<!DOCTYPE svg PUBLIC "-//W3C//DTD SVG 1.1//EN"
 "http://www.w3.org/Graphics/SVG/1.1/DTD/svg11.dtd">
<!-- Generated by graphviz version 2.50.0 (20211204.2007)
 -->
<!-- Title: BiocurationClassification Pages: 1 -->
<svg width="724pt" height="425pt"
 viewBox="0.00 0.00 724.00 424.58" xmlns="http://www.w3.org/2000/svg" xmlns:xlink="http://www.w3.org/1999/xlink">
<g id="graph0" class="graph" transform="scale(1 1) rotate(0) translate(4 420.58)">
<title>BiocurationClassification</title>
<polygon fill="white" stroke="transparent" points="-4,4 -4,-420.58 720,-420.58 720,4 -4,4"/>
<text text-anchor="middle" x="358" y="-22.8" font-family="Times,serif" font-size="14.00">Algorithmically generated relationships for BiocurationClassification based on assertions of &#39;has_many&#39;, &#39;has_one&#39;, &#39;belongs_to&#39;. </text>
<text text-anchor="middle" x="358" y="-7.8" font-family="Times,serif" font-size="14.00">Generated 2022&#45;01&#45;25 11:37:13 &#45;0600.</text>
<!-- BiocurationClassification&#45;&gt;PinboardItem -->
<g id="edge1" class="edge">
<title>BiocurationClassification&#45;&gt;PinboardItem</title>
<path fill="none" stroke="black" d="M178.49,-231.77C202.23,-266.45 252.69,-333.46 311.34,-371.58 319.68,-377.01 329.21,-381.44 338.75,-385.02"/>
<polygon fill="black" stroke="black" points="337.65,-388.35 348.24,-388.33 339.95,-381.74 337.65,-388.35"/>
</g>
<!-- BiocurationClassification&#45;&gt;Role -->
<g id="edge2" class="edge">
<title>BiocurationClassification&#45;&gt;Role</title>
<path fill="none" stroke="black" d="M188.99,-231.73C217.07,-255.66 264.83,-293.59 311.34,-317.58 325.65,-324.97 342.4,-330.93 356.99,-335.35"/>
<polygon fill="black" stroke="black" points="356.1,-338.74 366.68,-338.17 358.05,-332.02 356.1,-338.74"/>
</g>
<!-- BiocurationClassification&#45;&gt;VerifierRole -->
<g id="edge3" class="edge">
<title>BiocurationClassification&#45;&gt;VerifierRole</title>
<path fill="none" stroke="black" d="M218.43,-230C246.17,-240.28 280.47,-252.82 311.34,-263.58 321.36,-267.08 332.12,-270.72 342.42,-274.16"/>
<polygon fill="black" stroke="black" points="341.53,-277.55 352.13,-277.38 343.74,-270.91 341.53,-277.55"/>
</g>
<!-- BiocurationClassification&#45;&gt;BiocurationClass -->
<g id="edge5" class="edge">
<title>BiocurationClassification&#45;&gt;BiocurationClass</title>
<path fill="none" stroke="black" stroke-dasharray="5,2" d="M277.5,-222.98C298.86,-225.5 320.26,-228.02 338.72,-230.2"/>
<polygon fill="black" stroke="black" points="277.71,-219.48 267.37,-221.78 276.89,-226.43 277.71,-219.48"/>
</g>
<!-- BiocurationClassification&#45;&gt;BiologicalCollectionObject -->
<g id="edge6" class="edge">
<title>BiocurationClassification&#45;&gt;BiologicalCollectionObject</title>
<path fill="none" stroke="black" stroke-dasharray="5,2" d="M277.38,-196.21C288.79,-194.86 300.21,-193.51 311.19,-192.22"/>
<polygon fill="black" stroke="black" points="276.89,-192.74 267.37,-197.39 277.71,-199.69 276.89,-192.74"/>
</g>
<!-- BiocurationClassification&#45;&gt;Creator -->
<g id="edge7" class="edge">
<title>BiocurationClassification&#45;&gt;Creator</title>
<path fill="none" stroke="black" stroke-dasharray="5,2" d="M225.4,-185.13C251.63,-175.2 282.73,-164.08 311.34,-155.58 383.47,-134.15 404.77,-140.84 476.34,-117.58 488.3,-113.7 501.13,-108.46 512.11,-103.63"/>
<polygon fill="black" stroke="black" points="224.07,-181.89 215.97,-188.73 226.56,-188.43 224.07,-181.89"/>
</g>
<!-- BiocurationClassification&#45;&gt;Project -->
<g id="edge8" class="edge">
<title>BiocurationClassification&#45;&gt;Project</title>
<path fill="none" stroke="black" stroke-dasharray="5,2" d="M206.59,-181.99C235.49,-163.88 274.92,-140.34 311.34,-122.58 329.24,-113.86 350.16,-105.68 366.32,-99.78"/>
<polygon fill="black" stroke="black" points="204.56,-179.13 197.97,-187.42 208.3,-185.05 204.56,-179.13"/>
</g>
<!-- BiocurationClassification&#45;&gt;Updater -->
<g id="edge9" class="edge">
<title>BiocurationClassification&#45;&gt;Updater</title>
<path fill="none" stroke="black" stroke-dasharray="5,2" d="M183.71,-178.88C208.53,-143.37 254.85,-86.83 311.34,-63.58 417.38,-19.95 456.89,-41.16 569.34,-63.58 581.44,-66 594.11,-70.71 605.02,-75.53"/>
<polygon fill="black" stroke="black" points="180.62,-177.19 177.87,-187.42 186.4,-181.14 180.62,-177.19"/>
</g>
<!-- Role&#45;&gt;Verifier -->
<!-- VerifierRole&#45;&gt;Verifier -->
<g id="edge4" class="edge">
<title>VerifierRole&#45;&gt;Verifier</title>
<path fill="none" stroke="black" d="M435.61,-298.18C456.54,-302.07 481.85,-306.79 502.3,-310.59"/>
<polygon fill="black" stroke="black" points="501.72,-314.05 512.19,-312.44 503,-307.17 501.72,-314.05"/>
</g>
<!-- Creator&#45;&gt;Updater -->
<!-- Project&#45;&gt;Creator -->
<!-- BiocurationClassification -->
<g id="node1" class="node">
<title>BiocurationClassification</title>
<g id="a_node1"><a xlink:href="/develop/Data/models.html#biocuration-classification" xlink:title="BiocurationClassification" target="_top">
<polygon fill="#cdefab" stroke="#dedede" points="271.18,-202.13 271.18,-217.04 207.81,-227.58 118.19,-227.58 54.82,-217.04 54.82,-202.13 118.19,-191.58 207.81,-191.58 271.18,-202.13"/>
<polygon fill="none" stroke="#dedede" points="275.18,-198.74 275.18,-220.43 208.14,-231.58 117.86,-231.58 50.82,-220.43 50.82,-198.74 117.86,-187.58 208.14,-187.58 275.18,-198.74"/>
<text text-anchor="middle" x="163" y="-205.88" font-family="Times,serif" font-size="14.00">BiocurationClassification</text>
</a>
</g>
</g>
<!-- PinboardItem -->
<g id="node2" class="node">
<title>PinboardItem</title>
<g id="a_node2"><a xlink:href="/develop/Data/models.html#pinboard-item" xlink:title="PinboardItem" target="_top">
<polygon fill="#eeefff" stroke="#dddeee" points="439.34,-416.58 348.34,-416.58 348.34,-380.58 439.34,-380.58 439.34,-416.58"/>
<text text-anchor="middle" x="393.84" y="-394.88" font-family="Times,serif" font-size="14.00">PinboardItem</text>
</a>
</g>
</g>
<!-- Role -->
<g id="node3" class="node">
<title>Role</title>
<g id="a_node3"><a xlink:href="/develop/Data/models.html#role" xlink:title="Role" target="_top">
<polygon fill="#eeefff" stroke="#dddeee" points="420.84,-362.58 366.84,-362.58 366.84,-326.58 420.84,-326.58 420.84,-362.58"/>
<text text-anchor="middle" x="393.84" y="-340.88" font-family="Times,serif" font-size="14.00">Role</text>
</a>
</g>
</g>
<!-- VerifierRole -->
<g id="node4" class="node">
<title>VerifierRole</title>
<g id="a_node4"><a xlink:href="/develop/Data/models.html#verifier-role" xlink:title="VerifierRole" target="_top">
<polygon fill="#eeefff" stroke="#dddeee" points="435.34,-308.58 352.34,-308.58 352.34,-272.58 435.34,-272.58 435.34,-308.58"/>
<text text-anchor="middle" x="393.84" y="-286.88" font-family="Times,serif" font-size="14.00">VerifierRole</text>
</a>
</g>
</g>
<!-- Verifier -->
<g id="node5" class="node">
<title>Verifier</title>
<g id="a_node5"><a xlink:href="/develop/Data/models.html#verifier" xlink:title="Verifier" target="_top">
<polygon fill="#eeefff" stroke="#dddeee" points="569.34,-335.58 512.34,-335.58 512.34,-299.58 569.34,-299.58 569.34,-335.58"/>
<text text-anchor="middle" x="540.84" y="-313.88" font-family="Times,serif" font-size="14.00">Verifier</text>
</a>
</g>
</g>
<!-- BiocurationClass -->
<g id="node6" class="node">
<title>BiocurationClass</title>
<g id="a_node6"><a xlink:href="/develop/Data/models.html#biocuration-class" xlink:title="BiocurationClass" target="_top">
<polygon fill="#eeefff" stroke="#dddeee" points="448.84,-254.58 338.84,-254.58 338.84,-218.58 448.84,-218.58 448.84,-254.58"/>
<text text-anchor="middle" x="393.84" y="-232.88" font-family="Times,serif" font-size="14.00">BiocurationClass</text>
</a>
</g>
</g>
<!-- BiologicalCollectionObject -->
<g id="node7" class="node">
<title>BiologicalCollectionObject</title>
<g id="a_node7"><a xlink:href="/develop/Data/models.html#biological-collection-object" xlink:title="BiologicalCollectionObject" target="_top">
<polygon fill="#eeefff" stroke="#dddeee" points="476.34,-200.58 311.34,-200.58 311.34,-164.58 476.34,-164.58 476.34,-200.58"/>
<text text-anchor="middle" x="393.84" y="-178.88" font-family="Times,serif" font-size="14.00">BiologicalCollectionObject</text>
</a>
</g>
</g>
<!-- Creator -->
<g id="node8" class="node">
<title>Creator</title>
<g id="a_node8"><a xlink:href="/develop/Data/models.html#creator" xlink:title="Creator" target="_top">
<polygon fill="#eeefff" stroke="#dddeee" points="569.34,-108.58 512.34,-108.58 512.34,-72.58 569.34,-72.58 569.34,-108.58"/>
<text text-anchor="middle" x="540.84" y="-86.88" font-family="Times,serif" font-size="14.00">Creator</text>
</a>
</g>
</g>
<!-- Project -->
<g id="node9" class="node">
<title>Project</title>
<g id="a_node9"><a xlink:href="/develop/Data/models.html#project" xlink:title="Project" target="_top">
<polygon fill="#eeefff" stroke="#dddeee" points="421.34,-108.58 366.34,-108.58 366.34,-72.58 421.34,-72.58 421.34,-108.58"/>
<text text-anchor="middle" x="393.84" y="-86.88" font-family="Times,serif" font-size="14.00">Project</text>
</a>
</g>
</g>
<!-- Updater -->
<g id="node10" class="node">
<title>Updater</title>
<g id="a_node10"><a xlink:href="/develop/Data/models.html#updater" xlink:title="Updater" target="_top">
<polygon fill="#eeefff" stroke="#dddeee" points="665.34,-108.58 605.34,-108.58 605.34,-72.58 665.34,-72.58 665.34,-108.58"/>
<text text-anchor="middle" x="635.34" y="-86.88" font-family="Times,serif" font-size="14.00">Updater</text>
</a>
</g>
</g>
</g>
</svg>
