<?xml version="1.0" encoding="UTF-8" standalone="no"?>
<!DOCTYPE svg PUBLIC "-//W3C//DTD SVG 1.1//EN"
 "http://www.w3.org/Graphics/SVG/1.1/DTD/svg11.dtd">
<!-- Generated by graphviz version 2.50.0 (20211204.2007)
 -->
<!-- Title: BiologicalAssociationsBiologicalAssociationsGraph Pages: 1 -->
<svg width="871pt" height="421pt"
 viewBox="0.00 0.00 871.00 421.44" xmlns="http://www.w3.org/2000/svg" xmlns:xlink="http://www.w3.org/1999/xlink">
<g id="graph0" class="graph" transform="scale(1 1) rotate(0) translate(4 417.44)">
<title>BiologicalAssociationsBiologicalAssociationsGraph</title>
<polygon fill="white" stroke="transparent" points="-4,4 -4,-417.44 867,-417.44 867,4 -4,4"/>
<text text-anchor="middle" x="431.5" y="-22.8" font-family="Times,serif" font-size="14.00">Algorithmically generated relationships for BiologicalAssociationsBiologicalAssociationsGraph based on assertions of &#39;has_many&#39;, &#39;has_one&#39;, &#39;belongs_to&#39;. </text>
<text text-anchor="middle" x="431.5" y="-7.8" font-family="Times,serif" font-size="14.00">Generated 2022&#45;01&#45;25 11:42:45 &#45;0600.</text>
<!-- BiologicalAssociationsBiologicalAssociationsGraph&#45;&gt;BiologicalAssociation -->
<g id="edge5" class="edge">
<title>BiologicalAssociationsBiologicalAssociationsGraph&#45;&gt;BiologicalAssociation</title>
<path fill="none" stroke="black" stroke-dasharray="5,2" d="M268.73,-233.1C316.06,-268.32 401.9,-328.63 482.75,-366.94 490.35,-370.54 498.53,-373.85 506.73,-376.83"/>
<polygon fill="black" stroke="black" points="270.74,-230.23 260.63,-227.04 266.54,-235.83 270.74,-230.23"/>
</g>
<!-- BiologicalAssociationsBiologicalAssociationsGraph&#45;&gt;PinboardItem -->
<g id="edge1" class="edge">
<title>BiologicalAssociationsBiologicalAssociationsGraph&#45;&gt;PinboardItem</title>
<path fill="none" stroke="black" d="M279,-226.95C328.94,-249.93 410.5,-286.25 482.75,-312.94 493.2,-316.8 504.49,-320.58 515.36,-324.03"/>
<polygon fill="black" stroke="black" points="514.6,-327.46 525.19,-327.1 516.69,-320.78 514.6,-327.46"/>
</g>
<!-- BiologicalAssociationsBiologicalAssociationsGraph&#45;&gt;Role -->
<g id="edge2" class="edge">
<title>BiologicalAssociationsBiologicalAssociationsGraph&#45;&gt;Role</title>
<path fill="none" stroke="black" d="M322.51,-226.64C391.83,-243.27 483.79,-265.32 533.73,-277.3"/>
<polygon fill="black" stroke="black" points="533.19,-280.77 543.73,-279.7 534.82,-273.96 533.19,-280.77"/>
</g>
<!-- BiologicalAssociationsBiologicalAssociationsGraph&#45;&gt;VerifierRole -->
<g id="edge3" class="edge">
<title>BiologicalAssociationsBiologicalAssociationsGraph&#45;&gt;VerifierRole</title>
<path fill="none" stroke="black" d="M410.27,-219.19C450.27,-222.39 489.57,-225.53 519.15,-227.89"/>
<polygon fill="black" stroke="black" points="518.94,-231.39 529.19,-228.69 519.5,-224.41 518.94,-231.39"/>
</g>
<!-- BiologicalAssociationsBiologicalAssociationsGraph&#45;&gt;BiologicalAssociationsGraph -->
<g id="edge6" class="edge">
<title>BiologicalAssociationsBiologicalAssociationsGraph&#45;&gt;BiologicalAssociationsGraph</title>
<path fill="none" stroke="black" stroke-dasharray="5,2" d="M420.53,-189.87C442.06,-188.15 463.15,-186.46 482.39,-184.92"/>
<polygon fill="black" stroke="black" points="419.96,-186.4 410.27,-190.69 420.52,-193.38 419.96,-186.4"/>
</g>
<!-- BiologicalAssociationsBiologicalAssociationsGraph&#45;&gt;Creator -->
<g id="edge7" class="edge">
<title>BiologicalAssociationsBiologicalAssociationsGraph&#45;&gt;Creator</title>
<path fill="none" stroke="black" stroke-dasharray="5,2" d="M339.98,-181.69C466.09,-154.54 657.78,-113.24 658.75,-112.94 670.74,-109.13 683.58,-103.91 694.55,-99.07"/>
<polygon fill="black" stroke="black" points="338.92,-178.34 329.88,-183.86 340.4,-185.18 338.92,-178.34"/>
</g>
<!-- BiologicalAssociationsBiologicalAssociationsGraph&#45;&gt;Project -->
<g id="edge8" class="edge">
<title>BiologicalAssociationsBiologicalAssociationsGraph&#45;&gt;Project</title>
<path fill="none" stroke="black" stroke-dasharray="5,2" d="M304.57,-179.37C379.38,-153.01 492.05,-113.31 543.02,-95.36"/>
<polygon fill="black" stroke="black" points="303.01,-176.21 294.74,-182.83 305.33,-182.81 303.01,-176.21"/>
</g>
<!-- BiologicalAssociationsBiologicalAssociationsGraph&#45;&gt;Updater -->
<g id="edge9" class="edge">
<title>BiologicalAssociationsBiologicalAssociationsGraph&#45;&gt;Updater</title>
<path fill="none" stroke="black" stroke-dasharray="5,2" d="M266.9,-176.43C313,-140.81 398.28,-81.74 482.75,-58.94 598.18,-27.78 634.5,-35.55 751.75,-58.94 763.85,-61.35 776.53,-66.06 787.43,-70.88"/>
<polygon fill="black" stroke="black" points="264.48,-173.88 258.76,-182.8 268.79,-179.4 264.48,-173.88"/>
</g>
<!-- Role&#45;&gt;Verifier -->
<!-- VerifierRole&#45;&gt;Verifier -->
<g id="edge4" class="edge">
<title>VerifierRole&#45;&gt;Verifier</title>
<path fill="none" stroke="black" d="M612.48,-239.24C634.87,-243.26 662.48,-248.21 684.4,-252.15"/>
<polygon fill="black" stroke="black" points="683.89,-255.61 694.35,-253.93 685.12,-248.72 683.89,-255.61"/>
</g>
<!-- Creator&#45;&gt;Updater -->
<!-- Project&#45;&gt;Creator -->
<!-- BiologicalAssociation -->
<g id="node1" class="node">
<title>BiologicalAssociation</title>
<g id="a_node1"><a xlink:href="/develop/Data/models.html#biological-association" xlink:title="BiologicalAssociation" target="_top">
<path fill="#fedcba" stroke="#dddeee" d="M514.25,-376.94C514.25,-376.94 627.25,-376.94 627.25,-376.94 633.25,-376.94 639.25,-382.94 639.25,-388.94 639.25,-388.94 639.25,-400.94 639.25,-400.94 639.25,-406.94 633.25,-412.94 627.25,-412.94 627.25,-412.94 514.25,-412.94 514.25,-412.94 508.25,-412.94 502.25,-406.94 502.25,-400.94 502.25,-400.94 502.25,-388.94 502.25,-388.94 502.25,-382.94 508.25,-376.94 514.25,-376.94"/>
<text text-anchor="middle" x="570.75" y="-391.24" font-family="Times,serif" font-size="14.00">BiologicalAssociation</text>
</a>
</g>
</g>
<!-- BiologicalAssociationsBiologicalAssociationsGraph -->
<g id="node2" class="node">
<title>BiologicalAssociationsBiologicalAssociationsGraph</title>
<g id="a_node2"><a xlink:href="/develop/Data/models.html#biological-associations-biological-associations-graph" xlink:title="BiologicalAssociationsBiologicalAssociationsGraph" target="_top">
<polygon fill="#cdefab" stroke="#dedede" points="442.51,-197.48 442.51,-212.39 318.61,-222.94 143.39,-222.94 19.49,-212.39 19.49,-197.48 143.39,-186.94 318.61,-186.94 442.51,-197.48"/>
<polygon fill="none" stroke="#dedede" points="446.5,-193.81 446.5,-216.07 318.78,-226.94 143.22,-226.94 15.5,-216.07 15.5,-193.81 143.22,-182.94 318.78,-182.94 446.5,-193.81"/>
<text text-anchor="middle" x="231" y="-201.24" font-family="Times,serif" font-size="14.00">BiologicalAssociationsBiologicalAssociationsGraph</text>
</a>
</g>
</g>
<!-- PinboardItem -->
<g id="node3" class="node">
<title>PinboardItem</title>
<g id="a_node3"><a xlink:href="/develop/Data/models.html#pinboard-item" xlink:title="PinboardItem" target="_top">
<polygon fill="#eeefff" stroke="#dddeee" points="616.25,-357.94 525.25,-357.94 525.25,-321.94 616.25,-321.94 616.25,-357.94"/>
<text text-anchor="middle" x="570.75" y="-336.24" font-family="Times,serif" font-size="14.00">PinboardItem</text>
</a>
</g>
</g>
<!-- Role -->
<g id="node4" class="node">
<title>Role</title>
<g id="a_node4"><a xlink:href="/develop/Data/models.html#role" xlink:title="Role" target="_top">
<polygon fill="#eeefff" stroke="#dddeee" points="597.75,-303.94 543.75,-303.94 543.75,-267.94 597.75,-267.94 597.75,-303.94"/>
<text text-anchor="middle" x="570.75" y="-282.24" font-family="Times,serif" font-size="14.00">Role</text>
</a>
</g>
</g>
<!-- VerifierRole -->
<g id="node5" class="node">
<title>VerifierRole</title>
<g id="a_node5"><a xlink:href="/develop/Data/models.html#verifier-role" xlink:title="VerifierRole" target="_top">
<polygon fill="#eeefff" stroke="#dddeee" points="612.25,-249.94 529.25,-249.94 529.25,-213.94 612.25,-213.94 612.25,-249.94"/>
<text text-anchor="middle" x="570.75" y="-228.24" font-family="Times,serif" font-size="14.00">VerifierRole</text>
</a>
</g>
</g>
<!-- Verifier -->
<g id="node6" class="node">
<title>Verifier</title>
<g id="a_node6"><a xlink:href="/develop/Data/models.html#verifier" xlink:title="Verifier" target="_top">
<polygon fill="#eeefff" stroke="#dddeee" points="751.75,-276.94 694.75,-276.94 694.75,-240.94 751.75,-240.94 751.75,-276.94"/>
<text text-anchor="middle" x="723.25" y="-255.24" font-family="Times,serif" font-size="14.00">Verifier</text>
</a>
</g>
</g>
<!-- BiologicalAssociationsGraph -->
<g id="node7" class="node">
<title>BiologicalAssociationsGraph</title>
<g id="a_node7"><a xlink:href="/develop/Data/models.html#biological-associations-graph" xlink:title="BiologicalAssociationsGraph" target="_top">
<polygon fill="#eeefff" stroke="#dddeee" points="658.75,-195.94 482.75,-195.94 482.75,-159.94 658.75,-159.94 658.75,-195.94"/>
<text text-anchor="middle" x="570.75" y="-174.24" font-family="Times,serif" font-size="14.00">BiologicalAssociationsGraph</text>
</a>
</g>
</g>
<!-- Creator -->
<g id="node8" class="node">
<title>Creator</title>
<g id="a_node8"><a xlink:href="/develop/Data/models.html#creator" xlink:title="Creator" target="_top">
<polygon fill="#eeefff" stroke="#dddeee" points="751.75,-103.94 694.75,-103.94 694.75,-67.94 751.75,-67.94 751.75,-103.94"/>
<text text-anchor="middle" x="723.25" y="-82.24" font-family="Times,serif" font-size="14.00">Creator</text>
</a>
</g>
</g>
<!-- Project -->
<g id="node9" class="node">
<title>Project</title>
<g id="a_node9"><a xlink:href="/develop/Data/models.html#project" xlink:title="Project" target="_top">
<polygon fill="#eeefff" stroke="#dddeee" points="598.25,-103.94 543.25,-103.94 543.25,-67.94 598.25,-67.94 598.25,-103.94"/>
<text text-anchor="middle" x="570.75" y="-82.24" font-family="Times,serif" font-size="14.00">Project</text>
</a>
</g>
</g>
<!-- Updater -->
<g id="node10" class="node">
<title>Updater</title>
<g id="a_node10"><a xlink:href="/develop/Data/models.html#updater" xlink:title="Updater" target="_top">
<polygon fill="#eeefff" stroke="#dddeee" points="847.75,-103.94 787.75,-103.94 787.75,-67.94 847.75,-67.94 847.75,-103.94"/>
<text text-anchor="middle" x="817.75" y="-82.24" font-family="Times,serif" font-size="14.00">Updater</text>
</a>
</g>
</g>
</g>
</svg>
