<?xml version="1.0" encoding="UTF-8" standalone="no"?>
<!DOCTYPE svg PUBLIC "-//W3C//DTD SVG 1.1//EN"
 "http://www.w3.org/Graphics/SVG/1.1/DTD/svg11.dtd">
<!-- Generated by graphviz version 2.50.0 (20211204.2007)
 -->
<!-- Title: BiologicalAssociationsGraph Pages: 1 -->
<svg width="1040pt" height="560pt"
 viewBox="0.00 0.00 1039.62 559.50" xmlns="http://www.w3.org/2000/svg" xmlns:xlink="http://www.w3.org/1999/xlink">
<g id="graph0" class="graph" transform="scale(1 1) rotate(0) translate(4 555.5)">
<title>BiologicalAssociationsGraph</title>
<polygon fill="white" stroke="transparent" points="-4,4 -4,-555.5 1035.62,-555.5 1035.62,4 -4,4"/>
<text text-anchor="middle" x="515.81" y="-22.8" font-family="Times,serif" font-size="14.00">Algorithmically generated relationships for BiologicalAssociationsGraph based on assertions of &#39;has_many&#39;, &#39;has_one&#39;, &#39;belongs_to&#39;. </text>
<text text-anchor="middle" x="515.81" y="-7.8" font-family="Times,serif" font-size="14.00">Generated 2022&#45;01&#45;25 11:37:17 &#45;0600.</text>
<!-- Citation&#45;&gt;Source -->
<g id="edge7" class="edge">
<title>Citation&#45;&gt;Source</title>
<path fill="none" stroke="black" d="M67.09,-349.62C127.16,-377.32 276.44,-444.57 405.62,-490 443.85,-503.44 488.62,-515.9 519.13,-523.91"/>
<polygon fill="black" stroke="black" points="518.35,-527.32 528.91,-526.45 520.11,-520.54 518.35,-527.32"/>
</g>
<!-- Citation&#45;&gt;CitationTopic -->
<g id="edge3" class="edge">
<title>Citation&#45;&gt;CitationTopic</title>
<path fill="none" stroke="black" d="M52.26,-319.85C86.12,-272.45 181.15,-139.48 221.88,-82.48"/>
<polygon fill="black" stroke="black" points="224.97,-84.18 227.94,-74.01 219.27,-80.11 224.97,-84.18"/>
</g>
<!-- Source&#45;&gt;SubsequentCitation -->
<!-- Source&#45;&gt;OriginCitation -->
<!-- BiologicalAssociationsGraph&#45;&gt;Citation -->
<g id="edge4" class="edge">
<title>BiologicalAssociationsGraph&#45;&gt;Citation</title>
<path fill="none" stroke="black" d="M114.06,-337C105.11,-337 96.46,-337 88.42,-337"/>
<polygon fill="black" stroke="black" points="88.24,-333.5 78.24,-337 88.24,-340.5 88.24,-333.5"/>
</g>
<!-- BiologicalAssociationsGraph&#45;&gt;Source -->
<g id="edge17" class="edge">
<title>BiologicalAssociationsGraph&#45;&gt;Source</title>
<path fill="none" stroke="black" stroke-dasharray="1,5" d="M274.61,-366.19C300.7,-390.47 338.31,-426.23 369.62,-459 386.38,-476.53 384.75,-487.66 405.62,-500 444.52,-522.99 497.69,-530 529.01,-532.11"/>
<polygon fill="black" stroke="black" points="276.95,-363.58 267.24,-359.35 272.19,-368.72 276.95,-363.58"/>
</g>
<!-- BiologicalAssociationsGraph&#45;&gt;BiologicalAssociationsBiologicalAssociationsGraph -->
<g id="edge2" class="edge">
<title>BiologicalAssociationsGraph&#45;&gt;BiologicalAssociationsBiologicalAssociationsGraph</title>
<path fill="none" stroke="black" d="M369.39,-326.06C377.96,-325.32 386.65,-324.56 395.35,-323.81"/>
<polygon fill="black" stroke="black" points="395.91,-327.28 405.57,-322.93 395.31,-320.3 395.91,-327.28"/>
</g>
<!-- BiologicalAssociationsGraph&#45;&gt;PinboardItem -->
<g id="edge5" class="edge">
<title>BiologicalAssociationsGraph&#45;&gt;PinboardItem</title>
<path fill="none" stroke="black" d="M253.84,-314.93C276.17,-272.76 331.01,-181.03 405.62,-137 434.07,-120.21 470.46,-113.39 500.22,-110.8"/>
<polygon fill="black" stroke="black" points="500.72,-114.27 510.44,-110.05 500.21,-107.29 500.72,-114.27"/>
</g>
<!-- BiologicalAssociationsGraph&#45;&gt;Role -->
<g id="edge6" class="edge">
<title>BiologicalAssociationsGraph&#45;&gt;Role</title>
<path fill="none" stroke="black" d="M277.37,-314.84C309.45,-295.18 359.12,-267.02 405.62,-250 443.08,-236.29 488.08,-227.65 518.86,-222.85"/>
<polygon fill="black" stroke="black" points="519.75,-226.26 529.12,-221.31 518.71,-219.33 519.75,-226.26"/>
</g>
<!-- BiologicalAssociationsGraph&#45;&gt;SubsequentCitation -->
<g id="edge8" class="edge">
<title>BiologicalAssociationsGraph&#45;&gt;SubsequentCitation</title>
<path fill="none" stroke="black" d="M280.57,-359.03C312.71,-376.68 360.69,-400.5 405.62,-413 519.81,-444.76 658.12,-453.36 739.85,-455.51"/>
<polygon fill="black" stroke="black" points="739.94,-459.02 750.02,-455.76 740.11,-452.02 739.94,-459.02"/>
</g>
<!-- BiologicalAssociationsGraph&#45;&gt;VerifierRole -->
<g id="edge11" class="edge">
<title>BiologicalAssociationsGraph&#45;&gt;VerifierRole</title>
<path fill="none" stroke="black" d="M260.42,-314.79C287.75,-282.01 343.72,-221.27 405.62,-191 436.35,-175.97 474.32,-169.24 504.31,-166.26"/>
<polygon fill="black" stroke="black" points="504.9,-169.72 514.55,-165.35 504.28,-162.75 504.9,-169.72"/>
</g>
<!-- BiologicalAssociationsGraph&#45;&gt;Creator -->
<g id="edge13" class="edge">
<title>BiologicalAssociationsGraph&#45;&gt;Creator</title>
<path fill="none" stroke="black" stroke-dasharray="5,2" d="M304.03,-362.47C334.07,-373.63 371.14,-385.43 405.62,-391 537.69,-412.33 573.93,-408.02 706.62,-391 732.78,-387.64 761.76,-379.7 782.39,-373.3"/>
<polygon fill="black" stroke="black" points="305.12,-359.14 294.53,-358.88 302.65,-365.69 305.12,-359.14"/>
</g>
<!-- BiologicalAssociationsGraph&#45;&gt;Project -->
<g id="edge14" class="edge">
<title>BiologicalAssociationsGraph&#45;&gt;Project</title>
<path fill="none" stroke="black" stroke-dasharray="5,2" d="M379.47,-348.81C435.65,-353.67 495.26,-358.82 528.58,-361.71"/>
<polygon fill="black" stroke="black" points="379.65,-345.32 369.39,-347.94 379.05,-352.29 379.65,-345.32"/>
</g>
<!-- BiologicalAssociationsGraph&#45;&gt;Updater -->
<g id="edge15" class="edge">
<title>BiologicalAssociationsGraph&#45;&gt;Updater</title>
<path fill="none" stroke="black" stroke-dasharray="5,2" d="M304.39,-311.49C334.37,-300.39 371.28,-288.65 405.62,-283 509.56,-265.9 781.2,-243.47 879.62,-281 913.59,-293.95 943.03,-325.65 959.25,-345.91"/>
<polygon fill="black" stroke="black" points="303.03,-308.26 294.91,-315.06 305.5,-314.81 303.03,-308.26"/>
</g>
<!-- BiologicalAssociationsGraph&#45;&gt;OriginCitation -->
<g id="edge16" class="edge">
<title>BiologicalAssociationsGraph&#45;&gt;OriginCitation</title>
<path fill="none" stroke="black" stroke-dasharray="1,5" d="M276.22,-365.57C307.59,-390.87 356.87,-426.83 405.62,-447 413.92,-450.44 658.55,-496.56 763.28,-516.22"/>
<polygon fill="black" stroke="black" points="278.21,-362.68 268.25,-359.07 273.78,-368.1 278.21,-362.68"/>
</g>
<!-- BiologicalAssociationsBiologicalAssociationsGraph&#45;&gt;BiologicalAssociation -->
<g id="edge1" class="edge">
<title>BiologicalAssociationsBiologicalAssociationsGraph&#45;&gt;BiologicalAssociation</title>
<path fill="none" stroke="black" d="M706.85,-309.41C715.56,-309.37 724.11,-309.34 732.33,-309.31"/>
<polygon fill="black" stroke="black" points="732.58,-312.81 742.56,-309.27 732.55,-305.81 732.58,-312.81"/>
</g>
<!-- CitationTopic&#45;&gt;Topic -->
<g id="edge10" class="edge">
<title>CitationTopic&#45;&gt;Topic</title>
<path fill="none" stroke="black" d="M287.89,-56C350.23,-56 461.53,-56 518.83,-56"/>
<polygon fill="black" stroke="black" points="518.88,-59.5 528.88,-56 518.88,-52.5 518.88,-59.5"/>
</g>
<!-- Role&#45;&gt;Verifier -->
<!-- SubsequentCitation&#45;&gt;SubsequentSource -->
<g id="edge9" class="edge">
<title>SubsequentCitation&#45;&gt;SubsequentSource</title>
<path fill="none" stroke="black" d="M872.34,-456C883.06,-456 894.29,-456 905.19,-456"/>
<polygon fill="black" stroke="black" points="905.52,-459.5 915.52,-456 905.52,-452.5 905.52,-459.5"/>
</g>
<!-- VerifierRole&#45;&gt;Verifier -->
<g id="edge12" class="edge">
<title>VerifierRole&#45;&gt;Verifier</title>
<path fill="none" stroke="black" d="M597.77,-168.18C645.95,-173.13 725.59,-181.31 772.43,-186.13"/>
<polygon fill="black" stroke="black" points="772.16,-189.62 782.47,-187.16 772.88,-182.65 772.16,-189.62"/>
</g>
<!-- Creator&#45;&gt;Updater -->
<!-- Project&#45;&gt;Creator -->
<!-- Citation -->
<g id="node1" class="node">
<title>Citation</title>
<g id="a_node1"><a xlink:href="/develop/Data/models.html#citation" xlink:title="Citation" target="_top">
<ellipse fill="#abcdef" stroke="#dddeee" cx="39" cy="-337" rx="38.99" ry="18"/>
<text text-anchor="middle" x="39" y="-333.3" font-family="Times,serif" font-size="14.00">Citation</text>
</a>
</g>
</g>
<!-- BiologicalAssociation -->
<g id="node2" class="node">
<title>BiologicalAssociation</title>
<g id="a_node2"><a xlink:href="/develop/Data/models.html#biological-association" xlink:title="BiologicalAssociation" target="_top">
<path fill="#fedcba" stroke="#dddeee" d="M754.62,-291C754.62,-291 867.62,-291 867.62,-291 873.62,-291 879.62,-297 879.62,-303 879.62,-303 879.62,-315 879.62,-315 879.62,-321 873.62,-327 867.62,-327 867.62,-327 754.62,-327 754.62,-327 748.62,-327 742.62,-321 742.62,-315 742.62,-315 742.62,-303 742.62,-303 742.62,-297 748.62,-291 754.62,-291"/>
<text text-anchor="middle" x="811.12" y="-305.3" font-family="Times,serif" font-size="14.00">BiologicalAssociation</text>
</a>
</g>
</g>
<!-- Source -->
<g id="node3" class="node">
<title>Source</title>
<g id="a_node3"><a xlink:href="/develop/Data/models.html#source" xlink:title="Source" target="_top">
<path fill="#fedcba" stroke="#dddeee" d="M541.12,-515C541.12,-515 571.12,-515 571.12,-515 577.12,-515 583.12,-521 583.12,-527 583.12,-527 583.12,-539 583.12,-539 583.12,-545 577.12,-551 571.12,-551 571.12,-551 541.12,-551 541.12,-551 535.12,-551 529.12,-545 529.12,-539 529.12,-539 529.12,-527 529.12,-527 529.12,-521 535.12,-515 541.12,-515"/>
<text text-anchor="middle" x="556.12" y="-529.3" font-family="Times,serif" font-size="14.00">Source</text>
</a>
</g>
</g>
<!-- BiologicalAssociationsGraph -->
<g id="node4" class="node">
<title>BiologicalAssociationsGraph</title>
<g id="a_node4"><a xlink:href="/develop/Data/models.html#biological-associations-graph" xlink:title="BiologicalAssociationsGraph" target="_top">
<polygon fill="#cdefab" stroke="#dedede" points="365.44,-329.54 365.44,-344.46 293.02,-355 190.6,-355 118.17,-344.46 118.17,-329.54 190.6,-319 293.02,-319 365.44,-329.54"/>
<polygon fill="none" stroke="#dedede" points="369.44,-326.08 369.44,-347.92 293.31,-359 190.31,-359 114.18,-347.92 114.18,-326.08 190.31,-315 293.31,-315 369.44,-326.08"/>
<text text-anchor="middle" x="241.81" y="-333.3" font-family="Times,serif" font-size="14.00">BiologicalAssociationsGraph</text>
</a>
</g>
</g>
<!-- BiologicalAssociationsBiologicalAssociationsGraph -->
<g id="node5" class="node">
<title>BiologicalAssociationsBiologicalAssociationsGraph</title>
<g id="a_node5"><a xlink:href="/develop/Data/models.html#biological-associations-biological-associations-graph" xlink:title="BiologicalAssociationsBiologicalAssociationsGraph" target="_top">
<polygon fill="#eeefff" stroke="#dddeee" points="706.62,-328 405.62,-328 405.62,-292 706.62,-292 706.62,-328"/>
<text text-anchor="middle" x="556.12" y="-306.3" font-family="Times,serif" font-size="14.00">BiologicalAssociationsBiologicalAssociationsGraph</text>
</a>
</g>
</g>
<!-- CitationTopic -->
<g id="node6" class="node">
<title>CitationTopic</title>
<g id="a_node6"><a xlink:href="/develop/Data/models.html#citation-topic" xlink:title="CitationTopic" target="_top">
<polygon fill="#eeefff" stroke="#dddeee" points="287.81,-74 195.81,-74 195.81,-38 287.81,-38 287.81,-74"/>
<text text-anchor="middle" x="241.81" y="-52.3" font-family="Times,serif" font-size="14.00">CitationTopic</text>
</a>
</g>
</g>
<!-- PinboardItem -->
<g id="node7" class="node">
<title>PinboardItem</title>
<g id="a_node7"><a xlink:href="/develop/Data/models.html#pinboard-item" xlink:title="PinboardItem" target="_top">
<polygon fill="#eeefff" stroke="#dddeee" points="601.62,-128 510.62,-128 510.62,-92 601.62,-92 601.62,-128"/>
<text text-anchor="middle" x="556.12" y="-106.3" font-family="Times,serif" font-size="14.00">PinboardItem</text>
</a>
</g>
</g>
<!-- Role -->
<g id="node8" class="node">
<title>Role</title>
<g id="a_node8"><a xlink:href="/develop/Data/models.html#role" xlink:title="Role" target="_top">
<polygon fill="#eeefff" stroke="#dddeee" points="583.12,-236 529.12,-236 529.12,-200 583.12,-200 583.12,-236"/>
<text text-anchor="middle" x="556.12" y="-214.3" font-family="Times,serif" font-size="14.00">Role</text>
</a>
</g>
</g>
<!-- SubsequentCitation -->
<g id="node9" class="node">
<title>SubsequentCitation</title>
<g id="a_node9"><a xlink:href="/develop/Data/models.html#subsequent-citation" xlink:title="SubsequentCitation" target="_top">
<polygon fill="#eeefff" stroke="#dddeee" points="872.12,-474 750.12,-474 750.12,-438 872.12,-438 872.12,-474"/>
<text text-anchor="middle" x="811.12" y="-452.3" font-family="Times,serif" font-size="14.00">SubsequentCitation</text>
</a>
</g>
</g>
<!-- SubsequentSource -->
<g id="node10" class="node">
<title>SubsequentSource</title>
<g id="a_node10"><a xlink:href="/develop/Data/models.html#subsequent-source" xlink:title="SubsequentSource" target="_top">
<polygon fill="#eeefff" stroke="#dddeee" points="1031.62,-474 915.62,-474 915.62,-438 1031.62,-438 1031.62,-474"/>
<text text-anchor="middle" x="973.62" y="-452.3" font-family="Times,serif" font-size="14.00">SubsequentSource</text>
</a>
</g>
</g>
<!-- Topic -->
<g id="node11" class="node">
<title>Topic</title>
<g id="a_node11"><a xlink:href="/develop/Data/models.html#topic" xlink:title="Topic" target="_top">
<polygon fill="#eeefff" stroke="#dddeee" points="583.12,-74 529.12,-74 529.12,-38 583.12,-38 583.12,-74"/>
<text text-anchor="middle" x="556.12" y="-52.3" font-family="Times,serif" font-size="14.00">Topic</text>
</a>
</g>
</g>
<!-- VerifierRole -->
<g id="node12" class="node">
<title>VerifierRole</title>
<g id="a_node12"><a xlink:href="/develop/Data/models.html#verifier-role" xlink:title="VerifierRole" target="_top">
<polygon fill="#eeefff" stroke="#dddeee" points="597.62,-182 514.62,-182 514.62,-146 597.62,-146 597.62,-182"/>
<text text-anchor="middle" x="556.12" y="-160.3" font-family="Times,serif" font-size="14.00">VerifierRole</text>
</a>
</g>
</g>
<!-- Verifier -->
<g id="node13" class="node">
<title>Verifier</title>
<g id="a_node13"><a xlink:href="/develop/Data/models.html#verifier" xlink:title="Verifier" target="_top">
<polygon fill="#eeefff" stroke="#dddeee" points="839.62,-208 782.62,-208 782.62,-172 839.62,-172 839.62,-208"/>
<text text-anchor="middle" x="811.12" y="-186.3" font-family="Times,serif" font-size="14.00">Verifier</text>
</a>
</g>
</g>
<!-- Creator -->
<g id="node14" class="node">
<title>Creator</title>
<g id="a_node14"><a xlink:href="/develop/Data/models.html#creator" xlink:title="Creator" target="_top">
<polygon fill="#eeefff" stroke="#dddeee" points="839.62,-382 782.62,-382 782.62,-346 839.62,-346 839.62,-382"/>
<text text-anchor="middle" x="811.12" y="-360.3" font-family="Times,serif" font-size="14.00">Creator</text>
</a>
</g>
</g>
<!-- Project -->
<g id="node15" class="node">
<title>Project</title>
<g id="a_node15"><a xlink:href="/develop/Data/models.html#project" xlink:title="Project" target="_top">
<polygon fill="#eeefff" stroke="#dddeee" points="583.62,-382 528.62,-382 528.62,-346 583.62,-346 583.62,-382"/>
<text text-anchor="middle" x="556.12" y="-360.3" font-family="Times,serif" font-size="14.00">Project</text>
</a>
</g>
</g>
<!-- Updater -->
<g id="node16" class="node">
<title>Updater</title>
<g id="a_node16"><a xlink:href="/develop/Data/models.html#updater" xlink:title="Updater" target="_top">
<polygon fill="#eeefff" stroke="#dddeee" points="1003.62,-382 943.62,-382 943.62,-346 1003.62,-346 1003.62,-382"/>
<text text-anchor="middle" x="973.62" y="-360.3" font-family="Times,serif" font-size="14.00">Updater</text>
</a>
</g>
</g>
<!-- OriginCitation -->
<g id="node17" class="node">
<title>OriginCitation</title>
<g id="a_node17"><a xlink:href="/develop/Data/models.html#origin-citation" xlink:title="OriginCitation" target="_top">
<polygon fill="#eeefff" stroke="#dddeee" points="858.62,-543 763.62,-543 763.62,-507 858.62,-507 858.62,-543"/>
<text text-anchor="middle" x="811.12" y="-521.3" font-family="Times,serif" font-size="14.00">OriginCitation</text>
</a>
</g>
</g>
</g>
</svg>
