<?xml version="1.0" encoding="UTF-8" standalone="no"?>
<!DOCTYPE svg PUBLIC "-//W3C//DTD SVG 1.1//EN"
 "http://www.w3.org/Graphics/SVG/1.1/DTD/svg11.dtd">
<!-- Generated by graphviz version 12.2.1 (20241206.2353)
 -->
<!-- Title: BiologicalRelationship Pages: 1 -->
<svg width="974pt" height="902pt"
 viewBox="0.00 0.00 974.48 902.00" xmlns="http://www.w3.org/2000/svg" xmlns:xlink="http://www.w3.org/1999/xlink">
<g id="graph0" class="graph" transform="scale(1 1) rotate(0) translate(4 898)">
<title>BiologicalRelationship</title>
<polygon fill="white" stroke="none" points="-4,4 -4,-898 970.48,-898 970.48,4 -4,4"/>
<!-- Citation&#45;&gt;Source -->
<g id="edge16" class="edge">
<title>Citation&#45;&gt;Source</title>
<path fill="none" stroke="black" stroke-dasharray="1,5" d="M102.66,-821C189.14,-821 392.29,-821 476.51,-821"/>
<polygon fill="black" stroke="black" points="476.29,-824.5 486.29,-821 476.29,-817.5 476.29,-824.5"/>
</g>
<!-- Citation&#45;&gt;CitationTopic -->
<g id="edge4" class="edge">
<title>Citation&#45;&gt;CitationTopic</title>
<path fill="none" stroke="black" stroke-dasharray="1,5" d="M96.63,-830.21C127.57,-838.58 173.82,-851.08 210.16,-860.91"/>
<polygon fill="black" stroke="black" points="209.07,-864.24 219.64,-863.47 210.9,-857.48 209.07,-864.24"/>
</g>
<!-- Tag&#45;&gt;Keyword -->
<g id="edge10" class="edge">
<title>Tag&#45;&gt;Keyword</title>
<path fill="none" stroke="black" stroke-dasharray="1,5" d="M88.76,-394C122.44,-394 181.46,-394 222.06,-394"/>
<polygon fill="black" stroke="black" points="222,-397.5 232,-394 222,-390.5 222,-397.5"/>
</g>
<!-- Source&#45;&gt;SubsequentCitation -->
<!-- Source&#45;&gt;OriginCitation -->
<!-- BiologicalRelationship&#45;&gt;Citation -->
<g id="edge5" class="edge">
<title>BiologicalRelationship&#45;&gt;Citation</title>
<path fill="none" stroke="black" d="M252.79,-499.26C216.96,-559.88 117.74,-727.7 78.69,-793.77"/>
<polygon fill="black" stroke="black" points="75.8,-791.78 73.72,-802.17 81.82,-795.34 75.8,-791.78"/>
</g>
<!-- BiologicalRelationship&#45;&gt;DataAttribute -->
<g id="edge6" class="edge">
<title>BiologicalRelationship&#45;&gt;DataAttribute</title>
<path fill="none" stroke="black" d="M213.19,-497.5C181.4,-509.85 141.24,-525.45 110.38,-537.43"/>
<polygon fill="black" stroke="black" points="109.35,-534.08 101.3,-540.96 111.89,-540.6 109.35,-534.08"/>
</g>
<!-- BiologicalRelationship&#45;&gt;Identifier -->
<g id="edge7" class="edge">
<title>BiologicalRelationship&#45;&gt;Identifier</title>
<path fill="none" stroke="black" d="M165.56,-489.34C148.6,-491.43 131.6,-493.52 116.43,-495.38"/>
<polygon fill="black" stroke="black" points="116.22,-491.88 106.72,-496.57 117.07,-498.83 116.22,-491.88"/>
</g>
<!-- BiologicalRelationship&#45;&gt;Tag -->
<g id="edge21" class="edge">
<title>BiologicalRelationship&#45;&gt;Tag</title>
<path fill="none" stroke="black" d="M214.99,-456.2C177.52,-440.91 127.68,-420.57 95.37,-407.38"/>
<polygon fill="black" stroke="black" points="97.11,-404.31 86.53,-403.77 94.47,-410.79 97.11,-404.31"/>
</g>
<!-- BiologicalRelationship&#45;&gt;Note -->
<g id="edge11" class="edge">
<title>BiologicalRelationship&#45;&gt;Note</title>
<path fill="none" stroke="black" d="M171.91,-463.59C146.93,-460.03 121.33,-456.38 101.2,-453.51"/>
<polygon fill="black" stroke="black" points="101.91,-450.07 91.51,-452.12 100.92,-457 101.91,-450.07"/>
</g>
<!-- BiologicalRelationship&#45;&gt;BiologicalAssociation -->
<g id="edge1" class="edge">
<title>BiologicalRelationship&#45;&gt;BiologicalAssociation</title>
<path fill="none" stroke="black" d="M371.63,-488.79C392.93,-491.22 415.02,-493.73 435.27,-496.03"/>
<polygon fill="black" stroke="black" points="434.8,-499.5 445.13,-497.15 435.59,-492.55 434.8,-499.5"/>
</g>
<!-- BiologicalRelationship&#45;&gt;Source -->
<g id="edge31" class="edge">
<title>BiologicalRelationship&#45;&gt;Source</title>
<path fill="none" stroke="black" stroke-dasharray="1,5" d="M273.88,-509.65C287.02,-572.69 324.53,-711.68 410.73,-788 429.28,-804.42 456.04,-812.68 477.69,-816.83"/>
<polygon fill="none" stroke="black" points="268.02,-500.78 275.86,-499.2 277.44,-507.04 269.59,-508.62 268.02,-500.78"/>
<polyline fill="none" stroke="black" points="273.51,-507.83 273.91,-509.79"/>
<polygon fill="none" stroke="black" points="488.03,-814.52 486.69,-822.41 478.8,-821.07 480.14,-813.19 488.03,-814.52"/>
<polyline fill="none" stroke="black" points="479.47,-817.13 477.5,-816.79"/>
</g>
<!-- BiologicalRelationship&#45;&gt;BiologicalRelationshipType -->
<g id="edge3" class="edge">
<title>BiologicalRelationship&#45;&gt;BiologicalRelationshipType</title>
<path fill="none" stroke="black" d="M373.06,-465.47C388.37,-463.79 404.05,-462.07 419.14,-460.42"/>
<polygon fill="black" stroke="black" points="419.49,-463.9 429.04,-459.33 418.72,-456.94 419.49,-463.9"/>
</g>
<!-- BiologicalRelationship&#45;&gt;ImportAttribute -->
<g id="edge8" class="edge">
<title>BiologicalRelationship&#45;&gt;ImportAttribute</title>
<path fill="none" stroke="black" d="M319.04,-456.17C346.06,-445.54 379.93,-432.82 410.73,-423 424.19,-418.71 438.79,-414.58 452.66,-410.9"/>
<polygon fill="black" stroke="black" points="453.33,-414.35 462.12,-408.43 451.56,-407.57 453.33,-414.35"/>
</g>
<!-- BiologicalRelationship&#45;&gt;InternalAttribute -->
<g id="edge9" class="edge">
<title>BiologicalRelationship&#45;&gt;InternalAttribute</title>
<path fill="none" stroke="black" d="M319.48,-456.21C338.14,-447.14 358.58,-435.28 374.73,-421 395.79,-402.38 387.7,-385.11 410.73,-369 422.43,-360.82 436.43,-355.12 450.29,-351.14"/>
<polygon fill="black" stroke="black" points="451.05,-354.56 459.87,-348.69 449.32,-347.78 451.05,-354.56"/>
</g>
<!-- BiologicalRelationship&#45;&gt;ObjectBiologicalRelationshipType -->
<g id="edge13" class="edge">
<title>BiologicalRelationship&#45;&gt;ObjectBiologicalRelationshipType</title>
<path fill="none" stroke="black" d="M324.81,-457.02C342.82,-448.33 361.47,-436.51 374.73,-421 407.07,-383.19 374.31,-348.89 410.73,-315 411.5,-314.28 412.29,-313.58 413.1,-312.9"/>
<polygon fill="black" stroke="black" points="414.99,-315.85 421.04,-307.15 410.88,-310.18 414.99,-315.85"/>
</g>
<!-- BiologicalRelationship&#45;&gt;PinboardItem -->
<g id="edge14" class="edge">
<title>BiologicalRelationship&#45;&gt;PinboardItem</title>
<path fill="none" stroke="black" d="M326.61,-457.4C344.42,-448.8 362.5,-436.94 374.73,-421 419.11,-363.18 360.08,-313.41 410.73,-261 423.21,-248.09 441.03,-241.08 458.37,-237.36"/>
<polygon fill="black" stroke="black" points="458.91,-240.82 468.14,-235.62 457.69,-233.93 458.91,-240.82"/>
</g>
<!-- BiologicalRelationship&#45;&gt;Role -->
<g id="edge15" class="edge">
<title>BiologicalRelationship&#45;&gt;Role</title>
<path fill="none" stroke="black" d="M327.68,-457.52C345.35,-448.96 363.06,-437.1 374.73,-421 431.34,-342.91 345.63,-278.16 410.73,-207 427.29,-188.9 454.32,-182.3 476.59,-180.14"/>
<polygon fill="black" stroke="black" points="476.8,-183.63 486.54,-179.47 476.33,-176.65 476.8,-183.63"/>
</g>
<!-- BiologicalRelationship&#45;&gt;SubjectBiologicalRelationshipType -->
<g id="edge18" class="edge">
<title>BiologicalRelationship&#45;&gt;SubjectBiologicalRelationshipType</title>
<path fill="none" stroke="black" d="M328.5,-457.76C346.1,-449.24 363.57,-437.33 374.73,-421 455.99,-302.11 316.5,-207.89 410.73,-99 410.99,-98.7 411.26,-98.4 411.53,-98.1"/>
<polygon fill="black" stroke="black" points="413.86,-100.71 418.9,-91.39 409.15,-95.53 413.86,-100.71"/>
</g>
<!-- BiologicalRelationship&#45;&gt;SubsequentCitation -->
<g id="edge19" class="edge">
<title>BiologicalRelationship&#45;&gt;SubsequentCitation</title>
<path fill="none" stroke="black" d="M278.79,-499.23C298.97,-538.12 346.19,-618.16 410.73,-658 491.34,-707.76 526.98,-680.58 619.48,-701 633.56,-704.11 648.58,-707.55 662.96,-710.91"/>
<polygon fill="black" stroke="black" points="661.79,-714.23 672.33,-713.11 663.39,-707.42 661.79,-714.23"/>
</g>
<!-- BiologicalRelationship&#45;&gt;Uri -->
<g id="edge23" class="edge">
<title>BiologicalRelationship&#45;&gt;Uri</title>
<path fill="none" stroke="black" d="M328.93,-457.73C346.45,-449.22 363.76,-437.33 374.73,-421 421.54,-351.33 356.31,-108.91 410.73,-45 426.71,-26.24 453.94,-19.68 476.44,-17.71"/>
<polygon fill="black" stroke="black" points="476.4,-21.22 486.19,-17.14 476,-14.23 476.4,-21.22"/>
</g>
<!-- BiologicalRelationship&#45;&gt;Uuid -->
<g id="edge24" class="edge">
<title>BiologicalRelationship&#45;&gt;Uuid</title>
<path fill="none" stroke="black" d="M276.38,-499.29C294.23,-543.52 340.09,-642.68 410.73,-696 429.84,-710.42 455.53,-718.41 476.52,-722.81"/>
<polygon fill="black" stroke="black" points="475.67,-726.21 486.14,-724.61 476.96,-719.33 475.67,-726.21"/>
</g>
<!-- BiologicalRelationship&#45;&gt;VerifierRole -->
<g id="edge25" class="edge">
<title>BiologicalRelationship&#45;&gt;VerifierRole</title>
<path fill="none" stroke="black" d="M328,-457.74C345.68,-449.2 363.33,-437.29 374.73,-421 443.64,-322.54 331.09,-243 410.73,-153 423.67,-138.38 443.44,-131.22 462.24,-127.85"/>
<polygon fill="black" stroke="black" points="462.55,-131.34 471.95,-126.46 461.55,-124.41 462.55,-131.34"/>
</g>
<!-- BiologicalRelationship&#45;&gt;Creator -->
<g id="edge27" class="edge">
<title>BiologicalRelationship&#45;&gt;Creator</title>
<path fill="none" stroke="black" stroke-dasharray="5,2" d="M295.2,-507.1C321.68,-533.92 364.56,-571.28 410.73,-587 515.26,-622.6 649.28,-587.86 706.37,-569.62"/>
<polygon fill="black" stroke="black" points="298.04,-505 288.58,-500.24 293.01,-509.87 298.04,-505"/>
</g>
<!-- BiologicalRelationship&#45;&gt;Project -->
<g id="edge28" class="edge">
<title>BiologicalRelationship&#45;&gt;Project</title>
<path fill="none" stroke="black" stroke-dasharray="5,2" d="M329.17,-502.18C354.24,-512.07 383.67,-523.15 410.73,-532 436.53,-540.44 466.53,-548.36 487.54,-553.61"/>
<polygon fill="black" stroke="black" points="330.7,-499.02 320.12,-498.58 328.12,-505.52 330.7,-499.02"/>
</g>
<!-- BiologicalRelationship&#45;&gt;Updater -->
<g id="edge29" class="edge">
<title>BiologicalRelationship&#45;&gt;Updater</title>
<path fill="none" stroke="black" stroke-dasharray="5,2" d="M290.33,-508.44C315.42,-540.69 359.37,-588.9 410.73,-609 578.02,-674.48 800.1,-601.82 878.61,-571.78"/>
<polygon fill="black" stroke="black" points="293.22,-506.45 284.38,-500.61 287.64,-510.69 293.22,-506.45"/>
</g>
<!-- BiologicalRelationship&#45;&gt;OriginCitation -->
<g id="edge30" class="edge">
<title>BiologicalRelationship&#45;&gt;OriginCitation</title>
<path fill="none" stroke="black" d="M274.29,-509.23C287.82,-568.7 325.52,-695.1 410.73,-755 452.54,-784.39 596.19,-793.21 677.26,-795.86"/>
<polygon fill="none" stroke="black" points="268.31,-500.61 276.12,-498.9 277.83,-506.72 270.02,-508.43 268.31,-500.61"/>
<polyline fill="none" stroke="black" points="273.93,-507.57 274.35,-509.53"/>
<polygon fill="none" stroke="black" points="686.93,-792.16 686.69,-800.15 678.69,-799.91 678.93,-791.91 686.93,-792.16"/>
<polyline fill="none" stroke="black" points="678.81,-795.91 676.81,-795.85"/>
</g>
<!-- BiologicalRelationshipType&#45;&gt;BiologicalProperty -->
<g id="edge2" class="edge">
<title>BiologicalRelationshipType&#45;&gt;BiologicalProperty</title>
<path fill="none" stroke="black" stroke-dasharray="1,5" d="M599.46,-450C620.76,-450 643.44,-450 664,-450"/>
<polygon fill="black" stroke="black" points="664,-453.5 674,-450 664,-446.5 664,-453.5"/>
</g>
<!-- CitationTopic&#45;&gt;Topic -->
<g id="edge22" class="edge">
<title>CitationTopic&#45;&gt;Topic</title>
<path fill="none" stroke="black" stroke-dasharray="1,5" d="M312.82,-876C359.69,-876 432.4,-876 476.41,-876"/>
<polygon fill="black" stroke="black" points="476.23,-879.5 486.23,-876 476.23,-872.5 476.23,-879.5"/>
</g>
<!-- ObjectBiologicalRelationshipType&#45;&gt;ObjectBiologicalProperty -->
<g id="edge12" class="edge">
<title>ObjectBiologicalRelationshipType&#45;&gt;ObjectBiologicalProperty</title>
<path fill="none" stroke="black" stroke-dasharray="1,5" d="M617.45,-288C627.01,-288 636.66,-288 646.08,-288"/>
<polygon fill="black" stroke="black" points="645.94,-291.5 655.94,-288 645.94,-284.5 645.94,-291.5"/>
</g>
<!-- Role&#45;&gt;Verifier -->
<!-- SubjectBiologicalRelationshipType&#45;&gt;SubjectBiologicalProperty -->
<g id="edge17" class="edge">
<title>SubjectBiologicalRelationshipType&#45;&gt;SubjectBiologicalProperty</title>
<path fill="none" stroke="black" stroke-dasharray="1,5" d="M619.68,-72C627.82,-72 636,-72 644.04,-72"/>
<polygon fill="black" stroke="black" points="643.77,-75.5 653.77,-72 643.77,-68.5 643.77,-75.5"/>
</g>
<!-- SubsequentCitation&#45;&gt;SubsequentSource -->
<g id="edge20" class="edge">
<title>SubsequentCitation&#45;&gt;SubsequentSource</title>
<path fill="none" stroke="black" stroke-dasharray="1,5" d="M796.09,-728C809.96,-728 824.82,-728 839.03,-728"/>
<polygon fill="black" stroke="black" points="838.74,-731.5 848.74,-728 838.74,-724.5 838.74,-731.5"/>
</g>
<!-- VerifierRole&#45;&gt;Verifier -->
<g id="edge26" class="edge">
<title>VerifierRole&#45;&gt;Verifier</title>
<path fill="none" stroke="black" stroke-dasharray="1,5" d="M556.86,-131.05C596.28,-135.93 655.64,-143.28 694.63,-148.11"/>
<polygon fill="black" stroke="black" points="694.17,-151.58 704.53,-149.34 695.03,-144.63 694.17,-151.58"/>
</g>
<!-- Creator&#45;&gt;Updater -->
<!-- Project&#45;&gt;Creator -->
<!-- Citation -->
<g id="node1" class="node">
<title>Citation</title>
<g id="a_node1"><a xlink:href="/develop/Data/models.html#citation" xlink:title="Citation" target="_top">
<ellipse fill="#abcdef" stroke="#dddeee" cx="61.59" cy="-821" rx="40.6" ry="18"/>
<text text-anchor="middle" x="61.59" y="-815.95" font-family="Times,serif" font-size="14.00">Citation</text>
</a>
</g>
</g>
<!-- DataAttribute -->
<g id="node2" class="node">
<title>DataAttribute</title>
<g id="a_node2"><a xlink:href="/develop/Data/models.html#data-attribute" xlink:title="DataAttribute" target="_top">
<ellipse fill="#abcdef" stroke="#dddeee" cx="61.59" cy="-556" rx="61.59" ry="18"/>
<text text-anchor="middle" x="61.59" y="-550.95" font-family="Times,serif" font-size="14.00">DataAttribute</text>
</a>
</g>
</g>
<!-- Identifier -->
<g id="node3" class="node">
<title>Identifier</title>
<g id="a_node3"><a xlink:href="/develop/Data/models.html#identifier" xlink:title="Identifier" target="_top">
<ellipse fill="#abcdef" stroke="#dddeee" cx="61.59" cy="-502" rx="45.21" ry="18"/>
<text text-anchor="middle" x="61.59" y="-496.95" font-family="Times,serif" font-size="14.00">Identifier</text>
</a>
</g>
</g>
<!-- Tag -->
<g id="node4" class="node">
<title>Tag</title>
<g id="a_node4"><a xlink:href="/develop/Data/models.html#tag" xlink:title="Tag" target="_top">
<ellipse fill="#abcdef" stroke="#dddeee" cx="61.59" cy="-394" rx="27" ry="18"/>
<text text-anchor="middle" x="61.59" y="-388.95" font-family="Times,serif" font-size="14.00">Tag</text>
</a>
</g>
</g>
<!-- Note -->
<g id="node5" class="node">
<title>Note</title>
<g id="a_node5"><a xlink:href="/develop/Data/models.html#note" xlink:title="Note" target="_top">
<ellipse fill="#abcdef" stroke="#dddeee" cx="61.59" cy="-448" rx="28.83" ry="18"/>
<text text-anchor="middle" x="61.59" y="-442.95" font-family="Times,serif" font-size="14.00">Note</text>
</a>
</g>
</g>
<!-- BiologicalAssociation -->
<g id="node6" class="node">
<title>BiologicalAssociation</title>
<g id="a_node6"><a xlink:href="/develop/Data/models.html#biological-association" xlink:title="BiologicalAssociation" target="_top">
<path fill="#fedcba" stroke="#dddeee" d="M459.11,-487C459.11,-487 571.11,-487 571.11,-487 577.11,-487 583.11,-493 583.11,-499 583.11,-499 583.11,-511 583.11,-511 583.11,-517 577.11,-523 571.11,-523 571.11,-523 459.11,-523 459.11,-523 453.11,-523 447.11,-517 447.11,-511 447.11,-511 447.11,-499 447.11,-499 447.11,-493 453.11,-487 459.11,-487"/>
<text text-anchor="middle" x="515.11" y="-500.2" font-family="Times,serif" font-size="14.00">BiologicalAssociation</text>
</a>
</g>
</g>
<!-- Source -->
<g id="node7" class="node">
<title>Source</title>
<g id="a_node7"><a xlink:href="/develop/Data/models.html#source" xlink:title="Source" target="_top">
<path fill="#fedcba" stroke="#dddeee" d="M500.11,-803C500.11,-803 530.11,-803 530.11,-803 536.11,-803 542.11,-809 542.11,-815 542.11,-815 542.11,-827 542.11,-827 542.11,-833 536.11,-839 530.11,-839 530.11,-839 500.11,-839 500.11,-839 494.11,-839 488.11,-833 488.11,-827 488.11,-827 488.11,-815 488.11,-815 488.11,-809 494.11,-803 500.11,-803"/>
<text text-anchor="middle" x="515.11" y="-816.2" font-family="Times,serif" font-size="14.00">Source</text>
</a>
</g>
</g>
<!-- BiologicalRelationship -->
<g id="node8" class="node">
<title>BiologicalRelationship</title>
<g id="a_node8"><a xlink:href="/develop/Data/models.html#biological-relationship" xlink:title="BiologicalRelationship" target="_top">
<polygon fill="#cdefab" stroke="#dedede" points="370.73,-469.54 370.73,-484.46 309.94,-495 223.97,-495 163.18,-484.46 163.18,-469.54 223.97,-459 309.94,-459 370.73,-469.54"/>
<polygon fill="none" stroke="#dedede" points="374.73,-466.18 374.73,-487.82 310.28,-499 223.62,-499 159.18,-487.82 159.18,-466.18 223.62,-455 310.28,-455 374.73,-466.18"/>
<text text-anchor="middle" x="266.95" y="-471.95" font-family="Times,serif" font-size="14.00">BiologicalRelationship</text>
</a>
</g>
</g>
<!-- BiologicalRelationshipType -->
<g id="node9" class="node">
<title>BiologicalRelationshipType</title>
<g id="a_node9"><a xlink:href="/develop/Data/models.html#biological-relationship-type" xlink:title="BiologicalRelationshipType" target="_top">
<polygon fill="#eeefff" stroke="#dddeee" points="599.23,-468 430.98,-468 430.98,-432 599.23,-432 599.23,-468"/>
<text text-anchor="middle" x="515.11" y="-444.95" font-family="Times,serif" font-size="14.00">BiologicalRelationshipType</text>
</a>
</g>
</g>
<!-- BiologicalProperty -->
<g id="node10" class="node">
<title>BiologicalProperty</title>
<g id="a_node10"><a xlink:href="/develop/Data/models.html#biological-property" xlink:title="BiologicalProperty" target="_top">
<polygon fill="#eeefff" stroke="#dddeee" points="794.48,-468 675.73,-468 675.73,-432 794.48,-432 794.48,-468"/>
<text text-anchor="middle" x="735.11" y="-444.95" font-family="Times,serif" font-size="14.00">BiologicalProperty</text>
</a>
</g>
</g>
<!-- CitationTopic -->
<g id="node11" class="node">
<title>CitationTopic</title>
<g id="a_node11"><a xlink:href="/develop/Data/models.html#citation-topic" xlink:title="CitationTopic" target="_top">
<polygon fill="#eeefff" stroke="#dddeee" points="312.45,-894 221.45,-894 221.45,-858 312.45,-858 312.45,-894"/>
<text text-anchor="middle" x="266.95" y="-870.95" font-family="Times,serif" font-size="14.00">CitationTopic</text>
</a>
</g>
</g>
<!-- ImportAttribute -->
<g id="node12" class="node">
<title>ImportAttribute</title>
<g id="a_node12"><a xlink:href="/develop/Data/models.html#import-attribute" xlink:title="ImportAttribute" target="_top">
<polygon fill="#eeefff" stroke="#dddeee" points="566.23,-414 463.98,-414 463.98,-378 566.23,-378 566.23,-414"/>
<text text-anchor="middle" x="515.11" y="-390.95" font-family="Times,serif" font-size="14.00">ImportAttribute</text>
</a>
</g>
</g>
<!-- InternalAttribute -->
<g id="node13" class="node">
<title>InternalAttribute</title>
<g id="a_node13"><a xlink:href="/develop/Data/models.html#internal-attribute" xlink:title="InternalAttribute" target="_top">
<polygon fill="#eeefff" stroke="#dddeee" points="568.48,-360 461.73,-360 461.73,-324 568.48,-324 568.48,-360"/>
<text text-anchor="middle" x="515.11" y="-336.95" font-family="Times,serif" font-size="14.00">InternalAttribute</text>
</a>
</g>
</g>
<!-- Keyword -->
<g id="node14" class="node">
<title>Keyword</title>
<g id="a_node14"><a xlink:href="/develop/Data/models.html#keyword" xlink:title="Keyword" target="_top">
<polygon fill="#eeefff" stroke="#dddeee" points="300.08,-412 233.83,-412 233.83,-376 300.08,-376 300.08,-412"/>
<text text-anchor="middle" x="266.95" y="-388.95" font-family="Times,serif" font-size="14.00">Keyword</text>
</a>
</g>
</g>
<!-- ObjectBiologicalRelationshipType -->
<g id="node15" class="node">
<title>ObjectBiologicalRelationshipType</title>
<g id="a_node15"><a xlink:href="/develop/Data/models.html#object-biological-relationship-type" xlink:title="ObjectBiologicalRelationshipType" target="_top">
<polygon fill="#eeefff" stroke="#dddeee" points="617.23,-306 412.98,-306 412.98,-270 617.23,-270 617.23,-306"/>
<text text-anchor="middle" x="515.11" y="-282.95" font-family="Times,serif" font-size="14.00">ObjectBiologicalRelationshipType</text>
</a>
</g>
</g>
<!-- ObjectBiologicalProperty -->
<g id="node16" class="node">
<title>ObjectBiologicalProperty</title>
<g id="a_node16"><a xlink:href="/develop/Data/models.html#object-biological-property" xlink:title="ObjectBiologicalProperty" target="_top">
<polygon fill="#eeefff" stroke="#dddeee" points="812.48,-306 657.73,-306 657.73,-270 812.48,-270 812.48,-306"/>
<text text-anchor="middle" x="735.11" y="-282.95" font-family="Times,serif" font-size="14.00">ObjectBiologicalProperty</text>
</a>
</g>
</g>
<!-- PinboardItem -->
<g id="node17" class="node">
<title>PinboardItem</title>
<g id="a_node17"><a xlink:href="/develop/Data/models.html#pinboard-item" xlink:title="PinboardItem" target="_top">
<polygon fill="#eeefff" stroke="#dddeee" points="560.23,-252 469.98,-252 469.98,-216 560.23,-216 560.23,-252"/>
<text text-anchor="middle" x="515.11" y="-228.95" font-family="Times,serif" font-size="14.00">PinboardItem</text>
</a>
</g>
</g>
<!-- Role -->
<g id="node18" class="node">
<title>Role</title>
<g id="a_node18"><a xlink:href="/develop/Data/models.html#role" xlink:title="Role" target="_top">
<polygon fill="#eeefff" stroke="#dddeee" points="542.11,-198 488.11,-198 488.11,-162 542.11,-162 542.11,-198"/>
<text text-anchor="middle" x="515.11" y="-174.95" font-family="Times,serif" font-size="14.00">Role</text>
</a>
</g>
</g>
<!-- SubjectBiologicalRelationshipType -->
<g id="node19" class="node">
<title>SubjectBiologicalRelationshipType</title>
<g id="a_node19"><a xlink:href="/develop/Data/models.html#subject-biological-relationship-type" xlink:title="SubjectBiologicalRelationshipType" target="_top">
<polygon fill="#eeefff" stroke="#dddeee" points="619.48,-90 410.73,-90 410.73,-54 619.48,-54 619.48,-90"/>
<text text-anchor="middle" x="515.11" y="-66.95" font-family="Times,serif" font-size="14.00">SubjectBiologicalRelationshipType</text>
</a>
</g>
</g>
<!-- SubjectBiologicalProperty -->
<g id="node20" class="node">
<title>SubjectBiologicalProperty</title>
<g id="a_node20"><a xlink:href="/develop/Data/models.html#subject-biological-property" xlink:title="SubjectBiologicalProperty" target="_top">
<polygon fill="#eeefff" stroke="#dddeee" points="814.73,-90 655.48,-90 655.48,-54 814.73,-54 814.73,-90"/>
<text text-anchor="middle" x="735.11" y="-66.95" font-family="Times,serif" font-size="14.00">SubjectBiologicalProperty</text>
</a>
</g>
</g>
<!-- SubsequentCitation -->
<g id="node21" class="node">
<title>SubsequentCitation</title>
<g id="a_node21"><a xlink:href="/develop/Data/models.html#subsequent-citation" xlink:title="SubsequentCitation" target="_top">
<polygon fill="#eeefff" stroke="#dddeee" points="795.98,-746 674.23,-746 674.23,-710 795.98,-710 795.98,-746"/>
<text text-anchor="middle" x="735.11" y="-722.95" font-family="Times,serif" font-size="14.00">SubsequentCitation</text>
</a>
</g>
</g>
<!-- SubsequentSource -->
<g id="node22" class="node">
<title>SubsequentSource</title>
<g id="a_node22"><a xlink:href="/develop/Data/models.html#subsequent-source" xlink:title="SubsequentSource" target="_top">
<polygon fill="#eeefff" stroke="#dddeee" points="966.48,-746 850.73,-746 850.73,-710 966.48,-710 966.48,-746"/>
<text text-anchor="middle" x="908.61" y="-722.95" font-family="Times,serif" font-size="14.00">SubsequentSource</text>
</a>
</g>
</g>
<!-- Topic -->
<g id="node23" class="node">
<title>Topic</title>
<g id="a_node23"><a xlink:href="/develop/Data/models.html#topic" xlink:title="Topic" target="_top">
<polygon fill="#eeefff" stroke="#dddeee" points="542.11,-894 488.11,-894 488.11,-858 542.11,-858 542.11,-894"/>
<text text-anchor="middle" x="515.11" y="-870.95" font-family="Times,serif" font-size="14.00">Topic</text>
</a>
</g>
</g>
<!-- Uri -->
<g id="node24" class="node">
<title>Uri</title>
<g id="a_node24"><a xlink:href="/develop/Data/models.html#uri" xlink:title="Uri" target="_top">
<polygon fill="#eeefff" stroke="#dddeee" points="542.11,-36 488.11,-36 488.11,0 542.11,0 542.11,-36"/>
<text text-anchor="middle" x="515.11" y="-12.95" font-family="Times,serif" font-size="14.00">Uri</text>
</a>
</g>
</g>
<!-- Uuid -->
<g id="node25" class="node">
<title>Uuid</title>
<g id="a_node25"><a xlink:href="/develop/Data/models.html#uuid" xlink:title="Uuid" target="_top">
<polygon fill="#eeefff" stroke="#dddeee" points="542.11,-746 488.11,-746 488.11,-710 542.11,-710 542.11,-746"/>
<text text-anchor="middle" x="515.11" y="-722.95" font-family="Times,serif" font-size="14.00">Uuid</text>
</a>
</g>
</g>
<!-- VerifierRole -->
<g id="node26" class="node">
<title>VerifierRole</title>
<g id="a_node26"><a xlink:href="/develop/Data/models.html#verifier-role" xlink:title="VerifierRole" target="_top">
<polygon fill="#eeefff" stroke="#dddeee" points="556.48,-144 473.73,-144 473.73,-108 556.48,-108 556.48,-144"/>
<text text-anchor="middle" x="515.11" y="-120.95" font-family="Times,serif" font-size="14.00">VerifierRole</text>
</a>
</g>
</g>
<!-- Verifier -->
<g id="node27" class="node">
<title>Verifier</title>
<g id="a_node27"><a xlink:href="/develop/Data/models.html#verifier" xlink:title="Verifier" target="_top">
<polygon fill="#eeefff" stroke="#dddeee" points="763.73,-171 706.48,-171 706.48,-135 763.73,-135 763.73,-171"/>
<text text-anchor="middle" x="735.11" y="-147.95" font-family="Times,serif" font-size="14.00">Verifier</text>
</a>
</g>
</g>
<!-- Creator -->
<g id="node28" class="node">
<title>Creator</title>
<g id="a_node28"><a xlink:href="/develop/Data/models.html#creator" xlink:title="Creator" target="_top">
<polygon fill="#eeefff" stroke="#dddeee" points="763.36,-578 706.86,-578 706.86,-542 763.36,-542 763.36,-578"/>
<text text-anchor="middle" x="735.11" y="-554.95" font-family="Times,serif" font-size="14.00">Creator</text>
</a>
</g>
</g>
<!-- Project -->
<g id="node29" class="node">
<title>Project</title>
<g id="a_node29"><a xlink:href="/develop/Data/models.html#project" xlink:title="Project" target="_top">
<polygon fill="#eeefff" stroke="#dddeee" points="542.23,-578 487.98,-578 487.98,-542 542.23,-542 542.23,-578"/>
<text text-anchor="middle" x="515.11" y="-554.95" font-family="Times,serif" font-size="14.00">Project</text>
</a>
</g>
</g>
<!-- Updater -->
<g id="node30" class="node">
<title>Updater</title>
<g id="a_node30"><a xlink:href="/develop/Data/models.html#updater" xlink:title="Updater" target="_top">
<polygon fill="#eeefff" stroke="#dddeee" points="938.36,-578 878.86,-578 878.86,-542 938.36,-542 938.36,-578"/>
<text text-anchor="middle" x="908.61" y="-554.95" font-family="Times,serif" font-size="14.00">Updater</text>
</a>
</g>
</g>
<!-- OriginCitation -->
<g id="node31" class="node">
<title>OriginCitation</title>
<g id="a_node31"><a xlink:href="/develop/Data/models.html#origin-citation" xlink:title="OriginCitation" target="_top">
<polygon fill="#eeefff" stroke="#dddeee" points="782.48,-815 687.73,-815 687.73,-779 782.48,-779 782.48,-815"/>
<text text-anchor="middle" x="735.11" y="-791.95" font-family="Times,serif" font-size="14.00">OriginCitation</text>
</a>
</g>
</g>
</g>
</svg>
