<?xml version="1.0" encoding="UTF-8" standalone="no"?>
<!DOCTYPE svg PUBLIC "-//W3C//DTD SVG 1.1//EN"
 "http://www.w3.org/Graphics/SVG/1.1/DTD/svg11.dtd">
<!-- Generated by graphviz version 12.2.1 (20241206.2353)
 -->
<!-- Title: BiologicalAssociationsBiologicalAssociationsGraph Pages: 1 -->
<svg width="859pt" height="383pt"
 viewBox="0.00 0.00 859.30 382.98" xmlns="http://www.w3.org/2000/svg" xmlns:xlink="http://www.w3.org/1999/xlink">
<g id="graph0" class="graph" transform="scale(1 1) rotate(0) translate(4 378.98)">
<title>BiologicalAssociationsBiologicalAssociationsGraph</title>
<polygon fill="white" stroke="none" points="-4,4 -4,-378.98 855.3,-378.98 855.3,4 -4,4"/>
<!-- BiologicalAssociationsBiologicalAssociationsGraph&#45;&gt;BiologicalAssociation -->
<g id="edge5" class="edge">
<title>BiologicalAssociationsBiologicalAssociationsGraph&#45;&gt;BiologicalAssociation</title>
<path fill="none" stroke="black" stroke-dasharray="5,2" d="M266.2,-195.23C315.83,-230.41 404.66,-290.01 487.55,-328.48 495,-331.93 502.99,-335.14 510.99,-338.06"/>
<polygon fill="black" stroke="black" points="268.51,-192.58 258.33,-189.63 264.44,-198.28 268.51,-192.58"/>
</g>
<!-- BiologicalAssociationsBiologicalAssociationsGraph&#45;&gt;PinboardItem -->
<g id="edge1" class="edge">
<title>BiologicalAssociationsBiologicalAssociationsGraph&#45;&gt;PinboardItem</title>
<path fill="none" stroke="black" d="M277.21,-188.96C329.36,-211.82 413.38,-247.6 487.55,-274.48 497.65,-278.14 508.52,-281.77 519.02,-285.12"/>
<polygon fill="black" stroke="black" points="517.76,-288.39 528.35,-288.05 519.86,-281.71 517.76,-288.39"/>
</g>
<!-- BiologicalAssociationsBiologicalAssociationsGraph&#45;&gt;Role -->
<g id="edge2" class="edge">
<title>BiologicalAssociationsBiologicalAssociationsGraph&#45;&gt;Role</title>
<path fill="none" stroke="black" d="M321.67,-188.61C392.47,-205.13 485.42,-226.81 536.46,-238.71"/>
<polygon fill="black" stroke="black" points="535.58,-242.1 546.12,-240.96 537.17,-235.28 535.58,-242.1"/>
</g>
<!-- BiologicalAssociationsBiologicalAssociationsGraph&#45;&gt;VerifierRole -->
<g id="edge3" class="edge">
<title>BiologicalAssociationsBiologicalAssociationsGraph&#45;&gt;VerifierRole</title>
<path fill="none" stroke="black" d="M414.64,-181.08C454.29,-184.17 492.94,-187.17 522.25,-189.45"/>
<polygon fill="black" stroke="black" points="521.66,-192.92 531.9,-190.2 522.2,-185.94 521.66,-192.92"/>
</g>
<!-- BiologicalAssociationsBiologicalAssociationsGraph&#45;&gt;BiologicalAssociationsGraph -->
<g id="edge6" class="edge">
<title>BiologicalAssociationsBiologicalAssociationsGraph&#45;&gt;BiologicalAssociationsGraph</title>
<path fill="none" stroke="black" stroke-dasharray="5,2" d="M425.92,-151C447.42,-149.32 468.38,-147.69 487.45,-146.21"/>
<polygon fill="black" stroke="black" points="425.85,-147.49 416.15,-151.75 426.39,-154.47 425.85,-147.49"/>
</g>
<!-- BiologicalAssociationsBiologicalAssociationsGraph&#45;&gt;Creator -->
<g id="edge7" class="edge">
<title>BiologicalAssociationsBiologicalAssociationsGraph&#45;&gt;Creator</title>
<path fill="none" stroke="black" stroke-dasharray="5,2" d="M341.86,-142.76C465.7,-117.14 647.12,-79.33 662.55,-74.48 674.57,-70.7 687.43,-65.48 698.43,-60.63"/>
<polygon fill="black" stroke="black" points="341.38,-139.28 332.29,-144.73 342.79,-146.14 341.38,-139.28"/>
</g>
<!-- BiologicalAssociationsBiologicalAssociationsGraph&#45;&gt;Project -->
<g id="edge8" class="edge">
<title>BiologicalAssociationsBiologicalAssociationsGraph&#45;&gt;Project</title>
<path fill="none" stroke="black" stroke-dasharray="5,2" d="M302.75,-140.44C380.15,-113.92 495.9,-74.26 547.54,-56.56"/>
<polygon fill="black" stroke="black" points="301.85,-137.05 293.53,-143.6 304.12,-143.67 301.85,-137.05"/>
</g>
<!-- BiologicalAssociationsBiologicalAssociationsGraph&#45;&gt;Updater -->
<g id="edge9" class="edge">
<title>BiologicalAssociationsBiologicalAssociationsGraph&#45;&gt;Updater</title>
<path fill="none" stroke="black" stroke-dasharray="5,2" d="M264.27,-137.22C312.65,-101.51 400.95,-43.07 487.55,-20.48 602.91,9.62 638.9,2.92 755.8,-20.48 767.86,-22.89 780.49,-27.6 791.35,-32.43"/>
<polygon fill="black" stroke="black" points="262.26,-134.35 256.35,-143.14 266.45,-139.96 262.26,-134.35"/>
</g>
<!-- Role&#45;&gt;Verifier -->
<!-- VerifierRole&#45;&gt;Verifier -->
<g id="edge4" class="edge">
<title>VerifierRole&#45;&gt;Verifier</title>
<path fill="none" stroke="black" stroke-dasharray="1,5" d="M616.68,-200.79C638.61,-204.73 665.56,-209.58 687.23,-213.47"/>
<polygon fill="black" stroke="black" points="686.39,-216.88 696.85,-215.2 687.63,-209.99 686.39,-216.88"/>
</g>
<!-- Creator&#45;&gt;Updater -->
<!-- Project&#45;&gt;Creator -->
<!-- BiologicalAssociation -->
<g id="node1" class="node">
<title>BiologicalAssociation</title>
<g id="a_node1"><a xlink:href="/develop/Data/models.html#biological-association" xlink:title="BiologicalAssociation" target="_top">
<path fill="#fedcba" stroke="#dddeee" d="M519.05,-338.48C519.05,-338.48 631.05,-338.48 631.05,-338.48 637.05,-338.48 643.05,-344.48 643.05,-350.48 643.05,-350.48 643.05,-362.48 643.05,-362.48 643.05,-368.48 637.05,-374.48 631.05,-374.48 631.05,-374.48 519.05,-374.48 519.05,-374.48 513.05,-374.48 507.05,-368.48 507.05,-362.48 507.05,-362.48 507.05,-350.48 507.05,-350.48 507.05,-344.48 513.05,-338.48 519.05,-338.48"/>
<text text-anchor="middle" x="575.05" y="-351.68" font-family="Times,serif" font-size="14.00">BiologicalAssociation</text>
</a>
</g>
</g>
<!-- BiologicalAssociationsBiologicalAssociationsGraph -->
<g id="node2" class="node">
<title>BiologicalAssociationsBiologicalAssociationsGraph</title>
<g id="a_node2"><a xlink:href="/develop/Data/models.html#biological-associations-biological-associations-graph" xlink:title="BiologicalAssociationsBiologicalAssociationsGraph" target="_top">
<polygon fill="#cdefab" stroke="#dedede" points="447.55,-159.02 447.55,-173.93 317.64,-184.48 133.91,-184.48 4,-173.93 4,-159.02 133.91,-148.48 317.64,-148.48 447.55,-159.02"/>
<polygon fill="none" stroke="#dedede" points="451.55,-155.33 451.55,-177.62 317.8,-188.48 133.75,-188.48 0,-177.62 0,-155.33 133.75,-144.48 317.8,-144.48 451.55,-155.33"/>
<text text-anchor="middle" x="225.78" y="-161.43" font-family="Times,serif" font-size="14.00">BiologicalAssociationsBiologicalAssociationsGraph</text>
</a>
</g>
</g>
<!-- PinboardItem -->
<g id="node3" class="node">
<title>PinboardItem</title>
<g id="a_node3"><a xlink:href="/develop/Data/models.html#pinboard-item" xlink:title="PinboardItem" target="_top">
<polygon fill="#eeefff" stroke="#dddeee" points="620.18,-319.48 529.93,-319.48 529.93,-283.48 620.18,-283.48 620.18,-319.48"/>
<text text-anchor="middle" x="575.05" y="-296.43" font-family="Times,serif" font-size="14.00">PinboardItem</text>
</a>
</g>
</g>
<!-- Role -->
<g id="node4" class="node">
<title>Role</title>
<g id="a_node4"><a xlink:href="/develop/Data/models.html#role" xlink:title="Role" target="_top">
<polygon fill="#eeefff" stroke="#dddeee" points="602.05,-265.48 548.05,-265.48 548.05,-229.48 602.05,-229.48 602.05,-265.48"/>
<text text-anchor="middle" x="575.05" y="-242.43" font-family="Times,serif" font-size="14.00">Role</text>
</a>
</g>
</g>
<!-- VerifierRole -->
<g id="node5" class="node">
<title>VerifierRole</title>
<g id="a_node5"><a xlink:href="/develop/Data/models.html#verifier-role" xlink:title="VerifierRole" target="_top">
<polygon fill="#eeefff" stroke="#dddeee" points="616.43,-211.48 533.68,-211.48 533.68,-175.48 616.43,-175.48 616.43,-211.48"/>
<text text-anchor="middle" x="575.05" y="-188.43" font-family="Times,serif" font-size="14.00">VerifierRole</text>
</a>
</g>
</g>
<!-- Verifier -->
<g id="node6" class="node">
<title>Verifier</title>
<g id="a_node6"><a xlink:href="/develop/Data/models.html#verifier" xlink:title="Verifier" target="_top">
<polygon fill="#eeefff" stroke="#dddeee" points="755.8,-238.48 698.55,-238.48 698.55,-202.48 755.8,-202.48 755.8,-238.48"/>
<text text-anchor="middle" x="727.18" y="-215.43" font-family="Times,serif" font-size="14.00">Verifier</text>
</a>
</g>
</g>
<!-- BiologicalAssociationsGraph -->
<g id="node7" class="node">
<title>BiologicalAssociationsGraph</title>
<g id="a_node7"><a xlink:href="/develop/Data/models.html#biological-associations-graph" xlink:title="BiologicalAssociationsGraph" target="_top">
<polygon fill="#eeefff" stroke="#dddeee" points="662.55,-157.48 487.55,-157.48 487.55,-121.48 662.55,-121.48 662.55,-157.48"/>
<text text-anchor="middle" x="575.05" y="-134.43" font-family="Times,serif" font-size="14.00">BiologicalAssociationsGraph</text>
</a>
</g>
</g>
<!-- Creator -->
<g id="node8" class="node">
<title>Creator</title>
<g id="a_node8"><a xlink:href="/develop/Data/models.html#creator" xlink:title="Creator" target="_top">
<polygon fill="#eeefff" stroke="#dddeee" points="755.43,-65.48 698.93,-65.48 698.93,-29.48 755.43,-29.48 755.43,-65.48"/>
<text text-anchor="middle" x="727.18" y="-42.43" font-family="Times,serif" font-size="14.00">Creator</text>
</a>
</g>
</g>
<!-- Project -->
<g id="node9" class="node">
<title>Project</title>
<g id="a_node9"><a xlink:href="/develop/Data/models.html#project" xlink:title="Project" target="_top">
<polygon fill="#eeefff" stroke="#dddeee" points="602.18,-65.48 547.93,-65.48 547.93,-29.48 602.18,-29.48 602.18,-65.48"/>
<text text-anchor="middle" x="575.05" y="-42.43" font-family="Times,serif" font-size="14.00">Project</text>
</a>
</g>
</g>
<!-- Updater -->
<g id="node10" class="node">
<title>Updater</title>
<g id="a_node10"><a xlink:href="/develop/Data/models.html#updater" xlink:title="Updater" target="_top">
<polygon fill="#eeefff" stroke="#dddeee" points="851.3,-65.48 791.8,-65.48 791.8,-29.48 851.3,-29.48 851.3,-65.48"/>
<text text-anchor="middle" x="821.55" y="-42.43" font-family="Times,serif" font-size="14.00">Updater</text>
</a>
</g>
</g>
</g>
</svg>
