<?xml version="1.0" encoding="UTF-8" standalone="no"?>
<!DOCTYPE svg PUBLIC "-//W3C//DTD SVG 1.1//EN"
 "http://www.w3.org/Graphics/SVG/1.1/DTD/svg11.dtd">
<!-- Generated by graphviz version 2.50.0 (20211204.2007)
 -->
<!-- Title: BiologicalAssociation Pages: 1 -->
<svg width="1032pt" height="668pt"
 viewBox="0.00 0.00 1031.76 668.00" xmlns="http://www.w3.org/2000/svg" xmlns:xlink="http://www.w3.org/1999/xlink">
<g id="graph0" class="graph" transform="scale(1 1) rotate(0) translate(4 664)">
<title>BiologicalAssociation</title>
<polygon fill="white" stroke="transparent" points="-4,4 -4,-664 1027.76,-664 1027.76,4 -4,4"/>
<text text-anchor="middle" x="511.88" y="-22.8" font-family="Times,serif" font-size="14.00">Algorithmically generated relationships for BiologicalAssociation based on assertions of &#39;has_many&#39;, &#39;has_one&#39;, &#39;belongs_to&#39;. </text>
<text text-anchor="middle" x="511.88" y="-7.8" font-family="Times,serif" font-size="14.00">Generated 2022&#45;01&#45;25 11:37:14 &#45;0600.</text>
<!-- Citation&#45;&gt;Source -->
<g id="edge12" class="edge">
<title>Citation&#45;&gt;Source</title>
<path fill="none" stroke="black" d="M98.28,-587C190.55,-587 424.86,-587 515.16,-587"/>
<polygon fill="black" stroke="black" points="515.19,-590.5 525.19,-587 515.19,-583.5 515.19,-590.5"/>
</g>
<!-- Citation&#45;&gt;CitationTopic -->
<g id="edge2" class="edge">
<title>Citation&#45;&gt;CitationTopic</title>
<path fill="none" stroke="black" d="M92.97,-596.33C121.83,-604.53 164.42,-616.63 198.5,-626.32"/>
<polygon fill="black" stroke="black" points="197.75,-629.75 208.32,-629.11 199.66,-623.01 197.75,-629.75"/>
</g>
<!-- Confidence&#45;&gt;ConfidenceLevel -->
<g id="edge4" class="edge">
<title>Confidence&#45;&gt;ConfidenceLevel</title>
<path fill="none" stroke="black" d="M109.98,-298C134.3,-298 163.84,-298 189.8,-298"/>
<polygon fill="black" stroke="black" points="189.93,-301.5 199.93,-298 189.93,-294.5 189.93,-301.5"/>
</g>
<!-- Tag&#45;&gt;Keyword -->
<g id="edge8" class="edge">
<title>Tag&#45;&gt;Keyword</title>
<path fill="none" stroke="black" d="M86.24,-244C118.12,-244 172.49,-244 210.6,-244"/>
<polygon fill="black" stroke="black" points="210.88,-247.5 220.88,-244 210.88,-240.5 210.88,-247.5"/>
</g>
<!-- BiologicalAssociation&#45;&gt;Citation -->
<g id="edge3" class="edge">
<title>BiologicalAssociation&#45;&gt;Citation</title>
<path fill="none" stroke="black" d="M234.97,-378.32C198.66,-421.66 118.87,-516.9 80.95,-562.17"/>
<polygon fill="black" stroke="black" points="78.11,-560.1 74.37,-570.01 83.48,-564.6 78.11,-560.1"/>
</g>
<!-- BiologicalAssociation&#45;&gt;Confidence -->
<g id="edge5" class="edge">
<title>BiologicalAssociation&#45;&gt;Confidence</title>
<path fill="none" stroke="black" d="M193.04,-337.83C165.71,-329.64 133.89,-320.1 108.24,-312.42"/>
<polygon fill="black" stroke="black" points="108.96,-308.98 98.38,-309.46 106.95,-315.68 108.96,-308.98"/>
</g>
<!-- BiologicalAssociation&#45;&gt;DataAttribute -->
<g id="edge6" class="edge">
<title>BiologicalAssociation&#45;&gt;DataAttribute</title>
<path fill="none" stroke="black" d="M216.77,-378.08C189.8,-393.95 152.18,-415.53 118.29,-433 113.28,-435.58 107.98,-438.2 102.7,-440.73"/>
<polygon fill="black" stroke="black" points="100.82,-437.75 93.28,-445.19 103.81,-444.08 100.82,-437.75"/>
</g>
<!-- BiologicalAssociation&#45;&gt;Identifier -->
<g id="edge7" class="edge">
<title>BiologicalAssociation&#45;&gt;Identifier</title>
<path fill="none" stroke="black" d="M187.76,-373.03C160.8,-379.99 130.26,-387.88 105.82,-394.2"/>
<polygon fill="black" stroke="black" points="104.9,-390.82 96.09,-396.71 106.65,-397.6 104.9,-390.82"/>
</g>
<!-- BiologicalAssociation&#45;&gt;Tag -->
<g id="edge15" class="edge">
<title>BiologicalAssociation&#45;&gt;Tag</title>
<path fill="none" stroke="black" d="M181.57,-340.01C171.87,-336.05 162.46,-331.12 154.29,-325 131.2,-307.71 140.19,-289.77 118.29,-271 110.97,-264.72 101.94,-259.6 93.2,-255.57"/>
<polygon fill="black" stroke="black" points="94.5,-252.32 83.93,-251.63 91.76,-258.76 94.5,-252.32"/>
</g>
<!-- BiologicalAssociation&#45;&gt;Note -->
<g id="edge9" class="edge">
<title>BiologicalAssociation&#45;&gt;Note</title>
<path fill="none" stroke="black" d="M154.41,-353.95C134.17,-353.53 114.07,-353.11 97.67,-352.78"/>
<polygon fill="black" stroke="black" points="97.53,-349.27 87.46,-352.56 97.39,-356.27 97.53,-349.27"/>
</g>
<!-- BiologicalAssociation&#45;&gt;Source -->
<g id="edge25" class="edge">
<title>BiologicalAssociation&#45;&gt;Source</title>
<path fill="none" stroke="black" stroke-dasharray="1,5" d="M268.21,-387.78C287.54,-432.39 329,-512.72 391.05,-554 432.22,-581.39 491.51,-586.79 525.26,-587.44"/>
<polygon fill="black" stroke="black" points="271.32,-386.16 264.2,-378.31 264.87,-388.88 271.32,-386.16"/>
</g>
<!-- BiologicalAssociation&#45;&gt;BiologicalAssociationsBiologicalAssociationsGraph -->
<g id="edge1" class="edge">
<title>BiologicalAssociation&#45;&gt;BiologicalAssociationsBiologicalAssociationsGraph</title>
<path fill="none" stroke="black" d="M325.56,-339.7C335.89,-335.75 346.06,-330.91 355.05,-325 375.58,-311.48 369.64,-295.1 391.05,-283 394,-281.33 397.02,-279.76 400.11,-278.28"/>
<polygon fill="black" stroke="black" points="401.81,-281.36 409.54,-274.12 398.98,-274.96 401.81,-281.36"/>
</g>
<!-- BiologicalAssociation&#45;&gt;PinboardItem -->
<g id="edge10" class="edge">
<title>BiologicalAssociation&#45;&gt;PinboardItem</title>
<path fill="none" stroke="black" d="M331.15,-340.73C339.9,-336.67 348.15,-331.52 355.05,-325 388.16,-293.7 355.89,-257.99 391.05,-229 420.17,-205 462.6,-198.7 496.5,-198.16"/>
<polygon fill="black" stroke="black" points="496.72,-201.66 506.72,-198.17 496.72,-194.66 496.72,-201.66"/>
</g>
<!-- BiologicalAssociation&#45;&gt;Role -->
<g id="edge11" class="edge">
<title>BiologicalAssociation&#45;&gt;Role</title>
<path fill="none" stroke="black" d="M341.6,-369.37C399.27,-378.34 472.27,-389.69 515.2,-396.37"/>
<polygon fill="black" stroke="black" points="514.76,-399.84 525.18,-397.92 515.84,-392.93 514.76,-399.84"/>
</g>
<!-- BiologicalAssociation&#45;&gt;SubsequentCitation -->
<g id="edge13" class="edge">
<title>BiologicalAssociation&#45;&gt;SubsequentCitation</title>
<path fill="none" stroke="black" d="M266.93,-378.06C286.66,-414.16 331.12,-485.1 391.05,-518 517.83,-587.6 571.02,-536.61 713.76,-560 722.22,-561.39 731.08,-562.97 739.86,-564.61"/>
<polygon fill="black" stroke="black" points="739.22,-568.05 749.69,-566.48 740.53,-561.17 739.22,-568.05"/>
</g>
<!-- BiologicalAssociation&#45;&gt;VerifierRole -->
<g id="edge17" class="edge">
<title>BiologicalAssociation&#45;&gt;VerifierRole</title>
<path fill="none" stroke="black" d="M289.02,-378.01C315.59,-394.53 354.3,-416.39 391.05,-429 426.59,-441.2 468.51,-448.01 500.58,-451.74"/>
<polygon fill="black" stroke="black" points="500.31,-455.23 510.63,-452.85 501.07,-448.27 500.31,-455.23"/>
</g>
<!-- BiologicalAssociation&#45;&gt;BiologicalRelationship -->
<g id="edge20" class="edge">
<title>BiologicalAssociation&#45;&gt;BiologicalRelationship</title>
<path fill="none" stroke="black" stroke-dasharray="5,2" d="M343.08,-335.75C347.48,-332.65 351.53,-329.09 355.05,-325 424.46,-244.17 317.47,-165.06 391.05,-88 414.08,-63.87 449.75,-55.15 481.61,-52.78"/>
<polygon fill="black" stroke="black" points="340.92,-332.96 334.2,-341.15 344.56,-338.94 340.92,-332.96"/>
</g>
<!-- BiologicalAssociation&#45;&gt;Creator -->
<g id="edge21" class="edge">
<title>BiologicalAssociation&#45;&gt;Creator</title>
<path fill="none" stroke="black" stroke-dasharray="5,2" d="M342.96,-335.65C347.4,-332.58 351.48,-329.05 355.05,-325 415.86,-255.88 320.51,-180.18 391.05,-121 445.99,-74.91 642.72,-111.2 713.76,-121 737.25,-124.24 763.09,-131.75 782.04,-138.02"/>
<polygon fill="black" stroke="black" points="340.81,-332.86 334.04,-341.01 344.42,-338.86 340.81,-332.86"/>
</g>
<!-- BiologicalAssociation&#45;&gt;Project -->
<g id="edge22" class="edge">
<title>BiologicalAssociation&#45;&gt;Project</title>
<path fill="none" stroke="black" stroke-dasharray="5,2" d="M342.04,-335.81C346.79,-332.7 351.19,-329.12 355.05,-325 401.88,-274.93 340.93,-221.78 391.05,-175 427.37,-141.09 489.54,-141.05 524.85,-144.33"/>
<polygon fill="black" stroke="black" points="340.1,-332.89 333.16,-340.91 343.58,-338.97 340.1,-332.89"/>
</g>
<!-- BiologicalAssociation&#45;&gt;Updater -->
<g id="edge23" class="edge">
<title>BiologicalAssociation&#45;&gt;Updater</title>
<path fill="none" stroke="black" stroke-dasharray="5,2" d="M358.89,-368.85C453.98,-376.74 597.51,-378.57 713.76,-337 816.23,-300.36 911.42,-206.04 948.45,-166.2"/>
<polygon fill="black" stroke="black" points="358.95,-365.34 348.69,-367.96 358.35,-372.31 358.95,-365.34"/>
</g>
<!-- BiologicalAssociation&#45;&gt;OriginCitation -->
<g id="edge24" class="edge">
<title>BiologicalAssociation&#45;&gt;OriginCitation</title>
<path fill="none" stroke="black" stroke-dasharray="1,5" d="M277.54,-386.26C301.53,-416.76 343.07,-462.21 391.05,-483 516.53,-537.38 683.17,-526.52 763.1,-516.86"/>
<polygon fill="black" stroke="black" points="280.12,-383.87 271.24,-378.09 274.57,-388.14 280.12,-383.87"/>
</g>
<!-- BiologicalAssociation&#45;&gt;Objects with Biological associations -->
<g id="edge19" class="edge">
<title>BiologicalAssociation&#45;&gt;Objects with Biological associations</title>
<path fill="none" stroke="black" stroke-dasharray="5,2" d="M351.49,-341.1C385.3,-335.84 423.27,-329.93 456.96,-324.69"/>
<polygon fill="black" stroke="black" points="350.95,-337.64 341.6,-342.63 352.02,-344.55 350.95,-337.64"/>
</g>
<!-- Source&#45;&gt;SubsequentCitation -->
<!-- Source&#45;&gt;OriginCitation -->
<!-- CitationTopic&#45;&gt;Topic -->
<g id="edge16" class="edge">
<title>CitationTopic&#45;&gt;Topic</title>
<path fill="none" stroke="black" d="M300.91,-642C359.61,-642 460.9,-642 514.94,-642"/>
<polygon fill="black" stroke="black" points="515.1,-645.5 525.1,-642 515.1,-638.5 515.1,-645.5"/>
</g>
<!-- Role&#45;&gt;Verifier -->
<!-- SubsequentCitation&#45;&gt;SubsequentSource -->
<g id="edge14" class="edge">
<title>SubsequentCitation&#45;&gt;SubsequentSource</title>
<path fill="none" stroke="black" d="M871.79,-579C880.12,-579 888.73,-579 897.18,-579"/>
<polygon fill="black" stroke="black" points="897.4,-582.5 907.4,-579 897.4,-575.5 897.4,-582.5"/>
</g>
<!-- VerifierRole&#45;&gt;Verifier -->
<g id="edge18" class="edge">
<title>VerifierRole&#45;&gt;Verifier</title>
<path fill="none" stroke="black" d="M594.02,-452.36C642.85,-447.97 724.15,-440.68 771.77,-436.41"/>
<polygon fill="black" stroke="black" points="772.32,-439.87 781.97,-435.49 771.7,-432.9 772.32,-439.87"/>
</g>
<!-- Creator&#45;&gt;Updater -->
<!-- Project&#45;&gt;Creator -->
<!-- Citation -->
<g id="node1" class="node">
<title>Citation</title>
<g id="a_node1"><a xlink:href="/develop/Data/models.html#citation" xlink:title="Citation" target="_top">
<ellipse fill="#abcdef" stroke="#dddeee" cx="59.14" cy="-587" rx="38.99" ry="18"/>
<text text-anchor="middle" x="59.14" y="-583.3" font-family="Times,serif" font-size="14.00">Citation</text>
</a>
</g>
</g>
<!-- Confidence -->
<g id="node2" class="node">
<title>Confidence</title>
<g id="a_node2"><a xlink:href="/develop/Data/models.html#confidence" xlink:title="Confidence" target="_top">
<ellipse fill="#abcdef" stroke="#dddeee" cx="59.14" cy="-298" rx="50.89" ry="18"/>
<text text-anchor="middle" x="59.14" y="-294.3" font-family="Times,serif" font-size="14.00">Confidence</text>
</a>
</g>
</g>
<!-- DataAttribute -->
<g id="node3" class="node">
<title>DataAttribute</title>
<g id="a_node3"><a xlink:href="/develop/Data/models.html#data-attribute" xlink:title="DataAttribute" target="_top">
<ellipse fill="#abcdef" stroke="#dddeee" cx="59.14" cy="-460" rx="59.29" ry="18"/>
<text text-anchor="middle" x="59.14" y="-456.3" font-family="Times,serif" font-size="14.00">DataAttribute</text>
</a>
</g>
</g>
<!-- Identifier -->
<g id="node4" class="node">
<title>Identifier</title>
<g id="a_node4"><a xlink:href="/develop/Data/models.html#identifier" xlink:title="Identifier" target="_top">
<ellipse fill="#abcdef" stroke="#dddeee" cx="59.14" cy="-406" rx="42.79" ry="18"/>
<text text-anchor="middle" x="59.14" y="-402.3" font-family="Times,serif" font-size="14.00">Identifier</text>
</a>
</g>
</g>
<!-- Tag -->
<g id="node5" class="node">
<title>Tag</title>
<g id="a_node5"><a xlink:href="/develop/Data/models.html#tag" xlink:title="Tag" target="_top">
<ellipse fill="#abcdef" stroke="#dddeee" cx="59.14" cy="-244" rx="27" ry="18"/>
<text text-anchor="middle" x="59.14" y="-240.3" font-family="Times,serif" font-size="14.00">Tag</text>
</a>
</g>
</g>
<!-- Note -->
<g id="node6" class="node">
<title>Note</title>
<g id="a_node6"><a xlink:href="/develop/Data/models.html#note" xlink:title="Note" target="_top">
<ellipse fill="#abcdef" stroke="#dddeee" cx="59.14" cy="-352" rx="27.9" ry="18"/>
<text text-anchor="middle" x="59.14" y="-348.3" font-family="Times,serif" font-size="14.00">Note</text>
</a>
</g>
</g>
<!-- BiologicalAssociation -->
<g id="node7" class="node">
<title>BiologicalAssociation</title>
<g id="a_node7"><a xlink:href="/develop/Data/models.html#biological-association" xlink:title="BiologicalAssociation" target="_top">
<polygon fill="#cdefab" stroke="#dedede" points="350.93,-348.54 350.93,-363.46 294.54,-374 214.79,-374 158.41,-363.46 158.41,-348.54 214.79,-338 294.54,-338 350.93,-348.54"/>
<polygon fill="none" stroke="#dedede" points="354.93,-345.22 354.93,-366.78 294.91,-378 214.43,-378 154.41,-366.78 154.41,-345.22 214.43,-334 294.91,-334 354.93,-345.22"/>
<text text-anchor="middle" x="254.67" y="-352.3" font-family="Times,serif" font-size="14.00">BiologicalAssociation</text>
</a>
</g>
</g>
<!-- Source -->
<g id="node8" class="node">
<title>Source</title>
<g id="a_node8"><a xlink:href="/develop/Data/models.html#source" xlink:title="Source" target="_top">
<path fill="#fedcba" stroke="#dddeee" d="M537.4,-569C537.4,-569 567.4,-569 567.4,-569 573.4,-569 579.4,-575 579.4,-581 579.4,-581 579.4,-593 579.4,-593 579.4,-599 573.4,-605 567.4,-605 567.4,-605 537.4,-605 537.4,-605 531.4,-605 525.4,-599 525.4,-593 525.4,-593 525.4,-581 525.4,-581 525.4,-575 531.4,-569 537.4,-569"/>
<text text-anchor="middle" x="552.4" y="-583.3" font-family="Times,serif" font-size="14.00">Source</text>
</a>
</g>
</g>
<!-- BiologicalAssociationsBiologicalAssociationsGraph -->
<g id="node9" class="node">
<title>BiologicalAssociationsBiologicalAssociationsGraph</title>
<g id="a_node9"><a xlink:href="/develop/Data/models.html#biological-associations-biological-associations-graph" xlink:title="BiologicalAssociationsBiologicalAssociationsGraph" target="_top">
<polygon fill="#eeefff" stroke="#dddeee" points="702.9,-274 401.9,-274 401.9,-238 702.9,-238 702.9,-274"/>
<text text-anchor="middle" x="552.4" y="-252.3" font-family="Times,serif" font-size="14.00">BiologicalAssociationsBiologicalAssociationsGraph</text>
</a>
</g>
</g>
<!-- CitationTopic -->
<g id="node10" class="node">
<title>CitationTopic</title>
<g id="a_node10"><a xlink:href="/develop/Data/models.html#citation-topic" xlink:title="CitationTopic" target="_top">
<polygon fill="#eeefff" stroke="#dddeee" points="300.67,-660 208.67,-660 208.67,-624 300.67,-624 300.67,-660"/>
<text text-anchor="middle" x="254.67" y="-638.3" font-family="Times,serif" font-size="14.00">CitationTopic</text>
</a>
</g>
</g>
<!-- ConfidenceLevel -->
<g id="node11" class="node">
<title>ConfidenceLevel</title>
<g id="a_node11"><a xlink:href="/develop/Data/models.html#confidence-level" xlink:title="ConfidenceLevel" target="_top">
<polygon fill="#eeefff" stroke="#dddeee" points="309.17,-316 200.17,-316 200.17,-280 309.17,-280 309.17,-316"/>
<text text-anchor="middle" x="254.67" y="-294.3" font-family="Times,serif" font-size="14.00">ConfidenceLevel</text>
</a>
</g>
</g>
<!-- Keyword -->
<g id="node12" class="node">
<title>Keyword</title>
<g id="a_node12"><a xlink:href="/develop/Data/models.html#keyword" xlink:title="Keyword" target="_top">
<polygon fill="#eeefff" stroke="#dddeee" points="288.17,-262 221.17,-262 221.17,-226 288.17,-226 288.17,-262"/>
<text text-anchor="middle" x="254.67" y="-240.3" font-family="Times,serif" font-size="14.00">Keyword</text>
</a>
</g>
</g>
<!-- PinboardItem -->
<g id="node13" class="node">
<title>PinboardItem</title>
<g id="a_node13"><a xlink:href="/develop/Data/models.html#pinboard-item" xlink:title="PinboardItem" target="_top">
<polygon fill="#eeefff" stroke="#dddeee" points="597.9,-220 506.9,-220 506.9,-184 597.9,-184 597.9,-220"/>
<text text-anchor="middle" x="552.4" y="-198.3" font-family="Times,serif" font-size="14.00">PinboardItem</text>
</a>
</g>
</g>
<!-- Role -->
<g id="node14" class="node">
<title>Role</title>
<g id="a_node14"><a xlink:href="/develop/Data/models.html#role" xlink:title="Role" target="_top">
<polygon fill="#eeefff" stroke="#dddeee" points="579.4,-420 525.4,-420 525.4,-384 579.4,-384 579.4,-420"/>
<text text-anchor="middle" x="552.4" y="-398.3" font-family="Times,serif" font-size="14.00">Role</text>
</a>
</g>
</g>
<!-- SubsequentCitation -->
<g id="node15" class="node">
<title>SubsequentCitation</title>
<g id="a_node15"><a xlink:href="/develop/Data/models.html#subsequent-citation" xlink:title="SubsequentCitation" target="_top">
<polygon fill="#eeefff" stroke="#dddeee" points="871.76,-597 749.76,-597 749.76,-561 871.76,-561 871.76,-597"/>
<text text-anchor="middle" x="810.76" y="-575.3" font-family="Times,serif" font-size="14.00">SubsequentCitation</text>
</a>
</g>
</g>
<!-- SubsequentSource -->
<g id="node16" class="node">
<title>SubsequentSource</title>
<g id="a_node16"><a xlink:href="/develop/Data/models.html#subsequent-source" xlink:title="SubsequentSource" target="_top">
<polygon fill="#eeefff" stroke="#dddeee" points="1023.76,-597 907.76,-597 907.76,-561 1023.76,-561 1023.76,-597"/>
<text text-anchor="middle" x="965.76" y="-575.3" font-family="Times,serif" font-size="14.00">SubsequentSource</text>
</a>
</g>
</g>
<!-- Topic -->
<g id="node17" class="node">
<title>Topic</title>
<g id="a_node17"><a xlink:href="/develop/Data/models.html#topic" xlink:title="Topic" target="_top">
<polygon fill="#eeefff" stroke="#dddeee" points="579.4,-660 525.4,-660 525.4,-624 579.4,-624 579.4,-660"/>
<text text-anchor="middle" x="552.4" y="-638.3" font-family="Times,serif" font-size="14.00">Topic</text>
</a>
</g>
</g>
<!-- VerifierRole -->
<g id="node18" class="node">
<title>VerifierRole</title>
<g id="a_node18"><a xlink:href="/develop/Data/models.html#verifier-role" xlink:title="VerifierRole" target="_top">
<polygon fill="#eeefff" stroke="#dddeee" points="593.9,-474 510.9,-474 510.9,-438 593.9,-438 593.9,-474"/>
<text text-anchor="middle" x="552.4" y="-452.3" font-family="Times,serif" font-size="14.00">VerifierRole</text>
</a>
</g>
</g>
<!-- Verifier -->
<g id="node19" class="node">
<title>Verifier</title>
<g id="a_node19"><a xlink:href="/develop/Data/models.html#verifier" xlink:title="Verifier" target="_top">
<polygon fill="#eeefff" stroke="#dddeee" points="839.26,-451 782.26,-451 782.26,-415 839.26,-415 839.26,-451"/>
<text text-anchor="middle" x="810.76" y="-429.3" font-family="Times,serif" font-size="14.00">Verifier</text>
</a>
</g>
</g>
<!-- BiologicalRelationship -->
<g id="node20" class="node">
<title>BiologicalRelationship</title>
<g id="a_node20"><a xlink:href="/develop/Data/models.html#biological-relationship" xlink:title="BiologicalRelationship" target="_top">
<polygon fill="#eeefff" stroke="#dddeee" points="622.9,-74 481.9,-74 481.9,-38 622.9,-38 622.9,-74"/>
<text text-anchor="middle" x="552.4" y="-52.3" font-family="Times,serif" font-size="14.00">BiologicalRelationship</text>
</a>
</g>
</g>
<!-- Creator -->
<g id="node21" class="node">
<title>Creator</title>
<g id="a_node21"><a xlink:href="/develop/Data/models.html#creator" xlink:title="Creator" target="_top">
<polygon fill="#eeefff" stroke="#dddeee" points="839.26,-166 782.26,-166 782.26,-130 839.26,-130 839.26,-166"/>
<text text-anchor="middle" x="810.76" y="-144.3" font-family="Times,serif" font-size="14.00">Creator</text>
</a>
</g>
</g>
<!-- Project -->
<g id="node22" class="node">
<title>Project</title>
<g id="a_node22"><a xlink:href="/develop/Data/models.html#project" xlink:title="Project" target="_top">
<polygon fill="#eeefff" stroke="#dddeee" points="579.9,-166 524.9,-166 524.9,-130 579.9,-130 579.9,-166"/>
<text text-anchor="middle" x="552.4" y="-144.3" font-family="Times,serif" font-size="14.00">Project</text>
</a>
</g>
</g>
<!-- Updater -->
<g id="node23" class="node">
<title>Updater</title>
<g id="a_node23"><a xlink:href="/develop/Data/models.html#updater" xlink:title="Updater" target="_top">
<polygon fill="#eeefff" stroke="#dddeee" points="995.76,-166 935.76,-166 935.76,-130 995.76,-130 995.76,-166"/>
<text text-anchor="middle" x="965.76" y="-144.3" font-family="Times,serif" font-size="14.00">Updater</text>
</a>
</g>
</g>
<!-- OriginCitation -->
<g id="node24" class="node">
<title>OriginCitation</title>
<g id="a_node24"><a xlink:href="/develop/Data/models.html#origin-citation" xlink:title="OriginCitation" target="_top">
<polygon fill="#eeefff" stroke="#dddeee" points="858.26,-528 763.26,-528 763.26,-492 858.26,-492 858.26,-528"/>
<text text-anchor="middle" x="810.76" y="-506.3" font-family="Times,serif" font-size="14.00">OriginCitation</text>
</a>
</g>
</g>
<!-- Objects with Biological associations -->
<g id="node25" class="node">
<title>Objects with Biological associations</title>
<g id="a_node25"><a xlink:href="/develop/Data/models.html#objects with biological association" xlink:title="Objects with Biological associations" target="_top">
<polygon fill="#cdabef" stroke="#dedede" points="713.61,-310 633.01,-328 471.8,-328 391.19,-310 471.8,-292 633.01,-292 713.61,-310"/>
<text text-anchor="middle" x="552.4" y="-306.3" font-family="Times,serif" font-size="14.00">Objects with Biological associations</text>
</a>
</g>
</g>
</g>
</svg>
