<?xml version="1.0" encoding="UTF-8" standalone="no"?>
<!DOCTYPE svg PUBLIC "-//W3C//DTD SVG 1.1//EN"
 "http://www.w3.org/Graphics/SVG/1.1/DTD/svg11.dtd">
<!-- Generated by graphviz version 2.50.0 (20211204.2007)
 -->
<!-- Title: BiologicalRelationship Pages: 1 -->
<svg width="962pt" height="701pt"
 viewBox="0.00 0.00 961.67 700.51" xmlns="http://www.w3.org/2000/svg" xmlns:xlink="http://www.w3.org/1999/xlink">
<g id="graph0" class="graph" transform="scale(1 1) rotate(0) translate(4 696.51)">
<title>BiologicalRelationship</title>
<polygon fill="white" stroke="transparent" points="-4,4 -4,-696.51 957.67,-696.51 957.67,4 -4,4"/>
<!-- Citation&#45;&gt;Source -->
<g id="edge13" class="edge">
<title>Citation&#45;&gt;Source</title>
<path fill="none" stroke="black" d="M98.42,-619.51C182.46,-619.51 382.09,-619.51 464.08,-619.51"/>
<polygon fill="black" stroke="black" points="464.16,-623.01 474.16,-619.51 464.16,-616.01 464.16,-623.01"/>
</g>
<!-- Citation&#45;&gt;CitationTopic -->
<g id="edge4" class="edge">
<title>Citation&#45;&gt;CitationTopic</title>
<path fill="none" stroke="black" d="M93.01,-628.72C122.52,-636.98 166.43,-649.29 201.32,-659.06"/>
<polygon fill="black" stroke="black" points="200.79,-662.55 211.36,-661.87 202.68,-655.81 200.79,-662.55"/>
</g>
<!-- Tag&#45;&gt;Keyword -->
<g id="edge7" class="edge">
<title>Tag&#45;&gt;Keyword</title>
<path fill="none" stroke="black" d="M86.22,-310.38C118.63,-310.21 174.43,-309.93 213.28,-309.73"/>
<polygon fill="black" stroke="black" points="213.77,-313.23 223.75,-309.68 213.74,-306.23 213.77,-313.23"/>
</g>
<!-- Source&#45;&gt;SubsequentCitation -->
<!-- Source&#45;&gt;OriginCitation -->
<!-- BiologicalRelationship&#45;&gt;Citation -->
<g id="edge5" class="edge">
<title>BiologicalRelationship&#45;&gt;Citation</title>
<path fill="none" stroke="black" d="M239.25,-389.63C202.74,-436.49 117.8,-545.51 79.49,-594.68"/>
<polygon fill="black" stroke="black" points="76.72,-592.55 73.33,-602.59 82.24,-596.85 76.72,-592.55"/>
</g>
<!-- BiologicalRelationship&#45;&gt;DataAttribute -->
<g id="edge6" class="edge">
<title>BiologicalRelationship&#45;&gt;DataAttribute</title>
<path fill="none" stroke="black" d="M190.56,-384.97C165.69,-391.56 137.7,-398.97 114.05,-405.23"/>
<polygon fill="black" stroke="black" points="112.98,-401.9 104.21,-407.84 114.77,-408.67 112.98,-401.9"/>
</g>
<!-- BiologicalRelationship&#45;&gt;Tag -->
<g id="edge18" class="edge">
<title>BiologicalRelationship&#45;&gt;Tag</title>
<path fill="none" stroke="black" d="M193.84,-349.33C160.77,-339.73 121.49,-328.32 94.1,-320.37"/>
<polygon fill="black" stroke="black" points="94.8,-316.93 84.22,-317.5 92.85,-323.65 94.8,-316.93"/>
</g>
<!-- BiologicalRelationship&#45;&gt;Note -->
<g id="edge8" class="edge">
<title>BiologicalRelationship&#45;&gt;Note</title>
<path fill="none" stroke="black" d="M154.07,-366.47C133.86,-366.26 113.89,-366.06 97.59,-365.89"/>
<polygon fill="black" stroke="black" points="97.48,-362.39 87.44,-365.79 97.41,-369.39 97.48,-362.39"/>
</g>
<!-- BiologicalRelationship&#45;&gt;BiologicalAssociation -->
<g id="edge1" class="edge">
<title>BiologicalRelationship&#45;&gt;BiologicalAssociation</title>
<path fill="none" stroke="black" d="M357.48,-378.98C379.11,-381.49 401.69,-384.1 422.35,-386.5"/>
<polygon fill="black" stroke="black" points="421.99,-389.98 432.33,-387.65 422.8,-383.02 421.99,-389.98"/>
</g>
<!-- BiologicalRelationship&#45;&gt;Source -->
<g id="edge26" class="edge">
<title>BiologicalRelationship&#45;&gt;Source</title>
<path fill="none" stroke="black" stroke-dasharray="1,5" d="M270.21,-399.24C289.38,-446.83 331.93,-536.44 396.67,-586.51 419.35,-604.05 451.59,-612.39 474.04,-616.28"/>
<polygon fill="black" stroke="black" points="273.39,-397.78 266.47,-389.75 266.88,-400.34 273.39,-397.78"/>
</g>
<!-- BiologicalRelationship&#45;&gt;BiologicalRelationshipType -->
<g id="edge3" class="edge">
<title>BiologicalRelationship&#45;&gt;BiologicalRelationshipType</title>
<path fill="none" stroke="black" d="M358.88,-356.3C374.63,-354.54 390.85,-352.72 406.44,-350.98"/>
<polygon fill="black" stroke="black" points="407.03,-354.44 416.58,-349.85 406.25,-347.48 407.03,-354.44"/>
</g>
<!-- BiologicalRelationship&#45;&gt;ObjectBiologicalRelationshipType -->
<g id="edge10" class="edge">
<title>BiologicalRelationship&#45;&gt;ObjectBiologicalRelationshipType</title>
<path fill="none" stroke="black" d="M325.16,-350.18C337.2,-346.24 349.48,-341.67 360.67,-336.51 377.92,-328.57 379.28,-321.11 396.67,-313.51 401.29,-311.5 406.09,-309.6 410.98,-307.83"/>
<polygon fill="black" stroke="black" points="412.15,-311.13 420.48,-304.57 409.88,-304.51 412.15,-311.13"/>
</g>
<!-- BiologicalRelationship&#45;&gt;PinboardItem -->
<g id="edge11" class="edge">
<title>BiologicalRelationship&#45;&gt;PinboardItem</title>
<path fill="none" stroke="black" d="M335.34,-352.09C344.52,-348.05 353.25,-342.95 360.67,-336.51 389.23,-311.77 367.64,-283.68 396.67,-259.51 410.39,-248.09 428.4,-241.44 445.55,-237.59"/>
<polygon fill="black" stroke="black" points="446.37,-240.99 455.5,-235.63 445.02,-234.12 446.37,-240.99"/>
</g>
<!-- BiologicalRelationship&#45;&gt;Role -->
<g id="edge12" class="edge">
<title>BiologicalRelationship&#45;&gt;Role</title>
<path fill="none" stroke="black" d="M337.94,-352.5C346.37,-348.38 354.21,-343.15 360.67,-336.51 402.8,-293.26 353.7,-247.93 396.67,-205.51 414.36,-188.06 441.83,-181.47 464.03,-179.16"/>
<polygon fill="black" stroke="black" points="464.43,-182.64 474.12,-178.36 463.88,-175.66 464.43,-182.64"/>
</g>
<!-- BiologicalRelationship&#45;&gt;SubjectBiologicalRelationshipType -->
<g id="edge15" class="edge">
<title>BiologicalRelationship&#45;&gt;SubjectBiologicalRelationshipType</title>
<path fill="none" stroke="black" d="M339.72,-352.71C347.62,-348.54 354.85,-343.24 360.67,-336.51 430.93,-255.25 324.83,-177.38 396.67,-97.51 397.33,-96.79 398,-96.08 398.68,-95.39"/>
<polygon fill="black" stroke="black" points="401.22,-97.82 406.58,-88.68 396.69,-92.49 401.22,-97.82"/>
</g>
<!-- BiologicalRelationship&#45;&gt;SubsequentCitation -->
<g id="edge16" class="edge">
<title>BiologicalRelationship&#45;&gt;SubsequentCitation</title>
<path fill="none" stroke="black" d="M274.32,-389.69C297.42,-420.13 343.43,-473.97 396.67,-499.51 477.58,-538.32 582.16,-545.59 650.29,-545.48"/>
<polygon fill="black" stroke="black" points="650.52,-548.98 660.49,-545.41 650.47,-541.98 650.52,-548.98"/>
</g>
<!-- BiologicalRelationship&#45;&gt;VerifierRole -->
<g id="edge20" class="edge">
<title>BiologicalRelationship&#45;&gt;VerifierRole</title>
<path fill="none" stroke="black" d="M338.94,-352.71C347.09,-348.55 354.59,-343.26 360.67,-336.51 416.8,-274.33 339.34,-212.58 396.67,-151.51 410.25,-137.05 430.51,-129.96 449.52,-126.6"/>
<polygon fill="black" stroke="black" points="450.21,-130.04 459.6,-125.13 449.2,-123.11 450.21,-130.04"/>
</g>
<!-- BiologicalRelationship&#45;&gt;Creator -->
<g id="edge22" class="edge">
<title>BiologicalRelationship&#45;&gt;Creator</title>
<path fill="none" stroke="black" stroke-dasharray="5,2" d="M284.33,-397.25C309.79,-424.08 351.36,-461.68 396.67,-477.51 501.11,-514 635.55,-478.79 692.83,-460.28"/>
<polygon fill="black" stroke="black" points="286.64,-394.6 277.27,-389.65 281.51,-399.36 286.64,-394.6"/>
</g>
<!-- BiologicalRelationship&#45;&gt;Project -->
<g id="edge23" class="edge">
<title>BiologicalRelationship&#45;&gt;Project</title>
<path fill="none" stroke="black" stroke-dasharray="5,2" d="M316.12,-392.16C340.7,-402.23 369.86,-413.58 396.67,-422.51 422.46,-431.1 452.5,-439 473.55,-444.2"/>
<polygon fill="black" stroke="black" points="317.16,-388.81 306.59,-388.23 314.5,-395.28 317.16,-388.81"/>
</g>
<!-- BiologicalRelationship&#45;&gt;Updater -->
<g id="edge24" class="edge">
<title>BiologicalRelationship&#45;&gt;Updater</title>
<path fill="none" stroke="black" stroke-dasharray="5,2" d="M348.76,-347.4C353.16,-344.27 357.18,-340.66 360.67,-336.51 445.12,-236.1 298.41,-130.44 396.67,-43.51 464.08,16.12 731.3,12.59 801.67,-43.51 864.16,-93.33 888,-359.28 893.41,-432.08"/>
<polygon fill="black" stroke="black" points="346.58,-344.64 339.9,-352.86 350.25,-350.6 346.58,-344.64"/>
</g>
<!-- BiologicalRelationship&#45;&gt;OriginCitation -->
<g id="edge25" class="edge">
<title>BiologicalRelationship&#45;&gt;OriginCitation</title>
<path fill="none" stroke="black" stroke-dasharray="1,5" d="M275.04,-398.29C297.4,-436.79 340.96,-501.86 396.67,-536.51 420.18,-551.13 590.25,-585.93 674.13,-602.47"/>
<polygon fill="black" stroke="black" points="278.06,-396.53 270.07,-389.57 271.98,-399.99 278.06,-396.53"/>
</g>
<!-- BiologicalRelationshipType&#45;&gt;BiologicalProperty -->
<g id="edge2" class="edge">
<title>BiologicalRelationshipType&#45;&gt;BiologicalProperty</title>
<path fill="none" stroke="black" d="M585.72,-340.51C607.56,-340.51 630.86,-340.51 651.84,-340.51"/>
<polygon fill="black" stroke="black" points="651.94,-344.01 661.94,-340.51 651.94,-337.01 651.94,-344.01"/>
</g>
<!-- CitationTopic&#45;&gt;Topic -->
<g id="edge19" class="edge">
<title>CitationTopic&#45;&gt;Topic</title>
<path fill="none" stroke="black" d="M303.66,-674.51C349.88,-674.51 420.83,-674.51 463.64,-674.51"/>
<polygon fill="black" stroke="black" points="463.88,-678.01 473.88,-674.51 463.88,-671.01 463.88,-678.01"/>
</g>
<!-- ObjectBiologicalRelationshipType&#45;&gt;ObjectBiologicalProperty -->
<g id="edge9" class="edge">
<title>ObjectBiologicalRelationshipType&#45;&gt;ObjectBiologicalProperty</title>
<path fill="none" stroke="black" d="M603.75,-286.51C613.84,-286.51 624.02,-286.51 633.94,-286.51"/>
<polygon fill="black" stroke="black" points="634.17,-290.01 644.17,-286.51 634.17,-283.01 634.17,-290.01"/>
</g>
<!-- Role&#45;&gt;Verifier -->
<!-- SubjectBiologicalRelationshipType&#45;&gt;SubjectBiologicalProperty -->
<g id="edge14" class="edge">
<title>SubjectBiologicalRelationshipType&#45;&gt;SubjectBiologicalProperty</title>
<path fill="none" stroke="black" d="M605.99,-70.51C614.52,-70.51 623.09,-70.51 631.51,-70.51"/>
<polygon fill="black" stroke="black" points="631.67,-74.01 641.67,-70.51 631.67,-67.01 631.67,-74.01"/>
</g>
<!-- SubsequentCitation&#45;&gt;SubsequentSource -->
<g id="edge17" class="edge">
<title>SubsequentCitation&#45;&gt;SubsequentSource</title>
<path fill="none" stroke="black" d="M782.83,-542.51C797.24,-542.51 812.71,-542.51 827.41,-542.51"/>
<polygon fill="black" stroke="black" points="827.44,-546.01 837.44,-542.51 827.44,-539.01 827.44,-546.01"/>
</g>
<!-- VerifierRole&#45;&gt;Verifier -->
<g id="edge21" class="edge">
<title>VerifierRole&#45;&gt;Verifier</title>
<path fill="none" stroke="black" d="M542.76,-129.53C582.98,-134.5 644.08,-142.05 683.18,-146.88"/>
<polygon fill="black" stroke="black" points="682.75,-150.35 693.11,-148.11 683.61,-143.41 682.75,-150.35"/>
</g>
<!-- Creator&#45;&gt;Updater -->
<!-- Project&#45;&gt;Creator -->
<!-- Citation -->
<g id="node1" class="node">
<title>Citation</title>
<g id="a_node1"><a xlink:href="/develop/Data/models.html#citation" xlink:title="Citation" target="_top">
<ellipse fill="#abcdef" stroke="#dddeee" cx="59.14" cy="-619.51" rx="38.99" ry="18"/>
<text text-anchor="middle" x="59.14" y="-615.81" font-family="Times,serif" font-size="14.00">Citation</text>
</a>
</g>
</g>
<!-- DataAttribute -->
<g id="node2" class="node">
<title>DataAttribute</title>
<g id="a_node2"><a xlink:href="/develop/Data/models.html#data-attribute" xlink:title="DataAttribute" target="_top">
<ellipse fill="#abcdef" stroke="#dddeee" cx="59.14" cy="-419.51" rx="59.29" ry="18"/>
<text text-anchor="middle" x="59.14" y="-415.81" font-family="Times,serif" font-size="14.00">DataAttribute</text>
</a>
</g>
</g>
<!-- Tag -->
<g id="node3" class="node">
<title>Tag</title>
<g id="a_node3"><a xlink:href="/develop/Data/models.html#tag" xlink:title="Tag" target="_top">
<ellipse fill="#abcdef" stroke="#dddeee" cx="59.14" cy="-310.51" rx="27" ry="18"/>
<text text-anchor="middle" x="59.14" y="-306.81" font-family="Times,serif" font-size="14.00">Tag</text>
</a>
</g>
</g>
<!-- Note -->
<g id="node4" class="node">
<title>Note</title>
<g id="a_node4"><a xlink:href="/develop/Data/models.html#note" xlink:title="Note" target="_top">
<ellipse fill="#abcdef" stroke="#dddeee" cx="59.14" cy="-365.51" rx="27.9" ry="18"/>
<text text-anchor="middle" x="59.14" y="-361.81" font-family="Times,serif" font-size="14.00">Note</text>
</a>
</g>
</g>
<!-- BiologicalAssociation -->
<g id="node5" class="node">
<title>BiologicalAssociation</title>
<g id="a_node5"><a xlink:href="/develop/Data/models.html#biological-association" xlink:title="BiologicalAssociation" target="_top">
<path fill="#fedcba" stroke="#dddeee" d="M444.67,-377.51C444.67,-377.51 557.67,-377.51 557.67,-377.51 563.67,-377.51 569.67,-383.51 569.67,-389.51 569.67,-389.51 569.67,-401.51 569.67,-401.51 569.67,-407.51 563.67,-413.51 557.67,-413.51 557.67,-413.51 444.67,-413.51 444.67,-413.51 438.67,-413.51 432.67,-407.51 432.67,-401.51 432.67,-401.51 432.67,-389.51 432.67,-389.51 432.67,-383.51 438.67,-377.51 444.67,-377.51"/>
<text text-anchor="middle" x="501.17" y="-391.81" font-family="Times,serif" font-size="14.00">BiologicalAssociation</text>
</a>
</g>
</g>
<!-- Source -->
<g id="node6" class="node">
<title>Source</title>
<g id="a_node6"><a xlink:href="/develop/Data/models.html#source" xlink:title="Source" target="_top">
<path fill="#fedcba" stroke="#dddeee" d="M486.17,-601.51C486.17,-601.51 516.17,-601.51 516.17,-601.51 522.17,-601.51 528.17,-607.51 528.17,-613.51 528.17,-613.51 528.17,-625.51 528.17,-625.51 528.17,-631.51 522.17,-637.51 516.17,-637.51 516.17,-637.51 486.17,-637.51 486.17,-637.51 480.17,-637.51 474.17,-631.51 474.17,-625.51 474.17,-625.51 474.17,-613.51 474.17,-613.51 474.17,-607.51 480.17,-601.51 486.17,-601.51"/>
<text text-anchor="middle" x="501.17" y="-615.81" font-family="Times,serif" font-size="14.00">Source</text>
</a>
</g>
</g>
<!-- BiologicalRelationship -->
<g id="node7" class="node">
<title>BiologicalRelationship</title>
<g id="a_node7"><a xlink:href="/develop/Data/models.html#biological-relationship" xlink:title="BiologicalRelationship" target="_top">
<polygon fill="#cdefab" stroke="#dedede" points="356.86,-360.06 356.86,-374.97 298.65,-385.51 216.32,-385.51 158.1,-374.97 158.1,-360.06 216.32,-349.51 298.65,-349.51 356.86,-360.06"/>
<polygon fill="none" stroke="#dedede" points="360.87,-356.72 360.87,-378.31 299.01,-389.51 215.96,-389.51 154.1,-378.31 154.1,-356.72 215.96,-345.51 299.01,-345.51 360.87,-356.72"/>
<text text-anchor="middle" x="257.48" y="-363.81" font-family="Times,serif" font-size="14.00">BiologicalRelationship</text>
</a>
</g>
</g>
<!-- BiologicalRelationshipType -->
<g id="node8" class="node">
<title>BiologicalRelationshipType</title>
<g id="a_node8"><a xlink:href="/develop/Data/models.html#biological-relationship-type" xlink:title="BiologicalRelationshipType" target="_top">
<polygon fill="#eeefff" stroke="#dddeee" points="585.67,-358.51 416.67,-358.51 416.67,-322.51 585.67,-322.51 585.67,-358.51"/>
<text text-anchor="middle" x="501.17" y="-336.81" font-family="Times,serif" font-size="14.00">BiologicalRelationshipType</text>
</a>
</g>
</g>
<!-- BiologicalProperty -->
<g id="node9" class="node">
<title>BiologicalProperty</title>
<g id="a_node9"><a xlink:href="/develop/Data/models.html#biological-property" xlink:title="BiologicalProperty" target="_top">
<polygon fill="#eeefff" stroke="#dddeee" points="781.17,-358.51 662.17,-358.51 662.17,-322.51 781.17,-322.51 781.17,-358.51"/>
<text text-anchor="middle" x="721.67" y="-336.81" font-family="Times,serif" font-size="14.00">BiologicalProperty</text>
</a>
</g>
</g>
<!-- CitationTopic -->
<g id="node10" class="node">
<title>CitationTopic</title>
<g id="a_node10"><a xlink:href="/develop/Data/models.html#citation-topic" xlink:title="CitationTopic" target="_top">
<polygon fill="#eeefff" stroke="#dddeee" points="303.48,-692.51 211.48,-692.51 211.48,-656.51 303.48,-656.51 303.48,-692.51"/>
<text text-anchor="middle" x="257.48" y="-670.81" font-family="Times,serif" font-size="14.00">CitationTopic</text>
</a>
</g>
</g>
<!-- Keyword -->
<g id="node11" class="node">
<title>Keyword</title>
<g id="a_node11"><a xlink:href="/develop/Data/models.html#keyword" xlink:title="Keyword" target="_top">
<polygon fill="#eeefff" stroke="#dddeee" points="290.98,-327.51 223.98,-327.51 223.98,-291.51 290.98,-291.51 290.98,-327.51"/>
<text text-anchor="middle" x="257.48" y="-305.81" font-family="Times,serif" font-size="14.00">Keyword</text>
</a>
</g>
</g>
<!-- ObjectBiologicalRelationshipType -->
<g id="node12" class="node">
<title>ObjectBiologicalRelationshipType</title>
<g id="a_node12"><a xlink:href="/develop/Data/models.html#object-biological-relationship-type" xlink:title="ObjectBiologicalRelationshipType" target="_top">
<polygon fill="#eeefff" stroke="#dddeee" points="603.67,-304.51 398.67,-304.51 398.67,-268.51 603.67,-268.51 603.67,-304.51"/>
<text text-anchor="middle" x="501.17" y="-282.81" font-family="Times,serif" font-size="14.00">ObjectBiologicalRelationshipType</text>
</a>
</g>
</g>
<!-- ObjectBiologicalProperty -->
<g id="node13" class="node">
<title>ObjectBiologicalProperty</title>
<g id="a_node13"><a xlink:href="/develop/Data/models.html#object-biological-property" xlink:title="ObjectBiologicalProperty" target="_top">
<polygon fill="#eeefff" stroke="#dddeee" points="799.17,-304.51 644.17,-304.51 644.17,-268.51 799.17,-268.51 799.17,-304.51"/>
<text text-anchor="middle" x="721.67" y="-282.81" font-family="Times,serif" font-size="14.00">ObjectBiologicalProperty</text>
</a>
</g>
</g>
<!-- PinboardItem -->
<g id="node14" class="node">
<title>PinboardItem</title>
<g id="a_node14"><a xlink:href="/develop/Data/models.html#pinboard-item" xlink:title="PinboardItem" target="_top">
<polygon fill="#eeefff" stroke="#dddeee" points="546.67,-250.51 455.67,-250.51 455.67,-214.51 546.67,-214.51 546.67,-250.51"/>
<text text-anchor="middle" x="501.17" y="-228.81" font-family="Times,serif" font-size="14.00">PinboardItem</text>
</a>
</g>
</g>
<!-- Role -->
<g id="node15" class="node">
<title>Role</title>
<g id="a_node15"><a xlink:href="/develop/Data/models.html#role" xlink:title="Role" target="_top">
<polygon fill="#eeefff" stroke="#dddeee" points="528.17,-196.51 474.17,-196.51 474.17,-160.51 528.17,-160.51 528.17,-196.51"/>
<text text-anchor="middle" x="501.17" y="-174.81" font-family="Times,serif" font-size="14.00">Role</text>
</a>
</g>
</g>
<!-- SubjectBiologicalRelationshipType -->
<g id="node16" class="node">
<title>SubjectBiologicalRelationshipType</title>
<g id="a_node16"><a xlink:href="/develop/Data/models.html#subject-biological-relationship-type" xlink:title="SubjectBiologicalRelationshipType" target="_top">
<polygon fill="#eeefff" stroke="#dddeee" points="605.67,-88.51 396.67,-88.51 396.67,-52.51 605.67,-52.51 605.67,-88.51"/>
<text text-anchor="middle" x="501.17" y="-66.81" font-family="Times,serif" font-size="14.00">SubjectBiologicalRelationshipType</text>
</a>
</g>
</g>
<!-- SubjectBiologicalProperty -->
<g id="node17" class="node">
<title>SubjectBiologicalProperty</title>
<g id="a_node17"><a xlink:href="/develop/Data/models.html#subject-biological-property" xlink:title="SubjectBiologicalProperty" target="_top">
<polygon fill="#eeefff" stroke="#dddeee" points="801.67,-88.51 641.67,-88.51 641.67,-52.51 801.67,-52.51 801.67,-88.51"/>
<text text-anchor="middle" x="721.67" y="-66.81" font-family="Times,serif" font-size="14.00">SubjectBiologicalProperty</text>
</a>
</g>
</g>
<!-- SubsequentCitation -->
<g id="node18" class="node">
<title>SubsequentCitation</title>
<g id="a_node18"><a xlink:href="/develop/Data/models.html#subsequent-citation" xlink:title="SubsequentCitation" target="_top">
<polygon fill="#eeefff" stroke="#dddeee" points="782.67,-560.51 660.67,-560.51 660.67,-524.51 782.67,-524.51 782.67,-560.51"/>
<text text-anchor="middle" x="721.67" y="-538.81" font-family="Times,serif" font-size="14.00">SubsequentCitation</text>
</a>
</g>
</g>
<!-- SubsequentSource -->
<g id="node19" class="node">
<title>SubsequentSource</title>
<g id="a_node19"><a xlink:href="/develop/Data/models.html#subsequent-source" xlink:title="SubsequentSource" target="_top">
<polygon fill="#eeefff" stroke="#dddeee" points="953.67,-560.51 837.67,-560.51 837.67,-524.51 953.67,-524.51 953.67,-560.51"/>
<text text-anchor="middle" x="895.67" y="-538.81" font-family="Times,serif" font-size="14.00">SubsequentSource</text>
</a>
</g>
</g>
<!-- Topic -->
<g id="node20" class="node">
<title>Topic</title>
<g id="a_node20"><a xlink:href="/develop/Data/models.html#topic" xlink:title="Topic" target="_top">
<polygon fill="#eeefff" stroke="#dddeee" points="528.17,-692.51 474.17,-692.51 474.17,-656.51 528.17,-656.51 528.17,-692.51"/>
<text text-anchor="middle" x="501.17" y="-670.81" font-family="Times,serif" font-size="14.00">Topic</text>
</a>
</g>
</g>
<!-- VerifierRole -->
<g id="node21" class="node">
<title>VerifierRole</title>
<g id="a_node21"><a xlink:href="/develop/Data/models.html#verifier-role" xlink:title="VerifierRole" target="_top">
<polygon fill="#eeefff" stroke="#dddeee" points="542.67,-142.51 459.67,-142.51 459.67,-106.51 542.67,-106.51 542.67,-142.51"/>
<text text-anchor="middle" x="501.17" y="-120.81" font-family="Times,serif" font-size="14.00">VerifierRole</text>
</a>
</g>
</g>
<!-- Verifier -->
<g id="node22" class="node">
<title>Verifier</title>
<g id="a_node22"><a xlink:href="/develop/Data/models.html#verifier" xlink:title="Verifier" target="_top">
<polygon fill="#eeefff" stroke="#dddeee" points="750.17,-169.51 693.17,-169.51 693.17,-133.51 750.17,-133.51 750.17,-169.51"/>
<text text-anchor="middle" x="721.67" y="-147.81" font-family="Times,serif" font-size="14.00">Verifier</text>
</a>
</g>
</g>
<!-- Creator -->
<g id="node23" class="node">
<title>Creator</title>
<g id="a_node23"><a xlink:href="/develop/Data/models.html#creator" xlink:title="Creator" target="_top">
<polygon fill="#eeefff" stroke="#dddeee" points="750.17,-468.51 693.17,-468.51 693.17,-432.51 750.17,-432.51 750.17,-468.51"/>
<text text-anchor="middle" x="721.67" y="-446.81" font-family="Times,serif" font-size="14.00">Creator</text>
</a>
</g>
</g>
<!-- Project -->
<g id="node24" class="node">
<title>Project</title>
<g id="a_node24"><a xlink:href="/develop/Data/models.html#project" xlink:title="Project" target="_top">
<polygon fill="#eeefff" stroke="#dddeee" points="528.67,-468.51 473.67,-468.51 473.67,-432.51 528.67,-432.51 528.67,-468.51"/>
<text text-anchor="middle" x="501.17" y="-446.81" font-family="Times,serif" font-size="14.00">Project</text>
</a>
</g>
</g>
<!-- Updater -->
<g id="node25" class="node">
<title>Updater</title>
<g id="a_node25"><a xlink:href="/develop/Data/models.html#updater" xlink:title="Updater" target="_top">
<polygon fill="#eeefff" stroke="#dddeee" points="925.67,-468.51 865.67,-468.51 865.67,-432.51 925.67,-432.51 925.67,-468.51"/>
<text text-anchor="middle" x="895.67" y="-446.81" font-family="Times,serif" font-size="14.00">Updater</text>
</a>
</g>
</g>
<!-- OriginCitation -->
<g id="node26" class="node">
<title>OriginCitation</title>
<g id="a_node26"><a xlink:href="/develop/Data/models.html#origin-citation" xlink:title="OriginCitation" target="_top">
<polygon fill="#eeefff" stroke="#dddeee" points="769.17,-629.51 674.17,-629.51 674.17,-593.51 769.17,-593.51 769.17,-629.51"/>
<text text-anchor="middle" x="721.67" y="-607.81" font-family="Times,serif" font-size="14.00">OriginCitation</text>
</a>
</g>
</g>
</g>
</svg>
