<?xml version="1.0" encoding="UTF-8" standalone="no"?>
<!DOCTYPE svg PUBLIC "-//W3C//DTD SVG 1.1//EN"
 "http://www.w3.org/Graphics/SVG/1.1/DTD/svg11.dtd">
<!-- Generated by graphviz version 2.50.0 (20211204.2007)
 -->
<!-- Title: BiologicalRelationshipType Pages: 1 -->
<svg width="620pt" height="383pt"
 viewBox="0.00 0.00 619.78 383.49" xmlns="http://www.w3.org/2000/svg" xmlns:xlink="http://www.w3.org/1999/xlink">
<g id="graph0" class="graph" transform="scale(1 1) rotate(0) translate(4 379.49)">
<title>BiologicalRelationshipType</title>
<polygon fill="white" stroke="transparent" points="-4,4 -4,-379.49 615.78,-379.49 615.78,4 -4,4"/>
<!-- BiologicalRelationshipType&#45;&gt;PinboardItem -->
<g id="edge1" class="edge">
<title>BiologicalRelationshipType&#45;&gt;PinboardItem</title>
<path fill="none" stroke="black" d="M140.25,-190.54C166.61,-224.73 221.67,-290.73 281.78,-330.49 286.62,-333.69 291.9,-336.6 297.31,-339.22"/>
<polygon fill="black" stroke="black" points="295.94,-342.44 306.5,-343.36 298.82,-336.06 295.94,-342.44"/>
</g>
<!-- BiologicalRelationshipType&#45;&gt;Role -->
<g id="edge2" class="edge">
<title>BiologicalRelationshipType&#45;&gt;Role</title>
<path fill="none" stroke="black" d="M152.02,-190.68C182.67,-214.13 233.75,-251.16 281.78,-276.49 292.5,-282.14 304.67,-287.27 315.79,-291.5"/>
<polygon fill="black" stroke="black" points="314.65,-294.81 325.24,-294.98 317.07,-288.24 314.65,-294.81"/>
</g>
<!-- BiologicalRelationshipType&#45;&gt;VerifierRole -->
<g id="edge3" class="edge">
<title>BiologicalRelationshipType&#45;&gt;VerifierRole</title>
<path fill="none" stroke="black" d="M181.86,-189.14C218.66,-202.25 265.82,-219.04 301.03,-231.59"/>
<polygon fill="black" stroke="black" points="300.03,-234.95 310.63,-235.01 302.38,-228.35 300.03,-234.95"/>
</g>
<!-- BiologicalRelationshipType&#45;&gt;BiologicalProperty -->
<g id="edge5" class="edge">
<title>BiologicalRelationshipType&#45;&gt;BiologicalProperty</title>
<path fill="none" stroke="black" stroke-dasharray="5,2" d="M242.77,-182.6C260.04,-184.65 277.16,-186.69 292.52,-188.51"/>
<polygon fill="black" stroke="black" points="242.93,-179.1 232.59,-181.4 242.11,-186.05 242.93,-179.1"/>
</g>
<!-- BiologicalRelationshipType&#45;&gt;BiologicalRelationship -->
<g id="edge6" class="edge">
<title>BiologicalRelationshipType&#45;&gt;BiologicalRelationship</title>
<path fill="none" stroke="black" stroke-dasharray="5,2" d="M242.76,-154.37C256.04,-152.8 269.23,-151.23 281.6,-149.76"/>
<polygon fill="black" stroke="black" points="242.11,-150.93 232.59,-155.58 242.93,-157.88 242.11,-150.93"/>
</g>
<!-- BiologicalRelationshipType&#45;&gt;Creator -->
<g id="edge7" class="edge">
<title>BiologicalRelationshipType&#45;&gt;Creator</title>
<path fill="none" stroke="black" stroke-dasharray="5,2" d="M191,-144.44C218.94,-134.71 251.79,-123.65 281.78,-114.49 343.85,-95.53 361.44,-97.68 422.78,-76.49 434.67,-72.38 447.49,-67.1 458.47,-62.3"/>
<polygon fill="black" stroke="black" points="189.62,-141.21 181.34,-147.82 191.93,-147.82 189.62,-141.21"/>
</g>
<!-- BiologicalRelationshipType&#45;&gt;Project -->
<g id="edge8" class="edge">
<title>BiologicalRelationshipType&#45;&gt;Project</title>
<path fill="none" stroke="black" stroke-dasharray="5,2" d="M170.98,-141.38C202.12,-123.74 244.02,-100.55 281.78,-81.49 295.77,-74.42 311.63,-67.07 324.66,-61.2"/>
<polygon fill="black" stroke="black" points="169.05,-138.45 162.08,-146.43 172.51,-144.53 169.05,-138.45"/>
</g>
<!-- BiologicalRelationshipType&#45;&gt;Updater -->
<g id="edge9" class="edge">
<title>BiologicalRelationshipType&#45;&gt;Updater</title>
<path fill="none" stroke="black" stroke-dasharray="5,2" d="M145.2,-138.18C172.24,-102.65 222.56,-45.67 281.78,-22.49 378.62,15.42 413.79,-2.15 515.78,-22.49 527.88,-24.9 540.55,-29.61 551.46,-34.43"/>
<polygon fill="black" stroke="black" points="142.33,-136.17 139.15,-146.28 147.94,-140.36 142.33,-136.17"/>
</g>
<!-- Role&#45;&gt;Verifier -->
<!-- VerifierRole&#45;&gt;Verifier -->
<g id="edge4" class="edge">
<title>VerifierRole&#45;&gt;Verifier</title>
<path fill="none" stroke="black" d="M393.91,-257.74C411.24,-261.25 431.35,-265.34 448.38,-268.79"/>
<polygon fill="black" stroke="black" points="448.03,-272.29 458.53,-270.85 449.42,-265.43 448.03,-272.29"/>
</g>
<!-- Creator&#45;&gt;Updater -->
<!-- Project&#45;&gt;Creator -->
<!-- BiologicalRelationshipType -->
<g id="node1" class="node">
<title>BiologicalRelationshipType</title>
<g id="a_node1"><a xlink:href="/develop/Data/models.html#biological-relationship-type" xlink:title="BiologicalRelationshipType" target="_top">
<polygon fill="#cdefab" stroke="#dedede" points="241.67,-161.03 241.67,-175.94 172.09,-186.49 73.69,-186.49 4.11,-175.94 4.11,-161.03 73.69,-150.49 172.09,-150.49 241.67,-161.03"/>
<polygon fill="none" stroke="#dedede" points="245.67,-157.59 245.67,-179.38 172.39,-190.49 73.39,-190.49 0.11,-179.38 0.11,-157.59 73.39,-146.49 172.39,-146.49 245.67,-157.59"/>
<text text-anchor="middle" x="122.89" y="-164.79" font-family="Times,serif" font-size="14.00">BiologicalRelationshipType</text>
</a>
</g>
</g>
<!-- PinboardItem -->
<g id="node2" class="node">
<title>PinboardItem</title>
<g id="a_node2"><a xlink:href="/develop/Data/models.html#pinboard-item" xlink:title="PinboardItem" target="_top">
<polygon fill="#eeefff" stroke="#dddeee" points="397.78,-375.49 306.78,-375.49 306.78,-339.49 397.78,-339.49 397.78,-375.49"/>
<text text-anchor="middle" x="352.28" y="-353.79" font-family="Times,serif" font-size="14.00">PinboardItem</text>
</a>
</g>
</g>
<!-- Role -->
<g id="node3" class="node">
<title>Role</title>
<g id="a_node3"><a xlink:href="/develop/Data/models.html#role" xlink:title="Role" target="_top">
<polygon fill="#eeefff" stroke="#dddeee" points="379.28,-321.49 325.28,-321.49 325.28,-285.49 379.28,-285.49 379.28,-321.49"/>
<text text-anchor="middle" x="352.28" y="-299.79" font-family="Times,serif" font-size="14.00">Role</text>
</a>
</g>
</g>
<!-- VerifierRole -->
<g id="node4" class="node">
<title>VerifierRole</title>
<g id="a_node4"><a xlink:href="/develop/Data/models.html#verifier-role" xlink:title="VerifierRole" target="_top">
<polygon fill="#eeefff" stroke="#dddeee" points="393.78,-267.49 310.78,-267.49 310.78,-231.49 393.78,-231.49 393.78,-267.49"/>
<text text-anchor="middle" x="352.28" y="-245.79" font-family="Times,serif" font-size="14.00">VerifierRole</text>
</a>
</g>
</g>
<!-- Verifier -->
<g id="node5" class="node">
<title>Verifier</title>
<g id="a_node5"><a xlink:href="/develop/Data/models.html#verifier" xlink:title="Verifier" target="_top">
<polygon fill="#eeefff" stroke="#dddeee" points="515.78,-294.49 458.78,-294.49 458.78,-258.49 515.78,-258.49 515.78,-294.49"/>
<text text-anchor="middle" x="487.28" y="-272.79" font-family="Times,serif" font-size="14.00">Verifier</text>
</a>
</g>
</g>
<!-- BiologicalProperty -->
<g id="node6" class="node">
<title>BiologicalProperty</title>
<g id="a_node6"><a xlink:href="/develop/Data/models.html#biological-property" xlink:title="BiologicalProperty" target="_top">
<polygon fill="#eeefff" stroke="#dddeee" points="411.78,-213.49 292.78,-213.49 292.78,-177.49 411.78,-177.49 411.78,-213.49"/>
<text text-anchor="middle" x="352.28" y="-191.79" font-family="Times,serif" font-size="14.00">BiologicalProperty</text>
</a>
</g>
</g>
<!-- BiologicalRelationship -->
<g id="node7" class="node">
<title>BiologicalRelationship</title>
<g id="a_node7"><a xlink:href="/develop/Data/models.html#biological-relationship" xlink:title="BiologicalRelationship" target="_top">
<polygon fill="#eeefff" stroke="#dddeee" points="422.78,-159.49 281.78,-159.49 281.78,-123.49 422.78,-123.49 422.78,-159.49"/>
<text text-anchor="middle" x="352.28" y="-137.79" font-family="Times,serif" font-size="14.00">BiologicalRelationship</text>
</a>
</g>
</g>
<!-- Creator -->
<g id="node8" class="node">
<title>Creator</title>
<g id="a_node8"><a xlink:href="/develop/Data/models.html#creator" xlink:title="Creator" target="_top">
<polygon fill="#eeefff" stroke="#dddeee" points="515.78,-67.49 458.78,-67.49 458.78,-31.49 515.78,-31.49 515.78,-67.49"/>
<text text-anchor="middle" x="487.28" y="-45.79" font-family="Times,serif" font-size="14.00">Creator</text>
</a>
</g>
</g>
<!-- Project -->
<g id="node9" class="node">
<title>Project</title>
<g id="a_node9"><a xlink:href="/develop/Data/models.html#project" xlink:title="Project" target="_top">
<polygon fill="#eeefff" stroke="#dddeee" points="379.78,-67.49 324.78,-67.49 324.78,-31.49 379.78,-31.49 379.78,-67.49"/>
<text text-anchor="middle" x="352.28" y="-45.79" font-family="Times,serif" font-size="14.00">Project</text>
</a>
</g>
</g>
<!-- Updater -->
<g id="node10" class="node">
<title>Updater</title>
<g id="a_node10"><a xlink:href="/develop/Data/models.html#updater" xlink:title="Updater" target="_top">
<polygon fill="#eeefff" stroke="#dddeee" points="611.78,-67.49 551.78,-67.49 551.78,-31.49 611.78,-31.49 611.78,-67.49"/>
<text text-anchor="middle" x="581.78" y="-45.79" font-family="Times,serif" font-size="14.00">Updater</text>
</a>
</g>
</g>
</g>
</svg>
