<?xml version="1.0" encoding="UTF-8" standalone="no"?>
<!DOCTYPE svg PUBLIC "-//W3C//DTD SVG 1.1//EN"
 "http://www.w3.org/Graphics/SVG/1.1/DTD/svg11.dtd">
<!-- Generated by graphviz version 2.50.0 (20211204.2007)
 -->
<!-- Title: BiologicalAssociation Pages: 1 -->
<svg width="1032pt" height="630pt"
 viewBox="0.00 0.00 1031.76 630.00" xmlns="http://www.w3.org/2000/svg" xmlns:xlink="http://www.w3.org/1999/xlink">
<g id="graph0" class="graph" transform="scale(1 1) rotate(0) translate(4 626)">
<title>BiologicalAssociation</title>
<polygon fill="white" stroke="transparent" points="-4,4 -4,-626 1027.76,-626 1027.76,4 -4,4"/>
<!-- Citation&#45;&gt;Source -->
<g id="edge12" class="edge">
<title>Citation&#45;&gt;Source</title>
<path fill="none" stroke="black" d="M98.28,-549C190.55,-549 424.86,-549 515.16,-549"/>
<polygon fill="black" stroke="black" points="515.19,-552.5 525.19,-549 515.19,-545.5 515.19,-552.5"/>
</g>
<!-- Citation&#45;&gt;CitationTopic -->
<g id="edge2" class="edge">
<title>Citation&#45;&gt;CitationTopic</title>
<path fill="none" stroke="black" d="M92.97,-558.33C121.83,-566.53 164.42,-578.63 198.5,-588.32"/>
<polygon fill="black" stroke="black" points="197.75,-591.75 208.32,-591.11 199.66,-585.01 197.75,-591.75"/>
</g>
<!-- Confidence&#45;&gt;ConfidenceLevel -->
<g id="edge4" class="edge">
<title>Confidence&#45;&gt;ConfidenceLevel</title>
<path fill="none" stroke="black" d="M109.98,-260C134.3,-260 163.84,-260 189.8,-260"/>
<polygon fill="black" stroke="black" points="189.93,-263.5 199.93,-260 189.93,-256.5 189.93,-263.5"/>
</g>
<!-- Tag&#45;&gt;Keyword -->
<g id="edge8" class="edge">
<title>Tag&#45;&gt;Keyword</title>
<path fill="none" stroke="black" d="M86.24,-206C118.12,-206 172.49,-206 210.6,-206"/>
<polygon fill="black" stroke="black" points="210.88,-209.5 220.88,-206 210.88,-202.5 210.88,-209.5"/>
</g>
<!-- BiologicalAssociation&#45;&gt;Citation -->
<g id="edge3" class="edge">
<title>BiologicalAssociation&#45;&gt;Citation</title>
<path fill="none" stroke="black" d="M234.97,-340.32C198.66,-383.66 118.87,-478.9 80.95,-524.17"/>
<polygon fill="black" stroke="black" points="78.11,-522.1 74.37,-532.01 83.48,-526.6 78.11,-522.1"/>
</g>
<!-- BiologicalAssociation&#45;&gt;Confidence -->
<g id="edge5" class="edge">
<title>BiologicalAssociation&#45;&gt;Confidence</title>
<path fill="none" stroke="black" d="M193.04,-299.83C165.71,-291.64 133.89,-282.1 108.24,-274.42"/>
<polygon fill="black" stroke="black" points="108.96,-270.98 98.38,-271.46 106.95,-277.68 108.96,-270.98"/>
</g>
<!-- BiologicalAssociation&#45;&gt;DataAttribute -->
<g id="edge6" class="edge">
<title>BiologicalAssociation&#45;&gt;DataAttribute</title>
<path fill="none" stroke="black" d="M216.77,-340.08C189.8,-355.95 152.18,-377.53 118.29,-395 113.28,-397.58 107.98,-400.2 102.7,-402.73"/>
<polygon fill="black" stroke="black" points="100.82,-399.75 93.28,-407.19 103.81,-406.08 100.82,-399.75"/>
</g>
<!-- BiologicalAssociation&#45;&gt;Identifier -->
<g id="edge7" class="edge">
<title>BiologicalAssociation&#45;&gt;Identifier</title>
<path fill="none" stroke="black" d="M187.76,-335.03C160.8,-341.99 130.26,-349.88 105.82,-356.2"/>
<polygon fill="black" stroke="black" points="104.9,-352.82 96.09,-358.71 106.65,-359.6 104.9,-352.82"/>
</g>
<!-- BiologicalAssociation&#45;&gt;Tag -->
<g id="edge15" class="edge">
<title>BiologicalAssociation&#45;&gt;Tag</title>
<path fill="none" stroke="black" d="M181.57,-302.01C171.87,-298.05 162.46,-293.12 154.29,-287 131.2,-269.71 140.19,-251.77 118.29,-233 110.97,-226.72 101.94,-221.6 93.2,-217.57"/>
<polygon fill="black" stroke="black" points="94.5,-214.32 83.93,-213.63 91.76,-220.76 94.5,-214.32"/>
</g>
<!-- BiologicalAssociation&#45;&gt;Note -->
<g id="edge9" class="edge">
<title>BiologicalAssociation&#45;&gt;Note</title>
<path fill="none" stroke="black" d="M154.41,-315.95C134.17,-315.53 114.07,-315.11 97.67,-314.78"/>
<polygon fill="black" stroke="black" points="97.53,-311.27 87.46,-314.56 97.39,-318.27 97.53,-311.27"/>
</g>
<!-- BiologicalAssociation&#45;&gt;Source -->
<g id="edge25" class="edge">
<title>BiologicalAssociation&#45;&gt;Source</title>
<path fill="none" stroke="black" stroke-dasharray="1,5" d="M268.21,-349.78C287.54,-394.39 329,-474.72 391.05,-516 432.22,-543.39 491.51,-548.79 525.26,-549.44"/>
<polygon fill="black" stroke="black" points="271.32,-348.16 264.2,-340.31 264.87,-350.88 271.32,-348.16"/>
</g>
<!-- BiologicalAssociation&#45;&gt;BiologicalAssociationsBiologicalAssociationsGraph -->
<g id="edge1" class="edge">
<title>BiologicalAssociation&#45;&gt;BiologicalAssociationsBiologicalAssociationsGraph</title>
<path fill="none" stroke="black" d="M325.56,-301.7C335.89,-297.75 346.06,-292.91 355.05,-287 375.58,-273.48 369.64,-257.1 391.05,-245 394,-243.33 397.02,-241.76 400.11,-240.28"/>
<polygon fill="black" stroke="black" points="401.81,-243.36 409.54,-236.12 398.98,-236.96 401.81,-243.36"/>
</g>
<!-- BiologicalAssociation&#45;&gt;PinboardItem -->
<g id="edge10" class="edge">
<title>BiologicalAssociation&#45;&gt;PinboardItem</title>
<path fill="none" stroke="black" d="M331.15,-302.73C339.9,-298.67 348.15,-293.52 355.05,-287 388.16,-255.7 355.89,-219.99 391.05,-191 420.17,-167 462.6,-160.7 496.5,-160.16"/>
<polygon fill="black" stroke="black" points="496.72,-163.66 506.72,-160.17 496.72,-156.66 496.72,-163.66"/>
</g>
<!-- BiologicalAssociation&#45;&gt;Role -->
<g id="edge11" class="edge">
<title>BiologicalAssociation&#45;&gt;Role</title>
<path fill="none" stroke="black" d="M341.6,-331.37C399.27,-340.34 472.27,-351.69 515.2,-358.37"/>
<polygon fill="black" stroke="black" points="514.76,-361.84 525.18,-359.92 515.84,-354.93 514.76,-361.84"/>
</g>
<!-- BiologicalAssociation&#45;&gt;SubsequentCitation -->
<g id="edge13" class="edge">
<title>BiologicalAssociation&#45;&gt;SubsequentCitation</title>
<path fill="none" stroke="black" d="M266.93,-340.06C286.66,-376.16 331.12,-447.1 391.05,-480 517.83,-549.6 571.02,-498.61 713.76,-522 722.22,-523.39 731.08,-524.97 739.86,-526.61"/>
<polygon fill="black" stroke="black" points="739.22,-530.05 749.69,-528.48 740.53,-523.17 739.22,-530.05"/>
</g>
<!-- BiologicalAssociation&#45;&gt;VerifierRole -->
<g id="edge17" class="edge">
<title>BiologicalAssociation&#45;&gt;VerifierRole</title>
<path fill="none" stroke="black" d="M289.02,-340.01C315.59,-356.53 354.3,-378.39 391.05,-391 426.59,-403.2 468.51,-410.01 500.58,-413.74"/>
<polygon fill="black" stroke="black" points="500.31,-417.23 510.63,-414.85 501.07,-410.27 500.31,-417.23"/>
</g>
<!-- BiologicalAssociation&#45;&gt;BiologicalRelationship -->
<g id="edge20" class="edge">
<title>BiologicalAssociation&#45;&gt;BiologicalRelationship</title>
<path fill="none" stroke="black" stroke-dasharray="5,2" d="M343.08,-297.75C347.48,-294.65 351.53,-291.09 355.05,-287 424.46,-206.17 317.47,-127.06 391.05,-50 414.08,-25.87 449.75,-17.15 481.61,-14.78"/>
<polygon fill="black" stroke="black" points="340.92,-294.96 334.2,-303.15 344.56,-300.94 340.92,-294.96"/>
</g>
<!-- BiologicalAssociation&#45;&gt;Creator -->
<g id="edge21" class="edge">
<title>BiologicalAssociation&#45;&gt;Creator</title>
<path fill="none" stroke="black" stroke-dasharray="5,2" d="M342.96,-297.65C347.4,-294.58 351.48,-291.05 355.05,-287 415.86,-217.88 320.51,-142.18 391.05,-83 445.99,-36.91 642.72,-73.2 713.76,-83 737.25,-86.24 763.09,-93.75 782.04,-100.02"/>
<polygon fill="black" stroke="black" points="340.81,-294.86 334.04,-303.01 344.42,-300.86 340.81,-294.86"/>
</g>
<!-- BiologicalAssociation&#45;&gt;Project -->
<g id="edge22" class="edge">
<title>BiologicalAssociation&#45;&gt;Project</title>
<path fill="none" stroke="black" stroke-dasharray="5,2" d="M342.04,-297.81C346.79,-294.7 351.19,-291.12 355.05,-287 401.88,-236.93 340.93,-183.78 391.05,-137 427.37,-103.09 489.54,-103.05 524.85,-106.33"/>
<polygon fill="black" stroke="black" points="340.1,-294.89 333.16,-302.91 343.58,-300.97 340.1,-294.89"/>
</g>
<!-- BiologicalAssociation&#45;&gt;Updater -->
<g id="edge23" class="edge">
<title>BiologicalAssociation&#45;&gt;Updater</title>
<path fill="none" stroke="black" stroke-dasharray="5,2" d="M358.89,-330.85C453.98,-338.74 597.51,-340.57 713.76,-299 816.23,-262.36 911.42,-168.04 948.45,-128.2"/>
<polygon fill="black" stroke="black" points="358.95,-327.34 348.69,-329.96 358.35,-334.31 358.95,-327.34"/>
</g>
<!-- BiologicalAssociation&#45;&gt;OriginCitation -->
<g id="edge24" class="edge">
<title>BiologicalAssociation&#45;&gt;OriginCitation</title>
<path fill="none" stroke="black" stroke-dasharray="1,5" d="M277.54,-348.26C301.53,-378.76 343.07,-424.21 391.05,-445 516.53,-499.38 683.17,-488.52 763.1,-478.86"/>
<polygon fill="black" stroke="black" points="280.12,-345.87 271.24,-340.09 274.57,-350.14 280.12,-345.87"/>
</g>
<!-- BiologicalAssociation&#45;&gt;Objects with Biological associations -->
<g id="edge19" class="edge">
<title>BiologicalAssociation&#45;&gt;Objects with Biological associations</title>
<path fill="none" stroke="black" stroke-dasharray="5,2" d="M351.49,-303.1C385.3,-297.84 423.27,-291.93 456.96,-286.69"/>
<polygon fill="black" stroke="black" points="350.95,-299.64 341.6,-304.63 352.02,-306.55 350.95,-299.64"/>
</g>
<!-- Source&#45;&gt;SubsequentCitation -->
<!-- Source&#45;&gt;OriginCitation -->
<!-- CitationTopic&#45;&gt;Topic -->
<g id="edge16" class="edge">
<title>CitationTopic&#45;&gt;Topic</title>
<path fill="none" stroke="black" d="M300.91,-604C359.61,-604 460.9,-604 514.94,-604"/>
<polygon fill="black" stroke="black" points="515.1,-607.5 525.1,-604 515.1,-600.5 515.1,-607.5"/>
</g>
<!-- Role&#45;&gt;Verifier -->
<!-- SubsequentCitation&#45;&gt;SubsequentSource -->
<g id="edge14" class="edge">
<title>SubsequentCitation&#45;&gt;SubsequentSource</title>
<path fill="none" stroke="black" d="M871.79,-541C880.12,-541 888.73,-541 897.18,-541"/>
<polygon fill="black" stroke="black" points="897.4,-544.5 907.4,-541 897.4,-537.5 897.4,-544.5"/>
</g>
<!-- VerifierRole&#45;&gt;Verifier -->
<g id="edge18" class="edge">
<title>VerifierRole&#45;&gt;Verifier</title>
<path fill="none" stroke="black" d="M594.02,-414.36C642.85,-409.97 724.15,-402.68 771.77,-398.41"/>
<polygon fill="black" stroke="black" points="772.32,-401.87 781.97,-397.49 771.7,-394.9 772.32,-401.87"/>
</g>
<!-- Creator&#45;&gt;Updater -->
<!-- Project&#45;&gt;Creator -->
<!-- Citation -->
<g id="node1" class="node">
<title>Citation</title>
<g id="a_node1"><a xlink:href="/develop/Data/models.html#citation" xlink:title="Citation" target="_top">
<ellipse fill="#abcdef" stroke="#dddeee" cx="59.14" cy="-549" rx="38.99" ry="18"/>
<text text-anchor="middle" x="59.14" y="-545.3" font-family="Times,serif" font-size="14.00">Citation</text>
</a>
</g>
</g>
<!-- Confidence -->
<g id="node2" class="node">
<title>Confidence</title>
<g id="a_node2"><a xlink:href="/develop/Data/models.html#confidence" xlink:title="Confidence" target="_top">
<ellipse fill="#abcdef" stroke="#dddeee" cx="59.14" cy="-260" rx="50.89" ry="18"/>
<text text-anchor="middle" x="59.14" y="-256.3" font-family="Times,serif" font-size="14.00">Confidence</text>
</a>
</g>
</g>
<!-- DataAttribute -->
<g id="node3" class="node">
<title>DataAttribute</title>
<g id="a_node3"><a xlink:href="/develop/Data/models.html#data-attribute" xlink:title="DataAttribute" target="_top">
<ellipse fill="#abcdef" stroke="#dddeee" cx="59.14" cy="-422" rx="59.29" ry="18"/>
<text text-anchor="middle" x="59.14" y="-418.3" font-family="Times,serif" font-size="14.00">DataAttribute</text>
</a>
</g>
</g>
<!-- Identifier -->
<g id="node4" class="node">
<title>Identifier</title>
<g id="a_node4"><a xlink:href="/develop/Data/models.html#identifier" xlink:title="Identifier" target="_top">
<ellipse fill="#abcdef" stroke="#dddeee" cx="59.14" cy="-368" rx="42.79" ry="18"/>
<text text-anchor="middle" x="59.14" y="-364.3" font-family="Times,serif" font-size="14.00">Identifier</text>
</a>
</g>
</g>
<!-- Tag -->
<g id="node5" class="node">
<title>Tag</title>
<g id="a_node5"><a xlink:href="/develop/Data/models.html#tag" xlink:title="Tag" target="_top">
<ellipse fill="#abcdef" stroke="#dddeee" cx="59.14" cy="-206" rx="27" ry="18"/>
<text text-anchor="middle" x="59.14" y="-202.3" font-family="Times,serif" font-size="14.00">Tag</text>
</a>
</g>
</g>
<!-- Note -->
<g id="node6" class="node">
<title>Note</title>
<g id="a_node6"><a xlink:href="/develop/Data/models.html#note" xlink:title="Note" target="_top">
<ellipse fill="#abcdef" stroke="#dddeee" cx="59.14" cy="-314" rx="27.9" ry="18"/>
<text text-anchor="middle" x="59.14" y="-310.3" font-family="Times,serif" font-size="14.00">Note</text>
</a>
</g>
</g>
<!-- BiologicalAssociation -->
<g id="node7" class="node">
<title>BiologicalAssociation</title>
<g id="a_node7"><a xlink:href="/develop/Data/models.html#biological-association" xlink:title="BiologicalAssociation" target="_top">
<polygon fill="#cdefab" stroke="#dedede" points="350.93,-310.54 350.93,-325.46 294.54,-336 214.79,-336 158.41,-325.46 158.41,-310.54 214.79,-300 294.54,-300 350.93,-310.54"/>
<polygon fill="none" stroke="#dedede" points="354.93,-307.22 354.93,-328.78 294.91,-340 214.43,-340 154.41,-328.78 154.41,-307.22 214.43,-296 294.91,-296 354.93,-307.22"/>
<text text-anchor="middle" x="254.67" y="-314.3" font-family="Times,serif" font-size="14.00">BiologicalAssociation</text>
</a>
</g>
</g>
<!-- Source -->
<g id="node8" class="node">
<title>Source</title>
<g id="a_node8"><a xlink:href="/develop/Data/models.html#source" xlink:title="Source" target="_top">
<path fill="#fedcba" stroke="#dddeee" d="M537.4,-531C537.4,-531 567.4,-531 567.4,-531 573.4,-531 579.4,-537 579.4,-543 579.4,-543 579.4,-555 579.4,-555 579.4,-561 573.4,-567 567.4,-567 567.4,-567 537.4,-567 537.4,-567 531.4,-567 525.4,-561 525.4,-555 525.4,-555 525.4,-543 525.4,-543 525.4,-537 531.4,-531 537.4,-531"/>
<text text-anchor="middle" x="552.4" y="-545.3" font-family="Times,serif" font-size="14.00">Source</text>
</a>
</g>
</g>
<!-- BiologicalAssociationsBiologicalAssociationsGraph -->
<g id="node9" class="node">
<title>BiologicalAssociationsBiologicalAssociationsGraph</title>
<g id="a_node9"><a xlink:href="/develop/Data/models.html#biological-associations-biological-associations-graph" xlink:title="BiologicalAssociationsBiologicalAssociationsGraph" target="_top">
<polygon fill="#eeefff" stroke="#dddeee" points="702.9,-236 401.9,-236 401.9,-200 702.9,-200 702.9,-236"/>
<text text-anchor="middle" x="552.4" y="-214.3" font-family="Times,serif" font-size="14.00">BiologicalAssociationsBiologicalAssociationsGraph</text>
</a>
</g>
</g>
<!-- CitationTopic -->
<g id="node10" class="node">
<title>CitationTopic</title>
<g id="a_node10"><a xlink:href="/develop/Data/models.html#citation-topic" xlink:title="CitationTopic" target="_top">
<polygon fill="#eeefff" stroke="#dddeee" points="300.67,-622 208.67,-622 208.67,-586 300.67,-586 300.67,-622"/>
<text text-anchor="middle" x="254.67" y="-600.3" font-family="Times,serif" font-size="14.00">CitationTopic</text>
</a>
</g>
</g>
<!-- ConfidenceLevel -->
<g id="node11" class="node">
<title>ConfidenceLevel</title>
<g id="a_node11"><a xlink:href="/develop/Data/models.html#confidence-level" xlink:title="ConfidenceLevel" target="_top">
<polygon fill="#eeefff" stroke="#dddeee" points="309.17,-278 200.17,-278 200.17,-242 309.17,-242 309.17,-278"/>
<text text-anchor="middle" x="254.67" y="-256.3" font-family="Times,serif" font-size="14.00">ConfidenceLevel</text>
</a>
</g>
</g>
<!-- Keyword -->
<g id="node12" class="node">
<title>Keyword</title>
<g id="a_node12"><a xlink:href="/develop/Data/models.html#keyword" xlink:title="Keyword" target="_top">
<polygon fill="#eeefff" stroke="#dddeee" points="288.17,-224 221.17,-224 221.17,-188 288.17,-188 288.17,-224"/>
<text text-anchor="middle" x="254.67" y="-202.3" font-family="Times,serif" font-size="14.00">Keyword</text>
</a>
</g>
</g>
<!-- PinboardItem -->
<g id="node13" class="node">
<title>PinboardItem</title>
<g id="a_node13"><a xlink:href="/develop/Data/models.html#pinboard-item" xlink:title="PinboardItem" target="_top">
<polygon fill="#eeefff" stroke="#dddeee" points="597.9,-182 506.9,-182 506.9,-146 597.9,-146 597.9,-182"/>
<text text-anchor="middle" x="552.4" y="-160.3" font-family="Times,serif" font-size="14.00">PinboardItem</text>
</a>
</g>
</g>
<!-- Role -->
<g id="node14" class="node">
<title>Role</title>
<g id="a_node14"><a xlink:href="/develop/Data/models.html#role" xlink:title="Role" target="_top">
<polygon fill="#eeefff" stroke="#dddeee" points="579.4,-382 525.4,-382 525.4,-346 579.4,-346 579.4,-382"/>
<text text-anchor="middle" x="552.4" y="-360.3" font-family="Times,serif" font-size="14.00">Role</text>
</a>
</g>
</g>
<!-- SubsequentCitation -->
<g id="node15" class="node">
<title>SubsequentCitation</title>
<g id="a_node15"><a xlink:href="/develop/Data/models.html#subsequent-citation" xlink:title="SubsequentCitation" target="_top">
<polygon fill="#eeefff" stroke="#dddeee" points="871.76,-559 749.76,-559 749.76,-523 871.76,-523 871.76,-559"/>
<text text-anchor="middle" x="810.76" y="-537.3" font-family="Times,serif" font-size="14.00">SubsequentCitation</text>
</a>
</g>
</g>
<!-- SubsequentSource -->
<g id="node16" class="node">
<title>SubsequentSource</title>
<g id="a_node16"><a xlink:href="/develop/Data/models.html#subsequent-source" xlink:title="SubsequentSource" target="_top">
<polygon fill="#eeefff" stroke="#dddeee" points="1023.76,-559 907.76,-559 907.76,-523 1023.76,-523 1023.76,-559"/>
<text text-anchor="middle" x="965.76" y="-537.3" font-family="Times,serif" font-size="14.00">SubsequentSource</text>
</a>
</g>
</g>
<!-- Topic -->
<g id="node17" class="node">
<title>Topic</title>
<g id="a_node17"><a xlink:href="/develop/Data/models.html#topic" xlink:title="Topic" target="_top">
<polygon fill="#eeefff" stroke="#dddeee" points="579.4,-622 525.4,-622 525.4,-586 579.4,-586 579.4,-622"/>
<text text-anchor="middle" x="552.4" y="-600.3" font-family="Times,serif" font-size="14.00">Topic</text>
</a>
</g>
</g>
<!-- VerifierRole -->
<g id="node18" class="node">
<title>VerifierRole</title>
<g id="a_node18"><a xlink:href="/develop/Data/models.html#verifier-role" xlink:title="VerifierRole" target="_top">
<polygon fill="#eeefff" stroke="#dddeee" points="593.9,-436 510.9,-436 510.9,-400 593.9,-400 593.9,-436"/>
<text text-anchor="middle" x="552.4" y="-414.3" font-family="Times,serif" font-size="14.00">VerifierRole</text>
</a>
</g>
</g>
<!-- Verifier -->
<g id="node19" class="node">
<title>Verifier</title>
<g id="a_node19"><a xlink:href="/develop/Data/models.html#verifier" xlink:title="Verifier" target="_top">
<polygon fill="#eeefff" stroke="#dddeee" points="839.26,-413 782.26,-413 782.26,-377 839.26,-377 839.26,-413"/>
<text text-anchor="middle" x="810.76" y="-391.3" font-family="Times,serif" font-size="14.00">Verifier</text>
</a>
</g>
</g>
<!-- BiologicalRelationship -->
<g id="node20" class="node">
<title>BiologicalRelationship</title>
<g id="a_node20"><a xlink:href="/develop/Data/models.html#biological-relationship" xlink:title="BiologicalRelationship" target="_top">
<polygon fill="#eeefff" stroke="#dddeee" points="622.9,-36 481.9,-36 481.9,0 622.9,0 622.9,-36"/>
<text text-anchor="middle" x="552.4" y="-14.3" font-family="Times,serif" font-size="14.00">BiologicalRelationship</text>
</a>
</g>
</g>
<!-- Creator -->
<g id="node21" class="node">
<title>Creator</title>
<g id="a_node21"><a xlink:href="/develop/Data/models.html#creator" xlink:title="Creator" target="_top">
<polygon fill="#eeefff" stroke="#dddeee" points="839.26,-128 782.26,-128 782.26,-92 839.26,-92 839.26,-128"/>
<text text-anchor="middle" x="810.76" y="-106.3" font-family="Times,serif" font-size="14.00">Creator</text>
</a>
</g>
</g>
<!-- Project -->
<g id="node22" class="node">
<title>Project</title>
<g id="a_node22"><a xlink:href="/develop/Data/models.html#project" xlink:title="Project" target="_top">
<polygon fill="#eeefff" stroke="#dddeee" points="579.9,-128 524.9,-128 524.9,-92 579.9,-92 579.9,-128"/>
<text text-anchor="middle" x="552.4" y="-106.3" font-family="Times,serif" font-size="14.00">Project</text>
</a>
</g>
</g>
<!-- Updater -->
<g id="node23" class="node">
<title>Updater</title>
<g id="a_node23"><a xlink:href="/develop/Data/models.html#updater" xlink:title="Updater" target="_top">
<polygon fill="#eeefff" stroke="#dddeee" points="995.76,-128 935.76,-128 935.76,-92 995.76,-92 995.76,-128"/>
<text text-anchor="middle" x="965.76" y="-106.3" font-family="Times,serif" font-size="14.00">Updater</text>
</a>
</g>
</g>
<!-- OriginCitation -->
<g id="node24" class="node">
<title>OriginCitation</title>
<g id="a_node24"><a xlink:href="/develop/Data/models.html#origin-citation" xlink:title="OriginCitation" target="_top">
<polygon fill="#eeefff" stroke="#dddeee" points="858.26,-490 763.26,-490 763.26,-454 858.26,-454 858.26,-490"/>
<text text-anchor="middle" x="810.76" y="-468.3" font-family="Times,serif" font-size="14.00">OriginCitation</text>
</a>
</g>
</g>
<!-- Objects with Biological associations -->
<g id="node25" class="node">
<title>Objects with Biological associations</title>
<g id="a_node25"><a xlink:href="/develop/Data/models.html#objects with biological association" xlink:title="Objects with Biological associations" target="_top">
<polygon fill="#cdabef" stroke="#dedede" points="713.61,-272 633.01,-290 471.8,-290 391.19,-272 471.8,-254 633.01,-254 713.61,-272"/>
<text text-anchor="middle" x="552.4" y="-268.3" font-family="Times,serif" font-size="14.00">Objects with Biological associations</text>
</a>
</g>
</g>
</g>
</svg>
