<?xml version="1.0" encoding="UTF-8" standalone="no"?>
<!DOCTYPE svg PUBLIC "-//W3C//DTD SVG 1.1//EN"
 "http://www.w3.org/Graphics/SVG/1.1/DTD/svg11.dtd">
<!-- Generated by graphviz version 2.50.0 (20211204.2007)
 -->
<!-- Title: BiologicalRelationshipType Pages: 1 -->
<svg width="739pt" height="421pt"
 viewBox="0.00 0.00 739.00 421.49" xmlns="http://www.w3.org/2000/svg" xmlns:xlink="http://www.w3.org/1999/xlink">
<g id="graph0" class="graph" transform="scale(1 1) rotate(0) translate(4 417.49)">
<title>BiologicalRelationshipType</title>
<polygon fill="white" stroke="transparent" points="-4,4 -4,-417.49 735,-417.49 735,4 -4,4"/>
<text text-anchor="middle" x="365.5" y="-22.8" font-family="Times,serif" font-size="14.00">Algorithmically generated relationships for BiologicalRelationshipType based on assertions of &#39;has_many&#39;, &#39;has_one&#39;, &#39;belongs_to&#39;. </text>
<text text-anchor="middle" x="365.5" y="-7.8" font-family="Times,serif" font-size="14.00">Generated 2022&#45;01&#45;25 11:42:49 &#45;0600.</text>
<!-- BiologicalRelationshipType&#45;&gt;PinboardItem -->
<g id="edge1" class="edge">
<title>BiologicalRelationshipType&#45;&gt;PinboardItem</title>
<path fill="none" stroke="black" d="M199.86,-228.54C226.22,-262.73 281.28,-328.73 341.39,-368.49 346.23,-371.69 351.51,-374.6 356.92,-377.22"/>
<polygon fill="black" stroke="black" points="355.55,-380.44 366.11,-381.36 358.43,-374.06 355.55,-380.44"/>
</g>
<!-- BiologicalRelationshipType&#45;&gt;Role -->
<g id="edge2" class="edge">
<title>BiologicalRelationshipType&#45;&gt;Role</title>
<path fill="none" stroke="black" d="M211.63,-228.68C242.28,-252.13 293.36,-289.16 341.39,-314.49 352.11,-320.14 364.28,-325.27 375.4,-329.5"/>
<polygon fill="black" stroke="black" points="374.26,-332.81 384.85,-332.98 376.68,-326.24 374.26,-332.81"/>
</g>
<!-- BiologicalRelationshipType&#45;&gt;VerifierRole -->
<g id="edge3" class="edge">
<title>BiologicalRelationshipType&#45;&gt;VerifierRole</title>
<path fill="none" stroke="black" d="M241.47,-227.14C278.27,-240.25 325.43,-257.04 360.64,-269.59"/>
<polygon fill="black" stroke="black" points="359.64,-272.95 370.24,-273.01 361.99,-266.35 359.64,-272.95"/>
</g>
<!-- BiologicalRelationshipType&#45;&gt;BiologicalProperty -->
<g id="edge5" class="edge">
<title>BiologicalRelationshipType&#45;&gt;BiologicalProperty</title>
<path fill="none" stroke="black" stroke-dasharray="5,2" d="M302.38,-220.6C319.65,-222.65 336.77,-224.69 352.13,-226.51"/>
<polygon fill="black" stroke="black" points="302.54,-217.1 292.2,-219.4 301.72,-224.05 302.54,-217.1"/>
</g>
<!-- BiologicalRelationshipType&#45;&gt;BiologicalRelationship -->
<g id="edge6" class="edge">
<title>BiologicalRelationshipType&#45;&gt;BiologicalRelationship</title>
<path fill="none" stroke="black" stroke-dasharray="5,2" d="M302.36,-192.37C315.65,-190.8 328.84,-189.23 341.21,-187.76"/>
<polygon fill="black" stroke="black" points="301.72,-188.93 292.2,-193.58 302.54,-195.88 301.72,-188.93"/>
</g>
<!-- BiologicalRelationshipType&#45;&gt;Creator -->
<g id="edge7" class="edge">
<title>BiologicalRelationshipType&#45;&gt;Creator</title>
<path fill="none" stroke="black" stroke-dasharray="5,2" d="M250.61,-182.44C278.55,-172.71 311.4,-161.65 341.39,-152.49 403.46,-133.53 421.05,-135.68 482.39,-114.49 494.28,-110.38 507.1,-105.1 518.08,-100.3"/>
<polygon fill="black" stroke="black" points="249.23,-179.21 240.95,-185.82 251.54,-185.82 249.23,-179.21"/>
</g>
<!-- BiologicalRelationshipType&#45;&gt;Project -->
<g id="edge8" class="edge">
<title>BiologicalRelationshipType&#45;&gt;Project</title>
<path fill="none" stroke="black" stroke-dasharray="5,2" d="M230.59,-179.38C261.73,-161.74 303.63,-138.55 341.39,-119.49 355.38,-112.42 371.24,-105.07 384.27,-99.2"/>
<polygon fill="black" stroke="black" points="228.66,-176.45 221.69,-184.43 232.12,-182.53 228.66,-176.45"/>
</g>
<!-- BiologicalRelationshipType&#45;&gt;Updater -->
<g id="edge9" class="edge">
<title>BiologicalRelationshipType&#45;&gt;Updater</title>
<path fill="none" stroke="black" stroke-dasharray="5,2" d="M204.81,-176.18C231.85,-140.65 282.17,-83.67 341.39,-60.49 438.23,-22.58 473.4,-40.15 575.39,-60.49 587.49,-62.9 600.16,-67.61 611.07,-72.43"/>
<polygon fill="black" stroke="black" points="201.94,-174.17 198.76,-184.28 207.55,-178.36 201.94,-174.17"/>
</g>
<!-- Role&#45;&gt;Verifier -->
<!-- VerifierRole&#45;&gt;Verifier -->
<g id="edge4" class="edge">
<title>VerifierRole&#45;&gt;Verifier</title>
<path fill="none" stroke="black" d="M453.52,-295.74C470.85,-299.25 490.96,-303.34 507.99,-306.79"/>
<polygon fill="black" stroke="black" points="507.64,-310.29 518.14,-308.85 509.03,-303.43 507.64,-310.29"/>
</g>
<!-- Creator&#45;&gt;Updater -->
<!-- Project&#45;&gt;Creator -->
<!-- BiologicalRelationshipType -->
<g id="node1" class="node">
<title>BiologicalRelationshipType</title>
<g id="a_node1"><a xlink:href="/develop/Data/models.html#biological-relationship-type" xlink:title="BiologicalRelationshipType" target="_top">
<polygon fill="#cdefab" stroke="#dedede" points="301.28,-199.03 301.28,-213.94 231.7,-224.49 133.3,-224.49 63.72,-213.94 63.72,-199.03 133.3,-188.49 231.7,-188.49 301.28,-199.03"/>
<polygon fill="none" stroke="#dedede" points="305.28,-195.59 305.28,-217.38 232,-228.49 133,-228.49 59.72,-217.38 59.72,-195.59 133,-184.49 232,-184.49 305.28,-195.59"/>
<text text-anchor="middle" x="182.5" y="-202.79" font-family="Times,serif" font-size="14.00">BiologicalRelationshipType</text>
</a>
</g>
</g>
<!-- PinboardItem -->
<g id="node2" class="node">
<title>PinboardItem</title>
<g id="a_node2"><a xlink:href="/develop/Data/models.html#pinboard-item" xlink:title="PinboardItem" target="_top">
<polygon fill="#eeefff" stroke="#dddeee" points="457.39,-413.49 366.39,-413.49 366.39,-377.49 457.39,-377.49 457.39,-413.49"/>
<text text-anchor="middle" x="411.89" y="-391.79" font-family="Times,serif" font-size="14.00">PinboardItem</text>
</a>
</g>
</g>
<!-- Role -->
<g id="node3" class="node">
<title>Role</title>
<g id="a_node3"><a xlink:href="/develop/Data/models.html#role" xlink:title="Role" target="_top">
<polygon fill="#eeefff" stroke="#dddeee" points="438.89,-359.49 384.89,-359.49 384.89,-323.49 438.89,-323.49 438.89,-359.49"/>
<text text-anchor="middle" x="411.89" y="-337.79" font-family="Times,serif" font-size="14.00">Role</text>
</a>
</g>
</g>
<!-- VerifierRole -->
<g id="node4" class="node">
<title>VerifierRole</title>
<g id="a_node4"><a xlink:href="/develop/Data/models.html#verifier-role" xlink:title="VerifierRole" target="_top">
<polygon fill="#eeefff" stroke="#dddeee" points="453.39,-305.49 370.39,-305.49 370.39,-269.49 453.39,-269.49 453.39,-305.49"/>
<text text-anchor="middle" x="411.89" y="-283.79" font-family="Times,serif" font-size="14.00">VerifierRole</text>
</a>
</g>
</g>
<!-- Verifier -->
<g id="node5" class="node">
<title>Verifier</title>
<g id="a_node5"><a xlink:href="/develop/Data/models.html#verifier" xlink:title="Verifier" target="_top">
<polygon fill="#eeefff" stroke="#dddeee" points="575.39,-332.49 518.39,-332.49 518.39,-296.49 575.39,-296.49 575.39,-332.49"/>
<text text-anchor="middle" x="546.89" y="-310.79" font-family="Times,serif" font-size="14.00">Verifier</text>
</a>
</g>
</g>
<!-- BiologicalProperty -->
<g id="node6" class="node">
<title>BiologicalProperty</title>
<g id="a_node6"><a xlink:href="/develop/Data/models.html#biological-property" xlink:title="BiologicalProperty" target="_top">
<polygon fill="#eeefff" stroke="#dddeee" points="471.39,-251.49 352.39,-251.49 352.39,-215.49 471.39,-215.49 471.39,-251.49"/>
<text text-anchor="middle" x="411.89" y="-229.79" font-family="Times,serif" font-size="14.00">BiologicalProperty</text>
</a>
</g>
</g>
<!-- BiologicalRelationship -->
<g id="node7" class="node">
<title>BiologicalRelationship</title>
<g id="a_node7"><a xlink:href="/develop/Data/models.html#biological-relationship" xlink:title="BiologicalRelationship" target="_top">
<polygon fill="#eeefff" stroke="#dddeee" points="482.39,-197.49 341.39,-197.49 341.39,-161.49 482.39,-161.49 482.39,-197.49"/>
<text text-anchor="middle" x="411.89" y="-175.79" font-family="Times,serif" font-size="14.00">BiologicalRelationship</text>
</a>
</g>
</g>
<!-- Creator -->
<g id="node8" class="node">
<title>Creator</title>
<g id="a_node8"><a xlink:href="/develop/Data/models.html#creator" xlink:title="Creator" target="_top">
<polygon fill="#eeefff" stroke="#dddeee" points="575.39,-105.49 518.39,-105.49 518.39,-69.49 575.39,-69.49 575.39,-105.49"/>
<text text-anchor="middle" x="546.89" y="-83.79" font-family="Times,serif" font-size="14.00">Creator</text>
</a>
</g>
</g>
<!-- Project -->
<g id="node9" class="node">
<title>Project</title>
<g id="a_node9"><a xlink:href="/develop/Data/models.html#project" xlink:title="Project" target="_top">
<polygon fill="#eeefff" stroke="#dddeee" points="439.39,-105.49 384.39,-105.49 384.39,-69.49 439.39,-69.49 439.39,-105.49"/>
<text text-anchor="middle" x="411.89" y="-83.79" font-family="Times,serif" font-size="14.00">Project</text>
</a>
</g>
</g>
<!-- Updater -->
<g id="node10" class="node">
<title>Updater</title>
<g id="a_node10"><a xlink:href="/develop/Data/models.html#updater" xlink:title="Updater" target="_top">
<polygon fill="#eeefff" stroke="#dddeee" points="671.39,-105.49 611.39,-105.49 611.39,-69.49 671.39,-69.49 671.39,-105.49"/>
<text text-anchor="middle" x="641.39" y="-83.79" font-family="Times,serif" font-size="14.00">Updater</text>
</a>
</g>
</g>
</g>
</svg>
