<?xml version="1.0" encoding="UTF-8" standalone="no"?>
<!DOCTYPE svg PUBLIC "-//W3C//DTD SVG 1.1//EN"
 "http://www.w3.org/Graphics/SVG/1.1/DTD/svg11.dtd">
<!-- Generated by graphviz version 2.50.0 (20211204.2007)
 -->
<!-- Title: BiologicalRelationship Pages: 1 -->
<svg width="962pt" height="739pt"
 viewBox="0.00 0.00 961.67 738.51" xmlns="http://www.w3.org/2000/svg" xmlns:xlink="http://www.w3.org/1999/xlink">
<g id="graph0" class="graph" transform="scale(1 1) rotate(0) translate(4 734.51)">
<title>BiologicalRelationship</title>
<polygon fill="white" stroke="transparent" points="-4,4 -4,-734.51 957.67,-734.51 957.67,4 -4,4"/>
<text text-anchor="middle" x="476.84" y="-22.8" font-family="Times,serif" font-size="14.00">Algorithmically generated relationships for BiologicalRelationship based on assertions of &#39;has_many&#39;, &#39;has_one&#39;, &#39;belongs_to&#39;. </text>
<text text-anchor="middle" x="476.84" y="-7.8" font-family="Times,serif" font-size="14.00">Generated 2022&#45;01&#45;25 11:37:18 &#45;0600.</text>
<!-- Citation&#45;&gt;Source -->
<g id="edge13" class="edge">
<title>Citation&#45;&gt;Source</title>
<path fill="none" stroke="black" d="M98.42,-657.51C182.46,-657.51 382.09,-657.51 464.08,-657.51"/>
<polygon fill="black" stroke="black" points="464.16,-661.01 474.16,-657.51 464.16,-654.01 464.16,-661.01"/>
</g>
<!-- Citation&#45;&gt;CitationTopic -->
<g id="edge4" class="edge">
<title>Citation&#45;&gt;CitationTopic</title>
<path fill="none" stroke="black" d="M93.01,-666.72C122.52,-674.98 166.43,-687.29 201.32,-697.06"/>
<polygon fill="black" stroke="black" points="200.79,-700.55 211.36,-699.87 202.68,-693.81 200.79,-700.55"/>
</g>
<!-- Tag&#45;&gt;Keyword -->
<g id="edge7" class="edge">
<title>Tag&#45;&gt;Keyword</title>
<path fill="none" stroke="black" d="M86.22,-348.38C118.63,-348.21 174.43,-347.93 213.28,-347.73"/>
<polygon fill="black" stroke="black" points="213.77,-351.23 223.75,-347.68 213.74,-344.23 213.77,-351.23"/>
</g>
<!-- Source&#45;&gt;SubsequentCitation -->
<!-- Source&#45;&gt;OriginCitation -->
<!-- BiologicalRelationship&#45;&gt;Citation -->
<g id="edge5" class="edge">
<title>BiologicalRelationship&#45;&gt;Citation</title>
<path fill="none" stroke="black" d="M239.25,-427.63C202.74,-474.49 117.8,-583.51 79.49,-632.68"/>
<polygon fill="black" stroke="black" points="76.72,-630.55 73.33,-640.59 82.24,-634.85 76.72,-630.55"/>
</g>
<!-- BiologicalRelationship&#45;&gt;DataAttribute -->
<g id="edge6" class="edge">
<title>BiologicalRelationship&#45;&gt;DataAttribute</title>
<path fill="none" stroke="black" d="M190.56,-422.97C165.69,-429.56 137.7,-436.97 114.05,-443.23"/>
<polygon fill="black" stroke="black" points="112.98,-439.9 104.21,-445.84 114.77,-446.67 112.98,-439.9"/>
</g>
<!-- BiologicalRelationship&#45;&gt;Tag -->
<g id="edge18" class="edge">
<title>BiologicalRelationship&#45;&gt;Tag</title>
<path fill="none" stroke="black" d="M193.84,-387.33C160.77,-377.73 121.49,-366.32 94.1,-358.37"/>
<polygon fill="black" stroke="black" points="94.8,-354.93 84.22,-355.5 92.85,-361.65 94.8,-354.93"/>
</g>
<!-- BiologicalRelationship&#45;&gt;Note -->
<g id="edge8" class="edge">
<title>BiologicalRelationship&#45;&gt;Note</title>
<path fill="none" stroke="black" d="M154.07,-404.47C133.86,-404.26 113.89,-404.06 97.59,-403.89"/>
<polygon fill="black" stroke="black" points="97.48,-400.39 87.44,-403.79 97.41,-407.39 97.48,-400.39"/>
</g>
<!-- BiologicalRelationship&#45;&gt;BiologicalAssociation -->
<g id="edge1" class="edge">
<title>BiologicalRelationship&#45;&gt;BiologicalAssociation</title>
<path fill="none" stroke="black" d="M357.48,-416.98C379.11,-419.49 401.69,-422.1 422.35,-424.5"/>
<polygon fill="black" stroke="black" points="421.99,-427.98 432.33,-425.65 422.8,-421.02 421.99,-427.98"/>
</g>
<!-- BiologicalRelationship&#45;&gt;Source -->
<g id="edge26" class="edge">
<title>BiologicalRelationship&#45;&gt;Source</title>
<path fill="none" stroke="black" stroke-dasharray="1,5" d="M270.21,-437.24C289.38,-484.83 331.93,-574.44 396.67,-624.51 419.35,-642.05 451.59,-650.39 474.04,-654.28"/>
<polygon fill="black" stroke="black" points="273.39,-435.78 266.47,-427.75 266.88,-438.34 273.39,-435.78"/>
</g>
<!-- BiologicalRelationship&#45;&gt;BiologicalRelationshipType -->
<g id="edge3" class="edge">
<title>BiologicalRelationship&#45;&gt;BiologicalRelationshipType</title>
<path fill="none" stroke="black" d="M358.88,-394.3C374.63,-392.54 390.85,-390.72 406.44,-388.98"/>
<polygon fill="black" stroke="black" points="407.03,-392.44 416.58,-387.85 406.25,-385.48 407.03,-392.44"/>
</g>
<!-- BiologicalRelationship&#45;&gt;ObjectBiologicalRelationshipType -->
<g id="edge10" class="edge">
<title>BiologicalRelationship&#45;&gt;ObjectBiologicalRelationshipType</title>
<path fill="none" stroke="black" d="M325.16,-388.18C337.2,-384.24 349.48,-379.67 360.67,-374.51 377.92,-366.57 379.28,-359.11 396.67,-351.51 401.29,-349.5 406.09,-347.6 410.98,-345.83"/>
<polygon fill="black" stroke="black" points="412.15,-349.13 420.48,-342.57 409.88,-342.51 412.15,-349.13"/>
</g>
<!-- BiologicalRelationship&#45;&gt;PinboardItem -->
<g id="edge11" class="edge">
<title>BiologicalRelationship&#45;&gt;PinboardItem</title>
<path fill="none" stroke="black" d="M335.34,-390.09C344.52,-386.05 353.25,-380.95 360.67,-374.51 389.23,-349.77 367.64,-321.68 396.67,-297.51 410.39,-286.09 428.4,-279.44 445.55,-275.59"/>
<polygon fill="black" stroke="black" points="446.37,-278.99 455.5,-273.63 445.02,-272.12 446.37,-278.99"/>
</g>
<!-- BiologicalRelationship&#45;&gt;Role -->
<g id="edge12" class="edge">
<title>BiologicalRelationship&#45;&gt;Role</title>
<path fill="none" stroke="black" d="M337.94,-390.5C346.37,-386.38 354.21,-381.15 360.67,-374.51 402.8,-331.26 353.7,-285.93 396.67,-243.51 414.36,-226.06 441.83,-219.47 464.03,-217.16"/>
<polygon fill="black" stroke="black" points="464.43,-220.64 474.12,-216.36 463.88,-213.66 464.43,-220.64"/>
</g>
<!-- BiologicalRelationship&#45;&gt;SubjectBiologicalRelationshipType -->
<g id="edge15" class="edge">
<title>BiologicalRelationship&#45;&gt;SubjectBiologicalRelationshipType</title>
<path fill="none" stroke="black" d="M339.72,-390.71C347.62,-386.54 354.85,-381.24 360.67,-374.51 430.93,-293.25 324.83,-215.38 396.67,-135.51 397.33,-134.79 398,-134.08 398.68,-133.39"/>
<polygon fill="black" stroke="black" points="401.22,-135.82 406.58,-126.68 396.69,-130.49 401.22,-135.82"/>
</g>
<!-- BiologicalRelationship&#45;&gt;SubsequentCitation -->
<g id="edge16" class="edge">
<title>BiologicalRelationship&#45;&gt;SubsequentCitation</title>
<path fill="none" stroke="black" d="M274.32,-427.69C297.42,-458.13 343.43,-511.97 396.67,-537.51 477.58,-576.32 582.16,-583.59 650.29,-583.48"/>
<polygon fill="black" stroke="black" points="650.52,-586.98 660.49,-583.41 650.47,-579.98 650.52,-586.98"/>
</g>
<!-- BiologicalRelationship&#45;&gt;VerifierRole -->
<g id="edge20" class="edge">
<title>BiologicalRelationship&#45;&gt;VerifierRole</title>
<path fill="none" stroke="black" d="M338.94,-390.71C347.09,-386.55 354.59,-381.26 360.67,-374.51 416.8,-312.33 339.34,-250.58 396.67,-189.51 410.25,-175.05 430.51,-167.96 449.52,-164.6"/>
<polygon fill="black" stroke="black" points="450.21,-168.04 459.6,-163.13 449.2,-161.11 450.21,-168.04"/>
</g>
<!-- BiologicalRelationship&#45;&gt;Creator -->
<g id="edge22" class="edge">
<title>BiologicalRelationship&#45;&gt;Creator</title>
<path fill="none" stroke="black" stroke-dasharray="5,2" d="M284.33,-435.25C309.79,-462.08 351.36,-499.68 396.67,-515.51 501.11,-552 635.55,-516.79 692.83,-498.28"/>
<polygon fill="black" stroke="black" points="286.64,-432.6 277.27,-427.65 281.51,-437.36 286.64,-432.6"/>
</g>
<!-- BiologicalRelationship&#45;&gt;Project -->
<g id="edge23" class="edge">
<title>BiologicalRelationship&#45;&gt;Project</title>
<path fill="none" stroke="black" stroke-dasharray="5,2" d="M316.12,-430.16C340.7,-440.23 369.86,-451.58 396.67,-460.51 422.46,-469.1 452.5,-477 473.55,-482.2"/>
<polygon fill="black" stroke="black" points="317.16,-426.81 306.59,-426.23 314.5,-433.28 317.16,-426.81"/>
</g>
<!-- BiologicalRelationship&#45;&gt;Updater -->
<g id="edge24" class="edge">
<title>BiologicalRelationship&#45;&gt;Updater</title>
<path fill="none" stroke="black" stroke-dasharray="5,2" d="M348.76,-385.4C353.16,-382.27 357.18,-378.66 360.67,-374.51 445.12,-274.1 298.41,-168.44 396.67,-81.51 464.08,-21.88 731.3,-25.41 801.67,-81.51 864.16,-131.33 888,-397.28 893.41,-470.08"/>
<polygon fill="black" stroke="black" points="346.58,-382.64 339.9,-390.86 350.25,-388.6 346.58,-382.64"/>
</g>
<!-- BiologicalRelationship&#45;&gt;OriginCitation -->
<g id="edge25" class="edge">
<title>BiologicalRelationship&#45;&gt;OriginCitation</title>
<path fill="none" stroke="black" stroke-dasharray="1,5" d="M275.04,-436.29C297.4,-474.79 340.96,-539.86 396.67,-574.51 420.18,-589.13 590.25,-623.93 674.13,-640.47"/>
<polygon fill="black" stroke="black" points="278.06,-434.53 270.07,-427.57 271.98,-437.99 278.06,-434.53"/>
</g>
<!-- BiologicalRelationshipType&#45;&gt;BiologicalProperty -->
<g id="edge2" class="edge">
<title>BiologicalRelationshipType&#45;&gt;BiologicalProperty</title>
<path fill="none" stroke="black" d="M585.72,-378.51C607.56,-378.51 630.86,-378.51 651.84,-378.51"/>
<polygon fill="black" stroke="black" points="651.94,-382.01 661.94,-378.51 651.94,-375.01 651.94,-382.01"/>
</g>
<!-- CitationTopic&#45;&gt;Topic -->
<g id="edge19" class="edge">
<title>CitationTopic&#45;&gt;Topic</title>
<path fill="none" stroke="black" d="M303.66,-712.51C349.88,-712.51 420.83,-712.51 463.64,-712.51"/>
<polygon fill="black" stroke="black" points="463.88,-716.01 473.88,-712.51 463.88,-709.01 463.88,-716.01"/>
</g>
<!-- ObjectBiologicalRelationshipType&#45;&gt;ObjectBiologicalProperty -->
<g id="edge9" class="edge">
<title>ObjectBiologicalRelationshipType&#45;&gt;ObjectBiologicalProperty</title>
<path fill="none" stroke="black" d="M603.75,-324.51C613.84,-324.51 624.02,-324.51 633.94,-324.51"/>
<polygon fill="black" stroke="black" points="634.17,-328.01 644.17,-324.51 634.17,-321.01 634.17,-328.01"/>
</g>
<!-- Role&#45;&gt;Verifier -->
<!-- SubjectBiologicalRelationshipType&#45;&gt;SubjectBiologicalProperty -->
<g id="edge14" class="edge">
<title>SubjectBiologicalRelationshipType&#45;&gt;SubjectBiologicalProperty</title>
<path fill="none" stroke="black" d="M605.99,-108.51C614.52,-108.51 623.09,-108.51 631.51,-108.51"/>
<polygon fill="black" stroke="black" points="631.67,-112.01 641.67,-108.51 631.67,-105.01 631.67,-112.01"/>
</g>
<!-- SubsequentCitation&#45;&gt;SubsequentSource -->
<g id="edge17" class="edge">
<title>SubsequentCitation&#45;&gt;SubsequentSource</title>
<path fill="none" stroke="black" d="M782.83,-580.51C797.24,-580.51 812.71,-580.51 827.41,-580.51"/>
<polygon fill="black" stroke="black" points="827.44,-584.01 837.44,-580.51 827.44,-577.01 827.44,-584.01"/>
</g>
<!-- VerifierRole&#45;&gt;Verifier -->
<g id="edge21" class="edge">
<title>VerifierRole&#45;&gt;Verifier</title>
<path fill="none" stroke="black" d="M542.76,-167.53C582.98,-172.5 644.08,-180.05 683.18,-184.88"/>
<polygon fill="black" stroke="black" points="682.75,-188.35 693.11,-186.11 683.61,-181.41 682.75,-188.35"/>
</g>
<!-- Creator&#45;&gt;Updater -->
<!-- Project&#45;&gt;Creator -->
<!-- Citation -->
<g id="node1" class="node">
<title>Citation</title>
<g id="a_node1"><a xlink:href="/develop/Data/models.html#citation" xlink:title="Citation" target="_top">
<ellipse fill="#abcdef" stroke="#dddeee" cx="59.14" cy="-657.51" rx="38.99" ry="18"/>
<text text-anchor="middle" x="59.14" y="-653.81" font-family="Times,serif" font-size="14.00">Citation</text>
</a>
</g>
</g>
<!-- DataAttribute -->
<g id="node2" class="node">
<title>DataAttribute</title>
<g id="a_node2"><a xlink:href="/develop/Data/models.html#data-attribute" xlink:title="DataAttribute" target="_top">
<ellipse fill="#abcdef" stroke="#dddeee" cx="59.14" cy="-457.51" rx="59.29" ry="18"/>
<text text-anchor="middle" x="59.14" y="-453.81" font-family="Times,serif" font-size="14.00">DataAttribute</text>
</a>
</g>
</g>
<!-- Tag -->
<g id="node3" class="node">
<title>Tag</title>
<g id="a_node3"><a xlink:href="/develop/Data/models.html#tag" xlink:title="Tag" target="_top">
<ellipse fill="#abcdef" stroke="#dddeee" cx="59.14" cy="-348.51" rx="27" ry="18"/>
<text text-anchor="middle" x="59.14" y="-344.81" font-family="Times,serif" font-size="14.00">Tag</text>
</a>
</g>
</g>
<!-- Note -->
<g id="node4" class="node">
<title>Note</title>
<g id="a_node4"><a xlink:href="/develop/Data/models.html#note" xlink:title="Note" target="_top">
<ellipse fill="#abcdef" stroke="#dddeee" cx="59.14" cy="-403.51" rx="27.9" ry="18"/>
<text text-anchor="middle" x="59.14" y="-399.81" font-family="Times,serif" font-size="14.00">Note</text>
</a>
</g>
</g>
<!-- BiologicalAssociation -->
<g id="node5" class="node">
<title>BiologicalAssociation</title>
<g id="a_node5"><a xlink:href="/develop/Data/models.html#biological-association" xlink:title="BiologicalAssociation" target="_top">
<path fill="#fedcba" stroke="#dddeee" d="M444.67,-415.51C444.67,-415.51 557.67,-415.51 557.67,-415.51 563.67,-415.51 569.67,-421.51 569.67,-427.51 569.67,-427.51 569.67,-439.51 569.67,-439.51 569.67,-445.51 563.67,-451.51 557.67,-451.51 557.67,-451.51 444.67,-451.51 444.67,-451.51 438.67,-451.51 432.67,-445.51 432.67,-439.51 432.67,-439.51 432.67,-427.51 432.67,-427.51 432.67,-421.51 438.67,-415.51 444.67,-415.51"/>
<text text-anchor="middle" x="501.17" y="-429.81" font-family="Times,serif" font-size="14.00">BiologicalAssociation</text>
</a>
</g>
</g>
<!-- Source -->
<g id="node6" class="node">
<title>Source</title>
<g id="a_node6"><a xlink:href="/develop/Data/models.html#source" xlink:title="Source" target="_top">
<path fill="#fedcba" stroke="#dddeee" d="M486.17,-639.51C486.17,-639.51 516.17,-639.51 516.17,-639.51 522.17,-639.51 528.17,-645.51 528.17,-651.51 528.17,-651.51 528.17,-663.51 528.17,-663.51 528.17,-669.51 522.17,-675.51 516.17,-675.51 516.17,-675.51 486.17,-675.51 486.17,-675.51 480.17,-675.51 474.17,-669.51 474.17,-663.51 474.17,-663.51 474.17,-651.51 474.17,-651.51 474.17,-645.51 480.17,-639.51 486.17,-639.51"/>
<text text-anchor="middle" x="501.17" y="-653.81" font-family="Times,serif" font-size="14.00">Source</text>
</a>
</g>
</g>
<!-- BiologicalRelationship -->
<g id="node7" class="node">
<title>BiologicalRelationship</title>
<g id="a_node7"><a xlink:href="/develop/Data/models.html#biological-relationship" xlink:title="BiologicalRelationship" target="_top">
<polygon fill="#cdefab" stroke="#dedede" points="356.86,-398.06 356.86,-412.97 298.65,-423.51 216.32,-423.51 158.1,-412.97 158.1,-398.06 216.32,-387.51 298.65,-387.51 356.86,-398.06"/>
<polygon fill="none" stroke="#dedede" points="360.87,-394.72 360.87,-416.31 299.01,-427.51 215.96,-427.51 154.1,-416.31 154.1,-394.72 215.96,-383.51 299.01,-383.51 360.87,-394.72"/>
<text text-anchor="middle" x="257.48" y="-401.81" font-family="Times,serif" font-size="14.00">BiologicalRelationship</text>
</a>
</g>
</g>
<!-- BiologicalRelationshipType -->
<g id="node8" class="node">
<title>BiologicalRelationshipType</title>
<g id="a_node8"><a xlink:href="/develop/Data/models.html#biological-relationship-type" xlink:title="BiologicalRelationshipType" target="_top">
<polygon fill="#eeefff" stroke="#dddeee" points="585.67,-396.51 416.67,-396.51 416.67,-360.51 585.67,-360.51 585.67,-396.51"/>
<text text-anchor="middle" x="501.17" y="-374.81" font-family="Times,serif" font-size="14.00">BiologicalRelationshipType</text>
</a>
</g>
</g>
<!-- BiologicalProperty -->
<g id="node9" class="node">
<title>BiologicalProperty</title>
<g id="a_node9"><a xlink:href="/develop/Data/models.html#biological-property" xlink:title="BiologicalProperty" target="_top">
<polygon fill="#eeefff" stroke="#dddeee" points="781.17,-396.51 662.17,-396.51 662.17,-360.51 781.17,-360.51 781.17,-396.51"/>
<text text-anchor="middle" x="721.67" y="-374.81" font-family="Times,serif" font-size="14.00">BiologicalProperty</text>
</a>
</g>
</g>
<!-- CitationTopic -->
<g id="node10" class="node">
<title>CitationTopic</title>
<g id="a_node10"><a xlink:href="/develop/Data/models.html#citation-topic" xlink:title="CitationTopic" target="_top">
<polygon fill="#eeefff" stroke="#dddeee" points="303.48,-730.51 211.48,-730.51 211.48,-694.51 303.48,-694.51 303.48,-730.51"/>
<text text-anchor="middle" x="257.48" y="-708.81" font-family="Times,serif" font-size="14.00">CitationTopic</text>
</a>
</g>
</g>
<!-- Keyword -->
<g id="node11" class="node">
<title>Keyword</title>
<g id="a_node11"><a xlink:href="/develop/Data/models.html#keyword" xlink:title="Keyword" target="_top">
<polygon fill="#eeefff" stroke="#dddeee" points="290.98,-365.51 223.98,-365.51 223.98,-329.51 290.98,-329.51 290.98,-365.51"/>
<text text-anchor="middle" x="257.48" y="-343.81" font-family="Times,serif" font-size="14.00">Keyword</text>
</a>
</g>
</g>
<!-- ObjectBiologicalRelationshipType -->
<g id="node12" class="node">
<title>ObjectBiologicalRelationshipType</title>
<g id="a_node12"><a xlink:href="/develop/Data/models.html#object-biological-relationship-type" xlink:title="ObjectBiologicalRelationshipType" target="_top">
<polygon fill="#eeefff" stroke="#dddeee" points="603.67,-342.51 398.67,-342.51 398.67,-306.51 603.67,-306.51 603.67,-342.51"/>
<text text-anchor="middle" x="501.17" y="-320.81" font-family="Times,serif" font-size="14.00">ObjectBiologicalRelationshipType</text>
</a>
</g>
</g>
<!-- ObjectBiologicalProperty -->
<g id="node13" class="node">
<title>ObjectBiologicalProperty</title>
<g id="a_node13"><a xlink:href="/develop/Data/models.html#object-biological-property" xlink:title="ObjectBiologicalProperty" target="_top">
<polygon fill="#eeefff" stroke="#dddeee" points="799.17,-342.51 644.17,-342.51 644.17,-306.51 799.17,-306.51 799.17,-342.51"/>
<text text-anchor="middle" x="721.67" y="-320.81" font-family="Times,serif" font-size="14.00">ObjectBiologicalProperty</text>
</a>
</g>
</g>
<!-- PinboardItem -->
<g id="node14" class="node">
<title>PinboardItem</title>
<g id="a_node14"><a xlink:href="/develop/Data/models.html#pinboard-item" xlink:title="PinboardItem" target="_top">
<polygon fill="#eeefff" stroke="#dddeee" points="546.67,-288.51 455.67,-288.51 455.67,-252.51 546.67,-252.51 546.67,-288.51"/>
<text text-anchor="middle" x="501.17" y="-266.81" font-family="Times,serif" font-size="14.00">PinboardItem</text>
</a>
</g>
</g>
<!-- Role -->
<g id="node15" class="node">
<title>Role</title>
<g id="a_node15"><a xlink:href="/develop/Data/models.html#role" xlink:title="Role" target="_top">
<polygon fill="#eeefff" stroke="#dddeee" points="528.17,-234.51 474.17,-234.51 474.17,-198.51 528.17,-198.51 528.17,-234.51"/>
<text text-anchor="middle" x="501.17" y="-212.81" font-family="Times,serif" font-size="14.00">Role</text>
</a>
</g>
</g>
<!-- SubjectBiologicalRelationshipType -->
<g id="node16" class="node">
<title>SubjectBiologicalRelationshipType</title>
<g id="a_node16"><a xlink:href="/develop/Data/models.html#subject-biological-relationship-type" xlink:title="SubjectBiologicalRelationshipType" target="_top">
<polygon fill="#eeefff" stroke="#dddeee" points="605.67,-126.51 396.67,-126.51 396.67,-90.51 605.67,-90.51 605.67,-126.51"/>
<text text-anchor="middle" x="501.17" y="-104.81" font-family="Times,serif" font-size="14.00">SubjectBiologicalRelationshipType</text>
</a>
</g>
</g>
<!-- SubjectBiologicalProperty -->
<g id="node17" class="node">
<title>SubjectBiologicalProperty</title>
<g id="a_node17"><a xlink:href="/develop/Data/models.html#subject-biological-property" xlink:title="SubjectBiologicalProperty" target="_top">
<polygon fill="#eeefff" stroke="#dddeee" points="801.67,-126.51 641.67,-126.51 641.67,-90.51 801.67,-90.51 801.67,-126.51"/>
<text text-anchor="middle" x="721.67" y="-104.81" font-family="Times,serif" font-size="14.00">SubjectBiologicalProperty</text>
</a>
</g>
</g>
<!-- SubsequentCitation -->
<g id="node18" class="node">
<title>SubsequentCitation</title>
<g id="a_node18"><a xlink:href="/develop/Data/models.html#subsequent-citation" xlink:title="SubsequentCitation" target="_top">
<polygon fill="#eeefff" stroke="#dddeee" points="782.67,-598.51 660.67,-598.51 660.67,-562.51 782.67,-562.51 782.67,-598.51"/>
<text text-anchor="middle" x="721.67" y="-576.81" font-family="Times,serif" font-size="14.00">SubsequentCitation</text>
</a>
</g>
</g>
<!-- SubsequentSource -->
<g id="node19" class="node">
<title>SubsequentSource</title>
<g id="a_node19"><a xlink:href="/develop/Data/models.html#subsequent-source" xlink:title="SubsequentSource" target="_top">
<polygon fill="#eeefff" stroke="#dddeee" points="953.67,-598.51 837.67,-598.51 837.67,-562.51 953.67,-562.51 953.67,-598.51"/>
<text text-anchor="middle" x="895.67" y="-576.81" font-family="Times,serif" font-size="14.00">SubsequentSource</text>
</a>
</g>
</g>
<!-- Topic -->
<g id="node20" class="node">
<title>Topic</title>
<g id="a_node20"><a xlink:href="/develop/Data/models.html#topic" xlink:title="Topic" target="_top">
<polygon fill="#eeefff" stroke="#dddeee" points="528.17,-730.51 474.17,-730.51 474.17,-694.51 528.17,-694.51 528.17,-730.51"/>
<text text-anchor="middle" x="501.17" y="-708.81" font-family="Times,serif" font-size="14.00">Topic</text>
</a>
</g>
</g>
<!-- VerifierRole -->
<g id="node21" class="node">
<title>VerifierRole</title>
<g id="a_node21"><a xlink:href="/develop/Data/models.html#verifier-role" xlink:title="VerifierRole" target="_top">
<polygon fill="#eeefff" stroke="#dddeee" points="542.67,-180.51 459.67,-180.51 459.67,-144.51 542.67,-144.51 542.67,-180.51"/>
<text text-anchor="middle" x="501.17" y="-158.81" font-family="Times,serif" font-size="14.00">VerifierRole</text>
</a>
</g>
</g>
<!-- Verifier -->
<g id="node22" class="node">
<title>Verifier</title>
<g id="a_node22"><a xlink:href="/develop/Data/models.html#verifier" xlink:title="Verifier" target="_top">
<polygon fill="#eeefff" stroke="#dddeee" points="750.17,-207.51 693.17,-207.51 693.17,-171.51 750.17,-171.51 750.17,-207.51"/>
<text text-anchor="middle" x="721.67" y="-185.81" font-family="Times,serif" font-size="14.00">Verifier</text>
</a>
</g>
</g>
<!-- Creator -->
<g id="node23" class="node">
<title>Creator</title>
<g id="a_node23"><a xlink:href="/develop/Data/models.html#creator" xlink:title="Creator" target="_top">
<polygon fill="#eeefff" stroke="#dddeee" points="750.17,-506.51 693.17,-506.51 693.17,-470.51 750.17,-470.51 750.17,-506.51"/>
<text text-anchor="middle" x="721.67" y="-484.81" font-family="Times,serif" font-size="14.00">Creator</text>
</a>
</g>
</g>
<!-- Project -->
<g id="node24" class="node">
<title>Project</title>
<g id="a_node24"><a xlink:href="/develop/Data/models.html#project" xlink:title="Project" target="_top">
<polygon fill="#eeefff" stroke="#dddeee" points="528.67,-506.51 473.67,-506.51 473.67,-470.51 528.67,-470.51 528.67,-506.51"/>
<text text-anchor="middle" x="501.17" y="-484.81" font-family="Times,serif" font-size="14.00">Project</text>
</a>
</g>
</g>
<!-- Updater -->
<g id="node25" class="node">
<title>Updater</title>
<g id="a_node25"><a xlink:href="/develop/Data/models.html#updater" xlink:title="Updater" target="_top">
<polygon fill="#eeefff" stroke="#dddeee" points="925.67,-506.51 865.67,-506.51 865.67,-470.51 925.67,-470.51 925.67,-506.51"/>
<text text-anchor="middle" x="895.67" y="-484.81" font-family="Times,serif" font-size="14.00">Updater</text>
</a>
</g>
</g>
<!-- OriginCitation -->
<g id="node26" class="node">
<title>OriginCitation</title>
<g id="a_node26"><a xlink:href="/develop/Data/models.html#origin-citation" xlink:title="OriginCitation" target="_top">
<polygon fill="#eeefff" stroke="#dddeee" points="769.17,-667.51 674.17,-667.51 674.17,-631.51 769.17,-631.51 769.17,-667.51"/>
<text text-anchor="middle" x="721.67" y="-645.81" font-family="Times,serif" font-size="14.00">OriginCitation</text>
</a>
</g>
</g>
</g>
</svg>
