<?xml version="1.0" encoding="UTF-8" standalone="no"?>
<!DOCTYPE svg PUBLIC "-//W3C//DTD SVG 1.1//EN"
 "http://www.w3.org/Graphics/SVG/1.1/DTD/svg11.dtd">
<!-- Generated by graphviz version 12.2.1 (20241206.2353)
 -->
<!-- Title: CachedMap Pages: 1 -->
<svg width="357pt" height="262pt"
 viewBox="0.00 0.00 356.64 261.50" xmlns="http://www.w3.org/2000/svg" xmlns:xlink="http://www.w3.org/1999/xlink">
<g id="graph0" class="graph" transform="scale(1 1) rotate(0) translate(4 257.5)">
<title>CachedMap</title>
<polygon fill="white" stroke="none" points="-4,4 -4,-257.5 352.64,-257.5 352.64,4 -4,4"/>
<!-- CachedMap&#45;&gt;Otu -->
<g id="edge5" class="edge">
<title>CachedMap&#45;&gt;Otu</title>
<path fill="none" stroke="black" stroke-dasharray="5,2" d="M99.66,-155.4C118.53,-171.24 142.66,-190.81 165.14,-207 170.73,-211.03 176.89,-215.13 182.79,-218.91"/>
<polygon fill="black" stroke="black" points="102.17,-152.94 92.27,-149.15 97.65,-158.28 102.17,-152.94"/>
</g>
<!-- CachedMap&#45;&gt;PinboardItem -->
<g id="edge1" class="edge">
<title>CachedMap&#45;&gt;PinboardItem</title>
<path fill="none" stroke="black" d="M109.85,-142.64C123.92,-147.93 139.65,-153.84 154.37,-159.37"/>
<polygon fill="black" stroke="black" points="152.87,-162.55 163.46,-162.79 155.33,-155.99 152.87,-162.55"/>
</g>
<!-- CachedMap&#45;&gt;Role -->
<g id="edge2" class="edge">
<title>CachedMap&#45;&gt;Role</title>
<path fill="none" stroke="black" d="M129.43,-126C143.89,-126 158.79,-126 171.74,-126"/>
<polygon fill="black" stroke="black" points="171.51,-129.5 181.51,-126 171.51,-122.5 171.51,-129.5"/>
</g>
<!-- CachedMap&#45;&gt;VerifierRole -->
<g id="edge3" class="edge">
<title>CachedMap&#45;&gt;VerifierRole</title>
<path fill="none" stroke="black" d="M109.85,-109.36C125.13,-103.62 142.36,-97.14 158.14,-91.21"/>
<polygon fill="black" stroke="black" points="159.24,-94.54 167.37,-87.74 156.78,-87.98 159.24,-94.54"/>
</g>
<!-- CachedMap&#45;&gt;Project -->
<g id="edge6" class="edge">
<title>CachedMap&#45;&gt;Project</title>
<path fill="none" stroke="black" stroke-dasharray="5,2" d="M99.16,-96.79C118.06,-80.84 142.37,-61.12 165.14,-45 170.71,-41.06 176.86,-37.07 182.76,-33.42"/>
<polygon fill="black" stroke="black" points="97.12,-93.93 91.77,-103.07 101.66,-99.26 97.12,-93.93"/>
</g>
<!-- Role&#45;&gt;Verifier -->
<!-- VerifierRole&#45;&gt;Verifier -->
<g id="edge4" class="edge">
<title>VerifierRole&#45;&gt;Verifier</title>
<path fill="none" stroke="black" stroke-dasharray="1,5" d="M252,-82.21C261.13,-84.5 270.8,-86.92 279.87,-89.19"/>
<polygon fill="black" stroke="black" points="278.93,-92.56 289.48,-91.6 280.63,-85.77 278.93,-92.56"/>
</g>
<!-- Otu -->
<g id="node1" class="node">
<title>Otu</title>
<g id="a_node1"><a xlink:href="/develop/Data/models.html#otu" xlink:title="Otu" target="_top">
<path fill="#fedcba" stroke="#dddeee" d="M195.26,-217C195.26,-217 225.26,-217 225.26,-217 231.26,-217 237.26,-223 237.26,-229 237.26,-229 237.26,-241 237.26,-241 237.26,-247 231.26,-253 225.26,-253 225.26,-253 195.26,-253 195.26,-253 189.26,-253 183.26,-247 183.26,-241 183.26,-241 183.26,-229 183.26,-229 183.26,-223 189.26,-217 195.26,-217"/>
<text text-anchor="middle" x="210.26" y="-230.2" font-family="Times,serif" font-size="14.00">Otu</text>
</a>
</g>
</g>
<!-- CachedMap -->
<g id="node2" class="node">
<title>CachedMap</title>
<g id="a_node2"><a xlink:href="/develop/Data/models.html#cached-map" xlink:title="CachedMap" target="_top">
<polygon fill="#cdefab" stroke="#dedede" points="125.14,-118.54 125.14,-133.46 89.66,-144 39.48,-144 4,-133.46 4,-118.54 39.48,-108 89.66,-108 125.14,-118.54"/>
<polygon fill="none" stroke="#dedede" points="129.14,-115.56 129.14,-136.44 90.24,-148 38.9,-148 0,-136.44 0,-115.56 38.9,-104 90.24,-104 129.14,-115.56"/>
<text text-anchor="middle" x="64.57" y="-120.95" font-family="Times,serif" font-size="14.00">CachedMap</text>
</a>
</g>
</g>
<!-- PinboardItem -->
<g id="node3" class="node">
<title>PinboardItem</title>
<g id="a_node3"><a xlink:href="/develop/Data/models.html#pinboard-item" xlink:title="PinboardItem" target="_top">
<polygon fill="#eeefff" stroke="#dddeee" points="255.39,-198 165.14,-198 165.14,-162 255.39,-162 255.39,-198"/>
<text text-anchor="middle" x="210.26" y="-174.95" font-family="Times,serif" font-size="14.00">PinboardItem</text>
</a>
</g>
</g>
<!-- Role -->
<g id="node4" class="node">
<title>Role</title>
<g id="a_node4"><a xlink:href="/develop/Data/models.html#role" xlink:title="Role" target="_top">
<polygon fill="#eeefff" stroke="#dddeee" points="237.26,-144 183.26,-144 183.26,-108 237.26,-108 237.26,-144"/>
<text text-anchor="middle" x="210.26" y="-120.95" font-family="Times,serif" font-size="14.00">Role</text>
</a>
</g>
</g>
<!-- VerifierRole -->
<g id="node5" class="node">
<title>VerifierRole</title>
<g id="a_node5"><a xlink:href="/develop/Data/models.html#verifier-role" xlink:title="VerifierRole" target="_top">
<polygon fill="#eeefff" stroke="#dddeee" points="251.64,-90 168.89,-90 168.89,-54 251.64,-54 251.64,-90"/>
<text text-anchor="middle" x="210.26" y="-66.95" font-family="Times,serif" font-size="14.00">VerifierRole</text>
</a>
</g>
</g>
<!-- Verifier -->
<g id="node6" class="node">
<title>Verifier</title>
<g id="a_node6"><a xlink:href="/develop/Data/models.html#verifier" xlink:title="Verifier" target="_top">
<polygon fill="#eeefff" stroke="#dddeee" points="348.64,-117 291.39,-117 291.39,-81 348.64,-81 348.64,-117"/>
<text text-anchor="middle" x="320.01" y="-93.95" font-family="Times,serif" font-size="14.00">Verifier</text>
</a>
</g>
</g>
<!-- Project -->
<g id="node7" class="node">
<title>Project</title>
<g id="a_node7"><a xlink:href="/develop/Data/models.html#project" xlink:title="Project" target="_top">
<polygon fill="#eeefff" stroke="#dddeee" points="237.39,-36 183.14,-36 183.14,0 237.39,0 237.39,-36"/>
<text text-anchor="middle" x="210.26" y="-12.95" font-family="Times,serif" font-size="14.00">Project</text>
</a>
</g>
</g>
</g>
</svg>
