<?xml version="1.0" encoding="UTF-8" standalone="no"?>
<!DOCTYPE svg PUBLIC "-//W3C//DTD SVG 1.1//EN"
 "http://www.w3.org/Graphics/SVG/1.1/DTD/svg11.dtd">
<!-- Generated by graphviz version 12.2.1 (20241206.2353)
 -->
<!-- Title: CachedMapItem Pages: 1 -->
<svg width="409pt" height="316pt"
 viewBox="0.00 0.00 408.56 315.50" xmlns="http://www.w3.org/2000/svg" xmlns:xlink="http://www.w3.org/1999/xlink">
<g id="graph0" class="graph" transform="scale(1 1) rotate(0) translate(4 311.5)">
<title>CachedMapItem</title>
<polygon fill="white" stroke="none" points="-4,4 -4,-311.5 404.56,-311.5 404.56,4 -4,4"/>
<!-- CachedMapItem&#45;&gt;Otu -->
<g id="edge6" class="edge">
<title>CachedMapItem&#45;&gt;Otu</title>
<path fill="none" stroke="black" stroke-dasharray="5,2" d="M113.7,-183.43C136.68,-206.34 170.13,-237.68 202.81,-261 210.56,-266.54 219.54,-271.78 227.78,-276.2"/>
<polygon fill="black" stroke="black" points="116.33,-181.11 106.8,-176.48 111.36,-186.04 116.33,-181.11"/>
</g>
<!-- CachedMapItem&#45;&gt;PinboardItem -->
<g id="edge1" class="edge">
<title>CachedMapItem&#45;&gt;PinboardItem</title>
<path fill="none" stroke="black" d="M126.78,-173.23C150.56,-184.59 180.35,-198.81 205.13,-210.64"/>
<polygon fill="black" stroke="black" points="203.51,-213.75 214.05,-214.9 206.53,-207.43 203.51,-213.75"/>
</g>
<!-- CachedMapItem&#45;&gt;Role -->
<g id="edge2" class="edge">
<title>CachedMapItem&#45;&gt;Role</title>
<path fill="none" stroke="black" d="M161.29,-165.24C180.48,-168.29 200.21,-171.43 216.52,-174.03"/>
<polygon fill="black" stroke="black" points="215.81,-177.46 226.24,-175.57 216.91,-170.54 215.81,-177.46"/>
</g>
<!-- CachedMapItem&#45;&gt;VerifierRole -->
<g id="edge3" class="edge">
<title>CachedMapItem&#45;&gt;VerifierRole</title>
<path fill="none" stroke="black" d="M161.29,-140.76C175.26,-138.54 189.52,-136.27 202.53,-134.2"/>
<polygon fill="black" stroke="black" points="202.79,-137.7 212.11,-132.68 201.69,-130.79 202.79,-137.7"/>
</g>
<!-- CachedMapItem&#45;&gt;GeographicItem -->
<g id="edge5" class="edge">
<title>CachedMapItem&#45;&gt;GeographicItem</title>
<path fill="none" stroke="black" stroke-dasharray="5,2" d="M136.97,-127.9C162.32,-115.8 192.19,-101.54 215.41,-90.45"/>
<polygon fill="black" stroke="black" points="135.66,-124.65 128.14,-132.12 138.67,-130.97 135.66,-124.65"/>
</g>
<!-- CachedMapItem&#45;&gt;Project -->
<g id="edge7" class="edge">
<title>CachedMapItem&#45;&gt;Project</title>
<path fill="none" stroke="black" stroke-dasharray="5,2" d="M113.18,-122.85C136.11,-99.83 169.75,-68.21 202.81,-45 210.46,-39.63 219.32,-34.59 227.49,-30.36"/>
<polygon fill="black" stroke="black" points="110.82,-120.26 106.3,-129.84 115.81,-125.17 110.82,-120.26"/>
</g>
<!-- Role&#45;&gt;Verifier -->
<!-- VerifierRole&#45;&gt;Verifier -->
<g id="edge4" class="edge">
<title>VerifierRole&#45;&gt;Verifier</title>
<path fill="none" stroke="black" stroke-dasharray="1,5" d="M296.88,-135.6C308.3,-138.28 320.67,-141.19 331.97,-143.84"/>
<polygon fill="black" stroke="black" points="330.84,-147.17 341.37,-146.05 332.44,-140.36 330.84,-147.17"/>
</g>
<!-- Otu -->
<g id="node1" class="node">
<title>Otu</title>
<g id="a_node1"><a xlink:href="/develop/Data/models.html#otu" xlink:title="Otu" target="_top">
<path fill="#fedcba" stroke="#dddeee" d="M240.06,-271C240.06,-271 270.06,-271 270.06,-271 276.06,-271 282.06,-277 282.06,-283 282.06,-283 282.06,-295 282.06,-295 282.06,-301 276.06,-307 270.06,-307 270.06,-307 240.06,-307 240.06,-307 234.06,-307 228.06,-301 228.06,-295 228.06,-295 228.06,-283 228.06,-283 228.06,-277 234.06,-271 240.06,-271"/>
<text text-anchor="middle" x="255.06" y="-284.2" font-family="Times,serif" font-size="14.00">Otu</text>
</a>
</g>
</g>
<!-- CachedMapItem -->
<g id="node2" class="node">
<title>CachedMapItem</title>
<g id="a_node2"><a xlink:href="/develop/Data/models.html#cached-map-item" xlink:title="CachedMapItem" target="_top">
<polygon fill="#cdefab" stroke="#dedede" points="162.81,-145.54 162.81,-160.46 116.29,-171 50.51,-171 4,-160.46 4,-145.54 50.51,-135 116.29,-135 162.81,-145.54"/>
<polygon fill="none" stroke="#dedede" points="166.81,-142.35 166.81,-163.65 116.74,-175 50.07,-175 0,-163.65 0,-142.35 50.07,-131 116.74,-131 166.81,-142.35"/>
<text text-anchor="middle" x="83.4" y="-147.95" font-family="Times,serif" font-size="14.00">CachedMapItem</text>
</a>
</g>
</g>
<!-- PinboardItem -->
<g id="node3" class="node">
<title>PinboardItem</title>
<g id="a_node3"><a xlink:href="/develop/Data/models.html#pinboard-item" xlink:title="PinboardItem" target="_top">
<polygon fill="#eeefff" stroke="#dddeee" points="300.18,-252 209.93,-252 209.93,-216 300.18,-216 300.18,-252"/>
<text text-anchor="middle" x="255.06" y="-228.95" font-family="Times,serif" font-size="14.00">PinboardItem</text>
</a>
</g>
</g>
<!-- Role -->
<g id="node4" class="node">
<title>Role</title>
<g id="a_node4"><a xlink:href="/develop/Data/models.html#role" xlink:title="Role" target="_top">
<polygon fill="#eeefff" stroke="#dddeee" points="282.06,-198 228.06,-198 228.06,-162 282.06,-162 282.06,-198"/>
<text text-anchor="middle" x="255.06" y="-174.95" font-family="Times,serif" font-size="14.00">Role</text>
</a>
</g>
</g>
<!-- VerifierRole -->
<g id="node5" class="node">
<title>VerifierRole</title>
<g id="a_node5"><a xlink:href="/develop/Data/models.html#verifier-role" xlink:title="VerifierRole" target="_top">
<polygon fill="#eeefff" stroke="#dddeee" points="296.43,-144 213.68,-144 213.68,-108 296.43,-108 296.43,-144"/>
<text text-anchor="middle" x="255.06" y="-120.95" font-family="Times,serif" font-size="14.00">VerifierRole</text>
</a>
</g>
</g>
<!-- Verifier -->
<g id="node6" class="node">
<title>Verifier</title>
<g id="a_node6"><a xlink:href="/develop/Data/models.html#verifier" xlink:title="Verifier" target="_top">
<polygon fill="#eeefff" stroke="#dddeee" points="400.56,-171 343.31,-171 343.31,-135 400.56,-135 400.56,-171"/>
<text text-anchor="middle" x="371.93" y="-147.95" font-family="Times,serif" font-size="14.00">Verifier</text>
</a>
</g>
</g>
<!-- GeographicItem -->
<g id="node7" class="node">
<title>GeographicItem</title>
<g id="a_node7"><a xlink:href="/develop/Data/models.html#geographic-item" xlink:title="GeographicItem" target="_top">
<polygon fill="#eeefff" stroke="#dddeee" points="307.31,-90 202.81,-90 202.81,-54 307.31,-54 307.31,-90"/>
<text text-anchor="middle" x="255.06" y="-66.95" font-family="Times,serif" font-size="14.00">GeographicItem</text>
</a>
</g>
</g>
<!-- Project -->
<g id="node8" class="node">
<title>Project</title>
<g id="a_node8"><a xlink:href="/develop/Data/models.html#project" xlink:title="Project" target="_top">
<polygon fill="#eeefff" stroke="#dddeee" points="282.18,-36 227.93,-36 227.93,0 282.18,0 282.18,-36"/>
<text text-anchor="middle" x="255.06" y="-12.95" font-family="Times,serif" font-size="14.00">Project</text>
</a>
</g>
</g>
</g>
</svg>
