<?xml version="1.0" encoding="UTF-8" standalone="no"?>
<!DOCTYPE svg PUBLIC "-//W3C//DTD SVG 1.1//EN"
 "http://www.w3.org/Graphics/SVG/1.1/DTD/svg11.dtd">
<!-- Generated by graphviz version 2.50.0 (20211204.2007)
 -->
<!-- Title: CharacterState Pages: 1 -->
<svg width="769pt" height="715pt"
 viewBox="0.00 0.00 769.39 714.88" xmlns="http://www.w3.org/2000/svg" xmlns:xlink="http://www.w3.org/1999/xlink">
<g id="graph0" class="graph" transform="scale(1 1) rotate(0) translate(4 710.88)">
<title>CharacterState</title>
<polygon fill="white" stroke="transparent" points="-4,4 -4,-710.88 765.39,-710.88 765.39,4 -4,4"/>
<text text-anchor="middle" x="380.69" y="-22.8" font-family="Times,serif" font-size="14.00">Algorithmically generated relationships for CharacterState based on assertions of &#39;has_many&#39;, &#39;has_one&#39;, &#39;belongs_to&#39;. </text>
<text text-anchor="middle" x="380.69" y="-7.8" font-family="Times,serif" font-size="14.00">Generated 2022&#45;01&#45;25 11:37:21 &#45;0600.</text>
<!-- AlternateValue&#45;&gt;AlternateValueLanguage -->
<g id="edge1" class="edge">
<title>AlternateValue&#45;&gt;AlternateValueLanguage</title>
<path fill="none" stroke="black" d="M119.97,-670.5C130.61,-672.16 141.99,-673.93 153.31,-675.7"/>
<polygon fill="black" stroke="black" points="152.81,-679.16 163.23,-677.24 153.89,-672.25 152.81,-679.16"/>
</g>
<!-- Citation&#45;&gt;Source -->
<g id="edge18" class="edge">
<title>Citation&#45;&gt;Source</title>
<path fill="none" stroke="black" d="M102.82,-579.88C167.86,-579.88 299.43,-579.88 363.37,-579.88"/>
<polygon fill="black" stroke="black" points="363.76,-583.38 373.76,-579.88 363.76,-576.38 363.76,-583.38"/>
</g>
<!-- Citation&#45;&gt;CitationTopic -->
<g id="edge3" class="edge">
<title>Citation&#45;&gt;CitationTopic</title>
<path fill="none" stroke="black" d="M96.46,-589.97C120.57,-597.63 154.31,-608.34 182.79,-617.39"/>
<polygon fill="black" stroke="black" points="182.03,-620.82 192.62,-620.51 184.15,-614.15 182.03,-620.82"/>
</g>
<!-- Confidence&#45;&gt;ConfidenceLevel -->
<g id="edge5" class="edge">
<title>Confidence&#45;&gt;ConfidenceLevel</title>
<path fill="none" stroke="black" d="M114.79,-313.88C133.34,-313.88 154.62,-313.88 174.21,-313.88"/>
<polygon fill="black" stroke="black" points="174.28,-317.38 184.28,-313.88 174.28,-310.38 174.28,-317.38"/>
</g>
<!-- Depiction&#45;&gt;Image -->
<g id="edge12" class="edge">
<title>Depiction&#45;&gt;Image</title>
<path fill="none" stroke="black" d="M109.3,-259.88C137.96,-259.88 174.73,-259.88 201.61,-259.88"/>
<polygon fill="black" stroke="black" points="201.74,-263.38 211.74,-259.88 201.74,-256.38 201.74,-263.38"/>
</g>
<!-- Tag&#45;&gt;Keyword -->
<g id="edge13" class="edge">
<title>Tag&#45;&gt;Keyword</title>
<path fill="none" stroke="black" d="M91,-205.88C118.58,-205.88 162.36,-205.88 194.96,-205.88"/>
<polygon fill="black" stroke="black" points="195.11,-209.38 205.11,-205.88 195.11,-202.38 195.11,-209.38"/>
</g>
<!-- Source&#45;&gt;SubsequentCitation -->
<!-- Source&#45;&gt;OriginCitation -->
<!-- CharacterState&#45;&gt;AlternateValue -->
<g id="edge2" class="edge">
<title>CharacterState&#45;&gt;AlternateValue</title>
<path fill="none" stroke="black" d="M230.95,-393.92C216.51,-437.57 180.11,-536.82 127.39,-606.88 118.65,-618.5 107.12,-629.46 96.33,-638.5"/>
<polygon fill="black" stroke="black" points="93.86,-636 88.29,-645.02 98.26,-641.44 93.86,-636"/>
</g>
<!-- CharacterState&#45;&gt;Citation -->
<g id="edge4" class="edge">
<title>CharacterState&#45;&gt;Citation</title>
<path fill="none" stroke="black" d="M219.32,-394.18C186.63,-433.45 119.04,-514.62 85.09,-555.39"/>
<polygon fill="black" stroke="black" points="82.28,-553.29 78.57,-563.21 87.66,-557.77 82.28,-553.29"/>
</g>
<!-- CharacterState&#45;&gt;Confidence -->
<g id="edge6" class="edge">
<title>CharacterState&#45;&gt;Confidence</title>
<path fill="none" stroke="black" d="M189.05,-355.53C164.6,-347.34 135.15,-337.48 111.05,-329.41"/>
<polygon fill="black" stroke="black" points="112.02,-326.04 101.42,-326.18 109.8,-332.68 112.02,-326.04"/>
</g>
<!-- CharacterState&#45;&gt;DataAttribute -->
<g id="edge7" class="edge">
<title>CharacterState&#45;&gt;DataAttribute</title>
<path fill="none" stroke="black" d="M209.84,-393.8C188.1,-410.2 156.81,-432.52 127.39,-448.88 121.88,-451.94 115.96,-454.9 110.03,-457.66"/>
<polygon fill="black" stroke="black" points="108.46,-454.53 100.77,-461.82 111.33,-460.91 108.46,-454.53"/>
</g>
<!-- CharacterState&#45;&gt;Depiction -->
<g id="edge8" class="edge">
<title>CharacterState&#45;&gt;Depiction</title>
<path fill="none" stroke="black" d="M187.49,-355.71C178.94,-351.66 170.53,-346.76 163.39,-340.88 141.12,-322.55 149.55,-305.35 127.39,-286.88 122.01,-282.4 115.77,-278.54 109.35,-275.27"/>
<polygon fill="black" stroke="black" points="110.45,-271.92 99.91,-270.88 107.5,-278.27 110.45,-271.92"/>
</g>
<!-- CharacterState&#45;&gt;Identifier -->
<g id="edge11" class="edge">
<title>CharacterState&#45;&gt;Identifier</title>
<path fill="none" stroke="black" d="M184.8,-387.21C160.73,-394.16 132.58,-402.28 109.58,-408.92"/>
<polygon fill="black" stroke="black" points="108.38,-405.63 99.74,-411.76 110.32,-412.35 108.38,-405.63"/>
</g>
<!-- CharacterState&#45;&gt;Tag -->
<g id="edge21" class="edge">
<title>CharacterState&#45;&gt;Tag</title>
<path fill="none" stroke="black" d="M184.95,-356.61C176.96,-352.5 169.4,-347.35 163.39,-340.88 128.93,-303.83 161.62,-270.15 127.39,-232.88 119.86,-224.68 109.41,-218.86 99.19,-214.78"/>
<polygon fill="black" stroke="black" points="100.18,-211.42 89.58,-211.38 97.84,-218.02 100.18,-211.42"/>
</g>
<!-- CharacterState&#45;&gt;Note -->
<g id="edge14" class="edge">
<title>CharacterState&#45;&gt;Note</title>
<path fill="none" stroke="black" d="M167.32,-370.25C144.87,-369.73 120.94,-369.18 101.83,-368.74"/>
<polygon fill="black" stroke="black" points="101.83,-365.24 91.76,-368.51 101.67,-372.24 101.83,-365.24"/>
</g>
<!-- CharacterState&#45;&gt;Observation -->
<g id="edge15" class="edge">
<title>CharacterState&#45;&gt;Observation</title>
<path fill="none" stroke="black" d="M291.08,-356C299.46,-351.94 307.6,-346.95 314.39,-340.88 339,-318.87 327.14,-299.34 350.39,-275.88 351.63,-274.63 352.94,-273.41 354.3,-272.24"/>
<polygon fill="black" stroke="black" points="356.74,-274.78 362.57,-265.94 352.5,-269.22 356.74,-274.78"/>
</g>
<!-- CharacterState&#45;&gt;Source -->
<g id="edge30" class="edge">
<title>CharacterState&#45;&gt;Source</title>
<path fill="none" stroke="black" stroke-dasharray="1,5" d="M254.69,-403.48C273.26,-440.8 307.89,-503.32 350.39,-546.88 357.17,-553.83 365.64,-560.13 373.65,-565.31"/>
<polygon fill="black" stroke="black" points="257.64,-401.55 250.1,-394.11 251.35,-404.63 257.64,-401.55"/>
</g>
<!-- CharacterState&#45;&gt;Descriptor -->
<g id="edge26" class="edge">
<title>CharacterState&#45;&gt;Descriptor</title>
<path fill="none" stroke="black" stroke-dasharray="5,2" d="M303.08,-351.63C307.32,-348.54 311.17,-344.98 314.39,-340.88 378.06,-259.88 291.71,-196.57 350.39,-111.88 353.88,-106.85 358.58,-102.61 363.7,-99.08"/>
<polygon fill="black" stroke="black" points="301.12,-348.73 294.52,-357.02 304.85,-354.65 301.12,-348.73"/>
</g>
<!-- CharacterState&#45;&gt;Documentation -->
<g id="edge9" class="edge">
<title>CharacterState&#45;&gt;Documentation</title>
<path fill="none" stroke="black" d="M310.53,-382.04C320.47,-383.47 330.61,-384.92 340.32,-386.32"/>
<polygon fill="black" stroke="black" points="339.85,-389.79 350.25,-387.75 340.85,-382.86 339.85,-389.79"/>
</g>
<!-- CharacterState&#45;&gt;PinboardItem -->
<g id="edge16" class="edge">
<title>CharacterState&#45;&gt;PinboardItem</title>
<path fill="none" stroke="black" d="M268.1,-393.94C290.19,-411 321.85,-434.98 350.39,-454.88 354.33,-457.63 358.48,-460.44 362.64,-463.21"/>
<polygon fill="black" stroke="black" points="360.85,-466.22 371.13,-468.78 364.69,-460.36 360.85,-466.22"/>
</g>
<!-- CharacterState&#45;&gt;Role -->
<g id="edge17" class="edge">
<title>CharacterState&#45;&gt;Role</title>
<path fill="none" stroke="black" d="M283.3,-354.03C293.51,-349.77 304.35,-345.2 314.39,-340.88 330.95,-333.76 349.22,-325.67 364.6,-318.79"/>
<polygon fill="black" stroke="black" points="366.07,-321.97 373.77,-314.69 363.21,-315.58 366.07,-321.97"/>
</g>
<!-- CharacterState&#45;&gt;SubsequentCitation -->
<g id="edge19" class="edge">
<title>CharacterState&#45;&gt;SubsequentCitation</title>
<path fill="none" stroke="black" d="M250.73,-394.1C267.47,-425.95 302.74,-484.03 350.39,-513.88 388.28,-537.63 437.47,-548.13 477.21,-552.69"/>
<polygon fill="black" stroke="black" points="477.06,-556.2 487.37,-553.76 477.78,-549.24 477.06,-556.2"/>
</g>
<!-- CharacterState&#45;&gt;VerifierRole -->
<g id="edge23" class="edge">
<title>CharacterState&#45;&gt;VerifierRole</title>
<path fill="none" stroke="black" d="M293.37,-356.57C301.2,-352.48 308.57,-347.33 314.39,-340.88 351.69,-299.54 315.65,-264.4 350.39,-220.88 351.22,-219.84 352.1,-218.83 353.03,-217.85"/>
<polygon fill="black" stroke="black" points="355.64,-220.21 360.81,-210.96 351,-214.97 355.64,-220.21"/>
</g>
<!-- CharacterState&#45;&gt;Creator -->
<g id="edge25" class="edge">
<title>CharacterState&#45;&gt;Creator</title>
<path fill="none" stroke="black" stroke-dasharray="5,2" d="M303.74,-351.34C307.74,-348.32 311.36,-344.85 314.39,-340.88 391.76,-239.33 254.62,-140.31 350.39,-55.88 384.06,-26.2 409.32,-40.22 451.39,-55.88 486.08,-68.8 516.58,-100.51 533.45,-120.78"/>
<polygon fill="black" stroke="black" points="301.57,-348.58 295.07,-356.95 305.37,-354.46 301.57,-348.58"/>
</g>
<!-- CharacterState&#45;&gt;Project -->
<g id="edge27" class="edge">
<title>CharacterState&#45;&gt;Project</title>
<path fill="none" stroke="black" stroke-dasharray="5,2" d="M302.87,-351.46C307.15,-348.4 311.08,-344.9 314.39,-340.88 364.91,-279.62 303.15,-229.71 350.39,-165.88 356.15,-158.09 364.86,-152.29 373.38,-148.1"/>
<polygon fill="black" stroke="black" points="300.91,-348.56 294.25,-356.8 304.59,-354.51 300.91,-348.56"/>
</g>
<!-- CharacterState&#45;&gt;Updater -->
<g id="edge28" class="edge">
<title>CharacterState&#45;&gt;Updater</title>
<path fill="none" stroke="black" stroke-dasharray="5,2" d="M320.65,-368.44C401.24,-361.23 524.9,-339.51 609.39,-274.88 651.42,-242.73 681.27,-186.03 694.59,-157.04"/>
<polygon fill="black" stroke="black" points="320.23,-364.97 310.56,-369.29 320.82,-371.94 320.23,-364.97"/>
</g>
<!-- CharacterState&#45;&gt;OriginCitation -->
<g id="edge29" class="edge">
<title>CharacterState&#45;&gt;OriginCitation</title>
<path fill="none" stroke="black" stroke-dasharray="1,5" d="M288.22,-395.1C307.38,-403.94 329.74,-413.83 350.39,-421.88 401.06,-441.64 460.49,-460.7 500.72,-473.02"/>
<polygon fill="black" stroke="black" points="289.63,-391.89 279.09,-390.85 286.68,-398.24 289.63,-391.89"/>
</g>
<!-- CitationTopic&#45;&gt;Topic -->
<g id="edge22" class="edge">
<title>CitationTopic&#45;&gt;Topic</title>
<path fill="none" stroke="black" d="M285.31,-634.88C310.15,-634.88 340.49,-634.88 363.71,-634.88"/>
<polygon fill="black" stroke="black" points="363.83,-638.38 373.83,-634.88 363.83,-631.38 363.83,-638.38"/>
</g>
<!-- Documentation&#45;&gt;Document -->
<g id="edge10" class="edge">
<title>Documentation&#45;&gt;Document</title>
<path fill="none" stroke="black" d="M451.55,-394.88C467.63,-394.88 485.38,-394.88 501.19,-394.88"/>
<polygon fill="black" stroke="black" points="501.26,-398.38 511.26,-394.88 501.26,-391.38 501.26,-398.38"/>
</g>
<!-- Role&#45;&gt;Verifier -->
<!-- SubsequentCitation&#45;&gt;SubsequentSource -->
<g id="edge20" class="edge">
<title>SubsequentCitation&#45;&gt;SubsequentSource</title>
<path fill="none" stroke="black" d="M609.42,-555.88C617.75,-555.88 626.36,-555.88 634.82,-555.88"/>
<polygon fill="black" stroke="black" points="635.03,-559.38 645.03,-555.88 635.03,-552.38 635.03,-559.38"/>
</g>
<!-- VerifierRole&#45;&gt;Verifier -->
<g id="edge24" class="edge">
<title>VerifierRole&#45;&gt;Verifier</title>
<path fill="none" stroke="black" d="M442.42,-208.2C463.61,-216.22 489.38,-225.96 510.09,-233.78"/>
<polygon fill="black" stroke="black" points="508.91,-237.08 519.5,-237.34 511.39,-230.53 508.91,-237.08"/>
</g>
<!-- Creator&#45;&gt;Updater -->
<!-- Project&#45;&gt;Creator -->
<!-- AlternateValue -->
<g id="node1" class="node">
<title>AlternateValue</title>
<g id="a_node1"><a xlink:href="/develop/Data/models.html#alternate-value" xlink:title="AlternateValue" target="_top">
<ellipse fill="#abcdef" stroke="#dddeee" cx="63.69" cy="-661.88" rx="63.89" ry="18"/>
<text text-anchor="middle" x="63.69" y="-658.18" font-family="Times,serif" font-size="14.00">AlternateValue</text>
</a>
</g>
</g>
<!-- Citation -->
<g id="node2" class="node">
<title>Citation</title>
<g id="a_node2"><a xlink:href="/develop/Data/models.html#citation" xlink:title="Citation" target="_top">
<ellipse fill="#abcdef" stroke="#dddeee" cx="63.69" cy="-579.88" rx="38.99" ry="18"/>
<text text-anchor="middle" x="63.69" y="-576.18" font-family="Times,serif" font-size="14.00">Citation</text>
</a>
</g>
</g>
<!-- Confidence -->
<g id="node3" class="node">
<title>Confidence</title>
<g id="a_node3"><a xlink:href="/develop/Data/models.html#confidence" xlink:title="Confidence" target="_top">
<ellipse fill="#abcdef" stroke="#dddeee" cx="63.69" cy="-313.88" rx="50.89" ry="18"/>
<text text-anchor="middle" x="63.69" y="-310.18" font-family="Times,serif" font-size="14.00">Confidence</text>
</a>
</g>
</g>
<!-- DataAttribute -->
<g id="node4" class="node">
<title>DataAttribute</title>
<g id="a_node4"><a xlink:href="/develop/Data/models.html#data-attribute" xlink:title="DataAttribute" target="_top">
<ellipse fill="#abcdef" stroke="#dddeee" cx="63.69" cy="-475.88" rx="59.29" ry="18"/>
<text text-anchor="middle" x="63.69" y="-472.18" font-family="Times,serif" font-size="14.00">DataAttribute</text>
</a>
</g>
</g>
<!-- Depiction -->
<g id="node5" class="node">
<title>Depiction</title>
<g id="a_node5"><a xlink:href="/develop/Data/models.html#depiction" xlink:title="Depiction" target="_top">
<ellipse fill="#abcdef" stroke="#dddeee" cx="63.69" cy="-259.88" rx="45.49" ry="18"/>
<text text-anchor="middle" x="63.69" y="-256.18" font-family="Times,serif" font-size="14.00">Depiction</text>
</a>
</g>
</g>
<!-- Identifier -->
<g id="node6" class="node">
<title>Identifier</title>
<g id="a_node6"><a xlink:href="/develop/Data/models.html#identifier" xlink:title="Identifier" target="_top">
<ellipse fill="#abcdef" stroke="#dddeee" cx="63.69" cy="-421.88" rx="42.79" ry="18"/>
<text text-anchor="middle" x="63.69" y="-418.18" font-family="Times,serif" font-size="14.00">Identifier</text>
</a>
</g>
</g>
<!-- Tag -->
<g id="node7" class="node">
<title>Tag</title>
<g id="a_node7"><a xlink:href="/develop/Data/models.html#tag" xlink:title="Tag" target="_top">
<ellipse fill="#abcdef" stroke="#dddeee" cx="63.69" cy="-205.88" rx="27" ry="18"/>
<text text-anchor="middle" x="63.69" y="-202.18" font-family="Times,serif" font-size="14.00">Tag</text>
</a>
</g>
</g>
<!-- Note -->
<g id="node8" class="node">
<title>Note</title>
<g id="a_node8"><a xlink:href="/develop/Data/models.html#note" xlink:title="Note" target="_top">
<ellipse fill="#abcdef" stroke="#dddeee" cx="63.69" cy="-367.88" rx="27.9" ry="18"/>
<text text-anchor="middle" x="63.69" y="-364.18" font-family="Times,serif" font-size="14.00">Note</text>
</a>
</g>
</g>
<!-- Observation -->
<g id="node9" class="node">
<title>Observation</title>
<g id="a_node9"><a xlink:href="/develop/Data/models.html#observation" xlink:title="Observation" target="_top">
<path fill="#fedcba" stroke="#dddeee" d="M371.39,-229.88C371.39,-229.88 430.39,-229.88 430.39,-229.88 436.39,-229.88 442.39,-235.88 442.39,-241.88 442.39,-241.88 442.39,-253.88 442.39,-253.88 442.39,-259.88 436.39,-265.88 430.39,-265.88 430.39,-265.88 371.39,-265.88 371.39,-265.88 365.39,-265.88 359.39,-259.88 359.39,-253.88 359.39,-253.88 359.39,-241.88 359.39,-241.88 359.39,-235.88 365.39,-229.88 371.39,-229.88"/>
<text text-anchor="middle" x="400.89" y="-244.18" font-family="Times,serif" font-size="14.00">Observation</text>
</a>
</g>
</g>
<!-- Source -->
<g id="node10" class="node">
<title>Source</title>
<g id="a_node10"><a xlink:href="/develop/Data/models.html#source" xlink:title="Source" target="_top">
<path fill="#fedcba" stroke="#dddeee" d="M385.89,-561.88C385.89,-561.88 415.89,-561.88 415.89,-561.88 421.89,-561.88 427.89,-567.88 427.89,-573.88 427.89,-573.88 427.89,-585.88 427.89,-585.88 427.89,-591.88 421.89,-597.88 415.89,-597.88 415.89,-597.88 385.89,-597.88 385.89,-597.88 379.89,-597.88 373.89,-591.88 373.89,-585.88 373.89,-585.88 373.89,-573.88 373.89,-573.88 373.89,-567.88 379.89,-561.88 385.89,-561.88"/>
<text text-anchor="middle" x="400.89" y="-576.18" font-family="Times,serif" font-size="14.00">Source</text>
</a>
</g>
</g>
<!-- Descriptor -->
<g id="node11" class="node">
<title>Descriptor</title>
<g id="a_node11"><a xlink:href="/develop/Data/models.html#descriptor" xlink:title="Descriptor" target="_top">
<path fill="#fedcba" stroke="#dddeee" d="M375.89,-65.88C375.89,-65.88 425.89,-65.88 425.89,-65.88 431.89,-65.88 437.89,-71.88 437.89,-77.88 437.89,-77.88 437.89,-89.88 437.89,-89.88 437.89,-95.88 431.89,-101.88 425.89,-101.88 425.89,-101.88 375.89,-101.88 375.89,-101.88 369.89,-101.88 363.89,-95.88 363.89,-89.88 363.89,-89.88 363.89,-77.88 363.89,-77.88 363.89,-71.88 369.89,-65.88 375.89,-65.88"/>
<text text-anchor="middle" x="400.89" y="-80.18" font-family="Times,serif" font-size="14.00">Descriptor</text>
</a>
</g>
</g>
<!-- CharacterState -->
<g id="node12" class="node">
<title>CharacterState</title>
<g id="a_node12"><a xlink:href="/develop/Data/models.html#character-state" xlink:title="CharacterState" target="_top">
<polygon fill="#cdefab" stroke="#dedede" points="306.46,-364.43 306.46,-379.34 266.88,-389.88 210.9,-389.88 171.32,-379.34 171.32,-364.43 210.9,-353.88 266.88,-353.88 306.46,-364.43"/>
<polygon fill="none" stroke="#dedede" points="310.46,-361.35 310.46,-382.41 267.4,-393.88 210.38,-393.88 167.32,-382.41 167.32,-361.35 210.38,-349.88 267.4,-349.88 310.46,-361.35"/>
<text text-anchor="middle" x="238.89" y="-368.18" font-family="Times,serif" font-size="14.00">CharacterState</text>
</a>
</g>
</g>
<!-- AlternateValueLanguage -->
<g id="node13" class="node">
<title>AlternateValueLanguage</title>
<g id="a_node13"><a xlink:href="/develop/Data/models.html#alternate-value-language" xlink:title="AlternateValueLanguage" target="_top">
<polygon fill="#eeefff" stroke="#dddeee" points="314.39,-706.88 163.39,-706.88 163.39,-670.88 314.39,-670.88 314.39,-706.88"/>
<text text-anchor="middle" x="238.89" y="-685.18" font-family="Times,serif" font-size="14.00">AlternateValueLanguage</text>
</a>
</g>
</g>
<!-- CitationTopic -->
<g id="node14" class="node">
<title>CitationTopic</title>
<g id="a_node14"><a xlink:href="/develop/Data/models.html#citation-topic" xlink:title="CitationTopic" target="_top">
<polygon fill="#eeefff" stroke="#dddeee" points="284.89,-652.88 192.89,-652.88 192.89,-616.88 284.89,-616.88 284.89,-652.88"/>
<text text-anchor="middle" x="238.89" y="-631.18" font-family="Times,serif" font-size="14.00">CitationTopic</text>
</a>
</g>
</g>
<!-- ConfidenceLevel -->
<g id="node15" class="node">
<title>ConfidenceLevel</title>
<g id="a_node15"><a xlink:href="/develop/Data/models.html#confidence-level" xlink:title="ConfidenceLevel" target="_top">
<polygon fill="#eeefff" stroke="#dddeee" points="293.39,-331.88 184.39,-331.88 184.39,-295.88 293.39,-295.88 293.39,-331.88"/>
<text text-anchor="middle" x="238.89" y="-310.18" font-family="Times,serif" font-size="14.00">ConfidenceLevel</text>
</a>
</g>
</g>
<!-- Documentation -->
<g id="node16" class="node">
<title>Documentation</title>
<g id="a_node16"><a xlink:href="/develop/Data/models.html#documentation" xlink:title="Documentation" target="_top">
<polygon fill="#eeefff" stroke="#dddeee" points="451.39,-412.88 350.39,-412.88 350.39,-376.88 451.39,-376.88 451.39,-412.88"/>
<text text-anchor="middle" x="400.89" y="-391.18" font-family="Times,serif" font-size="14.00">Documentation</text>
</a>
</g>
</g>
<!-- Document -->
<g id="node17" class="node">
<title>Document</title>
<g id="a_node17"><a xlink:href="/develop/Data/models.html#document" xlink:title="Document" target="_top">
<polygon fill="#eeefff" stroke="#dddeee" points="585.39,-412.88 511.39,-412.88 511.39,-376.88 585.39,-376.88 585.39,-412.88"/>
<text text-anchor="middle" x="548.39" y="-391.18" font-family="Times,serif" font-size="14.00">Document</text>
</a>
</g>
</g>
<!-- Image -->
<g id="node18" class="node">
<title>Image</title>
<g id="a_node18"><a xlink:href="/develop/Data/models.html#image" xlink:title="Image" target="_top">
<polygon fill="#eeefff" stroke="#dddeee" points="265.89,-277.88 211.89,-277.88 211.89,-241.88 265.89,-241.88 265.89,-277.88"/>
<text text-anchor="middle" x="238.89" y="-256.18" font-family="Times,serif" font-size="14.00">Image</text>
</a>
</g>
</g>
<!-- Keyword -->
<g id="node19" class="node">
<title>Keyword</title>
<g id="a_node19"><a xlink:href="/develop/Data/models.html#keyword" xlink:title="Keyword" target="_top">
<polygon fill="#eeefff" stroke="#dddeee" points="272.39,-223.88 205.39,-223.88 205.39,-187.88 272.39,-187.88 272.39,-223.88"/>
<text text-anchor="middle" x="238.89" y="-202.18" font-family="Times,serif" font-size="14.00">Keyword</text>
</a>
</g>
</g>
<!-- PinboardItem -->
<g id="node20" class="node">
<title>PinboardItem</title>
<g id="a_node20"><a xlink:href="/develop/Data/models.html#pinboard-item" xlink:title="PinboardItem" target="_top">
<polygon fill="#eeefff" stroke="#dddeee" points="446.39,-504.88 355.39,-504.88 355.39,-468.88 446.39,-468.88 446.39,-504.88"/>
<text text-anchor="middle" x="400.89" y="-483.18" font-family="Times,serif" font-size="14.00">PinboardItem</text>
</a>
</g>
</g>
<!-- Role -->
<g id="node21" class="node">
<title>Role</title>
<g id="a_node21"><a xlink:href="/develop/Data/models.html#role" xlink:title="Role" target="_top">
<polygon fill="#eeefff" stroke="#dddeee" points="427.89,-320.88 373.89,-320.88 373.89,-284.88 427.89,-284.88 427.89,-320.88"/>
<text text-anchor="middle" x="400.89" y="-299.18" font-family="Times,serif" font-size="14.00">Role</text>
</a>
</g>
</g>
<!-- SubsequentCitation -->
<g id="node22" class="node">
<title>SubsequentCitation</title>
<g id="a_node22"><a xlink:href="/develop/Data/models.html#subsequent-citation" xlink:title="SubsequentCitation" target="_top">
<polygon fill="#eeefff" stroke="#dddeee" points="609.39,-573.88 487.39,-573.88 487.39,-537.88 609.39,-537.88 609.39,-573.88"/>
<text text-anchor="middle" x="548.39" y="-552.18" font-family="Times,serif" font-size="14.00">SubsequentCitation</text>
</a>
</g>
</g>
<!-- SubsequentSource -->
<g id="node23" class="node">
<title>SubsequentSource</title>
<g id="a_node23"><a xlink:href="/develop/Data/models.html#subsequent-source" xlink:title="SubsequentSource" target="_top">
<polygon fill="#eeefff" stroke="#dddeee" points="761.39,-573.88 645.39,-573.88 645.39,-537.88 761.39,-537.88 761.39,-573.88"/>
<text text-anchor="middle" x="703.39" y="-552.18" font-family="Times,serif" font-size="14.00">SubsequentSource</text>
</a>
</g>
</g>
<!-- Topic -->
<g id="node24" class="node">
<title>Topic</title>
<g id="a_node24"><a xlink:href="/develop/Data/models.html#topic" xlink:title="Topic" target="_top">
<polygon fill="#eeefff" stroke="#dddeee" points="427.89,-652.88 373.89,-652.88 373.89,-616.88 427.89,-616.88 427.89,-652.88"/>
<text text-anchor="middle" x="400.89" y="-631.18" font-family="Times,serif" font-size="14.00">Topic</text>
</a>
</g>
</g>
<!-- VerifierRole -->
<g id="node25" class="node">
<title>VerifierRole</title>
<g id="a_node25"><a xlink:href="/develop/Data/models.html#verifier-role" xlink:title="VerifierRole" target="_top">
<polygon fill="#eeefff" stroke="#dddeee" points="442.39,-210.88 359.39,-210.88 359.39,-174.88 442.39,-174.88 442.39,-210.88"/>
<text text-anchor="middle" x="400.89" y="-189.18" font-family="Times,serif" font-size="14.00">VerifierRole</text>
</a>
</g>
</g>
<!-- Verifier -->
<g id="node26" class="node">
<title>Verifier</title>
<g id="a_node26"><a xlink:href="/develop/Data/models.html#verifier" xlink:title="Verifier" target="_top">
<polygon fill="#eeefff" stroke="#dddeee" points="576.89,-265.88 519.89,-265.88 519.89,-229.88 576.89,-229.88 576.89,-265.88"/>
<text text-anchor="middle" x="548.39" y="-244.18" font-family="Times,serif" font-size="14.00">Verifier</text>
</a>
</g>
</g>
<!-- Creator -->
<g id="node27" class="node">
<title>Creator</title>
<g id="a_node27"><a xlink:href="/develop/Data/models.html#creator" xlink:title="Creator" target="_top">
<polygon fill="#eeefff" stroke="#dddeee" points="576.89,-156.88 519.89,-156.88 519.89,-120.88 576.89,-120.88 576.89,-156.88"/>
<text text-anchor="middle" x="548.39" y="-135.18" font-family="Times,serif" font-size="14.00">Creator</text>
</a>
</g>
</g>
<!-- Project -->
<g id="node28" class="node">
<title>Project</title>
<g id="a_node28"><a xlink:href="/develop/Data/models.html#project" xlink:title="Project" target="_top">
<polygon fill="#eeefff" stroke="#dddeee" points="428.39,-156.88 373.39,-156.88 373.39,-120.88 428.39,-120.88 428.39,-156.88"/>
<text text-anchor="middle" x="400.89" y="-135.18" font-family="Times,serif" font-size="14.00">Project</text>
</a>
</g>
</g>
<!-- Updater -->
<g id="node29" class="node">
<title>Updater</title>
<g id="a_node29"><a xlink:href="/develop/Data/models.html#updater" xlink:title="Updater" target="_top">
<polygon fill="#eeefff" stroke="#dddeee" points="733.39,-156.88 673.39,-156.88 673.39,-120.88 733.39,-120.88 733.39,-156.88"/>
<text text-anchor="middle" x="703.39" y="-135.18" font-family="Times,serif" font-size="14.00">Updater</text>
</a>
</g>
</g>
<!-- OriginCitation -->
<g id="node30" class="node">
<title>OriginCitation</title>
<g id="a_node30"><a xlink:href="/develop/Data/models.html#origin-citation" xlink:title="OriginCitation" target="_top">
<polygon fill="#eeefff" stroke="#dddeee" points="595.89,-504.88 500.89,-504.88 500.89,-468.88 595.89,-468.88 595.89,-504.88"/>
<text text-anchor="middle" x="548.39" y="-483.18" font-family="Times,serif" font-size="14.00">OriginCitation</text>
</a>
</g>
</g>
</g>
</svg>
