<?xml version="1.0" encoding="UTF-8" standalone="no"?>
<!DOCTYPE svg PUBLIC "-//W3C//DTD SVG 1.1//EN"
 "http://www.w3.org/Graphics/SVG/1.1/DTD/svg11.dtd">
<!-- Generated by graphviz version 2.50.0 (20211204.2007)
 -->
<!-- Title: CharacterState Pages: 1 -->
<svg width="769pt" height="677pt"
 viewBox="0.00 0.00 769.39 676.88" xmlns="http://www.w3.org/2000/svg" xmlns:xlink="http://www.w3.org/1999/xlink">
<g id="graph0" class="graph" transform="scale(1 1) rotate(0) translate(4 672.88)">
<title>CharacterState</title>
<polygon fill="white" stroke="transparent" points="-4,4 -4,-672.88 765.39,-672.88 765.39,4 -4,4"/>
<!-- AlternateValue&#45;&gt;AlternateValueLanguage -->
<g id="edge1" class="edge">
<title>AlternateValue&#45;&gt;AlternateValueLanguage</title>
<path fill="none" stroke="black" d="M119.97,-632.5C130.61,-634.16 141.99,-635.93 153.31,-637.7"/>
<polygon fill="black" stroke="black" points="152.81,-641.16 163.23,-639.24 153.89,-634.25 152.81,-641.16"/>
</g>
<!-- Citation&#45;&gt;Source -->
<g id="edge18" class="edge">
<title>Citation&#45;&gt;Source</title>
<path fill="none" stroke="black" d="M102.82,-541.88C167.86,-541.88 299.43,-541.88 363.37,-541.88"/>
<polygon fill="black" stroke="black" points="363.76,-545.38 373.76,-541.88 363.76,-538.38 363.76,-545.38"/>
</g>
<!-- Citation&#45;&gt;CitationTopic -->
<g id="edge3" class="edge">
<title>Citation&#45;&gt;CitationTopic</title>
<path fill="none" stroke="black" d="M96.46,-551.97C120.57,-559.63 154.31,-570.34 182.79,-579.39"/>
<polygon fill="black" stroke="black" points="182.03,-582.82 192.62,-582.51 184.15,-576.15 182.03,-582.82"/>
</g>
<!-- Confidence&#45;&gt;ConfidenceLevel -->
<g id="edge5" class="edge">
<title>Confidence&#45;&gt;ConfidenceLevel</title>
<path fill="none" stroke="black" d="M114.79,-275.88C133.34,-275.88 154.62,-275.88 174.21,-275.88"/>
<polygon fill="black" stroke="black" points="174.28,-279.38 184.28,-275.88 174.28,-272.38 174.28,-279.38"/>
</g>
<!-- Depiction&#45;&gt;Image -->
<g id="edge12" class="edge">
<title>Depiction&#45;&gt;Image</title>
<path fill="none" stroke="black" d="M109.3,-221.88C137.96,-221.88 174.73,-221.88 201.61,-221.88"/>
<polygon fill="black" stroke="black" points="201.74,-225.38 211.74,-221.88 201.74,-218.38 201.74,-225.38"/>
</g>
<!-- Tag&#45;&gt;Keyword -->
<g id="edge13" class="edge">
<title>Tag&#45;&gt;Keyword</title>
<path fill="none" stroke="black" d="M91,-167.88C118.58,-167.88 162.36,-167.88 194.96,-167.88"/>
<polygon fill="black" stroke="black" points="195.11,-171.38 205.11,-167.88 195.11,-164.38 195.11,-171.38"/>
</g>
<!-- Source&#45;&gt;SubsequentCitation -->
<!-- Source&#45;&gt;OriginCitation -->
<!-- CharacterState&#45;&gt;AlternateValue -->
<g id="edge2" class="edge">
<title>CharacterState&#45;&gt;AlternateValue</title>
<path fill="none" stroke="black" d="M230.95,-355.92C216.51,-399.57 180.11,-498.82 127.39,-568.88 118.65,-580.5 107.12,-591.46 96.33,-600.5"/>
<polygon fill="black" stroke="black" points="93.86,-598 88.29,-607.02 98.26,-603.44 93.86,-598"/>
</g>
<!-- CharacterState&#45;&gt;Citation -->
<g id="edge4" class="edge">
<title>CharacterState&#45;&gt;Citation</title>
<path fill="none" stroke="black" d="M219.32,-356.18C186.63,-395.45 119.04,-476.62 85.09,-517.39"/>
<polygon fill="black" stroke="black" points="82.28,-515.29 78.57,-525.21 87.66,-519.77 82.28,-515.29"/>
</g>
<!-- CharacterState&#45;&gt;Confidence -->
<g id="edge6" class="edge">
<title>CharacterState&#45;&gt;Confidence</title>
<path fill="none" stroke="black" d="M189.05,-317.53C164.6,-309.34 135.15,-299.48 111.05,-291.41"/>
<polygon fill="black" stroke="black" points="112.02,-288.04 101.42,-288.18 109.8,-294.68 112.02,-288.04"/>
</g>
<!-- CharacterState&#45;&gt;DataAttribute -->
<g id="edge7" class="edge">
<title>CharacterState&#45;&gt;DataAttribute</title>
<path fill="none" stroke="black" d="M209.84,-355.8C188.1,-372.2 156.81,-394.52 127.39,-410.88 121.88,-413.94 115.96,-416.9 110.03,-419.66"/>
<polygon fill="black" stroke="black" points="108.46,-416.53 100.77,-423.82 111.33,-422.91 108.46,-416.53"/>
</g>
<!-- CharacterState&#45;&gt;Depiction -->
<g id="edge8" class="edge">
<title>CharacterState&#45;&gt;Depiction</title>
<path fill="none" stroke="black" d="M187.49,-317.71C178.94,-313.66 170.53,-308.76 163.39,-302.88 141.12,-284.55 149.55,-267.35 127.39,-248.88 122.01,-244.4 115.77,-240.54 109.35,-237.27"/>
<polygon fill="black" stroke="black" points="110.45,-233.92 99.91,-232.88 107.5,-240.27 110.45,-233.92"/>
</g>
<!-- CharacterState&#45;&gt;Identifier -->
<g id="edge11" class="edge">
<title>CharacterState&#45;&gt;Identifier</title>
<path fill="none" stroke="black" d="M184.8,-349.21C160.73,-356.16 132.58,-364.28 109.58,-370.92"/>
<polygon fill="black" stroke="black" points="108.38,-367.63 99.74,-373.76 110.32,-374.35 108.38,-367.63"/>
</g>
<!-- CharacterState&#45;&gt;Tag -->
<g id="edge21" class="edge">
<title>CharacterState&#45;&gt;Tag</title>
<path fill="none" stroke="black" d="M184.95,-318.61C176.96,-314.5 169.4,-309.35 163.39,-302.88 128.93,-265.83 161.62,-232.15 127.39,-194.88 119.86,-186.68 109.41,-180.86 99.19,-176.78"/>
<polygon fill="black" stroke="black" points="100.18,-173.42 89.58,-173.38 97.84,-180.02 100.18,-173.42"/>
</g>
<!-- CharacterState&#45;&gt;Note -->
<g id="edge14" class="edge">
<title>CharacterState&#45;&gt;Note</title>
<path fill="none" stroke="black" d="M167.32,-332.25C144.87,-331.73 120.94,-331.18 101.83,-330.74"/>
<polygon fill="black" stroke="black" points="101.83,-327.24 91.76,-330.51 101.67,-334.24 101.83,-327.24"/>
</g>
<!-- CharacterState&#45;&gt;Observation -->
<g id="edge15" class="edge">
<title>CharacterState&#45;&gt;Observation</title>
<path fill="none" stroke="black" d="M291.08,-318C299.46,-313.94 307.6,-308.95 314.39,-302.88 339,-280.87 327.14,-261.34 350.39,-237.88 351.63,-236.63 352.94,-235.41 354.3,-234.24"/>
<polygon fill="black" stroke="black" points="356.74,-236.78 362.57,-227.94 352.5,-231.22 356.74,-236.78"/>
</g>
<!-- CharacterState&#45;&gt;Source -->
<g id="edge30" class="edge">
<title>CharacterState&#45;&gt;Source</title>
<path fill="none" stroke="black" stroke-dasharray="1,5" d="M254.69,-365.48C273.26,-402.8 307.89,-465.32 350.39,-508.88 357.17,-515.83 365.64,-522.13 373.65,-527.31"/>
<polygon fill="black" stroke="black" points="257.64,-363.55 250.1,-356.11 251.35,-366.63 257.64,-363.55"/>
</g>
<!-- CharacterState&#45;&gt;Descriptor -->
<g id="edge26" class="edge">
<title>CharacterState&#45;&gt;Descriptor</title>
<path fill="none" stroke="black" stroke-dasharray="5,2" d="M303.08,-313.63C307.32,-310.54 311.17,-306.98 314.39,-302.88 378.06,-221.88 291.71,-158.57 350.39,-73.88 353.88,-68.85 358.58,-64.61 363.7,-61.08"/>
<polygon fill="black" stroke="black" points="301.12,-310.73 294.52,-319.02 304.85,-316.65 301.12,-310.73"/>
</g>
<!-- CharacterState&#45;&gt;Documentation -->
<g id="edge9" class="edge">
<title>CharacterState&#45;&gt;Documentation</title>
<path fill="none" stroke="black" d="M310.53,-344.04C320.47,-345.47 330.61,-346.92 340.32,-348.32"/>
<polygon fill="black" stroke="black" points="339.85,-351.79 350.25,-349.75 340.85,-344.86 339.85,-351.79"/>
</g>
<!-- CharacterState&#45;&gt;PinboardItem -->
<g id="edge16" class="edge">
<title>CharacterState&#45;&gt;PinboardItem</title>
<path fill="none" stroke="black" d="M268.1,-355.94C290.19,-373 321.85,-396.98 350.39,-416.88 354.33,-419.63 358.48,-422.44 362.64,-425.21"/>
<polygon fill="black" stroke="black" points="360.85,-428.22 371.13,-430.78 364.69,-422.36 360.85,-428.22"/>
</g>
<!-- CharacterState&#45;&gt;Role -->
<g id="edge17" class="edge">
<title>CharacterState&#45;&gt;Role</title>
<path fill="none" stroke="black" d="M283.3,-316.03C293.51,-311.77 304.35,-307.2 314.39,-302.88 330.95,-295.76 349.22,-287.67 364.6,-280.79"/>
<polygon fill="black" stroke="black" points="366.07,-283.97 373.77,-276.69 363.21,-277.58 366.07,-283.97"/>
</g>
<!-- CharacterState&#45;&gt;SubsequentCitation -->
<g id="edge19" class="edge">
<title>CharacterState&#45;&gt;SubsequentCitation</title>
<path fill="none" stroke="black" d="M250.73,-356.1C267.47,-387.95 302.74,-446.03 350.39,-475.88 388.28,-499.63 437.47,-510.13 477.21,-514.69"/>
<polygon fill="black" stroke="black" points="477.06,-518.2 487.37,-515.76 477.78,-511.24 477.06,-518.2"/>
</g>
<!-- CharacterState&#45;&gt;VerifierRole -->
<g id="edge23" class="edge">
<title>CharacterState&#45;&gt;VerifierRole</title>
<path fill="none" stroke="black" d="M293.37,-318.57C301.2,-314.48 308.57,-309.33 314.39,-302.88 351.69,-261.54 315.65,-226.4 350.39,-182.88 351.22,-181.84 352.1,-180.83 353.03,-179.85"/>
<polygon fill="black" stroke="black" points="355.64,-182.21 360.81,-172.96 351,-176.97 355.64,-182.21"/>
</g>
<!-- CharacterState&#45;&gt;Creator -->
<g id="edge25" class="edge">
<title>CharacterState&#45;&gt;Creator</title>
<path fill="none" stroke="black" stroke-dasharray="5,2" d="M303.74,-313.34C307.74,-310.32 311.36,-306.85 314.39,-302.88 391.76,-201.33 254.62,-102.31 350.39,-17.88 384.06,11.8 409.32,-2.22 451.39,-17.88 486.08,-30.8 516.58,-62.51 533.45,-82.78"/>
<polygon fill="black" stroke="black" points="301.57,-310.58 295.07,-318.95 305.37,-316.46 301.57,-310.58"/>
</g>
<!-- CharacterState&#45;&gt;Project -->
<g id="edge27" class="edge">
<title>CharacterState&#45;&gt;Project</title>
<path fill="none" stroke="black" stroke-dasharray="5,2" d="M302.87,-313.46C307.15,-310.4 311.08,-306.9 314.39,-302.88 364.91,-241.62 303.15,-191.71 350.39,-127.88 356.15,-120.09 364.86,-114.29 373.38,-110.1"/>
<polygon fill="black" stroke="black" points="300.91,-310.56 294.25,-318.8 304.59,-316.51 300.91,-310.56"/>
</g>
<!-- CharacterState&#45;&gt;Updater -->
<g id="edge28" class="edge">
<title>CharacterState&#45;&gt;Updater</title>
<path fill="none" stroke="black" stroke-dasharray="5,2" d="M320.65,-330.44C401.24,-323.23 524.9,-301.51 609.39,-236.88 651.42,-204.73 681.27,-148.03 694.59,-119.04"/>
<polygon fill="black" stroke="black" points="320.23,-326.97 310.56,-331.29 320.82,-333.94 320.23,-326.97"/>
</g>
<!-- CharacterState&#45;&gt;OriginCitation -->
<g id="edge29" class="edge">
<title>CharacterState&#45;&gt;OriginCitation</title>
<path fill="none" stroke="black" stroke-dasharray="1,5" d="M288.22,-357.1C307.38,-365.94 329.74,-375.83 350.39,-383.88 401.06,-403.64 460.49,-422.7 500.72,-435.02"/>
<polygon fill="black" stroke="black" points="289.63,-353.89 279.09,-352.85 286.68,-360.24 289.63,-353.89"/>
</g>
<!-- CitationTopic&#45;&gt;Topic -->
<g id="edge22" class="edge">
<title>CitationTopic&#45;&gt;Topic</title>
<path fill="none" stroke="black" d="M285.31,-596.88C310.15,-596.88 340.49,-596.88 363.71,-596.88"/>
<polygon fill="black" stroke="black" points="363.83,-600.38 373.83,-596.88 363.83,-593.38 363.83,-600.38"/>
</g>
<!-- Documentation&#45;&gt;Document -->
<g id="edge10" class="edge">
<title>Documentation&#45;&gt;Document</title>
<path fill="none" stroke="black" d="M451.55,-356.88C467.63,-356.88 485.38,-356.88 501.19,-356.88"/>
<polygon fill="black" stroke="black" points="501.26,-360.38 511.26,-356.88 501.26,-353.38 501.26,-360.38"/>
</g>
<!-- Role&#45;&gt;Verifier -->
<!-- SubsequentCitation&#45;&gt;SubsequentSource -->
<g id="edge20" class="edge">
<title>SubsequentCitation&#45;&gt;SubsequentSource</title>
<path fill="none" stroke="black" d="M609.42,-517.88C617.75,-517.88 626.36,-517.88 634.82,-517.88"/>
<polygon fill="black" stroke="black" points="635.03,-521.38 645.03,-517.88 635.03,-514.38 635.03,-521.38"/>
</g>
<!-- VerifierRole&#45;&gt;Verifier -->
<g id="edge24" class="edge">
<title>VerifierRole&#45;&gt;Verifier</title>
<path fill="none" stroke="black" d="M442.42,-170.2C463.61,-178.22 489.38,-187.96 510.09,-195.78"/>
<polygon fill="black" stroke="black" points="508.91,-199.08 519.5,-199.34 511.39,-192.53 508.91,-199.08"/>
</g>
<!-- Creator&#45;&gt;Updater -->
<!-- Project&#45;&gt;Creator -->
<!-- AlternateValue -->
<g id="node1" class="node">
<title>AlternateValue</title>
<g id="a_node1"><a xlink:href="/develop/Data/models.html#alternate-value" xlink:title="AlternateValue" target="_top">
<ellipse fill="#abcdef" stroke="#dddeee" cx="63.69" cy="-623.88" rx="63.89" ry="18"/>
<text text-anchor="middle" x="63.69" y="-620.18" font-family="Times,serif" font-size="14.00">AlternateValue</text>
</a>
</g>
</g>
<!-- Citation -->
<g id="node2" class="node">
<title>Citation</title>
<g id="a_node2"><a xlink:href="/develop/Data/models.html#citation" xlink:title="Citation" target="_top">
<ellipse fill="#abcdef" stroke="#dddeee" cx="63.69" cy="-541.88" rx="38.99" ry="18"/>
<text text-anchor="middle" x="63.69" y="-538.18" font-family="Times,serif" font-size="14.00">Citation</text>
</a>
</g>
</g>
<!-- Confidence -->
<g id="node3" class="node">
<title>Confidence</title>
<g id="a_node3"><a xlink:href="/develop/Data/models.html#confidence" xlink:title="Confidence" target="_top">
<ellipse fill="#abcdef" stroke="#dddeee" cx="63.69" cy="-275.88" rx="50.89" ry="18"/>
<text text-anchor="middle" x="63.69" y="-272.18" font-family="Times,serif" font-size="14.00">Confidence</text>
</a>
</g>
</g>
<!-- DataAttribute -->
<g id="node4" class="node">
<title>DataAttribute</title>
<g id="a_node4"><a xlink:href="/develop/Data/models.html#data-attribute" xlink:title="DataAttribute" target="_top">
<ellipse fill="#abcdef" stroke="#dddeee" cx="63.69" cy="-437.88" rx="59.29" ry="18"/>
<text text-anchor="middle" x="63.69" y="-434.18" font-family="Times,serif" font-size="14.00">DataAttribute</text>
</a>
</g>
</g>
<!-- Depiction -->
<g id="node5" class="node">
<title>Depiction</title>
<g id="a_node5"><a xlink:href="/develop/Data/models.html#depiction" xlink:title="Depiction" target="_top">
<ellipse fill="#abcdef" stroke="#dddeee" cx="63.69" cy="-221.88" rx="45.49" ry="18"/>
<text text-anchor="middle" x="63.69" y="-218.18" font-family="Times,serif" font-size="14.00">Depiction</text>
</a>
</g>
</g>
<!-- Identifier -->
<g id="node6" class="node">
<title>Identifier</title>
<g id="a_node6"><a xlink:href="/develop/Data/models.html#identifier" xlink:title="Identifier" target="_top">
<ellipse fill="#abcdef" stroke="#dddeee" cx="63.69" cy="-383.88" rx="42.79" ry="18"/>
<text text-anchor="middle" x="63.69" y="-380.18" font-family="Times,serif" font-size="14.00">Identifier</text>
</a>
</g>
</g>
<!-- Tag -->
<g id="node7" class="node">
<title>Tag</title>
<g id="a_node7"><a xlink:href="/develop/Data/models.html#tag" xlink:title="Tag" target="_top">
<ellipse fill="#abcdef" stroke="#dddeee" cx="63.69" cy="-167.88" rx="27" ry="18"/>
<text text-anchor="middle" x="63.69" y="-164.18" font-family="Times,serif" font-size="14.00">Tag</text>
</a>
</g>
</g>
<!-- Note -->
<g id="node8" class="node">
<title>Note</title>
<g id="a_node8"><a xlink:href="/develop/Data/models.html#note" xlink:title="Note" target="_top">
<ellipse fill="#abcdef" stroke="#dddeee" cx="63.69" cy="-329.88" rx="27.9" ry="18"/>
<text text-anchor="middle" x="63.69" y="-326.18" font-family="Times,serif" font-size="14.00">Note</text>
</a>
</g>
</g>
<!-- Observation -->
<g id="node9" class="node">
<title>Observation</title>
<g id="a_node9"><a xlink:href="/develop/Data/models.html#observation" xlink:title="Observation" target="_top">
<path fill="#fedcba" stroke="#dddeee" d="M371.39,-191.88C371.39,-191.88 430.39,-191.88 430.39,-191.88 436.39,-191.88 442.39,-197.88 442.39,-203.88 442.39,-203.88 442.39,-215.88 442.39,-215.88 442.39,-221.88 436.39,-227.88 430.39,-227.88 430.39,-227.88 371.39,-227.88 371.39,-227.88 365.39,-227.88 359.39,-221.88 359.39,-215.88 359.39,-215.88 359.39,-203.88 359.39,-203.88 359.39,-197.88 365.39,-191.88 371.39,-191.88"/>
<text text-anchor="middle" x="400.89" y="-206.18" font-family="Times,serif" font-size="14.00">Observation</text>
</a>
</g>
</g>
<!-- Source -->
<g id="node10" class="node">
<title>Source</title>
<g id="a_node10"><a xlink:href="/develop/Data/models.html#source" xlink:title="Source" target="_top">
<path fill="#fedcba" stroke="#dddeee" d="M385.89,-523.88C385.89,-523.88 415.89,-523.88 415.89,-523.88 421.89,-523.88 427.89,-529.88 427.89,-535.88 427.89,-535.88 427.89,-547.88 427.89,-547.88 427.89,-553.88 421.89,-559.88 415.89,-559.88 415.89,-559.88 385.89,-559.88 385.89,-559.88 379.89,-559.88 373.89,-553.88 373.89,-547.88 373.89,-547.88 373.89,-535.88 373.89,-535.88 373.89,-529.88 379.89,-523.88 385.89,-523.88"/>
<text text-anchor="middle" x="400.89" y="-538.18" font-family="Times,serif" font-size="14.00">Source</text>
</a>
</g>
</g>
<!-- Descriptor -->
<g id="node11" class="node">
<title>Descriptor</title>
<g id="a_node11"><a xlink:href="/develop/Data/models.html#descriptor" xlink:title="Descriptor" target="_top">
<path fill="#fedcba" stroke="#dddeee" d="M375.89,-27.88C375.89,-27.88 425.89,-27.88 425.89,-27.88 431.89,-27.88 437.89,-33.88 437.89,-39.88 437.89,-39.88 437.89,-51.88 437.89,-51.88 437.89,-57.88 431.89,-63.88 425.89,-63.88 425.89,-63.88 375.89,-63.88 375.89,-63.88 369.89,-63.88 363.89,-57.88 363.89,-51.88 363.89,-51.88 363.89,-39.88 363.89,-39.88 363.89,-33.88 369.89,-27.88 375.89,-27.88"/>
<text text-anchor="middle" x="400.89" y="-42.18" font-family="Times,serif" font-size="14.00">Descriptor</text>
</a>
</g>
</g>
<!-- CharacterState -->
<g id="node12" class="node">
<title>CharacterState</title>
<g id="a_node12"><a xlink:href="/develop/Data/models.html#character-state" xlink:title="CharacterState" target="_top">
<polygon fill="#cdefab" stroke="#dedede" points="306.46,-326.43 306.46,-341.34 266.88,-351.88 210.9,-351.88 171.32,-341.34 171.32,-326.43 210.9,-315.88 266.88,-315.88 306.46,-326.43"/>
<polygon fill="none" stroke="#dedede" points="310.46,-323.35 310.46,-344.41 267.4,-355.88 210.38,-355.88 167.32,-344.41 167.32,-323.35 210.38,-311.88 267.4,-311.88 310.46,-323.35"/>
<text text-anchor="middle" x="238.89" y="-330.18" font-family="Times,serif" font-size="14.00">CharacterState</text>
</a>
</g>
</g>
<!-- AlternateValueLanguage -->
<g id="node13" class="node">
<title>AlternateValueLanguage</title>
<g id="a_node13"><a xlink:href="/develop/Data/models.html#alternate-value-language" xlink:title="AlternateValueLanguage" target="_top">
<polygon fill="#eeefff" stroke="#dddeee" points="314.39,-668.88 163.39,-668.88 163.39,-632.88 314.39,-632.88 314.39,-668.88"/>
<text text-anchor="middle" x="238.89" y="-647.18" font-family="Times,serif" font-size="14.00">AlternateValueLanguage</text>
</a>
</g>
</g>
<!-- CitationTopic -->
<g id="node14" class="node">
<title>CitationTopic</title>
<g id="a_node14"><a xlink:href="/develop/Data/models.html#citation-topic" xlink:title="CitationTopic" target="_top">
<polygon fill="#eeefff" stroke="#dddeee" points="284.89,-614.88 192.89,-614.88 192.89,-578.88 284.89,-578.88 284.89,-614.88"/>
<text text-anchor="middle" x="238.89" y="-593.18" font-family="Times,serif" font-size="14.00">CitationTopic</text>
</a>
</g>
</g>
<!-- ConfidenceLevel -->
<g id="node15" class="node">
<title>ConfidenceLevel</title>
<g id="a_node15"><a xlink:href="/develop/Data/models.html#confidence-level" xlink:title="ConfidenceLevel" target="_top">
<polygon fill="#eeefff" stroke="#dddeee" points="293.39,-293.88 184.39,-293.88 184.39,-257.88 293.39,-257.88 293.39,-293.88"/>
<text text-anchor="middle" x="238.89" y="-272.18" font-family="Times,serif" font-size="14.00">ConfidenceLevel</text>
</a>
</g>
</g>
<!-- Documentation -->
<g id="node16" class="node">
<title>Documentation</title>
<g id="a_node16"><a xlink:href="/develop/Data/models.html#documentation" xlink:title="Documentation" target="_top">
<polygon fill="#eeefff" stroke="#dddeee" points="451.39,-374.88 350.39,-374.88 350.39,-338.88 451.39,-338.88 451.39,-374.88"/>
<text text-anchor="middle" x="400.89" y="-353.18" font-family="Times,serif" font-size="14.00">Documentation</text>
</a>
</g>
</g>
<!-- Document -->
<g id="node17" class="node">
<title>Document</title>
<g id="a_node17"><a xlink:href="/develop/Data/models.html#document" xlink:title="Document" target="_top">
<polygon fill="#eeefff" stroke="#dddeee" points="585.39,-374.88 511.39,-374.88 511.39,-338.88 585.39,-338.88 585.39,-374.88"/>
<text text-anchor="middle" x="548.39" y="-353.18" font-family="Times,serif" font-size="14.00">Document</text>
</a>
</g>
</g>
<!-- Image -->
<g id="node18" class="node">
<title>Image</title>
<g id="a_node18"><a xlink:href="/develop/Data/models.html#image" xlink:title="Image" target="_top">
<polygon fill="#eeefff" stroke="#dddeee" points="265.89,-239.88 211.89,-239.88 211.89,-203.88 265.89,-203.88 265.89,-239.88"/>
<text text-anchor="middle" x="238.89" y="-218.18" font-family="Times,serif" font-size="14.00">Image</text>
</a>
</g>
</g>
<!-- Keyword -->
<g id="node19" class="node">
<title>Keyword</title>
<g id="a_node19"><a xlink:href="/develop/Data/models.html#keyword" xlink:title="Keyword" target="_top">
<polygon fill="#eeefff" stroke="#dddeee" points="272.39,-185.88 205.39,-185.88 205.39,-149.88 272.39,-149.88 272.39,-185.88"/>
<text text-anchor="middle" x="238.89" y="-164.18" font-family="Times,serif" font-size="14.00">Keyword</text>
</a>
</g>
</g>
<!-- PinboardItem -->
<g id="node20" class="node">
<title>PinboardItem</title>
<g id="a_node20"><a xlink:href="/develop/Data/models.html#pinboard-item" xlink:title="PinboardItem" target="_top">
<polygon fill="#eeefff" stroke="#dddeee" points="446.39,-466.88 355.39,-466.88 355.39,-430.88 446.39,-430.88 446.39,-466.88"/>
<text text-anchor="middle" x="400.89" y="-445.18" font-family="Times,serif" font-size="14.00">PinboardItem</text>
</a>
</g>
</g>
<!-- Role -->
<g id="node21" class="node">
<title>Role</title>
<g id="a_node21"><a xlink:href="/develop/Data/models.html#role" xlink:title="Role" target="_top">
<polygon fill="#eeefff" stroke="#dddeee" points="427.89,-282.88 373.89,-282.88 373.89,-246.88 427.89,-246.88 427.89,-282.88"/>
<text text-anchor="middle" x="400.89" y="-261.18" font-family="Times,serif" font-size="14.00">Role</text>
</a>
</g>
</g>
<!-- SubsequentCitation -->
<g id="node22" class="node">
<title>SubsequentCitation</title>
<g id="a_node22"><a xlink:href="/develop/Data/models.html#subsequent-citation" xlink:title="SubsequentCitation" target="_top">
<polygon fill="#eeefff" stroke="#dddeee" points="609.39,-535.88 487.39,-535.88 487.39,-499.88 609.39,-499.88 609.39,-535.88"/>
<text text-anchor="middle" x="548.39" y="-514.18" font-family="Times,serif" font-size="14.00">SubsequentCitation</text>
</a>
</g>
</g>
<!-- SubsequentSource -->
<g id="node23" class="node">
<title>SubsequentSource</title>
<g id="a_node23"><a xlink:href="/develop/Data/models.html#subsequent-source" xlink:title="SubsequentSource" target="_top">
<polygon fill="#eeefff" stroke="#dddeee" points="761.39,-535.88 645.39,-535.88 645.39,-499.88 761.39,-499.88 761.39,-535.88"/>
<text text-anchor="middle" x="703.39" y="-514.18" font-family="Times,serif" font-size="14.00">SubsequentSource</text>
</a>
</g>
</g>
<!-- Topic -->
<g id="node24" class="node">
<title>Topic</title>
<g id="a_node24"><a xlink:href="/develop/Data/models.html#topic" xlink:title="Topic" target="_top">
<polygon fill="#eeefff" stroke="#dddeee" points="427.89,-614.88 373.89,-614.88 373.89,-578.88 427.89,-578.88 427.89,-614.88"/>
<text text-anchor="middle" x="400.89" y="-593.18" font-family="Times,serif" font-size="14.00">Topic</text>
</a>
</g>
</g>
<!-- VerifierRole -->
<g id="node25" class="node">
<title>VerifierRole</title>
<g id="a_node25"><a xlink:href="/develop/Data/models.html#verifier-role" xlink:title="VerifierRole" target="_top">
<polygon fill="#eeefff" stroke="#dddeee" points="442.39,-172.88 359.39,-172.88 359.39,-136.88 442.39,-136.88 442.39,-172.88"/>
<text text-anchor="middle" x="400.89" y="-151.18" font-family="Times,serif" font-size="14.00">VerifierRole</text>
</a>
</g>
</g>
<!-- Verifier -->
<g id="node26" class="node">
<title>Verifier</title>
<g id="a_node26"><a xlink:href="/develop/Data/models.html#verifier" xlink:title="Verifier" target="_top">
<polygon fill="#eeefff" stroke="#dddeee" points="576.89,-227.88 519.89,-227.88 519.89,-191.88 576.89,-191.88 576.89,-227.88"/>
<text text-anchor="middle" x="548.39" y="-206.18" font-family="Times,serif" font-size="14.00">Verifier</text>
</a>
</g>
</g>
<!-- Creator -->
<g id="node27" class="node">
<title>Creator</title>
<g id="a_node27"><a xlink:href="/develop/Data/models.html#creator" xlink:title="Creator" target="_top">
<polygon fill="#eeefff" stroke="#dddeee" points="576.89,-118.88 519.89,-118.88 519.89,-82.88 576.89,-82.88 576.89,-118.88"/>
<text text-anchor="middle" x="548.39" y="-97.18" font-family="Times,serif" font-size="14.00">Creator</text>
</a>
</g>
</g>
<!-- Project -->
<g id="node28" class="node">
<title>Project</title>
<g id="a_node28"><a xlink:href="/develop/Data/models.html#project" xlink:title="Project" target="_top">
<polygon fill="#eeefff" stroke="#dddeee" points="428.39,-118.88 373.39,-118.88 373.39,-82.88 428.39,-82.88 428.39,-118.88"/>
<text text-anchor="middle" x="400.89" y="-97.18" font-family="Times,serif" font-size="14.00">Project</text>
</a>
</g>
</g>
<!-- Updater -->
<g id="node29" class="node">
<title>Updater</title>
<g id="a_node29"><a xlink:href="/develop/Data/models.html#updater" xlink:title="Updater" target="_top">
<polygon fill="#eeefff" stroke="#dddeee" points="733.39,-118.88 673.39,-118.88 673.39,-82.88 733.39,-82.88 733.39,-118.88"/>
<text text-anchor="middle" x="703.39" y="-97.18" font-family="Times,serif" font-size="14.00">Updater</text>
</a>
</g>
</g>
<!-- OriginCitation -->
<g id="node30" class="node">
<title>OriginCitation</title>
<g id="a_node30"><a xlink:href="/develop/Data/models.html#origin-citation" xlink:title="OriginCitation" target="_top">
<polygon fill="#eeefff" stroke="#dddeee" points="595.89,-466.88 500.89,-466.88 500.89,-430.88 595.89,-430.88 595.89,-466.88"/>
<text text-anchor="middle" x="548.39" y="-445.18" font-family="Times,serif" font-size="14.00">OriginCitation</text>
</a>
</g>
</g>
</g>
</svg>
