<?xml version="1.0" encoding="UTF-8" standalone="no"?>
<!DOCTYPE svg PUBLIC "-//W3C//DTD SVG 1.1//EN"
 "http://www.w3.org/Graphics/SVG/1.1/DTD/svg11.dtd">
<!-- Generated by graphviz version 12.2.1 (20241206.2353)
 -->
<!-- Title: CharacterState Pages: 1 -->
<svg width="779pt" height="904pt"
 viewBox="0.00 0.00 778.89 904.00" xmlns="http://www.w3.org/2000/svg" xmlns:xlink="http://www.w3.org/1999/xlink">
<g id="graph0" class="graph" transform="scale(1 1) rotate(0) translate(4 900)">
<title>CharacterState</title>
<polygon fill="white" stroke="none" points="-4,4 -4,-900 774.89,-900 774.89,4 -4,4"/>
<!-- AlternateValue&#45;&gt;AlternateValueLanguage -->
<g id="edge1" class="edge">
<title>AlternateValue&#45;&gt;AlternateValueLanguage</title>
<path fill="none" stroke="black" stroke-dasharray="1,5" d="M124.6,-859.84C134.9,-861.43 145.84,-863.11 156.74,-864.79"/>
<polygon fill="black" stroke="black" points="156.14,-868.24 166.56,-866.3 157.21,-861.32 156.14,-868.24"/>
</g>
<!-- Citation&#45;&gt;Source -->
<g id="edge20" class="edge">
<title>Citation&#45;&gt;Source</title>
<path fill="none" stroke="black" stroke-dasharray="1,5" d="M107.17,-769C173.41,-769 304.97,-769 369.52,-769"/>
<polygon fill="black" stroke="black" points="369.25,-772.5 379.25,-769 369.25,-765.5 369.25,-772.5"/>
</g>
<!-- Citation&#45;&gt;CitationTopic -->
<g id="edge3" class="edge">
<title>Citation&#45;&gt;CitationTopic</title>
<path fill="none" stroke="black" stroke-dasharray="1,5" d="M100.17,-779.35C124.62,-787.02 158.52,-797.65 187.11,-806.62"/>
<polygon fill="black" stroke="black" points="185.74,-809.86 196.33,-809.51 187.83,-803.18 185.74,-809.86"/>
</g>
<!-- Confidence&#45;&gt;ConfidenceLevel -->
<g id="edge5" class="edge">
<title>Confidence&#45;&gt;ConfidenceLevel</title>
<path fill="none" stroke="black" stroke-dasharray="1,5" d="M119.8,-406C137.92,-406 158.44,-406 177.44,-406"/>
<polygon fill="black" stroke="black" points="177.22,-409.5 187.22,-406 177.22,-402.5 177.22,-409.5"/>
</g>
<!-- Depiction&#45;&gt;Image -->
<g id="edge12" class="edge">
<title>Depiction&#45;&gt;Image</title>
<path fill="none" stroke="black" stroke-dasharray="1,5" d="M113.72,-352C142.26,-352 178.33,-352 205.03,-352"/>
<polygon fill="black" stroke="black" points="204.7,-355.5 214.7,-352 204.7,-348.5 204.7,-355.5"/>
</g>
<!-- Tag&#45;&gt;Keyword -->
<g id="edge15" class="edge">
<title>Tag&#45;&gt;Keyword</title>
<path fill="none" stroke="black" stroke-dasharray="1,5" d="M93.44,-298C121.3,-298 165.78,-298 198.91,-298"/>
<polygon fill="black" stroke="black" points="198.6,-301.5 208.6,-298 198.6,-294.5 198.6,-301.5"/>
</g>
<!-- Source&#45;&gt;SubsequentCitation -->
<!-- Source&#45;&gt;OriginCitation -->
<!-- CharacterState&#45;&gt;AlternateValue -->
<g id="edge2" class="edge">
<title>CharacterState&#45;&gt;AlternateValue</title>
<path fill="none" stroke="black" d="M239.39,-486.42C230.67,-542.77 202.01,-693.16 132.39,-796 124.35,-807.88 113.05,-818.64 102.12,-827.44"/>
<polygon fill="black" stroke="black" points="100.12,-824.56 94.31,-833.42 104.38,-830.12 100.12,-824.56"/>
</g>
<!-- CharacterState&#45;&gt;Citation -->
<g id="edge4" class="edge">
<title>CharacterState&#45;&gt;Citation</title>
<path fill="none" stroke="black" d="M229.76,-486.18C198.38,-540.77 117.46,-681.56 83.05,-741.41"/>
<polygon fill="black" stroke="black" points="80.08,-739.56 78.13,-749.97 86.15,-743.05 80.08,-739.56"/>
</g>
<!-- CharacterState&#45;&gt;Confidence -->
<g id="edge6" class="edge">
<title>CharacterState&#45;&gt;Confidence</title>
<path fill="none" stroke="black" d="M191.9,-447.26C168.04,-439.36 139.7,-429.99 116.07,-422.17"/>
<polygon fill="black" stroke="black" points="117.27,-418.88 106.67,-419.06 115.07,-425.52 117.27,-418.88"/>
</g>
<!-- CharacterState&#45;&gt;DataAttribute -->
<g id="edge7" class="edge">
<title>CharacterState&#45;&gt;DataAttribute</title>
<path fill="none" stroke="black" d="M214.18,-486.39C192.58,-502.82 161.64,-524.96 132.39,-541 127.08,-543.91 121.4,-546.7 115.68,-549.31"/>
<polygon fill="black" stroke="black" points="114.57,-545.98 106.81,-553.19 117.37,-552.39 114.57,-545.98"/>
</g>
<!-- CharacterState&#45;&gt;Depiction -->
<g id="edge8" class="edge">
<title>CharacterState&#45;&gt;Depiction</title>
<path fill="none" stroke="black" d="M191.59,-447.43C183.35,-443.46 175.28,-438.68 168.39,-433 146.13,-414.65 154.68,-397.31 132.39,-379 126.98,-374.56 120.75,-370.76 114.32,-367.53"/>
<polygon fill="black" stroke="black" points="116.08,-364.49 105.53,-363.54 113.19,-370.86 116.08,-364.49"/>
</g>
<!-- CharacterState&#45;&gt;Identifier -->
<g id="edge11" class="edge">
<title>CharacterState&#45;&gt;Identifier</title>
<path fill="none" stroke="black" d="M187.57,-479.67C164.13,-486.35 137.05,-494.08 114.51,-500.5"/>
<polygon fill="black" stroke="black" points="113.63,-497.12 104.98,-503.22 115.55,-503.85 113.63,-497.12"/>
</g>
<!-- CharacterState&#45;&gt;Tag -->
<g id="edge23" class="edge">
<title>CharacterState&#45;&gt;Tag</title>
<path fill="none" stroke="black" d="M188.71,-448.1C181.18,-444.1 174.08,-439.13 168.39,-433 133.97,-395.92 166.87,-362.02 132.39,-325 124.58,-316.62 113.78,-310.76 103.21,-306.69"/>
<polygon fill="black" stroke="black" points="104.44,-303.42 93.85,-303.56 102.22,-310.05 104.44,-303.42"/>
</g>
<!-- CharacterState&#45;&gt;Note -->
<g id="edge16" class="edge">
<title>CharacterState&#45;&gt;Note</title>
<path fill="none" stroke="black" d="M168.64,-462.31C147.4,-461.83 125.05,-461.32 106.75,-460.9"/>
<polygon fill="black" stroke="black" points="106.95,-457.41 96.88,-460.68 106.79,-464.4 106.95,-457.41"/>
</g>
<!-- CharacterState&#45;&gt;Observation -->
<g id="edge17" class="edge">
<title>CharacterState&#45;&gt;Observation</title>
<path fill="none" stroke="black" d="M315.31,-452.24C328.8,-449.99 342.68,-447.69 355.43,-445.57"/>
<polygon fill="black" stroke="black" points="356,-449.02 365.29,-443.93 354.85,-442.12 356,-449.02"/>
</g>
<!-- CharacterState&#45;&gt;Source -->
<g id="edge34" class="edge">
<title>CharacterState&#45;&gt;Source</title>
<path fill="none" stroke="black" stroke-dasharray="1,5" d="M250.78,-496.26C262.76,-550.88 293.35,-662.73 354.64,-736 359.47,-741.78 365.59,-746.87 371.92,-751.21"/>
<polygon fill="none" stroke="black" points="244.82,-487.45 252.65,-485.79 254.31,-493.62 246.48,-495.28 244.82,-487.45"/>
<polyline fill="none" stroke="black" points="250.4,-494.45 250.81,-496.4"/>
<polygon fill="none" stroke="black" points="382.3,-753.02 378.04,-759.79 371.27,-755.53 375.53,-748.76 382.3,-753.02"/>
<polyline fill="none" stroke="black" points="373.4,-752.14 371.71,-751.08"/>
</g>
<!-- CharacterState&#45;&gt;Descriptor -->
<g id="edge30" class="edge">
<title>CharacterState&#45;&gt;Descriptor</title>
<path fill="none" stroke="black" stroke-dasharray="5,2" d="M307.9,-442.31C311.81,-439.55 315.45,-436.46 318.64,-433 353.77,-394.85 322.79,-362.94 354.64,-322 359.12,-316.23 364.92,-311.2 371.02,-306.92"/>
<polygon fill="black" stroke="black" points="306.36,-439.15 299.65,-447.35 310.01,-445.12 306.36,-439.15"/>
</g>
<!-- CharacterState&#45;&gt;Documentation -->
<g id="edge9" class="edge">
<title>CharacterState&#45;&gt;Documentation</title>
<path fill="none" stroke="black" d="M300.72,-448.54C307.64,-444.5 313.93,-439.41 318.64,-433 421.17,-293.43 257.76,-188.55 354.64,-45 354.71,-44.9 354.77,-44.8 354.84,-44.7"/>
<polygon fill="black" stroke="black" points="357.27,-47.23 361.46,-37.5 352.12,-42.49 357.27,-47.23"/>
</g>
<!-- CharacterState&#45;&gt;ImportAttribute -->
<g id="edge13" class="edge">
<title>CharacterState&#45;&gt;ImportAttribute</title>
<path fill="none" stroke="black" d="M299.97,-448.47C307.1,-444.43 313.64,-439.36 318.64,-433 381.51,-353.05 295.01,-289.4 354.64,-207 354.86,-206.69 355.09,-206.38 355.33,-206.08"/>
<polygon fill="black" stroke="black" points="357.57,-208.79 362.13,-199.22 352.6,-203.85 357.57,-208.79"/>
</g>
<!-- CharacterState&#45;&gt;InternalAttribute -->
<g id="edge14" class="edge">
<title>CharacterState&#45;&gt;InternalAttribute</title>
<path fill="none" stroke="black" d="M300.15,-448.6C307.25,-444.54 313.73,-439.43 318.64,-433 394.7,-333.21 282.62,-255.74 354.64,-153 354.71,-152.9 354.78,-152.8 354.85,-152.7"/>
<polygon fill="black" stroke="black" points="357.26,-155.25 361.57,-145.57 352.17,-150.44 357.26,-155.25"/>
</g>
<!-- CharacterState&#45;&gt;PinboardItem -->
<g id="edge18" class="edge">
<title>CharacterState&#45;&gt;PinboardItem</title>
<path fill="none" stroke="black" d="M300.63,-448.48C307.57,-444.44 313.88,-439.37 318.64,-433 407.92,-313.34 270.2,-222.13 354.64,-99 354.71,-98.9 354.78,-98.8 354.85,-98.7"/>
<polygon fill="black" stroke="black" points="357.27,-101.23 361.51,-91.53 352.14,-96.47 357.27,-101.23"/>
</g>
<!-- CharacterState&#45;&gt;Role -->
<g id="edge19" class="edge">
<title>CharacterState&#45;&gt;Role</title>
<path fill="none" stroke="black" d="M290.95,-446.03C300.25,-442.02 309.86,-437.59 318.64,-433 335.46,-424.19 338.25,-419.59 354.64,-410 359.86,-406.94 365.45,-403.81 370.96,-400.8"/>
<polygon fill="black" stroke="black" points="372.21,-404.1 379.35,-396.28 368.89,-397.94 372.21,-404.1"/>
</g>
<!-- CharacterState&#45;&gt;SubsequentCitation -->
<g id="edge21" class="edge">
<title>CharacterState&#45;&gt;SubsequentCitation</title>
<path fill="none" stroke="black" d="M247.94,-486.21C256.54,-533.95 283.65,-646.56 354.64,-703 374.83,-719.06 436.16,-730.32 486.1,-737.11"/>
<polygon fill="black" stroke="black" points="485.34,-740.54 495.71,-738.38 486.25,-733.6 485.34,-740.54"/>
</g>
<!-- CharacterState&#45;&gt;Uri -->
<g id="edge25" class="edge">
<title>CharacterState&#45;&gt;Uri</title>
<path fill="none" stroke="black" d="M253.9,-486.21C270.15,-522.64 306.44,-595.83 354.64,-644 359.58,-648.94 365.44,-653.45 371.4,-657.43"/>
<polygon fill="black" stroke="black" points="369.13,-660.14 379.48,-662.43 372.82,-654.19 369.13,-660.14"/>
</g>
<!-- CharacterState&#45;&gt;Uuid -->
<g id="edge26" class="edge">
<title>CharacterState&#45;&gt;Uuid</title>
<path fill="none" stroke="black" d="M270.5,-486.3C292.37,-504.69 324.78,-531.07 354.64,-552 359.95,-555.72 365.69,-559.48 371.37,-563.05"/>
<polygon fill="black" stroke="black" points="369.12,-565.78 379.47,-568.05 372.79,-559.82 369.12,-565.78"/>
</g>
<!-- CharacterState&#45;&gt;VerifierRole -->
<g id="edge27" class="edge">
<title>CharacterState&#45;&gt;VerifierRole</title>
<path fill="none" stroke="black" d="M313.9,-475.96C327.78,-478.35 342.13,-480.82 355.28,-483.09"/>
<polygon fill="black" stroke="black" points="354.55,-486.51 365,-484.76 355.74,-479.61 354.55,-486.51"/>
</g>
<!-- CharacterState&#45;&gt;Creator -->
<g id="edge29" class="edge">
<title>CharacterState&#45;&gt;Creator</title>
<path fill="none" stroke="black" stroke-dasharray="5,2" d="M307.25,-442C311.34,-439.31 315.19,-436.32 318.64,-433 346.12,-406.5 326.45,-380.75 354.64,-355 391.82,-321.04 417.88,-342.36 461.39,-317 492.01,-299.15 522.04,-270.92 540.1,-252.43"/>
<polygon fill="black" stroke="black" points="305.57,-438.93 298.67,-446.96 309.07,-444.98 305.57,-438.93"/>
</g>
<!-- CharacterState&#45;&gt;Project -->
<g id="edge31" class="edge">
<title>CharacterState&#45;&gt;Project</title>
<path fill="none" stroke="black" stroke-dasharray="5,2" d="M309.32,-441.93C312.75,-439.28 315.9,-436.31 318.64,-433 368.38,-372.79 307.34,-323.15 354.64,-261 361.14,-252.45 371.12,-246.37 380.63,-242.18"/>
<polygon fill="black" stroke="black" points="307.4,-439 300.96,-447.42 311.25,-444.85 307.4,-439"/>
</g>
<!-- CharacterState&#45;&gt;Updater -->
<g id="edge32" class="edge">
<title>CharacterState&#45;&gt;Updater</title>
<path fill="none" stroke="black" stroke-dasharray="5,2" d="M287.07,-491.05C306.81,-502.04 331.08,-513.44 354.64,-519 471.5,-546.56 532.21,-546.83 619.14,-464 682.11,-403.99 703.53,-295.48 709.77,-252.37"/>
<polygon fill="black" stroke="black" points="288.92,-488.07 278.5,-486.13 285.43,-494.14 288.92,-488.07"/>
</g>
<!-- CharacterState&#45;&gt;OriginCitation -->
<g id="edge33" class="edge">
<title>CharacterState&#45;&gt;OriginCitation</title>
<path fill="none" stroke="black" d="M259.14,-495.42C276.77,-529.59 309.72,-583.05 354.64,-611 398.57,-638.34 457.51,-646.92 500.49,-649.21"/>
<polygon fill="none" stroke="black" points="251.23,-488.58 258.38,-484.99 261.97,-492.14 254.82,-495.72 251.23,-488.58"/>
<polyline fill="none" stroke="black" points="258.39,-493.93 259.29,-495.72"/>
<polygon fill="none" stroke="black" points="510.45,-645.63 510.11,-653.63 502.12,-653.28 502.46,-645.29 510.45,-645.63"/>
<polyline fill="none" stroke="black" points="502.29,-649.28 500.29,-649.2"/>
</g>
<!-- CitationTopic&#45;&gt;Topic -->
<g id="edge24" class="edge">
<title>CitationTopic&#45;&gt;Topic</title>
<path fill="none" stroke="black" stroke-dasharray="1,5" d="M289.35,-824C314.42,-824 345.33,-824 369.17,-824"/>
<polygon fill="black" stroke="black" points="369.08,-827.5 379.08,-824 369.08,-820.5 369.08,-827.5"/>
</g>
<!-- Documentation&#45;&gt;Document -->
<g id="edge10" class="edge">
<title>Documentation&#45;&gt;Document</title>
<path fill="none" stroke="black" stroke-dasharray="1,5" d="M458.38,-18C475.21,-18 493.97,-18 510.59,-18"/>
<polygon fill="black" stroke="black" points="510.19,-21.5 520.19,-18 510.19,-14.5 510.19,-21.5"/>
</g>
<!-- Role&#45;&gt;Verifier -->
<!-- SubsequentCitation&#45;&gt;SubsequentSource -->
<g id="edge22" class="edge">
<title>SubsequentCitation&#45;&gt;SubsequentSource</title>
<path fill="none" stroke="black" stroke-dasharray="1,5" d="M619.63,-745C627.57,-745 635.75,-745 643.8,-745"/>
<polygon fill="black" stroke="black" points="643.55,-748.5 653.55,-745 643.55,-741.5 643.55,-748.5"/>
</g>
<!-- VerifierRole&#45;&gt;Verifier -->
<g id="edge28" class="edge">
<title>VerifierRole&#45;&gt;Verifier</title>
<path fill="none" stroke="black" stroke-dasharray="1,5" d="M449.52,-476.97C471.13,-468.95 497.58,-459.14 518.86,-451.25"/>
<polygon fill="black" stroke="black" points="519.89,-454.6 528.05,-447.84 517.45,-448.04 519.89,-454.6"/>
</g>
<!-- Creator&#45;&gt;Updater -->
<!-- Project&#45;&gt;Creator -->
<!-- AlternateValue -->
<g id="node1" class="node">
<title>AlternateValue</title>
<g id="a_node1"><a xlink:href="/develop/Data/models.html#alternate-value" xlink:title="AlternateValue" target="_top">
<ellipse fill="#abcdef" stroke="#dddeee" cx="66.19" cy="-851" rx="66.19" ry="18"/>
<text text-anchor="middle" x="66.19" y="-845.95" font-family="Times,serif" font-size="14.00">AlternateValue</text>
</a>
</g>
</g>
<!-- Citation -->
<g id="node2" class="node">
<title>Citation</title>
<g id="a_node2"><a xlink:href="/develop/Data/models.html#citation" xlink:title="Citation" target="_top">
<ellipse fill="#abcdef" stroke="#dddeee" cx="66.19" cy="-769" rx="40.6" ry="18"/>
<text text-anchor="middle" x="66.19" y="-763.95" font-family="Times,serif" font-size="14.00">Citation</text>
</a>
</g>
</g>
<!-- Confidence -->
<g id="node3" class="node">
<title>Confidence</title>
<g id="a_node3"><a xlink:href="/develop/Data/models.html#confidence" xlink:title="Confidence" target="_top">
<ellipse fill="#abcdef" stroke="#dddeee" cx="66.19" cy="-406" rx="53.4" ry="18"/>
<text text-anchor="middle" x="66.19" y="-400.95" font-family="Times,serif" font-size="14.00">Confidence</text>
</a>
</g>
</g>
<!-- DataAttribute -->
<g id="node4" class="node">
<title>DataAttribute</title>
<g id="a_node4"><a xlink:href="/develop/Data/models.html#data-attribute" xlink:title="DataAttribute" target="_top">
<ellipse fill="#abcdef" stroke="#dddeee" cx="66.19" cy="-568" rx="61.59" ry="18"/>
<text text-anchor="middle" x="66.19" y="-562.95" font-family="Times,serif" font-size="14.00">DataAttribute</text>
</a>
</g>
</g>
<!-- Depiction -->
<g id="node5" class="node">
<title>Depiction</title>
<g id="a_node5"><a xlink:href="/develop/Data/models.html#depiction" xlink:title="Depiction" target="_top">
<ellipse fill="#abcdef" stroke="#dddeee" cx="66.19" cy="-352" rx="47.26" ry="18"/>
<text text-anchor="middle" x="66.19" y="-346.95" font-family="Times,serif" font-size="14.00">Depiction</text>
</a>
</g>
</g>
<!-- Identifier -->
<g id="node6" class="node">
<title>Identifier</title>
<g id="a_node6"><a xlink:href="/develop/Data/models.html#identifier" xlink:title="Identifier" target="_top">
<ellipse fill="#abcdef" stroke="#dddeee" cx="66.19" cy="-514" rx="45.21" ry="18"/>
<text text-anchor="middle" x="66.19" y="-508.95" font-family="Times,serif" font-size="14.00">Identifier</text>
</a>
</g>
</g>
<!-- Tag -->
<g id="node7" class="node">
<title>Tag</title>
<g id="a_node7"><a xlink:href="/develop/Data/models.html#tag" xlink:title="Tag" target="_top">
<ellipse fill="#abcdef" stroke="#dddeee" cx="66.19" cy="-298" rx="27" ry="18"/>
<text text-anchor="middle" x="66.19" y="-292.95" font-family="Times,serif" font-size="14.00">Tag</text>
</a>
</g>
</g>
<!-- Note -->
<g id="node8" class="node">
<title>Note</title>
<g id="a_node8"><a xlink:href="/develop/Data/models.html#note" xlink:title="Note" target="_top">
<ellipse fill="#abcdef" stroke="#dddeee" cx="66.19" cy="-460" rx="28.83" ry="18"/>
<text text-anchor="middle" x="66.19" y="-454.95" font-family="Times,serif" font-size="14.00">Note</text>
</a>
</g>
</g>
<!-- Observation -->
<g id="node9" class="node">
<title>Observation</title>
<g id="a_node9"><a xlink:href="/develop/Data/models.html#observation" xlink:title="Observation" target="_top">
<path fill="#fedcba" stroke="#dddeee" d="M379.01,-419C379.01,-419 437.01,-419 437.01,-419 443.01,-419 449.01,-425 449.01,-431 449.01,-431 449.01,-443 449.01,-443 449.01,-449 443.01,-455 437.01,-455 437.01,-455 379.01,-455 379.01,-455 373.01,-455 367.01,-449 367.01,-443 367.01,-443 367.01,-431 367.01,-431 367.01,-425 373.01,-419 379.01,-419"/>
<text text-anchor="middle" x="408.01" y="-432.2" font-family="Times,serif" font-size="14.00">Observation</text>
</a>
</g>
</g>
<!-- Source -->
<g id="node10" class="node">
<title>Source</title>
<g id="a_node10"><a xlink:href="/develop/Data/models.html#source" xlink:title="Source" target="_top">
<path fill="#fedcba" stroke="#dddeee" d="M393.01,-751C393.01,-751 423.01,-751 423.01,-751 429.01,-751 435.01,-757 435.01,-763 435.01,-763 435.01,-775 435.01,-775 435.01,-781 429.01,-787 423.01,-787 423.01,-787 393.01,-787 393.01,-787 387.01,-787 381.01,-781 381.01,-775 381.01,-775 381.01,-763 381.01,-763 381.01,-757 387.01,-751 393.01,-751"/>
<text text-anchor="middle" x="408.01" y="-764.2" font-family="Times,serif" font-size="14.00">Source</text>
</a>
</g>
</g>
<!-- Descriptor -->
<g id="node11" class="node">
<title>Descriptor</title>
<g id="a_node11"><a xlink:href="/develop/Data/models.html#descriptor" xlink:title="Descriptor" target="_top">
<path fill="#fedcba" stroke="#dddeee" d="M383.51,-271C383.51,-271 432.51,-271 432.51,-271 438.51,-271 444.51,-277 444.51,-283 444.51,-283 444.51,-295 444.51,-295 444.51,-301 438.51,-307 432.51,-307 432.51,-307 383.51,-307 383.51,-307 377.51,-307 371.51,-301 371.51,-295 371.51,-295 371.51,-283 371.51,-283 371.51,-277 377.51,-271 383.51,-271"/>
<text text-anchor="middle" x="408.01" y="-284.2" font-family="Times,serif" font-size="14.00">Descriptor</text>
</a>
</g>
</g>
<!-- CharacterState -->
<g id="node12" class="node">
<title>CharacterState</title>
<g id="a_node12"><a xlink:href="/develop/Data/models.html#character-state" xlink:title="CharacterState" target="_top">
<polygon fill="#cdefab" stroke="#dedede" points="314.05,-456.54 314.05,-471.46 272.73,-482 214.29,-482 172.97,-471.46 172.97,-456.54 214.29,-446 272.73,-446 314.05,-456.54"/>
<polygon fill="none" stroke="#dedede" points="318.05,-453.44 318.05,-474.56 273.23,-486 213.79,-486 168.97,-474.56 168.97,-453.44 213.79,-442 273.23,-442 318.05,-453.44"/>
<text text-anchor="middle" x="243.51" y="-458.95" font-family="Times,serif" font-size="14.00">CharacterState</text>
</a>
</g>
</g>
<!-- AlternateValueLanguage -->
<g id="node13" class="node">
<title>AlternateValueLanguage</title>
<g id="a_node13"><a xlink:href="/develop/Data/models.html#alternate-value-language" xlink:title="AlternateValueLanguage" target="_top">
<polygon fill="#eeefff" stroke="#dddeee" points="318.64,-896 168.39,-896 168.39,-860 318.64,-860 318.64,-896"/>
<text text-anchor="middle" x="243.51" y="-872.95" font-family="Times,serif" font-size="14.00">AlternateValueLanguage</text>
</a>
</g>
</g>
<!-- CitationTopic -->
<g id="node14" class="node">
<title>CitationTopic</title>
<g id="a_node14"><a xlink:href="/develop/Data/models.html#citation-topic" xlink:title="CitationTopic" target="_top">
<polygon fill="#eeefff" stroke="#dddeee" points="289.01,-842 198.01,-842 198.01,-806 289.01,-806 289.01,-842"/>
<text text-anchor="middle" x="243.51" y="-818.95" font-family="Times,serif" font-size="14.00">CitationTopic</text>
</a>
</g>
</g>
<!-- ConfidenceLevel -->
<g id="node15" class="node">
<title>ConfidenceLevel</title>
<g id="a_node15"><a xlink:href="/develop/Data/models.html#confidence-level" xlink:title="ConfidenceLevel" target="_top">
<polygon fill="#eeefff" stroke="#dddeee" points="298.01,-424 189.01,-424 189.01,-388 298.01,-388 298.01,-424"/>
<text text-anchor="middle" x="243.51" y="-400.95" font-family="Times,serif" font-size="14.00">ConfidenceLevel</text>
</a>
</g>
</g>
<!-- Documentation -->
<g id="node16" class="node">
<title>Documentation</title>
<g id="a_node16"><a xlink:href="/develop/Data/models.html#documentation" xlink:title="Documentation" target="_top">
<polygon fill="#eeefff" stroke="#dddeee" points="458.01,-36 358.01,-36 358.01,0 458.01,0 458.01,-36"/>
<text text-anchor="middle" x="408.01" y="-12.95" font-family="Times,serif" font-size="14.00">Documentation</text>
</a>
</g>
</g>
<!-- Document -->
<g id="node17" class="node">
<title>Document</title>
<g id="a_node17"><a xlink:href="/develop/Data/models.html#document" xlink:title="Document" target="_top">
<polygon fill="#eeefff" stroke="#dddeee" points="594.76,-36 521.76,-36 521.76,0 594.76,0 594.76,-36"/>
<text text-anchor="middle" x="558.26" y="-12.95" font-family="Times,serif" font-size="14.00">Document</text>
</a>
</g>
</g>
<!-- Image -->
<g id="node18" class="node">
<title>Image</title>
<g id="a_node18"><a xlink:href="/develop/Data/models.html#image" xlink:title="Image" target="_top">
<polygon fill="#eeefff" stroke="#dddeee" points="270.51,-370 216.51,-370 216.51,-334 270.51,-334 270.51,-370"/>
<text text-anchor="middle" x="243.51" y="-346.95" font-family="Times,serif" font-size="14.00">Image</text>
</a>
</g>
</g>
<!-- ImportAttribute -->
<g id="node19" class="node">
<title>ImportAttribute</title>
<g id="a_node19"><a xlink:href="/develop/Data/models.html#import-attribute" xlink:title="ImportAttribute" target="_top">
<polygon fill="#eeefff" stroke="#dddeee" points="459.14,-198 356.89,-198 356.89,-162 459.14,-162 459.14,-198"/>
<text text-anchor="middle" x="408.01" y="-174.95" font-family="Times,serif" font-size="14.00">ImportAttribute</text>
</a>
</g>
</g>
<!-- InternalAttribute -->
<g id="node20" class="node">
<title>InternalAttribute</title>
<g id="a_node20"><a xlink:href="/develop/Data/models.html#internal-attribute" xlink:title="InternalAttribute" target="_top">
<polygon fill="#eeefff" stroke="#dddeee" points="461.39,-144 354.64,-144 354.64,-108 461.39,-108 461.39,-144"/>
<text text-anchor="middle" x="408.01" y="-120.95" font-family="Times,serif" font-size="14.00">InternalAttribute</text>
</a>
</g>
</g>
<!-- Keyword -->
<g id="node21" class="node">
<title>Keyword</title>
<g id="a_node21"><a xlink:href="/develop/Data/models.html#keyword" xlink:title="Keyword" target="_top">
<polygon fill="#eeefff" stroke="#dddeee" points="276.64,-316 210.39,-316 210.39,-280 276.64,-280 276.64,-316"/>
<text text-anchor="middle" x="243.51" y="-292.95" font-family="Times,serif" font-size="14.00">Keyword</text>
</a>
</g>
</g>
<!-- PinboardItem -->
<g id="node22" class="node">
<title>PinboardItem</title>
<g id="a_node22"><a xlink:href="/develop/Data/models.html#pinboard-item" xlink:title="PinboardItem" target="_top">
<polygon fill="#eeefff" stroke="#dddeee" points="453.14,-90 362.89,-90 362.89,-54 453.14,-54 453.14,-90"/>
<text text-anchor="middle" x="408.01" y="-66.95" font-family="Times,serif" font-size="14.00">PinboardItem</text>
</a>
</g>
</g>
<!-- Role -->
<g id="node23" class="node">
<title>Role</title>
<g id="a_node23"><a xlink:href="/develop/Data/models.html#role" xlink:title="Role" target="_top">
<polygon fill="#eeefff" stroke="#dddeee" points="435.01,-400 381.01,-400 381.01,-364 435.01,-364 435.01,-400"/>
<text text-anchor="middle" x="408.01" y="-376.95" font-family="Times,serif" font-size="14.00">Role</text>
</a>
</g>
</g>
<!-- SubsequentCitation -->
<g id="node24" class="node">
<title>SubsequentCitation</title>
<g id="a_node24"><a xlink:href="/develop/Data/models.html#subsequent-citation" xlink:title="SubsequentCitation" target="_top">
<polygon fill="#eeefff" stroke="#dddeee" points="619.14,-763 497.39,-763 497.39,-727 619.14,-727 619.14,-763"/>
<text text-anchor="middle" x="558.26" y="-739.95" font-family="Times,serif" font-size="14.00">SubsequentCitation</text>
</a>
</g>
</g>
<!-- SubsequentSource -->
<g id="node25" class="node">
<title>SubsequentSource</title>
<g id="a_node25"><a xlink:href="/develop/Data/models.html#subsequent-source" xlink:title="SubsequentSource" target="_top">
<polygon fill="#eeefff" stroke="#dddeee" points="770.89,-763 655.14,-763 655.14,-727 770.89,-727 770.89,-763"/>
<text text-anchor="middle" x="713.01" y="-739.95" font-family="Times,serif" font-size="14.00">SubsequentSource</text>
</a>
</g>
</g>
<!-- Topic -->
<g id="node26" class="node">
<title>Topic</title>
<g id="a_node26"><a xlink:href="/develop/Data/models.html#topic" xlink:title="Topic" target="_top">
<polygon fill="#eeefff" stroke="#dddeee" points="435.01,-842 381.01,-842 381.01,-806 435.01,-806 435.01,-842"/>
<text text-anchor="middle" x="408.01" y="-818.95" font-family="Times,serif" font-size="14.00">Topic</text>
</a>
</g>
</g>
<!-- Uri -->
<g id="node27" class="node">
<title>Uri</title>
<g id="a_node27"><a xlink:href="/develop/Data/models.html#uri" xlink:title="Uri" target="_top">
<polygon fill="#eeefff" stroke="#dddeee" points="435.01,-694 381.01,-694 381.01,-658 435.01,-658 435.01,-694"/>
<text text-anchor="middle" x="408.01" y="-670.95" font-family="Times,serif" font-size="14.00">Uri</text>
</a>
</g>
</g>
<!-- Uuid -->
<g id="node28" class="node">
<title>Uuid</title>
<g id="a_node28"><a xlink:href="/develop/Data/models.html#uuid" xlink:title="Uuid" target="_top">
<polygon fill="#eeefff" stroke="#dddeee" points="435.01,-602 381.01,-602 381.01,-566 435.01,-566 435.01,-602"/>
<text text-anchor="middle" x="408.01" y="-578.95" font-family="Times,serif" font-size="14.00">Uuid</text>
</a>
</g>
</g>
<!-- VerifierRole -->
<g id="node29" class="node">
<title>VerifierRole</title>
<g id="a_node29"><a xlink:href="/develop/Data/models.html#verifier-role" xlink:title="VerifierRole" target="_top">
<polygon fill="#eeefff" stroke="#dddeee" points="449.39,-510 366.64,-510 366.64,-474 449.39,-474 449.39,-510"/>
<text text-anchor="middle" x="408.01" y="-486.95" font-family="Times,serif" font-size="14.00">VerifierRole</text>
</a>
</g>
</g>
<!-- Verifier -->
<g id="node30" class="node">
<title>Verifier</title>
<g id="a_node30"><a xlink:href="/develop/Data/models.html#verifier" xlink:title="Verifier" target="_top">
<polygon fill="#eeefff" stroke="#dddeee" points="586.89,-455 529.64,-455 529.64,-419 586.89,-419 586.89,-455"/>
<text text-anchor="middle" x="558.26" y="-431.95" font-family="Times,serif" font-size="14.00">Verifier</text>
</a>
</g>
</g>
<!-- Creator -->
<g id="node31" class="node">
<title>Creator</title>
<g id="a_node31"><a xlink:href="/develop/Data/models.html#creator" xlink:title="Creator" target="_top">
<polygon fill="#eeefff" stroke="#dddeee" points="586.51,-252 530.01,-252 530.01,-216 586.51,-216 586.51,-252"/>
<text text-anchor="middle" x="558.26" y="-228.95" font-family="Times,serif" font-size="14.00">Creator</text>
</a>
</g>
</g>
<!-- Project -->
<g id="node32" class="node">
<title>Project</title>
<g id="a_node32"><a xlink:href="/develop/Data/models.html#project" xlink:title="Project" target="_top">
<polygon fill="#eeefff" stroke="#dddeee" points="435.14,-252 380.89,-252 380.89,-216 435.14,-216 435.14,-252"/>
<text text-anchor="middle" x="408.01" y="-228.95" font-family="Times,serif" font-size="14.00">Project</text>
</a>
</g>
</g>
<!-- Updater -->
<g id="node33" class="node">
<title>Updater</title>
<g id="a_node33"><a xlink:href="/develop/Data/models.html#updater" xlink:title="Updater" target="_top">
<polygon fill="#eeefff" stroke="#dddeee" points="742.76,-252 683.26,-252 683.26,-216 742.76,-216 742.76,-252"/>
<text text-anchor="middle" x="713.01" y="-228.95" font-family="Times,serif" font-size="14.00">Updater</text>
</a>
</g>
</g>
<!-- OriginCitation -->
<g id="node34" class="node">
<title>OriginCitation</title>
<g id="a_node34"><a xlink:href="/develop/Data/models.html#origin-citation" xlink:title="OriginCitation" target="_top">
<polygon fill="#eeefff" stroke="#dddeee" points="605.64,-667 510.89,-667 510.89,-631 605.64,-631 605.64,-667"/>
<text text-anchor="middle" x="558.26" y="-643.95" font-family="Times,serif" font-size="14.00">OriginCitation</text>
</a>
</g>
</g>
</g>
</svg>
