<?xml version="1.0" encoding="UTF-8" standalone="no"?>
<!DOCTYPE svg PUBLIC "-//W3C//DTD SVG 1.1//EN"
 "http://www.w3.org/Graphics/SVG/1.1/DTD/svg11.dtd">
<!-- Generated by graphviz version 2.50.0 (20211204.2007)
 -->
<!-- Title: CitationTopic Pages: 1 -->
<svg width="661pt" height="414pt"
 viewBox="0.00 0.00 661.00 413.64" xmlns="http://www.w3.org/2000/svg" xmlns:xlink="http://www.w3.org/1999/xlink">
<g id="graph0" class="graph" transform="scale(1 1) rotate(0) translate(4 409.64)">
<title>CitationTopic</title>
<polygon fill="white" stroke="transparent" points="-4,4 -4,-409.64 657,-409.64 657,4 -4,4"/>
<text text-anchor="middle" x="326.5" y="-22.8" font-family="Times,serif" font-size="14.00">Algorithmically generated relationships for CitationTopic based on assertions of &#39;has_many&#39;, &#39;has_one&#39;, &#39;belongs_to&#39;. </text>
<text text-anchor="middle" x="326.5" y="-7.8" font-family="Times,serif" font-size="14.00">Generated 2022&#45;01&#45;25 11:37:23 &#45;0600.</text>
<!-- CitationTopic&#45;&gt;Citation -->
<g id="edge5" class="edge">
<title>CitationTopic&#45;&gt;Citation</title>
<path fill="none" stroke="black" stroke-dasharray="5,2" d="M146.62,-201.14C137.79,-201.14 129.11,-201.14 121.13,-201.14"/>
<polygon fill="black" stroke="black" points="146.63,-204.64 156.63,-201.14 146.63,-197.64 146.63,-204.64"/>
</g>
<!-- CitationTopic&#45;&gt;Source -->
<g id="edge10" class="edge">
<title>CitationTopic&#45;&gt;Source</title>
<path fill="none" stroke="black" stroke-dasharray="1,5" d="M241.7,-232.19C259.48,-266.26 291.46,-321.13 330.22,-359.14 335.56,-364.38 342.05,-369.14 348.4,-373.18"/>
<polygon fill="black" stroke="black" points="244.75,-230.47 237.07,-223.17 238.52,-233.66 244.75,-230.47"/>
</g>
<!-- CitationTopic&#45;&gt;PinboardItem -->
<g id="edge1" class="edge">
<title>CitationTopic&#45;&gt;PinboardItem</title>
<path fill="none" stroke="black" d="M245.78,-223.41C265.64,-245.61 298.14,-279.93 330.22,-305.14 331.42,-306.08 332.65,-307.02 333.91,-307.94"/>
<polygon fill="black" stroke="black" points="332.27,-311.07 342.49,-313.87 336.25,-305.31 332.27,-311.07"/>
</g>
<!-- CitationTopic&#45;&gt;Role -->
<g id="edge2" class="edge">
<title>CitationTopic&#45;&gt;Role</title>
<path fill="none" stroke="black" d="M263.52,-220.37C286.73,-232.43 316.48,-247.89 339.37,-259.78"/>
<polygon fill="black" stroke="black" points="337.92,-262.97 348.4,-264.47 341.14,-256.75 337.92,-262.97"/>
</g>
<!-- CitationTopic&#45;&gt;VerifierRole -->
<g id="edge3" class="edge">
<title>CitationTopic&#45;&gt;VerifierRole</title>
<path fill="none" stroke="black" d="M294.53,-211.7C304.48,-213.24 314.58,-214.81 324.1,-216.29"/>
<polygon fill="black" stroke="black" points="323.75,-219.77 334.16,-217.85 324.82,-212.86 323.75,-219.77"/>
</g>
<!-- CitationTopic&#45;&gt;Creator -->
<g id="edge6" class="edge">
<title>CitationTopic&#45;&gt;Creator</title>
<path fill="none" stroke="black" stroke-dasharray="5,2" d="M302.69,-188.18C339.01,-181.13 382.8,-171.33 421.22,-159.14 433.21,-155.34 446.04,-150.11 457.02,-145.27"/>
<polygon fill="black" stroke="black" points="301.82,-184.78 292.66,-190.1 303.14,-191.66 301.82,-184.78"/>
</g>
<!-- CitationTopic&#45;&gt;Project -->
<g id="edge7" class="edge">
<title>CitationTopic&#45;&gt;Project</title>
<path fill="none" stroke="black" stroke-dasharray="5,2" d="M275.59,-178.29C299.73,-167.05 327.88,-153.94 348,-144.58"/>
<polygon fill="black" stroke="black" points="273.81,-175.26 266.22,-182.65 276.76,-181.6 273.81,-175.26"/>
</g>
<!-- CitationTopic&#45;&gt;Topic -->
<g id="edge8" class="edge">
<title>CitationTopic&#45;&gt;Topic</title>
<path fill="none" stroke="black" stroke-dasharray="5,2" d="M255.3,-171.51C275.38,-151.62 303.29,-125.44 330.22,-105.14 335.85,-100.9 342.18,-96.73 348.26,-92.99"/>
<polygon fill="black" stroke="black" points="252.61,-169.25 248.01,-178.79 257.56,-174.2 252.61,-169.25"/>
</g>
<!-- CitationTopic&#45;&gt;Updater -->
<g id="edge9" class="edge">
<title>CitationTopic&#45;&gt;Updater</title>
<path fill="none" stroke="black" stroke-dasharray="5,2" d="M237.97,-169.32C252.93,-133.16 282.93,-75.93 330.22,-51.14 409.13,-9.77 513.17,-79.23 557.6,-114.06"/>
<polygon fill="black" stroke="black" points="234.59,-168.34 234.14,-178.92 241.1,-170.93 234.59,-168.34"/>
</g>
<!-- Role&#45;&gt;Verifier -->
<!-- VerifierRole&#45;&gt;Verifier -->
<g id="edge4" class="edge">
<title>VerifierRole&#45;&gt;Verifier</title>
<path fill="none" stroke="black" d="M417.24,-234.27C427.1,-236.74 437.6,-239.36 447.31,-241.79"/>
<polygon fill="black" stroke="black" points="446.54,-245.2 457.09,-244.23 448.23,-238.41 446.54,-245.2"/>
</g>
<!-- Creator&#45;&gt;Updater -->
<!-- Project&#45;&gt;Creator -->
<!-- Citation -->
<g id="node1" class="node">
<title>Citation</title>
<g id="a_node1"><a xlink:href="/develop/Data/models.html#citation" xlink:title="Citation" target="_top">
<ellipse fill="#abcdef" stroke="#dddeee" cx="81.78" cy="-201.14" rx="38.99" ry="18"/>
<text text-anchor="middle" x="81.78" y="-197.44" font-family="Times,serif" font-size="14.00">Citation</text>
</a>
</g>
</g>
<!-- Source -->
<g id="node2" class="node">
<title>Source</title>
<g id="a_node2"><a xlink:href="/develop/Data/models.html#source" xlink:title="Source" target="_top">
<path fill="#fedcba" stroke="#dddeee" d="M360.72,-369.14C360.72,-369.14 390.72,-369.14 390.72,-369.14 396.72,-369.14 402.72,-375.14 402.72,-381.14 402.72,-381.14 402.72,-393.14 402.72,-393.14 402.72,-399.14 396.72,-405.14 390.72,-405.14 390.72,-405.14 360.72,-405.14 360.72,-405.14 354.72,-405.14 348.72,-399.14 348.72,-393.14 348.72,-393.14 348.72,-381.14 348.72,-381.14 348.72,-375.14 354.72,-369.14 360.72,-369.14"/>
<text text-anchor="middle" x="375.72" y="-383.44" font-family="Times,serif" font-size="14.00">Source</text>
</a>
</g>
</g>
<!-- CitationTopic -->
<g id="node3" class="node">
<title>CitationTopic</title>
<g id="a_node3"><a xlink:href="/develop/Data/models.html#citation-topic" xlink:title="CitationTopic" target="_top">
<polygon fill="#cdefab" stroke="#dedede" points="290.43,-193.68 290.43,-208.6 252.39,-219.14 198.6,-219.14 160.57,-208.6 160.57,-193.68 198.6,-183.14 252.39,-183.14 290.43,-193.68"/>
<polygon fill="none" stroke="#dedede" points="294.44,-190.65 294.44,-211.64 252.94,-223.14 198.05,-223.14 156.55,-211.64 156.55,-190.65 198.05,-179.14 252.94,-179.14 294.44,-190.65"/>
<text text-anchor="middle" x="225.5" y="-197.44" font-family="Times,serif" font-size="14.00">CitationTopic</text>
</a>
</g>
</g>
<!-- PinboardItem -->
<g id="node4" class="node">
<title>PinboardItem</title>
<g id="a_node4"><a xlink:href="/develop/Data/models.html#pinboard-item" xlink:title="PinboardItem" target="_top">
<polygon fill="#eeefff" stroke="#dddeee" points="421.22,-350.14 330.22,-350.14 330.22,-314.14 421.22,-314.14 421.22,-350.14"/>
<text text-anchor="middle" x="375.72" y="-328.44" font-family="Times,serif" font-size="14.00">PinboardItem</text>
</a>
</g>
</g>
<!-- Role -->
<g id="node5" class="node">
<title>Role</title>
<g id="a_node5"><a xlink:href="/develop/Data/models.html#role" xlink:title="Role" target="_top">
<polygon fill="#eeefff" stroke="#dddeee" points="402.72,-296.14 348.72,-296.14 348.72,-260.14 402.72,-260.14 402.72,-296.14"/>
<text text-anchor="middle" x="375.72" y="-274.44" font-family="Times,serif" font-size="14.00">Role</text>
</a>
</g>
</g>
<!-- VerifierRole -->
<g id="node6" class="node">
<title>VerifierRole</title>
<g id="a_node6"><a xlink:href="/develop/Data/models.html#verifier-role" xlink:title="VerifierRole" target="_top">
<polygon fill="#eeefff" stroke="#dddeee" points="417.22,-242.14 334.22,-242.14 334.22,-206.14 417.22,-206.14 417.22,-242.14"/>
<text text-anchor="middle" x="375.72" y="-220.44" font-family="Times,serif" font-size="14.00">VerifierRole</text>
</a>
</g>
</g>
<!-- Verifier -->
<g id="node7" class="node">
<title>Verifier</title>
<g id="a_node7"><a xlink:href="/develop/Data/models.html#verifier" xlink:title="Verifier" target="_top">
<polygon fill="#eeefff" stroke="#dddeee" points="514.22,-269.14 457.22,-269.14 457.22,-233.14 514.22,-233.14 514.22,-269.14"/>
<text text-anchor="middle" x="485.72" y="-247.44" font-family="Times,serif" font-size="14.00">Verifier</text>
</a>
</g>
</g>
<!-- Creator -->
<g id="node8" class="node">
<title>Creator</title>
<g id="a_node8"><a xlink:href="/develop/Data/models.html#creator" xlink:title="Creator" target="_top">
<polygon fill="#eeefff" stroke="#dddeee" points="514.22,-150.14 457.22,-150.14 457.22,-114.14 514.22,-114.14 514.22,-150.14"/>
<text text-anchor="middle" x="485.72" y="-128.44" font-family="Times,serif" font-size="14.00">Creator</text>
</a>
</g>
</g>
<!-- Project -->
<g id="node9" class="node">
<title>Project</title>
<g id="a_node9"><a xlink:href="/develop/Data/models.html#project" xlink:title="Project" target="_top">
<polygon fill="#eeefff" stroke="#dddeee" points="403.22,-150.14 348.22,-150.14 348.22,-114.14 403.22,-114.14 403.22,-150.14"/>
<text text-anchor="middle" x="375.72" y="-128.44" font-family="Times,serif" font-size="14.00">Project</text>
</a>
</g>
</g>
<!-- Topic -->
<g id="node10" class="node">
<title>Topic</title>
<g id="a_node10"><a xlink:href="/develop/Data/models.html#topic" xlink:title="Topic" target="_top">
<polygon fill="#eeefff" stroke="#dddeee" points="402.72,-96.14 348.72,-96.14 348.72,-60.14 402.72,-60.14 402.72,-96.14"/>
<text text-anchor="middle" x="375.72" y="-74.44" font-family="Times,serif" font-size="14.00">Topic</text>
</a>
</g>
</g>
<!-- Updater -->
<g id="node11" class="node">
<title>Updater</title>
<g id="a_node11"><a xlink:href="/develop/Data/models.html#updater" xlink:title="Updater" target="_top">
<polygon fill="#eeefff" stroke="#dddeee" points="610.22,-150.14 550.22,-150.14 550.22,-114.14 610.22,-114.14 610.22,-150.14"/>
<text text-anchor="middle" x="580.22" y="-128.44" font-family="Times,serif" font-size="14.00">Updater</text>
</a>
</g>
</g>
</g>
</svg>
