<?xml version="1.0" encoding="UTF-8" standalone="no"?>
<!DOCTYPE svg PUBLIC "-//W3C//DTD SVG 1.1//EN"
 "http://www.w3.org/Graphics/SVG/1.1/DTD/svg11.dtd">
<!-- Generated by graphviz version 2.50.0 (20211204.2007)
 -->
<!-- Title: Citation Pages: 1 -->
<svg width="630pt" height="538pt"
 viewBox="0.00 0.00 630.00 537.50" xmlns="http://www.w3.org/2000/svg" xmlns:xlink="http://www.w3.org/1999/xlink">
<g id="graph0" class="graph" transform="scale(1 1) rotate(0) translate(4 533.5)">
<title>Citation</title>
<polygon fill="white" stroke="transparent" points="-4,4 -4,-533.5 626,-533.5 626,4 -4,4"/>
<text text-anchor="middle" x="311" y="-22.8" font-family="Times,serif" font-size="14.00">Algorithmically generated relationships for Citation based on assertions of &#39;has_many&#39;, &#39;has_one&#39;, &#39;belongs_to&#39;. </text>
<text text-anchor="middle" x="311" y="-7.8" font-family="Times,serif" font-size="14.00">Generated 2022&#45;01&#45;25 11:36:56 &#45;0600.</text>
<!-- Citation&#45;&gt;Tag -->
<g id="edge7" class="edge">
<title>Citation&#45;&gt;Tag</title>
<path fill="none" stroke="black" d="M61.34,-256.57C50.53,-250.4 39.97,-242.02 33.85,-231 26.09,-217.01 28.35,-210.03 33.85,-195 41.71,-173.51 58.63,-153.91 73.13,-140"/>
<polygon fill="black" stroke="black" points="75.88,-142.23 80.86,-132.88 71.13,-137.08 75.88,-142.23"/>
</g>
<!-- Citation&#45;&gt;Note -->
<g id="edge4" class="edge">
<title>Citation&#45;&gt;Note</title>
<path fill="none" stroke="black" d="M98.06,-248.88C98.06,-246.38 98.06,-243.89 98.06,-241.39"/>
<polygon fill="black" stroke="black" points="101.56,-241.12 98.06,-231.12 94.56,-241.13 101.56,-241.12"/>
</g>
<!-- Citation&#45;&gt;Source -->
<g id="edge14" class="edge">
<title>Citation&#45;&gt;Source</title>
<path fill="none" stroke="black" stroke-dasharray="5,2" d="M102.38,-303.39C108.9,-349.94 127.68,-435.39 180.27,-483 201.21,-501.95 233.75,-508.25 256.56,-510.25"/>
<polygon fill="black" stroke="black" points="105.82,-302.72 101.07,-293.25 98.88,-303.62 105.82,-302.72"/>
</g>
<!-- Citation&#45;&gt;CitationTopic -->
<g id="edge1" class="edge">
<title>Citation&#45;&gt;CitationTopic</title>
<path fill="none" stroke="black" d="M104.22,-293.03C113.43,-327.39 136.03,-393.46 180.27,-429 193.7,-439.79 211.02,-446.3 227.59,-450.22"/>
<polygon fill="black" stroke="black" points="227.26,-453.72 237.77,-452.34 228.69,-446.87 227.26,-453.72"/>
</g>
<!-- Citation&#45;&gt;PinboardItem -->
<g id="edge5" class="edge">
<title>Citation&#45;&gt;PinboardItem</title>
<path fill="none" stroke="black" d="M110.59,-293.2C124.1,-317.01 148.71,-354.2 180.27,-375 194.53,-384.4 211.92,-390.53 228.3,-394.53"/>
<polygon fill="black" stroke="black" points="227.81,-398 238.34,-396.75 229.33,-391.17 227.81,-398"/>
</g>
<!-- Citation&#45;&gt;Role -->
<g id="edge6" class="edge">
<title>Citation&#45;&gt;Role</title>
<path fill="none" stroke="black" d="M124.69,-289.5C140.17,-299.96 160.64,-312.59 180.27,-321 201.46,-330.07 226.45,-336.73 246.46,-341.16"/>
<polygon fill="black" stroke="black" points="245.91,-344.62 256.42,-343.28 247.37,-337.78 245.91,-344.62"/>
</g>
<!-- Citation&#45;&gt;VerifierRole -->
<g id="edge9" class="edge">
<title>Citation&#45;&gt;VerifierRole</title>
<path fill="none" stroke="black" d="M144.49,-276.69C171.07,-280.01 204.68,-284.22 232.13,-287.65"/>
<polygon fill="black" stroke="black" points="231.96,-291.16 242.31,-288.93 232.82,-284.21 231.96,-291.16"/>
</g>
<!-- Citation&#45;&gt;Creator -->
<g id="edge12" class="edge">
<title>Citation&#45;&gt;Creator</title>
<path fill="none" stroke="black" stroke-dasharray="5,2" d="M154.76,-266.45C213.35,-260.84 307.91,-249.44 387.41,-229 402.4,-225.14 418.59,-219.24 431.81,-213.93"/>
<polygon fill="black" stroke="black" points="154.24,-262.99 144.6,-267.4 154.89,-269.96 154.24,-262.99"/>
</g>
<!-- Citation&#45;&gt;Project -->
<g id="edge13" class="edge">
<title>Citation&#45;&gt;Project</title>
<path fill="none" stroke="black" stroke-dasharray="5,2" d="M140.77,-250.79C153.33,-245.03 167.24,-238.98 180.27,-234 205.54,-224.35 235.09,-215.36 255.96,-209.39"/>
<polygon fill="black" stroke="black" points="139.06,-247.73 131.46,-255.11 142.01,-254.07 139.06,-247.73"/>
</g>
<!-- Citation&#45;&gt;Updater -->
<g id="edge15" class="edge">
<title>Citation&#45;&gt;Updater</title>
<path fill="none" stroke="black" stroke-dasharray="5,2" d="M136.48,-247.5C139.26,-245.12 141.89,-242.61 144.27,-240 166.48,-215.56 151.82,-191.77 180.27,-175 240.99,-139.22 428.29,-161.22 497.41,-175 509.51,-177.41 522.18,-182.13 533.09,-186.95"/>
<polygon fill="black" stroke="black" points="134.12,-244.91 128.41,-253.84 138.44,-250.41 134.12,-244.91"/>
</g>
<!-- Citation&#45;&gt;Objects with Citations -->
<g id="edge11" class="edge">
<title>Citation&#45;&gt;Objects with Citations</title>
<path fill="none" stroke="black" stroke-dasharray="5,2" d="M137.4,-247.46C139.9,-245.12 142.23,-242.63 144.27,-240 172.75,-203.37 146.66,-173.99 180.27,-142 189.73,-133 201.69,-126.53 214.06,-121.88"/>
<polygon fill="black" stroke="black" points="134.96,-244.93 129.5,-254.01 139.43,-250.32 134.96,-244.93"/>
</g>
<!-- Tag&#45;&gt;Keyword -->
<g id="edge3" class="edge">
<title>Tag&#45;&gt;Keyword</title>
<path fill="none" stroke="black" d="M120.4,-108.42C136.56,-100.68 159.46,-90.3 180.27,-83 199.62,-76.21 221.55,-70.22 240.15,-65.62"/>
<polygon fill="black" stroke="black" points="241.21,-68.96 250.1,-63.21 239.56,-62.16 241.21,-68.96"/>
</g>
<!-- Source&#45;&gt;Document -->
<g id="edge2" class="edge">
<title>Source&#45;&gt;Document</title>
<path fill="none" stroke="black" d="M310.97,-511C337.92,-511 380.5,-511 413.16,-511"/>
<polygon fill="black" stroke="black" points="413.38,-514.5 423.38,-511 413.38,-507.5 413.38,-514.5"/>
</g>
<!-- CitationTopic&#45;&gt;Topic -->
<g id="edge8" class="edge">
<title>CitationTopic&#45;&gt;Topic</title>
<path fill="none" stroke="black" d="M330.25,-456C359.14,-456 396.06,-456 423.02,-456"/>
<polygon fill="black" stroke="black" points="423.19,-459.5 433.19,-456 423.19,-452.5 423.19,-459.5"/>
</g>
<!-- Role&#45;&gt;Verifier -->
<!-- VerifierRole&#45;&gt;Verifier -->
<g id="edge10" class="edge">
<title>VerifierRole&#45;&gt;Verifier</title>
<path fill="none" stroke="black" d="M325.77,-300.33C354.85,-304.83 393.6,-310.82 421.88,-315.2"/>
<polygon fill="black" stroke="black" points="421.37,-318.66 431.79,-316.73 422.44,-311.74 421.37,-318.66"/>
</g>
<!-- Creator&#45;&gt;Updater -->
<!-- Project&#45;&gt;Creator -->
<!-- Citation -->
<g id="node1" class="node">
<title>Citation</title>
<g id="a_node1"><a xlink:href="/develop/Data/models.html#citation" xlink:title="Citation" target="_top">
<polygon fill="#cdefab" stroke="#dedede" points="140.46,-263.54 140.46,-278.46 115.62,-289 80.5,-289 55.66,-278.46 55.66,-263.54 80.5,-253 115.62,-253 140.46,-263.54"/>
<polygon fill="none" stroke="#dedede" points="144.48,-260.9 144.48,-281.1 116.45,-293 79.68,-293 51.64,-281.1 51.64,-260.9 79.68,-249 116.45,-249 144.48,-260.9"/>
<text text-anchor="middle" x="98.06" y="-267.3" font-family="Times,serif" font-size="14.00">Citation</text>
</a>
</g>
</g>
<!-- Tag -->
<g id="node2" class="node">
<title>Tag</title>
<g id="a_node2"><a xlink:href="/develop/Data/models.html#tag" xlink:title="Tag" target="_top">
<ellipse fill="#abcdef" stroke="#dddeee" cx="98.06" cy="-119" rx="27" ry="18"/>
<text text-anchor="middle" x="98.06" y="-115.3" font-family="Times,serif" font-size="14.00">Tag</text>
</a>
</g>
</g>
<!-- Note -->
<g id="node3" class="node">
<title>Note</title>
<g id="a_node3"><a xlink:href="/develop/Data/models.html#note" xlink:title="Note" target="_top">
<ellipse fill="#abcdef" stroke="#dddeee" cx="98.06" cy="-213" rx="27.9" ry="18"/>
<text text-anchor="middle" x="98.06" y="-209.3" font-family="Times,serif" font-size="14.00">Note</text>
</a>
</g>
</g>
<!-- Source -->
<g id="node4" class="node">
<title>Source</title>
<g id="a_node4"><a xlink:href="/develop/Data/models.html#source" xlink:title="Source" target="_top">
<path fill="#fedcba" stroke="#dddeee" d="M268.84,-493C268.84,-493 298.84,-493 298.84,-493 304.84,-493 310.84,-499 310.84,-505 310.84,-505 310.84,-517 310.84,-517 310.84,-523 304.84,-529 298.84,-529 298.84,-529 268.84,-529 268.84,-529 262.84,-529 256.84,-523 256.84,-517 256.84,-517 256.84,-505 256.84,-505 256.84,-499 262.84,-493 268.84,-493"/>
<text text-anchor="middle" x="283.84" y="-507.3" font-family="Times,serif" font-size="14.00">Source</text>
</a>
</g>
</g>
<!-- CitationTopic -->
<g id="node5" class="node">
<title>CitationTopic</title>
<g id="a_node5"><a xlink:href="/develop/Data/models.html#citation-topic" xlink:title="CitationTopic" target="_top">
<polygon fill="#eeefff" stroke="#dddeee" points="329.84,-474 237.84,-474 237.84,-438 329.84,-438 329.84,-474"/>
<text text-anchor="middle" x="283.84" y="-452.3" font-family="Times,serif" font-size="14.00">CitationTopic</text>
</a>
</g>
</g>
<!-- Document -->
<g id="node6" class="node">
<title>Document</title>
<g id="a_node6"><a xlink:href="/develop/Data/models.html#document" xlink:title="Document" target="_top">
<polygon fill="#eeefff" stroke="#dddeee" points="497.41,-529 423.41,-529 423.41,-493 497.41,-493 497.41,-529"/>
<text text-anchor="middle" x="460.41" y="-507.3" font-family="Times,serif" font-size="14.00">Document</text>
</a>
</g>
</g>
<!-- Keyword -->
<g id="node7" class="node">
<title>Keyword</title>
<g id="a_node7"><a xlink:href="/develop/Data/models.html#keyword" xlink:title="Keyword" target="_top">
<polygon fill="#eeefff" stroke="#dddeee" points="317.34,-74 250.34,-74 250.34,-38 317.34,-38 317.34,-74"/>
<text text-anchor="middle" x="283.84" y="-52.3" font-family="Times,serif" font-size="14.00">Keyword</text>
</a>
</g>
</g>
<!-- PinboardItem -->
<g id="node8" class="node">
<title>PinboardItem</title>
<g id="a_node8"><a xlink:href="/develop/Data/models.html#pinboard-item" xlink:title="PinboardItem" target="_top">
<polygon fill="#eeefff" stroke="#dddeee" points="329.34,-420 238.34,-420 238.34,-384 329.34,-384 329.34,-420"/>
<text text-anchor="middle" x="283.84" y="-398.3" font-family="Times,serif" font-size="14.00">PinboardItem</text>
</a>
</g>
</g>
<!-- Role -->
<g id="node9" class="node">
<title>Role</title>
<g id="a_node9"><a xlink:href="/develop/Data/models.html#role" xlink:title="Role" target="_top">
<polygon fill="#eeefff" stroke="#dddeee" points="310.84,-366 256.84,-366 256.84,-330 310.84,-330 310.84,-366"/>
<text text-anchor="middle" x="283.84" y="-344.3" font-family="Times,serif" font-size="14.00">Role</text>
</a>
</g>
</g>
<!-- Topic -->
<g id="node10" class="node">
<title>Topic</title>
<g id="a_node10"><a xlink:href="/develop/Data/models.html#topic" xlink:title="Topic" target="_top">
<polygon fill="#eeefff" stroke="#dddeee" points="487.41,-474 433.41,-474 433.41,-438 487.41,-438 487.41,-474"/>
<text text-anchor="middle" x="460.41" y="-452.3" font-family="Times,serif" font-size="14.00">Topic</text>
</a>
</g>
</g>
<!-- VerifierRole -->
<g id="node11" class="node">
<title>VerifierRole</title>
<g id="a_node11"><a xlink:href="/develop/Data/models.html#verifier-role" xlink:title="VerifierRole" target="_top">
<polygon fill="#eeefff" stroke="#dddeee" points="325.34,-312 242.34,-312 242.34,-276 325.34,-276 325.34,-312"/>
<text text-anchor="middle" x="283.84" y="-290.3" font-family="Times,serif" font-size="14.00">VerifierRole</text>
</a>
</g>
</g>
<!-- Verifier -->
<g id="node12" class="node">
<title>Verifier</title>
<g id="a_node12"><a xlink:href="/develop/Data/models.html#verifier" xlink:title="Verifier" target="_top">
<polygon fill="#eeefff" stroke="#dddeee" points="488.91,-339 431.91,-339 431.91,-303 488.91,-303 488.91,-339"/>
<text text-anchor="middle" x="460.41" y="-317.3" font-family="Times,serif" font-size="14.00">Verifier</text>
</a>
</g>
</g>
<!-- Creator -->
<g id="node13" class="node">
<title>Creator</title>
<g id="a_node13"><a xlink:href="/develop/Data/models.html#creator" xlink:title="Creator" target="_top">
<polygon fill="#eeefff" stroke="#dddeee" points="488.91,-220 431.91,-220 431.91,-184 488.91,-184 488.91,-220"/>
<text text-anchor="middle" x="460.41" y="-198.3" font-family="Times,serif" font-size="14.00">Creator</text>
</a>
</g>
</g>
<!-- Project -->
<g id="node14" class="node">
<title>Project</title>
<g id="a_node14"><a xlink:href="/develop/Data/models.html#project" xlink:title="Project" target="_top">
<polygon fill="#eeefff" stroke="#dddeee" points="311.34,-220 256.34,-220 256.34,-184 311.34,-184 311.34,-220"/>
<text text-anchor="middle" x="283.84" y="-198.3" font-family="Times,serif" font-size="14.00">Project</text>
</a>
</g>
</g>
<!-- Updater -->
<g id="node15" class="node">
<title>Updater</title>
<g id="a_node15"><a xlink:href="/develop/Data/models.html#updater" xlink:title="Updater" target="_top">
<polygon fill="#eeefff" stroke="#dddeee" points="593.41,-220 533.41,-220 533.41,-184 593.41,-184 593.41,-220"/>
<text text-anchor="middle" x="563.41" y="-198.3" font-family="Times,serif" font-size="14.00">Updater</text>
</a>
</g>
</g>
<!-- Objects with Citations -->
<g id="node16" class="node">
<title>Objects with Citations</title>
<g id="a_node16"><a xlink:href="/develop/Data/models.html#objects with citation" xlink:title="Objects with Citations" target="_top">
<polygon fill="#cdabef" stroke="#dedede" points="387.47,-110 335.66,-128 232.02,-128 180.2,-110 232.02,-92 335.66,-92 387.47,-110"/>
<text text-anchor="middle" x="283.84" y="-106.3" font-family="Times,serif" font-size="14.00">Objects with Citations</text>
</a>
</g>
</g>
</g>
</svg>
