<?xml version="1.0" encoding="UTF-8" standalone="no"?>
<!DOCTYPE svg PUBLIC "-//W3C//DTD SVG 1.1//EN"
 "http://www.w3.org/Graphics/SVG/1.1/DTD/svg11.dtd">
<!-- Generated by graphviz version 2.50.0 (20211204.2007)
 -->
<!-- Title: CitationTopic Pages: 1 -->
<svg width="575pt" height="376pt"
 viewBox="0.00 0.00 575.44 375.64" xmlns="http://www.w3.org/2000/svg" xmlns:xlink="http://www.w3.org/1999/xlink">
<g id="graph0" class="graph" transform="scale(1 1) rotate(0) translate(4 371.64)">
<title>CitationTopic</title>
<polygon fill="white" stroke="transparent" points="-4,4 -4,-371.64 571.44,-371.64 571.44,4 -4,4"/>
<!-- CitationTopic&#45;&gt;Citation -->
<g id="edge5" class="edge">
<title>CitationTopic&#45;&gt;Citation</title>
<path fill="none" stroke="black" stroke-dasharray="5,2" d="M103.84,-163.14C95.01,-163.14 86.33,-163.14 78.35,-163.14"/>
<polygon fill="black" stroke="black" points="103.84,-166.64 113.84,-163.14 103.84,-159.64 103.84,-166.64"/>
</g>
<!-- CitationTopic&#45;&gt;Source -->
<g id="edge10" class="edge">
<title>CitationTopic&#45;&gt;Source</title>
<path fill="none" stroke="black" stroke-dasharray="1,5" d="M198.92,-194.19C216.7,-228.26 248.68,-283.13 287.44,-321.14 292.78,-326.38 299.26,-331.14 305.61,-335.18"/>
<polygon fill="black" stroke="black" points="201.97,-192.47 194.29,-185.17 195.74,-195.66 201.97,-192.47"/>
</g>
<!-- CitationTopic&#45;&gt;PinboardItem -->
<g id="edge1" class="edge">
<title>CitationTopic&#45;&gt;PinboardItem</title>
<path fill="none" stroke="black" d="M203,-185.41C222.86,-207.61 255.36,-241.93 287.44,-267.14 288.63,-268.08 289.87,-269.02 291.13,-269.94"/>
<polygon fill="black" stroke="black" points="289.49,-273.07 299.71,-275.87 293.47,-267.31 289.49,-273.07"/>
</g>
<!-- CitationTopic&#45;&gt;Role -->
<g id="edge2" class="edge">
<title>CitationTopic&#45;&gt;Role</title>
<path fill="none" stroke="black" d="M220.73,-182.37C243.95,-194.43 273.7,-209.89 296.59,-221.78"/>
<polygon fill="black" stroke="black" points="295.13,-224.97 305.62,-226.47 298.36,-218.75 295.13,-224.97"/>
</g>
<!-- CitationTopic&#45;&gt;VerifierRole -->
<g id="edge3" class="edge">
<title>CitationTopic&#45;&gt;VerifierRole</title>
<path fill="none" stroke="black" d="M251.75,-173.7C261.7,-175.24 271.79,-176.81 281.31,-178.29"/>
<polygon fill="black" stroke="black" points="280.96,-181.77 291.38,-179.85 282.04,-174.86 280.96,-181.77"/>
</g>
<!-- CitationTopic&#45;&gt;Creator -->
<g id="edge6" class="edge">
<title>CitationTopic&#45;&gt;Creator</title>
<path fill="none" stroke="black" stroke-dasharray="5,2" d="M259.91,-150.18C296.22,-143.13 340.02,-133.33 378.44,-121.14 390.43,-117.34 403.26,-112.11 414.23,-107.27"/>
<polygon fill="black" stroke="black" points="259.04,-146.78 249.88,-152.1 260.36,-153.66 259.04,-146.78"/>
</g>
<!-- CitationTopic&#45;&gt;Project -->
<g id="edge7" class="edge">
<title>CitationTopic&#45;&gt;Project</title>
<path fill="none" stroke="black" stroke-dasharray="5,2" d="M232.81,-140.29C256.95,-129.05 285.1,-115.94 305.22,-106.58"/>
<polygon fill="black" stroke="black" points="231.02,-137.26 223.43,-144.65 233.98,-143.6 231.02,-137.26"/>
</g>
<!-- CitationTopic&#45;&gt;Topic -->
<g id="edge8" class="edge">
<title>CitationTopic&#45;&gt;Topic</title>
<path fill="none" stroke="black" stroke-dasharray="5,2" d="M212.52,-133.51C232.6,-113.62 260.51,-87.44 287.44,-67.14 293.06,-62.9 299.39,-58.73 305.47,-54.99"/>
<polygon fill="black" stroke="black" points="209.83,-131.25 205.23,-140.79 214.78,-136.2 209.83,-131.25"/>
</g>
<!-- CitationTopic&#45;&gt;Updater -->
<g id="edge9" class="edge">
<title>CitationTopic&#45;&gt;Updater</title>
<path fill="none" stroke="black" stroke-dasharray="5,2" d="M195.18,-131.32C210.15,-95.16 240.15,-37.93 287.44,-13.14 366.35,28.23 470.38,-41.23 514.82,-76.06"/>
<polygon fill="black" stroke="black" points="191.81,-130.34 191.36,-140.92 198.31,-132.93 191.81,-130.34"/>
</g>
<!-- Role&#45;&gt;Verifier -->
<!-- VerifierRole&#45;&gt;Verifier -->
<g id="edge4" class="edge">
<title>VerifierRole&#45;&gt;Verifier</title>
<path fill="none" stroke="black" d="M374.46,-196.27C384.32,-198.74 394.82,-201.36 404.53,-203.79"/>
<polygon fill="black" stroke="black" points="403.75,-207.2 414.3,-206.23 405.45,-200.41 403.75,-207.2"/>
</g>
<!-- Creator&#45;&gt;Updater -->
<!-- Project&#45;&gt;Creator -->
<!-- Citation -->
<g id="node1" class="node">
<title>Citation</title>
<g id="a_node1"><a xlink:href="/develop/Data/models.html#citation" xlink:title="Citation" target="_top">
<ellipse fill="#abcdef" stroke="#dddeee" cx="39" cy="-163.14" rx="38.99" ry="18"/>
<text text-anchor="middle" x="39" y="-159.44" font-family="Times,serif" font-size="14.00">Citation</text>
</a>
</g>
</g>
<!-- Source -->
<g id="node2" class="node">
<title>Source</title>
<g id="a_node2"><a xlink:href="/develop/Data/models.html#source" xlink:title="Source" target="_top">
<path fill="#fedcba" stroke="#dddeee" d="M317.94,-331.14C317.94,-331.14 347.94,-331.14 347.94,-331.14 353.94,-331.14 359.94,-337.14 359.94,-343.14 359.94,-343.14 359.94,-355.14 359.94,-355.14 359.94,-361.14 353.94,-367.14 347.94,-367.14 347.94,-367.14 317.94,-367.14 317.94,-367.14 311.94,-367.14 305.94,-361.14 305.94,-355.14 305.94,-355.14 305.94,-343.14 305.94,-343.14 305.94,-337.14 311.94,-331.14 317.94,-331.14"/>
<text text-anchor="middle" x="332.94" y="-345.44" font-family="Times,serif" font-size="14.00">Source</text>
</a>
</g>
</g>
<!-- CitationTopic -->
<g id="node3" class="node">
<title>CitationTopic</title>
<g id="a_node3"><a xlink:href="/develop/Data/models.html#citation-topic" xlink:title="CitationTopic" target="_top">
<polygon fill="#cdefab" stroke="#dedede" points="247.64,-155.68 247.64,-170.6 209.61,-181.14 155.82,-181.14 117.78,-170.6 117.78,-155.68 155.82,-145.14 209.61,-145.14 247.64,-155.68"/>
<polygon fill="none" stroke="#dedede" points="251.66,-152.65 251.66,-173.64 210.16,-185.14 155.27,-185.14 113.77,-173.64 113.77,-152.65 155.27,-141.14 210.16,-141.14 251.66,-152.65"/>
<text text-anchor="middle" x="182.71" y="-159.44" font-family="Times,serif" font-size="14.00">CitationTopic</text>
</a>
</g>
</g>
<!-- PinboardItem -->
<g id="node4" class="node">
<title>PinboardItem</title>
<g id="a_node4"><a xlink:href="/develop/Data/models.html#pinboard-item" xlink:title="PinboardItem" target="_top">
<polygon fill="#eeefff" stroke="#dddeee" points="378.44,-312.14 287.44,-312.14 287.44,-276.14 378.44,-276.14 378.44,-312.14"/>
<text text-anchor="middle" x="332.94" y="-290.44" font-family="Times,serif" font-size="14.00">PinboardItem</text>
</a>
</g>
</g>
<!-- Role -->
<g id="node5" class="node">
<title>Role</title>
<g id="a_node5"><a xlink:href="/develop/Data/models.html#role" xlink:title="Role" target="_top">
<polygon fill="#eeefff" stroke="#dddeee" points="359.94,-258.14 305.94,-258.14 305.94,-222.14 359.94,-222.14 359.94,-258.14"/>
<text text-anchor="middle" x="332.94" y="-236.44" font-family="Times,serif" font-size="14.00">Role</text>
</a>
</g>
</g>
<!-- VerifierRole -->
<g id="node6" class="node">
<title>VerifierRole</title>
<g id="a_node6"><a xlink:href="/develop/Data/models.html#verifier-role" xlink:title="VerifierRole" target="_top">
<polygon fill="#eeefff" stroke="#dddeee" points="374.44,-204.14 291.44,-204.14 291.44,-168.14 374.44,-168.14 374.44,-204.14"/>
<text text-anchor="middle" x="332.94" y="-182.44" font-family="Times,serif" font-size="14.00">VerifierRole</text>
</a>
</g>
</g>
<!-- Verifier -->
<g id="node7" class="node">
<title>Verifier</title>
<g id="a_node7"><a xlink:href="/develop/Data/models.html#verifier" xlink:title="Verifier" target="_top">
<polygon fill="#eeefff" stroke="#dddeee" points="471.44,-231.14 414.44,-231.14 414.44,-195.14 471.44,-195.14 471.44,-231.14"/>
<text text-anchor="middle" x="442.94" y="-209.44" font-family="Times,serif" font-size="14.00">Verifier</text>
</a>
</g>
</g>
<!-- Creator -->
<g id="node8" class="node">
<title>Creator</title>
<g id="a_node8"><a xlink:href="/develop/Data/models.html#creator" xlink:title="Creator" target="_top">
<polygon fill="#eeefff" stroke="#dddeee" points="471.44,-112.14 414.44,-112.14 414.44,-76.14 471.44,-76.14 471.44,-112.14"/>
<text text-anchor="middle" x="442.94" y="-90.44" font-family="Times,serif" font-size="14.00">Creator</text>
</a>
</g>
</g>
<!-- Project -->
<g id="node9" class="node">
<title>Project</title>
<g id="a_node9"><a xlink:href="/develop/Data/models.html#project" xlink:title="Project" target="_top">
<polygon fill="#eeefff" stroke="#dddeee" points="360.44,-112.14 305.44,-112.14 305.44,-76.14 360.44,-76.14 360.44,-112.14"/>
<text text-anchor="middle" x="332.94" y="-90.44" font-family="Times,serif" font-size="14.00">Project</text>
</a>
</g>
</g>
<!-- Topic -->
<g id="node10" class="node">
<title>Topic</title>
<g id="a_node10"><a xlink:href="/develop/Data/models.html#topic" xlink:title="Topic" target="_top">
<polygon fill="#eeefff" stroke="#dddeee" points="359.94,-58.14 305.94,-58.14 305.94,-22.14 359.94,-22.14 359.94,-58.14"/>
<text text-anchor="middle" x="332.94" y="-36.44" font-family="Times,serif" font-size="14.00">Topic</text>
</a>
</g>
</g>
<!-- Updater -->
<g id="node11" class="node">
<title>Updater</title>
<g id="a_node11"><a xlink:href="/develop/Data/models.html#updater" xlink:title="Updater" target="_top">
<polygon fill="#eeefff" stroke="#dddeee" points="567.44,-112.14 507.44,-112.14 507.44,-76.14 567.44,-76.14 567.44,-112.14"/>
<text text-anchor="middle" x="537.44" y="-90.44" font-family="Times,serif" font-size="14.00">Updater</text>
</a>
</g>
</g>
</g>
</svg>
