<?xml version="1.0" encoding="UTF-8" standalone="no"?>
<!DOCTYPE svg PUBLIC "-//W3C//DTD SVG 1.1//EN"
 "http://www.w3.org/Graphics/SVG/1.1/DTD/svg11.dtd">
<!-- Generated by graphviz version 12.2.1 (20241206.2353)
 -->
<!-- Title: Citation Pages: 1 -->
<svg width="584pt" height="500pt"
 viewBox="0.00 0.00 584.42 499.50" xmlns="http://www.w3.org/2000/svg" xmlns:xlink="http://www.w3.org/1999/xlink">
<g id="graph0" class="graph" transform="scale(1 1) rotate(0) translate(4 495.5)">
<title>Citation</title>
<polygon fill="white" stroke="none" points="-4,4 -4,-495.5 580.42,-495.5 580.42,4 -4,4"/>
<!-- Citation&#45;&gt;Tag -->
<g id="edge7" class="edge">
<title>Citation&#45;&gt;Tag</title>
<path fill="none" stroke="black" d="M33.23,-218.59C22.26,-212.45 11.57,-204.09 5.32,-193 -2.53,-179.06 -0.27,-171.99 5.32,-157 13.34,-135.52 30.47,-116.09 45.27,-102.25"/>
<polygon fill="black" stroke="black" points="47.37,-105.07 52.49,-95.79 42.7,-99.85 47.37,-105.07"/>
</g>
<!-- Citation&#45;&gt;Note -->
<g id="edge4" class="edge">
<title>Citation&#45;&gt;Note</title>
<path fill="none" stroke="black" d="M71.27,-210.57C71.27,-208.57 71.27,-206.57 71.27,-204.57"/>
<polygon fill="black" stroke="black" points="74.77,-204.64 71.27,-194.64 67.77,-204.64 74.77,-204.64"/>
</g>
<!-- Citation&#45;&gt;Source -->
<g id="edge14" class="edge">
<title>Citation&#45;&gt;Source</title>
<path fill="none" stroke="black" stroke-dasharray="5,2" d="M75.98,-266.67C82.97,-313.59 102.5,-398.15 155.22,-445 177.68,-464.96 212.63,-470.99 236.51,-472.66"/>
<polygon fill="black" stroke="black" points="79.46,-266.25 74.63,-256.82 72.52,-267.2 79.46,-266.25"/>
</g>
<!-- Citation&#45;&gt;CitationTopic -->
<g id="edge1" class="edge">
<title>Citation&#45;&gt;CitationTopic</title>
<path fill="none" stroke="black" d="M77.72,-255.38C87.3,-289.9 110.55,-355.84 155.22,-391 169.78,-402.46 188.61,-409.12 206.41,-412.97"/>
<polygon fill="black" stroke="black" points="205.66,-416.39 216.13,-414.79 206.95,-409.51 205.66,-416.39"/>
</g>
<!-- Citation&#45;&gt;PinboardItem -->
<g id="edge5" class="edge">
<title>Citation&#45;&gt;PinboardItem</title>
<path fill="none" stroke="black" d="M84.12,-255.26C97.98,-279.13 123.18,-316.37 155.22,-337 170.67,-346.95 189.55,-353.23 207.15,-357.2"/>
<polygon fill="black" stroke="black" points="206.21,-360.58 216.7,-359.13 207.6,-353.72 206.21,-360.58"/>
</g>
<!-- Citation&#45;&gt;Role -->
<g id="edge6" class="edge">
<title>Citation&#45;&gt;Role</title>
<path fill="none" stroke="black" d="M98.84,-251.8C114.61,-262.23 135.35,-274.73 155.22,-283 177.68,-292.35 204.17,-299.05 225.21,-303.44"/>
<polygon fill="black" stroke="black" points="224.31,-306.83 234.8,-305.35 225.68,-299.96 224.31,-306.83"/>
</g>
<!-- Citation&#45;&gt;VerifierRole -->
<g id="edge9" class="edge">
<title>Citation&#45;&gt;VerifierRole</title>
<path fill="none" stroke="black" d="M119.31,-238.69C146.98,-242.03 182.01,-246.26 210.5,-249.71"/>
<polygon fill="black" stroke="black" points="210.02,-253.17 220.37,-250.9 210.86,-246.23 210.02,-253.17"/>
</g>
<!-- Citation&#45;&gt;Creator -->
<g id="edge12" class="edge">
<title>Citation&#45;&gt;Creator</title>
<path fill="none" stroke="black" stroke-dasharray="5,2" d="M130.92,-228.65C191.88,-223.23 289.68,-212.01 371.92,-191 386.7,-187.22 402.63,-181.39 415.69,-176.11"/>
<polygon fill="black" stroke="black" points="130.78,-225.15 121.12,-229.5 131.38,-232.12 130.78,-225.15"/>
</g>
<!-- Citation&#45;&gt;Project -->
<g id="edge13" class="edge">
<title>Citation&#45;&gt;Project</title>
<path fill="none" stroke="black" stroke-dasharray="5,2" d="M115.96,-212.24C128.5,-206.63 142.28,-200.79 155.22,-196 182.39,-185.94 214.3,-176.75 236.23,-170.82"/>
<polygon fill="black" stroke="black" points="114.8,-208.92 107.14,-216.24 117.69,-215.3 114.8,-208.92"/>
</g>
<!-- Citation&#45;&gt;Updater -->
<g id="edge15" class="edge">
<title>Citation&#45;&gt;Updater</title>
<path fill="none" stroke="black" stroke-dasharray="5,2" d="M111.67,-209.17C114.35,-206.9 116.91,-204.5 119.22,-202 141.65,-177.76 126.77,-153.77 155.22,-137 217.58,-100.26 409.95,-122.8 480.92,-137 492.98,-139.41 505.6,-144.13 516.47,-148.95"/>
<polygon fill="black" stroke="black" points="109.78,-206.2 103.97,-215.06 114.04,-211.76 109.78,-206.2"/>
</g>
<!-- Citation&#45;&gt;Objects with Citations -->
<g id="edge11" class="edge">
<title>Citation&#45;&gt;Objects with Citations</title>
<path fill="none" stroke="black" stroke-dasharray="5,2" d="M112.57,-209.13C114.98,-206.89 117.23,-204.51 119.22,-202 148.02,-165.62 121.4,-135.77 155.22,-104 164.86,-94.95 176.95,-88.44 189.51,-83.78"/>
<polygon fill="black" stroke="black" points="110.62,-206.2 105.06,-215.22 115.03,-211.63 110.62,-206.2"/>
</g>
<!-- Tag&#45;&gt;Keyword -->
<g id="edge3" class="edge">
<title>Tag&#45;&gt;Keyword</title>
<path fill="none" stroke="black" stroke-dasharray="1,5" d="M93.72,-70.54C110.25,-62.76 133.82,-52.28 155.22,-45 175.9,-37.96 199.39,-31.85 219.11,-27.23"/>
<polygon fill="black" stroke="black" points="219.79,-30.67 228.76,-25.02 218.23,-23.84 219.79,-30.67"/>
</g>
<!-- Source&#45;&gt;Document -->
<g id="edge2" class="edge">
<title>Source&#45;&gt;Document</title>
<path fill="none" stroke="black" stroke-dasharray="1,5" d="M290.96,-473C318.6,-473 362.59,-473 396.22,-473"/>
<polygon fill="black" stroke="black" points="396.13,-476.5 406.13,-473 396.13,-469.5 396.13,-476.5"/>
</g>
<!-- CitationTopic&#45;&gt;Topic -->
<g id="edge8" class="edge">
<title>CitationTopic&#45;&gt;Topic</title>
<path fill="none" stroke="black" stroke-dasharray="1,5" d="M309.24,-418C338.93,-418 377.5,-418 405.66,-418"/>
<polygon fill="black" stroke="black" points="405.52,-421.5 415.52,-418 405.52,-414.5 405.52,-421.5"/>
</g>
<!-- Role&#45;&gt;Verifier -->
<!-- VerifierRole&#45;&gt;Verifier -->
<g id="edge10" class="edge">
<title>VerifierRole&#45;&gt;Verifier</title>
<path fill="none" stroke="black" stroke-dasharray="1,5" d="M305.15,-262.13C334.9,-266.62 375.06,-272.68 404.43,-277.11"/>
<polygon fill="black" stroke="black" points="403.6,-280.53 414.01,-278.56 404.64,-273.61 403.6,-280.53"/>
</g>
<!-- Creator&#45;&gt;Updater -->
<!-- Project&#45;&gt;Creator -->
<!-- Citation -->
<g id="node1" class="node">
<title>Citation</title>
<g id="a_node1"><a xlink:href="/develop/Data/models.html#citation" xlink:title="Citation" target="_top">
<polygon fill="#cdefab" stroke="#dedede" points="115.22,-225.54 115.22,-240.46 89.48,-251 53.07,-251 27.32,-240.46 27.32,-225.54 53.07,-215 89.48,-215 115.22,-225.54"/>
<polygon fill="none" stroke="#dedede" points="119.22,-222.86 119.22,-243.14 90.26,-255 52.28,-255 23.32,-243.14 23.32,-222.86 52.28,-211 90.26,-211 119.22,-222.86"/>
<text text-anchor="middle" x="71.27" y="-227.95" font-family="Times,serif" font-size="14.00">Citation</text>
</a>
</g>
</g>
<!-- Tag -->
<g id="node2" class="node">
<title>Tag</title>
<g id="a_node2"><a xlink:href="/develop/Data/models.html#tag" xlink:title="Tag" target="_top">
<ellipse fill="#abcdef" stroke="#dddeee" cx="71.27" cy="-81" rx="27" ry="18"/>
<text text-anchor="middle" x="71.27" y="-75.95" font-family="Times,serif" font-size="14.00">Tag</text>
</a>
</g>
</g>
<!-- Note -->
<g id="node3" class="node">
<title>Note</title>
<g id="a_node3"><a xlink:href="/develop/Data/models.html#note" xlink:title="Note" target="_top">
<ellipse fill="#abcdef" stroke="#dddeee" cx="71.27" cy="-175" rx="28.83" ry="18"/>
<text text-anchor="middle" x="71.27" y="-169.95" font-family="Times,serif" font-size="14.00">Note</text>
</a>
</g>
</g>
<!-- Source -->
<g id="node4" class="node">
<title>Source</title>
<g id="a_node4"><a xlink:href="/develop/Data/models.html#source" xlink:title="Source" target="_top">
<path fill="#fedcba" stroke="#dddeee" d="M248.57,-455C248.57,-455 278.57,-455 278.57,-455 284.57,-455 290.57,-461 290.57,-467 290.57,-467 290.57,-479 290.57,-479 290.57,-485 284.57,-491 278.57,-491 278.57,-491 248.57,-491 248.57,-491 242.57,-491 236.57,-485 236.57,-479 236.57,-479 236.57,-467 236.57,-467 236.57,-461 242.57,-455 248.57,-455"/>
<text text-anchor="middle" x="263.57" y="-468.2" font-family="Times,serif" font-size="14.00">Source</text>
</a>
</g>
</g>
<!-- CitationTopic -->
<g id="node5" class="node">
<title>CitationTopic</title>
<g id="a_node5"><a xlink:href="/develop/Data/models.html#citation-topic" xlink:title="CitationTopic" target="_top">
<polygon fill="#eeefff" stroke="#dddeee" points="309.07,-436 218.07,-436 218.07,-400 309.07,-400 309.07,-436"/>
<text text-anchor="middle" x="263.57" y="-412.95" font-family="Times,serif" font-size="14.00">CitationTopic</text>
</a>
</g>
</g>
<!-- Document -->
<g id="node6" class="node">
<title>Document</title>
<g id="a_node6"><a xlink:href="/develop/Data/models.html#document" xlink:title="Document" target="_top">
<polygon fill="#eeefff" stroke="#dddeee" points="480.92,-491 407.92,-491 407.92,-455 480.92,-455 480.92,-491"/>
<text text-anchor="middle" x="444.42" y="-467.95" font-family="Times,serif" font-size="14.00">Document</text>
</a>
</g>
</g>
<!-- Keyword -->
<g id="node7" class="node">
<title>Keyword</title>
<g id="a_node7"><a xlink:href="/develop/Data/models.html#keyword" xlink:title="Keyword" target="_top">
<polygon fill="#eeefff" stroke="#dddeee" points="296.69,-36 230.44,-36 230.44,0 296.69,0 296.69,-36"/>
<text text-anchor="middle" x="263.57" y="-12.95" font-family="Times,serif" font-size="14.00">Keyword</text>
</a>
</g>
</g>
<!-- PinboardItem -->
<g id="node8" class="node">
<title>PinboardItem</title>
<g id="a_node8"><a xlink:href="/develop/Data/models.html#pinboard-item" xlink:title="PinboardItem" target="_top">
<polygon fill="#eeefff" stroke="#dddeee" points="308.69,-382 218.44,-382 218.44,-346 308.69,-346 308.69,-382"/>
<text text-anchor="middle" x="263.57" y="-358.95" font-family="Times,serif" font-size="14.00">PinboardItem</text>
</a>
</g>
</g>
<!-- Role -->
<g id="node9" class="node">
<title>Role</title>
<g id="a_node9"><a xlink:href="/develop/Data/models.html#role" xlink:title="Role" target="_top">
<polygon fill="#eeefff" stroke="#dddeee" points="290.57,-328 236.57,-328 236.57,-292 290.57,-292 290.57,-328"/>
<text text-anchor="middle" x="263.57" y="-304.95" font-family="Times,serif" font-size="14.00">Role</text>
</a>
</g>
</g>
<!-- Topic -->
<g id="node10" class="node">
<title>Topic</title>
<g id="a_node10"><a xlink:href="/develop/Data/models.html#topic" xlink:title="Topic" target="_top">
<polygon fill="#eeefff" stroke="#dddeee" points="471.42,-436 417.42,-436 417.42,-400 471.42,-400 471.42,-436"/>
<text text-anchor="middle" x="444.42" y="-412.95" font-family="Times,serif" font-size="14.00">Topic</text>
</a>
</g>
</g>
<!-- VerifierRole -->
<g id="node11" class="node">
<title>VerifierRole</title>
<g id="a_node11"><a xlink:href="/develop/Data/models.html#verifier-role" xlink:title="VerifierRole" target="_top">
<polygon fill="#eeefff" stroke="#dddeee" points="304.94,-274 222.19,-274 222.19,-238 304.94,-238 304.94,-274"/>
<text text-anchor="middle" x="263.57" y="-250.95" font-family="Times,serif" font-size="14.00">VerifierRole</text>
</a>
</g>
</g>
<!-- Verifier -->
<g id="node12" class="node">
<title>Verifier</title>
<g id="a_node12"><a xlink:href="/develop/Data/models.html#verifier" xlink:title="Verifier" target="_top">
<polygon fill="#eeefff" stroke="#dddeee" points="473.04,-301 415.79,-301 415.79,-265 473.04,-265 473.04,-301"/>
<text text-anchor="middle" x="444.42" y="-277.95" font-family="Times,serif" font-size="14.00">Verifier</text>
</a>
</g>
</g>
<!-- Creator -->
<g id="node13" class="node">
<title>Creator</title>
<g id="a_node13"><a xlink:href="/develop/Data/models.html#creator" xlink:title="Creator" target="_top">
<polygon fill="#eeefff" stroke="#dddeee" points="472.67,-182 416.17,-182 416.17,-146 472.67,-146 472.67,-182"/>
<text text-anchor="middle" x="444.42" y="-158.95" font-family="Times,serif" font-size="14.00">Creator</text>
</a>
</g>
</g>
<!-- Project -->
<g id="node14" class="node">
<title>Project</title>
<g id="a_node14"><a xlink:href="/develop/Data/models.html#project" xlink:title="Project" target="_top">
<polygon fill="#eeefff" stroke="#dddeee" points="290.69,-182 236.44,-182 236.44,-146 290.69,-146 290.69,-182"/>
<text text-anchor="middle" x="263.57" y="-158.95" font-family="Times,serif" font-size="14.00">Project</text>
</a>
</g>
</g>
<!-- Updater -->
<g id="node15" class="node">
<title>Updater</title>
<g id="a_node15"><a xlink:href="/develop/Data/models.html#updater" xlink:title="Updater" target="_top">
<polygon fill="#eeefff" stroke="#dddeee" points="576.42,-182 516.92,-182 516.92,-146 576.42,-146 576.42,-182"/>
<text text-anchor="middle" x="546.67" y="-158.95" font-family="Times,serif" font-size="14.00">Updater</text>
</a>
</g>
</g>
<!-- Objects with Citations -->
<g id="node16" class="node">
<title>Objects with Citations</title>
<g id="a_node16"><a xlink:href="/develop/Data/models.html#objects with citation" xlink:title="Objects with Citations" target="_top">
<polygon fill="#cdabef" stroke="#dedede" points="371.92,-72 317.74,-90 209.4,-90 155.22,-72 209.4,-54 317.74,-54 371.92,-72"/>
<text text-anchor="middle" x="263.57" y="-66.95" font-family="Times,serif" font-size="14.00">Objects with Citations</text>
</a>
</g>
</g>
</g>
</svg>
