<?xml version="1.0" encoding="UTF-8" standalone="no"?>
<!DOCTYPE svg PUBLIC "-//W3C//DTD SVG 1.1//EN"
 "http://www.w3.org/Graphics/SVG/1.1/DTD/svg11.dtd">
<!-- Generated by graphviz version 2.50.0 (20211204.2007)
 -->
<!-- Title: Citation Pages: 1 -->
<svg width="573pt" height="500pt"
 viewBox="0.00 0.00 572.81 499.50" xmlns="http://www.w3.org/2000/svg" xmlns:xlink="http://www.w3.org/1999/xlink">
<g id="graph0" class="graph" transform="scale(1 1) rotate(0) translate(4 495.5)">
<title>Citation</title>
<polygon fill="white" stroke="transparent" points="-4,4 -4,-495.5 568.81,-495.5 568.81,4 -4,4"/>
<!-- Citation&#45;&gt;Tag -->
<g id="edge7" class="edge">
<title>Citation&#45;&gt;Tag</title>
<path fill="none" stroke="black" d="M32.75,-218.57C21.94,-212.4 11.38,-204.02 5.26,-193 -2.51,-179.01 -0.24,-172.03 5.26,-157 13.12,-135.51 30.04,-115.91 44.54,-102"/>
<polygon fill="black" stroke="black" points="47.28,-104.23 52.27,-94.88 42.54,-99.08 47.28,-104.23"/>
</g>
<!-- Citation&#45;&gt;Note -->
<g id="edge4" class="edge">
<title>Citation&#45;&gt;Note</title>
<path fill="none" stroke="black" d="M69.47,-210.88C69.47,-208.38 69.47,-205.89 69.47,-203.39"/>
<polygon fill="black" stroke="black" points="72.97,-203.12 69.47,-193.12 65.97,-203.13 72.97,-203.12"/>
</g>
<!-- Citation&#45;&gt;Source -->
<g id="edge14" class="edge">
<title>Citation&#45;&gt;Source</title>
<path fill="none" stroke="black" stroke-dasharray="5,2" d="M73.79,-265.39C80.3,-311.94 99.09,-397.39 151.68,-445 172.61,-463.95 205.16,-470.25 227.96,-472.25"/>
<polygon fill="black" stroke="black" points="77.23,-264.72 72.48,-255.25 70.29,-265.62 77.23,-264.72"/>
</g>
<!-- Citation&#45;&gt;CitationTopic -->
<g id="edge1" class="edge">
<title>Citation&#45;&gt;CitationTopic</title>
<path fill="none" stroke="black" d="M75.63,-255.03C84.84,-289.39 107.43,-355.46 151.68,-391 165.11,-401.79 182.43,-408.3 199,-412.22"/>
<polygon fill="black" stroke="black" points="198.67,-415.72 209.17,-414.34 200.1,-408.87 198.67,-415.72"/>
</g>
<!-- Citation&#45;&gt;PinboardItem -->
<g id="edge5" class="edge">
<title>Citation&#45;&gt;PinboardItem</title>
<path fill="none" stroke="black" d="M81.99,-255.2C95.5,-279.01 120.11,-316.2 151.68,-337 165.94,-346.4 183.33,-352.53 199.71,-356.53"/>
<polygon fill="black" stroke="black" points="199.22,-360 209.74,-358.75 200.74,-353.17 199.22,-360"/>
</g>
<!-- Citation&#45;&gt;Role -->
<g id="edge6" class="edge">
<title>Citation&#45;&gt;Role</title>
<path fill="none" stroke="black" d="M96.1,-251.5C111.58,-261.96 132.04,-274.59 151.68,-283 172.87,-292.07 197.86,-298.73 217.87,-303.16"/>
<polygon fill="black" stroke="black" points="217.32,-306.62 227.83,-305.28 218.77,-299.78 217.32,-306.62"/>
</g>
<!-- Citation&#45;&gt;VerifierRole -->
<g id="edge9" class="edge">
<title>Citation&#45;&gt;VerifierRole</title>
<path fill="none" stroke="black" d="M115.9,-238.69C142.47,-242.01 176.09,-246.22 203.53,-249.65"/>
<polygon fill="black" stroke="black" points="203.36,-253.16 213.72,-250.93 204.23,-246.21 203.36,-253.16"/>
</g>
<!-- Citation&#45;&gt;Creator -->
<g id="edge12" class="edge">
<title>Citation&#45;&gt;Creator</title>
<path fill="none" stroke="black" stroke-dasharray="5,2" d="M126.16,-228.45C184.76,-222.84 279.32,-211.44 358.81,-191 373.81,-187.14 390,-181.24 403.22,-175.93"/>
<polygon fill="black" stroke="black" points="125.64,-224.99 116.01,-229.4 126.29,-231.96 125.64,-224.99"/>
</g>
<!-- Citation&#45;&gt;Project -->
<g id="edge13" class="edge">
<title>Citation&#45;&gt;Project</title>
<path fill="none" stroke="black" stroke-dasharray="5,2" d="M112.17,-212.79C124.73,-207.03 138.64,-200.98 151.68,-196 176.94,-186.35 206.49,-177.36 227.37,-171.39"/>
<polygon fill="black" stroke="black" points="110.46,-209.73 102.87,-217.11 113.41,-216.07 110.46,-209.73"/>
</g>
<!-- Citation&#45;&gt;Updater -->
<g id="edge15" class="edge">
<title>Citation&#45;&gt;Updater</title>
<path fill="none" stroke="black" stroke-dasharray="5,2" d="M107.89,-209.5C110.66,-207.12 113.3,-204.61 115.68,-202 137.89,-177.56 123.23,-153.77 151.68,-137 212.39,-101.22 399.7,-123.22 468.81,-137 480.92,-139.41 493.59,-144.13 504.49,-148.95"/>
<polygon fill="black" stroke="black" points="105.52,-206.91 99.82,-215.84 109.84,-212.41 105.52,-206.91"/>
</g>
<!-- Citation&#45;&gt;Objects with Citations -->
<g id="edge11" class="edge">
<title>Citation&#45;&gt;Objects with Citations</title>
<path fill="none" stroke="black" stroke-dasharray="5,2" d="M108.8,-209.46C111.3,-207.12 113.63,-204.63 115.68,-202 144.16,-165.37 118.06,-135.99 151.68,-104 161.14,-95 173.09,-88.53 185.47,-83.88"/>
<polygon fill="black" stroke="black" points="106.37,-206.93 100.91,-216.01 110.84,-212.32 106.37,-206.93"/>
</g>
<!-- Tag&#45;&gt;Keyword -->
<g id="edge3" class="edge">
<title>Tag&#45;&gt;Keyword</title>
<path fill="none" stroke="black" stroke-dasharray="1,5" d="M91.8,-70.42C107.97,-62.68 130.87,-52.3 151.68,-45 171.03,-38.21 192.96,-32.22 211.55,-27.62"/>
<polygon fill="black" stroke="black" points="212.61,-30.96 221.51,-25.21 210.96,-24.16 212.61,-30.96"/>
</g>
<!-- Source&#45;&gt;Document -->
<g id="edge2" class="edge">
<title>Source&#45;&gt;Document</title>
<path fill="none" stroke="black" stroke-dasharray="1,5" d="M282.38,-473C309.33,-473 351.91,-473 384.56,-473"/>
<polygon fill="black" stroke="black" points="384.79,-476.5 394.79,-473 384.79,-469.5 384.79,-476.5"/>
</g>
<!-- CitationTopic&#45;&gt;Topic -->
<g id="edge8" class="edge">
<title>CitationTopic&#45;&gt;Topic</title>
<path fill="none" stroke="black" stroke-dasharray="1,5" d="M301.65,-418C330.55,-418 367.47,-418 394.43,-418"/>
<polygon fill="black" stroke="black" points="394.6,-421.5 404.6,-418 394.6,-414.5 394.6,-421.5"/>
</g>
<!-- Role&#45;&gt;Verifier -->
<!-- VerifierRole&#45;&gt;Verifier -->
<g id="edge10" class="edge">
<title>VerifierRole&#45;&gt;Verifier</title>
<path fill="none" stroke="black" stroke-dasharray="1,5" d="M297.17,-262.33C326.25,-266.83 365,-272.82 393.29,-277.2"/>
<polygon fill="black" stroke="black" points="392.78,-280.66 403.2,-278.73 393.85,-273.74 392.78,-280.66"/>
</g>
<!-- Creator&#45;&gt;Updater -->
<!-- Project&#45;&gt;Creator -->
<!-- Citation -->
<g id="node1" class="node">
<title>Citation</title>
<g id="a_node1"><a xlink:href="/develop/Data/models.html#citation" xlink:title="Citation" target="_top">
<polygon fill="#cdefab" stroke="#dedede" points="111.87,-225.54 111.87,-240.46 87.03,-251 51.9,-251 27.07,-240.46 27.07,-225.54 51.9,-215 87.03,-215 111.87,-225.54"/>
<polygon fill="none" stroke="#dedede" points="115.89,-222.9 115.89,-243.1 87.85,-255 51.08,-255 23.05,-243.1 23.05,-222.9 51.08,-211 87.85,-211 115.89,-222.9"/>
<text text-anchor="middle" x="69.47" y="-229.3" font-family="Times,serif" font-size="14.00">Citation</text>
</a>
</g>
</g>
<!-- Tag -->
<g id="node2" class="node">
<title>Tag</title>
<g id="a_node2"><a xlink:href="/develop/Data/models.html#tag" xlink:title="Tag" target="_top">
<ellipse fill="#abcdef" stroke="#dddeee" cx="69.47" cy="-81" rx="27" ry="18"/>
<text text-anchor="middle" x="69.47" y="-77.3" font-family="Times,serif" font-size="14.00">Tag</text>
</a>
</g>
</g>
<!-- Note -->
<g id="node3" class="node">
<title>Note</title>
<g id="a_node3"><a xlink:href="/develop/Data/models.html#note" xlink:title="Note" target="_top">
<ellipse fill="#abcdef" stroke="#dddeee" cx="69.47" cy="-175" rx="27.9" ry="18"/>
<text text-anchor="middle" x="69.47" y="-171.3" font-family="Times,serif" font-size="14.00">Note</text>
</a>
</g>
</g>
<!-- Source -->
<g id="node4" class="node">
<title>Source</title>
<g id="a_node4"><a xlink:href="/develop/Data/models.html#source" xlink:title="Source" target="_top">
<path fill="#fedcba" stroke="#dddeee" d="M240.24,-455C240.24,-455 270.24,-455 270.24,-455 276.24,-455 282.24,-461 282.24,-467 282.24,-467 282.24,-479 282.24,-479 282.24,-485 276.24,-491 270.24,-491 270.24,-491 240.24,-491 240.24,-491 234.24,-491 228.24,-485 228.24,-479 228.24,-479 228.24,-467 228.24,-467 228.24,-461 234.24,-455 240.24,-455"/>
<text text-anchor="middle" x="255.24" y="-469.3" font-family="Times,serif" font-size="14.00">Source</text>
</a>
</g>
</g>
<!-- CitationTopic -->
<g id="node5" class="node">
<title>CitationTopic</title>
<g id="a_node5"><a xlink:href="/develop/Data/models.html#citation-topic" xlink:title="CitationTopic" target="_top">
<polygon fill="#eeefff" stroke="#dddeee" points="301.24,-436 209.24,-436 209.24,-400 301.24,-400 301.24,-436"/>
<text text-anchor="middle" x="255.24" y="-414.3" font-family="Times,serif" font-size="14.00">CitationTopic</text>
</a>
</g>
</g>
<!-- Document -->
<g id="node6" class="node">
<title>Document</title>
<g id="a_node6"><a xlink:href="/develop/Data/models.html#document" xlink:title="Document" target="_top">
<polygon fill="#eeefff" stroke="#dddeee" points="468.81,-491 394.81,-491 394.81,-455 468.81,-455 468.81,-491"/>
<text text-anchor="middle" x="431.81" y="-469.3" font-family="Times,serif" font-size="14.00">Document</text>
</a>
</g>
</g>
<!-- Keyword -->
<g id="node7" class="node">
<title>Keyword</title>
<g id="a_node7"><a xlink:href="/develop/Data/models.html#keyword" xlink:title="Keyword" target="_top">
<polygon fill="#eeefff" stroke="#dddeee" points="288.74,-36 221.74,-36 221.74,0 288.74,0 288.74,-36"/>
<text text-anchor="middle" x="255.24" y="-14.3" font-family="Times,serif" font-size="14.00">Keyword</text>
</a>
</g>
</g>
<!-- PinboardItem -->
<g id="node8" class="node">
<title>PinboardItem</title>
<g id="a_node8"><a xlink:href="/develop/Data/models.html#pinboard-item" xlink:title="PinboardItem" target="_top">
<polygon fill="#eeefff" stroke="#dddeee" points="300.74,-382 209.74,-382 209.74,-346 300.74,-346 300.74,-382"/>
<text text-anchor="middle" x="255.24" y="-360.3" font-family="Times,serif" font-size="14.00">PinboardItem</text>
</a>
</g>
</g>
<!-- Role -->
<g id="node9" class="node">
<title>Role</title>
<g id="a_node9"><a xlink:href="/develop/Data/models.html#role" xlink:title="Role" target="_top">
<polygon fill="#eeefff" stroke="#dddeee" points="282.24,-328 228.24,-328 228.24,-292 282.24,-292 282.24,-328"/>
<text text-anchor="middle" x="255.24" y="-306.3" font-family="Times,serif" font-size="14.00">Role</text>
</a>
</g>
</g>
<!-- Topic -->
<g id="node10" class="node">
<title>Topic</title>
<g id="a_node10"><a xlink:href="/develop/Data/models.html#topic" xlink:title="Topic" target="_top">
<polygon fill="#eeefff" stroke="#dddeee" points="458.81,-436 404.81,-436 404.81,-400 458.81,-400 458.81,-436"/>
<text text-anchor="middle" x="431.81" y="-414.3" font-family="Times,serif" font-size="14.00">Topic</text>
</a>
</g>
</g>
<!-- VerifierRole -->
<g id="node11" class="node">
<title>VerifierRole</title>
<g id="a_node11"><a xlink:href="/develop/Data/models.html#verifier-role" xlink:title="VerifierRole" target="_top">
<polygon fill="#eeefff" stroke="#dddeee" points="296.74,-274 213.74,-274 213.74,-238 296.74,-238 296.74,-274"/>
<text text-anchor="middle" x="255.24" y="-252.3" font-family="Times,serif" font-size="14.00">VerifierRole</text>
</a>
</g>
</g>
<!-- Verifier -->
<g id="node12" class="node">
<title>Verifier</title>
<g id="a_node12"><a xlink:href="/develop/Data/models.html#verifier" xlink:title="Verifier" target="_top">
<polygon fill="#eeefff" stroke="#dddeee" points="460.31,-301 403.31,-301 403.31,-265 460.31,-265 460.31,-301"/>
<text text-anchor="middle" x="431.81" y="-279.3" font-family="Times,serif" font-size="14.00">Verifier</text>
</a>
</g>
</g>
<!-- Creator -->
<g id="node13" class="node">
<title>Creator</title>
<g id="a_node13"><a xlink:href="/develop/Data/models.html#creator" xlink:title="Creator" target="_top">
<polygon fill="#eeefff" stroke="#dddeee" points="460.31,-182 403.31,-182 403.31,-146 460.31,-146 460.31,-182"/>
<text text-anchor="middle" x="431.81" y="-160.3" font-family="Times,serif" font-size="14.00">Creator</text>
</a>
</g>
</g>
<!-- Project -->
<g id="node14" class="node">
<title>Project</title>
<g id="a_node14"><a xlink:href="/develop/Data/models.html#project" xlink:title="Project" target="_top">
<polygon fill="#eeefff" stroke="#dddeee" points="282.74,-182 227.74,-182 227.74,-146 282.74,-146 282.74,-182"/>
<text text-anchor="middle" x="255.24" y="-160.3" font-family="Times,serif" font-size="14.00">Project</text>
</a>
</g>
</g>
<!-- Updater -->
<g id="node15" class="node">
<title>Updater</title>
<g id="a_node15"><a xlink:href="/develop/Data/models.html#updater" xlink:title="Updater" target="_top">
<polygon fill="#eeefff" stroke="#dddeee" points="564.81,-182 504.81,-182 504.81,-146 564.81,-146 564.81,-182"/>
<text text-anchor="middle" x="534.81" y="-160.3" font-family="Times,serif" font-size="14.00">Updater</text>
</a>
</g>
</g>
<!-- Objects with Citations -->
<g id="node16" class="node">
<title>Objects with Citations</title>
<g id="a_node16"><a xlink:href="/develop/Data/models.html#objects with citation" xlink:title="Objects with Citations" target="_top">
<polygon fill="#cdabef" stroke="#dedede" points="358.88,-72 307.06,-90 203.43,-90 151.61,-72 203.43,-54 307.06,-54 358.88,-72"/>
<text text-anchor="middle" x="255.24" y="-68.3" font-family="Times,serif" font-size="14.00">Objects with Citations</text>
</a>
</g>
</g>
</g>
</svg>
