<?xml version="1.0" encoding="UTF-8" standalone="no"?>
<!DOCTYPE svg PUBLIC "-//W3C//DTD SVG 1.1//EN"
 "http://www.w3.org/Graphics/SVG/1.1/DTD/svg11.dtd">
<!-- Generated by graphviz version 2.50.0 (20211204.2007)
 -->
<!-- Title: CollectionObjectObservation Pages: 1 -->
<svg width="818pt" height="380pt"
 viewBox="0.00 0.00 818.21 379.76" xmlns="http://www.w3.org/2000/svg" xmlns:xlink="http://www.w3.org/1999/xlink">
<g id="graph0" class="graph" transform="scale(1 1) rotate(0) translate(4 375.76)">
<title>CollectionObjectObservation</title>
<polygon fill="white" stroke="transparent" points="-4,4 -4,-375.76 814.21,-375.76 814.21,4 -4,4"/>
<text text-anchor="middle" x="405.11" y="-22.8" font-family="Times,serif" font-size="14.00">Algorithmically generated relationships for CollectionObjectObservation based on assertions of &#39;has_many&#39;, &#39;has_one&#39;, &#39;belongs_to&#39;. </text>
<text text-anchor="middle" x="405.11" y="-7.8" font-family="Times,serif" font-size="14.00">Generated 2022&#45;01&#45;25 11:42:56 &#45;0600.</text>
<!-- Depiction&#45;&gt;Image -->
<g id="edge4" class="edge">
<title>Depiction&#45;&gt;Image</title>
<path fill="none" stroke="black" d="M91.07,-247.69C128.59,-248.05 181.59,-248.56 216.62,-248.9"/>
<polygon fill="black" stroke="black" points="216.85,-252.41 226.88,-249 216.92,-245.41 216.85,-252.41"/>
</g>
<!-- Tag&#45;&gt;Keyword -->
<g id="edge5" class="edge">
<title>Tag&#45;&gt;Keyword</title>
<path fill="none" stroke="black" d="M72.66,-135C107.3,-134.67 168.81,-134.07 210.27,-133.67"/>
<polygon fill="black" stroke="black" points="210.38,-137.17 220.35,-133.57 210.31,-130.17 210.38,-137.17"/>
</g>
<!-- CollectionObjectObservation&#45;&gt;Depiction -->
<g id="edge2" class="edge">
<title>CollectionObjectObservation&#45;&gt;Depiction</title>
<path fill="none" stroke="black" d="M175.88,-209.46C159.68,-213.5 142.74,-217.88 126.99,-222.26 115.21,-225.53 102.53,-229.33 90.81,-232.97"/>
<polygon fill="black" stroke="black" points="89.73,-229.64 81.23,-235.97 91.82,-236.32 89.73,-229.64"/>
</g>
<!-- CollectionObjectObservation&#45;&gt;Tag -->
<g id="edge9" class="edge">
<title>CollectionObjectObservation&#45;&gt;Tag</title>
<path fill="none" stroke="black" d="M175.88,-173.05C159.68,-169.02 142.74,-164.63 126.99,-160.26 111.3,-155.89 94.03,-150.6 79.53,-146.01"/>
<polygon fill="black" stroke="black" points="80.58,-142.67 69.98,-142.96 78.45,-149.34 80.58,-142.67"/>
</g>
<!-- CollectionObjectObservation&#45;&gt;Note -->
<g id="edge6" class="edge">
<title>CollectionObjectObservation&#45;&gt;Note</title>
<path fill="none" stroke="black" d="M126.57,-191.26C110.96,-191.26 96.1,-191.26 83.51,-191.26"/>
<polygon fill="black" stroke="black" points="83.51,-187.76 73.51,-191.26 83.51,-194.76 83.51,-187.76"/>
</g>
<!-- CollectionObjectObservation&#45;&gt;DerivedCollectionObject -->
<g id="edge3" class="edge">
<title>CollectionObjectObservation&#45;&gt;DerivedCollectionObject</title>
<path fill="none" stroke="black" d="M355.93,-205.93C365.15,-210.15 373.8,-215.5 381.21,-222.26 417.36,-255.21 382.84,-291.46 417.21,-326.26 418.14,-327.2 419.11,-328.11 420.11,-328.98"/>
<polygon fill="black" stroke="black" points="418.19,-331.92 428.29,-335.11 422.38,-326.32 418.19,-331.92"/>
</g>
<!-- CollectionObjectObservation&#45;&gt;PinboardItem -->
<g id="edge7" class="edge">
<title>CollectionObjectObservation&#45;&gt;PinboardItem</title>
<path fill="none" stroke="black" d="M350.19,-206.8C361.16,-210.82 371.78,-215.88 381.21,-222.26 403.91,-237.58 395.35,-255.77 417.21,-272.26 423.51,-277 430.71,-280.97 438.11,-284.28"/>
<polygon fill="black" stroke="black" points="436.95,-287.59 447.53,-288.12 439.59,-281.1 436.95,-287.59"/>
</g>
<!-- CollectionObjectObservation&#45;&gt;Role -->
<g id="edge8" class="edge">
<title>CollectionObjectObservation&#45;&gt;Role</title>
<path fill="none" stroke="black" d="M333.73,-209.16C375.09,-218.58 423.79,-229.67 456.18,-237.05"/>
<polygon fill="black" stroke="black" points="455.56,-240.5 466.09,-239.31 457.12,-233.67 455.56,-240.5"/>
</g>
<!-- CollectionObjectObservation&#45;&gt;VerifierRole -->
<g id="edge10" class="edge">
<title>CollectionObjectObservation&#45;&gt;VerifierRole</title>
<path fill="none" stroke="black" d="M381.3,-191.26C402.56,-191.26 423.49,-191.26 441.35,-191.26"/>
<polygon fill="black" stroke="black" points="441.49,-194.76 451.49,-191.26 441.49,-187.76 441.49,-194.76"/>
</g>
<!-- CollectionObjectObservation&#45;&gt;Creator -->
<g id="edge12" class="edge">
<title>CollectionObjectObservation&#45;&gt;Creator</title>
<path fill="none" stroke="black" stroke-dasharray="5,2" d="M354.78,-172.98C416.79,-161.03 498.01,-144.32 569.21,-126.26 590.14,-120.95 613.48,-113.87 631.07,-108.29"/>
<polygon fill="black" stroke="black" points="353.77,-169.61 344.61,-174.93 355.09,-176.49 353.77,-169.61"/>
</g>
<!-- CollectionObjectObservation&#45;&gt;Project -->
<g id="edge13" class="edge">
<title>CollectionObjectObservation&#45;&gt;Project</title>
<path fill="none" stroke="black" stroke-dasharray="5,2" d="M353.36,-171.63C362.98,-168.37 372.42,-164.61 381.21,-160.26 399.63,-151.14 399.6,-141.83 417.21,-131.26 432.51,-122.07 450.91,-114.18 465.67,-108.53"/>
<polygon fill="black" stroke="black" points="352.15,-168.34 343.69,-174.72 354.29,-175.01 352.15,-168.34"/>
</g>
<!-- CollectionObjectObservation&#45;&gt;Updater -->
<g id="edge14" class="edge">
<title>CollectionObjectObservation&#45;&gt;Updater</title>
<path fill="none" stroke="black" stroke-dasharray="5,2" d="M364.11,-171.95C370.22,-168.63 376,-164.76 381.21,-160.26 413.21,-132.66 382.13,-95.81 417.21,-72.26 521.86,-2 683.94,-58 749.85,-85.86"/>
<polygon fill="black" stroke="black" points="362.37,-168.9 354.92,-176.44 365.44,-175.19 362.37,-168.9"/>
</g>
<!-- DerivedCollectionObject&#45;&gt;CollectionObject -->
<g id="edge1" class="edge">
<title>DerivedCollectionObject&#45;&gt;CollectionObject</title>
<path fill="none" stroke="black" d="M569.24,-353.26C577.8,-353.26 586.46,-353.26 594.85,-353.26"/>
<polygon fill="black" stroke="black" points="594.92,-356.76 604.92,-353.26 594.92,-349.76 594.92,-356.76"/>
</g>
<!-- Role&#45;&gt;Verifier -->
<!-- VerifierRole&#45;&gt;Verifier -->
<g id="edge11" class="edge">
<title>VerifierRole&#45;&gt;Verifier</title>
<path fill="none" stroke="black" d="M534.88,-197.93C561.22,-202.25 595.28,-207.84 621.01,-212.07"/>
<polygon fill="black" stroke="black" points="620.7,-215.56 631.13,-213.73 621.83,-208.66 620.7,-215.56"/>
</g>
<!-- Creator&#45;&gt;Updater -->
<!-- Project&#45;&gt;Creator -->
<!-- Depiction -->
<g id="node1" class="node">
<title>Depiction</title>
<g id="a_node1"><a xlink:href="/develop/Data/models.html#depiction" xlink:title="Depiction" target="_top">
<ellipse fill="#abcdef" stroke="#dddeee" cx="45.5" cy="-247.26" rx="45.49" ry="18"/>
<text text-anchor="middle" x="45.5" y="-243.56" font-family="Times,serif" font-size="14.00">Depiction</text>
</a>
</g>
</g>
<!-- Tag -->
<g id="node2" class="node">
<title>Tag</title>
<g id="a_node2"><a xlink:href="/develop/Data/models.html#tag" xlink:title="Tag" target="_top">
<ellipse fill="#abcdef" stroke="#dddeee" cx="45.5" cy="-135.26" rx="27" ry="18"/>
<text text-anchor="middle" x="45.5" y="-131.56" font-family="Times,serif" font-size="14.00">Tag</text>
</a>
</g>
</g>
<!-- Note -->
<g id="node3" class="node">
<title>Note</title>
<g id="a_node3"><a xlink:href="/develop/Data/models.html#note" xlink:title="Note" target="_top">
<ellipse fill="#abcdef" stroke="#dddeee" cx="45.5" cy="-191.26" rx="27.9" ry="18"/>
<text text-anchor="middle" x="45.5" y="-187.56" font-family="Times,serif" font-size="14.00">Note</text>
</a>
</g>
</g>
<!-- CollectionObject -->
<g id="node4" class="node">
<title>CollectionObject</title>
<g id="a_node4"><a xlink:href="/develop/Data/models.html#collection-object" xlink:title="CollectionObject" target="_top">
<path fill="#fedcba" stroke="#dddeee" d="M617.21,-335.26C617.21,-335.26 702.21,-335.26 702.21,-335.26 708.21,-335.26 714.21,-341.26 714.21,-347.26 714.21,-347.26 714.21,-359.26 714.21,-359.26 714.21,-365.26 708.21,-371.26 702.21,-371.26 702.21,-371.26 617.21,-371.26 617.21,-371.26 611.21,-371.26 605.21,-365.26 605.21,-359.26 605.21,-359.26 605.21,-347.26 605.21,-347.26 605.21,-341.26 611.21,-335.26 617.21,-335.26"/>
<text text-anchor="middle" x="659.71" y="-349.56" font-family="Times,serif" font-size="14.00">CollectionObject</text>
</a>
</g>
</g>
<!-- CollectionObjectObservation -->
<g id="node5" class="node">
<title>CollectionObjectObservation</title>
<g id="a_node5"><a xlink:href="/develop/Data/models.html#collection-object-observation" xlink:title="CollectionObjectObservation" target="_top">
<polygon fill="#cdefab" stroke="#dedede" points="377.32,-183.8 377.32,-198.71 305.14,-209.26 203.06,-209.26 130.88,-198.71 130.88,-183.8 203.06,-173.26 305.14,-173.26 377.32,-183.8"/>
<polygon fill="none" stroke="#dedede" points="381.33,-180.34 381.33,-202.17 305.43,-213.26 202.77,-213.26 126.88,-202.17 126.88,-180.34 202.77,-169.26 305.43,-169.26 381.33,-180.34"/>
<text text-anchor="middle" x="254.1" y="-187.56" font-family="Times,serif" font-size="14.00">CollectionObjectObservation</text>
</a>
</g>
</g>
<!-- DerivedCollectionObject -->
<g id="node6" class="node">
<title>DerivedCollectionObject</title>
<g id="a_node6"><a xlink:href="/develop/Data/models.html#derived-collection-object" xlink:title="DerivedCollectionObject" target="_top">
<polygon fill="#eeefff" stroke="#dddeee" points="569.21,-371.26 417.21,-371.26 417.21,-335.26 569.21,-335.26 569.21,-371.26"/>
<text text-anchor="middle" x="493.21" y="-349.56" font-family="Times,serif" font-size="14.00">DerivedCollectionObject</text>
</a>
</g>
</g>
<!-- Image -->
<g id="node7" class="node">
<title>Image</title>
<g id="a_node7"><a xlink:href="/develop/Data/models.html#image" xlink:title="Image" target="_top">
<polygon fill="#eeefff" stroke="#dddeee" points="281.1,-267.26 227.1,-267.26 227.1,-231.26 281.1,-231.26 281.1,-267.26"/>
<text text-anchor="middle" x="254.1" y="-245.56" font-family="Times,serif" font-size="14.00">Image</text>
</a>
</g>
</g>
<!-- Keyword -->
<g id="node8" class="node">
<title>Keyword</title>
<g id="a_node8"><a xlink:href="/develop/Data/models.html#keyword" xlink:title="Keyword" target="_top">
<polygon fill="#eeefff" stroke="#dddeee" points="287.6,-151.26 220.6,-151.26 220.6,-115.26 287.6,-115.26 287.6,-151.26"/>
<text text-anchor="middle" x="254.1" y="-129.56" font-family="Times,serif" font-size="14.00">Keyword</text>
</a>
</g>
</g>
<!-- PinboardItem -->
<g id="node9" class="node">
<title>PinboardItem</title>
<g id="a_node9"><a xlink:href="/develop/Data/models.html#pinboard-item" xlink:title="PinboardItem" target="_top">
<polygon fill="#eeefff" stroke="#dddeee" points="538.71,-317.26 447.71,-317.26 447.71,-281.26 538.71,-281.26 538.71,-317.26"/>
<text text-anchor="middle" x="493.21" y="-295.56" font-family="Times,serif" font-size="14.00">PinboardItem</text>
</a>
</g>
</g>
<!-- Role -->
<g id="node10" class="node">
<title>Role</title>
<g id="a_node10"><a xlink:href="/develop/Data/models.html#role" xlink:title="Role" target="_top">
<polygon fill="#eeefff" stroke="#dddeee" points="520.21,-263.26 466.21,-263.26 466.21,-227.26 520.21,-227.26 520.21,-263.26"/>
<text text-anchor="middle" x="493.21" y="-241.56" font-family="Times,serif" font-size="14.00">Role</text>
</a>
</g>
</g>
<!-- VerifierRole -->
<g id="node11" class="node">
<title>VerifierRole</title>
<g id="a_node11"><a xlink:href="/develop/Data/models.html#verifier-role" xlink:title="VerifierRole" target="_top">
<polygon fill="#eeefff" stroke="#dddeee" points="534.71,-209.26 451.71,-209.26 451.71,-173.26 534.71,-173.26 534.71,-209.26"/>
<text text-anchor="middle" x="493.21" y="-187.56" font-family="Times,serif" font-size="14.00">VerifierRole</text>
</a>
</g>
</g>
<!-- Verifier -->
<g id="node12" class="node">
<title>Verifier</title>
<g id="a_node12"><a xlink:href="/develop/Data/models.html#verifier" xlink:title="Verifier" target="_top">
<polygon fill="#eeefff" stroke="#dddeee" points="688.21,-236.26 631.21,-236.26 631.21,-200.26 688.21,-200.26 688.21,-236.26"/>
<text text-anchor="middle" x="659.71" y="-214.56" font-family="Times,serif" font-size="14.00">Verifier</text>
</a>
</g>
</g>
<!-- Creator -->
<g id="node13" class="node">
<title>Creator</title>
<g id="a_node13"><a xlink:href="/develop/Data/models.html#creator" xlink:title="Creator" target="_top">
<polygon fill="#eeefff" stroke="#dddeee" points="688.21,-117.26 631.21,-117.26 631.21,-81.26 688.21,-81.26 688.21,-117.26"/>
<text text-anchor="middle" x="659.71" y="-95.56" font-family="Times,serif" font-size="14.00">Creator</text>
</a>
</g>
</g>
<!-- Project -->
<g id="node14" class="node">
<title>Project</title>
<g id="a_node14"><a xlink:href="/develop/Data/models.html#project" xlink:title="Project" target="_top">
<polygon fill="#eeefff" stroke="#dddeee" points="520.71,-117.26 465.71,-117.26 465.71,-81.26 520.71,-81.26 520.71,-117.26"/>
<text text-anchor="middle" x="493.21" y="-95.56" font-family="Times,serif" font-size="14.00">Project</text>
</a>
</g>
</g>
<!-- Updater -->
<g id="node15" class="node">
<title>Updater</title>
<g id="a_node15"><a xlink:href="/develop/Data/models.html#updater" xlink:title="Updater" target="_top">
<polygon fill="#eeefff" stroke="#dddeee" points="810.21,-117.26 750.21,-117.26 750.21,-81.26 810.21,-81.26 810.21,-117.26"/>
<text text-anchor="middle" x="780.21" y="-95.56" font-family="Times,serif" font-size="14.00">Updater</text>
</a>
</g>
</g>
</g>
</svg>
