<?xml version="1.0" encoding="UTF-8" standalone="no"?>
<!DOCTYPE svg PUBLIC "-//W3C//DTD SVG 1.1//EN"
 "http://www.w3.org/Graphics/SVG/1.1/DTD/svg11.dtd">
<!-- Generated by graphviz version 2.50.0 (20211204.2007)
 -->
<!-- Title: CollectionProfile Pages: 1 -->
<svg width="607pt" height="386pt"
 viewBox="0.00 0.00 607.15 386.31" xmlns="http://www.w3.org/2000/svg" xmlns:xlink="http://www.w3.org/1999/xlink">
<g id="graph0" class="graph" transform="scale(1 1) rotate(0) translate(4 382.31)">
<title>CollectionProfile</title>
<polygon fill="white" stroke="transparent" points="-4,4 -4,-382.31 603.15,-382.31 603.15,4 -4,4"/>
<!-- Tag&#45;&gt;Keyword -->
<g id="edge2" class="edge">
<title>Tag&#45;&gt;Keyword</title>
<path fill="none" stroke="black" d="M69.92,-113.48C94.05,-113.18 130.41,-112.71 158.79,-112.35"/>
<polygon fill="black" stroke="black" points="158.9,-115.85 168.85,-112.23 158.81,-108.85 158.9,-115.85"/>
</g>
<!-- CollectionProfile&#45;&gt;Identifier -->
<g id="edge1" class="edge">
<title>CollectionProfile&#45;&gt;Identifier</title>
<path fill="none" stroke="black" d="M149.87,-187.17C129.34,-194.07 106.01,-201.92 86.47,-208.49"/>
<polygon fill="black" stroke="black" points="85.29,-205.2 76.93,-211.7 87.52,-211.83 85.29,-205.2"/>
</g>
<!-- CollectionProfile&#45;&gt;Tag -->
<g id="edge6" class="edge">
<title>CollectionProfile&#45;&gt;Tag</title>
<path fill="none" stroke="black" d="M151.41,-152.02C127.03,-143.36 98.41,-133.18 76.83,-125.51"/>
<polygon fill="black" stroke="black" points="77.74,-122.13 67.15,-122.07 75.4,-128.72 77.74,-122.13"/>
</g>
<!-- CollectionProfile&#45;&gt;Note -->
<g id="edge3" class="edge">
<title>CollectionProfile&#45;&gt;Note</title>
<path fill="none" stroke="black" d="M121.55,-169.3C107.44,-169.21 93.38,-169.13 81.18,-169.05"/>
<polygon fill="black" stroke="black" points="81.01,-165.55 70.98,-168.98 80.96,-172.55 81.01,-165.55"/>
</g>
<!-- CollectionProfile&#45;&gt;Otu -->
<g id="edge11" class="edge">
<title>CollectionProfile&#45;&gt;Otu</title>
<path fill="none" stroke="black" stroke-dasharray="5,2" d="M220.61,-200.82C240.9,-235.6 277.27,-292.3 319.15,-331.81 324.6,-336.95 331.12,-341.67 337.47,-345.71"/>
<polygon fill="black" stroke="black" points="223.59,-198.97 215.57,-192.05 217.52,-202.46 223.59,-198.97"/>
</g>
<!-- CollectionProfile&#45;&gt;PinboardItem -->
<g id="edge4" class="edge">
<title>CollectionProfile&#45;&gt;PinboardItem</title>
<path fill="none" stroke="black" d="M224.46,-191.93C246.77,-214.83 283.67,-250.94 319.15,-277.81 320.54,-278.86 321.97,-279.91 323.43,-280.94"/>
<polygon fill="black" stroke="black" points="321.75,-284.03 332,-286.72 325.66,-278.23 321.75,-284.03"/>
</g>
<!-- CollectionProfile&#45;&gt;Role -->
<g id="edge5" class="edge">
<title>CollectionProfile&#45;&gt;Role</title>
<path fill="none" stroke="black" d="M243.48,-190.04C269.45,-203.17 302.98,-220.13 328.03,-232.8"/>
<polygon fill="black" stroke="black" points="326.67,-236.03 337.18,-237.42 329.83,-229.79 326.67,-236.03"/>
</g>
<!-- CollectionProfile&#45;&gt;VerifierRole -->
<g id="edge7" class="edge">
<title>CollectionProfile&#45;&gt;VerifierRole</title>
<path fill="none" stroke="black" d="M276.53,-182.13C288.91,-184.21 301.52,-186.34 313.16,-188.3"/>
<polygon fill="black" stroke="black" points="312.66,-191.77 323.1,-189.98 313.82,-184.86 312.66,-191.77"/>
</g>
<!-- CollectionProfile&#45;&gt;Container -->
<g id="edge9" class="edge">
<title>CollectionProfile&#45;&gt;Container</title>
<path fill="none" stroke="black" stroke-dasharray="5,2" d="M286.52,-155.81C301.73,-153.25 316.79,-150.71 329.51,-148.57"/>
<polygon fill="black" stroke="black" points="285.81,-152.38 276.53,-157.5 286.97,-159.29 285.81,-152.38"/>
</g>
<!-- CollectionProfile&#45;&gt;Creator -->
<g id="edge10" class="edge">
<title>CollectionProfile&#45;&gt;Creator</title>
<path fill="none" stroke="black" stroke-dasharray="5,2" d="M262.87,-148.21C269.8,-145.25 276.69,-142.09 283.15,-138.81 300.08,-130.22 302.33,-124.61 319.15,-115.81 357.99,-95.49 369.76,-94.83 410.15,-77.81 421.86,-72.88 434.75,-67.4 445.85,-62.68"/>
<polygon fill="black" stroke="black" points="261.34,-145.05 253.44,-152.12 264.02,-151.52 261.34,-145.05"/>
</g>
<!-- CollectionProfile&#45;&gt;Project -->
<g id="edge12" class="edge">
<title>CollectionProfile&#45;&gt;Project</title>
<path fill="none" stroke="black" stroke-dasharray="5,2" d="M268.22,-148.81C273.52,-145.86 278.59,-142.54 283.15,-138.81 306.06,-120.09 298.78,-104.27 319.15,-82.81 324.39,-77.29 330.71,-72.09 336.91,-67.56"/>
<polygon fill="black" stroke="black" points="266.46,-145.78 259.12,-153.42 269.62,-152.02 266.46,-145.78"/>
</g>
<!-- CollectionProfile&#45;&gt;Updater -->
<g id="edge13" class="edge">
<title>CollectionProfile&#45;&gt;Updater</title>
<path fill="none" stroke="black" stroke-dasharray="5,2" d="M271.03,-148.96C275.46,-146.01 279.57,-142.64 283.15,-138.81 319.72,-99.68 276,-55.52 319.15,-23.81 385.2,24.72 488.99,-12.86 539.13,-36.05"/>
<polygon fill="black" stroke="black" points="269.04,-146.07 262.19,-154.15 272.58,-152.11 269.04,-146.07"/>
</g>
<!-- Role&#45;&gt;Verifier -->
<!-- VerifierRole&#45;&gt;Verifier -->
<g id="edge8" class="edge">
<title>VerifierRole&#45;&gt;Verifier</title>
<path fill="none" stroke="black" d="M406.18,-206.94C416.04,-209.41 426.54,-212.03 436.25,-214.46"/>
<polygon fill="black" stroke="black" points="435.47,-217.87 446.02,-216.9 437.17,-211.08 435.47,-217.87"/>
</g>
<!-- Creator&#45;&gt;Updater -->
<!-- Project&#45;&gt;Creator -->
<!-- Identifier -->
<g id="node1" class="node">
<title>Identifier</title>
<g id="a_node1"><a xlink:href="/develop/Data/models.html#identifier" xlink:title="Identifier" target="_top">
<ellipse fill="#abcdef" stroke="#dddeee" cx="42.9" cy="-222.81" rx="42.79" ry="18"/>
<text text-anchor="middle" x="42.9" y="-219.11" font-family="Times,serif" font-size="14.00">Identifier</text>
</a>
</g>
</g>
<!-- Tag -->
<g id="node2" class="node">
<title>Tag</title>
<g id="a_node2"><a xlink:href="/develop/Data/models.html#tag" xlink:title="Tag" target="_top">
<ellipse fill="#abcdef" stroke="#dddeee" cx="42.9" cy="-113.81" rx="27" ry="18"/>
<text text-anchor="middle" x="42.9" y="-110.11" font-family="Times,serif" font-size="14.00">Tag</text>
</a>
</g>
</g>
<!-- Note -->
<g id="node3" class="node">
<title>Note</title>
<g id="a_node3"><a xlink:href="/develop/Data/models.html#note" xlink:title="Note" target="_top">
<ellipse fill="#abcdef" stroke="#dddeee" cx="42.9" cy="-168.81" rx="27.9" ry="18"/>
<text text-anchor="middle" x="42.9" y="-165.11" font-family="Times,serif" font-size="14.00">Note</text>
</a>
</g>
</g>
<!-- Otu -->
<g id="node4" class="node">
<title>Otu</title>
<g id="a_node4"><a xlink:href="/develop/Data/models.html#otu" xlink:title="Otu" target="_top">
<path fill="#fedcba" stroke="#dddeee" d="M349.65,-341.81C349.65,-341.81 379.65,-341.81 379.65,-341.81 385.65,-341.81 391.65,-347.81 391.65,-353.81 391.65,-353.81 391.65,-365.81 391.65,-365.81 391.65,-371.81 385.65,-377.81 379.65,-377.81 379.65,-377.81 349.65,-377.81 349.65,-377.81 343.65,-377.81 337.65,-371.81 337.65,-365.81 337.65,-365.81 337.65,-353.81 337.65,-353.81 337.65,-347.81 343.65,-341.81 349.65,-341.81"/>
<text text-anchor="middle" x="364.65" y="-356.11" font-family="Times,serif" font-size="14.00">Otu</text>
</a>
</g>
</g>
<!-- CollectionProfile -->
<g id="node5" class="node">
<title>CollectionProfile</title>
<g id="a_node5"><a xlink:href="/develop/Data/models.html#collection-profile" xlink:title="CollectionProfile" target="_top">
<polygon fill="#cdefab" stroke="#dedede" points="279.33,-162.36 279.33,-177.27 234.31,-187.81 170.64,-187.81 125.62,-177.27 125.62,-162.36 170.64,-151.81 234.31,-151.81 279.33,-162.36"/>
<polygon fill="none" stroke="#dedede" points="283.33,-159.19 283.33,-180.44 234.77,-191.81 170.18,-191.81 121.61,-180.44 121.61,-159.19 170.18,-147.81 234.77,-147.81 283.33,-159.19"/>
<text text-anchor="middle" x="202.47" y="-166.11" font-family="Times,serif" font-size="14.00">CollectionProfile</text>
</a>
</g>
</g>
<!-- Keyword -->
<g id="node6" class="node">
<title>Keyword</title>
<g id="a_node6"><a xlink:href="/develop/Data/models.html#keyword" xlink:title="Keyword" target="_top">
<polygon fill="#eeefff" stroke="#dddeee" points="235.97,-129.81 168.97,-129.81 168.97,-93.81 235.97,-93.81 235.97,-129.81"/>
<text text-anchor="middle" x="202.47" y="-108.11" font-family="Times,serif" font-size="14.00">Keyword</text>
</a>
</g>
</g>
<!-- PinboardItem -->
<g id="node7" class="node">
<title>PinboardItem</title>
<g id="a_node7"><a xlink:href="/develop/Data/models.html#pinboard-item" xlink:title="PinboardItem" target="_top">
<polygon fill="#eeefff" stroke="#dddeee" points="410.15,-322.81 319.15,-322.81 319.15,-286.81 410.15,-286.81 410.15,-322.81"/>
<text text-anchor="middle" x="364.65" y="-301.11" font-family="Times,serif" font-size="14.00">PinboardItem</text>
</a>
</g>
</g>
<!-- Role -->
<g id="node8" class="node">
<title>Role</title>
<g id="a_node8"><a xlink:href="/develop/Data/models.html#role" xlink:title="Role" target="_top">
<polygon fill="#eeefff" stroke="#dddeee" points="391.65,-268.81 337.65,-268.81 337.65,-232.81 391.65,-232.81 391.65,-268.81"/>
<text text-anchor="middle" x="364.65" y="-247.11" font-family="Times,serif" font-size="14.00">Role</text>
</a>
</g>
</g>
<!-- VerifierRole -->
<g id="node9" class="node">
<title>VerifierRole</title>
<g id="a_node9"><a xlink:href="/develop/Data/models.html#verifier-role" xlink:title="VerifierRole" target="_top">
<polygon fill="#eeefff" stroke="#dddeee" points="406.15,-214.81 323.15,-214.81 323.15,-178.81 406.15,-178.81 406.15,-214.81"/>
<text text-anchor="middle" x="364.65" y="-193.11" font-family="Times,serif" font-size="14.00">VerifierRole</text>
</a>
</g>
</g>
<!-- Verifier -->
<g id="node10" class="node">
<title>Verifier</title>
<g id="a_node10"><a xlink:href="/develop/Data/models.html#verifier" xlink:title="Verifier" target="_top">
<polygon fill="#eeefff" stroke="#dddeee" points="503.15,-241.81 446.15,-241.81 446.15,-205.81 503.15,-205.81 503.15,-241.81"/>
<text text-anchor="middle" x="474.65" y="-220.11" font-family="Times,serif" font-size="14.00">Verifier</text>
</a>
</g>
</g>
<!-- Container -->
<g id="node11" class="node">
<title>Container</title>
<g id="a_node11"><a xlink:href="/develop/Data/models.html#container" xlink:title="Container" target="_top">
<polygon fill="#eeefff" stroke="#dddeee" points="399.65,-160.81 329.65,-160.81 329.65,-124.81 399.65,-124.81 399.65,-160.81"/>
<text text-anchor="middle" x="364.65" y="-139.11" font-family="Times,serif" font-size="14.00">Container</text>
</a>
</g>
</g>
<!-- Creator -->
<g id="node12" class="node">
<title>Creator</title>
<g id="a_node12"><a xlink:href="/develop/Data/models.html#creator" xlink:title="Creator" target="_top">
<polygon fill="#eeefff" stroke="#dddeee" points="503.15,-68.81 446.15,-68.81 446.15,-32.81 503.15,-32.81 503.15,-68.81"/>
<text text-anchor="middle" x="474.65" y="-47.11" font-family="Times,serif" font-size="14.00">Creator</text>
</a>
</g>
</g>
<!-- Project -->
<g id="node13" class="node">
<title>Project</title>
<g id="a_node13"><a xlink:href="/develop/Data/models.html#project" xlink:title="Project" target="_top">
<polygon fill="#eeefff" stroke="#dddeee" points="392.15,-68.81 337.15,-68.81 337.15,-32.81 392.15,-32.81 392.15,-68.81"/>
<text text-anchor="middle" x="364.65" y="-47.11" font-family="Times,serif" font-size="14.00">Project</text>
</a>
</g>
</g>
<!-- Updater -->
<g id="node14" class="node">
<title>Updater</title>
<g id="a_node14"><a xlink:href="/develop/Data/models.html#updater" xlink:title="Updater" target="_top">
<polygon fill="#eeefff" stroke="#dddeee" points="599.15,-68.81 539.15,-68.81 539.15,-32.81 599.15,-32.81 599.15,-68.81"/>
<text text-anchor="middle" x="569.15" y="-47.11" font-family="Times,serif" font-size="14.00">Updater</text>
</a>
</g>
</g>
</g>
</svg>
