<?xml version="1.0" encoding="UTF-8" standalone="no"?>
<!DOCTYPE svg PUBLIC "-//W3C//DTD SVG 1.1//EN"
 "http://www.w3.org/Graphics/SVG/1.1/DTD/svg11.dtd">
<!-- Generated by graphviz version 2.50.0 (20211204.2007)
 -->
<!-- Title: CollectingEvent Pages: 1 -->
<svg width="867pt" height="1193pt"
 viewBox="0.00 0.00 866.62 1193.00" xmlns="http://www.w3.org/2000/svg" xmlns:xlink="http://www.w3.org/1999/xlink">
<g id="graph0" class="graph" transform="scale(1 1) rotate(0) translate(4 1189)">
<title>CollectingEvent</title>
<polygon fill="white" stroke="transparent" points="-4,4 -4,-1189 862.62,-1189 862.62,4 -4,4"/>
<text text-anchor="middle" x="429.31" y="-22.8" font-family="Times,serif" font-size="14.00">Algorithmically generated relationships for CollectingEvent based on assertions of &#39;has_many&#39;, &#39;has_one&#39;, &#39;belongs_to&#39;. </text>
<text text-anchor="middle" x="429.31" y="-7.8" font-family="Times,serif" font-size="14.00">Generated 2022&#45;01&#45;25 11:37:25 &#45;0600.</text>
<!-- Citation&#45;&gt;Source -->
<g id="edge26" class="edge">
<title>Citation&#45;&gt;Source</title>
<path fill="none" stroke="black" d="M98.27,-1112C169.15,-1112 320.27,-1112 389.77,-1112"/>
<polygon fill="black" stroke="black" points="389.81,-1115.5 399.81,-1112 389.81,-1108.5 389.81,-1115.5"/>
</g>
<!-- Citation&#45;&gt;CitationTopic -->
<g id="edge1" class="edge">
<title>Citation&#45;&gt;CitationTopic</title>
<path fill="none" stroke="black" d="M91.78,-1122.22C115.27,-1129.8 147.9,-1140.34 175.61,-1149.29"/>
<polygon fill="black" stroke="black" points="174.59,-1152.64 185.18,-1152.38 176.74,-1145.98 174.59,-1152.64"/>
</g>
<!-- Confidence&#45;&gt;ConfidenceLevel -->
<g id="edge6" class="edge">
<title>Confidence&#45;&gt;ConfidenceLevel</title>
<path fill="none" stroke="black" d="M109.86,-774C127.59,-774 147.81,-774 166.56,-774"/>
<polygon fill="black" stroke="black" points="166.81,-777.5 176.81,-774 166.81,-770.5 166.81,-777.5"/>
</g>
<!-- Depiction&#45;&gt;Image -->
<g id="edge19" class="edge">
<title>Depiction&#45;&gt;Image</title>
<path fill="none" stroke="black" d="M104.89,-558C132.61,-558 167.76,-558 193.82,-558"/>
<polygon fill="black" stroke="black" points="194.03,-561.5 204.03,-558 194.03,-554.5 194.03,-561.5"/>
</g>
<!-- Tag&#45;&gt;Keyword -->
<g id="edge20" class="edge">
<title>Tag&#45;&gt;Keyword</title>
<path fill="none" stroke="black" d="M86.38,-504C113.29,-504 155.6,-504 187.42,-504"/>
<polygon fill="black" stroke="black" points="187.77,-507.5 197.77,-504 187.77,-500.5 187.77,-507.5"/>
</g>
<!-- CollectingEvent&#45;&gt;Citation -->
<g id="edge2" class="edge">
<title>CollectingEvent&#45;&gt;Citation</title>
<path fill="none" stroke="black" d="M210.86,-663.02C193.64,-683.45 169.08,-715.39 154.29,-747 98.96,-865.22 72.7,-1020.8 63.8,-1083.75"/>
<polygon fill="black" stroke="black" points="60.32,-1083.34 62.42,-1093.72 67.25,-1084.29 60.32,-1083.34"/>
</g>
<!-- CollectingEvent&#45;&gt;Confidence -->
<g id="edge7" class="edge">
<title>CollectingEvent&#45;&gt;Confidence</title>
<path fill="none" stroke="black" d="M211.11,-663.1C190.02,-686.22 154.43,-722.49 118.29,-747 113.45,-750.28 108.15,-753.35 102.78,-756.16"/>
<polygon fill="black" stroke="black" points="101.15,-753.06 93.75,-760.64 104.26,-759.34 101.15,-753.06"/>
</g>
<!-- CollectingEvent&#45;&gt;DataAttribute -->
<g id="edge8" class="edge">
<title>CollectingEvent&#45;&gt;DataAttribute</title>
<path fill="none" stroke="black" d="M189.09,-660.19C162.66,-672.45 128.5,-688.29 101.98,-700.6"/>
<polygon fill="black" stroke="black" points="100.18,-697.57 92.58,-704.95 103.12,-703.92 100.18,-697.57"/>
</g>
<!-- CollectingEvent&#45;&gt;Depiction -->
<g id="edge9" class="edge">
<title>CollectingEvent&#45;&gt;Depiction</title>
<path fill="none" stroke="black" d="M191.4,-621.16C169.9,-610.33 142.7,-596.76 118.29,-585 112.02,-581.98 105.35,-578.83 98.85,-575.79"/>
<polygon fill="black" stroke="black" points="100.05,-572.48 89.5,-571.44 97.09,-578.83 100.05,-572.48"/>
</g>
<!-- CollectingEvent&#45;&gt;Identifier -->
<g id="edge18" class="edge">
<title>CollectingEvent&#45;&gt;Identifier</title>
<path fill="none" stroke="black" d="M155.68,-651.98C140.28,-654.24 124.42,-656.57 110.15,-658.66"/>
<polygon fill="black" stroke="black" points="109.46,-655.22 100.07,-660.14 110.48,-662.15 109.46,-655.22"/>
</g>
<!-- CollectingEvent&#45;&gt;Tag -->
<g id="edge29" class="edge">
<title>CollectingEvent&#45;&gt;Tag</title>
<path fill="none" stroke="black" d="M196.56,-619.87C182.57,-610.23 166.76,-598.06 154.29,-585 134.37,-564.14 140.19,-549.77 118.29,-531 110.97,-524.72 101.94,-519.6 93.2,-515.57"/>
<polygon fill="black" stroke="black" points="94.5,-512.32 83.93,-511.63 91.76,-518.76 94.5,-512.32"/>
</g>
<!-- CollectingEvent&#45;&gt;Note -->
<g id="edge22" class="edge">
<title>CollectingEvent&#45;&gt;Note</title>
<path fill="none" stroke="black" d="M159.66,-628.95C137.89,-625.24 114.82,-621.31 96.38,-618.17"/>
<polygon fill="black" stroke="black" points="96.83,-614.7 86.38,-616.47 95.65,-621.6 96.83,-614.7"/>
</g>
<!-- CollectingEvent&#45;&gt;CollectionObject -->
<g id="edge3" class="edge">
<title>CollectingEvent&#45;&gt;CollectionObject</title>
<path fill="none" stroke="black" d="M252,-663.04C269.19,-683.49 293.72,-715.44 308.62,-747 335.3,-803.55 302.03,-837.22 344.62,-883 349.8,-888.57 356.14,-893.04 362.98,-896.61"/>
<polygon fill="black" stroke="black" points="361.99,-900.01 372.54,-900.96 364.89,-893.63 361.99,-900.01"/>
</g>
<!-- CollectingEvent&#45;&gt;Source -->
<g id="edge41" class="edge">
<title>CollectingEvent&#45;&gt;Source</title>
<path fill="none" stroke="black" stroke-dasharray="1,5" d="M260.62,-671.14C277.53,-691.1 297.79,-718.73 308.62,-747 335.14,-816.31 299.88,-1019.79 344.62,-1079 357.68,-1096.3 381.33,-1104.56 399.8,-1108.49"/>
<polygon fill="black" stroke="black" points="263.05,-668.6 253.85,-663.34 257.76,-673.19 263.05,-668.6"/>
</g>
<!-- CollectingEvent&#45;&gt;CollectorRole -->
<g id="edge4" class="edge">
<title>CollectingEvent&#45;&gt;CollectorRole</title>
<path fill="none" stroke="black" d="M250.37,-663.33C266.68,-684.23 290.85,-716.7 308.62,-747 327.72,-779.59 317.07,-798.14 344.62,-824 352.26,-831.17 361.7,-836.81 371.41,-841.2"/>
<polygon fill="black" stroke="black" points="370.18,-844.48 380.76,-845.05 372.84,-838.01 370.18,-844.48"/>
</g>
<!-- CollectingEvent&#45;&gt;Documentation -->
<g id="edge10" class="edge">
<title>CollectingEvent&#45;&gt;Documentation</title>
<path fill="none" stroke="black" d="M271.43,-620.96C285.34,-611.85 299.75,-599.78 308.62,-585 365.92,-489.5 273.08,-422.36 344.62,-337 350.59,-329.87 358.5,-324.61 367.04,-320.73"/>
<polygon fill="black" stroke="black" points="368.45,-323.94 376.5,-317.05 365.91,-317.42 368.45,-323.94"/>
</g>
<!-- CollectingEvent&#45;&gt;Georeference -->
<g id="edge16" class="edge">
<title>CollectingEvent&#45;&gt;Georeference</title>
<path fill="none" stroke="black" d="M271.63,-621.07C285.57,-611.98 299.94,-599.89 308.62,-585 376.68,-468.22 259.12,-387.7 344.62,-283 351.76,-274.25 361.82,-268.31 372.44,-264.29"/>
<polygon fill="black" stroke="black" points="373.85,-267.52 382.29,-261.11 371.69,-260.86 373.85,-267.52"/>
</g>
<!-- CollectingEvent&#45;&gt;GeoLocateGeoreference -->
<g id="edge14" class="edge">
<title>CollectingEvent&#45;&gt;GeoLocateGeoreference</title>
<path fill="none" stroke="black" d="M273.32,-621.61C294.41,-611.9 320.66,-600.28 344.62,-591 349.44,-589.13 354.46,-587.27 359.53,-585.45"/>
<polygon fill="black" stroke="black" points="361.03,-588.64 369.3,-582.02 358.7,-582.03 361.03,-588.64"/>
</g>
<!-- CollectingEvent&#45;&gt;GpxGeoreference -->
<g id="edge17" class="edge">
<title>CollectingEvent&#45;&gt;GpxGeoreference</title>
<path fill="none" stroke="black" d="M265.62,-619.79C279.64,-610.05 295.67,-597.82 308.62,-585 327.56,-566.23 322.97,-552.57 344.62,-537 349.7,-533.34 355.31,-530.16 361.13,-527.39"/>
<polygon fill="black" stroke="black" points="362.63,-530.56 370.42,-523.38 359.85,-524.13 362.63,-530.56"/>
</g>
<!-- CollectingEvent&#45;&gt;Label -->
<g id="edge21" class="edge">
<title>CollectingEvent&#45;&gt;Label</title>
<path fill="none" stroke="black" d="M269.19,-620.51C283.13,-611.2 298.16,-599.11 308.62,-585 337.25,-546.38 310.29,-516.66 344.62,-483 356.75,-471.1 374.24,-464.44 389.91,-460.72"/>
<polygon fill="black" stroke="black" points="390.78,-464.12 399.87,-458.67 389.37,-457.26 390.78,-464.12"/>
</g>
<!-- CollectingEvent&#45;&gt;PinboardItem -->
<g id="edge24" class="edge">
<title>CollectingEvent&#45;&gt;PinboardItem</title>
<path fill="none" stroke="black" d="M271.95,-621.26C285.93,-612.19 300.25,-600.06 308.62,-585 358.84,-494.59 268.71,-191.24 344.62,-121 408.52,-61.86 519.15,-98 580.64,-125.53"/>
<polygon fill="black" stroke="black" points="579.53,-128.86 590.07,-129.85 582.45,-122.5 579.53,-128.86"/>
</g>
<!-- CollectingEvent&#45;&gt;Role -->
<g id="edge25" class="edge">
<title>CollectingEvent&#45;&gt;Role</title>
<path fill="none" stroke="black" d="M308.72,-631.94C336.49,-628.64 366.64,-625.06 389.43,-622.36"/>
<polygon fill="black" stroke="black" points="390.15,-625.8 399.66,-621.14 389.32,-618.85 390.15,-625.8"/>
</g>
<!-- CollectingEvent&#45;&gt;SubsequentCitation -->
<g id="edge27" class="edge">
<title>CollectingEvent&#45;&gt;SubsequentCitation</title>
<path fill="none" stroke="black" d="M253.74,-663.39C271.57,-683.57 296.07,-714.92 308.62,-747 332.43,-807.89 301.53,-989.82 344.62,-1039 348.18,-1043.06 473.24,-1074.54 555.15,-1094.81"/>
<polygon fill="black" stroke="black" points="554.37,-1098.22 564.92,-1097.23 556.05,-1091.43 554.37,-1098.22"/>
</g>
<!-- CollectingEvent&#45;&gt;VerifierRole -->
<g id="edge31" class="edge">
<title>CollectingEvent&#45;&gt;VerifierRole</title>
<path fill="none" stroke="black" d="M270.7,-621.01C284.69,-611.85 299.34,-599.72 308.62,-585 354.22,-512.67 290.02,-461.82 344.62,-396 352.73,-386.21 364.25,-379.41 376.07,-374.68"/>
<polygon fill="black" stroke="black" points="377.3,-377.95 385.56,-371.31 374.96,-371.35 377.3,-377.95"/>
</g>
<!-- CollectingEvent&#45;&gt;Version -->
<g id="edge33" class="edge">
<title>CollectingEvent&#45;&gt;Version</title>
<path fill="none" stroke="black" d="M271.77,-621.15C285.72,-612.08 300.07,-599.97 308.62,-585 387.47,-446.9 276.21,-372.57 344.62,-229 355.23,-206.71 374.63,-187.05 391.84,-172.67"/>
<polygon fill="black" stroke="black" points="394.47,-175.05 400.06,-166.05 390.08,-169.6 394.47,-175.05"/>
</g>
<!-- CollectingEvent&#45;&gt;Creator -->
<g id="edge34" class="edge">
<title>CollectingEvent&#45;&gt;Creator</title>
<path fill="none" stroke="black" stroke-dasharray="5,2" d="M254.22,-671.54C284.95,-714.44 338.05,-787.71 344.62,-791 410.18,-823.84 439.68,-813.08 509.62,-791 548.62,-778.69 585.89,-747.97 607.09,-728.1"/>
<polygon fill="black" stroke="black" points="256.88,-669.24 248.21,-663.14 251.19,-673.31 256.88,-669.24"/>
</g>
<!-- CollectingEvent&#45;&gt;GeographicArea -->
<g id="edge35" class="edge">
<title>CollectingEvent&#45;&gt;GeographicArea</title>
<path fill="none" stroke="black" stroke-dasharray="5,2" d="M280.5,-615.38C291.54,-607.17 301.98,-597.02 308.62,-585 362.15,-488.06 278.98,-177.18 344.62,-88 351.82,-78.21 362.49,-71.41 373.74,-66.69"/>
<polygon fill="black" stroke="black" points="278.22,-612.7 271.99,-621.28 282.2,-618.46 278.22,-612.7"/>
</g>
<!-- CollectingEvent&#45;&gt;Project -->
<g id="edge36" class="edge">
<title>CollectingEvent&#45;&gt;Project</title>
<path fill="none" stroke="black" stroke-dasharray="5,2" d="M290.77,-661.78C326.85,-674.63 371.46,-690.52 399.35,-700.46"/>
<polygon fill="black" stroke="black" points="291.92,-658.47 281.32,-658.41 289.57,-665.06 291.92,-658.47"/>
</g>
<!-- CollectingEvent&#45;&gt;Updater -->
<g id="edge37" class="edge">
<title>CollectingEvent&#45;&gt;Updater</title>
<path fill="none" stroke="black" stroke-dasharray="5,2" d="M259.54,-671.05C276.21,-691.16 296.62,-718.99 308.62,-747 342.63,-826.41 286.05,-874.5 344.62,-938 407.41,-1006.08 453.82,-980.67 545.62,-993 616.53,-1002.53 648.66,-1034.96 706.62,-993 794.38,-929.46 800.78,-780.39 800.21,-728.33"/>
<polygon fill="black" stroke="black" points="262.02,-668.56 252.89,-663.19 256.68,-673.09 262.02,-668.56"/>
</g>
<!-- CollectingEvent&#45;&gt;AccessionProviderRole -->
<g id="edge38" class="edge">
<title>CollectingEvent&#45;&gt;AccessionProviderRole</title>
<path fill="none" stroke="black" stroke-dasharray="1,5" d="M278.62,-615.11C289.9,-606.81 300.92,-596.7 308.62,-585 347.72,-525.55 288.93,-473.3 344.62,-429 402.01,-383.35 444.96,-394.4 509.62,-429 535.05,-442.61 528.63,-459.69 545.62,-483 567.04,-512.39 593.64,-545.17 609.99,-564.93"/>
<polygon fill="black" stroke="black" points="276.62,-612.24 270.41,-620.82 280.62,-617.99 276.62,-612.24"/>
</g>
<!-- CollectingEvent&#45;&gt;DeaccessionRecipientRole -->
<g id="edge39" class="edge">
<title>CollectingEvent&#45;&gt;DeaccessionRecipientRole</title>
<path fill="none" stroke="black" stroke-dasharray="1,5" d="M318.93,-644.39C327.61,-644.64 336.28,-644.85 344.62,-645 417.94,-646.31 436.33,-647.54 509.62,-645 521.17,-644.6 533.36,-643.98 545.31,-643.25"/>
<polygon fill="black" stroke="black" points="318.87,-640.89 308.77,-644.09 318.66,-647.89 318.87,-640.89"/>
</g>
<!-- CollectingEvent&#45;&gt;OriginCitation -->
<g id="edge40" class="edge">
<title>CollectingEvent&#45;&gt;OriginCitation</title>
<path fill="none" stroke="black" stroke-dasharray="1,5" d="M259.98,-670.86C276.83,-690.9 297.27,-718.72 308.62,-747 351.38,-853.64 265.59,-919.6 344.62,-1003 376.02,-1036.14 507.19,-1050.06 578.48,-1055.26"/>
<polygon fill="black" stroke="black" points="262.43,-668.34 253.25,-663.04 257.12,-672.91 262.43,-668.34"/>
</g>
<!-- CollectingEvent&#45;&gt;VerbatimDataGeoreference -->
<g id="edge42" class="edge">
<title>CollectingEvent&#45;&gt;VerbatimDataGeoreference</title>
<path fill="none" stroke="black" stroke-dasharray="1,5" d="M260.41,-670.41C281.78,-691.44 312.87,-719.08 344.62,-737 350.46,-740.3 356.76,-743.27 363.19,-745.93"/>
<polygon fill="black" stroke="black" points="262.82,-667.87 253.27,-663.27 257.87,-672.82 262.82,-667.87"/>
</g>
<!-- CollectionObject&#45;&gt;Otu -->
<g id="edge23" class="edge">
<title>CollectionObject&#45;&gt;Otu</title>
<path fill="none" stroke="black" d="M481.69,-911C515.73,-911 558.88,-911 588.92,-911"/>
<polygon fill="black" stroke="black" points="588.96,-914.5 598.96,-911 588.96,-907.5 588.96,-914.5"/>
</g>
<!-- CollectionObject&#45;&gt;DwcOccurrence -->
<g id="edge12" class="edge">
<title>CollectionObject&#45;&gt;DwcOccurrence</title>
<path fill="none" stroke="black" d="M481.69,-925.96C507.15,-933.06 537.7,-941.6 564.06,-948.95"/>
<polygon fill="black" stroke="black" points="563.36,-952.39 573.93,-951.71 565.24,-945.65 563.36,-952.39"/>
</g>
<!-- Source&#45;&gt;SubsequentCitation -->
<!-- Source&#45;&gt;OriginCitation -->
<!-- CitationTopic&#45;&gt;Topic -->
<g id="edge30" class="edge">
<title>CitationTopic&#45;&gt;Topic</title>
<path fill="none" stroke="black" d="M277.86,-1167C312.01,-1167 358.18,-1167 389.88,-1167"/>
<polygon fill="black" stroke="black" points="390.03,-1170.5 400.03,-1167 390.03,-1163.5 390.03,-1170.5"/>
</g>
<!-- CollectorRole&#45;&gt;Collector -->
<g id="edge5" class="edge">
<title>CollectorRole&#45;&gt;Collector</title>
<path fill="none" stroke="black" d="M473.31,-856C506.11,-856 550.2,-856 582.41,-856"/>
<polygon fill="black" stroke="black" points="582.42,-859.5 592.42,-856 582.42,-852.5 582.42,-859.5"/>
</g>
<!-- Documentation&#45;&gt;Document -->
<g id="edge11" class="edge">
<title>Documentation&#45;&gt;Document</title>
<path fill="none" stroke="black" d="M477.83,-310C508.82,-310 548.44,-310 578.78,-310"/>
<polygon fill="black" stroke="black" points="579.1,-313.5 589.1,-310 579.1,-306.5 579.1,-313.5"/>
</g>
<!-- Georeference&#45;&gt;ErrorGeographicItem -->
<g id="edge13" class="edge">
<title>Georeference&#45;&gt;ErrorGeographicItem</title>
<path fill="none" stroke="black" d="M471.84,-244.02C494.65,-237.76 523.22,-229.93 549.49,-222.73"/>
<polygon fill="black" stroke="black" points="550.71,-226.03 559.43,-220.01 548.86,-219.27 550.71,-226.03"/>
</g>
<!-- Georeference&#45;&gt;GeographicItem -->
<g id="edge15" class="edge">
<title>Georeference&#45;&gt;GeographicItem</title>
<path fill="none" stroke="black" d="M471.84,-256C498.71,-256 533.55,-256 563.23,-256"/>
<polygon fill="black" stroke="black" points="563.49,-259.5 573.49,-256 563.49,-252.5 563.49,-259.5"/>
</g>
<!-- Role&#45;&gt;Verifier -->
<!-- Role&#45;&gt;AccessionProviderRole -->
<!-- Role&#45;&gt;DeaccessionRecipientRole -->
<!-- SubsequentCitation&#45;&gt;SubsequentSource -->
<g id="edge28" class="edge">
<title>SubsequentCitation&#45;&gt;SubsequentSource</title>
<path fill="none" stroke="black" d="M687.45,-1112C701.97,-1112 717.58,-1112 732.4,-1112"/>
<polygon fill="black" stroke="black" points="732.51,-1115.5 742.51,-1112 732.51,-1108.5 732.51,-1115.5"/>
</g>
<!-- VerifierRole&#45;&gt;Verifier -->
<g id="edge32" class="edge">
<title>VerifierRole&#45;&gt;Verifier</title>
<path fill="none" stroke="black" d="M468.68,-378.96C481.86,-384.08 496.47,-390.02 509.62,-396 536.56,-408.25 566.16,-423.66 588.65,-435.8"/>
<polygon fill="black" stroke="black" points="587.06,-438.92 597.51,-440.62 590.4,-432.77 587.06,-438.92"/>
</g>
<!-- Version&#45;&gt;PinboardItem -->
<!-- Creator&#45;&gt;Updater -->
<!-- Project&#45;&gt;Creator -->
<!-- Citation -->
<g id="node1" class="node">
<title>Citation</title>
<g id="a_node1"><a xlink:href="/develop/Data/models.html#citation" xlink:title="Citation" target="_top">
<ellipse fill="#abcdef" stroke="#dddeee" cx="59.14" cy="-1112" rx="38.99" ry="18"/>
<text text-anchor="middle" x="59.14" y="-1108.3" font-family="Times,serif" font-size="14.00">Citation</text>
</a>
</g>
</g>
<!-- Confidence -->
<g id="node2" class="node">
<title>Confidence</title>
<g id="a_node2"><a xlink:href="/develop/Data/models.html#confidence" xlink:title="Confidence" target="_top">
<ellipse fill="#abcdef" stroke="#dddeee" cx="59.14" cy="-774" rx="50.89" ry="18"/>
<text text-anchor="middle" x="59.14" y="-770.3" font-family="Times,serif" font-size="14.00">Confidence</text>
</a>
</g>
</g>
<!-- DataAttribute -->
<g id="node3" class="node">
<title>DataAttribute</title>
<g id="a_node3"><a xlink:href="/develop/Data/models.html#data-attribute" xlink:title="DataAttribute" target="_top">
<ellipse fill="#abcdef" stroke="#dddeee" cx="59.14" cy="-720" rx="59.29" ry="18"/>
<text text-anchor="middle" x="59.14" y="-716.3" font-family="Times,serif" font-size="14.00">DataAttribute</text>
</a>
</g>
</g>
<!-- Depiction -->
<g id="node4" class="node">
<title>Depiction</title>
<g id="a_node4"><a xlink:href="/develop/Data/models.html#depiction" xlink:title="Depiction" target="_top">
<ellipse fill="#abcdef" stroke="#dddeee" cx="59.14" cy="-558" rx="45.49" ry="18"/>
<text text-anchor="middle" x="59.14" y="-554.3" font-family="Times,serif" font-size="14.00">Depiction</text>
</a>
</g>
</g>
<!-- Identifier -->
<g id="node5" class="node">
<title>Identifier</title>
<g id="a_node5"><a xlink:href="/develop/Data/models.html#identifier" xlink:title="Identifier" target="_top">
<ellipse fill="#abcdef" stroke="#dddeee" cx="59.14" cy="-666" rx="42.79" ry="18"/>
<text text-anchor="middle" x="59.14" y="-662.3" font-family="Times,serif" font-size="14.00">Identifier</text>
</a>
</g>
</g>
<!-- Tag -->
<g id="node6" class="node">
<title>Tag</title>
<g id="a_node6"><a xlink:href="/develop/Data/models.html#tag" xlink:title="Tag" target="_top">
<ellipse fill="#abcdef" stroke="#dddeee" cx="59.14" cy="-504" rx="27" ry="18"/>
<text text-anchor="middle" x="59.14" y="-500.3" font-family="Times,serif" font-size="14.00">Tag</text>
</a>
</g>
</g>
<!-- Note -->
<g id="node7" class="node">
<title>Note</title>
<g id="a_node7"><a xlink:href="/develop/Data/models.html#note" xlink:title="Note" target="_top">
<ellipse fill="#abcdef" stroke="#dddeee" cx="59.14" cy="-612" rx="27.9" ry="18"/>
<text text-anchor="middle" x="59.14" y="-608.3" font-family="Times,serif" font-size="14.00">Note</text>
</a>
</g>
</g>
<!-- CollectingEvent -->
<g id="node8" class="node">
<title>CollectingEvent</title>
<g id="a_node8"><a xlink:href="/develop/Data/models.html#collecting-event" xlink:title="CollectingEvent" target="_top">
<polygon fill="#cdefab" stroke="#dedede" points="304.77,-633.54 304.77,-648.46 261.82,-659 201.08,-659 158.13,-648.46 158.13,-633.54 201.08,-623 261.82,-623 304.77,-633.54"/>
<polygon fill="none" stroke="#dedede" points="308.78,-630.41 308.78,-651.59 262.31,-663 200.6,-663 154.13,-651.59 154.13,-630.41 200.6,-619 262.31,-619 308.78,-630.41"/>
<text text-anchor="middle" x="231.45" y="-637.3" font-family="Times,serif" font-size="14.00">CollectingEvent</text>
</a>
</g>
</g>
<!-- CollectionObject -->
<g id="node9" class="node">
<title>CollectionObject</title>
<g id="a_node9"><a xlink:href="/develop/Data/models.html#collection-object" xlink:title="CollectionObject" target="_top">
<path fill="#fedcba" stroke="#dddeee" d="M384.62,-893C384.62,-893 469.62,-893 469.62,-893 475.62,-893 481.62,-899 481.62,-905 481.62,-905 481.62,-917 481.62,-917 481.62,-923 475.62,-929 469.62,-929 469.62,-929 384.62,-929 384.62,-929 378.62,-929 372.62,-923 372.62,-917 372.62,-917 372.62,-905 372.62,-905 372.62,-899 378.62,-893 384.62,-893"/>
<text text-anchor="middle" x="427.12" y="-907.3" font-family="Times,serif" font-size="14.00">CollectionObject</text>
</a>
</g>
</g>
<!-- Otu -->
<g id="node10" class="node">
<title>Otu</title>
<g id="a_node10"><a xlink:href="/develop/Data/models.html#otu" xlink:title="Otu" target="_top">
<path fill="#fedcba" stroke="#dddeee" d="M611.12,-893C611.12,-893 641.12,-893 641.12,-893 647.12,-893 653.12,-899 653.12,-905 653.12,-905 653.12,-917 653.12,-917 653.12,-923 647.12,-929 641.12,-929 641.12,-929 611.12,-929 611.12,-929 605.12,-929 599.12,-923 599.12,-917 599.12,-917 599.12,-905 599.12,-905 599.12,-899 605.12,-893 611.12,-893"/>
<text text-anchor="middle" x="626.12" y="-907.3" font-family="Times,serif" font-size="14.00">Otu</text>
</a>
</g>
</g>
<!-- Source -->
<g id="node11" class="node">
<title>Source</title>
<g id="a_node11"><a xlink:href="/develop/Data/models.html#source" xlink:title="Source" target="_top">
<path fill="#fedcba" stroke="#dddeee" d="M412.12,-1094C412.12,-1094 442.12,-1094 442.12,-1094 448.12,-1094 454.12,-1100 454.12,-1106 454.12,-1106 454.12,-1118 454.12,-1118 454.12,-1124 448.12,-1130 442.12,-1130 442.12,-1130 412.12,-1130 412.12,-1130 406.12,-1130 400.12,-1124 400.12,-1118 400.12,-1118 400.12,-1106 400.12,-1106 400.12,-1100 406.12,-1094 412.12,-1094"/>
<text text-anchor="middle" x="427.12" y="-1108.3" font-family="Times,serif" font-size="14.00">Source</text>
</a>
</g>
</g>
<!-- CitationTopic -->
<g id="node12" class="node">
<title>CitationTopic</title>
<g id="a_node12"><a xlink:href="/develop/Data/models.html#citation-topic" xlink:title="CitationTopic" target="_top">
<polygon fill="#eeefff" stroke="#dddeee" points="277.45,-1185 185.45,-1185 185.45,-1149 277.45,-1149 277.45,-1185"/>
<text text-anchor="middle" x="231.45" y="-1163.3" font-family="Times,serif" font-size="14.00">CitationTopic</text>
</a>
</g>
</g>
<!-- CollectorRole -->
<g id="node13" class="node">
<title>CollectorRole</title>
<g id="a_node13"><a xlink:href="/develop/Data/models.html#collector-role" xlink:title="CollectorRole" target="_top">
<polygon fill="#eeefff" stroke="#dddeee" points="473.12,-874 381.12,-874 381.12,-838 473.12,-838 473.12,-874"/>
<text text-anchor="middle" x="427.12" y="-852.3" font-family="Times,serif" font-size="14.00">CollectorRole</text>
</a>
</g>
</g>
<!-- Collector -->
<g id="node14" class="node">
<title>Collector</title>
<g id="a_node14"><a xlink:href="/develop/Data/models.html#collector" xlink:title="Collector" target="_top">
<polygon fill="#eeefff" stroke="#dddeee" points="659.62,-874 592.62,-874 592.62,-838 659.62,-838 659.62,-874"/>
<text text-anchor="middle" x="626.12" y="-852.3" font-family="Times,serif" font-size="14.00">Collector</text>
</a>
</g>
</g>
<!-- ConfidenceLevel -->
<g id="node15" class="node">
<title>ConfidenceLevel</title>
<g id="a_node15"><a xlink:href="/develop/Data/models.html#confidence-level" xlink:title="ConfidenceLevel" target="_top">
<polygon fill="#eeefff" stroke="#dddeee" points="285.95,-792 176.95,-792 176.95,-756 285.95,-756 285.95,-792"/>
<text text-anchor="middle" x="231.45" y="-770.3" font-family="Times,serif" font-size="14.00">ConfidenceLevel</text>
</a>
</g>
</g>
<!-- Documentation -->
<g id="node16" class="node">
<title>Documentation</title>
<g id="a_node16"><a xlink:href="/develop/Data/models.html#documentation" xlink:title="Documentation" target="_top">
<polygon fill="#eeefff" stroke="#dddeee" points="477.62,-328 376.62,-328 376.62,-292 477.62,-292 477.62,-328"/>
<text text-anchor="middle" x="427.12" y="-306.3" font-family="Times,serif" font-size="14.00">Documentation</text>
</a>
</g>
</g>
<!-- Document -->
<g id="node17" class="node">
<title>Document</title>
<g id="a_node17"><a xlink:href="/develop/Data/models.html#document" xlink:title="Document" target="_top">
<polygon fill="#eeefff" stroke="#dddeee" points="663.12,-328 589.12,-328 589.12,-292 663.12,-292 663.12,-328"/>
<text text-anchor="middle" x="626.12" y="-306.3" font-family="Times,serif" font-size="14.00">Document</text>
</a>
</g>
</g>
<!-- DwcOccurrence -->
<g id="node18" class="node">
<title>DwcOccurrence</title>
<g id="a_node18"><a xlink:href="/develop/Data/models.html#dwc-occurrence" xlink:title="DwcOccurrence" target="_top">
<polygon fill="#eeefff" stroke="#dddeee" points="678.12,-984 574.12,-984 574.12,-948 678.12,-948 678.12,-984"/>
<text text-anchor="middle" x="626.12" y="-962.3" font-family="Times,serif" font-size="14.00">DwcOccurrence</text>
</a>
</g>
</g>
<!-- Georeference -->
<g id="node19" class="node">
<title>Georeference</title>
<g id="a_node19"><a xlink:href="/develop/Data/models.html#georeference" xlink:title="Georeference" target="_top">
<polygon fill="#eeefff" stroke="#dddeee" points="471.62,-274 382.62,-274 382.62,-238 471.62,-238 471.62,-274"/>
<text text-anchor="middle" x="427.12" y="-252.3" font-family="Times,serif" font-size="14.00">Georeference</text>
</a>
</g>
</g>
<!-- ErrorGeographicItem -->
<g id="node20" class="node">
<title>ErrorGeographicItem</title>
<g id="a_node20"><a xlink:href="/develop/Data/models.html#error-geographic-item" xlink:title="ErrorGeographicItem" target="_top">
<polygon fill="#eeefff" stroke="#dddeee" points="693.12,-220 559.12,-220 559.12,-184 693.12,-184 693.12,-220"/>
<text text-anchor="middle" x="626.12" y="-198.3" font-family="Times,serif" font-size="14.00">ErrorGeographicItem</text>
</a>
</g>
</g>
<!-- GeoLocateGeoreference -->
<g id="node21" class="node">
<title>GeoLocateGeoreference</title>
<g id="a_node21"><a xlink:href="/develop/Data/models.html#geo-locate-georeference" xlink:title="GeoLocateGeoreference" target="_top">
<polygon fill="#eeefff" stroke="#dddeee" points="501.62,-582 352.62,-582 352.62,-546 501.62,-546 501.62,-582"/>
<text text-anchor="middle" x="427.12" y="-560.3" font-family="Times,serif" font-size="14.00">GeoLocateGeoreference</text>
</a>
</g>
</g>
<!-- GeographicItem -->
<g id="node22" class="node">
<title>GeographicItem</title>
<g id="a_node22"><a xlink:href="/develop/Data/models.html#geographic-item" xlink:title="GeographicItem" target="_top">
<polygon fill="#eeefff" stroke="#dddeee" points="678.62,-274 573.62,-274 573.62,-238 678.62,-238 678.62,-274"/>
<text text-anchor="middle" x="626.12" y="-252.3" font-family="Times,serif" font-size="14.00">GeographicItem</text>
</a>
</g>
</g>
<!-- GpxGeoreference -->
<g id="node23" class="node">
<title>GpxGeoreference</title>
<g id="a_node23"><a xlink:href="/develop/Data/models.html#gpx-georeference" xlink:title="GpxGeoreference" target="_top">
<polygon fill="#eeefff" stroke="#dddeee" points="483.62,-528 370.62,-528 370.62,-492 483.62,-492 483.62,-528"/>
<text text-anchor="middle" x="427.12" y="-506.3" font-family="Times,serif" font-size="14.00">GpxGeoreference</text>
</a>
</g>
</g>
<!-- Image -->
<g id="node24" class="node">
<title>Image</title>
<g id="a_node24"><a xlink:href="/develop/Data/models.html#image" xlink:title="Image" target="_top">
<polygon fill="#eeefff" stroke="#dddeee" points="258.45,-576 204.45,-576 204.45,-540 258.45,-540 258.45,-576"/>
<text text-anchor="middle" x="231.45" y="-554.3" font-family="Times,serif" font-size="14.00">Image</text>
</a>
</g>
</g>
<!-- Keyword -->
<g id="node25" class="node">
<title>Keyword</title>
<g id="a_node25"><a xlink:href="/develop/Data/models.html#keyword" xlink:title="Keyword" target="_top">
<polygon fill="#eeefff" stroke="#dddeee" points="264.95,-522 197.95,-522 197.95,-486 264.95,-486 264.95,-522"/>
<text text-anchor="middle" x="231.45" y="-500.3" font-family="Times,serif" font-size="14.00">Keyword</text>
</a>
</g>
</g>
<!-- Label -->
<g id="node26" class="node">
<title>Label</title>
<g id="a_node26"><a xlink:href="/develop/Data/models.html#label" xlink:title="Label" target="_top">
<polygon fill="#eeefff" stroke="#dddeee" points="454.12,-474 400.12,-474 400.12,-438 454.12,-438 454.12,-474"/>
<text text-anchor="middle" x="427.12" y="-452.3" font-family="Times,serif" font-size="14.00">Label</text>
</a>
</g>
</g>
<!-- PinboardItem -->
<g id="node27" class="node">
<title>PinboardItem</title>
<g id="a_node27"><a xlink:href="/develop/Data/models.html#pinboard-item" xlink:title="PinboardItem" target="_top">
<polygon fill="#eeefff" stroke="#dddeee" points="671.62,-166 580.62,-166 580.62,-130 671.62,-130 671.62,-166"/>
<text text-anchor="middle" x="626.12" y="-144.3" font-family="Times,serif" font-size="14.00">PinboardItem</text>
</a>
</g>
</g>
<!-- Role -->
<g id="node28" class="node">
<title>Role</title>
<g id="a_node28"><a xlink:href="/develop/Data/models.html#role" xlink:title="Role" target="_top">
<polygon fill="#eeefff" stroke="#dddeee" points="454.12,-636 400.12,-636 400.12,-600 454.12,-600 454.12,-636"/>
<text text-anchor="middle" x="427.12" y="-614.3" font-family="Times,serif" font-size="14.00">Role</text>
</a>
</g>
</g>
<!-- SubsequentCitation -->
<g id="node29" class="node">
<title>SubsequentCitation</title>
<g id="a_node29"><a xlink:href="/develop/Data/models.html#subsequent-citation" xlink:title="SubsequentCitation" target="_top">
<polygon fill="#eeefff" stroke="#dddeee" points="687.12,-1130 565.12,-1130 565.12,-1094 687.12,-1094 687.12,-1130"/>
<text text-anchor="middle" x="626.12" y="-1108.3" font-family="Times,serif" font-size="14.00">SubsequentCitation</text>
</a>
</g>
</g>
<!-- SubsequentSource -->
<g id="node30" class="node">
<title>SubsequentSource</title>
<g id="a_node30"><a xlink:href="/develop/Data/models.html#subsequent-source" xlink:title="SubsequentSource" target="_top">
<polygon fill="#eeefff" stroke="#dddeee" points="858.62,-1130 742.62,-1130 742.62,-1094 858.62,-1094 858.62,-1130"/>
<text text-anchor="middle" x="800.62" y="-1108.3" font-family="Times,serif" font-size="14.00">SubsequentSource</text>
</a>
</g>
</g>
<!-- Topic -->
<g id="node31" class="node">
<title>Topic</title>
<g id="a_node31"><a xlink:href="/develop/Data/models.html#topic" xlink:title="Topic" target="_top">
<polygon fill="#eeefff" stroke="#dddeee" points="454.12,-1185 400.12,-1185 400.12,-1149 454.12,-1149 454.12,-1185"/>
<text text-anchor="middle" x="427.12" y="-1163.3" font-family="Times,serif" font-size="14.00">Topic</text>
</a>
</g>
</g>
<!-- VerifierRole -->
<g id="node32" class="node">
<title>VerifierRole</title>
<g id="a_node32"><a xlink:href="/develop/Data/models.html#verifier-role" xlink:title="VerifierRole" target="_top">
<polygon fill="#eeefff" stroke="#dddeee" points="468.62,-382 385.62,-382 385.62,-346 468.62,-346 468.62,-382"/>
<text text-anchor="middle" x="427.12" y="-360.3" font-family="Times,serif" font-size="14.00">VerifierRole</text>
</a>
</g>
</g>
<!-- Verifier -->
<g id="node33" class="node">
<title>Verifier</title>
<g id="a_node33"><a xlink:href="/develop/Data/models.html#verifier" xlink:title="Verifier" target="_top">
<polygon fill="#eeefff" stroke="#dddeee" points="654.62,-474 597.62,-474 597.62,-438 654.62,-438 654.62,-474"/>
<text text-anchor="middle" x="626.12" y="-452.3" font-family="Times,serif" font-size="14.00">Verifier</text>
</a>
</g>
</g>
<!-- Version -->
<g id="node34" class="node">
<title>Version</title>
<g id="a_node34"><a xlink:href="/develop/Data/models.html#version" xlink:title="Version" target="_top">
<polygon fill="#eeefff" stroke="#dddeee" points="456.12,-166 398.12,-166 398.12,-130 456.12,-130 456.12,-166"/>
<text text-anchor="middle" x="427.12" y="-144.3" font-family="Times,serif" font-size="14.00">Version</text>
</a>
</g>
</g>
<!-- Creator -->
<g id="node35" class="node">
<title>Creator</title>
<g id="a_node35"><a xlink:href="/develop/Data/models.html#creator" xlink:title="Creator" target="_top">
<polygon fill="#eeefff" stroke="#dddeee" points="654.62,-728 597.62,-728 597.62,-692 654.62,-692 654.62,-728"/>
<text text-anchor="middle" x="626.12" y="-706.3" font-family="Times,serif" font-size="14.00">Creator</text>
</a>
</g>
</g>
<!-- GeographicArea -->
<g id="node36" class="node">
<title>GeographicArea</title>
<g id="a_node36"><a xlink:href="/develop/Data/models.html#geographic-area" xlink:title="GeographicArea" target="_top">
<polygon fill="#eeefff" stroke="#dddeee" points="480.12,-74 374.12,-74 374.12,-38 480.12,-38 480.12,-74"/>
<text text-anchor="middle" x="427.12" y="-52.3" font-family="Times,serif" font-size="14.00">GeographicArea</text>
</a>
</g>
</g>
<!-- Project -->
<g id="node37" class="node">
<title>Project</title>
<g id="a_node37"><a xlink:href="/develop/Data/models.html#project" xlink:title="Project" target="_top">
<polygon fill="#eeefff" stroke="#dddeee" points="454.62,-728 399.62,-728 399.62,-692 454.62,-692 454.62,-728"/>
<text text-anchor="middle" x="427.12" y="-706.3" font-family="Times,serif" font-size="14.00">Project</text>
</a>
</g>
</g>
<!-- Updater -->
<g id="node38" class="node">
<title>Updater</title>
<g id="a_node38"><a xlink:href="/develop/Data/models.html#updater" xlink:title="Updater" target="_top">
<polygon fill="#eeefff" stroke="#dddeee" points="830.62,-728 770.62,-728 770.62,-692 830.62,-692 830.62,-728"/>
<text text-anchor="middle" x="800.62" y="-706.3" font-family="Times,serif" font-size="14.00">Updater</text>
</a>
</g>
</g>
<!-- AccessionProviderRole -->
<g id="node39" class="node">
<title>AccessionProviderRole</title>
<g id="a_node39"><a xlink:href="/develop/Data/models.html#accession-provider-role" xlink:title="AccessionProviderRole" target="_top">
<polygon fill="#eeefff" stroke="#dddeee" points="698.12,-601 554.12,-601 554.12,-565 698.12,-565 698.12,-601"/>
<text text-anchor="middle" x="626.12" y="-579.3" font-family="Times,serif" font-size="14.00">AccessionProviderRole</text>
</a>
</g>
</g>
<!-- DeaccessionRecipientRole -->
<g id="node40" class="node">
<title>DeaccessionRecipientRole</title>
<g id="a_node40"><a xlink:href="/develop/Data/models.html#deaccession-recipient-role" xlink:title="DeaccessionRecipientRole" target="_top">
<polygon fill="#eeefff" stroke="#dddeee" points="706.62,-655 545.62,-655 545.62,-619 706.62,-619 706.62,-655"/>
<text text-anchor="middle" x="626.12" y="-633.3" font-family="Times,serif" font-size="14.00">DeaccessionRecipientRole</text>
</a>
</g>
</g>
<!-- OriginCitation -->
<g id="node41" class="node">
<title>OriginCitation</title>
<g id="a_node41"><a xlink:href="/develop/Data/models.html#origin-citation" xlink:title="OriginCitation" target="_top">
<polygon fill="#eeefff" stroke="#dddeee" points="673.62,-1076 578.62,-1076 578.62,-1040 673.62,-1040 673.62,-1076"/>
<text text-anchor="middle" x="626.12" y="-1054.3" font-family="Times,serif" font-size="14.00">OriginCitation</text>
</a>
</g>
</g>
<!-- VerbatimDataGeoreference -->
<g id="node42" class="node">
<title>VerbatimDataGeoreference</title>
<g id="a_node42"><a xlink:href="/develop/Data/models.html#verbatim-data-georeference" xlink:title="VerbatimDataGeoreference" target="_top">
<polygon fill="#eeefff" stroke="#dddeee" points="509.62,-782 344.62,-782 344.62,-746 509.62,-746 509.62,-782"/>
<text text-anchor="middle" x="427.12" y="-760.3" font-family="Times,serif" font-size="14.00">VerbatimDataGeoreference</text>
</a>
</g>
</g>
</g>
</svg>
