<?xml version="1.0" encoding="UTF-8" standalone="no"?>
<!DOCTYPE svg PUBLIC "-//W3C//DTD SVG 1.1//EN"
 "http://www.w3.org/Graphics/SVG/1.1/DTD/svg11.dtd">
<!-- Generated by graphviz version 2.50.0 (20211204.2007)
 -->
<!-- Title: CollectionProfile Pages: 1 -->
<svg width="679pt" height="424pt"
 viewBox="0.00 0.00 679.00 424.31" xmlns="http://www.w3.org/2000/svg" xmlns:xlink="http://www.w3.org/1999/xlink">
<g id="graph0" class="graph" transform="scale(1 1) rotate(0) translate(4 420.31)">
<title>CollectionProfile</title>
<polygon fill="white" stroke="transparent" points="-4,4 -4,-420.31 675,-420.31 675,4 -4,4"/>
<text text-anchor="middle" x="335.5" y="-22.8" font-family="Times,serif" font-size="14.00">Algorithmically generated relationships for CollectionProfile based on assertions of &#39;has_many&#39;, &#39;has_one&#39;, &#39;belongs_to&#39;. </text>
<text text-anchor="middle" x="335.5" y="-7.8" font-family="Times,serif" font-size="14.00">Generated 2022&#45;01&#45;25 11:37:29 &#45;0600.</text>
<!-- Tag&#45;&gt;Keyword -->
<g id="edge2" class="edge">
<title>Tag&#45;&gt;Keyword</title>
<path fill="none" stroke="black" d="M105.84,-151.48C129.97,-151.18 166.33,-150.71 194.72,-150.35"/>
<polygon fill="black" stroke="black" points="194.82,-153.85 204.78,-150.23 194.73,-146.85 194.82,-153.85"/>
</g>
<!-- CollectionProfile&#45;&gt;Identifier -->
<g id="edge1" class="edge">
<title>CollectionProfile&#45;&gt;Identifier</title>
<path fill="none" stroke="black" d="M185.79,-225.17C165.27,-232.07 141.93,-239.92 122.4,-246.49"/>
<polygon fill="black" stroke="black" points="121.22,-243.2 112.85,-249.7 123.45,-249.83 121.22,-243.2"/>
</g>
<!-- CollectionProfile&#45;&gt;Tag -->
<g id="edge6" class="edge">
<title>CollectionProfile&#45;&gt;Tag</title>
<path fill="none" stroke="black" d="M187.33,-190.02C162.95,-181.36 134.33,-171.18 112.75,-163.51"/>
<polygon fill="black" stroke="black" points="113.67,-160.13 103.07,-160.07 111.32,-166.72 113.67,-160.13"/>
</g>
<!-- CollectionProfile&#45;&gt;Note -->
<g id="edge3" class="edge">
<title>CollectionProfile&#45;&gt;Note</title>
<path fill="none" stroke="black" d="M157.48,-207.3C143.37,-207.21 129.31,-207.13 117.11,-207.05"/>
<polygon fill="black" stroke="black" points="116.93,-203.55 106.91,-206.98 116.89,-210.55 116.93,-203.55"/>
</g>
<!-- CollectionProfile&#45;&gt;Otu -->
<g id="edge11" class="edge">
<title>CollectionProfile&#45;&gt;Otu</title>
<path fill="none" stroke="black" stroke-dasharray="5,2" d="M256.54,-238.82C276.82,-273.6 313.19,-330.3 355.08,-369.81 360.52,-374.95 367.04,-379.67 373.4,-383.71"/>
<polygon fill="black" stroke="black" points="259.51,-236.97 251.49,-230.05 253.44,-240.46 259.51,-236.97"/>
</g>
<!-- CollectionProfile&#45;&gt;PinboardItem -->
<g id="edge4" class="edge">
<title>CollectionProfile&#45;&gt;PinboardItem</title>
<path fill="none" stroke="black" d="M260.38,-229.93C282.7,-252.83 319.59,-288.94 355.08,-315.81 356.46,-316.86 357.89,-317.91 359.35,-318.94"/>
<polygon fill="black" stroke="black" points="357.67,-322.03 367.92,-324.72 361.58,-316.23 357.67,-322.03"/>
</g>
<!-- CollectionProfile&#45;&gt;Role -->
<g id="edge5" class="edge">
<title>CollectionProfile&#45;&gt;Role</title>
<path fill="none" stroke="black" d="M279.4,-228.04C305.37,-241.17 338.91,-258.13 363.95,-270.8"/>
<polygon fill="black" stroke="black" points="362.6,-274.03 373.1,-275.42 365.76,-267.79 362.6,-274.03"/>
</g>
<!-- CollectionProfile&#45;&gt;VerifierRole -->
<g id="edge7" class="edge">
<title>CollectionProfile&#45;&gt;VerifierRole</title>
<path fill="none" stroke="black" d="M312.46,-220.13C324.84,-222.21 337.44,-224.34 349.08,-226.3"/>
<polygon fill="black" stroke="black" points="348.58,-229.77 359.03,-227.98 349.75,-222.86 348.58,-229.77"/>
</g>
<!-- CollectionProfile&#45;&gt;Container -->
<g id="edge9" class="edge">
<title>CollectionProfile&#45;&gt;Container</title>
<path fill="none" stroke="black" stroke-dasharray="5,2" d="M322.44,-193.81C337.65,-191.25 352.71,-188.71 365.44,-186.57"/>
<polygon fill="black" stroke="black" points="321.73,-190.38 312.46,-195.5 322.9,-197.29 321.73,-190.38"/>
</g>
<!-- CollectionProfile&#45;&gt;Creator -->
<g id="edge10" class="edge">
<title>CollectionProfile&#45;&gt;Creator</title>
<path fill="none" stroke="black" stroke-dasharray="5,2" d="M298.8,-186.21C305.72,-183.25 312.62,-180.09 319.08,-176.81 336.01,-168.22 338.25,-162.61 355.08,-153.81 393.91,-133.49 405.69,-132.83 446.08,-115.81 457.78,-110.88 470.68,-105.4 481.77,-100.68"/>
<polygon fill="black" stroke="black" points="297.26,-183.05 289.37,-190.12 299.95,-189.52 297.26,-183.05"/>
</g>
<!-- CollectionProfile&#45;&gt;Project -->
<g id="edge12" class="edge">
<title>CollectionProfile&#45;&gt;Project</title>
<path fill="none" stroke="black" stroke-dasharray="5,2" d="M304.14,-186.81C309.45,-183.86 314.51,-180.54 319.08,-176.81 341.99,-158.09 334.71,-142.27 355.08,-120.81 360.32,-115.29 366.63,-110.09 372.83,-105.56"/>
<polygon fill="black" stroke="black" points="302.38,-183.78 295.04,-191.42 305.55,-190.02 302.38,-183.78"/>
</g>
<!-- CollectionProfile&#45;&gt;Updater -->
<g id="edge13" class="edge">
<title>CollectionProfile&#45;&gt;Updater</title>
<path fill="none" stroke="black" stroke-dasharray="5,2" d="M306.96,-186.96C311.38,-184.01 315.49,-180.64 319.08,-176.81 355.64,-137.68 311.92,-93.52 355.08,-61.81 421.13,-13.28 524.91,-50.86 575.05,-74.05"/>
<polygon fill="black" stroke="black" points="304.97,-184.07 298.11,-192.15 308.51,-190.11 304.97,-184.07"/>
</g>
<!-- Role&#45;&gt;Verifier -->
<!-- VerifierRole&#45;&gt;Verifier -->
<g id="edge8" class="edge">
<title>VerifierRole&#45;&gt;Verifier</title>
<path fill="none" stroke="black" d="M442.1,-244.94C451.96,-247.41 462.46,-250.03 472.17,-252.46"/>
<polygon fill="black" stroke="black" points="471.39,-255.87 481.94,-254.9 473.09,-249.08 471.39,-255.87"/>
</g>
<!-- Creator&#45;&gt;Updater -->
<!-- Project&#45;&gt;Creator -->
<!-- Identifier -->
<g id="node1" class="node">
<title>Identifier</title>
<g id="a_node1"><a xlink:href="/develop/Data/models.html#identifier" xlink:title="Identifier" target="_top">
<ellipse fill="#abcdef" stroke="#dddeee" cx="78.82" cy="-260.81" rx="42.79" ry="18"/>
<text text-anchor="middle" x="78.82" y="-257.11" font-family="Times,serif" font-size="14.00">Identifier</text>
</a>
</g>
</g>
<!-- Tag -->
<g id="node2" class="node">
<title>Tag</title>
<g id="a_node2"><a xlink:href="/develop/Data/models.html#tag" xlink:title="Tag" target="_top">
<ellipse fill="#abcdef" stroke="#dddeee" cx="78.82" cy="-151.81" rx="27" ry="18"/>
<text text-anchor="middle" x="78.82" y="-148.11" font-family="Times,serif" font-size="14.00">Tag</text>
</a>
</g>
</g>
<!-- Note -->
<g id="node3" class="node">
<title>Note</title>
<g id="a_node3"><a xlink:href="/develop/Data/models.html#note" xlink:title="Note" target="_top">
<ellipse fill="#abcdef" stroke="#dddeee" cx="78.82" cy="-206.81" rx="27.9" ry="18"/>
<text text-anchor="middle" x="78.82" y="-203.11" font-family="Times,serif" font-size="14.00">Note</text>
</a>
</g>
</g>
<!-- Otu -->
<g id="node4" class="node">
<title>Otu</title>
<g id="a_node4"><a xlink:href="/develop/Data/models.html#otu" xlink:title="Otu" target="_top">
<path fill="#fedcba" stroke="#dddeee" d="M385.58,-379.81C385.58,-379.81 415.58,-379.81 415.58,-379.81 421.58,-379.81 427.58,-385.81 427.58,-391.81 427.58,-391.81 427.58,-403.81 427.58,-403.81 427.58,-409.81 421.58,-415.81 415.58,-415.81 415.58,-415.81 385.58,-415.81 385.58,-415.81 379.58,-415.81 373.58,-409.81 373.58,-403.81 373.58,-403.81 373.58,-391.81 373.58,-391.81 373.58,-385.81 379.58,-379.81 385.58,-379.81"/>
<text text-anchor="middle" x="400.58" y="-394.11" font-family="Times,serif" font-size="14.00">Otu</text>
</a>
</g>
</g>
<!-- CollectionProfile -->
<g id="node5" class="node">
<title>CollectionProfile</title>
<g id="a_node5"><a xlink:href="/develop/Data/models.html#collection-profile" xlink:title="CollectionProfile" target="_top">
<polygon fill="#cdefab" stroke="#dedede" points="315.25,-200.36 315.25,-215.27 270.23,-225.81 206.56,-225.81 161.54,-215.27 161.54,-200.36 206.56,-189.81 270.23,-189.81 315.25,-200.36"/>
<polygon fill="none" stroke="#dedede" points="319.26,-197.19 319.26,-218.44 270.69,-229.81 206.1,-229.81 157.53,-218.44 157.53,-197.19 206.1,-185.81 270.69,-185.81 319.26,-197.19"/>
<text text-anchor="middle" x="238.4" y="-204.11" font-family="Times,serif" font-size="14.00">CollectionProfile</text>
</a>
</g>
</g>
<!-- Keyword -->
<g id="node6" class="node">
<title>Keyword</title>
<g id="a_node6"><a xlink:href="/develop/Data/models.html#keyword" xlink:title="Keyword" target="_top">
<polygon fill="#eeefff" stroke="#dddeee" points="271.9,-167.81 204.9,-167.81 204.9,-131.81 271.9,-131.81 271.9,-167.81"/>
<text text-anchor="middle" x="238.4" y="-146.11" font-family="Times,serif" font-size="14.00">Keyword</text>
</a>
</g>
</g>
<!-- PinboardItem -->
<g id="node7" class="node">
<title>PinboardItem</title>
<g id="a_node7"><a xlink:href="/develop/Data/models.html#pinboard-item" xlink:title="PinboardItem" target="_top">
<polygon fill="#eeefff" stroke="#dddeee" points="446.08,-360.81 355.08,-360.81 355.08,-324.81 446.08,-324.81 446.08,-360.81"/>
<text text-anchor="middle" x="400.58" y="-339.11" font-family="Times,serif" font-size="14.00">PinboardItem</text>
</a>
</g>
</g>
<!-- Role -->
<g id="node8" class="node">
<title>Role</title>
<g id="a_node8"><a xlink:href="/develop/Data/models.html#role" xlink:title="Role" target="_top">
<polygon fill="#eeefff" stroke="#dddeee" points="427.58,-306.81 373.58,-306.81 373.58,-270.81 427.58,-270.81 427.58,-306.81"/>
<text text-anchor="middle" x="400.58" y="-285.11" font-family="Times,serif" font-size="14.00">Role</text>
</a>
</g>
</g>
<!-- VerifierRole -->
<g id="node9" class="node">
<title>VerifierRole</title>
<g id="a_node9"><a xlink:href="/develop/Data/models.html#verifier-role" xlink:title="VerifierRole" target="_top">
<polygon fill="#eeefff" stroke="#dddeee" points="442.08,-252.81 359.08,-252.81 359.08,-216.81 442.08,-216.81 442.08,-252.81"/>
<text text-anchor="middle" x="400.58" y="-231.11" font-family="Times,serif" font-size="14.00">VerifierRole</text>
</a>
</g>
</g>
<!-- Verifier -->
<g id="node10" class="node">
<title>Verifier</title>
<g id="a_node10"><a xlink:href="/develop/Data/models.html#verifier" xlink:title="Verifier" target="_top">
<polygon fill="#eeefff" stroke="#dddeee" points="539.08,-279.81 482.08,-279.81 482.08,-243.81 539.08,-243.81 539.08,-279.81"/>
<text text-anchor="middle" x="510.58" y="-258.11" font-family="Times,serif" font-size="14.00">Verifier</text>
</a>
</g>
</g>
<!-- Container -->
<g id="node11" class="node">
<title>Container</title>
<g id="a_node11"><a xlink:href="/develop/Data/models.html#container" xlink:title="Container" target="_top">
<polygon fill="#eeefff" stroke="#dddeee" points="435.58,-198.81 365.58,-198.81 365.58,-162.81 435.58,-162.81 435.58,-198.81"/>
<text text-anchor="middle" x="400.58" y="-177.11" font-family="Times,serif" font-size="14.00">Container</text>
</a>
</g>
</g>
<!-- Creator -->
<g id="node12" class="node">
<title>Creator</title>
<g id="a_node12"><a xlink:href="/develop/Data/models.html#creator" xlink:title="Creator" target="_top">
<polygon fill="#eeefff" stroke="#dddeee" points="539.08,-106.81 482.08,-106.81 482.08,-70.81 539.08,-70.81 539.08,-106.81"/>
<text text-anchor="middle" x="510.58" y="-85.11" font-family="Times,serif" font-size="14.00">Creator</text>
</a>
</g>
</g>
<!-- Project -->
<g id="node13" class="node">
<title>Project</title>
<g id="a_node13"><a xlink:href="/develop/Data/models.html#project" xlink:title="Project" target="_top">
<polygon fill="#eeefff" stroke="#dddeee" points="428.08,-106.81 373.08,-106.81 373.08,-70.81 428.08,-70.81 428.08,-106.81"/>
<text text-anchor="middle" x="400.58" y="-85.11" font-family="Times,serif" font-size="14.00">Project</text>
</a>
</g>
</g>
<!-- Updater -->
<g id="node14" class="node">
<title>Updater</title>
<g id="a_node14"><a xlink:href="/develop/Data/models.html#updater" xlink:title="Updater" target="_top">
<polygon fill="#eeefff" stroke="#dddeee" points="635.08,-106.81 575.08,-106.81 575.08,-70.81 635.08,-70.81 635.08,-106.81"/>
<text text-anchor="middle" x="605.08" y="-85.11" font-family="Times,serif" font-size="14.00">Updater</text>
</a>
</g>
</g>
</g>
</svg>
