<?xml version="1.0" encoding="UTF-8" standalone="no"?>
<!DOCTYPE svg PUBLIC "-//W3C//DTD SVG 1.1//EN"
 "http://www.w3.org/Graphics/SVG/1.1/DTD/svg11.dtd">
<!-- Generated by graphviz version 2.50.0 (20211204.2007)
 -->
<!-- Title: CollectionObjectObservation Pages: 1 -->
<svg width="818pt" height="342pt"
 viewBox="0.00 0.00 818.21 341.76" xmlns="http://www.w3.org/2000/svg" xmlns:xlink="http://www.w3.org/1999/xlink">
<g id="graph0" class="graph" transform="scale(1 1) rotate(0) translate(4 337.76)">
<title>CollectionObjectObservation</title>
<polygon fill="white" stroke="transparent" points="-4,4 -4,-337.76 814.21,-337.76 814.21,4 -4,4"/>
<!-- Depiction&#45;&gt;Image -->
<g id="edge4" class="edge">
<title>Depiction&#45;&gt;Image</title>
<path fill="none" stroke="black" stroke-dasharray="1,5" d="M91.07,-209.69C128.59,-210.05 181.59,-210.56 216.62,-210.9"/>
<polygon fill="black" stroke="black" points="216.85,-214.41 226.88,-211 216.92,-207.41 216.85,-214.41"/>
</g>
<!-- Tag&#45;&gt;Keyword -->
<g id="edge5" class="edge">
<title>Tag&#45;&gt;Keyword</title>
<path fill="none" stroke="black" stroke-dasharray="1,5" d="M72.66,-97C107.3,-96.67 168.81,-96.07 210.27,-95.67"/>
<polygon fill="black" stroke="black" points="210.38,-99.17 220.35,-95.57 210.31,-92.17 210.38,-99.17"/>
</g>
<!-- CollectionObjectObservation&#45;&gt;Depiction -->
<g id="edge2" class="edge">
<title>CollectionObjectObservation&#45;&gt;Depiction</title>
<path fill="none" stroke="black" d="M175.88,-171.46C159.68,-175.5 142.74,-179.88 126.99,-184.26 115.21,-187.53 102.53,-191.33 90.81,-194.97"/>
<polygon fill="black" stroke="black" points="89.73,-191.64 81.23,-197.97 91.82,-198.32 89.73,-191.64"/>
</g>
<!-- CollectionObjectObservation&#45;&gt;Tag -->
<g id="edge9" class="edge">
<title>CollectionObjectObservation&#45;&gt;Tag</title>
<path fill="none" stroke="black" d="M175.88,-135.05C159.68,-131.02 142.74,-126.63 126.99,-122.26 111.3,-117.89 94.03,-112.6 79.53,-108.01"/>
<polygon fill="black" stroke="black" points="80.58,-104.67 69.98,-104.96 78.45,-111.34 80.58,-104.67"/>
</g>
<!-- CollectionObjectObservation&#45;&gt;Note -->
<g id="edge6" class="edge">
<title>CollectionObjectObservation&#45;&gt;Note</title>
<path fill="none" stroke="black" d="M126.57,-153.26C110.96,-153.26 96.1,-153.26 83.51,-153.26"/>
<polygon fill="black" stroke="black" points="83.51,-149.76 73.51,-153.26 83.51,-156.76 83.51,-149.76"/>
</g>
<!-- CollectionObjectObservation&#45;&gt;DerivedCollectionObject -->
<g id="edge3" class="edge">
<title>CollectionObjectObservation&#45;&gt;DerivedCollectionObject</title>
<path fill="none" stroke="black" d="M355.93,-167.93C365.15,-172.15 373.8,-177.5 381.21,-184.26 417.36,-217.21 382.84,-253.46 417.21,-288.26 418.14,-289.2 419.11,-290.11 420.11,-290.98"/>
<polygon fill="black" stroke="black" points="418.19,-293.92 428.29,-297.11 422.38,-288.32 418.19,-293.92"/>
</g>
<!-- CollectionObjectObservation&#45;&gt;PinboardItem -->
<g id="edge7" class="edge">
<title>CollectionObjectObservation&#45;&gt;PinboardItem</title>
<path fill="none" stroke="black" d="M350.19,-168.8C361.16,-172.82 371.78,-177.88 381.21,-184.26 403.91,-199.58 395.35,-217.77 417.21,-234.26 423.51,-239 430.71,-242.97 438.11,-246.28"/>
<polygon fill="black" stroke="black" points="436.95,-249.59 447.53,-250.12 439.59,-243.1 436.95,-249.59"/>
</g>
<!-- CollectionObjectObservation&#45;&gt;Role -->
<g id="edge8" class="edge">
<title>CollectionObjectObservation&#45;&gt;Role</title>
<path fill="none" stroke="black" d="M333.73,-171.16C375.09,-180.58 423.79,-191.67 456.18,-199.05"/>
<polygon fill="black" stroke="black" points="455.56,-202.5 466.09,-201.31 457.12,-195.67 455.56,-202.5"/>
</g>
<!-- CollectionObjectObservation&#45;&gt;VerifierRole -->
<g id="edge10" class="edge">
<title>CollectionObjectObservation&#45;&gt;VerifierRole</title>
<path fill="none" stroke="black" d="M381.3,-153.26C402.56,-153.26 423.49,-153.26 441.35,-153.26"/>
<polygon fill="black" stroke="black" points="441.49,-156.76 451.49,-153.26 441.49,-149.76 441.49,-156.76"/>
</g>
<!-- CollectionObjectObservation&#45;&gt;Creator -->
<g id="edge12" class="edge">
<title>CollectionObjectObservation&#45;&gt;Creator</title>
<path fill="none" stroke="black" stroke-dasharray="5,2" d="M354.78,-134.98C416.79,-123.03 498.01,-106.32 569.21,-88.26 590.14,-82.95 613.48,-75.87 631.07,-70.29"/>
<polygon fill="black" stroke="black" points="353.77,-131.61 344.61,-136.93 355.09,-138.49 353.77,-131.61"/>
</g>
<!-- CollectionObjectObservation&#45;&gt;Project -->
<g id="edge13" class="edge">
<title>CollectionObjectObservation&#45;&gt;Project</title>
<path fill="none" stroke="black" stroke-dasharray="5,2" d="M353.36,-133.63C362.98,-130.37 372.42,-126.61 381.21,-122.26 399.63,-113.14 399.6,-103.83 417.21,-93.26 432.51,-84.07 450.91,-76.18 465.67,-70.53"/>
<polygon fill="black" stroke="black" points="352.15,-130.34 343.69,-136.72 354.29,-137.01 352.15,-130.34"/>
</g>
<!-- CollectionObjectObservation&#45;&gt;Updater -->
<g id="edge14" class="edge">
<title>CollectionObjectObservation&#45;&gt;Updater</title>
<path fill="none" stroke="black" stroke-dasharray="5,2" d="M364.11,-133.95C370.22,-130.63 376,-126.76 381.21,-122.26 413.21,-94.66 382.13,-57.81 417.21,-34.26 521.86,36 683.94,-20 749.85,-47.86"/>
<polygon fill="black" stroke="black" points="362.37,-130.9 354.92,-138.44 365.44,-137.19 362.37,-130.9"/>
</g>
<!-- DerivedCollectionObject&#45;&gt;CollectionObject -->
<g id="edge1" class="edge">
<title>DerivedCollectionObject&#45;&gt;CollectionObject</title>
<path fill="none" stroke="black" stroke-dasharray="1,5" d="M569.24,-315.26C577.8,-315.26 586.46,-315.26 594.85,-315.26"/>
<polygon fill="black" stroke="black" points="594.92,-318.76 604.92,-315.26 594.92,-311.76 594.92,-318.76"/>
</g>
<!-- Role&#45;&gt;Verifier -->
<!-- VerifierRole&#45;&gt;Verifier -->
<g id="edge11" class="edge">
<title>VerifierRole&#45;&gt;Verifier</title>
<path fill="none" stroke="black" stroke-dasharray="1,5" d="M534.88,-159.93C561.22,-164.25 595.28,-169.84 621.01,-174.07"/>
<polygon fill="black" stroke="black" points="620.7,-177.56 631.13,-175.73 621.83,-170.66 620.7,-177.56"/>
</g>
<!-- Creator&#45;&gt;Updater -->
<!-- Project&#45;&gt;Creator -->
<!-- Depiction -->
<g id="node1" class="node">
<title>Depiction</title>
<g id="a_node1"><a xlink:href="/develop/Data/models.html#depiction" xlink:title="Depiction" target="_top">
<ellipse fill="#abcdef" stroke="#dddeee" cx="45.5" cy="-209.26" rx="45.49" ry="18"/>
<text text-anchor="middle" x="45.5" y="-205.56" font-family="Times,serif" font-size="14.00">Depiction</text>
</a>
</g>
</g>
<!-- Tag -->
<g id="node2" class="node">
<title>Tag</title>
<g id="a_node2"><a xlink:href="/develop/Data/models.html#tag" xlink:title="Tag" target="_top">
<ellipse fill="#abcdef" stroke="#dddeee" cx="45.5" cy="-97.26" rx="27" ry="18"/>
<text text-anchor="middle" x="45.5" y="-93.56" font-family="Times,serif" font-size="14.00">Tag</text>
</a>
</g>
</g>
<!-- Note -->
<g id="node3" class="node">
<title>Note</title>
<g id="a_node3"><a xlink:href="/develop/Data/models.html#note" xlink:title="Note" target="_top">
<ellipse fill="#abcdef" stroke="#dddeee" cx="45.5" cy="-153.26" rx="27.9" ry="18"/>
<text text-anchor="middle" x="45.5" y="-149.56" font-family="Times,serif" font-size="14.00">Note</text>
</a>
</g>
</g>
<!-- CollectionObject -->
<g id="node4" class="node">
<title>CollectionObject</title>
<g id="a_node4"><a xlink:href="/develop/Data/models.html#collection-object" xlink:title="CollectionObject" target="_top">
<path fill="#fedcba" stroke="#dddeee" d="M617.21,-297.26C617.21,-297.26 702.21,-297.26 702.21,-297.26 708.21,-297.26 714.21,-303.26 714.21,-309.26 714.21,-309.26 714.21,-321.26 714.21,-321.26 714.21,-327.26 708.21,-333.26 702.21,-333.26 702.21,-333.26 617.21,-333.26 617.21,-333.26 611.21,-333.26 605.21,-327.26 605.21,-321.26 605.21,-321.26 605.21,-309.26 605.21,-309.26 605.21,-303.26 611.21,-297.26 617.21,-297.26"/>
<text text-anchor="middle" x="659.71" y="-311.56" font-family="Times,serif" font-size="14.00">CollectionObject</text>
</a>
</g>
</g>
<!-- CollectionObjectObservation -->
<g id="node5" class="node">
<title>CollectionObjectObservation</title>
<g id="a_node5"><a xlink:href="/develop/Data/models.html#collection-object-observation" xlink:title="CollectionObjectObservation" target="_top">
<polygon fill="#cdefab" stroke="#dedede" points="377.32,-145.8 377.32,-160.71 305.14,-171.26 203.06,-171.26 130.88,-160.71 130.88,-145.8 203.06,-135.26 305.14,-135.26 377.32,-145.8"/>
<polygon fill="none" stroke="#dedede" points="381.33,-142.34 381.33,-164.17 305.43,-175.26 202.77,-175.26 126.88,-164.17 126.88,-142.34 202.77,-131.26 305.43,-131.26 381.33,-142.34"/>
<text text-anchor="middle" x="254.1" y="-149.56" font-family="Times,serif" font-size="14.00">CollectionObjectObservation</text>
</a>
</g>
</g>
<!-- DerivedCollectionObject -->
<g id="node6" class="node">
<title>DerivedCollectionObject</title>
<g id="a_node6"><a xlink:href="/develop/Data/models.html#derived-collection-object" xlink:title="DerivedCollectionObject" target="_top">
<polygon fill="#eeefff" stroke="#dddeee" points="569.21,-333.26 417.21,-333.26 417.21,-297.26 569.21,-297.26 569.21,-333.26"/>
<text text-anchor="middle" x="493.21" y="-311.56" font-family="Times,serif" font-size="14.00">DerivedCollectionObject</text>
</a>
</g>
</g>
<!-- Image -->
<g id="node7" class="node">
<title>Image</title>
<g id="a_node7"><a xlink:href="/develop/Data/models.html#image" xlink:title="Image" target="_top">
<polygon fill="#eeefff" stroke="#dddeee" points="281.1,-229.26 227.1,-229.26 227.1,-193.26 281.1,-193.26 281.1,-229.26"/>
<text text-anchor="middle" x="254.1" y="-207.56" font-family="Times,serif" font-size="14.00">Image</text>
</a>
</g>
</g>
<!-- Keyword -->
<g id="node8" class="node">
<title>Keyword</title>
<g id="a_node8"><a xlink:href="/develop/Data/models.html#keyword" xlink:title="Keyword" target="_top">
<polygon fill="#eeefff" stroke="#dddeee" points="287.6,-113.26 220.6,-113.26 220.6,-77.26 287.6,-77.26 287.6,-113.26"/>
<text text-anchor="middle" x="254.1" y="-91.56" font-family="Times,serif" font-size="14.00">Keyword</text>
</a>
</g>
</g>
<!-- PinboardItem -->
<g id="node9" class="node">
<title>PinboardItem</title>
<g id="a_node9"><a xlink:href="/develop/Data/models.html#pinboard-item" xlink:title="PinboardItem" target="_top">
<polygon fill="#eeefff" stroke="#dddeee" points="538.71,-279.26 447.71,-279.26 447.71,-243.26 538.71,-243.26 538.71,-279.26"/>
<text text-anchor="middle" x="493.21" y="-257.56" font-family="Times,serif" font-size="14.00">PinboardItem</text>
</a>
</g>
</g>
<!-- Role -->
<g id="node10" class="node">
<title>Role</title>
<g id="a_node10"><a xlink:href="/develop/Data/models.html#role" xlink:title="Role" target="_top">
<polygon fill="#eeefff" stroke="#dddeee" points="520.21,-225.26 466.21,-225.26 466.21,-189.26 520.21,-189.26 520.21,-225.26"/>
<text text-anchor="middle" x="493.21" y="-203.56" font-family="Times,serif" font-size="14.00">Role</text>
</a>
</g>
</g>
<!-- VerifierRole -->
<g id="node11" class="node">
<title>VerifierRole</title>
<g id="a_node11"><a xlink:href="/develop/Data/models.html#verifier-role" xlink:title="VerifierRole" target="_top">
<polygon fill="#eeefff" stroke="#dddeee" points="534.71,-171.26 451.71,-171.26 451.71,-135.26 534.71,-135.26 534.71,-171.26"/>
<text text-anchor="middle" x="493.21" y="-149.56" font-family="Times,serif" font-size="14.00">VerifierRole</text>
</a>
</g>
</g>
<!-- Verifier -->
<g id="node12" class="node">
<title>Verifier</title>
<g id="a_node12"><a xlink:href="/develop/Data/models.html#verifier" xlink:title="Verifier" target="_top">
<polygon fill="#eeefff" stroke="#dddeee" points="688.21,-198.26 631.21,-198.26 631.21,-162.26 688.21,-162.26 688.21,-198.26"/>
<text text-anchor="middle" x="659.71" y="-176.56" font-family="Times,serif" font-size="14.00">Verifier</text>
</a>
</g>
</g>
<!-- Creator -->
<g id="node13" class="node">
<title>Creator</title>
<g id="a_node13"><a xlink:href="/develop/Data/models.html#creator" xlink:title="Creator" target="_top">
<polygon fill="#eeefff" stroke="#dddeee" points="688.21,-79.26 631.21,-79.26 631.21,-43.26 688.21,-43.26 688.21,-79.26"/>
<text text-anchor="middle" x="659.71" y="-57.56" font-family="Times,serif" font-size="14.00">Creator</text>
</a>
</g>
</g>
<!-- Project -->
<g id="node14" class="node">
<title>Project</title>
<g id="a_node14"><a xlink:href="/develop/Data/models.html#project" xlink:title="Project" target="_top">
<polygon fill="#eeefff" stroke="#dddeee" points="520.71,-79.26 465.71,-79.26 465.71,-43.26 520.71,-43.26 520.71,-79.26"/>
<text text-anchor="middle" x="493.21" y="-57.56" font-family="Times,serif" font-size="14.00">Project</text>
</a>
</g>
</g>
<!-- Updater -->
<g id="node15" class="node">
<title>Updater</title>
<g id="a_node15"><a xlink:href="/develop/Data/models.html#updater" xlink:title="Updater" target="_top">
<polygon fill="#eeefff" stroke="#dddeee" points="810.21,-79.26 750.21,-79.26 750.21,-43.26 810.21,-43.26 810.21,-79.26"/>
<text text-anchor="middle" x="780.21" y="-57.56" font-family="Times,serif" font-size="14.00">Updater</text>
</a>
</g>
</g>
</g>
</svg>
