<?xml version="1.0" encoding="UTF-8" standalone="no"?>
<!DOCTYPE svg PUBLIC "-//W3C//DTD SVG 1.1//EN"
 "http://www.w3.org/Graphics/SVG/1.1/DTD/svg11.dtd">
<!-- Generated by graphviz version 2.50.0 (20211204.2007)
 -->
<!-- Title: CommonName Pages: 1 -->
<svg width="774pt" height="779pt"
 viewBox="0.00 0.00 774.39 779.00" xmlns="http://www.w3.org/2000/svg" xmlns:xlink="http://www.w3.org/1999/xlink">
<g id="graph0" class="graph" transform="scale(1 1) rotate(0) translate(4 775)">
<title>CommonName</title>
<polygon fill="white" stroke="transparent" points="-4,4 -4,-775 770.39,-775 770.39,4 -4,4"/>
<text text-anchor="middle" x="383.19" y="-22.8" font-family="Times,serif" font-size="14.00">Algorithmically generated relationships for CommonName based on assertions of &#39;has_many&#39;, &#39;has_one&#39;, &#39;belongs_to&#39;. </text>
<text text-anchor="middle" x="383.19" y="-7.8" font-family="Times,serif" font-size="14.00">Generated 2022&#45;01&#45;25 11:43:02 &#45;0600.</text>
<!-- AlternateValue&#45;&gt;AlternateValueLanguage -->
<g id="edge1" class="edge">
<title>AlternateValue&#45;&gt;AlternateValueLanguage</title>
<path fill="none" stroke="black" d="M119.97,-734.62C130.61,-736.28 141.99,-738.05 153.31,-739.81"/>
<polygon fill="black" stroke="black" points="152.81,-743.28 163.23,-741.36 153.89,-736.36 152.81,-743.28"/>
</g>
<!-- Citation&#45;&gt;Source -->
<g id="edge11" class="edge">
<title>Citation&#45;&gt;Source</title>
<path fill="none" stroke="black" d="M102.78,-644C168.3,-644 301.51,-644 365.91,-644"/>
<polygon fill="black" stroke="black" points="366,-647.5 376,-644 366,-640.5 366,-647.5"/>
</g>
<!-- Citation&#45;&gt;CitationTopic -->
<g id="edge3" class="edge">
<title>Citation&#45;&gt;CitationTopic</title>
<path fill="none" stroke="black" d="M96.46,-654.09C120.57,-661.74 154.31,-672.46 182.79,-681.5"/>
<polygon fill="black" stroke="black" points="182.03,-684.93 192.62,-684.63 184.15,-678.26 182.03,-684.93"/>
</g>
<!-- Tag&#45;&gt;Keyword -->
<g id="edge7" class="edge">
<title>Tag&#45;&gt;Keyword</title>
<path fill="none" stroke="black" d="M91,-322C118.58,-322 162.36,-322 194.96,-322"/>
<polygon fill="black" stroke="black" points="195.11,-325.5 205.11,-322 195.11,-318.5 195.11,-325.5"/>
</g>
<!-- Source&#45;&gt;SubsequentCitation -->
<!-- Source&#45;&gt;OriginCitation -->
<!-- CommonName&#45;&gt;AlternateValue -->
<g id="edge2" class="edge">
<title>CommonName&#45;&gt;AlternateValue</title>
<path fill="none" stroke="black" d="M232.42,-427.02C219.81,-474.84 185.24,-590.34 127.39,-671 118.92,-682.81 107.44,-693.82 96.63,-702.84"/>
<polygon fill="black" stroke="black" points="94.16,-700.33 88.55,-709.32 98.54,-705.79 94.16,-700.33"/>
</g>
<!-- CommonName&#45;&gt;Citation -->
<g id="edge4" class="edge">
<title>CommonName&#45;&gt;Citation</title>
<path fill="none" stroke="black" d="M221.86,-427.11C189.63,-471.59 117.12,-571.65 83.05,-618.67"/>
<polygon fill="black" stroke="black" points="80.18,-616.66 77.15,-626.81 85.85,-620.77 80.18,-616.66"/>
</g>
<!-- CommonName&#45;&gt;DataAttribute -->
<g id="edge5" class="edge">
<title>CommonName&#45;&gt;DataAttribute</title>
<path fill="none" stroke="black" d="M197.88,-424.22C176.96,-434.17 150.88,-446.42 127.39,-457 121.22,-459.78 114.68,-462.66 108.25,-465.47"/>
<polygon fill="black" stroke="black" points="106.74,-462.31 98.95,-469.49 109.52,-468.73 106.74,-462.31"/>
</g>
<!-- CommonName&#45;&gt;Identifier -->
<g id="edge6" class="edge">
<title>CommonName&#45;&gt;Identifier</title>
<path fill="none" stroke="black" d="M163.95,-415.67C147.34,-418.07 130.1,-420.56 114.73,-422.78"/>
<polygon fill="black" stroke="black" points="113.83,-419.37 104.43,-424.26 114.83,-426.3 113.83,-419.37"/>
</g>
<!-- CommonName&#45;&gt;Tag -->
<g id="edge14" class="edge">
<title>CommonName&#45;&gt;Tag</title>
<path fill="none" stroke="black" d="M200.08,-385.1C178.87,-374.13 151.83,-360.44 127.39,-349 117.49,-344.36 106.58,-339.56 96.68,-335.32"/>
<polygon fill="black" stroke="black" points="97.76,-331.98 87.19,-331.29 95.02,-338.42 97.76,-331.98"/>
</g>
<!-- CommonName&#45;&gt;Note -->
<g id="edge8" class="edge">
<title>CommonName&#45;&gt;Note</title>
<path fill="none" stroke="black" d="M167.87,-393.28C144.9,-389.43 120.33,-385.31 100.92,-382.07"/>
<polygon fill="black" stroke="black" points="101.44,-378.6 91,-380.4 100.28,-385.51 101.44,-378.6"/>
</g>
<!-- CommonName&#45;&gt;Source -->
<g id="edge25" class="edge">
<title>CommonName&#45;&gt;Source</title>
<path fill="none" stroke="black" stroke-dasharray="1,5" d="M250.94,-436.57C267.31,-479.87 301.43,-558.32 350.39,-611 357.74,-618.91 367.39,-625.72 376.37,-631.06"/>
<polygon fill="black" stroke="black" points="254.19,-435.28 247.44,-427.12 247.63,-437.71 254.19,-435.28"/>
</g>
<!-- CommonName&#45;&gt;Otu -->
<g id="edge21" class="edge">
<title>CommonName&#45;&gt;Otu</title>
<path fill="none" stroke="black" stroke-dasharray="5,2" d="M284.4,-379.53C313.82,-362.69 351.4,-341.18 376.14,-327.02"/>
<polygon fill="black" stroke="black" points="282.49,-376.59 275.55,-384.59 285.97,-382.66 282.49,-376.59"/>
</g>
<!-- CommonName&#45;&gt;TaxonName -->
<g id="edge26" class="edge">
<title>CommonName&#45;&gt;TaxonName</title>
<path fill="none" stroke="black" stroke-dasharray="1,5" d="M282.07,-378.1C293.4,-369.65 305.07,-359.71 314.39,-349 336.06,-324.09 326.73,-307.04 350.39,-284 353.74,-280.74 357.57,-277.77 361.59,-275.11"/>
<polygon fill="black" stroke="black" points="279.98,-375.29 273.92,-383.97 284.08,-380.96 279.98,-375.29"/>
</g>
<!-- CommonName&#45;&gt;PinboardItem -->
<g id="edge9" class="edge">
<title>CommonName&#45;&gt;PinboardItem</title>
<path fill="none" stroke="black" d="M276.16,-384.6C289.85,-375.32 304.49,-363.2 314.39,-349 346.23,-303.32 314.87,-271.88 350.39,-229 350.98,-228.28 351.61,-227.58 352.25,-226.89"/>
<polygon fill="black" stroke="black" points="354.68,-229.41 359.84,-220.16 350.04,-224.17 354.68,-229.41"/>
</g>
<!-- CommonName&#45;&gt;Role -->
<g id="edge10" class="edge">
<title>CommonName&#45;&gt;Role</title>
<path fill="none" stroke="black" d="M277.43,-384.92C291.12,-375.74 305.44,-363.63 314.39,-349 363.13,-269.35 298,-219.3 350.39,-142 354.72,-135.61 360.8,-130.26 367.28,-125.88"/>
<polygon fill="black" stroke="black" points="369.47,-128.65 376.24,-120.5 365.87,-122.65 369.47,-128.65"/>
</g>
<!-- CommonName&#45;&gt;SubsequentCitation -->
<g id="edge12" class="edge">
<title>CommonName&#45;&gt;SubsequentCitation</title>
<path fill="none" stroke="black" d="M248.98,-427.1C264.58,-462.34 299.72,-531.26 350.39,-570 371.54,-586.17 432.74,-605.65 482.28,-619.61"/>
<polygon fill="black" stroke="black" points="481.45,-623.01 492.02,-622.32 483.33,-616.26 481.45,-623.01"/>
</g>
<!-- CommonName&#45;&gt;VerifierRole -->
<g id="edge16" class="edge">
<title>CommonName&#45;&gt;VerifierRole</title>
<path fill="none" stroke="black" d="M277.71,-385.09C291.45,-375.94 305.71,-363.8 314.39,-349 374.74,-246.09 281.73,-180.56 350.39,-83 351.53,-81.38 352.8,-79.85 354.17,-78.4"/>
<polygon fill="black" stroke="black" points="356.46,-81.05 361.75,-71.87 351.89,-75.74 356.46,-81.05"/>
</g>
<!-- CommonName&#45;&gt;Creator -->
<g id="edge18" class="edge">
<title>CommonName&#45;&gt;Creator</title>
<path fill="none" stroke="black" stroke-dasharray="5,2" d="M291.3,-382.68C337.11,-366.37 404.69,-351.33 456.39,-378 504.44,-402.79 533.69,-463.98 545.84,-494.73"/>
<polygon fill="black" stroke="black" points="290.04,-379.42 281.87,-386.17 292.46,-385.99 290.04,-379.42"/>
</g>
<!-- CommonName&#45;&gt;GeographicArea -->
<g id="edge19" class="edge">
<title>CommonName&#45;&gt;GeographicArea</title>
<path fill="none" stroke="black" stroke-dasharray="5,2" d="M299.96,-424.96C316.45,-430.44 334.2,-436.34 350.21,-441.66"/>
<polygon fill="black" stroke="black" points="301.01,-421.62 290.41,-421.79 298.8,-428.26 301.01,-421.62"/>
</g>
<!-- CommonName&#45;&gt;Language -->
<g id="edge20" class="edge">
<title>CommonName&#45;&gt;Language</title>
<path fill="none" stroke="black" stroke-dasharray="5,2" d="M324.23,-405C339.79,-405 355.2,-405 368.17,-405"/>
<polygon fill="black" stroke="black" points="324.01,-401.5 314.01,-405 324.01,-408.5 324.01,-401.5"/>
</g>
<!-- CommonName&#45;&gt;Project -->
<g id="edge22" class="edge">
<title>CommonName&#45;&gt;Project</title>
<path fill="none" stroke="black" stroke-dasharray="5,2" d="M275.74,-433.45C296.9,-449.69 324.52,-469.94 350.39,-486 358.43,-490.99 367.49,-495.92 375.76,-500.17"/>
<polygon fill="black" stroke="black" points="277.72,-430.56 267.67,-427.22 273.44,-436.1 277.72,-430.56"/>
</g>
<!-- CommonName&#45;&gt;Updater -->
<g id="edge23" class="edge">
<title>CommonName&#45;&gt;Updater</title>
<path fill="none" stroke="black" stroke-dasharray="5,2" d="M285.55,-378.81C296.47,-370.56 307.07,-360.54 314.39,-349 356.68,-282.31 289.15,-224.86 350.39,-175 386.92,-145.25 414.3,-153.83 456.39,-175 596.45,-245.45 678.02,-435.14 700.78,-494.79"/>
<polygon fill="black" stroke="black" points="283.3,-376.12 277.19,-384.77 287.36,-381.82 283.3,-376.12"/>
</g>
<!-- CommonName&#45;&gt;OriginCitation -->
<g id="edge24" class="edge">
<title>CommonName&#45;&gt;OriginCitation</title>
<path fill="none" stroke="black" stroke-dasharray="1,5" d="M256.41,-435.84C274.96,-467.28 308.07,-514.9 350.39,-540 398.11,-568.31 462.39,-576.25 505.5,-578.12"/>
<polygon fill="black" stroke="black" points="259.37,-433.97 251.35,-427.04 253.3,-437.46 259.37,-433.97"/>
</g>
<!-- CitationTopic&#45;&gt;Topic -->
<g id="edge15" class="edge">
<title>CitationTopic&#45;&gt;Topic</title>
<path fill="none" stroke="black" d="M285.15,-699C310.68,-699 342.14,-699 366.04,-699"/>
<polygon fill="black" stroke="black" points="366.11,-702.5 376.11,-699 366.11,-695.5 366.11,-702.5"/>
</g>
<!-- Role&#45;&gt;Verifier -->
<!-- SubsequentCitation&#45;&gt;SubsequentSource -->
<g id="edge13" class="edge">
<title>SubsequentCitation&#45;&gt;SubsequentSource</title>
<path fill="none" stroke="black" d="M614.42,-638C622.75,-638 631.36,-638 639.82,-638"/>
<polygon fill="black" stroke="black" points="640.03,-641.5 650.03,-638 640.03,-634.5 640.03,-641.5"/>
</g>
<!-- VerifierRole&#45;&gt;Verifier -->
<g id="edge17" class="edge">
<title>VerifierRole&#45;&gt;Verifier</title>
<path fill="none" stroke="black" d="M445.22,-63.45C466.99,-67.42 493.58,-72.27 514.83,-76.15"/>
<polygon fill="black" stroke="black" points="514.32,-79.61 524.78,-77.96 515.57,-72.73 514.32,-79.61"/>
</g>
<!-- Creator&#45;&gt;Updater -->
<!-- Project&#45;&gt;Creator -->
<!-- AlternateValue -->
<g id="node1" class="node">
<title>AlternateValue</title>
<g id="a_node1"><a xlink:href="/develop/Data/models.html#alternate-value" xlink:title="AlternateValue" target="_top">
<ellipse fill="#abcdef" stroke="#dddeee" cx="63.69" cy="-726" rx="63.89" ry="18"/>
<text text-anchor="middle" x="63.69" y="-722.3" font-family="Times,serif" font-size="14.00">AlternateValue</text>
</a>
</g>
</g>
<!-- Citation -->
<g id="node2" class="node">
<title>Citation</title>
<g id="a_node2"><a xlink:href="/develop/Data/models.html#citation" xlink:title="Citation" target="_top">
<ellipse fill="#abcdef" stroke="#dddeee" cx="63.69" cy="-644" rx="38.99" ry="18"/>
<text text-anchor="middle" x="63.69" y="-640.3" font-family="Times,serif" font-size="14.00">Citation</text>
</a>
</g>
</g>
<!-- DataAttribute -->
<g id="node3" class="node">
<title>DataAttribute</title>
<g id="a_node3"><a xlink:href="/develop/Data/models.html#data-attribute" xlink:title="DataAttribute" target="_top">
<ellipse fill="#abcdef" stroke="#dddeee" cx="63.69" cy="-484" rx="59.29" ry="18"/>
<text text-anchor="middle" x="63.69" y="-480.3" font-family="Times,serif" font-size="14.00">DataAttribute</text>
</a>
</g>
</g>
<!-- Identifier -->
<g id="node4" class="node">
<title>Identifier</title>
<g id="a_node4"><a xlink:href="/develop/Data/models.html#identifier" xlink:title="Identifier" target="_top">
<ellipse fill="#abcdef" stroke="#dddeee" cx="63.69" cy="-430" rx="42.79" ry="18"/>
<text text-anchor="middle" x="63.69" y="-426.3" font-family="Times,serif" font-size="14.00">Identifier</text>
</a>
</g>
</g>
<!-- Tag -->
<g id="node5" class="node">
<title>Tag</title>
<g id="a_node5"><a xlink:href="/develop/Data/models.html#tag" xlink:title="Tag" target="_top">
<ellipse fill="#abcdef" stroke="#dddeee" cx="63.69" cy="-322" rx="27" ry="18"/>
<text text-anchor="middle" x="63.69" y="-318.3" font-family="Times,serif" font-size="14.00">Tag</text>
</a>
</g>
</g>
<!-- Note -->
<g id="node6" class="node">
<title>Note</title>
<g id="a_node6"><a xlink:href="/develop/Data/models.html#note" xlink:title="Note" target="_top">
<ellipse fill="#abcdef" stroke="#dddeee" cx="63.69" cy="-376" rx="27.9" ry="18"/>
<text text-anchor="middle" x="63.69" y="-372.3" font-family="Times,serif" font-size="14.00">Note</text>
</a>
</g>
</g>
<!-- Source -->
<g id="node7" class="node">
<title>Source</title>
<g id="a_node7"><a xlink:href="/develop/Data/models.html#source" xlink:title="Source" target="_top">
<path fill="#fedcba" stroke="#dddeee" d="M388.39,-626C388.39,-626 418.39,-626 418.39,-626 424.39,-626 430.39,-632 430.39,-638 430.39,-638 430.39,-650 430.39,-650 430.39,-656 424.39,-662 418.39,-662 418.39,-662 388.39,-662 388.39,-662 382.39,-662 376.39,-656 376.39,-650 376.39,-650 376.39,-638 376.39,-638 376.39,-632 382.39,-626 388.39,-626"/>
<text text-anchor="middle" x="403.39" y="-640.3" font-family="Times,serif" font-size="14.00">Source</text>
</a>
</g>
</g>
<!-- Otu -->
<g id="node8" class="node">
<title>Otu</title>
<g id="a_node8"><a xlink:href="/develop/Data/models.html#otu" xlink:title="Otu" target="_top">
<path fill="#fedcba" stroke="#dddeee" d="M388.39,-294C388.39,-294 418.39,-294 418.39,-294 424.39,-294 430.39,-300 430.39,-306 430.39,-306 430.39,-318 430.39,-318 430.39,-324 424.39,-330 418.39,-330 418.39,-330 388.39,-330 388.39,-330 382.39,-330 376.39,-324 376.39,-318 376.39,-318 376.39,-306 376.39,-306 376.39,-300 382.39,-294 388.39,-294"/>
<text text-anchor="middle" x="403.39" y="-308.3" font-family="Times,serif" font-size="14.00">Otu</text>
</a>
</g>
</g>
<!-- TaxonName -->
<g id="node9" class="node">
<title>TaxonName</title>
<g id="a_node9"><a xlink:href="/develop/Data/models.html#taxon-name" xlink:title="TaxonName" target="_top">
<path fill="#fedcba" stroke="#dddeee" d="M373.39,-239C373.39,-239 433.39,-239 433.39,-239 439.39,-239 445.39,-245 445.39,-251 445.39,-251 445.39,-263 445.39,-263 445.39,-269 439.39,-275 433.39,-275 433.39,-275 373.39,-275 373.39,-275 367.39,-275 361.39,-269 361.39,-263 361.39,-263 361.39,-251 361.39,-251 361.39,-245 367.39,-239 373.39,-239"/>
<text text-anchor="middle" x="403.39" y="-253.3" font-family="Times,serif" font-size="14.00">TaxonName</text>
</a>
</g>
</g>
<!-- CommonName -->
<g id="node10" class="node">
<title>CommonName</title>
<g id="a_node10"><a xlink:href="/develop/Data/models.html#common-name" xlink:title="CommonName" target="_top">
<polygon fill="#cdefab" stroke="#dedede" points="309.99,-397.54 309.99,-412.46 268.34,-423 209.44,-423 167.79,-412.46 167.79,-397.54 209.44,-387 268.34,-387 309.99,-397.54"/>
<polygon fill="none" stroke="#dedede" points="313.99,-394.43 313.99,-415.57 268.84,-427 208.94,-427 163.78,-415.57 163.78,-394.43 208.94,-383 268.84,-383 313.99,-394.43"/>
<text text-anchor="middle" x="238.89" y="-401.3" font-family="Times,serif" font-size="14.00">CommonName</text>
</a>
</g>
</g>
<!-- AlternateValueLanguage -->
<g id="node11" class="node">
<title>AlternateValueLanguage</title>
<g id="a_node11"><a xlink:href="/develop/Data/models.html#alternate-value-language" xlink:title="AlternateValueLanguage" target="_top">
<polygon fill="#eeefff" stroke="#dddeee" points="314.39,-771 163.39,-771 163.39,-735 314.39,-735 314.39,-771"/>
<text text-anchor="middle" x="238.89" y="-749.3" font-family="Times,serif" font-size="14.00">AlternateValueLanguage</text>
</a>
</g>
</g>
<!-- CitationTopic -->
<g id="node12" class="node">
<title>CitationTopic</title>
<g id="a_node12"><a xlink:href="/develop/Data/models.html#citation-topic" xlink:title="CitationTopic" target="_top">
<polygon fill="#eeefff" stroke="#dddeee" points="284.89,-717 192.89,-717 192.89,-681 284.89,-681 284.89,-717"/>
<text text-anchor="middle" x="238.89" y="-695.3" font-family="Times,serif" font-size="14.00">CitationTopic</text>
</a>
</g>
</g>
<!-- Keyword -->
<g id="node13" class="node">
<title>Keyword</title>
<g id="a_node13"><a xlink:href="/develop/Data/models.html#keyword" xlink:title="Keyword" target="_top">
<polygon fill="#eeefff" stroke="#dddeee" points="272.39,-340 205.39,-340 205.39,-304 272.39,-304 272.39,-340"/>
<text text-anchor="middle" x="238.89" y="-318.3" font-family="Times,serif" font-size="14.00">Keyword</text>
</a>
</g>
</g>
<!-- PinboardItem -->
<g id="node14" class="node">
<title>PinboardItem</title>
<g id="a_node14"><a xlink:href="/develop/Data/models.html#pinboard-item" xlink:title="PinboardItem" target="_top">
<polygon fill="#eeefff" stroke="#dddeee" points="448.89,-220 357.89,-220 357.89,-184 448.89,-184 448.89,-220"/>
<text text-anchor="middle" x="403.39" y="-198.3" font-family="Times,serif" font-size="14.00">PinboardItem</text>
</a>
</g>
</g>
<!-- Role -->
<g id="node15" class="node">
<title>Role</title>
<g id="a_node15"><a xlink:href="/develop/Data/models.html#role" xlink:title="Role" target="_top">
<polygon fill="#eeefff" stroke="#dddeee" points="430.39,-128 376.39,-128 376.39,-92 430.39,-92 430.39,-128"/>
<text text-anchor="middle" x="403.39" y="-106.3" font-family="Times,serif" font-size="14.00">Role</text>
</a>
</g>
</g>
<!-- SubsequentCitation -->
<g id="node16" class="node">
<title>SubsequentCitation</title>
<g id="a_node16"><a xlink:href="/develop/Data/models.html#subsequent-citation" xlink:title="SubsequentCitation" target="_top">
<polygon fill="#eeefff" stroke="#dddeee" points="614.39,-656 492.39,-656 492.39,-620 614.39,-620 614.39,-656"/>
<text text-anchor="middle" x="553.39" y="-634.3" font-family="Times,serif" font-size="14.00">SubsequentCitation</text>
</a>
</g>
</g>
<!-- SubsequentSource -->
<g id="node17" class="node">
<title>SubsequentSource</title>
<g id="a_node17"><a xlink:href="/develop/Data/models.html#subsequent-source" xlink:title="SubsequentSource" target="_top">
<polygon fill="#eeefff" stroke="#dddeee" points="766.39,-656 650.39,-656 650.39,-620 766.39,-620 766.39,-656"/>
<text text-anchor="middle" x="708.39" y="-634.3" font-family="Times,serif" font-size="14.00">SubsequentSource</text>
</a>
</g>
</g>
<!-- Topic -->
<g id="node18" class="node">
<title>Topic</title>
<g id="a_node18"><a xlink:href="/develop/Data/models.html#topic" xlink:title="Topic" target="_top">
<polygon fill="#eeefff" stroke="#dddeee" points="430.39,-717 376.39,-717 376.39,-681 430.39,-681 430.39,-717"/>
<text text-anchor="middle" x="403.39" y="-695.3" font-family="Times,serif" font-size="14.00">Topic</text>
</a>
</g>
</g>
<!-- VerifierRole -->
<g id="node19" class="node">
<title>VerifierRole</title>
<g id="a_node19"><a xlink:href="/develop/Data/models.html#verifier-role" xlink:title="VerifierRole" target="_top">
<polygon fill="#eeefff" stroke="#dddeee" points="444.89,-74 361.89,-74 361.89,-38 444.89,-38 444.89,-74"/>
<text text-anchor="middle" x="403.39" y="-52.3" font-family="Times,serif" font-size="14.00">VerifierRole</text>
</a>
</g>
</g>
<!-- Verifier -->
<g id="node20" class="node">
<title>Verifier</title>
<g id="a_node20"><a xlink:href="/develop/Data/models.html#verifier" xlink:title="Verifier" target="_top">
<polygon fill="#eeefff" stroke="#dddeee" points="581.89,-101 524.89,-101 524.89,-65 581.89,-65 581.89,-101"/>
<text text-anchor="middle" x="553.39" y="-79.3" font-family="Times,serif" font-size="14.00">Verifier</text>
</a>
</g>
</g>
<!-- Creator -->
<g id="node21" class="node">
<title>Creator</title>
<g id="a_node21"><a xlink:href="/develop/Data/models.html#creator" xlink:title="Creator" target="_top">
<polygon fill="#eeefff" stroke="#dddeee" points="581.89,-531 524.89,-531 524.89,-495 581.89,-495 581.89,-531"/>
<text text-anchor="middle" x="553.39" y="-509.3" font-family="Times,serif" font-size="14.00">Creator</text>
</a>
</g>
</g>
<!-- GeographicArea -->
<g id="node22" class="node">
<title>GeographicArea</title>
<g id="a_node22"><a xlink:href="/develop/Data/models.html#geographic-area" xlink:title="GeographicArea" target="_top">
<polygon fill="#eeefff" stroke="#dddeee" points="456.39,-477 350.39,-477 350.39,-441 456.39,-441 456.39,-477"/>
<text text-anchor="middle" x="403.39" y="-455.3" font-family="Times,serif" font-size="14.00">GeographicArea</text>
</a>
</g>
</g>
<!-- Language -->
<g id="node23" class="node">
<title>Language</title>
<g id="a_node23"><a xlink:href="/develop/Data/models.html#language" xlink:title="Language" target="_top">
<polygon fill="#eeefff" stroke="#dddeee" points="438.39,-423 368.39,-423 368.39,-387 438.39,-387 438.39,-423"/>
<text text-anchor="middle" x="403.39" y="-401.3" font-family="Times,serif" font-size="14.00">Language</text>
</a>
</g>
</g>
<!-- Project -->
<g id="node24" class="node">
<title>Project</title>
<g id="a_node24"><a xlink:href="/develop/Data/models.html#project" xlink:title="Project" target="_top">
<polygon fill="#eeefff" stroke="#dddeee" points="430.89,-531 375.89,-531 375.89,-495 430.89,-495 430.89,-531"/>
<text text-anchor="middle" x="403.39" y="-509.3" font-family="Times,serif" font-size="14.00">Project</text>
</a>
</g>
</g>
<!-- Updater -->
<g id="node25" class="node">
<title>Updater</title>
<g id="a_node25"><a xlink:href="/develop/Data/models.html#updater" xlink:title="Updater" target="_top">
<polygon fill="#eeefff" stroke="#dddeee" points="738.39,-531 678.39,-531 678.39,-495 738.39,-495 738.39,-531"/>
<text text-anchor="middle" x="708.39" y="-509.3" font-family="Times,serif" font-size="14.00">Updater</text>
</a>
</g>
</g>
<!-- OriginCitation -->
<g id="node26" class="node">
<title>OriginCitation</title>
<g id="a_node26"><a xlink:href="/develop/Data/models.html#origin-citation" xlink:title="OriginCitation" target="_top">
<polygon fill="#eeefff" stroke="#dddeee" points="600.89,-596 505.89,-596 505.89,-560 600.89,-560 600.89,-596"/>
<text text-anchor="middle" x="553.39" y="-574.3" font-family="Times,serif" font-size="14.00">OriginCitation</text>
</a>
</g>
</g>
</g>
</svg>
