<?xml version="1.0" encoding="UTF-8" standalone="no"?>
<!DOCTYPE svg PUBLIC "-//W3C//DTD SVG 1.1//EN"
 "http://www.w3.org/Graphics/SVG/1.1/DTD/svg11.dtd">
<!-- Generated by graphviz version 2.50.0 (20211204.2007)
 -->
<!-- Title: Confidence Pages: 1 -->
<svg width="706pt" height="632pt"
 viewBox="0.00 0.00 705.90 632.00" xmlns="http://www.w3.org/2000/svg" xmlns:xlink="http://www.w3.org/1999/xlink">
<g id="graph0" class="graph" transform="scale(1 1) rotate(0) translate(4 628)">
<title>Confidence</title>
<polygon fill="white" stroke="transparent" points="-4,4 -4,-628 701.9,-628 701.9,4 -4,4"/>
<!-- Confidence&#45;&gt;Citation -->
<g id="edge2" class="edge">
<title>Confidence&#45;&gt;Citation</title>
<path fill="none" stroke="black" d="M58.87,-290.91C58.87,-227.75 58.87,-164.58 58.87,-101.42"/>
<polygon fill="black" stroke="black" points="62.37,-101.28 58.87,-91.28 55.37,-101.28 62.37,-101.28"/>
</g>
<!-- Confidence&#45;&gt;Source -->
<g id="edge18" class="edge">
<title>Confidence&#45;&gt;Source</title>
<path fill="none" stroke="black" stroke-dasharray="1,5" d="M65.63,-280.99C75.51,-235.41 100.07,-152.23 153.74,-106 179.14,-84.12 218.14,-76.7 243.81,-74.21"/>
<polygon fill="black" stroke="black" points="62.17,-280.42 63.58,-290.92 69.03,-281.83 62.17,-280.42"/>
</g>
<!-- Confidence&#45;&gt;ControlledVocabularyTerm -->
<g id="edge13" class="edge">
<title>Confidence&#45;&gt;ControlledVocabularyTerm</title>
<path fill="none" stroke="black" stroke-dasharray="5,2" d="M127.89,-313C146.97,-313 167.92,-313 187.73,-313"/>
<polygon fill="black" stroke="black" points="127.8,-309.5 117.8,-313 127.8,-316.5 127.8,-309.5"/>
</g>
<!-- Confidence&#45;&gt;PinboardItem -->
<g id="edge3" class="edge">
<title>Confidence&#45;&gt;PinboardItem</title>
<path fill="none" stroke="black" d="M106.03,-298.62C121.17,-294.06 138.13,-289.14 153.74,-285 173.76,-279.69 195.86,-274.41 215.36,-269.94"/>
<polygon fill="black" stroke="black" points="216.32,-273.31 225.29,-267.69 214.76,-266.49 216.32,-273.31"/>
</g>
<!-- Confidence&#45;&gt;Role -->
<g id="edge4" class="edge">
<title>Confidence&#45;&gt;Role</title>
<path fill="none" stroke="black" d="M79.27,-290.82C96.86,-272.09 124.47,-245.99 153.74,-231 178.77,-218.18 209.93,-211.37 233.67,-207.79"/>
<polygon fill="black" stroke="black" points="234.25,-211.24 243.67,-206.41 233.29,-204.31 234.25,-211.24"/>
</g>
<!-- Confidence&#45;&gt;SubsequentCitation -->
<g id="edge6" class="edge">
<title>Confidence&#45;&gt;SubsequentCitation</title>
<path fill="none" stroke="black" d="M67.96,-290.99C80.79,-259.58 109.04,-202.84 153.74,-177 233.59,-130.85 342.95,-131.92 413.52,-139.16"/>
<polygon fill="black" stroke="black" points="413.32,-142.66 423.65,-140.27 414.09,-135.71 413.32,-142.66"/>
</g>
<!-- Confidence&#45;&gt;VerifierRole -->
<g id="edge9" class="edge">
<title>Confidence&#45;&gt;VerifierRole</title>
<path fill="none" stroke="black" d="M79.27,-335.18C96.86,-353.91 124.47,-380.01 153.74,-395 173.92,-405.33 198.09,-411.77 219.14,-415.75"/>
<polygon fill="black" stroke="black" points="218.74,-419.23 229.19,-417.51 219.95,-412.33 218.74,-419.23"/>
</g>
<!-- Confidence&#45;&gt;ConfidenceLevel -->
<g id="edge11" class="edge">
<title>Confidence&#45;&gt;ConfidenceLevel</title>
<path fill="none" stroke="black" stroke-dasharray="5,2" d="M62.17,-345.47C67.85,-400.59 87.35,-512.48 153.74,-574 170.61,-589.63 194.42,-597.73 216.08,-601.9"/>
<polygon fill="black" stroke="black" points="65.63,-344.86 61.21,-335.23 58.66,-345.51 65.63,-344.86"/>
</g>
<!-- Confidence&#45;&gt;Creator -->
<g id="edge14" class="edge">
<title>Confidence&#45;&gt;Creator</title>
<path fill="none" stroke="black" stroke-dasharray="5,2" d="M62.32,-345.45C68.16,-397.15 87.83,-496.86 153.74,-541 248.83,-604.68 395.59,-553.04 456.23,-526.89"/>
<polygon fill="black" stroke="black" points="65.76,-344.78 61.27,-335.18 58.8,-345.49 65.76,-344.78"/>
</g>
<!-- Confidence&#45;&gt;Project -->
<g id="edge15" class="edge">
<title>Confidence&#45;&gt;Project</title>
<path fill="none" stroke="black" stroke-dasharray="5,2" d="M69.08,-344.65C81.84,-382.89 108.58,-446.48 153.74,-482 179.71,-502.42 217.84,-509.82 243.23,-512.5"/>
<polygon fill="black" stroke="black" points="72.39,-343.5 65.99,-335.05 65.72,-345.64 72.39,-343.5"/>
</g>
<!-- Confidence&#45;&gt;Updater -->
<g id="edge16" class="edge">
<title>Confidence&#45;&gt;Updater</title>
<path fill="none" stroke="black" stroke-dasharray="5,2" d="M72.16,-344.61C86.51,-376.84 113.52,-425.34 153.74,-449 229.21,-493.38 459.91,-470.5 545.9,-487 567.53,-491.15 591.37,-498.12 609.5,-503.94"/>
<polygon fill="black" stroke="black" points="75.28,-342.99 68.12,-335.18 68.84,-345.75 75.28,-342.99"/>
</g>
<!-- Confidence&#45;&gt;OriginCitation -->
<g id="edge17" class="edge">
<title>Confidence&#45;&gt;OriginCitation</title>
<path fill="none" stroke="black" stroke-dasharray="1,5" d="M67.09,-280.98C78.18,-239.76 103.61,-169.27 153.74,-134 159.51,-129.95 347.57,-105.44 437.23,-93.94"/>
<polygon fill="black" stroke="black" points="63.67,-280.23 64.58,-290.79 70.45,-281.97 63.67,-280.23"/>
</g>
<!-- Confidence&#45;&gt;Objects with Confidences -->
<g id="edge12" class="edge">
<title>Confidence&#45;&gt;Objects with Confidences</title>
<path fill="none" stroke="black" stroke-dasharray="5,2" d="M116.66,-329.76C128.87,-333.24 141.71,-336.82 153.74,-340 169.88,-344.26 187.34,-348.62 203.71,-352.58"/>
<polygon fill="black" stroke="black" points="117.61,-326.39 107.04,-327 115.68,-333.12 117.61,-326.39"/>
</g>
<!-- Citation&#45;&gt;Source -->
<g id="edge5" class="edge">
<title>Citation&#45;&gt;Source</title>
<path fill="none" stroke="black" d="M97.89,-73C136.45,-73 195.7,-73 233.6,-73"/>
<polygon fill="black" stroke="black" points="233.69,-76.5 243.69,-73 233.69,-69.5 233.69,-76.5"/>
</g>
<!-- Citation&#45;&gt;CitationTopic -->
<g id="edge1" class="edge">
<title>Citation&#45;&gt;CitationTopic</title>
<path fill="none" stroke="black" d="M91.46,-63.05C109.6,-57.47 132.87,-50.54 153.74,-45 173.59,-39.74 195.48,-34.5 214.86,-30.06"/>
<polygon fill="black" stroke="black" points="215.76,-33.44 224.74,-27.81 214.21,-26.62 215.76,-33.44"/>
</g>
<!-- Source&#45;&gt;SubsequentCitation -->
<!-- Source&#45;&gt;OriginCitation -->
<!-- CitationTopic&#45;&gt;Topic -->
<g id="edge8" class="edge">
<title>CitationTopic&#45;&gt;Topic</title>
<path fill="none" stroke="black" d="M317.06,-18C356.03,-18 411.55,-18 447.66,-18"/>
<polygon fill="black" stroke="black" points="447.75,-21.5 457.75,-18 447.75,-14.5 447.75,-21.5"/>
</g>
<!-- Role&#45;&gt;Verifier -->
<!-- SubsequentCitation&#45;&gt;SubsequentSource -->
<g id="edge7" class="edge">
<title>SubsequentCitation&#45;&gt;SubsequentSource</title>
<path fill="none" stroke="black" d="M545.93,-150C554.26,-150 562.87,-150 571.33,-150"/>
<polygon fill="black" stroke="black" points="571.54,-153.5 581.54,-150 571.54,-146.5 571.54,-153.5"/>
</g>
<!-- VerifierRole&#45;&gt;Verifier -->
<g id="edge10" class="edge">
<title>VerifierRole&#45;&gt;Verifier</title>
<path fill="none" stroke="black" d="M312.56,-417.15C335.55,-413.29 364.3,-406.56 387.9,-395 414.9,-381.78 441.08,-359.69 459.26,-342.39"/>
<polygon fill="black" stroke="black" points="461.81,-344.79 466.54,-335.3 456.93,-339.77 461.81,-344.79"/>
</g>
<!-- Creator&#45;&gt;Updater -->
<!-- Project&#45;&gt;Creator -->
<!-- Confidence -->
<g id="node1" class="node">
<title>Confidence</title>
<g id="a_node1"><a xlink:href="/develop/Data/models.html#confidence" xlink:title="Confidence" target="_top">
<polygon fill="#cdefab" stroke="#dedede" points="113.63,-305.54 113.63,-320.46 81.55,-331 36.19,-331 4.12,-320.46 4.12,-305.54 36.19,-295 81.55,-295 113.63,-305.54"/>
<polygon fill="none" stroke="#dedede" points="117.62,-302.65 117.62,-323.35 82.19,-335 35.55,-335 0.13,-323.35 0.13,-302.65 35.55,-291 82.19,-291 117.62,-302.65"/>
<text text-anchor="middle" x="58.87" y="-309.3" font-family="Times,serif" font-size="14.00">Confidence</text>
</a>
</g>
</g>
<!-- Citation -->
<g id="node2" class="node">
<title>Citation</title>
<g id="a_node2"><a xlink:href="/develop/Data/models.html#citation" xlink:title="Citation" target="_top">
<ellipse fill="#abcdef" stroke="#dddeee" cx="58.87" cy="-73" rx="38.99" ry="18"/>
<text text-anchor="middle" x="58.87" y="-69.3" font-family="Times,serif" font-size="14.00">Citation</text>
</a>
</g>
</g>
<!-- Source -->
<g id="node3" class="node">
<title>Source</title>
<g id="a_node3"><a xlink:href="/develop/Data/models.html#source" xlink:title="Source" target="_top">
<path fill="#fedcba" stroke="#dddeee" d="M255.82,-55C255.82,-55 285.82,-55 285.82,-55 291.82,-55 297.82,-61 297.82,-67 297.82,-67 297.82,-79 297.82,-79 297.82,-85 291.82,-91 285.82,-91 285.82,-91 255.82,-91 255.82,-91 249.82,-91 243.82,-85 243.82,-79 243.82,-79 243.82,-67 243.82,-67 243.82,-61 249.82,-55 255.82,-55"/>
<text text-anchor="middle" x="270.82" y="-69.3" font-family="Times,serif" font-size="14.00">Source</text>
</a>
</g>
</g>
<!-- ControlledVocabularyTerm -->
<g id="node4" class="node">
<title>ControlledVocabularyTerm</title>
<g id="a_node4"><a xlink:href="/develop/Data/models.html#controlled-vocabulary-term" xlink:title="ControlledVocabularyTerm" target="_top">
<path fill="#fedcba" stroke="#dddeee" d="M199.82,-295C199.82,-295 341.82,-295 341.82,-295 347.82,-295 353.82,-301 353.82,-307 353.82,-307 353.82,-319 353.82,-319 353.82,-325 347.82,-331 341.82,-331 341.82,-331 199.82,-331 199.82,-331 193.82,-331 187.82,-325 187.82,-319 187.82,-319 187.82,-307 187.82,-307 187.82,-301 193.82,-295 199.82,-295"/>
<text text-anchor="middle" x="270.82" y="-309.3" font-family="Times,serif" font-size="14.00">ControlledVocabularyTerm</text>
</a>
</g>
</g>
<!-- CitationTopic -->
<g id="node5" class="node">
<title>CitationTopic</title>
<g id="a_node5"><a xlink:href="/develop/Data/models.html#citation-topic" xlink:title="CitationTopic" target="_top">
<polygon fill="#eeefff" stroke="#dddeee" points="316.82,-36 224.82,-36 224.82,0 316.82,0 316.82,-36"/>
<text text-anchor="middle" x="270.82" y="-14.3" font-family="Times,serif" font-size="14.00">CitationTopic</text>
</a>
</g>
</g>
<!-- PinboardItem -->
<g id="node6" class="node">
<title>PinboardItem</title>
<g id="a_node6"><a xlink:href="/develop/Data/models.html#pinboard-item" xlink:title="PinboardItem" target="_top">
<polygon fill="#eeefff" stroke="#dddeee" points="316.32,-276 225.32,-276 225.32,-240 316.32,-240 316.32,-276"/>
<text text-anchor="middle" x="270.82" y="-254.3" font-family="Times,serif" font-size="14.00">PinboardItem</text>
</a>
</g>
</g>
<!-- Role -->
<g id="node7" class="node">
<title>Role</title>
<g id="a_node7"><a xlink:href="/develop/Data/models.html#role" xlink:title="Role" target="_top">
<polygon fill="#eeefff" stroke="#dddeee" points="297.82,-222 243.82,-222 243.82,-186 297.82,-186 297.82,-222"/>
<text text-anchor="middle" x="270.82" y="-200.3" font-family="Times,serif" font-size="14.00">Role</text>
</a>
</g>
</g>
<!-- SubsequentCitation -->
<g id="node8" class="node">
<title>SubsequentCitation</title>
<g id="a_node8"><a xlink:href="/develop/Data/models.html#subsequent-citation" xlink:title="SubsequentCitation" target="_top">
<polygon fill="#eeefff" stroke="#dddeee" points="545.9,-168 423.9,-168 423.9,-132 545.9,-132 545.9,-168"/>
<text text-anchor="middle" x="484.9" y="-146.3" font-family="Times,serif" font-size="14.00">SubsequentCitation</text>
</a>
</g>
</g>
<!-- SubsequentSource -->
<g id="node9" class="node">
<title>SubsequentSource</title>
<g id="a_node9"><a xlink:href="/develop/Data/models.html#subsequent-source" xlink:title="SubsequentSource" target="_top">
<polygon fill="#eeefff" stroke="#dddeee" points="697.9,-168 581.9,-168 581.9,-132 697.9,-132 697.9,-168"/>
<text text-anchor="middle" x="639.9" y="-146.3" font-family="Times,serif" font-size="14.00">SubsequentSource</text>
</a>
</g>
</g>
<!-- Topic -->
<g id="node10" class="node">
<title>Topic</title>
<g id="a_node10"><a xlink:href="/develop/Data/models.html#topic" xlink:title="Topic" target="_top">
<polygon fill="#eeefff" stroke="#dddeee" points="511.9,-36 457.9,-36 457.9,0 511.9,0 511.9,-36"/>
<text text-anchor="middle" x="484.9" y="-14.3" font-family="Times,serif" font-size="14.00">Topic</text>
</a>
</g>
</g>
<!-- VerifierRole -->
<g id="node11" class="node">
<title>VerifierRole</title>
<g id="a_node11"><a xlink:href="/develop/Data/models.html#verifier-role" xlink:title="VerifierRole" target="_top">
<polygon fill="#eeefff" stroke="#dddeee" points="312.32,-440 229.32,-440 229.32,-404 312.32,-404 312.32,-440"/>
<text text-anchor="middle" x="270.82" y="-418.3" font-family="Times,serif" font-size="14.00">VerifierRole</text>
</a>
</g>
</g>
<!-- Verifier -->
<g id="node12" class="node">
<title>Verifier</title>
<g id="a_node12"><a xlink:href="/develop/Data/models.html#verifier" xlink:title="Verifier" target="_top">
<polygon fill="#eeefff" stroke="#dddeee" points="513.4,-335 456.4,-335 456.4,-299 513.4,-299 513.4,-335"/>
<text text-anchor="middle" x="484.9" y="-313.3" font-family="Times,serif" font-size="14.00">Verifier</text>
</a>
</g>
</g>
<!-- ConfidenceLevel -->
<g id="node13" class="node">
<title>ConfidenceLevel</title>
<g id="a_node13"><a xlink:href="/develop/Data/models.html#confidence-level" xlink:title="ConfidenceLevel" target="_top">
<polygon fill="#eeefff" stroke="#dddeee" points="325.32,-624 216.32,-624 216.32,-588 325.32,-588 325.32,-624"/>
<text text-anchor="middle" x="270.82" y="-602.3" font-family="Times,serif" font-size="14.00">ConfidenceLevel</text>
</a>
</g>
</g>
<!-- Creator -->
<g id="node14" class="node">
<title>Creator</title>
<g id="a_node14"><a xlink:href="/develop/Data/models.html#creator" xlink:title="Creator" target="_top">
<polygon fill="#eeefff" stroke="#dddeee" points="513.4,-532 456.4,-532 456.4,-496 513.4,-496 513.4,-532"/>
<text text-anchor="middle" x="484.9" y="-510.3" font-family="Times,serif" font-size="14.00">Creator</text>
</a>
</g>
</g>
<!-- Project -->
<g id="node15" class="node">
<title>Project</title>
<g id="a_node15"><a xlink:href="/develop/Data/models.html#project" xlink:title="Project" target="_top">
<polygon fill="#eeefff" stroke="#dddeee" points="298.32,-532 243.32,-532 243.32,-496 298.32,-496 298.32,-532"/>
<text text-anchor="middle" x="270.82" y="-510.3" font-family="Times,serif" font-size="14.00">Project</text>
</a>
</g>
</g>
<!-- Updater -->
<g id="node16" class="node">
<title>Updater</title>
<g id="a_node16"><a xlink:href="/develop/Data/models.html#updater" xlink:title="Updater" target="_top">
<polygon fill="#eeefff" stroke="#dddeee" points="669.9,-532 609.9,-532 609.9,-496 669.9,-496 669.9,-532"/>
<text text-anchor="middle" x="639.9" y="-510.3" font-family="Times,serif" font-size="14.00">Updater</text>
</a>
</g>
</g>
<!-- OriginCitation -->
<g id="node17" class="node">
<title>OriginCitation</title>
<g id="a_node17"><a xlink:href="/develop/Data/models.html#origin-citation" xlink:title="OriginCitation" target="_top">
<polygon fill="#eeefff" stroke="#dddeee" points="532.4,-106 437.4,-106 437.4,-70 532.4,-70 532.4,-106"/>
<text text-anchor="middle" x="484.9" y="-84.3" font-family="Times,serif" font-size="14.00">OriginCitation</text>
</a>
</g>
</g>
<!-- Objects with Confidences -->
<g id="node18" class="node">
<title>Objects with Confidences</title>
<g id="a_node18"><a xlink:href="/develop/Data/models.html#objects with confidence" xlink:title="Objects with Confidences" target="_top">
<polygon fill="#cdabef" stroke="#dedede" points="387.97,-368 329.4,-386 212.24,-386 153.67,-368 212.24,-350 329.4,-350 387.97,-368"/>
<text text-anchor="middle" x="270.82" y="-364.3" font-family="Times,serif" font-size="14.00">Objects with Confidences</text>
</a>
</g>
</g>
</g>
</svg>
