<?xml version="1.0" encoding="UTF-8" standalone="no"?>
<!DOCTYPE svg PUBLIC "-//W3C//DTD SVG 1.1//EN"
 "http://www.w3.org/Graphics/SVG/1.1/DTD/svg11.dtd">
<!-- Generated by graphviz version 2.50.0 (20211204.2007)
 -->
<!-- Title: Confidence Pages: 1 -->
<svg width="706pt" height="670pt"
 viewBox="0.00 0.00 705.90 670.00" xmlns="http://www.w3.org/2000/svg" xmlns:xlink="http://www.w3.org/1999/xlink">
<g id="graph0" class="graph" transform="scale(1 1) rotate(0) translate(4 666)">
<title>Confidence</title>
<polygon fill="white" stroke="transparent" points="-4,4 -4,-666 701.9,-666 701.9,4 -4,4"/>
<text text-anchor="middle" x="348.95" y="-22.8" font-family="Times,serif" font-size="14.00">Algorithmically generated relationships for Confidence based on assertions of &#39;has_many&#39;, &#39;has_one&#39;, &#39;belongs_to&#39;. </text>
<text text-anchor="middle" x="348.95" y="-7.8" font-family="Times,serif" font-size="14.00">Generated 2022&#45;01&#45;25 11:42:37 &#45;0600.</text>
<!-- Confidence&#45;&gt;Citation -->
<g id="edge2" class="edge">
<title>Confidence&#45;&gt;Citation</title>
<path fill="none" stroke="black" d="M58.87,-328.91C58.87,-265.75 58.87,-202.58 58.87,-139.42"/>
<polygon fill="black" stroke="black" points="62.37,-139.28 58.87,-129.28 55.37,-139.28 62.37,-139.28"/>
</g>
<!-- Confidence&#45;&gt;Source -->
<g id="edge18" class="edge">
<title>Confidence&#45;&gt;Source</title>
<path fill="none" stroke="black" stroke-dasharray="1,5" d="M65.63,-318.99C75.51,-273.41 100.07,-190.23 153.74,-144 179.14,-122.12 218.14,-114.7 243.81,-112.21"/>
<polygon fill="black" stroke="black" points="62.17,-318.42 63.58,-328.92 69.03,-319.83 62.17,-318.42"/>
</g>
<!-- Confidence&#45;&gt;ControlledVocabularyTerm -->
<g id="edge13" class="edge">
<title>Confidence&#45;&gt;ControlledVocabularyTerm</title>
<path fill="none" stroke="black" stroke-dasharray="5,2" d="M127.89,-351C146.97,-351 167.92,-351 187.73,-351"/>
<polygon fill="black" stroke="black" points="127.8,-347.5 117.8,-351 127.8,-354.5 127.8,-347.5"/>
</g>
<!-- Confidence&#45;&gt;PinboardItem -->
<g id="edge3" class="edge">
<title>Confidence&#45;&gt;PinboardItem</title>
<path fill="none" stroke="black" d="M106.03,-336.62C121.17,-332.06 138.13,-327.14 153.74,-323 173.76,-317.69 195.86,-312.41 215.36,-307.94"/>
<polygon fill="black" stroke="black" points="216.32,-311.31 225.29,-305.69 214.76,-304.49 216.32,-311.31"/>
</g>
<!-- Confidence&#45;&gt;Role -->
<g id="edge4" class="edge">
<title>Confidence&#45;&gt;Role</title>
<path fill="none" stroke="black" d="M79.27,-328.82C96.86,-310.09 124.47,-283.99 153.74,-269 178.77,-256.18 209.93,-249.37 233.67,-245.79"/>
<polygon fill="black" stroke="black" points="234.25,-249.24 243.67,-244.41 233.29,-242.31 234.25,-249.24"/>
</g>
<!-- Confidence&#45;&gt;SubsequentCitation -->
<g id="edge6" class="edge">
<title>Confidence&#45;&gt;SubsequentCitation</title>
<path fill="none" stroke="black" d="M67.96,-328.99C80.79,-297.58 109.04,-240.84 153.74,-215 233.59,-168.85 342.95,-169.92 413.52,-177.16"/>
<polygon fill="black" stroke="black" points="413.32,-180.66 423.65,-178.27 414.09,-173.71 413.32,-180.66"/>
</g>
<!-- Confidence&#45;&gt;VerifierRole -->
<g id="edge9" class="edge">
<title>Confidence&#45;&gt;VerifierRole</title>
<path fill="none" stroke="black" d="M79.27,-373.18C96.86,-391.91 124.47,-418.01 153.74,-433 173.92,-443.33 198.09,-449.77 219.14,-453.75"/>
<polygon fill="black" stroke="black" points="218.74,-457.23 229.19,-455.51 219.95,-450.33 218.74,-457.23"/>
</g>
<!-- Confidence&#45;&gt;ConfidenceLevel -->
<g id="edge11" class="edge">
<title>Confidence&#45;&gt;ConfidenceLevel</title>
<path fill="none" stroke="black" stroke-dasharray="5,2" d="M62.17,-383.47C67.85,-438.59 87.35,-550.48 153.74,-612 170.61,-627.63 194.42,-635.73 216.08,-639.9"/>
<polygon fill="black" stroke="black" points="65.63,-382.86 61.21,-373.23 58.66,-383.51 65.63,-382.86"/>
</g>
<!-- Confidence&#45;&gt;Creator -->
<g id="edge14" class="edge">
<title>Confidence&#45;&gt;Creator</title>
<path fill="none" stroke="black" stroke-dasharray="5,2" d="M62.32,-383.45C68.16,-435.15 87.83,-534.86 153.74,-579 248.83,-642.68 395.59,-591.04 456.23,-564.89"/>
<polygon fill="black" stroke="black" points="65.76,-382.78 61.27,-373.18 58.8,-383.49 65.76,-382.78"/>
</g>
<!-- Confidence&#45;&gt;Project -->
<g id="edge15" class="edge">
<title>Confidence&#45;&gt;Project</title>
<path fill="none" stroke="black" stroke-dasharray="5,2" d="M69.08,-382.65C81.84,-420.89 108.58,-484.48 153.74,-520 179.71,-540.42 217.84,-547.82 243.23,-550.5"/>
<polygon fill="black" stroke="black" points="72.39,-381.5 65.99,-373.05 65.72,-383.64 72.39,-381.5"/>
</g>
<!-- Confidence&#45;&gt;Updater -->
<g id="edge16" class="edge">
<title>Confidence&#45;&gt;Updater</title>
<path fill="none" stroke="black" stroke-dasharray="5,2" d="M72.16,-382.61C86.51,-414.84 113.52,-463.34 153.74,-487 229.21,-531.38 459.91,-508.5 545.9,-525 567.53,-529.15 591.37,-536.12 609.5,-541.94"/>
<polygon fill="black" stroke="black" points="75.28,-380.99 68.12,-373.18 68.84,-383.75 75.28,-380.99"/>
</g>
<!-- Confidence&#45;&gt;OriginCitation -->
<g id="edge17" class="edge">
<title>Confidence&#45;&gt;OriginCitation</title>
<path fill="none" stroke="black" stroke-dasharray="1,5" d="M67.09,-318.98C78.18,-277.76 103.61,-207.27 153.74,-172 159.51,-167.95 347.57,-143.44 437.23,-131.94"/>
<polygon fill="black" stroke="black" points="63.67,-318.23 64.58,-328.79 70.45,-319.97 63.67,-318.23"/>
</g>
<!-- Confidence&#45;&gt;Objects with Confidences -->
<g id="edge12" class="edge">
<title>Confidence&#45;&gt;Objects with Confidences</title>
<path fill="none" stroke="black" stroke-dasharray="5,2" d="M116.66,-367.76C128.87,-371.24 141.71,-374.82 153.74,-378 169.88,-382.26 187.34,-386.62 203.71,-390.58"/>
<polygon fill="black" stroke="black" points="117.61,-364.39 107.04,-365 115.68,-371.12 117.61,-364.39"/>
</g>
<!-- Citation&#45;&gt;Source -->
<g id="edge5" class="edge">
<title>Citation&#45;&gt;Source</title>
<path fill="none" stroke="black" d="M97.89,-111C136.45,-111 195.7,-111 233.6,-111"/>
<polygon fill="black" stroke="black" points="233.69,-114.5 243.69,-111 233.69,-107.5 233.69,-114.5"/>
</g>
<!-- Citation&#45;&gt;CitationTopic -->
<g id="edge1" class="edge">
<title>Citation&#45;&gt;CitationTopic</title>
<path fill="none" stroke="black" d="M91.46,-101.05C109.6,-95.47 132.87,-88.54 153.74,-83 173.59,-77.74 195.48,-72.5 214.86,-68.06"/>
<polygon fill="black" stroke="black" points="215.76,-71.44 224.74,-65.81 214.21,-64.62 215.76,-71.44"/>
</g>
<!-- Source&#45;&gt;SubsequentCitation -->
<!-- Source&#45;&gt;OriginCitation -->
<!-- CitationTopic&#45;&gt;Topic -->
<g id="edge8" class="edge">
<title>CitationTopic&#45;&gt;Topic</title>
<path fill="none" stroke="black" d="M317.06,-56C356.03,-56 411.55,-56 447.66,-56"/>
<polygon fill="black" stroke="black" points="447.75,-59.5 457.75,-56 447.75,-52.5 447.75,-59.5"/>
</g>
<!-- Role&#45;&gt;Verifier -->
<!-- SubsequentCitation&#45;&gt;SubsequentSource -->
<g id="edge7" class="edge">
<title>SubsequentCitation&#45;&gt;SubsequentSource</title>
<path fill="none" stroke="black" d="M545.93,-188C554.26,-188 562.87,-188 571.33,-188"/>
<polygon fill="black" stroke="black" points="571.54,-191.5 581.54,-188 571.54,-184.5 571.54,-191.5"/>
</g>
<!-- VerifierRole&#45;&gt;Verifier -->
<g id="edge10" class="edge">
<title>VerifierRole&#45;&gt;Verifier</title>
<path fill="none" stroke="black" d="M312.56,-455.15C335.55,-451.29 364.3,-444.56 387.9,-433 414.9,-419.78 441.08,-397.69 459.26,-380.39"/>
<polygon fill="black" stroke="black" points="461.81,-382.79 466.54,-373.3 456.93,-377.77 461.81,-382.79"/>
</g>
<!-- Creator&#45;&gt;Updater -->
<!-- Project&#45;&gt;Creator -->
<!-- Confidence -->
<g id="node1" class="node">
<title>Confidence</title>
<g id="a_node1"><a xlink:href="/develop/Data/models.html#confidence" xlink:title="Confidence" target="_top">
<polygon fill="#cdefab" stroke="#dedede" points="113.63,-343.54 113.63,-358.46 81.55,-369 36.19,-369 4.12,-358.46 4.12,-343.54 36.19,-333 81.55,-333 113.63,-343.54"/>
<polygon fill="none" stroke="#dedede" points="117.62,-340.65 117.62,-361.35 82.19,-373 35.55,-373 0.13,-361.35 0.13,-340.65 35.55,-329 82.19,-329 117.62,-340.65"/>
<text text-anchor="middle" x="58.87" y="-347.3" font-family="Times,serif" font-size="14.00">Confidence</text>
</a>
</g>
</g>
<!-- Citation -->
<g id="node2" class="node">
<title>Citation</title>
<g id="a_node2"><a xlink:href="/develop/Data/models.html#citation" xlink:title="Citation" target="_top">
<ellipse fill="#abcdef" stroke="#dddeee" cx="58.87" cy="-111" rx="38.99" ry="18"/>
<text text-anchor="middle" x="58.87" y="-107.3" font-family="Times,serif" font-size="14.00">Citation</text>
</a>
</g>
</g>
<!-- Source -->
<g id="node3" class="node">
<title>Source</title>
<g id="a_node3"><a xlink:href="/develop/Data/models.html#source" xlink:title="Source" target="_top">
<path fill="#fedcba" stroke="#dddeee" d="M255.82,-93C255.82,-93 285.82,-93 285.82,-93 291.82,-93 297.82,-99 297.82,-105 297.82,-105 297.82,-117 297.82,-117 297.82,-123 291.82,-129 285.82,-129 285.82,-129 255.82,-129 255.82,-129 249.82,-129 243.82,-123 243.82,-117 243.82,-117 243.82,-105 243.82,-105 243.82,-99 249.82,-93 255.82,-93"/>
<text text-anchor="middle" x="270.82" y="-107.3" font-family="Times,serif" font-size="14.00">Source</text>
</a>
</g>
</g>
<!-- ControlledVocabularyTerm -->
<g id="node4" class="node">
<title>ControlledVocabularyTerm</title>
<g id="a_node4"><a xlink:href="/develop/Data/models.html#controlled-vocabulary-term" xlink:title="ControlledVocabularyTerm" target="_top">
<path fill="#fedcba" stroke="#dddeee" d="M199.82,-333C199.82,-333 341.82,-333 341.82,-333 347.82,-333 353.82,-339 353.82,-345 353.82,-345 353.82,-357 353.82,-357 353.82,-363 347.82,-369 341.82,-369 341.82,-369 199.82,-369 199.82,-369 193.82,-369 187.82,-363 187.82,-357 187.82,-357 187.82,-345 187.82,-345 187.82,-339 193.82,-333 199.82,-333"/>
<text text-anchor="middle" x="270.82" y="-347.3" font-family="Times,serif" font-size="14.00">ControlledVocabularyTerm</text>
</a>
</g>
</g>
<!-- CitationTopic -->
<g id="node5" class="node">
<title>CitationTopic</title>
<g id="a_node5"><a xlink:href="/develop/Data/models.html#citation-topic" xlink:title="CitationTopic" target="_top">
<polygon fill="#eeefff" stroke="#dddeee" points="316.82,-74 224.82,-74 224.82,-38 316.82,-38 316.82,-74"/>
<text text-anchor="middle" x="270.82" y="-52.3" font-family="Times,serif" font-size="14.00">CitationTopic</text>
</a>
</g>
</g>
<!-- PinboardItem -->
<g id="node6" class="node">
<title>PinboardItem</title>
<g id="a_node6"><a xlink:href="/develop/Data/models.html#pinboard-item" xlink:title="PinboardItem" target="_top">
<polygon fill="#eeefff" stroke="#dddeee" points="316.32,-314 225.32,-314 225.32,-278 316.32,-278 316.32,-314"/>
<text text-anchor="middle" x="270.82" y="-292.3" font-family="Times,serif" font-size="14.00">PinboardItem</text>
</a>
</g>
</g>
<!-- Role -->
<g id="node7" class="node">
<title>Role</title>
<g id="a_node7"><a xlink:href="/develop/Data/models.html#role" xlink:title="Role" target="_top">
<polygon fill="#eeefff" stroke="#dddeee" points="297.82,-260 243.82,-260 243.82,-224 297.82,-224 297.82,-260"/>
<text text-anchor="middle" x="270.82" y="-238.3" font-family="Times,serif" font-size="14.00">Role</text>
</a>
</g>
</g>
<!-- SubsequentCitation -->
<g id="node8" class="node">
<title>SubsequentCitation</title>
<g id="a_node8"><a xlink:href="/develop/Data/models.html#subsequent-citation" xlink:title="SubsequentCitation" target="_top">
<polygon fill="#eeefff" stroke="#dddeee" points="545.9,-206 423.9,-206 423.9,-170 545.9,-170 545.9,-206"/>
<text text-anchor="middle" x="484.9" y="-184.3" font-family="Times,serif" font-size="14.00">SubsequentCitation</text>
</a>
</g>
</g>
<!-- SubsequentSource -->
<g id="node9" class="node">
<title>SubsequentSource</title>
<g id="a_node9"><a xlink:href="/develop/Data/models.html#subsequent-source" xlink:title="SubsequentSource" target="_top">
<polygon fill="#eeefff" stroke="#dddeee" points="697.9,-206 581.9,-206 581.9,-170 697.9,-170 697.9,-206"/>
<text text-anchor="middle" x="639.9" y="-184.3" font-family="Times,serif" font-size="14.00">SubsequentSource</text>
</a>
</g>
</g>
<!-- Topic -->
<g id="node10" class="node">
<title>Topic</title>
<g id="a_node10"><a xlink:href="/develop/Data/models.html#topic" xlink:title="Topic" target="_top">
<polygon fill="#eeefff" stroke="#dddeee" points="511.9,-74 457.9,-74 457.9,-38 511.9,-38 511.9,-74"/>
<text text-anchor="middle" x="484.9" y="-52.3" font-family="Times,serif" font-size="14.00">Topic</text>
</a>
</g>
</g>
<!-- VerifierRole -->
<g id="node11" class="node">
<title>VerifierRole</title>
<g id="a_node11"><a xlink:href="/develop/Data/models.html#verifier-role" xlink:title="VerifierRole" target="_top">
<polygon fill="#eeefff" stroke="#dddeee" points="312.32,-478 229.32,-478 229.32,-442 312.32,-442 312.32,-478"/>
<text text-anchor="middle" x="270.82" y="-456.3" font-family="Times,serif" font-size="14.00">VerifierRole</text>
</a>
</g>
</g>
<!-- Verifier -->
<g id="node12" class="node">
<title>Verifier</title>
<g id="a_node12"><a xlink:href="/develop/Data/models.html#verifier" xlink:title="Verifier" target="_top">
<polygon fill="#eeefff" stroke="#dddeee" points="513.4,-373 456.4,-373 456.4,-337 513.4,-337 513.4,-373"/>
<text text-anchor="middle" x="484.9" y="-351.3" font-family="Times,serif" font-size="14.00">Verifier</text>
</a>
</g>
</g>
<!-- ConfidenceLevel -->
<g id="node13" class="node">
<title>ConfidenceLevel</title>
<g id="a_node13"><a xlink:href="/develop/Data/models.html#confidence-level" xlink:title="ConfidenceLevel" target="_top">
<polygon fill="#eeefff" stroke="#dddeee" points="325.32,-662 216.32,-662 216.32,-626 325.32,-626 325.32,-662"/>
<text text-anchor="middle" x="270.82" y="-640.3" font-family="Times,serif" font-size="14.00">ConfidenceLevel</text>
</a>
</g>
</g>
<!-- Creator -->
<g id="node14" class="node">
<title>Creator</title>
<g id="a_node14"><a xlink:href="/develop/Data/models.html#creator" xlink:title="Creator" target="_top">
<polygon fill="#eeefff" stroke="#dddeee" points="513.4,-570 456.4,-570 456.4,-534 513.4,-534 513.4,-570"/>
<text text-anchor="middle" x="484.9" y="-548.3" font-family="Times,serif" font-size="14.00">Creator</text>
</a>
</g>
</g>
<!-- Project -->
<g id="node15" class="node">
<title>Project</title>
<g id="a_node15"><a xlink:href="/develop/Data/models.html#project" xlink:title="Project" target="_top">
<polygon fill="#eeefff" stroke="#dddeee" points="298.32,-570 243.32,-570 243.32,-534 298.32,-534 298.32,-570"/>
<text text-anchor="middle" x="270.82" y="-548.3" font-family="Times,serif" font-size="14.00">Project</text>
</a>
</g>
</g>
<!-- Updater -->
<g id="node16" class="node">
<title>Updater</title>
<g id="a_node16"><a xlink:href="/develop/Data/models.html#updater" xlink:title="Updater" target="_top">
<polygon fill="#eeefff" stroke="#dddeee" points="669.9,-570 609.9,-570 609.9,-534 669.9,-534 669.9,-570"/>
<text text-anchor="middle" x="639.9" y="-548.3" font-family="Times,serif" font-size="14.00">Updater</text>
</a>
</g>
</g>
<!-- OriginCitation -->
<g id="node17" class="node">
<title>OriginCitation</title>
<g id="a_node17"><a xlink:href="/develop/Data/models.html#origin-citation" xlink:title="OriginCitation" target="_top">
<polygon fill="#eeefff" stroke="#dddeee" points="532.4,-144 437.4,-144 437.4,-108 532.4,-108 532.4,-144"/>
<text text-anchor="middle" x="484.9" y="-122.3" font-family="Times,serif" font-size="14.00">OriginCitation</text>
</a>
</g>
</g>
<!-- Objects with Confidences -->
<g id="node18" class="node">
<title>Objects with Confidences</title>
<g id="a_node18"><a xlink:href="/develop/Data/models.html#objects with confidence" xlink:title="Objects with Confidences" target="_top">
<polygon fill="#cdabef" stroke="#dedede" points="387.97,-406 329.4,-424 212.24,-424 153.67,-406 212.24,-388 329.4,-388 387.97,-406"/>
<text text-anchor="middle" x="270.82" y="-402.3" font-family="Times,serif" font-size="14.00">Objects with Confidences</text>
</a>
</g>
</g>
</g>
</svg>
