<?xml version="1.0" encoding="UTF-8" standalone="no"?>
<!DOCTYPE svg PUBLIC "-//W3C//DTD SVG 1.1//EN"
 "http://www.w3.org/Graphics/SVG/1.1/DTD/svg11.dtd">
<!-- Generated by graphviz version 2.50.0 (20211204.2007)
 -->
<!-- Title: ControlledVocabularyTerm Pages: 1 -->
<svg width="942pt" height="432pt"
 viewBox="0.00 0.00 941.95 432.35" xmlns="http://www.w3.org/2000/svg" xmlns:xlink="http://www.w3.org/1999/xlink">
<g id="graph0" class="graph" transform="scale(1 1) rotate(0) translate(4 428.35)">
<title>ControlledVocabularyTerm</title>
<polygon fill="white" stroke="transparent" points="-4,4 -4,-428.35 937.95,-428.35 937.95,4 -4,4"/>
<!-- AlternateValue&#45;&gt;AlternateValueLanguage -->
<g id="edge1" class="edge">
<title>AlternateValue&#45;&gt;AlternateValueLanguage</title>
<path fill="none" stroke="black" stroke-dasharray="1,5" d="M121.53,-250.89C144.96,-254.01 172.62,-257.68 198.37,-261.09"/>
<polygon fill="black" stroke="black" points="198.14,-264.59 208.51,-262.44 199.06,-257.65 198.14,-264.59"/>
</g>
<!-- ControlledVocabularyTerm&#45;&gt;AlternateValue -->
<g id="edge2" class="edge">
<title>ControlledVocabularyTerm&#45;&gt;AlternateValue</title>
<path fill="none" stroke="black" d="M180.91,-227.92C164.15,-230.15 147.18,-232.4 131.57,-234.47"/>
<polygon fill="black" stroke="black" points="130.98,-231.02 121.53,-235.81 131.9,-237.96 130.98,-231.02"/>
</g>
<!-- ControlledVocabularyTerm&#45;&gt;ObservationMatrixRowItem -->
<g id="edge5" class="edge">
<title>ControlledVocabularyTerm&#45;&gt;ObservationMatrixRowItem</title>
<path fill="none" stroke="black" d="M380.67,-229C389.6,-233.21 397.91,-238.56 404.95,-245.35 445.33,-284.31 402.74,-325.26 440.95,-366.35 443.83,-369.45 447.05,-372.26 450.49,-374.79"/>
<polygon fill="black" stroke="black" points="448.6,-377.74 458.9,-380.23 452.4,-371.86 448.6,-377.74"/>
</g>
<!-- ControlledVocabularyTerm&#45;&gt;ObservationMatrixColumnItem -->
<g id="edge4" class="edge">
<title>ControlledVocabularyTerm&#45;&gt;ObservationMatrixColumnItem</title>
<path fill="none" stroke="black" d="M377.79,-229.43C387.58,-233.54 396.88,-238.75 404.95,-245.35 433.26,-268.51 411.05,-298.29 440.95,-319.35 497.44,-359.14 575.26,-366.77 637.63,-364.77"/>
<polygon fill="black" stroke="black" points="638.04,-368.26 647.89,-364.36 637.76,-361.27 638.04,-368.26"/>
</g>
<!-- ControlledVocabularyTerm&#45;&gt;PinboardItem -->
<g id="edge6" class="edge">
<title>ControlledVocabularyTerm&#45;&gt;PinboardItem</title>
<path fill="none" stroke="black" d="M374.57,-230.02C385.31,-234.02 395.73,-239.04 404.95,-245.35 427.55,-260.81 416.58,-282.87 440.95,-295.35 519.63,-335.65 625.12,-311.21 688.05,-289.79"/>
<polygon fill="black" stroke="black" points="689.5,-292.99 697.78,-286.39 687.18,-286.38 689.5,-292.99"/>
</g>
<!-- ControlledVocabularyTerm&#45;&gt;Role -->
<g id="edge7" class="edge">
<title>ControlledVocabularyTerm&#45;&gt;Role</title>
<path fill="none" stroke="black" d="M404.96,-214.35C435.6,-214.35 466.28,-214.35 489.01,-214.35"/>
<polygon fill="black" stroke="black" points="489.18,-217.85 499.18,-214.35 489.18,-210.85 489.18,-217.85"/>
</g>
<!-- ControlledVocabularyTerm&#45;&gt;VerifierRole -->
<g id="edge8" class="edge">
<title>ControlledVocabularyTerm&#45;&gt;VerifierRole</title>
<path fill="none" stroke="black" d="M362.85,-196.89C399.47,-188.66 442.13,-179.07 474.57,-171.79"/>
<polygon fill="black" stroke="black" points="475.73,-175.11 484.72,-169.5 474.19,-168.28 475.73,-175.11"/>
</g>
<!-- ControlledVocabularyTerm&#45;&gt;Version -->
<g id="edge10" class="edge">
<title>ControlledVocabularyTerm&#45;&gt;Version</title>
<path fill="none" stroke="black" d="M362.85,-231.81C404.6,-241.19 454.2,-252.34 487.55,-259.83"/>
<polygon fill="black" stroke="black" points="486.82,-263.26 497.35,-262.04 488.36,-256.43 486.82,-263.26"/>
</g>
<!-- ControlledVocabularyTerm&#45;&gt;Creator -->
<g id="edge11" class="edge">
<title>ControlledVocabularyTerm&#45;&gt;Creator</title>
<path fill="none" stroke="black" stroke-dasharray="5,2" d="M329.41,-187.29C359.82,-169.71 401.67,-147.51 440.95,-133.35 453.95,-128.66 642.28,-89.15 714.26,-74.12"/>
<polygon fill="black" stroke="black" points="327.61,-184.28 320.74,-192.35 331.14,-190.33 327.61,-184.28"/>
</g>
<!-- ControlledVocabularyTerm&#45;&gt;Project -->
<g id="edge12" class="edge">
<title>ControlledVocabularyTerm&#45;&gt;Project</title>
<path fill="none" stroke="black" stroke-dasharray="5,2" d="M318.46,-185.85C348.85,-160.88 395.78,-124.84 440.95,-100.35 459.43,-90.33 481.71,-82.03 498.76,-76.4"/>
<polygon fill="black" stroke="black" points="316.19,-183.19 310.72,-192.27 320.65,-188.58 316.19,-183.19"/>
</g>
<!-- ControlledVocabularyTerm&#45;&gt;Updater -->
<g id="edge13" class="edge">
<title>ControlledVocabularyTerm&#45;&gt;Updater</title>
<path fill="none" stroke="black" stroke-dasharray="5,2" d="M301.8,-183.48C326.08,-142.09 375.56,-70.46 440.95,-41.35 602.14,30.41 664.91,-6.84 837.95,-41.35 850.05,-43.76 862.72,-48.48 873.63,-53.3"/>
<polygon fill="black" stroke="black" points="298.67,-181.9 296.73,-192.32 304.74,-185.39 298.67,-181.9"/>
</g>
<!-- ObservationMatrixRowItem&#45;&gt;ObservationMatrix -->
<g id="edge3" class="edge">
<title>ObservationMatrixRowItem&#45;&gt;ObservationMatrix</title>
<path fill="none" stroke="black" stroke-dasharray="1,5" d="M612.22,-401.51C632.28,-402.26 653.42,-403.05 672.69,-403.77"/>
<polygon fill="black" stroke="black" points="672.76,-407.27 682.88,-404.15 673.02,-400.28 672.76,-407.27"/>
</g>
<!-- ObservationMatrixRowItem&#45;&gt;ObservationMatrixColumnItem -->
<!-- Role&#45;&gt;Verifier -->
<!-- VerifierRole&#45;&gt;Verifier -->
<g id="edge9" class="edge">
<title>VerifierRole&#45;&gt;Verifier</title>
<path fill="none" stroke="black" stroke-dasharray="1,5" d="M568.05,-165.46C607.12,-170.38 665.76,-177.76 703.95,-182.57"/>
<polygon fill="black" stroke="black" points="703.78,-186.07 714.14,-183.85 704.66,-179.13 703.78,-186.07"/>
</g>
<!-- Version&#45;&gt;PinboardItem -->
<!-- Creator&#45;&gt;Updater -->
<!-- Project&#45;&gt;Creator -->
<!-- AlternateValue -->
<g id="node1" class="node">
<title>AlternateValue</title>
<g id="a_node1"><a xlink:href="/develop/Data/models.html#alternate-value" xlink:title="AlternateValue" target="_top">
<ellipse fill="#abcdef" stroke="#dddeee" cx="63.69" cy="-243.35" rx="63.89" ry="18"/>
<text text-anchor="middle" x="63.69" y="-239.65" font-family="Times,serif" font-size="14.00">AlternateValue</text>
</a>
</g>
</g>
<!-- ControlledVocabularyTerm -->
<g id="node2" class="node">
<title>ControlledVocabularyTerm</title>
<g id="a_node2"><a xlink:href="/develop/Data/models.html#controlled-vocabulary-term" xlink:title="ControlledVocabularyTerm" target="_top">
<polygon fill="#cdefab" stroke="#dedede" points="400.74,-206.89 400.74,-221.81 332.45,-232.35 235.88,-232.35 167.6,-221.81 167.6,-206.89 235.88,-196.35 332.45,-196.35 400.74,-206.89"/>
<polygon fill="none" stroke="#dedede" points="404.73,-203.46 404.73,-225.24 332.76,-236.35 235.58,-236.35 163.61,-225.24 163.61,-203.46 235.58,-192.35 332.76,-192.35 404.73,-203.46"/>
<text text-anchor="middle" x="284.17" y="-210.65" font-family="Times,serif" font-size="14.00">ControlledVocabularyTerm</text>
</a>
</g>
</g>
<!-- AlternateValueLanguage -->
<g id="node3" class="node">
<title>AlternateValueLanguage</title>
<g id="a_node3"><a xlink:href="/develop/Data/models.html#alternate-value-language" xlink:title="AlternateValueLanguage" target="_top">
<polygon fill="#eeefff" stroke="#dddeee" points="359.67,-290.35 208.67,-290.35 208.67,-254.35 359.67,-254.35 359.67,-290.35"/>
<text text-anchor="middle" x="284.17" y="-268.65" font-family="Times,serif" font-size="14.00">AlternateValueLanguage</text>
</a>
</g>
</g>
<!-- ObservationMatrixRowItem -->
<g id="node4" class="node">
<title>ObservationMatrixRowItem</title>
<g id="a_node4"><a xlink:href="/develop/Data/models.html#observation-matrix-row-item" xlink:title="ObservationMatrixRowItem" target="_top">
<polygon fill="#eeefff" stroke="#dddeee" points="611.95,-416.35 440.95,-416.35 440.95,-380.35 611.95,-380.35 611.95,-416.35"/>
<text text-anchor="middle" x="526.45" y="-394.65" font-family="Times,serif" font-size="14.00">ObservationMatrixRowItem</text>
</a>
</g>
</g>
<!-- ObservationMatrix -->
<g id="node5" class="node">
<title>ObservationMatrix</title>
<g id="a_node5"><a xlink:href="/develop/Data/models.html#observation-matrix" xlink:title="ObservationMatrix" target="_top">
<polygon fill="#eeefff" stroke="#dddeee" points="802.95,-424.35 682.95,-424.35 682.95,-388.35 802.95,-388.35 802.95,-424.35"/>
<text text-anchor="middle" x="742.95" y="-402.65" font-family="Times,serif" font-size="14.00">ObservationMatrix</text>
</a>
</g>
</g>
<!-- ObservationMatrixColumnItem -->
<g id="node6" class="node">
<title>ObservationMatrixColumnItem</title>
<g id="a_node6"><a xlink:href="/develop/Data/models.html#observation-matrix-column-item" xlink:title="ObservationMatrixColumnItem" target="_top">
<polygon fill="#eeefff" stroke="#dddeee" points="837.95,-370.35 647.95,-370.35 647.95,-334.35 837.95,-334.35 837.95,-370.35"/>
<text text-anchor="middle" x="742.95" y="-348.65" font-family="Times,serif" font-size="14.00">ObservationMatrixColumnItem</text>
</a>
</g>
</g>
<!-- PinboardItem -->
<g id="node7" class="node">
<title>PinboardItem</title>
<g id="a_node7"><a xlink:href="/develop/Data/models.html#pinboard-item" xlink:title="PinboardItem" target="_top">
<polygon fill="#eeefff" stroke="#dddeee" points="788.45,-286.35 697.45,-286.35 697.45,-250.35 788.45,-250.35 788.45,-286.35"/>
<text text-anchor="middle" x="742.95" y="-264.65" font-family="Times,serif" font-size="14.00">PinboardItem</text>
</a>
</g>
</g>
<!-- Role -->
<g id="node8" class="node">
<title>Role</title>
<g id="a_node8"><a xlink:href="/develop/Data/models.html#role" xlink:title="Role" target="_top">
<polygon fill="#eeefff" stroke="#dddeee" points="553.45,-232.35 499.45,-232.35 499.45,-196.35 553.45,-196.35 553.45,-232.35"/>
<text text-anchor="middle" x="526.45" y="-210.65" font-family="Times,serif" font-size="14.00">Role</text>
</a>
</g>
</g>
<!-- VerifierRole -->
<g id="node9" class="node">
<title>VerifierRole</title>
<g id="a_node9"><a xlink:href="/develop/Data/models.html#verifier-role" xlink:title="VerifierRole" target="_top">
<polygon fill="#eeefff" stroke="#dddeee" points="567.95,-178.35 484.95,-178.35 484.95,-142.35 567.95,-142.35 567.95,-178.35"/>
<text text-anchor="middle" x="526.45" y="-156.65" font-family="Times,serif" font-size="14.00">VerifierRole</text>
</a>
</g>
</g>
<!-- Verifier -->
<g id="node10" class="node">
<title>Verifier</title>
<g id="a_node10"><a xlink:href="/develop/Data/models.html#verifier" xlink:title="Verifier" target="_top">
<polygon fill="#eeefff" stroke="#dddeee" points="771.45,-205.35 714.45,-205.35 714.45,-169.35 771.45,-169.35 771.45,-205.35"/>
<text text-anchor="middle" x="742.95" y="-183.65" font-family="Times,serif" font-size="14.00">Verifier</text>
</a>
</g>
</g>
<!-- Version -->
<g id="node11" class="node">
<title>Version</title>
<g id="a_node11"><a xlink:href="/develop/Data/models.html#version" xlink:title="Version" target="_top">
<polygon fill="#eeefff" stroke="#dddeee" points="555.45,-286.35 497.45,-286.35 497.45,-250.35 555.45,-250.35 555.45,-286.35"/>
<text text-anchor="middle" x="526.45" y="-264.65" font-family="Times,serif" font-size="14.00">Version</text>
</a>
</g>
</g>
<!-- Creator -->
<g id="node12" class="node">
<title>Creator</title>
<g id="a_node12"><a xlink:href="/develop/Data/models.html#creator" xlink:title="Creator" target="_top">
<polygon fill="#eeefff" stroke="#dddeee" points="771.45,-86.35 714.45,-86.35 714.45,-50.35 771.45,-50.35 771.45,-86.35"/>
<text text-anchor="middle" x="742.95" y="-64.65" font-family="Times,serif" font-size="14.00">Creator</text>
</a>
</g>
</g>
<!-- Project -->
<g id="node13" class="node">
<title>Project</title>
<g id="a_node13"><a xlink:href="/develop/Data/models.html#project" xlink:title="Project" target="_top">
<polygon fill="#eeefff" stroke="#dddeee" points="553.95,-86.35 498.95,-86.35 498.95,-50.35 553.95,-50.35 553.95,-86.35"/>
<text text-anchor="middle" x="526.45" y="-64.65" font-family="Times,serif" font-size="14.00">Project</text>
</a>
</g>
</g>
<!-- Updater -->
<g id="node14" class="node">
<title>Updater</title>
<g id="a_node14"><a xlink:href="/develop/Data/models.html#updater" xlink:title="Updater" target="_top">
<polygon fill="#eeefff" stroke="#dddeee" points="933.95,-86.35 873.95,-86.35 873.95,-50.35 933.95,-50.35 933.95,-86.35"/>
<text text-anchor="middle" x="903.95" y="-64.65" font-family="Times,serif" font-size="14.00">Updater</text>
</a>
</g>
</g>
</g>
</svg>
