<?xml version="1.0" encoding="UTF-8" standalone="no"?>
<!DOCTYPE svg PUBLIC "-//W3C//DTD SVG 1.1//EN"
 "http://www.w3.org/Graphics/SVG/1.1/DTD/svg11.dtd">
<!-- Generated by graphviz version 2.50.0 (20211204.2007)
 -->
<!-- Title: ControlledVocabularyTerm Pages: 1 -->
<svg width="942pt" height="470pt"
 viewBox="0.00 0.00 941.95 470.35" xmlns="http://www.w3.org/2000/svg" xmlns:xlink="http://www.w3.org/1999/xlink">
<g id="graph0" class="graph" transform="scale(1 1) rotate(0) translate(4 466.35)">
<title>ControlledVocabularyTerm</title>
<polygon fill="white" stroke="transparent" points="-4,4 -4,-466.35 937.95,-466.35 937.95,4 -4,4"/>
<text text-anchor="middle" x="466.97" y="-22.8" font-family="Times,serif" font-size="14.00">Algorithmically generated relationships for ControlledVocabularyTerm based on assertions of &#39;has_many&#39;, &#39;has_one&#39;, &#39;belongs_to&#39;. </text>
<text text-anchor="middle" x="466.97" y="-7.8" font-family="Times,serif" font-size="14.00">Generated 2022&#45;01&#45;25 11:37:12 &#45;0600.</text>
<!-- AlternateValue&#45;&gt;AlternateValueLanguage -->
<g id="edge1" class="edge">
<title>AlternateValue&#45;&gt;AlternateValueLanguage</title>
<path fill="none" stroke="black" d="M121.53,-288.89C144.96,-292.01 172.62,-295.68 198.37,-299.09"/>
<polygon fill="black" stroke="black" points="198.14,-302.59 208.51,-300.44 199.06,-295.65 198.14,-302.59"/>
</g>
<!-- ControlledVocabularyTerm&#45;&gt;AlternateValue -->
<g id="edge2" class="edge">
<title>ControlledVocabularyTerm&#45;&gt;AlternateValue</title>
<path fill="none" stroke="black" d="M180.91,-265.92C164.15,-268.15 147.18,-270.4 131.57,-272.47"/>
<polygon fill="black" stroke="black" points="130.98,-269.02 121.53,-273.81 131.9,-275.96 130.98,-269.02"/>
</g>
<!-- ControlledVocabularyTerm&#45;&gt;ObservationMatrixRowItem -->
<g id="edge5" class="edge">
<title>ControlledVocabularyTerm&#45;&gt;ObservationMatrixRowItem</title>
<path fill="none" stroke="black" d="M380.67,-267C389.6,-271.21 397.91,-276.56 404.95,-283.35 445.33,-322.31 402.74,-363.26 440.95,-404.35 443.83,-407.45 447.05,-410.26 450.49,-412.79"/>
<polygon fill="black" stroke="black" points="448.6,-415.74 458.9,-418.23 452.4,-409.86 448.6,-415.74"/>
</g>
<!-- ControlledVocabularyTerm&#45;&gt;ObservationMatrixColumnItem -->
<g id="edge4" class="edge">
<title>ControlledVocabularyTerm&#45;&gt;ObservationMatrixColumnItem</title>
<path fill="none" stroke="black" d="M377.79,-267.43C387.58,-271.54 396.88,-276.75 404.95,-283.35 433.26,-306.51 411.05,-336.29 440.95,-357.35 497.44,-397.14 575.26,-404.77 637.63,-402.77"/>
<polygon fill="black" stroke="black" points="638.04,-406.26 647.89,-402.36 637.76,-399.27 638.04,-406.26"/>
</g>
<!-- ControlledVocabularyTerm&#45;&gt;PinboardItem -->
<g id="edge6" class="edge">
<title>ControlledVocabularyTerm&#45;&gt;PinboardItem</title>
<path fill="none" stroke="black" d="M374.57,-268.02C385.31,-272.02 395.73,-277.04 404.95,-283.35 427.55,-298.81 416.58,-320.87 440.95,-333.35 519.63,-373.65 625.12,-349.21 688.05,-327.79"/>
<polygon fill="black" stroke="black" points="689.5,-330.99 697.78,-324.39 687.18,-324.38 689.5,-330.99"/>
</g>
<!-- ControlledVocabularyTerm&#45;&gt;Role -->
<g id="edge7" class="edge">
<title>ControlledVocabularyTerm&#45;&gt;Role</title>
<path fill="none" stroke="black" d="M404.96,-252.35C435.6,-252.35 466.28,-252.35 489.01,-252.35"/>
<polygon fill="black" stroke="black" points="489.18,-255.85 499.18,-252.35 489.18,-248.85 489.18,-255.85"/>
</g>
<!-- ControlledVocabularyTerm&#45;&gt;VerifierRole -->
<g id="edge8" class="edge">
<title>ControlledVocabularyTerm&#45;&gt;VerifierRole</title>
<path fill="none" stroke="black" d="M362.85,-234.89C399.47,-226.66 442.13,-217.07 474.57,-209.79"/>
<polygon fill="black" stroke="black" points="475.73,-213.11 484.72,-207.5 474.19,-206.28 475.73,-213.11"/>
</g>
<!-- ControlledVocabularyTerm&#45;&gt;Version -->
<g id="edge10" class="edge">
<title>ControlledVocabularyTerm&#45;&gt;Version</title>
<path fill="none" stroke="black" d="M362.85,-269.81C404.6,-279.19 454.2,-290.34 487.55,-297.83"/>
<polygon fill="black" stroke="black" points="486.82,-301.26 497.35,-300.04 488.36,-294.43 486.82,-301.26"/>
</g>
<!-- ControlledVocabularyTerm&#45;&gt;Creator -->
<g id="edge11" class="edge">
<title>ControlledVocabularyTerm&#45;&gt;Creator</title>
<path fill="none" stroke="black" stroke-dasharray="5,2" d="M329.41,-225.29C359.82,-207.71 401.67,-185.51 440.95,-171.35 453.95,-166.66 642.28,-127.15 714.26,-112.12"/>
<polygon fill="black" stroke="black" points="327.61,-222.28 320.74,-230.35 331.14,-228.33 327.61,-222.28"/>
</g>
<!-- ControlledVocabularyTerm&#45;&gt;Project -->
<g id="edge12" class="edge">
<title>ControlledVocabularyTerm&#45;&gt;Project</title>
<path fill="none" stroke="black" stroke-dasharray="5,2" d="M318.46,-223.85C348.85,-198.88 395.78,-162.84 440.95,-138.35 459.43,-128.33 481.71,-120.03 498.76,-114.4"/>
<polygon fill="black" stroke="black" points="316.19,-221.19 310.72,-230.27 320.65,-226.58 316.19,-221.19"/>
</g>
<!-- ControlledVocabularyTerm&#45;&gt;Updater -->
<g id="edge13" class="edge">
<title>ControlledVocabularyTerm&#45;&gt;Updater</title>
<path fill="none" stroke="black" stroke-dasharray="5,2" d="M301.8,-221.48C326.08,-180.09 375.56,-108.46 440.95,-79.35 602.14,-7.59 664.91,-44.84 837.95,-79.35 850.05,-81.76 862.72,-86.48 873.63,-91.3"/>
<polygon fill="black" stroke="black" points="298.67,-219.9 296.73,-230.32 304.74,-223.39 298.67,-219.9"/>
</g>
<!-- ObservationMatrixRowItem&#45;&gt;ObservationMatrix -->
<g id="edge3" class="edge">
<title>ObservationMatrixRowItem&#45;&gt;ObservationMatrix</title>
<path fill="none" stroke="black" d="M612.22,-439.51C632.28,-440.26 653.42,-441.05 672.69,-441.77"/>
<polygon fill="black" stroke="black" points="672.76,-445.27 682.88,-442.15 673.02,-438.28 672.76,-445.27"/>
</g>
<!-- ObservationMatrixRowItem&#45;&gt;ObservationMatrixColumnItem -->
<!-- Role&#45;&gt;Verifier -->
<!-- VerifierRole&#45;&gt;Verifier -->
<g id="edge9" class="edge">
<title>VerifierRole&#45;&gt;Verifier</title>
<path fill="none" stroke="black" d="M568.05,-203.46C607.12,-208.38 665.76,-215.76 703.95,-220.57"/>
<polygon fill="black" stroke="black" points="703.78,-224.07 714.14,-221.85 704.66,-217.13 703.78,-224.07"/>
</g>
<!-- Version&#45;&gt;PinboardItem -->
<!-- Creator&#45;&gt;Updater -->
<!-- Project&#45;&gt;Creator -->
<!-- AlternateValue -->
<g id="node1" class="node">
<title>AlternateValue</title>
<g id="a_node1"><a xlink:href="/develop/Data/models.html#alternate-value" xlink:title="AlternateValue" target="_top">
<ellipse fill="#abcdef" stroke="#dddeee" cx="63.69" cy="-281.35" rx="63.89" ry="18"/>
<text text-anchor="middle" x="63.69" y="-277.65" font-family="Times,serif" font-size="14.00">AlternateValue</text>
</a>
</g>
</g>
<!-- ControlledVocabularyTerm -->
<g id="node2" class="node">
<title>ControlledVocabularyTerm</title>
<g id="a_node2"><a xlink:href="/develop/Data/models.html#controlled-vocabulary-term" xlink:title="ControlledVocabularyTerm" target="_top">
<polygon fill="#cdefab" stroke="#dedede" points="400.74,-244.89 400.74,-259.81 332.45,-270.35 235.88,-270.35 167.6,-259.81 167.6,-244.89 235.88,-234.35 332.45,-234.35 400.74,-244.89"/>
<polygon fill="none" stroke="#dedede" points="404.73,-241.46 404.73,-263.24 332.76,-274.35 235.58,-274.35 163.61,-263.24 163.61,-241.46 235.58,-230.35 332.76,-230.35 404.73,-241.46"/>
<text text-anchor="middle" x="284.17" y="-248.65" font-family="Times,serif" font-size="14.00">ControlledVocabularyTerm</text>
</a>
</g>
</g>
<!-- AlternateValueLanguage -->
<g id="node3" class="node">
<title>AlternateValueLanguage</title>
<g id="a_node3"><a xlink:href="/develop/Data/models.html#alternate-value-language" xlink:title="AlternateValueLanguage" target="_top">
<polygon fill="#eeefff" stroke="#dddeee" points="359.67,-328.35 208.67,-328.35 208.67,-292.35 359.67,-292.35 359.67,-328.35"/>
<text text-anchor="middle" x="284.17" y="-306.65" font-family="Times,serif" font-size="14.00">AlternateValueLanguage</text>
</a>
</g>
</g>
<!-- ObservationMatrixRowItem -->
<g id="node4" class="node">
<title>ObservationMatrixRowItem</title>
<g id="a_node4"><a xlink:href="/develop/Data/models.html#observation-matrix-row-item" xlink:title="ObservationMatrixRowItem" target="_top">
<polygon fill="#eeefff" stroke="#dddeee" points="611.95,-454.35 440.95,-454.35 440.95,-418.35 611.95,-418.35 611.95,-454.35"/>
<text text-anchor="middle" x="526.45" y="-432.65" font-family="Times,serif" font-size="14.00">ObservationMatrixRowItem</text>
</a>
</g>
</g>
<!-- ObservationMatrix -->
<g id="node5" class="node">
<title>ObservationMatrix</title>
<g id="a_node5"><a xlink:href="/develop/Data/models.html#observation-matrix" xlink:title="ObservationMatrix" target="_top">
<polygon fill="#eeefff" stroke="#dddeee" points="802.95,-462.35 682.95,-462.35 682.95,-426.35 802.95,-426.35 802.95,-462.35"/>
<text text-anchor="middle" x="742.95" y="-440.65" font-family="Times,serif" font-size="14.00">ObservationMatrix</text>
</a>
</g>
</g>
<!-- ObservationMatrixColumnItem -->
<g id="node6" class="node">
<title>ObservationMatrixColumnItem</title>
<g id="a_node6"><a xlink:href="/develop/Data/models.html#observation-matrix-column-item" xlink:title="ObservationMatrixColumnItem" target="_top">
<polygon fill="#eeefff" stroke="#dddeee" points="837.95,-408.35 647.95,-408.35 647.95,-372.35 837.95,-372.35 837.95,-408.35"/>
<text text-anchor="middle" x="742.95" y="-386.65" font-family="Times,serif" font-size="14.00">ObservationMatrixColumnItem</text>
</a>
</g>
</g>
<!-- PinboardItem -->
<g id="node7" class="node">
<title>PinboardItem</title>
<g id="a_node7"><a xlink:href="/develop/Data/models.html#pinboard-item" xlink:title="PinboardItem" target="_top">
<polygon fill="#eeefff" stroke="#dddeee" points="788.45,-324.35 697.45,-324.35 697.45,-288.35 788.45,-288.35 788.45,-324.35"/>
<text text-anchor="middle" x="742.95" y="-302.65" font-family="Times,serif" font-size="14.00">PinboardItem</text>
</a>
</g>
</g>
<!-- Role -->
<g id="node8" class="node">
<title>Role</title>
<g id="a_node8"><a xlink:href="/develop/Data/models.html#role" xlink:title="Role" target="_top">
<polygon fill="#eeefff" stroke="#dddeee" points="553.45,-270.35 499.45,-270.35 499.45,-234.35 553.45,-234.35 553.45,-270.35"/>
<text text-anchor="middle" x="526.45" y="-248.65" font-family="Times,serif" font-size="14.00">Role</text>
</a>
</g>
</g>
<!-- VerifierRole -->
<g id="node9" class="node">
<title>VerifierRole</title>
<g id="a_node9"><a xlink:href="/develop/Data/models.html#verifier-role" xlink:title="VerifierRole" target="_top">
<polygon fill="#eeefff" stroke="#dddeee" points="567.95,-216.35 484.95,-216.35 484.95,-180.35 567.95,-180.35 567.95,-216.35"/>
<text text-anchor="middle" x="526.45" y="-194.65" font-family="Times,serif" font-size="14.00">VerifierRole</text>
</a>
</g>
</g>
<!-- Verifier -->
<g id="node10" class="node">
<title>Verifier</title>
<g id="a_node10"><a xlink:href="/develop/Data/models.html#verifier" xlink:title="Verifier" target="_top">
<polygon fill="#eeefff" stroke="#dddeee" points="771.45,-243.35 714.45,-243.35 714.45,-207.35 771.45,-207.35 771.45,-243.35"/>
<text text-anchor="middle" x="742.95" y="-221.65" font-family="Times,serif" font-size="14.00">Verifier</text>
</a>
</g>
</g>
<!-- Version -->
<g id="node11" class="node">
<title>Version</title>
<g id="a_node11"><a xlink:href="/develop/Data/models.html#version" xlink:title="Version" target="_top">
<polygon fill="#eeefff" stroke="#dddeee" points="555.45,-324.35 497.45,-324.35 497.45,-288.35 555.45,-288.35 555.45,-324.35"/>
<text text-anchor="middle" x="526.45" y="-302.65" font-family="Times,serif" font-size="14.00">Version</text>
</a>
</g>
</g>
<!-- Creator -->
<g id="node12" class="node">
<title>Creator</title>
<g id="a_node12"><a xlink:href="/develop/Data/models.html#creator" xlink:title="Creator" target="_top">
<polygon fill="#eeefff" stroke="#dddeee" points="771.45,-124.35 714.45,-124.35 714.45,-88.35 771.45,-88.35 771.45,-124.35"/>
<text text-anchor="middle" x="742.95" y="-102.65" font-family="Times,serif" font-size="14.00">Creator</text>
</a>
</g>
</g>
<!-- Project -->
<g id="node13" class="node">
<title>Project</title>
<g id="a_node13"><a xlink:href="/develop/Data/models.html#project" xlink:title="Project" target="_top">
<polygon fill="#eeefff" stroke="#dddeee" points="553.95,-124.35 498.95,-124.35 498.95,-88.35 553.95,-88.35 553.95,-124.35"/>
<text text-anchor="middle" x="526.45" y="-102.65" font-family="Times,serif" font-size="14.00">Project</text>
</a>
</g>
</g>
<!-- Updater -->
<g id="node14" class="node">
<title>Updater</title>
<g id="a_node14"><a xlink:href="/develop/Data/models.html#updater" xlink:title="Updater" target="_top">
<polygon fill="#eeefff" stroke="#dddeee" points="933.95,-124.35 873.95,-124.35 873.95,-88.35 933.95,-88.35 933.95,-124.35"/>
<text text-anchor="middle" x="903.95" y="-102.65" font-family="Times,serif" font-size="14.00">Updater</text>
</a>
</g>
</g>
</g>
</svg>
