<?xml version="1.0" encoding="UTF-8" standalone="no"?>
<!DOCTYPE svg PUBLIC "-//W3C//DTD SVG 1.1//EN"
 "http://www.w3.org/Graphics/SVG/1.1/DTD/svg11.dtd">
<!-- Generated by graphviz version 12.2.1 (20241206.2353)
 -->
<!-- Title: ControlledVocabularyTerm Pages: 1 -->
<svg width="956pt" height="432pt"
 viewBox="0.00 0.00 955.76 431.68" xmlns="http://www.w3.org/2000/svg" xmlns:xlink="http://www.w3.org/1999/xlink">
<g id="graph0" class="graph" transform="scale(1 1) rotate(0) translate(4 427.68)">
<title>ControlledVocabularyTerm</title>
<polygon fill="white" stroke="none" points="-4,4 -4,-427.68 951.76,-427.68 951.76,4 -4,4"/>
<!-- AlternateValue&#45;&gt;AlternateValueLanguage -->
<g id="edge1" class="edge">
<title>AlternateValue&#45;&gt;AlternateValueLanguage</title>
<path fill="none" stroke="black" stroke-dasharray="1,5" d="M126.64,-250.3C151.38,-253.47 180.59,-257.22 207.59,-260.68"/>
<polygon fill="black" stroke="black" points="207.15,-264.15 217.51,-261.95 208.04,-257.21 207.15,-264.15"/>
</g>
<!-- ControlledVocabularyTerm&#45;&gt;AlternateValue -->
<g id="edge2" class="edge">
<title>ControlledVocabularyTerm&#45;&gt;AlternateValue</title>
<path fill="none" stroke="black" d="M185.38,-227.53C169.26,-229.6 153,-231.68 137.92,-233.62"/>
<polygon fill="black" stroke="black" points="137.61,-230.13 128.14,-234.87 138.5,-237.07 137.61,-230.13"/>
</g>
<!-- ControlledVocabularyTerm&#45;&gt;ObservationMatrixRowItem -->
<g id="edge5" class="edge">
<title>ControlledVocabularyTerm&#45;&gt;ObservationMatrixRowItem</title>
<path fill="none" stroke="black" d="M396.66,-228.56C405.4,-232.75 413.55,-238.04 420.51,-244.68 461.09,-283.43 418.32,-324.57 456.51,-365.68 458.93,-368.29 461.59,-370.69 464.42,-372.9"/>
<polygon fill="black" stroke="black" points="462.47,-375.8 472.73,-378.45 466.37,-369.98 462.47,-375.8"/>
</g>
<!-- ControlledVocabularyTerm&#45;&gt;ObservationMatrixColumnItem -->
<g id="edge4" class="edge">
<title>ControlledVocabularyTerm&#45;&gt;ObservationMatrixColumnItem</title>
<path fill="none" stroke="black" d="M393.73,-228.93C403.38,-233.03 412.53,-238.19 420.51,-244.68 449.18,-268.02 426.3,-298.36 456.51,-319.68 512.42,-359.16 589.41,-366.68 651.41,-364.58"/>
<polygon fill="black" stroke="black" points="651.46,-368.08 661.29,-364.15 651.15,-361.09 651.46,-368.08"/>
</g>
<!-- ControlledVocabularyTerm&#45;&gt;PinboardItem -->
<g id="edge6" class="edge">
<title>ControlledVocabularyTerm&#45;&gt;PinboardItem</title>
<path fill="none" stroke="black" d="M390.06,-229.42C400.83,-233.41 411.24,-238.41 420.51,-244.68 443.19,-260.03 432.14,-282.2 456.51,-294.68 534.42,-334.59 638.69,-310.8 701.59,-289.52"/>
<polygon fill="black" stroke="black" points="702.35,-292.96 710.64,-286.37 700.05,-286.35 702.35,-292.96"/>
</g>
<!-- ControlledVocabularyTerm&#45;&gt;Role -->
<g id="edge7" class="edge">
<title>ControlledVocabularyTerm&#45;&gt;Role</title>
<path fill="none" stroke="black" d="M420.98,-213.68C450.95,-213.68 480.7,-213.68 503.05,-213.68"/>
<polygon fill="black" stroke="black" points="502.83,-217.18 512.83,-213.68 502.83,-210.18 502.83,-217.18"/>
</g>
<!-- ControlledVocabularyTerm&#45;&gt;VerifierRole -->
<g id="edge8" class="edge">
<title>ControlledVocabularyTerm&#45;&gt;VerifierRole</title>
<path fill="none" stroke="black" d="M376.45,-195.85C413.53,-187.69 456.37,-178.26 489,-171.07"/>
<polygon fill="black" stroke="black" points="489.61,-174.53 498.62,-168.96 488.1,-167.69 489.61,-174.53"/>
</g>
<!-- ControlledVocabularyTerm&#45;&gt;Version -->
<g id="edge10" class="edge">
<title>ControlledVocabularyTerm&#45;&gt;Version</title>
<path fill="none" stroke="black" d="M376.45,-231.51C418.52,-240.77 468.01,-251.67 501.6,-259.06"/>
<polygon fill="black" stroke="black" points="500.78,-262.47 511.3,-261.2 502.28,-255.63 500.78,-262.47"/>
</g>
<!-- ControlledVocabularyTerm&#45;&gt;Creator -->
<g id="edge11" class="edge">
<title>ControlledVocabularyTerm&#45;&gt;Creator</title>
<path fill="none" stroke="black" stroke-dasharray="5,2" d="M343.06,-185.72C374.4,-168.34 416.83,-146.7 456.51,-132.68 469.5,-128.09 657.26,-88.52 729.02,-73.46"/>
<polygon fill="black" stroke="black" points="341.62,-182.52 334.61,-190.46 345.05,-188.62 341.62,-182.52"/>
</g>
<!-- ControlledVocabularyTerm&#45;&gt;Project -->
<g id="edge12" class="edge">
<title>ControlledVocabularyTerm&#45;&gt;Project</title>
<path fill="none" stroke="black" stroke-dasharray="5,2" d="M331.41,-184.2C362.97,-159.34 410.83,-124.02 456.51,-99.68 475.01,-89.82 497.23,-81.52 514.2,-75.84"/>
<polygon fill="black" stroke="black" points="329.39,-181.33 323.74,-190.29 333.75,-186.81 329.39,-181.33"/>
</g>
<!-- ControlledVocabularyTerm&#45;&gt;Updater -->
<g id="edge13" class="edge">
<title>ControlledVocabularyTerm&#45;&gt;Updater</title>
<path fill="none" stroke="black" stroke-dasharray="5,2" d="M313.61,-181.67C339.27,-140.09 390.46,-69.43 456.51,-40.68 617.78,29.52 679.79,-6.16 852.26,-40.68 864.32,-43.1 876.94,-47.81 887.81,-52.63"/>
<polygon fill="black" stroke="black" points="310.74,-179.65 308.57,-190.02 316.73,-183.27 310.74,-179.65"/>
</g>
<!-- ObservationMatrixRowItem&#45;&gt;ObservationMatrix -->
<g id="edge3" class="edge">
<title>ObservationMatrixRowItem&#45;&gt;ObservationMatrix</title>
<path fill="none" stroke="black" stroke-dasharray="1,5" d="M627.29,-400.84C646.72,-401.57 667.19,-402.34 685.97,-403.04"/>
<polygon fill="black" stroke="black" points="685.78,-406.53 695.9,-403.41 686.04,-399.54 685.78,-406.53"/>
</g>
<!-- ObservationMatrixRowItem&#45;&gt;ObservationMatrixColumnItem -->
<!-- Role&#45;&gt;Verifier -->
<!-- VerifierRole&#45;&gt;Verifier -->
<g id="edge9" class="edge">
<title>VerifierRole&#45;&gt;Verifier</title>
<path fill="none" stroke="black" stroke-dasharray="1,5" d="M583.49,-164.82C622.04,-169.69 679.52,-176.95 717.53,-181.75"/>
<polygon fill="black" stroke="black" points="716.8,-185.18 727.16,-182.96 717.67,-178.24 716.8,-185.18"/>
</g>
<!-- Version&#45;&gt;PinboardItem -->
<!-- Creator&#45;&gt;Updater -->
<!-- Project&#45;&gt;Creator -->
<!-- AlternateValue -->
<g id="node1" class="node">
<title>AlternateValue</title>
<g id="a_node1"><a xlink:href="/develop/Data/models.html#alternate-value" xlink:title="AlternateValue" target="_top">
<ellipse fill="#abcdef" stroke="#dddeee" cx="66.19" cy="-242.68" rx="66.19" ry="18"/>
<text text-anchor="middle" x="66.19" y="-237.63" font-family="Times,serif" font-size="14.00">AlternateValue</text>
</a>
</g>
</g>
<!-- ControlledVocabularyTerm -->
<g id="node2" class="node">
<title>ControlledVocabularyTerm</title>
<g id="a_node2"><a xlink:href="/develop/Data/models.html#controlled-vocabulary-term" xlink:title="ControlledVocabularyTerm" target="_top">
<polygon fill="#cdefab" stroke="#dedede" points="416.51,-206.23 416.51,-221.14 345.01,-231.68 243.89,-231.68 172.39,-221.14 172.39,-206.23 243.89,-195.68 345.01,-195.68 416.51,-206.23"/>
<polygon fill="none" stroke="#dedede" points="420.51,-202.77 420.51,-224.59 345.3,-235.68 243.6,-235.68 168.39,-224.59 168.39,-202.77 243.6,-191.68 345.3,-191.68 420.51,-202.77"/>
<text text-anchor="middle" x="294.45" y="-208.63" font-family="Times,serif" font-size="14.00">ControlledVocabularyTerm</text>
</a>
</g>
</g>
<!-- AlternateValueLanguage -->
<g id="node3" class="node">
<title>AlternateValueLanguage</title>
<g id="a_node3"><a xlink:href="/develop/Data/models.html#alternate-value-language" xlink:title="AlternateValueLanguage" target="_top">
<polygon fill="#eeefff" stroke="#dddeee" points="369.57,-289.68 219.32,-289.68 219.32,-253.68 369.57,-253.68 369.57,-289.68"/>
<text text-anchor="middle" x="294.45" y="-266.63" font-family="Times,serif" font-size="14.00">AlternateValueLanguage</text>
</a>
</g>
</g>
<!-- ObservationMatrixRowItem -->
<g id="node4" class="node">
<title>ObservationMatrixRowItem</title>
<g id="a_node4"><a xlink:href="/develop/Data/models.html#observation-matrix-row-item" xlink:title="ObservationMatrixRowItem" target="_top">
<polygon fill="#eeefff" stroke="#dddeee" points="627.01,-415.68 456.51,-415.68 456.51,-379.68 627.01,-379.68 627.01,-415.68"/>
<text text-anchor="middle" x="541.76" y="-392.63" font-family="Times,serif" font-size="14.00">ObservationMatrixRowItem</text>
</a>
</g>
</g>
<!-- ObservationMatrix -->
<g id="node5" class="node">
<title>ObservationMatrix</title>
<g id="a_node5"><a xlink:href="/develop/Data/models.html#observation-matrix" xlink:title="ObservationMatrix" target="_top">
<polygon fill="#eeefff" stroke="#dddeee" points="817.38,-423.68 697.88,-423.68 697.88,-387.68 817.38,-387.68 817.38,-423.68"/>
<text text-anchor="middle" x="757.63" y="-400.63" font-family="Times,serif" font-size="14.00">ObservationMatrix</text>
</a>
</g>
</g>
<!-- ObservationMatrixColumnItem -->
<g id="node6" class="node">
<title>ObservationMatrixColumnItem</title>
<g id="a_node6"><a xlink:href="/develop/Data/models.html#observation-matrix-column-item" xlink:title="ObservationMatrixColumnItem" target="_top">
<polygon fill="#eeefff" stroke="#dddeee" points="852.26,-369.68 663.01,-369.68 663.01,-333.68 852.26,-333.68 852.26,-369.68"/>
<text text-anchor="middle" x="757.63" y="-346.63" font-family="Times,serif" font-size="14.00">ObservationMatrixColumnItem</text>
</a>
</g>
</g>
<!-- PinboardItem -->
<g id="node7" class="node">
<title>PinboardItem</title>
<g id="a_node7"><a xlink:href="/develop/Data/models.html#pinboard-item" xlink:title="PinboardItem" target="_top">
<polygon fill="#eeefff" stroke="#dddeee" points="802.76,-285.68 712.51,-285.68 712.51,-249.68 802.76,-249.68 802.76,-285.68"/>
<text text-anchor="middle" x="757.63" y="-262.63" font-family="Times,serif" font-size="14.00">PinboardItem</text>
</a>
</g>
</g>
<!-- Role -->
<g id="node8" class="node">
<title>Role</title>
<g id="a_node8"><a xlink:href="/develop/Data/models.html#role" xlink:title="Role" target="_top">
<polygon fill="#eeefff" stroke="#dddeee" points="568.76,-231.68 514.76,-231.68 514.76,-195.68 568.76,-195.68 568.76,-231.68"/>
<text text-anchor="middle" x="541.76" y="-208.63" font-family="Times,serif" font-size="14.00">Role</text>
</a>
</g>
</g>
<!-- VerifierRole -->
<g id="node9" class="node">
<title>VerifierRole</title>
<g id="a_node9"><a xlink:href="/develop/Data/models.html#verifier-role" xlink:title="VerifierRole" target="_top">
<polygon fill="#eeefff" stroke="#dddeee" points="583.13,-177.68 500.38,-177.68 500.38,-141.68 583.13,-141.68 583.13,-177.68"/>
<text text-anchor="middle" x="541.76" y="-154.63" font-family="Times,serif" font-size="14.00">VerifierRole</text>
</a>
</g>
</g>
<!-- Verifier -->
<g id="node10" class="node">
<title>Verifier</title>
<g id="a_node10"><a xlink:href="/develop/Data/models.html#verifier" xlink:title="Verifier" target="_top">
<polygon fill="#eeefff" stroke="#dddeee" points="786.26,-204.68 729.01,-204.68 729.01,-168.68 786.26,-168.68 786.26,-204.68"/>
<text text-anchor="middle" x="757.63" y="-181.63" font-family="Times,serif" font-size="14.00">Verifier</text>
</a>
</g>
</g>
<!-- Version -->
<g id="node11" class="node">
<title>Version</title>
<g id="a_node11"><a xlink:href="/develop/Data/models.html#version" xlink:title="Version" target="_top">
<polygon fill="#eeefff" stroke="#dddeee" points="570.38,-285.68 513.13,-285.68 513.13,-249.68 570.38,-249.68 570.38,-285.68"/>
<text text-anchor="middle" x="541.76" y="-262.63" font-family="Times,serif" font-size="14.00">Version</text>
</a>
</g>
</g>
<!-- Creator -->
<g id="node12" class="node">
<title>Creator</title>
<g id="a_node12"><a xlink:href="/develop/Data/models.html#creator" xlink:title="Creator" target="_top">
<polygon fill="#eeefff" stroke="#dddeee" points="785.88,-85.68 729.38,-85.68 729.38,-49.68 785.88,-49.68 785.88,-85.68"/>
<text text-anchor="middle" x="757.63" y="-62.63" font-family="Times,serif" font-size="14.00">Creator</text>
</a>
</g>
</g>
<!-- Project -->
<g id="node13" class="node">
<title>Project</title>
<g id="a_node13"><a xlink:href="/develop/Data/models.html#project" xlink:title="Project" target="_top">
<polygon fill="#eeefff" stroke="#dddeee" points="568.88,-85.68 514.63,-85.68 514.63,-49.68 568.88,-49.68 568.88,-85.68"/>
<text text-anchor="middle" x="541.76" y="-62.63" font-family="Times,serif" font-size="14.00">Project</text>
</a>
</g>
</g>
<!-- Updater -->
<g id="node14" class="node">
<title>Updater</title>
<g id="a_node14"><a xlink:href="/develop/Data/models.html#updater" xlink:title="Updater" target="_top">
<polygon fill="#eeefff" stroke="#dddeee" points="947.76,-85.68 888.26,-85.68 888.26,-49.68 947.76,-49.68 947.76,-85.68"/>
<text text-anchor="middle" x="918.01" y="-62.63" font-family="Times,serif" font-size="14.00">Updater</text>
</a>
</g>
</g>
</g>
</svg>
