<?xml version="1.0" encoding="UTF-8" standalone="no"?>
<!DOCTYPE svg PUBLIC "-//W3C//DTD SVG 1.1//EN"
 "http://www.w3.org/Graphics/SVG/1.1/DTD/svg11.dtd">
<!-- Generated by graphviz version 2.50.0 (20211204.2007)
 -->
<!-- Title: Container Pages: 1 -->
<svg width="640pt" height="628pt"
 viewBox="0.00 0.00 640.00 628.00" xmlns="http://www.w3.org/2000/svg" xmlns:xlink="http://www.w3.org/1999/xlink">
<g id="graph0" class="graph" transform="scale(1 1) rotate(0) translate(4 624)">
<title>Container</title>
<polygon fill="white" stroke="transparent" points="-4,4 -4,-624 636,-624 636,4 -4,4"/>
<text text-anchor="middle" x="316" y="-22.8" font-family="Times,serif" font-size="14.00">Algorithmically generated relationships for Container based on assertions of &#39;has_many&#39;, &#39;has_one&#39;, &#39;belongs_to&#39;. </text>
<text text-anchor="middle" x="316" y="-7.8" font-family="Times,serif" font-size="14.00">Generated 2022&#45;01&#45;25 11:37:35 &#45;0600.</text>
<!-- Tag&#45;&gt;Keyword -->
<g id="edge3" class="edge">
<title>Tag&#45;&gt;Keyword</title>
<path fill="none" stroke="black" d="M94.28,-237.6C111.71,-237.33 135.08,-236.97 155.26,-236.66"/>
<polygon fill="black" stroke="black" points="155.53,-240.16 165.47,-236.51 155.42,-233.16 155.53,-240.16"/>
</g>
<!-- Container&#45;&gt;Identifier -->
<g id="edge2" class="edge">
<title>Container&#45;&gt;Identifier</title>
<path fill="none" stroke="black" d="M145.88,-294C137.52,-294 128.87,-294 120.52,-294"/>
<polygon fill="black" stroke="black" points="120.51,-290.5 110.51,-294 120.51,-297.5 120.51,-290.5"/>
</g>
<!-- Container&#45;&gt;Tag -->
<g id="edge9" class="edge">
<title>Container&#45;&gt;Tag</title>
<path fill="none" stroke="black" d="M161.4,-278.08C141.87,-269.68 118.16,-259.47 99.55,-251.47"/>
<polygon fill="black" stroke="black" points="100.9,-248.24 90.33,-247.5 98.13,-254.67 100.9,-248.24"/>
</g>
<!-- Container&#45;&gt;Container -->
<g id="edge15" class="edge">
<title>Container&#45;&gt;Container</title>
<path fill="none" stroke="black" stroke-dasharray="1,5" d="M176.31,-325.06C179.48,-330.34 187.17,-334 199.4,-334 218.47,-334 226.52,-325.09 223.54,-314.99"/>
<polygon fill="black" stroke="black" points="179.78,-324.57 175.25,-314.99 172.82,-325.3 179.78,-324.57"/>
</g>
<!-- Container&#45;&gt;CollectionProfile -->
<g id="edge1" class="edge">
<title>Container&#45;&gt;CollectionProfile</title>
<path fill="none" stroke="black" d="M201.24,-316.03C204.38,-367.8 219.15,-498.58 288.64,-575 289.41,-575.85 290.21,-576.67 291.04,-577.47"/>
<polygon fill="black" stroke="black" points="289.17,-580.45 299.16,-583.98 293.55,-574.99 289.17,-580.45"/>
</g>
<!-- Container&#45;&gt;Label -->
<g id="edge4" class="edge">
<title>Container&#45;&gt;Label</title>
<path fill="none" stroke="black" d="M203.2,-316.11C209.95,-360.6 231.03,-461.72 288.64,-521 296.35,-528.93 306.74,-534.64 316.92,-538.71"/>
<polygon fill="black" stroke="black" points="315.91,-542.07 326.5,-542.12 318.26,-535.47 315.91,-542.07"/>
</g>
<!-- Container&#45;&gt;LoanItem -->
<g id="edge5" class="edge">
<title>Container&#45;&gt;LoanItem</title>
<path fill="none" stroke="black" d="M207.04,-316.04C218.56,-350.97 245.23,-419.45 288.64,-462 294.57,-467.81 301.76,-472.76 309.15,-476.92"/>
<polygon fill="black" stroke="black" points="308.05,-480.29 318.54,-481.75 311.25,-474.06 308.05,-480.29"/>
</g>
<!-- Container&#45;&gt;Loan -->
<g id="edge17" class="edge">
<title>Container&#45;&gt;Loan</title>
<path fill="none" stroke="black" stroke-dasharray="1,5" d="M213.21,-325.62C227.27,-356.41 252.72,-402.36 288.64,-429 336.99,-464.86 361.96,-446.74 418.64,-467 431.05,-471.43 444.52,-477.04 455.85,-482"/>
<polygon fill="black" stroke="black" points="216.29,-323.93 209.05,-316.2 209.89,-326.76 216.29,-323.93"/>
</g>
<!-- Container&#45;&gt;PinboardItem -->
<g id="edge7" class="edge">
<title>Container&#45;&gt;PinboardItem</title>
<path fill="none" stroke="black" d="M220.43,-316.2C237.3,-333.89 262.74,-358.37 288.64,-375 291.91,-377.1 295.38,-379.1 298.94,-381"/>
<polygon fill="black" stroke="black" points="297.4,-384.14 307.91,-385.47 300.52,-377.88 297.4,-384.14"/>
</g>
<!-- Container&#45;&gt;Role -->
<g id="edge8" class="edge">
<title>Container&#45;&gt;Role</title>
<path fill="none" stroke="black" d="M241.6,-308.61C265.07,-316.94 294.2,-327.27 316.73,-335.26"/>
<polygon fill="black" stroke="black" points="315.67,-338.6 326.26,-338.64 318.01,-332 315.67,-338.6"/>
</g>
<!-- Container&#45;&gt;VerifierRole -->
<g id="edge10" class="edge">
<title>Container&#45;&gt;VerifierRole</title>
<path fill="none" stroke="black" d="M252.79,-294C268.6,-294 285.92,-294 301.63,-294"/>
<polygon fill="black" stroke="black" points="301.69,-297.5 311.69,-294 301.69,-290.5 301.69,-297.5"/>
</g>
<!-- Container&#45;&gt;Creator -->
<g id="edge12" class="edge">
<title>Container&#45;&gt;Creator</title>
<path fill="none" stroke="black" stroke-dasharray="5,2" d="M254.17,-277.43C265.54,-273.96 277.48,-270.34 288.64,-267 346.31,-249.75 361.96,-249.26 418.64,-229 430.6,-224.73 443.54,-219.36 454.6,-214.55"/>
<polygon fill="black" stroke="black" points="252.89,-274.16 244.35,-280.43 254.94,-280.85 252.89,-274.16"/>
</g>
<!-- Container&#45;&gt;Project -->
<g id="edge13" class="edge">
<title>Container&#45;&gt;Project</title>
<path fill="none" stroke="black" stroke-dasharray="5,2" d="M241.04,-270.66C245.01,-268.15 248.93,-265.57 252.64,-263 269.52,-251.28 271.35,-245.1 288.64,-234 300.45,-226.41 314.31,-219.29 326.1,-213.7"/>
<polygon fill="black" stroke="black" points="239.02,-267.79 232.35,-276.02 242.7,-273.75 239.02,-267.79"/>
</g>
<!-- Container&#45;&gt;Updater -->
<g id="edge14" class="edge">
<title>Container&#45;&gt;Updater</title>
<path fill="none" stroke="black" stroke-dasharray="5,2" d="M243.9,-271.39C247.07,-268.81 250.04,-266.01 252.64,-263 280.24,-231 253.56,-198.55 288.64,-175 369.11,-120.98 491.94,-163.76 547.52,-188.08"/>
<polygon fill="black" stroke="black" points="241.72,-268.65 235.69,-277.36 245.84,-274.31 241.72,-268.65"/>
</g>
<!-- Container&#45;&gt;ContainerItem -->
<g id="edge16" class="edge">
<title>Container&#45;&gt;ContainerItem</title>
<path fill="none" stroke="black" stroke-dasharray="1,5" d="M236.02,-268.99C242.23,-264.7 248.14,-259.78 252.64,-254 287.14,-209.75 252.57,-175.98 288.64,-133 293.43,-127.29 299.49,-122.5 305.97,-118.63"/>
<polygon fill="black" stroke="black" points="234,-266.12 227.46,-274.46 237.77,-272.02 234,-266.12"/>
</g>
<!-- Container&#45;&gt;ContainerItem -->
<!-- Container&#45;&gt;ParentContainerItem -->
<g id="edge18" class="edge">
<title>Container&#45;&gt;ParentContainerItem</title>
<path fill="none" stroke="black" stroke-dasharray="1,5" d="M244.94,-271.56C247.82,-268.96 250.44,-266.11 252.64,-263 299.8,-196.43 237.06,-146.21 288.64,-83 291.39,-79.64 294.62,-76.69 298.16,-74.1"/>
<polygon fill="black" stroke="black" points="242.57,-268.96 236.83,-277.87 246.87,-274.49 242.57,-268.96"/>
</g>
<!-- LoanItem&#45;&gt;Loan -->
<g id="edge6" class="edge">
<title>LoanItem&#45;&gt;Loan</title>
<path fill="none" stroke="black" d="M388.81,-494C406.44,-494 427.96,-494 445.89,-494"/>
<polygon fill="black" stroke="black" points="445.97,-497.5 455.97,-494 445.97,-490.5 445.97,-497.5"/>
</g>
<!-- Role&#45;&gt;Verifier -->
<!-- VerifierRole&#45;&gt;Verifier -->
<g id="edge11" class="edge">
<title>VerifierRole&#45;&gt;Verifier</title>
<path fill="none" stroke="black" d="M395.33,-302.62C410.97,-305.93 428.74,-309.69 444.11,-312.95"/>
<polygon fill="black" stroke="black" points="443.8,-316.46 454.31,-315.11 445.25,-309.61 443.8,-316.46"/>
</g>
<!-- Creator&#45;&gt;Updater -->
<!-- Project&#45;&gt;Creator -->
<!-- Identifier -->
<g id="node1" class="node">
<title>Identifier</title>
<g id="a_node1"><a xlink:href="/develop/Data/models.html#identifier" xlink:title="Identifier" target="_top">
<ellipse fill="#abcdef" stroke="#dddeee" cx="67.26" cy="-294" rx="42.79" ry="18"/>
<text text-anchor="middle" x="67.26" y="-290.3" font-family="Times,serif" font-size="14.00">Identifier</text>
</a>
</g>
</g>
<!-- Tag -->
<g id="node2" class="node">
<title>Tag</title>
<g id="a_node2"><a xlink:href="/develop/Data/models.html#tag" xlink:title="Tag" target="_top">
<ellipse fill="#abcdef" stroke="#dddeee" cx="67.26" cy="-238" rx="27" ry="18"/>
<text text-anchor="middle" x="67.26" y="-234.3" font-family="Times,serif" font-size="14.00">Tag</text>
</a>
</g>
</g>
<!-- Container -->
<g id="node3" class="node">
<title>Container</title>
<g id="a_node3"><a xlink:href="/develop/Data/models.html#container" xlink:title="Container" target="_top">
<polygon fill="#cdefab" stroke="#dedede" points="248.87,-286.54 248.87,-301.46 219.89,-312 178.9,-312 149.92,-301.46 149.92,-286.54 178.9,-276 219.89,-276 248.87,-286.54"/>
<polygon fill="none" stroke="#dedede" points="252.89,-283.75 252.89,-304.25 220.6,-316 178.19,-316 145.91,-304.25 145.91,-283.75 178.19,-272 220.6,-272 252.89,-283.75"/>
<text text-anchor="middle" x="199.4" y="-290.3" font-family="Times,serif" font-size="14.00">Container</text>
</a>
</g>
</g>
<!-- CollectionProfile -->
<g id="node4" class="node">
<title>CollectionProfile</title>
<g id="a_node4"><a xlink:href="/develop/Data/models.html#collection-profile" xlink:title="CollectionProfile" target="_top">
<polygon fill="#eeefff" stroke="#dddeee" points="408.14,-620 299.14,-620 299.14,-584 408.14,-584 408.14,-620"/>
<text text-anchor="middle" x="353.64" y="-598.3" font-family="Times,serif" font-size="14.00">CollectionProfile</text>
</a>
</g>
</g>
<!-- Keyword -->
<g id="node5" class="node">
<title>Keyword</title>
<g id="a_node5"><a xlink:href="/develop/Data/models.html#keyword" xlink:title="Keyword" target="_top">
<polygon fill="#eeefff" stroke="#dddeee" points="232.9,-254 165.9,-254 165.9,-218 232.9,-218 232.9,-254"/>
<text text-anchor="middle" x="199.4" y="-232.3" font-family="Times,serif" font-size="14.00">Keyword</text>
</a>
</g>
</g>
<!-- Label -->
<g id="node6" class="node">
<title>Label</title>
<g id="a_node6"><a xlink:href="/develop/Data/models.html#label" xlink:title="Label" target="_top">
<polygon fill="#eeefff" stroke="#dddeee" points="380.64,-566 326.64,-566 326.64,-530 380.64,-530 380.64,-566"/>
<text text-anchor="middle" x="353.64" y="-544.3" font-family="Times,serif" font-size="14.00">Label</text>
</a>
</g>
</g>
<!-- LoanItem -->
<g id="node7" class="node">
<title>LoanItem</title>
<g id="a_node7"><a xlink:href="/develop/Data/models.html#loan-item" xlink:title="LoanItem" target="_top">
<polygon fill="#eeefff" stroke="#dddeee" points="388.64,-512 318.64,-512 318.64,-476 388.64,-476 388.64,-512"/>
<text text-anchor="middle" x="353.64" y="-490.3" font-family="Times,serif" font-size="14.00">LoanItem</text>
</a>
</g>
</g>
<!-- Loan -->
<g id="node8" class="node">
<title>Loan</title>
<g id="a_node8"><a xlink:href="/develop/Data/models.html#loan" xlink:title="Loan" target="_top">
<polygon fill="#eeefff" stroke="#dddeee" points="510.14,-512 456.14,-512 456.14,-476 510.14,-476 510.14,-512"/>
<text text-anchor="middle" x="483.14" y="-490.3" font-family="Times,serif" font-size="14.00">Loan</text>
</a>
</g>
</g>
<!-- PinboardItem -->
<g id="node9" class="node">
<title>PinboardItem</title>
<g id="a_node9"><a xlink:href="/develop/Data/models.html#pinboard-item" xlink:title="PinboardItem" target="_top">
<polygon fill="#eeefff" stroke="#dddeee" points="399.14,-420 308.14,-420 308.14,-384 399.14,-384 399.14,-420"/>
<text text-anchor="middle" x="353.64" y="-398.3" font-family="Times,serif" font-size="14.00">PinboardItem</text>
</a>
</g>
</g>
<!-- Role -->
<g id="node10" class="node">
<title>Role</title>
<g id="a_node10"><a xlink:href="/develop/Data/models.html#role" xlink:title="Role" target="_top">
<polygon fill="#eeefff" stroke="#dddeee" points="380.64,-366 326.64,-366 326.64,-330 380.64,-330 380.64,-366"/>
<text text-anchor="middle" x="353.64" y="-344.3" font-family="Times,serif" font-size="14.00">Role</text>
</a>
</g>
</g>
<!-- VerifierRole -->
<g id="node11" class="node">
<title>VerifierRole</title>
<g id="a_node11"><a xlink:href="/develop/Data/models.html#verifier-role" xlink:title="VerifierRole" target="_top">
<polygon fill="#eeefff" stroke="#dddeee" points="395.14,-312 312.14,-312 312.14,-276 395.14,-276 395.14,-312"/>
<text text-anchor="middle" x="353.64" y="-290.3" font-family="Times,serif" font-size="14.00">VerifierRole</text>
</a>
</g>
</g>
<!-- Verifier -->
<g id="node12" class="node">
<title>Verifier</title>
<g id="a_node12"><a xlink:href="/develop/Data/models.html#verifier" xlink:title="Verifier" target="_top">
<polygon fill="#eeefff" stroke="#dddeee" points="511.64,-339 454.64,-339 454.64,-303 511.64,-303 511.64,-339"/>
<text text-anchor="middle" x="483.14" y="-317.3" font-family="Times,serif" font-size="14.00">Verifier</text>
</a>
</g>
</g>
<!-- Creator -->
<g id="node13" class="node">
<title>Creator</title>
<g id="a_node13"><a xlink:href="/develop/Data/models.html#creator" xlink:title="Creator" target="_top">
<polygon fill="#eeefff" stroke="#dddeee" points="511.64,-220 454.64,-220 454.64,-184 511.64,-184 511.64,-220"/>
<text text-anchor="middle" x="483.14" y="-198.3" font-family="Times,serif" font-size="14.00">Creator</text>
</a>
</g>
</g>
<!-- Project -->
<g id="node14" class="node">
<title>Project</title>
<g id="a_node14"><a xlink:href="/develop/Data/models.html#project" xlink:title="Project" target="_top">
<polygon fill="#eeefff" stroke="#dddeee" points="381.14,-220 326.14,-220 326.14,-184 381.14,-184 381.14,-220"/>
<text text-anchor="middle" x="353.64" y="-198.3" font-family="Times,serif" font-size="14.00">Project</text>
</a>
</g>
</g>
<!-- Updater -->
<g id="node15" class="node">
<title>Updater</title>
<g id="a_node15"><a xlink:href="/develop/Data/models.html#updater" xlink:title="Updater" target="_top">
<polygon fill="#eeefff" stroke="#dddeee" points="607.64,-220 547.64,-220 547.64,-184 607.64,-184 607.64,-220"/>
<text text-anchor="middle" x="577.64" y="-198.3" font-family="Times,serif" font-size="14.00">Updater</text>
</a>
</g>
</g>
<!-- ContainerItem -->
<g id="node16" class="node">
<title>ContainerItem</title>
<g id="a_node16"><a xlink:href="/develop/Data/models.html#container-item" xlink:title="ContainerItem" target="_top">
<polygon fill="#eeefff" stroke="#dddeee" points="401.14,-128 306.14,-128 306.14,-92 401.14,-92 401.14,-128"/>
<text text-anchor="middle" x="353.64" y="-106.3" font-family="Times,serif" font-size="14.00">ContainerItem</text>
</a>
</g>
</g>
<!-- ParentContainerItem -->
<g id="node17" class="node">
<title>ParentContainerItem</title>
<g id="a_node17"><a xlink:href="/develop/Data/models.html#parent-container-item" xlink:title="ParentContainerItem" target="_top">
<polygon fill="#eeefff" stroke="#dddeee" points="418.64,-74 288.64,-74 288.64,-38 418.64,-38 418.64,-74"/>
<text text-anchor="middle" x="353.64" y="-52.3" font-family="Times,serif" font-size="14.00">ParentContainerItem</text>
</a>
</g>
</g>
</g>
</svg>
