<?xml version="1.0" encoding="UTF-8" standalone="no"?>
<!DOCTYPE svg PUBLIC "-//W3C//DTD SVG 1.1//EN"
 "http://www.w3.org/Graphics/SVG/1.1/DTD/svg11.dtd">
<!-- Generated by graphviz version 2.50.0 (20211204.2007)
 -->
<!-- Title: ContainerItem Pages: 1 -->
<svg width="707pt" height="590pt"
 viewBox="0.00 0.00 706.84 590.00" xmlns="http://www.w3.org/2000/svg" xmlns:xlink="http://www.w3.org/1999/xlink">
<g id="graph0" class="graph" transform="scale(1 1) rotate(0) translate(4 586)">
<title>ContainerItem</title>
<polygon fill="white" stroke="transparent" points="-4,4 -4,-586 702.84,-586 702.84,4 -4,4"/>
<text text-anchor="middle" x="349.42" y="-22.8" font-family="Times,serif" font-size="14.00">Algorithmically generated relationships for ContainerItem based on assertions of &#39;has_many&#39;, &#39;has_one&#39;, &#39;belongs_to&#39;. </text>
<text text-anchor="middle" x="349.42" y="-7.8" font-family="Times,serif" font-size="14.00">Generated 2022&#45;01&#45;25 11:37:37 &#45;0600.</text>
<!-- ContainerItem&#45;&gt;AncestorHierarchy -->
<g id="edge1" class="edge">
<title>ContainerItem&#45;&gt;AncestorHierarchy</title>
<path fill="none" stroke="black" d="M74.66,-316.2C82.05,-364.47 106.55,-479.31 177.66,-537 195.19,-551.22 218.28,-558.53 240.2,-562.14"/>
<polygon fill="black" stroke="black" points="239.77,-565.61 250.16,-563.55 240.75,-558.68 239.77,-565.61"/>
</g>
<!-- ContainerItem&#45;&gt;Child -->
<g id="edge2" class="edge">
<title>ContainerItem&#45;&gt;Child</title>
<path fill="none" stroke="black" d="M77.62,-316.16C89.32,-356.25 119.7,-440.58 177.66,-483 205.1,-503.08 243.99,-509.02 272.28,-510.43"/>
<polygon fill="black" stroke="black" points="272.45,-513.94 282.56,-510.77 272.68,-506.95 272.45,-513.94"/>
</g>
<!-- ContainerItem&#45;&gt;DescendantHierarchy -->
<g id="edge3" class="edge">
<title>ContainerItem&#45;&gt;DescendantHierarchy</title>
<path fill="none" stroke="black" d="M82.77,-316.19C99.04,-346.72 132.6,-401.09 177.66,-429 194.15,-439.21 213.82,-445.63 232.84,-449.65"/>
<polygon fill="black" stroke="black" points="232.23,-453.1 242.71,-451.54 233.55,-446.22 232.23,-453.1"/>
</g>
<!-- ContainerItem&#45;&gt;PinboardItem -->
<g id="edge4" class="edge">
<title>ContainerItem&#45;&gt;PinboardItem</title>
<path fill="none" stroke="black" d="M94.2,-316.01C114.36,-334.58 145.67,-360.4 177.66,-375 201.52,-385.89 229.83,-392.43 254.02,-396.33"/>
<polygon fill="black" stroke="black" points="253.7,-399.82 264.11,-397.85 254.74,-392.9 253.7,-399.82"/>
</g>
<!-- ContainerItem&#45;&gt;Role -->
<g id="edge5" class="edge">
<title>ContainerItem&#45;&gt;Role</title>
<path fill="none" stroke="black" d="M126.92,-308.57C143.22,-312.74 161.13,-317.19 177.66,-321 209.65,-328.37 246.24,-335.83 272.63,-341.03"/>
<polygon fill="black" stroke="black" points="272.07,-344.49 282.56,-342.98 273.42,-337.62 272.07,-344.49"/>
</g>
<!-- ContainerItem&#45;&gt;VerifierRole -->
<g id="edge8" class="edge">
<title>ContainerItem&#45;&gt;VerifierRole</title>
<path fill="none" stroke="black" d="M141.63,-294C178.87,-294 223.86,-294 257.78,-294"/>
<polygon fill="black" stroke="black" points="257.93,-297.5 267.93,-294 257.93,-290.5 257.93,-297.5"/>
</g>
<!-- ContainerItem&#45;&gt;Creator -->
<g id="edge11" class="edge">
<title>ContainerItem&#45;&gt;Creator</title>
<path fill="none" stroke="black" stroke-dasharray="5,2" d="M135.59,-276.56C149.4,-273.11 163.97,-269.72 177.66,-267 294,-243.86 333.43,-277.16 441.84,-229 474.82,-214.35 505.56,-185.23 523.39,-166.19"/>
<polygon fill="black" stroke="black" points="134.52,-273.22 125.69,-279.07 136.24,-280.01 134.52,-273.22"/>
</g>
<!-- ContainerItem&#45;&gt;Parent -->
<g id="edge12" class="edge">
<title>ContainerItem&#45;&gt;Parent</title>
<path fill="none" stroke="black" stroke-dasharray="5,2" d="M112.33,-267.54C131.51,-255.93 155.12,-242.94 177.66,-234 212.83,-220.05 255.8,-210.97 282.73,-206.16"/>
<polygon fill="black" stroke="black" points="110.25,-264.71 103.56,-272.93 113.92,-270.67 110.25,-264.71"/>
</g>
<!-- ContainerItem&#45;&gt;Project -->
<g id="edge13" class="edge">
<title>ContainerItem&#45;&gt;Project</title>
<path fill="none" stroke="black" stroke-dasharray="5,2" d="M90.85,-263.16C109.5,-235.63 140.5,-196.45 177.66,-175 210.36,-156.12 254.37,-150.33 282.15,-148.62"/>
<polygon fill="black" stroke="black" points="87.83,-261.38 85.23,-271.65 93.67,-265.24 87.83,-261.38"/>
</g>
<!-- ContainerItem&#45;&gt;Updater -->
<g id="edge14" class="edge">
<title>ContainerItem&#45;&gt;Updater</title>
<path fill="none" stroke="black" stroke-dasharray="5,2" d="M80.73,-262.16C94.14,-221.03 123.87,-151.15 177.66,-121 260.08,-74.8 510.18,-102.52 602.84,-121 614.94,-123.41 627.61,-128.13 638.52,-132.95"/>
<polygon fill="black" stroke="black" points="77.32,-261.37 77.67,-271.95 84,-263.45 77.32,-261.37"/>
</g>
<!-- ContainerItem&#45;&gt;Objects with Container items -->
<g id="edge10" class="edge">
<title>ContainerItem&#45;&gt;Objects with Container items</title>
<path fill="none" stroke="black" stroke-dasharray="5,2" d="M79.27,-262.08C91.64,-216.36 120.87,-132.79 177.66,-88 189.53,-78.64 203.73,-71.97 218.35,-67.22"/>
<polygon fill="black" stroke="black" points="75.88,-261.22 76.75,-271.78 82.66,-262.98 75.88,-261.22"/>
</g>
<!-- AncestorHierarchy&#45;&gt;SelfAndAncestor -->
<g id="edge6" class="edge">
<title>AncestorHierarchy&#45;&gt;SelfAndAncestor</title>
<path fill="none" stroke="black" d="M369.32,-564C401.69,-564 441.95,-564 475.16,-564"/>
<polygon fill="black" stroke="black" points="475.23,-567.5 485.23,-564 475.23,-560.5 475.23,-567.5"/>
</g>
<!-- DescendantHierarchy&#45;&gt;SelfAndDescendant -->
<g id="edge7" class="edge">
<title>DescendantHierarchy&#45;&gt;SelfAndDescendant</title>
<path fill="none" stroke="black" d="M376.87,-456C405.29,-456 438.58,-456 467.61,-456"/>
<polygon fill="black" stroke="black" points="467.68,-459.5 477.68,-456 467.68,-452.5 467.68,-459.5"/>
</g>
<!-- Role&#45;&gt;Verifier -->
<!-- VerifierRole&#45;&gt;Verifier -->
<g id="edge9" class="edge">
<title>VerifierRole&#45;&gt;Verifier</title>
<path fill="none" stroke="black" d="M351.35,-298.8C393.93,-303.83 460.29,-311.66 501.72,-316.56"/>
<polygon fill="black" stroke="black" points="501.34,-320.04 511.68,-317.73 502.16,-313.08 501.34,-320.04"/>
</g>
<!-- Creator&#45;&gt;Updater -->
<!-- Project&#45;&gt;Creator -->
<!-- ContainerItem -->
<g id="node1" class="node">
<title>ContainerItem</title>
<g id="a_node1"><a xlink:href="/develop/Data/models.html#container-item" xlink:title="ContainerItem" target="_top">
<polygon fill="#cdefab" stroke="#dedede" points="137.51,-286.54 137.51,-301.46 98.45,-312 43.21,-312 4.16,-301.46 4.16,-286.54 43.21,-276 98.45,-276 137.51,-286.54"/>
<polygon fill="none" stroke="#dedede" points="141.5,-283.48 141.5,-304.52 98.98,-316 42.69,-316 0.17,-304.52 0.17,-283.48 42.69,-272 98.98,-272 141.5,-283.48"/>
<text text-anchor="middle" x="70.83" y="-290.3" font-family="Times,serif" font-size="14.00">ContainerItem</text>
</a>
</g>
</g>
<!-- AncestorHierarchy -->
<g id="node2" class="node">
<title>AncestorHierarchy</title>
<g id="a_node2"><a xlink:href="/develop/Data/models.html#ancestor-hierarchy" xlink:title="AncestorHierarchy" target="_top">
<polygon fill="#eeefff" stroke="#dddeee" points="369.25,-582 250.25,-582 250.25,-546 369.25,-546 369.25,-582"/>
<text text-anchor="middle" x="309.75" y="-560.3" font-family="Times,serif" font-size="14.00">AncestorHierarchy</text>
</a>
</g>
</g>
<!-- Child -->
<g id="node3" class="node">
<title>Child</title>
<g id="a_node3"><a xlink:href="/develop/Data/models.html#child" xlink:title="Child" target="_top">
<polygon fill="#eeefff" stroke="#dddeee" points="336.75,-528 282.75,-528 282.75,-492 336.75,-492 336.75,-528"/>
<text text-anchor="middle" x="309.75" y="-506.3" font-family="Times,serif" font-size="14.00">Child</text>
</a>
</g>
</g>
<!-- DescendantHierarchy -->
<g id="node4" class="node">
<title>DescendantHierarchy</title>
<g id="a_node4"><a xlink:href="/develop/Data/models.html#descendant-hierarchy" xlink:title="DescendantHierarchy" target="_top">
<polygon fill="#eeefff" stroke="#dddeee" points="376.75,-474 242.75,-474 242.75,-438 376.75,-438 376.75,-474"/>
<text text-anchor="middle" x="309.75" y="-452.3" font-family="Times,serif" font-size="14.00">DescendantHierarchy</text>
</a>
</g>
</g>
<!-- PinboardItem -->
<g id="node5" class="node">
<title>PinboardItem</title>
<g id="a_node5"><a xlink:href="/develop/Data/models.html#pinboard-item" xlink:title="PinboardItem" target="_top">
<polygon fill="#eeefff" stroke="#dddeee" points="355.25,-420 264.25,-420 264.25,-384 355.25,-384 355.25,-420"/>
<text text-anchor="middle" x="309.75" y="-398.3" font-family="Times,serif" font-size="14.00">PinboardItem</text>
</a>
</g>
</g>
<!-- Role -->
<g id="node6" class="node">
<title>Role</title>
<g id="a_node6"><a xlink:href="/develop/Data/models.html#role" xlink:title="Role" target="_top">
<polygon fill="#eeefff" stroke="#dddeee" points="336.75,-366 282.75,-366 282.75,-330 336.75,-330 336.75,-366"/>
<text text-anchor="middle" x="309.75" y="-344.3" font-family="Times,serif" font-size="14.00">Role</text>
</a>
</g>
</g>
<!-- SelfAndAncestor -->
<g id="node7" class="node">
<title>SelfAndAncestor</title>
<g id="a_node7"><a xlink:href="/develop/Data/models.html#self-and-ancestor" xlink:title="SelfAndAncestor" target="_top">
<polygon fill="#eeefff" stroke="#dddeee" points="595.34,-582 485.34,-582 485.34,-546 595.34,-546 595.34,-582"/>
<text text-anchor="middle" x="540.34" y="-560.3" font-family="Times,serif" font-size="14.00">SelfAndAncestor</text>
</a>
</g>
</g>
<!-- SelfAndDescendant -->
<g id="node8" class="node">
<title>SelfAndDescendant</title>
<g id="a_node8"><a xlink:href="/develop/Data/models.html#self-and-descendant" xlink:title="SelfAndDescendant" target="_top">
<polygon fill="#eeefff" stroke="#dddeee" points="602.84,-474 477.84,-474 477.84,-438 602.84,-438 602.84,-474"/>
<text text-anchor="middle" x="540.34" y="-452.3" font-family="Times,serif" font-size="14.00">SelfAndDescendant</text>
</a>
</g>
</g>
<!-- VerifierRole -->
<g id="node9" class="node">
<title>VerifierRole</title>
<g id="a_node9"><a xlink:href="/develop/Data/models.html#verifier-role" xlink:title="VerifierRole" target="_top">
<polygon fill="#eeefff" stroke="#dddeee" points="351.25,-312 268.25,-312 268.25,-276 351.25,-276 351.25,-312"/>
<text text-anchor="middle" x="309.75" y="-290.3" font-family="Times,serif" font-size="14.00">VerifierRole</text>
</a>
</g>
</g>
<!-- Verifier -->
<g id="node10" class="node">
<title>Verifier</title>
<g id="a_node10"><a xlink:href="/develop/Data/models.html#verifier" xlink:title="Verifier" target="_top">
<polygon fill="#eeefff" stroke="#dddeee" points="568.84,-339 511.84,-339 511.84,-303 568.84,-303 568.84,-339"/>
<text text-anchor="middle" x="540.34" y="-317.3" font-family="Times,serif" font-size="14.00">Verifier</text>
</a>
</g>
</g>
<!-- Creator -->
<g id="node11" class="node">
<title>Creator</title>
<g id="a_node11"><a xlink:href="/develop/Data/models.html#creator" xlink:title="Creator" target="_top">
<polygon fill="#eeefff" stroke="#dddeee" points="568.84,-166 511.84,-166 511.84,-130 568.84,-130 568.84,-166"/>
<text text-anchor="middle" x="540.34" y="-144.3" font-family="Times,serif" font-size="14.00">Creator</text>
</a>
</g>
</g>
<!-- Parent -->
<g id="node12" class="node">
<title>Parent</title>
<g id="a_node12"><a xlink:href="/develop/Data/models.html#parent" xlink:title="Parent" target="_top">
<polygon fill="#eeefff" stroke="#dddeee" points="336.75,-220 282.75,-220 282.75,-184 336.75,-184 336.75,-220"/>
<text text-anchor="middle" x="309.75" y="-198.3" font-family="Times,serif" font-size="14.00">Parent</text>
</a>
</g>
</g>
<!-- Project -->
<g id="node13" class="node">
<title>Project</title>
<g id="a_node13"><a xlink:href="/develop/Data/models.html#project" xlink:title="Project" target="_top">
<polygon fill="#eeefff" stroke="#dddeee" points="337.25,-166 282.25,-166 282.25,-130 337.25,-130 337.25,-166"/>
<text text-anchor="middle" x="309.75" y="-144.3" font-family="Times,serif" font-size="14.00">Project</text>
</a>
</g>
</g>
<!-- Updater -->
<g id="node14" class="node">
<title>Updater</title>
<g id="a_node14"><a xlink:href="/develop/Data/models.html#updater" xlink:title="Updater" target="_top">
<polygon fill="#eeefff" stroke="#dddeee" points="698.84,-166 638.84,-166 638.84,-130 698.84,-130 698.84,-166"/>
<text text-anchor="middle" x="668.84" y="-144.3" font-family="Times,serif" font-size="14.00">Updater</text>
</a>
</g>
</g>
<!-- Objects with Container items -->
<g id="node15" class="node">
<title>Objects with Container items</title>
<g id="a_node15"><a xlink:href="/develop/Data/models.html#objects with container item" xlink:title="Objects with Container items" target="_top">
<polygon fill="#cdabef" stroke="#dedede" points="441.92,-56 375.84,-74 243.66,-74 177.58,-56 243.66,-38 375.84,-38 441.92,-56"/>
<text text-anchor="middle" x="309.75" y="-52.3" font-family="Times,serif" font-size="14.00">Objects with Container items</text>
</a>
</g>
</g>
</g>
</svg>
