<?xml version="1.0" encoding="UTF-8" standalone="no"?>
<!DOCTYPE svg PUBLIC "-//W3C//DTD SVG 1.1//EN"
 "http://www.w3.org/Graphics/SVG/1.1/DTD/svg11.dtd">
<!-- Generated by graphviz version 2.50.0 (20211204.2007)
 -->
<!-- Title: Content Pages: 1 -->
<svg width="711pt" height="670pt"
 viewBox="0.00 0.00 711.29 670.00" xmlns="http://www.w3.org/2000/svg" xmlns:xlink="http://www.w3.org/1999/xlink">
<g id="graph0" class="graph" transform="scale(1 1) rotate(0) translate(4 666)">
<title>Content</title>
<polygon fill="white" stroke="transparent" points="-4,4 -4,-666 707.29,-666 707.29,4 -4,4"/>
<!-- Citation&#45;&gt;Source -->
<g id="edge10" class="edge">
<title>Citation&#45;&gt;Source</title>
<path fill="none" stroke="black" d="M98.3,-589C153.51,-589 254.93,-589 309.04,-589"/>
<polygon fill="black" stroke="black" points="309.21,-592.5 319.21,-589 309.21,-585.5 309.21,-592.5"/>
</g>
<!-- Citation&#45;&gt;CitationTopic -->
<g id="edge1" class="edge">
<title>Citation&#45;&gt;CitationTopic</title>
<path fill="none" stroke="black" d="M90.02,-600.13C108.07,-606.85 131.63,-615.63 152.93,-623.56"/>
<polygon fill="black" stroke="black" points="151.94,-626.93 162.53,-627.14 154.38,-620.37 151.94,-626.93"/>
</g>
<!-- Confidence&#45;&gt;ConfidenceLevel -->
<g id="edge3" class="edge">
<title>Confidence&#45;&gt;ConfidenceLevel</title>
<path fill="none" stroke="black" d="M110.13,-308.66C120.96,-308.59 132.55,-308.51 143.82,-308.43"/>
<polygon fill="black" stroke="black" points="144.09,-311.93 154.06,-308.36 144.04,-304.93 144.09,-311.93"/>
</g>
<!-- Depiction&#45;&gt;Image -->
<g id="edge7" class="edge">
<title>Depiction&#45;&gt;Image</title>
<path fill="none" stroke="black" d="M104.84,-254.7C126.24,-254.55 151.52,-254.38 171.67,-254.24"/>
<polygon fill="black" stroke="black" points="171.72,-257.74 181.7,-254.18 171.67,-250.74 171.72,-257.74"/>
</g>
<!-- Source&#45;&gt;SubsequentCitation -->
<!-- Source&#45;&gt;OriginCitation -->
<!-- Content&#45;&gt;Citation -->
<g id="edge2" class="edge">
<title>Content&#45;&gt;Citation</title>
<path fill="none" stroke="black" d="M193.2,-388.04C165.69,-429.59 106.29,-519.3 77.07,-563.43"/>
<polygon fill="black" stroke="black" points="74.09,-561.6 71.49,-571.87 79.92,-565.47 74.09,-561.6"/>
</g>
<!-- Content&#45;&gt;Confidence -->
<g id="edge4" class="edge">
<title>Content&#45;&gt;Confidence</title>
<path fill="none" stroke="black" d="M171.75,-352.09C151.12,-344.12 125.08,-334.07 103.35,-325.68"/>
<polygon fill="black" stroke="black" points="104.61,-322.41 94.02,-322.08 102.09,-328.94 104.61,-322.41"/>
</g>
<!-- Content&#45;&gt;DataAttribute -->
<g id="edge5" class="edge">
<title>Content&#45;&gt;DataAttribute</title>
<path fill="none" stroke="black" d="M163.07,-365.39C152.21,-365.25 140.36,-365.09 128.68,-364.93"/>
<polygon fill="black" stroke="black" points="128.54,-361.43 118.5,-364.79 128.45,-368.43 128.54,-361.43"/>
</g>
<!-- Content&#45;&gt;Depiction -->
<g id="edge6" class="edge">
<title>Content&#45;&gt;Depiction</title>
<path fill="none" stroke="black" d="M175.61,-350.49C168.16,-346.07 160.58,-340.85 154.29,-335 133.45,-315.6 139.99,-300.44 118.29,-282 113.67,-278.08 108.39,-274.6 102.93,-271.56"/>
<polygon fill="black" stroke="black" points="104.17,-268.26 93.67,-266.85 100.99,-274.5 104.17,-268.26"/>
</g>
<!-- Content&#45;&gt;Attribution -->
<g id="edge23" class="edge">
<title>Content&#45;&gt;Attribution</title>
<path fill="none" stroke="black" stroke-dasharray="1,5" d="M160.93,-382.5C139.74,-389.97 115.11,-398.64 95.51,-405.54"/>
<polygon fill="black" stroke="black" points="162.12,-385.79 170.39,-379.17 159.8,-379.19 162.12,-385.79"/>
</g>
<!-- Content&#45;&gt;Source -->
<g id="edge26" class="edge">
<title>Content&#45;&gt;Source</title>
<path fill="none" stroke="black" stroke-dasharray="1,5" d="M219.22,-397.78C232.29,-437.92 258.96,-507.57 299.29,-556 304.82,-562.65 311.99,-568.62 319.01,-573.6"/>
<polygon fill="black" stroke="black" points="222.55,-396.72 216.19,-388.25 215.88,-398.84 222.55,-396.72"/>
</g>
<!-- Content&#45;&gt;Otu -->
<g id="edge19" class="edge">
<title>Content&#45;&gt;Otu</title>
<path fill="none" stroke="black" stroke-dasharray="5,2" d="M251.98,-345.64C256.16,-342.48 260.04,-338.94 263.29,-335 294.4,-297.26 268.59,-269.08 299.29,-231 304.57,-224.45 311.82,-219.04 319.01,-214.79"/>
<polygon fill="black" stroke="black" points="250.01,-342.75 243.69,-351.25 253.94,-348.55 250.01,-342.75"/>
</g>
<!-- Content&#45;&gt;PinboardItem -->
<g id="edge8" class="edge">
<title>Content&#45;&gt;PinboardItem</title>
<path fill="none" stroke="black" d="M244.9,-351.78C251.98,-347.39 258.66,-341.85 263.29,-335 326.59,-241.23 227.14,-170.15 299.29,-83 308.29,-72.13 381.92,-49.01 434.82,-33.48"/>
<polygon fill="black" stroke="black" points="435.81,-36.83 444.43,-30.67 433.85,-30.11 435.81,-36.83"/>
</g>
<!-- Content&#45;&gt;Role -->
<g id="edge9" class="edge">
<title>Content&#45;&gt;Role</title>
<path fill="none" stroke="black" d="M241.86,-350.36C249.31,-345.95 256.92,-340.77 263.29,-335 283.59,-316.62 279.05,-303.44 299.29,-285 302.69,-281.9 306.51,-278.99 310.45,-276.3"/>
<polygon fill="black" stroke="black" points="312.57,-279.1 319.16,-270.81 308.84,-273.18 312.57,-279.1"/>
</g>
<!-- Content&#45;&gt;SubsequentCitation -->
<g id="edge11" class="edge">
<title>Content&#45;&gt;SubsequentCitation</title>
<path fill="none" stroke="black" d="M218.02,-388.05C230.81,-419.51 258.34,-477.2 299.29,-511 333.63,-539.34 380.29,-557.24 418.78,-568.1"/>
<polygon fill="black" stroke="black" points="418.32,-571.6 428.89,-570.85 420.16,-564.85 418.32,-571.6"/>
</g>
<!-- Content&#45;&gt;Topic -->
<g id="edge21" class="edge">
<title>Content&#45;&gt;Topic</title>
<path fill="none" stroke="black" stroke-dasharray="5,2" d="M214.12,-398.51C222.43,-450.02 244.91,-551.28 299.29,-617 304.6,-623.42 311.87,-628.66 319.05,-632.76"/>
<polygon fill="black" stroke="black" points="217.53,-397.66 212.55,-388.3 210.61,-398.72 217.53,-397.66"/>
</g>
<!-- Content&#45;&gt;VerifierRole -->
<g id="edge14" class="edge">
<title>Content&#45;&gt;VerifierRole</title>
<path fill="none" stroke="black" d="M254.53,-366C267.31,-366 281.32,-366 294.43,-366"/>
<polygon fill="black" stroke="black" points="294.71,-369.5 304.71,-366 294.71,-362.5 294.71,-369.5"/>
</g>
<!-- Content&#45;&gt;Version -->
<g id="edge16" class="edge">
<title>Content&#45;&gt;Version</title>
<path fill="none" stroke="black" d="M244.98,-351.83C252.06,-347.44 258.72,-341.89 263.29,-335 333.86,-228.6 233.18,-159.22 299.29,-50 301.86,-45.75 305.24,-41.92 309,-38.52"/>
<polygon fill="black" stroke="black" points="311.42,-41.06 317.11,-32.12 307.09,-35.57 311.42,-41.06"/>
</g>
<!-- Content&#45;&gt;Creator -->
<g id="edge17" class="edge">
<title>Content&#45;&gt;Creator</title>
<path fill="none" stroke="black" stroke-dasharray="5,2" d="M252.9,-345.62C256.81,-342.49 260.38,-338.96 263.29,-335 306.44,-276.25 250.61,-229.25 299.29,-175 310.46,-162.54 411.75,-132.21 461.7,-117.82"/>
<polygon fill="black" stroke="black" points="250.69,-342.9 244.5,-351.5 254.7,-348.63 250.69,-342.9"/>
</g>
<!-- Content&#45;&gt;Language -->
<g id="edge18" class="edge">
<title>Content&#45;&gt;Language</title>
<path fill="none" stroke="black" stroke-dasharray="5,2" d="M254.7,-383.9C272.99,-391.19 293.8,-399.48 310.86,-406.28"/>
<polygon fill="black" stroke="black" points="255.98,-380.64 245.39,-380.19 253.38,-387.14 255.98,-380.64"/>
</g>
<!-- Content&#45;&gt;Project -->
<g id="edge20" class="edge">
<title>Content&#45;&gt;Project</title>
<path fill="none" stroke="black" stroke-dasharray="5,2" d="M253.05,-345.73C256.93,-342.57 260.46,-339.01 263.29,-335 313.63,-263.73 251.93,-215.29 299.29,-142 304.04,-134.65 311.14,-128.51 318.34,-123.64"/>
<polygon fill="black" stroke="black" points="250.84,-343 244.69,-351.63 254.87,-348.72 250.84,-343"/>
</g>
<!-- Content&#45;&gt;Updater -->
<g id="edge22" class="edge">
<title>Content&#45;&gt;Updater</title>
<path fill="none" stroke="black" stroke-dasharray="5,2" d="M232.64,-395.75C248.92,-414.37 272.6,-436.71 299.29,-447 338.27,-462.02 353.38,-459.34 393.29,-447 474.56,-421.88 497.9,-405.22 551.29,-339 605.29,-272.02 631.75,-169.49 640.69,-128.18"/>
<polygon fill="black" stroke="black" points="235.25,-393.42 226.13,-388.04 229.91,-397.94 235.25,-393.42"/>
</g>
<!-- Content&#45;&gt;OriginCitation -->
<g id="edge24" class="edge">
<title>Content&#45;&gt;OriginCitation</title>
<path fill="none" stroke="black" stroke-dasharray="1,5" d="M226.07,-397C241.45,-423.17 266.95,-459.55 299.29,-480 342.88,-507.57 401.96,-517.55 442.61,-521.12"/>
<polygon fill="black" stroke="black" points="229.06,-395.17 221.06,-388.21 222.98,-398.63 229.06,-395.17"/>
</g>
<!-- Content&#45;&gt;PublicContent -->
<g id="edge25" class="edge">
<title>Content&#45;&gt;PublicContent</title>
<path fill="none" stroke="black" stroke-dasharray="1,5" d="M254.69,-348.11C269.24,-342.31 285.38,-335.88 299.96,-330.06"/>
<polygon fill="black" stroke="black" points="253.38,-344.86 245.39,-351.81 255.98,-351.36 253.38,-344.86"/>
</g>
<!-- CitationTopic&#45;&gt;Topic -->
<g id="edge13" class="edge">
<title>CitationTopic&#45;&gt;Topic</title>
<path fill="none" stroke="black" d="M254.91,-644C272.34,-644 292.03,-644 308.57,-644"/>
<polygon fill="black" stroke="black" points="308.93,-647.5 318.93,-644 308.93,-640.5 308.93,-647.5"/>
</g>
<!-- Role&#45;&gt;Verifier -->
<!-- SubsequentCitation&#45;&gt;SubsequentSource -->
<g id="edge12" class="edge">
<title>SubsequentCitation&#45;&gt;SubsequentSource</title>
<path fill="none" stroke="black" d="M551.32,-583C559.65,-583 568.26,-583 576.72,-583"/>
<polygon fill="black" stroke="black" points="576.93,-586.5 586.93,-583 576.93,-579.5 576.93,-586.5"/>
</g>
<!-- VerifierRole&#45;&gt;Verifier -->
<g id="edge15" class="edge">
<title>VerifierRole&#45;&gt;Verifier</title>
<path fill="none" stroke="black" d="M387.98,-350.53C408.17,-342.85 432.39,-333.64 452.08,-326.15"/>
<polygon fill="black" stroke="black" points="453.53,-329.34 461.64,-322.52 451.05,-322.8 453.53,-329.34"/>
</g>
<!-- Version&#45;&gt;PinboardItem -->
<!-- Creator&#45;&gt;Updater -->
<!-- Project&#45;&gt;Creator -->
<!-- Citation -->
<g id="node1" class="node">
<title>Citation</title>
<g id="a_node1"><a xlink:href="/develop/Data/models.html#citation" xlink:title="Citation" target="_top">
<ellipse fill="#abcdef" stroke="#dddeee" cx="59.14" cy="-589" rx="38.99" ry="18"/>
<text text-anchor="middle" x="59.14" y="-585.3" font-family="Times,serif" font-size="14.00">Citation</text>
</a>
</g>
</g>
<!-- Confidence -->
<g id="node2" class="node">
<title>Confidence</title>
<g id="a_node2"><a xlink:href="/develop/Data/models.html#confidence" xlink:title="Confidence" target="_top">
<ellipse fill="#abcdef" stroke="#dddeee" cx="59.14" cy="-309" rx="50.89" ry="18"/>
<text text-anchor="middle" x="59.14" y="-305.3" font-family="Times,serif" font-size="14.00">Confidence</text>
</a>
</g>
</g>
<!-- DataAttribute -->
<g id="node3" class="node">
<title>DataAttribute</title>
<g id="a_node3"><a xlink:href="/develop/Data/models.html#data-attribute" xlink:title="DataAttribute" target="_top">
<ellipse fill="#abcdef" stroke="#dddeee" cx="59.14" cy="-364" rx="59.29" ry="18"/>
<text text-anchor="middle" x="59.14" y="-360.3" font-family="Times,serif" font-size="14.00">DataAttribute</text>
</a>
</g>
</g>
<!-- Depiction -->
<g id="node4" class="node">
<title>Depiction</title>
<g id="a_node4"><a xlink:href="/develop/Data/models.html#depiction" xlink:title="Depiction" target="_top">
<ellipse fill="#abcdef" stroke="#dddeee" cx="59.14" cy="-255" rx="45.49" ry="18"/>
<text text-anchor="middle" x="59.14" y="-251.3" font-family="Times,serif" font-size="14.00">Depiction</text>
</a>
</g>
</g>
<!-- Attribution -->
<g id="node5" class="node">
<title>Attribution</title>
<g id="a_node5"><a xlink:href="/develop/Data/models.html#attribution" xlink:title="Attribution" target="_top">
<ellipse fill="#abcdef" stroke="#dddeee" cx="59.14" cy="-418" rx="50.09" ry="18"/>
<text text-anchor="middle" x="59.14" y="-414.3" font-family="Times,serif" font-size="14.00">Attribution</text>
</a>
</g>
</g>
<!-- Source -->
<g id="node6" class="node">
<title>Source</title>
<g id="a_node6"><a xlink:href="/develop/Data/models.html#source" xlink:title="Source" target="_top">
<path fill="#fedcba" stroke="#dddeee" d="M331.29,-571C331.29,-571 361.29,-571 361.29,-571 367.29,-571 373.29,-577 373.29,-583 373.29,-583 373.29,-595 373.29,-595 373.29,-601 367.29,-607 361.29,-607 361.29,-607 331.29,-607 331.29,-607 325.29,-607 319.29,-601 319.29,-595 319.29,-595 319.29,-583 319.29,-583 319.29,-577 325.29,-571 331.29,-571"/>
<text text-anchor="middle" x="346.29" y="-585.3" font-family="Times,serif" font-size="14.00">Source</text>
</a>
</g>
</g>
<!-- Otu -->
<g id="node7" class="node">
<title>Otu</title>
<g id="a_node7"><a xlink:href="/develop/Data/models.html#otu" xlink:title="Otu" target="_top">
<path fill="#fedcba" stroke="#dddeee" d="M331.29,-185C331.29,-185 361.29,-185 361.29,-185 367.29,-185 373.29,-191 373.29,-197 373.29,-197 373.29,-209 373.29,-209 373.29,-215 367.29,-221 361.29,-221 361.29,-221 331.29,-221 331.29,-221 325.29,-221 319.29,-215 319.29,-209 319.29,-209 319.29,-197 319.29,-197 319.29,-191 325.29,-185 331.29,-185"/>
<text text-anchor="middle" x="346.29" y="-199.3" font-family="Times,serif" font-size="14.00">Otu</text>
</a>
</g>
</g>
<!-- Content -->
<g id="node8" class="node">
<title>Content</title>
<g id="a_node8"><a xlink:href="/develop/Data/models.html#content" xlink:title="Content" target="_top">
<polygon fill="#cdefab" stroke="#dedede" points="250.3,-358.54 250.3,-373.46 225.98,-384 191.59,-384 167.28,-373.46 167.28,-358.54 191.59,-348 225.98,-348 250.3,-358.54"/>
<polygon fill="none" stroke="#dedede" points="254.3,-355.92 254.3,-376.08 226.81,-388 190.76,-388 163.28,-376.08 163.28,-355.92 190.76,-344 226.81,-344 254.3,-355.92"/>
<text text-anchor="middle" x="208.79" y="-362.3" font-family="Times,serif" font-size="14.00">Content</text>
</a>
</g>
</g>
<!-- CitationTopic -->
<g id="node9" class="node">
<title>CitationTopic</title>
<g id="a_node9"><a xlink:href="/develop/Data/models.html#citation-topic" xlink:title="CitationTopic" target="_top">
<polygon fill="#eeefff" stroke="#dddeee" points="254.79,-662 162.79,-662 162.79,-626 254.79,-626 254.79,-662"/>
<text text-anchor="middle" x="208.79" y="-640.3" font-family="Times,serif" font-size="14.00">CitationTopic</text>
</a>
</g>
</g>
<!-- ConfidenceLevel -->
<g id="node10" class="node">
<title>ConfidenceLevel</title>
<g id="a_node10"><a xlink:href="/develop/Data/models.html#confidence-level" xlink:title="ConfidenceLevel" target="_top">
<polygon fill="#eeefff" stroke="#dddeee" points="263.29,-326 154.29,-326 154.29,-290 263.29,-290 263.29,-326"/>
<text text-anchor="middle" x="208.79" y="-304.3" font-family="Times,serif" font-size="14.00">ConfidenceLevel</text>
</a>
</g>
</g>
<!-- Image -->
<g id="node11" class="node">
<title>Image</title>
<g id="a_node11"><a xlink:href="/develop/Data/models.html#image" xlink:title="Image" target="_top">
<polygon fill="#eeefff" stroke="#dddeee" points="235.79,-272 181.79,-272 181.79,-236 235.79,-236 235.79,-272"/>
<text text-anchor="middle" x="208.79" y="-250.3" font-family="Times,serif" font-size="14.00">Image</text>
</a>
</g>
</g>
<!-- PinboardItem -->
<g id="node12" class="node">
<title>PinboardItem</title>
<g id="a_node12"><a xlink:href="/develop/Data/models.html#pinboard-item" xlink:title="PinboardItem" target="_top">
<polygon fill="#eeefff" stroke="#dddeee" points="535.79,-36 444.79,-36 444.79,0 535.79,0 535.79,-36"/>
<text text-anchor="middle" x="490.29" y="-14.3" font-family="Times,serif" font-size="14.00">PinboardItem</text>
</a>
</g>
</g>
<!-- Role -->
<g id="node13" class="node">
<title>Role</title>
<g id="a_node13"><a xlink:href="/develop/Data/models.html#role" xlink:title="Role" target="_top">
<polygon fill="#eeefff" stroke="#dddeee" points="373.29,-276 319.29,-276 319.29,-240 373.29,-240 373.29,-276"/>
<text text-anchor="middle" x="346.29" y="-254.3" font-family="Times,serif" font-size="14.00">Role</text>
</a>
</g>
</g>
<!-- SubsequentCitation -->
<g id="node14" class="node">
<title>SubsequentCitation</title>
<g id="a_node14"><a xlink:href="/develop/Data/models.html#subsequent-citation" xlink:title="SubsequentCitation" target="_top">
<polygon fill="#eeefff" stroke="#dddeee" points="551.29,-601 429.29,-601 429.29,-565 551.29,-565 551.29,-601"/>
<text text-anchor="middle" x="490.29" y="-579.3" font-family="Times,serif" font-size="14.00">SubsequentCitation</text>
</a>
</g>
</g>
<!-- SubsequentSource -->
<g id="node15" class="node">
<title>SubsequentSource</title>
<g id="a_node15"><a xlink:href="/develop/Data/models.html#subsequent-source" xlink:title="SubsequentSource" target="_top">
<polygon fill="#eeefff" stroke="#dddeee" points="703.29,-601 587.29,-601 587.29,-565 703.29,-565 703.29,-601"/>
<text text-anchor="middle" x="645.29" y="-579.3" font-family="Times,serif" font-size="14.00">SubsequentSource</text>
</a>
</g>
</g>
<!-- Topic -->
<g id="node16" class="node">
<title>Topic</title>
<g id="a_node16"><a xlink:href="/develop/Data/models.html#topic" xlink:title="Topic" target="_top">
<polygon fill="#eeefff" stroke="#dddeee" points="373.29,-662 319.29,-662 319.29,-626 373.29,-626 373.29,-662"/>
<text text-anchor="middle" x="346.29" y="-640.3" font-family="Times,serif" font-size="14.00">Topic</text>
</a>
</g>
</g>
<!-- VerifierRole -->
<g id="node17" class="node">
<title>VerifierRole</title>
<g id="a_node17"><a xlink:href="/develop/Data/models.html#verifier-role" xlink:title="VerifierRole" target="_top">
<polygon fill="#eeefff" stroke="#dddeee" points="387.79,-384 304.79,-384 304.79,-348 387.79,-348 387.79,-384"/>
<text text-anchor="middle" x="346.29" y="-362.3" font-family="Times,serif" font-size="14.00">VerifierRole</text>
</a>
</g>
</g>
<!-- Verifier -->
<g id="node18" class="node">
<title>Verifier</title>
<g id="a_node18"><a xlink:href="/develop/Data/models.html#verifier" xlink:title="Verifier" target="_top">
<polygon fill="#eeefff" stroke="#dddeee" points="518.79,-330 461.79,-330 461.79,-294 518.79,-294 518.79,-330"/>
<text text-anchor="middle" x="490.29" y="-308.3" font-family="Times,serif" font-size="14.00">Verifier</text>
</a>
</g>
</g>
<!-- Version -->
<g id="node19" class="node">
<title>Version</title>
<g id="a_node19"><a xlink:href="/develop/Data/models.html#version" xlink:title="Version" target="_top">
<polygon fill="#eeefff" stroke="#dddeee" points="375.29,-36 317.29,-36 317.29,0 375.29,0 375.29,-36"/>
<text text-anchor="middle" x="346.29" y="-14.3" font-family="Times,serif" font-size="14.00">Version</text>
</a>
</g>
</g>
<!-- Creator -->
<g id="node20" class="node">
<title>Creator</title>
<g id="a_node20"><a xlink:href="/develop/Data/models.html#creator" xlink:title="Creator" target="_top">
<polygon fill="#eeefff" stroke="#dddeee" points="518.79,-128 461.79,-128 461.79,-92 518.79,-92 518.79,-128"/>
<text text-anchor="middle" x="490.29" y="-106.3" font-family="Times,serif" font-size="14.00">Creator</text>
</a>
</g>
</g>
<!-- Language -->
<g id="node21" class="node">
<title>Language</title>
<g id="a_node21"><a xlink:href="/develop/Data/models.html#language" xlink:title="Language" target="_top">
<polygon fill="#eeefff" stroke="#dddeee" points="381.29,-438 311.29,-438 311.29,-402 381.29,-402 381.29,-438"/>
<text text-anchor="middle" x="346.29" y="-416.3" font-family="Times,serif" font-size="14.00">Language</text>
</a>
</g>
</g>
<!-- Project -->
<g id="node22" class="node">
<title>Project</title>
<g id="a_node22"><a xlink:href="/develop/Data/models.html#project" xlink:title="Project" target="_top">
<polygon fill="#eeefff" stroke="#dddeee" points="373.79,-128 318.79,-128 318.79,-92 373.79,-92 373.79,-128"/>
<text text-anchor="middle" x="346.29" y="-106.3" font-family="Times,serif" font-size="14.00">Project</text>
</a>
</g>
</g>
<!-- Updater -->
<g id="node23" class="node">
<title>Updater</title>
<g id="a_node23"><a xlink:href="/develop/Data/models.html#updater" xlink:title="Updater" target="_top">
<polygon fill="#eeefff" stroke="#dddeee" points="675.29,-128 615.29,-128 615.29,-92 675.29,-92 675.29,-128"/>
<text text-anchor="middle" x="645.29" y="-106.3" font-family="Times,serif" font-size="14.00">Updater</text>
</a>
</g>
</g>
<!-- OriginCitation -->
<g id="node24" class="node">
<title>OriginCitation</title>
<g id="a_node24"><a xlink:href="/develop/Data/models.html#origin-citation" xlink:title="OriginCitation" target="_top">
<polygon fill="#eeefff" stroke="#dddeee" points="537.79,-541 442.79,-541 442.79,-505 537.79,-505 537.79,-541"/>
<text text-anchor="middle" x="490.29" y="-519.3" font-family="Times,serif" font-size="14.00">OriginCitation</text>
</a>
</g>
</g>
<!-- PublicContent -->
<g id="node25" class="node">
<title>PublicContent</title>
<g id="a_node25"><a xlink:href="/develop/Data/models.html#public-content" xlink:title="PublicContent" target="_top">
<polygon fill="#eeefff" stroke="#dddeee" points="393.29,-330 299.29,-330 299.29,-294 393.29,-294 393.29,-330"/>
<text text-anchor="middle" x="346.29" y="-308.3" font-family="Times,serif" font-size="14.00">PublicContent</text>
</a>
</g>
</g>
</g>
</svg>
