<?xml version="1.0" encoding="UTF-8" standalone="no"?>
<!DOCTYPE svg PUBLIC "-//W3C//DTD SVG 1.1//EN"
 "http://www.w3.org/Graphics/SVG/1.1/DTD/svg11.dtd">
<!-- Generated by graphviz version 2.50.0 (20211204.2007)
 -->
<!-- Title: Content Pages: 1 -->
<svg width="711pt" height="708pt"
 viewBox="0.00 0.00 711.29 708.00" xmlns="http://www.w3.org/2000/svg" xmlns:xlink="http://www.w3.org/1999/xlink">
<g id="graph0" class="graph" transform="scale(1 1) rotate(0) translate(4 704)">
<title>Content</title>
<polygon fill="white" stroke="transparent" points="-4,4 -4,-704 707.29,-704 707.29,4 -4,4"/>
<text text-anchor="middle" x="351.64" y="-22.8" font-family="Times,serif" font-size="14.00">Algorithmically generated relationships for Content based on assertions of &#39;has_many&#39;, &#39;has_one&#39;, &#39;belongs_to&#39;. </text>
<text text-anchor="middle" x="351.64" y="-7.8" font-family="Times,serif" font-size="14.00">Generated 2022&#45;01&#45;25 11:43:07 &#45;0600.</text>
<!-- Citation&#45;&gt;Source -->
<g id="edge10" class="edge">
<title>Citation&#45;&gt;Source</title>
<path fill="none" stroke="black" d="M98.3,-627C153.51,-627 254.93,-627 309.04,-627"/>
<polygon fill="black" stroke="black" points="309.21,-630.5 319.21,-627 309.21,-623.5 309.21,-630.5"/>
</g>
<!-- Citation&#45;&gt;CitationTopic -->
<g id="edge1" class="edge">
<title>Citation&#45;&gt;CitationTopic</title>
<path fill="none" stroke="black" d="M90.02,-638.13C108.07,-644.85 131.63,-653.63 152.93,-661.56"/>
<polygon fill="black" stroke="black" points="151.94,-664.93 162.53,-665.14 154.38,-658.37 151.94,-664.93"/>
</g>
<!-- Confidence&#45;&gt;ConfidenceLevel -->
<g id="edge3" class="edge">
<title>Confidence&#45;&gt;ConfidenceLevel</title>
<path fill="none" stroke="black" d="M110.13,-346.66C120.96,-346.59 132.55,-346.51 143.82,-346.43"/>
<polygon fill="black" stroke="black" points="144.09,-349.93 154.06,-346.36 144.04,-342.93 144.09,-349.93"/>
</g>
<!-- Depiction&#45;&gt;Image -->
<g id="edge7" class="edge">
<title>Depiction&#45;&gt;Image</title>
<path fill="none" stroke="black" d="M104.84,-292.7C126.24,-292.55 151.52,-292.38 171.67,-292.24"/>
<polygon fill="black" stroke="black" points="171.72,-295.74 181.7,-292.18 171.67,-288.74 171.72,-295.74"/>
</g>
<!-- Source&#45;&gt;SubsequentCitation -->
<!-- Source&#45;&gt;OriginCitation -->
<!-- Content&#45;&gt;Citation -->
<g id="edge2" class="edge">
<title>Content&#45;&gt;Citation</title>
<path fill="none" stroke="black" d="M193.2,-426.04C165.69,-467.59 106.29,-557.3 77.07,-601.43"/>
<polygon fill="black" stroke="black" points="74.09,-599.6 71.49,-609.87 79.92,-603.47 74.09,-599.6"/>
</g>
<!-- Content&#45;&gt;Confidence -->
<g id="edge4" class="edge">
<title>Content&#45;&gt;Confidence</title>
<path fill="none" stroke="black" d="M171.75,-390.09C151.12,-382.12 125.08,-372.07 103.35,-363.68"/>
<polygon fill="black" stroke="black" points="104.61,-360.41 94.02,-360.08 102.09,-366.94 104.61,-360.41"/>
</g>
<!-- Content&#45;&gt;DataAttribute -->
<g id="edge5" class="edge">
<title>Content&#45;&gt;DataAttribute</title>
<path fill="none" stroke="black" d="M163.07,-403.39C152.21,-403.25 140.36,-403.09 128.68,-402.93"/>
<polygon fill="black" stroke="black" points="128.54,-399.43 118.5,-402.79 128.45,-406.43 128.54,-399.43"/>
</g>
<!-- Content&#45;&gt;Depiction -->
<g id="edge6" class="edge">
<title>Content&#45;&gt;Depiction</title>
<path fill="none" stroke="black" d="M175.61,-388.49C168.16,-384.07 160.58,-378.85 154.29,-373 133.45,-353.6 139.99,-338.44 118.29,-320 113.67,-316.08 108.39,-312.6 102.93,-309.56"/>
<polygon fill="black" stroke="black" points="104.17,-306.26 93.67,-304.85 100.99,-312.5 104.17,-306.26"/>
</g>
<!-- Content&#45;&gt;Attribution -->
<g id="edge23" class="edge">
<title>Content&#45;&gt;Attribution</title>
<path fill="none" stroke="black" stroke-dasharray="1,5" d="M160.93,-420.5C139.74,-427.97 115.11,-436.64 95.51,-443.54"/>
<polygon fill="black" stroke="black" points="162.12,-423.79 170.39,-417.17 159.8,-417.19 162.12,-423.79"/>
</g>
<!-- Content&#45;&gt;Source -->
<g id="edge26" class="edge">
<title>Content&#45;&gt;Source</title>
<path fill="none" stroke="black" stroke-dasharray="1,5" d="M219.22,-435.78C232.29,-475.92 258.96,-545.57 299.29,-594 304.82,-600.65 311.99,-606.62 319.01,-611.6"/>
<polygon fill="black" stroke="black" points="222.55,-434.72 216.19,-426.25 215.88,-436.84 222.55,-434.72"/>
</g>
<!-- Content&#45;&gt;Otu -->
<g id="edge19" class="edge">
<title>Content&#45;&gt;Otu</title>
<path fill="none" stroke="black" stroke-dasharray="5,2" d="M251.98,-383.64C256.16,-380.48 260.04,-376.94 263.29,-373 294.4,-335.26 268.59,-307.08 299.29,-269 304.57,-262.45 311.82,-257.04 319.01,-252.79"/>
<polygon fill="black" stroke="black" points="250.01,-380.75 243.69,-389.25 253.94,-386.55 250.01,-380.75"/>
</g>
<!-- Content&#45;&gt;PinboardItem -->
<g id="edge8" class="edge">
<title>Content&#45;&gt;PinboardItem</title>
<path fill="none" stroke="black" d="M244.9,-389.78C251.98,-385.39 258.66,-379.85 263.29,-373 326.59,-279.23 227.14,-208.15 299.29,-121 308.29,-110.13 381.92,-87.01 434.82,-71.48"/>
<polygon fill="black" stroke="black" points="435.81,-74.83 444.43,-68.67 433.85,-68.11 435.81,-74.83"/>
</g>
<!-- Content&#45;&gt;Role -->
<g id="edge9" class="edge">
<title>Content&#45;&gt;Role</title>
<path fill="none" stroke="black" d="M241.86,-388.36C249.31,-383.95 256.92,-378.77 263.29,-373 283.59,-354.62 279.05,-341.44 299.29,-323 302.69,-319.9 306.51,-316.99 310.45,-314.3"/>
<polygon fill="black" stroke="black" points="312.57,-317.1 319.16,-308.81 308.84,-311.18 312.57,-317.1"/>
</g>
<!-- Content&#45;&gt;SubsequentCitation -->
<g id="edge11" class="edge">
<title>Content&#45;&gt;SubsequentCitation</title>
<path fill="none" stroke="black" d="M218.02,-426.05C230.81,-457.51 258.34,-515.2 299.29,-549 333.63,-577.34 380.29,-595.24 418.78,-606.1"/>
<polygon fill="black" stroke="black" points="418.32,-609.6 428.89,-608.85 420.16,-602.85 418.32,-609.6"/>
</g>
<!-- Content&#45;&gt;Topic -->
<g id="edge21" class="edge">
<title>Content&#45;&gt;Topic</title>
<path fill="none" stroke="black" stroke-dasharray="5,2" d="M214.12,-436.51C222.43,-488.02 244.91,-589.28 299.29,-655 304.6,-661.42 311.87,-666.66 319.05,-670.76"/>
<polygon fill="black" stroke="black" points="217.53,-435.66 212.55,-426.3 210.61,-436.72 217.53,-435.66"/>
</g>
<!-- Content&#45;&gt;VerifierRole -->
<g id="edge14" class="edge">
<title>Content&#45;&gt;VerifierRole</title>
<path fill="none" stroke="black" d="M254.53,-404C267.31,-404 281.32,-404 294.43,-404"/>
<polygon fill="black" stroke="black" points="294.71,-407.5 304.71,-404 294.71,-400.5 294.71,-407.5"/>
</g>
<!-- Content&#45;&gt;Version -->
<g id="edge16" class="edge">
<title>Content&#45;&gt;Version</title>
<path fill="none" stroke="black" d="M244.98,-389.83C252.06,-385.44 258.72,-379.89 263.29,-373 333.86,-266.6 233.18,-197.22 299.29,-88 301.86,-83.75 305.24,-79.92 309,-76.52"/>
<polygon fill="black" stroke="black" points="311.42,-79.06 317.11,-70.12 307.09,-73.57 311.42,-79.06"/>
</g>
<!-- Content&#45;&gt;Creator -->
<g id="edge17" class="edge">
<title>Content&#45;&gt;Creator</title>
<path fill="none" stroke="black" stroke-dasharray="5,2" d="M252.9,-383.62C256.81,-380.49 260.38,-376.96 263.29,-373 306.44,-314.25 250.61,-267.25 299.29,-213 310.46,-200.54 411.75,-170.21 461.7,-155.82"/>
<polygon fill="black" stroke="black" points="250.69,-380.9 244.5,-389.5 254.7,-386.63 250.69,-380.9"/>
</g>
<!-- Content&#45;&gt;Language -->
<g id="edge18" class="edge">
<title>Content&#45;&gt;Language</title>
<path fill="none" stroke="black" stroke-dasharray="5,2" d="M254.7,-421.9C272.99,-429.19 293.8,-437.48 310.86,-444.28"/>
<polygon fill="black" stroke="black" points="255.98,-418.64 245.39,-418.19 253.38,-425.14 255.98,-418.64"/>
</g>
<!-- Content&#45;&gt;Project -->
<g id="edge20" class="edge">
<title>Content&#45;&gt;Project</title>
<path fill="none" stroke="black" stroke-dasharray="5,2" d="M253.05,-383.73C256.93,-380.57 260.46,-377.01 263.29,-373 313.63,-301.73 251.93,-253.29 299.29,-180 304.04,-172.65 311.14,-166.51 318.34,-161.64"/>
<polygon fill="black" stroke="black" points="250.84,-381 244.69,-389.63 254.87,-386.72 250.84,-381"/>
</g>
<!-- Content&#45;&gt;Updater -->
<g id="edge22" class="edge">
<title>Content&#45;&gt;Updater</title>
<path fill="none" stroke="black" stroke-dasharray="5,2" d="M232.64,-433.75C248.92,-452.37 272.6,-474.71 299.29,-485 338.27,-500.02 353.38,-497.34 393.29,-485 474.56,-459.88 497.9,-443.22 551.29,-377 605.29,-310.02 631.75,-207.49 640.69,-166.18"/>
<polygon fill="black" stroke="black" points="235.25,-431.42 226.13,-426.04 229.91,-435.94 235.25,-431.42"/>
</g>
<!-- Content&#45;&gt;OriginCitation -->
<g id="edge24" class="edge">
<title>Content&#45;&gt;OriginCitation</title>
<path fill="none" stroke="black" stroke-dasharray="1,5" d="M226.07,-435C241.45,-461.17 266.95,-497.55 299.29,-518 342.88,-545.57 401.96,-555.55 442.61,-559.12"/>
<polygon fill="black" stroke="black" points="229.06,-433.17 221.06,-426.21 222.98,-436.63 229.06,-433.17"/>
</g>
<!-- Content&#45;&gt;PublicContent -->
<g id="edge25" class="edge">
<title>Content&#45;&gt;PublicContent</title>
<path fill="none" stroke="black" stroke-dasharray="1,5" d="M254.69,-386.11C269.24,-380.31 285.38,-373.88 299.96,-368.06"/>
<polygon fill="black" stroke="black" points="253.38,-382.86 245.39,-389.81 255.98,-389.36 253.38,-382.86"/>
</g>
<!-- CitationTopic&#45;&gt;Topic -->
<g id="edge13" class="edge">
<title>CitationTopic&#45;&gt;Topic</title>
<path fill="none" stroke="black" d="M254.91,-682C272.34,-682 292.03,-682 308.57,-682"/>
<polygon fill="black" stroke="black" points="308.93,-685.5 318.93,-682 308.93,-678.5 308.93,-685.5"/>
</g>
<!-- Role&#45;&gt;Verifier -->
<!-- SubsequentCitation&#45;&gt;SubsequentSource -->
<g id="edge12" class="edge">
<title>SubsequentCitation&#45;&gt;SubsequentSource</title>
<path fill="none" stroke="black" d="M551.32,-621C559.65,-621 568.26,-621 576.72,-621"/>
<polygon fill="black" stroke="black" points="576.93,-624.5 586.93,-621 576.93,-617.5 576.93,-624.5"/>
</g>
<!-- VerifierRole&#45;&gt;Verifier -->
<g id="edge15" class="edge">
<title>VerifierRole&#45;&gt;Verifier</title>
<path fill="none" stroke="black" d="M387.98,-388.53C408.17,-380.85 432.39,-371.64 452.08,-364.15"/>
<polygon fill="black" stroke="black" points="453.53,-367.34 461.64,-360.52 451.05,-360.8 453.53,-367.34"/>
</g>
<!-- Version&#45;&gt;PinboardItem -->
<!-- Creator&#45;&gt;Updater -->
<!-- Project&#45;&gt;Creator -->
<!-- Citation -->
<g id="node1" class="node">
<title>Citation</title>
<g id="a_node1"><a xlink:href="/develop/Data/models.html#citation" xlink:title="Citation" target="_top">
<ellipse fill="#abcdef" stroke="#dddeee" cx="59.14" cy="-627" rx="38.99" ry="18"/>
<text text-anchor="middle" x="59.14" y="-623.3" font-family="Times,serif" font-size="14.00">Citation</text>
</a>
</g>
</g>
<!-- Confidence -->
<g id="node2" class="node">
<title>Confidence</title>
<g id="a_node2"><a xlink:href="/develop/Data/models.html#confidence" xlink:title="Confidence" target="_top">
<ellipse fill="#abcdef" stroke="#dddeee" cx="59.14" cy="-347" rx="50.89" ry="18"/>
<text text-anchor="middle" x="59.14" y="-343.3" font-family="Times,serif" font-size="14.00">Confidence</text>
</a>
</g>
</g>
<!-- DataAttribute -->
<g id="node3" class="node">
<title>DataAttribute</title>
<g id="a_node3"><a xlink:href="/develop/Data/models.html#data-attribute" xlink:title="DataAttribute" target="_top">
<ellipse fill="#abcdef" stroke="#dddeee" cx="59.14" cy="-402" rx="59.29" ry="18"/>
<text text-anchor="middle" x="59.14" y="-398.3" font-family="Times,serif" font-size="14.00">DataAttribute</text>
</a>
</g>
</g>
<!-- Depiction -->
<g id="node4" class="node">
<title>Depiction</title>
<g id="a_node4"><a xlink:href="/develop/Data/models.html#depiction" xlink:title="Depiction" target="_top">
<ellipse fill="#abcdef" stroke="#dddeee" cx="59.14" cy="-293" rx="45.49" ry="18"/>
<text text-anchor="middle" x="59.14" y="-289.3" font-family="Times,serif" font-size="14.00">Depiction</text>
</a>
</g>
</g>
<!-- Attribution -->
<g id="node5" class="node">
<title>Attribution</title>
<g id="a_node5"><a xlink:href="/develop/Data/models.html#attribution" xlink:title="Attribution" target="_top">
<ellipse fill="#abcdef" stroke="#dddeee" cx="59.14" cy="-456" rx="50.09" ry="18"/>
<text text-anchor="middle" x="59.14" y="-452.3" font-family="Times,serif" font-size="14.00">Attribution</text>
</a>
</g>
</g>
<!-- Source -->
<g id="node6" class="node">
<title>Source</title>
<g id="a_node6"><a xlink:href="/develop/Data/models.html#source" xlink:title="Source" target="_top">
<path fill="#fedcba" stroke="#dddeee" d="M331.29,-609C331.29,-609 361.29,-609 361.29,-609 367.29,-609 373.29,-615 373.29,-621 373.29,-621 373.29,-633 373.29,-633 373.29,-639 367.29,-645 361.29,-645 361.29,-645 331.29,-645 331.29,-645 325.29,-645 319.29,-639 319.29,-633 319.29,-633 319.29,-621 319.29,-621 319.29,-615 325.29,-609 331.29,-609"/>
<text text-anchor="middle" x="346.29" y="-623.3" font-family="Times,serif" font-size="14.00">Source</text>
</a>
</g>
</g>
<!-- Otu -->
<g id="node7" class="node">
<title>Otu</title>
<g id="a_node7"><a xlink:href="/develop/Data/models.html#otu" xlink:title="Otu" target="_top">
<path fill="#fedcba" stroke="#dddeee" d="M331.29,-223C331.29,-223 361.29,-223 361.29,-223 367.29,-223 373.29,-229 373.29,-235 373.29,-235 373.29,-247 373.29,-247 373.29,-253 367.29,-259 361.29,-259 361.29,-259 331.29,-259 331.29,-259 325.29,-259 319.29,-253 319.29,-247 319.29,-247 319.29,-235 319.29,-235 319.29,-229 325.29,-223 331.29,-223"/>
<text text-anchor="middle" x="346.29" y="-237.3" font-family="Times,serif" font-size="14.00">Otu</text>
</a>
</g>
</g>
<!-- Content -->
<g id="node8" class="node">
<title>Content</title>
<g id="a_node8"><a xlink:href="/develop/Data/models.html#content" xlink:title="Content" target="_top">
<polygon fill="#cdefab" stroke="#dedede" points="250.3,-396.54 250.3,-411.46 225.98,-422 191.59,-422 167.28,-411.46 167.28,-396.54 191.59,-386 225.98,-386 250.3,-396.54"/>
<polygon fill="none" stroke="#dedede" points="254.3,-393.92 254.3,-414.08 226.81,-426 190.76,-426 163.28,-414.08 163.28,-393.92 190.76,-382 226.81,-382 254.3,-393.92"/>
<text text-anchor="middle" x="208.79" y="-400.3" font-family="Times,serif" font-size="14.00">Content</text>
</a>
</g>
</g>
<!-- CitationTopic -->
<g id="node9" class="node">
<title>CitationTopic</title>
<g id="a_node9"><a xlink:href="/develop/Data/models.html#citation-topic" xlink:title="CitationTopic" target="_top">
<polygon fill="#eeefff" stroke="#dddeee" points="254.79,-700 162.79,-700 162.79,-664 254.79,-664 254.79,-700"/>
<text text-anchor="middle" x="208.79" y="-678.3" font-family="Times,serif" font-size="14.00">CitationTopic</text>
</a>
</g>
</g>
<!-- ConfidenceLevel -->
<g id="node10" class="node">
<title>ConfidenceLevel</title>
<g id="a_node10"><a xlink:href="/develop/Data/models.html#confidence-level" xlink:title="ConfidenceLevel" target="_top">
<polygon fill="#eeefff" stroke="#dddeee" points="263.29,-364 154.29,-364 154.29,-328 263.29,-328 263.29,-364"/>
<text text-anchor="middle" x="208.79" y="-342.3" font-family="Times,serif" font-size="14.00">ConfidenceLevel</text>
</a>
</g>
</g>
<!-- Image -->
<g id="node11" class="node">
<title>Image</title>
<g id="a_node11"><a xlink:href="/develop/Data/models.html#image" xlink:title="Image" target="_top">
<polygon fill="#eeefff" stroke="#dddeee" points="235.79,-310 181.79,-310 181.79,-274 235.79,-274 235.79,-310"/>
<text text-anchor="middle" x="208.79" y="-288.3" font-family="Times,serif" font-size="14.00">Image</text>
</a>
</g>
</g>
<!-- PinboardItem -->
<g id="node12" class="node">
<title>PinboardItem</title>
<g id="a_node12"><a xlink:href="/develop/Data/models.html#pinboard-item" xlink:title="PinboardItem" target="_top">
<polygon fill="#eeefff" stroke="#dddeee" points="535.79,-74 444.79,-74 444.79,-38 535.79,-38 535.79,-74"/>
<text text-anchor="middle" x="490.29" y="-52.3" font-family="Times,serif" font-size="14.00">PinboardItem</text>
</a>
</g>
</g>
<!-- Role -->
<g id="node13" class="node">
<title>Role</title>
<g id="a_node13"><a xlink:href="/develop/Data/models.html#role" xlink:title="Role" target="_top">
<polygon fill="#eeefff" stroke="#dddeee" points="373.29,-314 319.29,-314 319.29,-278 373.29,-278 373.29,-314"/>
<text text-anchor="middle" x="346.29" y="-292.3" font-family="Times,serif" font-size="14.00">Role</text>
</a>
</g>
</g>
<!-- SubsequentCitation -->
<g id="node14" class="node">
<title>SubsequentCitation</title>
<g id="a_node14"><a xlink:href="/develop/Data/models.html#subsequent-citation" xlink:title="SubsequentCitation" target="_top">
<polygon fill="#eeefff" stroke="#dddeee" points="551.29,-639 429.29,-639 429.29,-603 551.29,-603 551.29,-639"/>
<text text-anchor="middle" x="490.29" y="-617.3" font-family="Times,serif" font-size="14.00">SubsequentCitation</text>
</a>
</g>
</g>
<!-- SubsequentSource -->
<g id="node15" class="node">
<title>SubsequentSource</title>
<g id="a_node15"><a xlink:href="/develop/Data/models.html#subsequent-source" xlink:title="SubsequentSource" target="_top">
<polygon fill="#eeefff" stroke="#dddeee" points="703.29,-639 587.29,-639 587.29,-603 703.29,-603 703.29,-639"/>
<text text-anchor="middle" x="645.29" y="-617.3" font-family="Times,serif" font-size="14.00">SubsequentSource</text>
</a>
</g>
</g>
<!-- Topic -->
<g id="node16" class="node">
<title>Topic</title>
<g id="a_node16"><a xlink:href="/develop/Data/models.html#topic" xlink:title="Topic" target="_top">
<polygon fill="#eeefff" stroke="#dddeee" points="373.29,-700 319.29,-700 319.29,-664 373.29,-664 373.29,-700"/>
<text text-anchor="middle" x="346.29" y="-678.3" font-family="Times,serif" font-size="14.00">Topic</text>
</a>
</g>
</g>
<!-- VerifierRole -->
<g id="node17" class="node">
<title>VerifierRole</title>
<g id="a_node17"><a xlink:href="/develop/Data/models.html#verifier-role" xlink:title="VerifierRole" target="_top">
<polygon fill="#eeefff" stroke="#dddeee" points="387.79,-422 304.79,-422 304.79,-386 387.79,-386 387.79,-422"/>
<text text-anchor="middle" x="346.29" y="-400.3" font-family="Times,serif" font-size="14.00">VerifierRole</text>
</a>
</g>
</g>
<!-- Verifier -->
<g id="node18" class="node">
<title>Verifier</title>
<g id="a_node18"><a xlink:href="/develop/Data/models.html#verifier" xlink:title="Verifier" target="_top">
<polygon fill="#eeefff" stroke="#dddeee" points="518.79,-368 461.79,-368 461.79,-332 518.79,-332 518.79,-368"/>
<text text-anchor="middle" x="490.29" y="-346.3" font-family="Times,serif" font-size="14.00">Verifier</text>
</a>
</g>
</g>
<!-- Version -->
<g id="node19" class="node">
<title>Version</title>
<g id="a_node19"><a xlink:href="/develop/Data/models.html#version" xlink:title="Version" target="_top">
<polygon fill="#eeefff" stroke="#dddeee" points="375.29,-74 317.29,-74 317.29,-38 375.29,-38 375.29,-74"/>
<text text-anchor="middle" x="346.29" y="-52.3" font-family="Times,serif" font-size="14.00">Version</text>
</a>
</g>
</g>
<!-- Creator -->
<g id="node20" class="node">
<title>Creator</title>
<g id="a_node20"><a xlink:href="/develop/Data/models.html#creator" xlink:title="Creator" target="_top">
<polygon fill="#eeefff" stroke="#dddeee" points="518.79,-166 461.79,-166 461.79,-130 518.79,-130 518.79,-166"/>
<text text-anchor="middle" x="490.29" y="-144.3" font-family="Times,serif" font-size="14.00">Creator</text>
</a>
</g>
</g>
<!-- Language -->
<g id="node21" class="node">
<title>Language</title>
<g id="a_node21"><a xlink:href="/develop/Data/models.html#language" xlink:title="Language" target="_top">
<polygon fill="#eeefff" stroke="#dddeee" points="381.29,-476 311.29,-476 311.29,-440 381.29,-440 381.29,-476"/>
<text text-anchor="middle" x="346.29" y="-454.3" font-family="Times,serif" font-size="14.00">Language</text>
</a>
</g>
</g>
<!-- Project -->
<g id="node22" class="node">
<title>Project</title>
<g id="a_node22"><a xlink:href="/develop/Data/models.html#project" xlink:title="Project" target="_top">
<polygon fill="#eeefff" stroke="#dddeee" points="373.79,-166 318.79,-166 318.79,-130 373.79,-130 373.79,-166"/>
<text text-anchor="middle" x="346.29" y="-144.3" font-family="Times,serif" font-size="14.00">Project</text>
</a>
</g>
</g>
<!-- Updater -->
<g id="node23" class="node">
<title>Updater</title>
<g id="a_node23"><a xlink:href="/develop/Data/models.html#updater" xlink:title="Updater" target="_top">
<polygon fill="#eeefff" stroke="#dddeee" points="675.29,-166 615.29,-166 615.29,-130 675.29,-130 675.29,-166"/>
<text text-anchor="middle" x="645.29" y="-144.3" font-family="Times,serif" font-size="14.00">Updater</text>
</a>
</g>
</g>
<!-- OriginCitation -->
<g id="node24" class="node">
<title>OriginCitation</title>
<g id="a_node24"><a xlink:href="/develop/Data/models.html#origin-citation" xlink:title="OriginCitation" target="_top">
<polygon fill="#eeefff" stroke="#dddeee" points="537.79,-579 442.79,-579 442.79,-543 537.79,-543 537.79,-579"/>
<text text-anchor="middle" x="490.29" y="-557.3" font-family="Times,serif" font-size="14.00">OriginCitation</text>
</a>
</g>
</g>
<!-- PublicContent -->
<g id="node25" class="node">
<title>PublicContent</title>
<g id="a_node25"><a xlink:href="/develop/Data/models.html#public-content" xlink:title="PublicContent" target="_top">
<polygon fill="#eeefff" stroke="#dddeee" points="393.29,-368 299.29,-368 299.29,-332 393.29,-332 393.29,-368"/>
<text text-anchor="middle" x="346.29" y="-346.3" font-family="Times,serif" font-size="14.00">PublicContent</text>
</a>
</g>
</g>
</g>
</svg>
