<?xml version="1.0" encoding="UTF-8" standalone="no"?>
<!DOCTYPE svg PUBLIC "-//W3C//DTD SVG 1.1//EN"
 "http://www.w3.org/Graphics/SVG/1.1/DTD/svg11.dtd">
<!-- Generated by graphviz version 12.2.1 (20241206.2353)
 -->
<!-- Title: ContainerItem Pages: 1 -->
<svg width="724pt" height="552pt"
 viewBox="0.00 0.00 724.45 552.00" xmlns="http://www.w3.org/2000/svg" xmlns:xlink="http://www.w3.org/1999/xlink">
<g id="graph0" class="graph" transform="scale(1 1) rotate(0) translate(4 548)">
<title>ContainerItem</title>
<polygon fill="white" stroke="none" points="-4,4 -4,-548 720.45,-548 720.45,4 -4,4"/>
<!-- ContainerItem&#45;&gt;AncestorHierarchy -->
<g id="edge1" class="edge">
<title>ContainerItem&#45;&gt;AncestorHierarchy</title>
<path fill="none" stroke="black" d="M78.08,-278.26C86.04,-326.67 111.94,-441.75 183.97,-499 202.96,-514.09 228,-521.52 251.51,-524.97"/>
<polygon fill="black" stroke="black" points="251.04,-528.44 261.39,-526.18 251.89,-521.49 251.04,-528.44"/>
</g>
<!-- ContainerItem&#45;&gt;Child -->
<g id="edge2" class="edge">
<title>ContainerItem&#45;&gt;Child</title>
<path fill="none" stroke="black" d="M81.12,-278.23C93.42,-318.42 125.13,-402.92 183.97,-445 213.14,-465.86 254.31,-471.65 283.99,-472.81"/>
<polygon fill="black" stroke="black" points="283.56,-476.3 293.63,-473.01 283.71,-469.3 283.56,-476.3"/>
</g>
<!-- ContainerItem&#45;&gt;DescendantHierarchy -->
<g id="edge3" class="edge">
<title>ContainerItem&#45;&gt;DescendantHierarchy</title>
<path fill="none" stroke="black" d="M86.39,-278.25C103.3,-308.86 138.06,-363.31 183.97,-391 201.99,-401.87 223.52,-408.47 244.14,-412.46"/>
<polygon fill="black" stroke="black" points="243.53,-415.9 253.98,-414.15 244.72,-409 243.53,-415.9"/>
</g>
<!-- ContainerItem&#45;&gt;PinboardItem -->
<g id="edge4" class="edge">
<title>ContainerItem&#45;&gt;PinboardItem</title>
<path fill="none" stroke="black" d="M98.52,-278.43C119.35,-297 151.42,-322.6 183.97,-337 209.65,-348.36 240.12,-354.96 265.84,-358.79"/>
<polygon fill="black" stroke="black" points="265.04,-362.21 275.42,-360.11 265.99,-355.28 265.04,-362.21"/>
</g>
<!-- ContainerItem&#45;&gt;Role -->
<g id="edge5" class="edge">
<title>ContainerItem&#45;&gt;Role</title>
<path fill="none" stroke="black" d="M132.84,-270.89C149.32,-274.98 167.32,-279.3 183.97,-283 217.63,-290.47 256.17,-297.95 283.86,-303.13"/>
<polygon fill="black" stroke="black" points="283.06,-306.54 293.53,-304.93 284.34,-299.66 283.06,-306.54"/>
</g>
<!-- ContainerItem&#45;&gt;VerifierRole -->
<g id="edge8" class="edge">
<title>ContainerItem&#45;&gt;VerifierRole</title>
<path fill="none" stroke="black" d="M148.27,-256C187.15,-256 234.02,-256 269.2,-256"/>
<polygon fill="black" stroke="black" points="269.13,-259.5 279.13,-256 269.13,-252.5 269.13,-259.5"/>
</g>
<!-- ContainerItem&#45;&gt;Creator -->
<g id="edge11" class="edge">
<title>ContainerItem&#45;&gt;Creator</title>
<path fill="none" stroke="black" stroke-dasharray="5,2" d="M142.4,-238.11C156.1,-234.81 170.45,-231.59 183.97,-229 306,-205.58 347.29,-241.22 460.95,-191 493.86,-176.46 524.41,-147.31 542.12,-128.23"/>
<polygon fill="black" stroke="black" points="141.93,-234.62 133.05,-240.4 143.6,-241.42 141.93,-234.62"/>
</g>
<!-- ContainerItem&#45;&gt;Parent -->
<g id="edge12" class="edge">
<title>ContainerItem&#45;&gt;Parent</title>
<path fill="none" stroke="black" stroke-dasharray="5,2" d="M117.55,-229C137.17,-217.51 161.13,-204.75 183.97,-196 221.27,-181.7 266.81,-172.64 294.98,-167.94"/>
<polygon fill="black" stroke="black" points="115.8,-225.97 109.01,-234.1 119.39,-231.98 115.8,-225.97"/>
</g>
<!-- ContainerItem&#45;&gt;Project -->
<g id="edge13" class="edge">
<title>ContainerItem&#45;&gt;Project</title>
<path fill="none" stroke="black" stroke-dasharray="5,2" d="M95.24,-224.36C114.61,-196.82 146.39,-158.1 183.97,-137 218.97,-117.35 265.97,-111.81 294.96,-110.36"/>
<polygon fill="black" stroke="black" points="92.54,-222.12 89.77,-232.34 98.31,-226.07 92.54,-222.12"/>
</g>
<!-- ContainerItem&#45;&gt;Updater -->
<g id="edge14" class="edge">
<title>ContainerItem&#45;&gt;Updater</title>
<path fill="none" stroke="black" stroke-dasharray="5,2" d="M84.92,-222.75C99.26,-181.42 130.14,-112.71 183.97,-83 268.99,-36.08 525.73,-63.94 620.95,-83 633.01,-85.41 645.63,-90.13 656.5,-94.95"/>
<polygon fill="black" stroke="black" points="81.61,-221.59 81.78,-232.19 88.26,-223.8 81.61,-221.59"/>
</g>
<!-- ContainerItem&#45;&gt;Objects with Container items -->
<g id="edge10" class="edge">
<title>ContainerItem&#45;&gt;Objects with Container items</title>
<path fill="none" stroke="black" stroke-dasharray="5,2" d="M83.2,-222.82C96.38,-176.73 126.8,-94.05 183.97,-50 196.11,-40.65 210.51,-33.96 225.35,-29.19"/>
<polygon fill="black" stroke="black" points="79.88,-221.67 80.61,-232.24 86.63,-223.53 79.88,-221.67"/>
</g>
<!-- AncestorHierarchy&#45;&gt;SelfAndAncestor -->
<g id="edge6" class="edge">
<title>AncestorHierarchy&#45;&gt;SelfAndAncestor</title>
<path fill="none" stroke="black" stroke-dasharray="1,5" d="M382.33,-526C415.85,-526 457.91,-526 492.47,-526"/>
<polygon fill="black" stroke="black" points="492.36,-529.5 502.36,-526 492.36,-522.5 492.36,-529.5"/>
</g>
<!-- DescendantHierarchy&#45;&gt;SelfAndDescendant -->
<g id="edge7" class="edge">
<title>DescendantHierarchy&#45;&gt;SelfAndDescendant</title>
<path fill="none" stroke="black" stroke-dasharray="1,5" d="M389.4,-418C419.19,-418 454.48,-418 485.05,-418"/>
<polygon fill="black" stroke="black" points="485.01,-421.5 495.01,-418 485.01,-414.5 485.01,-421.5"/>
</g>
<!-- Role&#45;&gt;Verifier -->
<!-- VerifierRole&#45;&gt;Verifier -->
<g id="edge9" class="edge">
<title>VerifierRole&#45;&gt;Verifier</title>
<path fill="none" stroke="black" stroke-dasharray="1,5" d="M364.3,-260.7C407.72,-265.7 475.9,-273.55 518.7,-278.48"/>
<polygon fill="black" stroke="black" points="518.22,-281.95 528.55,-279.62 519.02,-274.99 518.22,-281.95"/>
</g>
<!-- Creator&#45;&gt;Updater -->
<!-- Project&#45;&gt;Creator -->
<!-- ContainerItem -->
<g id="node1" class="node">
<title>ContainerItem</title>
<g id="a_node1"><a xlink:href="/develop/Data/models.html#container-item" xlink:title="ContainerItem" target="_top">
<polygon fill="#cdefab" stroke="#dedede" points="143.97,-248.54 143.97,-263.46 102.97,-274 45,-274 4,-263.46 4,-248.54 45,-238 102.97,-238 143.97,-248.54"/>
<polygon fill="none" stroke="#dedede" points="147.97,-245.44 147.97,-266.56 103.48,-278 44.49,-278 0,-266.56 0,-245.44 44.49,-234 103.48,-234 147.97,-245.44"/>
<text text-anchor="middle" x="73.99" y="-250.95" font-family="Times,serif" font-size="14.00">ContainerItem</text>
</a>
</g>
</g>
<!-- AncestorHierarchy -->
<g id="node2" class="node">
<title>AncestorHierarchy</title>
<g id="a_node2"><a xlink:href="/develop/Data/models.html#ancestor-hierarchy" xlink:title="AncestorHierarchy" target="_top">
<polygon fill="#eeefff" stroke="#dddeee" points="381.83,-544 263.08,-544 263.08,-508 381.83,-508 381.83,-544"/>
<text text-anchor="middle" x="322.46" y="-520.95" font-family="Times,serif" font-size="14.00">AncestorHierarchy</text>
</a>
</g>
</g>
<!-- Child -->
<g id="node3" class="node">
<title>Child</title>
<g id="a_node3"><a xlink:href="/develop/Data/models.html#child" xlink:title="Child" target="_top">
<polygon fill="#eeefff" stroke="#dddeee" points="349.46,-490 295.46,-490 295.46,-454 349.46,-454 349.46,-490"/>
<text text-anchor="middle" x="322.46" y="-466.95" font-family="Times,serif" font-size="14.00">Child</text>
</a>
</g>
</g>
<!-- DescendantHierarchy -->
<g id="node4" class="node">
<title>DescendantHierarchy</title>
<g id="a_node4"><a xlink:href="/develop/Data/models.html#descendant-hierarchy" xlink:title="DescendantHierarchy" target="_top">
<polygon fill="#eeefff" stroke="#dddeee" points="388.96,-436 255.96,-436 255.96,-400 388.96,-400 388.96,-436"/>
<text text-anchor="middle" x="322.46" y="-412.95" font-family="Times,serif" font-size="14.00">DescendantHierarchy</text>
</a>
</g>
</g>
<!-- PinboardItem -->
<g id="node5" class="node">
<title>PinboardItem</title>
<g id="a_node5"><a xlink:href="/develop/Data/models.html#pinboard-item" xlink:title="PinboardItem" target="_top">
<polygon fill="#eeefff" stroke="#dddeee" points="367.58,-382 277.33,-382 277.33,-346 367.58,-346 367.58,-382"/>
<text text-anchor="middle" x="322.46" y="-358.95" font-family="Times,serif" font-size="14.00">PinboardItem</text>
</a>
</g>
</g>
<!-- Role -->
<g id="node6" class="node">
<title>Role</title>
<g id="a_node6"><a xlink:href="/develop/Data/models.html#role" xlink:title="Role" target="_top">
<polygon fill="#eeefff" stroke="#dddeee" points="349.46,-328 295.46,-328 295.46,-292 349.46,-292 349.46,-328"/>
<text text-anchor="middle" x="322.46" y="-304.95" font-family="Times,serif" font-size="14.00">Role</text>
</a>
</g>
</g>
<!-- SelfAndAncestor -->
<g id="node7" class="node">
<title>SelfAndAncestor</title>
<g id="a_node7"><a xlink:href="/develop/Data/models.html#self-and-ancestor" xlink:title="SelfAndAncestor" target="_top">
<polygon fill="#eeefff" stroke="#dddeee" points="613.82,-544 504.07,-544 504.07,-508 613.82,-508 613.82,-544"/>
<text text-anchor="middle" x="558.95" y="-520.95" font-family="Times,serif" font-size="14.00">SelfAndAncestor</text>
</a>
</g>
</g>
<!-- SelfAndDescendant -->
<g id="node8" class="node">
<title>SelfAndDescendant</title>
<g id="a_node8"><a xlink:href="/develop/Data/models.html#self-and-descendant" xlink:title="SelfAndDescendant" target="_top">
<polygon fill="#eeefff" stroke="#dddeee" points="620.95,-436 496.95,-436 496.95,-400 620.95,-400 620.95,-436"/>
<text text-anchor="middle" x="558.95" y="-412.95" font-family="Times,serif" font-size="14.00">SelfAndDescendant</text>
</a>
</g>
</g>
<!-- VerifierRole -->
<g id="node9" class="node">
<title>VerifierRole</title>
<g id="a_node9"><a xlink:href="/develop/Data/models.html#verifier-role" xlink:title="VerifierRole" target="_top">
<polygon fill="#eeefff" stroke="#dddeee" points="363.83,-274 281.08,-274 281.08,-238 363.83,-238 363.83,-274"/>
<text text-anchor="middle" x="322.46" y="-250.95" font-family="Times,serif" font-size="14.00">VerifierRole</text>
</a>
</g>
</g>
<!-- Verifier -->
<g id="node10" class="node">
<title>Verifier</title>
<g id="a_node10"><a xlink:href="/develop/Data/models.html#verifier" xlink:title="Verifier" target="_top">
<polygon fill="#eeefff" stroke="#dddeee" points="587.57,-301 530.32,-301 530.32,-265 587.57,-265 587.57,-301"/>
<text text-anchor="middle" x="558.95" y="-277.95" font-family="Times,serif" font-size="14.00">Verifier</text>
</a>
</g>
</g>
<!-- Creator -->
<g id="node11" class="node">
<title>Creator</title>
<g id="a_node11"><a xlink:href="/develop/Data/models.html#creator" xlink:title="Creator" target="_top">
<polygon fill="#eeefff" stroke="#dddeee" points="587.2,-128 530.7,-128 530.7,-92 587.2,-92 587.2,-128"/>
<text text-anchor="middle" x="558.95" y="-104.95" font-family="Times,serif" font-size="14.00">Creator</text>
</a>
</g>
</g>
<!-- Parent -->
<g id="node12" class="node">
<title>Parent</title>
<g id="a_node12"><a xlink:href="/develop/Data/models.html#parent" xlink:title="Parent" target="_top">
<polygon fill="#eeefff" stroke="#dddeee" points="349.46,-182 295.46,-182 295.46,-146 349.46,-146 349.46,-182"/>
<text text-anchor="middle" x="322.46" y="-158.95" font-family="Times,serif" font-size="14.00">Parent</text>
</a>
</g>
</g>
<!-- Project -->
<g id="node13" class="node">
<title>Project</title>
<g id="a_node13"><a xlink:href="/develop/Data/models.html#project" xlink:title="Project" target="_top">
<polygon fill="#eeefff" stroke="#dddeee" points="349.58,-128 295.33,-128 295.33,-92 349.58,-92 349.58,-128"/>
<text text-anchor="middle" x="322.46" y="-104.95" font-family="Times,serif" font-size="14.00">Project</text>
</a>
</g>
</g>
<!-- Updater -->
<g id="node14" class="node">
<title>Updater</title>
<g id="a_node14"><a xlink:href="/develop/Data/models.html#updater" xlink:title="Updater" target="_top">
<polygon fill="#eeefff" stroke="#dddeee" points="716.45,-128 656.95,-128 656.95,-92 716.45,-92 716.45,-128"/>
<text text-anchor="middle" x="686.7" y="-104.95" font-family="Times,serif" font-size="14.00">Updater</text>
</a>
</g>
</g>
<!-- Objects with Container items -->
<g id="node15" class="node">
<title>Objects with Container items</title>
<g id="a_node15"><a xlink:href="/develop/Data/models.html#objects with container item" xlink:title="Objects with Container items" target="_top">
<polygon fill="#cdabef" stroke="#dedede" points="460.95,-18 391.7,-36 253.22,-36 183.97,-18 253.22,0 391.7,0 460.95,-18"/>
<text text-anchor="middle" x="322.46" y="-12.95" font-family="Times,serif" font-size="14.00">Objects with Container items</text>
</a>
</g>
</g>
</g>
</svg>
