<?xml version="1.0" encoding="UTF-8" standalone="no"?>
<!DOCTYPE svg PUBLIC "-//W3C//DTD SVG 1.1//EN"
 "http://www.w3.org/Graphics/SVG/1.1/DTD/svg11.dtd">
<!-- Generated by graphviz version 2.50.0 (20211204.2007)
 -->
<!-- Title: ContainerItem Pages: 1 -->
<svg width="707pt" height="552pt"
 viewBox="0.00 0.00 706.84 552.00" xmlns="http://www.w3.org/2000/svg" xmlns:xlink="http://www.w3.org/1999/xlink">
<g id="graph0" class="graph" transform="scale(1 1) rotate(0) translate(4 548)">
<title>ContainerItem</title>
<polygon fill="white" stroke="transparent" points="-4,4 -4,-548 702.84,-548 702.84,4 -4,4"/>
<!-- ContainerItem&#45;&gt;AncestorHierarchy -->
<g id="edge1" class="edge">
<title>ContainerItem&#45;&gt;AncestorHierarchy</title>
<path fill="none" stroke="black" d="M74.66,-278.2C82.05,-326.47 106.55,-441.31 177.66,-499 195.19,-513.22 218.28,-520.53 240.2,-524.14"/>
<polygon fill="black" stroke="black" points="239.77,-527.61 250.16,-525.55 240.75,-520.68 239.77,-527.61"/>
</g>
<!-- ContainerItem&#45;&gt;Child -->
<g id="edge2" class="edge">
<title>ContainerItem&#45;&gt;Child</title>
<path fill="none" stroke="black" d="M77.62,-278.16C89.32,-318.25 119.7,-402.58 177.66,-445 205.1,-465.08 243.99,-471.02 272.28,-472.43"/>
<polygon fill="black" stroke="black" points="272.45,-475.94 282.56,-472.77 272.68,-468.95 272.45,-475.94"/>
</g>
<!-- ContainerItem&#45;&gt;DescendantHierarchy -->
<g id="edge3" class="edge">
<title>ContainerItem&#45;&gt;DescendantHierarchy</title>
<path fill="none" stroke="black" d="M82.77,-278.19C99.04,-308.72 132.6,-363.09 177.66,-391 194.15,-401.21 213.82,-407.63 232.84,-411.65"/>
<polygon fill="black" stroke="black" points="232.23,-415.1 242.71,-413.54 233.55,-408.22 232.23,-415.1"/>
</g>
<!-- ContainerItem&#45;&gt;PinboardItem -->
<g id="edge4" class="edge">
<title>ContainerItem&#45;&gt;PinboardItem</title>
<path fill="none" stroke="black" d="M94.2,-278.01C114.36,-296.58 145.67,-322.4 177.66,-337 201.52,-347.89 229.83,-354.43 254.02,-358.33"/>
<polygon fill="black" stroke="black" points="253.7,-361.82 264.11,-359.85 254.74,-354.9 253.7,-361.82"/>
</g>
<!-- ContainerItem&#45;&gt;Role -->
<g id="edge5" class="edge">
<title>ContainerItem&#45;&gt;Role</title>
<path fill="none" stroke="black" d="M126.92,-270.57C143.22,-274.74 161.13,-279.19 177.66,-283 209.65,-290.37 246.24,-297.83 272.63,-303.03"/>
<polygon fill="black" stroke="black" points="272.07,-306.49 282.56,-304.98 273.42,-299.62 272.07,-306.49"/>
</g>
<!-- ContainerItem&#45;&gt;VerifierRole -->
<g id="edge8" class="edge">
<title>ContainerItem&#45;&gt;VerifierRole</title>
<path fill="none" stroke="black" d="M141.63,-256C178.87,-256 223.86,-256 257.78,-256"/>
<polygon fill="black" stroke="black" points="257.93,-259.5 267.93,-256 257.93,-252.5 257.93,-259.5"/>
</g>
<!-- ContainerItem&#45;&gt;Creator -->
<g id="edge11" class="edge">
<title>ContainerItem&#45;&gt;Creator</title>
<path fill="none" stroke="black" stroke-dasharray="5,2" d="M135.59,-238.56C149.4,-235.11 163.97,-231.72 177.66,-229 294,-205.86 333.43,-239.16 441.84,-191 474.82,-176.35 505.56,-147.23 523.39,-128.19"/>
<polygon fill="black" stroke="black" points="134.52,-235.22 125.69,-241.07 136.24,-242.01 134.52,-235.22"/>
</g>
<!-- ContainerItem&#45;&gt;Parent -->
<g id="edge12" class="edge">
<title>ContainerItem&#45;&gt;Parent</title>
<path fill="none" stroke="black" stroke-dasharray="5,2" d="M112.33,-229.54C131.51,-217.93 155.12,-204.94 177.66,-196 212.83,-182.05 255.8,-172.97 282.73,-168.16"/>
<polygon fill="black" stroke="black" points="110.25,-226.71 103.56,-234.93 113.92,-232.67 110.25,-226.71"/>
</g>
<!-- ContainerItem&#45;&gt;Project -->
<g id="edge13" class="edge">
<title>ContainerItem&#45;&gt;Project</title>
<path fill="none" stroke="black" stroke-dasharray="5,2" d="M90.85,-225.16C109.5,-197.63 140.5,-158.45 177.66,-137 210.36,-118.12 254.37,-112.33 282.15,-110.62"/>
<polygon fill="black" stroke="black" points="87.83,-223.38 85.23,-233.65 93.67,-227.24 87.83,-223.38"/>
</g>
<!-- ContainerItem&#45;&gt;Updater -->
<g id="edge14" class="edge">
<title>ContainerItem&#45;&gt;Updater</title>
<path fill="none" stroke="black" stroke-dasharray="5,2" d="M80.73,-224.16C94.14,-183.03 123.87,-113.15 177.66,-83 260.08,-36.8 510.18,-64.52 602.84,-83 614.94,-85.41 627.61,-90.13 638.52,-94.95"/>
<polygon fill="black" stroke="black" points="77.32,-223.37 77.67,-233.95 84,-225.45 77.32,-223.37"/>
</g>
<!-- ContainerItem&#45;&gt;Objects with Container items -->
<g id="edge10" class="edge">
<title>ContainerItem&#45;&gt;Objects with Container items</title>
<path fill="none" stroke="black" stroke-dasharray="5,2" d="M79.27,-224.08C91.64,-178.36 120.87,-94.79 177.66,-50 189.53,-40.64 203.73,-33.97 218.35,-29.22"/>
<polygon fill="black" stroke="black" points="75.88,-223.22 76.75,-233.78 82.66,-224.98 75.88,-223.22"/>
</g>
<!-- AncestorHierarchy&#45;&gt;SelfAndAncestor -->
<g id="edge6" class="edge">
<title>AncestorHierarchy&#45;&gt;SelfAndAncestor</title>
<path fill="none" stroke="black" stroke-dasharray="1,5" d="M369.32,-526C401.69,-526 441.95,-526 475.16,-526"/>
<polygon fill="black" stroke="black" points="475.23,-529.5 485.23,-526 475.23,-522.5 475.23,-529.5"/>
</g>
<!-- DescendantHierarchy&#45;&gt;SelfAndDescendant -->
<g id="edge7" class="edge">
<title>DescendantHierarchy&#45;&gt;SelfAndDescendant</title>
<path fill="none" stroke="black" stroke-dasharray="1,5" d="M376.87,-418C405.29,-418 438.58,-418 467.61,-418"/>
<polygon fill="black" stroke="black" points="467.68,-421.5 477.68,-418 467.68,-414.5 467.68,-421.5"/>
</g>
<!-- Role&#45;&gt;Verifier -->
<!-- VerifierRole&#45;&gt;Verifier -->
<g id="edge9" class="edge">
<title>VerifierRole&#45;&gt;Verifier</title>
<path fill="none" stroke="black" stroke-dasharray="1,5" d="M351.35,-260.8C393.93,-265.83 460.29,-273.66 501.72,-278.56"/>
<polygon fill="black" stroke="black" points="501.34,-282.04 511.68,-279.73 502.16,-275.08 501.34,-282.04"/>
</g>
<!-- Creator&#45;&gt;Updater -->
<!-- Project&#45;&gt;Creator -->
<!-- ContainerItem -->
<g id="node1" class="node">
<title>ContainerItem</title>
<g id="a_node1"><a xlink:href="/develop/Data/models.html#container-item" xlink:title="ContainerItem" target="_top">
<polygon fill="#cdefab" stroke="#dedede" points="137.51,-248.54 137.51,-263.46 98.45,-274 43.21,-274 4.16,-263.46 4.16,-248.54 43.21,-238 98.45,-238 137.51,-248.54"/>
<polygon fill="none" stroke="#dedede" points="141.5,-245.48 141.5,-266.52 98.98,-278 42.69,-278 0.17,-266.52 0.17,-245.48 42.69,-234 98.98,-234 141.5,-245.48"/>
<text text-anchor="middle" x="70.83" y="-252.3" font-family="Times,serif" font-size="14.00">ContainerItem</text>
</a>
</g>
</g>
<!-- AncestorHierarchy -->
<g id="node2" class="node">
<title>AncestorHierarchy</title>
<g id="a_node2"><a xlink:href="/develop/Data/models.html#ancestor-hierarchy" xlink:title="AncestorHierarchy" target="_top">
<polygon fill="#eeefff" stroke="#dddeee" points="369.25,-544 250.25,-544 250.25,-508 369.25,-508 369.25,-544"/>
<text text-anchor="middle" x="309.75" y="-522.3" font-family="Times,serif" font-size="14.00">AncestorHierarchy</text>
</a>
</g>
</g>
<!-- Child -->
<g id="node3" class="node">
<title>Child</title>
<g id="a_node3"><a xlink:href="/develop/Data/models.html#child" xlink:title="Child" target="_top">
<polygon fill="#eeefff" stroke="#dddeee" points="336.75,-490 282.75,-490 282.75,-454 336.75,-454 336.75,-490"/>
<text text-anchor="middle" x="309.75" y="-468.3" font-family="Times,serif" font-size="14.00">Child</text>
</a>
</g>
</g>
<!-- DescendantHierarchy -->
<g id="node4" class="node">
<title>DescendantHierarchy</title>
<g id="a_node4"><a xlink:href="/develop/Data/models.html#descendant-hierarchy" xlink:title="DescendantHierarchy" target="_top">
<polygon fill="#eeefff" stroke="#dddeee" points="376.75,-436 242.75,-436 242.75,-400 376.75,-400 376.75,-436"/>
<text text-anchor="middle" x="309.75" y="-414.3" font-family="Times,serif" font-size="14.00">DescendantHierarchy</text>
</a>
</g>
</g>
<!-- PinboardItem -->
<g id="node5" class="node">
<title>PinboardItem</title>
<g id="a_node5"><a xlink:href="/develop/Data/models.html#pinboard-item" xlink:title="PinboardItem" target="_top">
<polygon fill="#eeefff" stroke="#dddeee" points="355.25,-382 264.25,-382 264.25,-346 355.25,-346 355.25,-382"/>
<text text-anchor="middle" x="309.75" y="-360.3" font-family="Times,serif" font-size="14.00">PinboardItem</text>
</a>
</g>
</g>
<!-- Role -->
<g id="node6" class="node">
<title>Role</title>
<g id="a_node6"><a xlink:href="/develop/Data/models.html#role" xlink:title="Role" target="_top">
<polygon fill="#eeefff" stroke="#dddeee" points="336.75,-328 282.75,-328 282.75,-292 336.75,-292 336.75,-328"/>
<text text-anchor="middle" x="309.75" y="-306.3" font-family="Times,serif" font-size="14.00">Role</text>
</a>
</g>
</g>
<!-- SelfAndAncestor -->
<g id="node7" class="node">
<title>SelfAndAncestor</title>
<g id="a_node7"><a xlink:href="/develop/Data/models.html#self-and-ancestor" xlink:title="SelfAndAncestor" target="_top">
<polygon fill="#eeefff" stroke="#dddeee" points="595.34,-544 485.34,-544 485.34,-508 595.34,-508 595.34,-544"/>
<text text-anchor="middle" x="540.34" y="-522.3" font-family="Times,serif" font-size="14.00">SelfAndAncestor</text>
</a>
</g>
</g>
<!-- SelfAndDescendant -->
<g id="node8" class="node">
<title>SelfAndDescendant</title>
<g id="a_node8"><a xlink:href="/develop/Data/models.html#self-and-descendant" xlink:title="SelfAndDescendant" target="_top">
<polygon fill="#eeefff" stroke="#dddeee" points="602.84,-436 477.84,-436 477.84,-400 602.84,-400 602.84,-436"/>
<text text-anchor="middle" x="540.34" y="-414.3" font-family="Times,serif" font-size="14.00">SelfAndDescendant</text>
</a>
</g>
</g>
<!-- VerifierRole -->
<g id="node9" class="node">
<title>VerifierRole</title>
<g id="a_node9"><a xlink:href="/develop/Data/models.html#verifier-role" xlink:title="VerifierRole" target="_top">
<polygon fill="#eeefff" stroke="#dddeee" points="351.25,-274 268.25,-274 268.25,-238 351.25,-238 351.25,-274"/>
<text text-anchor="middle" x="309.75" y="-252.3" font-family="Times,serif" font-size="14.00">VerifierRole</text>
</a>
</g>
</g>
<!-- Verifier -->
<g id="node10" class="node">
<title>Verifier</title>
<g id="a_node10"><a xlink:href="/develop/Data/models.html#verifier" xlink:title="Verifier" target="_top">
<polygon fill="#eeefff" stroke="#dddeee" points="568.84,-301 511.84,-301 511.84,-265 568.84,-265 568.84,-301"/>
<text text-anchor="middle" x="540.34" y="-279.3" font-family="Times,serif" font-size="14.00">Verifier</text>
</a>
</g>
</g>
<!-- Creator -->
<g id="node11" class="node">
<title>Creator</title>
<g id="a_node11"><a xlink:href="/develop/Data/models.html#creator" xlink:title="Creator" target="_top">
<polygon fill="#eeefff" stroke="#dddeee" points="568.84,-128 511.84,-128 511.84,-92 568.84,-92 568.84,-128"/>
<text text-anchor="middle" x="540.34" y="-106.3" font-family="Times,serif" font-size="14.00">Creator</text>
</a>
</g>
</g>
<!-- Parent -->
<g id="node12" class="node">
<title>Parent</title>
<g id="a_node12"><a xlink:href="/develop/Data/models.html#parent" xlink:title="Parent" target="_top">
<polygon fill="#eeefff" stroke="#dddeee" points="336.75,-182 282.75,-182 282.75,-146 336.75,-146 336.75,-182"/>
<text text-anchor="middle" x="309.75" y="-160.3" font-family="Times,serif" font-size="14.00">Parent</text>
</a>
</g>
</g>
<!-- Project -->
<g id="node13" class="node">
<title>Project</title>
<g id="a_node13"><a xlink:href="/develop/Data/models.html#project" xlink:title="Project" target="_top">
<polygon fill="#eeefff" stroke="#dddeee" points="337.25,-128 282.25,-128 282.25,-92 337.25,-92 337.25,-128"/>
<text text-anchor="middle" x="309.75" y="-106.3" font-family="Times,serif" font-size="14.00">Project</text>
</a>
</g>
</g>
<!-- Updater -->
<g id="node14" class="node">
<title>Updater</title>
<g id="a_node14"><a xlink:href="/develop/Data/models.html#updater" xlink:title="Updater" target="_top">
<polygon fill="#eeefff" stroke="#dddeee" points="698.84,-128 638.84,-128 638.84,-92 698.84,-92 698.84,-128"/>
<text text-anchor="middle" x="668.84" y="-106.3" font-family="Times,serif" font-size="14.00">Updater</text>
</a>
</g>
</g>
<!-- Objects with Container items -->
<g id="node15" class="node">
<title>Objects with Container items</title>
<g id="a_node15"><a xlink:href="/develop/Data/models.html#objects with container item" xlink:title="Objects with Container items" target="_top">
<polygon fill="#cdabef" stroke="#dedede" points="441.92,-18 375.84,-36 243.66,-36 177.58,-18 243.66,0 375.84,0 441.92,-18"/>
<text text-anchor="middle" x="309.75" y="-14.3" font-family="Times,serif" font-size="14.00">Objects with Container items</text>
</a>
</g>
</g>
</g>
</svg>
