<?xml version="1.0" encoding="UTF-8" standalone="no"?>
<!DOCTYPE svg PUBLIC "-//W3C//DTD SVG 1.1//EN"
 "http://www.w3.org/Graphics/SVG/1.1/DTD/svg11.dtd">
<!-- Generated by graphviz version 2.50.0 (20211204.2007)
 -->
<!-- Title: Container Pages: 1 -->
<svg width="591pt" height="590pt"
 viewBox="0.00 0.00 591.28 590.00" xmlns="http://www.w3.org/2000/svg" xmlns:xlink="http://www.w3.org/1999/xlink">
<g id="graph0" class="graph" transform="scale(1 1) rotate(0) translate(4 586)">
<title>Container</title>
<polygon fill="white" stroke="transparent" points="-4,4 -4,-586 587.28,-586 587.28,4 -4,4"/>
<!-- Tag&#45;&gt;Keyword -->
<g id="edge3" class="edge">
<title>Tag&#45;&gt;Keyword</title>
<path fill="none" stroke="black" d="M69.92,-199.6C87.35,-199.33 110.72,-198.97 130.9,-198.66"/>
<polygon fill="black" stroke="black" points="131.17,-202.16 141.12,-198.51 131.06,-195.16 131.17,-202.16"/>
</g>
<!-- Container&#45;&gt;Identifier -->
<g id="edge2" class="edge">
<title>Container&#45;&gt;Identifier</title>
<path fill="none" stroke="black" d="M121.52,-256C113.16,-256 104.51,-256 96.16,-256"/>
<polygon fill="black" stroke="black" points="96.15,-252.5 86.15,-256 96.15,-259.5 96.15,-252.5"/>
</g>
<!-- Container&#45;&gt;Tag -->
<g id="edge9" class="edge">
<title>Container&#45;&gt;Tag</title>
<path fill="none" stroke="black" d="M137.04,-240.08C117.51,-231.68 93.8,-221.47 75.19,-213.47"/>
<polygon fill="black" stroke="black" points="76.54,-210.24 65.97,-209.5 73.78,-216.67 76.54,-210.24"/>
</g>
<!-- Container&#45;&gt;Container -->
<g id="edge15" class="edge">
<title>Container&#45;&gt;Container</title>
<path fill="none" stroke="black" stroke-dasharray="1,5" d="M151.95,-287.06C155.12,-292.34 162.81,-296 175.04,-296 194.11,-296 202.16,-287.09 199.18,-276.99"/>
<polygon fill="black" stroke="black" points="155.42,-286.57 150.89,-276.99 148.46,-287.3 155.42,-286.57"/>
</g>
<!-- Container&#45;&gt;CollectionProfile -->
<g id="edge1" class="edge">
<title>Container&#45;&gt;CollectionProfile</title>
<path fill="none" stroke="black" d="M176.88,-278.03C180.02,-329.8 194.79,-460.58 264.28,-537 265.05,-537.85 265.85,-538.67 266.68,-539.47"/>
<polygon fill="black" stroke="black" points="264.81,-542.45 274.8,-545.98 269.19,-536.99 264.81,-542.45"/>
</g>
<!-- Container&#45;&gt;Label -->
<g id="edge4" class="edge">
<title>Container&#45;&gt;Label</title>
<path fill="none" stroke="black" d="M178.84,-278.11C185.59,-322.6 206.67,-423.72 264.28,-483 271.99,-490.93 282.39,-496.64 292.56,-500.71"/>
<polygon fill="black" stroke="black" points="291.55,-504.07 302.14,-504.12 293.9,-497.47 291.55,-504.07"/>
</g>
<!-- Container&#45;&gt;LoanItem -->
<g id="edge5" class="edge">
<title>Container&#45;&gt;LoanItem</title>
<path fill="none" stroke="black" d="M182.68,-278.04C194.2,-312.97 220.87,-381.45 264.28,-424 270.21,-429.81 277.4,-434.76 284.79,-438.92"/>
<polygon fill="black" stroke="black" points="283.69,-442.29 294.18,-443.75 286.89,-436.06 283.69,-442.29"/>
</g>
<!-- Container&#45;&gt;Loan -->
<g id="edge17" class="edge">
<title>Container&#45;&gt;Loan</title>
<path fill="none" stroke="black" stroke-dasharray="1,5" d="M188.85,-287.62C202.91,-318.41 228.36,-364.36 264.28,-391 312.63,-426.86 337.6,-408.74 394.28,-429 406.69,-433.43 420.16,-439.04 431.49,-444"/>
<polygon fill="black" stroke="black" points="191.93,-285.93 184.69,-278.2 185.53,-288.76 191.93,-285.93"/>
</g>
<!-- Container&#45;&gt;PinboardItem -->
<g id="edge7" class="edge">
<title>Container&#45;&gt;PinboardItem</title>
<path fill="none" stroke="black" d="M196.08,-278.2C212.94,-295.89 238.38,-320.37 264.28,-337 267.56,-339.1 271.02,-341.1 274.58,-343"/>
<polygon fill="black" stroke="black" points="273.04,-346.14 283.55,-347.47 276.16,-339.88 273.04,-346.14"/>
</g>
<!-- Container&#45;&gt;Role -->
<g id="edge8" class="edge">
<title>Container&#45;&gt;Role</title>
<path fill="none" stroke="black" d="M217.24,-270.61C240.71,-278.94 269.84,-289.27 292.37,-297.26"/>
<polygon fill="black" stroke="black" points="291.31,-300.6 301.9,-300.64 293.65,-294 291.31,-300.6"/>
</g>
<!-- Container&#45;&gt;VerifierRole -->
<g id="edge10" class="edge">
<title>Container&#45;&gt;VerifierRole</title>
<path fill="none" stroke="black" d="M228.43,-256C244.24,-256 261.56,-256 277.27,-256"/>
<polygon fill="black" stroke="black" points="277.33,-259.5 287.33,-256 277.33,-252.5 277.33,-259.5"/>
</g>
<!-- Container&#45;&gt;Creator -->
<g id="edge12" class="edge">
<title>Container&#45;&gt;Creator</title>
<path fill="none" stroke="black" stroke-dasharray="5,2" d="M229.81,-239.43C241.18,-235.96 253.12,-232.34 264.28,-229 321.95,-211.75 337.6,-211.26 394.28,-191 406.24,-186.73 419.18,-181.36 430.24,-176.55"/>
<polygon fill="black" stroke="black" points="228.53,-236.16 219.99,-242.43 230.58,-242.85 228.53,-236.16"/>
</g>
<!-- Container&#45;&gt;Project -->
<g id="edge13" class="edge">
<title>Container&#45;&gt;Project</title>
<path fill="none" stroke="black" stroke-dasharray="5,2" d="M216.68,-232.66C220.65,-230.15 224.57,-227.57 228.28,-225 245.16,-213.28 246.99,-207.1 264.28,-196 276.09,-188.41 289.95,-181.29 301.74,-175.7"/>
<polygon fill="black" stroke="black" points="214.66,-229.79 207.99,-238.02 218.34,-235.75 214.66,-229.79"/>
</g>
<!-- Container&#45;&gt;Updater -->
<g id="edge14" class="edge">
<title>Container&#45;&gt;Updater</title>
<path fill="none" stroke="black" stroke-dasharray="5,2" d="M219.54,-233.39C222.71,-230.81 225.68,-228.01 228.28,-225 255.88,-193 229.2,-160.55 264.28,-137 344.75,-82.98 467.58,-125.76 523.16,-150.08"/>
<polygon fill="black" stroke="black" points="217.36,-230.65 211.33,-239.36 221.48,-236.31 217.36,-230.65"/>
</g>
<!-- Container&#45;&gt;ContainerItem -->
<g id="edge16" class="edge">
<title>Container&#45;&gt;ContainerItem</title>
<path fill="none" stroke="black" stroke-dasharray="1,5" d="M211.66,-230.99C217.87,-226.7 223.78,-221.78 228.28,-216 262.78,-171.75 228.21,-137.98 264.28,-95 269.07,-89.29 275.13,-84.5 281.61,-80.63"/>
<polygon fill="black" stroke="black" points="209.64,-228.12 203.1,-236.46 213.41,-234.02 209.64,-228.12"/>
</g>
<!-- Container&#45;&gt;ContainerItem -->
<!-- Container&#45;&gt;ParentContainerItem -->
<g id="edge18" class="edge">
<title>Container&#45;&gt;ParentContainerItem</title>
<path fill="none" stroke="black" stroke-dasharray="1,5" d="M220.58,-233.56C223.46,-230.96 226.08,-228.11 228.28,-225 275.44,-158.43 212.7,-108.21 264.28,-45 267.03,-41.64 270.26,-38.69 273.8,-36.1"/>
<polygon fill="black" stroke="black" points="218.21,-230.96 212.47,-239.87 222.51,-236.49 218.21,-230.96"/>
</g>
<!-- LoanItem&#45;&gt;Loan -->
<g id="edge6" class="edge">
<title>LoanItem&#45;&gt;Loan</title>
<path fill="none" stroke="black" d="M364.45,-456C382.08,-456 403.6,-456 421.53,-456"/>
<polygon fill="black" stroke="black" points="421.61,-459.5 431.61,-456 421.61,-452.5 421.61,-459.5"/>
</g>
<!-- Role&#45;&gt;Verifier -->
<!-- VerifierRole&#45;&gt;Verifier -->
<g id="edge11" class="edge">
<title>VerifierRole&#45;&gt;Verifier</title>
<path fill="none" stroke="black" d="M370.97,-264.62C386.61,-267.93 404.38,-271.69 419.75,-274.95"/>
<polygon fill="black" stroke="black" points="419.45,-278.46 429.95,-277.11 420.9,-271.61 419.45,-278.46"/>
</g>
<!-- Creator&#45;&gt;Updater -->
<!-- Project&#45;&gt;Creator -->
<!-- Identifier -->
<g id="node1" class="node">
<title>Identifier</title>
<g id="a_node1"><a xlink:href="/develop/Data/models.html#identifier" xlink:title="Identifier" target="_top">
<ellipse fill="#abcdef" stroke="#dddeee" cx="42.9" cy="-256" rx="42.79" ry="18"/>
<text text-anchor="middle" x="42.9" y="-252.3" font-family="Times,serif" font-size="14.00">Identifier</text>
</a>
</g>
</g>
<!-- Tag -->
<g id="node2" class="node">
<title>Tag</title>
<g id="a_node2"><a xlink:href="/develop/Data/models.html#tag" xlink:title="Tag" target="_top">
<ellipse fill="#abcdef" stroke="#dddeee" cx="42.9" cy="-200" rx="27" ry="18"/>
<text text-anchor="middle" x="42.9" y="-196.3" font-family="Times,serif" font-size="14.00">Tag</text>
</a>
</g>
</g>
<!-- Container -->
<g id="node3" class="node">
<title>Container</title>
<g id="a_node3"><a xlink:href="/develop/Data/models.html#container" xlink:title="Container" target="_top">
<polygon fill="#cdefab" stroke="#dedede" points="224.51,-248.54 224.51,-263.46 195.53,-274 154.55,-274 125.57,-263.46 125.57,-248.54 154.55,-238 195.53,-238 224.51,-248.54"/>
<polygon fill="none" stroke="#dedede" points="228.53,-245.75 228.53,-266.25 196.24,-278 153.83,-278 121.55,-266.25 121.55,-245.75 153.83,-234 196.24,-234 228.53,-245.75"/>
<text text-anchor="middle" x="175.04" y="-252.3" font-family="Times,serif" font-size="14.00">Container</text>
</a>
</g>
</g>
<!-- CollectionProfile -->
<g id="node4" class="node">
<title>CollectionProfile</title>
<g id="a_node4"><a xlink:href="/develop/Data/models.html#collection-profile" xlink:title="CollectionProfile" target="_top">
<polygon fill="#eeefff" stroke="#dddeee" points="383.78,-582 274.78,-582 274.78,-546 383.78,-546 383.78,-582"/>
<text text-anchor="middle" x="329.28" y="-560.3" font-family="Times,serif" font-size="14.00">CollectionProfile</text>
</a>
</g>
</g>
<!-- Keyword -->
<g id="node5" class="node">
<title>Keyword</title>
<g id="a_node5"><a xlink:href="/develop/Data/models.html#keyword" xlink:title="Keyword" target="_top">
<polygon fill="#eeefff" stroke="#dddeee" points="208.54,-216 141.54,-216 141.54,-180 208.54,-180 208.54,-216"/>
<text text-anchor="middle" x="175.04" y="-194.3" font-family="Times,serif" font-size="14.00">Keyword</text>
</a>
</g>
</g>
<!-- Label -->
<g id="node6" class="node">
<title>Label</title>
<g id="a_node6"><a xlink:href="/develop/Data/models.html#label" xlink:title="Label" target="_top">
<polygon fill="#eeefff" stroke="#dddeee" points="356.28,-528 302.28,-528 302.28,-492 356.28,-492 356.28,-528"/>
<text text-anchor="middle" x="329.28" y="-506.3" font-family="Times,serif" font-size="14.00">Label</text>
</a>
</g>
</g>
<!-- LoanItem -->
<g id="node7" class="node">
<title>LoanItem</title>
<g id="a_node7"><a xlink:href="/develop/Data/models.html#loan-item" xlink:title="LoanItem" target="_top">
<polygon fill="#eeefff" stroke="#dddeee" points="364.28,-474 294.28,-474 294.28,-438 364.28,-438 364.28,-474"/>
<text text-anchor="middle" x="329.28" y="-452.3" font-family="Times,serif" font-size="14.00">LoanItem</text>
</a>
</g>
</g>
<!-- Loan -->
<g id="node8" class="node">
<title>Loan</title>
<g id="a_node8"><a xlink:href="/develop/Data/models.html#loan" xlink:title="Loan" target="_top">
<polygon fill="#eeefff" stroke="#dddeee" points="485.78,-474 431.78,-474 431.78,-438 485.78,-438 485.78,-474"/>
<text text-anchor="middle" x="458.78" y="-452.3" font-family="Times,serif" font-size="14.00">Loan</text>
</a>
</g>
</g>
<!-- PinboardItem -->
<g id="node9" class="node">
<title>PinboardItem</title>
<g id="a_node9"><a xlink:href="/develop/Data/models.html#pinboard-item" xlink:title="PinboardItem" target="_top">
<polygon fill="#eeefff" stroke="#dddeee" points="374.78,-382 283.78,-382 283.78,-346 374.78,-346 374.78,-382"/>
<text text-anchor="middle" x="329.28" y="-360.3" font-family="Times,serif" font-size="14.00">PinboardItem</text>
</a>
</g>
</g>
<!-- Role -->
<g id="node10" class="node">
<title>Role</title>
<g id="a_node10"><a xlink:href="/develop/Data/models.html#role" xlink:title="Role" target="_top">
<polygon fill="#eeefff" stroke="#dddeee" points="356.28,-328 302.28,-328 302.28,-292 356.28,-292 356.28,-328"/>
<text text-anchor="middle" x="329.28" y="-306.3" font-family="Times,serif" font-size="14.00">Role</text>
</a>
</g>
</g>
<!-- VerifierRole -->
<g id="node11" class="node">
<title>VerifierRole</title>
<g id="a_node11"><a xlink:href="/develop/Data/models.html#verifier-role" xlink:title="VerifierRole" target="_top">
<polygon fill="#eeefff" stroke="#dddeee" points="370.78,-274 287.78,-274 287.78,-238 370.78,-238 370.78,-274"/>
<text text-anchor="middle" x="329.28" y="-252.3" font-family="Times,serif" font-size="14.00">VerifierRole</text>
</a>
</g>
</g>
<!-- Verifier -->
<g id="node12" class="node">
<title>Verifier</title>
<g id="a_node12"><a xlink:href="/develop/Data/models.html#verifier" xlink:title="Verifier" target="_top">
<polygon fill="#eeefff" stroke="#dddeee" points="487.28,-301 430.28,-301 430.28,-265 487.28,-265 487.28,-301"/>
<text text-anchor="middle" x="458.78" y="-279.3" font-family="Times,serif" font-size="14.00">Verifier</text>
</a>
</g>
</g>
<!-- Creator -->
<g id="node13" class="node">
<title>Creator</title>
<g id="a_node13"><a xlink:href="/develop/Data/models.html#creator" xlink:title="Creator" target="_top">
<polygon fill="#eeefff" stroke="#dddeee" points="487.28,-182 430.28,-182 430.28,-146 487.28,-146 487.28,-182"/>
<text text-anchor="middle" x="458.78" y="-160.3" font-family="Times,serif" font-size="14.00">Creator</text>
</a>
</g>
</g>
<!-- Project -->
<g id="node14" class="node">
<title>Project</title>
<g id="a_node14"><a xlink:href="/develop/Data/models.html#project" xlink:title="Project" target="_top">
<polygon fill="#eeefff" stroke="#dddeee" points="356.78,-182 301.78,-182 301.78,-146 356.78,-146 356.78,-182"/>
<text text-anchor="middle" x="329.28" y="-160.3" font-family="Times,serif" font-size="14.00">Project</text>
</a>
</g>
</g>
<!-- Updater -->
<g id="node15" class="node">
<title>Updater</title>
<g id="a_node15"><a xlink:href="/develop/Data/models.html#updater" xlink:title="Updater" target="_top">
<polygon fill="#eeefff" stroke="#dddeee" points="583.28,-182 523.28,-182 523.28,-146 583.28,-146 583.28,-182"/>
<text text-anchor="middle" x="553.28" y="-160.3" font-family="Times,serif" font-size="14.00">Updater</text>
</a>
</g>
</g>
<!-- ContainerItem -->
<g id="node16" class="node">
<title>ContainerItem</title>
<g id="a_node16"><a xlink:href="/develop/Data/models.html#container-item" xlink:title="ContainerItem" target="_top">
<polygon fill="#eeefff" stroke="#dddeee" points="376.78,-90 281.78,-90 281.78,-54 376.78,-54 376.78,-90"/>
<text text-anchor="middle" x="329.28" y="-68.3" font-family="Times,serif" font-size="14.00">ContainerItem</text>
</a>
</g>
</g>
<!-- ParentContainerItem -->
<g id="node17" class="node">
<title>ParentContainerItem</title>
<g id="a_node17"><a xlink:href="/develop/Data/models.html#parent-container-item" xlink:title="ParentContainerItem" target="_top">
<polygon fill="#eeefff" stroke="#dddeee" points="394.28,-36 264.28,-36 264.28,0 394.28,0 394.28,-36"/>
<text text-anchor="middle" x="329.28" y="-14.3" font-family="Times,serif" font-size="14.00">ParentContainerItem</text>
</a>
</g>
</g>
</g>
</svg>
