<?xml version="1.0" encoding="UTF-8" standalone="no"?>
<!DOCTYPE svg PUBLIC "-//W3C//DTD SVG 1.1//EN"
 "http://www.w3.org/Graphics/SVG/1.1/DTD/svg11.dtd">
<!-- Generated by graphviz version 12.2.1 (20241206.2353)
 -->
<!-- Title: Container Pages: 1 -->
<svg width="603pt" height="698pt"
 viewBox="0.00 0.00 602.82 698.00" xmlns="http://www.w3.org/2000/svg" xmlns:xlink="http://www.w3.org/1999/xlink">
<g id="graph0" class="graph" transform="scale(1 1) rotate(0) translate(4 694)">
<title>Container</title>
<polygon fill="white" stroke="none" points="-4,4 -4,-694 598.82,-694 598.82,4 -4,4"/>
<!-- Depiction&#45;&gt;Image -->
<g id="edge4" class="edge">
<title>Depiction&#45;&gt;Image</title>
<path fill="none" stroke="black" stroke-dasharray="1,5" d="M93.68,-378.66C111.02,-380.06 130.57,-381.64 147.1,-382.97"/>
<polygon fill="black" stroke="black" points="146.76,-386.46 157.01,-383.77 147.33,-379.48 146.76,-386.46"/>
</g>
<!-- Tag&#45;&gt;Keyword -->
<g id="edge5" class="edge">
<title>Tag&#45;&gt;Keyword</title>
<path fill="none" stroke="black" stroke-dasharray="1,5" d="M74.56,-253.61C93.33,-253.34 119.01,-252.96 140.85,-252.64"/>
<polygon fill="black" stroke="black" points="140.73,-256.14 150.67,-252.5 140.62,-249.15 140.73,-256.14"/>
</g>
<!-- Container&#45;&gt;Depiction -->
<g id="edge2" class="edge">
<title>Container&#45;&gt;Depiction</title>
<path fill="none" stroke="black" d="M148.82,-327.08C130.17,-335.97 107.31,-346.86 88.1,-356.01"/>
<polygon fill="black" stroke="black" points="86.74,-352.78 79.22,-360.24 89.75,-359.1 86.74,-352.78"/>
</g>
<!-- Container&#45;&gt;Identifier -->
<g id="edge3" class="edge">
<title>Container&#45;&gt;Identifier</title>
<path fill="none" stroke="black" d="M130.38,-310C121.84,-310 112.99,-310 104.41,-310"/>
<polygon fill="black" stroke="black" points="104.44,-306.5 94.44,-310 104.44,-313.5 104.44,-306.5"/>
</g>
<!-- Container&#45;&gt;Tag -->
<g id="edge11" class="edge">
<title>Container&#45;&gt;Tag</title>
<path fill="none" stroke="black" d="M145.54,-293.94C125.19,-285.59 100.6,-275.49 81.23,-267.54"/>
<polygon fill="black" stroke="black" points="82.76,-264.38 72.18,-263.82 80.1,-270.86 82.76,-264.38"/>
</g>
<!-- Container&#45;&gt;Container -->
<g id="edge19" class="edge">
<title>Container&#45;&gt;Container</title>
<path fill="none" stroke="black" stroke-dasharray="1,5" d="M161.46,-341.06C164.78,-346.34 172.85,-350 185.66,-350 198.48,-350 206.55,-346.34 209.87,-341.06"/>
<polygon fill="none" stroke="black" points="156.43,-331.93 164.38,-331.05 165.25,-339 157.3,-339.88 156.43,-331.93"/>
<polyline fill="none" stroke="black" points="161.28,-339.44 161.5,-341.43"/>
<polygon fill="none" stroke="black" points="206.95,-331.05 214.9,-331.93 214.03,-339.88 206.07,-339 206.95,-331.05"/>
<polyline fill="none" stroke="black" points="210.05,-339.44 209.83,-341.43"/>
</g>
<!-- Container&#45;&gt;CollectionProfile -->
<g id="edge1" class="edge">
<title>Container&#45;&gt;CollectionProfile</title>
<path fill="none" stroke="black" d="M215.67,-329.65C225.22,-337.62 234.9,-347.64 240.82,-359 300,-472.62 199.55,-542.8 276.82,-645 277.33,-645.68 277.87,-646.35 278.42,-647"/>
<polygon fill="black" stroke="black" points="275.75,-649.29 285.47,-653.5 280.49,-644.14 275.75,-649.29"/>
</g>
<!-- Container&#45;&gt;Label -->
<g id="edge6" class="edge">
<title>Container&#45;&gt;Label</title>
<path fill="none" stroke="black" d="M215.21,-329.51C224.83,-337.53 234.68,-347.62 240.82,-359 290.35,-450.84 212.7,-508.68 276.82,-591 283.48,-599.55 293.36,-605.43 303.36,-609.46"/>
<polygon fill="black" stroke="black" points="302.08,-612.72 312.68,-612.65 304.35,-606.1 302.08,-612.72"/>
</g>
<!-- Container&#45;&gt;LoanItem -->
<g id="edge7" class="edge">
<title>Container&#45;&gt;LoanItem</title>
<path fill="none" stroke="black" d="M214.9,-329.68C224.48,-337.72 234.39,-347.78 240.82,-359 279.85,-427.15 228.98,-469.72 276.82,-532 281.94,-538.67 288.84,-544.06 296.2,-548.37"/>
<polygon fill="black" stroke="black" points="294.57,-551.47 305.07,-552.92 297.77,-545.24 294.57,-551.47"/>
</g>
<!-- Container&#45;&gt;Loan -->
<g id="edge21" class="edge">
<title>Container&#45;&gt;Loan</title>
<path fill="none" stroke="black" stroke-dasharray="1,5" d="M222.25,-336.67C229.23,-343.3 235.9,-350.87 240.82,-359 274.04,-413.99 232.17,-452.8 276.82,-499 318.42,-542.06 349.69,-516.83 406.07,-537 415.19,-540.27 424.89,-544.16 433.9,-547.96"/>
<polygon fill="none" stroke="black" points="212.32,-333.16 217.65,-327.2 223.62,-332.53 218.29,-338.49 212.32,-333.16"/>
<polyline fill="none" stroke="black" points="220.95,-335.51 222.44,-336.84"/>
<polygon fill="none" stroke="black" points="444.46,-548.14 441.3,-555.49 433.95,-552.33 437.11,-544.98 444.46,-548.14"/>
<polyline fill="none" stroke="black" points="435.53,-548.66 433.69,-547.87"/>
</g>
<!-- Container&#45;&gt;PinboardItem -->
<g id="edge9" class="edge">
<title>Container&#45;&gt;PinboardItem</title>
<path fill="none" stroke="black" d="M213.49,-330.16C223.03,-338.33 233.27,-348.34 240.82,-359 264.75,-392.82 247.59,-415.63 276.82,-445 279.61,-447.81 282.74,-450.34 286.07,-452.62"/>
<polygon fill="black" stroke="black" points="284.2,-455.58 294.59,-457.64 287.75,-449.55 284.2,-455.58"/>
</g>
<!-- Container&#45;&gt;Role -->
<g id="edge10" class="edge">
<title>Container&#45;&gt;Role</title>
<path fill="none" stroke="black" d="M210.17,-331.29C236.25,-354.89 274.94,-389.81 276.82,-391 285.11,-396.28 294.61,-400.94 303.7,-404.85"/>
<polygon fill="black" stroke="black" points="302.1,-407.97 312.68,-408.5 304.74,-401.49 302.1,-407.97"/>
</g>
<!-- Container&#45;&gt;Uri -->
<g id="edge12" class="edge">
<title>Container&#45;&gt;Uri</title>
<path fill="none" stroke="black" d="M229.09,-324.9C252.36,-333.07 280.95,-343.11 303.32,-350.97"/>
<polygon fill="black" stroke="black" points="302.06,-354.23 312.65,-354.24 304.38,-347.63 302.06,-354.23"/>
</g>
<!-- Container&#45;&gt;Uuid -->
<g id="edge13" class="edge">
<title>Container&#45;&gt;Uuid</title>
<path fill="none" stroke="black" d="M241.31,-310C261.57,-310 284.07,-310 302.51,-310"/>
<polygon fill="black" stroke="black" points="302.47,-313.5 312.47,-310 302.47,-306.5 302.47,-313.5"/>
</g>
<!-- Container&#45;&gt;VerifierRole -->
<g id="edge14" class="edge">
<title>Container&#45;&gt;VerifierRole</title>
<path fill="none" stroke="black" d="M229.09,-295.1C247.61,-288.6 269.49,-280.92 288.93,-274.09"/>
<polygon fill="black" stroke="black" points="290.04,-277.41 298.31,-270.79 287.72,-270.8 290.04,-277.41"/>
</g>
<!-- Container&#45;&gt;Creator -->
<g id="edge16" class="edge">
<title>Container&#45;&gt;Creator</title>
<path fill="none" stroke="black" stroke-dasharray="5,2" d="M231.46,-286.47C234.75,-284.11 237.91,-281.62 240.82,-279 261.16,-260.67 254.47,-244.83 276.82,-229 325.67,-194.39 349.69,-211.17 406.07,-191 418.04,-186.71 431.01,-181.35 442.09,-176.53"/>
<polygon fill="black" stroke="black" points="229.65,-283.47 223.23,-291.89 233.5,-289.31 229.65,-283.47"/>
</g>
<!-- Container&#45;&gt;Project -->
<g id="edge17" class="edge">
<title>Container&#45;&gt;Project</title>
<path fill="none" stroke="black" stroke-dasharray="5,2" d="M232.66,-286.69C235.6,-284.31 238.36,-281.74 240.82,-279 267.63,-249.04 249.2,-225.23 276.82,-196 286.92,-185.3 301.38,-177.64 313.96,-172.5"/>
<polygon fill="black" stroke="black" points="230.77,-283.74 224.67,-292.4 234.84,-289.43 230.77,-283.74"/>
</g>
<!-- Container&#45;&gt;Updater -->
<g id="edge18" class="edge">
<title>Container&#45;&gt;Updater</title>
<path fill="none" stroke="black" stroke-dasharray="5,2" d="M233.68,-286.67C236.3,-284.31 238.72,-281.76 240.82,-279 280.2,-227.15 225.43,-176.98 276.82,-137 353.51,-77.32 478.92,-123.6 535.18,-149.52"/>
<polygon fill="black" stroke="black" points="231.74,-283.75 225.93,-292.61 235.99,-289.3 231.74,-283.75"/>
</g>
<!-- Container&#45;&gt;ContainerItem -->
<g id="edge20" class="edge">
<title>Container&#45;&gt;ContainerItem</title>
<path fill="none" stroke="black" d="M224.56,-285.1C230.76,-280.86 236.53,-275.91 240.82,-270 287.4,-205.69 228.52,-158.03 276.82,-95 279.28,-91.78 282.16,-88.86 285.31,-86.23"/>
<polygon fill="none" stroke="black" points="218.51,-293.61 214.27,-286.82 221.05,-282.58 225.3,-289.36 218.51,-293.61"/>
<polyline fill="none" stroke="black" points="223.17,-285.97 224.87,-284.91"/>
<polygon fill="none" stroke="black" points="290.86,-77.35 295.52,-83.86 289.01,-88.51 284.36,-82 290.86,-77.35"/>
<polyline fill="none" stroke="black" points="286.68,-85.25 285.05,-86.42"/>
</g>
<!-- Container&#45;&gt;ContainerItem -->
<!-- Container&#45;&gt;ParentContainerItem -->
<g id="edge22" class="edge">
<title>Container&#45;&gt;ParentContainerItem</title>
<path fill="none" stroke="black" stroke-dasharray="1,5" d="M233.24,-287.58C236.09,-284.99 238.66,-282.13 240.82,-279 300.38,-192.26 212.21,-128.06 276.82,-45 277.21,-44.5 277.61,-44 278.02,-43.52"/>
<polygon fill="none" stroke="black" points="228.04,-296.71 223.12,-290.4 229.43,-285.48 234.35,-291.79 228.04,-296.71"/>
<polyline fill="none" stroke="black" points="231.89,-288.63 233.47,-287.41"/>
<polygon fill="none" stroke="black" points="282.43,-33.87 287.92,-39.69 282.1,-45.17 276.61,-39.35 282.43,-33.87"/>
<polyline fill="none" stroke="black" points="279.35,-42.26 277.9,-43.64"/>
</g>
<!-- LoanItem&#45;&gt;Loan -->
<g id="edge8" class="edge">
<title>LoanItem&#45;&gt;Loan</title>
<path fill="none" stroke="black" stroke-dasharray="1,5" d="M376.54,-564C393.73,-564 414.61,-564 432.25,-564"/>
<polygon fill="black" stroke="black" points="432.06,-567.5 442.06,-564 432.06,-560.5 432.06,-567.5"/>
</g>
<!-- Role&#45;&gt;Verifier -->
<!-- VerifierRole&#45;&gt;Verifier -->
<g id="edge15" class="edge">
<title>VerifierRole&#45;&gt;Verifier</title>
<path fill="none" stroke="black" stroke-dasharray="1,5" d="M383.07,-271.07C390.92,-274.58 398.92,-278.59 406.07,-283 419.01,-290.98 432.03,-301.49 442.89,-311.12"/>
<polygon fill="black" stroke="black" points="440.23,-313.43 449.98,-317.57 444.94,-308.25 440.23,-313.43"/>
</g>
<!-- Creator&#45;&gt;Updater -->
<!-- Project&#45;&gt;Creator -->
<!-- Depiction -->
<g id="node1" class="node">
<title>Depiction</title>
<g id="a_node1"><a xlink:href="/develop/Data/models.html#depiction" xlink:title="Depiction" target="_top">
<ellipse fill="#abcdef" stroke="#dddeee" cx="47.26" cy="-375" rx="47.26" ry="18"/>
<text text-anchor="middle" x="47.26" y="-369.95" font-family="Times,serif" font-size="14.00">Depiction</text>
</a>
</g>
</g>
<!-- Identifier -->
<g id="node2" class="node">
<title>Identifier</title>
<g id="a_node2"><a xlink:href="/develop/Data/models.html#identifier" xlink:title="Identifier" target="_top">
<ellipse fill="#abcdef" stroke="#dddeee" cx="47.26" cy="-310" rx="45.21" ry="18"/>
<text text-anchor="middle" x="47.26" y="-304.95" font-family="Times,serif" font-size="14.00">Identifier</text>
</a>
</g>
</g>
<!-- Tag -->
<g id="node3" class="node">
<title>Tag</title>
<g id="a_node3"><a xlink:href="/develop/Data/models.html#tag" xlink:title="Tag" target="_top">
<ellipse fill="#abcdef" stroke="#dddeee" cx="47.26" cy="-254" rx="27" ry="18"/>
<text text-anchor="middle" x="47.26" y="-248.95" font-family="Times,serif" font-size="14.00">Tag</text>
</a>
</g>
</g>
<!-- Container -->
<g id="node4" class="node">
<title>Container</title>
<g id="a_node4"><a xlink:href="/develop/Data/models.html#container" xlink:title="Container" target="_top">
<polygon fill="#cdefab" stroke="#dedede" points="236.82,-302.54 236.82,-317.46 206.85,-328 164.48,-328 134.51,-317.46 134.51,-302.54 164.48,-292 206.85,-292 236.82,-302.54"/>
<polygon fill="none" stroke="#dedede" points="240.82,-299.71 240.82,-320.29 207.53,-332 163.79,-332 130.51,-320.29 130.51,-299.71 163.79,-288 207.53,-288 240.82,-299.71"/>
<text text-anchor="middle" x="185.66" y="-304.95" font-family="Times,serif" font-size="14.00">Container</text>
</a>
</g>
</g>
<!-- CollectionProfile -->
<g id="node5" class="node">
<title>CollectionProfile</title>
<g id="a_node5"><a xlink:href="/develop/Data/models.html#collection-profile" xlink:title="CollectionProfile" target="_top">
<polygon fill="#eeefff" stroke="#dddeee" points="395.94,-690 286.94,-690 286.94,-654 395.94,-654 395.94,-690"/>
<text text-anchor="middle" x="341.44" y="-666.95" font-family="Times,serif" font-size="14.00">CollectionProfile</text>
</a>
</g>
</g>
<!-- Image -->
<g id="node6" class="node">
<title>Image</title>
<g id="a_node6"><a xlink:href="/develop/Data/models.html#image" xlink:title="Image" target="_top">
<polygon fill="#eeefff" stroke="#dddeee" points="212.66,-404 158.66,-404 158.66,-368 212.66,-368 212.66,-404"/>
<text text-anchor="middle" x="185.66" y="-380.95" font-family="Times,serif" font-size="14.00">Image</text>
</a>
</g>
</g>
<!-- Keyword -->
<g id="node7" class="node">
<title>Keyword</title>
<g id="a_node7"><a xlink:href="/develop/Data/models.html#keyword" xlink:title="Keyword" target="_top">
<polygon fill="#eeefff" stroke="#dddeee" points="218.79,-270 152.54,-270 152.54,-234 218.79,-234 218.79,-270"/>
<text text-anchor="middle" x="185.66" y="-246.95" font-family="Times,serif" font-size="14.00">Keyword</text>
</a>
</g>
</g>
<!-- Label -->
<g id="node8" class="node">
<title>Label</title>
<g id="a_node8"><a xlink:href="/develop/Data/models.html#label" xlink:title="Label" target="_top">
<polygon fill="#eeefff" stroke="#dddeee" points="368.44,-636 314.44,-636 314.44,-600 368.44,-600 368.44,-636"/>
<text text-anchor="middle" x="341.44" y="-612.95" font-family="Times,serif" font-size="14.00">Label</text>
</a>
</g>
</g>
<!-- LoanItem -->
<g id="node9" class="node">
<title>LoanItem</title>
<g id="a_node9"><a xlink:href="/develop/Data/models.html#loan-item" xlink:title="LoanItem" target="_top">
<polygon fill="#eeefff" stroke="#dddeee" points="376.07,-582 306.82,-582 306.82,-546 376.07,-546 376.07,-582"/>
<text text-anchor="middle" x="341.44" y="-558.95" font-family="Times,serif" font-size="14.00">LoanItem</text>
</a>
</g>
</g>
<!-- Loan -->
<g id="node10" class="node">
<title>Loan</title>
<g id="a_node10"><a xlink:href="/develop/Data/models.html#loan" xlink:title="Loan" target="_top">
<polygon fill="#eeefff" stroke="#dddeee" points="497.69,-582 443.69,-582 443.69,-546 497.69,-546 497.69,-582"/>
<text text-anchor="middle" x="470.69" y="-558.95" font-family="Times,serif" font-size="14.00">Loan</text>
</a>
</g>
</g>
<!-- PinboardItem -->
<g id="node11" class="node">
<title>PinboardItem</title>
<g id="a_node11"><a xlink:href="/develop/Data/models.html#pinboard-item" xlink:title="PinboardItem" target="_top">
<polygon fill="#eeefff" stroke="#dddeee" points="386.57,-490 296.32,-490 296.32,-454 386.57,-454 386.57,-490"/>
<text text-anchor="middle" x="341.44" y="-466.95" font-family="Times,serif" font-size="14.00">PinboardItem</text>
</a>
</g>
</g>
<!-- Role -->
<g id="node12" class="node">
<title>Role</title>
<g id="a_node12"><a xlink:href="/develop/Data/models.html#role" xlink:title="Role" target="_top">
<polygon fill="#eeefff" stroke="#dddeee" points="368.44,-436 314.44,-436 314.44,-400 368.44,-400 368.44,-436"/>
<text text-anchor="middle" x="341.44" y="-412.95" font-family="Times,serif" font-size="14.00">Role</text>
</a>
</g>
</g>
<!-- Uri -->
<g id="node13" class="node">
<title>Uri</title>
<g id="a_node13"><a xlink:href="/develop/Data/models.html#uri" xlink:title="Uri" target="_top">
<polygon fill="#eeefff" stroke="#dddeee" points="368.44,-382 314.44,-382 314.44,-346 368.44,-346 368.44,-382"/>
<text text-anchor="middle" x="341.44" y="-358.95" font-family="Times,serif" font-size="14.00">Uri</text>
</a>
</g>
</g>
<!-- Uuid -->
<g id="node14" class="node">
<title>Uuid</title>
<g id="a_node14"><a xlink:href="/develop/Data/models.html#uuid" xlink:title="Uuid" target="_top">
<polygon fill="#eeefff" stroke="#dddeee" points="368.44,-328 314.44,-328 314.44,-292 368.44,-292 368.44,-328"/>
<text text-anchor="middle" x="341.44" y="-304.95" font-family="Times,serif" font-size="14.00">Uuid</text>
</a>
</g>
</g>
<!-- VerifierRole -->
<g id="node15" class="node">
<title>VerifierRole</title>
<g id="a_node15"><a xlink:href="/develop/Data/models.html#verifier-role" xlink:title="VerifierRole" target="_top">
<polygon fill="#eeefff" stroke="#dddeee" points="382.82,-274 300.07,-274 300.07,-238 382.82,-238 382.82,-274"/>
<text text-anchor="middle" x="341.44" y="-250.95" font-family="Times,serif" font-size="14.00">VerifierRole</text>
</a>
</g>
</g>
<!-- Verifier -->
<g id="node16" class="node">
<title>Verifier</title>
<g id="a_node16"><a xlink:href="/develop/Data/models.html#verifier" xlink:title="Verifier" target="_top">
<polygon fill="#eeefff" stroke="#dddeee" points="499.32,-355 442.07,-355 442.07,-319 499.32,-319 499.32,-355"/>
<text text-anchor="middle" x="470.69" y="-331.95" font-family="Times,serif" font-size="14.00">Verifier</text>
</a>
</g>
</g>
<!-- Creator -->
<g id="node17" class="node">
<title>Creator</title>
<g id="a_node17"><a xlink:href="/develop/Data/models.html#creator" xlink:title="Creator" target="_top">
<polygon fill="#eeefff" stroke="#dddeee" points="498.94,-182 442.44,-182 442.44,-146 498.94,-146 498.94,-182"/>
<text text-anchor="middle" x="470.69" y="-158.95" font-family="Times,serif" font-size="14.00">Creator</text>
</a>
</g>
</g>
<!-- Project -->
<g id="node18" class="node">
<title>Project</title>
<g id="a_node18"><a xlink:href="/develop/Data/models.html#project" xlink:title="Project" target="_top">
<polygon fill="#eeefff" stroke="#dddeee" points="368.57,-182 314.32,-182 314.32,-146 368.57,-146 368.57,-182"/>
<text text-anchor="middle" x="341.44" y="-158.95" font-family="Times,serif" font-size="14.00">Project</text>
</a>
</g>
</g>
<!-- Updater -->
<g id="node19" class="node">
<title>Updater</title>
<g id="a_node19"><a xlink:href="/develop/Data/models.html#updater" xlink:title="Updater" target="_top">
<polygon fill="#eeefff" stroke="#dddeee" points="594.82,-182 535.32,-182 535.32,-146 594.82,-146 594.82,-182"/>
<text text-anchor="middle" x="565.07" y="-158.95" font-family="Times,serif" font-size="14.00">Updater</text>
</a>
</g>
</g>
<!-- ContainerItem -->
<g id="node20" class="node">
<title>ContainerItem</title>
<g id="a_node20"><a xlink:href="/develop/Data/models.html#container-item" xlink:title="ContainerItem" target="_top">
<polygon fill="#eeefff" stroke="#dddeee" points="388.82,-90 294.07,-90 294.07,-54 388.82,-54 388.82,-90"/>
<text text-anchor="middle" x="341.44" y="-66.95" font-family="Times,serif" font-size="14.00">ContainerItem</text>
</a>
</g>
</g>
<!-- ParentContainerItem -->
<g id="node21" class="node">
<title>ParentContainerItem</title>
<g id="a_node21"><a xlink:href="/develop/Data/models.html#parent-container-item" xlink:title="ParentContainerItem" target="_top">
<polygon fill="#eeefff" stroke="#dddeee" points="406.07,-36 276.82,-36 276.82,0 406.07,0 406.07,-36"/>
<text text-anchor="middle" x="341.44" y="-12.95" font-family="Times,serif" font-size="14.00">ParentContainerItem</text>
</a>
</g>
</g>
</g>
</svg>
