<?xml version="1.0" encoding="UTF-8" standalone="no"?>
<!DOCTYPE svg PUBLIC "-//W3C//DTD SVG 1.1//EN"
 "http://www.w3.org/Graphics/SVG/1.1/DTD/svg11.dtd">
<!-- Generated by graphviz version 12.2.1 (20241206.2353)
 -->
<!-- Title: Conveyance Pages: 1 -->
<svg width="854pt" height="576pt"
 viewBox="0.00 0.00 854.29 576.00" xmlns="http://www.w3.org/2000/svg" xmlns:xlink="http://www.w3.org/1999/xlink">
<g id="graph0" class="graph" transform="scale(1 1) rotate(0) translate(4 572)">
<title>Conveyance</title>
<polygon fill="white" stroke="none" points="-4,4 -4,-572 850.29,-572 850.29,4 -4,4"/>
<!-- Citation&#45;&gt;Source -->
<g id="edge7" class="edge">
<title>Citation&#45;&gt;Source</title>
<path fill="none" stroke="black" stroke-dasharray="1,5" d="M81.63,-495C153.21,-495 302.14,-495 371.75,-495"/>
<polygon fill="black" stroke="black" points="371.49,-498.5 381.49,-495 371.49,-491.5 371.49,-498.5"/>
</g>
<!-- Citation&#45;&gt;CitationTopic -->
<g id="edge1" class="edge">
<title>Citation&#45;&gt;CitationTopic</title>
<path fill="none" stroke="black" stroke-dasharray="1,5" d="M71.92,-506.93C87.69,-513.14 107.46,-520.92 125.85,-528.16"/>
<polygon fill="black" stroke="black" points="124.48,-531.38 135.06,-531.79 127.04,-524.87 124.48,-531.38"/>
</g>
<!-- Tag&#45;&gt;Keyword -->
<g id="edge3" class="edge">
<title>Tag&#45;&gt;Keyword</title>
<path fill="none" stroke="black" stroke-dasharray="1,5" d="M67.88,-238.62C87.41,-238.34 114.49,-237.96 137.3,-237.63"/>
<polygon fill="black" stroke="black" points="137.31,-241.13 147.26,-237.49 137.21,-234.13 137.31,-241.13"/>
</g>
<!-- Source&#45;&gt;SubsequentCitation -->
<!-- Source&#45;&gt;OriginCitation -->
<!-- Conveyance&#45;&gt;Citation -->
<g id="edge2" class="edge">
<title>Conveyance&#45;&gt;Citation</title>
<path fill="none" stroke="black" d="M165.74,-317.32C139.85,-354.38 88.08,-428.47 60.28,-468.27"/>
<polygon fill="black" stroke="black" points="57.48,-466.16 54.63,-476.36 63.22,-470.17 57.48,-466.16"/>
</g>
<!-- Conveyance&#45;&gt;Tag -->
<g id="edge10" class="edge">
<title>Conveyance&#45;&gt;Tag</title>
<path fill="none" stroke="black" d="M138.55,-277.85C118.1,-269.66 94,-260 74.94,-252.36"/>
<polygon fill="black" stroke="black" points="76.35,-249.16 65.77,-248.69 73.75,-255.65 76.35,-249.16"/>
</g>
<!-- Conveyance&#45;&gt;Note -->
<g id="edge4" class="edge">
<title>Conveyance&#45;&gt;Note</title>
<path fill="none" stroke="black" d="M116.73,-295C104.65,-295 92.35,-295 81.31,-295"/>
<polygon fill="black" stroke="black" points="81.39,-291.5 71.39,-295 81.39,-298.5 81.39,-291.5"/>
</g>
<!-- Conveyance&#45;&gt;Source -->
<g id="edge20" class="edge">
<title>Conveyance&#45;&gt;Source</title>
<path fill="none" stroke="black" stroke-dasharray="1,5" d="M194,-327.01C208.32,-364.97 237.41,-427.45 283.45,-462 309.33,-481.42 345.67,-489.44 372.62,-492.74"/>
<polygon fill="none" stroke="black" points="186.93,-319.3 194.44,-316.56 197.19,-324.07 189.67,-326.81 186.93,-319.3"/>
<polyline fill="none" stroke="black" points="193.43,-325.44 194.11,-327.32"/>
<polygon fill="none" stroke="black" points="382.73,-489.78 381.89,-497.74 373.93,-496.9 374.77,-488.94 382.73,-489.78"/>
<polyline fill="none" stroke="black" points="374.35,-492.92 372.36,-492.71"/>
</g>
<!-- Conveyance&#45;&gt;PinboardItem -->
<g id="edge5" class="edge">
<title>Conveyance&#45;&gt;PinboardItem</title>
<path fill="none" stroke="black" d="M227.62,-278.43C234.8,-274.45 241.75,-269.66 247.45,-264 273.13,-238.52 254.92,-213.24 283.45,-191 303.19,-175.61 329.75,-168.53 353.37,-165.42"/>
<polygon fill="black" stroke="black" points="353.61,-168.91 363.18,-164.36 352.86,-161.95 353.61,-168.91"/>
</g>
<!-- Conveyance&#45;&gt;Role -->
<g id="edge6" class="edge">
<title>Conveyance&#45;&gt;Role</title>
<path fill="none" stroke="black" d="M229.17,-278.88C236.02,-274.87 242.44,-269.97 247.45,-264 285.17,-219.07 240.65,-177.12 283.45,-137 306.88,-115.03 343.69,-109.23 371.43,-108.36"/>
<polygon fill="black" stroke="black" points="371.22,-111.87 381.18,-108.27 371.15,-104.87 371.22,-111.87"/>
</g>
<!-- Conveyance&#45;&gt;SubsequentCitation -->
<g id="edge8" class="edge">
<title>Conveyance&#45;&gt;SubsequentCitation</title>
<path fill="none" stroke="black" d="M194.02,-317.39C209.4,-346.96 240.69,-398.29 283.45,-424 381.39,-482.89 424.43,-447.11 536.79,-468 544.7,-469.47 552.97,-471.05 561.2,-472.64"/>
<polygon fill="black" stroke="black" points="560.38,-476.05 570.87,-474.53 561.72,-469.18 560.38,-476.05"/>
</g>
<!-- Conveyance&#45;&gt;VerifierRole -->
<g id="edge12" class="edge">
<title>Conveyance&#45;&gt;VerifierRole</title>
<path fill="none" stroke="black" d="M247.73,-288.44C282.48,-284.9 324.79,-280.59 357.37,-277.27"/>
<polygon fill="black" stroke="black" points="357.36,-280.79 366.96,-276.29 356.65,-273.83 357.36,-280.79"/>
</g>
<!-- Conveyance&#45;&gt;Creator -->
<g id="edge15" class="edge">
<title>Conveyance&#45;&gt;Creator</title>
<path fill="none" stroke="black" stroke-dasharray="5,2" d="M239.14,-272.51C242.22,-269.96 245.03,-267.13 247.45,-264 297.64,-199.12 224.09,-139.61 283.45,-83 324.65,-43.71 481.13,-56.96 536.79,-45 560.12,-39.99 586.16,-32.53 605.2,-26.73"/>
<polygon fill="black" stroke="black" points="237.3,-269.53 231.15,-278.15 241.34,-275.25 237.3,-269.53"/>
</g>
<!-- Conveyance&#45;&gt;Project -->
<g id="edge16" class="edge">
<title>Conveyance&#45;&gt;Project</title>
<path fill="none" stroke="black" stroke-dasharray="5,2" d="M239.25,-272.59C242.3,-270.02 245.08,-267.16 247.45,-264 305.32,-186.85 218.13,-120.96 283.45,-50 308.69,-22.59 353.82,-17.24 382.57,-16.89"/>
<polygon fill="black" stroke="black" points="237.41,-269.61 231.3,-278.26 241.47,-275.31 237.41,-269.61"/>
</g>
<!-- Conveyance&#45;&gt;Sound -->
<g id="edge17" class="edge">
<title>Conveyance&#45;&gt;Sound</title>
<path fill="none" stroke="black" stroke-dasharray="5,2" d="M236.96,-316C251.9,-321.52 268.22,-327.26 283.45,-332 317.42,-342.57 357.33,-352.28 382.9,-358.17"/>
<polygon fill="black" stroke="black" points="238.37,-312.78 227.78,-312.56 235.91,-319.34 238.37,-312.78"/>
</g>
<!-- Conveyance&#45;&gt;Updater -->
<g id="edge18" class="edge">
<title>Conveyance&#45;&gt;Updater</title>
<path fill="none" stroke="black" stroke-dasharray="5,2" d="M259.2,-306.51C331.62,-315.02 443.22,-321.62 536.79,-299 613.39,-280.48 639.92,-274.82 694.54,-218 746.8,-163.63 773.62,-74.5 783.21,-36.31"/>
<polygon fill="black" stroke="black" points="259.78,-303.06 249.43,-305.32 258.93,-310 259.78,-303.06"/>
</g>
<!-- Conveyance&#45;&gt;OriginCitation -->
<g id="edge19" class="edge">
<title>Conveyance&#45;&gt;OriginCitation</title>
<path fill="none" stroke="black" d="M205.67,-325.66C223.87,-348.02 251.68,-376.78 283.45,-391 379.07,-433.79 504.14,-431.22 575.72,-424.96"/>
<polygon fill="none" stroke="black" points="196.36,-320.33 202.63,-315.37 207.59,-321.64 201.32,-326.6 196.36,-320.33"/>
<polyline fill="none" stroke="black" points="204.46,-324.12 205.7,-325.69"/>
<polygon fill="none" stroke="black" points="585.02,-420.07 585.76,-428.04 577.79,-428.78 577.05,-420.81 585.02,-420.07"/>
<polyline fill="none" stroke="black" points="577.42,-424.8 575.43,-424.98"/>
</g>
<!-- Conveyance&#45;&gt;Objects with Conveyances -->
<g id="edge14" class="edge">
<title>Conveyance&#45;&gt;Objects with Conveyances</title>
<path fill="none" stroke="black" stroke-dasharray="5,2" d="M231.84,-271.77C237.12,-269.18 242.41,-266.55 247.45,-264 263.6,-255.84 266.45,-251.18 283.45,-245 298.13,-239.66 314.18,-235.23 329.75,-231.6"/>
<polygon fill="black" stroke="black" points="230.56,-268.5 223.11,-276.03 233.63,-274.79 230.56,-268.5"/>
</g>
<!-- CitationTopic&#45;&gt;Topic -->
<g id="edge11" class="edge">
<title>CitationTopic&#45;&gt;Topic</title>
<path fill="none" stroke="black" stroke-dasharray="1,5" d="M228.21,-550C270.05,-550 331.76,-550 371.2,-550"/>
<polygon fill="black" stroke="black" points="371.16,-553.5 381.16,-550 371.16,-546.5 371.16,-553.5"/>
</g>
<!-- Role&#45;&gt;Verifier -->
<!-- SubsequentCitation&#45;&gt;SubsequentSource -->
<g id="edge9" class="edge">
<title>SubsequentCitation&#45;&gt;SubsequentSource</title>
<path fill="none" stroke="black" stroke-dasharray="1,5" d="M695.03,-487C702.97,-487 711.14,-487 719.2,-487"/>
<polygon fill="black" stroke="black" points="718.95,-490.5 728.95,-487 718.95,-483.5 718.95,-490.5"/>
</g>
<!-- VerifierRole&#45;&gt;Verifier -->
<g id="edge13" class="edge">
<title>VerifierRole&#45;&gt;Verifier</title>
<path fill="none" stroke="black" stroke-dasharray="1,5" d="M451.91,-266.43C476.94,-262.24 509.35,-255.4 536.79,-245 557.1,-237.3 578.27,-225.79 595.55,-215.37"/>
<polygon fill="black" stroke="black" points="597.26,-218.43 603.94,-210.2 593.59,-212.47 597.26,-218.43"/>
</g>
<!-- Creator&#45;&gt;Updater -->
<!-- Project&#45;&gt;Creator -->
<!-- Citation -->
<g id="node1" class="node">
<title>Citation</title>
<g id="a_node1"><a xlink:href="/develop/Data/models.html#citation" xlink:title="Citation" target="_top">
<ellipse fill="#abcdef" stroke="#dddeee" cx="40.6" cy="-495" rx="40.6" ry="18"/>
<text text-anchor="middle" x="40.6" y="-489.95" font-family="Times,serif" font-size="14.00">Citation</text>
</a>
</g>
</g>
<!-- Tag -->
<g id="node2" class="node">
<title>Tag</title>
<g id="a_node2"><a xlink:href="/develop/Data/models.html#tag" xlink:title="Tag" target="_top">
<ellipse fill="#abcdef" stroke="#dddeee" cx="40.6" cy="-239" rx="27" ry="18"/>
<text text-anchor="middle" x="40.6" y="-233.95" font-family="Times,serif" font-size="14.00">Tag</text>
</a>
</g>
</g>
<!-- Note -->
<g id="node3" class="node">
<title>Note</title>
<g id="a_node3"><a xlink:href="/develop/Data/models.html#note" xlink:title="Note" target="_top">
<ellipse fill="#abcdef" stroke="#dddeee" cx="40.6" cy="-295" rx="28.83" ry="18"/>
<text text-anchor="middle" x="40.6" y="-289.95" font-family="Times,serif" font-size="14.00">Note</text>
</a>
</g>
</g>
<!-- Source -->
<g id="node4" class="node">
<title>Source</title>
<g id="a_node4"><a xlink:href="/develop/Data/models.html#source" xlink:title="Source" target="_top">
<path fill="#fedcba" stroke="#dddeee" d="M395.12,-477C395.12,-477 425.12,-477 425.12,-477 431.12,-477 437.12,-483 437.12,-489 437.12,-489 437.12,-501 437.12,-501 437.12,-507 431.12,-513 425.12,-513 425.12,-513 395.12,-513 395.12,-513 389.12,-513 383.12,-507 383.12,-501 383.12,-501 383.12,-489 383.12,-489 383.12,-483 389.12,-477 395.12,-477"/>
<text text-anchor="middle" x="410.12" y="-490.2" font-family="Times,serif" font-size="14.00">Source</text>
</a>
</g>
</g>
<!-- Conveyance -->
<g id="node5" class="node">
<title>Conveyance</title>
<g id="a_node5"><a xlink:href="/develop/Data/models.html#conveyance" xlink:title="Conveyance" target="_top">
<polygon fill="#cdefab" stroke="#dedede" points="243.45,-287.54 243.45,-302.46 207.65,-313 157.01,-313 121.21,-302.46 121.21,-287.54 157.01,-277 207.65,-277 243.45,-287.54"/>
<polygon fill="none" stroke="#dedede" points="247.45,-284.55 247.45,-305.45 208.22,-317 156.43,-317 117.21,-305.45 117.21,-284.55 156.43,-273 208.22,-273 247.45,-284.55"/>
<text text-anchor="middle" x="182.33" y="-289.95" font-family="Times,serif" font-size="14.00">Conveyance</text>
</a>
</g>
</g>
<!-- CitationTopic -->
<g id="node6" class="node">
<title>CitationTopic</title>
<g id="a_node6"><a xlink:href="/develop/Data/models.html#citation-topic" xlink:title="CitationTopic" target="_top">
<polygon fill="#eeefff" stroke="#dddeee" points="227.83,-568 136.83,-568 136.83,-532 227.83,-532 227.83,-568"/>
<text text-anchor="middle" x="182.33" y="-544.95" font-family="Times,serif" font-size="14.00">CitationTopic</text>
</a>
</g>
</g>
<!-- Keyword -->
<g id="node7" class="node">
<title>Keyword</title>
<g id="a_node7"><a xlink:href="/develop/Data/models.html#keyword" xlink:title="Keyword" target="_top">
<polygon fill="#eeefff" stroke="#dddeee" points="215.45,-255 149.2,-255 149.2,-219 215.45,-219 215.45,-255"/>
<text text-anchor="middle" x="182.33" y="-231.95" font-family="Times,serif" font-size="14.00">Keyword</text>
</a>
</g>
</g>
<!-- PinboardItem -->
<g id="node8" class="node">
<title>PinboardItem</title>
<g id="a_node8"><a xlink:href="/develop/Data/models.html#pinboard-item" xlink:title="PinboardItem" target="_top">
<polygon fill="#eeefff" stroke="#dddeee" points="455.24,-182 364.99,-182 364.99,-146 455.24,-146 455.24,-182"/>
<text text-anchor="middle" x="410.12" y="-158.95" font-family="Times,serif" font-size="14.00">PinboardItem</text>
</a>
</g>
</g>
<!-- Role -->
<g id="node9" class="node">
<title>Role</title>
<g id="a_node9"><a xlink:href="/develop/Data/models.html#role" xlink:title="Role" target="_top">
<polygon fill="#eeefff" stroke="#dddeee" points="437.12,-128 383.12,-128 383.12,-92 437.12,-92 437.12,-128"/>
<text text-anchor="middle" x="410.12" y="-104.95" font-family="Times,serif" font-size="14.00">Role</text>
</a>
</g>
</g>
<!-- SubsequentCitation -->
<g id="node10" class="node">
<title>SubsequentCitation</title>
<g id="a_node10"><a xlink:href="/develop/Data/models.html#subsequent-citation" xlink:title="SubsequentCitation" target="_top">
<polygon fill="#eeefff" stroke="#dddeee" points="694.54,-505 572.79,-505 572.79,-469 694.54,-469 694.54,-505"/>
<text text-anchor="middle" x="633.66" y="-481.95" font-family="Times,serif" font-size="14.00">SubsequentCitation</text>
</a>
</g>
</g>
<!-- SubsequentSource -->
<g id="node11" class="node">
<title>SubsequentSource</title>
<g id="a_node11"><a xlink:href="/develop/Data/models.html#subsequent-source" xlink:title="SubsequentSource" target="_top">
<polygon fill="#eeefff" stroke="#dddeee" points="846.29,-505 730.54,-505 730.54,-469 846.29,-469 846.29,-505"/>
<text text-anchor="middle" x="788.41" y="-481.95" font-family="Times,serif" font-size="14.00">SubsequentSource</text>
</a>
</g>
</g>
<!-- Topic -->
<g id="node12" class="node">
<title>Topic</title>
<g id="a_node12"><a xlink:href="/develop/Data/models.html#topic" xlink:title="Topic" target="_top">
<polygon fill="#eeefff" stroke="#dddeee" points="437.12,-568 383.12,-568 383.12,-532 437.12,-532 437.12,-568"/>
<text text-anchor="middle" x="410.12" y="-544.95" font-family="Times,serif" font-size="14.00">Topic</text>
</a>
</g>
</g>
<!-- VerifierRole -->
<g id="node13" class="node">
<title>VerifierRole</title>
<g id="a_node13"><a xlink:href="/develop/Data/models.html#verifier-role" xlink:title="VerifierRole" target="_top">
<polygon fill="#eeefff" stroke="#dddeee" points="451.49,-290 368.74,-290 368.74,-254 451.49,-254 451.49,-290"/>
<text text-anchor="middle" x="410.12" y="-266.95" font-family="Times,serif" font-size="14.00">VerifierRole</text>
</a>
</g>
</g>
<!-- Verifier -->
<g id="node14" class="node">
<title>Verifier</title>
<g id="a_node14"><a xlink:href="/develop/Data/models.html#verifier" xlink:title="Verifier" target="_top">
<polygon fill="#eeefff" stroke="#dddeee" points="662.29,-209 605.04,-209 605.04,-173 662.29,-173 662.29,-209"/>
<text text-anchor="middle" x="633.66" y="-185.95" font-family="Times,serif" font-size="14.00">Verifier</text>
</a>
</g>
</g>
<!-- Creator -->
<g id="node15" class="node">
<title>Creator</title>
<g id="a_node15"><a xlink:href="/develop/Data/models.html#creator" xlink:title="Creator" target="_top">
<polygon fill="#eeefff" stroke="#dddeee" points="661.91,-36 605.41,-36 605.41,0 661.91,0 661.91,-36"/>
<text text-anchor="middle" x="633.66" y="-12.95" font-family="Times,serif" font-size="14.00">Creator</text>
</a>
</g>
</g>
<!-- Project -->
<g id="node16" class="node">
<title>Project</title>
<g id="a_node16"><a xlink:href="/develop/Data/models.html#project" xlink:title="Project" target="_top">
<polygon fill="#eeefff" stroke="#dddeee" points="437.24,-36 382.99,-36 382.99,0 437.24,0 437.24,-36"/>
<text text-anchor="middle" x="410.12" y="-12.95" font-family="Times,serif" font-size="14.00">Project</text>
</a>
</g>
</g>
<!-- Sound -->
<g id="node17" class="node">
<title>Sound</title>
<g id="a_node17"><a xlink:href="/develop/Data/models.html#sound" xlink:title="Sound" target="_top">
<polygon fill="#eeefff" stroke="#dddeee" points="437.12,-382 383.12,-382 383.12,-346 437.12,-346 437.12,-382"/>
<text text-anchor="middle" x="410.12" y="-358.95" font-family="Times,serif" font-size="14.00">Sound</text>
</a>
</g>
</g>
<!-- Updater -->
<g id="node18" class="node">
<title>Updater</title>
<g id="a_node18"><a xlink:href="/develop/Data/models.html#updater" xlink:title="Updater" target="_top">
<polygon fill="#eeefff" stroke="#dddeee" points="818.16,-36 758.66,-36 758.66,0 818.16,0 818.16,-36"/>
<text text-anchor="middle" x="788.41" y="-12.95" font-family="Times,serif" font-size="14.00">Updater</text>
</a>
</g>
</g>
<!-- OriginCitation -->
<g id="node19" class="node">
<title>OriginCitation</title>
<g id="a_node19"><a xlink:href="/develop/Data/models.html#origin-citation" xlink:title="OriginCitation" target="_top">
<polygon fill="#eeefff" stroke="#dddeee" points="681.04,-436 586.29,-436 586.29,-400 681.04,-400 681.04,-436"/>
<text text-anchor="middle" x="633.66" y="-412.95" font-family="Times,serif" font-size="14.00">OriginCitation</text>
</a>
</g>
</g>
<!-- Objects with Conveyances -->
<g id="node20" class="node">
<title>Objects with Conveyances</title>
<g id="a_node20"><a xlink:href="/develop/Data/models.html#objects with conveyance" xlink:title="Objects with Conveyances" target="_top">
<polygon fill="#cdabef" stroke="#dedede" points="536.79,-218 473.45,-236 346.79,-236 283.45,-218 346.79,-200 473.45,-200 536.79,-218"/>
<text text-anchor="middle" x="410.12" y="-212.95" font-family="Times,serif" font-size="14.00">Objects with Conveyances</text>
</a>
</g>
</g>
</g>
</svg>
