<?xml version="1.0" encoding="UTF-8" standalone="no"?>
<!DOCTYPE svg PUBLIC "-//W3C//DTD SVG 1.1//EN"
 "http://www.w3.org/Graphics/SVG/1.1/DTD/svg11.dtd">
<!-- Generated by graphviz version 2.50.0 (20211204.2007)
 -->
<!-- Title: DatasetRecord Pages: 1 -->
<svg width="666pt" height="365pt"
 viewBox="0.00 0.00 666.00 365.15" xmlns="http://www.w3.org/2000/svg" xmlns:xlink="http://www.w3.org/1999/xlink">
<g id="graph0" class="graph" transform="scale(1 1) rotate(0) translate(4 361.15)">
<title>DatasetRecord</title>
<polygon fill="white" stroke="transparent" points="-4,4 -4,-361.15 662,-361.15 662,4 -4,4"/>
<text text-anchor="middle" x="329" y="-22.8" font-family="Times,serif" font-size="14.00">Algorithmically generated relationships for DatasetRecord based on assertions of &#39;has_many&#39;, &#39;has_one&#39;, &#39;belongs_to&#39;. </text>
<text text-anchor="middle" x="329" y="-7.8" font-family="Times,serif" font-size="14.00">Generated 2022&#45;01&#45;25 11:37:39 &#45;0600.</text>
<!-- DatasetRecord&#45;&gt;PinboardItem -->
<g id="edge1" class="edge">
<title>DatasetRecord&#45;&gt;PinboardItem</title>
<path fill="none" stroke="black" d="M184.98,-207.38C203.99,-234.45 238.88,-280.47 276.54,-312.15 277.7,-313.13 278.9,-314.09 280.13,-315.04"/>
<polygon fill="black" stroke="black" points="278.4,-318.1 288.59,-321 282.43,-312.38 278.4,-318.1"/>
</g>
<!-- DatasetRecord&#45;&gt;Role -->
<g id="edge2" class="edge">
<title>DatasetRecord&#45;&gt;Role</title>
<path fill="none" stroke="black" d="M199.91,-206.53C221.04,-221.42 250.19,-241.51 276.54,-258.15 280.18,-260.45 284.01,-262.8 287.86,-265.11"/>
<polygon fill="black" stroke="black" points="286.37,-268.29 296.76,-270.36 289.93,-262.26 286.37,-268.29"/>
</g>
<!-- DatasetRecord&#45;&gt;VerifierRole -->
<g id="edge3" class="edge">
<title>DatasetRecord&#45;&gt;VerifierRole</title>
<path fill="none" stroke="black" d="M221.81,-200.73C238.18,-205.65 256.25,-211.08 272.53,-215.97"/>
<polygon fill="black" stroke="black" points="271.82,-219.41 282.4,-218.94 273.83,-212.71 271.82,-219.41"/>
</g>
<!-- DatasetRecord&#45;&gt;Creator -->
<g id="edge5" class="edge">
<title>DatasetRecord&#45;&gt;Creator</title>
<path fill="none" stroke="black" stroke-dasharray="5,2" d="M250.87,-191.87C289.51,-191.62 335.15,-186.03 371.54,-166.15 397.41,-152.02 416.31,-122.46 426.48,-103.23"/>
<polygon fill="black" stroke="black" points="250.7,-188.37 240.68,-191.82 250.67,-195.37 250.7,-188.37"/>
</g>
<!-- DatasetRecord&#45;&gt;ImportDataset -->
<g id="edge6" class="edge">
<title>DatasetRecord&#45;&gt;ImportDataset</title>
<path fill="none" stroke="black" stroke-dasharray="5,2" d="M231.51,-166.67C246.49,-162.16 262.26,-157.42 276.42,-153.17"/>
<polygon fill="black" stroke="black" points="230.38,-163.35 221.81,-169.58 232.4,-170.05 230.38,-163.35"/>
</g>
<!-- DatasetRecord&#45;&gt;Project -->
<g id="edge7" class="edge">
<title>DatasetRecord&#45;&gt;Project</title>
<path fill="none" stroke="black" stroke-dasharray="5,2" d="M208.19,-157.97C228.29,-143.92 253.48,-126.72 276.54,-112.15 282.85,-108.17 289.76,-104.03 296.27,-100.24"/>
<polygon fill="black" stroke="black" points="206.08,-155.17 199.91,-163.78 210.1,-160.9 206.08,-155.17"/>
</g>
<!-- DatasetRecord&#45;&gt;Updater -->
<g id="edge8" class="edge">
<title>DatasetRecord&#45;&gt;Updater</title>
<path fill="none" stroke="black" stroke-dasharray="5,2" d="M185.67,-153.94C203.11,-123.1 234.46,-77.78 276.54,-58.15 352.26,-22.84 382.59,-41.81 464.54,-58.15 476.64,-60.57 489.31,-65.28 500.22,-70.1"/>
<polygon fill="black" stroke="black" points="182.45,-152.55 180.71,-163 188.59,-155.91 182.45,-152.55"/>
</g>
<!-- Role&#45;&gt;Verifier -->
<!-- VerifierRole&#45;&gt;Verifier -->
<g id="edge4" class="edge">
<title>VerifierRole&#45;&gt;Verifier</title>
<path fill="none" stroke="black" d="M365.68,-241.13C376.06,-243.68 387.16,-246.4 397.38,-248.91"/>
<polygon fill="black" stroke="black" points="396.69,-252.35 407.24,-251.33 398.36,-245.55 396.69,-252.35"/>
</g>
<!-- Creator&#45;&gt;Updater -->
<!-- Project&#45;&gt;Creator -->
<!-- DatasetRecord -->
<g id="node1" class="node">
<title>DatasetRecord</title>
<g id="a_node1"><a xlink:href="/develop/Data/models.html#dataset-record" xlink:title="DatasetRecord" target="_top">
<polygon fill="#cdefab" stroke="#dedede" points="236.57,-177.7 236.57,-192.61 196.99,-203.15 141.01,-203.15 101.43,-192.61 101.43,-177.7 141.01,-167.15 196.99,-167.15 236.57,-177.7"/>
<polygon fill="none" stroke="#dedede" points="240.57,-174.63 240.57,-195.68 197.51,-207.15 140.49,-207.15 97.43,-195.68 97.43,-174.63 140.49,-163.15 197.51,-163.15 240.57,-174.63"/>
<text text-anchor="middle" x="169" y="-181.45" font-family="Times,serif" font-size="14.00">DatasetRecord</text>
</a>
</g>
</g>
<!-- PinboardItem -->
<g id="node2" class="node">
<title>PinboardItem</title>
<g id="a_node2"><a xlink:href="/develop/Data/models.html#pinboard-item" xlink:title="PinboardItem" target="_top">
<polygon fill="#eeefff" stroke="#dddeee" points="369.54,-357.15 278.54,-357.15 278.54,-321.15 369.54,-321.15 369.54,-357.15"/>
<text text-anchor="middle" x="324.04" y="-335.45" font-family="Times,serif" font-size="14.00">PinboardItem</text>
</a>
</g>
</g>
<!-- Role -->
<g id="node3" class="node">
<title>Role</title>
<g id="a_node3"><a xlink:href="/develop/Data/models.html#role" xlink:title="Role" target="_top">
<polygon fill="#eeefff" stroke="#dddeee" points="351.04,-303.15 297.04,-303.15 297.04,-267.15 351.04,-267.15 351.04,-303.15"/>
<text text-anchor="middle" x="324.04" y="-281.45" font-family="Times,serif" font-size="14.00">Role</text>
</a>
</g>
</g>
<!-- VerifierRole -->
<g id="node4" class="node">
<title>VerifierRole</title>
<g id="a_node4"><a xlink:href="/develop/Data/models.html#verifier-role" xlink:title="VerifierRole" target="_top">
<polygon fill="#eeefff" stroke="#dddeee" points="365.54,-249.15 282.54,-249.15 282.54,-213.15 365.54,-213.15 365.54,-249.15"/>
<text text-anchor="middle" x="324.04" y="-227.45" font-family="Times,serif" font-size="14.00">VerifierRole</text>
</a>
</g>
</g>
<!-- Verifier -->
<g id="node5" class="node">
<title>Verifier</title>
<g id="a_node5"><a xlink:href="/develop/Data/models.html#verifier" xlink:title="Verifier" target="_top">
<polygon fill="#eeefff" stroke="#dddeee" points="464.54,-276.15 407.54,-276.15 407.54,-240.15 464.54,-240.15 464.54,-276.15"/>
<text text-anchor="middle" x="436.04" y="-254.45" font-family="Times,serif" font-size="14.00">Verifier</text>
</a>
</g>
</g>
<!-- Creator -->
<g id="node6" class="node">
<title>Creator</title>
<g id="a_node6"><a xlink:href="/develop/Data/models.html#creator" xlink:title="Creator" target="_top">
<polygon fill="#eeefff" stroke="#dddeee" points="464.54,-103.15 407.54,-103.15 407.54,-67.15 464.54,-67.15 464.54,-103.15"/>
<text text-anchor="middle" x="436.04" y="-81.45" font-family="Times,serif" font-size="14.00">Creator</text>
</a>
</g>
</g>
<!-- ImportDataset -->
<g id="node7" class="node">
<title>ImportDataset</title>
<g id="a_node7"><a xlink:href="/develop/Data/models.html#import-dataset" xlink:title="ImportDataset" target="_top">
<polygon fill="#eeefff" stroke="#dddeee" points="371.54,-157.15 276.54,-157.15 276.54,-121.15 371.54,-121.15 371.54,-157.15"/>
<text text-anchor="middle" x="324.04" y="-135.45" font-family="Times,serif" font-size="14.00">ImportDataset</text>
</a>
</g>
</g>
<!-- Project -->
<g id="node8" class="node">
<title>Project</title>
<g id="a_node8"><a xlink:href="/develop/Data/models.html#project" xlink:title="Project" target="_top">
<polygon fill="#eeefff" stroke="#dddeee" points="351.54,-103.15 296.54,-103.15 296.54,-67.15 351.54,-67.15 351.54,-103.15"/>
<text text-anchor="middle" x="324.04" y="-81.45" font-family="Times,serif" font-size="14.00">Project</text>
</a>
</g>
</g>
<!-- Updater -->
<g id="node9" class="node">
<title>Updater</title>
<g id="a_node9"><a xlink:href="/develop/Data/models.html#updater" xlink:title="Updater" target="_top">
<polygon fill="#eeefff" stroke="#dddeee" points="560.54,-103.15 500.54,-103.15 500.54,-67.15 560.54,-67.15 560.54,-103.15"/>
<text text-anchor="middle" x="530.54" y="-81.45" font-family="Times,serif" font-size="14.00">Updater</text>
</a>
</g>
</g>
</g>
</svg>
