<?xml version="1.0" encoding="UTF-8" standalone="no"?>
<!DOCTYPE svg PUBLIC "-//W3C//DTD SVG 1.1//EN"
 "http://www.w3.org/Graphics/SVG/1.1/DTD/svg11.dtd">
<!-- Generated by graphviz version 2.50.0 (20211204.2007)
 -->
<!-- Title: DatasetRecordField Pages: 1 -->
<svg width="694pt" height="352pt"
 viewBox="0.00 0.00 694.00 352.00" xmlns="http://www.w3.org/2000/svg" xmlns:xlink="http://www.w3.org/1999/xlink">
<g id="graph0" class="graph" transform="scale(1 1) rotate(0) translate(4 348)">
<title>DatasetRecordField</title>
<polygon fill="white" stroke="transparent" points="-4,4 -4,-348 690,-348 690,4 -4,4"/>
<text text-anchor="middle" x="343" y="-22.8" font-family="Times,serif" font-size="14.00">Algorithmically generated relationships for DatasetRecordField based on assertions of &#39;has_many&#39;, &#39;has_one&#39;, &#39;belongs_to&#39;. </text>
<text text-anchor="middle" x="343" y="-7.8" font-family="Times,serif" font-size="14.00">Generated 2022&#45;01&#45;25 11:37:41 &#45;0600.</text>
<!-- DatasetRecordField&#45;&gt;PinboardItem -->
<g id="edge1" class="edge">
<title>DatasetRecordField&#45;&gt;PinboardItem</title>
<path fill="none" stroke="black" d="M254.62,-213.09C279.15,-235.97 319.56,-272.06 357.73,-299 359.35,-300.14 361.01,-301.27 362.71,-302.4"/>
<polygon fill="black" stroke="black" points="361.06,-305.49 371.38,-307.87 364.8,-299.57 361.06,-305.49"/>
</g>
<!-- DatasetRecordField&#45;&gt;Role -->
<g id="edge2" class="edge">
<title>DatasetRecordField&#45;&gt;Role</title>
<path fill="none" stroke="black" d="M275.21,-211.44C304.35,-225.06 342.16,-242.74 369.4,-255.48"/>
<polygon fill="black" stroke="black" points="368.02,-258.7 378.56,-259.76 370.98,-252.35 368.02,-258.7"/>
</g>
<!-- DatasetRecordField&#45;&gt;VerifierRole -->
<g id="edge3" class="edge">
<title>DatasetRecordField&#45;&gt;VerifierRole</title>
<path fill="none" stroke="black" d="M312.79,-203.67C326.8,-205.85 341,-208.07 353.91,-210.08"/>
<polygon fill="black" stroke="black" points="353.54,-213.56 363.96,-211.65 354.62,-206.65 353.54,-213.56"/>
</g>
<!-- DatasetRecordField&#45;&gt;DatasetRecord -->
<g id="edge5" class="edge">
<title>DatasetRecordField&#45;&gt;DatasetRecord</title>
<path fill="none" stroke="black" stroke-dasharray="5,2" d="M322.84,-176.76C334.79,-174.9 346.63,-173.06 357.43,-171.37"/>
<polygon fill="black" stroke="black" points="322.13,-173.33 312.79,-178.33 323.21,-180.25 322.13,-173.33"/>
</g>
<!-- DatasetRecordField&#45;&gt;ImportDataset -->
<g id="edge6" class="edge">
<title>DatasetRecordField&#45;&gt;ImportDataset</title>
<path fill="none" stroke="black" stroke-dasharray="1,5" d="M284.31,-166.31C310.66,-153.99 341.97,-139.35 366.05,-128.09"/>
<polygon fill="black" stroke="black" points="282.79,-163.15 275.21,-170.56 285.76,-169.5 282.79,-163.15"/>
</g>
<!-- DatasetRecordField&#45;&gt;Project -->
<g id="edge7" class="edge">
<title>DatasetRecordField&#45;&gt;Project</title>
<path fill="none" stroke="black" stroke-dasharray="1,5" d="M262.24,-161.85C287.02,-139.07 323.29,-107.31 357.73,-83 364.04,-78.55 371.13,-74.18 377.85,-70.3"/>
<polygon fill="black" stroke="black" points="259.58,-159.54 254.62,-168.91 264.34,-164.68 259.58,-159.54"/>
</g>
<!-- Role&#45;&gt;Verifier -->
<!-- VerifierRole&#45;&gt;Verifier -->
<g id="edge4" class="edge">
<title>VerifierRole&#45;&gt;Verifier</title>
<path fill="none" stroke="black" d="M447.25,-227.9C457.78,-230.47 469.09,-233.24 479.47,-235.77"/>
<polygon fill="black" stroke="black" points="478.94,-239.25 489.49,-238.22 480.6,-232.45 478.94,-239.25"/>
</g>
<!-- DatasetRecordField -->
<g id="node1" class="node">
<title>DatasetRecordField</title>
<g id="a_node1"><a xlink:href="/develop/Data/models.html#dataset-record-field" xlink:title="DatasetRecordField" target="_top">
<polygon fill="#cdefab" stroke="#dedede" points="317.96,-183.54 317.96,-198.46 266.73,-209 194.27,-209 143.04,-198.46 143.04,-183.54 194.27,-173 266.73,-173 317.96,-183.54"/>
<polygon fill="none" stroke="#dedede" points="321.97,-180.29 321.97,-201.71 267.14,-213 193.86,-213 139.03,-201.71 139.03,-180.29 193.86,-169 267.14,-169 321.97,-180.29"/>
<text text-anchor="middle" x="230.5" y="-187.3" font-family="Times,serif" font-size="14.00">DatasetRecordField</text>
</a>
</g>
</g>
<!-- PinboardItem -->
<g id="node2" class="node">
<title>PinboardItem</title>
<g id="a_node2"><a xlink:href="/develop/Data/models.html#pinboard-item" xlink:title="PinboardItem" target="_top">
<polygon fill="#eeefff" stroke="#dddeee" points="451.23,-344 360.23,-344 360.23,-308 451.23,-308 451.23,-344"/>
<text text-anchor="middle" x="405.73" y="-322.3" font-family="Times,serif" font-size="14.00">PinboardItem</text>
</a>
</g>
</g>
<!-- Role -->
<g id="node3" class="node">
<title>Role</title>
<g id="a_node3"><a xlink:href="/develop/Data/models.html#role" xlink:title="Role" target="_top">
<polygon fill="#eeefff" stroke="#dddeee" points="432.73,-290 378.73,-290 378.73,-254 432.73,-254 432.73,-290"/>
<text text-anchor="middle" x="405.73" y="-268.3" font-family="Times,serif" font-size="14.00">Role</text>
</a>
</g>
</g>
<!-- VerifierRole -->
<g id="node4" class="node">
<title>VerifierRole</title>
<g id="a_node4"><a xlink:href="/develop/Data/models.html#verifier-role" xlink:title="VerifierRole" target="_top">
<polygon fill="#eeefff" stroke="#dddeee" points="447.23,-236 364.23,-236 364.23,-200 447.23,-200 447.23,-236"/>
<text text-anchor="middle" x="405.73" y="-214.3" font-family="Times,serif" font-size="14.00">VerifierRole</text>
</a>
</g>
</g>
<!-- Verifier -->
<g id="node5" class="node">
<title>Verifier</title>
<g id="a_node5"><a xlink:href="/develop/Data/models.html#verifier" xlink:title="Verifier" target="_top">
<polygon fill="#eeefff" stroke="#dddeee" points="546.73,-263 489.73,-263 489.73,-227 546.73,-227 546.73,-263"/>
<text text-anchor="middle" x="518.23" y="-241.3" font-family="Times,serif" font-size="14.00">Verifier</text>
</a>
</g>
</g>
<!-- DatasetRecord -->
<g id="node6" class="node">
<title>DatasetRecord</title>
<g id="a_node6"><a xlink:href="/develop/Data/models.html#dataset-record" xlink:title="DatasetRecord" target="_top">
<polygon fill="#eeefff" stroke="#dddeee" points="453.73,-182 357.73,-182 357.73,-146 453.73,-146 453.73,-182"/>
<text text-anchor="middle" x="405.73" y="-160.3" font-family="Times,serif" font-size="14.00">DatasetRecord</text>
</a>
</g>
</g>
<!-- ImportDataset -->
<g id="node7" class="node">
<title>ImportDataset</title>
<g id="a_node7"><a xlink:href="/develop/Data/models.html#import-dataset" xlink:title="ImportDataset" target="_top">
<polygon fill="#eeefff" stroke="#dddeee" points="453.23,-128 358.23,-128 358.23,-92 453.23,-92 453.23,-128"/>
<text text-anchor="middle" x="405.73" y="-106.3" font-family="Times,serif" font-size="14.00">ImportDataset</text>
</a>
</g>
</g>
<!-- Project -->
<g id="node8" class="node">
<title>Project</title>
<g id="a_node8"><a xlink:href="/develop/Data/models.html#project" xlink:title="Project" target="_top">
<polygon fill="#eeefff" stroke="#dddeee" points="433.23,-74 378.23,-74 378.23,-38 433.23,-38 433.23,-74"/>
<text text-anchor="middle" x="405.73" y="-52.3" font-family="Times,serif" font-size="14.00">Project</text>
</a>
</g>
</g>
</g>
</svg>
