<?xml version="1.0" encoding="UTF-8" standalone="no"?>
<!DOCTYPE svg PUBLIC "-//W3C//DTD SVG 1.1//EN"
 "http://www.w3.org/Graphics/SVG/1.1/DTD/svg11.dtd">
<!-- Generated by graphviz version 2.50.0 (20211204.2007)
 -->
<!-- Title: DataAttribute Pages: 1 -->
<svg width="744pt" height="576pt"
 viewBox="0.00 0.00 743.70 576.00" xmlns="http://www.w3.org/2000/svg" xmlns:xlink="http://www.w3.org/1999/xlink">
<g id="graph0" class="graph" transform="scale(1 1) rotate(0) translate(4 572)">
<title>DataAttribute</title>
<polygon fill="white" stroke="transparent" points="-4,4 -4,-572 739.7,-572 739.7,4 -4,4"/>
<!-- DataAttribute&#45;&gt;Citation -->
<g id="edge2" class="edge">
<title>DataAttribute&#45;&gt;Citation</title>
<path fill="none" stroke="black" d="M68.02,-262.67C68.02,-208.87 68.02,-155.07 68.02,-101.26"/>
<polygon fill="black" stroke="black" points="71.52,-101.22 68.02,-91.22 64.52,-101.22 71.52,-101.22"/>
</g>
<!-- DataAttribute&#45;&gt;Source -->
<g id="edge17" class="edge">
<title>DataAttribute&#45;&gt;Source</title>
<path fill="none" stroke="black" stroke-dasharray="1,5" d="M78.75,-253.17C92.77,-212.78 122.53,-143.83 172.04,-106 201.29,-83.65 244.3,-76.38 271.69,-74.05"/>
<polygon fill="black" stroke="black" points="75.39,-252.19 75.53,-262.79 82.03,-254.42 75.39,-252.19"/>
</g>
<!-- DataAttribute&#45;&gt;PinboardItem -->
<g id="edge3" class="edge">
<title>DataAttribute&#45;&gt;PinboardItem</title>
<path fill="none" stroke="black" d="M136.13,-292.92C170.17,-296.93 210.99,-301.75 243.1,-305.54"/>
<polygon fill="black" stroke="black" points="242.86,-309.03 253.2,-306.73 243.68,-302.08 242.86,-309.03"/>
</g>
<!-- DataAttribute&#45;&gt;Role -->
<g id="edge4" class="edge">
<title>DataAttribute&#45;&gt;Role</title>
<path fill="none" stroke="black" d="M136.13,-277.08C177.07,-272.25 227.82,-266.26 261.43,-262.3"/>
<polygon fill="black" stroke="black" points="262.19,-265.73 271.71,-261.09 261.37,-258.78 262.19,-265.73"/>
</g>
<!-- DataAttribute&#45;&gt;SubsequentCitation -->
<g id="edge6" class="edge">
<title>DataAttribute&#45;&gt;SubsequentCitation</title>
<path fill="none" stroke="black" d="M101.17,-264.5C120.88,-252.87 147.06,-239.07 172.04,-231 198.01,-222.61 356.93,-201.71 451.35,-189.76"/>
<polygon fill="black" stroke="black" points="451.92,-193.21 461.41,-188.49 451.05,-186.27 451.92,-193.21"/>
</g>
<!-- DataAttribute&#45;&gt;VerifierRole -->
<g id="edge9" class="edge">
<title>DataAttribute&#45;&gt;VerifierRole</title>
<path fill="none" stroke="black" d="M84.02,-307.42C101.94,-332.35 134.27,-371.87 172.04,-393 194.9,-405.79 223.21,-412.53 247.19,-416.08"/>
<polygon fill="black" stroke="black" points="246.8,-419.56 257.17,-417.41 247.72,-412.62 246.8,-419.56"/>
</g>
<!-- DataAttribute&#45;&gt;Creator -->
<g id="edge12" class="edge">
<title>DataAttribute&#45;&gt;Creator</title>
<path fill="none" stroke="black" stroke-dasharray="5,2" d="M76.46,-316.99C88.52,-361.19 116.75,-440 172.04,-480 264.68,-547.03 314.13,-497.93 425.7,-523 449.01,-528.24 475.09,-535.67 494.17,-541.42"/>
<polygon fill="black" stroke="black" points="79.78,-315.86 73.87,-307.07 73.01,-317.63 79.78,-315.86"/>
</g>
<!-- DataAttribute&#45;&gt;Predicate -->
<g id="edge13" class="edge">
<title>DataAttribute&#45;&gt;Predicate</title>
<path fill="none" stroke="black" stroke-dasharray="5,2" d="M96.69,-255.52C116.08,-236.5 143.55,-212.65 172.04,-198 201.6,-182.79 238.87,-174.48 265.15,-170.18"/>
<polygon fill="black" stroke="black" points="94,-253.26 89.4,-262.81 98.95,-258.21 94,-253.26"/>
</g>
<!-- DataAttribute&#45;&gt;Project -->
<g id="edge14" class="edge">
<title>DataAttribute&#45;&gt;Project</title>
<path fill="none" stroke="black" stroke-dasharray="5,2" d="M74.07,-317.14C83.75,-367.67 109.75,-465.35 172.04,-518 200.1,-541.72 243.44,-548.21 271.22,-549.79"/>
<polygon fill="black" stroke="black" points="77.48,-316.32 72.25,-307.11 70.59,-317.57 77.48,-316.32"/>
</g>
<!-- DataAttribute&#45;&gt;Updater -->
<g id="edge15" class="edge">
<title>DataAttribute&#45;&gt;Updater</title>
<path fill="none" stroke="black" stroke-dasharray="5,2" d="M79.71,-316.77C94.23,-354.58 124.03,-416.44 172.04,-447 267.94,-508.05 314.22,-457.69 425.7,-480 497.06,-494.28 513.64,-503.3 583.7,-523 605.06,-529.01 629.12,-536 647.42,-541.36"/>
<polygon fill="black" stroke="black" points="82.94,-315.41 76.18,-307.25 76.38,-317.84 82.94,-315.41"/>
</g>
<!-- DataAttribute&#45;&gt;OriginCitation -->
<g id="edge16" class="edge">
<title>DataAttribute&#45;&gt;OriginCitation</title>
<path fill="none" stroke="black" stroke-dasharray="1,5" d="M81.85,-253.42C97.61,-219.05 127.82,-165.46 172.04,-139 197.52,-123.75 385.65,-106.88 474.93,-99.64"/>
<polygon fill="black" stroke="black" points="78.46,-252.44 77.6,-263 84.86,-255.27 78.46,-252.44"/>
</g>
<!-- DataAttribute&#45;&gt;Objects with Data attributes -->
<g id="edge11" class="edge">
<title>DataAttribute&#45;&gt;Objects with Data attributes</title>
<path fill="none" stroke="black" stroke-dasharray="5,2" d="M110.76,-310.19C129.05,-320.34 151.08,-331.42 172.04,-339 186.95,-344.4 203.28,-348.88 219.08,-352.53"/>
<polygon fill="black" stroke="black" points="112.26,-307.02 101.84,-305.14 108.82,-313.11 112.26,-307.02"/>
</g>
<!-- Citation&#45;&gt;Source -->
<g id="edge5" class="edge">
<title>Citation&#45;&gt;Source</title>
<path fill="none" stroke="black" d="M107.06,-73C150.07,-73 219.55,-73 261.74,-73"/>
<polygon fill="black" stroke="black" points="261.85,-76.5 271.85,-73 261.85,-69.5 261.85,-76.5"/>
</g>
<!-- Citation&#45;&gt;CitationTopic -->
<g id="edge1" class="edge">
<title>Citation&#45;&gt;CitationTopic</title>
<path fill="none" stroke="black" d="M101.84,-63.59C122.02,-57.93 148.44,-50.73 172.04,-45 195.1,-39.4 220.69,-33.79 242.74,-29.16"/>
<polygon fill="black" stroke="black" points="243.52,-32.57 252.6,-27.1 242.09,-25.72 243.52,-32.57"/>
</g>
<!-- Source&#45;&gt;SubsequentCitation -->
<!-- Source&#45;&gt;OriginCitation -->
<!-- CitationTopic&#45;&gt;Topic -->
<g id="edge8" class="edge">
<title>CitationTopic&#45;&gt;Topic</title>
<path fill="none" stroke="black" d="M345.03,-18C386.48,-18 447.12,-18 485.48,-18"/>
<polygon fill="black" stroke="black" points="485.67,-21.5 495.67,-18 485.67,-14.5 485.67,-21.5"/>
</g>
<!-- Role&#45;&gt;Verifier -->
<!-- SubsequentCitation&#45;&gt;SubsequentSource -->
<g id="edge7" class="edge">
<title>SubsequentCitation&#45;&gt;SubsequentSource</title>
<path fill="none" stroke="black" d="M583.73,-181C592.06,-181 600.67,-181 609.13,-181"/>
<polygon fill="black" stroke="black" points="609.35,-184.5 619.35,-181 609.34,-177.5 609.35,-184.5"/>
</g>
<!-- VerifierRole&#45;&gt;Verifier -->
<g id="edge10" class="edge">
<title>VerifierRole&#45;&gt;Verifier</title>
<path fill="none" stroke="black" d="M340.42,-414.48C365.52,-410.29 398.12,-403.44 425.7,-393 446.57,-385.1 468.35,-373.19 485.88,-362.56"/>
<polygon fill="black" stroke="black" points="487.97,-365.38 494.64,-357.14 484.29,-359.43 487.97,-365.38"/>
</g>
<!-- Creator&#45;&gt;Updater -->
<!-- Project&#45;&gt;Creator -->
<!-- DataAttribute -->
<g id="node1" class="node">
<title>DataAttribute</title>
<g id="a_node1"><a xlink:href="/develop/Data/models.html#data-attribute" xlink:title="DataAttribute" target="_top">
<polygon fill="#cdefab" stroke="#dedede" points="132.05,-277.54 132.05,-292.46 94.54,-303 41.49,-303 3.98,-292.46 3.98,-277.54 41.49,-267 94.54,-267 132.05,-277.54"/>
<polygon fill="none" stroke="#dedede" points="136.05,-274.51 136.05,-295.49 95.09,-307 40.94,-307 -0.02,-295.49 -0.02,-274.51 40.94,-263 95.09,-263 136.05,-274.51"/>
<text text-anchor="middle" x="68.02" y="-281.3" font-family="Times,serif" font-size="14.00">DataAttribute</text>
</a>
</g>
</g>
<!-- Citation -->
<g id="node2" class="node">
<title>Citation</title>
<g id="a_node2"><a xlink:href="/develop/Data/models.html#citation" xlink:title="Citation" target="_top">
<ellipse fill="#abcdef" stroke="#dddeee" cx="68.02" cy="-73" rx="38.99" ry="18"/>
<text text-anchor="middle" x="68.02" y="-69.3" font-family="Times,serif" font-size="14.00">Citation</text>
</a>
</g>
</g>
<!-- Source -->
<g id="node3" class="node">
<title>Source</title>
<g id="a_node3"><a xlink:href="/develop/Data/models.html#source" xlink:title="Source" target="_top">
<path fill="#fedcba" stroke="#dddeee" d="M283.87,-55C283.87,-55 313.87,-55 313.87,-55 319.87,-55 325.87,-61 325.87,-67 325.87,-67 325.87,-79 325.87,-79 325.87,-85 319.87,-91 313.87,-91 313.87,-91 283.87,-91 283.87,-91 277.87,-91 271.87,-85 271.87,-79 271.87,-79 271.87,-67 271.87,-67 271.87,-61 277.87,-55 283.87,-55"/>
<text text-anchor="middle" x="298.87" y="-69.3" font-family="Times,serif" font-size="14.00">Source</text>
</a>
</g>
</g>
<!-- CitationTopic -->
<g id="node4" class="node">
<title>CitationTopic</title>
<g id="a_node4"><a xlink:href="/develop/Data/models.html#citation-topic" xlink:title="CitationTopic" target="_top">
<polygon fill="#eeefff" stroke="#dddeee" points="344.87,-36 252.87,-36 252.87,0 344.87,0 344.87,-36"/>
<text text-anchor="middle" x="298.87" y="-14.3" font-family="Times,serif" font-size="14.00">CitationTopic</text>
</a>
</g>
</g>
<!-- PinboardItem -->
<g id="node5" class="node">
<title>PinboardItem</title>
<g id="a_node5"><a xlink:href="/develop/Data/models.html#pinboard-item" xlink:title="PinboardItem" target="_top">
<polygon fill="#eeefff" stroke="#dddeee" points="344.37,-330 253.37,-330 253.37,-294 344.37,-294 344.37,-330"/>
<text text-anchor="middle" x="298.87" y="-308.3" font-family="Times,serif" font-size="14.00">PinboardItem</text>
</a>
</g>
</g>
<!-- Role -->
<g id="node6" class="node">
<title>Role</title>
<g id="a_node6"><a xlink:href="/develop/Data/models.html#role" xlink:title="Role" target="_top">
<polygon fill="#eeefff" stroke="#dddeee" points="325.87,-276 271.87,-276 271.87,-240 325.87,-240 325.87,-276"/>
<text text-anchor="middle" x="298.87" y="-254.3" font-family="Times,serif" font-size="14.00">Role</text>
</a>
</g>
</g>
<!-- SubsequentCitation -->
<g id="node7" class="node">
<title>SubsequentCitation</title>
<g id="a_node7"><a xlink:href="/develop/Data/models.html#subsequent-citation" xlink:title="SubsequentCitation" target="_top">
<polygon fill="#eeefff" stroke="#dddeee" points="583.7,-199 461.7,-199 461.7,-163 583.7,-163 583.7,-199"/>
<text text-anchor="middle" x="522.7" y="-177.3" font-family="Times,serif" font-size="14.00">SubsequentCitation</text>
</a>
</g>
</g>
<!-- SubsequentSource -->
<g id="node8" class="node">
<title>SubsequentSource</title>
<g id="a_node8"><a xlink:href="/develop/Data/models.html#subsequent-source" xlink:title="SubsequentSource" target="_top">
<polygon fill="#eeefff" stroke="#dddeee" points="735.7,-199 619.7,-199 619.7,-163 735.7,-163 735.7,-199"/>
<text text-anchor="middle" x="677.7" y="-177.3" font-family="Times,serif" font-size="14.00">SubsequentSource</text>
</a>
</g>
</g>
<!-- Topic -->
<g id="node9" class="node">
<title>Topic</title>
<g id="a_node9"><a xlink:href="/develop/Data/models.html#topic" xlink:title="Topic" target="_top">
<polygon fill="#eeefff" stroke="#dddeee" points="549.7,-36 495.7,-36 495.7,0 549.7,0 549.7,-36"/>
<text text-anchor="middle" x="522.7" y="-14.3" font-family="Times,serif" font-size="14.00">Topic</text>
</a>
</g>
</g>
<!-- VerifierRole -->
<g id="node10" class="node">
<title>VerifierRole</title>
<g id="a_node10"><a xlink:href="/develop/Data/models.html#verifier-role" xlink:title="VerifierRole" target="_top">
<polygon fill="#eeefff" stroke="#dddeee" points="340.37,-438 257.37,-438 257.37,-402 340.37,-402 340.37,-438"/>
<text text-anchor="middle" x="298.87" y="-416.3" font-family="Times,serif" font-size="14.00">VerifierRole</text>
</a>
</g>
</g>
<!-- Verifier -->
<g id="node11" class="node">
<title>Verifier</title>
<g id="a_node11"><a xlink:href="/develop/Data/models.html#verifier" xlink:title="Verifier" target="_top">
<polygon fill="#eeefff" stroke="#dddeee" points="551.2,-357 494.2,-357 494.2,-321 551.2,-321 551.2,-357"/>
<text text-anchor="middle" x="522.7" y="-335.3" font-family="Times,serif" font-size="14.00">Verifier</text>
</a>
</g>
</g>
<!-- Creator -->
<g id="node12" class="node">
<title>Creator</title>
<g id="a_node12"><a xlink:href="/develop/Data/models.html#creator" xlink:title="Creator" target="_top">
<polygon fill="#eeefff" stroke="#dddeee" points="551.2,-568 494.2,-568 494.2,-532 551.2,-532 551.2,-568"/>
<text text-anchor="middle" x="522.7" y="-546.3" font-family="Times,serif" font-size="14.00">Creator</text>
</a>
</g>
</g>
<!-- Predicate -->
<g id="node13" class="node">
<title>Predicate</title>
<g id="a_node13"><a xlink:href="/develop/Data/models.html#predicate" xlink:title="Predicate" target="_top">
<polygon fill="#eeefff" stroke="#dddeee" points="332.37,-184 265.37,-184 265.37,-148 332.37,-148 332.37,-184"/>
<text text-anchor="middle" x="298.87" y="-162.3" font-family="Times,serif" font-size="14.00">Predicate</text>
</a>
</g>
</g>
<!-- Project -->
<g id="node14" class="node">
<title>Project</title>
<g id="a_node14"><a xlink:href="/develop/Data/models.html#project" xlink:title="Project" target="_top">
<polygon fill="#eeefff" stroke="#dddeee" points="326.37,-568 271.37,-568 271.37,-532 326.37,-532 326.37,-568"/>
<text text-anchor="middle" x="298.87" y="-546.3" font-family="Times,serif" font-size="14.00">Project</text>
</a>
</g>
</g>
<!-- Updater -->
<g id="node15" class="node">
<title>Updater</title>
<g id="a_node15"><a xlink:href="/develop/Data/models.html#updater" xlink:title="Updater" target="_top">
<polygon fill="#eeefff" stroke="#dddeee" points="707.7,-568 647.7,-568 647.7,-532 707.7,-532 707.7,-568"/>
<text text-anchor="middle" x="677.7" y="-546.3" font-family="Times,serif" font-size="14.00">Updater</text>
</a>
</g>
</g>
<!-- OriginCitation -->
<g id="node16" class="node">
<title>OriginCitation</title>
<g id="a_node16"><a xlink:href="/develop/Data/models.html#origin-citation" xlink:title="OriginCitation" target="_top">
<polygon fill="#eeefff" stroke="#dddeee" points="570.2,-114 475.2,-114 475.2,-78 570.2,-78 570.2,-114"/>
<text text-anchor="middle" x="522.7" y="-92.3" font-family="Times,serif" font-size="14.00">OriginCitation</text>
</a>
</g>
</g>
<!-- Objects with Data attributes -->
<g id="node17" class="node">
<title>Objects with Data attributes</title>
<g id="a_node17"><a xlink:href="/develop/Data/models.html#objects with data attribute" xlink:title="Objects with Data attributes" target="_top">
<polygon fill="#cdabef" stroke="#dedede" points="425.53,-366 362.2,-384 235.54,-384 172.2,-366 235.54,-348 362.2,-348 425.53,-366"/>
<text text-anchor="middle" x="298.87" y="-362.3" font-family="Times,serif" font-size="14.00">Objects with Data attributes</text>
</a>
</g>
</g>
</g>
</svg>
