<?xml version="1.0" encoding="UTF-8" standalone="no"?>
<!DOCTYPE svg PUBLIC "-//W3C//DTD SVG 1.1//EN"
 "http://www.w3.org/Graphics/SVG/1.1/DTD/svg11.dtd">
<!-- Generated by graphviz version 2.50.0 (20211204.2007)
 -->
<!-- Title: DatasetRecord Pages: 1 -->
<svg width="471pt" height="327pt"
 viewBox="0.00 0.00 471.07 327.15" xmlns="http://www.w3.org/2000/svg" xmlns:xlink="http://www.w3.org/1999/xlink">
<g id="graph0" class="graph" transform="scale(1 1) rotate(0) translate(4 323.15)">
<title>DatasetRecord</title>
<polygon fill="white" stroke="transparent" points="-4,4 -4,-323.15 467.07,-323.15 467.07,4 -4,4"/>
<!-- DatasetRecord&#45;&gt;PinboardItem -->
<g id="edge1" class="edge">
<title>DatasetRecord&#45;&gt;PinboardItem</title>
<path fill="none" stroke="black" d="M87.52,-169.38C106.53,-196.45 141.41,-242.47 179.07,-274.15 180.23,-275.13 181.43,-276.09 182.66,-277.04"/>
<polygon fill="black" stroke="black" points="180.93,-280.1 191.12,-283 184.96,-274.38 180.93,-280.1"/>
</g>
<!-- DatasetRecord&#45;&gt;Role -->
<g id="edge2" class="edge">
<title>DatasetRecord&#45;&gt;Role</title>
<path fill="none" stroke="black" d="M102.44,-168.53C123.58,-183.42 152.72,-203.51 179.07,-220.15 182.71,-222.45 186.55,-224.8 190.4,-227.11"/>
<polygon fill="black" stroke="black" points="188.9,-230.29 199.3,-232.36 192.46,-224.26 188.9,-230.29"/>
</g>
<!-- DatasetRecord&#45;&gt;VerifierRole -->
<g id="edge3" class="edge">
<title>DatasetRecord&#45;&gt;VerifierRole</title>
<path fill="none" stroke="black" d="M124.35,-162.73C140.72,-167.65 158.78,-173.08 175.06,-177.97"/>
<polygon fill="black" stroke="black" points="174.35,-181.41 184.94,-180.94 176.37,-174.71 174.35,-181.41"/>
</g>
<!-- DatasetRecord&#45;&gt;Creator -->
<g id="edge5" class="edge">
<title>DatasetRecord&#45;&gt;Creator</title>
<path fill="none" stroke="black" stroke-dasharray="5,2" d="M153.4,-153.87C192.05,-153.62 237.69,-148.03 274.07,-128.15 299.95,-114.02 318.85,-84.46 329.01,-65.23"/>
<polygon fill="black" stroke="black" points="153.24,-150.37 143.22,-153.82 153.2,-157.37 153.24,-150.37"/>
</g>
<!-- DatasetRecord&#45;&gt;ImportDataset -->
<g id="edge6" class="edge">
<title>DatasetRecord&#45;&gt;ImportDataset</title>
<path fill="none" stroke="black" stroke-dasharray="5,2" d="M134.05,-128.67C149.02,-124.16 164.8,-119.42 178.95,-115.17"/>
<polygon fill="black" stroke="black" points="132.92,-125.35 124.35,-131.58 134.93,-132.05 132.92,-125.35"/>
</g>
<!-- DatasetRecord&#45;&gt;Project -->
<g id="edge7" class="edge">
<title>DatasetRecord&#45;&gt;Project</title>
<path fill="none" stroke="black" stroke-dasharray="5,2" d="M110.72,-119.97C130.82,-105.92 156.02,-88.72 179.07,-74.15 185.38,-70.17 192.29,-66.03 198.81,-62.24"/>
<polygon fill="black" stroke="black" points="108.62,-117.17 102.44,-125.78 112.64,-122.9 108.62,-117.17"/>
</g>
<!-- DatasetRecord&#45;&gt;Updater -->
<g id="edge8" class="edge">
<title>DatasetRecord&#45;&gt;Updater</title>
<path fill="none" stroke="black" stroke-dasharray="5,2" d="M88.21,-115.94C105.65,-85.1 137,-39.78 179.07,-20.15 254.8,15.16 285.13,-3.81 367.07,-20.15 379.17,-22.57 391.84,-27.28 402.75,-32.1"/>
<polygon fill="black" stroke="black" points="84.98,-114.55 83.25,-125 91.12,-117.91 84.98,-114.55"/>
</g>
<!-- Role&#45;&gt;Verifier -->
<!-- VerifierRole&#45;&gt;Verifier -->
<g id="edge4" class="edge">
<title>VerifierRole&#45;&gt;Verifier</title>
<path fill="none" stroke="black" stroke-dasharray="1,5" d="M268.22,-203.13C278.59,-205.68 289.7,-208.4 299.91,-210.91"/>
<polygon fill="black" stroke="black" points="299.23,-214.35 309.77,-213.33 300.9,-207.55 299.23,-214.35"/>
</g>
<!-- Creator&#45;&gt;Updater -->
<!-- Project&#45;&gt;Creator -->
<!-- DatasetRecord -->
<g id="node1" class="node">
<title>DatasetRecord</title>
<g id="a_node1"><a xlink:href="/develop/Data/models.html#dataset-record" xlink:title="DatasetRecord" target="_top">
<polygon fill="#cdefab" stroke="#dedede" points="139.1,-139.7 139.1,-154.61 99.52,-165.15 43.55,-165.15 3.97,-154.61 3.97,-139.7 43.55,-129.15 99.52,-129.15 139.1,-139.7"/>
<polygon fill="none" stroke="#dedede" points="143.11,-136.63 143.11,-157.68 100.05,-169.15 43.02,-169.15 -0.04,-157.68 -0.04,-136.63 43.02,-125.15 100.05,-125.15 143.11,-136.63"/>
<text text-anchor="middle" x="71.54" y="-143.45" font-family="Times,serif" font-size="14.00">DatasetRecord</text>
</a>
</g>
</g>
<!-- PinboardItem -->
<g id="node2" class="node">
<title>PinboardItem</title>
<g id="a_node2"><a xlink:href="/develop/Data/models.html#pinboard-item" xlink:title="PinboardItem" target="_top">
<polygon fill="#eeefff" stroke="#dddeee" points="272.07,-319.15 181.07,-319.15 181.07,-283.15 272.07,-283.15 272.07,-319.15"/>
<text text-anchor="middle" x="226.57" y="-297.45" font-family="Times,serif" font-size="14.00">PinboardItem</text>
</a>
</g>
</g>
<!-- Role -->
<g id="node3" class="node">
<title>Role</title>
<g id="a_node3"><a xlink:href="/develop/Data/models.html#role" xlink:title="Role" target="_top">
<polygon fill="#eeefff" stroke="#dddeee" points="253.57,-265.15 199.57,-265.15 199.57,-229.15 253.57,-229.15 253.57,-265.15"/>
<text text-anchor="middle" x="226.57" y="-243.45" font-family="Times,serif" font-size="14.00">Role</text>
</a>
</g>
</g>
<!-- VerifierRole -->
<g id="node4" class="node">
<title>VerifierRole</title>
<g id="a_node4"><a xlink:href="/develop/Data/models.html#verifier-role" xlink:title="VerifierRole" target="_top">
<polygon fill="#eeefff" stroke="#dddeee" points="268.07,-211.15 185.07,-211.15 185.07,-175.15 268.07,-175.15 268.07,-211.15"/>
<text text-anchor="middle" x="226.57" y="-189.45" font-family="Times,serif" font-size="14.00">VerifierRole</text>
</a>
</g>
</g>
<!-- Verifier -->
<g id="node5" class="node">
<title>Verifier</title>
<g id="a_node5"><a xlink:href="/develop/Data/models.html#verifier" xlink:title="Verifier" target="_top">
<polygon fill="#eeefff" stroke="#dddeee" points="367.07,-238.15 310.07,-238.15 310.07,-202.15 367.07,-202.15 367.07,-238.15"/>
<text text-anchor="middle" x="338.57" y="-216.45" font-family="Times,serif" font-size="14.00">Verifier</text>
</a>
</g>
</g>
<!-- Creator -->
<g id="node6" class="node">
<title>Creator</title>
<g id="a_node6"><a xlink:href="/develop/Data/models.html#creator" xlink:title="Creator" target="_top">
<polygon fill="#eeefff" stroke="#dddeee" points="367.07,-65.15 310.07,-65.15 310.07,-29.15 367.07,-29.15 367.07,-65.15"/>
<text text-anchor="middle" x="338.57" y="-43.45" font-family="Times,serif" font-size="14.00">Creator</text>
</a>
</g>
</g>
<!-- ImportDataset -->
<g id="node7" class="node">
<title>ImportDataset</title>
<g id="a_node7"><a xlink:href="/develop/Data/models.html#import-dataset" xlink:title="ImportDataset" target="_top">
<polygon fill="#eeefff" stroke="#dddeee" points="274.07,-119.15 179.07,-119.15 179.07,-83.15 274.07,-83.15 274.07,-119.15"/>
<text text-anchor="middle" x="226.57" y="-97.45" font-family="Times,serif" font-size="14.00">ImportDataset</text>
</a>
</g>
</g>
<!-- Project -->
<g id="node8" class="node">
<title>Project</title>
<g id="a_node8"><a xlink:href="/develop/Data/models.html#project" xlink:title="Project" target="_top">
<polygon fill="#eeefff" stroke="#dddeee" points="254.07,-65.15 199.07,-65.15 199.07,-29.15 254.07,-29.15 254.07,-65.15"/>
<text text-anchor="middle" x="226.57" y="-43.45" font-family="Times,serif" font-size="14.00">Project</text>
</a>
</g>
</g>
<!-- Updater -->
<g id="node9" class="node">
<title>Updater</title>
<g id="a_node9"><a xlink:href="/develop/Data/models.html#updater" xlink:title="Updater" target="_top">
<polygon fill="#eeefff" stroke="#dddeee" points="463.07,-65.15 403.07,-65.15 403.07,-29.15 463.07,-29.15 463.07,-65.15"/>
<text text-anchor="middle" x="433.07" y="-43.45" font-family="Times,serif" font-size="14.00">Updater</text>
</a>
</g>
</g>
</g>
</svg>
