<?xml version="1.0" encoding="UTF-8" standalone="no"?>
<!DOCTYPE svg PUBLIC "-//W3C//DTD SVG 1.1//EN"
 "http://www.w3.org/Graphics/SVG/1.1/DTD/svg11.dtd">
<!-- Generated by graphviz version 2.50.0 (20211204.2007)
 -->
<!-- Title: DataAttribute Pages: 1 -->
<svg width="744pt" height="614pt"
 viewBox="0.00 0.00 743.70 614.00" xmlns="http://www.w3.org/2000/svg" xmlns:xlink="http://www.w3.org/1999/xlink">
<g id="graph0" class="graph" transform="scale(1 1) rotate(0) translate(4 610)">
<title>DataAttribute</title>
<polygon fill="white" stroke="transparent" points="-4,4 -4,-610 739.7,-610 739.7,4 -4,4"/>
<text text-anchor="middle" x="367.85" y="-22.8" font-family="Times,serif" font-size="14.00">Algorithmically generated relationships for DataAttribute based on assertions of &#39;has_many&#39;, &#39;has_one&#39;, &#39;belongs_to&#39;. </text>
<text text-anchor="middle" x="367.85" y="-7.8" font-family="Times,serif" font-size="14.00">Generated 2022&#45;01&#45;25 11:42:25 &#45;0600.</text>
<!-- DataAttribute&#45;&gt;Citation -->
<g id="edge2" class="edge">
<title>DataAttribute&#45;&gt;Citation</title>
<path fill="none" stroke="black" d="M68.02,-300.67C68.02,-246.87 68.02,-193.07 68.02,-139.26"/>
<polygon fill="black" stroke="black" points="71.52,-139.22 68.02,-129.22 64.52,-139.22 71.52,-139.22"/>
</g>
<!-- DataAttribute&#45;&gt;Source -->
<g id="edge17" class="edge">
<title>DataAttribute&#45;&gt;Source</title>
<path fill="none" stroke="black" stroke-dasharray="1,5" d="M78.75,-291.17C92.77,-250.78 122.53,-181.83 172.04,-144 201.29,-121.65 244.3,-114.38 271.69,-112.05"/>
<polygon fill="black" stroke="black" points="75.39,-290.19 75.53,-300.79 82.03,-292.42 75.39,-290.19"/>
</g>
<!-- DataAttribute&#45;&gt;PinboardItem -->
<g id="edge3" class="edge">
<title>DataAttribute&#45;&gt;PinboardItem</title>
<path fill="none" stroke="black" d="M136.13,-330.92C170.17,-334.93 210.99,-339.75 243.1,-343.54"/>
<polygon fill="black" stroke="black" points="242.86,-347.03 253.2,-344.73 243.68,-340.08 242.86,-347.03"/>
</g>
<!-- DataAttribute&#45;&gt;Role -->
<g id="edge4" class="edge">
<title>DataAttribute&#45;&gt;Role</title>
<path fill="none" stroke="black" d="M136.13,-315.08C177.07,-310.25 227.82,-304.26 261.43,-300.3"/>
<polygon fill="black" stroke="black" points="262.19,-303.73 271.71,-299.09 261.37,-296.78 262.19,-303.73"/>
</g>
<!-- DataAttribute&#45;&gt;SubsequentCitation -->
<g id="edge6" class="edge">
<title>DataAttribute&#45;&gt;SubsequentCitation</title>
<path fill="none" stroke="black" d="M101.17,-302.5C120.88,-290.87 147.06,-277.07 172.04,-269 198.01,-260.61 356.93,-239.71 451.35,-227.76"/>
<polygon fill="black" stroke="black" points="451.92,-231.21 461.41,-226.49 451.05,-224.27 451.92,-231.21"/>
</g>
<!-- DataAttribute&#45;&gt;VerifierRole -->
<g id="edge9" class="edge">
<title>DataAttribute&#45;&gt;VerifierRole</title>
<path fill="none" stroke="black" d="M84.02,-345.42C101.94,-370.35 134.27,-409.87 172.04,-431 194.9,-443.79 223.21,-450.53 247.19,-454.08"/>
<polygon fill="black" stroke="black" points="246.8,-457.56 257.17,-455.41 247.72,-450.62 246.8,-457.56"/>
</g>
<!-- DataAttribute&#45;&gt;Creator -->
<g id="edge12" class="edge">
<title>DataAttribute&#45;&gt;Creator</title>
<path fill="none" stroke="black" stroke-dasharray="5,2" d="M76.46,-354.99C88.52,-399.19 116.75,-478 172.04,-518 264.68,-585.03 314.13,-535.93 425.7,-561 449.01,-566.24 475.09,-573.67 494.17,-579.42"/>
<polygon fill="black" stroke="black" points="79.78,-353.86 73.87,-345.07 73.01,-355.63 79.78,-353.86"/>
</g>
<!-- DataAttribute&#45;&gt;Predicate -->
<g id="edge13" class="edge">
<title>DataAttribute&#45;&gt;Predicate</title>
<path fill="none" stroke="black" stroke-dasharray="5,2" d="M96.69,-293.52C116.08,-274.5 143.55,-250.65 172.04,-236 201.6,-220.79 238.87,-212.48 265.15,-208.18"/>
<polygon fill="black" stroke="black" points="94,-291.26 89.4,-300.81 98.95,-296.21 94,-291.26"/>
</g>
<!-- DataAttribute&#45;&gt;Project -->
<g id="edge14" class="edge">
<title>DataAttribute&#45;&gt;Project</title>
<path fill="none" stroke="black" stroke-dasharray="5,2" d="M74.07,-355.14C83.75,-405.67 109.75,-503.35 172.04,-556 200.1,-579.72 243.44,-586.21 271.22,-587.79"/>
<polygon fill="black" stroke="black" points="77.48,-354.32 72.25,-345.11 70.59,-355.57 77.48,-354.32"/>
</g>
<!-- DataAttribute&#45;&gt;Updater -->
<g id="edge15" class="edge">
<title>DataAttribute&#45;&gt;Updater</title>
<path fill="none" stroke="black" stroke-dasharray="5,2" d="M79.71,-354.77C94.23,-392.58 124.03,-454.44 172.04,-485 267.94,-546.05 314.22,-495.69 425.7,-518 497.06,-532.28 513.64,-541.3 583.7,-561 605.06,-567.01 629.12,-574 647.42,-579.36"/>
<polygon fill="black" stroke="black" points="82.94,-353.41 76.18,-345.25 76.38,-355.84 82.94,-353.41"/>
</g>
<!-- DataAttribute&#45;&gt;OriginCitation -->
<g id="edge16" class="edge">
<title>DataAttribute&#45;&gt;OriginCitation</title>
<path fill="none" stroke="black" stroke-dasharray="1,5" d="M81.85,-291.42C97.61,-257.05 127.82,-203.46 172.04,-177 197.52,-161.75 385.65,-144.88 474.93,-137.64"/>
<polygon fill="black" stroke="black" points="78.46,-290.44 77.6,-301 84.86,-293.27 78.46,-290.44"/>
</g>
<!-- DataAttribute&#45;&gt;Objects with Data attributes -->
<g id="edge11" class="edge">
<title>DataAttribute&#45;&gt;Objects with Data attributes</title>
<path fill="none" stroke="black" stroke-dasharray="5,2" d="M110.76,-348.19C129.05,-358.34 151.08,-369.42 172.04,-377 186.95,-382.4 203.28,-386.88 219.08,-390.53"/>
<polygon fill="black" stroke="black" points="112.26,-345.02 101.84,-343.14 108.82,-351.11 112.26,-345.02"/>
</g>
<!-- Citation&#45;&gt;Source -->
<g id="edge5" class="edge">
<title>Citation&#45;&gt;Source</title>
<path fill="none" stroke="black" d="M107.06,-111C150.07,-111 219.55,-111 261.74,-111"/>
<polygon fill="black" stroke="black" points="261.85,-114.5 271.85,-111 261.85,-107.5 261.85,-114.5"/>
</g>
<!-- Citation&#45;&gt;CitationTopic -->
<g id="edge1" class="edge">
<title>Citation&#45;&gt;CitationTopic</title>
<path fill="none" stroke="black" d="M101.84,-101.59C122.02,-95.93 148.44,-88.73 172.04,-83 195.1,-77.4 220.69,-71.79 242.74,-67.16"/>
<polygon fill="black" stroke="black" points="243.52,-70.57 252.6,-65.1 242.09,-63.72 243.52,-70.57"/>
</g>
<!-- Source&#45;&gt;SubsequentCitation -->
<!-- Source&#45;&gt;OriginCitation -->
<!-- CitationTopic&#45;&gt;Topic -->
<g id="edge8" class="edge">
<title>CitationTopic&#45;&gt;Topic</title>
<path fill="none" stroke="black" d="M345.03,-56C386.48,-56 447.12,-56 485.48,-56"/>
<polygon fill="black" stroke="black" points="485.67,-59.5 495.67,-56 485.67,-52.5 485.67,-59.5"/>
</g>
<!-- Role&#45;&gt;Verifier -->
<!-- SubsequentCitation&#45;&gt;SubsequentSource -->
<g id="edge7" class="edge">
<title>SubsequentCitation&#45;&gt;SubsequentSource</title>
<path fill="none" stroke="black" d="M583.73,-219C592.06,-219 600.67,-219 609.13,-219"/>
<polygon fill="black" stroke="black" points="609.35,-222.5 619.35,-219 609.34,-215.5 609.35,-222.5"/>
</g>
<!-- VerifierRole&#45;&gt;Verifier -->
<g id="edge10" class="edge">
<title>VerifierRole&#45;&gt;Verifier</title>
<path fill="none" stroke="black" d="M340.42,-452.48C365.52,-448.29 398.12,-441.44 425.7,-431 446.57,-423.1 468.35,-411.19 485.88,-400.56"/>
<polygon fill="black" stroke="black" points="487.97,-403.38 494.64,-395.14 484.29,-397.43 487.97,-403.38"/>
</g>
<!-- Creator&#45;&gt;Updater -->
<!-- Project&#45;&gt;Creator -->
<!-- DataAttribute -->
<g id="node1" class="node">
<title>DataAttribute</title>
<g id="a_node1"><a xlink:href="/develop/Data/models.html#data-attribute" xlink:title="DataAttribute" target="_top">
<polygon fill="#cdefab" stroke="#dedede" points="132.05,-315.54 132.05,-330.46 94.54,-341 41.49,-341 3.98,-330.46 3.98,-315.54 41.49,-305 94.54,-305 132.05,-315.54"/>
<polygon fill="none" stroke="#dedede" points="136.05,-312.51 136.05,-333.49 95.09,-345 40.94,-345 -0.02,-333.49 -0.02,-312.51 40.94,-301 95.09,-301 136.05,-312.51"/>
<text text-anchor="middle" x="68.02" y="-319.3" font-family="Times,serif" font-size="14.00">DataAttribute</text>
</a>
</g>
</g>
<!-- Citation -->
<g id="node2" class="node">
<title>Citation</title>
<g id="a_node2"><a xlink:href="/develop/Data/models.html#citation" xlink:title="Citation" target="_top">
<ellipse fill="#abcdef" stroke="#dddeee" cx="68.02" cy="-111" rx="38.99" ry="18"/>
<text text-anchor="middle" x="68.02" y="-107.3" font-family="Times,serif" font-size="14.00">Citation</text>
</a>
</g>
</g>
<!-- Source -->
<g id="node3" class="node">
<title>Source</title>
<g id="a_node3"><a xlink:href="/develop/Data/models.html#source" xlink:title="Source" target="_top">
<path fill="#fedcba" stroke="#dddeee" d="M283.87,-93C283.87,-93 313.87,-93 313.87,-93 319.87,-93 325.87,-99 325.87,-105 325.87,-105 325.87,-117 325.87,-117 325.87,-123 319.87,-129 313.87,-129 313.87,-129 283.87,-129 283.87,-129 277.87,-129 271.87,-123 271.87,-117 271.87,-117 271.87,-105 271.87,-105 271.87,-99 277.87,-93 283.87,-93"/>
<text text-anchor="middle" x="298.87" y="-107.3" font-family="Times,serif" font-size="14.00">Source</text>
</a>
</g>
</g>
<!-- CitationTopic -->
<g id="node4" class="node">
<title>CitationTopic</title>
<g id="a_node4"><a xlink:href="/develop/Data/models.html#citation-topic" xlink:title="CitationTopic" target="_top">
<polygon fill="#eeefff" stroke="#dddeee" points="344.87,-74 252.87,-74 252.87,-38 344.87,-38 344.87,-74"/>
<text text-anchor="middle" x="298.87" y="-52.3" font-family="Times,serif" font-size="14.00">CitationTopic</text>
</a>
</g>
</g>
<!-- PinboardItem -->
<g id="node5" class="node">
<title>PinboardItem</title>
<g id="a_node5"><a xlink:href="/develop/Data/models.html#pinboard-item" xlink:title="PinboardItem" target="_top">
<polygon fill="#eeefff" stroke="#dddeee" points="344.37,-368 253.37,-368 253.37,-332 344.37,-332 344.37,-368"/>
<text text-anchor="middle" x="298.87" y="-346.3" font-family="Times,serif" font-size="14.00">PinboardItem</text>
</a>
</g>
</g>
<!-- Role -->
<g id="node6" class="node">
<title>Role</title>
<g id="a_node6"><a xlink:href="/develop/Data/models.html#role" xlink:title="Role" target="_top">
<polygon fill="#eeefff" stroke="#dddeee" points="325.87,-314 271.87,-314 271.87,-278 325.87,-278 325.87,-314"/>
<text text-anchor="middle" x="298.87" y="-292.3" font-family="Times,serif" font-size="14.00">Role</text>
</a>
</g>
</g>
<!-- SubsequentCitation -->
<g id="node7" class="node">
<title>SubsequentCitation</title>
<g id="a_node7"><a xlink:href="/develop/Data/models.html#subsequent-citation" xlink:title="SubsequentCitation" target="_top">
<polygon fill="#eeefff" stroke="#dddeee" points="583.7,-237 461.7,-237 461.7,-201 583.7,-201 583.7,-237"/>
<text text-anchor="middle" x="522.7" y="-215.3" font-family="Times,serif" font-size="14.00">SubsequentCitation</text>
</a>
</g>
</g>
<!-- SubsequentSource -->
<g id="node8" class="node">
<title>SubsequentSource</title>
<g id="a_node8"><a xlink:href="/develop/Data/models.html#subsequent-source" xlink:title="SubsequentSource" target="_top">
<polygon fill="#eeefff" stroke="#dddeee" points="735.7,-237 619.7,-237 619.7,-201 735.7,-201 735.7,-237"/>
<text text-anchor="middle" x="677.7" y="-215.3" font-family="Times,serif" font-size="14.00">SubsequentSource</text>
</a>
</g>
</g>
<!-- Topic -->
<g id="node9" class="node">
<title>Topic</title>
<g id="a_node9"><a xlink:href="/develop/Data/models.html#topic" xlink:title="Topic" target="_top">
<polygon fill="#eeefff" stroke="#dddeee" points="549.7,-74 495.7,-74 495.7,-38 549.7,-38 549.7,-74"/>
<text text-anchor="middle" x="522.7" y="-52.3" font-family="Times,serif" font-size="14.00">Topic</text>
</a>
</g>
</g>
<!-- VerifierRole -->
<g id="node10" class="node">
<title>VerifierRole</title>
<g id="a_node10"><a xlink:href="/develop/Data/models.html#verifier-role" xlink:title="VerifierRole" target="_top">
<polygon fill="#eeefff" stroke="#dddeee" points="340.37,-476 257.37,-476 257.37,-440 340.37,-440 340.37,-476"/>
<text text-anchor="middle" x="298.87" y="-454.3" font-family="Times,serif" font-size="14.00">VerifierRole</text>
</a>
</g>
</g>
<!-- Verifier -->
<g id="node11" class="node">
<title>Verifier</title>
<g id="a_node11"><a xlink:href="/develop/Data/models.html#verifier" xlink:title="Verifier" target="_top">
<polygon fill="#eeefff" stroke="#dddeee" points="551.2,-395 494.2,-395 494.2,-359 551.2,-359 551.2,-395"/>
<text text-anchor="middle" x="522.7" y="-373.3" font-family="Times,serif" font-size="14.00">Verifier</text>
</a>
</g>
</g>
<!-- Creator -->
<g id="node12" class="node">
<title>Creator</title>
<g id="a_node12"><a xlink:href="/develop/Data/models.html#creator" xlink:title="Creator" target="_top">
<polygon fill="#eeefff" stroke="#dddeee" points="551.2,-606 494.2,-606 494.2,-570 551.2,-570 551.2,-606"/>
<text text-anchor="middle" x="522.7" y="-584.3" font-family="Times,serif" font-size="14.00">Creator</text>
</a>
</g>
</g>
<!-- Predicate -->
<g id="node13" class="node">
<title>Predicate</title>
<g id="a_node13"><a xlink:href="/develop/Data/models.html#predicate" xlink:title="Predicate" target="_top">
<polygon fill="#eeefff" stroke="#dddeee" points="332.37,-222 265.37,-222 265.37,-186 332.37,-186 332.37,-222"/>
<text text-anchor="middle" x="298.87" y="-200.3" font-family="Times,serif" font-size="14.00">Predicate</text>
</a>
</g>
</g>
<!-- Project -->
<g id="node14" class="node">
<title>Project</title>
<g id="a_node14"><a xlink:href="/develop/Data/models.html#project" xlink:title="Project" target="_top">
<polygon fill="#eeefff" stroke="#dddeee" points="326.37,-606 271.37,-606 271.37,-570 326.37,-570 326.37,-606"/>
<text text-anchor="middle" x="298.87" y="-584.3" font-family="Times,serif" font-size="14.00">Project</text>
</a>
</g>
</g>
<!-- Updater -->
<g id="node15" class="node">
<title>Updater</title>
<g id="a_node15"><a xlink:href="/develop/Data/models.html#updater" xlink:title="Updater" target="_top">
<polygon fill="#eeefff" stroke="#dddeee" points="707.7,-606 647.7,-606 647.7,-570 707.7,-570 707.7,-606"/>
<text text-anchor="middle" x="677.7" y="-584.3" font-family="Times,serif" font-size="14.00">Updater</text>
</a>
</g>
</g>
<!-- OriginCitation -->
<g id="node16" class="node">
<title>OriginCitation</title>
<g id="a_node16"><a xlink:href="/develop/Data/models.html#origin-citation" xlink:title="OriginCitation" target="_top">
<polygon fill="#eeefff" stroke="#dddeee" points="570.2,-152 475.2,-152 475.2,-116 570.2,-116 570.2,-152"/>
<text text-anchor="middle" x="522.7" y="-130.3" font-family="Times,serif" font-size="14.00">OriginCitation</text>
</a>
</g>
</g>
<!-- Objects with Data attributes -->
<g id="node17" class="node">
<title>Objects with Data attributes</title>
<g id="a_node17"><a xlink:href="/develop/Data/models.html#objects with data attribute" xlink:title="Objects with Data attributes" target="_top">
<polygon fill="#cdabef" stroke="#dedede" points="425.53,-404 362.2,-422 235.54,-422 172.2,-404 235.54,-386 362.2,-386 425.53,-404"/>
<text text-anchor="middle" x="298.87" y="-400.3" font-family="Times,serif" font-size="14.00">Objects with Data attributes</text>
</a>
</g>
</g>
</g>
</svg>
