<?xml version="1.0" encoding="UTF-8" standalone="no"?>
<!DOCTYPE svg PUBLIC "-//W3C//DTD SVG 1.1//EN"
 "http://www.w3.org/Graphics/SVG/1.1/DTD/svg11.dtd">
<!-- Generated by graphviz version 2.50.0 (20211204.2007)
 -->
<!-- Title: Depiction Pages: 1 -->
<svg width="598pt" height="552pt"
 viewBox="0.00 0.00 597.72 552.00" xmlns="http://www.w3.org/2000/svg" xmlns:xlink="http://www.w3.org/1999/xlink">
<g id="graph0" class="graph" transform="scale(1 1) rotate(0) translate(4 548)">
<title>Depiction</title>
<polygon fill="white" stroke="transparent" points="-4,4 -4,-548 593.72,-548 593.72,4 -4,4"/>
<!-- Depiction&#45;&gt;DataAttribute -->
<g id="edge1" class="edge">
<title>Depiction&#45;&gt;DataAttribute</title>
<path fill="none" stroke="black" d="M38.29,-258.58C25.75,-252.55 13.57,-243.99 6.28,-232 -2.03,-218.33 -2.13,-209.61 6.28,-196 11.59,-187.42 19.55,-180.86 28.37,-175.84"/>
<polygon fill="black" stroke="black" points="30.02,-178.93 37.41,-171.33 26.9,-172.66 30.02,-178.93"/>
</g>
<!-- Depiction&#45;&gt;Tag -->
<g id="edge5" class="edge">
<title>Depiction&#45;&gt;Tag</title>
<path fill="none" stroke="black" d="M83.43,-249.88C83.43,-247.38 83.43,-244.89 83.43,-242.39"/>
<polygon fill="black" stroke="black" points="86.93,-242.12 83.43,-232.12 79.93,-242.13 86.93,-242.12"/>
</g>
<!-- Depiction&#45;&gt;PinboardItem -->
<g id="edge3" class="edge">
<title>Depiction&#45;&gt;PinboardItem</title>
<path fill="none" stroke="black" d="M87.01,-294.24C93.53,-339.88 114.95,-444.41 178.57,-499 193.9,-512.15 214.62,-519.09 233.95,-522.7"/>
<polygon fill="black" stroke="black" points="233.47,-526.16 243.9,-524.29 234.58,-519.25 233.47,-526.16"/>
</g>
<!-- Depiction&#45;&gt;Role -->
<g id="edge4" class="edge">
<title>Depiction&#45;&gt;Role</title>
<path fill="none" stroke="black" d="M90.13,-294.13C100.89,-331.25 127.79,-405.87 178.57,-445 199.66,-461.25 229.2,-467.86 252.37,-470.49"/>
<polygon fill="black" stroke="black" points="252.23,-473.99 262.51,-471.43 252.88,-467.02 252.23,-473.99"/>
</g>
<!-- Depiction&#45;&gt;VerifierRole -->
<g id="edge6" class="edge">
<title>Depiction&#45;&gt;VerifierRole</title>
<path fill="none" stroke="black" d="M97.1,-294.29C112.91,-320.12 142.33,-362.17 178.57,-386 196.35,-397.69 218.49,-405.2 238.23,-409.98"/>
<polygon fill="black" stroke="black" points="237.48,-413.4 248,-412.18 239.01,-406.57 237.48,-413.4"/>
</g>
<!-- Depiction&#45;&gt;Creator -->
<g id="edge8" class="edge">
<title>Depiction&#45;&gt;Creator</title>
<path fill="none" stroke="black" stroke-dasharray="5,2" d="M108.78,-301.78C126.05,-320.41 150.98,-342.76 178.57,-353 271.14,-387.34 311.94,-396.21 400.72,-353 427.39,-340.02 446.17,-309.81 456.08,-290.18"/>
<polygon fill="black" stroke="black" points="111.15,-299.18 101.87,-294.07 105.94,-303.85 111.15,-299.18"/>
</g>
<!-- Depiction&#45;&gt;Image -->
<g id="edge10" class="edge">
<title>Depiction&#45;&gt;Image</title>
<path fill="none" stroke="black" stroke-dasharray="5,2" d="M139.04,-288.05C151.98,-291.74 165.74,-295.59 178.57,-299 207.1,-306.59 239.98,-314.55 262.33,-319.85"/>
<polygon fill="black" stroke="black" points="139.92,-284.66 129.34,-285.27 137.99,-291.39 139.92,-284.66"/>
</g>
<!-- Depiction&#45;&gt;Project -->
<g id="edge11" class="edge">
<title>Depiction&#45;&gt;Project</title>
<path fill="none" stroke="black" stroke-dasharray="5,2" d="M146.87,-272C185.46,-272 233.01,-272 262.06,-272"/>
<polygon fill="black" stroke="black" points="146.75,-268.5 136.75,-272 146.75,-275.5 146.75,-268.5"/>
</g>
<!-- Depiction&#45;&gt;SledImage -->
<g id="edge12" class="edge">
<title>Depiction&#45;&gt;SledImage</title>
<path fill="none" stroke="black" stroke-dasharray="5,2" d="M139.04,-255.95C151.98,-252.26 165.74,-248.41 178.57,-245 202.91,-238.53 230.43,-231.78 251.86,-226.65"/>
<polygon fill="black" stroke="black" points="137.99,-252.61 129.34,-258.73 139.92,-259.34 137.99,-252.61"/>
</g>
<!-- Depiction&#45;&gt;Updater -->
<g id="edge13" class="edge">
<title>Depiction&#45;&gt;Updater</title>
<path fill="none" stroke="black" stroke-dasharray="5,2" d="M129.71,-250.58C134.25,-247.64 138.64,-244.44 142.57,-241 163.19,-222.98 154.2,-203.48 178.57,-191 266.45,-145.99 304.74,-167.83 400.72,-191 450.91,-203.12 503.06,-234.05 533.12,-254"/>
<polygon fill="black" stroke="black" points="127.62,-247.75 120.84,-255.89 131.21,-253.75 127.62,-247.75"/>
</g>
<!-- Depiction&#45;&gt;SqedDepiction -->
<g id="edge14" class="edge">
<title>Depiction&#45;&gt;SqedDepiction</title>
<path fill="none" stroke="black" stroke-dasharray="1,5" d="M131.35,-250.79C135.43,-247.85 139.26,-244.59 142.57,-241 169.84,-211.45 148.4,-184.58 178.57,-158 195.75,-142.87 219.7,-134.88 240.88,-130.66"/>
<polygon fill="black" stroke="black" points="129.21,-248 122.71,-256.36 133.01,-253.88 129.21,-248"/>
</g>
<!-- Depiction&#45;&gt;Objects with Depictions -->
<g id="edge9" class="edge">
<title>Depiction&#45;&gt;Objects with Depictions</title>
<path fill="none" stroke="black" stroke-dasharray="5,2" d="M132.14,-251.19C136.03,-248.18 139.6,-244.8 142.57,-241 182.73,-189.75 132.36,-144.86 178.57,-99 186.53,-91.1 196.41,-85.38 206.95,-81.26"/>
<polygon fill="black" stroke="black" points="130.1,-248.34 123.79,-256.85 134.03,-254.14 130.1,-248.34"/>
</g>
<!-- Tag&#45;&gt;Keyword -->
<g id="edge2" class="edge">
<title>Tag&#45;&gt;Keyword</title>
<path fill="none" stroke="black" d="M109.01,-207.94C120.74,-203.86 134.05,-197.28 142.57,-187 184.13,-136.88 132.36,-90.86 178.57,-45 196.14,-27.57 223,-20.75 245.79,-18.32"/>
<polygon fill="black" stroke="black" points="246.25,-21.8 255.93,-17.49 245.68,-14.82 246.25,-21.8"/>
</g>
<!-- Role&#45;&gt;Verifier -->
<!-- VerifierRole&#45;&gt;Verifier -->
<g id="edge7" class="edge">
<title>VerifierRole&#45;&gt;Verifier</title>
<path fill="none" stroke="black" d="M331.34,-424.33C360.04,-428.79 398.21,-434.73 426.28,-439.1"/>
<polygon fill="black" stroke="black" points="426.08,-442.61 436.5,-440.69 427.15,-435.69 426.08,-442.61"/>
</g>
<!-- Creator&#45;&gt;Updater -->
<!-- Project&#45;&gt;Creator -->
<!-- Depiction -->
<g id="node1" class="node">
<title>Depiction</title>
<g id="a_node1"><a xlink:href="/develop/Data/models.html#depiction" xlink:title="Depiction" target="_top">
<polygon fill="#cdefab" stroke="#dedede" points="132.9,-264.54 132.9,-279.46 103.92,-290 62.94,-290 33.96,-279.46 33.96,-264.54 62.94,-254 103.92,-254 132.9,-264.54"/>
<polygon fill="none" stroke="#dedede" points="136.92,-261.75 136.92,-282.25 104.63,-294 62.23,-294 29.94,-282.25 29.94,-261.75 62.23,-250 104.63,-250 136.92,-261.75"/>
<text text-anchor="middle" x="83.43" y="-268.3" font-family="Times,serif" font-size="14.00">Depiction</text>
</a>
</g>
</g>
<!-- DataAttribute -->
<g id="node2" class="node">
<title>DataAttribute</title>
<g id="a_node2"><a xlink:href="/develop/Data/models.html#data-attribute" xlink:title="DataAttribute" target="_top">
<ellipse fill="#abcdef" stroke="#dddeee" cx="83.43" cy="-160" rx="59.29" ry="18"/>
<text text-anchor="middle" x="83.43" y="-156.3" font-family="Times,serif" font-size="14.00">DataAttribute</text>
</a>
</g>
</g>
<!-- Tag -->
<g id="node3" class="node">
<title>Tag</title>
<g id="a_node3"><a xlink:href="/develop/Data/models.html#tag" xlink:title="Tag" target="_top">
<ellipse fill="#abcdef" stroke="#dddeee" cx="83.43" cy="-214" rx="27" ry="18"/>
<text text-anchor="middle" x="83.43" y="-210.3" font-family="Times,serif" font-size="14.00">Tag</text>
</a>
</g>
</g>
<!-- Keyword -->
<g id="node4" class="node">
<title>Keyword</title>
<g id="a_node4"><a xlink:href="/develop/Data/models.html#keyword" xlink:title="Keyword" target="_top">
<polygon fill="#eeefff" stroke="#dddeee" points="323.15,-36 256.15,-36 256.15,0 323.15,0 323.15,-36"/>
<text text-anchor="middle" x="289.65" y="-14.3" font-family="Times,serif" font-size="14.00">Keyword</text>
</a>
</g>
</g>
<!-- PinboardItem -->
<g id="node5" class="node">
<title>PinboardItem</title>
<g id="a_node5"><a xlink:href="/develop/Data/models.html#pinboard-item" xlink:title="PinboardItem" target="_top">
<polygon fill="#eeefff" stroke="#dddeee" points="335.15,-544 244.15,-544 244.15,-508 335.15,-508 335.15,-544"/>
<text text-anchor="middle" x="289.65" y="-522.3" font-family="Times,serif" font-size="14.00">PinboardItem</text>
</a>
</g>
</g>
<!-- Role -->
<g id="node6" class="node">
<title>Role</title>
<g id="a_node6"><a xlink:href="/develop/Data/models.html#role" xlink:title="Role" target="_top">
<polygon fill="#eeefff" stroke="#dddeee" points="316.65,-490 262.65,-490 262.65,-454 316.65,-454 316.65,-490"/>
<text text-anchor="middle" x="289.65" y="-468.3" font-family="Times,serif" font-size="14.00">Role</text>
</a>
</g>
</g>
<!-- VerifierRole -->
<g id="node7" class="node">
<title>VerifierRole</title>
<g id="a_node7"><a xlink:href="/develop/Data/models.html#verifier-role" xlink:title="VerifierRole" target="_top">
<polygon fill="#eeefff" stroke="#dddeee" points="331.15,-436 248.15,-436 248.15,-400 331.15,-400 331.15,-436"/>
<text text-anchor="middle" x="289.65" y="-414.3" font-family="Times,serif" font-size="14.00">VerifierRole</text>
</a>
</g>
</g>
<!-- Verifier -->
<g id="node8" class="node">
<title>Verifier</title>
<g id="a_node8"><a xlink:href="/develop/Data/models.html#verifier" xlink:title="Verifier" target="_top">
<polygon fill="#eeefff" stroke="#dddeee" points="493.72,-463 436.72,-463 436.72,-427 493.72,-427 493.72,-463"/>
<text text-anchor="middle" x="465.22" y="-441.3" font-family="Times,serif" font-size="14.00">Verifier</text>
</a>
</g>
</g>
<!-- Creator -->
<g id="node9" class="node">
<title>Creator</title>
<g id="a_node9"><a xlink:href="/develop/Data/models.html#creator" xlink:title="Creator" target="_top">
<polygon fill="#eeefff" stroke="#dddeee" points="493.72,-290 436.72,-290 436.72,-254 493.72,-254 493.72,-290"/>
<text text-anchor="middle" x="465.22" y="-268.3" font-family="Times,serif" font-size="14.00">Creator</text>
</a>
</g>
</g>
<!-- Image -->
<g id="node10" class="node">
<title>Image</title>
<g id="a_node10"><a xlink:href="/develop/Data/models.html#image" xlink:title="Image" target="_top">
<polygon fill="#eeefff" stroke="#dddeee" points="316.65,-344 262.65,-344 262.65,-308 316.65,-308 316.65,-344"/>
<text text-anchor="middle" x="289.65" y="-322.3" font-family="Times,serif" font-size="14.00">Image</text>
</a>
</g>
</g>
<!-- Project -->
<g id="node11" class="node">
<title>Project</title>
<g id="a_node11"><a xlink:href="/develop/Data/models.html#project" xlink:title="Project" target="_top">
<polygon fill="#eeefff" stroke="#dddeee" points="317.15,-290 262.15,-290 262.15,-254 317.15,-254 317.15,-290"/>
<text text-anchor="middle" x="289.65" y="-268.3" font-family="Times,serif" font-size="14.00">Project</text>
</a>
</g>
</g>
<!-- SledImage -->
<g id="node12" class="node">
<title>SledImage</title>
<g id="a_node12"><a xlink:href="/develop/Data/models.html#sled-image" xlink:title="SledImage" target="_top">
<polygon fill="#eeefff" stroke="#dddeee" points="327.15,-236 252.15,-236 252.15,-200 327.15,-200 327.15,-236"/>
<text text-anchor="middle" x="289.65" y="-214.3" font-family="Times,serif" font-size="14.00">SledImage</text>
</a>
</g>
</g>
<!-- Updater -->
<g id="node13" class="node">
<title>Updater</title>
<g id="a_node13"><a xlink:href="/develop/Data/models.html#updater" xlink:title="Updater" target="_top">
<polygon fill="#eeefff" stroke="#dddeee" points="589.72,-290 529.72,-290 529.72,-254 589.72,-254 589.72,-290"/>
<text text-anchor="middle" x="559.72" y="-268.3" font-family="Times,serif" font-size="14.00">Updater</text>
</a>
</g>
</g>
<!-- SqedDepiction -->
<g id="node14" class="node">
<title>SqedDepiction</title>
<g id="a_node14"><a xlink:href="/develop/Data/models.html#sqed-depiction" xlink:title="SqedDepiction" target="_top">
<polygon fill="#eeefff" stroke="#dddeee" points="338.15,-144 241.15,-144 241.15,-108 338.15,-108 338.15,-144"/>
<text text-anchor="middle" x="289.65" y="-122.3" font-family="Times,serif" font-size="14.00">SqedDepiction</text>
</a>
</g>
</g>
<!-- Objects with Depictions -->
<g id="node15" class="node">
<title>Objects with Depictions</title>
<g id="a_node15"><a xlink:href="/develop/Data/models.html#objects with depiction" xlink:title="Objects with Depictions" target="_top">
<polygon fill="#cdabef" stroke="#dedede" points="400.79,-72 345.22,-90 234.07,-90 178.5,-72 234.07,-54 345.22,-54 400.79,-72"/>
<text text-anchor="middle" x="289.65" y="-68.3" font-family="Times,serif" font-size="14.00">Objects with Depictions</text>
</a>
</g>
</g>
</g>
</svg>
