<?xml version="1.0" encoding="UTF-8" standalone="no"?>
<!DOCTYPE svg PUBLIC "-//W3C//DTD SVG 1.1//EN"
 "http://www.w3.org/Graphics/SVG/1.1/DTD/svg11.dtd">
<!-- Generated by graphviz version 2.50.0 (20211204.2007)
 -->
<!-- Title: Depiction Pages: 1 -->
<svg width="640pt" height="590pt"
 viewBox="0.00 0.00 640.00 590.00" xmlns="http://www.w3.org/2000/svg" xmlns:xlink="http://www.w3.org/1999/xlink">
<g id="graph0" class="graph" transform="scale(1 1) rotate(0) translate(4 586)">
<title>Depiction</title>
<polygon fill="white" stroke="transparent" points="-4,4 -4,-586 636,-586 636,4 -4,4"/>
<text text-anchor="middle" x="316" y="-22.8" font-family="Times,serif" font-size="14.00">Algorithmically generated relationships for Depiction based on assertions of &#39;has_many&#39;, &#39;has_one&#39;, &#39;belongs_to&#39;. </text>
<text text-anchor="middle" x="316" y="-7.8" font-family="Times,serif" font-size="14.00">Generated 2022&#45;01&#45;25 11:37:01 &#45;0600.</text>
<!-- Depiction&#45;&gt;DataAttribute -->
<g id="edge1" class="edge">
<title>Depiction&#45;&gt;DataAttribute</title>
<path fill="none" stroke="black" d="M59.44,-296.58C46.89,-290.55 34.71,-281.99 27.42,-270 19.11,-256.33 19.01,-247.61 27.42,-234 32.73,-225.42 40.69,-218.86 49.51,-213.84"/>
<polygon fill="black" stroke="black" points="51.17,-216.93 58.55,-209.33 48.04,-210.66 51.17,-216.93"/>
</g>
<!-- Depiction&#45;&gt;Tag -->
<g id="edge5" class="edge">
<title>Depiction&#45;&gt;Tag</title>
<path fill="none" stroke="black" d="M104.57,-287.88C104.57,-285.38 104.57,-282.89 104.57,-280.39"/>
<polygon fill="black" stroke="black" points="108.07,-280.12 104.57,-270.12 101.07,-280.13 108.07,-280.12"/>
</g>
<!-- Depiction&#45;&gt;PinboardItem -->
<g id="edge3" class="edge">
<title>Depiction&#45;&gt;PinboardItem</title>
<path fill="none" stroke="black" d="M108.15,-332.24C114.67,-377.88 136.09,-482.41 199.71,-537 215.04,-550.15 235.76,-557.09 255.1,-560.7"/>
<polygon fill="black" stroke="black" points="254.61,-564.16 265.04,-562.29 255.72,-557.25 254.61,-564.16"/>
</g>
<!-- Depiction&#45;&gt;Role -->
<g id="edge4" class="edge">
<title>Depiction&#45;&gt;Role</title>
<path fill="none" stroke="black" d="M111.28,-332.13C122.03,-369.25 148.93,-443.87 199.71,-483 220.8,-499.25 250.34,-505.86 273.51,-508.49"/>
<polygon fill="black" stroke="black" points="273.37,-511.99 283.65,-509.43 274.02,-505.02 273.37,-511.99"/>
</g>
<!-- Depiction&#45;&gt;VerifierRole -->
<g id="edge6" class="edge">
<title>Depiction&#45;&gt;VerifierRole</title>
<path fill="none" stroke="black" d="M118.24,-332.29C134.05,-358.12 163.47,-400.17 199.71,-424 217.49,-435.69 239.63,-443.2 259.37,-447.98"/>
<polygon fill="black" stroke="black" points="258.62,-451.4 269.14,-450.18 260.15,-444.57 258.62,-451.4"/>
</g>
<!-- Depiction&#45;&gt;Creator -->
<g id="edge8" class="edge">
<title>Depiction&#45;&gt;Creator</title>
<path fill="none" stroke="black" stroke-dasharray="5,2" d="M129.92,-339.78C147.19,-358.41 172.12,-380.76 199.71,-391 292.28,-425.34 333.08,-434.21 421.86,-391 448.53,-378.02 467.31,-347.81 477.22,-328.18"/>
<polygon fill="black" stroke="black" points="132.29,-337.18 123.01,-332.07 127.08,-341.85 132.29,-337.18"/>
</g>
<!-- Depiction&#45;&gt;Image -->
<g id="edge10" class="edge">
<title>Depiction&#45;&gt;Image</title>
<path fill="none" stroke="black" stroke-dasharray="5,2" d="M160.18,-326.05C173.12,-329.74 186.88,-333.59 199.71,-337 228.24,-344.59 261.13,-352.55 283.47,-357.85"/>
<polygon fill="black" stroke="black" points="161.06,-322.66 150.49,-323.27 159.13,-329.39 161.06,-322.66"/>
</g>
<!-- Depiction&#45;&gt;Project -->
<g id="edge11" class="edge">
<title>Depiction&#45;&gt;Project</title>
<path fill="none" stroke="black" stroke-dasharray="5,2" d="M168.01,-310C206.6,-310 254.15,-310 283.2,-310"/>
<polygon fill="black" stroke="black" points="167.9,-306.5 157.9,-310 167.9,-313.5 167.9,-306.5"/>
</g>
<!-- Depiction&#45;&gt;SledImage -->
<g id="edge12" class="edge">
<title>Depiction&#45;&gt;SledImage</title>
<path fill="none" stroke="black" stroke-dasharray="5,2" d="M160.18,-293.95C173.12,-290.26 186.88,-286.41 199.71,-283 224.05,-276.53 251.57,-269.78 273.01,-264.65"/>
<polygon fill="black" stroke="black" points="159.13,-290.61 150.49,-296.73 161.06,-297.34 159.13,-290.61"/>
</g>
<!-- Depiction&#45;&gt;Updater -->
<g id="edge13" class="edge">
<title>Depiction&#45;&gt;Updater</title>
<path fill="none" stroke="black" stroke-dasharray="5,2" d="M150.85,-288.58C155.39,-285.64 159.78,-282.44 163.71,-279 184.33,-260.98 175.34,-241.48 199.71,-229 287.59,-183.99 325.88,-205.83 421.86,-229 472.05,-241.12 524.2,-272.05 554.26,-292"/>
<polygon fill="black" stroke="black" points="148.76,-285.75 141.98,-293.89 152.36,-291.75 148.76,-285.75"/>
</g>
<!-- Depiction&#45;&gt;SqedDepiction -->
<g id="edge14" class="edge">
<title>Depiction&#45;&gt;SqedDepiction</title>
<path fill="none" stroke="black" stroke-dasharray="1,5" d="M152.49,-288.79C156.57,-285.85 160.4,-282.59 163.71,-279 190.98,-249.45 169.54,-222.58 199.71,-196 216.89,-180.87 240.84,-172.88 262.02,-168.66"/>
<polygon fill="black" stroke="black" points="150.36,-286 143.85,-294.36 154.15,-291.88 150.36,-286"/>
</g>
<!-- Depiction&#45;&gt;Objects with Depictions -->
<g id="edge9" class="edge">
<title>Depiction&#45;&gt;Objects with Depictions</title>
<path fill="none" stroke="black" stroke-dasharray="5,2" d="M153.28,-289.19C157.17,-286.18 160.74,-282.8 163.71,-279 203.87,-227.75 153.5,-182.86 199.71,-137 207.68,-129.1 217.55,-123.38 228.09,-119.26"/>
<polygon fill="black" stroke="black" points="151.24,-286.34 144.93,-294.85 155.17,-292.14 151.24,-286.34"/>
</g>
<!-- Tag&#45;&gt;Keyword -->
<g id="edge2" class="edge">
<title>Tag&#45;&gt;Keyword</title>
<path fill="none" stroke="black" d="M130.15,-245.94C141.88,-241.86 155.19,-235.28 163.71,-225 205.27,-174.88 153.5,-128.86 199.71,-83 217.28,-65.57 244.14,-58.75 266.94,-56.32"/>
<polygon fill="black" stroke="black" points="267.39,-59.8 277.07,-55.49 266.82,-52.82 267.39,-59.8"/>
</g>
<!-- Role&#45;&gt;Verifier -->
<!-- VerifierRole&#45;&gt;Verifier -->
<g id="edge7" class="edge">
<title>VerifierRole&#45;&gt;Verifier</title>
<path fill="none" stroke="black" d="M352.48,-462.33C381.18,-466.79 419.35,-472.73 447.42,-477.1"/>
<polygon fill="black" stroke="black" points="447.22,-480.61 457.64,-478.69 448.29,-473.69 447.22,-480.61"/>
</g>
<!-- Creator&#45;&gt;Updater -->
<!-- Project&#45;&gt;Creator -->
<!-- Depiction -->
<g id="node1" class="node">
<title>Depiction</title>
<g id="a_node1"><a xlink:href="/develop/Data/models.html#depiction" xlink:title="Depiction" target="_top">
<polygon fill="#cdefab" stroke="#dedede" points="154.04,-302.54 154.04,-317.46 125.06,-328 84.08,-328 55.1,-317.46 55.1,-302.54 84.08,-292 125.06,-292 154.04,-302.54"/>
<polygon fill="none" stroke="#dedede" points="158.06,-299.75 158.06,-320.25 125.77,-332 83.37,-332 51.08,-320.25 51.08,-299.75 83.37,-288 125.77,-288 158.06,-299.75"/>
<text text-anchor="middle" x="104.57" y="-306.3" font-family="Times,serif" font-size="14.00">Depiction</text>
</a>
</g>
</g>
<!-- DataAttribute -->
<g id="node2" class="node">
<title>DataAttribute</title>
<g id="a_node2"><a xlink:href="/develop/Data/models.html#data-attribute" xlink:title="DataAttribute" target="_top">
<ellipse fill="#abcdef" stroke="#dddeee" cx="104.57" cy="-198" rx="59.29" ry="18"/>
<text text-anchor="middle" x="104.57" y="-194.3" font-family="Times,serif" font-size="14.00">DataAttribute</text>
</a>
</g>
</g>
<!-- Tag -->
<g id="node3" class="node">
<title>Tag</title>
<g id="a_node3"><a xlink:href="/develop/Data/models.html#tag" xlink:title="Tag" target="_top">
<ellipse fill="#abcdef" stroke="#dddeee" cx="104.57" cy="-252" rx="27" ry="18"/>
<text text-anchor="middle" x="104.57" y="-248.3" font-family="Times,serif" font-size="14.00">Tag</text>
</a>
</g>
</g>
<!-- Keyword -->
<g id="node4" class="node">
<title>Keyword</title>
<g id="a_node4"><a xlink:href="/develop/Data/models.html#keyword" xlink:title="Keyword" target="_top">
<polygon fill="#eeefff" stroke="#dddeee" points="344.29,-74 277.29,-74 277.29,-38 344.29,-38 344.29,-74"/>
<text text-anchor="middle" x="310.79" y="-52.3" font-family="Times,serif" font-size="14.00">Keyword</text>
</a>
</g>
</g>
<!-- PinboardItem -->
<g id="node5" class="node">
<title>PinboardItem</title>
<g id="a_node5"><a xlink:href="/develop/Data/models.html#pinboard-item" xlink:title="PinboardItem" target="_top">
<polygon fill="#eeefff" stroke="#dddeee" points="356.29,-582 265.29,-582 265.29,-546 356.29,-546 356.29,-582"/>
<text text-anchor="middle" x="310.79" y="-560.3" font-family="Times,serif" font-size="14.00">PinboardItem</text>
</a>
</g>
</g>
<!-- Role -->
<g id="node6" class="node">
<title>Role</title>
<g id="a_node6"><a xlink:href="/develop/Data/models.html#role" xlink:title="Role" target="_top">
<polygon fill="#eeefff" stroke="#dddeee" points="337.79,-528 283.79,-528 283.79,-492 337.79,-492 337.79,-528"/>
<text text-anchor="middle" x="310.79" y="-506.3" font-family="Times,serif" font-size="14.00">Role</text>
</a>
</g>
</g>
<!-- VerifierRole -->
<g id="node7" class="node">
<title>VerifierRole</title>
<g id="a_node7"><a xlink:href="/develop/Data/models.html#verifier-role" xlink:title="VerifierRole" target="_top">
<polygon fill="#eeefff" stroke="#dddeee" points="352.29,-474 269.29,-474 269.29,-438 352.29,-438 352.29,-474"/>
<text text-anchor="middle" x="310.79" y="-452.3" font-family="Times,serif" font-size="14.00">VerifierRole</text>
</a>
</g>
</g>
<!-- Verifier -->
<g id="node8" class="node">
<title>Verifier</title>
<g id="a_node8"><a xlink:href="/develop/Data/models.html#verifier" xlink:title="Verifier" target="_top">
<polygon fill="#eeefff" stroke="#dddeee" points="514.86,-501 457.86,-501 457.86,-465 514.86,-465 514.86,-501"/>
<text text-anchor="middle" x="486.36" y="-479.3" font-family="Times,serif" font-size="14.00">Verifier</text>
</a>
</g>
</g>
<!-- Creator -->
<g id="node9" class="node">
<title>Creator</title>
<g id="a_node9"><a xlink:href="/develop/Data/models.html#creator" xlink:title="Creator" target="_top">
<polygon fill="#eeefff" stroke="#dddeee" points="514.86,-328 457.86,-328 457.86,-292 514.86,-292 514.86,-328"/>
<text text-anchor="middle" x="486.36" y="-306.3" font-family="Times,serif" font-size="14.00">Creator</text>
</a>
</g>
</g>
<!-- Image -->
<g id="node10" class="node">
<title>Image</title>
<g id="a_node10"><a xlink:href="/develop/Data/models.html#image" xlink:title="Image" target="_top">
<polygon fill="#eeefff" stroke="#dddeee" points="337.79,-382 283.79,-382 283.79,-346 337.79,-346 337.79,-382"/>
<text text-anchor="middle" x="310.79" y="-360.3" font-family="Times,serif" font-size="14.00">Image</text>
</a>
</g>
</g>
<!-- Project -->
<g id="node11" class="node">
<title>Project</title>
<g id="a_node11"><a xlink:href="/develop/Data/models.html#project" xlink:title="Project" target="_top">
<polygon fill="#eeefff" stroke="#dddeee" points="338.29,-328 283.29,-328 283.29,-292 338.29,-292 338.29,-328"/>
<text text-anchor="middle" x="310.79" y="-306.3" font-family="Times,serif" font-size="14.00">Project</text>
</a>
</g>
</g>
<!-- SledImage -->
<g id="node12" class="node">
<title>SledImage</title>
<g id="a_node12"><a xlink:href="/develop/Data/models.html#sled-image" xlink:title="SledImage" target="_top">
<polygon fill="#eeefff" stroke="#dddeee" points="348.29,-274 273.29,-274 273.29,-238 348.29,-238 348.29,-274"/>
<text text-anchor="middle" x="310.79" y="-252.3" font-family="Times,serif" font-size="14.00">SledImage</text>
</a>
</g>
</g>
<!-- Updater -->
<g id="node13" class="node">
<title>Updater</title>
<g id="a_node13"><a xlink:href="/develop/Data/models.html#updater" xlink:title="Updater" target="_top">
<polygon fill="#eeefff" stroke="#dddeee" points="610.86,-328 550.86,-328 550.86,-292 610.86,-292 610.86,-328"/>
<text text-anchor="middle" x="580.86" y="-306.3" font-family="Times,serif" font-size="14.00">Updater</text>
</a>
</g>
</g>
<!-- SqedDepiction -->
<g id="node14" class="node">
<title>SqedDepiction</title>
<g id="a_node14"><a xlink:href="/develop/Data/models.html#sqed-depiction" xlink:title="SqedDepiction" target="_top">
<polygon fill="#eeefff" stroke="#dddeee" points="359.29,-182 262.29,-182 262.29,-146 359.29,-146 359.29,-182"/>
<text text-anchor="middle" x="310.79" y="-160.3" font-family="Times,serif" font-size="14.00">SqedDepiction</text>
</a>
</g>
</g>
<!-- Objects with Depictions -->
<g id="node15" class="node">
<title>Objects with Depictions</title>
<g id="a_node15"><a xlink:href="/develop/Data/models.html#objects with depiction" xlink:title="Objects with Depictions" target="_top">
<polygon fill="#cdabef" stroke="#dedede" points="421.93,-110 366.36,-128 255.21,-128 199.64,-110 255.21,-92 366.36,-92 421.93,-110"/>
<text text-anchor="middle" x="310.79" y="-106.3" font-family="Times,serif" font-size="14.00">Objects with Depictions</text>
</a>
</g>
</g>
</g>
</svg>
