<?xml version="1.0" encoding="UTF-8" standalone="no"?>
<!DOCTYPE svg PUBLIC "-//W3C//DTD SVG 1.1//EN"
 "http://www.w3.org/Graphics/SVG/1.1/DTD/svg11.dtd">
<!-- Generated by graphviz version 12.2.1 (20241206.2353)
 -->
<!-- Title: Depiction Pages: 1 -->
<svg width="612pt" height="660pt"
 viewBox="0.00 0.00 612.29 660.00" xmlns="http://www.w3.org/2000/svg" xmlns:xlink="http://www.w3.org/1999/xlink">
<g id="graph0" class="graph" transform="scale(1 1) rotate(0) translate(4 656)">
<title>Depiction</title>
<polygon fill="white" stroke="none" points="-4,4 -4,-656 608.29,-656 608.29,4 -4,4"/>
<!-- Depiction&#45;&gt;DataAttribute -->
<g id="edge1" class="edge">
<title>Depiction&#45;&gt;DataAttribute</title>
<path fill="none" stroke="black" d="M38.53,-312.5C25.88,-306.5 13.69,-297.98 6.31,-286 -2.09,-272.38 -2.11,-263.61 6.31,-250 11.41,-241.75 18.93,-235.37 27.34,-230.45"/>
<polygon fill="black" stroke="black" points="28.83,-233.62 36.18,-226 25.68,-227.37 28.83,-233.62"/>
</g>
<!-- Depiction&#45;&gt;Tag -->
<g id="edge7" class="edge">
<title>Depiction&#45;&gt;Tag</title>
<path fill="none" stroke="black" d="M85.89,-303.57C85.89,-301.57 85.89,-299.57 85.89,-297.57"/>
<polygon fill="black" stroke="black" points="89.39,-297.64 85.89,-287.64 82.39,-297.64 89.39,-297.64"/>
</g>
<!-- Depiction&#45;&gt;ImportAttribute -->
<g id="edge2" class="edge">
<title>Depiction&#45;&gt;ImportAttribute</title>
<path fill="none" stroke="black" d="M87.61,-348.11C90.58,-401.23 105.81,-536.77 183.48,-607 197.98,-620.11 217.61,-627.2 236.56,-630.94"/>
<polygon fill="black" stroke="black" points="235.97,-634.39 246.4,-632.56 237.11,-627.48 235.97,-634.39"/>
</g>
<!-- Depiction&#45;&gt;InternalAttribute -->
<g id="edge3" class="edge">
<title>Depiction&#45;&gt;InternalAttribute</title>
<path fill="none" stroke="black" d="M89.68,-348.31C96.64,-394.07 119.09,-498.81 183.48,-553 197.78,-565.03 216.47,-571.92 234.61,-575.8"/>
<polygon fill="black" stroke="black" points="233.83,-579.22 244.3,-577.57 235.1,-572.33 233.83,-579.22"/>
</g>
<!-- Depiction&#45;&gt;PinboardItem -->
<g id="edge5" class="edge">
<title>Depiction&#45;&gt;PinboardItem</title>
<path fill="none" stroke="black" d="M92.97,-348.49C104.26,-385.81 132.12,-460.27 183.48,-499 200.4,-511.76 222.39,-518.62 242.61,-522.26"/>
<polygon fill="black" stroke="black" points="242.03,-525.71 252.44,-523.78 243.1,-518.79 242.03,-525.71"/>
</g>
<!-- Depiction&#45;&gt;Role -->
<g id="edge6" class="edge">
<title>Depiction&#45;&gt;Role</title>
<path fill="none" stroke="black" d="M98.74,-348.18C114.43,-375.33 144.7,-420.7 183.48,-445 206.83,-459.63 237.34,-466.34 261.07,-469.41"/>
<polygon fill="black" stroke="black" points="260.62,-472.89 270.95,-470.51 261.4,-465.93 260.62,-472.89"/>
</g>
<!-- Depiction&#45;&gt;VerifierRole -->
<g id="edge8" class="edge">
<title>Depiction&#45;&gt;VerifierRole</title>
<path fill="none" stroke="black" d="M114.46,-346.08C133.17,-358.95 158.9,-375.21 183.48,-386 203.58,-394.82 226.73,-401.82 246.97,-407"/>
<polygon fill="black" stroke="black" points="245.86,-410.33 256.41,-409.32 247.54,-403.53 245.86,-410.33"/>
</g>
<!-- Depiction&#45;&gt;Creator -->
<g id="edge10" class="edge">
<title>Depiction&#45;&gt;Creator</title>
<path fill="none" stroke="black" stroke-dasharray="5,2" d="M137.44,-345.46C204.61,-368.02 325.31,-396.86 415.54,-353 442.24,-340.02 461.06,-309.82 471,-290.18"/>
<polygon fill="black" stroke="black" points="138.75,-342.21 128.16,-342.26 136.47,-348.83 138.75,-342.21"/>
</g>
<!-- Depiction&#45;&gt;Image -->
<g id="edge12" class="edge">
<title>Depiction&#45;&gt;Image</title>
<path fill="none" stroke="black" stroke-dasharray="5,2" d="M152.77,-326C193.1,-326 242.5,-326 272.19,-326"/>
<polygon fill="black" stroke="black" points="152.9,-322.5 142.9,-326 152.9,-329.5 152.9,-322.5"/>
</g>
<!-- Depiction&#45;&gt;Project -->
<g id="edge13" class="edge">
<title>Depiction&#45;&gt;Project</title>
<path fill="none" stroke="black" stroke-dasharray="5,2" d="M144.49,-309.47C157.3,-305.92 170.83,-302.25 183.48,-299 213.68,-291.24 248.57,-283.18 271.93,-277.9"/>
<polygon fill="black" stroke="black" points="143.6,-306.09 134.92,-312.15 145.49,-312.83 143.6,-306.09"/>
</g>
<!-- Depiction&#45;&gt;SledImage -->
<g id="edge14" class="edge">
<title>Depiction&#45;&gt;SledImage</title>
<path fill="none" stroke="black" stroke-dasharray="5,2" d="M135.17,-304.05C139.52,-301.27 143.7,-298.25 147.48,-295 168.25,-277.15 160.71,-260.2 183.48,-245 206.77,-229.45 237.93,-222.81 261.94,-219.99"/>
<polygon fill="black" stroke="black" points="133.64,-300.89 126.79,-308.98 137.18,-306.93 133.64,-300.89"/>
</g>
<!-- Depiction&#45;&gt;Updater -->
<g id="edge15" class="edge">
<title>Depiction&#45;&gt;Updater</title>
<path fill="none" stroke="black" stroke-dasharray="5,2" d="M137.38,-304.28C141.08,-301.5 144.51,-298.41 147.48,-295 179.57,-258.08 143.64,-219.37 183.48,-191 298.7,-108.96 478.74,-209.68 546.52,-253.52"/>
<polygon fill="black" stroke="black" points="135.49,-301.34 129.04,-309.74 139.32,-307.19 135.49,-301.34"/>
</g>
<!-- Depiction&#45;&gt;SqedDepiction -->
<g id="edge16" class="edge">
<title>Depiction&#45;&gt;SqedDepiction</title>
<path fill="none" stroke="black" d="M136.73,-305.24C140.73,-302.23 144.4,-298.83 147.48,-295 186.94,-245.95 139.28,-202.84 183.48,-158 198.54,-142.72 220.23,-134.56 240.72,-130.27"/>
<polygon fill="none" stroke="black" points="130.78,-313.96 126.37,-307.28 133.05,-302.87 137.46,-309.55 130.78,-313.96"/>
<polyline fill="none" stroke="black" points="135.25,-306.21 136.92,-305.11"/>
<polygon fill="none" stroke="black" points="249.76,-124.56 251.19,-132.43 243.32,-133.86 241.89,-125.99 249.76,-124.56"/>
<polyline fill="none" stroke="black" points="242.61,-129.93 240.64,-130.29"/>
</g>
<!-- Depiction&#45;&gt;Objects with Depictions -->
<g id="edge11" class="edge">
<title>Depiction&#45;&gt;Objects with Depictions</title>
<path fill="none" stroke="black" stroke-dasharray="5,2" d="M138.11,-304.62C141.63,-301.77 144.82,-298.58 147.48,-295 200.36,-223.95 122.4,-163.14 183.48,-99 191.12,-90.98 200.65,-85.14 210.94,-80.92"/>
<polygon fill="black" stroke="black" points="136.34,-301.59 130.1,-310.15 140.32,-307.35 136.34,-301.59"/>
</g>
<!-- Tag&#45;&gt;Keyword -->
<g id="edge4" class="edge">
<title>Tag&#45;&gt;Keyword</title>
<path fill="none" stroke="black" stroke-dasharray="1,5" d="M112.17,-262.63C124.63,-258.69 138.79,-252.04 147.48,-241 202.24,-171.39 122.4,-109.14 183.48,-45 201.59,-25.98 230.37,-19.23 254.6,-17.24"/>
<polygon fill="black" stroke="black" points="254.76,-20.73 264.56,-16.69 254.38,-13.74 254.76,-20.73"/>
</g>
<!-- Role&#45;&gt;Verifier -->
<!-- VerifierRole&#45;&gt;Verifier -->
<g id="edge9" class="edge">
<title>VerifierRole&#45;&gt;Verifier</title>
<path fill="none" stroke="black" stroke-dasharray="1,5" d="M341.05,-424.13C370.77,-428.62 410.88,-434.68 440.22,-439.11"/>
<polygon fill="black" stroke="black" points="439.38,-442.53 449.79,-440.56 440.42,-435.61 439.38,-442.53"/>
</g>
<!-- Creator&#45;&gt;Updater -->
<!-- Project&#45;&gt;Creator -->
<!-- Depiction -->
<g id="node1" class="node">
<title>Depiction</title>
<g id="a_node1"><a xlink:href="/develop/Data/models.html#depiction" xlink:title="Depiction" target="_top">
<polygon fill="#cdefab" stroke="#dedede" points="137.04,-318.54 137.04,-333.46 107.08,-344 64.71,-344 34.74,-333.46 34.74,-318.54 64.71,-308 107.08,-308 137.04,-318.54"/>
<polygon fill="none" stroke="#dedede" points="141.04,-315.71 141.04,-336.29 107.76,-348 64.02,-348 30.74,-336.29 30.74,-315.71 64.02,-304 107.76,-304 141.04,-315.71"/>
<text text-anchor="middle" x="85.89" y="-320.95" font-family="Times,serif" font-size="14.00">Depiction</text>
</a>
</g>
</g>
<!-- DataAttribute -->
<g id="node2" class="node">
<title>DataAttribute</title>
<g id="a_node2"><a xlink:href="/develop/Data/models.html#data-attribute" xlink:title="DataAttribute" target="_top">
<ellipse fill="#abcdef" stroke="#dddeee" cx="85.89" cy="-214" rx="61.59" ry="18"/>
<text text-anchor="middle" x="85.89" y="-208.95" font-family="Times,serif" font-size="14.00">DataAttribute</text>
</a>
</g>
</g>
<!-- Tag -->
<g id="node3" class="node">
<title>Tag</title>
<g id="a_node3"><a xlink:href="/develop/Data/models.html#tag" xlink:title="Tag" target="_top">
<ellipse fill="#abcdef" stroke="#dddeee" cx="85.89" cy="-268" rx="27" ry="18"/>
<text text-anchor="middle" x="85.89" y="-262.95" font-family="Times,serif" font-size="14.00">Tag</text>
</a>
</g>
</g>
<!-- ImportAttribute -->
<g id="node4" class="node">
<title>ImportAttribute</title>
<g id="a_node4"><a xlink:href="/develop/Data/models.html#import-attribute" xlink:title="ImportAttribute" target="_top">
<polygon fill="#eeefff" stroke="#dddeee" points="350.64,-652 248.39,-652 248.39,-616 350.64,-616 350.64,-652"/>
<text text-anchor="middle" x="299.51" y="-628.95" font-family="Times,serif" font-size="14.00">ImportAttribute</text>
</a>
</g>
</g>
<!-- InternalAttribute -->
<g id="node5" class="node">
<title>InternalAttribute</title>
<g id="a_node5"><a xlink:href="/develop/Data/models.html#internal-attribute" xlink:title="InternalAttribute" target="_top">
<polygon fill="#eeefff" stroke="#dddeee" points="352.89,-598 246.14,-598 246.14,-562 352.89,-562 352.89,-598"/>
<text text-anchor="middle" x="299.51" y="-574.95" font-family="Times,serif" font-size="14.00">InternalAttribute</text>
</a>
</g>
</g>
<!-- Keyword -->
<g id="node6" class="node">
<title>Keyword</title>
<g id="a_node6"><a xlink:href="/develop/Data/models.html#keyword" xlink:title="Keyword" target="_top">
<polygon fill="#eeefff" stroke="#dddeee" points="332.64,-36 266.39,-36 266.39,0 332.64,0 332.64,-36"/>
<text text-anchor="middle" x="299.51" y="-12.95" font-family="Times,serif" font-size="14.00">Keyword</text>
</a>
</g>
</g>
<!-- PinboardItem -->
<g id="node7" class="node">
<title>PinboardItem</title>
<g id="a_node7"><a xlink:href="/develop/Data/models.html#pinboard-item" xlink:title="PinboardItem" target="_top">
<polygon fill="#eeefff" stroke="#dddeee" points="344.64,-544 254.39,-544 254.39,-508 344.64,-508 344.64,-544"/>
<text text-anchor="middle" x="299.51" y="-520.95" font-family="Times,serif" font-size="14.00">PinboardItem</text>
</a>
</g>
</g>
<!-- Role -->
<g id="node8" class="node">
<title>Role</title>
<g id="a_node8"><a xlink:href="/develop/Data/models.html#role" xlink:title="Role" target="_top">
<polygon fill="#eeefff" stroke="#dddeee" points="326.51,-490 272.51,-490 272.51,-454 326.51,-454 326.51,-490"/>
<text text-anchor="middle" x="299.51" y="-466.95" font-family="Times,serif" font-size="14.00">Role</text>
</a>
</g>
</g>
<!-- VerifierRole -->
<g id="node9" class="node">
<title>VerifierRole</title>
<g id="a_node9"><a xlink:href="/develop/Data/models.html#verifier-role" xlink:title="VerifierRole" target="_top">
<polygon fill="#eeefff" stroke="#dddeee" points="340.89,-436 258.14,-436 258.14,-400 340.89,-400 340.89,-436"/>
<text text-anchor="middle" x="299.51" y="-412.95" font-family="Times,serif" font-size="14.00">VerifierRole</text>
</a>
</g>
</g>
<!-- Verifier -->
<g id="node10" class="node">
<title>Verifier</title>
<g id="a_node10"><a xlink:href="/develop/Data/models.html#verifier" xlink:title="Verifier" target="_top">
<polygon fill="#eeefff" stroke="#dddeee" points="508.79,-463 451.54,-463 451.54,-427 508.79,-427 508.79,-463"/>
<text text-anchor="middle" x="480.17" y="-439.95" font-family="Times,serif" font-size="14.00">Verifier</text>
</a>
</g>
</g>
<!-- Creator -->
<g id="node11" class="node">
<title>Creator</title>
<g id="a_node11"><a xlink:href="/develop/Data/models.html#creator" xlink:title="Creator" target="_top">
<polygon fill="#eeefff" stroke="#dddeee" points="508.42,-290 451.92,-290 451.92,-254 508.42,-254 508.42,-290"/>
<text text-anchor="middle" x="480.17" y="-266.95" font-family="Times,serif" font-size="14.00">Creator</text>
</a>
</g>
</g>
<!-- Image -->
<g id="node12" class="node">
<title>Image</title>
<g id="a_node12"><a xlink:href="/develop/Data/models.html#image" xlink:title="Image" target="_top">
<polygon fill="#eeefff" stroke="#dddeee" points="326.51,-344 272.51,-344 272.51,-308 326.51,-308 326.51,-344"/>
<text text-anchor="middle" x="299.51" y="-320.95" font-family="Times,serif" font-size="14.00">Image</text>
</a>
</g>
</g>
<!-- Project -->
<g id="node13" class="node">
<title>Project</title>
<g id="a_node13"><a xlink:href="/develop/Data/models.html#project" xlink:title="Project" target="_top">
<polygon fill="#eeefff" stroke="#dddeee" points="326.64,-290 272.39,-290 272.39,-254 326.64,-254 326.64,-290"/>
<text text-anchor="middle" x="299.51" y="-266.95" font-family="Times,serif" font-size="14.00">Project</text>
</a>
</g>
</g>
<!-- SledImage -->
<g id="node14" class="node">
<title>SledImage</title>
<g id="a_node14"><a xlink:href="/develop/Data/models.html#sled-image" xlink:title="SledImage" target="_top">
<polygon fill="#eeefff" stroke="#dddeee" points="336.76,-236 262.26,-236 262.26,-200 336.76,-200 336.76,-236"/>
<text text-anchor="middle" x="299.51" y="-212.95" font-family="Times,serif" font-size="14.00">SledImage</text>
</a>
</g>
</g>
<!-- Updater -->
<g id="node15" class="node">
<title>Updater</title>
<g id="a_node15"><a xlink:href="/develop/Data/models.html#updater" xlink:title="Updater" target="_top">
<polygon fill="#eeefff" stroke="#dddeee" points="604.29,-290 544.79,-290 544.79,-254 604.29,-254 604.29,-290"/>
<text text-anchor="middle" x="574.54" y="-266.95" font-family="Times,serif" font-size="14.00">Updater</text>
</a>
</g>
</g>
<!-- SqedDepiction -->
<g id="node16" class="node">
<title>SqedDepiction</title>
<g id="a_node16"><a xlink:href="/develop/Data/models.html#sqed-depiction" xlink:title="SqedDepiction" target="_top">
<polygon fill="#eeefff" stroke="#dddeee" points="347.64,-144 251.39,-144 251.39,-108 347.64,-108 347.64,-144"/>
<text text-anchor="middle" x="299.51" y="-120.95" font-family="Times,serif" font-size="14.00">SqedDepiction</text>
</a>
</g>
</g>
<!-- Objects with Depictions -->
<g id="node17" class="node">
<title>Objects with Depictions</title>
<g id="a_node17"><a xlink:href="/develop/Data/models.html#objects with depiction" xlink:title="Objects with Depictions" target="_top">
<polygon fill="#cdabef" stroke="#dedede" points="415.54,-72 357.53,-90 241.5,-90 183.48,-72 241.5,-54 357.53,-54 415.54,-72"/>
<text text-anchor="middle" x="299.51" y="-66.95" font-family="Times,serif" font-size="14.00">Objects with Depictions</text>
</a>
</g>
</g>
</g>
</svg>
