<?xml version="1.0" encoding="UTF-8" standalone="no"?>
<!DOCTYPE svg PUBLIC "-//W3C//DTD SVG 1.1//EN"
 "http://www.w3.org/Graphics/SVG/1.1/DTD/svg11.dtd">
<!-- Generated by graphviz version 2.50.0 (20211204.2007)
 -->
<!-- Title: DerivedCollectionObject Pages: 1 -->
<svg width="722pt" height="427pt"
 viewBox="0.00 0.00 722.00 427.19" xmlns="http://www.w3.org/2000/svg" xmlns:xlink="http://www.w3.org/1999/xlink">
<g id="graph0" class="graph" transform="scale(1 1) rotate(0) translate(4 423.19)">
<title>DerivedCollectionObject</title>
<polygon fill="white" stroke="transparent" points="-4,4 -4,-423.19 718,-423.19 718,4 -4,4"/>
<text text-anchor="middle" x="357" y="-22.8" font-family="Times,serif" font-size="14.00">Algorithmically generated relationships for DerivedCollectionObject based on assertions of &#39;has_many&#39;, &#39;has_one&#39;, &#39;belongs_to&#39;. </text>
<text text-anchor="middle" x="357" y="-7.8" font-family="Times,serif" font-size="14.00">Generated 2022&#45;01&#45;25 11:43:10 &#45;0600.</text>
<!-- DerivedCollectionObject&#45;&gt;CollectionObject -->
<g id="edge5" class="edge">
<title>DerivedCollectionObject&#45;&gt;CollectionObject</title>
<path fill="none" stroke="black" stroke-dasharray="5,2" d="M178.23,-241.64C203.51,-277.99 250.06,-337.75 303.93,-372.69 313.86,-379.13 325.4,-384.2 336.75,-388.15"/>
<polygon fill="black" stroke="black" points="180.81,-239.21 172.27,-232.93 175.03,-243.16 180.81,-239.21"/>
</g>
<!-- DerivedCollectionObject&#45;&gt;PinboardItem -->
<g id="edge1" class="edge">
<title>DerivedCollectionObject&#45;&gt;PinboardItem</title>
<path fill="none" stroke="black" d="M182.38,-232.78C210.06,-256.85 257.42,-295.07 303.93,-318.69 313.92,-323.76 325.04,-328.1 335.9,-331.72"/>
<polygon fill="black" stroke="black" points="335.16,-335.16 345.75,-334.85 337.28,-328.49 335.16,-335.16"/>
</g>
<!-- DerivedCollectionObject&#45;&gt;Role -->
<g id="edge2" class="edge">
<title>DerivedCollectionObject&#45;&gt;Role</title>
<path fill="none" stroke="black" d="M211.13,-231.1C238.7,-241.5 272.99,-254.14 303.93,-264.69 320.42,-270.31 338.83,-276.12 354.41,-280.9"/>
<polygon fill="black" stroke="black" points="353.61,-284.32 364.2,-283.89 355.65,-277.62 353.61,-284.32"/>
</g>
<!-- DerivedCollectionObject&#45;&gt;VerifierRole -->
<g id="edge3" class="edge">
<title>DerivedCollectionObject&#45;&gt;VerifierRole</title>
<path fill="none" stroke="black" d="M261.3,-222.69C288.43,-225.84 316.5,-229.1 339.52,-231.78"/>
<polygon fill="black" stroke="black" points="339.38,-235.28 349.72,-232.96 340.19,-228.33 339.38,-235.28"/>
</g>
<!-- DerivedCollectionObject&#45;&gt;CollectionObjectObservation -->
<g id="edge6" class="edge">
<title>DerivedCollectionObject&#45;&gt;CollectionObjectObservation</title>
<path fill="none" stroke="black" stroke-dasharray="5,2" d="M271.31,-197.53C282.22,-196.26 293.18,-194.99 303.78,-193.76"/>
<polygon fill="black" stroke="black" points="270.83,-194.06 261.3,-198.69 271.64,-201.01 270.83,-194.06"/>
</g>
<!-- DerivedCollectionObject&#45;&gt;Creator -->
<g id="edge7" class="edge">
<title>DerivedCollectionObject&#45;&gt;Creator</title>
<path fill="none" stroke="black" stroke-dasharray="5,2" d="M218.43,-186.16C244.46,-176.16 275.41,-165.02 303.93,-156.69 380.33,-134.38 403.08,-142.81 478.93,-118.69 490.92,-114.88 503.75,-109.65 514.73,-104.81"/>
<polygon fill="black" stroke="black" points="217.13,-182.9 209.07,-189.78 219.66,-189.43 217.13,-182.9"/>
</g>
<!-- DerivedCollectionObject&#45;&gt;Project -->
<g id="edge8" class="edge">
<title>DerivedCollectionObject&#45;&gt;Project</title>
<path fill="none" stroke="black" stroke-dasharray="5,2" d="M199.46,-183.19C228.07,-164.91 267.39,-141.16 303.93,-123.69 323.43,-114.37 346.42,-105.98 363.8,-100.13"/>
<polygon fill="black" stroke="black" points="197.46,-180.31 190.94,-188.67 201.25,-186.2 197.46,-180.31"/>
</g>
<!-- DerivedCollectionObject&#45;&gt;Updater -->
<g id="edge9" class="edge">
<title>DerivedCollectionObject&#45;&gt;Updater</title>
<path fill="none" stroke="black" stroke-dasharray="5,2" d="M177.45,-179.99C201.97,-144.49 247.77,-87.96 303.93,-64.69 413.97,-19.09 455.12,-41.39 571.93,-64.69 584.03,-67.1 596.7,-71.82 607.61,-76.64"/>
<polygon fill="black" stroke="black" points="174.38,-178.28 171.68,-188.53 180.18,-182.2 174.38,-178.28"/>
</g>
<!-- Role&#45;&gt;Verifier -->
<!-- VerifierRole&#45;&gt;Verifier -->
<g id="edge4" class="edge">
<title>VerifierRole&#45;&gt;Verifier</title>
<path fill="none" stroke="black" d="M433.02,-245C455.34,-249.01 482.86,-253.97 504.71,-257.9"/>
<polygon fill="black" stroke="black" points="504.16,-261.36 514.62,-259.68 505.4,-254.47 504.16,-261.36"/>
</g>
<!-- Creator&#45;&gt;Updater -->
<!-- Project&#45;&gt;Creator -->
<!-- CollectionObject -->
<g id="node1" class="node">
<title>CollectionObject</title>
<g id="a_node1"><a xlink:href="/develop/Data/models.html#collection-object" xlink:title="CollectionObject" target="_top">
<path fill="#fedcba" stroke="#dddeee" d="M348.93,-382.69C348.93,-382.69 433.93,-382.69 433.93,-382.69 439.93,-382.69 445.93,-388.69 445.93,-394.69 445.93,-394.69 445.93,-406.69 445.93,-406.69 445.93,-412.69 439.93,-418.69 433.93,-418.69 433.93,-418.69 348.93,-418.69 348.93,-418.69 342.93,-418.69 336.93,-412.69 336.93,-406.69 336.93,-406.69 336.93,-394.69 336.93,-394.69 336.93,-388.69 342.93,-382.69 348.93,-382.69"/>
<text text-anchor="middle" x="391.43" y="-396.99" font-family="Times,serif" font-size="14.00">CollectionObject</text>
</a>
</g>
</g>
<!-- DerivedCollectionObject -->
<g id="node2" class="node">
<title>DerivedCollectionObject</title>
<g id="a_node2"><a xlink:href="/develop/Data/models.html#derived-collection-object" xlink:title="DerivedCollectionObject" target="_top">
<polygon fill="#cdefab" stroke="#dedede" points="263.86,-203.23 263.86,-218.15 201.26,-228.69 112.74,-228.69 50.14,-218.15 50.14,-203.23 112.74,-192.69 201.26,-192.69 263.86,-203.23"/>
<polygon fill="none" stroke="#dedede" points="267.86,-199.85 267.86,-221.53 201.6,-232.69 112.4,-232.69 46.14,-221.53 46.14,-199.85 112.4,-188.69 201.6,-188.69 267.86,-199.85"/>
<text text-anchor="middle" x="157" y="-206.99" font-family="Times,serif" font-size="14.00">DerivedCollectionObject</text>
</a>
</g>
</g>
<!-- PinboardItem -->
<g id="node3" class="node">
<title>PinboardItem</title>
<g id="a_node3"><a xlink:href="/develop/Data/models.html#pinboard-item" xlink:title="PinboardItem" target="_top">
<polygon fill="#eeefff" stroke="#dddeee" points="436.93,-363.69 345.93,-363.69 345.93,-327.69 436.93,-327.69 436.93,-363.69"/>
<text text-anchor="middle" x="391.43" y="-341.99" font-family="Times,serif" font-size="14.00">PinboardItem</text>
</a>
</g>
</g>
<!-- Role -->
<g id="node4" class="node">
<title>Role</title>
<g id="a_node4"><a xlink:href="/develop/Data/models.html#role" xlink:title="Role" target="_top">
<polygon fill="#eeefff" stroke="#dddeee" points="418.43,-309.69 364.43,-309.69 364.43,-273.69 418.43,-273.69 418.43,-309.69"/>
<text text-anchor="middle" x="391.43" y="-287.99" font-family="Times,serif" font-size="14.00">Role</text>
</a>
</g>
</g>
<!-- VerifierRole -->
<g id="node5" class="node">
<title>VerifierRole</title>
<g id="a_node5"><a xlink:href="/develop/Data/models.html#verifier-role" xlink:title="VerifierRole" target="_top">
<polygon fill="#eeefff" stroke="#dddeee" points="432.93,-255.69 349.93,-255.69 349.93,-219.69 432.93,-219.69 432.93,-255.69"/>
<text text-anchor="middle" x="391.43" y="-233.99" font-family="Times,serif" font-size="14.00">VerifierRole</text>
</a>
</g>
</g>
<!-- Verifier -->
<g id="node6" class="node">
<title>Verifier</title>
<g id="a_node6"><a xlink:href="/develop/Data/models.html#verifier" xlink:title="Verifier" target="_top">
<polygon fill="#eeefff" stroke="#dddeee" points="571.93,-282.69 514.93,-282.69 514.93,-246.69 571.93,-246.69 571.93,-282.69"/>
<text text-anchor="middle" x="543.43" y="-260.99" font-family="Times,serif" font-size="14.00">Verifier</text>
</a>
</g>
</g>
<!-- CollectionObjectObservation -->
<g id="node7" class="node">
<title>CollectionObjectObservation</title>
<g id="a_node7"><a xlink:href="/develop/Data/models.html#collection-object-observation" xlink:title="CollectionObjectObservation" target="_top">
<polygon fill="#eeefff" stroke="#dddeee" points="478.93,-201.69 303.93,-201.69 303.93,-165.69 478.93,-165.69 478.93,-201.69"/>
<text text-anchor="middle" x="391.43" y="-179.99" font-family="Times,serif" font-size="14.00">CollectionObjectObservation</text>
</a>
</g>
</g>
<!-- Creator -->
<g id="node8" class="node">
<title>Creator</title>
<g id="a_node8"><a xlink:href="/develop/Data/models.html#creator" xlink:title="Creator" target="_top">
<polygon fill="#eeefff" stroke="#dddeee" points="571.93,-109.69 514.93,-109.69 514.93,-73.69 571.93,-73.69 571.93,-109.69"/>
<text text-anchor="middle" x="543.43" y="-87.99" font-family="Times,serif" font-size="14.00">Creator</text>
</a>
</g>
</g>
<!-- Project -->
<g id="node9" class="node">
<title>Project</title>
<g id="a_node9"><a xlink:href="/develop/Data/models.html#project" xlink:title="Project" target="_top">
<polygon fill="#eeefff" stroke="#dddeee" points="418.93,-109.69 363.93,-109.69 363.93,-73.69 418.93,-73.69 418.93,-109.69"/>
<text text-anchor="middle" x="391.43" y="-87.99" font-family="Times,serif" font-size="14.00">Project</text>
</a>
</g>
</g>
<!-- Updater -->
<g id="node10" class="node">
<title>Updater</title>
<g id="a_node10"><a xlink:href="/develop/Data/models.html#updater" xlink:title="Updater" target="_top">
<polygon fill="#eeefff" stroke="#dddeee" points="667.93,-109.69 607.93,-109.69 607.93,-73.69 667.93,-73.69 667.93,-109.69"/>
<text text-anchor="middle" x="637.93" y="-87.99" font-family="Times,serif" font-size="14.00">Updater</text>
</a>
</g>
</g>
</g>
</svg>
