<?xml version="1.0" encoding="UTF-8" standalone="no"?>
<!DOCTYPE svg PUBLIC "-//W3C//DTD SVG 1.1//EN"
 "http://www.w3.org/Graphics/SVG/1.1/DTD/svg11.dtd">
<!-- Generated by graphviz version 2.50.0 (20211204.2007)
 -->
<!-- Title: DerivedCollectionObject Pages: 1 -->
<svg width="630pt" height="389pt"
 viewBox="0.00 0.00 629.86 389.19" xmlns="http://www.w3.org/2000/svg" xmlns:xlink="http://www.w3.org/1999/xlink">
<g id="graph0" class="graph" transform="scale(1 1) rotate(0) translate(4 385.19)">
<title>DerivedCollectionObject</title>
<polygon fill="white" stroke="transparent" points="-4,4 -4,-385.19 625.86,-385.19 625.86,4 -4,4"/>
<!-- DerivedCollectionObject&#45;&gt;CollectionObject -->
<g id="edge5" class="edge">
<title>DerivedCollectionObject&#45;&gt;CollectionObject</title>
<path fill="none" stroke="black" stroke-dasharray="5,2" d="M132.16,-203.64C157.44,-239.99 203.99,-299.75 257.86,-334.69 267.79,-341.13 279.33,-346.2 290.68,-350.15"/>
<polygon fill="black" stroke="black" points="134.74,-201.21 126.2,-194.93 128.96,-205.16 134.74,-201.21"/>
</g>
<!-- DerivedCollectionObject&#45;&gt;PinboardItem -->
<g id="edge1" class="edge">
<title>DerivedCollectionObject&#45;&gt;PinboardItem</title>
<path fill="none" stroke="black" d="M136.31,-194.78C163.99,-218.85 211.35,-257.07 257.86,-280.69 267.85,-285.76 278.97,-290.1 289.83,-293.72"/>
<polygon fill="black" stroke="black" points="289.09,-297.16 299.68,-296.85 291.21,-290.49 289.09,-297.16"/>
</g>
<!-- DerivedCollectionObject&#45;&gt;Role -->
<g id="edge2" class="edge">
<title>DerivedCollectionObject&#45;&gt;Role</title>
<path fill="none" stroke="black" d="M165.06,-193.1C192.63,-203.5 226.92,-216.14 257.86,-226.69 274.35,-232.31 292.76,-238.12 308.35,-242.9"/>
<polygon fill="black" stroke="black" points="307.54,-246.32 318.13,-245.89 309.58,-239.62 307.54,-246.32"/>
</g>
<!-- DerivedCollectionObject&#45;&gt;VerifierRole -->
<g id="edge3" class="edge">
<title>DerivedCollectionObject&#45;&gt;VerifierRole</title>
<path fill="none" stroke="black" d="M215.23,-184.69C242.36,-187.84 270.43,-191.1 293.45,-193.78"/>
<polygon fill="black" stroke="black" points="293.31,-197.28 303.65,-194.96 294.12,-190.33 293.31,-197.28"/>
</g>
<!-- DerivedCollectionObject&#45;&gt;CollectionObjectObservation -->
<g id="edge6" class="edge">
<title>DerivedCollectionObject&#45;&gt;CollectionObjectObservation</title>
<path fill="none" stroke="black" stroke-dasharray="5,2" d="M225.24,-159.53C236.16,-158.26 247.11,-156.99 257.71,-155.76"/>
<polygon fill="black" stroke="black" points="224.76,-156.06 215.23,-160.69 225.57,-163.01 224.76,-156.06"/>
</g>
<!-- DerivedCollectionObject&#45;&gt;Creator -->
<g id="edge7" class="edge">
<title>DerivedCollectionObject&#45;&gt;Creator</title>
<path fill="none" stroke="black" stroke-dasharray="5,2" d="M172.36,-148.16C198.39,-138.16 229.34,-127.02 257.86,-118.69 334.26,-96.38 357.02,-104.81 432.86,-80.69 444.85,-76.88 457.68,-71.65 468.66,-66.81"/>
<polygon fill="black" stroke="black" points="171.06,-144.9 163.01,-151.78 173.59,-151.43 171.06,-144.9"/>
</g>
<!-- DerivedCollectionObject&#45;&gt;Project -->
<g id="edge8" class="edge">
<title>DerivedCollectionObject&#45;&gt;Project</title>
<path fill="none" stroke="black" stroke-dasharray="5,2" d="M153.39,-145.19C182,-126.91 221.33,-103.16 257.86,-85.69 277.36,-76.37 300.35,-67.98 317.73,-62.13"/>
<polygon fill="black" stroke="black" points="151.39,-142.31 144.87,-150.67 155.18,-148.2 151.39,-142.31"/>
</g>
<!-- DerivedCollectionObject&#45;&gt;Updater -->
<g id="edge9" class="edge">
<title>DerivedCollectionObject&#45;&gt;Updater</title>
<path fill="none" stroke="black" stroke-dasharray="5,2" d="M131.38,-141.99C155.9,-106.49 201.7,-49.96 257.86,-26.69 367.9,18.91 409.05,-3.39 525.86,-26.69 537.97,-29.1 550.64,-33.82 561.54,-38.64"/>
<polygon fill="black" stroke="black" points="128.31,-140.28 125.61,-150.53 134.11,-144.2 128.31,-140.28"/>
</g>
<!-- Role&#45;&gt;Verifier -->
<!-- VerifierRole&#45;&gt;Verifier -->
<g id="edge4" class="edge">
<title>VerifierRole&#45;&gt;Verifier</title>
<path fill="none" stroke="black" d="M386.95,-207C409.27,-211.01 436.79,-215.97 458.64,-219.9"/>
<polygon fill="black" stroke="black" points="458.09,-223.36 468.55,-221.68 459.33,-216.47 458.09,-223.36"/>
</g>
<!-- Creator&#45;&gt;Updater -->
<!-- Project&#45;&gt;Creator -->
<!-- CollectionObject -->
<g id="node1" class="node">
<title>CollectionObject</title>
<g id="a_node1"><a xlink:href="/develop/Data/models.html#collection-object" xlink:title="CollectionObject" target="_top">
<path fill="#fedcba" stroke="#dddeee" d="M302.86,-344.69C302.86,-344.69 387.86,-344.69 387.86,-344.69 393.86,-344.69 399.86,-350.69 399.86,-356.69 399.86,-356.69 399.86,-368.69 399.86,-368.69 399.86,-374.69 393.86,-380.69 387.86,-380.69 387.86,-380.69 302.86,-380.69 302.86,-380.69 296.86,-380.69 290.86,-374.69 290.86,-368.69 290.86,-368.69 290.86,-356.69 290.86,-356.69 290.86,-350.69 296.86,-344.69 302.86,-344.69"/>
<text text-anchor="middle" x="345.36" y="-358.99" font-family="Times,serif" font-size="14.00">CollectionObject</text>
</a>
</g>
</g>
<!-- DerivedCollectionObject -->
<g id="node2" class="node">
<title>DerivedCollectionObject</title>
<g id="a_node2"><a xlink:href="/develop/Data/models.html#derived-collection-object" xlink:title="DerivedCollectionObject" target="_top">
<polygon fill="#cdefab" stroke="#dedede" points="217.8,-165.23 217.8,-180.15 155.2,-190.69 66.67,-190.69 4.07,-180.15 4.07,-165.23 66.67,-154.69 155.2,-154.69 217.8,-165.23"/>
<polygon fill="none" stroke="#dedede" points="221.79,-161.85 221.79,-183.53 155.53,-194.69 66.33,-194.69 0.07,-183.53 0.07,-161.85 66.33,-150.69 155.53,-150.69 221.79,-161.85"/>
<text text-anchor="middle" x="110.93" y="-168.99" font-family="Times,serif" font-size="14.00">DerivedCollectionObject</text>
</a>
</g>
</g>
<!-- PinboardItem -->
<g id="node3" class="node">
<title>PinboardItem</title>
<g id="a_node3"><a xlink:href="/develop/Data/models.html#pinboard-item" xlink:title="PinboardItem" target="_top">
<polygon fill="#eeefff" stroke="#dddeee" points="390.86,-325.69 299.86,-325.69 299.86,-289.69 390.86,-289.69 390.86,-325.69"/>
<text text-anchor="middle" x="345.36" y="-303.99" font-family="Times,serif" font-size="14.00">PinboardItem</text>
</a>
</g>
</g>
<!-- Role -->
<g id="node4" class="node">
<title>Role</title>
<g id="a_node4"><a xlink:href="/develop/Data/models.html#role" xlink:title="Role" target="_top">
<polygon fill="#eeefff" stroke="#dddeee" points="372.36,-271.69 318.36,-271.69 318.36,-235.69 372.36,-235.69 372.36,-271.69"/>
<text text-anchor="middle" x="345.36" y="-249.99" font-family="Times,serif" font-size="14.00">Role</text>
</a>
</g>
</g>
<!-- VerifierRole -->
<g id="node5" class="node">
<title>VerifierRole</title>
<g id="a_node5"><a xlink:href="/develop/Data/models.html#verifier-role" xlink:title="VerifierRole" target="_top">
<polygon fill="#eeefff" stroke="#dddeee" points="386.86,-217.69 303.86,-217.69 303.86,-181.69 386.86,-181.69 386.86,-217.69"/>
<text text-anchor="middle" x="345.36" y="-195.99" font-family="Times,serif" font-size="14.00">VerifierRole</text>
</a>
</g>
</g>
<!-- Verifier -->
<g id="node6" class="node">
<title>Verifier</title>
<g id="a_node6"><a xlink:href="/develop/Data/models.html#verifier" xlink:title="Verifier" target="_top">
<polygon fill="#eeefff" stroke="#dddeee" points="525.86,-244.69 468.86,-244.69 468.86,-208.69 525.86,-208.69 525.86,-244.69"/>
<text text-anchor="middle" x="497.36" y="-222.99" font-family="Times,serif" font-size="14.00">Verifier</text>
</a>
</g>
</g>
<!-- CollectionObjectObservation -->
<g id="node7" class="node">
<title>CollectionObjectObservation</title>
<g id="a_node7"><a xlink:href="/develop/Data/models.html#collection-object-observation" xlink:title="CollectionObjectObservation" target="_top">
<polygon fill="#eeefff" stroke="#dddeee" points="432.86,-163.69 257.86,-163.69 257.86,-127.69 432.86,-127.69 432.86,-163.69"/>
<text text-anchor="middle" x="345.36" y="-141.99" font-family="Times,serif" font-size="14.00">CollectionObjectObservation</text>
</a>
</g>
</g>
<!-- Creator -->
<g id="node8" class="node">
<title>Creator</title>
<g id="a_node8"><a xlink:href="/develop/Data/models.html#creator" xlink:title="Creator" target="_top">
<polygon fill="#eeefff" stroke="#dddeee" points="525.86,-71.69 468.86,-71.69 468.86,-35.69 525.86,-35.69 525.86,-71.69"/>
<text text-anchor="middle" x="497.36" y="-49.99" font-family="Times,serif" font-size="14.00">Creator</text>
</a>
</g>
</g>
<!-- Project -->
<g id="node9" class="node">
<title>Project</title>
<g id="a_node9"><a xlink:href="/develop/Data/models.html#project" xlink:title="Project" target="_top">
<polygon fill="#eeefff" stroke="#dddeee" points="372.86,-71.69 317.86,-71.69 317.86,-35.69 372.86,-35.69 372.86,-71.69"/>
<text text-anchor="middle" x="345.36" y="-49.99" font-family="Times,serif" font-size="14.00">Project</text>
</a>
</g>
</g>
<!-- Updater -->
<g id="node10" class="node">
<title>Updater</title>
<g id="a_node10"><a xlink:href="/develop/Data/models.html#updater" xlink:title="Updater" target="_top">
<polygon fill="#eeefff" stroke="#dddeee" points="621.86,-71.69 561.86,-71.69 561.86,-35.69 621.86,-35.69 621.86,-71.69"/>
<text text-anchor="middle" x="591.86" y="-49.99" font-family="Times,serif" font-size="14.00">Updater</text>
</a>
</g>
</g>
</g>
</svg>
