<?xml version="1.0" encoding="UTF-8" standalone="no"?>
<!DOCTYPE svg PUBLIC "-//W3C//DTD SVG 1.1//EN"
 "http://www.w3.org/Graphics/SVG/1.1/DTD/svg11.dtd">
<!-- Generated by graphviz version 2.50.0 (20211204.2007)
 -->
<!-- Title: Descriptor Pages: 1 -->
<svg width="858pt" height="778pt"
 viewBox="0.00 0.00 858.39 778.00" xmlns="http://www.w3.org/2000/svg" xmlns:xlink="http://www.w3.org/1999/xlink">
<g id="graph0" class="graph" transform="scale(1 1) rotate(0) translate(4 774)">
<title>Descriptor</title>
<polygon fill="white" stroke="transparent" points="-4,4 -4,-774 854.39,-774 854.39,4 -4,4"/>
<text text-anchor="middle" x="425.19" y="-22.8" font-family="Times,serif" font-size="14.00">Algorithmically generated relationships for Descriptor based on assertions of &#39;has_many&#39;, &#39;has_one&#39;, &#39;belongs_to&#39;. </text>
<text text-anchor="middle" x="425.19" y="-7.8" font-family="Times,serif" font-size="14.00">Generated 2022&#45;01&#45;25 11:43:11 &#45;0600.</text>
<!-- AlternateValue&#45;&gt;AlternateValueLanguage -->
<g id="edge1" class="edge">
<title>AlternateValue&#45;&gt;AlternateValueLanguage</title>
<path fill="none" stroke="black" d="M96.38,-694.64C115.58,-703.9 140.68,-715.61 163.39,-725 167.77,-726.81 172.32,-728.62 176.91,-730.4"/>
<polygon fill="black" stroke="black" points="175.77,-733.71 186.36,-734 178.26,-727.17 175.77,-733.71"/>
</g>
<!-- Citation&#45;&gt;Source -->
<g id="edge22" class="edge">
<title>Citation&#45;&gt;Source</title>
<path fill="none" stroke="black" d="M102.84,-542C176.18,-540.06 335.95,-535.86 407.93,-533.96"/>
<polygon fill="black" stroke="black" points="408.4,-537.45 418.3,-533.69 408.21,-530.45 408.4,-537.45"/>
</g>
<!-- Citation&#45;&gt;CitationTopic -->
<g id="edge3" class="edge">
<title>Citation&#45;&gt;CitationTopic</title>
<path fill="none" stroke="black" d="M82.58,-559C112.79,-586.04 174.14,-640.95 210.03,-673.07"/>
<polygon fill="black" stroke="black" points="207.93,-675.88 217.71,-679.94 212.6,-670.67 207.93,-675.88"/>
</g>
<!-- Confidence&#45;&gt;ConfidenceLevel -->
<g id="edge5" class="edge">
<title>Confidence&#45;&gt;ConfidenceLevel</title>
<path fill="none" stroke="black" d="M114.79,-327C133.34,-327 154.62,-327 174.21,-327"/>
<polygon fill="black" stroke="black" points="174.28,-330.5 184.28,-327 174.28,-323.5 174.28,-330.5"/>
</g>
<!-- Depiction&#45;&gt;Image -->
<g id="edge12" class="edge">
<title>Depiction&#45;&gt;Image</title>
<path fill="none" stroke="black" d="M109.3,-273C137.96,-273 174.73,-273 201.61,-273"/>
<polygon fill="black" stroke="black" points="201.74,-276.5 211.74,-273 201.74,-269.5 201.74,-276.5"/>
</g>
<!-- Tag&#45;&gt;Keyword -->
<g id="edge13" class="edge">
<title>Tag&#45;&gt;Keyword</title>
<path fill="none" stroke="black" d="M91,-219C118.58,-219 162.36,-219 194.96,-219"/>
<polygon fill="black" stroke="black" points="195.11,-222.5 205.11,-219 195.11,-215.5 195.11,-222.5"/>
</g>
<!-- Descriptor&#45;&gt;AlternateValue -->
<g id="edge2" class="edge">
<title>Descriptor&#45;&gt;AlternateValue</title>
<path fill="none" stroke="black" d="M224.92,-407.01C193.7,-460 114.43,-594.58 80.5,-652.17"/>
<polygon fill="black" stroke="black" points="77.33,-650.66 75.27,-661.05 83.36,-654.21 77.33,-650.66"/>
</g>
<!-- Descriptor&#45;&gt;Citation -->
<g id="edge4" class="edge">
<title>Descriptor&#45;&gt;Citation</title>
<path fill="none" stroke="black" d="M223.94,-407.22C205.07,-435.72 168.96,-485.15 127.39,-516 120.76,-520.92 113.09,-525.16 105.45,-528.73"/>
<polygon fill="black" stroke="black" points="103.98,-525.55 96.2,-532.75 106.77,-531.97 103.98,-525.55"/>
</g>
<!-- Descriptor&#45;&gt;Confidence -->
<g id="edge6" class="edge">
<title>Descriptor&#45;&gt;Confidence</title>
<path fill="none" stroke="black" d="M194.48,-370.46C169.05,-361.95 136.94,-351.2 111.03,-342.52"/>
<polygon fill="black" stroke="black" points="112.02,-339.16 101.42,-339.3 109.8,-345.79 112.02,-339.16"/>
</g>
<!-- Descriptor&#45;&gt;DataAttribute -->
<g id="edge7" class="edge">
<title>Descriptor&#45;&gt;DataAttribute</title>
<path fill="none" stroke="black" d="M211.63,-405.57C189.84,-422.07 157.63,-445.18 127.39,-462 121.88,-465.06 115.96,-468.02 110.03,-470.78"/>
<polygon fill="black" stroke="black" points="108.46,-467.65 100.77,-474.94 111.33,-474.03 108.46,-467.65"/>
</g>
<!-- Descriptor&#45;&gt;Depiction -->
<g id="edge8" class="edge">
<title>Descriptor&#45;&gt;Depiction</title>
<path fill="none" stroke="black" d="M192.55,-371.12C182.3,-366.68 171.93,-361.03 163.39,-354 141.12,-335.67 149.55,-318.47 127.39,-300 122.01,-295.51 115.77,-291.66 109.35,-288.39"/>
<polygon fill="black" stroke="black" points="110.45,-285.04 99.91,-284 107.5,-291.39 110.45,-285.04"/>
</g>
<!-- Descriptor&#45;&gt;Identifier -->
<g id="edge11" class="edge">
<title>Descriptor&#45;&gt;Identifier</title>
<path fill="none" stroke="black" d="M191.39,-398.42C165.95,-405.77 134.57,-414.83 109.41,-422.09"/>
<polygon fill="black" stroke="black" points="108.38,-418.75 99.74,-424.88 110.32,-425.47 108.38,-418.75"/>
</g>
<!-- Descriptor&#45;&gt;Tag -->
<g id="edge25" class="edge">
<title>Descriptor&#45;&gt;Tag</title>
<path fill="none" stroke="black" d="M189.94,-372.14C180.15,-367.7 170.64,-361.8 163.39,-354 128.93,-316.95 161.62,-283.26 127.39,-246 119.86,-237.8 109.41,-231.98 99.19,-227.9"/>
<polygon fill="black" stroke="black" points="100.18,-224.54 89.58,-224.5 97.84,-231.13 100.18,-224.54"/>
</g>
<!-- Descriptor&#45;&gt;Note -->
<g id="edge14" class="edge">
<title>Descriptor&#45;&gt;Note</title>
<path fill="none" stroke="black" d="M182.73,-383.73C156.39,-383.12 125.56,-382.41 102.02,-381.86"/>
<polygon fill="black" stroke="black" points="101.83,-378.36 91.76,-381.62 101.67,-385.36 101.83,-378.36"/>
</g>
<!-- Descriptor&#45;&gt;Observation -->
<g id="edge18" class="edge">
<title>Descriptor&#45;&gt;Observation</title>
<path fill="none" stroke="black" d="M244.29,-407.34C254.5,-453.23 284.16,-558.51 350.39,-615 362.61,-625.42 378.59,-631.97 393.9,-636.08"/>
<polygon fill="black" stroke="black" points="393.27,-639.53 403.81,-638.44 394.9,-632.72 393.27,-639.53"/>
</g>
<!-- Descriptor&#45;&gt;Source -->
<g id="edge33" class="edge">
<title>Descriptor&#45;&gt;Source</title>
<path fill="none" stroke="black" stroke-dasharray="1,5" d="M260.8,-415.81C280.79,-443.02 313.32,-481.86 350.39,-505 371.19,-517.98 398.33,-525.22 418.1,-529.07"/>
<polygon fill="black" stroke="black" points="263.44,-413.49 254.76,-407.42 257.76,-417.58 263.44,-413.49"/>
</g>
<!-- Descriptor&#45;&gt;Documentation -->
<g id="edge9" class="edge">
<title>Descriptor&#45;&gt;Documentation</title>
<path fill="none" stroke="black" d="M294.96,-375.04C322.67,-370.02 356.3,-363.94 384.64,-358.81"/>
<polygon fill="black" stroke="black" points="385.6,-362.19 394.81,-356.97 384.35,-355.31 385.6,-362.19"/>
</g>
<!-- Descriptor&#45;&gt;ObservationMatrixColumn -->
<g id="edge17" class="edge">
<title>Descriptor&#45;&gt;ObservationMatrixColumn</title>
<path fill="none" stroke="black" d="M247.66,-407.03C262,-444.42 296.18,-520.23 350.39,-561 352.21,-562.37 354.09,-563.67 356.04,-564.9"/>
<polygon fill="black" stroke="black" points="354.44,-568.02 364.87,-569.9 357.89,-561.93 354.44,-568.02"/>
</g>
<!-- Descriptor&#45;&gt;ObservationMatrixColumnItem -->
<g id="edge16" class="edge">
<title>Descriptor&#45;&gt;ObservationMatrixColumnItem</title>
<path fill="none" stroke="black" d="M289.73,-372.73C299.18,-368.28 308.07,-362.22 314.39,-354 387.11,-259.43 274.58,-180.12 350.39,-88 352.7,-85.19 355.28,-82.62 358.05,-80.28"/>
<polygon fill="black" stroke="black" points="360.32,-82.96 366.35,-74.25 356.2,-77.29 360.32,-82.96"/>
</g>
<!-- Descriptor&#45;&gt;PinboardItem -->
<g id="edge20" class="edge">
<title>Descriptor&#45;&gt;PinboardItem</title>
<path fill="none" stroke="black" d="M270.58,-403.86C292.35,-416.76 322.53,-433.68 350.39,-446 362.95,-451.55 376.8,-456.75 389.92,-461.28"/>
<polygon fill="black" stroke="black" points="389.18,-464.72 399.78,-464.6 391.42,-458.09 389.18,-464.72"/>
</g>
<!-- Descriptor&#45;&gt;Role -->
<g id="edge21" class="edge">
<title>Descriptor&#45;&gt;Role</title>
<path fill="none" stroke="black" d="M288.46,-372.18C298.1,-367.75 307.39,-361.84 314.39,-354 352.88,-310.86 309.49,-269.87 350.39,-229 365.56,-213.84 388.64,-207.07 408.13,-204.1"/>
<polygon fill="black" stroke="black" points="408.74,-207.55 418.23,-202.84 407.87,-200.6 408.74,-207.55"/>
</g>
<!-- Descriptor&#45;&gt;SubsequentCitation -->
<g id="edge23" class="edge">
<title>Descriptor&#45;&gt;SubsequentCitation</title>
<path fill="none" stroke="black" d="M283.66,-399.37C303.83,-405.66 328.17,-412.77 350.39,-418 433.82,-437.63 460.56,-419.79 540.39,-451 563.89,-460.19 587.74,-475.55 605.78,-488.68"/>
<polygon fill="black" stroke="black" points="604.04,-491.75 614.15,-494.92 608.22,-486.14 604.04,-491.75"/>
</g>
<!-- Descriptor&#45;&gt;VerifierRole -->
<g id="edge27" class="edge">
<title>Descriptor&#45;&gt;VerifierRole</title>
<path fill="none" stroke="black" d="M286.08,-371.48C296.18,-367.04 306.27,-361.31 314.39,-354 339.22,-331.65 324.83,-309.52 350.39,-288 362.72,-277.62 378.59,-270.55 393.76,-265.76"/>
<polygon fill="black" stroke="black" points="394.94,-269.06 403.59,-262.93 393.01,-262.34 394.94,-269.06"/>
</g>
<!-- Descriptor&#45;&gt;Creator -->
<g id="edge29" class="edge">
<title>Descriptor&#45;&gt;Creator</title>
<path fill="none" stroke="black" stroke-dasharray="5,2" d="M298.68,-367.73C304.65,-364 310.09,-359.48 314.39,-354 379.04,-271.54 270.84,-189.2 350.39,-121 424.6,-57.37 552.82,-107 608.85,-133.76"/>
<polygon fill="black" stroke="black" points="296.74,-364.8 289.61,-372.64 300.07,-370.96 296.74,-364.8"/>
</g>
<!-- Descriptor&#45;&gt;Project -->
<g id="edge30" class="edge">
<title>Descriptor&#45;&gt;Project</title>
<path fill="none" stroke="black" stroke-dasharray="5,2" d="M298.2,-367.69C304.31,-363.96 309.91,-359.46 314.39,-354 365.88,-291.28 295.39,-234.66 350.39,-175 367.54,-156.4 396.57,-150.3 417.84,-148.46"/>
<polygon fill="black" stroke="black" points="296.14,-364.82 288.95,-372.6 299.43,-371 296.14,-364.82"/>
</g>
<!-- Descriptor&#45;&gt;Updater -->
<g id="edge31" class="edge">
<title>Descriptor&#45;&gt;Updater</title>
<path fill="none" stroke="black" stroke-dasharray="5,2" d="M291.71,-366.2C299.54,-362.58 307.34,-358.5 314.39,-354 332.68,-342.32 330.97,-330.7 350.39,-321 491.14,-250.68 562.02,-334.49 698.39,-256 736.35,-234.15 766.27,-190.89 781.13,-166.27"/>
<polygon fill="black" stroke="black" points="290.29,-363 282.55,-370.23 293.11,-369.41 290.29,-363"/>
</g>
<!-- Descriptor&#45;&gt;OriginCitation -->
<g id="edge32" class="edge">
<title>Descriptor&#45;&gt;OriginCitation</title>
<path fill="none" stroke="black" stroke-dasharray="1,5" d="M305.25,-389.98C366.33,-395.15 459.91,-404.41 540.39,-418 556.57,-420.73 574.12,-424.51 589.73,-428.16"/>
<polygon fill="black" stroke="black" points="305.24,-386.47 294.99,-389.12 304.66,-393.44 305.24,-386.47"/>
</g>
<!-- Observation&#45;&gt;Otu -->
<g id="edge19" class="edge">
<title>Observation&#45;&gt;Otu</title>
<path fill="none" stroke="black" d="M487.15,-643C520.65,-643 567.69,-643 599.96,-643"/>
<polygon fill="black" stroke="black" points="600.29,-646.5 610.29,-643 600.29,-639.5 600.29,-646.5"/>
</g>
<!-- Observation&#45;&gt;ObservationMatrix -->
<!-- Source&#45;&gt;SubsequentCitation -->
<!-- Source&#45;&gt;OriginCitation -->
<!-- CitationTopic&#45;&gt;Topic -->
<g id="edge26" class="edge">
<title>CitationTopic&#45;&gt;Topic</title>
<path fill="none" stroke="black" d="M285.02,-698C322.01,-698 373.68,-698 408.05,-698"/>
<polygon fill="black" stroke="black" points="408.12,-701.5 418.12,-698 408.12,-694.5 408.12,-701.5"/>
</g>
<!-- Documentation&#45;&gt;Document -->
<g id="edge10" class="edge">
<title>Documentation&#45;&gt;Document</title>
<path fill="none" stroke="black" d="M496.31,-348C525.39,-348 561.81,-348 590.23,-348"/>
<polygon fill="black" stroke="black" points="590.31,-351.5 600.31,-348 590.31,-344.5 590.31,-351.5"/>
</g>
<!-- ObservationMatrixColumn&#45;&gt;ObservationMatrix -->
<g id="edge15" class="edge">
<title>ObservationMatrixColumn&#45;&gt;ObservationMatrix</title>
<path fill="none" stroke="black" d="M527.52,-588C540.73,-588 554.31,-588 567.2,-588"/>
<polygon fill="black" stroke="black" points="567.37,-591.5 577.37,-588 567.37,-584.5 567.37,-591.5"/>
</g>
<!-- Role&#45;&gt;Verifier -->
<!-- SubsequentCitation&#45;&gt;SubsequentSource -->
<g id="edge24" class="edge">
<title>SubsequentCitation&#45;&gt;SubsequentSource</title>
<path fill="none" stroke="black" d="M698.42,-513C706.75,-513 715.36,-513 723.82,-513"/>
<polygon fill="black" stroke="black" points="724.03,-516.5 734.03,-513 724.03,-509.5 724.03,-516.5"/>
</g>
<!-- VerifierRole&#45;&gt;Verifier -->
<g id="edge28" class="edge">
<title>VerifierRole&#45;&gt;Verifier</title>
<path fill="none" stroke="black" d="M487.15,-250.21C520.31,-245.5 566.72,-238.9 598.95,-234.32"/>
<polygon fill="black" stroke="black" points="599.47,-237.78 608.88,-232.91 598.49,-230.85 599.47,-237.78"/>
</g>
<!-- Creator&#45;&gt;Updater -->
<!-- Project&#45;&gt;Creator -->
<!-- AlternateValue -->
<g id="node1" class="node">
<title>AlternateValue</title>
<g id="a_node1"><a xlink:href="/develop/Data/models.html#alternate-value" xlink:title="AlternateValue" target="_top">
<ellipse fill="#abcdef" stroke="#dddeee" cx="63.69" cy="-679" rx="63.89" ry="18"/>
<text text-anchor="middle" x="63.69" y="-675.3" font-family="Times,serif" font-size="14.00">AlternateValue</text>
</a>
</g>
</g>
<!-- Citation -->
<g id="node2" class="node">
<title>Citation</title>
<g id="a_node2"><a xlink:href="/develop/Data/models.html#citation" xlink:title="Citation" target="_top">
<ellipse fill="#abcdef" stroke="#dddeee" cx="63.69" cy="-543" rx="38.99" ry="18"/>
<text text-anchor="middle" x="63.69" y="-539.3" font-family="Times,serif" font-size="14.00">Citation</text>
</a>
</g>
</g>
<!-- Confidence -->
<g id="node3" class="node">
<title>Confidence</title>
<g id="a_node3"><a xlink:href="/develop/Data/models.html#confidence" xlink:title="Confidence" target="_top">
<ellipse fill="#abcdef" stroke="#dddeee" cx="63.69" cy="-327" rx="50.89" ry="18"/>
<text text-anchor="middle" x="63.69" y="-323.3" font-family="Times,serif" font-size="14.00">Confidence</text>
</a>
</g>
</g>
<!-- DataAttribute -->
<g id="node4" class="node">
<title>DataAttribute</title>
<g id="a_node4"><a xlink:href="/develop/Data/models.html#data-attribute" xlink:title="DataAttribute" target="_top">
<ellipse fill="#abcdef" stroke="#dddeee" cx="63.69" cy="-489" rx="59.29" ry="18"/>
<text text-anchor="middle" x="63.69" y="-485.3" font-family="Times,serif" font-size="14.00">DataAttribute</text>
</a>
</g>
</g>
<!-- Depiction -->
<g id="node5" class="node">
<title>Depiction</title>
<g id="a_node5"><a xlink:href="/develop/Data/models.html#depiction" xlink:title="Depiction" target="_top">
<ellipse fill="#abcdef" stroke="#dddeee" cx="63.69" cy="-273" rx="45.49" ry="18"/>
<text text-anchor="middle" x="63.69" y="-269.3" font-family="Times,serif" font-size="14.00">Depiction</text>
</a>
</g>
</g>
<!-- Identifier -->
<g id="node6" class="node">
<title>Identifier</title>
<g id="a_node6"><a xlink:href="/develop/Data/models.html#identifier" xlink:title="Identifier" target="_top">
<ellipse fill="#abcdef" stroke="#dddeee" cx="63.69" cy="-435" rx="42.79" ry="18"/>
<text text-anchor="middle" x="63.69" y="-431.3" font-family="Times,serif" font-size="14.00">Identifier</text>
</a>
</g>
</g>
<!-- Tag -->
<g id="node7" class="node">
<title>Tag</title>
<g id="a_node7"><a xlink:href="/develop/Data/models.html#tag" xlink:title="Tag" target="_top">
<ellipse fill="#abcdef" stroke="#dddeee" cx="63.69" cy="-219" rx="27" ry="18"/>
<text text-anchor="middle" x="63.69" y="-215.3" font-family="Times,serif" font-size="14.00">Tag</text>
</a>
</g>
</g>
<!-- Note -->
<g id="node8" class="node">
<title>Note</title>
<g id="a_node8"><a xlink:href="/develop/Data/models.html#note" xlink:title="Note" target="_top">
<ellipse fill="#abcdef" stroke="#dddeee" cx="63.69" cy="-381" rx="27.9" ry="18"/>
<text text-anchor="middle" x="63.69" y="-377.3" font-family="Times,serif" font-size="14.00">Note</text>
</a>
</g>
</g>
<!-- Descriptor -->
<g id="node9" class="node">
<title>Descriptor</title>
<g id="a_node9"><a xlink:href="/develop/Data/models.html#descriptor" xlink:title="Descriptor" target="_top">
<polygon fill="#cdefab" stroke="#dedede" points="291,-377.54 291,-392.46 260.47,-403 217.3,-403 186.78,-392.46 186.78,-377.54 217.3,-367 260.47,-367 291,-377.54"/>
<polygon fill="none" stroke="#dedede" points="295.01,-374.69 295.01,-395.31 261.15,-407 216.63,-407 182.77,-395.31 182.77,-374.69 216.63,-363 261.15,-363 295.01,-374.69"/>
<text text-anchor="middle" x="238.89" y="-381.3" font-family="Times,serif" font-size="14.00">Descriptor</text>
</a>
</g>
</g>
<!-- Observation -->
<g id="node10" class="node">
<title>Observation</title>
<g id="a_node10"><a xlink:href="/develop/Data/models.html#observation" xlink:title="Observation" target="_top">
<path fill="#fedcba" stroke="#dddeee" d="M415.89,-625C415.89,-625 474.89,-625 474.89,-625 480.89,-625 486.89,-631 486.89,-637 486.89,-637 486.89,-649 486.89,-649 486.89,-655 480.89,-661 474.89,-661 474.89,-661 415.89,-661 415.89,-661 409.89,-661 403.89,-655 403.89,-649 403.89,-649 403.89,-637 403.89,-637 403.89,-631 409.89,-625 415.89,-625"/>
<text text-anchor="middle" x="445.39" y="-639.3" font-family="Times,serif" font-size="14.00">Observation</text>
</a>
</g>
</g>
<!-- Otu -->
<g id="node11" class="node">
<title>Otu</title>
<g id="a_node11"><a xlink:href="/develop/Data/models.html#otu" xlink:title="Otu" target="_top">
<path fill="#fedcba" stroke="#dddeee" d="M622.39,-625C622.39,-625 652.39,-625 652.39,-625 658.39,-625 664.39,-631 664.39,-637 664.39,-637 664.39,-649 664.39,-649 664.39,-655 658.39,-661 652.39,-661 652.39,-661 622.39,-661 622.39,-661 616.39,-661 610.39,-655 610.39,-649 610.39,-649 610.39,-637 610.39,-637 610.39,-631 616.39,-625 622.39,-625"/>
<text text-anchor="middle" x="637.39" y="-639.3" font-family="Times,serif" font-size="14.00">Otu</text>
</a>
</g>
</g>
<!-- Source -->
<g id="node12" class="node">
<title>Source</title>
<g id="a_node12"><a xlink:href="/develop/Data/models.html#source" xlink:title="Source" target="_top">
<path fill="#fedcba" stroke="#dddeee" d="M430.39,-515C430.39,-515 460.39,-515 460.39,-515 466.39,-515 472.39,-521 472.39,-527 472.39,-527 472.39,-539 472.39,-539 472.39,-545 466.39,-551 460.39,-551 460.39,-551 430.39,-551 430.39,-551 424.39,-551 418.39,-545 418.39,-539 418.39,-539 418.39,-527 418.39,-527 418.39,-521 424.39,-515 430.39,-515"/>
<text text-anchor="middle" x="445.39" y="-529.3" font-family="Times,serif" font-size="14.00">Source</text>
</a>
</g>
</g>
<!-- AlternateValueLanguage -->
<g id="node13" class="node">
<title>AlternateValueLanguage</title>
<g id="a_node13"><a xlink:href="/develop/Data/models.html#alternate-value-language" xlink:title="AlternateValueLanguage" target="_top">
<polygon fill="#eeefff" stroke="#dddeee" points="314.39,-770 163.39,-770 163.39,-734 314.39,-734 314.39,-770"/>
<text text-anchor="middle" x="238.89" y="-748.3" font-family="Times,serif" font-size="14.00">AlternateValueLanguage</text>
</a>
</g>
</g>
<!-- CitationTopic -->
<g id="node14" class="node">
<title>CitationTopic</title>
<g id="a_node14"><a xlink:href="/develop/Data/models.html#citation-topic" xlink:title="CitationTopic" target="_top">
<polygon fill="#eeefff" stroke="#dddeee" points="284.89,-716 192.89,-716 192.89,-680 284.89,-680 284.89,-716"/>
<text text-anchor="middle" x="238.89" y="-694.3" font-family="Times,serif" font-size="14.00">CitationTopic</text>
</a>
</g>
</g>
<!-- ConfidenceLevel -->
<g id="node15" class="node">
<title>ConfidenceLevel</title>
<g id="a_node15"><a xlink:href="/develop/Data/models.html#confidence-level" xlink:title="ConfidenceLevel" target="_top">
<polygon fill="#eeefff" stroke="#dddeee" points="293.39,-345 184.39,-345 184.39,-309 293.39,-309 293.39,-345"/>
<text text-anchor="middle" x="238.89" y="-323.3" font-family="Times,serif" font-size="14.00">ConfidenceLevel</text>
</a>
</g>
</g>
<!-- Documentation -->
<g id="node16" class="node">
<title>Documentation</title>
<g id="a_node16"><a xlink:href="/develop/Data/models.html#documentation" xlink:title="Documentation" target="_top">
<polygon fill="#eeefff" stroke="#dddeee" points="495.89,-366 394.89,-366 394.89,-330 495.89,-330 495.89,-366"/>
<text text-anchor="middle" x="445.39" y="-344.3" font-family="Times,serif" font-size="14.00">Documentation</text>
</a>
</g>
</g>
<!-- Document -->
<g id="node17" class="node">
<title>Document</title>
<g id="a_node17"><a xlink:href="/develop/Data/models.html#document" xlink:title="Document" target="_top">
<polygon fill="#eeefff" stroke="#dddeee" points="674.39,-366 600.39,-366 600.39,-330 674.39,-330 674.39,-366"/>
<text text-anchor="middle" x="637.39" y="-344.3" font-family="Times,serif" font-size="14.00">Document</text>
</a>
</g>
</g>
<!-- Image -->
<g id="node18" class="node">
<title>Image</title>
<g id="a_node18"><a xlink:href="/develop/Data/models.html#image" xlink:title="Image" target="_top">
<polygon fill="#eeefff" stroke="#dddeee" points="265.89,-291 211.89,-291 211.89,-255 265.89,-255 265.89,-291"/>
<text text-anchor="middle" x="238.89" y="-269.3" font-family="Times,serif" font-size="14.00">Image</text>
</a>
</g>
</g>
<!-- Keyword -->
<g id="node19" class="node">
<title>Keyword</title>
<g id="a_node19"><a xlink:href="/develop/Data/models.html#keyword" xlink:title="Keyword" target="_top">
<polygon fill="#eeefff" stroke="#dddeee" points="272.39,-237 205.39,-237 205.39,-201 272.39,-201 272.39,-237"/>
<text text-anchor="middle" x="238.89" y="-215.3" font-family="Times,serif" font-size="14.00">Keyword</text>
</a>
</g>
</g>
<!-- ObservationMatrixColumn -->
<g id="node20" class="node">
<title>ObservationMatrixColumn</title>
<g id="a_node20"><a xlink:href="/develop/Data/models.html#observation-matrix-column" xlink:title="ObservationMatrixColumn" target="_top">
<polygon fill="#eeefff" stroke="#dddeee" points="527.39,-606 363.39,-606 363.39,-570 527.39,-570 527.39,-606"/>
<text text-anchor="middle" x="445.39" y="-584.3" font-family="Times,serif" font-size="14.00">ObservationMatrixColumn</text>
</a>
</g>
</g>
<!-- ObservationMatrix -->
<g id="node21" class="node">
<title>ObservationMatrix</title>
<g id="a_node21"><a xlink:href="/develop/Data/models.html#observation-matrix" xlink:title="ObservationMatrix" target="_top">
<polygon fill="#eeefff" stroke="#dddeee" points="697.39,-606 577.39,-606 577.39,-570 697.39,-570 697.39,-606"/>
<text text-anchor="middle" x="637.39" y="-584.3" font-family="Times,serif" font-size="14.00">ObservationMatrix</text>
</a>
</g>
</g>
<!-- ObservationMatrixColumnItem -->
<g id="node22" class="node">
<title>ObservationMatrixColumnItem</title>
<g id="a_node22"><a xlink:href="/develop/Data/models.html#observation-matrix-column-item" xlink:title="ObservationMatrixColumnItem" target="_top">
<polygon fill="#eeefff" stroke="#dddeee" points="540.39,-74 350.39,-74 350.39,-38 540.39,-38 540.39,-74"/>
<text text-anchor="middle" x="445.39" y="-52.3" font-family="Times,serif" font-size="14.00">ObservationMatrixColumnItem</text>
</a>
</g>
</g>
<!-- PinboardItem -->
<g id="node23" class="node">
<title>PinboardItem</title>
<g id="a_node23"><a xlink:href="/develop/Data/models.html#pinboard-item" xlink:title="PinboardItem" target="_top">
<polygon fill="#eeefff" stroke="#dddeee" points="490.89,-496 399.89,-496 399.89,-460 490.89,-460 490.89,-496"/>
<text text-anchor="middle" x="445.39" y="-474.3" font-family="Times,serif" font-size="14.00">PinboardItem</text>
</a>
</g>
</g>
<!-- Role -->
<g id="node24" class="node">
<title>Role</title>
<g id="a_node24"><a xlink:href="/develop/Data/models.html#role" xlink:title="Role" target="_top">
<polygon fill="#eeefff" stroke="#dddeee" points="472.39,-220 418.39,-220 418.39,-184 472.39,-184 472.39,-220"/>
<text text-anchor="middle" x="445.39" y="-198.3" font-family="Times,serif" font-size="14.00">Role</text>
</a>
</g>
</g>
<!-- SubsequentCitation -->
<g id="node25" class="node">
<title>SubsequentCitation</title>
<g id="a_node25"><a xlink:href="/develop/Data/models.html#subsequent-citation" xlink:title="SubsequentCitation" target="_top">
<polygon fill="#eeefff" stroke="#dddeee" points="698.39,-531 576.39,-531 576.39,-495 698.39,-495 698.39,-531"/>
<text text-anchor="middle" x="637.39" y="-509.3" font-family="Times,serif" font-size="14.00">SubsequentCitation</text>
</a>
</g>
</g>
<!-- SubsequentSource -->
<g id="node26" class="node">
<title>SubsequentSource</title>
<g id="a_node26"><a xlink:href="/develop/Data/models.html#subsequent-source" xlink:title="SubsequentSource" target="_top">
<polygon fill="#eeefff" stroke="#dddeee" points="850.39,-531 734.39,-531 734.39,-495 850.39,-495 850.39,-531"/>
<text text-anchor="middle" x="792.39" y="-509.3" font-family="Times,serif" font-size="14.00">SubsequentSource</text>
</a>
</g>
</g>
<!-- Topic -->
<g id="node27" class="node">
<title>Topic</title>
<g id="a_node27"><a xlink:href="/develop/Data/models.html#topic" xlink:title="Topic" target="_top">
<polygon fill="#eeefff" stroke="#dddeee" points="472.39,-716 418.39,-716 418.39,-680 472.39,-680 472.39,-716"/>
<text text-anchor="middle" x="445.39" y="-694.3" font-family="Times,serif" font-size="14.00">Topic</text>
</a>
</g>
</g>
<!-- VerifierRole -->
<g id="node28" class="node">
<title>VerifierRole</title>
<g id="a_node28"><a xlink:href="/develop/Data/models.html#verifier-role" xlink:title="VerifierRole" target="_top">
<polygon fill="#eeefff" stroke="#dddeee" points="486.89,-274 403.89,-274 403.89,-238 486.89,-238 486.89,-274"/>
<text text-anchor="middle" x="445.39" y="-252.3" font-family="Times,serif" font-size="14.00">VerifierRole</text>
</a>
</g>
</g>
<!-- Verifier -->
<g id="node29" class="node">
<title>Verifier</title>
<g id="a_node29"><a xlink:href="/develop/Data/models.html#verifier" xlink:title="Verifier" target="_top">
<polygon fill="#eeefff" stroke="#dddeee" points="665.89,-247 608.89,-247 608.89,-211 665.89,-211 665.89,-247"/>
<text text-anchor="middle" x="637.39" y="-225.3" font-family="Times,serif" font-size="14.00">Verifier</text>
</a>
</g>
</g>
<!-- Creator -->
<g id="node30" class="node">
<title>Creator</title>
<g id="a_node30"><a xlink:href="/develop/Data/models.html#creator" xlink:title="Creator" target="_top">
<polygon fill="#eeefff" stroke="#dddeee" points="665.89,-166 608.89,-166 608.89,-130 665.89,-130 665.89,-166"/>
<text text-anchor="middle" x="637.39" y="-144.3" font-family="Times,serif" font-size="14.00">Creator</text>
</a>
</g>
</g>
<!-- Project -->
<g id="node31" class="node">
<title>Project</title>
<g id="a_node31"><a xlink:href="/develop/Data/models.html#project" xlink:title="Project" target="_top">
<polygon fill="#eeefff" stroke="#dddeee" points="472.89,-166 417.89,-166 417.89,-130 472.89,-130 472.89,-166"/>
<text text-anchor="middle" x="445.39" y="-144.3" font-family="Times,serif" font-size="14.00">Project</text>
</a>
</g>
</g>
<!-- Updater -->
<g id="node32" class="node">
<title>Updater</title>
<g id="a_node32"><a xlink:href="/develop/Data/models.html#updater" xlink:title="Updater" target="_top">
<polygon fill="#eeefff" stroke="#dddeee" points="822.39,-166 762.39,-166 762.39,-130 822.39,-130 822.39,-166"/>
<text text-anchor="middle" x="792.39" y="-144.3" font-family="Times,serif" font-size="14.00">Updater</text>
</a>
</g>
</g>
<!-- OriginCitation -->
<g id="node33" class="node">
<title>OriginCitation</title>
<g id="a_node33"><a xlink:href="/develop/Data/models.html#origin-citation" xlink:title="OriginCitation" target="_top">
<polygon fill="#eeefff" stroke="#dddeee" points="684.89,-458 589.89,-458 589.89,-422 684.89,-422 684.89,-458"/>
<text text-anchor="middle" x="637.39" y="-436.3" font-family="Times,serif" font-size="14.00">OriginCitation</text>
</a>
</g>
</g>
</g>
</svg>
