<?xml version="1.0" encoding="UTF-8" standalone="no"?>
<!DOCTYPE svg PUBLIC "-//W3C//DTD SVG 1.1//EN"
 "http://www.w3.org/Graphics/SVG/1.1/DTD/svg11.dtd">
<!-- Generated by graphviz version 2.50.0 (20211204.2007)
 -->
<!-- Title: Descriptor Pages: 1 -->
<svg width="858pt" height="740pt"
 viewBox="0.00 0.00 858.39 740.00" xmlns="http://www.w3.org/2000/svg" xmlns:xlink="http://www.w3.org/1999/xlink">
<g id="graph0" class="graph" transform="scale(1 1) rotate(0) translate(4 736)">
<title>Descriptor</title>
<polygon fill="white" stroke="transparent" points="-4,4 -4,-736 854.39,-736 854.39,4 -4,4"/>
<!-- AlternateValue&#45;&gt;AlternateValueLanguage -->
<g id="edge1" class="edge">
<title>AlternateValue&#45;&gt;AlternateValueLanguage</title>
<path fill="none" stroke="black" stroke-dasharray="1,5" d="M96.38,-656.64C115.58,-665.9 140.68,-677.61 163.39,-687 167.77,-688.81 172.32,-690.62 176.91,-692.4"/>
<polygon fill="black" stroke="black" points="175.77,-695.71 186.36,-696 178.26,-689.17 175.77,-695.71"/>
</g>
<!-- Citation&#45;&gt;Source -->
<g id="edge22" class="edge">
<title>Citation&#45;&gt;Source</title>
<path fill="none" stroke="black" stroke-dasharray="1,5" d="M102.84,-504C176.18,-502.06 335.95,-497.86 407.93,-495.96"/>
<polygon fill="black" stroke="black" points="408.4,-499.45 418.3,-495.69 408.21,-492.45 408.4,-499.45"/>
</g>
<!-- Citation&#45;&gt;CitationTopic -->
<g id="edge3" class="edge">
<title>Citation&#45;&gt;CitationTopic</title>
<path fill="none" stroke="black" stroke-dasharray="1,5" d="M82.58,-521C112.79,-548.04 174.14,-602.95 210.03,-635.07"/>
<polygon fill="black" stroke="black" points="207.93,-637.88 217.71,-641.94 212.6,-632.67 207.93,-637.88"/>
</g>
<!-- Confidence&#45;&gt;ConfidenceLevel -->
<g id="edge5" class="edge">
<title>Confidence&#45;&gt;ConfidenceLevel</title>
<path fill="none" stroke="black" stroke-dasharray="1,5" d="M114.79,-289C133.34,-289 154.62,-289 174.21,-289"/>
<polygon fill="black" stroke="black" points="174.28,-292.5 184.28,-289 174.28,-285.5 174.28,-292.5"/>
</g>
<!-- Depiction&#45;&gt;Image -->
<g id="edge12" class="edge">
<title>Depiction&#45;&gt;Image</title>
<path fill="none" stroke="black" stroke-dasharray="1,5" d="M109.3,-235C137.96,-235 174.73,-235 201.61,-235"/>
<polygon fill="black" stroke="black" points="201.74,-238.5 211.74,-235 201.74,-231.5 201.74,-238.5"/>
</g>
<!-- Tag&#45;&gt;Keyword -->
<g id="edge13" class="edge">
<title>Tag&#45;&gt;Keyword</title>
<path fill="none" stroke="black" stroke-dasharray="1,5" d="M91,-181C118.58,-181 162.36,-181 194.96,-181"/>
<polygon fill="black" stroke="black" points="195.11,-184.5 205.11,-181 195.11,-177.5 195.11,-184.5"/>
</g>
<!-- Descriptor&#45;&gt;AlternateValue -->
<g id="edge2" class="edge">
<title>Descriptor&#45;&gt;AlternateValue</title>
<path fill="none" stroke="black" d="M224.92,-369.01C193.7,-422 114.43,-556.58 80.5,-614.17"/>
<polygon fill="black" stroke="black" points="77.33,-612.66 75.27,-623.05 83.36,-616.21 77.33,-612.66"/>
</g>
<!-- Descriptor&#45;&gt;Citation -->
<g id="edge4" class="edge">
<title>Descriptor&#45;&gt;Citation</title>
<path fill="none" stroke="black" d="M223.94,-369.22C205.07,-397.72 168.96,-447.15 127.39,-478 120.76,-482.92 113.09,-487.16 105.45,-490.73"/>
<polygon fill="black" stroke="black" points="103.98,-487.55 96.2,-494.75 106.77,-493.97 103.98,-487.55"/>
</g>
<!-- Descriptor&#45;&gt;Confidence -->
<g id="edge6" class="edge">
<title>Descriptor&#45;&gt;Confidence</title>
<path fill="none" stroke="black" d="M194.48,-332.46C169.05,-323.95 136.94,-313.2 111.03,-304.52"/>
<polygon fill="black" stroke="black" points="112.02,-301.16 101.42,-301.3 109.8,-307.79 112.02,-301.16"/>
</g>
<!-- Descriptor&#45;&gt;DataAttribute -->
<g id="edge7" class="edge">
<title>Descriptor&#45;&gt;DataAttribute</title>
<path fill="none" stroke="black" d="M211.63,-367.57C189.84,-384.07 157.63,-407.18 127.39,-424 121.88,-427.06 115.96,-430.02 110.03,-432.78"/>
<polygon fill="black" stroke="black" points="108.46,-429.65 100.77,-436.94 111.33,-436.03 108.46,-429.65"/>
</g>
<!-- Descriptor&#45;&gt;Depiction -->
<g id="edge8" class="edge">
<title>Descriptor&#45;&gt;Depiction</title>
<path fill="none" stroke="black" d="M192.55,-333.12C182.3,-328.68 171.93,-323.03 163.39,-316 141.12,-297.67 149.55,-280.47 127.39,-262 122.01,-257.51 115.77,-253.66 109.35,-250.39"/>
<polygon fill="black" stroke="black" points="110.45,-247.04 99.91,-246 107.5,-253.39 110.45,-247.04"/>
</g>
<!-- Descriptor&#45;&gt;Identifier -->
<g id="edge11" class="edge">
<title>Descriptor&#45;&gt;Identifier</title>
<path fill="none" stroke="black" d="M191.39,-360.42C165.95,-367.77 134.57,-376.83 109.41,-384.09"/>
<polygon fill="black" stroke="black" points="108.38,-380.75 99.74,-386.88 110.32,-387.47 108.38,-380.75"/>
</g>
<!-- Descriptor&#45;&gt;Tag -->
<g id="edge25" class="edge">
<title>Descriptor&#45;&gt;Tag</title>
<path fill="none" stroke="black" d="M189.94,-334.14C180.15,-329.7 170.64,-323.8 163.39,-316 128.93,-278.95 161.62,-245.26 127.39,-208 119.86,-199.8 109.41,-193.98 99.19,-189.9"/>
<polygon fill="black" stroke="black" points="100.18,-186.54 89.58,-186.5 97.84,-193.13 100.18,-186.54"/>
</g>
<!-- Descriptor&#45;&gt;Note -->
<g id="edge14" class="edge">
<title>Descriptor&#45;&gt;Note</title>
<path fill="none" stroke="black" d="M182.73,-345.73C156.39,-345.12 125.56,-344.41 102.02,-343.86"/>
<polygon fill="black" stroke="black" points="101.83,-340.36 91.76,-343.62 101.67,-347.36 101.83,-340.36"/>
</g>
<!-- Descriptor&#45;&gt;Observation -->
<g id="edge18" class="edge">
<title>Descriptor&#45;&gt;Observation</title>
<path fill="none" stroke="black" d="M244.29,-369.34C254.5,-415.23 284.16,-520.51 350.39,-577 362.61,-587.42 378.59,-593.97 393.9,-598.08"/>
<polygon fill="black" stroke="black" points="393.27,-601.53 403.81,-600.44 394.9,-594.72 393.27,-601.53"/>
</g>
<!-- Descriptor&#45;&gt;Source -->
<g id="edge33" class="edge">
<title>Descriptor&#45;&gt;Source</title>
<path fill="none" stroke="black" stroke-dasharray="1,5" d="M260.8,-377.81C280.79,-405.02 313.32,-443.86 350.39,-467 367.86,-477.9 389.8,-484.76 408.09,-488.95"/>
<polygon fill="none" stroke="black" points="251.51,-371.76 258,-367.08 262.68,-373.58 256.19,-378.25 251.51,-371.76"/>
<polyline fill="none" stroke="black" points="259.43,-375.91 260.6,-377.54 "/>
<polygon fill="none" stroke="black" points="418.93,-487.15 417.27,-494.98 409.44,-493.32 411.1,-485.5 418.93,-487.15"/>
<polyline fill="none" stroke="black" points="410.27,-489.41 408.32,-489 "/>
</g>
<!-- Descriptor&#45;&gt;Documentation -->
<g id="edge9" class="edge">
<title>Descriptor&#45;&gt;Documentation</title>
<path fill="none" stroke="black" d="M294.96,-337.04C322.67,-332.02 356.3,-325.94 384.64,-320.81"/>
<polygon fill="black" stroke="black" points="385.6,-324.19 394.81,-318.97 384.35,-317.31 385.6,-324.19"/>
</g>
<!-- Descriptor&#45;&gt;ObservationMatrixColumn -->
<g id="edge17" class="edge">
<title>Descriptor&#45;&gt;ObservationMatrixColumn</title>
<path fill="none" stroke="black" d="M247.66,-369.03C262,-406.42 296.18,-482.23 350.39,-523 352.21,-524.37 354.09,-525.67 356.04,-526.9"/>
<polygon fill="black" stroke="black" points="354.44,-530.02 364.87,-531.9 357.89,-523.93 354.44,-530.02"/>
</g>
<!-- Descriptor&#45;&gt;ObservationMatrixColumnItem -->
<g id="edge16" class="edge">
<title>Descriptor&#45;&gt;ObservationMatrixColumnItem</title>
<path fill="none" stroke="black" d="M289.73,-334.73C299.18,-330.28 308.07,-324.22 314.39,-316 387.11,-221.43 274.58,-142.12 350.39,-50 352.7,-47.19 355.28,-44.62 358.05,-42.28"/>
<polygon fill="black" stroke="black" points="360.32,-44.96 366.35,-36.25 356.2,-39.29 360.32,-44.96"/>
</g>
<!-- Descriptor&#45;&gt;PinboardItem -->
<g id="edge20" class="edge">
<title>Descriptor&#45;&gt;PinboardItem</title>
<path fill="none" stroke="black" d="M270.58,-365.86C292.35,-378.76 322.53,-395.68 350.39,-408 362.95,-413.55 376.8,-418.75 389.92,-423.28"/>
<polygon fill="black" stroke="black" points="389.18,-426.72 399.78,-426.6 391.42,-420.09 389.18,-426.72"/>
</g>
<!-- Descriptor&#45;&gt;Role -->
<g id="edge21" class="edge">
<title>Descriptor&#45;&gt;Role</title>
<path fill="none" stroke="black" d="M288.46,-334.18C298.1,-329.75 307.39,-323.84 314.39,-316 352.88,-272.86 309.49,-231.87 350.39,-191 365.56,-175.84 388.64,-169.07 408.13,-166.1"/>
<polygon fill="black" stroke="black" points="408.74,-169.55 418.23,-164.84 407.87,-162.6 408.74,-169.55"/>
</g>
<!-- Descriptor&#45;&gt;SubsequentCitation -->
<g id="edge23" class="edge">
<title>Descriptor&#45;&gt;SubsequentCitation</title>
<path fill="none" stroke="black" d="M283.66,-361.37C303.83,-367.66 328.17,-374.77 350.39,-380 433.82,-399.63 460.56,-381.79 540.39,-413 563.89,-422.19 587.74,-437.55 605.78,-450.68"/>
<polygon fill="black" stroke="black" points="604.04,-453.75 614.15,-456.92 608.22,-448.14 604.04,-453.75"/>
</g>
<!-- Descriptor&#45;&gt;VerifierRole -->
<g id="edge27" class="edge">
<title>Descriptor&#45;&gt;VerifierRole</title>
<path fill="none" stroke="black" d="M286.08,-333.48C296.18,-329.04 306.27,-323.31 314.39,-316 339.22,-293.65 324.83,-271.52 350.39,-250 362.72,-239.62 378.59,-232.55 393.76,-227.76"/>
<polygon fill="black" stroke="black" points="394.94,-231.06 403.59,-224.93 393.01,-224.34 394.94,-231.06"/>
</g>
<!-- Descriptor&#45;&gt;Creator -->
<g id="edge29" class="edge">
<title>Descriptor&#45;&gt;Creator</title>
<path fill="none" stroke="black" stroke-dasharray="5,2" d="M298.68,-329.73C304.65,-326 310.09,-321.48 314.39,-316 379.04,-233.54 270.84,-151.2 350.39,-83 424.6,-19.37 552.82,-69 608.85,-95.76"/>
<polygon fill="black" stroke="black" points="296.74,-326.8 289.61,-334.64 300.07,-332.96 296.74,-326.8"/>
</g>
<!-- Descriptor&#45;&gt;Project -->
<g id="edge30" class="edge">
<title>Descriptor&#45;&gt;Project</title>
<path fill="none" stroke="black" stroke-dasharray="5,2" d="M298.2,-329.69C304.31,-325.96 309.91,-321.46 314.39,-316 365.88,-253.28 295.39,-196.66 350.39,-137 367.54,-118.4 396.57,-112.3 417.84,-110.46"/>
<polygon fill="black" stroke="black" points="296.14,-326.82 288.95,-334.6 299.43,-333 296.14,-326.82"/>
</g>
<!-- Descriptor&#45;&gt;Updater -->
<g id="edge31" class="edge">
<title>Descriptor&#45;&gt;Updater</title>
<path fill="none" stroke="black" stroke-dasharray="5,2" d="M291.71,-328.2C299.54,-324.58 307.34,-320.5 314.39,-316 332.68,-304.32 330.97,-292.7 350.39,-283 491.14,-212.68 562.02,-296.49 698.39,-218 736.35,-196.15 766.27,-152.89 781.13,-128.27"/>
<polygon fill="black" stroke="black" points="290.29,-325 282.55,-332.23 293.11,-331.41 290.29,-325"/>
</g>
<!-- Descriptor&#45;&gt;OriginCitation -->
<g id="edge32" class="edge">
<title>Descriptor&#45;&gt;OriginCitation</title>
<path fill="none" stroke="black" d="M305.25,-351.98C366.33,-357.15 459.91,-366.41 540.39,-380 553.16,-382.16 566.78,-384.96 579.63,-387.85"/>
<polygon fill="none" stroke="black" points="294.65,-355.11 295.32,-347.14 303.29,-347.8 302.63,-355.77 294.65,-355.11"/>
<polyline fill="none" stroke="black" points="302.96,-351.79 304.95,-351.95 "/>
<polygon fill="none" stroke="black" points="590.63,-386.27 588.84,-394.06 581.04,-392.28 582.83,-384.48 590.63,-386.27"/>
<polyline fill="none" stroke="black" points="581.93,-388.38 579.98,-387.93 "/>
</g>
<!-- Observation&#45;&gt;Otu -->
<g id="edge19" class="edge">
<title>Observation&#45;&gt;Otu</title>
<path fill="none" stroke="black" stroke-dasharray="1,5" d="M487.15,-605C520.65,-605 567.69,-605 599.96,-605"/>
<polygon fill="black" stroke="black" points="600.29,-608.5 610.29,-605 600.29,-601.5 600.29,-608.5"/>
</g>
<!-- Observation&#45;&gt;ObservationMatrix -->
<!-- Source&#45;&gt;SubsequentCitation -->
<!-- Source&#45;&gt;OriginCitation -->
<!-- CitationTopic&#45;&gt;Topic -->
<g id="edge26" class="edge">
<title>CitationTopic&#45;&gt;Topic</title>
<path fill="none" stroke="black" stroke-dasharray="1,5" d="M285.02,-660C322.01,-660 373.68,-660 408.05,-660"/>
<polygon fill="black" stroke="black" points="408.12,-663.5 418.12,-660 408.12,-656.5 408.12,-663.5"/>
</g>
<!-- Documentation&#45;&gt;Document -->
<g id="edge10" class="edge">
<title>Documentation&#45;&gt;Document</title>
<path fill="none" stroke="black" stroke-dasharray="1,5" d="M496.31,-310C525.39,-310 561.81,-310 590.23,-310"/>
<polygon fill="black" stroke="black" points="590.31,-313.5 600.31,-310 590.31,-306.5 590.31,-313.5"/>
</g>
<!-- ObservationMatrixColumn&#45;&gt;ObservationMatrix -->
<g id="edge15" class="edge">
<title>ObservationMatrixColumn&#45;&gt;ObservationMatrix</title>
<path fill="none" stroke="black" stroke-dasharray="1,5" d="M527.52,-550C540.73,-550 554.31,-550 567.2,-550"/>
<polygon fill="black" stroke="black" points="567.37,-553.5 577.37,-550 567.37,-546.5 567.37,-553.5"/>
</g>
<!-- Role&#45;&gt;Verifier -->
<!-- SubsequentCitation&#45;&gt;SubsequentSource -->
<g id="edge24" class="edge">
<title>SubsequentCitation&#45;&gt;SubsequentSource</title>
<path fill="none" stroke="black" stroke-dasharray="1,5" d="M698.42,-475C706.75,-475 715.36,-475 723.82,-475"/>
<polygon fill="black" stroke="black" points="724.03,-478.5 734.03,-475 724.03,-471.5 724.03,-478.5"/>
</g>
<!-- VerifierRole&#45;&gt;Verifier -->
<g id="edge28" class="edge">
<title>VerifierRole&#45;&gt;Verifier</title>
<path fill="none" stroke="black" stroke-dasharray="1,5" d="M487.15,-212.21C520.31,-207.5 566.72,-200.9 598.95,-196.32"/>
<polygon fill="black" stroke="black" points="599.47,-199.78 608.88,-194.91 598.49,-192.85 599.47,-199.78"/>
</g>
<!-- Creator&#45;&gt;Updater -->
<!-- Project&#45;&gt;Creator -->
<!-- AlternateValue -->
<g id="node1" class="node">
<title>AlternateValue</title>
<g id="a_node1"><a xlink:href="/develop/Data/models.html#alternate-value" xlink:title="AlternateValue" target="_top">
<ellipse fill="#abcdef" stroke="#dddeee" cx="63.69" cy="-641" rx="63.89" ry="18"/>
<text text-anchor="middle" x="63.69" y="-637.3" font-family="Times,serif" font-size="14.00">AlternateValue</text>
</a>
</g>
</g>
<!-- Citation -->
<g id="node2" class="node">
<title>Citation</title>
<g id="a_node2"><a xlink:href="/develop/Data/models.html#citation" xlink:title="Citation" target="_top">
<ellipse fill="#abcdef" stroke="#dddeee" cx="63.69" cy="-505" rx="38.99" ry="18"/>
<text text-anchor="middle" x="63.69" y="-501.3" font-family="Times,serif" font-size="14.00">Citation</text>
</a>
</g>
</g>
<!-- Confidence -->
<g id="node3" class="node">
<title>Confidence</title>
<g id="a_node3"><a xlink:href="/develop/Data/models.html#confidence" xlink:title="Confidence" target="_top">
<ellipse fill="#abcdef" stroke="#dddeee" cx="63.69" cy="-289" rx="50.89" ry="18"/>
<text text-anchor="middle" x="63.69" y="-285.3" font-family="Times,serif" font-size="14.00">Confidence</text>
</a>
</g>
</g>
<!-- DataAttribute -->
<g id="node4" class="node">
<title>DataAttribute</title>
<g id="a_node4"><a xlink:href="/develop/Data/models.html#data-attribute" xlink:title="DataAttribute" target="_top">
<ellipse fill="#abcdef" stroke="#dddeee" cx="63.69" cy="-451" rx="59.29" ry="18"/>
<text text-anchor="middle" x="63.69" y="-447.3" font-family="Times,serif" font-size="14.00">DataAttribute</text>
</a>
</g>
</g>
<!-- Depiction -->
<g id="node5" class="node">
<title>Depiction</title>
<g id="a_node5"><a xlink:href="/develop/Data/models.html#depiction" xlink:title="Depiction" target="_top">
<ellipse fill="#abcdef" stroke="#dddeee" cx="63.69" cy="-235" rx="45.49" ry="18"/>
<text text-anchor="middle" x="63.69" y="-231.3" font-family="Times,serif" font-size="14.00">Depiction</text>
</a>
</g>
</g>
<!-- Identifier -->
<g id="node6" class="node">
<title>Identifier</title>
<g id="a_node6"><a xlink:href="/develop/Data/models.html#identifier" xlink:title="Identifier" target="_top">
<ellipse fill="#abcdef" stroke="#dddeee" cx="63.69" cy="-397" rx="42.79" ry="18"/>
<text text-anchor="middle" x="63.69" y="-393.3" font-family="Times,serif" font-size="14.00">Identifier</text>
</a>
</g>
</g>
<!-- Tag -->
<g id="node7" class="node">
<title>Tag</title>
<g id="a_node7"><a xlink:href="/develop/Data/models.html#tag" xlink:title="Tag" target="_top">
<ellipse fill="#abcdef" stroke="#dddeee" cx="63.69" cy="-181" rx="27" ry="18"/>
<text text-anchor="middle" x="63.69" y="-177.3" font-family="Times,serif" font-size="14.00">Tag</text>
</a>
</g>
</g>
<!-- Note -->
<g id="node8" class="node">
<title>Note</title>
<g id="a_node8"><a xlink:href="/develop/Data/models.html#note" xlink:title="Note" target="_top">
<ellipse fill="#abcdef" stroke="#dddeee" cx="63.69" cy="-343" rx="27.9" ry="18"/>
<text text-anchor="middle" x="63.69" y="-339.3" font-family="Times,serif" font-size="14.00">Note</text>
</a>
</g>
</g>
<!-- Descriptor -->
<g id="node9" class="node">
<title>Descriptor</title>
<g id="a_node9"><a xlink:href="/develop/Data/models.html#descriptor" xlink:title="Descriptor" target="_top">
<polygon fill="#cdefab" stroke="#dedede" points="291,-339.54 291,-354.46 260.47,-365 217.3,-365 186.78,-354.46 186.78,-339.54 217.3,-329 260.47,-329 291,-339.54"/>
<polygon fill="none" stroke="#dedede" points="295.01,-336.69 295.01,-357.31 261.15,-369 216.63,-369 182.77,-357.31 182.77,-336.69 216.63,-325 261.15,-325 295.01,-336.69"/>
<text text-anchor="middle" x="238.89" y="-343.3" font-family="Times,serif" font-size="14.00">Descriptor</text>
</a>
</g>
</g>
<!-- Observation -->
<g id="node10" class="node">
<title>Observation</title>
<g id="a_node10"><a xlink:href="/develop/Data/models.html#observation" xlink:title="Observation" target="_top">
<path fill="#fedcba" stroke="#dddeee" d="M415.89,-587C415.89,-587 474.89,-587 474.89,-587 480.89,-587 486.89,-593 486.89,-599 486.89,-599 486.89,-611 486.89,-611 486.89,-617 480.89,-623 474.89,-623 474.89,-623 415.89,-623 415.89,-623 409.89,-623 403.89,-617 403.89,-611 403.89,-611 403.89,-599 403.89,-599 403.89,-593 409.89,-587 415.89,-587"/>
<text text-anchor="middle" x="445.39" y="-601.3" font-family="Times,serif" font-size="14.00">Observation</text>
</a>
</g>
</g>
<!-- Otu -->
<g id="node11" class="node">
<title>Otu</title>
<g id="a_node11"><a xlink:href="/develop/Data/models.html#otu" xlink:title="Otu" target="_top">
<path fill="#fedcba" stroke="#dddeee" d="M622.39,-587C622.39,-587 652.39,-587 652.39,-587 658.39,-587 664.39,-593 664.39,-599 664.39,-599 664.39,-611 664.39,-611 664.39,-617 658.39,-623 652.39,-623 652.39,-623 622.39,-623 622.39,-623 616.39,-623 610.39,-617 610.39,-611 610.39,-611 610.39,-599 610.39,-599 610.39,-593 616.39,-587 622.39,-587"/>
<text text-anchor="middle" x="637.39" y="-601.3" font-family="Times,serif" font-size="14.00">Otu</text>
</a>
</g>
</g>
<!-- Source -->
<g id="node12" class="node">
<title>Source</title>
<g id="a_node12"><a xlink:href="/develop/Data/models.html#source" xlink:title="Source" target="_top">
<path fill="#fedcba" stroke="#dddeee" d="M430.39,-477C430.39,-477 460.39,-477 460.39,-477 466.39,-477 472.39,-483 472.39,-489 472.39,-489 472.39,-501 472.39,-501 472.39,-507 466.39,-513 460.39,-513 460.39,-513 430.39,-513 430.39,-513 424.39,-513 418.39,-507 418.39,-501 418.39,-501 418.39,-489 418.39,-489 418.39,-483 424.39,-477 430.39,-477"/>
<text text-anchor="middle" x="445.39" y="-491.3" font-family="Times,serif" font-size="14.00">Source</text>
</a>
</g>
</g>
<!-- AlternateValueLanguage -->
<g id="node13" class="node">
<title>AlternateValueLanguage</title>
<g id="a_node13"><a xlink:href="/develop/Data/models.html#alternate-value-language" xlink:title="AlternateValueLanguage" target="_top">
<polygon fill="#eeefff" stroke="#dddeee" points="314.39,-732 163.39,-732 163.39,-696 314.39,-696 314.39,-732"/>
<text text-anchor="middle" x="238.89" y="-710.3" font-family="Times,serif" font-size="14.00">AlternateValueLanguage</text>
</a>
</g>
</g>
<!-- CitationTopic -->
<g id="node14" class="node">
<title>CitationTopic</title>
<g id="a_node14"><a xlink:href="/develop/Data/models.html#citation-topic" xlink:title="CitationTopic" target="_top">
<polygon fill="#eeefff" stroke="#dddeee" points="284.89,-678 192.89,-678 192.89,-642 284.89,-642 284.89,-678"/>
<text text-anchor="middle" x="238.89" y="-656.3" font-family="Times,serif" font-size="14.00">CitationTopic</text>
</a>
</g>
</g>
<!-- ConfidenceLevel -->
<g id="node15" class="node">
<title>ConfidenceLevel</title>
<g id="a_node15"><a xlink:href="/develop/Data/models.html#confidence-level" xlink:title="ConfidenceLevel" target="_top">
<polygon fill="#eeefff" stroke="#dddeee" points="293.39,-307 184.39,-307 184.39,-271 293.39,-271 293.39,-307"/>
<text text-anchor="middle" x="238.89" y="-285.3" font-family="Times,serif" font-size="14.00">ConfidenceLevel</text>
</a>
</g>
</g>
<!-- Documentation -->
<g id="node16" class="node">
<title>Documentation</title>
<g id="a_node16"><a xlink:href="/develop/Data/models.html#documentation" xlink:title="Documentation" target="_top">
<polygon fill="#eeefff" stroke="#dddeee" points="495.89,-328 394.89,-328 394.89,-292 495.89,-292 495.89,-328"/>
<text text-anchor="middle" x="445.39" y="-306.3" font-family="Times,serif" font-size="14.00">Documentation</text>
</a>
</g>
</g>
<!-- Document -->
<g id="node17" class="node">
<title>Document</title>
<g id="a_node17"><a xlink:href="/develop/Data/models.html#document" xlink:title="Document" target="_top">
<polygon fill="#eeefff" stroke="#dddeee" points="674.39,-328 600.39,-328 600.39,-292 674.39,-292 674.39,-328"/>
<text text-anchor="middle" x="637.39" y="-306.3" font-family="Times,serif" font-size="14.00">Document</text>
</a>
</g>
</g>
<!-- Image -->
<g id="node18" class="node">
<title>Image</title>
<g id="a_node18"><a xlink:href="/develop/Data/models.html#image" xlink:title="Image" target="_top">
<polygon fill="#eeefff" stroke="#dddeee" points="265.89,-253 211.89,-253 211.89,-217 265.89,-217 265.89,-253"/>
<text text-anchor="middle" x="238.89" y="-231.3" font-family="Times,serif" font-size="14.00">Image</text>
</a>
</g>
</g>
<!-- Keyword -->
<g id="node19" class="node">
<title>Keyword</title>
<g id="a_node19"><a xlink:href="/develop/Data/models.html#keyword" xlink:title="Keyword" target="_top">
<polygon fill="#eeefff" stroke="#dddeee" points="272.39,-199 205.39,-199 205.39,-163 272.39,-163 272.39,-199"/>
<text text-anchor="middle" x="238.89" y="-177.3" font-family="Times,serif" font-size="14.00">Keyword</text>
</a>
</g>
</g>
<!-- ObservationMatrixColumn -->
<g id="node20" class="node">
<title>ObservationMatrixColumn</title>
<g id="a_node20"><a xlink:href="/develop/Data/models.html#observation-matrix-column" xlink:title="ObservationMatrixColumn" target="_top">
<polygon fill="#eeefff" stroke="#dddeee" points="527.39,-568 363.39,-568 363.39,-532 527.39,-532 527.39,-568"/>
<text text-anchor="middle" x="445.39" y="-546.3" font-family="Times,serif" font-size="14.00">ObservationMatrixColumn</text>
</a>
</g>
</g>
<!-- ObservationMatrix -->
<g id="node21" class="node">
<title>ObservationMatrix</title>
<g id="a_node21"><a xlink:href="/develop/Data/models.html#observation-matrix" xlink:title="ObservationMatrix" target="_top">
<polygon fill="#eeefff" stroke="#dddeee" points="697.39,-568 577.39,-568 577.39,-532 697.39,-532 697.39,-568"/>
<text text-anchor="middle" x="637.39" y="-546.3" font-family="Times,serif" font-size="14.00">ObservationMatrix</text>
</a>
</g>
</g>
<!-- ObservationMatrixColumnItem -->
<g id="node22" class="node">
<title>ObservationMatrixColumnItem</title>
<g id="a_node22"><a xlink:href="/develop/Data/models.html#observation-matrix-column-item" xlink:title="ObservationMatrixColumnItem" target="_top">
<polygon fill="#eeefff" stroke="#dddeee" points="540.39,-36 350.39,-36 350.39,0 540.39,0 540.39,-36"/>
<text text-anchor="middle" x="445.39" y="-14.3" font-family="Times,serif" font-size="14.00">ObservationMatrixColumnItem</text>
</a>
</g>
</g>
<!-- PinboardItem -->
<g id="node23" class="node">
<title>PinboardItem</title>
<g id="a_node23"><a xlink:href="/develop/Data/models.html#pinboard-item" xlink:title="PinboardItem" target="_top">
<polygon fill="#eeefff" stroke="#dddeee" points="490.89,-458 399.89,-458 399.89,-422 490.89,-422 490.89,-458"/>
<text text-anchor="middle" x="445.39" y="-436.3" font-family="Times,serif" font-size="14.00">PinboardItem</text>
</a>
</g>
</g>
<!-- Role -->
<g id="node24" class="node">
<title>Role</title>
<g id="a_node24"><a xlink:href="/develop/Data/models.html#role" xlink:title="Role" target="_top">
<polygon fill="#eeefff" stroke="#dddeee" points="472.39,-182 418.39,-182 418.39,-146 472.39,-146 472.39,-182"/>
<text text-anchor="middle" x="445.39" y="-160.3" font-family="Times,serif" font-size="14.00">Role</text>
</a>
</g>
</g>
<!-- SubsequentCitation -->
<g id="node25" class="node">
<title>SubsequentCitation</title>
<g id="a_node25"><a xlink:href="/develop/Data/models.html#subsequent-citation" xlink:title="SubsequentCitation" target="_top">
<polygon fill="#eeefff" stroke="#dddeee" points="698.39,-493 576.39,-493 576.39,-457 698.39,-457 698.39,-493"/>
<text text-anchor="middle" x="637.39" y="-471.3" font-family="Times,serif" font-size="14.00">SubsequentCitation</text>
</a>
</g>
</g>
<!-- SubsequentSource -->
<g id="node26" class="node">
<title>SubsequentSource</title>
<g id="a_node26"><a xlink:href="/develop/Data/models.html#subsequent-source" xlink:title="SubsequentSource" target="_top">
<polygon fill="#eeefff" stroke="#dddeee" points="850.39,-493 734.39,-493 734.39,-457 850.39,-457 850.39,-493"/>
<text text-anchor="middle" x="792.39" y="-471.3" font-family="Times,serif" font-size="14.00">SubsequentSource</text>
</a>
</g>
</g>
<!-- Topic -->
<g id="node27" class="node">
<title>Topic</title>
<g id="a_node27"><a xlink:href="/develop/Data/models.html#topic" xlink:title="Topic" target="_top">
<polygon fill="#eeefff" stroke="#dddeee" points="472.39,-678 418.39,-678 418.39,-642 472.39,-642 472.39,-678"/>
<text text-anchor="middle" x="445.39" y="-656.3" font-family="Times,serif" font-size="14.00">Topic</text>
</a>
</g>
</g>
<!-- VerifierRole -->
<g id="node28" class="node">
<title>VerifierRole</title>
<g id="a_node28"><a xlink:href="/develop/Data/models.html#verifier-role" xlink:title="VerifierRole" target="_top">
<polygon fill="#eeefff" stroke="#dddeee" points="486.89,-236 403.89,-236 403.89,-200 486.89,-200 486.89,-236"/>
<text text-anchor="middle" x="445.39" y="-214.3" font-family="Times,serif" font-size="14.00">VerifierRole</text>
</a>
</g>
</g>
<!-- Verifier -->
<g id="node29" class="node">
<title>Verifier</title>
<g id="a_node29"><a xlink:href="/develop/Data/models.html#verifier" xlink:title="Verifier" target="_top">
<polygon fill="#eeefff" stroke="#dddeee" points="665.89,-209 608.89,-209 608.89,-173 665.89,-173 665.89,-209"/>
<text text-anchor="middle" x="637.39" y="-187.3" font-family="Times,serif" font-size="14.00">Verifier</text>
</a>
</g>
</g>
<!-- Creator -->
<g id="node30" class="node">
<title>Creator</title>
<g id="a_node30"><a xlink:href="/develop/Data/models.html#creator" xlink:title="Creator" target="_top">
<polygon fill="#eeefff" stroke="#dddeee" points="665.89,-128 608.89,-128 608.89,-92 665.89,-92 665.89,-128"/>
<text text-anchor="middle" x="637.39" y="-106.3" font-family="Times,serif" font-size="14.00">Creator</text>
</a>
</g>
</g>
<!-- Project -->
<g id="node31" class="node">
<title>Project</title>
<g id="a_node31"><a xlink:href="/develop/Data/models.html#project" xlink:title="Project" target="_top">
<polygon fill="#eeefff" stroke="#dddeee" points="472.89,-128 417.89,-128 417.89,-92 472.89,-92 472.89,-128"/>
<text text-anchor="middle" x="445.39" y="-106.3" font-family="Times,serif" font-size="14.00">Project</text>
</a>
</g>
</g>
<!-- Updater -->
<g id="node32" class="node">
<title>Updater</title>
<g id="a_node32"><a xlink:href="/develop/Data/models.html#updater" xlink:title="Updater" target="_top">
<polygon fill="#eeefff" stroke="#dddeee" points="822.39,-128 762.39,-128 762.39,-92 822.39,-92 822.39,-128"/>
<text text-anchor="middle" x="792.39" y="-106.3" font-family="Times,serif" font-size="14.00">Updater</text>
</a>
</g>
</g>
<!-- OriginCitation -->
<g id="node33" class="node">
<title>OriginCitation</title>
<g id="a_node33"><a xlink:href="/develop/Data/models.html#origin-citation" xlink:title="OriginCitation" target="_top">
<polygon fill="#eeefff" stroke="#dddeee" points="684.89,-420 589.89,-420 589.89,-384 684.89,-384 684.89,-420"/>
<text text-anchor="middle" x="637.39" y="-398.3" font-family="Times,serif" font-size="14.00">OriginCitation</text>
</a>
</g>
</g>
</g>
</svg>
