<?xml version="1.0" encoding="UTF-8" standalone="no"?>
<!DOCTYPE svg PUBLIC "-//W3C//DTD SVG 1.1//EN"
 "http://www.w3.org/Graphics/SVG/1.1/DTD/svg11.dtd">
<!-- Generated by graphviz version 2.50.0 (20211204.2007)
 -->
<!-- Title: Documentation Pages: 1 -->
<svg width="765pt" height="428pt"
 viewBox="0.00 0.00 764.57 428.00" xmlns="http://www.w3.org/2000/svg" xmlns:xlink="http://www.w3.org/1999/xlink">
<g id="graph0" class="graph" transform="scale(1 1) rotate(0) translate(4 424)">
<title>Documentation</title>
<polygon fill="white" stroke="transparent" points="-4,4 -4,-424 760.57,-424 760.57,4 -4,4"/>
<text text-anchor="middle" x="378.28" y="-22.8" font-family="Times,serif" font-size="14.00">Algorithmically generated relationships for Documentation based on assertions of &#39;has_many&#39;, &#39;has_one&#39;, &#39;belongs_to&#39;. </text>
<text text-anchor="middle" x="378.28" y="-7.8" font-family="Times,serif" font-size="14.00">Generated 2022&#45;01&#45;25 11:37:22 &#45;0600.</text>
<!-- Tag&#45;&gt;Keyword -->
<g id="edge2" class="edge">
<title>Tag&#45;&gt;Keyword</title>
<path fill="none" stroke="black" d="M70.02,-167.83C92.79,-167.68 126.26,-167.46 152.96,-167.28"/>
<polygon fill="black" stroke="black" points="153.21,-170.78 163.19,-167.21 153.17,-163.78 153.21,-170.78"/>
</g>
<!-- Documentation&#45;&gt;Identifier -->
<g id="edge1" class="edge">
<title>Documentation&#45;&gt;Identifier</title>
<path fill="none" stroke="black" d="M146.84,-242.09C127.23,-248.93 104.87,-256.73 86,-263.31"/>
<polygon fill="black" stroke="black" points="84.78,-260.03 76.49,-266.63 87.09,-266.64 84.78,-260.03"/>
</g>
<!-- Documentation&#45;&gt;Tag -->
<g id="edge6" class="edge">
<title>Documentation&#45;&gt;Tag</title>
<path fill="none" stroke="black" d="M148.92,-207.4C125.43,-198.58 97.57,-188.14 76.46,-180.21"/>
<polygon fill="black" stroke="black" points="77.57,-176.89 66.97,-176.66 75.11,-183.45 77.57,-176.89"/>
</g>
<!-- Documentation&#45;&gt;Note -->
<g id="edge3" class="edge">
<title>Documentation&#45;&gt;Note</title>
<path fill="none" stroke="black" d="M121.65,-224.51C107.65,-224.42 93.57,-224.33 81.32,-224.25"/>
<polygon fill="black" stroke="black" points="81.08,-220.74 71.06,-224.18 81.04,-227.74 81.08,-220.74"/>
</g>
<!-- Documentation&#45;&gt;PinboardItem -->
<g id="edge4" class="edge">
<title>Documentation&#45;&gt;PinboardItem</title>
<path fill="none" stroke="black" d="M207.6,-247.1C223.51,-280.44 258.34,-343.08 307.9,-375 329.75,-389.08 357.62,-395.97 381.85,-399.29"/>
<polygon fill="black" stroke="black" points="381.63,-402.79 391.98,-400.51 382.46,-395.84 381.63,-402.79"/>
</g>
<!-- Documentation&#45;&gt;Role -->
<g id="edge5" class="edge">
<title>Documentation&#45;&gt;Role</title>
<path fill="none" stroke="black" d="M216.97,-247.33C237.25,-269.53 271.36,-302.81 307.9,-321 337.07,-335.52 373.71,-342.24 400.45,-345.35"/>
<polygon fill="black" stroke="black" points="400.22,-348.84 410.53,-346.4 400.95,-341.88 400.22,-348.84"/>
</g>
<!-- Documentation&#45;&gt;VerifierRole -->
<g id="edge7" class="edge">
<title>Documentation&#45;&gt;VerifierRole</title>
<path fill="none" stroke="black" d="M246.06,-242.15C265.2,-248.71 287.48,-256.04 307.9,-262 333.55,-269.48 362.39,-276.75 386.27,-282.47"/>
<polygon fill="black" stroke="black" points="385.64,-285.91 396.18,-284.82 387.26,-279.1 385.64,-285.91"/>
</g>
<!-- Documentation&#45;&gt;Creator -->
<g id="edge9" class="edge">
<title>Documentation&#45;&gt;Creator</title>
<path fill="none" stroke="black" stroke-dasharray="5,2" d="M263.57,-242.62C340.64,-259.59 470.21,-276.38 567.57,-229 594.24,-216.02 613.02,-185.81 622.93,-166.18"/>
<polygon fill="black" stroke="black" points="264.04,-239.14 253.51,-240.34 262.49,-245.96 264.04,-239.14"/>
</g>
<!-- Documentation&#45;&gt;Document -->
<g id="edge10" class="edge">
<title>Documentation&#45;&gt;Document</title>
<path fill="none" stroke="black" stroke-dasharray="5,2" d="M282.29,-216.87C322.84,-212.97 369.28,-208.49 400.56,-205.48"/>
<polygon fill="black" stroke="black" points="281.74,-213.41 272.12,-217.85 282.41,-220.37 281.74,-213.41"/>
</g>
<!-- Documentation&#45;&gt;Project -->
<g id="edge12" class="edge">
<title>Documentation&#45;&gt;Project</title>
<path fill="none" stroke="black" stroke-dasharray="5,2" d="M252.4,-202.82C259.01,-199.94 265.63,-196.96 271.9,-194 288.26,-186.28 290.88,-181.14 307.9,-175 342.19,-162.63 383.76,-155.2 410.23,-151.35"/>
<polygon fill="black" stroke="black" points="250.58,-199.79 242.77,-206.95 253.34,-206.22 250.58,-199.79"/>
</g>
<!-- Documentation&#45;&gt;Updater -->
<g id="edge13" class="edge">
<title>Documentation&#45;&gt;Updater</title>
<path fill="none" stroke="black" stroke-dasharray="5,2" d="M259.17,-203.69C263.74,-200.82 268.06,-197.61 271.9,-194 298.25,-169.22 277.18,-140.1 307.9,-121 374.45,-79.61 583.71,-105.67 660.57,-121 672.67,-123.41 685.34,-128.13 696.25,-132.95"/>
<polygon fill="black" stroke="black" points="257.13,-200.82 250.12,-208.77 260.56,-206.93 257.13,-200.82"/>
</g>
<!-- Documentation&#45;&gt;Objects with Documentation -->
<g id="edge11" class="edge">
<title>Documentation&#45;&gt;Objects with Documentation</title>
<path fill="none" stroke="black" stroke-dasharray="5,2" d="M260.46,-203.7C264.63,-200.85 268.51,-197.63 271.9,-194 305.84,-157.63 271.27,-121.67 307.9,-88 318.5,-78.25 331.61,-71.35 345.36,-66.5"/>
<polygon fill="black" stroke="black" points="258.33,-200.9 251.57,-209.06 261.94,-206.9 258.33,-200.9"/>
</g>
<!-- Role&#45;&gt;Verifier -->
<!-- VerifierRole&#45;&gt;Verifier -->
<g id="edge8" class="edge">
<title>VerifierRole&#45;&gt;Verifier</title>
<path fill="none" stroke="black" d="M479.52,-299.73C513.15,-304.45 560.49,-311.09 593.27,-315.69"/>
<polygon fill="black" stroke="black" points="592.98,-319.19 603.37,-317.11 593.95,-312.26 592.98,-319.19"/>
</g>
<!-- Creator&#45;&gt;Updater -->
<!-- Project&#45;&gt;Creator -->
<!-- Identifier -->
<g id="node1" class="node">
<title>Identifier</title>
<g id="a_node1"><a xlink:href="/develop/Data/models.html#identifier" xlink:title="Identifier" target="_top">
<ellipse fill="#abcdef" stroke="#dddeee" cx="42.9" cy="-278" rx="42.79" ry="18"/>
<text text-anchor="middle" x="42.9" y="-274.3" font-family="Times,serif" font-size="14.00">Identifier</text>
</a>
</g>
</g>
<!-- Tag -->
<g id="node2" class="node">
<title>Tag</title>
<g id="a_node2"><a xlink:href="/develop/Data/models.html#tag" xlink:title="Tag" target="_top">
<ellipse fill="#abcdef" stroke="#dddeee" cx="42.9" cy="-168" rx="27" ry="18"/>
<text text-anchor="middle" x="42.9" y="-164.3" font-family="Times,serif" font-size="14.00">Tag</text>
</a>
</g>
</g>
<!-- Note -->
<g id="node3" class="node">
<title>Note</title>
<g id="a_node3"><a xlink:href="/develop/Data/models.html#note" xlink:title="Note" target="_top">
<ellipse fill="#abcdef" stroke="#dddeee" cx="42.9" cy="-224" rx="27.9" ry="18"/>
<text text-anchor="middle" x="42.9" y="-220.3" font-family="Times,serif" font-size="14.00">Note</text>
</a>
</g>
</g>
<!-- Documentation -->
<g id="node4" class="node">
<title>Documentation</title>
<g id="a_node4"><a xlink:href="/develop/Data/models.html#documentation" xlink:title="Documentation" target="_top">
<polygon fill="#cdefab" stroke="#dedede" points="267.95,-217.54 267.95,-232.46 226.3,-243 167.39,-243 125.74,-232.46 125.74,-217.54 167.39,-207 226.3,-207 267.95,-217.54"/>
<polygon fill="none" stroke="#dedede" points="271.95,-214.43 271.95,-235.57 226.8,-247 166.89,-247 121.74,-235.57 121.74,-214.43 166.89,-203 226.8,-203 271.95,-214.43"/>
<text text-anchor="middle" x="196.85" y="-221.3" font-family="Times,serif" font-size="14.00">Documentation</text>
</a>
</g>
</g>
<!-- Keyword -->
<g id="node5" class="node">
<title>Keyword</title>
<g id="a_node5"><a xlink:href="/develop/Data/models.html#keyword" xlink:title="Keyword" target="_top">
<polygon fill="#eeefff" stroke="#dddeee" points="230.35,-185 163.35,-185 163.35,-149 230.35,-149 230.35,-185"/>
<text text-anchor="middle" x="196.85" y="-163.3" font-family="Times,serif" font-size="14.00">Keyword</text>
</a>
</g>
</g>
<!-- PinboardItem -->
<g id="node6" class="node">
<title>PinboardItem</title>
<g id="a_node6"><a xlink:href="/develop/Data/models.html#pinboard-item" xlink:title="PinboardItem" target="_top">
<polygon fill="#eeefff" stroke="#dddeee" points="483.23,-420 392.23,-420 392.23,-384 483.23,-384 483.23,-420"/>
<text text-anchor="middle" x="437.73" y="-398.3" font-family="Times,serif" font-size="14.00">PinboardItem</text>
</a>
</g>
</g>
<!-- Role -->
<g id="node7" class="node">
<title>Role</title>
<g id="a_node7"><a xlink:href="/develop/Data/models.html#role" xlink:title="Role" target="_top">
<polygon fill="#eeefff" stroke="#dddeee" points="464.73,-366 410.73,-366 410.73,-330 464.73,-330 464.73,-366"/>
<text text-anchor="middle" x="437.73" y="-344.3" font-family="Times,serif" font-size="14.00">Role</text>
</a>
</g>
</g>
<!-- VerifierRole -->
<g id="node8" class="node">
<title>VerifierRole</title>
<g id="a_node8"><a xlink:href="/develop/Data/models.html#verifier-role" xlink:title="VerifierRole" target="_top">
<polygon fill="#eeefff" stroke="#dddeee" points="479.23,-312 396.23,-312 396.23,-276 479.23,-276 479.23,-312"/>
<text text-anchor="middle" x="437.73" y="-290.3" font-family="Times,serif" font-size="14.00">VerifierRole</text>
</a>
</g>
</g>
<!-- Verifier -->
<g id="node9" class="node">
<title>Verifier</title>
<g id="a_node9"><a xlink:href="/develop/Data/models.html#verifier" xlink:title="Verifier" target="_top">
<polygon fill="#eeefff" stroke="#dddeee" points="660.57,-339 603.57,-339 603.57,-303 660.57,-303 660.57,-339"/>
<text text-anchor="middle" x="632.07" y="-317.3" font-family="Times,serif" font-size="14.00">Verifier</text>
</a>
</g>
</g>
<!-- Creator -->
<g id="node10" class="node">
<title>Creator</title>
<g id="a_node10"><a xlink:href="/develop/Data/models.html#creator" xlink:title="Creator" target="_top">
<polygon fill="#eeefff" stroke="#dddeee" points="660.57,-166 603.57,-166 603.57,-130 660.57,-130 660.57,-166"/>
<text text-anchor="middle" x="632.07" y="-144.3" font-family="Times,serif" font-size="14.00">Creator</text>
</a>
</g>
</g>
<!-- Document -->
<g id="node11" class="node">
<title>Document</title>
<g id="a_node11"><a xlink:href="/develop/Data/models.html#document" xlink:title="Document" target="_top">
<polygon fill="#eeefff" stroke="#dddeee" points="474.73,-220 400.73,-220 400.73,-184 474.73,-184 474.73,-220"/>
<text text-anchor="middle" x="437.73" y="-198.3" font-family="Times,serif" font-size="14.00">Document</text>
</a>
</g>
</g>
<!-- Project -->
<g id="node12" class="node">
<title>Project</title>
<g id="a_node12"><a xlink:href="/develop/Data/models.html#project" xlink:title="Project" target="_top">
<polygon fill="#eeefff" stroke="#dddeee" points="465.23,-166 410.23,-166 410.23,-130 465.23,-130 465.23,-166"/>
<text text-anchor="middle" x="437.73" y="-144.3" font-family="Times,serif" font-size="14.00">Project</text>
</a>
</g>
</g>
<!-- Updater -->
<g id="node13" class="node">
<title>Updater</title>
<g id="a_node13"><a xlink:href="/develop/Data/models.html#updater" xlink:title="Updater" target="_top">
<polygon fill="#eeefff" stroke="#dddeee" points="756.57,-166 696.57,-166 696.57,-130 756.57,-130 756.57,-166"/>
<text text-anchor="middle" x="726.57" y="-144.3" font-family="Times,serif" font-size="14.00">Updater</text>
</a>
</g>
</g>
<!-- Objects with Documentation -->
<g id="node14" class="node">
<title>Objects with Documentation</title>
<g id="a_node14"><a xlink:href="/develop/Data/models.html#objects with documentation" xlink:title="Objects with Documentation" target="_top">
<polygon fill="#cdabef" stroke="#dedede" points="567.4,-56 502.57,-74 372.9,-74 308.06,-56 372.9,-38 502.57,-38 567.4,-56"/>
<text text-anchor="middle" x="437.73" y="-52.3" font-family="Times,serif" font-size="14.00">Objects with Documentation</text>
</a>
</g>
</g>
</g>
</svg>
