<?xml version="1.0" encoding="UTF-8" standalone="no"?>
<!DOCTYPE svg PUBLIC "-//W3C//DTD SVG 1.1//EN"
 "http://www.w3.org/Graphics/SVG/1.1/DTD/svg11.dtd">
<!-- Generated by graphviz version 12.2.1 (20241206.2353)
 -->
<!-- Title: Documentation Pages: 1 -->
<svg width="754pt" height="390pt"
 viewBox="0.00 0.00 754.39 390.00" xmlns="http://www.w3.org/2000/svg" xmlns:xlink="http://www.w3.org/1999/xlink">
<g id="graph0" class="graph" transform="scale(1 1) rotate(0) translate(4 386)">
<title>Documentation</title>
<polygon fill="white" stroke="none" points="-4,4 -4,-386 750.39,-386 750.39,4 -4,4"/>
<!-- Tag&#45;&gt;Keyword -->
<g id="edge1" class="edge">
<title>Tag&#45;&gt;Keyword</title>
<path fill="none" stroke="black" stroke-dasharray="1,5" d="M56.3,-243.38C76.11,-243.66 103.66,-244.05 126.74,-244.38"/>
<polygon fill="black" stroke="black" points="126.44,-247.87 136.49,-244.52 126.54,-240.87 126.44,-247.87"/>
</g>
<!-- Documentation&#45;&gt;Tag -->
<g id="edge5" class="edge">
<title>Documentation&#45;&gt;Tag</title>
<path fill="none" stroke="black" d="M124.28,-205.41C104.42,-213.31 81.64,-222.38 63.43,-229.63"/>
<polygon fill="black" stroke="black" points="62.15,-226.37 54.16,-233.32 64.74,-232.87 62.15,-226.37"/>
</g>
<!-- Documentation&#45;&gt;Note -->
<g id="edge2" class="edge">
<title>Documentation&#45;&gt;Note</title>
<path fill="none" stroke="black" d="M93.17,-187C84.91,-187 76.79,-187 69.25,-187"/>
<polygon fill="black" stroke="black" points="69.48,-183.5 59.48,-187 69.48,-190.5 69.48,-183.5"/>
</g>
<!-- Documentation&#45;&gt;PinboardItem -->
<g id="edge3" class="edge">
<title>Documentation&#45;&gt;PinboardItem</title>
<path fill="none" stroke="black" d="M229.24,-202.89C236.74,-206.88 243.76,-211.84 249.39,-218 286.67,-258.78 244.48,-299.86 285.39,-337 306.7,-356.35 337.83,-363.47 364.83,-365.59"/>
<polygon fill="black" stroke="black" points="364.43,-369.07 374.6,-366.13 364.81,-362.08 364.43,-369.07"/>
</g>
<!-- Documentation&#45;&gt;Role -->
<g id="edge4" class="edge">
<title>Documentation&#45;&gt;Role</title>
<path fill="none" stroke="black" d="M226.93,-203.44C235.01,-207.38 242.82,-212.18 249.39,-218 274.13,-239.88 258.73,-263.51 285.39,-283 313.57,-303.59 353.52,-309.48 382.67,-310.74"/>
<polygon fill="black" stroke="black" points="382.45,-314.24 392.53,-310.99 382.62,-307.24 382.45,-314.24"/>
</g>
<!-- Documentation&#45;&gt;VerifierRole -->
<g id="edge6" class="edge">
<title>Documentation&#45;&gt;VerifierRole</title>
<path fill="none" stroke="black" d="M222.81,-204.49C242.25,-210.99 264.75,-218.18 285.39,-224 312.66,-231.68 343.36,-239.05 368.6,-244.78"/>
<polygon fill="black" stroke="black" points="367.78,-248.19 378.31,-246.96 369.32,-241.36 367.78,-248.19"/>
</g>
<!-- Documentation&#45;&gt;Creator -->
<g id="edge8" class="edge">
<title>Documentation&#45;&gt;Creator</title>
<path fill="none" stroke="black" stroke-dasharray="5,2" d="M240.79,-205.25C321.03,-222.87 456.13,-240.35 557.64,-191 584.34,-178.02 603.16,-147.82 613.1,-128.18"/>
<polygon fill="black" stroke="black" points="241.84,-201.9 231.32,-203.1 240.29,-208.73 241.84,-201.9"/>
</g>
<!-- Documentation&#45;&gt;Document -->
<g id="edge9" class="edge">
<title>Documentation&#45;&gt;Document</title>
<path fill="none" stroke="black" stroke-dasharray="5,2" d="M260.9,-178.8C303.56,-174.85 352.36,-170.32 384.65,-167.33"/>
<polygon fill="black" stroke="black" points="260.77,-175.3 251.14,-179.71 261.42,-182.27 260.77,-175.3"/>
</g>
<!-- Documentation&#45;&gt;Project -->
<g id="edge11" class="edge">
<title>Documentation&#45;&gt;Project</title>
<path fill="none" stroke="black" stroke-dasharray="5,2" d="M222.53,-162.01C241.81,-153.14 264.28,-143.7 285.39,-137 322.22,-125.32 366.36,-117.63 393.93,-113.55"/>
<polygon fill="black" stroke="black" points="221.12,-158.81 213.55,-166.22 224.09,-165.15 221.12,-158.81"/>
</g>
<!-- Documentation&#45;&gt;Updater -->
<g id="edge12" class="edge">
<title>Documentation&#45;&gt;Updater</title>
<path fill="none" stroke="black" stroke-dasharray="5,2" d="M195.19,-156.01C215.59,-130.97 248.03,-97.59 285.39,-83 436.71,-23.91 491.6,-51.12 650.89,-83 662.95,-85.41 675.57,-90.13 686.44,-94.95"/>
<polygon fill="black" stroke="black" points="192.64,-153.6 189.18,-163.62 198.13,-157.94 192.64,-153.6"/>
</g>
<!-- Documentation&#45;&gt;Objects with Documentation -->
<g id="edge10" class="edge">
<title>Documentation&#45;&gt;Objects with Documentation</title>
<path fill="none" stroke="black" stroke-dasharray="5,2" d="M190.36,-155.02C209.66,-123.43 243.38,-76.17 285.39,-50 299.2,-41.4 315.13,-35.1 331.09,-30.5"/>
<polygon fill="black" stroke="black" points="187.49,-152.99 185.38,-163.37 193.51,-156.57 187.49,-152.99"/>
</g>
<!-- Role&#45;&gt;Verifier -->
<!-- VerifierRole&#45;&gt;Verifier -->
<g id="edge7" class="edge">
<title>VerifierRole&#45;&gt;Verifier</title>
<path fill="none" stroke="black" stroke-dasharray="1,5" d="M463.21,-261.53C498.11,-266.27 548.04,-273.05 582.4,-277.72"/>
<polygon fill="black" stroke="black" points="581.53,-281.13 591.91,-279.01 582.47,-274.2 581.53,-281.13"/>
</g>
<!-- Creator&#45;&gt;Updater -->
<!-- Project&#45;&gt;Creator -->
<!-- Tag -->
<g id="node1" class="node">
<title>Tag</title>
<g id="a_node1"><a xlink:href="/develop/Data/models.html#tag" xlink:title="Tag" target="_top">
<ellipse fill="#abcdef" stroke="#dddeee" cx="28.83" cy="-243" rx="27" ry="18"/>
<text text-anchor="middle" x="28.83" y="-237.95" font-family="Times,serif" font-size="14.00">Tag</text>
</a>
</g>
</g>
<!-- Note -->
<g id="node2" class="node">
<title>Note</title>
<g id="a_node2"><a xlink:href="/develop/Data/models.html#note" xlink:title="Note" target="_top">
<ellipse fill="#abcdef" stroke="#dddeee" cx="28.83" cy="-187" rx="28.83" ry="18"/>
<text text-anchor="middle" x="28.83" y="-181.95" font-family="Times,serif" font-size="14.00">Note</text>
</a>
</g>
</g>
<!-- Documentation -->
<g id="node3" class="node">
<title>Documentation</title>
<g id="a_node3"><a xlink:href="/develop/Data/models.html#documentation" xlink:title="Documentation" target="_top">
<polygon fill="#cdefab" stroke="#dedede" points="245.39,-179.54 245.39,-194.46 202.12,-205 140.93,-205 97.66,-194.46 97.66,-179.54 140.93,-169 202.12,-169 245.39,-179.54"/>
<polygon fill="none" stroke="#dedede" points="249.39,-176.4 249.39,-197.6 202.6,-209 140.45,-209 93.66,-197.6 93.66,-176.4 140.45,-165 202.6,-165 249.39,-176.4"/>
<text text-anchor="middle" x="171.53" y="-181.95" font-family="Times,serif" font-size="14.00">Documentation</text>
</a>
</g>
</g>
<!-- Keyword -->
<g id="node4" class="node">
<title>Keyword</title>
<g id="a_node4"><a xlink:href="/develop/Data/models.html#keyword" xlink:title="Keyword" target="_top">
<polygon fill="#eeefff" stroke="#dddeee" points="204.65,-263 138.4,-263 138.4,-227 204.65,-227 204.65,-263"/>
<text text-anchor="middle" x="171.53" y="-239.95" font-family="Times,serif" font-size="14.00">Keyword</text>
</a>
</g>
</g>
<!-- PinboardItem -->
<g id="node5" class="node">
<title>PinboardItem</title>
<g id="a_node5"><a xlink:href="/develop/Data/models.html#pinboard-item" xlink:title="PinboardItem" target="_top">
<polygon fill="#eeefff" stroke="#dddeee" points="466.64,-382 376.39,-382 376.39,-346 466.64,-346 466.64,-382"/>
<text text-anchor="middle" x="421.51" y="-358.95" font-family="Times,serif" font-size="14.00">PinboardItem</text>
</a>
</g>
</g>
<!-- Role -->
<g id="node6" class="node">
<title>Role</title>
<g id="a_node6"><a xlink:href="/develop/Data/models.html#role" xlink:title="Role" target="_top">
<polygon fill="#eeefff" stroke="#dddeee" points="448.51,-328 394.51,-328 394.51,-292 448.51,-292 448.51,-328"/>
<text text-anchor="middle" x="421.51" y="-304.95" font-family="Times,serif" font-size="14.00">Role</text>
</a>
</g>
</g>
<!-- VerifierRole -->
<g id="node7" class="node">
<title>VerifierRole</title>
<g id="a_node7"><a xlink:href="/develop/Data/models.html#verifier-role" xlink:title="VerifierRole" target="_top">
<polygon fill="#eeefff" stroke="#dddeee" points="462.89,-274 380.14,-274 380.14,-238 462.89,-238 462.89,-274"/>
<text text-anchor="middle" x="421.51" y="-250.95" font-family="Times,serif" font-size="14.00">VerifierRole</text>
</a>
</g>
</g>
<!-- Verifier -->
<g id="node8" class="node">
<title>Verifier</title>
<g id="a_node8"><a xlink:href="/develop/Data/models.html#verifier" xlink:title="Verifier" target="_top">
<polygon fill="#eeefff" stroke="#dddeee" points="650.89,-301 593.64,-301 593.64,-265 650.89,-265 650.89,-301"/>
<text text-anchor="middle" x="622.26" y="-277.95" font-family="Times,serif" font-size="14.00">Verifier</text>
</a>
</g>
</g>
<!-- Creator -->
<g id="node9" class="node">
<title>Creator</title>
<g id="a_node9"><a xlink:href="/develop/Data/models.html#creator" xlink:title="Creator" target="_top">
<polygon fill="#eeefff" stroke="#dddeee" points="650.51,-128 594.01,-128 594.01,-92 650.51,-92 650.51,-128"/>
<text text-anchor="middle" x="622.26" y="-104.95" font-family="Times,serif" font-size="14.00">Creator</text>
</a>
</g>
</g>
<!-- Document -->
<g id="node10" class="node">
<title>Document</title>
<g id="a_node10"><a xlink:href="/develop/Data/models.html#document" xlink:title="Document" target="_top">
<polygon fill="#eeefff" stroke="#dddeee" points="458.01,-182 385.01,-182 385.01,-146 458.01,-146 458.01,-182"/>
<text text-anchor="middle" x="421.51" y="-158.95" font-family="Times,serif" font-size="14.00">Document</text>
</a>
</g>
</g>
<!-- Project -->
<g id="node11" class="node">
<title>Project</title>
<g id="a_node11"><a xlink:href="/develop/Data/models.html#project" xlink:title="Project" target="_top">
<polygon fill="#eeefff" stroke="#dddeee" points="448.64,-128 394.39,-128 394.39,-92 448.64,-92 448.64,-128"/>
<text text-anchor="middle" x="421.51" y="-104.95" font-family="Times,serif" font-size="14.00">Project</text>
</a>
</g>
</g>
<!-- Updater -->
<g id="node12" class="node">
<title>Updater</title>
<g id="a_node12"><a xlink:href="/develop/Data/models.html#updater" xlink:title="Updater" target="_top">
<polygon fill="#eeefff" stroke="#dddeee" points="746.39,-128 686.89,-128 686.89,-92 746.39,-92 746.39,-128"/>
<text text-anchor="middle" x="716.64" y="-104.95" font-family="Times,serif" font-size="14.00">Updater</text>
</a>
</g>
</g>
<!-- Objects with Documentation -->
<g id="node13" class="node">
<title>Objects with Documentation</title>
<g id="a_node13"><a xlink:href="/develop/Data/models.html#objects with documentation" xlink:title="Objects with Documentation" target="_top">
<polygon fill="#cdabef" stroke="#dedede" points="557.64,-18 489.58,-36 353.45,-36 285.39,-18 353.45,0 489.58,0 557.64,-18"/>
<text text-anchor="middle" x="421.51" y="-12.95" font-family="Times,serif" font-size="14.00">Objects with Documentation</text>
</a>
</g>
</g>
</g>
</svg>
