<?xml version="1.0" encoding="UTF-8" standalone="no"?>
<!DOCTYPE svg PUBLIC "-//W3C//DTD SVG 1.1//EN"
 "http://www.w3.org/Graphics/SVG/1.1/DTD/svg11.dtd">
<!-- Generated by graphviz version 2.50.0 (20211204.2007)
 -->
<!-- Title: Documentation Pages: 1 -->
<svg width="765pt" height="390pt"
 viewBox="0.00 0.00 764.57 390.00" xmlns="http://www.w3.org/2000/svg" xmlns:xlink="http://www.w3.org/1999/xlink">
<g id="graph0" class="graph" transform="scale(1 1) rotate(0) translate(4 386)">
<title>Documentation</title>
<polygon fill="white" stroke="transparent" points="-4,4 -4,-386 760.57,-386 760.57,4 -4,4"/>
<!-- Tag&#45;&gt;Keyword -->
<g id="edge2" class="edge">
<title>Tag&#45;&gt;Keyword</title>
<path fill="none" stroke="black" d="M70.02,-129.83C92.79,-129.68 126.26,-129.46 152.96,-129.28"/>
<polygon fill="black" stroke="black" points="153.21,-132.78 163.19,-129.21 153.17,-125.78 153.21,-132.78"/>
</g>
<!-- Documentation&#45;&gt;Identifier -->
<g id="edge1" class="edge">
<title>Documentation&#45;&gt;Identifier</title>
<path fill="none" stroke="black" d="M146.84,-204.09C127.23,-210.93 104.87,-218.73 86,-225.31"/>
<polygon fill="black" stroke="black" points="84.78,-222.03 76.49,-228.63 87.09,-228.64 84.78,-222.03"/>
</g>
<!-- Documentation&#45;&gt;Tag -->
<g id="edge6" class="edge">
<title>Documentation&#45;&gt;Tag</title>
<path fill="none" stroke="black" d="M148.92,-169.4C125.43,-160.58 97.57,-150.14 76.46,-142.21"/>
<polygon fill="black" stroke="black" points="77.57,-138.89 66.97,-138.66 75.11,-145.45 77.57,-138.89"/>
</g>
<!-- Documentation&#45;&gt;Note -->
<g id="edge3" class="edge">
<title>Documentation&#45;&gt;Note</title>
<path fill="none" stroke="black" d="M121.65,-186.51C107.65,-186.42 93.57,-186.33 81.32,-186.25"/>
<polygon fill="black" stroke="black" points="81.08,-182.74 71.06,-186.18 81.04,-189.74 81.08,-182.74"/>
</g>
<!-- Documentation&#45;&gt;PinboardItem -->
<g id="edge4" class="edge">
<title>Documentation&#45;&gt;PinboardItem</title>
<path fill="none" stroke="black" d="M207.6,-209.1C223.51,-242.44 258.34,-305.08 307.9,-337 329.75,-351.08 357.62,-357.97 381.85,-361.29"/>
<polygon fill="black" stroke="black" points="381.63,-364.79 391.98,-362.51 382.46,-357.84 381.63,-364.79"/>
</g>
<!-- Documentation&#45;&gt;Role -->
<g id="edge5" class="edge">
<title>Documentation&#45;&gt;Role</title>
<path fill="none" stroke="black" d="M216.97,-209.33C237.25,-231.53 271.36,-264.81 307.9,-283 337.07,-297.52 373.71,-304.24 400.45,-307.35"/>
<polygon fill="black" stroke="black" points="400.22,-310.84 410.53,-308.4 400.95,-303.88 400.22,-310.84"/>
</g>
<!-- Documentation&#45;&gt;VerifierRole -->
<g id="edge7" class="edge">
<title>Documentation&#45;&gt;VerifierRole</title>
<path fill="none" stroke="black" d="M246.06,-204.15C265.2,-210.71 287.48,-218.04 307.9,-224 333.55,-231.48 362.39,-238.75 386.27,-244.47"/>
<polygon fill="black" stroke="black" points="385.64,-247.91 396.18,-246.82 387.26,-241.1 385.64,-247.91"/>
</g>
<!-- Documentation&#45;&gt;Creator -->
<g id="edge9" class="edge">
<title>Documentation&#45;&gt;Creator</title>
<path fill="none" stroke="black" stroke-dasharray="5,2" d="M263.57,-204.62C340.64,-221.59 470.21,-238.38 567.57,-191 594.24,-178.02 613.02,-147.81 622.93,-128.18"/>
<polygon fill="black" stroke="black" points="264.04,-201.14 253.51,-202.34 262.49,-207.96 264.04,-201.14"/>
</g>
<!-- Documentation&#45;&gt;Document -->
<g id="edge10" class="edge">
<title>Documentation&#45;&gt;Document</title>
<path fill="none" stroke="black" stroke-dasharray="5,2" d="M282.29,-178.87C322.84,-174.97 369.28,-170.49 400.56,-167.48"/>
<polygon fill="black" stroke="black" points="281.74,-175.41 272.12,-179.85 282.41,-182.37 281.74,-175.41"/>
</g>
<!-- Documentation&#45;&gt;Project -->
<g id="edge12" class="edge">
<title>Documentation&#45;&gt;Project</title>
<path fill="none" stroke="black" stroke-dasharray="5,2" d="M252.4,-164.82C259.01,-161.94 265.63,-158.96 271.9,-156 288.26,-148.28 290.88,-143.14 307.9,-137 342.19,-124.63 383.76,-117.2 410.23,-113.35"/>
<polygon fill="black" stroke="black" points="250.58,-161.79 242.77,-168.95 253.34,-168.22 250.58,-161.79"/>
</g>
<!-- Documentation&#45;&gt;Updater -->
<g id="edge13" class="edge">
<title>Documentation&#45;&gt;Updater</title>
<path fill="none" stroke="black" stroke-dasharray="5,2" d="M259.17,-165.69C263.74,-162.82 268.06,-159.61 271.9,-156 298.25,-131.22 277.18,-102.1 307.9,-83 374.45,-41.61 583.71,-67.67 660.57,-83 672.67,-85.41 685.34,-90.13 696.25,-94.95"/>
<polygon fill="black" stroke="black" points="257.13,-162.82 250.12,-170.77 260.56,-168.93 257.13,-162.82"/>
</g>
<!-- Documentation&#45;&gt;Objects with Documentation -->
<g id="edge11" class="edge">
<title>Documentation&#45;&gt;Objects with Documentation</title>
<path fill="none" stroke="black" stroke-dasharray="5,2" d="M260.46,-165.7C264.63,-162.85 268.51,-159.63 271.9,-156 305.84,-119.63 271.27,-83.67 307.9,-50 318.5,-40.25 331.61,-33.35 345.36,-28.5"/>
<polygon fill="black" stroke="black" points="258.33,-162.9 251.57,-171.06 261.94,-168.9 258.33,-162.9"/>
</g>
<!-- Role&#45;&gt;Verifier -->
<!-- VerifierRole&#45;&gt;Verifier -->
<g id="edge8" class="edge">
<title>VerifierRole&#45;&gt;Verifier</title>
<path fill="none" stroke="black" d="M479.52,-261.73C513.15,-266.45 560.49,-273.09 593.27,-277.69"/>
<polygon fill="black" stroke="black" points="592.98,-281.19 603.37,-279.11 593.95,-274.26 592.98,-281.19"/>
</g>
<!-- Creator&#45;&gt;Updater -->
<!-- Project&#45;&gt;Creator -->
<!-- Identifier -->
<g id="node1" class="node">
<title>Identifier</title>
<g id="a_node1"><a xlink:href="/develop/Data/models.html#identifier" xlink:title="Identifier" target="_top">
<ellipse fill="#abcdef" stroke="#dddeee" cx="42.9" cy="-240" rx="42.79" ry="18"/>
<text text-anchor="middle" x="42.9" y="-236.3" font-family="Times,serif" font-size="14.00">Identifier</text>
</a>
</g>
</g>
<!-- Tag -->
<g id="node2" class="node">
<title>Tag</title>
<g id="a_node2"><a xlink:href="/develop/Data/models.html#tag" xlink:title="Tag" target="_top">
<ellipse fill="#abcdef" stroke="#dddeee" cx="42.9" cy="-130" rx="27" ry="18"/>
<text text-anchor="middle" x="42.9" y="-126.3" font-family="Times,serif" font-size="14.00">Tag</text>
</a>
</g>
</g>
<!-- Note -->
<g id="node3" class="node">
<title>Note</title>
<g id="a_node3"><a xlink:href="/develop/Data/models.html#note" xlink:title="Note" target="_top">
<ellipse fill="#abcdef" stroke="#dddeee" cx="42.9" cy="-186" rx="27.9" ry="18"/>
<text text-anchor="middle" x="42.9" y="-182.3" font-family="Times,serif" font-size="14.00">Note</text>
</a>
</g>
</g>
<!-- Documentation -->
<g id="node4" class="node">
<title>Documentation</title>
<g id="a_node4"><a xlink:href="/develop/Data/models.html#documentation" xlink:title="Documentation" target="_top">
<polygon fill="#cdefab" stroke="#dedede" points="267.95,-179.54 267.95,-194.46 226.3,-205 167.39,-205 125.74,-194.46 125.74,-179.54 167.39,-169 226.3,-169 267.95,-179.54"/>
<polygon fill="none" stroke="#dedede" points="271.95,-176.43 271.95,-197.57 226.8,-209 166.89,-209 121.74,-197.57 121.74,-176.43 166.89,-165 226.8,-165 271.95,-176.43"/>
<text text-anchor="middle" x="196.85" y="-183.3" font-family="Times,serif" font-size="14.00">Documentation</text>
</a>
</g>
</g>
<!-- Keyword -->
<g id="node5" class="node">
<title>Keyword</title>
<g id="a_node5"><a xlink:href="/develop/Data/models.html#keyword" xlink:title="Keyword" target="_top">
<polygon fill="#eeefff" stroke="#dddeee" points="230.35,-147 163.35,-147 163.35,-111 230.35,-111 230.35,-147"/>
<text text-anchor="middle" x="196.85" y="-125.3" font-family="Times,serif" font-size="14.00">Keyword</text>
</a>
</g>
</g>
<!-- PinboardItem -->
<g id="node6" class="node">
<title>PinboardItem</title>
<g id="a_node6"><a xlink:href="/develop/Data/models.html#pinboard-item" xlink:title="PinboardItem" target="_top">
<polygon fill="#eeefff" stroke="#dddeee" points="483.23,-382 392.23,-382 392.23,-346 483.23,-346 483.23,-382"/>
<text text-anchor="middle" x="437.73" y="-360.3" font-family="Times,serif" font-size="14.00">PinboardItem</text>
</a>
</g>
</g>
<!-- Role -->
<g id="node7" class="node">
<title>Role</title>
<g id="a_node7"><a xlink:href="/develop/Data/models.html#role" xlink:title="Role" target="_top">
<polygon fill="#eeefff" stroke="#dddeee" points="464.73,-328 410.73,-328 410.73,-292 464.73,-292 464.73,-328"/>
<text text-anchor="middle" x="437.73" y="-306.3" font-family="Times,serif" font-size="14.00">Role</text>
</a>
</g>
</g>
<!-- VerifierRole -->
<g id="node8" class="node">
<title>VerifierRole</title>
<g id="a_node8"><a xlink:href="/develop/Data/models.html#verifier-role" xlink:title="VerifierRole" target="_top">
<polygon fill="#eeefff" stroke="#dddeee" points="479.23,-274 396.23,-274 396.23,-238 479.23,-238 479.23,-274"/>
<text text-anchor="middle" x="437.73" y="-252.3" font-family="Times,serif" font-size="14.00">VerifierRole</text>
</a>
</g>
</g>
<!-- Verifier -->
<g id="node9" class="node">
<title>Verifier</title>
<g id="a_node9"><a xlink:href="/develop/Data/models.html#verifier" xlink:title="Verifier" target="_top">
<polygon fill="#eeefff" stroke="#dddeee" points="660.57,-301 603.57,-301 603.57,-265 660.57,-265 660.57,-301"/>
<text text-anchor="middle" x="632.07" y="-279.3" font-family="Times,serif" font-size="14.00">Verifier</text>
</a>
</g>
</g>
<!-- Creator -->
<g id="node10" class="node">
<title>Creator</title>
<g id="a_node10"><a xlink:href="/develop/Data/models.html#creator" xlink:title="Creator" target="_top">
<polygon fill="#eeefff" stroke="#dddeee" points="660.57,-128 603.57,-128 603.57,-92 660.57,-92 660.57,-128"/>
<text text-anchor="middle" x="632.07" y="-106.3" font-family="Times,serif" font-size="14.00">Creator</text>
</a>
</g>
</g>
<!-- Document -->
<g id="node11" class="node">
<title>Document</title>
<g id="a_node11"><a xlink:href="/develop/Data/models.html#document" xlink:title="Document" target="_top">
<polygon fill="#eeefff" stroke="#dddeee" points="474.73,-182 400.73,-182 400.73,-146 474.73,-146 474.73,-182"/>
<text text-anchor="middle" x="437.73" y="-160.3" font-family="Times,serif" font-size="14.00">Document</text>
</a>
</g>
</g>
<!-- Project -->
<g id="node12" class="node">
<title>Project</title>
<g id="a_node12"><a xlink:href="/develop/Data/models.html#project" xlink:title="Project" target="_top">
<polygon fill="#eeefff" stroke="#dddeee" points="465.23,-128 410.23,-128 410.23,-92 465.23,-92 465.23,-128"/>
<text text-anchor="middle" x="437.73" y="-106.3" font-family="Times,serif" font-size="14.00">Project</text>
</a>
</g>
</g>
<!-- Updater -->
<g id="node13" class="node">
<title>Updater</title>
<g id="a_node13"><a xlink:href="/develop/Data/models.html#updater" xlink:title="Updater" target="_top">
<polygon fill="#eeefff" stroke="#dddeee" points="756.57,-128 696.57,-128 696.57,-92 756.57,-92 756.57,-128"/>
<text text-anchor="middle" x="726.57" y="-106.3" font-family="Times,serif" font-size="14.00">Updater</text>
</a>
</g>
</g>
<!-- Objects with Documentation -->
<g id="node14" class="node">
<title>Objects with Documentation</title>
<g id="a_node14"><a xlink:href="/develop/Data/models.html#objects with documentation" xlink:title="Objects with Documentation" target="_top">
<polygon fill="#cdabef" stroke="#dedede" points="567.4,-18 502.57,-36 372.9,-36 308.06,-18 372.9,0 502.57,0 567.4,-18"/>
<text text-anchor="middle" x="437.73" y="-14.3" font-family="Times,serif" font-size="14.00">Objects with Documentation</text>
</a>
</g>
</g>
</g>
</svg>
