<?xml version="1.0" encoding="UTF-8" standalone="no"?>
<!DOCTYPE svg PUBLIC "-//W3C//DTD SVG 1.1//EN"
 "http://www.w3.org/Graphics/SVG/1.1/DTD/svg11.dtd">
<!-- Generated by graphviz version 2.50.0 (20211204.2007)
 -->
<!-- Title: Document Pages: 1 -->
<svg width="568pt" height="331pt"
 viewBox="0.00 0.00 567.91 330.72" xmlns="http://www.w3.org/2000/svg" xmlns:xlink="http://www.w3.org/1999/xlink">
<g id="graph0" class="graph" transform="scale(1 1) rotate(0) translate(4 326.72)">
<title>Document</title>
<polygon fill="white" stroke="transparent" points="-4,4 -4,-326.72 563.91,-326.72 563.91,4 -4,4"/>
<!-- Tag&#45;&gt;Keyword -->
<g id="edge3" class="edge">
<title>Tag&#45;&gt;Keyword</title>
<path fill="none" stroke="black" d="M70.16,-85.83C88.29,-85.56 112.81,-85.19 133.77,-84.87"/>
<polygon fill="black" stroke="black" points="134.09,-88.37 144.04,-84.72 133.99,-81.37 134.09,-88.37"/>
</g>
<!-- Document&#45;&gt;Identifier -->
<g id="edge2" class="edge">
<title>Document&#45;&gt;Identifier</title>
<path fill="none" stroke="black" d="M137.1,-158.07C120.4,-164.73 101.01,-172.46 84.25,-179.14"/>
<polygon fill="black" stroke="black" points="82.73,-175.98 74.73,-182.93 85.32,-182.48 82.73,-175.98"/>
</g>
<!-- Document&#45;&gt;Tag -->
<g id="edge8" class="edge">
<title>Document&#45;&gt;Tag</title>
<path fill="none" stroke="black" d="M138.36,-126.01C118.4,-117.61 94.33,-107.47 75.48,-99.53"/>
<polygon fill="black" stroke="black" points="76.72,-96.25 66.15,-95.6 74.01,-102.7 76.72,-96.25"/>
</g>
<!-- Document&#45;&gt;Note -->
<g id="edge4" class="edge">
<title>Document&#45;&gt;Note</title>
<path fill="none" stroke="black" d="M121.67,-141.81C108.04,-141.71 93.76,-141.6 81.21,-141.5"/>
<polygon fill="black" stroke="black" points="81.15,-138 71.12,-141.43 81.1,-145 81.15,-138"/>
</g>
<!-- Document&#45;&gt;Documentation -->
<g id="edge1" class="edge">
<title>Document&#45;&gt;Documentation</title>
<path fill="none" stroke="black" d="M189.7,-164.71C204.54,-193.65 233.53,-244.11 269.91,-277.22 271.02,-278.23 272.17,-279.22 273.36,-280.18"/>
<polygon fill="black" stroke="black" points="271.46,-283.12 281.61,-286.15 275.56,-277.45 271.46,-283.12"/>
</g>
<!-- Document&#45;&gt;PinboardItem -->
<g id="edge5" class="edge">
<title>Document&#45;&gt;PinboardItem</title>
<path fill="none" stroke="black" d="M200.85,-164.39C218.58,-181.6 244.65,-205.45 269.91,-223.22 271.56,-224.39 273.27,-225.54 275.01,-226.67"/>
<polygon fill="black" stroke="black" points="273.57,-229.9 283.93,-232.16 277.24,-223.93 273.57,-229.9"/>
</g>
<!-- Document&#45;&gt;Role -->
<g id="edge6" class="edge">
<title>Document&#45;&gt;Role</title>
<path fill="none" stroke="black" d="M219.13,-157.7C239.53,-165.54 264.09,-174.97 283.79,-182.54"/>
<polygon fill="black" stroke="black" points="282.73,-185.88 293.32,-186.2 285.24,-179.35 282.73,-185.88"/>
</g>
<!-- Document&#45;&gt;VerifierRole -->
<g id="edge9" class="edge">
<title>Document&#45;&gt;VerifierRole</title>
<path fill="none" stroke="black" d="M234,-142.22C245.42,-142.22 257.41,-142.22 268.66,-142.22"/>
<polygon fill="black" stroke="black" points="268.76,-145.72 278.76,-142.22 268.76,-138.72 268.76,-145.72"/>
</g>
<!-- Document&#45;&gt;Creator -->
<g id="edge11" class="edge">
<title>Document&#45;&gt;Creator</title>
<path fill="none" stroke="black" stroke-dasharray="5,2" d="M233.44,-124.97C272.09,-112.45 325.01,-94.72 370.91,-77.22 382.77,-72.7 395.7,-67.29 406.78,-62.51"/>
<polygon fill="black" stroke="black" points="231.88,-121.79 223.43,-128.19 234.03,-128.46 231.88,-121.79"/>
</g>
<!-- Document&#45;&gt;Project -->
<g id="edge12" class="edge">
<title>Document&#45;&gt;Project</title>
<path fill="none" stroke="black" stroke-dasharray="5,2" d="M221.39,-119.22C225.68,-116.62 229.92,-113.93 233.91,-111.22 250.92,-99.7 253.26,-94.26 269.91,-82.22 277.21,-76.95 285.34,-71.52 292.86,-66.66"/>
<polygon fill="black" stroke="black" points="219.42,-116.31 212.58,-124.4 222.97,-122.34 219.42,-116.31"/>
</g>
<!-- Document&#45;&gt;Updater -->
<g id="edge13" class="edge">
<title>Document&#45;&gt;Updater</title>
<path fill="none" stroke="black" stroke-dasharray="5,2" d="M224.56,-119.92C227.96,-117.27 231.13,-114.37 233.91,-111.22 261.87,-79.54 234.83,-46.78 269.91,-23.22 340.85,24.4 448.21,-13.01 499.55,-35.86"/>
<polygon fill="black" stroke="black" points="222.52,-117.08 216.33,-125.67 226.53,-122.81 222.52,-117.08"/>
</g>
<!-- Documentation&#45;&gt;Source -->
<g id="edge7" class="edge">
<title>Documentation&#45;&gt;Source</title>
<path fill="none" stroke="black" d="M370.97,-304.22C380.08,-304.22 389.43,-304.22 398.06,-304.22"/>
<polygon fill="black" stroke="black" points="398.16,-307.72 408.16,-304.22 398.16,-300.72 398.16,-307.72"/>
</g>
<!-- Role&#45;&gt;Verifier -->
<!-- VerifierRole&#45;&gt;Verifier -->
<g id="edge10" class="edge">
<title>VerifierRole&#45;&gt;Verifier</title>
<path fill="none" stroke="black" d="M362.2,-151.97C373.53,-154.68 385.77,-157.6 396.9,-160.26"/>
<polygon fill="black" stroke="black" points="396.21,-163.7 406.75,-162.62 397.84,-156.89 396.21,-163.7"/>
</g>
<!-- Creator&#45;&gt;Updater -->
<!-- Project&#45;&gt;Creator -->
<!-- Identifier -->
<g id="node1" class="node">
<title>Identifier</title>
<g id="a_node1"><a xlink:href="/develop/Data/models.html#identifier" xlink:title="Identifier" target="_top">
<ellipse fill="#abcdef" stroke="#dddeee" cx="42.9" cy="-195.22" rx="42.79" ry="18"/>
<text text-anchor="middle" x="42.9" y="-191.52" font-family="Times,serif" font-size="14.00">Identifier</text>
</a>
</g>
</g>
<!-- Tag -->
<g id="node2" class="node">
<title>Tag</title>
<g id="a_node2"><a xlink:href="/develop/Data/models.html#tag" xlink:title="Tag" target="_top">
<ellipse fill="#abcdef" stroke="#dddeee" cx="42.9" cy="-86.22" rx="27" ry="18"/>
<text text-anchor="middle" x="42.9" y="-82.52" font-family="Times,serif" font-size="14.00">Tag</text>
</a>
</g>
</g>
<!-- Note -->
<g id="node3" class="node">
<title>Note</title>
<g id="a_node3"><a xlink:href="/develop/Data/models.html#note" xlink:title="Note" target="_top">
<ellipse fill="#abcdef" stroke="#dddeee" cx="42.9" cy="-141.22" rx="27.9" ry="18"/>
<text text-anchor="middle" x="42.9" y="-137.52" font-family="Times,serif" font-size="14.00">Note</text>
</a>
</g>
</g>
<!-- Source -->
<g id="node4" class="node">
<title>Source</title>
<g id="a_node4"><a xlink:href="/develop/Data/models.html#source" xlink:title="Source" target="_top">
<path fill="#fedcba" stroke="#dddeee" d="M420.41,-286.22C420.41,-286.22 450.41,-286.22 450.41,-286.22 456.41,-286.22 462.41,-292.22 462.41,-298.22 462.41,-298.22 462.41,-310.22 462.41,-310.22 462.41,-316.22 456.41,-322.22 450.41,-322.22 450.41,-322.22 420.41,-322.22 420.41,-322.22 414.41,-322.22 408.41,-316.22 408.41,-310.22 408.41,-310.22 408.41,-298.22 408.41,-298.22 408.41,-292.22 414.41,-286.22 420.41,-286.22"/>
<text text-anchor="middle" x="435.41" y="-300.52" font-family="Times,serif" font-size="14.00">Source</text>
</a>
</g>
</g>
<!-- Document -->
<g id="node5" class="node">
<title>Document</title>
<g id="a_node5"><a xlink:href="/develop/Data/models.html#document" xlink:title="Document" target="_top">
<polygon fill="#cdefab" stroke="#dedede" points="229.96,-134.77 229.96,-149.68 199.44,-160.22 156.27,-160.22 125.74,-149.68 125.74,-134.77 156.27,-124.22 199.44,-124.22 229.96,-134.77"/>
<polygon fill="none" stroke="#dedede" points="233.97,-131.92 233.97,-152.53 200.11,-164.22 155.59,-164.22 121.73,-152.53 121.73,-131.92 155.59,-120.22 200.11,-120.22 233.97,-131.92"/>
<text text-anchor="middle" x="177.85" y="-138.52" font-family="Times,serif" font-size="14.00">Document</text>
</a>
</g>
</g>
<!-- Documentation -->
<g id="node6" class="node">
<title>Documentation</title>
<g id="a_node6"><a xlink:href="/develop/Data/models.html#documentation" xlink:title="Documentation" target="_top">
<polygon fill="#eeefff" stroke="#dddeee" points="370.91,-322.22 269.91,-322.22 269.91,-286.22 370.91,-286.22 370.91,-322.22"/>
<text text-anchor="middle" x="320.41" y="-300.52" font-family="Times,serif" font-size="14.00">Documentation</text>
</a>
</g>
</g>
<!-- Keyword -->
<g id="node7" class="node">
<title>Keyword</title>
<g id="a_node7"><a xlink:href="/develop/Data/models.html#keyword" xlink:title="Keyword" target="_top">
<polygon fill="#eeefff" stroke="#dddeee" points="211.35,-102.22 144.35,-102.22 144.35,-66.22 211.35,-66.22 211.35,-102.22"/>
<text text-anchor="middle" x="177.85" y="-80.52" font-family="Times,serif" font-size="14.00">Keyword</text>
</a>
</g>
</g>
<!-- PinboardItem -->
<g id="node8" class="node">
<title>PinboardItem</title>
<g id="a_node8"><a xlink:href="/develop/Data/models.html#pinboard-item" xlink:title="PinboardItem" target="_top">
<polygon fill="#eeefff" stroke="#dddeee" points="365.91,-268.22 274.91,-268.22 274.91,-232.22 365.91,-232.22 365.91,-268.22"/>
<text text-anchor="middle" x="320.41" y="-246.52" font-family="Times,serif" font-size="14.00">PinboardItem</text>
</a>
</g>
</g>
<!-- Role -->
<g id="node9" class="node">
<title>Role</title>
<g id="a_node9"><a xlink:href="/develop/Data/models.html#role" xlink:title="Role" target="_top">
<polygon fill="#eeefff" stroke="#dddeee" points="347.41,-214.22 293.41,-214.22 293.41,-178.22 347.41,-178.22 347.41,-214.22"/>
<text text-anchor="middle" x="320.41" y="-192.52" font-family="Times,serif" font-size="14.00">Role</text>
</a>
</g>
</g>
<!-- VerifierRole -->
<g id="node10" class="node">
<title>VerifierRole</title>
<g id="a_node10"><a xlink:href="/develop/Data/models.html#verifier-role" xlink:title="VerifierRole" target="_top">
<polygon fill="#eeefff" stroke="#dddeee" points="361.91,-160.22 278.91,-160.22 278.91,-124.22 361.91,-124.22 361.91,-160.22"/>
<text text-anchor="middle" x="320.41" y="-138.52" font-family="Times,serif" font-size="14.00">VerifierRole</text>
</a>
</g>
</g>
<!-- Verifier -->
<g id="node11" class="node">
<title>Verifier</title>
<g id="a_node11"><a xlink:href="/develop/Data/models.html#verifier" xlink:title="Verifier" target="_top">
<polygon fill="#eeefff" stroke="#dddeee" points="463.91,-187.22 406.91,-187.22 406.91,-151.22 463.91,-151.22 463.91,-187.22"/>
<text text-anchor="middle" x="435.41" y="-165.52" font-family="Times,serif" font-size="14.00">Verifier</text>
</a>
</g>
</g>
<!-- Creator -->
<g id="node12" class="node">
<title>Creator</title>
<g id="a_node12"><a xlink:href="/develop/Data/models.html#creator" xlink:title="Creator" target="_top">
<polygon fill="#eeefff" stroke="#dddeee" points="463.91,-68.22 406.91,-68.22 406.91,-32.22 463.91,-32.22 463.91,-68.22"/>
<text text-anchor="middle" x="435.41" y="-46.52" font-family="Times,serif" font-size="14.00">Creator</text>
</a>
</g>
</g>
<!-- Project -->
<g id="node13" class="node">
<title>Project</title>
<g id="a_node13"><a xlink:href="/develop/Data/models.html#project" xlink:title="Project" target="_top">
<polygon fill="#eeefff" stroke="#dddeee" points="347.91,-68.22 292.91,-68.22 292.91,-32.22 347.91,-32.22 347.91,-68.22"/>
<text text-anchor="middle" x="320.41" y="-46.52" font-family="Times,serif" font-size="14.00">Project</text>
</a>
</g>
</g>
<!-- Updater -->
<g id="node14" class="node">
<title>Updater</title>
<g id="a_node14"><a xlink:href="/develop/Data/models.html#updater" xlink:title="Updater" target="_top">
<polygon fill="#eeefff" stroke="#dddeee" points="559.91,-68.22 499.91,-68.22 499.91,-32.22 559.91,-32.22 559.91,-68.22"/>
<text text-anchor="middle" x="529.91" y="-46.52" font-family="Times,serif" font-size="14.00">Updater</text>
</a>
</g>
</g>
</g>
</svg>
