<?xml version="1.0" encoding="UTF-8" standalone="no"?>
<!DOCTYPE svg PUBLIC "-//W3C//DTD SVG 1.1//EN"
 "http://www.w3.org/Graphics/SVG/1.1/DTD/svg11.dtd">
<!-- Generated by graphviz version 2.50.0 (20211204.2007)
 -->
<!-- Title: Document Pages: 1 -->
<svg width="643pt" height="369pt"
 viewBox="0.00 0.00 643.00 368.72" xmlns="http://www.w3.org/2000/svg" xmlns:xlink="http://www.w3.org/1999/xlink">
<g id="graph0" class="graph" transform="scale(1 1) rotate(0) translate(4 364.72)">
<title>Document</title>
<polygon fill="white" stroke="transparent" points="-4,4 -4,-364.72 639,-364.72 639,4 -4,4"/>
<text text-anchor="middle" x="317.5" y="-22.8" font-family="Times,serif" font-size="14.00">Algorithmically generated relationships for Document based on assertions of &#39;has_many&#39;, &#39;has_one&#39;, &#39;belongs_to&#39;. </text>
<text text-anchor="middle" x="317.5" y="-7.8" font-family="Times,serif" font-size="14.00">Generated 2022&#45;01&#45;25 11:37:44 &#45;0600.</text>
<!-- Tag&#45;&gt;Keyword -->
<g id="edge3" class="edge">
<title>Tag&#45;&gt;Keyword</title>
<path fill="none" stroke="black" d="M107.71,-123.83C125.84,-123.56 150.35,-123.19 171.31,-122.87"/>
<polygon fill="black" stroke="black" points="171.64,-126.37 181.58,-122.72 171.53,-119.37 171.64,-126.37"/>
</g>
<!-- Document&#45;&gt;Identifier -->
<g id="edge2" class="edge">
<title>Document&#45;&gt;Identifier</title>
<path fill="none" stroke="black" d="M174.64,-196.07C157.95,-202.73 138.56,-210.46 121.8,-217.14"/>
<polygon fill="black" stroke="black" points="120.27,-213.98 112.28,-220.93 122.86,-220.48 120.27,-213.98"/>
</g>
<!-- Document&#45;&gt;Tag -->
<g id="edge8" class="edge">
<title>Document&#45;&gt;Tag</title>
<path fill="none" stroke="black" d="M175.91,-164.01C155.95,-155.61 131.88,-145.47 113.03,-137.53"/>
<polygon fill="black" stroke="black" points="114.27,-134.25 103.7,-133.6 111.55,-140.7 114.27,-134.25"/>
</g>
<!-- Document&#45;&gt;Note -->
<g id="edge4" class="edge">
<title>Document&#45;&gt;Note</title>
<path fill="none" stroke="black" d="M159.21,-179.81C145.59,-179.71 131.3,-179.6 118.75,-179.5"/>
<polygon fill="black" stroke="black" points="118.69,-176 108.67,-179.43 118.64,-183 118.69,-176"/>
</g>
<!-- Document&#45;&gt;Documentation -->
<g id="edge1" class="edge">
<title>Document&#45;&gt;Documentation</title>
<path fill="none" stroke="black" d="M227.24,-202.71C242.08,-231.65 271.07,-282.11 307.45,-315.22 308.56,-316.23 309.72,-317.22 310.9,-318.18"/>
<polygon fill="black" stroke="black" points="309,-321.12 319.16,-324.15 313.11,-315.45 309,-321.12"/>
</g>
<!-- Document&#45;&gt;PinboardItem -->
<g id="edge5" class="edge">
<title>Document&#45;&gt;PinboardItem</title>
<path fill="none" stroke="black" d="M238.39,-202.39C256.13,-219.6 282.19,-243.45 307.45,-261.22 309.11,-262.39 310.81,-263.54 312.55,-264.67"/>
<polygon fill="black" stroke="black" points="311.12,-267.9 321.47,-270.16 314.79,-261.93 311.12,-267.9"/>
</g>
<!-- Document&#45;&gt;Role -->
<g id="edge6" class="edge">
<title>Document&#45;&gt;Role</title>
<path fill="none" stroke="black" d="M256.67,-195.7C277.08,-203.54 301.63,-212.97 321.34,-220.54"/>
<polygon fill="black" stroke="black" points="320.28,-223.88 330.87,-224.2 322.79,-217.35 320.28,-223.88"/>
</g>
<!-- Document&#45;&gt;VerifierRole -->
<g id="edge9" class="edge">
<title>Document&#45;&gt;VerifierRole</title>
<path fill="none" stroke="black" d="M271.55,-180.22C282.97,-180.22 294.95,-180.22 306.21,-180.22"/>
<polygon fill="black" stroke="black" points="306.31,-183.72 316.31,-180.22 306.31,-176.72 306.31,-183.72"/>
</g>
<!-- Document&#45;&gt;Creator -->
<g id="edge11" class="edge">
<title>Document&#45;&gt;Creator</title>
<path fill="none" stroke="black" stroke-dasharray="5,2" d="M270.98,-162.97C309.64,-150.45 362.56,-132.72 408.45,-115.22 420.32,-110.7 433.25,-105.29 444.32,-100.51"/>
<polygon fill="black" stroke="black" points="269.42,-159.79 260.98,-166.19 271.57,-166.46 269.42,-159.79"/>
</g>
<!-- Document&#45;&gt;Project -->
<g id="edge12" class="edge">
<title>Document&#45;&gt;Project</title>
<path fill="none" stroke="black" stroke-dasharray="5,2" d="M258.93,-157.22C263.22,-154.62 267.46,-151.93 271.45,-149.22 288.46,-137.7 290.8,-132.26 307.45,-120.22 314.75,-114.95 322.88,-109.52 330.41,-104.66"/>
<polygon fill="black" stroke="black" points="256.96,-154.31 250.12,-162.4 260.52,-160.34 256.96,-154.31"/>
</g>
<!-- Document&#45;&gt;Updater -->
<g id="edge13" class="edge">
<title>Document&#45;&gt;Updater</title>
<path fill="none" stroke="black" stroke-dasharray="5,2" d="M262.11,-157.92C265.5,-155.27 268.68,-152.37 271.45,-149.22 299.42,-117.54 272.37,-84.78 307.45,-61.22 378.4,-13.6 485.76,-51.01 537.1,-73.86"/>
<polygon fill="black" stroke="black" points="260.07,-155.08 253.88,-163.67 264.08,-160.81 260.07,-155.08"/>
</g>
<!-- Documentation&#45;&gt;Source -->
<g id="edge7" class="edge">
<title>Documentation&#45;&gt;Source</title>
<path fill="none" stroke="black" d="M408.52,-342.22C417.62,-342.22 426.97,-342.22 435.6,-342.22"/>
<polygon fill="black" stroke="black" points="435.71,-345.72 445.71,-342.22 435.71,-338.72 435.71,-345.72"/>
</g>
<!-- Role&#45;&gt;Verifier -->
<!-- VerifierRole&#45;&gt;Verifier -->
<g id="edge10" class="edge">
<title>VerifierRole&#45;&gt;Verifier</title>
<path fill="none" stroke="black" d="M399.75,-189.97C411.08,-192.68 423.32,-195.6 434.44,-198.26"/>
<polygon fill="black" stroke="black" points="433.75,-201.7 444.29,-200.62 435.38,-194.89 433.75,-201.7"/>
</g>
<!-- Creator&#45;&gt;Updater -->
<!-- Project&#45;&gt;Creator -->
<!-- Identifier -->
<g id="node1" class="node">
<title>Identifier</title>
<g id="a_node1"><a xlink:href="/develop/Data/models.html#identifier" xlink:title="Identifier" target="_top">
<ellipse fill="#abcdef" stroke="#dddeee" cx="80.44" cy="-233.22" rx="42.79" ry="18"/>
<text text-anchor="middle" x="80.44" y="-229.52" font-family="Times,serif" font-size="14.00">Identifier</text>
</a>
</g>
</g>
<!-- Tag -->
<g id="node2" class="node">
<title>Tag</title>
<g id="a_node2"><a xlink:href="/develop/Data/models.html#tag" xlink:title="Tag" target="_top">
<ellipse fill="#abcdef" stroke="#dddeee" cx="80.44" cy="-124.22" rx="27" ry="18"/>
<text text-anchor="middle" x="80.44" y="-120.52" font-family="Times,serif" font-size="14.00">Tag</text>
</a>
</g>
</g>
<!-- Note -->
<g id="node3" class="node">
<title>Note</title>
<g id="a_node3"><a xlink:href="/develop/Data/models.html#note" xlink:title="Note" target="_top">
<ellipse fill="#abcdef" stroke="#dddeee" cx="80.44" cy="-179.22" rx="27.9" ry="18"/>
<text text-anchor="middle" x="80.44" y="-175.52" font-family="Times,serif" font-size="14.00">Note</text>
</a>
</g>
</g>
<!-- Source -->
<g id="node4" class="node">
<title>Source</title>
<g id="a_node4"><a xlink:href="/develop/Data/models.html#source" xlink:title="Source" target="_top">
<path fill="#fedcba" stroke="#dddeee" d="M457.95,-324.22C457.95,-324.22 487.95,-324.22 487.95,-324.22 493.95,-324.22 499.95,-330.22 499.95,-336.22 499.95,-336.22 499.95,-348.22 499.95,-348.22 499.95,-354.22 493.95,-360.22 487.95,-360.22 487.95,-360.22 457.95,-360.22 457.95,-360.22 451.95,-360.22 445.95,-354.22 445.95,-348.22 445.95,-348.22 445.95,-336.22 445.95,-336.22 445.95,-330.22 451.95,-324.22 457.95,-324.22"/>
<text text-anchor="middle" x="472.95" y="-338.52" font-family="Times,serif" font-size="14.00">Source</text>
</a>
</g>
</g>
<!-- Document -->
<g id="node5" class="node">
<title>Document</title>
<g id="a_node5"><a xlink:href="/develop/Data/models.html#document" xlink:title="Document" target="_top">
<polygon fill="#cdefab" stroke="#dedede" points="267.51,-172.77 267.51,-187.68 236.98,-198.22 193.81,-198.22 163.28,-187.68 163.28,-172.77 193.81,-162.22 236.98,-162.22 267.51,-172.77"/>
<polygon fill="none" stroke="#dedede" points="271.51,-169.92 271.51,-190.53 237.65,-202.22 193.14,-202.22 159.28,-190.53 159.28,-169.92 193.14,-158.22 237.65,-158.22 271.51,-169.92"/>
<text text-anchor="middle" x="215.4" y="-176.52" font-family="Times,serif" font-size="14.00">Document</text>
</a>
</g>
</g>
<!-- Documentation -->
<g id="node6" class="node">
<title>Documentation</title>
<g id="a_node6"><a xlink:href="/develop/Data/models.html#documentation" xlink:title="Documentation" target="_top">
<polygon fill="#eeefff" stroke="#dddeee" points="408.45,-360.22 307.45,-360.22 307.45,-324.22 408.45,-324.22 408.45,-360.22"/>
<text text-anchor="middle" x="357.95" y="-338.52" font-family="Times,serif" font-size="14.00">Documentation</text>
</a>
</g>
</g>
<!-- Keyword -->
<g id="node7" class="node">
<title>Keyword</title>
<g id="a_node7"><a xlink:href="/develop/Data/models.html#keyword" xlink:title="Keyword" target="_top">
<polygon fill="#eeefff" stroke="#dddeee" points="248.9,-140.22 181.9,-140.22 181.9,-104.22 248.9,-104.22 248.9,-140.22"/>
<text text-anchor="middle" x="215.4" y="-118.52" font-family="Times,serif" font-size="14.00">Keyword</text>
</a>
</g>
</g>
<!-- PinboardItem -->
<g id="node8" class="node">
<title>PinboardItem</title>
<g id="a_node8"><a xlink:href="/develop/Data/models.html#pinboard-item" xlink:title="PinboardItem" target="_top">
<polygon fill="#eeefff" stroke="#dddeee" points="403.45,-306.22 312.45,-306.22 312.45,-270.22 403.45,-270.22 403.45,-306.22"/>
<text text-anchor="middle" x="357.95" y="-284.52" font-family="Times,serif" font-size="14.00">PinboardItem</text>
</a>
</g>
</g>
<!-- Role -->
<g id="node9" class="node">
<title>Role</title>
<g id="a_node9"><a xlink:href="/develop/Data/models.html#role" xlink:title="Role" target="_top">
<polygon fill="#eeefff" stroke="#dddeee" points="384.95,-252.22 330.95,-252.22 330.95,-216.22 384.95,-216.22 384.95,-252.22"/>
<text text-anchor="middle" x="357.95" y="-230.52" font-family="Times,serif" font-size="14.00">Role</text>
</a>
</g>
</g>
<!-- VerifierRole -->
<g id="node10" class="node">
<title>VerifierRole</title>
<g id="a_node10"><a xlink:href="/develop/Data/models.html#verifier-role" xlink:title="VerifierRole" target="_top">
<polygon fill="#eeefff" stroke="#dddeee" points="399.45,-198.22 316.45,-198.22 316.45,-162.22 399.45,-162.22 399.45,-198.22"/>
<text text-anchor="middle" x="357.95" y="-176.52" font-family="Times,serif" font-size="14.00">VerifierRole</text>
</a>
</g>
</g>
<!-- Verifier -->
<g id="node11" class="node">
<title>Verifier</title>
<g id="a_node11"><a xlink:href="/develop/Data/models.html#verifier" xlink:title="Verifier" target="_top">
<polygon fill="#eeefff" stroke="#dddeee" points="501.45,-225.22 444.45,-225.22 444.45,-189.22 501.45,-189.22 501.45,-225.22"/>
<text text-anchor="middle" x="472.95" y="-203.52" font-family="Times,serif" font-size="14.00">Verifier</text>
</a>
</g>
</g>
<!-- Creator -->
<g id="node12" class="node">
<title>Creator</title>
<g id="a_node12"><a xlink:href="/develop/Data/models.html#creator" xlink:title="Creator" target="_top">
<polygon fill="#eeefff" stroke="#dddeee" points="501.45,-106.22 444.45,-106.22 444.45,-70.22 501.45,-70.22 501.45,-106.22"/>
<text text-anchor="middle" x="472.95" y="-84.52" font-family="Times,serif" font-size="14.00">Creator</text>
</a>
</g>
</g>
<!-- Project -->
<g id="node13" class="node">
<title>Project</title>
<g id="a_node13"><a xlink:href="/develop/Data/models.html#project" xlink:title="Project" target="_top">
<polygon fill="#eeefff" stroke="#dddeee" points="385.45,-106.22 330.45,-106.22 330.45,-70.22 385.45,-70.22 385.45,-106.22"/>
<text text-anchor="middle" x="357.95" y="-84.52" font-family="Times,serif" font-size="14.00">Project</text>
</a>
</g>
</g>
<!-- Updater -->
<g id="node14" class="node">
<title>Updater</title>
<g id="a_node14"><a xlink:href="/develop/Data/models.html#updater" xlink:title="Updater" target="_top">
<polygon fill="#eeefff" stroke="#dddeee" points="597.45,-106.22 537.45,-106.22 537.45,-70.22 597.45,-70.22 597.45,-106.22"/>
<text text-anchor="middle" x="567.45" y="-84.52" font-family="Times,serif" font-size="14.00">Updater</text>
</a>
</g>
</g>
</g>
</svg>
