<?xml version="1.0" encoding="UTF-8" standalone="no"?>
<!DOCTYPE svg PUBLIC "-//W3C//DTD SVG 1.1//EN"
 "http://www.w3.org/Graphics/SVG/1.1/DTD/svg11.dtd">
<!-- Generated by graphviz version 2.50.0 (20211204.2007)
 -->
<!-- Title: G Pages: 1 -->
<svg width="552pt" height="716pt"
 viewBox="0.00 0.00 552.14 715.50" xmlns="http://www.w3.org/2000/svg" xmlns:xlink="http://www.w3.org/1999/xlink">
<g id="graph0" class="graph" transform="scale(1 1) rotate(0) translate(4 711.5)">
<title>G</title>
<polygon fill="white" stroke="transparent" points="-4,4 -4,-711.5 548.14,-711.5 548.14,4 -4,4"/>
<text text-anchor="middle" x="272.07" y="-7.8" font-family="Times,serif" font-size="14.00">Generated 2022&#45;01&#45;25 11:36:52 &#45;0600 via &#39;rake tw:docs:er&#39;.</text>
<!-- CollectingEvent&#45;&gt;CollectionObject -->
<g id="edge5" class="edge">
<title>CollectingEvent&#45;&gt;CollectionObject</title>
<path fill="none" stroke="black" d="M301.14,-59.74C301.14,-84.3 301.14,-128.25 301.14,-157.15"/>
<polygon fill="black" stroke="black" points="297.64,-157.41 301.14,-167.41 304.64,-157.41 297.64,-157.41"/>
</g>
<!-- CollectionObject&#45;&gt;Source -->
<g id="edge22" class="edge">
<title>CollectionObject&#45;&gt;Source</title>
<path fill="none" stroke="black" stroke-dasharray="5,2" d="M287.46,-167.26C268.56,-142.05 234.33,-96.41 212.71,-67.6"/>
<polygon fill="black" stroke="black" points="215.51,-65.49 206.71,-59.59 209.91,-69.69 215.51,-65.49"/>
</g>
<!-- CollectionObject&#45;&gt;BiologicalAssociation -->
<g id="edge8" class="edge">
<title>CollectionObject&#45;&gt;BiologicalAssociation</title>
<path fill="none" stroke="black" d="M355.99,-185.5C359.33,-185.5 362.72,-185.5 366.13,-185.5"/>
<polygon fill="black" stroke="black" points="366.4,-189 376.4,-185.5 366.4,-182 366.4,-189"/>
</g>
<!-- CollectionObject&#45;&gt;Observation -->
<g id="edge7" class="edge">
<title>CollectionObject&#45;&gt;Observation</title>
<path fill="none" stroke="black" d="M319.38,-203.74C344.81,-229.16 391.02,-275.37 419.79,-304.14"/>
<polygon fill="black" stroke="black" points="417.51,-306.81 427.05,-311.41 422.46,-301.86 417.51,-306.81"/>
</g>
<!-- CollectionObject&#45;&gt;TypeMaterial -->
<g id="edge9" class="edge">
<title>CollectionObject&#45;&gt;TypeMaterial</title>
<path fill="none" stroke="black" d="M307.16,-203.54C319.73,-241.27 348.87,-328.68 363.86,-373.66"/>
<polygon fill="black" stroke="black" points="360.61,-374.97 367.09,-383.35 367.25,-372.76 360.61,-374.97"/>
</g>
<!-- CollectionObject&#45;&gt;TaxonDetermination -->
<g id="edge6" class="edge">
<title>CollectionObject&#45;&gt;TaxonDetermination</title>
<path fill="none" stroke="black" d="M282.97,-203.67C274.43,-212.22 264.09,-222.56 254.76,-231.88"/>
<polygon fill="black" stroke="black" points="252.15,-229.54 247.56,-239.09 257.1,-234.49 252.15,-229.54"/>
</g>
<!-- Otu&#45;&gt;AssertedDistribution -->
<g id="edge12" class="edge">
<title>Otu&#45;&gt;AssertedDistribution</title>
<path fill="none" stroke="black" d="M282.97,-347.67C274.43,-356.22 264.09,-366.56 254.76,-375.88"/>
<polygon fill="black" stroke="black" points="252.15,-373.54 247.56,-383.09 257.1,-378.49 252.15,-373.54"/>
</g>
<!-- Otu&#45;&gt;BiologicalAssociation -->
<g id="edge3" class="edge">
<title>Otu&#45;&gt;BiologicalAssociation</title>
<path fill="none" stroke="black" d="M319.38,-311.26C344.81,-285.84 391.02,-239.63 419.79,-210.86"/>
<polygon fill="black" stroke="black" points="422.46,-213.14 427.05,-203.59 417.51,-208.19 422.46,-213.14"/>
</g>
<!-- Otu&#45;&gt;Observation -->
<g id="edge2" class="edge">
<title>Otu&#45;&gt;Observation</title>
<path fill="none" stroke="black" d="M328.23,-329.5C346.51,-329.5 371.24,-329.5 393.24,-329.5"/>
<polygon fill="black" stroke="black" points="393.45,-333 403.45,-329.5 393.45,-326 393.45,-333"/>
</g>
<!-- Otu&#45;&gt;TaxonDetermination -->
<g id="edge1" class="edge">
<title>Otu&#45;&gt;TaxonDetermination</title>
<path fill="none" stroke="black" d="M282.97,-311.33C274.43,-302.78 264.09,-292.44 254.76,-283.12"/>
<polygon fill="black" stroke="black" points="257.1,-280.51 247.56,-275.91 252.15,-285.46 257.1,-280.51"/>
</g>
<!-- Otu&#45;&gt;Identifier -->
<g id="edge20" class="edge">
<title>Otu&#45;&gt;Identifier</title>
<path fill="none" stroke="black" stroke-dasharray="5,2" d="M273.79,-329.5C239.91,-329.5 181.45,-329.5 138.56,-329.5"/>
<polygon fill="black" stroke="black" points="138.29,-326 128.29,-329.5 138.29,-333 138.29,-326"/>
</g>
<!-- Otu&#45;&gt;Depiction -->
<g id="edge26" class="edge">
<title>Otu&#45;&gt;Depiction</title>
<path fill="none" stroke="black" stroke-dasharray="5,2" d="M287.63,-347.52C250.56,-396.95 147.16,-534.81 104.22,-592.07"/>
<polygon fill="black" stroke="black" points="101.3,-590.12 98.1,-600.22 106.9,-594.32 101.3,-590.12"/>
</g>
<!-- TaxonName&#45;&gt;Otu -->
<g id="edge4" class="edge">
<title>TaxonName&#45;&gt;Otu</title>
<path fill="none" stroke="black" d="M301.14,-455.26C301.14,-430.7 301.14,-386.75 301.14,-357.85"/>
<polygon fill="black" stroke="black" points="304.64,-357.59 301.14,-347.59 297.64,-357.59 304.64,-357.59"/>
</g>
<!-- TaxonName&#45;&gt;TypeMaterial -->
<g id="edge10" class="edge">
<title>TaxonName&#45;&gt;TypeMaterial</title>
<path fill="none" stroke="black" d="M319.31,-455.33C327.86,-446.78 338.2,-436.44 347.52,-427.12"/>
<polygon fill="black" stroke="black" points="350.13,-429.46 354.73,-419.91 345.18,-424.51 350.13,-429.46"/>
</g>
<!-- Descriptor&#45;&gt;Observation -->
<g id="edge14" class="edge">
<title>Descriptor&#45;&gt;Observation</title>
<path fill="none" stroke="black" d="M445.14,-275.67C445.14,-283.37 445.14,-292.53 445.14,-301.08"/>
<polygon fill="black" stroke="black" points="441.64,-301.09 445.14,-311.09 448.64,-301.09 441.64,-301.09"/>
</g>
<!-- Source&#45;&gt;Citation -->
<g id="edge28" class="edge">
<title>Source&#45;&gt;Citation</title>
<path fill="none" stroke="black" d="M165.89,-41.5C156.32,-41.5 145.26,-41.5 134.45,-41.5"/>
<polygon fill="black" stroke="black" points="134.22,-38 124.22,-41.5 134.22,-45 134.22,-38"/>
</g>
<!-- Source&#45;&gt;AlternateValue -->
<g id="edge21" class="edge">
<title>Source&#45;&gt;AlternateValue</title>
<path fill="none" stroke="black" stroke-dasharray="5,2" d="M165.89,-59.67C151.58,-69.21 133.91,-80.99 118.75,-91.09"/>
<polygon fill="black" stroke="black" points="116.54,-88.36 110.17,-96.82 120.43,-94.18 116.54,-88.36"/>
</g>
<!-- AssertedDistribution&#45;&gt;Confidence -->
<g id="edge25" class="edge">
<title>AssertedDistribution&#45;&gt;Confidence</title>
<path fill="none" stroke="black" stroke-dasharray="5,2" d="M164.3,-401.5C158.43,-401.5 152.48,-401.5 146.63,-401.5"/>
<polygon fill="black" stroke="black" points="146.24,-398 136.24,-401.5 146.24,-405 146.24,-398"/>
</g>
<!-- Sequence&#45;&gt;OriginRelationship -->
<g id="edge17" class="edge">
<title>Sequence&#45;&gt;OriginRelationship</title>
<path fill="none" stroke="black" stroke-dasharray="5,2" d="M445.14,-491.74C445.14,-516.3 445.14,-560.25 445.14,-589.15"/>
<polygon fill="black" stroke="black" points="441.64,-589.41 445.14,-599.41 448.64,-589.41 441.64,-589.41"/>
</g>
<!-- ControlledVocabularyTerm&#45;&gt;Tag -->
<g id="edge18" class="edge">
<title>ControlledVocabularyTerm&#45;&gt;Tag</title>
<path fill="none" stroke="black" stroke-dasharray="5,2" d="M217.94,-545.5C185.04,-545.5 148.89,-545.5 122.63,-545.5"/>
<polygon fill="black" stroke="black" points="122.37,-542 112.37,-545.5 122.37,-549 122.37,-542"/>
</g>
<!-- ControlledVocabularyTerm&#45;&gt;DataAttribute -->
<g id="edge19" class="edge">
<title>ControlledVocabularyTerm&#45;&gt;DataAttribute</title>
<path fill="none" stroke="black" stroke-dasharray="5,2" d="M246.92,-527.42C212.45,-515.94 168.18,-501.18 134.67,-490.01"/>
<polygon fill="black" stroke="black" points="135.67,-486.65 125.08,-486.81 133.46,-493.29 135.67,-486.65"/>
</g>
<!-- Image&#45;&gt;Depiction -->
<g id="edge13" class="edge">
<title>Image&#45;&gt;Depiction</title>
<path fill="none" stroke="black" d="M202.06,-617.5C184.83,-617.5 161.9,-617.5 140.91,-617.5"/>
<polygon fill="black" stroke="black" points="140.79,-614 130.79,-617.5 140.79,-621 140.79,-614"/>
</g>
<!-- Image&#45;&gt;Attribution -->
<g id="edge27" class="edge">
<title>Image&#45;&gt;Attribution</title>
<path fill="none" stroke="black" stroke-dasharray="5,2" d="M202.06,-631.04C179.95,-642.1 148.44,-657.85 123.7,-670.22"/>
<polygon fill="black" stroke="black" points="121.96,-667.18 114.58,-674.78 125.09,-673.44 121.96,-667.18"/>
</g>
<!-- TaxonDetermination&#45;&gt;Note -->
<g id="edge23" class="edge">
<title>TaxonDetermination&#45;&gt;Note</title>
<path fill="none" stroke="black" stroke-dasharray="5,2" d="M163.88,-257.5C150.19,-257.5 136.16,-257.5 123.81,-257.5"/>
<polygon fill="black" stroke="black" points="123.44,-254 113.44,-257.5 123.44,-261 123.44,-254"/>
</g>
<!-- TaxonDetermination&#45;&gt;ProtocolRelationship -->
<g id="edge24" class="edge">
<title>TaxonDetermination&#45;&gt;ProtocolRelationship</title>
<path fill="none" stroke="black" stroke-dasharray="5,2" d="M192.81,-239.33C173.01,-229.43 148.4,-217.13 127.71,-206.78"/>
<polygon fill="black" stroke="black" points="129.02,-203.52 118.51,-202.18 125.89,-209.78 129.02,-203.52"/>
</g>
<!-- Georeference&#45;&gt;CollectingEvent -->
<g id="edge11" class="edge">
<title>Georeference&#45;&gt;CollectingEvent</title>
<path fill="none" stroke="black" d="M400.37,-41.5C388.69,-41.5 375.9,-41.5 363.49,-41.5"/>
<polygon fill="black" stroke="black" points="363.2,-38 353.2,-41.5 363.2,-45 363.2,-38"/>
</g>
<!-- People&#45;&gt;Role:Collector -->
<g id="edge15" class="edge">
<title>People&#45;&gt;Role:Collector</title>
<path fill="none" stroke="black" stroke-dasharray="5,2" d="M490.06,-113.5C473.54,-113.5 451.77,-113.5 431.5,-113.5"/>
<polygon fill="black" stroke="black" points="431.38,-110 421.38,-113.5 431.38,-117 431.38,-110"/>
</g>
<!-- Role:Collector&#45;&gt;CollectionObject -->
<g id="edge16" class="edge">
<title>Role:Collector&#45;&gt;CollectionObject</title>
<path fill="none" stroke="black" stroke-dasharray="5,2" d="M354.97,-131.67C346.43,-140.22 336.09,-150.56 326.76,-159.88"/>
<polygon fill="black" stroke="black" points="324.15,-157.54 319.56,-167.09 329.1,-162.49 324.15,-157.54"/>
</g>
<!-- CollectingEvent -->
<g id="node1" class="node">
<title>CollectingEvent</title>
<g id="a_node1"><a xlink:href="https://rdoc.taxonworks.org/CollectingEvent.html" xlink:title="CollectingEvent" target="_top">
<path fill="#fedcba" stroke="#dddeee" d="M261.14,-68.5C261.14,-68.5 341.14,-68.5 341.14,-68.5 347.14,-68.5 353.14,-74.5 353.14,-80.5 353.14,-80.5 353.14,-92.5 353.14,-92.5 353.14,-98.5 347.14,-104.5 341.14,-104.5 341.14,-104.5 261.14,-104.5 261.14,-104.5 255.14,-104.5 249.14,-98.5 249.14,-92.5 249.14,-92.5 249.14,-80.5 249.14,-80.5 249.14,-74.5 255.14,-68.5 261.14,-68.5"/>
<text text-anchor="middle" x="301.14" y="-82.8" font-family="Times,serif" font-size="14.00">CollectingEvent</text>
</a>
</g>
</g>
<!-- CollectionObject -->
<g id="node2" class="node">
<title>CollectionObject</title>
<g id="a_node2"><a xlink:href="https://rdoc.taxonworks.org/CollectionObject.html" xlink:title="CollectionObject" target="_top">
<path fill="#fedcba" stroke="#dddeee" d="M258.64,-212.5C258.64,-212.5 343.64,-212.5 343.64,-212.5 349.64,-212.5 355.64,-218.5 355.64,-224.5 355.64,-224.5 355.64,-236.5 355.64,-236.5 355.64,-242.5 349.64,-248.5 343.64,-248.5 343.64,-248.5 258.64,-248.5 258.64,-248.5 252.64,-248.5 246.64,-242.5 246.64,-236.5 246.64,-236.5 246.64,-224.5 246.64,-224.5 246.64,-218.5 252.64,-212.5 258.64,-212.5"/>
<text text-anchor="middle" x="301.14" y="-226.8" font-family="Times,serif" font-size="14.00">CollectionObject</text>
</a>
</g>
</g>
<!-- Otu -->
<g id="node3" class="node">
<title>Otu</title>
<g id="a_node3"><a xlink:href="https://rdoc.taxonworks.org/Otu.html" xlink:title="Otu" target="_top">
<path fill="#fedcba" stroke="#dddeee" d="M286.14,-356.5C286.14,-356.5 316.14,-356.5 316.14,-356.5 322.14,-356.5 328.14,-362.5 328.14,-368.5 328.14,-368.5 328.14,-380.5 328.14,-380.5 328.14,-386.5 322.14,-392.5 316.14,-392.5 316.14,-392.5 286.14,-392.5 286.14,-392.5 280.14,-392.5 274.14,-386.5 274.14,-380.5 274.14,-380.5 274.14,-368.5 274.14,-368.5 274.14,-362.5 280.14,-356.5 286.14,-356.5"/>
<text text-anchor="middle" x="301.14" y="-370.8" font-family="Times,serif" font-size="14.00">Otu</text>
</a>
</g>
</g>
<!-- TaxonName -->
<g id="node4" class="node">
<title>TaxonName</title>
<g id="a_node4"><a xlink:href="https://rdoc.taxonworks.org/TaxonName.html" xlink:title="TaxonName" target="_top">
<path fill="#fedcba" stroke="#dddeee" d="M271.14,-500.5C271.14,-500.5 331.14,-500.5 331.14,-500.5 337.14,-500.5 343.14,-506.5 343.14,-512.5 343.14,-512.5 343.14,-524.5 343.14,-524.5 343.14,-530.5 337.14,-536.5 331.14,-536.5 331.14,-536.5 271.14,-536.5 271.14,-536.5 265.14,-536.5 259.14,-530.5 259.14,-524.5 259.14,-524.5 259.14,-512.5 259.14,-512.5 259.14,-506.5 265.14,-500.5 271.14,-500.5"/>
<text text-anchor="middle" x="301.14" y="-514.8" font-family="Times,serif" font-size="14.00">TaxonName</text>
</a>
</g>
</g>
<!-- Descriptor -->
<g id="node5" class="node">
<title>Descriptor</title>
<g id="a_node5"><a xlink:href="https://rdoc.taxonworks.org/Descriptor.html" xlink:title="Descriptor" target="_top">
<path fill="#fedcba" stroke="#dddeee" d="M564.14,-356.5C564.14,-356.5 614.14,-356.5 614.14,-356.5 620.14,-356.5 626.14,-362.5 626.14,-368.5 626.14,-368.5 626.14,-380.5 626.14,-380.5 626.14,-386.5 620.14,-392.5 614.14,-392.5 614.14,-392.5 564.14,-392.5 564.14,-392.5 558.14,-392.5 552.14,-386.5 552.14,-380.5 552.14,-380.5 552.14,-368.5 552.14,-368.5 552.14,-362.5 558.14,-356.5 564.14,-356.5"/>
<text text-anchor="middle" x="589.14" y="-370.8" font-family="Times,serif" font-size="14.00">Descriptor</text>
</a>
</g>
</g>
<!-- Source -->
<g id="node6" class="node">
<title>Source</title>
<g id="a_node6"><a xlink:href="https://rdoc.taxonworks.org/Source.html" xlink:title="Source" target="_top">
<path fill="#fedcba" stroke="#dddeee" d="M178.14,-68.5C178.14,-68.5 208.14,-68.5 208.14,-68.5 214.14,-68.5 220.14,-74.5 220.14,-80.5 220.14,-80.5 220.14,-92.5 220.14,-92.5 220.14,-98.5 214.14,-104.5 208.14,-104.5 208.14,-104.5 178.14,-104.5 178.14,-104.5 172.14,-104.5 166.14,-98.5 166.14,-92.5 166.14,-92.5 166.14,-80.5 166.14,-80.5 166.14,-74.5 172.14,-68.5 178.14,-68.5"/>
<text text-anchor="middle" x="193.14" y="-82.8" font-family="Times,serif" font-size="14.00">Source</text>
</a>
</g>
</g>
<!-- AssertedDistribution -->
<g id="node7" class="node">
<title>AssertedDistribution</title>
<g id="a_node7"><a xlink:href="https://rdoc.taxonworks.org/AssertedDistribution.html" xlink:title="AssertedDistribution" target="_top">
<path fill="#fedcba" stroke="#dddeee" d="M176.64,-428.5C176.64,-428.5 281.64,-428.5 281.64,-428.5 287.64,-428.5 293.64,-434.5 293.64,-440.5 293.64,-440.5 293.64,-452.5 293.64,-452.5 293.64,-458.5 287.64,-464.5 281.64,-464.5 281.64,-464.5 176.64,-464.5 176.64,-464.5 170.64,-464.5 164.64,-458.5 164.64,-452.5 164.64,-452.5 164.64,-440.5 164.64,-440.5 164.64,-434.5 170.64,-428.5 176.64,-428.5"/>
<text text-anchor="middle" x="229.14" y="-442.8" font-family="Times,serif" font-size="14.00">AssertedDistribution</text>
</a>
</g>
</g>
<!-- BiologicalAssociation -->
<g id="node8" class="node">
<title>BiologicalAssociation</title>
<g id="a_node8"><a xlink:href="https://rdoc.taxonworks.org/BiologicalAssociation.html" xlink:title="BiologicalAssociation" target="_top">
<path fill="#fedcba" stroke="#dddeee" d="M388.64,-212.5C388.64,-212.5 501.64,-212.5 501.64,-212.5 507.64,-212.5 513.64,-218.5 513.64,-224.5 513.64,-224.5 513.64,-236.5 513.64,-236.5 513.64,-242.5 507.64,-248.5 501.64,-248.5 501.64,-248.5 388.64,-248.5 388.64,-248.5 382.64,-248.5 376.64,-242.5 376.64,-236.5 376.64,-236.5 376.64,-224.5 376.64,-224.5 376.64,-218.5 382.64,-212.5 388.64,-212.5"/>
<text text-anchor="middle" x="445.14" y="-226.8" font-family="Times,serif" font-size="14.00">BiologicalAssociation</text>
</a>
</g>
</g>
<!-- Observation -->
<g id="node9" class="node">
<title>Observation</title>
<g id="a_node9"><a xlink:href="https://rdoc.taxonworks.org/Observation.html" xlink:title="Observation" target="_top">
<path fill="#fedcba" stroke="#dddeee" d="M415.64,-356.5C415.64,-356.5 474.64,-356.5 474.64,-356.5 480.64,-356.5 486.64,-362.5 486.64,-368.5 486.64,-368.5 486.64,-380.5 486.64,-380.5 486.64,-386.5 480.64,-392.5 474.64,-392.5 474.64,-392.5 415.64,-392.5 415.64,-392.5 409.64,-392.5 403.64,-386.5 403.64,-380.5 403.64,-380.5 403.64,-368.5 403.64,-368.5 403.64,-362.5 409.64,-356.5 415.64,-356.5"/>
<text text-anchor="middle" x="445.14" y="-370.8" font-family="Times,serif" font-size="14.00">Observation</text>
</a>
</g>
</g>
<!-- Sequence -->
<g id="node10" class="node">
<title>Sequence</title>
<g id="a_node10"><a xlink:href="https://rdoc.taxonworks.org/Sequence.html" xlink:title="Sequence" target="_top">
<path fill="#fedcba" stroke="#dddeee" d="M423.14,-500.5C423.14,-500.5 467.14,-500.5 467.14,-500.5 473.14,-500.5 479.14,-506.5 479.14,-512.5 479.14,-512.5 479.14,-524.5 479.14,-524.5 479.14,-530.5 473.14,-536.5 467.14,-536.5 467.14,-536.5 423.14,-536.5 423.14,-536.5 417.14,-536.5 411.14,-530.5 411.14,-524.5 411.14,-524.5 411.14,-512.5 411.14,-512.5 411.14,-506.5 417.14,-500.5 423.14,-500.5"/>
<text text-anchor="middle" x="445.14" y="-514.8" font-family="Times,serif" font-size="14.00">Sequence</text>
</a>
</g>
</g>
<!-- ControlledVocabularyTerm -->
<g id="node11" class="node">
<title>ControlledVocabularyTerm</title>
<g id="a_node11"><a xlink:href="https://rdoc.taxonworks.org/ControlledVocabularyTerm.html" xlink:title="ControlledVocabularyTerm" target="_top">
<path fill="#fedcba" stroke="#dddeee" d="M230.14,-572.5C230.14,-572.5 372.14,-572.5 372.14,-572.5 378.14,-572.5 384.14,-578.5 384.14,-584.5 384.14,-584.5 384.14,-596.5 384.14,-596.5 384.14,-602.5 378.14,-608.5 372.14,-608.5 372.14,-608.5 230.14,-608.5 230.14,-608.5 224.14,-608.5 218.14,-602.5 218.14,-596.5 218.14,-596.5 218.14,-584.5 218.14,-584.5 218.14,-578.5 224.14,-572.5 230.14,-572.5"/>
<text text-anchor="middle" x="301.14" y="-586.8" font-family="Times,serif" font-size="14.00">ControlledVocabularyTerm</text>
</a>
</g>
</g>
<!-- Image -->
<g id="node12" class="node">
<title>Image</title>
<g id="a_node12"><a xlink:href="https://rdoc.taxonworks.org/Image.html" xlink:title="Image" target="_top">
<polygon fill="#eeefff" stroke="#dddeee" points="256.14,-680.5 202.14,-680.5 202.14,-644.5 256.14,-644.5 256.14,-680.5"/>
<text text-anchor="middle" x="229.14" y="-658.8" font-family="Times,serif" font-size="14.00">Image</text>
</a>
</g>
</g>
<!-- TypeMaterial -->
<g id="node13" class="node">
<title>TypeMaterial</title>
<g id="a_node13"><a xlink:href="https://rdoc.taxonworks.org/TypeMaterial.html" xlink:title="TypeMaterial" target="_top">
<polygon fill="#eeefff" stroke="#dddeee" points="418.64,-464.5 327.64,-464.5 327.64,-428.5 418.64,-428.5 418.64,-464.5"/>
<text text-anchor="middle" x="373.14" y="-442.8" font-family="Times,serif" font-size="14.00">TypeMaterial</text>
</a>
</g>
</g>
<!-- TaxonDetermination -->
<g id="node14" class="node">
<title>TaxonDetermination</title>
<g id="a_node14"><a xlink:href="https://rdoc.taxonworks.org/TaxonDetermination.html" xlink:title="TaxonDetermination" target="_top">
<polygon fill="#eeefff" stroke="#dddeee" points="294.14,-320.5 164.14,-320.5 164.14,-284.5 294.14,-284.5 294.14,-320.5"/>
<text text-anchor="middle" x="229.14" y="-298.8" font-family="Times,serif" font-size="14.00">TaxonDetermination</text>
</a>
</g>
</g>
<!-- Georeference -->
<g id="node15" class="node">
<title>Georeference</title>
<g id="a_node15"><a xlink:href="https://rdoc.taxonworks.org/Georeference.html" xlink:title="Georeference" target="_top">
<polygon fill="#eeefff" stroke="#dddeee" points="489.64,-104.5 400.64,-104.5 400.64,-68.5 489.64,-68.5 489.64,-104.5"/>
<text text-anchor="middle" x="445.14" y="-82.8" font-family="Times,serif" font-size="14.00">Georeference</text>
</a>
</g>
</g>
<!-- OriginRelationship -->
<g id="node16" class="node">
<title>OriginRelationship</title>
<g id="a_node16"><a xlink:href="https://rdoc.taxonworks.org/OriginRelationship.html" xlink:title="OriginRelationship" target="_top">
<polygon fill="#eeefff" stroke="#dddeee" points="649.14,-680.5 529.14,-680.5 529.14,-644.5 649.14,-644.5 649.14,-680.5"/>
<text text-anchor="middle" x="589.14" y="-658.8" font-family="Times,serif" font-size="14.00">OriginRelationship</text>
</a>
</g>
</g>
<!-- Citation -->
<g id="node19" class="node">
<title>Citation</title>
<g id="a_node17"><a xlink:href="https://rdoc.taxonworks.org/Citation.html" xlink:title="Citation" target="_top">
<ellipse fill="#abcdef" stroke="#dddeee" cx="85.14" cy="-86.5" rx="38.99" ry="18"/>
<text text-anchor="middle" x="85.14" y="-82.8" font-family="Times,serif" font-size="14.00">Citation</text>
</a>
</g>
</g>
<!-- Tag -->
<g id="node20" class="node">
<title>Tag</title>
<g id="a_node18"><a xlink:href="https://rdoc.taxonworks.org/Tag.html" xlink:title="Tag" target="_top">
<ellipse fill="#abcdef" stroke="#dddeee" cx="85.14" cy="-590.5" rx="27" ry="18"/>
<text text-anchor="middle" x="85.14" y="-586.8" font-family="Times,serif" font-size="14.00">Tag</text>
</a>
</g>
</g>
<!-- DataAttribute -->
<g id="node21" class="node">
<title>DataAttribute</title>
<g id="a_node19"><a xlink:href="https://rdoc.taxonworks.org/DataAttribute.html" xlink:title="DataAttribute" target="_top">
<ellipse fill="#abcdef" stroke="#dddeee" cx="85.14" cy="-518.5" rx="59.29" ry="18"/>
<text text-anchor="middle" x="85.14" y="-514.8" font-family="Times,serif" font-size="14.00">DataAttribute</text>
</a>
</g>
</g>
<!-- Note -->
<g id="node22" class="node">
<title>Note</title>
<g id="a_node20"><a xlink:href="https://rdoc.taxonworks.org/Note.html" xlink:title="Note" target="_top">
<ellipse fill="#abcdef" stroke="#dddeee" cx="85.14" cy="-302.5" rx="27.9" ry="18"/>
<text text-anchor="middle" x="85.14" y="-298.8" font-family="Times,serif" font-size="14.00">Note</text>
</a>
</g>
</g>
<!-- Identifier -->
<g id="node23" class="node">
<title>Identifier</title>
<g id="a_node21"><a xlink:href="https://rdoc.taxonworks.org/Identifier.html" xlink:title="Identifier" target="_top">
<ellipse fill="#abcdef" stroke="#dddeee" cx="85.14" cy="-374.5" rx="42.79" ry="18"/>
<text text-anchor="middle" x="85.14" y="-370.8" font-family="Times,serif" font-size="14.00">Identifier</text>
</a>
</g>
</g>
<!-- Confidence -->
<g id="node24" class="node">
<title>Confidence</title>
<g id="a_node22"><a xlink:href="https://rdoc.taxonworks.org/Confidence.html" xlink:title="Confidence" target="_top">
<ellipse fill="#abcdef" stroke="#dddeee" cx="85.14" cy="-446.5" rx="50.89" ry="18"/>
<text text-anchor="middle" x="85.14" y="-442.8" font-family="Times,serif" font-size="14.00">Confidence</text>
</a>
</g>
</g>
<!-- AlternateValue -->
<g id="node25" class="node">
<title>AlternateValue</title>
<g id="a_node23"><a xlink:href="https://rdoc.taxonworks.org/AlternateValue.html" xlink:title="AlternateValue" target="_top">
<ellipse fill="#abcdef" stroke="#dddeee" cx="85.14" cy="-158.5" rx="63.89" ry="18"/>
<text text-anchor="middle" x="85.14" y="-154.8" font-family="Times,serif" font-size="14.00">AlternateValue</text>
</a>
</g>
</g>
<!-- Depiction -->
<g id="node26" class="node">
<title>Depiction</title>
<g id="a_node24"><a xlink:href="https://rdoc.taxonworks.org/Depiction.html" xlink:title="Depiction" target="_top">
<ellipse fill="#abcdef" stroke="#dddeee" cx="85.14" cy="-662.5" rx="45.49" ry="18"/>
<text text-anchor="middle" x="85.14" y="-658.8" font-family="Times,serif" font-size="14.00">Depiction</text>
</a>
</g>
</g>
<!-- ProtocolRelationship -->
<g id="node27" class="node">
<title>ProtocolRelationship</title>
<g id="a_node25"><a xlink:href="https://rdoc.taxonworks.org/ProtocolRelationship.html" xlink:title="ProtocolRelationship" target="_top">
<ellipse fill="#abcdef" stroke="#dddeee" cx="85.14" cy="-230.5" rx="85.29" ry="18"/>
<text text-anchor="middle" x="85.14" y="-226.8" font-family="Times,serif" font-size="14.00">ProtocolRelationship</text>
</a>
</g>
</g>
<!-- Attribution -->
<g id="node28" class="node">
<title>Attribution</title>
<g id="a_node26"><a xlink:href="https://rdoc.taxonworks.org/Attribution.html" xlink:title="Attribution" target="_top">
<ellipse fill="#abcdef" stroke="#dddeee" cx="85.14" cy="-734.5" rx="50.09" ry="18"/>
<text text-anchor="middle" x="85.14" y="-730.8" font-family="Times,serif" font-size="14.00">Attribution</text>
</a>
</g>
</g>
</g>
</svg>
