<?xml version="1.0" encoding="UTF-8" standalone="no"?>
<!DOCTYPE svg PUBLIC "-//W3C//DTD SVG 1.1//EN"
 "http://www.w3.org/Graphics/SVG/1.1/DTD/svg11.dtd">
<!-- Generated by graphviz version 2.50.0 (20211204.2007)
 -->
<!-- Title: Extract Pages: 1 -->
<svg width="812pt" height="1011pt"
 viewBox="0.00 0.00 812.08 1010.50" xmlns="http://www.w3.org/2000/svg" xmlns:xlink="http://www.w3.org/1999/xlink">
<g id="graph0" class="graph" transform="scale(1 1) rotate(0) translate(4 1006.5)">
<title>Extract</title>
<polygon fill="white" stroke="transparent" points="-4,4 -4,-1006.5 808.08,-1006.5 808.08,4 -4,4"/>
<text text-anchor="middle" x="402.04" y="-22.8" font-family="Times,serif" font-size="14.00">Algorithmically generated relationships for Extract based on assertions of &#39;has_many&#39;, &#39;has_one&#39;, &#39;belongs_to&#39;. </text>
<text text-anchor="middle" x="402.04" y="-7.8" font-family="Times,serif" font-size="14.00">Generated 2022&#45;01&#45;25 11:43:14 &#45;0600.</text>
<!-- ProtocolRelationship&#45;&gt;Protocol -->
<g id="edge18" class="edge">
<title>ProtocolRelationship&#45;&gt;Protocol</title>
<path fill="none" stroke="black" d="M170.27,-305.96C183.55,-305.8 196.74,-305.64 208.39,-305.5"/>
<polygon fill="black" stroke="black" points="208.68,-308.99 218.63,-305.37 208.59,-301.99 208.68,-308.99"/>
</g>
<!-- Extract&#45;&gt;DataAttribute -->
<g id="edge2" class="edge">
<title>Extract&#45;&gt;DataAttribute</title>
<path fill="none" stroke="black" d="M211.22,-375.51C198.26,-379.81 183.64,-384.64 170.28,-389 159.34,-392.57 147.59,-396.37 136.44,-399.95"/>
<polygon fill="black" stroke="black" points="135.28,-396.65 126.83,-403.03 137.42,-403.31 135.28,-396.65"/>
</g>
<!-- Extract&#45;&gt;Identifier -->
<g id="edge8" class="edge">
<title>Extract&#45;&gt;Identifier</title>
<path fill="none" stroke="black" d="M206.33,-362.74C185.61,-362.61 160.48,-362.46 138.56,-362.32"/>
<polygon fill="black" stroke="black" points="138.44,-358.82 128.42,-362.26 138.4,-365.82 138.44,-358.82"/>
</g>
<!-- Extract&#45;&gt;ProtocolRelationship -->
<g id="edge17" class="edge">
<title>Extract&#45;&gt;ProtocolRelationship</title>
<path fill="none" stroke="black" d="M212.83,-350.01C199.5,-345.23 184.22,-339.81 170.28,-335 161.1,-331.83 151.34,-328.53 141.83,-325.34"/>
<polygon fill="black" stroke="black" points="142.65,-321.93 132.06,-322.08 140.43,-328.56 142.65,-321.93"/>
</g>
<!-- Extract&#45;&gt;RelatedOriginRelationship -->
<g id="edge19" class="edge">
<title>Extract&#45;&gt;RelatedOriginRelationship</title>
<path fill="none" stroke="black" d="M253.86,-385.11C262.62,-448.96 289.14,-630.49 329.08,-674 369.01,-717.52 432.56,-738.23 484.99,-749.3"/>
<polygon fill="black" stroke="black" points="484.48,-752.77 494.98,-751.32 485.87,-745.91 484.48,-752.77"/>
</g>
<!-- Extract&#45;&gt;OriginRelationship -->
<g id="edge13" class="edge">
<title>Extract&#45;&gt;OriginRelationship</title>
<path fill="none" stroke="black" d="M256.35,-385.04C267.08,-424.7 292.58,-509.98 329.08,-575 340.18,-594.78 355.95,-614.8 369.05,-629.99"/>
<polygon fill="black" stroke="black" points="366.78,-632.7 376.01,-637.9 372.03,-628.08 366.78,-632.7"/>
</g>
<!-- Extract&#45;&gt;ExtractorRole -->
<g id="edge5" class="edge">
<title>Extract&#45;&gt;ExtractorRole</title>
<path fill="none" stroke="black" d="M256.29,-385.13C265.86,-418.72 288.37,-482.71 329.08,-521 332.14,-523.88 335.56,-526.48 339.17,-528.82"/>
<polygon fill="black" stroke="black" points="337.48,-531.88 347.9,-533.81 340.96,-525.81 337.48,-531.88"/>
</g>
<!-- Extract&#45;&gt;PinboardItem -->
<g id="edge16" class="edge">
<title>Extract&#45;&gt;PinboardItem</title>
<path fill="none" stroke="black" d="M262.69,-385.23C276.17,-408.38 300.01,-444.34 329.08,-467 332.25,-469.47 335.68,-471.76 339.25,-473.87"/>
<polygon fill="black" stroke="black" points="337.88,-477.1 348.35,-478.74 341.18,-470.93 337.88,-477.1"/>
</g>
<!-- Extract&#45;&gt;Role -->
<g id="edge20" class="edge">
<title>Extract&#45;&gt;Role</title>
<path fill="none" stroke="black" d="M276.16,-380.8C291.18,-390.89 310.78,-403.39 329.08,-413 338.03,-417.7 347.99,-422.22 357.33,-426.17"/>
<polygon fill="black" stroke="black" points="356.19,-429.49 366.77,-430.07 358.86,-423.02 356.19,-429.49"/>
</g>
<!-- Extract&#45;&gt;VerifierRole -->
<g id="edge22" class="edge">
<title>Extract&#45;&gt;VerifierRole</title>
<path fill="none" stroke="black" d="M293.02,-369.84C308.35,-372.32 325.83,-375.14 341.85,-377.73"/>
<polygon fill="black" stroke="black" points="341.69,-381.25 352.13,-379.39 342.81,-374.34 341.69,-381.25"/>
</g>
<!-- Extract&#45;&gt;Creator -->
<g id="edge24" class="edge">
<title>Extract&#45;&gt;Creator</title>
<path fill="none" stroke="black" stroke-dasharray="5,2" d="M303.11,-352.9C345.31,-344.65 406.1,-332.53 459.08,-321 489.06,-314.48 523.27,-306.4 546.62,-300.79"/>
<polygon fill="black" stroke="black" points="302.21,-349.51 293.07,-354.85 303.55,-356.38 302.21,-349.51"/>
</g>
<!-- Extract&#45;&gt;Project -->
<g id="edge25" class="edge">
<title>Extract&#45;&gt;Project</title>
<path fill="none" stroke="black" stroke-dasharray="5,2" d="M291.17,-343.38C315.22,-331.73 345.05,-317.27 366.21,-307.02"/>
<polygon fill="black" stroke="black" points="289.4,-340.35 281.93,-347.86 292.46,-346.65 289.4,-340.35"/>
</g>
<!-- Extract&#45;&gt;Repository -->
<g id="edge26" class="edge">
<title>Extract&#45;&gt;Repository</title>
<path fill="none" stroke="black" stroke-dasharray="5,2" d="M285.78,-339.31C288.37,-336.98 290.84,-334.53 293.08,-332 314.92,-307.23 304.51,-289.07 329.08,-267 336.7,-260.15 346.32,-254.87 355.76,-250.88"/>
<polygon fill="black" stroke="black" points="283.22,-336.88 277.73,-345.95 287.67,-342.28 283.22,-336.88"/>
</g>
<!-- Extract&#45;&gt;Updater -->
<g id="edge27" class="edge">
<title>Extract&#45;&gt;Updater</title>
<path fill="none" stroke="black" stroke-dasharray="5,2" d="M286.59,-339.6C288.98,-337.22 291.18,-334.68 293.08,-332 325.03,-286.92 284.71,-245.93 329.08,-213 451.65,-122.02 648.46,-230.52 719.98,-275.88"/>
<polygon fill="black" stroke="black" points="284.2,-337.04 279.02,-346.28 288.83,-342.29 284.2,-337.04"/>
</g>
<!-- Extract&#45;&gt;Container -->
<g id="edge28" class="edge">
<title>Extract&#45;&gt;Container</title>
<path fill="none" stroke="black" stroke-dasharray="1,5" d="M286.77,-339.73C289.12,-337.31 291.26,-334.73 293.08,-332 331.47,-274.16 285.97,-234.42 329.08,-180 336.71,-170.36 348.01,-163.39 359,-158.47"/>
<polygon fill="black" stroke="black" points="284.38,-337.17 279.27,-346.45 289.06,-342.38 284.38,-337.17"/>
</g>
<!-- Extract&#45;&gt;ContainerItem -->
<g id="edge29" class="edge">
<title>Extract&#45;&gt;ContainerItem</title>
<path fill="none" stroke="black" stroke-dasharray="1,5" d="M286.97,-339.85C289.27,-337.41 291.35,-334.79 293.08,-332 343.14,-251.11 256.37,-182.35 329.08,-121 388.72,-70.67 487.64,-105.55 539.85,-129.92"/>
<polygon fill="black" stroke="black" points="284.57,-337.3 279.55,-346.63 289.29,-342.47 284.57,-337.3"/>
</g>
<!-- Extract&#45;&gt;ParentContainerItem -->
<g id="edge30" class="edge">
<title>Extract&#45;&gt;ParentContainerItem</title>
<path fill="none" stroke="black" stroke-dasharray="1,5" d="M287.04,-339.89C289.32,-337.44 291.38,-334.81 293.08,-332 349.71,-238.15 264.78,-176.78 329.08,-88 333.01,-82.57 338.13,-78 343.77,-74.18"/>
<polygon fill="black" stroke="black" points="284.64,-337.34 279.64,-346.69 289.38,-342.5 284.64,-337.34"/>
</g>
<!-- RelatedOriginRelationship&#45;&gt;CollectionObject -->
<g id="edge1" class="edge">
<title>RelatedOriginRelationship&#45;&gt;CollectionObject</title>
<path fill="none" stroke="black" d="M583.41,-784.1C598.12,-820.99 636.07,-905.69 692.08,-957 693.2,-958.03 694.38,-959.03 695.59,-960.01"/>
<polygon fill="black" stroke="black" points="693.86,-963.07 704.05,-965.97 697.9,-957.35 693.86,-963.07"/>
</g>
<!-- RelatedOriginRelationship&#45;&gt;Otu -->
<g id="edge15" class="edge">
<title>RelatedOriginRelationship&#45;&gt;Otu</title>
<path fill="none" stroke="black" d="M588.58,-784.15C607.76,-812.1 647.73,-866.08 692.08,-901 698.04,-905.69 704.91,-909.93 711.73,-913.61"/>
<polygon fill="black" stroke="black" points="710.41,-916.87 720.91,-918.27 713.58,-910.62 710.41,-916.87"/>
</g>
<!-- RelatedOriginRelationship&#45;&gt;Extract -->
<g id="edge7" class="edge">
<title>RelatedOriginRelationship&#45;&gt;Extract</title>
<path fill="none" stroke="black" d="M494.98,-766.39C440.85,-758.81 371.59,-738.32 329.08,-692 289.45,-648.82 263.03,-469.73 254.07,-395.36"/>
<polygon fill="black" stroke="black" points="257.51,-394.7 252.87,-385.18 250.56,-395.52 257.51,-394.7"/>
</g>
<!-- RelatedOriginRelationship&#45;&gt;OriginExtract -->
<g id="edge9" class="edge">
<title>RelatedOriginRelationship&#45;&gt;OriginExtract</title>
<path fill="none" stroke="black" d="M600.19,-784.19C623.03,-801.4 658.98,-827.43 692.08,-847 694.4,-848.37 696.8,-849.74 699.25,-851.09"/>
<polygon fill="black" stroke="black" points="697.74,-854.25 708.21,-855.86 701.03,-848.07 697.74,-854.25"/>
</g>
<!-- RelatedOriginRelationship&#45;&gt;OriginLot -->
<g id="edge10" class="edge">
<title>RelatedOriginRelationship&#45;&gt;OriginLot</title>
<path fill="none" stroke="black" d="M633.82,-784.13C656.29,-791.25 681.67,-799.29 702.71,-805.95"/>
<polygon fill="black" stroke="black" points="701.76,-809.32 712.35,-809 703.87,-802.64 701.76,-809.32"/>
</g>
<!-- RelatedOriginRelationship&#45;&gt;OriginOtu -->
<g id="edge11" class="edge">
<title>RelatedOriginRelationship&#45;&gt;OriginOtu</title>
<path fill="none" stroke="black" d="M656.33,-766C671.81,-766 687.52,-766 701.42,-766"/>
<polygon fill="black" stroke="black" points="701.67,-769.5 711.67,-766 701.67,-762.5 701.67,-769.5"/>
</g>
<!-- RelatedOriginRelationship&#45;&gt;OriginRangedLot -->
<g id="edge12" class="edge">
<title>RelatedOriginRelationship&#45;&gt;OriginRangedLot</title>
<path fill="none" stroke="black" d="M633.82,-747.87C649.37,-742.95 666.31,-737.58 682.23,-732.54"/>
<polygon fill="black" stroke="black" points="683.52,-735.8 692,-729.44 681.41,-729.13 683.52,-735.8"/>
</g>
<!-- RelatedOriginRelationship&#45;&gt;OriginSpecimen -->
<g id="edge14" class="edge">
<title>RelatedOriginRelationship&#45;&gt;OriginSpecimen</title>
<path fill="none" stroke="black" d="M641.79,-747.95C646.84,-745.34 651.68,-742.37 656.08,-739 678.95,-721.43 670.38,-704.01 692.08,-685 693.37,-683.87 694.72,-682.77 696.11,-681.71"/>
<polygon fill="black" stroke="black" points="698.18,-684.53 704.48,-676.02 694.24,-678.75 698.18,-684.53"/>
</g>
<!-- OriginRelationship&#45;&gt;Sequence -->
<g id="edge21" class="edge">
<title>OriginRelationship&#45;&gt;Sequence</title>
<path fill="none" stroke="black" d="M453.85,-674.01C479.26,-681.79 508.44,-690.74 531.75,-697.88"/>
<polygon fill="black" stroke="black" points="530.77,-701.24 541.35,-700.82 532.82,-694.54 530.77,-701.24"/>
</g>
<!-- OriginRelationship&#45;&gt;RelatedOriginRelationship -->
<!-- OriginRelationship&#45;&gt;DerivedExtract -->
<g id="edge3" class="edge">
<title>OriginRelationship&#45;&gt;DerivedExtract</title>
<path fill="none" stroke="black" d="M454.35,-656C474.09,-656 496.06,-656 515.77,-656"/>
<polygon fill="black" stroke="black" points="515.84,-659.5 525.84,-656 515.84,-652.5 515.84,-659.5"/>
</g>
<!-- OriginRelationship&#45;&gt;DerivedSequence -->
<g id="edge4" class="edge">
<title>OriginRelationship&#45;&gt;DerivedSequence</title>
<path fill="none" stroke="black" d="M454.35,-638.17C472.01,-632.86 491.46,-627 509.48,-621.58"/>
<polygon fill="black" stroke="black" points="510.75,-624.86 519.32,-618.62 508.73,-618.15 510.75,-624.86"/>
</g>
<!-- ExtractorRole&#45;&gt;Extractor -->
<g id="edge6" class="edge">
<title>ExtractorRole&#45;&gt;Extractor</title>
<path fill="none" stroke="black" d="M440.37,-548C468.46,-548 504.32,-548 531.9,-548"/>
<polygon fill="black" stroke="black" points="532.04,-551.5 542.04,-548 532.04,-544.5 532.04,-551.5"/>
</g>
<!-- Role&#45;&gt;Verifier -->
<!-- VerifierRole&#45;&gt;Verifier -->
<g id="edge23" class="edge">
<title>VerifierRole&#45;&gt;Verifier</title>
<path fill="none" stroke="black" d="M435.81,-392.13C466.16,-396.69 507.29,-402.88 536.89,-407.33"/>
<polygon fill="black" stroke="black" points="536.43,-410.8 546.84,-408.83 537.47,-403.88 536.43,-410.8"/>
</g>
<!-- Creator&#45;&gt;Updater -->
<!-- Project&#45;&gt;Creator -->
<!-- Container&#45;&gt;ContainerItem -->
<!-- DataAttribute -->
<g id="node1" class="node">
<title>DataAttribute</title>
<g id="a_node1"><a xlink:href="/develop/Data/models.html#data-attribute" xlink:title="DataAttribute" target="_top">
<ellipse fill="#abcdef" stroke="#dddeee" cx="85.14" cy="-416" rx="59.29" ry="18"/>
<text text-anchor="middle" x="85.14" y="-412.3" font-family="Times,serif" font-size="14.00">DataAttribute</text>
</a>
</g>
</g>
<!-- Identifier -->
<g id="node2" class="node">
<title>Identifier</title>
<g id="a_node2"><a xlink:href="/develop/Data/models.html#identifier" xlink:title="Identifier" target="_top">
<ellipse fill="#abcdef" stroke="#dddeee" cx="85.14" cy="-362" rx="42.79" ry="18"/>
<text text-anchor="middle" x="85.14" y="-358.3" font-family="Times,serif" font-size="14.00">Identifier</text>
</a>
</g>
</g>
<!-- ProtocolRelationship -->
<g id="node3" class="node">
<title>ProtocolRelationship</title>
<g id="a_node3"><a xlink:href="/develop/Data/models.html#protocol-relationship" xlink:title="ProtocolRelationship" target="_top">
<ellipse fill="#abcdef" stroke="#dddeee" cx="85.14" cy="-307" rx="85.29" ry="18"/>
<text text-anchor="middle" x="85.14" y="-303.3" font-family="Times,serif" font-size="14.00">ProtocolRelationship</text>
</a>
</g>
</g>
<!-- CollectionObject -->
<g id="node4" class="node">
<title>CollectionObject</title>
<g id="a_node4"><a xlink:href="/develop/Data/models.html#collection-object" xlink:title="CollectionObject" target="_top">
<path fill="#fedcba" stroke="#dddeee" d="M705.58,-966C705.58,-966 790.58,-966 790.58,-966 796.58,-966 802.58,-972 802.58,-978 802.58,-978 802.58,-990 802.58,-990 802.58,-996 796.58,-1002 790.58,-1002 790.58,-1002 705.58,-1002 705.58,-1002 699.58,-1002 693.58,-996 693.58,-990 693.58,-990 693.58,-978 693.58,-978 693.58,-972 699.58,-966 705.58,-966"/>
<text text-anchor="middle" x="748.08" y="-980.3" font-family="Times,serif" font-size="14.00">CollectionObject</text>
</a>
</g>
</g>
<!-- Otu -->
<g id="node5" class="node">
<title>Otu</title>
<g id="a_node5"><a xlink:href="/develop/Data/models.html#otu" xlink:title="Otu" target="_top">
<path fill="#fedcba" stroke="#dddeee" d="M733.08,-911C733.08,-911 763.08,-911 763.08,-911 769.08,-911 775.08,-917 775.08,-923 775.08,-923 775.08,-935 775.08,-935 775.08,-941 769.08,-947 763.08,-947 763.08,-947 733.08,-947 733.08,-947 727.08,-947 721.08,-941 721.08,-935 721.08,-935 721.08,-923 721.08,-923 721.08,-917 727.08,-911 733.08,-911"/>
<text text-anchor="middle" x="748.08" y="-925.3" font-family="Times,serif" font-size="14.00">Otu</text>
</a>
</g>
</g>
<!-- Sequence -->
<g id="node6" class="node">
<title>Sequence</title>
<g id="a_node6"><a xlink:href="/develop/Data/models.html#sequence" xlink:title="Sequence" target="_top">
<path fill="#fedcba" stroke="#dddeee" d="M553.58,-693C553.58,-693 597.58,-693 597.58,-693 603.58,-693 609.58,-699 609.58,-705 609.58,-705 609.58,-717 609.58,-717 609.58,-723 603.58,-729 597.58,-729 597.58,-729 553.58,-729 553.58,-729 547.58,-729 541.58,-723 541.58,-717 541.58,-717 541.58,-705 541.58,-705 541.58,-699 547.58,-693 553.58,-693"/>
<text text-anchor="middle" x="575.58" y="-707.3" font-family="Times,serif" font-size="14.00">Sequence</text>
</a>
</g>
</g>
<!-- Extract -->
<g id="node7" class="node">
<title>Extract</title>
<g id="a_node7"><a xlink:href="/develop/Data/models.html#extract" xlink:title="Extract" target="_top">
<polygon fill="#cdefab" stroke="#dedede" points="288.98,-355.54 288.98,-370.46 265.96,-381 233.4,-381 210.38,-370.46 210.38,-355.54 233.4,-345 265.96,-345 288.98,-355.54"/>
<polygon fill="none" stroke="#dedede" points="292.97,-352.97 292.97,-373.03 266.83,-385 232.53,-385 206.39,-373.03 206.39,-352.97 232.53,-341 266.83,-341 292.97,-352.97"/>
<text text-anchor="middle" x="249.68" y="-359.3" font-family="Times,serif" font-size="14.00">Extract</text>
</a>
</g>
</g>
<!-- RelatedOriginRelationship -->
<g id="node8" class="node">
<title>RelatedOriginRelationship</title>
<g id="a_node8"><a xlink:href="/develop/Data/models.html#related-origin-relationship" xlink:title="RelatedOriginRelationship" target="_top">
<polygon fill="#eeefff" stroke="#dddeee" points="656.08,-784 495.08,-784 495.08,-748 656.08,-748 656.08,-784"/>
<text text-anchor="middle" x="575.58" y="-762.3" font-family="Times,serif" font-size="14.00">RelatedOriginRelationship</text>
</a>
</g>
</g>
<!-- OriginRelationship -->
<g id="node9" class="node">
<title>OriginRelationship</title>
<g id="a_node9"><a xlink:href="/develop/Data/models.html#origin-relationship" xlink:title="OriginRelationship" target="_top">
<polygon fill="#eeefff" stroke="#dddeee" points="454.08,-674 334.08,-674 334.08,-638 454.08,-638 454.08,-674"/>
<text text-anchor="middle" x="394.08" y="-652.3" font-family="Times,serif" font-size="14.00">OriginRelationship</text>
</a>
</g>
</g>
<!-- DerivedExtract -->
<g id="node10" class="node">
<title>DerivedExtract</title>
<g id="a_node10"><a xlink:href="/develop/Data/models.html#derived-extract" xlink:title="DerivedExtract" target="_top">
<polygon fill="#eeefff" stroke="#dddeee" points="625.08,-674 526.08,-674 526.08,-638 625.08,-638 625.08,-674"/>
<text text-anchor="middle" x="575.58" y="-652.3" font-family="Times,serif" font-size="14.00">DerivedExtract</text>
</a>
</g>
</g>
<!-- DerivedSequence -->
<g id="node11" class="node">
<title>DerivedSequence</title>
<g id="a_node11"><a xlink:href="/develop/Data/models.html#derived-sequence" xlink:title="DerivedSequence" target="_top">
<polygon fill="#eeefff" stroke="#dddeee" points="631.58,-620 519.58,-620 519.58,-584 631.58,-584 631.58,-620"/>
<text text-anchor="middle" x="575.58" y="-598.3" font-family="Times,serif" font-size="14.00">DerivedSequence</text>
</a>
</g>
</g>
<!-- ExtractorRole -->
<g id="node12" class="node">
<title>ExtractorRole</title>
<g id="a_node12"><a xlink:href="/develop/Data/models.html#extractor-role" xlink:title="ExtractorRole" target="_top">
<polygon fill="#eeefff" stroke="#dddeee" points="440.08,-566 348.08,-566 348.08,-530 440.08,-530 440.08,-566"/>
<text text-anchor="middle" x="394.08" y="-544.3" font-family="Times,serif" font-size="14.00">ExtractorRole</text>
</a>
</g>
</g>
<!-- Extractor -->
<g id="node13" class="node">
<title>Extractor</title>
<g id="a_node13"><a xlink:href="/develop/Data/models.html#extractor" xlink:title="Extractor" target="_top">
<polygon fill="#eeefff" stroke="#dddeee" points="609.08,-566 542.08,-566 542.08,-530 609.08,-530 609.08,-566"/>
<text text-anchor="middle" x="575.58" y="-544.3" font-family="Times,serif" font-size="14.00">Extractor</text>
</a>
</g>
</g>
<!-- OriginExtract -->
<g id="node14" class="node">
<title>OriginExtract</title>
<g id="a_node14"><a xlink:href="/develop/Data/models.html#origin-extract" xlink:title="OriginExtract" target="_top">
<polygon fill="#eeefff" stroke="#dddeee" points="793.58,-892 702.58,-892 702.58,-856 793.58,-856 793.58,-892"/>
<text text-anchor="middle" x="748.08" y="-870.3" font-family="Times,serif" font-size="14.00">OriginExtract</text>
</a>
</g>
</g>
<!-- OriginLot -->
<g id="node15" class="node">
<title>OriginLot</title>
<g id="a_node15"><a xlink:href="/develop/Data/models.html#origin-lot" xlink:title="OriginLot" target="_top">
<polygon fill="#eeefff" stroke="#dddeee" points="783.58,-838 712.58,-838 712.58,-802 783.58,-802 783.58,-838"/>
<text text-anchor="middle" x="748.08" y="-816.3" font-family="Times,serif" font-size="14.00">OriginLot</text>
</a>
</g>
</g>
<!-- OriginOtu -->
<g id="node16" class="node">
<title>OriginOtu</title>
<g id="a_node16"><a xlink:href="/develop/Data/models.html#origin-otu" xlink:title="OriginOtu" target="_top">
<polygon fill="#eeefff" stroke="#dddeee" points="784.08,-784 712.08,-784 712.08,-748 784.08,-748 784.08,-784"/>
<text text-anchor="middle" x="748.08" y="-762.3" font-family="Times,serif" font-size="14.00">OriginOtu</text>
</a>
</g>
</g>
<!-- OriginRangedLot -->
<g id="node17" class="node">
<title>OriginRangedLot</title>
<g id="a_node17"><a xlink:href="/develop/Data/models.html#origin-ranged-lot" xlink:title="OriginRangedLot" target="_top">
<polygon fill="#eeefff" stroke="#dddeee" points="804.08,-730 692.08,-730 692.08,-694 804.08,-694 804.08,-730"/>
<text text-anchor="middle" x="748.08" y="-708.3" font-family="Times,serif" font-size="14.00">OriginRangedLot</text>
</a>
</g>
</g>
<!-- OriginSpecimen -->
<g id="node18" class="node">
<title>OriginSpecimen</title>
<g id="a_node18"><a xlink:href="/develop/Data/models.html#origin-specimen" xlink:title="OriginSpecimen" target="_top">
<polygon fill="#eeefff" stroke="#dddeee" points="801.08,-676 695.08,-676 695.08,-640 801.08,-640 801.08,-676"/>
<text text-anchor="middle" x="748.08" y="-654.3" font-family="Times,serif" font-size="14.00">OriginSpecimen</text>
</a>
</g>
</g>
<!-- PinboardItem -->
<g id="node19" class="node">
<title>PinboardItem</title>
<g id="a_node19"><a xlink:href="/develop/Data/models.html#pinboard-item" xlink:title="PinboardItem" target="_top">
<polygon fill="#eeefff" stroke="#dddeee" points="439.58,-512 348.58,-512 348.58,-476 439.58,-476 439.58,-512"/>
<text text-anchor="middle" x="394.08" y="-490.3" font-family="Times,serif" font-size="14.00">PinboardItem</text>
</a>
</g>
</g>
<!-- Protocol -->
<g id="node20" class="node">
<title>Protocol</title>
<g id="a_node20"><a xlink:href="/develop/Data/models.html#protocol" xlink:title="Protocol" target="_top">
<polygon fill="#eeefff" stroke="#dddeee" points="280.68,-323 218.68,-323 218.68,-287 280.68,-287 280.68,-323"/>
<text text-anchor="middle" x="249.68" y="-301.3" font-family="Times,serif" font-size="14.00">Protocol</text>
</a>
</g>
</g>
<!-- Role -->
<g id="node21" class="node">
<title>Role</title>
<g id="a_node21"><a xlink:href="/develop/Data/models.html#role" xlink:title="Role" target="_top">
<polygon fill="#eeefff" stroke="#dddeee" points="421.08,-458 367.08,-458 367.08,-422 421.08,-422 421.08,-458"/>
<text text-anchor="middle" x="394.08" y="-436.3" font-family="Times,serif" font-size="14.00">Role</text>
</a>
</g>
</g>
<!-- VerifierRole -->
<g id="node22" class="node">
<title>VerifierRole</title>
<g id="a_node22"><a xlink:href="/develop/Data/models.html#verifier-role" xlink:title="VerifierRole" target="_top">
<polygon fill="#eeefff" stroke="#dddeee" points="435.58,-404 352.58,-404 352.58,-368 435.58,-368 435.58,-404"/>
<text text-anchor="middle" x="394.08" y="-382.3" font-family="Times,serif" font-size="14.00">VerifierRole</text>
</a>
</g>
</g>
<!-- Verifier -->
<g id="node23" class="node">
<title>Verifier</title>
<g id="a_node23"><a xlink:href="/develop/Data/models.html#verifier" xlink:title="Verifier" target="_top">
<polygon fill="#eeefff" stroke="#dddeee" points="604.08,-431 547.08,-431 547.08,-395 604.08,-395 604.08,-431"/>
<text text-anchor="middle" x="575.58" y="-409.3" font-family="Times,serif" font-size="14.00">Verifier</text>
</a>
</g>
</g>
<!-- Creator -->
<g id="node24" class="node">
<title>Creator</title>
<g id="a_node24"><a xlink:href="/develop/Data/models.html#creator" xlink:title="Creator" target="_top">
<polygon fill="#eeefff" stroke="#dddeee" points="604.08,-312 547.08,-312 547.08,-276 604.08,-276 604.08,-312"/>
<text text-anchor="middle" x="575.58" y="-290.3" font-family="Times,serif" font-size="14.00">Creator</text>
</a>
</g>
</g>
<!-- Project -->
<g id="node25" class="node">
<title>Project</title>
<g id="a_node25"><a xlink:href="/develop/Data/models.html#project" xlink:title="Project" target="_top">
<polygon fill="#eeefff" stroke="#dddeee" points="421.58,-312 366.58,-312 366.58,-276 421.58,-276 421.58,-312"/>
<text text-anchor="middle" x="394.08" y="-290.3" font-family="Times,serif" font-size="14.00">Project</text>
</a>
</g>
</g>
<!-- Repository -->
<g id="node26" class="node">
<title>Repository</title>
<g id="a_node26"><a xlink:href="/develop/Data/models.html#repository" xlink:title="Repository" target="_top">
<polygon fill="#eeefff" stroke="#dddeee" points="432.08,-258 356.08,-258 356.08,-222 432.08,-222 432.08,-258"/>
<text text-anchor="middle" x="394.08" y="-236.3" font-family="Times,serif" font-size="14.00">Repository</text>
</a>
</g>
</g>
<!-- Updater -->
<g id="node27" class="node">
<title>Updater</title>
<g id="a_node27"><a xlink:href="/develop/Data/models.html#updater" xlink:title="Updater" target="_top">
<polygon fill="#eeefff" stroke="#dddeee" points="778.08,-312 718.08,-312 718.08,-276 778.08,-276 778.08,-312"/>
<text text-anchor="middle" x="748.08" y="-290.3" font-family="Times,serif" font-size="14.00">Updater</text>
</a>
</g>
</g>
<!-- Container -->
<g id="node28" class="node">
<title>Container</title>
<g id="a_node28"><a xlink:href="/develop/Data/models.html#container" xlink:title="Container" target="_top">
<polygon fill="#eeefff" stroke="#dddeee" points="429.08,-166 359.08,-166 359.08,-130 429.08,-130 429.08,-166"/>
<text text-anchor="middle" x="394.08" y="-144.3" font-family="Times,serif" font-size="14.00">Container</text>
</a>
</g>
</g>
<!-- ContainerItem -->
<g id="node29" class="node">
<title>ContainerItem</title>
<g id="a_node29"><a xlink:href="/develop/Data/models.html#container-item" xlink:title="ContainerItem" target="_top">
<polygon fill="#eeefff" stroke="#dddeee" points="623.08,-166 528.08,-166 528.08,-130 623.08,-130 623.08,-166"/>
<text text-anchor="middle" x="575.58" y="-144.3" font-family="Times,serif" font-size="14.00">ContainerItem</text>
</a>
</g>
</g>
<!-- ParentContainerItem -->
<g id="node30" class="node">
<title>ParentContainerItem</title>
<g id="a_node30"><a xlink:href="/develop/Data/models.html#parent-container-item" xlink:title="ParentContainerItem" target="_top">
<polygon fill="#eeefff" stroke="#dddeee" points="459.08,-74 329.08,-74 329.08,-38 459.08,-38 459.08,-74"/>
<text text-anchor="middle" x="394.08" y="-52.3" font-family="Times,serif" font-size="14.00">ParentContainerItem</text>
</a>
</g>
</g>
</g>
</svg>
