<?xml version="1.0" encoding="UTF-8" standalone="no"?>
<!DOCTYPE svg PUBLIC "-//W3C//DTD SVG 1.1//EN"
 "http://www.w3.org/Graphics/SVG/1.1/DTD/svg11.dtd">
<!-- Generated by graphviz version 2.50.0 (20211204.2007)
 -->
<!-- Title: Extract Pages: 1 -->
<svg width="812pt" height="973pt"
 viewBox="0.00 0.00 812.08 972.50" xmlns="http://www.w3.org/2000/svg" xmlns:xlink="http://www.w3.org/1999/xlink">
<g id="graph0" class="graph" transform="scale(1 1) rotate(0) translate(4 968.5)">
<title>Extract</title>
<polygon fill="white" stroke="transparent" points="-4,4 -4,-968.5 808.08,-968.5 808.08,4 -4,4"/>
<!-- ProtocolRelationship&#45;&gt;Protocol -->
<g id="edge18" class="edge">
<title>ProtocolRelationship&#45;&gt;Protocol</title>
<path fill="none" stroke="black" stroke-dasharray="1,5" d="M170.27,-267.96C183.55,-267.8 196.74,-267.64 208.39,-267.5"/>
<polygon fill="black" stroke="black" points="208.68,-270.99 218.63,-267.37 208.59,-263.99 208.68,-270.99"/>
</g>
<!-- Extract&#45;&gt;DataAttribute -->
<g id="edge2" class="edge">
<title>Extract&#45;&gt;DataAttribute</title>
<path fill="none" stroke="black" d="M211.22,-337.51C198.26,-341.81 183.64,-346.64 170.28,-351 159.34,-354.57 147.59,-358.37 136.44,-361.95"/>
<polygon fill="black" stroke="black" points="135.28,-358.65 126.83,-365.03 137.42,-365.31 135.28,-358.65"/>
</g>
<!-- Extract&#45;&gt;Identifier -->
<g id="edge8" class="edge">
<title>Extract&#45;&gt;Identifier</title>
<path fill="none" stroke="black" d="M206.33,-324.74C185.61,-324.61 160.48,-324.46 138.56,-324.32"/>
<polygon fill="black" stroke="black" points="138.44,-320.82 128.42,-324.26 138.4,-327.82 138.44,-320.82"/>
</g>
<!-- Extract&#45;&gt;ProtocolRelationship -->
<g id="edge17" class="edge">
<title>Extract&#45;&gt;ProtocolRelationship</title>
<path fill="none" stroke="black" d="M212.83,-312.01C199.5,-307.23 184.22,-301.81 170.28,-297 161.1,-293.83 151.34,-290.53 141.83,-287.34"/>
<polygon fill="black" stroke="black" points="142.65,-283.93 132.06,-284.08 140.43,-290.56 142.65,-283.93"/>
</g>
<!-- Extract&#45;&gt;RelatedOriginRelationship -->
<g id="edge19" class="edge">
<title>Extract&#45;&gt;RelatedOriginRelationship</title>
<path fill="none" stroke="black" d="M253.86,-347.11C262.62,-410.96 289.14,-592.49 329.08,-636 369.01,-679.52 432.56,-700.23 484.99,-711.3"/>
<polygon fill="black" stroke="black" points="484.48,-714.77 494.98,-713.32 485.87,-707.91 484.48,-714.77"/>
</g>
<!-- Extract&#45;&gt;OriginRelationship -->
<g id="edge13" class="edge">
<title>Extract&#45;&gt;OriginRelationship</title>
<path fill="none" stroke="black" d="M256.35,-347.04C267.08,-386.7 292.58,-471.98 329.08,-537 340.18,-556.78 355.95,-576.8 369.05,-591.99"/>
<polygon fill="black" stroke="black" points="366.78,-594.7 376.01,-599.9 372.03,-590.08 366.78,-594.7"/>
</g>
<!-- Extract&#45;&gt;ExtractorRole -->
<g id="edge5" class="edge">
<title>Extract&#45;&gt;ExtractorRole</title>
<path fill="none" stroke="black" d="M256.29,-347.13C265.86,-380.72 288.37,-444.71 329.08,-483 332.14,-485.88 335.56,-488.48 339.17,-490.82"/>
<polygon fill="black" stroke="black" points="337.48,-493.88 347.9,-495.81 340.96,-487.81 337.48,-493.88"/>
</g>
<!-- Extract&#45;&gt;PinboardItem -->
<g id="edge16" class="edge">
<title>Extract&#45;&gt;PinboardItem</title>
<path fill="none" stroke="black" d="M262.69,-347.23C276.17,-370.38 300.01,-406.34 329.08,-429 332.25,-431.47 335.68,-433.76 339.25,-435.87"/>
<polygon fill="black" stroke="black" points="337.88,-439.1 348.35,-440.74 341.18,-432.93 337.88,-439.1"/>
</g>
<!-- Extract&#45;&gt;Role -->
<g id="edge20" class="edge">
<title>Extract&#45;&gt;Role</title>
<path fill="none" stroke="black" d="M276.16,-342.8C291.18,-352.89 310.78,-365.39 329.08,-375 338.03,-379.7 347.99,-384.22 357.33,-388.17"/>
<polygon fill="black" stroke="black" points="356.19,-391.49 366.77,-392.07 358.86,-385.02 356.19,-391.49"/>
</g>
<!-- Extract&#45;&gt;VerifierRole -->
<g id="edge22" class="edge">
<title>Extract&#45;&gt;VerifierRole</title>
<path fill="none" stroke="black" d="M293.02,-331.84C308.35,-334.32 325.83,-337.14 341.85,-339.73"/>
<polygon fill="black" stroke="black" points="341.69,-343.25 352.13,-341.39 342.81,-336.34 341.69,-343.25"/>
</g>
<!-- Extract&#45;&gt;Creator -->
<g id="edge24" class="edge">
<title>Extract&#45;&gt;Creator</title>
<path fill="none" stroke="black" stroke-dasharray="5,2" d="M303.11,-314.9C345.31,-306.65 406.1,-294.53 459.08,-283 489.06,-276.48 523.27,-268.4 546.62,-262.79"/>
<polygon fill="black" stroke="black" points="302.21,-311.51 293.07,-316.85 303.55,-318.38 302.21,-311.51"/>
</g>
<!-- Extract&#45;&gt;Project -->
<g id="edge25" class="edge">
<title>Extract&#45;&gt;Project</title>
<path fill="none" stroke="black" stroke-dasharray="5,2" d="M291.17,-305.38C315.22,-293.73 345.05,-279.27 366.21,-269.02"/>
<polygon fill="black" stroke="black" points="289.4,-302.35 281.93,-309.86 292.46,-308.65 289.4,-302.35"/>
</g>
<!-- Extract&#45;&gt;Repository -->
<g id="edge26" class="edge">
<title>Extract&#45;&gt;Repository</title>
<path fill="none" stroke="black" stroke-dasharray="5,2" d="M285.78,-301.31C288.37,-298.98 290.84,-296.53 293.08,-294 314.92,-269.23 304.51,-251.07 329.08,-229 336.7,-222.15 346.32,-216.87 355.76,-212.88"/>
<polygon fill="black" stroke="black" points="283.22,-298.88 277.73,-307.95 287.67,-304.28 283.22,-298.88"/>
</g>
<!-- Extract&#45;&gt;Updater -->
<g id="edge27" class="edge">
<title>Extract&#45;&gt;Updater</title>
<path fill="none" stroke="black" stroke-dasharray="5,2" d="M286.59,-301.6C288.98,-299.22 291.18,-296.68 293.08,-294 325.03,-248.92 284.71,-207.93 329.08,-175 451.65,-84.02 648.46,-192.52 719.98,-237.88"/>
<polygon fill="black" stroke="black" points="284.2,-299.04 279.02,-308.28 288.83,-304.29 284.2,-299.04"/>
</g>
<!-- Extract&#45;&gt;Container -->
<g id="edge28" class="edge">
<title>Extract&#45;&gt;Container</title>
<path fill="none" stroke="black" stroke-dasharray="1,5" d="M286.77,-301.73C289.12,-299.31 291.26,-296.73 293.08,-294 331.47,-236.16 285.97,-196.42 329.08,-142 334.62,-135 342.11,-129.4 350,-124.98"/>
<polygon fill="none" stroke="black" points="281.95,-311.43 276.6,-305.48 282.56,-300.13 287.9,-306.09 281.95,-311.43"/>
<polyline fill="none" stroke="black" points="285.23,-303.11 286.72,-301.78 "/>
<polygon fill="none" stroke="black" points="357.21,-116.89 360.79,-124.04 353.64,-127.63 350.06,-120.47 357.21,-116.89"/>
<polyline fill="none" stroke="black" points="351.85,-124.05 350.06,-124.95 "/>
</g>
<!-- Extract&#45;&gt;ContainerItem -->
<g id="edge29" class="edge">
<title>Extract&#45;&gt;ContainerItem</title>
<path fill="none" stroke="black" d="M286.97,-301.85C289.27,-299.41 291.35,-296.79 293.08,-294 343.14,-213.11 256.37,-144.35 329.08,-83 385.34,-35.52 476.56,-63.87 530.54,-87.7"/>
<polygon fill="none" stroke="black" points="282.24,-311.58 276.85,-305.67 282.76,-300.28 288.15,-306.19 282.24,-311.58"/>
<polyline fill="none" stroke="black" points="285.45,-303.23 286.93,-301.89 "/>
<polygon fill="none" stroke="black" points="541.5,-88.28 538.19,-95.56 530.91,-92.26 534.22,-84.97 541.5,-88.28"/>
<polyline fill="none" stroke="black" points="532.56,-88.61 530.74,-87.79 "/>
</g>
<!-- Extract&#45;&gt;ParentContainerItem -->
<g id="edge30" class="edge">
<title>Extract&#45;&gt;ParentContainerItem</title>
<path fill="none" stroke="black" stroke-dasharray="1,5" d="M287.04,-301.89C289.32,-299.44 291.38,-296.81 293.08,-294 349.71,-200.15 264.78,-138.78 329.08,-50 331.04,-47.28 333.31,-44.78 335.78,-42.49"/>
<polygon fill="none" stroke="black" points="282.35,-311.63 276.94,-305.74 282.83,-300.33 288.24,-306.22 282.35,-311.63"/>
<polyline fill="none" stroke="black" points="285.54,-303.28 287.01,-301.92 "/>
<polygon fill="none" stroke="black" points="341.29,-33.04 346.25,-39.32 339.97,-44.28 335.01,-38 341.29,-33.04"/>
<polyline fill="none" stroke="black" points="337.49,-41.14 335.92,-42.38 "/>
</g>
<!-- RelatedOriginRelationship&#45;&gt;CollectionObject -->
<g id="edge1" class="edge">
<title>RelatedOriginRelationship&#45;&gt;CollectionObject</title>
<path fill="none" stroke="black" stroke-dasharray="1,5" d="M583.41,-746.1C598.12,-782.99 636.07,-867.69 692.08,-919 693.2,-920.03 694.38,-921.03 695.59,-922.01"/>
<polygon fill="black" stroke="black" points="693.86,-925.07 704.05,-927.97 697.9,-919.35 693.86,-925.07"/>
</g>
<!-- RelatedOriginRelationship&#45;&gt;Otu -->
<g id="edge15" class="edge">
<title>RelatedOriginRelationship&#45;&gt;Otu</title>
<path fill="none" stroke="black" stroke-dasharray="1,5" d="M588.58,-746.15C607.76,-774.1 647.73,-828.08 692.08,-863 698.04,-867.69 704.91,-871.93 711.73,-875.61"/>
<polygon fill="black" stroke="black" points="710.41,-878.87 720.91,-880.27 713.58,-872.62 710.41,-878.87"/>
</g>
<!-- RelatedOriginRelationship&#45;&gt;Extract -->
<g id="edge7" class="edge">
<title>RelatedOriginRelationship&#45;&gt;Extract</title>
<path fill="none" stroke="black" stroke-dasharray="1,5" d="M494.98,-728.39C440.85,-720.81 371.59,-700.32 329.08,-654 289.45,-610.82 263.03,-431.73 254.07,-357.36"/>
<polygon fill="black" stroke="black" points="257.51,-356.7 252.87,-347.18 250.56,-357.52 257.51,-356.7"/>
</g>
<!-- RelatedOriginRelationship&#45;&gt;OriginExtract -->
<g id="edge9" class="edge">
<title>RelatedOriginRelationship&#45;&gt;OriginExtract</title>
<path fill="none" stroke="black" stroke-dasharray="1,5" d="M600.19,-746.19C623.03,-763.4 658.98,-789.43 692.08,-809 694.4,-810.37 696.8,-811.74 699.25,-813.09"/>
<polygon fill="black" stroke="black" points="697.74,-816.25 708.21,-817.86 701.03,-810.07 697.74,-816.25"/>
</g>
<!-- RelatedOriginRelationship&#45;&gt;OriginLot -->
<g id="edge10" class="edge">
<title>RelatedOriginRelationship&#45;&gt;OriginLot</title>
<path fill="none" stroke="black" stroke-dasharray="1,5" d="M633.82,-746.13C656.29,-753.25 681.67,-761.29 702.71,-767.95"/>
<polygon fill="black" stroke="black" points="701.76,-771.32 712.35,-771 703.87,-764.64 701.76,-771.32"/>
</g>
<!-- RelatedOriginRelationship&#45;&gt;OriginOtu -->
<g id="edge11" class="edge">
<title>RelatedOriginRelationship&#45;&gt;OriginOtu</title>
<path fill="none" stroke="black" stroke-dasharray="1,5" d="M656.33,-728C671.81,-728 687.52,-728 701.42,-728"/>
<polygon fill="black" stroke="black" points="701.67,-731.5 711.67,-728 701.67,-724.5 701.67,-731.5"/>
</g>
<!-- RelatedOriginRelationship&#45;&gt;OriginRangedLot -->
<g id="edge12" class="edge">
<title>RelatedOriginRelationship&#45;&gt;OriginRangedLot</title>
<path fill="none" stroke="black" stroke-dasharray="1,5" d="M633.82,-709.87C649.37,-704.95 666.31,-699.58 682.23,-694.54"/>
<polygon fill="black" stroke="black" points="683.52,-697.8 692,-691.44 681.41,-691.13 683.52,-697.8"/>
</g>
<!-- RelatedOriginRelationship&#45;&gt;OriginSpecimen -->
<g id="edge14" class="edge">
<title>RelatedOriginRelationship&#45;&gt;OriginSpecimen</title>
<path fill="none" stroke="black" stroke-dasharray="1,5" d="M641.79,-709.95C646.84,-707.34 651.68,-704.37 656.08,-701 678.95,-683.43 670.38,-666.01 692.08,-647 693.37,-645.87 694.72,-644.77 696.11,-643.71"/>
<polygon fill="black" stroke="black" points="698.18,-646.53 704.48,-638.02 694.24,-640.75 698.18,-646.53"/>
</g>
<!-- OriginRelationship&#45;&gt;Sequence -->
<g id="edge21" class="edge">
<title>OriginRelationship&#45;&gt;Sequence</title>
<path fill="none" stroke="black" stroke-dasharray="1,5" d="M453.85,-636.01C479.26,-643.79 508.44,-652.74 531.75,-659.88"/>
<polygon fill="black" stroke="black" points="530.77,-663.24 541.35,-662.82 532.82,-656.54 530.77,-663.24"/>
</g>
<!-- OriginRelationship&#45;&gt;RelatedOriginRelationship -->
<!-- OriginRelationship&#45;&gt;DerivedExtract -->
<g id="edge3" class="edge">
<title>OriginRelationship&#45;&gt;DerivedExtract</title>
<path fill="none" stroke="black" stroke-dasharray="1,5" d="M454.35,-618C474.09,-618 496.06,-618 515.77,-618"/>
<polygon fill="black" stroke="black" points="515.84,-621.5 525.84,-618 515.84,-614.5 515.84,-621.5"/>
</g>
<!-- OriginRelationship&#45;&gt;DerivedSequence -->
<g id="edge4" class="edge">
<title>OriginRelationship&#45;&gt;DerivedSequence</title>
<path fill="none" stroke="black" stroke-dasharray="1,5" d="M454.35,-600.17C472.01,-594.86 491.46,-589 509.48,-583.58"/>
<polygon fill="black" stroke="black" points="510.75,-586.86 519.32,-580.62 508.73,-580.15 510.75,-586.86"/>
</g>
<!-- ExtractorRole&#45;&gt;Extractor -->
<g id="edge6" class="edge">
<title>ExtractorRole&#45;&gt;Extractor</title>
<path fill="none" stroke="black" stroke-dasharray="1,5" d="M440.37,-510C468.46,-510 504.32,-510 531.9,-510"/>
<polygon fill="black" stroke="black" points="532.04,-513.5 542.04,-510 532.04,-506.5 532.04,-513.5"/>
</g>
<!-- Role&#45;&gt;Verifier -->
<!-- VerifierRole&#45;&gt;Verifier -->
<g id="edge23" class="edge">
<title>VerifierRole&#45;&gt;Verifier</title>
<path fill="none" stroke="black" stroke-dasharray="1,5" d="M435.81,-354.13C466.16,-358.69 507.29,-364.88 536.89,-369.33"/>
<polygon fill="black" stroke="black" points="536.43,-372.8 546.84,-370.83 537.47,-365.88 536.43,-372.8"/>
</g>
<!-- Creator&#45;&gt;Updater -->
<!-- Project&#45;&gt;Creator -->
<!-- Container&#45;&gt;ContainerItem -->
<!-- DataAttribute -->
<g id="node1" class="node">
<title>DataAttribute</title>
<g id="a_node1"><a xlink:href="/develop/Data/models.html#data-attribute" xlink:title="DataAttribute" target="_top">
<ellipse fill="#abcdef" stroke="#dddeee" cx="85.14" cy="-378" rx="59.29" ry="18"/>
<text text-anchor="middle" x="85.14" y="-374.3" font-family="Times,serif" font-size="14.00">DataAttribute</text>
</a>
</g>
</g>
<!-- Identifier -->
<g id="node2" class="node">
<title>Identifier</title>
<g id="a_node2"><a xlink:href="/develop/Data/models.html#identifier" xlink:title="Identifier" target="_top">
<ellipse fill="#abcdef" stroke="#dddeee" cx="85.14" cy="-324" rx="42.79" ry="18"/>
<text text-anchor="middle" x="85.14" y="-320.3" font-family="Times,serif" font-size="14.00">Identifier</text>
</a>
</g>
</g>
<!-- ProtocolRelationship -->
<g id="node3" class="node">
<title>ProtocolRelationship</title>
<g id="a_node3"><a xlink:href="/develop/Data/models.html#protocol-relationship" xlink:title="ProtocolRelationship" target="_top">
<ellipse fill="#abcdef" stroke="#dddeee" cx="85.14" cy="-269" rx="85.29" ry="18"/>
<text text-anchor="middle" x="85.14" y="-265.3" font-family="Times,serif" font-size="14.00">ProtocolRelationship</text>
</a>
</g>
</g>
<!-- CollectionObject -->
<g id="node4" class="node">
<title>CollectionObject</title>
<g id="a_node4"><a xlink:href="/develop/Data/models.html#collection-object" xlink:title="CollectionObject" target="_top">
<path fill="#fedcba" stroke="#dddeee" d="M705.58,-928C705.58,-928 790.58,-928 790.58,-928 796.58,-928 802.58,-934 802.58,-940 802.58,-940 802.58,-952 802.58,-952 802.58,-958 796.58,-964 790.58,-964 790.58,-964 705.58,-964 705.58,-964 699.58,-964 693.58,-958 693.58,-952 693.58,-952 693.58,-940 693.58,-940 693.58,-934 699.58,-928 705.58,-928"/>
<text text-anchor="middle" x="748.08" y="-942.3" font-family="Times,serif" font-size="14.00">CollectionObject</text>
</a>
</g>
</g>
<!-- Otu -->
<g id="node5" class="node">
<title>Otu</title>
<g id="a_node5"><a xlink:href="/develop/Data/models.html#otu" xlink:title="Otu" target="_top">
<path fill="#fedcba" stroke="#dddeee" d="M733.08,-873C733.08,-873 763.08,-873 763.08,-873 769.08,-873 775.08,-879 775.08,-885 775.08,-885 775.08,-897 775.08,-897 775.08,-903 769.08,-909 763.08,-909 763.08,-909 733.08,-909 733.08,-909 727.08,-909 721.08,-903 721.08,-897 721.08,-897 721.08,-885 721.08,-885 721.08,-879 727.08,-873 733.08,-873"/>
<text text-anchor="middle" x="748.08" y="-887.3" font-family="Times,serif" font-size="14.00">Otu</text>
</a>
</g>
</g>
<!-- Sequence -->
<g id="node6" class="node">
<title>Sequence</title>
<g id="a_node6"><a xlink:href="/develop/Data/models.html#sequence" xlink:title="Sequence" target="_top">
<path fill="#fedcba" stroke="#dddeee" d="M553.58,-655C553.58,-655 597.58,-655 597.58,-655 603.58,-655 609.58,-661 609.58,-667 609.58,-667 609.58,-679 609.58,-679 609.58,-685 603.58,-691 597.58,-691 597.58,-691 553.58,-691 553.58,-691 547.58,-691 541.58,-685 541.58,-679 541.58,-679 541.58,-667 541.58,-667 541.58,-661 547.58,-655 553.58,-655"/>
<text text-anchor="middle" x="575.58" y="-669.3" font-family="Times,serif" font-size="14.00">Sequence</text>
</a>
</g>
</g>
<!-- Extract -->
<g id="node7" class="node">
<title>Extract</title>
<g id="a_node7"><a xlink:href="/develop/Data/models.html#extract" xlink:title="Extract" target="_top">
<polygon fill="#cdefab" stroke="#dedede" points="288.98,-317.54 288.98,-332.46 265.96,-343 233.4,-343 210.38,-332.46 210.38,-317.54 233.4,-307 265.96,-307 288.98,-317.54"/>
<polygon fill="none" stroke="#dedede" points="292.97,-314.97 292.97,-335.03 266.83,-347 232.53,-347 206.39,-335.03 206.39,-314.97 232.53,-303 266.83,-303 292.97,-314.97"/>
<text text-anchor="middle" x="249.68" y="-321.3" font-family="Times,serif" font-size="14.00">Extract</text>
</a>
</g>
</g>
<!-- RelatedOriginRelationship -->
<g id="node8" class="node">
<title>RelatedOriginRelationship</title>
<g id="a_node8"><a xlink:href="/develop/Data/models.html#related-origin-relationship" xlink:title="RelatedOriginRelationship" target="_top">
<polygon fill="#eeefff" stroke="#dddeee" points="656.08,-746 495.08,-746 495.08,-710 656.08,-710 656.08,-746"/>
<text text-anchor="middle" x="575.58" y="-724.3" font-family="Times,serif" font-size="14.00">RelatedOriginRelationship</text>
</a>
</g>
</g>
<!-- OriginRelationship -->
<g id="node9" class="node">
<title>OriginRelationship</title>
<g id="a_node9"><a xlink:href="/develop/Data/models.html#origin-relationship" xlink:title="OriginRelationship" target="_top">
<polygon fill="#eeefff" stroke="#dddeee" points="454.08,-636 334.08,-636 334.08,-600 454.08,-600 454.08,-636"/>
<text text-anchor="middle" x="394.08" y="-614.3" font-family="Times,serif" font-size="14.00">OriginRelationship</text>
</a>
</g>
</g>
<!-- DerivedExtract -->
<g id="node10" class="node">
<title>DerivedExtract</title>
<g id="a_node10"><a xlink:href="/develop/Data/models.html#derived-extract" xlink:title="DerivedExtract" target="_top">
<polygon fill="#eeefff" stroke="#dddeee" points="625.08,-636 526.08,-636 526.08,-600 625.08,-600 625.08,-636"/>
<text text-anchor="middle" x="575.58" y="-614.3" font-family="Times,serif" font-size="14.00">DerivedExtract</text>
</a>
</g>
</g>
<!-- DerivedSequence -->
<g id="node11" class="node">
<title>DerivedSequence</title>
<g id="a_node11"><a xlink:href="/develop/Data/models.html#derived-sequence" xlink:title="DerivedSequence" target="_top">
<polygon fill="#eeefff" stroke="#dddeee" points="631.58,-582 519.58,-582 519.58,-546 631.58,-546 631.58,-582"/>
<text text-anchor="middle" x="575.58" y="-560.3" font-family="Times,serif" font-size="14.00">DerivedSequence</text>
</a>
</g>
</g>
<!-- ExtractorRole -->
<g id="node12" class="node">
<title>ExtractorRole</title>
<g id="a_node12"><a xlink:href="/develop/Data/models.html#extractor-role" xlink:title="ExtractorRole" target="_top">
<polygon fill="#eeefff" stroke="#dddeee" points="440.08,-528 348.08,-528 348.08,-492 440.08,-492 440.08,-528"/>
<text text-anchor="middle" x="394.08" y="-506.3" font-family="Times,serif" font-size="14.00">ExtractorRole</text>
</a>
</g>
</g>
<!-- Extractor -->
<g id="node13" class="node">
<title>Extractor</title>
<g id="a_node13"><a xlink:href="/develop/Data/models.html#extractor" xlink:title="Extractor" target="_top">
<polygon fill="#eeefff" stroke="#dddeee" points="609.08,-528 542.08,-528 542.08,-492 609.08,-492 609.08,-528"/>
<text text-anchor="middle" x="575.58" y="-506.3" font-family="Times,serif" font-size="14.00">Extractor</text>
</a>
</g>
</g>
<!-- OriginExtract -->
<g id="node14" class="node">
<title>OriginExtract</title>
<g id="a_node14"><a xlink:href="/develop/Data/models.html#origin-extract" xlink:title="OriginExtract" target="_top">
<polygon fill="#eeefff" stroke="#dddeee" points="793.58,-854 702.58,-854 702.58,-818 793.58,-818 793.58,-854"/>
<text text-anchor="middle" x="748.08" y="-832.3" font-family="Times,serif" font-size="14.00">OriginExtract</text>
</a>
</g>
</g>
<!-- OriginLot -->
<g id="node15" class="node">
<title>OriginLot</title>
<g id="a_node15"><a xlink:href="/develop/Data/models.html#origin-lot" xlink:title="OriginLot" target="_top">
<polygon fill="#eeefff" stroke="#dddeee" points="783.58,-800 712.58,-800 712.58,-764 783.58,-764 783.58,-800"/>
<text text-anchor="middle" x="748.08" y="-778.3" font-family="Times,serif" font-size="14.00">OriginLot</text>
</a>
</g>
</g>
<!-- OriginOtu -->
<g id="node16" class="node">
<title>OriginOtu</title>
<g id="a_node16"><a xlink:href="/develop/Data/models.html#origin-otu" xlink:title="OriginOtu" target="_top">
<polygon fill="#eeefff" stroke="#dddeee" points="784.08,-746 712.08,-746 712.08,-710 784.08,-710 784.08,-746"/>
<text text-anchor="middle" x="748.08" y="-724.3" font-family="Times,serif" font-size="14.00">OriginOtu</text>
</a>
</g>
</g>
<!-- OriginRangedLot -->
<g id="node17" class="node">
<title>OriginRangedLot</title>
<g id="a_node17"><a xlink:href="/develop/Data/models.html#origin-ranged-lot" xlink:title="OriginRangedLot" target="_top">
<polygon fill="#eeefff" stroke="#dddeee" points="804.08,-692 692.08,-692 692.08,-656 804.08,-656 804.08,-692"/>
<text text-anchor="middle" x="748.08" y="-670.3" font-family="Times,serif" font-size="14.00">OriginRangedLot</text>
</a>
</g>
</g>
<!-- OriginSpecimen -->
<g id="node18" class="node">
<title>OriginSpecimen</title>
<g id="a_node18"><a xlink:href="/develop/Data/models.html#origin-specimen" xlink:title="OriginSpecimen" target="_top">
<polygon fill="#eeefff" stroke="#dddeee" points="801.08,-638 695.08,-638 695.08,-602 801.08,-602 801.08,-638"/>
<text text-anchor="middle" x="748.08" y="-616.3" font-family="Times,serif" font-size="14.00">OriginSpecimen</text>
</a>
</g>
</g>
<!-- PinboardItem -->
<g id="node19" class="node">
<title>PinboardItem</title>
<g id="a_node19"><a xlink:href="/develop/Data/models.html#pinboard-item" xlink:title="PinboardItem" target="_top">
<polygon fill="#eeefff" stroke="#dddeee" points="439.58,-474 348.58,-474 348.58,-438 439.58,-438 439.58,-474"/>
<text text-anchor="middle" x="394.08" y="-452.3" font-family="Times,serif" font-size="14.00">PinboardItem</text>
</a>
</g>
</g>
<!-- Protocol -->
<g id="node20" class="node">
<title>Protocol</title>
<g id="a_node20"><a xlink:href="/develop/Data/models.html#protocol" xlink:title="Protocol" target="_top">
<polygon fill="#eeefff" stroke="#dddeee" points="280.68,-285 218.68,-285 218.68,-249 280.68,-249 280.68,-285"/>
<text text-anchor="middle" x="249.68" y="-263.3" font-family="Times,serif" font-size="14.00">Protocol</text>
</a>
</g>
</g>
<!-- Role -->
<g id="node21" class="node">
<title>Role</title>
<g id="a_node21"><a xlink:href="/develop/Data/models.html#role" xlink:title="Role" target="_top">
<polygon fill="#eeefff" stroke="#dddeee" points="421.08,-420 367.08,-420 367.08,-384 421.08,-384 421.08,-420"/>
<text text-anchor="middle" x="394.08" y="-398.3" font-family="Times,serif" font-size="14.00">Role</text>
</a>
</g>
</g>
<!-- VerifierRole -->
<g id="node22" class="node">
<title>VerifierRole</title>
<g id="a_node22"><a xlink:href="/develop/Data/models.html#verifier-role" xlink:title="VerifierRole" target="_top">
<polygon fill="#eeefff" stroke="#dddeee" points="435.58,-366 352.58,-366 352.58,-330 435.58,-330 435.58,-366"/>
<text text-anchor="middle" x="394.08" y="-344.3" font-family="Times,serif" font-size="14.00">VerifierRole</text>
</a>
</g>
</g>
<!-- Verifier -->
<g id="node23" class="node">
<title>Verifier</title>
<g id="a_node23"><a xlink:href="/develop/Data/models.html#verifier" xlink:title="Verifier" target="_top">
<polygon fill="#eeefff" stroke="#dddeee" points="604.08,-393 547.08,-393 547.08,-357 604.08,-357 604.08,-393"/>
<text text-anchor="middle" x="575.58" y="-371.3" font-family="Times,serif" font-size="14.00">Verifier</text>
</a>
</g>
</g>
<!-- Creator -->
<g id="node24" class="node">
<title>Creator</title>
<g id="a_node24"><a xlink:href="/develop/Data/models.html#creator" xlink:title="Creator" target="_top">
<polygon fill="#eeefff" stroke="#dddeee" points="604.08,-274 547.08,-274 547.08,-238 604.08,-238 604.08,-274"/>
<text text-anchor="middle" x="575.58" y="-252.3" font-family="Times,serif" font-size="14.00">Creator</text>
</a>
</g>
</g>
<!-- Project -->
<g id="node25" class="node">
<title>Project</title>
<g id="a_node25"><a xlink:href="/develop/Data/models.html#project" xlink:title="Project" target="_top">
<polygon fill="#eeefff" stroke="#dddeee" points="421.58,-274 366.58,-274 366.58,-238 421.58,-238 421.58,-274"/>
<text text-anchor="middle" x="394.08" y="-252.3" font-family="Times,serif" font-size="14.00">Project</text>
</a>
</g>
</g>
<!-- Repository -->
<g id="node26" class="node">
<title>Repository</title>
<g id="a_node26"><a xlink:href="/develop/Data/models.html#repository" xlink:title="Repository" target="_top">
<polygon fill="#eeefff" stroke="#dddeee" points="432.08,-220 356.08,-220 356.08,-184 432.08,-184 432.08,-220"/>
<text text-anchor="middle" x="394.08" y="-198.3" font-family="Times,serif" font-size="14.00">Repository</text>
</a>
</g>
</g>
<!-- Updater -->
<g id="node27" class="node">
<title>Updater</title>
<g id="a_node27"><a xlink:href="/develop/Data/models.html#updater" xlink:title="Updater" target="_top">
<polygon fill="#eeefff" stroke="#dddeee" points="778.08,-274 718.08,-274 718.08,-238 778.08,-238 778.08,-274"/>
<text text-anchor="middle" x="748.08" y="-252.3" font-family="Times,serif" font-size="14.00">Updater</text>
</a>
</g>
</g>
<!-- Container -->
<g id="node28" class="node">
<title>Container</title>
<g id="a_node28"><a xlink:href="/develop/Data/models.html#container" xlink:title="Container" target="_top">
<polygon fill="#eeefff" stroke="#dddeee" points="429.08,-128 359.08,-128 359.08,-92 429.08,-92 429.08,-128"/>
<text text-anchor="middle" x="394.08" y="-106.3" font-family="Times,serif" font-size="14.00">Container</text>
</a>
</g>
</g>
<!-- ContainerItem -->
<g id="node29" class="node">
<title>ContainerItem</title>
<g id="a_node29"><a xlink:href="/develop/Data/models.html#container-item" xlink:title="ContainerItem" target="_top">
<polygon fill="#eeefff" stroke="#dddeee" points="623.08,-128 528.08,-128 528.08,-92 623.08,-92 623.08,-128"/>
<text text-anchor="middle" x="575.58" y="-106.3" font-family="Times,serif" font-size="14.00">ContainerItem</text>
</a>
</g>
</g>
<!-- ParentContainerItem -->
<g id="node30" class="node">
<title>ParentContainerItem</title>
<g id="a_node30"><a xlink:href="/develop/Data/models.html#parent-container-item" xlink:title="ParentContainerItem" target="_top">
<polygon fill="#eeefff" stroke="#dddeee" points="459.08,-36 329.08,-36 329.08,0 459.08,0 459.08,-36"/>
<text text-anchor="middle" x="394.08" y="-14.3" font-family="Times,serif" font-size="14.00">ParentContainerItem</text>
</a>
</g>
</g>
</g>
</svg>
