<?xml version="1.0" encoding="UTF-8" standalone="no"?>
<!DOCTYPE svg PUBLIC "-//W3C//DTD SVG 1.1//EN"
 "http://www.w3.org/Graphics/SVG/1.1/DTD/svg11.dtd">
<!-- Generated by graphviz version 2.50.0 (20211204.2007)
 -->
<!-- Title: GeneAttribute Pages: 1 -->
<svg width="586pt" height="387pt"
 viewBox="0.00 0.00 586.05 387.31" xmlns="http://www.w3.org/2000/svg" xmlns:xlink="http://www.w3.org/1999/xlink">
<g id="graph0" class="graph" transform="scale(1 1) rotate(0) translate(4 383.31)">
<title>GeneAttribute</title>
<polygon fill="white" stroke="transparent" points="-4,4 -4,-383.31 582.05,-383.31 582.05,4 -4,4"/>
<!-- Tag&#45;&gt;Keyword -->
<g id="edge2" class="edge">
<title>Tag&#45;&gt;Keyword</title>
<path fill="none" stroke="black" d="M70.18,-113.45C91.81,-113.16 122.91,-112.74 148.13,-112.39"/>
<polygon fill="black" stroke="black" points="148.22,-115.89 158.17,-112.26 148.13,-108.89 148.22,-115.89"/>
</g>
<!-- GeneAttribute&#45;&gt;Identifier -->
<g id="edge1" class="edge">
<title>GeneAttribute&#45;&gt;Identifier</title>
<path fill="none" stroke="black" d="M144.5,-186.54C125.66,-193.34 104.05,-201.13 85.7,-207.74"/>
<polygon fill="black" stroke="black" points="84.38,-204.5 76.16,-211.18 86.76,-211.08 84.38,-204.5"/>
</g>
<!-- GeneAttribute&#45;&gt;Tag -->
<g id="edge6" class="edge">
<title>GeneAttribute&#45;&gt;Tag</title>
<path fill="none" stroke="black" d="M145.91,-152.67C123.45,-144.11 96.79,-133.96 76.35,-126.17"/>
<polygon fill="black" stroke="black" points="77.46,-122.85 66.87,-122.56 74.97,-129.39 77.46,-122.85"/>
</g>
<!-- GeneAttribute&#45;&gt;Note -->
<g id="edge3" class="edge">
<title>GeneAttribute&#45;&gt;Note</title>
<path fill="none" stroke="black" d="M121.58,-169.34C107.64,-169.25 93.51,-169.15 81.18,-169.07"/>
<polygon fill="black" stroke="black" points="80.89,-165.56 70.86,-169 80.84,-172.56 80.89,-165.56"/>
</g>
<!-- GeneAttribute&#45;&gt;Descriptor -->
<g id="edge10" class="edge">
<title>GeneAttribute&#45;&gt;Descriptor</title>
<path fill="none" stroke="black" stroke-dasharray="5,2" d="M207.6,-201.31C225.27,-236.72 257.67,-294.41 298.05,-333.81 301.28,-336.97 304.95,-339.92 308.76,-342.63"/>
<polygon fill="black" stroke="black" points="210.56,-199.39 203.02,-191.95 204.27,-202.47 210.56,-199.39"/>
</g>
<!-- GeneAttribute&#45;&gt;Sequence -->
<g id="edge12" class="edge">
<title>GeneAttribute&#45;&gt;Sequence</title>
<path fill="none" stroke="black" stroke-dasharray="5,2" d="M218.47,-199.7C238.78,-222.51 268.57,-253.96 298.05,-277.81 302.31,-281.26 307.01,-284.62 311.72,-287.76"/>
<polygon fill="black" stroke="black" points="220.94,-197.2 211.7,-192.02 215.69,-201.83 220.94,-197.2"/>
</g>
<!-- GeneAttribute&#45;&gt;PinboardItem -->
<g id="edge4" class="edge">
<title>GeneAttribute&#45;&gt;PinboardItem</title>
<path fill="none" stroke="black" d="M229.14,-189.42C250.58,-201.02 277.84,-215.78 300.26,-227.92"/>
<polygon fill="black" stroke="black" points="298.76,-231.09 309.22,-232.77 302.09,-224.93 298.76,-231.09"/>
</g>
<!-- GeneAttribute&#45;&gt;Role -->
<g id="edge5" class="edge">
<title>GeneAttribute&#45;&gt;Role</title>
<path fill="none" stroke="black" d="M258.11,-181.58C274.59,-184.55 291.7,-187.64 306.18,-190.25"/>
<polygon fill="black" stroke="black" points="305.74,-193.73 316.2,-192.06 306.98,-186.84 305.74,-193.73"/>
</g>
<!-- GeneAttribute&#45;&gt;VerifierRole -->
<g id="edge7" class="edge">
<title>GeneAttribute&#45;&gt;VerifierRole</title>
<path fill="none" stroke="black" d="M258.11,-158.05C269.33,-156.02 280.85,-153.95 291.62,-152"/>
<polygon fill="black" stroke="black" points="292.47,-155.4 301.69,-150.18 291.23,-148.52 292.47,-155.4"/>
</g>
<!-- GeneAttribute&#45;&gt;Creator -->
<g id="edge9" class="edge">
<title>GeneAttribute&#45;&gt;Creator</title>
<path fill="none" stroke="black" stroke-dasharray="5,2" d="M244.7,-147.6C250.61,-144.76 256.5,-141.81 262.05,-138.81 278.76,-129.79 281.23,-124.61 298.05,-115.81 336.88,-95.49 348.66,-94.83 389.05,-77.81 400.75,-72.88 413.65,-67.4 424.75,-62.68"/>
<polygon fill="black" stroke="black" points="243.01,-144.52 235.44,-151.93 245.98,-150.86 243.01,-144.52"/>
</g>
<!-- GeneAttribute&#45;&gt;Project -->
<g id="edge11" class="edge">
<title>GeneAttribute&#45;&gt;Project</title>
<path fill="none" stroke="black" stroke-dasharray="5,2" d="M249.13,-148.09C253.72,-145.3 258.1,-142.21 262.05,-138.81 284.48,-119.51 277.68,-104.27 298.05,-82.81 303.29,-77.29 309.6,-72.09 315.8,-67.56"/>
<polygon fill="black" stroke="black" points="247.16,-145.18 240.12,-153.1 250.56,-151.3 247.16,-145.18"/>
</g>
<!-- GeneAttribute&#45;&gt;Updater -->
<g id="edge13" class="edge">
<title>GeneAttribute&#45;&gt;Updater</title>
<path fill="none" stroke="black" stroke-dasharray="5,2" d="M251.1,-148.51C255.11,-145.65 258.83,-142.43 262.05,-138.81 297.62,-98.77 254.89,-55.52 298.05,-23.81 364.1,24.72 467.88,-12.86 518.02,-36.05"/>
<polygon fill="black" stroke="black" points="249.13,-145.61 242.52,-153.89 252.85,-151.54 249.13,-145.61"/>
</g>
<!-- Role&#45;&gt;Verifier -->
<!-- VerifierRole&#45;&gt;Verifier -->
<g id="edge8" class="edge">
<title>VerifierRole&#45;&gt;Verifier</title>
<path fill="none" stroke="black" d="M385.07,-152.94C394.93,-155.41 405.44,-158.03 415.15,-160.46"/>
<polygon fill="black" stroke="black" points="414.37,-163.87 424.92,-162.9 416.06,-157.08 414.37,-163.87"/>
</g>
<!-- Creator&#45;&gt;Updater -->
<!-- Project&#45;&gt;Creator -->
<!-- Identifier -->
<g id="node1" class="node">
<title>Identifier</title>
<g id="a_node1"><a xlink:href="/develop/Data/models.html#identifier" xlink:title="Identifier" target="_top">
<ellipse fill="#abcdef" stroke="#dddeee" cx="42.9" cy="-222.81" rx="42.79" ry="18"/>
<text text-anchor="middle" x="42.9" y="-219.11" font-family="Times,serif" font-size="14.00">Identifier</text>
</a>
</g>
</g>
<!-- Tag -->
<g id="node2" class="node">
<title>Tag</title>
<g id="a_node2"><a xlink:href="/develop/Data/models.html#tag" xlink:title="Tag" target="_top">
<ellipse fill="#abcdef" stroke="#dddeee" cx="42.9" cy="-113.81" rx="27" ry="18"/>
<text text-anchor="middle" x="42.9" y="-110.11" font-family="Times,serif" font-size="14.00">Tag</text>
</a>
</g>
</g>
<!-- Note -->
<g id="node3" class="node">
<title>Note</title>
<g id="a_node3"><a xlink:href="/develop/Data/models.html#note" xlink:title="Note" target="_top">
<ellipse fill="#abcdef" stroke="#dddeee" cx="42.9" cy="-168.81" rx="27.9" ry="18"/>
<text text-anchor="middle" x="42.9" y="-165.11" font-family="Times,serif" font-size="14.00">Note</text>
</a>
</g>
</g>
<!-- Descriptor -->
<g id="node4" class="node">
<title>Descriptor</title>
<g id="a_node4"><a xlink:href="/develop/Data/models.html#descriptor" xlink:title="Descriptor" target="_top">
<path fill="#fedcba" stroke="#dddeee" d="M318.55,-342.81C318.55,-342.81 368.55,-342.81 368.55,-342.81 374.55,-342.81 380.55,-348.81 380.55,-354.81 380.55,-354.81 380.55,-366.81 380.55,-366.81 380.55,-372.81 374.55,-378.81 368.55,-378.81 368.55,-378.81 318.55,-378.81 318.55,-378.81 312.55,-378.81 306.55,-372.81 306.55,-366.81 306.55,-366.81 306.55,-354.81 306.55,-354.81 306.55,-348.81 312.55,-342.81 318.55,-342.81"/>
<text text-anchor="middle" x="343.55" y="-357.11" font-family="Times,serif" font-size="14.00">Descriptor</text>
</a>
</g>
</g>
<!-- Sequence -->
<g id="node5" class="node">
<title>Sequence</title>
<g id="a_node5"><a xlink:href="/develop/Data/models.html#sequence" xlink:title="Sequence" target="_top">
<path fill="#fedcba" stroke="#dddeee" d="M321.55,-287.81C321.55,-287.81 365.55,-287.81 365.55,-287.81 371.55,-287.81 377.55,-293.81 377.55,-299.81 377.55,-299.81 377.55,-311.81 377.55,-311.81 377.55,-317.81 371.55,-323.81 365.55,-323.81 365.55,-323.81 321.55,-323.81 321.55,-323.81 315.55,-323.81 309.55,-317.81 309.55,-311.81 309.55,-311.81 309.55,-299.81 309.55,-299.81 309.55,-293.81 315.55,-287.81 321.55,-287.81"/>
<text text-anchor="middle" x="343.55" y="-302.11" font-family="Times,serif" font-size="14.00">Sequence</text>
</a>
</g>
</g>
<!-- GeneAttribute -->
<g id="node6" class="node">
<title>GeneAttribute</title>
<g id="a_node6"><a xlink:href="/develop/Data/models.html#gene-attribute" xlink:title="GeneAttribute" target="_top">
<polygon fill="#cdefab" stroke="#dedede" points="258.17,-162.36 258.17,-177.27 219.36,-187.81 164.48,-187.81 125.67,-177.27 125.67,-162.36 164.48,-151.81 219.36,-151.81 258.17,-162.36"/>
<polygon fill="none" stroke="#dedede" points="262.18,-159.3 262.18,-180.32 219.9,-191.81 163.94,-191.81 121.66,-180.32 121.66,-159.3 163.94,-147.81 219.9,-147.81 262.18,-159.3"/>
<text text-anchor="middle" x="191.92" y="-166.11" font-family="Times,serif" font-size="14.00">GeneAttribute</text>
</a>
</g>
</g>
<!-- Keyword -->
<g id="node7" class="node">
<title>Keyword</title>
<g id="a_node7"><a xlink:href="/develop/Data/models.html#keyword" xlink:title="Keyword" target="_top">
<polygon fill="#eeefff" stroke="#dddeee" points="225.42,-129.81 158.42,-129.81 158.42,-93.81 225.42,-93.81 225.42,-129.81"/>
<text text-anchor="middle" x="191.92" y="-108.11" font-family="Times,serif" font-size="14.00">Keyword</text>
</a>
</g>
</g>
<!-- PinboardItem -->
<g id="node8" class="node">
<title>PinboardItem</title>
<g id="a_node8"><a xlink:href="/develop/Data/models.html#pinboard-item" xlink:title="PinboardItem" target="_top">
<polygon fill="#eeefff" stroke="#dddeee" points="389.05,-268.81 298.05,-268.81 298.05,-232.81 389.05,-232.81 389.05,-268.81"/>
<text text-anchor="middle" x="343.55" y="-247.11" font-family="Times,serif" font-size="14.00">PinboardItem</text>
</a>
</g>
</g>
<!-- Role -->
<g id="node9" class="node">
<title>Role</title>
<g id="a_node9"><a xlink:href="/develop/Data/models.html#role" xlink:title="Role" target="_top">
<polygon fill="#eeefff" stroke="#dddeee" points="370.55,-214.81 316.55,-214.81 316.55,-178.81 370.55,-178.81 370.55,-214.81"/>
<text text-anchor="middle" x="343.55" y="-193.11" font-family="Times,serif" font-size="14.00">Role</text>
</a>
</g>
</g>
<!-- VerifierRole -->
<g id="node10" class="node">
<title>VerifierRole</title>
<g id="a_node10"><a xlink:href="/develop/Data/models.html#verifier-role" xlink:title="VerifierRole" target="_top">
<polygon fill="#eeefff" stroke="#dddeee" points="385.05,-160.81 302.05,-160.81 302.05,-124.81 385.05,-124.81 385.05,-160.81"/>
<text text-anchor="middle" x="343.55" y="-139.11" font-family="Times,serif" font-size="14.00">VerifierRole</text>
</a>
</g>
</g>
<!-- Verifier -->
<g id="node11" class="node">
<title>Verifier</title>
<g id="a_node11"><a xlink:href="/develop/Data/models.html#verifier" xlink:title="Verifier" target="_top">
<polygon fill="#eeefff" stroke="#dddeee" points="482.05,-187.81 425.05,-187.81 425.05,-151.81 482.05,-151.81 482.05,-187.81"/>
<text text-anchor="middle" x="453.55" y="-166.11" font-family="Times,serif" font-size="14.00">Verifier</text>
</a>
</g>
</g>
<!-- Creator -->
<g id="node12" class="node">
<title>Creator</title>
<g id="a_node12"><a xlink:href="/develop/Data/models.html#creator" xlink:title="Creator" target="_top">
<polygon fill="#eeefff" stroke="#dddeee" points="482.05,-68.81 425.05,-68.81 425.05,-32.81 482.05,-32.81 482.05,-68.81"/>
<text text-anchor="middle" x="453.55" y="-47.11" font-family="Times,serif" font-size="14.00">Creator</text>
</a>
</g>
</g>
<!-- Project -->
<g id="node13" class="node">
<title>Project</title>
<g id="a_node13"><a xlink:href="/develop/Data/models.html#project" xlink:title="Project" target="_top">
<polygon fill="#eeefff" stroke="#dddeee" points="371.05,-68.81 316.05,-68.81 316.05,-32.81 371.05,-32.81 371.05,-68.81"/>
<text text-anchor="middle" x="343.55" y="-47.11" font-family="Times,serif" font-size="14.00">Project</text>
</a>
</g>
</g>
<!-- Updater -->
<g id="node14" class="node">
<title>Updater</title>
<g id="a_node14"><a xlink:href="/develop/Data/models.html#updater" xlink:title="Updater" target="_top">
<polygon fill="#eeefff" stroke="#dddeee" points="578.05,-68.81 518.05,-68.81 518.05,-32.81 578.05,-32.81 578.05,-68.81"/>
<text text-anchor="middle" x="548.05" y="-47.11" font-family="Times,serif" font-size="14.00">Updater</text>
</a>
</g>
</g>
</g>
</svg>
