<?xml version="1.0" encoding="UTF-8" standalone="no"?>
<!DOCTYPE svg PUBLIC "-//W3C//DTD SVG 1.1//EN"
 "http://www.w3.org/Graphics/SVG/1.1/DTD/svg11.dtd">
<!-- Generated by graphviz version 2.50.0 (20211204.2007)
 -->
<!-- Title: GeneAttribute Pages: 1 -->
<svg width="664pt" height="425pt"
 viewBox="0.00 0.00 664.00 425.31" xmlns="http://www.w3.org/2000/svg" xmlns:xlink="http://www.w3.org/1999/xlink">
<g id="graph0" class="graph" transform="scale(1 1) rotate(0) translate(4 421.31)">
<title>GeneAttribute</title>
<polygon fill="white" stroke="transparent" points="-4,4 -4,-421.31 660,-421.31 660,4 -4,4"/>
<text text-anchor="middle" x="328" y="-22.8" font-family="Times,serif" font-size="14.00">Algorithmically generated relationships for GeneAttribute based on assertions of &#39;has_many&#39;, &#39;has_one&#39;, &#39;belongs_to&#39;. </text>
<text text-anchor="middle" x="328" y="-7.8" font-family="Times,serif" font-size="14.00">Generated 2022&#45;01&#45;25 11:43:14 &#45;0600.</text>
<!-- Tag&#45;&gt;Keyword -->
<g id="edge2" class="edge">
<title>Tag&#45;&gt;Keyword</title>
<path fill="none" stroke="black" d="M109.16,-151.45C130.79,-151.16 161.89,-150.74 187.1,-150.39"/>
<polygon fill="black" stroke="black" points="187.2,-153.89 197.15,-150.26 187.1,-146.89 187.2,-153.89"/>
</g>
<!-- GeneAttribute&#45;&gt;Identifier -->
<g id="edge1" class="edge">
<title>GeneAttribute&#45;&gt;Identifier</title>
<path fill="none" stroke="black" d="M183.48,-224.54C164.63,-231.34 143.03,-239.13 124.68,-245.74"/>
<polygon fill="black" stroke="black" points="123.36,-242.5 115.14,-249.18 125.73,-249.08 123.36,-242.5"/>
</g>
<!-- GeneAttribute&#45;&gt;Tag -->
<g id="edge6" class="edge">
<title>GeneAttribute&#45;&gt;Tag</title>
<path fill="none" stroke="black" d="M184.89,-190.67C162.42,-182.11 135.76,-171.96 115.33,-164.17"/>
<polygon fill="black" stroke="black" points="116.44,-160.85 105.84,-160.56 113.94,-167.39 116.44,-160.85"/>
</g>
<!-- GeneAttribute&#45;&gt;Note -->
<g id="edge3" class="edge">
<title>GeneAttribute&#45;&gt;Note</title>
<path fill="none" stroke="black" d="M160.56,-207.34C146.62,-207.25 132.48,-207.15 120.15,-207.07"/>
<polygon fill="black" stroke="black" points="119.86,-203.56 109.84,-207 119.81,-210.56 119.86,-203.56"/>
</g>
<!-- GeneAttribute&#45;&gt;Descriptor -->
<g id="edge10" class="edge">
<title>GeneAttribute&#45;&gt;Descriptor</title>
<path fill="none" stroke="black" stroke-dasharray="5,2" d="M246.58,-239.31C264.25,-274.72 296.64,-332.41 337.02,-371.81 340.26,-374.97 343.93,-377.92 347.74,-380.63"/>
<polygon fill="black" stroke="black" points="249.54,-237.39 241.99,-229.95 243.25,-240.47 249.54,-237.39"/>
</g>
<!-- GeneAttribute&#45;&gt;Sequence -->
<g id="edge12" class="edge">
<title>GeneAttribute&#45;&gt;Sequence</title>
<path fill="none" stroke="black" stroke-dasharray="5,2" d="M257.45,-237.7C277.75,-260.51 307.55,-291.96 337.02,-315.81 341.28,-319.26 345.99,-322.62 350.7,-325.76"/>
<polygon fill="black" stroke="black" points="259.92,-235.2 250.68,-230.02 254.67,-239.83 259.92,-235.2"/>
</g>
<!-- GeneAttribute&#45;&gt;PinboardItem -->
<g id="edge4" class="edge">
<title>GeneAttribute&#45;&gt;PinboardItem</title>
<path fill="none" stroke="black" d="M268.12,-227.42C289.55,-239.02 316.81,-253.78 339.23,-265.92"/>
<polygon fill="black" stroke="black" points="337.73,-269.09 348.2,-270.77 341.07,-262.93 337.73,-269.09"/>
</g>
<!-- GeneAttribute&#45;&gt;Role -->
<g id="edge5" class="edge">
<title>GeneAttribute&#45;&gt;Role</title>
<path fill="none" stroke="black" d="M297.09,-219.58C313.57,-222.55 330.68,-225.64 345.15,-228.25"/>
<polygon fill="black" stroke="black" points="344.71,-231.73 355.18,-230.06 345.96,-224.84 344.71,-231.73"/>
</g>
<!-- GeneAttribute&#45;&gt;VerifierRole -->
<g id="edge7" class="edge">
<title>GeneAttribute&#45;&gt;VerifierRole</title>
<path fill="none" stroke="black" d="M297.09,-196.05C308.31,-194.02 319.82,-191.95 330.6,-190"/>
<polygon fill="black" stroke="black" points="331.45,-193.4 340.67,-188.18 330.21,-186.52 331.45,-193.4"/>
</g>
<!-- GeneAttribute&#45;&gt;Creator -->
<g id="edge9" class="edge">
<title>GeneAttribute&#45;&gt;Creator</title>
<path fill="none" stroke="black" stroke-dasharray="5,2" d="M283.68,-185.6C289.59,-182.76 295.48,-179.81 301.02,-176.81 317.73,-167.79 320.2,-162.61 337.02,-153.81 375.86,-133.49 387.63,-132.83 428.02,-115.81 439.73,-110.88 452.62,-105.4 463.72,-100.68"/>
<polygon fill="black" stroke="black" points="281.99,-182.52 274.41,-189.93 284.96,-188.86 281.99,-182.52"/>
</g>
<!-- GeneAttribute&#45;&gt;Project -->
<g id="edge11" class="edge">
<title>GeneAttribute&#45;&gt;Project</title>
<path fill="none" stroke="black" stroke-dasharray="5,2" d="M288.11,-186.09C292.69,-183.3 297.08,-180.21 301.02,-176.81 323.45,-157.51 316.65,-142.27 337.02,-120.81 342.27,-115.29 348.58,-110.09 354.78,-105.56"/>
<polygon fill="black" stroke="black" points="286.13,-183.18 279.1,-191.1 289.54,-189.3 286.13,-183.18"/>
</g>
<!-- GeneAttribute&#45;&gt;Updater -->
<g id="edge13" class="edge">
<title>GeneAttribute&#45;&gt;Updater</title>
<path fill="none" stroke="black" stroke-dasharray="5,2" d="M290.08,-186.51C294.09,-183.65 297.81,-180.43 301.02,-176.81 336.59,-136.77 293.87,-93.52 337.02,-61.81 403.07,-13.28 506.86,-50.86 557,-74.05"/>
<polygon fill="black" stroke="black" points="288.11,-183.61 281.49,-191.89 291.83,-189.54 288.11,-183.61"/>
</g>
<!-- Role&#45;&gt;Verifier -->
<!-- VerifierRole&#45;&gt;Verifier -->
<g id="edge8" class="edge">
<title>VerifierRole&#45;&gt;Verifier</title>
<path fill="none" stroke="black" d="M424.05,-190.94C433.91,-193.41 444.41,-196.03 454.12,-198.46"/>
<polygon fill="black" stroke="black" points="453.34,-201.87 463.89,-200.9 455.04,-195.08 453.34,-201.87"/>
</g>
<!-- Creator&#45;&gt;Updater -->
<!-- Project&#45;&gt;Creator -->
<!-- Identifier -->
<g id="node1" class="node">
<title>Identifier</title>
<g id="a_node1"><a xlink:href="/develop/Data/models.html#identifier" xlink:title="Identifier" target="_top">
<ellipse fill="#abcdef" stroke="#dddeee" cx="81.87" cy="-260.81" rx="42.79" ry="18"/>
<text text-anchor="middle" x="81.87" y="-257.11" font-family="Times,serif" font-size="14.00">Identifier</text>
</a>
</g>
</g>
<!-- Tag -->
<g id="node2" class="node">
<title>Tag</title>
<g id="a_node2"><a xlink:href="/develop/Data/models.html#tag" xlink:title="Tag" target="_top">
<ellipse fill="#abcdef" stroke="#dddeee" cx="81.87" cy="-151.81" rx="27" ry="18"/>
<text text-anchor="middle" x="81.87" y="-148.11" font-family="Times,serif" font-size="14.00">Tag</text>
</a>
</g>
</g>
<!-- Note -->
<g id="node3" class="node">
<title>Note</title>
<g id="a_node3"><a xlink:href="/develop/Data/models.html#note" xlink:title="Note" target="_top">
<ellipse fill="#abcdef" stroke="#dddeee" cx="81.87" cy="-206.81" rx="27.9" ry="18"/>
<text text-anchor="middle" x="81.87" y="-203.11" font-family="Times,serif" font-size="14.00">Note</text>
</a>
</g>
</g>
<!-- Descriptor -->
<g id="node4" class="node">
<title>Descriptor</title>
<g id="a_node4"><a xlink:href="/develop/Data/models.html#descriptor" xlink:title="Descriptor" target="_top">
<path fill="#fedcba" stroke="#dddeee" d="M357.52,-380.81C357.52,-380.81 407.52,-380.81 407.52,-380.81 413.52,-380.81 419.52,-386.81 419.52,-392.81 419.52,-392.81 419.52,-404.81 419.52,-404.81 419.52,-410.81 413.52,-416.81 407.52,-416.81 407.52,-416.81 357.52,-416.81 357.52,-416.81 351.52,-416.81 345.52,-410.81 345.52,-404.81 345.52,-404.81 345.52,-392.81 345.52,-392.81 345.52,-386.81 351.52,-380.81 357.52,-380.81"/>
<text text-anchor="middle" x="382.52" y="-395.11" font-family="Times,serif" font-size="14.00">Descriptor</text>
</a>
</g>
</g>
<!-- Sequence -->
<g id="node5" class="node">
<title>Sequence</title>
<g id="a_node5"><a xlink:href="/develop/Data/models.html#sequence" xlink:title="Sequence" target="_top">
<path fill="#fedcba" stroke="#dddeee" d="M360.52,-325.81C360.52,-325.81 404.52,-325.81 404.52,-325.81 410.52,-325.81 416.52,-331.81 416.52,-337.81 416.52,-337.81 416.52,-349.81 416.52,-349.81 416.52,-355.81 410.52,-361.81 404.52,-361.81 404.52,-361.81 360.52,-361.81 360.52,-361.81 354.52,-361.81 348.52,-355.81 348.52,-349.81 348.52,-349.81 348.52,-337.81 348.52,-337.81 348.52,-331.81 354.52,-325.81 360.52,-325.81"/>
<text text-anchor="middle" x="382.52" y="-340.11" font-family="Times,serif" font-size="14.00">Sequence</text>
</a>
</g>
</g>
<!-- GeneAttribute -->
<g id="node6" class="node">
<title>GeneAttribute</title>
<g id="a_node6"><a xlink:href="/develop/Data/models.html#gene-attribute" xlink:title="GeneAttribute" target="_top">
<polygon fill="#cdefab" stroke="#dedede" points="297.15,-200.36 297.15,-215.27 258.34,-225.81 203.45,-225.81 164.65,-215.27 164.65,-200.36 203.45,-189.81 258.34,-189.81 297.15,-200.36"/>
<polygon fill="none" stroke="#dedede" points="301.15,-197.3 301.15,-218.32 258.87,-229.81 202.92,-229.81 160.64,-218.32 160.64,-197.3 202.92,-185.81 258.87,-185.81 301.15,-197.3"/>
<text text-anchor="middle" x="230.9" y="-204.11" font-family="Times,serif" font-size="14.00">GeneAttribute</text>
</a>
</g>
</g>
<!-- Keyword -->
<g id="node7" class="node">
<title>Keyword</title>
<g id="a_node7"><a xlink:href="/develop/Data/models.html#keyword" xlink:title="Keyword" target="_top">
<polygon fill="#eeefff" stroke="#dddeee" points="264.4,-167.81 197.4,-167.81 197.4,-131.81 264.4,-131.81 264.4,-167.81"/>
<text text-anchor="middle" x="230.9" y="-146.11" font-family="Times,serif" font-size="14.00">Keyword</text>
</a>
</g>
</g>
<!-- PinboardItem -->
<g id="node8" class="node">
<title>PinboardItem</title>
<g id="a_node8"><a xlink:href="/develop/Data/models.html#pinboard-item" xlink:title="PinboardItem" target="_top">
<polygon fill="#eeefff" stroke="#dddeee" points="428.02,-306.81 337.02,-306.81 337.02,-270.81 428.02,-270.81 428.02,-306.81"/>
<text text-anchor="middle" x="382.52" y="-285.11" font-family="Times,serif" font-size="14.00">PinboardItem</text>
</a>
</g>
</g>
<!-- Role -->
<g id="node9" class="node">
<title>Role</title>
<g id="a_node9"><a xlink:href="/develop/Data/models.html#role" xlink:title="Role" target="_top">
<polygon fill="#eeefff" stroke="#dddeee" points="409.52,-252.81 355.52,-252.81 355.52,-216.81 409.52,-216.81 409.52,-252.81"/>
<text text-anchor="middle" x="382.52" y="-231.11" font-family="Times,serif" font-size="14.00">Role</text>
</a>
</g>
</g>
<!-- VerifierRole -->
<g id="node10" class="node">
<title>VerifierRole</title>
<g id="a_node10"><a xlink:href="/develop/Data/models.html#verifier-role" xlink:title="VerifierRole" target="_top">
<polygon fill="#eeefff" stroke="#dddeee" points="424.02,-198.81 341.02,-198.81 341.02,-162.81 424.02,-162.81 424.02,-198.81"/>
<text text-anchor="middle" x="382.52" y="-177.11" font-family="Times,serif" font-size="14.00">VerifierRole</text>
</a>
</g>
</g>
<!-- Verifier -->
<g id="node11" class="node">
<title>Verifier</title>
<g id="a_node11"><a xlink:href="/develop/Data/models.html#verifier" xlink:title="Verifier" target="_top">
<polygon fill="#eeefff" stroke="#dddeee" points="521.02,-225.81 464.02,-225.81 464.02,-189.81 521.02,-189.81 521.02,-225.81"/>
<text text-anchor="middle" x="492.52" y="-204.11" font-family="Times,serif" font-size="14.00">Verifier</text>
</a>
</g>
</g>
<!-- Creator -->
<g id="node12" class="node">
<title>Creator</title>
<g id="a_node12"><a xlink:href="/develop/Data/models.html#creator" xlink:title="Creator" target="_top">
<polygon fill="#eeefff" stroke="#dddeee" points="521.02,-106.81 464.02,-106.81 464.02,-70.81 521.02,-70.81 521.02,-106.81"/>
<text text-anchor="middle" x="492.52" y="-85.11" font-family="Times,serif" font-size="14.00">Creator</text>
</a>
</g>
</g>
<!-- Project -->
<g id="node13" class="node">
<title>Project</title>
<g id="a_node13"><a xlink:href="/develop/Data/models.html#project" xlink:title="Project" target="_top">
<polygon fill="#eeefff" stroke="#dddeee" points="410.02,-106.81 355.02,-106.81 355.02,-70.81 410.02,-70.81 410.02,-106.81"/>
<text text-anchor="middle" x="382.52" y="-85.11" font-family="Times,serif" font-size="14.00">Project</text>
</a>
</g>
</g>
<!-- Updater -->
<g id="node14" class="node">
<title>Updater</title>
<g id="a_node14"><a xlink:href="/develop/Data/models.html#updater" xlink:title="Updater" target="_top">
<polygon fill="#eeefff" stroke="#dddeee" points="617.02,-106.81 557.02,-106.81 557.02,-70.81 617.02,-70.81 617.02,-106.81"/>
<text text-anchor="middle" x="587.02" y="-85.11" font-family="Times,serif" font-size="14.00">Updater</text>
</a>
</g>
</g>
</g>
</svg>
