<?xml version="1.0" encoding="UTF-8" standalone="no"?>
<!DOCTYPE svg PUBLIC "-//W3C//DTD SVG 1.1//EN"
 "http://www.w3.org/Graphics/SVG/1.1/DTD/svg11.dtd">
<!-- Generated by graphviz version 12.2.1 (20241206.2353)
 -->
<!-- Title: GeneAttribute Pages: 1 -->
<svg width="595pt" height="497pt"
 viewBox="0.00 0.00 595.18 496.97" xmlns="http://www.w3.org/2000/svg" xmlns:xlink="http://www.w3.org/1999/xlink">
<g id="graph0" class="graph" transform="scale(1 1) rotate(0) translate(4 492.97)">
<title>GeneAttribute</title>
<polygon fill="white" stroke="none" points="-4,4 -4,-492.97 591.18,-492.97 591.18,4 -4,4"/>
<!-- Tag&#45;&gt;Keyword -->
<g id="edge2" class="edge">
<title>Tag&#45;&gt;Keyword</title>
<path fill="none" stroke="black" stroke-dasharray="1,5" d="M72.7,-169.12C95.24,-168.83 128.06,-168.4 154.5,-168.05"/>
<polygon fill="black" stroke="black" points="154.3,-171.55 164.25,-167.92 154.21,-164.55 154.3,-171.55"/>
</g>
<!-- GeneAttribute&#45;&gt;Identifier -->
<g id="edge1" class="edge">
<title>GeneAttribute&#45;&gt;Identifier</title>
<path fill="none" stroke="black" d="M149.63,-242.43C130.73,-249.02 109.23,-256.51 90.74,-262.95"/>
<polygon fill="black" stroke="black" points="89.68,-259.62 81.39,-266.21 91.99,-266.23 89.68,-259.62"/>
</g>
<!-- GeneAttribute&#45;&gt;Tag -->
<g id="edge6" class="edge">
<title>GeneAttribute&#45;&gt;Tag</title>
<path fill="none" stroke="black" d="M151.02,-208.06C127.98,-199.58 100.81,-189.58 79.91,-181.88"/>
<polygon fill="black" stroke="black" points="81.32,-178.67 70.73,-178.5 78.9,-185.24 81.32,-178.67"/>
</g>
<!-- GeneAttribute&#45;&gt;Note -->
<g id="edge3" class="edge">
<title>GeneAttribute&#45;&gt;Note</title>
<path fill="none" stroke="black" d="M126.22,-225C112.29,-224.91 98.18,-224.81 85.78,-224.73"/>
<polygon fill="black" stroke="black" points="86,-221.23 75.97,-224.67 85.95,-228.23 86,-221.23"/>
</g>
<!-- GeneAttribute&#45;&gt;Descriptor -->
<g id="edge12" class="edge">
<title>GeneAttribute&#45;&gt;Descriptor</title>
<path fill="none" stroke="black" stroke-dasharray="5,2" d="M210.13,-258.46C225.14,-304.35 257.48,-388.02 308.18,-443.47 311.08,-446.65 314.45,-449.59 318.01,-452.27"/>
<polygon fill="black" stroke="black" points="213.52,-257.56 207.15,-249.1 206.85,-259.69 213.52,-257.56"/>
</g>
<!-- GeneAttribute&#45;&gt;Sequence -->
<g id="edge14" class="edge">
<title>GeneAttribute&#45;&gt;Sequence</title>
<path fill="none" stroke="black" stroke-dasharray="5,2" d="M216.57,-257.88C235.23,-292.81 268.44,-348.61 308.18,-387.47 311.68,-390.9 315.67,-394.13 319.78,-397.08"/>
<polygon fill="black" stroke="black" points="219.7,-256.32 211.95,-249.09 213.5,-259.57 219.7,-256.32"/>
</g>
<!-- GeneAttribute&#45;&gt;PinboardItem -->
<g id="edge4" class="edge">
<title>GeneAttribute&#45;&gt;PinboardItem</title>
<path fill="none" stroke="black" d="M219.61,-247.71C240.21,-270.71 274.46,-306.9 308.18,-333.47 309.13,-334.22 310.1,-334.97 311.09,-335.71"/>
<polygon fill="black" stroke="black" points="308.91,-338.45 319.11,-341.31 312.92,-332.72 308.91,-338.45"/>
</g>
<!-- GeneAttribute&#45;&gt;Role -->
<g id="edge5" class="edge">
<title>GeneAttribute&#45;&gt;Role</title>
<path fill="none" stroke="black" d="M237.87,-245.5C261.76,-258.23 292.53,-274.63 316.15,-287.21"/>
<polygon fill="black" stroke="black" points="314.31,-290.19 324.78,-291.81 317.6,-284.02 314.31,-290.19"/>
</g>
<!-- GeneAttribute&#45;&gt;Uri -->
<g id="edge7" class="edge">
<title>GeneAttribute&#45;&gt;Uri</title>
<path fill="none" stroke="black" d="M267.85,-237.47C283.96,-240.33 300.58,-243.29 314.77,-245.81"/>
<polygon fill="black" stroke="black" points="314.1,-249.24 324.56,-247.55 315.32,-242.35 314.1,-249.24"/>
</g>
<!-- GeneAttribute&#45;&gt;Uuid -->
<g id="edge8" class="edge">
<title>GeneAttribute&#45;&gt;Uuid</title>
<path fill="none" stroke="black" d="M267.85,-213.47C283.96,-210.61 300.58,-207.66 314.77,-205.14"/>
<polygon fill="black" stroke="black" points="315.32,-208.6 324.56,-203.4 314.1,-201.7 315.32,-208.6"/>
</g>
<!-- GeneAttribute&#45;&gt;VerifierRole -->
<g id="edge9" class="edge">
<title>GeneAttribute&#45;&gt;VerifierRole</title>
<path fill="none" stroke="black" d="M245.3,-207.39C254.33,-203.39 263.65,-199 272.18,-194.47 288.95,-185.57 292.08,-181.54 308.18,-171.47 309.75,-170.49 311.35,-169.49 312.97,-168.48"/>
<polygon fill="black" stroke="black" points="314.39,-171.72 321.06,-163.49 310.71,-165.77 314.39,-171.72"/>
</g>
<!-- GeneAttribute&#45;&gt;Creator -->
<g id="edge11" class="edge">
<title>GeneAttribute&#45;&gt;Creator</title>
<path fill="none" stroke="black" stroke-dasharray="5,2" d="M260.92,-203.43C264.96,-200.75 268.77,-197.77 272.18,-194.47 299.29,-168.17 280.95,-143.66 308.18,-117.47 339.54,-87.3 358.34,-96.42 398.43,-79.47 410.25,-74.47 423.31,-68.94 434.5,-64.19"/>
<polygon fill="black" stroke="black" points="259.32,-200.32 252.46,-208.39 262.85,-206.35 259.32,-200.32"/>
</g>
<!-- GeneAttribute&#45;&gt;Project -->
<g id="edge13" class="edge">
<title>GeneAttribute&#45;&gt;Project</title>
<path fill="none" stroke="black" stroke-dasharray="5,2" d="M262.08,-203.38C265.75,-200.72 269.17,-197.77 272.18,-194.47 306.86,-156.48 277.88,-126.04 308.18,-84.47 312.97,-77.9 319.52,-72.13 326.11,-67.36"/>
<polygon fill="black" stroke="black" points="260.41,-200.29 253.8,-208.57 264.13,-206.23 260.41,-200.29"/>
</g>
<!-- GeneAttribute&#45;&gt;Updater -->
<g id="edge15" class="edge">
<title>GeneAttribute&#45;&gt;Updater</title>
<path fill="none" stroke="black" stroke-dasharray="5,2" d="M262.97,-203.36C266.36,-200.72 269.47,-197.77 272.18,-194.47 320.87,-135.09 248.48,-73.79 308.18,-25.47 371.86,26.08 476.82,-13.21 527.4,-37.3"/>
<polygon fill="black" stroke="black" points="261.11,-200.39 254.71,-208.83 264.98,-206.23 261.11,-200.39"/>
</g>
<!-- Role&#45;&gt;Verifier -->
<!-- VerifierRole&#45;&gt;Verifier -->
<g id="edge10" class="edge">
<title>VerifierRole&#45;&gt;Verifier</title>
<path fill="none" stroke="black" stroke-dasharray="1,5" d="M385.55,-162.76C389.95,-165.57 394.35,-168.52 398.43,-171.47 410.35,-180.1 422.82,-190.38 433.54,-199.65"/>
<polygon fill="black" stroke="black" points="431.11,-202.17 440.93,-206.13 435.72,-196.91 431.11,-202.17"/>
</g>
<!-- Creator&#45;&gt;Updater -->
<!-- Project&#45;&gt;Creator -->
<!-- Identifier -->
<g id="node1" class="node">
<title>Identifier</title>
<g id="a_node1"><a xlink:href="/develop/Data/models.html#identifier" xlink:title="Identifier" target="_top">
<ellipse fill="#abcdef" stroke="#dddeee" cx="45.21" cy="-278.47" rx="45.21" ry="18"/>
<text text-anchor="middle" x="45.21" y="-273.42" font-family="Times,serif" font-size="14.00">Identifier</text>
</a>
</g>
</g>
<!-- Tag -->
<g id="node2" class="node">
<title>Tag</title>
<g id="a_node2"><a xlink:href="/develop/Data/models.html#tag" xlink:title="Tag" target="_top">
<ellipse fill="#abcdef" stroke="#dddeee" cx="45.21" cy="-169.47" rx="27" ry="18"/>
<text text-anchor="middle" x="45.21" y="-164.42" font-family="Times,serif" font-size="14.00">Tag</text>
</a>
</g>
</g>
<!-- Note -->
<g id="node3" class="node">
<title>Note</title>
<g id="a_node3"><a xlink:href="/develop/Data/models.html#note" xlink:title="Note" target="_top">
<ellipse fill="#abcdef" stroke="#dddeee" cx="45.21" cy="-224.47" rx="28.83" ry="18"/>
<text text-anchor="middle" x="45.21" y="-219.42" font-family="Times,serif" font-size="14.00">Note</text>
</a>
</g>
</g>
<!-- Descriptor -->
<g id="node4" class="node">
<title>Descriptor</title>
<g id="a_node4"><a xlink:href="/develop/Data/models.html#descriptor" xlink:title="Descriptor" target="_top">
<path fill="#fedcba" stroke="#dddeee" d="M328.8,-452.47C328.8,-452.47 377.8,-452.47 377.8,-452.47 383.8,-452.47 389.8,-458.47 389.8,-464.47 389.8,-464.47 389.8,-476.47 389.8,-476.47 389.8,-482.47 383.8,-488.47 377.8,-488.47 377.8,-488.47 328.8,-488.47 328.8,-488.47 322.8,-488.47 316.8,-482.47 316.8,-476.47 316.8,-476.47 316.8,-464.47 316.8,-464.47 316.8,-458.47 322.8,-452.47 328.8,-452.47"/>
<text text-anchor="middle" x="353.3" y="-465.67" font-family="Times,serif" font-size="14.00">Descriptor</text>
</a>
</g>
</g>
<!-- Sequence -->
<g id="node5" class="node">
<title>Sequence</title>
<g id="a_node5"><a xlink:href="/develop/Data/models.html#sequence" xlink:title="Sequence" target="_top">
<path fill="#fedcba" stroke="#dddeee" d="M331.43,-397.47C331.43,-397.47 375.18,-397.47 375.18,-397.47 381.18,-397.47 387.18,-403.47 387.18,-409.47 387.18,-409.47 387.18,-421.47 387.18,-421.47 387.18,-427.47 381.18,-433.47 375.18,-433.47 375.18,-433.47 331.43,-433.47 331.43,-433.47 325.43,-433.47 319.43,-427.47 319.43,-421.47 319.43,-421.47 319.43,-409.47 319.43,-409.47 319.43,-403.47 325.43,-397.47 331.43,-397.47"/>
<text text-anchor="middle" x="353.3" y="-410.67" font-family="Times,serif" font-size="14.00">Sequence</text>
</a>
</g>
</g>
<!-- GeneAttribute -->
<g id="node6" class="node">
<title>GeneAttribute</title>
<g id="a_node6"><a xlink:href="/develop/Data/models.html#gene-attribute" xlink:title="GeneAttribute" target="_top">
<polygon fill="#cdefab" stroke="#dedede" points="268.18,-218.02 268.18,-232.93 227.83,-243.47 170.77,-243.47 130.42,-232.93 130.42,-218.02 170.77,-207.47 227.83,-207.47 268.18,-218.02"/>
<polygon fill="none" stroke="#dedede" points="272.18,-214.93 272.18,-236.02 228.34,-247.47 170.25,-247.47 126.42,-236.02 126.42,-214.93 170.25,-203.47 228.34,-203.47 272.18,-214.93"/>
<text text-anchor="middle" x="199.3" y="-220.42" font-family="Times,serif" font-size="14.00">GeneAttribute</text>
</a>
</g>
</g>
<!-- Keyword -->
<g id="node7" class="node">
<title>Keyword</title>
<g id="a_node7"><a xlink:href="/develop/Data/models.html#keyword" xlink:title="Keyword" target="_top">
<polygon fill="#eeefff" stroke="#dddeee" points="232.42,-185.47 166.17,-185.47 166.17,-149.47 232.42,-149.47 232.42,-185.47"/>
<text text-anchor="middle" x="199.3" y="-162.42" font-family="Times,serif" font-size="14.00">Keyword</text>
</a>
</g>
</g>
<!-- PinboardItem -->
<g id="node8" class="node">
<title>PinboardItem</title>
<g id="a_node8"><a xlink:href="/develop/Data/models.html#pinboard-item" xlink:title="PinboardItem" target="_top">
<polygon fill="#eeefff" stroke="#dddeee" points="398.43,-378.47 308.18,-378.47 308.18,-342.47 398.43,-342.47 398.43,-378.47"/>
<text text-anchor="middle" x="353.3" y="-355.42" font-family="Times,serif" font-size="14.00">PinboardItem</text>
</a>
</g>
</g>
<!-- Role -->
<g id="node9" class="node">
<title>Role</title>
<g id="a_node9"><a xlink:href="/develop/Data/models.html#role" xlink:title="Role" target="_top">
<polygon fill="#eeefff" stroke="#dddeee" points="380.3,-324.47 326.3,-324.47 326.3,-288.47 380.3,-288.47 380.3,-324.47"/>
<text text-anchor="middle" x="353.3" y="-301.42" font-family="Times,serif" font-size="14.00">Role</text>
</a>
</g>
</g>
<!-- Uri -->
<g id="node10" class="node">
<title>Uri</title>
<g id="a_node10"><a xlink:href="/develop/Data/models.html#uri" xlink:title="Uri" target="_top">
<polygon fill="#eeefff" stroke="#dddeee" points="380.3,-270.47 326.3,-270.47 326.3,-234.47 380.3,-234.47 380.3,-270.47"/>
<text text-anchor="middle" x="353.3" y="-247.42" font-family="Times,serif" font-size="14.00">Uri</text>
</a>
</g>
</g>
<!-- Uuid -->
<g id="node11" class="node">
<title>Uuid</title>
<g id="a_node11"><a xlink:href="/develop/Data/models.html#uuid" xlink:title="Uuid" target="_top">
<polygon fill="#eeefff" stroke="#dddeee" points="380.3,-216.47 326.3,-216.47 326.3,-180.47 380.3,-180.47 380.3,-216.47"/>
<text text-anchor="middle" x="353.3" y="-193.42" font-family="Times,serif" font-size="14.00">Uuid</text>
</a>
</g>
</g>
<!-- VerifierRole -->
<g id="node12" class="node">
<title>VerifierRole</title>
<g id="a_node12"><a xlink:href="/develop/Data/models.html#verifier-role" xlink:title="VerifierRole" target="_top">
<polygon fill="#eeefff" stroke="#dddeee" points="394.68,-162.47 311.93,-162.47 311.93,-126.47 394.68,-126.47 394.68,-162.47"/>
<text text-anchor="middle" x="353.3" y="-139.42" font-family="Times,serif" font-size="14.00">VerifierRole</text>
</a>
</g>
</g>
<!-- Verifier -->
<g id="node13" class="node">
<title>Verifier</title>
<g id="a_node13"><a xlink:href="/develop/Data/models.html#verifier" xlink:title="Verifier" target="_top">
<polygon fill="#eeefff" stroke="#dddeee" points="491.68,-243.47 434.43,-243.47 434.43,-207.47 491.68,-207.47 491.68,-243.47"/>
<text text-anchor="middle" x="463.05" y="-220.42" font-family="Times,serif" font-size="14.00">Verifier</text>
</a>
</g>
</g>
<!-- Creator -->
<g id="node14" class="node">
<title>Creator</title>
<g id="a_node14"><a xlink:href="/develop/Data/models.html#creator" xlink:title="Creator" target="_top">
<polygon fill="#eeefff" stroke="#dddeee" points="491.3,-70.47 434.8,-70.47 434.8,-34.47 491.3,-34.47 491.3,-70.47"/>
<text text-anchor="middle" x="463.05" y="-47.42" font-family="Times,serif" font-size="14.00">Creator</text>
</a>
</g>
</g>
<!-- Project -->
<g id="node15" class="node">
<title>Project</title>
<g id="a_node15"><a xlink:href="/develop/Data/models.html#project" xlink:title="Project" target="_top">
<polygon fill="#eeefff" stroke="#dddeee" points="380.43,-70.47 326.18,-70.47 326.18,-34.47 380.43,-34.47 380.43,-70.47"/>
<text text-anchor="middle" x="353.3" y="-47.42" font-family="Times,serif" font-size="14.00">Project</text>
</a>
</g>
</g>
<!-- Updater -->
<g id="node16" class="node">
<title>Updater</title>
<g id="a_node16"><a xlink:href="/develop/Data/models.html#updater" xlink:title="Updater" target="_top">
<polygon fill="#eeefff" stroke="#dddeee" points="587.18,-70.47 527.68,-70.47 527.68,-34.47 587.18,-34.47 587.18,-70.47"/>
<text text-anchor="middle" x="557.43" y="-47.42" font-family="Times,serif" font-size="14.00">Updater</text>
</a>
</g>
</g>
</g>
</svg>
