<?xml version="1.0" encoding="UTF-8" standalone="no"?>
<!DOCTYPE svg PUBLIC "-//W3C//DTD SVG 1.1//EN"
 "http://www.w3.org/Graphics/SVG/1.1/DTD/svg11.dtd">
<!-- Generated by graphviz version 2.50.0 (20211204.2007)
 -->
<!-- Title: GeographicArea Pages: 1 -->
<svg width="676pt" height="889pt"
 viewBox="0.00 0.00 676.00 888.97" xmlns="http://www.w3.org/2000/svg" xmlns:xlink="http://www.w3.org/1999/xlink">
<g id="graph0" class="graph" transform="scale(1 1) rotate(0) translate(4 884.97)">
<title>GeographicArea</title>
<polygon fill="white" stroke="transparent" points="-4,4 -4,-884.97 672,-884.97 672,4 -4,4"/>
<text text-anchor="middle" x="334" y="-22.8" font-family="Times,serif" font-size="14.00">Algorithmically generated relationships for GeographicArea based on assertions of &#39;has_many&#39;, &#39;has_one&#39;, &#39;belongs_to&#39;. </text>
<text text-anchor="middle" x="334" y="-7.8" font-family="Times,serif" font-size="14.00">Generated 2022&#45;01&#45;25 11:43:16 &#45;0600.</text>
<!-- GeographicArea&#45;&gt;AssertedDistribution -->
<g id="edge2" class="edge">
<title>GeographicArea&#45;&gt;AssertedDistribution</title>
<path fill="none" stroke="black" d="M136.16,-477.62C136.41,-542.56 146.35,-734.23 250.07,-835.47 257.34,-842.57 266.28,-847.84 275.78,-851.75"/>
<polygon fill="black" stroke="black" points="274.84,-855.13 285.44,-855.23 277.21,-848.55 274.84,-855.13"/>
</g>
<!-- GeographicArea&#45;&gt;CollectingEvent -->
<g id="edge4" class="edge">
<title>GeographicArea&#45;&gt;CollectingEvent</title>
<path fill="none" stroke="black" d="M137.54,-477.67C141.5,-536.05 160.4,-695.16 250.07,-779.47 260.49,-789.27 274.07,-795.68 287.83,-799.86"/>
<polygon fill="black" stroke="black" points="287.26,-803.33 297.83,-802.52 289.07,-796.57 287.26,-803.33"/>
</g>
<!-- GeographicArea&#45;&gt;AncestorHierarchy -->
<g id="edge1" class="edge">
<title>GeographicArea&#45;&gt;AncestorHierarchy</title>
<path fill="none" stroke="black" d="M139.27,-477.79C146.89,-529.45 173,-657.95 250.07,-725.47 258.83,-733.14 269.57,-738.66 280.7,-742.62"/>
<polygon fill="black" stroke="black" points="279.96,-746.05 290.55,-745.71 282.06,-739.38 279.96,-746.05"/>
</g>
<!-- GeographicArea&#45;&gt;Child -->
<g id="edge3" class="edge">
<title>GeographicArea&#45;&gt;Child</title>
<path fill="none" stroke="black" d="M141.8,-477.61C153.47,-521.5 185.65,-619.75 250.07,-671.47 267.81,-685.72 292.5,-692.47 312.78,-695.66"/>
<polygon fill="black" stroke="black" points="312.55,-699.16 322.92,-697.02 313.48,-692.22 312.55,-699.16"/>
</g>
<!-- GeographicArea&#45;&gt;DescendantHierarchy -->
<g id="edge5" class="edge">
<title>GeographicArea&#45;&gt;DescendantHierarchy</title>
<path fill="none" stroke="black" d="M145.87,-477.51C161.93,-512.6 198.09,-580.92 250.07,-617.47 257.16,-622.46 265.14,-626.53 273.41,-629.84"/>
<polygon fill="black" stroke="black" points="272.24,-633.14 282.83,-633.28 274.63,-626.57 272.24,-633.14"/>
</g>
<!-- GeographicArea&#45;&gt;GeographicAreasGeographicItem -->
<g id="edge6" class="edge">
<title>GeographicArea&#45;&gt;GeographicAreasGeographicItem</title>
<path fill="none" stroke="black" d="M154.15,-477.91C174.65,-502.47 210.72,-541.29 250.07,-563.47 253.15,-565.21 256.35,-566.84 259.63,-568.37"/>
<polygon fill="black" stroke="black" points="258.48,-571.68 269.05,-572.41 261.25,-565.25 258.48,-571.68"/>
</g>
<!-- GeographicArea&#45;&gt;PinboardItem -->
<g id="edge8" class="edge">
<title>GeographicArea&#45;&gt;PinboardItem</title>
<path fill="none" stroke="black" d="M174.66,-475.71C196.36,-486.68 224.28,-499.91 250.07,-509.47 264.19,-514.71 279.77,-519.43 294.31,-523.4"/>
<polygon fill="black" stroke="black" points="293.62,-526.84 304.18,-526.03 295.42,-520.08 293.62,-526.84"/>
</g>
<!-- GeographicArea&#45;&gt;Role -->
<g id="edge9" class="edge">
<title>GeographicArea&#45;&gt;Role</title>
<path fill="none" stroke="black" d="M214.15,-465.33C247.86,-469.62 285.73,-474.43 312.75,-477.86"/>
<polygon fill="black" stroke="black" points="312.53,-481.36 322.9,-479.15 313.42,-474.42 312.53,-481.36"/>
</g>
<!-- GeographicArea&#45;&gt;VerifierRole -->
<g id="edge12" class="edge">
<title>GeographicArea&#45;&gt;VerifierRole</title>
<path fill="none" stroke="black" d="M214.15,-445.61C242.19,-442.05 273.1,-438.12 298.25,-434.93"/>
<polygon fill="black" stroke="black" points="298.82,-438.38 308.3,-433.65 297.94,-431.44 298.82,-438.38"/>
</g>
<!-- GeographicArea&#45;&gt;Creator -->
<g id="edge14" class="edge">
<title>GeographicArea&#45;&gt;Creator</title>
<path fill="none" stroke="black" stroke-dasharray="5,2" d="M183.62,-430.76C203.74,-420.82 227.7,-409.77 250.07,-401.47 273.62,-392.74 301.26,-385.44 321.34,-380.64"/>
<polygon fill="black" stroke="black" points="182.04,-427.64 174.66,-435.24 185.17,-433.9 182.04,-427.64"/>
</g>
<!-- GeographicArea&#45;&gt;GeographicAreaType -->
<g id="edge15" class="edge">
<title>GeographicArea&#45;&gt;GeographicAreaType</title>
<path fill="none" stroke="black" stroke-dasharray="5,2" d="M160.87,-425.14C182.01,-400.76 214.72,-367.4 250.07,-347.47 260.16,-341.79 271.51,-337.25 282.82,-333.64"/>
<polygon fill="black" stroke="black" points="157.97,-423.15 154.15,-433.04 163.3,-427.69 157.97,-423.15"/>
</g>
<!-- GeographicArea&#45;&gt;Level0 -->
<g id="edge16" class="edge">
<title>GeographicArea&#45;&gt;Level0</title>
<path fill="none" stroke="black" stroke-dasharray="5,2" d="M150.22,-424.17C167.97,-387.35 202.35,-327.02 250.07,-293.47 271.78,-278.2 301.76,-271.56 323.02,-268.68"/>
<polygon fill="black" stroke="black" points="146.95,-422.9 145.87,-433.44 153.29,-425.87 146.95,-422.9"/>
</g>
<!-- GeographicArea&#45;&gt;Level1 -->
<g id="edge17" class="edge">
<title>GeographicArea&#45;&gt;Level1</title>
<path fill="none" stroke="black" stroke-dasharray="5,2" d="M144.48,-423.6C158.02,-376.23 190.05,-287.66 250.07,-239.47 270.91,-222.74 301.32,-216.35 322.92,-213.92"/>
<polygon fill="black" stroke="black" points="141.09,-422.76 141.8,-433.34 147.83,-424.63 141.09,-422.76"/>
</g>
<!-- GeographicArea&#45;&gt;Level2 -->
<g id="edge18" class="edge">
<title>GeographicArea&#45;&gt;Level2</title>
<path fill="none" stroke="black" stroke-dasharray="5,2" d="M140.87,-422.96C150.24,-366.16 177.66,-248.91 250.07,-185.47 270.3,-167.75 301.11,-161.54 322.98,-159.43"/>
<polygon fill="black" stroke="black" points="137.36,-422.73 139.27,-433.15 144.27,-423.81 137.36,-422.73"/>
</g>
<!-- GeographicArea&#45;&gt;Parent -->
<g id="edge19" class="edge">
<title>GeographicArea&#45;&gt;Parent</title>
<path fill="none" stroke="black" stroke-dasharray="5,2" d="M138.24,-423.16C143.51,-358.13 164.76,-210.94 250.07,-131.47 269.75,-113.14 300.66,-107.04 322.7,-105.12"/>
<polygon fill="black" stroke="black" points="134.74,-423 137.49,-433.23 141.72,-423.51 134.74,-423"/>
</g>
<!-- GeographicArea&#45;&gt;Updater -->
<g id="edge20" class="edge">
<title>GeographicArea&#45;&gt;Updater</title>
<path fill="none" stroke="black" stroke-dasharray="5,2" d="M141.2,-423.47C154.16,-340.1 193.25,-119.73 250.07,-77.47 321.4,-24.43 378.08,-25.33 450.07,-77.47 542.81,-144.64 548.91,-302.85 548.19,-356.39"/>
<polygon fill="black" stroke="black" points="137.73,-422.98 139.68,-433.39 144.65,-424.04 137.73,-422.98"/>
</g>
<!-- AncestorHierarchy&#45;&gt;SelfAndAncestor -->
<g id="edge10" class="edge">
<title>AncestorHierarchy&#45;&gt;SelfAndAncestor</title>
<path fill="none" stroke="black" d="M409.76,-752.47C432.91,-752.47 459.58,-752.47 483.25,-752.47"/>
<polygon fill="black" stroke="black" points="483.54,-755.97 493.54,-752.47 483.54,-748.97 483.54,-755.97"/>
</g>
<!-- DescendantHierarchy&#45;&gt;SelfAndDescendant -->
<g id="edge11" class="edge">
<title>DescendantHierarchy&#45;&gt;SelfAndDescendant</title>
<path fill="none" stroke="black" d="M417.32,-644.47C436.12,-644.47 456.66,-644.47 475.77,-644.47"/>
<polygon fill="black" stroke="black" points="475.91,-647.97 485.91,-644.47 475.91,-640.97 475.91,-647.97"/>
</g>
<!-- GeographicAreasGeographicItem&#45;&gt;GeographicItem -->
<g id="edge7" class="edge">
<title>GeographicAreasGeographicItem&#45;&gt;GeographicItem</title>
<path fill="none" stroke="black" d="M450.18,-590.47C462.31,-590.47 474.41,-590.47 485.76,-590.47"/>
<polygon fill="black" stroke="black" points="485.95,-593.97 495.95,-590.47 485.95,-586.97 485.95,-593.97"/>
</g>
<!-- Role&#45;&gt;Verifier -->
<!-- VerifierRole&#45;&gt;Verifier -->
<g id="edge13" class="edge">
<title>VerifierRole&#45;&gt;Verifier</title>
<path fill="none" stroke="black" d="M391.79,-434.07C426.52,-438.84 476.08,-445.65 509.91,-450.3"/>
<polygon fill="black" stroke="black" points="509.49,-453.77 519.87,-451.67 510.44,-446.84 509.49,-453.77"/>
</g>
<!-- Creator&#45;&gt;Updater -->
<!-- AssertedDistribution -->
<g id="node1" class="node">
<title>AssertedDistribution</title>
<g id="a_node1"><a xlink:href="/develop/Data/models.html#asserted-distribution" xlink:title="AssertedDistribution" target="_top">
<path fill="#fedcba" stroke="#dddeee" d="M297.57,-844.47C297.57,-844.47 402.57,-844.47 402.57,-844.47 408.57,-844.47 414.57,-850.47 414.57,-856.47 414.57,-856.47 414.57,-868.47 414.57,-868.47 414.57,-874.47 408.57,-880.47 402.57,-880.47 402.57,-880.47 297.57,-880.47 297.57,-880.47 291.57,-880.47 285.57,-874.47 285.57,-868.47 285.57,-868.47 285.57,-856.47 285.57,-856.47 285.57,-850.47 291.57,-844.47 297.57,-844.47"/>
<text text-anchor="middle" x="350.07" y="-858.77" font-family="Times,serif" font-size="14.00">AssertedDistribution</text>
</a>
</g>
</g>
<!-- CollectingEvent -->
<g id="node2" class="node">
<title>CollectingEvent</title>
<g id="a_node2"><a xlink:href="/develop/Data/models.html#collecting-event" xlink:title="CollectingEvent" target="_top">
<path fill="#fedcba" stroke="#dddeee" d="M310.07,-789.47C310.07,-789.47 390.07,-789.47 390.07,-789.47 396.07,-789.47 402.07,-795.47 402.07,-801.47 402.07,-801.47 402.07,-813.47 402.07,-813.47 402.07,-819.47 396.07,-825.47 390.07,-825.47 390.07,-825.47 310.07,-825.47 310.07,-825.47 304.07,-825.47 298.07,-819.47 298.07,-813.47 298.07,-813.47 298.07,-801.47 298.07,-801.47 298.07,-795.47 304.07,-789.47 310.07,-789.47"/>
<text text-anchor="middle" x="350.07" y="-803.77" font-family="Times,serif" font-size="14.00">CollectingEvent</text>
</a>
</g>
</g>
<!-- GeographicArea -->
<g id="node3" class="node">
<title>GeographicArea</title>
<g id="a_node3"><a xlink:href="/develop/Data/models.html#geographic-area" xlink:title="GeographicArea" target="_top">
<polygon fill="#cdefab" stroke="#dedede" points="210.14,-448.02 210.14,-462.93 166.42,-473.47 104.58,-473.47 60.86,-462.93 60.86,-448.02 104.58,-437.47 166.42,-437.47 210.14,-448.02"/>
<polygon fill="none" stroke="#dedede" points="214.14,-444.87 214.14,-466.08 166.89,-477.47 104.11,-477.47 56.86,-466.08 56.86,-444.87 104.11,-433.47 166.89,-433.47 214.14,-444.87"/>
<text text-anchor="middle" x="135.5" y="-451.77" font-family="Times,serif" font-size="14.00">GeographicArea</text>
</a>
</g>
</g>
<!-- AncestorHierarchy -->
<g id="node4" class="node">
<title>AncestorHierarchy</title>
<g id="a_node4"><a xlink:href="/develop/Data/models.html#ancestor-hierarchy" xlink:title="AncestorHierarchy" target="_top">
<polygon fill="#eeefff" stroke="#dddeee" points="409.57,-770.47 290.57,-770.47 290.57,-734.47 409.57,-734.47 409.57,-770.47"/>
<text text-anchor="middle" x="350.07" y="-748.77" font-family="Times,serif" font-size="14.00">AncestorHierarchy</text>
</a>
</g>
</g>
<!-- Child -->
<g id="node5" class="node">
<title>Child</title>
<g id="a_node5"><a xlink:href="/develop/Data/models.html#child" xlink:title="Child" target="_top">
<polygon fill="#eeefff" stroke="#dddeee" points="377.07,-716.47 323.07,-716.47 323.07,-680.47 377.07,-680.47 377.07,-716.47"/>
<text text-anchor="middle" x="350.07" y="-694.77" font-family="Times,serif" font-size="14.00">Child</text>
</a>
</g>
</g>
<!-- DescendantHierarchy -->
<g id="node6" class="node">
<title>DescendantHierarchy</title>
<g id="a_node6"><a xlink:href="/develop/Data/models.html#descendant-hierarchy" xlink:title="DescendantHierarchy" target="_top">
<polygon fill="#eeefff" stroke="#dddeee" points="417.07,-662.47 283.07,-662.47 283.07,-626.47 417.07,-626.47 417.07,-662.47"/>
<text text-anchor="middle" x="350.07" y="-640.77" font-family="Times,serif" font-size="14.00">DescendantHierarchy</text>
</a>
</g>
</g>
<!-- GeographicAreasGeographicItem -->
<g id="node7" class="node">
<title>GeographicAreasGeographicItem</title>
<g id="a_node7"><a xlink:href="/develop/Data/models.html#geographic-areas-geographic-item" xlink:title="GeographicAreasGeographicItem" target="_top">
<polygon fill="#eeefff" stroke="#dddeee" points="450.07,-608.47 250.07,-608.47 250.07,-572.47 450.07,-572.47 450.07,-608.47"/>
<text text-anchor="middle" x="350.07" y="-586.77" font-family="Times,serif" font-size="14.00">GeographicAreasGeographicItem</text>
</a>
</g>
</g>
<!-- GeographicItem -->
<g id="node8" class="node">
<title>GeographicItem</title>
<g id="a_node8"><a xlink:href="/develop/Data/models.html#geographic-item" xlink:title="GeographicItem" target="_top">
<polygon fill="#eeefff" stroke="#dddeee" points="601.07,-608.47 496.07,-608.47 496.07,-572.47 601.07,-572.47 601.07,-608.47"/>
<text text-anchor="middle" x="548.57" y="-586.77" font-family="Times,serif" font-size="14.00">GeographicItem</text>
</a>
</g>
</g>
<!-- PinboardItem -->
<g id="node9" class="node">
<title>PinboardItem</title>
<g id="a_node9"><a xlink:href="/develop/Data/models.html#pinboard-item" xlink:title="PinboardItem" target="_top">
<polygon fill="#eeefff" stroke="#dddeee" points="395.57,-554.47 304.57,-554.47 304.57,-518.47 395.57,-518.47 395.57,-554.47"/>
<text text-anchor="middle" x="350.07" y="-532.77" font-family="Times,serif" font-size="14.00">PinboardItem</text>
</a>
</g>
</g>
<!-- Role -->
<g id="node10" class="node">
<title>Role</title>
<g id="a_node10"><a xlink:href="/develop/Data/models.html#role" xlink:title="Role" target="_top">
<polygon fill="#eeefff" stroke="#dddeee" points="377.07,-500.47 323.07,-500.47 323.07,-464.47 377.07,-464.47 377.07,-500.47"/>
<text text-anchor="middle" x="350.07" y="-478.77" font-family="Times,serif" font-size="14.00">Role</text>
</a>
</g>
</g>
<!-- SelfAndAncestor -->
<g id="node11" class="node">
<title>SelfAndAncestor</title>
<g id="a_node11"><a xlink:href="/develop/Data/models.html#self-and-ancestor" xlink:title="SelfAndAncestor" target="_top">
<polygon fill="#eeefff" stroke="#dddeee" points="603.57,-770.47 493.57,-770.47 493.57,-734.47 603.57,-734.47 603.57,-770.47"/>
<text text-anchor="middle" x="548.57" y="-748.77" font-family="Times,serif" font-size="14.00">SelfAndAncestor</text>
</a>
</g>
</g>
<!-- SelfAndDescendant -->
<g id="node12" class="node">
<title>SelfAndDescendant</title>
<g id="a_node12"><a xlink:href="/develop/Data/models.html#self-and-descendant" xlink:title="SelfAndDescendant" target="_top">
<polygon fill="#eeefff" stroke="#dddeee" points="611.07,-662.47 486.07,-662.47 486.07,-626.47 611.07,-626.47 611.07,-662.47"/>
<text text-anchor="middle" x="548.57" y="-640.77" font-family="Times,serif" font-size="14.00">SelfAndDescendant</text>
</a>
</g>
</g>
<!-- VerifierRole -->
<g id="node13" class="node">
<title>VerifierRole</title>
<g id="a_node13"><a xlink:href="/develop/Data/models.html#verifier-role" xlink:title="VerifierRole" target="_top">
<polygon fill="#eeefff" stroke="#dddeee" points="391.57,-446.47 308.57,-446.47 308.57,-410.47 391.57,-410.47 391.57,-446.47"/>
<text text-anchor="middle" x="350.07" y="-424.77" font-family="Times,serif" font-size="14.00">VerifierRole</text>
</a>
</g>
</g>
<!-- Verifier -->
<g id="node14" class="node">
<title>Verifier</title>
<g id="a_node14"><a xlink:href="/develop/Data/models.html#verifier" xlink:title="Verifier" target="_top">
<polygon fill="#eeefff" stroke="#dddeee" points="577.07,-473.47 520.07,-473.47 520.07,-437.47 577.07,-437.47 577.07,-473.47"/>
<text text-anchor="middle" x="548.57" y="-451.77" font-family="Times,serif" font-size="14.00">Verifier</text>
</a>
</g>
</g>
<!-- Creator -->
<g id="node15" class="node">
<title>Creator</title>
<g id="a_node15"><a xlink:href="/develop/Data/models.html#creator" xlink:title="Creator" target="_top">
<polygon fill="#eeefff" stroke="#dddeee" points="378.57,-392.47 321.57,-392.47 321.57,-356.47 378.57,-356.47 378.57,-392.47"/>
<text text-anchor="middle" x="350.07" y="-370.77" font-family="Times,serif" font-size="14.00">Creator</text>
</a>
</g>
</g>
<!-- GeographicAreaType -->
<g id="node16" class="node">
<title>GeographicAreaType</title>
<g id="a_node16"><a xlink:href="/develop/Data/models.html#geographic-area-type" xlink:title="GeographicAreaType" target="_top">
<polygon fill="#eeefff" stroke="#dddeee" points="417.07,-338.47 283.07,-338.47 283.07,-302.47 417.07,-302.47 417.07,-338.47"/>
<text text-anchor="middle" x="350.07" y="-316.77" font-family="Times,serif" font-size="14.00">GeographicAreaType</text>
</a>
</g>
</g>
<!-- Level0 -->
<g id="node17" class="node">
<title>Level0</title>
<g id="a_node17"><a xlink:href="/develop/Data/models.html#level0" xlink:title="Level0" target="_top">
<polygon fill="#eeefff" stroke="#dddeee" points="377.07,-284.47 323.07,-284.47 323.07,-248.47 377.07,-248.47 377.07,-284.47"/>
<text text-anchor="middle" x="350.07" y="-262.77" font-family="Times,serif" font-size="14.00">Level0</text>
</a>
</g>
</g>
<!-- Level1 -->
<g id="node18" class="node">
<title>Level1</title>
<g id="a_node18"><a xlink:href="/develop/Data/models.html#level1" xlink:title="Level1" target="_top">
<polygon fill="#eeefff" stroke="#dddeee" points="377.07,-230.47 323.07,-230.47 323.07,-194.47 377.07,-194.47 377.07,-230.47"/>
<text text-anchor="middle" x="350.07" y="-208.77" font-family="Times,serif" font-size="14.00">Level1</text>
</a>
</g>
</g>
<!-- Level2 -->
<g id="node19" class="node">
<title>Level2</title>
<g id="a_node19"><a xlink:href="/develop/Data/models.html#level2" xlink:title="Level2" target="_top">
<polygon fill="#eeefff" stroke="#dddeee" points="377.07,-176.47 323.07,-176.47 323.07,-140.47 377.07,-140.47 377.07,-176.47"/>
<text text-anchor="middle" x="350.07" y="-154.77" font-family="Times,serif" font-size="14.00">Level2</text>
</a>
</g>
</g>
<!-- Parent -->
<g id="node20" class="node">
<title>Parent</title>
<g id="a_node20"><a xlink:href="/develop/Data/models.html#parent" xlink:title="Parent" target="_top">
<polygon fill="#eeefff" stroke="#dddeee" points="377.07,-122.47 323.07,-122.47 323.07,-86.47 377.07,-86.47 377.07,-122.47"/>
<text text-anchor="middle" x="350.07" y="-100.77" font-family="Times,serif" font-size="14.00">Parent</text>
</a>
</g>
</g>
<!-- Updater -->
<g id="node21" class="node">
<title>Updater</title>
<g id="a_node21"><a xlink:href="/develop/Data/models.html#updater" xlink:title="Updater" target="_top">
<polygon fill="#eeefff" stroke="#dddeee" points="578.57,-392.47 518.57,-392.47 518.57,-356.47 578.57,-356.47 578.57,-392.47"/>
<text text-anchor="middle" x="548.57" y="-370.77" font-family="Times,serif" font-size="14.00">Updater</text>
</a>
</g>
</g>
</g>
</svg>
