<?xml version="1.0" encoding="UTF-8" standalone="no"?>
<!DOCTYPE svg PUBLIC "-//W3C//DTD SVG 1.1//EN"
 "http://www.w3.org/Graphics/SVG/1.1/DTD/svg11.dtd">
<!-- Generated by graphviz version 2.50.0 (20211204.2007)
 -->
<!-- Title: GeographicAreasGeographicItem Pages: 1 -->
<svg width="532pt" height="260pt"
 viewBox="0.00 0.00 532.40 260.00" xmlns="http://www.w3.org/2000/svg" xmlns:xlink="http://www.w3.org/1999/xlink">
<g id="graph0" class="graph" transform="scale(1 1) rotate(0) translate(4 256)">
<title>GeographicAreasGeographicItem</title>
<polygon fill="white" stroke="transparent" points="-4,4 -4,-256 528.4,-256 528.4,4 -4,4"/>
<!-- GeographicAreasGeographicItem&#45;&gt;PinboardItem -->
<g id="edge1" class="edge">
<title>GeographicAreasGeographicItem&#45;&gt;PinboardItem</title>
<path fill="none" stroke="black" d="M193.15,-148.12C232.86,-166.63 289.28,-192.93 329.2,-211.53"/>
<polygon fill="black" stroke="black" points="327.92,-214.8 338.46,-215.85 330.88,-208.46 327.92,-214.8"/>
</g>
<!-- GeographicAreasGeographicItem&#45;&gt;Role -->
<g id="edge2" class="edge">
<title>GeographicAreasGeographicItem&#45;&gt;Role</title>
<path fill="none" stroke="black" d="M227.39,-145.04C266.31,-154.11 310.89,-164.5 341.27,-171.58"/>
<polygon fill="black" stroke="black" points="340.86,-175.08 351.39,-173.94 342.44,-168.26 340.86,-175.08"/>
</g>
<!-- GeographicAreasGeographicItem&#45;&gt;VerifierRole -->
<g id="edge3" class="edge">
<title>GeographicAreasGeographicItem&#45;&gt;VerifierRole</title>
<path fill="none" stroke="black" d="M289.47,-126C302.62,-126 315.25,-126 326.64,-126"/>
<polygon fill="black" stroke="black" points="326.73,-129.5 336.73,-126 326.73,-122.5 326.73,-129.5"/>
</g>
<!-- GeographicAreasGeographicItem&#45;&gt;GeographicArea -->
<g id="edge5" class="edge">
<title>GeographicAreasGeographicItem&#45;&gt;GeographicArea</title>
<path fill="none" stroke="black" stroke-dasharray="5,2" d="M237.42,-104.62C267.3,-97.66 299.42,-90.17 325.34,-84.13"/>
<polygon fill="black" stroke="black" points="236.33,-101.28 227.39,-106.96 237.92,-108.1 236.33,-101.28"/>
</g>
<!-- GeographicAreasGeographicItem&#45;&gt;GeographicItem -->
<g id="edge6" class="edge">
<title>GeographicAreasGeographicItem&#45;&gt;GeographicItem</title>
<path fill="none" stroke="black" stroke-dasharray="5,2" d="M202.47,-99.54C244.7,-79.85 301.25,-53.5 338.46,-36.15"/>
<polygon fill="black" stroke="black" points="200.73,-96.49 193.15,-103.88 203.69,-102.83 200.73,-96.49"/>
</g>
<!-- Role&#45;&gt;Verifier -->
<!-- VerifierRole&#45;&gt;Verifier -->
<g id="edge4" class="edge">
<title>VerifierRole&#45;&gt;Verifier</title>
<path fill="none" stroke="black" stroke-dasharray="1,5" d="M420.12,-135.52C432.17,-138.34 445.32,-141.41 457.17,-144.18"/>
<polygon fill="black" stroke="black" points="456.67,-147.66 467.2,-146.53 458.26,-140.84 456.67,-147.66"/>
</g>
<!-- GeographicAreasGeographicItem -->
<g id="node1" class="node">
<title>GeographicAreasGeographicItem</title>
<g id="a_node1"><a xlink:href="/develop/Data/models.html#geographic-areas-geographic-item" xlink:title="GeographicAreasGeographicItem" target="_top">
<polygon fill="#cdefab" stroke="#dedede" points="285.59,-118.54 285.59,-133.46 203.06,-144 86.34,-144 3.81,-133.46 3.81,-118.54 86.34,-108 203.06,-108 285.59,-118.54"/>
<polygon fill="none" stroke="#dedede" points="289.6,-115.02 289.6,-136.98 203.31,-148 86.08,-148 -0.2,-136.98 -0.2,-115.02 86.08,-104 203.31,-104 289.6,-115.02"/>
<text text-anchor="middle" x="144.7" y="-122.3" font-family="Times,serif" font-size="14.00">GeographicAreasGeographicItem</text>
</a>
</g>
</g>
<!-- PinboardItem -->
<g id="node2" class="node">
<title>PinboardItem</title>
<g id="a_node2"><a xlink:href="/develop/Data/models.html#pinboard-item" xlink:title="PinboardItem" target="_top">
<polygon fill="#eeefff" stroke="#dddeee" points="423.9,-252 332.9,-252 332.9,-216 423.9,-216 423.9,-252"/>
<text text-anchor="middle" x="378.4" y="-230.3" font-family="Times,serif" font-size="14.00">PinboardItem</text>
</a>
</g>
</g>
<!-- Role -->
<g id="node3" class="node">
<title>Role</title>
<g id="a_node3"><a xlink:href="/develop/Data/models.html#role" xlink:title="Role" target="_top">
<polygon fill="#eeefff" stroke="#dddeee" points="405.4,-198 351.4,-198 351.4,-162 405.4,-162 405.4,-198"/>
<text text-anchor="middle" x="378.4" y="-176.3" font-family="Times,serif" font-size="14.00">Role</text>
</a>
</g>
</g>
<!-- VerifierRole -->
<g id="node4" class="node">
<title>VerifierRole</title>
<g id="a_node4"><a xlink:href="/develop/Data/models.html#verifier-role" xlink:title="VerifierRole" target="_top">
<polygon fill="#eeefff" stroke="#dddeee" points="419.9,-144 336.9,-144 336.9,-108 419.9,-108 419.9,-144"/>
<text text-anchor="middle" x="378.4" y="-122.3" font-family="Times,serif" font-size="14.00">VerifierRole</text>
</a>
</g>
</g>
<!-- Verifier -->
<g id="node5" class="node">
<title>Verifier</title>
<g id="a_node5"><a xlink:href="/develop/Data/models.html#verifier" xlink:title="Verifier" target="_top">
<polygon fill="#eeefff" stroke="#dddeee" points="524.4,-171 467.4,-171 467.4,-135 524.4,-135 524.4,-171"/>
<text text-anchor="middle" x="495.9" y="-149.3" font-family="Times,serif" font-size="14.00">Verifier</text>
</a>
</g>
</g>
<!-- GeographicArea -->
<g id="node6" class="node">
<title>GeographicArea</title>
<g id="a_node6"><a xlink:href="/develop/Data/models.html#geographic-area" xlink:title="GeographicArea" target="_top">
<polygon fill="#eeefff" stroke="#dddeee" points="431.4,-90 325.4,-90 325.4,-54 431.4,-54 431.4,-90"/>
<text text-anchor="middle" x="378.4" y="-68.3" font-family="Times,serif" font-size="14.00">GeographicArea</text>
</a>
</g>
</g>
<!-- GeographicItem -->
<g id="node7" class="node">
<title>GeographicItem</title>
<g id="a_node7"><a xlink:href="/develop/Data/models.html#geographic-item" xlink:title="GeographicItem" target="_top">
<polygon fill="#eeefff" stroke="#dddeee" points="430.9,-36 325.9,-36 325.9,0 430.9,0 430.9,-36"/>
<text text-anchor="middle" x="378.4" y="-14.3" font-family="Times,serif" font-size="14.00">GeographicItem</text>
</a>
</g>
</g>
</g>
</svg>
