<?xml version="1.0" encoding="UTF-8" standalone="no"?>
<!DOCTYPE svg PUBLIC "-//W3C//DTD SVG 1.1//EN"
 "http://www.w3.org/Graphics/SVG/1.1/DTD/svg11.dtd">
<!-- Generated by graphviz version 2.50.0 (20211204.2007)
 -->
<!-- Title: GeographicAreasGeographicItem Pages: 1 -->
<svg width="769pt" height="298pt"
 viewBox="0.00 0.00 769.00 298.00" xmlns="http://www.w3.org/2000/svg" xmlns:xlink="http://www.w3.org/1999/xlink">
<g id="graph0" class="graph" transform="scale(1 1) rotate(0) translate(4 294)">
<title>GeographicAreasGeographicItem</title>
<polygon fill="white" stroke="transparent" points="-4,4 -4,-294 765,-294 765,4 -4,4"/>
<text text-anchor="middle" x="380.5" y="-22.8" font-family="Times,serif" font-size="14.00">Algorithmically generated relationships for GeographicAreasGeographicItem based on assertions of &#39;has_many&#39;, &#39;has_one&#39;, &#39;belongs_to&#39;. </text>
<text text-anchor="middle" x="380.5" y="-7.8" font-family="Times,serif" font-size="14.00">Generated 2022&#45;01&#45;25 11:43:17 &#45;0600.</text>
<!-- GeographicAreasGeographicItem&#45;&gt;PinboardItem -->
<g id="edge1" class="edge">
<title>GeographicAreasGeographicItem&#45;&gt;PinboardItem</title>
<path fill="none" stroke="black" d="M311.45,-186.12C351.16,-204.63 407.58,-230.93 447.5,-249.53"/>
<polygon fill="black" stroke="black" points="446.22,-252.8 456.77,-253.85 449.18,-246.46 446.22,-252.8"/>
</g>
<!-- GeographicAreasGeographicItem&#45;&gt;Role -->
<g id="edge2" class="edge">
<title>GeographicAreasGeographicItem&#45;&gt;Role</title>
<path fill="none" stroke="black" d="M345.69,-183.04C384.61,-192.11 429.19,-202.5 459.57,-209.58"/>
<polygon fill="black" stroke="black" points="459.16,-213.08 469.69,-211.94 460.75,-206.26 459.16,-213.08"/>
</g>
<!-- GeographicAreasGeographicItem&#45;&gt;VerifierRole -->
<g id="edge3" class="edge">
<title>GeographicAreasGeographicItem&#45;&gt;VerifierRole</title>
<path fill="none" stroke="black" d="M407.77,-164C420.92,-164 433.55,-164 444.94,-164"/>
<polygon fill="black" stroke="black" points="445.03,-167.5 455.03,-164 445.03,-160.5 445.03,-167.5"/>
</g>
<!-- GeographicAreasGeographicItem&#45;&gt;GeographicArea -->
<g id="edge5" class="edge">
<title>GeographicAreasGeographicItem&#45;&gt;GeographicArea</title>
<path fill="none" stroke="black" stroke-dasharray="5,2" d="M355.72,-142.62C385.6,-135.66 417.72,-128.17 443.64,-122.13"/>
<polygon fill="black" stroke="black" points="354.63,-139.28 345.69,-144.96 356.22,-146.1 354.63,-139.28"/>
</g>
<!-- GeographicAreasGeographicItem&#45;&gt;GeographicItem -->
<g id="edge6" class="edge">
<title>GeographicAreasGeographicItem&#45;&gt;GeographicItem</title>
<path fill="none" stroke="black" stroke-dasharray="5,2" d="M320.77,-137.54C363.01,-117.85 419.55,-91.5 456.77,-74.15"/>
<polygon fill="black" stroke="black" points="319.03,-134.49 311.45,-141.88 321.99,-140.83 319.03,-134.49"/>
</g>
<!-- Role&#45;&gt;Verifier -->
<!-- VerifierRole&#45;&gt;Verifier -->
<g id="edge4" class="edge">
<title>VerifierRole&#45;&gt;Verifier</title>
<path fill="none" stroke="black" d="M538.42,-173.52C550.48,-176.34 563.62,-179.41 575.48,-182.18"/>
<polygon fill="black" stroke="black" points="574.97,-185.66 585.51,-184.53 576.57,-178.84 574.97,-185.66"/>
</g>
<!-- GeographicAreasGeographicItem -->
<g id="node1" class="node">
<title>GeographicAreasGeographicItem</title>
<g id="a_node1"><a xlink:href="/develop/Data/models.html#geographic-areas-geographic-item" xlink:title="GeographicAreasGeographicItem" target="_top">
<polygon fill="#cdefab" stroke="#dedede" points="403.89,-156.54 403.89,-171.46 321.36,-182 204.64,-182 122.11,-171.46 122.11,-156.54 204.64,-146 321.36,-146 403.89,-156.54"/>
<polygon fill="none" stroke="#dedede" points="407.9,-153.02 407.9,-174.98 321.61,-186 204.39,-186 118.1,-174.98 118.1,-153.02 204.39,-142 321.61,-142 407.9,-153.02"/>
<text text-anchor="middle" x="263" y="-160.3" font-family="Times,serif" font-size="14.00">GeographicAreasGeographicItem</text>
</a>
</g>
</g>
<!-- PinboardItem -->
<g id="node2" class="node">
<title>PinboardItem</title>
<g id="a_node2"><a xlink:href="/develop/Data/models.html#pinboard-item" xlink:title="PinboardItem" target="_top">
<polygon fill="#eeefff" stroke="#dddeee" points="542.2,-290 451.2,-290 451.2,-254 542.2,-254 542.2,-290"/>
<text text-anchor="middle" x="496.7" y="-268.3" font-family="Times,serif" font-size="14.00">PinboardItem</text>
</a>
</g>
</g>
<!-- Role -->
<g id="node3" class="node">
<title>Role</title>
<g id="a_node3"><a xlink:href="/develop/Data/models.html#role" xlink:title="Role" target="_top">
<polygon fill="#eeefff" stroke="#dddeee" points="523.7,-236 469.7,-236 469.7,-200 523.7,-200 523.7,-236"/>
<text text-anchor="middle" x="496.7" y="-214.3" font-family="Times,serif" font-size="14.00">Role</text>
</a>
</g>
</g>
<!-- VerifierRole -->
<g id="node4" class="node">
<title>VerifierRole</title>
<g id="a_node4"><a xlink:href="/develop/Data/models.html#verifier-role" xlink:title="VerifierRole" target="_top">
<polygon fill="#eeefff" stroke="#dddeee" points="538.2,-182 455.2,-182 455.2,-146 538.2,-146 538.2,-182"/>
<text text-anchor="middle" x="496.7" y="-160.3" font-family="Times,serif" font-size="14.00">VerifierRole</text>
</a>
</g>
</g>
<!-- Verifier -->
<g id="node5" class="node">
<title>Verifier</title>
<g id="a_node5"><a xlink:href="/develop/Data/models.html#verifier" xlink:title="Verifier" target="_top">
<polygon fill="#eeefff" stroke="#dddeee" points="642.7,-209 585.7,-209 585.7,-173 642.7,-173 642.7,-209"/>
<text text-anchor="middle" x="614.2" y="-187.3" font-family="Times,serif" font-size="14.00">Verifier</text>
</a>
</g>
</g>
<!-- GeographicArea -->
<g id="node6" class="node">
<title>GeographicArea</title>
<g id="a_node6"><a xlink:href="/develop/Data/models.html#geographic-area" xlink:title="GeographicArea" target="_top">
<polygon fill="#eeefff" stroke="#dddeee" points="549.7,-128 443.7,-128 443.7,-92 549.7,-92 549.7,-128"/>
<text text-anchor="middle" x="496.7" y="-106.3" font-family="Times,serif" font-size="14.00">GeographicArea</text>
</a>
</g>
</g>
<!-- GeographicItem -->
<g id="node7" class="node">
<title>GeographicItem</title>
<g id="a_node7"><a xlink:href="/develop/Data/models.html#geographic-item" xlink:title="GeographicItem" target="_top">
<polygon fill="#eeefff" stroke="#dddeee" points="549.2,-74 444.2,-74 444.2,-38 549.2,-38 549.2,-74"/>
<text text-anchor="middle" x="496.7" y="-52.3" font-family="Times,serif" font-size="14.00">GeographicItem</text>
</a>
</g>
</g>
</g>
</svg>
