<?xml version="1.0" encoding="UTF-8" standalone="no"?>
<!DOCTYPE svg PUBLIC "-//W3C//DTD SVG 1.1//EN"
 "http://www.w3.org/Graphics/SVG/1.1/DTD/svg11.dtd">
<!-- Generated by graphviz version 2.50.0 (20211204.2007)
 -->
<!-- Title: GeographicItem Pages: 1 -->
<svg width="1016pt" height="621pt"
 viewBox="0.00 0.00 1015.73 620.79" xmlns="http://www.w3.org/2000/svg" xmlns:xlink="http://www.w3.org/1999/xlink">
<g id="graph0" class="graph" transform="scale(1 1) rotate(0) translate(4 616.79)">
<title>GeographicItem</title>
<polygon fill="white" stroke="transparent" points="-4,4 -4,-616.79 1011.73,-616.79 1011.73,4 -4,4"/>
<text text-anchor="middle" x="503.87" y="-22.8" font-family="Times,serif" font-size="14.00">Algorithmically generated relationships for GeographicItem based on assertions of &#39;has_many&#39;, &#39;has_one&#39;, &#39;belongs_to&#39;. </text>
<text text-anchor="middle" x="503.87" y="-7.8" font-family="Times,serif" font-size="14.00">Generated 2022&#45;01&#45;25 11:37:52 &#45;0600.</text>
<!-- GeographicItem&#45;&gt;GeoreferencesThroughErrorGeographicItem -->
<g id="edge8" class="edge">
<title>GeographicItem&#45;&gt;GeoreferencesThroughErrorGeographicItem</title>
<path fill="none" stroke="black" d="M82.39,-346.99C91.27,-395.29 119.29,-510.17 191.73,-567.79 193.3,-569.03 194.91,-570.23 196.56,-571.37"/>
<polygon fill="black" stroke="black" points="194.76,-574.37 205.11,-576.65 198.44,-568.42 194.76,-574.37"/>
</g>
<!-- GeographicItem&#45;&gt;Georeference -->
<g id="edge7" class="edge">
<title>GeographicItem&#45;&gt;Georeference</title>
<path fill="none" stroke="black" d="M85.51,-346.95C98.74,-387.04 132.33,-471.36 191.73,-513.79 213.16,-529.09 241.43,-536.07 265.96,-539.13"/>
<polygon fill="black" stroke="black" points="265.89,-542.64 276.2,-540.21 266.63,-535.68 265.89,-542.64"/>
</g>
<!-- GeographicItem&#45;&gt;GadmGeographicArea -->
<g id="edge3" class="edge">
<title>GeographicItem&#45;&gt;GadmGeographicArea</title>
<path fill="none" stroke="black" d="M90.94,-346.95C108.77,-377.45 145.13,-431.78 191.73,-459.79 206.46,-468.64 223.66,-474.62 240.59,-478.65"/>
<polygon fill="black" stroke="black" points="239.99,-482.1 250.5,-480.8 241.47,-475.26 239.99,-482.1"/>
</g>
<!-- GeographicItem&#45;&gt;GeographicAreasGeographicItem -->
<g id="edge6" class="edge">
<title>GeographicItem&#45;&gt;GeographicAreasGeographicItem</title>
<path fill="none" stroke="black" d="M103.43,-347.08C125.13,-365.56 158.41,-391.1 191.73,-405.79 197.88,-408.5 204.31,-410.94 210.88,-413.14"/>
<polygon fill="black" stroke="black" points="210,-416.53 220.59,-416.2 212.1,-409.86 210,-416.53"/>
</g>
<!-- GeographicItem&#45;&gt;NeGeographicArea -->
<g id="edge9" class="edge">
<title>GeographicItem&#45;&gt;NeGeographicArea</title>
<path fill="none" stroke="black" d="M139.13,-339.52C156.12,-343.59 174.63,-347.94 191.73,-351.79 210.42,-355.99 230.69,-360.36 249.47,-364.32"/>
<polygon fill="black" stroke="black" points="248.92,-367.78 259.43,-366.42 250.36,-360.93 248.92,-367.78"/>
</g>
<!-- GeographicItem&#45;&gt;PinboardItem -->
<g id="edge11" class="edge">
<title>GeographicItem&#45;&gt;PinboardItem</title>
<path fill="none" stroke="black" d="M155.74,-324.79C191.27,-324.79 232.65,-324.79 264.95,-324.79"/>
<polygon fill="black" stroke="black" points="265.1,-328.29 275.1,-324.79 265.1,-321.29 265.1,-328.29"/>
</g>
<!-- GeographicItem&#45;&gt;Role -->
<g id="edge12" class="edge">
<title>GeographicItem&#45;&gt;Role</title>
<path fill="none" stroke="black" d="M139.13,-310.06C156.12,-305.99 174.63,-301.64 191.73,-297.79 222.7,-290.82 258,-283.41 283.67,-278.12"/>
<polygon fill="black" stroke="black" points="284.61,-281.51 293.7,-276.07 283.2,-274.65 284.61,-281.51"/>
</g>
<!-- GeographicItem&#45;&gt;TdwgGeographicArea -->
<g id="edge13" class="edge">
<title>GeographicItem&#45;&gt;TdwgGeographicArea</title>
<path fill="none" stroke="black" d="M103.43,-302.5C125.13,-284.02 158.41,-258.48 191.73,-243.79 207.46,-236.86 225.06,-231.67 242.07,-227.79"/>
<polygon fill="black" stroke="black" points="242.95,-231.18 251.99,-225.66 241.48,-224.34 242.95,-231.18"/>
</g>
<!-- GeographicItem&#45;&gt;VerifierRole -->
<g id="edge14" class="edge">
<title>GeographicItem&#45;&gt;VerifierRole</title>
<path fill="none" stroke="black" d="M90.94,-302.63C108.77,-272.13 145.13,-217.8 191.73,-189.79 215,-175.8 244.45,-168.99 269.23,-165.7"/>
<polygon fill="black" stroke="black" points="269.65,-169.18 279.18,-164.54 268.84,-162.23 269.65,-169.18"/>
</g>
<!-- GeographicItem&#45;&gt;Creator -->
<g id="edge16" class="edge">
<title>GeographicItem&#45;&gt;Creator</title>
<path fill="none" stroke="black" stroke-dasharray="5,2" d="M88.8,-293.01C103.87,-250.25 136.74,-175.06 191.73,-135.79 221.49,-114.54 264.44,-109.34 292.23,-108.4"/>
<polygon fill="black" stroke="black" points="85.43,-292.03 85.51,-302.63 92.05,-294.29 85.43,-292.03"/>
</g>
<!-- GeographicItem&#45;&gt;Updater -->
<g id="edge17" class="edge">
<title>GeographicItem&#45;&gt;Updater</title>
<path fill="none" stroke="black" stroke-dasharray="5,2" d="M82.93,-292.39C91.71,-237.79 118.03,-128.82 191.73,-81.79 333.14,8.45 550.55,-64.9 628.59,-96.28"/>
<polygon fill="black" stroke="black" points="79.43,-292.14 81.4,-302.55 86.35,-293.18 79.43,-292.14"/>
</g>
<!-- GeoreferencesThroughErrorGeographicItem&#45;&gt;CollectingEventsThroughGeoreferenceErrorGeographicItem -->
<g id="edge1" class="edge">
<title>GeoreferencesThroughErrorGeographicItem&#45;&gt;CollectingEventsThroughGeoreferenceErrorGeographicItem</title>
<path fill="none" stroke="black" d="M450.2,-594.79C458.52,-594.79 466.98,-594.79 475.49,-594.79"/>
<polygon fill="black" stroke="black" points="475.49,-598.29 485.49,-594.79 475.49,-591.29 475.49,-598.29"/>
</g>
<!-- Georeference&#45;&gt;CollectingEventsThroughGeoreference -->
<g id="edge2" class="edge">
<title>Georeference&#45;&gt;CollectingEventsThroughGeoreference</title>
<path fill="none" stroke="black" d="M365.32,-540.79C407.95,-540.79 474.91,-540.79 534,-540.79"/>
<polygon fill="black" stroke="black" points="534.17,-544.29 544.17,-540.79 534.17,-537.29 534.17,-544.29"/>
</g>
<!-- GeographicArea&#45;&gt;GeographicAreaType -->
<g id="edge4" class="edge">
<title>GeographicArea&#45;&gt;GeographicAreaType</title>
<path fill="none" stroke="black" d="M711.84,-437.87C753.74,-441.95 813.21,-447.75 860.47,-452.35"/>
<polygon fill="black" stroke="black" points="860.38,-455.86 870.67,-453.35 861.06,-448.89 860.38,-455.86"/>
</g>
<!-- GeographicArea&#45;&gt;ParentGeographicArea -->
<g id="edge10" class="edge">
<title>GeographicArea&#45;&gt;ParentGeographicArea</title>
<path fill="none" stroke="black" d="M711.84,-427.71C752.86,-423.71 810.73,-418.07 857.49,-413.51"/>
<polygon fill="black" stroke="black" points="857.98,-416.98 867.6,-412.53 857.3,-410.01 857.98,-416.98"/>
</g>
<!-- GeographicAreasGeographicItem&#45;&gt;GeographicArea -->
<g id="edge5" class="edge">
<title>GeographicAreasGeographicItem&#45;&gt;GeographicArea</title>
<path fill="none" stroke="black" d="M421.18,-432.79C477.55,-432.79 546.34,-432.79 595.18,-432.79"/>
<polygon fill="black" stroke="black" points="595.29,-436.29 605.29,-432.79 595.29,-429.29 595.29,-436.29"/>
</g>
<!-- Role&#45;&gt;Verifier -->
<!-- VerifierRole&#45;&gt;Verifier -->
<g id="edge15" class="edge">
<title>VerifierRole&#45;&gt;Verifier</title>
<path fill="none" stroke="black" d="M362.26,-169.3C427.9,-179.85 556.52,-200.52 620.19,-210.75"/>
<polygon fill="black" stroke="black" points="619.77,-214.23 630.2,-212.36 620.88,-207.32 619.77,-214.23"/>
</g>
<!-- Creator&#45;&gt;Updater -->
<!-- GeographicItem -->
<g id="node1" class="node">
<title>GeographicItem</title>
<g id="a_node1"><a xlink:href="/develop/Data/models.html#geographic-item" xlink:title="GeographicItem" target="_top">
<polygon fill="#cdefab" stroke="#dedede" points="151.61,-317.33 151.61,-332.24 108.41,-342.79 47.32,-342.79 4.13,-332.24 4.13,-317.33 47.32,-306.79 108.41,-306.79 151.61,-317.33"/>
<polygon fill="none" stroke="#dedede" points="155.6,-314.19 155.6,-335.39 108.89,-346.79 46.84,-346.79 0.13,-335.39 0.13,-314.19 46.84,-302.79 108.89,-302.79 155.6,-314.19"/>
<text text-anchor="middle" x="77.87" y="-321.09" font-family="Times,serif" font-size="14.00">GeographicItem</text>
</a>
</g>
</g>
<!-- GeoreferencesThroughErrorGeographicItem -->
<g id="node2" class="node">
<title>GeoreferencesThroughErrorGeographicItem</title>
<g id="a_node2"><a xlink:href="/develop/Data/models.html#georeferences-through-error-geographic-item" xlink:title="GeoreferencesThroughErrorGeographicItem" target="_top">
<polygon fill="#eeefff" stroke="#dddeee" points="449.73,-612.79 191.73,-612.79 191.73,-576.79 449.73,-576.79 449.73,-612.79"/>
<text text-anchor="middle" x="320.73" y="-591.09" font-family="Times,serif" font-size="14.00">GeoreferencesThroughErrorGeographicItem</text>
</a>
</g>
</g>
<!-- CollectingEventsThroughGeoreferenceErrorGeographicItem -->
<g id="node3" class="node">
<title>CollectingEventsThroughGeoreferenceErrorGeographicItem</title>
<g id="a_node3"><a xlink:href="/develop/Data/models.html#collecting-events-through-georeference-error-geographic-item" xlink:title="CollectingEventsThroughGeoreferenceErrorGeographicItem" target="_top">
<polygon fill="#eeefff" stroke="#dddeee" points="831.73,-612.79 485.73,-612.79 485.73,-576.79 831.73,-576.79 831.73,-612.79"/>
<text text-anchor="middle" x="658.73" y="-591.09" font-family="Times,serif" font-size="14.00">CollectingEventsThroughGeoreferenceErrorGeographicItem</text>
</a>
</g>
</g>
<!-- Georeference -->
<g id="node4" class="node">
<title>Georeference</title>
<g id="a_node4"><a xlink:href="/develop/Data/models.html#georeference" xlink:title="Georeference" target="_top">
<polygon fill="#eeefff" stroke="#dddeee" points="365.23,-558.79 276.23,-558.79 276.23,-522.79 365.23,-522.79 365.23,-558.79"/>
<text text-anchor="middle" x="320.73" y="-537.09" font-family="Times,serif" font-size="14.00">Georeference</text>
</a>
</g>
</g>
<!-- CollectingEventsThroughGeoreference -->
<g id="node5" class="node">
<title>CollectingEventsThroughGeoreference</title>
<g id="a_node5"><a xlink:href="/develop/Data/models.html#collecting-events-through-georeference" xlink:title="CollectingEventsThroughGeoreference" target="_top">
<polygon fill="#eeefff" stroke="#dddeee" points="773.23,-558.79 544.23,-558.79 544.23,-522.79 773.23,-522.79 773.23,-558.79"/>
<text text-anchor="middle" x="658.73" y="-537.09" font-family="Times,serif" font-size="14.00">CollectingEventsThroughGeoreference</text>
</a>
</g>
</g>
<!-- GadmGeographicArea -->
<g id="node6" class="node">
<title>GadmGeographicArea</title>
<g id="a_node6"><a xlink:href="/develop/Data/models.html#gadm-geographic-area" xlink:title="GadmGeographicArea" target="_top">
<polygon fill="#eeefff" stroke="#dddeee" points="390.73,-504.79 250.73,-504.79 250.73,-468.79 390.73,-468.79 390.73,-504.79"/>
<text text-anchor="middle" x="320.73" y="-483.09" font-family="Times,serif" font-size="14.00">GadmGeographicArea</text>
</a>
</g>
</g>
<!-- GeographicArea -->
<g id="node7" class="node">
<title>GeographicArea</title>
<g id="a_node7"><a xlink:href="/develop/Data/models.html#geographic-area" xlink:title="GeographicArea" target="_top">
<polygon fill="#eeefff" stroke="#dddeee" points="711.73,-450.79 605.73,-450.79 605.73,-414.79 711.73,-414.79 711.73,-450.79"/>
<text text-anchor="middle" x="658.73" y="-429.09" font-family="Times,serif" font-size="14.00">GeographicArea</text>
</a>
</g>
</g>
<!-- GeographicAreaType -->
<g id="node8" class="node">
<title>GeographicAreaType</title>
<g id="a_node8"><a xlink:href="/develop/Data/models.html#geographic-area-type" xlink:title="GeographicAreaType" target="_top">
<polygon fill="#eeefff" stroke="#dddeee" points="1004.73,-477.79 870.73,-477.79 870.73,-441.79 1004.73,-441.79 1004.73,-477.79"/>
<text text-anchor="middle" x="937.73" y="-456.09" font-family="Times,serif" font-size="14.00">GeographicAreaType</text>
</a>
</g>
</g>
<!-- GeographicAreasGeographicItem -->
<g id="node9" class="node">
<title>GeographicAreasGeographicItem</title>
<g id="a_node9"><a xlink:href="/develop/Data/models.html#geographic-areas-geographic-item" xlink:title="GeographicAreasGeographicItem" target="_top">
<polygon fill="#eeefff" stroke="#dddeee" points="420.73,-450.79 220.73,-450.79 220.73,-414.79 420.73,-414.79 420.73,-450.79"/>
<text text-anchor="middle" x="320.73" y="-429.09" font-family="Times,serif" font-size="14.00">GeographicAreasGeographicItem</text>
</a>
</g>
</g>
<!-- NeGeographicArea -->
<g id="node10" class="node">
<title>NeGeographicArea</title>
<g id="a_node10"><a xlink:href="/develop/Data/models.html#ne-geographic-area" xlink:title="NeGeographicArea" target="_top">
<polygon fill="#eeefff" stroke="#dddeee" points="381.73,-396.79 259.73,-396.79 259.73,-360.79 381.73,-360.79 381.73,-396.79"/>
<text text-anchor="middle" x="320.73" y="-375.09" font-family="Times,serif" font-size="14.00">NeGeographicArea</text>
</a>
</g>
</g>
<!-- ParentGeographicArea -->
<g id="node11" class="node">
<title>ParentGeographicArea</title>
<g id="a_node11"><a xlink:href="/develop/Data/models.html#parent-geographic-area" xlink:title="ParentGeographicArea" target="_top">
<polygon fill="#eeefff" stroke="#dddeee" points="1007.73,-423.79 867.73,-423.79 867.73,-387.79 1007.73,-387.79 1007.73,-423.79"/>
<text text-anchor="middle" x="937.73" y="-402.09" font-family="Times,serif" font-size="14.00">ParentGeographicArea</text>
</a>
</g>
</g>
<!-- PinboardItem -->
<g id="node12" class="node">
<title>PinboardItem</title>
<g id="a_node12"><a xlink:href="/develop/Data/models.html#pinboard-item" xlink:title="PinboardItem" target="_top">
<polygon fill="#eeefff" stroke="#dddeee" points="366.23,-342.79 275.23,-342.79 275.23,-306.79 366.23,-306.79 366.23,-342.79"/>
<text text-anchor="middle" x="320.73" y="-321.09" font-family="Times,serif" font-size="14.00">PinboardItem</text>
</a>
</g>
</g>
<!-- Role -->
<g id="node13" class="node">
<title>Role</title>
<g id="a_node13"><a xlink:href="/develop/Data/models.html#role" xlink:title="Role" target="_top">
<polygon fill="#eeefff" stroke="#dddeee" points="347.73,-288.79 293.73,-288.79 293.73,-252.79 347.73,-252.79 347.73,-288.79"/>
<text text-anchor="middle" x="320.73" y="-267.09" font-family="Times,serif" font-size="14.00">Role</text>
</a>
</g>
</g>
<!-- TdwgGeographicArea -->
<g id="node14" class="node">
<title>TdwgGeographicArea</title>
<g id="a_node14"><a xlink:href="/develop/Data/models.html#tdwg-geographic-area" xlink:title="TdwgGeographicArea" target="_top">
<polygon fill="#eeefff" stroke="#dddeee" points="389.23,-234.79 252.23,-234.79 252.23,-198.79 389.23,-198.79 389.23,-234.79"/>
<text text-anchor="middle" x="320.73" y="-213.09" font-family="Times,serif" font-size="14.00">TdwgGeographicArea</text>
</a>
</g>
</g>
<!-- VerifierRole -->
<g id="node15" class="node">
<title>VerifierRole</title>
<g id="a_node15"><a xlink:href="/develop/Data/models.html#verifier-role" xlink:title="VerifierRole" target="_top">
<polygon fill="#eeefff" stroke="#dddeee" points="362.23,-180.79 279.23,-180.79 279.23,-144.79 362.23,-144.79 362.23,-180.79"/>
<text text-anchor="middle" x="320.73" y="-159.09" font-family="Times,serif" font-size="14.00">VerifierRole</text>
</a>
</g>
</g>
<!-- Verifier -->
<g id="node16" class="node">
<title>Verifier</title>
<g id="a_node16"><a xlink:href="/develop/Data/models.html#verifier" xlink:title="Verifier" target="_top">
<polygon fill="#eeefff" stroke="#dddeee" points="687.23,-234.79 630.23,-234.79 630.23,-198.79 687.23,-198.79 687.23,-234.79"/>
<text text-anchor="middle" x="658.73" y="-213.09" font-family="Times,serif" font-size="14.00">Verifier</text>
</a>
</g>
</g>
<!-- Creator -->
<g id="node17" class="node">
<title>Creator</title>
<g id="a_node17"><a xlink:href="/develop/Data/models.html#creator" xlink:title="Creator" target="_top">
<polygon fill="#eeefff" stroke="#dddeee" points="349.23,-126.79 292.23,-126.79 292.23,-90.79 349.23,-90.79 349.23,-126.79"/>
<text text-anchor="middle" x="320.73" y="-105.09" font-family="Times,serif" font-size="14.00">Creator</text>
</a>
</g>
</g>
<!-- Updater -->
<g id="node18" class="node">
<title>Updater</title>
<g id="a_node18"><a xlink:href="/develop/Data/models.html#updater" xlink:title="Updater" target="_top">
<polygon fill="#eeefff" stroke="#dddeee" points="688.73,-126.79 628.73,-126.79 628.73,-90.79 688.73,-90.79 688.73,-126.79"/>
<text text-anchor="middle" x="658.73" y="-105.09" font-family="Times,serif" font-size="14.00">Updater</text>
</a>
</g>
</g>
</g>
</svg>
