<?xml version="1.0" encoding="UTF-8" standalone="no"?>
<!DOCTYPE svg PUBLIC "-//W3C//DTD SVG 1.1//EN"
 "http://www.w3.org/Graphics/SVG/1.1/DTD/svg11.dtd">
<!-- Generated by graphviz version 2.50.0 (20211204.2007)
 -->
<!-- Title: GeographicAreaType Pages: 1 -->
<svg width="443pt" height="279pt"
 viewBox="0.00 0.00 442.54 278.76" xmlns="http://www.w3.org/2000/svg" xmlns:xlink="http://www.w3.org/1999/xlink">
<g id="graph0" class="graph" transform="scale(1 1) rotate(0) translate(4 274.76)">
<title>GeographicAreaType</title>
<polygon fill="white" stroke="transparent" points="-4,4 -4,-274.76 438.54,-274.76 438.54,4 -4,4"/>
<!-- GeographicAreaType&#45;&gt;GeographicArea -->
<g id="edge1" class="edge">
<title>GeographicAreaType&#45;&gt;GeographicArea</title>
<path fill="none" stroke="black" d="M123.65,-140.06C149.53,-163.1 192.18,-199.32 232.54,-225.76 234.44,-227.01 236.4,-228.24 238.41,-229.46"/>
<polygon fill="black" stroke="black" points="236.95,-232.66 247.36,-234.64 240.46,-226.6 236.95,-232.66"/>
</g>
<!-- GeographicAreaType&#45;&gt;PinboardItem -->
<g id="edge2" class="edge">
<title>GeographicAreaType&#45;&gt;PinboardItem</title>
<path fill="none" stroke="black" d="M146.02,-138.2C172.77,-149.9 206.36,-164.58 233.76,-176.56"/>
<polygon fill="black" stroke="black" points="232.6,-179.88 243.17,-180.68 235.41,-173.46 232.6,-179.88"/>
</g>
<!-- GeographicAreaType&#45;&gt;Role -->
<g id="edge3" class="edge">
<title>GeographicAreaType&#45;&gt;Role</title>
<path fill="none" stroke="black" d="M186.48,-130.47C208.29,-133.65 230.5,-136.89 248.26,-139.48"/>
<polygon fill="black" stroke="black" points="247.76,-142.94 258.16,-140.92 248.77,-136.01 247.76,-142.94"/>
</g>
<!-- GeographicAreaType&#45;&gt;VerifierRole -->
<g id="edge4" class="edge">
<title>GeographicAreaType&#45;&gt;VerifierRole</title>
<path fill="none" stroke="black" d="M186.48,-105.05C202.64,-102.7 219.02,-100.31 233.65,-98.18"/>
<polygon fill="black" stroke="black" points="234.57,-101.58 243.96,-96.68 233.56,-94.66 234.57,-101.58"/>
</g>
<!-- GeographicAreaType&#45;&gt;Creator -->
<g id="edge6" class="edge">
<title>GeographicAreaType&#45;&gt;Creator</title>
<path fill="none" stroke="black" stroke-dasharray="5,2" d="M155.27,-93.28C188.85,-78.6 230.08,-60.57 256.81,-48.88"/>
<polygon fill="black" stroke="black" points="153.78,-90.11 146.02,-97.32 156.58,-96.52 153.78,-90.11"/>
</g>
<!-- GeographicAreaType&#45;&gt;Updater -->
<g id="edge7" class="edge">
<title>GeographicAreaType&#45;&gt;Updater</title>
<path fill="none" stroke="black" stroke-dasharray="5,2" d="M124.51,-88.12C149.02,-61.82 188.85,-25.24 232.54,-9.76 276.94,5.97 292.33,-0.55 338.54,-9.76 350.64,-12.18 363.31,-16.89 374.22,-21.71"/>
<polygon fill="black" stroke="black" points="121.86,-85.83 117.71,-95.58 127.04,-90.54 121.86,-85.83"/>
</g>
<!-- Role&#45;&gt;Verifier -->
<!-- VerifierRole&#45;&gt;Verifier -->
<g id="edge5" class="edge">
<title>VerifierRole&#45;&gt;Verifier</title>
<path fill="none" stroke="black" stroke-dasharray="1,5" d="M327.13,-100.13C339.71,-103.03 353.51,-106.22 365.89,-109.07"/>
<polygon fill="black" stroke="black" points="365.35,-112.54 375.89,-111.38 366.93,-105.72 365.35,-112.54"/>
</g>
<!-- Creator&#45;&gt;Updater -->
<!-- GeographicAreaType -->
<g id="node1" class="node">
<title>GeographicAreaType</title>
<g id="a_node1"><a xlink:href="/develop/Data/models.html#geographic-area-type" xlink:title="GeographicAreaType" target="_top">
<polygon fill="#cdefab" stroke="#dedede" points="192.31,-110.31 192.31,-125.22 137.22,-135.76 59.31,-135.76 4.22,-125.22 4.22,-110.31 59.31,-99.76 137.22,-99.76 192.31,-110.31"/>
<polygon fill="none" stroke="#dedede" points="196.3,-107 196.3,-128.53 137.6,-139.76 58.94,-139.76 0.23,-128.53 0.23,-107 58.94,-95.76 137.6,-95.76 196.3,-107"/>
<text text-anchor="middle" x="98.27" y="-114.06" font-family="Times,serif" font-size="14.00">GeographicAreaType</text>
</a>
</g>
</g>
<!-- GeographicArea -->
<g id="node2" class="node">
<title>GeographicArea</title>
<g id="a_node2"><a xlink:href="/develop/Data/models.html#geographic-area" xlink:title="GeographicArea" target="_top">
<polygon fill="#eeefff" stroke="#dddeee" points="338.54,-270.76 232.54,-270.76 232.54,-234.76 338.54,-234.76 338.54,-270.76"/>
<text text-anchor="middle" x="285.54" y="-249.06" font-family="Times,serif" font-size="14.00">GeographicArea</text>
</a>
</g>
</g>
<!-- PinboardItem -->
<g id="node3" class="node">
<title>PinboardItem</title>
<g id="a_node3"><a xlink:href="/develop/Data/models.html#pinboard-item" xlink:title="PinboardItem" target="_top">
<polygon fill="#eeefff" stroke="#dddeee" points="331.04,-216.76 240.04,-216.76 240.04,-180.76 331.04,-180.76 331.04,-216.76"/>
<text text-anchor="middle" x="285.54" y="-195.06" font-family="Times,serif" font-size="14.00">PinboardItem</text>
</a>
</g>
</g>
<!-- Role -->
<g id="node4" class="node">
<title>Role</title>
<g id="a_node4"><a xlink:href="/develop/Data/models.html#role" xlink:title="Role" target="_top">
<polygon fill="#eeefff" stroke="#dddeee" points="312.54,-162.76 258.54,-162.76 258.54,-126.76 312.54,-126.76 312.54,-162.76"/>
<text text-anchor="middle" x="285.54" y="-141.06" font-family="Times,serif" font-size="14.00">Role</text>
</a>
</g>
</g>
<!-- VerifierRole -->
<g id="node5" class="node">
<title>VerifierRole</title>
<g id="a_node5"><a xlink:href="/develop/Data/models.html#verifier-role" xlink:title="VerifierRole" target="_top">
<polygon fill="#eeefff" stroke="#dddeee" points="327.04,-108.76 244.04,-108.76 244.04,-72.76 327.04,-72.76 327.04,-108.76"/>
<text text-anchor="middle" x="285.54" y="-87.06" font-family="Times,serif" font-size="14.00">VerifierRole</text>
</a>
</g>
</g>
<!-- Verifier -->
<g id="node6" class="node">
<title>Verifier</title>
<g id="a_node6"><a xlink:href="/develop/Data/models.html#verifier" xlink:title="Verifier" target="_top">
<polygon fill="#eeefff" stroke="#dddeee" points="433.04,-135.76 376.04,-135.76 376.04,-99.76 433.04,-99.76 433.04,-135.76"/>
<text text-anchor="middle" x="404.54" y="-114.06" font-family="Times,serif" font-size="14.00">Verifier</text>
</a>
</g>
</g>
<!-- Creator -->
<g id="node7" class="node">
<title>Creator</title>
<g id="a_node7"><a xlink:href="/develop/Data/models.html#creator" xlink:title="Creator" target="_top">
<polygon fill="#eeefff" stroke="#dddeee" points="314.04,-54.76 257.04,-54.76 257.04,-18.76 314.04,-18.76 314.04,-54.76"/>
<text text-anchor="middle" x="285.54" y="-33.06" font-family="Times,serif" font-size="14.00">Creator</text>
</a>
</g>
</g>
<!-- Updater -->
<g id="node8" class="node">
<title>Updater</title>
<g id="a_node8"><a xlink:href="/develop/Data/models.html#updater" xlink:title="Updater" target="_top">
<polygon fill="#eeefff" stroke="#dddeee" points="434.54,-54.76 374.54,-54.76 374.54,-18.76 434.54,-18.76 434.54,-54.76"/>
<text text-anchor="middle" x="404.54" y="-33.06" font-family="Times,serif" font-size="14.00">Updater</text>
</a>
</g>
</g>
</g>
</svg>
