<?xml version="1.0" encoding="UTF-8" standalone="no"?>
<!DOCTYPE svg PUBLIC "-//W3C//DTD SVG 1.1//EN"
 "http://www.w3.org/Graphics/SVG/1.1/DTD/svg11.dtd">
<!-- Generated by graphviz version 12.2.1 (20241206.2353)
 -->
<!-- Title: GeographicAreaType Pages: 1 -->
<svg width="449pt" height="279pt"
 viewBox="0.00 0.00 449.23 278.57" xmlns="http://www.w3.org/2000/svg" xmlns:xlink="http://www.w3.org/1999/xlink">
<g id="graph0" class="graph" transform="scale(1 1) rotate(0) translate(4 274.57)">
<title>GeographicAreaType</title>
<polygon fill="white" stroke="none" points="-4,4 -4,-274.57 445.23,-274.57 445.23,4 -4,4"/>
<!-- GeographicAreaType&#45;&gt;GeographicArea -->
<g id="edge1" class="edge">
<title>GeographicAreaType&#45;&gt;GeographicArea</title>
<path fill="none" stroke="black" d="M128.48,-139.76C155.24,-162.72 199.24,-198.88 240.48,-225.57 242.05,-226.59 243.67,-227.6 245.32,-228.6"/>
<polygon fill="black" stroke="black" points="243.25,-231.45 253.66,-233.44 246.77,-225.4 243.25,-231.45"/>
</g>
<!-- GeographicAreaType&#45;&gt;PinboardItem -->
<g id="edge2" class="edge">
<title>GeographicAreaType&#45;&gt;PinboardItem</title>
<path fill="none" stroke="black" d="M151.88,-138.43C178.41,-149.8 211.31,-163.91 238.57,-175.61"/>
<polygon fill="black" stroke="black" points="237.14,-178.8 247.71,-179.53 239.9,-172.37 237.14,-178.8"/>
</g>
<!-- GeographicAreaType&#45;&gt;Role -->
<g id="edge3" class="edge">
<title>GeographicAreaType&#45;&gt;Role</title>
<path fill="none" stroke="black" d="M194.63,-130.63C215.74,-133.65 237.06,-136.7 254.35,-139.17"/>
<polygon fill="black" stroke="black" points="253.74,-142.62 264.13,-140.57 254.73,-135.69 253.74,-142.62"/>
</g>
<!-- GeographicAreaType&#45;&gt;VerifierRole -->
<g id="edge4" class="edge">
<title>GeographicAreaType&#45;&gt;VerifierRole</title>
<path fill="none" stroke="black" d="M194.63,-104.5C210.38,-102.25 226.24,-99.98 240.46,-97.95"/>
<polygon fill="black" stroke="black" points="240.58,-101.47 249.98,-96.59 239.59,-94.54 240.58,-101.47"/>
</g>
<!-- GeographicAreaType&#45;&gt;Creator -->
<g id="edge6" class="edge">
<title>GeographicAreaType&#45;&gt;Creator</title>
<path fill="none" stroke="black" stroke-dasharray="5,2" d="M162.21,-92.27C196.33,-77.64 237.67,-59.91 264.41,-48.44"/>
<polygon fill="black" stroke="black" points="161.08,-88.95 153.27,-96.11 163.84,-95.38 161.08,-88.95"/>
</g>
<!-- GeographicAreaType&#45;&gt;Updater -->
<g id="edge7" class="edge">
<title>GeographicAreaType&#45;&gt;Updater</title>
<path fill="none" stroke="black" stroke-dasharray="5,2" d="M130.08,-87.22C155.5,-60.96 196.27,-24.87 240.48,-9.57 284.68,5.74 299.86,-0.39 345.73,-9.57 357.79,-11.98 370.41,-16.69 381.28,-21.51"/>
<polygon fill="black" stroke="black" points="127.75,-84.59 123.42,-94.26 132.83,-89.4 127.75,-84.59"/>
</g>
<!-- Role&#45;&gt;Verifier -->
<!-- VerifierRole&#45;&gt;Verifier -->
<g id="edge5" class="edge">
<title>VerifierRole&#45;&gt;Verifier</title>
<path fill="none" stroke="black" stroke-dasharray="1,5" d="M334.8,-100.01C346.73,-102.77 359.73,-105.79 371.53,-108.53"/>
<polygon fill="black" stroke="black" points="370.41,-111.86 380.94,-110.71 371.99,-105.04 370.41,-111.86"/>
</g>
<!-- Creator&#45;&gt;Updater -->
<!-- GeographicAreaType -->
<g id="node1" class="node">
<title>GeographicAreaType</title>
<g id="a_node1"><a xlink:href="/develop/Data/models.html#geographic-area-type" xlink:title="GeographicAreaType" target="_top">
<polygon fill="#cdefab" stroke="#dedede" points="200.48,-110.11 200.48,-125.02 142.93,-135.57 61.55,-135.57 4,-125.02 4,-110.11 61.55,-99.57 142.93,-99.57 200.48,-110.11"/>
<polygon fill="none" stroke="#dedede" points="204.48,-106.78 204.48,-128.36 143.29,-139.57 61.18,-139.57 0,-128.36 0,-106.78 61.18,-95.57 143.29,-95.57 204.48,-106.78"/>
<text text-anchor="middle" x="102.24" y="-112.52" font-family="Times,serif" font-size="14.00">GeographicAreaType</text>
</a>
</g>
</g>
<!-- GeographicArea -->
<g id="node2" class="node">
<title>GeographicArea</title>
<g id="a_node2"><a xlink:href="/develop/Data/models.html#geographic-area" xlink:title="GeographicArea" target="_top">
<polygon fill="#eeefff" stroke="#dddeee" points="345.73,-270.57 240.48,-270.57 240.48,-234.57 345.73,-234.57 345.73,-270.57"/>
<text text-anchor="middle" x="293.1" y="-247.52" font-family="Times,serif" font-size="14.00">GeographicArea</text>
</a>
</g>
</g>
<!-- PinboardItem -->
<g id="node3" class="node">
<title>PinboardItem</title>
<g id="a_node3"><a xlink:href="/develop/Data/models.html#pinboard-item" xlink:title="PinboardItem" target="_top">
<polygon fill="#eeefff" stroke="#dddeee" points="338.23,-216.57 247.98,-216.57 247.98,-180.57 338.23,-180.57 338.23,-216.57"/>
<text text-anchor="middle" x="293.1" y="-193.52" font-family="Times,serif" font-size="14.00">PinboardItem</text>
</a>
</g>
</g>
<!-- Role -->
<g id="node4" class="node">
<title>Role</title>
<g id="a_node4"><a xlink:href="/develop/Data/models.html#role" xlink:title="Role" target="_top">
<polygon fill="#eeefff" stroke="#dddeee" points="320.1,-162.57 266.1,-162.57 266.1,-126.57 320.1,-126.57 320.1,-162.57"/>
<text text-anchor="middle" x="293.1" y="-139.52" font-family="Times,serif" font-size="14.00">Role</text>
</a>
</g>
</g>
<!-- VerifierRole -->
<g id="node5" class="node">
<title>VerifierRole</title>
<g id="a_node5"><a xlink:href="/develop/Data/models.html#verifier-role" xlink:title="VerifierRole" target="_top">
<polygon fill="#eeefff" stroke="#dddeee" points="334.48,-108.57 251.73,-108.57 251.73,-72.57 334.48,-72.57 334.48,-108.57"/>
<text text-anchor="middle" x="293.1" y="-85.52" font-family="Times,serif" font-size="14.00">VerifierRole</text>
</a>
</g>
</g>
<!-- Verifier -->
<g id="node6" class="node">
<title>Verifier</title>
<g id="a_node6"><a xlink:href="/develop/Data/models.html#verifier" xlink:title="Verifier" target="_top">
<polygon fill="#eeefff" stroke="#dddeee" points="440.1,-135.57 382.85,-135.57 382.85,-99.57 440.1,-99.57 440.1,-135.57"/>
<text text-anchor="middle" x="411.48" y="-112.52" font-family="Times,serif" font-size="14.00">Verifier</text>
</a>
</g>
</g>
<!-- Creator -->
<g id="node7" class="node">
<title>Creator</title>
<g id="a_node7"><a xlink:href="/develop/Data/models.html#creator" xlink:title="Creator" target="_top">
<polygon fill="#eeefff" stroke="#dddeee" points="321.35,-54.57 264.85,-54.57 264.85,-18.57 321.35,-18.57 321.35,-54.57"/>
<text text-anchor="middle" x="293.1" y="-31.52" font-family="Times,serif" font-size="14.00">Creator</text>
</a>
</g>
</g>
<!-- Updater -->
<g id="node8" class="node">
<title>Updater</title>
<g id="a_node8"><a xlink:href="/develop/Data/models.html#updater" xlink:title="Updater" target="_top">
<polygon fill="#eeefff" stroke="#dddeee" points="441.23,-54.57 381.73,-54.57 381.73,-18.57 441.23,-18.57 441.23,-54.57"/>
<text text-anchor="middle" x="411.48" y="-31.52" font-family="Times,serif" font-size="14.00">Updater</text>
</a>
</g>
</g>
</g>
</svg>
