<?xml version="1.0" encoding="UTF-8" standalone="no"?>
<!DOCTYPE svg PUBLIC "-//W3C//DTD SVG 1.1//EN"
 "http://www.w3.org/Graphics/SVG/1.1/DTD/svg11.dtd">
<!-- Generated by graphviz version 12.2.1 (20241206.2353)
 -->
<!-- Title: GeographicArea Pages: 1 -->
<svg width="735pt" height="1013pt"
 viewBox="0.00 0.00 734.87 1013.41" xmlns="http://www.w3.org/2000/svg" xmlns:xlink="http://www.w3.org/1999/xlink">
<g id="graph0" class="graph" transform="scale(1 1) rotate(0) translate(4 1009.41)">
<title>GeographicArea</title>
<polygon fill="white" stroke="none" points="-4,4 -4,-1009.41 730.87,-1009.41 730.87,4 -4,4"/>
<!-- AlternateValue&#45;&gt;AlternateValueLanguage -->
<g id="edge1" class="edge">
<title>AlternateValue&#45;&gt;AlternateValueLanguage</title>
<path fill="none" stroke="black" stroke-dasharray="1,5" d="M132.62,-555.63C142.64,-555.74 153.12,-555.85 163.5,-555.96"/>
<polygon fill="black" stroke="black" points="163.15,-559.46 173.19,-556.07 163.23,-552.46 163.15,-559.46"/>
</g>
<!-- GeographicArea&#45;&gt;AlternateValue -->
<g id="edge2" class="edge">
<title>GeographicArea&#45;&gt;AlternateValue</title>
<path fill="none" stroke="black" d="M194.09,-515.85C171.29,-522.87 144.89,-530.99 122.1,-538"/>
<polygon fill="black" stroke="black" points="121.21,-534.62 112.68,-540.9 123.27,-541.31 121.21,-534.62"/>
</g>
<!-- GeographicArea&#45;&gt;Identifier -->
<g id="edge11" class="edge">
<title>GeographicArea&#45;&gt;Identifier</title>
<path fill="none" stroke="black" d="M168.16,-498.91C152.85,-498.91 137.16,-498.91 122.85,-498.91"/>
<polygon fill="black" stroke="black" points="123.21,-495.41 113.21,-498.91 123.21,-502.41 123.21,-495.41"/>
</g>
<!-- GeographicArea&#45;&gt;AssertedDistribution -->
<g id="edge4" class="edge">
<title>GeographicArea&#45;&gt;AssertedDistribution</title>
<path fill="none" stroke="black" d="M313.52,-514.24C320.6,-518.29 327,-523.42 331.87,-529.91 389.43,-606.6 306.58,-886.16 367.87,-959.91 374.33,-967.68 382.81,-973.34 392.07,-977.42"/>
<polygon fill="black" stroke="black" points="390.79,-980.68 401.39,-980.88 393.23,-974.12 390.79,-980.68"/>
</g>
<!-- GeographicArea&#45;&gt;CollectingEvent -->
<g id="edge6" class="edge">
<title>GeographicArea&#45;&gt;CollectingEvent</title>
<path fill="none" stroke="black" d="M313.44,-514.29C320.53,-518.34 326.96,-523.45 331.87,-529.91 382.41,-596.37 314.41,-839.77 367.87,-903.91 377.08,-914.95 390.3,-921.81 404.08,-926.03"/>
<polygon fill="black" stroke="black" points="403.16,-929.41 413.72,-928.5 404.9,-922.63 403.16,-929.41"/>
</g>
<!-- GeographicArea&#45;&gt;AncestorHierarchy -->
<g id="edge3" class="edge">
<title>GeographicArea&#45;&gt;AncestorHierarchy</title>
<path fill="none" stroke="black" d="M312.95,-514.14C320.21,-518.22 326.82,-523.37 331.87,-529.91 419.41,-643.13 274.84,-741.15 367.87,-849.91 375.51,-858.84 385.81,-864.96 396.86,-869.12"/>
<polygon fill="black" stroke="black" points="395.6,-872.39 406.19,-872.08 397.72,-865.72 395.6,-872.39"/>
</g>
<!-- GeographicArea&#45;&gt;Child -->
<g id="edge5" class="edge">
<title>GeographicArea&#45;&gt;Child</title>
<path fill="none" stroke="black" d="M312.81,-514.25C320.1,-518.31 326.75,-523.43 331.87,-529.91 405.89,-623.46 289.31,-706.13 367.87,-795.91 382.88,-813.05 407.63,-819.79 428.57,-822.24"/>
<polygon fill="black" stroke="black" points="428.27,-825.73 438.53,-823.1 428.87,-818.76 428.27,-825.73"/>
</g>
<!-- GeographicArea&#45;&gt;CommonName -->
<g id="edge7" class="edge">
<title>GeographicArea&#45;&gt;CommonName</title>
<path fill="none" stroke="black" d="M312.61,-514.41C319.93,-518.44 326.64,-523.52 331.87,-529.91 392.43,-603.84 303.73,-671.06 367.87,-741.91 377.73,-752.8 391.53,-759.47 405.69,-763.51"/>
<polygon fill="black" stroke="black" points="404.51,-766.83 415.05,-765.76 406.14,-760.02 404.51,-766.83"/>
</g>
<!-- GeographicArea&#45;&gt;DescendantHierarchy -->
<g id="edge8" class="edge">
<title>GeographicArea&#45;&gt;DescendantHierarchy</title>
<path fill="none" stroke="black" d="M311.89,-514.47C319.4,-518.49 326.36,-523.55 331.87,-529.91 379.04,-584.33 318.06,-635.88 367.87,-687.91 374.08,-694.39 381.68,-699.37 389.89,-703.18"/>
<polygon fill="black" stroke="black" points="388.55,-706.41 399.14,-706.85 391.13,-699.9 388.55,-706.41"/>
</g>
<!-- GeographicArea&#45;&gt;GeographicAreasGeographicItem -->
<g id="edge9" class="edge">
<title>GeographicArea&#45;&gt;GeographicAreasGeographicItem</title>
<path fill="none" stroke="black" d="M310.86,-514.83C318.62,-518.8 325.92,-523.75 331.87,-529.91 365.88,-565.06 332.17,-600.47 367.87,-633.91 368.64,-634.62 369.42,-635.32 370.21,-636"/>
<polygon fill="black" stroke="black" points="367.94,-638.67 378.09,-641.71 372.05,-633.01 367.94,-638.67"/>
</g>
<!-- GeographicArea&#45;&gt;PinboardItem -->
<g id="edge12" class="edge">
<title>GeographicArea&#45;&gt;PinboardItem</title>
<path fill="none" stroke="black" d="M307.25,-515.54C315.96,-519.47 324.5,-524.22 331.87,-529.91 353.56,-546.62 345.38,-564.28 367.87,-579.91 380.52,-588.69 395.92,-594.63 410.76,-598.63"/>
<polygon fill="black" stroke="black" points="409.92,-602.03 420.47,-600.97 411.57,-595.22 409.92,-602.03"/>
</g>
<!-- GeographicArea&#45;&gt;Role -->
<g id="edge13" class="edge">
<title>GeographicArea&#45;&gt;Role</title>
<path fill="none" stroke="black" d="M312.81,-514.38C350.32,-523.79 396.99,-535.5 428.97,-543.52"/>
<polygon fill="black" stroke="black" points="428.03,-546.89 438.58,-545.93 429.73,-540.1 428.03,-546.89"/>
</g>
<!-- GeographicArea&#45;&gt;Uri -->
<g id="edge16" class="edge">
<title>GeographicArea&#45;&gt;Uri</title>
<path fill="none" stroke="black" d="M332.2,-498.91C365.27,-498.91 401.9,-498.91 428.53,-498.91"/>
<polygon fill="black" stroke="black" points="428.49,-502.41 438.49,-498.91 428.49,-495.41 428.49,-502.41"/>
</g>
<!-- GeographicArea&#45;&gt;Uuid -->
<g id="edge17" class="edge">
<title>GeographicArea&#45;&gt;Uuid</title>
<path fill="none" stroke="black" d="M312.81,-483.43C350.32,-474.02 396.99,-462.31 428.97,-454.29"/>
<polygon fill="black" stroke="black" points="429.73,-457.71 438.58,-451.88 428.03,-450.92 429.73,-457.71"/>
</g>
<!-- GeographicArea&#45;&gt;VerifierRole -->
<g id="edge18" class="edge">
<title>GeographicArea&#45;&gt;VerifierRole</title>
<path fill="none" stroke="black" d="M277.81,-476.44C300.49,-458.35 334.57,-433.46 367.87,-417.91 382.48,-411.08 399.14,-405.7 414.54,-401.59"/>
<polygon fill="black" stroke="black" points="415.19,-405.04 424.03,-399.2 413.48,-398.25 415.19,-405.04"/>
</g>
<!-- GeographicArea&#45;&gt;Creator -->
<g id="edge20" class="edge">
<title>GeographicArea&#45;&gt;Creator</title>
<path fill="none" stroke="black" stroke-dasharray="5,2" d="M270.49,-467.18C290.94,-436.31 326.01,-390.31 367.87,-363.91 389.47,-350.29 417.93,-343.44 438.71,-340.07"/>
<polygon fill="black" stroke="black" points="267.69,-465.06 265.19,-475.36 273.56,-468.87 267.69,-465.06"/>
</g>
<!-- GeographicArea&#45;&gt;GeographicAreaType -->
<g id="edge21" class="edge">
<title>GeographicArea&#45;&gt;GeographicAreaType</title>
<path fill="none" stroke="black" stroke-dasharray="5,2" d="M262.73,-465.83C279.36,-423.33 314.02,-350.21 367.87,-309.91 377.45,-302.73 388.83,-297.47 400.39,-293.6"/>
<polygon fill="black" stroke="black" points="259.52,-464.45 259.25,-475.04 266.06,-466.93 259.52,-464.45"/>
</g>
<!-- GeographicArea&#45;&gt;Level0 -->
<g id="edge22" class="edge">
<title>GeographicArea&#45;&gt;Level0</title>
<path fill="none" stroke="black" stroke-dasharray="5,2" d="M257.84,-465.61C270.18,-413.07 301.55,-311.23 367.87,-255.91 388.29,-238.87 418.6,-232.53 440.2,-230.2"/>
<polygon fill="black" stroke="black" points="254.47,-464.64 255.69,-475.17 261.3,-466.18 254.47,-464.64"/>
</g>
<!-- GeographicArea&#45;&gt;Level1 -->
<g id="edge23" class="edge">
<title>GeographicArea&#45;&gt;Level1</title>
<path fill="none" stroke="black" stroke-dasharray="5,2" d="M254.63,-465.11C262.84,-403.49 289.05,-272.72 367.87,-201.91 387.79,-184.01 418.48,-177.83 440.3,-175.78"/>
<polygon fill="black" stroke="black" points="251.16,-464.61 253.4,-474.97 258.11,-465.48 251.16,-464.61"/>
</g>
<!-- GeographicArea&#45;&gt;Level2 -->
<g id="edge24" class="edge">
<title>GeographicArea&#45;&gt;Level2</title>
<path fill="none" stroke="black" stroke-dasharray="5,2" d="M252.24,-465.54C256.4,-396.04 276,-234.98 367.87,-147.91 387.3,-129.49 418.08,-123.4 440.06,-121.51"/>
<polygon fill="black" stroke="black" points="248.76,-464.97 251.74,-475.14 255.75,-465.34 248.76,-464.97"/>
</g>
<!-- GeographicArea&#45;&gt;Parent -->
<g id="edge25" class="edge">
<title>GeographicArea&#45;&gt;Parent</title>
<path fill="none" stroke="black" stroke-dasharray="5,2" d="M250.48,-465.43C250.89,-388.42 263.07,-197.35 367.87,-93.91 387.05,-74.97 418.18,-69 440.31,-67.28"/>
<polygon fill="black" stroke="black" points="246.98,-465.28 250.5,-475.27 253.98,-465.26 246.98,-465.28"/>
</g>
<!-- GeographicArea&#45;&gt;Updater -->
<g id="edge26" class="edge">
<title>GeographicArea&#45;&gt;Updater</title>
<path fill="none" stroke="black" stroke-dasharray="5,2" d="M254.44,-465.26C264.73,-368.49 299.63,-92.96 367.87,-39.91 437.69,14.38 495.28,12.03 566.87,-39.91 659.3,-106.95 665.31,-264.55 664.53,-318.45"/>
<polygon fill="black" stroke="black" points="250.97,-464.85 253.41,-475.16 257.93,-465.58 250.97,-464.85"/>
</g>
<!-- AncestorHierarchy&#45;&gt;SelfAndAncestor -->
<g id="edge14" class="edge">
<title>AncestorHierarchy&#45;&gt;SelfAndAncestor</title>
<path fill="none" stroke="black" stroke-dasharray="1,5" d="M527.03,-876.91C549.45,-876.91 575.15,-876.91 598.18,-876.91"/>
<polygon fill="black" stroke="black" points="598.08,-880.41 608.08,-876.91 598.08,-873.41 598.08,-880.41"/>
</g>
<!-- DescendantHierarchy&#45;&gt;SelfAndDescendant -->
<g id="edge15" class="edge">
<title>DescendantHierarchy&#45;&gt;SelfAndDescendant</title>
<path fill="none" stroke="black" stroke-dasharray="1,5" d="M534.29,-714.91C552.55,-714.91 572.49,-714.91 591.12,-714.91"/>
<polygon fill="black" stroke="black" points="591.01,-718.41 601.01,-714.91 591.01,-711.41 591.01,-718.41"/>
</g>
<!-- GeographicAreasGeographicItem&#45;&gt;GeographicItem -->
<g id="edge10" class="edge">
<title>GeographicAreasGeographicItem&#45;&gt;GeographicItem</title>
<path fill="none" stroke="black" stroke-dasharray="1,5" d="M567.27,-660.91C578.67,-660.91 590.06,-660.91 600.8,-660.91"/>
<polygon fill="black" stroke="black" points="600.66,-664.41 610.66,-660.91 600.66,-657.41 600.66,-664.41"/>
</g>
<!-- Role&#45;&gt;Verifier -->
<!-- VerifierRole&#45;&gt;Verifier -->
<g id="edge19" class="edge">
<title>VerifierRole&#45;&gt;Verifier</title>
<path fill="none" stroke="black" stroke-dasharray="1,5" d="M508.87,-399.68C526.96,-404.18 548.32,-410.33 566.87,-417.91 587.16,-426.19 608.55,-437.77 626.08,-448.08"/>
<polygon fill="black" stroke="black" points="624.23,-451.05 634.61,-453.19 627.83,-445.05 624.23,-451.05"/>
</g>
<!-- Creator&#45;&gt;Updater -->
<!-- AlternateValue -->
<g id="node1" class="node">
<title>AlternateValue</title>
<g id="a_node1"><a xlink:href="/develop/Data/models.html#alternate-value" xlink:title="AlternateValue" target="_top">
<ellipse fill="#abcdef" stroke="#dddeee" cx="66.19" cy="-554.91" rx="66.19" ry="18"/>
<text text-anchor="middle" x="66.19" y="-549.86" font-family="Times,serif" font-size="14.00">AlternateValue</text>
</a>
</g>
</g>
<!-- Identifier -->
<g id="node2" class="node">
<title>Identifier</title>
<g id="a_node2"><a xlink:href="/develop/Data/models.html#identifier" xlink:title="Identifier" target="_top">
<ellipse fill="#abcdef" stroke="#dddeee" cx="66.19" cy="-498.91" rx="45.21" ry="18"/>
<text text-anchor="middle" x="66.19" y="-493.86" font-family="Times,serif" font-size="14.00">Identifier</text>
</a>
</g>
</g>
<!-- AssertedDistribution -->
<g id="node3" class="node">
<title>AssertedDistribution</title>
<g id="a_node3"><a xlink:href="/develop/Data/models.html#asserted-distribution" xlink:title="AssertedDistribution" target="_top">
<path fill="#fedcba" stroke="#dddeee" d="M415.12,-968.91C415.12,-968.91 519.62,-968.91 519.62,-968.91 525.62,-968.91 531.62,-974.91 531.62,-980.91 531.62,-980.91 531.62,-992.91 531.62,-992.91 531.62,-998.91 525.62,-1004.91 519.62,-1004.91 519.62,-1004.91 415.12,-1004.91 415.12,-1004.91 409.12,-1004.91 403.12,-998.91 403.12,-992.91 403.12,-992.91 403.12,-980.91 403.12,-980.91 403.12,-974.91 409.12,-968.91 415.12,-968.91"/>
<text text-anchor="middle" x="467.37" y="-982.11" font-family="Times,serif" font-size="14.00">AssertedDistribution</text>
</a>
</g>
</g>
<!-- CollectingEvent -->
<g id="node4" class="node">
<title>CollectingEvent</title>
<g id="a_node4"><a xlink:href="/develop/Data/models.html#collecting-event" xlink:title="CollectingEvent" target="_top">
<path fill="#fedcba" stroke="#dddeee" d="M427.5,-913.91C427.5,-913.91 507.25,-913.91 507.25,-913.91 513.25,-913.91 519.25,-919.91 519.25,-925.91 519.25,-925.91 519.25,-937.91 519.25,-937.91 519.25,-943.91 513.25,-949.91 507.25,-949.91 507.25,-949.91 427.5,-949.91 427.5,-949.91 421.5,-949.91 415.5,-943.91 415.5,-937.91 415.5,-937.91 415.5,-925.91 415.5,-925.91 415.5,-919.91 421.5,-913.91 427.5,-913.91"/>
<text text-anchor="middle" x="467.37" y="-927.11" font-family="Times,serif" font-size="14.00">CollectingEvent</text>
</a>
</g>
</g>
<!-- GeographicArea -->
<g id="node5" class="node">
<title>GeographicArea</title>
<g id="a_node5"><a xlink:href="/develop/Data/models.html#geographic-area" xlink:title="GeographicArea" target="_top">
<polygon fill="#cdefab" stroke="#dedede" points="327.87,-491.45 327.87,-506.36 282.33,-516.91 217.93,-516.91 172.39,-506.36 172.39,-491.45 217.93,-480.91 282.33,-480.91 327.87,-491.45"/>
<polygon fill="none" stroke="#dedede" points="331.87,-488.27 331.87,-509.54 282.79,-520.91 217.47,-520.91 168.39,-509.54 168.39,-488.27 217.47,-476.91 282.79,-476.91 331.87,-488.27"/>
<text text-anchor="middle" x="250.13" y="-493.86" font-family="Times,serif" font-size="14.00">GeographicArea</text>
</a>
</g>
</g>
<!-- AlternateValueLanguage -->
<g id="node6" class="node">
<title>AlternateValueLanguage</title>
<g id="a_node6"><a xlink:href="/develop/Data/models.html#alternate-value-language" xlink:title="AlternateValueLanguage" target="_top">
<polygon fill="#eeefff" stroke="#dddeee" points="325.25,-574.91 175,-574.91 175,-538.91 325.25,-538.91 325.25,-574.91"/>
<text text-anchor="middle" x="250.13" y="-551.86" font-family="Times,serif" font-size="14.00">AlternateValueLanguage</text>
</a>
</g>
</g>
<!-- AncestorHierarchy -->
<g id="node7" class="node">
<title>AncestorHierarchy</title>
<g id="a_node7"><a xlink:href="/develop/Data/models.html#ancestor-hierarchy" xlink:title="AncestorHierarchy" target="_top">
<polygon fill="#eeefff" stroke="#dddeee" points="526.75,-894.91 408,-894.91 408,-858.91 526.75,-858.91 526.75,-894.91"/>
<text text-anchor="middle" x="467.37" y="-871.86" font-family="Times,serif" font-size="14.00">AncestorHierarchy</text>
</a>
</g>
</g>
<!-- Child -->
<g id="node8" class="node">
<title>Child</title>
<g id="a_node8"><a xlink:href="/develop/Data/models.html#child" xlink:title="Child" target="_top">
<polygon fill="#eeefff" stroke="#dddeee" points="494.37,-840.91 440.37,-840.91 440.37,-804.91 494.37,-804.91 494.37,-840.91"/>
<text text-anchor="middle" x="467.37" y="-817.86" font-family="Times,serif" font-size="14.00">Child</text>
</a>
</g>
</g>
<!-- CommonName -->
<g id="node9" class="node">
<title>CommonName</title>
<g id="a_node9"><a xlink:href="/develop/Data/models.html#common-name" xlink:title="CommonName" target="_top">
<polygon fill="#eeefff" stroke="#dddeee" points="517.75,-786.91 417,-786.91 417,-750.91 517.75,-750.91 517.75,-786.91"/>
<text text-anchor="middle" x="467.37" y="-763.86" font-family="Times,serif" font-size="14.00">CommonName</text>
</a>
</g>
</g>
<!-- DescendantHierarchy -->
<g id="node10" class="node">
<title>DescendantHierarchy</title>
<g id="a_node10"><a xlink:href="/develop/Data/models.html#descendant-hierarchy" xlink:title="DescendantHierarchy" target="_top">
<polygon fill="#eeefff" stroke="#dddeee" points="533.87,-732.91 400.87,-732.91 400.87,-696.91 533.87,-696.91 533.87,-732.91"/>
<text text-anchor="middle" x="467.37" y="-709.86" font-family="Times,serif" font-size="14.00">DescendantHierarchy</text>
</a>
</g>
</g>
<!-- GeographicAreasGeographicItem -->
<g id="node11" class="node">
<title>GeographicAreasGeographicItem</title>
<g id="a_node11"><a xlink:href="/develop/Data/models.html#geographic-areas-geographic-item" xlink:title="GeographicAreasGeographicItem" target="_top">
<polygon fill="#eeefff" stroke="#dddeee" points="566.87,-678.91 367.87,-678.91 367.87,-642.91 566.87,-642.91 566.87,-678.91"/>
<text text-anchor="middle" x="467.37" y="-655.86" font-family="Times,serif" font-size="14.00">GeographicAreasGeographicItem</text>
</a>
</g>
</g>
<!-- GeographicItem -->
<g id="node12" class="node">
<title>GeographicItem</title>
<g id="a_node12"><a xlink:href="/develop/Data/models.html#geographic-item" xlink:title="GeographicItem" target="_top">
<polygon fill="#eeefff" stroke="#dddeee" points="717.12,-678.91 612.62,-678.91 612.62,-642.91 717.12,-642.91 717.12,-678.91"/>
<text text-anchor="middle" x="664.87" y="-655.86" font-family="Times,serif" font-size="14.00">GeographicItem</text>
</a>
</g>
</g>
<!-- PinboardItem -->
<g id="node13" class="node">
<title>PinboardItem</title>
<g id="a_node13"><a xlink:href="/develop/Data/models.html#pinboard-item" xlink:title="PinboardItem" target="_top">
<polygon fill="#eeefff" stroke="#dddeee" points="512.5,-624.91 422.25,-624.91 422.25,-588.91 512.5,-588.91 512.5,-624.91"/>
<text text-anchor="middle" x="467.37" y="-601.86" font-family="Times,serif" font-size="14.00">PinboardItem</text>
</a>
</g>
</g>
<!-- Role -->
<g id="node14" class="node">
<title>Role</title>
<g id="a_node14"><a xlink:href="/develop/Data/models.html#role" xlink:title="Role" target="_top">
<polygon fill="#eeefff" stroke="#dddeee" points="494.37,-570.91 440.37,-570.91 440.37,-534.91 494.37,-534.91 494.37,-570.91"/>
<text text-anchor="middle" x="467.37" y="-547.86" font-family="Times,serif" font-size="14.00">Role</text>
</a>
</g>
</g>
<!-- SelfAndAncestor -->
<g id="node15" class="node">
<title>SelfAndAncestor</title>
<g id="a_node15"><a xlink:href="/develop/Data/models.html#self-and-ancestor" xlink:title="SelfAndAncestor" target="_top">
<polygon fill="#eeefff" stroke="#dddeee" points="719.75,-894.91 610,-894.91 610,-858.91 719.75,-858.91 719.75,-894.91"/>
<text text-anchor="middle" x="664.87" y="-871.86" font-family="Times,serif" font-size="14.00">SelfAndAncestor</text>
</a>
</g>
</g>
<!-- SelfAndDescendant -->
<g id="node16" class="node">
<title>SelfAndDescendant</title>
<g id="a_node16"><a xlink:href="/develop/Data/models.html#self-and-descendant" xlink:title="SelfAndDescendant" target="_top">
<polygon fill="#eeefff" stroke="#dddeee" points="726.87,-732.91 602.87,-732.91 602.87,-696.91 726.87,-696.91 726.87,-732.91"/>
<text text-anchor="middle" x="664.87" y="-709.86" font-family="Times,serif" font-size="14.00">SelfAndDescendant</text>
</a>
</g>
</g>
<!-- Uri -->
<g id="node17" class="node">
<title>Uri</title>
<g id="a_node17"><a xlink:href="/develop/Data/models.html#uri" xlink:title="Uri" target="_top">
<polygon fill="#eeefff" stroke="#dddeee" points="494.37,-516.91 440.37,-516.91 440.37,-480.91 494.37,-480.91 494.37,-516.91"/>
<text text-anchor="middle" x="467.37" y="-493.86" font-family="Times,serif" font-size="14.00">Uri</text>
</a>
</g>
</g>
<!-- Uuid -->
<g id="node18" class="node">
<title>Uuid</title>
<g id="a_node18"><a xlink:href="/develop/Data/models.html#uuid" xlink:title="Uuid" target="_top">
<polygon fill="#eeefff" stroke="#dddeee" points="494.37,-462.91 440.37,-462.91 440.37,-426.91 494.37,-426.91 494.37,-462.91"/>
<text text-anchor="middle" x="467.37" y="-439.86" font-family="Times,serif" font-size="14.00">Uuid</text>
</a>
</g>
</g>
<!-- VerifierRole -->
<g id="node19" class="node">
<title>VerifierRole</title>
<g id="a_node19"><a xlink:href="/develop/Data/models.html#verifier-role" xlink:title="VerifierRole" target="_top">
<polygon fill="#eeefff" stroke="#dddeee" points="508.75,-408.91 426,-408.91 426,-372.91 508.75,-372.91 508.75,-408.91"/>
<text text-anchor="middle" x="467.37" y="-385.86" font-family="Times,serif" font-size="14.00">VerifierRole</text>
</a>
</g>
</g>
<!-- Verifier -->
<g id="node20" class="node">
<title>Verifier</title>
<g id="a_node20"><a xlink:href="/develop/Data/models.html#verifier" xlink:title="Verifier" target="_top">
<polygon fill="#eeefff" stroke="#dddeee" points="693.5,-489.91 636.25,-489.91 636.25,-453.91 693.5,-453.91 693.5,-489.91"/>
<text text-anchor="middle" x="664.87" y="-466.86" font-family="Times,serif" font-size="14.00">Verifier</text>
</a>
</g>
</g>
<!-- Creator -->
<g id="node21" class="node">
<title>Creator</title>
<g id="a_node21"><a xlink:href="/develop/Data/models.html#creator" xlink:title="Creator" target="_top">
<polygon fill="#eeefff" stroke="#dddeee" points="495.62,-354.91 439.12,-354.91 439.12,-318.91 495.62,-318.91 495.62,-354.91"/>
<text text-anchor="middle" x="467.37" y="-331.86" font-family="Times,serif" font-size="14.00">Creator</text>
</a>
</g>
</g>
<!-- GeographicAreaType -->
<g id="node22" class="node">
<title>GeographicAreaType</title>
<g id="a_node22"><a xlink:href="/develop/Data/models.html#geographic-area-type" xlink:title="GeographicAreaType" target="_top">
<polygon fill="#eeefff" stroke="#dddeee" points="533.87,-300.91 400.87,-300.91 400.87,-264.91 533.87,-264.91 533.87,-300.91"/>
<text text-anchor="middle" x="467.37" y="-277.86" font-family="Times,serif" font-size="14.00">GeographicAreaType</text>
</a>
</g>
</g>
<!-- Level0 -->
<g id="node23" class="node">
<title>Level0</title>
<g id="a_node23"><a xlink:href="/develop/Data/models.html#level0" xlink:title="Level0" target="_top">
<polygon fill="#eeefff" stroke="#dddeee" points="494.37,-246.91 440.37,-246.91 440.37,-210.91 494.37,-210.91 494.37,-246.91"/>
<text text-anchor="middle" x="467.37" y="-223.86" font-family="Times,serif" font-size="14.00">Level0</text>
</a>
</g>
</g>
<!-- Level1 -->
<g id="node24" class="node">
<title>Level1</title>
<g id="a_node24"><a xlink:href="/develop/Data/models.html#level1" xlink:title="Level1" target="_top">
<polygon fill="#eeefff" stroke="#dddeee" points="494.37,-192.91 440.37,-192.91 440.37,-156.91 494.37,-156.91 494.37,-192.91"/>
<text text-anchor="middle" x="467.37" y="-169.86" font-family="Times,serif" font-size="14.00">Level1</text>
</a>
</g>
</g>
<!-- Level2 -->
<g id="node25" class="node">
<title>Level2</title>
<g id="a_node25"><a xlink:href="/develop/Data/models.html#level2" xlink:title="Level2" target="_top">
<polygon fill="#eeefff" stroke="#dddeee" points="494.37,-138.91 440.37,-138.91 440.37,-102.91 494.37,-102.91 494.37,-138.91"/>
<text text-anchor="middle" x="467.37" y="-115.86" font-family="Times,serif" font-size="14.00">Level2</text>
</a>
</g>
</g>
<!-- Parent -->
<g id="node26" class="node">
<title>Parent</title>
<g id="a_node26"><a xlink:href="/develop/Data/models.html#parent" xlink:title="Parent" target="_top">
<polygon fill="#eeefff" stroke="#dddeee" points="494.37,-84.91 440.37,-84.91 440.37,-48.91 494.37,-48.91 494.37,-84.91"/>
<text text-anchor="middle" x="467.37" y="-61.86" font-family="Times,serif" font-size="14.00">Parent</text>
</a>
</g>
</g>
<!-- Updater -->
<g id="node27" class="node">
<title>Updater</title>
<g id="a_node27"><a xlink:href="/develop/Data/models.html#updater" xlink:title="Updater" target="_top">
<polygon fill="#eeefff" stroke="#dddeee" points="694.62,-354.91 635.12,-354.91 635.12,-318.91 694.62,-318.91 694.62,-354.91"/>
<text text-anchor="middle" x="664.87" y="-331.86" font-family="Times,serif" font-size="14.00">Updater</text>
</a>
</g>
</g>
</g>
</svg>
