<?xml version="1.0" encoding="UTF-8" standalone="no"?>
<!DOCTYPE svg PUBLIC "-//W3C//DTD SVG 1.1//EN"
 "http://www.w3.org/Graphics/SVG/1.1/DTD/svg11.dtd">
<!-- Generated by graphviz version 2.50.0 (20211204.2007)
 -->
<!-- Title: GeographicAreaType Pages: 1 -->
<svg width="703pt" height="317pt"
 viewBox="0.00 0.00 703.00 316.76" xmlns="http://www.w3.org/2000/svg" xmlns:xlink="http://www.w3.org/1999/xlink">
<g id="graph0" class="graph" transform="scale(1 1) rotate(0) translate(4 312.76)">
<title>GeographicAreaType</title>
<polygon fill="white" stroke="transparent" points="-4,4 -4,-312.76 699,-312.76 699,4 -4,4"/>
<text text-anchor="middle" x="347.5" y="-22.8" font-family="Times,serif" font-size="14.00">Algorithmically generated relationships for GeographicAreaType based on assertions of &#39;has_many&#39;, &#39;has_one&#39;, &#39;belongs_to&#39;. </text>
<text text-anchor="middle" x="347.5" y="-7.8" font-family="Times,serif" font-size="14.00">Generated 2022&#45;01&#45;25 11:43:16 &#45;0600.</text>
<!-- GeographicAreaType&#45;&gt;GeographicArea -->
<g id="edge1" class="edge">
<title>GeographicAreaType&#45;&gt;GeographicArea</title>
<path fill="none" stroke="black" d="M253.89,-178.06C279.76,-201.1 322.41,-237.32 362.77,-263.76 364.67,-265.01 366.63,-266.24 368.64,-267.46"/>
<polygon fill="black" stroke="black" points="367.18,-270.66 377.59,-272.64 370.69,-264.6 367.18,-270.66"/>
</g>
<!-- GeographicAreaType&#45;&gt;PinboardItem -->
<g id="edge2" class="edge">
<title>GeographicAreaType&#45;&gt;PinboardItem</title>
<path fill="none" stroke="black" d="M276.25,-176.2C303,-187.9 336.59,-202.58 363.99,-214.56"/>
<polygon fill="black" stroke="black" points="362.83,-217.88 373.4,-218.68 365.64,-211.46 362.83,-217.88"/>
</g>
<!-- GeographicAreaType&#45;&gt;Role -->
<g id="edge3" class="edge">
<title>GeographicAreaType&#45;&gt;Role</title>
<path fill="none" stroke="black" d="M316.71,-168.47C338.52,-171.65 360.73,-174.89 378.49,-177.48"/>
<polygon fill="black" stroke="black" points="377.99,-180.94 388.39,-178.92 379,-174.01 377.99,-180.94"/>
</g>
<!-- GeographicAreaType&#45;&gt;VerifierRole -->
<g id="edge4" class="edge">
<title>GeographicAreaType&#45;&gt;VerifierRole</title>
<path fill="none" stroke="black" d="M316.71,-143.05C332.87,-140.7 349.25,-138.31 363.88,-136.18"/>
<polygon fill="black" stroke="black" points="364.8,-139.58 374.19,-134.68 363.79,-132.66 364.8,-139.58"/>
</g>
<!-- GeographicAreaType&#45;&gt;Creator -->
<g id="edge6" class="edge">
<title>GeographicAreaType&#45;&gt;Creator</title>
<path fill="none" stroke="black" stroke-dasharray="5,2" d="M285.5,-131.28C319.08,-116.6 360.31,-98.57 387.04,-86.88"/>
<polygon fill="black" stroke="black" points="284.01,-128.11 276.25,-135.32 286.82,-134.52 284.01,-128.11"/>
</g>
<!-- GeographicAreaType&#45;&gt;Updater -->
<g id="edge7" class="edge">
<title>GeographicAreaType&#45;&gt;Updater</title>
<path fill="none" stroke="black" stroke-dasharray="5,2" d="M254.74,-126.12C279.26,-99.82 319.08,-63.24 362.77,-47.76 407.17,-32.03 422.57,-38.55 468.77,-47.76 480.87,-50.18 493.54,-54.89 504.45,-59.71"/>
<polygon fill="black" stroke="black" points="252.1,-123.83 247.94,-133.58 257.27,-128.54 252.1,-123.83"/>
</g>
<!-- Role&#45;&gt;Verifier -->
<!-- VerifierRole&#45;&gt;Verifier -->
<g id="edge5" class="edge">
<title>VerifierRole&#45;&gt;Verifier</title>
<path fill="none" stroke="black" d="M457.36,-138.13C469.94,-141.03 483.75,-144.22 496.12,-147.07"/>
<polygon fill="black" stroke="black" points="495.59,-150.54 506.12,-149.38 497.16,-143.72 495.59,-150.54"/>
</g>
<!-- Creator&#45;&gt;Updater -->
<!-- GeographicAreaType -->
<g id="node1" class="node">
<title>GeographicAreaType</title>
<g id="a_node1"><a xlink:href="/develop/Data/models.html#geographic-area-type" xlink:title="GeographicAreaType" target="_top">
<polygon fill="#cdefab" stroke="#dedede" points="322.55,-148.31 322.55,-163.22 267.46,-173.76 189.54,-173.76 134.45,-163.22 134.45,-148.31 189.54,-137.76 267.46,-137.76 322.55,-148.31"/>
<polygon fill="none" stroke="#dedede" points="326.54,-145 326.54,-166.53 267.83,-177.76 189.17,-177.76 130.46,-166.53 130.46,-145 189.17,-133.76 267.83,-133.76 326.54,-145"/>
<text text-anchor="middle" x="228.5" y="-152.06" font-family="Times,serif" font-size="14.00">GeographicAreaType</text>
</a>
</g>
</g>
<!-- GeographicArea -->
<g id="node2" class="node">
<title>GeographicArea</title>
<g id="a_node2"><a xlink:href="/develop/Data/models.html#geographic-area" xlink:title="GeographicArea" target="_top">
<polygon fill="#eeefff" stroke="#dddeee" points="468.77,-308.76 362.77,-308.76 362.77,-272.76 468.77,-272.76 468.77,-308.76"/>
<text text-anchor="middle" x="415.77" y="-287.06" font-family="Times,serif" font-size="14.00">GeographicArea</text>
</a>
</g>
</g>
<!-- PinboardItem -->
<g id="node3" class="node">
<title>PinboardItem</title>
<g id="a_node3"><a xlink:href="/develop/Data/models.html#pinboard-item" xlink:title="PinboardItem" target="_top">
<polygon fill="#eeefff" stroke="#dddeee" points="461.27,-254.76 370.27,-254.76 370.27,-218.76 461.27,-218.76 461.27,-254.76"/>
<text text-anchor="middle" x="415.77" y="-233.06" font-family="Times,serif" font-size="14.00">PinboardItem</text>
</a>
</g>
</g>
<!-- Role -->
<g id="node4" class="node">
<title>Role</title>
<g id="a_node4"><a xlink:href="/develop/Data/models.html#role" xlink:title="Role" target="_top">
<polygon fill="#eeefff" stroke="#dddeee" points="442.77,-200.76 388.77,-200.76 388.77,-164.76 442.77,-164.76 442.77,-200.76"/>
<text text-anchor="middle" x="415.77" y="-179.06" font-family="Times,serif" font-size="14.00">Role</text>
</a>
</g>
</g>
<!-- VerifierRole -->
<g id="node5" class="node">
<title>VerifierRole</title>
<g id="a_node5"><a xlink:href="/develop/Data/models.html#verifier-role" xlink:title="VerifierRole" target="_top">
<polygon fill="#eeefff" stroke="#dddeee" points="457.27,-146.76 374.27,-146.76 374.27,-110.76 457.27,-110.76 457.27,-146.76"/>
<text text-anchor="middle" x="415.77" y="-125.06" font-family="Times,serif" font-size="14.00">VerifierRole</text>
</a>
</g>
</g>
<!-- Verifier -->
<g id="node6" class="node">
<title>Verifier</title>
<g id="a_node6"><a xlink:href="/develop/Data/models.html#verifier" xlink:title="Verifier" target="_top">
<polygon fill="#eeefff" stroke="#dddeee" points="563.27,-173.76 506.27,-173.76 506.27,-137.76 563.27,-137.76 563.27,-173.76"/>
<text text-anchor="middle" x="534.77" y="-152.06" font-family="Times,serif" font-size="14.00">Verifier</text>
</a>
</g>
</g>
<!-- Creator -->
<g id="node7" class="node">
<title>Creator</title>
<g id="a_node7"><a xlink:href="/develop/Data/models.html#creator" xlink:title="Creator" target="_top">
<polygon fill="#eeefff" stroke="#dddeee" points="444.27,-92.76 387.27,-92.76 387.27,-56.76 444.27,-56.76 444.27,-92.76"/>
<text text-anchor="middle" x="415.77" y="-71.06" font-family="Times,serif" font-size="14.00">Creator</text>
</a>
</g>
</g>
<!-- Updater -->
<g id="node8" class="node">
<title>Updater</title>
<g id="a_node8"><a xlink:href="/develop/Data/models.html#updater" xlink:title="Updater" target="_top">
<polygon fill="#eeefff" stroke="#dddeee" points="564.77,-92.76 504.77,-92.76 504.77,-56.76 564.77,-56.76 564.77,-92.76"/>
<text text-anchor="middle" x="534.77" y="-71.06" font-family="Times,serif" font-size="14.00">Updater</text>
</a>
</g>
</g>
</g>
</svg>
