<?xml version="1.0" encoding="UTF-8" standalone="no"?>
<!DOCTYPE svg PUBLIC "-//W3C//DTD SVG 1.1//EN"
 "http://www.w3.org/Graphics/SVG/1.1/DTD/svg11.dtd">
<!-- Generated by graphviz version 2.50.0 (20211204.2007)
 -->
<!-- Title: GeographicArea Pages: 1 -->
<svg width="562pt" height="851pt"
 viewBox="0.00 0.00 562.14 850.97" xmlns="http://www.w3.org/2000/svg" xmlns:xlink="http://www.w3.org/1999/xlink">
<g id="graph0" class="graph" transform="scale(1 1) rotate(0) translate(4 846.97)">
<title>GeographicArea</title>
<polygon fill="white" stroke="transparent" points="-4,4 -4,-846.97 558.14,-846.97 558.14,4 -4,4"/>
<!-- GeographicArea&#45;&gt;AssertedDistribution -->
<g id="edge2" class="edge">
<title>GeographicArea&#45;&gt;AssertedDistribution</title>
<path fill="none" stroke="black" d="M79.23,-439.62C79.48,-504.56 89.42,-696.23 193.14,-797.47 200.41,-804.57 209.35,-809.84 218.85,-813.75"/>
<polygon fill="black" stroke="black" points="217.91,-817.13 228.51,-817.23 220.28,-810.55 217.91,-817.13"/>
</g>
<!-- GeographicArea&#45;&gt;CollectingEvent -->
<g id="edge4" class="edge">
<title>GeographicArea&#45;&gt;CollectingEvent</title>
<path fill="none" stroke="black" d="M80.61,-439.67C84.57,-498.05 103.47,-657.16 193.14,-741.47 203.56,-751.27 217.14,-757.68 230.9,-761.86"/>
<polygon fill="black" stroke="black" points="230.33,-765.33 240.9,-764.52 232.14,-758.57 230.33,-765.33"/>
</g>
<!-- GeographicArea&#45;&gt;AncestorHierarchy -->
<g id="edge1" class="edge">
<title>GeographicArea&#45;&gt;AncestorHierarchy</title>
<path fill="none" stroke="black" d="M82.34,-439.79C89.96,-491.45 116.07,-619.95 193.14,-687.47 201.9,-695.14 212.64,-700.66 223.77,-704.62"/>
<polygon fill="black" stroke="black" points="223.03,-708.05 233.62,-707.71 225.13,-701.38 223.03,-708.05"/>
</g>
<!-- GeographicArea&#45;&gt;Child -->
<g id="edge3" class="edge">
<title>GeographicArea&#45;&gt;Child</title>
<path fill="none" stroke="black" d="M84.87,-439.61C96.54,-483.5 128.72,-581.75 193.14,-633.47 210.89,-647.72 235.57,-654.47 255.85,-657.66"/>
<polygon fill="black" stroke="black" points="255.62,-661.16 265.99,-659.02 256.55,-654.22 255.62,-661.16"/>
</g>
<!-- GeographicArea&#45;&gt;DescendantHierarchy -->
<g id="edge5" class="edge">
<title>GeographicArea&#45;&gt;DescendantHierarchy</title>
<path fill="none" stroke="black" d="M88.94,-439.51C105,-474.6 141.16,-542.92 193.14,-579.47 200.23,-584.46 208.21,-588.53 216.48,-591.84"/>
<polygon fill="black" stroke="black" points="215.31,-595.14 225.9,-595.28 217.7,-588.57 215.31,-595.14"/>
</g>
<!-- GeographicArea&#45;&gt;GeographicAreasGeographicItem -->
<g id="edge6" class="edge">
<title>GeographicArea&#45;&gt;GeographicAreasGeographicItem</title>
<path fill="none" stroke="black" d="M97.22,-439.91C117.72,-464.47 153.79,-503.29 193.14,-525.47 196.22,-527.21 199.42,-528.84 202.7,-530.37"/>
<polygon fill="black" stroke="black" points="201.55,-533.68 212.12,-534.41 204.32,-527.25 201.55,-533.68"/>
</g>
<!-- GeographicArea&#45;&gt;PinboardItem -->
<g id="edge8" class="edge">
<title>GeographicArea&#45;&gt;PinboardItem</title>
<path fill="none" stroke="black" d="M117.73,-437.71C139.43,-448.68 167.35,-461.91 193.14,-471.47 207.26,-476.71 222.84,-481.43 237.38,-485.4"/>
<polygon fill="black" stroke="black" points="236.69,-488.84 247.25,-488.03 238.49,-482.08 236.69,-488.84"/>
</g>
<!-- GeographicArea&#45;&gt;Role -->
<g id="edge9" class="edge">
<title>GeographicArea&#45;&gt;Role</title>
<path fill="none" stroke="black" d="M157.22,-427.33C190.93,-431.62 228.8,-436.43 255.82,-439.86"/>
<polygon fill="black" stroke="black" points="255.6,-443.36 265.97,-441.15 256.49,-436.42 255.6,-443.36"/>
</g>
<!-- GeographicArea&#45;&gt;VerifierRole -->
<g id="edge12" class="edge">
<title>GeographicArea&#45;&gt;VerifierRole</title>
<path fill="none" stroke="black" d="M157.22,-407.61C185.26,-404.05 216.17,-400.12 241.32,-396.93"/>
<polygon fill="black" stroke="black" points="241.89,-400.38 251.37,-395.65 241.01,-393.44 241.89,-400.38"/>
</g>
<!-- GeographicArea&#45;&gt;Creator -->
<g id="edge14" class="edge">
<title>GeographicArea&#45;&gt;Creator</title>
<path fill="none" stroke="black" stroke-dasharray="5,2" d="M126.69,-392.76C146.81,-382.82 170.77,-371.77 193.14,-363.47 216.69,-354.74 244.33,-347.44 264.41,-342.64"/>
<polygon fill="black" stroke="black" points="125.11,-389.64 117.73,-397.24 128.24,-395.9 125.11,-389.64"/>
</g>
<!-- GeographicArea&#45;&gt;GeographicAreaType -->
<g id="edge15" class="edge">
<title>GeographicArea&#45;&gt;GeographicAreaType</title>
<path fill="none" stroke="black" stroke-dasharray="5,2" d="M103.94,-387.14C125.08,-362.76 157.79,-329.4 193.14,-309.47 203.23,-303.79 214.58,-299.25 225.89,-295.64"/>
<polygon fill="black" stroke="black" points="101.04,-385.15 97.22,-395.04 106.37,-389.69 101.04,-385.15"/>
</g>
<!-- GeographicArea&#45;&gt;Level0 -->
<g id="edge16" class="edge">
<title>GeographicArea&#45;&gt;Level0</title>
<path fill="none" stroke="black" stroke-dasharray="5,2" d="M93.29,-386.17C111.04,-349.35 145.42,-289.02 193.14,-255.47 214.85,-240.2 244.83,-233.56 266.09,-230.68"/>
<polygon fill="black" stroke="black" points="90.02,-384.9 88.94,-395.44 96.36,-387.87 90.02,-384.9"/>
</g>
<!-- GeographicArea&#45;&gt;Level1 -->
<g id="edge17" class="edge">
<title>GeographicArea&#45;&gt;Level1</title>
<path fill="none" stroke="black" stroke-dasharray="5,2" d="M87.55,-385.6C101.09,-338.23 133.12,-249.66 193.14,-201.47 213.98,-184.74 244.39,-178.35 265.99,-175.92"/>
<polygon fill="black" stroke="black" points="84.16,-384.76 84.87,-395.34 90.9,-386.63 84.16,-384.76"/>
</g>
<!-- GeographicArea&#45;&gt;Level2 -->
<g id="edge18" class="edge">
<title>GeographicArea&#45;&gt;Level2</title>
<path fill="none" stroke="black" stroke-dasharray="5,2" d="M83.94,-384.96C93.31,-328.16 120.73,-210.91 193.14,-147.47 213.37,-129.75 244.18,-123.54 266.05,-121.43"/>
<polygon fill="black" stroke="black" points="80.43,-384.73 82.34,-395.15 87.34,-385.81 80.43,-384.73"/>
</g>
<!-- GeographicArea&#45;&gt;Parent -->
<g id="edge19" class="edge">
<title>GeographicArea&#45;&gt;Parent</title>
<path fill="none" stroke="black" stroke-dasharray="5,2" d="M81.31,-385.16C86.58,-320.13 107.83,-172.94 193.14,-93.47 212.82,-75.14 243.73,-69.04 265.77,-67.12"/>
<polygon fill="black" stroke="black" points="77.81,-385 80.56,-395.23 84.79,-385.51 77.81,-385"/>
</g>
<!-- GeographicArea&#45;&gt;Updater -->
<g id="edge20" class="edge">
<title>GeographicArea&#45;&gt;Updater</title>
<path fill="none" stroke="black" stroke-dasharray="5,2" d="M84.27,-385.47C97.23,-302.1 136.33,-81.73 193.14,-39.47 264.47,13.57 321.15,12.67 393.14,-39.47 485.88,-106.64 491.98,-264.85 491.26,-318.39"/>
<polygon fill="black" stroke="black" points="80.8,-384.98 82.75,-395.39 87.72,-386.04 80.8,-384.98"/>
</g>
<!-- AncestorHierarchy&#45;&gt;SelfAndAncestor -->
<g id="edge10" class="edge">
<title>AncestorHierarchy&#45;&gt;SelfAndAncestor</title>
<path fill="none" stroke="black" d="M352.83,-714.47C375.98,-714.47 402.65,-714.47 426.32,-714.47"/>
<polygon fill="black" stroke="black" points="426.61,-717.97 436.61,-714.47 426.61,-710.97 426.61,-717.97"/>
</g>
<!-- DescendantHierarchy&#45;&gt;SelfAndDescendant -->
<g id="edge11" class="edge">
<title>DescendantHierarchy&#45;&gt;SelfAndDescendant</title>
<path fill="none" stroke="black" d="M360.39,-606.47C379.19,-606.47 399.73,-606.47 418.84,-606.47"/>
<polygon fill="black" stroke="black" points="418.98,-609.97 428.98,-606.47 418.98,-602.97 418.98,-609.97"/>
</g>
<!-- GeographicAreasGeographicItem&#45;&gt;GeographicItem -->
<g id="edge7" class="edge">
<title>GeographicAreasGeographicItem&#45;&gt;GeographicItem</title>
<path fill="none" stroke="black" d="M393.25,-552.47C405.38,-552.47 417.48,-552.47 428.83,-552.47"/>
<polygon fill="black" stroke="black" points="429.02,-555.97 439.02,-552.47 429.02,-548.97 429.02,-555.97"/>
</g>
<!-- Role&#45;&gt;Verifier -->
<!-- VerifierRole&#45;&gt;Verifier -->
<g id="edge13" class="edge">
<title>VerifierRole&#45;&gt;Verifier</title>
<path fill="none" stroke="black" d="M334.86,-396.07C369.59,-400.84 419.15,-407.65 452.98,-412.3"/>
<polygon fill="black" stroke="black" points="452.56,-415.77 462.94,-413.67 453.51,-408.84 452.56,-415.77"/>
</g>
<!-- Creator&#45;&gt;Updater -->
<!-- AssertedDistribution -->
<g id="node1" class="node">
<title>AssertedDistribution</title>
<g id="a_node1"><a xlink:href="/develop/Data/models.html#asserted-distribution" xlink:title="AssertedDistribution" target="_top">
<path fill="#fedcba" stroke="#dddeee" d="M240.64,-806.47C240.64,-806.47 345.64,-806.47 345.64,-806.47 351.64,-806.47 357.64,-812.47 357.64,-818.47 357.64,-818.47 357.64,-830.47 357.64,-830.47 357.64,-836.47 351.64,-842.47 345.64,-842.47 345.64,-842.47 240.64,-842.47 240.64,-842.47 234.64,-842.47 228.64,-836.47 228.64,-830.47 228.64,-830.47 228.64,-818.47 228.64,-818.47 228.64,-812.47 234.64,-806.47 240.64,-806.47"/>
<text text-anchor="middle" x="293.14" y="-820.77" font-family="Times,serif" font-size="14.00">AssertedDistribution</text>
</a>
</g>
</g>
<!-- CollectingEvent -->
<g id="node2" class="node">
<title>CollectingEvent</title>
<g id="a_node2"><a xlink:href="/develop/Data/models.html#collecting-event" xlink:title="CollectingEvent" target="_top">
<path fill="#fedcba" stroke="#dddeee" d="M253.14,-751.47C253.14,-751.47 333.14,-751.47 333.14,-751.47 339.14,-751.47 345.14,-757.47 345.14,-763.47 345.14,-763.47 345.14,-775.47 345.14,-775.47 345.14,-781.47 339.14,-787.47 333.14,-787.47 333.14,-787.47 253.14,-787.47 253.14,-787.47 247.14,-787.47 241.14,-781.47 241.14,-775.47 241.14,-775.47 241.14,-763.47 241.14,-763.47 241.14,-757.47 247.14,-751.47 253.14,-751.47"/>
<text text-anchor="middle" x="293.14" y="-765.77" font-family="Times,serif" font-size="14.00">CollectingEvent</text>
</a>
</g>
</g>
<!-- GeographicArea -->
<g id="node3" class="node">
<title>GeographicArea</title>
<g id="a_node3"><a xlink:href="/develop/Data/models.html#geographic-area" xlink:title="GeographicArea" target="_top">
<polygon fill="#cdefab" stroke="#dedede" points="153.21,-410.02 153.21,-424.93 109.49,-435.47 47.65,-435.47 3.93,-424.93 3.93,-410.02 47.65,-399.47 109.49,-399.47 153.21,-410.02"/>
<polygon fill="none" stroke="#dedede" points="157.21,-406.87 157.21,-428.08 109.96,-439.47 47.18,-439.47 -0.07,-428.08 -0.07,-406.87 47.18,-395.47 109.96,-395.47 157.21,-406.87"/>
<text text-anchor="middle" x="78.57" y="-413.77" font-family="Times,serif" font-size="14.00">GeographicArea</text>
</a>
</g>
</g>
<!-- AncestorHierarchy -->
<g id="node4" class="node">
<title>AncestorHierarchy</title>
<g id="a_node4"><a xlink:href="/develop/Data/models.html#ancestor-hierarchy" xlink:title="AncestorHierarchy" target="_top">
<polygon fill="#eeefff" stroke="#dddeee" points="352.64,-732.47 233.64,-732.47 233.64,-696.47 352.64,-696.47 352.64,-732.47"/>
<text text-anchor="middle" x="293.14" y="-710.77" font-family="Times,serif" font-size="14.00">AncestorHierarchy</text>
</a>
</g>
</g>
<!-- Child -->
<g id="node5" class="node">
<title>Child</title>
<g id="a_node5"><a xlink:href="/develop/Data/models.html#child" xlink:title="Child" target="_top">
<polygon fill="#eeefff" stroke="#dddeee" points="320.14,-678.47 266.14,-678.47 266.14,-642.47 320.14,-642.47 320.14,-678.47"/>
<text text-anchor="middle" x="293.14" y="-656.77" font-family="Times,serif" font-size="14.00">Child</text>
</a>
</g>
</g>
<!-- DescendantHierarchy -->
<g id="node6" class="node">
<title>DescendantHierarchy</title>
<g id="a_node6"><a xlink:href="/develop/Data/models.html#descendant-hierarchy" xlink:title="DescendantHierarchy" target="_top">
<polygon fill="#eeefff" stroke="#dddeee" points="360.14,-624.47 226.14,-624.47 226.14,-588.47 360.14,-588.47 360.14,-624.47"/>
<text text-anchor="middle" x="293.14" y="-602.77" font-family="Times,serif" font-size="14.00">DescendantHierarchy</text>
</a>
</g>
</g>
<!-- GeographicAreasGeographicItem -->
<g id="node7" class="node">
<title>GeographicAreasGeographicItem</title>
<g id="a_node7"><a xlink:href="/develop/Data/models.html#geographic-areas-geographic-item" xlink:title="GeographicAreasGeographicItem" target="_top">
<polygon fill="#eeefff" stroke="#dddeee" points="393.14,-570.47 193.14,-570.47 193.14,-534.47 393.14,-534.47 393.14,-570.47"/>
<text text-anchor="middle" x="293.14" y="-548.77" font-family="Times,serif" font-size="14.00">GeographicAreasGeographicItem</text>
</a>
</g>
</g>
<!-- GeographicItem -->
<g id="node8" class="node">
<title>GeographicItem</title>
<g id="a_node8"><a xlink:href="/develop/Data/models.html#geographic-item" xlink:title="GeographicItem" target="_top">
<polygon fill="#eeefff" stroke="#dddeee" points="544.14,-570.47 439.14,-570.47 439.14,-534.47 544.14,-534.47 544.14,-570.47"/>
<text text-anchor="middle" x="491.64" y="-548.77" font-family="Times,serif" font-size="14.00">GeographicItem</text>
</a>
</g>
</g>
<!-- PinboardItem -->
<g id="node9" class="node">
<title>PinboardItem</title>
<g id="a_node9"><a xlink:href="/develop/Data/models.html#pinboard-item" xlink:title="PinboardItem" target="_top">
<polygon fill="#eeefff" stroke="#dddeee" points="338.64,-516.47 247.64,-516.47 247.64,-480.47 338.64,-480.47 338.64,-516.47"/>
<text text-anchor="middle" x="293.14" y="-494.77" font-family="Times,serif" font-size="14.00">PinboardItem</text>
</a>
</g>
</g>
<!-- Role -->
<g id="node10" class="node">
<title>Role</title>
<g id="a_node10"><a xlink:href="/develop/Data/models.html#role" xlink:title="Role" target="_top">
<polygon fill="#eeefff" stroke="#dddeee" points="320.14,-462.47 266.14,-462.47 266.14,-426.47 320.14,-426.47 320.14,-462.47"/>
<text text-anchor="middle" x="293.14" y="-440.77" font-family="Times,serif" font-size="14.00">Role</text>
</a>
</g>
</g>
<!-- SelfAndAncestor -->
<g id="node11" class="node">
<title>SelfAndAncestor</title>
<g id="a_node11"><a xlink:href="/develop/Data/models.html#self-and-ancestor" xlink:title="SelfAndAncestor" target="_top">
<polygon fill="#eeefff" stroke="#dddeee" points="546.64,-732.47 436.64,-732.47 436.64,-696.47 546.64,-696.47 546.64,-732.47"/>
<text text-anchor="middle" x="491.64" y="-710.77" font-family="Times,serif" font-size="14.00">SelfAndAncestor</text>
</a>
</g>
</g>
<!-- SelfAndDescendant -->
<g id="node12" class="node">
<title>SelfAndDescendant</title>
<g id="a_node12"><a xlink:href="/develop/Data/models.html#self-and-descendant" xlink:title="SelfAndDescendant" target="_top">
<polygon fill="#eeefff" stroke="#dddeee" points="554.14,-624.47 429.14,-624.47 429.14,-588.47 554.14,-588.47 554.14,-624.47"/>
<text text-anchor="middle" x="491.64" y="-602.77" font-family="Times,serif" font-size="14.00">SelfAndDescendant</text>
</a>
</g>
</g>
<!-- VerifierRole -->
<g id="node13" class="node">
<title>VerifierRole</title>
<g id="a_node13"><a xlink:href="/develop/Data/models.html#verifier-role" xlink:title="VerifierRole" target="_top">
<polygon fill="#eeefff" stroke="#dddeee" points="334.64,-408.47 251.64,-408.47 251.64,-372.47 334.64,-372.47 334.64,-408.47"/>
<text text-anchor="middle" x="293.14" y="-386.77" font-family="Times,serif" font-size="14.00">VerifierRole</text>
</a>
</g>
</g>
<!-- Verifier -->
<g id="node14" class="node">
<title>Verifier</title>
<g id="a_node14"><a xlink:href="/develop/Data/models.html#verifier" xlink:title="Verifier" target="_top">
<polygon fill="#eeefff" stroke="#dddeee" points="520.14,-435.47 463.14,-435.47 463.14,-399.47 520.14,-399.47 520.14,-435.47"/>
<text text-anchor="middle" x="491.64" y="-413.77" font-family="Times,serif" font-size="14.00">Verifier</text>
</a>
</g>
</g>
<!-- Creator -->
<g id="node15" class="node">
<title>Creator</title>
<g id="a_node15"><a xlink:href="/develop/Data/models.html#creator" xlink:title="Creator" target="_top">
<polygon fill="#eeefff" stroke="#dddeee" points="321.64,-354.47 264.64,-354.47 264.64,-318.47 321.64,-318.47 321.64,-354.47"/>
<text text-anchor="middle" x="293.14" y="-332.77" font-family="Times,serif" font-size="14.00">Creator</text>
</a>
</g>
</g>
<!-- GeographicAreaType -->
<g id="node16" class="node">
<title>GeographicAreaType</title>
<g id="a_node16"><a xlink:href="/develop/Data/models.html#geographic-area-type" xlink:title="GeographicAreaType" target="_top">
<polygon fill="#eeefff" stroke="#dddeee" points="360.14,-300.47 226.14,-300.47 226.14,-264.47 360.14,-264.47 360.14,-300.47"/>
<text text-anchor="middle" x="293.14" y="-278.77" font-family="Times,serif" font-size="14.00">GeographicAreaType</text>
</a>
</g>
</g>
<!-- Level0 -->
<g id="node17" class="node">
<title>Level0</title>
<g id="a_node17"><a xlink:href="/develop/Data/models.html#level0" xlink:title="Level0" target="_top">
<polygon fill="#eeefff" stroke="#dddeee" points="320.14,-246.47 266.14,-246.47 266.14,-210.47 320.14,-210.47 320.14,-246.47"/>
<text text-anchor="middle" x="293.14" y="-224.77" font-family="Times,serif" font-size="14.00">Level0</text>
</a>
</g>
</g>
<!-- Level1 -->
<g id="node18" class="node">
<title>Level1</title>
<g id="a_node18"><a xlink:href="/develop/Data/models.html#level1" xlink:title="Level1" target="_top">
<polygon fill="#eeefff" stroke="#dddeee" points="320.14,-192.47 266.14,-192.47 266.14,-156.47 320.14,-156.47 320.14,-192.47"/>
<text text-anchor="middle" x="293.14" y="-170.77" font-family="Times,serif" font-size="14.00">Level1</text>
</a>
</g>
</g>
<!-- Level2 -->
<g id="node19" class="node">
<title>Level2</title>
<g id="a_node19"><a xlink:href="/develop/Data/models.html#level2" xlink:title="Level2" target="_top">
<polygon fill="#eeefff" stroke="#dddeee" points="320.14,-138.47 266.14,-138.47 266.14,-102.47 320.14,-102.47 320.14,-138.47"/>
<text text-anchor="middle" x="293.14" y="-116.77" font-family="Times,serif" font-size="14.00">Level2</text>
</a>
</g>
</g>
<!-- Parent -->
<g id="node20" class="node">
<title>Parent</title>
<g id="a_node20"><a xlink:href="/develop/Data/models.html#parent" xlink:title="Parent" target="_top">
<polygon fill="#eeefff" stroke="#dddeee" points="320.14,-84.47 266.14,-84.47 266.14,-48.47 320.14,-48.47 320.14,-84.47"/>
<text text-anchor="middle" x="293.14" y="-62.77" font-family="Times,serif" font-size="14.00">Parent</text>
</a>
</g>
</g>
<!-- Updater -->
<g id="node21" class="node">
<title>Updater</title>
<g id="a_node21"><a xlink:href="/develop/Data/models.html#updater" xlink:title="Updater" target="_top">
<polygon fill="#eeefff" stroke="#dddeee" points="521.64,-354.47 461.64,-354.47 461.64,-318.47 521.64,-318.47 521.64,-354.47"/>
<text text-anchor="middle" x="491.64" y="-332.77" font-family="Times,serif" font-size="14.00">Updater</text>
</a>
</g>
</g>
</g>
</svg>
