<?xml version="1.0" encoding="UTF-8" standalone="no"?>
<!DOCTYPE svg PUBLIC "-//W3C//DTD SVG 1.1//EN"
 "http://www.w3.org/Graphics/SVG/1.1/DTD/svg11.dtd">
<!-- Generated by graphviz version 2.50.0 (20211204.2007)
 -->
<!-- Title: Georeference Pages: 1 -->
<svg width="828pt" height="720pt"
 viewBox="0.00 0.00 827.51 719.66" xmlns="http://www.w3.org/2000/svg" xmlns:xlink="http://www.w3.org/1999/xlink">
<g id="graph0" class="graph" transform="scale(1 1) rotate(0) translate(4 715.66)">
<title>Georeference</title>
<polygon fill="white" stroke="transparent" points="-4,4 -4,-715.66 823.51,-715.66 823.51,4 -4,4"/>
<text text-anchor="middle" x="409.75" y="-22.8" font-family="Times,serif" font-size="14.00">Algorithmically generated relationships for Georeference based on assertions of &#39;has_many&#39;, &#39;has_one&#39;, &#39;belongs_to&#39;. </text>
<text text-anchor="middle" x="409.75" y="-7.8" font-family="Times,serif" font-size="14.00">Generated 2022&#45;01&#45;25 11:37:54 &#45;0600.</text>
<!-- Citation&#45;&gt;Source -->
<g id="edge15" class="edge">
<title>Citation&#45;&gt;Source</title>
<path fill="none" stroke="black" d="M124.17,-638.66C193.01,-638.66 337.38,-638.66 405.04,-638.66"/>
<polygon fill="black" stroke="black" points="405.22,-642.16 415.22,-638.66 405.22,-635.16 405.22,-642.16"/>
</g>
<!-- Citation&#45;&gt;CitationTopic -->
<g id="edge1" class="edge">
<title>Citation&#45;&gt;CitationTopic</title>
<path fill="none" stroke="black" d="M118.5,-648.24C145.63,-656.28 184.96,-667.92 217,-677.41"/>
<polygon fill="black" stroke="black" points="216.11,-680.79 226.69,-680.28 218.1,-674.08 216.11,-680.79"/>
</g>
<!-- Confidence&#45;&gt;ConfidenceLevel -->
<g id="edge4" class="edge">
<title>Confidence&#45;&gt;ConfidenceLevel</title>
<path fill="none" stroke="black" d="M135.92,-313.39C158.01,-313.28 184.29,-313.13 207.82,-313.01"/>
<polygon fill="black" stroke="black" points="208.09,-316.51 218.07,-312.95 208.05,-309.51 208.09,-316.51"/>
</g>
<!-- Tag&#45;&gt;Keyword -->
<g id="edge9" class="edge">
<title>Tag&#45;&gt;Keyword</title>
<path fill="none" stroke="black" d="M112.36,-258.66C142.67,-258.66 193,-258.66 229.03,-258.66"/>
<polygon fill="black" stroke="black" points="229.24,-262.16 239.24,-258.66 229.24,-255.16 229.24,-262.16"/>
</g>
<!-- ProtocolRelationship&#45;&gt;Protocol -->
<g id="edge13" class="edge">
<title>ProtocolRelationship&#45;&gt;Protocol</title>
<path fill="none" stroke="black" d="M170.32,-204.66C191.67,-204.66 213.63,-204.66 231.65,-204.66"/>
<polygon fill="black" stroke="black" points="231.77,-208.16 241.77,-204.66 231.77,-201.16 231.77,-208.16"/>
</g>
<!-- CollectingEvent&#45;&gt;CollectionObject -->
<g id="edge3" class="edge">
<title>CollectingEvent&#45;&gt;CollectionObject</title>
<path fill="none" stroke="black" d="M494.76,-398.66C509.67,-398.66 526.13,-398.66 541.71,-398.66"/>
<polygon fill="black" stroke="black" points="541.79,-402.16 551.79,-398.66 541.79,-395.16 541.79,-402.16"/>
</g>
<!-- Source&#45;&gt;SubsequentCitation -->
<!-- Source&#45;&gt;OriginCitation -->
<!-- Georeference&#45;&gt;Citation -->
<g id="edge2" class="edge">
<title>Georeference&#45;&gt;Citation</title>
<path fill="none" stroke="black" d="M256.54,-392.82C222.36,-442.14 140.15,-560.75 103.86,-613.1"/>
<polygon fill="black" stroke="black" points="100.86,-611.28 98.04,-621.49 106.62,-615.27 100.86,-611.28"/>
</g>
<!-- Georeference&#45;&gt;Confidence -->
<g id="edge5" class="edge">
<title>Georeference&#45;&gt;Confidence</title>
<path fill="none" stroke="black" d="M222.26,-355.43C194.84,-347.02 160.94,-336.62 133.84,-328.3"/>
<polygon fill="black" stroke="black" points="134.77,-324.92 124.18,-325.33 132.71,-331.61 134.77,-324.92"/>
</g>
<!-- Georeference&#45;&gt;DataAttribute -->
<g id="edge6" class="edge">
<title>Georeference&#45;&gt;DataAttribute</title>
<path fill="none" stroke="black" d="M220.12,-385.16C194.85,-392.23 164.49,-400.73 139.07,-407.85"/>
<polygon fill="black" stroke="black" points="137.91,-404.54 129.22,-410.6 139.8,-411.28 137.91,-404.54"/>
</g>
<!-- Georeference&#45;&gt;Tag -->
<g id="edge18" class="edge">
<title>Georeference&#45;&gt;Tag</title>
<path fill="none" stroke="black" d="M227.9,-353.89C220.25,-349.89 212.7,-345.15 206.28,-339.66 184.65,-321.15 192.99,-303.84 170.28,-286.66 156.18,-275.99 137.8,-269.26 121.82,-265.08"/>
<polygon fill="black" stroke="black" points="122.26,-261.59 111.73,-262.69 120.65,-268.4 122.26,-261.59"/>
</g>
<!-- Georeference&#45;&gt;Note -->
<g id="edge10" class="edge">
<title>Georeference&#45;&gt;Note</title>
<path fill="none" stroke="black" d="M205.94,-369.95C178.24,-369.65 147.04,-369.32 123.43,-369.06"/>
<polygon fill="black" stroke="black" points="123.19,-365.56 113.15,-368.95 123.11,-372.56 123.19,-365.56"/>
</g>
<!-- Georeference&#45;&gt;ProtocolRelationship -->
<g id="edge12" class="edge">
<title>Georeference&#45;&gt;ProtocolRelationship</title>
<path fill="none" stroke="black" d="M225.23,-354.5C218.2,-350.49 211.55,-345.6 206.28,-339.66 172.71,-301.81 206.26,-267.24 170.28,-231.66 166.33,-227.75 161.81,-224.41 156.96,-221.55"/>
<polygon fill="black" stroke="black" points="158.42,-218.36 147.93,-216.9 155.22,-224.59 158.42,-218.36"/>
</g>
<!-- Georeference&#45;&gt;CollectingEvent -->
<g id="edge22" class="edge">
<title>Georeference&#45;&gt;CollectingEvent</title>
<path fill="none" stroke="black" stroke-dasharray="5,2" d="M348.84,-383.18C362.89,-385.53 377.27,-387.93 390.38,-390.12"/>
<polygon fill="black" stroke="black" points="349.14,-379.68 338.7,-381.49 347.99,-386.59 349.14,-379.68"/>
</g>
<!-- Georeference&#45;&gt;Source -->
<g id="edge29" class="edge">
<title>Georeference&#45;&gt;Source</title>
<path fill="none" stroke="black" stroke-dasharray="1,5" d="M280.34,-402.69C291.71,-451.89 319.61,-546.58 375.51,-605.66 386.33,-617.11 401.99,-625.17 415.34,-630.47"/>
<polygon fill="black" stroke="black" points="283.75,-401.91 278.16,-392.91 276.92,-403.43 283.75,-401.91"/>
</g>
<!-- Georeference&#45;&gt;GeoreferencerRole -->
<g id="edge7" class="edge">
<title>Georeference&#45;&gt;GeoreferencerRole</title>
<path fill="none" stroke="black" d="M339.66,-360.07C350.54,-358.32 361.85,-356.49 372.81,-354.73"/>
<polygon fill="black" stroke="black" points="373.43,-358.17 382.74,-353.13 372.31,-351.26 373.43,-358.17"/>
</g>
<!-- Georeference&#45;&gt;PinboardItem -->
<g id="edge11" class="edge">
<title>Georeference&#45;&gt;PinboardItem</title>
<path fill="none" stroke="black" d="M313.86,-352.77C322.42,-348.67 331.35,-344.17 339.51,-339.66 356.12,-330.48 358.65,-325.4 375.51,-316.66 379.45,-314.62 383.58,-312.62 387.77,-310.69"/>
<polygon fill="black" stroke="black" points="389.27,-313.85 396.98,-306.59 386.42,-307.46 389.27,-313.85"/>
</g>
<!-- Georeference&#45;&gt;Role -->
<g id="edge14" class="edge">
<title>Georeference&#45;&gt;Role</title>
<path fill="none" stroke="black" d="M319.31,-354.33C326.65,-350.32 333.73,-345.46 339.51,-339.66 366.17,-312.9 348.15,-288.71 375.51,-262.66 383.95,-254.62 395.11,-248.84 405.85,-244.75"/>
<polygon fill="black" stroke="black" points="407.17,-248 415.5,-241.45 404.91,-241.38 407.17,-248"/>
</g>
<!-- Georeference&#45;&gt;SubsequentCitation -->
<g id="edge16" class="edge">
<title>Georeference&#45;&gt;SubsequentCitation</title>
<path fill="none" stroke="black" d="M306.89,-390.85C326.35,-402.16 351.76,-415.91 375.51,-425.66 432.88,-449.23 452.32,-440.63 509.51,-464.66 529.77,-473.18 551.2,-484.94 568.65,-495.31"/>
<polygon fill="black" stroke="black" points="567.02,-498.41 577.39,-500.58 570.64,-492.42 567.02,-498.41"/>
</g>
<!-- Georeference&#45;&gt;VerifierRole -->
<g id="edge20" class="edge">
<title>Georeference&#45;&gt;VerifierRole</title>
<path fill="none" stroke="black" d="M320.84,-354.73C327.83,-350.7 334.4,-345.74 339.51,-339.66 378.35,-293.43 335.45,-253.84 375.51,-208.66 380.03,-203.56 385.67,-199.4 391.72,-196.02"/>
<polygon fill="black" stroke="black" points="393.35,-199.12 400.82,-191.6 390.29,-192.82 393.35,-199.12"/>
</g>
<!-- Georeference&#45;&gt;Creator -->
<g id="edge23" class="edge">
<title>Georeference&#45;&gt;Creator</title>
<path fill="none" stroke="black" stroke-dasharray="5,2" d="M330.56,-349.05C333.92,-346.27 336.96,-343.16 339.51,-339.66 412.58,-239.3 282.24,-144.6 375.51,-62.66 432.44,-12.65 530.23,-50.93 577.84,-74.59"/>
<polygon fill="black" stroke="black" points="328.39,-346.3 322.23,-354.92 332.42,-352.02 328.39,-346.3"/>
</g>
<!-- Georeference&#45;&gt;ErrorGeographicItem -->
<g id="edge24" class="edge">
<title>Georeference&#45;&gt;ErrorGeographicItem</title>
<path fill="none" stroke="black" stroke-dasharray="5,2" d="M288.47,-401.94C305.27,-434.97 335.76,-486.61 375.51,-518.66 379.65,-522 384.26,-524.99 389.07,-527.63"/>
<polygon fill="black" stroke="black" points="291.48,-400.13 283.9,-392.74 285.21,-403.25 291.48,-400.13"/>
</g>
<!-- Georeference&#45;&gt;GeographicItem -->
<g id="edge25" class="edge">
<title>Georeference&#45;&gt;GeographicItem</title>
<path fill="none" stroke="black" stroke-dasharray="5,2" d="M302.82,-399.76C322.28,-418.35 349.11,-442.16 375.51,-459.66 383.04,-464.66 391.47,-469.34 399.73,-473.51"/>
<polygon fill="black" stroke="black" points="305.1,-397.1 295.48,-392.66 300.24,-402.13 305.1,-397.1"/>
</g>
<!-- Georeference&#45;&gt;Project -->
<g id="edge26" class="edge">
<title>Georeference&#45;&gt;Project</title>
<path fill="none" stroke="black" stroke-dasharray="5,2" d="M329.97,-349.31C333.54,-346.47 336.79,-343.27 339.51,-339.66 398.67,-261.28 316.74,-200.34 375.51,-121.66 385.03,-108.91 400.99,-100.98 414.83,-96.21"/>
<polygon fill="black" stroke="black" points="327.98,-346.43 321.72,-354.98 331.94,-352.2 327.98,-346.43"/>
</g>
<!-- Georeference&#45;&gt;Updater -->
<g id="edge27" class="edge">
<title>Georeference&#45;&gt;Updater</title>
<path fill="none" stroke="black" stroke-dasharray="5,2" d="M329.86,-349.23C333.45,-346.4 336.74,-343.23 339.51,-339.66 390.92,-273.53 314.45,-212 375.51,-154.66 423.21,-109.87 603.45,-130.05 667.51,-116.66 689.23,-112.12 713.28,-105.09 731.48,-99.33"/>
<polygon fill="black" stroke="black" points="327.87,-346.35 321.57,-354.86 331.8,-352.13 327.87,-346.35"/>
</g>
<!-- Georeference&#45;&gt;OriginCitation -->
<g id="edge28" class="edge">
<title>Georeference&#45;&gt;OriginCitation</title>
<path fill="none" stroke="black" stroke-dasharray="1,5" d="M280.58,-402.67C291.83,-448.09 319.09,-530.43 375.51,-572.66 403.82,-593.86 500.15,-605.66 558.78,-611.03"/>
<polygon fill="black" stroke="black" points="283.94,-401.69 278.23,-392.76 277.13,-403.3 283.94,-401.69"/>
</g>
<!-- CitationTopic&#45;&gt;Topic -->
<g id="edge19" class="edge">
<title>CitationTopic&#45;&gt;Topic</title>
<path fill="none" stroke="black" d="M319.25,-693.66C346.23,-693.66 379.99,-693.66 405.2,-693.66"/>
<polygon fill="black" stroke="black" points="405.43,-697.16 415.43,-693.66 405.43,-690.16 405.43,-697.16"/>
</g>
<!-- GeoreferencerRole&#45;&gt;Georeferencer -->
<g id="edge8" class="edge">
<title>GeoreferencerRole&#45;&gt;Georeferencer</title>
<path fill="none" stroke="black" d="M502.45,-343.66C517.67,-343.66 534.01,-343.66 549.09,-343.66"/>
<polygon fill="black" stroke="black" points="549.3,-347.16 559.3,-343.66 549.3,-340.16 549.3,-347.16"/>
</g>
<!-- Role&#45;&gt;Verifier -->
<!-- SubsequentCitation&#45;&gt;SubsequentSource -->
<g id="edge17" class="edge">
<title>SubsequentCitation&#45;&gt;SubsequentSource</title>
<path fill="none" stroke="black" d="M667.54,-518.66C675.87,-518.66 684.48,-518.66 692.93,-518.66"/>
<polygon fill="black" stroke="black" points="693.15,-522.16 703.15,-518.66 693.15,-515.16 693.15,-522.16"/>
</g>
<!-- VerifierRole&#45;&gt;Verifier -->
<g id="edge21" class="edge">
<title>VerifierRole&#45;&gt;Verifier</title>
<path fill="none" stroke="black" d="M484.39,-188.48C509.98,-192.74 542.71,-198.2 567.7,-202.36"/>
<polygon fill="black" stroke="black" points="567.45,-205.87 577.89,-204.06 568.6,-198.96 567.45,-205.87"/>
</g>
<!-- Creator&#45;&gt;Updater -->
<!-- Project&#45;&gt;Creator -->
<!-- Citation -->
<g id="node1" class="node">
<title>Citation</title>
<g id="a_node1"><a xlink:href="/develop/Data/models.html#citation" xlink:title="Citation" target="_top">
<ellipse fill="#abcdef" stroke="#dddeee" cx="85.14" cy="-638.66" rx="38.99" ry="18"/>
<text text-anchor="middle" x="85.14" y="-634.96" font-family="Times,serif" font-size="14.00">Citation</text>
</a>
</g>
</g>
<!-- Confidence -->
<g id="node2" class="node">
<title>Confidence</title>
<g id="a_node2"><a xlink:href="/develop/Data/models.html#confidence" xlink:title="Confidence" target="_top">
<ellipse fill="#abcdef" stroke="#dddeee" cx="85.14" cy="-313.66" rx="50.89" ry="18"/>
<text text-anchor="middle" x="85.14" y="-309.96" font-family="Times,serif" font-size="14.00">Confidence</text>
</a>
</g>
</g>
<!-- DataAttribute -->
<g id="node3" class="node">
<title>DataAttribute</title>
<g id="a_node3"><a xlink:href="/develop/Data/models.html#data-attribute" xlink:title="DataAttribute" target="_top">
<ellipse fill="#abcdef" stroke="#dddeee" cx="85.14" cy="-422.66" rx="59.29" ry="18"/>
<text text-anchor="middle" x="85.14" y="-418.96" font-family="Times,serif" font-size="14.00">DataAttribute</text>
</a>
</g>
</g>
<!-- Tag -->
<g id="node4" class="node">
<title>Tag</title>
<g id="a_node4"><a xlink:href="/develop/Data/models.html#tag" xlink:title="Tag" target="_top">
<ellipse fill="#abcdef" stroke="#dddeee" cx="85.14" cy="-258.66" rx="27" ry="18"/>
<text text-anchor="middle" x="85.14" y="-254.96" font-family="Times,serif" font-size="14.00">Tag</text>
</a>
</g>
</g>
<!-- Note -->
<g id="node5" class="node">
<title>Note</title>
<g id="a_node5"><a xlink:href="/develop/Data/models.html#note" xlink:title="Note" target="_top">
<ellipse fill="#abcdef" stroke="#dddeee" cx="85.14" cy="-368.66" rx="27.9" ry="18"/>
<text text-anchor="middle" x="85.14" y="-364.96" font-family="Times,serif" font-size="14.00">Note</text>
</a>
</g>
</g>
<!-- ProtocolRelationship -->
<g id="node6" class="node">
<title>ProtocolRelationship</title>
<g id="a_node6"><a xlink:href="/develop/Data/models.html#protocol-relationship" xlink:title="ProtocolRelationship" target="_top">
<ellipse fill="#abcdef" stroke="#dddeee" cx="85.14" cy="-204.66" rx="85.29" ry="18"/>
<text text-anchor="middle" x="85.14" y="-200.96" font-family="Times,serif" font-size="14.00">ProtocolRelationship</text>
</a>
</g>
</g>
<!-- CollectingEvent -->
<g id="node7" class="node">
<title>CollectingEvent</title>
<g id="a_node7"><a xlink:href="/develop/Data/models.html#collecting-event" xlink:title="CollectingEvent" target="_top">
<path fill="#fedcba" stroke="#dddeee" d="M402.51,-380.66C402.51,-380.66 482.51,-380.66 482.51,-380.66 488.51,-380.66 494.51,-386.66 494.51,-392.66 494.51,-392.66 494.51,-404.66 494.51,-404.66 494.51,-410.66 488.51,-416.66 482.51,-416.66 482.51,-416.66 402.51,-416.66 402.51,-416.66 396.51,-416.66 390.51,-410.66 390.51,-404.66 390.51,-404.66 390.51,-392.66 390.51,-392.66 390.51,-386.66 396.51,-380.66 402.51,-380.66"/>
<text text-anchor="middle" x="442.51" y="-394.96" font-family="Times,serif" font-size="14.00">CollectingEvent</text>
</a>
</g>
</g>
<!-- CollectionObject -->
<g id="node8" class="node">
<title>CollectionObject</title>
<g id="a_node8"><a xlink:href="/develop/Data/models.html#collection-object" xlink:title="CollectionObject" target="_top">
<path fill="#fedcba" stroke="#dddeee" d="M564.01,-380.66C564.01,-380.66 649.01,-380.66 649.01,-380.66 655.01,-380.66 661.01,-386.66 661.01,-392.66 661.01,-392.66 661.01,-404.66 661.01,-404.66 661.01,-410.66 655.01,-416.66 649.01,-416.66 649.01,-416.66 564.01,-416.66 564.01,-416.66 558.01,-416.66 552.01,-410.66 552.01,-404.66 552.01,-404.66 552.01,-392.66 552.01,-392.66 552.01,-386.66 558.01,-380.66 564.01,-380.66"/>
<text text-anchor="middle" x="606.51" y="-394.96" font-family="Times,serif" font-size="14.00">CollectionObject</text>
</a>
</g>
</g>
<!-- Source -->
<g id="node9" class="node">
<title>Source</title>
<g id="a_node9"><a xlink:href="/develop/Data/models.html#source" xlink:title="Source" target="_top">
<path fill="#fedcba" stroke="#dddeee" d="M427.51,-620.66C427.51,-620.66 457.51,-620.66 457.51,-620.66 463.51,-620.66 469.51,-626.66 469.51,-632.66 469.51,-632.66 469.51,-644.66 469.51,-644.66 469.51,-650.66 463.51,-656.66 457.51,-656.66 457.51,-656.66 427.51,-656.66 427.51,-656.66 421.51,-656.66 415.51,-650.66 415.51,-644.66 415.51,-644.66 415.51,-632.66 415.51,-632.66 415.51,-626.66 421.51,-620.66 427.51,-620.66"/>
<text text-anchor="middle" x="442.51" y="-634.96" font-family="Times,serif" font-size="14.00">Source</text>
</a>
</g>
</g>
<!-- Georeference -->
<g id="node10" class="node">
<title>Georeference</title>
<g id="a_node10"><a xlink:href="/develop/Data/models.html#georeference" xlink:title="Georeference" target="_top">
<polygon fill="#cdefab" stroke="#dedede" points="335.61,-363.21 335.61,-378.12 298.87,-388.66 246.92,-388.66 210.18,-378.12 210.18,-363.21 246.92,-352.66 298.87,-352.66 335.61,-363.21"/>
<polygon fill="none" stroke="#dedede" points="339.62,-360.19 339.62,-381.13 299.44,-392.66 246.35,-392.66 206.17,-381.13 206.17,-360.19 246.35,-348.66 299.44,-348.66 339.62,-360.19"/>
<text text-anchor="middle" x="272.9" y="-366.96" font-family="Times,serif" font-size="14.00">Georeference</text>
</a>
</g>
</g>
<!-- CitationTopic -->
<g id="node11" class="node">
<title>CitationTopic</title>
<g id="a_node11"><a xlink:href="/develop/Data/models.html#citation-topic" xlink:title="CitationTopic" target="_top">
<polygon fill="#eeefff" stroke="#dddeee" points="318.9,-711.66 226.9,-711.66 226.9,-675.66 318.9,-675.66 318.9,-711.66"/>
<text text-anchor="middle" x="272.9" y="-689.96" font-family="Times,serif" font-size="14.00">CitationTopic</text>
</a>
</g>
</g>
<!-- ConfidenceLevel -->
<g id="node12" class="node">
<title>ConfidenceLevel</title>
<g id="a_node12"><a xlink:href="/develop/Data/models.html#confidence-level" xlink:title="ConfidenceLevel" target="_top">
<polygon fill="#eeefff" stroke="#dddeee" points="327.4,-330.66 218.4,-330.66 218.4,-294.66 327.4,-294.66 327.4,-330.66"/>
<text text-anchor="middle" x="272.9" y="-308.96" font-family="Times,serif" font-size="14.00">ConfidenceLevel</text>
</a>
</g>
</g>
<!-- GeoreferencerRole -->
<g id="node13" class="node">
<title>GeoreferencerRole</title>
<g id="a_node13"><a xlink:href="/develop/Data/models.html#georeferencer-role" xlink:title="GeoreferencerRole" target="_top">
<polygon fill="#eeefff" stroke="#dddeee" points="502.01,-361.66 383.01,-361.66 383.01,-325.66 502.01,-325.66 502.01,-361.66"/>
<text text-anchor="middle" x="442.51" y="-339.96" font-family="Times,serif" font-size="14.00">GeoreferencerRole</text>
</a>
</g>
</g>
<!-- Georeferencer -->
<g id="node14" class="node">
<title>Georeferencer</title>
<g id="a_node14"><a xlink:href="/develop/Data/models.html#georeferencer" xlink:title="Georeferencer" target="_top">
<polygon fill="#eeefff" stroke="#dddeee" points="653.51,-361.66 559.51,-361.66 559.51,-325.66 653.51,-325.66 653.51,-361.66"/>
<text text-anchor="middle" x="606.51" y="-339.96" font-family="Times,serif" font-size="14.00">Georeferencer</text>
</a>
</g>
</g>
<!-- Keyword -->
<g id="node15" class="node">
<title>Keyword</title>
<g id="a_node15"><a xlink:href="/develop/Data/models.html#keyword" xlink:title="Keyword" target="_top">
<polygon fill="#eeefff" stroke="#dddeee" points="306.4,-276.66 239.4,-276.66 239.4,-240.66 306.4,-240.66 306.4,-276.66"/>
<text text-anchor="middle" x="272.9" y="-254.96" font-family="Times,serif" font-size="14.00">Keyword</text>
</a>
</g>
</g>
<!-- PinboardItem -->
<g id="node16" class="node">
<title>PinboardItem</title>
<g id="a_node16"><a xlink:href="/develop/Data/models.html#pinboard-item" xlink:title="PinboardItem" target="_top">
<polygon fill="#eeefff" stroke="#dddeee" points="488.01,-307.66 397.01,-307.66 397.01,-271.66 488.01,-271.66 488.01,-307.66"/>
<text text-anchor="middle" x="442.51" y="-285.96" font-family="Times,serif" font-size="14.00">PinboardItem</text>
</a>
</g>
</g>
<!-- Protocol -->
<g id="node17" class="node">
<title>Protocol</title>
<g id="a_node17"><a xlink:href="/develop/Data/models.html#protocol" xlink:title="Protocol" target="_top">
<polygon fill="#eeefff" stroke="#dddeee" points="303.9,-222.66 241.9,-222.66 241.9,-186.66 303.9,-186.66 303.9,-222.66"/>
<text text-anchor="middle" x="272.9" y="-200.96" font-family="Times,serif" font-size="14.00">Protocol</text>
</a>
</g>
</g>
<!-- Role -->
<g id="node18" class="node">
<title>Role</title>
<g id="a_node18"><a xlink:href="/develop/Data/models.html#role" xlink:title="Role" target="_top">
<polygon fill="#eeefff" stroke="#dddeee" points="469.51,-253.66 415.51,-253.66 415.51,-217.66 469.51,-217.66 469.51,-253.66"/>
<text text-anchor="middle" x="442.51" y="-231.96" font-family="Times,serif" font-size="14.00">Role</text>
</a>
</g>
</g>
<!-- SubsequentCitation -->
<g id="node19" class="node">
<title>SubsequentCitation</title>
<g id="a_node19"><a xlink:href="/develop/Data/models.html#subsequent-citation" xlink:title="SubsequentCitation" target="_top">
<polygon fill="#eeefff" stroke="#dddeee" points="667.51,-536.66 545.51,-536.66 545.51,-500.66 667.51,-500.66 667.51,-536.66"/>
<text text-anchor="middle" x="606.51" y="-514.96" font-family="Times,serif" font-size="14.00">SubsequentCitation</text>
</a>
</g>
</g>
<!-- SubsequentSource -->
<g id="node20" class="node">
<title>SubsequentSource</title>
<g id="a_node20"><a xlink:href="/develop/Data/models.html#subsequent-source" xlink:title="SubsequentSource" target="_top">
<polygon fill="#eeefff" stroke="#dddeee" points="819.51,-536.66 703.51,-536.66 703.51,-500.66 819.51,-500.66 819.51,-536.66"/>
<text text-anchor="middle" x="761.51" y="-514.96" font-family="Times,serif" font-size="14.00">SubsequentSource</text>
</a>
</g>
</g>
<!-- Topic -->
<g id="node21" class="node">
<title>Topic</title>
<g id="a_node21"><a xlink:href="/develop/Data/models.html#topic" xlink:title="Topic" target="_top">
<polygon fill="#eeefff" stroke="#dddeee" points="469.51,-711.66 415.51,-711.66 415.51,-675.66 469.51,-675.66 469.51,-711.66"/>
<text text-anchor="middle" x="442.51" y="-689.96" font-family="Times,serif" font-size="14.00">Topic</text>
</a>
</g>
</g>
<!-- VerifierRole -->
<g id="node22" class="node">
<title>VerifierRole</title>
<g id="a_node22"><a xlink:href="/develop/Data/models.html#verifier-role" xlink:title="VerifierRole" target="_top">
<polygon fill="#eeefff" stroke="#dddeee" points="484.01,-199.66 401.01,-199.66 401.01,-163.66 484.01,-163.66 484.01,-199.66"/>
<text text-anchor="middle" x="442.51" y="-177.96" font-family="Times,serif" font-size="14.00">VerifierRole</text>
</a>
</g>
</g>
<!-- Verifier -->
<g id="node23" class="node">
<title>Verifier</title>
<g id="a_node23"><a xlink:href="/develop/Data/models.html#verifier" xlink:title="Verifier" target="_top">
<polygon fill="#eeefff" stroke="#dddeee" points="635.01,-226.66 578.01,-226.66 578.01,-190.66 635.01,-190.66 635.01,-226.66"/>
<text text-anchor="middle" x="606.51" y="-204.96" font-family="Times,serif" font-size="14.00">Verifier</text>
</a>
</g>
</g>
<!-- Creator -->
<g id="node24" class="node">
<title>Creator</title>
<g id="a_node24"><a xlink:href="/develop/Data/models.html#creator" xlink:title="Creator" target="_top">
<polygon fill="#eeefff" stroke="#dddeee" points="635.01,-107.66 578.01,-107.66 578.01,-71.66 635.01,-71.66 635.01,-107.66"/>
<text text-anchor="middle" x="606.51" y="-85.96" font-family="Times,serif" font-size="14.00">Creator</text>
</a>
</g>
</g>
<!-- ErrorGeographicItem -->
<g id="node25" class="node">
<title>ErrorGeographicItem</title>
<g id="a_node25"><a xlink:href="/develop/Data/models.html#error-geographic-item" xlink:title="ErrorGeographicItem" target="_top">
<polygon fill="#eeefff" stroke="#dddeee" points="509.51,-563.66 375.51,-563.66 375.51,-527.66 509.51,-527.66 509.51,-563.66"/>
<text text-anchor="middle" x="442.51" y="-541.96" font-family="Times,serif" font-size="14.00">ErrorGeographicItem</text>
</a>
</g>
</g>
<!-- GeographicItem -->
<g id="node26" class="node">
<title>GeographicItem</title>
<g id="a_node26"><a xlink:href="/develop/Data/models.html#geographic-item" xlink:title="GeographicItem" target="_top">
<polygon fill="#eeefff" stroke="#dddeee" points="495.01,-509.66 390.01,-509.66 390.01,-473.66 495.01,-473.66 495.01,-509.66"/>
<text text-anchor="middle" x="442.51" y="-487.96" font-family="Times,serif" font-size="14.00">GeographicItem</text>
</a>
</g>
</g>
<!-- Project -->
<g id="node27" class="node">
<title>Project</title>
<g id="a_node27"><a xlink:href="/develop/Data/models.html#project" xlink:title="Project" target="_top">
<polygon fill="#eeefff" stroke="#dddeee" points="470.01,-107.66 415.01,-107.66 415.01,-71.66 470.01,-71.66 470.01,-107.66"/>
<text text-anchor="middle" x="442.51" y="-85.96" font-family="Times,serif" font-size="14.00">Project</text>
</a>
</g>
</g>
<!-- Updater -->
<g id="node28" class="node">
<title>Updater</title>
<g id="a_node28"><a xlink:href="/develop/Data/models.html#updater" xlink:title="Updater" target="_top">
<polygon fill="#eeefff" stroke="#dddeee" points="791.51,-107.66 731.51,-107.66 731.51,-71.66 791.51,-71.66 791.51,-107.66"/>
<text text-anchor="middle" x="761.51" y="-85.96" font-family="Times,serif" font-size="14.00">Updater</text>
</a>
</g>
</g>
<!-- OriginCitation -->
<g id="node29" class="node">
<title>OriginCitation</title>
<g id="a_node29"><a xlink:href="/develop/Data/models.html#origin-citation" xlink:title="OriginCitation" target="_top">
<polygon fill="#eeefff" stroke="#dddeee" points="654.01,-632.66 559.01,-632.66 559.01,-596.66 654.01,-596.66 654.01,-632.66"/>
<text text-anchor="middle" x="606.51" y="-610.96" font-family="Times,serif" font-size="14.00">OriginCitation</text>
</a>
</g>
</g>
</g>
</svg>
