<?xml version="1.0" encoding="UTF-8" standalone="no"?>
<!DOCTYPE svg PUBLIC "-//W3C//DTD SVG 1.1//EN"
 "http://www.w3.org/Graphics/SVG/1.1/DTD/svg11.dtd">
<!-- Generated by graphviz version 2.50.0 (20211204.2007)
 -->
<!-- Title: Identifier Pages: 1 -->
<svg width="636pt" height="482pt"
 viewBox="0.00 0.00 636.00 482.00" xmlns="http://www.w3.org/2000/svg" xmlns:xlink="http://www.w3.org/1999/xlink">
<g id="graph0" class="graph" transform="scale(1 1) rotate(0) translate(4 478)">
<title>Identifier</title>
<polygon fill="white" stroke="transparent" points="-4,4 -4,-478 632,-478 632,4 -4,4"/>
<text text-anchor="middle" x="314" y="-22.8" font-family="Times,serif" font-size="14.00">Algorithmically generated relationships for Identifier based on assertions of &#39;has_many&#39;, &#39;has_one&#39;, &#39;belongs_to&#39;. </text>
<text text-anchor="middle" x="314" y="-7.8" font-family="Times,serif" font-size="14.00">Generated 2022&#45;01&#45;25 11:36:54 &#45;0600.</text>
<!-- Identifier&#45;&gt;Label -->
<g id="edge1" class="edge">
<title>Identifier&#45;&gt;Label</title>
<path fill="none" stroke="black" d="M98.5,-270.13C106.75,-308.5 129.14,-387.28 179.86,-429 199.67,-445.3 228.02,-451.93 250.58,-454.56"/>
<polygon fill="black" stroke="black" points="250.51,-458.07 260.8,-455.52 251.17,-451.1 250.51,-458.07"/>
</g>
<!-- Identifier&#45;&gt;PinboardItem -->
<g id="edge2" class="edge">
<title>Identifier&#45;&gt;PinboardItem</title>
<path fill="none" stroke="black" d="M103.25,-270.06C115.87,-298.73 141.82,-348.25 179.86,-375 195.07,-385.69 214.12,-392.16 231.91,-396.07"/>
<polygon fill="black" stroke="black" points="231.72,-399.6 242.21,-398.08 233.07,-392.73 231.72,-399.6"/>
</g>
<!-- Identifier&#45;&gt;Role -->
<g id="edge3" class="edge">
<title>Identifier&#45;&gt;Role</title>
<path fill="none" stroke="black" d="M114.51,-269.95C130.66,-286.32 154.73,-308.01 179.86,-321 201.96,-332.42 229.17,-339.2 250.62,-343.11"/>
<polygon fill="black" stroke="black" points="250.2,-346.59 260.65,-344.81 251.37,-339.69 250.2,-346.59"/>
</g>
<!-- Identifier&#45;&gt;VerifierRole -->
<g id="edge4" class="edge">
<title>Identifier&#45;&gt;VerifierRole</title>
<path fill="none" stroke="black" d="M141.52,-259.25C170.2,-266.11 206.83,-274.86 236.15,-281.87"/>
<polygon fill="black" stroke="black" points="235.65,-285.35 246.19,-284.27 237.28,-278.54 235.65,-285.35"/>
</g>
<!-- Identifier&#45;&gt;Creator -->
<g id="edge6" class="edge">
<title>Identifier&#45;&gt;Creator</title>
<path fill="none" stroke="black" stroke-dasharray="5,2" d="M154.2,-257.98C217.96,-265.61 320.03,-268.98 396,-229 422.09,-215.27 440.93,-185.59 451.02,-166.22"/>
<polygon fill="black" stroke="black" points="154.28,-254.46 143.92,-256.67 153.4,-261.4 154.28,-254.46"/>
</g>
<!-- Identifier&#45;&gt;Namespace -->
<g id="edge8" class="edge">
<title>Identifier&#45;&gt;Namespace</title>
<path fill="none" stroke="black" stroke-dasharray="5,2" d="M151.35,-234.4C182.4,-226.98 220.04,-217.98 247.78,-211.36"/>
<polygon fill="black" stroke="black" points="150.43,-231.02 141.52,-236.75 152.06,-237.83 150.43,-231.02"/>
</g>
<!-- Identifier&#45;&gt;Project -->
<g id="edge9" class="edge">
<title>Identifier&#45;&gt;Project</title>
<path fill="none" stroke="black" stroke-dasharray="5,2" d="M121.78,-218.87C137.45,-203.75 158.26,-186.16 179.86,-175 205.41,-161.8 237.77,-154.8 260.2,-151.26"/>
<polygon fill="black" stroke="black" points="119.16,-216.53 114.51,-226.05 124.08,-221.51 119.16,-216.53"/>
</g>
<!-- Identifier&#45;&gt;Updater -->
<g id="edge10" class="edge">
<title>Identifier&#45;&gt;Updater</title>
<path fill="none" stroke="black" stroke-dasharray="5,2" d="M105.59,-216.34C118.29,-185.69 142.29,-141 179.86,-121 301.13,-56.42 354.26,-94.13 489,-121 501.1,-123.41 513.77,-128.13 524.68,-132.95"/>
<polygon fill="black" stroke="black" points="102.29,-215.17 101.86,-225.75 108.8,-217.75 102.29,-215.17"/>
</g>
<!-- Identifier&#45;&gt;Objects with Identifiers -->
<g id="edge7" class="edge">
<title>Identifier&#45;&gt;Objects with Identifiers</title>
<path fill="none" stroke="black" stroke-dasharray="5,2" d="M103.22,-216.27C114.86,-180.06 138.86,-121.52 179.86,-88 190.52,-79.28 203.51,-72.94 216.71,-68.32"/>
<polygon fill="black" stroke="black" points="99.86,-215.27 100.26,-225.85 106.55,-217.33 99.86,-215.27"/>
</g>
<!-- Role&#45;&gt;Verifier -->
<!-- VerifierRole&#45;&gt;Verifier -->
<g id="edge5" class="edge">
<title>VerifierRole&#45;&gt;Verifier</title>
<path fill="none" stroke="black" d="M329.79,-300.47C357.75,-304.89 394.56,-310.72 421.82,-315.04"/>
<polygon fill="black" stroke="black" points="421.34,-318.5 431.76,-316.61 422.43,-311.59 421.34,-318.5"/>
</g>
<!-- Creator&#45;&gt;Updater -->
<!-- Project&#45;&gt;Creator -->
<!-- Identifier -->
<g id="node1" class="node">
<title>Identifier</title>
<g id="a_node1"><a xlink:href="/develop/Data/models.html#identifier" xlink:title="Identifier" target="_top">
<polygon fill="#cdefab" stroke="#dedede" points="139.8,-240.54 139.8,-255.46 112.64,-266 74.22,-266 47.06,-255.46 47.06,-240.54 74.22,-230 112.64,-230 139.8,-240.54"/>
<polygon fill="none" stroke="#dedede" points="143.79,-237.8 143.79,-258.2 113.38,-270 73.48,-270 43.07,-258.2 43.07,-237.8 73.48,-226 113.38,-226 143.79,-237.8"/>
<text text-anchor="middle" x="93.43" y="-244.3" font-family="Times,serif" font-size="14.00">Identifier</text>
</a>
</g>
</g>
<!-- Label -->
<g id="node2" class="node">
<title>Label</title>
<g id="a_node2"><a xlink:href="/develop/Data/models.html#label" xlink:title="Label" target="_top">
<polygon fill="#eeefff" stroke="#dddeee" points="314.93,-474 260.93,-474 260.93,-438 314.93,-438 314.93,-474"/>
<text text-anchor="middle" x="287.93" y="-452.3" font-family="Times,serif" font-size="14.00">Label</text>
</a>
</g>
</g>
<!-- PinboardItem -->
<g id="node3" class="node">
<title>PinboardItem</title>
<g id="a_node3"><a xlink:href="/develop/Data/models.html#pinboard-item" xlink:title="PinboardItem" target="_top">
<polygon fill="#eeefff" stroke="#dddeee" points="333.43,-420 242.43,-420 242.43,-384 333.43,-384 333.43,-420"/>
<text text-anchor="middle" x="287.93" y="-398.3" font-family="Times,serif" font-size="14.00">PinboardItem</text>
</a>
</g>
</g>
<!-- Role -->
<g id="node4" class="node">
<title>Role</title>
<g id="a_node4"><a xlink:href="/develop/Data/models.html#role" xlink:title="Role" target="_top">
<polygon fill="#eeefff" stroke="#dddeee" points="314.93,-366 260.93,-366 260.93,-330 314.93,-330 314.93,-366"/>
<text text-anchor="middle" x="287.93" y="-344.3" font-family="Times,serif" font-size="14.00">Role</text>
</a>
</g>
</g>
<!-- VerifierRole -->
<g id="node5" class="node">
<title>VerifierRole</title>
<g id="a_node5"><a xlink:href="/develop/Data/models.html#verifier-role" xlink:title="VerifierRole" target="_top">
<polygon fill="#eeefff" stroke="#dddeee" points="329.43,-312 246.43,-312 246.43,-276 329.43,-276 329.43,-312"/>
<text text-anchor="middle" x="287.93" y="-290.3" font-family="Times,serif" font-size="14.00">VerifierRole</text>
</a>
</g>
</g>
<!-- Verifier -->
<g id="node6" class="node">
<title>Verifier</title>
<g id="a_node6"><a xlink:href="/develop/Data/models.html#verifier" xlink:title="Verifier" target="_top">
<polygon fill="#eeefff" stroke="#dddeee" points="489,-339 432,-339 432,-303 489,-303 489,-339"/>
<text text-anchor="middle" x="460.5" y="-317.3" font-family="Times,serif" font-size="14.00">Verifier</text>
</a>
</g>
</g>
<!-- Creator -->
<g id="node7" class="node">
<title>Creator</title>
<g id="a_node7"><a xlink:href="/develop/Data/models.html#creator" xlink:title="Creator" target="_top">
<polygon fill="#eeefff" stroke="#dddeee" points="489,-166 432,-166 432,-130 489,-130 489,-166"/>
<text text-anchor="middle" x="460.5" y="-144.3" font-family="Times,serif" font-size="14.00">Creator</text>
</a>
</g>
</g>
<!-- Namespace -->
<g id="node8" class="node">
<title>Namespace</title>
<g id="a_node8"><a xlink:href="/develop/Data/models.html#namespace" xlink:title="Namespace" target="_top">
<polygon fill="#eeefff" stroke="#dddeee" points="327.93,-220 247.93,-220 247.93,-184 327.93,-184 327.93,-220"/>
<text text-anchor="middle" x="287.93" y="-198.3" font-family="Times,serif" font-size="14.00">Namespace</text>
</a>
</g>
</g>
<!-- Project -->
<g id="node9" class="node">
<title>Project</title>
<g id="a_node9"><a xlink:href="/develop/Data/models.html#project" xlink:title="Project" target="_top">
<polygon fill="#eeefff" stroke="#dddeee" points="315.43,-166 260.43,-166 260.43,-130 315.43,-130 315.43,-166"/>
<text text-anchor="middle" x="287.93" y="-144.3" font-family="Times,serif" font-size="14.00">Project</text>
</a>
</g>
</g>
<!-- Updater -->
<g id="node10" class="node">
<title>Updater</title>
<g id="a_node10"><a xlink:href="/develop/Data/models.html#updater" xlink:title="Updater" target="_top">
<polygon fill="#eeefff" stroke="#dddeee" points="585,-166 525,-166 525,-130 585,-130 585,-166"/>
<text text-anchor="middle" x="555" y="-144.3" font-family="Times,serif" font-size="14.00">Updater</text>
</a>
</g>
</g>
<!-- Objects with Identifiers -->
<g id="node11" class="node">
<title>Objects with Identifiers</title>
<g id="a_node11"><a xlink:href="/develop/Data/models.html#objects with identifier" xlink:title="Objects with Identifiers" target="_top">
<polygon fill="#cdabef" stroke="#dedede" points="396.07,-56 342,-74 233.86,-74 179.79,-56 233.86,-38 342,-38 396.07,-56"/>
<text text-anchor="middle" x="287.93" y="-52.3" font-family="Times,serif" font-size="14.00">Objects with Identifiers</text>
</a>
</g>
</g>
</g>
</svg>
