<?xml version="1.0" encoding="UTF-8" standalone="no"?>
<!DOCTYPE svg PUBLIC "-//W3C//DTD SVG 1.1//EN"
 "http://www.w3.org/Graphics/SVG/1.1/DTD/svg11.dtd">
<!-- Generated by graphviz version 2.50.0 (20211204.2007)
 -->
<!-- Title: Identifier Pages: 1 -->
<svg width="550pt" height="444pt"
 viewBox="0.00 0.00 550.00 444.00" xmlns="http://www.w3.org/2000/svg" xmlns:xlink="http://www.w3.org/1999/xlink">
<g id="graph0" class="graph" transform="scale(1 1) rotate(0) translate(4 440)">
<title>Identifier</title>
<polygon fill="white" stroke="transparent" points="-4,4 -4,-440 546,-440 546,4 -4,4"/>
<!-- Identifier&#45;&gt;Label -->
<g id="edge1" class="edge">
<title>Identifier&#45;&gt;Label</title>
<path fill="none" stroke="black" d="M55.5,-232.13C63.75,-270.5 86.14,-349.28 136.86,-391 156.67,-407.3 185.02,-413.93 207.58,-416.56"/>
<polygon fill="black" stroke="black" points="207.51,-420.07 217.8,-417.52 208.17,-413.1 207.51,-420.07"/>
</g>
<!-- Identifier&#45;&gt;PinboardItem -->
<g id="edge2" class="edge">
<title>Identifier&#45;&gt;PinboardItem</title>
<path fill="none" stroke="black" d="M60.25,-232.06C72.87,-260.73 98.82,-310.25 136.86,-337 152.07,-347.69 171.12,-354.16 188.91,-358.07"/>
<polygon fill="black" stroke="black" points="188.72,-361.6 199.21,-360.08 190.07,-354.73 188.72,-361.6"/>
</g>
<!-- Identifier&#45;&gt;Role -->
<g id="edge3" class="edge">
<title>Identifier&#45;&gt;Role</title>
<path fill="none" stroke="black" d="M71.51,-231.95C87.66,-248.32 111.73,-270.01 136.86,-283 158.96,-294.42 186.17,-301.2 207.62,-305.11"/>
<polygon fill="black" stroke="black" points="207.2,-308.59 217.65,-306.81 208.37,-301.69 207.2,-308.59"/>
</g>
<!-- Identifier&#45;&gt;VerifierRole -->
<g id="edge4" class="edge">
<title>Identifier&#45;&gt;VerifierRole</title>
<path fill="none" stroke="black" d="M98.52,-221.25C127.2,-228.11 163.83,-236.86 193.15,-243.87"/>
<polygon fill="black" stroke="black" points="192.66,-247.35 203.2,-246.27 194.28,-240.54 192.66,-247.35"/>
</g>
<!-- Identifier&#45;&gt;Creator -->
<g id="edge6" class="edge">
<title>Identifier&#45;&gt;Creator</title>
<path fill="none" stroke="black" stroke-dasharray="5,2" d="M111.2,-219.98C174.96,-227.61 277.03,-230.98 353,-191 379.09,-177.27 397.93,-147.59 408.03,-128.22"/>
<polygon fill="black" stroke="black" points="111.28,-216.46 100.92,-218.67 110.4,-223.4 111.28,-216.46"/>
</g>
<!-- Identifier&#45;&gt;Namespace -->
<g id="edge8" class="edge">
<title>Identifier&#45;&gt;Namespace</title>
<path fill="none" stroke="black" stroke-dasharray="5,2" d="M108.35,-196.4C139.4,-188.98 177.04,-179.98 204.78,-173.36"/>
<polygon fill="black" stroke="black" points="107.43,-193.02 98.52,-198.75 109.06,-199.83 107.43,-193.02"/>
</g>
<!-- Identifier&#45;&gt;Project -->
<g id="edge9" class="edge">
<title>Identifier&#45;&gt;Project</title>
<path fill="none" stroke="black" stroke-dasharray="5,2" d="M78.78,-180.87C94.45,-165.75 115.27,-148.16 136.86,-137 162.41,-123.8 194.78,-116.8 217.2,-113.26"/>
<polygon fill="black" stroke="black" points="76.16,-178.53 71.51,-188.05 81.08,-183.51 76.16,-178.53"/>
</g>
<!-- Identifier&#45;&gt;Updater -->
<g id="edge10" class="edge">
<title>Identifier&#45;&gt;Updater</title>
<path fill="none" stroke="black" stroke-dasharray="5,2" d="M62.59,-178.34C75.29,-147.69 99.29,-103 136.86,-83 258.13,-18.42 311.26,-56.13 446,-83 458.11,-85.41 470.78,-90.13 481.68,-94.95"/>
<polygon fill="black" stroke="black" points="59.29,-177.17 58.86,-187.75 65.8,-179.75 59.29,-177.17"/>
</g>
<!-- Identifier&#45;&gt;Objects with Identifiers -->
<g id="edge7" class="edge">
<title>Identifier&#45;&gt;Objects with Identifiers</title>
<path fill="none" stroke="black" stroke-dasharray="5,2" d="M60.22,-178.27C71.86,-142.06 95.86,-83.52 136.86,-50 147.53,-41.28 160.51,-34.94 173.71,-30.32"/>
<polygon fill="black" stroke="black" points="56.86,-177.27 57.26,-187.85 63.55,-179.33 56.86,-177.27"/>
</g>
<!-- Role&#45;&gt;Verifier -->
<!-- VerifierRole&#45;&gt;Verifier -->
<g id="edge5" class="edge">
<title>VerifierRole&#45;&gt;Verifier</title>
<path fill="none" stroke="black" d="M286.79,-262.47C314.75,-266.89 351.56,-272.72 378.82,-277.04"/>
<polygon fill="black" stroke="black" points="378.34,-280.5 388.76,-278.61 379.43,-273.59 378.34,-280.5"/>
</g>
<!-- Creator&#45;&gt;Updater -->
<!-- Project&#45;&gt;Creator -->
<!-- Identifier -->
<g id="node1" class="node">
<title>Identifier</title>
<g id="a_node1"><a xlink:href="/develop/Data/models.html#identifier" xlink:title="Identifier" target="_top">
<polygon fill="#cdefab" stroke="#dedede" points="96.8,-202.54 96.8,-217.46 69.64,-228 31.22,-228 4.06,-217.46 4.06,-202.54 31.22,-192 69.64,-192 96.8,-202.54"/>
<polygon fill="none" stroke="#dedede" points="100.79,-199.8 100.79,-220.2 70.38,-232 30.48,-232 0.07,-220.2 0.07,-199.8 30.48,-188 70.38,-188 100.79,-199.8"/>
<text text-anchor="middle" x="50.43" y="-206.3" font-family="Times,serif" font-size="14.00">Identifier</text>
</a>
</g>
</g>
<!-- Label -->
<g id="node2" class="node">
<title>Label</title>
<g id="a_node2"><a xlink:href="/develop/Data/models.html#label" xlink:title="Label" target="_top">
<polygon fill="#eeefff" stroke="#dddeee" points="271.93,-436 217.93,-436 217.93,-400 271.93,-400 271.93,-436"/>
<text text-anchor="middle" x="244.93" y="-414.3" font-family="Times,serif" font-size="14.00">Label</text>
</a>
</g>
</g>
<!-- PinboardItem -->
<g id="node3" class="node">
<title>PinboardItem</title>
<g id="a_node3"><a xlink:href="/develop/Data/models.html#pinboard-item" xlink:title="PinboardItem" target="_top">
<polygon fill="#eeefff" stroke="#dddeee" points="290.43,-382 199.43,-382 199.43,-346 290.43,-346 290.43,-382"/>
<text text-anchor="middle" x="244.93" y="-360.3" font-family="Times,serif" font-size="14.00">PinboardItem</text>
</a>
</g>
</g>
<!-- Role -->
<g id="node4" class="node">
<title>Role</title>
<g id="a_node4"><a xlink:href="/develop/Data/models.html#role" xlink:title="Role" target="_top">
<polygon fill="#eeefff" stroke="#dddeee" points="271.93,-328 217.93,-328 217.93,-292 271.93,-292 271.93,-328"/>
<text text-anchor="middle" x="244.93" y="-306.3" font-family="Times,serif" font-size="14.00">Role</text>
</a>
</g>
</g>
<!-- VerifierRole -->
<g id="node5" class="node">
<title>VerifierRole</title>
<g id="a_node5"><a xlink:href="/develop/Data/models.html#verifier-role" xlink:title="VerifierRole" target="_top">
<polygon fill="#eeefff" stroke="#dddeee" points="286.43,-274 203.43,-274 203.43,-238 286.43,-238 286.43,-274"/>
<text text-anchor="middle" x="244.93" y="-252.3" font-family="Times,serif" font-size="14.00">VerifierRole</text>
</a>
</g>
</g>
<!-- Verifier -->
<g id="node6" class="node">
<title>Verifier</title>
<g id="a_node6"><a xlink:href="/develop/Data/models.html#verifier" xlink:title="Verifier" target="_top">
<polygon fill="#eeefff" stroke="#dddeee" points="446,-301 389,-301 389,-265 446,-265 446,-301"/>
<text text-anchor="middle" x="417.5" y="-279.3" font-family="Times,serif" font-size="14.00">Verifier</text>
</a>
</g>
</g>
<!-- Creator -->
<g id="node7" class="node">
<title>Creator</title>
<g id="a_node7"><a xlink:href="/develop/Data/models.html#creator" xlink:title="Creator" target="_top">
<polygon fill="#eeefff" stroke="#dddeee" points="446,-128 389,-128 389,-92 446,-92 446,-128"/>
<text text-anchor="middle" x="417.5" y="-106.3" font-family="Times,serif" font-size="14.00">Creator</text>
</a>
</g>
</g>
<!-- Namespace -->
<g id="node8" class="node">
<title>Namespace</title>
<g id="a_node8"><a xlink:href="/develop/Data/models.html#namespace" xlink:title="Namespace" target="_top">
<polygon fill="#eeefff" stroke="#dddeee" points="284.93,-182 204.93,-182 204.93,-146 284.93,-146 284.93,-182"/>
<text text-anchor="middle" x="244.93" y="-160.3" font-family="Times,serif" font-size="14.00">Namespace</text>
</a>
</g>
</g>
<!-- Project -->
<g id="node9" class="node">
<title>Project</title>
<g id="a_node9"><a xlink:href="/develop/Data/models.html#project" xlink:title="Project" target="_top">
<polygon fill="#eeefff" stroke="#dddeee" points="272.43,-128 217.43,-128 217.43,-92 272.43,-92 272.43,-128"/>
<text text-anchor="middle" x="244.93" y="-106.3" font-family="Times,serif" font-size="14.00">Project</text>
</a>
</g>
</g>
<!-- Updater -->
<g id="node10" class="node">
<title>Updater</title>
<g id="a_node10"><a xlink:href="/develop/Data/models.html#updater" xlink:title="Updater" target="_top">
<polygon fill="#eeefff" stroke="#dddeee" points="542,-128 482,-128 482,-92 542,-92 542,-128"/>
<text text-anchor="middle" x="512" y="-106.3" font-family="Times,serif" font-size="14.00">Updater</text>
</a>
</g>
</g>
<!-- Objects with Identifiers -->
<g id="node11" class="node">
<title>Objects with Identifiers</title>
<g id="a_node11"><a xlink:href="/develop/Data/models.html#objects with identifier" xlink:title="Objects with Identifiers" target="_top">
<polygon fill="#cdabef" stroke="#dedede" points="353.07,-18 299,-36 190.86,-36 136.79,-18 190.86,0 299,0 353.07,-18"/>
<text text-anchor="middle" x="244.93" y="-14.3" font-family="Times,serif" font-size="14.00">Objects with Identifiers</text>
</a>
</g>
</g>
</g>
</svg>
