<?xml version="1.0" encoding="UTF-8" standalone="no"?>
<!DOCTYPE svg PUBLIC "-//W3C//DTD SVG 1.1//EN"
 "http://www.w3.org/Graphics/SVG/1.1/DTD/svg11.dtd">
<!-- Generated by graphviz version 2.50.0 (20211204.2007)
 -->
<!-- Title: Image Pages: 1 -->
<svg width="826pt" height="1270pt"
 viewBox="0.00 0.00 826.28 1269.50" xmlns="http://www.w3.org/2000/svg" xmlns:xlink="http://www.w3.org/1999/xlink">
<g id="graph0" class="graph" transform="scale(1 1) rotate(0) translate(4 1265.5)">
<title>Image</title>
<polygon fill="white" stroke="transparent" points="-4,4 -4,-1265.5 822.28,-1265.5 822.28,4 -4,4"/>
<text text-anchor="middle" x="409.14" y="-22.8" font-family="Times,serif" font-size="14.00">Algorithmically generated relationships for Image based on assertions of &#39;has_many&#39;, &#39;has_one&#39;, &#39;belongs_to&#39;. </text>
<text text-anchor="middle" x="409.14" y="-7.8" font-family="Times,serif" font-size="14.00">Generated 2022&#45;01&#45;25 11:42:33 &#45;0600.</text>
<!-- Depiction&#45;&gt;CollectingEvent -->
<g id="edge4" class="edge">
<title>Depiction&#45;&gt;CollectingEvent</title>
<path fill="none" stroke="black" d="M94.55,-871.3C111.19,-838.11 151.54,-766.32 206.28,-727 213.99,-721.46 222.85,-716.98 231.89,-713.37"/>
<polygon fill="black" stroke="black" points="233.16,-716.63 241.34,-709.91 230.75,-710.06 233.16,-716.63"/>
</g>
<!-- Depiction&#45;&gt;CollectionObject -->
<g id="edge6" class="edge">
<title>Depiction&#45;&gt;CollectionObject</title>
<path fill="none" stroke="black" d="M91.15,-870.88C103.52,-829.42 139.48,-727.04 206.28,-672 213.19,-666.31 221.28,-661.77 229.68,-658.15"/>
<polygon fill="black" stroke="black" points="231.21,-661.31 239.26,-654.43 228.68,-654.78 231.21,-661.31"/>
</g>
<!-- Depiction&#45;&gt;Descriptor -->
<g id="edge9" class="edge">
<title>Depiction&#45;&gt;Descriptor</title>
<path fill="none" stroke="black" d="M88.94,-870.79C97.36,-822.24 126.94,-688.58 206.28,-617 217.52,-606.86 232.47,-600.39 246.78,-596.26"/>
<polygon fill="black" stroke="black" points="247.72,-599.64 256.53,-593.76 245.98,-592.86 247.72,-599.64"/>
</g>
<!-- Depiction&#45;&gt;Observation -->
<g id="edge15" class="edge">
<title>Depiction&#45;&gt;Observation</title>
<path fill="none" stroke="black" d="M87.37,-907.21C92.07,-962.15 113.62,-1127.82 206.28,-1216 216.18,-1225.42 229.32,-1231.56 242.36,-1235.55"/>
<polygon fill="black" stroke="black" points="241.7,-1239 252.26,-1238.21 243.51,-1232.24 241.7,-1239"/>
</g>
<!-- Depiction&#45;&gt;Otu -->
<g id="edge16" class="edge">
<title>Depiction&#45;&gt;Otu</title>
<path fill="none" stroke="black" d="M88.9,-907.26C97.21,-955.92 126.56,-1089.84 206.28,-1161 220.09,-1173.32 239.46,-1180.02 256.37,-1183.66"/>
<polygon fill="black" stroke="black" points="256.04,-1187.16 266.52,-1185.56 257.33,-1180.28 256.04,-1187.16"/>
</g>
<!-- Depiction&#45;&gt;TaxonName -->
<g id="edge27" class="edge">
<title>Depiction&#45;&gt;TaxonName</title>
<path fill="none" stroke="black" d="M91.17,-907.04C103.59,-948.31 139.66,-1050.22 206.28,-1105 216.39,-1113.31 229.01,-1119.17 241.46,-1123.3"/>
<polygon fill="black" stroke="black" points="240.78,-1126.75 251.37,-1126.25 242.78,-1120.04 240.78,-1126.75"/>
</g>
<!-- Depiction&#45;&gt;CharacterState -->
<g id="edge1" class="edge">
<title>Depiction&#45;&gt;CharacterState</title>
<path fill="none" stroke="black" d="M94.51,-906.75C111.09,-940.04 151.33,-1011.97 206.28,-1051 215.12,-1057.28 225.47,-1062.13 235.87,-1065.87"/>
<polygon fill="black" stroke="black" points="234.81,-1069.21 245.4,-1069.01 237,-1062.56 234.81,-1069.21"/>
</g>
<!-- Depiction&#45;&gt;CollectionObjectObservation -->
<g id="edge5" class="edge">
<title>Depiction&#45;&gt;CollectionObjectObservation</title>
<path fill="none" stroke="black" d="M100.72,-906.09C121.76,-929.74 162.9,-972.31 206.28,-997 209.32,-998.73 212.47,-1000.35 215.71,-1001.89"/>
<polygon fill="black" stroke="black" points="214.43,-1005.15 225,-1005.98 217.25,-998.75 214.43,-1005.15"/>
</g>
<!-- Depiction&#45;&gt;Content -->
<g id="edge7" class="edge">
<title>Depiction&#45;&gt;Content</title>
<path fill="none" stroke="black" d="M114.38,-902.85C138.48,-914.39 174.21,-930.84 206.28,-943 221.7,-948.85 239,-954.43 254.04,-958.99"/>
<polygon fill="black" stroke="black" points="253.47,-962.47 264.05,-961.97 255.47,-955.76 253.47,-962.47"/>
</g>
<!-- Depiction&#45;&gt;Label -->
<g id="edge12" class="edge">
<title>Depiction&#45;&gt;Label</title>
<path fill="none" stroke="black" d="M128.46,-894.53C166.18,-899.46 220.8,-906.59 256.55,-911.27"/>
<polygon fill="black" stroke="black" points="256.18,-914.75 266.55,-912.57 257.09,-907.81 256.18,-914.75"/>
</g>
<!-- Depiction&#45;&gt;Loan -->
<g id="edge13" class="edge">
<title>Depiction&#45;&gt;Loan</title>
<path fill="none" stroke="black" d="M128.46,-883.47C166.18,-878.54 220.8,-871.41 256.55,-866.73"/>
<polygon fill="black" stroke="black" points="257.09,-870.19 266.55,-865.43 256.18,-863.25 257.09,-870.19"/>
</g>
<!-- Depiction&#45;&gt;Person -->
<g id="edge17" class="edge">
<title>Depiction&#45;&gt;Person</title>
<path fill="none" stroke="black" d="M114.38,-875.15C138.48,-863.61 174.21,-847.16 206.28,-835 222.7,-828.78 241.23,-822.85 256.92,-818.14"/>
<polygon fill="black" stroke="black" points="258.17,-821.42 266.77,-815.23 256.19,-814.71 258.17,-821.42"/>
</g>
<!-- Depiction&#45;&gt;TaxonDetermination -->
<g id="edge26" class="edge">
<title>Depiction&#45;&gt;TaxonDetermination</title>
<path fill="none" stroke="black" d="M100.72,-871.91C121.76,-848.26 162.9,-805.69 206.28,-781 210.43,-778.64 214.8,-776.47 219.29,-774.46"/>
<polygon fill="black" stroke="black" points="220.74,-777.65 228.63,-770.58 218.05,-771.18 220.74,-777.65"/>
</g>
<!-- Citation&#45;&gt;Source -->
<g id="edge22" class="edge">
<title>Citation&#45;&gt;Source</title>
<path fill="none" stroke="black" d="M124.23,-479C196.79,-479 353.97,-479 425.28,-479"/>
<polygon fill="black" stroke="black" points="425.56,-482.5 435.56,-479 425.56,-475.5 425.56,-482.5"/>
</g>
<!-- Citation&#45;&gt;CitationTopic -->
<g id="edge2" class="edge">
<title>Citation&#45;&gt;CitationTopic</title>
<path fill="none" stroke="black" d="M119.34,-487.84C151.29,-496.34 200.16,-509.35 237.89,-519.39"/>
<polygon fill="black" stroke="black" points="237.16,-522.82 247.72,-522.01 238.96,-516.05 237.16,-522.82"/>
</g>
<!-- Tag&#45;&gt;Keyword -->
<g id="edge11" class="edge">
<title>Tag&#45;&gt;Keyword</title>
<path fill="none" stroke="black" d="M112.31,-258C146.95,-258 208.48,-258 249.94,-258"/>
<polygon fill="black" stroke="black" points="250.02,-261.5 260.02,-258 250.02,-254.5 250.02,-261.5"/>
</g>
<!-- ProtocolRelationship&#45;&gt;Protocol -->
<g id="edge20" class="edge">
<title>ProtocolRelationship&#45;&gt;Protocol</title>
<path fill="none" stroke="black" d="M170.49,-204C198.75,-204 228.97,-204 252.3,-204"/>
<polygon fill="black" stroke="black" points="252.5,-207.5 262.5,-204 252.5,-200.5 252.5,-207.5"/>
</g>
<!-- Source&#45;&gt;SubsequentCitation -->
<!-- Source&#45;&gt;OriginCitation -->
<!-- Image&#45;&gt;Depiction -->
<g id="edge8" class="edge">
<title>Image&#45;&gt;Depiction</title>
<path fill="none" stroke="black" d="M281.64,-338.27C264.23,-373.52 230.13,-444.6 206.28,-507 156.57,-637.11 111.09,-797.53 93.66,-861.14"/>
<polygon fill="black" stroke="black" points="90.27,-860.27 91.01,-870.84 97.02,-862.11 90.27,-860.27"/>
</g>
<!-- Image&#45;&gt;Citation -->
<g id="edge3" class="edge">
<title>Image&#45;&gt;Citation</title>
<path fill="none" stroke="black" d="M277.34,-337.92C256.16,-366.57 215.53,-416.63 170.28,-447 157.86,-455.34 142.96,-461.92 129.17,-466.89"/>
<polygon fill="black" stroke="black" points="127.71,-463.68 119.38,-470.22 129.97,-470.31 127.71,-463.68"/>
</g>
<!-- Image&#45;&gt;Identifier -->
<g id="edge10" class="edge">
<title>Image&#45;&gt;Identifier</title>
<path fill="none" stroke="black" d="M253.92,-315.25C221.31,-314.62 174.42,-313.71 138.5,-313.01"/>
<polygon fill="black" stroke="black" points="138.27,-309.51 128.21,-312.81 138.14,-316.51 138.27,-309.51"/>
</g>
<!-- Image&#45;&gt;Tag -->
<g id="edge25" class="edge">
<title>Image&#45;&gt;Tag</title>
<path fill="none" stroke="black" d="M255.21,-305.45C216.68,-294.64 157.27,-277.96 120.11,-267.53"/>
<polygon fill="black" stroke="black" points="120.83,-264.1 110.25,-264.77 118.93,-270.84 120.83,-264.1"/>
</g>
<!-- Image&#45;&gt;Note -->
<g id="edge14" class="edge">
<title>Image&#45;&gt;Note</title>
<path fill="none" stroke="black" d="M268.95,-333.52C244.98,-350.52 206.49,-376.14 170.28,-393 154.66,-400.28 136.53,-406.37 121.12,-410.91"/>
<polygon fill="black" stroke="black" points="120.09,-407.57 111.43,-413.67 122.01,-414.3 120.09,-407.57"/>
</g>
<!-- Image&#45;&gt;ProtocolRelationship -->
<g id="edge19" class="edge">
<title>Image&#45;&gt;ProtocolRelationship</title>
<path fill="none" stroke="black" d="M253.96,-307.8C238.03,-303.05 220.11,-295.81 206.28,-285 183.56,-267.24 193.31,-248.38 170.28,-231 165.22,-227.18 159.6,-223.89 153.73,-221.05"/>
<polygon fill="black" stroke="black" points="154.92,-217.75 144.35,-216.97 152.12,-224.17 154.92,-217.75"/>
</g>
<!-- Image&#45;&gt;Attribution -->
<g id="edge34" class="edge">
<title>Image&#45;&gt;Attribution</title>
<path fill="none" stroke="black" stroke-dasharray="1,5" d="M243.86,-327.84C208.41,-336.42 161.02,-347.88 127.46,-356"/>
<polygon fill="black" stroke="black" points="245.09,-331.14 253.98,-325.39 243.44,-324.34 245.09,-331.14"/>
</g>
<!-- Image&#45;&gt;Source -->
<g id="edge37" class="edge">
<title>Image&#45;&gt;Source</title>
<path fill="none" stroke="black" stroke-dasharray="1,5" d="M319.04,-344.54C342.84,-371.85 380.79,-413.56 417.28,-446 423.04,-451.11 429.54,-456.25 435.76,-460.9"/>
<polygon fill="black" stroke="black" points="321.61,-342.16 312.42,-336.9 316.32,-346.75 321.61,-342.16"/>
</g>
<!-- Image&#45;&gt;PinboardItem -->
<g id="edge18" class="edge">
<title>Image&#45;&gt;PinboardItem</title>
<path fill="none" stroke="black" d="M333.54,-309.59C350.04,-305.13 368.4,-297.61 381.28,-285 413.26,-253.71 388.62,-225.34 417.28,-191 417.78,-190.4 418.3,-189.81 418.83,-189.23"/>
<polygon fill="black" stroke="black" points="421.44,-191.59 426.46,-182.26 416.72,-186.43 421.44,-191.59"/>
</g>
<!-- Image&#45;&gt;Role -->
<g id="edge21" class="edge">
<title>Image&#45;&gt;Role</title>
<path fill="none" stroke="black" d="M333.83,-310.9C350.79,-306.69 369.45,-299.01 381.28,-285 440.14,-215.34 365.73,-158.22 417.28,-83 420.02,-79.02 423.54,-75.52 427.42,-72.48"/>
<polygon fill="black" stroke="black" points="429.39,-75.37 435.72,-66.87 425.47,-69.57 429.39,-75.37"/>
</g>
<!-- Image&#45;&gt;SubsequentCitation -->
<g id="edge23" class="edge">
<title>Image&#45;&gt;SubsequentCitation</title>
<path fill="none" stroke="black" d="M318.88,-333.37C343.04,-350.34 381.67,-376.28 417.28,-395 458.59,-416.71 507.29,-436.86 544.64,-451.25"/>
<polygon fill="black" stroke="black" points="543.78,-454.66 554.37,-454.96 546.28,-448.12 543.78,-454.66"/>
</g>
<!-- Image&#45;&gt;VerifierRole -->
<g id="edge29" class="edge">
<title>Image&#45;&gt;VerifierRole</title>
<path fill="none" stroke="black" d="M333.88,-310.45C350.64,-306.15 369.12,-298.52 381.28,-285 426.56,-234.67 377.29,-191.62 417.28,-137 417.65,-136.5 418.03,-136 418.42,-135.52"/>
<polygon fill="black" stroke="black" points="421.05,-137.84 425.61,-128.28 416.08,-132.91 421.05,-137.84"/>
</g>
<!-- Image&#45;&gt;Creator -->
<g id="edge31" class="edge">
<title>Image&#45;&gt;Creator</title>
<path fill="none" stroke="black" stroke-dasharray="5,2" d="M340.5,-301.53C405.64,-280.9 523.19,-243.68 576.57,-226.77"/>
<polygon fill="black" stroke="black" points="339.37,-298.21 330.89,-304.57 341.48,-304.88 339.37,-298.21"/>
</g>
<!-- Image&#45;&gt;Project -->
<g id="edge32" class="edge">
<title>Image&#45;&gt;Project</title>
<path fill="none" stroke="black" stroke-dasharray="5,2" d="M343.49,-302.63C356.3,-298.04 369.74,-292.2 381.28,-285 400.22,-273.19 400.18,-264.33 417.28,-250 422.83,-245.36 429,-240.65 434.94,-236.33"/>
<polygon fill="black" stroke="black" points="342.21,-299.37 333.86,-305.9 344.46,-306 342.21,-299.37"/>
</g>
<!-- Image&#45;&gt;Updater -->
<g id="edge33" class="edge">
<title>Image&#45;&gt;Updater</title>
<path fill="none" stroke="black" stroke-dasharray="5,2" d="M342.02,-329.16C385.64,-339.31 451.99,-349.67 508.28,-337 595.09,-317.46 687.15,-264.28 731.8,-236.09"/>
<polygon fill="black" stroke="black" points="342.8,-325.75 332.25,-326.8 341.15,-332.55 342.8,-325.75"/>
</g>
<!-- Image&#45;&gt;OriginCitation -->
<g id="edge35" class="edge">
<title>Image&#45;&gt;OriginCitation</title>
<path fill="none" stroke="black" stroke-dasharray="1,5" d="M333.4,-335.28C357.15,-346.56 388.47,-360.43 417.28,-370 464.08,-385.54 519.26,-397.48 557.5,-404.79"/>
<polygon fill="black" stroke="black" points="334.9,-332.11 324.37,-330.94 331.86,-338.42 334.9,-332.11"/>
</g>
<!-- Image&#45;&gt;SledImage -->
<g id="edge36" class="edge">
<title>Image&#45;&gt;SledImage</title>
<path fill="none" stroke="black" stroke-dasharray="1,5" d="M343.98,-314.23C369.97,-313.3 401.33,-312.17 425.16,-311.32"/>
<polygon fill="black" stroke="black" points="343.81,-310.74 333.94,-314.59 344.06,-317.73 343.81,-310.74"/>
</g>
<!-- CitationTopic&#45;&gt;Topic -->
<g id="edge28" class="edge">
<title>CitationTopic&#45;&gt;Topic</title>
<path fill="none" stroke="black" d="M339.98,-534C366.69,-534 400.07,-534 425.13,-534"/>
<polygon fill="black" stroke="black" points="425.32,-537.5 435.32,-534 425.32,-530.5 425.32,-537.5"/>
</g>
<!-- Role&#45;&gt;Verifier -->
<!-- SubsequentCitation&#45;&gt;SubsequentSource -->
<g id="edge24" class="edge">
<title>SubsequentCitation&#45;&gt;SubsequentSource</title>
<path fill="none" stroke="black" d="M666.32,-473C674.65,-473 683.25,-473 691.71,-473"/>
<polygon fill="black" stroke="black" points="691.93,-476.5 701.93,-473 691.93,-469.5 691.93,-476.5"/>
</g>
<!-- VerifierRole&#45;&gt;Verifier -->
<g id="edge30" class="edge">
<title>VerifierRole&#45;&gt;Verifier</title>
<path fill="none" stroke="black" d="M504.42,-102.19C524.07,-98.41 547.5,-93.91 566.73,-90.22"/>
<polygon fill="black" stroke="black" points="567.48,-93.64 576.64,-88.31 566.16,-86.76 567.48,-93.64"/>
</g>
<!-- Creator&#45;&gt;Updater -->
<!-- Project&#45;&gt;Creator -->
<!-- Depiction -->
<g id="node1" class="node">
<title>Depiction</title>
<g id="a_node1"><a xlink:href="/develop/Data/models.html#depiction" xlink:title="Depiction" target="_top">
<ellipse fill="#abcdef" stroke="#dddeee" cx="85.14" cy="-889" rx="45.49" ry="18"/>
<text text-anchor="middle" x="85.14" y="-885.3" font-family="Times,serif" font-size="14.00">Depiction</text>
</a>
</g>
</g>
<!-- Citation -->
<g id="node2" class="node">
<title>Citation</title>
<g id="a_node2"><a xlink:href="/develop/Data/models.html#citation" xlink:title="Citation" target="_top">
<ellipse fill="#abcdef" stroke="#dddeee" cx="85.14" cy="-479" rx="38.99" ry="18"/>
<text text-anchor="middle" x="85.14" y="-475.3" font-family="Times,serif" font-size="14.00">Citation</text>
</a>
</g>
</g>
<!-- Identifier -->
<g id="node3" class="node">
<title>Identifier</title>
<g id="a_node3"><a xlink:href="/develop/Data/models.html#identifier" xlink:title="Identifier" target="_top">
<ellipse fill="#abcdef" stroke="#dddeee" cx="85.14" cy="-312" rx="42.79" ry="18"/>
<text text-anchor="middle" x="85.14" y="-308.3" font-family="Times,serif" font-size="14.00">Identifier</text>
</a>
</g>
</g>
<!-- Tag -->
<g id="node4" class="node">
<title>Tag</title>
<g id="a_node4"><a xlink:href="/develop/Data/models.html#tag" xlink:title="Tag" target="_top">
<ellipse fill="#abcdef" stroke="#dddeee" cx="85.14" cy="-258" rx="27" ry="18"/>
<text text-anchor="middle" x="85.14" y="-254.3" font-family="Times,serif" font-size="14.00">Tag</text>
</a>
</g>
</g>
<!-- Note -->
<g id="node5" class="node">
<title>Note</title>
<g id="a_node5"><a xlink:href="/develop/Data/models.html#note" xlink:title="Note" target="_top">
<ellipse fill="#abcdef" stroke="#dddeee" cx="85.14" cy="-420" rx="27.9" ry="18"/>
<text text-anchor="middle" x="85.14" y="-416.3" font-family="Times,serif" font-size="14.00">Note</text>
</a>
</g>
</g>
<!-- ProtocolRelationship -->
<g id="node6" class="node">
<title>ProtocolRelationship</title>
<g id="a_node6"><a xlink:href="/develop/Data/models.html#protocol-relationship" xlink:title="ProtocolRelationship" target="_top">
<ellipse fill="#abcdef" stroke="#dddeee" cx="85.14" cy="-204" rx="85.29" ry="18"/>
<text text-anchor="middle" x="85.14" y="-200.3" font-family="Times,serif" font-size="14.00">ProtocolRelationship</text>
</a>
</g>
</g>
<!-- Attribution -->
<g id="node7" class="node">
<title>Attribution</title>
<g id="a_node7"><a xlink:href="/develop/Data/models.html#attribution" xlink:title="Attribution" target="_top">
<ellipse fill="#abcdef" stroke="#dddeee" cx="85.14" cy="-366" rx="50.09" ry="18"/>
<text text-anchor="middle" x="85.14" y="-362.3" font-family="Times,serif" font-size="14.00">Attribution</text>
</a>
</g>
</g>
<!-- CollectingEvent -->
<g id="node8" class="node">
<title>CollectingEvent</title>
<g id="a_node8"><a xlink:href="/develop/Data/models.html#collecting-event" xlink:title="CollectingEvent" target="_top">
<path fill="#fedcba" stroke="#dddeee" d="M253.78,-681C253.78,-681 333.78,-681 333.78,-681 339.78,-681 345.78,-687 345.78,-693 345.78,-693 345.78,-705 345.78,-705 345.78,-711 339.78,-717 333.78,-717 333.78,-717 253.78,-717 253.78,-717 247.78,-717 241.78,-711 241.78,-705 241.78,-705 241.78,-693 241.78,-693 241.78,-687 247.78,-681 253.78,-681"/>
<text text-anchor="middle" x="293.78" y="-695.3" font-family="Times,serif" font-size="14.00">CollectingEvent</text>
</a>
</g>
</g>
<!-- CollectionObject -->
<g id="node9" class="node">
<title>CollectionObject</title>
<g id="a_node9"><a xlink:href="/develop/Data/models.html#collection-object" xlink:title="CollectionObject" target="_top">
<path fill="#fedcba" stroke="#dddeee" d="M251.28,-626C251.28,-626 336.28,-626 336.28,-626 342.28,-626 348.28,-632 348.28,-638 348.28,-638 348.28,-650 348.28,-650 348.28,-656 342.28,-662 336.28,-662 336.28,-662 251.28,-662 251.28,-662 245.28,-662 239.28,-656 239.28,-650 239.28,-650 239.28,-638 239.28,-638 239.28,-632 245.28,-626 251.28,-626"/>
<text text-anchor="middle" x="293.78" y="-640.3" font-family="Times,serif" font-size="14.00">CollectionObject</text>
</a>
</g>
</g>
<!-- Descriptor -->
<g id="node10" class="node">
<title>Descriptor</title>
<g id="a_node10"><a xlink:href="/develop/Data/models.html#descriptor" xlink:title="Descriptor" target="_top">
<path fill="#fedcba" stroke="#dddeee" d="M268.78,-571C268.78,-571 318.78,-571 318.78,-571 324.78,-571 330.78,-577 330.78,-583 330.78,-583 330.78,-595 330.78,-595 330.78,-601 324.78,-607 318.78,-607 318.78,-607 268.78,-607 268.78,-607 262.78,-607 256.78,-601 256.78,-595 256.78,-595 256.78,-583 256.78,-583 256.78,-577 262.78,-571 268.78,-571"/>
<text text-anchor="middle" x="293.78" y="-585.3" font-family="Times,serif" font-size="14.00">Descriptor</text>
</a>
</g>
</g>
<!-- Observation -->
<g id="node11" class="node">
<title>Observation</title>
<g id="a_node11"><a xlink:href="/develop/Data/models.html#observation" xlink:title="Observation" target="_top">
<path fill="#fedcba" stroke="#dddeee" d="M264.28,-1225C264.28,-1225 323.28,-1225 323.28,-1225 329.28,-1225 335.28,-1231 335.28,-1237 335.28,-1237 335.28,-1249 335.28,-1249 335.28,-1255 329.28,-1261 323.28,-1261 323.28,-1261 264.28,-1261 264.28,-1261 258.28,-1261 252.28,-1255 252.28,-1249 252.28,-1249 252.28,-1237 252.28,-1237 252.28,-1231 258.28,-1225 264.28,-1225"/>
<text text-anchor="middle" x="293.78" y="-1239.3" font-family="Times,serif" font-size="14.00">Observation</text>
</a>
</g>
</g>
<!-- Otu -->
<g id="node12" class="node">
<title>Otu</title>
<g id="a_node12"><a xlink:href="/develop/Data/models.html#otu" xlink:title="Otu" target="_top">
<path fill="#fedcba" stroke="#dddeee" d="M278.78,-1170C278.78,-1170 308.78,-1170 308.78,-1170 314.78,-1170 320.78,-1176 320.78,-1182 320.78,-1182 320.78,-1194 320.78,-1194 320.78,-1200 314.78,-1206 308.78,-1206 308.78,-1206 278.78,-1206 278.78,-1206 272.78,-1206 266.78,-1200 266.78,-1194 266.78,-1194 266.78,-1182 266.78,-1182 266.78,-1176 272.78,-1170 278.78,-1170"/>
<text text-anchor="middle" x="293.78" y="-1184.3" font-family="Times,serif" font-size="14.00">Otu</text>
</a>
</g>
</g>
<!-- Source -->
<g id="node13" class="node">
<title>Source</title>
<g id="a_node13"><a xlink:href="/develop/Data/models.html#source" xlink:title="Source" target="_top">
<path fill="#fedcba" stroke="#dddeee" d="M447.78,-461C447.78,-461 477.78,-461 477.78,-461 483.78,-461 489.78,-467 489.78,-473 489.78,-473 489.78,-485 489.78,-485 489.78,-491 483.78,-497 477.78,-497 477.78,-497 447.78,-497 447.78,-497 441.78,-497 435.78,-491 435.78,-485 435.78,-485 435.78,-473 435.78,-473 435.78,-467 441.78,-461 447.78,-461"/>
<text text-anchor="middle" x="462.78" y="-475.3" font-family="Times,serif" font-size="14.00">Source</text>
</a>
</g>
</g>
<!-- TaxonName -->
<g id="node14" class="node">
<title>TaxonName</title>
<g id="a_node14"><a xlink:href="/develop/Data/models.html#taxon-name" xlink:title="TaxonName" target="_top">
<path fill="#fedcba" stroke="#dddeee" d="M263.78,-1115C263.78,-1115 323.78,-1115 323.78,-1115 329.78,-1115 335.78,-1121 335.78,-1127 335.78,-1127 335.78,-1139 335.78,-1139 335.78,-1145 329.78,-1151 323.78,-1151 323.78,-1151 263.78,-1151 263.78,-1151 257.78,-1151 251.78,-1145 251.78,-1139 251.78,-1139 251.78,-1127 251.78,-1127 251.78,-1121 257.78,-1115 263.78,-1115"/>
<text text-anchor="middle" x="293.78" y="-1129.3" font-family="Times,serif" font-size="14.00">TaxonName</text>
</a>
</g>
</g>
<!-- Image -->
<g id="node15" class="node">
<title>Image</title>
<g id="a_node15"><a xlink:href="/develop/Data/models.html#image" xlink:title="Image" target="_top">
<polygon fill="#cdefab" stroke="#dedede" points="329.55,-308.54 329.55,-323.46 308.6,-334 278.97,-334 258.02,-323.46 258.02,-308.54 278.97,-298 308.6,-298 329.55,-308.54"/>
<polygon fill="none" stroke="#dedede" points="333.54,-306.08 333.54,-325.92 309.55,-338 278.02,-338 254.03,-325.92 254.03,-306.08 278.02,-294 309.55,-294 333.54,-306.08"/>
<text text-anchor="middle" x="293.78" y="-312.3" font-family="Times,serif" font-size="14.00">Image</text>
</a>
</g>
</g>
<!-- CharacterState -->
<g id="node16" class="node">
<title>CharacterState</title>
<g id="a_node16"><a xlink:href="/develop/Data/models.html#character-state" xlink:title="CharacterState" target="_top">
<polygon fill="#eeefff" stroke="#dddeee" points="341.78,-1096 245.78,-1096 245.78,-1060 341.78,-1060 341.78,-1096"/>
<text text-anchor="middle" x="293.78" y="-1074.3" font-family="Times,serif" font-size="14.00">CharacterState</text>
</a>
</g>
</g>
<!-- CitationTopic -->
<g id="node17" class="node">
<title>CitationTopic</title>
<g id="a_node17"><a xlink:href="/develop/Data/models.html#citation-topic" xlink:title="CitationTopic" target="_top">
<polygon fill="#eeefff" stroke="#dddeee" points="339.78,-552 247.78,-552 247.78,-516 339.78,-516 339.78,-552"/>
<text text-anchor="middle" x="293.78" y="-530.3" font-family="Times,serif" font-size="14.00">CitationTopic</text>
</a>
</g>
</g>
<!-- CollectionObjectObservation -->
<g id="node18" class="node">
<title>CollectionObjectObservation</title>
<g id="a_node18"><a xlink:href="/develop/Data/models.html#collection-object-observation" xlink:title="CollectionObjectObservation" target="_top">
<polygon fill="#eeefff" stroke="#dddeee" points="381.28,-1042 206.28,-1042 206.28,-1006 381.28,-1006 381.28,-1042"/>
<text text-anchor="middle" x="293.78" y="-1020.3" font-family="Times,serif" font-size="14.00">CollectionObjectObservation</text>
</a>
</g>
</g>
<!-- Content -->
<g id="node19" class="node">
<title>Content</title>
<g id="a_node19"><a xlink:href="/develop/Data/models.html#content" xlink:title="Content" target="_top">
<polygon fill="#eeefff" stroke="#dddeee" points="323.28,-988 264.28,-988 264.28,-952 323.28,-952 323.28,-988"/>
<text text-anchor="middle" x="293.78" y="-966.3" font-family="Times,serif" font-size="14.00">Content</text>
</a>
</g>
</g>
<!-- Keyword -->
<g id="node20" class="node">
<title>Keyword</title>
<g id="a_node20"><a xlink:href="/develop/Data/models.html#keyword" xlink:title="Keyword" target="_top">
<polygon fill="#eeefff" stroke="#dddeee" points="327.28,-276 260.28,-276 260.28,-240 327.28,-240 327.28,-276"/>
<text text-anchor="middle" x="293.78" y="-254.3" font-family="Times,serif" font-size="14.00">Keyword</text>
</a>
</g>
</g>
<!-- Label -->
<g id="node21" class="node">
<title>Label</title>
<g id="a_node21"><a xlink:href="/develop/Data/models.html#label" xlink:title="Label" target="_top">
<polygon fill="#eeefff" stroke="#dddeee" points="320.78,-934 266.78,-934 266.78,-898 320.78,-898 320.78,-934"/>
<text text-anchor="middle" x="293.78" y="-912.3" font-family="Times,serif" font-size="14.00">Label</text>
</a>
</g>
</g>
<!-- Loan -->
<g id="node22" class="node">
<title>Loan</title>
<g id="a_node22"><a xlink:href="/develop/Data/models.html#loan" xlink:title="Loan" target="_top">
<polygon fill="#eeefff" stroke="#dddeee" points="320.78,-880 266.78,-880 266.78,-844 320.78,-844 320.78,-880"/>
<text text-anchor="middle" x="293.78" y="-858.3" font-family="Times,serif" font-size="14.00">Loan</text>
</a>
</g>
</g>
<!-- Person -->
<g id="node23" class="node">
<title>Person</title>
<g id="a_node23"><a xlink:href="/develop/Data/models.html#person" xlink:title="Person" target="_top">
<polygon fill="#eeefff" stroke="#dddeee" points="320.78,-826 266.78,-826 266.78,-790 320.78,-790 320.78,-826"/>
<text text-anchor="middle" x="293.78" y="-804.3" font-family="Times,serif" font-size="14.00">Person</text>
</a>
</g>
</g>
<!-- PinboardItem -->
<g id="node24" class="node">
<title>PinboardItem</title>
<g id="a_node24"><a xlink:href="/develop/Data/models.html#pinboard-item" xlink:title="PinboardItem" target="_top">
<polygon fill="#eeefff" stroke="#dddeee" points="508.28,-182 417.28,-182 417.28,-146 508.28,-146 508.28,-182"/>
<text text-anchor="middle" x="462.78" y="-160.3" font-family="Times,serif" font-size="14.00">PinboardItem</text>
</a>
</g>
</g>
<!-- Protocol -->
<g id="node25" class="node">
<title>Protocol</title>
<g id="a_node25"><a xlink:href="/develop/Data/models.html#protocol" xlink:title="Protocol" target="_top">
<polygon fill="#eeefff" stroke="#dddeee" points="324.78,-222 262.78,-222 262.78,-186 324.78,-186 324.78,-222"/>
<text text-anchor="middle" x="293.78" y="-200.3" font-family="Times,serif" font-size="14.00">Protocol</text>
</a>
</g>
</g>
<!-- Role -->
<g id="node26" class="node">
<title>Role</title>
<g id="a_node26"><a xlink:href="/develop/Data/models.html#role" xlink:title="Role" target="_top">
<polygon fill="#eeefff" stroke="#dddeee" points="489.78,-74 435.78,-74 435.78,-38 489.78,-38 489.78,-74"/>
<text text-anchor="middle" x="462.78" y="-52.3" font-family="Times,serif" font-size="14.00">Role</text>
</a>
</g>
</g>
<!-- SubsequentCitation -->
<g id="node27" class="node">
<title>SubsequentCitation</title>
<g id="a_node27"><a xlink:href="/develop/Data/models.html#subsequent-citation" xlink:title="SubsequentCitation" target="_top">
<polygon fill="#eeefff" stroke="#dddeee" points="666.28,-491 544.28,-491 544.28,-455 666.28,-455 666.28,-491"/>
<text text-anchor="middle" x="605.28" y="-469.3" font-family="Times,serif" font-size="14.00">SubsequentCitation</text>
</a>
</g>
</g>
<!-- SubsequentSource -->
<g id="node28" class="node">
<title>SubsequentSource</title>
<g id="a_node28"><a xlink:href="/develop/Data/models.html#subsequent-source" xlink:title="SubsequentSource" target="_top">
<polygon fill="#eeefff" stroke="#dddeee" points="818.28,-491 702.28,-491 702.28,-455 818.28,-455 818.28,-491"/>
<text text-anchor="middle" x="760.28" y="-469.3" font-family="Times,serif" font-size="14.00">SubsequentSource</text>
</a>
</g>
</g>
<!-- TaxonDetermination -->
<g id="node29" class="node">
<title>TaxonDetermination</title>
<g id="a_node29"><a xlink:href="/develop/Data/models.html#taxon-determination" xlink:title="TaxonDetermination" target="_top">
<polygon fill="#eeefff" stroke="#dddeee" points="358.78,-772 228.78,-772 228.78,-736 358.78,-736 358.78,-772"/>
<text text-anchor="middle" x="293.78" y="-750.3" font-family="Times,serif" font-size="14.00">TaxonDetermination</text>
</a>
</g>
</g>
<!-- Topic -->
<g id="node30" class="node">
<title>Topic</title>
<g id="a_node30"><a xlink:href="/develop/Data/models.html#topic" xlink:title="Topic" target="_top">
<polygon fill="#eeefff" stroke="#dddeee" points="489.78,-552 435.78,-552 435.78,-516 489.78,-516 489.78,-552"/>
<text text-anchor="middle" x="462.78" y="-530.3" font-family="Times,serif" font-size="14.00">Topic</text>
</a>
</g>
</g>
<!-- VerifierRole -->
<g id="node31" class="node">
<title>VerifierRole</title>
<g id="a_node31"><a xlink:href="/develop/Data/models.html#verifier-role" xlink:title="VerifierRole" target="_top">
<polygon fill="#eeefff" stroke="#dddeee" points="504.28,-128 421.28,-128 421.28,-92 504.28,-92 504.28,-128"/>
<text text-anchor="middle" x="462.78" y="-106.3" font-family="Times,serif" font-size="14.00">VerifierRole</text>
</a>
</g>
</g>
<!-- Verifier -->
<g id="node32" class="node">
<title>Verifier</title>
<g id="a_node32"><a xlink:href="/develop/Data/models.html#verifier" xlink:title="Verifier" target="_top">
<polygon fill="#eeefff" stroke="#dddeee" points="633.78,-101 576.78,-101 576.78,-65 633.78,-65 633.78,-101"/>
<text text-anchor="middle" x="605.28" y="-79.3" font-family="Times,serif" font-size="14.00">Verifier</text>
</a>
</g>
</g>
<!-- Creator -->
<g id="node33" class="node">
<title>Creator</title>
<g id="a_node33"><a xlink:href="/develop/Data/models.html#creator" xlink:title="Creator" target="_top">
<polygon fill="#eeefff" stroke="#dddeee" points="633.78,-236 576.78,-236 576.78,-200 633.78,-200 633.78,-236"/>
<text text-anchor="middle" x="605.28" y="-214.3" font-family="Times,serif" font-size="14.00">Creator</text>
</a>
</g>
</g>
<!-- Project -->
<g id="node34" class="node">
<title>Project</title>
<g id="a_node34"><a xlink:href="/develop/Data/models.html#project" xlink:title="Project" target="_top">
<polygon fill="#eeefff" stroke="#dddeee" points="490.28,-236 435.28,-236 435.28,-200 490.28,-200 490.28,-236"/>
<text text-anchor="middle" x="462.78" y="-214.3" font-family="Times,serif" font-size="14.00">Project</text>
</a>
</g>
</g>
<!-- Updater -->
<g id="node35" class="node">
<title>Updater</title>
<g id="a_node35"><a xlink:href="/develop/Data/models.html#updater" xlink:title="Updater" target="_top">
<polygon fill="#eeefff" stroke="#dddeee" points="790.28,-236 730.28,-236 730.28,-200 790.28,-200 790.28,-236"/>
<text text-anchor="middle" x="760.28" y="-214.3" font-family="Times,serif" font-size="14.00">Updater</text>
</a>
</g>
</g>
<!-- OriginCitation -->
<g id="node36" class="node">
<title>OriginCitation</title>
<g id="a_node36"><a xlink:href="/develop/Data/models.html#origin-citation" xlink:title="OriginCitation" target="_top">
<polygon fill="#eeefff" stroke="#dddeee" points="652.78,-431 557.78,-431 557.78,-395 652.78,-395 652.78,-431"/>
<text text-anchor="middle" x="605.28" y="-409.3" font-family="Times,serif" font-size="14.00">OriginCitation</text>
</a>
</g>
</g>
<!-- SledImage -->
<g id="node37" class="node">
<title>SledImage</title>
<g id="a_node37"><a xlink:href="/develop/Data/models.html#sled-image" xlink:title="SledImage" target="_top">
<polygon fill="#eeefff" stroke="#dddeee" points="500.28,-328 425.28,-328 425.28,-292 500.28,-292 500.28,-328"/>
<text text-anchor="middle" x="462.78" y="-306.3" font-family="Times,serif" font-size="14.00">SledImage</text>
</a>
</g>
</g>
</g>
</svg>
