<?xml version="1.0" encoding="UTF-8" standalone="no"?>
<!DOCTYPE svg PUBLIC "-//W3C//DTD SVG 1.1//EN"
 "http://www.w3.org/Graphics/SVG/1.1/DTD/svg11.dtd">
<!-- Generated by graphviz version 2.50.0 (20211204.2007)
 -->
<!-- Title: Image Pages: 1 -->
<svg width="826pt" height="1232pt"
 viewBox="0.00 0.00 826.28 1231.50" xmlns="http://www.w3.org/2000/svg" xmlns:xlink="http://www.w3.org/1999/xlink">
<g id="graph0" class="graph" transform="scale(1 1) rotate(0) translate(4 1227.5)">
<title>Image</title>
<polygon fill="white" stroke="transparent" points="-4,4 -4,-1227.5 822.28,-1227.5 822.28,4 -4,4"/>
<!-- Depiction&#45;&gt;CollectingEvent -->
<g id="edge4" class="edge">
<title>Depiction&#45;&gt;CollectingEvent</title>
<path fill="none" stroke="black" d="M94.55,-833.3C111.19,-800.11 151.54,-728.32 206.28,-689 213.99,-683.46 222.85,-678.98 231.89,-675.37"/>
<polygon fill="black" stroke="black" points="233.16,-678.63 241.34,-671.91 230.75,-672.06 233.16,-678.63"/>
</g>
<!-- Depiction&#45;&gt;CollectionObject -->
<g id="edge6" class="edge">
<title>Depiction&#45;&gt;CollectionObject</title>
<path fill="none" stroke="black" d="M91.15,-832.88C103.52,-791.42 139.48,-689.04 206.28,-634 213.19,-628.31 221.28,-623.77 229.68,-620.15"/>
<polygon fill="black" stroke="black" points="231.21,-623.31 239.26,-616.43 228.68,-616.78 231.21,-623.31"/>
</g>
<!-- Depiction&#45;&gt;Descriptor -->
<g id="edge9" class="edge">
<title>Depiction&#45;&gt;Descriptor</title>
<path fill="none" stroke="black" d="M88.94,-832.79C97.36,-784.24 126.94,-650.58 206.28,-579 217.52,-568.86 232.47,-562.39 246.78,-558.26"/>
<polygon fill="black" stroke="black" points="247.72,-561.64 256.53,-555.76 245.98,-554.86 247.72,-561.64"/>
</g>
<!-- Depiction&#45;&gt;Observation -->
<g id="edge15" class="edge">
<title>Depiction&#45;&gt;Observation</title>
<path fill="none" stroke="black" d="M87.37,-869.21C92.07,-924.15 113.62,-1089.82 206.28,-1178 216.18,-1187.42 229.32,-1193.56 242.36,-1197.55"/>
<polygon fill="black" stroke="black" points="241.7,-1201 252.26,-1200.21 243.51,-1194.24 241.7,-1201"/>
</g>
<!-- Depiction&#45;&gt;Otu -->
<g id="edge16" class="edge">
<title>Depiction&#45;&gt;Otu</title>
<path fill="none" stroke="black" d="M88.9,-869.26C97.21,-917.92 126.56,-1051.84 206.28,-1123 220.09,-1135.32 239.46,-1142.02 256.37,-1145.66"/>
<polygon fill="black" stroke="black" points="256.04,-1149.16 266.52,-1147.56 257.33,-1142.28 256.04,-1149.16"/>
</g>
<!-- Depiction&#45;&gt;TaxonName -->
<g id="edge27" class="edge">
<title>Depiction&#45;&gt;TaxonName</title>
<path fill="none" stroke="black" d="M91.17,-869.04C103.59,-910.31 139.66,-1012.22 206.28,-1067 216.39,-1075.31 229.01,-1081.17 241.46,-1085.3"/>
<polygon fill="black" stroke="black" points="240.78,-1088.75 251.37,-1088.25 242.78,-1082.04 240.78,-1088.75"/>
</g>
<!-- Depiction&#45;&gt;CharacterState -->
<g id="edge1" class="edge">
<title>Depiction&#45;&gt;CharacterState</title>
<path fill="none" stroke="black" d="M94.51,-868.75C111.09,-902.04 151.33,-973.97 206.28,-1013 215.12,-1019.28 225.47,-1024.13 235.87,-1027.87"/>
<polygon fill="black" stroke="black" points="234.81,-1031.21 245.4,-1031.01 237,-1024.56 234.81,-1031.21"/>
</g>
<!-- Depiction&#45;&gt;CollectionObjectObservation -->
<g id="edge5" class="edge">
<title>Depiction&#45;&gt;CollectionObjectObservation</title>
<path fill="none" stroke="black" d="M100.72,-868.09C121.76,-891.74 162.9,-934.31 206.28,-959 209.32,-960.73 212.47,-962.35 215.71,-963.89"/>
<polygon fill="black" stroke="black" points="214.43,-967.15 225,-967.98 217.25,-960.75 214.43,-967.15"/>
</g>
<!-- Depiction&#45;&gt;Content -->
<g id="edge7" class="edge">
<title>Depiction&#45;&gt;Content</title>
<path fill="none" stroke="black" d="M114.38,-864.85C138.48,-876.39 174.21,-892.84 206.28,-905 221.7,-910.85 239,-916.43 254.04,-920.99"/>
<polygon fill="black" stroke="black" points="253.47,-924.47 264.05,-923.97 255.47,-917.76 253.47,-924.47"/>
</g>
<!-- Depiction&#45;&gt;Label -->
<g id="edge12" class="edge">
<title>Depiction&#45;&gt;Label</title>
<path fill="none" stroke="black" d="M128.46,-856.53C166.18,-861.46 220.8,-868.59 256.55,-873.27"/>
<polygon fill="black" stroke="black" points="256.18,-876.75 266.55,-874.57 257.09,-869.81 256.18,-876.75"/>
</g>
<!-- Depiction&#45;&gt;Loan -->
<g id="edge13" class="edge">
<title>Depiction&#45;&gt;Loan</title>
<path fill="none" stroke="black" d="M128.46,-845.47C166.18,-840.54 220.8,-833.41 256.55,-828.73"/>
<polygon fill="black" stroke="black" points="257.09,-832.19 266.55,-827.43 256.18,-825.25 257.09,-832.19"/>
</g>
<!-- Depiction&#45;&gt;Person -->
<g id="edge17" class="edge">
<title>Depiction&#45;&gt;Person</title>
<path fill="none" stroke="black" d="M114.38,-837.15C138.48,-825.61 174.21,-809.16 206.28,-797 222.7,-790.78 241.23,-784.85 256.92,-780.14"/>
<polygon fill="black" stroke="black" points="258.17,-783.42 266.77,-777.23 256.19,-776.71 258.17,-783.42"/>
</g>
<!-- Depiction&#45;&gt;TaxonDetermination -->
<g id="edge26" class="edge">
<title>Depiction&#45;&gt;TaxonDetermination</title>
<path fill="none" stroke="black" d="M100.72,-833.91C121.76,-810.26 162.9,-767.69 206.28,-743 210.43,-740.64 214.8,-738.47 219.29,-736.46"/>
<polygon fill="black" stroke="black" points="220.74,-739.65 228.63,-732.58 218.05,-733.18 220.74,-739.65"/>
</g>
<!-- Citation&#45;&gt;Source -->
<g id="edge22" class="edge">
<title>Citation&#45;&gt;Source</title>
<path fill="none" stroke="black" d="M124.23,-441C196.79,-441 353.97,-441 425.28,-441"/>
<polygon fill="black" stroke="black" points="425.56,-444.5 435.56,-441 425.56,-437.5 425.56,-444.5"/>
</g>
<!-- Citation&#45;&gt;CitationTopic -->
<g id="edge2" class="edge">
<title>Citation&#45;&gt;CitationTopic</title>
<path fill="none" stroke="black" d="M119.34,-449.84C151.29,-458.34 200.16,-471.35 237.89,-481.39"/>
<polygon fill="black" stroke="black" points="237.16,-484.82 247.72,-484.01 238.96,-478.05 237.16,-484.82"/>
</g>
<!-- Tag&#45;&gt;Keyword -->
<g id="edge11" class="edge">
<title>Tag&#45;&gt;Keyword</title>
<path fill="none" stroke="black" d="M112.31,-220C146.95,-220 208.48,-220 249.94,-220"/>
<polygon fill="black" stroke="black" points="250.02,-223.5 260.02,-220 250.02,-216.5 250.02,-223.5"/>
</g>
<!-- ProtocolRelationship&#45;&gt;Protocol -->
<g id="edge20" class="edge">
<title>ProtocolRelationship&#45;&gt;Protocol</title>
<path fill="none" stroke="black" d="M170.49,-166C198.75,-166 228.97,-166 252.3,-166"/>
<polygon fill="black" stroke="black" points="252.5,-169.5 262.5,-166 252.5,-162.5 252.5,-169.5"/>
</g>
<!-- Source&#45;&gt;SubsequentCitation -->
<!-- Source&#45;&gt;OriginCitation -->
<!-- Image&#45;&gt;Depiction -->
<g id="edge8" class="edge">
<title>Image&#45;&gt;Depiction</title>
<path fill="none" stroke="black" d="M281.64,-300.27C264.23,-335.52 230.13,-406.6 206.28,-469 156.57,-599.11 111.09,-759.53 93.66,-823.14"/>
<polygon fill="black" stroke="black" points="90.27,-822.27 91.01,-832.84 97.02,-824.11 90.27,-822.27"/>
</g>
<!-- Image&#45;&gt;Citation -->
<g id="edge3" class="edge">
<title>Image&#45;&gt;Citation</title>
<path fill="none" stroke="black" d="M277.34,-299.92C256.16,-328.57 215.53,-378.63 170.28,-409 157.86,-417.34 142.96,-423.92 129.17,-428.89"/>
<polygon fill="black" stroke="black" points="127.71,-425.68 119.38,-432.22 129.97,-432.31 127.71,-425.68"/>
</g>
<!-- Image&#45;&gt;Identifier -->
<g id="edge10" class="edge">
<title>Image&#45;&gt;Identifier</title>
<path fill="none" stroke="black" d="M253.92,-277.25C221.31,-276.62 174.42,-275.71 138.5,-275.01"/>
<polygon fill="black" stroke="black" points="138.27,-271.51 128.21,-274.81 138.14,-278.51 138.27,-271.51"/>
</g>
<!-- Image&#45;&gt;Tag -->
<g id="edge25" class="edge">
<title>Image&#45;&gt;Tag</title>
<path fill="none" stroke="black" d="M255.21,-267.45C216.68,-256.64 157.27,-239.96 120.11,-229.53"/>
<polygon fill="black" stroke="black" points="120.83,-226.1 110.25,-226.77 118.93,-232.84 120.83,-226.1"/>
</g>
<!-- Image&#45;&gt;Note -->
<g id="edge14" class="edge">
<title>Image&#45;&gt;Note</title>
<path fill="none" stroke="black" d="M268.95,-295.52C244.98,-312.52 206.49,-338.14 170.28,-355 154.66,-362.28 136.53,-368.37 121.12,-372.91"/>
<polygon fill="black" stroke="black" points="120.09,-369.57 111.43,-375.67 122.01,-376.3 120.09,-369.57"/>
</g>
<!-- Image&#45;&gt;ProtocolRelationship -->
<g id="edge19" class="edge">
<title>Image&#45;&gt;ProtocolRelationship</title>
<path fill="none" stroke="black" d="M253.96,-269.8C238.03,-265.05 220.11,-257.81 206.28,-247 183.56,-229.24 193.31,-210.38 170.28,-193 165.22,-189.18 159.6,-185.89 153.73,-183.05"/>
<polygon fill="black" stroke="black" points="154.92,-179.75 144.35,-178.97 152.12,-186.17 154.92,-179.75"/>
</g>
<!-- Image&#45;&gt;Attribution -->
<g id="edge34" class="edge">
<title>Image&#45;&gt;Attribution</title>
<path fill="none" stroke="black" stroke-dasharray="1,5" d="M243.86,-289.84C208.41,-298.42 161.02,-309.88 127.46,-318"/>
<polygon fill="black" stroke="black" points="245.09,-293.14 253.98,-287.39 243.44,-286.34 245.09,-293.14"/>
</g>
<!-- Image&#45;&gt;Source -->
<g id="edge37" class="edge">
<title>Image&#45;&gt;Source</title>
<path fill="none" stroke="black" stroke-dasharray="1,5" d="M319.04,-306.54C342.84,-333.85 380.79,-375.56 417.28,-408 423.04,-413.11 429.54,-418.25 435.76,-422.9"/>
<polygon fill="black" stroke="black" points="321.61,-304.16 312.42,-298.9 316.32,-308.75 321.61,-304.16"/>
</g>
<!-- Image&#45;&gt;PinboardItem -->
<g id="edge18" class="edge">
<title>Image&#45;&gt;PinboardItem</title>
<path fill="none" stroke="black" d="M333.54,-271.59C350.04,-267.13 368.4,-259.61 381.28,-247 413.26,-215.71 388.62,-187.34 417.28,-153 417.78,-152.4 418.3,-151.81 418.83,-151.23"/>
<polygon fill="black" stroke="black" points="421.44,-153.59 426.46,-144.26 416.72,-148.43 421.44,-153.59"/>
</g>
<!-- Image&#45;&gt;Role -->
<g id="edge21" class="edge">
<title>Image&#45;&gt;Role</title>
<path fill="none" stroke="black" d="M333.83,-272.9C350.79,-268.69 369.45,-261.01 381.28,-247 440.14,-177.34 365.73,-120.22 417.28,-45 420.02,-41.02 423.54,-37.52 427.42,-34.48"/>
<polygon fill="black" stroke="black" points="429.39,-37.37 435.72,-28.87 425.47,-31.57 429.39,-37.37"/>
</g>
<!-- Image&#45;&gt;SubsequentCitation -->
<g id="edge23" class="edge">
<title>Image&#45;&gt;SubsequentCitation</title>
<path fill="none" stroke="black" d="M318.88,-295.37C343.04,-312.34 381.67,-338.28 417.28,-357 458.59,-378.71 507.29,-398.86 544.64,-413.25"/>
<polygon fill="black" stroke="black" points="543.78,-416.66 554.37,-416.96 546.28,-410.12 543.78,-416.66"/>
</g>
<!-- Image&#45;&gt;VerifierRole -->
<g id="edge29" class="edge">
<title>Image&#45;&gt;VerifierRole</title>
<path fill="none" stroke="black" d="M333.88,-272.45C350.64,-268.15 369.12,-260.52 381.28,-247 426.56,-196.67 377.29,-153.62 417.28,-99 417.65,-98.5 418.03,-98 418.42,-97.52"/>
<polygon fill="black" stroke="black" points="421.05,-99.84 425.61,-90.28 416.08,-94.91 421.05,-99.84"/>
</g>
<!-- Image&#45;&gt;Creator -->
<g id="edge31" class="edge">
<title>Image&#45;&gt;Creator</title>
<path fill="none" stroke="black" stroke-dasharray="5,2" d="M340.5,-263.53C405.64,-242.9 523.19,-205.68 576.57,-188.77"/>
<polygon fill="black" stroke="black" points="339.37,-260.21 330.89,-266.57 341.48,-266.88 339.37,-260.21"/>
</g>
<!-- Image&#45;&gt;Project -->
<g id="edge32" class="edge">
<title>Image&#45;&gt;Project</title>
<path fill="none" stroke="black" stroke-dasharray="5,2" d="M343.49,-264.63C356.3,-260.04 369.74,-254.2 381.28,-247 400.22,-235.19 400.18,-226.33 417.28,-212 422.83,-207.36 429,-202.65 434.94,-198.33"/>
<polygon fill="black" stroke="black" points="342.21,-261.37 333.86,-267.9 344.46,-268 342.21,-261.37"/>
</g>
<!-- Image&#45;&gt;Updater -->
<g id="edge33" class="edge">
<title>Image&#45;&gt;Updater</title>
<path fill="none" stroke="black" stroke-dasharray="5,2" d="M342.02,-291.16C385.64,-301.31 451.99,-311.67 508.28,-299 595.09,-279.46 687.15,-226.28 731.8,-198.09"/>
<polygon fill="black" stroke="black" points="342.8,-287.75 332.25,-288.8 341.15,-294.55 342.8,-287.75"/>
</g>
<!-- Image&#45;&gt;OriginCitation -->
<g id="edge35" class="edge">
<title>Image&#45;&gt;OriginCitation</title>
<path fill="none" stroke="black" stroke-dasharray="1,5" d="M333.4,-297.28C357.15,-308.56 388.47,-322.43 417.28,-332 464.08,-347.54 519.26,-359.48 557.5,-366.79"/>
<polygon fill="black" stroke="black" points="334.9,-294.11 324.37,-292.94 331.86,-300.42 334.9,-294.11"/>
</g>
<!-- Image&#45;&gt;SledImage -->
<g id="edge36" class="edge">
<title>Image&#45;&gt;SledImage</title>
<path fill="none" stroke="black" stroke-dasharray="1,5" d="M343.98,-276.23C369.97,-275.3 401.33,-274.17 425.16,-273.32"/>
<polygon fill="black" stroke="black" points="343.81,-272.74 333.94,-276.59 344.06,-279.73 343.81,-272.74"/>
</g>
<!-- CitationTopic&#45;&gt;Topic -->
<g id="edge28" class="edge">
<title>CitationTopic&#45;&gt;Topic</title>
<path fill="none" stroke="black" d="M339.98,-496C366.69,-496 400.07,-496 425.13,-496"/>
<polygon fill="black" stroke="black" points="425.32,-499.5 435.32,-496 425.32,-492.5 425.32,-499.5"/>
</g>
<!-- Role&#45;&gt;Verifier -->
<!-- SubsequentCitation&#45;&gt;SubsequentSource -->
<g id="edge24" class="edge">
<title>SubsequentCitation&#45;&gt;SubsequentSource</title>
<path fill="none" stroke="black" d="M666.32,-435C674.65,-435 683.25,-435 691.71,-435"/>
<polygon fill="black" stroke="black" points="691.93,-438.5 701.93,-435 691.93,-431.5 691.93,-438.5"/>
</g>
<!-- VerifierRole&#45;&gt;Verifier -->
<g id="edge30" class="edge">
<title>VerifierRole&#45;&gt;Verifier</title>
<path fill="none" stroke="black" d="M504.42,-64.19C524.07,-60.41 547.5,-55.91 566.73,-52.22"/>
<polygon fill="black" stroke="black" points="567.48,-55.64 576.64,-50.31 566.16,-48.76 567.48,-55.64"/>
</g>
<!-- Creator&#45;&gt;Updater -->
<!-- Project&#45;&gt;Creator -->
<!-- Depiction -->
<g id="node1" class="node">
<title>Depiction</title>
<g id="a_node1"><a xlink:href="/develop/Data/models.html#depiction" xlink:title="Depiction" target="_top">
<ellipse fill="#abcdef" stroke="#dddeee" cx="85.14" cy="-851" rx="45.49" ry="18"/>
<text text-anchor="middle" x="85.14" y="-847.3" font-family="Times,serif" font-size="14.00">Depiction</text>
</a>
</g>
</g>
<!-- Citation -->
<g id="node2" class="node">
<title>Citation</title>
<g id="a_node2"><a xlink:href="/develop/Data/models.html#citation" xlink:title="Citation" target="_top">
<ellipse fill="#abcdef" stroke="#dddeee" cx="85.14" cy="-441" rx="38.99" ry="18"/>
<text text-anchor="middle" x="85.14" y="-437.3" font-family="Times,serif" font-size="14.00">Citation</text>
</a>
</g>
</g>
<!-- Identifier -->
<g id="node3" class="node">
<title>Identifier</title>
<g id="a_node3"><a xlink:href="/develop/Data/models.html#identifier" xlink:title="Identifier" target="_top">
<ellipse fill="#abcdef" stroke="#dddeee" cx="85.14" cy="-274" rx="42.79" ry="18"/>
<text text-anchor="middle" x="85.14" y="-270.3" font-family="Times,serif" font-size="14.00">Identifier</text>
</a>
</g>
</g>
<!-- Tag -->
<g id="node4" class="node">
<title>Tag</title>
<g id="a_node4"><a xlink:href="/develop/Data/models.html#tag" xlink:title="Tag" target="_top">
<ellipse fill="#abcdef" stroke="#dddeee" cx="85.14" cy="-220" rx="27" ry="18"/>
<text text-anchor="middle" x="85.14" y="-216.3" font-family="Times,serif" font-size="14.00">Tag</text>
</a>
</g>
</g>
<!-- Note -->
<g id="node5" class="node">
<title>Note</title>
<g id="a_node5"><a xlink:href="/develop/Data/models.html#note" xlink:title="Note" target="_top">
<ellipse fill="#abcdef" stroke="#dddeee" cx="85.14" cy="-382" rx="27.9" ry="18"/>
<text text-anchor="middle" x="85.14" y="-378.3" font-family="Times,serif" font-size="14.00">Note</text>
</a>
</g>
</g>
<!-- ProtocolRelationship -->
<g id="node6" class="node">
<title>ProtocolRelationship</title>
<g id="a_node6"><a xlink:href="/develop/Data/models.html#protocol-relationship" xlink:title="ProtocolRelationship" target="_top">
<ellipse fill="#abcdef" stroke="#dddeee" cx="85.14" cy="-166" rx="85.29" ry="18"/>
<text text-anchor="middle" x="85.14" y="-162.3" font-family="Times,serif" font-size="14.00">ProtocolRelationship</text>
</a>
</g>
</g>
<!-- Attribution -->
<g id="node7" class="node">
<title>Attribution</title>
<g id="a_node7"><a xlink:href="/develop/Data/models.html#attribution" xlink:title="Attribution" target="_top">
<ellipse fill="#abcdef" stroke="#dddeee" cx="85.14" cy="-328" rx="50.09" ry="18"/>
<text text-anchor="middle" x="85.14" y="-324.3" font-family="Times,serif" font-size="14.00">Attribution</text>
</a>
</g>
</g>
<!-- CollectingEvent -->
<g id="node8" class="node">
<title>CollectingEvent</title>
<g id="a_node8"><a xlink:href="/develop/Data/models.html#collecting-event" xlink:title="CollectingEvent" target="_top">
<path fill="#fedcba" stroke="#dddeee" d="M253.78,-643C253.78,-643 333.78,-643 333.78,-643 339.78,-643 345.78,-649 345.78,-655 345.78,-655 345.78,-667 345.78,-667 345.78,-673 339.78,-679 333.78,-679 333.78,-679 253.78,-679 253.78,-679 247.78,-679 241.78,-673 241.78,-667 241.78,-667 241.78,-655 241.78,-655 241.78,-649 247.78,-643 253.78,-643"/>
<text text-anchor="middle" x="293.78" y="-657.3" font-family="Times,serif" font-size="14.00">CollectingEvent</text>
</a>
</g>
</g>
<!-- CollectionObject -->
<g id="node9" class="node">
<title>CollectionObject</title>
<g id="a_node9"><a xlink:href="/develop/Data/models.html#collection-object" xlink:title="CollectionObject" target="_top">
<path fill="#fedcba" stroke="#dddeee" d="M251.28,-588C251.28,-588 336.28,-588 336.28,-588 342.28,-588 348.28,-594 348.28,-600 348.28,-600 348.28,-612 348.28,-612 348.28,-618 342.28,-624 336.28,-624 336.28,-624 251.28,-624 251.28,-624 245.28,-624 239.28,-618 239.28,-612 239.28,-612 239.28,-600 239.28,-600 239.28,-594 245.28,-588 251.28,-588"/>
<text text-anchor="middle" x="293.78" y="-602.3" font-family="Times,serif" font-size="14.00">CollectionObject</text>
</a>
</g>
</g>
<!-- Descriptor -->
<g id="node10" class="node">
<title>Descriptor</title>
<g id="a_node10"><a xlink:href="/develop/Data/models.html#descriptor" xlink:title="Descriptor" target="_top">
<path fill="#fedcba" stroke="#dddeee" d="M268.78,-533C268.78,-533 318.78,-533 318.78,-533 324.78,-533 330.78,-539 330.78,-545 330.78,-545 330.78,-557 330.78,-557 330.78,-563 324.78,-569 318.78,-569 318.78,-569 268.78,-569 268.78,-569 262.78,-569 256.78,-563 256.78,-557 256.78,-557 256.78,-545 256.78,-545 256.78,-539 262.78,-533 268.78,-533"/>
<text text-anchor="middle" x="293.78" y="-547.3" font-family="Times,serif" font-size="14.00">Descriptor</text>
</a>
</g>
</g>
<!-- Observation -->
<g id="node11" class="node">
<title>Observation</title>
<g id="a_node11"><a xlink:href="/develop/Data/models.html#observation" xlink:title="Observation" target="_top">
<path fill="#fedcba" stroke="#dddeee" d="M264.28,-1187C264.28,-1187 323.28,-1187 323.28,-1187 329.28,-1187 335.28,-1193 335.28,-1199 335.28,-1199 335.28,-1211 335.28,-1211 335.28,-1217 329.28,-1223 323.28,-1223 323.28,-1223 264.28,-1223 264.28,-1223 258.28,-1223 252.28,-1217 252.28,-1211 252.28,-1211 252.28,-1199 252.28,-1199 252.28,-1193 258.28,-1187 264.28,-1187"/>
<text text-anchor="middle" x="293.78" y="-1201.3" font-family="Times,serif" font-size="14.00">Observation</text>
</a>
</g>
</g>
<!-- Otu -->
<g id="node12" class="node">
<title>Otu</title>
<g id="a_node12"><a xlink:href="/develop/Data/models.html#otu" xlink:title="Otu" target="_top">
<path fill="#fedcba" stroke="#dddeee" d="M278.78,-1132C278.78,-1132 308.78,-1132 308.78,-1132 314.78,-1132 320.78,-1138 320.78,-1144 320.78,-1144 320.78,-1156 320.78,-1156 320.78,-1162 314.78,-1168 308.78,-1168 308.78,-1168 278.78,-1168 278.78,-1168 272.78,-1168 266.78,-1162 266.78,-1156 266.78,-1156 266.78,-1144 266.78,-1144 266.78,-1138 272.78,-1132 278.78,-1132"/>
<text text-anchor="middle" x="293.78" y="-1146.3" font-family="Times,serif" font-size="14.00">Otu</text>
</a>
</g>
</g>
<!-- Source -->
<g id="node13" class="node">
<title>Source</title>
<g id="a_node13"><a xlink:href="/develop/Data/models.html#source" xlink:title="Source" target="_top">
<path fill="#fedcba" stroke="#dddeee" d="M447.78,-423C447.78,-423 477.78,-423 477.78,-423 483.78,-423 489.78,-429 489.78,-435 489.78,-435 489.78,-447 489.78,-447 489.78,-453 483.78,-459 477.78,-459 477.78,-459 447.78,-459 447.78,-459 441.78,-459 435.78,-453 435.78,-447 435.78,-447 435.78,-435 435.78,-435 435.78,-429 441.78,-423 447.78,-423"/>
<text text-anchor="middle" x="462.78" y="-437.3" font-family="Times,serif" font-size="14.00">Source</text>
</a>
</g>
</g>
<!-- TaxonName -->
<g id="node14" class="node">
<title>TaxonName</title>
<g id="a_node14"><a xlink:href="/develop/Data/models.html#taxon-name" xlink:title="TaxonName" target="_top">
<path fill="#fedcba" stroke="#dddeee" d="M263.78,-1077C263.78,-1077 323.78,-1077 323.78,-1077 329.78,-1077 335.78,-1083 335.78,-1089 335.78,-1089 335.78,-1101 335.78,-1101 335.78,-1107 329.78,-1113 323.78,-1113 323.78,-1113 263.78,-1113 263.78,-1113 257.78,-1113 251.78,-1107 251.78,-1101 251.78,-1101 251.78,-1089 251.78,-1089 251.78,-1083 257.78,-1077 263.78,-1077"/>
<text text-anchor="middle" x="293.78" y="-1091.3" font-family="Times,serif" font-size="14.00">TaxonName</text>
</a>
</g>
</g>
<!-- Image -->
<g id="node15" class="node">
<title>Image</title>
<g id="a_node15"><a xlink:href="/develop/Data/models.html#image" xlink:title="Image" target="_top">
<polygon fill="#cdefab" stroke="#dedede" points="329.55,-270.54 329.55,-285.46 308.6,-296 278.97,-296 258.02,-285.46 258.02,-270.54 278.97,-260 308.6,-260 329.55,-270.54"/>
<polygon fill="none" stroke="#dedede" points="333.54,-268.08 333.54,-287.92 309.55,-300 278.02,-300 254.03,-287.92 254.03,-268.08 278.02,-256 309.55,-256 333.54,-268.08"/>
<text text-anchor="middle" x="293.78" y="-274.3" font-family="Times,serif" font-size="14.00">Image</text>
</a>
</g>
</g>
<!-- CharacterState -->
<g id="node16" class="node">
<title>CharacterState</title>
<g id="a_node16"><a xlink:href="/develop/Data/models.html#character-state" xlink:title="CharacterState" target="_top">
<polygon fill="#eeefff" stroke="#dddeee" points="341.78,-1058 245.78,-1058 245.78,-1022 341.78,-1022 341.78,-1058"/>
<text text-anchor="middle" x="293.78" y="-1036.3" font-family="Times,serif" font-size="14.00">CharacterState</text>
</a>
</g>
</g>
<!-- CitationTopic -->
<g id="node17" class="node">
<title>CitationTopic</title>
<g id="a_node17"><a xlink:href="/develop/Data/models.html#citation-topic" xlink:title="CitationTopic" target="_top">
<polygon fill="#eeefff" stroke="#dddeee" points="339.78,-514 247.78,-514 247.78,-478 339.78,-478 339.78,-514"/>
<text text-anchor="middle" x="293.78" y="-492.3" font-family="Times,serif" font-size="14.00">CitationTopic</text>
</a>
</g>
</g>
<!-- CollectionObjectObservation -->
<g id="node18" class="node">
<title>CollectionObjectObservation</title>
<g id="a_node18"><a xlink:href="/develop/Data/models.html#collection-object-observation" xlink:title="CollectionObjectObservation" target="_top">
<polygon fill="#eeefff" stroke="#dddeee" points="381.28,-1004 206.28,-1004 206.28,-968 381.28,-968 381.28,-1004"/>
<text text-anchor="middle" x="293.78" y="-982.3" font-family="Times,serif" font-size="14.00">CollectionObjectObservation</text>
</a>
</g>
</g>
<!-- Content -->
<g id="node19" class="node">
<title>Content</title>
<g id="a_node19"><a xlink:href="/develop/Data/models.html#content" xlink:title="Content" target="_top">
<polygon fill="#eeefff" stroke="#dddeee" points="323.28,-950 264.28,-950 264.28,-914 323.28,-914 323.28,-950"/>
<text text-anchor="middle" x="293.78" y="-928.3" font-family="Times,serif" font-size="14.00">Content</text>
</a>
</g>
</g>
<!-- Keyword -->
<g id="node20" class="node">
<title>Keyword</title>
<g id="a_node20"><a xlink:href="/develop/Data/models.html#keyword" xlink:title="Keyword" target="_top">
<polygon fill="#eeefff" stroke="#dddeee" points="327.28,-238 260.28,-238 260.28,-202 327.28,-202 327.28,-238"/>
<text text-anchor="middle" x="293.78" y="-216.3" font-family="Times,serif" font-size="14.00">Keyword</text>
</a>
</g>
</g>
<!-- Label -->
<g id="node21" class="node">
<title>Label</title>
<g id="a_node21"><a xlink:href="/develop/Data/models.html#label" xlink:title="Label" target="_top">
<polygon fill="#eeefff" stroke="#dddeee" points="320.78,-896 266.78,-896 266.78,-860 320.78,-860 320.78,-896"/>
<text text-anchor="middle" x="293.78" y="-874.3" font-family="Times,serif" font-size="14.00">Label</text>
</a>
</g>
</g>
<!-- Loan -->
<g id="node22" class="node">
<title>Loan</title>
<g id="a_node22"><a xlink:href="/develop/Data/models.html#loan" xlink:title="Loan" target="_top">
<polygon fill="#eeefff" stroke="#dddeee" points="320.78,-842 266.78,-842 266.78,-806 320.78,-806 320.78,-842"/>
<text text-anchor="middle" x="293.78" y="-820.3" font-family="Times,serif" font-size="14.00">Loan</text>
</a>
</g>
</g>
<!-- Person -->
<g id="node23" class="node">
<title>Person</title>
<g id="a_node23"><a xlink:href="/develop/Data/models.html#person" xlink:title="Person" target="_top">
<polygon fill="#eeefff" stroke="#dddeee" points="320.78,-788 266.78,-788 266.78,-752 320.78,-752 320.78,-788"/>
<text text-anchor="middle" x="293.78" y="-766.3" font-family="Times,serif" font-size="14.00">Person</text>
</a>
</g>
</g>
<!-- PinboardItem -->
<g id="node24" class="node">
<title>PinboardItem</title>
<g id="a_node24"><a xlink:href="/develop/Data/models.html#pinboard-item" xlink:title="PinboardItem" target="_top">
<polygon fill="#eeefff" stroke="#dddeee" points="508.28,-144 417.28,-144 417.28,-108 508.28,-108 508.28,-144"/>
<text text-anchor="middle" x="462.78" y="-122.3" font-family="Times,serif" font-size="14.00">PinboardItem</text>
</a>
</g>
</g>
<!-- Protocol -->
<g id="node25" class="node">
<title>Protocol</title>
<g id="a_node25"><a xlink:href="/develop/Data/models.html#protocol" xlink:title="Protocol" target="_top">
<polygon fill="#eeefff" stroke="#dddeee" points="324.78,-184 262.78,-184 262.78,-148 324.78,-148 324.78,-184"/>
<text text-anchor="middle" x="293.78" y="-162.3" font-family="Times,serif" font-size="14.00">Protocol</text>
</a>
</g>
</g>
<!-- Role -->
<g id="node26" class="node">
<title>Role</title>
<g id="a_node26"><a xlink:href="/develop/Data/models.html#role" xlink:title="Role" target="_top">
<polygon fill="#eeefff" stroke="#dddeee" points="489.78,-36 435.78,-36 435.78,0 489.78,0 489.78,-36"/>
<text text-anchor="middle" x="462.78" y="-14.3" font-family="Times,serif" font-size="14.00">Role</text>
</a>
</g>
</g>
<!-- SubsequentCitation -->
<g id="node27" class="node">
<title>SubsequentCitation</title>
<g id="a_node27"><a xlink:href="/develop/Data/models.html#subsequent-citation" xlink:title="SubsequentCitation" target="_top">
<polygon fill="#eeefff" stroke="#dddeee" points="666.28,-453 544.28,-453 544.28,-417 666.28,-417 666.28,-453"/>
<text text-anchor="middle" x="605.28" y="-431.3" font-family="Times,serif" font-size="14.00">SubsequentCitation</text>
</a>
</g>
</g>
<!-- SubsequentSource -->
<g id="node28" class="node">
<title>SubsequentSource</title>
<g id="a_node28"><a xlink:href="/develop/Data/models.html#subsequent-source" xlink:title="SubsequentSource" target="_top">
<polygon fill="#eeefff" stroke="#dddeee" points="818.28,-453 702.28,-453 702.28,-417 818.28,-417 818.28,-453"/>
<text text-anchor="middle" x="760.28" y="-431.3" font-family="Times,serif" font-size="14.00">SubsequentSource</text>
</a>
</g>
</g>
<!-- TaxonDetermination -->
<g id="node29" class="node">
<title>TaxonDetermination</title>
<g id="a_node29"><a xlink:href="/develop/Data/models.html#taxon-determination" xlink:title="TaxonDetermination" target="_top">
<polygon fill="#eeefff" stroke="#dddeee" points="358.78,-734 228.78,-734 228.78,-698 358.78,-698 358.78,-734"/>
<text text-anchor="middle" x="293.78" y="-712.3" font-family="Times,serif" font-size="14.00">TaxonDetermination</text>
</a>
</g>
</g>
<!-- Topic -->
<g id="node30" class="node">
<title>Topic</title>
<g id="a_node30"><a xlink:href="/develop/Data/models.html#topic" xlink:title="Topic" target="_top">
<polygon fill="#eeefff" stroke="#dddeee" points="489.78,-514 435.78,-514 435.78,-478 489.78,-478 489.78,-514"/>
<text text-anchor="middle" x="462.78" y="-492.3" font-family="Times,serif" font-size="14.00">Topic</text>
</a>
</g>
</g>
<!-- VerifierRole -->
<g id="node31" class="node">
<title>VerifierRole</title>
<g id="a_node31"><a xlink:href="/develop/Data/models.html#verifier-role" xlink:title="VerifierRole" target="_top">
<polygon fill="#eeefff" stroke="#dddeee" points="504.28,-90 421.28,-90 421.28,-54 504.28,-54 504.28,-90"/>
<text text-anchor="middle" x="462.78" y="-68.3" font-family="Times,serif" font-size="14.00">VerifierRole</text>
</a>
</g>
</g>
<!-- Verifier -->
<g id="node32" class="node">
<title>Verifier</title>
<g id="a_node32"><a xlink:href="/develop/Data/models.html#verifier" xlink:title="Verifier" target="_top">
<polygon fill="#eeefff" stroke="#dddeee" points="633.78,-63 576.78,-63 576.78,-27 633.78,-27 633.78,-63"/>
<text text-anchor="middle" x="605.28" y="-41.3" font-family="Times,serif" font-size="14.00">Verifier</text>
</a>
</g>
</g>
<!-- Creator -->
<g id="node33" class="node">
<title>Creator</title>
<g id="a_node33"><a xlink:href="/develop/Data/models.html#creator" xlink:title="Creator" target="_top">
<polygon fill="#eeefff" stroke="#dddeee" points="633.78,-198 576.78,-198 576.78,-162 633.78,-162 633.78,-198"/>
<text text-anchor="middle" x="605.28" y="-176.3" font-family="Times,serif" font-size="14.00">Creator</text>
</a>
</g>
</g>
<!-- Project -->
<g id="node34" class="node">
<title>Project</title>
<g id="a_node34"><a xlink:href="/develop/Data/models.html#project" xlink:title="Project" target="_top">
<polygon fill="#eeefff" stroke="#dddeee" points="490.28,-198 435.28,-198 435.28,-162 490.28,-162 490.28,-198"/>
<text text-anchor="middle" x="462.78" y="-176.3" font-family="Times,serif" font-size="14.00">Project</text>
</a>
</g>
</g>
<!-- Updater -->
<g id="node35" class="node">
<title>Updater</title>
<g id="a_node35"><a xlink:href="/develop/Data/models.html#updater" xlink:title="Updater" target="_top">
<polygon fill="#eeefff" stroke="#dddeee" points="790.28,-198 730.28,-198 730.28,-162 790.28,-162 790.28,-198"/>
<text text-anchor="middle" x="760.28" y="-176.3" font-family="Times,serif" font-size="14.00">Updater</text>
</a>
</g>
</g>
<!-- OriginCitation -->
<g id="node36" class="node">
<title>OriginCitation</title>
<g id="a_node36"><a xlink:href="/develop/Data/models.html#origin-citation" xlink:title="OriginCitation" target="_top">
<polygon fill="#eeefff" stroke="#dddeee" points="652.78,-393 557.78,-393 557.78,-357 652.78,-357 652.78,-393"/>
<text text-anchor="middle" x="605.28" y="-371.3" font-family="Times,serif" font-size="14.00">OriginCitation</text>
</a>
</g>
</g>
<!-- SledImage -->
<g id="node37" class="node">
<title>SledImage</title>
<g id="a_node37"><a xlink:href="/develop/Data/models.html#sled-image" xlink:title="SledImage" target="_top">
<polygon fill="#eeefff" stroke="#dddeee" points="500.28,-290 425.28,-290 425.28,-254 500.28,-254 500.28,-290"/>
<text text-anchor="middle" x="462.78" y="-268.3" font-family="Times,serif" font-size="14.00">SledImage</text>
</a>
</g>
</g>
</g>
</svg>
