<?xml version="1.0" encoding="UTF-8" standalone="no"?>
<!DOCTYPE svg PUBLIC "-//W3C//DTD SVG 1.1//EN"
 "http://www.w3.org/Graphics/SVG/1.1/DTD/svg11.dtd">
<!-- Generated by graphviz version 2.50.0 (20211204.2007)
 -->
<!-- Title: ImportDataset Pages: 1 -->
<svg width="664pt" height="531pt"
 viewBox="0.00 0.00 664.00 530.91" xmlns="http://www.w3.org/2000/svg" xmlns:xlink="http://www.w3.org/1999/xlink">
<g id="graph0" class="graph" transform="scale(1 1) rotate(0) translate(4 526.91)">
<title>ImportDataset</title>
<polygon fill="white" stroke="transparent" points="-4,4 -4,-526.91 660,-526.91 660,4 -4,4"/>
<text text-anchor="middle" x="328" y="-22.8" font-family="Times,serif" font-size="14.00">Algorithmically generated relationships for ImportDataset based on assertions of &#39;has_many&#39;, &#39;has_one&#39;, &#39;belongs_to&#39;. </text>
<text text-anchor="middle" x="328" y="-7.8" font-family="Times,serif" font-size="14.00">Generated 2022&#45;01&#45;25 11:37:55 &#45;0600.</text>
<!-- ImportDataset&#45;&gt;DatasetRecordField -->
<g id="edge1" class="edge">
<title>ImportDataset&#45;&gt;DatasetRecordField</title>
<path fill="none" stroke="black" d="M108.57,-295.94C120.89,-336.92 152.51,-425.44 208.33,-477.91 209.44,-478.95 210.59,-479.95 211.79,-480.92"/>
<polygon fill="black" stroke="black" points="209.96,-483.92 220.15,-486.83 214,-478.2 209.96,-483.92"/>
</g>
<!-- ImportDataset&#45;&gt;DatasetRecord -->
<g id="edge2" class="edge">
<title>ImportDataset&#45;&gt;DatasetRecord</title>
<path fill="none" stroke="black" d="M113.21,-296.1C129.66,-328.16 163.96,-387.54 208.33,-423.91 209.91,-425.2 211.56,-426.44 213.27,-427.64"/>
<polygon fill="black" stroke="black" points="211.83,-430.87 222.16,-433.2 215.54,-424.93 211.83,-430.87"/>
</g>
<!-- ImportDataset&#45;&gt;OriginRelationship -->
<g id="edge3" class="edge">
<title>ImportDataset&#45;&gt;OriginRelationship</title>
<path fill="none" stroke="black" d="M122.71,-295.94C142.86,-316.98 175.48,-348.53 208.33,-369.91 210.5,-371.32 212.75,-372.68 215.06,-374.01"/>
<polygon fill="black" stroke="black" points="213.69,-377.25 224.15,-378.89 217,-371.08 213.69,-377.25"/>
</g>
<!-- ImportDataset&#45;&gt;PinboardItem -->
<g id="edge4" class="edge">
<title>ImportDataset&#45;&gt;PinboardItem</title>
<path fill="none" stroke="black" d="M145.46,-291.68C167,-300.58 193.3,-311.46 216.11,-320.89"/>
<polygon fill="black" stroke="black" points="215.06,-324.25 225.64,-324.84 217.74,-317.78 215.06,-324.25"/>
</g>
<!-- ImportDataset&#45;&gt;RelatedOriginRelationship -->
<g id="edge5" class="edge">
<title>ImportDataset&#45;&gt;RelatedOriginRelationship</title>
<path fill="none" stroke="black" d="M172.34,-278.82C219.08,-283.98 281.16,-294.5 332.33,-315.91 365.13,-329.63 397.87,-353.83 420.08,-372.22"/>
<polygon fill="black" stroke="black" points="417.86,-374.93 427.76,-378.7 422.37,-369.58 417.86,-374.93"/>
</g>
<!-- ImportDataset&#45;&gt;Role -->
<g id="edge6" class="edge">
<title>ImportDataset&#45;&gt;Role</title>
<path fill="none" stroke="black" d="M172.29,-264.29C193.18,-261.4 215.26,-258.36 233.06,-255.91"/>
<polygon fill="black" stroke="black" points="233.58,-259.37 243.01,-254.53 232.63,-252.43 233.58,-259.37"/>
</g>
<!-- ImportDataset&#45;&gt;VerifierRole -->
<g id="edge7" class="edge">
<title>ImportDataset&#45;&gt;VerifierRole</title>
<path fill="none" stroke="black" d="M141.84,-255.04C161.72,-245.57 186.25,-234.01 208.33,-223.91 211.9,-222.27 215.6,-220.6 219.32,-218.92"/>
<polygon fill="black" stroke="black" points="220.89,-222.06 228.58,-214.78 218.02,-215.67 220.89,-222.06"/>
</g>
<!-- ImportDataset&#45;&gt;Creator -->
<g id="edge9" class="edge">
<title>ImportDataset&#45;&gt;Creator</title>
<path fill="none" stroke="black" stroke-dasharray="5,2" d="M125.62,-243.93C145.22,-220.5 175.35,-188.83 208.33,-169.91 226.92,-159.24 361.33,-125.88 420.26,-111.55"/>
<polygon fill="black" stroke="black" points="122.77,-241.89 119.14,-251.84 128.18,-246.33 122.77,-241.89"/>
</g>
<!-- ImportDataset&#45;&gt;Project -->
<g id="edge10" class="edge">
<title>ImportDataset&#45;&gt;Project</title>
<path fill="none" stroke="black" stroke-dasharray="5,2" d="M120.78,-243.06C139.75,-213.06 171.71,-167.63 208.33,-136.91 218.5,-128.37 231.32,-121.22 242.58,-115.86"/>
<polygon fill="black" stroke="black" points="117.63,-241.5 115.33,-251.84 123.58,-245.2 117.63,-241.5"/>
</g>
<!-- ImportDataset&#45;&gt;Updater -->
<g id="edge11" class="edge">
<title>ImportDataset&#45;&gt;Updater</title>
<path fill="none" stroke="black" stroke-dasharray="5,2" d="M109.14,-241.75C120.52,-195.96 148.56,-113.56 208.33,-77.91 330.86,-4.82 389.42,-50 529.33,-77.91 541.44,-80.32 554.11,-85.03 565.01,-89.85"/>
<polygon fill="black" stroke="black" points="105.67,-241.21 106.78,-251.75 112.49,-242.82 105.67,-241.21"/>
</g>
<!-- OriginRelationship&#45;&gt;RelatedOriginRelationship -->
<!-- Role&#45;&gt;Verifier -->
<!-- VerifierRole&#45;&gt;Verifier -->
<g id="edge8" class="edge">
<title>VerifierRole&#45;&gt;Verifier</title>
<path fill="none" stroke="black" d="M312.27,-203.17C341.84,-207.69 381.46,-213.75 410.23,-218.15"/>
<polygon fill="black" stroke="black" points="409.89,-221.64 420.3,-219.69 410.95,-214.72 409.89,-221.64"/>
</g>
<!-- Creator&#45;&gt;Updater -->
<!-- Project&#45;&gt;Creator -->
<!-- ImportDataset -->
<g id="node1" class="node">
<title>ImportDataset</title>
<g id="a_node1"><a xlink:href="/develop/Data/models.html#import-dataset" xlink:title="ImportDataset" target="_top">
<polygon fill="#cdefab" stroke="#dedede" points="168.17,-266.45 168.17,-281.36 129.12,-291.91 73.88,-291.91 34.83,-281.36 34.83,-266.45 73.88,-255.91 129.12,-255.91 168.17,-266.45"/>
<polygon fill="none" stroke="#dedede" points="172.16,-263.38 172.16,-284.43 129.65,-295.91 73.35,-295.91 30.84,-284.43 30.84,-263.38 73.35,-251.91 129.65,-251.91 172.16,-263.38"/>
<text text-anchor="middle" x="101.5" y="-270.21" font-family="Times,serif" font-size="14.00">ImportDataset</text>
</a>
</g>
</g>
<!-- DatasetRecordField -->
<g id="node2" class="node">
<title>DatasetRecordField</title>
<g id="a_node2"><a xlink:href="/develop/Data/models.html#dataset-record-field" xlink:title="DatasetRecordField" target="_top">
<polygon fill="#eeefff" stroke="#dddeee" points="332.33,-522.91 208.33,-522.91 208.33,-486.91 332.33,-486.91 332.33,-522.91"/>
<text text-anchor="middle" x="270.33" y="-501.21" font-family="Times,serif" font-size="14.00">DatasetRecordField</text>
</a>
</g>
</g>
<!-- DatasetRecord -->
<g id="node3" class="node">
<title>DatasetRecord</title>
<g id="a_node3"><a xlink:href="/develop/Data/models.html#dataset-record" xlink:title="DatasetRecord" target="_top">
<polygon fill="#eeefff" stroke="#dddeee" points="318.33,-468.91 222.33,-468.91 222.33,-432.91 318.33,-432.91 318.33,-468.91"/>
<text text-anchor="middle" x="270.33" y="-447.21" font-family="Times,serif" font-size="14.00">DatasetRecord</text>
</a>
</g>
</g>
<!-- OriginRelationship -->
<g id="node4" class="node">
<title>OriginRelationship</title>
<g id="a_node4"><a xlink:href="/develop/Data/models.html#origin-relationship" xlink:title="OriginRelationship" target="_top">
<polygon fill="#eeefff" stroke="#dddeee" points="330.33,-414.91 210.33,-414.91 210.33,-378.91 330.33,-378.91 330.33,-414.91"/>
<text text-anchor="middle" x="270.33" y="-393.21" font-family="Times,serif" font-size="14.00">OriginRelationship</text>
</a>
</g>
</g>
<!-- PinboardItem -->
<g id="node5" class="node">
<title>PinboardItem</title>
<g id="a_node5"><a xlink:href="/develop/Data/models.html#pinboard-item" xlink:title="PinboardItem" target="_top">
<polygon fill="#eeefff" stroke="#dddeee" points="315.83,-360.91 224.83,-360.91 224.83,-324.91 315.83,-324.91 315.83,-360.91"/>
<text text-anchor="middle" x="270.33" y="-339.21" font-family="Times,serif" font-size="14.00">PinboardItem</text>
</a>
</g>
</g>
<!-- RelatedOriginRelationship -->
<g id="node6" class="node">
<title>RelatedOriginRelationship</title>
<g id="a_node6"><a xlink:href="/develop/Data/models.html#related-origin-relationship" xlink:title="RelatedOriginRelationship" target="_top">
<polygon fill="#eeefff" stroke="#dddeee" points="529.33,-414.91 368.33,-414.91 368.33,-378.91 529.33,-378.91 529.33,-414.91"/>
<text text-anchor="middle" x="448.83" y="-393.21" font-family="Times,serif" font-size="14.00">RelatedOriginRelationship</text>
</a>
</g>
</g>
<!-- Role -->
<g id="node7" class="node">
<title>Role</title>
<g id="a_node7"><a xlink:href="/develop/Data/models.html#role" xlink:title="Role" target="_top">
<polygon fill="#eeefff" stroke="#dddeee" points="297.33,-268.91 243.33,-268.91 243.33,-232.91 297.33,-232.91 297.33,-268.91"/>
<text text-anchor="middle" x="270.33" y="-247.21" font-family="Times,serif" font-size="14.00">Role</text>
</a>
</g>
</g>
<!-- VerifierRole -->
<g id="node8" class="node">
<title>VerifierRole</title>
<g id="a_node8"><a xlink:href="/develop/Data/models.html#verifier-role" xlink:title="VerifierRole" target="_top">
<polygon fill="#eeefff" stroke="#dddeee" points="311.83,-214.91 228.83,-214.91 228.83,-178.91 311.83,-178.91 311.83,-214.91"/>
<text text-anchor="middle" x="270.33" y="-193.21" font-family="Times,serif" font-size="14.00">VerifierRole</text>
</a>
</g>
</g>
<!-- Verifier -->
<g id="node9" class="node">
<title>Verifier</title>
<g id="a_node9"><a xlink:href="/develop/Data/models.html#verifier" xlink:title="Verifier" target="_top">
<polygon fill="#eeefff" stroke="#dddeee" points="477.33,-241.91 420.33,-241.91 420.33,-205.91 477.33,-205.91 477.33,-241.91"/>
<text text-anchor="middle" x="448.83" y="-220.21" font-family="Times,serif" font-size="14.00">Verifier</text>
</a>
</g>
</g>
<!-- Creator -->
<g id="node10" class="node">
<title>Creator</title>
<g id="a_node10"><a xlink:href="/develop/Data/models.html#creator" xlink:title="Creator" target="_top">
<polygon fill="#eeefff" stroke="#dddeee" points="477.33,-122.91 420.33,-122.91 420.33,-86.91 477.33,-86.91 477.33,-122.91"/>
<text text-anchor="middle" x="448.83" y="-101.21" font-family="Times,serif" font-size="14.00">Creator</text>
</a>
</g>
</g>
<!-- Project -->
<g id="node11" class="node">
<title>Project</title>
<g id="a_node11"><a xlink:href="/develop/Data/models.html#project" xlink:title="Project" target="_top">
<polygon fill="#eeefff" stroke="#dddeee" points="297.83,-122.91 242.83,-122.91 242.83,-86.91 297.83,-86.91 297.83,-122.91"/>
<text text-anchor="middle" x="270.33" y="-101.21" font-family="Times,serif" font-size="14.00">Project</text>
</a>
</g>
</g>
<!-- Updater -->
<g id="node12" class="node">
<title>Updater</title>
<g id="a_node12"><a xlink:href="/develop/Data/models.html#updater" xlink:title="Updater" target="_top">
<polygon fill="#eeefff" stroke="#dddeee" points="625.33,-122.91 565.33,-122.91 565.33,-86.91 625.33,-86.91 625.33,-122.91"/>
<text text-anchor="middle" x="595.33" y="-101.21" font-family="Times,serif" font-size="14.00">Updater</text>
</a>
</g>
</g>
</g>
</svg>
