<?xml version="1.0" encoding="UTF-8" standalone="no"?>
<!DOCTYPE svg PUBLIC "-//W3C//DTD SVG 1.1//EN"
 "http://www.w3.org/Graphics/SVG/1.1/DTD/svg11.dtd">
<!-- Generated by graphviz version 2.50.0 (20211204.2007)
 -->
<!-- Title: Label Pages: 1 -->
<svg width="622pt" height="374pt"
 viewBox="0.00 0.00 621.74 374.00" xmlns="http://www.w3.org/2000/svg" xmlns:xlink="http://www.w3.org/1999/xlink">
<g id="graph0" class="graph" transform="scale(1 1) rotate(0) translate(4 370)">
<title>Label</title>
<polygon fill="white" stroke="transparent" points="-4,4 -4,-370 617.74,-370 617.74,4 -4,4"/>
<text text-anchor="middle" x="306.87" y="-22.8" font-family="Times,serif" font-size="14.00">Algorithmically generated relationships for Label based on assertions of &#39;has_many&#39;, &#39;has_one&#39;, &#39;belongs_to&#39;. </text>
<text text-anchor="middle" x="306.87" y="-7.8" font-family="Times,serif" font-size="14.00">Generated 2022&#45;01&#45;25 11:42:30 &#45;0600.</text>
<!-- Depiction&#45;&gt;Image -->
<g id="edge2" class="edge">
<title>Depiction&#45;&gt;Image</title>
<path fill="none" stroke="black" d="M91.23,-250.77C102.9,-250.97 115.35,-251.18 126.54,-251.37"/>
<polygon fill="black" stroke="black" points="126.77,-254.88 136.83,-251.55 126.89,-247.88 126.77,-254.88"/>
</g>
<!-- Tag&#45;&gt;Keyword -->
<g id="edge3" class="edge">
<title>Tag&#45;&gt;Keyword</title>
<path fill="none" stroke="black" d="M72.65,-137.55C86.64,-137.31 104.21,-137.01 120.14,-136.74"/>
<polygon fill="black" stroke="black" points="120.37,-140.23 130.31,-136.56 120.25,-133.23 120.37,-140.23"/>
</g>
<!-- Label&#45;&gt;Depiction -->
<g id="edge1" class="edge">
<title>Label&#45;&gt;Depiction</title>
<path fill="none" stroke="black" d="M134.03,-207.95C118.96,-215.19 100.37,-224.12 84.2,-231.88"/>
<polygon fill="black" stroke="black" points="82.51,-228.82 75.01,-236.3 85.54,-235.13 82.51,-228.82"/>
</g>
<!-- Label&#45;&gt;Tag -->
<g id="edge7" class="edge">
<title>Label&#45;&gt;Tag</title>
<path fill="none" stroke="black" d="M133.91,-180C116.61,-171.68 94.69,-161.15 77.13,-152.72"/>
<polygon fill="black" stroke="black" points="78.4,-149.45 67.87,-148.27 75.37,-155.76 78.4,-149.45"/>
</g>
<!-- Label&#45;&gt;Note -->
<g id="edge4" class="edge">
<title>Label&#45;&gt;Note</title>
<path fill="none" stroke="black" d="M126.89,-194C113.16,-194 97.51,-194 83.68,-194"/>
<polygon fill="black" stroke="black" points="83.53,-190.5 73.53,-194 83.53,-197.5 83.53,-190.5"/>
</g>
<!-- Label&#45;&gt;PinboardItem -->
<g id="edge5" class="edge">
<title>Label&#45;&gt;PinboardItem</title>
<path fill="none" stroke="black" d="M188.52,-211.13C193.13,-215.29 197.62,-219.99 201.12,-225 227.22,-262.36 203.7,-290.02 237.12,-321 247.62,-330.73 261.42,-336.98 275.17,-340.98"/>
<polygon fill="black" stroke="black" points="274.56,-344.43 285.12,-343.51 276.29,-337.65 274.56,-344.43"/>
</g>
<!-- Label&#45;&gt;Role -->
<g id="edge6" class="edge">
<title>Label&#45;&gt;Role</title>
<path fill="none" stroke="black" d="M186.9,-211.84C191.71,-216.02 196.69,-220.56 201.12,-225 218.49,-242.4 216.46,-253.68 237.12,-267 254.18,-278 275.83,-284.63 293.93,-288.57"/>
<polygon fill="black" stroke="black" points="293.35,-292.02 303.84,-290.54 294.72,-285.15 293.35,-292.02"/>
</g>
<!-- Label&#45;&gt;VerifierRole -->
<g id="edge8" class="edge">
<title>Label&#45;&gt;VerifierRole</title>
<path fill="none" stroke="black" d="M201.24,-204.09C224.17,-210.49 254.16,-218.86 279.42,-225.91"/>
<polygon fill="black" stroke="black" points="278.62,-229.32 289.2,-228.64 280.51,-222.58 278.62,-229.32"/>
</g>
<!-- Label&#45;&gt;Creator -->
<g id="edge10" class="edge">
<title>Label&#45;&gt;Creator</title>
<path fill="none" stroke="black" stroke-dasharray="5,2" d="M211.35,-195.15C263.84,-195.42 351.63,-192.7 424.74,-175 436.85,-172.07 449.6,-167.06 460.47,-162.15"/>
<polygon fill="black" stroke="black" points="211.37,-191.65 201.34,-195.06 211.3,-198.65 211.37,-191.65"/>
</g>
<!-- Label&#45;&gt;Project -->
<g id="edge12" class="edge">
<title>Label&#45;&gt;Project</title>
<path fill="none" stroke="black" stroke-dasharray="5,2" d="M210.99,-181.18C240.73,-172.89 278.41,-162.37 303.3,-155.43"/>
<polygon fill="black" stroke="black" points="209.93,-177.85 201.24,-183.91 211.81,-184.59 209.93,-177.85"/>
</g>
<!-- Label&#45;&gt;Updater -->
<g id="edge13" class="edge">
<title>Label&#45;&gt;Updater</title>
<path fill="none" stroke="black" stroke-dasharray="5,2" d="M194.6,-169.26C196.84,-167.18 199.04,-165.08 201.12,-163 218.49,-145.6 214.78,-131.27 237.12,-121 350.43,-68.88 395.43,-96.61 517.74,-121 529.85,-123.41 542.52,-128.13 553.42,-132.95"/>
<polygon fill="black" stroke="black" points="192.01,-166.88 186.9,-176.16 196.68,-172.1 192.01,-166.88"/>
</g>
<!-- Label&#45;&gt;Objects with Labels -->
<g id="edge11" class="edge">
<title>Label&#45;&gt;Objects with Labels</title>
<path fill="none" stroke="black" stroke-dasharray="5,2" d="M195.41,-169.65C197.45,-167.5 199.38,-165.27 201.12,-163 223.62,-133.66 209.51,-112.59 237.12,-88 246.54,-79.61 258.27,-73.4 270.18,-68.8"/>
<polygon fill="black" stroke="black" points="192.95,-167.16 188.19,-176.63 197.81,-172.19 192.95,-167.16"/>
</g>
<!-- Role&#45;&gt;Verifier -->
<!-- VerifierRole&#45;&gt;Verifier -->
<g id="edge9" class="edge">
<title>VerifierRole&#45;&gt;Verifier</title>
<path fill="none" stroke="black" d="M372.59,-247.02C396.7,-251.19 427.06,-256.43 450.61,-260.5"/>
<polygon fill="black" stroke="black" points="450.14,-263.97 460.59,-262.22 451.33,-257.07 450.14,-263.97"/>
</g>
<!-- Creator&#45;&gt;Updater -->
<!-- Project&#45;&gt;Creator -->
<!-- Depiction -->
<g id="node1" class="node">
<title>Depiction</title>
<g id="a_node1"><a xlink:href="/develop/Data/models.html#depiction" xlink:title="Depiction" target="_top">
<ellipse fill="#abcdef" stroke="#dddeee" cx="45.5" cy="-250" rx="45.49" ry="18"/>
<text text-anchor="middle" x="45.5" y="-246.3" font-family="Times,serif" font-size="14.00">Depiction</text>
</a>
</g>
</g>
<!-- Tag -->
<g id="node2" class="node">
<title>Tag</title>
<g id="a_node2"><a xlink:href="/develop/Data/models.html#tag" xlink:title="Tag" target="_top">
<ellipse fill="#abcdef" stroke="#dddeee" cx="45.5" cy="-138" rx="27" ry="18"/>
<text text-anchor="middle" x="45.5" y="-134.3" font-family="Times,serif" font-size="14.00">Tag</text>
</a>
</g>
</g>
<!-- Note -->
<g id="node3" class="node">
<title>Note</title>
<g id="a_node3"><a xlink:href="/develop/Data/models.html#note" xlink:title="Note" target="_top">
<ellipse fill="#abcdef" stroke="#dddeee" cx="45.5" cy="-194" rx="27.9" ry="18"/>
<text text-anchor="middle" x="45.5" y="-190.3" font-family="Times,serif" font-size="14.00">Note</text>
</a>
</g>
</g>
<!-- Label -->
<g id="node4" class="node">
<title>Label</title>
<g id="a_node4"><a xlink:href="/develop/Data/models.html#label" xlink:title="Label" target="_top">
<polygon fill="#cdefab" stroke="#dedede" points="197.18,-186.54 197.18,-201.46 177.78,-212 150.34,-212 130.93,-201.46 130.93,-186.54 150.34,-176 177.78,-176 197.18,-186.54"/>
<polygon fill="none" stroke="#dedede" points="201.18,-184.17 201.18,-203.83 178.8,-216 149.32,-216 126.93,-203.83 126.93,-184.17 149.32,-172 178.8,-172 201.18,-184.17"/>
<text text-anchor="middle" x="164.06" y="-190.3" font-family="Times,serif" font-size="14.00">Label</text>
</a>
</g>
</g>
<!-- Image -->
<g id="node5" class="node">
<title>Image</title>
<g id="a_node5"><a xlink:href="/develop/Data/models.html#image" xlink:title="Image" target="_top">
<polygon fill="#eeefff" stroke="#dddeee" points="191.06,-270 137.06,-270 137.06,-234 191.06,-234 191.06,-270"/>
<text text-anchor="middle" x="164.06" y="-248.3" font-family="Times,serif" font-size="14.00">Image</text>
</a>
</g>
</g>
<!-- Keyword -->
<g id="node6" class="node">
<title>Keyword</title>
<g id="a_node6"><a xlink:href="/develop/Data/models.html#keyword" xlink:title="Keyword" target="_top">
<polygon fill="#eeefff" stroke="#dddeee" points="197.56,-154 130.56,-154 130.56,-118 197.56,-118 197.56,-154"/>
<text text-anchor="middle" x="164.06" y="-132.3" font-family="Times,serif" font-size="14.00">Keyword</text>
</a>
</g>
</g>
<!-- PinboardItem -->
<g id="node7" class="node">
<title>PinboardItem</title>
<g id="a_node7"><a xlink:href="/develop/Data/models.html#pinboard-item" xlink:title="PinboardItem" target="_top">
<polygon fill="#eeefff" stroke="#dddeee" points="376.43,-366 285.43,-366 285.43,-330 376.43,-330 376.43,-366"/>
<text text-anchor="middle" x="330.93" y="-344.3" font-family="Times,serif" font-size="14.00">PinboardItem</text>
</a>
</g>
</g>
<!-- Role -->
<g id="node8" class="node">
<title>Role</title>
<g id="a_node8"><a xlink:href="/develop/Data/models.html#role" xlink:title="Role" target="_top">
<polygon fill="#eeefff" stroke="#dddeee" points="357.93,-312 303.93,-312 303.93,-276 357.93,-276 357.93,-312"/>
<text text-anchor="middle" x="330.93" y="-290.3" font-family="Times,serif" font-size="14.00">Role</text>
</a>
</g>
</g>
<!-- VerifierRole -->
<g id="node9" class="node">
<title>VerifierRole</title>
<g id="a_node9"><a xlink:href="/develop/Data/models.html#verifier-role" xlink:title="VerifierRole" target="_top">
<polygon fill="#eeefff" stroke="#dddeee" points="372.43,-258 289.43,-258 289.43,-222 372.43,-222 372.43,-258"/>
<text text-anchor="middle" x="330.93" y="-236.3" font-family="Times,serif" font-size="14.00">VerifierRole</text>
</a>
</g>
</g>
<!-- Verifier -->
<g id="node10" class="node">
<title>Verifier</title>
<g id="a_node10"><a xlink:href="/develop/Data/models.html#verifier" xlink:title="Verifier" target="_top">
<polygon fill="#eeefff" stroke="#dddeee" points="517.74,-285 460.74,-285 460.74,-249 517.74,-249 517.74,-285"/>
<text text-anchor="middle" x="489.24" y="-263.3" font-family="Times,serif" font-size="14.00">Verifier</text>
</a>
</g>
</g>
<!-- Creator -->
<g id="node11" class="node">
<title>Creator</title>
<g id="a_node11"><a xlink:href="/develop/Data/models.html#creator" xlink:title="Creator" target="_top">
<polygon fill="#eeefff" stroke="#dddeee" points="517.74,-166 460.74,-166 460.74,-130 517.74,-130 517.74,-166"/>
<text text-anchor="middle" x="489.24" y="-144.3" font-family="Times,serif" font-size="14.00">Creator</text>
</a>
</g>
</g>
<!-- Project -->
<g id="node12" class="node">
<title>Project</title>
<g id="a_node12"><a xlink:href="/develop/Data/models.html#project" xlink:title="Project" target="_top">
<polygon fill="#eeefff" stroke="#dddeee" points="358.43,-166 303.43,-166 303.43,-130 358.43,-130 358.43,-166"/>
<text text-anchor="middle" x="330.93" y="-144.3" font-family="Times,serif" font-size="14.00">Project</text>
</a>
</g>
</g>
<!-- Updater -->
<g id="node13" class="node">
<title>Updater</title>
<g id="a_node13"><a xlink:href="/develop/Data/models.html#updater" xlink:title="Updater" target="_top">
<polygon fill="#eeefff" stroke="#dddeee" points="613.74,-166 553.74,-166 553.74,-130 613.74,-130 613.74,-166"/>
<text text-anchor="middle" x="583.74" y="-144.3" font-family="Times,serif" font-size="14.00">Updater</text>
</a>
</g>
</g>
<!-- Objects with Labels -->
<g id="node14" class="node">
<title>Objects with Labels</title>
<g id="a_node14"><a xlink:href="/develop/Data/models.html#objects with label" xlink:title="Objects with Labels" target="_top">
<polygon fill="#cdabef" stroke="#dedede" points="424.55,-56 377.74,-74 284.12,-74 237.31,-56 284.12,-38 377.74,-38 424.55,-56"/>
<text text-anchor="middle" x="330.93" y="-52.3" font-family="Times,serif" font-size="14.00">Objects with Labels</text>
</a>
</g>
</g>
</g>
</svg>
