<?xml version="1.0" encoding="UTF-8" standalone="no"?>
<!DOCTYPE svg PUBLIC "-//W3C//DTD SVG 1.1//EN"
 "http://www.w3.org/Graphics/SVG/1.1/DTD/svg11.dtd">
<!-- Generated by graphviz version 2.50.0 (20211204.2007)
 -->
<!-- Title: Label Pages: 1 -->
<svg width="622pt" height="336pt"
 viewBox="0.00 0.00 621.74 336.00" xmlns="http://www.w3.org/2000/svg" xmlns:xlink="http://www.w3.org/1999/xlink">
<g id="graph0" class="graph" transform="scale(1 1) rotate(0) translate(4 332)">
<title>Label</title>
<polygon fill="white" stroke="transparent" points="-4,4 -4,-332 617.74,-332 617.74,4 -4,4"/>
<!-- Depiction&#45;&gt;Image -->
<g id="edge2" class="edge">
<title>Depiction&#45;&gt;Image</title>
<path fill="none" stroke="black" d="M91.23,-212.77C102.9,-212.97 115.35,-213.18 126.54,-213.37"/>
<polygon fill="black" stroke="black" points="126.77,-216.88 136.83,-213.55 126.89,-209.88 126.77,-216.88"/>
</g>
<!-- Tag&#45;&gt;Keyword -->
<g id="edge3" class="edge">
<title>Tag&#45;&gt;Keyword</title>
<path fill="none" stroke="black" d="M72.65,-99.55C86.64,-99.31 104.21,-99.01 120.14,-98.74"/>
<polygon fill="black" stroke="black" points="120.37,-102.23 130.31,-98.56 120.25,-95.23 120.37,-102.23"/>
</g>
<!-- Label&#45;&gt;Depiction -->
<g id="edge1" class="edge">
<title>Label&#45;&gt;Depiction</title>
<path fill="none" stroke="black" d="M134.03,-169.95C118.96,-177.19 100.37,-186.12 84.2,-193.88"/>
<polygon fill="black" stroke="black" points="82.51,-190.82 75.01,-198.3 85.54,-197.13 82.51,-190.82"/>
</g>
<!-- Label&#45;&gt;Tag -->
<g id="edge7" class="edge">
<title>Label&#45;&gt;Tag</title>
<path fill="none" stroke="black" d="M133.91,-142C116.61,-133.68 94.69,-123.15 77.13,-114.72"/>
<polygon fill="black" stroke="black" points="78.4,-111.45 67.87,-110.27 75.37,-117.76 78.4,-111.45"/>
</g>
<!-- Label&#45;&gt;Note -->
<g id="edge4" class="edge">
<title>Label&#45;&gt;Note</title>
<path fill="none" stroke="black" d="M126.89,-156C113.16,-156 97.51,-156 83.68,-156"/>
<polygon fill="black" stroke="black" points="83.53,-152.5 73.53,-156 83.53,-159.5 83.53,-152.5"/>
</g>
<!-- Label&#45;&gt;PinboardItem -->
<g id="edge5" class="edge">
<title>Label&#45;&gt;PinboardItem</title>
<path fill="none" stroke="black" d="M188.52,-173.13C193.13,-177.29 197.62,-181.99 201.12,-187 227.22,-224.36 203.7,-252.02 237.12,-283 247.62,-292.73 261.42,-298.98 275.17,-302.98"/>
<polygon fill="black" stroke="black" points="274.56,-306.43 285.12,-305.51 276.29,-299.65 274.56,-306.43"/>
</g>
<!-- Label&#45;&gt;Role -->
<g id="edge6" class="edge">
<title>Label&#45;&gt;Role</title>
<path fill="none" stroke="black" d="M186.9,-173.84C191.71,-178.02 196.69,-182.56 201.12,-187 218.49,-204.4 216.46,-215.68 237.12,-229 254.18,-240 275.83,-246.63 293.93,-250.57"/>
<polygon fill="black" stroke="black" points="293.35,-254.02 303.84,-252.54 294.72,-247.15 293.35,-254.02"/>
</g>
<!-- Label&#45;&gt;VerifierRole -->
<g id="edge8" class="edge">
<title>Label&#45;&gt;VerifierRole</title>
<path fill="none" stroke="black" d="M201.24,-166.09C224.17,-172.49 254.16,-180.86 279.42,-187.91"/>
<polygon fill="black" stroke="black" points="278.62,-191.32 289.2,-190.64 280.51,-184.58 278.62,-191.32"/>
</g>
<!-- Label&#45;&gt;Creator -->
<g id="edge10" class="edge">
<title>Label&#45;&gt;Creator</title>
<path fill="none" stroke="black" stroke-dasharray="5,2" d="M211.35,-157.15C263.84,-157.42 351.63,-154.7 424.74,-137 436.85,-134.07 449.6,-129.06 460.47,-124.15"/>
<polygon fill="black" stroke="black" points="211.37,-153.65 201.34,-157.06 211.3,-160.65 211.37,-153.65"/>
</g>
<!-- Label&#45;&gt;Project -->
<g id="edge12" class="edge">
<title>Label&#45;&gt;Project</title>
<path fill="none" stroke="black" stroke-dasharray="5,2" d="M210.99,-143.18C240.73,-134.89 278.41,-124.37 303.3,-117.43"/>
<polygon fill="black" stroke="black" points="209.93,-139.85 201.24,-145.91 211.81,-146.59 209.93,-139.85"/>
</g>
<!-- Label&#45;&gt;Updater -->
<g id="edge13" class="edge">
<title>Label&#45;&gt;Updater</title>
<path fill="none" stroke="black" stroke-dasharray="5,2" d="M194.6,-131.26C196.84,-129.18 199.04,-127.08 201.12,-125 218.49,-107.6 214.78,-93.27 237.12,-83 350.43,-30.88 395.43,-58.61 517.74,-83 529.85,-85.41 542.52,-90.13 553.42,-94.95"/>
<polygon fill="black" stroke="black" points="192.01,-128.88 186.9,-138.16 196.68,-134.1 192.01,-128.88"/>
</g>
<!-- Label&#45;&gt;Objects with Labels -->
<g id="edge11" class="edge">
<title>Label&#45;&gt;Objects with Labels</title>
<path fill="none" stroke="black" stroke-dasharray="5,2" d="M195.41,-131.65C197.45,-129.5 199.38,-127.27 201.12,-125 223.62,-95.66 209.51,-74.59 237.12,-50 246.54,-41.61 258.27,-35.4 270.18,-30.8"/>
<polygon fill="black" stroke="black" points="192.95,-129.16 188.19,-138.63 197.81,-134.19 192.95,-129.16"/>
</g>
<!-- Role&#45;&gt;Verifier -->
<!-- VerifierRole&#45;&gt;Verifier -->
<g id="edge9" class="edge">
<title>VerifierRole&#45;&gt;Verifier</title>
<path fill="none" stroke="black" d="M372.59,-209.02C396.7,-213.19 427.06,-218.43 450.61,-222.5"/>
<polygon fill="black" stroke="black" points="450.14,-225.97 460.59,-224.22 451.33,-219.07 450.14,-225.97"/>
</g>
<!-- Creator&#45;&gt;Updater -->
<!-- Project&#45;&gt;Creator -->
<!-- Depiction -->
<g id="node1" class="node">
<title>Depiction</title>
<g id="a_node1"><a xlink:href="/develop/Data/models.html#depiction" xlink:title="Depiction" target="_top">
<ellipse fill="#abcdef" stroke="#dddeee" cx="45.5" cy="-212" rx="45.49" ry="18"/>
<text text-anchor="middle" x="45.5" y="-208.3" font-family="Times,serif" font-size="14.00">Depiction</text>
</a>
</g>
</g>
<!-- Tag -->
<g id="node2" class="node">
<title>Tag</title>
<g id="a_node2"><a xlink:href="/develop/Data/models.html#tag" xlink:title="Tag" target="_top">
<ellipse fill="#abcdef" stroke="#dddeee" cx="45.5" cy="-100" rx="27" ry="18"/>
<text text-anchor="middle" x="45.5" y="-96.3" font-family="Times,serif" font-size="14.00">Tag</text>
</a>
</g>
</g>
<!-- Note -->
<g id="node3" class="node">
<title>Note</title>
<g id="a_node3"><a xlink:href="/develop/Data/models.html#note" xlink:title="Note" target="_top">
<ellipse fill="#abcdef" stroke="#dddeee" cx="45.5" cy="-156" rx="27.9" ry="18"/>
<text text-anchor="middle" x="45.5" y="-152.3" font-family="Times,serif" font-size="14.00">Note</text>
</a>
</g>
</g>
<!-- Label -->
<g id="node4" class="node">
<title>Label</title>
<g id="a_node4"><a xlink:href="/develop/Data/models.html#label" xlink:title="Label" target="_top">
<polygon fill="#cdefab" stroke="#dedede" points="197.18,-148.54 197.18,-163.46 177.78,-174 150.34,-174 130.93,-163.46 130.93,-148.54 150.34,-138 177.78,-138 197.18,-148.54"/>
<polygon fill="none" stroke="#dedede" points="201.18,-146.17 201.18,-165.83 178.8,-178 149.32,-178 126.93,-165.83 126.93,-146.17 149.32,-134 178.8,-134 201.18,-146.17"/>
<text text-anchor="middle" x="164.06" y="-152.3" font-family="Times,serif" font-size="14.00">Label</text>
</a>
</g>
</g>
<!-- Image -->
<g id="node5" class="node">
<title>Image</title>
<g id="a_node5"><a xlink:href="/develop/Data/models.html#image" xlink:title="Image" target="_top">
<polygon fill="#eeefff" stroke="#dddeee" points="191.06,-232 137.06,-232 137.06,-196 191.06,-196 191.06,-232"/>
<text text-anchor="middle" x="164.06" y="-210.3" font-family="Times,serif" font-size="14.00">Image</text>
</a>
</g>
</g>
<!-- Keyword -->
<g id="node6" class="node">
<title>Keyword</title>
<g id="a_node6"><a xlink:href="/develop/Data/models.html#keyword" xlink:title="Keyword" target="_top">
<polygon fill="#eeefff" stroke="#dddeee" points="197.56,-116 130.56,-116 130.56,-80 197.56,-80 197.56,-116"/>
<text text-anchor="middle" x="164.06" y="-94.3" font-family="Times,serif" font-size="14.00">Keyword</text>
</a>
</g>
</g>
<!-- PinboardItem -->
<g id="node7" class="node">
<title>PinboardItem</title>
<g id="a_node7"><a xlink:href="/develop/Data/models.html#pinboard-item" xlink:title="PinboardItem" target="_top">
<polygon fill="#eeefff" stroke="#dddeee" points="376.43,-328 285.43,-328 285.43,-292 376.43,-292 376.43,-328"/>
<text text-anchor="middle" x="330.93" y="-306.3" font-family="Times,serif" font-size="14.00">PinboardItem</text>
</a>
</g>
</g>
<!-- Role -->
<g id="node8" class="node">
<title>Role</title>
<g id="a_node8"><a xlink:href="/develop/Data/models.html#role" xlink:title="Role" target="_top">
<polygon fill="#eeefff" stroke="#dddeee" points="357.93,-274 303.93,-274 303.93,-238 357.93,-238 357.93,-274"/>
<text text-anchor="middle" x="330.93" y="-252.3" font-family="Times,serif" font-size="14.00">Role</text>
</a>
</g>
</g>
<!-- VerifierRole -->
<g id="node9" class="node">
<title>VerifierRole</title>
<g id="a_node9"><a xlink:href="/develop/Data/models.html#verifier-role" xlink:title="VerifierRole" target="_top">
<polygon fill="#eeefff" stroke="#dddeee" points="372.43,-220 289.43,-220 289.43,-184 372.43,-184 372.43,-220"/>
<text text-anchor="middle" x="330.93" y="-198.3" font-family="Times,serif" font-size="14.00">VerifierRole</text>
</a>
</g>
</g>
<!-- Verifier -->
<g id="node10" class="node">
<title>Verifier</title>
<g id="a_node10"><a xlink:href="/develop/Data/models.html#verifier" xlink:title="Verifier" target="_top">
<polygon fill="#eeefff" stroke="#dddeee" points="517.74,-247 460.74,-247 460.74,-211 517.74,-211 517.74,-247"/>
<text text-anchor="middle" x="489.24" y="-225.3" font-family="Times,serif" font-size="14.00">Verifier</text>
</a>
</g>
</g>
<!-- Creator -->
<g id="node11" class="node">
<title>Creator</title>
<g id="a_node11"><a xlink:href="/develop/Data/models.html#creator" xlink:title="Creator" target="_top">
<polygon fill="#eeefff" stroke="#dddeee" points="517.74,-128 460.74,-128 460.74,-92 517.74,-92 517.74,-128"/>
<text text-anchor="middle" x="489.24" y="-106.3" font-family="Times,serif" font-size="14.00">Creator</text>
</a>
</g>
</g>
<!-- Project -->
<g id="node12" class="node">
<title>Project</title>
<g id="a_node12"><a xlink:href="/develop/Data/models.html#project" xlink:title="Project" target="_top">
<polygon fill="#eeefff" stroke="#dddeee" points="358.43,-128 303.43,-128 303.43,-92 358.43,-92 358.43,-128"/>
<text text-anchor="middle" x="330.93" y="-106.3" font-family="Times,serif" font-size="14.00">Project</text>
</a>
</g>
</g>
<!-- Updater -->
<g id="node13" class="node">
<title>Updater</title>
<g id="a_node13"><a xlink:href="/develop/Data/models.html#updater" xlink:title="Updater" target="_top">
<polygon fill="#eeefff" stroke="#dddeee" points="613.74,-128 553.74,-128 553.74,-92 613.74,-92 613.74,-128"/>
<text text-anchor="middle" x="583.74" y="-106.3" font-family="Times,serif" font-size="14.00">Updater</text>
</a>
</g>
</g>
<!-- Objects with Labels -->
<g id="node14" class="node">
<title>Objects with Labels</title>
<g id="a_node14"><a xlink:href="/develop/Data/models.html#objects with label" xlink:title="Objects with Labels" target="_top">
<polygon fill="#cdabef" stroke="#dedede" points="424.55,-18 377.74,-36 284.12,-36 237.31,-18 284.12,0 377.74,0 424.55,-18"/>
<text text-anchor="middle" x="330.93" y="-14.3" font-family="Times,serif" font-size="14.00">Objects with Labels</text>
</a>
</g>
</g>
</g>
</svg>
