<?xml version="1.0" encoding="UTF-8" standalone="no"?>
<!DOCTYPE svg PUBLIC "-//W3C//DTD SVG 1.1//EN"
 "http://www.w3.org/Graphics/SVG/1.1/DTD/svg11.dtd">
<!-- Generated by graphviz version 2.50.0 (20211204.2007)
 -->
<!-- Title: Language Pages: 1 -->
<svg width="640pt" height="434pt"
 viewBox="0.00 0.00 640.00 434.07" xmlns="http://www.w3.org/2000/svg" xmlns:xlink="http://www.w3.org/1999/xlink">
<g id="graph0" class="graph" transform="scale(1 1) rotate(0) translate(4 430.07)">
<title>Language</title>
<polygon fill="white" stroke="transparent" points="-4,4 -4,-430.07 636,-430.07 636,4 -4,4"/>
<text text-anchor="middle" x="316" y="-22.8" font-family="Times,serif" font-size="14.00">Algorithmically generated relationships for Language based on assertions of &#39;has_many&#39;, &#39;has_one&#39;, &#39;belongs_to&#39;. </text>
<text text-anchor="middle" x="316" y="-7.8" font-family="Times,serif" font-size="14.00">Generated 2022&#45;01&#45;25 11:37:56 &#45;0600.</text>
<!-- Language&#45;&gt;Source -->
<g id="edge5" class="edge">
<title>Language&#45;&gt;Source</title>
<path fill="none" stroke="black" d="M177.88,-239.72C188.96,-274.35 214.95,-341.28 259.74,-379.57 271.81,-389.89 287.95,-396.5 302.45,-400.7"/>
<polygon fill="black" stroke="black" points="301.6,-404.09 312.16,-403.23 303.37,-397.32 301.6,-404.09"/>
</g>
<!-- Language&#45;&gt;AlternateValueTranslation -->
<g id="edge1" class="edge">
<title>Language&#45;&gt;AlternateValueTranslation</title>
<path fill="none" stroke="black" d="M184.32,-239.71C199.45,-264.01 226.77,-302.6 259.74,-325.57 261.67,-326.91 263.66,-328.19 265.71,-329.41"/>
<polygon fill="black" stroke="black" points="264.53,-332.75 275,-334.38 267.83,-326.58 264.53,-332.75"/>
</g>
<!-- Language&#45;&gt;PinboardItem -->
<g id="edge2" class="edge">
<title>Language&#45;&gt;PinboardItem</title>
<path fill="none" stroke="black" d="M199.63,-236.97C216.54,-248.07 238.78,-261.7 259.74,-271.57 267.43,-275.19 275.74,-278.58 283.97,-281.64"/>
<polygon fill="black" stroke="black" points="282.97,-285 293.56,-285.09 285.34,-278.41 282.97,-285"/>
</g>
<!-- Language&#45;&gt;Role -->
<g id="edge3" class="edge">
<title>Language&#45;&gt;Role</title>
<path fill="none" stroke="black" d="M223.8,-226.04C249.31,-230.17 279.35,-235.04 302.25,-238.75"/>
<polygon fill="black" stroke="black" points="301.8,-242.22 312.23,-240.36 302.92,-235.31 301.8,-242.22"/>
</g>
<!-- Language&#45;&gt;Serial -->
<g id="edge4" class="edge">
<title>Language&#45;&gt;Serial</title>
<path fill="none" stroke="black" d="M223.8,-209.11C249.31,-204.97 279.35,-200.11 302.25,-196.4"/>
<polygon fill="black" stroke="black" points="302.92,-199.84 312.23,-194.79 301.8,-192.93 302.92,-199.84"/>
</g>
<!-- Language&#45;&gt;VerifierRole -->
<g id="edge6" class="edge">
<title>Language&#45;&gt;VerifierRole</title>
<path fill="none" stroke="black" d="M199.63,-198.18C216.54,-187.08 238.78,-173.45 259.74,-163.57 268.74,-159.34 278.59,-155.42 288.18,-151.96"/>
<polygon fill="black" stroke="black" points="289.35,-155.26 297.64,-148.66 287.05,-148.65 289.35,-155.26"/>
</g>
<!-- Language&#45;&gt;Creator -->
<g id="edge8" class="edge">
<title>Language&#45;&gt;Creator</title>
<path fill="none" stroke="black" stroke-dasharray="5,2" d="M189.72,-186.99C205.49,-162.89 230.37,-130.04 259.74,-109.57 275,-98.95 294.81,-92.17 310.72,-88.07"/>
<polygon fill="black" stroke="black" points="186.76,-185.12 184.32,-195.43 192.65,-188.89 186.76,-185.12"/>
</g>
<!-- Language&#45;&gt;Updater -->
<g id="edge9" class="edge">
<title>Language&#45;&gt;Updater</title>
<path fill="none" stroke="black" stroke-dasharray="5,2" d="M178.45,-185.86C188.8,-147.25 212.35,-83.73 259.74,-55.57 321.37,-18.97 409.36,-48.49 454.52,-68.31"/>
<polygon fill="black" stroke="black" points="175.05,-185.02 175.98,-195.57 181.84,-186.74 175.05,-185.02"/>
</g>
<!-- Role&#45;&gt;Verifier -->
<!-- VerifierRole&#45;&gt;Verifier -->
<g id="edge7" class="edge">
<title>VerifierRole&#45;&gt;Verifier</title>
<path fill="none" stroke="black" d="M380.76,-149.97C393.02,-154.17 406.48,-158.92 418.74,-163.57 427.9,-167.05 437.7,-170.99 446.83,-174.77"/>
<polygon fill="black" stroke="black" points="445.49,-178 456.06,-178.63 448.18,-171.54 445.49,-178"/>
</g>
<!-- Creator&#45;&gt;Updater -->
<!-- Source -->
<g id="node1" class="node">
<title>Source</title>
<g id="a_node1"><a xlink:href="/develop/Data/models.html#source" xlink:title="Source" target="_top">
<path fill="#fedcba" stroke="#dddeee" d="M324.24,-389.57C324.24,-389.57 354.24,-389.57 354.24,-389.57 360.24,-389.57 366.24,-395.57 366.24,-401.57 366.24,-401.57 366.24,-413.57 366.24,-413.57 366.24,-419.57 360.24,-425.57 354.24,-425.57 354.24,-425.57 324.24,-425.57 324.24,-425.57 318.24,-425.57 312.24,-419.57 312.24,-413.57 312.24,-413.57 312.24,-401.57 312.24,-401.57 312.24,-395.57 318.24,-389.57 324.24,-389.57"/>
<text text-anchor="middle" x="339.24" y="-403.87" font-family="Times,serif" font-size="14.00">Source</text>
</a>
</g>
</g>
<!-- Language -->
<g id="node2" class="node">
<title>Language</title>
<g id="a_node2"><a xlink:href="/develop/Data/models.html#language" xlink:title="Language" target="_top">
<polygon fill="#cdefab" stroke="#dedede" points="219.97,-210.12 219.97,-225.03 190.99,-235.57 150.01,-235.57 121.03,-225.03 121.03,-210.12 150.01,-199.57 190.99,-199.57 219.97,-210.12"/>
<polygon fill="none" stroke="#dedede" points="223.99,-207.32 223.99,-227.83 191.7,-239.57 149.3,-239.57 117.01,-227.83 117.01,-207.32 149.3,-195.57 191.7,-195.57 223.99,-207.32"/>
<text text-anchor="middle" x="170.5" y="-213.87" font-family="Times,serif" font-size="14.00">Language</text>
</a>
</g>
</g>
<!-- AlternateValueTranslation -->
<g id="node3" class="node">
<title>AlternateValueTranslation</title>
<g id="a_node3"><a xlink:href="/develop/Data/models.html#alternate-value-translation" xlink:title="AlternateValueTranslation" target="_top">
<polygon fill="#eeefff" stroke="#dddeee" points="418.74,-370.57 259.74,-370.57 259.74,-334.57 418.74,-334.57 418.74,-370.57"/>
<text text-anchor="middle" x="339.24" y="-348.87" font-family="Times,serif" font-size="14.00">AlternateValueTranslation</text>
</a>
</g>
</g>
<!-- PinboardItem -->
<g id="node4" class="node">
<title>PinboardItem</title>
<g id="a_node4"><a xlink:href="/develop/Data/models.html#pinboard-item" xlink:title="PinboardItem" target="_top">
<polygon fill="#eeefff" stroke="#dddeee" points="384.74,-316.57 293.74,-316.57 293.74,-280.57 384.74,-280.57 384.74,-316.57"/>
<text text-anchor="middle" x="339.24" y="-294.87" font-family="Times,serif" font-size="14.00">PinboardItem</text>
</a>
</g>
</g>
<!-- Role -->
<g id="node5" class="node">
<title>Role</title>
<g id="a_node5"><a xlink:href="/develop/Data/models.html#role" xlink:title="Role" target="_top">
<polygon fill="#eeefff" stroke="#dddeee" points="366.24,-262.57 312.24,-262.57 312.24,-226.57 366.24,-226.57 366.24,-262.57"/>
<text text-anchor="middle" x="339.24" y="-240.87" font-family="Times,serif" font-size="14.00">Role</text>
</a>
</g>
</g>
<!-- Serial -->
<g id="node6" class="node">
<title>Serial</title>
<g id="a_node6"><a xlink:href="/develop/Data/models.html#serial" xlink:title="Serial" target="_top">
<polygon fill="#eeefff" stroke="#dddeee" points="366.24,-208.57 312.24,-208.57 312.24,-172.57 366.24,-172.57 366.24,-208.57"/>
<text text-anchor="middle" x="339.24" y="-186.87" font-family="Times,serif" font-size="14.00">Serial</text>
</a>
</g>
</g>
<!-- VerifierRole -->
<g id="node7" class="node">
<title>VerifierRole</title>
<g id="a_node7"><a xlink:href="/develop/Data/models.html#verifier-role" xlink:title="VerifierRole" target="_top">
<polygon fill="#eeefff" stroke="#dddeee" points="380.74,-154.57 297.74,-154.57 297.74,-118.57 380.74,-118.57 380.74,-154.57"/>
<text text-anchor="middle" x="339.24" y="-132.87" font-family="Times,serif" font-size="14.00">VerifierRole</text>
</a>
</g>
</g>
<!-- Verifier -->
<g id="node8" class="node">
<title>Verifier</title>
<g id="a_node8"><a xlink:href="/develop/Data/models.html#verifier" xlink:title="Verifier" target="_top">
<polygon fill="#eeefff" stroke="#dddeee" points="513.24,-208.57 456.24,-208.57 456.24,-172.57 513.24,-172.57 513.24,-208.57"/>
<text text-anchor="middle" x="484.74" y="-186.87" font-family="Times,serif" font-size="14.00">Verifier</text>
</a>
</g>
</g>
<!-- Creator -->
<g id="node9" class="node">
<title>Creator</title>
<g id="a_node9"><a xlink:href="/develop/Data/models.html#creator" xlink:title="Creator" target="_top">
<polygon fill="#eeefff" stroke="#dddeee" points="367.74,-100.57 310.74,-100.57 310.74,-64.57 367.74,-64.57 367.74,-100.57"/>
<text text-anchor="middle" x="339.24" y="-78.87" font-family="Times,serif" font-size="14.00">Creator</text>
</a>
</g>
</g>
<!-- Updater -->
<g id="node10" class="node">
<title>Updater</title>
<g id="a_node10"><a xlink:href="/develop/Data/models.html#updater" xlink:title="Updater" target="_top">
<polygon fill="#eeefff" stroke="#dddeee" points="514.74,-100.57 454.74,-100.57 454.74,-64.57 514.74,-64.57 514.74,-100.57"/>
<text text-anchor="middle" x="484.74" y="-78.87" font-family="Times,serif" font-size="14.00">Updater</text>
</a>
</g>
</g>
</g>
</svg>
