<?xml version="1.0" encoding="UTF-8" standalone="no"?>
<!DOCTYPE svg PUBLIC "-//W3C//DTD SVG 1.1//EN"
 "http://www.w3.org/Graphics/SVG/1.1/DTD/svg11.dtd">
<!-- Generated by graphviz version 2.50.0 (20211204.2007)
 -->
<!-- Title: Language Pages: 1 -->
<svg width="405pt" height="396pt"
 viewBox="0.00 0.00 405.49 396.07" xmlns="http://www.w3.org/2000/svg" xmlns:xlink="http://www.w3.org/1999/xlink">
<g id="graph0" class="graph" transform="scale(1 1) rotate(0) translate(4 392.07)">
<title>Language</title>
<polygon fill="white" stroke="transparent" points="-4,4 -4,-392.07 401.49,-392.07 401.49,4 -4,4"/>
<!-- Language&#45;&gt;Source -->
<g id="edge5" class="edge">
<title>Language&#45;&gt;Source</title>
<path fill="none" stroke="black" d="M60.63,-201.72C71.71,-236.35 97.7,-303.28 142.49,-341.57 154.55,-351.89 170.69,-358.5 185.2,-362.7"/>
<polygon fill="black" stroke="black" points="184.35,-366.09 194.91,-365.23 186.11,-359.32 184.35,-366.09"/>
</g>
<!-- Language&#45;&gt;AlternateValueTranslation -->
<g id="edge1" class="edge">
<title>Language&#45;&gt;AlternateValueTranslation</title>
<path fill="none" stroke="black" d="M67.07,-201.71C82.2,-226.01 109.51,-264.6 142.49,-287.57 144.41,-288.91 146.4,-290.19 148.45,-291.41"/>
<polygon fill="black" stroke="black" points="147.27,-294.75 157.74,-296.38 150.58,-288.58 147.27,-294.75"/>
</g>
<!-- Language&#45;&gt;PinboardItem -->
<g id="edge2" class="edge">
<title>Language&#45;&gt;PinboardItem</title>
<path fill="none" stroke="black" d="M82.37,-198.97C99.28,-210.07 121.53,-223.7 142.49,-233.57 150.17,-237.19 158.48,-240.58 166.72,-243.64"/>
<polygon fill="black" stroke="black" points="165.71,-247 176.31,-247.09 168.08,-240.41 165.71,-247"/>
</g>
<!-- Language&#45;&gt;Role -->
<g id="edge3" class="edge">
<title>Language&#45;&gt;Role</title>
<path fill="none" stroke="black" d="M106.55,-188.04C132.06,-192.17 162.09,-197.04 184.99,-200.75"/>
<polygon fill="black" stroke="black" points="184.54,-204.22 194.97,-202.36 185.66,-197.31 184.54,-204.22"/>
</g>
<!-- Language&#45;&gt;Serial -->
<g id="edge4" class="edge">
<title>Language&#45;&gt;Serial</title>
<path fill="none" stroke="black" d="M106.55,-171.11C132.06,-166.97 162.09,-162.11 184.99,-158.4"/>
<polygon fill="black" stroke="black" points="185.66,-161.84 194.97,-156.79 184.54,-154.93 185.66,-161.84"/>
</g>
<!-- Language&#45;&gt;VerifierRole -->
<g id="edge6" class="edge">
<title>Language&#45;&gt;VerifierRole</title>
<path fill="none" stroke="black" d="M82.37,-160.18C99.28,-149.08 121.53,-135.45 142.49,-125.57 151.49,-121.34 161.33,-117.42 170.92,-113.96"/>
<polygon fill="black" stroke="black" points="172.1,-117.26 180.39,-110.66 169.79,-110.65 172.1,-117.26"/>
</g>
<!-- Language&#45;&gt;Creator -->
<g id="edge8" class="edge">
<title>Language&#45;&gt;Creator</title>
<path fill="none" stroke="black" stroke-dasharray="5,2" d="M72.46,-148.99C88.24,-124.89 113.12,-92.04 142.49,-71.57 157.74,-60.95 177.56,-54.17 193.46,-50.07"/>
<polygon fill="black" stroke="black" points="69.5,-147.12 67.07,-157.43 75.4,-150.89 69.5,-147.12"/>
</g>
<!-- Language&#45;&gt;Updater -->
<g id="edge9" class="edge">
<title>Language&#45;&gt;Updater</title>
<path fill="none" stroke="black" stroke-dasharray="5,2" d="M61.19,-147.86C71.54,-109.25 95.1,-45.73 142.49,-17.57 204.12,19.03 292.1,-10.49 337.27,-30.31"/>
<polygon fill="black" stroke="black" points="57.8,-147.02 58.73,-157.57 64.58,-148.74 57.8,-147.02"/>
</g>
<!-- Role&#45;&gt;Verifier -->
<!-- VerifierRole&#45;&gt;Verifier -->
<g id="edge7" class="edge">
<title>VerifierRole&#45;&gt;Verifier</title>
<path fill="none" stroke="black" stroke-dasharray="1,5" d="M263.5,-111.97C275.76,-116.17 289.23,-120.92 301.49,-125.57 310.65,-129.05 320.44,-132.99 329.58,-136.77"/>
<polygon fill="black" stroke="black" points="328.23,-140 338.81,-140.63 330.93,-133.54 328.23,-140"/>
</g>
<!-- Creator&#45;&gt;Updater -->
<!-- Source -->
<g id="node1" class="node">
<title>Source</title>
<g id="a_node1"><a xlink:href="/develop/Data/models.html#source" xlink:title="Source" target="_top">
<path fill="#fedcba" stroke="#dddeee" d="M206.99,-351.57C206.99,-351.57 236.99,-351.57 236.99,-351.57 242.99,-351.57 248.99,-357.57 248.99,-363.57 248.99,-363.57 248.99,-375.57 248.99,-375.57 248.99,-381.57 242.99,-387.57 236.99,-387.57 236.99,-387.57 206.99,-387.57 206.99,-387.57 200.99,-387.57 194.99,-381.57 194.99,-375.57 194.99,-375.57 194.99,-363.57 194.99,-363.57 194.99,-357.57 200.99,-351.57 206.99,-351.57"/>
<text text-anchor="middle" x="221.99" y="-365.87" font-family="Times,serif" font-size="14.00">Source</text>
</a>
</g>
</g>
<!-- Language -->
<g id="node2" class="node">
<title>Language</title>
<g id="a_node2"><a xlink:href="/develop/Data/models.html#language" xlink:title="Language" target="_top">
<polygon fill="#cdefab" stroke="#dedede" points="102.72,-172.12 102.72,-187.03 73.74,-197.57 32.75,-197.57 3.77,-187.03 3.77,-172.12 32.75,-161.57 73.74,-161.57 102.72,-172.12"/>
<polygon fill="none" stroke="#dedede" points="106.73,-169.32 106.73,-189.83 74.45,-201.57 32.04,-201.57 -0.25,-189.83 -0.25,-169.32 32.04,-157.57 74.45,-157.57 106.73,-169.32"/>
<text text-anchor="middle" x="53.24" y="-175.87" font-family="Times,serif" font-size="14.00">Language</text>
</a>
</g>
</g>
<!-- AlternateValueTranslation -->
<g id="node3" class="node">
<title>AlternateValueTranslation</title>
<g id="a_node3"><a xlink:href="/develop/Data/models.html#alternate-value-translation" xlink:title="AlternateValueTranslation" target="_top">
<polygon fill="#eeefff" stroke="#dddeee" points="301.49,-332.57 142.49,-332.57 142.49,-296.57 301.49,-296.57 301.49,-332.57"/>
<text text-anchor="middle" x="221.99" y="-310.87" font-family="Times,serif" font-size="14.00">AlternateValueTranslation</text>
</a>
</g>
</g>
<!-- PinboardItem -->
<g id="node4" class="node">
<title>PinboardItem</title>
<g id="a_node4"><a xlink:href="/develop/Data/models.html#pinboard-item" xlink:title="PinboardItem" target="_top">
<polygon fill="#eeefff" stroke="#dddeee" points="267.49,-278.57 176.49,-278.57 176.49,-242.57 267.49,-242.57 267.49,-278.57"/>
<text text-anchor="middle" x="221.99" y="-256.87" font-family="Times,serif" font-size="14.00">PinboardItem</text>
</a>
</g>
</g>
<!-- Role -->
<g id="node5" class="node">
<title>Role</title>
<g id="a_node5"><a xlink:href="/develop/Data/models.html#role" xlink:title="Role" target="_top">
<polygon fill="#eeefff" stroke="#dddeee" points="248.99,-224.57 194.99,-224.57 194.99,-188.57 248.99,-188.57 248.99,-224.57"/>
<text text-anchor="middle" x="221.99" y="-202.87" font-family="Times,serif" font-size="14.00">Role</text>
</a>
</g>
</g>
<!-- Serial -->
<g id="node6" class="node">
<title>Serial</title>
<g id="a_node6"><a xlink:href="/develop/Data/models.html#serial" xlink:title="Serial" target="_top">
<polygon fill="#eeefff" stroke="#dddeee" points="248.99,-170.57 194.99,-170.57 194.99,-134.57 248.99,-134.57 248.99,-170.57"/>
<text text-anchor="middle" x="221.99" y="-148.87" font-family="Times,serif" font-size="14.00">Serial</text>
</a>
</g>
</g>
<!-- VerifierRole -->
<g id="node7" class="node">
<title>VerifierRole</title>
<g id="a_node7"><a xlink:href="/develop/Data/models.html#verifier-role" xlink:title="VerifierRole" target="_top">
<polygon fill="#eeefff" stroke="#dddeee" points="263.49,-116.57 180.49,-116.57 180.49,-80.57 263.49,-80.57 263.49,-116.57"/>
<text text-anchor="middle" x="221.99" y="-94.87" font-family="Times,serif" font-size="14.00">VerifierRole</text>
</a>
</g>
</g>
<!-- Verifier -->
<g id="node8" class="node">
<title>Verifier</title>
<g id="a_node8"><a xlink:href="/develop/Data/models.html#verifier" xlink:title="Verifier" target="_top">
<polygon fill="#eeefff" stroke="#dddeee" points="395.99,-170.57 338.99,-170.57 338.99,-134.57 395.99,-134.57 395.99,-170.57"/>
<text text-anchor="middle" x="367.49" y="-148.87" font-family="Times,serif" font-size="14.00">Verifier</text>
</a>
</g>
</g>
<!-- Creator -->
<g id="node9" class="node">
<title>Creator</title>
<g id="a_node9"><a xlink:href="/develop/Data/models.html#creator" xlink:title="Creator" target="_top">
<polygon fill="#eeefff" stroke="#dddeee" points="250.49,-62.57 193.49,-62.57 193.49,-26.57 250.49,-26.57 250.49,-62.57"/>
<text text-anchor="middle" x="221.99" y="-40.87" font-family="Times,serif" font-size="14.00">Creator</text>
</a>
</g>
</g>
<!-- Updater -->
<g id="node10" class="node">
<title>Updater</title>
<g id="a_node10"><a xlink:href="/develop/Data/models.html#updater" xlink:title="Updater" target="_top">
<polygon fill="#eeefff" stroke="#dddeee" points="397.49,-62.57 337.49,-62.57 337.49,-26.57 397.49,-26.57 397.49,-62.57"/>
<text text-anchor="middle" x="367.49" y="-40.87" font-family="Times,serif" font-size="14.00">Updater</text>
</a>
</g>
</g>
</g>
</svg>
