<?xml version="1.0" encoding="UTF-8" standalone="no"?>
<!DOCTYPE svg PUBLIC "-//W3C//DTD SVG 1.1//EN"
 "http://www.w3.org/Graphics/SVG/1.1/DTD/svg11.dtd">
<!-- Generated by graphviz version 2.50.0 (20211204.2007)
 -->
<!-- Title: LoanItem Pages: 1 -->
<svg width="720pt" height="428pt"
 viewBox="0.00 0.00 720.43 428.00" xmlns="http://www.w3.org/2000/svg" xmlns:xlink="http://www.w3.org/1999/xlink">
<g id="graph0" class="graph" transform="scale(1 1) rotate(0) translate(4 424)">
<title>LoanItem</title>
<polygon fill="white" stroke="transparent" points="-4,4 -4,-424 716.43,-424 716.43,4 -4,4"/>
<text text-anchor="middle" x="356.21" y="-22.8" font-family="Times,serif" font-size="14.00">Algorithmically generated relationships for LoanItem based on assertions of &#39;has_many&#39;, &#39;has_one&#39;, &#39;belongs_to&#39;. </text>
<text text-anchor="middle" x="356.21" y="-7.8" font-family="Times,serif" font-size="14.00">Generated 2022&#45;01&#45;25 11:37:59 &#45;0600.</text>
<!-- Tag&#45;&gt;Keyword -->
<g id="edge2" class="edge">
<title>Tag&#45;&gt;Keyword</title>
<path fill="none" stroke="black" d="M86.32,-167.82C107.86,-167.67 138.82,-167.46 163.92,-167.29"/>
<polygon fill="black" stroke="black" points="163.95,-170.79 173.93,-167.22 163.91,-163.79 163.95,-170.79"/>
</g>
<!-- LoanItem&#45;&gt;DataAttribute -->
<g id="edge1" class="edge">
<title>LoanItem&#45;&gt;DataAttribute</title>
<path fill="none" stroke="black" d="M165.88,-239.72C147.75,-246.28 126.27,-254.06 107.43,-260.88"/>
<polygon fill="black" stroke="black" points="106.05,-257.66 97.84,-264.35 108.44,-264.24 106.05,-257.66"/>
</g>
<!-- LoanItem&#45;&gt;Tag -->
<g id="edge6" class="edge">
<title>LoanItem&#45;&gt;Tag</title>
<path fill="none" stroke="black" d="M167.3,-209.73C143.94,-200.63 114.65,-189.22 92.59,-180.63"/>
<polygon fill="black" stroke="black" points="93.61,-177.27 83.02,-176.91 91.07,-183.8 93.61,-177.27"/>
</g>
<!-- LoanItem&#45;&gt;Note -->
<g id="edge3" class="edge">
<title>LoanItem&#45;&gt;Note</title>
<path fill="none" stroke="black" d="M154,-224.64C135.32,-224.51 114.68,-224.37 97.52,-224.26"/>
<polygon fill="black" stroke="black" points="97.36,-220.75 87.34,-224.19 97.31,-227.75 97.36,-220.75"/>
</g>
<!-- LoanItem&#45;&gt;PinboardItem -->
<g id="edge4" class="edge">
<title>LoanItem&#45;&gt;PinboardItem</title>
<path fill="none" stroke="black" d="M215.31,-247.15C226.63,-280.26 252.59,-342.27 296.78,-375 313.32,-387.25 334.64,-394.02 354.26,-397.73"/>
<polygon fill="black" stroke="black" points="353.89,-401.21 364.33,-399.4 355.04,-394.31 353.89,-401.21"/>
</g>
<!-- LoanItem&#45;&gt;Role -->
<g id="edge5" class="edge">
<title>LoanItem&#45;&gt;Role</title>
<path fill="none" stroke="black" d="M222.99,-247.21C238.56,-269.32 265.36,-302.52 296.78,-321 320.02,-334.67 349.82,-341.43 372.88,-344.76"/>
<polygon fill="black" stroke="black" points="372.59,-348.25 382.96,-346.07 373.49,-341.31 372.59,-348.25"/>
</g>
<!-- LoanItem&#45;&gt;VerifierRole -->
<g id="edge7" class="edge">
<title>LoanItem&#45;&gt;VerifierRole</title>
<path fill="none" stroke="black" d="M244.65,-241.29C260.48,-248.13 279.38,-255.9 296.78,-262 316.74,-269 339.08,-275.61 358.55,-280.98"/>
<polygon fill="black" stroke="black" points="357.88,-284.43 368.45,-283.68 359.72,-277.67 357.88,-284.43"/>
</g>
<!-- LoanItem&#45;&gt;Creator -->
<g id="edge9" class="edge">
<title>LoanItem&#45;&gt;Creator</title>
<path fill="none" stroke="black" stroke-dasharray="5,2" d="M264.46,-240.15C330.09,-254.79 440.48,-269.37 523.43,-229 550.1,-216.02 568.88,-185.81 578.79,-166.18"/>
<polygon fill="black" stroke="black" points="264.85,-236.65 254.32,-237.81 263.27,-243.47 264.85,-236.65"/>
</g>
<!-- LoanItem&#45;&gt;Loan -->
<g id="edge10" class="edge">
<title>LoanItem&#45;&gt;Loan</title>
<path fill="none" stroke="black" stroke-dasharray="5,2" d="M271.34,-217.8C308.98,-213.48 354.84,-208.22 383,-204.99"/>
<polygon fill="black" stroke="black" points="270.51,-214.37 260.97,-218.99 271.3,-221.32 270.51,-214.37"/>
</g>
<!-- LoanItem&#45;&gt;Project -->
<g id="edge12" class="edge">
<title>LoanItem&#45;&gt;Project</title>
<path fill="none" stroke="black" stroke-dasharray="5,2" d="M248.42,-201.73C269.26,-189.69 291.51,-177.08 296.78,-175 325.14,-163.81 359.42,-156.39 382.59,-152.21"/>
<polygon fill="black" stroke="black" points="246.53,-198.78 239.63,-206.82 250.04,-204.83 246.53,-198.78"/>
</g>
<!-- LoanItem&#45;&gt;Updater -->
<g id="edge13" class="edge">
<title>LoanItem&#45;&gt;Updater</title>
<path fill="none" stroke="black" stroke-dasharray="5,2" d="M251.67,-202.3C254.95,-199.73 258.04,-196.96 260.78,-194 285.35,-167.45 266.06,-140.1 296.78,-121 357.1,-83.49 546.77,-107.11 616.43,-121 628.53,-123.41 641.2,-128.13 652.11,-132.95"/>
<polygon fill="black" stroke="black" points="249.39,-199.63 243.25,-208.27 253.44,-205.34 249.39,-199.63"/>
</g>
<!-- LoanItem&#45;&gt;Objects with Loan items -->
<g id="edge11" class="edge">
<title>LoanItem&#45;&gt;Objects with Loan items</title>
<path fill="none" stroke="black" stroke-dasharray="5,2" d="M252.64,-202.23C255.62,-199.7 258.38,-196.96 260.78,-194 292.12,-155.35 260.73,-122.29 296.78,-88 306.62,-78.64 319.01,-71.98 331.93,-67.26"/>
<polygon fill="black" stroke="black" points="250.28,-199.62 244.37,-208.41 254.47,-205.23 250.28,-199.62"/>
</g>
<!-- Role&#45;&gt;Verifier -->
<!-- VerifierRole&#45;&gt;Verifier -->
<g id="edge8" class="edge">
<title>VerifierRole&#45;&gt;Verifier</title>
<path fill="none" stroke="black" d="M451.88,-300.26C481.25,-304.77 520.57,-310.81 549.21,-315.21"/>
<polygon fill="black" stroke="black" points="548.82,-318.69 559.24,-316.75 549.88,-311.77 548.82,-318.69"/>
</g>
<!-- Creator&#45;&gt;Updater -->
<!-- Project&#45;&gt;Creator -->
<!-- DataAttribute -->
<g id="node1" class="node">
<title>DataAttribute</title>
<g id="a_node1"><a xlink:href="/develop/Data/models.html#data-attribute" xlink:title="DataAttribute" target="_top">
<ellipse fill="#abcdef" stroke="#dddeee" cx="59.14" cy="-278" rx="59.29" ry="18"/>
<text text-anchor="middle" x="59.14" y="-274.3" font-family="Times,serif" font-size="14.00">DataAttribute</text>
</a>
</g>
</g>
<!-- Tag -->
<g id="node2" class="node">
<title>Tag</title>
<g id="a_node2"><a xlink:href="/develop/Data/models.html#tag" xlink:title="Tag" target="_top">
<ellipse fill="#abcdef" stroke="#dddeee" cx="59.14" cy="-168" rx="27" ry="18"/>
<text text-anchor="middle" x="59.14" y="-164.3" font-family="Times,serif" font-size="14.00">Tag</text>
</a>
</g>
</g>
<!-- Note -->
<g id="node3" class="node">
<title>Note</title>
<g id="a_node3"><a xlink:href="/develop/Data/models.html#note" xlink:title="Note" target="_top">
<ellipse fill="#abcdef" stroke="#dddeee" cx="59.14" cy="-224" rx="27.9" ry="18"/>
<text text-anchor="middle" x="59.14" y="-220.3" font-family="Times,serif" font-size="14.00">Note</text>
</a>
</g>
</g>
<!-- LoanItem -->
<g id="node4" class="node">
<title>LoanItem</title>
<g id="a_node4"><a xlink:href="/develop/Data/models.html#loan-item" xlink:title="LoanItem" target="_top">
<polygon fill="#cdefab" stroke="#dedede" points="257.01,-217.54 257.01,-232.46 228.03,-243 187.04,-243 158.06,-232.46 158.06,-217.54 187.04,-207 228.03,-207 257.01,-217.54"/>
<polygon fill="none" stroke="#dedede" points="261.02,-214.75 261.02,-235.25 228.74,-247 186.33,-247 154.04,-235.25 154.04,-214.75 186.33,-203 228.74,-203 261.02,-214.75"/>
<text text-anchor="middle" x="207.53" y="-221.3" font-family="Times,serif" font-size="14.00">LoanItem</text>
</a>
</g>
</g>
<!-- Keyword -->
<g id="node5" class="node">
<title>Keyword</title>
<g id="a_node5"><a xlink:href="/develop/Data/models.html#keyword" xlink:title="Keyword" target="_top">
<polygon fill="#eeefff" stroke="#dddeee" points="241.03,-185 174.03,-185 174.03,-149 241.03,-149 241.03,-185"/>
<text text-anchor="middle" x="207.53" y="-163.3" font-family="Times,serif" font-size="14.00">Keyword</text>
</a>
</g>
</g>
<!-- PinboardItem -->
<g id="node6" class="node">
<title>PinboardItem</title>
<g id="a_node6"><a xlink:href="/develop/Data/models.html#pinboard-item" xlink:title="PinboardItem" target="_top">
<polygon fill="#eeefff" stroke="#dddeee" points="455.6,-420 364.6,-420 364.6,-384 455.6,-384 455.6,-420"/>
<text text-anchor="middle" x="410.1" y="-398.3" font-family="Times,serif" font-size="14.00">PinboardItem</text>
</a>
</g>
</g>
<!-- Role -->
<g id="node7" class="node">
<title>Role</title>
<g id="a_node7"><a xlink:href="/develop/Data/models.html#role" xlink:title="Role" target="_top">
<polygon fill="#eeefff" stroke="#dddeee" points="437.1,-366 383.1,-366 383.1,-330 437.1,-330 437.1,-366"/>
<text text-anchor="middle" x="410.1" y="-344.3" font-family="Times,serif" font-size="14.00">Role</text>
</a>
</g>
</g>
<!-- VerifierRole -->
<g id="node8" class="node">
<title>VerifierRole</title>
<g id="a_node8"><a xlink:href="/develop/Data/models.html#verifier-role" xlink:title="VerifierRole" target="_top">
<polygon fill="#eeefff" stroke="#dddeee" points="451.6,-312 368.6,-312 368.6,-276 451.6,-276 451.6,-312"/>
<text text-anchor="middle" x="410.1" y="-290.3" font-family="Times,serif" font-size="14.00">VerifierRole</text>
</a>
</g>
</g>
<!-- Verifier -->
<g id="node9" class="node">
<title>Verifier</title>
<g id="a_node9"><a xlink:href="/develop/Data/models.html#verifier" xlink:title="Verifier" target="_top">
<polygon fill="#eeefff" stroke="#dddeee" points="616.43,-339 559.43,-339 559.43,-303 616.43,-303 616.43,-339"/>
<text text-anchor="middle" x="587.93" y="-317.3" font-family="Times,serif" font-size="14.00">Verifier</text>
</a>
</g>
</g>
<!-- Creator -->
<g id="node10" class="node">
<title>Creator</title>
<g id="a_node10"><a xlink:href="/develop/Data/models.html#creator" xlink:title="Creator" target="_top">
<polygon fill="#eeefff" stroke="#dddeee" points="616.43,-166 559.43,-166 559.43,-130 616.43,-130 616.43,-166"/>
<text text-anchor="middle" x="587.93" y="-144.3" font-family="Times,serif" font-size="14.00">Creator</text>
</a>
</g>
</g>
<!-- Loan -->
<g id="node11" class="node">
<title>Loan</title>
<g id="a_node11"><a xlink:href="/develop/Data/models.html#loan" xlink:title="Loan" target="_top">
<polygon fill="#eeefff" stroke="#dddeee" points="437.1,-220 383.1,-220 383.1,-184 437.1,-184 437.1,-220"/>
<text text-anchor="middle" x="410.1" y="-198.3" font-family="Times,serif" font-size="14.00">Loan</text>
</a>
</g>
</g>
<!-- Project -->
<g id="node12" class="node">
<title>Project</title>
<g id="a_node12"><a xlink:href="/develop/Data/models.html#project" xlink:title="Project" target="_top">
<polygon fill="#eeefff" stroke="#dddeee" points="437.6,-166 382.6,-166 382.6,-130 437.6,-130 437.6,-166"/>
<text text-anchor="middle" x="410.1" y="-144.3" font-family="Times,serif" font-size="14.00">Project</text>
</a>
</g>
</g>
<!-- Updater -->
<g id="node13" class="node">
<title>Updater</title>
<g id="a_node13"><a xlink:href="/develop/Data/models.html#updater" xlink:title="Updater" target="_top">
<polygon fill="#eeefff" stroke="#dddeee" points="712.43,-166 652.43,-166 652.43,-130 712.43,-130 712.43,-166"/>
<text text-anchor="middle" x="682.43" y="-144.3" font-family="Times,serif" font-size="14.00">Updater</text>
</a>
</g>
</g>
<!-- Objects with Loan items -->
<g id="node14" class="node">
<title>Objects with Loan items</title>
<g id="a_node14"><a xlink:href="/develop/Data/models.html#objects with loan item" xlink:title="Objects with Loan items" target="_top">
<polygon fill="#cdabef" stroke="#dedede" points="523.25,-56 466.68,-74 353.53,-74 296.95,-56 353.53,-38 466.68,-38 523.25,-56"/>
<text text-anchor="middle" x="410.1" y="-52.3" font-family="Times,serif" font-size="14.00">Objects with Loan items</text>
</a>
</g>
</g>
</g>
</svg>
