<?xml version="1.0" encoding="UTF-8" standalone="no"?>
<!DOCTYPE svg PUBLIC "-//W3C//DTD SVG 1.1//EN"
 "http://www.w3.org/Graphics/SVG/1.1/DTD/svg11.dtd">
<!-- Generated by graphviz version 2.50.0 (20211204.2007)
 -->
<!-- Title: Namespace Pages: 1 -->
<svg width="649pt" height="280pt"
 viewBox="0.00 0.00 649.00 280.50" xmlns="http://www.w3.org/2000/svg" xmlns:xlink="http://www.w3.org/1999/xlink">
<g id="graph0" class="graph" transform="scale(1 1) rotate(0) translate(4 276.5)">
<title>Namespace</title>
<polygon fill="white" stroke="transparent" points="-4,4 -4,-276.5 645,-276.5 645,4 -4,4"/>
<text text-anchor="middle" x="320.5" y="-22.8" font-family="Times,serif" font-size="14.00">Algorithmically generated relationships for Namespace based on assertions of &#39;has_many&#39;, &#39;has_one&#39;, &#39;belongs_to&#39;. </text>
<text text-anchor="middle" x="320.5" y="-7.8" font-family="Times,serif" font-size="14.00">Generated 2022&#45;01&#45;25 11:38:00 &#45;0600.</text>
<!-- Namespace&#45;&gt;Identifier -->
<g id="edge1" class="edge">
<title>Namespace&#45;&gt;Identifier</title>
<path fill="none" stroke="black" d="M198.33,-155.37C189.67,-155.37 180.8,-155.37 172.29,-155.37"/>
<polygon fill="black" stroke="black" points="172.12,-151.87 162.12,-155.37 172.12,-158.87 172.12,-151.87"/>
</g>
<!-- Namespace&#45;&gt;PinboardItem -->
<g id="edge2" class="edge">
<title>Namespace&#45;&gt;PinboardItem</title>
<path fill="none" stroke="black" d="M271.31,-177.83C286.63,-204 315.93,-245.89 354.68,-263.37 391.43,-279.96 436.95,-270.29 470.62,-258.14"/>
<polygon fill="black" stroke="black" points="472.12,-261.32 480.22,-254.5 469.63,-254.77 472.12,-261.32"/>
</g>
<!-- Namespace&#45;&gt;Role -->
<g id="edge3" class="edge">
<title>Namespace&#45;&gt;Role</title>
<path fill="none" stroke="black" d="M316.19,-166.67C330.64,-169.54 345.78,-172.55 358.89,-175.16"/>
<polygon fill="black" stroke="black" points="358.43,-178.64 368.93,-177.15 359.8,-171.77 358.43,-178.64"/>
</g>
<!-- Namespace&#45;&gt;VerifierRole -->
<g id="edge4" class="edge">
<title>Namespace&#45;&gt;VerifierRole</title>
<path fill="none" stroke="black" d="M316.19,-144.08C325.48,-142.23 335.06,-140.33 344.2,-138.51"/>
<polygon fill="black" stroke="black" points="345.17,-141.89 354.3,-136.5 343.81,-135.02 345.17,-141.89"/>
</g>
<!-- Namespace&#45;&gt;Version -->
<g id="edge6" class="edge">
<title>Namespace&#45;&gt;Version</title>
<path fill="none" stroke="black" d="M291.57,-174.57C311.61,-186.52 337.45,-201.94 358.31,-214.38"/>
<polygon fill="black" stroke="black" points="356.53,-217.4 366.91,-219.51 360.12,-211.38 356.53,-217.4"/>
</g>
<!-- Namespace&#45;&gt;Creator -->
<g id="edge7" class="edge">
<title>Namespace&#45;&gt;Creator</title>
<path fill="none" stroke="black" stroke-dasharray="5,2" d="M300.26,-131C321.95,-118.06 348.03,-102.5 367.36,-90.97"/>
<polygon fill="black" stroke="black" points="298.37,-128.05 291.57,-136.18 301.96,-134.06 298.37,-128.05"/>
</g>
<!-- Namespace&#45;&gt;Updater -->
<g id="edge8" class="edge">
<title>Namespace&#45;&gt;Updater</title>
<path fill="none" stroke="black" stroke-dasharray="5,2" d="M276.62,-124.16C292.91,-98.18 320.02,-63.01 354.68,-47.37 398.73,-27.49 455.38,-45.33 489.12,-59.95"/>
<polygon fill="black" stroke="black" points="273.5,-122.55 271.31,-132.92 279.49,-126.18 273.5,-122.55"/>
</g>
<!-- Role&#45;&gt;Verifier -->
<!-- VerifierRole&#45;&gt;Verifier -->
<g id="edge5" class="edge">
<title>VerifierRole&#45;&gt;Verifier</title>
<path fill="none" stroke="black" d="M437.8,-137.44C451.59,-140.52 466.93,-143.94 480.48,-146.96"/>
<polygon fill="black" stroke="black" points="479.91,-150.42 490.43,-149.18 481.43,-143.59 479.91,-150.42"/>
</g>
<!-- Version&#45;&gt;PinboardItem -->
<!-- Creator&#45;&gt;Updater -->
<!-- Identifier -->
<g id="node1" class="node">
<title>Identifier</title>
<g id="a_node1"><a xlink:href="/develop/Data/models.html#identifier" xlink:title="Identifier" target="_top">
<ellipse fill="#abcdef" stroke="#dddeee" cx="119.22" cy="-155.37" rx="42.79" ry="18"/>
<text text-anchor="middle" x="119.22" y="-151.67" font-family="Times,serif" font-size="14.00">Identifier</text>
</a>
</g>
</g>
<!-- Namespace -->
<g id="node2" class="node">
<title>Namespace</title>
<g id="a_node2"><a xlink:href="/develop/Data/models.html#namespace" xlink:title="Namespace" target="_top">
<polygon fill="#cdefab" stroke="#dedede" points="314.47,-147.92 314.47,-162.83 281.62,-173.37 235.17,-173.37 202.32,-162.83 202.32,-147.92 235.17,-137.37 281.62,-137.37 314.47,-147.92"/>
<polygon fill="none" stroke="#dedede" points="318.46,-145 318.46,-165.75 282.24,-177.37 234.55,-177.37 198.34,-165.75 198.34,-145 234.55,-133.37 282.24,-133.37 318.46,-145"/>
<text text-anchor="middle" x="258.4" y="-151.67" font-family="Times,serif" font-size="14.00">Namespace</text>
</a>
</g>
</g>
<!-- PinboardItem -->
<g id="node3" class="node">
<title>PinboardItem</title>
<g id="a_node3"><a xlink:href="/develop/Data/models.html#pinboard-item" xlink:title="PinboardItem" target="_top">
<polygon fill="#eeefff" stroke="#dddeee" points="564.68,-254.37 473.68,-254.37 473.68,-218.37 564.68,-218.37 564.68,-254.37"/>
<text text-anchor="middle" x="519.18" y="-232.67" font-family="Times,serif" font-size="14.00">PinboardItem</text>
</a>
</g>
</g>
<!-- Role -->
<g id="node4" class="node">
<title>Role</title>
<g id="a_node4"><a xlink:href="/develop/Data/models.html#role" xlink:title="Role" target="_top">
<polygon fill="#eeefff" stroke="#dddeee" points="423.18,-200.37 369.18,-200.37 369.18,-164.37 423.18,-164.37 423.18,-200.37"/>
<text text-anchor="middle" x="396.18" y="-178.67" font-family="Times,serif" font-size="14.00">Role</text>
</a>
</g>
</g>
<!-- VerifierRole -->
<g id="node5" class="node">
<title>VerifierRole</title>
<g id="a_node5"><a xlink:href="/develop/Data/models.html#verifier-role" xlink:title="VerifierRole" target="_top">
<polygon fill="#eeefff" stroke="#dddeee" points="437.68,-146.37 354.68,-146.37 354.68,-110.37 437.68,-110.37 437.68,-146.37"/>
<text text-anchor="middle" x="396.18" y="-124.67" font-family="Times,serif" font-size="14.00">VerifierRole</text>
</a>
</g>
</g>
<!-- Verifier -->
<g id="node6" class="node">
<title>Verifier</title>
<g id="a_node6"><a xlink:href="/develop/Data/models.html#verifier" xlink:title="Verifier" target="_top">
<polygon fill="#eeefff" stroke="#dddeee" points="547.68,-173.37 490.68,-173.37 490.68,-137.37 547.68,-137.37 547.68,-173.37"/>
<text text-anchor="middle" x="519.18" y="-151.67" font-family="Times,serif" font-size="14.00">Verifier</text>
</a>
</g>
</g>
<!-- Version -->
<g id="node7" class="node">
<title>Version</title>
<g id="a_node7"><a xlink:href="/develop/Data/models.html#version" xlink:title="Version" target="_top">
<polygon fill="#eeefff" stroke="#dddeee" points="425.18,-254.37 367.18,-254.37 367.18,-218.37 425.18,-218.37 425.18,-254.37"/>
<text text-anchor="middle" x="396.18" y="-232.67" font-family="Times,serif" font-size="14.00">Version</text>
</a>
</g>
</g>
<!-- Creator -->
<g id="node8" class="node">
<title>Creator</title>
<g id="a_node8"><a xlink:href="/develop/Data/models.html#creator" xlink:title="Creator" target="_top">
<polygon fill="#eeefff" stroke="#dddeee" points="424.68,-92.37 367.68,-92.37 367.68,-56.37 424.68,-56.37 424.68,-92.37"/>
<text text-anchor="middle" x="396.18" y="-70.67" font-family="Times,serif" font-size="14.00">Creator</text>
</a>
</g>
</g>
<!-- Updater -->
<g id="node9" class="node">
<title>Updater</title>
<g id="a_node9"><a xlink:href="/develop/Data/models.html#updater" xlink:title="Updater" target="_top">
<polygon fill="#eeefff" stroke="#dddeee" points="549.18,-92.37 489.18,-92.37 489.18,-56.37 549.18,-56.37 549.18,-92.37"/>
<text text-anchor="middle" x="519.18" y="-70.67" font-family="Times,serif" font-size="14.00">Updater</text>
</a>
</g>
</g>
</g>
</svg>
