<?xml version="1.0" encoding="UTF-8" standalone="no"?>
<!DOCTYPE svg PUBLIC "-//W3C//DTD SVG 1.1//EN"
 "http://www.w3.org/Graphics/SVG/1.1/DTD/svg11.dtd">
<!-- Generated by graphviz version 2.50.0 (20211204.2007)
 -->
<!-- Title: Namespace Pages: 1 -->
<svg width="496pt" height="242pt"
 viewBox="0.00 0.00 496.35 242.50" xmlns="http://www.w3.org/2000/svg" xmlns:xlink="http://www.w3.org/1999/xlink">
<g id="graph0" class="graph" transform="scale(1 1) rotate(0) translate(4 238.5)">
<title>Namespace</title>
<polygon fill="white" stroke="transparent" points="-4,4 -4,-238.5 492.35,-238.5 492.35,4 -4,4"/>
<!-- Namespace&#45;&gt;Identifier -->
<g id="edge1" class="edge">
<title>Namespace&#45;&gt;Identifier</title>
<path fill="none" stroke="black" d="M122,-117.37C113.34,-117.37 104.47,-117.37 95.96,-117.37"/>
<polygon fill="black" stroke="black" points="95.8,-113.87 85.8,-117.37 95.8,-120.87 95.8,-113.87"/>
</g>
<!-- Namespace&#45;&gt;PinboardItem -->
<g id="edge2" class="edge">
<title>Namespace&#45;&gt;PinboardItem</title>
<path fill="none" stroke="black" d="M194.99,-139.83C210.3,-166 239.61,-207.89 278.35,-225.37 315.11,-241.96 360.63,-232.29 394.3,-220.14"/>
<polygon fill="black" stroke="black" points="395.79,-223.32 403.9,-216.5 393.31,-216.77 395.79,-223.32"/>
</g>
<!-- Namespace&#45;&gt;Role -->
<g id="edge3" class="edge">
<title>Namespace&#45;&gt;Role</title>
<path fill="none" stroke="black" d="M239.87,-128.67C254.32,-131.54 269.46,-134.55 282.57,-137.16"/>
<polygon fill="black" stroke="black" points="282.11,-140.64 292.6,-139.15 283.48,-133.77 282.11,-140.64"/>
</g>
<!-- Namespace&#45;&gt;VerifierRole -->
<g id="edge4" class="edge">
<title>Namespace&#45;&gt;VerifierRole</title>
<path fill="none" stroke="black" d="M239.87,-106.08C249.16,-104.23 258.74,-102.33 267.88,-100.51"/>
<polygon fill="black" stroke="black" points="268.85,-103.89 277.97,-98.5 267.48,-97.02 268.85,-103.89"/>
</g>
<!-- Namespace&#45;&gt;Version -->
<g id="edge6" class="edge">
<title>Namespace&#45;&gt;Version</title>
<path fill="none" stroke="black" d="M215.25,-136.57C235.29,-148.52 261.12,-163.94 281.98,-176.38"/>
<polygon fill="black" stroke="black" points="280.21,-179.4 290.59,-181.51 283.79,-173.38 280.21,-179.4"/>
</g>
<!-- Namespace&#45;&gt;Creator -->
<g id="edge7" class="edge">
<title>Namespace&#45;&gt;Creator</title>
<path fill="none" stroke="black" stroke-dasharray="5,2" d="M223.93,-93C245.62,-80.06 271.71,-64.5 291.04,-52.97"/>
<polygon fill="black" stroke="black" points="222.04,-90.05 215.25,-98.18 225.63,-96.06 222.04,-90.05"/>
</g>
<!-- Namespace&#45;&gt;Updater -->
<g id="edge8" class="edge">
<title>Namespace&#45;&gt;Updater</title>
<path fill="none" stroke="black" stroke-dasharray="5,2" d="M200.3,-86.16C216.59,-60.18 243.69,-25.01 278.35,-9.37 322.41,10.51 379.05,-7.33 412.79,-21.95"/>
<polygon fill="black" stroke="black" points="197.18,-84.55 194.99,-94.92 203.16,-88.18 197.18,-84.55"/>
</g>
<!-- Role&#45;&gt;Verifier -->
<!-- VerifierRole&#45;&gt;Verifier -->
<g id="edge5" class="edge">
<title>VerifierRole&#45;&gt;Verifier</title>
<path fill="none" stroke="black" d="M361.48,-99.44C375.27,-102.52 390.6,-105.94 404.15,-108.96"/>
<polygon fill="black" stroke="black" points="403.59,-112.42 414.11,-111.18 405.11,-105.59 403.59,-112.42"/>
</g>
<!-- Version&#45;&gt;PinboardItem -->
<!-- Creator&#45;&gt;Updater -->
<!-- Identifier -->
<g id="node1" class="node">
<title>Identifier</title>
<g id="a_node1"><a xlink:href="/develop/Data/models.html#identifier" xlink:title="Identifier" target="_top">
<ellipse fill="#abcdef" stroke="#dddeee" cx="42.9" cy="-117.37" rx="42.79" ry="18"/>
<text text-anchor="middle" x="42.9" y="-113.67" font-family="Times,serif" font-size="14.00">Identifier</text>
</a>
</g>
</g>
<!-- Namespace -->
<g id="node2" class="node">
<title>Namespace</title>
<g id="a_node2"><a xlink:href="/develop/Data/models.html#namespace" xlink:title="Namespace" target="_top">
<polygon fill="#cdefab" stroke="#dedede" points="238.15,-109.92 238.15,-124.83 205.3,-135.37 158.85,-135.37 126,-124.83 126,-109.92 158.85,-99.37 205.3,-99.37 238.15,-109.92"/>
<polygon fill="none" stroke="#dedede" points="242.13,-107 242.13,-127.75 205.92,-139.37 158.22,-139.37 122.01,-127.75 122.01,-107 158.22,-95.37 205.92,-95.37 242.13,-107"/>
<text text-anchor="middle" x="182.07" y="-113.67" font-family="Times,serif" font-size="14.00">Namespace</text>
</a>
</g>
</g>
<!-- PinboardItem -->
<g id="node3" class="node">
<title>PinboardItem</title>
<g id="a_node3"><a xlink:href="/develop/Data/models.html#pinboard-item" xlink:title="PinboardItem" target="_top">
<polygon fill="#eeefff" stroke="#dddeee" points="488.35,-216.37 397.35,-216.37 397.35,-180.37 488.35,-180.37 488.35,-216.37"/>
<text text-anchor="middle" x="442.85" y="-194.67" font-family="Times,serif" font-size="14.00">PinboardItem</text>
</a>
</g>
</g>
<!-- Role -->
<g id="node4" class="node">
<title>Role</title>
<g id="a_node4"><a xlink:href="/develop/Data/models.html#role" xlink:title="Role" target="_top">
<polygon fill="#eeefff" stroke="#dddeee" points="346.85,-162.37 292.85,-162.37 292.85,-126.37 346.85,-126.37 346.85,-162.37"/>
<text text-anchor="middle" x="319.85" y="-140.67" font-family="Times,serif" font-size="14.00">Role</text>
</a>
</g>
</g>
<!-- VerifierRole -->
<g id="node5" class="node">
<title>VerifierRole</title>
<g id="a_node5"><a xlink:href="/develop/Data/models.html#verifier-role" xlink:title="VerifierRole" target="_top">
<polygon fill="#eeefff" stroke="#dddeee" points="361.35,-108.37 278.35,-108.37 278.35,-72.37 361.35,-72.37 361.35,-108.37"/>
<text text-anchor="middle" x="319.85" y="-86.67" font-family="Times,serif" font-size="14.00">VerifierRole</text>
</a>
</g>
</g>
<!-- Verifier -->
<g id="node6" class="node">
<title>Verifier</title>
<g id="a_node6"><a xlink:href="/develop/Data/models.html#verifier" xlink:title="Verifier" target="_top">
<polygon fill="#eeefff" stroke="#dddeee" points="471.35,-135.37 414.35,-135.37 414.35,-99.37 471.35,-99.37 471.35,-135.37"/>
<text text-anchor="middle" x="442.85" y="-113.67" font-family="Times,serif" font-size="14.00">Verifier</text>
</a>
</g>
</g>
<!-- Version -->
<g id="node7" class="node">
<title>Version</title>
<g id="a_node7"><a xlink:href="/develop/Data/models.html#version" xlink:title="Version" target="_top">
<polygon fill="#eeefff" stroke="#dddeee" points="348.85,-216.37 290.85,-216.37 290.85,-180.37 348.85,-180.37 348.85,-216.37"/>
<text text-anchor="middle" x="319.85" y="-194.67" font-family="Times,serif" font-size="14.00">Version</text>
</a>
</g>
</g>
<!-- Creator -->
<g id="node8" class="node">
<title>Creator</title>
<g id="a_node8"><a xlink:href="/develop/Data/models.html#creator" xlink:title="Creator" target="_top">
<polygon fill="#eeefff" stroke="#dddeee" points="348.35,-54.37 291.35,-54.37 291.35,-18.37 348.35,-18.37 348.35,-54.37"/>
<text text-anchor="middle" x="319.85" y="-32.67" font-family="Times,serif" font-size="14.00">Creator</text>
</a>
</g>
</g>
<!-- Updater -->
<g id="node9" class="node">
<title>Updater</title>
<g id="a_node9"><a xlink:href="/develop/Data/models.html#updater" xlink:title="Updater" target="_top">
<polygon fill="#eeefff" stroke="#dddeee" points="472.85,-54.37 412.85,-54.37 412.85,-18.37 472.85,-18.37 472.85,-54.37"/>
<text text-anchor="middle" x="442.85" y="-32.67" font-family="Times,serif" font-size="14.00">Updater</text>
</a>
</g>
</g>
</g>
</svg>
