<?xml version="1.0" encoding="UTF-8" standalone="no"?>
<!DOCTYPE svg PUBLIC "-//W3C//DTD SVG 1.1//EN"
 "http://www.w3.org/Graphics/SVG/1.1/DTD/svg11.dtd">
<!-- Generated by graphviz version 2.50.0 (20211204.2007)
 -->
<!-- Title: Note Pages: 1 -->
<svg width="613pt" height="428pt"
 viewBox="0.00 0.00 613.00 428.00" xmlns="http://www.w3.org/2000/svg" xmlns:xlink="http://www.w3.org/1999/xlink">
<g id="graph0" class="graph" transform="scale(1 1) rotate(0) translate(4 424)">
<title>Note</title>
<polygon fill="white" stroke="transparent" points="-4,4 -4,-424 609,-424 609,4 -4,4"/>
<text text-anchor="middle" x="302.5" y="-22.8" font-family="Times,serif" font-size="14.00">Algorithmically generated relationships for Note based on assertions of &#39;has_many&#39;, &#39;has_one&#39;, &#39;belongs_to&#39;. </text>
<text text-anchor="middle" x="302.5" y="-7.8" font-family="Times,serif" font-size="14.00">Generated 2022&#45;01&#45;25 11:42:27 &#45;0600.</text>
<!-- Note&#45;&gt;Tag -->
<g id="edge4" class="edge">
<title>Note&#45;&gt;Tag</title>
<path fill="none" stroke="black" d="M99.19,-202.77C99.19,-185.65 99.19,-168.53 99.19,-151.41"/>
<polygon fill="black" stroke="black" points="102.69,-151.33 99.19,-141.33 95.69,-151.33 102.69,-151.33"/>
</g>
<!-- Note&#45;&gt;PinboardItem -->
<g id="edge2" class="edge">
<title>Note&#45;&gt;PinboardItem</title>
<path fill="none" stroke="black" d="M104.39,-247.04C111.76,-279.73 130.14,-340.86 169.44,-375 179.43,-383.68 192.13,-389.57 204.81,-393.56"/>
<polygon fill="black" stroke="black" points="203.89,-396.94 214.46,-396.27 205.78,-390.2 203.89,-396.94"/>
</g>
<!-- Note&#45;&gt;Role -->
<g id="edge3" class="edge">
<title>Note&#45;&gt;Role</title>
<path fill="none" stroke="black" d="M110.8,-247.33C122.3,-269.19 142.66,-301.92 169.44,-321 185.18,-332.21 205.63,-338.83 223.04,-342.71"/>
<polygon fill="black" stroke="black" points="222.39,-346.15 232.89,-344.69 223.77,-339.28 222.39,-346.15"/>
</g>
<!-- Note&#45;&gt;VerifierRole -->
<g id="edge5" class="edge">
<title>Note&#45;&gt;VerifierRole</title>
<path fill="none" stroke="black" d="M125.39,-239.63C138.33,-246.84 154.48,-255.38 169.44,-262 181.99,-267.55 195.82,-272.86 208.8,-277.5"/>
<polygon fill="black" stroke="black" points="207.92,-280.91 218.51,-280.92 210.24,-274.3 207.92,-280.91"/>
</g>
<!-- Note&#45;&gt;Creator -->
<g id="edge7" class="edge">
<title>Note&#45;&gt;Creator</title>
<path fill="none" stroke="black" stroke-dasharray="5,2" d="M143.7,-231.32C194.15,-237.35 279.53,-243.58 351.06,-229 363.27,-226.51 376.04,-221.59 386.9,-216.62"/>
<polygon fill="black" stroke="black" points="143.84,-227.81 133.48,-230.04 142.97,-234.75 143.84,-227.81"/>
</g>
<!-- Note&#45;&gt;Project -->
<g id="edge9" class="edge">
<title>Note&#45;&gt;Project</title>
<path fill="none" stroke="black" stroke-dasharray="5,2" d="M143.62,-218.72C172.04,-214.61 208.27,-209.37 232.53,-205.86"/>
<polygon fill="black" stroke="black" points="142.93,-215.28 133.53,-220.18 143.93,-222.21 142.93,-215.28"/>
</g>
<!-- Note&#45;&gt;Updater -->
<g id="edge10" class="edge">
<title>Note&#45;&gt;Updater</title>
<path fill="none" stroke="black" stroke-dasharray="5,2" d="M126.76,-199.79C138.82,-190.05 153.85,-180.04 169.44,-175 285.58,-137.46 324.36,-151.13 444.06,-175 456.16,-177.41 468.83,-182.13 479.74,-186.95"/>
<polygon fill="black" stroke="black" points="124.29,-197.3 118.92,-206.43 128.82,-202.64 124.29,-197.3"/>
</g>
<!-- Note&#45;&gt;Objects with Notes -->
<g id="edge8" class="edge">
<title>Note&#45;&gt;Objects with Notes</title>
<path fill="none" stroke="black" stroke-dasharray="5,2" d="M119.28,-194.86C131.72,-177.34 149.33,-156.02 169.44,-142 180.03,-134.62 192.51,-128.76 204.73,-124.19"/>
<polygon fill="black" stroke="black" points="116.39,-192.89 113.61,-203.11 122.16,-196.86 116.39,-192.89"/>
</g>
<!-- Tag&#45;&gt;Keyword -->
<g id="edge1" class="edge">
<title>Tag&#45;&gt;Keyword</title>
<path fill="none" stroke="black" d="M118.97,-110.55C132.56,-101.95 151.6,-90.71 169.44,-83 184.52,-76.48 201.66,-70.91 216.9,-66.55"/>
<polygon fill="black" stroke="black" points="217.9,-69.9 226.6,-63.86 216.03,-63.16 217.9,-69.9"/>
</g>
<!-- Role&#45;&gt;Verifier -->
<!-- VerifierRole&#45;&gt;Verifier -->
<g id="edge6" class="edge">
<title>VerifierRole&#45;&gt;Verifier</title>
<path fill="none" stroke="black" d="M301.93,-301.16C325.16,-305.26 354.1,-310.35 376.82,-314.35"/>
<polygon fill="black" stroke="black" points="376.33,-317.82 386.78,-316.11 377.54,-310.93 376.33,-317.82"/>
</g>
<!-- Creator&#45;&gt;Updater -->
<!-- Project&#45;&gt;Creator -->
<!-- Note -->
<g id="node1" class="node">
<title>Note</title>
<g id="a_node1"><a xlink:href="/develop/Data/models.html#note" xlink:title="Note" target="_top">
<polygon fill="#cdefab" stroke="#dedede" points="129.22,-217.54 129.22,-232.46 111.63,-243 86.75,-243 69.16,-232.46 69.16,-217.54 86.75,-207 111.63,-207 129.22,-217.54"/>
<polygon fill="none" stroke="#dedede" points="133.19,-215.27 133.19,-234.73 112.72,-247 85.66,-247 65.19,-234.73 65.19,-215.27 85.66,-203 112.72,-203 133.19,-215.27"/>
<text text-anchor="middle" x="99.19" y="-221.3" font-family="Times,serif" font-size="14.00">Note</text>
</a>
</g>
</g>
<!-- Tag -->
<g id="node2" class="node">
<title>Tag</title>
<g id="a_node2"><a xlink:href="/develop/Data/models.html#tag" xlink:title="Tag" target="_top">
<ellipse fill="#abcdef" stroke="#dddeee" cx="99.19" cy="-123" rx="27" ry="18"/>
<text text-anchor="middle" x="99.19" y="-119.3" font-family="Times,serif" font-size="14.00">Tag</text>
</a>
</g>
</g>
<!-- Keyword -->
<g id="node3" class="node">
<title>Keyword</title>
<g id="a_node3"><a xlink:href="/develop/Data/models.html#keyword" xlink:title="Keyword" target="_top">
<polygon fill="#eeefff" stroke="#dddeee" points="293.75,-74 226.75,-74 226.75,-38 293.75,-38 293.75,-74"/>
<text text-anchor="middle" x="260.25" y="-52.3" font-family="Times,serif" font-size="14.00">Keyword</text>
</a>
</g>
</g>
<!-- PinboardItem -->
<g id="node4" class="node">
<title>PinboardItem</title>
<g id="a_node4"><a xlink:href="/develop/Data/models.html#pinboard-item" xlink:title="PinboardItem" target="_top">
<polygon fill="#eeefff" stroke="#dddeee" points="305.75,-420 214.75,-420 214.75,-384 305.75,-384 305.75,-420"/>
<text text-anchor="middle" x="260.25" y="-398.3" font-family="Times,serif" font-size="14.00">PinboardItem</text>
</a>
</g>
</g>
<!-- Role -->
<g id="node5" class="node">
<title>Role</title>
<g id="a_node5"><a xlink:href="/develop/Data/models.html#role" xlink:title="Role" target="_top">
<polygon fill="#eeefff" stroke="#dddeee" points="287.25,-366 233.25,-366 233.25,-330 287.25,-330 287.25,-366"/>
<text text-anchor="middle" x="260.25" y="-344.3" font-family="Times,serif" font-size="14.00">Role</text>
</a>
</g>
</g>
<!-- VerifierRole -->
<g id="node6" class="node">
<title>VerifierRole</title>
<g id="a_node6"><a xlink:href="/develop/Data/models.html#verifier-role" xlink:title="VerifierRole" target="_top">
<polygon fill="#eeefff" stroke="#dddeee" points="301.75,-312 218.75,-312 218.75,-276 301.75,-276 301.75,-312"/>
<text text-anchor="middle" x="260.25" y="-290.3" font-family="Times,serif" font-size="14.00">VerifierRole</text>
</a>
</g>
</g>
<!-- Verifier -->
<g id="node7" class="node">
<title>Verifier</title>
<g id="a_node7"><a xlink:href="/develop/Data/models.html#verifier" xlink:title="Verifier" target="_top">
<polygon fill="#eeefff" stroke="#dddeee" points="444.06,-339 387.06,-339 387.06,-303 444.06,-303 444.06,-339"/>
<text text-anchor="middle" x="415.56" y="-317.3" font-family="Times,serif" font-size="14.00">Verifier</text>
</a>
</g>
</g>
<!-- Creator -->
<g id="node8" class="node">
<title>Creator</title>
<g id="a_node8"><a xlink:href="/develop/Data/models.html#creator" xlink:title="Creator" target="_top">
<polygon fill="#eeefff" stroke="#dddeee" points="444.06,-220 387.06,-220 387.06,-184 444.06,-184 444.06,-220"/>
<text text-anchor="middle" x="415.56" y="-198.3" font-family="Times,serif" font-size="14.00">Creator</text>
</a>
</g>
</g>
<!-- Project -->
<g id="node9" class="node">
<title>Project</title>
<g id="a_node9"><a xlink:href="/develop/Data/models.html#project" xlink:title="Project" target="_top">
<polygon fill="#eeefff" stroke="#dddeee" points="287.75,-220 232.75,-220 232.75,-184 287.75,-184 287.75,-220"/>
<text text-anchor="middle" x="260.25" y="-198.3" font-family="Times,serif" font-size="14.00">Project</text>
</a>
</g>
</g>
<!-- Updater -->
<g id="node10" class="node">
<title>Updater</title>
<g id="a_node10"><a xlink:href="/develop/Data/models.html#updater" xlink:title="Updater" target="_top">
<polygon fill="#eeefff" stroke="#dddeee" points="540.06,-220 480.06,-220 480.06,-184 540.06,-184 540.06,-220"/>
<text text-anchor="middle" x="510.06" y="-198.3" font-family="Times,serif" font-size="14.00">Updater</text>
</a>
</g>
</g>
<!-- Objects with Notes -->
<g id="node11" class="node">
<title>Objects with Notes</title>
<g id="a_node11"><a xlink:href="/develop/Data/models.html#objects with note" xlink:title="Objects with Notes" target="_top">
<polygon fill="#cdabef" stroke="#dedede" points="350.87,-110 305.56,-128 214.94,-128 169.63,-110 214.94,-92 305.56,-92 350.87,-110"/>
<text text-anchor="middle" x="260.25" y="-106.3" font-family="Times,serif" font-size="14.00">Objects with Notes</text>
</a>
</g>
</g>
</g>
</svg>
