<?xml version="1.0" encoding="UTF-8" standalone="no"?>
<!DOCTYPE svg PUBLIC "-//W3C//DTD SVG 1.1//EN"
 "http://www.w3.org/Graphics/SVG/1.1/DTD/svg11.dtd">
<!-- Generated by graphviz version 2.50.0 (20211204.2007)
 -->
<!-- Title: Note Pages: 1 -->
<svg width="483pt" height="390pt"
 viewBox="0.00 0.00 483.12 390.00" xmlns="http://www.w3.org/2000/svg" xmlns:xlink="http://www.w3.org/1999/xlink">
<g id="graph0" class="graph" transform="scale(1 1) rotate(0) translate(4 386)">
<title>Note</title>
<polygon fill="white" stroke="transparent" points="-4,4 -4,-386 479.12,-386 479.12,4 -4,4"/>
<!-- Note&#45;&gt;Tag -->
<g id="edge4" class="edge">
<title>Note&#45;&gt;Tag</title>
<path fill="none" stroke="black" d="M34.25,-164.77C34.25,-147.65 34.25,-130.53 34.25,-113.41"/>
<polygon fill="black" stroke="black" points="37.75,-113.33 34.25,-103.33 30.75,-113.33 37.75,-113.33"/>
</g>
<!-- Note&#45;&gt;PinboardItem -->
<g id="edge2" class="edge">
<title>Note&#45;&gt;PinboardItem</title>
<path fill="none" stroke="black" d="M39.45,-209.04C46.81,-241.73 65.2,-302.86 104.5,-337 114.49,-345.68 127.19,-351.57 139.87,-355.56"/>
<polygon fill="black" stroke="black" points="138.95,-358.94 149.52,-358.27 140.84,-352.2 138.95,-358.94"/>
</g>
<!-- Note&#45;&gt;Role -->
<g id="edge3" class="edge">
<title>Note&#45;&gt;Role</title>
<path fill="none" stroke="black" d="M45.86,-209.33C57.36,-231.19 77.72,-263.92 104.5,-283 120.24,-294.21 140.69,-300.83 158.1,-304.71"/>
<polygon fill="black" stroke="black" points="157.45,-308.15 167.95,-306.69 158.83,-301.28 157.45,-308.15"/>
</g>
<!-- Note&#45;&gt;VerifierRole -->
<g id="edge5" class="edge">
<title>Note&#45;&gt;VerifierRole</title>
<path fill="none" stroke="black" d="M60.45,-201.63C73.39,-208.84 89.54,-217.38 104.5,-224 117.05,-229.55 130.88,-234.86 143.85,-239.5"/>
<polygon fill="black" stroke="black" points="142.98,-242.91 153.57,-242.92 145.3,-236.3 142.98,-242.91"/>
</g>
<!-- Note&#45;&gt;Creator -->
<g id="edge7" class="edge">
<title>Note&#45;&gt;Creator</title>
<path fill="none" stroke="black" stroke-dasharray="5,2" d="M78.76,-193.32C129.21,-199.35 214.59,-205.58 286.12,-191 298.33,-188.51 311.1,-183.59 321.95,-178.62"/>
<polygon fill="black" stroke="black" points="78.9,-189.81 68.54,-192.04 78.03,-196.75 78.9,-189.81"/>
</g>
<!-- Note&#45;&gt;Project -->
<g id="edge9" class="edge">
<title>Note&#45;&gt;Project</title>
<path fill="none" stroke="black" stroke-dasharray="5,2" d="M78.68,-180.72C107.1,-176.61 143.33,-171.37 167.59,-167.86"/>
<polygon fill="black" stroke="black" points="77.99,-177.28 68.59,-182.18 78.99,-184.21 77.99,-177.28"/>
</g>
<!-- Note&#45;&gt;Updater -->
<g id="edge10" class="edge">
<title>Note&#45;&gt;Updater</title>
<path fill="none" stroke="black" stroke-dasharray="5,2" d="M61.82,-161.79C73.88,-152.05 88.91,-142.04 104.5,-137 220.64,-99.46 259.42,-113.13 379.12,-137 391.22,-139.41 403.89,-144.13 414.8,-148.95"/>
<polygon fill="black" stroke="black" points="59.35,-159.3 53.98,-168.43 63.88,-164.64 59.35,-159.3"/>
</g>
<!-- Note&#45;&gt;Objects with Notes -->
<g id="edge8" class="edge">
<title>Note&#45;&gt;Objects with Notes</title>
<path fill="none" stroke="black" stroke-dasharray="5,2" d="M54.34,-156.86C66.77,-139.34 84.39,-118.02 104.5,-104 115.09,-96.62 127.57,-90.76 139.79,-86.19"/>
<polygon fill="black" stroke="black" points="51.45,-154.89 48.67,-165.11 57.22,-158.86 51.45,-154.89"/>
</g>
<!-- Tag&#45;&gt;Keyword -->
<g id="edge1" class="edge">
<title>Tag&#45;&gt;Keyword</title>
<path fill="none" stroke="black" d="M54.03,-72.55C67.62,-63.95 86.66,-52.71 104.5,-45 119.58,-38.48 136.72,-32.91 151.96,-28.55"/>
<polygon fill="black" stroke="black" points="152.96,-31.9 161.66,-25.86 151.09,-25.16 152.96,-31.9"/>
</g>
<!-- Role&#45;&gt;Verifier -->
<!-- VerifierRole&#45;&gt;Verifier -->
<g id="edge6" class="edge">
<title>VerifierRole&#45;&gt;Verifier</title>
<path fill="none" stroke="black" d="M236.99,-263.16C260.22,-267.26 289.16,-272.35 311.88,-276.35"/>
<polygon fill="black" stroke="black" points="311.38,-279.82 321.84,-278.11 312.6,-272.93 311.38,-279.82"/>
</g>
<!-- Creator&#45;&gt;Updater -->
<!-- Project&#45;&gt;Creator -->
<!-- Note -->
<g id="node1" class="node">
<title>Note</title>
<g id="a_node1"><a xlink:href="/develop/Data/models.html#note" xlink:title="Note" target="_top">
<polygon fill="#cdefab" stroke="#dedede" points="64.28,-179.54 64.28,-194.46 46.69,-205 21.81,-205 4.22,-194.46 4.22,-179.54 21.81,-169 46.69,-169 64.28,-179.54"/>
<polygon fill="none" stroke="#dedede" points="68.25,-177.27 68.25,-196.73 47.78,-209 20.72,-209 0.25,-196.73 0.25,-177.27 20.72,-165 47.78,-165 68.25,-177.27"/>
<text text-anchor="middle" x="34.25" y="-183.3" font-family="Times,serif" font-size="14.00">Note</text>
</a>
</g>
</g>
<!-- Tag -->
<g id="node2" class="node">
<title>Tag</title>
<g id="a_node2"><a xlink:href="/develop/Data/models.html#tag" xlink:title="Tag" target="_top">
<ellipse fill="#abcdef" stroke="#dddeee" cx="34.25" cy="-85" rx="27" ry="18"/>
<text text-anchor="middle" x="34.25" y="-81.3" font-family="Times,serif" font-size="14.00">Tag</text>
</a>
</g>
</g>
<!-- Keyword -->
<g id="node3" class="node">
<title>Keyword</title>
<g id="a_node3"><a xlink:href="/develop/Data/models.html#keyword" xlink:title="Keyword" target="_top">
<polygon fill="#eeefff" stroke="#dddeee" points="228.81,-36 161.81,-36 161.81,0 228.81,0 228.81,-36"/>
<text text-anchor="middle" x="195.31" y="-14.3" font-family="Times,serif" font-size="14.00">Keyword</text>
</a>
</g>
</g>
<!-- PinboardItem -->
<g id="node4" class="node">
<title>PinboardItem</title>
<g id="a_node4"><a xlink:href="/develop/Data/models.html#pinboard-item" xlink:title="PinboardItem" target="_top">
<polygon fill="#eeefff" stroke="#dddeee" points="240.81,-382 149.81,-382 149.81,-346 240.81,-346 240.81,-382"/>
<text text-anchor="middle" x="195.31" y="-360.3" font-family="Times,serif" font-size="14.00">PinboardItem</text>
</a>
</g>
</g>
<!-- Role -->
<g id="node5" class="node">
<title>Role</title>
<g id="a_node5"><a xlink:href="/develop/Data/models.html#role" xlink:title="Role" target="_top">
<polygon fill="#eeefff" stroke="#dddeee" points="222.31,-328 168.31,-328 168.31,-292 222.31,-292 222.31,-328"/>
<text text-anchor="middle" x="195.31" y="-306.3" font-family="Times,serif" font-size="14.00">Role</text>
</a>
</g>
</g>
<!-- VerifierRole -->
<g id="node6" class="node">
<title>VerifierRole</title>
<g id="a_node6"><a xlink:href="/develop/Data/models.html#verifier-role" xlink:title="VerifierRole" target="_top">
<polygon fill="#eeefff" stroke="#dddeee" points="236.81,-274 153.81,-274 153.81,-238 236.81,-238 236.81,-274"/>
<text text-anchor="middle" x="195.31" y="-252.3" font-family="Times,serif" font-size="14.00">VerifierRole</text>
</a>
</g>
</g>
<!-- Verifier -->
<g id="node7" class="node">
<title>Verifier</title>
<g id="a_node7"><a xlink:href="/develop/Data/models.html#verifier" xlink:title="Verifier" target="_top">
<polygon fill="#eeefff" stroke="#dddeee" points="379.12,-301 322.12,-301 322.12,-265 379.12,-265 379.12,-301"/>
<text text-anchor="middle" x="350.62" y="-279.3" font-family="Times,serif" font-size="14.00">Verifier</text>
</a>
</g>
</g>
<!-- Creator -->
<g id="node8" class="node">
<title>Creator</title>
<g id="a_node8"><a xlink:href="/develop/Data/models.html#creator" xlink:title="Creator" target="_top">
<polygon fill="#eeefff" stroke="#dddeee" points="379.12,-182 322.12,-182 322.12,-146 379.12,-146 379.12,-182"/>
<text text-anchor="middle" x="350.62" y="-160.3" font-family="Times,serif" font-size="14.00">Creator</text>
</a>
</g>
</g>
<!-- Project -->
<g id="node9" class="node">
<title>Project</title>
<g id="a_node9"><a xlink:href="/develop/Data/models.html#project" xlink:title="Project" target="_top">
<polygon fill="#eeefff" stroke="#dddeee" points="222.81,-182 167.81,-182 167.81,-146 222.81,-146 222.81,-182"/>
<text text-anchor="middle" x="195.31" y="-160.3" font-family="Times,serif" font-size="14.00">Project</text>
</a>
</g>
</g>
<!-- Updater -->
<g id="node10" class="node">
<title>Updater</title>
<g id="a_node10"><a xlink:href="/develop/Data/models.html#updater" xlink:title="Updater" target="_top">
<polygon fill="#eeefff" stroke="#dddeee" points="475.12,-182 415.12,-182 415.12,-146 475.12,-146 475.12,-182"/>
<text text-anchor="middle" x="445.12" y="-160.3" font-family="Times,serif" font-size="14.00">Updater</text>
</a>
</g>
</g>
<!-- Objects with Notes -->
<g id="node11" class="node">
<title>Objects with Notes</title>
<g id="a_node11"><a xlink:href="/develop/Data/models.html#objects with note" xlink:title="Objects with Notes" target="_top">
<polygon fill="#cdabef" stroke="#dedede" points="285.93,-72 240.62,-90 150,-90 104.69,-72 150,-54 240.62,-54 285.93,-72"/>
<text text-anchor="middle" x="195.31" y="-68.3" font-family="Times,serif" font-size="14.00">Objects with Notes</text>
</a>
</g>
</g>
</g>
</svg>
