<?xml version="1.0" encoding="UTF-8" standalone="no"?>
<!DOCTYPE svg PUBLIC "-//W3C//DTD SVG 1.1//EN"
 "http://www.w3.org/Graphics/SVG/1.1/DTD/svg11.dtd">
<!-- Generated by graphviz version 2.50.0 (20211204.2007)
 -->
<!-- Title: ObservationMatrixColumn Pages: 1 -->
<svg width="734pt" height="465pt"
 viewBox="0.00 0.00 734.00 465.32" xmlns="http://www.w3.org/2000/svg" xmlns:xlink="http://www.w3.org/1999/xlink">
<g id="graph0" class="graph" transform="scale(1 1) rotate(0) translate(4 461.32)">
<title>ObservationMatrixColumn</title>
<polygon fill="white" stroke="transparent" points="-4,4 -4,-461.32 730,-461.32 730,4 -4,4"/>
<text text-anchor="middle" x="363" y="-22.8" font-family="Times,serif" font-size="14.00">Algorithmically generated relationships for ObservationMatrixColumn based on assertions of &#39;has_many&#39;, &#39;has_one&#39;, &#39;belongs_to&#39;. </text>
<text text-anchor="middle" x="363" y="-7.8" font-family="Times,serif" font-size="14.00">Generated 2022&#45;01&#45;25 11:43:26 &#45;0600.</text>
<!-- Tag&#45;&gt;Keyword -->
<g id="edge1" class="edge">
<title>Tag&#45;&gt;Keyword</title>
<path fill="none" stroke="black" d="M63.49,-293.11C92.87,-293.44 140.79,-293.97 175.58,-294.35"/>
<polygon fill="black" stroke="black" points="175.88,-297.85 185.91,-294.47 175.95,-290.85 175.88,-297.85"/>
</g>
<!-- Observation&#45;&gt;ObservationMatrix -->
<!-- ObservationMatrixColumn&#45;&gt;Tag -->
<g id="edge6" class="edge">
<title>ObservationMatrixColumn&#45;&gt;Tag</title>
<path fill="none" stroke="black" d="M144.48,-254.71C129.67,-258.71 114.31,-263.15 100.07,-267.82 89.77,-271.21 78.72,-275.4 68.79,-279.37"/>
<polygon fill="black" stroke="black" points="67.25,-276.22 59.32,-283.24 69.9,-282.7 67.25,-276.22"/>
</g>
<!-- ObservationMatrixColumn&#45;&gt;Note -->
<g id="edge2" class="edge">
<title>ObservationMatrixColumn&#45;&gt;Note</title>
<path fill="none" stroke="black" d="M99.96,-236.82C90.89,-236.82 82.23,-236.82 74.4,-236.82"/>
<polygon fill="black" stroke="black" points="74.27,-233.32 64.27,-236.82 74.27,-240.32 74.27,-233.32"/>
</g>
<!-- ObservationMatrixColumn&#45;&gt;Observation -->
<g id="edge3" class="edge">
<title>ObservationMatrixColumn&#45;&gt;Observation</title>
<path fill="none" stroke="black" d="M315.43,-251.43C324.08,-255.66 332.1,-261.03 338.82,-267.82 385.21,-314.73 335.68,-358.72 374.82,-411.82 375.19,-412.32 375.57,-412.82 375.96,-413.3"/>
<polygon fill="black" stroke="black" points="373.63,-415.92 383.17,-420.53 378.58,-410.97 373.63,-415.92"/>
</g>
<!-- ObservationMatrixColumn&#45;&gt;Descriptor -->
<g id="edge10" class="edge">
<title>ObservationMatrixColumn&#45;&gt;Descriptor</title>
<path fill="none" stroke="black" stroke-dasharray="5,2" d="M322.04,-256.23C328.05,-259.52 333.72,-263.36 338.82,-267.82 370.61,-295.67 347.64,-323.47 374.82,-355.82 377.87,-359.46 381.52,-362.77 385.4,-365.74"/>
<polygon fill="black" stroke="black" points="323.52,-253.06 313,-251.79 320.43,-259.34 323.52,-253.06"/>
</g>
<!-- ObservationMatrixColumn&#45;&gt;PinboardItem -->
<g id="edge4" class="edge">
<title>ObservationMatrixColumn&#45;&gt;PinboardItem</title>
<path fill="none" stroke="black" d="M302.35,-253.42C314.89,-257.33 327.44,-262.08 338.82,-267.82 357.16,-277.08 358.47,-284.38 374.82,-296.82 378.23,-299.42 381.81,-302.09 385.41,-304.73"/>
<polygon fill="black" stroke="black" points="383.58,-307.73 393.73,-310.79 387.7,-302.07 383.58,-307.73"/>
</g>
<!-- ObservationMatrixColumn&#45;&gt;Role -->
<g id="edge5" class="edge">
<title>ObservationMatrixColumn&#45;&gt;Role</title>
<path fill="none" stroke="black" d="M338.72,-236.82C354.75,-236.82 370.1,-236.82 383.03,-236.82"/>
<polygon fill="black" stroke="black" points="383.27,-240.32 393.27,-236.82 383.27,-233.32 383.27,-240.32"/>
</g>
<!-- ObservationMatrixColumn&#45;&gt;VerifierRole -->
<g id="edge7" class="edge">
<title>ObservationMatrixColumn&#45;&gt;VerifierRole</title>
<path fill="none" stroke="black" d="M289.17,-218.16C315.41,-211.04 344.83,-203.05 369.05,-196.48"/>
<polygon fill="black" stroke="black" points="370,-199.84 378.74,-193.84 368.17,-193.09 370,-199.84"/>
</g>
<!-- ObservationMatrixColumn&#45;&gt;Creator -->
<g id="edge9" class="edge">
<title>ObservationMatrixColumn&#45;&gt;Creator</title>
<path fill="none" stroke="black" stroke-dasharray="5,2" d="M267.7,-209.71C297.81,-193.02 337.96,-171.83 374.82,-155.82 429.73,-131.98 496.48,-110.36 533.23,-99.07"/>
<polygon fill="black" stroke="black" points="265.72,-206.81 258.69,-214.74 269.13,-212.92 265.72,-206.81"/>
</g>
<!-- ObservationMatrixColumn&#45;&gt;ObservationMatrix -->
<g id="edge11" class="edge">
<title>ObservationMatrixColumn&#45;&gt;ObservationMatrix</title>
<path fill="none" stroke="black" stroke-dasharray="5,2" d="M316.06,-255.15C362.38,-265.77 418.16,-281.19 465.82,-301.82 491.12,-312.78 517.58,-329.73 536.13,-342.66"/>
<polygon fill="black" stroke="black" points="316.54,-251.67 306.02,-252.89 315,-258.5 316.54,-251.67"/>
</g>
<!-- ObservationMatrixColumn&#45;&gt;Project -->
<g id="edge12" class="edge">
<title>ObservationMatrixColumn&#45;&gt;Project</title>
<path fill="none" stroke="black" stroke-dasharray="5,2" d="M258.65,-208.4C289.83,-185.26 335.07,-151.79 374.82,-122.82 380.97,-118.34 387.63,-113.53 393.87,-109.04"/>
<polygon fill="black" stroke="black" points="256.19,-205.87 250.25,-214.64 260.36,-211.49 256.19,-205.87"/>
</g>
<!-- ObservationMatrixColumn&#45;&gt;Updater -->
<g id="edge13" class="edge">
<title>ObservationMatrixColumn&#45;&gt;Updater</title>
<path fill="none" stroke="black" stroke-dasharray="5,2" d="M236.86,-205.96C260.83,-164.59 309.76,-92.97 374.82,-63.82 475.01,-18.95 514.16,-42.35 621.82,-63.82 633.92,-66.24 646.59,-70.95 657.5,-75.77"/>
<polygon fill="black" stroke="black" points="233.73,-204.37 231.85,-214.8 239.82,-207.83 233.73,-204.37"/>
</g>
<!-- Role&#45;&gt;Verifier -->
<!-- VerifierRole&#45;&gt;Verifier -->
<g id="edge8" class="edge">
<title>VerifierRole&#45;&gt;Verifier</title>
<path fill="none" stroke="black" d="M462.04,-190.71C481.32,-194.44 504.18,-198.86 523.06,-202.52"/>
<polygon fill="black" stroke="black" points="522.61,-205.99 533.09,-204.46 523.94,-199.12 522.61,-205.99"/>
</g>
<!-- Creator&#45;&gt;Updater -->
<!-- Project&#45;&gt;Creator -->
<!-- Tag -->
<g id="node1" class="node">
<title>Tag</title>
<g id="a_node1"><a xlink:href="/develop/Data/models.html#tag" xlink:title="Tag" target="_top">
<ellipse fill="#abcdef" stroke="#dddeee" cx="36.13" cy="-292.82" rx="27" ry="18"/>
<text text-anchor="middle" x="36.13" y="-289.12" font-family="Times,serif" font-size="14.00">Tag</text>
</a>
</g>
</g>
<!-- Note -->
<g id="node2" class="node">
<title>Note</title>
<g id="a_node2"><a xlink:href="/develop/Data/models.html#note" xlink:title="Note" target="_top">
<ellipse fill="#abcdef" stroke="#dddeee" cx="36.13" cy="-236.82" rx="27.9" ry="18"/>
<text text-anchor="middle" x="36.13" y="-233.12" font-family="Times,serif" font-size="14.00">Note</text>
</a>
</g>
</g>
<!-- Observation -->
<g id="node3" class="node">
<title>Observation</title>
<g id="a_node3"><a xlink:href="/develop/Data/models.html#observation" xlink:title="Observation" target="_top">
<path fill="#fedcba" stroke="#dddeee" d="M390.82,-420.82C390.82,-420.82 449.82,-420.82 449.82,-420.82 455.82,-420.82 461.82,-426.82 461.82,-432.82 461.82,-432.82 461.82,-444.82 461.82,-444.82 461.82,-450.82 455.82,-456.82 449.82,-456.82 449.82,-456.82 390.82,-456.82 390.82,-456.82 384.82,-456.82 378.82,-450.82 378.82,-444.82 378.82,-444.82 378.82,-432.82 378.82,-432.82 378.82,-426.82 384.82,-420.82 390.82,-420.82"/>
<text text-anchor="middle" x="420.32" y="-435.12" font-family="Times,serif" font-size="14.00">Observation</text>
</a>
</g>
</g>
<!-- Descriptor -->
<g id="node4" class="node">
<title>Descriptor</title>
<g id="a_node4"><a xlink:href="/develop/Data/models.html#descriptor" xlink:title="Descriptor" target="_top">
<path fill="#fedcba" stroke="#dddeee" d="M395.32,-365.82C395.32,-365.82 445.32,-365.82 445.32,-365.82 451.32,-365.82 457.32,-371.82 457.32,-377.82 457.32,-377.82 457.32,-389.82 457.32,-389.82 457.32,-395.82 451.32,-401.82 445.32,-401.82 445.32,-401.82 395.32,-401.82 395.32,-401.82 389.32,-401.82 383.32,-395.82 383.32,-389.82 383.32,-389.82 383.32,-377.82 383.32,-377.82 383.32,-371.82 389.32,-365.82 395.32,-365.82"/>
<text text-anchor="middle" x="420.32" y="-380.12" font-family="Times,serif" font-size="14.00">Descriptor</text>
</a>
</g>
</g>
<!-- ObservationMatrixColumn -->
<g id="node5" class="node">
<title>ObservationMatrixColumn</title>
<g id="a_node5"><a xlink:href="/develop/Data/models.html#observation-matrix-column" xlink:title="ObservationMatrixColumn" target="_top">
<polygon fill="#cdefab" stroke="#dedede" points="334.7,-229.37 334.7,-244.28 267.19,-254.82 171.71,-254.82 104.2,-244.28 104.2,-229.37 171.71,-218.82 267.19,-218.82 334.7,-229.37"/>
<polygon fill="none" stroke="#dedede" points="338.69,-225.94 338.69,-247.7 267.5,-258.82 171.4,-258.82 100.2,-247.7 100.2,-225.94 171.4,-214.82 267.5,-214.82 338.69,-225.94"/>
<text text-anchor="middle" x="219.45" y="-233.12" font-family="Times,serif" font-size="14.00">ObservationMatrixColumn</text>
</a>
</g>
</g>
<!-- Keyword -->
<g id="node6" class="node">
<title>Keyword</title>
<g id="a_node6"><a xlink:href="/develop/Data/models.html#keyword" xlink:title="Keyword" target="_top">
<polygon fill="#eeefff" stroke="#dddeee" points="252.95,-312.82 185.95,-312.82 185.95,-276.82 252.95,-276.82 252.95,-312.82"/>
<text text-anchor="middle" x="219.45" y="-291.12" font-family="Times,serif" font-size="14.00">Keyword</text>
</a>
</g>
</g>
<!-- PinboardItem -->
<g id="node7" class="node">
<title>PinboardItem</title>
<g id="a_node7"><a xlink:href="/develop/Data/models.html#pinboard-item" xlink:title="PinboardItem" target="_top">
<polygon fill="#eeefff" stroke="#dddeee" points="465.82,-346.82 374.82,-346.82 374.82,-310.82 465.82,-310.82 465.82,-346.82"/>
<text text-anchor="middle" x="420.32" y="-325.12" font-family="Times,serif" font-size="14.00">PinboardItem</text>
</a>
</g>
</g>
<!-- Role -->
<g id="node8" class="node">
<title>Role</title>
<g id="a_node8"><a xlink:href="/develop/Data/models.html#role" xlink:title="Role" target="_top">
<polygon fill="#eeefff" stroke="#dddeee" points="447.32,-254.82 393.32,-254.82 393.32,-218.82 447.32,-218.82 447.32,-254.82"/>
<text text-anchor="middle" x="420.32" y="-233.12" font-family="Times,serif" font-size="14.00">Role</text>
</a>
</g>
</g>
<!-- VerifierRole -->
<g id="node9" class="node">
<title>VerifierRole</title>
<g id="a_node9"><a xlink:href="/develop/Data/models.html#verifier-role" xlink:title="VerifierRole" target="_top">
<polygon fill="#eeefff" stroke="#dddeee" points="461.82,-200.82 378.82,-200.82 378.82,-164.82 461.82,-164.82 461.82,-200.82"/>
<text text-anchor="middle" x="420.32" y="-179.12" font-family="Times,serif" font-size="14.00">VerifierRole</text>
</a>
</g>
</g>
<!-- Verifier -->
<g id="node10" class="node">
<title>Verifier</title>
<g id="a_node10"><a xlink:href="/develop/Data/models.html#verifier" xlink:title="Verifier" target="_top">
<polygon fill="#eeefff" stroke="#dddeee" points="590.32,-227.82 533.32,-227.82 533.32,-191.82 590.32,-191.82 590.32,-227.82"/>
<text text-anchor="middle" x="561.82" y="-206.12" font-family="Times,serif" font-size="14.00">Verifier</text>
</a>
</g>
</g>
<!-- Creator -->
<g id="node11" class="node">
<title>Creator</title>
<g id="a_node11"><a xlink:href="/develop/Data/models.html#creator" xlink:title="Creator" target="_top">
<polygon fill="#eeefff" stroke="#dddeee" points="590.32,-108.82 533.32,-108.82 533.32,-72.82 590.32,-72.82 590.32,-108.82"/>
<text text-anchor="middle" x="561.82" y="-87.12" font-family="Times,serif" font-size="14.00">Creator</text>
</a>
</g>
</g>
<!-- ObservationMatrix -->
<g id="node12" class="node">
<title>ObservationMatrix</title>
<g id="a_node12"><a xlink:href="/develop/Data/models.html#observation-matrix" xlink:title="ObservationMatrix" target="_top">
<polygon fill="#eeefff" stroke="#dddeee" points="621.82,-378.82 501.82,-378.82 501.82,-342.82 621.82,-342.82 621.82,-378.82"/>
<text text-anchor="middle" x="561.82" y="-357.12" font-family="Times,serif" font-size="14.00">ObservationMatrix</text>
</a>
</g>
</g>
<!-- Project -->
<g id="node13" class="node">
<title>Project</title>
<g id="a_node13"><a xlink:href="/develop/Data/models.html#project" xlink:title="Project" target="_top">
<polygon fill="#eeefff" stroke="#dddeee" points="447.82,-108.82 392.82,-108.82 392.82,-72.82 447.82,-72.82 447.82,-108.82"/>
<text text-anchor="middle" x="420.32" y="-87.12" font-family="Times,serif" font-size="14.00">Project</text>
</a>
</g>
</g>
<!-- Updater -->
<g id="node14" class="node">
<title>Updater</title>
<g id="a_node14"><a xlink:href="/develop/Data/models.html#updater" xlink:title="Updater" target="_top">
<polygon fill="#eeefff" stroke="#dddeee" points="717.82,-108.82 657.82,-108.82 657.82,-72.82 717.82,-72.82 717.82,-108.82"/>
<text text-anchor="middle" x="687.82" y="-87.12" font-family="Times,serif" font-size="14.00">Updater</text>
</a>
</g>
</g>
</g>
</svg>
