<?xml version="1.0" encoding="UTF-8" standalone="no"?>
<!DOCTYPE svg PUBLIC "-//W3C//DTD SVG 1.1//EN"
 "http://www.w3.org/Graphics/SVG/1.1/DTD/svg11.dtd">
<!-- Generated by graphviz version 2.50.0 (20211204.2007)
 -->
<!-- Title: ObservationMatrixRowItem Pages: 1 -->
<svg width="844pt" height="522pt"
 viewBox="0.00 0.00 844.39 522.00" xmlns="http://www.w3.org/2000/svg" xmlns:xlink="http://www.w3.org/1999/xlink">
<g id="graph0" class="graph" transform="scale(1 1) rotate(0) translate(4 518)">
<title>ObservationMatrixRowItem</title>
<polygon fill="white" stroke="transparent" points="-4,4 -4,-518 840.39,-518 840.39,4 -4,4"/>
<!-- Citation&#45;&gt;Source -->
<g id="edge8" class="edge">
<title>Citation&#45;&gt;Source</title>
<path fill="none" stroke="black" d="M82.04,-441C162.65,-441 349.4,-441 428.71,-441"/>
<polygon fill="black" stroke="black" points="429.16,-444.5 439.16,-441 429.16,-437.5 429.16,-444.5"/>
</g>
<!-- Citation&#45;&gt;CitationTopic -->
<g id="edge1" class="edge">
<title>Citation&#45;&gt;CitationTopic</title>
<path fill="none" stroke="black" d="M77.12,-450.08C107.72,-458.45 153.73,-471.02 189.86,-480.9"/>
<polygon fill="black" stroke="black" points="189.2,-484.35 199.77,-483.61 191.04,-477.6 189.2,-484.35"/>
</g>
<!-- Tag&#45;&gt;Keyword -->
<g id="edge4" class="edge">
<title>Tag&#45;&gt;Keyword</title>
<path fill="none" stroke="black" d="M70.2,-214.87C103.81,-214.7 162.41,-214.41 202.44,-214.21"/>
<polygon fill="black" stroke="black" points="202.46,-217.71 212.45,-214.16 202.43,-210.71 202.46,-217.71"/>
</g>
<!-- Source&#45;&gt;SubsequentCitation -->
<!-- Source&#45;&gt;OriginCitation -->
<!-- ObservationMatrixRowItem&#45;&gt;Citation -->
<g id="edge2" class="edge">
<title>ObservationMatrixRowItem&#45;&gt;Citation</title>
<path fill="none" stroke="black" d="M218.71,-294.16C180.12,-326.58 108.69,-386.58 70.16,-418.94"/>
<polygon fill="black" stroke="black" points="67.87,-416.29 62.46,-425.4 72.37,-421.65 67.87,-416.29"/>
</g>
<!-- ObservationMatrixRowItem&#45;&gt;Identifier -->
<g id="edge3" class="edge">
<title>ObservationMatrixRowItem&#45;&gt;Identifier</title>
<path fill="none" stroke="black" d="M173.18,-290.59C145.36,-297.77 114.35,-305.79 89.68,-312.17"/>
<polygon fill="black" stroke="black" points="88.67,-308.81 79.87,-314.7 90.42,-315.59 88.67,-308.81"/>
</g>
<!-- ObservationMatrixRowItem&#45;&gt;Tag -->
<g id="edge11" class="edge">
<title>ObservationMatrixRowItem&#45;&gt;Tag</title>
<path fill="none" stroke="black" d="M169.53,-253.97C153.7,-249.92 137.15,-245.49 121.79,-241 106.93,-236.66 90.65,-231.32 76.84,-226.61"/>
<polygon fill="black" stroke="black" points="77.87,-223.26 67.27,-223.32 75.59,-229.88 77.87,-223.26"/>
</g>
<!-- ObservationMatrixRowItem&#45;&gt;Note -->
<g id="edge5" class="edge">
<title>ObservationMatrixRowItem&#45;&gt;Note</title>
<path fill="none" stroke="black" d="M121.84,-270.77C107.25,-270.63 93.33,-270.49 81.39,-270.37"/>
<polygon fill="black" stroke="black" points="81.06,-266.87 71.03,-270.27 80.99,-273.87 81.06,-266.87"/>
</g>
<!-- ObservationMatrixRowItem&#45;&gt;Source -->
<g id="edge20" class="edge">
<title>ObservationMatrixRowItem&#45;&gt;Source</title>
<path fill="none" stroke="black" stroke-dasharray="1,5" d="M277.38,-301.03C308.39,-329.97 358.66,-374.76 406.39,-408 416.69,-415.18 428.69,-422.12 439.17,-427.77"/>
<polygon fill="black" stroke="black" points="279.61,-298.33 269.93,-294.04 274.82,-303.43 279.61,-298.33"/>
</g>
<!-- ObservationMatrixRowItem&#45;&gt;PinboardItem -->
<g id="edge6" class="edge">
<title>ObservationMatrixRowItem&#45;&gt;PinboardItem</title>
<path fill="none" stroke="black" d="M343.94,-257.04C353.51,-252.9 362.56,-247.64 370.39,-241 401.04,-214.98 379.23,-187.65 406.39,-158 409.06,-155.09 412.05,-152.38 415.24,-149.89"/>
<polygon fill="black" stroke="black" points="417.32,-152.71 423.5,-144.1 413.3,-146.97 417.32,-152.71"/>
</g>
<!-- ObservationMatrixRowItem&#45;&gt;Role -->
<g id="edge7" class="edge">
<title>ObservationMatrixRowItem&#45;&gt;Role</title>
<path fill="none" stroke="black" d="M347.64,-257.71C356.11,-253.4 363.9,-247.92 370.39,-241 430.96,-176.38 351.97,-114.88 406.39,-45 412.33,-37.36 420.93,-31.81 429.74,-27.81"/>
<polygon fill="black" stroke="black" points="431.25,-30.97 439.26,-24.04 428.67,-24.46 431.25,-30.97"/>
</g>
<!-- ObservationMatrixRowItem&#45;&gt;SubsequentCitation -->
<g id="edge9" class="edge">
<title>ObservationMatrixRowItem&#45;&gt;SubsequentCitation</title>
<path fill="none" stroke="black" d="M282.88,-294.09C314.59,-313.09 362.53,-340.44 406.39,-360 453.98,-381.22 509.56,-400.4 552.42,-414.05"/>
<polygon fill="black" stroke="black" points="551.61,-417.46 562.2,-417.14 553.72,-410.79 551.61,-417.46"/>
</g>
<!-- ObservationMatrixRowItem&#45;&gt;VerifierRole -->
<g id="edge13" class="edge">
<title>ObservationMatrixRowItem&#45;&gt;VerifierRole</title>
<path fill="none" stroke="black" d="M346.57,-257.55C355.36,-253.28 363.51,-247.86 370.39,-241 416.47,-195.01 364.7,-149.01 406.39,-99 409.15,-95.69 412.4,-92.77 415.93,-90.19"/>
<polygon fill="black" stroke="black" points="417.97,-93.04 424.6,-84.78 414.26,-87.1 417.97,-93.04"/>
</g>
<!-- ObservationMatrixRowItem&#45;&gt;Creator -->
<g id="edge15" class="edge">
<title>ObservationMatrixRowItem&#45;&gt;Creator</title>
<path fill="none" stroke="black" stroke-dasharray="5,2" d="M348.81,-252.72C356.41,-249.42 363.7,-245.54 370.39,-241 393.04,-225.62 382.02,-203.48 406.39,-191 467.94,-159.47 551.87,-186.82 594.73,-204.97"/>
<polygon fill="black" stroke="black" points="347.4,-249.52 339.42,-256.48 350.01,-256.02 347.4,-249.52"/>
</g>
<!-- ObservationMatrixRowItem&#45;&gt;ObservationMatrix -->
<g id="edge16" class="edge">
<title>ObservationMatrixRowItem&#45;&gt;ObservationMatrix</title>
<path fill="none" stroke="black" stroke-dasharray="5,2" d="M380.44,-272C389.37,-272 398.07,-272 406.29,-272"/>
<polygon fill="black" stroke="black" points="380.27,-268.5 370.27,-272 380.27,-275.5 380.27,-268.5"/>
</g>
<!-- ObservationMatrixRowItem&#45;&gt;Project -->
<g id="edge17" class="edge">
<title>ObservationMatrixRowItem&#45;&gt;Project</title>
<path fill="none" stroke="black" stroke-dasharray="5,2" d="M331.14,-251.21C369.44,-241.73 412.09,-231.18 438.83,-224.57"/>
<polygon fill="black" stroke="black" points="329.86,-247.92 321,-253.72 331.54,-254.71 329.86,-247.92"/>
</g>
<!-- ObservationMatrixRowItem&#45;&gt;Updater -->
<g id="edge18" class="edge">
<title>ObservationMatrixRowItem&#45;&gt;Updater</title>
<path fill="none" stroke="black" stroke-dasharray="5,2" d="M340.76,-290.57C362.24,-294.07 385.03,-297.2 406.39,-299 459.53,-303.47 473.7,-307.29 526.39,-299 609.39,-285.94 702.36,-249.98 748.37,-230.67"/>
<polygon fill="black" stroke="black" points="341.11,-287.08 330.67,-288.88 339.95,-293.98 341.11,-287.08"/>
</g>
<!-- ObservationMatrixRowItem&#45;&gt;OriginCitation -->
<g id="edge19" class="edge">
<title>ObservationMatrixRowItem&#45;&gt;OriginCitation</title>
<path fill="none" stroke="black" stroke-dasharray="1,5" d="M307.69,-297.5C337.1,-309.18 373.18,-322.51 406.39,-332 463.74,-348.39 531.4,-360.77 575.51,-367.94"/>
<polygon fill="black" stroke="black" points="308.97,-294.24 298.38,-293.77 306.36,-300.74 308.97,-294.24"/>
</g>
<!-- CitationTopic&#45;&gt;Topic -->
<g id="edge12" class="edge">
<title>CitationTopic&#45;&gt;Topic</title>
<path fill="none" stroke="black" d="M292.32,-496C332.79,-496 391.35,-496 428.89,-496"/>
<polygon fill="black" stroke="black" points="429.36,-499.5 439.36,-496 429.36,-492.5 429.36,-499.5"/>
</g>
<!-- Role&#45;&gt;Verifier -->
<!-- SubsequentCitation&#45;&gt;SubsequentSource -->
<g id="edge10" class="edge">
<title>SubsequentCitation&#45;&gt;SubsequentSource</title>
<path fill="none" stroke="black" d="M684.42,-435C692.75,-435 701.36,-435 709.81,-435"/>
<polygon fill="black" stroke="black" points="710.03,-438.5 720.03,-435 710.03,-431.5 710.03,-438.5"/>
</g>
<!-- VerifierRole&#45;&gt;Verifier -->
<g id="edge14" class="edge">
<title>VerifierRole&#45;&gt;Verifier</title>
<path fill="none" stroke="black" d="M508.11,-64.91C531.76,-60.79 561.35,-55.63 584.49,-51.6"/>
<polygon fill="black" stroke="black" points="585.38,-55 594.63,-49.83 584.18,-48.1 585.38,-55"/>
</g>
<!-- Creator&#45;&gt;Updater -->
<!-- Project&#45;&gt;Creator -->
<!-- Citation -->
<g id="node1" class="node">
<title>Citation</title>
<g id="a_node1"><a xlink:href="/develop/Data/models.html#citation" xlink:title="Citation" target="_top">
<ellipse fill="#abcdef" stroke="#dddeee" cx="42.9" cy="-441" rx="38.99" ry="18"/>
<text text-anchor="middle" x="42.9" y="-437.3" font-family="Times,serif" font-size="14.00">Citation</text>
</a>
</g>
</g>
<!-- Identifier -->
<g id="node2" class="node">
<title>Identifier</title>
<g id="a_node2"><a xlink:href="/develop/Data/models.html#identifier" xlink:title="Identifier" target="_top">
<ellipse fill="#abcdef" stroke="#dddeee" cx="42.9" cy="-324" rx="42.79" ry="18"/>
<text text-anchor="middle" x="42.9" y="-320.3" font-family="Times,serif" font-size="14.00">Identifier</text>
</a>
</g>
</g>
<!-- Tag -->
<g id="node3" class="node">
<title>Tag</title>
<g id="a_node3"><a xlink:href="/develop/Data/models.html#tag" xlink:title="Tag" target="_top">
<ellipse fill="#abcdef" stroke="#dddeee" cx="42.9" cy="-215" rx="27" ry="18"/>
<text text-anchor="middle" x="42.9" y="-211.3" font-family="Times,serif" font-size="14.00">Tag</text>
</a>
</g>
</g>
<!-- Note -->
<g id="node4" class="node">
<title>Note</title>
<g id="a_node4"><a xlink:href="/develop/Data/models.html#note" xlink:title="Note" target="_top">
<ellipse fill="#abcdef" stroke="#dddeee" cx="42.9" cy="-270" rx="27.9" ry="18"/>
<text text-anchor="middle" x="42.9" y="-266.3" font-family="Times,serif" font-size="14.00">Note</text>
</a>
</g>
</g>
<!-- Source -->
<g id="node5" class="node">
<title>Source</title>
<g id="a_node5"><a xlink:href="/develop/Data/models.html#source" xlink:title="Source" target="_top">
<path fill="#fedcba" stroke="#dddeee" d="M451.39,-423C451.39,-423 481.39,-423 481.39,-423 487.39,-423 493.39,-429 493.39,-435 493.39,-435 493.39,-447 493.39,-447 493.39,-453 487.39,-459 481.39,-459 481.39,-459 451.39,-459 451.39,-459 445.39,-459 439.39,-453 439.39,-447 439.39,-447 439.39,-435 439.39,-435 439.39,-429 445.39,-423 451.39,-423"/>
<text text-anchor="middle" x="466.39" y="-437.3" font-family="Times,serif" font-size="14.00">Source</text>
</a>
</g>
</g>
<!-- ObservationMatrixRowItem -->
<g id="node6" class="node">
<title>ObservationMatrixRowItem</title>
<g id="a_node6"><a xlink:href="/develop/Data/models.html#observation-matrix-row-item" xlink:title="ObservationMatrixRowItem" target="_top">
<polygon fill="#cdefab" stroke="#dedede" points="366.19,-264.54 366.19,-279.46 295.84,-290 196.34,-290 125.99,-279.46 125.99,-264.54 196.34,-254 295.84,-254 366.19,-264.54"/>
<polygon fill="none" stroke="#dedede" points="370.18,-261.1 370.18,-282.9 296.13,-294 196.04,-294 121.99,-282.9 121.99,-261.1 196.04,-250 296.13,-250 370.18,-261.1"/>
<text text-anchor="middle" x="246.09" y="-268.3" font-family="Times,serif" font-size="14.00">ObservationMatrixRowItem</text>
</a>
</g>
</g>
<!-- CitationTopic -->
<g id="node7" class="node">
<title>CitationTopic</title>
<g id="a_node7"><a xlink:href="/develop/Data/models.html#citation-topic" xlink:title="CitationTopic" target="_top">
<polygon fill="#eeefff" stroke="#dddeee" points="292.09,-514 200.09,-514 200.09,-478 292.09,-478 292.09,-514"/>
<text text-anchor="middle" x="246.09" y="-492.3" font-family="Times,serif" font-size="14.00">CitationTopic</text>
</a>
</g>
</g>
<!-- Keyword -->
<g id="node8" class="node">
<title>Keyword</title>
<g id="a_node8"><a xlink:href="/develop/Data/models.html#keyword" xlink:title="Keyword" target="_top">
<polygon fill="#eeefff" stroke="#dddeee" points="279.59,-232 212.59,-232 212.59,-196 279.59,-196 279.59,-232"/>
<text text-anchor="middle" x="246.09" y="-210.3" font-family="Times,serif" font-size="14.00">Keyword</text>
</a>
</g>
</g>
<!-- PinboardItem -->
<g id="node9" class="node">
<title>PinboardItem</title>
<g id="a_node9"><a xlink:href="/develop/Data/models.html#pinboard-item" xlink:title="PinboardItem" target="_top">
<polygon fill="#eeefff" stroke="#dddeee" points="511.89,-144 420.89,-144 420.89,-108 511.89,-108 511.89,-144"/>
<text text-anchor="middle" x="466.39" y="-122.3" font-family="Times,serif" font-size="14.00">PinboardItem</text>
</a>
</g>
</g>
<!-- Role -->
<g id="node10" class="node">
<title>Role</title>
<g id="a_node10"><a xlink:href="/develop/Data/models.html#role" xlink:title="Role" target="_top">
<polygon fill="#eeefff" stroke="#dddeee" points="493.39,-36 439.39,-36 439.39,0 493.39,0 493.39,-36"/>
<text text-anchor="middle" x="466.39" y="-14.3" font-family="Times,serif" font-size="14.00">Role</text>
</a>
</g>
</g>
<!-- SubsequentCitation -->
<g id="node11" class="node">
<title>SubsequentCitation</title>
<g id="a_node11"><a xlink:href="/develop/Data/models.html#subsequent-citation" xlink:title="SubsequentCitation" target="_top">
<polygon fill="#eeefff" stroke="#dddeee" points="684.39,-453 562.39,-453 562.39,-417 684.39,-417 684.39,-453"/>
<text text-anchor="middle" x="623.39" y="-431.3" font-family="Times,serif" font-size="14.00">SubsequentCitation</text>
</a>
</g>
</g>
<!-- SubsequentSource -->
<g id="node12" class="node">
<title>SubsequentSource</title>
<g id="a_node12"><a xlink:href="/develop/Data/models.html#subsequent-source" xlink:title="SubsequentSource" target="_top">
<polygon fill="#eeefff" stroke="#dddeee" points="836.39,-453 720.39,-453 720.39,-417 836.39,-417 836.39,-453"/>
<text text-anchor="middle" x="778.39" y="-431.3" font-family="Times,serif" font-size="14.00">SubsequentSource</text>
</a>
</g>
</g>
<!-- Topic -->
<g id="node13" class="node">
<title>Topic</title>
<g id="a_node13"><a xlink:href="/develop/Data/models.html#topic" xlink:title="Topic" target="_top">
<polygon fill="#eeefff" stroke="#dddeee" points="493.39,-514 439.39,-514 439.39,-478 493.39,-478 493.39,-514"/>
<text text-anchor="middle" x="466.39" y="-492.3" font-family="Times,serif" font-size="14.00">Topic</text>
</a>
</g>
</g>
<!-- VerifierRole -->
<g id="node14" class="node">
<title>VerifierRole</title>
<g id="a_node14"><a xlink:href="/develop/Data/models.html#verifier-role" xlink:title="VerifierRole" target="_top">
<polygon fill="#eeefff" stroke="#dddeee" points="507.89,-90 424.89,-90 424.89,-54 507.89,-54 507.89,-90"/>
<text text-anchor="middle" x="466.39" y="-68.3" font-family="Times,serif" font-size="14.00">VerifierRole</text>
</a>
</g>
</g>
<!-- Verifier -->
<g id="node15" class="node">
<title>Verifier</title>
<g id="a_node15"><a xlink:href="/develop/Data/models.html#verifier" xlink:title="Verifier" target="_top">
<polygon fill="#eeefff" stroke="#dddeee" points="651.89,-63 594.89,-63 594.89,-27 651.89,-27 651.89,-63"/>
<text text-anchor="middle" x="623.39" y="-41.3" font-family="Times,serif" font-size="14.00">Verifier</text>
</a>
</g>
</g>
<!-- Creator -->
<g id="node16" class="node">
<title>Creator</title>
<g id="a_node16"><a xlink:href="/develop/Data/models.html#creator" xlink:title="Creator" target="_top">
<polygon fill="#eeefff" stroke="#dddeee" points="651.89,-236 594.89,-236 594.89,-200 651.89,-200 651.89,-236"/>
<text text-anchor="middle" x="623.39" y="-214.3" font-family="Times,serif" font-size="14.00">Creator</text>
</a>
</g>
</g>
<!-- ObservationMatrix -->
<g id="node17" class="node">
<title>ObservationMatrix</title>
<g id="a_node17"><a xlink:href="/develop/Data/models.html#observation-matrix" xlink:title="ObservationMatrix" target="_top">
<polygon fill="#eeefff" stroke="#dddeee" points="526.39,-290 406.39,-290 406.39,-254 526.39,-254 526.39,-290"/>
<text text-anchor="middle" x="466.39" y="-268.3" font-family="Times,serif" font-size="14.00">ObservationMatrix</text>
</a>
</g>
</g>
<!-- Project -->
<g id="node18" class="node">
<title>Project</title>
<g id="a_node18"><a xlink:href="/develop/Data/models.html#project" xlink:title="Project" target="_top">
<polygon fill="#eeefff" stroke="#dddeee" points="493.89,-236 438.89,-236 438.89,-200 493.89,-200 493.89,-236"/>
<text text-anchor="middle" x="466.39" y="-214.3" font-family="Times,serif" font-size="14.00">Project</text>
</a>
</g>
</g>
<!-- Updater -->
<g id="node19" class="node">
<title>Updater</title>
<g id="a_node19"><a xlink:href="/develop/Data/models.html#updater" xlink:title="Updater" target="_top">
<polygon fill="#eeefff" stroke="#dddeee" points="808.39,-236 748.39,-236 748.39,-200 808.39,-200 808.39,-236"/>
<text text-anchor="middle" x="778.39" y="-214.3" font-family="Times,serif" font-size="14.00">Updater</text>
</a>
</g>
</g>
<!-- OriginCitation -->
<g id="node20" class="node">
<title>OriginCitation</title>
<g id="a_node20"><a xlink:href="/develop/Data/models.html#origin-citation" xlink:title="OriginCitation" target="_top">
<polygon fill="#eeefff" stroke="#dddeee" points="670.89,-393 575.89,-393 575.89,-357 670.89,-357 670.89,-393"/>
<text text-anchor="middle" x="623.39" y="-371.3" font-family="Times,serif" font-size="14.00">OriginCitation</text>
</a>
</g>
</g>
</g>
</svg>
