<?xml version="1.0" encoding="UTF-8" standalone="no"?>
<!DOCTYPE svg PUBLIC "-//W3C//DTD SVG 1.1//EN"
 "http://www.w3.org/Graphics/SVG/1.1/DTD/svg11.dtd">
<!-- Generated by graphviz version 2.50.0 (20211204.2007)
 -->
<!-- Title: ObservationMatrix Pages: 1 -->
<svg width="1082pt" height="671pt"
 viewBox="0.00 0.00 1082.13 670.50" xmlns="http://www.w3.org/2000/svg" xmlns:xlink="http://www.w3.org/1999/xlink">
<g id="graph0" class="graph" transform="scale(1 1) rotate(0) translate(4 666.5)">
<title>ObservationMatrix</title>
<polygon fill="white" stroke="transparent" points="-4,4 -4,-666.5 1078.13,-666.5 1078.13,4 -4,4"/>
<!-- Citation&#45;&gt;Source -->
<g id="edge16" class="edge">
<title>Citation&#45;&gt;Source</title>
<path fill="none" stroke="black" d="M98.39,-589.5C173.95,-589.5 341.39,-589.5 415.33,-589.5"/>
<polygon fill="black" stroke="black" points="415.54,-593 425.54,-589.5 415.54,-586 415.54,-593"/>
</g>
<!-- Citation&#45;&gt;CitationTopic -->
<g id="edge1" class="edge">
<title>Citation&#45;&gt;CitationTopic</title>
<path fill="none" stroke="black" d="M92.19,-599.21C118.37,-607.14 155.97,-618.53 186.92,-627.9"/>
<polygon fill="black" stroke="black" points="186.12,-631.32 196.71,-630.87 188.15,-624.62 186.12,-631.32"/>
</g>
<!-- Tag&#45;&gt;Keyword -->
<g id="edge7" class="edge">
<title>Tag&#45;&gt;Keyword</title>
<path fill="none" stroke="black" d="M86.16,-268.5C115.48,-268.5 163.62,-268.5 198.59,-268.5"/>
<polygon fill="black" stroke="black" points="198.98,-272 208.98,-268.5 198.98,-265 198.98,-272"/>
</g>
<!-- Source&#45;&gt;SubsequentCitation -->
<!-- Source&#45;&gt;OriginCitation -->
<!-- ObservationMatrix&#45;&gt;Citation -->
<g id="edge2" class="edge">
<title>ObservationMatrix&#45;&gt;Citation</title>
<path fill="none" stroke="black" d="M224.91,-373.52C191.12,-417.82 115.11,-517.45 79.38,-564.28"/>
<polygon fill="black" stroke="black" points="76.49,-562.31 73.2,-572.38 82.05,-566.56 76.49,-562.31"/>
</g>
<!-- ObservationMatrix&#45;&gt;DataAttribute -->
<g id="edge4" class="edge">
<title>ObservationMatrix&#45;&gt;DataAttribute</title>
<path fill="none" stroke="black" d="M196.18,-371.31C167.76,-383.68 131.38,-399.51 103.39,-411.68"/>
<polygon fill="black" stroke="black" points="101.64,-408.63 93.87,-415.83 104.44,-415.05 101.64,-408.63"/>
</g>
<!-- ObservationMatrix&#45;&gt;Identifier -->
<g id="edge6" class="edge">
<title>ObservationMatrix&#45;&gt;Identifier</title>
<path fill="none" stroke="black" d="M158.01,-363.02C141.73,-365.27 125.14,-367.55 110.36,-369.59"/>
<polygon fill="black" stroke="black" points="109.87,-366.12 100.44,-370.95 110.82,-373.05 109.87,-366.12"/>
</g>
<!-- ObservationMatrix&#45;&gt;Tag -->
<g id="edge19" class="edge">
<title>ObservationMatrix&#45;&gt;Tag</title>
<path fill="none" stroke="black" d="M197.9,-331.47C165.01,-316.44 120.77,-296.21 91.4,-282.79"/>
<polygon fill="black" stroke="black" points="92.6,-279.49 82.05,-278.51 89.69,-285.85 92.6,-279.49"/>
</g>
<!-- ObservationMatrix&#45;&gt;Note -->
<g id="edge8" class="edge">
<title>ObservationMatrix&#45;&gt;Note</title>
<path fill="none" stroke="black" d="M163,-338.93C139.88,-335.24 115.7,-331.37 96.6,-328.32"/>
<polygon fill="black" stroke="black" points="96.97,-324.84 86.55,-326.72 95.87,-331.75 96.97,-324.84"/>
</g>
<!-- ObservationMatrix&#45;&gt;Source -->
<g id="edge27" class="edge">
<title>ObservationMatrix&#45;&gt;Source</title>
<path fill="none" stroke="black" stroke-dasharray="1,5" d="M255.07,-383C272.61,-427.47 310.29,-508.57 367.13,-556.5 383.86,-570.61 407.34,-579.13 425.3,-583.97"/>
<polygon fill="black" stroke="black" points="258.3,-381.64 251.44,-373.57 251.77,-384.16 258.3,-381.64"/>
</g>
<!-- ObservationMatrix&#45;&gt;ObservationMatrixRow -->
<g id="edge12" class="edge">
<title>ObservationMatrix&#45;&gt;ObservationMatrixRow</title>
<path fill="none" stroke="black" d="M289.66,-331.81C305.17,-322.92 321.09,-310.9 331.13,-295.5 388.09,-208.08 287.89,-131.39 367.13,-63.5 444.32,2.64 572.91,-65.33 633.95,-104.68"/>
<polygon fill="black" stroke="black" points="632.17,-107.7 642.45,-110.26 636.01,-101.85 632.17,-107.7"/>
</g>
<!-- ObservationMatrix&#45;&gt;ObservationMatrixColumn -->
<g id="edge10" class="edge">
<title>ObservationMatrix&#45;&gt;ObservationMatrixColumn</title>
<path fill="none" stroke="black" d="M283.28,-330.27C299.08,-320.78 316.87,-308.75 331.13,-295.5 350.67,-277.35 343.87,-260.55 367.13,-247.5 444.42,-204.13 680.89,-239.93 764.13,-209.5 798.23,-197.03 831.73,-172.19 854.09,-153.28"/>
<polygon fill="black" stroke="black" points="856.52,-155.81 861.8,-146.62 851.94,-150.51 856.52,-155.81"/>
</g>
<!-- ObservationMatrix&#45;&gt;ObservationMatrixColumnItem -->
<g id="edge9" class="edge">
<title>ObservationMatrix&#45;&gt;ObservationMatrixColumnItem</title>
<path fill="none" stroke="black" d="M286.2,-331.02C301.87,-321.86 318.8,-309.86 331.13,-295.5 356.8,-265.61 335.28,-237.69 367.13,-214.5 397.76,-192.2 489.41,-184.87 563.6,-182.72"/>
<polygon fill="black" stroke="black" points="564.04,-186.21 573.94,-182.45 563.86,-179.21 564.04,-186.21"/>
</g>
<!-- ObservationMatrix&#45;&gt;ObservationMatrixRowItem -->
<g id="edge11" class="edge">
<title>ObservationMatrix&#45;&gt;ObservationMatrixRowItem</title>
<path fill="none" stroke="black" d="M287.61,-331.53C303.27,-322.5 319.82,-310.45 331.13,-295.5 364.45,-251.43 329.41,-216.88 367.13,-176.5 370.02,-173.4 373.24,-170.61 376.69,-168.08"/>
<polygon fill="black" stroke="black" points="378.6,-171.01 385.1,-162.65 374.8,-165.13 378.6,-171.01"/>
</g>
<!-- ObservationMatrix&#45;&gt;PinboardItem -->
<g id="edge14" class="edge">
<title>ObservationMatrix&#45;&gt;PinboardItem</title>
<path fill="none" stroke="black" d="M289.28,-331.56C304.75,-322.64 320.74,-310.67 331.13,-295.5 376.72,-228.9 313.27,-177.62 367.13,-117.5 375,-108.72 385.72,-102.77 396.88,-98.75"/>
<polygon fill="black" stroke="black" points="398.23,-102 406.74,-95.7 396.16,-95.31 398.23,-102"/>
</g>
<!-- ObservationMatrix&#45;&gt;Role -->
<g id="edge15" class="edge">
<title>ObservationMatrix&#45;&gt;Role</title>
<path fill="none" stroke="black" d="M289.69,-331.91C312.77,-322.32 341.26,-310.86 367.13,-301.5 382.9,-295.8 400.54,-290.06 415.6,-285.35"/>
<polygon fill="black" stroke="black" points="417.05,-288.57 425.57,-282.27 414.98,-281.88 417.05,-288.57"/>
</g>
<!-- ObservationMatrix&#45;&gt;SubsequentCitation -->
<g id="edge17" class="edge">
<title>ObservationMatrix&#45;&gt;SubsequentCitation</title>
<path fill="none" stroke="black" d="M259.67,-373.6C280.86,-401.07 321,-447.08 367.13,-469.5 440.21,-505.02 534.23,-513.37 597.59,-514.38"/>
<polygon fill="black" stroke="black" points="597.84,-517.89 607.88,-514.49 597.91,-510.89 597.84,-517.89"/>
</g>
<!-- ObservationMatrix&#45;&gt;VerifierRole -->
<g id="edge21" class="edge">
<title>ObservationMatrix&#45;&gt;VerifierRole</title>
<path fill="none" stroke="black" d="M331.28,-341.81C355.03,-339.19 379.95,-336.43 400.91,-334.11"/>
<polygon fill="black" stroke="black" points="401.31,-337.59 410.86,-333.01 400.54,-330.63 401.31,-337.59"/>
</g>
<!-- ObservationMatrix&#45;&gt;Creator -->
<g id="edge23" class="edge">
<title>ObservationMatrix&#45;&gt;Creator</title>
<path fill="none" stroke="black" stroke-dasharray="5,2" d="M270.37,-380.97C293.39,-404.05 328.9,-434.38 367.13,-447.5 463.16,-480.45 585.98,-448.16 640.24,-430.43"/>
<polygon fill="black" stroke="black" points="272.83,-378.48 263.35,-373.76 267.82,-383.36 272.83,-378.48"/>
</g>
<!-- ObservationMatrix&#45;&gt;Project -->
<g id="edge24" class="edge">
<title>ObservationMatrix&#45;&gt;Project</title>
<path fill="none" stroke="black" stroke-dasharray="5,2" d="M307.09,-372.53C346.61,-385.65 395.41,-401.84 424.99,-411.66"/>
<polygon fill="black" stroke="black" points="308.12,-369.19 297.52,-369.36 305.91,-375.83 308.12,-369.19"/>
</g>
<!-- ObservationMatrix&#45;&gt;Updater -->
<g id="edge25" class="edge">
<title>ObservationMatrix&#45;&gt;Updater</title>
<path fill="none" stroke="black" stroke-dasharray="5,2" d="M341.44,-355.12C446.4,-360 617.84,-370.84 764.13,-393.5 794.41,-398.19 828.49,-406.4 852.03,-412.53"/>
<polygon fill="black" stroke="black" points="341.33,-351.61 331.18,-354.65 341.01,-358.6 341.33,-351.61"/>
</g>
<!-- ObservationMatrix&#45;&gt;OriginCitation -->
<g id="edge26" class="edge">
<title>ObservationMatrix&#45;&gt;OriginCitation</title>
<path fill="none" stroke="black" stroke-dasharray="1,5" d="M260.51,-382.61C281.03,-417.61 319.03,-473.59 367.13,-504.5 409.16,-531.51 547.98,-559.75 621.5,-573.3"/>
<polygon fill="black" stroke="black" points="263.44,-380.7 255.43,-373.77 257.37,-384.18 263.44,-380.7"/>
</g>
<!-- CitationTopic&#45;&gt;Topic -->
<g id="edge20" class="edge">
<title>CitationTopic&#45;&gt;Topic</title>
<path fill="none" stroke="black" d="M288.82,-644.5C326.71,-644.5 380.13,-644.5 415.31,-644.5"/>
<polygon fill="black" stroke="black" points="415.6,-648 425.6,-644.5 415.6,-641 415.6,-648"/>
</g>
<!-- ObservationMatrixRow&#45;&gt;CollectionObject -->
<g id="edge3" class="edge">
<title>ObservationMatrixRow&#45;&gt;CollectionObject</title>
<path fill="none" stroke="black" d="M739.22,-110.49C764.46,-103.91 792.88,-96.5 817.62,-90.05"/>
<polygon fill="black" stroke="black" points="818.82,-93.36 827.61,-87.45 817.06,-86.58 818.82,-93.36"/>
</g>
<!-- ObservationMatrixRow&#45;&gt;Otu -->
<g id="edge13" class="edge">
<title>ObservationMatrixRow&#45;&gt;Otu</title>
<path fill="none" stroke="black" d="M694.47,-110.36C719.83,-92.1 761.21,-64.06 800.13,-45.5 814.34,-38.72 830.7,-32.92 844.98,-28.45"/>
<polygon fill="black" stroke="black" points="846.4,-31.68 854.96,-25.44 844.37,-24.98 846.4,-31.68"/>
</g>
<!-- ObservationMatrixRow&#45;&gt;ObservationMatrixColumn -->
<!-- ObservationMatrixColumn&#45;&gt;Descriptor -->
<g id="edge5" class="edge">
<title>ObservationMatrixColumn&#45;&gt;Descriptor</title>
<path fill="none" stroke="black" d="M964.56,-128.5C973.19,-128.5 981.74,-128.5 989.76,-128.5"/>
<polygon fill="black" stroke="black" points="989.97,-132 999.97,-128.5 989.97,-125 989.97,-132"/>
</g>
<!-- ObservationMatrixRowItem&#45;&gt;ObservationMatrixRow -->
<!-- ObservationMatrixRowItem&#45;&gt;ObservationMatrixColumnItem -->
<!-- Role&#45;&gt;Verifier -->
<!-- SubsequentCitation&#45;&gt;SubsequentSource -->
<g id="edge18" class="edge">
<title>SubsequentCitation&#45;&gt;SubsequentSource</title>
<path fill="none" stroke="black" d="M730.31,-512.5C756.34,-512.5 786.91,-512.5 813.71,-512.5"/>
<polygon fill="black" stroke="black" points="813.77,-516 823.77,-512.5 813.77,-509 813.77,-516"/>
</g>
<!-- VerifierRole&#45;&gt;Verifier -->
<g id="edge22" class="edge">
<title>VerifierRole&#45;&gt;Verifier</title>
<path fill="none" stroke="black" d="M494.23,-323.39C533.3,-318.47 591.94,-311.09 630.13,-306.28"/>
<polygon fill="black" stroke="black" points="630.83,-309.72 640.32,-305 629.96,-302.78 630.83,-309.72"/>
</g>
<!-- Creator&#45;&gt;Updater -->
<!-- Project&#45;&gt;Creator -->
<!-- Citation -->
<g id="node1" class="node">
<title>Citation</title>
<g id="a_node1"><a xlink:href="/develop/Data/models.html#citation" xlink:title="Citation" target="_top">
<ellipse fill="#abcdef" stroke="#dddeee" cx="59.14" cy="-589.5" rx="38.99" ry="18"/>
<text text-anchor="middle" x="59.14" y="-585.8" font-family="Times,serif" font-size="14.00">Citation</text>
</a>
</g>
</g>
<!-- DataAttribute -->
<g id="node2" class="node">
<title>DataAttribute</title>
<g id="a_node2"><a xlink:href="/develop/Data/models.html#data-attribute" xlink:title="DataAttribute" target="_top">
<ellipse fill="#abcdef" stroke="#dddeee" cx="59.14" cy="-430.5" rx="59.29" ry="18"/>
<text text-anchor="middle" x="59.14" y="-426.8" font-family="Times,serif" font-size="14.00">DataAttribute</text>
</a>
</g>
</g>
<!-- Identifier -->
<g id="node3" class="node">
<title>Identifier</title>
<g id="a_node3"><a xlink:href="/develop/Data/models.html#identifier" xlink:title="Identifier" target="_top">
<ellipse fill="#abcdef" stroke="#dddeee" cx="59.14" cy="-376.5" rx="42.79" ry="18"/>
<text text-anchor="middle" x="59.14" y="-372.8" font-family="Times,serif" font-size="14.00">Identifier</text>
</a>
</g>
</g>
<!-- Tag -->
<g id="node4" class="node">
<title>Tag</title>
<g id="a_node4"><a xlink:href="/develop/Data/models.html#tag" xlink:title="Tag" target="_top">
<ellipse fill="#abcdef" stroke="#dddeee" cx="59.14" cy="-268.5" rx="27" ry="18"/>
<text text-anchor="middle" x="59.14" y="-264.8" font-family="Times,serif" font-size="14.00">Tag</text>
</a>
</g>
</g>
<!-- Note -->
<g id="node5" class="node">
<title>Note</title>
<g id="a_node5"><a xlink:href="/develop/Data/models.html#note" xlink:title="Note" target="_top">
<ellipse fill="#abcdef" stroke="#dddeee" cx="59.14" cy="-322.5" rx="27.9" ry="18"/>
<text text-anchor="middle" x="59.14" y="-318.8" font-family="Times,serif" font-size="14.00">Note</text>
</a>
</g>
</g>
<!-- CollectionObject -->
<g id="node6" class="node">
<title>CollectionObject</title>
<g id="a_node6"><a xlink:href="/develop/Data/models.html#collection-object" xlink:title="CollectionObject" target="_top">
<path fill="#fedcba" stroke="#dddeee" d="M839.63,-55.5C839.63,-55.5 924.63,-55.5 924.63,-55.5 930.63,-55.5 936.63,-61.5 936.63,-67.5 936.63,-67.5 936.63,-79.5 936.63,-79.5 936.63,-85.5 930.63,-91.5 924.63,-91.5 924.63,-91.5 839.63,-91.5 839.63,-91.5 833.63,-91.5 827.63,-85.5 827.63,-79.5 827.63,-79.5 827.63,-67.5 827.63,-67.5 827.63,-61.5 833.63,-55.5 839.63,-55.5"/>
<text text-anchor="middle" x="882.13" y="-69.8" font-family="Times,serif" font-size="14.00">CollectionObject</text>
</a>
</g>
</g>
<!-- Descriptor -->
<g id="node7" class="node">
<title>Descriptor</title>
<g id="a_node7"><a xlink:href="/develop/Data/models.html#descriptor" xlink:title="Descriptor" target="_top">
<path fill="#fedcba" stroke="#dddeee" d="M1012.13,-110.5C1012.13,-110.5 1062.13,-110.5 1062.13,-110.5 1068.13,-110.5 1074.13,-116.5 1074.13,-122.5 1074.13,-122.5 1074.13,-134.5 1074.13,-134.5 1074.13,-140.5 1068.13,-146.5 1062.13,-146.5 1062.13,-146.5 1012.13,-146.5 1012.13,-146.5 1006.13,-146.5 1000.13,-140.5 1000.13,-134.5 1000.13,-134.5 1000.13,-122.5 1000.13,-122.5 1000.13,-116.5 1006.13,-110.5 1012.13,-110.5"/>
<text text-anchor="middle" x="1037.13" y="-124.8" font-family="Times,serif" font-size="14.00">Descriptor</text>
</a>
</g>
</g>
<!-- Otu -->
<g id="node8" class="node">
<title>Otu</title>
<g id="a_node8"><a xlink:href="/develop/Data/models.html#otu" xlink:title="Otu" target="_top">
<path fill="#fedcba" stroke="#dddeee" d="M867.13,-0.5C867.13,-0.5 897.13,-0.5 897.13,-0.5 903.13,-0.5 909.13,-6.5 909.13,-12.5 909.13,-12.5 909.13,-24.5 909.13,-24.5 909.13,-30.5 903.13,-36.5 897.13,-36.5 897.13,-36.5 867.13,-36.5 867.13,-36.5 861.13,-36.5 855.13,-30.5 855.13,-24.5 855.13,-24.5 855.13,-12.5 855.13,-12.5 855.13,-6.5 861.13,-0.5 867.13,-0.5"/>
<text text-anchor="middle" x="882.13" y="-14.8" font-family="Times,serif" font-size="14.00">Otu</text>
</a>
</g>
</g>
<!-- Source -->
<g id="node9" class="node">
<title>Source</title>
<g id="a_node9"><a xlink:href="/develop/Data/models.html#source" xlink:title="Source" target="_top">
<path fill="#fedcba" stroke="#dddeee" d="M437.63,-571.5C437.63,-571.5 467.63,-571.5 467.63,-571.5 473.63,-571.5 479.63,-577.5 479.63,-583.5 479.63,-583.5 479.63,-595.5 479.63,-595.5 479.63,-601.5 473.63,-607.5 467.63,-607.5 467.63,-607.5 437.63,-607.5 437.63,-607.5 431.63,-607.5 425.63,-601.5 425.63,-595.5 425.63,-595.5 425.63,-583.5 425.63,-583.5 425.63,-577.5 431.63,-571.5 437.63,-571.5"/>
<text text-anchor="middle" x="452.63" y="-585.8" font-family="Times,serif" font-size="14.00">Source</text>
</a>
</g>
</g>
<!-- ObservationMatrix -->
<g id="node10" class="node">
<title>ObservationMatrix</title>
<g id="a_node10"><a xlink:href="/develop/Data/models.html#observation-matrix" xlink:title="ObservationMatrix" target="_top">
<polygon fill="#cdefab" stroke="#dedede" points="327.05,-344.04 327.05,-358.96 277.64,-369.5 207.77,-369.5 158.37,-358.96 158.37,-344.04 207.77,-333.5 277.64,-333.5 327.05,-344.04"/>
<polygon fill="none" stroke="#dedede" points="331.05,-340.81 331.05,-362.19 278.07,-373.5 207.35,-373.5 154.37,-362.19 154.37,-340.81 207.35,-329.5 278.07,-329.5 331.05,-340.81"/>
<text text-anchor="middle" x="242.71" y="-347.8" font-family="Times,serif" font-size="14.00">ObservationMatrix</text>
</a>
</g>
</g>
<!-- CitationTopic -->
<g id="node11" class="node">
<title>CitationTopic</title>
<g id="a_node11"><a xlink:href="/develop/Data/models.html#citation-topic" xlink:title="CitationTopic" target="_top">
<polygon fill="#eeefff" stroke="#dddeee" points="288.71,-662.5 196.71,-662.5 196.71,-626.5 288.71,-626.5 288.71,-662.5"/>
<text text-anchor="middle" x="242.71" y="-640.8" font-family="Times,serif" font-size="14.00">CitationTopic</text>
</a>
</g>
</g>
<!-- ObservationMatrixRow -->
<g id="node12" class="node">
<title>ObservationMatrixRow</title>
<g id="a_node12"><a xlink:href="/develop/Data/models.html#observation-matrix-row" xlink:title="ObservationMatrixRow" target="_top">
<polygon fill="#eeefff" stroke="#dddeee" points="742.13,-146.5 596.13,-146.5 596.13,-110.5 742.13,-110.5 742.13,-146.5"/>
<text text-anchor="middle" x="669.13" y="-124.8" font-family="Times,serif" font-size="14.00">ObservationMatrixRow</text>
</a>
</g>
</g>
<!-- ObservationMatrixColumn -->
<g id="node13" class="node">
<title>ObservationMatrixColumn</title>
<g id="a_node13"><a xlink:href="/develop/Data/models.html#observation-matrix-column" xlink:title="ObservationMatrixColumn" target="_top">
<polygon fill="#eeefff" stroke="#dddeee" points="964.13,-146.5 800.13,-146.5 800.13,-110.5 964.13,-110.5 964.13,-146.5"/>
<text text-anchor="middle" x="882.13" y="-124.8" font-family="Times,serif" font-size="14.00">ObservationMatrixColumn</text>
</a>
</g>
</g>
<!-- Keyword -->
<g id="node14" class="node">
<title>Keyword</title>
<g id="a_node14"><a xlink:href="/develop/Data/models.html#keyword" xlink:title="Keyword" target="_top">
<polygon fill="#eeefff" stroke="#dddeee" points="276.21,-286.5 209.21,-286.5 209.21,-250.5 276.21,-250.5 276.21,-286.5"/>
<text text-anchor="middle" x="242.71" y="-264.8" font-family="Times,serif" font-size="14.00">Keyword</text>
</a>
</g>
</g>
<!-- ObservationMatrixColumnItem -->
<g id="node15" class="node">
<title>ObservationMatrixColumnItem</title>
<g id="a_node15"><a xlink:href="/develop/Data/models.html#observation-matrix-column-item" xlink:title="ObservationMatrixColumnItem" target="_top">
<polygon fill="#eeefff" stroke="#dddeee" points="764.13,-200.5 574.13,-200.5 574.13,-164.5 764.13,-164.5 764.13,-200.5"/>
<text text-anchor="middle" x="669.13" y="-178.8" font-family="Times,serif" font-size="14.00">ObservationMatrixColumnItem</text>
</a>
</g>
</g>
<!-- ObservationMatrixRowItem -->
<g id="node16" class="node">
<title>ObservationMatrixRowItem</title>
<g id="a_node16"><a xlink:href="/develop/Data/models.html#observation-matrix-row-item" xlink:title="ObservationMatrixRowItem" target="_top">
<polygon fill="#eeefff" stroke="#dddeee" points="538.13,-162.5 367.13,-162.5 367.13,-126.5 538.13,-126.5 538.13,-162.5"/>
<text text-anchor="middle" x="452.63" y="-140.8" font-family="Times,serif" font-size="14.00">ObservationMatrixRowItem</text>
</a>
</g>
</g>
<!-- PinboardItem -->
<g id="node17" class="node">
<title>PinboardItem</title>
<g id="a_node17"><a xlink:href="/develop/Data/models.html#pinboard-item" xlink:title="PinboardItem" target="_top">
<polygon fill="#eeefff" stroke="#dddeee" points="498.13,-108.5 407.13,-108.5 407.13,-72.5 498.13,-72.5 498.13,-108.5"/>
<text text-anchor="middle" x="452.63" y="-86.8" font-family="Times,serif" font-size="14.00">PinboardItem</text>
</a>
</g>
</g>
<!-- Role -->
<g id="node18" class="node">
<title>Role</title>
<g id="a_node18"><a xlink:href="/develop/Data/models.html#role" xlink:title="Role" target="_top">
<polygon fill="#eeefff" stroke="#dddeee" points="479.63,-292.5 425.63,-292.5 425.63,-256.5 479.63,-256.5 479.63,-292.5"/>
<text text-anchor="middle" x="452.63" y="-270.8" font-family="Times,serif" font-size="14.00">Role</text>
</a>
</g>
</g>
<!-- SubsequentCitation -->
<g id="node19" class="node">
<title>SubsequentCitation</title>
<g id="a_node19"><a xlink:href="/develop/Data/models.html#subsequent-citation" xlink:title="SubsequentCitation" target="_top">
<polygon fill="#eeefff" stroke="#dddeee" points="730.13,-530.5 608.13,-530.5 608.13,-494.5 730.13,-494.5 730.13,-530.5"/>
<text text-anchor="middle" x="669.13" y="-508.8" font-family="Times,serif" font-size="14.00">SubsequentCitation</text>
</a>
</g>
</g>
<!-- SubsequentSource -->
<g id="node20" class="node">
<title>SubsequentSource</title>
<g id="a_node20"><a xlink:href="/develop/Data/models.html#subsequent-source" xlink:title="SubsequentSource" target="_top">
<polygon fill="#eeefff" stroke="#dddeee" points="940.13,-530.5 824.13,-530.5 824.13,-494.5 940.13,-494.5 940.13,-530.5"/>
<text text-anchor="middle" x="882.13" y="-508.8" font-family="Times,serif" font-size="14.00">SubsequentSource</text>
</a>
</g>
</g>
<!-- Topic -->
<g id="node21" class="node">
<title>Topic</title>
<g id="a_node21"><a xlink:href="/develop/Data/models.html#topic" xlink:title="Topic" target="_top">
<polygon fill="#eeefff" stroke="#dddeee" points="479.63,-662.5 425.63,-662.5 425.63,-626.5 479.63,-626.5 479.63,-662.5"/>
<text text-anchor="middle" x="452.63" y="-640.8" font-family="Times,serif" font-size="14.00">Topic</text>
</a>
</g>
</g>
<!-- VerifierRole -->
<g id="node22" class="node">
<title>VerifierRole</title>
<g id="a_node22"><a xlink:href="/develop/Data/models.html#verifier-role" xlink:title="VerifierRole" target="_top">
<polygon fill="#eeefff" stroke="#dddeee" points="494.13,-346.5 411.13,-346.5 411.13,-310.5 494.13,-310.5 494.13,-346.5"/>
<text text-anchor="middle" x="452.63" y="-324.8" font-family="Times,serif" font-size="14.00">VerifierRole</text>
</a>
</g>
</g>
<!-- Verifier -->
<g id="node23" class="node">
<title>Verifier</title>
<g id="a_node23"><a xlink:href="/develop/Data/models.html#verifier" xlink:title="Verifier" target="_top">
<polygon fill="#eeefff" stroke="#dddeee" points="697.63,-319.5 640.63,-319.5 640.63,-283.5 697.63,-283.5 697.63,-319.5"/>
<text text-anchor="middle" x="669.13" y="-297.8" font-family="Times,serif" font-size="14.00">Verifier</text>
</a>
</g>
</g>
<!-- Creator -->
<g id="node24" class="node">
<title>Creator</title>
<g id="a_node24"><a xlink:href="/develop/Data/models.html#creator" xlink:title="Creator" target="_top">
<polygon fill="#eeefff" stroke="#dddeee" points="697.63,-438.5 640.63,-438.5 640.63,-402.5 697.63,-402.5 697.63,-438.5"/>
<text text-anchor="middle" x="669.13" y="-416.8" font-family="Times,serif" font-size="14.00">Creator</text>
</a>
</g>
</g>
<!-- Project -->
<g id="node25" class="node">
<title>Project</title>
<g id="a_node25"><a xlink:href="/develop/Data/models.html#project" xlink:title="Project" target="_top">
<polygon fill="#eeefff" stroke="#dddeee" points="480.13,-438.5 425.13,-438.5 425.13,-402.5 480.13,-402.5 480.13,-438.5"/>
<text text-anchor="middle" x="452.63" y="-416.8" font-family="Times,serif" font-size="14.00">Project</text>
</a>
</g>
</g>
<!-- Updater -->
<g id="node26" class="node">
<title>Updater</title>
<g id="a_node26"><a xlink:href="/develop/Data/models.html#updater" xlink:title="Updater" target="_top">
<polygon fill="#eeefff" stroke="#dddeee" points="912.13,-438.5 852.13,-438.5 852.13,-402.5 912.13,-402.5 912.13,-438.5"/>
<text text-anchor="middle" x="882.13" y="-416.8" font-family="Times,serif" font-size="14.00">Updater</text>
</a>
</g>
</g>
<!-- OriginCitation -->
<g id="node27" class="node">
<title>OriginCitation</title>
<g id="a_node27"><a xlink:href="/develop/Data/models.html#origin-citation" xlink:title="OriginCitation" target="_top">
<polygon fill="#eeefff" stroke="#dddeee" points="716.63,-599.5 621.63,-599.5 621.63,-563.5 716.63,-563.5 716.63,-599.5"/>
<text text-anchor="middle" x="669.13" y="-577.8" font-family="Times,serif" font-size="14.00">OriginCitation</text>
</a>
</g>
</g>
</g>
</svg>
