<?xml version="1.0" encoding="UTF-8" standalone="no"?>
<!DOCTYPE svg PUBLIC "-//W3C//DTD SVG 1.1//EN"
 "http://www.w3.org/Graphics/SVG/1.1/DTD/svg11.dtd">
<!-- Generated by graphviz version 12.2.1 (20241206.2353)
 -->
<!-- Title: ObservationMatrixColumn Pages: 1 -->
<svg width="696pt" height="383pt"
 viewBox="0.00 0.00 695.82 383.10" xmlns="http://www.w3.org/2000/svg" xmlns:xlink="http://www.w3.org/1999/xlink">
<g id="graph0" class="graph" transform="scale(1 1) rotate(0) translate(4 379.1)">
<title>ObservationMatrixColumn</title>
<polygon fill="white" stroke="none" points="-4,4 -4,-379.1 691.82,-379.1 691.82,4 -4,4"/>
<!-- Tag&#45;&gt;Keyword -->
<g id="edge1" class="edge">
<title>Tag&#45;&gt;Keyword</title>
<path fill="none" stroke="black" stroke-dasharray="1,5" d="M55.94,-226.88C86.41,-227.2 137.25,-227.74 173.8,-228.13"/>
<polygon fill="black" stroke="black" points="173.56,-231.63 183.6,-228.24 173.64,-224.63 173.56,-231.63"/>
</g>
<!-- ObservationMatrixColumn&#45;&gt;Tag -->
<g id="edge5" class="edge">
<title>ObservationMatrixColumn&#45;&gt;Tag</title>
<path fill="none" stroke="black" d="M138.83,-188.69C123.74,-192.61 108.14,-196.97 93.66,-201.6 83.45,-204.86 72.52,-208.92 62.64,-212.82"/>
<polygon fill="black" stroke="black" points="61.4,-209.54 53.43,-216.53 64.02,-216.04 61.4,-209.54"/>
</g>
<!-- ObservationMatrixColumn&#45;&gt;Note -->
<g id="edge2" class="edge">
<title>ObservationMatrixColumn&#45;&gt;Note</title>
<path fill="none" stroke="black" d="M93.32,-170.6C84.85,-170.6 76.75,-170.6 69.34,-170.6"/>
<polygon fill="black" stroke="black" points="69.46,-167.1 59.46,-170.6 69.46,-174.1 69.46,-167.1"/>
</g>
<!-- ObservationMatrixColumn&#45;&gt;Descriptor -->
<g id="edge9" class="edge">
<title>ObservationMatrixColumn&#45;&gt;Descriptor</title>
<path fill="none" stroke="black" stroke-dasharray="5,2" d="M329.85,-190.91C334.78,-194.01 339.39,-197.55 343.57,-201.6 385.69,-242.43 341.72,-283.77 379.57,-328.6 385.62,-335.76 393.92,-341.23 402.38,-345.34"/>
<polygon fill="black" stroke="black" points="331.8,-187.99 321.35,-186.21 328.41,-194.11 331.8,-187.99"/>
</g>
<!-- ObservationMatrixColumn&#45;&gt;PinboardItem -->
<g id="edge3" class="edge">
<title>ObservationMatrixColumn&#45;&gt;PinboardItem</title>
<path fill="none" stroke="black" d="M316.65,-185.89C326.34,-189.97 335.54,-195.12 343.57,-201.6 371.72,-224.31 353.64,-249.37 379.57,-274.6 381.14,-276.12 382.81,-277.57 384.55,-278.95"/>
<polygon fill="black" stroke="black" points="382.33,-281.67 392.57,-284.39 386.26,-275.88 382.33,-281.67"/>
</g>
<!-- ObservationMatrixColumn&#45;&gt;Role -->
<g id="edge4" class="edge">
<title>ObservationMatrixColumn&#45;&gt;Role</title>
<path fill="none" stroke="black" d="M301.82,-188.19C315.93,-192.05 330.31,-196.53 343.57,-201.6 360.46,-208.06 363.34,-212.6 379.57,-220.6 386.6,-224.07 394.17,-227.65 401.46,-231.04"/>
<polygon fill="black" stroke="black" points="399.93,-234.18 410.48,-235.18 402.85,-227.82 399.93,-234.18"/>
</g>
<!-- ObservationMatrixColumn&#45;&gt;VerifierRole -->
<g id="edge6" class="edge">
<title>ObservationMatrixColumn&#45;&gt;VerifierRole</title>
<path fill="none" stroke="black" d="M336.97,-182.94C354.41,-184.77 371.58,-186.58 386.69,-188.17"/>
<polygon fill="black" stroke="black" points="385.99,-191.61 396.3,-189.18 386.72,-184.65 385.99,-191.61"/>
</g>
<!-- ObservationMatrixColumn&#45;&gt;Creator -->
<g id="edge8" class="edge">
<title>ObservationMatrixColumn&#45;&gt;Creator</title>
<path fill="none" stroke="black" stroke-dasharray="5,2" d="M355.07,-159.7C413.56,-153.08 474.22,-143.06 499.07,-128.6 524.26,-113.94 543.16,-85.11 553.58,-66.1"/>
<polygon fill="black" stroke="black" points="354.87,-156.2 345.31,-160.77 355.63,-163.16 354.87,-156.2"/>
</g>
<!-- ObservationMatrixColumn&#45;&gt;ObservationMatrix -->
<g id="edge10" class="edge">
<title>ObservationMatrixColumn&#45;&gt;ObservationMatrix</title>
<path fill="none" stroke="black" stroke-dasharray="5,2" d="M294.65,-146.93C322.49,-138.14 353.63,-128.32 379.78,-120.07"/>
<polygon fill="black" stroke="black" points="293.68,-143.56 285.2,-149.91 295.79,-150.24 293.68,-143.56"/>
</g>
<!-- ObservationMatrixColumn&#45;&gt;Project -->
<g id="edge11" class="edge">
<title>ObservationMatrixColumn&#45;&gt;Project</title>
<path fill="none" stroke="black" stroke-dasharray="5,2" d="M263.98,-142.18C295.67,-122.32 339.59,-95.7 379.57,-74.6 389.89,-69.15 401.52,-63.67 411.7,-59.09"/>
<polygon fill="black" stroke="black" points="262.43,-139.01 255.83,-147.3 266.16,-144.94 262.43,-139.01"/>
</g>
<!-- ObservationMatrixColumn&#45;&gt;Updater -->
<g id="edge12" class="edge">
<title>ObservationMatrixColumn&#45;&gt;Updater</title>
<path fill="none" stroke="black" stroke-dasharray="5,2" d="M241.35,-139.13C268.7,-102.62 319.45,-44.38 379.57,-20.6 467.49,14.18 499.6,-2.04 592.32,-20.6 604.38,-23.01 617,-27.72 627.87,-32.54"/>
<polygon fill="black" stroke="black" points="238.57,-137.01 235.48,-147.14 244.22,-141.14 238.57,-137.01"/>
</g>
<!-- Role&#45;&gt;Verifier -->
<!-- VerifierRole&#45;&gt;Verifier -->
<g id="edge7" class="edge">
<title>VerifierRole&#45;&gt;Verifier</title>
<path fill="none" stroke="black" stroke-dasharray="1,5" d="M481.07,-202.59C494.86,-205.63 510.23,-209.02 523.87,-212.03"/>
<polygon fill="black" stroke="black" points="522.86,-215.39 533.38,-214.13 524.36,-208.56 522.86,-215.39"/>
</g>
<!-- Creator&#45;&gt;Updater -->
<!-- Project&#45;&gt;Creator -->
<!-- Tag -->
<g id="node1" class="node">
<title>Tag</title>
<g id="a_node1"><a xlink:href="/develop/Data/models.html#tag" xlink:title="Tag" target="_top">
<ellipse fill="#abcdef" stroke="#dddeee" cx="28.83" cy="-226.6" rx="27" ry="18"/>
<text text-anchor="middle" x="28.83" y="-221.55" font-family="Times,serif" font-size="14.00">Tag</text>
</a>
</g>
</g>
<!-- Note -->
<g id="node2" class="node">
<title>Note</title>
<g id="a_node2"><a xlink:href="/develop/Data/models.html#note" xlink:title="Note" target="_top">
<ellipse fill="#abcdef" stroke="#dddeee" cx="28.83" cy="-170.6" rx="28.83" ry="18"/>
<text text-anchor="middle" x="28.83" y="-165.55" font-family="Times,serif" font-size="14.00">Note</text>
</a>
</g>
</g>
<!-- Descriptor -->
<g id="node3" class="node">
<title>Descriptor</title>
<g id="a_node3"><a xlink:href="/develop/Data/models.html#descriptor" xlink:title="Descriptor" target="_top">
<path fill="#fedcba" stroke="#dddeee" d="M414.82,-338.6C414.82,-338.6 463.82,-338.6 463.82,-338.6 469.82,-338.6 475.82,-344.6 475.82,-350.6 475.82,-350.6 475.82,-362.6 475.82,-362.6 475.82,-368.6 469.82,-374.6 463.82,-374.6 463.82,-374.6 414.82,-374.6 414.82,-374.6 408.82,-374.6 402.82,-368.6 402.82,-362.6 402.82,-362.6 402.82,-350.6 402.82,-350.6 402.82,-344.6 408.82,-338.6 414.82,-338.6"/>
<text text-anchor="middle" x="439.32" y="-351.8" font-family="Times,serif" font-size="14.00">Descriptor</text>
</a>
</g>
</g>
<!-- ObservationMatrixColumn -->
<g id="node4" class="node">
<title>ObservationMatrixColumn</title>
<g id="a_node4"><a xlink:href="/develop/Data/models.html#observation-matrix-column" xlink:title="ObservationMatrixColumn" target="_top">
<polygon fill="#cdefab" stroke="#dedede" points="339.57,-163.14 339.57,-178.05 268.72,-188.6 168.52,-188.6 97.66,-178.05 97.66,-163.14 168.52,-152.6 268.72,-152.6 339.57,-163.14"/>
<polygon fill="none" stroke="#dedede" points="343.57,-159.69 343.57,-181.5 269.01,-192.6 168.22,-192.6 93.66,-181.5 93.66,-159.69 168.22,-148.6 269.01,-148.6 343.57,-159.69"/>
<text text-anchor="middle" x="218.62" y="-165.55" font-family="Times,serif" font-size="14.00">ObservationMatrixColumn</text>
</a>
</g>
</g>
<!-- Keyword -->
<g id="node5" class="node">
<title>Keyword</title>
<g id="a_node5"><a xlink:href="/develop/Data/models.html#keyword" xlink:title="Keyword" target="_top">
<polygon fill="#eeefff" stroke="#dddeee" points="251.74,-246.6 185.49,-246.6 185.49,-210.6 251.74,-210.6 251.74,-246.6"/>
<text text-anchor="middle" x="218.62" y="-223.55" font-family="Times,serif" font-size="14.00">Keyword</text>
</a>
</g>
</g>
<!-- PinboardItem -->
<g id="node6" class="node">
<title>PinboardItem</title>
<g id="a_node6"><a xlink:href="/develop/Data/models.html#pinboard-item" xlink:title="PinboardItem" target="_top">
<polygon fill="#eeefff" stroke="#dddeee" points="484.44,-319.6 394.19,-319.6 394.19,-283.6 484.44,-283.6 484.44,-319.6"/>
<text text-anchor="middle" x="439.32" y="-296.55" font-family="Times,serif" font-size="14.00">PinboardItem</text>
</a>
</g>
</g>
<!-- Role -->
<g id="node7" class="node">
<title>Role</title>
<g id="a_node7"><a xlink:href="/develop/Data/models.html#role" xlink:title="Role" target="_top">
<polygon fill="#eeefff" stroke="#dddeee" points="466.32,-265.6 412.32,-265.6 412.32,-229.6 466.32,-229.6 466.32,-265.6"/>
<text text-anchor="middle" x="439.32" y="-242.55" font-family="Times,serif" font-size="14.00">Role</text>
</a>
</g>
</g>
<!-- VerifierRole -->
<g id="node8" class="node">
<title>VerifierRole</title>
<g id="a_node8"><a xlink:href="/develop/Data/models.html#verifier-role" xlink:title="VerifierRole" target="_top">
<polygon fill="#eeefff" stroke="#dddeee" points="480.69,-211.6 397.94,-211.6 397.94,-175.6 480.69,-175.6 480.69,-211.6"/>
<text text-anchor="middle" x="439.32" y="-188.55" font-family="Times,serif" font-size="14.00">VerifierRole</text>
</a>
</g>
</g>
<!-- Verifier -->
<g id="node9" class="node">
<title>Verifier</title>
<g id="a_node9"><a xlink:href="/develop/Data/models.html#verifier" xlink:title="Verifier" target="_top">
<polygon fill="#eeefff" stroke="#dddeee" points="592.32,-238.6 535.07,-238.6 535.07,-202.6 592.32,-202.6 592.32,-238.6"/>
<text text-anchor="middle" x="563.69" y="-215.55" font-family="Times,serif" font-size="14.00">Verifier</text>
</a>
</g>
</g>
<!-- Creator -->
<g id="node10" class="node">
<title>Creator</title>
<g id="a_node10"><a xlink:href="/develop/Data/models.html#creator" xlink:title="Creator" target="_top">
<polygon fill="#eeefff" stroke="#dddeee" points="591.94,-65.6 535.44,-65.6 535.44,-29.6 591.94,-29.6 591.94,-65.6"/>
<text text-anchor="middle" x="563.69" y="-42.55" font-family="Times,serif" font-size="14.00">Creator</text>
</a>
</g>
</g>
<!-- ObservationMatrix -->
<g id="node11" class="node">
<title>ObservationMatrix</title>
<g id="a_node11"><a xlink:href="/develop/Data/models.html#observation-matrix" xlink:title="ObservationMatrix" target="_top">
<polygon fill="#eeefff" stroke="#dddeee" points="499.07,-119.6 379.57,-119.6 379.57,-83.6 499.07,-83.6 499.07,-119.6"/>
<text text-anchor="middle" x="439.32" y="-96.55" font-family="Times,serif" font-size="14.00">ObservationMatrix</text>
</a>
</g>
</g>
<!-- Project -->
<g id="node12" class="node">
<title>Project</title>
<g id="a_node12"><a xlink:href="/develop/Data/models.html#project" xlink:title="Project" target="_top">
<polygon fill="#eeefff" stroke="#dddeee" points="466.44,-65.6 412.19,-65.6 412.19,-29.6 466.44,-29.6 466.44,-65.6"/>
<text text-anchor="middle" x="439.32" y="-42.55" font-family="Times,serif" font-size="14.00">Project</text>
</a>
</g>
</g>
<!-- Updater -->
<g id="node13" class="node">
<title>Updater</title>
<g id="a_node13"><a xlink:href="/develop/Data/models.html#updater" xlink:title="Updater" target="_top">
<polygon fill="#eeefff" stroke="#dddeee" points="687.82,-65.6 628.32,-65.6 628.32,-29.6 687.82,-29.6 687.82,-65.6"/>
<text text-anchor="middle" x="658.07" y="-42.55" font-family="Times,serif" font-size="14.00">Updater</text>
</a>
</g>
</g>
</g>
</svg>
