<?xml version="1.0" encoding="UTF-8" standalone="no"?>
<!DOCTYPE svg PUBLIC "-//W3C//DTD SVG 1.1//EN"
 "http://www.w3.org/Graphics/SVG/1.1/DTD/svg11.dtd">
<!-- Generated by graphviz version 12.2.1 (20241206.2353)
 -->
<!-- Title: ObservationMatrixRowItem Pages: 1 -->
<svg width="1139pt" height="684pt"
 viewBox="0.00 0.00 1138.51 684.00" xmlns="http://www.w3.org/2000/svg" xmlns:xlink="http://www.w3.org/1999/xlink">
<g id="graph0" class="graph" transform="scale(1 1) rotate(0) translate(4 680)">
<title>ObservationMatrixRowItem</title>
<polygon fill="white" stroke="none" points="-4,4 -4,-680 1134.51,-680 1134.51,4 -4,4"/>
<!-- Citation&#45;&gt;Source -->
<g id="edge8" class="edge">
<title>Citation&#45;&gt;Source</title>
<path fill="none" stroke="black" stroke-dasharray="1,5" d="M86.15,-603C192.12,-603 479.4,-603 582.87,-603"/>
<polygon fill="black" stroke="black" points="582.76,-606.5 592.76,-603 582.76,-599.5 582.76,-606.5"/>
</g>
<!-- Citation&#45;&gt;CitationTopic -->
<g id="edge1" class="edge">
<title>Citation&#45;&gt;CitationTopic</title>
<path fill="none" stroke="black" stroke-dasharray="1,5" d="M80.75,-612.08C113.06,-620.58 161.88,-633.42 199.7,-643.36"/>
<polygon fill="black" stroke="black" points="198.52,-646.67 209.08,-645.83 200.3,-639.9 198.52,-646.67"/>
</g>
<!-- Tag&#45;&gt;Keyword -->
<g id="edge4" class="edge">
<title>Tag&#45;&gt;Keyword</title>
<path fill="none" stroke="black" stroke-dasharray="1,5" d="M72.7,-291.87C107.66,-291.71 169.69,-291.41 211.65,-291.21"/>
<polygon fill="black" stroke="black" points="211.42,-294.71 221.4,-291.16 211.38,-287.71 211.42,-294.71"/>
</g>
<!-- Source&#45;&gt;SubsequentCitation -->
<!-- Source&#45;&gt;OriginCitation -->
<!-- ObservationMatrixRowItem&#45;&gt;Citation -->
<g id="edge2" class="edge">
<title>ObservationMatrixRowItem&#45;&gt;Citation</title>
<path fill="none" stroke="black" d="M237,-371.29C198.27,-418.33 108.37,-527.51 67.33,-577.35"/>
<polygon fill="black" stroke="black" points="64.87,-574.83 61.22,-584.77 70.28,-579.28 64.87,-574.83"/>
</g>
<!-- ObservationMatrixRowItem&#45;&gt;Identifier -->
<g id="edge3" class="edge">
<title>ObservationMatrixRowItem&#45;&gt;Identifier</title>
<path fill="none" stroke="black" d="M179.21,-367.93C151.15,-374.91 120.14,-382.62 95.12,-388.84"/>
<polygon fill="black" stroke="black" points="94.41,-385.41 85.55,-391.22 96.1,-392.2 94.41,-385.41"/>
</g>
<!-- ObservationMatrixRowItem&#45;&gt;Tag -->
<g id="edge11" class="edge">
<title>ObservationMatrixRowItem&#45;&gt;Tag</title>
<path fill="none" stroke="black" d="M174.98,-330.69C158.84,-326.73 142.04,-322.4 126.42,-318 111.19,-313.71 94.52,-308.4 80.34,-303.71"/>
<polygon fill="black" stroke="black" points="81.61,-300.44 71.01,-300.59 79.38,-307.08 81.61,-300.44"/>
</g>
<!-- ObservationMatrixRowItem&#45;&gt;Note -->
<g id="edge5" class="edge">
<title>ObservationMatrixRowItem&#45;&gt;Note</title>
<path fill="none" stroke="black" d="M126.31,-347.77C111.71,-347.63 97.79,-347.49 85.76,-347.38"/>
<polygon fill="black" stroke="black" points="85.96,-343.88 75.93,-347.28 85.9,-350.88 85.96,-343.88"/>
</g>
<!-- ObservationMatrixRowItem&#45;&gt;Source -->
<g id="edge23" class="edge">
<title>ObservationMatrixRowItem&#45;&gt;Source</title>
<path fill="none" stroke="black" stroke-dasharray="1,5" d="M271.22,-380.56C294.65,-429.82 346.98,-524.11 422.29,-570 472.34,-600.5 542.06,-605.19 584.12,-604.8"/>
<polygon fill="none" stroke="black" points="263.51,-373.48 270.76,-370.1 274.14,-377.35 266.89,-380.73 263.51,-373.48"/>
<polyline fill="none" stroke="black" points="270.52,-379.04 271.36,-380.85"/>
<polygon fill="none" stroke="black" points="593.87,-600.61 594.02,-608.61 586.02,-608.77 585.87,-600.77 593.87,-600.61"/>
<polyline fill="none" stroke="black" points="585.95,-604.77 583.95,-604.81"/>
</g>
<!-- ObservationMatrixRowItem&#45;&gt;PinboardItem -->
<g id="edge6" class="edge">
<title>ObservationMatrixRowItem&#45;&gt;PinboardItem</title>
<path fill="none" stroke="black" d="M356.01,-333.35C366.73,-329.34 377.08,-324.31 386.29,-318 409.48,-302.11 398.52,-280.99 422.29,-266 464.91,-239.13 522.57,-232.39 564.74,-231.62"/>
<polygon fill="black" stroke="black" points="564.71,-235.12 574.69,-231.56 564.66,-228.12 564.71,-235.12"/>
</g>
<!-- ObservationMatrixRowItem&#45;&gt;Role -->
<g id="edge7" class="edge">
<title>ObservationMatrixRowItem&#45;&gt;Role</title>
<path fill="none" stroke="black" d="M361.83,-334.14C370.76,-329.94 379.11,-324.64 386.29,-318 424.36,-282.78 382.5,-240.26 422.29,-207 467.36,-169.33 539.38,-169.63 583.12,-174.18"/>
<polygon fill="black" stroke="black" points="582.55,-177.64 592.89,-175.34 583.37,-170.69 582.55,-177.64"/>
</g>
<!-- ObservationMatrixRowItem&#45;&gt;SubsequentCitation -->
<g id="edge9" class="edge">
<title>ObservationMatrixRowItem&#45;&gt;SubsequentCitation</title>
<path fill="none" stroke="black" d="M269.8,-371.2C293.56,-411.21 349.59,-494.74 422.29,-532 580.96,-613.31 645.09,-547.11 821.01,-576 828.99,-577.31 837.3,-578.86 845.55,-580.5"/>
<polygon fill="black" stroke="black" points="844.74,-583.91 855.24,-582.5 846.15,-577.05 844.74,-583.91"/>
</g>
<!-- ObservationMatrixRowItem&#45;&gt;Uri -->
<g id="edge13" class="edge">
<title>ObservationMatrixRowItem&#45;&gt;Uri</title>
<path fill="none" stroke="black" d="M363.46,-334.4C371.89,-330.12 379.69,-324.74 386.29,-318 438.8,-264.37 367.15,-203.92 422.29,-153 465.66,-112.96 538.78,-114.16 583.09,-119.51"/>
<polygon fill="black" stroke="black" points="582.37,-122.94 592.74,-120.81 583.3,-116 582.37,-122.94"/>
</g>
<!-- ObservationMatrixRowItem&#45;&gt;Uuid -->
<g id="edge14" class="edge">
<title>ObservationMatrixRowItem&#45;&gt;Uuid</title>
<path fill="none" stroke="black" d="M364.14,-334.6C372.38,-330.27 379.95,-324.83 386.29,-318 453.45,-245.75 351.59,-167.78 422.29,-99 464.72,-57.73 538.47,-59.42 583.1,-65.17"/>
<polygon fill="black" stroke="black" points="582.43,-68.61 592.82,-66.57 583.42,-61.69 582.43,-68.61"/>
</g>
<!-- ObservationMatrixRowItem&#45;&gt;VerifierRole -->
<g id="edge15" class="edge">
<title>ObservationMatrixRowItem&#45;&gt;VerifierRole</title>
<path fill="none" stroke="black" d="M364.67,-334.65C372.75,-330.31 380.13,-324.84 386.29,-318 468.18,-227.05 335.94,-131.72 422.29,-45 459.86,-7.28 523.48,-5.03 568.53,-9.31"/>
<polygon fill="black" stroke="black" points="568.02,-12.78 578.34,-10.39 568.78,-5.82 568.02,-12.78"/>
</g>
<!-- ObservationMatrixRowItem&#45;&gt;Creator -->
<g id="edge17" class="edge">
<title>ObservationMatrixRowItem&#45;&gt;Creator</title>
<path fill="none" stroke="black" stroke-dasharray="5,2" d="M398.07,-354.96C552.25,-362.21 782.88,-375.42 821.01,-391 854.29,-404.6 884.5,-434.32 901.77,-453.73"/>
<polygon fill="black" stroke="black" points="398.3,-351.47 388.15,-354.5 397.98,-358.46 398.3,-351.47"/>
</g>
<!-- ObservationMatrixRowItem&#45;&gt;ObservationMatrix -->
<g id="edge18" class="edge">
<title>ObservationMatrixRowItem&#45;&gt;ObservationMatrix</title>
<path fill="none" stroke="black" stroke-dasharray="5,2" d="M346.67,-370.07C371.13,-375.56 397.68,-381.26 422.29,-386 468.88,-394.97 521.95,-403.44 561.47,-409.41"/>
<polygon fill="black" stroke="black" points="347.6,-366.7 337.08,-367.91 346.06,-373.52 347.6,-366.7"/>
</g>
<!-- ObservationMatrixRowItem&#45;&gt;Project -->
<g id="edge20" class="edge">
<title>ObservationMatrixRowItem&#45;&gt;Project</title>
<path fill="none" stroke="black" stroke-dasharray="5,2" d="M296.56,-377.78C328.7,-399.86 376.24,-429.16 422.29,-445 481.45,-465.34 555.49,-470.43 594.23,-471.65"/>
<polygon fill="black" stroke="black" points="298.95,-375.19 288.75,-372.34 294.95,-380.93 298.95,-375.19"/>
</g>
<!-- ObservationMatrixRowItem&#45;&gt;Updater -->
<g id="edge21" class="edge">
<title>ObservationMatrixRowItem&#45;&gt;Updater</title>
<path fill="none" stroke="black" stroke-dasharray="5,2" d="M354.18,-328.51C365.13,-325.37 376.04,-321.87 386.29,-318 403.22,-311.61 404.73,-303.35 422.29,-299 594.3,-256.39 651.83,-246.28 821.01,-299 920.45,-329.99 1015.26,-415.73 1053.68,-453.61"/>
<polygon fill="black" stroke="black" points="353.4,-325.1 344.69,-331.13 355.26,-331.85 353.4,-325.1"/>
</g>
<!-- ObservationMatrixRowItem&#45;&gt;OriginCitation -->
<g id="edge22" class="edge">
<title>ObservationMatrixRowItem&#45;&gt;OriginCitation</title>
<path fill="none" stroke="black" d="M280.06,-379.37C308.75,-415.11 361.76,-472.88 422.29,-499 499.55,-532.33 747.02,-536.92 859.85,-537.22"/>
<polygon fill="none" stroke="black" points="270.81,-374.1 277.09,-369.14 282.05,-375.42 275.76,-380.38 270.81,-374.1"/>
<polyline fill="none" stroke="black" points="278.91,-377.9 280.14,-379.47"/>
<polygon fill="none" stroke="black" points="869.52,-533.24 869.51,-541.24 861.51,-541.23 861.52,-533.23 869.52,-533.24"/>
<polyline fill="none" stroke="black" points="861.52,-537.23 859.52,-537.22"/>
</g>
<!-- ObservationMatrixRowItem&#45;&gt;Objects with Observation matrix row items -->
<g id="edge19" class="edge">
<title>ObservationMatrixRowItem&#45;&gt;Objects with Observation matrix row items</title>
<path fill="none" stroke="black" stroke-dasharray="5,2" d="M398.14,-340.09C422.36,-338.55 447.6,-336.96 472.01,-335.41"/>
<polygon fill="black" stroke="black" points="397.99,-336.59 388.23,-340.71 398.43,-343.58 397.99,-336.59"/>
</g>
<!-- CitationTopic&#45;&gt;Topic -->
<g id="edge12" class="edge">
<title>CitationTopic&#45;&gt;Topic</title>
<path fill="none" stroke="black" stroke-dasharray="1,5" d="M302.27,-658C374.62,-658 515.67,-658 583.06,-658"/>
<polygon fill="black" stroke="black" points="582.85,-661.5 592.85,-658 582.85,-654.5 582.85,-661.5"/>
</g>
<!-- Role&#45;&gt;Verifier -->
<!-- SubsequentCitation&#45;&gt;SubsequentSource -->
<g id="edge10" class="edge">
<title>SubsequentCitation&#45;&gt;SubsequentSource</title>
<path fill="none" stroke="black" stroke-dasharray="1,5" d="M979.26,-597C987.19,-597 995.37,-597 1003.42,-597"/>
<polygon fill="black" stroke="black" points="1003.18,-600.5 1013.18,-597 1003.18,-593.5 1003.18,-600.5"/>
</g>
<!-- VerifierRole&#45;&gt;Verifier -->
<g id="edge16" class="edge">
<title>VerifierRole&#45;&gt;Verifier</title>
<path fill="none" stroke="black" stroke-dasharray="1,5" d="M663.18,-19.07C703.99,-21.17 768.3,-27.29 821.01,-45 841.9,-52.02 863.43,-63.68 880.79,-74.37"/>
<polygon fill="black" stroke="black" points="878.88,-77.31 889.21,-79.7 882.63,-71.39 878.88,-77.31"/>
</g>
<!-- Creator&#45;&gt;Updater -->
<!-- Project&#45;&gt;Creator -->
<!-- Citation -->
<g id="node1" class="node">
<title>Citation</title>
<g id="a_node1"><a xlink:href="/develop/Data/models.html#citation" xlink:title="Citation" target="_top">
<ellipse fill="#abcdef" stroke="#dddeee" cx="45.21" cy="-603" rx="40.6" ry="18"/>
<text text-anchor="middle" x="45.21" y="-597.95" font-family="Times,serif" font-size="14.00">Citation</text>
</a>
</g>
</g>
<!-- Identifier -->
<g id="node2" class="node">
<title>Identifier</title>
<g id="a_node2"><a xlink:href="/develop/Data/models.html#identifier" xlink:title="Identifier" target="_top">
<ellipse fill="#abcdef" stroke="#dddeee" cx="45.21" cy="-401" rx="45.21" ry="18"/>
<text text-anchor="middle" x="45.21" y="-395.95" font-family="Times,serif" font-size="14.00">Identifier</text>
</a>
</g>
</g>
<!-- Tag -->
<g id="node3" class="node">
<title>Tag</title>
<g id="a_node3"><a xlink:href="/develop/Data/models.html#tag" xlink:title="Tag" target="_top">
<ellipse fill="#abcdef" stroke="#dddeee" cx="45.21" cy="-292" rx="27" ry="18"/>
<text text-anchor="middle" x="45.21" y="-286.95" font-family="Times,serif" font-size="14.00">Tag</text>
</a>
</g>
</g>
<!-- Note -->
<g id="node4" class="node">
<title>Note</title>
<g id="a_node4"><a xlink:href="/develop/Data/models.html#note" xlink:title="Note" target="_top">
<ellipse fill="#abcdef" stroke="#dddeee" cx="45.21" cy="-347" rx="28.83" ry="18"/>
<text text-anchor="middle" x="45.21" y="-341.95" font-family="Times,serif" font-size="14.00">Note</text>
</a>
</g>
</g>
<!-- Source -->
<g id="node5" class="node">
<title>Source</title>
<g id="a_node5"><a xlink:href="/develop/Data/models.html#source" xlink:title="Source" target="_top">
<path fill="#fedcba" stroke="#dddeee" d="M606.65,-585C606.65,-585 636.65,-585 636.65,-585 642.65,-585 648.65,-591 648.65,-597 648.65,-597 648.65,-609 648.65,-609 648.65,-615 642.65,-621 636.65,-621 636.65,-621 606.65,-621 606.65,-621 600.65,-621 594.65,-615 594.65,-609 594.65,-609 594.65,-597 594.65,-597 594.65,-591 600.65,-585 606.65,-585"/>
<text text-anchor="middle" x="621.65" y="-598.2" font-family="Times,serif" font-size="14.00">Source</text>
</a>
</g>
</g>
<!-- ObservationMatrixRowItem -->
<g id="node6" class="node">
<title>ObservationMatrixRowItem</title>
<g id="a_node6"><a xlink:href="/develop/Data/models.html#observation-matrix-row-item" xlink:title="ObservationMatrixRowItem" target="_top">
<polygon fill="#cdefab" stroke="#dedede" points="382.29,-341.54 382.29,-356.46 308.52,-367 204.19,-367 130.42,-356.46 130.42,-341.54 204.19,-331 308.52,-331 382.29,-341.54"/>
<polygon fill="none" stroke="#dedede" points="386.29,-338.08 386.29,-359.92 308.81,-371 203.91,-371 126.42,-359.92 126.42,-338.08 203.91,-327 308.81,-327 386.29,-338.08"/>
<text text-anchor="middle" x="256.36" y="-343.95" font-family="Times,serif" font-size="14.00">ObservationMatrixRowItem</text>
</a>
</g>
</g>
<!-- CitationTopic -->
<g id="node7" class="node">
<title>CitationTopic</title>
<g id="a_node7"><a xlink:href="/develop/Data/models.html#citation-topic" xlink:title="CitationTopic" target="_top">
<polygon fill="#eeefff" stroke="#dddeee" points="301.86,-676 210.86,-676 210.86,-640 301.86,-640 301.86,-676"/>
<text text-anchor="middle" x="256.36" y="-652.95" font-family="Times,serif" font-size="14.00">CitationTopic</text>
</a>
</g>
</g>
<!-- Keyword -->
<g id="node8" class="node">
<title>Keyword</title>
<g id="a_node8"><a xlink:href="/develop/Data/models.html#keyword" xlink:title="Keyword" target="_top">
<polygon fill="#eeefff" stroke="#dddeee" points="289.48,-309 223.23,-309 223.23,-273 289.48,-273 289.48,-309"/>
<text text-anchor="middle" x="256.36" y="-285.95" font-family="Times,serif" font-size="14.00">Keyword</text>
</a>
</g>
</g>
<!-- PinboardItem -->
<g id="node9" class="node">
<title>PinboardItem</title>
<g id="a_node9"><a xlink:href="/develop/Data/models.html#pinboard-item" xlink:title="PinboardItem" target="_top">
<polygon fill="#eeefff" stroke="#dddeee" points="666.78,-252 576.53,-252 576.53,-216 666.78,-216 666.78,-252"/>
<text text-anchor="middle" x="621.65" y="-228.95" font-family="Times,serif" font-size="14.00">PinboardItem</text>
</a>
</g>
</g>
<!-- Role -->
<g id="node10" class="node">
<title>Role</title>
<g id="a_node10"><a xlink:href="/develop/Data/models.html#role" xlink:title="Role" target="_top">
<polygon fill="#eeefff" stroke="#dddeee" points="648.65,-198 594.65,-198 594.65,-162 648.65,-162 648.65,-198"/>
<text text-anchor="middle" x="621.65" y="-174.95" font-family="Times,serif" font-size="14.00">Role</text>
</a>
</g>
</g>
<!-- SubsequentCitation -->
<g id="node11" class="node">
<title>SubsequentCitation</title>
<g id="a_node11"><a xlink:href="/develop/Data/models.html#subsequent-citation" xlink:title="SubsequentCitation" target="_top">
<polygon fill="#eeefff" stroke="#dddeee" points="978.76,-615 857.01,-615 857.01,-579 978.76,-579 978.76,-615"/>
<text text-anchor="middle" x="917.89" y="-591.95" font-family="Times,serif" font-size="14.00">SubsequentCitation</text>
</a>
</g>
</g>
<!-- SubsequentSource -->
<g id="node12" class="node">
<title>SubsequentSource</title>
<g id="a_node12"><a xlink:href="/develop/Data/models.html#subsequent-source" xlink:title="SubsequentSource" target="_top">
<polygon fill="#eeefff" stroke="#dddeee" points="1130.51,-615 1014.76,-615 1014.76,-579 1130.51,-579 1130.51,-615"/>
<text text-anchor="middle" x="1072.64" y="-591.95" font-family="Times,serif" font-size="14.00">SubsequentSource</text>
</a>
</g>
</g>
<!-- Topic -->
<g id="node13" class="node">
<title>Topic</title>
<g id="a_node13"><a xlink:href="/develop/Data/models.html#topic" xlink:title="Topic" target="_top">
<polygon fill="#eeefff" stroke="#dddeee" points="648.65,-676 594.65,-676 594.65,-640 648.65,-640 648.65,-676"/>
<text text-anchor="middle" x="621.65" y="-652.95" font-family="Times,serif" font-size="14.00">Topic</text>
</a>
</g>
</g>
<!-- Uri -->
<g id="node14" class="node">
<title>Uri</title>
<g id="a_node14"><a xlink:href="/develop/Data/models.html#uri" xlink:title="Uri" target="_top">
<polygon fill="#eeefff" stroke="#dddeee" points="648.65,-144 594.65,-144 594.65,-108 648.65,-108 648.65,-144"/>
<text text-anchor="middle" x="621.65" y="-120.95" font-family="Times,serif" font-size="14.00">Uri</text>
</a>
</g>
</g>
<!-- Uuid -->
<g id="node15" class="node">
<title>Uuid</title>
<g id="a_node15"><a xlink:href="/develop/Data/models.html#uuid" xlink:title="Uuid" target="_top">
<polygon fill="#eeefff" stroke="#dddeee" points="648.65,-90 594.65,-90 594.65,-54 648.65,-54 648.65,-90"/>
<text text-anchor="middle" x="621.65" y="-66.95" font-family="Times,serif" font-size="14.00">Uuid</text>
</a>
</g>
</g>
<!-- VerifierRole -->
<g id="node16" class="node">
<title>VerifierRole</title>
<g id="a_node16"><a xlink:href="/develop/Data/models.html#verifier-role" xlink:title="VerifierRole" target="_top">
<polygon fill="#eeefff" stroke="#dddeee" points="663.03,-36 580.28,-36 580.28,0 663.03,0 663.03,-36"/>
<text text-anchor="middle" x="621.65" y="-12.95" font-family="Times,serif" font-size="14.00">VerifierRole</text>
</a>
</g>
</g>
<!-- Verifier -->
<g id="node17" class="node">
<title>Verifier</title>
<g id="a_node17"><a xlink:href="/develop/Data/models.html#verifier" xlink:title="Verifier" target="_top">
<polygon fill="#eeefff" stroke="#dddeee" points="946.51,-117 889.26,-117 889.26,-81 946.51,-81 946.51,-117"/>
<text text-anchor="middle" x="917.89" y="-93.95" font-family="Times,serif" font-size="14.00">Verifier</text>
</a>
</g>
</g>
<!-- Creator -->
<g id="node18" class="node">
<title>Creator</title>
<g id="a_node18"><a xlink:href="/develop/Data/models.html#creator" xlink:title="Creator" target="_top">
<polygon fill="#eeefff" stroke="#dddeee" points="946.14,-490 889.64,-490 889.64,-454 946.14,-454 946.14,-490"/>
<text text-anchor="middle" x="917.89" y="-466.95" font-family="Times,serif" font-size="14.00">Creator</text>
</a>
</g>
</g>
<!-- ObservationMatrix -->
<g id="node19" class="node">
<title>ObservationMatrix</title>
<g id="a_node19"><a xlink:href="/develop/Data/models.html#observation-matrix" xlink:title="ObservationMatrix" target="_top">
<polygon fill="#eeefff" stroke="#dddeee" points="681.4,-436 561.9,-436 561.9,-400 681.4,-400 681.4,-436"/>
<text text-anchor="middle" x="621.65" y="-412.95" font-family="Times,serif" font-size="14.00">ObservationMatrix</text>
</a>
</g>
</g>
<!-- Project -->
<g id="node20" class="node">
<title>Project</title>
<g id="a_node20"><a xlink:href="/develop/Data/models.html#project" xlink:title="Project" target="_top">
<polygon fill="#eeefff" stroke="#dddeee" points="648.78,-490 594.53,-490 594.53,-454 648.78,-454 648.78,-490"/>
<text text-anchor="middle" x="621.65" y="-466.95" font-family="Times,serif" font-size="14.00">Project</text>
</a>
</g>
</g>
<!-- Updater -->
<g id="node21" class="node">
<title>Updater</title>
<g id="a_node21"><a xlink:href="/develop/Data/models.html#updater" xlink:title="Updater" target="_top">
<polygon fill="#eeefff" stroke="#dddeee" points="1102.39,-490 1042.89,-490 1042.89,-454 1102.39,-454 1102.39,-490"/>
<text text-anchor="middle" x="1072.64" y="-466.95" font-family="Times,serif" font-size="14.00">Updater</text>
</a>
</g>
</g>
<!-- OriginCitation -->
<g id="node22" class="node">
<title>OriginCitation</title>
<g id="a_node22"><a xlink:href="/develop/Data/models.html#origin-citation" xlink:title="OriginCitation" target="_top">
<polygon fill="#eeefff" stroke="#dddeee" points="965.26,-555 870.51,-555 870.51,-519 965.26,-519 965.26,-555"/>
<text text-anchor="middle" x="917.89" y="-531.95" font-family="Times,serif" font-size="14.00">OriginCitation</text>
</a>
</g>
</g>
<!-- Objects with Observation matrix row items -->
<g id="node23" class="node">
<title>Objects with Observation matrix row items</title>
<g id="a_node23"><a xlink:href="/develop/Data/models.html#objects with observation matrix row item" xlink:title="Objects with Observation matrix row items" target="_top">
<polygon fill="#cdabef" stroke="#dedede" points="821.01,-326 721.33,-344 521.97,-344 422.29,-326 521.97,-308 721.33,-308 821.01,-326"/>
<text text-anchor="middle" x="621.65" y="-320.95" font-family="Times,serif" font-size="14.00">Objects with Observation matrix row items</text>
</a>
</g>
</g>
</g>
</svg>
