<?xml version="1.0" encoding="UTF-8" standalone="no"?>
<!DOCTYPE svg PUBLIC "-//W3C//DTD SVG 1.1//EN"
 "http://www.w3.org/Graphics/SVG/1.1/DTD/svg11.dtd">
<!-- Generated by graphviz version 2.50.0 (20211204.2007)
 -->
<!-- Title: ObservationMatrixRow Pages: 1 -->
<svg width="809pt" height="671pt"
 viewBox="0.00 0.00 809.21 671.00" xmlns="http://www.w3.org/2000/svg" xmlns:xlink="http://www.w3.org/1999/xlink">
<g id="graph0" class="graph" transform="scale(1 1) rotate(0) translate(4 667)">
<title>ObservationMatrixRow</title>
<polygon fill="white" stroke="transparent" points="-4,4 -4,-667 805.21,-667 805.21,4 -4,4"/>
<text text-anchor="middle" x="400.61" y="-22.8" font-family="Times,serif" font-size="14.00">Algorithmically generated relationships for ObservationMatrixRow based on assertions of &#39;has_many&#39;, &#39;has_one&#39;, &#39;belongs_to&#39;. </text>
<text text-anchor="middle" x="400.61" y="-7.8" font-family="Times,serif" font-size="14.00">Generated 2022&#45;01&#45;25 11:38:08 &#45;0600.</text>
<!-- Citation&#45;&gt;Source -->
<g id="edge8" class="edge">
<title>Citation&#45;&gt;Source</title>
<path fill="none" stroke="black" d="M81.99,-590C156.56,-590 320.87,-590 393.94,-590"/>
<polygon fill="black" stroke="black" points="394.04,-593.5 404.04,-590 394.04,-586.5 394.04,-593.5"/>
</g>
<!-- Citation&#45;&gt;CitationTopic -->
<g id="edge1" class="edge">
<title>Citation&#45;&gt;CitationTopic</title>
<path fill="none" stroke="black" d="M76.3,-599.71C102.87,-607.66 141.07,-619.11 172.42,-628.5"/>
<polygon fill="black" stroke="black" points="171.76,-631.95 182.34,-631.47 173.76,-625.25 171.76,-631.95"/>
</g>
<!-- Tag&#45;&gt;Keyword -->
<g id="edge4" class="edge">
<title>Tag&#45;&gt;Keyword</title>
<path fill="none" stroke="black" d="M70.2,-309.86C100.07,-309.69 149.25,-309.43 184.68,-309.23"/>
<polygon fill="black" stroke="black" points="184.75,-312.73 194.73,-309.18 184.71,-305.73 184.75,-312.73"/>
</g>
<!-- Source&#45;&gt;SubsequentCitation -->
<!-- Source&#45;&gt;OriginCitation -->
<!-- ObservationMatrixRow&#45;&gt;Citation -->
<g id="edge2" class="edge">
<title>ObservationMatrixRow&#45;&gt;Citation</title>
<path fill="none" stroke="black" d="M209.28,-389.13C174.78,-431.03 100.17,-521.65 64.16,-565.39"/>
<polygon fill="black" stroke="black" points="61.35,-563.29 57.7,-573.24 66.75,-567.74 61.35,-563.29"/>
</g>
<!-- ObservationMatrixRow&#45;&gt;Identifier -->
<g id="edge3" class="edge">
<title>ObservationMatrixRow&#45;&gt;Identifier</title>
<path fill="none" stroke="black" d="M163.31,-385.18C138.71,-392.15 111.19,-399.94 88.77,-406.29"/>
<polygon fill="black" stroke="black" points="87.53,-403 78.86,-409.1 89.44,-409.74 87.53,-403"/>
</g>
<!-- ObservationMatrixRow&#45;&gt;Tag -->
<g id="edge11" class="edge">
<title>ObservationMatrixRow&#45;&gt;Tag</title>
<path fill="none" stroke="black" d="M163.94,-348.77C150.02,-344.67 135.39,-340.26 121.79,-336 107.01,-331.37 90.75,-325.99 76.92,-321.32"/>
<polygon fill="black" stroke="black" points="77.94,-317.97 67.34,-318.08 75.69,-324.6 77.94,-317.97"/>
</g>
<!-- ObservationMatrixRow&#45;&gt;Note -->
<g id="edge5" class="edge">
<title>ObservationMatrixRow&#45;&gt;Note</title>
<path fill="none" stroke="black" d="M121.41,-365.84C106.96,-365.69 92.99,-365.53 80.99,-365.4"/>
<polygon fill="black" stroke="black" points="81.03,-361.9 70.99,-365.3 80.95,-368.9 81.03,-361.9"/>
</g>
<!-- ObservationMatrixRow&#45;&gt;Source -->
<g id="edge22" class="edge">
<title>ObservationMatrixRow&#45;&gt;Source</title>
<path fill="none" stroke="black" stroke-dasharray="1,5" d="M247.07,-398.17C271.04,-438.64 317.25,-509.68 371.21,-557 380.92,-565.51 393.18,-572.8 404,-578.35"/>
<polygon fill="black" stroke="black" points="249.94,-396.16 241.87,-389.3 243.9,-399.7 249.94,-396.16"/>
</g>
<!-- ObservationMatrixRow&#45;&gt;CollectionObject -->
<g id="edge15" class="edge">
<title>ObservationMatrixRow&#45;&gt;CollectionObject</title>
<path fill="none" stroke="black" stroke-dasharray="5,2" d="M310.79,-346.75C319.22,-343.59 327.52,-340.02 335.21,-336 353.42,-326.48 354.19,-318.5 371.21,-307 378.9,-301.81 387.46,-296.68 395.62,-292.07"/>
<polygon fill="black" stroke="black" points="309.49,-343.5 301.23,-350.13 311.82,-350.09 309.49,-343.5"/>
</g>
<!-- ObservationMatrixRow&#45;&gt;Otu -->
<g id="edge18" class="edge">
<title>ObservationMatrixRow&#45;&gt;Otu</title>
<path fill="none" stroke="black" stroke-dasharray="5,2" d="M319.69,-347.12C325.27,-343.94 330.52,-340.26 335.21,-336 367.09,-307.02 341.5,-277.2 371.21,-246 380.07,-236.7 392.74,-230.33 404.07,-226.12"/>
<polygon fill="black" stroke="black" points="318.01,-344.05 310.68,-351.7 321.18,-350.29 318.01,-344.05"/>
</g>
<!-- ObservationMatrixRow&#45;&gt;PinboardItem -->
<g id="edge6" class="edge">
<title>ObservationMatrixRow&#45;&gt;PinboardItem</title>
<path fill="none" stroke="black" d="M312.61,-352.11C321.01,-347.97 328.79,-342.69 335.21,-336 381.17,-288.07 328.82,-242.11 371.21,-191 373.07,-188.76 375.15,-186.71 377.39,-184.81"/>
<polygon fill="black" stroke="black" points="379.44,-187.65 385.53,-178.98 375.36,-181.96 379.44,-187.65"/>
</g>
<!-- ObservationMatrixRow&#45;&gt;Role -->
<g id="edge7" class="edge">
<title>ObservationMatrixRow&#45;&gt;Role</title>
<path fill="none" stroke="black" d="M314.07,-352.34C322.04,-348.14 329.33,-342.8 335.21,-336 409.54,-250.12 303.25,-174 371.21,-83 377.12,-75.1 385.88,-69.44 394.87,-65.42"/>
<polygon fill="black" stroke="black" points="396.14,-68.68 404.2,-61.79 393.61,-62.15 396.14,-68.68"/>
</g>
<!-- ObservationMatrixRow&#45;&gt;SubsequentCitation -->
<g id="edge9" class="edge">
<title>ObservationMatrixRow&#45;&gt;SubsequentCitation</title>
<path fill="none" stroke="black" d="M245.56,-389.12C269.53,-420.68 317.66,-478.48 371.21,-512 416.07,-540.08 473.08,-558.48 517.27,-569.65"/>
<polygon fill="black" stroke="black" points="516.51,-573.07 527.06,-572.06 518.19,-566.27 516.51,-573.07"/>
</g>
<!-- ObservationMatrixRow&#45;&gt;VerifierRole -->
<g id="edge13" class="edge">
<title>ObservationMatrixRow&#45;&gt;VerifierRole</title>
<path fill="none" stroke="black" d="M313.56,-352.25C321.68,-348.07 329.14,-342.76 335.21,-336 395.3,-269.16 316.08,-207.99 371.21,-137 374.01,-133.4 377.39,-130.26 381.11,-127.53"/>
<polygon fill="black" stroke="black" points="383.06,-130.45 389.69,-122.18 379.36,-124.51 383.06,-130.45"/>
</g>
<!-- ObservationMatrixRow&#45;&gt;Creator -->
<g id="edge16" class="edge">
<title>ObservationMatrixRow&#45;&gt;Creator</title>
<path fill="none" stroke="black" stroke-dasharray="5,2" d="M311.97,-348.37C363.58,-339.22 431.4,-331.75 491.21,-340 514.71,-343.24 540.55,-350.75 559.5,-357.02"/>
<polygon fill="black" stroke="black" points="311.07,-344.98 301.87,-350.22 312.33,-351.86 311.07,-344.98"/>
</g>
<!-- ObservationMatrixRow&#45;&gt;ObservationMatrix -->
<g id="edge17" class="edge">
<title>ObservationMatrixRow&#45;&gt;ObservationMatrix</title>
<path fill="none" stroke="black" stroke-dasharray="5,2" d="M305.61,-387.48C327.3,-393.31 350.59,-399.58 371.1,-405.1"/>
<polygon fill="black" stroke="black" points="306.34,-384.05 295.78,-384.83 304.53,-390.81 306.34,-384.05"/>
</g>
<!-- ObservationMatrixRow&#45;&gt;Project -->
<g id="edge19" class="edge">
<title>ObservationMatrixRow&#45;&gt;Project</title>
<path fill="none" stroke="black" stroke-dasharray="5,2" d="M345.46,-367C367.16,-367 387.85,-367 403.36,-367"/>
<polygon fill="black" stroke="black" points="345.44,-363.5 335.44,-367 345.44,-370.5 345.44,-363.5"/>
</g>
<!-- ObservationMatrixRow&#45;&gt;Updater -->
<g id="edge20" class="edge">
<title>ObservationMatrixRow&#45;&gt;Updater</title>
<path fill="none" stroke="black" stroke-dasharray="5,2" d="M266.1,-395.05C293.41,-414.14 332.54,-437.73 371.21,-448 497.37,-481.51 650.31,-414.73 713.14,-382.75"/>
<polygon fill="black" stroke="black" points="267.83,-391.99 257.66,-389.04 263.77,-397.69 267.83,-391.99"/>
</g>
<!-- ObservationMatrixRow&#45;&gt;OriginCitation -->
<g id="edge21" class="edge">
<title>ObservationMatrixRow&#45;&gt;OriginCitation</title>
<path fill="none" stroke="black" stroke-dasharray="1,5" d="M257.36,-396.36C284.06,-422.68 326.76,-460.24 371.21,-481 425.95,-506.57 495.4,-516.95 540.55,-521.16"/>
<polygon fill="black" stroke="black" points="259.81,-393.86 250.27,-389.26 254.86,-398.81 259.81,-393.86"/>
</g>
<!-- CitationTopic&#45;&gt;Topic -->
<g id="edge12" class="edge">
<title>CitationTopic&#45;&gt;Topic</title>
<path fill="none" stroke="black" d="M274.55,-645C310.53,-645 360.3,-645 393.79,-645"/>
<polygon fill="black" stroke="black" points="394.06,-648.5 404.06,-645 394.06,-641.5 394.06,-648.5"/>
</g>
<!-- Role&#45;&gt;Verifier -->
<!-- SubsequentCitation&#45;&gt;SubsequentSource -->
<g id="edge10" class="edge">
<title>SubsequentCitation&#45;&gt;SubsequentSource</title>
<path fill="none" stroke="black" d="M649.24,-584C657.58,-584 666.18,-584 674.64,-584"/>
<polygon fill="black" stroke="black" points="674.86,-587.5 684.86,-584 674.86,-580.5 674.86,-587.5"/>
</g>
<!-- VerifierRole&#45;&gt;Verifier -->
<g id="edge14" class="edge">
<title>VerifierRole&#45;&gt;Verifier</title>
<path fill="none" stroke="black" d="M472.94,-102.91C496.58,-98.79 526.17,-93.63 549.32,-89.6"/>
<polygon fill="black" stroke="black" points="550.21,-93 559.46,-87.83 549,-86.1 550.21,-93"/>
</g>
<!-- Creator&#45;&gt;Updater -->
<!-- Project&#45;&gt;Creator -->
<!-- Citation -->
<g id="node1" class="node">
<title>Citation</title>
<g id="a_node1"><a xlink:href="/develop/Data/models.html#citation" xlink:title="Citation" target="_top">
<ellipse fill="#abcdef" stroke="#dddeee" cx="42.9" cy="-590" rx="38.99" ry="18"/>
<text text-anchor="middle" x="42.9" y="-586.3" font-family="Times,serif" font-size="14.00">Citation</text>
</a>
</g>
</g>
<!-- Identifier -->
<g id="node2" class="node">
<title>Identifier</title>
<g id="a_node2"><a xlink:href="/develop/Data/models.html#identifier" xlink:title="Identifier" target="_top">
<ellipse fill="#abcdef" stroke="#dddeee" cx="42.9" cy="-419" rx="42.79" ry="18"/>
<text text-anchor="middle" x="42.9" y="-415.3" font-family="Times,serif" font-size="14.00">Identifier</text>
</a>
</g>
</g>
<!-- Tag -->
<g id="node3" class="node">
<title>Tag</title>
<g id="a_node3"><a xlink:href="/develop/Data/models.html#tag" xlink:title="Tag" target="_top">
<ellipse fill="#abcdef" stroke="#dddeee" cx="42.9" cy="-310" rx="27" ry="18"/>
<text text-anchor="middle" x="42.9" y="-306.3" font-family="Times,serif" font-size="14.00">Tag</text>
</a>
</g>
</g>
<!-- Note -->
<g id="node4" class="node">
<title>Note</title>
<g id="a_node4"><a xlink:href="/develop/Data/models.html#note" xlink:title="Note" target="_top">
<ellipse fill="#abcdef" stroke="#dddeee" cx="42.9" cy="-365" rx="27.9" ry="18"/>
<text text-anchor="middle" x="42.9" y="-361.3" font-family="Times,serif" font-size="14.00">Note</text>
</a>
</g>
</g>
<!-- Source -->
<g id="node5" class="node">
<title>Source</title>
<g id="a_node5"><a xlink:href="/develop/Data/models.html#source" xlink:title="Source" target="_top">
<path fill="#fedcba" stroke="#dddeee" d="M416.21,-572C416.21,-572 446.21,-572 446.21,-572 452.21,-572 458.21,-578 458.21,-584 458.21,-584 458.21,-596 458.21,-596 458.21,-602 452.21,-608 446.21,-608 446.21,-608 416.21,-608 416.21,-608 410.21,-608 404.21,-602 404.21,-596 404.21,-596 404.21,-584 404.21,-584 404.21,-578 410.21,-572 416.21,-572"/>
<text text-anchor="middle" x="431.21" y="-586.3" font-family="Times,serif" font-size="14.00">Source</text>
</a>
</g>
</g>
<!-- CollectionObject -->
<g id="node6" class="node">
<title>CollectionObject</title>
<g id="a_node6"><a xlink:href="/develop/Data/models.html#collection-object" xlink:title="CollectionObject" target="_top">
<path fill="#fedcba" stroke="#dddeee" d="M388.71,-256C388.71,-256 473.71,-256 473.71,-256 479.71,-256 485.71,-262 485.71,-268 485.71,-268 485.71,-280 485.71,-280 485.71,-286 479.71,-292 473.71,-292 473.71,-292 388.71,-292 388.71,-292 382.71,-292 376.71,-286 376.71,-280 376.71,-280 376.71,-268 376.71,-268 376.71,-262 382.71,-256 388.71,-256"/>
<text text-anchor="middle" x="431.21" y="-270.3" font-family="Times,serif" font-size="14.00">CollectionObject</text>
</a>
</g>
</g>
<!-- Otu -->
<g id="node7" class="node">
<title>Otu</title>
<g id="a_node7"><a xlink:href="/develop/Data/models.html#otu" xlink:title="Otu" target="_top">
<path fill="#fedcba" stroke="#dddeee" d="M416.21,-201C416.21,-201 446.21,-201 446.21,-201 452.21,-201 458.21,-207 458.21,-213 458.21,-213 458.21,-225 458.21,-225 458.21,-231 452.21,-237 446.21,-237 446.21,-237 416.21,-237 416.21,-237 410.21,-237 404.21,-231 404.21,-225 404.21,-225 404.21,-213 404.21,-213 404.21,-207 410.21,-201 416.21,-201"/>
<text text-anchor="middle" x="431.21" y="-215.3" font-family="Times,serif" font-size="14.00">Otu</text>
</a>
</g>
</g>
<!-- ObservationMatrixRow -->
<g id="node8" class="node">
<title>ObservationMatrixRow</title>
<g id="a_node8"><a xlink:href="/develop/Data/models.html#observation-matrix-row" xlink:title="ObservationMatrixRow" target="_top">
<polygon fill="#cdefab" stroke="#dedede" points="331.41,-359.54 331.41,-374.46 271.13,-385 185.87,-385 125.59,-374.46 125.59,-359.54 185.87,-349 271.13,-349 331.41,-359.54"/>
<polygon fill="none" stroke="#dedede" points="335.42,-356.18 335.42,-377.82 271.48,-389 185.53,-389 121.58,-377.82 121.58,-356.18 185.53,-345 271.48,-345 335.42,-356.18"/>
<text text-anchor="middle" x="228.5" y="-363.3" font-family="Times,serif" font-size="14.00">ObservationMatrixRow</text>
</a>
</g>
</g>
<!-- CitationTopic -->
<g id="node9" class="node">
<title>CitationTopic</title>
<g id="a_node9"><a xlink:href="/develop/Data/models.html#citation-topic" xlink:title="CitationTopic" target="_top">
<polygon fill="#eeefff" stroke="#dddeee" points="274.5,-663 182.5,-663 182.5,-627 274.5,-627 274.5,-663"/>
<text text-anchor="middle" x="228.5" y="-641.3" font-family="Times,serif" font-size="14.00">CitationTopic</text>
</a>
</g>
</g>
<!-- Keyword -->
<g id="node10" class="node">
<title>Keyword</title>
<g id="a_node10"><a xlink:href="/develop/Data/models.html#keyword" xlink:title="Keyword" target="_top">
<polygon fill="#eeefff" stroke="#dddeee" points="262,-327 195,-327 195,-291 262,-291 262,-327"/>
<text text-anchor="middle" x="228.5" y="-305.3" font-family="Times,serif" font-size="14.00">Keyword</text>
</a>
</g>
</g>
<!-- PinboardItem -->
<g id="node11" class="node">
<title>PinboardItem</title>
<g id="a_node11"><a xlink:href="/develop/Data/models.html#pinboard-item" xlink:title="PinboardItem" target="_top">
<polygon fill="#eeefff" stroke="#dddeee" points="476.71,-182 385.71,-182 385.71,-146 476.71,-146 476.71,-182"/>
<text text-anchor="middle" x="431.21" y="-160.3" font-family="Times,serif" font-size="14.00">PinboardItem</text>
</a>
</g>
</g>
<!-- Role -->
<g id="node12" class="node">
<title>Role</title>
<g id="a_node12"><a xlink:href="/develop/Data/models.html#role" xlink:title="Role" target="_top">
<polygon fill="#eeefff" stroke="#dddeee" points="458.21,-74 404.21,-74 404.21,-38 458.21,-38 458.21,-74"/>
<text text-anchor="middle" x="431.21" y="-52.3" font-family="Times,serif" font-size="14.00">Role</text>
</a>
</g>
</g>
<!-- SubsequentCitation -->
<g id="node13" class="node">
<title>SubsequentCitation</title>
<g id="a_node13"><a xlink:href="/develop/Data/models.html#subsequent-citation" xlink:title="SubsequentCitation" target="_top">
<polygon fill="#eeefff" stroke="#dddeee" points="649.21,-602 527.21,-602 527.21,-566 649.21,-566 649.21,-602"/>
<text text-anchor="middle" x="588.21" y="-580.3" font-family="Times,serif" font-size="14.00">SubsequentCitation</text>
</a>
</g>
</g>
<!-- SubsequentSource -->
<g id="node14" class="node">
<title>SubsequentSource</title>
<g id="a_node14"><a xlink:href="/develop/Data/models.html#subsequent-source" xlink:title="SubsequentSource" target="_top">
<polygon fill="#eeefff" stroke="#dddeee" points="801.21,-602 685.21,-602 685.21,-566 801.21,-566 801.21,-602"/>
<text text-anchor="middle" x="743.21" y="-580.3" font-family="Times,serif" font-size="14.00">SubsequentSource</text>
</a>
</g>
</g>
<!-- Topic -->
<g id="node15" class="node">
<title>Topic</title>
<g id="a_node15"><a xlink:href="/develop/Data/models.html#topic" xlink:title="Topic" target="_top">
<polygon fill="#eeefff" stroke="#dddeee" points="458.21,-663 404.21,-663 404.21,-627 458.21,-627 458.21,-663"/>
<text text-anchor="middle" x="431.21" y="-641.3" font-family="Times,serif" font-size="14.00">Topic</text>
</a>
</g>
</g>
<!-- VerifierRole -->
<g id="node16" class="node">
<title>VerifierRole</title>
<g id="a_node16"><a xlink:href="/develop/Data/models.html#verifier-role" xlink:title="VerifierRole" target="_top">
<polygon fill="#eeefff" stroke="#dddeee" points="472.71,-128 389.71,-128 389.71,-92 472.71,-92 472.71,-128"/>
<text text-anchor="middle" x="431.21" y="-106.3" font-family="Times,serif" font-size="14.00">VerifierRole</text>
</a>
</g>
</g>
<!-- Verifier -->
<g id="node17" class="node">
<title>Verifier</title>
<g id="a_node17"><a xlink:href="/develop/Data/models.html#verifier" xlink:title="Verifier" target="_top">
<polygon fill="#eeefff" stroke="#dddeee" points="616.71,-101 559.71,-101 559.71,-65 616.71,-65 616.71,-101"/>
<text text-anchor="middle" x="588.21" y="-79.3" font-family="Times,serif" font-size="14.00">Verifier</text>
</a>
</g>
</g>
<!-- Creator -->
<g id="node18" class="node">
<title>Creator</title>
<g id="a_node18"><a xlink:href="/develop/Data/models.html#creator" xlink:title="Creator" target="_top">
<polygon fill="#eeefff" stroke="#dddeee" points="616.71,-385 559.71,-385 559.71,-349 616.71,-349 616.71,-385"/>
<text text-anchor="middle" x="588.21" y="-363.3" font-family="Times,serif" font-size="14.00">Creator</text>
</a>
</g>
</g>
<!-- ObservationMatrix -->
<g id="node19" class="node">
<title>ObservationMatrix</title>
<g id="a_node19"><a xlink:href="/develop/Data/models.html#observation-matrix" xlink:title="ObservationMatrix" target="_top">
<polygon fill="#eeefff" stroke="#dddeee" points="491.21,-439 371.21,-439 371.21,-403 491.21,-403 491.21,-439"/>
<text text-anchor="middle" x="431.21" y="-417.3" font-family="Times,serif" font-size="14.00">ObservationMatrix</text>
</a>
</g>
</g>
<!-- Project -->
<g id="node20" class="node">
<title>Project</title>
<g id="a_node20"><a xlink:href="/develop/Data/models.html#project" xlink:title="Project" target="_top">
<polygon fill="#eeefff" stroke="#dddeee" points="458.71,-385 403.71,-385 403.71,-349 458.71,-349 458.71,-385"/>
<text text-anchor="middle" x="431.21" y="-363.3" font-family="Times,serif" font-size="14.00">Project</text>
</a>
</g>
</g>
<!-- Updater -->
<g id="node21" class="node">
<title>Updater</title>
<g id="a_node21"><a xlink:href="/develop/Data/models.html#updater" xlink:title="Updater" target="_top">
<polygon fill="#eeefff" stroke="#dddeee" points="773.21,-385 713.21,-385 713.21,-349 773.21,-349 773.21,-385"/>
<text text-anchor="middle" x="743.21" y="-363.3" font-family="Times,serif" font-size="14.00">Updater</text>
</a>
</g>
</g>
<!-- OriginCitation -->
<g id="node22" class="node">
<title>OriginCitation</title>
<g id="a_node22"><a xlink:href="/develop/Data/models.html#origin-citation" xlink:title="OriginCitation" target="_top">
<polygon fill="#eeefff" stroke="#dddeee" points="635.71,-542 540.71,-542 540.71,-506 635.71,-506 635.71,-542"/>
<text text-anchor="middle" x="588.21" y="-520.3" font-family="Times,serif" font-size="14.00">OriginCitation</text>
</a>
</g>
</g>
</g>
</svg>
