<?xml version="1.0" encoding="UTF-8" standalone="no"?>
<!DOCTYPE svg PUBLIC "-//W3C//DTD SVG 1.1//EN"
 "http://www.w3.org/Graphics/SVG/1.1/DTD/svg11.dtd">
<!-- Generated by graphviz version 2.50.0 (20211204.2007)
 -->
<!-- Title: Observation Pages: 1 -->
<svg width="742pt" height="680pt"
 viewBox="0.00 0.00 742.07 680.41" xmlns="http://www.w3.org/2000/svg" xmlns:xlink="http://www.w3.org/1999/xlink">
<g id="graph0" class="graph" transform="scale(1 1) rotate(0) translate(4 676.41)">
<title>Observation</title>
<polygon fill="white" stroke="transparent" points="-4,4 -4,-676.41 738.07,-676.41 738.07,4 -4,4"/>
<!-- Citation&#45;&gt;Source -->
<g id="edge13" class="edge">
<title>Citation&#45;&gt;Source</title>
<path fill="none" stroke="black" d="M98.27,-599.41C158.05,-599.41 273.07,-599.41 331.93,-599.41"/>
<polygon fill="black" stroke="black" points="332.23,-602.91 342.23,-599.41 332.23,-595.91 332.23,-602.91"/>
</g>
<!-- Citation&#45;&gt;CitationTopic -->
<g id="edge1" class="edge">
<title>Citation&#45;&gt;CitationTopic</title>
<path fill="none" stroke="black" d="M90.5,-610.15C110.55,-617.24 137.39,-626.73 161.08,-635.11"/>
<polygon fill="black" stroke="black" points="160.07,-638.46 170.66,-638.49 162.4,-631.86 160.07,-638.46"/>
</g>
<!-- Confidence&#45;&gt;ConfidenceLevel -->
<g id="edge3" class="edge">
<title>Confidence&#45;&gt;ConfidenceLevel</title>
<path fill="none" stroke="black" d="M110.21,-470.41C123.38,-470.41 137.76,-470.41 151.55,-470.41"/>
<polygon fill="black" stroke="black" points="151.95,-473.91 161.95,-470.41 151.95,-466.91 151.95,-473.91"/>
</g>
<!-- Depiction&#45;&gt;Image -->
<g id="edge8" class="edge">
<title>Depiction&#45;&gt;Image</title>
<path fill="none" stroke="black" d="M104.71,-254.41C128.43,-254.41 157.21,-254.41 179.52,-254.41"/>
<polygon fill="black" stroke="black" points="179.58,-257.91 189.58,-254.41 179.58,-250.91 179.58,-257.91"/>
</g>
<!-- Tag&#45;&gt;Keyword -->
<g id="edge9" class="edge">
<title>Tag&#45;&gt;Keyword</title>
<path fill="none" stroke="black" d="M86.18,-200.41C109.8,-200.41 145.06,-200.41 172.84,-200.41"/>
<polygon fill="black" stroke="black" points="173.07,-203.91 183.07,-200.41 173.07,-196.91 173.07,-203.91"/>
</g>
<!-- Observation&#45;&gt;Citation -->
<g id="edge2" class="edge">
<title>Observation&#45;&gt;Citation</title>
<path fill="none" stroke="black" d="M202.48,-359.64C173.94,-407.72 106.58,-521.2 75.88,-572.91"/>
<polygon fill="black" stroke="black" points="72.69,-571.43 70.59,-581.82 78.71,-575 72.69,-571.43"/>
</g>
<!-- Observation&#45;&gt;Confidence -->
<g id="edge4" class="edge">
<title>Observation&#45;&gt;Confidence</title>
<path fill="none" stroke="black" d="M199.48,-359.7C181.67,-382.97 151.18,-419.37 118.29,-443.41 113.74,-446.74 108.72,-449.8 103.58,-452.58"/>
<polygon fill="black" stroke="black" points="101.65,-449.64 94.31,-457.27 104.81,-455.88 101.65,-449.64"/>
</g>
<!-- Observation&#45;&gt;DataAttribute -->
<g id="edge5" class="edge">
<title>Observation&#45;&gt;DataAttribute</title>
<path fill="none" stroke="black" d="M181.22,-356.42C162.69,-366.48 139.39,-378.89 118.29,-389.41 113.06,-392.02 107.52,-394.7 102.03,-397.3"/>
<polygon fill="black" stroke="black" points="100.46,-394.17 92.89,-401.59 103.43,-400.51 100.46,-394.17"/>
</g>
<!-- Observation&#45;&gt;Depiction -->
<g id="edge6" class="edge">
<title>Observation&#45;&gt;Depiction</title>
<path fill="none" stroke="black" d="M183.17,-317.77C164.42,-306.68 140.28,-292.81 118.29,-281.41 112.18,-278.25 105.63,-275.04 99.21,-271.98"/>
<polygon fill="black" stroke="black" points="100.51,-268.73 89.97,-267.66 97.54,-275.07 100.51,-268.73"/>
</g>
<!-- Observation&#45;&gt;Identifier -->
<g id="edge7" class="edge">
<title>Observation&#45;&gt;Identifier</title>
<path fill="none" stroke="black" d="M154.34,-347.27C139.45,-349.67 123.73,-352.19 109.48,-354.48"/>
<polygon fill="black" stroke="black" points="108.71,-351.06 99.39,-356.1 109.82,-357.97 108.71,-351.06"/>
</g>
<!-- Observation&#45;&gt;Tag -->
<g id="edge16" class="edge">
<title>Observation&#45;&gt;Tag</title>
<path fill="none" stroke="black" d="M189.56,-316.09C178.12,-306.14 164.91,-293.78 154.29,-281.41 135.5,-259.53 140.19,-246.19 118.29,-227.41 110.97,-221.14 101.94,-216.01 93.2,-211.99"/>
<polygon fill="black" stroke="black" points="94.5,-208.73 83.93,-208.04 91.76,-215.17 94.5,-208.73"/>
</g>
<!-- Observation&#45;&gt;Note -->
<g id="edge10" class="edge">
<title>Observation&#45;&gt;Note</title>
<path fill="none" stroke="black" d="M156.25,-326.33C136,-322.56 114,-318.45 96.16,-315.13"/>
<polygon fill="black" stroke="black" points="96.65,-311.66 86.18,-313.27 95.37,-318.54 96.65,-311.66"/>
</g>
<!-- Observation&#45;&gt;Source -->
<g id="edge28" class="edge">
<title>Observation&#45;&gt;Source</title>
<path fill="none" stroke="black" stroke-dasharray="1,5" d="M238.27,-368.37C251.3,-388.98 267.76,-417.02 279.07,-443.41 301.5,-495.77 280.53,-521.12 315.07,-566.41 322.15,-575.7 332.66,-582.99 342.49,-588.33"/>
<polygon fill="black" stroke="black" points="241.09,-366.27 232.74,-359.74 235.19,-370.05 241.09,-366.27"/>
</g>
<!-- Observation&#45;&gt;CollectionObject -->
<g id="edge21" class="edge">
<title>Observation&#45;&gt;CollectionObject</title>
<path fill="none" stroke="black" stroke-dasharray="5,2" d="M265.05,-315.44C285.86,-305.78 309.99,-294.59 329.72,-285.44"/>
<polygon fill="black" stroke="black" points="263.35,-312.37 255.76,-319.75 266.3,-318.72 263.35,-312.37"/>
</g>
<!-- Observation&#45;&gt;Descriptor -->
<g id="edge23" class="edge">
<title>Observation&#45;&gt;Descriptor</title>
<path fill="none" stroke="black" stroke-dasharray="5,2" d="M250.54,-308.8C259.97,-300.22 270.13,-290.64 279.07,-281.41 296.18,-263.76 295.72,-254.58 315.07,-239.41 320.39,-235.24 326.46,-231.45 332.55,-228.11"/>
<polygon fill="black" stroke="black" points="247.92,-306.45 242.82,-315.74 252.6,-311.65 247.92,-306.45"/>
</g>
<!-- Observation&#45;&gt;Otu -->
<g id="edge24" class="edge">
<title>Observation&#45;&gt;Otu</title>
<path fill="none" stroke="black" stroke-dasharray="5,2" d="M253.53,-309.94C262.77,-301.56 272.07,-291.78 279.07,-281.41 304.78,-243.29 284.42,-218.7 315.07,-184.41 322.42,-176.19 332.85,-170.15 342.56,-165.89"/>
<polygon fill="black" stroke="black" points="251.08,-307.44 245.84,-316.65 255.68,-312.72 251.08,-307.44"/>
</g>
<!-- Observation&#45;&gt;PinboardItem -->
<g id="edge11" class="edge">
<title>Observation&#45;&gt;PinboardItem</title>
<path fill="none" stroke="black" d="M246.95,-316.89C258.55,-307.35 271.02,-295.09 279.07,-281.41 314.28,-221.58 272.07,-183.92 315.07,-129.41 315.65,-128.68 316.25,-127.97 316.88,-127.27"/>
<polygon fill="black" stroke="black" points="319.3,-129.79 324.34,-120.47 314.59,-124.62 319.3,-129.79"/>
</g>
<!-- Observation&#45;&gt;Role -->
<g id="edge12" class="edge">
<title>Observation&#45;&gt;Role</title>
<path fill="none" stroke="black" d="M279.05,-346.77C297.12,-349.52 316.31,-352.45 332.27,-354.88"/>
<polygon fill="black" stroke="black" points="331.83,-358.35 342.24,-356.4 332.88,-351.43 331.83,-358.35"/>
</g>
<!-- Observation&#45;&gt;SubsequentCitation -->
<g id="edge14" class="edge">
<title>Observation&#45;&gt;SubsequentCitation</title>
<path fill="none" stroke="black" d="M231.56,-359.77C244.5,-380.96 264,-413.86 279.07,-443.41 296.97,-478.51 285.82,-498.02 315.07,-524.41 335.34,-542.71 399.05,-561.9 450.13,-575.04"/>
<polygon fill="black" stroke="black" points="449.28,-578.43 459.83,-577.5 451,-571.65 449.28,-578.43"/>
</g>
<!-- Observation&#45;&gt;VerifierRole -->
<g id="edge18" class="edge">
<title>Observation&#45;&gt;VerifierRole</title>
<path fill="none" stroke="black" d="M234.45,-359.47C252.51,-382.13 282.99,-417.39 315.07,-441.41 316.66,-442.61 318.32,-443.77 320.01,-444.91"/>
<polygon fill="black" stroke="black" points="318.42,-448.04 328.76,-450.32 322.1,-442.08 318.42,-448.04"/>
</g>
<!-- Observation&#45;&gt;CharacterState -->
<g id="edge20" class="edge">
<title>Observation&#45;&gt;CharacterState</title>
<path fill="none" stroke="black" stroke-dasharray="5,2" d="M262.21,-360.35C278.79,-368.88 297.78,-378.61 315.07,-387.41 320.73,-390.29 326.72,-393.33 332.58,-396.29"/>
<polygon fill="black" stroke="black" points="263.76,-357.22 253.27,-355.76 260.56,-363.44 263.76,-357.22"/>
</g>
<!-- Observation&#45;&gt;Creator -->
<g id="edge22" class="edge">
<title>Observation&#45;&gt;Creator</title>
<path fill="none" stroke="black" stroke-dasharray="5,2" d="M255.32,-310.63C264.48,-302.3 273.3,-292.38 279.07,-281.41 306.23,-229.8 271.09,-59.73 315.07,-21.41 364.87,21.97 448.99,-10.96 492.36,-32.91"/>
<polygon fill="black" stroke="black" points="252.91,-308.08 247.6,-317.25 257.47,-313.4 252.91,-308.08"/>
</g>
<!-- Observation&#45;&gt;Project -->
<g id="edge25" class="edge">
<title>Observation&#45;&gt;Project</title>
<path fill="none" stroke="black" stroke-dasharray="5,2" d="M255.06,-310.49C264.22,-302.16 273.1,-292.28 279.07,-281.41 323.8,-199.94 259.7,-150.06 315.07,-75.41 321.7,-66.47 332.14,-60.29 342.04,-56.12"/>
<polygon fill="black" stroke="black" points="252.66,-307.95 247.35,-317.12 257.22,-313.25 252.66,-307.95"/>
</g>
<!-- Observation&#45;&gt;Updater -->
<g id="edge26" class="edge">
<title>Observation&#45;&gt;Updater</title>
<path fill="none" stroke="black" stroke-dasharray="5,2" d="M289.03,-332.57C330.44,-327.37 382.46,-316.63 424.07,-294.41 534.68,-235.36 629.45,-112.6 662.53,-66.46"/>
<polygon fill="black" stroke="black" points="288.54,-329.1 279.02,-333.74 289.36,-336.05 288.54,-329.1"/>
</g>
<!-- Observation&#45;&gt;OriginCitation -->
<g id="edge27" class="edge">
<title>Observation&#45;&gt;OriginCitation</title>
<path fill="none" stroke="black" stroke-dasharray="1,5" d="M235.86,-368.41C262.31,-413.28 308.92,-491.43 315.07,-495.41 362.53,-526.15 429.18,-529.28 473.45,-527.15"/>
<polygon fill="black" stroke="black" points="238.79,-366.49 230.7,-359.65 232.76,-370.04 238.79,-366.49"/>
</g>
<!-- Source&#45;&gt;SubsequentCitation -->
<!-- Source&#45;&gt;OriginCitation -->
<!-- CitationTopic&#45;&gt;Topic -->
<g id="edge17" class="edge">
<title>CitationTopic&#45;&gt;Topic</title>
<path fill="none" stroke="black" d="M262.95,-654.41C285.08,-654.41 311.36,-654.41 332.17,-654.41"/>
<polygon fill="black" stroke="black" points="332.2,-657.91 342.2,-654.41 332.2,-650.91 332.2,-657.91"/>
</g>
<!-- Role&#45;&gt;Verifier -->
<!-- SubsequentCitation&#45;&gt;SubsequentSource -->
<g id="edge15" class="edge">
<title>SubsequentCitation&#45;&gt;SubsequentSource</title>
<path fill="none" stroke="black" d="M582.1,-591.41C590.43,-591.41 599.04,-591.41 607.5,-591.41"/>
<polygon fill="black" stroke="black" points="607.71,-594.91 617.71,-591.41 607.71,-587.91 607.71,-594.91"/>
</g>
<!-- VerifierRole&#45;&gt;Verifier -->
<g id="edge19" class="edge">
<title>VerifierRole&#45;&gt;Verifier</title>
<path fill="none" stroke="black" d="M411.42,-454.75C433.76,-447.28 461.23,-438.09 482.96,-430.83"/>
<polygon fill="black" stroke="black" points="484.12,-434.13 492.5,-427.63 481.9,-427.49 484.12,-434.13"/>
</g>
<!-- Creator&#45;&gt;Updater -->
<!-- Project&#45;&gt;Creator -->
<!-- Citation -->
<g id="node1" class="node">
<title>Citation</title>
<g id="a_node1"><a xlink:href="/develop/Data/models.html#citation" xlink:title="Citation" target="_top">
<ellipse fill="#abcdef" stroke="#dddeee" cx="59.14" cy="-599.41" rx="38.99" ry="18"/>
<text text-anchor="middle" x="59.14" y="-595.71" font-family="Times,serif" font-size="14.00">Citation</text>
</a>
</g>
</g>
<!-- Confidence -->
<g id="node2" class="node">
<title>Confidence</title>
<g id="a_node2"><a xlink:href="/develop/Data/models.html#confidence" xlink:title="Confidence" target="_top">
<ellipse fill="#abcdef" stroke="#dddeee" cx="59.14" cy="-470.41" rx="50.89" ry="18"/>
<text text-anchor="middle" x="59.14" y="-466.71" font-family="Times,serif" font-size="14.00">Confidence</text>
</a>
</g>
</g>
<!-- DataAttribute -->
<g id="node3" class="node">
<title>DataAttribute</title>
<g id="a_node3"><a xlink:href="/develop/Data/models.html#data-attribute" xlink:title="DataAttribute" target="_top">
<ellipse fill="#abcdef" stroke="#dddeee" cx="59.14" cy="-416.41" rx="59.29" ry="18"/>
<text text-anchor="middle" x="59.14" y="-412.71" font-family="Times,serif" font-size="14.00">DataAttribute</text>
</a>
</g>
</g>
<!-- Depiction -->
<g id="node4" class="node">
<title>Depiction</title>
<g id="a_node4"><a xlink:href="/develop/Data/models.html#depiction" xlink:title="Depiction" target="_top">
<ellipse fill="#abcdef" stroke="#dddeee" cx="59.14" cy="-254.41" rx="45.49" ry="18"/>
<text text-anchor="middle" x="59.14" y="-250.71" font-family="Times,serif" font-size="14.00">Depiction</text>
</a>
</g>
</g>
<!-- Identifier -->
<g id="node5" class="node">
<title>Identifier</title>
<g id="a_node5"><a xlink:href="/develop/Data/models.html#identifier" xlink:title="Identifier" target="_top">
<ellipse fill="#abcdef" stroke="#dddeee" cx="59.14" cy="-362.41" rx="42.79" ry="18"/>
<text text-anchor="middle" x="59.14" y="-358.71" font-family="Times,serif" font-size="14.00">Identifier</text>
</a>
</g>
</g>
<!-- Tag -->
<g id="node6" class="node">
<title>Tag</title>
<g id="a_node6"><a xlink:href="/develop/Data/models.html#tag" xlink:title="Tag" target="_top">
<ellipse fill="#abcdef" stroke="#dddeee" cx="59.14" cy="-200.41" rx="27" ry="18"/>
<text text-anchor="middle" x="59.14" y="-196.71" font-family="Times,serif" font-size="14.00">Tag</text>
</a>
</g>
</g>
<!-- Note -->
<g id="node7" class="node">
<title>Note</title>
<g id="a_node7"><a xlink:href="/develop/Data/models.html#note" xlink:title="Note" target="_top">
<ellipse fill="#abcdef" stroke="#dddeee" cx="59.14" cy="-308.41" rx="27.9" ry="18"/>
<text text-anchor="middle" x="59.14" y="-304.71" font-family="Times,serif" font-size="14.00">Note</text>
</a>
</g>
</g>
<!-- Observation -->
<g id="node8" class="node">
<title>Observation</title>
<g id="a_node8"><a xlink:href="/develop/Data/models.html#observation" xlink:title="Observation" target="_top">
<polygon fill="#cdefab" stroke="#dedede" points="274.97,-329.96 274.97,-344.87 240.82,-355.41 192.54,-355.41 158.39,-344.87 158.39,-329.96 192.54,-319.41 240.82,-319.41 274.97,-329.96"/>
<polygon fill="none" stroke="#dedede" points="278.96,-327 278.96,-347.82 241.42,-359.41 191.93,-359.41 154.4,-347.82 154.4,-327 191.93,-315.41 241.42,-315.41 278.96,-327"/>
<text text-anchor="middle" x="216.68" y="-333.71" font-family="Times,serif" font-size="14.00">Observation</text>
</a>
</g>
</g>
<!-- Source -->
<g id="node9" class="node">
<title>Source</title>
<g id="a_node9"><a xlink:href="/develop/Data/models.html#source" xlink:title="Source" target="_top">
<path fill="#fedcba" stroke="#dddeee" d="M354.57,-581.41C354.57,-581.41 384.57,-581.41 384.57,-581.41 390.57,-581.41 396.57,-587.41 396.57,-593.41 396.57,-593.41 396.57,-605.41 396.57,-605.41 396.57,-611.41 390.57,-617.41 384.57,-617.41 384.57,-617.41 354.57,-617.41 354.57,-617.41 348.57,-617.41 342.57,-611.41 342.57,-605.41 342.57,-605.41 342.57,-593.41 342.57,-593.41 342.57,-587.41 348.57,-581.41 354.57,-581.41"/>
<text text-anchor="middle" x="369.57" y="-595.71" font-family="Times,serif" font-size="14.00">Source</text>
</a>
</g>
</g>
<!-- CollectionObject -->
<g id="node10" class="node">
<title>CollectionObject</title>
<g id="a_node10"><a xlink:href="/develop/Data/models.html#collection-object" xlink:title="CollectionObject" target="_top">
<path fill="#fedcba" stroke="#dddeee" d="M327.07,-249.41C327.07,-249.41 412.07,-249.41 412.07,-249.41 418.07,-249.41 424.07,-255.41 424.07,-261.41 424.07,-261.41 424.07,-273.41 424.07,-273.41 424.07,-279.41 418.07,-285.41 412.07,-285.41 412.07,-285.41 327.07,-285.41 327.07,-285.41 321.07,-285.41 315.07,-279.41 315.07,-273.41 315.07,-273.41 315.07,-261.41 315.07,-261.41 315.07,-255.41 321.07,-249.41 327.07,-249.41"/>
<text text-anchor="middle" x="369.57" y="-263.71" font-family="Times,serif" font-size="14.00">CollectionObject</text>
</a>
</g>
</g>
<!-- Descriptor -->
<g id="node11" class="node">
<title>Descriptor</title>
<g id="a_node11"><a xlink:href="/develop/Data/models.html#descriptor" xlink:title="Descriptor" target="_top">
<path fill="#fedcba" stroke="#dddeee" d="M344.57,-194.41C344.57,-194.41 394.57,-194.41 394.57,-194.41 400.57,-194.41 406.57,-200.41 406.57,-206.41 406.57,-206.41 406.57,-218.41 406.57,-218.41 406.57,-224.41 400.57,-230.41 394.57,-230.41 394.57,-230.41 344.57,-230.41 344.57,-230.41 338.57,-230.41 332.57,-224.41 332.57,-218.41 332.57,-218.41 332.57,-206.41 332.57,-206.41 332.57,-200.41 338.57,-194.41 344.57,-194.41"/>
<text text-anchor="middle" x="369.57" y="-208.71" font-family="Times,serif" font-size="14.00">Descriptor</text>
</a>
</g>
</g>
<!-- Otu -->
<g id="node12" class="node">
<title>Otu</title>
<g id="a_node12"><a xlink:href="/develop/Data/models.html#otu" xlink:title="Otu" target="_top">
<path fill="#fedcba" stroke="#dddeee" d="M354.57,-139.41C354.57,-139.41 384.57,-139.41 384.57,-139.41 390.57,-139.41 396.57,-145.41 396.57,-151.41 396.57,-151.41 396.57,-163.41 396.57,-163.41 396.57,-169.41 390.57,-175.41 384.57,-175.41 384.57,-175.41 354.57,-175.41 354.57,-175.41 348.57,-175.41 342.57,-169.41 342.57,-163.41 342.57,-163.41 342.57,-151.41 342.57,-151.41 342.57,-145.41 348.57,-139.41 354.57,-139.41"/>
<text text-anchor="middle" x="369.57" y="-153.71" font-family="Times,serif" font-size="14.00">Otu</text>
</a>
</g>
</g>
<!-- CitationTopic -->
<g id="node13" class="node">
<title>CitationTopic</title>
<g id="a_node13"><a xlink:href="/develop/Data/models.html#citation-topic" xlink:title="CitationTopic" target="_top">
<polygon fill="#eeefff" stroke="#dddeee" points="262.68,-672.41 170.68,-672.41 170.68,-636.41 262.68,-636.41 262.68,-672.41"/>
<text text-anchor="middle" x="216.68" y="-650.71" font-family="Times,serif" font-size="14.00">CitationTopic</text>
</a>
</g>
</g>
<!-- ConfidenceLevel -->
<g id="node14" class="node">
<title>ConfidenceLevel</title>
<g id="a_node14"><a xlink:href="/develop/Data/models.html#confidence-level" xlink:title="ConfidenceLevel" target="_top">
<polygon fill="#eeefff" stroke="#dddeee" points="271.18,-488.41 162.18,-488.41 162.18,-452.41 271.18,-452.41 271.18,-488.41"/>
<text text-anchor="middle" x="216.68" y="-466.71" font-family="Times,serif" font-size="14.00">ConfidenceLevel</text>
</a>
</g>
</g>
<!-- Image -->
<g id="node15" class="node">
<title>Image</title>
<g id="a_node15"><a xlink:href="/develop/Data/models.html#image" xlink:title="Image" target="_top">
<polygon fill="#eeefff" stroke="#dddeee" points="243.68,-272.41 189.68,-272.41 189.68,-236.41 243.68,-236.41 243.68,-272.41"/>
<text text-anchor="middle" x="216.68" y="-250.71" font-family="Times,serif" font-size="14.00">Image</text>
</a>
</g>
</g>
<!-- Keyword -->
<g id="node16" class="node">
<title>Keyword</title>
<g id="a_node16"><a xlink:href="/develop/Data/models.html#keyword" xlink:title="Keyword" target="_top">
<polygon fill="#eeefff" stroke="#dddeee" points="250.18,-218.41 183.18,-218.41 183.18,-182.41 250.18,-182.41 250.18,-218.41"/>
<text text-anchor="middle" x="216.68" y="-196.71" font-family="Times,serif" font-size="14.00">Keyword</text>
</a>
</g>
</g>
<!-- PinboardItem -->
<g id="node17" class="node">
<title>PinboardItem</title>
<g id="a_node17"><a xlink:href="/develop/Data/models.html#pinboard-item" xlink:title="PinboardItem" target="_top">
<polygon fill="#eeefff" stroke="#dddeee" points="415.07,-120.41 324.07,-120.41 324.07,-84.41 415.07,-84.41 415.07,-120.41"/>
<text text-anchor="middle" x="369.57" y="-98.71" font-family="Times,serif" font-size="14.00">PinboardItem</text>
</a>
</g>
</g>
<!-- Role -->
<g id="node18" class="node">
<title>Role</title>
<g id="a_node18"><a xlink:href="/develop/Data/models.html#role" xlink:title="Role" target="_top">
<polygon fill="#eeefff" stroke="#dddeee" points="396.57,-378.41 342.57,-378.41 342.57,-342.41 396.57,-342.41 396.57,-378.41"/>
<text text-anchor="middle" x="369.57" y="-356.71" font-family="Times,serif" font-size="14.00">Role</text>
</a>
</g>
</g>
<!-- SubsequentCitation -->
<g id="node19" class="node">
<title>SubsequentCitation</title>
<g id="a_node19"><a xlink:href="/develop/Data/models.html#subsequent-citation" xlink:title="SubsequentCitation" target="_top">
<polygon fill="#eeefff" stroke="#dddeee" points="582.07,-609.41 460.07,-609.41 460.07,-573.41 582.07,-573.41 582.07,-609.41"/>
<text text-anchor="middle" x="521.07" y="-587.71" font-family="Times,serif" font-size="14.00">SubsequentCitation</text>
</a>
</g>
</g>
<!-- SubsequentSource -->
<g id="node20" class="node">
<title>SubsequentSource</title>
<g id="a_node20"><a xlink:href="/develop/Data/models.html#subsequent-source" xlink:title="SubsequentSource" target="_top">
<polygon fill="#eeefff" stroke="#dddeee" points="734.07,-609.41 618.07,-609.41 618.07,-573.41 734.07,-573.41 734.07,-609.41"/>
<text text-anchor="middle" x="676.07" y="-587.71" font-family="Times,serif" font-size="14.00">SubsequentSource</text>
</a>
</g>
</g>
<!-- Topic -->
<g id="node21" class="node">
<title>Topic</title>
<g id="a_node21"><a xlink:href="/develop/Data/models.html#topic" xlink:title="Topic" target="_top">
<polygon fill="#eeefff" stroke="#dddeee" points="396.57,-672.41 342.57,-672.41 342.57,-636.41 396.57,-636.41 396.57,-672.41"/>
<text text-anchor="middle" x="369.57" y="-650.71" font-family="Times,serif" font-size="14.00">Topic</text>
</a>
</g>
</g>
<!-- VerifierRole -->
<g id="node22" class="node">
<title>VerifierRole</title>
<g id="a_node22"><a xlink:href="/develop/Data/models.html#verifier-role" xlink:title="VerifierRole" target="_top">
<polygon fill="#eeefff" stroke="#dddeee" points="411.07,-486.41 328.07,-486.41 328.07,-450.41 411.07,-450.41 411.07,-486.41"/>
<text text-anchor="middle" x="369.57" y="-464.71" font-family="Times,serif" font-size="14.00">VerifierRole</text>
</a>
</g>
</g>
<!-- Verifier -->
<g id="node23" class="node">
<title>Verifier</title>
<g id="a_node23"><a xlink:href="/develop/Data/models.html#verifier" xlink:title="Verifier" target="_top">
<polygon fill="#eeefff" stroke="#dddeee" points="549.57,-436.41 492.57,-436.41 492.57,-400.41 549.57,-400.41 549.57,-436.41"/>
<text text-anchor="middle" x="521.07" y="-414.71" font-family="Times,serif" font-size="14.00">Verifier</text>
</a>
</g>
</g>
<!-- CharacterState -->
<g id="node24" class="node">
<title>CharacterState</title>
<g id="a_node24"><a xlink:href="/develop/Data/models.html#character-state" xlink:title="CharacterState" target="_top">
<polygon fill="#eeefff" stroke="#dddeee" points="417.57,-432.41 321.57,-432.41 321.57,-396.41 417.57,-396.41 417.57,-432.41"/>
<text text-anchor="middle" x="369.57" y="-410.71" font-family="Times,serif" font-size="14.00">CharacterState</text>
</a>
</g>
</g>
<!-- Creator -->
<g id="node25" class="node">
<title>Creator</title>
<g id="a_node25"><a xlink:href="/develop/Data/models.html#creator" xlink:title="Creator" target="_top">
<polygon fill="#eeefff" stroke="#dddeee" points="549.57,-66.41 492.57,-66.41 492.57,-30.41 549.57,-30.41 549.57,-66.41"/>
<text text-anchor="middle" x="521.07" y="-44.71" font-family="Times,serif" font-size="14.00">Creator</text>
</a>
</g>
</g>
<!-- Project -->
<g id="node26" class="node">
<title>Project</title>
<g id="a_node26"><a xlink:href="/develop/Data/models.html#project" xlink:title="Project" target="_top">
<polygon fill="#eeefff" stroke="#dddeee" points="397.07,-66.41 342.07,-66.41 342.07,-30.41 397.07,-30.41 397.07,-66.41"/>
<text text-anchor="middle" x="369.57" y="-44.71" font-family="Times,serif" font-size="14.00">Project</text>
</a>
</g>
</g>
<!-- Updater -->
<g id="node27" class="node">
<title>Updater</title>
<g id="a_node27"><a xlink:href="/develop/Data/models.html#updater" xlink:title="Updater" target="_top">
<polygon fill="#eeefff" stroke="#dddeee" points="706.07,-66.41 646.07,-66.41 646.07,-30.41 706.07,-30.41 706.07,-66.41"/>
<text text-anchor="middle" x="676.07" y="-44.71" font-family="Times,serif" font-size="14.00">Updater</text>
</a>
</g>
</g>
<!-- OriginCitation -->
<g id="node28" class="node">
<title>OriginCitation</title>
<g id="a_node28"><a xlink:href="/develop/Data/models.html#origin-citation" xlink:title="OriginCitation" target="_top">
<polygon fill="#eeefff" stroke="#dddeee" points="568.57,-540.41 473.57,-540.41 473.57,-504.41 568.57,-504.41 568.57,-540.41"/>
<text text-anchor="middle" x="521.07" y="-518.71" font-family="Times,serif" font-size="14.00">OriginCitation</text>
</a>
</g>
</g>
</g>
</svg>
