<?xml version="1.0" encoding="UTF-8" standalone="no"?>
<!DOCTYPE svg PUBLIC "-//W3C//DTD SVG 1.1//EN"
 "http://www.w3.org/Graphics/SVG/1.1/DTD/svg11.dtd">
<!-- Generated by graphviz version 2.50.0 (20211204.2007)
 -->
<!-- Title: ObservationMatrixRowItem Pages: 1 -->
<svg width="844pt" height="560pt"
 viewBox="0.00 0.00 844.39 560.00" xmlns="http://www.w3.org/2000/svg" xmlns:xlink="http://www.w3.org/1999/xlink">
<g id="graph0" class="graph" transform="scale(1 1) rotate(0) translate(4 556)">
<title>ObservationMatrixRowItem</title>
<polygon fill="white" stroke="transparent" points="-4,4 -4,-556 840.39,-556 840.39,4 -4,4"/>
<text text-anchor="middle" x="418.19" y="-22.8" font-family="Times,serif" font-size="14.00">Algorithmically generated relationships for ObservationMatrixRowItem based on assertions of &#39;has_many&#39;, &#39;has_one&#39;, &#39;belongs_to&#39;. </text>
<text text-anchor="middle" x="418.19" y="-7.8" font-family="Times,serif" font-size="14.00">Generated 2022&#45;01&#45;25 11:43:29 &#45;0600.</text>
<!-- Citation&#45;&gt;Source -->
<g id="edge8" class="edge">
<title>Citation&#45;&gt;Source</title>
<path fill="none" stroke="black" d="M82.04,-479C162.65,-479 349.4,-479 428.71,-479"/>
<polygon fill="black" stroke="black" points="429.16,-482.5 439.16,-479 429.16,-475.5 429.16,-482.5"/>
</g>
<!-- Citation&#45;&gt;CitationTopic -->
<g id="edge1" class="edge">
<title>Citation&#45;&gt;CitationTopic</title>
<path fill="none" stroke="black" d="M77.12,-488.08C107.72,-496.45 153.73,-509.02 189.86,-518.9"/>
<polygon fill="black" stroke="black" points="189.2,-522.35 199.77,-521.61 191.04,-515.6 189.2,-522.35"/>
</g>
<!-- Tag&#45;&gt;Keyword -->
<g id="edge4" class="edge">
<title>Tag&#45;&gt;Keyword</title>
<path fill="none" stroke="black" d="M70.2,-252.87C103.81,-252.7 162.41,-252.41 202.44,-252.21"/>
<polygon fill="black" stroke="black" points="202.46,-255.71 212.45,-252.16 202.43,-248.71 202.46,-255.71"/>
</g>
<!-- Source&#45;&gt;SubsequentCitation -->
<!-- Source&#45;&gt;OriginCitation -->
<!-- ObservationMatrixRowItem&#45;&gt;Citation -->
<g id="edge2" class="edge">
<title>ObservationMatrixRowItem&#45;&gt;Citation</title>
<path fill="none" stroke="black" d="M218.71,-332.16C180.12,-364.58 108.69,-424.58 70.16,-456.94"/>
<polygon fill="black" stroke="black" points="67.87,-454.29 62.46,-463.4 72.37,-459.65 67.87,-454.29"/>
</g>
<!-- ObservationMatrixRowItem&#45;&gt;Identifier -->
<g id="edge3" class="edge">
<title>ObservationMatrixRowItem&#45;&gt;Identifier</title>
<path fill="none" stroke="black" d="M173.18,-328.59C145.36,-335.77 114.35,-343.79 89.68,-350.17"/>
<polygon fill="black" stroke="black" points="88.67,-346.81 79.87,-352.7 90.42,-353.59 88.67,-346.81"/>
</g>
<!-- ObservationMatrixRowItem&#45;&gt;Tag -->
<g id="edge11" class="edge">
<title>ObservationMatrixRowItem&#45;&gt;Tag</title>
<path fill="none" stroke="black" d="M169.53,-291.97C153.7,-287.92 137.15,-283.49 121.79,-279 106.93,-274.66 90.65,-269.32 76.84,-264.61"/>
<polygon fill="black" stroke="black" points="77.87,-261.26 67.27,-261.32 75.59,-267.88 77.87,-261.26"/>
</g>
<!-- ObservationMatrixRowItem&#45;&gt;Note -->
<g id="edge5" class="edge">
<title>ObservationMatrixRowItem&#45;&gt;Note</title>
<path fill="none" stroke="black" d="M121.84,-308.77C107.25,-308.63 93.33,-308.49 81.39,-308.37"/>
<polygon fill="black" stroke="black" points="81.06,-304.87 71.03,-308.27 80.99,-311.87 81.06,-304.87"/>
</g>
<!-- ObservationMatrixRowItem&#45;&gt;Source -->
<g id="edge20" class="edge">
<title>ObservationMatrixRowItem&#45;&gt;Source</title>
<path fill="none" stroke="black" stroke-dasharray="1,5" d="M277.38,-339.03C308.39,-367.97 358.66,-412.76 406.39,-446 416.69,-453.18 428.69,-460.12 439.17,-465.77"/>
<polygon fill="black" stroke="black" points="279.61,-336.33 269.93,-332.04 274.82,-341.43 279.61,-336.33"/>
</g>
<!-- ObservationMatrixRowItem&#45;&gt;PinboardItem -->
<g id="edge6" class="edge">
<title>ObservationMatrixRowItem&#45;&gt;PinboardItem</title>
<path fill="none" stroke="black" d="M343.94,-295.04C353.51,-290.9 362.56,-285.64 370.39,-279 401.04,-252.98 379.23,-225.65 406.39,-196 409.06,-193.09 412.05,-190.38 415.24,-187.89"/>
<polygon fill="black" stroke="black" points="417.32,-190.71 423.5,-182.1 413.3,-184.97 417.32,-190.71"/>
</g>
<!-- ObservationMatrixRowItem&#45;&gt;Role -->
<g id="edge7" class="edge">
<title>ObservationMatrixRowItem&#45;&gt;Role</title>
<path fill="none" stroke="black" d="M347.64,-295.71C356.11,-291.4 363.9,-285.92 370.39,-279 430.96,-214.38 351.97,-152.88 406.39,-83 412.33,-75.36 420.93,-69.81 429.74,-65.81"/>
<polygon fill="black" stroke="black" points="431.25,-68.97 439.26,-62.04 428.67,-62.46 431.25,-68.97"/>
</g>
<!-- ObservationMatrixRowItem&#45;&gt;SubsequentCitation -->
<g id="edge9" class="edge">
<title>ObservationMatrixRowItem&#45;&gt;SubsequentCitation</title>
<path fill="none" stroke="black" d="M282.88,-332.09C314.59,-351.09 362.53,-378.44 406.39,-398 453.98,-419.22 509.56,-438.4 552.42,-452.05"/>
<polygon fill="black" stroke="black" points="551.61,-455.46 562.2,-455.14 553.72,-448.79 551.61,-455.46"/>
</g>
<!-- ObservationMatrixRowItem&#45;&gt;VerifierRole -->
<g id="edge13" class="edge">
<title>ObservationMatrixRowItem&#45;&gt;VerifierRole</title>
<path fill="none" stroke="black" d="M346.57,-295.55C355.36,-291.28 363.51,-285.86 370.39,-279 416.47,-233.01 364.7,-187.01 406.39,-137 409.15,-133.69 412.4,-130.77 415.93,-128.19"/>
<polygon fill="black" stroke="black" points="417.97,-131.04 424.6,-122.78 414.26,-125.1 417.97,-131.04"/>
</g>
<!-- ObservationMatrixRowItem&#45;&gt;Creator -->
<g id="edge15" class="edge">
<title>ObservationMatrixRowItem&#45;&gt;Creator</title>
<path fill="none" stroke="black" stroke-dasharray="5,2" d="M348.81,-290.72C356.41,-287.42 363.7,-283.54 370.39,-279 393.04,-263.62 382.02,-241.48 406.39,-229 467.94,-197.47 551.87,-224.82 594.73,-242.97"/>
<polygon fill="black" stroke="black" points="347.4,-287.52 339.42,-294.48 350.01,-294.02 347.4,-287.52"/>
</g>
<!-- ObservationMatrixRowItem&#45;&gt;ObservationMatrix -->
<g id="edge16" class="edge">
<title>ObservationMatrixRowItem&#45;&gt;ObservationMatrix</title>
<path fill="none" stroke="black" stroke-dasharray="5,2" d="M380.44,-310C389.37,-310 398.07,-310 406.29,-310"/>
<polygon fill="black" stroke="black" points="380.27,-306.5 370.27,-310 380.27,-313.5 380.27,-306.5"/>
</g>
<!-- ObservationMatrixRowItem&#45;&gt;Project -->
<g id="edge17" class="edge">
<title>ObservationMatrixRowItem&#45;&gt;Project</title>
<path fill="none" stroke="black" stroke-dasharray="5,2" d="M331.14,-289.21C369.44,-279.73 412.09,-269.18 438.83,-262.57"/>
<polygon fill="black" stroke="black" points="329.86,-285.92 321,-291.72 331.54,-292.71 329.86,-285.92"/>
</g>
<!-- ObservationMatrixRowItem&#45;&gt;Updater -->
<g id="edge18" class="edge">
<title>ObservationMatrixRowItem&#45;&gt;Updater</title>
<path fill="none" stroke="black" stroke-dasharray="5,2" d="M340.76,-328.57C362.24,-332.07 385.03,-335.2 406.39,-337 459.53,-341.47 473.7,-345.29 526.39,-337 609.39,-323.94 702.36,-287.98 748.37,-268.67"/>
<polygon fill="black" stroke="black" points="341.11,-325.08 330.67,-326.88 339.95,-331.98 341.11,-325.08"/>
</g>
<!-- ObservationMatrixRowItem&#45;&gt;OriginCitation -->
<g id="edge19" class="edge">
<title>ObservationMatrixRowItem&#45;&gt;OriginCitation</title>
<path fill="none" stroke="black" stroke-dasharray="1,5" d="M307.69,-335.5C337.1,-347.18 373.18,-360.51 406.39,-370 463.74,-386.39 531.4,-398.77 575.51,-405.94"/>
<polygon fill="black" stroke="black" points="308.97,-332.24 298.38,-331.77 306.36,-338.74 308.97,-332.24"/>
</g>
<!-- CitationTopic&#45;&gt;Topic -->
<g id="edge12" class="edge">
<title>CitationTopic&#45;&gt;Topic</title>
<path fill="none" stroke="black" d="M292.32,-534C332.79,-534 391.35,-534 428.89,-534"/>
<polygon fill="black" stroke="black" points="429.36,-537.5 439.36,-534 429.36,-530.5 429.36,-537.5"/>
</g>
<!-- Role&#45;&gt;Verifier -->
<!-- SubsequentCitation&#45;&gt;SubsequentSource -->
<g id="edge10" class="edge">
<title>SubsequentCitation&#45;&gt;SubsequentSource</title>
<path fill="none" stroke="black" d="M684.42,-473C692.75,-473 701.36,-473 709.81,-473"/>
<polygon fill="black" stroke="black" points="710.03,-476.5 720.03,-473 710.03,-469.5 710.03,-476.5"/>
</g>
<!-- VerifierRole&#45;&gt;Verifier -->
<g id="edge14" class="edge">
<title>VerifierRole&#45;&gt;Verifier</title>
<path fill="none" stroke="black" d="M508.11,-102.91C531.76,-98.79 561.35,-93.63 584.49,-89.6"/>
<polygon fill="black" stroke="black" points="585.38,-93 594.63,-87.83 584.18,-86.1 585.38,-93"/>
</g>
<!-- Creator&#45;&gt;Updater -->
<!-- Project&#45;&gt;Creator -->
<!-- Citation -->
<g id="node1" class="node">
<title>Citation</title>
<g id="a_node1"><a xlink:href="/develop/Data/models.html#citation" xlink:title="Citation" target="_top">
<ellipse fill="#abcdef" stroke="#dddeee" cx="42.9" cy="-479" rx="38.99" ry="18"/>
<text text-anchor="middle" x="42.9" y="-475.3" font-family="Times,serif" font-size="14.00">Citation</text>
</a>
</g>
</g>
<!-- Identifier -->
<g id="node2" class="node">
<title>Identifier</title>
<g id="a_node2"><a xlink:href="/develop/Data/models.html#identifier" xlink:title="Identifier" target="_top">
<ellipse fill="#abcdef" stroke="#dddeee" cx="42.9" cy="-362" rx="42.79" ry="18"/>
<text text-anchor="middle" x="42.9" y="-358.3" font-family="Times,serif" font-size="14.00">Identifier</text>
</a>
</g>
</g>
<!-- Tag -->
<g id="node3" class="node">
<title>Tag</title>
<g id="a_node3"><a xlink:href="/develop/Data/models.html#tag" xlink:title="Tag" target="_top">
<ellipse fill="#abcdef" stroke="#dddeee" cx="42.9" cy="-253" rx="27" ry="18"/>
<text text-anchor="middle" x="42.9" y="-249.3" font-family="Times,serif" font-size="14.00">Tag</text>
</a>
</g>
</g>
<!-- Note -->
<g id="node4" class="node">
<title>Note</title>
<g id="a_node4"><a xlink:href="/develop/Data/models.html#note" xlink:title="Note" target="_top">
<ellipse fill="#abcdef" stroke="#dddeee" cx="42.9" cy="-308" rx="27.9" ry="18"/>
<text text-anchor="middle" x="42.9" y="-304.3" font-family="Times,serif" font-size="14.00">Note</text>
</a>
</g>
</g>
<!-- Source -->
<g id="node5" class="node">
<title>Source</title>
<g id="a_node5"><a xlink:href="/develop/Data/models.html#source" xlink:title="Source" target="_top">
<path fill="#fedcba" stroke="#dddeee" d="M451.39,-461C451.39,-461 481.39,-461 481.39,-461 487.39,-461 493.39,-467 493.39,-473 493.39,-473 493.39,-485 493.39,-485 493.39,-491 487.39,-497 481.39,-497 481.39,-497 451.39,-497 451.39,-497 445.39,-497 439.39,-491 439.39,-485 439.39,-485 439.39,-473 439.39,-473 439.39,-467 445.39,-461 451.39,-461"/>
<text text-anchor="middle" x="466.39" y="-475.3" font-family="Times,serif" font-size="14.00">Source</text>
</a>
</g>
</g>
<!-- ObservationMatrixRowItem -->
<g id="node6" class="node">
<title>ObservationMatrixRowItem</title>
<g id="a_node6"><a xlink:href="/develop/Data/models.html#observation-matrix-row-item" xlink:title="ObservationMatrixRowItem" target="_top">
<polygon fill="#cdefab" stroke="#dedede" points="366.19,-302.54 366.19,-317.46 295.84,-328 196.34,-328 125.99,-317.46 125.99,-302.54 196.34,-292 295.84,-292 366.19,-302.54"/>
<polygon fill="none" stroke="#dedede" points="370.18,-299.1 370.18,-320.9 296.13,-332 196.04,-332 121.99,-320.9 121.99,-299.1 196.04,-288 296.13,-288 370.18,-299.1"/>
<text text-anchor="middle" x="246.09" y="-306.3" font-family="Times,serif" font-size="14.00">ObservationMatrixRowItem</text>
</a>
</g>
</g>
<!-- CitationTopic -->
<g id="node7" class="node">
<title>CitationTopic</title>
<g id="a_node7"><a xlink:href="/develop/Data/models.html#citation-topic" xlink:title="CitationTopic" target="_top">
<polygon fill="#eeefff" stroke="#dddeee" points="292.09,-552 200.09,-552 200.09,-516 292.09,-516 292.09,-552"/>
<text text-anchor="middle" x="246.09" y="-530.3" font-family="Times,serif" font-size="14.00">CitationTopic</text>
</a>
</g>
</g>
<!-- Keyword -->
<g id="node8" class="node">
<title>Keyword</title>
<g id="a_node8"><a xlink:href="/develop/Data/models.html#keyword" xlink:title="Keyword" target="_top">
<polygon fill="#eeefff" stroke="#dddeee" points="279.59,-270 212.59,-270 212.59,-234 279.59,-234 279.59,-270"/>
<text text-anchor="middle" x="246.09" y="-248.3" font-family="Times,serif" font-size="14.00">Keyword</text>
</a>
</g>
</g>
<!-- PinboardItem -->
<g id="node9" class="node">
<title>PinboardItem</title>
<g id="a_node9"><a xlink:href="/develop/Data/models.html#pinboard-item" xlink:title="PinboardItem" target="_top">
<polygon fill="#eeefff" stroke="#dddeee" points="511.89,-182 420.89,-182 420.89,-146 511.89,-146 511.89,-182"/>
<text text-anchor="middle" x="466.39" y="-160.3" font-family="Times,serif" font-size="14.00">PinboardItem</text>
</a>
</g>
</g>
<!-- Role -->
<g id="node10" class="node">
<title>Role</title>
<g id="a_node10"><a xlink:href="/develop/Data/models.html#role" xlink:title="Role" target="_top">
<polygon fill="#eeefff" stroke="#dddeee" points="493.39,-74 439.39,-74 439.39,-38 493.39,-38 493.39,-74"/>
<text text-anchor="middle" x="466.39" y="-52.3" font-family="Times,serif" font-size="14.00">Role</text>
</a>
</g>
</g>
<!-- SubsequentCitation -->
<g id="node11" class="node">
<title>SubsequentCitation</title>
<g id="a_node11"><a xlink:href="/develop/Data/models.html#subsequent-citation" xlink:title="SubsequentCitation" target="_top">
<polygon fill="#eeefff" stroke="#dddeee" points="684.39,-491 562.39,-491 562.39,-455 684.39,-455 684.39,-491"/>
<text text-anchor="middle" x="623.39" y="-469.3" font-family="Times,serif" font-size="14.00">SubsequentCitation</text>
</a>
</g>
</g>
<!-- SubsequentSource -->
<g id="node12" class="node">
<title>SubsequentSource</title>
<g id="a_node12"><a xlink:href="/develop/Data/models.html#subsequent-source" xlink:title="SubsequentSource" target="_top">
<polygon fill="#eeefff" stroke="#dddeee" points="836.39,-491 720.39,-491 720.39,-455 836.39,-455 836.39,-491"/>
<text text-anchor="middle" x="778.39" y="-469.3" font-family="Times,serif" font-size="14.00">SubsequentSource</text>
</a>
</g>
</g>
<!-- Topic -->
<g id="node13" class="node">
<title>Topic</title>
<g id="a_node13"><a xlink:href="/develop/Data/models.html#topic" xlink:title="Topic" target="_top">
<polygon fill="#eeefff" stroke="#dddeee" points="493.39,-552 439.39,-552 439.39,-516 493.39,-516 493.39,-552"/>
<text text-anchor="middle" x="466.39" y="-530.3" font-family="Times,serif" font-size="14.00">Topic</text>
</a>
</g>
</g>
<!-- VerifierRole -->
<g id="node14" class="node">
<title>VerifierRole</title>
<g id="a_node14"><a xlink:href="/develop/Data/models.html#verifier-role" xlink:title="VerifierRole" target="_top">
<polygon fill="#eeefff" stroke="#dddeee" points="507.89,-128 424.89,-128 424.89,-92 507.89,-92 507.89,-128"/>
<text text-anchor="middle" x="466.39" y="-106.3" font-family="Times,serif" font-size="14.00">VerifierRole</text>
</a>
</g>
</g>
<!-- Verifier -->
<g id="node15" class="node">
<title>Verifier</title>
<g id="a_node15"><a xlink:href="/develop/Data/models.html#verifier" xlink:title="Verifier" target="_top">
<polygon fill="#eeefff" stroke="#dddeee" points="651.89,-101 594.89,-101 594.89,-65 651.89,-65 651.89,-101"/>
<text text-anchor="middle" x="623.39" y="-79.3" font-family="Times,serif" font-size="14.00">Verifier</text>
</a>
</g>
</g>
<!-- Creator -->
<g id="node16" class="node">
<title>Creator</title>
<g id="a_node16"><a xlink:href="/develop/Data/models.html#creator" xlink:title="Creator" target="_top">
<polygon fill="#eeefff" stroke="#dddeee" points="651.89,-274 594.89,-274 594.89,-238 651.89,-238 651.89,-274"/>
<text text-anchor="middle" x="623.39" y="-252.3" font-family="Times,serif" font-size="14.00">Creator</text>
</a>
</g>
</g>
<!-- ObservationMatrix -->
<g id="node17" class="node">
<title>ObservationMatrix</title>
<g id="a_node17"><a xlink:href="/develop/Data/models.html#observation-matrix" xlink:title="ObservationMatrix" target="_top">
<polygon fill="#eeefff" stroke="#dddeee" points="526.39,-328 406.39,-328 406.39,-292 526.39,-292 526.39,-328"/>
<text text-anchor="middle" x="466.39" y="-306.3" font-family="Times,serif" font-size="14.00">ObservationMatrix</text>
</a>
</g>
</g>
<!-- Project -->
<g id="node18" class="node">
<title>Project</title>
<g id="a_node18"><a xlink:href="/develop/Data/models.html#project" xlink:title="Project" target="_top">
<polygon fill="#eeefff" stroke="#dddeee" points="493.89,-274 438.89,-274 438.89,-238 493.89,-238 493.89,-274"/>
<text text-anchor="middle" x="466.39" y="-252.3" font-family="Times,serif" font-size="14.00">Project</text>
</a>
</g>
</g>
<!-- Updater -->
<g id="node19" class="node">
<title>Updater</title>
<g id="a_node19"><a xlink:href="/develop/Data/models.html#updater" xlink:title="Updater" target="_top">
<polygon fill="#eeefff" stroke="#dddeee" points="808.39,-274 748.39,-274 748.39,-238 808.39,-238 808.39,-274"/>
<text text-anchor="middle" x="778.39" y="-252.3" font-family="Times,serif" font-size="14.00">Updater</text>
</a>
</g>
</g>
<!-- OriginCitation -->
<g id="node20" class="node">
<title>OriginCitation</title>
<g id="a_node20"><a xlink:href="/develop/Data/models.html#origin-citation" xlink:title="OriginCitation" target="_top">
<polygon fill="#eeefff" stroke="#dddeee" points="670.89,-431 575.89,-431 575.89,-395 670.89,-395 670.89,-431"/>
<text text-anchor="middle" x="623.39" y="-409.3" font-family="Times,serif" font-size="14.00">OriginCitation</text>
</a>
</g>
</g>
</g>
</svg>
