<?xml version="1.0" encoding="UTF-8" standalone="no"?>
<!DOCTYPE svg PUBLIC "-//W3C//DTD SVG 1.1//EN"
 "http://www.w3.org/Graphics/SVG/1.1/DTD/svg11.dtd">
<!-- Generated by graphviz version 2.50.0 (20211204.2007)
 -->
<!-- Title: ObservationMatrixRow Pages: 1 -->
<svg width="809pt" height="633pt"
 viewBox="0.00 0.00 809.21 633.00" xmlns="http://www.w3.org/2000/svg" xmlns:xlink="http://www.w3.org/1999/xlink">
<g id="graph0" class="graph" transform="scale(1 1) rotate(0) translate(4 629)">
<title>ObservationMatrixRow</title>
<polygon fill="white" stroke="transparent" points="-4,4 -4,-629 805.21,-629 805.21,4 -4,4"/>
<!-- Citation&#45;&gt;Source -->
<g id="edge8" class="edge">
<title>Citation&#45;&gt;Source</title>
<path fill="none" stroke="black" d="M81.99,-552C156.56,-552 320.87,-552 393.94,-552"/>
<polygon fill="black" stroke="black" points="394.04,-555.5 404.04,-552 394.04,-548.5 394.04,-555.5"/>
</g>
<!-- Citation&#45;&gt;CitationTopic -->
<g id="edge1" class="edge">
<title>Citation&#45;&gt;CitationTopic</title>
<path fill="none" stroke="black" d="M76.3,-561.71C102.87,-569.66 141.07,-581.11 172.42,-590.5"/>
<polygon fill="black" stroke="black" points="171.76,-593.95 182.34,-593.47 173.76,-587.25 171.76,-593.95"/>
</g>
<!-- Tag&#45;&gt;Keyword -->
<g id="edge4" class="edge">
<title>Tag&#45;&gt;Keyword</title>
<path fill="none" stroke="black" d="M70.2,-271.86C100.07,-271.69 149.25,-271.43 184.68,-271.23"/>
<polygon fill="black" stroke="black" points="184.75,-274.73 194.73,-271.18 184.71,-267.73 184.75,-274.73"/>
</g>
<!-- Source&#45;&gt;SubsequentCitation -->
<!-- Source&#45;&gt;OriginCitation -->
<!-- ObservationMatrixRow&#45;&gt;Citation -->
<g id="edge2" class="edge">
<title>ObservationMatrixRow&#45;&gt;Citation</title>
<path fill="none" stroke="black" d="M209.28,-351.13C174.78,-393.03 100.17,-483.65 64.16,-527.39"/>
<polygon fill="black" stroke="black" points="61.35,-525.29 57.7,-535.24 66.75,-529.74 61.35,-525.29"/>
</g>
<!-- ObservationMatrixRow&#45;&gt;Identifier -->
<g id="edge3" class="edge">
<title>ObservationMatrixRow&#45;&gt;Identifier</title>
<path fill="none" stroke="black" d="M163.31,-347.18C138.71,-354.15 111.19,-361.94 88.77,-368.29"/>
<polygon fill="black" stroke="black" points="87.53,-365 78.86,-371.1 89.44,-371.74 87.53,-365"/>
</g>
<!-- ObservationMatrixRow&#45;&gt;Tag -->
<g id="edge11" class="edge">
<title>ObservationMatrixRow&#45;&gt;Tag</title>
<path fill="none" stroke="black" d="M163.94,-310.77C150.02,-306.67 135.39,-302.26 121.79,-298 107.01,-293.37 90.75,-287.99 76.92,-283.32"/>
<polygon fill="black" stroke="black" points="77.94,-279.97 67.34,-280.08 75.69,-286.6 77.94,-279.97"/>
</g>
<!-- ObservationMatrixRow&#45;&gt;Note -->
<g id="edge5" class="edge">
<title>ObservationMatrixRow&#45;&gt;Note</title>
<path fill="none" stroke="black" d="M121.41,-327.84C106.96,-327.69 92.99,-327.53 80.99,-327.4"/>
<polygon fill="black" stroke="black" points="81.03,-323.9 70.99,-327.3 80.95,-330.9 81.03,-323.9"/>
</g>
<!-- ObservationMatrixRow&#45;&gt;Source -->
<g id="edge22" class="edge">
<title>ObservationMatrixRow&#45;&gt;Source</title>
<path fill="none" stroke="black" stroke-dasharray="1,5" d="M247.07,-360.17C271.04,-400.64 317.25,-471.68 371.21,-519 380.92,-527.51 393.18,-534.8 404,-540.35"/>
<polygon fill="black" stroke="black" points="249.94,-358.16 241.87,-351.3 243.9,-361.7 249.94,-358.16"/>
</g>
<!-- ObservationMatrixRow&#45;&gt;CollectionObject -->
<g id="edge15" class="edge">
<title>ObservationMatrixRow&#45;&gt;CollectionObject</title>
<path fill="none" stroke="black" stroke-dasharray="5,2" d="M310.79,-308.75C319.22,-305.59 327.52,-302.02 335.21,-298 353.42,-288.48 354.19,-280.5 371.21,-269 378.9,-263.81 387.46,-258.68 395.62,-254.07"/>
<polygon fill="black" stroke="black" points="309.49,-305.5 301.23,-312.13 311.82,-312.09 309.49,-305.5"/>
</g>
<!-- ObservationMatrixRow&#45;&gt;Otu -->
<g id="edge18" class="edge">
<title>ObservationMatrixRow&#45;&gt;Otu</title>
<path fill="none" stroke="black" stroke-dasharray="5,2" d="M319.69,-309.12C325.27,-305.94 330.52,-302.26 335.21,-298 367.09,-269.02 341.5,-239.2 371.21,-208 380.07,-198.7 392.74,-192.33 404.07,-188.12"/>
<polygon fill="black" stroke="black" points="318.01,-306.05 310.68,-313.7 321.18,-312.29 318.01,-306.05"/>
</g>
<!-- ObservationMatrixRow&#45;&gt;PinboardItem -->
<g id="edge6" class="edge">
<title>ObservationMatrixRow&#45;&gt;PinboardItem</title>
<path fill="none" stroke="black" d="M312.61,-314.11C321.01,-309.97 328.79,-304.69 335.21,-298 381.17,-250.07 328.82,-204.11 371.21,-153 373.07,-150.76 375.15,-148.71 377.39,-146.81"/>
<polygon fill="black" stroke="black" points="379.44,-149.65 385.53,-140.98 375.36,-143.96 379.44,-149.65"/>
</g>
<!-- ObservationMatrixRow&#45;&gt;Role -->
<g id="edge7" class="edge">
<title>ObservationMatrixRow&#45;&gt;Role</title>
<path fill="none" stroke="black" d="M314.07,-314.34C322.04,-310.14 329.33,-304.8 335.21,-298 409.54,-212.12 303.25,-136 371.21,-45 377.12,-37.1 385.88,-31.44 394.87,-27.42"/>
<polygon fill="black" stroke="black" points="396.14,-30.68 404.2,-23.79 393.61,-24.15 396.14,-30.68"/>
</g>
<!-- ObservationMatrixRow&#45;&gt;SubsequentCitation -->
<g id="edge9" class="edge">
<title>ObservationMatrixRow&#45;&gt;SubsequentCitation</title>
<path fill="none" stroke="black" d="M245.56,-351.12C269.53,-382.68 317.66,-440.48 371.21,-474 416.07,-502.08 473.08,-520.48 517.27,-531.65"/>
<polygon fill="black" stroke="black" points="516.51,-535.07 527.06,-534.06 518.19,-528.27 516.51,-535.07"/>
</g>
<!-- ObservationMatrixRow&#45;&gt;VerifierRole -->
<g id="edge13" class="edge">
<title>ObservationMatrixRow&#45;&gt;VerifierRole</title>
<path fill="none" stroke="black" d="M313.56,-314.25C321.68,-310.07 329.14,-304.76 335.21,-298 395.3,-231.16 316.08,-169.99 371.21,-99 374.01,-95.4 377.39,-92.26 381.11,-89.53"/>
<polygon fill="black" stroke="black" points="383.06,-92.45 389.69,-84.18 379.36,-86.51 383.06,-92.45"/>
</g>
<!-- ObservationMatrixRow&#45;&gt;Creator -->
<g id="edge16" class="edge">
<title>ObservationMatrixRow&#45;&gt;Creator</title>
<path fill="none" stroke="black" stroke-dasharray="5,2" d="M311.97,-310.37C363.58,-301.22 431.4,-293.75 491.21,-302 514.71,-305.24 540.55,-312.75 559.5,-319.02"/>
<polygon fill="black" stroke="black" points="311.07,-306.98 301.87,-312.22 312.33,-313.86 311.07,-306.98"/>
</g>
<!-- ObservationMatrixRow&#45;&gt;ObservationMatrix -->
<g id="edge17" class="edge">
<title>ObservationMatrixRow&#45;&gt;ObservationMatrix</title>
<path fill="none" stroke="black" stroke-dasharray="5,2" d="M305.61,-349.48C327.3,-355.31 350.59,-361.58 371.1,-367.1"/>
<polygon fill="black" stroke="black" points="306.34,-346.05 295.78,-346.83 304.53,-352.81 306.34,-346.05"/>
</g>
<!-- ObservationMatrixRow&#45;&gt;Project -->
<g id="edge19" class="edge">
<title>ObservationMatrixRow&#45;&gt;Project</title>
<path fill="none" stroke="black" stroke-dasharray="5,2" d="M345.46,-329C367.16,-329 387.85,-329 403.36,-329"/>
<polygon fill="black" stroke="black" points="345.44,-325.5 335.44,-329 345.44,-332.5 345.44,-325.5"/>
</g>
<!-- ObservationMatrixRow&#45;&gt;Updater -->
<g id="edge20" class="edge">
<title>ObservationMatrixRow&#45;&gt;Updater</title>
<path fill="none" stroke="black" stroke-dasharray="5,2" d="M266.1,-357.05C293.41,-376.14 332.54,-399.73 371.21,-410 497.37,-443.51 650.31,-376.73 713.14,-344.75"/>
<polygon fill="black" stroke="black" points="267.83,-353.99 257.66,-351.04 263.77,-359.69 267.83,-353.99"/>
</g>
<!-- ObservationMatrixRow&#45;&gt;OriginCitation -->
<g id="edge21" class="edge">
<title>ObservationMatrixRow&#45;&gt;OriginCitation</title>
<path fill="none" stroke="black" stroke-dasharray="1,5" d="M257.36,-358.36C284.06,-384.68 326.76,-422.24 371.21,-443 425.95,-468.57 495.4,-478.95 540.55,-483.16"/>
<polygon fill="black" stroke="black" points="259.81,-355.86 250.27,-351.26 254.86,-360.81 259.81,-355.86"/>
</g>
<!-- CitationTopic&#45;&gt;Topic -->
<g id="edge12" class="edge">
<title>CitationTopic&#45;&gt;Topic</title>
<path fill="none" stroke="black" d="M274.55,-607C310.53,-607 360.3,-607 393.79,-607"/>
<polygon fill="black" stroke="black" points="394.06,-610.5 404.06,-607 394.06,-603.5 394.06,-610.5"/>
</g>
<!-- Role&#45;&gt;Verifier -->
<!-- SubsequentCitation&#45;&gt;SubsequentSource -->
<g id="edge10" class="edge">
<title>SubsequentCitation&#45;&gt;SubsequentSource</title>
<path fill="none" stroke="black" d="M649.24,-546C657.58,-546 666.18,-546 674.64,-546"/>
<polygon fill="black" stroke="black" points="674.86,-549.5 684.86,-546 674.86,-542.5 674.86,-549.5"/>
</g>
<!-- VerifierRole&#45;&gt;Verifier -->
<g id="edge14" class="edge">
<title>VerifierRole&#45;&gt;Verifier</title>
<path fill="none" stroke="black" d="M472.94,-64.91C496.58,-60.79 526.17,-55.63 549.32,-51.6"/>
<polygon fill="black" stroke="black" points="550.21,-55 559.46,-49.83 549,-48.1 550.21,-55"/>
</g>
<!-- Creator&#45;&gt;Updater -->
<!-- Project&#45;&gt;Creator -->
<!-- Citation -->
<g id="node1" class="node">
<title>Citation</title>
<g id="a_node1"><a xlink:href="/develop/Data/models.html#citation" xlink:title="Citation" target="_top">
<ellipse fill="#abcdef" stroke="#dddeee" cx="42.9" cy="-552" rx="38.99" ry="18"/>
<text text-anchor="middle" x="42.9" y="-548.3" font-family="Times,serif" font-size="14.00">Citation</text>
</a>
</g>
</g>
<!-- Identifier -->
<g id="node2" class="node">
<title>Identifier</title>
<g id="a_node2"><a xlink:href="/develop/Data/models.html#identifier" xlink:title="Identifier" target="_top">
<ellipse fill="#abcdef" stroke="#dddeee" cx="42.9" cy="-381" rx="42.79" ry="18"/>
<text text-anchor="middle" x="42.9" y="-377.3" font-family="Times,serif" font-size="14.00">Identifier</text>
</a>
</g>
</g>
<!-- Tag -->
<g id="node3" class="node">
<title>Tag</title>
<g id="a_node3"><a xlink:href="/develop/Data/models.html#tag" xlink:title="Tag" target="_top">
<ellipse fill="#abcdef" stroke="#dddeee" cx="42.9" cy="-272" rx="27" ry="18"/>
<text text-anchor="middle" x="42.9" y="-268.3" font-family="Times,serif" font-size="14.00">Tag</text>
</a>
</g>
</g>
<!-- Note -->
<g id="node4" class="node">
<title>Note</title>
<g id="a_node4"><a xlink:href="/develop/Data/models.html#note" xlink:title="Note" target="_top">
<ellipse fill="#abcdef" stroke="#dddeee" cx="42.9" cy="-327" rx="27.9" ry="18"/>
<text text-anchor="middle" x="42.9" y="-323.3" font-family="Times,serif" font-size="14.00">Note</text>
</a>
</g>
</g>
<!-- Source -->
<g id="node5" class="node">
<title>Source</title>
<g id="a_node5"><a xlink:href="/develop/Data/models.html#source" xlink:title="Source" target="_top">
<path fill="#fedcba" stroke="#dddeee" d="M416.21,-534C416.21,-534 446.21,-534 446.21,-534 452.21,-534 458.21,-540 458.21,-546 458.21,-546 458.21,-558 458.21,-558 458.21,-564 452.21,-570 446.21,-570 446.21,-570 416.21,-570 416.21,-570 410.21,-570 404.21,-564 404.21,-558 404.21,-558 404.21,-546 404.21,-546 404.21,-540 410.21,-534 416.21,-534"/>
<text text-anchor="middle" x="431.21" y="-548.3" font-family="Times,serif" font-size="14.00">Source</text>
</a>
</g>
</g>
<!-- CollectionObject -->
<g id="node6" class="node">
<title>CollectionObject</title>
<g id="a_node6"><a xlink:href="/develop/Data/models.html#collection-object" xlink:title="CollectionObject" target="_top">
<path fill="#fedcba" stroke="#dddeee" d="M388.71,-218C388.71,-218 473.71,-218 473.71,-218 479.71,-218 485.71,-224 485.71,-230 485.71,-230 485.71,-242 485.71,-242 485.71,-248 479.71,-254 473.71,-254 473.71,-254 388.71,-254 388.71,-254 382.71,-254 376.71,-248 376.71,-242 376.71,-242 376.71,-230 376.71,-230 376.71,-224 382.71,-218 388.71,-218"/>
<text text-anchor="middle" x="431.21" y="-232.3" font-family="Times,serif" font-size="14.00">CollectionObject</text>
</a>
</g>
</g>
<!-- Otu -->
<g id="node7" class="node">
<title>Otu</title>
<g id="a_node7"><a xlink:href="/develop/Data/models.html#otu" xlink:title="Otu" target="_top">
<path fill="#fedcba" stroke="#dddeee" d="M416.21,-163C416.21,-163 446.21,-163 446.21,-163 452.21,-163 458.21,-169 458.21,-175 458.21,-175 458.21,-187 458.21,-187 458.21,-193 452.21,-199 446.21,-199 446.21,-199 416.21,-199 416.21,-199 410.21,-199 404.21,-193 404.21,-187 404.21,-187 404.21,-175 404.21,-175 404.21,-169 410.21,-163 416.21,-163"/>
<text text-anchor="middle" x="431.21" y="-177.3" font-family="Times,serif" font-size="14.00">Otu</text>
</a>
</g>
</g>
<!-- ObservationMatrixRow -->
<g id="node8" class="node">
<title>ObservationMatrixRow</title>
<g id="a_node8"><a xlink:href="/develop/Data/models.html#observation-matrix-row" xlink:title="ObservationMatrixRow" target="_top">
<polygon fill="#cdefab" stroke="#dedede" points="331.41,-321.54 331.41,-336.46 271.13,-347 185.87,-347 125.59,-336.46 125.59,-321.54 185.87,-311 271.13,-311 331.41,-321.54"/>
<polygon fill="none" stroke="#dedede" points="335.42,-318.18 335.42,-339.82 271.48,-351 185.53,-351 121.58,-339.82 121.58,-318.18 185.53,-307 271.48,-307 335.42,-318.18"/>
<text text-anchor="middle" x="228.5" y="-325.3" font-family="Times,serif" font-size="14.00">ObservationMatrixRow</text>
</a>
</g>
</g>
<!-- CitationTopic -->
<g id="node9" class="node">
<title>CitationTopic</title>
<g id="a_node9"><a xlink:href="/develop/Data/models.html#citation-topic" xlink:title="CitationTopic" target="_top">
<polygon fill="#eeefff" stroke="#dddeee" points="274.5,-625 182.5,-625 182.5,-589 274.5,-589 274.5,-625"/>
<text text-anchor="middle" x="228.5" y="-603.3" font-family="Times,serif" font-size="14.00">CitationTopic</text>
</a>
</g>
</g>
<!-- Keyword -->
<g id="node10" class="node">
<title>Keyword</title>
<g id="a_node10"><a xlink:href="/develop/Data/models.html#keyword" xlink:title="Keyword" target="_top">
<polygon fill="#eeefff" stroke="#dddeee" points="262,-289 195,-289 195,-253 262,-253 262,-289"/>
<text text-anchor="middle" x="228.5" y="-267.3" font-family="Times,serif" font-size="14.00">Keyword</text>
</a>
</g>
</g>
<!-- PinboardItem -->
<g id="node11" class="node">
<title>PinboardItem</title>
<g id="a_node11"><a xlink:href="/develop/Data/models.html#pinboard-item" xlink:title="PinboardItem" target="_top">
<polygon fill="#eeefff" stroke="#dddeee" points="476.71,-144 385.71,-144 385.71,-108 476.71,-108 476.71,-144"/>
<text text-anchor="middle" x="431.21" y="-122.3" font-family="Times,serif" font-size="14.00">PinboardItem</text>
</a>
</g>
</g>
<!-- Role -->
<g id="node12" class="node">
<title>Role</title>
<g id="a_node12"><a xlink:href="/develop/Data/models.html#role" xlink:title="Role" target="_top">
<polygon fill="#eeefff" stroke="#dddeee" points="458.21,-36 404.21,-36 404.21,0 458.21,0 458.21,-36"/>
<text text-anchor="middle" x="431.21" y="-14.3" font-family="Times,serif" font-size="14.00">Role</text>
</a>
</g>
</g>
<!-- SubsequentCitation -->
<g id="node13" class="node">
<title>SubsequentCitation</title>
<g id="a_node13"><a xlink:href="/develop/Data/models.html#subsequent-citation" xlink:title="SubsequentCitation" target="_top">
<polygon fill="#eeefff" stroke="#dddeee" points="649.21,-564 527.21,-564 527.21,-528 649.21,-528 649.21,-564"/>
<text text-anchor="middle" x="588.21" y="-542.3" font-family="Times,serif" font-size="14.00">SubsequentCitation</text>
</a>
</g>
</g>
<!-- SubsequentSource -->
<g id="node14" class="node">
<title>SubsequentSource</title>
<g id="a_node14"><a xlink:href="/develop/Data/models.html#subsequent-source" xlink:title="SubsequentSource" target="_top">
<polygon fill="#eeefff" stroke="#dddeee" points="801.21,-564 685.21,-564 685.21,-528 801.21,-528 801.21,-564"/>
<text text-anchor="middle" x="743.21" y="-542.3" font-family="Times,serif" font-size="14.00">SubsequentSource</text>
</a>
</g>
</g>
<!-- Topic -->
<g id="node15" class="node">
<title>Topic</title>
<g id="a_node15"><a xlink:href="/develop/Data/models.html#topic" xlink:title="Topic" target="_top">
<polygon fill="#eeefff" stroke="#dddeee" points="458.21,-625 404.21,-625 404.21,-589 458.21,-589 458.21,-625"/>
<text text-anchor="middle" x="431.21" y="-603.3" font-family="Times,serif" font-size="14.00">Topic</text>
</a>
</g>
</g>
<!-- VerifierRole -->
<g id="node16" class="node">
<title>VerifierRole</title>
<g id="a_node16"><a xlink:href="/develop/Data/models.html#verifier-role" xlink:title="VerifierRole" target="_top">
<polygon fill="#eeefff" stroke="#dddeee" points="472.71,-90 389.71,-90 389.71,-54 472.71,-54 472.71,-90"/>
<text text-anchor="middle" x="431.21" y="-68.3" font-family="Times,serif" font-size="14.00">VerifierRole</text>
</a>
</g>
</g>
<!-- Verifier -->
<g id="node17" class="node">
<title>Verifier</title>
<g id="a_node17"><a xlink:href="/develop/Data/models.html#verifier" xlink:title="Verifier" target="_top">
<polygon fill="#eeefff" stroke="#dddeee" points="616.71,-63 559.71,-63 559.71,-27 616.71,-27 616.71,-63"/>
<text text-anchor="middle" x="588.21" y="-41.3" font-family="Times,serif" font-size="14.00">Verifier</text>
</a>
</g>
</g>
<!-- Creator -->
<g id="node18" class="node">
<title>Creator</title>
<g id="a_node18"><a xlink:href="/develop/Data/models.html#creator" xlink:title="Creator" target="_top">
<polygon fill="#eeefff" stroke="#dddeee" points="616.71,-347 559.71,-347 559.71,-311 616.71,-311 616.71,-347"/>
<text text-anchor="middle" x="588.21" y="-325.3" font-family="Times,serif" font-size="14.00">Creator</text>
</a>
</g>
</g>
<!-- ObservationMatrix -->
<g id="node19" class="node">
<title>ObservationMatrix</title>
<g id="a_node19"><a xlink:href="/develop/Data/models.html#observation-matrix" xlink:title="ObservationMatrix" target="_top">
<polygon fill="#eeefff" stroke="#dddeee" points="491.21,-401 371.21,-401 371.21,-365 491.21,-365 491.21,-401"/>
<text text-anchor="middle" x="431.21" y="-379.3" font-family="Times,serif" font-size="14.00">ObservationMatrix</text>
</a>
</g>
</g>
<!-- Project -->
<g id="node20" class="node">
<title>Project</title>
<g id="a_node20"><a xlink:href="/develop/Data/models.html#project" xlink:title="Project" target="_top">
<polygon fill="#eeefff" stroke="#dddeee" points="458.71,-347 403.71,-347 403.71,-311 458.71,-311 458.71,-347"/>
<text text-anchor="middle" x="431.21" y="-325.3" font-family="Times,serif" font-size="14.00">Project</text>
</a>
</g>
</g>
<!-- Updater -->
<g id="node21" class="node">
<title>Updater</title>
<g id="a_node21"><a xlink:href="/develop/Data/models.html#updater" xlink:title="Updater" target="_top">
<polygon fill="#eeefff" stroke="#dddeee" points="773.21,-347 713.21,-347 713.21,-311 773.21,-311 773.21,-347"/>
<text text-anchor="middle" x="743.21" y="-325.3" font-family="Times,serif" font-size="14.00">Updater</text>
</a>
</g>
</g>
<!-- OriginCitation -->
<g id="node22" class="node">
<title>OriginCitation</title>
<g id="a_node22"><a xlink:href="/develop/Data/models.html#origin-citation" xlink:title="OriginCitation" target="_top">
<polygon fill="#eeefff" stroke="#dddeee" points="635.71,-504 540.71,-504 540.71,-468 635.71,-468 635.71,-504"/>
<text text-anchor="middle" x="588.21" y="-482.3" font-family="Times,serif" font-size="14.00">OriginCitation</text>
</a>
</g>
</g>
</g>
</svg>
