<?xml version="1.0" encoding="UTF-8" standalone="no"?>
<!DOCTYPE svg PUBLIC "-//W3C//DTD SVG 1.1//EN"
 "http://www.w3.org/Graphics/SVG/1.1/DTD/svg11.dtd">
<!-- Generated by graphviz version 2.50.0 (20211204.2007)
 -->
<!-- Title: ObservationMatrixColumnItem Pages: 1 -->
<svg width="760pt" height="371pt"
 viewBox="0.00 0.00 760.00 370.89" xmlns="http://www.w3.org/2000/svg" xmlns:xlink="http://www.w3.org/1999/xlink">
<g id="graph0" class="graph" transform="scale(1 1) rotate(0) translate(4 366.89)">
<title>ObservationMatrixColumnItem</title>
<polygon fill="white" stroke="transparent" points="-4,4 -4,-366.89 756,-366.89 756,4 -4,4"/>
<text text-anchor="middle" x="376" y="-22.8" font-family="Times,serif" font-size="14.00">Algorithmically generated relationships for ObservationMatrixColumnItem based on assertions of &#39;has_many&#39;, &#39;has_one&#39;, &#39;belongs_to&#39;. </text>
<text text-anchor="middle" x="376" y="-7.8" font-family="Times,serif" font-size="14.00">Generated 2022&#45;01&#45;25 11:43:27 &#45;0600.</text>
<!-- Tag&#45;&gt;Keyword -->
<g id="edge2" class="edge">
<title>Tag&#45;&gt;Keyword</title>
<path fill="none" stroke="black" d="M75.15,-133.77C111.33,-133.6 176.89,-133.3 220.29,-133.09"/>
<polygon fill="black" stroke="black" points="220.56,-136.59 230.55,-133.05 220.53,-129.59 220.56,-136.59"/>
</g>
<!-- ObservationMatrixColumnItem&#45;&gt;Identifier -->
<g id="edge1" class="edge">
<title>ObservationMatrixColumnItem&#45;&gt;Identifier</title>
<path fill="none" stroke="black" d="M186.26,-209.95C155.72,-217.49 121.62,-225.91 95.03,-232.48"/>
<polygon fill="black" stroke="black" points="94.1,-229.11 85.23,-234.9 95.78,-235.9 94.1,-229.11"/>
</g>
<!-- ObservationMatrixColumnItem&#45;&gt;Tag -->
<g id="edge6" class="edge">
<title>ObservationMatrixColumnItem&#45;&gt;Tag</title>
<path fill="none" stroke="black" d="M178.14,-172.93C161.04,-168.94 143.25,-164.51 126.73,-159.89 111.71,-155.69 95.29,-150.33 81.42,-145.57"/>
<polygon fill="black" stroke="black" points="82.42,-142.21 71.83,-142.23 80.12,-148.83 82.42,-142.21"/>
</g>
<!-- ObservationMatrixColumnItem&#45;&gt;Note -->
<g id="edge3" class="edge">
<title>ObservationMatrixColumnItem&#45;&gt;Note</title>
<path fill="none" stroke="black" d="M126.33,-190.25C111.77,-190.19 98.01,-190.12 86.23,-190.07"/>
<polygon fill="black" stroke="black" points="86.03,-186.57 76.01,-190.02 85.99,-193.57 86.03,-186.57"/>
</g>
<!-- ObservationMatrixColumnItem&#45;&gt;PinboardItem -->
<g id="edge4" class="edge">
<title>ObservationMatrixColumnItem&#45;&gt;PinboardItem</title>
<path fill="none" stroke="black" d="M291.72,-212.93C324.6,-239.81 383.21,-285.63 438.06,-317.89 440.52,-319.34 443.07,-320.76 445.66,-322.15"/>
<polygon fill="black" stroke="black" points="444.13,-325.3 454.62,-326.75 447.32,-319.07 444.13,-325.3"/>
</g>
<!-- ObservationMatrixColumnItem&#45;&gt;Role -->
<g id="edge5" class="edge">
<title>ObservationMatrixColumnItem&#45;&gt;Role</title>
<path fill="none" stroke="black" d="M316.52,-212.96C360.5,-231.95 422.79,-258.84 461.52,-275.55"/>
<polygon fill="black" stroke="black" points="460.26,-278.82 470.83,-279.57 463.04,-272.4 460.26,-278.82"/>
</g>
<!-- ObservationMatrixColumnItem&#45;&gt;VerifierRole -->
<g id="edge7" class="edge">
<title>ObservationMatrixColumnItem&#45;&gt;VerifierRole</title>
<path fill="none" stroke="black" d="M353.64,-208.42C385.05,-214.65 419.33,-221.46 446.49,-226.85"/>
<polygon fill="black" stroke="black" points="446.05,-230.33 456.54,-228.85 447.41,-223.47 446.05,-230.33"/>
</g>
<!-- ObservationMatrixColumnItem&#45;&gt;Creator -->
<g id="edge9" class="edge">
<title>ObservationMatrixColumnItem&#45;&gt;Creator</title>
<path fill="none" stroke="black" stroke-dasharray="5,2" d="M391.45,-204.88C445.53,-205.43 507.71,-198.45 558.06,-171.89 584.14,-158.14 602.98,-128.47 613.08,-109.11"/>
<polygon fill="black" stroke="black" points="391.51,-201.38 381.45,-204.69 391.38,-208.38 391.51,-201.38"/>
</g>
<!-- ObservationMatrixColumnItem&#45;&gt;ObservationMatrix -->
<g id="edge10" class="edge">
<title>ObservationMatrixColumnItem&#45;&gt;ObservationMatrix</title>
<path fill="none" stroke="black" stroke-dasharray="5,2" d="M363.61,-171.39C388.84,-166.38 415.2,-161.15 437.77,-156.67"/>
<polygon fill="black" stroke="black" points="362.77,-167.99 353.64,-173.37 364.13,-174.86 362.77,-167.99"/>
</g>
<!-- ObservationMatrixColumnItem&#45;&gt;Project -->
<g id="edge11" class="edge">
<title>ObservationMatrixColumnItem&#45;&gt;Project</title>
<path fill="none" stroke="black" stroke-dasharray="5,2" d="M377.34,-171.88C385.98,-168.51 394.33,-164.55 402.06,-159.89 423.11,-147.2 418.42,-132.69 438.06,-117.89 447.78,-110.57 459.8,-104.62 470.44,-100.19"/>
<polygon fill="black" stroke="black" points="376.08,-168.61 367.86,-175.3 378.46,-175.19 376.08,-168.61"/>
</g>
<!-- ObservationMatrixColumnItem&#45;&gt;Updater -->
<g id="edge12" class="edge">
<title>ObservationMatrixColumnItem&#45;&gt;Updater</title>
<path fill="none" stroke="black" stroke-dasharray="5,2" d="M384.94,-171.78C391.06,-168.4 396.83,-164.46 402.06,-159.89 436.39,-129.93 400.61,-89.85 438.06,-63.89 514.58,-10.86 632.7,-52.57 686.97,-76.73"/>
<polygon fill="black" stroke="black" points="383.15,-168.77 375.76,-176.36 386.27,-175.03 383.15,-168.77"/>
</g>
<!-- Role&#45;&gt;Verifier -->
<!-- VerifierRole&#45;&gt;Verifier -->
<g id="edge8" class="edge">
<title>VerifierRole&#45;&gt;Verifier</title>
<path fill="none" stroke="black" d="M539.85,-245.88C554.08,-249.02 569.97,-252.52 583.92,-255.6"/>
<polygon fill="black" stroke="black" points="583.17,-259.02 593.69,-257.75 584.68,-252.18 583.17,-259.02"/>
</g>
<!-- Creator&#45;&gt;Updater -->
<!-- Project&#45;&gt;Creator -->
<!-- Identifier -->
<g id="node1" class="node">
<title>Identifier</title>
<g id="a_node1"><a xlink:href="/develop/Data/models.html#identifier" xlink:title="Identifier" target="_top">
<ellipse fill="#abcdef" stroke="#dddeee" cx="47.84" cy="-243.89" rx="42.79" ry="18"/>
<text text-anchor="middle" x="47.84" y="-240.19" font-family="Times,serif" font-size="14.00">Identifier</text>
</a>
</g>
</g>
<!-- Tag -->
<g id="node2" class="node">
<title>Tag</title>
<g id="a_node2"><a xlink:href="/develop/Data/models.html#tag" xlink:title="Tag" target="_top">
<ellipse fill="#abcdef" stroke="#dddeee" cx="47.84" cy="-133.89" rx="27" ry="18"/>
<text text-anchor="middle" x="47.84" y="-130.19" font-family="Times,serif" font-size="14.00">Tag</text>
</a>
</g>
</g>
<!-- Note -->
<g id="node3" class="node">
<title>Note</title>
<g id="a_node3"><a xlink:href="/develop/Data/models.html#note" xlink:title="Note" target="_top">
<ellipse fill="#abcdef" stroke="#dddeee" cx="47.84" cy="-189.89" rx="27.9" ry="18"/>
<text text-anchor="middle" x="47.84" y="-186.19" font-family="Times,serif" font-size="14.00">Note</text>
</a>
</g>
</g>
<!-- ObservationMatrixColumnItem -->
<g id="node4" class="node">
<title>ObservationMatrixColumnItem</title>
<g id="a_node4"><a xlink:href="/develop/Data/models.html#observation-matrix-column-item" xlink:title="ObservationMatrixColumnItem" target="_top">
<polygon fill="#cdefab" stroke="#dedede" points="398.22,-183.44 398.22,-198.35 319.83,-208.89 208.97,-208.89 130.57,-198.35 130.57,-183.44 208.97,-172.89 319.83,-172.89 398.22,-183.44"/>
<polygon fill="none" stroke="#dedede" points="402.22,-179.94 402.22,-201.85 320.1,-212.89 208.7,-212.89 126.57,-201.85 126.57,-179.94 208.7,-168.89 320.1,-168.89 402.22,-179.94"/>
<text text-anchor="middle" x="264.4" y="-187.19" font-family="Times,serif" font-size="14.00">ObservationMatrixColumnItem</text>
</a>
</g>
</g>
<!-- Keyword -->
<g id="node5" class="node">
<title>Keyword</title>
<g id="a_node5"><a xlink:href="/develop/Data/models.html#keyword" xlink:title="Keyword" target="_top">
<polygon fill="#eeefff" stroke="#dddeee" points="297.9,-150.89 230.9,-150.89 230.9,-114.89 297.9,-114.89 297.9,-150.89"/>
<text text-anchor="middle" x="264.4" y="-129.19" font-family="Times,serif" font-size="14.00">Keyword</text>
</a>
</g>
</g>
<!-- PinboardItem -->
<g id="node6" class="node">
<title>PinboardItem</title>
<g id="a_node6"><a xlink:href="/develop/Data/models.html#pinboard-item" xlink:title="PinboardItem" target="_top">
<polygon fill="#eeefff" stroke="#dddeee" points="543.56,-362.89 452.56,-362.89 452.56,-326.89 543.56,-326.89 543.56,-362.89"/>
<text text-anchor="middle" x="498.06" y="-341.19" font-family="Times,serif" font-size="14.00">PinboardItem</text>
</a>
</g>
</g>
<!-- Role -->
<g id="node7" class="node">
<title>Role</title>
<g id="a_node7"><a xlink:href="/develop/Data/models.html#role" xlink:title="Role" target="_top">
<polygon fill="#eeefff" stroke="#dddeee" points="525.06,-308.89 471.06,-308.89 471.06,-272.89 525.06,-272.89 525.06,-308.89"/>
<text text-anchor="middle" x="498.06" y="-287.19" font-family="Times,serif" font-size="14.00">Role</text>
</a>
</g>
</g>
<!-- VerifierRole -->
<g id="node8" class="node">
<title>VerifierRole</title>
<g id="a_node8"><a xlink:href="/develop/Data/models.html#verifier-role" xlink:title="VerifierRole" target="_top">
<polygon fill="#eeefff" stroke="#dddeee" points="539.56,-254.89 456.56,-254.89 456.56,-218.89 539.56,-218.89 539.56,-254.89"/>
<text text-anchor="middle" x="498.06" y="-233.19" font-family="Times,serif" font-size="14.00">VerifierRole</text>
</a>
</g>
</g>
<!-- Verifier -->
<g id="node9" class="node">
<title>Verifier</title>
<g id="a_node9"><a xlink:href="/develop/Data/models.html#verifier" xlink:title="Verifier" target="_top">
<polygon fill="#eeefff" stroke="#dddeee" points="651.06,-281.89 594.06,-281.89 594.06,-245.89 651.06,-245.89 651.06,-281.89"/>
<text text-anchor="middle" x="622.56" y="-260.19" font-family="Times,serif" font-size="14.00">Verifier</text>
</a>
</g>
</g>
<!-- Creator -->
<g id="node10" class="node">
<title>Creator</title>
<g id="a_node10"><a xlink:href="/develop/Data/models.html#creator" xlink:title="Creator" target="_top">
<polygon fill="#eeefff" stroke="#dddeee" points="651.06,-108.89 594.06,-108.89 594.06,-72.89 651.06,-72.89 651.06,-108.89"/>
<text text-anchor="middle" x="622.56" y="-87.19" font-family="Times,serif" font-size="14.00">Creator</text>
</a>
</g>
</g>
<!-- ObservationMatrix -->
<g id="node11" class="node">
<title>ObservationMatrix</title>
<g id="a_node11"><a xlink:href="/develop/Data/models.html#observation-matrix" xlink:title="ObservationMatrix" target="_top">
<polygon fill="#eeefff" stroke="#dddeee" points="558.06,-162.89 438.06,-162.89 438.06,-126.89 558.06,-126.89 558.06,-162.89"/>
<text text-anchor="middle" x="498.06" y="-141.19" font-family="Times,serif" font-size="14.00">ObservationMatrix</text>
</a>
</g>
</g>
<!-- Project -->
<g id="node12" class="node">
<title>Project</title>
<g id="a_node12"><a xlink:href="/develop/Data/models.html#project" xlink:title="Project" target="_top">
<polygon fill="#eeefff" stroke="#dddeee" points="525.56,-108.89 470.56,-108.89 470.56,-72.89 525.56,-72.89 525.56,-108.89"/>
<text text-anchor="middle" x="498.06" y="-87.19" font-family="Times,serif" font-size="14.00">Project</text>
</a>
</g>
</g>
<!-- Updater -->
<g id="node13" class="node">
<title>Updater</title>
<g id="a_node13"><a xlink:href="/develop/Data/models.html#updater" xlink:title="Updater" target="_top">
<polygon fill="#eeefff" stroke="#dddeee" points="747.06,-108.89 687.06,-108.89 687.06,-72.89 747.06,-72.89 747.06,-108.89"/>
<text text-anchor="middle" x="717.06" y="-87.19" font-family="Times,serif" font-size="14.00">Updater</text>
</a>
</g>
</g>
</g>
</svg>
