<?xml version="1.0" encoding="UTF-8" standalone="no"?>
<!DOCTYPE svg PUBLIC "-//W3C//DTD SVG 1.1//EN"
 "http://www.w3.org/Graphics/SVG/1.1/DTD/svg11.dtd">
<!-- Generated by graphviz version 2.50.0 (20211204.2007)
 -->
<!-- Title: ObservationMatrixColumn Pages: 1 -->
<svg width="718pt" height="427pt"
 viewBox="0.00 0.00 717.64 427.32" xmlns="http://www.w3.org/2000/svg" xmlns:xlink="http://www.w3.org/1999/xlink">
<g id="graph0" class="graph" transform="scale(1 1) rotate(0) translate(4 423.32)">
<title>ObservationMatrixColumn</title>
<polygon fill="white" stroke="transparent" points="-4,4 -4,-423.32 713.64,-423.32 713.64,4 -4,4"/>
<!-- Tag&#45;&gt;Keyword -->
<g id="edge1" class="edge">
<title>Tag&#45;&gt;Keyword</title>
<path fill="none" stroke="black" stroke-dasharray="1,5" d="M55.31,-255.11C84.69,-255.44 132.61,-255.97 167.4,-256.35"/>
<polygon fill="black" stroke="black" points="167.7,-259.85 177.74,-256.47 167.77,-252.85 167.7,-259.85"/>
</g>
<!-- Observation&#45;&gt;ObservationMatrix -->
<!-- ObservationMatrixColumn&#45;&gt;Tag -->
<g id="edge6" class="edge">
<title>ObservationMatrixColumn&#45;&gt;Tag</title>
<path fill="none" stroke="black" d="M136.3,-216.71C121.5,-220.71 106.13,-225.15 91.9,-229.82 81.59,-233.21 70.54,-237.4 60.61,-241.37"/>
<polygon fill="black" stroke="black" points="59.07,-238.22 51.14,-245.24 61.72,-244.7 59.07,-238.22"/>
</g>
<!-- ObservationMatrixColumn&#45;&gt;Note -->
<g id="edge2" class="edge">
<title>ObservationMatrixColumn&#45;&gt;Note</title>
<path fill="none" stroke="black" d="M91.78,-198.82C82.71,-198.82 74.05,-198.82 66.22,-198.82"/>
<polygon fill="black" stroke="black" points="66.09,-195.32 56.09,-198.82 66.09,-202.32 66.09,-195.32"/>
</g>
<!-- ObservationMatrixColumn&#45;&gt;Observation -->
<g id="edge3" class="edge">
<title>ObservationMatrixColumn&#45;&gt;Observation</title>
<path fill="none" stroke="black" d="M307.25,-213.43C315.9,-217.66 323.92,-223.03 330.64,-229.82 377.03,-276.73 327.5,-320.72 366.64,-373.82 367.01,-374.32 367.39,-374.82 367.78,-375.3"/>
<polygon fill="black" stroke="black" points="365.45,-377.92 374.99,-382.53 370.4,-372.97 365.45,-377.92"/>
</g>
<!-- ObservationMatrixColumn&#45;&gt;Descriptor -->
<g id="edge10" class="edge">
<title>ObservationMatrixColumn&#45;&gt;Descriptor</title>
<path fill="none" stroke="black" stroke-dasharray="5,2" d="M313.86,-218.23C319.87,-221.52 325.54,-225.36 330.64,-229.82 362.43,-257.67 339.46,-285.47 366.64,-317.82 369.69,-321.46 373.34,-324.77 377.22,-327.74"/>
<polygon fill="black" stroke="black" points="315.34,-215.06 304.82,-213.79 312.25,-221.34 315.34,-215.06"/>
</g>
<!-- ObservationMatrixColumn&#45;&gt;PinboardItem -->
<g id="edge4" class="edge">
<title>ObservationMatrixColumn&#45;&gt;PinboardItem</title>
<path fill="none" stroke="black" d="M294.17,-215.42C306.71,-219.33 319.26,-224.08 330.64,-229.82 348.99,-239.08 350.29,-246.38 366.64,-258.82 370.05,-261.42 373.63,-264.09 377.23,-266.73"/>
<polygon fill="black" stroke="black" points="375.4,-269.73 385.55,-272.79 379.52,-264.07 375.4,-269.73"/>
</g>
<!-- ObservationMatrixColumn&#45;&gt;Role -->
<g id="edge5" class="edge">
<title>ObservationMatrixColumn&#45;&gt;Role</title>
<path fill="none" stroke="black" d="M330.54,-198.82C346.57,-198.82 361.92,-198.82 374.85,-198.82"/>
<polygon fill="black" stroke="black" points="375.09,-202.32 385.09,-198.82 375.09,-195.32 375.09,-202.32"/>
</g>
<!-- ObservationMatrixColumn&#45;&gt;VerifierRole -->
<g id="edge7" class="edge">
<title>ObservationMatrixColumn&#45;&gt;VerifierRole</title>
<path fill="none" stroke="black" d="M280.99,-180.16C307.24,-173.04 336.65,-165.05 360.87,-158.48"/>
<polygon fill="black" stroke="black" points="361.82,-161.84 370.56,-155.84 359.99,-155.09 361.82,-161.84"/>
</g>
<!-- ObservationMatrixColumn&#45;&gt;Creator -->
<g id="edge9" class="edge">
<title>ObservationMatrixColumn&#45;&gt;Creator</title>
<path fill="none" stroke="black" stroke-dasharray="5,2" d="M259.52,-171.71C289.63,-155.02 329.78,-133.83 366.64,-117.82 421.55,-93.98 488.3,-72.36 525.05,-61.07"/>
<polygon fill="black" stroke="black" points="257.54,-168.81 250.51,-176.74 260.95,-174.92 257.54,-168.81"/>
</g>
<!-- ObservationMatrixColumn&#45;&gt;ObservationMatrix -->
<g id="edge11" class="edge">
<title>ObservationMatrixColumn&#45;&gt;ObservationMatrix</title>
<path fill="none" stroke="black" stroke-dasharray="5,2" d="M307.88,-217.15C354.2,-227.77 409.98,-243.19 457.64,-263.82 482.94,-274.78 509.4,-291.73 527.95,-304.66"/>
<polygon fill="black" stroke="black" points="308.36,-213.67 297.84,-214.89 306.83,-220.5 308.36,-213.67"/>
</g>
<!-- ObservationMatrixColumn&#45;&gt;Project -->
<g id="edge12" class="edge">
<title>ObservationMatrixColumn&#45;&gt;Project</title>
<path fill="none" stroke="black" stroke-dasharray="5,2" d="M250.47,-170.4C281.65,-147.26 326.89,-113.79 366.64,-84.82 372.79,-80.34 379.45,-75.53 385.69,-71.04"/>
<polygon fill="black" stroke="black" points="248.01,-167.87 242.07,-176.64 252.18,-173.49 248.01,-167.87"/>
</g>
<!-- ObservationMatrixColumn&#45;&gt;Updater -->
<g id="edge13" class="edge">
<title>ObservationMatrixColumn&#45;&gt;Updater</title>
<path fill="none" stroke="black" stroke-dasharray="5,2" d="M228.68,-167.96C252.65,-126.59 301.58,-54.97 366.64,-25.82 466.83,19.05 505.98,-4.35 613.64,-25.82 625.74,-28.24 638.41,-32.95 649.32,-37.77"/>
<polygon fill="black" stroke="black" points="225.55,-166.37 223.67,-176.8 231.65,-169.83 225.55,-166.37"/>
</g>
<!-- Role&#45;&gt;Verifier -->
<!-- VerifierRole&#45;&gt;Verifier -->
<g id="edge8" class="edge">
<title>VerifierRole&#45;&gt;Verifier</title>
<path fill="none" stroke="black" stroke-dasharray="1,5" d="M453.86,-152.71C473.14,-156.44 496,-160.86 514.88,-164.52"/>
<polygon fill="black" stroke="black" points="514.43,-167.99 524.91,-166.46 515.76,-161.12 514.43,-167.99"/>
</g>
<!-- Creator&#45;&gt;Updater -->
<!-- Project&#45;&gt;Creator -->
<!-- Tag -->
<g id="node1" class="node">
<title>Tag</title>
<g id="a_node1"><a xlink:href="/develop/Data/models.html#tag" xlink:title="Tag" target="_top">
<ellipse fill="#abcdef" stroke="#dddeee" cx="27.95" cy="-254.82" rx="27" ry="18"/>
<text text-anchor="middle" x="27.95" y="-251.12" font-family="Times,serif" font-size="14.00">Tag</text>
</a>
</g>
</g>
<!-- Note -->
<g id="node2" class="node">
<title>Note</title>
<g id="a_node2"><a xlink:href="/develop/Data/models.html#note" xlink:title="Note" target="_top">
<ellipse fill="#abcdef" stroke="#dddeee" cx="27.95" cy="-198.82" rx="27.9" ry="18"/>
<text text-anchor="middle" x="27.95" y="-195.12" font-family="Times,serif" font-size="14.00">Note</text>
</a>
</g>
</g>
<!-- Observation -->
<g id="node3" class="node">
<title>Observation</title>
<g id="a_node3"><a xlink:href="/develop/Data/models.html#observation" xlink:title="Observation" target="_top">
<path fill="#fedcba" stroke="#dddeee" d="M382.64,-382.82C382.64,-382.82 441.64,-382.82 441.64,-382.82 447.64,-382.82 453.64,-388.82 453.64,-394.82 453.64,-394.82 453.64,-406.82 453.64,-406.82 453.64,-412.82 447.64,-418.82 441.64,-418.82 441.64,-418.82 382.64,-418.82 382.64,-418.82 376.64,-418.82 370.64,-412.82 370.64,-406.82 370.64,-406.82 370.64,-394.82 370.64,-394.82 370.64,-388.82 376.64,-382.82 382.64,-382.82"/>
<text text-anchor="middle" x="412.14" y="-397.12" font-family="Times,serif" font-size="14.00">Observation</text>
</a>
</g>
</g>
<!-- Descriptor -->
<g id="node4" class="node">
<title>Descriptor</title>
<g id="a_node4"><a xlink:href="/develop/Data/models.html#descriptor" xlink:title="Descriptor" target="_top">
<path fill="#fedcba" stroke="#dddeee" d="M387.14,-327.82C387.14,-327.82 437.14,-327.82 437.14,-327.82 443.14,-327.82 449.14,-333.82 449.14,-339.82 449.14,-339.82 449.14,-351.82 449.14,-351.82 449.14,-357.82 443.14,-363.82 437.14,-363.82 437.14,-363.82 387.14,-363.82 387.14,-363.82 381.14,-363.82 375.14,-357.82 375.14,-351.82 375.14,-351.82 375.14,-339.82 375.14,-339.82 375.14,-333.82 381.14,-327.82 387.14,-327.82"/>
<text text-anchor="middle" x="412.14" y="-342.12" font-family="Times,serif" font-size="14.00">Descriptor</text>
</a>
</g>
</g>
<!-- ObservationMatrixColumn -->
<g id="node5" class="node">
<title>ObservationMatrixColumn</title>
<g id="a_node5"><a xlink:href="/develop/Data/models.html#observation-matrix-column" xlink:title="ObservationMatrixColumn" target="_top">
<polygon fill="#cdefab" stroke="#dedede" points="326.52,-191.37 326.52,-206.28 259.01,-216.82 163.53,-216.82 96.02,-206.28 96.02,-191.37 163.53,-180.82 259.01,-180.82 326.52,-191.37"/>
<polygon fill="none" stroke="#dedede" points="330.51,-187.94 330.51,-209.7 259.32,-220.82 163.22,-220.82 92.02,-209.7 92.02,-187.94 163.22,-176.82 259.32,-176.82 330.51,-187.94"/>
<text text-anchor="middle" x="211.27" y="-195.12" font-family="Times,serif" font-size="14.00">ObservationMatrixColumn</text>
</a>
</g>
</g>
<!-- Keyword -->
<g id="node6" class="node">
<title>Keyword</title>
<g id="a_node6"><a xlink:href="/develop/Data/models.html#keyword" xlink:title="Keyword" target="_top">
<polygon fill="#eeefff" stroke="#dddeee" points="244.77,-274.82 177.77,-274.82 177.77,-238.82 244.77,-238.82 244.77,-274.82"/>
<text text-anchor="middle" x="211.27" y="-253.12" font-family="Times,serif" font-size="14.00">Keyword</text>
</a>
</g>
</g>
<!-- PinboardItem -->
<g id="node7" class="node">
<title>PinboardItem</title>
<g id="a_node7"><a xlink:href="/develop/Data/models.html#pinboard-item" xlink:title="PinboardItem" target="_top">
<polygon fill="#eeefff" stroke="#dddeee" points="457.64,-308.82 366.64,-308.82 366.64,-272.82 457.64,-272.82 457.64,-308.82"/>
<text text-anchor="middle" x="412.14" y="-287.12" font-family="Times,serif" font-size="14.00">PinboardItem</text>
</a>
</g>
</g>
<!-- Role -->
<g id="node8" class="node">
<title>Role</title>
<g id="a_node8"><a xlink:href="/develop/Data/models.html#role" xlink:title="Role" target="_top">
<polygon fill="#eeefff" stroke="#dddeee" points="439.14,-216.82 385.14,-216.82 385.14,-180.82 439.14,-180.82 439.14,-216.82"/>
<text text-anchor="middle" x="412.14" y="-195.12" font-family="Times,serif" font-size="14.00">Role</text>
</a>
</g>
</g>
<!-- VerifierRole -->
<g id="node9" class="node">
<title>VerifierRole</title>
<g id="a_node9"><a xlink:href="/develop/Data/models.html#verifier-role" xlink:title="VerifierRole" target="_top">
<polygon fill="#eeefff" stroke="#dddeee" points="453.64,-162.82 370.64,-162.82 370.64,-126.82 453.64,-126.82 453.64,-162.82"/>
<text text-anchor="middle" x="412.14" y="-141.12" font-family="Times,serif" font-size="14.00">VerifierRole</text>
</a>
</g>
</g>
<!-- Verifier -->
<g id="node10" class="node">
<title>Verifier</title>
<g id="a_node10"><a xlink:href="/develop/Data/models.html#verifier" xlink:title="Verifier" target="_top">
<polygon fill="#eeefff" stroke="#dddeee" points="582.14,-189.82 525.14,-189.82 525.14,-153.82 582.14,-153.82 582.14,-189.82"/>
<text text-anchor="middle" x="553.64" y="-168.12" font-family="Times,serif" font-size="14.00">Verifier</text>
</a>
</g>
</g>
<!-- Creator -->
<g id="node11" class="node">
<title>Creator</title>
<g id="a_node11"><a xlink:href="/develop/Data/models.html#creator" xlink:title="Creator" target="_top">
<polygon fill="#eeefff" stroke="#dddeee" points="582.14,-70.82 525.14,-70.82 525.14,-34.82 582.14,-34.82 582.14,-70.82"/>
<text text-anchor="middle" x="553.64" y="-49.12" font-family="Times,serif" font-size="14.00">Creator</text>
</a>
</g>
</g>
<!-- ObservationMatrix -->
<g id="node12" class="node">
<title>ObservationMatrix</title>
<g id="a_node12"><a xlink:href="/develop/Data/models.html#observation-matrix" xlink:title="ObservationMatrix" target="_top">
<polygon fill="#eeefff" stroke="#dddeee" points="613.64,-340.82 493.64,-340.82 493.64,-304.82 613.64,-304.82 613.64,-340.82"/>
<text text-anchor="middle" x="553.64" y="-319.12" font-family="Times,serif" font-size="14.00">ObservationMatrix</text>
</a>
</g>
</g>
<!-- Project -->
<g id="node13" class="node">
<title>Project</title>
<g id="a_node13"><a xlink:href="/develop/Data/models.html#project" xlink:title="Project" target="_top">
<polygon fill="#eeefff" stroke="#dddeee" points="439.64,-70.82 384.64,-70.82 384.64,-34.82 439.64,-34.82 439.64,-70.82"/>
<text text-anchor="middle" x="412.14" y="-49.12" font-family="Times,serif" font-size="14.00">Project</text>
</a>
</g>
</g>
<!-- Updater -->
<g id="node14" class="node">
<title>Updater</title>
<g id="a_node14"><a xlink:href="/develop/Data/models.html#updater" xlink:title="Updater" target="_top">
<polygon fill="#eeefff" stroke="#dddeee" points="709.64,-70.82 649.64,-70.82 649.64,-34.82 709.64,-34.82 709.64,-70.82"/>
<text text-anchor="middle" x="679.64" y="-49.12" font-family="Times,serif" font-size="14.00">Updater</text>
</a>
</g>
</g>
</g>
</svg>
