<?xml version="1.0" encoding="UTF-8" standalone="no"?>
<!DOCTYPE svg PUBLIC "-//W3C//DTD SVG 1.1//EN"
 "http://www.w3.org/Graphics/SVG/1.1/DTD/svg11.dtd">
<!-- Generated by graphviz version 2.50.0 (20211204.2007)
 -->
<!-- Title: ObservationMatrix Pages: 1 -->
<svg width="1082pt" height="709pt"
 viewBox="0.00 0.00 1082.13 708.50" xmlns="http://www.w3.org/2000/svg" xmlns:xlink="http://www.w3.org/1999/xlink">
<g id="graph0" class="graph" transform="scale(1 1) rotate(0) translate(4 704.5)">
<title>ObservationMatrix</title>
<polygon fill="white" stroke="transparent" points="-4,4 -4,-704.5 1078.13,-704.5 1078.13,4 -4,4"/>
<text text-anchor="middle" x="537.06" y="-22.8" font-family="Times,serif" font-size="14.00">Algorithmically generated relationships for ObservationMatrix based on assertions of &#39;has_many&#39;, &#39;has_one&#39;, &#39;belongs_to&#39;. </text>
<text text-anchor="middle" x="537.06" y="-7.8" font-family="Times,serif" font-size="14.00">Generated 2022&#45;01&#45;25 11:38:03 &#45;0600.</text>
<!-- Citation&#45;&gt;Source -->
<g id="edge16" class="edge">
<title>Citation&#45;&gt;Source</title>
<path fill="none" stroke="black" d="M98.39,-627.5C173.95,-627.5 341.39,-627.5 415.33,-627.5"/>
<polygon fill="black" stroke="black" points="415.54,-631 425.54,-627.5 415.54,-624 415.54,-631"/>
</g>
<!-- Citation&#45;&gt;CitationTopic -->
<g id="edge1" class="edge">
<title>Citation&#45;&gt;CitationTopic</title>
<path fill="none" stroke="black" d="M92.19,-637.21C118.37,-645.14 155.97,-656.53 186.92,-665.9"/>
<polygon fill="black" stroke="black" points="186.12,-669.32 196.71,-668.87 188.15,-662.62 186.12,-669.32"/>
</g>
<!-- Tag&#45;&gt;Keyword -->
<g id="edge7" class="edge">
<title>Tag&#45;&gt;Keyword</title>
<path fill="none" stroke="black" d="M86.16,-306.5C115.48,-306.5 163.62,-306.5 198.59,-306.5"/>
<polygon fill="black" stroke="black" points="198.98,-310 208.98,-306.5 198.98,-303 198.98,-310"/>
</g>
<!-- Source&#45;&gt;SubsequentCitation -->
<!-- Source&#45;&gt;OriginCitation -->
<!-- ObservationMatrix&#45;&gt;Citation -->
<g id="edge2" class="edge">
<title>ObservationMatrix&#45;&gt;Citation</title>
<path fill="none" stroke="black" d="M224.91,-411.52C191.12,-455.82 115.11,-555.45 79.38,-602.28"/>
<polygon fill="black" stroke="black" points="76.49,-600.31 73.2,-610.38 82.05,-604.56 76.49,-600.31"/>
</g>
<!-- ObservationMatrix&#45;&gt;DataAttribute -->
<g id="edge4" class="edge">
<title>ObservationMatrix&#45;&gt;DataAttribute</title>
<path fill="none" stroke="black" d="M196.18,-409.31C167.76,-421.68 131.38,-437.51 103.39,-449.68"/>
<polygon fill="black" stroke="black" points="101.64,-446.63 93.87,-453.83 104.44,-453.05 101.64,-446.63"/>
</g>
<!-- ObservationMatrix&#45;&gt;Identifier -->
<g id="edge6" class="edge">
<title>ObservationMatrix&#45;&gt;Identifier</title>
<path fill="none" stroke="black" d="M158.01,-401.02C141.73,-403.27 125.14,-405.55 110.36,-407.59"/>
<polygon fill="black" stroke="black" points="109.87,-404.12 100.44,-408.95 110.82,-411.05 109.87,-404.12"/>
</g>
<!-- ObservationMatrix&#45;&gt;Tag -->
<g id="edge19" class="edge">
<title>ObservationMatrix&#45;&gt;Tag</title>
<path fill="none" stroke="black" d="M197.9,-369.47C165.01,-354.44 120.77,-334.21 91.4,-320.79"/>
<polygon fill="black" stroke="black" points="92.6,-317.49 82.05,-316.51 89.69,-323.85 92.6,-317.49"/>
</g>
<!-- ObservationMatrix&#45;&gt;Note -->
<g id="edge8" class="edge">
<title>ObservationMatrix&#45;&gt;Note</title>
<path fill="none" stroke="black" d="M163,-376.93C139.88,-373.24 115.7,-369.37 96.6,-366.32"/>
<polygon fill="black" stroke="black" points="96.97,-362.84 86.55,-364.72 95.87,-369.75 96.97,-362.84"/>
</g>
<!-- ObservationMatrix&#45;&gt;Source -->
<g id="edge27" class="edge">
<title>ObservationMatrix&#45;&gt;Source</title>
<path fill="none" stroke="black" stroke-dasharray="1,5" d="M255.07,-421C272.61,-465.47 310.29,-546.57 367.13,-594.5 383.86,-608.61 407.34,-617.13 425.3,-621.97"/>
<polygon fill="black" stroke="black" points="258.3,-419.64 251.44,-411.57 251.77,-422.16 258.3,-419.64"/>
</g>
<!-- ObservationMatrix&#45;&gt;ObservationMatrixRow -->
<g id="edge12" class="edge">
<title>ObservationMatrix&#45;&gt;ObservationMatrixRow</title>
<path fill="none" stroke="black" d="M289.66,-369.81C305.17,-360.92 321.09,-348.9 331.13,-333.5 388.09,-246.08 287.89,-169.39 367.13,-101.5 444.32,-35.36 572.91,-103.33 633.95,-142.68"/>
<polygon fill="black" stroke="black" points="632.17,-145.7 642.45,-148.26 636.01,-139.85 632.17,-145.7"/>
</g>
<!-- ObservationMatrix&#45;&gt;ObservationMatrixColumn -->
<g id="edge10" class="edge">
<title>ObservationMatrix&#45;&gt;ObservationMatrixColumn</title>
<path fill="none" stroke="black" d="M283.28,-368.27C299.08,-358.78 316.87,-346.75 331.13,-333.5 350.67,-315.35 343.87,-298.55 367.13,-285.5 444.42,-242.13 680.89,-277.93 764.13,-247.5 798.23,-235.03 831.73,-210.19 854.09,-191.28"/>
<polygon fill="black" stroke="black" points="856.52,-193.81 861.8,-184.62 851.94,-188.51 856.52,-193.81"/>
</g>
<!-- ObservationMatrix&#45;&gt;ObservationMatrixColumnItem -->
<g id="edge9" class="edge">
<title>ObservationMatrix&#45;&gt;ObservationMatrixColumnItem</title>
<path fill="none" stroke="black" d="M286.2,-369.02C301.87,-359.86 318.8,-347.86 331.13,-333.5 356.8,-303.61 335.28,-275.69 367.13,-252.5 397.76,-230.2 489.41,-222.87 563.6,-220.72"/>
<polygon fill="black" stroke="black" points="564.04,-224.21 573.94,-220.45 563.86,-217.21 564.04,-224.21"/>
</g>
<!-- ObservationMatrix&#45;&gt;ObservationMatrixRowItem -->
<g id="edge11" class="edge">
<title>ObservationMatrix&#45;&gt;ObservationMatrixRowItem</title>
<path fill="none" stroke="black" d="M287.61,-369.53C303.27,-360.5 319.82,-348.45 331.13,-333.5 364.45,-289.43 329.41,-254.88 367.13,-214.5 370.02,-211.4 373.24,-208.61 376.69,-206.08"/>
<polygon fill="black" stroke="black" points="378.6,-209.01 385.1,-200.65 374.8,-203.13 378.6,-209.01"/>
</g>
<!-- ObservationMatrix&#45;&gt;PinboardItem -->
<g id="edge14" class="edge">
<title>ObservationMatrix&#45;&gt;PinboardItem</title>
<path fill="none" stroke="black" d="M289.28,-369.56C304.75,-360.64 320.74,-348.67 331.13,-333.5 376.72,-266.9 313.27,-215.62 367.13,-155.5 375,-146.72 385.72,-140.77 396.88,-136.75"/>
<polygon fill="black" stroke="black" points="398.23,-140 406.74,-133.7 396.16,-133.31 398.23,-140"/>
</g>
<!-- ObservationMatrix&#45;&gt;Role -->
<g id="edge15" class="edge">
<title>ObservationMatrix&#45;&gt;Role</title>
<path fill="none" stroke="black" d="M289.69,-369.91C312.77,-360.32 341.26,-348.86 367.13,-339.5 382.9,-333.8 400.54,-328.06 415.6,-323.35"/>
<polygon fill="black" stroke="black" points="417.05,-326.57 425.57,-320.27 414.98,-319.88 417.05,-326.57"/>
</g>
<!-- ObservationMatrix&#45;&gt;SubsequentCitation -->
<g id="edge17" class="edge">
<title>ObservationMatrix&#45;&gt;SubsequentCitation</title>
<path fill="none" stroke="black" d="M259.67,-411.6C280.86,-439.07 321,-485.08 367.13,-507.5 440.21,-543.02 534.23,-551.37 597.59,-552.38"/>
<polygon fill="black" stroke="black" points="597.84,-555.89 607.88,-552.49 597.91,-548.89 597.84,-555.89"/>
</g>
<!-- ObservationMatrix&#45;&gt;VerifierRole -->
<g id="edge21" class="edge">
<title>ObservationMatrix&#45;&gt;VerifierRole</title>
<path fill="none" stroke="black" d="M331.28,-379.81C355.03,-377.19 379.95,-374.43 400.91,-372.11"/>
<polygon fill="black" stroke="black" points="401.31,-375.59 410.86,-371.01 400.54,-368.63 401.31,-375.59"/>
</g>
<!-- ObservationMatrix&#45;&gt;Creator -->
<g id="edge23" class="edge">
<title>ObservationMatrix&#45;&gt;Creator</title>
<path fill="none" stroke="black" stroke-dasharray="5,2" d="M270.37,-418.97C293.39,-442.05 328.9,-472.38 367.13,-485.5 463.16,-518.45 585.98,-486.16 640.24,-468.43"/>
<polygon fill="black" stroke="black" points="272.83,-416.48 263.35,-411.76 267.82,-421.36 272.83,-416.48"/>
</g>
<!-- ObservationMatrix&#45;&gt;Project -->
<g id="edge24" class="edge">
<title>ObservationMatrix&#45;&gt;Project</title>
<path fill="none" stroke="black" stroke-dasharray="5,2" d="M307.09,-410.53C346.61,-423.65 395.41,-439.84 424.99,-449.66"/>
<polygon fill="black" stroke="black" points="308.12,-407.19 297.52,-407.36 305.91,-413.83 308.12,-407.19"/>
</g>
<!-- ObservationMatrix&#45;&gt;Updater -->
<g id="edge25" class="edge">
<title>ObservationMatrix&#45;&gt;Updater</title>
<path fill="none" stroke="black" stroke-dasharray="5,2" d="M341.44,-393.12C446.4,-398 617.84,-408.84 764.13,-431.5 794.41,-436.19 828.49,-444.4 852.03,-450.53"/>
<polygon fill="black" stroke="black" points="341.33,-389.61 331.18,-392.65 341.01,-396.6 341.33,-389.61"/>
</g>
<!-- ObservationMatrix&#45;&gt;OriginCitation -->
<g id="edge26" class="edge">
<title>ObservationMatrix&#45;&gt;OriginCitation</title>
<path fill="none" stroke="black" stroke-dasharray="1,5" d="M260.51,-420.61C281.03,-455.61 319.03,-511.59 367.13,-542.5 409.16,-569.51 547.98,-597.75 621.5,-611.3"/>
<polygon fill="black" stroke="black" points="263.44,-418.7 255.43,-411.77 257.37,-422.18 263.44,-418.7"/>
</g>
<!-- CitationTopic&#45;&gt;Topic -->
<g id="edge20" class="edge">
<title>CitationTopic&#45;&gt;Topic</title>
<path fill="none" stroke="black" d="M288.82,-682.5C326.71,-682.5 380.13,-682.5 415.31,-682.5"/>
<polygon fill="black" stroke="black" points="415.6,-686 425.6,-682.5 415.6,-679 415.6,-686"/>
</g>
<!-- ObservationMatrixRow&#45;&gt;CollectionObject -->
<g id="edge3" class="edge">
<title>ObservationMatrixRow&#45;&gt;CollectionObject</title>
<path fill="none" stroke="black" d="M739.22,-148.49C764.46,-141.91 792.88,-134.5 817.62,-128.05"/>
<polygon fill="black" stroke="black" points="818.82,-131.36 827.61,-125.45 817.06,-124.58 818.82,-131.36"/>
</g>
<!-- ObservationMatrixRow&#45;&gt;Otu -->
<g id="edge13" class="edge">
<title>ObservationMatrixRow&#45;&gt;Otu</title>
<path fill="none" stroke="black" d="M694.47,-148.36C719.83,-130.1 761.21,-102.06 800.13,-83.5 814.34,-76.72 830.7,-70.92 844.98,-66.45"/>
<polygon fill="black" stroke="black" points="846.4,-69.68 854.96,-63.44 844.37,-62.98 846.4,-69.68"/>
</g>
<!-- ObservationMatrixRow&#45;&gt;ObservationMatrixColumn -->
<!-- ObservationMatrixColumn&#45;&gt;Descriptor -->
<g id="edge5" class="edge">
<title>ObservationMatrixColumn&#45;&gt;Descriptor</title>
<path fill="none" stroke="black" d="M964.56,-166.5C973.19,-166.5 981.74,-166.5 989.76,-166.5"/>
<polygon fill="black" stroke="black" points="989.97,-170 999.97,-166.5 989.97,-163 989.97,-170"/>
</g>
<!-- ObservationMatrixRowItem&#45;&gt;ObservationMatrixRow -->
<!-- ObservationMatrixRowItem&#45;&gt;ObservationMatrixColumnItem -->
<!-- Role&#45;&gt;Verifier -->
<!-- SubsequentCitation&#45;&gt;SubsequentSource -->
<g id="edge18" class="edge">
<title>SubsequentCitation&#45;&gt;SubsequentSource</title>
<path fill="none" stroke="black" d="M730.31,-550.5C756.34,-550.5 786.91,-550.5 813.71,-550.5"/>
<polygon fill="black" stroke="black" points="813.77,-554 823.77,-550.5 813.77,-547 813.77,-554"/>
</g>
<!-- VerifierRole&#45;&gt;Verifier -->
<g id="edge22" class="edge">
<title>VerifierRole&#45;&gt;Verifier</title>
<path fill="none" stroke="black" d="M494.23,-361.39C533.3,-356.47 591.94,-349.09 630.13,-344.28"/>
<polygon fill="black" stroke="black" points="630.83,-347.72 640.32,-343 629.96,-340.78 630.83,-347.72"/>
</g>
<!-- Creator&#45;&gt;Updater -->
<!-- Project&#45;&gt;Creator -->
<!-- Citation -->
<g id="node1" class="node">
<title>Citation</title>
<g id="a_node1"><a xlink:href="/develop/Data/models.html#citation" xlink:title="Citation" target="_top">
<ellipse fill="#abcdef" stroke="#dddeee" cx="59.14" cy="-627.5" rx="38.99" ry="18"/>
<text text-anchor="middle" x="59.14" y="-623.8" font-family="Times,serif" font-size="14.00">Citation</text>
</a>
</g>
</g>
<!-- DataAttribute -->
<g id="node2" class="node">
<title>DataAttribute</title>
<g id="a_node2"><a xlink:href="/develop/Data/models.html#data-attribute" xlink:title="DataAttribute" target="_top">
<ellipse fill="#abcdef" stroke="#dddeee" cx="59.14" cy="-468.5" rx="59.29" ry="18"/>
<text text-anchor="middle" x="59.14" y="-464.8" font-family="Times,serif" font-size="14.00">DataAttribute</text>
</a>
</g>
</g>
<!-- Identifier -->
<g id="node3" class="node">
<title>Identifier</title>
<g id="a_node3"><a xlink:href="/develop/Data/models.html#identifier" xlink:title="Identifier" target="_top">
<ellipse fill="#abcdef" stroke="#dddeee" cx="59.14" cy="-414.5" rx="42.79" ry="18"/>
<text text-anchor="middle" x="59.14" y="-410.8" font-family="Times,serif" font-size="14.00">Identifier</text>
</a>
</g>
</g>
<!-- Tag -->
<g id="node4" class="node">
<title>Tag</title>
<g id="a_node4"><a xlink:href="/develop/Data/models.html#tag" xlink:title="Tag" target="_top">
<ellipse fill="#abcdef" stroke="#dddeee" cx="59.14" cy="-306.5" rx="27" ry="18"/>
<text text-anchor="middle" x="59.14" y="-302.8" font-family="Times,serif" font-size="14.00">Tag</text>
</a>
</g>
</g>
<!-- Note -->
<g id="node5" class="node">
<title>Note</title>
<g id="a_node5"><a xlink:href="/develop/Data/models.html#note" xlink:title="Note" target="_top">
<ellipse fill="#abcdef" stroke="#dddeee" cx="59.14" cy="-360.5" rx="27.9" ry="18"/>
<text text-anchor="middle" x="59.14" y="-356.8" font-family="Times,serif" font-size="14.00">Note</text>
</a>
</g>
</g>
<!-- CollectionObject -->
<g id="node6" class="node">
<title>CollectionObject</title>
<g id="a_node6"><a xlink:href="/develop/Data/models.html#collection-object" xlink:title="CollectionObject" target="_top">
<path fill="#fedcba" stroke="#dddeee" d="M839.63,-93.5C839.63,-93.5 924.63,-93.5 924.63,-93.5 930.63,-93.5 936.63,-99.5 936.63,-105.5 936.63,-105.5 936.63,-117.5 936.63,-117.5 936.63,-123.5 930.63,-129.5 924.63,-129.5 924.63,-129.5 839.63,-129.5 839.63,-129.5 833.63,-129.5 827.63,-123.5 827.63,-117.5 827.63,-117.5 827.63,-105.5 827.63,-105.5 827.63,-99.5 833.63,-93.5 839.63,-93.5"/>
<text text-anchor="middle" x="882.13" y="-107.8" font-family="Times,serif" font-size="14.00">CollectionObject</text>
</a>
</g>
</g>
<!-- Descriptor -->
<g id="node7" class="node">
<title>Descriptor</title>
<g id="a_node7"><a xlink:href="/develop/Data/models.html#descriptor" xlink:title="Descriptor" target="_top">
<path fill="#fedcba" stroke="#dddeee" d="M1012.13,-148.5C1012.13,-148.5 1062.13,-148.5 1062.13,-148.5 1068.13,-148.5 1074.13,-154.5 1074.13,-160.5 1074.13,-160.5 1074.13,-172.5 1074.13,-172.5 1074.13,-178.5 1068.13,-184.5 1062.13,-184.5 1062.13,-184.5 1012.13,-184.5 1012.13,-184.5 1006.13,-184.5 1000.13,-178.5 1000.13,-172.5 1000.13,-172.5 1000.13,-160.5 1000.13,-160.5 1000.13,-154.5 1006.13,-148.5 1012.13,-148.5"/>
<text text-anchor="middle" x="1037.13" y="-162.8" font-family="Times,serif" font-size="14.00">Descriptor</text>
</a>
</g>
</g>
<!-- Otu -->
<g id="node8" class="node">
<title>Otu</title>
<g id="a_node8"><a xlink:href="/develop/Data/models.html#otu" xlink:title="Otu" target="_top">
<path fill="#fedcba" stroke="#dddeee" d="M867.13,-38.5C867.13,-38.5 897.13,-38.5 897.13,-38.5 903.13,-38.5 909.13,-44.5 909.13,-50.5 909.13,-50.5 909.13,-62.5 909.13,-62.5 909.13,-68.5 903.13,-74.5 897.13,-74.5 897.13,-74.5 867.13,-74.5 867.13,-74.5 861.13,-74.5 855.13,-68.5 855.13,-62.5 855.13,-62.5 855.13,-50.5 855.13,-50.5 855.13,-44.5 861.13,-38.5 867.13,-38.5"/>
<text text-anchor="middle" x="882.13" y="-52.8" font-family="Times,serif" font-size="14.00">Otu</text>
</a>
</g>
</g>
<!-- Source -->
<g id="node9" class="node">
<title>Source</title>
<g id="a_node9"><a xlink:href="/develop/Data/models.html#source" xlink:title="Source" target="_top">
<path fill="#fedcba" stroke="#dddeee" d="M437.63,-609.5C437.63,-609.5 467.63,-609.5 467.63,-609.5 473.63,-609.5 479.63,-615.5 479.63,-621.5 479.63,-621.5 479.63,-633.5 479.63,-633.5 479.63,-639.5 473.63,-645.5 467.63,-645.5 467.63,-645.5 437.63,-645.5 437.63,-645.5 431.63,-645.5 425.63,-639.5 425.63,-633.5 425.63,-633.5 425.63,-621.5 425.63,-621.5 425.63,-615.5 431.63,-609.5 437.63,-609.5"/>
<text text-anchor="middle" x="452.63" y="-623.8" font-family="Times,serif" font-size="14.00">Source</text>
</a>
</g>
</g>
<!-- ObservationMatrix -->
<g id="node10" class="node">
<title>ObservationMatrix</title>
<g id="a_node10"><a xlink:href="/develop/Data/models.html#observation-matrix" xlink:title="ObservationMatrix" target="_top">
<polygon fill="#cdefab" stroke="#dedede" points="327.05,-382.04 327.05,-396.96 277.64,-407.5 207.77,-407.5 158.37,-396.96 158.37,-382.04 207.77,-371.5 277.64,-371.5 327.05,-382.04"/>
<polygon fill="none" stroke="#dedede" points="331.05,-378.81 331.05,-400.19 278.07,-411.5 207.35,-411.5 154.37,-400.19 154.37,-378.81 207.35,-367.5 278.07,-367.5 331.05,-378.81"/>
<text text-anchor="middle" x="242.71" y="-385.8" font-family="Times,serif" font-size="14.00">ObservationMatrix</text>
</a>
</g>
</g>
<!-- CitationTopic -->
<g id="node11" class="node">
<title>CitationTopic</title>
<g id="a_node11"><a xlink:href="/develop/Data/models.html#citation-topic" xlink:title="CitationTopic" target="_top">
<polygon fill="#eeefff" stroke="#dddeee" points="288.71,-700.5 196.71,-700.5 196.71,-664.5 288.71,-664.5 288.71,-700.5"/>
<text text-anchor="middle" x="242.71" y="-678.8" font-family="Times,serif" font-size="14.00">CitationTopic</text>
</a>
</g>
</g>
<!-- ObservationMatrixRow -->
<g id="node12" class="node">
<title>ObservationMatrixRow</title>
<g id="a_node12"><a xlink:href="/develop/Data/models.html#observation-matrix-row" xlink:title="ObservationMatrixRow" target="_top">
<polygon fill="#eeefff" stroke="#dddeee" points="742.13,-184.5 596.13,-184.5 596.13,-148.5 742.13,-148.5 742.13,-184.5"/>
<text text-anchor="middle" x="669.13" y="-162.8" font-family="Times,serif" font-size="14.00">ObservationMatrixRow</text>
</a>
</g>
</g>
<!-- ObservationMatrixColumn -->
<g id="node13" class="node">
<title>ObservationMatrixColumn</title>
<g id="a_node13"><a xlink:href="/develop/Data/models.html#observation-matrix-column" xlink:title="ObservationMatrixColumn" target="_top">
<polygon fill="#eeefff" stroke="#dddeee" points="964.13,-184.5 800.13,-184.5 800.13,-148.5 964.13,-148.5 964.13,-184.5"/>
<text text-anchor="middle" x="882.13" y="-162.8" font-family="Times,serif" font-size="14.00">ObservationMatrixColumn</text>
</a>
</g>
</g>
<!-- Keyword -->
<g id="node14" class="node">
<title>Keyword</title>
<g id="a_node14"><a xlink:href="/develop/Data/models.html#keyword" xlink:title="Keyword" target="_top">
<polygon fill="#eeefff" stroke="#dddeee" points="276.21,-324.5 209.21,-324.5 209.21,-288.5 276.21,-288.5 276.21,-324.5"/>
<text text-anchor="middle" x="242.71" y="-302.8" font-family="Times,serif" font-size="14.00">Keyword</text>
</a>
</g>
</g>
<!-- ObservationMatrixColumnItem -->
<g id="node15" class="node">
<title>ObservationMatrixColumnItem</title>
<g id="a_node15"><a xlink:href="/develop/Data/models.html#observation-matrix-column-item" xlink:title="ObservationMatrixColumnItem" target="_top">
<polygon fill="#eeefff" stroke="#dddeee" points="764.13,-238.5 574.13,-238.5 574.13,-202.5 764.13,-202.5 764.13,-238.5"/>
<text text-anchor="middle" x="669.13" y="-216.8" font-family="Times,serif" font-size="14.00">ObservationMatrixColumnItem</text>
</a>
</g>
</g>
<!-- ObservationMatrixRowItem -->
<g id="node16" class="node">
<title>ObservationMatrixRowItem</title>
<g id="a_node16"><a xlink:href="/develop/Data/models.html#observation-matrix-row-item" xlink:title="ObservationMatrixRowItem" target="_top">
<polygon fill="#eeefff" stroke="#dddeee" points="538.13,-200.5 367.13,-200.5 367.13,-164.5 538.13,-164.5 538.13,-200.5"/>
<text text-anchor="middle" x="452.63" y="-178.8" font-family="Times,serif" font-size="14.00">ObservationMatrixRowItem</text>
</a>
</g>
</g>
<!-- PinboardItem -->
<g id="node17" class="node">
<title>PinboardItem</title>
<g id="a_node17"><a xlink:href="/develop/Data/models.html#pinboard-item" xlink:title="PinboardItem" target="_top">
<polygon fill="#eeefff" stroke="#dddeee" points="498.13,-146.5 407.13,-146.5 407.13,-110.5 498.13,-110.5 498.13,-146.5"/>
<text text-anchor="middle" x="452.63" y="-124.8" font-family="Times,serif" font-size="14.00">PinboardItem</text>
</a>
</g>
</g>
<!-- Role -->
<g id="node18" class="node">
<title>Role</title>
<g id="a_node18"><a xlink:href="/develop/Data/models.html#role" xlink:title="Role" target="_top">
<polygon fill="#eeefff" stroke="#dddeee" points="479.63,-330.5 425.63,-330.5 425.63,-294.5 479.63,-294.5 479.63,-330.5"/>
<text text-anchor="middle" x="452.63" y="-308.8" font-family="Times,serif" font-size="14.00">Role</text>
</a>
</g>
</g>
<!-- SubsequentCitation -->
<g id="node19" class="node">
<title>SubsequentCitation</title>
<g id="a_node19"><a xlink:href="/develop/Data/models.html#subsequent-citation" xlink:title="SubsequentCitation" target="_top">
<polygon fill="#eeefff" stroke="#dddeee" points="730.13,-568.5 608.13,-568.5 608.13,-532.5 730.13,-532.5 730.13,-568.5"/>
<text text-anchor="middle" x="669.13" y="-546.8" font-family="Times,serif" font-size="14.00">SubsequentCitation</text>
</a>
</g>
</g>
<!-- SubsequentSource -->
<g id="node20" class="node">
<title>SubsequentSource</title>
<g id="a_node20"><a xlink:href="/develop/Data/models.html#subsequent-source" xlink:title="SubsequentSource" target="_top">
<polygon fill="#eeefff" stroke="#dddeee" points="940.13,-568.5 824.13,-568.5 824.13,-532.5 940.13,-532.5 940.13,-568.5"/>
<text text-anchor="middle" x="882.13" y="-546.8" font-family="Times,serif" font-size="14.00">SubsequentSource</text>
</a>
</g>
</g>
<!-- Topic -->
<g id="node21" class="node">
<title>Topic</title>
<g id="a_node21"><a xlink:href="/develop/Data/models.html#topic" xlink:title="Topic" target="_top">
<polygon fill="#eeefff" stroke="#dddeee" points="479.63,-700.5 425.63,-700.5 425.63,-664.5 479.63,-664.5 479.63,-700.5"/>
<text text-anchor="middle" x="452.63" y="-678.8" font-family="Times,serif" font-size="14.00">Topic</text>
</a>
</g>
</g>
<!-- VerifierRole -->
<g id="node22" class="node">
<title>VerifierRole</title>
<g id="a_node22"><a xlink:href="/develop/Data/models.html#verifier-role" xlink:title="VerifierRole" target="_top">
<polygon fill="#eeefff" stroke="#dddeee" points="494.13,-384.5 411.13,-384.5 411.13,-348.5 494.13,-348.5 494.13,-384.5"/>
<text text-anchor="middle" x="452.63" y="-362.8" font-family="Times,serif" font-size="14.00">VerifierRole</text>
</a>
</g>
</g>
<!-- Verifier -->
<g id="node23" class="node">
<title>Verifier</title>
<g id="a_node23"><a xlink:href="/develop/Data/models.html#verifier" xlink:title="Verifier" target="_top">
<polygon fill="#eeefff" stroke="#dddeee" points="697.63,-357.5 640.63,-357.5 640.63,-321.5 697.63,-321.5 697.63,-357.5"/>
<text text-anchor="middle" x="669.13" y="-335.8" font-family="Times,serif" font-size="14.00">Verifier</text>
</a>
</g>
</g>
<!-- Creator -->
<g id="node24" class="node">
<title>Creator</title>
<g id="a_node24"><a xlink:href="/develop/Data/models.html#creator" xlink:title="Creator" target="_top">
<polygon fill="#eeefff" stroke="#dddeee" points="697.63,-476.5 640.63,-476.5 640.63,-440.5 697.63,-440.5 697.63,-476.5"/>
<text text-anchor="middle" x="669.13" y="-454.8" font-family="Times,serif" font-size="14.00">Creator</text>
</a>
</g>
</g>
<!-- Project -->
<g id="node25" class="node">
<title>Project</title>
<g id="a_node25"><a xlink:href="/develop/Data/models.html#project" xlink:title="Project" target="_top">
<polygon fill="#eeefff" stroke="#dddeee" points="480.13,-476.5 425.13,-476.5 425.13,-440.5 480.13,-440.5 480.13,-476.5"/>
<text text-anchor="middle" x="452.63" y="-454.8" font-family="Times,serif" font-size="14.00">Project</text>
</a>
</g>
</g>
<!-- Updater -->
<g id="node26" class="node">
<title>Updater</title>
<g id="a_node26"><a xlink:href="/develop/Data/models.html#updater" xlink:title="Updater" target="_top">
<polygon fill="#eeefff" stroke="#dddeee" points="912.13,-476.5 852.13,-476.5 852.13,-440.5 912.13,-440.5 912.13,-476.5"/>
<text text-anchor="middle" x="882.13" y="-454.8" font-family="Times,serif" font-size="14.00">Updater</text>
</a>
</g>
</g>
<!-- OriginCitation -->
<g id="node27" class="node">
<title>OriginCitation</title>
<g id="a_node27"><a xlink:href="/develop/Data/models.html#origin-citation" xlink:title="OriginCitation" target="_top">
<polygon fill="#eeefff" stroke="#dddeee" points="716.63,-637.5 621.63,-637.5 621.63,-601.5 716.63,-601.5 716.63,-637.5"/>
<text text-anchor="middle" x="669.13" y="-615.8" font-family="Times,serif" font-size="14.00">OriginCitation</text>
</a>
</g>
</g>
</g>
</svg>
