<?xml version="1.0" encoding="UTF-8" standalone="no"?>
<!DOCTYPE svg PUBLIC "-//W3C//DTD SVG 1.1//EN"
 "http://www.w3.org/Graphics/SVG/1.1/DTD/svg11.dtd">
<!-- Generated by graphviz version 2.50.0 (20211204.2007)
 -->
<!-- Title: Observation Pages: 1 -->
<svg width="742pt" height="718pt"
 viewBox="0.00 0.00 742.07 718.41" xmlns="http://www.w3.org/2000/svg" xmlns:xlink="http://www.w3.org/1999/xlink">
<g id="graph0" class="graph" transform="scale(1 1) rotate(0) translate(4 714.41)">
<title>Observation</title>
<polygon fill="white" stroke="transparent" points="-4,4 -4,-714.41 738.07,-714.41 738.07,4 -4,4"/>
<text text-anchor="middle" x="367.03" y="-22.8" font-family="Times,serif" font-size="14.00">Algorithmically generated relationships for Observation based on assertions of &#39;has_many&#39;, &#39;has_one&#39;, &#39;belongs_to&#39;. </text>
<text text-anchor="middle" x="367.03" y="-7.8" font-family="Times,serif" font-size="14.00">Generated 2022&#45;01&#45;25 11:43:24 &#45;0600.</text>
<!-- Citation&#45;&gt;Source -->
<g id="edge13" class="edge">
<title>Citation&#45;&gt;Source</title>
<path fill="none" stroke="black" d="M98.27,-637.41C158.05,-637.41 273.07,-637.41 331.93,-637.41"/>
<polygon fill="black" stroke="black" points="332.23,-640.91 342.23,-637.41 332.23,-633.91 332.23,-640.91"/>
</g>
<!-- Citation&#45;&gt;CitationTopic -->
<g id="edge1" class="edge">
<title>Citation&#45;&gt;CitationTopic</title>
<path fill="none" stroke="black" d="M90.5,-648.15C110.55,-655.24 137.39,-664.73 161.08,-673.11"/>
<polygon fill="black" stroke="black" points="160.07,-676.46 170.66,-676.49 162.4,-669.86 160.07,-676.46"/>
</g>
<!-- Confidence&#45;&gt;ConfidenceLevel -->
<g id="edge3" class="edge">
<title>Confidence&#45;&gt;ConfidenceLevel</title>
<path fill="none" stroke="black" d="M110.21,-508.41C123.38,-508.41 137.76,-508.41 151.55,-508.41"/>
<polygon fill="black" stroke="black" points="151.95,-511.91 161.95,-508.41 151.95,-504.91 151.95,-511.91"/>
</g>
<!-- Depiction&#45;&gt;Image -->
<g id="edge8" class="edge">
<title>Depiction&#45;&gt;Image</title>
<path fill="none" stroke="black" d="M104.71,-292.41C128.43,-292.41 157.21,-292.41 179.52,-292.41"/>
<polygon fill="black" stroke="black" points="179.58,-295.91 189.58,-292.41 179.58,-288.91 179.58,-295.91"/>
</g>
<!-- Tag&#45;&gt;Keyword -->
<g id="edge9" class="edge">
<title>Tag&#45;&gt;Keyword</title>
<path fill="none" stroke="black" d="M86.18,-238.41C109.8,-238.41 145.06,-238.41 172.84,-238.41"/>
<polygon fill="black" stroke="black" points="173.07,-241.91 183.07,-238.41 173.07,-234.91 173.07,-241.91"/>
</g>
<!-- Observation&#45;&gt;Citation -->
<g id="edge2" class="edge">
<title>Observation&#45;&gt;Citation</title>
<path fill="none" stroke="black" d="M202.48,-397.64C173.94,-445.72 106.58,-559.2 75.88,-610.91"/>
<polygon fill="black" stroke="black" points="72.69,-609.43 70.59,-619.82 78.71,-613 72.69,-609.43"/>
</g>
<!-- Observation&#45;&gt;Confidence -->
<g id="edge4" class="edge">
<title>Observation&#45;&gt;Confidence</title>
<path fill="none" stroke="black" d="M199.48,-397.7C181.67,-420.97 151.18,-457.37 118.29,-481.41 113.74,-484.74 108.72,-487.8 103.58,-490.58"/>
<polygon fill="black" stroke="black" points="101.65,-487.64 94.31,-495.27 104.81,-493.88 101.65,-487.64"/>
</g>
<!-- Observation&#45;&gt;DataAttribute -->
<g id="edge5" class="edge">
<title>Observation&#45;&gt;DataAttribute</title>
<path fill="none" stroke="black" d="M181.22,-394.42C162.69,-404.48 139.39,-416.89 118.29,-427.41 113.06,-430.02 107.52,-432.7 102.03,-435.3"/>
<polygon fill="black" stroke="black" points="100.46,-432.17 92.89,-439.59 103.43,-438.51 100.46,-432.17"/>
</g>
<!-- Observation&#45;&gt;Depiction -->
<g id="edge6" class="edge">
<title>Observation&#45;&gt;Depiction</title>
<path fill="none" stroke="black" d="M183.17,-355.77C164.42,-344.68 140.28,-330.81 118.29,-319.41 112.18,-316.25 105.63,-313.04 99.21,-309.98"/>
<polygon fill="black" stroke="black" points="100.51,-306.73 89.97,-305.66 97.54,-313.07 100.51,-306.73"/>
</g>
<!-- Observation&#45;&gt;Identifier -->
<g id="edge7" class="edge">
<title>Observation&#45;&gt;Identifier</title>
<path fill="none" stroke="black" d="M154.34,-385.27C139.45,-387.67 123.73,-390.19 109.48,-392.48"/>
<polygon fill="black" stroke="black" points="108.71,-389.06 99.39,-394.1 109.82,-395.97 108.71,-389.06"/>
</g>
<!-- Observation&#45;&gt;Tag -->
<g id="edge16" class="edge">
<title>Observation&#45;&gt;Tag</title>
<path fill="none" stroke="black" d="M189.56,-354.09C178.12,-344.14 164.91,-331.78 154.29,-319.41 135.5,-297.53 140.19,-284.19 118.29,-265.41 110.97,-259.14 101.94,-254.01 93.2,-249.99"/>
<polygon fill="black" stroke="black" points="94.5,-246.73 83.93,-246.04 91.76,-253.17 94.5,-246.73"/>
</g>
<!-- Observation&#45;&gt;Note -->
<g id="edge10" class="edge">
<title>Observation&#45;&gt;Note</title>
<path fill="none" stroke="black" d="M156.25,-364.33C136,-360.56 114,-356.45 96.16,-353.13"/>
<polygon fill="black" stroke="black" points="96.65,-349.66 86.18,-351.27 95.37,-356.54 96.65,-349.66"/>
</g>
<!-- Observation&#45;&gt;Source -->
<g id="edge28" class="edge">
<title>Observation&#45;&gt;Source</title>
<path fill="none" stroke="black" stroke-dasharray="1,5" d="M238.27,-406.37C251.3,-426.98 267.76,-455.02 279.07,-481.41 301.5,-533.77 280.53,-559.12 315.07,-604.41 322.15,-613.7 332.66,-620.99 342.49,-626.33"/>
<polygon fill="black" stroke="black" points="241.09,-404.27 232.74,-397.74 235.19,-408.05 241.09,-404.27"/>
</g>
<!-- Observation&#45;&gt;CollectionObject -->
<g id="edge21" class="edge">
<title>Observation&#45;&gt;CollectionObject</title>
<path fill="none" stroke="black" stroke-dasharray="5,2" d="M265.05,-353.44C285.86,-343.78 309.99,-332.59 329.72,-323.44"/>
<polygon fill="black" stroke="black" points="263.35,-350.37 255.76,-357.75 266.3,-356.72 263.35,-350.37"/>
</g>
<!-- Observation&#45;&gt;Descriptor -->
<g id="edge23" class="edge">
<title>Observation&#45;&gt;Descriptor</title>
<path fill="none" stroke="black" stroke-dasharray="5,2" d="M250.54,-346.8C259.97,-338.22 270.13,-328.64 279.07,-319.41 296.18,-301.76 295.72,-292.58 315.07,-277.41 320.39,-273.24 326.46,-269.45 332.55,-266.11"/>
<polygon fill="black" stroke="black" points="247.92,-344.45 242.82,-353.74 252.6,-349.65 247.92,-344.45"/>
</g>
<!-- Observation&#45;&gt;Otu -->
<g id="edge24" class="edge">
<title>Observation&#45;&gt;Otu</title>
<path fill="none" stroke="black" stroke-dasharray="5,2" d="M253.53,-347.94C262.77,-339.56 272.07,-329.78 279.07,-319.41 304.78,-281.29 284.42,-256.7 315.07,-222.41 322.42,-214.19 332.85,-208.15 342.56,-203.89"/>
<polygon fill="black" stroke="black" points="251.08,-345.44 245.84,-354.65 255.68,-350.72 251.08,-345.44"/>
</g>
<!-- Observation&#45;&gt;PinboardItem -->
<g id="edge11" class="edge">
<title>Observation&#45;&gt;PinboardItem</title>
<path fill="none" stroke="black" d="M246.95,-354.89C258.55,-345.35 271.02,-333.09 279.07,-319.41 314.28,-259.58 272.07,-221.92 315.07,-167.41 315.65,-166.68 316.25,-165.97 316.88,-165.27"/>
<polygon fill="black" stroke="black" points="319.3,-167.79 324.34,-158.47 314.59,-162.62 319.3,-167.79"/>
</g>
<!-- Observation&#45;&gt;Role -->
<g id="edge12" class="edge">
<title>Observation&#45;&gt;Role</title>
<path fill="none" stroke="black" d="M279.05,-384.77C297.12,-387.52 316.31,-390.45 332.27,-392.88"/>
<polygon fill="black" stroke="black" points="331.83,-396.35 342.24,-394.4 332.88,-389.43 331.83,-396.35"/>
</g>
<!-- Observation&#45;&gt;SubsequentCitation -->
<g id="edge14" class="edge">
<title>Observation&#45;&gt;SubsequentCitation</title>
<path fill="none" stroke="black" d="M231.56,-397.77C244.5,-418.96 264,-451.86 279.07,-481.41 296.97,-516.51 285.82,-536.02 315.07,-562.41 335.34,-580.71 399.05,-599.9 450.13,-613.04"/>
<polygon fill="black" stroke="black" points="449.28,-616.43 459.83,-615.5 451,-609.65 449.28,-616.43"/>
</g>
<!-- Observation&#45;&gt;VerifierRole -->
<g id="edge18" class="edge">
<title>Observation&#45;&gt;VerifierRole</title>
<path fill="none" stroke="black" d="M234.45,-397.47C252.51,-420.13 282.99,-455.39 315.07,-479.41 316.66,-480.61 318.32,-481.77 320.01,-482.91"/>
<polygon fill="black" stroke="black" points="318.42,-486.04 328.76,-488.32 322.1,-480.08 318.42,-486.04"/>
</g>
<!-- Observation&#45;&gt;CharacterState -->
<g id="edge20" class="edge">
<title>Observation&#45;&gt;CharacterState</title>
<path fill="none" stroke="black" stroke-dasharray="5,2" d="M262.21,-398.35C278.79,-406.88 297.78,-416.61 315.07,-425.41 320.73,-428.29 326.72,-431.33 332.58,-434.29"/>
<polygon fill="black" stroke="black" points="263.76,-395.22 253.27,-393.76 260.56,-401.44 263.76,-395.22"/>
</g>
<!-- Observation&#45;&gt;Creator -->
<g id="edge22" class="edge">
<title>Observation&#45;&gt;Creator</title>
<path fill="none" stroke="black" stroke-dasharray="5,2" d="M255.32,-348.63C264.48,-340.3 273.3,-330.38 279.07,-319.41 306.23,-267.8 271.09,-97.73 315.07,-59.41 364.87,-16.03 448.99,-48.96 492.36,-70.91"/>
<polygon fill="black" stroke="black" points="252.91,-346.08 247.6,-355.25 257.47,-351.4 252.91,-346.08"/>
</g>
<!-- Observation&#45;&gt;Project -->
<g id="edge25" class="edge">
<title>Observation&#45;&gt;Project</title>
<path fill="none" stroke="black" stroke-dasharray="5,2" d="M255.06,-348.49C264.22,-340.16 273.1,-330.28 279.07,-319.41 323.8,-237.94 259.7,-188.06 315.07,-113.41 321.7,-104.47 332.14,-98.29 342.04,-94.12"/>
<polygon fill="black" stroke="black" points="252.66,-345.95 247.35,-355.12 257.22,-351.25 252.66,-345.95"/>
</g>
<!-- Observation&#45;&gt;Updater -->
<g id="edge26" class="edge">
<title>Observation&#45;&gt;Updater</title>
<path fill="none" stroke="black" stroke-dasharray="5,2" d="M289.03,-370.57C330.44,-365.37 382.46,-354.63 424.07,-332.41 534.68,-273.36 629.45,-150.6 662.53,-104.46"/>
<polygon fill="black" stroke="black" points="288.54,-367.1 279.02,-371.74 289.36,-374.05 288.54,-367.1"/>
</g>
<!-- Observation&#45;&gt;OriginCitation -->
<g id="edge27" class="edge">
<title>Observation&#45;&gt;OriginCitation</title>
<path fill="none" stroke="black" stroke-dasharray="1,5" d="M235.86,-406.41C262.31,-451.28 308.92,-529.43 315.07,-533.41 362.53,-564.15 429.18,-567.28 473.45,-565.15"/>
<polygon fill="black" stroke="black" points="238.79,-404.49 230.7,-397.65 232.76,-408.04 238.79,-404.49"/>
</g>
<!-- Source&#45;&gt;SubsequentCitation -->
<!-- Source&#45;&gt;OriginCitation -->
<!-- CitationTopic&#45;&gt;Topic -->
<g id="edge17" class="edge">
<title>CitationTopic&#45;&gt;Topic</title>
<path fill="none" stroke="black" d="M262.95,-692.41C285.08,-692.41 311.36,-692.41 332.17,-692.41"/>
<polygon fill="black" stroke="black" points="332.2,-695.91 342.2,-692.41 332.2,-688.91 332.2,-695.91"/>
</g>
<!-- Role&#45;&gt;Verifier -->
<!-- SubsequentCitation&#45;&gt;SubsequentSource -->
<g id="edge15" class="edge">
<title>SubsequentCitation&#45;&gt;SubsequentSource</title>
<path fill="none" stroke="black" d="M582.1,-629.41C590.43,-629.41 599.04,-629.41 607.5,-629.41"/>
<polygon fill="black" stroke="black" points="607.71,-632.91 617.71,-629.41 607.71,-625.91 607.71,-632.91"/>
</g>
<!-- VerifierRole&#45;&gt;Verifier -->
<g id="edge19" class="edge">
<title>VerifierRole&#45;&gt;Verifier</title>
<path fill="none" stroke="black" d="M411.42,-492.75C433.76,-485.28 461.23,-476.09 482.96,-468.83"/>
<polygon fill="black" stroke="black" points="484.12,-472.13 492.5,-465.63 481.9,-465.49 484.12,-472.13"/>
</g>
<!-- Creator&#45;&gt;Updater -->
<!-- Project&#45;&gt;Creator -->
<!-- Citation -->
<g id="node1" class="node">
<title>Citation</title>
<g id="a_node1"><a xlink:href="/develop/Data/models.html#citation" xlink:title="Citation" target="_top">
<ellipse fill="#abcdef" stroke="#dddeee" cx="59.14" cy="-637.41" rx="38.99" ry="18"/>
<text text-anchor="middle" x="59.14" y="-633.71" font-family="Times,serif" font-size="14.00">Citation</text>
</a>
</g>
</g>
<!-- Confidence -->
<g id="node2" class="node">
<title>Confidence</title>
<g id="a_node2"><a xlink:href="/develop/Data/models.html#confidence" xlink:title="Confidence" target="_top">
<ellipse fill="#abcdef" stroke="#dddeee" cx="59.14" cy="-508.41" rx="50.89" ry="18"/>
<text text-anchor="middle" x="59.14" y="-504.71" font-family="Times,serif" font-size="14.00">Confidence</text>
</a>
</g>
</g>
<!-- DataAttribute -->
<g id="node3" class="node">
<title>DataAttribute</title>
<g id="a_node3"><a xlink:href="/develop/Data/models.html#data-attribute" xlink:title="DataAttribute" target="_top">
<ellipse fill="#abcdef" stroke="#dddeee" cx="59.14" cy="-454.41" rx="59.29" ry="18"/>
<text text-anchor="middle" x="59.14" y="-450.71" font-family="Times,serif" font-size="14.00">DataAttribute</text>
</a>
</g>
</g>
<!-- Depiction -->
<g id="node4" class="node">
<title>Depiction</title>
<g id="a_node4"><a xlink:href="/develop/Data/models.html#depiction" xlink:title="Depiction" target="_top">
<ellipse fill="#abcdef" stroke="#dddeee" cx="59.14" cy="-292.41" rx="45.49" ry="18"/>
<text text-anchor="middle" x="59.14" y="-288.71" font-family="Times,serif" font-size="14.00">Depiction</text>
</a>
</g>
</g>
<!-- Identifier -->
<g id="node5" class="node">
<title>Identifier</title>
<g id="a_node5"><a xlink:href="/develop/Data/models.html#identifier" xlink:title="Identifier" target="_top">
<ellipse fill="#abcdef" stroke="#dddeee" cx="59.14" cy="-400.41" rx="42.79" ry="18"/>
<text text-anchor="middle" x="59.14" y="-396.71" font-family="Times,serif" font-size="14.00">Identifier</text>
</a>
</g>
</g>
<!-- Tag -->
<g id="node6" class="node">
<title>Tag</title>
<g id="a_node6"><a xlink:href="/develop/Data/models.html#tag" xlink:title="Tag" target="_top">
<ellipse fill="#abcdef" stroke="#dddeee" cx="59.14" cy="-238.41" rx="27" ry="18"/>
<text text-anchor="middle" x="59.14" y="-234.71" font-family="Times,serif" font-size="14.00">Tag</text>
</a>
</g>
</g>
<!-- Note -->
<g id="node7" class="node">
<title>Note</title>
<g id="a_node7"><a xlink:href="/develop/Data/models.html#note" xlink:title="Note" target="_top">
<ellipse fill="#abcdef" stroke="#dddeee" cx="59.14" cy="-346.41" rx="27.9" ry="18"/>
<text text-anchor="middle" x="59.14" y="-342.71" font-family="Times,serif" font-size="14.00">Note</text>
</a>
</g>
</g>
<!-- Observation -->
<g id="node8" class="node">
<title>Observation</title>
<g id="a_node8"><a xlink:href="/develop/Data/models.html#observation" xlink:title="Observation" target="_top">
<polygon fill="#cdefab" stroke="#dedede" points="274.97,-367.96 274.97,-382.87 240.82,-393.41 192.54,-393.41 158.39,-382.87 158.39,-367.96 192.54,-357.41 240.82,-357.41 274.97,-367.96"/>
<polygon fill="none" stroke="#dedede" points="278.96,-365 278.96,-385.82 241.42,-397.41 191.93,-397.41 154.4,-385.82 154.4,-365 191.93,-353.41 241.42,-353.41 278.96,-365"/>
<text text-anchor="middle" x="216.68" y="-371.71" font-family="Times,serif" font-size="14.00">Observation</text>
</a>
</g>
</g>
<!-- Source -->
<g id="node9" class="node">
<title>Source</title>
<g id="a_node9"><a xlink:href="/develop/Data/models.html#source" xlink:title="Source" target="_top">
<path fill="#fedcba" stroke="#dddeee" d="M354.57,-619.41C354.57,-619.41 384.57,-619.41 384.57,-619.41 390.57,-619.41 396.57,-625.41 396.57,-631.41 396.57,-631.41 396.57,-643.41 396.57,-643.41 396.57,-649.41 390.57,-655.41 384.57,-655.41 384.57,-655.41 354.57,-655.41 354.57,-655.41 348.57,-655.41 342.57,-649.41 342.57,-643.41 342.57,-643.41 342.57,-631.41 342.57,-631.41 342.57,-625.41 348.57,-619.41 354.57,-619.41"/>
<text text-anchor="middle" x="369.57" y="-633.71" font-family="Times,serif" font-size="14.00">Source</text>
</a>
</g>
</g>
<!-- CollectionObject -->
<g id="node10" class="node">
<title>CollectionObject</title>
<g id="a_node10"><a xlink:href="/develop/Data/models.html#collection-object" xlink:title="CollectionObject" target="_top">
<path fill="#fedcba" stroke="#dddeee" d="M327.07,-287.41C327.07,-287.41 412.07,-287.41 412.07,-287.41 418.07,-287.41 424.07,-293.41 424.07,-299.41 424.07,-299.41 424.07,-311.41 424.07,-311.41 424.07,-317.41 418.07,-323.41 412.07,-323.41 412.07,-323.41 327.07,-323.41 327.07,-323.41 321.07,-323.41 315.07,-317.41 315.07,-311.41 315.07,-311.41 315.07,-299.41 315.07,-299.41 315.07,-293.41 321.07,-287.41 327.07,-287.41"/>
<text text-anchor="middle" x="369.57" y="-301.71" font-family="Times,serif" font-size="14.00">CollectionObject</text>
</a>
</g>
</g>
<!-- Descriptor -->
<g id="node11" class="node">
<title>Descriptor</title>
<g id="a_node11"><a xlink:href="/develop/Data/models.html#descriptor" xlink:title="Descriptor" target="_top">
<path fill="#fedcba" stroke="#dddeee" d="M344.57,-232.41C344.57,-232.41 394.57,-232.41 394.57,-232.41 400.57,-232.41 406.57,-238.41 406.57,-244.41 406.57,-244.41 406.57,-256.41 406.57,-256.41 406.57,-262.41 400.57,-268.41 394.57,-268.41 394.57,-268.41 344.57,-268.41 344.57,-268.41 338.57,-268.41 332.57,-262.41 332.57,-256.41 332.57,-256.41 332.57,-244.41 332.57,-244.41 332.57,-238.41 338.57,-232.41 344.57,-232.41"/>
<text text-anchor="middle" x="369.57" y="-246.71" font-family="Times,serif" font-size="14.00">Descriptor</text>
</a>
</g>
</g>
<!-- Otu -->
<g id="node12" class="node">
<title>Otu</title>
<g id="a_node12"><a xlink:href="/develop/Data/models.html#otu" xlink:title="Otu" target="_top">
<path fill="#fedcba" stroke="#dddeee" d="M354.57,-177.41C354.57,-177.41 384.57,-177.41 384.57,-177.41 390.57,-177.41 396.57,-183.41 396.57,-189.41 396.57,-189.41 396.57,-201.41 396.57,-201.41 396.57,-207.41 390.57,-213.41 384.57,-213.41 384.57,-213.41 354.57,-213.41 354.57,-213.41 348.57,-213.41 342.57,-207.41 342.57,-201.41 342.57,-201.41 342.57,-189.41 342.57,-189.41 342.57,-183.41 348.57,-177.41 354.57,-177.41"/>
<text text-anchor="middle" x="369.57" y="-191.71" font-family="Times,serif" font-size="14.00">Otu</text>
</a>
</g>
</g>
<!-- CitationTopic -->
<g id="node13" class="node">
<title>CitationTopic</title>
<g id="a_node13"><a xlink:href="/develop/Data/models.html#citation-topic" xlink:title="CitationTopic" target="_top">
<polygon fill="#eeefff" stroke="#dddeee" points="262.68,-710.41 170.68,-710.41 170.68,-674.41 262.68,-674.41 262.68,-710.41"/>
<text text-anchor="middle" x="216.68" y="-688.71" font-family="Times,serif" font-size="14.00">CitationTopic</text>
</a>
</g>
</g>
<!-- ConfidenceLevel -->
<g id="node14" class="node">
<title>ConfidenceLevel</title>
<g id="a_node14"><a xlink:href="/develop/Data/models.html#confidence-level" xlink:title="ConfidenceLevel" target="_top">
<polygon fill="#eeefff" stroke="#dddeee" points="271.18,-526.41 162.18,-526.41 162.18,-490.41 271.18,-490.41 271.18,-526.41"/>
<text text-anchor="middle" x="216.68" y="-504.71" font-family="Times,serif" font-size="14.00">ConfidenceLevel</text>
</a>
</g>
</g>
<!-- Image -->
<g id="node15" class="node">
<title>Image</title>
<g id="a_node15"><a xlink:href="/develop/Data/models.html#image" xlink:title="Image" target="_top">
<polygon fill="#eeefff" stroke="#dddeee" points="243.68,-310.41 189.68,-310.41 189.68,-274.41 243.68,-274.41 243.68,-310.41"/>
<text text-anchor="middle" x="216.68" y="-288.71" font-family="Times,serif" font-size="14.00">Image</text>
</a>
</g>
</g>
<!-- Keyword -->
<g id="node16" class="node">
<title>Keyword</title>
<g id="a_node16"><a xlink:href="/develop/Data/models.html#keyword" xlink:title="Keyword" target="_top">
<polygon fill="#eeefff" stroke="#dddeee" points="250.18,-256.41 183.18,-256.41 183.18,-220.41 250.18,-220.41 250.18,-256.41"/>
<text text-anchor="middle" x="216.68" y="-234.71" font-family="Times,serif" font-size="14.00">Keyword</text>
</a>
</g>
</g>
<!-- PinboardItem -->
<g id="node17" class="node">
<title>PinboardItem</title>
<g id="a_node17"><a xlink:href="/develop/Data/models.html#pinboard-item" xlink:title="PinboardItem" target="_top">
<polygon fill="#eeefff" stroke="#dddeee" points="415.07,-158.41 324.07,-158.41 324.07,-122.41 415.07,-122.41 415.07,-158.41"/>
<text text-anchor="middle" x="369.57" y="-136.71" font-family="Times,serif" font-size="14.00">PinboardItem</text>
</a>
</g>
</g>
<!-- Role -->
<g id="node18" class="node">
<title>Role</title>
<g id="a_node18"><a xlink:href="/develop/Data/models.html#role" xlink:title="Role" target="_top">
<polygon fill="#eeefff" stroke="#dddeee" points="396.57,-416.41 342.57,-416.41 342.57,-380.41 396.57,-380.41 396.57,-416.41"/>
<text text-anchor="middle" x="369.57" y="-394.71" font-family="Times,serif" font-size="14.00">Role</text>
</a>
</g>
</g>
<!-- SubsequentCitation -->
<g id="node19" class="node">
<title>SubsequentCitation</title>
<g id="a_node19"><a xlink:href="/develop/Data/models.html#subsequent-citation" xlink:title="SubsequentCitation" target="_top">
<polygon fill="#eeefff" stroke="#dddeee" points="582.07,-647.41 460.07,-647.41 460.07,-611.41 582.07,-611.41 582.07,-647.41"/>
<text text-anchor="middle" x="521.07" y="-625.71" font-family="Times,serif" font-size="14.00">SubsequentCitation</text>
</a>
</g>
</g>
<!-- SubsequentSource -->
<g id="node20" class="node">
<title>SubsequentSource</title>
<g id="a_node20"><a xlink:href="/develop/Data/models.html#subsequent-source" xlink:title="SubsequentSource" target="_top">
<polygon fill="#eeefff" stroke="#dddeee" points="734.07,-647.41 618.07,-647.41 618.07,-611.41 734.07,-611.41 734.07,-647.41"/>
<text text-anchor="middle" x="676.07" y="-625.71" font-family="Times,serif" font-size="14.00">SubsequentSource</text>
</a>
</g>
</g>
<!-- Topic -->
<g id="node21" class="node">
<title>Topic</title>
<g id="a_node21"><a xlink:href="/develop/Data/models.html#topic" xlink:title="Topic" target="_top">
<polygon fill="#eeefff" stroke="#dddeee" points="396.57,-710.41 342.57,-710.41 342.57,-674.41 396.57,-674.41 396.57,-710.41"/>
<text text-anchor="middle" x="369.57" y="-688.71" font-family="Times,serif" font-size="14.00">Topic</text>
</a>
</g>
</g>
<!-- VerifierRole -->
<g id="node22" class="node">
<title>VerifierRole</title>
<g id="a_node22"><a xlink:href="/develop/Data/models.html#verifier-role" xlink:title="VerifierRole" target="_top">
<polygon fill="#eeefff" stroke="#dddeee" points="411.07,-524.41 328.07,-524.41 328.07,-488.41 411.07,-488.41 411.07,-524.41"/>
<text text-anchor="middle" x="369.57" y="-502.71" font-family="Times,serif" font-size="14.00">VerifierRole</text>
</a>
</g>
</g>
<!-- Verifier -->
<g id="node23" class="node">
<title>Verifier</title>
<g id="a_node23"><a xlink:href="/develop/Data/models.html#verifier" xlink:title="Verifier" target="_top">
<polygon fill="#eeefff" stroke="#dddeee" points="549.57,-474.41 492.57,-474.41 492.57,-438.41 549.57,-438.41 549.57,-474.41"/>
<text text-anchor="middle" x="521.07" y="-452.71" font-family="Times,serif" font-size="14.00">Verifier</text>
</a>
</g>
</g>
<!-- CharacterState -->
<g id="node24" class="node">
<title>CharacterState</title>
<g id="a_node24"><a xlink:href="/develop/Data/models.html#character-state" xlink:title="CharacterState" target="_top">
<polygon fill="#eeefff" stroke="#dddeee" points="417.57,-470.41 321.57,-470.41 321.57,-434.41 417.57,-434.41 417.57,-470.41"/>
<text text-anchor="middle" x="369.57" y="-448.71" font-family="Times,serif" font-size="14.00">CharacterState</text>
</a>
</g>
</g>
<!-- Creator -->
<g id="node25" class="node">
<title>Creator</title>
<g id="a_node25"><a xlink:href="/develop/Data/models.html#creator" xlink:title="Creator" target="_top">
<polygon fill="#eeefff" stroke="#dddeee" points="549.57,-104.41 492.57,-104.41 492.57,-68.41 549.57,-68.41 549.57,-104.41"/>
<text text-anchor="middle" x="521.07" y="-82.71" font-family="Times,serif" font-size="14.00">Creator</text>
</a>
</g>
</g>
<!-- Project -->
<g id="node26" class="node">
<title>Project</title>
<g id="a_node26"><a xlink:href="/develop/Data/models.html#project" xlink:title="Project" target="_top">
<polygon fill="#eeefff" stroke="#dddeee" points="397.07,-104.41 342.07,-104.41 342.07,-68.41 397.07,-68.41 397.07,-104.41"/>
<text text-anchor="middle" x="369.57" y="-82.71" font-family="Times,serif" font-size="14.00">Project</text>
</a>
</g>
</g>
<!-- Updater -->
<g id="node27" class="node">
<title>Updater</title>
<g id="a_node27"><a xlink:href="/develop/Data/models.html#updater" xlink:title="Updater" target="_top">
<polygon fill="#eeefff" stroke="#dddeee" points="706.07,-104.41 646.07,-104.41 646.07,-68.41 706.07,-68.41 706.07,-104.41"/>
<text text-anchor="middle" x="676.07" y="-82.71" font-family="Times,serif" font-size="14.00">Updater</text>
</a>
</g>
</g>
<!-- OriginCitation -->
<g id="node28" class="node">
<title>OriginCitation</title>
<g id="a_node28"><a xlink:href="/develop/Data/models.html#origin-citation" xlink:title="OriginCitation" target="_top">
<polygon fill="#eeefff" stroke="#dddeee" points="568.57,-578.41 473.57,-578.41 473.57,-542.41 568.57,-542.41 568.57,-578.41"/>
<text text-anchor="middle" x="521.07" y="-556.71" font-family="Times,serif" font-size="14.00">OriginCitation</text>
</a>
</g>
</g>
</g>
</svg>
