<?xml version="1.0" encoding="UTF-8" standalone="no"?>
<!DOCTYPE svg PUBLIC "-//W3C//DTD SVG 1.1//EN"
 "http://www.w3.org/Graphics/SVG/1.1/DTD/svg11.dtd">
<!-- Generated by graphviz version 2.50.0 (20211204.2007)
 -->
<!-- Title: Organization Pages: 1 -->
<svg width="514pt" height="454pt"
 viewBox="0.00 0.00 514.20 453.51" xmlns="http://www.w3.org/2000/svg" xmlns:xlink="http://www.w3.org/1999/xlink">
<g id="graph0" class="graph" transform="scale(1 1) rotate(0) translate(4 449.51)">
<title>Organization</title>
<polygon fill="white" stroke="transparent" points="-4,4 -4,-449.51 510.2,-449.51 510.2,4 -4,4"/>
<!-- Organization&#45;&gt;Identifier -->
<g id="edge1" class="edge">
<title>Organization&#45;&gt;Identifier</title>
<path fill="none" stroke="black" d="M125.04,-223.1C114.06,-225.18 102.76,-227.33 92.21,-229.34"/>
<polygon fill="black" stroke="black" points="91.52,-225.9 82.35,-231.21 92.83,-232.78 91.52,-225.9"/>
</g>
<!-- Organization&#45;&gt;Note -->
<g id="edge2" class="edge">
<title>Organization&#45;&gt;Note</title>
<path fill="none" stroke="black" d="M125,-199.93C109.63,-197.01 93.63,-193.96 79.93,-191.36"/>
<polygon fill="black" stroke="black" points="80.44,-187.9 69.96,-189.47 79.13,-194.77 80.44,-187.9"/>
</g>
<!-- Organization&#45;&gt;PinboardItem -->
<g id="edge3" class="edge">
<title>Organization&#45;&gt;PinboardItem</title>
<path fill="none" stroke="black" d="M194.47,-233.71C206.78,-272.37 236.99,-352.51 288.2,-400.51 290.31,-402.49 292.59,-404.34 294.98,-406.07"/>
<polygon fill="black" stroke="black" points="293.17,-409.07 303.49,-411.49 296.94,-403.17 293.17,-409.07"/>
</g>
<!-- Organization&#45;&gt;Role -->
<g id="edge4" class="edge">
<title>Organization&#45;&gt;Role</title>
<path fill="none" stroke="black" d="M199.65,-233.64C216.01,-262.87 248.29,-314.4 288.2,-346.51 295.44,-352.34 304.14,-357.19 312.64,-361.1"/>
<polygon fill="black" stroke="black" points="311.49,-364.41 322.07,-365.11 314.24,-357.97 311.49,-364.41"/>
</g>
<!-- Organization&#45;&gt;VerifierRole -->
<g id="edge5" class="edge">
<title>Organization&#45;&gt;VerifierRole</title>
<path fill="none" stroke="black" d="M211.79,-233.7C231.31,-251.14 260.19,-275.29 288.2,-292.51 291.4,-294.49 294.78,-296.4 298.22,-298.23"/>
<polygon fill="black" stroke="black" points="296.94,-301.5 307.45,-302.89 300.1,-295.26 296.94,-301.5"/>
</g>
<!-- Organization&#45;&gt;AreaServed -->
<g id="edge7" class="edge">
<title>Organization&#45;&gt;AreaServed</title>
<path fill="none" stroke="black" stroke-dasharray="5,2" d="M244.37,-230.52C265.71,-237.71 289.52,-245.74 308.95,-252.29"/>
<polygon fill="black" stroke="black" points="245.36,-227.16 234.76,-227.28 243.12,-233.79 245.36,-227.16"/>
</g>
<!-- Organization&#45;&gt;Creator -->
<g id="edge8" class="edge">
<title>Organization&#45;&gt;Creator</title>
<path fill="none" stroke="black" stroke-dasharray="5,2" d="M262.31,-211.51C282.98,-211.51 304.16,-211.51 320.32,-211.51"/>
<polygon fill="black" stroke="black" points="262.23,-208.01 252.23,-211.51 262.23,-215.01 262.23,-208.01"/>
</g>
<!-- Organization&#45;&gt;Department -->
<g id="edge9" class="edge">
<title>Organization&#45;&gt;Department</title>
<path fill="none" stroke="black" stroke-dasharray="5,2" d="M244.33,-192.53C265.59,-185.36 289.29,-177.37 308.69,-170.83"/>
<polygon fill="black" stroke="black" points="243.12,-189.24 234.76,-195.75 245.36,-195.87 243.12,-189.24"/>
</g>
<!-- Organization&#45;&gt;ParentOrganization -->
<g id="edge10" class="edge">
<title>Organization&#45;&gt;ParentOrganization</title>
<path fill="none" stroke="black" stroke-dasharray="5,2" d="M219.53,-182.51C238.51,-165.96 263.69,-145.59 288.2,-130.51 293.36,-127.34 298.95,-124.33 304.58,-121.54"/>
<polygon fill="black" stroke="black" points="216.97,-180.09 211.79,-189.33 221.6,-185.34 216.97,-180.09"/>
</g>
<!-- Organization&#45;&gt;SameA -->
<g id="edge11" class="edge">
<title>Organization&#45;&gt;SameA</title>
<path fill="none" stroke="black" stroke-dasharray="5,2" d="M204.66,-180.61C222.13,-150.67 252.03,-105.62 288.2,-76.51 297.72,-68.85 309.77,-62.88 320.56,-58.52"/>
<polygon fill="black" stroke="black" points="201.57,-178.97 199.65,-189.39 207.65,-182.44 201.57,-178.97"/>
</g>
<!-- Organization&#45;&gt;Updater -->
<g id="edge12" class="edge">
<title>Organization&#45;&gt;Updater</title>
<path fill="none" stroke="black" stroke-dasharray="5,2" d="M194.42,-179.22C205.17,-134.84 231.49,-56.64 288.2,-22.51 334.66,5.44 366.06,8.98 410.2,-22.51 466.27,-62.52 474.47,-154.12 475.32,-193.25"/>
<polygon fill="black" stroke="black" points="190.96,-178.67 192.13,-189.2 197.78,-180.24 190.96,-178.67"/>
</g>
<!-- Role&#45;&gt;Verifier -->
<!-- VerifierRole&#45;&gt;Verifier -->
<g id="edge6" class="edge">
<title>VerifierRole&#45;&gt;Verifier</title>
<path fill="none" stroke="black" stroke-dasharray="1,5" d="M390.78,-328.28C405.84,-331.53 422.85,-335.21 437.63,-338.4"/>
<polygon fill="black" stroke="black" points="436.94,-341.83 447.45,-340.52 438.42,-334.99 436.94,-341.83"/>
</g>
<!-- Creator&#45;&gt;Updater -->
<!-- Identifier -->
<g id="node1" class="node">
<title>Identifier</title>
<g id="a_node1"><a xlink:href="/develop/Data/models.html#identifier" xlink:title="Identifier" target="_top">
<ellipse fill="#abcdef" stroke="#dddeee" cx="42.9" cy="-238.51" rx="42.79" ry="18"/>
<text text-anchor="middle" x="42.9" y="-234.81" font-family="Times,serif" font-size="14.00">Identifier</text>
</a>
</g>
</g>
<!-- Note -->
<g id="node2" class="node">
<title>Note</title>
<g id="a_node2"><a xlink:href="/develop/Data/models.html#note" xlink:title="Note" target="_top">
<ellipse fill="#abcdef" stroke="#dddeee" cx="42.9" cy="-184.51" rx="27.9" ry="18"/>
<text text-anchor="middle" x="42.9" y="-180.81" font-family="Times,serif" font-size="14.00">Note</text>
</a>
</g>
</g>
<!-- Organization -->
<g id="node3" class="node">
<title>Organization</title>
<g id="a_node3"><a xlink:href="/develop/Data/models.html#organization" xlink:title="Organization" target="_top">
<polygon fill="#cdefab" stroke="#dedede" points="248.39,-204.06 248.39,-218.97 212.43,-229.51 161.57,-229.51 125.6,-218.97 125.6,-204.06 161.57,-193.51 212.43,-193.51 248.39,-204.06"/>
<polygon fill="none" stroke="#dedede" points="252.4,-201.07 252.4,-221.96 213.01,-233.51 160.99,-233.51 121.59,-221.96 121.59,-201.07 160.99,-189.51 213.01,-189.51 252.4,-201.07"/>
<text text-anchor="middle" x="187" y="-207.81" font-family="Times,serif" font-size="14.00">Organization</text>
</a>
</g>
</g>
<!-- PinboardItem -->
<g id="node4" class="node">
<title>PinboardItem</title>
<g id="a_node4"><a xlink:href="/develop/Data/models.html#pinboard-item" xlink:title="PinboardItem" target="_top">
<polygon fill="#eeefff" stroke="#dddeee" points="394.7,-445.51 303.7,-445.51 303.7,-409.51 394.7,-409.51 394.7,-445.51"/>
<text text-anchor="middle" x="349.2" y="-423.81" font-family="Times,serif" font-size="14.00">PinboardItem</text>
</a>
</g>
</g>
<!-- Role -->
<g id="node5" class="node">
<title>Role</title>
<g id="a_node5"><a xlink:href="/develop/Data/models.html#role" xlink:title="Role" target="_top">
<polygon fill="#eeefff" stroke="#dddeee" points="376.2,-391.51 322.2,-391.51 322.2,-355.51 376.2,-355.51 376.2,-391.51"/>
<text text-anchor="middle" x="349.2" y="-369.81" font-family="Times,serif" font-size="14.00">Role</text>
</a>
</g>
</g>
<!-- VerifierRole -->
<g id="node6" class="node">
<title>VerifierRole</title>
<g id="a_node6"><a xlink:href="/develop/Data/models.html#verifier-role" xlink:title="VerifierRole" target="_top">
<polygon fill="#eeefff" stroke="#dddeee" points="390.7,-337.51 307.7,-337.51 307.7,-301.51 390.7,-301.51 390.7,-337.51"/>
<text text-anchor="middle" x="349.2" y="-315.81" font-family="Times,serif" font-size="14.00">VerifierRole</text>
</a>
</g>
</g>
<!-- Verifier -->
<g id="node7" class="node">
<title>Verifier</title>
<g id="a_node7"><a xlink:href="/develop/Data/models.html#verifier" xlink:title="Verifier" target="_top">
<polygon fill="#eeefff" stroke="#dddeee" points="504.7,-364.51 447.7,-364.51 447.7,-328.51 504.7,-328.51 504.7,-364.51"/>
<text text-anchor="middle" x="476.2" y="-342.81" font-family="Times,serif" font-size="14.00">Verifier</text>
</a>
</g>
</g>
<!-- AreaServed -->
<g id="node8" class="node">
<title>AreaServed</title>
<g id="a_node8"><a xlink:href="/develop/Data/models.html#area-served" xlink:title="AreaServed" target="_top">
<polygon fill="#eeefff" stroke="#dddeee" points="389.2,-283.51 309.2,-283.51 309.2,-247.51 389.2,-247.51 389.2,-283.51"/>
<text text-anchor="middle" x="349.2" y="-261.81" font-family="Times,serif" font-size="14.00">AreaServed</text>
</a>
</g>
</g>
<!-- Creator -->
<g id="node9" class="node">
<title>Creator</title>
<g id="a_node9"><a xlink:href="/develop/Data/models.html#creator" xlink:title="Creator" target="_top">
<polygon fill="#eeefff" stroke="#dddeee" points="377.7,-229.51 320.7,-229.51 320.7,-193.51 377.7,-193.51 377.7,-229.51"/>
<text text-anchor="middle" x="349.2" y="-207.81" font-family="Times,serif" font-size="14.00">Creator</text>
</a>
</g>
</g>
<!-- Department -->
<g id="node10" class="node">
<title>Department</title>
<g id="a_node10"><a xlink:href="/develop/Data/models.html#department" xlink:title="Department" target="_top">
<polygon fill="#eeefff" stroke="#dddeee" points="389.7,-175.51 308.7,-175.51 308.7,-139.51 389.7,-139.51 389.7,-175.51"/>
<text text-anchor="middle" x="349.2" y="-153.81" font-family="Times,serif" font-size="14.00">Department</text>
</a>
</g>
</g>
<!-- ParentOrganization -->
<g id="node11" class="node">
<title>ParentOrganization</title>
<g id="a_node11"><a xlink:href="/develop/Data/models.html#parent-organization" xlink:title="ParentOrganization" target="_top">
<polygon fill="#eeefff" stroke="#dddeee" points="410.2,-121.51 288.2,-121.51 288.2,-85.51 410.2,-85.51 410.2,-121.51"/>
<text text-anchor="middle" x="349.2" y="-99.81" font-family="Times,serif" font-size="14.00">ParentOrganization</text>
</a>
</g>
</g>
<!-- SameA -->
<g id="node12" class="node">
<title>SameA</title>
<g id="a_node12"><a xlink:href="/develop/Data/models.html#same-a" xlink:title="SameA" target="_top">
<polygon fill="#eeefff" stroke="#dddeee" points="377.7,-67.51 320.7,-67.51 320.7,-31.51 377.7,-31.51 377.7,-67.51"/>
<text text-anchor="middle" x="349.2" y="-45.81" font-family="Times,serif" font-size="14.00">SameA</text>
</a>
</g>
</g>
<!-- Updater -->
<g id="node13" class="node">
<title>Updater</title>
<g id="a_node13"><a xlink:href="/develop/Data/models.html#updater" xlink:title="Updater" target="_top">
<polygon fill="#eeefff" stroke="#dddeee" points="506.2,-229.51 446.2,-229.51 446.2,-193.51 506.2,-193.51 506.2,-229.51"/>
<text text-anchor="middle" x="476.2" y="-207.81" font-family="Times,serif" font-size="14.00">Updater</text>
</a>
</g>
</g>
</g>
</svg>
