<?xml version="1.0" encoding="UTF-8" standalone="no"?>
<!DOCTYPE svg PUBLIC "-//W3C//DTD SVG 1.1//EN"
 "http://www.w3.org/Graphics/SVG/1.1/DTD/svg11.dtd">
<!-- Generated by graphviz version 2.50.0 (20211204.2007)
 -->
<!-- Title: Organization Pages: 1 -->
<svg width="657pt" height="492pt"
 viewBox="0.00 0.00 657.00 491.51" xmlns="http://www.w3.org/2000/svg" xmlns:xlink="http://www.w3.org/1999/xlink">
<g id="graph0" class="graph" transform="scale(1 1) rotate(0) translate(4 487.51)">
<title>Organization</title>
<polygon fill="white" stroke="transparent" points="-4,4 -4,-487.51 653,-487.51 653,4 -4,4"/>
<text text-anchor="middle" x="324.5" y="-22.8" font-family="Times,serif" font-size="14.00">Algorithmically generated relationships for Organization based on assertions of &#39;has_many&#39;, &#39;has_one&#39;, &#39;belongs_to&#39;. </text>
<text text-anchor="middle" x="324.5" y="-7.8" font-family="Times,serif" font-size="14.00">Generated 2022&#45;01&#45;25 11:38:11 &#45;0600.</text>
<!-- Organization&#45;&gt;Identifier -->
<g id="edge1" class="edge">
<title>Organization&#45;&gt;Identifier</title>
<path fill="none" stroke="black" d="M196.44,-261.1C185.46,-263.18 174.16,-265.33 163.61,-267.34"/>
<polygon fill="black" stroke="black" points="162.92,-263.9 153.75,-269.21 164.23,-270.78 162.92,-263.9"/>
</g>
<!-- Organization&#45;&gt;Note -->
<g id="edge2" class="edge">
<title>Organization&#45;&gt;Note</title>
<path fill="none" stroke="black" d="M196.4,-237.93C181.03,-235.01 165.03,-231.96 151.33,-229.36"/>
<polygon fill="black" stroke="black" points="151.84,-225.9 141.36,-227.47 150.53,-232.77 151.84,-225.9"/>
</g>
<!-- Organization&#45;&gt;PinboardItem -->
<g id="edge3" class="edge">
<title>Organization&#45;&gt;PinboardItem</title>
<path fill="none" stroke="black" d="M265.87,-271.71C278.18,-310.37 308.39,-390.51 359.6,-438.51 361.71,-440.49 363.99,-442.34 366.38,-444.07"/>
<polygon fill="black" stroke="black" points="364.57,-447.07 374.89,-449.49 368.34,-441.17 364.57,-447.07"/>
</g>
<!-- Organization&#45;&gt;Role -->
<g id="edge4" class="edge">
<title>Organization&#45;&gt;Role</title>
<path fill="none" stroke="black" d="M271.05,-271.64C287.41,-300.87 319.69,-352.4 359.6,-384.51 366.84,-390.34 375.54,-395.19 384.04,-399.1"/>
<polygon fill="black" stroke="black" points="382.89,-402.41 393.47,-403.11 385.64,-395.97 382.89,-402.41"/>
</g>
<!-- Organization&#45;&gt;VerifierRole -->
<g id="edge5" class="edge">
<title>Organization&#45;&gt;VerifierRole</title>
<path fill="none" stroke="black" d="M283.19,-271.7C302.71,-289.14 331.59,-313.29 359.6,-330.51 362.8,-332.49 366.18,-334.4 369.62,-336.23"/>
<polygon fill="black" stroke="black" points="368.34,-339.5 378.85,-340.89 371.5,-333.26 368.34,-339.5"/>
</g>
<!-- Organization&#45;&gt;AreaServed -->
<g id="edge7" class="edge">
<title>Organization&#45;&gt;AreaServed</title>
<path fill="none" stroke="black" stroke-dasharray="5,2" d="M315.77,-268.52C337.11,-275.71 360.92,-283.74 380.35,-290.29"/>
<polygon fill="black" stroke="black" points="316.76,-265.16 306.16,-265.28 314.52,-271.79 316.76,-265.16"/>
</g>
<!-- Organization&#45;&gt;Creator -->
<g id="edge8" class="edge">
<title>Organization&#45;&gt;Creator</title>
<path fill="none" stroke="black" stroke-dasharray="5,2" d="M333.71,-249.51C354.38,-249.51 375.56,-249.51 391.72,-249.51"/>
<polygon fill="black" stroke="black" points="333.63,-246.01 323.63,-249.51 333.63,-253.01 333.63,-246.01"/>
</g>
<!-- Organization&#45;&gt;Department -->
<g id="edge9" class="edge">
<title>Organization&#45;&gt;Department</title>
<path fill="none" stroke="black" stroke-dasharray="5,2" d="M315.73,-230.53C336.99,-223.36 360.69,-215.37 380.09,-208.83"/>
<polygon fill="black" stroke="black" points="314.52,-227.24 306.16,-233.75 316.76,-233.87 314.52,-227.24"/>
</g>
<!-- Organization&#45;&gt;ParentOrganization -->
<g id="edge10" class="edge">
<title>Organization&#45;&gt;ParentOrganization</title>
<path fill="none" stroke="black" stroke-dasharray="5,2" d="M290.93,-220.51C309.91,-203.96 335.09,-183.59 359.6,-168.51 364.76,-165.34 370.35,-162.33 375.98,-159.54"/>
<polygon fill="black" stroke="black" points="288.37,-218.09 283.19,-227.33 293,-223.34 288.37,-218.09"/>
</g>
<!-- Organization&#45;&gt;SameA -->
<g id="edge11" class="edge">
<title>Organization&#45;&gt;SameA</title>
<path fill="none" stroke="black" stroke-dasharray="5,2" d="M276.06,-218.61C293.53,-188.67 323.43,-143.62 359.6,-114.51 369.12,-106.85 381.17,-100.88 391.96,-96.52"/>
<polygon fill="black" stroke="black" points="272.97,-216.97 271.05,-227.39 279.05,-220.44 272.97,-216.97"/>
</g>
<!-- Organization&#45;&gt;Updater -->
<g id="edge12" class="edge">
<title>Organization&#45;&gt;Updater</title>
<path fill="none" stroke="black" stroke-dasharray="5,2" d="M265.82,-217.22C276.57,-172.84 302.89,-94.64 359.6,-60.51 406.06,-32.56 437.46,-29.02 481.6,-60.51 537.67,-100.52 545.87,-192.12 546.72,-231.25"/>
<polygon fill="black" stroke="black" points="262.36,-216.67 263.53,-227.2 269.18,-218.24 262.36,-216.67"/>
</g>
<!-- Role&#45;&gt;Verifier -->
<!-- VerifierRole&#45;&gt;Verifier -->
<g id="edge6" class="edge">
<title>VerifierRole&#45;&gt;Verifier</title>
<path fill="none" stroke="black" d="M462.18,-366.28C477.24,-369.53 494.25,-373.21 509.03,-376.4"/>
<polygon fill="black" stroke="black" points="508.34,-379.83 518.85,-378.52 509.82,-372.99 508.34,-379.83"/>
</g>
<!-- Creator&#45;&gt;Updater -->
<!-- Identifier -->
<g id="node1" class="node">
<title>Identifier</title>
<g id="a_node1"><a xlink:href="/develop/Data/models.html#identifier" xlink:title="Identifier" target="_top">
<ellipse fill="#abcdef" stroke="#dddeee" cx="114.3" cy="-276.51" rx="42.79" ry="18"/>
<text text-anchor="middle" x="114.3" y="-272.81" font-family="Times,serif" font-size="14.00">Identifier</text>
</a>
</g>
</g>
<!-- Note -->
<g id="node2" class="node">
<title>Note</title>
<g id="a_node2"><a xlink:href="/develop/Data/models.html#note" xlink:title="Note" target="_top">
<ellipse fill="#abcdef" stroke="#dddeee" cx="114.3" cy="-222.51" rx="27.9" ry="18"/>
<text text-anchor="middle" x="114.3" y="-218.81" font-family="Times,serif" font-size="14.00">Note</text>
</a>
</g>
</g>
<!-- Organization -->
<g id="node3" class="node">
<title>Organization</title>
<g id="a_node3"><a xlink:href="/develop/Data/models.html#organization" xlink:title="Organization" target="_top">
<polygon fill="#cdefab" stroke="#dedede" points="319.79,-242.06 319.79,-256.97 283.83,-267.51 232.97,-267.51 197,-256.97 197,-242.06 232.97,-231.51 283.83,-231.51 319.79,-242.06"/>
<polygon fill="none" stroke="#dedede" points="323.8,-239.07 323.8,-259.96 284.4,-271.51 232.39,-271.51 192.99,-259.96 192.99,-239.07 232.39,-227.51 284.4,-227.51 323.8,-239.07"/>
<text text-anchor="middle" x="258.4" y="-245.81" font-family="Times,serif" font-size="14.00">Organization</text>
</a>
</g>
</g>
<!-- PinboardItem -->
<g id="node4" class="node">
<title>PinboardItem</title>
<g id="a_node4"><a xlink:href="/develop/Data/models.html#pinboard-item" xlink:title="PinboardItem" target="_top">
<polygon fill="#eeefff" stroke="#dddeee" points="466.1,-483.51 375.1,-483.51 375.1,-447.51 466.1,-447.51 466.1,-483.51"/>
<text text-anchor="middle" x="420.6" y="-461.81" font-family="Times,serif" font-size="14.00">PinboardItem</text>
</a>
</g>
</g>
<!-- Role -->
<g id="node5" class="node">
<title>Role</title>
<g id="a_node5"><a xlink:href="/develop/Data/models.html#role" xlink:title="Role" target="_top">
<polygon fill="#eeefff" stroke="#dddeee" points="447.6,-429.51 393.6,-429.51 393.6,-393.51 447.6,-393.51 447.6,-429.51"/>
<text text-anchor="middle" x="420.6" y="-407.81" font-family="Times,serif" font-size="14.00">Role</text>
</a>
</g>
</g>
<!-- VerifierRole -->
<g id="node6" class="node">
<title>VerifierRole</title>
<g id="a_node6"><a xlink:href="/develop/Data/models.html#verifier-role" xlink:title="VerifierRole" target="_top">
<polygon fill="#eeefff" stroke="#dddeee" points="462.1,-375.51 379.1,-375.51 379.1,-339.51 462.1,-339.51 462.1,-375.51"/>
<text text-anchor="middle" x="420.6" y="-353.81" font-family="Times,serif" font-size="14.00">VerifierRole</text>
</a>
</g>
</g>
<!-- Verifier -->
<g id="node7" class="node">
<title>Verifier</title>
<g id="a_node7"><a xlink:href="/develop/Data/models.html#verifier" xlink:title="Verifier" target="_top">
<polygon fill="#eeefff" stroke="#dddeee" points="576.1,-402.51 519.1,-402.51 519.1,-366.51 576.1,-366.51 576.1,-402.51"/>
<text text-anchor="middle" x="547.6" y="-380.81" font-family="Times,serif" font-size="14.00">Verifier</text>
</a>
</g>
</g>
<!-- AreaServed -->
<g id="node8" class="node">
<title>AreaServed</title>
<g id="a_node8"><a xlink:href="/develop/Data/models.html#area-served" xlink:title="AreaServed" target="_top">
<polygon fill="#eeefff" stroke="#dddeee" points="460.6,-321.51 380.6,-321.51 380.6,-285.51 460.6,-285.51 460.6,-321.51"/>
<text text-anchor="middle" x="420.6" y="-299.81" font-family="Times,serif" font-size="14.00">AreaServed</text>
</a>
</g>
</g>
<!-- Creator -->
<g id="node9" class="node">
<title>Creator</title>
<g id="a_node9"><a xlink:href="/develop/Data/models.html#creator" xlink:title="Creator" target="_top">
<polygon fill="#eeefff" stroke="#dddeee" points="449.1,-267.51 392.1,-267.51 392.1,-231.51 449.1,-231.51 449.1,-267.51"/>
<text text-anchor="middle" x="420.6" y="-245.81" font-family="Times,serif" font-size="14.00">Creator</text>
</a>
</g>
</g>
<!-- Department -->
<g id="node10" class="node">
<title>Department</title>
<g id="a_node10"><a xlink:href="/develop/Data/models.html#department" xlink:title="Department" target="_top">
<polygon fill="#eeefff" stroke="#dddeee" points="461.1,-213.51 380.1,-213.51 380.1,-177.51 461.1,-177.51 461.1,-213.51"/>
<text text-anchor="middle" x="420.6" y="-191.81" font-family="Times,serif" font-size="14.00">Department</text>
</a>
</g>
</g>
<!-- ParentOrganization -->
<g id="node11" class="node">
<title>ParentOrganization</title>
<g id="a_node11"><a xlink:href="/develop/Data/models.html#parent-organization" xlink:title="ParentOrganization" target="_top">
<polygon fill="#eeefff" stroke="#dddeee" points="481.6,-159.51 359.6,-159.51 359.6,-123.51 481.6,-123.51 481.6,-159.51"/>
<text text-anchor="middle" x="420.6" y="-137.81" font-family="Times,serif" font-size="14.00">ParentOrganization</text>
</a>
</g>
</g>
<!-- SameA -->
<g id="node12" class="node">
<title>SameA</title>
<g id="a_node12"><a xlink:href="/develop/Data/models.html#same-a" xlink:title="SameA" target="_top">
<polygon fill="#eeefff" stroke="#dddeee" points="449.1,-105.51 392.1,-105.51 392.1,-69.51 449.1,-69.51 449.1,-105.51"/>
<text text-anchor="middle" x="420.6" y="-83.81" font-family="Times,serif" font-size="14.00">SameA</text>
</a>
</g>
</g>
<!-- Updater -->
<g id="node13" class="node">
<title>Updater</title>
<g id="a_node13"><a xlink:href="/develop/Data/models.html#updater" xlink:title="Updater" target="_top">
<polygon fill="#eeefff" stroke="#dddeee" points="577.6,-267.51 517.6,-267.51 517.6,-231.51 577.6,-231.51 577.6,-267.51"/>
<text text-anchor="middle" x="547.6" y="-245.81" font-family="Times,serif" font-size="14.00">Updater</text>
</a>
</g>
</g>
</g>
</svg>
