<?xml version="1.0" encoding="UTF-8" standalone="no"?>
<!DOCTYPE svg PUBLIC "-//W3C//DTD SVG 1.1//EN"
 "http://www.w3.org/Graphics/SVG/1.1/DTD/svg11.dtd">
<!-- Generated by graphviz version 12.2.1 (20241206.2353)
 -->
<!-- Title: Organization Pages: 1 -->
<svg width="624pt" height="947pt"
 viewBox="0.00 0.00 623.95 947.00" xmlns="http://www.w3.org/2000/svg" xmlns:xlink="http://www.w3.org/1999/xlink">
<g id="graph0" class="graph" transform="scale(1 1) rotate(0) translate(4 943)">
<title>Organization</title>
<polygon fill="white" stroke="none" points="-4,4 -4,-943 619.95,-943 619.95,4 -4,4"/>
<!-- Organization&#45;&gt;Identifier -->
<g id="edge12" class="edge">
<title>Organization&#45;&gt;Identifier</title>
<path fill="none" stroke="black" d="M129.4,-471.73C118.89,-473.65 108.12,-475.63 97.96,-477.5"/>
<polygon fill="black" stroke="black" points="97.49,-474.02 88.28,-479.27 98.75,-480.91 97.49,-474.02"/>
</g>
<!-- Organization&#45;&gt;Note -->
<g id="edge13" class="edge">
<title>Organization&#45;&gt;Note</title>
<path fill="none" stroke="black" d="M129.24,-448.24C113.86,-445.41 97.92,-442.49 84.17,-439.96"/>
<polygon fill="black" stroke="black" points="85.15,-436.58 74.68,-438.22 83.88,-443.47 85.15,-436.58"/>
</g>
<!-- Organization&#45;&gt;AuthorRole -->
<g id="edge1" class="edge">
<title>Organization&#45;&gt;AuthorRole</title>
<path fill="none" stroke="black" d="M197.84,-482.48C207.24,-562.36 242.5,-830.97 298.2,-894 304.35,-900.95 312.45,-906.11 321.01,-909.95"/>
<polygon fill="black" stroke="black" points="319.58,-913.15 330.17,-913.46 322.09,-906.61 319.58,-913.15"/>
</g>
<!-- Organization&#45;&gt;TaxonNameAuthorRole -->
<g id="edge18" class="edge">
<title>Organization&#45;&gt;TaxonNameAuthorRole</title>
<path fill="none" stroke="black" d="M194.79,-482.47C194.54,-546.64 202.53,-732.93 298.2,-839 298.92,-839.79 299.65,-840.55 300.41,-841.3"/>
<polygon fill="black" stroke="black" points="298.17,-843.99 308.15,-847.55 302.57,-838.54 298.17,-843.99"/>
</g>
<!-- Organization&#45;&gt;CollectorRole -->
<g id="edge5" class="edge">
<title>Organization&#45;&gt;CollectorRole</title>
<path fill="none" stroke="black" d="M196.02,-482.11C199.03,-539.62 214.87,-695.47 298.2,-784 303.07,-789.16 308.99,-793.39 315.33,-796.84"/>
<polygon fill="black" stroke="black" points="313.65,-799.91 324.18,-801.01 316.63,-793.58 313.65,-799.91"/>
</g>
<!-- Organization&#45;&gt;DeterminerRole -->
<g id="edge6" class="edge">
<title>Organization&#45;&gt;DeterminerRole</title>
<path fill="none" stroke="black" d="M197.61,-482.2C204.01,-533.04 226.62,-658.99 298.2,-730 301.59,-733.35 305.43,-736.3 309.53,-738.88"/>
<polygon fill="black" stroke="black" points="307.7,-741.87 318.16,-743.55 311.03,-735.71 307.7,-741.87"/>
</g>
<!-- Organization&#45;&gt;EditorRole -->
<g id="edge8" class="edge">
<title>Organization&#45;&gt;EditorRole</title>
<path fill="none" stroke="black" d="M200.03,-482.29C210.32,-525.6 238.76,-621.59 298.2,-676 305.34,-682.52 314.19,-687.51 323.23,-691.31"/>
<polygon fill="black" stroke="black" points="321.83,-694.53 332.43,-694.73 324.27,-687.97 321.83,-694.53"/>
</g>
<!-- Organization&#45;&gt;GeoreferencerRole -->
<g id="edge9" class="edge">
<title>Organization&#45;&gt;GeoreferencerRole</title>
<path fill="none" stroke="black" d="M203.96,-482.36C218.42,-516.97 250.68,-583.53 298.2,-622 299.68,-623.19 301.21,-624.33 302.79,-625.43"/>
<polygon fill="black" stroke="black" points="300.61,-628.2 310.97,-630.41 304.25,-622.22 300.61,-628.2"/>
</g>
<!-- Organization&#45;&gt;SourceRole -->
<g id="edge16" class="edge">
<title>Organization&#45;&gt;SourceRole</title>
<path fill="none" stroke="black" d="M211.55,-482.32C230.1,-506.41 262.53,-544.48 298.2,-568 305.31,-572.68 313.34,-576.7 321.4,-580.09"/>
<polygon fill="black" stroke="black" points="319.95,-583.28 330.54,-583.65 322.49,-576.76 319.95,-583.28"/>
</g>
<!-- Organization&#45;&gt;PinboardItem -->
<g id="edge14" class="edge">
<title>Organization&#45;&gt;PinboardItem</title>
<path fill="none" stroke="black" d="M230.47,-479.87C250.1,-490.61 275.17,-503.72 298.2,-514 303.81,-516.5 309.72,-518.96 315.66,-521.33"/>
<polygon fill="black" stroke="black" points="314.3,-524.56 324.89,-524.91 316.83,-518.03 314.3,-524.56"/>
</g>
<!-- Organization&#45;&gt;Role -->
<g id="edge15" class="edge">
<title>Organization&#45;&gt;Role</title>
<path fill="none" stroke="black" d="M262.67,-470.36C286.7,-474.05 312.89,-478.08 333.48,-481.25"/>
<polygon fill="black" stroke="black" points="332.69,-484.67 343.1,-482.73 333.75,-477.75 332.69,-484.67"/>
</g>
<!-- Organization&#45;&gt;Uri -->
<g id="edge19" class="edge">
<title>Organization&#45;&gt;Uri</title>
<path fill="none" stroke="black" d="M262.67,-449.63C286.7,-445.94 312.89,-441.91 333.48,-438.74"/>
<polygon fill="black" stroke="black" points="333.75,-442.24 343.1,-437.26 332.69,-435.32 333.75,-442.24"/>
</g>
<!-- Organization&#45;&gt;Uuid -->
<g id="edge20" class="edge">
<title>Organization&#45;&gt;Uuid</title>
<path fill="none" stroke="black" d="M230.47,-440.12C250.1,-429.38 275.17,-416.27 298.2,-406 309.65,-400.89 322.39,-395.92 333.97,-391.67"/>
<polygon fill="black" stroke="black" points="334.98,-395.02 343.2,-388.34 332.61,-388.44 334.98,-395.02"/>
</g>
<!-- Organization&#45;&gt;VerifierRole -->
<g id="edge21" class="edge">
<title>Organization&#45;&gt;VerifierRole</title>
<path fill="none" stroke="black" d="M211.55,-437.67C230.1,-413.58 262.53,-375.51 298.2,-352 304.77,-347.67 312.12,-343.91 319.56,-340.68"/>
<polygon fill="black" stroke="black" points="320.68,-344.01 328.66,-337.04 318.07,-337.51 320.68,-344.01"/>
</g>
<!-- Organization&#45;&gt;AreaServed -->
<g id="edge23" class="edge">
<title>Organization&#45;&gt;AreaServed</title>
<path fill="none" stroke="black" stroke-dasharray="5,2" d="M208.49,-427.1C224.6,-390.78 255.14,-332.85 298.2,-298 307.93,-290.12 320.17,-284.41 331.82,-280.32"/>
<polygon fill="black" stroke="black" points="205.3,-425.67 204.56,-436.24 211.73,-428.44 205.3,-425.67"/>
</g>
<!-- Organization&#45;&gt;Creator -->
<g id="edge24" class="edge">
<title>Organization&#45;&gt;Creator</title>
<path fill="none" stroke="black" stroke-dasharray="5,2" d="M202.78,-426.63C214.95,-379.64 243.4,-294.15 298.2,-244 310.71,-232.55 328.5,-225.83 343.34,-221.96"/>
<polygon fill="black" stroke="black" points="199.41,-425.68 200.4,-436.23 206.2,-427.37 199.41,-425.68"/>
</g>
<!-- Organization&#45;&gt;Department -->
<g id="edge25" class="edge">
<title>Organization&#45;&gt;Department</title>
<path fill="none" stroke="black" stroke-dasharray="5,2" d="M199.11,-426.71C207.23,-370.47 231.37,-256.29 298.2,-190 307.18,-181.09 319.36,-175.09 331.17,-171.05"/>
<polygon fill="black" stroke="black" points="195.68,-425.92 197.81,-436.3 202.62,-426.85 195.68,-425.92"/>
</g>
<!-- Organization&#45;&gt;ParentOrganization -->
<g id="edge26" class="edge">
<title>Organization&#45;&gt;ParentOrganization</title>
<path fill="none" stroke="black" stroke-dasharray="5,2" d="M196.6,-426.7C200.87,-362.11 219.26,-218.86 298.2,-136 301.91,-132.1 306.24,-128.76 310.9,-125.9"/>
<polygon fill="black" stroke="black" points="193.13,-426.12 196.04,-436.31 200.12,-426.53 193.13,-426.12"/>
</g>
<!-- Organization&#45;&gt;SameA -->
<g id="edge27" class="edge">
<title>Organization&#45;&gt;SameA</title>
<path fill="none" stroke="black" stroke-dasharray="5,2" d="M194.77,-426.38C195.44,-353.95 207.16,-181.64 298.2,-82 309.82,-69.28 327.97,-62.53 343.23,-58.96"/>
<polygon fill="black" stroke="black" points="191.27,-426 194.75,-436.01 198.27,-426.02 191.27,-426"/>
</g>
<!-- Organization&#45;&gt;Updater -->
<g id="edge28" class="edge">
<title>Organization&#45;&gt;Updater</title>
<path fill="none" stroke="black" stroke-dasharray="5,2" d="M198.07,-426.5C206.45,-333.89 235.02,-77.89 298.2,-28 349.56,12.57 389.24,5.51 445.45,-28 509.23,-66 535.64,-159.13 544.24,-198.71"/>
<polygon fill="black" stroke="black" points="194.6,-425.93 197.21,-436.2 201.58,-426.55 194.6,-425.93"/>
</g>
<!-- AuthorRole&#45;&gt;AuthoredSource -->
<g id="edge2" class="edge">
<title>AuthorRole&#45;&gt;AuthoredSource</title>
<path fill="none" stroke="black" stroke-dasharray="1,5" d="M412.07,-921C433.46,-921 460.44,-921 484.69,-921"/>
<polygon fill="black" stroke="black" points="484.46,-924.5 494.46,-921 484.46,-917.5 484.46,-924.5"/>
</g>
<!-- TaxonNameAuthorRole&#45;&gt;AuthoredTaxonName -->
<g id="edge3" class="edge">
<title>TaxonNameAuthorRole&#45;&gt;AuthoredTaxonName</title>
<path fill="none" stroke="black" stroke-dasharray="1,5" d="M445.72,-867C453.6,-867 461.63,-867 469.56,-867"/>
<polygon fill="black" stroke="black" points="469.56,-870.5 479.56,-867 469.56,-863.5 469.56,-870.5"/>
</g>
<!-- CollectorRole&#45;&gt;CollectingEvent -->
<g id="edge4" class="edge">
<title>CollectorRole&#45;&gt;CollectingEvent</title>
<path fill="none" stroke="black" stroke-dasharray="1,5" d="M417.86,-812C438.37,-812 462.99,-812 485.25,-812"/>
<polygon fill="black" stroke="black" points="485.13,-815.5 495.13,-812 485.13,-808.5 485.13,-815.5"/>
</g>
<!-- DeterminerRole&#45;&gt;TaxonDetermination -->
<g id="edge17" class="edge">
<title>DeterminerRole&#45;&gt;TaxonDetermination</title>
<path fill="none" stroke="black" stroke-dasharray="1,5" d="M423.88,-757C439.12,-757 456.14,-757 472.58,-757"/>
<polygon fill="black" stroke="black" points="472.32,-760.5 482.32,-757 472.32,-753.5 472.32,-760.5"/>
</g>
<!-- EditorRole&#45;&gt;EditedSource -->
<g id="edge7" class="edge">
<title>EditorRole&#45;&gt;EditedSource</title>
<path fill="none" stroke="black" stroke-dasharray="1,5" d="M409.91,-703C433.95,-703 465.69,-703 492.65,-703"/>
<polygon fill="black" stroke="black" points="492.36,-706.5 502.36,-703 492.36,-699.5 492.36,-706.5"/>
</g>
<!-- GeoreferencerRole&#45;&gt;Georeference -->
<g id="edge10" class="edge">
<title>GeoreferencerRole&#45;&gt;Georeference</title>
<path fill="none" stroke="black" stroke-dasharray="1,5" d="M431.55,-649C451.28,-649 473.2,-649 492.64,-649"/>
<polygon fill="black" stroke="black" points="492.56,-652.5 502.56,-649 492.56,-645.5 492.56,-652.5"/>
</g>
<!-- SourceRole&#45;&gt;HumanSource -->
<g id="edge11" class="edge">
<title>SourceRole&#45;&gt;HumanSource</title>
<path fill="none" stroke="black" stroke-dasharray="1,5" d="M411.64,-595C434.59,-595 464.09,-595 489.75,-595"/>
<polygon fill="black" stroke="black" points="489.72,-598.5 499.72,-595 489.72,-591.5 489.72,-598.5"/>
</g>
<!-- Role&#45;&gt;Verifier -->
<!-- VerifierRole&#45;&gt;Verifier -->
<g id="edge22" class="edge">
<title>VerifierRole&#45;&gt;Verifier</title>
<path fill="none" stroke="black" stroke-dasharray="1,5" d="M413.54,-339.07C424.05,-342.99 435.26,-347.43 445.45,-352 467.25,-361.75 490.87,-374.1 509.91,-384.53"/>
<polygon fill="black" stroke="black" points="508.21,-387.59 518.66,-389.36 511.6,-381.46 508.21,-387.59"/>
</g>
<!-- Creator&#45;&gt;Updater -->
<!-- Identifier -->
<g id="node1" class="node">
<title>Identifier</title>
<g id="a_node1"><a xlink:href="/develop/Data/models.html#identifier" xlink:title="Identifier" target="_top">
<ellipse fill="#abcdef" stroke="#dddeee" cx="45.21" cy="-487" rx="45.21" ry="18"/>
<text text-anchor="middle" x="45.21" y="-481.95" font-family="Times,serif" font-size="14.00">Identifier</text>
</a>
</g>
</g>
<!-- Note -->
<g id="node2" class="node">
<title>Note</title>
<g id="a_node2"><a xlink:href="/develop/Data/models.html#note" xlink:title="Note" target="_top">
<ellipse fill="#abcdef" stroke="#dddeee" cx="45.21" cy="-433" rx="28.83" ry="18"/>
<text text-anchor="middle" x="45.21" y="-427.95" font-family="Times,serif" font-size="14.00">Note</text>
</a>
</g>
</g>
<!-- CollectingEvent -->
<g id="node3" class="node">
<title>CollectingEvent</title>
<g id="a_node3"><a xlink:href="/develop/Data/models.html#collecting-event" xlink:title="CollectingEvent" target="_top">
<path fill="#fedcba" stroke="#dddeee" d="M508.83,-794C508.83,-794 588.58,-794 588.58,-794 594.58,-794 600.58,-800 600.58,-806 600.58,-806 600.58,-818 600.58,-818 600.58,-824 594.58,-830 588.58,-830 588.58,-830 508.83,-830 508.83,-830 502.83,-830 496.83,-824 496.83,-818 496.83,-818 496.83,-806 496.83,-806 496.83,-800 502.83,-794 508.83,-794"/>
<text text-anchor="middle" x="548.7" y="-807.2" font-family="Times,serif" font-size="14.00">CollectingEvent</text>
</a>
</g>
</g>
<!-- Organization -->
<g id="node4" class="node">
<title>Organization</title>
<g id="a_node4"><a xlink:href="/develop/Data/models.html#organization" xlink:title="Organization" target="_top">
<polygon fill="#cdefab" stroke="#dedede" points="258.2,-452.54 258.2,-467.45 220.78,-478 167.85,-478 130.42,-467.45 130.42,-452.54 167.85,-442 220.78,-442 258.2,-452.54"/>
<polygon fill="none" stroke="#dedede" points="262.2,-449.51 262.2,-470.48 221.33,-482 167.29,-482 126.42,-470.48 126.42,-449.51 167.29,-438 221.33,-438 262.2,-449.51"/>
<text text-anchor="middle" x="194.31" y="-454.95" font-family="Times,serif" font-size="14.00">Organization</text>
</a>
</g>
</g>
<!-- AuthorRole -->
<g id="node5" class="node">
<title>AuthorRole</title>
<g id="a_node5"><a xlink:href="/develop/Data/models.html#author-role" xlink:title="AuthorRole" target="_top">
<polygon fill="#eeefff" stroke="#dddeee" points="411.7,-939 331.95,-939 331.95,-903 411.7,-903 411.7,-939"/>
<text text-anchor="middle" x="371.83" y="-915.95" font-family="Times,serif" font-size="14.00">AuthorRole</text>
</a>
</g>
</g>
<!-- AuthoredSource -->
<g id="node6" class="node">
<title>AuthoredSource</title>
<g id="a_node6"><a xlink:href="/develop/Data/models.html#authored-source" xlink:title="AuthoredSource" target="_top">
<polygon fill="#eeefff" stroke="#dddeee" points="600.95,-939 496.45,-939 496.45,-903 600.95,-903 600.95,-939"/>
<text text-anchor="middle" x="548.7" y="-915.95" font-family="Times,serif" font-size="14.00">AuthoredSource</text>
</a>
</g>
</g>
<!-- TaxonNameAuthorRole -->
<g id="node7" class="node">
<title>TaxonNameAuthorRole</title>
<g id="a_node7"><a xlink:href="/develop/Data/models.html#taxon-name-author-role" xlink:title="TaxonNameAuthorRole" target="_top">
<polygon fill="#eeefff" stroke="#dddeee" points="445.45,-885 298.2,-885 298.2,-849 445.45,-849 445.45,-885"/>
<text text-anchor="middle" x="371.83" y="-861.95" font-family="Times,serif" font-size="14.00">TaxonNameAuthorRole</text>
</a>
</g>
</g>
<!-- AuthoredTaxonName -->
<g id="node8" class="node">
<title>AuthoredTaxonName</title>
<g id="a_node8"><a xlink:href="/develop/Data/models.html#authored-taxon-name" xlink:title="AuthoredTaxonName" target="_top">
<polygon fill="#eeefff" stroke="#dddeee" points="615.95,-885 481.45,-885 481.45,-849 615.95,-849 615.95,-885"/>
<text text-anchor="middle" x="548.7" y="-861.95" font-family="Times,serif" font-size="14.00">AuthoredTaxonName</text>
</a>
</g>
</g>
<!-- CollectorRole -->
<g id="node9" class="node">
<title>CollectorRole</title>
<g id="a_node9"><a xlink:href="/develop/Data/models.html#collector-role" xlink:title="CollectorRole" target="_top">
<polygon fill="#eeefff" stroke="#dddeee" points="417.7,-830 325.95,-830 325.95,-794 417.7,-794 417.7,-830"/>
<text text-anchor="middle" x="371.83" y="-806.95" font-family="Times,serif" font-size="14.00">CollectorRole</text>
</a>
</g>
</g>
<!-- DeterminerRole -->
<g id="node10" class="node">
<title>DeterminerRole</title>
<g id="a_node10"><a xlink:href="/develop/Data/models.html#determiner-role" xlink:title="DeterminerRole" target="_top">
<polygon fill="#eeefff" stroke="#dddeee" points="423.7,-775 319.95,-775 319.95,-739 423.7,-739 423.7,-775"/>
<text text-anchor="middle" x="371.83" y="-751.95" font-family="Times,serif" font-size="14.00">DeterminerRole</text>
</a>
</g>
</g>
<!-- EditorRole -->
<g id="node11" class="node">
<title>EditorRole</title>
<g id="a_node11"><a xlink:href="/develop/Data/models.html#editor-role" xlink:title="EditorRole" target="_top">
<polygon fill="#eeefff" stroke="#dddeee" points="409.45,-721 334.2,-721 334.2,-685 409.45,-685 409.45,-721"/>
<text text-anchor="middle" x="371.83" y="-697.95" font-family="Times,serif" font-size="14.00">EditorRole</text>
</a>
</g>
</g>
<!-- EditedSource -->
<g id="node12" class="node">
<title>EditedSource</title>
<g id="a_node12"><a xlink:href="/develop/Data/models.html#edited-source" xlink:title="EditedSource" target="_top">
<polygon fill="#eeefff" stroke="#dddeee" points="593.08,-721 504.33,-721 504.33,-685 593.08,-685 593.08,-721"/>
<text text-anchor="middle" x="548.7" y="-697.95" font-family="Times,serif" font-size="14.00">EditedSource</text>
</a>
</g>
</g>
<!-- GeoreferencerRole -->
<g id="node13" class="node">
<title>GeoreferencerRole</title>
<g id="a_node13"><a xlink:href="/develop/Data/models.html#georeferencer-role" xlink:title="GeoreferencerRole" target="_top">
<polygon fill="#eeefff" stroke="#dddeee" points="431.2,-667 312.45,-667 312.45,-631 431.2,-631 431.2,-667"/>
<text text-anchor="middle" x="371.83" y="-643.95" font-family="Times,serif" font-size="14.00">GeoreferencerRole</text>
</a>
</g>
</g>
<!-- Georeference -->
<g id="node14" class="node">
<title>Georeference</title>
<g id="a_node14"><a xlink:href="/develop/Data/models.html#georeference" xlink:title="Georeference" target="_top">
<polygon fill="#eeefff" stroke="#dddeee" points="593.08,-667 504.33,-667 504.33,-631 593.08,-631 593.08,-667"/>
<text text-anchor="middle" x="548.7" y="-643.95" font-family="Times,serif" font-size="14.00">Georeference</text>
</a>
</g>
</g>
<!-- SourceRole -->
<g id="node15" class="node">
<title>SourceRole</title>
<g id="a_node15"><a xlink:href="/develop/Data/models.html#source-role" xlink:title="SourceRole" target="_top">
<polygon fill="#eeefff" stroke="#dddeee" points="411.33,-613 332.33,-613 332.33,-577 411.33,-577 411.33,-613"/>
<text text-anchor="middle" x="371.83" y="-589.95" font-family="Times,serif" font-size="14.00">SourceRole</text>
</a>
</g>
</g>
<!-- HumanSource -->
<g id="node16" class="node">
<title>HumanSource</title>
<g id="a_node16"><a xlink:href="/develop/Data/models.html#human-source" xlink:title="HumanSource" target="_top">
<polygon fill="#eeefff" stroke="#dddeee" points="595.7,-613 501.7,-613 501.7,-577 595.7,-577 595.7,-613"/>
<text text-anchor="middle" x="548.7" y="-589.95" font-family="Times,serif" font-size="14.00">HumanSource</text>
</a>
</g>
</g>
<!-- PinboardItem -->
<g id="node17" class="node">
<title>PinboardItem</title>
<g id="a_node17"><a xlink:href="/develop/Data/models.html#pinboard-item" xlink:title="PinboardItem" target="_top">
<polygon fill="#eeefff" stroke="#dddeee" points="416.95,-559 326.7,-559 326.7,-523 416.95,-523 416.95,-559"/>
<text text-anchor="middle" x="371.83" y="-535.95" font-family="Times,serif" font-size="14.00">PinboardItem</text>
</a>
</g>
</g>
<!-- Role -->
<g id="node18" class="node">
<title>Role</title>
<g id="a_node18"><a xlink:href="/develop/Data/models.html#role" xlink:title="Role" target="_top">
<polygon fill="#eeefff" stroke="#dddeee" points="398.83,-505 344.83,-505 344.83,-469 398.83,-469 398.83,-505"/>
<text text-anchor="middle" x="371.83" y="-481.95" font-family="Times,serif" font-size="14.00">Role</text>
</a>
</g>
</g>
<!-- TaxonDetermination -->
<g id="node19" class="node">
<title>TaxonDetermination</title>
<g id="a_node19"><a xlink:href="/develop/Data/models.html#taxon-determination" xlink:title="TaxonDetermination" target="_top">
<polygon fill="#eeefff" stroke="#dddeee" points="613.33,-775 484.08,-775 484.08,-739 613.33,-739 613.33,-775"/>
<text text-anchor="middle" x="548.7" y="-751.95" font-family="Times,serif" font-size="14.00">TaxonDetermination</text>
</a>
</g>
</g>
<!-- Uri -->
<g id="node20" class="node">
<title>Uri</title>
<g id="a_node20"><a xlink:href="/develop/Data/models.html#uri" xlink:title="Uri" target="_top">
<polygon fill="#eeefff" stroke="#dddeee" points="398.83,-451 344.83,-451 344.83,-415 398.83,-415 398.83,-451"/>
<text text-anchor="middle" x="371.83" y="-427.95" font-family="Times,serif" font-size="14.00">Uri</text>
</a>
</g>
</g>
<!-- Uuid -->
<g id="node21" class="node">
<title>Uuid</title>
<g id="a_node21"><a xlink:href="/develop/Data/models.html#uuid" xlink:title="Uuid" target="_top">
<polygon fill="#eeefff" stroke="#dddeee" points="398.83,-397 344.83,-397 344.83,-361 398.83,-361 398.83,-397"/>
<text text-anchor="middle" x="371.83" y="-373.95" font-family="Times,serif" font-size="14.00">Uuid</text>
</a>
</g>
</g>
<!-- VerifierRole -->
<g id="node22" class="node">
<title>VerifierRole</title>
<g id="a_node22"><a xlink:href="/develop/Data/models.html#verifier-role" xlink:title="VerifierRole" target="_top">
<polygon fill="#eeefff" stroke="#dddeee" points="413.2,-343 330.45,-343 330.45,-307 413.2,-307 413.2,-343"/>
<text text-anchor="middle" x="371.83" y="-319.95" font-family="Times,serif" font-size="14.00">VerifierRole</text>
</a>
</g>
</g>
<!-- Verifier -->
<g id="node23" class="node">
<title>Verifier</title>
<g id="a_node23"><a xlink:href="/develop/Data/models.html#verifier" xlink:title="Verifier" target="_top">
<polygon fill="#eeefff" stroke="#dddeee" points="577.33,-424 520.08,-424 520.08,-388 577.33,-388 577.33,-424"/>
<text text-anchor="middle" x="548.7" y="-400.95" font-family="Times,serif" font-size="14.00">Verifier</text>
</a>
</g>
</g>
<!-- AreaServed -->
<g id="node24" class="node">
<title>AreaServed</title>
<g id="a_node24"><a xlink:href="/develop/Data/models.html#area-served" xlink:title="AreaServed" target="_top">
<polygon fill="#eeefff" stroke="#dddeee" points="411.7,-289 331.95,-289 331.95,-253 411.7,-253 411.7,-289"/>
<text text-anchor="middle" x="371.83" y="-265.95" font-family="Times,serif" font-size="14.00">AreaServed</text>
</a>
</g>
</g>
<!-- Creator -->
<g id="node25" class="node">
<title>Creator</title>
<g id="a_node25"><a xlink:href="/develop/Data/models.html#creator" xlink:title="Creator" target="_top">
<polygon fill="#eeefff" stroke="#dddeee" points="400.08,-235 343.58,-235 343.58,-199 400.08,-199 400.08,-235"/>
<text text-anchor="middle" x="371.83" y="-211.95" font-family="Times,serif" font-size="14.00">Creator</text>
</a>
</g>
</g>
<!-- Department -->
<g id="node26" class="node">
<title>Department</title>
<g id="a_node26"><a xlink:href="/develop/Data/models.html#department" xlink:title="Department" target="_top">
<polygon fill="#eeefff" stroke="#dddeee" points="412.08,-181 331.58,-181 331.58,-145 412.08,-145 412.08,-181"/>
<text text-anchor="middle" x="371.83" y="-157.95" font-family="Times,serif" font-size="14.00">Department</text>
</a>
</g>
</g>
<!-- ParentOrganization -->
<g id="node27" class="node">
<title>ParentOrganization</title>
<g id="a_node27"><a xlink:href="/develop/Data/models.html#parent-organization" xlink:title="ParentOrganization" target="_top">
<polygon fill="#eeefff" stroke="#dddeee" points="432.33,-127 311.33,-127 311.33,-91 432.33,-91 432.33,-127"/>
<text text-anchor="middle" x="371.83" y="-103.95" font-family="Times,serif" font-size="14.00">ParentOrganization</text>
</a>
</g>
</g>
<!-- SameA -->
<g id="node28" class="node">
<title>SameA</title>
<g id="a_node28"><a xlink:href="/develop/Data/models.html#same-a" xlink:title="SameA" target="_top">
<polygon fill="#eeefff" stroke="#dddeee" points="400.08,-73 343.58,-73 343.58,-37 400.08,-37 400.08,-73"/>
<text text-anchor="middle" x="371.83" y="-49.95" font-family="Times,serif" font-size="14.00">SameA</text>
</a>
</g>
</g>
<!-- Updater -->
<g id="node29" class="node">
<title>Updater</title>
<g id="a_node29"><a xlink:href="/develop/Data/models.html#updater" xlink:title="Updater" target="_top">
<polygon fill="#eeefff" stroke="#dddeee" points="578.45,-235 518.95,-235 518.95,-199 578.45,-199 578.45,-235"/>
<text text-anchor="middle" x="548.7" y="-211.95" font-family="Times,serif" font-size="14.00">Updater</text>
</a>
</g>
</g>
</g>
</svg>
