<?xml version="1.0" encoding="UTF-8" standalone="no"?>
<!DOCTYPE svg PUBLIC "-//W3C//DTD SVG 1.1//EN"
 "http://www.w3.org/Graphics/SVG/1.1/DTD/svg11.dtd">
<!-- Generated by graphviz version 12.2.1 (20241206.2353)
 -->
<!-- Title: OriginRelationship Pages: 1 -->
<svg width="727pt" height="336pt"
 viewBox="0.00 0.00 727.35 336.00" xmlns="http://www.w3.org/2000/svg" xmlns:xlink="http://www.w3.org/1999/xlink">
<g id="graph0" class="graph" transform="scale(1 1) rotate(0) translate(4 332)">
<title>OriginRelationship</title>
<polygon fill="white" stroke="none" points="-4,4 -4,-332 723.35,-332 723.35,4 -4,4"/>
<!-- OriginRelationship&#45;&gt;PinboardItem -->
<g id="edge1" class="edge">
<title>OriginRelationship&#45;&gt;PinboardItem</title>
<path fill="none" stroke="black" d="M108.68,-178.29C130.15,-207.44 171.92,-257.76 220.53,-283 250.77,-298.7 288.37,-305.49 318.85,-308.34"/>
<polygon fill="black" stroke="black" points="318.4,-311.82 328.64,-309.13 318.96,-304.84 318.4,-311.82"/>
</g>
<!-- OriginRelationship&#45;&gt;Role -->
<g id="edge2" class="edge">
<title>OriginRelationship&#45;&gt;Role</title>
<path fill="none" stroke="black" d="M124.97,-178.35C149.84,-194.83 185.92,-216.48 220.53,-229 258.79,-242.84 305.04,-249.73 336.82,-253.06"/>
<polygon fill="black" stroke="black" points="336.44,-256.54 346.73,-254.03 337.12,-249.58 336.44,-256.54"/>
</g>
<!-- OriginRelationship&#45;&gt;VerifierRole -->
<g id="edge3" class="edge">
<title>OriginRelationship&#45;&gt;VerifierRole</title>
<path fill="none" stroke="black" d="M174.25,-169.24C222.03,-177.06 281.07,-186.71 322.64,-193.51"/>
<polygon fill="black" stroke="black" points="321.95,-196.94 332.38,-195.1 323.08,-190.03 321.95,-196.94"/>
</g>
<!-- OriginRelationship&#45;&gt;Creator -->
<g id="edge5" class="edge">
<title>OriginRelationship&#45;&gt;Creator</title>
<path fill="none" stroke="black" stroke-dasharray="5,2" d="M196.22,-161.78C285.72,-164.39 418.29,-162.4 530.6,-137 542.89,-134.22 555.81,-129.18 566.76,-124.2"/>
<polygon fill="black" stroke="black" points="196.6,-158.29 186.49,-161.47 196.37,-165.29 196.6,-158.29"/>
</g>
<!-- OriginRelationship&#45;&gt;Project -->
<g id="edge7" class="edge">
<title>OriginRelationship&#45;&gt;Project</title>
<path fill="none" stroke="black" stroke-dasharray="5,2" d="M185.46,-140.92C242.34,-131.62 311.28,-120.35 348.19,-114.31"/>
<polygon fill="black" stroke="black" points="185.05,-137.44 175.75,-142.51 186.18,-144.35 185.05,-137.44"/>
</g>
<!-- OriginRelationship&#45;&gt;Updater -->
<g id="edge8" class="edge">
<title>OriginRelationship&#45;&gt;Updater</title>
<path fill="none" stroke="black" stroke-dasharray="5,2" d="M131.3,-127.13C155.45,-110.66 188.16,-91.63 220.53,-83 393.74,-36.85 448.09,-47.82 623.85,-83 635.92,-85.41 648.54,-90.13 659.4,-94.95"/>
<polygon fill="black" stroke="black" points="129.59,-124.06 123.4,-132.66 133.6,-129.79 129.59,-124.06"/>
</g>
<!-- OriginRelationship&#45;&gt;Objects with Origin relationships -->
<g id="edge6" class="edge">
<title>OriginRelationship&#45;&gt;Objects with Origin relationships</title>
<path fill="none" stroke="black" stroke-dasharray="5,2" d="M121.4,-125.44C145.42,-101.25 182.08,-68.56 220.53,-50 237.51,-41.81 256.52,-35.71 275.24,-31.17"/>
<polygon fill="black" stroke="black" points="118.98,-122.91 114.51,-132.52 124,-127.79 118.98,-122.91"/>
</g>
<!-- Role&#45;&gt;Verifier -->
<!-- VerifierRole&#45;&gt;Verifier -->
<g id="edge4" class="edge">
<title>VerifierRole&#45;&gt;Verifier</title>
<path fill="none" stroke="black" stroke-dasharray="1,5" d="M417.25,-207.05C456.62,-211.93 515.88,-219.28 554.81,-224.11"/>
<polygon fill="black" stroke="black" points="554.34,-227.58 564.69,-225.34 555.2,-220.63 554.34,-227.58"/>
</g>
<!-- Creator&#45;&gt;Updater -->
<!-- Project&#45;&gt;Creator -->
<!-- OriginRelationship -->
<g id="node1" class="node">
<title>OriginRelationship</title>
<g id="a_node1"><a xlink:href="/develop/Data/models.html#origin-relationship" xlink:title="OriginRelationship" target="_top">
<polygon fill="#cdefab" stroke="#dedede" points="180.53,-148.54 180.53,-163.46 128.83,-174 55.71,-174 4,-163.46 4,-148.54 55.71,-138 128.83,-138 180.53,-148.54"/>
<polygon fill="none" stroke="#dedede" points="184.53,-145.28 184.53,-166.72 129.23,-178 55.3,-178 0,-166.72 0,-145.28 55.3,-134 129.23,-134 184.53,-145.28"/>
<text text-anchor="middle" x="92.27" y="-150.95" font-family="Times,serif" font-size="14.00">OriginRelationship</text>
</a>
</g>
</g>
<!-- PinboardItem -->
<g id="node2" class="node">
<title>PinboardItem</title>
<g id="a_node2"><a xlink:href="/develop/Data/models.html#pinboard-item" xlink:title="PinboardItem" target="_top">
<polygon fill="#eeefff" stroke="#dddeee" points="420.69,-328 330.44,-328 330.44,-292 420.69,-292 420.69,-328"/>
<text text-anchor="middle" x="375.57" y="-304.95" font-family="Times,serif" font-size="14.00">PinboardItem</text>
</a>
</g>
</g>
<!-- Role -->
<g id="node3" class="node">
<title>Role</title>
<g id="a_node3"><a xlink:href="/develop/Data/models.html#role" xlink:title="Role" target="_top">
<polygon fill="#eeefff" stroke="#dddeee" points="402.57,-274 348.57,-274 348.57,-238 402.57,-238 402.57,-274"/>
<text text-anchor="middle" x="375.57" y="-250.95" font-family="Times,serif" font-size="14.00">Role</text>
</a>
</g>
</g>
<!-- VerifierRole -->
<g id="node4" class="node">
<title>VerifierRole</title>
<g id="a_node4"><a xlink:href="/develop/Data/models.html#verifier-role" xlink:title="VerifierRole" target="_top">
<polygon fill="#eeefff" stroke="#dddeee" points="416.94,-220 334.19,-220 334.19,-184 416.94,-184 416.94,-220"/>
<text text-anchor="middle" x="375.57" y="-196.95" font-family="Times,serif" font-size="14.00">VerifierRole</text>
</a>
</g>
</g>
<!-- Verifier -->
<g id="node5" class="node">
<title>Verifier</title>
<g id="a_node5"><a xlink:href="/develop/Data/models.html#verifier" xlink:title="Verifier" target="_top">
<polygon fill="#eeefff" stroke="#dddeee" points="623.85,-247 566.6,-247 566.6,-211 623.85,-211 623.85,-247"/>
<text text-anchor="middle" x="595.23" y="-223.95" font-family="Times,serif" font-size="14.00">Verifier</text>
</a>
</g>
</g>
<!-- Creator -->
<g id="node6" class="node">
<title>Creator</title>
<g id="a_node6"><a xlink:href="/develop/Data/models.html#creator" xlink:title="Creator" target="_top">
<polygon fill="#eeefff" stroke="#dddeee" points="623.48,-128 566.98,-128 566.98,-92 623.48,-92 623.48,-128"/>
<text text-anchor="middle" x="595.23" y="-104.95" font-family="Times,serif" font-size="14.00">Creator</text>
</a>
</g>
</g>
<!-- Project -->
<g id="node7" class="node">
<title>Project</title>
<g id="a_node7"><a xlink:href="/develop/Data/models.html#project" xlink:title="Project" target="_top">
<polygon fill="#eeefff" stroke="#dddeee" points="402.69,-128 348.44,-128 348.44,-92 402.69,-92 402.69,-128"/>
<text text-anchor="middle" x="375.57" y="-104.95" font-family="Times,serif" font-size="14.00">Project</text>
</a>
</g>
</g>
<!-- Updater -->
<g id="node8" class="node">
<title>Updater</title>
<g id="a_node8"><a xlink:href="/develop/Data/models.html#updater" xlink:title="Updater" target="_top">
<polygon fill="#eeefff" stroke="#dddeee" points="719.35,-128 659.85,-128 659.85,-92 719.35,-92 719.35,-128"/>
<text text-anchor="middle" x="689.6" y="-104.95" font-family="Times,serif" font-size="14.00">Updater</text>
</a>
</g>
</g>
<!-- Objects with Origin relationships -->
<g id="node9" class="node">
<title>Objects with Origin relationships</title>
<g id="a_node9"><a xlink:href="/develop/Data/models.html#objects with origin relationship" xlink:title="Objects with Origin relationships" target="_top">
<polygon fill="#cdabef" stroke="#dedede" points="530.6,-18 453.09,-36 298.05,-36 220.53,-18 298.05,0 453.09,0 530.6,-18"/>
<text text-anchor="middle" x="375.57" y="-12.95" font-family="Times,serif" font-size="14.00">Objects with Origin relationships</text>
</a>
</g>
</g>
</g>
</svg>
