<?xml version="1.0" encoding="UTF-8" standalone="no"?>
<!DOCTYPE svg PUBLIC "-//W3C//DTD SVG 1.1//EN"
 "http://www.w3.org/Graphics/SVG/1.1/DTD/svg11.dtd">
<!-- Generated by graphviz version 2.50.0 (20211204.2007)
 -->
<!-- Title: OriginRelationship Pages: 1 -->
<svg width="706pt" height="336pt"
 viewBox="0.00 0.00 705.53 336.00" xmlns="http://www.w3.org/2000/svg" xmlns:xlink="http://www.w3.org/1999/xlink">
<g id="graph0" class="graph" transform="scale(1 1) rotate(0) translate(4 332)">
<title>OriginRelationship</title>
<polygon fill="white" stroke="transparent" points="-4,4 -4,-332 701.53,-332 701.53,4 -4,4"/>
<!-- OriginRelationship&#45;&gt;PinboardItem -->
<g id="edge1" class="edge">
<title>OriginRelationship&#45;&gt;PinboardItem</title>
<path fill="none" stroke="black" d="M104.24,-178.23C124.91,-207.32 165.25,-257.57 212.84,-283 240.94,-298.02 275.9,-304.84 304.67,-307.87"/>
<polygon fill="black" stroke="black" points="304.68,-311.39 314.96,-308.82 305.32,-304.42 304.68,-311.39"/>
</g>
<!-- OriginRelationship&#45;&gt;Role -->
<g id="edge2" class="edge">
<title>OriginRelationship&#45;&gt;Role</title>
<path fill="none" stroke="black" d="M119.84,-178.14C143.92,-194.61 179.03,-216.35 212.84,-229 249.11,-242.57 293.05,-249.5 323.36,-252.91"/>
<polygon fill="black" stroke="black" points="323.17,-256.41 333.48,-253.98 323.9,-249.45 323.17,-256.41"/>
</g>
<!-- OriginRelationship&#45;&gt;VerifierRole -->
<g id="edge3" class="edge">
<title>OriginRelationship&#45;&gt;VerifierRole</title>
<path fill="none" stroke="black" d="M166.14,-169.06C211.94,-176.85 268.82,-186.53 309.03,-193.38"/>
<polygon fill="black" stroke="black" points="308.69,-196.87 319.14,-195.1 309.87,-189.97 308.69,-196.87"/>
</g>
<!-- OriginRelationship&#45;&gt;Creator -->
<g id="edge5" class="edge">
<title>OriginRelationship&#45;&gt;Creator</title>
<path fill="none" stroke="black" stroke-dasharray="5,2" d="M187.16,-161.3C272.95,-163.65 400.53,-161.57 508.53,-137 520.68,-134.24 533.44,-129.26 544.3,-124.33"/>
<polygon fill="black" stroke="black" points="187.01,-157.79 176.91,-160.99 186.8,-164.79 187.01,-157.79"/>
</g>
<!-- OriginRelationship&#45;&gt;Project -->
<g id="edge7" class="edge">
<title>OriginRelationship&#45;&gt;Project</title>
<path fill="none" stroke="black" stroke-dasharray="5,2" d="M176.15,-141.24C230.56,-131.98 297.03,-120.66 333.17,-114.51"/>
<polygon fill="black" stroke="black" points="175.41,-137.81 166.14,-142.94 176.59,-144.71 175.41,-137.81"/>
</g>
<!-- OriginRelationship&#45;&gt;Updater -->
<g id="edge8" class="edge">
<title>OriginRelationship&#45;&gt;Updater</title>
<path fill="none" stroke="black" stroke-dasharray="5,2" d="M125.08,-127.91C148.55,-111.27 180.76,-91.78 212.84,-83 379.47,-37.41 432.11,-49.21 601.53,-83 613.63,-85.41 626.3,-90.13 637.21,-94.95"/>
<polygon fill="black" stroke="black" points="122.89,-125.18 116.85,-133.89 127,-130.85 122.89,-125.18"/>
</g>
<!-- OriginRelationship&#45;&gt;Objects with Origin relationships -->
<g id="edge6" class="edge">
<title>OriginRelationship&#45;&gt;Objects with Origin relationships</title>
<path fill="none" stroke="black" stroke-dasharray="5,2" d="M115.97,-126.14C139.16,-101.94 174.97,-68.86 212.84,-50 229.42,-41.74 248.1,-35.6 266.44,-31.04"/>
<polygon fill="black" stroke="black" points="113.2,-123.98 108.89,-133.66 118.3,-128.78 113.2,-123.98"/>
</g>
<!-- Role&#45;&gt;Verifier -->
<!-- VerifierRole&#45;&gt;Verifier -->
<g id="edge4" class="edge">
<title>VerifierRole&#45;&gt;Verifier</title>
<path fill="none" stroke="black" d="M402.24,-207.21C440.43,-212.11 497.19,-219.39 534.4,-224.17"/>
<polygon fill="black" stroke="black" points="533.98,-227.64 544.34,-225.45 534.87,-220.7 533.98,-227.64"/>
</g>
<!-- Creator&#45;&gt;Updater -->
<!-- Project&#45;&gt;Creator -->
<!-- OriginRelationship -->
<g id="node1" class="node">
<title>OriginRelationship</title>
<g id="a_node1"><a xlink:href="/develop/Data/models.html#origin-relationship" xlink:title="OriginRelationship" target="_top">
<polygon fill="#cdefab" stroke="#dedede" points="172.76,-148.54 172.76,-163.46 123.35,-174 53.48,-174 4.08,-163.46 4.08,-148.54 53.48,-138 123.35,-138 172.76,-148.54"/>
<polygon fill="none" stroke="#dedede" points="176.76,-145.31 176.76,-166.69 123.78,-178 53.06,-178 0.08,-166.69 0.08,-145.31 53.06,-134 123.78,-134 176.76,-145.31"/>
<text text-anchor="middle" x="88.42" y="-152.3" font-family="Times,serif" font-size="14.00">OriginRelationship</text>
</a>
</g>
</g>
<!-- PinboardItem -->
<g id="node2" class="node">
<title>PinboardItem</title>
<g id="a_node2"><a xlink:href="/develop/Data/models.html#pinboard-item" xlink:title="PinboardItem" target="_top">
<polygon fill="#eeefff" stroke="#dddeee" points="406.18,-328 315.18,-328 315.18,-292 406.18,-292 406.18,-328"/>
<text text-anchor="middle" x="360.68" y="-306.3" font-family="Times,serif" font-size="14.00">PinboardItem</text>
</a>
</g>
</g>
<!-- Role -->
<g id="node3" class="node">
<title>Role</title>
<g id="a_node3"><a xlink:href="/develop/Data/models.html#role" xlink:title="Role" target="_top">
<polygon fill="#eeefff" stroke="#dddeee" points="387.68,-274 333.68,-274 333.68,-238 387.68,-238 387.68,-274"/>
<text text-anchor="middle" x="360.68" y="-252.3" font-family="Times,serif" font-size="14.00">Role</text>
</a>
</g>
</g>
<!-- VerifierRole -->
<g id="node4" class="node">
<title>VerifierRole</title>
<g id="a_node4"><a xlink:href="/develop/Data/models.html#verifier-role" xlink:title="VerifierRole" target="_top">
<polygon fill="#eeefff" stroke="#dddeee" points="402.18,-220 319.18,-220 319.18,-184 402.18,-184 402.18,-220"/>
<text text-anchor="middle" x="360.68" y="-198.3" font-family="Times,serif" font-size="14.00">VerifierRole</text>
</a>
</g>
</g>
<!-- Verifier -->
<g id="node5" class="node">
<title>Verifier</title>
<g id="a_node5"><a xlink:href="/develop/Data/models.html#verifier" xlink:title="Verifier" target="_top">
<polygon fill="#eeefff" stroke="#dddeee" points="601.53,-247 544.53,-247 544.53,-211 601.53,-211 601.53,-247"/>
<text text-anchor="middle" x="573.03" y="-225.3" font-family="Times,serif" font-size="14.00">Verifier</text>
</a>
</g>
</g>
<!-- Creator -->
<g id="node6" class="node">
<title>Creator</title>
<g id="a_node6"><a xlink:href="/develop/Data/models.html#creator" xlink:title="Creator" target="_top">
<polygon fill="#eeefff" stroke="#dddeee" points="601.53,-128 544.53,-128 544.53,-92 601.53,-92 601.53,-128"/>
<text text-anchor="middle" x="573.03" y="-106.3" font-family="Times,serif" font-size="14.00">Creator</text>
</a>
</g>
</g>
<!-- Project -->
<g id="node7" class="node">
<title>Project</title>
<g id="a_node7"><a xlink:href="/develop/Data/models.html#project" xlink:title="Project" target="_top">
<polygon fill="#eeefff" stroke="#dddeee" points="388.18,-128 333.18,-128 333.18,-92 388.18,-92 388.18,-128"/>
<text text-anchor="middle" x="360.68" y="-106.3" font-family="Times,serif" font-size="14.00">Project</text>
</a>
</g>
</g>
<!-- Updater -->
<g id="node8" class="node">
<title>Updater</title>
<g id="a_node8"><a xlink:href="/develop/Data/models.html#updater" xlink:title="Updater" target="_top">
<polygon fill="#eeefff" stroke="#dddeee" points="697.53,-128 637.53,-128 637.53,-92 697.53,-92 697.53,-128"/>
<text text-anchor="middle" x="667.53" y="-106.3" font-family="Times,serif" font-size="14.00">Updater</text>
</a>
</g>
</g>
<!-- Objects with Origin relationships -->
<g id="node9" class="node">
<title>Objects with Origin relationships</title>
<g id="a_node9"><a xlink:href="/develop/Data/models.html#objects with origin relationship" xlink:title="Objects with Origin relationships" target="_top">
<polygon fill="#cdabef" stroke="#dedede" points="508.38,-18 434.53,-36 286.84,-36 212.99,-18 286.84,0 434.53,0 508.38,-18"/>
<text text-anchor="middle" x="360.68" y="-14.3" font-family="Times,serif" font-size="14.00">Objects with Origin relationships</text>
</a>
</g>
</g>
</g>
</svg>
