<?xml version="1.0" encoding="UTF-8" standalone="no"?>
<!DOCTYPE svg PUBLIC "-//W3C//DTD SVG 1.1//EN"
 "http://www.w3.org/Graphics/SVG/1.1/DTD/svg11.dtd">
<!-- Generated by graphviz version 2.50.0 (20211204.2007)
 -->
<!-- Title: OriginRelationship Pages: 1 -->
<svg width="706pt" height="374pt"
 viewBox="0.00 0.00 705.53 374.00" xmlns="http://www.w3.org/2000/svg" xmlns:xlink="http://www.w3.org/1999/xlink">
<g id="graph0" class="graph" transform="scale(1 1) rotate(0) translate(4 370)">
<title>OriginRelationship</title>
<polygon fill="white" stroke="transparent" points="-4,4 -4,-370 701.53,-370 701.53,4 -4,4"/>
<text text-anchor="middle" x="348.77" y="-22.8" font-family="Times,serif" font-size="14.00">Algorithmically generated relationships for OriginRelationship based on assertions of &#39;has_many&#39;, &#39;has_one&#39;, &#39;belongs_to&#39;. </text>
<text text-anchor="middle" x="348.77" y="-7.8" font-family="Times,serif" font-size="14.00">Generated 2022&#45;01&#45;25 11:43:31 &#45;0600.</text>
<!-- OriginRelationship&#45;&gt;PinboardItem -->
<g id="edge1" class="edge">
<title>OriginRelationship&#45;&gt;PinboardItem</title>
<path fill="none" stroke="black" d="M104.24,-216.23C124.91,-245.32 165.25,-295.57 212.84,-321 240.94,-336.02 275.9,-342.84 304.67,-345.87"/>
<polygon fill="black" stroke="black" points="304.68,-349.39 314.96,-346.82 305.32,-342.42 304.68,-349.39"/>
</g>
<!-- OriginRelationship&#45;&gt;Role -->
<g id="edge2" class="edge">
<title>OriginRelationship&#45;&gt;Role</title>
<path fill="none" stroke="black" d="M119.84,-216.14C143.92,-232.61 179.03,-254.35 212.84,-267 249.11,-280.57 293.05,-287.5 323.36,-290.91"/>
<polygon fill="black" stroke="black" points="323.17,-294.41 333.48,-291.98 323.9,-287.45 323.17,-294.41"/>
</g>
<!-- OriginRelationship&#45;&gt;VerifierRole -->
<g id="edge3" class="edge">
<title>OriginRelationship&#45;&gt;VerifierRole</title>
<path fill="none" stroke="black" d="M166.14,-207.06C211.94,-214.85 268.82,-224.53 309.03,-231.38"/>
<polygon fill="black" stroke="black" points="308.69,-234.87 319.14,-233.1 309.87,-227.97 308.69,-234.87"/>
</g>
<!-- OriginRelationship&#45;&gt;Creator -->
<g id="edge5" class="edge">
<title>OriginRelationship&#45;&gt;Creator</title>
<path fill="none" stroke="black" stroke-dasharray="5,2" d="M187.16,-199.3C272.95,-201.65 400.53,-199.57 508.53,-175 520.68,-172.24 533.44,-167.26 544.3,-162.33"/>
<polygon fill="black" stroke="black" points="187.01,-195.79 176.91,-198.99 186.8,-202.79 187.01,-195.79"/>
</g>
<!-- OriginRelationship&#45;&gt;Project -->
<g id="edge7" class="edge">
<title>OriginRelationship&#45;&gt;Project</title>
<path fill="none" stroke="black" stroke-dasharray="5,2" d="M176.15,-179.24C230.56,-169.98 297.03,-158.66 333.17,-152.51"/>
<polygon fill="black" stroke="black" points="175.41,-175.81 166.14,-180.94 176.59,-182.71 175.41,-175.81"/>
</g>
<!-- OriginRelationship&#45;&gt;Updater -->
<g id="edge8" class="edge">
<title>OriginRelationship&#45;&gt;Updater</title>
<path fill="none" stroke="black" stroke-dasharray="5,2" d="M125.08,-165.91C148.55,-149.27 180.76,-129.78 212.84,-121 379.47,-75.41 432.11,-87.21 601.53,-121 613.63,-123.41 626.3,-128.13 637.21,-132.95"/>
<polygon fill="black" stroke="black" points="122.89,-163.18 116.85,-171.89 127,-168.85 122.89,-163.18"/>
</g>
<!-- OriginRelationship&#45;&gt;Objects with Origin relationships -->
<g id="edge6" class="edge">
<title>OriginRelationship&#45;&gt;Objects with Origin relationships</title>
<path fill="none" stroke="black" stroke-dasharray="5,2" d="M115.97,-164.14C139.16,-139.94 174.97,-106.86 212.84,-88 229.42,-79.74 248.1,-73.6 266.44,-69.04"/>
<polygon fill="black" stroke="black" points="113.2,-161.98 108.89,-171.66 118.3,-166.78 113.2,-161.98"/>
</g>
<!-- Role&#45;&gt;Verifier -->
<!-- VerifierRole&#45;&gt;Verifier -->
<g id="edge4" class="edge">
<title>VerifierRole&#45;&gt;Verifier</title>
<path fill="none" stroke="black" d="M402.24,-245.21C440.43,-250.11 497.19,-257.39 534.4,-262.17"/>
<polygon fill="black" stroke="black" points="533.98,-265.64 544.34,-263.45 534.87,-258.7 533.98,-265.64"/>
</g>
<!-- Creator&#45;&gt;Updater -->
<!-- Project&#45;&gt;Creator -->
<!-- OriginRelationship -->
<g id="node1" class="node">
<title>OriginRelationship</title>
<g id="a_node1"><a xlink:href="/develop/Data/models.html#origin-relationship" xlink:title="OriginRelationship" target="_top">
<polygon fill="#cdefab" stroke="#dedede" points="172.76,-186.54 172.76,-201.46 123.35,-212 53.48,-212 4.08,-201.46 4.08,-186.54 53.48,-176 123.35,-176 172.76,-186.54"/>
<polygon fill="none" stroke="#dedede" points="176.76,-183.31 176.76,-204.69 123.78,-216 53.06,-216 0.08,-204.69 0.08,-183.31 53.06,-172 123.78,-172 176.76,-183.31"/>
<text text-anchor="middle" x="88.42" y="-190.3" font-family="Times,serif" font-size="14.00">OriginRelationship</text>
</a>
</g>
</g>
<!-- PinboardItem -->
<g id="node2" class="node">
<title>PinboardItem</title>
<g id="a_node2"><a xlink:href="/develop/Data/models.html#pinboard-item" xlink:title="PinboardItem" target="_top">
<polygon fill="#eeefff" stroke="#dddeee" points="406.18,-366 315.18,-366 315.18,-330 406.18,-330 406.18,-366"/>
<text text-anchor="middle" x="360.68" y="-344.3" font-family="Times,serif" font-size="14.00">PinboardItem</text>
</a>
</g>
</g>
<!-- Role -->
<g id="node3" class="node">
<title>Role</title>
<g id="a_node3"><a xlink:href="/develop/Data/models.html#role" xlink:title="Role" target="_top">
<polygon fill="#eeefff" stroke="#dddeee" points="387.68,-312 333.68,-312 333.68,-276 387.68,-276 387.68,-312"/>
<text text-anchor="middle" x="360.68" y="-290.3" font-family="Times,serif" font-size="14.00">Role</text>
</a>
</g>
</g>
<!-- VerifierRole -->
<g id="node4" class="node">
<title>VerifierRole</title>
<g id="a_node4"><a xlink:href="/develop/Data/models.html#verifier-role" xlink:title="VerifierRole" target="_top">
<polygon fill="#eeefff" stroke="#dddeee" points="402.18,-258 319.18,-258 319.18,-222 402.18,-222 402.18,-258"/>
<text text-anchor="middle" x="360.68" y="-236.3" font-family="Times,serif" font-size="14.00">VerifierRole</text>
</a>
</g>
</g>
<!-- Verifier -->
<g id="node5" class="node">
<title>Verifier</title>
<g id="a_node5"><a xlink:href="/develop/Data/models.html#verifier" xlink:title="Verifier" target="_top">
<polygon fill="#eeefff" stroke="#dddeee" points="601.53,-285 544.53,-285 544.53,-249 601.53,-249 601.53,-285"/>
<text text-anchor="middle" x="573.03" y="-263.3" font-family="Times,serif" font-size="14.00">Verifier</text>
</a>
</g>
</g>
<!-- Creator -->
<g id="node6" class="node">
<title>Creator</title>
<g id="a_node6"><a xlink:href="/develop/Data/models.html#creator" xlink:title="Creator" target="_top">
<polygon fill="#eeefff" stroke="#dddeee" points="601.53,-166 544.53,-166 544.53,-130 601.53,-130 601.53,-166"/>
<text text-anchor="middle" x="573.03" y="-144.3" font-family="Times,serif" font-size="14.00">Creator</text>
</a>
</g>
</g>
<!-- Project -->
<g id="node7" class="node">
<title>Project</title>
<g id="a_node7"><a xlink:href="/develop/Data/models.html#project" xlink:title="Project" target="_top">
<polygon fill="#eeefff" stroke="#dddeee" points="388.18,-166 333.18,-166 333.18,-130 388.18,-130 388.18,-166"/>
<text text-anchor="middle" x="360.68" y="-144.3" font-family="Times,serif" font-size="14.00">Project</text>
</a>
</g>
</g>
<!-- Updater -->
<g id="node8" class="node">
<title>Updater</title>
<g id="a_node8"><a xlink:href="/develop/Data/models.html#updater" xlink:title="Updater" target="_top">
<polygon fill="#eeefff" stroke="#dddeee" points="697.53,-166 637.53,-166 637.53,-130 697.53,-130 697.53,-166"/>
<text text-anchor="middle" x="667.53" y="-144.3" font-family="Times,serif" font-size="14.00">Updater</text>
</a>
</g>
</g>
<!-- Objects with Origin relationships -->
<g id="node9" class="node">
<title>Objects with Origin relationships</title>
<g id="a_node9"><a xlink:href="/develop/Data/models.html#objects with origin relationship" xlink:title="Objects with Origin relationships" target="_top">
<polygon fill="#cdabef" stroke="#dedede" points="508.38,-56 434.53,-74 286.84,-74 212.99,-56 286.84,-38 434.53,-38 508.38,-56"/>
<text text-anchor="middle" x="360.68" y="-52.3" font-family="Times,serif" font-size="14.00">Objects with Origin relationships</text>
</a>
</g>
</g>
</g>
</svg>
