<?xml version="1.0" encoding="UTF-8" standalone="no"?>
<!DOCTYPE svg PUBLIC "-//W3C//DTD SVG 1.1//EN"
 "http://www.w3.org/Graphics/SVG/1.1/DTD/svg11.dtd">
<!-- Generated by graphviz version 2.50.0 (20211204.2007)
 -->
<!-- Title: OtuPageLayoutSection Pages: 1 -->
<svg width="712pt" height="411pt"
 viewBox="0.00 0.00 712.00 410.65" xmlns="http://www.w3.org/2000/svg" xmlns:xlink="http://www.w3.org/1999/xlink">
<g id="graph0" class="graph" transform="scale(1 1) rotate(0) translate(4 406.65)">
<title>OtuPageLayoutSection</title>
<polygon fill="white" stroke="transparent" points="-4,4 -4,-406.65 708,-406.65 708,4 -4,4"/>
<text text-anchor="middle" x="352" y="-22.8" font-family="Times,serif" font-size="14.00">Algorithmically generated relationships for OtuPageLayoutSection based on assertions of &#39;has_many&#39;, &#39;has_one&#39;, &#39;belongs_to&#39;. </text>
<text text-anchor="middle" x="352" y="-7.8" font-family="Times,serif" font-size="14.00">Generated 2022&#45;01&#45;25 11:38:17 &#45;0600.</text>
<!-- OtuPageLayoutSection&#45;&gt;PinboardItem -->
<g id="edge1" class="edge">
<title>OtuPageLayoutSection&#45;&gt;PinboardItem</title>
<path fill="none" stroke="black" d="M206.74,-229.87C231.1,-261.16 278.91,-318.73 328.9,-357.65 330.28,-358.73 331.71,-359.79 333.17,-360.82"/>
<polygon fill="black" stroke="black" points="331.56,-363.95 341.84,-366.5 335.4,-358.1 331.56,-363.95"/>
</g>
<!-- OtuPageLayoutSection&#45;&gt;Role -->
<g id="edge2" class="edge">
<title>OtuPageLayoutSection&#45;&gt;Role</title>
<path fill="none" stroke="black" d="M220,-229.76C247.73,-249.85 290.34,-279.9 328.9,-303.65 333.42,-306.44 338.24,-309.26 343.04,-311.97"/>
<polygon fill="black" stroke="black" points="341.71,-315.23 352.15,-317.01 345.1,-309.1 341.71,-315.23"/>
</g>
<!-- OtuPageLayoutSection&#45;&gt;VerifierRole -->
<g id="edge3" class="edge">
<title>OtuPageLayoutSection&#45;&gt;VerifierRole</title>
<path fill="none" stroke="black" d="M243.73,-227.34C270.26,-237.05 302.06,-248.7 328.1,-258.23"/>
<polygon fill="black" stroke="black" points="327.18,-261.62 337.77,-261.78 329.59,-255.05 327.18,-261.62"/>
</g>
<!-- OtuPageLayoutSection&#45;&gt;Creator -->
<g id="edge5" class="edge">
<title>OtuPageLayoutSection&#45;&gt;Creator</title>
<path fill="none" stroke="black" stroke-dasharray="5,2" d="M268.34,-226.31C317.2,-233.87 380.05,-235.91 429.9,-211.65 456.57,-198.67 475.35,-168.47 485.26,-148.84"/>
<polygon fill="black" stroke="black" points="268.88,-222.86 258.44,-224.68 267.74,-229.76 268.88,-222.86"/>
</g>
<!-- OtuPageLayoutSection&#45;&gt;OtuPageLayout -->
<g id="edge6" class="edge">
<title>OtuPageLayoutSection&#45;&gt;OtuPageLayout</title>
<path fill="none" stroke="black" stroke-dasharray="5,2" d="M297.32,-194.55C308.25,-193.22 318.94,-191.91 328.79,-190.71"/>
<polygon fill="black" stroke="black" points="296.74,-191.1 287.23,-195.78 297.58,-198.05 296.74,-191.1"/>
</g>
<!-- OtuPageLayoutSection&#45;&gt;Project -->
<g id="edge7" class="edge">
<title>OtuPageLayoutSection&#45;&gt;Project</title>
<path fill="none" stroke="black" stroke-dasharray="5,2" d="M249.46,-183.35C283.79,-169.32 325.27,-152.37 351.74,-141.55"/>
<polygon fill="black" stroke="black" points="247.92,-180.2 239.99,-187.22 250.57,-186.68 247.92,-180.2"/>
</g>
<!-- OtuPageLayoutSection&#45;&gt;Topic -->
<g id="edge8" class="edge">
<title>OtuPageLayoutSection&#45;&gt;Topic</title>
<path fill="none" stroke="black" stroke-dasharray="5,2" d="M225.22,-179.06C252.71,-157.3 292.26,-127.19 328.9,-103.65 336.31,-98.89 344.63,-94.14 352.3,-89.98"/>
<polygon fill="black" stroke="black" points="222.74,-176.57 217.1,-185.53 227.1,-182.04 222.74,-176.57"/>
</g>
<!-- OtuPageLayoutSection&#45;&gt;Updater -->
<g id="edge9" class="edge">
<title>OtuPageLayoutSection&#45;&gt;Updater</title>
<path fill="none" stroke="black" stroke-dasharray="5,2" d="M206.41,-176.41C228.44,-138.25 271.53,-75.61 328.9,-49.65 412.6,-11.79 519.06,-78.61 565.05,-112.6"/>
<polygon fill="black" stroke="black" points="203.13,-175.11 201.27,-185.54 209.23,-178.55 203.13,-175.11"/>
</g>
<!-- Role&#45;&gt;Verifier -->
<!-- VerifierRole&#45;&gt;Verifier -->
<g id="edge4" class="edge">
<title>VerifierRole&#45;&gt;Verifier</title>
<path fill="none" stroke="black" d="M421.19,-286.4C432.52,-289.11 444.76,-292.03 455.89,-294.69"/>
<polygon fill="black" stroke="black" points="455.2,-298.13 465.73,-297.05 456.82,-291.32 455.2,-298.13"/>
</g>
<!-- Creator&#45;&gt;Updater -->
<!-- Project&#45;&gt;Creator -->
<!-- OtuPageLayoutSection -->
<g id="node1" class="node">
<title>OtuPageLayoutSection</title>
<g id="a_node1"><a xlink:href="/develop/Data/models.html#otu-page-layout-section" xlink:title="OtuPageLayoutSection" target="_top">
<polygon fill="#cdefab" stroke="#dedede" points="288.8,-200.2 288.8,-215.11 230.34,-225.65 147.66,-225.65 89.2,-215.11 89.2,-200.2 147.66,-189.65 230.34,-189.65 288.8,-200.2"/>
<polygon fill="none" stroke="#dedede" points="292.79,-196.86 292.79,-218.45 230.69,-229.65 147.31,-229.65 85.21,-218.45 85.21,-196.86 147.31,-185.65 230.69,-185.65 292.79,-196.86"/>
<text text-anchor="middle" x="189" y="-203.95" font-family="Times,serif" font-size="14.00">OtuPageLayoutSection</text>
</a>
</g>
</g>
<!-- PinboardItem -->
<g id="node2" class="node">
<title>PinboardItem</title>
<g id="a_node2"><a xlink:href="/develop/Data/models.html#pinboard-item" xlink:title="PinboardItem" target="_top">
<polygon fill="#eeefff" stroke="#dddeee" points="424.9,-402.65 333.9,-402.65 333.9,-366.65 424.9,-366.65 424.9,-402.65"/>
<text text-anchor="middle" x="379.4" y="-380.95" font-family="Times,serif" font-size="14.00">PinboardItem</text>
</a>
</g>
</g>
<!-- Role -->
<g id="node3" class="node">
<title>Role</title>
<g id="a_node3"><a xlink:href="/develop/Data/models.html#role" xlink:title="Role" target="_top">
<polygon fill="#eeefff" stroke="#dddeee" points="406.4,-348.65 352.4,-348.65 352.4,-312.65 406.4,-312.65 406.4,-348.65"/>
<text text-anchor="middle" x="379.4" y="-326.95" font-family="Times,serif" font-size="14.00">Role</text>
</a>
</g>
</g>
<!-- VerifierRole -->
<g id="node4" class="node">
<title>VerifierRole</title>
<g id="a_node4"><a xlink:href="/develop/Data/models.html#verifier-role" xlink:title="VerifierRole" target="_top">
<polygon fill="#eeefff" stroke="#dddeee" points="420.9,-294.65 337.9,-294.65 337.9,-258.65 420.9,-258.65 420.9,-294.65"/>
<text text-anchor="middle" x="379.4" y="-272.95" font-family="Times,serif" font-size="14.00">VerifierRole</text>
</a>
</g>
</g>
<!-- Verifier -->
<g id="node5" class="node">
<title>Verifier</title>
<g id="a_node5"><a xlink:href="/develop/Data/models.html#verifier" xlink:title="Verifier" target="_top">
<polygon fill="#eeefff" stroke="#dddeee" points="522.9,-321.65 465.9,-321.65 465.9,-285.65 522.9,-285.65 522.9,-321.65"/>
<text text-anchor="middle" x="494.4" y="-299.95" font-family="Times,serif" font-size="14.00">Verifier</text>
</a>
</g>
</g>
<!-- Creator -->
<g id="node6" class="node">
<title>Creator</title>
<g id="a_node6"><a xlink:href="/develop/Data/models.html#creator" xlink:title="Creator" target="_top">
<polygon fill="#eeefff" stroke="#dddeee" points="522.9,-148.65 465.9,-148.65 465.9,-112.65 522.9,-112.65 522.9,-148.65"/>
<text text-anchor="middle" x="494.4" y="-126.95" font-family="Times,serif" font-size="14.00">Creator</text>
</a>
</g>
</g>
<!-- OtuPageLayout -->
<g id="node7" class="node">
<title>OtuPageLayout</title>
<g id="a_node7"><a xlink:href="/develop/Data/models.html#otu-page-layout" xlink:title="OtuPageLayout" target="_top">
<polygon fill="#eeefff" stroke="#dddeee" points="429.9,-202.65 328.9,-202.65 328.9,-166.65 429.9,-166.65 429.9,-202.65"/>
<text text-anchor="middle" x="379.4" y="-180.95" font-family="Times,serif" font-size="14.00">OtuPageLayout</text>
</a>
</g>
</g>
<!-- Project -->
<g id="node8" class="node">
<title>Project</title>
<g id="a_node8"><a xlink:href="/develop/Data/models.html#project" xlink:title="Project" target="_top">
<polygon fill="#eeefff" stroke="#dddeee" points="406.9,-148.65 351.9,-148.65 351.9,-112.65 406.9,-112.65 406.9,-148.65"/>
<text text-anchor="middle" x="379.4" y="-126.95" font-family="Times,serif" font-size="14.00">Project</text>
</a>
</g>
</g>
<!-- Topic -->
<g id="node9" class="node">
<title>Topic</title>
<g id="a_node9"><a xlink:href="/develop/Data/models.html#topic" xlink:title="Topic" target="_top">
<polygon fill="#eeefff" stroke="#dddeee" points="406.4,-94.65 352.4,-94.65 352.4,-58.65 406.4,-58.65 406.4,-94.65"/>
<text text-anchor="middle" x="379.4" y="-72.95" font-family="Times,serif" font-size="14.00">Topic</text>
</a>
</g>
</g>
<!-- Updater -->
<g id="node10" class="node">
<title>Updater</title>
<g id="a_node10"><a xlink:href="/develop/Data/models.html#updater" xlink:title="Updater" target="_top">
<polygon fill="#eeefff" stroke="#dddeee" points="618.9,-148.65 558.9,-148.65 558.9,-112.65 618.9,-112.65 618.9,-148.65"/>
<text text-anchor="middle" x="588.9" y="-126.95" font-family="Times,serif" font-size="14.00">Updater</text>
</a>
</g>
</g>
</g>
</svg>
