<?xml version="1.0" encoding="UTF-8" standalone="no"?>
<!DOCTYPE svg PUBLIC "-//W3C//DTD SVG 1.1//EN"
 "http://www.w3.org/Graphics/SVG/1.1/DTD/svg11.dtd">
<!-- Generated by graphviz version 12.2.1 (20241206.2353)
 -->
<!-- Title: OtuRelationship Pages: 1 -->
<svg width="749pt" height="566pt"
 viewBox="0.00 0.00 748.92 565.75" xmlns="http://www.w3.org/2000/svg" xmlns:xlink="http://www.w3.org/1999/xlink">
<g id="graph0" class="graph" transform="scale(1 1) rotate(0) translate(4 561.75)">
<title>OtuRelationship</title>
<polygon fill="white" stroke="none" points="-4,4 -4,-561.75 744.92,-561.75 744.92,4 -4,4"/>
<!-- Citation&#45;&gt;Source -->
<g id="edge9" class="edge">
<title>Citation&#45;&gt;Source</title>
<path fill="none" stroke="black" stroke-dasharray="1,5" d="M94.31,-484.75C158.75,-484.75 284.8,-484.75 347.71,-484.75"/>
<polygon fill="black" stroke="black" points="347.54,-488.25 357.54,-484.75 347.54,-481.25 347.54,-488.25"/>
</g>
<!-- Citation&#45;&gt;CitationTopic -->
<g id="edge1" class="edge">
<title>Citation&#45;&gt;CitationTopic</title>
<path fill="none" stroke="black" stroke-dasharray="1,5" d="M86.9,-495.35C109.69,-502.79 140.73,-512.92 167.41,-521.62"/>
<polygon fill="black" stroke="black" points="166.12,-524.88 176.71,-524.65 168.29,-518.23 166.12,-524.88"/>
</g>
<!-- Confidence&#45;&gt;ConfidenceLevel -->
<g id="edge3" class="edge">
<title>Confidence&#45;&gt;ConfidenceLevel</title>
<path fill="none" stroke="black" stroke-dasharray="1,5" d="M106.82,-212.13C122.92,-211.94 140.83,-211.72 157.69,-211.52"/>
<polygon fill="black" stroke="black" points="157.67,-215.03 167.63,-211.41 157.59,-208.03 157.67,-215.03"/>
</g>
<!-- Tag&#45;&gt;Keyword -->
<g id="edge5" class="edge">
<title>Tag&#45;&gt;Keyword</title>
<path fill="none" stroke="black" stroke-dasharray="1,5" d="M80.74,-158.44C107.02,-158.13 147.86,-157.64 179.05,-157.27"/>
<polygon fill="black" stroke="black" points="179.01,-160.77 188.97,-157.15 178.93,-153.77 179.01,-160.77"/>
</g>
<!-- Source&#45;&gt;SubsequentCitation -->
<!-- Source&#45;&gt;OriginCitation -->
<!-- OtuRelationship&#45;&gt;Citation -->
<g id="edge2" class="edge">
<title>OtuRelationship&#45;&gt;Citation</title>
<path fill="none" stroke="black" d="M205.62,-291C174.19,-331.27 108.03,-416.04 74.62,-458.85"/>
<polygon fill="black" stroke="black" points="71.95,-456.57 68.56,-466.61 77.47,-460.88 71.95,-456.57"/>
</g>
<!-- OtuRelationship&#45;&gt;Confidence -->
<g id="edge4" class="edge">
<title>OtuRelationship&#45;&gt;Confidence</title>
<path fill="none" stroke="black" d="M170.26,-251.24C148.72,-244.08 123.97,-235.86 102.89,-228.86"/>
<polygon fill="black" stroke="black" points="104.26,-225.63 93.67,-225.79 102.06,-232.27 104.26,-225.63"/>
</g>
<!-- OtuRelationship&#45;&gt;Tag -->
<g id="edge12" class="edge">
<title>OtuRelationship&#45;&gt;Tag</title>
<path fill="none" stroke="black" d="M167.15,-252.19C158.52,-248.25 150.07,-243.48 142.8,-237.75 120.71,-220.36 127.92,-204.3 106.8,-185.75 101.01,-180.67 94.1,-176.24 87.22,-172.52"/>
<polygon fill="black" stroke="black" points="89.18,-169.59 78.66,-168.26 86.06,-175.85 89.18,-169.59"/>
</g>
<!-- OtuRelationship&#45;&gt;Note -->
<g id="edge6" class="edge">
<title>OtuRelationship&#45;&gt;Note</title>
<path fill="none" stroke="black" d="M142.65,-268.75C125.65,-268.75 108.43,-268.75 93.77,-268.75"/>
<polygon fill="black" stroke="black" points="94.13,-265.25 84.13,-268.75 94.13,-272.25 94.13,-265.25"/>
</g>
<!-- OtuRelationship&#45;&gt;Source -->
<g id="edge22" class="edge">
<title>OtuRelationship&#45;&gt;Source</title>
<path fill="none" stroke="black" stroke-dasharray="1,5" d="M240.44,-300.26C260.29,-338.74 297.44,-404.54 341.17,-451.75 344.25,-455.08 347.71,-458.3 351.29,-461.35"/>
<polygon fill="none" stroke="black" points="232.43,-293.35 239.56,-289.72 243.19,-296.85 236.06,-300.48 232.43,-293.35"/>
<polyline fill="none" stroke="black" points="239.63,-298.67 240.54,-300.45"/>
<polygon fill="none" stroke="black" points="361.35,-464.28 356.35,-470.53 350.11,-465.53 355.1,-459.28 361.35,-464.28"/>
<polyline fill="none" stroke="black" points="352.6,-462.4 351.04,-461.15"/>
</g>
<!-- OtuRelationship&#45;&gt;PinboardItem -->
<g id="edge7" class="edge">
<title>OtuRelationship&#45;&gt;PinboardItem</title>
<path fill="none" stroke="black" d="M304.2,-257.39C312.78,-256.15 321.37,-254.92 329.59,-253.74"/>
<polygon fill="black" stroke="black" points="330.01,-257.22 339.41,-252.33 329.01,-250.29 330.01,-257.22"/>
</g>
<!-- OtuRelationship&#45;&gt;Role -->
<g id="edge8" class="edge">
<title>OtuRelationship&#45;&gt;Role</title>
<path fill="none" stroke="black" d="M275.1,-250.73C285.18,-246.73 295.61,-242.31 305.17,-237.75 320.08,-230.64 335.97,-221.8 349.63,-213.78"/>
<polygon fill="black" stroke="black" points="351.03,-217.02 357.83,-208.9 347.45,-211 351.03,-217.02"/>
</g>
<!-- OtuRelationship&#45;&gt;SubsequentCitation -->
<g id="edge10" class="edge">
<title>OtuRelationship&#45;&gt;SubsequentCitation</title>
<path fill="none" stroke="black" d="M295.97,-281.85C335.92,-289.56 386.63,-299.9 431.42,-310.75 439.49,-312.7 447.89,-314.87 456.23,-317.11"/>
<polygon fill="black" stroke="black" points="455.1,-320.43 465.67,-319.68 456.94,-313.67 455.1,-320.43"/>
</g>
<!-- OtuRelationship&#45;&gt;VerifierRole -->
<g id="edge14" class="edge">
<title>OtuRelationship&#45;&gt;VerifierRole</title>
<path fill="none" stroke="black" d="M282.81,-252.49C290.91,-248.54 298.67,-243.69 305.17,-237.75 331.87,-213.34 316.78,-191.47 341.17,-164.75 341.63,-164.25 342.09,-163.76 342.57,-163.28"/>
<polygon fill="black" stroke="black" points="344.6,-166.14 349.86,-156.95 340.01,-160.86 344.6,-166.14"/>
</g>
<!-- OtuRelationship&#45;&gt;Creator -->
<g id="edge16" class="edge">
<title>OtuRelationship&#45;&gt;Creator</title>
<path fill="none" stroke="black" stroke-dasharray="5,2" d="M295.5,-247.07C299.07,-244.33 302.34,-241.23 305.17,-237.75 367.38,-161.2 265.98,-82.59 341.17,-18.75 385.97,19.29 459.79,-9.51 499.67,-29.97"/>
<polygon fill="black" stroke="black" points="293.82,-243.99 287.35,-252.38 297.64,-249.85 293.82,-243.99"/>
</g>
<!-- OtuRelationship&#45;&gt;ObjectOtu -->
<g id="edge17" class="edge">
<title>OtuRelationship&#45;&gt;ObjectOtu</title>
<path fill="none" stroke="black" stroke-dasharray="5,2" d="M258.57,-298.65C281.25,-318.29 312.22,-344.09 341.17,-364.75 345.27,-367.67 349.68,-370.61 354.08,-373.41"/>
<polygon fill="black" stroke="black" points="260.98,-296.11 251.14,-292.17 256.38,-301.38 260.98,-296.11"/>
</g>
<!-- OtuRelationship&#45;&gt;Project -->
<g id="edge18" class="edge">
<title>OtuRelationship&#45;&gt;Project</title>
<path fill="none" stroke="black" stroke-dasharray="5,2" d="M295.06,-247.02C298.77,-244.29 302.19,-241.21 305.17,-237.75 352.77,-182.55 301.09,-138.63 341.17,-77.75 345.65,-70.95 352.1,-65.11 358.69,-60.35"/>
<polygon fill="black" stroke="black" points="293.22,-244.05 286.63,-252.34 296.95,-249.97 293.22,-244.05"/>
</g>
<!-- OtuRelationship&#45;&gt;SubjectOtu -->
<g id="edge19" class="edge">
<title>OtuRelationship&#45;&gt;SubjectOtu</title>
<path fill="none" stroke="black" stroke-dasharray="5,2" d="M279.99,-292.43C302.3,-302.03 327.5,-312.88 347.66,-321.55"/>
<polygon fill="black" stroke="black" points="281.6,-289.31 271.03,-288.57 278.83,-295.74 281.6,-289.31"/>
</g>
<!-- OtuRelationship&#45;&gt;Updater -->
<g id="edge20" class="edge">
<title>OtuRelationship&#45;&gt;Updater</title>
<path fill="none" stroke="black" stroke-dasharray="5,2" d="M294.31,-247.21C298.27,-244.42 301.95,-241.29 305.17,-237.75 344.69,-194.39 297.19,-149.58 341.17,-110.75 382.97,-73.85 534.73,-84.78 589.17,-72.75 610.82,-67.97 634.83,-60.94 653.02,-55.25"/>
<polygon fill="black" stroke="black" points="292.66,-244.12 285.92,-252.29 296.29,-250.1 292.66,-244.12"/>
</g>
<!-- OtuRelationship&#45;&gt;OriginCitation -->
<g id="edge21" class="edge">
<title>OtuRelationship&#45;&gt;OriginCitation</title>
<path fill="none" stroke="black" d="M240.74,-300.22C259.73,-334.8 294.94,-389.32 341.17,-418.75 380.04,-443.49 431.6,-453.74 470.6,-457.95"/>
<polygon fill="none" stroke="black" points="232.53,-293.37 239.58,-289.59 243.36,-296.64 236.31,-300.42 232.53,-293.37"/>
<polyline fill="none" stroke="black" points="239.83,-298.53 240.78,-300.29"/>
<polygon fill="none" stroke="black" points="480.63,-454.91 479.85,-462.87 471.89,-462.1 472.67,-454.13 480.63,-454.91"/>
<polyline fill="none" stroke="black" points="472.28,-458.11 470.29,-457.92"/>
</g>
<!-- CitationTopic&#45;&gt;Topic -->
<g id="edge13" class="edge">
<title>CitationTopic&#45;&gt;Topic</title>
<path fill="none" stroke="black" stroke-dasharray="1,5" d="M269.64,-539.75C294.21,-539.75 324.36,-539.75 347.71,-539.75"/>
<polygon fill="black" stroke="black" points="347.39,-543.25 357.39,-539.75 347.39,-536.25 347.39,-543.25"/>
</g>
<!-- Role&#45;&gt;Verifier -->
<!-- SubsequentCitation&#45;&gt;SubsequentSource -->
<g id="edge11" class="edge">
<title>SubsequentCitation&#45;&gt;SubsequentSource</title>
<path fill="none" stroke="black" stroke-dasharray="1,5" d="M589.67,-337.75C597.6,-337.75 605.78,-337.75 613.83,-337.75"/>
<polygon fill="black" stroke="black" points="613.59,-341.25 623.59,-337.75 613.59,-334.25 613.59,-341.25"/>
</g>
<!-- VerifierRole&#45;&gt;Verifier -->
<g id="edge15" class="edge">
<title>VerifierRole&#45;&gt;Verifier</title>
<path fill="none" stroke="black" stroke-dasharray="1,5" d="M428.17,-145.63C447.15,-149.29 469.61,-153.62 488.35,-157.24"/>
<polygon fill="black" stroke="black" points="487.5,-160.64 497.98,-159.1 488.83,-153.77 487.5,-160.64"/>
</g>
<!-- Creator&#45;&gt;Updater -->
<!-- Project&#45;&gt;Creator -->
<!-- Citation -->
<g id="node1" class="node">
<title>Citation</title>
<g id="a_node1"><a xlink:href="/develop/Data/models.html#citation" xlink:title="Citation" target="_top">
<ellipse fill="#abcdef" stroke="#dddeee" cx="53.4" cy="-484.75" rx="40.6" ry="18"/>
<text text-anchor="middle" x="53.4" y="-479.7" font-family="Times,serif" font-size="14.00">Citation</text>
</a>
</g>
</g>
<!-- Confidence -->
<g id="node2" class="node">
<title>Confidence</title>
<g id="a_node2"><a xlink:href="/develop/Data/models.html#confidence" xlink:title="Confidence" target="_top">
<ellipse fill="#abcdef" stroke="#dddeee" cx="53.4" cy="-212.75" rx="53.4" ry="18"/>
<text text-anchor="middle" x="53.4" y="-207.7" font-family="Times,serif" font-size="14.00">Confidence</text>
</a>
</g>
</g>
<!-- Tag -->
<g id="node3" class="node">
<title>Tag</title>
<g id="a_node3"><a xlink:href="/develop/Data/models.html#tag" xlink:title="Tag" target="_top">
<ellipse fill="#abcdef" stroke="#dddeee" cx="53.4" cy="-158.75" rx="27" ry="18"/>
<text text-anchor="middle" x="53.4" y="-153.7" font-family="Times,serif" font-size="14.00">Tag</text>
</a>
</g>
</g>
<!-- Note -->
<g id="node4" class="node">
<title>Note</title>
<g id="a_node4"><a xlink:href="/develop/Data/models.html#note" xlink:title="Note" target="_top">
<ellipse fill="#abcdef" stroke="#dddeee" cx="53.4" cy="-268.75" rx="28.83" ry="18"/>
<text text-anchor="middle" x="53.4" y="-263.7" font-family="Times,serif" font-size="14.00">Note</text>
</a>
</g>
</g>
<!-- Source -->
<g id="node5" class="node">
<title>Source</title>
<g id="a_node5"><a xlink:href="/develop/Data/models.html#source" xlink:title="Source" target="_top">
<path fill="#fedcba" stroke="#dddeee" d="M371.3,-466.75C371.3,-466.75 401.3,-466.75 401.3,-466.75 407.3,-466.75 413.3,-472.75 413.3,-478.75 413.3,-478.75 413.3,-490.75 413.3,-490.75 413.3,-496.75 407.3,-502.75 401.3,-502.75 401.3,-502.75 371.3,-502.75 371.3,-502.75 365.3,-502.75 359.3,-496.75 359.3,-490.75 359.3,-490.75 359.3,-478.75 359.3,-478.75 359.3,-472.75 365.3,-466.75 371.3,-466.75"/>
<text text-anchor="middle" x="386.3" y="-479.95" font-family="Times,serif" font-size="14.00">Source</text>
</a>
</g>
</g>
<!-- OtuRelationship -->
<g id="node6" class="node">
<title>OtuRelationship</title>
<g id="a_node6"><a xlink:href="/develop/Data/models.html#otu-relationship" xlink:title="OtuRelationship" target="_top">
<polygon fill="#cdefab" stroke="#dedede" points="301.17,-261.29 301.17,-276.21 255.96,-286.75 192.01,-286.75 146.8,-276.21 146.8,-261.29 192.01,-250.75 255.96,-250.75 301.17,-261.29"/>
<polygon fill="none" stroke="#dedede" points="305.17,-258.12 305.17,-279.38 256.42,-290.75 191.55,-290.75 142.8,-279.38 142.8,-258.12 191.55,-246.75 256.42,-246.75 305.17,-258.12"/>
<text text-anchor="middle" x="223.98" y="-263.7" font-family="Times,serif" font-size="14.00">OtuRelationship</text>
</a>
</g>
</g>
<!-- CitationTopic -->
<g id="node7" class="node">
<title>CitationTopic</title>
<g id="a_node7"><a xlink:href="/develop/Data/models.html#citation-topic" xlink:title="CitationTopic" target="_top">
<polygon fill="#eeefff" stroke="#dddeee" points="269.48,-557.75 178.48,-557.75 178.48,-521.75 269.48,-521.75 269.48,-557.75"/>
<text text-anchor="middle" x="223.98" y="-534.7" font-family="Times,serif" font-size="14.00">CitationTopic</text>
</a>
</g>
</g>
<!-- ConfidenceLevel -->
<g id="node8" class="node">
<title>ConfidenceLevel</title>
<g id="a_node8"><a xlink:href="/develop/Data/models.html#confidence-level" xlink:title="ConfidenceLevel" target="_top">
<polygon fill="#eeefff" stroke="#dddeee" points="278.48,-228.75 169.48,-228.75 169.48,-192.75 278.48,-192.75 278.48,-228.75"/>
<text text-anchor="middle" x="223.98" y="-205.7" font-family="Times,serif" font-size="14.00">ConfidenceLevel</text>
</a>
</g>
</g>
<!-- Keyword -->
<g id="node9" class="node">
<title>Keyword</title>
<g id="a_node9"><a xlink:href="/develop/Data/models.html#keyword" xlink:title="Keyword" target="_top">
<polygon fill="#eeefff" stroke="#dddeee" points="257.11,-174.75 190.86,-174.75 190.86,-138.75 257.11,-138.75 257.11,-174.75"/>
<text text-anchor="middle" x="223.98" y="-151.7" font-family="Times,serif" font-size="14.00">Keyword</text>
</a>
</g>
</g>
<!-- PinboardItem -->
<g id="node10" class="node">
<title>PinboardItem</title>
<g id="a_node10"><a xlink:href="/develop/Data/models.html#pinboard-item" xlink:title="PinboardItem" target="_top">
<polygon fill="#eeefff" stroke="#dddeee" points="431.42,-263.75 341.17,-263.75 341.17,-227.75 431.42,-227.75 431.42,-263.75"/>
<text text-anchor="middle" x="386.3" y="-240.7" font-family="Times,serif" font-size="14.00">PinboardItem</text>
</a>
</g>
</g>
<!-- Role -->
<g id="node11" class="node">
<title>Role</title>
<g id="a_node11"><a xlink:href="/develop/Data/models.html#role" xlink:title="Role" target="_top">
<polygon fill="#eeefff" stroke="#dddeee" points="413.3,-209.75 359.3,-209.75 359.3,-173.75 413.3,-173.75 413.3,-209.75"/>
<text text-anchor="middle" x="386.3" y="-186.7" font-family="Times,serif" font-size="14.00">Role</text>
</a>
</g>
</g>
<!-- SubsequentCitation -->
<g id="node12" class="node">
<title>SubsequentCitation</title>
<g id="a_node12"><a xlink:href="/develop/Data/models.html#subsequent-citation" xlink:title="SubsequentCitation" target="_top">
<polygon fill="#eeefff" stroke="#dddeee" points="589.17,-355.75 467.42,-355.75 467.42,-319.75 589.17,-319.75 589.17,-355.75"/>
<text text-anchor="middle" x="528.3" y="-332.7" font-family="Times,serif" font-size="14.00">SubsequentCitation</text>
</a>
</g>
</g>
<!-- SubsequentSource -->
<g id="node13" class="node">
<title>SubsequentSource</title>
<g id="a_node13"><a xlink:href="/develop/Data/models.html#subsequent-source" xlink:title="SubsequentSource" target="_top">
<polygon fill="#eeefff" stroke="#dddeee" points="740.92,-355.75 625.17,-355.75 625.17,-319.75 740.92,-319.75 740.92,-355.75"/>
<text text-anchor="middle" x="683.05" y="-332.7" font-family="Times,serif" font-size="14.00">SubsequentSource</text>
</a>
</g>
</g>
<!-- Topic -->
<g id="node14" class="node">
<title>Topic</title>
<g id="a_node14"><a xlink:href="/develop/Data/models.html#topic" xlink:title="Topic" target="_top">
<polygon fill="#eeefff" stroke="#dddeee" points="413.3,-557.75 359.3,-557.75 359.3,-521.75 413.3,-521.75 413.3,-557.75"/>
<text text-anchor="middle" x="386.3" y="-534.7" font-family="Times,serif" font-size="14.00">Topic</text>
</a>
</g>
</g>
<!-- VerifierRole -->
<g id="node15" class="node">
<title>VerifierRole</title>
<g id="a_node15"><a xlink:href="/develop/Data/models.html#verifier-role" xlink:title="VerifierRole" target="_top">
<polygon fill="#eeefff" stroke="#dddeee" points="427.67,-155.75 344.92,-155.75 344.92,-119.75 427.67,-119.75 427.67,-155.75"/>
<text text-anchor="middle" x="386.3" y="-132.7" font-family="Times,serif" font-size="14.00">VerifierRole</text>
</a>
</g>
</g>
<!-- Verifier -->
<g id="node16" class="node">
<title>Verifier</title>
<g id="a_node16"><a xlink:href="/develop/Data/models.html#verifier" xlink:title="Verifier" target="_top">
<polygon fill="#eeefff" stroke="#dddeee" points="556.92,-182.75 499.67,-182.75 499.67,-146.75 556.92,-146.75 556.92,-182.75"/>
<text text-anchor="middle" x="528.3" y="-159.7" font-family="Times,serif" font-size="14.00">Verifier</text>
</a>
</g>
</g>
<!-- Creator -->
<g id="node17" class="node">
<title>Creator</title>
<g id="a_node17"><a xlink:href="/develop/Data/models.html#creator" xlink:title="Creator" target="_top">
<polygon fill="#eeefff" stroke="#dddeee" points="556.55,-63.75 500.05,-63.75 500.05,-27.75 556.55,-27.75 556.55,-63.75"/>
<text text-anchor="middle" x="528.3" y="-40.7" font-family="Times,serif" font-size="14.00">Creator</text>
</a>
</g>
</g>
<!-- ObjectOtu -->
<g id="node18" class="node">
<title>ObjectOtu</title>
<g id="a_node18"><a xlink:href="/develop/Data/models.html#object-otu" xlink:title="ObjectOtu" target="_top">
<polygon fill="#eeefff" stroke="#dddeee" points="422.42,-409.75 350.17,-409.75 350.17,-373.75 422.42,-373.75 422.42,-409.75"/>
<text text-anchor="middle" x="386.3" y="-386.7" font-family="Times,serif" font-size="14.00">ObjectOtu</text>
</a>
</g>
</g>
<!-- Project -->
<g id="node19" class="node">
<title>Project</title>
<g id="a_node19"><a xlink:href="/develop/Data/models.html#project" xlink:title="Project" target="_top">
<polygon fill="#eeefff" stroke="#dddeee" points="413.42,-63.75 359.17,-63.75 359.17,-27.75 413.42,-27.75 413.42,-63.75"/>
<text text-anchor="middle" x="386.3" y="-40.7" font-family="Times,serif" font-size="14.00">Project</text>
</a>
</g>
</g>
<!-- SubjectOtu -->
<g id="node20" class="node">
<title>SubjectOtu</title>
<g id="a_node20"><a xlink:href="/develop/Data/models.html#subject-otu" xlink:title="SubjectOtu" target="_top">
<polygon fill="#eeefff" stroke="#dddeee" points="424.67,-355.75 347.92,-355.75 347.92,-319.75 424.67,-319.75 424.67,-355.75"/>
<text text-anchor="middle" x="386.3" y="-332.7" font-family="Times,serif" font-size="14.00">SubjectOtu</text>
</a>
</g>
</g>
<!-- Updater -->
<g id="node21" class="node">
<title>Updater</title>
<g id="a_node21"><a xlink:href="/develop/Data/models.html#updater" xlink:title="Updater" target="_top">
<polygon fill="#eeefff" stroke="#dddeee" points="712.8,-63.75 653.3,-63.75 653.3,-27.75 712.8,-27.75 712.8,-63.75"/>
<text text-anchor="middle" x="683.05" y="-40.7" font-family="Times,serif" font-size="14.00">Updater</text>
</a>
</g>
</g>
<!-- OriginCitation -->
<g id="node22" class="node">
<title>OriginCitation</title>
<g id="a_node22"><a xlink:href="/develop/Data/models.html#origin-citation" xlink:title="OriginCitation" target="_top">
<polygon fill="#eeefff" stroke="#dddeee" points="575.67,-478.75 480.92,-478.75 480.92,-442.75 575.67,-442.75 575.67,-478.75"/>
<text text-anchor="middle" x="528.3" y="-455.7" font-family="Times,serif" font-size="14.00">OriginCitation</text>
</a>
</g>
</g>
</g>
</svg>
