<?xml version="1.0" encoding="UTF-8" standalone="no"?>
<!DOCTYPE svg PUBLIC "-//W3C//DTD SVG 1.1//EN"
 "http://www.w3.org/Graphics/SVG/1.1/DTD/svg11.dtd">
<!-- Generated by graphviz version 12.2.1 (20241206.2353)
 -->
<!-- Title: OtuPageLayout Pages: 1 -->
<svg width="531pt" height="387pt"
 viewBox="0.00 0.00 530.84 386.92" xmlns="http://www.w3.org/2000/svg" xmlns:xlink="http://www.w3.org/1999/xlink">
<g id="graph0" class="graph" transform="scale(1 1) rotate(0) translate(4 382.92)">
<title>OtuPageLayout</title>
<polygon fill="white" stroke="none" points="-4,4 -4,-382.92 526.84,-382.92 526.84,4 -4,4"/>
<!-- OtuPageLayout&#45;&gt;OtuPageLayoutSection -->
<g id="edge1" class="edge">
<title>OtuPageLayout&#45;&gt;OtuPageLayoutSection</title>
<path fill="none" stroke="black" d="M89.63,-194.19C106.48,-228.67 143.26,-295.05 192.84,-333.92 193.98,-334.82 195.16,-335.69 196.37,-336.54"/>
<polygon fill="black" stroke="black" points="194.48,-339.48 204.83,-341.73 198.14,-333.52 194.48,-339.48"/>
</g>
<!-- OtuPageLayout&#45;&gt;PinboardItem -->
<g id="edge2" class="edge">
<title>OtuPageLayout&#45;&gt;PinboardItem</title>
<path fill="none" stroke="black" d="M97.86,-194.05C118.79,-217.97 154.95,-255.88 192.84,-279.92 197.57,-282.92 202.7,-285.69 207.94,-288.2"/>
<polygon fill="black" stroke="black" points="206.17,-291.24 216.73,-292.11 209.01,-284.84 206.17,-291.24"/>
</g>
<!-- OtuPageLayout&#45;&gt;Role -->
<g id="edge3" class="edge">
<title>OtuPageLayout&#45;&gt;Role</title>
<path fill="none" stroke="black" d="M119.5,-191.9C141.06,-202.42 168.2,-215.3 192.84,-225.92 203.35,-230.45 214.9,-235.07 225.51,-239.18"/>
<polygon fill="black" stroke="black" points="224.15,-242.41 234.74,-242.71 226.65,-235.87 224.15,-242.41"/>
</g>
<!-- OtuPageLayout&#45;&gt;StandardSection -->
<g id="edge4" class="edge">
<title>OtuPageLayout&#45;&gt;StandardSection</title>
<path fill="none" stroke="black" d="M155.98,-160.63C170.59,-158.47 185.73,-156.24 199.84,-154.16"/>
<polygon fill="black" stroke="black" points="200.03,-157.67 209.41,-152.74 199,-150.74 200.03,-157.67"/>
</g>
<!-- OtuPageLayout&#45;&gt;VerifierRole -->
<g id="edge6" class="edge">
<title>OtuPageLayout&#45;&gt;VerifierRole</title>
<path fill="none" stroke="black" d="M155.98,-183.21C174.29,-185.91 193.42,-188.74 210.33,-191.23"/>
<polygon fill="black" stroke="black" points="209.74,-194.68 220.15,-192.68 210.77,-187.76 209.74,-194.68"/>
</g>
<!-- OtuPageLayout&#45;&gt;Creator -->
<g id="edge8" class="edge">
<title>OtuPageLayout&#45;&gt;Creator</title>
<path fill="none" stroke="black" stroke-dasharray="5,2" d="M128.05,-146.38C147.81,-136.63 171.07,-125.95 192.84,-117.92 253.82,-95.41 272.63,-101.11 334.09,-79.92 346.11,-75.77 359.08,-70.43 370.16,-65.59"/>
<polygon fill="black" stroke="black" points="126.5,-143.24 119.12,-150.84 129.63,-149.5 126.5,-143.24"/>
</g>
<!-- OtuPageLayout&#45;&gt;Project -->
<g id="edge9" class="edge">
<title>OtuPageLayout&#45;&gt;Project</title>
<path fill="none" stroke="black" stroke-dasharray="5,2" d="M113.37,-142.65C135.19,-124.68 164.63,-101.93 192.84,-84.92 206.51,-76.68 222.66,-69.13 235.96,-63.44"/>
<polygon fill="black" stroke="black" points="111.42,-139.73 105.97,-148.81 115.9,-145.1 111.42,-139.73"/>
</g>
<!-- OtuPageLayout&#45;&gt;Updater -->
<g id="edge10" class="edge">
<title>OtuPageLayout&#45;&gt;Updater</title>
<path fill="none" stroke="black" stroke-dasharray="5,2" d="M93.78,-139.35C111.38,-103.97 144.89,-49.38 192.84,-25.92 286.45,19.9 325.14,-5.47 427.34,-25.92 439.4,-28.33 452.02,-33.05 462.88,-37.87"/>
<polygon fill="black" stroke="black" points="90.66,-137.76 89.48,-148.29 96.97,-140.79 90.66,-137.76"/>
</g>
<!-- Role&#45;&gt;Verifier -->
<!-- StandardSection&#45;&gt;Topic -->
<g id="edge5" class="edge">
<title>StandardSection&#45;&gt;Topic</title>
<path fill="none" stroke="black" stroke-dasharray="1,5" d="M315.98,-144.92C330.59,-144.92 346.23,-144.92 359.87,-144.92"/>
<polygon fill="black" stroke="black" points="359.76,-148.42 369.76,-144.92 359.76,-141.42 359.76,-148.42"/>
</g>
<!-- VerifierRole&#45;&gt;Verifier -->
<g id="edge7" class="edge">
<title>VerifierRole&#45;&gt;Verifier</title>
<path fill="none" stroke="black" stroke-dasharray="1,5" d="M305.16,-207.17C322.2,-210.62 341.92,-214.61 358.77,-218.03"/>
<polygon fill="black" stroke="black" points="357.92,-221.43 368.42,-219.98 359.31,-214.57 357.92,-221.43"/>
</g>
<!-- Creator&#45;&gt;Updater -->
<!-- Project&#45;&gt;Creator -->
<!-- OtuPageLayout -->
<g id="node1" class="node">
<title>OtuPageLayout</title>
<g id="a_node1"><a xlink:href="/develop/Data/models.html#otu-page-layout" xlink:title="OtuPageLayout" target="_top">
<polygon fill="#cdefab" stroke="#dedede" points="152.84,-164.46 152.84,-179.38 109.24,-189.92 47.59,-189.92 4,-179.38 4,-164.46 47.59,-153.92 109.24,-153.92 152.84,-164.46"/>
<polygon fill="none" stroke="#dedede" points="156.84,-161.32 156.84,-182.52 109.72,-193.92 47.12,-193.92 0,-182.52 0,-161.32 47.12,-149.92 109.72,-149.92 156.84,-161.32"/>
<text text-anchor="middle" x="78.42" y="-166.87" font-family="Times,serif" font-size="14.00">OtuPageLayout</text>
</a>
</g>
</g>
<!-- OtuPageLayoutSection -->
<g id="node2" class="node">
<title>OtuPageLayoutSection</title>
<g id="a_node2"><a xlink:href="/develop/Data/models.html#otu-page-layout-section" xlink:title="OtuPageLayoutSection" target="_top">
<polygon fill="#eeefff" stroke="#dddeee" points="334.09,-378.92 192.84,-378.92 192.84,-342.92 334.09,-342.92 334.09,-378.92"/>
<text text-anchor="middle" x="263.46" y="-355.87" font-family="Times,serif" font-size="14.00">OtuPageLayoutSection</text>
</a>
</g>
</g>
<!-- PinboardItem -->
<g id="node3" class="node">
<title>PinboardItem</title>
<g id="a_node3"><a xlink:href="/develop/Data/models.html#pinboard-item" xlink:title="PinboardItem" target="_top">
<polygon fill="#eeefff" stroke="#dddeee" points="308.59,-324.92 218.34,-324.92 218.34,-288.92 308.59,-288.92 308.59,-324.92"/>
<text text-anchor="middle" x="263.46" y="-301.87" font-family="Times,serif" font-size="14.00">PinboardItem</text>
</a>
</g>
</g>
<!-- Role -->
<g id="node4" class="node">
<title>Role</title>
<g id="a_node4"><a xlink:href="/develop/Data/models.html#role" xlink:title="Role" target="_top">
<polygon fill="#eeefff" stroke="#dddeee" points="290.46,-270.92 236.46,-270.92 236.46,-234.92 290.46,-234.92 290.46,-270.92"/>
<text text-anchor="middle" x="263.46" y="-247.87" font-family="Times,serif" font-size="14.00">Role</text>
</a>
</g>
</g>
<!-- StandardSection -->
<g id="node5" class="node">
<title>StandardSection</title>
<g id="a_node5"><a xlink:href="/develop/Data/models.html#standard-section" xlink:title="StandardSection" target="_top">
<polygon fill="#eeefff" stroke="#dddeee" points="315.71,-162.92 211.21,-162.92 211.21,-126.92 315.71,-126.92 315.71,-162.92"/>
<text text-anchor="middle" x="263.46" y="-139.87" font-family="Times,serif" font-size="14.00">StandardSection</text>
</a>
</g>
</g>
<!-- Topic -->
<g id="node6" class="node">
<title>Topic</title>
<g id="a_node6"><a xlink:href="/develop/Data/models.html#topic" xlink:title="Topic" target="_top">
<polygon fill="#eeefff" stroke="#dddeee" points="425.71,-162.92 371.71,-162.92 371.71,-126.92 425.71,-126.92 425.71,-162.92"/>
<text text-anchor="middle" x="398.71" y="-139.87" font-family="Times,serif" font-size="14.00">Topic</text>
</a>
</g>
</g>
<!-- VerifierRole -->
<g id="node7" class="node">
<title>VerifierRole</title>
<g id="a_node7"><a xlink:href="/develop/Data/models.html#verifier-role" xlink:title="VerifierRole" target="_top">
<polygon fill="#eeefff" stroke="#dddeee" points="304.84,-216.92 222.09,-216.92 222.09,-180.92 304.84,-180.92 304.84,-216.92"/>
<text text-anchor="middle" x="263.46" y="-193.87" font-family="Times,serif" font-size="14.00">VerifierRole</text>
</a>
</g>
</g>
<!-- Verifier -->
<g id="node8" class="node">
<title>Verifier</title>
<g id="a_node8"><a xlink:href="/develop/Data/models.html#verifier" xlink:title="Verifier" target="_top">
<polygon fill="#eeefff" stroke="#dddeee" points="427.34,-243.92 370.09,-243.92 370.09,-207.92 427.34,-207.92 427.34,-243.92"/>
<text text-anchor="middle" x="398.71" y="-220.87" font-family="Times,serif" font-size="14.00">Verifier</text>
</a>
</g>
</g>
<!-- Creator -->
<g id="node9" class="node">
<title>Creator</title>
<g id="a_node9"><a xlink:href="/develop/Data/models.html#creator" xlink:title="Creator" target="_top">
<polygon fill="#eeefff" stroke="#dddeee" points="426.96,-70.92 370.46,-70.92 370.46,-34.92 426.96,-34.92 426.96,-70.92"/>
<text text-anchor="middle" x="398.71" y="-47.87" font-family="Times,serif" font-size="14.00">Creator</text>
</a>
</g>
</g>
<!-- Project -->
<g id="node10" class="node">
<title>Project</title>
<g id="a_node10"><a xlink:href="/develop/Data/models.html#project" xlink:title="Project" target="_top">
<polygon fill="#eeefff" stroke="#dddeee" points="290.59,-70.92 236.34,-70.92 236.34,-34.92 290.59,-34.92 290.59,-70.92"/>
<text text-anchor="middle" x="263.46" y="-47.87" font-family="Times,serif" font-size="14.00">Project</text>
</a>
</g>
</g>
<!-- Updater -->
<g id="node11" class="node">
<title>Updater</title>
<g id="a_node11"><a xlink:href="/develop/Data/models.html#updater" xlink:title="Updater" target="_top">
<polygon fill="#eeefff" stroke="#dddeee" points="522.84,-70.92 463.34,-70.92 463.34,-34.92 522.84,-34.92 522.84,-70.92"/>
<text text-anchor="middle" x="493.09" y="-47.87" font-family="Times,serif" font-size="14.00">Updater</text>
</a>
</g>
</g>
</g>
</svg>
