<?xml version="1.0" encoding="UTF-8" standalone="no"?>
<!DOCTYPE svg PUBLIC "-//W3C//DTD SVG 1.1//EN"
 "http://www.w3.org/Graphics/SVG/1.1/DTD/svg11.dtd">
<!-- Generated by graphviz version 12.2.1 (20241206.2353)
 -->
<!-- Title: OtuPageLayoutSection Pages: 1 -->
<svg width="550pt" height="372pt"
 viewBox="0.00 0.00 550.16 372.34" xmlns="http://www.w3.org/2000/svg" xmlns:xlink="http://www.w3.org/1999/xlink">
<g id="graph0" class="graph" transform="scale(1 1) rotate(0) translate(4 368.34)">
<title>OtuPageLayoutSection</title>
<polygon fill="white" stroke="none" points="-4,4 -4,-368.34 546.16,-368.34 546.16,4 -4,4"/>
<!-- OtuPageLayoutSection&#45;&gt;PinboardItem -->
<g id="edge1" class="edge">
<title>OtuPageLayoutSection&#45;&gt;PinboardItem</title>
<path fill="none" stroke="black" d="M126.97,-191.77C152.37,-223.05 201.79,-280.33 252.66,-319.34 253.78,-320.2 254.92,-321.04 256.08,-321.87"/>
<polygon fill="black" stroke="black" points="253.82,-324.57 264.1,-327.13 257.67,-318.72 253.82,-324.57"/>
</g>
<!-- OtuPageLayoutSection&#45;&gt;Role -->
<g id="edge2" class="edge">
<title>OtuPageLayoutSection&#45;&gt;Role</title>
<path fill="none" stroke="black" d="M140.96,-191.72C169.66,-211.73 213.36,-241.5 252.66,-265.34 256.91,-267.92 261.42,-270.54 265.92,-273.08"/>
<polygon fill="black" stroke="black" points="263.89,-275.96 274.33,-277.75 267.28,-269.84 263.89,-275.96"/>
</g>
<!-- OtuPageLayoutSection&#45;&gt;VerifierRole -->
<g id="edge3" class="edge">
<title>OtuPageLayoutSection&#45;&gt;VerifierRole</title>
<path fill="none" stroke="black" d="M165.59,-189.49C192.54,-199.14 224.58,-210.61 250.84,-220.01"/>
<polygon fill="black" stroke="black" points="249.32,-223.18 259.91,-223.26 251.68,-216.59 249.32,-223.18"/>
</g>
<!-- OtuPageLayoutSection&#45;&gt;Creator -->
<g id="edge5" class="edge">
<title>OtuPageLayoutSection&#45;&gt;Creator</title>
<path fill="none" stroke="black" stroke-dasharray="5,2" d="M191.58,-188.67C240.92,-196.01 303.55,-197.58 353.41,-173.34 380.11,-160.37 398.94,-130.16 408.88,-110.53"/>
<polygon fill="black" stroke="black" points="192.23,-185.23 181.8,-187.1 191.12,-192.14 192.23,-185.23"/>
</g>
<!-- OtuPageLayoutSection&#45;&gt;OtuPageLayout -->
<g id="edge6" class="edge">
<title>OtuPageLayoutSection&#45;&gt;OtuPageLayout</title>
<path fill="none" stroke="black" stroke-dasharray="5,2" d="M222.64,-155.82C232.98,-154.59 243.06,-153.38 252.37,-152.27"/>
<polygon fill="black" stroke="black" points="222.35,-152.33 212.83,-156.99 223.18,-159.28 222.35,-152.33"/>
</g>
<!-- OtuPageLayoutSection&#45;&gt;Project -->
<g id="edge7" class="edge">
<title>OtuPageLayoutSection&#45;&gt;Project</title>
<path fill="none" stroke="black" stroke-dasharray="5,2" d="M172.13,-144.25C207.2,-130.24 249.06,-113.51 275.59,-102.91"/>
<polygon fill="black" stroke="black" points="170.87,-140.98 162.89,-147.94 173.47,-147.48 170.87,-140.98"/>
</g>
<!-- OtuPageLayoutSection&#45;&gt;Topic -->
<g id="edge8" class="edge">
<title>OtuPageLayoutSection&#45;&gt;Topic</title>
<path fill="none" stroke="black" stroke-dasharray="5,2" d="M146.73,-140.19C175.13,-118.55 215.5,-88.85 252.66,-65.34 259.93,-60.75 268.04,-56.12 275.54,-52.03"/>
<polygon fill="black" stroke="black" points="144.96,-137.14 139.15,-145.99 149.22,-142.69 144.96,-137.14"/>
</g>
<!-- OtuPageLayoutSection&#45;&gt;Updater -->
<g id="edge9" class="edge">
<title>OtuPageLayoutSection&#45;&gt;Updater</title>
<path fill="none" stroke="black" stroke-dasharray="5,2" d="M127.01,-137.27C150.16,-99.02 194.69,-37.03 252.66,-11.34 336.16,25.64 441.7,-39.94 487.93,-73.88"/>
<polygon fill="black" stroke="black" points="124.16,-135.22 122.09,-145.61 130.19,-138.78 124.16,-135.22"/>
</g>
<!-- Role&#45;&gt;Verifier -->
<!-- VerifierRole&#45;&gt;Verifier -->
<g id="edge4" class="edge">
<title>VerifierRole&#45;&gt;Verifier</title>
<path fill="none" stroke="black" stroke-dasharray="1,5" d="M344.84,-248.09C355.61,-250.66 367.2,-253.44 377.89,-255.99"/>
<polygon fill="black" stroke="black" points="377.02,-259.38 387.56,-258.3 378.65,-252.57 377.02,-259.38"/>
</g>
<!-- Creator&#45;&gt;Updater -->
<!-- Project&#45;&gt;Creator -->
<!-- OtuPageLayoutSection -->
<g id="node1" class="node">
<title>OtuPageLayoutSection</title>
<g id="a_node1"><a xlink:href="/develop/Data/models.html#otu-page-layout-section" xlink:title="OtuPageLayoutSection" target="_top">
<polygon fill="#cdefab" stroke="#dedede" points="212.66,-161.89 212.66,-176.8 151.55,-187.34 65.12,-187.34 4,-176.8 4,-161.89 65.12,-151.34 151.55,-151.34 212.66,-161.89"/>
<polygon fill="none" stroke="#dedede" points="216.66,-158.52 216.66,-180.17 151.89,-191.34 64.77,-191.34 0,-180.17 0,-158.52 64.77,-147.34 151.89,-147.34 216.66,-158.52"/>
<text text-anchor="middle" x="108.33" y="-164.29" font-family="Times,serif" font-size="14.00">OtuPageLayoutSection</text>
</a>
</g>
</g>
<!-- PinboardItem -->
<g id="node2" class="node">
<title>PinboardItem</title>
<g id="a_node2"><a xlink:href="/develop/Data/models.html#pinboard-item" xlink:title="PinboardItem" target="_top">
<polygon fill="#eeefff" stroke="#dddeee" points="348.16,-364.34 257.91,-364.34 257.91,-328.34 348.16,-328.34 348.16,-364.34"/>
<text text-anchor="middle" x="303.04" y="-341.29" font-family="Times,serif" font-size="14.00">PinboardItem</text>
</a>
</g>
</g>
<!-- Role -->
<g id="node3" class="node">
<title>Role</title>
<g id="a_node3"><a xlink:href="/develop/Data/models.html#role" xlink:title="Role" target="_top">
<polygon fill="#eeefff" stroke="#dddeee" points="330.04,-310.34 276.04,-310.34 276.04,-274.34 330.04,-274.34 330.04,-310.34"/>
<text text-anchor="middle" x="303.04" y="-287.29" font-family="Times,serif" font-size="14.00">Role</text>
</a>
</g>
</g>
<!-- VerifierRole -->
<g id="node4" class="node">
<title>VerifierRole</title>
<g id="a_node4"><a xlink:href="/develop/Data/models.html#verifier-role" xlink:title="VerifierRole" target="_top">
<polygon fill="#eeefff" stroke="#dddeee" points="344.41,-256.34 261.66,-256.34 261.66,-220.34 344.41,-220.34 344.41,-256.34"/>
<text text-anchor="middle" x="303.04" y="-233.29" font-family="Times,serif" font-size="14.00">VerifierRole</text>
</a>
</g>
</g>
<!-- Verifier -->
<g id="node5" class="node">
<title>Verifier</title>
<g id="a_node5"><a xlink:href="/develop/Data/models.html#verifier" xlink:title="Verifier" target="_top">
<polygon fill="#eeefff" stroke="#dddeee" points="446.66,-283.34 389.41,-283.34 389.41,-247.34 446.66,-247.34 446.66,-283.34"/>
<text text-anchor="middle" x="418.04" y="-260.29" font-family="Times,serif" font-size="14.00">Verifier</text>
</a>
</g>
</g>
<!-- Creator -->
<g id="node6" class="node">
<title>Creator</title>
<g id="a_node6"><a xlink:href="/develop/Data/models.html#creator" xlink:title="Creator" target="_top">
<polygon fill="#eeefff" stroke="#dddeee" points="446.29,-110.34 389.79,-110.34 389.79,-74.34 446.29,-74.34 446.29,-110.34"/>
<text text-anchor="middle" x="418.04" y="-87.29" font-family="Times,serif" font-size="14.00">Creator</text>
</a>
</g>
</g>
<!-- OtuPageLayout -->
<g id="node7" class="node">
<title>OtuPageLayout</title>
<g id="a_node7"><a xlink:href="/develop/Data/models.html#otu-page-layout" xlink:title="OtuPageLayout" target="_top">
<polygon fill="#eeefff" stroke="#dddeee" points="353.41,-164.34 252.66,-164.34 252.66,-128.34 353.41,-128.34 353.41,-164.34"/>
<text text-anchor="middle" x="303.04" y="-141.29" font-family="Times,serif" font-size="14.00">OtuPageLayout</text>
</a>
</g>
</g>
<!-- Project -->
<g id="node8" class="node">
<title>Project</title>
<g id="a_node8"><a xlink:href="/develop/Data/models.html#project" xlink:title="Project" target="_top">
<polygon fill="#eeefff" stroke="#dddeee" points="330.16,-110.34 275.91,-110.34 275.91,-74.34 330.16,-74.34 330.16,-110.34"/>
<text text-anchor="middle" x="303.04" y="-87.29" font-family="Times,serif" font-size="14.00">Project</text>
</a>
</g>
</g>
<!-- Topic -->
<g id="node9" class="node">
<title>Topic</title>
<g id="a_node9"><a xlink:href="/develop/Data/models.html#topic" xlink:title="Topic" target="_top">
<polygon fill="#eeefff" stroke="#dddeee" points="330.04,-56.34 276.04,-56.34 276.04,-20.34 330.04,-20.34 330.04,-56.34"/>
<text text-anchor="middle" x="303.04" y="-33.29" font-family="Times,serif" font-size="14.00">Topic</text>
</a>
</g>
</g>
<!-- Updater -->
<g id="node10" class="node">
<title>Updater</title>
<g id="a_node10"><a xlink:href="/develop/Data/models.html#updater" xlink:title="Updater" target="_top">
<polygon fill="#eeefff" stroke="#dddeee" points="542.16,-110.34 482.66,-110.34 482.66,-74.34 542.16,-74.34 542.16,-110.34"/>
<text text-anchor="middle" x="512.41" y="-87.29" font-family="Times,serif" font-size="14.00">Updater</text>
</a>
</g>
</g>
</g>
</svg>
