<?xml version="1.0" encoding="UTF-8" standalone="no"?>
<!DOCTYPE svg PUBLIC "-//W3C//DTD SVG 1.1//EN"
 "http://www.w3.org/Graphics/SVG/1.1/DTD/svg11.dtd">
<!-- Generated by graphviz version 2.50.0 (20211204.2007)
 -->
<!-- Title: OtuPageLayoutSection Pages: 1 -->
<svg width="542pt" height="373pt"
 viewBox="0.00 0.00 541.79 372.65" xmlns="http://www.w3.org/2000/svg" xmlns:xlink="http://www.w3.org/1999/xlink">
<g id="graph0" class="graph" transform="scale(1 1) rotate(0) translate(4 368.65)">
<title>OtuPageLayoutSection</title>
<polygon fill="white" stroke="transparent" points="-4,4 -4,-368.65 537.79,-368.65 537.79,4 -4,4"/>
<!-- OtuPageLayoutSection&#45;&gt;PinboardItem -->
<g id="edge1" class="edge">
<title>OtuPageLayoutSection&#45;&gt;PinboardItem</title>
<path fill="none" stroke="black" d="M121.63,-191.87C146,-223.16 193.81,-280.73 243.79,-319.65 245.17,-320.73 246.6,-321.79 248.07,-322.82"/>
<polygon fill="black" stroke="black" points="246.46,-325.95 256.74,-328.5 250.29,-320.1 246.46,-325.95"/>
</g>
<!-- OtuPageLayoutSection&#45;&gt;Role -->
<g id="edge2" class="edge">
<title>OtuPageLayoutSection&#45;&gt;Role</title>
<path fill="none" stroke="black" d="M134.9,-191.76C162.62,-211.85 205.23,-241.9 243.79,-265.65 248.31,-268.44 253.14,-271.26 257.94,-273.97"/>
<polygon fill="black" stroke="black" points="256.61,-277.23 267.05,-279.01 260,-271.1 256.61,-277.23"/>
</g>
<!-- OtuPageLayoutSection&#45;&gt;VerifierRole -->
<g id="edge3" class="edge">
<title>OtuPageLayoutSection&#45;&gt;VerifierRole</title>
<path fill="none" stroke="black" d="M158.63,-189.34C185.15,-199.05 216.96,-210.7 242.99,-220.23"/>
<polygon fill="black" stroke="black" points="242.07,-223.62 252.67,-223.78 244.48,-217.05 242.07,-223.62"/>
</g>
<!-- OtuPageLayoutSection&#45;&gt;Creator -->
<g id="edge5" class="edge">
<title>OtuPageLayoutSection&#45;&gt;Creator</title>
<path fill="none" stroke="black" stroke-dasharray="5,2" d="M183.23,-188.31C232.1,-195.87 294.95,-197.91 344.79,-173.65 371.46,-160.67 390.24,-130.47 400.15,-110.84"/>
<polygon fill="black" stroke="black" points="183.78,-184.86 173.34,-186.68 182.64,-191.76 183.78,-184.86"/>
</g>
<!-- OtuPageLayoutSection&#45;&gt;OtuPageLayout -->
<g id="edge6" class="edge">
<title>OtuPageLayoutSection&#45;&gt;OtuPageLayout</title>
<path fill="none" stroke="black" stroke-dasharray="5,2" d="M212.22,-156.55C223.15,-155.22 233.84,-153.91 243.69,-152.71"/>
<polygon fill="black" stroke="black" points="211.63,-153.1 202.13,-157.78 212.48,-160.05 211.63,-153.1"/>
</g>
<!-- OtuPageLayoutSection&#45;&gt;Project -->
<g id="edge7" class="edge">
<title>OtuPageLayoutSection&#45;&gt;Project</title>
<path fill="none" stroke="black" stroke-dasharray="5,2" d="M164.36,-145.35C198.68,-131.32 240.16,-114.37 266.63,-103.55"/>
<polygon fill="black" stroke="black" points="162.82,-142.2 154.89,-149.22 165.47,-148.68 162.82,-142.2"/>
</g>
<!-- OtuPageLayoutSection&#45;&gt;Topic -->
<g id="edge8" class="edge">
<title>OtuPageLayoutSection&#45;&gt;Topic</title>
<path fill="none" stroke="black" stroke-dasharray="5,2" d="M140.12,-141.06C167.61,-119.3 207.16,-89.19 243.79,-65.65 251.2,-60.89 259.52,-56.14 267.19,-51.98"/>
<polygon fill="black" stroke="black" points="137.64,-138.57 131.99,-147.53 142,-144.04 137.64,-138.57"/>
</g>
<!-- OtuPageLayoutSection&#45;&gt;Updater -->
<g id="edge9" class="edge">
<title>OtuPageLayoutSection&#45;&gt;Updater</title>
<path fill="none" stroke="black" stroke-dasharray="5,2" d="M121.31,-138.41C143.34,-100.25 186.43,-37.61 243.79,-11.65 327.5,26.21 433.96,-40.61 479.94,-74.6"/>
<polygon fill="black" stroke="black" points="118.02,-137.11 116.17,-147.54 124.12,-140.55 118.02,-137.11"/>
</g>
<!-- Role&#45;&gt;Verifier -->
<!-- VerifierRole&#45;&gt;Verifier -->
<g id="edge4" class="edge">
<title>VerifierRole&#45;&gt;Verifier</title>
<path fill="none" stroke="black" d="M336.09,-248.4C347.41,-251.11 359.65,-254.03 370.78,-256.69"/>
<polygon fill="black" stroke="black" points="370.09,-260.13 380.63,-259.05 371.72,-253.32 370.09,-260.13"/>
</g>
<!-- Creator&#45;&gt;Updater -->
<!-- Project&#45;&gt;Creator -->
<!-- OtuPageLayoutSection -->
<g id="node1" class="node">
<title>OtuPageLayoutSection</title>
<g id="a_node1"><a xlink:href="/develop/Data/models.html#otu-page-layout-section" xlink:title="OtuPageLayoutSection" target="_top">
<polygon fill="#cdefab" stroke="#dedede" points="203.69,-162.2 203.69,-177.11 145.23,-187.65 62.56,-187.65 4.1,-177.11 4.1,-162.2 62.56,-151.65 145.23,-151.65 203.69,-162.2"/>
<polygon fill="none" stroke="#dedede" points="207.69,-158.86 207.69,-180.45 145.59,-191.65 62.2,-191.65 0.1,-180.45 0.1,-158.86 62.2,-147.65 145.59,-147.65 207.69,-158.86"/>
<text text-anchor="middle" x="103.9" y="-165.95" font-family="Times,serif" font-size="14.00">OtuPageLayoutSection</text>
</a>
</g>
</g>
<!-- PinboardItem -->
<g id="node2" class="node">
<title>PinboardItem</title>
<g id="a_node2"><a xlink:href="/develop/Data/models.html#pinboard-item" xlink:title="PinboardItem" target="_top">
<polygon fill="#eeefff" stroke="#dddeee" points="339.79,-364.65 248.79,-364.65 248.79,-328.65 339.79,-328.65 339.79,-364.65"/>
<text text-anchor="middle" x="294.29" y="-342.95" font-family="Times,serif" font-size="14.00">PinboardItem</text>
</a>
</g>
</g>
<!-- Role -->
<g id="node3" class="node">
<title>Role</title>
<g id="a_node3"><a xlink:href="/develop/Data/models.html#role" xlink:title="Role" target="_top">
<polygon fill="#eeefff" stroke="#dddeee" points="321.29,-310.65 267.29,-310.65 267.29,-274.65 321.29,-274.65 321.29,-310.65"/>
<text text-anchor="middle" x="294.29" y="-288.95" font-family="Times,serif" font-size="14.00">Role</text>
</a>
</g>
</g>
<!-- VerifierRole -->
<g id="node4" class="node">
<title>VerifierRole</title>
<g id="a_node4"><a xlink:href="/develop/Data/models.html#verifier-role" xlink:title="VerifierRole" target="_top">
<polygon fill="#eeefff" stroke="#dddeee" points="335.79,-256.65 252.79,-256.65 252.79,-220.65 335.79,-220.65 335.79,-256.65"/>
<text text-anchor="middle" x="294.29" y="-234.95" font-family="Times,serif" font-size="14.00">VerifierRole</text>
</a>
</g>
</g>
<!-- Verifier -->
<g id="node5" class="node">
<title>Verifier</title>
<g id="a_node5"><a xlink:href="/develop/Data/models.html#verifier" xlink:title="Verifier" target="_top">
<polygon fill="#eeefff" stroke="#dddeee" points="437.79,-283.65 380.79,-283.65 380.79,-247.65 437.79,-247.65 437.79,-283.65"/>
<text text-anchor="middle" x="409.29" y="-261.95" font-family="Times,serif" font-size="14.00">Verifier</text>
</a>
</g>
</g>
<!-- Creator -->
<g id="node6" class="node">
<title>Creator</title>
<g id="a_node6"><a xlink:href="/develop/Data/models.html#creator" xlink:title="Creator" target="_top">
<polygon fill="#eeefff" stroke="#dddeee" points="437.79,-110.65 380.79,-110.65 380.79,-74.65 437.79,-74.65 437.79,-110.65"/>
<text text-anchor="middle" x="409.29" y="-88.95" font-family="Times,serif" font-size="14.00">Creator</text>
</a>
</g>
</g>
<!-- OtuPageLayout -->
<g id="node7" class="node">
<title>OtuPageLayout</title>
<g id="a_node7"><a xlink:href="/develop/Data/models.html#otu-page-layout" xlink:title="OtuPageLayout" target="_top">
<polygon fill="#eeefff" stroke="#dddeee" points="344.79,-164.65 243.79,-164.65 243.79,-128.65 344.79,-128.65 344.79,-164.65"/>
<text text-anchor="middle" x="294.29" y="-142.95" font-family="Times,serif" font-size="14.00">OtuPageLayout</text>
</a>
</g>
</g>
<!-- Project -->
<g id="node8" class="node">
<title>Project</title>
<g id="a_node8"><a xlink:href="/develop/Data/models.html#project" xlink:title="Project" target="_top">
<polygon fill="#eeefff" stroke="#dddeee" points="321.79,-110.65 266.79,-110.65 266.79,-74.65 321.79,-74.65 321.79,-110.65"/>
<text text-anchor="middle" x="294.29" y="-88.95" font-family="Times,serif" font-size="14.00">Project</text>
</a>
</g>
</g>
<!-- Topic -->
<g id="node9" class="node">
<title>Topic</title>
<g id="a_node9"><a xlink:href="/develop/Data/models.html#topic" xlink:title="Topic" target="_top">
<polygon fill="#eeefff" stroke="#dddeee" points="321.29,-56.65 267.29,-56.65 267.29,-20.65 321.29,-20.65 321.29,-56.65"/>
<text text-anchor="middle" x="294.29" y="-34.95" font-family="Times,serif" font-size="14.00">Topic</text>
</a>
</g>
</g>
<!-- Updater -->
<g id="node10" class="node">
<title>Updater</title>
<g id="a_node10"><a xlink:href="/develop/Data/models.html#updater" xlink:title="Updater" target="_top">
<polygon fill="#eeefff" stroke="#dddeee" points="533.79,-110.65 473.79,-110.65 473.79,-74.65 533.79,-74.65 533.79,-110.65"/>
<text text-anchor="middle" x="503.79" y="-88.95" font-family="Times,serif" font-size="14.00">Updater</text>
</a>
</g>
</g>
</g>
</svg>
