<?xml version="1.0" encoding="UTF-8" standalone="no"?>
<!DOCTYPE svg PUBLIC "-//W3C//DTD SVG 1.1//EN"
 "http://www.w3.org/Graphics/SVG/1.1/DTD/svg11.dtd">
<!-- Generated by graphviz version 2.50.0 (20211204.2007)
 -->
<!-- Title: OtuPageLayout Pages: 1 -->
<svg width="671pt" height="425pt"
 viewBox="0.00 0.00 671.00 425.25" xmlns="http://www.w3.org/2000/svg" xmlns:xlink="http://www.w3.org/1999/xlink">
<g id="graph0" class="graph" transform="scale(1 1) rotate(0) translate(4 421.25)">
<title>OtuPageLayout</title>
<polygon fill="white" stroke="transparent" points="-4,4 -4,-421.25 667,-421.25 667,4 -4,4"/>
<text text-anchor="middle" x="331.5" y="-22.8" font-family="Times,serif" font-size="14.00">Algorithmically generated relationships for OtuPageLayout based on assertions of &#39;has_many&#39;, &#39;has_one&#39;, &#39;belongs_to&#39;. </text>
<text text-anchor="middle" x="331.5" y="-7.8" font-family="Times,serif" font-size="14.00">Generated 2022&#45;01&#45;25 11:43:33 &#45;0600.</text>
<!-- OtuPageLayout&#45;&gt;OtuPageLayoutSection -->
<g id="edge1" class="edge">
<title>OtuPageLayout&#45;&gt;OtuPageLayoutSection</title>
<path fill="none" stroke="black" d="M158.59,-232.25C174.64,-266.67 210.06,-333.34 259.05,-372.25 260.62,-373.49 262.25,-374.68 263.94,-375.83"/>
<polygon fill="black" stroke="black" points="262.34,-378.95 272.71,-381.13 265.96,-372.96 262.34,-378.95"/>
</g>
<!-- OtuPageLayout&#45;&gt;PinboardItem -->
<g id="edge2" class="edge">
<title>OtuPageLayout&#45;&gt;PinboardItem</title>
<path fill="none" stroke="black" d="M166.75,-232.42C186.93,-256.38 221.92,-294.33 259.05,-318.25 264.03,-321.45 269.45,-324.37 275,-327.01"/>
<polygon fill="black" stroke="black" points="273.84,-330.32 284.4,-331.17 276.67,-323.92 273.84,-330.32"/>
</g>
<!-- OtuPageLayout&#45;&gt;Role -->
<g id="edge3" class="edge">
<title>OtuPageLayout&#45;&gt;Role</title>
<path fill="none" stroke="black" d="M187.06,-229.95C208.08,-240.57 234.77,-253.63 259.05,-264.25 270.13,-269.09 282.38,-273.97 293.49,-278.22"/>
<polygon fill="black" stroke="black" points="292.31,-281.52 302.9,-281.78 294.79,-274.97 292.31,-281.52"/>
</g>
<!-- OtuPageLayout&#45;&gt;StandardSection -->
<g id="edge4" class="edge">
<title>OtuPageLayout&#45;&gt;StandardSection</title>
<path fill="none" stroke="black" d="M221.97,-199.3C237.1,-197.03 252.9,-194.67 267.56,-192.47"/>
<polygon fill="black" stroke="black" points="268.15,-195.92 277.52,-190.97 267.11,-189 268.15,-195.92"/>
</g>
<!-- OtuPageLayout&#45;&gt;VerifierRole -->
<g id="edge6" class="edge">
<title>OtuPageLayout&#45;&gt;VerifierRole</title>
<path fill="none" stroke="black" d="M221.97,-221.19C240.96,-224.04 261,-227.04 278.54,-229.67"/>
<polygon fill="black" stroke="black" points="278.14,-233.15 288.55,-231.17 279.18,-226.23 278.14,-233.15"/>
</g>
<!-- OtuPageLayout&#45;&gt;Creator -->
<g id="edge8" class="edge">
<title>OtuPageLayout&#45;&gt;Creator</title>
<path fill="none" stroke="black" stroke-dasharray="5,2" d="M194.82,-185.27C214.25,-175.35 237.38,-164.38 259.05,-156.25 320.22,-133.3 339.28,-139.52 401.05,-118.25 412.95,-114.15 425.76,-108.87 436.75,-104.07"/>
<polygon fill="black" stroke="black" points="193.16,-182.19 185.89,-189.9 196.38,-188.41 193.16,-182.19"/>
</g>
<!-- OtuPageLayout&#45;&gt;Project -->
<g id="edge9" class="edge">
<title>OtuPageLayout&#45;&gt;Project</title>
<path fill="none" stroke="black" stroke-dasharray="5,2" d="M181.24,-181.36C202.41,-163.27 231.23,-140.26 259.05,-123.25 272.73,-114.88 288.97,-107.33 302.36,-101.66"/>
<polygon fill="black" stroke="black" points="178.8,-178.84 173.52,-188.03 183.38,-184.14 178.8,-178.84"/>
</g>
<!-- OtuPageLayout&#45;&gt;Updater -->
<g id="edge10" class="edge">
<title>OtuPageLayout&#45;&gt;Updater</title>
<path fill="none" stroke="black" stroke-dasharray="5,2" d="M162.23,-178.61C178.95,-143.3 211.4,-88 259.05,-64.25 352.53,-17.65 391.63,-43.82 494.05,-64.25 506.16,-66.66 518.83,-71.37 529.73,-76.19"/>
<polygon fill="black" stroke="black" points="158.92,-177.45 157.94,-188 165.28,-180.37 158.92,-177.45"/>
</g>
<!-- Role&#45;&gt;Verifier -->
<!-- StandardSection&#45;&gt;Topic -->
<g id="edge5" class="edge">
<title>StandardSection&#45;&gt;Topic</title>
<path fill="none" stroke="black" d="M382.67,-183.25C397.87,-183.25 414.18,-183.25 428.21,-183.25"/>
<polygon fill="black" stroke="black" points="428.43,-186.75 438.43,-183.25 428.43,-179.75 428.43,-186.75"/>
</g>
<!-- VerifierRole&#45;&gt;Verifier -->
<g id="edge7" class="edge">
<title>VerifierRole&#45;&gt;Verifier</title>
<path fill="none" stroke="black" d="M371.83,-245.49C389.23,-249.01 409.42,-253.1 426.51,-256.55"/>
<polygon fill="black" stroke="black" points="426.2,-260.06 436.69,-258.61 427.59,-253.2 426.2,-260.06"/>
</g>
<!-- Creator&#45;&gt;Updater -->
<!-- Project&#45;&gt;Creator -->
<!-- OtuPageLayout -->
<g id="node1" class="node">
<title>OtuPageLayout</title>
<g id="a_node1"><a xlink:href="/develop/Data/models.html#otu-page-layout" xlink:title="OtuPageLayout" target="_top">
<polygon fill="#cdefab" stroke="#dedede" points="219.1,-202.79 219.1,-217.7 177.45,-228.25 118.55,-228.25 76.9,-217.7 76.9,-202.79 118.55,-192.25 177.45,-192.25 219.1,-202.79"/>
<polygon fill="none" stroke="#dedede" points="223.11,-199.68 223.11,-220.81 177.95,-232.25 118.05,-232.25 72.89,-220.81 72.89,-199.68 118.05,-188.25 177.95,-188.25 223.11,-199.68"/>
<text text-anchor="middle" x="148" y="-206.55" font-family="Times,serif" font-size="14.00">OtuPageLayout</text>
</a>
</g>
</g>
<!-- OtuPageLayoutSection -->
<g id="node2" class="node">
<title>OtuPageLayoutSection</title>
<g id="a_node2"><a xlink:href="/develop/Data/models.html#otu-page-layout-section" xlink:title="OtuPageLayoutSection" target="_top">
<polygon fill="#eeefff" stroke="#dddeee" points="401.05,-417.25 259.05,-417.25 259.05,-381.25 401.05,-381.25 401.05,-417.25"/>
<text text-anchor="middle" x="330.05" y="-395.55" font-family="Times,serif" font-size="14.00">OtuPageLayoutSection</text>
</a>
</g>
</g>
<!-- PinboardItem -->
<g id="node3" class="node">
<title>PinboardItem</title>
<g id="a_node3"><a xlink:href="/develop/Data/models.html#pinboard-item" xlink:title="PinboardItem" target="_top">
<polygon fill="#eeefff" stroke="#dddeee" points="375.55,-363.25 284.55,-363.25 284.55,-327.25 375.55,-327.25 375.55,-363.25"/>
<text text-anchor="middle" x="330.05" y="-341.55" font-family="Times,serif" font-size="14.00">PinboardItem</text>
</a>
</g>
</g>
<!-- Role -->
<g id="node4" class="node">
<title>Role</title>
<g id="a_node4"><a xlink:href="/develop/Data/models.html#role" xlink:title="Role" target="_top">
<polygon fill="#eeefff" stroke="#dddeee" points="357.05,-309.25 303.05,-309.25 303.05,-273.25 357.05,-273.25 357.05,-309.25"/>
<text text-anchor="middle" x="330.05" y="-287.55" font-family="Times,serif" font-size="14.00">Role</text>
</a>
</g>
</g>
<!-- StandardSection -->
<g id="node5" class="node">
<title>StandardSection</title>
<g id="a_node5"><a xlink:href="/develop/Data/models.html#standard-section" xlink:title="StandardSection" target="_top">
<polygon fill="#eeefff" stroke="#dddeee" points="382.55,-201.25 277.55,-201.25 277.55,-165.25 382.55,-165.25 382.55,-201.25"/>
<text text-anchor="middle" x="330.05" y="-179.55" font-family="Times,serif" font-size="14.00">StandardSection</text>
</a>
</g>
</g>
<!-- Topic -->
<g id="node6" class="node">
<title>Topic</title>
<g id="a_node6"><a xlink:href="/develop/Data/models.html#topic" xlink:title="Topic" target="_top">
<polygon fill="#eeefff" stroke="#dddeee" points="492.55,-201.25 438.55,-201.25 438.55,-165.25 492.55,-165.25 492.55,-201.25"/>
<text text-anchor="middle" x="465.55" y="-179.55" font-family="Times,serif" font-size="14.00">Topic</text>
</a>
</g>
</g>
<!-- VerifierRole -->
<g id="node7" class="node">
<title>VerifierRole</title>
<g id="a_node7"><a xlink:href="/develop/Data/models.html#verifier-role" xlink:title="VerifierRole" target="_top">
<polygon fill="#eeefff" stroke="#dddeee" points="371.55,-255.25 288.55,-255.25 288.55,-219.25 371.55,-219.25 371.55,-255.25"/>
<text text-anchor="middle" x="330.05" y="-233.55" font-family="Times,serif" font-size="14.00">VerifierRole</text>
</a>
</g>
</g>
<!-- Verifier -->
<g id="node8" class="node">
<title>Verifier</title>
<g id="a_node8"><a xlink:href="/develop/Data/models.html#verifier" xlink:title="Verifier" target="_top">
<polygon fill="#eeefff" stroke="#dddeee" points="494.05,-282.25 437.05,-282.25 437.05,-246.25 494.05,-246.25 494.05,-282.25"/>
<text text-anchor="middle" x="465.55" y="-260.55" font-family="Times,serif" font-size="14.00">Verifier</text>
</a>
</g>
</g>
<!-- Creator -->
<g id="node9" class="node">
<title>Creator</title>
<g id="a_node9"><a xlink:href="/develop/Data/models.html#creator" xlink:title="Creator" target="_top">
<polygon fill="#eeefff" stroke="#dddeee" points="494.05,-109.25 437.05,-109.25 437.05,-73.25 494.05,-73.25 494.05,-109.25"/>
<text text-anchor="middle" x="465.55" y="-87.55" font-family="Times,serif" font-size="14.00">Creator</text>
</a>
</g>
</g>
<!-- Project -->
<g id="node10" class="node">
<title>Project</title>
<g id="a_node10"><a xlink:href="/develop/Data/models.html#project" xlink:title="Project" target="_top">
<polygon fill="#eeefff" stroke="#dddeee" points="357.55,-109.25 302.55,-109.25 302.55,-73.25 357.55,-73.25 357.55,-109.25"/>
<text text-anchor="middle" x="330.05" y="-87.55" font-family="Times,serif" font-size="14.00">Project</text>
</a>
</g>
</g>
<!-- Updater -->
<g id="node11" class="node">
<title>Updater</title>
<g id="a_node11"><a xlink:href="/develop/Data/models.html#updater" xlink:title="Updater" target="_top">
<polygon fill="#eeefff" stroke="#dddeee" points="590.05,-109.25 530.05,-109.25 530.05,-73.25 590.05,-73.25 590.05,-109.25"/>
<text text-anchor="middle" x="560.05" y="-87.55" font-family="Times,serif" font-size="14.00">Updater</text>
</a>
</g>
</g>
</g>
</svg>
