<?xml version="1.0" encoding="UTF-8" standalone="no"?>
<!DOCTYPE svg PUBLIC "-//W3C//DTD SVG 1.1//EN"
 "http://www.w3.org/Graphics/SVG/1.1/DTD/svg11.dtd">
<!-- Generated by graphviz version 2.50.0 (20211204.2007)
 -->
<!-- Title: Otu Pages: 1 -->
<svg width="1189pt" height="1389pt"
 viewBox="0.00 0.00 1189.29 1389.00" xmlns="http://www.w3.org/2000/svg" xmlns:xlink="http://www.w3.org/1999/xlink">
<g id="graph0" class="graph" transform="scale(1 1) rotate(0) translate(4 1385)">
<title>Otu</title>
<polygon fill="white" stroke="transparent" points="-4,4 -4,-1385 1185.29,-1385 1185.29,4 -4,4"/>
<text text-anchor="middle" x="590.64" y="-22.8" font-family="Times,serif" font-size="14.00">Algorithmically generated relationships for Otu based on assertions of &#39;has_many&#39;, &#39;has_one&#39;, &#39;belongs_to&#39;. </text>
<text text-anchor="middle" x="590.64" y="-7.8" font-family="Times,serif" font-size="14.00">Generated 2022&#45;01&#45;25 11:38:14 &#45;0600.</text>
<!-- Citation&#45;&gt;Source -->
<g id="edge38" class="edge">
<title>Citation&#45;&gt;Source</title>
<path fill="none" stroke="black" d="M98.22,-1308C161.09,-1308 285.76,-1308 347.46,-1308"/>
<polygon fill="black" stroke="black" points="347.51,-1311.5 357.51,-1308 347.51,-1304.5 347.51,-1311.5"/>
</g>
<!-- Citation&#45;&gt;CitationTopic -->
<g id="edge3" class="edge">
<title>Citation&#45;&gt;CitationTopic</title>
<path fill="none" stroke="black" d="M90.02,-1319.13C108.07,-1325.85 131.63,-1334.63 152.93,-1342.56"/>
<polygon fill="black" stroke="black" points="151.94,-1345.93 162.53,-1346.14 154.38,-1339.37 151.94,-1345.93"/>
</g>
<!-- Confidence&#45;&gt;ConfidenceLevel -->
<g id="edge9" class="edge">
<title>Confidence&#45;&gt;ConfidenceLevel</title>
<path fill="none" stroke="black" d="M110.13,-667C120.96,-667 132.55,-667 143.82,-667"/>
<polygon fill="black" stroke="black" points="144.06,-670.5 154.06,-667 144.06,-663.5 144.06,-670.5"/>
</g>
<!-- Depiction&#45;&gt;Image -->
<g id="edge23" class="edge">
<title>Depiction&#45;&gt;Image</title>
<path fill="none" stroke="black" d="M104.84,-613C126.24,-613 151.52,-613 171.67,-613"/>
<polygon fill="black" stroke="black" points="171.7,-616.5 181.7,-613 171.7,-609.5 171.7,-616.5"/>
</g>
<!-- Tag&#45;&gt;Keyword -->
<g id="edge24" class="edge">
<title>Tag&#45;&gt;Keyword</title>
<path fill="none" stroke="black" d="M86.2,-559C108.03,-559 139.62,-559 165.13,-559"/>
<polygon fill="black" stroke="black" points="165.29,-562.5 175.29,-559 165.29,-555.5 165.29,-562.5"/>
</g>
<!-- Otu&#45;&gt;Citation -->
<g id="edge4" class="edge">
<title>Otu&#45;&gt;Citation</title>
<path fill="none" stroke="black" d="M202.19,-747.1C179.28,-837.59 92.6,-1179.85 67.19,-1280.19"/>
<polygon fill="black" stroke="black" points="63.79,-1279.36 64.73,-1289.91 70.57,-1281.08 63.79,-1279.36"/>
</g>
<!-- Otu&#45;&gt;Confidence -->
<g id="edge10" class="edge">
<title>Otu&#45;&gt;Confidence</title>
<path fill="none" stroke="black" d="M179.53,-713.9C158.01,-705.45 128.01,-693.66 103.47,-684.02"/>
<polygon fill="black" stroke="black" points="104.6,-680.71 94.02,-680.31 102.05,-687.22 104.6,-680.71"/>
</g>
<!-- Otu&#45;&gt;DataAttribute -->
<g id="edge13" class="edge">
<title>Otu&#45;&gt;DataAttribute</title>
<path fill="none" stroke="black" d="M177.63,-724.18C163.3,-723.79 145.54,-723.31 128.2,-722.84"/>
<polygon fill="black" stroke="black" points="128.17,-719.34 118.07,-722.57 127.98,-726.34 128.17,-719.34"/>
</g>
<!-- Otu&#45;&gt;Depiction -->
<g id="edge14" class="edge">
<title>Otu&#45;&gt;Depiction</title>
<path fill="none" stroke="black" d="M181.39,-712.83C172.19,-707.81 162.19,-701.42 154.29,-694 133.26,-674.25 140.19,-658.77 118.29,-640 113.69,-636.06 108.41,-632.57 102.96,-629.52"/>
<polygon fill="black" stroke="black" points="104.2,-626.22 93.7,-624.8 101.02,-632.46 104.2,-626.22"/>
</g>
<!-- Otu&#45;&gt;Identifier -->
<g id="edge22" class="edge">
<title>Otu&#45;&gt;Identifier</title>
<path fill="none" stroke="black" d="M189.79,-743.14C172.52,-759.87 145.17,-784.67 118.29,-802 112.57,-805.69 106.27,-809.15 99.98,-812.29"/>
<polygon fill="black" stroke="black" points="98.38,-809.18 90.86,-816.65 101.39,-815.5 98.38,-809.18"/>
</g>
<!-- Otu&#45;&gt;Tag -->
<g id="edge41" class="edge">
<title>Otu&#45;&gt;Tag</title>
<path fill="none" stroke="black" d="M179.96,-713.77C170.72,-708.87 161.07,-702.32 154.29,-694 122.33,-654.78 151.99,-623.74 118.29,-586 111.81,-578.75 102.98,-573.3 94.16,-569.27"/>
<polygon fill="black" stroke="black" points="95.28,-565.95 84.7,-565.43 92.65,-572.43 95.28,-565.95"/>
</g>
<!-- Otu&#45;&gt;Note -->
<g id="edge27" class="edge">
<title>Otu&#45;&gt;Note</title>
<path fill="none" stroke="black" d="M178.15,-735.04C153.76,-743.3 119.21,-755 93.79,-763.61"/>
<polygon fill="black" stroke="black" points="92.54,-760.33 84.2,-766.86 94.79,-766.96 92.54,-760.33"/>
</g>
<!-- Otu&#45;&gt;AssertedDistribution -->
<g id="edge1" class="edge">
<title>Otu&#45;&gt;AssertedDistribution</title>
<path fill="none" stroke="black" d="M210,-747.14C211.71,-801.09 223.66,-940.57 299.29,-1018 302.75,-1021.54 306.67,-1024.64 310.88,-1027.34"/>
<polygon fill="black" stroke="black" points="309.44,-1030.55 319.87,-1032.36 312.85,-1024.43 309.44,-1030.55"/>
</g>
<!-- Otu&#45;&gt;BiologicalAssociation -->
<g id="edge2" class="edge">
<title>Otu&#45;&gt;BiologicalAssociation</title>
<path fill="none" stroke="black" d="M212.32,-747.12C218.65,-792.66 239.25,-897.62 299.29,-958 302.78,-961.51 306.7,-964.66 310.87,-967.48"/>
<polygon fill="black" stroke="black" points="309.38,-970.67 319.76,-972.82 312.99,-964.67 309.38,-970.67"/>
</g>
<!-- Otu&#45;&gt;Observation -->
<g id="edge31" class="edge">
<title>Otu&#45;&gt;Observation</title>
<path fill="none" stroke="black" d="M224.52,-744.81C241.4,-766.93 270.48,-803.27 299.29,-831 314.79,-845.92 333.52,-860.83 349.41,-872.68"/>
<polygon fill="black" stroke="black" points="347.77,-875.83 357.9,-878.94 351.92,-870.19 347.77,-875.83"/>
</g>
<!-- Otu&#45;&gt;Source -->
<g id="edge53" class="edge">
<title>Otu&#45;&gt;Source</title>
<path fill="none" stroke="black" stroke-dasharray="1,5" d="M210.93,-757.12C215.28,-862.31 234.02,-1194.27 299.29,-1275 313.55,-1292.64 338.5,-1300.87 357.61,-1304.7"/>
<polygon fill="black" stroke="black" points="214.43,-756.96 210.53,-747.11 207.43,-757.24 214.43,-756.96"/>
</g>
<!-- Otu&#45;&gt;TaxonName -->
<g id="edge49" class="edge">
<title>Otu&#45;&gt;TaxonName</title>
<path fill="none" stroke="black" stroke-dasharray="5,2" d="M250.27,-730.58C278.07,-734.42 314.83,-739.49 342.75,-743.34"/>
<polygon fill="black" stroke="black" points="250.48,-727.08 240.1,-729.18 249.53,-734.01 250.48,-727.08"/>
</g>
<!-- Otu&#45;&gt;TaxonDetermination -->
<g id="edge42" class="edge">
<title>Otu&#45;&gt;TaxonDetermination</title>
<path fill="none" stroke="black" d="M237.75,-713.87C247,-708.99 256.63,-702.42 263.29,-694 297.59,-650.68 260.52,-614.37 299.29,-575 302.69,-571.55 306.53,-568.53 310.65,-565.91"/>
<polygon fill="black" stroke="black" points="312.4,-568.94 319.46,-561.04 309.01,-562.81 312.4,-568.94"/>
</g>
<!-- Otu&#45;&gt;CollectionProfile -->
<g id="edge7" class="edge">
<title>Otu&#45;&gt;CollectionProfile</title>
<path fill="none" stroke="black" d="M237.12,-713.45C254.8,-706.04 278.34,-696.29 299.29,-688 307.86,-684.61 316.94,-681.09 325.86,-677.67"/>
<polygon fill="black" stroke="black" points="327.33,-680.86 335.43,-674.03 324.84,-674.32 327.33,-680.86"/>
</g>
<!-- Otu&#45;&gt;CommonName -->
<g id="edge8" class="edge">
<title>Otu&#45;&gt;CommonName</title>
<path fill="none" stroke="black" d="M236.53,-713.18C245.77,-708.2 255.7,-701.74 263.29,-694 286.41,-670.42 273.76,-649.95 299.29,-629 306.71,-622.91 315.53,-618.18 324.63,-614.52"/>
<polygon fill="black" stroke="black" points="325.94,-617.77 334.16,-611.07 323.56,-611.18 325.94,-617.77"/>
</g>
<!-- Otu&#45;&gt;Content -->
<g id="edge12" class="edge">
<title>Otu&#45;&gt;Content</title>
<path fill="none" stroke="black" d="M238.18,-714.19C247.47,-709.34 257.01,-702.7 263.29,-694 309.27,-630.33 246.72,-579.35 299.29,-521 310.99,-508.02 328.91,-501.24 345.25,-497.72"/>
<polygon fill="black" stroke="black" points="345.93,-501.15 355.14,-495.92 344.68,-494.26 345.93,-501.15"/>
</g>
<!-- Otu&#45;&gt;OriginRelationship -->
<g id="edge32" class="edge">
<title>Otu&#45;&gt;OriginRelationship</title>
<path fill="none" stroke="black" d="M238.41,-714.36C247.72,-709.52 257.22,-702.85 263.29,-694 321.09,-609.78 251.95,-557.52 299.29,-467 311.05,-444.51 331.44,-424.69 349.25,-410.28"/>
<polygon fill="black" stroke="black" points="351.49,-412.98 357.21,-404.06 347.18,-407.46 351.49,-412.98"/>
</g>
<!-- Otu&#45;&gt;LoanItem -->
<g id="edge25" class="edge">
<title>Otu&#45;&gt;LoanItem</title>
<path fill="none" stroke="black" d="M238.75,-714.58C248.1,-709.77 257.52,-703.05 263.29,-694 311.94,-617.6 244.57,-360.18 299.29,-288 309.08,-275.08 324.74,-267.38 339.94,-262.78"/>
<polygon fill="black" stroke="black" points="341.01,-266.12 349.79,-260.19 339.22,-259.35 341.01,-266.12"/>
</g>
<!-- Otu&#45;&gt;Loan -->
<g id="edge51" class="edge">
<title>Otu&#45;&gt;Loan</title>
<path fill="none" stroke="black" stroke-dasharray="1,5" d="M247.38,-709.47C253.59,-705.32 259.3,-700.21 263.29,-694 308.07,-624.32 243.78,-384.48 299.29,-323 309.73,-311.44 529.69,-273.34 606.28,-260.37"/>
<polygon fill="black" stroke="black" points="245.57,-706.48 238.71,-714.56 249.11,-712.52 245.57,-706.48"/>
</g>
<!-- Otu&#45;&gt;ObservationMatrixRow -->
<g id="edge30" class="edge">
<title>Otu&#45;&gt;ObservationMatrixRow</title>
<path fill="none" stroke="black" d="M240.02,-719.72C289.13,-712.2 388.95,-701.37 470.29,-721 517.6,-732.42 566.63,-760.14 598.17,-780.41"/>
<polygon fill="black" stroke="black" points="596.31,-783.38 606.59,-785.92 600.14,-777.52 596.31,-783.38"/>
</g>
<!-- Otu&#45;&gt;ObservationMatrixRowItem -->
<g id="edge29" class="edge">
<title>Otu&#45;&gt;ObservationMatrixRowItem</title>
<path fill="none" stroke="black" d="M232.68,-739.73C250.39,-750.7 275.76,-765.52 299.29,-776 304.23,-778.2 309.4,-780.32 314.64,-782.35"/>
<polygon fill="black" stroke="black" points="313.53,-785.67 324.13,-785.88 315.98,-779.11 313.53,-785.67"/>
</g>
<!-- Otu&#45;&gt;PinboardItem -->
<g id="edge33" class="edge">
<title>Otu&#45;&gt;PinboardItem</title>
<path fill="none" stroke="black" d="M238.81,-714.62C248.16,-709.8 257.57,-703.09 263.29,-694 318.47,-606.27 230.36,-306.39 299.29,-229 308.54,-218.61 485.49,-188.16 577.58,-172.91"/>
<polygon fill="black" stroke="black" points="578.27,-176.34 587.57,-171.26 577.13,-169.44 578.27,-176.34"/>
</g>
<!-- Otu&#45;&gt;RelatedBiologicalAssociation -->
<g id="edge34" class="edge">
<title>Otu&#45;&gt;RelatedBiologicalAssociation</title>
<path fill="none" stroke="black" d="M212.77,-747.23C219.68,-789.24 240.89,-880.01 299.29,-924 317.89,-938.02 442.61,-953.2 533.98,-962.66"/>
<polygon fill="black" stroke="black" points="533.8,-966.16 544.1,-963.7 534.51,-959.19 533.8,-966.16"/>
</g>
<!-- Otu&#45;&gt;RelatedOriginRelationship -->
<g id="edge35" class="edge">
<title>Otu&#45;&gt;RelatedOriginRelationship</title>
<path fill="none" stroke="black" d="M238.66,-714.52C248,-709.7 257.44,-703 263.29,-694 304.09,-631.22 245.66,-411.25 299.29,-359 332.71,-326.44 455.64,-324.14 542.37,-326.93"/>
<polygon fill="black" stroke="black" points="542.38,-330.43 552.5,-327.28 542.63,-323.43 542.38,-330.43"/>
</g>
<!-- Otu&#45;&gt;Role -->
<g id="edge36" class="edge">
<title>Otu&#45;&gt;Role</title>
<path fill="none" stroke="black" d="M238.87,-714.66C248.23,-709.85 257.63,-703.12 263.29,-694 328.66,-588.59 222.94,-234.76 299.29,-137 310.78,-122.29 330.33,-115.45 347.74,-112.34"/>
<polygon fill="black" stroke="black" points="348.26,-115.8 357.66,-110.9 347.26,-108.87 348.26,-115.8"/>
</g>
<!-- Otu&#45;&gt;SubsequentCitation -->
<g id="edge39" class="edge">
<title>Otu&#45;&gt;SubsequentCitation</title>
<path fill="none" stroke="black" d="M210.44,-747.1C213.5,-835.96 229.48,-1165.8 299.29,-1237 317.55,-1255.62 469.93,-1279.59 562.11,-1292.59"/>
<polygon fill="black" stroke="black" points="561.83,-1296.09 572.22,-1294.01 562.8,-1289.15 561.83,-1296.09"/>
</g>
<!-- Otu&#45;&gt;VerifierRole -->
<g id="edge44" class="edge">
<title>Otu&#45;&gt;VerifierRole</title>
<path fill="none" stroke="black" d="M238.9,-714.68C248.26,-709.87 257.66,-703.14 263.29,-694 334.64,-578.21 215.88,-190.43 299.29,-83 307.64,-72.24 320.31,-65.69 333.32,-61.73"/>
<polygon fill="black" stroke="black" points="334.45,-65.05 343.26,-59.18 332.71,-58.27 334.45,-65.05"/>
</g>
<!-- Otu&#45;&gt;Version -->
<g id="edge46" class="edge">
<title>Otu&#45;&gt;Version</title>
<path fill="none" stroke="black" d="M238.84,-714.63C248.19,-709.82 257.6,-703.1 263.29,-694 322.12,-599.93 232.99,-284.97 299.29,-196 310.16,-181.42 328.51,-173.48 345.34,-169.16"/>
<polygon fill="black" stroke="black" points="346.54,-172.48 355.55,-166.91 345.03,-165.65 346.54,-172.48"/>
</g>
<!-- Otu&#45;&gt;Creator -->
<g id="edge47" class="edge">
<title>Otu&#45;&gt;Creator</title>
<path fill="none" stroke="black" stroke-dasharray="5,2" d="M212.93,-757.16C221.68,-840.05 249.06,-1057.91 299.29,-1107 310.37,-1117.83 526.84,-1157.9 604.69,-1172.03"/>
<polygon fill="black" stroke="black" points="216.4,-756.65 211.89,-747.06 209.43,-757.37 216.4,-756.65"/>
</g>
<!-- Otu&#45;&gt;Project -->
<g id="edge48" class="edge">
<title>Otu&#45;&gt;Project</title>
<path fill="none" stroke="black" stroke-dasharray="5,2" d="M212.71,-757.46C221.25,-845.51 248.77,-1086.15 299.29,-1145 313.8,-1161.9 338.21,-1169.9 357.08,-1173.67"/>
<polygon fill="black" stroke="black" points="216.18,-756.89 211.74,-747.27 209.21,-757.55 216.18,-756.89"/>
</g>
<!-- Otu&#45;&gt;Updater -->
<g id="edge50" class="edge">
<title>Otu&#45;&gt;Updater</title>
<path fill="none" stroke="black" stroke-dasharray="5,2" d="M213.65,-757.57C223.57,-835.63 252.53,-1030.11 299.29,-1073 308.86,-1081.78 747.62,-1147.15 760.29,-1150 782.54,-1155 807.31,-1162.1 825.98,-1167.76"/>
<polygon fill="black" stroke="black" points="217.08,-756.85 212.37,-747.36 210.14,-757.71 217.08,-756.85"/>
</g>
<!-- Otu&#45;&gt;OriginCitation -->
<g id="edge52" class="edge">
<title>Otu&#45;&gt;OriginCitation</title>
<path fill="none" stroke="black" stroke-dasharray="1,5" d="M211.01,-757.43C215.39,-855.01 233.73,-1142.94 299.29,-1204 339.79,-1241.72 504.01,-1244.36 585.69,-1243.23"/>
<polygon fill="black" stroke="black" points="214.5,-757.12 210.57,-747.28 207.5,-757.42 214.5,-757.12"/>
</g>
<!-- AssertedDistribution&#45;&gt;GeographicAreasFromAssertedDistribution -->
<g id="edge19" class="edge">
<title>AssertedDistribution&#45;&gt;GeographicAreasFromAssertedDistribution</title>
<path fill="none" stroke="black" d="M449.59,-1046C464,-1046 479.84,-1046 495.98,-1046"/>
<polygon fill="black" stroke="black" points="496.06,-1049.5 506.06,-1046 496.06,-1042.5 496.06,-1049.5"/>
</g>
<!-- BiologicalAssociation&#45;&gt;RelatedBiologicalAssociation -->
<!-- CollectionObject&#45;&gt;CollectingEvent -->
<g id="edge5" class="edge">
<title>CollectionObject&#45;&gt;CollectingEvent</title>
<path fill="none" stroke="black" d="M688.07,-549C720.03,-549 760.67,-549 793.88,-549"/>
<polygon fill="black" stroke="black" points="793.93,-552.5 803.93,-549 793.93,-545.5 793.93,-552.5"/>
</g>
<!-- CollectionObject&#45;&gt;Extract -->
<g id="edge18" class="edge">
<title>CollectionObject&#45;&gt;Extract</title>
<path fill="none" stroke="black" d="M688.07,-562.38C728.42,-572.43 782.62,-585.91 818.23,-594.78"/>
<polygon fill="black" stroke="black" points="817.65,-598.24 828.2,-597.26 819.34,-591.45 817.65,-598.24"/>
</g>
<!-- CollectingEvent&#45;&gt;GeographicAreasFromCollectingEvent -->
<g id="edge20" class="edge">
<title>CollectingEvent&#45;&gt;GeographicAreasFromCollectingEvent</title>
<path fill="none" stroke="black" d="M908.45,-534.02C922.62,-529.99 938.02,-525.72 952.29,-522 960.62,-519.83 969.31,-517.63 978.02,-515.48"/>
<polygon fill="black" stroke="black" points="978.95,-518.85 987.83,-513.07 977.29,-512.05 978.95,-518.85"/>
</g>
<!-- CollectingEvent&#45;&gt;Georeference -->
<g id="edge21" class="edge">
<title>CollectingEvent&#45;&gt;Georeference</title>
<path fill="none" stroke="black" d="M908.29,-549C939.73,-549 980,-549 1011.95,-549"/>
<polygon fill="black" stroke="black" points="1012.01,-552.5 1022.01,-549 1012.01,-545.5 1012.01,-552.5"/>
</g>
<!-- Observation&#45;&gt;Descriptor -->
<g id="edge17" class="edge">
<title>Observation&#45;&gt;Descriptor</title>
<path fill="none" stroke="black" d="M426.49,-897C470.26,-897 539.73,-897 585.66,-897"/>
<polygon fill="black" stroke="black" points="585.95,-900.5 595.95,-897 585.95,-893.5 585.95,-900.5"/>
</g>
<!-- Observation&#45;&gt;ObservationMatrix -->
<!-- Source&#45;&gt;SubsequentCitation -->
<!-- Source&#45;&gt;OriginCitation -->
<!-- CitationTopic&#45;&gt;Topic -->
<g id="edge43" class="edge">
<title>CitationTopic&#45;&gt;Topic</title>
<path fill="none" stroke="black" d="M255.05,-1363C283.85,-1363 320.65,-1363 347.53,-1363"/>
<polygon fill="black" stroke="black" points="347.66,-1366.5 357.66,-1363 347.66,-1359.5 347.66,-1366.5"/>
</g>
<!-- TaxonDetermination&#45;&gt;CollectionObject -->
<g id="edge6" class="edge">
<title>TaxonDetermination&#45;&gt;CollectionObject</title>
<path fill="none" stroke="black" d="M449.91,-548.26C486.42,-548.41 532,-548.59 568.46,-548.74"/>
<polygon fill="black" stroke="black" points="568.47,-552.24 578.49,-548.78 568.5,-545.24 568.47,-552.24"/>
</g>
<!-- Content&#45;&gt;ContentTopic -->
<g id="edge11" class="edge">
<title>Content&#45;&gt;ContentTopic</title>
<path fill="none" stroke="black" d="M414.55,-494C454.35,-494 527.01,-494 577.39,-494"/>
<polygon fill="black" stroke="black" points="577.47,-497.5 587.47,-494 577.47,-490.5 577.47,-497.5"/>
</g>
<!-- OriginRelationship&#45;&gt;DerivedExtract -->
<g id="edge15" class="edge">
<title>OriginRelationship&#45;&gt;DerivedExtract</title>
<path fill="none" stroke="black" d="M444.83,-386C483.8,-386 534.64,-386 573.54,-386"/>
<polygon fill="black" stroke="black" points="573.66,-389.5 583.66,-386 573.66,-382.5 573.66,-389.5"/>
</g>
<!-- OriginRelationship&#45;&gt;DerivedSequence -->
<g id="edge16" class="edge">
<title>OriginRelationship&#45;&gt;DerivedSequence</title>
<path fill="none" stroke="black" d="M444.91,-399.36C464.44,-403.75 486.29,-408.62 506.29,-413 526.02,-417.32 547.5,-421.95 567.04,-426.14"/>
<polygon fill="black" stroke="black" points="566.55,-429.61 577.07,-428.28 568.02,-422.77 566.55,-429.61"/>
</g>
<!-- OriginRelationship&#45;&gt;RelatedOriginRelationship -->
<!-- Extract&#45;&gt;Sequence -->
<g id="edge37" class="edge">
<title>Extract&#45;&gt;Sequence</title>
<path fill="none" stroke="black" d="M884.55,-604C919.65,-604 981.08,-604 1022.58,-604"/>
<polygon fill="black" stroke="black" points="1022.68,-607.5 1032.68,-604 1022.68,-600.5 1022.68,-607.5"/>
</g>
<!-- LoanItem&#45;&gt;Loan -->
<g id="edge26" class="edge">
<title>LoanItem&#45;&gt;Loan</title>
<path fill="none" stroke="black" d="M419.81,-256C466.1,-256 548.58,-256 596.02,-256"/>
<polygon fill="black" stroke="black" points="596.15,-259.5 606.15,-256 596.15,-252.5 596.15,-259.5"/>
</g>
<!-- ObservationMatrixRow&#45;&gt;ObservationMatrix -->
<g id="edge28" class="edge">
<title>ObservationMatrixRow&#45;&gt;ObservationMatrix</title>
<path fill="none" stroke="black" d="M706.35,-804C731.92,-804 760.63,-804 785.97,-804"/>
<polygon fill="black" stroke="black" points="786.24,-807.5 796.24,-804 786.24,-800.5 786.24,-807.5"/>
</g>
<!-- ObservationMatrixRowItem&#45;&gt;ObservationMatrixRow -->
<!-- Role&#45;&gt;Verifier -->
<!-- SubsequentCitation&#45;&gt;SubsequentSource -->
<g id="edge40" class="edge">
<title>SubsequentCitation&#45;&gt;SubsequentSource</title>
<path fill="none" stroke="black" d="M694.39,-1302C723.31,-1302 758.11,-1302 787.93,-1302"/>
<polygon fill="black" stroke="black" points="788.25,-1305.5 798.25,-1302 788.25,-1298.5 788.25,-1305.5"/>
</g>
<!-- VerifierRole&#45;&gt;Verifier -->
<g id="edge45" class="edge">
<title>VerifierRole&#45;&gt;Verifier</title>
<path fill="none" stroke="black" d="M426.49,-60.46C473.18,-65.57 549.11,-73.89 594.52,-78.86"/>
<polygon fill="black" stroke="black" points="594.23,-82.35 604.55,-79.96 594.99,-75.39 594.23,-82.35"/>
</g>
<!-- Version&#45;&gt;PinboardItem -->
<!-- Creator&#45;&gt;Updater -->
<!-- Project&#45;&gt;Creator -->
<!-- Citation -->
<g id="node1" class="node">
<title>Citation</title>
<g id="a_node1"><a xlink:href="/develop/Data/models.html#citation" xlink:title="Citation" target="_top">
<ellipse fill="#abcdef" stroke="#dddeee" cx="59.14" cy="-1308" rx="38.99" ry="18"/>
<text text-anchor="middle" x="59.14" y="-1304.3" font-family="Times,serif" font-size="14.00">Citation</text>
</a>
</g>
</g>
<!-- Confidence -->
<g id="node2" class="node">
<title>Confidence</title>
<g id="a_node2"><a xlink:href="/develop/Data/models.html#confidence" xlink:title="Confidence" target="_top">
<ellipse fill="#abcdef" stroke="#dddeee" cx="59.14" cy="-667" rx="50.89" ry="18"/>
<text text-anchor="middle" x="59.14" y="-663.3" font-family="Times,serif" font-size="14.00">Confidence</text>
</a>
</g>
</g>
<!-- DataAttribute -->
<g id="node3" class="node">
<title>DataAttribute</title>
<g id="a_node3"><a xlink:href="/develop/Data/models.html#data-attribute" xlink:title="DataAttribute" target="_top">
<ellipse fill="#abcdef" stroke="#dddeee" cx="59.14" cy="-721" rx="59.29" ry="18"/>
<text text-anchor="middle" x="59.14" y="-717.3" font-family="Times,serif" font-size="14.00">DataAttribute</text>
</a>
</g>
</g>
<!-- Depiction -->
<g id="node4" class="node">
<title>Depiction</title>
<g id="a_node4"><a xlink:href="/develop/Data/models.html#depiction" xlink:title="Depiction" target="_top">
<ellipse fill="#abcdef" stroke="#dddeee" cx="59.14" cy="-613" rx="45.49" ry="18"/>
<text text-anchor="middle" x="59.14" y="-609.3" font-family="Times,serif" font-size="14.00">Depiction</text>
</a>
</g>
</g>
<!-- Identifier -->
<g id="node5" class="node">
<title>Identifier</title>
<g id="a_node5"><a xlink:href="/develop/Data/models.html#identifier" xlink:title="Identifier" target="_top">
<ellipse fill="#abcdef" stroke="#dddeee" cx="59.14" cy="-829" rx="42.79" ry="18"/>
<text text-anchor="middle" x="59.14" y="-825.3" font-family="Times,serif" font-size="14.00">Identifier</text>
</a>
</g>
</g>
<!-- Tag -->
<g id="node6" class="node">
<title>Tag</title>
<g id="a_node6"><a xlink:href="/develop/Data/models.html#tag" xlink:title="Tag" target="_top">
<ellipse fill="#abcdef" stroke="#dddeee" cx="59.14" cy="-559" rx="27" ry="18"/>
<text text-anchor="middle" x="59.14" y="-555.3" font-family="Times,serif" font-size="14.00">Tag</text>
</a>
</g>
</g>
<!-- Note -->
<g id="node7" class="node">
<title>Note</title>
<g id="a_node7"><a xlink:href="/develop/Data/models.html#note" xlink:title="Note" target="_top">
<ellipse fill="#abcdef" stroke="#dddeee" cx="59.14" cy="-775" rx="27.9" ry="18"/>
<text text-anchor="middle" x="59.14" y="-771.3" font-family="Times,serif" font-size="14.00">Note</text>
</a>
</g>
</g>
<!-- Otu -->
<g id="node8" class="node">
<title>Otu</title>
<g id="a_node8"><a xlink:href="/develop/Data/models.html#otu" xlink:title="Otu" target="_top">
<polygon fill="#cdefab" stroke="#dedede" points="235.79,-717.54 235.79,-732.46 219.97,-743 197.61,-743 181.79,-732.46 181.79,-717.54 197.61,-707 219.97,-707 235.79,-717.54"/>
<polygon fill="none" stroke="#dedede" points="239.79,-715.4 239.79,-734.6 221.18,-747 196.39,-747 177.79,-734.6 177.79,-715.4 196.39,-703 221.18,-703 239.79,-715.4"/>
<text text-anchor="middle" x="208.79" y="-721.3" font-family="Times,serif" font-size="14.00">Otu</text>
</a>
</g>
</g>
<!-- AssertedDistribution -->
<g id="node9" class="node">
<title>AssertedDistribution</title>
<g id="a_node9"><a xlink:href="/develop/Data/models.html#asserted-distribution" xlink:title="AssertedDistribution" target="_top">
<path fill="#fedcba" stroke="#dddeee" d="M332.29,-1028C332.29,-1028 437.29,-1028 437.29,-1028 443.29,-1028 449.29,-1034 449.29,-1040 449.29,-1040 449.29,-1052 449.29,-1052 449.29,-1058 443.29,-1064 437.29,-1064 437.29,-1064 332.29,-1064 332.29,-1064 326.29,-1064 320.29,-1058 320.29,-1052 320.29,-1052 320.29,-1040 320.29,-1040 320.29,-1034 326.29,-1028 332.29,-1028"/>
<text text-anchor="middle" x="384.79" y="-1042.3" font-family="Times,serif" font-size="14.00">AssertedDistribution</text>
</a>
</g>
</g>
<!-- BiologicalAssociation -->
<g id="node10" class="node">
<title>BiologicalAssociation</title>
<g id="a_node10"><a xlink:href="/develop/Data/models.html#biological-association" xlink:title="BiologicalAssociation" target="_top">
<path fill="#fedcba" stroke="#dddeee" d="M328.29,-973C328.29,-973 441.29,-973 441.29,-973 447.29,-973 453.29,-979 453.29,-985 453.29,-985 453.29,-997 453.29,-997 453.29,-1003 447.29,-1009 441.29,-1009 441.29,-1009 328.29,-1009 328.29,-1009 322.29,-1009 316.29,-1003 316.29,-997 316.29,-997 316.29,-985 316.29,-985 316.29,-979 322.29,-973 328.29,-973"/>
<text text-anchor="middle" x="384.79" y="-987.3" font-family="Times,serif" font-size="14.00">BiologicalAssociation</text>
</a>
</g>
</g>
<!-- CollectionObject -->
<g id="node11" class="node">
<title>CollectionObject</title>
<g id="a_node11"><a xlink:href="/develop/Data/models.html#collection-object" xlink:title="CollectionObject" target="_top">
<path fill="#fedcba" stroke="#dddeee" d="M590.79,-531C590.79,-531 675.79,-531 675.79,-531 681.79,-531 687.79,-537 687.79,-543 687.79,-543 687.79,-555 687.79,-555 687.79,-561 681.79,-567 675.79,-567 675.79,-567 590.79,-567 590.79,-567 584.79,-567 578.79,-561 578.79,-555 578.79,-555 578.79,-543 578.79,-543 578.79,-537 584.79,-531 590.79,-531"/>
<text text-anchor="middle" x="633.29" y="-545.3" font-family="Times,serif" font-size="14.00">CollectionObject</text>
</a>
</g>
</g>
<!-- CollectingEvent -->
<g id="node12" class="node">
<title>CollectingEvent</title>
<g id="a_node12"><a xlink:href="/develop/Data/models.html#collecting-event" xlink:title="CollectingEvent" target="_top">
<path fill="#fedcba" stroke="#dddeee" d="M816.29,-531C816.29,-531 896.29,-531 896.29,-531 902.29,-531 908.29,-537 908.29,-543 908.29,-543 908.29,-555 908.29,-555 908.29,-561 902.29,-567 896.29,-567 896.29,-567 816.29,-567 816.29,-567 810.29,-567 804.29,-561 804.29,-555 804.29,-555 804.29,-543 804.29,-543 804.29,-537 810.29,-531 816.29,-531"/>
<text text-anchor="middle" x="856.29" y="-545.3" font-family="Times,serif" font-size="14.00">CollectingEvent</text>
</a>
</g>
</g>
<!-- Observation -->
<g id="node13" class="node">
<title>Observation</title>
<g id="a_node13"><a xlink:href="/develop/Data/models.html#observation" xlink:title="Observation" target="_top">
<path fill="#fedcba" stroke="#dddeee" d="M355.29,-879C355.29,-879 414.29,-879 414.29,-879 420.29,-879 426.29,-885 426.29,-891 426.29,-891 426.29,-903 426.29,-903 426.29,-909 420.29,-915 414.29,-915 414.29,-915 355.29,-915 355.29,-915 349.29,-915 343.29,-909 343.29,-903 343.29,-903 343.29,-891 343.29,-891 343.29,-885 349.29,-879 355.29,-879"/>
<text text-anchor="middle" x="384.79" y="-893.3" font-family="Times,serif" font-size="14.00">Observation</text>
</a>
</g>
</g>
<!-- Descriptor -->
<g id="node14" class="node">
<title>Descriptor</title>
<g id="a_node14"><a xlink:href="/develop/Data/models.html#descriptor" xlink:title="Descriptor" target="_top">
<path fill="#fedcba" stroke="#dddeee" d="M608.29,-879C608.29,-879 658.29,-879 658.29,-879 664.29,-879 670.29,-885 670.29,-891 670.29,-891 670.29,-903 670.29,-903 670.29,-909 664.29,-915 658.29,-915 658.29,-915 608.29,-915 608.29,-915 602.29,-915 596.29,-909 596.29,-903 596.29,-903 596.29,-891 596.29,-891 596.29,-885 602.29,-879 608.29,-879"/>
<text text-anchor="middle" x="633.29" y="-893.3" font-family="Times,serif" font-size="14.00">Descriptor</text>
</a>
</g>
</g>
<!-- Sequence -->
<g id="node15" class="node">
<title>Sequence</title>
<g id="a_node15"><a xlink:href="/develop/Data/models.html#sequence" xlink:title="Sequence" target="_top">
<path fill="#fedcba" stroke="#dddeee" d="M1044.79,-586C1044.79,-586 1088.79,-586 1088.79,-586 1094.79,-586 1100.79,-592 1100.79,-598 1100.79,-598 1100.79,-610 1100.79,-610 1100.79,-616 1094.79,-622 1088.79,-622 1088.79,-622 1044.79,-622 1044.79,-622 1038.79,-622 1032.79,-616 1032.79,-610 1032.79,-610 1032.79,-598 1032.79,-598 1032.79,-592 1038.79,-586 1044.79,-586"/>
<text text-anchor="middle" x="1066.79" y="-600.3" font-family="Times,serif" font-size="14.00">Sequence</text>
</a>
</g>
</g>
<!-- Source -->
<g id="node16" class="node">
<title>Source</title>
<g id="a_node16"><a xlink:href="/develop/Data/models.html#source" xlink:title="Source" target="_top">
<path fill="#fedcba" stroke="#dddeee" d="M369.79,-1290C369.79,-1290 399.79,-1290 399.79,-1290 405.79,-1290 411.79,-1296 411.79,-1302 411.79,-1302 411.79,-1314 411.79,-1314 411.79,-1320 405.79,-1326 399.79,-1326 399.79,-1326 369.79,-1326 369.79,-1326 363.79,-1326 357.79,-1320 357.79,-1314 357.79,-1314 357.79,-1302 357.79,-1302 357.79,-1296 363.79,-1290 369.79,-1290"/>
<text text-anchor="middle" x="384.79" y="-1304.3" font-family="Times,serif" font-size="14.00">Source</text>
</a>
</g>
</g>
<!-- TaxonName -->
<g id="node17" class="node">
<title>TaxonName</title>
<g id="a_node17"><a xlink:href="/develop/Data/models.html#taxon-name" xlink:title="TaxonName" target="_top">
<path fill="#fedcba" stroke="#dddeee" d="M354.79,-731C354.79,-731 414.79,-731 414.79,-731 420.79,-731 426.79,-737 426.79,-743 426.79,-743 426.79,-755 426.79,-755 426.79,-761 420.79,-767 414.79,-767 414.79,-767 354.79,-767 354.79,-767 348.79,-767 342.79,-761 342.79,-755 342.79,-755 342.79,-743 342.79,-743 342.79,-737 348.79,-731 354.79,-731"/>
<text text-anchor="middle" x="384.79" y="-745.3" font-family="Times,serif" font-size="14.00">TaxonName</text>
</a>
</g>
</g>
<!-- CitationTopic -->
<g id="node18" class="node">
<title>CitationTopic</title>
<g id="a_node18"><a xlink:href="/develop/Data/models.html#citation-topic" xlink:title="CitationTopic" target="_top">
<polygon fill="#eeefff" stroke="#dddeee" points="254.79,-1381 162.79,-1381 162.79,-1345 254.79,-1345 254.79,-1381"/>
<text text-anchor="middle" x="208.79" y="-1359.3" font-family="Times,serif" font-size="14.00">CitationTopic</text>
</a>
</g>
</g>
<!-- TaxonDetermination -->
<g id="node19" class="node">
<title>TaxonDetermination</title>
<g id="a_node19"><a xlink:href="/develop/Data/models.html#taxon-determination" xlink:title="TaxonDetermination" target="_top">
<polygon fill="#eeefff" stroke="#dddeee" points="449.79,-566 319.79,-566 319.79,-530 449.79,-530 449.79,-566"/>
<text text-anchor="middle" x="384.79" y="-544.3" font-family="Times,serif" font-size="14.00">TaxonDetermination</text>
</a>
</g>
</g>
<!-- CollectionProfile -->
<g id="node20" class="node">
<title>CollectionProfile</title>
<g id="a_node20"><a xlink:href="/develop/Data/models.html#collection-profile" xlink:title="CollectionProfile" target="_top">
<polygon fill="#eeefff" stroke="#dddeee" points="439.29,-674 330.29,-674 330.29,-638 439.29,-638 439.29,-674"/>
<text text-anchor="middle" x="384.79" y="-652.3" font-family="Times,serif" font-size="14.00">CollectionProfile</text>
</a>
</g>
</g>
<!-- CommonName -->
<g id="node21" class="node">
<title>CommonName</title>
<g id="a_node21"><a xlink:href="/develop/Data/models.html#common-name" xlink:title="CommonName" target="_top">
<polygon fill="#eeefff" stroke="#dddeee" points="435.29,-620 334.29,-620 334.29,-584 435.29,-584 435.29,-620"/>
<text text-anchor="middle" x="384.79" y="-598.3" font-family="Times,serif" font-size="14.00">CommonName</text>
</a>
</g>
</g>
<!-- ConfidenceLevel -->
<g id="node22" class="node">
<title>ConfidenceLevel</title>
<g id="a_node22"><a xlink:href="/develop/Data/models.html#confidence-level" xlink:title="ConfidenceLevel" target="_top">
<polygon fill="#eeefff" stroke="#dddeee" points="263.29,-685 154.29,-685 154.29,-649 263.29,-649 263.29,-685"/>
<text text-anchor="middle" x="208.79" y="-663.3" font-family="Times,serif" font-size="14.00">ConfidenceLevel</text>
</a>
</g>
</g>
<!-- Content -->
<g id="node23" class="node">
<title>Content</title>
<g id="a_node23"><a xlink:href="/develop/Data/models.html#content" xlink:title="Content" target="_top">
<polygon fill="#eeefff" stroke="#dddeee" points="414.29,-512 355.29,-512 355.29,-476 414.29,-476 414.29,-512"/>
<text text-anchor="middle" x="384.79" y="-490.3" font-family="Times,serif" font-size="14.00">Content</text>
</a>
</g>
</g>
<!-- ContentTopic -->
<g id="node24" class="node">
<title>ContentTopic</title>
<g id="a_node24"><a xlink:href="/develop/Data/models.html#content-topic" xlink:title="ContentTopic" target="_top">
<polygon fill="#eeefff" stroke="#dddeee" points="678.79,-512 587.79,-512 587.79,-476 678.79,-476 678.79,-512"/>
<text text-anchor="middle" x="633.29" y="-490.3" font-family="Times,serif" font-size="14.00">ContentTopic</text>
</a>
</g>
</g>
<!-- OriginRelationship -->
<g id="node25" class="node">
<title>OriginRelationship</title>
<g id="a_node25"><a xlink:href="/develop/Data/models.html#origin-relationship" xlink:title="OriginRelationship" target="_top">
<polygon fill="#eeefff" stroke="#dddeee" points="444.79,-404 324.79,-404 324.79,-368 444.79,-368 444.79,-404"/>
<text text-anchor="middle" x="384.79" y="-382.3" font-family="Times,serif" font-size="14.00">OriginRelationship</text>
</a>
</g>
</g>
<!-- DerivedExtract -->
<g id="node26" class="node">
<title>DerivedExtract</title>
<g id="a_node26"><a xlink:href="/develop/Data/models.html#derived-extract" xlink:title="DerivedExtract" target="_top">
<polygon fill="#eeefff" stroke="#dddeee" points="682.79,-404 583.79,-404 583.79,-368 682.79,-368 682.79,-404"/>
<text text-anchor="middle" x="633.29" y="-382.3" font-family="Times,serif" font-size="14.00">DerivedExtract</text>
</a>
</g>
</g>
<!-- DerivedSequence -->
<g id="node27" class="node">
<title>DerivedSequence</title>
<g id="a_node27"><a xlink:href="/develop/Data/models.html#derived-sequence" xlink:title="DerivedSequence" target="_top">
<polygon fill="#eeefff" stroke="#dddeee" points="689.29,-458 577.29,-458 577.29,-422 689.29,-422 689.29,-458"/>
<text text-anchor="middle" x="633.29" y="-436.3" font-family="Times,serif" font-size="14.00">DerivedSequence</text>
</a>
</g>
</g>
<!-- Extract -->
<g id="node28" class="node">
<title>Extract</title>
<g id="a_node28"><a xlink:href="/develop/Data/models.html#extract" xlink:title="Extract" target="_top">
<polygon fill="#eeefff" stroke="#dddeee" points="884.29,-622 828.29,-622 828.29,-586 884.29,-586 884.29,-622"/>
<text text-anchor="middle" x="856.29" y="-600.3" font-family="Times,serif" font-size="14.00">Extract</text>
</a>
</g>
</g>
<!-- GeographicAreasFromAssertedDistribution -->
<g id="node29" class="node">
<title>GeographicAreasFromAssertedDistribution</title>
<g id="a_node29"><a xlink:href="/develop/Data/models.html#geographic-areas-from-asserted-distribution" xlink:title="GeographicAreasFromAssertedDistribution" target="_top">
<polygon fill="#eeefff" stroke="#dddeee" points="760.29,-1064 506.29,-1064 506.29,-1028 760.29,-1028 760.29,-1064"/>
<text text-anchor="middle" x="633.29" y="-1042.3" font-family="Times,serif" font-size="14.00">GeographicAreasFromAssertedDistribution</text>
</a>
</g>
</g>
<!-- GeographicAreasFromCollectingEvent -->
<g id="node30" class="node">
<title>GeographicAreasFromCollectingEvent</title>
<g id="a_node30"><a xlink:href="/develop/Data/models.html#geographic-areas-from-collecting-event" xlink:title="GeographicAreasFromCollectingEvent" target="_top">
<polygon fill="#eeefff" stroke="#dddeee" points="1181.29,-513 952.29,-513 952.29,-477 1181.29,-477 1181.29,-513"/>
<text text-anchor="middle" x="1066.79" y="-491.3" font-family="Times,serif" font-size="14.00">GeographicAreasFromCollectingEvent</text>
</a>
</g>
</g>
<!-- Georeference -->
<g id="node31" class="node">
<title>Georeference</title>
<g id="a_node31"><a xlink:href="/develop/Data/models.html#georeference" xlink:title="Georeference" target="_top">
<polygon fill="#eeefff" stroke="#dddeee" points="1111.29,-567 1022.29,-567 1022.29,-531 1111.29,-531 1111.29,-567"/>
<text text-anchor="middle" x="1066.79" y="-545.3" font-family="Times,serif" font-size="14.00">Georeference</text>
</a>
</g>
</g>
<!-- Image -->
<g id="node32" class="node">
<title>Image</title>
<g id="a_node32"><a xlink:href="/develop/Data/models.html#image" xlink:title="Image" target="_top">
<polygon fill="#eeefff" stroke="#dddeee" points="235.79,-631 181.79,-631 181.79,-595 235.79,-595 235.79,-631"/>
<text text-anchor="middle" x="208.79" y="-609.3" font-family="Times,serif" font-size="14.00">Image</text>
</a>
</g>
</g>
<!-- Keyword -->
<g id="node33" class="node">
<title>Keyword</title>
<g id="a_node33"><a xlink:href="/develop/Data/models.html#keyword" xlink:title="Keyword" target="_top">
<polygon fill="#eeefff" stroke="#dddeee" points="242.29,-577 175.29,-577 175.29,-541 242.29,-541 242.29,-577"/>
<text text-anchor="middle" x="208.79" y="-555.3" font-family="Times,serif" font-size="14.00">Keyword</text>
</a>
</g>
</g>
<!-- LoanItem -->
<g id="node34" class="node">
<title>LoanItem</title>
<g id="a_node34"><a xlink:href="/develop/Data/models.html#loan-item" xlink:title="LoanItem" target="_top">
<polygon fill="#eeefff" stroke="#dddeee" points="419.79,-274 349.79,-274 349.79,-238 419.79,-238 419.79,-274"/>
<text text-anchor="middle" x="384.79" y="-252.3" font-family="Times,serif" font-size="14.00">LoanItem</text>
</a>
</g>
</g>
<!-- Loan -->
<g id="node35" class="node">
<title>Loan</title>
<g id="a_node35"><a xlink:href="/develop/Data/models.html#loan" xlink:title="Loan" target="_top">
<polygon fill="#eeefff" stroke="#dddeee" points="660.29,-274 606.29,-274 606.29,-238 660.29,-238 660.29,-274"/>
<text text-anchor="middle" x="633.29" y="-252.3" font-family="Times,serif" font-size="14.00">Loan</text>
</a>
</g>
</g>
<!-- ObservationMatrixRow -->
<g id="node36" class="node">
<title>ObservationMatrixRow</title>
<g id="a_node36"><a xlink:href="/develop/Data/models.html#observation-matrix-row" xlink:title="ObservationMatrixRow" target="_top">
<polygon fill="#eeefff" stroke="#dddeee" points="706.29,-822 560.29,-822 560.29,-786 706.29,-786 706.29,-822"/>
<text text-anchor="middle" x="633.29" y="-800.3" font-family="Times,serif" font-size="14.00">ObservationMatrixRow</text>
</a>
</g>
</g>
<!-- ObservationMatrix -->
<g id="node37" class="node">
<title>ObservationMatrix</title>
<g id="a_node37"><a xlink:href="/develop/Data/models.html#observation-matrix" xlink:title="ObservationMatrix" target="_top">
<polygon fill="#eeefff" stroke="#dddeee" points="916.29,-822 796.29,-822 796.29,-786 916.29,-786 916.29,-822"/>
<text text-anchor="middle" x="856.29" y="-800.3" font-family="Times,serif" font-size="14.00">ObservationMatrix</text>
</a>
</g>
</g>
<!-- ObservationMatrixRowItem -->
<g id="node38" class="node">
<title>ObservationMatrixRowItem</title>
<g id="a_node38"><a xlink:href="/develop/Data/models.html#observation-matrix-row-item" xlink:title="ObservationMatrixRowItem" target="_top">
<polygon fill="#eeefff" stroke="#dddeee" points="470.29,-822 299.29,-822 299.29,-786 470.29,-786 470.29,-822"/>
<text text-anchor="middle" x="384.79" y="-800.3" font-family="Times,serif" font-size="14.00">ObservationMatrixRowItem</text>
</a>
</g>
</g>
<!-- PinboardItem -->
<g id="node39" class="node">
<title>PinboardItem</title>
<g id="a_node39"><a xlink:href="/develop/Data/models.html#pinboard-item" xlink:title="PinboardItem" target="_top">
<polygon fill="#eeefff" stroke="#dddeee" points="678.79,-182 587.79,-182 587.79,-146 678.79,-146 678.79,-182"/>
<text text-anchor="middle" x="633.29" y="-160.3" font-family="Times,serif" font-size="14.00">PinboardItem</text>
</a>
</g>
</g>
<!-- RelatedBiologicalAssociation -->
<g id="node40" class="node">
<title>RelatedBiologicalAssociation</title>
<g id="a_node40"><a xlink:href="/develop/Data/models.html#related-biological-association" xlink:title="RelatedBiologicalAssociation" target="_top">
<polygon fill="#eeefff" stroke="#dddeee" points="722.29,-990 544.29,-990 544.29,-954 722.29,-954 722.29,-990"/>
<text text-anchor="middle" x="633.29" y="-968.3" font-family="Times,serif" font-size="14.00">RelatedBiologicalAssociation</text>
</a>
</g>
</g>
<!-- RelatedOriginRelationship -->
<g id="node41" class="node">
<title>RelatedOriginRelationship</title>
<g id="a_node41"><a xlink:href="/develop/Data/models.html#related-origin-relationship" xlink:title="RelatedOriginRelationship" target="_top">
<polygon fill="#eeefff" stroke="#dddeee" points="713.79,-350 552.79,-350 552.79,-314 713.79,-314 713.79,-350"/>
<text text-anchor="middle" x="633.29" y="-328.3" font-family="Times,serif" font-size="14.00">RelatedOriginRelationship</text>
</a>
</g>
</g>
<!-- Role -->
<g id="node42" class="node">
<title>Role</title>
<g id="a_node42"><a xlink:href="/develop/Data/models.html#role" xlink:title="Role" target="_top">
<polygon fill="#eeefff" stroke="#dddeee" points="411.79,-128 357.79,-128 357.79,-92 411.79,-92 411.79,-128"/>
<text text-anchor="middle" x="384.79" y="-106.3" font-family="Times,serif" font-size="14.00">Role</text>
</a>
</g>
</g>
<!-- SubsequentCitation -->
<g id="node43" class="node">
<title>SubsequentCitation</title>
<g id="a_node43"><a xlink:href="/develop/Data/models.html#subsequent-citation" xlink:title="SubsequentCitation" target="_top">
<polygon fill="#eeefff" stroke="#dddeee" points="694.29,-1320 572.29,-1320 572.29,-1284 694.29,-1284 694.29,-1320"/>
<text text-anchor="middle" x="633.29" y="-1298.3" font-family="Times,serif" font-size="14.00">SubsequentCitation</text>
</a>
</g>
</g>
<!-- SubsequentSource -->
<g id="node44" class="node">
<title>SubsequentSource</title>
<g id="a_node44"><a xlink:href="/develop/Data/models.html#subsequent-source" xlink:title="SubsequentSource" target="_top">
<polygon fill="#eeefff" stroke="#dddeee" points="914.29,-1320 798.29,-1320 798.29,-1284 914.29,-1284 914.29,-1320"/>
<text text-anchor="middle" x="856.29" y="-1298.3" font-family="Times,serif" font-size="14.00">SubsequentSource</text>
</a>
</g>
</g>
<!-- Topic -->
<g id="node45" class="node">
<title>Topic</title>
<g id="a_node45"><a xlink:href="/develop/Data/models.html#topic" xlink:title="Topic" target="_top">
<polygon fill="#eeefff" stroke="#dddeee" points="411.79,-1381 357.79,-1381 357.79,-1345 411.79,-1345 411.79,-1381"/>
<text text-anchor="middle" x="384.79" y="-1359.3" font-family="Times,serif" font-size="14.00">Topic</text>
</a>
</g>
</g>
<!-- VerifierRole -->
<g id="node46" class="node">
<title>VerifierRole</title>
<g id="a_node46"><a xlink:href="/develop/Data/models.html#verifier-role" xlink:title="VerifierRole" target="_top">
<polygon fill="#eeefff" stroke="#dddeee" points="426.29,-74 343.29,-74 343.29,-38 426.29,-38 426.29,-74"/>
<text text-anchor="middle" x="384.79" y="-52.3" font-family="Times,serif" font-size="14.00">VerifierRole</text>
</a>
</g>
</g>
<!-- Verifier -->
<g id="node47" class="node">
<title>Verifier</title>
<g id="a_node47"><a xlink:href="/develop/Data/models.html#verifier" xlink:title="Verifier" target="_top">
<polygon fill="#eeefff" stroke="#dddeee" points="661.79,-101 604.79,-101 604.79,-65 661.79,-65 661.79,-101"/>
<text text-anchor="middle" x="633.29" y="-79.3" font-family="Times,serif" font-size="14.00">Verifier</text>
</a>
</g>
</g>
<!-- Version -->
<g id="node48" class="node">
<title>Version</title>
<g id="a_node48"><a xlink:href="/develop/Data/models.html#version" xlink:title="Version" target="_top">
<polygon fill="#eeefff" stroke="#dddeee" points="413.79,-182 355.79,-182 355.79,-146 413.79,-146 413.79,-182"/>
<text text-anchor="middle" x="384.79" y="-160.3" font-family="Times,serif" font-size="14.00">Version</text>
</a>
</g>
</g>
<!-- Creator -->
<g id="node49" class="node">
<title>Creator</title>
<g id="a_node49"><a xlink:href="/develop/Data/models.html#creator" xlink:title="Creator" target="_top">
<polygon fill="#eeefff" stroke="#dddeee" points="661.79,-1195 604.79,-1195 604.79,-1159 661.79,-1159 661.79,-1195"/>
<text text-anchor="middle" x="633.29" y="-1173.3" font-family="Times,serif" font-size="14.00">Creator</text>
</a>
</g>
</g>
<!-- Project -->
<g id="node50" class="node">
<title>Project</title>
<g id="a_node50"><a xlink:href="/develop/Data/models.html#project" xlink:title="Project" target="_top">
<polygon fill="#eeefff" stroke="#dddeee" points="412.29,-1195 357.29,-1195 357.29,-1159 412.29,-1159 412.29,-1195"/>
<text text-anchor="middle" x="384.79" y="-1173.3" font-family="Times,serif" font-size="14.00">Project</text>
</a>
</g>
</g>
<!-- Updater -->
<g id="node51" class="node">
<title>Updater</title>
<g id="a_node51"><a xlink:href="/develop/Data/models.html#updater" xlink:title="Updater" target="_top">
<polygon fill="#eeefff" stroke="#dddeee" points="886.29,-1195 826.29,-1195 826.29,-1159 886.29,-1159 886.29,-1195"/>
<text text-anchor="middle" x="856.29" y="-1173.3" font-family="Times,serif" font-size="14.00">Updater</text>
</a>
</g>
</g>
<!-- OriginCitation -->
<g id="node52" class="node">
<title>OriginCitation</title>
<g id="a_node52"><a xlink:href="/develop/Data/models.html#origin-citation" xlink:title="OriginCitation" target="_top">
<polygon fill="#eeefff" stroke="#dddeee" points="680.79,-1260 585.79,-1260 585.79,-1224 680.79,-1224 680.79,-1260"/>
<text text-anchor="middle" x="633.29" y="-1238.3" font-family="Times,serif" font-size="14.00">OriginCitation</text>
</a>
</g>
</g>
</g>
</svg>
