<?xml version="1.0" encoding="UTF-8" standalone="no"?>
<!DOCTYPE svg PUBLIC "-//W3C//DTD SVG 1.1//EN"
 "http://www.w3.org/Graphics/SVG/1.1/DTD/svg11.dtd">
<!-- Generated by graphviz version 2.50.0 (20211204.2007)
 -->
<!-- Title: Person Pages: 1 -->
<svg width="988pt" height="848pt"
 viewBox="0.00 0.00 988.39 848.00" xmlns="http://www.w3.org/2000/svg" xmlns:xlink="http://www.w3.org/1999/xlink">
<g id="graph0" class="graph" transform="scale(1 1) rotate(0) translate(4 844)">
<title>Person</title>
<polygon fill="white" stroke="transparent" points="-4,4 -4,-844 984.39,-844 984.39,4 -4,4"/>
<text text-anchor="middle" x="490.19" y="-22.8" font-family="Times,serif" font-size="14.00">Algorithmically generated relationships for Person based on assertions of &#39;has_many&#39;, &#39;has_one&#39;, &#39;belongs_to&#39;. </text>
<text text-anchor="middle" x="490.19" y="-7.8" font-family="Times,serif" font-size="14.00">Generated 2022&#45;01&#45;25 11:43:35 &#45;0600.</text>
<!-- AlternateValue&#45;&gt;AlternateValueLanguage -->
<g id="edge1" class="edge">
<title>AlternateValue&#45;&gt;AlternateValueLanguage</title>
<path fill="none" stroke="black" d="M127.71,-560C135.98,-560 144.57,-560 153.13,-560"/>
<polygon fill="black" stroke="black" points="153.14,-563.5 163.14,-560 153.14,-556.5 153.14,-563.5"/>
</g>
<!-- Depiction&#45;&gt;Image -->
<g id="edge19" class="edge">
<title>Depiction&#45;&gt;Image</title>
<path fill="none" stroke="black" d="M109.3,-344C137.96,-344 174.73,-344 201.61,-344"/>
<polygon fill="black" stroke="black" points="201.74,-347.5 211.74,-344 201.74,-340.5 201.74,-347.5"/>
</g>
<!-- Tag&#45;&gt;Keyword -->
<g id="edge20" class="edge">
<title>Tag&#45;&gt;Keyword</title>
<path fill="none" stroke="black" d="M91,-290C118.58,-290 162.36,-290 194.96,-290"/>
<polygon fill="black" stroke="black" points="195.11,-293.5 205.11,-290 195.11,-286.5 195.11,-293.5"/>
</g>
<!-- CollectingEvent&#45;&gt;CollectionObject -->
<g id="edge7" class="edge">
<title>CollectingEvent&#45;&gt;CollectionObject</title>
<path fill="none" stroke="black" d="M667.05,-713C684.03,-713 703.14,-713 720.95,-713"/>
<polygon fill="black" stroke="black" points="721.26,-716.5 731.26,-713 721.26,-709.5 721.26,-716.5"/>
</g>
<!-- CollectionObject&#45;&gt;DwcOccurrence -->
<g id="edge12" class="edge">
<title>CollectionObject&#45;&gt;DwcOccurrence</title>
<path fill="none" stroke="black" d="M840.41,-713C848.88,-713 857.7,-713 866.32,-713"/>
<polygon fill="black" stroke="black" points="866.34,-716.5 876.34,-713 866.34,-709.5 866.34,-716.5"/>
</g>
<!-- Person&#45;&gt;AlternateValue -->
<g id="edge2" class="edge">
<title>Person&#45;&gt;AlternateValue</title>
<path fill="none" stroke="black" d="M220.16,-448.05C199.71,-471.28 164.16,-508.61 127.39,-533 122.82,-536.03 117.86,-538.85 112.79,-541.43"/>
<polygon fill="black" stroke="black" points="111.13,-538.34 103.62,-545.81 114.15,-544.66 111.13,-538.34"/>
</g>
<!-- Person&#45;&gt;DataAttribute -->
<g id="edge9" class="edge">
<title>Person&#45;&gt;DataAttribute</title>
<path fill="none" stroke="black" d="M207.06,-441.84C184.96,-452.4 154.45,-466.81 127.39,-479 121.22,-481.78 114.68,-484.66 108.25,-487.47"/>
<polygon fill="black" stroke="black" points="106.74,-484.31 98.95,-491.49 109.52,-490.73 106.74,-484.31"/>
</g>
<!-- Person&#45;&gt;Depiction -->
<g id="edge10" class="edge">
<title>Person&#45;&gt;Depiction</title>
<path fill="none" stroke="black" d="M208.59,-411.52C186.46,-399.99 155.24,-384.04 127.39,-371 120.22,-367.64 112.52,-364.2 105.06,-360.94"/>
<polygon fill="black" stroke="black" points="106.36,-357.69 95.8,-356.94 103.59,-364.12 106.36,-357.69"/>
</g>
<!-- Person&#45;&gt;Identifier -->
<g id="edge18" class="edge">
<title>Person&#45;&gt;Identifier</title>
<path fill="none" stroke="black" d="M197.74,-432.8C172.97,-436.37 141.01,-440.98 114.61,-444.79"/>
<polygon fill="black" stroke="black" points="113.83,-441.37 104.43,-446.26 114.83,-448.3 113.83,-441.37"/>
</g>
<!-- Person&#45;&gt;Tag -->
<g id="edge28" class="edge">
<title>Person&#45;&gt;Tag</title>
<path fill="none" stroke="black" d="M211.31,-410.29C196.24,-400.05 177.61,-386.05 163.39,-371 143.58,-350.04 149.55,-335.47 127.39,-317 118.9,-309.93 108.28,-304.43 98.21,-300.29"/>
<polygon fill="black" stroke="black" points="99.4,-297 88.81,-296.73 96.93,-303.55 99.4,-297"/>
</g>
<!-- Person&#45;&gt;Note -->
<g id="edge21" class="edge">
<title>Person&#45;&gt;Note</title>
<path fill="none" stroke="black" d="M197.79,-420.29C168.53,-415.39 129.2,-408.8 100.89,-404.06"/>
<polygon fill="black" stroke="black" points="101.44,-400.6 91,-402.4 100.28,-407.51 101.44,-400.6"/>
</g>
<!-- Person&#45;&gt;AuthorRole -->
<g id="edge3" class="edge">
<title>Person&#45;&gt;AuthorRole</title>
<path fill="none" stroke="black" d="M258.9,-447.55C276.37,-467.71 301.47,-500.13 314.39,-533 357.39,-642.39 276.8,-703.35 350.39,-795 356.67,-802.82 365.45,-808.38 374.75,-812.33"/>
<polygon fill="black" stroke="black" points="373.55,-815.62 384.15,-815.76 375.96,-809.04 373.55,-815.62"/>
</g>
<!-- Person&#45;&gt;TaxonNameAuthorRole -->
<g id="edge30" class="edge">
<title>Person&#45;&gt;TaxonNameAuthorRole</title>
<path fill="none" stroke="black" d="M258.64,-447.66C275.92,-467.89 300.88,-500.37 314.39,-533 350.1,-619.28 291.07,-667.88 350.39,-740 351.36,-741.18 352.38,-742.31 353.46,-743.39"/>
<polygon fill="black" stroke="black" points="351.28,-746.13 361.19,-749.87 355.77,-740.76 351.28,-746.13"/>
</g>
<!-- Person&#45;&gt;CollectorRole -->
<g id="edge8" class="edge">
<title>Person&#45;&gt;CollectorRole</title>
<path fill="none" stroke="black" d="M258.2,-447.85C275.17,-468.22 299.91,-500.79 314.39,-533 342.86,-596.32 304.69,-632.74 350.39,-685 355.54,-690.89 362.07,-695.55 369.11,-699.23"/>
<polygon fill="black" stroke="black" points="367.66,-702.42 378.21,-703.39 370.57,-696.05 367.66,-702.42"/>
</g>
<!-- Person&#45;&gt;DeterminerRole -->
<g id="edge11" class="edge">
<title>Person&#45;&gt;DeterminerRole</title>
<path fill="none" stroke="black" d="M257.35,-448.26C273.7,-468.93 298.01,-501.71 314.39,-533 335.91,-574.11 317.61,-598.15 350.39,-631 354.11,-634.73 358.39,-637.95 362.98,-640.73"/>
<polygon fill="black" stroke="black" points="361.63,-643.97 372.1,-645.55 364.9,-637.78 361.63,-643.97"/>
</g>
<!-- Person&#45;&gt;EditorRole -->
<g id="edge14" class="edge">
<title>Person&#45;&gt;EditorRole</title>
<path fill="none" stroke="black" d="M255.26,-449.3C282.61,-488.79 338.05,-567.71 350.39,-577 358.24,-582.91 367.53,-587.64 376.79,-591.39"/>
<polygon fill="black" stroke="black" points="375.79,-594.75 386.38,-594.94 378.22,-588.18 375.79,-594.75"/>
</g>
<!-- Person&#45;&gt;GeoreferencerRole -->
<g id="edge15" class="edge">
<title>Person&#45;&gt;GeoreferencerRole</title>
<path fill="none" stroke="black" d="M258.93,-447.44C279.7,-468.74 314.75,-501.89 350.39,-523 353.04,-524.57 355.79,-526.07 358.61,-527.51"/>
<polygon fill="black" stroke="black" points="357.26,-530.74 367.79,-531.87 360.26,-524.42 357.26,-530.74"/>
</g>
<!-- Person&#45;&gt;SourceRole -->
<g id="edge26" class="edge">
<title>Person&#45;&gt;SourceRole</title>
<path fill="none" stroke="black" d="M274.4,-439.98C302.72,-450.63 343.16,-465.83 374.76,-477.71"/>
<polygon fill="black" stroke="black" points="373.67,-481.04 384.26,-481.29 376.13,-474.49 373.67,-481.04"/>
</g>
<!-- Person&#45;&gt;OriginRelationship -->
<g id="edge22" class="edge">
<title>Person&#45;&gt;OriginRelationship</title>
<path fill="none" stroke="black" d="M280.16,-421.95C301.76,-419.24 329,-415.83 353.91,-412.71"/>
<polygon fill="black" stroke="black" points="354.56,-416.15 364.05,-411.44 353.69,-409.21 354.56,-416.15"/>
</g>
<!-- Person&#45;&gt;PinboardItem -->
<g id="edge23" class="edge">
<title>Person&#45;&gt;PinboardItem</title>
<path fill="none" stroke="black" d="M269.77,-411.68C291.66,-400.9 322.33,-386.72 350.39,-377 370.04,-370.19 487.93,-341.86 559.2,-324.92"/>
<polygon fill="black" stroke="black" points="560.44,-328.23 569.36,-322.51 558.82,-321.42 560.44,-328.23"/>
</g>
<!-- Person&#45;&gt;RelatedOriginRelationship -->
<g id="edge24" class="edge">
<title>Person&#45;&gt;RelatedOriginRelationship</title>
<path fill="none" stroke="black" d="M280.35,-430.87C331.37,-435 421.7,-439.84 498.39,-431 511.43,-429.5 525.14,-427.07 538.37,-424.27"/>
<polygon fill="black" stroke="black" points="539.37,-427.63 548.38,-422.06 537.86,-420.79 539.37,-427.63"/>
</g>
<!-- Person&#45;&gt;Role -->
<g id="edge25" class="edge">
<title>Person&#45;&gt;Role</title>
<path fill="none" stroke="black" d="M267.96,-411.03C283.33,-401.13 301.77,-387.22 314.39,-371 339.84,-338.3 320.82,-314.03 350.39,-285 360.55,-275.03 374.56,-268.36 387.59,-263.97"/>
<polygon fill="black" stroke="black" points="388.73,-267.28 397.29,-261.04 386.7,-260.58 388.73,-267.28"/>
</g>
<!-- Person&#45;&gt;VerifierRole -->
<g id="edge31" class="edge">
<title>Person&#45;&gt;VerifierRole</title>
<path fill="none" stroke="black" d="M269.27,-411.47C284.87,-401.8 303.09,-387.97 314.39,-371 350.46,-316.8 306.85,-277.41 350.39,-229 356.56,-222.14 364.63,-217.02 373.16,-213.19"/>
<polygon fill="black" stroke="black" points="374.47,-216.44 382.51,-209.53 371.92,-209.92 374.47,-216.44"/>
</g>
<!-- Person&#45;&gt;Version -->
<g id="edge33" class="edge">
<title>Person&#45;&gt;Version</title>
<path fill="none" stroke="black" d="M263.71,-409.08C296.02,-384.78 349.81,-344.34 350.39,-344 361.5,-337.51 374.16,-331.51 385.79,-326.51"/>
<polygon fill="black" stroke="black" points="387.39,-329.64 395.26,-322.55 384.69,-323.18 387.39,-329.64"/>
</g>
<!-- Person&#45;&gt;Creator -->
<g id="edge34" class="edge">
<title>Person&#45;&gt;Creator</title>
<path fill="none" stroke="black" stroke-dasharray="5,2" d="M278.57,-406.3C291.97,-397.22 305.77,-385.34 314.39,-371 367.45,-282.69 287.48,-223.59 350.39,-142 361.37,-127.75 380.03,-119.72 395.73,-115.27"/>
<polygon fill="black" stroke="black" points="276.42,-403.52 269.89,-411.86 280.2,-409.42 276.42,-403.52"/>
</g>
<!-- Person&#45;&gt;Updater -->
<g id="edge35" class="edge">
<title>Person&#45;&gt;Updater</title>
<path fill="none" stroke="black" stroke-dasharray="5,2" d="M278.38,-406.18C291.75,-397.09 305.59,-385.22 314.39,-371 360.98,-295.68 289.67,-239.48 350.39,-175 354.48,-170.66 516.97,-132.51 584.71,-116.76"/>
<polygon fill="black" stroke="black" points="276.23,-403.4 269.71,-411.76 280.02,-409.29 276.23,-403.4"/>
</g>
<!-- Person&#45;&gt;User -->
<g id="edge36" class="edge">
<title>Person&#45;&gt;User</title>
<path fill="none" stroke="black" stroke-dasharray="1,5" d="M278.82,-406.45C292.24,-397.38 306,-385.47 314.39,-371 379.08,-259.4 270.24,-184.07 350.39,-83 361.64,-68.81 381.11,-62.08 397.12,-58.88"/>
<polygon fill="black" stroke="black" points="276.66,-403.67 270.1,-411.99 280.42,-409.58 276.66,-403.67"/>
</g>
<!-- AuthorRole&#45;&gt;AuthoredSource -->
<g id="edge4" class="edge">
<title>AuthorRole&#45;&gt;AuthoredSource</title>
<path fill="none" stroke="black" d="M464.45,-822C489.82,-822 523.42,-822 552.34,-822"/>
<polygon fill="black" stroke="black" points="552.35,-825.5 562.35,-822 552.35,-818.5 552.35,-825.5"/>
</g>
<!-- TaxonNameAuthorRole&#45;&gt;AuthoredTaxonName -->
<g id="edge5" class="edge">
<title>TaxonNameAuthorRole&#45;&gt;AuthoredTaxonName</title>
<path fill="none" stroke="black" d="M498.54,-768C511.19,-768 524.39,-768 537.14,-768"/>
<polygon fill="black" stroke="black" points="537.25,-771.5 547.25,-768 537.25,-764.5 537.25,-771.5"/>
</g>
<!-- CollectorRole&#45;&gt;CollectingEvent -->
<g id="edge6" class="edge">
<title>CollectorRole&#45;&gt;CollectingEvent</title>
<path fill="none" stroke="black" d="M470.54,-713C495.17,-713 526,-713 552.75,-713"/>
<polygon fill="black" stroke="black" points="552.79,-716.5 562.79,-713 552.79,-709.5 552.79,-716.5"/>
</g>
<!-- DeterminerRole&#45;&gt;TaxonDetermination -->
<g id="edge29" class="edge">
<title>DeterminerRole&#45;&gt;TaxonDetermination</title>
<path fill="none" stroke="black" d="M476.4,-658C495.8,-658 518.31,-658 539.44,-658"/>
<polygon fill="black" stroke="black" points="539.68,-661.5 549.68,-658 539.68,-654.5 539.68,-661.5"/>
</g>
<!-- EditorRole&#45;&gt;EditedSource -->
<g id="edge13" class="edge">
<title>EditorRole&#45;&gt;EditedSource</title>
<path fill="none" stroke="black" d="M462.63,-604C490.39,-604 528.73,-604 559.85,-604"/>
<polygon fill="black" stroke="black" points="560.11,-607.5 570.11,-604 560.11,-600.5 560.11,-607.5"/>
</g>
<!-- GeoreferencerRole&#45;&gt;Georeference -->
<g id="edge16" class="edge">
<title>GeoreferencerRole&#45;&gt;Georeference</title>
<path fill="none" stroke="black" d="M484,-550C508.29,-550 536.28,-550 560.04,-550"/>
<polygon fill="black" stroke="black" points="560.29,-553.5 570.29,-550 560.29,-546.5 560.29,-553.5"/>
</g>
<!-- SourceRole&#45;&gt;HumanSource -->
<g id="edge17" class="edge">
<title>SourceRole&#45;&gt;HumanSource</title>
<path fill="none" stroke="black" d="M464.45,-496C491.17,-496 527.03,-496 556.92,-496"/>
<polygon fill="black" stroke="black" points="557.22,-499.5 567.22,-496 557.22,-492.5 557.22,-499.5"/>
</g>
<!-- OriginRelationship&#45;&gt;RelatedOriginRelationship -->
<!-- Role&#45;&gt;Source -->
<g id="edge27" class="edge">
<title>Role&#45;&gt;Source</title>
<path fill="none" stroke="black" d="M451.6,-256.14C484.28,-256.31 540.35,-256.61 577.27,-256.81"/>
<polygon fill="black" stroke="black" points="577.58,-260.31 587.6,-256.86 577.62,-253.31 577.58,-260.31"/>
</g>
<!-- Role&#45;&gt;Verifier -->
<!-- VerifierRole&#45;&gt;Verifier -->
<g id="edge32" class="edge">
<title>VerifierRole&#45;&gt;Verifier</title>
<path fill="none" stroke="black" d="M466.29,-202C498.88,-202 544.16,-202 575.95,-202"/>
<polygon fill="black" stroke="black" points="576.17,-205.5 586.17,-202 576.17,-198.5 576.17,-205.5"/>
</g>
<!-- Version&#45;&gt;PinboardItem -->
<!-- Creator&#45;&gt;Updater -->
<!-- AlternateValue -->
<g id="node1" class="node">
<title>AlternateValue</title>
<g id="a_node1"><a xlink:href="/develop/Data/models.html#alternate-value" xlink:title="AlternateValue" target="_top">
<ellipse fill="#abcdef" stroke="#dddeee" cx="63.69" cy="-560" rx="63.89" ry="18"/>
<text text-anchor="middle" x="63.69" y="-556.3" font-family="Times,serif" font-size="14.00">AlternateValue</text>
</a>
</g>
</g>
<!-- DataAttribute -->
<g id="node2" class="node">
<title>DataAttribute</title>
<g id="a_node2"><a xlink:href="/develop/Data/models.html#data-attribute" xlink:title="DataAttribute" target="_top">
<ellipse fill="#abcdef" stroke="#dddeee" cx="63.69" cy="-506" rx="59.29" ry="18"/>
<text text-anchor="middle" x="63.69" y="-502.3" font-family="Times,serif" font-size="14.00">DataAttribute</text>
</a>
</g>
</g>
<!-- Depiction -->
<g id="node3" class="node">
<title>Depiction</title>
<g id="a_node3"><a xlink:href="/develop/Data/models.html#depiction" xlink:title="Depiction" target="_top">
<ellipse fill="#abcdef" stroke="#dddeee" cx="63.69" cy="-344" rx="45.49" ry="18"/>
<text text-anchor="middle" x="63.69" y="-340.3" font-family="Times,serif" font-size="14.00">Depiction</text>
</a>
</g>
</g>
<!-- Identifier -->
<g id="node4" class="node">
<title>Identifier</title>
<g id="a_node4"><a xlink:href="/develop/Data/models.html#identifier" xlink:title="Identifier" target="_top">
<ellipse fill="#abcdef" stroke="#dddeee" cx="63.69" cy="-452" rx="42.79" ry="18"/>
<text text-anchor="middle" x="63.69" y="-448.3" font-family="Times,serif" font-size="14.00">Identifier</text>
</a>
</g>
</g>
<!-- Tag -->
<g id="node5" class="node">
<title>Tag</title>
<g id="a_node5"><a xlink:href="/develop/Data/models.html#tag" xlink:title="Tag" target="_top">
<ellipse fill="#abcdef" stroke="#dddeee" cx="63.69" cy="-290" rx="27" ry="18"/>
<text text-anchor="middle" x="63.69" y="-286.3" font-family="Times,serif" font-size="14.00">Tag</text>
</a>
</g>
</g>
<!-- Note -->
<g id="node6" class="node">
<title>Note</title>
<g id="a_node6"><a xlink:href="/develop/Data/models.html#note" xlink:title="Note" target="_top">
<ellipse fill="#abcdef" stroke="#dddeee" cx="63.69" cy="-398" rx="27.9" ry="18"/>
<text text-anchor="middle" x="63.69" y="-394.3" font-family="Times,serif" font-size="14.00">Note</text>
</a>
</g>
</g>
<!-- CollectingEvent -->
<g id="node7" class="node">
<title>CollectingEvent</title>
<g id="a_node7"><a xlink:href="/develop/Data/models.html#collecting-event" xlink:title="CollectingEvent" target="_top">
<path fill="#fedcba" stroke="#dddeee" d="M574.89,-695C574.89,-695 654.89,-695 654.89,-695 660.89,-695 666.89,-701 666.89,-707 666.89,-707 666.89,-719 666.89,-719 666.89,-725 660.89,-731 654.89,-731 654.89,-731 574.89,-731 574.89,-731 568.89,-731 562.89,-725 562.89,-719 562.89,-719 562.89,-707 562.89,-707 562.89,-701 568.89,-695 574.89,-695"/>
<text text-anchor="middle" x="614.89" y="-709.3" font-family="Times,serif" font-size="14.00">CollectingEvent</text>
</a>
</g>
</g>
<!-- CollectionObject -->
<g id="node8" class="node">
<title>CollectionObject</title>
<g id="a_node8"><a xlink:href="/develop/Data/models.html#collection-object" xlink:title="CollectionObject" target="_top">
<path fill="#fedcba" stroke="#dddeee" d="M743.39,-695C743.39,-695 828.39,-695 828.39,-695 834.39,-695 840.39,-701 840.39,-707 840.39,-707 840.39,-719 840.39,-719 840.39,-725 834.39,-731 828.39,-731 828.39,-731 743.39,-731 743.39,-731 737.39,-731 731.39,-725 731.39,-719 731.39,-719 731.39,-707 731.39,-707 731.39,-701 737.39,-695 743.39,-695"/>
<text text-anchor="middle" x="785.89" y="-709.3" font-family="Times,serif" font-size="14.00">CollectionObject</text>
</a>
</g>
</g>
<!-- Source -->
<g id="node9" class="node">
<title>Source</title>
<g id="a_node9"><a xlink:href="/develop/Data/models.html#source" xlink:title="Source" target="_top">
<path fill="#fedcba" stroke="#dddeee" d="M599.89,-239C599.89,-239 629.89,-239 629.89,-239 635.89,-239 641.89,-245 641.89,-251 641.89,-251 641.89,-263 641.89,-263 641.89,-269 635.89,-275 629.89,-275 629.89,-275 599.89,-275 599.89,-275 593.89,-275 587.89,-269 587.89,-263 587.89,-263 587.89,-251 587.89,-251 587.89,-245 593.89,-239 599.89,-239"/>
<text text-anchor="middle" x="614.89" y="-253.3" font-family="Times,serif" font-size="14.00">Source</text>
</a>
</g>
</g>
<!-- Person -->
<g id="node10" class="node">
<title>Person</title>
<g id="a_node10"><a xlink:href="/develop/Data/models.html#person" xlink:title="Person" target="_top">
<polygon fill="#cdefab" stroke="#dedede" points="275.98,-419.54 275.98,-434.46 254.25,-445 223.52,-445 201.8,-434.46 201.8,-419.54 223.52,-409 254.25,-409 275.98,-419.54"/>
<polygon fill="none" stroke="#dedede" points="279.96,-417.03 279.96,-436.97 255.16,-449 222.61,-449 197.82,-436.97 197.82,-417.03 222.61,-405 255.16,-405 279.96,-417.03"/>
<text text-anchor="middle" x="238.89" y="-423.3" font-family="Times,serif" font-size="14.00">Person</text>
</a>
</g>
</g>
<!-- AlternateValueLanguage -->
<g id="node11" class="node">
<title>AlternateValueLanguage</title>
<g id="a_node11"><a xlink:href="/develop/Data/models.html#alternate-value-language" xlink:title="AlternateValueLanguage" target="_top">
<polygon fill="#eeefff" stroke="#dddeee" points="314.39,-578 163.39,-578 163.39,-542 314.39,-542 314.39,-578"/>
<text text-anchor="middle" x="238.89" y="-556.3" font-family="Times,serif" font-size="14.00">AlternateValueLanguage</text>
</a>
</g>
</g>
<!-- AuthorRole -->
<g id="node12" class="node">
<title>AuthorRole</title>
<g id="a_node12"><a xlink:href="/develop/Data/models.html#author-role" xlink:title="AuthorRole" target="_top">
<polygon fill="#eeefff" stroke="#dddeee" points="464.39,-840 384.39,-840 384.39,-804 464.39,-804 464.39,-840"/>
<text text-anchor="middle" x="424.39" y="-818.3" font-family="Times,serif" font-size="14.00">AuthorRole</text>
</a>
</g>
</g>
<!-- AuthoredSource -->
<g id="node13" class="node">
<title>AuthoredSource</title>
<g id="a_node13"><a xlink:href="/develop/Data/models.html#authored-source" xlink:title="AuthoredSource" target="_top">
<polygon fill="#eeefff" stroke="#dddeee" points="667.39,-840 562.39,-840 562.39,-804 667.39,-804 667.39,-840"/>
<text text-anchor="middle" x="614.89" y="-818.3" font-family="Times,serif" font-size="14.00">AuthoredSource</text>
</a>
</g>
</g>
<!-- TaxonNameAuthorRole -->
<g id="node14" class="node">
<title>TaxonNameAuthorRole</title>
<g id="a_node14"><a xlink:href="/develop/Data/models.html#taxon-name-author-role" xlink:title="TaxonNameAuthorRole" target="_top">
<polygon fill="#eeefff" stroke="#dddeee" points="498.39,-786 350.39,-786 350.39,-750 498.39,-750 498.39,-786"/>
<text text-anchor="middle" x="424.39" y="-764.3" font-family="Times,serif" font-size="14.00">TaxonNameAuthorRole</text>
</a>
</g>
</g>
<!-- AuthoredTaxonName -->
<g id="node15" class="node">
<title>AuthoredTaxonName</title>
<g id="a_node15"><a xlink:href="/develop/Data/models.html#authored-taxon-name" xlink:title="AuthoredTaxonName" target="_top">
<polygon fill="#eeefff" stroke="#dddeee" points="682.39,-786 547.39,-786 547.39,-750 682.39,-750 682.39,-786"/>
<text text-anchor="middle" x="614.89" y="-764.3" font-family="Times,serif" font-size="14.00">AuthoredTaxonName</text>
</a>
</g>
</g>
<!-- CollectorRole -->
<g id="node16" class="node">
<title>CollectorRole</title>
<g id="a_node16"><a xlink:href="/develop/Data/models.html#collector-role" xlink:title="CollectorRole" target="_top">
<polygon fill="#eeefff" stroke="#dddeee" points="470.39,-731 378.39,-731 378.39,-695 470.39,-695 470.39,-731"/>
<text text-anchor="middle" x="424.39" y="-709.3" font-family="Times,serif" font-size="14.00">CollectorRole</text>
</a>
</g>
</g>
<!-- DeterminerRole -->
<g id="node17" class="node">
<title>DeterminerRole</title>
<g id="a_node17"><a xlink:href="/develop/Data/models.html#determiner-role" xlink:title="DeterminerRole" target="_top">
<polygon fill="#eeefff" stroke="#dddeee" points="476.39,-676 372.39,-676 372.39,-640 476.39,-640 476.39,-676"/>
<text text-anchor="middle" x="424.39" y="-654.3" font-family="Times,serif" font-size="14.00">DeterminerRole</text>
</a>
</g>
</g>
<!-- DwcOccurrence -->
<g id="node18" class="node">
<title>DwcOccurrence</title>
<g id="a_node18"><a xlink:href="/develop/Data/models.html#dwc-occurrence" xlink:title="DwcOccurrence" target="_top">
<polygon fill="#eeefff" stroke="#dddeee" points="980.39,-731 876.39,-731 876.39,-695 980.39,-695 980.39,-731"/>
<text text-anchor="middle" x="928.39" y="-709.3" font-family="Times,serif" font-size="14.00">DwcOccurrence</text>
</a>
</g>
</g>
<!-- EditorRole -->
<g id="node19" class="node">
<title>EditorRole</title>
<g id="a_node19"><a xlink:href="/develop/Data/models.html#editor-role" xlink:title="EditorRole" target="_top">
<polygon fill="#eeefff" stroke="#dddeee" points="462.39,-622 386.39,-622 386.39,-586 462.39,-586 462.39,-622"/>
<text text-anchor="middle" x="424.39" y="-600.3" font-family="Times,serif" font-size="14.00">EditorRole</text>
</a>
</g>
</g>
<!-- EditedSource -->
<g id="node20" class="node">
<title>EditedSource</title>
<g id="a_node20"><a xlink:href="/develop/Data/models.html#edited-source" xlink:title="EditedSource" target="_top">
<polygon fill="#eeefff" stroke="#dddeee" points="659.39,-622 570.39,-622 570.39,-586 659.39,-586 659.39,-622"/>
<text text-anchor="middle" x="614.89" y="-600.3" font-family="Times,serif" font-size="14.00">EditedSource</text>
</a>
</g>
</g>
<!-- GeoreferencerRole -->
<g id="node21" class="node">
<title>GeoreferencerRole</title>
<g id="a_node21"><a xlink:href="/develop/Data/models.html#georeferencer-role" xlink:title="GeoreferencerRole" target="_top">
<polygon fill="#eeefff" stroke="#dddeee" points="483.89,-568 364.89,-568 364.89,-532 483.89,-532 483.89,-568"/>
<text text-anchor="middle" x="424.39" y="-546.3" font-family="Times,serif" font-size="14.00">GeoreferencerRole</text>
</a>
</g>
</g>
<!-- Georeference -->
<g id="node22" class="node">
<title>Georeference</title>
<g id="a_node22"><a xlink:href="/develop/Data/models.html#georeference" xlink:title="Georeference" target="_top">
<polygon fill="#eeefff" stroke="#dddeee" points="659.39,-568 570.39,-568 570.39,-532 659.39,-532 659.39,-568"/>
<text text-anchor="middle" x="614.89" y="-546.3" font-family="Times,serif" font-size="14.00">Georeference</text>
</a>
</g>
</g>
<!-- SourceRole -->
<g id="node23" class="node">
<title>SourceRole</title>
<g id="a_node23"><a xlink:href="/develop/Data/models.html#source-role" xlink:title="SourceRole" target="_top">
<polygon fill="#eeefff" stroke="#dddeee" points="464.39,-514 384.39,-514 384.39,-478 464.39,-478 464.39,-514"/>
<text text-anchor="middle" x="424.39" y="-492.3" font-family="Times,serif" font-size="14.00">SourceRole</text>
</a>
</g>
</g>
<!-- HumanSource -->
<g id="node24" class="node">
<title>HumanSource</title>
<g id="a_node24"><a xlink:href="/develop/Data/models.html#human-source" xlink:title="HumanSource" target="_top">
<polygon fill="#eeefff" stroke="#dddeee" points="662.39,-514 567.39,-514 567.39,-478 662.39,-478 662.39,-514"/>
<text text-anchor="middle" x="614.89" y="-492.3" font-family="Times,serif" font-size="14.00">HumanSource</text>
</a>
</g>
</g>
<!-- Image -->
<g id="node25" class="node">
<title>Image</title>
<g id="a_node25"><a xlink:href="/develop/Data/models.html#image" xlink:title="Image" target="_top">
<polygon fill="#eeefff" stroke="#dddeee" points="265.89,-362 211.89,-362 211.89,-326 265.89,-326 265.89,-362"/>
<text text-anchor="middle" x="238.89" y="-340.3" font-family="Times,serif" font-size="14.00">Image</text>
</a>
</g>
</g>
<!-- Keyword -->
<g id="node26" class="node">
<title>Keyword</title>
<g id="a_node26"><a xlink:href="/develop/Data/models.html#keyword" xlink:title="Keyword" target="_top">
<polygon fill="#eeefff" stroke="#dddeee" points="272.39,-308 205.39,-308 205.39,-272 272.39,-272 272.39,-308"/>
<text text-anchor="middle" x="238.89" y="-286.3" font-family="Times,serif" font-size="14.00">Keyword</text>
</a>
</g>
</g>
<!-- OriginRelationship -->
<g id="node27" class="node">
<title>OriginRelationship</title>
<g id="a_node27"><a xlink:href="/develop/Data/models.html#origin-relationship" xlink:title="OriginRelationship" target="_top">
<polygon fill="#eeefff" stroke="#dddeee" points="484.39,-422 364.39,-422 364.39,-386 484.39,-386 484.39,-422"/>
<text text-anchor="middle" x="424.39" y="-400.3" font-family="Times,serif" font-size="14.00">OriginRelationship</text>
</a>
</g>
</g>
<!-- PinboardItem -->
<g id="node28" class="node">
<title>PinboardItem</title>
<g id="a_node28"><a xlink:href="/develop/Data/models.html#pinboard-item" xlink:title="PinboardItem" target="_top">
<polygon fill="#eeefff" stroke="#dddeee" points="660.39,-330 569.39,-330 569.39,-294 660.39,-294 660.39,-330"/>
<text text-anchor="middle" x="614.89" y="-308.3" font-family="Times,serif" font-size="14.00">PinboardItem</text>
</a>
</g>
</g>
<!-- RelatedOriginRelationship -->
<g id="node29" class="node">
<title>RelatedOriginRelationship</title>
<g id="a_node29"><a xlink:href="/develop/Data/models.html#related-origin-relationship" xlink:title="RelatedOriginRelationship" target="_top">
<polygon fill="#eeefff" stroke="#dddeee" points="695.39,-422 534.39,-422 534.39,-386 695.39,-386 695.39,-422"/>
<text text-anchor="middle" x="614.89" y="-400.3" font-family="Times,serif" font-size="14.00">RelatedOriginRelationship</text>
</a>
</g>
</g>
<!-- Role -->
<g id="node30" class="node">
<title>Role</title>
<g id="a_node30"><a xlink:href="/develop/Data/models.html#role" xlink:title="Role" target="_top">
<polygon fill="#eeefff" stroke="#dddeee" points="451.39,-274 397.39,-274 397.39,-238 451.39,-238 451.39,-274"/>
<text text-anchor="middle" x="424.39" y="-252.3" font-family="Times,serif" font-size="14.00">Role</text>
</a>
</g>
</g>
<!-- TaxonDetermination -->
<g id="node31" class="node">
<title>TaxonDetermination</title>
<g id="a_node31"><a xlink:href="/develop/Data/models.html#taxon-determination" xlink:title="TaxonDetermination" target="_top">
<polygon fill="#eeefff" stroke="#dddeee" points="679.89,-676 549.89,-676 549.89,-640 679.89,-640 679.89,-676"/>
<text text-anchor="middle" x="614.89" y="-654.3" font-family="Times,serif" font-size="14.00">TaxonDetermination</text>
</a>
</g>
</g>
<!-- VerifierRole -->
<g id="node32" class="node">
<title>VerifierRole</title>
<g id="a_node32"><a xlink:href="/develop/Data/models.html#verifier-role" xlink:title="VerifierRole" target="_top">
<polygon fill="#eeefff" stroke="#dddeee" points="465.89,-220 382.89,-220 382.89,-184 465.89,-184 465.89,-220"/>
<text text-anchor="middle" x="424.39" y="-198.3" font-family="Times,serif" font-size="14.00">VerifierRole</text>
</a>
</g>
</g>
<!-- Verifier -->
<g id="node33" class="node">
<title>Verifier</title>
<g id="a_node33"><a xlink:href="/develop/Data/models.html#verifier" xlink:title="Verifier" target="_top">
<polygon fill="#eeefff" stroke="#dddeee" points="643.39,-220 586.39,-220 586.39,-184 643.39,-184 643.39,-220"/>
<text text-anchor="middle" x="614.89" y="-198.3" font-family="Times,serif" font-size="14.00">Verifier</text>
</a>
</g>
</g>
<!-- Version -->
<g id="node34" class="node">
<title>Version</title>
<g id="a_node34"><a xlink:href="/develop/Data/models.html#version" xlink:title="Version" target="_top">
<polygon fill="#eeefff" stroke="#dddeee" points="453.39,-330 395.39,-330 395.39,-294 453.39,-294 453.39,-330"/>
<text text-anchor="middle" x="424.39" y="-308.3" font-family="Times,serif" font-size="14.00">Version</text>
</a>
</g>
</g>
<!-- Creator -->
<g id="node35" class="node">
<title>Creator</title>
<g id="a_node35"><a xlink:href="/develop/Data/models.html#creator" xlink:title="Creator" target="_top">
<polygon fill="#eeefff" stroke="#dddeee" points="452.89,-128 395.89,-128 395.89,-92 452.89,-92 452.89,-128"/>
<text text-anchor="middle" x="424.39" y="-106.3" font-family="Times,serif" font-size="14.00">Creator</text>
</a>
</g>
</g>
<!-- Updater -->
<g id="node36" class="node">
<title>Updater</title>
<g id="a_node36"><a xlink:href="/develop/Data/models.html#updater" xlink:title="Updater" target="_top">
<polygon fill="#eeefff" stroke="#dddeee" points="644.89,-128 584.89,-128 584.89,-92 644.89,-92 644.89,-128"/>
<text text-anchor="middle" x="614.89" y="-106.3" font-family="Times,serif" font-size="14.00">Updater</text>
</a>
</g>
</g>
<!-- User -->
<g id="node37" class="node">
<title>User</title>
<g id="a_node37"><a xlink:href="/develop/Data/models.html#user" xlink:title="User" target="_top">
<polygon fill="#eeefff" stroke="#dddeee" points="451.39,-74 397.39,-74 397.39,-38 451.39,-38 451.39,-74"/>
<text text-anchor="middle" x="424.39" y="-52.3" font-family="Times,serif" font-size="14.00">User</text>
</a>
</g>
</g>
</g>
</svg>
