<?xml version="1.0" encoding="UTF-8" standalone="no"?>
<!DOCTYPE svg PUBLIC "-//W3C//DTD SVG 1.1//EN"
 "http://www.w3.org/Graphics/SVG/1.1/DTD/svg11.dtd">
<!-- Generated by graphviz version 2.50.0 (20211204.2007)
 -->
<!-- Title: PreparationType Pages: 1 -->
<svg width="676pt" height="358pt"
 viewBox="0.00 0.00 676.00 358.18" xmlns="http://www.w3.org/2000/svg" xmlns:xlink="http://www.w3.org/1999/xlink">
<g id="graph0" class="graph" transform="scale(1 1) rotate(0) translate(4 354.18)">
<title>PreparationType</title>
<polygon fill="white" stroke="transparent" points="-4,4 -4,-354.18 672,-354.18 672,4 -4,4"/>
<text text-anchor="middle" x="334" y="-22.8" font-family="Times,serif" font-size="14.00">Algorithmically generated relationships for PreparationType based on assertions of &#39;has_many&#39;, &#39;has_one&#39;, &#39;belongs_to&#39;. </text>
<text text-anchor="middle" x="334" y="-7.8" font-family="Times,serif" font-size="14.00">Generated 2022&#45;01&#45;25 11:43:36 &#45;0600.</text>
<!-- Tag&#45;&gt;Keyword -->
<g id="edge2" class="edge">
<title>Tag&#45;&gt;Keyword</title>
<path fill="none" stroke="black" d="M126.8,-218.86C147.01,-223.04 175.86,-229.01 199.64,-233.92"/>
<polygon fill="black" stroke="black" points="198.97,-237.36 209.48,-235.96 200.39,-230.5 198.97,-237.36"/>
</g>
<!-- PreparationType&#45;&gt;Tag -->
<g id="edge5" class="edge">
<title>PreparationType&#45;&gt;Tag</title>
<path fill="none" stroke="black" d="M176.2,-198.28C162.6,-201.09 148.79,-203.95 136.81,-206.43"/>
<polygon fill="black" stroke="black" points="135.89,-203.04 126.8,-208.5 137.31,-209.9 135.89,-203.04"/>
</g>
<!-- PreparationType&#45;&gt;CollectionObject -->
<g id="edge1" class="edge">
<title>PreparationType&#45;&gt;CollectionObject</title>
<path fill="none" stroke="black" d="M300.31,-200.64C308.33,-204.64 315.97,-209.58 322.27,-215.68 351.16,-243.65 331.95,-268.28 358.27,-298.68 361.01,-301.84 364.12,-304.78 367.43,-307.52"/>
<polygon fill="black" stroke="black" points="365.34,-310.33 375.45,-313.5 369.53,-304.72 365.34,-310.33"/>
</g>
<!-- PreparationType&#45;&gt;PinboardItem -->
<g id="edge3" class="edge">
<title>PreparationType&#45;&gt;PinboardItem</title>
<path fill="none" stroke="black" d="M298,-201.32C306.58,-205.27 315.01,-210.02 322.27,-215.68 343.87,-232.51 333.9,-253.2 358.27,-265.68 402.68,-288.42 460.17,-275.21 500.13,-260.39"/>
<polygon fill="black" stroke="black" points="501.57,-263.58 509.64,-256.71 499.05,-257.05 501.57,-263.58"/>
</g>
<!-- PreparationType&#45;&gt;Role -->
<g id="edge4" class="edge">
<title>PreparationType&#45;&gt;Role</title>
<path fill="none" stroke="black" d="M322.48,-184.68C340.92,-184.68 359.7,-184.68 375.25,-184.68"/>
<polygon fill="black" stroke="black" points="375.45,-188.18 385.45,-184.68 375.45,-181.18 375.45,-188.18"/>
</g>
<!-- PreparationType&#45;&gt;VerifierRole -->
<g id="edge6" class="edge">
<title>PreparationType&#45;&gt;VerifierRole</title>
<path fill="none" stroke="black" d="M296.62,-167.74C317.27,-161.1 340.87,-153.5 361.3,-146.93"/>
<polygon fill="black" stroke="black" points="362.6,-150.18 371.05,-143.79 360.46,-143.52 362.6,-150.18"/>
</g>
<!-- PreparationType&#45;&gt;Version -->
<g id="edge8" class="edge">
<title>PreparationType&#45;&gt;Version</title>
<path fill="none" stroke="black" d="M296.62,-201.62C321.74,-209.7 351.21,-219.19 374.06,-226.54"/>
<polygon fill="black" stroke="black" points="373.13,-229.92 383.72,-229.65 375.28,-223.26 373.13,-229.92"/>
</g>
<!-- PreparationType&#45;&gt;Creator -->
<g id="edge9" class="edge">
<title>PreparationType&#45;&gt;Creator</title>
<path fill="none" stroke="black" stroke-dasharray="5,2" d="M280.84,-156.44C302.78,-140.17 331.49,-119.81 358.27,-103.68 366.47,-98.74 375.69,-93.87 384.13,-89.65"/>
<polygon fill="black" stroke="black" points="278.7,-153.67 272.78,-162.46 282.89,-159.28 278.7,-153.67"/>
</g>
<!-- PreparationType&#45;&gt;Updater -->
<g id="edge10" class="edge">
<title>PreparationType&#45;&gt;Updater</title>
<path fill="none" stroke="black" stroke-dasharray="5,2" d="M259.87,-153.28C278.42,-120.48 312.51,-70.9 358.27,-49.68 411.03,-25.22 480.21,-46.82 518.71,-62.93"/>
<polygon fill="black" stroke="black" points="256.58,-152.01 254.83,-162.46 262.71,-155.38 256.58,-152.01"/>
</g>
<!-- Role&#45;&gt;Verifier -->
<!-- VerifierRole&#45;&gt;Verifier -->
<g id="edge7" class="edge">
<title>VerifierRole&#45;&gt;Verifier</title>
<path fill="none" stroke="black" d="M454.34,-138.85C472.11,-142.43 492.84,-146.61 510.25,-150.12"/>
<polygon fill="black" stroke="black" points="509.58,-153.55 520.07,-152.1 510.96,-146.69 509.58,-153.55"/>
</g>
<!-- Version&#45;&gt;PinboardItem -->
<!-- Creator&#45;&gt;Updater -->
<!-- Tag -->
<g id="node1" class="node">
<title>Tag</title>
<g id="a_node1"><a xlink:href="/develop/Data/models.html#tag" xlink:title="Tag" target="_top">
<ellipse fill="#abcdef" stroke="#dddeee" cx="100.73" cy="-213.68" rx="27" ry="18"/>
<text text-anchor="middle" x="100.73" y="-209.98" font-family="Times,serif" font-size="14.00">Tag</text>
</a>
</g>
</g>
<!-- CollectionObject -->
<g id="node2" class="node">
<title>CollectionObject</title>
<g id="a_node2"><a xlink:href="/develop/Data/models.html#collection-object" xlink:title="CollectionObject" target="_top">
<path fill="#fedcba" stroke="#dddeee" d="M370.27,-313.68C370.27,-313.68 455.27,-313.68 455.27,-313.68 461.27,-313.68 467.27,-319.68 467.27,-325.68 467.27,-325.68 467.27,-337.68 467.27,-337.68 467.27,-343.68 461.27,-349.68 455.27,-349.68 455.27,-349.68 370.27,-349.68 370.27,-349.68 364.27,-349.68 358.27,-343.68 358.27,-337.68 358.27,-337.68 358.27,-325.68 358.27,-325.68 358.27,-319.68 364.27,-313.68 370.27,-313.68"/>
<text text-anchor="middle" x="412.77" y="-327.98" font-family="Times,serif" font-size="14.00">CollectionObject</text>
</a>
</g>
</g>
<!-- PreparationType -->
<g id="node3" class="node">
<title>PreparationType</title>
<g id="a_node3"><a xlink:href="/develop/Data/models.html#preparation-type" xlink:title="PreparationType" target="_top">
<polygon fill="#cdefab" stroke="#dedede" points="318.06,-177.22 318.06,-192.14 274.09,-202.68 211.91,-202.68 167.94,-192.14 167.94,-177.22 211.91,-166.68 274.09,-166.68 318.06,-177.22"/>
<polygon fill="none" stroke="#dedede" points="322.05,-174.07 322.05,-195.29 274.56,-206.68 211.44,-206.68 163.95,-195.29 163.95,-174.07 211.44,-162.68 274.56,-162.68 322.05,-174.07"/>
<text text-anchor="middle" x="243" y="-180.98" font-family="Times,serif" font-size="14.00">PreparationType</text>
</a>
</g>
</g>
<!-- Keyword -->
<g id="node4" class="node">
<title>Keyword</title>
<g id="a_node4"><a xlink:href="/develop/Data/models.html#keyword" xlink:title="Keyword" target="_top">
<polygon fill="#eeefff" stroke="#dddeee" points="276.5,-260.68 209.5,-260.68 209.5,-224.68 276.5,-224.68 276.5,-260.68"/>
<text text-anchor="middle" x="243" y="-238.98" font-family="Times,serif" font-size="14.00">Keyword</text>
</a>
</g>
</g>
<!-- PinboardItem -->
<g id="node5" class="node">
<title>PinboardItem</title>
<g id="a_node5"><a xlink:href="/develop/Data/models.html#pinboard-item" xlink:title="PinboardItem" target="_top">
<polygon fill="#eeefff" stroke="#dddeee" points="594.27,-256.68 503.27,-256.68 503.27,-220.68 594.27,-220.68 594.27,-256.68"/>
<text text-anchor="middle" x="548.77" y="-234.98" font-family="Times,serif" font-size="14.00">PinboardItem</text>
</a>
</g>
</g>
<!-- Role -->
<g id="node6" class="node">
<title>Role</title>
<g id="a_node6"><a xlink:href="/develop/Data/models.html#role" xlink:title="Role" target="_top">
<polygon fill="#eeefff" stroke="#dddeee" points="439.77,-202.68 385.77,-202.68 385.77,-166.68 439.77,-166.68 439.77,-202.68"/>
<text text-anchor="middle" x="412.77" y="-180.98" font-family="Times,serif" font-size="14.00">Role</text>
</a>
</g>
</g>
<!-- VerifierRole -->
<g id="node7" class="node">
<title>VerifierRole</title>
<g id="a_node7"><a xlink:href="/develop/Data/models.html#verifier-role" xlink:title="VerifierRole" target="_top">
<polygon fill="#eeefff" stroke="#dddeee" points="454.27,-148.68 371.27,-148.68 371.27,-112.68 454.27,-112.68 454.27,-148.68"/>
<text text-anchor="middle" x="412.77" y="-126.98" font-family="Times,serif" font-size="14.00">VerifierRole</text>
</a>
</g>
</g>
<!-- Verifier -->
<g id="node8" class="node">
<title>Verifier</title>
<g id="a_node8"><a xlink:href="/develop/Data/models.html#verifier" xlink:title="Verifier" target="_top">
<polygon fill="#eeefff" stroke="#dddeee" points="577.27,-175.68 520.27,-175.68 520.27,-139.68 577.27,-139.68 577.27,-175.68"/>
<text text-anchor="middle" x="548.77" y="-153.98" font-family="Times,serif" font-size="14.00">Verifier</text>
</a>
</g>
</g>
<!-- Version -->
<g id="node9" class="node">
<title>Version</title>
<g id="a_node9"><a xlink:href="/develop/Data/models.html#version" xlink:title="Version" target="_top">
<polygon fill="#eeefff" stroke="#dddeee" points="441.77,-256.68 383.77,-256.68 383.77,-220.68 441.77,-220.68 441.77,-256.68"/>
<text text-anchor="middle" x="412.77" y="-234.98" font-family="Times,serif" font-size="14.00">Version</text>
</a>
</g>
</g>
<!-- Creator -->
<g id="node10" class="node">
<title>Creator</title>
<g id="a_node10"><a xlink:href="/develop/Data/models.html#creator" xlink:title="Creator" target="_top">
<polygon fill="#eeefff" stroke="#dddeee" points="441.27,-94.68 384.27,-94.68 384.27,-58.68 441.27,-58.68 441.27,-94.68"/>
<text text-anchor="middle" x="412.77" y="-72.98" font-family="Times,serif" font-size="14.00">Creator</text>
</a>
</g>
</g>
<!-- Updater -->
<g id="node11" class="node">
<title>Updater</title>
<g id="a_node11"><a xlink:href="/develop/Data/models.html#updater" xlink:title="Updater" target="_top">
<polygon fill="#eeefff" stroke="#dddeee" points="578.77,-94.68 518.77,-94.68 518.77,-58.68 578.77,-58.68 578.77,-94.68"/>
<text text-anchor="middle" x="548.77" y="-72.98" font-family="Times,serif" font-size="14.00">Updater</text>
</a>
</g>
</g>
</g>
</svg>
