<?xml version="1.0" encoding="UTF-8" standalone="no"?>
<!DOCTYPE svg PUBLIC "-//W3C//DTD SVG 1.1//EN"
 "http://www.w3.org/Graphics/SVG/1.1/DTD/svg11.dtd">
<!-- Generated by graphviz version 12.2.1 (20241206.2353)
 -->
<!-- Title: PreparationType Pages: 1 -->
<svg width="533pt" height="320pt"
 viewBox="0.00 0.00 533.09 319.88" xmlns="http://www.w3.org/2000/svg" xmlns:xlink="http://www.w3.org/1999/xlink">
<g id="graph0" class="graph" transform="scale(1 1) rotate(0) translate(4 315.88)">
<title>PreparationType</title>
<polygon fill="white" stroke="none" points="-4,4 -4,-315.88 529.09,-315.88 529.09,4 -4,4"/>
<!-- Tag&#45;&gt;Keyword -->
<g id="edge2" class="edge">
<title>Tag&#45;&gt;Keyword</title>
<path fill="none" stroke="black" stroke-dasharray="1,5" d="M53.29,-180.5C73.82,-184.65 103.25,-190.61 127.58,-195.54"/>
<polygon fill="black" stroke="black" points="126.73,-198.93 137.22,-197.49 128.12,-192.07 126.73,-198.93"/>
</g>
<!-- PreparationType&#45;&gt;Tag -->
<g id="edge5" class="edge">
<title>PreparationType&#45;&gt;Tag</title>
<path fill="none" stroke="black" d="M102.27,-160.35C89.13,-163.01 75.88,-165.69 64.27,-168.04"/>
<polygon fill="black" stroke="black" points="63.88,-164.55 54.77,-169.96 65.27,-171.41 63.88,-164.55"/>
</g>
<!-- PreparationType&#45;&gt;CollectionObject -->
<g id="edge1" class="edge">
<title>PreparationType&#45;&gt;CollectionObject</title>
<path fill="none" stroke="black" d="M232.6,-162.46C240.62,-166.43 248.26,-171.33 254.59,-177.38 283.65,-205.17 264.32,-229.94 290.59,-260.38 292.97,-263.14 295.63,-265.73 298.47,-268.17"/>
<polygon fill="black" stroke="black" points="296.1,-270.77 306.17,-274.06 300.36,-265.21 296.1,-270.77"/>
</g>
<!-- PreparationType&#45;&gt;PinboardItem -->
<g id="edge3" class="edge">
<title>PreparationType&#45;&gt;PinboardItem</title>
<path fill="none" stroke="black" d="M229.81,-162.97C238.57,-166.91 247.17,-171.67 254.59,-177.38 276.3,-194.07 266.22,-214.9 290.59,-227.38 333.86,-249.55 389.64,-237.31 429.24,-222.89"/>
<polygon fill="black" stroke="black" points="430.45,-226.18 438.54,-219.34 427.95,-219.64 430.45,-226.18"/>
</g>
<!-- PreparationType&#45;&gt;Role -->
<g id="edge4" class="edge">
<title>PreparationType&#45;&gt;Role</title>
<path fill="none" stroke="black" d="M255.01,-146.38C272.81,-146.38 290.81,-146.38 305.9,-146.38"/>
<polygon fill="black" stroke="black" points="305.8,-149.88 315.8,-146.38 305.8,-142.88 305.8,-149.88"/>
</g>
<!-- PreparationType&#45;&gt;VerifierRole -->
<g id="edge6" class="edge">
<title>PreparationType&#45;&gt;VerifierRole</title>
<path fill="none" stroke="black" d="M227.69,-129.15C248.32,-122.61 271.73,-115.19 292.1,-108.74"/>
<polygon fill="black" stroke="black" points="293.14,-112.08 301.62,-105.72 291.03,-105.4 293.14,-112.08"/>
</g>
<!-- PreparationType&#45;&gt;Version -->
<g id="edge8" class="edge">
<title>PreparationType&#45;&gt;Version</title>
<path fill="none" stroke="black" d="M227.69,-163.62C252.97,-171.63 282.43,-180.96 305.34,-188.22"/>
<polygon fill="black" stroke="black" points="303.98,-191.46 314.57,-191.15 306.1,-184.79 303.98,-191.46"/>
</g>
<!-- PreparationType&#45;&gt;Creator -->
<g id="edge9" class="edge">
<title>PreparationType&#45;&gt;Creator</title>
<path fill="none" stroke="black" stroke-dasharray="5,2" d="M212.59,-117.28C234.97,-101.21 263.8,-81.34 290.59,-65.38 298.68,-60.56 307.73,-55.76 316.04,-51.57"/>
<polygon fill="black" stroke="black" points="210.7,-114.33 204.65,-123.02 214.81,-120 210.7,-114.33"/>
</g>
<!-- PreparationType&#45;&gt;Updater -->
<g id="edge10" class="edge">
<title>PreparationType&#45;&gt;Updater</title>
<path fill="none" stroke="black" stroke-dasharray="5,2" d="M190.05,-114.54C209.33,-81.71 244.38,-32.45 290.59,-11.38 343.05,12.53 411.52,-8.7 449.8,-24.64"/>
<polygon fill="black" stroke="black" points="187.23,-112.41 185.33,-122.83 193.32,-115.87 187.23,-112.41"/>
</g>
<!-- Role&#45;&gt;Verifier -->
<!-- VerifierRole&#45;&gt;Verifier -->
<g id="edge7" class="edge">
<title>VerifierRole&#45;&gt;Verifier</title>
<path fill="none" stroke="black" stroke-dasharray="1,5" d="M386.42,-100.63C403.46,-104.08 423.18,-108.08 440.02,-111.49"/>
<polygon fill="black" stroke="black" points="439.18,-114.89 449.68,-113.45 440.57,-108.03 439.18,-114.89"/>
</g>
<!-- Version&#45;&gt;PinboardItem -->
<!-- Creator&#45;&gt;Updater -->
<!-- Tag -->
<g id="node1" class="node">
<title>Tag</title>
<g id="a_node1"><a xlink:href="/develop/Data/models.html#tag" xlink:title="Tag" target="_top">
<ellipse fill="#abcdef" stroke="#dddeee" cx="27" cy="-175.38" rx="27" ry="18"/>
<text text-anchor="middle" x="27" y="-170.33" font-family="Times,serif" font-size="14.00">Tag</text>
</a>
</g>
</g>
<!-- CollectionObject -->
<g id="node2" class="node">
<title>CollectionObject</title>
<g id="a_node2"><a xlink:href="/develop/Data/models.html#collection-object" xlink:title="CollectionObject" target="_top">
<path fill="#fedcba" stroke="#dddeee" d="M302.59,-275.38C302.59,-275.38 386.84,-275.38 386.84,-275.38 392.84,-275.38 398.84,-281.38 398.84,-287.38 398.84,-287.38 398.84,-299.38 398.84,-299.38 398.84,-305.38 392.84,-311.38 386.84,-311.38 386.84,-311.38 302.59,-311.38 302.59,-311.38 296.59,-311.38 290.59,-305.38 290.59,-299.38 290.59,-299.38 290.59,-287.38 290.59,-287.38 290.59,-281.38 296.59,-275.38 302.59,-275.38"/>
<text text-anchor="middle" x="344.72" y="-288.58" font-family="Times,serif" font-size="14.00">CollectionObject</text>
</a>
</g>
</g>
<!-- PreparationType -->
<g id="node3" class="node">
<title>PreparationType</title>
<g id="a_node3"><a xlink:href="/develop/Data/models.html#preparation-type" xlink:title="PreparationType" target="_top">
<polygon fill="#cdefab" stroke="#dedede" points="250.59,-138.93 250.59,-153.84 204.73,-164.38 139.86,-164.38 94,-153.84 94,-138.93 139.86,-128.38 204.73,-128.38 250.59,-138.93"/>
<polygon fill="none" stroke="#dedede" points="254.59,-135.74 254.59,-157.02 205.18,-168.38 139.41,-168.38 90,-157.02 90,-135.74 139.41,-124.38 205.18,-124.38 254.59,-135.74"/>
<text text-anchor="middle" x="172.3" y="-141.33" font-family="Times,serif" font-size="14.00">PreparationType</text>
</a>
</g>
</g>
<!-- Keyword -->
<g id="node4" class="node">
<title>Keyword</title>
<g id="a_node4"><a xlink:href="/develop/Data/models.html#keyword" xlink:title="Keyword" target="_top">
<polygon fill="#eeefff" stroke="#dddeee" points="205.42,-222.38 139.17,-222.38 139.17,-186.38 205.42,-186.38 205.42,-222.38"/>
<text text-anchor="middle" x="172.3" y="-199.33" font-family="Times,serif" font-size="14.00">Keyword</text>
</a>
</g>
</g>
<!-- PinboardItem -->
<g id="node5" class="node">
<title>PinboardItem</title>
<g id="a_node5"><a xlink:href="/develop/Data/models.html#pinboard-item" xlink:title="PinboardItem" target="_top">
<polygon fill="#eeefff" stroke="#dddeee" points="525.09,-218.38 434.84,-218.38 434.84,-182.38 525.09,-182.38 525.09,-218.38"/>
<text text-anchor="middle" x="479.97" y="-195.33" font-family="Times,serif" font-size="14.00">PinboardItem</text>
</a>
</g>
</g>
<!-- Role -->
<g id="node6" class="node">
<title>Role</title>
<g id="a_node6"><a xlink:href="/develop/Data/models.html#role" xlink:title="Role" target="_top">
<polygon fill="#eeefff" stroke="#dddeee" points="371.72,-164.38 317.72,-164.38 317.72,-128.38 371.72,-128.38 371.72,-164.38"/>
<text text-anchor="middle" x="344.72" y="-141.33" font-family="Times,serif" font-size="14.00">Role</text>
</a>
</g>
</g>
<!-- VerifierRole -->
<g id="node7" class="node">
<title>VerifierRole</title>
<g id="a_node7"><a xlink:href="/develop/Data/models.html#verifier-role" xlink:title="VerifierRole" target="_top">
<polygon fill="#eeefff" stroke="#dddeee" points="386.09,-110.38 303.34,-110.38 303.34,-74.38 386.09,-74.38 386.09,-110.38"/>
<text text-anchor="middle" x="344.72" y="-87.33" font-family="Times,serif" font-size="14.00">VerifierRole</text>
</a>
</g>
</g>
<!-- Verifier -->
<g id="node8" class="node">
<title>Verifier</title>
<g id="a_node8"><a xlink:href="/develop/Data/models.html#verifier" xlink:title="Verifier" target="_top">
<polygon fill="#eeefff" stroke="#dddeee" points="508.59,-137.38 451.34,-137.38 451.34,-101.38 508.59,-101.38 508.59,-137.38"/>
<text text-anchor="middle" x="479.97" y="-114.33" font-family="Times,serif" font-size="14.00">Verifier</text>
</a>
</g>
</g>
<!-- Version -->
<g id="node9" class="node">
<title>Version</title>
<g id="a_node9"><a xlink:href="/develop/Data/models.html#version" xlink:title="Version" target="_top">
<polygon fill="#eeefff" stroke="#dddeee" points="373.34,-218.38 316.09,-218.38 316.09,-182.38 373.34,-182.38 373.34,-218.38"/>
<text text-anchor="middle" x="344.72" y="-195.33" font-family="Times,serif" font-size="14.00">Version</text>
</a>
</g>
</g>
<!-- Creator -->
<g id="node10" class="node">
<title>Creator</title>
<g id="a_node10"><a xlink:href="/develop/Data/models.html#creator" xlink:title="Creator" target="_top">
<polygon fill="#eeefff" stroke="#dddeee" points="372.97,-56.38 316.47,-56.38 316.47,-20.38 372.97,-20.38 372.97,-56.38"/>
<text text-anchor="middle" x="344.72" y="-33.33" font-family="Times,serif" font-size="14.00">Creator</text>
</a>
</g>
</g>
<!-- Updater -->
<g id="node11" class="node">
<title>Updater</title>
<g id="a_node11"><a xlink:href="/develop/Data/models.html#updater" xlink:title="Updater" target="_top">
<polygon fill="#eeefff" stroke="#dddeee" points="509.72,-56.38 450.22,-56.38 450.22,-20.38 509.72,-20.38 509.72,-56.38"/>
<text text-anchor="middle" x="479.97" y="-33.33" font-family="Times,serif" font-size="14.00">Updater</text>
</a>
</g>
</g>
</g>
</svg>
