<?xml version="1.0" encoding="UTF-8" standalone="no"?>
<!DOCTYPE svg PUBLIC "-//W3C//DTD SVG 1.1//EN"
 "http://www.w3.org/Graphics/SVG/1.1/DTD/svg11.dtd">
<!-- Generated by graphviz version 2.50.0 (20211204.2007)
 -->
<!-- Title: PreparationType Pages: 1 -->
<svg width="529pt" height="320pt"
 viewBox="0.00 0.00 528.55 320.18" xmlns="http://www.w3.org/2000/svg" xmlns:xlink="http://www.w3.org/1999/xlink">
<g id="graph0" class="graph" transform="scale(1 1) rotate(0) translate(4 316.18)">
<title>PreparationType</title>
<polygon fill="white" stroke="transparent" points="-4,4 -4,-316.18 524.55,-316.18 524.55,4 -4,4"/>
<!-- Tag&#45;&gt;Keyword -->
<g id="edge2" class="edge">
<title>Tag&#45;&gt;Keyword</title>
<path fill="none" stroke="black" stroke-dasharray="1,5" d="M53.08,-180.86C73.28,-185.04 102.14,-191.01 125.91,-195.92"/>
<polygon fill="black" stroke="black" points="125.25,-199.36 135.75,-197.96 126.66,-192.5 125.25,-199.36"/>
</g>
<!-- PreparationType&#45;&gt;Tag -->
<g id="edge5" class="edge">
<title>PreparationType&#45;&gt;Tag</title>
<path fill="none" stroke="black" d="M102.48,-160.28C88.88,-163.09 75.06,-165.95 63.08,-168.43"/>
<polygon fill="black" stroke="black" points="62.16,-165.04 53.08,-170.5 63.58,-171.9 62.16,-165.04"/>
</g>
<!-- PreparationType&#45;&gt;CollectionObject -->
<g id="edge1" class="edge">
<title>PreparationType&#45;&gt;CollectionObject</title>
<path fill="none" stroke="black" d="M226.58,-162.64C234.6,-166.64 242.25,-171.58 248.55,-177.68 277.43,-205.65 258.23,-230.28 284.55,-260.68 287.28,-263.84 290.39,-266.78 293.7,-269.52"/>
<polygon fill="black" stroke="black" points="291.62,-272.33 301.73,-275.5 295.8,-266.72 291.62,-272.33"/>
</g>
<!-- PreparationType&#45;&gt;PinboardItem -->
<g id="edge3" class="edge">
<title>PreparationType&#45;&gt;PinboardItem</title>
<path fill="none" stroke="black" d="M224.27,-163.32C232.86,-167.27 241.28,-172.02 248.55,-177.68 270.15,-194.51 260.18,-215.2 284.55,-227.68 328.95,-250.42 386.44,-237.21 426.4,-222.39"/>
<polygon fill="black" stroke="black" points="427.85,-225.58 435.91,-218.71 425.32,-219.05 427.85,-225.58"/>
</g>
<!-- PreparationType&#45;&gt;Role -->
<g id="edge4" class="edge">
<title>PreparationType&#45;&gt;Role</title>
<path fill="none" stroke="black" d="M248.76,-146.68C267.19,-146.68 285.97,-146.68 301.52,-146.68"/>
<polygon fill="black" stroke="black" points="301.73,-150.18 311.73,-146.68 301.73,-143.18 301.73,-150.18"/>
</g>
<!-- PreparationType&#45;&gt;VerifierRole -->
<g id="edge6" class="edge">
<title>PreparationType&#45;&gt;VerifierRole</title>
<path fill="none" stroke="black" d="M222.9,-129.74C243.54,-123.1 267.14,-115.5 287.57,-108.93"/>
<polygon fill="black" stroke="black" points="288.88,-112.18 297.32,-105.79 286.73,-105.52 288.88,-112.18"/>
</g>
<!-- PreparationType&#45;&gt;Version -->
<g id="edge8" class="edge">
<title>PreparationType&#45;&gt;Version</title>
<path fill="none" stroke="black" d="M222.9,-163.62C248.01,-171.7 277.49,-181.19 300.33,-188.54"/>
<polygon fill="black" stroke="black" points="299.41,-191.92 310,-191.65 301.55,-185.26 299.41,-191.92"/>
</g>
<!-- PreparationType&#45;&gt;Creator -->
<g id="edge9" class="edge">
<title>PreparationType&#45;&gt;Creator</title>
<path fill="none" stroke="black" stroke-dasharray="5,2" d="M207.12,-118.44C229.06,-102.17 257.76,-81.81 284.55,-65.68 292.75,-60.74 301.96,-55.87 310.41,-51.65"/>
<polygon fill="black" stroke="black" points="204.98,-115.67 199.06,-124.46 209.16,-121.28 204.98,-115.67"/>
</g>
<!-- PreparationType&#45;&gt;Updater -->
<g id="edge10" class="edge">
<title>PreparationType&#45;&gt;Updater</title>
<path fill="none" stroke="black" stroke-dasharray="5,2" d="M186.14,-115.28C204.69,-82.48 238.78,-32.9 284.55,-11.68 337.31,12.78 406.49,-8.82 444.98,-24.93"/>
<polygon fill="black" stroke="black" points="182.85,-114.01 181.11,-124.46 188.99,-117.38 182.85,-114.01"/>
</g>
<!-- Role&#45;&gt;Verifier -->
<!-- VerifierRole&#45;&gt;Verifier -->
<g id="edge7" class="edge">
<title>VerifierRole&#45;&gt;Verifier</title>
<path fill="none" stroke="black" stroke-dasharray="1,5" d="M380.62,-100.85C398.39,-104.43 419.12,-108.61 436.53,-112.12"/>
<polygon fill="black" stroke="black" points="435.85,-115.55 446.35,-114.1 437.23,-108.69 435.85,-115.55"/>
</g>
<!-- Version&#45;&gt;PinboardItem -->
<!-- Creator&#45;&gt;Updater -->
<!-- Tag -->
<g id="node1" class="node">
<title>Tag</title>
<g id="a_node1"><a xlink:href="/develop/Data/models.html#tag" xlink:title="Tag" target="_top">
<ellipse fill="#abcdef" stroke="#dddeee" cx="27" cy="-175.68" rx="27" ry="18"/>
<text text-anchor="middle" x="27" y="-171.98" font-family="Times,serif" font-size="14.00">Tag</text>
</a>
</g>
</g>
<!-- CollectionObject -->
<g id="node2" class="node">
<title>CollectionObject</title>
<g id="a_node2"><a xlink:href="/develop/Data/models.html#collection-object" xlink:title="CollectionObject" target="_top">
<path fill="#fedcba" stroke="#dddeee" d="M296.55,-275.68C296.55,-275.68 381.55,-275.68 381.55,-275.68 387.55,-275.68 393.55,-281.68 393.55,-287.68 393.55,-287.68 393.55,-299.68 393.55,-299.68 393.55,-305.68 387.55,-311.68 381.55,-311.68 381.55,-311.68 296.55,-311.68 296.55,-311.68 290.55,-311.68 284.55,-305.68 284.55,-299.68 284.55,-299.68 284.55,-287.68 284.55,-287.68 284.55,-281.68 290.55,-275.68 296.55,-275.68"/>
<text text-anchor="middle" x="339.05" y="-289.98" font-family="Times,serif" font-size="14.00">CollectionObject</text>
</a>
</g>
</g>
<!-- PreparationType -->
<g id="node3" class="node">
<title>PreparationType</title>
<g id="a_node3"><a xlink:href="/develop/Data/models.html#preparation-type" xlink:title="PreparationType" target="_top">
<polygon fill="#cdefab" stroke="#dedede" points="244.33,-139.22 244.33,-154.14 200.36,-164.68 138.18,-164.68 94.21,-154.14 94.21,-139.22 138.18,-128.68 200.36,-128.68 244.33,-139.22"/>
<polygon fill="none" stroke="#dedede" points="248.32,-136.07 248.32,-157.29 200.83,-168.68 137.71,-168.68 90.23,-157.29 90.23,-136.07 137.71,-124.68 200.83,-124.68 248.32,-136.07"/>
<text text-anchor="middle" x="169.27" y="-142.98" font-family="Times,serif" font-size="14.00">PreparationType</text>
</a>
</g>
</g>
<!-- Keyword -->
<g id="node4" class="node">
<title>Keyword</title>
<g id="a_node4"><a xlink:href="/develop/Data/models.html#keyword" xlink:title="Keyword" target="_top">
<polygon fill="#eeefff" stroke="#dddeee" points="202.77,-222.68 135.77,-222.68 135.77,-186.68 202.77,-186.68 202.77,-222.68"/>
<text text-anchor="middle" x="169.27" y="-200.98" font-family="Times,serif" font-size="14.00">Keyword</text>
</a>
</g>
</g>
<!-- PinboardItem -->
<g id="node5" class="node">
<title>PinboardItem</title>
<g id="a_node5"><a xlink:href="/develop/Data/models.html#pinboard-item" xlink:title="PinboardItem" target="_top">
<polygon fill="#eeefff" stroke="#dddeee" points="520.55,-218.68 429.55,-218.68 429.55,-182.68 520.55,-182.68 520.55,-218.68"/>
<text text-anchor="middle" x="475.05" y="-196.98" font-family="Times,serif" font-size="14.00">PinboardItem</text>
</a>
</g>
</g>
<!-- Role -->
<g id="node6" class="node">
<title>Role</title>
<g id="a_node6"><a xlink:href="/develop/Data/models.html#role" xlink:title="Role" target="_top">
<polygon fill="#eeefff" stroke="#dddeee" points="366.05,-164.68 312.05,-164.68 312.05,-128.68 366.05,-128.68 366.05,-164.68"/>
<text text-anchor="middle" x="339.05" y="-142.98" font-family="Times,serif" font-size="14.00">Role</text>
</a>
</g>
</g>
<!-- VerifierRole -->
<g id="node7" class="node">
<title>VerifierRole</title>
<g id="a_node7"><a xlink:href="/develop/Data/models.html#verifier-role" xlink:title="VerifierRole" target="_top">
<polygon fill="#eeefff" stroke="#dddeee" points="380.55,-110.68 297.55,-110.68 297.55,-74.68 380.55,-74.68 380.55,-110.68"/>
<text text-anchor="middle" x="339.05" y="-88.98" font-family="Times,serif" font-size="14.00">VerifierRole</text>
</a>
</g>
</g>
<!-- Verifier -->
<g id="node8" class="node">
<title>Verifier</title>
<g id="a_node8"><a xlink:href="/develop/Data/models.html#verifier" xlink:title="Verifier" target="_top">
<polygon fill="#eeefff" stroke="#dddeee" points="503.55,-137.68 446.55,-137.68 446.55,-101.68 503.55,-101.68 503.55,-137.68"/>
<text text-anchor="middle" x="475.05" y="-115.98" font-family="Times,serif" font-size="14.00">Verifier</text>
</a>
</g>
</g>
<!-- Version -->
<g id="node9" class="node">
<title>Version</title>
<g id="a_node9"><a xlink:href="/develop/Data/models.html#version" xlink:title="Version" target="_top">
<polygon fill="#eeefff" stroke="#dddeee" points="368.05,-218.68 310.05,-218.68 310.05,-182.68 368.05,-182.68 368.05,-218.68"/>
<text text-anchor="middle" x="339.05" y="-196.98" font-family="Times,serif" font-size="14.00">Version</text>
</a>
</g>
</g>
<!-- Creator -->
<g id="node10" class="node">
<title>Creator</title>
<g id="a_node10"><a xlink:href="/develop/Data/models.html#creator" xlink:title="Creator" target="_top">
<polygon fill="#eeefff" stroke="#dddeee" points="367.55,-56.68 310.55,-56.68 310.55,-20.68 367.55,-20.68 367.55,-56.68"/>
<text text-anchor="middle" x="339.05" y="-34.98" font-family="Times,serif" font-size="14.00">Creator</text>
</a>
</g>
</g>
<!-- Updater -->
<g id="node11" class="node">
<title>Updater</title>
<g id="a_node11"><a xlink:href="/develop/Data/models.html#updater" xlink:title="Updater" target="_top">
<polygon fill="#eeefff" stroke="#dddeee" points="505.05,-56.68 445.05,-56.68 445.05,-20.68 505.05,-20.68 505.05,-56.68"/>
<text text-anchor="middle" x="475.05" y="-34.98" font-family="Times,serif" font-size="14.00">Updater</text>
</a>
</g>
</g>
</g>
</svg>
