<?xml version="1.0" encoding="UTF-8" standalone="no"?>
<!DOCTYPE svg PUBLIC "-//W3C//DTD SVG 1.1//EN"
 "http://www.w3.org/Graphics/SVG/1.1/DTD/svg11.dtd">
<!-- Generated by graphviz version 2.50.0 (20211204.2007)
 -->
<!-- Title: ProjectSource Pages: 1 -->
<svg width="461pt" height="328pt"
 viewBox="0.00 0.00 461.44 327.92" xmlns="http://www.w3.org/2000/svg" xmlns:xlink="http://www.w3.org/1999/xlink">
<g id="graph0" class="graph" transform="scale(1 1) rotate(0) translate(4 323.92)">
<title>ProjectSource</title>
<polygon fill="white" stroke="transparent" points="-4,4 -4,-323.92 457.44,-323.92 457.44,4 -4,4"/>
<!-- ProjectSource&#45;&gt;Source -->
<g id="edge7" class="edge">
<title>ProjectSource&#45;&gt;Source</title>
<path fill="none" stroke="black" stroke-dasharray="5,2" d="M88.62,-168.98C107.62,-198.1 138.98,-242.04 173.44,-273.42 178.98,-278.46 185.53,-283.15 191.88,-287.19"/>
<polygon fill="black" stroke="black" points="91.48,-166.96 83.13,-160.45 85.59,-170.75 91.48,-166.96"/>
</g>
<!-- ProjectSource&#45;&gt;PinboardItem -->
<g id="edge1" class="edge">
<title>ProjectSource&#45;&gt;PinboardItem</title>
<path fill="none" stroke="black" d="M96.36,-160.64C116.93,-177.44 146.37,-200.73 173.44,-219.42 175.06,-220.54 176.72,-221.66 178.41,-222.78"/>
<polygon fill="black" stroke="black" points="176.7,-225.84 187,-228.3 180.48,-219.95 176.7,-225.84"/>
</g>
<!-- ProjectSource&#45;&gt;Role -->
<g id="edge2" class="edge">
<title>ProjectSource&#45;&gt;Role</title>
<path fill="none" stroke="black" d="M115.81,-155.21C137.18,-163 162.2,-172.12 182.13,-179.38"/>
<polygon fill="black" stroke="black" points="181.16,-182.75 191.75,-182.88 183.55,-176.17 181.16,-182.75"/>
</g>
<!-- ProjectSource&#45;&gt;VerifierRole -->
<g id="edge3" class="edge">
<title>ProjectSource&#45;&gt;VerifierRole</title>
<path fill="none" stroke="black" d="M137.76,-138.42C147.71,-138.42 157.8,-138.42 167.32,-138.42"/>
<polygon fill="black" stroke="black" points="167.39,-141.92 177.39,-138.42 167.39,-134.92 167.39,-141.92"/>
</g>
<!-- ProjectSource&#45;&gt;Creator -->
<g id="edge5" class="edge">
<title>ProjectSource&#45;&gt;Creator</title>
<path fill="none" stroke="black" stroke-dasharray="5,2" d="M129.3,-119.9C168.07,-107.51 219.58,-90.42 264.44,-73.42 276.32,-68.93 289.25,-63.52 300.32,-58.74"/>
<polygon fill="black" stroke="black" points="128.2,-116.58 119.73,-122.94 130.32,-123.25 128.2,-116.58"/>
</g>
<!-- ProjectSource&#45;&gt;Project -->
<g id="edge6" class="edge">
<title>ProjectSource&#45;&gt;Project</title>
<path fill="none" stroke="black" stroke-dasharray="5,2" d="M111.36,-112.58C136.9,-96.73 168.85,-76.89 191.08,-63.1"/>
<polygon fill="black" stroke="black" points="109.27,-109.76 102.62,-118.01 112.96,-115.71 109.27,-109.76"/>
</g>
<!-- ProjectSource&#45;&gt;Updater -->
<g id="edge8" class="edge">
<title>ProjectSource&#45;&gt;Updater</title>
<path fill="none" stroke="black" stroke-dasharray="5,2" d="M86.39,-107.29C103.79,-78.43 134.05,-37.34 173.44,-19.42 247.88,14.44 277.24,-3.43 357.44,-19.42 369.55,-21.84 382.22,-26.55 393.12,-31.37"/>
<polygon fill="black" stroke="black" points="83.21,-105.79 81.19,-116.19 89.26,-109.32 83.21,-105.79"/>
</g>
<!-- Role&#45;&gt;Verifier -->
<!-- VerifierRole&#45;&gt;Verifier -->
<g id="edge4" class="edge">
<title>VerifierRole&#45;&gt;Verifier</title>
<path fill="none" stroke="black" stroke-dasharray="1,5" d="M260.47,-148.55C270.33,-151.02 280.83,-153.65 290.54,-156.07"/>
<polygon fill="black" stroke="black" points="289.76,-159.49 300.31,-158.52 291.46,-152.7 289.76,-159.49"/>
</g>
<!-- Creator&#45;&gt;Updater -->
<!-- Project&#45;&gt;Creator -->
<!-- Source -->
<g id="node1" class="node">
<title>Source</title>
<g id="a_node1"><a xlink:href="/develop/Data/models.html#source" xlink:title="Source" target="_top">
<path fill="#fedcba" stroke="#dddeee" d="M203.94,-283.42C203.94,-283.42 233.94,-283.42 233.94,-283.42 239.94,-283.42 245.94,-289.42 245.94,-295.42 245.94,-295.42 245.94,-307.42 245.94,-307.42 245.94,-313.42 239.94,-319.42 233.94,-319.42 233.94,-319.42 203.94,-319.42 203.94,-319.42 197.94,-319.42 191.94,-313.42 191.94,-307.42 191.94,-307.42 191.94,-295.42 191.94,-295.42 191.94,-289.42 197.94,-283.42 203.94,-283.42"/>
<text text-anchor="middle" x="218.94" y="-297.72" font-family="Times,serif" font-size="14.00">Source</text>
</a>
</g>
</g>
<!-- ProjectSource -->
<g id="node2" class="node">
<title>ProjectSource</title>
<g id="a_node2"><a xlink:href="/develop/Data/models.html#project-source" xlink:title="ProjectSource" target="_top">
<polygon fill="#cdefab" stroke="#dedede" points="133.65,-130.97 133.65,-145.88 95.62,-156.42 41.83,-156.42 3.79,-145.88 3.79,-130.97 41.83,-120.42 95.62,-120.42 133.65,-130.97"/>
<polygon fill="none" stroke="#dedede" points="137.66,-127.93 137.66,-148.92 96.16,-160.42 41.28,-160.42 -0.22,-148.92 -0.22,-127.93 41.28,-116.42 96.16,-116.42 137.66,-127.93"/>
<text text-anchor="middle" x="68.72" y="-134.72" font-family="Times,serif" font-size="14.00">ProjectSource</text>
</a>
</g>
</g>
<!-- PinboardItem -->
<g id="node3" class="node">
<title>PinboardItem</title>
<g id="a_node3"><a xlink:href="/develop/Data/models.html#pinboard-item" xlink:title="PinboardItem" target="_top">
<polygon fill="#eeefff" stroke="#dddeee" points="264.44,-264.42 173.44,-264.42 173.44,-228.42 264.44,-228.42 264.44,-264.42"/>
<text text-anchor="middle" x="218.94" y="-242.72" font-family="Times,serif" font-size="14.00">PinboardItem</text>
</a>
</g>
</g>
<!-- Role -->
<g id="node4" class="node">
<title>Role</title>
<g id="a_node4"><a xlink:href="/develop/Data/models.html#role" xlink:title="Role" target="_top">
<polygon fill="#eeefff" stroke="#dddeee" points="245.94,-210.42 191.94,-210.42 191.94,-174.42 245.94,-174.42 245.94,-210.42"/>
<text text-anchor="middle" x="218.94" y="-188.72" font-family="Times,serif" font-size="14.00">Role</text>
</a>
</g>
</g>
<!-- VerifierRole -->
<g id="node5" class="node">
<title>VerifierRole</title>
<g id="a_node5"><a xlink:href="/develop/Data/models.html#verifier-role" xlink:title="VerifierRole" target="_top">
<polygon fill="#eeefff" stroke="#dddeee" points="260.44,-156.42 177.44,-156.42 177.44,-120.42 260.44,-120.42 260.44,-156.42"/>
<text text-anchor="middle" x="218.94" y="-134.72" font-family="Times,serif" font-size="14.00">VerifierRole</text>
</a>
</g>
</g>
<!-- Verifier -->
<g id="node6" class="node">
<title>Verifier</title>
<g id="a_node6"><a xlink:href="/develop/Data/models.html#verifier" xlink:title="Verifier" target="_top">
<polygon fill="#eeefff" stroke="#dddeee" points="357.44,-183.42 300.44,-183.42 300.44,-147.42 357.44,-147.42 357.44,-183.42"/>
<text text-anchor="middle" x="328.94" y="-161.72" font-family="Times,serif" font-size="14.00">Verifier</text>
</a>
</g>
</g>
<!-- Creator -->
<g id="node7" class="node">
<title>Creator</title>
<g id="a_node7"><a xlink:href="/develop/Data/models.html#creator" xlink:title="Creator" target="_top">
<polygon fill="#eeefff" stroke="#dddeee" points="357.44,-64.42 300.44,-64.42 300.44,-28.42 357.44,-28.42 357.44,-64.42"/>
<text text-anchor="middle" x="328.94" y="-42.72" font-family="Times,serif" font-size="14.00">Creator</text>
</a>
</g>
</g>
<!-- Project -->
<g id="node8" class="node">
<title>Project</title>
<g id="a_node8"><a xlink:href="/develop/Data/models.html#project" xlink:title="Project" target="_top">
<polygon fill="#eeefff" stroke="#dddeee" points="246.44,-64.42 191.44,-64.42 191.44,-28.42 246.44,-28.42 246.44,-64.42"/>
<text text-anchor="middle" x="218.94" y="-42.72" font-family="Times,serif" font-size="14.00">Project</text>
</a>
</g>
</g>
<!-- Updater -->
<g id="node9" class="node">
<title>Updater</title>
<g id="a_node9"><a xlink:href="/develop/Data/models.html#updater" xlink:title="Updater" target="_top">
<polygon fill="#eeefff" stroke="#dddeee" points="453.44,-64.42 393.44,-64.42 393.44,-28.42 453.44,-28.42 453.44,-64.42"/>
<text text-anchor="middle" x="423.44" y="-42.72" font-family="Times,serif" font-size="14.00">Updater</text>
</a>
</g>
</g>
</g>
</svg>
