<?xml version="1.0" encoding="UTF-8" standalone="no"?>
<!DOCTYPE svg PUBLIC "-//W3C//DTD SVG 1.1//EN"
 "http://www.w3.org/Graphics/SVG/1.1/DTD/svg11.dtd">
<!-- Generated by graphviz version 2.50.0 (20211204.2007)
 -->
<!-- Title: ProjectMember Pages: 1 -->
<svg width="672pt" height="374pt"
 viewBox="0.00 0.00 672.00 374.00" xmlns="http://www.w3.org/2000/svg" xmlns:xlink="http://www.w3.org/1999/xlink">
<g id="graph0" class="graph" transform="scale(1 1) rotate(0) translate(4 370)">
<title>ProjectMember</title>
<polygon fill="white" stroke="transparent" points="-4,4 -4,-370 668,-370 668,4 -4,4"/>
<text text-anchor="middle" x="332" y="-22.8" font-family="Times,serif" font-size="14.00">Algorithmically generated relationships for ProjectMember based on assertions of &#39;has_many&#39;, &#39;has_one&#39;, &#39;belongs_to&#39;. </text>
<text text-anchor="middle" x="332" y="-7.8" font-family="Times,serif" font-size="14.00">Generated 2022&#45;01&#45;25 11:38:20 &#45;0600.</text>
<!-- ProjectMember&#45;&gt;PinboardItem -->
<g id="edge1" class="edge">
<title>ProjectMember&#45;&gt;PinboardItem</title>
<path fill="none" stroke="black" d="M190.86,-216.05C210.92,-242.95 247.48,-288.79 285.76,-321 286.92,-321.98 288.13,-322.95 289.37,-323.91"/>
<polygon fill="black" stroke="black" points="287.67,-326.99 297.84,-329.97 291.74,-321.3 287.67,-326.99"/>
</g>
<!-- ProjectMember&#45;&gt;Role -->
<g id="edge2" class="edge">
<title>ProjectMember&#45;&gt;Role</title>
<path fill="none" stroke="black" d="M206.78,-215.4C228.81,-230.12 258.9,-250.01 285.76,-267 288.75,-268.89 291.87,-270.84 295,-272.78"/>
<polygon fill="black" stroke="black" points="293.45,-275.93 303.8,-278.17 297.11,-269.96 293.45,-275.93"/>
</g>
<!-- ProjectMember&#45;&gt;VerifierRole -->
<g id="edge3" class="edge">
<title>ProjectMember&#45;&gt;VerifierRole</title>
<path fill="none" stroke="black" d="M228.87,-209.96C245.4,-214.86 263.53,-220.23 279.83,-225.06"/>
<polygon fill="black" stroke="black" points="279.13,-228.5 289.71,-227.99 281.11,-221.79 279.13,-228.5"/>
</g>
<!-- ProjectMember&#45;&gt;Creator -->
<g id="edge5" class="edge">
<title>ProjectMember&#45;&gt;Creator</title>
<path fill="none" stroke="black" stroke-dasharray="5,2" d="M259.81,-191.82C296.25,-189.39 339.03,-184.55 376.76,-175 388.83,-171.94 401.58,-166.91 412.45,-162.02"/>
<polygon fill="black" stroke="black" points="259.48,-188.33 249.72,-192.44 259.91,-195.32 259.48,-188.33"/>
</g>
<!-- ProjectMember&#45;&gt;Project -->
<g id="edge6" class="edge">
<title>ProjectMember&#45;&gt;Project</title>
<path fill="none" stroke="black" stroke-dasharray="5,2" d="M238.47,-175.19C261.19,-168.46 285.58,-161.24 303.5,-155.93"/>
<polygon fill="black" stroke="black" points="237.46,-171.84 228.87,-178.04 239.45,-178.56 237.46,-171.84"/>
</g>
<!-- ProjectMember&#45;&gt;Updater -->
<g id="edge7" class="edge">
<title>ProjectMember&#45;&gt;Updater</title>
<path fill="none" stroke="black" stroke-dasharray="5,2" d="M207.09,-165.51C227.92,-148.99 256.55,-129.76 285.76,-121 364.09,-97.51 389.56,-105.01 469.76,-121 481.86,-123.41 494.53,-128.13 505.44,-132.95"/>
<polygon fill="black" stroke="black" points="204.77,-162.89 199.22,-171.92 209.19,-168.32 204.77,-162.89"/>
</g>
<!-- ProjectMember&#45;&gt;User -->
<g id="edge8" class="edge">
<title>ProjectMember&#45;&gt;User</title>
<path fill="none" stroke="black" stroke-dasharray="5,2" d="M203.52,-164.55C225.3,-142.6 256.46,-112.35 285.76,-88 291.46,-83.26 297.83,-78.43 303.91,-74.02"/>
<polygon fill="black" stroke="black" points="200.76,-162.37 196.23,-171.94 205.74,-167.28 200.76,-162.37"/>
</g>
<!-- Role&#45;&gt;Verifier -->
<!-- VerifierRole&#45;&gt;Verifier -->
<g id="edge4" class="edge">
<title>VerifierRole&#45;&gt;Verifier</title>
<path fill="none" stroke="black" d="M372.78,-250.13C382.64,-252.6 393.14,-255.22 402.85,-257.65"/>
<polygon fill="black" stroke="black" points="402.07,-261.06 412.62,-260.09 403.77,-254.27 402.07,-261.06"/>
</g>
<!-- Creator&#45;&gt;Updater -->
<!-- Project&#45;&gt;Creator -->
<!-- ProjectMember -->
<g id="node1" class="node">
<title>ProjectMember</title>
<g id="a_node1"><a xlink:href="/develop/Data/models.html#project-member" xlink:title="ProjectMember" target="_top">
<polygon fill="#cdefab" stroke="#dedede" points="245.53,-186.54 245.53,-201.46 203.63,-212 144.37,-212 102.47,-201.46 102.47,-186.54 144.37,-176 203.63,-176 245.53,-186.54"/>
<polygon fill="none" stroke="#dedede" points="249.51,-183.42 249.51,-204.58 204.12,-216 143.88,-216 98.49,-204.58 98.49,-183.42 143.88,-172 204.12,-172 249.51,-183.42"/>
<text text-anchor="middle" x="174" y="-190.3" font-family="Times,serif" font-size="14.00">ProjectMember</text>
</a>
</g>
</g>
<!-- PinboardItem -->
<g id="node2" class="node">
<title>PinboardItem</title>
<g id="a_node2"><a xlink:href="/develop/Data/models.html#pinboard-item" xlink:title="PinboardItem" target="_top">
<polygon fill="#eeefff" stroke="#dddeee" points="376.76,-366 285.76,-366 285.76,-330 376.76,-330 376.76,-366"/>
<text text-anchor="middle" x="331.26" y="-344.3" font-family="Times,serif" font-size="14.00">PinboardItem</text>
</a>
</g>
</g>
<!-- Role -->
<g id="node3" class="node">
<title>Role</title>
<g id="a_node3"><a xlink:href="/develop/Data/models.html#role" xlink:title="Role" target="_top">
<polygon fill="#eeefff" stroke="#dddeee" points="358.26,-312 304.26,-312 304.26,-276 358.26,-276 358.26,-312"/>
<text text-anchor="middle" x="331.26" y="-290.3" font-family="Times,serif" font-size="14.00">Role</text>
</a>
</g>
</g>
<!-- VerifierRole -->
<g id="node4" class="node">
<title>VerifierRole</title>
<g id="a_node4"><a xlink:href="/develop/Data/models.html#verifier-role" xlink:title="VerifierRole" target="_top">
<polygon fill="#eeefff" stroke="#dddeee" points="372.76,-258 289.76,-258 289.76,-222 372.76,-222 372.76,-258"/>
<text text-anchor="middle" x="331.26" y="-236.3" font-family="Times,serif" font-size="14.00">VerifierRole</text>
</a>
</g>
</g>
<!-- Verifier -->
<g id="node5" class="node">
<title>Verifier</title>
<g id="a_node5"><a xlink:href="/develop/Data/models.html#verifier" xlink:title="Verifier" target="_top">
<polygon fill="#eeefff" stroke="#dddeee" points="469.76,-285 412.76,-285 412.76,-249 469.76,-249 469.76,-285"/>
<text text-anchor="middle" x="441.26" y="-263.3" font-family="Times,serif" font-size="14.00">Verifier</text>
</a>
</g>
</g>
<!-- Creator -->
<g id="node6" class="node">
<title>Creator</title>
<g id="a_node6"><a xlink:href="/develop/Data/models.html#creator" xlink:title="Creator" target="_top">
<polygon fill="#eeefff" stroke="#dddeee" points="469.76,-166 412.76,-166 412.76,-130 469.76,-130 469.76,-166"/>
<text text-anchor="middle" x="441.26" y="-144.3" font-family="Times,serif" font-size="14.00">Creator</text>
</a>
</g>
</g>
<!-- Project -->
<g id="node7" class="node">
<title>Project</title>
<g id="a_node7"><a xlink:href="/develop/Data/models.html#project" xlink:title="Project" target="_top">
<polygon fill="#eeefff" stroke="#dddeee" points="358.76,-166 303.76,-166 303.76,-130 358.76,-130 358.76,-166"/>
<text text-anchor="middle" x="331.26" y="-144.3" font-family="Times,serif" font-size="14.00">Project</text>
</a>
</g>
</g>
<!-- Updater -->
<g id="node8" class="node">
<title>Updater</title>
<g id="a_node8"><a xlink:href="/develop/Data/models.html#updater" xlink:title="Updater" target="_top">
<polygon fill="#eeefff" stroke="#dddeee" points="565.76,-166 505.76,-166 505.76,-130 565.76,-130 565.76,-166"/>
<text text-anchor="middle" x="535.76" y="-144.3" font-family="Times,serif" font-size="14.00">Updater</text>
</a>
</g>
</g>
<!-- User -->
<g id="node9" class="node">
<title>User</title>
<g id="a_node9"><a xlink:href="/develop/Data/models.html#user" xlink:title="User" target="_top">
<polygon fill="#eeefff" stroke="#dddeee" points="358.26,-74 304.26,-74 304.26,-38 358.26,-38 358.26,-74"/>
<text text-anchor="middle" x="331.26" y="-52.3" font-family="Times,serif" font-size="14.00">User</text>
</a>
</g>
</g>
</g>
</svg>
