<?xml version="1.0" encoding="UTF-8" standalone="no"?>
<!DOCTYPE svg PUBLIC "-//W3C//DTD SVG 1.1//EN"
 "http://www.w3.org/Graphics/SVG/1.1/DTD/svg11.dtd">
<!-- Generated by graphviz version 2.50.0 (20211204.2007)
 -->
<!-- Title: ProjectMember Pages: 1 -->
<svg width="476pt" height="336pt"
 viewBox="0.00 0.00 475.51 336.00" xmlns="http://www.w3.org/2000/svg" xmlns:xlink="http://www.w3.org/1999/xlink">
<g id="graph0" class="graph" transform="scale(1 1) rotate(0) translate(4 332)">
<title>ProjectMember</title>
<polygon fill="white" stroke="transparent" points="-4,4 -4,-332 471.51,-332 471.51,4 -4,4"/>
<!-- ProjectMember&#45;&gt;PinboardItem -->
<g id="edge1" class="edge">
<title>ProjectMember&#45;&gt;PinboardItem</title>
<path fill="none" stroke="black" d="M92.62,-178.05C112.68,-204.95 149.23,-250.79 187.51,-283 188.68,-283.98 189.89,-284.95 191.12,-285.91"/>
<polygon fill="black" stroke="black" points="189.42,-288.99 199.59,-291.97 193.49,-283.3 189.42,-288.99"/>
</g>
<!-- ProjectMember&#45;&gt;Role -->
<g id="edge2" class="edge">
<title>ProjectMember&#45;&gt;Role</title>
<path fill="none" stroke="black" d="M108.54,-177.4C130.57,-192.12 160.65,-212.01 187.51,-229 190.51,-230.89 193.62,-232.84 196.76,-234.78"/>
<polygon fill="black" stroke="black" points="195.2,-237.93 205.56,-240.17 198.86,-231.96 195.2,-237.93"/>
</g>
<!-- ProjectMember&#45;&gt;VerifierRole -->
<g id="edge3" class="edge">
<title>ProjectMember&#45;&gt;VerifierRole</title>
<path fill="none" stroke="black" d="M130.62,-171.96C147.16,-176.86 165.29,-182.23 181.58,-187.06"/>
<polygon fill="black" stroke="black" points="180.88,-190.5 191.46,-189.99 182.87,-183.79 180.88,-190.5"/>
</g>
<!-- ProjectMember&#45;&gt;Creator -->
<g id="edge5" class="edge">
<title>ProjectMember&#45;&gt;Creator</title>
<path fill="none" stroke="black" stroke-dasharray="5,2" d="M161.57,-153.82C198,-151.39 240.79,-146.55 278.51,-137 290.59,-133.94 303.33,-128.91 314.21,-124.02"/>
<polygon fill="black" stroke="black" points="161.24,-150.33 151.47,-154.44 161.67,-157.32 161.24,-150.33"/>
</g>
<!-- ProjectMember&#45;&gt;Project -->
<g id="edge6" class="edge">
<title>ProjectMember&#45;&gt;Project</title>
<path fill="none" stroke="black" stroke-dasharray="5,2" d="M140.23,-137.19C162.95,-130.46 187.33,-123.24 205.26,-117.93"/>
<polygon fill="black" stroke="black" points="139.22,-133.84 130.62,-140.04 141.2,-140.56 139.22,-133.84"/>
</g>
<!-- ProjectMember&#45;&gt;Updater -->
<g id="edge7" class="edge">
<title>ProjectMember&#45;&gt;Updater</title>
<path fill="none" stroke="black" stroke-dasharray="5,2" d="M108.85,-127.51C129.68,-110.99 158.3,-91.76 187.51,-83 265.84,-59.51 291.31,-67.01 371.51,-83 383.62,-85.41 396.29,-90.13 407.19,-94.95"/>
<polygon fill="black" stroke="black" points="106.52,-124.89 100.98,-133.92 110.94,-130.32 106.52,-124.89"/>
</g>
<!-- ProjectMember&#45;&gt;User -->
<g id="edge8" class="edge">
<title>ProjectMember&#45;&gt;User</title>
<path fill="none" stroke="black" stroke-dasharray="5,2" d="M105.28,-126.55C127.06,-104.6 158.22,-74.35 187.51,-50 193.22,-45.26 199.58,-40.43 205.67,-36.02"/>
<polygon fill="black" stroke="black" points="102.52,-124.37 97.98,-133.94 107.5,-129.28 102.52,-124.37"/>
</g>
<!-- Role&#45;&gt;Verifier -->
<!-- VerifierRole&#45;&gt;Verifier -->
<g id="edge4" class="edge">
<title>VerifierRole&#45;&gt;Verifier</title>
<path fill="none" stroke="black" stroke-dasharray="1,5" d="M274.53,-212.13C284.4,-214.6 294.9,-217.22 304.61,-219.65"/>
<polygon fill="black" stroke="black" points="303.83,-223.06 314.38,-222.09 305.53,-216.27 303.83,-223.06"/>
</g>
<!-- Creator&#45;&gt;Updater -->
<!-- Project&#45;&gt;Creator -->
<!-- ProjectMember -->
<g id="node1" class="node">
<title>ProjectMember</title>
<g id="a_node1"><a xlink:href="/develop/Data/models.html#project-member" xlink:title="ProjectMember" target="_top">
<polygon fill="#cdefab" stroke="#dedede" points="147.28,-148.54 147.28,-163.46 105.38,-174 46.13,-174 4.23,-163.46 4.23,-148.54 46.13,-138 105.38,-138 147.28,-148.54"/>
<polygon fill="none" stroke="#dedede" points="151.27,-145.42 151.27,-166.58 105.88,-178 45.64,-178 0.24,-166.58 0.24,-145.42 45.64,-134 105.88,-134 151.27,-145.42"/>
<text text-anchor="middle" x="75.76" y="-152.3" font-family="Times,serif" font-size="14.00">ProjectMember</text>
</a>
</g>
</g>
<!-- PinboardItem -->
<g id="node2" class="node">
<title>PinboardItem</title>
<g id="a_node2"><a xlink:href="/develop/Data/models.html#pinboard-item" xlink:title="PinboardItem" target="_top">
<polygon fill="#eeefff" stroke="#dddeee" points="278.51,-328 187.51,-328 187.51,-292 278.51,-292 278.51,-328"/>
<text text-anchor="middle" x="233.01" y="-306.3" font-family="Times,serif" font-size="14.00">PinboardItem</text>
</a>
</g>
</g>
<!-- Role -->
<g id="node3" class="node">
<title>Role</title>
<g id="a_node3"><a xlink:href="/develop/Data/models.html#role" xlink:title="Role" target="_top">
<polygon fill="#eeefff" stroke="#dddeee" points="260.01,-274 206.01,-274 206.01,-238 260.01,-238 260.01,-274"/>
<text text-anchor="middle" x="233.01" y="-252.3" font-family="Times,serif" font-size="14.00">Role</text>
</a>
</g>
</g>
<!-- VerifierRole -->
<g id="node4" class="node">
<title>VerifierRole</title>
<g id="a_node4"><a xlink:href="/develop/Data/models.html#verifier-role" xlink:title="VerifierRole" target="_top">
<polygon fill="#eeefff" stroke="#dddeee" points="274.51,-220 191.51,-220 191.51,-184 274.51,-184 274.51,-220"/>
<text text-anchor="middle" x="233.01" y="-198.3" font-family="Times,serif" font-size="14.00">VerifierRole</text>
</a>
</g>
</g>
<!-- Verifier -->
<g id="node5" class="node">
<title>Verifier</title>
<g id="a_node5"><a xlink:href="/develop/Data/models.html#verifier" xlink:title="Verifier" target="_top">
<polygon fill="#eeefff" stroke="#dddeee" points="371.51,-247 314.51,-247 314.51,-211 371.51,-211 371.51,-247"/>
<text text-anchor="middle" x="343.01" y="-225.3" font-family="Times,serif" font-size="14.00">Verifier</text>
</a>
</g>
</g>
<!-- Creator -->
<g id="node6" class="node">
<title>Creator</title>
<g id="a_node6"><a xlink:href="/develop/Data/models.html#creator" xlink:title="Creator" target="_top">
<polygon fill="#eeefff" stroke="#dddeee" points="371.51,-128 314.51,-128 314.51,-92 371.51,-92 371.51,-128"/>
<text text-anchor="middle" x="343.01" y="-106.3" font-family="Times,serif" font-size="14.00">Creator</text>
</a>
</g>
</g>
<!-- Project -->
<g id="node7" class="node">
<title>Project</title>
<g id="a_node7"><a xlink:href="/develop/Data/models.html#project" xlink:title="Project" target="_top">
<polygon fill="#eeefff" stroke="#dddeee" points="260.51,-128 205.51,-128 205.51,-92 260.51,-92 260.51,-128"/>
<text text-anchor="middle" x="233.01" y="-106.3" font-family="Times,serif" font-size="14.00">Project</text>
</a>
</g>
</g>
<!-- Updater -->
<g id="node8" class="node">
<title>Updater</title>
<g id="a_node8"><a xlink:href="/develop/Data/models.html#updater" xlink:title="Updater" target="_top">
<polygon fill="#eeefff" stroke="#dddeee" points="467.51,-128 407.51,-128 407.51,-92 467.51,-92 467.51,-128"/>
<text text-anchor="middle" x="437.51" y="-106.3" font-family="Times,serif" font-size="14.00">Updater</text>
</a>
</g>
</g>
<!-- User -->
<g id="node9" class="node">
<title>User</title>
<g id="a_node9"><a xlink:href="/develop/Data/models.html#user" xlink:title="User" target="_top">
<polygon fill="#eeefff" stroke="#dddeee" points="260.01,-36 206.01,-36 206.01,0 260.01,0 260.01,-36"/>
<text text-anchor="middle" x="233.01" y="-14.3" font-family="Times,serif" font-size="14.00">User</text>
</a>
</g>
</g>
</g>
</svg>
