<?xml version="1.0" encoding="UTF-8" standalone="no"?>
<!DOCTYPE svg PUBLIC "-//W3C//DTD SVG 1.1//EN"
 "http://www.w3.org/Graphics/SVG/1.1/DTD/svg11.dtd">
<!-- Generated by graphviz version 2.50.0 (20211204.2007)
 -->
<!-- Title: ProjectSource Pages: 1 -->
<svg width="662pt" height="366pt"
 viewBox="0.00 0.00 662.00 365.92" xmlns="http://www.w3.org/2000/svg" xmlns:xlink="http://www.w3.org/1999/xlink">
<g id="graph0" class="graph" transform="scale(1 1) rotate(0) translate(4 361.92)">
<title>ProjectSource</title>
<polygon fill="white" stroke="transparent" points="-4,4 -4,-361.92 658,-361.92 658,4 -4,4"/>
<text text-anchor="middle" x="327" y="-22.8" font-family="Times,serif" font-size="14.00">Algorithmically generated relationships for ProjectSource based on assertions of &#39;has_many&#39;, &#39;has_one&#39;, &#39;belongs_to&#39;. </text>
<text text-anchor="middle" x="327" y="-7.8" font-family="Times,serif" font-size="14.00">Generated 2022&#45;01&#45;25 11:43:38 &#45;0600.</text>
<!-- ProjectSource&#45;&gt;Source -->
<g id="edge7" class="edge">
<title>ProjectSource&#45;&gt;Source</title>
<path fill="none" stroke="black" stroke-dasharray="5,2" d="M188.9,-206.98C207.9,-236.1 239.26,-280.04 273.72,-311.42 279.26,-316.46 285.81,-321.15 292.16,-325.19"/>
<polygon fill="black" stroke="black" points="191.76,-204.96 183.4,-198.45 185.87,-208.75 191.76,-204.96"/>
</g>
<!-- ProjectSource&#45;&gt;PinboardItem -->
<g id="edge1" class="edge">
<title>ProjectSource&#45;&gt;PinboardItem</title>
<path fill="none" stroke="black" d="M196.64,-198.64C217.21,-215.44 246.65,-238.73 273.72,-257.42 275.34,-258.54 277,-259.66 278.69,-260.78"/>
<polygon fill="black" stroke="black" points="276.97,-263.84 287.28,-266.3 280.76,-257.95 276.97,-263.84"/>
</g>
<!-- ProjectSource&#45;&gt;Role -->
<g id="edge2" class="edge">
<title>ProjectSource&#45;&gt;Role</title>
<path fill="none" stroke="black" d="M216.09,-193.21C237.46,-201 262.48,-210.12 282.41,-217.38"/>
<polygon fill="black" stroke="black" points="281.43,-220.75 292.03,-220.88 283.83,-214.17 281.43,-220.75"/>
</g>
<!-- ProjectSource&#45;&gt;VerifierRole -->
<g id="edge3" class="edge">
<title>ProjectSource&#45;&gt;VerifierRole</title>
<path fill="none" stroke="black" d="M238.04,-176.42C247.99,-176.42 258.08,-176.42 267.6,-176.42"/>
<polygon fill="black" stroke="black" points="267.67,-179.92 277.67,-176.42 267.67,-172.92 267.67,-179.92"/>
</g>
<!-- ProjectSource&#45;&gt;Creator -->
<g id="edge5" class="edge">
<title>ProjectSource&#45;&gt;Creator</title>
<path fill="none" stroke="black" stroke-dasharray="5,2" d="M229.58,-157.9C268.35,-145.51 319.86,-128.42 364.72,-111.42 376.6,-106.93 389.52,-101.52 400.6,-96.74"/>
<polygon fill="black" stroke="black" points="228.47,-154.58 220.01,-160.94 230.6,-161.25 228.47,-154.58"/>
</g>
<!-- ProjectSource&#45;&gt;Project -->
<g id="edge6" class="edge">
<title>ProjectSource&#45;&gt;Project</title>
<path fill="none" stroke="black" stroke-dasharray="5,2" d="M211.64,-150.58C237.18,-134.73 269.13,-114.89 291.36,-101.1"/>
<polygon fill="black" stroke="black" points="209.55,-147.76 202.9,-156.01 213.24,-153.71 209.55,-147.76"/>
</g>
<!-- ProjectSource&#45;&gt;Updater -->
<g id="edge8" class="edge">
<title>ProjectSource&#45;&gt;Updater</title>
<path fill="none" stroke="black" stroke-dasharray="5,2" d="M186.66,-145.29C204.07,-116.43 234.33,-75.34 273.72,-57.42 348.16,-23.56 377.52,-41.43 457.72,-57.42 469.82,-59.84 482.5,-64.55 493.4,-69.37"/>
<polygon fill="black" stroke="black" points="183.49,-143.79 181.47,-154.19 189.53,-147.32 183.49,-143.79"/>
</g>
<!-- Role&#45;&gt;Verifier -->
<!-- VerifierRole&#45;&gt;Verifier -->
<g id="edge4" class="edge">
<title>VerifierRole&#45;&gt;Verifier</title>
<path fill="none" stroke="black" d="M360.74,-186.55C370.61,-189.02 381.11,-191.65 390.82,-194.07"/>
<polygon fill="black" stroke="black" points="390.04,-197.49 400.59,-196.52 391.74,-190.7 390.04,-197.49"/>
</g>
<!-- Creator&#45;&gt;Updater -->
<!-- Project&#45;&gt;Creator -->
<!-- Source -->
<g id="node1" class="node">
<title>Source</title>
<g id="a_node1"><a xlink:href="/develop/Data/models.html#source" xlink:title="Source" target="_top">
<path fill="#fedcba" stroke="#dddeee" d="M304.22,-321.42C304.22,-321.42 334.22,-321.42 334.22,-321.42 340.22,-321.42 346.22,-327.42 346.22,-333.42 346.22,-333.42 346.22,-345.42 346.22,-345.42 346.22,-351.42 340.22,-357.42 334.22,-357.42 334.22,-357.42 304.22,-357.42 304.22,-357.42 298.22,-357.42 292.22,-351.42 292.22,-345.42 292.22,-345.42 292.22,-333.42 292.22,-333.42 292.22,-327.42 298.22,-321.42 304.22,-321.42"/>
<text text-anchor="middle" x="319.22" y="-335.72" font-family="Times,serif" font-size="14.00">Source</text>
</a>
</g>
</g>
<!-- ProjectSource -->
<g id="node2" class="node">
<title>ProjectSource</title>
<g id="a_node2"><a xlink:href="/develop/Data/models.html#project-source" xlink:title="ProjectSource" target="_top">
<polygon fill="#cdefab" stroke="#dedede" points="233.93,-168.97 233.93,-183.88 195.9,-194.42 142.1,-194.42 104.07,-183.88 104.07,-168.97 142.1,-158.42 195.9,-158.42 233.93,-168.97"/>
<polygon fill="none" stroke="#dedede" points="237.94,-165.93 237.94,-186.92 196.44,-198.42 141.56,-198.42 100.06,-186.92 100.06,-165.93 141.56,-154.42 196.44,-154.42 237.94,-165.93"/>
<text text-anchor="middle" x="169" y="-172.72" font-family="Times,serif" font-size="14.00">ProjectSource</text>
</a>
</g>
</g>
<!-- PinboardItem -->
<g id="node3" class="node">
<title>PinboardItem</title>
<g id="a_node3"><a xlink:href="/develop/Data/models.html#pinboard-item" xlink:title="PinboardItem" target="_top">
<polygon fill="#eeefff" stroke="#dddeee" points="364.72,-302.42 273.72,-302.42 273.72,-266.42 364.72,-266.42 364.72,-302.42"/>
<text text-anchor="middle" x="319.22" y="-280.72" font-family="Times,serif" font-size="14.00">PinboardItem</text>
</a>
</g>
</g>
<!-- Role -->
<g id="node4" class="node">
<title>Role</title>
<g id="a_node4"><a xlink:href="/develop/Data/models.html#role" xlink:title="Role" target="_top">
<polygon fill="#eeefff" stroke="#dddeee" points="346.22,-248.42 292.22,-248.42 292.22,-212.42 346.22,-212.42 346.22,-248.42"/>
<text text-anchor="middle" x="319.22" y="-226.72" font-family="Times,serif" font-size="14.00">Role</text>
</a>
</g>
</g>
<!-- VerifierRole -->
<g id="node5" class="node">
<title>VerifierRole</title>
<g id="a_node5"><a xlink:href="/develop/Data/models.html#verifier-role" xlink:title="VerifierRole" target="_top">
<polygon fill="#eeefff" stroke="#dddeee" points="360.72,-194.42 277.72,-194.42 277.72,-158.42 360.72,-158.42 360.72,-194.42"/>
<text text-anchor="middle" x="319.22" y="-172.72" font-family="Times,serif" font-size="14.00">VerifierRole</text>
</a>
</g>
</g>
<!-- Verifier -->
<g id="node6" class="node">
<title>Verifier</title>
<g id="a_node6"><a xlink:href="/develop/Data/models.html#verifier" xlink:title="Verifier" target="_top">
<polygon fill="#eeefff" stroke="#dddeee" points="457.72,-221.42 400.72,-221.42 400.72,-185.42 457.72,-185.42 457.72,-221.42"/>
<text text-anchor="middle" x="429.22" y="-199.72" font-family="Times,serif" font-size="14.00">Verifier</text>
</a>
</g>
</g>
<!-- Creator -->
<g id="node7" class="node">
<title>Creator</title>
<g id="a_node7"><a xlink:href="/develop/Data/models.html#creator" xlink:title="Creator" target="_top">
<polygon fill="#eeefff" stroke="#dddeee" points="457.72,-102.42 400.72,-102.42 400.72,-66.42 457.72,-66.42 457.72,-102.42"/>
<text text-anchor="middle" x="429.22" y="-80.72" font-family="Times,serif" font-size="14.00">Creator</text>
</a>
</g>
</g>
<!-- Project -->
<g id="node8" class="node">
<title>Project</title>
<g id="a_node8"><a xlink:href="/develop/Data/models.html#project" xlink:title="Project" target="_top">
<polygon fill="#eeefff" stroke="#dddeee" points="346.72,-102.42 291.72,-102.42 291.72,-66.42 346.72,-66.42 346.72,-102.42"/>
<text text-anchor="middle" x="319.22" y="-80.72" font-family="Times,serif" font-size="14.00">Project</text>
</a>
</g>
</g>
<!-- Updater -->
<g id="node9" class="node">
<title>Updater</title>
<g id="a_node9"><a xlink:href="/develop/Data/models.html#updater" xlink:title="Updater" target="_top">
<polygon fill="#eeefff" stroke="#dddeee" points="553.72,-102.42 493.72,-102.42 493.72,-66.42 553.72,-66.42 553.72,-102.42"/>
<text text-anchor="middle" x="523.72" y="-80.72" font-family="Times,serif" font-size="14.00">Updater</text>
</a>
</g>
</g>
</g>
</svg>
