<?xml version="1.0" encoding="UTF-8" standalone="no"?>
<!DOCTYPE svg PUBLIC "-//W3C//DTD SVG 1.1//EN"
 "http://www.w3.org/Graphics/SVG/1.1/DTD/svg11.dtd">
<!-- Generated by graphviz version 2.50.0 (20211204.2007)
 -->
<!-- Title: ProtocolRelationship Pages: 1 -->
<svg width="738pt" height="428pt"
 viewBox="0.00 0.00 737.52 428.00" xmlns="http://www.w3.org/2000/svg" xmlns:xlink="http://www.w3.org/1999/xlink">
<g id="graph0" class="graph" transform="scale(1 1) rotate(0) translate(4 424)">
<title>ProtocolRelationship</title>
<polygon fill="white" stroke="transparent" points="-4,4 -4,-424 733.52,-424 733.52,4 -4,4"/>
<text text-anchor="middle" x="364.76" y="-22.8" font-family="Times,serif" font-size="14.00">Algorithmically generated relationships for ProtocolRelationship based on assertions of &#39;has_many&#39;, &#39;has_one&#39;, &#39;belongs_to&#39;. </text>
<text text-anchor="middle" x="364.76" y="-7.8" font-family="Times,serif" font-size="14.00">Generated 2022&#45;01&#45;25 11:42:34 &#45;0600.</text>
<!-- ProtocolRelationship&#45;&gt;PinboardItem -->
<g id="edge1" class="edge">
<title>ProtocolRelationship&#45;&gt;PinboardItem</title>
<path fill="none" stroke="black" d="M109.61,-247.06C129.83,-280.65 173.14,-343.97 228.32,-375 258.71,-392.09 297.33,-398.86 328.43,-401.34"/>
<polygon fill="black" stroke="black" points="328.45,-404.85 338.66,-402.02 328.92,-397.86 328.45,-404.85"/>
</g>
<!-- ProtocolRelationship&#45;&gt;Role -->
<g id="edge2" class="edge">
<title>ProtocolRelationship&#45;&gt;Role</title>
<path fill="none" stroke="black" d="M120.21,-247.09C144.9,-269.42 186.25,-303.11 228.32,-321 266.73,-337.34 314.52,-343.79 346.82,-346.34"/>
<polygon fill="black" stroke="black" points="346.92,-349.86 357.14,-347.06 347.41,-342.87 346.92,-349.86"/>
</g>
<!-- ProtocolRelationship&#45;&gt;VerifierRole -->
<g id="edge3" class="edge">
<title>ProtocolRelationship&#45;&gt;VerifierRole</title>
<path fill="none" stroke="black" d="M156.66,-242.76C179.04,-249.18 204.75,-256.25 228.32,-262 262.99,-270.46 302.39,-278.57 332.8,-284.51"/>
<polygon fill="black" stroke="black" points="332.26,-287.97 342.74,-286.43 333.59,-281.09 332.26,-287.97"/>
</g>
<!-- ProtocolRelationship&#45;&gt;Creator -->
<g id="edge5" class="edge">
<title>ProtocolRelationship&#45;&gt;Creator</title>
<path fill="none" stroke="black" stroke-dasharray="5,2" d="M202.63,-228.5C211.32,-228.7 219.97,-228.87 228.32,-229 367.06,-231.12 404.56,-256.71 540.52,-229 552.73,-226.51 565.5,-221.59 576.35,-216.62"/>
<polygon fill="black" stroke="black" points="202.51,-224.99 192.42,-228.25 202.34,-231.99 202.51,-224.99"/>
</g>
<!-- ProtocolRelationship&#45;&gt;Project -->
<g id="edge6" class="edge">
<title>ProtocolRelationship&#45;&gt;Project</title>
<path fill="none" stroke="black" stroke-dasharray="5,2" d="M202.74,-216.52C258.25,-212.06 321.86,-206.95 356.85,-204.13"/>
<polygon fill="black" stroke="black" points="202.17,-213.05 192.48,-217.34 202.73,-220.03 202.17,-213.05"/>
</g>
<!-- ProtocolRelationship&#45;&gt;Protocol -->
<g id="edge7" class="edge">
<title>ProtocolRelationship&#45;&gt;Protocol</title>
<path fill="none" stroke="black" stroke-dasharray="5,2" d="M153.34,-200.86C176.26,-191.73 203.23,-181.9 228.32,-175 271.01,-163.26 321.78,-155.57 353.31,-151.5"/>
<polygon fill="black" stroke="black" points="151.74,-197.73 143.78,-204.72 154.36,-204.22 151.74,-197.73"/>
</g>
<!-- ProtocolRelationship&#45;&gt;Updater -->
<g id="edge9" class="edge">
<title>ProtocolRelationship&#45;&gt;Updater</title>
<path fill="none" stroke="black" stroke-dasharray="5,2" d="M123.3,-195.22C147.6,-169.99 186.28,-135.64 228.32,-121 359.35,-75.35 405.64,-88.44 540.52,-121 590.71,-133.12 642.86,-164.05 672.92,-184"/>
<polygon fill="black" stroke="black" points="120.54,-193.05 116.24,-202.73 125.64,-197.85 120.54,-193.05"/>
</g>
<!-- ProtocolRelationship&#45;&gt;Objects with Protocol relationships -->
<g id="edge8" class="edge">
<title>ProtocolRelationship&#45;&gt;Objects with Protocol relationships</title>
<path fill="none" stroke="black" stroke-dasharray="5,2" d="M117.85,-194.28C140.94,-162.51 181.31,-114.01 228.32,-88 244.31,-79.15 262.47,-72.74 280.57,-68.09"/>
<polygon fill="black" stroke="black" points="114.76,-192.58 111.8,-202.76 120.46,-196.65 114.76,-192.58"/>
</g>
<!-- Role&#45;&gt;Verifier -->
<!-- VerifierRole&#45;&gt;Verifier -->
<g id="edge4" class="edge">
<title>VerifierRole&#45;&gt;Verifier</title>
<path fill="none" stroke="black" d="M426.02,-299.02C466.26,-303.98 527.38,-311.53 566.51,-316.37"/>
<polygon fill="black" stroke="black" points="566.08,-319.84 576.44,-317.59 566.94,-312.89 566.08,-319.84"/>
</g>
<!-- Creator&#45;&gt;Updater -->
<!-- Project&#45;&gt;Creator -->
<!-- ProtocolRelationship -->
<g id="node1" class="node">
<title>ProtocolRelationship</title>
<g id="a_node1"><a xlink:href="/develop/Data/models.html#protocol-relationship" xlink:title="ProtocolRelationship" target="_top">
<polygon fill="#cdefab" stroke="#dedede" points="188.47,-217.54 188.47,-232.46 134.39,-243 57.92,-243 3.85,-232.46 3.85,-217.54 57.92,-207 134.39,-207 188.47,-217.54"/>
<polygon fill="none" stroke="#dedede" points="192.47,-214.25 192.47,-235.75 134.78,-247 57.53,-247 -0.16,-235.75 -0.16,-214.25 57.53,-203 134.78,-203 192.47,-214.25"/>
<text text-anchor="middle" x="96.16" y="-221.3" font-family="Times,serif" font-size="14.00">ProtocolRelationship</text>
</a>
</g>
</g>
<!-- PinboardItem -->
<g id="node2" class="node">
<title>PinboardItem</title>
<g id="a_node2"><a xlink:href="/develop/Data/models.html#pinboard-item" xlink:title="PinboardItem" target="_top">
<polygon fill="#eeefff" stroke="#dddeee" points="429.92,-420 338.92,-420 338.92,-384 429.92,-384 429.92,-420"/>
<text text-anchor="middle" x="384.42" y="-398.3" font-family="Times,serif" font-size="14.00">PinboardItem</text>
</a>
</g>
</g>
<!-- Role -->
<g id="node3" class="node">
<title>Role</title>
<g id="a_node3"><a xlink:href="/develop/Data/models.html#role" xlink:title="Role" target="_top">
<polygon fill="#eeefff" stroke="#dddeee" points="411.42,-366 357.42,-366 357.42,-330 411.42,-330 411.42,-366"/>
<text text-anchor="middle" x="384.42" y="-344.3" font-family="Times,serif" font-size="14.00">Role</text>
</a>
</g>
</g>
<!-- VerifierRole -->
<g id="node4" class="node">
<title>VerifierRole</title>
<g id="a_node4"><a xlink:href="/develop/Data/models.html#verifier-role" xlink:title="VerifierRole" target="_top">
<polygon fill="#eeefff" stroke="#dddeee" points="425.92,-312 342.92,-312 342.92,-276 425.92,-276 425.92,-312"/>
<text text-anchor="middle" x="384.42" y="-290.3" font-family="Times,serif" font-size="14.00">VerifierRole</text>
</a>
</g>
</g>
<!-- Verifier -->
<g id="node5" class="node">
<title>Verifier</title>
<g id="a_node5"><a xlink:href="/develop/Data/models.html#verifier" xlink:title="Verifier" target="_top">
<polygon fill="#eeefff" stroke="#dddeee" points="633.52,-339 576.52,-339 576.52,-303 633.52,-303 633.52,-339"/>
<text text-anchor="middle" x="605.02" y="-317.3" font-family="Times,serif" font-size="14.00">Verifier</text>
</a>
</g>
</g>
<!-- Creator -->
<g id="node6" class="node">
<title>Creator</title>
<g id="a_node6"><a xlink:href="/develop/Data/models.html#creator" xlink:title="Creator" target="_top">
<polygon fill="#eeefff" stroke="#dddeee" points="633.52,-220 576.52,-220 576.52,-184 633.52,-184 633.52,-220"/>
<text text-anchor="middle" x="605.02" y="-198.3" font-family="Times,serif" font-size="14.00">Creator</text>
</a>
</g>
</g>
<!-- Project -->
<g id="node7" class="node">
<title>Project</title>
<g id="a_node7"><a xlink:href="/develop/Data/models.html#project" xlink:title="Project" target="_top">
<polygon fill="#eeefff" stroke="#dddeee" points="411.92,-220 356.92,-220 356.92,-184 411.92,-184 411.92,-220"/>
<text text-anchor="middle" x="384.42" y="-198.3" font-family="Times,serif" font-size="14.00">Project</text>
</a>
</g>
</g>
<!-- Protocol -->
<g id="node8" class="node">
<title>Protocol</title>
<g id="a_node8"><a xlink:href="/develop/Data/models.html#protocol" xlink:title="Protocol" target="_top">
<polygon fill="#eeefff" stroke="#dddeee" points="415.42,-166 353.42,-166 353.42,-130 415.42,-130 415.42,-166"/>
<text text-anchor="middle" x="384.42" y="-144.3" font-family="Times,serif" font-size="14.00">Protocol</text>
</a>
</g>
</g>
<!-- Updater -->
<g id="node9" class="node">
<title>Updater</title>
<g id="a_node9"><a xlink:href="/develop/Data/models.html#updater" xlink:title="Updater" target="_top">
<polygon fill="#eeefff" stroke="#dddeee" points="729.52,-220 669.52,-220 669.52,-184 729.52,-184 729.52,-220"/>
<text text-anchor="middle" x="699.52" y="-198.3" font-family="Times,serif" font-size="14.00">Updater</text>
</a>
</g>
</g>
<!-- Objects with Protocol relationships -->
<g id="node10" class="node">
<title>Objects with Protocol relationships</title>
<g id="a_node10"><a xlink:href="/develop/Data/models.html#objects with protocol relationship" xlink:title="Objects with Protocol relationships" target="_top">
<polygon fill="#cdabef" stroke="#dedede" points="540.62,-56 462.52,-74 306.32,-74 228.21,-56 306.32,-38 462.52,-38 540.62,-56"/>
<text text-anchor="middle" x="384.42" y="-52.3" font-family="Times,serif" font-size="14.00">Objects with Protocol relationships</text>
</a>
</g>
</g>
</g>
</svg>
