<?xml version="1.0" encoding="UTF-8" standalone="no"?>
<!DOCTYPE svg PUBLIC "-//W3C//DTD SVG 1.1//EN"
 "http://www.w3.org/Graphics/SVG/1.1/DTD/svg11.dtd">
<!-- Generated by graphviz version 12.2.1 (20241206.2353)
 -->
<!-- Title: ProtocolRelationship Pages: 1 -->
<svg width="759pt" height="390pt"
 viewBox="0.00 0.00 759.41 390.00" xmlns="http://www.w3.org/2000/svg" xmlns:xlink="http://www.w3.org/1999/xlink">
<g id="graph0" class="graph" transform="scale(1 1) rotate(0) translate(4 386)">
<title>ProtocolRelationship</title>
<polygon fill="white" stroke="none" points="-4,4 -4,-386 755.41,-386 755.41,4 -4,4"/>
<!-- ProtocolRelationship&#45;&gt;PinboardItem -->
<g id="edge1" class="edge">
<title>ProtocolRelationship&#45;&gt;PinboardItem</title>
<path fill="none" stroke="black" d="M114.16,-209.39C135.23,-243.12 179.97,-306.27 236.05,-337 268.54,-354.81 309.77,-361.5 342.55,-363.77"/>
<polygon fill="black" stroke="black" points="342.07,-367.25 352.25,-364.32 342.46,-360.26 342.07,-367.25"/>
</g>
<!-- ProtocolRelationship&#45;&gt;Role -->
<g id="edge2" class="edge">
<title>ProtocolRelationship&#45;&gt;Role</title>
<path fill="none" stroke="black" d="M124.85,-209.13C150.35,-231.5 192.97,-265.22 236.05,-283 276.67,-299.77 327.09,-306.13 360.86,-308.54"/>
<polygon fill="black" stroke="black" points="360.36,-312.02 370.56,-309.15 360.79,-305.03 360.36,-312.02"/>
</g>
<!-- ProtocolRelationship&#45;&gt;VerifierRole -->
<g id="edge3" class="edge">
<title>ProtocolRelationship&#45;&gt;VerifierRole</title>
<path fill="none" stroke="black" d="M163.3,-205.08C186.09,-211.43 212.15,-218.38 236.05,-224 272.65,-232.61 314.26,-240.78 346.19,-246.71"/>
<polygon fill="black" stroke="black" points="345.53,-250.15 356,-248.52 346.8,-243.27 345.53,-250.15"/>
</g>
<!-- ProtocolRelationship&#45;&gt;Creator -->
<g id="edge5" class="edge">
<title>ProtocolRelationship&#45;&gt;Creator</title>
<path fill="none" stroke="black" stroke-dasharray="5,2" d="M211.52,-190.54C219.82,-190.72 228.07,-190.88 236.05,-191 381.19,-193.15 420.41,-219.93 562.66,-191 574.89,-188.51 587.69,-183.59 598.57,-178.62"/>
<polygon fill="black" stroke="black" points="211.79,-187.05 201.71,-190.31 211.62,-194.04 211.79,-187.05"/>
</g>
<!-- ProtocolRelationship&#45;&gt;Project -->
<g id="edge6" class="edge">
<title>ProtocolRelationship&#45;&gt;Project</title>
<path fill="none" stroke="black" stroke-dasharray="5,2" d="M211.91,-178.42C269.83,-173.94 335.95,-168.83 371.81,-166.05"/>
<polygon fill="black" stroke="black" points="211.65,-174.93 201.95,-179.19 212.19,-181.91 211.65,-174.93"/>
</g>
<!-- ProtocolRelationship&#45;&gt;Protocol -->
<g id="edge7" class="edge">
<title>ProtocolRelationship&#45;&gt;Protocol</title>
<path fill="none" stroke="black" stroke-dasharray="5,2" d="M160.11,-162.35C183.44,-153.35 210.7,-143.74 236.05,-137 281.32,-124.97 335.2,-117.27 368.08,-113.29"/>
<polygon fill="black" stroke="black" points="159.13,-158.98 151.09,-165.88 161.68,-165.5 159.13,-158.98"/>
</g>
<!-- ProtocolRelationship&#45;&gt;Updater -->
<g id="edge9" class="edge">
<title>ProtocolRelationship&#45;&gt;Updater</title>
<path fill="none" stroke="black" stroke-dasharray="5,2" d="M128.77,-156.55C153.94,-131.37 193.52,-97.48 236.05,-83 373.46,-36.21 421.55,-48.94 562.66,-83 612.55,-95.04 664.38,-125.68 694.52,-145.64"/>
<polygon fill="black" stroke="black" points="126.34,-154.03 121.86,-163.63 131.35,-158.92 126.34,-154.03"/>
</g>
<!-- ProtocolRelationship&#45;&gt;Objects with Protocol relationships -->
<g id="edge8" class="edge">
<title>ProtocolRelationship&#45;&gt;Objects with Protocol relationships</title>
<path fill="none" stroke="black" stroke-dasharray="5,2" d="M122.79,-155.79C146.75,-123.96 188.27,-75.71 236.05,-50 252.36,-41.22 270.75,-34.84 289.15,-30.19"/>
<polygon fill="black" stroke="black" points="120.24,-153.36 117.12,-163.48 125.87,-157.51 120.24,-153.36"/>
</g>
<!-- Role&#45;&gt;Verifier -->
<!-- VerifierRole&#45;&gt;Verifier -->
<g id="edge4" class="edge">
<title>VerifierRole&#45;&gt;Verifier</title>
<path fill="none" stroke="black" stroke-dasharray="1,5" d="M441.01,-260.86C482.4,-265.81 546.15,-273.42 587.03,-278.31"/>
<polygon fill="black" stroke="black" points="586.58,-281.78 596.93,-279.49 587.41,-274.83 586.58,-281.78"/>
</g>
<!-- Creator&#45;&gt;Updater -->
<!-- Project&#45;&gt;Creator -->
<!-- ProtocolRelationship -->
<g id="node1" class="node">
<title>ProtocolRelationship</title>
<g id="a_node1"><a xlink:href="/develop/Data/models.html#protocol-relationship" xlink:title="ProtocolRelationship" target="_top">
<polygon fill="#cdefab" stroke="#dedede" points="196.05,-179.54 196.05,-194.46 139.8,-205 60.25,-205 4,-194.46 4,-179.54 60.25,-169 139.8,-169 196.05,-179.54"/>
<polygon fill="none" stroke="#dedede" points="200.05,-176.22 200.05,-197.78 140.17,-209 59.88,-209 0,-197.78 0,-176.22 59.88,-165 140.17,-165 200.05,-176.22"/>
<text text-anchor="middle" x="100.02" y="-181.95" font-family="Times,serif" font-size="14.00">ProtocolRelationship</text>
</a>
</g>
</g>
<!-- PinboardItem -->
<g id="node2" class="node">
<title>PinboardItem</title>
<g id="a_node2"><a xlink:href="/develop/Data/models.html#pinboard-item" xlink:title="PinboardItem" target="_top">
<polygon fill="#eeefff" stroke="#dddeee" points="444.48,-382 354.23,-382 354.23,-346 444.48,-346 444.48,-382"/>
<text text-anchor="middle" x="399.35" y="-358.95" font-family="Times,serif" font-size="14.00">PinboardItem</text>
</a>
</g>
</g>
<!-- Role -->
<g id="node3" class="node">
<title>Role</title>
<g id="a_node3"><a xlink:href="/develop/Data/models.html#role" xlink:title="Role" target="_top">
<polygon fill="#eeefff" stroke="#dddeee" points="426.35,-328 372.35,-328 372.35,-292 426.35,-292 426.35,-328"/>
<text text-anchor="middle" x="399.35" y="-304.95" font-family="Times,serif" font-size="14.00">Role</text>
</a>
</g>
</g>
<!-- VerifierRole -->
<g id="node4" class="node">
<title>VerifierRole</title>
<g id="a_node4"><a xlink:href="/develop/Data/models.html#verifier-role" xlink:title="VerifierRole" target="_top">
<polygon fill="#eeefff" stroke="#dddeee" points="440.73,-274 357.98,-274 357.98,-238 440.73,-238 440.73,-274"/>
<text text-anchor="middle" x="399.35" y="-250.95" font-family="Times,serif" font-size="14.00">VerifierRole</text>
</a>
</g>
</g>
<!-- Verifier -->
<g id="node5" class="node">
<title>Verifier</title>
<g id="a_node5"><a xlink:href="/develop/Data/models.html#verifier" xlink:title="Verifier" target="_top">
<polygon fill="#eeefff" stroke="#dddeee" points="655.91,-301 598.66,-301 598.66,-265 655.91,-265 655.91,-301"/>
<text text-anchor="middle" x="627.29" y="-277.95" font-family="Times,serif" font-size="14.00">Verifier</text>
</a>
</g>
</g>
<!-- Creator -->
<g id="node6" class="node">
<title>Creator</title>
<g id="a_node6"><a xlink:href="/develop/Data/models.html#creator" xlink:title="Creator" target="_top">
<polygon fill="#eeefff" stroke="#dddeee" points="655.54,-182 599.04,-182 599.04,-146 655.54,-146 655.54,-182"/>
<text text-anchor="middle" x="627.29" y="-158.95" font-family="Times,serif" font-size="14.00">Creator</text>
</a>
</g>
</g>
<!-- Project -->
<g id="node7" class="node">
<title>Project</title>
<g id="a_node7"><a xlink:href="/develop/Data/models.html#project" xlink:title="Project" target="_top">
<polygon fill="#eeefff" stroke="#dddeee" points="426.48,-182 372.23,-182 372.23,-146 426.48,-146 426.48,-182"/>
<text text-anchor="middle" x="399.35" y="-158.95" font-family="Times,serif" font-size="14.00">Project</text>
</a>
</g>
</g>
<!-- Protocol -->
<g id="node8" class="node">
<title>Protocol</title>
<g id="a_node8"><a xlink:href="/develop/Data/models.html#protocol" xlink:title="Protocol" target="_top">
<polygon fill="#eeefff" stroke="#dddeee" points="430.23,-128 368.48,-128 368.48,-92 430.23,-92 430.23,-128"/>
<text text-anchor="middle" x="399.35" y="-104.95" font-family="Times,serif" font-size="14.00">Protocol</text>
</a>
</g>
</g>
<!-- Updater -->
<g id="node9" class="node">
<title>Updater</title>
<g id="a_node9"><a xlink:href="/develop/Data/models.html#updater" xlink:title="Updater" target="_top">
<polygon fill="#eeefff" stroke="#dddeee" points="751.41,-182 691.91,-182 691.91,-146 751.41,-146 751.41,-182"/>
<text text-anchor="middle" x="721.66" y="-158.95" font-family="Times,serif" font-size="14.00">Updater</text>
</a>
</g>
</g>
<!-- Objects with Protocol relationships -->
<g id="node10" class="node">
<title>Objects with Protocol relationships</title>
<g id="a_node10"><a xlink:href="/develop/Data/models.html#objects with protocol relationship" xlink:title="Objects with Protocol relationships" target="_top">
<polygon fill="#cdabef" stroke="#dedede" points="562.66,-18 481.01,-36 317.7,-36 236.05,-18 317.7,0 481.01,0 562.66,-18"/>
<text text-anchor="middle" x="399.35" y="-12.95" font-family="Times,serif" font-size="14.00">Objects with Protocol relationships</text>
</a>
</g>
</g>
</g>
</svg>
