<?xml version="1.0" encoding="UTF-8" standalone="no"?>
<!DOCTYPE svg PUBLIC "-//W3C//DTD SVG 1.1//EN"
 "http://www.w3.org/Graphics/SVG/1.1/DTD/svg11.dtd">
<!-- Generated by graphviz version 2.50.0 (20211204.2007)
 -->
<!-- Title: Protocol Pages: 1 -->
<svg width="757pt" height="560pt"
 viewBox="0.00 0.00 756.52 560.00" xmlns="http://www.w3.org/2000/svg" xmlns:xlink="http://www.w3.org/1999/xlink">
<g id="graph0" class="graph" transform="scale(1 1) rotate(0) translate(4 556)">
<title>Protocol</title>
<polygon fill="white" stroke="transparent" points="-4,4 -4,-556 752.52,-556 752.52,4 -4,4"/>
<text text-anchor="middle" x="374.26" y="-22.8" font-family="Times,serif" font-size="14.00">Algorithmically generated relationships for Protocol based on assertions of &#39;has_many&#39;, &#39;has_one&#39;, &#39;belongs_to&#39;. </text>
<text text-anchor="middle" x="374.26" y="-7.8" font-family="Times,serif" font-size="14.00">Generated 2022&#45;01&#45;25 11:38:22 &#45;0600.</text>
<!-- Citation&#45;&gt;Source -->
<g id="edge8" class="edge">
<title>Citation&#45;&gt;Source</title>
<path fill="none" stroke="black" d="M124.25,-479C182.6,-479 293.35,-479 350.64,-479"/>
<polygon fill="black" stroke="black" points="350.7,-482.5 360.7,-479 350.7,-475.5 350.7,-482.5"/>
</g>
<!-- Citation&#45;&gt;CitationTopic -->
<g id="edge1" class="edge">
<title>Citation&#45;&gt;CitationTopic</title>
<path fill="none" stroke="black" d="M117.51,-489.35C140.2,-496.83 171.44,-507.13 198.19,-515.96"/>
<polygon fill="black" stroke="black" points="197.23,-519.32 207.83,-519.13 199.43,-512.68 197.23,-519.32"/>
</g>
<!-- Source&#45;&gt;SubsequentCitation -->
<!-- Source&#45;&gt;OriginCitation -->
<!-- Protocol&#45;&gt;Citation -->
<g id="edge2" class="edge">
<title>Protocol&#45;&gt;Citation</title>
<path fill="none" stroke="black" d="M232.05,-331.13C200.81,-362.79 142.06,-422.34 109.44,-455.39"/>
<polygon fill="black" stroke="black" points="106.66,-453.22 102.13,-462.8 111.65,-458.14 106.66,-453.22"/>
</g>
<!-- Protocol&#45;&gt;ProtocolRelationship -->
<g id="edge6" class="edge">
<title>Protocol&#45;&gt;ProtocolRelationship</title>
<path fill="none" stroke="black" d="M206.19,-310C198.08,-310 189.4,-310 180.54,-310"/>
<polygon fill="black" stroke="black" points="180.5,-306.5 170.5,-310 180.5,-313.5 180.5,-306.5"/>
</g>
<!-- Protocol&#45;&gt;Source -->
<g id="edge18" class="edge">
<title>Protocol&#45;&gt;Source</title>
<path fill="none" stroke="black" stroke-dasharray="1,5" d="M269.13,-341.62C283.44,-371.01 307.63,-414.83 337.52,-446 344.31,-453.08 352.88,-459.45 360.97,-464.66"/>
<polygon fill="black" stroke="black" points="272.12,-339.76 264.66,-332.24 265.8,-342.77 272.12,-339.76"/>
</g>
<!-- Protocol&#45;&gt;Documentation -->
<g id="edge3" class="edge">
<title>Protocol&#45;&gt;Documentation</title>
<path fill="none" stroke="black" d="M257.71,-287.7C264.27,-243.75 284.33,-144.85 337.52,-83 338.13,-82.29 338.77,-81.59 339.43,-80.9"/>
<polygon fill="black" stroke="black" points="341.93,-83.37 347.18,-74.16 337.34,-78.08 341.93,-83.37"/>
</g>
<!-- Protocol&#45;&gt;PinboardItem -->
<g id="edge5" class="edge">
<title>Protocol&#45;&gt;PinboardItem</title>
<path fill="none" stroke="black" d="M260.67,-287.77C270.88,-252.14 295.17,-181.7 337.52,-137 338.29,-136.18 339.1,-135.38 339.93,-134.61"/>
<polygon fill="black" stroke="black" points="342.41,-137.1 347.99,-128.1 338.01,-131.66 342.41,-137.1"/>
</g>
<!-- Protocol&#45;&gt;Role -->
<g id="edge7" class="edge">
<title>Protocol&#45;&gt;Role</title>
<path fill="none" stroke="black" d="M301.85,-310C318,-310 335.82,-310 350.97,-310"/>
<polygon fill="black" stroke="black" points="350.97,-313.5 360.97,-310 350.97,-306.5 350.97,-313.5"/>
</g>
<!-- Protocol&#45;&gt;SubsequentCitation -->
<g id="edge9" class="edge">
<title>Protocol&#45;&gt;SubsequentCitation</title>
<path fill="none" stroke="black" d="M277.5,-330.4C293.26,-343.58 315.36,-360.06 337.52,-370 377.54,-387.95 425.58,-398.63 464.2,-404.85"/>
<polygon fill="black" stroke="black" points="463.9,-408.35 474.32,-406.42 464.97,-401.43 463.9,-408.35"/>
</g>
<!-- Protocol&#45;&gt;VerifierRole -->
<g id="edge12" class="edge">
<title>Protocol&#45;&gt;VerifierRole</title>
<path fill="none" stroke="black" d="M291,-295.24C305.18,-289.45 321.68,-282.7 336.97,-276.46"/>
<polygon fill="black" stroke="black" points="338.37,-279.67 346.3,-272.64 335.72,-273.19 338.37,-279.67"/>
</g>
<!-- Protocol&#45;&gt;Creator -->
<g id="edge14" class="edge">
<title>Protocol&#45;&gt;Creator</title>
<path fill="none" stroke="black" stroke-dasharray="5,2" d="M279.01,-280.35C294.24,-263.28 315.2,-242.59 337.52,-229 366.51,-211.34 459.61,-184.45 506.7,-171.49"/>
<polygon fill="black" stroke="black" points="276.36,-278.06 272.43,-287.9 281.64,-282.66 276.36,-278.06"/>
</g>
<!-- Protocol&#45;&gt;Project -->
<g id="edge15" class="edge">
<title>Protocol&#45;&gt;Project</title>
<path fill="none" stroke="black" stroke-dasharray="5,2" d="M272.84,-279.14C288.01,-254.73 311.41,-220.75 337.52,-196 344.35,-189.52 352.66,-183.57 360.51,-178.6"/>
<polygon fill="black" stroke="black" points="269.66,-277.63 267.44,-287.99 275.64,-281.28 269.66,-277.63"/>
</g>
<!-- Protocol&#45;&gt;Updater -->
<g id="edge16" class="edge">
<title>Protocol&#45;&gt;Updater</title>
<path fill="none" stroke="black" stroke-dasharray="5,2" d="M300.91,-327.87C312.67,-331.65 325.41,-335.07 337.52,-337 451.81,-355.2 500.12,-374.05 596.52,-310 643.83,-278.57 671.97,-213.97 683.46,-182.31"/>
<polygon fill="black" stroke="black" points="301.89,-324.51 291.3,-324.64 299.66,-331.15 301.89,-324.51"/>
</g>
<!-- Protocol&#45;&gt;OriginCitation -->
<g id="edge17" class="edge">
<title>Protocol&#45;&gt;OriginCitation</title>
<path fill="none" stroke="black" stroke-dasharray="1,5" d="M276.98,-340.22C292.19,-359.25 313.88,-383.14 337.52,-399 384.24,-430.35 446.04,-450.76 487.87,-462.05"/>
<polygon fill="black" stroke="black" points="279.57,-337.86 270.66,-332.13 274.06,-342.16 279.57,-337.86"/>
</g>
<!-- CitationTopic&#45;&gt;Topic -->
<g id="edge11" class="edge">
<title>CitationTopic&#45;&gt;Topic</title>
<path fill="none" stroke="black" d="M300,-534C316.52,-534 334.99,-534 350.65,-534"/>
<polygon fill="black" stroke="black" points="350.99,-537.5 360.98,-534 350.98,-530.5 350.99,-537.5"/>
</g>
<!-- Documentation&#45;&gt;Document -->
<g id="edge4" class="edge">
<title>Documentation&#45;&gt;Document</title>
<path fill="none" stroke="black" d="M438.68,-56C454.76,-56 472.51,-56 488.32,-56"/>
<polygon fill="black" stroke="black" points="488.39,-59.5 498.39,-56 488.39,-52.5 488.39,-59.5"/>
</g>
<!-- Role&#45;&gt;Verifier -->
<!-- SubsequentCitation&#45;&gt;SubsequentSource -->
<g id="edge10" class="edge">
<title>SubsequentCitation&#45;&gt;SubsequentSource</title>
<path fill="none" stroke="black" d="M596.55,-413C604.88,-413 613.49,-413 621.95,-413"/>
<polygon fill="black" stroke="black" points="622.16,-416.5 632.16,-413 622.16,-409.5 622.16,-416.5"/>
</g>
<!-- VerifierRole&#45;&gt;Verifier -->
<g id="edge13" class="edge">
<title>VerifierRole&#45;&gt;Verifier</title>
<path fill="none" stroke="black" d="M429.55,-263.52C450.55,-267.42 476.05,-272.15 496.65,-275.97"/>
<polygon fill="black" stroke="black" points="496.16,-279.44 506.63,-277.83 497.44,-272.56 496.16,-279.44"/>
</g>
<!-- Creator&#45;&gt;Updater -->
<!-- Project&#45;&gt;Creator -->
<!-- Citation -->
<g id="node1" class="node">
<title>Citation</title>
<g id="a_node1"><a xlink:href="/develop/Data/models.html#citation" xlink:title="Citation" target="_top">
<ellipse fill="#abcdef" stroke="#dddeee" cx="85.14" cy="-479" rx="38.99" ry="18"/>
<text text-anchor="middle" x="85.14" y="-475.3" font-family="Times,serif" font-size="14.00">Citation</text>
</a>
</g>
</g>
<!-- ProtocolRelationship -->
<g id="node2" class="node">
<title>ProtocolRelationship</title>
<g id="a_node2"><a xlink:href="/develop/Data/models.html#protocol-relationship" xlink:title="ProtocolRelationship" target="_top">
<ellipse fill="#abcdef" stroke="#dddeee" cx="85.14" cy="-310" rx="85.29" ry="18"/>
<text text-anchor="middle" x="85.14" y="-306.3" font-family="Times,serif" font-size="14.00">ProtocolRelationship</text>
</a>
</g>
</g>
<!-- Source -->
<g id="node3" class="node">
<title>Source</title>
<g id="a_node3"><a xlink:href="/develop/Data/models.html#source" xlink:title="Source" target="_top">
<path fill="#fedcba" stroke="#dddeee" d="M373.02,-461C373.02,-461 403.02,-461 403.02,-461 409.02,-461 415.02,-467 415.02,-473 415.02,-473 415.02,-485 415.02,-485 415.02,-491 409.02,-497 403.02,-497 403.02,-497 373.02,-497 373.02,-497 367.02,-497 361.02,-491 361.02,-485 361.02,-485 361.02,-473 361.02,-473 361.02,-467 367.02,-461 373.02,-461"/>
<text text-anchor="middle" x="388.02" y="-475.3" font-family="Times,serif" font-size="14.00">Source</text>
</a>
</g>
</g>
<!-- Protocol -->
<g id="node4" class="node">
<title>Protocol</title>
<g id="a_node4"><a xlink:href="/develop/Data/models.html#protocol" xlink:title="Protocol" target="_top">
<polygon fill="#cdefab" stroke="#dedede" points="297.62,-302.54 297.62,-317.46 272.01,-328 235.79,-328 210.18,-317.46 210.18,-302.54 235.79,-292 272.01,-292 297.62,-302.54"/>
<polygon fill="none" stroke="#dedede" points="301.63,-299.87 301.63,-320.13 272.81,-332 235,-332 206.17,-320.13 206.17,-299.87 235,-288 272.81,-288 301.63,-299.87"/>
<text text-anchor="middle" x="253.9" y="-306.3" font-family="Times,serif" font-size="14.00">Protocol</text>
</a>
</g>
</g>
<!-- CitationTopic -->
<g id="node5" class="node">
<title>CitationTopic</title>
<g id="a_node5"><a xlink:href="/develop/Data/models.html#citation-topic" xlink:title="CitationTopic" target="_top">
<polygon fill="#eeefff" stroke="#dddeee" points="299.9,-552 207.9,-552 207.9,-516 299.9,-516 299.9,-552"/>
<text text-anchor="middle" x="253.9" y="-530.3" font-family="Times,serif" font-size="14.00">CitationTopic</text>
</a>
</g>
</g>
<!-- Documentation -->
<g id="node6" class="node">
<title>Documentation</title>
<g id="a_node6"><a xlink:href="/develop/Data/models.html#documentation" xlink:title="Documentation" target="_top">
<polygon fill="#eeefff" stroke="#dddeee" points="438.52,-74 337.52,-74 337.52,-38 438.52,-38 438.52,-74"/>
<text text-anchor="middle" x="388.02" y="-52.3" font-family="Times,serif" font-size="14.00">Documentation</text>
</a>
</g>
</g>
<!-- Document -->
<g id="node7" class="node">
<title>Document</title>
<g id="a_node7"><a xlink:href="/develop/Data/models.html#document" xlink:title="Document" target="_top">
<polygon fill="#eeefff" stroke="#dddeee" points="572.52,-74 498.52,-74 498.52,-38 572.52,-38 572.52,-74"/>
<text text-anchor="middle" x="535.52" y="-52.3" font-family="Times,serif" font-size="14.00">Document</text>
</a>
</g>
</g>
<!-- PinboardItem -->
<g id="node8" class="node">
<title>PinboardItem</title>
<g id="a_node8"><a xlink:href="/develop/Data/models.html#pinboard-item" xlink:title="PinboardItem" target="_top">
<polygon fill="#eeefff" stroke="#dddeee" points="433.52,-128 342.52,-128 342.52,-92 433.52,-92 433.52,-128"/>
<text text-anchor="middle" x="388.02" y="-106.3" font-family="Times,serif" font-size="14.00">PinboardItem</text>
</a>
</g>
</g>
<!-- Role -->
<g id="node9" class="node">
<title>Role</title>
<g id="a_node9"><a xlink:href="/develop/Data/models.html#role" xlink:title="Role" target="_top">
<polygon fill="#eeefff" stroke="#dddeee" points="415.02,-328 361.02,-328 361.02,-292 415.02,-292 415.02,-328"/>
<text text-anchor="middle" x="388.02" y="-306.3" font-family="Times,serif" font-size="14.00">Role</text>
</a>
</g>
</g>
<!-- SubsequentCitation -->
<g id="node10" class="node">
<title>SubsequentCitation</title>
<g id="a_node10"><a xlink:href="/develop/Data/models.html#subsequent-citation" xlink:title="SubsequentCitation" target="_top">
<polygon fill="#eeefff" stroke="#dddeee" points="596.52,-431 474.52,-431 474.52,-395 596.52,-395 596.52,-431"/>
<text text-anchor="middle" x="535.52" y="-409.3" font-family="Times,serif" font-size="14.00">SubsequentCitation</text>
</a>
</g>
</g>
<!-- SubsequentSource -->
<g id="node11" class="node">
<title>SubsequentSource</title>
<g id="a_node11"><a xlink:href="/develop/Data/models.html#subsequent-source" xlink:title="SubsequentSource" target="_top">
<polygon fill="#eeefff" stroke="#dddeee" points="748.52,-431 632.52,-431 632.52,-395 748.52,-395 748.52,-431"/>
<text text-anchor="middle" x="690.52" y="-409.3" font-family="Times,serif" font-size="14.00">SubsequentSource</text>
</a>
</g>
</g>
<!-- Topic -->
<g id="node12" class="node">
<title>Topic</title>
<g id="a_node12"><a xlink:href="/develop/Data/models.html#topic" xlink:title="Topic" target="_top">
<polygon fill="#eeefff" stroke="#dddeee" points="415.02,-552 361.02,-552 361.02,-516 415.02,-516 415.02,-552"/>
<text text-anchor="middle" x="388.02" y="-530.3" font-family="Times,serif" font-size="14.00">Topic</text>
</a>
</g>
</g>
<!-- VerifierRole -->
<g id="node13" class="node">
<title>VerifierRole</title>
<g id="a_node13"><a xlink:href="/develop/Data/models.html#verifier-role" xlink:title="VerifierRole" target="_top">
<polygon fill="#eeefff" stroke="#dddeee" points="429.52,-274 346.52,-274 346.52,-238 429.52,-238 429.52,-274"/>
<text text-anchor="middle" x="388.02" y="-252.3" font-family="Times,serif" font-size="14.00">VerifierRole</text>
</a>
</g>
</g>
<!-- Verifier -->
<g id="node14" class="node">
<title>Verifier</title>
<g id="a_node14"><a xlink:href="/develop/Data/models.html#verifier" xlink:title="Verifier" target="_top">
<polygon fill="#eeefff" stroke="#dddeee" points="564.02,-301 507.02,-301 507.02,-265 564.02,-265 564.02,-301"/>
<text text-anchor="middle" x="535.52" y="-279.3" font-family="Times,serif" font-size="14.00">Verifier</text>
</a>
</g>
</g>
<!-- Creator -->
<g id="node15" class="node">
<title>Creator</title>
<g id="a_node15"><a xlink:href="/develop/Data/models.html#creator" xlink:title="Creator" target="_top">
<polygon fill="#eeefff" stroke="#dddeee" points="564.02,-182 507.02,-182 507.02,-146 564.02,-146 564.02,-182"/>
<text text-anchor="middle" x="535.52" y="-160.3" font-family="Times,serif" font-size="14.00">Creator</text>
</a>
</g>
</g>
<!-- Project -->
<g id="node16" class="node">
<title>Project</title>
<g id="a_node16"><a xlink:href="/develop/Data/models.html#project" xlink:title="Project" target="_top">
<polygon fill="#eeefff" stroke="#dddeee" points="415.52,-182 360.52,-182 360.52,-146 415.52,-146 415.52,-182"/>
<text text-anchor="middle" x="388.02" y="-160.3" font-family="Times,serif" font-size="14.00">Project</text>
</a>
</g>
</g>
<!-- Updater -->
<g id="node17" class="node">
<title>Updater</title>
<g id="a_node17"><a xlink:href="/develop/Data/models.html#updater" xlink:title="Updater" target="_top">
<polygon fill="#eeefff" stroke="#dddeee" points="720.52,-182 660.52,-182 660.52,-146 720.52,-146 720.52,-182"/>
<text text-anchor="middle" x="690.52" y="-160.3" font-family="Times,serif" font-size="14.00">Updater</text>
</a>
</g>
</g>
<!-- OriginCitation -->
<g id="node18" class="node">
<title>OriginCitation</title>
<g id="a_node18"><a xlink:href="/develop/Data/models.html#origin-citation" xlink:title="OriginCitation" target="_top">
<polygon fill="#eeefff" stroke="#dddeee" points="583.02,-491 488.02,-491 488.02,-455 583.02,-455 583.02,-491"/>
<text text-anchor="middle" x="535.52" y="-469.3" font-family="Times,serif" font-size="14.00">OriginCitation</text>
</a>
</g>
</g>
</g>
</svg>
