<?xml version="1.0" encoding="UTF-8" standalone="no"?>
<!DOCTYPE svg PUBLIC "-//W3C//DTD SVG 1.1//EN"
 "http://www.w3.org/Graphics/SVG/1.1/DTD/svg11.dtd">
<!-- Generated by graphviz version 2.50.0 (20211204.2007)
 -->
<!-- Title: Protocol Pages: 1 -->
<svg width="757pt" height="522pt"
 viewBox="0.00 0.00 756.52 522.00" xmlns="http://www.w3.org/2000/svg" xmlns:xlink="http://www.w3.org/1999/xlink">
<g id="graph0" class="graph" transform="scale(1 1) rotate(0) translate(4 518)">
<title>Protocol</title>
<polygon fill="white" stroke="transparent" points="-4,4 -4,-518 752.52,-518 752.52,4 -4,4"/>
<!-- Citation&#45;&gt;Source -->
<g id="edge8" class="edge">
<title>Citation&#45;&gt;Source</title>
<path fill="none" stroke="black" d="M124.25,-441C182.6,-441 293.35,-441 350.64,-441"/>
<polygon fill="black" stroke="black" points="350.7,-444.5 360.7,-441 350.7,-437.5 350.7,-444.5"/>
</g>
<!-- Citation&#45;&gt;CitationTopic -->
<g id="edge1" class="edge">
<title>Citation&#45;&gt;CitationTopic</title>
<path fill="none" stroke="black" d="M117.51,-451.35C140.2,-458.83 171.44,-469.13 198.19,-477.96"/>
<polygon fill="black" stroke="black" points="197.23,-481.32 207.83,-481.13 199.43,-474.68 197.23,-481.32"/>
</g>
<!-- Source&#45;&gt;SubsequentCitation -->
<!-- Source&#45;&gt;OriginCitation -->
<!-- Protocol&#45;&gt;Citation -->
<g id="edge2" class="edge">
<title>Protocol&#45;&gt;Citation</title>
<path fill="none" stroke="black" d="M232.05,-293.13C200.81,-324.79 142.06,-384.34 109.44,-417.39"/>
<polygon fill="black" stroke="black" points="106.66,-415.22 102.13,-424.8 111.65,-420.14 106.66,-415.22"/>
</g>
<!-- Protocol&#45;&gt;ProtocolRelationship -->
<g id="edge6" class="edge">
<title>Protocol&#45;&gt;ProtocolRelationship</title>
<path fill="none" stroke="black" d="M206.19,-272C198.08,-272 189.4,-272 180.54,-272"/>
<polygon fill="black" stroke="black" points="180.5,-268.5 170.5,-272 180.5,-275.5 180.5,-268.5"/>
</g>
<!-- Protocol&#45;&gt;Source -->
<g id="edge18" class="edge">
<title>Protocol&#45;&gt;Source</title>
<path fill="none" stroke="black" stroke-dasharray="1,5" d="M269.13,-303.62C283.44,-333.01 307.63,-376.83 337.52,-408 344.31,-415.08 352.88,-421.45 360.97,-426.66"/>
<polygon fill="black" stroke="black" points="272.12,-301.76 264.66,-294.24 265.8,-304.77 272.12,-301.76"/>
</g>
<!-- Protocol&#45;&gt;Documentation -->
<g id="edge3" class="edge">
<title>Protocol&#45;&gt;Documentation</title>
<path fill="none" stroke="black" d="M257.71,-249.7C264.27,-205.75 284.33,-106.85 337.52,-45 338.13,-44.29 338.77,-43.59 339.43,-42.9"/>
<polygon fill="black" stroke="black" points="341.93,-45.37 347.18,-36.16 337.34,-40.08 341.93,-45.37"/>
</g>
<!-- Protocol&#45;&gt;PinboardItem -->
<g id="edge5" class="edge">
<title>Protocol&#45;&gt;PinboardItem</title>
<path fill="none" stroke="black" d="M260.67,-249.77C270.88,-214.14 295.17,-143.7 337.52,-99 338.29,-98.18 339.1,-97.38 339.93,-96.61"/>
<polygon fill="black" stroke="black" points="342.41,-99.1 347.99,-90.1 338.01,-93.66 342.41,-99.1"/>
</g>
<!-- Protocol&#45;&gt;Role -->
<g id="edge7" class="edge">
<title>Protocol&#45;&gt;Role</title>
<path fill="none" stroke="black" d="M301.85,-272C318,-272 335.82,-272 350.97,-272"/>
<polygon fill="black" stroke="black" points="350.97,-275.5 360.97,-272 350.97,-268.5 350.97,-275.5"/>
</g>
<!-- Protocol&#45;&gt;SubsequentCitation -->
<g id="edge9" class="edge">
<title>Protocol&#45;&gt;SubsequentCitation</title>
<path fill="none" stroke="black" d="M277.5,-292.4C293.26,-305.58 315.36,-322.06 337.52,-332 377.54,-349.95 425.58,-360.63 464.2,-366.85"/>
<polygon fill="black" stroke="black" points="463.9,-370.35 474.32,-368.42 464.97,-363.43 463.9,-370.35"/>
</g>
<!-- Protocol&#45;&gt;VerifierRole -->
<g id="edge12" class="edge">
<title>Protocol&#45;&gt;VerifierRole</title>
<path fill="none" stroke="black" d="M291,-257.24C305.18,-251.45 321.68,-244.7 336.97,-238.46"/>
<polygon fill="black" stroke="black" points="338.37,-241.67 346.3,-234.64 335.72,-235.19 338.37,-241.67"/>
</g>
<!-- Protocol&#45;&gt;Creator -->
<g id="edge14" class="edge">
<title>Protocol&#45;&gt;Creator</title>
<path fill="none" stroke="black" stroke-dasharray="5,2" d="M279.01,-242.35C294.24,-225.28 315.2,-204.59 337.52,-191 366.51,-173.34 459.61,-146.45 506.7,-133.49"/>
<polygon fill="black" stroke="black" points="276.36,-240.06 272.43,-249.9 281.64,-244.66 276.36,-240.06"/>
</g>
<!-- Protocol&#45;&gt;Project -->
<g id="edge15" class="edge">
<title>Protocol&#45;&gt;Project</title>
<path fill="none" stroke="black" stroke-dasharray="5,2" d="M272.84,-241.14C288.01,-216.73 311.41,-182.75 337.52,-158 344.35,-151.52 352.66,-145.57 360.51,-140.6"/>
<polygon fill="black" stroke="black" points="269.66,-239.63 267.44,-249.99 275.64,-243.28 269.66,-239.63"/>
</g>
<!-- Protocol&#45;&gt;Updater -->
<g id="edge16" class="edge">
<title>Protocol&#45;&gt;Updater</title>
<path fill="none" stroke="black" stroke-dasharray="5,2" d="M300.91,-289.87C312.67,-293.65 325.41,-297.07 337.52,-299 451.81,-317.2 500.12,-336.05 596.52,-272 643.83,-240.57 671.97,-175.97 683.46,-144.31"/>
<polygon fill="black" stroke="black" points="301.89,-286.51 291.3,-286.64 299.66,-293.15 301.89,-286.51"/>
</g>
<!-- Protocol&#45;&gt;OriginCitation -->
<g id="edge17" class="edge">
<title>Protocol&#45;&gt;OriginCitation</title>
<path fill="none" stroke="black" stroke-dasharray="1,5" d="M276.98,-302.22C292.19,-321.25 313.88,-345.14 337.52,-361 384.24,-392.35 446.04,-412.76 487.87,-424.05"/>
<polygon fill="black" stroke="black" points="279.57,-299.86 270.66,-294.13 274.06,-304.16 279.57,-299.86"/>
</g>
<!-- CitationTopic&#45;&gt;Topic -->
<g id="edge11" class="edge">
<title>CitationTopic&#45;&gt;Topic</title>
<path fill="none" stroke="black" d="M300,-496C316.52,-496 334.99,-496 350.65,-496"/>
<polygon fill="black" stroke="black" points="350.99,-499.5 360.98,-496 350.98,-492.5 350.99,-499.5"/>
</g>
<!-- Documentation&#45;&gt;Document -->
<g id="edge4" class="edge">
<title>Documentation&#45;&gt;Document</title>
<path fill="none" stroke="black" d="M438.68,-18C454.76,-18 472.51,-18 488.32,-18"/>
<polygon fill="black" stroke="black" points="488.39,-21.5 498.39,-18 488.39,-14.5 488.39,-21.5"/>
</g>
<!-- Role&#45;&gt;Verifier -->
<!-- SubsequentCitation&#45;&gt;SubsequentSource -->
<g id="edge10" class="edge">
<title>SubsequentCitation&#45;&gt;SubsequentSource</title>
<path fill="none" stroke="black" d="M596.55,-375C604.88,-375 613.49,-375 621.95,-375"/>
<polygon fill="black" stroke="black" points="622.16,-378.5 632.16,-375 622.16,-371.5 622.16,-378.5"/>
</g>
<!-- VerifierRole&#45;&gt;Verifier -->
<g id="edge13" class="edge">
<title>VerifierRole&#45;&gt;Verifier</title>
<path fill="none" stroke="black" d="M429.55,-225.52C450.55,-229.42 476.05,-234.15 496.65,-237.97"/>
<polygon fill="black" stroke="black" points="496.16,-241.44 506.63,-239.83 497.44,-234.56 496.16,-241.44"/>
</g>
<!-- Creator&#45;&gt;Updater -->
<!-- Project&#45;&gt;Creator -->
<!-- Citation -->
<g id="node1" class="node">
<title>Citation</title>
<g id="a_node1"><a xlink:href="/develop/Data/models.html#citation" xlink:title="Citation" target="_top">
<ellipse fill="#abcdef" stroke="#dddeee" cx="85.14" cy="-441" rx="38.99" ry="18"/>
<text text-anchor="middle" x="85.14" y="-437.3" font-family="Times,serif" font-size="14.00">Citation</text>
</a>
</g>
</g>
<!-- ProtocolRelationship -->
<g id="node2" class="node">
<title>ProtocolRelationship</title>
<g id="a_node2"><a xlink:href="/develop/Data/models.html#protocol-relationship" xlink:title="ProtocolRelationship" target="_top">
<ellipse fill="#abcdef" stroke="#dddeee" cx="85.14" cy="-272" rx="85.29" ry="18"/>
<text text-anchor="middle" x="85.14" y="-268.3" font-family="Times,serif" font-size="14.00">ProtocolRelationship</text>
</a>
</g>
</g>
<!-- Source -->
<g id="node3" class="node">
<title>Source</title>
<g id="a_node3"><a xlink:href="/develop/Data/models.html#source" xlink:title="Source" target="_top">
<path fill="#fedcba" stroke="#dddeee" d="M373.02,-423C373.02,-423 403.02,-423 403.02,-423 409.02,-423 415.02,-429 415.02,-435 415.02,-435 415.02,-447 415.02,-447 415.02,-453 409.02,-459 403.02,-459 403.02,-459 373.02,-459 373.02,-459 367.02,-459 361.02,-453 361.02,-447 361.02,-447 361.02,-435 361.02,-435 361.02,-429 367.02,-423 373.02,-423"/>
<text text-anchor="middle" x="388.02" y="-437.3" font-family="Times,serif" font-size="14.00">Source</text>
</a>
</g>
</g>
<!-- Protocol -->
<g id="node4" class="node">
<title>Protocol</title>
<g id="a_node4"><a xlink:href="/develop/Data/models.html#protocol" xlink:title="Protocol" target="_top">
<polygon fill="#cdefab" stroke="#dedede" points="297.62,-264.54 297.62,-279.46 272.01,-290 235.79,-290 210.18,-279.46 210.18,-264.54 235.79,-254 272.01,-254 297.62,-264.54"/>
<polygon fill="none" stroke="#dedede" points="301.63,-261.87 301.63,-282.13 272.81,-294 235,-294 206.17,-282.13 206.17,-261.87 235,-250 272.81,-250 301.63,-261.87"/>
<text text-anchor="middle" x="253.9" y="-268.3" font-family="Times,serif" font-size="14.00">Protocol</text>
</a>
</g>
</g>
<!-- CitationTopic -->
<g id="node5" class="node">
<title>CitationTopic</title>
<g id="a_node5"><a xlink:href="/develop/Data/models.html#citation-topic" xlink:title="CitationTopic" target="_top">
<polygon fill="#eeefff" stroke="#dddeee" points="299.9,-514 207.9,-514 207.9,-478 299.9,-478 299.9,-514"/>
<text text-anchor="middle" x="253.9" y="-492.3" font-family="Times,serif" font-size="14.00">CitationTopic</text>
</a>
</g>
</g>
<!-- Documentation -->
<g id="node6" class="node">
<title>Documentation</title>
<g id="a_node6"><a xlink:href="/develop/Data/models.html#documentation" xlink:title="Documentation" target="_top">
<polygon fill="#eeefff" stroke="#dddeee" points="438.52,-36 337.52,-36 337.52,0 438.52,0 438.52,-36"/>
<text text-anchor="middle" x="388.02" y="-14.3" font-family="Times,serif" font-size="14.00">Documentation</text>
</a>
</g>
</g>
<!-- Document -->
<g id="node7" class="node">
<title>Document</title>
<g id="a_node7"><a xlink:href="/develop/Data/models.html#document" xlink:title="Document" target="_top">
<polygon fill="#eeefff" stroke="#dddeee" points="572.52,-36 498.52,-36 498.52,0 572.52,0 572.52,-36"/>
<text text-anchor="middle" x="535.52" y="-14.3" font-family="Times,serif" font-size="14.00">Document</text>
</a>
</g>
</g>
<!-- PinboardItem -->
<g id="node8" class="node">
<title>PinboardItem</title>
<g id="a_node8"><a xlink:href="/develop/Data/models.html#pinboard-item" xlink:title="PinboardItem" target="_top">
<polygon fill="#eeefff" stroke="#dddeee" points="433.52,-90 342.52,-90 342.52,-54 433.52,-54 433.52,-90"/>
<text text-anchor="middle" x="388.02" y="-68.3" font-family="Times,serif" font-size="14.00">PinboardItem</text>
</a>
</g>
</g>
<!-- Role -->
<g id="node9" class="node">
<title>Role</title>
<g id="a_node9"><a xlink:href="/develop/Data/models.html#role" xlink:title="Role" target="_top">
<polygon fill="#eeefff" stroke="#dddeee" points="415.02,-290 361.02,-290 361.02,-254 415.02,-254 415.02,-290"/>
<text text-anchor="middle" x="388.02" y="-268.3" font-family="Times,serif" font-size="14.00">Role</text>
</a>
</g>
</g>
<!-- SubsequentCitation -->
<g id="node10" class="node">
<title>SubsequentCitation</title>
<g id="a_node10"><a xlink:href="/develop/Data/models.html#subsequent-citation" xlink:title="SubsequentCitation" target="_top">
<polygon fill="#eeefff" stroke="#dddeee" points="596.52,-393 474.52,-393 474.52,-357 596.52,-357 596.52,-393"/>
<text text-anchor="middle" x="535.52" y="-371.3" font-family="Times,serif" font-size="14.00">SubsequentCitation</text>
</a>
</g>
</g>
<!-- SubsequentSource -->
<g id="node11" class="node">
<title>SubsequentSource</title>
<g id="a_node11"><a xlink:href="/develop/Data/models.html#subsequent-source" xlink:title="SubsequentSource" target="_top">
<polygon fill="#eeefff" stroke="#dddeee" points="748.52,-393 632.52,-393 632.52,-357 748.52,-357 748.52,-393"/>
<text text-anchor="middle" x="690.52" y="-371.3" font-family="Times,serif" font-size="14.00">SubsequentSource</text>
</a>
</g>
</g>
<!-- Topic -->
<g id="node12" class="node">
<title>Topic</title>
<g id="a_node12"><a xlink:href="/develop/Data/models.html#topic" xlink:title="Topic" target="_top">
<polygon fill="#eeefff" stroke="#dddeee" points="415.02,-514 361.02,-514 361.02,-478 415.02,-478 415.02,-514"/>
<text text-anchor="middle" x="388.02" y="-492.3" font-family="Times,serif" font-size="14.00">Topic</text>
</a>
</g>
</g>
<!-- VerifierRole -->
<g id="node13" class="node">
<title>VerifierRole</title>
<g id="a_node13"><a xlink:href="/develop/Data/models.html#verifier-role" xlink:title="VerifierRole" target="_top">
<polygon fill="#eeefff" stroke="#dddeee" points="429.52,-236 346.52,-236 346.52,-200 429.52,-200 429.52,-236"/>
<text text-anchor="middle" x="388.02" y="-214.3" font-family="Times,serif" font-size="14.00">VerifierRole</text>
</a>
</g>
</g>
<!-- Verifier -->
<g id="node14" class="node">
<title>Verifier</title>
<g id="a_node14"><a xlink:href="/develop/Data/models.html#verifier" xlink:title="Verifier" target="_top">
<polygon fill="#eeefff" stroke="#dddeee" points="564.02,-263 507.02,-263 507.02,-227 564.02,-227 564.02,-263"/>
<text text-anchor="middle" x="535.52" y="-241.3" font-family="Times,serif" font-size="14.00">Verifier</text>
</a>
</g>
</g>
<!-- Creator -->
<g id="node15" class="node">
<title>Creator</title>
<g id="a_node15"><a xlink:href="/develop/Data/models.html#creator" xlink:title="Creator" target="_top">
<polygon fill="#eeefff" stroke="#dddeee" points="564.02,-144 507.02,-144 507.02,-108 564.02,-108 564.02,-144"/>
<text text-anchor="middle" x="535.52" y="-122.3" font-family="Times,serif" font-size="14.00">Creator</text>
</a>
</g>
</g>
<!-- Project -->
<g id="node16" class="node">
<title>Project</title>
<g id="a_node16"><a xlink:href="/develop/Data/models.html#project" xlink:title="Project" target="_top">
<polygon fill="#eeefff" stroke="#dddeee" points="415.52,-144 360.52,-144 360.52,-108 415.52,-108 415.52,-144"/>
<text text-anchor="middle" x="388.02" y="-122.3" font-family="Times,serif" font-size="14.00">Project</text>
</a>
</g>
</g>
<!-- Updater -->
<g id="node17" class="node">
<title>Updater</title>
<g id="a_node17"><a xlink:href="/develop/Data/models.html#updater" xlink:title="Updater" target="_top">
<polygon fill="#eeefff" stroke="#dddeee" points="720.52,-144 660.52,-144 660.52,-108 720.52,-108 720.52,-144"/>
<text text-anchor="middle" x="690.52" y="-122.3" font-family="Times,serif" font-size="14.00">Updater</text>
</a>
</g>
</g>
<!-- OriginCitation -->
<g id="node18" class="node">
<title>OriginCitation</title>
<g id="a_node18"><a xlink:href="/develop/Data/models.html#origin-citation" xlink:title="OriginCitation" target="_top">
<polygon fill="#eeefff" stroke="#dddeee" points="583.02,-453 488.02,-453 488.02,-417 583.02,-417 583.02,-453"/>
<text text-anchor="middle" x="535.52" y="-431.3" font-family="Times,serif" font-size="14.00">OriginCitation</text>
</a>
</g>
</g>
</g>
</svg>
