<?xml version="1.0" encoding="UTF-8" standalone="no"?>
<!DOCTYPE svg PUBLIC "-//W3C//DTD SVG 1.1//EN"
 "http://www.w3.org/Graphics/SVG/1.1/DTD/svg11.dtd">
<!-- Generated by graphviz version 12.2.1 (20241206.2353)
 -->
<!-- Title: RangedLotCategory Pages: 1 -->
<svg width="516pt" height="325pt"
 viewBox="0.00 0.00 516.40 324.82" xmlns="http://www.w3.org/2000/svg" xmlns:xlink="http://www.w3.org/1999/xlink">
<g id="graph0" class="graph" transform="scale(1 1) rotate(0) translate(4 320.82)">
<title>RangedLotCategory</title>
<polygon fill="white" stroke="none" points="-4,4 -4,-320.82 512.4,-320.82 512.4,4 -4,4"/>
<!-- RangedLotCategory&#45;&gt;PinboardItem -->
<g id="edge1" class="edge">
<title>RangedLotCategory&#45;&gt;PinboardItem</title>
<path fill="none" stroke="black" d="M116.29,-159.05C140.54,-187.26 185.12,-236.49 229.4,-271.82 230.35,-272.57 231.32,-273.33 232.3,-274.07"/>
<polygon fill="black" stroke="black" points="230.11,-276.81 240.3,-279.69 234.13,-271.08 230.11,-276.81"/>
</g>
<!-- RangedLotCategory&#45;&gt;RangedLot -->
<g id="edge2" class="edge">
<title>RangedLotCategory&#45;&gt;RangedLot</title>
<path fill="none" stroke="black" d="M134.02,-159.19C160.46,-175.46 197.14,-198.03 229.4,-217.82 230.98,-218.79 232.59,-219.77 234.21,-220.77"/>
<polygon fill="black" stroke="black" points="231.96,-223.5 242.32,-225.74 235.62,-217.53 231.96,-223.5"/>
</g>
<!-- RangedLotCategory&#45;&gt;Role -->
<g id="edge3" class="edge">
<title>RangedLotCategory&#45;&gt;Role</title>
<path fill="none" stroke="black" d="M157.22,-155.1C183.47,-163.16 213.51,-172.38 236.48,-179.44"/>
<polygon fill="black" stroke="black" points="235.43,-182.78 246.01,-182.37 237.48,-176.09 235.43,-182.78"/>
</g>
<!-- RangedLotCategory&#45;&gt;VerifierRole -->
<g id="edge4" class="edge">
<title>RangedLotCategory&#45;&gt;VerifierRole</title>
<path fill="none" stroke="black" d="M193.84,-136.82C203.43,-136.82 212.89,-136.82 221.75,-136.82"/>
<polygon fill="black" stroke="black" points="221.51,-140.32 231.51,-136.82 221.51,-133.32 221.51,-140.32"/>
</g>
<!-- RangedLotCategory&#45;&gt;Creator -->
<g id="edge6" class="edge">
<title>RangedLotCategory&#45;&gt;Creator</title>
<path fill="none" stroke="black" stroke-dasharray="5,2" d="M174.39,-116.73C217.47,-104.86 271.99,-88.84 319.65,-71.82 331.63,-67.54 344.59,-62.17 355.68,-57.36"/>
<polygon fill="black" stroke="black" points="173.59,-113.32 164.87,-119.34 175.44,-120.07 173.59,-113.32"/>
</g>
<!-- RangedLotCategory&#45;&gt;Project -->
<g id="edge7" class="edge">
<title>RangedLotCategory&#45;&gt;Project</title>
<path fill="none" stroke="black" stroke-dasharray="5,2" d="M149.04,-109.95C181.14,-93.15 221.17,-72.21 247.03,-58.68"/>
<polygon fill="black" stroke="black" points="147.5,-106.81 140.26,-114.55 150.75,-113.01 147.5,-106.81"/>
</g>
<!-- RangedLotCategory&#45;&gt;Updater -->
<g id="edge8" class="edge">
<title>RangedLotCategory&#45;&gt;Updater</title>
<path fill="none" stroke="black" stroke-dasharray="5,2" d="M120.89,-105.49C144.49,-76.49 183.98,-35.3 229.4,-17.82 305.51,11.48 332.93,-1.81 412.9,-17.82 424.96,-20.23 437.58,-24.94 448.45,-29.76"/>
<polygon fill="black" stroke="black" points="118.21,-103.24 114.73,-113.25 123.69,-107.59 118.21,-103.24"/>
</g>
<!-- Role&#45;&gt;Verifier -->
<!-- VerifierRole&#45;&gt;Verifier -->
<g id="edge5" class="edge">
<title>VerifierRole&#45;&gt;Verifier</title>
<path fill="none" stroke="black" stroke-dasharray="1,5" d="M316.26,-147.03C325.39,-149.31 335.06,-151.74 344.13,-154.01"/>
<polygon fill="black" stroke="black" points="343.19,-157.38 353.74,-156.42 344.89,-150.59 343.19,-157.38"/>
</g>
<!-- Creator&#45;&gt;Updater -->
<!-- Project&#45;&gt;Creator -->
<!-- RangedLotCategory -->
<g id="node1" class="node">
<title>RangedLotCategory</title>
<g id="a_node1"><a xlink:href="/develop/Data/models.html#ranged-lot-category" xlink:title="RangedLotCategory" target="_top">
<polygon fill="#cdefab" stroke="#dedede" points="189.4,-129.36 189.4,-144.27 135.1,-154.82 58.3,-154.82 4,-144.27 4,-129.36 58.3,-118.82 135.1,-118.82 189.4,-129.36"/>
<polygon fill="none" stroke="#dedede" points="193.4,-126.06 193.4,-147.57 135.48,-158.82 57.92,-158.82 0,-147.57 0,-126.06 57.92,-114.82 135.48,-114.82 193.4,-126.06"/>
<text text-anchor="middle" x="96.7" y="-131.77" font-family="Times,serif" font-size="14.00">RangedLotCategory</text>
</a>
</g>
</g>
<!-- PinboardItem -->
<g id="node2" class="node">
<title>PinboardItem</title>
<g id="a_node2"><a xlink:href="/develop/Data/models.html#pinboard-item" xlink:title="PinboardItem" target="_top">
<polygon fill="#eeefff" stroke="#dddeee" points="319.65,-316.82 229.4,-316.82 229.4,-280.82 319.65,-280.82 319.65,-316.82"/>
<text text-anchor="middle" x="274.52" y="-293.77" font-family="Times,serif" font-size="14.00">PinboardItem</text>
</a>
</g>
</g>
<!-- RangedLot -->
<g id="node3" class="node">
<title>RangedLot</title>
<g id="a_node3"><a xlink:href="/develop/Data/models.html#ranged-lot" xlink:title="RangedLot" target="_top">
<polygon fill="#eeefff" stroke="#dddeee" points="312.52,-262.82 236.52,-262.82 236.52,-226.82 312.52,-226.82 312.52,-262.82"/>
<text text-anchor="middle" x="274.52" y="-239.77" font-family="Times,serif" font-size="14.00">RangedLot</text>
</a>
</g>
</g>
<!-- Role -->
<g id="node4" class="node">
<title>Role</title>
<g id="a_node4"><a xlink:href="/develop/Data/models.html#role" xlink:title="Role" target="_top">
<polygon fill="#eeefff" stroke="#dddeee" points="301.52,-208.82 247.52,-208.82 247.52,-172.82 301.52,-172.82 301.52,-208.82"/>
<text text-anchor="middle" x="274.52" y="-185.77" font-family="Times,serif" font-size="14.00">Role</text>
</a>
</g>
</g>
<!-- VerifierRole -->
<g id="node5" class="node">
<title>VerifierRole</title>
<g id="a_node5"><a xlink:href="/develop/Data/models.html#verifier-role" xlink:title="VerifierRole" target="_top">
<polygon fill="#eeefff" stroke="#dddeee" points="315.9,-154.82 233.15,-154.82 233.15,-118.82 315.9,-118.82 315.9,-154.82"/>
<text text-anchor="middle" x="274.52" y="-131.77" font-family="Times,serif" font-size="14.00">VerifierRole</text>
</a>
</g>
</g>
<!-- Verifier -->
<g id="node6" class="node">
<title>Verifier</title>
<g id="a_node6"><a xlink:href="/develop/Data/models.html#verifier" xlink:title="Verifier" target="_top">
<polygon fill="#eeefff" stroke="#dddeee" points="412.9,-181.82 355.65,-181.82 355.65,-145.82 412.9,-145.82 412.9,-181.82"/>
<text text-anchor="middle" x="384.27" y="-158.77" font-family="Times,serif" font-size="14.00">Verifier</text>
</a>
</g>
</g>
<!-- Creator -->
<g id="node7" class="node">
<title>Creator</title>
<g id="a_node7"><a xlink:href="/develop/Data/models.html#creator" xlink:title="Creator" target="_top">
<polygon fill="#eeefff" stroke="#dddeee" points="412.52,-62.82 356.02,-62.82 356.02,-26.82 412.52,-26.82 412.52,-62.82"/>
<text text-anchor="middle" x="384.27" y="-39.77" font-family="Times,serif" font-size="14.00">Creator</text>
</a>
</g>
</g>
<!-- Project -->
<g id="node8" class="node">
<title>Project</title>
<g id="a_node8"><a xlink:href="/develop/Data/models.html#project" xlink:title="Project" target="_top">
<polygon fill="#eeefff" stroke="#dddeee" points="301.65,-62.82 247.4,-62.82 247.4,-26.82 301.65,-26.82 301.65,-62.82"/>
<text text-anchor="middle" x="274.52" y="-39.77" font-family="Times,serif" font-size="14.00">Project</text>
</a>
</g>
</g>
<!-- Updater -->
<g id="node9" class="node">
<title>Updater</title>
<g id="a_node9"><a xlink:href="/develop/Data/models.html#updater" xlink:title="Updater" target="_top">
<polygon fill="#eeefff" stroke="#dddeee" points="508.4,-62.82 448.9,-62.82 448.9,-26.82 508.4,-26.82 508.4,-62.82"/>
<text text-anchor="middle" x="478.65" y="-39.77" font-family="Times,serif" font-size="14.00">Updater</text>
</a>
</g>
</g>
</g>
</svg>
