<?xml version="1.0" encoding="UTF-8" standalone="no"?>
<!DOCTYPE svg PUBLIC "-//W3C//DTD SVG 1.1//EN"
 "http://www.w3.org/Graphics/SVG/1.1/DTD/svg11.dtd">
<!-- Generated by graphviz version 2.50.0 (20211204.2007)
 -->
<!-- Title: RangedLotCategory Pages: 1 -->
<svg width="696pt" height="363pt"
 viewBox="0.00 0.00 696.00 363.11" xmlns="http://www.w3.org/2000/svg" xmlns:xlink="http://www.w3.org/1999/xlink">
<g id="graph0" class="graph" transform="scale(1 1) rotate(0) translate(4 359.11)">
<title>RangedLotCategory</title>
<polygon fill="white" stroke="transparent" points="-4,4 -4,-359.11 692,-359.11 692,4 -4,4"/>
<text text-anchor="middle" x="344" y="-22.8" font-family="Times,serif" font-size="14.00">Algorithmically generated relationships for RangedLotCategory based on assertions of &#39;has_many&#39;, &#39;has_one&#39;, &#39;belongs_to&#39;. </text>
<text text-anchor="middle" x="344" y="-7.8" font-family="Times,serif" font-size="14.00">Generated 2022&#45;01&#45;25 11:38:24 &#45;0600.</text>
<!-- RangedLotCategory&#45;&gt;PinboardItem -->
<g id="edge1" class="edge">
<title>RangedLotCategory&#45;&gt;PinboardItem</title>
<path fill="none" stroke="black" d="M204.86,-197.42C228.2,-225.72 271.23,-275.05 314.64,-310.11 315.83,-311.07 317.05,-312.02 318.3,-312.95"/>
<polygon fill="black" stroke="black" points="316.64,-316.06 326.84,-318.93 320.65,-310.33 316.64,-316.06"/>
</g>
<!-- RangedLotCategory&#45;&gt;RangedLot -->
<g id="edge2" class="edge">
<title>RangedLotCategory&#45;&gt;RangedLot</title>
<path fill="none" stroke="black" d="M221.28,-197.13C246.91,-213.52 282.86,-236.39 314.64,-256.11 316.51,-257.27 318.43,-258.46 320.37,-259.65"/>
<polygon fill="black" stroke="black" points="318.57,-262.65 328.93,-264.89 322.23,-256.68 318.57,-262.65"/>
</g>
<!-- RangedLotCategory&#45;&gt;Role -->
<g id="edge3" class="edge">
<title>RangedLotCategory&#45;&gt;Role</title>
<path fill="none" stroke="black" d="M243.84,-192.94C269.95,-201.13 300.12,-210.59 323.05,-217.79"/>
<polygon fill="black" stroke="black" points="322.13,-221.17 332.72,-220.82 324.22,-214.49 322.13,-221.17"/>
</g>
<!-- RangedLotCategory&#45;&gt;VerifierRole -->
<g id="edge4" class="edge">
<title>RangedLotCategory&#45;&gt;VerifierRole</title>
<path fill="none" stroke="black" d="M278.87,-175.11C288.99,-175.11 299.01,-175.11 308.36,-175.11"/>
<polygon fill="black" stroke="black" points="308.6,-178.61 318.6,-175.11 308.6,-171.61 308.6,-178.61"/>
</g>
<!-- RangedLotCategory&#45;&gt;Creator -->
<g id="edge6" class="edge">
<title>RangedLotCategory&#45;&gt;Creator</title>
<path fill="none" stroke="black" stroke-dasharray="5,2" d="M259.6,-155.75C302.47,-143.77 357.59,-127.4 405.64,-110.11 417.59,-105.81 430.53,-100.44 441.59,-95.63"/>
<polygon fill="black" stroke="black" points="258.51,-152.42 249.81,-158.47 260.38,-159.17 258.51,-152.42"/>
</g>
<!-- RangedLotCategory&#45;&gt;Project -->
<g id="edge7" class="edge">
<title>RangedLotCategory&#45;&gt;Project</title>
<path fill="none" stroke="black" stroke-dasharray="5,2" d="M235.96,-148.94C267.34,-132.17 306.86,-111.05 332.55,-97.32"/>
<polygon fill="black" stroke="black" points="234.09,-145.97 226.93,-153.77 237.39,-152.14 234.09,-145.97"/>
</g>
<!-- RangedLotCategory&#45;&gt;Updater -->
<g id="edge8" class="edge">
<title>RangedLotCategory&#45;&gt;Updater</title>
<path fill="none" stroke="black" stroke-dasharray="5,2" d="M208.67,-144.56C231.3,-115.54 269.74,-73.79 314.64,-56.11 390.73,-26.14 418.44,-40.11 498.64,-56.11 510.74,-58.52 523.41,-63.23 534.32,-68.06"/>
<polygon fill="black" stroke="black" points="205.71,-142.67 202.43,-152.74 211.28,-146.91 205.71,-142.67"/>
</g>
<!-- Role&#45;&gt;Verifier -->
<!-- VerifierRole&#45;&gt;Verifier -->
<g id="edge5" class="edge">
<title>VerifierRole&#45;&gt;Verifier</title>
<path fill="none" stroke="black" d="M401.66,-185.24C411.52,-187.71 422.03,-190.33 431.74,-192.76"/>
<polygon fill="black" stroke="black" points="430.96,-196.17 441.51,-195.2 432.66,-189.38 430.96,-196.17"/>
</g>
<!-- Creator&#45;&gt;Updater -->
<!-- Project&#45;&gt;Creator -->
<!-- RangedLotCategory -->
<g id="node1" class="node">
<title>RangedLotCategory</title>
<g id="a_node1"><a xlink:href="/develop/Data/models.html#ranged-lot-category" xlink:title="RangedLotCategory" target="_top">
<polygon fill="#cdefab" stroke="#dedede" points="274.77,-167.65 274.77,-182.56 222.77,-193.11 149.23,-193.11 97.23,-182.56 97.23,-167.65 149.23,-157.11 222.77,-157.11 274.77,-167.65"/>
<polygon fill="none" stroke="#dedede" points="278.78,-164.38 278.78,-185.83 223.17,-197.11 148.83,-197.11 93.22,-185.83 93.22,-164.38 148.83,-153.11 223.17,-153.11 278.78,-164.38"/>
<text text-anchor="middle" x="186" y="-171.41" font-family="Times,serif" font-size="14.00">RangedLotCategory</text>
</a>
</g>
</g>
<!-- PinboardItem -->
<g id="node2" class="node">
<title>PinboardItem</title>
<g id="a_node2"><a xlink:href="/develop/Data/models.html#pinboard-item" xlink:title="PinboardItem" target="_top">
<polygon fill="#eeefff" stroke="#dddeee" points="405.64,-355.11 314.64,-355.11 314.64,-319.11 405.64,-319.11 405.64,-355.11"/>
<text text-anchor="middle" x="360.14" y="-333.41" font-family="Times,serif" font-size="14.00">PinboardItem</text>
</a>
</g>
</g>
<!-- RangedLot -->
<g id="node3" class="node">
<title>RangedLot</title>
<g id="a_node3"><a xlink:href="/develop/Data/models.html#ranged-lot" xlink:title="RangedLot" target="_top">
<polygon fill="#eeefff" stroke="#dddeee" points="398.64,-301.11 321.64,-301.11 321.64,-265.11 398.64,-265.11 398.64,-301.11"/>
<text text-anchor="middle" x="360.14" y="-279.41" font-family="Times,serif" font-size="14.00">RangedLot</text>
</a>
</g>
</g>
<!-- Role -->
<g id="node4" class="node">
<title>Role</title>
<g id="a_node4"><a xlink:href="/develop/Data/models.html#role" xlink:title="Role" target="_top">
<polygon fill="#eeefff" stroke="#dddeee" points="387.14,-247.11 333.14,-247.11 333.14,-211.11 387.14,-211.11 387.14,-247.11"/>
<text text-anchor="middle" x="360.14" y="-225.41" font-family="Times,serif" font-size="14.00">Role</text>
</a>
</g>
</g>
<!-- VerifierRole -->
<g id="node5" class="node">
<title>VerifierRole</title>
<g id="a_node5"><a xlink:href="/develop/Data/models.html#verifier-role" xlink:title="VerifierRole" target="_top">
<polygon fill="#eeefff" stroke="#dddeee" points="401.64,-193.11 318.64,-193.11 318.64,-157.11 401.64,-157.11 401.64,-193.11"/>
<text text-anchor="middle" x="360.14" y="-171.41" font-family="Times,serif" font-size="14.00">VerifierRole</text>
</a>
</g>
</g>
<!-- Verifier -->
<g id="node6" class="node">
<title>Verifier</title>
<g id="a_node6"><a xlink:href="/develop/Data/models.html#verifier" xlink:title="Verifier" target="_top">
<polygon fill="#eeefff" stroke="#dddeee" points="498.64,-220.11 441.64,-220.11 441.64,-184.11 498.64,-184.11 498.64,-220.11"/>
<text text-anchor="middle" x="470.14" y="-198.41" font-family="Times,serif" font-size="14.00">Verifier</text>
</a>
</g>
</g>
<!-- Creator -->
<g id="node7" class="node">
<title>Creator</title>
<g id="a_node7"><a xlink:href="/develop/Data/models.html#creator" xlink:title="Creator" target="_top">
<polygon fill="#eeefff" stroke="#dddeee" points="498.64,-101.11 441.64,-101.11 441.64,-65.11 498.64,-65.11 498.64,-101.11"/>
<text text-anchor="middle" x="470.14" y="-79.41" font-family="Times,serif" font-size="14.00">Creator</text>
</a>
</g>
</g>
<!-- Project -->
<g id="node8" class="node">
<title>Project</title>
<g id="a_node8"><a xlink:href="/develop/Data/models.html#project" xlink:title="Project" target="_top">
<polygon fill="#eeefff" stroke="#dddeee" points="387.64,-101.11 332.64,-101.11 332.64,-65.11 387.64,-65.11 387.64,-101.11"/>
<text text-anchor="middle" x="360.14" y="-79.41" font-family="Times,serif" font-size="14.00">Project</text>
</a>
</g>
</g>
<!-- Updater -->
<g id="node9" class="node">
<title>Updater</title>
<g id="a_node9"><a xlink:href="/develop/Data/models.html#updater" xlink:title="Updater" target="_top">
<polygon fill="#eeefff" stroke="#dddeee" points="594.64,-101.11 534.64,-101.11 534.64,-65.11 594.64,-65.11 594.64,-101.11"/>
<text text-anchor="middle" x="564.64" y="-79.41" font-family="Times,serif" font-size="14.00">Updater</text>
</a>
</g>
</g>
</g>
</svg>
