<?xml version="1.0" encoding="UTF-8" standalone="no"?>
<!DOCTYPE svg PUBLIC "-//W3C//DTD SVG 1.1//EN"
 "http://www.w3.org/Graphics/SVG/1.1/DTD/svg11.dtd">
<!-- Generated by graphviz version 2.50.0 (20211204.2007)
 -->
<!-- Title: RangedLotCategory Pages: 1 -->
<svg width="509pt" height="325pt"
 viewBox="0.00 0.00 509.28 325.11" xmlns="http://www.w3.org/2000/svg" xmlns:xlink="http://www.w3.org/1999/xlink">
<g id="graph0" class="graph" transform="scale(1 1) rotate(0) translate(4 321.11)">
<title>RangedLotCategory</title>
<polygon fill="white" stroke="transparent" points="-4,4 -4,-321.11 505.28,-321.11 505.28,4 -4,4"/>
<!-- RangedLotCategory&#45;&gt;PinboardItem -->
<g id="edge1" class="edge">
<title>RangedLotCategory&#45;&gt;PinboardItem</title>
<path fill="none" stroke="black" d="M111.5,-159.42C134.84,-187.72 177.87,-237.05 221.28,-272.11 222.47,-273.07 223.69,-274.02 224.94,-274.95"/>
<polygon fill="black" stroke="black" points="223.28,-278.06 233.48,-280.93 227.29,-272.33 223.28,-278.06"/>
</g>
<!-- RangedLotCategory&#45;&gt;RangedLot -->
<g id="edge2" class="edge">
<title>RangedLotCategory&#45;&gt;RangedLot</title>
<path fill="none" stroke="black" d="M127.92,-159.13C153.55,-175.52 189.5,-198.39 221.28,-218.11 223.15,-219.27 225.07,-220.46 227.01,-221.65"/>
<polygon fill="black" stroke="black" points="225.21,-224.65 235.57,-226.89 228.87,-218.68 225.21,-224.65"/>
</g>
<!-- RangedLotCategory&#45;&gt;Role -->
<g id="edge3" class="edge">
<title>RangedLotCategory&#45;&gt;Role</title>
<path fill="none" stroke="black" d="M150.48,-154.94C176.59,-163.13 206.76,-172.59 229.69,-179.79"/>
<polygon fill="black" stroke="black" points="228.77,-183.17 239.36,-182.82 230.86,-176.49 228.77,-183.17"/>
</g>
<!-- RangedLotCategory&#45;&gt;VerifierRole -->
<g id="edge4" class="edge">
<title>RangedLotCategory&#45;&gt;VerifierRole</title>
<path fill="none" stroke="black" d="M185.51,-137.11C195.63,-137.11 205.65,-137.11 215,-137.11"/>
<polygon fill="black" stroke="black" points="215.24,-140.61 225.24,-137.11 215.24,-133.61 215.24,-140.61"/>
</g>
<!-- RangedLotCategory&#45;&gt;Creator -->
<g id="edge6" class="edge">
<title>RangedLotCategory&#45;&gt;Creator</title>
<path fill="none" stroke="black" stroke-dasharray="5,2" d="M166.24,-117.75C209.11,-105.77 264.23,-89.4 312.28,-72.11 324.23,-67.81 337.17,-62.44 348.23,-57.63"/>
<polygon fill="black" stroke="black" points="165.15,-114.42 156.45,-120.47 167.02,-121.17 165.15,-114.42"/>
</g>
<!-- RangedLotCategory&#45;&gt;Project -->
<g id="edge7" class="edge">
<title>RangedLotCategory&#45;&gt;Project</title>
<path fill="none" stroke="black" stroke-dasharray="5,2" d="M142.6,-110.94C173.98,-94.17 213.5,-73.05 239.19,-59.32"/>
<polygon fill="black" stroke="black" points="140.73,-107.97 133.57,-115.77 144.03,-114.14 140.73,-107.97"/>
</g>
<!-- RangedLotCategory&#45;&gt;Updater -->
<g id="edge8" class="edge">
<title>RangedLotCategory&#45;&gt;Updater</title>
<path fill="none" stroke="black" stroke-dasharray="5,2" d="M115.31,-106.56C137.94,-77.54 176.38,-35.79 221.28,-18.11 297.37,11.86 325.08,-2.11 405.28,-18.11 417.38,-20.52 430.05,-25.23 440.96,-30.06"/>
<polygon fill="black" stroke="black" points="112.35,-104.67 109.07,-114.74 117.92,-108.91 112.35,-104.67"/>
</g>
<!-- Role&#45;&gt;Verifier -->
<!-- VerifierRole&#45;&gt;Verifier -->
<g id="edge5" class="edge">
<title>VerifierRole&#45;&gt;Verifier</title>
<path fill="none" stroke="black" d="M308.3,-147.24C318.16,-149.71 328.67,-152.33 338.38,-154.76"/>
<polygon fill="black" stroke="black" points="337.6,-158.17 348.15,-157.2 339.3,-151.38 337.6,-158.17"/>
</g>
<!-- Creator&#45;&gt;Updater -->
<!-- Project&#45;&gt;Creator -->
<!-- RangedLotCategory -->
<g id="node1" class="node">
<title>RangedLotCategory</title>
<g id="a_node1"><a xlink:href="/develop/Data/models.html#ranged-lot-category" xlink:title="RangedLotCategory" target="_top">
<polygon fill="#cdefab" stroke="#dedede" points="181.41,-129.65 181.41,-144.56 129.41,-155.11 55.87,-155.11 3.87,-144.56 3.87,-129.65 55.87,-119.11 129.41,-119.11 181.41,-129.65"/>
<polygon fill="none" stroke="#dedede" points="185.42,-126.38 185.42,-147.83 129.81,-159.11 55.47,-159.11 -0.14,-147.83 -0.14,-126.38 55.47,-115.11 129.81,-115.11 185.42,-126.38"/>
<text text-anchor="middle" x="92.64" y="-133.41" font-family="Times,serif" font-size="14.00">RangedLotCategory</text>
</a>
</g>
</g>
<!-- PinboardItem -->
<g id="node2" class="node">
<title>PinboardItem</title>
<g id="a_node2"><a xlink:href="/develop/Data/models.html#pinboard-item" xlink:title="PinboardItem" target="_top">
<polygon fill="#eeefff" stroke="#dddeee" points="312.28,-317.11 221.28,-317.11 221.28,-281.11 312.28,-281.11 312.28,-317.11"/>
<text text-anchor="middle" x="266.78" y="-295.41" font-family="Times,serif" font-size="14.00">PinboardItem</text>
</a>
</g>
</g>
<!-- RangedLot -->
<g id="node3" class="node">
<title>RangedLot</title>
<g id="a_node3"><a xlink:href="/develop/Data/models.html#ranged-lot" xlink:title="RangedLot" target="_top">
<polygon fill="#eeefff" stroke="#dddeee" points="305.28,-263.11 228.28,-263.11 228.28,-227.11 305.28,-227.11 305.28,-263.11"/>
<text text-anchor="middle" x="266.78" y="-241.41" font-family="Times,serif" font-size="14.00">RangedLot</text>
</a>
</g>
</g>
<!-- Role -->
<g id="node4" class="node">
<title>Role</title>
<g id="a_node4"><a xlink:href="/develop/Data/models.html#role" xlink:title="Role" target="_top">
<polygon fill="#eeefff" stroke="#dddeee" points="293.78,-209.11 239.78,-209.11 239.78,-173.11 293.78,-173.11 293.78,-209.11"/>
<text text-anchor="middle" x="266.78" y="-187.41" font-family="Times,serif" font-size="14.00">Role</text>
</a>
</g>
</g>
<!-- VerifierRole -->
<g id="node5" class="node">
<title>VerifierRole</title>
<g id="a_node5"><a xlink:href="/develop/Data/models.html#verifier-role" xlink:title="VerifierRole" target="_top">
<polygon fill="#eeefff" stroke="#dddeee" points="308.28,-155.11 225.28,-155.11 225.28,-119.11 308.28,-119.11 308.28,-155.11"/>
<text text-anchor="middle" x="266.78" y="-133.41" font-family="Times,serif" font-size="14.00">VerifierRole</text>
</a>
</g>
</g>
<!-- Verifier -->
<g id="node6" class="node">
<title>Verifier</title>
<g id="a_node6"><a xlink:href="/develop/Data/models.html#verifier" xlink:title="Verifier" target="_top">
<polygon fill="#eeefff" stroke="#dddeee" points="405.28,-182.11 348.28,-182.11 348.28,-146.11 405.28,-146.11 405.28,-182.11"/>
<text text-anchor="middle" x="376.78" y="-160.41" font-family="Times,serif" font-size="14.00">Verifier</text>
</a>
</g>
</g>
<!-- Creator -->
<g id="node7" class="node">
<title>Creator</title>
<g id="a_node7"><a xlink:href="/develop/Data/models.html#creator" xlink:title="Creator" target="_top">
<polygon fill="#eeefff" stroke="#dddeee" points="405.28,-63.11 348.28,-63.11 348.28,-27.11 405.28,-27.11 405.28,-63.11"/>
<text text-anchor="middle" x="376.78" y="-41.41" font-family="Times,serif" font-size="14.00">Creator</text>
</a>
</g>
</g>
<!-- Project -->
<g id="node8" class="node">
<title>Project</title>
<g id="a_node8"><a xlink:href="/develop/Data/models.html#project" xlink:title="Project" target="_top">
<polygon fill="#eeefff" stroke="#dddeee" points="294.28,-63.11 239.28,-63.11 239.28,-27.11 294.28,-27.11 294.28,-63.11"/>
<text text-anchor="middle" x="266.78" y="-41.41" font-family="Times,serif" font-size="14.00">Project</text>
</a>
</g>
</g>
<!-- Updater -->
<g id="node9" class="node">
<title>Updater</title>
<g id="a_node9"><a xlink:href="/develop/Data/models.html#updater" xlink:title="Updater" target="_top">
<polygon fill="#eeefff" stroke="#dddeee" points="501.28,-63.11 441.28,-63.11 441.28,-27.11 501.28,-27.11 501.28,-63.11"/>
<text text-anchor="middle" x="471.28" y="-41.41" font-family="Times,serif" font-size="14.00">Updater</text>
</a>
</g>
</g>
</g>
</svg>
