<?xml version="1.0" encoding="UTF-8" standalone="no"?>
<!DOCTYPE svg PUBLIC "-//W3C//DTD SVG 1.1//EN"
 "http://www.w3.org/Graphics/SVG/1.1/DTD/svg11.dtd">
<!-- Generated by graphviz version 2.50.0 (20211204.2007)
 -->
<!-- Title: Repository Pages: 1 -->
<svg width="646pt" height="379pt"
 viewBox="0.00 0.00 646.00 378.50" xmlns="http://www.w3.org/2000/svg" xmlns:xlink="http://www.w3.org/1999/xlink">
<g id="graph0" class="graph" transform="scale(1 1) rotate(0) translate(4 374.5)">
<title>Repository</title>
<polygon fill="white" stroke="transparent" points="-4,4 -4,-374.5 642,-374.5 642,4 -4,4"/>
<text text-anchor="middle" x="319" y="-22.8" font-family="Times,serif" font-size="14.00">Algorithmically generated relationships for Repository based on assertions of &#39;has_many&#39;, &#39;has_one&#39;, &#39;belongs_to&#39;. </text>
<text text-anchor="middle" x="319" y="-7.8" font-family="Times,serif" font-size="14.00">Generated 2022&#45;01&#45;25 11:38:25 &#45;0600.</text>
<!-- AlternateValue&#45;&gt;AlternateValueLanguage -->
<g id="edge1" class="edge">
<title>AlternateValue&#45;&gt;AlternateValueLanguage</title>
<path fill="none" stroke="black" d="M169.02,-326C177.29,-326 185.87,-326 194.43,-326"/>
<polygon fill="black" stroke="black" points="194.45,-329.5 204.45,-326 194.45,-322.5 194.45,-329.5"/>
</g>
<!-- Confidence&#45;&gt;ConfidenceLevel -->
<g id="edge4" class="edge">
<title>Confidence&#45;&gt;ConfidenceLevel</title>
<path fill="none" stroke="black" d="M156.09,-272C174.64,-272 195.92,-272 215.52,-272"/>
<polygon fill="black" stroke="black" points="215.58,-275.5 225.58,-272 215.58,-268.5 215.58,-275.5"/>
</g>
<!-- Tag&#45;&gt;Keyword -->
<g id="edge9" class="edge">
<title>Tag&#45;&gt;Keyword</title>
<path fill="none" stroke="black" d="M132.3,-56C159.89,-56 203.66,-56 236.26,-56"/>
<polygon fill="black" stroke="black" points="236.42,-59.5 246.42,-56 236.42,-52.5 236.42,-59.5"/>
</g>
<!-- Repository&#45;&gt;AlternateValue -->
<g id="edge2" class="edge">
<title>Repository&#45;&gt;AlternateValue</title>
<path fill="none" stroke="black" d="M249.02,-208.18C234.66,-218.14 217.81,-231.12 204.69,-245 184.88,-265.96 190.85,-280.53 168.69,-299 164.91,-302.15 160.7,-304.99 156.31,-307.54"/>
<polygon fill="black" stroke="black" points="154.34,-304.62 147.1,-312.36 157.59,-310.82 154.34,-304.62"/>
</g>
<!-- Repository&#45;&gt;Confidence -->
<g id="edge5" class="edge">
<title>Repository&#45;&gt;Confidence</title>
<path fill="none" stroke="black" d="M245.12,-206.96C223.41,-218.23 194.6,-232.87 168.69,-245 162.05,-248.11 154.96,-251.29 148.02,-254.33"/>
<polygon fill="black" stroke="black" points="146.49,-251.18 138.71,-258.37 149.28,-257.6 146.49,-251.18"/>
</g>
<!-- Repository&#45;&gt;DataAttribute -->
<g id="edge6" class="edge">
<title>Repository&#45;&gt;DataAttribute</title>
<path fill="none" stroke="black" d="M222.76,-198.45C205.11,-201.4 185.56,-204.68 167.58,-207.69"/>
<polygon fill="black" stroke="black" points="166.78,-204.27 157.5,-209.38 167.94,-211.18 166.78,-204.27"/>
</g>
<!-- Repository&#45;&gt;Identifier -->
<g id="edge8" class="edge">
<title>Repository&#45;&gt;Identifier</title>
<path fill="none" stroke="black" d="M222.58,-180.83C200.99,-177.71 176.57,-174.19 155.68,-171.17"/>
<polygon fill="black" stroke="black" points="156.13,-167.7 145.73,-169.74 155.13,-174.63 156.13,-167.7"/>
</g>
<!-- Repository&#45;&gt;Tag -->
<g id="edge13" class="edge">
<title>Repository&#45;&gt;Tag</title>
<path fill="none" stroke="black" d="M260.34,-166.68C239.73,-143.38 204.8,-106.95 168.69,-83 159.66,-77.01 149.07,-71.85 139.2,-67.69"/>
<polygon fill="black" stroke="black" points="140.23,-64.34 129.65,-63.88 137.64,-70.84 140.23,-64.34"/>
</g>
<!-- Repository&#45;&gt;Note -->
<g id="edge10" class="edge">
<title>Repository&#45;&gt;Note</title>
<path fill="none" stroke="black" d="M243,-171.6C221.5,-161.35 193.63,-148.23 168.69,-137 158.81,-132.55 147.98,-127.83 138.15,-123.6"/>
<polygon fill="black" stroke="black" points="139.29,-120.28 128.71,-119.57 136.53,-126.72 139.29,-120.28"/>
</g>
<!-- Repository&#45;&gt;CollectionObject -->
<g id="edge3" class="edge">
<title>Repository&#45;&gt;CollectionObject</title>
<path fill="none" stroke="black" d="M313.12,-207.8C327.54,-217.5 343.94,-230.37 355.69,-245 379.86,-275.08 365.17,-295.98 391.69,-324 392.88,-325.26 394.14,-326.47 395.46,-327.63"/>
<polygon fill="black" stroke="black" points="393.43,-330.49 403.48,-333.82 397.7,-324.94 393.43,-330.49"/>
</g>
<!-- Repository&#45;&gt;Extract -->
<g id="edge7" class="edge">
<title>Repository&#45;&gt;Extract</title>
<path fill="none" stroke="black" d="M308.3,-209.67C335.38,-230.17 375.27,-259.93 391.69,-270 397.17,-273.35 403.11,-276.66 408.97,-279.75"/>
<polygon fill="black" stroke="black" points="407.56,-282.95 418.05,-284.39 410.74,-276.72 407.56,-282.95"/>
</g>
<!-- Repository&#45;&gt;PinboardItem -->
<g id="edge11" class="edge">
<title>Repository&#45;&gt;PinboardItem</title>
<path fill="none" stroke="black" d="M325.58,-203.61C345.73,-210.25 369.76,-218.16 390.97,-225.15"/>
<polygon fill="black" stroke="black" points="389.9,-228.48 400.49,-228.28 392.09,-221.83 389.9,-228.48"/>
</g>
<!-- Repository&#45;&gt;Role -->
<g id="edge12" class="edge">
<title>Repository&#45;&gt;Role</title>
<path fill="none" stroke="black" d="M325.58,-174.39C351.75,-165.77 384.47,-155 409.06,-146.9"/>
<polygon fill="black" stroke="black" points="410.32,-150.17 418.73,-143.71 408.13,-143.52 410.32,-150.17"/>
</g>
<!-- Repository&#45;&gt;VerifierRole -->
<g id="edge14" class="edge">
<title>Repository&#45;&gt;VerifierRole</title>
<path fill="none" stroke="black" d="M337.63,-189C356.08,-189 376.44,-189 394.43,-189"/>
<polygon fill="black" stroke="black" points="394.44,-192.5 404.44,-189 394.44,-185.5 394.44,-192.5"/>
</g>
<!-- Repository&#45;&gt;Creator -->
<g id="edge16" class="edge">
<title>Repository&#45;&gt;Creator</title>
<path fill="none" stroke="black" stroke-dasharray="5,2" d="M315.24,-161.78C336.58,-145.29 365.02,-124.35 391.69,-108 399.85,-103 409.06,-98.1 417.5,-93.89"/>
<polygon fill="black" stroke="black" points="312.87,-159.18 307.13,-168.09 317.17,-164.7 312.87,-159.18"/>
</g>
<!-- Repository&#45;&gt;Updater -->
<g id="edge17" class="edge">
<title>Repository&#45;&gt;Updater</title>
<path fill="none" stroke="black" stroke-dasharray="5,2" d="M301.39,-158.66C326.27,-122.39 368.13,-65.16 391.69,-54 438.94,-31.62 500.7,-51.18 536.51,-66.64"/>
<polygon fill="black" stroke="black" points="298.48,-156.71 295.75,-166.94 304.27,-160.65 298.48,-156.71"/>
</g>
<!-- Role&#45;&gt;Verifier -->
<!-- VerifierRole&#45;&gt;Verifier -->
<g id="edge15" class="edge">
<title>VerifierRole&#45;&gt;Verifier</title>
<path fill="none" stroke="black" d="M487.98,-179.71C500.97,-176.75 515.28,-173.49 528.05,-170.58"/>
<polygon fill="black" stroke="black" points="528.92,-173.97 537.89,-168.33 527.37,-167.14 528.92,-173.97"/>
</g>
<!-- Creator&#45;&gt;Updater -->
<!-- AlternateValue -->
<g id="node1" class="node">
<title>AlternateValue</title>
<g id="a_node1"><a xlink:href="/develop/Data/models.html#alternate-value" xlink:title="AlternateValue" target="_top">
<ellipse fill="#abcdef" stroke="#dddeee" cx="105" cy="-326" rx="63.89" ry="18"/>
<text text-anchor="middle" x="105" y="-322.3" font-family="Times,serif" font-size="14.00">AlternateValue</text>
</a>
</g>
</g>
<!-- Confidence -->
<g id="node2" class="node">
<title>Confidence</title>
<g id="a_node2"><a xlink:href="/develop/Data/models.html#confidence" xlink:title="Confidence" target="_top">
<ellipse fill="#abcdef" stroke="#dddeee" cx="105" cy="-272" rx="50.89" ry="18"/>
<text text-anchor="middle" x="105" y="-268.3" font-family="Times,serif" font-size="14.00">Confidence</text>
</a>
</g>
</g>
<!-- DataAttribute -->
<g id="node3" class="node">
<title>DataAttribute</title>
<g id="a_node3"><a xlink:href="/develop/Data/models.html#data-attribute" xlink:title="DataAttribute" target="_top">
<ellipse fill="#abcdef" stroke="#dddeee" cx="105" cy="-218" rx="59.29" ry="18"/>
<text text-anchor="middle" x="105" y="-214.3" font-family="Times,serif" font-size="14.00">DataAttribute</text>
</a>
</g>
</g>
<!-- Identifier -->
<g id="node4" class="node">
<title>Identifier</title>
<g id="a_node4"><a xlink:href="/develop/Data/models.html#identifier" xlink:title="Identifier" target="_top">
<ellipse fill="#abcdef" stroke="#dddeee" cx="105" cy="-164" rx="42.79" ry="18"/>
<text text-anchor="middle" x="105" y="-160.3" font-family="Times,serif" font-size="14.00">Identifier</text>
</a>
</g>
</g>
<!-- Tag -->
<g id="node5" class="node">
<title>Tag</title>
<g id="a_node5"><a xlink:href="/develop/Data/models.html#tag" xlink:title="Tag" target="_top">
<ellipse fill="#abcdef" stroke="#dddeee" cx="105" cy="-56" rx="27" ry="18"/>
<text text-anchor="middle" x="105" y="-52.3" font-family="Times,serif" font-size="14.00">Tag</text>
</a>
</g>
</g>
<!-- Note -->
<g id="node6" class="node">
<title>Note</title>
<g id="a_node6"><a xlink:href="/develop/Data/models.html#note" xlink:title="Note" target="_top">
<ellipse fill="#abcdef" stroke="#dddeee" cx="105" cy="-110" rx="27.9" ry="18"/>
<text text-anchor="middle" x="105" y="-106.3" font-family="Times,serif" font-size="14.00">Note</text>
</a>
</g>
</g>
<!-- CollectionObject -->
<g id="node7" class="node">
<title>CollectionObject</title>
<g id="a_node7"><a xlink:href="/develop/Data/models.html#collection-object" xlink:title="CollectionObject" target="_top">
<path fill="#fedcba" stroke="#dddeee" d="M403.69,-334C403.69,-334 488.69,-334 488.69,-334 494.69,-334 500.69,-340 500.69,-346 500.69,-346 500.69,-358 500.69,-358 500.69,-364 494.69,-370 488.69,-370 488.69,-370 403.69,-370 403.69,-370 397.69,-370 391.69,-364 391.69,-358 391.69,-358 391.69,-346 391.69,-346 391.69,-340 397.69,-334 403.69,-334"/>
<text text-anchor="middle" x="446.19" y="-348.3" font-family="Times,serif" font-size="14.00">CollectionObject</text>
</a>
</g>
</g>
<!-- Repository -->
<g id="node8" class="node">
<title>Repository</title>
<g id="a_node8"><a xlink:href="/develop/Data/models.html#repository" xlink:title="Repository" target="_top">
<polygon fill="#cdefab" stroke="#dedede" points="333.63,-181.54 333.63,-196.46 302.33,-207 258.06,-207 226.76,-196.46 226.76,-181.54 258.06,-171 302.33,-171 333.63,-181.54"/>
<polygon fill="none" stroke="#dedede" points="337.63,-178.67 337.63,-199.33 302.98,-211 257.41,-211 222.76,-199.33 222.76,-178.67 257.41,-167 302.98,-167 337.63,-178.67"/>
<text text-anchor="middle" x="280.19" y="-185.3" font-family="Times,serif" font-size="14.00">Repository</text>
</a>
</g>
</g>
<!-- AlternateValueLanguage -->
<g id="node9" class="node">
<title>AlternateValueLanguage</title>
<g id="a_node9"><a xlink:href="/develop/Data/models.html#alternate-value-language" xlink:title="AlternateValueLanguage" target="_top">
<polygon fill="#eeefff" stroke="#dddeee" points="355.69,-344 204.69,-344 204.69,-308 355.69,-308 355.69,-344"/>
<text text-anchor="middle" x="280.19" y="-322.3" font-family="Times,serif" font-size="14.00">AlternateValueLanguage</text>
</a>
</g>
</g>
<!-- ConfidenceLevel -->
<g id="node10" class="node">
<title>ConfidenceLevel</title>
<g id="a_node10"><a xlink:href="/develop/Data/models.html#confidence-level" xlink:title="ConfidenceLevel" target="_top">
<polygon fill="#eeefff" stroke="#dddeee" points="334.69,-290 225.69,-290 225.69,-254 334.69,-254 334.69,-290"/>
<text text-anchor="middle" x="280.19" y="-268.3" font-family="Times,serif" font-size="14.00">ConfidenceLevel</text>
</a>
</g>
</g>
<!-- Extract -->
<g id="node11" class="node">
<title>Extract</title>
<g id="a_node11"><a xlink:href="/develop/Data/models.html#extract" xlink:title="Extract" target="_top">
<polygon fill="#eeefff" stroke="#dddeee" points="474.19,-315 418.19,-315 418.19,-279 474.19,-279 474.19,-315"/>
<text text-anchor="middle" x="446.19" y="-293.3" font-family="Times,serif" font-size="14.00">Extract</text>
</a>
</g>
</g>
<!-- Keyword -->
<g id="node12" class="node">
<title>Keyword</title>
<g id="a_node12"><a xlink:href="/develop/Data/models.html#keyword" xlink:title="Keyword" target="_top">
<polygon fill="#eeefff" stroke="#dddeee" points="313.69,-74 246.69,-74 246.69,-38 313.69,-38 313.69,-74"/>
<text text-anchor="middle" x="280.19" y="-52.3" font-family="Times,serif" font-size="14.00">Keyword</text>
</a>
</g>
</g>
<!-- PinboardItem -->
<g id="node13" class="node">
<title>PinboardItem</title>
<g id="a_node13"><a xlink:href="/develop/Data/models.html#pinboard-item" xlink:title="PinboardItem" target="_top">
<polygon fill="#eeefff" stroke="#dddeee" points="491.69,-261 400.69,-261 400.69,-225 491.69,-225 491.69,-261"/>
<text text-anchor="middle" x="446.19" y="-239.3" font-family="Times,serif" font-size="14.00">PinboardItem</text>
</a>
</g>
</g>
<!-- Role -->
<g id="node14" class="node">
<title>Role</title>
<g id="a_node14"><a xlink:href="/develop/Data/models.html#role" xlink:title="Role" target="_top">
<polygon fill="#eeefff" stroke="#dddeee" points="473.19,-153 419.19,-153 419.19,-117 473.19,-117 473.19,-153"/>
<text text-anchor="middle" x="446.19" y="-131.3" font-family="Times,serif" font-size="14.00">Role</text>
</a>
</g>
</g>
<!-- VerifierRole -->
<g id="node15" class="node">
<title>VerifierRole</title>
<g id="a_node15"><a xlink:href="/develop/Data/models.html#verifier-role" xlink:title="VerifierRole" target="_top">
<polygon fill="#eeefff" stroke="#dddeee" points="487.69,-207 404.69,-207 404.69,-171 487.69,-171 487.69,-207"/>
<text text-anchor="middle" x="446.19" y="-185.3" font-family="Times,serif" font-size="14.00">VerifierRole</text>
</a>
</g>
</g>
<!-- Verifier -->
<g id="node16" class="node">
<title>Verifier</title>
<g id="a_node16"><a xlink:href="/develop/Data/models.html#verifier" xlink:title="Verifier" target="_top">
<polygon fill="#eeefff" stroke="#dddeee" points="595.19,-180 538.19,-180 538.19,-144 595.19,-144 595.19,-180"/>
<text text-anchor="middle" x="566.69" y="-158.3" font-family="Times,serif" font-size="14.00">Verifier</text>
</a>
</g>
</g>
<!-- Creator -->
<g id="node17" class="node">
<title>Creator</title>
<g id="a_node17"><a xlink:href="/develop/Data/models.html#creator" xlink:title="Creator" target="_top">
<polygon fill="#eeefff" stroke="#dddeee" points="474.69,-99 417.69,-99 417.69,-63 474.69,-63 474.69,-99"/>
<text text-anchor="middle" x="446.19" y="-77.3" font-family="Times,serif" font-size="14.00">Creator</text>
</a>
</g>
</g>
<!-- Updater -->
<g id="node18" class="node">
<title>Updater</title>
<g id="a_node18"><a xlink:href="/develop/Data/models.html#updater" xlink:title="Updater" target="_top">
<polygon fill="#eeefff" stroke="#dddeee" points="596.69,-99 536.69,-99 536.69,-63 596.69,-63 596.69,-99"/>
<text text-anchor="middle" x="566.69" y="-77.3" font-family="Times,serif" font-size="14.00">Updater</text>
</a>
</g>
</g>
</g>
</svg>
