<?xml version="1.0" encoding="UTF-8" standalone="no"?>
<!DOCTYPE svg PUBLIC "-//W3C//DTD SVG 1.1//EN"
 "http://www.w3.org/Graphics/SVG/1.1/DTD/svg11.dtd">
<!-- Generated by graphviz version 12.2.1 (20241206.2353)
 -->
<!-- Title: Repository Pages: 1 -->
<svg width="638pt" height="656pt"
 viewBox="0.00 0.00 638.39 656.00" xmlns="http://www.w3.org/2000/svg" xmlns:xlink="http://www.w3.org/1999/xlink">
<g id="graph0" class="graph" transform="scale(1 1) rotate(0) translate(4 652)">
<title>Repository</title>
<polygon fill="white" stroke="none" points="-4,4 -4,-652 634.39,-652 634.39,4 -4,4"/>
<!-- AlternateValue&#45;&gt;AlternateValueLanguage -->
<g id="edge1" class="edge">
<title>AlternateValue&#45;&gt;AlternateValueLanguage</title>
<path fill="none" stroke="black" stroke-dasharray="1,5" d="M132.48,-449.5C140.35,-449.5 148.48,-449.5 156.6,-449.5"/>
<polygon fill="black" stroke="black" points="156.51,-453 166.51,-449.5 156.51,-446 156.51,-453"/>
</g>
<!-- Confidence&#45;&gt;ConfidenceLevel -->
<g id="edge4" class="edge">
<title>Confidence&#45;&gt;ConfidenceLevel</title>
<path fill="none" stroke="black" stroke-dasharray="1,5" d="M119.8,-395.5C137.92,-395.5 158.44,-395.5 177.44,-395.5"/>
<polygon fill="black" stroke="black" points="177.22,-399 187.22,-395.5 177.22,-392 177.22,-399"/>
</g>
<!-- Tag&#45;&gt;Keyword -->
<g id="edge12" class="edge">
<title>Tag&#45;&gt;Keyword</title>
<path fill="none" stroke="black" stroke-dasharray="1,5" d="M93.44,-179.5C121.3,-179.5 165.78,-179.5 198.91,-179.5"/>
<polygon fill="black" stroke="black" points="198.6,-183 208.6,-179.5 198.6,-176 198.6,-183"/>
</g>
<!-- Repository&#45;&gt;AlternateValue -->
<g id="edge2" class="edge">
<title>Repository&#45;&gt;AlternateValue</title>
<path fill="none" stroke="black" d="M211.77,-332.22C197.64,-342.12 181.22,-354.89 168.39,-368.5 148.6,-389.49 154.68,-404.19 132.39,-422.5 128.77,-425.48 124.77,-428.17 120.6,-430.59"/>
<polygon fill="black" stroke="black" points="119.23,-427.36 111.96,-435.07 122.45,-433.57 119.23,-427.36"/>
</g>
<!-- Repository&#45;&gt;Confidence -->
<g id="edge5" class="edge">
<title>Repository&#45;&gt;Confidence</title>
<path fill="none" stroke="black" d="M208.13,-330.86C186.58,-342.14 158.1,-356.66 132.39,-368.5 125.96,-371.46 119.12,-374.46 112.37,-377.33"/>
<polygon fill="black" stroke="black" points="111.19,-374.03 103.32,-381.12 113.89,-380.49 111.19,-374.03"/>
</g>
<!-- Repository&#45;&gt;DataAttribute -->
<g id="edge7" class="edge">
<title>Repository&#45;&gt;DataAttribute</title>
<path fill="none" stroke="black" d="M183.49,-322.27C166.71,-325.04 148.35,-328.08 131.27,-330.9"/>
<polygon fill="black" stroke="black" points="131.06,-327.39 121.76,-332.48 132.2,-334.3 131.06,-327.39"/>
</g>
<!-- Repository&#45;&gt;Identifier -->
<g id="edge9" class="edge">
<title>Repository&#45;&gt;Identifier</title>
<path fill="none" stroke="black" d="M183.63,-304.11C163.23,-301.2 140.49,-297.96 120.56,-295.11"/>
<polygon fill="black" stroke="black" points="121.08,-291.65 110.69,-293.71 120.09,-298.58 121.08,-291.65"/>
</g>
<!-- Repository&#45;&gt;Tag -->
<g id="edge16" class="edge">
<title>Repository&#45;&gt;Tag</title>
<path fill="none" stroke="black" d="M223.8,-290.08C203.33,-266.69 168.58,-230.19 132.39,-206.5 123.05,-200.4 112.11,-195.22 101.88,-191.08"/>
<polygon fill="black" stroke="black" points="103.19,-187.83 92.59,-187.54 100.69,-194.37 103.19,-187.83"/>
</g>
<!-- Repository&#45;&gt;Note -->
<g id="edge13" class="edge">
<title>Repository&#45;&gt;Note</title>
<path fill="none" stroke="black" d="M205.76,-294.6C184.45,-284.36 157.04,-271.42 132.39,-260.5 122.43,-256.1 111.54,-251.5 101.55,-247.37"/>
<polygon fill="black" stroke="black" points="103.14,-244.23 92.55,-243.68 100.48,-250.71 103.14,-244.23"/>
</g>
<!-- Repository&#45;&gt;CollectionObject -->
<g id="edge3" class="edge">
<title>Repository&#45;&gt;CollectionObject</title>
<path fill="none" stroke="black" d="M279.31,-330.76C293.75,-340.11 309.29,-352.86 318.64,-368.5 372.38,-458.46 288.7,-520.07 354.64,-601.5 357.69,-605.28 361.31,-608.54 365.29,-611.37"/>
<polygon fill="black" stroke="black" points="363.41,-614.32 373.8,-616.42 366.98,-608.3 363.41,-614.32"/>
</g>
<!-- Repository&#45;&gt;CurrentCollectionObject -->
<g id="edge6" class="edge">
<title>Repository&#45;&gt;CurrentCollectionObject</title>
<path fill="none" stroke="black" d="M278.98,-330.96C293.36,-340.35 308.94,-353.07 318.64,-368.5 361.82,-437.21 301.79,-485.92 354.64,-547.5 354.9,-547.8 355.16,-548.1 355.42,-548.4"/>
<polygon fill="black" stroke="black" points="353.07,-550.99 362.87,-555.02 357.73,-545.76 353.07,-550.99"/>
</g>
<!-- Repository&#45;&gt;Extract -->
<g id="edge8" class="edge">
<title>Repository&#45;&gt;Extract</title>
<path fill="none" stroke="black" d="M278.4,-331.34C292.66,-340.81 308.32,-353.48 318.64,-368.5 351.38,-416.15 315.22,-451.21 354.64,-493.5 364.06,-503.61 377.57,-509.95 390.47,-513.91"/>
<polygon fill="black" stroke="black" points="389.49,-517.28 400.05,-516.44 391.28,-510.51 389.49,-517.28"/>
</g>
<!-- Repository&#45;&gt;ImportAttribute -->
<g id="edge10" class="edge">
<title>Repository&#45;&gt;ImportAttribute</title>
<path fill="none" stroke="black" d="M276.37,-331.81C290.57,-341.53 306.74,-354.28 318.64,-368.5 341.34,-395.64 328.18,-416.01 354.64,-439.5 358.63,-443.05 363.13,-446.15 367.89,-448.84"/>
<polygon fill="black" stroke="black" points="366.07,-451.85 376.58,-453.16 369.18,-445.58 366.07,-451.85"/>
</g>
<!-- Repository&#45;&gt;InternalAttribute -->
<g id="edge11" class="edge">
<title>Repository&#45;&gt;InternalAttribute</title>
<path fill="none" stroke="black" d="M271.93,-333.31C293.57,-349.07 324.96,-370.5 354.64,-385.5 358.09,-387.25 361.68,-388.94 365.34,-390.56"/>
<polygon fill="black" stroke="black" points="363.8,-393.71 374.37,-394.38 366.52,-387.26 363.8,-393.71"/>
</g>
<!-- Repository&#45;&gt;PinboardItem -->
<g id="edge14" class="edge">
<title>Repository&#45;&gt;PinboardItem</title>
<path fill="none" stroke="black" d="M303.34,-312.61C356.34,-313.69 436.13,-317.79 504.14,-331.5 512.34,-333.16 520.87,-335.42 529.16,-337.92"/>
<polygon fill="black" stroke="black" points="527.85,-341.18 538.44,-340.88 529.98,-334.51 527.85,-341.18"/>
</g>
<!-- Repository&#45;&gt;Role -->
<g id="edge15" class="edge">
<title>Repository&#45;&gt;Role</title>
<path fill="none" stroke="black" d="M271.93,-291.7C293.57,-275.94 324.96,-254.51 354.64,-239.5 366.28,-233.62 379.53,-228.36 391.55,-224.08"/>
<polygon fill="black" stroke="black" points="392.41,-227.48 400.73,-220.93 390.14,-220.86 392.41,-227.48"/>
</g>
<!-- Repository&#45;&gt;Uri -->
<g id="edge17" class="edge">
<title>Repository&#45;&gt;Uri</title>
<path fill="none" stroke="black" d="M258.63,-290.15C277.39,-262.09 313.07,-214.17 354.64,-185.5 365.55,-177.98 378.81,-172.27 391.07,-168.09"/>
<polygon fill="black" stroke="black" points="392.01,-171.47 400.5,-165.13 389.91,-164.79 392.01,-171.47"/>
</g>
<!-- Repository&#45;&gt;Uuid -->
<g id="edge18" class="edge">
<title>Repository&#45;&gt;Uuid</title>
<path fill="none" stroke="black" d="M261.82,-290.06C277.61,-269.08 301.08,-236.56 318.64,-206.5 337.29,-174.58 327.26,-156.36 354.64,-131.5 364.79,-122.29 378.34,-116.15 391.06,-112.09"/>
<polygon fill="black" stroke="black" points="391.78,-115.52 400.46,-109.44 389.88,-108.78 391.78,-115.52"/>
</g>
<!-- Repository&#45;&gt;VerifierRole -->
<g id="edge19" class="edge">
<title>Repository&#45;&gt;VerifierRole</title>
<path fill="none" stroke="black" d="M296.22,-299.57C321.28,-293.3 351.3,-285.79 376.39,-279.51"/>
<polygon fill="black" stroke="black" points="377.22,-282.91 386.07,-277.09 375.52,-276.12 377.22,-282.91"/>
</g>
<!-- Repository&#45;&gt;Version -->
<g id="edge21" class="edge">
<title>Repository&#45;&gt;Version</title>
<path fill="none" stroke="black" d="M296.22,-325.44C325.78,-332.83 362.24,-341.96 389.38,-348.75"/>
<polygon fill="black" stroke="black" points="388.37,-352.1 398.92,-351.13 390.07,-345.31 388.37,-352.1"/>
</g>
<!-- Repository&#45;&gt;Creator -->
<g id="edge22" class="edge">
<title>Repository&#45;&gt;Creator</title>
<path fill="none" stroke="black" stroke-dasharray="5,2" d="M270.38,-281.56C286.21,-261.29 305.83,-233.62 318.64,-206.5 344.06,-152.68 314.24,-121.22 354.64,-77.5 366.58,-64.59 385.21,-57.83 400.76,-54.31"/>
<polygon fill="black" stroke="black" points="267.83,-279.13 264.35,-289.14 273.31,-283.49 267.83,-279.13"/>
</g>
<!-- Repository&#45;&gt;Updater -->
<g id="edge23" class="edge">
<title>Repository&#45;&gt;Updater</title>
<path fill="none" stroke="black" stroke-dasharray="5,2" d="M271.42,-281.5C287.49,-261.39 306.97,-233.92 318.64,-206.5 351.09,-130.23 290.62,-76.16 354.64,-23.5 412.3,23.92 507.39,-11.82 555.08,-34.91"/>
<polygon fill="black" stroke="black" points="268.9,-279.06 265.28,-289.02 274.32,-283.49 268.9,-279.06"/>
</g>
<!-- Role&#45;&gt;Verifier -->
<!-- VerifierRole&#45;&gt;Verifier -->
<g id="edge20" class="edge">
<title>VerifierRole&#45;&gt;Verifier</title>
<path fill="none" stroke="black" stroke-dasharray="1,5" d="M471.22,-259.34C494.12,-255.32 522.53,-250.34 545.15,-246.37"/>
<polygon fill="black" stroke="black" points="545.65,-249.83 554.89,-244.66 544.44,-242.94 545.65,-249.83"/>
</g>
<!-- Version&#45;&gt;PinboardItem -->
<!-- Creator&#45;&gt;Updater -->
<!-- AlternateValue -->
<g id="node1" class="node">
<title>AlternateValue</title>
<g id="a_node1"><a xlink:href="/develop/Data/models.html#alternate-value" xlink:title="AlternateValue" target="_top">
<ellipse fill="#abcdef" stroke="#dddeee" cx="66.19" cy="-449.5" rx="66.19" ry="18"/>
<text text-anchor="middle" x="66.19" y="-444.45" font-family="Times,serif" font-size="14.00">AlternateValue</text>
</a>
</g>
</g>
<!-- Confidence -->
<g id="node2" class="node">
<title>Confidence</title>
<g id="a_node2"><a xlink:href="/develop/Data/models.html#confidence" xlink:title="Confidence" target="_top">
<ellipse fill="#abcdef" stroke="#dddeee" cx="66.19" cy="-395.5" rx="53.4" ry="18"/>
<text text-anchor="middle" x="66.19" y="-390.45" font-family="Times,serif" font-size="14.00">Confidence</text>
</a>
</g>
</g>
<!-- DataAttribute -->
<g id="node3" class="node">
<title>DataAttribute</title>
<g id="a_node3"><a xlink:href="/develop/Data/models.html#data-attribute" xlink:title="DataAttribute" target="_top">
<ellipse fill="#abcdef" stroke="#dddeee" cx="66.19" cy="-341.5" rx="61.59" ry="18"/>
<text text-anchor="middle" x="66.19" y="-336.45" font-family="Times,serif" font-size="14.00">DataAttribute</text>
</a>
</g>
</g>
<!-- Identifier -->
<g id="node4" class="node">
<title>Identifier</title>
<g id="a_node4"><a xlink:href="/develop/Data/models.html#identifier" xlink:title="Identifier" target="_top">
<ellipse fill="#abcdef" stroke="#dddeee" cx="66.19" cy="-287.5" rx="45.21" ry="18"/>
<text text-anchor="middle" x="66.19" y="-282.45" font-family="Times,serif" font-size="14.00">Identifier</text>
</a>
</g>
</g>
<!-- Tag -->
<g id="node5" class="node">
<title>Tag</title>
<g id="a_node5"><a xlink:href="/develop/Data/models.html#tag" xlink:title="Tag" target="_top">
<ellipse fill="#abcdef" stroke="#dddeee" cx="66.19" cy="-179.5" rx="27" ry="18"/>
<text text-anchor="middle" x="66.19" y="-174.45" font-family="Times,serif" font-size="14.00">Tag</text>
</a>
</g>
</g>
<!-- Note -->
<g id="node6" class="node">
<title>Note</title>
<g id="a_node6"><a xlink:href="/develop/Data/models.html#note" xlink:title="Note" target="_top">
<ellipse fill="#abcdef" stroke="#dddeee" cx="66.19" cy="-233.5" rx="28.83" ry="18"/>
<text text-anchor="middle" x="66.19" y="-228.45" font-family="Times,serif" font-size="14.00">Note</text>
</a>
</g>
</g>
<!-- CollectionObject -->
<g id="node7" class="node">
<title>CollectionObject</title>
<g id="a_node7"><a xlink:href="/develop/Data/models.html#collection-object" xlink:title="CollectionObject" target="_top">
<path fill="#fedcba" stroke="#dddeee" d="M387.26,-611.5C387.26,-611.5 471.51,-611.5 471.51,-611.5 477.51,-611.5 483.51,-617.5 483.51,-623.5 483.51,-623.5 483.51,-635.5 483.51,-635.5 483.51,-641.5 477.51,-647.5 471.51,-647.5 471.51,-647.5 387.26,-647.5 387.26,-647.5 381.26,-647.5 375.26,-641.5 375.26,-635.5 375.26,-635.5 375.26,-623.5 375.26,-623.5 375.26,-617.5 381.26,-611.5 387.26,-611.5"/>
<text text-anchor="middle" x="429.39" y="-624.7" font-family="Times,serif" font-size="14.00">CollectionObject</text>
</a>
</g>
</g>
<!-- Repository -->
<g id="node8" class="node">
<title>Repository</title>
<g id="a_node8"><a xlink:href="/develop/Data/models.html#repository" xlink:title="Repository" target="_top">
<polygon fill="#cdefab" stroke="#dedede" points="299.1,-305.05 299.1,-319.96 266.54,-330.5 220.49,-330.5 187.93,-319.96 187.93,-305.05 220.49,-294.5 266.54,-294.5 299.1,-305.05"/>
<polygon fill="none" stroke="#dedede" points="303.1,-302.14 303.1,-322.87 267.17,-334.5 219.86,-334.5 183.93,-322.87 183.93,-302.14 219.86,-290.5 267.17,-290.5 303.1,-302.14"/>
<text text-anchor="middle" x="243.51" y="-307.45" font-family="Times,serif" font-size="14.00">Repository</text>
</a>
</g>
</g>
<!-- AlternateValueLanguage -->
<g id="node9" class="node">
<title>AlternateValueLanguage</title>
<g id="a_node9"><a xlink:href="/develop/Data/models.html#alternate-value-language" xlink:title="AlternateValueLanguage" target="_top">
<polygon fill="#eeefff" stroke="#dddeee" points="318.64,-467.5 168.39,-467.5 168.39,-431.5 318.64,-431.5 318.64,-467.5"/>
<text text-anchor="middle" x="243.51" y="-444.45" font-family="Times,serif" font-size="14.00">AlternateValueLanguage</text>
</a>
</g>
</g>
<!-- ConfidenceLevel -->
<g id="node10" class="node">
<title>ConfidenceLevel</title>
<g id="a_node10"><a xlink:href="/develop/Data/models.html#confidence-level" xlink:title="ConfidenceLevel" target="_top">
<polygon fill="#eeefff" stroke="#dddeee" points="298.01,-413.5 189.01,-413.5 189.01,-377.5 298.01,-377.5 298.01,-413.5"/>
<text text-anchor="middle" x="243.51" y="-390.45" font-family="Times,serif" font-size="14.00">ConfidenceLevel</text>
</a>
</g>
</g>
<!-- CurrentCollectionObject -->
<g id="node11" class="node">
<title>CurrentCollectionObject</title>
<g id="a_node11"><a xlink:href="/develop/Data/models.html#current-collection-object" xlink:title="CurrentCollectionObject" target="_top">
<polygon fill="#eeefff" stroke="#dddeee" points="504.14,-592.5 354.64,-592.5 354.64,-556.5 504.14,-556.5 504.14,-592.5"/>
<text text-anchor="middle" x="429.39" y="-569.45" font-family="Times,serif" font-size="14.00">CurrentCollectionObject</text>
</a>
</g>
</g>
<!-- Extract -->
<g id="node12" class="node">
<title>Extract</title>
<g id="a_node12"><a xlink:href="/develop/Data/models.html#extract" xlink:title="Extract" target="_top">
<polygon fill="#eeefff" stroke="#dddeee" points="456.89,-538.5 401.89,-538.5 401.89,-502.5 456.89,-502.5 456.89,-538.5"/>
<text text-anchor="middle" x="429.39" y="-515.45" font-family="Times,serif" font-size="14.00">Extract</text>
</a>
</g>
</g>
<!-- ImportAttribute -->
<g id="node13" class="node">
<title>ImportAttribute</title>
<g id="a_node13"><a xlink:href="/develop/Data/models.html#import-attribute" xlink:title="ImportAttribute" target="_top">
<polygon fill="#eeefff" stroke="#dddeee" points="480.51,-484.5 378.26,-484.5 378.26,-448.5 480.51,-448.5 480.51,-484.5"/>
<text text-anchor="middle" x="429.39" y="-461.45" font-family="Times,serif" font-size="14.00">ImportAttribute</text>
</a>
</g>
</g>
<!-- InternalAttribute -->
<g id="node14" class="node">
<title>InternalAttribute</title>
<g id="a_node14"><a xlink:href="/develop/Data/models.html#internal-attribute" xlink:title="InternalAttribute" target="_top">
<polygon fill="#eeefff" stroke="#dddeee" points="482.76,-430.5 376.01,-430.5 376.01,-394.5 482.76,-394.5 482.76,-430.5"/>
<text text-anchor="middle" x="429.39" y="-407.45" font-family="Times,serif" font-size="14.00">InternalAttribute</text>
</a>
</g>
</g>
<!-- Keyword -->
<g id="node15" class="node">
<title>Keyword</title>
<g id="a_node15"><a xlink:href="/develop/Data/models.html#keyword" xlink:title="Keyword" target="_top">
<polygon fill="#eeefff" stroke="#dddeee" points="276.64,-197.5 210.39,-197.5 210.39,-161.5 276.64,-161.5 276.64,-197.5"/>
<text text-anchor="middle" x="243.51" y="-174.45" font-family="Times,serif" font-size="14.00">Keyword</text>
</a>
</g>
</g>
<!-- PinboardItem -->
<g id="node16" class="node">
<title>PinboardItem</title>
<g id="a_node16"><a xlink:href="/develop/Data/models.html#pinboard-item" xlink:title="PinboardItem" target="_top">
<polygon fill="#eeefff" stroke="#dddeee" points="630.39,-376.5 540.14,-376.5 540.14,-340.5 630.39,-340.5 630.39,-376.5"/>
<text text-anchor="middle" x="585.26" y="-353.45" font-family="Times,serif" font-size="14.00">PinboardItem</text>
</a>
</g>
</g>
<!-- Role -->
<g id="node17" class="node">
<title>Role</title>
<g id="a_node17"><a xlink:href="/develop/Data/models.html#role" xlink:title="Role" target="_top">
<polygon fill="#eeefff" stroke="#dddeee" points="456.39,-230.5 402.39,-230.5 402.39,-194.5 456.39,-194.5 456.39,-230.5"/>
<text text-anchor="middle" x="429.39" y="-207.45" font-family="Times,serif" font-size="14.00">Role</text>
</a>
</g>
</g>
<!-- Uri -->
<g id="node18" class="node">
<title>Uri</title>
<g id="a_node18"><a xlink:href="/develop/Data/models.html#uri" xlink:title="Uri" target="_top">
<polygon fill="#eeefff" stroke="#dddeee" points="456.39,-176.5 402.39,-176.5 402.39,-140.5 456.39,-140.5 456.39,-176.5"/>
<text text-anchor="middle" x="429.39" y="-153.45" font-family="Times,serif" font-size="14.00">Uri</text>
</a>
</g>
</g>
<!-- Uuid -->
<g id="node19" class="node">
<title>Uuid</title>
<g id="a_node19"><a xlink:href="/develop/Data/models.html#uuid" xlink:title="Uuid" target="_top">
<polygon fill="#eeefff" stroke="#dddeee" points="456.39,-122.5 402.39,-122.5 402.39,-86.5 456.39,-86.5 456.39,-122.5"/>
<text text-anchor="middle" x="429.39" y="-99.45" font-family="Times,serif" font-size="14.00">Uuid</text>
</a>
</g>
</g>
<!-- VerifierRole -->
<g id="node20" class="node">
<title>VerifierRole</title>
<g id="a_node20"><a xlink:href="/develop/Data/models.html#verifier-role" xlink:title="VerifierRole" target="_top">
<polygon fill="#eeefff" stroke="#dddeee" points="470.76,-284.5 388.01,-284.5 388.01,-248.5 470.76,-248.5 470.76,-284.5"/>
<text text-anchor="middle" x="429.39" y="-261.45" font-family="Times,serif" font-size="14.00">VerifierRole</text>
</a>
</g>
</g>
<!-- Verifier -->
<g id="node21" class="node">
<title>Verifier</title>
<g id="a_node21"><a xlink:href="/develop/Data/models.html#verifier" xlink:title="Verifier" target="_top">
<polygon fill="#eeefff" stroke="#dddeee" points="613.89,-257.5 556.64,-257.5 556.64,-221.5 613.89,-221.5 613.89,-257.5"/>
<text text-anchor="middle" x="585.26" y="-234.45" font-family="Times,serif" font-size="14.00">Verifier</text>
</a>
</g>
</g>
<!-- Version -->
<g id="node22" class="node">
<title>Version</title>
<g id="a_node22"><a xlink:href="/develop/Data/models.html#version" xlink:title="Version" target="_top">
<polygon fill="#eeefff" stroke="#dddeee" points="458.01,-376.5 400.76,-376.5 400.76,-340.5 458.01,-340.5 458.01,-376.5"/>
<text text-anchor="middle" x="429.39" y="-353.45" font-family="Times,serif" font-size="14.00">Version</text>
</a>
</g>
</g>
<!-- Creator -->
<g id="node23" class="node">
<title>Creator</title>
<g id="a_node23"><a xlink:href="/develop/Data/models.html#creator" xlink:title="Creator" target="_top">
<polygon fill="#eeefff" stroke="#dddeee" points="457.64,-68.5 401.14,-68.5 401.14,-32.5 457.64,-32.5 457.64,-68.5"/>
<text text-anchor="middle" x="429.39" y="-45.45" font-family="Times,serif" font-size="14.00">Creator</text>
</a>
</g>
</g>
<!-- Updater -->
<g id="node24" class="node">
<title>Updater</title>
<g id="a_node24"><a xlink:href="/develop/Data/models.html#updater" xlink:title="Updater" target="_top">
<polygon fill="#eeefff" stroke="#dddeee" points="615.01,-68.5 555.51,-68.5 555.51,-32.5 615.01,-32.5 615.01,-68.5"/>
<text text-anchor="middle" x="585.26" y="-45.45" font-family="Times,serif" font-size="14.00">Updater</text>
</a>
</g>
</g>
</g>
</svg>
