<?xml version="1.0" encoding="UTF-8" standalone="no"?>
<!DOCTYPE svg PUBLIC "-//W3C//DTD SVG 1.1//EN"
 "http://www.w3.org/Graphics/SVG/1.1/DTD/svg11.dtd">
<!-- Generated by graphviz version 2.50.0 (20211204.2007)
 -->
<!-- Title: Role Pages: 1 -->
<svg width="612pt" height="428pt"
 viewBox="0.00 0.00 612.00 428.00" xmlns="http://www.w3.org/2000/svg" xmlns:xlink="http://www.w3.org/1999/xlink">
<g id="graph0" class="graph" transform="scale(1 1) rotate(0) translate(4 424)">
<title>Role</title>
<polygon fill="white" stroke="transparent" points="-4,4 -4,-424 608,-424 608,4 -4,4"/>
<text text-anchor="middle" x="302" y="-22.8" font-family="Times,serif" font-size="14.00">Algorithmically generated relationships for Role based on assertions of &#39;has_many&#39;, &#39;has_one&#39;, &#39;belongs_to&#39;. </text>
<text text-anchor="middle" x="302" y="-7.8" font-family="Times,serif" font-size="14.00">Generated 2022&#45;01&#45;25 11:37:08 &#45;0600.</text>
<!-- Role&#45;&gt;Role -->
<g id="edge2" class="edge">
<title>Role&#45;&gt;Role</title>
<path fill="none" stroke="black" d="M120.48,-244.19C110.3,-256.4 118.79,-269 145.94,-269 166.1,-269 175.97,-262.06 175.55,-253.49"/>
<polygon fill="black" stroke="black" points="178.67,-251.89 171.4,-244.19 172.28,-254.74 178.67,-251.89"/>
</g>
<!-- Role&#45;&gt;PinboardItem -->
<g id="edge1" class="edge">
<title>Role&#45;&gt;PinboardItem</title>
<path fill="none" stroke="black" d="M151.4,-251.24C158.96,-283.24 177.37,-342.03 215.49,-375 225.23,-383.42 237.53,-389.22 249.86,-393.21"/>
<polygon fill="black" stroke="black" points="249.13,-396.64 259.71,-396.03 251.06,-389.91 249.13,-396.64"/>
</g>
<!-- Role&#45;&gt;VerifierRole -->
<g id="edge3" class="edge">
<title>Role&#45;&gt;VerifierRole</title>
<path fill="none" stroke="black" d="M159.47,-251.19C171.53,-270.72 191.46,-298.69 215.49,-316 226.97,-324.27 240.8,-330.59 254.1,-335.35"/>
<polygon fill="black" stroke="black" points="253.06,-338.69 263.65,-338.54 255.28,-332.05 253.06,-338.69"/>
</g>
<!-- Role&#45;&gt;Verifier -->
<!-- Role&#45;&gt;Creator -->
<g id="edge5" class="edge">
<title>Role&#45;&gt;Creator</title>
<path fill="none" stroke="black" stroke-dasharray="5,2" d="M189.45,-236.28C217.25,-241.04 252.75,-247.13 276.93,-251.27"/>
<polygon fill="black" stroke="black" points="190.04,-232.83 179.6,-234.59 188.86,-239.73 190.04,-232.83"/>
</g>
<!-- Role&#45;&gt;Organization -->
<g id="edge6" class="edge">
<title>Role&#45;&gt;Organization</title>
<path fill="none" stroke="black" stroke-dasharray="5,2" d="M189.5,-221.71C211.91,-217.87 239.31,-213.18 261.75,-209.33"/>
<polygon fill="black" stroke="black" points="188.86,-218.27 179.6,-223.41 190.04,-225.17 188.86,-218.27"/>
</g>
<!-- Role&#45;&gt;Person -->
<g id="edge7" class="edge">
<title>Role&#45;&gt;Person</title>
<path fill="none" stroke="black" stroke-dasharray="5,2" d="M173.82,-204C185.85,-193.86 200.65,-182.74 215.49,-175 235.4,-164.61 259.94,-157.55 278.22,-153.26"/>
<polygon fill="black" stroke="black" points="171.23,-201.61 165.96,-210.81 175.81,-206.9 171.23,-201.61"/>
</g>
<!-- Role&#45;&gt;Updater -->
<g id="edge9" class="edge">
<title>Role&#45;&gt;Updater</title>
<path fill="none" stroke="black" stroke-dasharray="5,2" d="M157.3,-197.42C167.6,-171.71 186.15,-137.13 215.49,-121 285.64,-82.44 327.82,-78.41 395.61,-121 437.01,-147.02 452.66,-207.63 458.05,-237.99"/>
<polygon fill="black" stroke="black" points="154.02,-196.19 153.75,-206.78 160.57,-198.67 154.02,-196.19"/>
</g>
<!-- Role&#45;&gt;Objects with Roles -->
<g id="edge8" class="edge">
<title>Role&#45;&gt;Objects with Roles</title>
<path fill="none" stroke="black" stroke-dasharray="5,2" d="M154.77,-197.3C164.16,-165.54 182.87,-117.29 215.49,-88 224.66,-79.77 236.1,-73.61 247.69,-69.02"/>
<polygon fill="black" stroke="black" points="151.39,-196.41 152.04,-206.98 158.12,-198.3 151.39,-196.41"/>
</g>
<!-- VerifierRole&#45;&gt;Verifier -->
<g id="edge4" class="edge">
<title>VerifierRole&#45;&gt;Verifier</title>
<path fill="none" stroke="black" d="M347.43,-348C370.77,-348 399.85,-348 422.68,-348"/>
<polygon fill="black" stroke="black" points="422.69,-351.5 432.69,-348 422.69,-344.5 422.69,-351.5"/>
</g>
<!-- Creator&#45;&gt;Updater -->
<!-- Role -->
<g id="node1" class="node">
<title>Role</title>
<g id="a_node1"><a xlink:href="/develop/Data/models.html#role" xlink:title="Role" target="_top">
<polygon fill="#cdefab" stroke="#dedede" points="175.53,-221.54 175.53,-236.46 158.2,-247 133.69,-247 116.35,-236.46 116.35,-221.54 133.69,-211 158.2,-211 175.53,-221.54"/>
<polygon fill="none" stroke="#dedede" points="179.53,-219.3 179.53,-238.7 159.32,-251 132.56,-251 112.35,-238.7 112.35,-219.3 132.56,-207 159.32,-207 179.53,-219.3"/>
<text text-anchor="middle" x="145.94" y="-225.3" font-family="Times,serif" font-size="14.00">Role</text>
</a>
</g>
</g>
<!-- PinboardItem -->
<g id="node2" class="node">
<title>PinboardItem</title>
<g id="a_node2"><a xlink:href="/develop/Data/models.html#pinboard-item" xlink:title="PinboardItem" target="_top">
<polygon fill="#eeefff" stroke="#dddeee" points="351.05,-420 260.05,-420 260.05,-384 351.05,-384 351.05,-420"/>
<text text-anchor="middle" x="305.55" y="-398.3" font-family="Times,serif" font-size="14.00">PinboardItem</text>
</a>
</g>
</g>
<!-- VerifierRole -->
<g id="node3" class="node">
<title>VerifierRole</title>
<g id="a_node3"><a xlink:href="/develop/Data/models.html#verifier-role" xlink:title="VerifierRole" target="_top">
<polygon fill="#eeefff" stroke="#dddeee" points="347.05,-366 264.05,-366 264.05,-330 347.05,-330 347.05,-366"/>
<text text-anchor="middle" x="305.55" y="-344.3" font-family="Times,serif" font-size="14.00">VerifierRole</text>
</a>
</g>
</g>
<!-- Verifier -->
<g id="node4" class="node">
<title>Verifier</title>
<g id="a_node4"><a xlink:href="/develop/Data/models.html#verifier" xlink:title="Verifier" target="_top">
<polygon fill="#eeefff" stroke="#dddeee" points="490.11,-366 433.11,-366 433.11,-330 490.11,-330 490.11,-366"/>
<text text-anchor="middle" x="461.61" y="-344.3" font-family="Times,serif" font-size="14.00">Verifier</text>
</a>
</g>
</g>
<!-- Creator -->
<g id="node5" class="node">
<title>Creator</title>
<g id="a_node5"><a xlink:href="/develop/Data/models.html#creator" xlink:title="Creator" target="_top">
<polygon fill="#eeefff" stroke="#dddeee" points="334.05,-274 277.05,-274 277.05,-238 334.05,-238 334.05,-274"/>
<text text-anchor="middle" x="305.55" y="-252.3" font-family="Times,serif" font-size="14.00">Creator</text>
</a>
</g>
</g>
<!-- Organization -->
<g id="node6" class="node">
<title>Organization</title>
<g id="a_node6"><a xlink:href="/develop/Data/models.html#organization" xlink:title="Organization" target="_top">
<polygon fill="#eeefff" stroke="#dddeee" points="349.05,-220 262.05,-220 262.05,-184 349.05,-184 349.05,-220"/>
<text text-anchor="middle" x="305.55" y="-198.3" font-family="Times,serif" font-size="14.00">Organization</text>
</a>
</g>
</g>
<!-- Person -->
<g id="node7" class="node">
<title>Person</title>
<g id="a_node7"><a xlink:href="/develop/Data/models.html#person" xlink:title="Person" target="_top">
<polygon fill="#eeefff" stroke="#dddeee" points="332.55,-166 278.55,-166 278.55,-130 332.55,-130 332.55,-166"/>
<text text-anchor="middle" x="305.55" y="-144.3" font-family="Times,serif" font-size="14.00">Person</text>
</a>
</g>
</g>
<!-- Updater -->
<g id="node8" class="node">
<title>Updater</title>
<g id="a_node8"><a xlink:href="/develop/Data/models.html#updater" xlink:title="Updater" target="_top">
<polygon fill="#eeefff" stroke="#dddeee" points="491.61,-274 431.61,-274 431.61,-238 491.61,-238 491.61,-274"/>
<text text-anchor="middle" x="461.61" y="-252.3" font-family="Times,serif" font-size="14.00">Updater</text>
</a>
</g>
</g>
<!-- Objects with Roles -->
<g id="node9" class="node">
<title>Objects with Roles</title>
<g id="a_node9"><a xlink:href="/develop/Data/models.html#objects with role" xlink:title="Objects with Roles" target="_top">
<polygon fill="#cdabef" stroke="#dedede" points="395.66,-56 350.61,-74 260.49,-74 215.43,-56 260.49,-38 350.61,-38 395.66,-56"/>
<text text-anchor="middle" x="305.55" y="-52.3" font-family="Times,serif" font-size="14.00">Objects with Roles</text>
</a>
</g>
</g>
</g>
</svg>
