<?xml version="1.0" encoding="UTF-8" standalone="no"?>
<!DOCTYPE svg PUBLIC "-//W3C//DTD SVG 1.1//EN"
 "http://www.w3.org/Graphics/SVG/1.1/DTD/svg11.dtd">
<!-- Generated by graphviz version 2.50.0 (20211204.2007)
 -->
<!-- Title: Role Pages: 1 -->
<svg width="387pt" height="390pt"
 viewBox="0.00 0.00 387.21 390.00" xmlns="http://www.w3.org/2000/svg" xmlns:xlink="http://www.w3.org/1999/xlink">
<g id="graph0" class="graph" transform="scale(1 1) rotate(0) translate(4 386)">
<title>Role</title>
<polygon fill="white" stroke="transparent" points="-4,4 -4,-386 383.21,-386 383.21,4 -4,4"/>
<!-- Role&#45;&gt;Role -->
<g id="edge2" class="edge">
<title>Role&#45;&gt;Role</title>
<path fill="none" stroke="black" d="M8.09,-206.19C-2.1,-218.4 6.39,-231 33.55,-231 53.7,-231 63.57,-224.06 63.16,-215.49"/>
<polygon fill="black" stroke="black" points="66.28,-213.89 59.01,-206.19 59.89,-216.74 66.28,-213.89"/>
</g>
<!-- Role&#45;&gt;PinboardItem -->
<g id="edge1" class="edge">
<title>Role&#45;&gt;PinboardItem</title>
<path fill="none" stroke="black" d="M39,-213.24C46.57,-245.24 64.97,-304.03 103.09,-337 112.83,-345.42 125.14,-351.22 137.47,-355.21"/>
<polygon fill="black" stroke="black" points="136.74,-358.64 147.32,-358.03 138.67,-351.91 136.74,-358.64"/>
</g>
<!-- Role&#45;&gt;VerifierRole -->
<g id="edge3" class="edge">
<title>Role&#45;&gt;VerifierRole</title>
<path fill="none" stroke="black" d="M47.08,-213.19C59.14,-232.72 79.06,-260.69 103.09,-278 114.57,-286.27 128.4,-292.59 141.71,-297.35"/>
<polygon fill="black" stroke="black" points="140.67,-300.69 151.26,-300.54 142.88,-294.05 140.67,-300.69"/>
</g>
<!-- Role&#45;&gt;Verifier -->
<!-- Role&#45;&gt;Creator -->
<g id="edge5" class="edge">
<title>Role&#45;&gt;Creator</title>
<path fill="none" stroke="black" stroke-dasharray="5,2" d="M77.06,-198.28C104.86,-203.04 140.36,-209.13 164.53,-213.27"/>
<polygon fill="black" stroke="black" points="77.65,-194.83 67.2,-196.59 76.47,-201.73 77.65,-194.83"/>
</g>
<!-- Role&#45;&gt;Organization -->
<g id="edge6" class="edge">
<title>Role&#45;&gt;Organization</title>
<path fill="none" stroke="black" stroke-dasharray="5,2" d="M77.11,-183.71C99.52,-179.87 126.92,-175.18 149.36,-171.33"/>
<polygon fill="black" stroke="black" points="76.47,-180.27 67.2,-185.41 77.65,-187.17 76.47,-180.27"/>
</g>
<!-- Role&#45;&gt;Person -->
<g id="edge7" class="edge">
<title>Role&#45;&gt;Person</title>
<path fill="none" stroke="black" stroke-dasharray="5,2" d="M61.42,-166C73.45,-155.86 88.25,-144.74 103.09,-137 123,-126.61 147.55,-119.55 165.83,-115.26"/>
<polygon fill="black" stroke="black" points="58.83,-163.61 53.57,-172.81 63.42,-168.9 58.83,-163.61"/>
</g>
<!-- Role&#45;&gt;Updater -->
<g id="edge9" class="edge">
<title>Role&#45;&gt;Updater</title>
<path fill="none" stroke="black" stroke-dasharray="5,2" d="M44.9,-159.42C55.2,-133.71 73.76,-99.13 103.09,-83 173.24,-44.44 215.43,-40.41 283.21,-83 324.62,-109.02 340.26,-169.63 345.65,-199.99"/>
<polygon fill="black" stroke="black" points="41.63,-158.19 41.36,-168.78 48.17,-160.67 41.63,-158.19"/>
</g>
<!-- Role&#45;&gt;Objects with Roles -->
<g id="edge8" class="edge">
<title>Role&#45;&gt;Objects with Roles</title>
<path fill="none" stroke="black" stroke-dasharray="5,2" d="M42.38,-159.3C51.76,-127.54 70.47,-79.29 103.09,-50 112.26,-41.77 123.7,-35.61 135.3,-31.02"/>
<polygon fill="black" stroke="black" points="38.99,-158.41 39.65,-168.98 45.73,-160.3 38.99,-158.41"/>
</g>
<!-- VerifierRole&#45;&gt;Verifier -->
<g id="edge4" class="edge">
<title>VerifierRole&#45;&gt;Verifier</title>
<path fill="none" stroke="black" stroke-dasharray="1,5" d="M235.03,-310C258.38,-310 287.45,-310 310.29,-310"/>
<polygon fill="black" stroke="black" points="310.3,-313.5 320.3,-310 310.3,-306.5 310.3,-313.5"/>
</g>
<!-- Creator&#45;&gt;Updater -->
<!-- Role -->
<g id="node1" class="node">
<title>Role</title>
<g id="a_node1"><a xlink:href="/develop/Data/models.html#role" xlink:title="Role" target="_top">
<polygon fill="#cdefab" stroke="#dedede" points="63.13,-183.54 63.13,-198.46 45.8,-209 21.29,-209 3.96,-198.46 3.96,-183.54 21.29,-173 45.8,-173 63.13,-183.54"/>
<polygon fill="none" stroke="#dedede" points="67.14,-181.3 67.14,-200.7 46.93,-213 20.17,-213 -0.05,-200.7 -0.05,-181.3 20.17,-169 46.93,-169 67.14,-181.3"/>
<text text-anchor="middle" x="33.55" y="-187.3" font-family="Times,serif" font-size="14.00">Role</text>
</a>
</g>
</g>
<!-- PinboardItem -->
<g id="node2" class="node">
<title>PinboardItem</title>
<g id="a_node2"><a xlink:href="/develop/Data/models.html#pinboard-item" xlink:title="PinboardItem" target="_top">
<polygon fill="#eeefff" stroke="#dddeee" points="238.65,-382 147.65,-382 147.65,-346 238.65,-346 238.65,-382"/>
<text text-anchor="middle" x="193.15" y="-360.3" font-family="Times,serif" font-size="14.00">PinboardItem</text>
</a>
</g>
</g>
<!-- VerifierRole -->
<g id="node3" class="node">
<title>VerifierRole</title>
<g id="a_node3"><a xlink:href="/develop/Data/models.html#verifier-role" xlink:title="VerifierRole" target="_top">
<polygon fill="#eeefff" stroke="#dddeee" points="234.65,-328 151.65,-328 151.65,-292 234.65,-292 234.65,-328"/>
<text text-anchor="middle" x="193.15" y="-306.3" font-family="Times,serif" font-size="14.00">VerifierRole</text>
</a>
</g>
</g>
<!-- Verifier -->
<g id="node4" class="node">
<title>Verifier</title>
<g id="a_node4"><a xlink:href="/develop/Data/models.html#verifier" xlink:title="Verifier" target="_top">
<polygon fill="#eeefff" stroke="#dddeee" points="377.71,-328 320.71,-328 320.71,-292 377.71,-292 377.71,-328"/>
<text text-anchor="middle" x="349.21" y="-306.3" font-family="Times,serif" font-size="14.00">Verifier</text>
</a>
</g>
</g>
<!-- Creator -->
<g id="node5" class="node">
<title>Creator</title>
<g id="a_node5"><a xlink:href="/develop/Data/models.html#creator" xlink:title="Creator" target="_top">
<polygon fill="#eeefff" stroke="#dddeee" points="221.65,-236 164.65,-236 164.65,-200 221.65,-200 221.65,-236"/>
<text text-anchor="middle" x="193.15" y="-214.3" font-family="Times,serif" font-size="14.00">Creator</text>
</a>
</g>
</g>
<!-- Organization -->
<g id="node6" class="node">
<title>Organization</title>
<g id="a_node6"><a xlink:href="/develop/Data/models.html#organization" xlink:title="Organization" target="_top">
<polygon fill="#eeefff" stroke="#dddeee" points="236.65,-182 149.65,-182 149.65,-146 236.65,-146 236.65,-182"/>
<text text-anchor="middle" x="193.15" y="-160.3" font-family="Times,serif" font-size="14.00">Organization</text>
</a>
</g>
</g>
<!-- Person -->
<g id="node7" class="node">
<title>Person</title>
<g id="a_node7"><a xlink:href="/develop/Data/models.html#person" xlink:title="Person" target="_top">
<polygon fill="#eeefff" stroke="#dddeee" points="220.15,-128 166.15,-128 166.15,-92 220.15,-92 220.15,-128"/>
<text text-anchor="middle" x="193.15" y="-106.3" font-family="Times,serif" font-size="14.00">Person</text>
</a>
</g>
</g>
<!-- Updater -->
<g id="node8" class="node">
<title>Updater</title>
<g id="a_node8"><a xlink:href="/develop/Data/models.html#updater" xlink:title="Updater" target="_top">
<polygon fill="#eeefff" stroke="#dddeee" points="379.21,-236 319.21,-236 319.21,-200 379.21,-200 379.21,-236"/>
<text text-anchor="middle" x="349.21" y="-214.3" font-family="Times,serif" font-size="14.00">Updater</text>
</a>
</g>
</g>
<!-- Objects with Roles -->
<g id="node9" class="node">
<title>Objects with Roles</title>
<g id="a_node9"><a xlink:href="/develop/Data/models.html#objects with role" xlink:title="Objects with Roles" target="_top">
<polygon fill="#cdabef" stroke="#dedede" points="283.27,-18 238.21,-36 148.09,-36 103.03,-18 148.09,0 238.21,0 283.27,-18"/>
<text text-anchor="middle" x="193.15" y="-14.3" font-family="Times,serif" font-size="14.00">Objects with Roles</text>
</a>
</g>
</g>
</g>
</svg>
