<?xml version="1.0" encoding="UTF-8" standalone="no"?>
<!DOCTYPE svg PUBLIC "-//W3C//DTD SVG 1.1//EN"
 "http://www.w3.org/Graphics/SVG/1.1/DTD/svg11.dtd">
<!-- Generated by graphviz version 2.50.0 (20211204.2007)
 -->
<!-- Title: SequenceRelationship Pages: 1 -->
<svg width="706pt" height="419pt"
 viewBox="0.00 0.00 706.00 419.38" xmlns="http://www.w3.org/2000/svg" xmlns:xlink="http://www.w3.org/1999/xlink">
<g id="graph0" class="graph" transform="scale(1 1) rotate(0) translate(4 415.38)">
<title>SequenceRelationship</title>
<polygon fill="white" stroke="transparent" points="-4,4 -4,-415.38 702,-415.38 702,4 -4,4"/>
<text text-anchor="middle" x="349" y="-22.8" font-family="Times,serif" font-size="14.00">Algorithmically generated relationships for SequenceRelationship based on assertions of &#39;has_many&#39;, &#39;has_one&#39;, &#39;belongs_to&#39;. </text>
<text text-anchor="middle" x="349" y="-7.8" font-family="Times,serif" font-size="14.00">Generated 2022&#45;01&#45;25 11:43:42 &#45;0600.</text>
<!-- Tag&#45;&gt;Keyword -->
<g id="edge2" class="edge">
<title>Tag&#45;&gt;Keyword</title>
<path fill="none" stroke="black" d="M90.78,-159.23C119.32,-159.07 165.45,-158.81 199.24,-158.62"/>
<polygon fill="black" stroke="black" points="199.32,-162.12 209.3,-158.56 199.28,-155.12 199.32,-162.12"/>
</g>
<!-- SequenceRelationship&#45;&gt;Identifier -->
<g id="edge1" class="edge">
<title>SequenceRelationship&#45;&gt;Identifier</title>
<path fill="none" stroke="black" d="M181.18,-234.53C157.45,-241.62 130.75,-249.61 108.89,-256.14"/>
<polygon fill="black" stroke="black" points="107.8,-252.81 99.22,-259.03 109.81,-259.52 107.8,-252.81"/>
</g>
<!-- SequenceRelationship&#45;&gt;Tag -->
<g id="edge6" class="edge">
<title>SequenceRelationship&#45;&gt;Tag</title>
<path fill="none" stroke="black" d="M182.45,-198.04C169.29,-193.93 155.42,-189.54 142.52,-185.38 127.78,-180.62 111.52,-175.22 97.69,-170.57"/>
<polygon fill="black" stroke="black" points="98.7,-167.22 88.1,-167.35 96.46,-173.85 98.7,-167.22"/>
</g>
<!-- SequenceRelationship&#45;&gt;Note -->
<g id="edge3" class="edge">
<title>SequenceRelationship&#45;&gt;Note</title>
<path fill="none" stroke="black" d="M142.52,-215.82C128.12,-215.73 114.1,-215.66 102.01,-215.59"/>
<polygon fill="black" stroke="black" points="101.95,-212.09 91.93,-215.53 101.91,-219.09 101.95,-212.09"/>
</g>
<!-- SequenceRelationship&#45;&gt;PinboardItem -->
<g id="edge4" class="edge">
<title>SequenceRelationship&#45;&gt;PinboardItem</title>
<path fill="none" stroke="black" d="M259.72,-238.58C283.06,-270.12 329.36,-328.28 379.27,-366.38 380.86,-367.58 382.5,-368.76 384.19,-369.91"/>
<polygon fill="black" stroke="black" points="382.58,-373.03 392.91,-375.36 386.29,-367.09 382.58,-373.03"/>
</g>
<!-- SequenceRelationship&#45;&gt;Role -->
<g id="edge5" class="edge">
<title>SequenceRelationship&#45;&gt;Role</title>
<path fill="none" stroke="black" d="M272.36,-238.46C299.19,-258.81 340.89,-289.26 379.27,-312.38 385.14,-315.91 391.53,-319.41 397.78,-322.67"/>
<polygon fill="black" stroke="black" points="396.27,-325.82 406.77,-327.23 399.44,-319.58 396.27,-325.82"/>
</g>
<!-- SequenceRelationship&#45;&gt;VerifierRole -->
<g id="edge7" class="edge">
<title>SequenceRelationship&#45;&gt;VerifierRole</title>
<path fill="none" stroke="black" d="M297.26,-235.87C324.08,-245.67 356.38,-257.47 382.72,-267.09"/>
<polygon fill="black" stroke="black" points="381.54,-270.39 392.13,-270.53 383.94,-263.81 381.54,-270.39"/>
</g>
<!-- SequenceRelationship&#45;&gt;Creator -->
<g id="edge9" class="edge">
<title>SequenceRelationship&#45;&gt;Creator</title>
<path fill="none" stroke="black" stroke-dasharray="5,2" d="M321.08,-234.94C371.22,-242.95 436.61,-245.52 488.27,-220.38 514.95,-207.4 533.73,-177.19 543.64,-157.56"/>
<polygon fill="black" stroke="black" points="321.39,-231.44 310.95,-233.21 320.22,-238.34 321.39,-231.44"/>
</g>
<!-- SequenceRelationship&#45;&gt;ObjectSequence -->
<g id="edge10" class="edge">
<title>SequenceRelationship&#45;&gt;ObjectSequence</title>
<path fill="none" stroke="black" stroke-dasharray="5,2" d="M349.12,-203.56C360.4,-202.19 371.47,-200.84 381.68,-199.6"/>
<polygon fill="black" stroke="black" points="348.67,-200.09 339.17,-204.78 349.52,-207.04 348.67,-200.09"/>
</g>
<!-- SequenceRelationship&#45;&gt;Project -->
<g id="edge11" class="edge">
<title>SequenceRelationship&#45;&gt;Project</title>
<path fill="none" stroke="black" stroke-dasharray="5,2" d="M316.33,-195.49C325.49,-192.35 334.67,-188.96 343.27,-185.38 359.98,-178.43 363.2,-174.67 379.27,-166.38 387.97,-161.89 397.49,-157.06 406.06,-152.74"/>
<polygon fill="black" stroke="black" points="315.19,-192.18 306.81,-198.67 317.4,-198.82 315.19,-192.18"/>
</g>
<!-- SequenceRelationship&#45;&gt;SubjectSequence -->
<g id="edge12" class="edge">
<title>SequenceRelationship&#45;&gt;SubjectSequence</title>
<path fill="none" stroke="black" stroke-dasharray="5,2" d="M327.25,-196.26C332.98,-193.14 338.41,-189.54 343.27,-185.38 370.77,-161.86 353.81,-138.07 379.27,-112.38 382.57,-109.05 386.36,-106.06 390.37,-103.39"/>
<polygon fill="black" stroke="black" points="325.46,-193.24 318.02,-200.78 328.54,-199.53 325.46,-193.24"/>
</g>
<!-- SequenceRelationship&#45;&gt;Updater -->
<g id="edge13" class="edge">
<title>SequenceRelationship&#45;&gt;Updater</title>
<path fill="none" stroke="black" stroke-dasharray="5,2" d="M329.42,-196.42C334.47,-193.26 339.15,-189.61 343.27,-185.38 384.21,-143.35 332.47,-93.75 379.27,-58.38 456.75,0.19 576.65,-82.67 624.99,-121.35"/>
<polygon fill="black" stroke="black" points="327.7,-193.38 320.64,-201.28 331.09,-199.5 327.7,-193.38"/>
</g>
<!-- Role&#45;&gt;Verifier -->
<!-- VerifierRole&#45;&gt;Verifier -->
<g id="edge8" class="edge">
<title>VerifierRole&#45;&gt;Verifier</title>
<path fill="none" stroke="black" d="M475.37,-294.74C487.95,-297.65 501.75,-300.83 514.13,-303.69"/>
<polygon fill="black" stroke="black" points="513.59,-307.16 524.12,-306 515.17,-300.34 513.59,-307.16"/>
</g>
<!-- Creator&#45;&gt;Updater -->
<!-- Project&#45;&gt;Creator -->
<!-- Identifier -->
<g id="node1" class="node">
<title>Identifier</title>
<g id="a_node1"><a xlink:href="/develop/Data/models.html#identifier" xlink:title="Identifier" target="_top">
<ellipse fill="#abcdef" stroke="#dddeee" cx="63.62" cy="-269.38" rx="42.79" ry="18"/>
<text text-anchor="middle" x="63.62" y="-265.68" font-family="Times,serif" font-size="14.00">Identifier</text>
</a>
</g>
</g>
<!-- Tag -->
<g id="node2" class="node">
<title>Tag</title>
<g id="a_node2"><a xlink:href="/develop/Data/models.html#tag" xlink:title="Tag" target="_top">
<ellipse fill="#abcdef" stroke="#dddeee" cx="63.62" cy="-159.38" rx="27" ry="18"/>
<text text-anchor="middle" x="63.62" y="-155.68" font-family="Times,serif" font-size="14.00">Tag</text>
</a>
</g>
</g>
<!-- Note -->
<g id="node3" class="node">
<title>Note</title>
<g id="a_node3"><a xlink:href="/develop/Data/models.html#note" xlink:title="Note" target="_top">
<ellipse fill="#abcdef" stroke="#dddeee" cx="63.62" cy="-215.38" rx="27.9" ry="18"/>
<text text-anchor="middle" x="63.62" y="-211.68" font-family="Times,serif" font-size="14.00">Note</text>
</a>
</g>
</g>
<!-- SequenceRelationship -->
<g id="node4" class="node">
<title>SequenceRelationship</title>
<g id="a_node4"><a xlink:href="/develop/Data/models.html#sequence-relationship" xlink:title="SequenceRelationship" target="_top">
<polygon fill="#cdefab" stroke="#dedede" points="339.16,-208.92 339.16,-223.83 282.77,-234.38 203.02,-234.38 146.63,-223.83 146.63,-208.92 203.02,-198.38 282.77,-198.38 339.16,-208.92"/>
<polygon fill="none" stroke="#dedede" points="343.15,-205.6 343.15,-227.15 283.14,-238.38 202.65,-238.38 142.64,-227.15 142.64,-205.6 202.65,-194.38 283.14,-194.38 343.15,-205.6"/>
<text text-anchor="middle" x="242.9" y="-212.68" font-family="Times,serif" font-size="14.00">SequenceRelationship</text>
</a>
</g>
</g>
<!-- Keyword -->
<g id="node5" class="node">
<title>Keyword</title>
<g id="a_node5"><a xlink:href="/develop/Data/models.html#keyword" xlink:title="Keyword" target="_top">
<polygon fill="#eeefff" stroke="#dddeee" points="276.4,-176.38 209.4,-176.38 209.4,-140.38 276.4,-140.38 276.4,-176.38"/>
<text text-anchor="middle" x="242.9" y="-154.68" font-family="Times,serif" font-size="14.00">Keyword</text>
</a>
</g>
</g>
<!-- PinboardItem -->
<g id="node6" class="node">
<title>PinboardItem</title>
<g id="a_node6"><a xlink:href="/develop/Data/models.html#pinboard-item" xlink:title="PinboardItem" target="_top">
<polygon fill="#eeefff" stroke="#dddeee" points="479.27,-411.38 388.27,-411.38 388.27,-375.38 479.27,-375.38 479.27,-411.38"/>
<text text-anchor="middle" x="433.77" y="-389.68" font-family="Times,serif" font-size="14.00">PinboardItem</text>
</a>
</g>
</g>
<!-- Role -->
<g id="node7" class="node">
<title>Role</title>
<g id="a_node7"><a xlink:href="/develop/Data/models.html#role" xlink:title="Role" target="_top">
<polygon fill="#eeefff" stroke="#dddeee" points="460.77,-357.38 406.77,-357.38 406.77,-321.38 460.77,-321.38 460.77,-357.38"/>
<text text-anchor="middle" x="433.77" y="-335.68" font-family="Times,serif" font-size="14.00">Role</text>
</a>
</g>
</g>
<!-- VerifierRole -->
<g id="node8" class="node">
<title>VerifierRole</title>
<g id="a_node8"><a xlink:href="/develop/Data/models.html#verifier-role" xlink:title="VerifierRole" target="_top">
<polygon fill="#eeefff" stroke="#dddeee" points="475.27,-303.38 392.27,-303.38 392.27,-267.38 475.27,-267.38 475.27,-303.38"/>
<text text-anchor="middle" x="433.77" y="-281.68" font-family="Times,serif" font-size="14.00">VerifierRole</text>
</a>
</g>
</g>
<!-- Verifier -->
<g id="node9" class="node">
<title>Verifier</title>
<g id="a_node9"><a xlink:href="/develop/Data/models.html#verifier" xlink:title="Verifier" target="_top">
<polygon fill="#eeefff" stroke="#dddeee" points="581.27,-330.38 524.27,-330.38 524.27,-294.38 581.27,-294.38 581.27,-330.38"/>
<text text-anchor="middle" x="552.77" y="-308.68" font-family="Times,serif" font-size="14.00">Verifier</text>
</a>
</g>
</g>
<!-- Creator -->
<g id="node10" class="node">
<title>Creator</title>
<g id="a_node10"><a xlink:href="/develop/Data/models.html#creator" xlink:title="Creator" target="_top">
<polygon fill="#eeefff" stroke="#dddeee" points="581.27,-157.38 524.27,-157.38 524.27,-121.38 581.27,-121.38 581.27,-157.38"/>
<text text-anchor="middle" x="552.77" y="-135.68" font-family="Times,serif" font-size="14.00">Creator</text>
</a>
</g>
</g>
<!-- ObjectSequence -->
<g id="node11" class="node">
<title>ObjectSequence</title>
<g id="a_node11"><a xlink:href="/develop/Data/models.html#object-sequence" xlink:title="ObjectSequence" target="_top">
<polygon fill="#eeefff" stroke="#dddeee" points="485.77,-211.38 381.77,-211.38 381.77,-175.38 485.77,-175.38 485.77,-211.38"/>
<text text-anchor="middle" x="433.77" y="-189.68" font-family="Times,serif" font-size="14.00">ObjectSequence</text>
</a>
</g>
</g>
<!-- Project -->
<g id="node12" class="node">
<title>Project</title>
<g id="a_node12"><a xlink:href="/develop/Data/models.html#project" xlink:title="Project" target="_top">
<polygon fill="#eeefff" stroke="#dddeee" points="461.27,-157.38 406.27,-157.38 406.27,-121.38 461.27,-121.38 461.27,-157.38"/>
<text text-anchor="middle" x="433.77" y="-135.68" font-family="Times,serif" font-size="14.00">Project</text>
</a>
</g>
</g>
<!-- SubjectSequence -->
<g id="node13" class="node">
<title>SubjectSequence</title>
<g id="a_node13"><a xlink:href="/develop/Data/models.html#subject-sequence" xlink:title="SubjectSequence" target="_top">
<polygon fill="#eeefff" stroke="#dddeee" points="488.27,-103.38 379.27,-103.38 379.27,-67.38 488.27,-67.38 488.27,-103.38"/>
<text text-anchor="middle" x="433.77" y="-81.68" font-family="Times,serif" font-size="14.00">SubjectSequence</text>
</a>
</g>
</g>
<!-- Updater -->
<g id="node14" class="node">
<title>Updater</title>
<g id="a_node14"><a xlink:href="/develop/Data/models.html#updater" xlink:title="Updater" target="_top">
<polygon fill="#eeefff" stroke="#dddeee" points="677.27,-157.38 617.27,-157.38 617.27,-121.38 677.27,-121.38 677.27,-157.38"/>
<text text-anchor="middle" x="647.27" y="-135.68" font-family="Times,serif" font-size="14.00">Updater</text>
</a>
</g>
</g>
</g>
</svg>
