<?xml version="1.0" encoding="UTF-8" standalone="no"?>
<!DOCTYPE svg PUBLIC "-//W3C//DTD SVG 1.1//EN"
 "http://www.w3.org/Graphics/SVG/1.1/DTD/svg11.dtd">
<!-- Generated by graphviz version 2.50.0 (20211204.2007)
 -->
<!-- Title: Sequence Pages: 1 -->
<svg width="1098pt" height="919pt"
 viewBox="0.00 0.00 1098.28 918.53" xmlns="http://www.w3.org/2000/svg" xmlns:xlink="http://www.w3.org/1999/xlink">
<g id="graph0" class="graph" transform="scale(1 1) rotate(0) translate(4 914.53)">
<title>Sequence</title>
<polygon fill="white" stroke="transparent" points="-4,4 -4,-914.53 1094.28,-914.53 1094.28,4 -4,4"/>
<text text-anchor="middle" x="545.14" y="-22.8" font-family="Times,serif" font-size="14.00">Algorithmically generated relationships for Sequence based on assertions of &#39;has_many&#39;, &#39;has_one&#39;, &#39;belongs_to&#39;. </text>
<text text-anchor="middle" x="545.14" y="-7.8" font-family="Times,serif" font-size="14.00">Generated 2022&#45;01&#45;25 11:38:27 &#45;0600.</text>
<!-- AlternateValue&#45;&gt;AlternateValueLanguage -->
<g id="edge1" class="edge">
<title>AlternateValue&#45;&gt;AlternateValueLanguage</title>
<path fill="none" stroke="black" d="M149.07,-611.53C164.01,-611.53 180.19,-611.53 195.94,-611.53"/>
<polygon fill="black" stroke="black" points="196.2,-615.03 206.2,-611.53 196.2,-608.03 196.2,-615.03"/>
</g>
<!-- Confidence&#45;&gt;ConfidenceLevel -->
<g id="edge5" class="edge">
<title>Confidence&#45;&gt;ConfidenceLevel</title>
<path fill="none" stroke="black" d="M136.01,-557.53C160.58,-557.53 190.47,-557.53 216.71,-557.53"/>
<polygon fill="black" stroke="black" points="216.94,-561.03 226.94,-557.53 216.94,-554.03 216.94,-561.03"/>
</g>
<!-- Tag&#45;&gt;Keyword -->
<g id="edge15" class="edge">
<title>Tag&#45;&gt;Keyword</title>
<path fill="none" stroke="black" d="M112.39,-341.53C144.55,-341.53 199.46,-341.53 237.81,-341.53"/>
<polygon fill="black" stroke="black" points="238.15,-345.03 248.15,-341.53 238.15,-338.03 238.15,-345.03"/>
</g>
<!-- ProtocolRelationship&#45;&gt;Protocol -->
<g id="edge25" class="edge">
<title>ProtocolRelationship&#45;&gt;Protocol</title>
<path fill="none" stroke="black" d="M170.38,-287.53C194.71,-287.53 220.14,-287.53 240.46,-287.53"/>
<polygon fill="black" stroke="black" points="240.58,-291.03 250.58,-287.53 240.58,-284.03 240.58,-291.03"/>
</g>
<!-- Sequence&#45;&gt;AlternateValue -->
<g id="edge2" class="edge">
<title>Sequence&#45;&gt;AlternateValue</title>
<path fill="none" stroke="black" d="M259.26,-471.05C243.84,-486.92 222.93,-509.34 206.28,-530.53 188.47,-553.21 193.31,-567.15 170.28,-584.53 163.26,-589.83 155.15,-594.12 146.8,-597.57"/>
<polygon fill="black" stroke="black" points="145.45,-594.34 137.32,-601.13 147.91,-600.89 145.45,-594.34"/>
</g>
<!-- Sequence&#45;&gt;Confidence -->
<g id="edge6" class="edge">
<title>Sequence&#45;&gt;Confidence</title>
<path fill="none" stroke="black" d="M257.26,-470.28C235.84,-488.29 202.71,-514 170.28,-530.53 159.82,-535.86 148.09,-540.42 136.78,-544.19"/>
<polygon fill="black" stroke="black" points="135.47,-540.94 127,-547.3 137.59,-547.61 135.47,-540.94"/>
</g>
<!-- Sequence&#45;&gt;DataAttribute -->
<g id="edge7" class="edge">
<title>Sequence&#45;&gt;DataAttribute</title>
<path fill="none" stroke="black" d="M235.68,-462.04C206.91,-470.02 169.49,-480.4 139.29,-488.78"/>
<polygon fill="black" stroke="black" points="138.04,-485.5 129.34,-491.54 139.91,-492.24 138.04,-485.5"/>
</g>
<!-- Sequence&#45;&gt;Identifier -->
<g id="edge14" class="edge">
<title>Sequence&#45;&gt;Identifier</title>
<path fill="none" stroke="black" d="M230,-449.53C201.85,-449.53 166.91,-449.53 138.52,-449.53"/>
<polygon fill="black" stroke="black" points="138.38,-446.03 128.38,-449.53 138.38,-453.03 138.38,-446.03"/>
</g>
<!-- Sequence&#45;&gt;Tag -->
<g id="edge36" class="edge">
<title>Sequence&#45;&gt;Tag</title>
<path fill="none" stroke="black" d="M257.26,-428.77C235.84,-410.76 202.71,-385.06 170.28,-368.53 154.7,-360.58 136.31,-354.36 120.7,-349.9"/>
<polygon fill="black" stroke="black" points="121.47,-346.48 110.9,-347.22 119.62,-353.23 121.47,-346.48"/>
</g>
<!-- Sequence&#45;&gt;Note -->
<g id="edge16" class="edge">
<title>Sequence&#45;&gt;Note</title>
<path fill="none" stroke="black" d="M235.77,-437.04C200.83,-427.34 153.09,-414.1 121.02,-405.2"/>
<polygon fill="black" stroke="black" points="121.76,-401.78 111.19,-402.48 119.89,-408.52 121.76,-401.78"/>
</g>
<!-- Sequence&#45;&gt;ProtocolRelationship -->
<g id="edge24" class="edge">
<title>Sequence&#45;&gt;ProtocolRelationship</title>
<path fill="none" stroke="black" d="M259.26,-428C243.84,-412.13 222.93,-389.71 206.28,-368.53 188.47,-345.84 193.31,-331.91 170.28,-314.53 165.22,-310.7 159.6,-307.41 153.73,-304.58"/>
<polygon fill="black" stroke="black" points="154.92,-301.28 144.35,-300.5 152.12,-307.7 154.92,-301.28"/>
</g>
<!-- Sequence&#45;&gt;BlastQuerySequenceRelationship -->
<g id="edge3" class="edge">
<title>Sequence&#45;&gt;BlastQuerySequenceRelationship</title>
<path fill="none" stroke="black" d="M308.34,-469.68C325.25,-484.56 346.26,-506.36 357.28,-530.53 386.89,-595.43 348.23,-794.22 393.28,-849.53 400.01,-857.78 408.35,-864.47 417.54,-869.88"/>
<polygon fill="black" stroke="black" points="416.12,-873.09 426.59,-874.69 419.4,-866.91 416.12,-873.09"/>
</g>
<!-- Sequence&#45;&gt;OriginRelationship -->
<g id="edge20" class="edge">
<title>Sequence&#45;&gt;OriginRelationship</title>
<path fill="none" stroke="black" d="M307.79,-469.45C324.67,-484.38 345.88,-506.33 357.28,-530.53 407.04,-636.04 315.07,-703.97 393.28,-790.53 409.07,-807.99 432.63,-816.69 455.47,-820.8"/>
<polygon fill="black" stroke="black" points="455.13,-824.29 465.54,-822.34 456.18,-817.37 455.13,-824.29"/>
</g>
<!-- Sequence&#45;&gt;Documentation -->
<g id="edge9" class="edge">
<title>Sequence&#45;&gt;Documentation</title>
<path fill="none" stroke="black" d="M307.29,-469.69C323.93,-484.74 345.07,-506.73 357.28,-530.53 393.16,-600.39 337.68,-648.07 393.28,-703.53 411.92,-722.11 439.71,-729.56 464.94,-732.07"/>
<polygon fill="black" stroke="black" points="464.96,-735.58 475.2,-732.84 465.49,-728.6 464.96,-735.58"/>
</g>
<!-- Sequence&#45;&gt;ForwardPrimerRelationship -->
<g id="edge11" class="edge">
<title>Sequence&#45;&gt;ForwardPrimerRelationship</title>
<path fill="none" stroke="black" d="M306.64,-470.04C322.99,-485.25 344.02,-507.3 357.28,-530.53 384.68,-578.51 352.47,-612.28 393.28,-649.53 404.12,-659.42 417.59,-666.08 431.73,-670.5"/>
<polygon fill="black" stroke="black" points="431.03,-673.94 441.6,-673.21 432.89,-667.19 431.03,-673.94"/>
</g>
<!-- Sequence&#45;&gt;GeneAttribute -->
<g id="edge13" class="edge">
<title>Sequence&#45;&gt;GeneAttribute</title>
<path fill="none" stroke="black" d="M304.84,-470.65C320.53,-486.32 341.53,-508.67 357.28,-530.53 376.6,-557.31 366.67,-575.97 393.28,-595.53 414.83,-611.36 443.46,-618.42 468.51,-621.4"/>
<polygon fill="black" stroke="black" points="468.33,-624.9 478.63,-622.41 469.03,-617.93 468.33,-624.9"/>
</g>
<!-- Sequence&#45;&gt;RelatedOriginRelationship -->
<g id="edge28" class="edge">
<title>Sequence&#45;&gt;RelatedOriginRelationship</title>
<path fill="none" stroke="black" d="M307.64,-469.52C324.45,-484.48 345.64,-506.45 357.28,-530.53 401.76,-622.49 317.75,-688.76 393.28,-757.53 440.49,-800.5 617.71,-797.71 727.54,-791.39"/>
<polygon fill="black" stroke="black" points="727.85,-794.88 737.62,-790.79 727.43,-787.89 727.85,-794.88"/>
</g>
<!-- Sequence&#45;&gt;PinboardItem -->
<g id="edge23" class="edge">
<title>Sequence&#45;&gt;PinboardItem</title>
<path fill="none" stroke="black" d="M313.15,-467.59C334.78,-479.63 364.92,-494.8 393.28,-503.53 507.01,-538.52 540.73,-523.12 658.28,-541.53 692.95,-546.95 731.79,-553.54 762.4,-558.85"/>
<polygon fill="black" stroke="black" points="761.99,-562.33 772.44,-560.59 763.19,-555.43 761.99,-562.33"/>
</g>
<!-- Sequence&#45;&gt;ReferenceSequenceForAssemblyRelationship -->
<g id="edge26" class="edge">
<title>Sequence&#45;&gt;ReferenceSequenceForAssemblyRelationship</title>
<path fill="none" stroke="black" d="M333.52,-455.19C348.23,-456.83 365.07,-458.71 382.51,-460.65"/>
<polygon fill="black" stroke="black" points="382.51,-464.17 392.84,-461.81 383.29,-457.22 382.51,-464.17"/>
</g>
<!-- Sequence&#45;&gt;RelatedSequenceRelationship -->
<g id="edge29" class="edge">
<title>Sequence&#45;&gt;RelatedSequenceRelationship</title>
<path fill="none" stroke="black" d="M333.52,-443.87C360.4,-440.87 394.38,-437.08 426.21,-433.52"/>
<polygon fill="black" stroke="black" points="426.9,-436.97 436.45,-432.38 426.13,-430.01 426.9,-436.97"/>
</g>
<!-- Sequence&#45;&gt;ReversePrimerRelationship -->
<g id="edge31" class="edge">
<title>Sequence&#45;&gt;ReversePrimerRelationship</title>
<path fill="none" stroke="black" d="M313.8,-431.74C335.46,-419.98 365.39,-405.03 393.28,-395.53 405.77,-391.27 419.15,-387.58 432.44,-384.41"/>
<polygon fill="black" stroke="black" points="433.59,-387.73 442.56,-382.08 432.03,-380.91 433.59,-387.73"/>
</g>
<!-- Sequence&#45;&gt;Role -->
<g id="edge33" class="edge">
<title>Sequence&#45;&gt;Role</title>
<path fill="none" stroke="black" d="M305.77,-428.48C321.7,-413.02 342.61,-390.89 357.28,-368.53 378.9,-335.59 362.59,-312.22 393.28,-287.53 420.13,-265.93 459.83,-260.27 488.58,-259.35"/>
<polygon fill="black" stroke="black" points="488.68,-262.84 498.63,-259.2 488.58,-255.85 488.68,-262.84"/>
</g>
<!-- Sequence&#45;&gt;SequenceRelationship -->
<g id="edge34" class="edge">
<title>Sequence&#45;&gt;SequenceRelationship</title>
<path fill="none" stroke="black" d="M301.12,-427.43C318.1,-410.33 342.85,-385.82 357.28,-359.53 387.17,-305.09 348.12,-267.14 393.28,-224.53 407.86,-210.78 427.48,-203.22 447.1,-199.58"/>
<polygon fill="black" stroke="black" points="447.67,-203.03 457.03,-198.06 446.62,-196.11 447.67,-203.03"/>
</g>
<!-- Sequence&#45;&gt;VerifierRole -->
<g id="edge37" class="edge">
<title>Sequence&#45;&gt;VerifierRole</title>
<path fill="none" stroke="black" d="M302.75,-427.24C328.53,-398.96 372.56,-352.54 393.28,-341.53 418.07,-328.36 448.63,-321.61 474.05,-318.15"/>
<polygon fill="black" stroke="black" points="474.74,-321.59 484.24,-316.9 473.89,-314.64 474.74,-321.59"/>
</g>
<!-- Sequence&#45;&gt;Version -->
<g id="edge39" class="edge">
<title>Sequence&#45;&gt;Version</title>
<path fill="none" stroke="black" d="M304.11,-470.97C325.06,-490.83 358.81,-519.75 393.28,-536.53 422.85,-550.91 459.38,-559.13 486.43,-563.63"/>
<polygon fill="black" stroke="black" points="486.24,-567.14 496.66,-565.23 487.32,-560.22 486.24,-567.14"/>
</g>
<!-- Sequence&#45;&gt;Creator -->
<g id="edge40" class="edge">
<title>Sequence&#45;&gt;Creator</title>
<path fill="none" stroke="black" stroke-dasharray="5,2" d="M315.96,-422.24C331.1,-407.89 347.74,-389.03 357.28,-368.53 383.84,-311.45 346.03,-129.12 393.28,-87.53 508.18,13.59 715.38,-66.95 789.77,-101.1"/>
<polygon fill="black" stroke="black" points="313.24,-419.99 308.22,-429.32 317.96,-425.15 313.24,-419.99"/>
</g>
<!-- Sequence&#45;&gt;Project -->
<g id="edge41" class="edge">
<title>Sequence&#45;&gt;Project</title>
<path fill="none" stroke="black" stroke-dasharray="5,2" d="M315.34,-422.41C330.49,-407.99 347.33,-389.02 357.28,-368.53 400.96,-278.62 325.41,-219.91 393.28,-146.53 420.01,-117.63 468.06,-112.85 498.09,-113"/>
<polygon fill="black" stroke="black" points="312.6,-420.18 307.61,-429.53 317.34,-425.33 312.6,-420.18"/>
</g>
<!-- Sequence&#45;&gt;Updater -->
<g id="edge42" class="edge">
<title>Sequence&#45;&gt;Updater</title>
<path fill="none" stroke="black" stroke-dasharray="5,2" d="M315.1,-422.29C330.19,-407.84 347.05,-388.88 357.28,-368.53 395.7,-292.13 329.33,-236.29 393.28,-179.53 439.02,-138.94 882.11,-152.4 942.28,-141.53 963.37,-137.72 986.5,-130.81 1004.17,-124.94"/>
<polygon fill="black" stroke="black" points="312.36,-420.06 307.41,-429.43 317.12,-425.19 312.36,-420.06"/>
</g>
<!-- BlastQuerySequenceRelationship&#45;&gt;BlastQuerySequenceSequence -->
<g id="edge4" class="edge">
<title>BlastQuerySequenceRelationship&#45;&gt;BlastQuerySequenceSequence</title>
<path fill="none" stroke="black" d="M625.13,-892.53C654.58,-892.53 686.91,-892.53 716.51,-892.53"/>
<polygon fill="black" stroke="black" points="716.86,-896.03 726.86,-892.53 716.86,-889.03 716.86,-896.03"/>
</g>
<!-- OriginRelationship&#45;&gt;DerivedSequence -->
<g id="edge8" class="edge">
<title>OriginRelationship&#45;&gt;DerivedSequence</title>
<path fill="none" stroke="black" d="M585.92,-825.78C634.19,-828.44 702.31,-832.19 752.14,-834.94"/>
<polygon fill="black" stroke="black" points="751.99,-838.44 762.16,-835.49 752.37,-831.45 751.99,-838.44"/>
</g>
<!-- OriginRelationship&#45;&gt;RelatedOriginRelationship -->
<!-- Documentation&#45;&gt;Document -->
<g id="edge10" class="edge">
<title>Documentation&#45;&gt;Document</title>
<path fill="none" stroke="black" d="M576.39,-730.53C630.93,-730.53 717.86,-730.53 771.03,-730.53"/>
<polygon fill="black" stroke="black" points="771.19,-734.03 781.19,-730.53 771.19,-727.03 771.19,-734.03"/>
</g>
<!-- ForwardPrimerRelationship&#45;&gt;ForwardPrimerSequence -->
<g id="edge12" class="edge">
<title>ForwardPrimerRelationship&#45;&gt;ForwardPrimerSequence</title>
<path fill="none" stroke="black" d="M610.03,-676.53C648.2,-676.53 693.4,-676.53 731.83,-676.53"/>
<polygon fill="black" stroke="black" points="731.97,-680.03 741.97,-676.53 731.97,-673.03 731.97,-680.03"/>
</g>
<!-- RelatedOriginRelationship&#45;&gt;OriginExtract -->
<g id="edge17" class="edge">
<title>RelatedOriginRelationship&#45;&gt;OriginExtract</title>
<path fill="none" stroke="black" d="M898.88,-767.94C913.37,-764.67 928.31,-761.13 942.28,-757.53 954.13,-754.47 966.75,-750.92 978.71,-747.42"/>
<polygon fill="black" stroke="black" points="979.97,-750.69 988.57,-744.49 977.98,-743.98 979.97,-750.69"/>
</g>
<!-- RelatedOriginRelationship&#45;&gt;OriginLot -->
<g id="edge18" class="edge">
<title>RelatedOriginRelationship&#45;&gt;OriginLot</title>
<path fill="none" stroke="black" d="M899.07,-776.33C914.3,-772.26 929.47,-766.28 942.28,-757.53 966.1,-741.25 956.59,-722.54 978.28,-703.53 981.75,-700.49 985.63,-697.7 989.66,-695.17"/>
<polygon fill="black" stroke="black" points="991.72,-698.03 998.68,-690.05 988.26,-691.95 991.72,-698.03"/>
</g>
<!-- RelatedOriginRelationship&#45;&gt;OriginRangedLot -->
<g id="edge19" class="edge">
<title>RelatedOriginRelationship&#45;&gt;OriginRangedLot</title>
<path fill="none" stroke="black" d="M899.07,-792.73C914.3,-796.79 929.47,-802.77 942.28,-811.53 966.1,-827.8 956.59,-846.52 978.28,-865.53 979.58,-866.66 980.93,-867.76 982.32,-868.82"/>
<polygon fill="black" stroke="black" points="980.45,-871.78 990.68,-874.51 984.39,-865.99 980.45,-871.78"/>
</g>
<!-- RelatedOriginRelationship&#45;&gt;OriginSequence -->
<g id="edge21" class="edge">
<title>RelatedOriginRelationship&#45;&gt;OriginSequence</title>
<path fill="none" stroke="black" d="M898.88,-801.12C913.37,-804.39 928.31,-807.92 942.28,-811.53 951.98,-814.03 962.2,-816.86 972.14,-819.73"/>
<polygon fill="black" stroke="black" points="971.39,-823.15 981.97,-822.6 973.35,-816.43 971.39,-823.15"/>
</g>
<!-- RelatedOriginRelationship&#45;&gt;OriginSpecimen -->
<g id="edge22" class="edge">
<title>RelatedOriginRelationship&#45;&gt;OriginSpecimen</title>
<path fill="none" stroke="black" d="M898.97,-784.53C922.78,-784.53 948.51,-784.53 971.03,-784.53"/>
<polygon fill="black" stroke="black" points="971.13,-788.03 981.13,-784.53 971.13,-781.03 971.13,-788.03"/>
</g>
<!-- ReferenceSequenceForAssemblyRelationship&#45;&gt;ReferenceSequenceForAssemblySequence -->
<g id="edge27" class="edge">
<title>ReferenceSequenceForAssemblyRelationship&#45;&gt;ReferenceSequenceForAssemblySequence</title>
<path fill="none" stroke="black" d="M658.44,-476.53C666.87,-476.53 675.36,-476.53 683.8,-476.53"/>
<polygon fill="black" stroke="black" points="684.06,-480.03 694.06,-476.53 684.06,-473.03 684.06,-480.03"/>
</g>
<!-- RelatedSequenceRelationship&#45;&gt;RelatedSequence -->
<g id="edge30" class="edge">
<title>RelatedSequenceRelationship&#45;&gt;RelatedSequence</title>
<path fill="none" stroke="black" d="M615.13,-422.53C659.6,-422.53 712.53,-422.53 753.07,-422.53"/>
<polygon fill="black" stroke="black" points="753.1,-426.03 763.1,-422.53 753.1,-419.03 753.1,-426.03"/>
</g>
<!-- ReversePrimerRelationship&#45;&gt;ReversePrimerSequence -->
<g id="edge32" class="edge">
<title>ReversePrimerRelationship&#45;&gt;ReversePrimerSequence</title>
<path fill="none" stroke="black" d="M608.87,-368.53C647.68,-368.53 693.96,-368.53 733.05,-368.53"/>
<polygon fill="black" stroke="black" points="733.34,-372.03 743.34,-368.53 733.34,-365.03 733.34,-372.03"/>
</g>
<!-- Role&#45;&gt;Verifier -->
<!-- SequenceRelationship&#45;&gt;Sequence -->
<g id="edge35" class="edge">
<title>SequenceRelationship&#45;&gt;Sequence</title>
<path fill="none" stroke="black" d="M457.03,-214.97C434.25,-218.84 410.32,-226.45 393.28,-242.53 348.12,-285.14 387.17,-323.09 357.28,-377.53 347.83,-394.75 333.95,-411.2 320.73,-424.14"/>
<polygon fill="black" stroke="black" points="317.96,-421.94 313.06,-431.34 322.75,-427.05 317.96,-421.94"/>
</g>
<!-- VerifierRole&#45;&gt;Verifier -->
<g id="edge38" class="edge">
<title>VerifierRole&#45;&gt;Verifier</title>
<path fill="none" stroke="black" d="M567.48,-310.74C623.82,-305.51 724.78,-296.12 779.51,-291.04"/>
<polygon fill="black" stroke="black" points="779.86,-294.52 789.5,-290.11 779.22,-287.55 779.86,-294.52"/>
</g>
<!-- Version&#45;&gt;PinboardItem -->
<!-- Creator&#45;&gt;Updater -->
<!-- Project&#45;&gt;Creator -->
<!-- AlternateValue -->
<g id="node1" class="node">
<title>AlternateValue</title>
<g id="a_node1"><a xlink:href="/develop/Data/models.html#alternate-value" xlink:title="AlternateValue" target="_top">
<ellipse fill="#abcdef" stroke="#dddeee" cx="85.14" cy="-611.53" rx="63.89" ry="18"/>
<text text-anchor="middle" x="85.14" y="-607.83" font-family="Times,serif" font-size="14.00">AlternateValue</text>
</a>
</g>
</g>
<!-- Confidence -->
<g id="node2" class="node">
<title>Confidence</title>
<g id="a_node2"><a xlink:href="/develop/Data/models.html#confidence" xlink:title="Confidence" target="_top">
<ellipse fill="#abcdef" stroke="#dddeee" cx="85.14" cy="-557.53" rx="50.89" ry="18"/>
<text text-anchor="middle" x="85.14" y="-553.83" font-family="Times,serif" font-size="14.00">Confidence</text>
</a>
</g>
</g>
<!-- DataAttribute -->
<g id="node3" class="node">
<title>DataAttribute</title>
<g id="a_node3"><a xlink:href="/develop/Data/models.html#data-attribute" xlink:title="DataAttribute" target="_top">
<ellipse fill="#abcdef" stroke="#dddeee" cx="85.14" cy="-503.53" rx="59.29" ry="18"/>
<text text-anchor="middle" x="85.14" y="-499.83" font-family="Times,serif" font-size="14.00">DataAttribute</text>
</a>
</g>
</g>
<!-- Identifier -->
<g id="node4" class="node">
<title>Identifier</title>
<g id="a_node4"><a xlink:href="/develop/Data/models.html#identifier" xlink:title="Identifier" target="_top">
<ellipse fill="#abcdef" stroke="#dddeee" cx="85.14" cy="-449.53" rx="42.79" ry="18"/>
<text text-anchor="middle" x="85.14" y="-445.83" font-family="Times,serif" font-size="14.00">Identifier</text>
</a>
</g>
</g>
<!-- Tag -->
<g id="node5" class="node">
<title>Tag</title>
<g id="a_node5"><a xlink:href="/develop/Data/models.html#tag" xlink:title="Tag" target="_top">
<ellipse fill="#abcdef" stroke="#dddeee" cx="85.14" cy="-341.53" rx="27" ry="18"/>
<text text-anchor="middle" x="85.14" y="-337.83" font-family="Times,serif" font-size="14.00">Tag</text>
</a>
</g>
</g>
<!-- Note -->
<g id="node6" class="node">
<title>Note</title>
<g id="a_node6"><a xlink:href="/develop/Data/models.html#note" xlink:title="Note" target="_top">
<ellipse fill="#abcdef" stroke="#dddeee" cx="85.14" cy="-395.53" rx="27.9" ry="18"/>
<text text-anchor="middle" x="85.14" y="-391.83" font-family="Times,serif" font-size="14.00">Note</text>
</a>
</g>
</g>
<!-- ProtocolRelationship -->
<g id="node7" class="node">
<title>ProtocolRelationship</title>
<g id="a_node7"><a xlink:href="/develop/Data/models.html#protocol-relationship" xlink:title="ProtocolRelationship" target="_top">
<ellipse fill="#abcdef" stroke="#dddeee" cx="85.14" cy="-287.53" rx="85.29" ry="18"/>
<text text-anchor="middle" x="85.14" y="-283.83" font-family="Times,serif" font-size="14.00">ProtocolRelationship</text>
</a>
</g>
</g>
<!-- Sequence -->
<g id="node8" class="node">
<title>Sequence</title>
<g id="a_node8"><a xlink:href="/develop/Data/models.html#sequence" xlink:title="Sequence" target="_top">
<polygon fill="#cdefab" stroke="#dedede" points="329.47,-442.07 329.47,-456.98 301.54,-467.53 262.03,-467.53 234.1,-456.98 234.1,-442.07 262.03,-431.53 301.54,-431.53 329.47,-442.07"/>
<polygon fill="none" stroke="#dedede" points="333.46,-439.3 333.46,-459.75 302.26,-471.53 261.31,-471.53 230.11,-459.75 230.11,-439.3 261.31,-427.53 302.26,-427.53 333.46,-439.3"/>
<text text-anchor="middle" x="281.78" y="-445.83" font-family="Times,serif" font-size="14.00">Sequence</text>
</a>
</g>
</g>
<!-- AlternateValueLanguage -->
<g id="node9" class="node">
<title>AlternateValueLanguage</title>
<g id="a_node9"><a xlink:href="/develop/Data/models.html#alternate-value-language" xlink:title="AlternateValueLanguage" target="_top">
<polygon fill="#eeefff" stroke="#dddeee" points="357.28,-629.53 206.28,-629.53 206.28,-593.53 357.28,-593.53 357.28,-629.53"/>
<text text-anchor="middle" x="281.78" y="-607.83" font-family="Times,serif" font-size="14.00">AlternateValueLanguage</text>
</a>
</g>
</g>
<!-- BlastQuerySequenceRelationship -->
<g id="node10" class="node">
<title>BlastQuerySequenceRelationship</title>
<g id="a_node10"><a xlink:href="/develop/Data/models.html#blast-query-sequence-relationship" xlink:title="BlastQuerySequenceRelationship" target="_top">
<polygon fill="#eeefff" stroke="#dddeee" points="624.78,-910.53 426.78,-910.53 426.78,-874.53 624.78,-874.53 624.78,-910.53"/>
<text text-anchor="middle" x="525.78" y="-888.83" font-family="Times,serif" font-size="14.00">BlastQuerySequenceRelationship</text>
</a>
</g>
</g>
<!-- BlastQuerySequenceSequence -->
<g id="node11" class="node">
<title>BlastQuerySequenceSequence</title>
<g id="a_node11"><a xlink:href="/develop/Data/models.html#blast-query-sequence-sequence" xlink:title="BlastQuerySequenceSequence" target="_top">
<polygon fill="#eeefff" stroke="#dddeee" points="909.28,-910.53 727.28,-910.53 727.28,-874.53 909.28,-874.53 909.28,-910.53"/>
<text text-anchor="middle" x="818.28" y="-888.83" font-family="Times,serif" font-size="14.00">BlastQuerySequenceSequence</text>
</a>
</g>
</g>
<!-- ConfidenceLevel -->
<g id="node12" class="node">
<title>ConfidenceLevel</title>
<g id="a_node12"><a xlink:href="/develop/Data/models.html#confidence-level" xlink:title="ConfidenceLevel" target="_top">
<polygon fill="#eeefff" stroke="#dddeee" points="336.28,-575.53 227.28,-575.53 227.28,-539.53 336.28,-539.53 336.28,-575.53"/>
<text text-anchor="middle" x="281.78" y="-553.83" font-family="Times,serif" font-size="14.00">ConfidenceLevel</text>
</a>
</g>
</g>
<!-- OriginRelationship -->
<g id="node13" class="node">
<title>OriginRelationship</title>
<g id="a_node13"><a xlink:href="/develop/Data/models.html#origin-relationship" xlink:title="OriginRelationship" target="_top">
<polygon fill="#eeefff" stroke="#dddeee" points="585.78,-840.53 465.78,-840.53 465.78,-804.53 585.78,-804.53 585.78,-840.53"/>
<text text-anchor="middle" x="525.78" y="-818.83" font-family="Times,serif" font-size="14.00">OriginRelationship</text>
</a>
</g>
</g>
<!-- DerivedSequence -->
<g id="node14" class="node">
<title>DerivedSequence</title>
<g id="a_node14"><a xlink:href="/develop/Data/models.html#derived-sequence" xlink:title="DerivedSequence" target="_top">
<polygon fill="#eeefff" stroke="#dddeee" points="874.28,-856.53 762.28,-856.53 762.28,-820.53 874.28,-820.53 874.28,-856.53"/>
<text text-anchor="middle" x="818.28" y="-834.83" font-family="Times,serif" font-size="14.00">DerivedSequence</text>
</a>
</g>
</g>
<!-- Documentation -->
<g id="node15" class="node">
<title>Documentation</title>
<g id="a_node15"><a xlink:href="/develop/Data/models.html#documentation" xlink:title="Documentation" target="_top">
<polygon fill="#eeefff" stroke="#dddeee" points="576.28,-748.53 475.28,-748.53 475.28,-712.53 576.28,-712.53 576.28,-748.53"/>
<text text-anchor="middle" x="525.78" y="-726.83" font-family="Times,serif" font-size="14.00">Documentation</text>
</a>
</g>
</g>
<!-- Document -->
<g id="node16" class="node">
<title>Document</title>
<g id="a_node16"><a xlink:href="/develop/Data/models.html#document" xlink:title="Document" target="_top">
<polygon fill="#eeefff" stroke="#dddeee" points="855.28,-748.53 781.28,-748.53 781.28,-712.53 855.28,-712.53 855.28,-748.53"/>
<text text-anchor="middle" x="818.28" y="-726.83" font-family="Times,serif" font-size="14.00">Document</text>
</a>
</g>
</g>
<!-- ForwardPrimerRelationship -->
<g id="node17" class="node">
<title>ForwardPrimerRelationship</title>
<g id="a_node17"><a xlink:href="/develop/Data/models.html#forward-primer-relationship" xlink:title="ForwardPrimerRelationship" target="_top">
<polygon fill="#eeefff" stroke="#dddeee" points="609.78,-694.53 441.78,-694.53 441.78,-658.53 609.78,-658.53 609.78,-694.53"/>
<text text-anchor="middle" x="525.78" y="-672.83" font-family="Times,serif" font-size="14.00">ForwardPrimerRelationship</text>
</a>
</g>
</g>
<!-- ForwardPrimerSequence -->
<g id="node18" class="node">
<title>ForwardPrimerSequence</title>
<g id="a_node18"><a xlink:href="/develop/Data/models.html#forward-primer-sequence" xlink:title="ForwardPrimerSequence" target="_top">
<polygon fill="#eeefff" stroke="#dddeee" points="894.28,-694.53 742.28,-694.53 742.28,-658.53 894.28,-658.53 894.28,-694.53"/>
<text text-anchor="middle" x="818.28" y="-672.83" font-family="Times,serif" font-size="14.00">ForwardPrimerSequence</text>
</a>
</g>
</g>
<!-- GeneAttribute -->
<g id="node19" class="node">
<title>GeneAttribute</title>
<g id="a_node19"><a xlink:href="/develop/Data/models.html#gene-attribute" xlink:title="GeneAttribute" target="_top">
<polygon fill="#eeefff" stroke="#dddeee" points="572.78,-640.53 478.78,-640.53 478.78,-604.53 572.78,-604.53 572.78,-640.53"/>
<text text-anchor="middle" x="525.78" y="-618.83" font-family="Times,serif" font-size="14.00">GeneAttribute</text>
</a>
</g>
</g>
<!-- Keyword -->
<g id="node20" class="node">
<title>Keyword</title>
<g id="a_node20"><a xlink:href="/develop/Data/models.html#keyword" xlink:title="Keyword" target="_top">
<polygon fill="#eeefff" stroke="#dddeee" points="315.28,-359.53 248.28,-359.53 248.28,-323.53 315.28,-323.53 315.28,-359.53"/>
<text text-anchor="middle" x="281.78" y="-337.83" font-family="Times,serif" font-size="14.00">Keyword</text>
</a>
</g>
</g>
<!-- RelatedOriginRelationship -->
<g id="node21" class="node">
<title>RelatedOriginRelationship</title>
<g id="a_node21"><a xlink:href="/develop/Data/models.html#related-origin-relationship" xlink:title="RelatedOriginRelationship" target="_top">
<polygon fill="#eeefff" stroke="#dddeee" points="898.78,-802.53 737.78,-802.53 737.78,-766.53 898.78,-766.53 898.78,-802.53"/>
<text text-anchor="middle" x="818.28" y="-780.83" font-family="Times,serif" font-size="14.00">RelatedOriginRelationship</text>
</a>
</g>
</g>
<!-- OriginExtract -->
<g id="node22" class="node">
<title>OriginExtract</title>
<g id="a_node22"><a xlink:href="/develop/Data/models.html#origin-extract" xlink:title="OriginExtract" target="_top">
<polygon fill="#eeefff" stroke="#dddeee" points="1079.78,-748.53 988.78,-748.53 988.78,-712.53 1079.78,-712.53 1079.78,-748.53"/>
<text text-anchor="middle" x="1034.28" y="-726.83" font-family="Times,serif" font-size="14.00">OriginExtract</text>
</a>
</g>
</g>
<!-- OriginLot -->
<g id="node23" class="node">
<title>OriginLot</title>
<g id="a_node23"><a xlink:href="/develop/Data/models.html#origin-lot" xlink:title="OriginLot" target="_top">
<polygon fill="#eeefff" stroke="#dddeee" points="1069.78,-694.53 998.78,-694.53 998.78,-658.53 1069.78,-658.53 1069.78,-694.53"/>
<text text-anchor="middle" x="1034.28" y="-672.83" font-family="Times,serif" font-size="14.00">OriginLot</text>
</a>
</g>
</g>
<!-- OriginRangedLot -->
<g id="node24" class="node">
<title>OriginRangedLot</title>
<g id="a_node24"><a xlink:href="/develop/Data/models.html#origin-ranged-lot" xlink:title="OriginRangedLot" target="_top">
<polygon fill="#eeefff" stroke="#dddeee" points="1090.28,-910.53 978.28,-910.53 978.28,-874.53 1090.28,-874.53 1090.28,-910.53"/>
<text text-anchor="middle" x="1034.28" y="-888.83" font-family="Times,serif" font-size="14.00">OriginRangedLot</text>
</a>
</g>
</g>
<!-- OriginSequence -->
<g id="node25" class="node">
<title>OriginSequence</title>
<g id="a_node25"><a xlink:href="/develop/Data/models.html#origin-sequence" xlink:title="OriginSequence" target="_top">
<polygon fill="#eeefff" stroke="#dddeee" points="1086.28,-856.53 982.28,-856.53 982.28,-820.53 1086.28,-820.53 1086.28,-856.53"/>
<text text-anchor="middle" x="1034.28" y="-834.83" font-family="Times,serif" font-size="14.00">OriginSequence</text>
</a>
</g>
</g>
<!-- OriginSpecimen -->
<g id="node26" class="node">
<title>OriginSpecimen</title>
<g id="a_node26"><a xlink:href="/develop/Data/models.html#origin-specimen" xlink:title="OriginSpecimen" target="_top">
<polygon fill="#eeefff" stroke="#dddeee" points="1087.28,-802.53 981.28,-802.53 981.28,-766.53 1087.28,-766.53 1087.28,-802.53"/>
<text text-anchor="middle" x="1034.28" y="-780.83" font-family="Times,serif" font-size="14.00">OriginSpecimen</text>
</a>
</g>
</g>
<!-- PinboardItem -->
<g id="node27" class="node">
<title>PinboardItem</title>
<g id="a_node27"><a xlink:href="/develop/Data/models.html#pinboard-item" xlink:title="PinboardItem" target="_top">
<polygon fill="#eeefff" stroke="#dddeee" points="863.78,-586.53 772.78,-586.53 772.78,-550.53 863.78,-550.53 863.78,-586.53"/>
<text text-anchor="middle" x="818.28" y="-564.83" font-family="Times,serif" font-size="14.00">PinboardItem</text>
</a>
</g>
</g>
<!-- Protocol -->
<g id="node28" class="node">
<title>Protocol</title>
<g id="a_node28"><a xlink:href="/develop/Data/models.html#protocol" xlink:title="Protocol" target="_top">
<polygon fill="#eeefff" stroke="#dddeee" points="312.78,-305.53 250.78,-305.53 250.78,-269.53 312.78,-269.53 312.78,-305.53"/>
<text text-anchor="middle" x="281.78" y="-283.83" font-family="Times,serif" font-size="14.00">Protocol</text>
</a>
</g>
</g>
<!-- ReferenceSequenceForAssemblyRelationship -->
<g id="node29" class="node">
<title>ReferenceSequenceForAssemblyRelationship</title>
<g id="a_node29"><a xlink:href="/develop/Data/models.html#reference-sequence-for-assembly-relationship" xlink:title="ReferenceSequenceForAssemblyRelationship" target="_top">
<polygon fill="#eeefff" stroke="#dddeee" points="658.28,-494.53 393.28,-494.53 393.28,-458.53 658.28,-458.53 658.28,-494.53"/>
<text text-anchor="middle" x="525.78" y="-472.83" font-family="Times,serif" font-size="14.00">ReferenceSequenceForAssemblyRelationship</text>
</a>
</g>
</g>
<!-- ReferenceSequenceForAssemblySequence -->
<g id="node30" class="node">
<title>ReferenceSequenceForAssemblySequence</title>
<g id="a_node30"><a xlink:href="/develop/Data/models.html#reference-sequence-for-assembly-sequence" xlink:title="ReferenceSequenceForAssemblySequence" target="_top">
<polygon fill="#eeefff" stroke="#dddeee" points="942.28,-494.53 694.28,-494.53 694.28,-458.53 942.28,-458.53 942.28,-494.53"/>
<text text-anchor="middle" x="818.28" y="-472.83" font-family="Times,serif" font-size="14.00">ReferenceSequenceForAssemblySequence</text>
</a>
</g>
</g>
<!-- RelatedSequenceRelationship -->
<g id="node31" class="node">
<title>RelatedSequenceRelationship</title>
<g id="a_node31"><a xlink:href="/develop/Data/models.html#related-sequence-relationship" xlink:title="RelatedSequenceRelationship" target="_top">
<polygon fill="#eeefff" stroke="#dddeee" points="614.78,-440.53 436.78,-440.53 436.78,-404.53 614.78,-404.53 614.78,-440.53"/>
<text text-anchor="middle" x="525.78" y="-418.83" font-family="Times,serif" font-size="14.00">RelatedSequenceRelationship</text>
</a>
</g>
</g>
<!-- RelatedSequence -->
<g id="node32" class="node">
<title>RelatedSequence</title>
<g id="a_node32"><a xlink:href="/develop/Data/models.html#related-sequence" xlink:title="RelatedSequence" target="_top">
<polygon fill="#eeefff" stroke="#dddeee" points="873.28,-440.53 763.28,-440.53 763.28,-404.53 873.28,-404.53 873.28,-440.53"/>
<text text-anchor="middle" x="818.28" y="-418.83" font-family="Times,serif" font-size="14.00">RelatedSequence</text>
</a>
</g>
</g>
<!-- ReversePrimerRelationship -->
<g id="node33" class="node">
<title>ReversePrimerRelationship</title>
<g id="a_node33"><a xlink:href="/develop/Data/models.html#reverse-primer-relationship" xlink:title="ReversePrimerRelationship" target="_top">
<polygon fill="#eeefff" stroke="#dddeee" points="608.78,-386.53 442.78,-386.53 442.78,-350.53 608.78,-350.53 608.78,-386.53"/>
<text text-anchor="middle" x="525.78" y="-364.83" font-family="Times,serif" font-size="14.00">ReversePrimerRelationship</text>
</a>
</g>
</g>
<!-- ReversePrimerSequence -->
<g id="node34" class="node">
<title>ReversePrimerSequence</title>
<g id="a_node34"><a xlink:href="/develop/Data/models.html#reverse-primer-sequence" xlink:title="ReversePrimerSequence" target="_top">
<polygon fill="#eeefff" stroke="#dddeee" points="892.78,-386.53 743.78,-386.53 743.78,-350.53 892.78,-350.53 892.78,-386.53"/>
<text text-anchor="middle" x="818.28" y="-364.83" font-family="Times,serif" font-size="14.00">ReversePrimerSequence</text>
</a>
</g>
</g>
<!-- Role -->
<g id="node35" class="node">
<title>Role</title>
<g id="a_node35"><a xlink:href="/develop/Data/models.html#role" xlink:title="Role" target="_top">
<polygon fill="#eeefff" stroke="#dddeee" points="552.78,-278.53 498.78,-278.53 498.78,-242.53 552.78,-242.53 552.78,-278.53"/>
<text text-anchor="middle" x="525.78" y="-256.83" font-family="Times,serif" font-size="14.00">Role</text>
</a>
</g>
</g>
<!-- SequenceRelationship -->
<g id="node36" class="node">
<title>SequenceRelationship</title>
<g id="a_node36"><a xlink:href="/develop/Data/models.html#sequence-relationship" xlink:title="SequenceRelationship" target="_top">
<polygon fill="#eeefff" stroke="#dddeee" points="594.28,-224.53 457.28,-224.53 457.28,-188.53 594.28,-188.53 594.28,-224.53"/>
<text text-anchor="middle" x="525.78" y="-202.83" font-family="Times,serif" font-size="14.00">SequenceRelationship</text>
</a>
</g>
</g>
<!-- VerifierRole -->
<g id="node37" class="node">
<title>VerifierRole</title>
<g id="a_node37"><a xlink:href="/develop/Data/models.html#verifier-role" xlink:title="VerifierRole" target="_top">
<polygon fill="#eeefff" stroke="#dddeee" points="567.28,-332.53 484.28,-332.53 484.28,-296.53 567.28,-296.53 567.28,-332.53"/>
<text text-anchor="middle" x="525.78" y="-310.83" font-family="Times,serif" font-size="14.00">VerifierRole</text>
</a>
</g>
</g>
<!-- Verifier -->
<g id="node38" class="node">
<title>Verifier</title>
<g id="a_node38"><a xlink:href="/develop/Data/models.html#verifier" xlink:title="Verifier" target="_top">
<polygon fill="#eeefff" stroke="#dddeee" points="846.78,-305.53 789.78,-305.53 789.78,-269.53 846.78,-269.53 846.78,-305.53"/>
<text text-anchor="middle" x="818.28" y="-283.83" font-family="Times,serif" font-size="14.00">Verifier</text>
</a>
</g>
</g>
<!-- Version -->
<g id="node39" class="node">
<title>Version</title>
<g id="a_node39"><a xlink:href="/develop/Data/models.html#version" xlink:title="Version" target="_top">
<polygon fill="#eeefff" stroke="#dddeee" points="554.78,-586.53 496.78,-586.53 496.78,-550.53 554.78,-550.53 554.78,-586.53"/>
<text text-anchor="middle" x="525.78" y="-564.83" font-family="Times,serif" font-size="14.00">Version</text>
</a>
</g>
</g>
<!-- Creator -->
<g id="node40" class="node">
<title>Creator</title>
<g id="a_node40"><a xlink:href="/develop/Data/models.html#creator" xlink:title="Creator" target="_top">
<polygon fill="#eeefff" stroke="#dddeee" points="846.78,-132.53 789.78,-132.53 789.78,-96.53 846.78,-96.53 846.78,-132.53"/>
<text text-anchor="middle" x="818.28" y="-110.83" font-family="Times,serif" font-size="14.00">Creator</text>
</a>
</g>
</g>
<!-- Project -->
<g id="node41" class="node">
<title>Project</title>
<g id="a_node41"><a xlink:href="/develop/Data/models.html#project" xlink:title="Project" target="_top">
<polygon fill="#eeefff" stroke="#dddeee" points="553.28,-132.53 498.28,-132.53 498.28,-96.53 553.28,-96.53 553.28,-132.53"/>
<text text-anchor="middle" x="525.78" y="-110.83" font-family="Times,serif" font-size="14.00">Project</text>
</a>
</g>
</g>
<!-- Updater -->
<g id="node42" class="node">
<title>Updater</title>
<g id="a_node42"><a xlink:href="/develop/Data/models.html#updater" xlink:title="Updater" target="_top">
<polygon fill="#eeefff" stroke="#dddeee" points="1064.28,-132.53 1004.28,-132.53 1004.28,-96.53 1064.28,-96.53 1064.28,-132.53"/>
<text text-anchor="middle" x="1034.28" y="-110.83" font-family="Times,serif" font-size="14.00">Updater</text>
</a>
</g>
</g>
</g>
</svg>
