<?xml version="1.0" encoding="UTF-8" standalone="no"?>
<!DOCTYPE svg PUBLIC "-//W3C//DTD SVG 1.1//EN"
 "http://www.w3.org/Graphics/SVG/1.1/DTD/svg11.dtd">
<!-- Generated by graphviz version 2.50.0 (20211204.2007)
 -->
<!-- Title: SequenceRelationship Pages: 1 -->
<svg width="665pt" height="381pt"
 viewBox="0.00 0.00 664.55 381.38" xmlns="http://www.w3.org/2000/svg" xmlns:xlink="http://www.w3.org/1999/xlink">
<g id="graph0" class="graph" transform="scale(1 1) rotate(0) translate(4 377.38)">
<title>SequenceRelationship</title>
<polygon fill="white" stroke="transparent" points="-4,4 -4,-377.38 660.55,-377.38 660.55,4 -4,4"/>
<!-- Tag&#45;&gt;Keyword -->
<g id="edge2" class="edge">
<title>Tag&#45;&gt;Keyword</title>
<path fill="none" stroke="black" d="M70.05,-121.23C98.6,-121.07 144.72,-120.81 178.52,-120.62"/>
<polygon fill="black" stroke="black" points="178.6,-124.12 188.58,-120.56 178.56,-117.12 178.6,-124.12"/>
</g>
<!-- SequenceRelationship&#45;&gt;Identifier -->
<g id="edge1" class="edge">
<title>SequenceRelationship&#45;&gt;Identifier</title>
<path fill="none" stroke="black" d="M160.45,-196.53C136.72,-203.62 110.02,-211.61 88.17,-218.14"/>
<polygon fill="black" stroke="black" points="87.08,-214.81 78.5,-221.03 89.08,-221.52 87.08,-214.81"/>
</g>
<!-- SequenceRelationship&#45;&gt;Tag -->
<g id="edge6" class="edge">
<title>SequenceRelationship&#45;&gt;Tag</title>
<path fill="none" stroke="black" d="M161.73,-160.04C148.56,-155.93 134.69,-151.54 121.79,-147.38 107.05,-142.62 90.8,-137.22 76.96,-132.57"/>
<polygon fill="black" stroke="black" points="77.97,-129.22 67.38,-129.35 75.74,-135.85 77.97,-129.22"/>
</g>
<!-- SequenceRelationship&#45;&gt;Note -->
<g id="edge3" class="edge">
<title>SequenceRelationship&#45;&gt;Note</title>
<path fill="none" stroke="black" d="M121.8,-177.82C107.39,-177.73 93.37,-177.66 81.29,-177.59"/>
<polygon fill="black" stroke="black" points="81.23,-174.09 71.21,-177.53 81.19,-181.09 81.23,-174.09"/>
</g>
<!-- SequenceRelationship&#45;&gt;PinboardItem -->
<g id="edge4" class="edge">
<title>SequenceRelationship&#45;&gt;PinboardItem</title>
<path fill="none" stroke="black" d="M239,-200.58C262.34,-232.12 308.64,-290.28 358.55,-328.38 360.13,-329.58 361.77,-330.76 363.46,-331.91"/>
<polygon fill="black" stroke="black" points="361.85,-335.03 372.19,-337.36 365.56,-329.09 361.85,-335.03"/>
</g>
<!-- SequenceRelationship&#45;&gt;Role -->
<g id="edge5" class="edge">
<title>SequenceRelationship&#45;&gt;Role</title>
<path fill="none" stroke="black" d="M251.64,-200.46C278.47,-220.81 320.17,-251.26 358.55,-274.38 364.42,-277.91 370.81,-281.41 377.06,-284.67"/>
<polygon fill="black" stroke="black" points="375.55,-287.82 386.05,-289.23 378.72,-281.58 375.55,-287.82"/>
</g>
<!-- SequenceRelationship&#45;&gt;VerifierRole -->
<g id="edge7" class="edge">
<title>SequenceRelationship&#45;&gt;VerifierRole</title>
<path fill="none" stroke="black" d="M276.54,-197.87C303.35,-207.67 335.66,-219.47 362,-229.09"/>
<polygon fill="black" stroke="black" points="360.81,-232.39 371.41,-232.53 363.22,-225.81 360.81,-232.39"/>
</g>
<!-- SequenceRelationship&#45;&gt;Creator -->
<g id="edge9" class="edge">
<title>SequenceRelationship&#45;&gt;Creator</title>
<path fill="none" stroke="black" stroke-dasharray="5,2" d="M300.36,-196.94C350.49,-204.95 415.88,-207.52 467.55,-182.38 494.22,-169.4 513,-139.19 522.91,-119.56"/>
<polygon fill="black" stroke="black" points="300.67,-193.44 290.22,-195.21 299.49,-200.34 300.67,-193.44"/>
</g>
<!-- SequenceRelationship&#45;&gt;ObjectSequence -->
<g id="edge10" class="edge">
<title>SequenceRelationship&#45;&gt;ObjectSequence</title>
<path fill="none" stroke="black" stroke-dasharray="5,2" d="M328.39,-165.56C339.67,-164.19 350.74,-162.84 360.95,-161.6"/>
<polygon fill="black" stroke="black" points="327.94,-162.09 318.44,-166.78 328.79,-169.04 327.94,-162.09"/>
</g>
<!-- SequenceRelationship&#45;&gt;Project -->
<g id="edge11" class="edge">
<title>SequenceRelationship&#45;&gt;Project</title>
<path fill="none" stroke="black" stroke-dasharray="5,2" d="M295.61,-157.49C304.77,-154.35 313.94,-150.96 322.55,-147.38 339.25,-140.43 342.47,-136.67 358.55,-128.38 367.24,-123.89 376.76,-119.06 385.33,-114.74"/>
<polygon fill="black" stroke="black" points="294.46,-154.18 286.09,-160.67 296.68,-160.82 294.46,-154.18"/>
</g>
<!-- SequenceRelationship&#45;&gt;SubjectSequence -->
<g id="edge12" class="edge">
<title>SequenceRelationship&#45;&gt;SubjectSequence</title>
<path fill="none" stroke="black" stroke-dasharray="5,2" d="M306.52,-158.26C312.26,-155.14 317.68,-151.54 322.55,-147.38 350.04,-123.86 333.09,-100.07 358.55,-74.38 361.84,-71.05 365.63,-68.06 369.64,-65.39"/>
<polygon fill="black" stroke="black" points="304.74,-155.24 297.3,-162.78 307.82,-161.53 304.74,-155.24"/>
</g>
<!-- SequenceRelationship&#45;&gt;Updater -->
<g id="edge13" class="edge">
<title>SequenceRelationship&#45;&gt;Updater</title>
<path fill="none" stroke="black" stroke-dasharray="5,2" d="M308.7,-158.42C313.74,-155.26 318.43,-151.61 322.55,-147.38 363.49,-105.35 311.75,-55.75 358.55,-20.38 436.03,38.19 555.92,-44.67 604.27,-83.35"/>
<polygon fill="black" stroke="black" points="306.97,-155.38 299.92,-163.28 310.36,-161.5 306.97,-155.38"/>
</g>
<!-- Role&#45;&gt;Verifier -->
<!-- VerifierRole&#45;&gt;Verifier -->
<g id="edge8" class="edge">
<title>VerifierRole&#45;&gt;Verifier</title>
<path fill="none" stroke="black" d="M454.64,-256.74C467.22,-259.65 481.03,-262.83 493.4,-265.69"/>
<polygon fill="black" stroke="black" points="492.87,-269.16 503.4,-268 494.44,-262.34 492.87,-269.16"/>
</g>
<!-- Creator&#45;&gt;Updater -->
<!-- Project&#45;&gt;Creator -->
<!-- Identifier -->
<g id="node1" class="node">
<title>Identifier</title>
<g id="a_node1"><a xlink:href="/develop/Data/models.html#identifier" xlink:title="Identifier" target="_top">
<ellipse fill="#abcdef" stroke="#dddeee" cx="42.9" cy="-231.38" rx="42.79" ry="18"/>
<text text-anchor="middle" x="42.9" y="-227.68" font-family="Times,serif" font-size="14.00">Identifier</text>
</a>
</g>
</g>
<!-- Tag -->
<g id="node2" class="node">
<title>Tag</title>
<g id="a_node2"><a xlink:href="/develop/Data/models.html#tag" xlink:title="Tag" target="_top">
<ellipse fill="#abcdef" stroke="#dddeee" cx="42.9" cy="-121.38" rx="27" ry="18"/>
<text text-anchor="middle" x="42.9" y="-117.68" font-family="Times,serif" font-size="14.00">Tag</text>
</a>
</g>
</g>
<!-- Note -->
<g id="node3" class="node">
<title>Note</title>
<g id="a_node3"><a xlink:href="/develop/Data/models.html#note" xlink:title="Note" target="_top">
<ellipse fill="#abcdef" stroke="#dddeee" cx="42.9" cy="-177.38" rx="27.9" ry="18"/>
<text text-anchor="middle" x="42.9" y="-173.68" font-family="Times,serif" font-size="14.00">Note</text>
</a>
</g>
</g>
<!-- SequenceRelationship -->
<g id="node4" class="node">
<title>SequenceRelationship</title>
<g id="a_node4"><a xlink:href="/develop/Data/models.html#sequence-relationship" xlink:title="SequenceRelationship" target="_top">
<polygon fill="#cdefab" stroke="#dedede" points="318.43,-170.92 318.43,-185.83 262.04,-196.38 182.3,-196.38 125.91,-185.83 125.91,-170.92 182.3,-160.38 262.04,-160.38 318.43,-170.92"/>
<polygon fill="none" stroke="#dedede" points="322.43,-167.6 322.43,-189.15 262.41,-200.38 181.93,-200.38 121.91,-189.15 121.91,-167.6 181.93,-156.38 262.41,-156.38 322.43,-167.6"/>
<text text-anchor="middle" x="222.17" y="-174.68" font-family="Times,serif" font-size="14.00">SequenceRelationship</text>
</a>
</g>
</g>
<!-- Keyword -->
<g id="node5" class="node">
<title>Keyword</title>
<g id="a_node5"><a xlink:href="/develop/Data/models.html#keyword" xlink:title="Keyword" target="_top">
<polygon fill="#eeefff" stroke="#dddeee" points="255.67,-138.38 188.67,-138.38 188.67,-102.38 255.67,-102.38 255.67,-138.38"/>
<text text-anchor="middle" x="222.17" y="-116.68" font-family="Times,serif" font-size="14.00">Keyword</text>
</a>
</g>
</g>
<!-- PinboardItem -->
<g id="node6" class="node">
<title>PinboardItem</title>
<g id="a_node6"><a xlink:href="/develop/Data/models.html#pinboard-item" xlink:title="PinboardItem" target="_top">
<polygon fill="#eeefff" stroke="#dddeee" points="458.55,-373.38 367.55,-373.38 367.55,-337.38 458.55,-337.38 458.55,-373.38"/>
<text text-anchor="middle" x="413.05" y="-351.68" font-family="Times,serif" font-size="14.00">PinboardItem</text>
</a>
</g>
</g>
<!-- Role -->
<g id="node7" class="node">
<title>Role</title>
<g id="a_node7"><a xlink:href="/develop/Data/models.html#role" xlink:title="Role" target="_top">
<polygon fill="#eeefff" stroke="#dddeee" points="440.05,-319.38 386.05,-319.38 386.05,-283.38 440.05,-283.38 440.05,-319.38"/>
<text text-anchor="middle" x="413.05" y="-297.68" font-family="Times,serif" font-size="14.00">Role</text>
</a>
</g>
</g>
<!-- VerifierRole -->
<g id="node8" class="node">
<title>VerifierRole</title>
<g id="a_node8"><a xlink:href="/develop/Data/models.html#verifier-role" xlink:title="VerifierRole" target="_top">
<polygon fill="#eeefff" stroke="#dddeee" points="454.55,-265.38 371.55,-265.38 371.55,-229.38 454.55,-229.38 454.55,-265.38"/>
<text text-anchor="middle" x="413.05" y="-243.68" font-family="Times,serif" font-size="14.00">VerifierRole</text>
</a>
</g>
</g>
<!-- Verifier -->
<g id="node9" class="node">
<title>Verifier</title>
<g id="a_node9"><a xlink:href="/develop/Data/models.html#verifier" xlink:title="Verifier" target="_top">
<polygon fill="#eeefff" stroke="#dddeee" points="560.55,-292.38 503.55,-292.38 503.55,-256.38 560.55,-256.38 560.55,-292.38"/>
<text text-anchor="middle" x="532.05" y="-270.68" font-family="Times,serif" font-size="14.00">Verifier</text>
</a>
</g>
</g>
<!-- Creator -->
<g id="node10" class="node">
<title>Creator</title>
<g id="a_node10"><a xlink:href="/develop/Data/models.html#creator" xlink:title="Creator" target="_top">
<polygon fill="#eeefff" stroke="#dddeee" points="560.55,-119.38 503.55,-119.38 503.55,-83.38 560.55,-83.38 560.55,-119.38"/>
<text text-anchor="middle" x="532.05" y="-97.68" font-family="Times,serif" font-size="14.00">Creator</text>
</a>
</g>
</g>
<!-- ObjectSequence -->
<g id="node11" class="node">
<title>ObjectSequence</title>
<g id="a_node11"><a xlink:href="/develop/Data/models.html#object-sequence" xlink:title="ObjectSequence" target="_top">
<polygon fill="#eeefff" stroke="#dddeee" points="465.05,-173.38 361.05,-173.38 361.05,-137.38 465.05,-137.38 465.05,-173.38"/>
<text text-anchor="middle" x="413.05" y="-151.68" font-family="Times,serif" font-size="14.00">ObjectSequence</text>
</a>
</g>
</g>
<!-- Project -->
<g id="node12" class="node">
<title>Project</title>
<g id="a_node12"><a xlink:href="/develop/Data/models.html#project" xlink:title="Project" target="_top">
<polygon fill="#eeefff" stroke="#dddeee" points="440.55,-119.38 385.55,-119.38 385.55,-83.38 440.55,-83.38 440.55,-119.38"/>
<text text-anchor="middle" x="413.05" y="-97.68" font-family="Times,serif" font-size="14.00">Project</text>
</a>
</g>
</g>
<!-- SubjectSequence -->
<g id="node13" class="node">
<title>SubjectSequence</title>
<g id="a_node13"><a xlink:href="/develop/Data/models.html#subject-sequence" xlink:title="SubjectSequence" target="_top">
<polygon fill="#eeefff" stroke="#dddeee" points="467.55,-65.38 358.55,-65.38 358.55,-29.38 467.55,-29.38 467.55,-65.38"/>
<text text-anchor="middle" x="413.05" y="-43.68" font-family="Times,serif" font-size="14.00">SubjectSequence</text>
</a>
</g>
</g>
<!-- Updater -->
<g id="node14" class="node">
<title>Updater</title>
<g id="a_node14"><a xlink:href="/develop/Data/models.html#updater" xlink:title="Updater" target="_top">
<polygon fill="#eeefff" stroke="#dddeee" points="656.55,-119.38 596.55,-119.38 596.55,-83.38 656.55,-83.38 656.55,-119.38"/>
<text text-anchor="middle" x="626.55" y="-97.68" font-family="Times,serif" font-size="14.00">Updater</text>
</a>
</g>
</g>
</g>
</svg>
