<?xml version="1.0" encoding="UTF-8" standalone="no"?>
<!DOCTYPE svg PUBLIC "-//W3C//DTD SVG 1.1//EN"
 "http://www.w3.org/Graphics/SVG/1.1/DTD/svg11.dtd">
<!-- Generated by graphviz version 12.2.1 (20241206.2353)
 -->
<!-- Title: SequenceRelationship Pages: 1 -->
<svg width="676pt" height="491pt"
 viewBox="0.00 0.00 676.33 490.59" xmlns="http://www.w3.org/2000/svg" xmlns:xlink="http://www.w3.org/1999/xlink">
<g id="graph0" class="graph" transform="scale(1 1) rotate(0) translate(4 486.59)">
<title>SequenceRelationship</title>
<polygon fill="white" stroke="none" points="-4,4 -4,-486.59 672.33,-486.59 672.33,4 -4,4"/>
<!-- Tag&#45;&gt;Keyword -->
<g id="edge2" class="edge">
<title>Tag&#45;&gt;Keyword</title>
<path fill="none" stroke="black" stroke-dasharray="1,5" d="M72.52,-168.44C102.11,-168.28 150.63,-168.02 185.98,-167.83"/>
<polygon fill="black" stroke="black" points="185.92,-171.33 195.9,-167.77 185.88,-164.33 185.92,-171.33"/>
</g>
<!-- SequenceRelationship&#45;&gt;Identifier -->
<g id="edge1" class="edge">
<title>SequenceRelationship&#45;&gt;Identifier</title>
<path fill="none" stroke="black" d="M166.14,-243.98C142.21,-250.88 115.45,-258.61 93.3,-265"/>
<polygon fill="black" stroke="black" points="92.59,-261.56 83.95,-267.7 94.53,-268.29 92.59,-261.56"/>
</g>
<!-- SequenceRelationship&#45;&gt;Tag -->
<g id="edge6" class="edge">
<title>SequenceRelationship&#45;&gt;Tag</title>
<path fill="none" stroke="black" d="M167.16,-207.04C153.71,-202.99 139.58,-198.69 126.42,-194.59 111.42,-189.91 94.9,-184.59 80.78,-179.98"/>
<polygon fill="black" stroke="black" points="82.06,-176.72 71.47,-176.93 79.89,-183.37 82.06,-176.72"/>
</g>
<!-- SequenceRelationship&#45;&gt;Note -->
<g id="edge3" class="edge">
<title>SequenceRelationship&#45;&gt;Note</title>
<path fill="none" stroke="black" d="M126.11,-225.02C111.86,-224.94 97.99,-224.87 85.92,-224.8"/>
<polygon fill="black" stroke="black" points="86.04,-221.3 76.02,-224.75 86,-228.3 86.04,-221.3"/>
</g>
<!-- SequenceRelationship&#45;&gt;PinboardItem -->
<g id="edge4" class="edge">
<title>SequenceRelationship&#45;&gt;PinboardItem</title>
<path fill="none" stroke="black" d="M241.69,-247.81C261.11,-289.67 308.11,-381.06 371.33,-437.59 372.09,-438.27 372.87,-438.93 373.66,-439.59"/>
<polygon fill="black" stroke="black" points="371.36,-442.24 381.52,-445.24 375.45,-436.56 371.36,-442.24"/>
</g>
<!-- SequenceRelationship&#45;&gt;Role -->
<g id="edge5" class="edge">
<title>SequenceRelationship&#45;&gt;Role</title>
<path fill="none" stroke="black" d="M247.29,-247.88C270.94,-280.85 318.97,-343.04 371.33,-383.59 376.52,-387.6 382.39,-391.29 388.3,-394.56"/>
<polygon fill="black" stroke="black" points="386.32,-397.47 396.81,-398.96 389.54,-391.26 386.32,-397.47"/>
</g>
<!-- SequenceRelationship&#45;&gt;Uri -->
<g id="edge7" class="edge">
<title>SequenceRelationship&#45;&gt;Uri</title>
<path fill="none" stroke="black" d="M258.93,-247.95C286.34,-270.06 330.4,-304.18 371.33,-329.59 376.6,-332.86 382.32,-336.08 387.99,-339.1"/>
<polygon fill="black" stroke="black" points="386.19,-342.11 396.68,-343.57 389.39,-335.88 386.19,-342.11"/>
</g>
<!-- SequenceRelationship&#45;&gt;Uuid -->
<g id="edge8" class="edge">
<title>SequenceRelationship&#45;&gt;Uuid</title>
<path fill="none" stroke="black" d="M283.23,-246.12C316.18,-259.29 358.17,-276.08 387.77,-287.92"/>
<polygon fill="black" stroke="black" points="386.09,-291.02 396.67,-291.48 388.69,-284.52 386.09,-291.02"/>
</g>
<!-- SequenceRelationship&#45;&gt;VerifierRole -->
<g id="edge9" class="edge">
<title>SequenceRelationship&#45;&gt;VerifierRole</title>
<path fill="none" stroke="black" d="M331.55,-237.49C345.74,-239.19 359.84,-240.87 372.6,-242.39"/>
<polygon fill="black" stroke="black" points="372.06,-245.85 382.41,-243.56 372.89,-238.9 372.06,-245.85"/>
</g>
<!-- SequenceRelationship&#45;&gt;Creator -->
<g id="edge11" class="edge">
<title>SequenceRelationship&#45;&gt;Creator</title>
<path fill="none" stroke="black" stroke-dasharray="5,2" d="M346.96,-223.5C390.95,-218.39 440,-207.12 479.58,-183.59 504.63,-168.69 523.58,-139.92 534.03,-120.99"/>
<polygon fill="black" stroke="black" points="346.68,-220.01 337.1,-224.54 347.41,-226.97 346.68,-220.01"/>
</g>
<!-- SequenceRelationship&#45;&gt;ObjectSequence -->
<g id="edge12" class="edge">
<title>SequenceRelationship&#45;&gt;ObjectSequence</title>
<path fill="none" stroke="black" stroke-dasharray="5,2" d="M307.22,-204.08C316.74,-201.05 326.3,-197.85 335.33,-194.59 351.46,-188.75 368.89,-181.53 384.02,-174.96"/>
<polygon fill="black" stroke="black" points="306.48,-200.65 297.98,-206.98 308.57,-207.33 306.48,-200.65"/>
</g>
<!-- SequenceRelationship&#45;&gt;Project -->
<g id="edge13" class="edge">
<title>SequenceRelationship&#45;&gt;Project</title>
<path fill="none" stroke="black" stroke-dasharray="5,2" d="M319.74,-204.78C325.27,-201.83 330.54,-198.45 335.33,-194.59 361.05,-173.87 347.57,-152.52 371.33,-129.59 378.85,-122.33 388.7,-116.6 397.88,-112.31"/>
<polygon fill="black" stroke="black" points="318.4,-201.54 310.89,-209.02 321.42,-207.86 318.4,-201.54"/>
</g>
<!-- SequenceRelationship&#45;&gt;SubjectSequence -->
<g id="edge14" class="edge">
<title>SequenceRelationship&#45;&gt;SubjectSequence</title>
<path fill="none" stroke="black" stroke-dasharray="5,2" d="M322.52,-204.78C327.15,-201.82 331.47,-198.44 335.33,-194.59 374.45,-155.57 335.85,-117.95 371.33,-75.59 373.99,-72.41 377.11,-69.57 380.49,-67.04"/>
<polygon fill="black" stroke="black" points="321,-201.62 313.97,-209.55 324.41,-207.73 321,-201.62"/>
</g>
<!-- SequenceRelationship&#45;&gt;Updater -->
<g id="edge15" class="edge">
<title>SequenceRelationship&#45;&gt;Updater</title>
<path fill="none" stroke="black" stroke-dasharray="5,2" d="M323.69,-204.65C327.92,-201.72 331.85,-198.38 335.33,-194.59 388.42,-136.72 310.4,-71.14 371.33,-21.59 446.48,39.54 567.23,-44.77 616.06,-84.2"/>
<polygon fill="black" stroke="black" points="322.07,-201.54 315.28,-209.68 325.66,-207.55 322.07,-201.54"/>
</g>
<!-- Role&#45;&gt;Verifier -->
<!-- VerifierRole&#45;&gt;Verifier -->
<g id="edge10" class="edge">
<title>VerifierRole&#45;&gt;Verifier</title>
<path fill="none" stroke="black" stroke-dasharray="1,5" d="M465.36,-267.02C470.25,-269.72 475.1,-272.61 479.58,-275.59 492.02,-283.86 504.76,-294.23 515.54,-303.67"/>
<polygon fill="black" stroke="black" points="513.17,-306.24 522.96,-310.3 517.84,-301.02 513.17,-306.24"/>
</g>
<!-- Creator&#45;&gt;Updater -->
<!-- Project&#45;&gt;Creator -->
<!-- Identifier -->
<g id="node1" class="node">
<title>Identifier</title>
<g id="a_node1"><a xlink:href="/develop/Data/models.html#identifier" xlink:title="Identifier" target="_top">
<ellipse fill="#abcdef" stroke="#dddeee" cx="45.21" cy="-278.59" rx="45.21" ry="18"/>
<text text-anchor="middle" x="45.21" y="-273.54" font-family="Times,serif" font-size="14.00">Identifier</text>
</a>
</g>
</g>
<!-- Tag -->
<g id="node2" class="node">
<title>Tag</title>
<g id="a_node2"><a xlink:href="/develop/Data/models.html#tag" xlink:title="Tag" target="_top">
<ellipse fill="#abcdef" stroke="#dddeee" cx="45.21" cy="-168.59" rx="27" ry="18"/>
<text text-anchor="middle" x="45.21" y="-163.54" font-family="Times,serif" font-size="14.00">Tag</text>
</a>
</g>
</g>
<!-- Note -->
<g id="node3" class="node">
<title>Note</title>
<g id="a_node3"><a xlink:href="/develop/Data/models.html#note" xlink:title="Note" target="_top">
<ellipse fill="#abcdef" stroke="#dddeee" cx="45.21" cy="-224.59" rx="28.83" ry="18"/>
<text text-anchor="middle" x="45.21" y="-219.54" font-family="Times,serif" font-size="14.00">Note</text>
</a>
</g>
</g>
<!-- SequenceRelationship -->
<g id="node4" class="node">
<title>SequenceRelationship</title>
<g id="a_node4"><a xlink:href="/develop/Data/models.html#sequence-relationship" xlink:title="SequenceRelationship" target="_top">
<polygon fill="#cdefab" stroke="#dedede" points="331.33,-218.13 331.33,-233.04 272.48,-243.59 189.26,-243.59 130.42,-233.04 130.42,-218.13 189.26,-207.59 272.48,-207.59 331.33,-218.13"/>
<polygon fill="none" stroke="#dedede" points="335.33,-214.78 335.33,-236.39 272.84,-247.59 188.91,-247.59 126.42,-236.39 126.42,-214.78 188.91,-203.59 272.84,-203.59 335.33,-214.78"/>
<text text-anchor="middle" x="230.87" y="-220.54" font-family="Times,serif" font-size="14.00">SequenceRelationship</text>
</a>
</g>
</g>
<!-- Keyword -->
<g id="node5" class="node">
<title>Keyword</title>
<g id="a_node5"><a xlink:href="/develop/Data/models.html#keyword" xlink:title="Keyword" target="_top">
<polygon fill="#eeefff" stroke="#dddeee" points="264,-185.59 197.75,-185.59 197.75,-149.59 264,-149.59 264,-185.59"/>
<text text-anchor="middle" x="230.87" y="-162.54" font-family="Times,serif" font-size="14.00">Keyword</text>
</a>
</g>
</g>
<!-- PinboardItem -->
<g id="node6" class="node">
<title>PinboardItem</title>
<g id="a_node6"><a xlink:href="/develop/Data/models.html#pinboard-item" xlink:title="PinboardItem" target="_top">
<polygon fill="#eeefff" stroke="#dddeee" points="470.58,-482.59 380.33,-482.59 380.33,-446.59 470.58,-446.59 470.58,-482.59"/>
<text text-anchor="middle" x="425.45" y="-459.54" font-family="Times,serif" font-size="14.00">PinboardItem</text>
</a>
</g>
</g>
<!-- Role -->
<g id="node7" class="node">
<title>Role</title>
<g id="a_node7"><a xlink:href="/develop/Data/models.html#role" xlink:title="Role" target="_top">
<polygon fill="#eeefff" stroke="#dddeee" points="452.45,-428.59 398.45,-428.59 398.45,-392.59 452.45,-392.59 452.45,-428.59"/>
<text text-anchor="middle" x="425.45" y="-405.54" font-family="Times,serif" font-size="14.00">Role</text>
</a>
</g>
</g>
<!-- Uri -->
<g id="node8" class="node">
<title>Uri</title>
<g id="a_node8"><a xlink:href="/develop/Data/models.html#uri" xlink:title="Uri" target="_top">
<polygon fill="#eeefff" stroke="#dddeee" points="452.45,-374.59 398.45,-374.59 398.45,-338.59 452.45,-338.59 452.45,-374.59"/>
<text text-anchor="middle" x="425.45" y="-351.54" font-family="Times,serif" font-size="14.00">Uri</text>
</a>
</g>
</g>
<!-- Uuid -->
<g id="node9" class="node">
<title>Uuid</title>
<g id="a_node9"><a xlink:href="/develop/Data/models.html#uuid" xlink:title="Uuid" target="_top">
<polygon fill="#eeefff" stroke="#dddeee" points="452.45,-320.59 398.45,-320.59 398.45,-284.59 452.45,-284.59 452.45,-320.59"/>
<text text-anchor="middle" x="425.45" y="-297.54" font-family="Times,serif" font-size="14.00">Uuid</text>
</a>
</g>
</g>
<!-- VerifierRole -->
<g id="node10" class="node">
<title>VerifierRole</title>
<g id="a_node10"><a xlink:href="/develop/Data/models.html#verifier-role" xlink:title="VerifierRole" target="_top">
<polygon fill="#eeefff" stroke="#dddeee" points="466.83,-266.59 384.08,-266.59 384.08,-230.59 466.83,-230.59 466.83,-266.59"/>
<text text-anchor="middle" x="425.45" y="-243.54" font-family="Times,serif" font-size="14.00">VerifierRole</text>
</a>
</g>
</g>
<!-- Verifier -->
<g id="node11" class="node">
<title>Verifier</title>
<g id="a_node11"><a xlink:href="/develop/Data/models.html#verifier" xlink:title="Verifier" target="_top">
<polygon fill="#eeefff" stroke="#dddeee" points="572.83,-347.59 515.58,-347.59 515.58,-311.59 572.83,-311.59 572.83,-347.59"/>
<text text-anchor="middle" x="544.2" y="-324.54" font-family="Times,serif" font-size="14.00">Verifier</text>
</a>
</g>
</g>
<!-- Creator -->
<g id="node12" class="node">
<title>Creator</title>
<g id="a_node12"><a xlink:href="/develop/Data/models.html#creator" xlink:title="Creator" target="_top">
<polygon fill="#eeefff" stroke="#dddeee" points="572.45,-120.59 515.95,-120.59 515.95,-84.59 572.45,-84.59 572.45,-120.59"/>
<text text-anchor="middle" x="544.2" y="-97.54" font-family="Times,serif" font-size="14.00">Creator</text>
</a>
</g>
</g>
<!-- ObjectSequence -->
<g id="node13" class="node">
<title>ObjectSequence</title>
<g id="a_node13"><a xlink:href="/develop/Data/models.html#object-sequence" xlink:title="ObjectSequence" target="_top">
<polygon fill="#eeefff" stroke="#dddeee" points="477.33,-174.59 373.58,-174.59 373.58,-138.59 477.33,-138.59 477.33,-174.59"/>
<text text-anchor="middle" x="425.45" y="-151.54" font-family="Times,serif" font-size="14.00">ObjectSequence</text>
</a>
</g>
</g>
<!-- Project -->
<g id="node14" class="node">
<title>Project</title>
<g id="a_node14"><a xlink:href="/develop/Data/models.html#project" xlink:title="Project" target="_top">
<polygon fill="#eeefff" stroke="#dddeee" points="452.58,-120.59 398.33,-120.59 398.33,-84.59 452.58,-84.59 452.58,-120.59"/>
<text text-anchor="middle" x="425.45" y="-97.54" font-family="Times,serif" font-size="14.00">Project</text>
</a>
</g>
</g>
<!-- SubjectSequence -->
<g id="node15" class="node">
<title>SubjectSequence</title>
<g id="a_node15"><a xlink:href="/develop/Data/models.html#subject-sequence" xlink:title="SubjectSequence" target="_top">
<polygon fill="#eeefff" stroke="#dddeee" points="479.58,-66.59 371.33,-66.59 371.33,-30.59 479.58,-30.59 479.58,-66.59"/>
<text text-anchor="middle" x="425.45" y="-43.54" font-family="Times,serif" font-size="14.00">SubjectSequence</text>
</a>
</g>
</g>
<!-- Updater -->
<g id="node16" class="node">
<title>Updater</title>
<g id="a_node16"><a xlink:href="/develop/Data/models.html#updater" xlink:title="Updater" target="_top">
<polygon fill="#eeefff" stroke="#dddeee" points="668.33,-120.59 608.83,-120.59 608.83,-84.59 668.33,-84.59 668.33,-120.59"/>
<text text-anchor="middle" x="638.58" y="-97.54" font-family="Times,serif" font-size="14.00">Updater</text>
</a>
</g>
</g>
</g>
</svg>
