<?xml version="1.0" encoding="UTF-8" standalone="no"?>
<!DOCTYPE svg PUBLIC "-//W3C//DTD SVG 1.1//EN"
 "http://www.w3.org/Graphics/SVG/1.1/DTD/svg11.dtd">
<!-- Generated by graphviz version 2.50.0 (20211204.2007)
 -->
<!-- Title: Serial Pages: 1 -->
<svg width="749pt" height="609pt"
 viewBox="0.00 0.00 749.39 609.35" xmlns="http://www.w3.org/2000/svg" xmlns:xlink="http://www.w3.org/1999/xlink">
<g id="graph0" class="graph" transform="scale(1 1) rotate(0) translate(4 605.35)">
<title>Serial</title>
<polygon fill="white" stroke="transparent" points="-4,4 -4,-605.35 745.39,-605.35 745.39,4 -4,4"/>
<!-- AlternateValue&#45;&gt;AlternateValueLanguage -->
<g id="edge1" class="edge">
<title>AlternateValue&#45;&gt;AlternateValueLanguage</title>
<path fill="none" stroke="black" d="M127.71,-408.85C135.98,-408.85 144.57,-408.85 153.13,-408.85"/>
<polygon fill="black" stroke="black" points="153.14,-412.35 163.14,-408.85 153.14,-405.35 153.14,-412.35"/>
</g>
<!-- Tag&#45;&gt;Keyword -->
<g id="edge7" class="edge">
<title>Tag&#45;&gt;Keyword</title>
<path fill="none" stroke="black" d="M91,-192.85C118.58,-192.85 162.36,-192.85 194.96,-192.85"/>
<polygon fill="black" stroke="black" points="195.11,-196.35 205.11,-192.85 195.11,-189.35 195.11,-196.35"/>
</g>
<!-- Serial&#45;&gt;AlternateValue -->
<g id="edge2" class="edge">
<title>Serial&#45;&gt;AlternateValue</title>
<path fill="none" stroke="black" d="M216.46,-318.83C194.89,-336.37 160.22,-363.07 127.39,-381.85 122.31,-384.75 116.87,-387.54 111.38,-390.15"/>
<polygon fill="black" stroke="black" points="109.81,-387.01 102.17,-394.35 112.72,-393.38 109.81,-387.01"/>
</g>
<!-- Serial&#45;&gt;DataAttribute -->
<g id="edge3" class="edge">
<title>Serial&#45;&gt;DataAttribute</title>
<path fill="none" stroke="black" d="M202.98,-289.97C177.85,-282.13 143.56,-271.44 115.41,-262.66"/>
<polygon fill="black" stroke="black" points="116.33,-259.28 105.74,-259.65 114.24,-265.96 116.33,-259.28"/>
</g>
<!-- Serial&#45;&gt;Identifier -->
<g id="edge4" class="edge">
<title>Serial&#45;&gt;Identifier</title>
<path fill="none" stroke="black" d="M202.98,-311.73C175.62,-320.26 137.4,-332.18 108.08,-341.32"/>
<polygon fill="black" stroke="black" points="107,-337.99 98.5,-344.31 109.09,-344.67 107,-337.99"/>
</g>
<!-- Serial&#45;&gt;Tag -->
<g id="edge14" class="edge">
<title>Serial&#45;&gt;Tag</title>
<path fill="none" stroke="black" d="M216.46,-282.86C194.89,-265.33 160.22,-238.63 127.39,-219.85 117.9,-214.42 107.11,-209.4 97.18,-205.19"/>
<polygon fill="black" stroke="black" points="98.21,-201.83 87.63,-201.28 95.56,-208.31 98.21,-201.83"/>
</g>
<!-- Serial&#45;&gt;Note -->
<g id="edge8" class="edge">
<title>Serial&#45;&gt;Note</title>
<path fill="none" stroke="black" d="M201.05,-300.85C171.88,-300.85 131.29,-300.85 102,-300.85"/>
<polygon fill="black" stroke="black" points="101.76,-297.35 91.76,-300.85 101.76,-304.35 101.76,-297.35"/>
</g>
<!-- Serial&#45;&gt;Source -->
<g id="edge12" class="edge">
<title>Serial&#45;&gt;Source</title>
<path fill="none" stroke="black" d="M261.93,-318.81C278.9,-333.86 301.56,-356.86 314.39,-381.85 350.26,-451.71 297.93,-496.4 350.39,-554.85 363.17,-569.09 383.24,-576.12 400.83,-579.58"/>
<polygon fill="black" stroke="black" points="400.39,-583.05 410.83,-581.23 401.53,-576.15 400.39,-583.05"/>
</g>
<!-- Serial&#45;&gt;SucceedingSerialChronology -->
<g id="edge13" class="edge">
<title>Serial&#45;&gt;SucceedingSerialChronology</title>
<path fill="none" stroke="black" d="M261.33,-319.13C277.97,-334.37 300.47,-357.46 314.39,-381.85 341.78,-429.84 311.49,-461.61 350.39,-500.85 351.32,-501.79 352.29,-502.7 353.29,-503.58"/>
<polygon fill="black" stroke="black" points="351.35,-506.5 361.44,-509.71 355.55,-500.9 351.35,-506.5"/>
</g>
<!-- Serial&#45;&gt;PrecedingSerialChronology -->
<g id="edge10" class="edge">
<title>Serial&#45;&gt;PrecedingSerialChronology</title>
<path fill="none" stroke="black" d="M259.44,-319.84C275.2,-335.67 297.46,-359.2 314.39,-381.85 333.01,-406.75 326.45,-422 350.39,-441.85 354.44,-445.21 358.89,-448.24 363.55,-450.96"/>
<polygon fill="black" stroke="black" points="362.27,-454.24 372.74,-455.83 365.54,-448.06 362.27,-454.24"/>
</g>
<!-- Serial&#45;&gt;PinboardItem -->
<g id="edge9" class="edge">
<title>Serial&#45;&gt;PinboardItem</title>
<path fill="none" stroke="black" d="M257.41,-321.34C282.48,-350.05 328.03,-399.74 350.39,-408.85 431.29,-441.82 534.36,-420.26 596.22,-401.3"/>
<polygon fill="black" stroke="black" points="597.29,-404.63 605.78,-398.29 595.19,-397.95 597.29,-404.63"/>
</g>
<!-- Serial&#45;&gt;Role -->
<g id="edge11" class="edge">
<title>Serial&#45;&gt;Role</title>
<path fill="none" stroke="black" d="M267.52,-285.89C289.55,-274.31 321.42,-258.37 350.39,-246.85 366.7,-240.36 385.22,-234.4 400.93,-229.74"/>
<polygon fill="black" stroke="black" points="402.17,-233.02 410.79,-226.87 400.21,-226.3 402.17,-233.02"/>
</g>
<!-- Serial&#45;&gt;Translation -->
<g id="edge15" class="edge">
<title>Serial&#45;&gt;Translation</title>
<path fill="none" stroke="black" d="M276.48,-305.86C308.04,-310.19 353.87,-316.47 388.46,-321.21"/>
<polygon fill="black" stroke="black" points="388.43,-324.74 398.81,-322.63 389.38,-317.8 388.43,-324.74"/>
</g>
<!-- Serial&#45;&gt;VerifierRole -->
<g id="edge16" class="edge">
<title>Serial&#45;&gt;VerifierRole</title>
<path fill="none" stroke="black" d="M276.48,-295.83C307.24,-291.62 351.54,-285.55 385.79,-280.85"/>
<polygon fill="black" stroke="black" points="386.64,-284.27 396.07,-279.44 385.69,-277.33 386.64,-284.27"/>
</g>
<!-- Serial&#45;&gt;Version -->
<g id="edge18" class="edge">
<title>Serial&#45;&gt;Version</title>
<path fill="none" stroke="black" d="M267.52,-315.81C289.55,-327.38 321.42,-343.33 350.39,-354.85 366.1,-361.1 383.86,-366.86 399.18,-371.44"/>
<polygon fill="black" stroke="black" points="398.28,-374.82 408.86,-374.27 400.24,-368.1 398.28,-374.82"/>
</g>
<!-- Serial&#45;&gt;Creator -->
<g id="edge19" class="edge">
<title>Serial&#45;&gt;Creator</title>
<path fill="none" stroke="black" stroke-dasharray="5,2" d="M265.31,-273.2C291.65,-245.08 331.55,-204.1 350.39,-192.85 368.49,-182.04 391.34,-175.15 409.01,-171.04"/>
<polygon fill="black" stroke="black" points="262.53,-271.05 258.27,-280.75 267.65,-275.83 262.53,-271.05"/>
</g>
<!-- Serial&#45;&gt;Language -->
<g id="edge20" class="edge">
<title>Serial&#45;&gt;Language</title>
<path fill="none" stroke="black" stroke-dasharray="5,2" d="M268.09,-274.67C283.16,-259.65 301.26,-239.84 314.39,-219.85 336.01,-186.92 320.97,-165.05 350.39,-138.85 364.84,-125.98 385.37,-119.24 402.81,-115.72"/>
<polygon fill="black" stroke="black" points="265.23,-272.58 260.52,-282.07 270.12,-277.58 265.23,-272.58"/>
</g>
<!-- Serial&#45;&gt;TranslatedFromSerial -->
<g id="edge21" class="edge">
<title>Serial&#45;&gt;TranslatedFromSerial</title>
<path fill="none" stroke="black" stroke-dasharray="5,2" d="M268.93,-275.84C284.48,-261.01 302.77,-241.01 314.39,-219.85 344.27,-165.42 307.41,-129.67 350.39,-84.85 355.94,-79.06 362.72,-74.5 370,-70.92"/>
<polygon fill="black" stroke="black" points="266.5,-273.32 261.55,-282.69 271.26,-278.45 266.5,-273.32"/>
</g>
<!-- Serial&#45;&gt;Updater -->
<g id="edge22" class="edge">
<title>Serial&#45;&gt;Updater</title>
<path fill="none" stroke="black" stroke-dasharray="5,2" d="M269.52,-276.15C285.26,-261.42 303.55,-241.41 314.39,-219.85 352.8,-143.45 284.51,-85.36 350.39,-30.85 410.31,18.74 454.12,0.29 525.39,-30.85 580.42,-54.89 622.04,-116.43 640.26,-147.42"/>
<polygon fill="black" stroke="black" points="267.09,-273.63 262.04,-282.95 271.8,-278.81 267.09,-273.63"/>
</g>
<!-- SucceedingSerialChronology&#45;&gt;ImmediatelyPrecedingSerial -->
<g id="edge5" class="edge">
<title>SucceedingSerialChronology&#45;&gt;ImmediatelyPrecedingSerial</title>
<path fill="none" stroke="black" d="M525.52,-527.85C535.26,-527.85 545.22,-527.85 555.06,-527.85"/>
<polygon fill="black" stroke="black" points="555.26,-531.35 565.26,-527.85 555.26,-524.35 555.26,-531.35"/>
</g>
<!-- PrecedingSerialChronology&#45;&gt;ImmediatelySucceedingSerial -->
<g id="edge6" class="edge">
<title>PrecedingSerialChronology&#45;&gt;ImmediatelySucceedingSerial</title>
<path fill="none" stroke="black" d="M521.57,-473.85C531.2,-473.85 541.1,-473.85 550.93,-473.85"/>
<polygon fill="black" stroke="black" points="551.12,-477.35 561.12,-473.85 551.12,-470.35 551.12,-477.35"/>
</g>
<!-- Role&#45;&gt;Verifier -->
<!-- VerifierRole&#45;&gt;Verifier -->
<g id="edge17" class="edge">
<title>VerifierRole&#45;&gt;Verifier</title>
<path fill="none" stroke="black" d="M479.67,-268.64C518.18,-263.73 575.46,-256.41 612.87,-251.64"/>
<polygon fill="black" stroke="black" points="613.38,-255.1 622.86,-250.36 612.5,-248.16 613.38,-255.1"/>
</g>
<!-- Version&#45;&gt;PinboardItem -->
<!-- Creator&#45;&gt;Updater -->
<!-- AlternateValue -->
<g id="node1" class="node">
<title>AlternateValue</title>
<g id="a_node1"><a xlink:href="/develop/Data/models.html#alternate-value" xlink:title="AlternateValue" target="_top">
<ellipse fill="#abcdef" stroke="#dddeee" cx="63.69" cy="-408.85" rx="63.89" ry="18"/>
<text text-anchor="middle" x="63.69" y="-405.15" font-family="Times,serif" font-size="14.00">AlternateValue</text>
</a>
</g>
</g>
<!-- DataAttribute -->
<g id="node2" class="node">
<title>DataAttribute</title>
<g id="a_node2"><a xlink:href="/develop/Data/models.html#data-attribute" xlink:title="DataAttribute" target="_top">
<ellipse fill="#abcdef" stroke="#dddeee" cx="63.69" cy="-246.85" rx="59.29" ry="18"/>
<text text-anchor="middle" x="63.69" y="-243.15" font-family="Times,serif" font-size="14.00">DataAttribute</text>
</a>
</g>
</g>
<!-- Identifier -->
<g id="node3" class="node">
<title>Identifier</title>
<g id="a_node3"><a xlink:href="/develop/Data/models.html#identifier" xlink:title="Identifier" target="_top">
<ellipse fill="#abcdef" stroke="#dddeee" cx="63.69" cy="-354.85" rx="42.79" ry="18"/>
<text text-anchor="middle" x="63.69" y="-351.15" font-family="Times,serif" font-size="14.00">Identifier</text>
</a>
</g>
</g>
<!-- Tag -->
<g id="node4" class="node">
<title>Tag</title>
<g id="a_node4"><a xlink:href="/develop/Data/models.html#tag" xlink:title="Tag" target="_top">
<ellipse fill="#abcdef" stroke="#dddeee" cx="63.69" cy="-192.85" rx="27" ry="18"/>
<text text-anchor="middle" x="63.69" y="-189.15" font-family="Times,serif" font-size="14.00">Tag</text>
</a>
</g>
</g>
<!-- Note -->
<g id="node5" class="node">
<title>Note</title>
<g id="a_node5"><a xlink:href="/develop/Data/models.html#note" xlink:title="Note" target="_top">
<ellipse fill="#abcdef" stroke="#dddeee" cx="63.69" cy="-300.85" rx="27.9" ry="18"/>
<text text-anchor="middle" x="63.69" y="-297.15" font-family="Times,serif" font-size="14.00">Note</text>
</a>
</g>
</g>
<!-- Source -->
<g id="node6" class="node">
<title>Source</title>
<g id="a_node6"><a xlink:href="/develop/Data/models.html#source" xlink:title="Source" target="_top">
<path fill="#fedcba" stroke="#dddeee" d="M422.89,-564.85C422.89,-564.85 452.89,-564.85 452.89,-564.85 458.89,-564.85 464.89,-570.85 464.89,-576.85 464.89,-576.85 464.89,-588.85 464.89,-588.85 464.89,-594.85 458.89,-600.85 452.89,-600.85 452.89,-600.85 422.89,-600.85 422.89,-600.85 416.89,-600.85 410.89,-594.85 410.89,-588.85 410.89,-588.85 410.89,-576.85 410.89,-576.85 410.89,-570.85 416.89,-564.85 422.89,-564.85"/>
<text text-anchor="middle" x="437.89" y="-579.15" font-family="Times,serif" font-size="14.00">Source</text>
</a>
</g>
</g>
<!-- Serial -->
<g id="node7" class="node">
<title>Serial</title>
<g id="a_node7"><a xlink:href="/develop/Data/models.html#serial" xlink:title="Serial" target="_top">
<polygon fill="#cdefab" stroke="#dedede" points="272.45,-293.39 272.45,-308.3 252.79,-318.85 224.99,-318.85 205.33,-308.3 205.33,-293.39 224.99,-282.85 252.79,-282.85 272.45,-293.39"/>
<polygon fill="none" stroke="#dedede" points="276.43,-290.99 276.43,-310.7 253.78,-322.85 223.99,-322.85 201.35,-310.7 201.35,-290.99 223.99,-278.85 253.78,-278.85 276.43,-290.99"/>
<text text-anchor="middle" x="238.89" y="-297.15" font-family="Times,serif" font-size="14.00">Serial</text>
</a>
</g>
</g>
<!-- AlternateValueLanguage -->
<g id="node8" class="node">
<title>AlternateValueLanguage</title>
<g id="a_node8"><a xlink:href="/develop/Data/models.html#alternate-value-language" xlink:title="AlternateValueLanguage" target="_top">
<polygon fill="#eeefff" stroke="#dddeee" points="314.39,-426.85 163.39,-426.85 163.39,-390.85 314.39,-390.85 314.39,-426.85"/>
<text text-anchor="middle" x="238.89" y="-405.15" font-family="Times,serif" font-size="14.00">AlternateValueLanguage</text>
</a>
</g>
</g>
<!-- SucceedingSerialChronology -->
<g id="node9" class="node">
<title>SucceedingSerialChronology</title>
<g id="a_node9"><a xlink:href="/develop/Data/models.html#succeeding-serial-chronology" xlink:title="SucceedingSerialChronology" target="_top">
<polygon fill="#eeefff" stroke="#dddeee" points="525.39,-545.85 350.39,-545.85 350.39,-509.85 525.39,-509.85 525.39,-545.85"/>
<text text-anchor="middle" x="437.89" y="-524.15" font-family="Times,serif" font-size="14.00">SucceedingSerialChronology</text>
</a>
</g>
</g>
<!-- ImmediatelyPrecedingSerial -->
<g id="node10" class="node">
<title>ImmediatelyPrecedingSerial</title>
<g id="a_node10"><a xlink:href="/develop/Data/models.html#immediately-preceding-serial" xlink:title="ImmediatelyPrecedingSerial" target="_top">
<polygon fill="#eeefff" stroke="#dddeee" points="737.39,-545.85 565.39,-545.85 565.39,-509.85 737.39,-509.85 737.39,-545.85"/>
<text text-anchor="middle" x="651.39" y="-524.15" font-family="Times,serif" font-size="14.00">ImmediatelyPrecedingSerial</text>
</a>
</g>
</g>
<!-- PrecedingSerialChronology -->
<g id="node11" class="node">
<title>PrecedingSerialChronology</title>
<g id="a_node11"><a xlink:href="/develop/Data/models.html#preceding-serial-chronology" xlink:title="PrecedingSerialChronology" target="_top">
<polygon fill="#eeefff" stroke="#dddeee" points="521.39,-491.85 354.39,-491.85 354.39,-455.85 521.39,-455.85 521.39,-491.85"/>
<text text-anchor="middle" x="437.89" y="-470.15" font-family="Times,serif" font-size="14.00">PrecedingSerialChronology</text>
</a>
</g>
</g>
<!-- ImmediatelySucceedingSerial -->
<g id="node12" class="node">
<title>ImmediatelySucceedingSerial</title>
<g id="a_node12"><a xlink:href="/develop/Data/models.html#immediately-succeeding-serial" xlink:title="ImmediatelySucceedingSerial" target="_top">
<polygon fill="#eeefff" stroke="#dddeee" points="741.39,-491.85 561.39,-491.85 561.39,-455.85 741.39,-455.85 741.39,-491.85"/>
<text text-anchor="middle" x="651.39" y="-470.15" font-family="Times,serif" font-size="14.00">ImmediatelySucceedingSerial</text>
</a>
</g>
</g>
<!-- Keyword -->
<g id="node13" class="node">
<title>Keyword</title>
<g id="a_node13"><a xlink:href="/develop/Data/models.html#keyword" xlink:title="Keyword" target="_top">
<polygon fill="#eeefff" stroke="#dddeee" points="272.39,-210.85 205.39,-210.85 205.39,-174.85 272.39,-174.85 272.39,-210.85"/>
<text text-anchor="middle" x="238.89" y="-189.15" font-family="Times,serif" font-size="14.00">Keyword</text>
</a>
</g>
</g>
<!-- PinboardItem -->
<g id="node14" class="node">
<title>PinboardItem</title>
<g id="a_node14"><a xlink:href="/develop/Data/models.html#pinboard-item" xlink:title="PinboardItem" target="_top">
<polygon fill="#eeefff" stroke="#dddeee" points="696.89,-399.85 605.89,-399.85 605.89,-363.85 696.89,-363.85 696.89,-399.85"/>
<text text-anchor="middle" x="651.39" y="-378.15" font-family="Times,serif" font-size="14.00">PinboardItem</text>
</a>
</g>
</g>
<!-- Role -->
<g id="node15" class="node">
<title>Role</title>
<g id="a_node15"><a xlink:href="/develop/Data/models.html#role" xlink:title="Role" target="_top">
<polygon fill="#eeefff" stroke="#dddeee" points="464.89,-237.85 410.89,-237.85 410.89,-201.85 464.89,-201.85 464.89,-237.85"/>
<text text-anchor="middle" x="437.89" y="-216.15" font-family="Times,serif" font-size="14.00">Role</text>
</a>
</g>
</g>
<!-- Translation -->
<g id="node16" class="node">
<title>Translation</title>
<g id="a_node16"><a xlink:href="/develop/Data/models.html#translation" xlink:title="Translation" target="_top">
<polygon fill="#eeefff" stroke="#dddeee" points="476.89,-345.85 398.89,-345.85 398.89,-309.85 476.89,-309.85 476.89,-345.85"/>
<text text-anchor="middle" x="437.89" y="-324.15" font-family="Times,serif" font-size="14.00">Translation</text>
</a>
</g>
</g>
<!-- VerifierRole -->
<g id="node17" class="node">
<title>VerifierRole</title>
<g id="a_node17"><a xlink:href="/develop/Data/models.html#verifier-role" xlink:title="VerifierRole" target="_top">
<polygon fill="#eeefff" stroke="#dddeee" points="479.39,-291.85 396.39,-291.85 396.39,-255.85 479.39,-255.85 479.39,-291.85"/>
<text text-anchor="middle" x="437.89" y="-270.15" font-family="Times,serif" font-size="14.00">VerifierRole</text>
</a>
</g>
</g>
<!-- Verifier -->
<g id="node18" class="node">
<title>Verifier</title>
<g id="a_node18"><a xlink:href="/develop/Data/models.html#verifier" xlink:title="Verifier" target="_top">
<polygon fill="#eeefff" stroke="#dddeee" points="679.89,-264.85 622.89,-264.85 622.89,-228.85 679.89,-228.85 679.89,-264.85"/>
<text text-anchor="middle" x="651.39" y="-243.15" font-family="Times,serif" font-size="14.00">Verifier</text>
</a>
</g>
</g>
<!-- Version -->
<g id="node19" class="node">
<title>Version</title>
<g id="a_node19"><a xlink:href="/develop/Data/models.html#version" xlink:title="Version" target="_top">
<polygon fill="#eeefff" stroke="#dddeee" points="466.89,-399.85 408.89,-399.85 408.89,-363.85 466.89,-363.85 466.89,-399.85"/>
<text text-anchor="middle" x="437.89" y="-378.15" font-family="Times,serif" font-size="14.00">Version</text>
</a>
</g>
</g>
<!-- Creator -->
<g id="node20" class="node">
<title>Creator</title>
<g id="a_node20"><a xlink:href="/develop/Data/models.html#creator" xlink:title="Creator" target="_top">
<polygon fill="#eeefff" stroke="#dddeee" points="466.39,-183.85 409.39,-183.85 409.39,-147.85 466.39,-147.85 466.39,-183.85"/>
<text text-anchor="middle" x="437.89" y="-162.15" font-family="Times,serif" font-size="14.00">Creator</text>
</a>
</g>
</g>
<!-- Language -->
<g id="node21" class="node">
<title>Language</title>
<g id="a_node21"><a xlink:href="/develop/Data/models.html#language" xlink:title="Language" target="_top">
<polygon fill="#eeefff" stroke="#dddeee" points="472.89,-129.85 402.89,-129.85 402.89,-93.85 472.89,-93.85 472.89,-129.85"/>
<text text-anchor="middle" x="437.89" y="-108.15" font-family="Times,serif" font-size="14.00">Language</text>
</a>
</g>
</g>
<!-- TranslatedFromSerial -->
<g id="node22" class="node">
<title>TranslatedFromSerial</title>
<g id="a_node22"><a xlink:href="/develop/Data/models.html#translated-from-serial" xlink:title="TranslatedFromSerial" target="_top">
<polygon fill="#eeefff" stroke="#dddeee" points="505.39,-75.85 370.39,-75.85 370.39,-39.85 505.39,-39.85 505.39,-75.85"/>
<text text-anchor="middle" x="437.89" y="-54.15" font-family="Times,serif" font-size="14.00">TranslatedFromSerial</text>
</a>
</g>
</g>
<!-- Updater -->
<g id="node23" class="node">
<title>Updater</title>
<g id="a_node23"><a xlink:href="/develop/Data/models.html#updater" xlink:title="Updater" target="_top">
<polygon fill="#eeefff" stroke="#dddeee" points="681.39,-183.85 621.39,-183.85 621.39,-147.85 681.39,-147.85 681.39,-183.85"/>
<text text-anchor="middle" x="651.39" y="-162.15" font-family="Times,serif" font-size="14.00">Updater</text>
</a>
</g>
</g>
</g>
</svg>
