<?xml version="1.0" encoding="UTF-8" standalone="no"?>
<!DOCTYPE svg PUBLIC "-//W3C//DTD SVG 1.1//EN"
 "http://www.w3.org/Graphics/SVG/1.1/DTD/svg11.dtd">
<!-- Generated by graphviz version 2.50.0 (20211204.2007)
 -->
<!-- Title: Serial Pages: 1 -->
<svg width="749pt" height="647pt"
 viewBox="0.00 0.00 749.39 647.35" xmlns="http://www.w3.org/2000/svg" xmlns:xlink="http://www.w3.org/1999/xlink">
<g id="graph0" class="graph" transform="scale(1 1) rotate(0) translate(4 643.35)">
<title>Serial</title>
<polygon fill="white" stroke="transparent" points="-4,4 -4,-643.35 745.39,-643.35 745.39,4 -4,4"/>
<text text-anchor="middle" x="370.69" y="-22.8" font-family="Times,serif" font-size="14.00">Algorithmically generated relationships for Serial based on assertions of &#39;has_many&#39;, &#39;has_one&#39;, &#39;belongs_to&#39;. </text>
<text text-anchor="middle" x="370.69" y="-7.8" font-family="Times,serif" font-size="14.00">Generated 2022&#45;01&#45;25 11:43:44 &#45;0600.</text>
<!-- AlternateValue&#45;&gt;AlternateValueLanguage -->
<g id="edge1" class="edge">
<title>AlternateValue&#45;&gt;AlternateValueLanguage</title>
<path fill="none" stroke="black" d="M127.71,-446.85C135.98,-446.85 144.57,-446.85 153.13,-446.85"/>
<polygon fill="black" stroke="black" points="153.14,-450.35 163.14,-446.85 153.14,-443.35 153.14,-450.35"/>
</g>
<!-- Tag&#45;&gt;Keyword -->
<g id="edge7" class="edge">
<title>Tag&#45;&gt;Keyword</title>
<path fill="none" stroke="black" d="M91,-230.85C118.58,-230.85 162.36,-230.85 194.96,-230.85"/>
<polygon fill="black" stroke="black" points="195.11,-234.35 205.11,-230.85 195.11,-227.35 195.11,-234.35"/>
</g>
<!-- Serial&#45;&gt;AlternateValue -->
<g id="edge2" class="edge">
<title>Serial&#45;&gt;AlternateValue</title>
<path fill="none" stroke="black" d="M216.46,-356.83C194.89,-374.37 160.22,-401.07 127.39,-419.85 122.31,-422.75 116.87,-425.54 111.38,-428.15"/>
<polygon fill="black" stroke="black" points="109.81,-425.01 102.17,-432.35 112.72,-431.38 109.81,-425.01"/>
</g>
<!-- Serial&#45;&gt;DataAttribute -->
<g id="edge3" class="edge">
<title>Serial&#45;&gt;DataAttribute</title>
<path fill="none" stroke="black" d="M202.98,-327.97C177.85,-320.13 143.56,-309.44 115.41,-300.66"/>
<polygon fill="black" stroke="black" points="116.33,-297.28 105.74,-297.65 114.24,-303.96 116.33,-297.28"/>
</g>
<!-- Serial&#45;&gt;Identifier -->
<g id="edge4" class="edge">
<title>Serial&#45;&gt;Identifier</title>
<path fill="none" stroke="black" d="M202.98,-349.73C175.62,-358.26 137.4,-370.18 108.08,-379.32"/>
<polygon fill="black" stroke="black" points="107,-375.99 98.5,-382.31 109.09,-382.67 107,-375.99"/>
</g>
<!-- Serial&#45;&gt;Tag -->
<g id="edge14" class="edge">
<title>Serial&#45;&gt;Tag</title>
<path fill="none" stroke="black" d="M216.46,-320.86C194.89,-303.33 160.22,-276.63 127.39,-257.85 117.9,-252.42 107.11,-247.4 97.18,-243.19"/>
<polygon fill="black" stroke="black" points="98.21,-239.83 87.63,-239.28 95.56,-246.31 98.21,-239.83"/>
</g>
<!-- Serial&#45;&gt;Note -->
<g id="edge8" class="edge">
<title>Serial&#45;&gt;Note</title>
<path fill="none" stroke="black" d="M201.05,-338.85C171.88,-338.85 131.29,-338.85 102,-338.85"/>
<polygon fill="black" stroke="black" points="101.76,-335.35 91.76,-338.85 101.76,-342.35 101.76,-335.35"/>
</g>
<!-- Serial&#45;&gt;Source -->
<g id="edge12" class="edge">
<title>Serial&#45;&gt;Source</title>
<path fill="none" stroke="black" d="M261.93,-356.81C278.9,-371.86 301.56,-394.86 314.39,-419.85 350.26,-489.71 297.93,-534.4 350.39,-592.85 363.17,-607.09 383.24,-614.12 400.83,-617.58"/>
<polygon fill="black" stroke="black" points="400.39,-621.05 410.83,-619.23 401.53,-614.15 400.39,-621.05"/>
</g>
<!-- Serial&#45;&gt;SucceedingSerialChronology -->
<g id="edge13" class="edge">
<title>Serial&#45;&gt;SucceedingSerialChronology</title>
<path fill="none" stroke="black" d="M261.33,-357.13C277.97,-372.37 300.47,-395.46 314.39,-419.85 341.78,-467.84 311.49,-499.61 350.39,-538.85 351.32,-539.79 352.29,-540.7 353.29,-541.58"/>
<polygon fill="black" stroke="black" points="351.35,-544.5 361.44,-547.71 355.55,-538.9 351.35,-544.5"/>
</g>
<!-- Serial&#45;&gt;PrecedingSerialChronology -->
<g id="edge10" class="edge">
<title>Serial&#45;&gt;PrecedingSerialChronology</title>
<path fill="none" stroke="black" d="M259.44,-357.84C275.2,-373.67 297.46,-397.2 314.39,-419.85 333.01,-444.75 326.45,-460 350.39,-479.85 354.44,-483.21 358.89,-486.24 363.55,-488.96"/>
<polygon fill="black" stroke="black" points="362.27,-492.24 372.74,-493.83 365.54,-486.06 362.27,-492.24"/>
</g>
<!-- Serial&#45;&gt;PinboardItem -->
<g id="edge9" class="edge">
<title>Serial&#45;&gt;PinboardItem</title>
<path fill="none" stroke="black" d="M257.41,-359.34C282.48,-388.05 328.03,-437.74 350.39,-446.85 431.29,-479.82 534.36,-458.26 596.22,-439.3"/>
<polygon fill="black" stroke="black" points="597.29,-442.63 605.78,-436.29 595.19,-435.95 597.29,-442.63"/>
</g>
<!-- Serial&#45;&gt;Role -->
<g id="edge11" class="edge">
<title>Serial&#45;&gt;Role</title>
<path fill="none" stroke="black" d="M267.52,-323.89C289.55,-312.31 321.42,-296.37 350.39,-284.85 366.7,-278.36 385.22,-272.4 400.93,-267.74"/>
<polygon fill="black" stroke="black" points="402.17,-271.02 410.79,-264.87 400.21,-264.3 402.17,-271.02"/>
</g>
<!-- Serial&#45;&gt;Translation -->
<g id="edge15" class="edge">
<title>Serial&#45;&gt;Translation</title>
<path fill="none" stroke="black" d="M276.48,-343.86C308.04,-348.19 353.87,-354.47 388.46,-359.21"/>
<polygon fill="black" stroke="black" points="388.43,-362.74 398.81,-360.63 389.38,-355.8 388.43,-362.74"/>
</g>
<!-- Serial&#45;&gt;VerifierRole -->
<g id="edge16" class="edge">
<title>Serial&#45;&gt;VerifierRole</title>
<path fill="none" stroke="black" d="M276.48,-333.83C307.24,-329.62 351.54,-323.55 385.79,-318.85"/>
<polygon fill="black" stroke="black" points="386.64,-322.27 396.07,-317.44 385.69,-315.33 386.64,-322.27"/>
</g>
<!-- Serial&#45;&gt;Version -->
<g id="edge18" class="edge">
<title>Serial&#45;&gt;Version</title>
<path fill="none" stroke="black" d="M267.52,-353.81C289.55,-365.38 321.42,-381.33 350.39,-392.85 366.1,-399.1 383.86,-404.86 399.18,-409.44"/>
<polygon fill="black" stroke="black" points="398.28,-412.82 408.86,-412.27 400.24,-406.1 398.28,-412.82"/>
</g>
<!-- Serial&#45;&gt;Creator -->
<g id="edge19" class="edge">
<title>Serial&#45;&gt;Creator</title>
<path fill="none" stroke="black" stroke-dasharray="5,2" d="M265.31,-311.2C291.65,-283.08 331.55,-242.1 350.39,-230.85 368.49,-220.04 391.34,-213.15 409.01,-209.04"/>
<polygon fill="black" stroke="black" points="262.53,-309.05 258.27,-318.75 267.65,-313.83 262.53,-309.05"/>
</g>
<!-- Serial&#45;&gt;Language -->
<g id="edge20" class="edge">
<title>Serial&#45;&gt;Language</title>
<path fill="none" stroke="black" stroke-dasharray="5,2" d="M268.09,-312.67C283.16,-297.65 301.26,-277.84 314.39,-257.85 336.01,-224.92 320.97,-203.05 350.39,-176.85 364.84,-163.98 385.37,-157.24 402.81,-153.72"/>
<polygon fill="black" stroke="black" points="265.23,-310.58 260.52,-320.07 270.12,-315.58 265.23,-310.58"/>
</g>
<!-- Serial&#45;&gt;TranslatedFromSerial -->
<g id="edge21" class="edge">
<title>Serial&#45;&gt;TranslatedFromSerial</title>
<path fill="none" stroke="black" stroke-dasharray="5,2" d="M268.93,-313.84C284.48,-299.01 302.77,-279.01 314.39,-257.85 344.27,-203.42 307.41,-167.67 350.39,-122.85 355.94,-117.06 362.72,-112.5 370,-108.92"/>
<polygon fill="black" stroke="black" points="266.5,-311.32 261.55,-320.69 271.26,-316.45 266.5,-311.32"/>
</g>
<!-- Serial&#45;&gt;Updater -->
<g id="edge22" class="edge">
<title>Serial&#45;&gt;Updater</title>
<path fill="none" stroke="black" stroke-dasharray="5,2" d="M269.52,-314.15C285.26,-299.42 303.55,-279.41 314.39,-257.85 352.8,-181.45 284.51,-123.36 350.39,-68.85 410.31,-19.26 454.12,-37.71 525.39,-68.85 580.42,-92.89 622.04,-154.43 640.26,-185.42"/>
<polygon fill="black" stroke="black" points="267.09,-311.63 262.04,-320.95 271.8,-316.81 267.09,-311.63"/>
</g>
<!-- SucceedingSerialChronology&#45;&gt;ImmediatelyPrecedingSerial -->
<g id="edge5" class="edge">
<title>SucceedingSerialChronology&#45;&gt;ImmediatelyPrecedingSerial</title>
<path fill="none" stroke="black" d="M525.52,-565.85C535.26,-565.85 545.22,-565.85 555.06,-565.85"/>
<polygon fill="black" stroke="black" points="555.26,-569.35 565.26,-565.85 555.26,-562.35 555.26,-569.35"/>
</g>
<!-- PrecedingSerialChronology&#45;&gt;ImmediatelySucceedingSerial -->
<g id="edge6" class="edge">
<title>PrecedingSerialChronology&#45;&gt;ImmediatelySucceedingSerial</title>
<path fill="none" stroke="black" d="M521.57,-511.85C531.2,-511.85 541.1,-511.85 550.93,-511.85"/>
<polygon fill="black" stroke="black" points="551.12,-515.35 561.12,-511.85 551.12,-508.35 551.12,-515.35"/>
</g>
<!-- Role&#45;&gt;Verifier -->
<!-- VerifierRole&#45;&gt;Verifier -->
<g id="edge17" class="edge">
<title>VerifierRole&#45;&gt;Verifier</title>
<path fill="none" stroke="black" d="M479.67,-306.64C518.18,-301.73 575.46,-294.41 612.87,-289.64"/>
<polygon fill="black" stroke="black" points="613.38,-293.1 622.86,-288.36 612.5,-286.16 613.38,-293.1"/>
</g>
<!-- Version&#45;&gt;PinboardItem -->
<!-- Creator&#45;&gt;Updater -->
<!-- AlternateValue -->
<g id="node1" class="node">
<title>AlternateValue</title>
<g id="a_node1"><a xlink:href="/develop/Data/models.html#alternate-value" xlink:title="AlternateValue" target="_top">
<ellipse fill="#abcdef" stroke="#dddeee" cx="63.69" cy="-446.85" rx="63.89" ry="18"/>
<text text-anchor="middle" x="63.69" y="-443.15" font-family="Times,serif" font-size="14.00">AlternateValue</text>
</a>
</g>
</g>
<!-- DataAttribute -->
<g id="node2" class="node">
<title>DataAttribute</title>
<g id="a_node2"><a xlink:href="/develop/Data/models.html#data-attribute" xlink:title="DataAttribute" target="_top">
<ellipse fill="#abcdef" stroke="#dddeee" cx="63.69" cy="-284.85" rx="59.29" ry="18"/>
<text text-anchor="middle" x="63.69" y="-281.15" font-family="Times,serif" font-size="14.00">DataAttribute</text>
</a>
</g>
</g>
<!-- Identifier -->
<g id="node3" class="node">
<title>Identifier</title>
<g id="a_node3"><a xlink:href="/develop/Data/models.html#identifier" xlink:title="Identifier" target="_top">
<ellipse fill="#abcdef" stroke="#dddeee" cx="63.69" cy="-392.85" rx="42.79" ry="18"/>
<text text-anchor="middle" x="63.69" y="-389.15" font-family="Times,serif" font-size="14.00">Identifier</text>
</a>
</g>
</g>
<!-- Tag -->
<g id="node4" class="node">
<title>Tag</title>
<g id="a_node4"><a xlink:href="/develop/Data/models.html#tag" xlink:title="Tag" target="_top">
<ellipse fill="#abcdef" stroke="#dddeee" cx="63.69" cy="-230.85" rx="27" ry="18"/>
<text text-anchor="middle" x="63.69" y="-227.15" font-family="Times,serif" font-size="14.00">Tag</text>
</a>
</g>
</g>
<!-- Note -->
<g id="node5" class="node">
<title>Note</title>
<g id="a_node5"><a xlink:href="/develop/Data/models.html#note" xlink:title="Note" target="_top">
<ellipse fill="#abcdef" stroke="#dddeee" cx="63.69" cy="-338.85" rx="27.9" ry="18"/>
<text text-anchor="middle" x="63.69" y="-335.15" font-family="Times,serif" font-size="14.00">Note</text>
</a>
</g>
</g>
<!-- Source -->
<g id="node6" class="node">
<title>Source</title>
<g id="a_node6"><a xlink:href="/develop/Data/models.html#source" xlink:title="Source" target="_top">
<path fill="#fedcba" stroke="#dddeee" d="M422.89,-602.85C422.89,-602.85 452.89,-602.85 452.89,-602.85 458.89,-602.85 464.89,-608.85 464.89,-614.85 464.89,-614.85 464.89,-626.85 464.89,-626.85 464.89,-632.85 458.89,-638.85 452.89,-638.85 452.89,-638.85 422.89,-638.85 422.89,-638.85 416.89,-638.85 410.89,-632.85 410.89,-626.85 410.89,-626.85 410.89,-614.85 410.89,-614.85 410.89,-608.85 416.89,-602.85 422.89,-602.85"/>
<text text-anchor="middle" x="437.89" y="-617.15" font-family="Times,serif" font-size="14.00">Source</text>
</a>
</g>
</g>
<!-- Serial -->
<g id="node7" class="node">
<title>Serial</title>
<g id="a_node7"><a xlink:href="/develop/Data/models.html#serial" xlink:title="Serial" target="_top">
<polygon fill="#cdefab" stroke="#dedede" points="272.45,-331.39 272.45,-346.3 252.79,-356.85 224.99,-356.85 205.33,-346.3 205.33,-331.39 224.99,-320.85 252.79,-320.85 272.45,-331.39"/>
<polygon fill="none" stroke="#dedede" points="276.43,-328.99 276.43,-348.7 253.78,-360.85 223.99,-360.85 201.35,-348.7 201.35,-328.99 223.99,-316.85 253.78,-316.85 276.43,-328.99"/>
<text text-anchor="middle" x="238.89" y="-335.15" font-family="Times,serif" font-size="14.00">Serial</text>
</a>
</g>
</g>
<!-- AlternateValueLanguage -->
<g id="node8" class="node">
<title>AlternateValueLanguage</title>
<g id="a_node8"><a xlink:href="/develop/Data/models.html#alternate-value-language" xlink:title="AlternateValueLanguage" target="_top">
<polygon fill="#eeefff" stroke="#dddeee" points="314.39,-464.85 163.39,-464.85 163.39,-428.85 314.39,-428.85 314.39,-464.85"/>
<text text-anchor="middle" x="238.89" y="-443.15" font-family="Times,serif" font-size="14.00">AlternateValueLanguage</text>
</a>
</g>
</g>
<!-- SucceedingSerialChronology -->
<g id="node9" class="node">
<title>SucceedingSerialChronology</title>
<g id="a_node9"><a xlink:href="/develop/Data/models.html#succeeding-serial-chronology" xlink:title="SucceedingSerialChronology" target="_top">
<polygon fill="#eeefff" stroke="#dddeee" points="525.39,-583.85 350.39,-583.85 350.39,-547.85 525.39,-547.85 525.39,-583.85"/>
<text text-anchor="middle" x="437.89" y="-562.15" font-family="Times,serif" font-size="14.00">SucceedingSerialChronology</text>
</a>
</g>
</g>
<!-- ImmediatelyPrecedingSerial -->
<g id="node10" class="node">
<title>ImmediatelyPrecedingSerial</title>
<g id="a_node10"><a xlink:href="/develop/Data/models.html#immediately-preceding-serial" xlink:title="ImmediatelyPrecedingSerial" target="_top">
<polygon fill="#eeefff" stroke="#dddeee" points="737.39,-583.85 565.39,-583.85 565.39,-547.85 737.39,-547.85 737.39,-583.85"/>
<text text-anchor="middle" x="651.39" y="-562.15" font-family="Times,serif" font-size="14.00">ImmediatelyPrecedingSerial</text>
</a>
</g>
</g>
<!-- PrecedingSerialChronology -->
<g id="node11" class="node">
<title>PrecedingSerialChronology</title>
<g id="a_node11"><a xlink:href="/develop/Data/models.html#preceding-serial-chronology" xlink:title="PrecedingSerialChronology" target="_top">
<polygon fill="#eeefff" stroke="#dddeee" points="521.39,-529.85 354.39,-529.85 354.39,-493.85 521.39,-493.85 521.39,-529.85"/>
<text text-anchor="middle" x="437.89" y="-508.15" font-family="Times,serif" font-size="14.00">PrecedingSerialChronology</text>
</a>
</g>
</g>
<!-- ImmediatelySucceedingSerial -->
<g id="node12" class="node">
<title>ImmediatelySucceedingSerial</title>
<g id="a_node12"><a xlink:href="/develop/Data/models.html#immediately-succeeding-serial" xlink:title="ImmediatelySucceedingSerial" target="_top">
<polygon fill="#eeefff" stroke="#dddeee" points="741.39,-529.85 561.39,-529.85 561.39,-493.85 741.39,-493.85 741.39,-529.85"/>
<text text-anchor="middle" x="651.39" y="-508.15" font-family="Times,serif" font-size="14.00">ImmediatelySucceedingSerial</text>
</a>
</g>
</g>
<!-- Keyword -->
<g id="node13" class="node">
<title>Keyword</title>
<g id="a_node13"><a xlink:href="/develop/Data/models.html#keyword" xlink:title="Keyword" target="_top">
<polygon fill="#eeefff" stroke="#dddeee" points="272.39,-248.85 205.39,-248.85 205.39,-212.85 272.39,-212.85 272.39,-248.85"/>
<text text-anchor="middle" x="238.89" y="-227.15" font-family="Times,serif" font-size="14.00">Keyword</text>
</a>
</g>
</g>
<!-- PinboardItem -->
<g id="node14" class="node">
<title>PinboardItem</title>
<g id="a_node14"><a xlink:href="/develop/Data/models.html#pinboard-item" xlink:title="PinboardItem" target="_top">
<polygon fill="#eeefff" stroke="#dddeee" points="696.89,-437.85 605.89,-437.85 605.89,-401.85 696.89,-401.85 696.89,-437.85"/>
<text text-anchor="middle" x="651.39" y="-416.15" font-family="Times,serif" font-size="14.00">PinboardItem</text>
</a>
</g>
</g>
<!-- Role -->
<g id="node15" class="node">
<title>Role</title>
<g id="a_node15"><a xlink:href="/develop/Data/models.html#role" xlink:title="Role" target="_top">
<polygon fill="#eeefff" stroke="#dddeee" points="464.89,-275.85 410.89,-275.85 410.89,-239.85 464.89,-239.85 464.89,-275.85"/>
<text text-anchor="middle" x="437.89" y="-254.15" font-family="Times,serif" font-size="14.00">Role</text>
</a>
</g>
</g>
<!-- Translation -->
<g id="node16" class="node">
<title>Translation</title>
<g id="a_node16"><a xlink:href="/develop/Data/models.html#translation" xlink:title="Translation" target="_top">
<polygon fill="#eeefff" stroke="#dddeee" points="476.89,-383.85 398.89,-383.85 398.89,-347.85 476.89,-347.85 476.89,-383.85"/>
<text text-anchor="middle" x="437.89" y="-362.15" font-family="Times,serif" font-size="14.00">Translation</text>
</a>
</g>
</g>
<!-- VerifierRole -->
<g id="node17" class="node">
<title>VerifierRole</title>
<g id="a_node17"><a xlink:href="/develop/Data/models.html#verifier-role" xlink:title="VerifierRole" target="_top">
<polygon fill="#eeefff" stroke="#dddeee" points="479.39,-329.85 396.39,-329.85 396.39,-293.85 479.39,-293.85 479.39,-329.85"/>
<text text-anchor="middle" x="437.89" y="-308.15" font-family="Times,serif" font-size="14.00">VerifierRole</text>
</a>
</g>
</g>
<!-- Verifier -->
<g id="node18" class="node">
<title>Verifier</title>
<g id="a_node18"><a xlink:href="/develop/Data/models.html#verifier" xlink:title="Verifier" target="_top">
<polygon fill="#eeefff" stroke="#dddeee" points="679.89,-302.85 622.89,-302.85 622.89,-266.85 679.89,-266.85 679.89,-302.85"/>
<text text-anchor="middle" x="651.39" y="-281.15" font-family="Times,serif" font-size="14.00">Verifier</text>
</a>
</g>
</g>
<!-- Version -->
<g id="node19" class="node">
<title>Version</title>
<g id="a_node19"><a xlink:href="/develop/Data/models.html#version" xlink:title="Version" target="_top">
<polygon fill="#eeefff" stroke="#dddeee" points="466.89,-437.85 408.89,-437.85 408.89,-401.85 466.89,-401.85 466.89,-437.85"/>
<text text-anchor="middle" x="437.89" y="-416.15" font-family="Times,serif" font-size="14.00">Version</text>
</a>
</g>
</g>
<!-- Creator -->
<g id="node20" class="node">
<title>Creator</title>
<g id="a_node20"><a xlink:href="/develop/Data/models.html#creator" xlink:title="Creator" target="_top">
<polygon fill="#eeefff" stroke="#dddeee" points="466.39,-221.85 409.39,-221.85 409.39,-185.85 466.39,-185.85 466.39,-221.85"/>
<text text-anchor="middle" x="437.89" y="-200.15" font-family="Times,serif" font-size="14.00">Creator</text>
</a>
</g>
</g>
<!-- Language -->
<g id="node21" class="node">
<title>Language</title>
<g id="a_node21"><a xlink:href="/develop/Data/models.html#language" xlink:title="Language" target="_top">
<polygon fill="#eeefff" stroke="#dddeee" points="472.89,-167.85 402.89,-167.85 402.89,-131.85 472.89,-131.85 472.89,-167.85"/>
<text text-anchor="middle" x="437.89" y="-146.15" font-family="Times,serif" font-size="14.00">Language</text>
</a>
</g>
</g>
<!-- TranslatedFromSerial -->
<g id="node22" class="node">
<title>TranslatedFromSerial</title>
<g id="a_node22"><a xlink:href="/develop/Data/models.html#translated-from-serial" xlink:title="TranslatedFromSerial" target="_top">
<polygon fill="#eeefff" stroke="#dddeee" points="505.39,-113.85 370.39,-113.85 370.39,-77.85 505.39,-77.85 505.39,-113.85"/>
<text text-anchor="middle" x="437.89" y="-92.15" font-family="Times,serif" font-size="14.00">TranslatedFromSerial</text>
</a>
</g>
</g>
<!-- Updater -->
<g id="node23" class="node">
<title>Updater</title>
<g id="a_node23"><a xlink:href="/develop/Data/models.html#updater" xlink:title="Updater" target="_top">
<polygon fill="#eeefff" stroke="#dddeee" points="681.39,-221.85 621.39,-221.85 621.39,-185.85 681.39,-185.85 681.39,-221.85"/>
<text text-anchor="middle" x="651.39" y="-200.15" font-family="Times,serif" font-size="14.00">Updater</text>
</a>
</g>
</g>
</g>
</svg>
