<?xml version="1.0" encoding="UTF-8" standalone="no"?>
<!DOCTYPE svg PUBLIC "-//W3C//DTD SVG 1.1//EN"
 "http://www.w3.org/Graphics/SVG/1.1/DTD/svg11.dtd">
<!-- Generated by graphviz version 12.2.1 (20241206.2353)
 -->
<!-- Title: SerialChronology Pages: 1 -->
<svg width="423pt" height="341pt"
 viewBox="0.00 0.00 422.70 340.56" xmlns="http://www.w3.org/2000/svg" xmlns:xlink="http://www.w3.org/1999/xlink">
<g id="graph0" class="graph" transform="scale(1 1) rotate(0) translate(4 336.56)">
<title>SerialChronology</title>
<polygon fill="white" stroke="none" points="-4,4 -4,-336.56 418.7,-336.56 418.7,4 -4,4"/>
<!-- SerialChronology&#45;&gt;PinboardItem -->
<g id="edge1" class="edge">
<title>SerialChronology&#45;&gt;PinboardItem</title>
<path fill="none" stroke="black" d="M103.75,-175C125.23,-203.88 165.77,-254.3 209.45,-287.56 210.58,-288.42 211.73,-289.26 212.91,-290.08"/>
<polygon fill="black" stroke="black" points="210.75,-292.85 221.06,-295.27 214.5,-286.95 210.75,-292.85"/>
</g>
<!-- SerialChronology&#45;&gt;Role -->
<g id="edge2" class="edge">
<title>SerialChronology&#45;&gt;Role</title>
<path fill="none" stroke="black" d="M119.08,-174.97C143.28,-191.88 177.84,-215.21 209.45,-233.56 215.08,-236.83 221.14,-240.1 227.11,-243.18"/>
<polygon fill="black" stroke="black" points="225.1,-246.08 235.6,-247.47 228.26,-239.83 225.1,-246.08"/>
</g>
<!-- SerialChronology&#45;&gt;VerifierRole -->
<g id="edge3" class="edge">
<title>SerialChronology&#45;&gt;VerifierRole</title>
<path fill="none" stroke="black" d="M144.26,-169.95C165.94,-176.61 190.56,-184.18 211.75,-190.7"/>
<polygon fill="black" stroke="black" points="210.46,-193.97 221.05,-193.56 212.52,-187.28 210.46,-193.97"/>
</g>
<!-- SerialChronology&#45;&gt;Creator -->
<g id="edge5" class="edge">
<title>SerialChronology&#45;&gt;Creator</title>
<path fill="none" stroke="black" stroke-dasharray="5,2" d="M185.01,-152.56C203.57,-152.56 221.56,-152.56 235.61,-152.56"/>
<polygon fill="black" stroke="black" points="185.24,-149.06 175.24,-152.56 185.24,-156.06 185.24,-149.06"/>
</g>
<!-- SerialChronology&#45;&gt;PrecedingSerial -->
<g id="edge6" class="edge">
<title>SerialChronology&#45;&gt;PrecedingSerial</title>
<path fill="none" stroke="black" stroke-dasharray="5,2" d="M155.11,-131.84C174.39,-125.91 195.07,-119.55 213.13,-114"/>
<polygon fill="black" stroke="black" points="154.23,-128.45 145.7,-134.73 156.29,-135.14 154.23,-128.45"/>
</g>
<!-- SerialChronology&#45;&gt;SucceedingSerial -->
<g id="edge7" class="edge">
<title>SerialChronology&#45;&gt;SucceedingSerial</title>
<path fill="none" stroke="black" stroke-dasharray="5,2" d="M128.31,-123.75C151.6,-107.67 181.67,-87.69 209.45,-71.56 214.43,-68.67 219.76,-65.78 225.05,-63.02"/>
<polygon fill="black" stroke="black" points="126.54,-120.71 120.33,-129.29 130.54,-126.46 126.54,-120.71"/>
</g>
<!-- SerialChronology&#45;&gt;Updater -->
<g id="edge8" class="edge">
<title>SerialChronology&#45;&gt;Updater</title>
<path fill="none" stroke="black" stroke-dasharray="5,2" d="M105.43,-120.68C125.7,-87.83 162.29,-38.54 209.45,-17.56 254.02,2.26 277.92,8.42 319.2,-17.56 360.34,-43.46 375.93,-103.56 381.34,-134.07"/>
<polygon fill="black" stroke="black" points="102.58,-118.63 100.44,-129 108.58,-122.22 102.58,-118.63"/>
</g>
<!-- Role&#45;&gt;Verifier -->
<!-- VerifierRole&#45;&gt;Verifier -->
<g id="edge4" class="edge">
<title>VerifierRole&#45;&gt;Verifier</title>
<path fill="none" stroke="black" stroke-dasharray="1,5" d="M306.15,-215.85C318.78,-218.73 332.64,-221.88 345.12,-224.72"/>
<polygon fill="black" stroke="black" points="344.12,-228.09 354.65,-226.89 345.68,-221.26 344.12,-228.09"/>
</g>
<!-- Creator&#45;&gt;Updater -->
<!-- SerialChronology -->
<g id="node1" class="node">
<title>SerialChronology</title>
<g id="a_node1"><a xlink:href="/develop/Data/models.html#serial-chronology" xlink:title="SerialChronology" target="_top">
<polygon fill="#cdefab" stroke="#dedede" points="169.45,-145.11 169.45,-160.02 120.99,-170.56 52.46,-170.56 4,-160.02 4,-145.11 52.46,-134.56 120.99,-134.56 169.45,-145.11"/>
<polygon fill="none" stroke="#dedede" points="173.45,-141.88 173.45,-163.24 121.42,-174.56 52.03,-174.56 0,-163.24 0,-141.88 52.03,-130.56 121.42,-130.56 173.45,-141.88"/>
<text text-anchor="middle" x="86.73" y="-147.51" font-family="Times,serif" font-size="14.00">SerialChronology</text>
</a>
</g>
</g>
<!-- PinboardItem -->
<g id="node2" class="node">
<title>PinboardItem</title>
<g id="a_node2"><a xlink:href="/develop/Data/models.html#pinboard-item" xlink:title="PinboardItem" target="_top">
<polygon fill="#eeefff" stroke="#dddeee" points="309.45,-332.56 219.2,-332.56 219.2,-296.56 309.45,-296.56 309.45,-332.56"/>
<text text-anchor="middle" x="264.33" y="-309.51" font-family="Times,serif" font-size="14.00">PinboardItem</text>
</a>
</g>
</g>
<!-- Role -->
<g id="node3" class="node">
<title>Role</title>
<g id="a_node3"><a xlink:href="/develop/Data/models.html#role" xlink:title="Role" target="_top">
<polygon fill="#eeefff" stroke="#dddeee" points="291.33,-278.56 237.33,-278.56 237.33,-242.56 291.33,-242.56 291.33,-278.56"/>
<text text-anchor="middle" x="264.33" y="-255.51" font-family="Times,serif" font-size="14.00">Role</text>
</a>
</g>
</g>
<!-- VerifierRole -->
<g id="node4" class="node">
<title>VerifierRole</title>
<g id="a_node4"><a xlink:href="/develop/Data/models.html#verifier-role" xlink:title="VerifierRole" target="_top">
<polygon fill="#eeefff" stroke="#dddeee" points="305.7,-224.56 222.95,-224.56 222.95,-188.56 305.7,-188.56 305.7,-224.56"/>
<text text-anchor="middle" x="264.33" y="-201.51" font-family="Times,serif" font-size="14.00">VerifierRole</text>
</a>
</g>
</g>
<!-- Verifier -->
<g id="node5" class="node">
<title>Verifier</title>
<g id="a_node5"><a xlink:href="/develop/Data/models.html#verifier" xlink:title="Verifier" target="_top">
<polygon fill="#eeefff" stroke="#dddeee" points="413.58,-251.56 356.33,-251.56 356.33,-215.56 413.58,-215.56 413.58,-251.56"/>
<text text-anchor="middle" x="384.95" y="-228.51" font-family="Times,serif" font-size="14.00">Verifier</text>
</a>
</g>
</g>
<!-- Creator -->
<g id="node6" class="node">
<title>Creator</title>
<g id="a_node6"><a xlink:href="/develop/Data/models.html#creator" xlink:title="Creator" target="_top">
<polygon fill="#eeefff" stroke="#dddeee" points="292.58,-170.56 236.08,-170.56 236.08,-134.56 292.58,-134.56 292.58,-170.56"/>
<text text-anchor="middle" x="264.33" y="-147.51" font-family="Times,serif" font-size="14.00">Creator</text>
</a>
</g>
</g>
<!-- PrecedingSerial -->
<g id="node7" class="node">
<title>PrecedingSerial</title>
<g id="a_node7"><a xlink:href="/develop/Data/models.html#preceding-serial" xlink:title="PrecedingSerial" target="_top">
<polygon fill="#eeefff" stroke="#dddeee" points="315.08,-116.56 213.58,-116.56 213.58,-80.56 315.08,-80.56 315.08,-116.56"/>
<text text-anchor="middle" x="264.33" y="-93.51" font-family="Times,serif" font-size="14.00">PrecedingSerial</text>
</a>
</g>
</g>
<!-- SucceedingSerial -->
<g id="node8" class="node">
<title>SucceedingSerial</title>
<g id="a_node8"><a xlink:href="/develop/Data/models.html#succeeding-serial" xlink:title="SucceedingSerial" target="_top">
<polygon fill="#eeefff" stroke="#dddeee" points="319.2,-62.56 209.45,-62.56 209.45,-26.56 319.2,-26.56 319.2,-62.56"/>
<text text-anchor="middle" x="264.33" y="-39.51" font-family="Times,serif" font-size="14.00">SucceedingSerial</text>
</a>
</g>
</g>
<!-- Updater -->
<g id="node9" class="node">
<title>Updater</title>
<g id="a_node9"><a xlink:href="/develop/Data/models.html#updater" xlink:title="Updater" target="_top">
<polygon fill="#eeefff" stroke="#dddeee" points="414.7,-170.56 355.2,-170.56 355.2,-134.56 414.7,-134.56 414.7,-170.56"/>
<text text-anchor="middle" x="384.95" y="-147.51" font-family="Times,serif" font-size="14.00">Updater</text>
</a>
</g>
</g>
</g>
</svg>
