<?xml version="1.0" encoding="UTF-8" standalone="no"?>
<!DOCTYPE svg PUBLIC "-//W3C//DTD SVG 1.1//EN"
 "http://www.w3.org/Graphics/SVG/1.1/DTD/svg11.dtd">
<!-- Generated by graphviz version 2.50.0 (20211204.2007)
 -->
<!-- Title: SerialChronology Pages: 1 -->
<svg width="417pt" height="341pt"
 viewBox="0.00 0.00 416.99 340.68" xmlns="http://www.w3.org/2000/svg" xmlns:xlink="http://www.w3.org/1999/xlink">
<g id="graph0" class="graph" transform="scale(1 1) rotate(0) translate(4 336.68)">
<title>SerialChronology</title>
<polygon fill="white" stroke="transparent" points="-4,4 -4,-336.68 412.99,-336.68 412.99,4 -4,4"/>
<!-- SerialChronology&#45;&gt;PinboardItem -->
<g id="edge1" class="edge">
<title>SerialChronology&#45;&gt;PinboardItem</title>
<path fill="none" stroke="black" d="M99.95,-175.16C120.72,-204.08 160.02,-254.54 202.99,-287.68 204.55,-288.88 206.16,-290.05 207.83,-291.19"/>
<polygon fill="black" stroke="black" points="206.1,-294.23 216.43,-296.59 209.82,-288.31 206.1,-294.23"/>
</g>
<!-- SerialChronology&#45;&gt;Role -->
<g id="edge2" class="edge">
<title>SerialChronology&#45;&gt;Role</title>
<path fill="none" stroke="black" d="M114.44,-174.83C137.97,-191.81 171.84,-215.37 202.99,-233.68 208.94,-237.18 215.4,-240.67 221.72,-243.91"/>
<polygon fill="black" stroke="black" points="220.28,-247.11 230.79,-248.47 223.43,-240.86 220.28,-247.11"/>
</g>
<!-- SerialChronology&#45;&gt;VerifierRole -->
<g id="edge3" class="edge">
<title>SerialChronology&#45;&gt;VerifierRole</title>
<path fill="none" stroke="black" d="M139.07,-169.77C160.72,-176.54 185.45,-184.29 206.65,-190.92"/>
<polygon fill="black" stroke="black" points="205.85,-194.34 216.44,-193.99 207.94,-187.66 205.85,-194.34"/>
</g>
<!-- SerialChronology&#45;&gt;Creator -->
<g id="edge5" class="edge">
<title>SerialChronology&#45;&gt;Creator</title>
<path fill="none" stroke="black" stroke-dasharray="5,2" d="M177.22,-152.68C196.33,-152.68 215.01,-152.68 229.49,-152.68"/>
<polygon fill="black" stroke="black" points="177.21,-149.18 167.21,-152.68 177.21,-156.18 177.21,-149.18"/>
</g>
<!-- SerialChronology&#45;&gt;PrecedingSerial -->
<g id="edge6" class="edge">
<title>SerialChronology&#45;&gt;PrecedingSerial</title>
<path fill="none" stroke="black" stroke-dasharray="5,2" d="M148.66,-132.59C167.89,-126.58 188.68,-120.07 206.86,-114.37"/>
<polygon fill="black" stroke="black" points="147.57,-129.27 139.07,-135.6 149.66,-135.95 147.57,-129.27"/>
</g>
<!-- SerialChronology&#45;&gt;SucceedingSerial -->
<g id="edge7" class="edge">
<title>SerialChronology&#45;&gt;SucceedingSerial</title>
<path fill="none" stroke="black" stroke-dasharray="5,2" d="M122.82,-124.53C145.61,-108.28 175.37,-87.92 202.99,-71.68 208.14,-68.65 213.67,-65.64 219.16,-62.77"/>
<polygon fill="black" stroke="black" points="120.53,-121.86 114.44,-130.53 124.61,-127.55 120.53,-121.86"/>
</g>
<!-- SerialChronology&#45;&gt;Updater -->
<g id="edge8" class="edge">
<title>SerialChronology&#45;&gt;Updater</title>
<path fill="none" stroke="black" stroke-dasharray="5,2" d="M101,-121.67C120.44,-88.85 156.12,-38.91 202.99,-17.68 247.52,2.48 271.59,8.33 312.99,-17.68 354.4,-43.7 370.04,-104.31 375.43,-134.67"/>
<polygon fill="black" stroke="black" points="97.91,-120.03 95.95,-130.44 103.98,-123.52 97.91,-120.03"/>
</g>
<!-- Role&#45;&gt;Verifier -->
<!-- VerifierRole&#45;&gt;Verifier -->
<g id="edge4" class="edge">
<title>VerifierRole&#45;&gt;Verifier</title>
<path fill="none" stroke="black" d="M299.61,-215.9C312.79,-218.89 327.34,-222.19 340.29,-225.13"/>
<polygon fill="black" stroke="black" points="339.75,-228.6 350.28,-227.4 341.3,-221.77 339.75,-228.6"/>
</g>
<!-- Creator&#45;&gt;Updater -->
<!-- SerialChronology -->
<g id="node1" class="node">
<title>SerialChronology</title>
<g id="a_node1"><a xlink:href="/develop/Data/models.html#serial-chronology" xlink:title="SerialChronology" target="_top">
<polygon fill="#cdefab" stroke="#dedede" points="162.98,-145.23 162.98,-160.14 116.42,-170.68 50.57,-170.68 4.01,-160.14 4.01,-145.23 50.57,-134.68 116.42,-134.68 162.98,-145.23"/>
<polygon fill="none" stroke="#dedede" points="166.98,-142.03 166.98,-163.33 116.87,-174.68 50.12,-174.68 0.01,-163.33 0.01,-142.03 50.12,-130.68 116.87,-130.68 166.98,-142.03"/>
<text text-anchor="middle" x="83.49" y="-148.98" font-family="Times,serif" font-size="14.00">SerialChronology</text>
</a>
</g>
</g>
<!-- PinboardItem -->
<g id="node2" class="node">
<title>PinboardItem</title>
<g id="a_node2"><a xlink:href="/develop/Data/models.html#pinboard-item" xlink:title="PinboardItem" target="_top">
<polygon fill="#eeefff" stroke="#dddeee" points="303.49,-332.68 212.49,-332.68 212.49,-296.68 303.49,-296.68 303.49,-332.68"/>
<text text-anchor="middle" x="257.99" y="-310.98" font-family="Times,serif" font-size="14.00">PinboardItem</text>
</a>
</g>
</g>
<!-- Role -->
<g id="node3" class="node">
<title>Role</title>
<g id="a_node3"><a xlink:href="/develop/Data/models.html#role" xlink:title="Role" target="_top">
<polygon fill="#eeefff" stroke="#dddeee" points="284.99,-278.68 230.99,-278.68 230.99,-242.68 284.99,-242.68 284.99,-278.68"/>
<text text-anchor="middle" x="257.99" y="-256.98" font-family="Times,serif" font-size="14.00">Role</text>
</a>
</g>
</g>
<!-- VerifierRole -->
<g id="node4" class="node">
<title>VerifierRole</title>
<g id="a_node4"><a xlink:href="/develop/Data/models.html#verifier-role" xlink:title="VerifierRole" target="_top">
<polygon fill="#eeefff" stroke="#dddeee" points="299.49,-224.68 216.49,-224.68 216.49,-188.68 299.49,-188.68 299.49,-224.68"/>
<text text-anchor="middle" x="257.99" y="-202.98" font-family="Times,serif" font-size="14.00">VerifierRole</text>
</a>
</g>
</g>
<!-- Verifier -->
<g id="node5" class="node">
<title>Verifier</title>
<g id="a_node5"><a xlink:href="/develop/Data/models.html#verifier" xlink:title="Verifier" target="_top">
<polygon fill="#eeefff" stroke="#dddeee" points="407.49,-251.68 350.49,-251.68 350.49,-215.68 407.49,-215.68 407.49,-251.68"/>
<text text-anchor="middle" x="378.99" y="-229.98" font-family="Times,serif" font-size="14.00">Verifier</text>
</a>
</g>
</g>
<!-- Creator -->
<g id="node6" class="node">
<title>Creator</title>
<g id="a_node6"><a xlink:href="/develop/Data/models.html#creator" xlink:title="Creator" target="_top">
<polygon fill="#eeefff" stroke="#dddeee" points="286.49,-170.68 229.49,-170.68 229.49,-134.68 286.49,-134.68 286.49,-170.68"/>
<text text-anchor="middle" x="257.99" y="-148.98" font-family="Times,serif" font-size="14.00">Creator</text>
</a>
</g>
</g>
<!-- PrecedingSerial -->
<g id="node7" class="node">
<title>PrecedingSerial</title>
<g id="a_node7"><a xlink:href="/develop/Data/models.html#preceding-serial" xlink:title="PrecedingSerial" target="_top">
<polygon fill="#eeefff" stroke="#dddeee" points="308.99,-116.68 206.99,-116.68 206.99,-80.68 308.99,-80.68 308.99,-116.68"/>
<text text-anchor="middle" x="257.99" y="-94.98" font-family="Times,serif" font-size="14.00">PrecedingSerial</text>
</a>
</g>
</g>
<!-- SucceedingSerial -->
<g id="node8" class="node">
<title>SucceedingSerial</title>
<g id="a_node8"><a xlink:href="/develop/Data/models.html#succeeding-serial" xlink:title="SucceedingSerial" target="_top">
<polygon fill="#eeefff" stroke="#dddeee" points="312.99,-62.68 202.99,-62.68 202.99,-26.68 312.99,-26.68 312.99,-62.68"/>
<text text-anchor="middle" x="257.99" y="-40.98" font-family="Times,serif" font-size="14.00">SucceedingSerial</text>
</a>
</g>
</g>
<!-- Updater -->
<g id="node9" class="node">
<title>Updater</title>
<g id="a_node9"><a xlink:href="/develop/Data/models.html#updater" xlink:title="Updater" target="_top">
<polygon fill="#eeefff" stroke="#dddeee" points="408.99,-170.68 348.99,-170.68 348.99,-134.68 408.99,-134.68 408.99,-170.68"/>
<text text-anchor="middle" x="378.99" y="-148.98" font-family="Times,serif" font-size="14.00">Updater</text>
</a>
</g>
</g>
</g>
</svg>
