<?xml version="1.0" encoding="UTF-8" standalone="no"?>
<!DOCTYPE svg PUBLIC "-//W3C//DTD SVG 1.1//EN"
 "http://www.w3.org/Graphics/SVG/1.1/DTD/svg11.dtd">
<!-- Generated by graphviz version 2.50.0 (20211204.2007)
 -->
<!-- Title: SerialChronology Pages: 1 -->
<svg width="682pt" height="379pt"
 viewBox="0.00 0.00 682.00 378.68" xmlns="http://www.w3.org/2000/svg" xmlns:xlink="http://www.w3.org/1999/xlink">
<g id="graph0" class="graph" transform="scale(1 1) rotate(0) translate(4 374.68)">
<title>SerialChronology</title>
<polygon fill="white" stroke="transparent" points="-4,4 -4,-374.68 678,-374.68 678,4 -4,4"/>
<text text-anchor="middle" x="337" y="-22.8" font-family="Times,serif" font-size="14.00">Algorithmically generated relationships for SerialChronology based on assertions of &#39;has_many&#39;, &#39;has_one&#39;, &#39;belongs_to&#39;. </text>
<text text-anchor="middle" x="337" y="-7.8" font-family="Times,serif" font-size="14.00">Generated 2022&#45;01&#45;25 11:43:45 &#45;0600.</text>
<!-- SerialChronology&#45;&gt;PinboardItem -->
<g id="edge1" class="edge">
<title>SerialChronology&#45;&gt;PinboardItem</title>
<path fill="none" stroke="black" d="M232.46,-213.16C253.23,-242.08 292.53,-292.54 335.49,-325.68 337.05,-326.88 338.67,-328.05 340.33,-329.19"/>
<polygon fill="black" stroke="black" points="338.6,-332.23 348.93,-334.59 342.32,-326.31 338.6,-332.23"/>
</g>
<!-- SerialChronology&#45;&gt;Role -->
<g id="edge2" class="edge">
<title>SerialChronology&#45;&gt;Role</title>
<path fill="none" stroke="black" d="M246.95,-212.83C270.47,-229.81 304.35,-253.37 335.49,-271.68 341.44,-275.18 347.9,-278.67 354.22,-281.91"/>
<polygon fill="black" stroke="black" points="352.79,-285.11 363.29,-286.47 355.93,-278.86 352.79,-285.11"/>
</g>
<!-- SerialChronology&#45;&gt;VerifierRole -->
<g id="edge3" class="edge">
<title>SerialChronology&#45;&gt;VerifierRole</title>
<path fill="none" stroke="black" d="M271.58,-207.77C293.22,-214.54 317.95,-222.29 339.16,-228.92"/>
<polygon fill="black" stroke="black" points="338.35,-232.34 348.94,-231.99 340.45,-225.66 338.35,-232.34"/>
</g>
<!-- SerialChronology&#45;&gt;Creator -->
<g id="edge5" class="edge">
<title>SerialChronology&#45;&gt;Creator</title>
<path fill="none" stroke="black" stroke-dasharray="5,2" d="M309.72,-190.68C328.83,-190.68 347.52,-190.68 361.99,-190.68"/>
<polygon fill="black" stroke="black" points="309.71,-187.18 299.71,-190.68 309.71,-194.18 309.71,-187.18"/>
</g>
<!-- SerialChronology&#45;&gt;PrecedingSerial -->
<g id="edge6" class="edge">
<title>SerialChronology&#45;&gt;PrecedingSerial</title>
<path fill="none" stroke="black" stroke-dasharray="5,2" d="M281.17,-170.59C300.39,-164.58 321.19,-158.07 339.37,-152.37"/>
<polygon fill="black" stroke="black" points="280.08,-167.27 271.58,-173.6 282.17,-173.95 280.08,-167.27"/>
</g>
<!-- SerialChronology&#45;&gt;SucceedingSerial -->
<g id="edge7" class="edge">
<title>SerialChronology&#45;&gt;SucceedingSerial</title>
<path fill="none" stroke="black" stroke-dasharray="5,2" d="M255.32,-162.53C278.11,-146.28 307.88,-125.92 335.49,-109.68 340.64,-106.65 346.18,-103.64 351.67,-100.77"/>
<polygon fill="black" stroke="black" points="253.03,-159.86 246.95,-168.53 257.11,-165.55 253.03,-159.86"/>
</g>
<!-- SerialChronology&#45;&gt;Updater -->
<g id="edge8" class="edge">
<title>SerialChronology&#45;&gt;Updater</title>
<path fill="none" stroke="black" stroke-dasharray="5,2" d="M233.51,-159.67C252.95,-126.85 288.62,-76.91 335.49,-55.68 380.03,-35.52 404.1,-29.67 445.49,-55.68 486.9,-81.7 502.55,-142.31 507.94,-172.67"/>
<polygon fill="black" stroke="black" points="230.42,-158.03 228.46,-168.44 236.48,-161.52 230.42,-158.03"/>
</g>
<!-- Role&#45;&gt;Verifier -->
<!-- VerifierRole&#45;&gt;Verifier -->
<g id="edge4" class="edge">
<title>VerifierRole&#45;&gt;Verifier</title>
<path fill="none" stroke="black" d="M432.11,-253.9C445.29,-256.89 459.84,-260.19 472.8,-263.13"/>
<polygon fill="black" stroke="black" points="472.26,-266.6 482.79,-265.4 473.81,-259.77 472.26,-266.6"/>
</g>
<!-- Creator&#45;&gt;Updater -->
<!-- SerialChronology -->
<g id="node1" class="node">
<title>SerialChronology</title>
<g id="a_node1"><a xlink:href="/develop/Data/models.html#serial-chronology" xlink:title="SerialChronology" target="_top">
<polygon fill="#cdefab" stroke="#dedede" points="295.49,-183.23 295.49,-198.14 248.93,-208.68 183.07,-208.68 136.51,-198.14 136.51,-183.23 183.07,-172.68 248.93,-172.68 295.49,-183.23"/>
<polygon fill="none" stroke="#dedede" points="299.49,-180.03 299.49,-201.33 249.37,-212.68 182.63,-212.68 132.51,-201.33 132.51,-180.03 182.63,-168.68 249.37,-168.68 299.49,-180.03"/>
<text text-anchor="middle" x="216" y="-186.98" font-family="Times,serif" font-size="14.00">SerialChronology</text>
</a>
</g>
</g>
<!-- PinboardItem -->
<g id="node2" class="node">
<title>PinboardItem</title>
<g id="a_node2"><a xlink:href="/develop/Data/models.html#pinboard-item" xlink:title="PinboardItem" target="_top">
<polygon fill="#eeefff" stroke="#dddeee" points="435.99,-370.68 344.99,-370.68 344.99,-334.68 435.99,-334.68 435.99,-370.68"/>
<text text-anchor="middle" x="390.49" y="-348.98" font-family="Times,serif" font-size="14.00">PinboardItem</text>
</a>
</g>
</g>
<!-- Role -->
<g id="node3" class="node">
<title>Role</title>
<g id="a_node3"><a xlink:href="/develop/Data/models.html#role" xlink:title="Role" target="_top">
<polygon fill="#eeefff" stroke="#dddeee" points="417.49,-316.68 363.49,-316.68 363.49,-280.68 417.49,-280.68 417.49,-316.68"/>
<text text-anchor="middle" x="390.49" y="-294.98" font-family="Times,serif" font-size="14.00">Role</text>
</a>
</g>
</g>
<!-- VerifierRole -->
<g id="node4" class="node">
<title>VerifierRole</title>
<g id="a_node4"><a xlink:href="/develop/Data/models.html#verifier-role" xlink:title="VerifierRole" target="_top">
<polygon fill="#eeefff" stroke="#dddeee" points="431.99,-262.68 348.99,-262.68 348.99,-226.68 431.99,-226.68 431.99,-262.68"/>
<text text-anchor="middle" x="390.49" y="-240.98" font-family="Times,serif" font-size="14.00">VerifierRole</text>
</a>
</g>
</g>
<!-- Verifier -->
<g id="node5" class="node">
<title>Verifier</title>
<g id="a_node5"><a xlink:href="/develop/Data/models.html#verifier" xlink:title="Verifier" target="_top">
<polygon fill="#eeefff" stroke="#dddeee" points="539.99,-289.68 482.99,-289.68 482.99,-253.68 539.99,-253.68 539.99,-289.68"/>
<text text-anchor="middle" x="511.49" y="-267.98" font-family="Times,serif" font-size="14.00">Verifier</text>
</a>
</g>
</g>
<!-- Creator -->
<g id="node6" class="node">
<title>Creator</title>
<g id="a_node6"><a xlink:href="/develop/Data/models.html#creator" xlink:title="Creator" target="_top">
<polygon fill="#eeefff" stroke="#dddeee" points="418.99,-208.68 361.99,-208.68 361.99,-172.68 418.99,-172.68 418.99,-208.68"/>
<text text-anchor="middle" x="390.49" y="-186.98" font-family="Times,serif" font-size="14.00">Creator</text>
</a>
</g>
</g>
<!-- PrecedingSerial -->
<g id="node7" class="node">
<title>PrecedingSerial</title>
<g id="a_node7"><a xlink:href="/develop/Data/models.html#preceding-serial" xlink:title="PrecedingSerial" target="_top">
<polygon fill="#eeefff" stroke="#dddeee" points="441.49,-154.68 339.49,-154.68 339.49,-118.68 441.49,-118.68 441.49,-154.68"/>
<text text-anchor="middle" x="390.49" y="-132.98" font-family="Times,serif" font-size="14.00">PrecedingSerial</text>
</a>
</g>
</g>
<!-- SucceedingSerial -->
<g id="node8" class="node">
<title>SucceedingSerial</title>
<g id="a_node8"><a xlink:href="/develop/Data/models.html#succeeding-serial" xlink:title="SucceedingSerial" target="_top">
<polygon fill="#eeefff" stroke="#dddeee" points="445.49,-100.68 335.49,-100.68 335.49,-64.68 445.49,-64.68 445.49,-100.68"/>
<text text-anchor="middle" x="390.49" y="-78.98" font-family="Times,serif" font-size="14.00">SucceedingSerial</text>
</a>
</g>
</g>
<!-- Updater -->
<g id="node9" class="node">
<title>Updater</title>
<g id="a_node9"><a xlink:href="/develop/Data/models.html#updater" xlink:title="Updater" target="_top">
<polygon fill="#eeefff" stroke="#dddeee" points="541.49,-208.68 481.49,-208.68 481.49,-172.68 541.49,-172.68 541.49,-208.68"/>
<text text-anchor="middle" x="511.49" y="-186.98" font-family="Times,serif" font-size="14.00">Updater</text>
</a>
</g>
</g>
</g>
</svg>
