<?xml version="1.0" encoding="UTF-8" standalone="no"?>
<!DOCTYPE svg PUBLIC "-//W3C//DTD SVG 1.1//EN"
 "http://www.w3.org/Graphics/SVG/1.1/DTD/svg11.dtd">
<!-- Generated by graphviz version 2.50.0 (20211204.2007)
 -->
<!-- Title: SledImage Pages: 1 -->
<svg width="645pt" height="413pt"
 viewBox="0.00 0.00 645.00 412.88" xmlns="http://www.w3.org/2000/svg" xmlns:xlink="http://www.w3.org/1999/xlink">
<g id="graph0" class="graph" transform="scale(1 1) rotate(0) translate(4 408.88)">
<title>SledImage</title>
<polygon fill="white" stroke="transparent" points="-4,4 -4,-408.88 641,-408.88 641,4 -4,4"/>
<text text-anchor="middle" x="318.5" y="-22.8" font-family="Times,serif" font-size="14.00">Algorithmically generated relationships for SledImage based on assertions of &#39;has_many&#39;, &#39;has_one&#39;, &#39;belongs_to&#39;. </text>
<text text-anchor="middle" x="318.5" y="-7.8" font-family="Times,serif" font-size="14.00">Generated 2022&#45;01&#45;25 11:38:31 &#45;0600.</text>
<!-- Depiction&#45;&gt;CollectionObject -->
<g id="edge1" class="edge">
<title>Depiction&#45;&gt;CollectionObject</title>
<path fill="none" stroke="black" d="M127.62,-369.58C137.48,-371.32 148.25,-373.21 158.9,-375.09"/>
<polygon fill="black" stroke="black" points="158.57,-378.58 169.02,-376.87 159.78,-371.69 158.57,-378.58"/>
</g>
<!-- Tag&#45;&gt;Keyword -->
<g id="edge3" class="edge">
<title>Tag&#45;&gt;Keyword</title>
<path fill="none" stroke="black" d="M113.01,-233.76C131.97,-234.04 157.99,-234.42 179.96,-234.75"/>
<polygon fill="black" stroke="black" points="180,-238.25 190.06,-234.89 180.11,-231.25 180,-238.25"/>
</g>
<!-- SledImage&#45;&gt;Tag -->
<g id="edge7" class="edge">
<title>SledImage&#45;&gt;Tag</title>
<path fill="none" stroke="black" d="M183.92,-193.44C163.21,-201.95 138.11,-212.27 118.6,-220.28"/>
<polygon fill="black" stroke="black" points="117.16,-217.09 109.24,-224.13 119.82,-223.57 117.16,-217.09"/>
</g>
<!-- SledImage&#45;&gt;Note -->
<g id="edge4" class="edge">
<title>SledImage&#45;&gt;Note</title>
<path fill="none" stroke="black" d="M167.35,-177.38C152.83,-177.38 137.52,-177.38 124.2,-177.38"/>
<polygon fill="black" stroke="black" points="123.98,-173.88 113.98,-177.38 123.98,-180.88 123.98,-173.88"/>
</g>
<!-- SledImage&#45;&gt;Image -->
<g id="edge11" class="edge">
<title>SledImage&#45;&gt;Image</title>
<path fill="none" stroke="black" stroke-dasharray="5,2" d="M271.48,-199.46C274.88,-202.16 278.03,-205.13 280.76,-208.38 312.21,-245.84 286.03,-274.32 316.76,-312.38 321.64,-318.42 328.26,-323.45 334.91,-327.47"/>
<polygon fill="black" stroke="black" points="273.4,-196.54 263.21,-193.64 269.37,-202.26 273.4,-196.54"/>
</g>
<!-- SledImage&#45;&gt;PinboardItem -->
<g id="edge5" class="edge">
<title>SledImage&#45;&gt;PinboardItem</title>
<path fill="none" stroke="black" d="M261.36,-194.53C268.17,-198.57 274.97,-203.22 280.76,-208.38 301.22,-226.58 296.65,-239.79 316.76,-258.38 317.84,-259.37 318.96,-260.35 320.11,-261.31"/>
<polygon fill="black" stroke="black" points="318,-264.11 328.09,-267.34 322.22,-258.52 318,-264.11"/>
</g>
<!-- SledImage&#45;&gt;Role -->
<g id="edge6" class="edge">
<title>SledImage&#45;&gt;Role</title>
<path fill="none" stroke="black" d="M264.77,-193.14C284.04,-200.78 306.99,-209.87 325.67,-217.27"/>
<polygon fill="black" stroke="black" points="324.42,-220.54 335.01,-220.97 327,-214.04 324.42,-220.54"/>
</g>
<!-- SledImage&#45;&gt;VerifierRole -->
<g id="edge8" class="edge">
<title>SledImage&#45;&gt;VerifierRole</title>
<path fill="none" stroke="black" d="M280.81,-177.38C290.64,-177.38 300.81,-177.38 310.49,-177.38"/>
<polygon fill="black" stroke="black" points="310.75,-180.88 320.75,-177.38 310.75,-173.88 310.75,-180.88"/>
</g>
<!-- SledImage&#45;&gt;Creator -->
<g id="edge10" class="edge">
<title>SledImage&#45;&gt;Creator</title>
<path fill="none" stroke="black" stroke-dasharray="5,2" d="M277.97,-159.48C314.62,-146.87 364.41,-129.28 407.76,-112.38 419.59,-107.76 432.51,-102.34 443.59,-97.57"/>
<polygon fill="black" stroke="black" points="276.8,-156.19 268.47,-162.74 279.07,-162.81 276.8,-156.19"/>
</g>
<!-- SledImage&#45;&gt;Project -->
<g id="edge12" class="edge">
<title>SledImage&#45;&gt;Project</title>
<path fill="none" stroke="black" stroke-dasharray="5,2" d="M262.36,-152.15C285.3,-136.66 314.11,-117.21 334.71,-103.3"/>
<polygon fill="black" stroke="black" points="260.22,-149.37 253.89,-157.87 264.14,-155.17 260.22,-149.37"/>
</g>
<!-- SledImage&#45;&gt;Updater -->
<g id="edge13" class="edge">
<title>SledImage&#45;&gt;Updater</title>
<path fill="none" stroke="black" stroke-dasharray="5,2" d="M239,-145.98C253.74,-117.23 279.95,-76.48 316.76,-58.38 390.15,-22.3 420.56,-42.38 500.76,-58.38 512.86,-60.79 525.53,-65.5 536.44,-70.32"/>
<polygon fill="black" stroke="black" points="235.72,-144.71 234.44,-155.23 242,-147.81 235.72,-144.71"/>
</g>
<!-- Image&#45;&gt;Depiction -->
<g id="edge2" class="edge">
<title>Image&#45;&gt;Depiction</title>
<path fill="none" stroke="black" d="M335,-341.58C290.48,-345.31 199.33,-352.94 140.73,-357.85"/>
<polygon fill="black" stroke="black" points="140.21,-354.38 130.54,-358.71 140.8,-361.36 140.21,-354.38"/>
</g>
<!-- Role&#45;&gt;Verifier -->
<!-- VerifierRole&#45;&gt;Verifier -->
<g id="edge9" class="edge">
<title>VerifierRole&#45;&gt;Verifier</title>
<path fill="none" stroke="black" d="M403.78,-187.51C413.64,-189.97 424.14,-192.6 433.85,-195.03"/>
<polygon fill="black" stroke="black" points="433.08,-198.44 443.63,-197.47 434.77,-191.65 433.08,-198.44"/>
</g>
<!-- Creator&#45;&gt;Updater -->
<!-- Project&#45;&gt;Creator -->
<!-- Depiction -->
<g id="node1" class="node">
<title>Depiction</title>
<g id="a_node1"><a xlink:href="/develop/Data/models.html#depiction" xlink:title="Depiction" target="_top">
<ellipse fill="#abcdef" stroke="#dddeee" cx="85.74" cy="-362.38" rx="45.49" ry="18"/>
<text text-anchor="middle" x="85.74" y="-358.68" font-family="Times,serif" font-size="14.00">Depiction</text>
</a>
</g>
</g>
<!-- Tag -->
<g id="node2" class="node">
<title>Tag</title>
<g id="a_node2"><a xlink:href="/develop/Data/models.html#tag" xlink:title="Tag" target="_top">
<ellipse fill="#abcdef" stroke="#dddeee" cx="85.74" cy="-233.38" rx="27" ry="18"/>
<text text-anchor="middle" x="85.74" y="-229.68" font-family="Times,serif" font-size="14.00">Tag</text>
</a>
</g>
</g>
<!-- Note -->
<g id="node3" class="node">
<title>Note</title>
<g id="a_node3"><a xlink:href="/develop/Data/models.html#note" xlink:title="Note" target="_top">
<ellipse fill="#abcdef" stroke="#dddeee" cx="85.74" cy="-177.38" rx="27.9" ry="18"/>
<text text-anchor="middle" x="85.74" y="-173.68" font-family="Times,serif" font-size="14.00">Note</text>
</a>
</g>
</g>
<!-- CollectionObject -->
<g id="node4" class="node">
<title>CollectionObject</title>
<g id="a_node4"><a xlink:href="/develop/Data/models.html#collection-object" xlink:title="CollectionObject" target="_top">
<path fill="#fedcba" stroke="#dddeee" d="M181.5,-368.38C181.5,-368.38 266.5,-368.38 266.5,-368.38 272.5,-368.38 278.5,-374.38 278.5,-380.38 278.5,-380.38 278.5,-392.38 278.5,-392.38 278.5,-398.38 272.5,-404.38 266.5,-404.38 266.5,-404.38 181.5,-404.38 181.5,-404.38 175.5,-404.38 169.5,-398.38 169.5,-392.38 169.5,-392.38 169.5,-380.38 169.5,-380.38 169.5,-374.38 175.5,-368.38 181.5,-368.38"/>
<text text-anchor="middle" x="224" y="-382.68" font-family="Times,serif" font-size="14.00">CollectionObject</text>
</a>
</g>
</g>
<!-- SledImage -->
<g id="node5" class="node">
<title>SledImage</title>
<g id="a_node5"><a xlink:href="/develop/Data/models.html#sled-image" xlink:title="SledImage" target="_top">
<polygon fill="#cdefab" stroke="#dedede" points="276.54,-169.92 276.54,-184.83 245.76,-195.38 202.23,-195.38 171.45,-184.83 171.45,-169.92 202.23,-159.38 245.76,-159.38 276.54,-169.92"/>
<polygon fill="none" stroke="#dedede" points="280.52,-167.06 280.52,-187.69 246.42,-199.38 201.57,-199.38 167.47,-187.69 167.47,-167.06 201.57,-155.38 246.42,-155.38 280.52,-167.06"/>
<text text-anchor="middle" x="224" y="-173.68" font-family="Times,serif" font-size="14.00">SledImage</text>
</a>
</g>
</g>
<!-- Image -->
<g id="node6" class="node">
<title>Image</title>
<g id="a_node6"><a xlink:href="/develop/Data/models.html#image" xlink:title="Image" target="_top">
<polygon fill="#eeefff" stroke="#dddeee" points="389.26,-357.38 335.26,-357.38 335.26,-321.38 389.26,-321.38 389.26,-357.38"/>
<text text-anchor="middle" x="362.26" y="-335.68" font-family="Times,serif" font-size="14.00">Image</text>
</a>
</g>
</g>
<!-- Keyword -->
<g id="node7" class="node">
<title>Keyword</title>
<g id="a_node7"><a xlink:href="/develop/Data/models.html#keyword" xlink:title="Keyword" target="_top">
<polygon fill="#eeefff" stroke="#dddeee" points="257.5,-253.38 190.5,-253.38 190.5,-217.38 257.5,-217.38 257.5,-253.38"/>
<text text-anchor="middle" x="224" y="-231.68" font-family="Times,serif" font-size="14.00">Keyword</text>
</a>
</g>
</g>
<!-- PinboardItem -->
<g id="node8" class="node">
<title>PinboardItem</title>
<g id="a_node8"><a xlink:href="/develop/Data/models.html#pinboard-item" xlink:title="PinboardItem" target="_top">
<polygon fill="#eeefff" stroke="#dddeee" points="407.76,-303.38 316.76,-303.38 316.76,-267.38 407.76,-267.38 407.76,-303.38"/>
<text text-anchor="middle" x="362.26" y="-281.68" font-family="Times,serif" font-size="14.00">PinboardItem</text>
</a>
</g>
</g>
<!-- Role -->
<g id="node9" class="node">
<title>Role</title>
<g id="a_node9"><a xlink:href="/develop/Data/models.html#role" xlink:title="Role" target="_top">
<polygon fill="#eeefff" stroke="#dddeee" points="389.26,-249.38 335.26,-249.38 335.26,-213.38 389.26,-213.38 389.26,-249.38"/>
<text text-anchor="middle" x="362.26" y="-227.68" font-family="Times,serif" font-size="14.00">Role</text>
</a>
</g>
</g>
<!-- VerifierRole -->
<g id="node10" class="node">
<title>VerifierRole</title>
<g id="a_node10"><a xlink:href="/develop/Data/models.html#verifier-role" xlink:title="VerifierRole" target="_top">
<polygon fill="#eeefff" stroke="#dddeee" points="403.76,-195.38 320.76,-195.38 320.76,-159.38 403.76,-159.38 403.76,-195.38"/>
<text text-anchor="middle" x="362.26" y="-173.68" font-family="Times,serif" font-size="14.00">VerifierRole</text>
</a>
</g>
</g>
<!-- Verifier -->
<g id="node11" class="node">
<title>Verifier</title>
<g id="a_node11"><a xlink:href="/develop/Data/models.html#verifier" xlink:title="Verifier" target="_top">
<polygon fill="#eeefff" stroke="#dddeee" points="500.76,-222.38 443.76,-222.38 443.76,-186.38 500.76,-186.38 500.76,-222.38"/>
<text text-anchor="middle" x="472.26" y="-200.68" font-family="Times,serif" font-size="14.00">Verifier</text>
</a>
</g>
</g>
<!-- Creator -->
<g id="node12" class="node">
<title>Creator</title>
<g id="a_node12"><a xlink:href="/develop/Data/models.html#creator" xlink:title="Creator" target="_top">
<polygon fill="#eeefff" stroke="#dddeee" points="500.76,-103.38 443.76,-103.38 443.76,-67.38 500.76,-67.38 500.76,-103.38"/>
<text text-anchor="middle" x="472.26" y="-81.68" font-family="Times,serif" font-size="14.00">Creator</text>
</a>
</g>
</g>
<!-- Project -->
<g id="node13" class="node">
<title>Project</title>
<g id="a_node13"><a xlink:href="/develop/Data/models.html#project" xlink:title="Project" target="_top">
<polygon fill="#eeefff" stroke="#dddeee" points="389.76,-103.38 334.76,-103.38 334.76,-67.38 389.76,-67.38 389.76,-103.38"/>
<text text-anchor="middle" x="362.26" y="-81.68" font-family="Times,serif" font-size="14.00">Project</text>
</a>
</g>
</g>
<!-- Updater -->
<g id="node14" class="node">
<title>Updater</title>
<g id="a_node14"><a xlink:href="/develop/Data/models.html#updater" xlink:title="Updater" target="_top">
<polygon fill="#eeefff" stroke="#dddeee" points="596.76,-103.38 536.76,-103.38 536.76,-67.38 596.76,-67.38 596.76,-103.38"/>
<text text-anchor="middle" x="566.76" y="-81.68" font-family="Times,serif" font-size="14.00">Updater</text>
</a>
</g>
</g>
</g>
</svg>
