<?xml version="1.0" encoding="UTF-8" standalone="no"?>
<!DOCTYPE svg PUBLIC "-//W3C//DTD SVG 1.1//EN"
 "http://www.w3.org/Graphics/SVG/1.1/DTD/svg11.dtd">
<!-- Generated by graphviz version 2.50.0 (20211204.2007)
 -->
<!-- Title: SledImage Pages: 1 -->
<svg width="565pt" height="375pt"
 viewBox="0.00 0.00 564.52 374.88" xmlns="http://www.w3.org/2000/svg" xmlns:xlink="http://www.w3.org/1999/xlink">
<g id="graph0" class="graph" transform="scale(1 1) rotate(0) translate(4 370.88)">
<title>SledImage</title>
<polygon fill="white" stroke="transparent" points="-4,4 -4,-370.88 560.52,-370.88 560.52,4 -4,4"/>
<!-- Depiction&#45;&gt;CollectionObject -->
<g id="edge1" class="edge">
<title>Depiction&#45;&gt;CollectionObject</title>
<path fill="none" stroke="black" d="M87.38,-331.58C97.24,-333.32 108.01,-335.21 118.65,-337.09"/>
<polygon fill="black" stroke="black" points="118.33,-340.58 128.78,-338.87 119.54,-333.69 118.33,-340.58"/>
</g>
<!-- Tag&#45;&gt;Keyword -->
<g id="edge3" class="edge">
<title>Tag&#45;&gt;Keyword</title>
<path fill="none" stroke="black" d="M72.77,-195.76C91.73,-196.04 117.75,-196.42 139.72,-196.75"/>
<polygon fill="black" stroke="black" points="139.76,-200.25 149.81,-196.89 139.87,-193.25 139.76,-200.25"/>
</g>
<!-- SledImage&#45;&gt;Tag -->
<g id="edge7" class="edge">
<title>SledImage&#45;&gt;Tag</title>
<path fill="none" stroke="black" d="M143.67,-155.44C122.97,-163.95 97.86,-174.27 78.36,-182.28"/>
<polygon fill="black" stroke="black" points="76.92,-179.09 69,-186.13 79.58,-185.57 76.92,-179.09"/>
</g>
<!-- SledImage&#45;&gt;Note -->
<g id="edge4" class="edge">
<title>SledImage&#45;&gt;Note</title>
<path fill="none" stroke="black" d="M127.11,-139.38C112.59,-139.38 97.28,-139.38 83.95,-139.38"/>
<polygon fill="black" stroke="black" points="83.74,-135.88 73.74,-139.38 83.74,-142.88 83.74,-135.88"/>
</g>
<!-- SledImage&#45;&gt;Image -->
<g id="edge11" class="edge">
<title>SledImage&#45;&gt;Image</title>
<path fill="none" stroke="black" stroke-dasharray="5,2" d="M231.24,-161.46C234.64,-164.16 237.79,-167.13 240.52,-170.38 271.96,-207.84 245.78,-236.32 276.52,-274.38 281.4,-280.42 288.02,-285.45 294.67,-289.47"/>
<polygon fill="black" stroke="black" points="233.16,-158.54 222.97,-155.64 229.13,-164.26 233.16,-158.54"/>
</g>
<!-- SledImage&#45;&gt;PinboardItem -->
<g id="edge5" class="edge">
<title>SledImage&#45;&gt;PinboardItem</title>
<path fill="none" stroke="black" d="M221.11,-156.53C227.93,-160.57 234.72,-165.22 240.52,-170.38 260.97,-188.58 256.41,-201.79 276.52,-220.38 277.59,-221.37 278.71,-222.35 279.87,-223.31"/>
<polygon fill="black" stroke="black" points="277.76,-226.11 287.85,-229.34 281.98,-220.52 277.76,-226.11"/>
</g>
<!-- SledImage&#45;&gt;Role -->
<g id="edge6" class="edge">
<title>SledImage&#45;&gt;Role</title>
<path fill="none" stroke="black" d="M224.53,-155.14C243.8,-162.78 266.74,-171.87 285.43,-179.27"/>
<polygon fill="black" stroke="black" points="284.18,-182.54 294.76,-182.97 286.76,-176.04 284.18,-182.54"/>
</g>
<!-- SledImage&#45;&gt;VerifierRole -->
<g id="edge8" class="edge">
<title>SledImage&#45;&gt;VerifierRole</title>
<path fill="none" stroke="black" d="M240.57,-139.38C250.39,-139.38 260.57,-139.38 270.25,-139.38"/>
<polygon fill="black" stroke="black" points="270.51,-142.88 280.51,-139.38 270.51,-135.88 270.51,-142.88"/>
</g>
<!-- SledImage&#45;&gt;Creator -->
<g id="edge10" class="edge">
<title>SledImage&#45;&gt;Creator</title>
<path fill="none" stroke="black" stroke-dasharray="5,2" d="M237.73,-121.48C274.38,-108.87 324.17,-91.28 367.52,-74.38 379.35,-69.76 392.27,-64.34 403.35,-59.57"/>
<polygon fill="black" stroke="black" points="236.55,-118.19 228.23,-124.74 238.82,-124.81 236.55,-118.19"/>
</g>
<!-- SledImage&#45;&gt;Project -->
<g id="edge12" class="edge">
<title>SledImage&#45;&gt;Project</title>
<path fill="none" stroke="black" stroke-dasharray="5,2" d="M222.12,-114.15C245.05,-98.66 273.87,-79.21 294.47,-65.3"/>
<polygon fill="black" stroke="black" points="219.98,-111.37 213.65,-119.87 223.9,-117.17 219.98,-111.37"/>
</g>
<!-- SledImage&#45;&gt;Updater -->
<g id="edge13" class="edge">
<title>SledImage&#45;&gt;Updater</title>
<path fill="none" stroke="black" stroke-dasharray="5,2" d="M198.75,-107.98C213.5,-79.23 239.71,-38.48 276.52,-20.38 349.9,15.7 380.32,-4.38 460.52,-20.38 472.62,-22.79 485.29,-27.5 496.2,-32.32"/>
<polygon fill="black" stroke="black" points="195.48,-106.71 194.2,-117.23 201.76,-109.81 195.48,-106.71"/>
</g>
<!-- Image&#45;&gt;Depiction -->
<g id="edge2" class="edge">
<title>Image&#45;&gt;Depiction</title>
<path fill="none" stroke="black" d="M294.76,-303.58C250.24,-307.31 159.09,-314.94 100.48,-319.85"/>
<polygon fill="black" stroke="black" points="99.97,-316.38 90.3,-320.71 100.56,-323.36 99.97,-316.38"/>
</g>
<!-- Role&#45;&gt;Verifier -->
<!-- VerifierRole&#45;&gt;Verifier -->
<g id="edge9" class="edge">
<title>VerifierRole&#45;&gt;Verifier</title>
<path fill="none" stroke="black" d="M363.54,-149.51C373.4,-151.97 383.9,-154.6 393.61,-157.03"/>
<polygon fill="black" stroke="black" points="392.83,-160.44 403.38,-159.47 394.53,-153.65 392.83,-160.44"/>
</g>
<!-- Creator&#45;&gt;Updater -->
<!-- Project&#45;&gt;Creator -->
<!-- Depiction -->
<g id="node1" class="node">
<title>Depiction</title>
<g id="a_node1"><a xlink:href="/develop/Data/models.html#depiction" xlink:title="Depiction" target="_top">
<ellipse fill="#abcdef" stroke="#dddeee" cx="45.5" cy="-324.38" rx="45.49" ry="18"/>
<text text-anchor="middle" x="45.5" y="-320.68" font-family="Times,serif" font-size="14.00">Depiction</text>
</a>
</g>
</g>
<!-- Tag -->
<g id="node2" class="node">
<title>Tag</title>
<g id="a_node2"><a xlink:href="/develop/Data/models.html#tag" xlink:title="Tag" target="_top">
<ellipse fill="#abcdef" stroke="#dddeee" cx="45.5" cy="-195.38" rx="27" ry="18"/>
<text text-anchor="middle" x="45.5" y="-191.68" font-family="Times,serif" font-size="14.00">Tag</text>
</a>
</g>
</g>
<!-- Note -->
<g id="node3" class="node">
<title>Note</title>
<g id="a_node3"><a xlink:href="/develop/Data/models.html#note" xlink:title="Note" target="_top">
<ellipse fill="#abcdef" stroke="#dddeee" cx="45.5" cy="-139.38" rx="27.9" ry="18"/>
<text text-anchor="middle" x="45.5" y="-135.68" font-family="Times,serif" font-size="14.00">Note</text>
</a>
</g>
</g>
<!-- CollectionObject -->
<g id="node4" class="node">
<title>CollectionObject</title>
<g id="a_node4"><a xlink:href="/develop/Data/models.html#collection-object" xlink:title="CollectionObject" target="_top">
<path fill="#fedcba" stroke="#dddeee" d="M141.25,-330.38C141.25,-330.38 226.25,-330.38 226.25,-330.38 232.25,-330.38 238.25,-336.38 238.25,-342.38 238.25,-342.38 238.25,-354.38 238.25,-354.38 238.25,-360.38 232.25,-366.38 226.25,-366.38 226.25,-366.38 141.25,-366.38 141.25,-366.38 135.25,-366.38 129.25,-360.38 129.25,-354.38 129.25,-354.38 129.25,-342.38 129.25,-342.38 129.25,-336.38 135.25,-330.38 141.25,-330.38"/>
<text text-anchor="middle" x="183.75" y="-344.68" font-family="Times,serif" font-size="14.00">CollectionObject</text>
</a>
</g>
</g>
<!-- SledImage -->
<g id="node5" class="node">
<title>SledImage</title>
<g id="a_node5"><a xlink:href="/develop/Data/models.html#sled-image" xlink:title="SledImage" target="_top">
<polygon fill="#cdefab" stroke="#dedede" points="236.3,-131.92 236.3,-146.83 205.52,-157.38 161.99,-157.38 131.21,-146.83 131.21,-131.92 161.99,-121.38 205.52,-121.38 236.3,-131.92"/>
<polygon fill="none" stroke="#dedede" points="240.28,-129.06 240.28,-149.69 206.18,-161.38 161.33,-161.38 127.23,-149.69 127.23,-129.06 161.33,-117.38 206.18,-117.38 240.28,-129.06"/>
<text text-anchor="middle" x="183.75" y="-135.68" font-family="Times,serif" font-size="14.00">SledImage</text>
</a>
</g>
</g>
<!-- Image -->
<g id="node6" class="node">
<title>Image</title>
<g id="a_node6"><a xlink:href="/develop/Data/models.html#image" xlink:title="Image" target="_top">
<polygon fill="#eeefff" stroke="#dddeee" points="349.02,-319.38 295.02,-319.38 295.02,-283.38 349.02,-283.38 349.02,-319.38"/>
<text text-anchor="middle" x="322.02" y="-297.68" font-family="Times,serif" font-size="14.00">Image</text>
</a>
</g>
</g>
<!-- Keyword -->
<g id="node7" class="node">
<title>Keyword</title>
<g id="a_node7"><a xlink:href="/develop/Data/models.html#keyword" xlink:title="Keyword" target="_top">
<polygon fill="#eeefff" stroke="#dddeee" points="217.25,-215.38 150.25,-215.38 150.25,-179.38 217.25,-179.38 217.25,-215.38"/>
<text text-anchor="middle" x="183.75" y="-193.68" font-family="Times,serif" font-size="14.00">Keyword</text>
</a>
</g>
</g>
<!-- PinboardItem -->
<g id="node8" class="node">
<title>PinboardItem</title>
<g id="a_node8"><a xlink:href="/develop/Data/models.html#pinboard-item" xlink:title="PinboardItem" target="_top">
<polygon fill="#eeefff" stroke="#dddeee" points="367.52,-265.38 276.52,-265.38 276.52,-229.38 367.52,-229.38 367.52,-265.38"/>
<text text-anchor="middle" x="322.02" y="-243.68" font-family="Times,serif" font-size="14.00">PinboardItem</text>
</a>
</g>
</g>
<!-- Role -->
<g id="node9" class="node">
<title>Role</title>
<g id="a_node9"><a xlink:href="/develop/Data/models.html#role" xlink:title="Role" target="_top">
<polygon fill="#eeefff" stroke="#dddeee" points="349.02,-211.38 295.02,-211.38 295.02,-175.38 349.02,-175.38 349.02,-211.38"/>
<text text-anchor="middle" x="322.02" y="-189.68" font-family="Times,serif" font-size="14.00">Role</text>
</a>
</g>
</g>
<!-- VerifierRole -->
<g id="node10" class="node">
<title>VerifierRole</title>
<g id="a_node10"><a xlink:href="/develop/Data/models.html#verifier-role" xlink:title="VerifierRole" target="_top">
<polygon fill="#eeefff" stroke="#dddeee" points="363.52,-157.38 280.52,-157.38 280.52,-121.38 363.52,-121.38 363.52,-157.38"/>
<text text-anchor="middle" x="322.02" y="-135.68" font-family="Times,serif" font-size="14.00">VerifierRole</text>
</a>
</g>
</g>
<!-- Verifier -->
<g id="node11" class="node">
<title>Verifier</title>
<g id="a_node11"><a xlink:href="/develop/Data/models.html#verifier" xlink:title="Verifier" target="_top">
<polygon fill="#eeefff" stroke="#dddeee" points="460.52,-184.38 403.52,-184.38 403.52,-148.38 460.52,-148.38 460.52,-184.38"/>
<text text-anchor="middle" x="432.02" y="-162.68" font-family="Times,serif" font-size="14.00">Verifier</text>
</a>
</g>
</g>
<!-- Creator -->
<g id="node12" class="node">
<title>Creator</title>
<g id="a_node12"><a xlink:href="/develop/Data/models.html#creator" xlink:title="Creator" target="_top">
<polygon fill="#eeefff" stroke="#dddeee" points="460.52,-65.38 403.52,-65.38 403.52,-29.38 460.52,-29.38 460.52,-65.38"/>
<text text-anchor="middle" x="432.02" y="-43.68" font-family="Times,serif" font-size="14.00">Creator</text>
</a>
</g>
</g>
<!-- Project -->
<g id="node13" class="node">
<title>Project</title>
<g id="a_node13"><a xlink:href="/develop/Data/models.html#project" xlink:title="Project" target="_top">
<polygon fill="#eeefff" stroke="#dddeee" points="349.52,-65.38 294.52,-65.38 294.52,-29.38 349.52,-29.38 349.52,-65.38"/>
<text text-anchor="middle" x="322.02" y="-43.68" font-family="Times,serif" font-size="14.00">Project</text>
</a>
</g>
</g>
<!-- Updater -->
<g id="node14" class="node">
<title>Updater</title>
<g id="a_node14"><a xlink:href="/develop/Data/models.html#updater" xlink:title="Updater" target="_top">
<polygon fill="#eeefff" stroke="#dddeee" points="556.52,-65.38 496.52,-65.38 496.52,-29.38 556.52,-29.38 556.52,-65.38"/>
<text text-anchor="middle" x="526.52" y="-43.68" font-family="Times,serif" font-size="14.00">Updater</text>
</a>
</g>
</g>
</g>
</svg>
