<?xml version="1.0" encoding="UTF-8" standalone="no"?>
<!DOCTYPE svg PUBLIC "-//W3C//DTD SVG 1.1//EN"
 "http://www.w3.org/Graphics/SVG/1.1/DTD/svg11.dtd">
<!-- Generated by graphviz version 12.2.1 (20241206.2353)
 -->
<!-- Title: Sound Pages: 1 -->
<svg width="913pt" height="1197pt"
 viewBox="0.00 0.00 913.18 1197.00" xmlns="http://www.w3.org/2000/svg" xmlns:xlink="http://www.w3.org/1999/xlink">
<g id="graph0" class="graph" transform="scale(1 1) rotate(0) translate(4 1193)">
<title>Sound</title>
<polygon fill="white" stroke="none" points="-4,4 -4,-1193 909.18,-1193 909.18,4 -4,4"/>
<!-- Citation&#45;&gt;Source -->
<g id="edge34" class="edge">
<title>Citation&#45;&gt;Source</title>
<path fill="none" stroke="black" stroke-dasharray="1,5" d="M129.52,-1116C198.23,-1116 338.16,-1116 405.22,-1116"/>
<polygon fill="black" stroke="black" points="404.96,-1119.5 414.96,-1116 404.96,-1112.5 404.96,-1119.5"/>
</g>
<!-- Citation&#45;&gt;CitationTopic -->
<g id="edge1" class="edge">
<title>Citation&#45;&gt;CitationTopic</title>
<path fill="none" stroke="black" stroke-dasharray="1,5" d="M122.63,-1126.22C147.48,-1133.93 182.16,-1144.69 211.3,-1153.73"/>
<polygon fill="black" stroke="black" points="210.12,-1157.04 220.71,-1156.66 212.2,-1150.35 210.12,-1157.04"/>
</g>
<!-- Confidence&#45;&gt;ConfidenceLevel -->
<g id="edge5" class="edge">
<title>Confidence&#45;&gt;ConfidenceLevel</title>
<path fill="none" stroke="black" stroke-dasharray="1,5" d="M142.4,-811C161.08,-811 182.32,-811 201.91,-811"/>
<polygon fill="black" stroke="black" points="201.7,-814.5 211.7,-811 201.7,-807.5 201.7,-814.5"/>
</g>
<!-- Tag&#45;&gt;Keyword -->
<g id="edge14" class="edge">
<title>Tag&#45;&gt;Keyword</title>
<path fill="none" stroke="black" stroke-dasharray="1,5" d="M115.86,-541C144.02,-541 189.32,-541 222.97,-541"/>
<polygon fill="black" stroke="black" points="222.83,-544.5 232.83,-541 222.83,-537.5 222.83,-544.5"/>
</g>
<!-- ProtocolRelationship&#45;&gt;Protocol -->
<g id="edge31" class="edge">
<title>ProtocolRelationship&#45;&gt;Protocol</title>
<path fill="none" stroke="black" stroke-dasharray="1,5" d="M177.8,-487C194.36,-487 210.94,-487 225.24,-487"/>
<polygon fill="black" stroke="black" points="225.14,-490.5 235.14,-487 225.14,-483.5 225.14,-490.5"/>
</g>
<!-- Observation&#45;&gt;Descriptor -->
<g id="edge9" class="edge">
<title>Observation&#45;&gt;Descriptor</title>
<path fill="none" stroke="black" stroke-dasharray="1,5" d="M485.07,-622C517.52,-622 563.14,-622 597.24,-622"/>
<polygon fill="black" stroke="black" points="596.81,-625.5 606.81,-622 596.81,-618.5 596.81,-625.5"/>
</g>
<!-- Observation&#45;&gt;ObservationMatrix -->
<!-- Source&#45;&gt;SubsequentCitation -->
<!-- Source&#45;&gt;OriginCitation -->
<!-- Sound&#45;&gt;Citation -->
<g id="edge2" class="edge">
<title>Sound&#45;&gt;Citation</title>
<path fill="none" stroke="black" d="M257.89,-671.4C247.13,-698.14 228.71,-744.23 213.43,-784 170.48,-895.72 121.34,-1029.43 100.24,-1087.14"/>
<polygon fill="black" stroke="black" points="96.95,-1085.94 96.81,-1096.53 103.53,-1088.34 96.95,-1085.94"/>
</g>
<!-- Sound&#45;&gt;Confidence -->
<g id="edge6" class="edge">
<title>Sound&#45;&gt;Confidence</title>
<path fill="none" stroke="black" d="M257.89,-671.37C244.66,-701.37 217.18,-754.28 177.43,-784 168.53,-790.65 157.96,-795.69 147.31,-799.49"/>
<polygon fill="black" stroke="black" points="146.57,-796.05 138.12,-802.43 148.71,-802.71 146.57,-796.05"/>
</g>
<!-- Sound&#45;&gt;DataAttribute -->
<g id="edge8" class="edge">
<title>Sound&#45;&gt;DataAttribute</title>
<path fill="none" stroke="black" d="M248.66,-670.09C231.82,-688.31 205.3,-714.15 177.43,-730 168.77,-734.92 159.12,-739.05 149.47,-742.48"/>
<polygon fill="black" stroke="black" points="148.46,-739.12 140.06,-745.58 150.65,-745.77 148.46,-739.12"/>
</g>
<!-- Sound&#45;&gt;Identifier -->
<g id="edge11" class="edge">
<title>Sound&#45;&gt;Identifier</title>
<path fill="none" stroke="black" d="M228.97,-660.56C201.83,-668.84 165.14,-680.02 136.24,-688.82"/>
<polygon fill="black" stroke="black" points="135.57,-685.37 127.02,-691.63 137.61,-692.06 135.57,-685.37"/>
</g>
<!-- Sound&#45;&gt;Tag -->
<g id="edge37" class="edge">
<title>Sound&#45;&gt;Tag</title>
<path fill="none" stroke="black" d="M248.66,-627.91C231.82,-609.69 205.3,-583.85 177.43,-568 161.56,-558.98 142.33,-552.62 125.92,-548.35"/>
<polygon fill="black" stroke="black" points="127.1,-545.04 116.56,-546.08 125.45,-551.84 127.1,-545.04"/>
</g>
<!-- Sound&#45;&gt;Note -->
<g id="edge15" class="edge">
<title>Sound&#45;&gt;Note</title>
<path fill="none" stroke="black" d="M226.45,-649C197.26,-649 158.06,-649 129.12,-649"/>
<polygon fill="black" stroke="black" points="129.31,-645.5 119.31,-649 129.31,-652.5 129.31,-645.5"/>
</g>
<!-- Sound&#45;&gt;ProtocolRelationship -->
<g id="edge30" class="edge">
<title>Sound&#45;&gt;ProtocolRelationship</title>
<path fill="none" stroke="black" d="M252.08,-626.5C226.81,-588.23 178.09,-514.5 177.43,-514 172.56,-510.36 167.2,-507.21 161.6,-504.48"/>
<polygon fill="black" stroke="black" points="163.26,-501.39 152.7,-500.61 160.47,-507.8 163.26,-501.39"/>
</g>
<!-- Sound&#45;&gt;Attribution -->
<g id="edge46" class="edge">
<title>Sound&#45;&gt;Attribution</title>
<path fill="none" stroke="black" d="M219.05,-634.41C194.05,-626.79 163.51,-617.49 138.39,-609.83"/>
<polygon fill="none" stroke="black" points="229.73,-633.48 227.4,-641.14 219.74,-638.8 222.08,-631.15 229.73,-633.48"/>
<polyline fill="none" stroke="black" points="220.91,-634.98 219,-634.39"/>
<polygon fill="none" stroke="black" points="127.92,-610.82 130.25,-603.17 137.9,-605.5 135.57,-613.15 127.92,-610.82"/>
<polyline fill="none" stroke="black" points="136.73,-609.33 138.65,-609.91"/>
</g>
<!-- Sound&#45;&gt;Observation -->
<g id="edge19" class="edge">
<title>Sound&#45;&gt;Observation</title>
<path fill="none" stroke="black" d="M309.66,-642.67C333.95,-638.9 365.02,-634.07 391.02,-630.03"/>
<polygon fill="black" stroke="black" points="391.36,-633.52 400.7,-628.52 390.28,-626.6 391.36,-633.52"/>
</g>
<!-- Sound&#45;&gt;Source -->
<g id="edge50" class="edge">
<title>Sound&#45;&gt;Source</title>
<path fill="none" stroke="black" stroke-dasharray="1,5" d="M284.16,-680.62C296.44,-707.5 313.15,-747.44 322.43,-784 338.89,-848.87 317.47,-1030.07 358.43,-1083 370,-1097.95 389.32,-1106.14 406.54,-1110.62"/>
<polygon fill="none" stroke="black" points="276.43,-673.47 283.69,-670.11 287.06,-677.37 279.8,-680.73 276.43,-673.47"/>
<polyline fill="none" stroke="black" points="283.43,-679.05 284.27,-680.86"/>
<polygon fill="none" stroke="black" points="416.76,-1108.84 414.99,-1116.64 407.18,-1114.87 408.96,-1107.07 416.76,-1108.84"/>
<polyline fill="none" stroke="black" points="408.07,-1110.97 406.12,-1110.52"/>
</g>
<!-- Sound&#45;&gt;Conveyance -->
<g id="edge7" class="edge">
<title>Sound&#45;&gt;Conveyance</title>
<path fill="none" stroke="black" d="M286.56,-627.69C298.54,-612.1 313.72,-589.93 322.43,-568 356.89,-481.21 326.2,-448.65 358.43,-361 374.26,-317.94 402.99,-273.12 422.45,-245.39"/>
<polygon fill="black" stroke="black" points="425.08,-247.74 428.03,-237.56 419.38,-243.67 425.08,-247.74"/>
</g>
<!-- Sound&#45;&gt;ImportAttribute -->
<g id="edge12" class="edge">
<title>Sound&#45;&gt;ImportAttribute</title>
<path fill="none" stroke="black" d="M293.87,-631.41C311.34,-619.67 335.56,-604.51 358.43,-594 365.82,-590.61 373.75,-587.46 381.69,-584.61"/>
<polygon fill="black" stroke="black" points="382.72,-587.95 391.04,-581.39 380.45,-581.34 382.72,-587.95"/>
</g>
<!-- Sound&#45;&gt;InternalAttribute -->
<g id="edge13" class="edge">
<title>Sound&#45;&gt;InternalAttribute</title>
<path fill="none" stroke="black" d="M281.87,-626.53C297.15,-601.89 324.81,-562.84 358.43,-540 364.9,-535.6 372.14,-531.88 379.58,-528.75"/>
<polygon fill="black" stroke="black" points="380.67,-532.08 388.76,-525.24 378.17,-525.54 380.67,-532.08"/>
</g>
<!-- Sound&#45;&gt;ObservationMatrixRow -->
<g id="edge18" class="edge">
<title>Sound&#45;&gt;ObservationMatrixRow</title>
<path fill="none" stroke="black" d="M284.98,-626.94C296.2,-611 311.14,-588.72 322.43,-568 341.46,-533.05 327.68,-511.28 358.43,-486 418.39,-436.69 453.24,-465.29 528.93,-448 539.35,-445.62 550.29,-443.09 561.11,-440.58"/>
<polygon fill="black" stroke="black" points="561.9,-443.99 570.85,-438.31 560.31,-437.17 561.9,-443.99"/>
</g>
<!-- Sound&#45;&gt;ObservationMatrixRowItem -->
<g id="edge17" class="edge">
<title>Sound&#45;&gt;ObservationMatrixRowItem</title>
<path fill="none" stroke="black" d="M285.69,-627.31C297.25,-611.54 312.3,-589.31 322.43,-568 345.41,-519.63 321.7,-491.98 358.43,-453 360.95,-450.32 363.72,-447.87 366.67,-445.62"/>
<polygon fill="black" stroke="black" points="368.31,-448.73 374.72,-440.29 364.45,-442.89 368.31,-448.73"/>
</g>
<!-- Sound&#45;&gt;RelatedOriginRelationship -->
<g id="edge32" class="edge">
<title>Sound&#45;&gt;RelatedOriginRelationship</title>
<path fill="none" stroke="black" d="M278.65,-671.16C290.06,-697.66 309.1,-743.53 322.43,-784 341.98,-843.39 308.88,-881.86 358.43,-920 427.14,-972.89 534.45,-941.44 596.19,-915.85"/>
<polygon fill="black" stroke="black" points="597.21,-919.22 605.04,-912.08 594.47,-912.78 597.21,-919.22"/>
</g>
<!-- Sound&#45;&gt;OriginRelationship -->
<g id="edge26" class="edge">
<title>Sound&#45;&gt;OriginRelationship</title>
<path fill="none" stroke="black" d="M277.87,-671.38C299.77,-726.11 354.6,-862.47 358.43,-866 362.94,-870.16 368.11,-873.69 373.6,-876.67"/>
<polygon fill="black" stroke="black" points="371.88,-879.72 382.42,-880.82 374.86,-873.39 371.88,-879.72"/>
</g>
<!-- Sound&#45;&gt;PinboardItem -->
<g id="edge29" class="edge">
<title>Sound&#45;&gt;PinboardItem</title>
<path fill="none" stroke="black" d="M287.09,-627.88C299.31,-612.39 314.57,-590.25 322.43,-568 350.45,-488.64 305.64,-256.55 358.43,-191 365.8,-181.84 376.3,-175.75 387.39,-171.7"/>
<polygon fill="black" stroke="black" points="388.14,-175.13 396.67,-168.86 386.09,-168.44 388.14,-175.13"/>
</g>
<!-- Sound&#45;&gt;Role -->
<g id="edge33" class="edge">
<title>Sound&#45;&gt;Role</title>
<path fill="none" stroke="black" d="M275.31,-671.46C286.41,-706.54 312.59,-774.22 358.43,-812 371.68,-822.93 389.44,-829.46 405.23,-833.35"/>
<polygon fill="black" stroke="black" points="404.3,-836.73 414.81,-835.43 405.78,-829.89 404.3,-836.73"/>
</g>
<!-- Sound&#45;&gt;SubsequentCitation -->
<g id="edge35" class="edge">
<title>Sound&#45;&gt;SubsequentCitation</title>
<path fill="none" stroke="black" d="M279.75,-671.36C292.02,-697.69 311.71,-743.03 322.43,-784 337.53,-841.71 317.95,-1006.19 358.43,-1050 362.12,-1054 489.33,-1080.5 572.79,-1097.53"/>
<polygon fill="black" stroke="black" points="572.03,-1100.95 582.53,-1099.52 573.43,-1094.09 572.03,-1100.95"/>
</g>
<!-- Sound&#45;&gt;Uri -->
<g id="edge39" class="edge">
<title>Sound&#45;&gt;Uri</title>
<path fill="none" stroke="black" d="M287.27,-627.95C299.57,-612.48 314.87,-590.35 322.43,-568 359.76,-457.65 286.57,-136.7 358.43,-45 369.51,-30.86 388.06,-24 404.94,-20.73"/>
<polygon fill="black" stroke="black" points="405.4,-24.2 414.75,-19.22 404.33,-17.28 405.4,-24.2"/>
</g>
<!-- Sound&#45;&gt;Uuid -->
<g id="edge40" class="edge">
<title>Sound&#45;&gt;Uuid</title>
<path fill="none" stroke="black" d="M279.47,-671.44C291.49,-697.83 310.94,-743.23 322.43,-784 347.76,-873.88 298.99,-918.98 358.43,-991 370,-1005.02 388.42,-1012.91 405.09,-1017.34"/>
<polygon fill="black" stroke="black" points="404.24,-1020.73 414.77,-1019.55 405.8,-1013.91 404.24,-1020.73"/>
</g>
<!-- Sound&#45;&gt;VerifierRole -->
<g id="edge41" class="edge">
<title>Sound&#45;&gt;VerifierRole</title>
<path fill="none" stroke="black" d="M309.66,-655.56C333.87,-659.47 364.8,-664.45 390.74,-668.63"/>
<polygon fill="black" stroke="black" points="389.97,-672.05 400.4,-670.19 391.08,-665.14 389.97,-672.05"/>
</g>
<!-- Sound&#45;&gt;Creator -->
<g id="edge43" class="edge">
<title>Sound&#45;&gt;Creator</title>
<path fill="none" stroke="black" stroke-dasharray="5,2" d="M294.01,-618.96C304.67,-604.47 316.09,-586.29 322.43,-568 353.89,-477.18 295.24,-209.42 358.43,-137 409.47,-78.5 453.24,-116.29 528.93,-99 559.01,-92.13 593.45,-84.04 616.81,-78.52"/>
<polygon fill="black" stroke="black" points="291.38,-616.64 288.09,-626.71 296.94,-620.89 291.38,-616.64"/>
</g>
<!-- Sound&#45;&gt;Project -->
<g id="edge44" class="edge">
<title>Sound&#45;&gt;Project</title>
<path fill="none" stroke="black" stroke-dasharray="5,2" d="M294.06,-618.98C304.73,-604.49 316.14,-586.31 322.43,-568 356,-470.18 296.45,-186.79 358.43,-104 371.93,-85.96 396.9,-78.09 416.16,-74.66"/>
<polygon fill="black" stroke="black" points="291.43,-616.65 288.13,-626.72 296.98,-620.91 291.43,-616.65"/>
</g>
<!-- Sound&#45;&gt;Updater -->
<g id="edge45" class="edge">
<title>Sound&#45;&gt;Updater</title>
<path fill="none" stroke="black" stroke-dasharray="5,2" d="M293.01,-618.58C303.47,-604.01 315,-585.87 322.43,-568 352.73,-495.08 299.91,-447.03 358.43,-394 480.05,-283.77 595.8,-455.37 725.68,-355 812.52,-287.89 828.71,-141.73 831.73,-90.33"/>
<polygon fill="black" stroke="black" points="290.37,-616.26 287.25,-626.38 296.01,-620.42 290.37,-616.26"/>
</g>
<!-- Sound&#45;&gt;OriginCitation -->
<g id="edge47" class="edge">
<title>Sound&#45;&gt;OriginCitation</title>
<path fill="none" stroke="black" d="M283.04,-680.39C294.79,-707.43 311.33,-747.71 322.43,-784 344.24,-855.36 306.21,-894.69 358.43,-948 374.45,-964.36 508.47,-991.69 587.19,-1006.57"/>
<polygon fill="none" stroke="black" points="275.49,-673.13 282.81,-669.91 286.03,-677.24 278.7,-680.45 275.49,-673.13"/>
<polyline fill="none" stroke="black" points="282.36,-678.84 283.17,-680.68"/>
<polygon fill="none" stroke="black" points="597.7,-1004.47 596.22,-1012.33 588.36,-1010.86 589.83,-1002.99 597.7,-1004.47"/>
<polyline fill="none" stroke="black" points="589.09,-1006.93 587.13,-1006.56"/>
</g>
<!-- Sound&#45;&gt;SoundFileAttachment -->
<g id="edge48" class="edge">
<title>Sound&#45;&gt;SoundFileAttachment</title>
<path fill="none" stroke="black" d="M287.32,-680.03C303.27,-704.46 328.48,-737.66 358.43,-758 361.01,-759.76 363.72,-761.4 366.51,-762.95"/>
<polygon fill="none" stroke="black" points="278.76,-674.04 285.51,-669.75 289.81,-676.5 283.06,-680.79 278.76,-674.04"/>
<polyline fill="none" stroke="black" points="286.43,-678.64 287.51,-680.33"/>
<polygon fill="none" stroke="black" points="377.02,-763.74 373.43,-770.89 366.28,-767.31 369.87,-760.16 377.02,-763.74"/>
<polyline fill="none" stroke="black" points="368.07,-763.73 366.29,-762.84"/>
</g>
<!-- Sound&#45;&gt;SoundFileBlob -->
<g id="edge49" class="edge">
<title>Sound&#45;&gt;SoundFileBlob</title>
<path fill="none" stroke="black" stroke-dasharray="1,5" d="M302.52,-672.31C318.87,-682.96 339.13,-695.14 358.43,-704 366.83,-707.86 375.94,-711.4 384.97,-714.55"/>
<polygon fill="none" stroke="black" points="292.08,-670.2 296.49,-663.53 303.16,-667.94 298.75,-674.61 292.08,-670.2"/>
<polyline fill="none" stroke="black" points="300.95,-671.28 302.62,-672.38"/>
<polygon fill="none" stroke="black" points="395.49,-713.87 392.93,-721.45 385.35,-718.9 387.9,-711.32 395.49,-713.87"/>
<polyline fill="none" stroke="black" points="386.63,-715.11 384.73,-714.47"/>
</g>
<!-- CitationTopic&#45;&gt;Topic -->
<g id="edge38" class="edge">
<title>CitationTopic&#45;&gt;Topic</title>
<path fill="none" stroke="black" stroke-dasharray="1,5" d="M313.67,-1171C341.96,-1171 378.12,-1171 404.95,-1171"/>
<polygon fill="black" stroke="black" points="404.68,-1174.5 414.68,-1171 404.68,-1167.5 404.68,-1174.5"/>
</g>
<!-- Conveyance&#45;&gt;CollectingEvent -->
<g id="edge3" class="edge">
<title>Conveyance&#45;&gt;CollectingEvent</title>
<path fill="none" stroke="black" stroke-dasharray="1,5" d="M485.07,-206.87C512.9,-199.2 550.4,-188.87 582.02,-180.16"/>
<polygon fill="black" stroke="black" points="582.77,-183.58 591.48,-177.55 580.91,-176.84 582.77,-183.58"/>
</g>
<!-- Conveyance&#45;&gt;CollectionObject -->
<g id="edge4" class="edge">
<title>Conveyance&#45;&gt;CollectionObject</title>
<path fill="none" stroke="black" stroke-dasharray="1,5" d="M467.51,-236.24C490.9,-254.27 528.86,-281.73 564.93,-300 569.93,-302.53 575.22,-304.94 580.6,-307.19"/>
<polygon fill="black" stroke="black" points="579,-310.32 589.58,-310.78 581.59,-303.82 579,-310.32"/>
</g>
<!-- Conveyance&#45;&gt;Otu -->
<g id="edge28" class="edge">
<title>Conveyance&#45;&gt;Otu</title>
<path fill="none" stroke="black" stroke-dasharray="1,5" d="M485.07,-229.13C520.69,-238.94 572.19,-253.13 606.88,-262.69"/>
<polygon fill="black" stroke="black" points="605.93,-266.06 616.5,-265.34 607.79,-259.31 605.93,-266.06"/>
</g>
<!-- Conveyance&#45;&gt;FieldOccurrence -->
<g id="edge10" class="edge">
<title>Conveyance&#45;&gt;FieldOccurrence</title>
<path fill="none" stroke="black" stroke-dasharray="1,5" d="M485.07,-218C512.47,-218 549.26,-218 580.57,-218"/>
<polygon fill="black" stroke="black" points="580.31,-221.5 590.31,-218 580.31,-214.5 580.31,-221.5"/>
</g>
<!-- ObservationMatrixRow&#45;&gt;ObservationMatrix -->
<g id="edge16" class="edge">
<title>ObservationMatrixRow&#45;&gt;ObservationMatrix</title>
<path fill="none" stroke="black" stroke-dasharray="1,5" d="M718.26,-421C732.63,-421 747.71,-421 762.02,-421"/>
<polygon fill="black" stroke="black" points="761.8,-424.5 771.8,-421 761.8,-417.5 761.8,-424.5"/>
</g>
<!-- ObservationMatrixRowItem&#45;&gt;ObservationMatrixRow -->
<!-- RelatedOriginRelationship&#45;&gt;OriginCollectingEvent -->
<g id="edge20" class="edge">
<title>RelatedOriginRelationship&#45;&gt;OriginCollectingEvent</title>
<path fill="none" stroke="black" stroke-dasharray="1,5" d="M726.05,-893C734.76,-893 743.63,-893 752.35,-893"/>
<polygon fill="black" stroke="black" points="752.18,-896.5 762.18,-893 752.18,-889.5 752.18,-896.5"/>
</g>
<!-- RelatedOriginRelationship&#45;&gt;OriginCollectionObject -->
<g id="edge21" class="edge">
<title>RelatedOriginRelationship&#45;&gt;OriginCollectionObject</title>
<path fill="none" stroke="black" stroke-dasharray="1,5" d="M709.83,-874.57C725.32,-870.07 742.03,-865.23 757.97,-860.6"/>
<polygon fill="black" stroke="black" points="758.78,-864.01 767.41,-857.86 756.83,-857.29 758.78,-864.01"/>
</g>
<!-- RelatedOriginRelationship&#45;&gt;OriginFieldOccurrence -->
<g id="edge22" class="edge">
<title>RelatedOriginRelationship&#45;&gt;OriginFieldOccurrence</title>
<path fill="none" stroke="black" stroke-dasharray="1,5" d="M668.64,-874.79C691.13,-857.08 727.31,-830.26 761.68,-812 764.17,-810.68 766.73,-809.39 769.35,-808.13"/>
<polygon fill="black" stroke="black" points="770.58,-811.42 778.24,-804.11 767.69,-805.04 770.58,-811.42"/>
</g>
<!-- RelatedOriginRelationship&#45;&gt;OriginLot -->
<g id="edge23" class="edge">
<title>RelatedOriginRelationship&#45;&gt;OriginLot</title>
<path fill="none" stroke="black" stroke-dasharray="1,5" d="M663.38,-874.55C679.7,-856.76 704.83,-828.94 725.68,-804 742.33,-784.08 740.79,-773.41 761.68,-758 769.43,-752.28 778.55,-747.62 787.61,-743.88"/>
<polygon fill="black" stroke="black" points="788.6,-747.25 796.72,-740.45 786.13,-740.7 788.6,-747.25"/>
</g>
<!-- RelatedOriginRelationship&#45;&gt;OriginOtu -->
<g id="edge24" class="edge">
<title>RelatedOriginRelationship&#45;&gt;OriginOtu</title>
<path fill="none" stroke="black" stroke-dasharray="1,5" d="M661.18,-911.4C689.5,-946.3 749.46,-1019.38 761.68,-1028 769.24,-1033.33 777.99,-1037.77 786.71,-1041.41"/>
<polygon fill="black" stroke="black" points="785.24,-1044.59 795.83,-1044.91 787.74,-1038.06 785.24,-1044.59"/>
</g>
<!-- RelatedOriginRelationship&#45;&gt;OriginRangedLot -->
<g id="edge25" class="edge">
<title>RelatedOriginRelationship&#45;&gt;OriginRangedLot</title>
<path fill="none" stroke="black" stroke-dasharray="1,5" d="M668.64,-911.21C691.13,-928.92 727.31,-955.74 761.68,-974 764.17,-975.32 766.73,-976.61 769.35,-977.87"/>
<polygon fill="black" stroke="black" points="767.69,-980.96 778.24,-981.89 770.58,-974.58 767.69,-980.96"/>
</g>
<!-- RelatedOriginRelationship&#45;&gt;OriginSpecimen -->
<g id="edge27" class="edge">
<title>RelatedOriginRelationship&#45;&gt;OriginSpecimen</title>
<path fill="none" stroke="black" stroke-dasharray="1,5" d="M709.83,-911.43C729.2,-917.05 750.48,-923.22 769.79,-928.83"/>
<polygon fill="black" stroke="black" points="768.56,-932.11 779.14,-931.54 770.51,-925.39 768.56,-932.11"/>
</g>
<!-- OriginRelationship&#45;&gt;RelatedOriginRelationship -->
<!-- Role&#45;&gt;Verifier -->
<!-- SubsequentCitation&#45;&gt;SubsequentSource -->
<g id="edge36" class="edge">
<title>SubsequentCitation&#45;&gt;SubsequentSource</title>
<path fill="none" stroke="black" stroke-dasharray="1,5" d="M706.47,-1112C724.77,-1112 745.01,-1112 763.82,-1112"/>
<polygon fill="black" stroke="black" points="763.8,-1115.5 773.8,-1112 763.8,-1108.5 763.8,-1115.5"/>
</g>
<!-- VerifierRole&#45;&gt;Verifier -->
<g id="edge42" class="edge">
<title>VerifierRole&#45;&gt;Verifier</title>
<path fill="none" stroke="black" stroke-dasharray="1,5" d="M485.33,-687.75C499.43,-692.07 515.15,-697.56 528.93,-704 557.55,-717.37 587.64,-736.61 609.91,-751.98"/>
<polygon fill="black" stroke="black" points="607.82,-754.78 618.02,-757.65 611.83,-749.05 607.82,-754.78"/>
</g>
<!-- Creator&#45;&gt;Updater -->
<!-- Project&#45;&gt;Creator -->
<!-- Citation -->
<g id="node1" class="node">
<title>Citation</title>
<g id="a_node1"><a xlink:href="/develop/Data/models.html#citation" xlink:title="Citation" target="_top">
<ellipse fill="#abcdef" stroke="#dddeee" cx="88.71" cy="-1116" rx="40.6" ry="18"/>
<text text-anchor="middle" x="88.71" y="-1110.95" font-family="Times,serif" font-size="14.00">Citation</text>
</a>
</g>
</g>
<!-- Confidence -->
<g id="node2" class="node">
<title>Confidence</title>
<g id="a_node2"><a xlink:href="/develop/Data/models.html#confidence" xlink:title="Confidence" target="_top">
<ellipse fill="#abcdef" stroke="#dddeee" cx="88.71" cy="-811" rx="53.4" ry="18"/>
<text text-anchor="middle" x="88.71" y="-805.95" font-family="Times,serif" font-size="14.00">Confidence</text>
</a>
</g>
</g>
<!-- DataAttribute -->
<g id="node3" class="node">
<title>DataAttribute</title>
<g id="a_node3"><a xlink:href="/develop/Data/models.html#data-attribute" xlink:title="DataAttribute" target="_top">
<ellipse fill="#abcdef" stroke="#dddeee" cx="88.71" cy="-757" rx="61.59" ry="18"/>
<text text-anchor="middle" x="88.71" y="-751.95" font-family="Times,serif" font-size="14.00">DataAttribute</text>
</a>
</g>
</g>
<!-- Identifier -->
<g id="node4" class="node">
<title>Identifier</title>
<g id="a_node4"><a xlink:href="/develop/Data/models.html#identifier" xlink:title="Identifier" target="_top">
<ellipse fill="#abcdef" stroke="#dddeee" cx="88.71" cy="-703" rx="45.21" ry="18"/>
<text text-anchor="middle" x="88.71" y="-697.95" font-family="Times,serif" font-size="14.00">Identifier</text>
</a>
</g>
</g>
<!-- Tag -->
<g id="node5" class="node">
<title>Tag</title>
<g id="a_node5"><a xlink:href="/develop/Data/models.html#tag" xlink:title="Tag" target="_top">
<ellipse fill="#abcdef" stroke="#dddeee" cx="88.71" cy="-541" rx="27" ry="18"/>
<text text-anchor="middle" x="88.71" y="-535.95" font-family="Times,serif" font-size="14.00">Tag</text>
</a>
</g>
</g>
<!-- Note -->
<g id="node6" class="node">
<title>Note</title>
<g id="a_node6"><a xlink:href="/develop/Data/models.html#note" xlink:title="Note" target="_top">
<ellipse fill="#abcdef" stroke="#dddeee" cx="88.71" cy="-649" rx="28.83" ry="18"/>
<text text-anchor="middle" x="88.71" y="-643.95" font-family="Times,serif" font-size="14.00">Note</text>
</a>
</g>
</g>
<!-- ProtocolRelationship -->
<g id="node7" class="node">
<title>ProtocolRelationship</title>
<g id="a_node7"><a xlink:href="/develop/Data/models.html#protocol-relationship" xlink:title="ProtocolRelationship" target="_top">
<ellipse fill="#abcdef" stroke="#dddeee" cx="88.71" cy="-487" rx="88.71" ry="18"/>
<text text-anchor="middle" x="88.71" y="-481.95" font-family="Times,serif" font-size="14.00">ProtocolRelationship</text>
</a>
</g>
</g>
<!-- Attribution -->
<g id="node8" class="node">
<title>Attribution</title>
<g id="a_node8"><a xlink:href="/develop/Data/models.html#attribution" xlink:title="Attribution" target="_top">
<ellipse fill="#abcdef" stroke="#dddeee" cx="88.71" cy="-595" rx="51.86" ry="18"/>
<text text-anchor="middle" x="88.71" y="-589.95" font-family="Times,serif" font-size="14.00">Attribution</text>
</a>
</g>
</g>
<!-- CollectingEvent -->
<g id="node9" class="node">
<title>CollectingEvent</title>
<g id="a_node9"><a xlink:href="/develop/Data/models.html#collecting-event" xlink:title="CollectingEvent" target="_top">
<path fill="#fedcba" stroke="#dddeee" d="M605.43,-145C605.43,-145 685.18,-145 685.18,-145 691.18,-145 697.18,-151 697.18,-157 697.18,-157 697.18,-169 697.18,-169 697.18,-175 691.18,-181 685.18,-181 685.18,-181 605.43,-181 605.43,-181 599.43,-181 593.43,-175 593.43,-169 593.43,-169 593.43,-157 593.43,-157 593.43,-151 599.43,-145 605.43,-145"/>
<text text-anchor="middle" x="645.3" y="-158.2" font-family="Times,serif" font-size="14.00">CollectingEvent</text>
</a>
</g>
</g>
<!-- CollectionObject -->
<g id="node10" class="node">
<title>CollectionObject</title>
<g id="a_node10"><a xlink:href="/develop/Data/models.html#collection-object" xlink:title="CollectionObject" target="_top">
<path fill="#fedcba" stroke="#dddeee" d="M603.18,-310C603.18,-310 687.43,-310 687.43,-310 693.43,-310 699.43,-316 699.43,-322 699.43,-322 699.43,-334 699.43,-334 699.43,-340 693.43,-346 687.43,-346 687.43,-346 603.18,-346 603.18,-346 597.18,-346 591.18,-340 591.18,-334 591.18,-334 591.18,-322 591.18,-322 591.18,-316 597.18,-310 603.18,-310"/>
<text text-anchor="middle" x="645.3" y="-323.2" font-family="Times,serif" font-size="14.00">CollectionObject</text>
</a>
</g>
</g>
<!-- Observation -->
<g id="node11" class="node">
<title>Observation</title>
<g id="a_node11"><a xlink:href="/develop/Data/models.html#observation" xlink:title="Observation" target="_top">
<path fill="#fedcba" stroke="#dddeee" d="M414.68,-604C414.68,-604 472.68,-604 472.68,-604 478.68,-604 484.68,-610 484.68,-616 484.68,-616 484.68,-628 484.68,-628 484.68,-634 478.68,-640 472.68,-640 472.68,-640 414.68,-640 414.68,-640 408.68,-640 402.68,-634 402.68,-628 402.68,-628 402.68,-616 402.68,-616 402.68,-610 408.68,-604 414.68,-604"/>
<text text-anchor="middle" x="443.68" y="-617.2" font-family="Times,serif" font-size="14.00">Observation</text>
</a>
</g>
</g>
<!-- Descriptor -->
<g id="node12" class="node">
<title>Descriptor</title>
<g id="a_node12"><a xlink:href="/develop/Data/models.html#descriptor" xlink:title="Descriptor" target="_top">
<path fill="#fedcba" stroke="#dddeee" d="M620.8,-604C620.8,-604 669.8,-604 669.8,-604 675.8,-604 681.8,-610 681.8,-616 681.8,-616 681.8,-628 681.8,-628 681.8,-634 675.8,-640 669.8,-640 669.8,-640 620.8,-640 620.8,-640 614.8,-640 608.8,-634 608.8,-628 608.8,-628 608.8,-616 608.8,-616 608.8,-610 614.8,-604 620.8,-604"/>
<text text-anchor="middle" x="645.3" y="-617.2" font-family="Times,serif" font-size="14.00">Descriptor</text>
</a>
</g>
</g>
<!-- Otu -->
<g id="node13" class="node">
<title>Otu</title>
<g id="a_node13"><a xlink:href="/develop/Data/models.html#otu" xlink:title="Otu" target="_top">
<path fill="#fedcba" stroke="#dddeee" d="M630.3,-255C630.3,-255 660.3,-255 660.3,-255 666.3,-255 672.3,-261 672.3,-267 672.3,-267 672.3,-279 672.3,-279 672.3,-285 666.3,-291 660.3,-291 660.3,-291 630.3,-291 630.3,-291 624.3,-291 618.3,-285 618.3,-279 618.3,-279 618.3,-267 618.3,-267 618.3,-261 624.3,-255 630.3,-255"/>
<text text-anchor="middle" x="645.3" y="-268.2" font-family="Times,serif" font-size="14.00">Otu</text>
</a>
</g>
</g>
<!-- Source -->
<g id="node14" class="node">
<title>Source</title>
<g id="a_node14"><a xlink:href="/develop/Data/models.html#source" xlink:title="Source" target="_top">
<path fill="#fedcba" stroke="#dddeee" d="M428.68,-1098C428.68,-1098 458.68,-1098 458.68,-1098 464.68,-1098 470.68,-1104 470.68,-1110 470.68,-1110 470.68,-1122 470.68,-1122 470.68,-1128 464.68,-1134 458.68,-1134 458.68,-1134 428.68,-1134 428.68,-1134 422.68,-1134 416.68,-1128 416.68,-1122 416.68,-1122 416.68,-1110 416.68,-1110 416.68,-1104 422.68,-1098 428.68,-1098"/>
<text text-anchor="middle" x="443.68" y="-1111.2" font-family="Times,serif" font-size="14.00">Source</text>
</a>
</g>
</g>
<!-- Sound -->
<g id="node15" class="node">
<title>Sound</title>
<g id="a_node15"><a xlink:href="/develop/Data/models.html#sound" xlink:title="Sound" target="_top">
<polygon fill="#cdefab" stroke="#dedede" points="305.23,-641.54 305.23,-656.46 283.38,-667 252.48,-667 230.63,-656.46 230.63,-641.54 252.48,-631 283.38,-631 305.23,-641.54"/>
<polygon fill="none" stroke="#dedede" points="309.23,-639.03 309.23,-658.97 284.29,-671 251.56,-671 226.63,-658.97 226.63,-639.03 251.56,-627 284.29,-627 309.23,-639.03"/>
<text text-anchor="middle" x="267.93" y="-643.95" font-family="Times,serif" font-size="14.00">Sound</text>
</a>
</g>
</g>
<!-- CitationTopic -->
<g id="node16" class="node">
<title>CitationTopic</title>
<g id="a_node16"><a xlink:href="/develop/Data/models.html#citation-topic" xlink:title="CitationTopic" target="_top">
<polygon fill="#eeefff" stroke="#dddeee" points="313.43,-1189 222.43,-1189 222.43,-1153 313.43,-1153 313.43,-1189"/>
<text text-anchor="middle" x="267.93" y="-1165.95" font-family="Times,serif" font-size="14.00">CitationTopic</text>
</a>
</g>
</g>
<!-- Conveyance -->
<g id="node17" class="node">
<title>Conveyance</title>
<g id="a_node17"><a xlink:href="/develop/Data/models.html#conveyance" xlink:title="Conveyance" target="_top">
<polygon fill="#eeefff" stroke="#dddeee" points="485.05,-236 402.3,-236 402.3,-200 485.05,-200 485.05,-236"/>
<text text-anchor="middle" x="443.68" y="-212.95" font-family="Times,serif" font-size="14.00">Conveyance</text>
</a>
</g>
</g>
<!-- ConfidenceLevel -->
<g id="node18" class="node">
<title>ConfidenceLevel</title>
<g id="a_node18"><a xlink:href="/develop/Data/models.html#confidence-level" xlink:title="ConfidenceLevel" target="_top">
<polygon fill="#eeefff" stroke="#dddeee" points="322.43,-829 213.43,-829 213.43,-793 322.43,-793 322.43,-829"/>
<text text-anchor="middle" x="267.93" y="-805.95" font-family="Times,serif" font-size="14.00">ConfidenceLevel</text>
</a>
</g>
</g>
<!-- FieldOccurrence -->
<g id="node19" class="node">
<title>FieldOccurrence</title>
<g id="a_node19"><a xlink:href="/develop/Data/models.html#field-occurrence" xlink:title="FieldOccurrence" target="_top">
<polygon fill="#eeefff" stroke="#dddeee" points="698.3,-236 592.3,-236 592.3,-200 698.3,-200 698.3,-236"/>
<text text-anchor="middle" x="645.3" y="-212.95" font-family="Times,serif" font-size="14.00">FieldOccurrence</text>
</a>
</g>
</g>
<!-- ImportAttribute -->
<g id="node20" class="node">
<title>ImportAttribute</title>
<g id="a_node20"><a xlink:href="/develop/Data/models.html#import-attribute" xlink:title="ImportAttribute" target="_top">
<polygon fill="#eeefff" stroke="#dddeee" points="494.8,-585 392.55,-585 392.55,-549 494.8,-549 494.8,-585"/>
<text text-anchor="middle" x="443.68" y="-561.95" font-family="Times,serif" font-size="14.00">ImportAttribute</text>
</a>
</g>
</g>
<!-- InternalAttribute -->
<g id="node21" class="node">
<title>InternalAttribute</title>
<g id="a_node21"><a xlink:href="/develop/Data/models.html#internal-attribute" xlink:title="InternalAttribute" target="_top">
<polygon fill="#eeefff" stroke="#dddeee" points="497.05,-531 390.3,-531 390.3,-495 497.05,-495 497.05,-531"/>
<text text-anchor="middle" x="443.68" y="-507.95" font-family="Times,serif" font-size="14.00">InternalAttribute</text>
</a>
</g>
</g>
<!-- Keyword -->
<g id="node22" class="node">
<title>Keyword</title>
<g id="a_node22"><a xlink:href="/develop/Data/models.html#keyword" xlink:title="Keyword" target="_top">
<polygon fill="#eeefff" stroke="#dddeee" points="301.05,-559 234.8,-559 234.8,-523 301.05,-523 301.05,-559"/>
<text text-anchor="middle" x="267.93" y="-535.95" font-family="Times,serif" font-size="14.00">Keyword</text>
</a>
</g>
</g>
<!-- ObservationMatrixRow -->
<g id="node23" class="node">
<title>ObservationMatrixRow</title>
<g id="a_node23"><a xlink:href="/develop/Data/models.html#observation-matrix-row" xlink:title="ObservationMatrixRow" target="_top">
<polygon fill="#eeefff" stroke="#dddeee" points="717.8,-439 572.8,-439 572.8,-403 717.8,-403 717.8,-439"/>
<text text-anchor="middle" x="645.3" y="-415.95" font-family="Times,serif" font-size="14.00">ObservationMatrixRow</text>
</a>
</g>
</g>
<!-- ObservationMatrix -->
<g id="node24" class="node">
<title>ObservationMatrix</title>
<g id="a_node24"><a xlink:href="/develop/Data/models.html#observation-matrix" xlink:title="ObservationMatrix" target="_top">
<polygon fill="#eeefff" stroke="#dddeee" points="893.18,-439 773.68,-439 773.68,-403 893.18,-403 893.18,-439"/>
<text text-anchor="middle" x="833.43" y="-415.95" font-family="Times,serif" font-size="14.00">ObservationMatrix</text>
</a>
</g>
</g>
<!-- ObservationMatrixRowItem -->
<g id="node25" class="node">
<title>ObservationMatrixRowItem</title>
<g id="a_node25"><a xlink:href="/develop/Data/models.html#observation-matrix-row-item" xlink:title="ObservationMatrixRowItem" target="_top">
<polygon fill="#eeefff" stroke="#dddeee" points="528.93,-439 358.43,-439 358.43,-403 528.93,-403 528.93,-439"/>
<text text-anchor="middle" x="443.68" y="-415.95" font-family="Times,serif" font-size="14.00">ObservationMatrixRowItem</text>
</a>
</g>
</g>
<!-- RelatedOriginRelationship -->
<g id="node26" class="node">
<title>RelatedOriginRelationship</title>
<g id="a_node26"><a xlink:href="/develop/Data/models.html#related-origin-relationship" xlink:title="RelatedOriginRelationship" target="_top">
<polygon fill="#eeefff" stroke="#dddeee" points="725.68,-911 564.93,-911 564.93,-875 725.68,-875 725.68,-911"/>
<text text-anchor="middle" x="645.3" y="-887.95" font-family="Times,serif" font-size="14.00">RelatedOriginRelationship</text>
</a>
</g>
</g>
<!-- OriginCollectingEvent -->
<g id="node27" class="node">
<title>OriginCollectingEvent</title>
<g id="a_node27"><a xlink:href="/develop/Data/models.html#origin-collecting-event" xlink:title="OriginCollectingEvent" target="_top">
<polygon fill="#eeefff" stroke="#dddeee" points="902.93,-911 763.93,-911 763.93,-875 902.93,-875 902.93,-911"/>
<text text-anchor="middle" x="833.43" y="-887.95" font-family="Times,serif" font-size="14.00">OriginCollectingEvent</text>
</a>
</g>
</g>
<!-- OriginCollectionObject -->
<g id="node28" class="node">
<title>OriginCollectionObject</title>
<g id="a_node28"><a xlink:href="/develop/Data/models.html#origin-collection-object" xlink:title="OriginCollectionObject" target="_top">
<polygon fill="#eeefff" stroke="#dddeee" points="905.18,-857 761.68,-857 761.68,-821 905.18,-821 905.18,-857"/>
<text text-anchor="middle" x="833.43" y="-833.95" font-family="Times,serif" font-size="14.00">OriginCollectionObject</text>
</a>
</g>
</g>
<!-- OriginFieldOccurrence -->
<g id="node29" class="node">
<title>OriginFieldOccurrence</title>
<g id="a_node29"><a xlink:href="/develop/Data/models.html#origin-field-occurrence" xlink:title="OriginFieldOccurrence" target="_top">
<polygon fill="#eeefff" stroke="#dddeee" points="904.05,-803 762.8,-803 762.8,-767 904.05,-767 904.05,-803"/>
<text text-anchor="middle" x="833.43" y="-779.95" font-family="Times,serif" font-size="14.00">OriginFieldOccurrence</text>
</a>
</g>
</g>
<!-- OriginLot -->
<g id="node30" class="node">
<title>OriginLot</title>
<g id="a_node30"><a xlink:href="/develop/Data/models.html#origin-lot" xlink:title="OriginLot" target="_top">
<polygon fill="#eeefff" stroke="#dddeee" points="868.43,-749 798.43,-749 798.43,-713 868.43,-713 868.43,-749"/>
<text text-anchor="middle" x="833.43" y="-725.95" font-family="Times,serif" font-size="14.00">OriginLot</text>
</a>
</g>
</g>
<!-- OriginOtu -->
<g id="node31" class="node">
<title>OriginOtu</title>
<g id="a_node31"><a xlink:href="/develop/Data/models.html#origin-otu" xlink:title="OriginOtu" target="_top">
<polygon fill="#eeefff" stroke="#dddeee" points="869.18,-1073 797.68,-1073 797.68,-1037 869.18,-1037 869.18,-1073"/>
<text text-anchor="middle" x="833.43" y="-1049.95" font-family="Times,serif" font-size="14.00">OriginOtu</text>
</a>
</g>
</g>
<!-- OriginRangedLot -->
<g id="node32" class="node">
<title>OriginRangedLot</title>
<g id="a_node32"><a xlink:href="/develop/Data/models.html#origin-ranged-lot" xlink:title="OriginRangedLot" target="_top">
<polygon fill="#eeefff" stroke="#dddeee" points="889.05,-1019 777.8,-1019 777.8,-983 889.05,-983 889.05,-1019"/>
<text text-anchor="middle" x="833.43" y="-995.95" font-family="Times,serif" font-size="14.00">OriginRangedLot</text>
</a>
</g>
</g>
<!-- OriginRelationship -->
<g id="node33" class="node">
<title>OriginRelationship</title>
<g id="a_node33"><a xlink:href="/develop/Data/models.html#origin-relationship" xlink:title="OriginRelationship" target="_top">
<polygon fill="#eeefff" stroke="#dddeee" points="503.43,-911 383.93,-911 383.93,-875 503.43,-875 503.43,-911"/>
<text text-anchor="middle" x="443.68" y="-887.95" font-family="Times,serif" font-size="14.00">OriginRelationship</text>
</a>
</g>
</g>
<!-- OriginSpecimen -->
<g id="node34" class="node">
<title>OriginSpecimen</title>
<g id="a_node34"><a xlink:href="/develop/Data/models.html#origin-specimen" xlink:title="OriginSpecimen" target="_top">
<polygon fill="#eeefff" stroke="#dddeee" points="886.05,-965 780.8,-965 780.8,-929 886.05,-929 886.05,-965"/>
<text text-anchor="middle" x="833.43" y="-941.95" font-family="Times,serif" font-size="14.00">OriginSpecimen</text>
</a>
</g>
</g>
<!-- PinboardItem -->
<g id="node35" class="node">
<title>PinboardItem</title>
<g id="a_node35"><a xlink:href="/develop/Data/models.html#pinboard-item" xlink:title="PinboardItem" target="_top">
<polygon fill="#eeefff" stroke="#dddeee" points="488.8,-182 398.55,-182 398.55,-146 488.8,-146 488.8,-182"/>
<text text-anchor="middle" x="443.68" y="-158.95" font-family="Times,serif" font-size="14.00">PinboardItem</text>
</a>
</g>
</g>
<!-- Protocol -->
<g id="node36" class="node">
<title>Protocol</title>
<g id="a_node36"><a xlink:href="/develop/Data/models.html#protocol" xlink:title="Protocol" target="_top">
<polygon fill="#eeefff" stroke="#dddeee" points="298.8,-505 237.05,-505 237.05,-469 298.8,-469 298.8,-505"/>
<text text-anchor="middle" x="267.93" y="-481.95" font-family="Times,serif" font-size="14.00">Protocol</text>
</a>
</g>
</g>
<!-- Role -->
<g id="node37" class="node">
<title>Role</title>
<g id="a_node37"><a xlink:href="/develop/Data/models.html#role" xlink:title="Role" target="_top">
<polygon fill="#eeefff" stroke="#dddeee" points="470.68,-857 416.68,-857 416.68,-821 470.68,-821 470.68,-857"/>
<text text-anchor="middle" x="443.68" y="-833.95" font-family="Times,serif" font-size="14.00">Role</text>
</a>
</g>
</g>
<!-- SubsequentCitation -->
<g id="node38" class="node">
<title>SubsequentCitation</title>
<g id="a_node38"><a xlink:href="/develop/Data/models.html#subsequent-citation" xlink:title="SubsequentCitation" target="_top">
<polygon fill="#eeefff" stroke="#dddeee" points="706.18,-1130 584.43,-1130 584.43,-1094 706.18,-1094 706.18,-1130"/>
<text text-anchor="middle" x="645.3" y="-1106.95" font-family="Times,serif" font-size="14.00">SubsequentCitation</text>
</a>
</g>
</g>
<!-- SubsequentSource -->
<g id="node39" class="node">
<title>SubsequentSource</title>
<g id="a_node39"><a xlink:href="/develop/Data/models.html#subsequent-source" xlink:title="SubsequentSource" target="_top">
<polygon fill="#eeefff" stroke="#dddeee" points="891.3,-1130 775.55,-1130 775.55,-1094 891.3,-1094 891.3,-1130"/>
<text text-anchor="middle" x="833.43" y="-1106.95" font-family="Times,serif" font-size="14.00">SubsequentSource</text>
</a>
</g>
</g>
<!-- Topic -->
<g id="node40" class="node">
<title>Topic</title>
<g id="a_node40"><a xlink:href="/develop/Data/models.html#topic" xlink:title="Topic" target="_top">
<polygon fill="#eeefff" stroke="#dddeee" points="470.68,-1189 416.68,-1189 416.68,-1153 470.68,-1153 470.68,-1189"/>
<text text-anchor="middle" x="443.68" y="-1165.95" font-family="Times,serif" font-size="14.00">Topic</text>
</a>
</g>
</g>
<!-- Uri -->
<g id="node41" class="node">
<title>Uri</title>
<g id="a_node41"><a xlink:href="/develop/Data/models.html#uri" xlink:title="Uri" target="_top">
<polygon fill="#eeefff" stroke="#dddeee" points="470.68,-36 416.68,-36 416.68,0 470.68,0 470.68,-36"/>
<text text-anchor="middle" x="443.68" y="-12.95" font-family="Times,serif" font-size="14.00">Uri</text>
</a>
</g>
</g>
<!-- Uuid -->
<g id="node42" class="node">
<title>Uuid</title>
<g id="a_node42"><a xlink:href="/develop/Data/models.html#uuid" xlink:title="Uuid" target="_top">
<polygon fill="#eeefff" stroke="#dddeee" points="470.68,-1041 416.68,-1041 416.68,-1005 470.68,-1005 470.68,-1041"/>
<text text-anchor="middle" x="443.68" y="-1017.95" font-family="Times,serif" font-size="14.00">Uuid</text>
</a>
</g>
</g>
<!-- VerifierRole -->
<g id="node43" class="node">
<title>VerifierRole</title>
<g id="a_node43"><a xlink:href="/develop/Data/models.html#verifier-role" xlink:title="VerifierRole" target="_top">
<polygon fill="#eeefff" stroke="#dddeee" points="485.05,-695 402.3,-695 402.3,-659 485.05,-659 485.05,-695"/>
<text text-anchor="middle" x="443.68" y="-671.95" font-family="Times,serif" font-size="14.00">VerifierRole</text>
</a>
</g>
</g>
<!-- Verifier -->
<g id="node44" class="node">
<title>Verifier</title>
<g id="a_node44"><a xlink:href="/develop/Data/models.html#verifier" xlink:title="Verifier" target="_top">
<polygon fill="#eeefff" stroke="#dddeee" points="673.93,-795 616.68,-795 616.68,-759 673.93,-759 673.93,-795"/>
<text text-anchor="middle" x="645.3" y="-771.95" font-family="Times,serif" font-size="14.00">Verifier</text>
</a>
</g>
</g>
<!-- Creator -->
<g id="node45" class="node">
<title>Creator</title>
<g id="a_node45"><a xlink:href="/develop/Data/models.html#creator" xlink:title="Creator" target="_top">
<polygon fill="#eeefff" stroke="#dddeee" points="673.55,-90 617.05,-90 617.05,-54 673.55,-54 673.55,-90"/>
<text text-anchor="middle" x="645.3" y="-66.95" font-family="Times,serif" font-size="14.00">Creator</text>
</a>
</g>
</g>
<!-- Project -->
<g id="node46" class="node">
<title>Project</title>
<g id="a_node46"><a xlink:href="/develop/Data/models.html#project" xlink:title="Project" target="_top">
<polygon fill="#eeefff" stroke="#dddeee" points="470.8,-90 416.55,-90 416.55,-54 470.8,-54 470.8,-90"/>
<text text-anchor="middle" x="443.68" y="-66.95" font-family="Times,serif" font-size="14.00">Project</text>
</a>
</g>
</g>
<!-- Updater -->
<g id="node47" class="node">
<title>Updater</title>
<g id="a_node47"><a xlink:href="/develop/Data/models.html#updater" xlink:title="Updater" target="_top">
<polygon fill="#eeefff" stroke="#dddeee" points="863.18,-90 803.68,-90 803.68,-54 863.18,-54 863.18,-90"/>
<text text-anchor="middle" x="833.43" y="-66.95" font-family="Times,serif" font-size="14.00">Updater</text>
</a>
</g>
</g>
<!-- OriginCitation -->
<g id="node48" class="node">
<title>OriginCitation</title>
<g id="a_node48"><a xlink:href="/develop/Data/models.html#origin-citation" xlink:title="OriginCitation" target="_top">
<polygon fill="#eeefff" stroke="#dddeee" points="692.68,-1035 597.93,-1035 597.93,-999 692.68,-999 692.68,-1035"/>
<text text-anchor="middle" x="645.3" y="-1011.95" font-family="Times,serif" font-size="14.00">OriginCitation</text>
</a>
</g>
</g>
<!-- SoundFileAttachment -->
<g id="node49" class="node">
<title>SoundFileAttachment</title>
<g id="a_node49"><a xlink:href="/develop/Data/models.html#sound-file-attachment" xlink:title="SoundFileAttachment" target="_top">
<polygon fill="#eeefff" stroke="#dddeee" points="511.3,-803 376.05,-803 376.05,-767 511.3,-767 511.3,-803"/>
<text text-anchor="middle" x="443.68" y="-779.95" font-family="Times,serif" font-size="14.00">SoundFileAttachment</text>
</a>
</g>
</g>
<!-- SoundFileBlob -->
<g id="node50" class="node">
<title>SoundFileBlob</title>
<g id="a_node50"><a xlink:href="/develop/Data/models.html#sound-file-blob" xlink:title="SoundFileBlob" target="_top">
<polygon fill="#eeefff" stroke="#dddeee" points="492.55,-749 394.8,-749 394.8,-713 492.55,-713 492.55,-749"/>
<text text-anchor="middle" x="443.68" y="-725.95" font-family="Times,serif" font-size="14.00">SoundFileBlob</text>
</a>
</g>
</g>
</g>
</svg>
