<?xml version="1.0" encoding="UTF-8" standalone="no"?>
<!DOCTYPE svg PUBLIC "-//W3C//DTD SVG 1.1//EN"
 "http://www.w3.org/Graphics/SVG/1.1/DTD/svg11.dtd">
<!-- Generated by graphviz version 2.50.0 (20211204.2007)
 -->
<!-- Title: Source Pages: 1 -->
<svg width="775pt" height="456pt"
 viewBox="0.00 0.00 775.39 455.73" xmlns="http://www.w3.org/2000/svg" xmlns:xlink="http://www.w3.org/1999/xlink">
<g id="graph0" class="graph" transform="scale(1 1) rotate(0) translate(4 451.73)">
<title>Source</title>
<polygon fill="white" stroke="transparent" points="-4,4 -4,-451.73 771.39,-451.73 771.39,4 -4,4"/>
<!-- AlternateValue&#45;&gt;AlternateValueLanguage -->
<g id="edge1" class="edge">
<title>AlternateValue&#45;&gt;AlternateValueLanguage</title>
<path fill="none" stroke="black" d="M114.79,-402.72C126.81,-405.36 139.98,-408.25 153.1,-411.13"/>
<polygon fill="black" stroke="black" points="152.58,-414.6 163.09,-413.32 154.08,-407.76 152.58,-414.6"/>
</g>
<!-- Citation&#45;&gt;AssertedDistribution -->
<g id="edge3" class="edge">
<title>Citation&#45;&gt;AssertedDistribution</title>
<path fill="none" stroke="black" d="M102.7,-298.73C120.67,-298.73 142.77,-298.73 163.85,-298.73"/>
<polygon fill="black" stroke="black" points="164.1,-302.23 174.1,-298.73 164.1,-295.23 164.1,-302.23"/>
</g>
<!-- Citation&#45;&gt;CitationTopic -->
<g id="edge4" class="edge">
<title>Citation&#45;&gt;CitationTopic</title>
<path fill="none" stroke="black" d="M92.52,-311.1C118.17,-322.51 156.85,-339.7 187.86,-353.49"/>
<polygon fill="black" stroke="black" points="186.65,-356.78 197.21,-357.65 189.5,-350.39 186.65,-356.78"/>
</g>
<!-- Tag&#45;&gt;Keyword -->
<g id="edge10" class="edge">
<title>Tag&#45;&gt;Keyword</title>
<path fill="none" stroke="black" d="M91,-71.73C118.58,-71.73 162.36,-71.73 194.96,-71.73"/>
<polygon fill="black" stroke="black" points="195.11,-75.23 205.11,-71.73 195.11,-68.23 195.11,-75.23"/>
</g>
<!-- Source&#45;&gt;AlternateValue -->
<g id="edge2" class="edge">
<title>Source&#45;&gt;AlternateValue</title>
<path fill="none" stroke="black" d="M220.93,-195.24C205.57,-214.91 182.49,-244.93 163.39,-271.73 146.65,-295.23 145.39,-303.19 127.39,-325.73 115.87,-340.15 101.82,-355.15 89.94,-367.2"/>
<polygon fill="black" stroke="black" points="87.45,-364.73 82.86,-374.28 92.41,-369.68 87.45,-364.73"/>
</g>
<!-- Source&#45;&gt;Citation -->
<g id="edge5" class="edge">
<title>Source&#45;&gt;Citation</title>
<path fill="none" stroke="black" d="M215.23,-192.91C193.32,-211.12 158.9,-238.9 127.39,-260.73 117.94,-267.28 107.35,-273.94 97.6,-279.82"/>
<polygon fill="black" stroke="black" points="95.75,-276.85 88.95,-284.97 99.33,-282.86 95.75,-276.85"/>
</g>
<!-- Source&#45;&gt;DataAttribute -->
<g id="edge6" class="edge">
<title>Source&#45;&gt;DataAttribute</title>
<path fill="none" stroke="black" d="M201.81,-186.23C176.12,-195.13 141.32,-207.19 113.2,-216.93"/>
<polygon fill="black" stroke="black" points="111.87,-213.69 103.56,-220.27 114.16,-220.3 111.87,-213.69"/>
</g>
<!-- Source&#45;&gt;Identifier -->
<g id="edge9" class="edge">
<title>Source&#45;&gt;Identifier</title>
<path fill="none" stroke="black" d="M196.65,-175.16C172.75,-175.99 142.43,-177.04 116.88,-177.92"/>
<polygon fill="black" stroke="black" points="116.49,-174.44 106.62,-178.28 116.74,-181.43 116.49,-174.44"/>
</g>
<!-- Source&#45;&gt;Tag -->
<g id="edge16" class="edge">
<title>Source&#45;&gt;Tag</title>
<path fill="none" stroke="black" d="M213.73,-155.36C191.89,-139.24 158.49,-115.79 127.39,-98.73 117.8,-93.48 106.98,-88.5 97.07,-84.29"/>
<polygon fill="black" stroke="black" points="98.11,-80.93 87.53,-80.35 95.43,-87.4 98.11,-80.93"/>
</g>
<!-- Source&#45;&gt;Note -->
<g id="edge11" class="edge">
<title>Source&#45;&gt;Note</title>
<path fill="none" stroke="black" d="M198.57,-162.84C168.88,-154.61 128.48,-143.41 99.85,-135.48"/>
<polygon fill="black" stroke="black" points="100.45,-132.01 89.88,-132.71 98.58,-138.76 100.45,-132.01"/>
</g>
<!-- Source&#45;&gt;Documentation -->
<g id="edge7" class="edge">
<title>Source&#45;&gt;Documentation</title>
<path fill="none" stroke="black" d="M266.93,-190.6C289.17,-204.37 321.61,-224.17 350.39,-240.73 352.62,-242.01 354.91,-243.32 357.22,-244.62"/>
<polygon fill="black" stroke="black" points="355.78,-247.83 366.22,-249.64 359.19,-241.71 355.78,-247.83"/>
</g>
<!-- Source&#45;&gt;PinboardItem -->
<g id="edge12" class="edge">
<title>Source&#45;&gt;PinboardItem</title>
<path fill="none" stroke="black" d="M281.23,-173.09C324.16,-173.17 393.07,-175.37 451.39,-186.73 460.01,-188.41 468.98,-190.77 477.66,-193.41"/>
<polygon fill="black" stroke="black" points="476.73,-196.78 487.32,-196.47 478.85,-190.11 476.73,-196.78"/>
</g>
<!-- Source&#45;&gt;ProjectSource -->
<g id="edge13" class="edge">
<title>Source&#45;&gt;ProjectSource</title>
<path fill="none" stroke="black" d="M256.39,-195.88C276.52,-221.83 312.56,-265.06 350.39,-294.73 351.77,-295.81 353.19,-296.87 354.65,-297.91"/>
<polygon fill="black" stroke="black" points="353.04,-301.04 363.32,-303.61 356.88,-295.19 353.04,-301.04"/>
</g>
<!-- Source&#45;&gt;Role -->
<g id="edge15" class="edge">
<title>Source&#45;&gt;Role</title>
<path fill="none" stroke="black" d="M277,-161.67C303.08,-153.2 337.79,-141.91 363.67,-133.5"/>
<polygon fill="black" stroke="black" points="365.04,-136.74 373.47,-130.32 362.88,-130.08 365.04,-136.74"/>
</g>
<!-- Source&#45;&gt;VerifierRole -->
<g id="edge18" class="edge">
<title>Source&#45;&gt;VerifierRole</title>
<path fill="none" stroke="black" d="M263.88,-155.29C285.88,-138.69 319.62,-114.02 350.39,-94.73 352.34,-93.51 354.36,-92.28 356.4,-91.06"/>
<polygon fill="black" stroke="black" points="358.6,-93.83 365.49,-85.79 355.09,-87.78 358.6,-93.83"/>
</g>
<!-- Source&#45;&gt;Version -->
<g id="edge20" class="edge">
<title>Source&#45;&gt;Version</title>
<path fill="none" stroke="black" d="M280.68,-183.93C305.63,-190.17 337.34,-198.1 361.79,-204.21"/>
<polygon fill="black" stroke="black" points="361.23,-207.67 371.78,-206.7 362.92,-200.88 361.23,-207.67"/>
</g>
<!-- Source&#45;&gt;Creator -->
<g id="edge21" class="edge">
<title>Source&#45;&gt;Creator</title>
<path fill="none" stroke="black" stroke-dasharray="5,2" d="M268.73,-147.67C283.25,-133.84 300.63,-116.14 314.39,-98.73 333.2,-74.93 323.88,-55.48 350.39,-40.73 439.56,8.87 504.97,3.13 578.39,-67.73 612.81,-100.96 633.56,-251.28 639.85,-303.66"/>
<polygon fill="black" stroke="black" points="266.33,-145.13 261.44,-154.52 271.12,-150.23 266.33,-145.13"/>
</g>
<!-- Source&#45;&gt;Updater -->
<g id="edge22" class="edge">
<title>Source&#45;&gt;Updater</title>
<path fill="none" stroke="black" stroke-dasharray="5,2" d="M270.48,-148.4C285.29,-134.88 302.42,-117.24 314.39,-98.73 338.68,-61.16 313.53,-30.09 350.39,-4.73 364.48,4.96 569.85,-3.29 578.39,-8.73 687.47,-78.25 724.33,-248.02 733.7,-303.71"/>
<polygon fill="black" stroke="black" points="268.12,-145.82 262.98,-155.08 272.77,-151.05 268.12,-145.82"/>
</g>
<!-- CitationTopic&#45;&gt;Topic -->
<g id="edge17" class="edge">
<title>CitationTopic&#45;&gt;Topic</title>
<path fill="none" stroke="black" d="M285.31,-375.73C310.15,-375.73 340.49,-375.73 363.71,-375.73"/>
<polygon fill="black" stroke="black" points="363.83,-379.23 373.83,-375.73 363.83,-372.23 363.83,-379.23"/>
</g>
<!-- Documentation&#45;&gt;Document -->
<g id="edge8" class="edge">
<title>Documentation&#45;&gt;Document</title>
<path fill="none" stroke="black" d="M451.41,-267.73C462.61,-267.73 474.46,-267.73 485.53,-267.73"/>
<polygon fill="black" stroke="black" points="485.85,-271.23 495.85,-267.73 485.85,-264.23 485.85,-271.23"/>
</g>
<!-- ProjectSource&#45;&gt;Project -->
<g id="edge14" class="edge">
<title>ProjectSource&#45;&gt;Project</title>
<path fill="none" stroke="black" d="M446.99,-321.73C462.57,-321.73 479.84,-321.73 494.71,-321.73"/>
<polygon fill="black" stroke="black" points="495.06,-325.23 505.06,-321.73 495.06,-318.23 495.06,-325.23"/>
</g>
<!-- Project&#45;&gt;Creator -->
<!-- Role&#45;&gt;Verifier -->
<!-- VerifierRole&#45;&gt;Verifier -->
<g id="edge19" class="edge">
<title>VerifierRole&#45;&gt;Verifier</title>
<path fill="none" stroke="black" d="M442.66,-76.2C459.03,-79.6 477.8,-83.5 493.88,-86.84"/>
<polygon fill="black" stroke="black" points="493.51,-90.34 504.01,-88.94 494.93,-83.48 493.51,-90.34"/>
</g>
<!-- Version&#45;&gt;PinboardItem -->
<!-- Creator&#45;&gt;Updater -->
<!-- AlternateValue -->
<g id="node1" class="node">
<title>AlternateValue</title>
<g id="a_node1"><a xlink:href="/develop/Data/models.html#alternate-value" xlink:title="AlternateValue" target="_top">
<ellipse fill="#abcdef" stroke="#dddeee" cx="63.69" cy="-391.73" rx="63.89" ry="18"/>
<text text-anchor="middle" x="63.69" y="-388.03" font-family="Times,serif" font-size="14.00">AlternateValue</text>
</a>
</g>
</g>
<!-- Citation -->
<g id="node2" class="node">
<title>Citation</title>
<g id="a_node2"><a xlink:href="/develop/Data/models.html#citation" xlink:title="Citation" target="_top">
<ellipse fill="#abcdef" stroke="#dddeee" cx="63.69" cy="-298.73" rx="38.99" ry="18"/>
<text text-anchor="middle" x="63.69" y="-295.03" font-family="Times,serif" font-size="14.00">Citation</text>
</a>
</g>
</g>
<!-- DataAttribute -->
<g id="node3" class="node">
<title>DataAttribute</title>
<g id="a_node3"><a xlink:href="/develop/Data/models.html#data-attribute" xlink:title="DataAttribute" target="_top">
<ellipse fill="#abcdef" stroke="#dddeee" cx="63.69" cy="-233.73" rx="59.29" ry="18"/>
<text text-anchor="middle" x="63.69" y="-230.03" font-family="Times,serif" font-size="14.00">DataAttribute</text>
</a>
</g>
</g>
<!-- Identifier -->
<g id="node4" class="node">
<title>Identifier</title>
<g id="a_node4"><a xlink:href="/develop/Data/models.html#identifier" xlink:title="Identifier" target="_top">
<ellipse fill="#abcdef" stroke="#dddeee" cx="63.69" cy="-179.73" rx="42.79" ry="18"/>
<text text-anchor="middle" x="63.69" y="-176.03" font-family="Times,serif" font-size="14.00">Identifier</text>
</a>
</g>
</g>
<!-- Tag -->
<g id="node5" class="node">
<title>Tag</title>
<g id="a_node5"><a xlink:href="/develop/Data/models.html#tag" xlink:title="Tag" target="_top">
<ellipse fill="#abcdef" stroke="#dddeee" cx="63.69" cy="-71.73" rx="27" ry="18"/>
<text text-anchor="middle" x="63.69" y="-68.03" font-family="Times,serif" font-size="14.00">Tag</text>
</a>
</g>
</g>
<!-- Note -->
<g id="node6" class="node">
<title>Note</title>
<g id="a_node6"><a xlink:href="/develop/Data/models.html#note" xlink:title="Note" target="_top">
<ellipse fill="#abcdef" stroke="#dddeee" cx="63.69" cy="-125.73" rx="27.9" ry="18"/>
<text text-anchor="middle" x="63.69" y="-122.03" font-family="Times,serif" font-size="14.00">Note</text>
</a>
</g>
</g>
<!-- Source -->
<g id="node7" class="node">
<title>Source</title>
<g id="a_node7"><a xlink:href="/develop/Data/models.html#source" xlink:title="Source" target="_top">
<polygon fill="#cdefab" stroke="#dedede" points="276.87,-166.28 276.87,-181.19 254.62,-191.73 223.16,-191.73 200.91,-181.19 200.91,-166.28 223.16,-155.73 254.62,-155.73 276.87,-166.28"/>
<polygon fill="none" stroke="#dedede" points="280.87,-163.75 280.87,-183.72 255.52,-195.73 222.26,-195.73 196.91,-183.72 196.91,-163.75 222.26,-151.73 255.52,-151.73 280.87,-163.75"/>
<text text-anchor="middle" x="238.89" y="-170.03" font-family="Times,serif" font-size="14.00">Source</text>
</a>
</g>
</g>
<!-- AssertedDistribution -->
<g id="node8" class="node">
<title>AssertedDistribution</title>
<g id="a_node8"><a xlink:href="/develop/Data/models.html#asserted-distribution" xlink:title="AssertedDistribution" target="_top">
<path fill="#fedcba" stroke="#dddeee" d="M186.39,-280.73C186.39,-280.73 291.39,-280.73 291.39,-280.73 297.39,-280.73 303.39,-286.73 303.39,-292.73 303.39,-292.73 303.39,-304.73 303.39,-304.73 303.39,-310.73 297.39,-316.73 291.39,-316.73 291.39,-316.73 186.39,-316.73 186.39,-316.73 180.39,-316.73 174.39,-310.73 174.39,-304.73 174.39,-304.73 174.39,-292.73 174.39,-292.73 174.39,-286.73 180.39,-280.73 186.39,-280.73"/>
<text text-anchor="middle" x="238.89" y="-295.03" font-family="Times,serif" font-size="14.00">AssertedDistribution</text>
</a>
</g>
</g>
<!-- AlternateValueLanguage -->
<g id="node9" class="node">
<title>AlternateValueLanguage</title>
<g id="a_node9"><a xlink:href="/develop/Data/models.html#alternate-value-language" xlink:title="AlternateValueLanguage" target="_top">
<polygon fill="#eeefff" stroke="#dddeee" points="314.39,-447.73 163.39,-447.73 163.39,-411.73 314.39,-411.73 314.39,-447.73"/>
<text text-anchor="middle" x="238.89" y="-426.03" font-family="Times,serif" font-size="14.00">AlternateValueLanguage</text>
</a>
</g>
</g>
<!-- CitationTopic -->
<g id="node10" class="node">
<title>CitationTopic</title>
<g id="a_node10"><a xlink:href="/develop/Data/models.html#citation-topic" xlink:title="CitationTopic" target="_top">
<polygon fill="#eeefff" stroke="#dddeee" points="284.89,-393.73 192.89,-393.73 192.89,-357.73 284.89,-357.73 284.89,-393.73"/>
<text text-anchor="middle" x="238.89" y="-372.03" font-family="Times,serif" font-size="14.00">CitationTopic</text>
</a>
</g>
</g>
<!-- Documentation -->
<g id="node11" class="node">
<title>Documentation</title>
<g id="a_node11"><a xlink:href="/develop/Data/models.html#documentation" xlink:title="Documentation" target="_top">
<polygon fill="#eeefff" stroke="#dddeee" points="451.39,-285.73 350.39,-285.73 350.39,-249.73 451.39,-249.73 451.39,-285.73"/>
<text text-anchor="middle" x="400.89" y="-264.03" font-family="Times,serif" font-size="14.00">Documentation</text>
</a>
</g>
</g>
<!-- Document -->
<g id="node12" class="node">
<title>Document</title>
<g id="a_node12"><a xlink:href="/develop/Data/models.html#document" xlink:title="Document" target="_top">
<polygon fill="#eeefff" stroke="#dddeee" points="569.89,-285.73 495.89,-285.73 495.89,-249.73 569.89,-249.73 569.89,-285.73"/>
<text text-anchor="middle" x="532.89" y="-264.03" font-family="Times,serif" font-size="14.00">Document</text>
</a>
</g>
</g>
<!-- Keyword -->
<g id="node13" class="node">
<title>Keyword</title>
<g id="a_node13"><a xlink:href="/develop/Data/models.html#keyword" xlink:title="Keyword" target="_top">
<polygon fill="#eeefff" stroke="#dddeee" points="272.39,-89.73 205.39,-89.73 205.39,-53.73 272.39,-53.73 272.39,-89.73"/>
<text text-anchor="middle" x="238.89" y="-68.03" font-family="Times,serif" font-size="14.00">Keyword</text>
</a>
</g>
</g>
<!-- PinboardItem -->
<g id="node14" class="node">
<title>PinboardItem</title>
<g id="a_node14"><a xlink:href="/develop/Data/models.html#pinboard-item" xlink:title="PinboardItem" target="_top">
<polygon fill="#eeefff" stroke="#dddeee" points="578.39,-231.73 487.39,-231.73 487.39,-195.73 578.39,-195.73 578.39,-231.73"/>
<text text-anchor="middle" x="532.89" y="-210.03" font-family="Times,serif" font-size="14.00">PinboardItem</text>
</a>
</g>
</g>
<!-- ProjectSource -->
<g id="node15" class="node">
<title>ProjectSource</title>
<g id="a_node15"><a xlink:href="/develop/Data/models.html#project-source" xlink:title="ProjectSource" target="_top">
<polygon fill="#eeefff" stroke="#dddeee" points="446.89,-339.73 354.89,-339.73 354.89,-303.73 446.89,-303.73 446.89,-339.73"/>
<text text-anchor="middle" x="400.89" y="-318.03" font-family="Times,serif" font-size="14.00">ProjectSource</text>
</a>
</g>
</g>
<!-- Project -->
<g id="node16" class="node">
<title>Project</title>
<g id="a_node16"><a xlink:href="/develop/Data/models.html#project" xlink:title="Project" target="_top">
<polygon fill="#eeefff" stroke="#dddeee" points="560.39,-339.73 505.39,-339.73 505.39,-303.73 560.39,-303.73 560.39,-339.73"/>
<text text-anchor="middle" x="532.89" y="-318.03" font-family="Times,serif" font-size="14.00">Project</text>
</a>
</g>
</g>
<!-- Role -->
<g id="node17" class="node">
<title>Role</title>
<g id="a_node17"><a xlink:href="/develop/Data/models.html#role" xlink:title="Role" target="_top">
<polygon fill="#eeefff" stroke="#dddeee" points="427.89,-139.73 373.89,-139.73 373.89,-103.73 427.89,-103.73 427.89,-139.73"/>
<text text-anchor="middle" x="400.89" y="-118.03" font-family="Times,serif" font-size="14.00">Role</text>
</a>
</g>
</g>
<!-- Topic -->
<g id="node18" class="node">
<title>Topic</title>
<g id="a_node18"><a xlink:href="/develop/Data/models.html#topic" xlink:title="Topic" target="_top">
<polygon fill="#eeefff" stroke="#dddeee" points="427.89,-393.73 373.89,-393.73 373.89,-357.73 427.89,-357.73 427.89,-393.73"/>
<text text-anchor="middle" x="400.89" y="-372.03" font-family="Times,serif" font-size="14.00">Topic</text>
</a>
</g>
</g>
<!-- VerifierRole -->
<g id="node19" class="node">
<title>VerifierRole</title>
<g id="a_node19"><a xlink:href="/develop/Data/models.html#verifier-role" xlink:title="VerifierRole" target="_top">
<polygon fill="#eeefff" stroke="#dddeee" points="442.39,-85.73 359.39,-85.73 359.39,-49.73 442.39,-49.73 442.39,-85.73"/>
<text text-anchor="middle" x="400.89" y="-64.03" font-family="Times,serif" font-size="14.00">VerifierRole</text>
</a>
</g>
</g>
<!-- Verifier -->
<g id="node20" class="node">
<title>Verifier</title>
<g id="a_node20"><a xlink:href="/develop/Data/models.html#verifier" xlink:title="Verifier" target="_top">
<polygon fill="#eeefff" stroke="#dddeee" points="561.39,-112.73 504.39,-112.73 504.39,-76.73 561.39,-76.73 561.39,-112.73"/>
<text text-anchor="middle" x="532.89" y="-91.03" font-family="Times,serif" font-size="14.00">Verifier</text>
</a>
</g>
</g>
<!-- Version -->
<g id="node21" class="node">
<title>Version</title>
<g id="a_node21"><a xlink:href="/develop/Data/models.html#version" xlink:title="Version" target="_top">
<polygon fill="#eeefff" stroke="#dddeee" points="429.89,-231.73 371.89,-231.73 371.89,-195.73 429.89,-195.73 429.89,-231.73"/>
<text text-anchor="middle" x="400.89" y="-210.03" font-family="Times,serif" font-size="14.00">Version</text>
</a>
</g>
</g>
<!-- Creator -->
<g id="node22" class="node">
<title>Creator</title>
<g id="a_node22"><a xlink:href="/develop/Data/models.html#creator" xlink:title="Creator" target="_top">
<polygon fill="#eeefff" stroke="#dddeee" points="671.39,-339.73 614.39,-339.73 614.39,-303.73 671.39,-303.73 671.39,-339.73"/>
<text text-anchor="middle" x="642.89" y="-318.03" font-family="Times,serif" font-size="14.00">Creator</text>
</a>
</g>
</g>
<!-- Updater -->
<g id="node23" class="node">
<title>Updater</title>
<g id="a_node23"><a xlink:href="/develop/Data/models.html#updater" xlink:title="Updater" target="_top">
<polygon fill="#eeefff" stroke="#dddeee" points="767.39,-339.73 707.39,-339.73 707.39,-303.73 767.39,-303.73 767.39,-339.73"/>
<text text-anchor="middle" x="737.39" y="-318.03" font-family="Times,serif" font-size="14.00">Updater</text>
</a>
</g>
</g>
</g>
</svg>
