<?xml version="1.0" encoding="UTF-8" standalone="no"?>
<!DOCTYPE svg PUBLIC "-//W3C//DTD SVG 1.1//EN"
 "http://www.w3.org/Graphics/SVG/1.1/DTD/svg11.dtd">
<!-- Generated by graphviz version 2.50.0 (20211204.2007)
 -->
<!-- Title: Source Pages: 1 -->
<svg width="775pt" height="494pt"
 viewBox="0.00 0.00 775.39 493.73" xmlns="http://www.w3.org/2000/svg" xmlns:xlink="http://www.w3.org/1999/xlink">
<g id="graph0" class="graph" transform="scale(1 1) rotate(0) translate(4 489.73)">
<title>Source</title>
<polygon fill="white" stroke="transparent" points="-4,4 -4,-489.73 771.39,-489.73 771.39,4 -4,4"/>
<text text-anchor="middle" x="383.69" y="-22.8" font-family="Times,serif" font-size="14.00">Algorithmically generated relationships for Source based on assertions of &#39;has_many&#39;, &#39;has_one&#39;, &#39;belongs_to&#39;. </text>
<text text-anchor="middle" x="383.69" y="-7.8" font-family="Times,serif" font-size="14.00">Generated 2022&#45;01&#45;25 11:43:47 &#45;0600.</text>
<!-- AlternateValue&#45;&gt;AlternateValueLanguage -->
<g id="edge1" class="edge">
<title>AlternateValue&#45;&gt;AlternateValueLanguage</title>
<path fill="none" stroke="black" d="M114.79,-440.72C126.81,-443.36 139.98,-446.25 153.1,-449.13"/>
<polygon fill="black" stroke="black" points="152.58,-452.6 163.09,-451.32 154.08,-445.76 152.58,-452.6"/>
</g>
<!-- Citation&#45;&gt;AssertedDistribution -->
<g id="edge3" class="edge">
<title>Citation&#45;&gt;AssertedDistribution</title>
<path fill="none" stroke="black" d="M102.7,-336.73C120.67,-336.73 142.77,-336.73 163.85,-336.73"/>
<polygon fill="black" stroke="black" points="164.1,-340.23 174.1,-336.73 164.1,-333.23 164.1,-340.23"/>
</g>
<!-- Citation&#45;&gt;CitationTopic -->
<g id="edge4" class="edge">
<title>Citation&#45;&gt;CitationTopic</title>
<path fill="none" stroke="black" d="M92.52,-349.1C118.17,-360.51 156.85,-377.7 187.86,-391.49"/>
<polygon fill="black" stroke="black" points="186.65,-394.78 197.21,-395.65 189.5,-388.39 186.65,-394.78"/>
</g>
<!-- Tag&#45;&gt;Keyword -->
<g id="edge10" class="edge">
<title>Tag&#45;&gt;Keyword</title>
<path fill="none" stroke="black" d="M91,-109.73C118.58,-109.73 162.36,-109.73 194.96,-109.73"/>
<polygon fill="black" stroke="black" points="195.11,-113.23 205.11,-109.73 195.11,-106.23 195.11,-113.23"/>
</g>
<!-- Source&#45;&gt;AlternateValue -->
<g id="edge2" class="edge">
<title>Source&#45;&gt;AlternateValue</title>
<path fill="none" stroke="black" d="M220.93,-233.24C205.57,-252.91 182.49,-282.93 163.39,-309.73 146.65,-333.23 145.39,-341.19 127.39,-363.73 115.87,-378.15 101.82,-393.15 89.94,-405.2"/>
<polygon fill="black" stroke="black" points="87.45,-402.73 82.86,-412.28 92.41,-407.68 87.45,-402.73"/>
</g>
<!-- Source&#45;&gt;Citation -->
<g id="edge5" class="edge">
<title>Source&#45;&gt;Citation</title>
<path fill="none" stroke="black" d="M215.23,-230.91C193.32,-249.12 158.9,-276.9 127.39,-298.73 117.94,-305.28 107.35,-311.94 97.6,-317.82"/>
<polygon fill="black" stroke="black" points="95.75,-314.85 88.95,-322.97 99.33,-320.86 95.75,-314.85"/>
</g>
<!-- Source&#45;&gt;DataAttribute -->
<g id="edge6" class="edge">
<title>Source&#45;&gt;DataAttribute</title>
<path fill="none" stroke="black" d="M201.81,-224.23C176.12,-233.13 141.32,-245.19 113.2,-254.93"/>
<polygon fill="black" stroke="black" points="111.87,-251.69 103.56,-258.27 114.16,-258.3 111.87,-251.69"/>
</g>
<!-- Source&#45;&gt;Identifier -->
<g id="edge9" class="edge">
<title>Source&#45;&gt;Identifier</title>
<path fill="none" stroke="black" d="M196.65,-213.16C172.75,-213.99 142.43,-215.04 116.88,-215.92"/>
<polygon fill="black" stroke="black" points="116.49,-212.44 106.62,-216.28 116.74,-219.43 116.49,-212.44"/>
</g>
<!-- Source&#45;&gt;Tag -->
<g id="edge16" class="edge">
<title>Source&#45;&gt;Tag</title>
<path fill="none" stroke="black" d="M213.73,-193.36C191.89,-177.24 158.49,-153.79 127.39,-136.73 117.8,-131.48 106.98,-126.5 97.07,-122.29"/>
<polygon fill="black" stroke="black" points="98.11,-118.93 87.53,-118.35 95.43,-125.4 98.11,-118.93"/>
</g>
<!-- Source&#45;&gt;Note -->
<g id="edge11" class="edge">
<title>Source&#45;&gt;Note</title>
<path fill="none" stroke="black" d="M198.57,-200.84C168.88,-192.61 128.48,-181.41 99.85,-173.48"/>
<polygon fill="black" stroke="black" points="100.45,-170.01 89.88,-170.71 98.58,-176.76 100.45,-170.01"/>
</g>
<!-- Source&#45;&gt;Documentation -->
<g id="edge7" class="edge">
<title>Source&#45;&gt;Documentation</title>
<path fill="none" stroke="black" d="M266.93,-228.6C289.17,-242.37 321.61,-262.17 350.39,-278.73 352.62,-280.01 354.91,-281.32 357.22,-282.62"/>
<polygon fill="black" stroke="black" points="355.78,-285.83 366.22,-287.64 359.19,-279.71 355.78,-285.83"/>
</g>
<!-- Source&#45;&gt;PinboardItem -->
<g id="edge12" class="edge">
<title>Source&#45;&gt;PinboardItem</title>
<path fill="none" stroke="black" d="M281.23,-211.09C324.16,-211.17 393.07,-213.37 451.39,-224.73 460.01,-226.41 468.98,-228.77 477.66,-231.41"/>
<polygon fill="black" stroke="black" points="476.73,-234.78 487.32,-234.47 478.85,-228.11 476.73,-234.78"/>
</g>
<!-- Source&#45;&gt;ProjectSource -->
<g id="edge13" class="edge">
<title>Source&#45;&gt;ProjectSource</title>
<path fill="none" stroke="black" d="M256.39,-233.88C276.52,-259.83 312.56,-303.06 350.39,-332.73 351.77,-333.81 353.19,-334.87 354.65,-335.91"/>
<polygon fill="black" stroke="black" points="353.04,-339.04 363.32,-341.61 356.88,-333.19 353.04,-339.04"/>
</g>
<!-- Source&#45;&gt;Role -->
<g id="edge15" class="edge">
<title>Source&#45;&gt;Role</title>
<path fill="none" stroke="black" d="M277,-199.67C303.08,-191.2 337.79,-179.91 363.67,-171.5"/>
<polygon fill="black" stroke="black" points="365.04,-174.74 373.47,-168.32 362.88,-168.08 365.04,-174.74"/>
</g>
<!-- Source&#45;&gt;VerifierRole -->
<g id="edge18" class="edge">
<title>Source&#45;&gt;VerifierRole</title>
<path fill="none" stroke="black" d="M263.88,-193.29C285.88,-176.69 319.62,-152.02 350.39,-132.73 352.34,-131.51 354.36,-130.28 356.4,-129.06"/>
<polygon fill="black" stroke="black" points="358.6,-131.83 365.49,-123.79 355.09,-125.78 358.6,-131.83"/>
</g>
<!-- Source&#45;&gt;Version -->
<g id="edge20" class="edge">
<title>Source&#45;&gt;Version</title>
<path fill="none" stroke="black" d="M280.68,-221.93C305.63,-228.17 337.34,-236.1 361.79,-242.21"/>
<polygon fill="black" stroke="black" points="361.23,-245.67 371.78,-244.7 362.92,-238.88 361.23,-245.67"/>
</g>
<!-- Source&#45;&gt;Creator -->
<g id="edge21" class="edge">
<title>Source&#45;&gt;Creator</title>
<path fill="none" stroke="black" stroke-dasharray="5,2" d="M268.73,-185.67C283.25,-171.84 300.63,-154.14 314.39,-136.73 333.2,-112.93 323.88,-93.48 350.39,-78.73 439.56,-29.13 504.97,-34.87 578.39,-105.73 612.81,-138.96 633.56,-289.28 639.85,-341.66"/>
<polygon fill="black" stroke="black" points="266.33,-183.13 261.44,-192.52 271.12,-188.23 266.33,-183.13"/>
</g>
<!-- Source&#45;&gt;Updater -->
<g id="edge22" class="edge">
<title>Source&#45;&gt;Updater</title>
<path fill="none" stroke="black" stroke-dasharray="5,2" d="M270.48,-186.4C285.29,-172.88 302.42,-155.24 314.39,-136.73 338.68,-99.16 313.53,-68.09 350.39,-42.73 364.48,-33.04 569.85,-41.29 578.39,-46.73 687.47,-116.25 724.33,-286.02 733.7,-341.71"/>
<polygon fill="black" stroke="black" points="268.12,-183.82 262.98,-193.08 272.77,-189.05 268.12,-183.82"/>
</g>
<!-- CitationTopic&#45;&gt;Topic -->
<g id="edge17" class="edge">
<title>CitationTopic&#45;&gt;Topic</title>
<path fill="none" stroke="black" d="M285.31,-413.73C310.15,-413.73 340.49,-413.73 363.71,-413.73"/>
<polygon fill="black" stroke="black" points="363.83,-417.23 373.83,-413.73 363.83,-410.23 363.83,-417.23"/>
</g>
<!-- Documentation&#45;&gt;Document -->
<g id="edge8" class="edge">
<title>Documentation&#45;&gt;Document</title>
<path fill="none" stroke="black" d="M451.41,-305.73C462.61,-305.73 474.46,-305.73 485.53,-305.73"/>
<polygon fill="black" stroke="black" points="485.85,-309.23 495.85,-305.73 485.85,-302.23 485.85,-309.23"/>
</g>
<!-- ProjectSource&#45;&gt;Project -->
<g id="edge14" class="edge">
<title>ProjectSource&#45;&gt;Project</title>
<path fill="none" stroke="black" d="M446.99,-359.73C462.57,-359.73 479.84,-359.73 494.71,-359.73"/>
<polygon fill="black" stroke="black" points="495.06,-363.23 505.06,-359.73 495.06,-356.23 495.06,-363.23"/>
</g>
<!-- Project&#45;&gt;Creator -->
<!-- Role&#45;&gt;Verifier -->
<!-- VerifierRole&#45;&gt;Verifier -->
<g id="edge19" class="edge">
<title>VerifierRole&#45;&gt;Verifier</title>
<path fill="none" stroke="black" d="M442.66,-114.2C459.03,-117.6 477.8,-121.5 493.88,-124.84"/>
<polygon fill="black" stroke="black" points="493.51,-128.34 504.01,-126.94 494.93,-121.48 493.51,-128.34"/>
</g>
<!-- Version&#45;&gt;PinboardItem -->
<!-- Creator&#45;&gt;Updater -->
<!-- AlternateValue -->
<g id="node1" class="node">
<title>AlternateValue</title>
<g id="a_node1"><a xlink:href="/develop/Data/models.html#alternate-value" xlink:title="AlternateValue" target="_top">
<ellipse fill="#abcdef" stroke="#dddeee" cx="63.69" cy="-429.73" rx="63.89" ry="18"/>
<text text-anchor="middle" x="63.69" y="-426.03" font-family="Times,serif" font-size="14.00">AlternateValue</text>
</a>
</g>
</g>
<!-- Citation -->
<g id="node2" class="node">
<title>Citation</title>
<g id="a_node2"><a xlink:href="/develop/Data/models.html#citation" xlink:title="Citation" target="_top">
<ellipse fill="#abcdef" stroke="#dddeee" cx="63.69" cy="-336.73" rx="38.99" ry="18"/>
<text text-anchor="middle" x="63.69" y="-333.03" font-family="Times,serif" font-size="14.00">Citation</text>
</a>
</g>
</g>
<!-- DataAttribute -->
<g id="node3" class="node">
<title>DataAttribute</title>
<g id="a_node3"><a xlink:href="/develop/Data/models.html#data-attribute" xlink:title="DataAttribute" target="_top">
<ellipse fill="#abcdef" stroke="#dddeee" cx="63.69" cy="-271.73" rx="59.29" ry="18"/>
<text text-anchor="middle" x="63.69" y="-268.03" font-family="Times,serif" font-size="14.00">DataAttribute</text>
</a>
</g>
</g>
<!-- Identifier -->
<g id="node4" class="node">
<title>Identifier</title>
<g id="a_node4"><a xlink:href="/develop/Data/models.html#identifier" xlink:title="Identifier" target="_top">
<ellipse fill="#abcdef" stroke="#dddeee" cx="63.69" cy="-217.73" rx="42.79" ry="18"/>
<text text-anchor="middle" x="63.69" y="-214.03" font-family="Times,serif" font-size="14.00">Identifier</text>
</a>
</g>
</g>
<!-- Tag -->
<g id="node5" class="node">
<title>Tag</title>
<g id="a_node5"><a xlink:href="/develop/Data/models.html#tag" xlink:title="Tag" target="_top">
<ellipse fill="#abcdef" stroke="#dddeee" cx="63.69" cy="-109.73" rx="27" ry="18"/>
<text text-anchor="middle" x="63.69" y="-106.03" font-family="Times,serif" font-size="14.00">Tag</text>
</a>
</g>
</g>
<!-- Note -->
<g id="node6" class="node">
<title>Note</title>
<g id="a_node6"><a xlink:href="/develop/Data/models.html#note" xlink:title="Note" target="_top">
<ellipse fill="#abcdef" stroke="#dddeee" cx="63.69" cy="-163.73" rx="27.9" ry="18"/>
<text text-anchor="middle" x="63.69" y="-160.03" font-family="Times,serif" font-size="14.00">Note</text>
</a>
</g>
</g>
<!-- Source -->
<g id="node7" class="node">
<title>Source</title>
<g id="a_node7"><a xlink:href="/develop/Data/models.html#source" xlink:title="Source" target="_top">
<polygon fill="#cdefab" stroke="#dedede" points="276.87,-204.28 276.87,-219.19 254.62,-229.73 223.16,-229.73 200.91,-219.19 200.91,-204.28 223.16,-193.73 254.62,-193.73 276.87,-204.28"/>
<polygon fill="none" stroke="#dedede" points="280.87,-201.75 280.87,-221.72 255.52,-233.73 222.26,-233.73 196.91,-221.72 196.91,-201.75 222.26,-189.73 255.52,-189.73 280.87,-201.75"/>
<text text-anchor="middle" x="238.89" y="-208.03" font-family="Times,serif" font-size="14.00">Source</text>
</a>
</g>
</g>
<!-- AssertedDistribution -->
<g id="node8" class="node">
<title>AssertedDistribution</title>
<g id="a_node8"><a xlink:href="/develop/Data/models.html#asserted-distribution" xlink:title="AssertedDistribution" target="_top">
<path fill="#fedcba" stroke="#dddeee" d="M186.39,-318.73C186.39,-318.73 291.39,-318.73 291.39,-318.73 297.39,-318.73 303.39,-324.73 303.39,-330.73 303.39,-330.73 303.39,-342.73 303.39,-342.73 303.39,-348.73 297.39,-354.73 291.39,-354.73 291.39,-354.73 186.39,-354.73 186.39,-354.73 180.39,-354.73 174.39,-348.73 174.39,-342.73 174.39,-342.73 174.39,-330.73 174.39,-330.73 174.39,-324.73 180.39,-318.73 186.39,-318.73"/>
<text text-anchor="middle" x="238.89" y="-333.03" font-family="Times,serif" font-size="14.00">AssertedDistribution</text>
</a>
</g>
</g>
<!-- AlternateValueLanguage -->
<g id="node9" class="node">
<title>AlternateValueLanguage</title>
<g id="a_node9"><a xlink:href="/develop/Data/models.html#alternate-value-language" xlink:title="AlternateValueLanguage" target="_top">
<polygon fill="#eeefff" stroke="#dddeee" points="314.39,-485.73 163.39,-485.73 163.39,-449.73 314.39,-449.73 314.39,-485.73"/>
<text text-anchor="middle" x="238.89" y="-464.03" font-family="Times,serif" font-size="14.00">AlternateValueLanguage</text>
</a>
</g>
</g>
<!-- CitationTopic -->
<g id="node10" class="node">
<title>CitationTopic</title>
<g id="a_node10"><a xlink:href="/develop/Data/models.html#citation-topic" xlink:title="CitationTopic" target="_top">
<polygon fill="#eeefff" stroke="#dddeee" points="284.89,-431.73 192.89,-431.73 192.89,-395.73 284.89,-395.73 284.89,-431.73"/>
<text text-anchor="middle" x="238.89" y="-410.03" font-family="Times,serif" font-size="14.00">CitationTopic</text>
</a>
</g>
</g>
<!-- Documentation -->
<g id="node11" class="node">
<title>Documentation</title>
<g id="a_node11"><a xlink:href="/develop/Data/models.html#documentation" xlink:title="Documentation" target="_top">
<polygon fill="#eeefff" stroke="#dddeee" points="451.39,-323.73 350.39,-323.73 350.39,-287.73 451.39,-287.73 451.39,-323.73"/>
<text text-anchor="middle" x="400.89" y="-302.03" font-family="Times,serif" font-size="14.00">Documentation</text>
</a>
</g>
</g>
<!-- Document -->
<g id="node12" class="node">
<title>Document</title>
<g id="a_node12"><a xlink:href="/develop/Data/models.html#document" xlink:title="Document" target="_top">
<polygon fill="#eeefff" stroke="#dddeee" points="569.89,-323.73 495.89,-323.73 495.89,-287.73 569.89,-287.73 569.89,-323.73"/>
<text text-anchor="middle" x="532.89" y="-302.03" font-family="Times,serif" font-size="14.00">Document</text>
</a>
</g>
</g>
<!-- Keyword -->
<g id="node13" class="node">
<title>Keyword</title>
<g id="a_node13"><a xlink:href="/develop/Data/models.html#keyword" xlink:title="Keyword" target="_top">
<polygon fill="#eeefff" stroke="#dddeee" points="272.39,-127.73 205.39,-127.73 205.39,-91.73 272.39,-91.73 272.39,-127.73"/>
<text text-anchor="middle" x="238.89" y="-106.03" font-family="Times,serif" font-size="14.00">Keyword</text>
</a>
</g>
</g>
<!-- PinboardItem -->
<g id="node14" class="node">
<title>PinboardItem</title>
<g id="a_node14"><a xlink:href="/develop/Data/models.html#pinboard-item" xlink:title="PinboardItem" target="_top">
<polygon fill="#eeefff" stroke="#dddeee" points="578.39,-269.73 487.39,-269.73 487.39,-233.73 578.39,-233.73 578.39,-269.73"/>
<text text-anchor="middle" x="532.89" y="-248.03" font-family="Times,serif" font-size="14.00">PinboardItem</text>
</a>
</g>
</g>
<!-- ProjectSource -->
<g id="node15" class="node">
<title>ProjectSource</title>
<g id="a_node15"><a xlink:href="/develop/Data/models.html#project-source" xlink:title="ProjectSource" target="_top">
<polygon fill="#eeefff" stroke="#dddeee" points="446.89,-377.73 354.89,-377.73 354.89,-341.73 446.89,-341.73 446.89,-377.73"/>
<text text-anchor="middle" x="400.89" y="-356.03" font-family="Times,serif" font-size="14.00">ProjectSource</text>
</a>
</g>
</g>
<!-- Project -->
<g id="node16" class="node">
<title>Project</title>
<g id="a_node16"><a xlink:href="/develop/Data/models.html#project" xlink:title="Project" target="_top">
<polygon fill="#eeefff" stroke="#dddeee" points="560.39,-377.73 505.39,-377.73 505.39,-341.73 560.39,-341.73 560.39,-377.73"/>
<text text-anchor="middle" x="532.89" y="-356.03" font-family="Times,serif" font-size="14.00">Project</text>
</a>
</g>
</g>
<!-- Role -->
<g id="node17" class="node">
<title>Role</title>
<g id="a_node17"><a xlink:href="/develop/Data/models.html#role" xlink:title="Role" target="_top">
<polygon fill="#eeefff" stroke="#dddeee" points="427.89,-177.73 373.89,-177.73 373.89,-141.73 427.89,-141.73 427.89,-177.73"/>
<text text-anchor="middle" x="400.89" y="-156.03" font-family="Times,serif" font-size="14.00">Role</text>
</a>
</g>
</g>
<!-- Topic -->
<g id="node18" class="node">
<title>Topic</title>
<g id="a_node18"><a xlink:href="/develop/Data/models.html#topic" xlink:title="Topic" target="_top">
<polygon fill="#eeefff" stroke="#dddeee" points="427.89,-431.73 373.89,-431.73 373.89,-395.73 427.89,-395.73 427.89,-431.73"/>
<text text-anchor="middle" x="400.89" y="-410.03" font-family="Times,serif" font-size="14.00">Topic</text>
</a>
</g>
</g>
<!-- VerifierRole -->
<g id="node19" class="node">
<title>VerifierRole</title>
<g id="a_node19"><a xlink:href="/develop/Data/models.html#verifier-role" xlink:title="VerifierRole" target="_top">
<polygon fill="#eeefff" stroke="#dddeee" points="442.39,-123.73 359.39,-123.73 359.39,-87.73 442.39,-87.73 442.39,-123.73"/>
<text text-anchor="middle" x="400.89" y="-102.03" font-family="Times,serif" font-size="14.00">VerifierRole</text>
</a>
</g>
</g>
<!-- Verifier -->
<g id="node20" class="node">
<title>Verifier</title>
<g id="a_node20"><a xlink:href="/develop/Data/models.html#verifier" xlink:title="Verifier" target="_top">
<polygon fill="#eeefff" stroke="#dddeee" points="561.39,-150.73 504.39,-150.73 504.39,-114.73 561.39,-114.73 561.39,-150.73"/>
<text text-anchor="middle" x="532.89" y="-129.03" font-family="Times,serif" font-size="14.00">Verifier</text>
</a>
</g>
</g>
<!-- Version -->
<g id="node21" class="node">
<title>Version</title>
<g id="a_node21"><a xlink:href="/develop/Data/models.html#version" xlink:title="Version" target="_top">
<polygon fill="#eeefff" stroke="#dddeee" points="429.89,-269.73 371.89,-269.73 371.89,-233.73 429.89,-233.73 429.89,-269.73"/>
<text text-anchor="middle" x="400.89" y="-248.03" font-family="Times,serif" font-size="14.00">Version</text>
</a>
</g>
</g>
<!-- Creator -->
<g id="node22" class="node">
<title>Creator</title>
<g id="a_node22"><a xlink:href="/develop/Data/models.html#creator" xlink:title="Creator" target="_top">
<polygon fill="#eeefff" stroke="#dddeee" points="671.39,-377.73 614.39,-377.73 614.39,-341.73 671.39,-341.73 671.39,-377.73"/>
<text text-anchor="middle" x="642.89" y="-356.03" font-family="Times,serif" font-size="14.00">Creator</text>
</a>
</g>
</g>
<!-- Updater -->
<g id="node23" class="node">
<title>Updater</title>
<g id="a_node23"><a xlink:href="/develop/Data/models.html#updater" xlink:title="Updater" target="_top">
<polygon fill="#eeefff" stroke="#dddeee" points="767.39,-377.73 707.39,-377.73 707.39,-341.73 767.39,-341.73 767.39,-377.73"/>
<text text-anchor="middle" x="737.39" y="-356.03" font-family="Times,serif" font-size="14.00">Updater</text>
</a>
</g>
</g>
</g>
</svg>
