<?xml version="1.0" encoding="UTF-8" standalone="no"?>
<!DOCTYPE svg PUBLIC "-//W3C//DTD SVG 1.1//EN"
 "http://www.w3.org/Graphics/SVG/1.1/DTD/svg11.dtd">
<!-- Generated by graphviz version 2.50.0 (20211204.2007)
 -->
<!-- Title: TaggedSectionKeyword Pages: 1 -->
<svg width="591pt" height="385pt"
 viewBox="0.00 0.00 591.23 385.42" xmlns="http://www.w3.org/2000/svg" xmlns:xlink="http://www.w3.org/1999/xlink">
<g id="graph0" class="graph" transform="scale(1 1) rotate(0) translate(4 381.42)">
<title>TaggedSectionKeyword</title>
<polygon fill="white" stroke="transparent" points="-4,4 -4,-381.42 587.23,-381.42 587.23,4 -4,4"/>
<!-- TaggedSectionKeyword&#45;&gt;PinboardItem -->
<g id="edge1" class="edge">
<title>TaggedSectionKeyword&#45;&gt;PinboardItem</title>
<path fill="none" stroke="black" d="M125.02,-204.45C149.21,-236.57 198.2,-296.35 252.23,-332.42 257.16,-335.71 262.55,-338.68 268.07,-341.34"/>
<polygon fill="black" stroke="black" points="266.89,-344.65 277.45,-345.54 269.75,-338.26 266.89,-344.65"/>
</g>
<!-- TaggedSectionKeyword&#45;&gt;Role -->
<g id="edge2" class="edge">
<title>TaggedSectionKeyword&#45;&gt;Role</title>
<path fill="none" stroke="black" d="M137.81,-204.46C165.89,-225.35 210.43,-256.68 252.23,-278.42 263.05,-284.04 275.31,-289.16 286.52,-293.39"/>
<polygon fill="black" stroke="black" points="285.44,-296.73 296.03,-296.88 287.84,-290.15 285.44,-296.73"/>
</g>
<!-- TaggedSectionKeyword&#45;&gt;VerifierRole -->
<g id="edge3" class="edge">
<title>TaggedSectionKeyword&#45;&gt;VerifierRole</title>
<path fill="none" stroke="black" d="M168.48,-201.64C201.04,-212.18 240.98,-225.11 271.98,-235.15"/>
<polygon fill="black" stroke="black" points="271.12,-238.55 281.72,-238.3 273.28,-231.89 271.12,-238.55"/>
</g>
<!-- TaggedSectionKeyword&#45;&gt;Creator -->
<g id="edge5" class="edge">
<title>TaggedSectionKeyword&#45;&gt;Creator</title>
<path fill="none" stroke="black" stroke-dasharray="5,2" d="M179.98,-203.69C241.51,-217.71 330.49,-226.88 394.23,-186.42 435.13,-160.46 450.16,-100.39 455.29,-69.9"/>
<polygon fill="black" stroke="black" points="180.5,-200.21 169.97,-201.31 178.89,-207.02 180.5,-200.21"/>
</g>
<!-- TaggedSectionKeyword&#45;&gt;Keyword -->
<g id="edge6" class="edge">
<title>TaggedSectionKeyword&#45;&gt;Keyword</title>
<path fill="none" stroke="black" stroke-dasharray="5,2" d="M223.82,-170.04C248,-167.43 271.61,-164.88 289.65,-162.93"/>
<polygon fill="black" stroke="black" points="223.37,-166.57 213.8,-171.12 224.12,-173.53 223.37,-166.57"/>
</g>
<!-- TaggedSectionKeyword&#45;&gt;OtuPageLayoutSection -->
<g id="edge7" class="edge">
<title>TaggedSectionKeyword&#45;&gt;OtuPageLayoutSection</title>
<path fill="none" stroke="black" stroke-dasharray="5,2" d="M173.9,-159.01C205.54,-147.58 243.03,-134.03 272.4,-123.42"/>
<polygon fill="black" stroke="black" points="172.49,-155.8 164.28,-162.49 174.87,-162.38 172.49,-155.8"/>
</g>
<!-- TaggedSectionKeyword&#45;&gt;Project -->
<g id="edge8" class="edge">
<title>TaggedSectionKeyword&#45;&gt;Project</title>
<path fill="none" stroke="black" stroke-dasharray="5,2" d="M143.04,-153.85C171.02,-131.27 212.45,-100.06 252.23,-78.42 265.96,-70.95 282.2,-64.55 295.58,-59.86"/>
<polygon fill="black" stroke="black" points="140.7,-151.24 135.16,-160.27 145.12,-156.67 140.7,-151.24"/>
</g>
<!-- TaggedSectionKeyword&#45;&gt;Updater -->
<g id="edge9" class="edge">
<title>TaggedSectionKeyword&#45;&gt;Updater</title>
<path fill="none" stroke="black" stroke-dasharray="5,2" d="M125.99,-151.63C148.86,-113.49 193.66,-50.39 252.23,-24.42 347.71,17.92 384.81,-3.99 487.23,-24.42 499.34,-26.83 512.01,-31.54 522.91,-36.36"/>
<polygon fill="black" stroke="black" points="122.95,-149.89 120.91,-160.28 128.99,-153.43 122.95,-149.89"/>
</g>
<!-- Role&#45;&gt;Verifier -->
<!-- VerifierRole&#45;&gt;Verifier -->
<g id="edge4" class="edge">
<title>VerifierRole&#45;&gt;Verifier</title>
<path fill="none" stroke="black" stroke-dasharray="1,5" d="M365.01,-259.66C382.41,-263.18 402.6,-267.27 419.69,-270.72"/>
<polygon fill="black" stroke="black" points="419.38,-274.23 429.87,-272.78 420.77,-267.37 419.38,-274.23"/>
</g>
<!-- Creator&#45;&gt;Updater -->
<!-- Project&#45;&gt;Creator -->
<!-- TaggedSectionKeyword -->
<g id="node1" class="node">
<title>TaggedSectionKeyword</title>
<g id="a_node1"><a xlink:href="/develop/Data/models.html#tagged-section-keyword" xlink:title="TaggedSectionKeyword" target="_top">
<polygon fill="#cdefab" stroke="#dedede" points="212.35,-174.96 212.35,-189.87 151.29,-200.42 64.94,-200.42 3.89,-189.87 3.89,-174.96 64.94,-164.42 151.29,-164.42 212.35,-174.96"/>
<polygon fill="none" stroke="#dedede" points="216.35,-171.59 216.35,-193.24 151.63,-204.42 64.6,-204.42 -0.12,-193.24 -0.12,-171.59 64.6,-160.42 151.63,-160.42 216.35,-171.59"/>
<text text-anchor="middle" x="108.12" y="-178.72" font-family="Times,serif" font-size="14.00">TaggedSectionKeyword</text>
</a>
</g>
</g>
<!-- PinboardItem -->
<g id="node2" class="node">
<title>PinboardItem</title>
<g id="a_node2"><a xlink:href="/develop/Data/models.html#pinboard-item" xlink:title="PinboardItem" target="_top">
<polygon fill="#eeefff" stroke="#dddeee" points="368.73,-377.42 277.73,-377.42 277.73,-341.42 368.73,-341.42 368.73,-377.42"/>
<text text-anchor="middle" x="323.23" y="-355.72" font-family="Times,serif" font-size="14.00">PinboardItem</text>
</a>
</g>
</g>
<!-- Role -->
<g id="node3" class="node">
<title>Role</title>
<g id="a_node3"><a xlink:href="/develop/Data/models.html#role" xlink:title="Role" target="_top">
<polygon fill="#eeefff" stroke="#dddeee" points="350.23,-323.42 296.23,-323.42 296.23,-287.42 350.23,-287.42 350.23,-323.42"/>
<text text-anchor="middle" x="323.23" y="-301.72" font-family="Times,serif" font-size="14.00">Role</text>
</a>
</g>
</g>
<!-- VerifierRole -->
<g id="node4" class="node">
<title>VerifierRole</title>
<g id="a_node4"><a xlink:href="/develop/Data/models.html#verifier-role" xlink:title="VerifierRole" target="_top">
<polygon fill="#eeefff" stroke="#dddeee" points="364.73,-269.42 281.73,-269.42 281.73,-233.42 364.73,-233.42 364.73,-269.42"/>
<text text-anchor="middle" x="323.23" y="-247.72" font-family="Times,serif" font-size="14.00">VerifierRole</text>
</a>
</g>
</g>
<!-- Verifier -->
<g id="node5" class="node">
<title>Verifier</title>
<g id="a_node5"><a xlink:href="/develop/Data/models.html#verifier" xlink:title="Verifier" target="_top">
<polygon fill="#eeefff" stroke="#dddeee" points="487.23,-296.42 430.23,-296.42 430.23,-260.42 487.23,-260.42 487.23,-296.42"/>
<text text-anchor="middle" x="458.73" y="-274.72" font-family="Times,serif" font-size="14.00">Verifier</text>
</a>
</g>
</g>
<!-- Creator -->
<g id="node6" class="node">
<title>Creator</title>
<g id="a_node6"><a xlink:href="/develop/Data/models.html#creator" xlink:title="Creator" target="_top">
<polygon fill="#eeefff" stroke="#dddeee" points="487.23,-69.42 430.23,-69.42 430.23,-33.42 487.23,-33.42 487.23,-69.42"/>
<text text-anchor="middle" x="458.73" y="-47.72" font-family="Times,serif" font-size="14.00">Creator</text>
</a>
</g>
</g>
<!-- Keyword -->
<g id="node7" class="node">
<title>Keyword</title>
<g id="a_node7"><a xlink:href="/develop/Data/models.html#keyword" xlink:title="Keyword" target="_top">
<polygon fill="#eeefff" stroke="#dddeee" points="356.73,-177.42 289.73,-177.42 289.73,-141.42 356.73,-141.42 356.73,-177.42"/>
<text text-anchor="middle" x="323.23" y="-155.72" font-family="Times,serif" font-size="14.00">Keyword</text>
</a>
</g>
</g>
<!-- OtuPageLayoutSection -->
<g id="node8" class="node">
<title>OtuPageLayoutSection</title>
<g id="a_node8"><a xlink:href="/develop/Data/models.html#otu-page-layout-section" xlink:title="OtuPageLayoutSection" target="_top">
<polygon fill="#eeefff" stroke="#dddeee" points="394.23,-123.42 252.23,-123.42 252.23,-87.42 394.23,-87.42 394.23,-123.42"/>
<text text-anchor="middle" x="323.23" y="-101.72" font-family="Times,serif" font-size="14.00">OtuPageLayoutSection</text>
</a>
</g>
</g>
<!-- Project -->
<g id="node9" class="node">
<title>Project</title>
<g id="a_node9"><a xlink:href="/develop/Data/models.html#project" xlink:title="Project" target="_top">
<polygon fill="#eeefff" stroke="#dddeee" points="350.73,-69.42 295.73,-69.42 295.73,-33.42 350.73,-33.42 350.73,-69.42"/>
<text text-anchor="middle" x="323.23" y="-47.72" font-family="Times,serif" font-size="14.00">Project</text>
</a>
</g>
</g>
<!-- Updater -->
<g id="node10" class="node">
<title>Updater</title>
<g id="a_node10"><a xlink:href="/develop/Data/models.html#updater" xlink:title="Updater" target="_top">
<polygon fill="#eeefff" stroke="#dddeee" points="583.23,-69.42 523.23,-69.42 523.23,-33.42 583.23,-33.42 583.23,-69.42"/>
<text text-anchor="middle" x="553.23" y="-47.72" font-family="Times,serif" font-size="14.00">Updater</text>
</a>
</g>
</g>
</g>
</svg>
