<?xml version="1.0" encoding="UTF-8" standalone="no"?>
<!DOCTYPE svg PUBLIC "-//W3C//DTD SVG 1.1//EN"
 "http://www.w3.org/Graphics/SVG/1.1/DTD/svg11.dtd">
<!-- Generated by graphviz version 2.50.0 (20211204.2007)
 -->
<!-- Title: TaggedSectionKeyword Pages: 1 -->
<svg width="718pt" height="423pt"
 viewBox="0.00 0.00 718.00 423.42" xmlns="http://www.w3.org/2000/svg" xmlns:xlink="http://www.w3.org/1999/xlink">
<g id="graph0" class="graph" transform="scale(1 1) rotate(0) translate(4 419.42)">
<title>TaggedSectionKeyword</title>
<polygon fill="white" stroke="transparent" points="-4,4 -4,-419.42 714,-419.42 714,4 -4,4"/>
<text text-anchor="middle" x="355" y="-22.8" font-family="Times,serif" font-size="14.00">Algorithmically generated relationships for TaggedSectionKeyword based on assertions of &#39;has_many&#39;, &#39;has_one&#39;, &#39;belongs_to&#39;. </text>
<text text-anchor="middle" x="355" y="-7.8" font-family="Times,serif" font-size="14.00">Generated 2022&#45;01&#45;25 11:43:48 &#45;0600.</text>
<!-- TaggedSectionKeyword&#45;&gt;PinboardItem -->
<g id="edge1" class="edge">
<title>TaggedSectionKeyword&#45;&gt;PinboardItem</title>
<path fill="none" stroke="black" d="M188.4,-242.45C212.59,-274.57 261.58,-334.35 315.62,-370.42 320.54,-373.71 325.93,-376.68 331.46,-379.34"/>
<polygon fill="black" stroke="black" points="330.28,-382.65 340.83,-383.54 333.14,-376.26 330.28,-382.65"/>
</g>
<!-- TaggedSectionKeyword&#45;&gt;Role -->
<g id="edge2" class="edge">
<title>TaggedSectionKeyword&#45;&gt;Role</title>
<path fill="none" stroke="black" d="M201.19,-242.46C229.27,-263.35 273.81,-294.68 315.62,-316.42 326.43,-322.04 338.69,-327.16 349.9,-331.39"/>
<polygon fill="black" stroke="black" points="348.82,-334.73 359.41,-334.88 351.23,-328.15 348.82,-334.73"/>
</g>
<!-- TaggedSectionKeyword&#45;&gt;VerifierRole -->
<g id="edge3" class="edge">
<title>TaggedSectionKeyword&#45;&gt;VerifierRole</title>
<path fill="none" stroke="black" d="M231.86,-239.64C264.43,-250.18 304.36,-263.11 335.37,-273.15"/>
<polygon fill="black" stroke="black" points="334.51,-276.55 345.1,-276.3 336.66,-269.89 334.51,-276.55"/>
</g>
<!-- TaggedSectionKeyword&#45;&gt;Creator -->
<g id="edge5" class="edge">
<title>TaggedSectionKeyword&#45;&gt;Creator</title>
<path fill="none" stroke="black" stroke-dasharray="5,2" d="M243.36,-241.69C304.89,-255.71 393.87,-264.88 457.62,-224.42 498.51,-198.46 513.54,-138.39 518.68,-107.9"/>
<polygon fill="black" stroke="black" points="243.89,-238.21 233.35,-239.31 242.27,-245.02 243.89,-238.21"/>
</g>
<!-- TaggedSectionKeyword&#45;&gt;Keyword -->
<g id="edge6" class="edge">
<title>TaggedSectionKeyword&#45;&gt;Keyword</title>
<path fill="none" stroke="black" stroke-dasharray="5,2" d="M287.2,-208.04C311.38,-205.43 335,-202.88 353.03,-200.93"/>
<polygon fill="black" stroke="black" points="286.75,-204.57 277.19,-209.12 287.5,-211.53 286.75,-204.57"/>
</g>
<!-- TaggedSectionKeyword&#45;&gt;OtuPageLayoutSection -->
<g id="edge7" class="edge">
<title>TaggedSectionKeyword&#45;&gt;OtuPageLayoutSection</title>
<path fill="none" stroke="black" stroke-dasharray="5,2" d="M237.28,-197.01C268.93,-185.58 306.42,-172.03 335.79,-161.42"/>
<polygon fill="black" stroke="black" points="235.88,-193.8 227.66,-200.49 238.25,-200.38 235.88,-193.8"/>
</g>
<!-- TaggedSectionKeyword&#45;&gt;Project -->
<g id="edge8" class="edge">
<title>TaggedSectionKeyword&#45;&gt;Project</title>
<path fill="none" stroke="black" stroke-dasharray="5,2" d="M206.42,-191.85C234.4,-169.27 275.84,-138.06 315.62,-116.42 329.35,-108.95 345.59,-102.55 358.96,-97.86"/>
<polygon fill="black" stroke="black" points="204.08,-189.24 198.54,-198.27 208.5,-194.67 204.08,-189.24"/>
</g>
<!-- TaggedSectionKeyword&#45;&gt;Updater -->
<g id="edge9" class="edge">
<title>TaggedSectionKeyword&#45;&gt;Updater</title>
<path fill="none" stroke="black" stroke-dasharray="5,2" d="M189.37,-189.63C212.24,-151.49 257.04,-88.39 315.62,-62.42 411.09,-20.08 448.19,-41.99 550.62,-62.42 562.72,-64.83 575.39,-69.54 586.3,-74.36"/>
<polygon fill="black" stroke="black" points="186.33,-187.89 184.3,-198.28 192.37,-191.43 186.33,-187.89"/>
</g>
<!-- Role&#45;&gt;Verifier -->
<!-- VerifierRole&#45;&gt;Verifier -->
<g id="edge4" class="edge">
<title>VerifierRole&#45;&gt;Verifier</title>
<path fill="none" stroke="black" d="M428.4,-297.66C445.8,-301.18 465.98,-305.27 483.07,-308.72"/>
<polygon fill="black" stroke="black" points="482.76,-312.23 493.26,-310.78 484.15,-305.37 482.76,-312.23"/>
</g>
<!-- Creator&#45;&gt;Updater -->
<!-- Project&#45;&gt;Creator -->
<!-- TaggedSectionKeyword -->
<g id="node1" class="node">
<title>TaggedSectionKeyword</title>
<g id="a_node1"><a xlink:href="/develop/Data/models.html#tagged-section-keyword" xlink:title="TaggedSectionKeyword" target="_top">
<polygon fill="#cdefab" stroke="#dedede" points="275.73,-212.96 275.73,-227.87 214.67,-238.42 128.33,-238.42 67.27,-227.87 67.27,-212.96 128.33,-202.42 214.67,-202.42 275.73,-212.96"/>
<polygon fill="none" stroke="#dedede" points="279.73,-209.59 279.73,-231.24 215.02,-242.42 127.98,-242.42 63.27,-231.24 63.27,-209.59 127.98,-198.42 215.02,-198.42 279.73,-209.59"/>
<text text-anchor="middle" x="171.5" y="-216.72" font-family="Times,serif" font-size="14.00">TaggedSectionKeyword</text>
</a>
</g>
</g>
<!-- PinboardItem -->
<g id="node2" class="node">
<title>PinboardItem</title>
<g id="a_node2"><a xlink:href="/develop/Data/models.html#pinboard-item" xlink:title="PinboardItem" target="_top">
<polygon fill="#eeefff" stroke="#dddeee" points="432.12,-415.42 341.12,-415.42 341.12,-379.42 432.12,-379.42 432.12,-415.42"/>
<text text-anchor="middle" x="386.62" y="-393.72" font-family="Times,serif" font-size="14.00">PinboardItem</text>
</a>
</g>
</g>
<!-- Role -->
<g id="node3" class="node">
<title>Role</title>
<g id="a_node3"><a xlink:href="/develop/Data/models.html#role" xlink:title="Role" target="_top">
<polygon fill="#eeefff" stroke="#dddeee" points="413.62,-361.42 359.62,-361.42 359.62,-325.42 413.62,-325.42 413.62,-361.42"/>
<text text-anchor="middle" x="386.62" y="-339.72" font-family="Times,serif" font-size="14.00">Role</text>
</a>
</g>
</g>
<!-- VerifierRole -->
<g id="node4" class="node">
<title>VerifierRole</title>
<g id="a_node4"><a xlink:href="/develop/Data/models.html#verifier-role" xlink:title="VerifierRole" target="_top">
<polygon fill="#eeefff" stroke="#dddeee" points="428.12,-307.42 345.12,-307.42 345.12,-271.42 428.12,-271.42 428.12,-307.42"/>
<text text-anchor="middle" x="386.62" y="-285.72" font-family="Times,serif" font-size="14.00">VerifierRole</text>
</a>
</g>
</g>
<!-- Verifier -->
<g id="node5" class="node">
<title>Verifier</title>
<g id="a_node5"><a xlink:href="/develop/Data/models.html#verifier" xlink:title="Verifier" target="_top">
<polygon fill="#eeefff" stroke="#dddeee" points="550.62,-334.42 493.62,-334.42 493.62,-298.42 550.62,-298.42 550.62,-334.42"/>
<text text-anchor="middle" x="522.12" y="-312.72" font-family="Times,serif" font-size="14.00">Verifier</text>
</a>
</g>
</g>
<!-- Creator -->
<g id="node6" class="node">
<title>Creator</title>
<g id="a_node6"><a xlink:href="/develop/Data/models.html#creator" xlink:title="Creator" target="_top">
<polygon fill="#eeefff" stroke="#dddeee" points="550.62,-107.42 493.62,-107.42 493.62,-71.42 550.62,-71.42 550.62,-107.42"/>
<text text-anchor="middle" x="522.12" y="-85.72" font-family="Times,serif" font-size="14.00">Creator</text>
</a>
</g>
</g>
<!-- Keyword -->
<g id="node7" class="node">
<title>Keyword</title>
<g id="a_node7"><a xlink:href="/develop/Data/models.html#keyword" xlink:title="Keyword" target="_top">
<polygon fill="#eeefff" stroke="#dddeee" points="420.12,-215.42 353.12,-215.42 353.12,-179.42 420.12,-179.42 420.12,-215.42"/>
<text text-anchor="middle" x="386.62" y="-193.72" font-family="Times,serif" font-size="14.00">Keyword</text>
</a>
</g>
</g>
<!-- OtuPageLayoutSection -->
<g id="node8" class="node">
<title>OtuPageLayoutSection</title>
<g id="a_node8"><a xlink:href="/develop/Data/models.html#otu-page-layout-section" xlink:title="OtuPageLayoutSection" target="_top">
<polygon fill="#eeefff" stroke="#dddeee" points="457.62,-161.42 315.62,-161.42 315.62,-125.42 457.62,-125.42 457.62,-161.42"/>
<text text-anchor="middle" x="386.62" y="-139.72" font-family="Times,serif" font-size="14.00">OtuPageLayoutSection</text>
</a>
</g>
</g>
<!-- Project -->
<g id="node9" class="node">
<title>Project</title>
<g id="a_node9"><a xlink:href="/develop/Data/models.html#project" xlink:title="Project" target="_top">
<polygon fill="#eeefff" stroke="#dddeee" points="414.12,-107.42 359.12,-107.42 359.12,-71.42 414.12,-71.42 414.12,-107.42"/>
<text text-anchor="middle" x="386.62" y="-85.72" font-family="Times,serif" font-size="14.00">Project</text>
</a>
</g>
</g>
<!-- Updater -->
<g id="node10" class="node">
<title>Updater</title>
<g id="a_node10"><a xlink:href="/develop/Data/models.html#updater" xlink:title="Updater" target="_top">
<polygon fill="#eeefff" stroke="#dddeee" points="646.62,-107.42 586.62,-107.42 586.62,-71.42 646.62,-71.42 646.62,-107.42"/>
<text text-anchor="middle" x="616.62" y="-85.72" font-family="Times,serif" font-size="14.00">Updater</text>
</a>
</g>
</g>
</g>
</svg>
