<?xml version="1.0" encoding="UTF-8" standalone="no"?>
<!DOCTYPE svg PUBLIC "-//W3C//DTD SVG 1.1//EN"
 "http://www.w3.org/Graphics/SVG/1.1/DTD/svg11.dtd">
<!-- Generated by graphviz version 2.50.0 (20211204.2007)
 -->
<!-- Title: Tag Pages: 1 -->
<svg width="469pt" height="446pt"
 viewBox="0.00 0.00 469.11 445.50" xmlns="http://www.w3.org/2000/svg" xmlns:xlink="http://www.w3.org/1999/xlink">
<g id="graph0" class="graph" transform="scale(1 1) rotate(0) translate(4 441.5)">
<title>Tag</title>
<polygon fill="white" stroke="transparent" points="-4,4 -4,-441.5 465.11,-441.5 465.11,4 -4,4"/>
<!-- Tag&#45;&gt;ControlledVocabularyTerm -->
<g id="edge5" class="edge">
<title>Tag&#45;&gt;ControlledVocabularyTerm</title>
<path fill="none" stroke="black" stroke-dasharray="5,2" d="M35.23,-242.36C40.94,-282.61 56.47,-350.91 98,-391 101.96,-394.82 106.44,-398.12 111.23,-400.97"/>
<polygon fill="black" stroke="black" points="38.68,-241.75 33.92,-232.28 31.74,-242.65 38.68,-241.75"/>
</g>
<!-- Tag&#45;&gt;PinboardItem -->
<g id="edge1" class="edge">
<title>Tag&#45;&gt;PinboardItem</title>
<path fill="none" stroke="black" d="M37.78,-232.19C46.29,-260.53 64.87,-309.22 98,-337 107,-344.55 118.12,-349.99 129.34,-353.91"/>
<polygon fill="black" stroke="black" points="128.58,-357.35 139.17,-356.99 130.67,-350.66 128.58,-357.35"/>
</g>
<!-- Tag&#45;&gt;Role -->
<g id="edge2" class="edge">
<title>Tag&#45;&gt;Role</title>
<path fill="none" stroke="black" d="M45.96,-230.73C57.98,-247.09 76.71,-269.36 98,-283 113.03,-292.63 131.75,-299.04 147.88,-303.19"/>
<polygon fill="black" stroke="black" points="147.51,-306.69 158.04,-305.59 149.12,-299.88 147.51,-306.69"/>
</g>
<!-- Tag&#45;&gt;VerifierRole -->
<g id="edge3" class="edge">
<title>Tag&#45;&gt;VerifierRole</title>
<path fill="none" stroke="black" d="M62.04,-219.09C82.5,-225.28 110.09,-233.62 133.85,-240.81"/>
<polygon fill="black" stroke="black" points="132.84,-244.16 143.43,-243.71 134.87,-237.46 132.84,-244.16"/>
</g>
<!-- Tag&#45;&gt;Creator -->
<g id="edge6" class="edge">
<title>Tag&#45;&gt;Creator</title>
<path fill="none" stroke="black" stroke-dasharray="5,2" d="M72.31,-216.21C122.35,-221.9 208.82,-224.96 272.11,-191 298.09,-177.06 316.96,-147.44 327.09,-128.14"/>
<polygon fill="black" stroke="black" points="72.56,-212.71 62.21,-214.97 71.71,-219.66 72.56,-212.71"/>
</g>
<!-- Tag&#45;&gt;Keyword -->
<g id="edge7" class="edge">
<title>Tag&#45;&gt;Keyword</title>
<path fill="none" stroke="black" stroke-dasharray="5,2" d="M71.87,-197.94C96.66,-190.44 128.15,-180.91 151.45,-173.87"/>
<polygon fill="black" stroke="black" points="70.6,-194.67 62.04,-200.91 72.63,-201.37 70.6,-194.67"/>
</g>
<!-- Tag&#45;&gt;Project -->
<g id="edge8" class="edge">
<title>Tag&#45;&gt;Project</title>
<path fill="none" stroke="black" stroke-dasharray="5,2" d="M52.07,-181.22C63.89,-166.16 80.04,-148.51 98,-137 116.06,-125.43 139.44,-118.51 157.27,-114.58"/>
<polygon fill="black" stroke="black" points="49.22,-179.19 45.96,-189.27 54.8,-183.42 49.22,-179.19"/>
</g>
<!-- Tag&#45;&gt;Updater -->
<g id="edge10" class="edge">
<title>Tag&#45;&gt;Updater</title>
<path fill="none" stroke="black" stroke-dasharray="5,2" d="M38.63,-178.22C46.85,-147.79 64.13,-103.57 98,-83 199.47,-21.38 248.69,-59.78 365.11,-83 377.22,-85.41 389.89,-90.13 400.79,-94.95"/>
<polygon fill="black" stroke="black" points="35.22,-177.4 36.18,-187.96 42.01,-179.11 35.22,-177.4"/>
</g>
<!-- Tag&#45;&gt;Objects with Tags -->
<g id="edge9" class="edge">
<title>Tag&#45;&gt;Objects with Tags</title>
<path fill="none" stroke="black" stroke-dasharray="5,2" d="M37.29,-178.08C44.81,-142.33 61.89,-84.86 98,-50 106.6,-41.7 117.55,-35.51 128.73,-30.92"/>
<polygon fill="black" stroke="black" points="33.84,-177.5 35.34,-187.99 40.71,-178.85 33.84,-177.5"/>
</g>
<!-- Role&#45;&gt;Verifier -->
<!-- VerifierRole&#45;&gt;Verifier -->
<g id="edge4" class="edge">
<title>VerifierRole&#45;&gt;Verifier</title>
<path fill="none" stroke="black" d="M226.92,-263.38C249.07,-267.38 276.26,-272.28 297.9,-276.19"/>
<polygon fill="black" stroke="black" points="297.57,-279.69 308.03,-278.02 298.81,-272.8 297.57,-279.69"/>
</g>
<!-- Creator&#45;&gt;Updater -->
<!-- Project&#45;&gt;Creator -->
<!-- Tag -->
<g id="node1" class="node">
<title>Tag</title>
<g id="a_node1"><a xlink:href="/develop/Data/models.html#tag" xlink:title="Tag" target="_top">
<polygon fill="#cdefab" stroke="#dedede" points="58,-202.54 58,-217.46 42.18,-228 19.82,-228 4,-217.46 4,-202.54 19.82,-192 42.18,-192 58,-202.54"/>
<polygon fill="none" stroke="#dedede" points="62,-200.4 62,-219.6 43.39,-232 18.61,-232 0,-219.6 0,-200.4 18.61,-188 43.39,-188 62,-200.4"/>
<text text-anchor="middle" x="31" y="-206.3" font-family="Times,serif" font-size="14.00">Tag</text>
</a>
</g>
</g>
<!-- ControlledVocabularyTerm -->
<g id="node2" class="node">
<title>ControlledVocabularyTerm</title>
<g id="a_node2"><a xlink:href="/develop/Data/models.html#controlled-vocabulary-term" xlink:title="ControlledVocabularyTerm" target="_top">
<path fill="#fedcba" stroke="#dddeee" d="M114.06,-401C114.06,-401 256.06,-401 256.06,-401 262.06,-401 268.06,-407 268.06,-413 268.06,-413 268.06,-425 268.06,-425 268.06,-431 262.06,-437 256.06,-437 256.06,-437 114.06,-437 114.06,-437 108.06,-437 102.06,-431 102.06,-425 102.06,-425 102.06,-413 102.06,-413 102.06,-407 108.06,-401 114.06,-401"/>
<text text-anchor="middle" x="185.06" y="-415.3" font-family="Times,serif" font-size="14.00">ControlledVocabularyTerm</text>
</a>
</g>
</g>
<!-- PinboardItem -->
<g id="node3" class="node">
<title>PinboardItem</title>
<g id="a_node3"><a xlink:href="/develop/Data/models.html#pinboard-item" xlink:title="PinboardItem" target="_top">
<polygon fill="#eeefff" stroke="#dddeee" points="230.56,-382 139.56,-382 139.56,-346 230.56,-346 230.56,-382"/>
<text text-anchor="middle" x="185.06" y="-360.3" font-family="Times,serif" font-size="14.00">PinboardItem</text>
</a>
</g>
</g>
<!-- Role -->
<g id="node4" class="node">
<title>Role</title>
<g id="a_node4"><a xlink:href="/develop/Data/models.html#role" xlink:title="Role" target="_top">
<polygon fill="#eeefff" stroke="#dddeee" points="212.06,-328 158.06,-328 158.06,-292 212.06,-292 212.06,-328"/>
<text text-anchor="middle" x="185.06" y="-306.3" font-family="Times,serif" font-size="14.00">Role</text>
</a>
</g>
</g>
<!-- VerifierRole -->
<g id="node5" class="node">
<title>VerifierRole</title>
<g id="a_node5"><a xlink:href="/develop/Data/models.html#verifier-role" xlink:title="VerifierRole" target="_top">
<polygon fill="#eeefff" stroke="#dddeee" points="226.56,-274 143.56,-274 143.56,-238 226.56,-238 226.56,-274"/>
<text text-anchor="middle" x="185.06" y="-252.3" font-family="Times,serif" font-size="14.00">VerifierRole</text>
</a>
</g>
</g>
<!-- Verifier -->
<g id="node6" class="node">
<title>Verifier</title>
<g id="a_node6"><a xlink:href="/develop/Data/models.html#verifier" xlink:title="Verifier" target="_top">
<polygon fill="#eeefff" stroke="#dddeee" points="365.11,-301 308.11,-301 308.11,-265 365.11,-265 365.11,-301"/>
<text text-anchor="middle" x="336.61" y="-279.3" font-family="Times,serif" font-size="14.00">Verifier</text>
</a>
</g>
</g>
<!-- Creator -->
<g id="node7" class="node">
<title>Creator</title>
<g id="a_node7"><a xlink:href="/develop/Data/models.html#creator" xlink:title="Creator" target="_top">
<polygon fill="#eeefff" stroke="#dddeee" points="365.11,-128 308.11,-128 308.11,-92 365.11,-92 365.11,-128"/>
<text text-anchor="middle" x="336.61" y="-106.3" font-family="Times,serif" font-size="14.00">Creator</text>
</a>
</g>
</g>
<!-- Keyword -->
<g id="node8" class="node">
<title>Keyword</title>
<g id="a_node8"><a xlink:href="/develop/Data/models.html#keyword" xlink:title="Keyword" target="_top">
<polygon fill="#eeefff" stroke="#dddeee" points="218.56,-182 151.56,-182 151.56,-146 218.56,-146 218.56,-182"/>
<text text-anchor="middle" x="185.06" y="-160.3" font-family="Times,serif" font-size="14.00">Keyword</text>
</a>
</g>
</g>
<!-- Project -->
<g id="node9" class="node">
<title>Project</title>
<g id="a_node9"><a xlink:href="/develop/Data/models.html#project" xlink:title="Project" target="_top">
<polygon fill="#eeefff" stroke="#dddeee" points="212.56,-128 157.56,-128 157.56,-92 212.56,-92 212.56,-128"/>
<text text-anchor="middle" x="185.06" y="-106.3" font-family="Times,serif" font-size="14.00">Project</text>
</a>
</g>
</g>
<!-- Updater -->
<g id="node10" class="node">
<title>Updater</title>
<g id="a_node10"><a xlink:href="/develop/Data/models.html#updater" xlink:title="Updater" target="_top">
<polygon fill="#eeefff" stroke="#dddeee" points="461.11,-128 401.11,-128 401.11,-92 461.11,-92 461.11,-128"/>
<text text-anchor="middle" x="431.11" y="-106.3" font-family="Times,serif" font-size="14.00">Updater</text>
</a>
</g>
</g>
<!-- Objects with Tags -->
<g id="node11" class="node">
<title>Objects with Tags</title>
<g id="a_node11"><a xlink:href="/develop/Data/models.html#objects with tag" xlink:title="Objects with Tags" target="_top">
<polygon fill="#cdabef" stroke="#dedede" points="272.17,-18 228.61,-36 141.5,-36 97.94,-18 141.5,0 228.61,0 272.17,-18"/>
<text text-anchor="middle" x="185.06" y="-14.3" font-family="Times,serif" font-size="14.00">Objects with Tags</text>
</a>
</g>
</g>
</g>
</svg>
