<?xml version="1.0" encoding="UTF-8" standalone="no"?>
<!DOCTYPE svg PUBLIC "-//W3C//DTD SVG 1.1//EN"
 "http://www.w3.org/Graphics/SVG/1.1/DTD/svg11.dtd">
<!-- Generated by graphviz version 2.50.0 (20211204.2007)
 -->
<!-- Title: Tag Pages: 1 -->
<svg width="607pt" height="484pt"
 viewBox="0.00 0.00 607.00 483.50" xmlns="http://www.w3.org/2000/svg" xmlns:xlink="http://www.w3.org/1999/xlink">
<g id="graph0" class="graph" transform="scale(1 1) rotate(0) translate(4 479.5)">
<title>Tag</title>
<polygon fill="white" stroke="transparent" points="-4,4 -4,-479.5 603,-479.5 603,4 -4,4"/>
<text text-anchor="middle" x="299.5" y="-22.8" font-family="Times,serif" font-size="14.00">Algorithmically generated relationships for Tag based on assertions of &#39;has_many&#39;, &#39;has_one&#39;, &#39;belongs_to&#39;. </text>
<text text-anchor="middle" x="299.5" y="-7.8" font-family="Times,serif" font-size="14.00">Generated 2022&#45;01&#45;25 11:42:28 &#45;0600.</text>
<!-- Tag&#45;&gt;ControlledVocabularyTerm -->
<g id="edge5" class="edge">
<title>Tag&#45;&gt;ControlledVocabularyTerm</title>
<path fill="none" stroke="black" stroke-dasharray="5,2" d="M104.17,-280.36C109.89,-320.61 125.42,-388.91 166.94,-429 170.9,-432.82 175.38,-436.12 180.17,-438.97"/>
<polygon fill="black" stroke="black" points="107.62,-279.75 102.86,-270.28 100.68,-280.65 107.62,-279.75"/>
</g>
<!-- Tag&#45;&gt;PinboardItem -->
<g id="edge1" class="edge">
<title>Tag&#45;&gt;PinboardItem</title>
<path fill="none" stroke="black" d="M106.72,-270.19C115.23,-298.53 133.81,-347.22 166.94,-375 175.95,-382.55 187.06,-387.99 198.28,-391.91"/>
<polygon fill="black" stroke="black" points="197.53,-395.35 208.12,-394.99 199.61,-388.66 197.53,-395.35"/>
</g>
<!-- Tag&#45;&gt;Role -->
<g id="edge2" class="edge">
<title>Tag&#45;&gt;Role</title>
<path fill="none" stroke="black" d="M114.9,-268.73C126.92,-285.09 145.65,-307.36 166.94,-321 181.98,-330.63 200.69,-337.04 216.82,-341.19"/>
<polygon fill="black" stroke="black" points="216.45,-344.69 226.99,-343.59 218.06,-337.88 216.45,-344.69"/>
</g>
<!-- Tag&#45;&gt;VerifierRole -->
<g id="edge3" class="edge">
<title>Tag&#45;&gt;VerifierRole</title>
<path fill="none" stroke="black" d="M130.98,-257.09C151.45,-263.28 179.03,-271.62 202.79,-278.81"/>
<polygon fill="black" stroke="black" points="201.78,-282.16 212.37,-281.71 203.81,-275.46 201.78,-282.16"/>
</g>
<!-- Tag&#45;&gt;Creator -->
<g id="edge6" class="edge">
<title>Tag&#45;&gt;Creator</title>
<path fill="none" stroke="black" stroke-dasharray="5,2" d="M141.25,-254.21C191.29,-259.9 277.76,-262.96 341.06,-229 367.04,-215.06 385.91,-185.44 396.04,-166.14"/>
<polygon fill="black" stroke="black" points="141.5,-250.71 131.15,-252.97 140.65,-257.66 141.5,-250.71"/>
</g>
<!-- Tag&#45;&gt;Keyword -->
<g id="edge7" class="edge">
<title>Tag&#45;&gt;Keyword</title>
<path fill="none" stroke="black" stroke-dasharray="5,2" d="M140.81,-235.94C165.61,-228.44 197.09,-218.91 220.39,-211.87"/>
<polygon fill="black" stroke="black" points="139.54,-232.67 130.98,-238.91 141.57,-239.37 139.54,-232.67"/>
</g>
<!-- Tag&#45;&gt;Project -->
<g id="edge8" class="edge">
<title>Tag&#45;&gt;Project</title>
<path fill="none" stroke="black" stroke-dasharray="5,2" d="M121.01,-219.22C132.84,-204.16 148.98,-186.51 166.94,-175 185.01,-163.43 208.38,-156.51 226.21,-152.58"/>
<polygon fill="black" stroke="black" points="118.16,-217.19 114.9,-227.27 123.74,-221.42 118.16,-217.19"/>
</g>
<!-- Tag&#45;&gt;Updater -->
<g id="edge10" class="edge">
<title>Tag&#45;&gt;Updater</title>
<path fill="none" stroke="black" stroke-dasharray="5,2" d="M107.57,-216.22C115.79,-185.79 133.07,-141.57 166.94,-121 268.41,-59.38 317.63,-97.78 434.06,-121 446.16,-123.41 458.83,-128.13 469.74,-132.95"/>
<polygon fill="black" stroke="black" points="104.17,-215.4 105.12,-225.96 110.96,-217.11 104.17,-215.4"/>
</g>
<!-- Tag&#45;&gt;Objects with Tags -->
<g id="edge9" class="edge">
<title>Tag&#45;&gt;Objects with Tags</title>
<path fill="none" stroke="black" stroke-dasharray="5,2" d="M106.24,-216.08C113.75,-180.33 130.84,-122.86 166.94,-88 175.54,-79.7 186.49,-73.51 197.67,-68.92"/>
<polygon fill="black" stroke="black" points="102.78,-215.5 104.28,-225.99 109.65,-216.85 102.78,-215.5"/>
</g>
<!-- Role&#45;&gt;Verifier -->
<!-- VerifierRole&#45;&gt;Verifier -->
<g id="edge4" class="edge">
<title>VerifierRole&#45;&gt;Verifier</title>
<path fill="none" stroke="black" d="M295.87,-301.38C318.02,-305.38 345.2,-310.28 366.84,-314.19"/>
<polygon fill="black" stroke="black" points="366.51,-317.69 376.97,-316.02 367.75,-310.8 366.51,-317.69"/>
</g>
<!-- Creator&#45;&gt;Updater -->
<!-- Project&#45;&gt;Creator -->
<!-- Tag -->
<g id="node1" class="node">
<title>Tag</title>
<g id="a_node1"><a xlink:href="/develop/Data/models.html#tag" xlink:title="Tag" target="_top">
<polygon fill="#cdefab" stroke="#dedede" points="126.94,-240.54 126.94,-255.46 111.13,-266 88.76,-266 72.94,-255.46 72.94,-240.54 88.76,-230 111.13,-230 126.94,-240.54"/>
<polygon fill="none" stroke="#dedede" points="130.94,-238.4 130.94,-257.6 112.34,-270 87.55,-270 68.94,-257.6 68.94,-238.4 87.55,-226 112.34,-226 130.94,-238.4"/>
<text text-anchor="middle" x="99.94" y="-244.3" font-family="Times,serif" font-size="14.00">Tag</text>
</a>
</g>
</g>
<!-- ControlledVocabularyTerm -->
<g id="node2" class="node">
<title>ControlledVocabularyTerm</title>
<g id="a_node2"><a xlink:href="/develop/Data/models.html#controlled-vocabulary-term" xlink:title="ControlledVocabularyTerm" target="_top">
<path fill="#fedcba" stroke="#dddeee" d="M183,-439C183,-439 325,-439 325,-439 331,-439 337,-445 337,-451 337,-451 337,-463 337,-463 337,-469 331,-475 325,-475 325,-475 183,-475 183,-475 177,-475 171,-469 171,-463 171,-463 171,-451 171,-451 171,-445 177,-439 183,-439"/>
<text text-anchor="middle" x="254" y="-453.3" font-family="Times,serif" font-size="14.00">ControlledVocabularyTerm</text>
</a>
</g>
</g>
<!-- PinboardItem -->
<g id="node3" class="node">
<title>PinboardItem</title>
<g id="a_node3"><a xlink:href="/develop/Data/models.html#pinboard-item" xlink:title="PinboardItem" target="_top">
<polygon fill="#eeefff" stroke="#dddeee" points="299.5,-420 208.5,-420 208.5,-384 299.5,-384 299.5,-420"/>
<text text-anchor="middle" x="254" y="-398.3" font-family="Times,serif" font-size="14.00">PinboardItem</text>
</a>
</g>
</g>
<!-- Role -->
<g id="node4" class="node">
<title>Role</title>
<g id="a_node4"><a xlink:href="/develop/Data/models.html#role" xlink:title="Role" target="_top">
<polygon fill="#eeefff" stroke="#dddeee" points="281,-366 227,-366 227,-330 281,-330 281,-366"/>
<text text-anchor="middle" x="254" y="-344.3" font-family="Times,serif" font-size="14.00">Role</text>
</a>
</g>
</g>
<!-- VerifierRole -->
<g id="node5" class="node">
<title>VerifierRole</title>
<g id="a_node5"><a xlink:href="/develop/Data/models.html#verifier-role" xlink:title="VerifierRole" target="_top">
<polygon fill="#eeefff" stroke="#dddeee" points="295.5,-312 212.5,-312 212.5,-276 295.5,-276 295.5,-312"/>
<text text-anchor="middle" x="254" y="-290.3" font-family="Times,serif" font-size="14.00">VerifierRole</text>
</a>
</g>
</g>
<!-- Verifier -->
<g id="node6" class="node">
<title>Verifier</title>
<g id="a_node6"><a xlink:href="/develop/Data/models.html#verifier" xlink:title="Verifier" target="_top">
<polygon fill="#eeefff" stroke="#dddeee" points="434.06,-339 377.06,-339 377.06,-303 434.06,-303 434.06,-339"/>
<text text-anchor="middle" x="405.56" y="-317.3" font-family="Times,serif" font-size="14.00">Verifier</text>
</a>
</g>
</g>
<!-- Creator -->
<g id="node7" class="node">
<title>Creator</title>
<g id="a_node7"><a xlink:href="/develop/Data/models.html#creator" xlink:title="Creator" target="_top">
<polygon fill="#eeefff" stroke="#dddeee" points="434.06,-166 377.06,-166 377.06,-130 434.06,-130 434.06,-166"/>
<text text-anchor="middle" x="405.56" y="-144.3" font-family="Times,serif" font-size="14.00">Creator</text>
</a>
</g>
</g>
<!-- Keyword -->
<g id="node8" class="node">
<title>Keyword</title>
<g id="a_node8"><a xlink:href="/develop/Data/models.html#keyword" xlink:title="Keyword" target="_top">
<polygon fill="#eeefff" stroke="#dddeee" points="287.5,-220 220.5,-220 220.5,-184 287.5,-184 287.5,-220"/>
<text text-anchor="middle" x="254" y="-198.3" font-family="Times,serif" font-size="14.00">Keyword</text>
</a>
</g>
</g>
<!-- Project -->
<g id="node9" class="node">
<title>Project</title>
<g id="a_node9"><a xlink:href="/develop/Data/models.html#project" xlink:title="Project" target="_top">
<polygon fill="#eeefff" stroke="#dddeee" points="281.5,-166 226.5,-166 226.5,-130 281.5,-130 281.5,-166"/>
<text text-anchor="middle" x="254" y="-144.3" font-family="Times,serif" font-size="14.00">Project</text>
</a>
</g>
</g>
<!-- Updater -->
<g id="node10" class="node">
<title>Updater</title>
<g id="a_node10"><a xlink:href="/develop/Data/models.html#updater" xlink:title="Updater" target="_top">
<polygon fill="#eeefff" stroke="#dddeee" points="530.06,-166 470.06,-166 470.06,-130 530.06,-130 530.06,-166"/>
<text text-anchor="middle" x="500.06" y="-144.3" font-family="Times,serif" font-size="14.00">Updater</text>
</a>
</g>
</g>
<!-- Objects with Tags -->
<g id="node11" class="node">
<title>Objects with Tags</title>
<g id="a_node11"><a xlink:href="/develop/Data/models.html#objects with tag" xlink:title="Objects with Tags" target="_top">
<polygon fill="#cdabef" stroke="#dedede" points="341.11,-56 297.56,-74 210.44,-74 166.89,-56 210.44,-38 297.56,-38 341.11,-56"/>
<text text-anchor="middle" x="254" y="-52.3" font-family="Times,serif" font-size="14.00">Objects with Tags</text>
</a>
</g>
</g>
</g>
</svg>
