<?xml version="1.0" encoding="UTF-8" standalone="no"?>
<!DOCTYPE svg PUBLIC "-//W3C//DTD SVG 1.1//EN"
 "http://www.w3.org/Graphics/SVG/1.1/DTD/svg11.dtd">
<!-- Generated by graphviz version 12.2.1 (20241206.2353)
 -->
<!-- Title: Tag Pages: 1 -->
<svg width="475pt" height="446pt"
 viewBox="0.00 0.00 475.46 445.50" xmlns="http://www.w3.org/2000/svg" xmlns:xlink="http://www.w3.org/1999/xlink">
<g id="graph0" class="graph" transform="scale(1 1) rotate(0) translate(4 441.5)">
<title>Tag</title>
<polygon fill="white" stroke="none" points="-4,4 -4,-441.5 471.46,-441.5 471.46,4 -4,4"/>
<!-- Tag&#45;&gt;ControlledVocabularyTerm -->
<g id="edge5" class="edge">
<title>Tag&#45;&gt;ControlledVocabularyTerm</title>
<path fill="none" stroke="black" stroke-dasharray="5,2" d="M35.75,-243.73C41.62,-284.2 57.32,-351.55 98.66,-391 102.53,-394.69 106.88,-397.9 111.52,-400.68"/>
<polygon fill="black" stroke="black" points="39.22,-243.29 34.45,-233.83 32.28,-244.2 39.22,-243.29"/>
</g>
<!-- Tag&#45;&gt;PinboardItem -->
<g id="edge1" class="edge">
<title>Tag&#45;&gt;PinboardItem</title>
<path fill="none" stroke="black" d="M38.13,-232.24C46.67,-260.64 65.33,-309.38 98.66,-337 108.28,-344.97 120.21,-350.59 132.17,-354.55"/>
<polygon fill="black" stroke="black" points="131.08,-357.87 141.66,-357.31 133.04,-351.15 131.08,-357.87"/>
</g>
<!-- Tag&#45;&gt;Role -->
<g id="edge2" class="edge">
<title>Tag&#45;&gt;Role</title>
<path fill="none" stroke="black" d="M46.35,-230.78C58.42,-247.17 77.24,-269.46 98.66,-283 114.19,-292.82 133.49,-299.24 150.15,-303.35"/>
<polygon fill="black" stroke="black" points="149.18,-306.72 159.71,-305.5 150.72,-299.89 149.18,-306.72"/>
</g>
<!-- Tag&#45;&gt;VerifierRole -->
<g id="edge3" class="edge">
<title>Tag&#45;&gt;VerifierRole</title>
<path fill="none" stroke="black" d="M63.02,-219.09C83.88,-225.26 111.98,-233.58 136.22,-240.76"/>
<polygon fill="black" stroke="black" points="135.01,-244.05 145.59,-243.54 137,-237.34 135.01,-244.05"/>
</g>
<!-- Tag&#45;&gt;Creator -->
<g id="edge6" class="edge">
<title>Tag&#45;&gt;Creator</title>
<path fill="none" stroke="black" stroke-dasharray="5,2" d="M74.23,-216.53C125.65,-222.44 213.95,-225.62 278.71,-191 304.73,-177.09 323.64,-147.46 333.8,-128.16"/>
<polygon fill="black" stroke="black" points="74.78,-213.07 64.42,-215.3 73.91,-220.02 74.78,-213.07"/>
</g>
<!-- Tag&#45;&gt;Keyword -->
<g id="edge7" class="edge">
<title>Tag&#45;&gt;Keyword</title>
<path fill="none" stroke="black" stroke-dasharray="5,2" d="M73.85,-197.7C99.35,-190.15 131.54,-180.62 155.18,-173.62"/>
<polygon fill="black" stroke="black" points="73.07,-194.29 64.47,-200.48 75.06,-201 73.07,-194.29"/>
</g>
<!-- Tag&#45;&gt;Project -->
<g id="edge8" class="edge">
<title>Tag&#45;&gt;Project</title>
<path fill="none" stroke="black" stroke-dasharray="5,2" d="M53.15,-180.32C64.96,-165.43 80.92,-148.22 98.66,-137 117.77,-124.92 142.6,-117.97 161.19,-114.16"/>
<polygon fill="black" stroke="black" points="50.56,-177.94 47.27,-188.01 56.12,-182.19 50.56,-177.94"/>
</g>
<!-- Tag&#45;&gt;Updater -->
<g id="edge10" class="edge">
<title>Tag&#45;&gt;Updater</title>
<path fill="none" stroke="black" stroke-dasharray="5,2" d="M39.44,-176.76C47.89,-146.39 65.27,-103.23 98.66,-83 202.55,-20.06 252.86,-59.16 371.96,-83 384.02,-85.41 396.65,-90.13 407.51,-94.95"/>
<polygon fill="black" stroke="black" points="36.1,-175.68 37,-186.23 42.88,-177.42 36.1,-175.68"/>
</g>
<!-- Tag&#45;&gt;Objects with Tags -->
<g id="edge9" class="edge">
<title>Tag&#45;&gt;Objects with Tags</title>
<path fill="none" stroke="black" stroke-dasharray="5,2" d="M37.88,-176.78C45.54,-140.89 62.72,-84.26 98.66,-50 107.46,-41.61 118.61,-35.4 130.01,-30.81"/>
<polygon fill="black" stroke="black" points="34.53,-175.68 36.01,-186.17 41.4,-177.04 34.53,-175.68"/>
</g>
<!-- Role&#45;&gt;Verifier -->
<!-- VerifierRole&#45;&gt;Verifier -->
<g id="edge4" class="edge">
<title>VerifierRole&#45;&gt;Verifier</title>
<path fill="none" stroke="black" stroke-dasharray="1,5" d="M230.19,-263.16C252.91,-267.18 281.1,-272.17 303.53,-276.14"/>
<polygon fill="black" stroke="black" points="302.73,-279.55 313.19,-277.84 303.95,-272.66 302.73,-279.55"/>
</g>
<!-- Creator&#45;&gt;Updater -->
<!-- Project&#45;&gt;Creator -->
<!-- Tag -->
<g id="node1" class="node">
<title>Tag</title>
<g id="a_node1"><a xlink:href="/develop/Data/models.html#tag" xlink:title="Tag" target="_top">
<polygon fill="#cdefab" stroke="#dedede" points="58.66,-202.54 58.66,-217.46 42.65,-228 20.01,-228 4,-217.46 4,-202.54 20.01,-192 42.65,-192 58.66,-202.54"/>
<polygon fill="none" stroke="#dedede" points="62.66,-200.39 62.66,-219.61 43.85,-232 18.81,-232 0,-219.61 0,-200.39 18.81,-188 43.85,-188 62.66,-200.39"/>
<text text-anchor="middle" x="31.33" y="-204.95" font-family="Times,serif" font-size="14.00">Tag</text>
</a>
</g>
</g>
<!-- ControlledVocabularyTerm -->
<g id="node2" class="node">
<title>ControlledVocabularyTerm</title>
<g id="a_node2"><a xlink:href="/develop/Data/models.html#controlled-vocabulary-term" xlink:title="ControlledVocabularyTerm" target="_top">
<path fill="#fedcba" stroke="#dddeee" d="M118.06,-401C118.06,-401 259.31,-401 259.31,-401 265.31,-401 271.31,-407 271.31,-413 271.31,-413 271.31,-425 271.31,-425 271.31,-431 265.31,-437 259.31,-437 259.31,-437 118.06,-437 118.06,-437 112.06,-437 106.06,-431 106.06,-425 106.06,-425 106.06,-413 106.06,-413 106.06,-407 112.06,-401 118.06,-401"/>
<text text-anchor="middle" x="188.69" y="-414.2" font-family="Times,serif" font-size="14.00">ControlledVocabularyTerm</text>
</a>
</g>
</g>
<!-- PinboardItem -->
<g id="node3" class="node">
<title>PinboardItem</title>
<g id="a_node3"><a xlink:href="/develop/Data/models.html#pinboard-item" xlink:title="PinboardItem" target="_top">
<polygon fill="#eeefff" stroke="#dddeee" points="233.81,-382 143.56,-382 143.56,-346 233.81,-346 233.81,-382"/>
<text text-anchor="middle" x="188.69" y="-358.95" font-family="Times,serif" font-size="14.00">PinboardItem</text>
</a>
</g>
</g>
<!-- Role -->
<g id="node4" class="node">
<title>Role</title>
<g id="a_node4"><a xlink:href="/develop/Data/models.html#role" xlink:title="Role" target="_top">
<polygon fill="#eeefff" stroke="#dddeee" points="215.69,-328 161.69,-328 161.69,-292 215.69,-292 215.69,-328"/>
<text text-anchor="middle" x="188.69" y="-304.95" font-family="Times,serif" font-size="14.00">Role</text>
</a>
</g>
</g>
<!-- VerifierRole -->
<g id="node5" class="node">
<title>VerifierRole</title>
<g id="a_node5"><a xlink:href="/develop/Data/models.html#verifier-role" xlink:title="VerifierRole" target="_top">
<polygon fill="#eeefff" stroke="#dddeee" points="230.06,-274 147.31,-274 147.31,-238 230.06,-238 230.06,-274"/>
<text text-anchor="middle" x="188.69" y="-250.95" font-family="Times,serif" font-size="14.00">VerifierRole</text>
</a>
</g>
</g>
<!-- Verifier -->
<g id="node6" class="node">
<title>Verifier</title>
<g id="a_node6"><a xlink:href="/develop/Data/models.html#verifier" xlink:title="Verifier" target="_top">
<polygon fill="#eeefff" stroke="#dddeee" points="371.96,-301 314.71,-301 314.71,-265 371.96,-265 371.96,-301"/>
<text text-anchor="middle" x="343.34" y="-277.95" font-family="Times,serif" font-size="14.00">Verifier</text>
</a>
</g>
</g>
<!-- Creator -->
<g id="node7" class="node">
<title>Creator</title>
<g id="a_node7"><a xlink:href="/develop/Data/models.html#creator" xlink:title="Creator" target="_top">
<polygon fill="#eeefff" stroke="#dddeee" points="371.59,-128 315.09,-128 315.09,-92 371.59,-92 371.59,-128"/>
<text text-anchor="middle" x="343.34" y="-104.95" font-family="Times,serif" font-size="14.00">Creator</text>
</a>
</g>
</g>
<!-- Keyword -->
<g id="node8" class="node">
<title>Keyword</title>
<g id="a_node8"><a xlink:href="/develop/Data/models.html#keyword" xlink:title="Keyword" target="_top">
<polygon fill="#eeefff" stroke="#dddeee" points="221.81,-182 155.56,-182 155.56,-146 221.81,-146 221.81,-182"/>
<text text-anchor="middle" x="188.69" y="-158.95" font-family="Times,serif" font-size="14.00">Keyword</text>
</a>
</g>
</g>
<!-- Project -->
<g id="node9" class="node">
<title>Project</title>
<g id="a_node9"><a xlink:href="/develop/Data/models.html#project" xlink:title="Project" target="_top">
<polygon fill="#eeefff" stroke="#dddeee" points="215.81,-128 161.56,-128 161.56,-92 215.81,-92 215.81,-128"/>
<text text-anchor="middle" x="188.69" y="-104.95" font-family="Times,serif" font-size="14.00">Project</text>
</a>
</g>
</g>
<!-- Updater -->
<g id="node10" class="node">
<title>Updater</title>
<g id="a_node10"><a xlink:href="/develop/Data/models.html#updater" xlink:title="Updater" target="_top">
<polygon fill="#eeefff" stroke="#dddeee" points="467.46,-128 407.96,-128 407.96,-92 467.46,-92 467.46,-128"/>
<text text-anchor="middle" x="437.71" y="-104.95" font-family="Times,serif" font-size="14.00">Updater</text>
</a>
</g>
</g>
<!-- Objects with Tags -->
<g id="node11" class="node">
<title>Objects with Tags</title>
<g id="a_node11"><a xlink:href="/develop/Data/models.html#objects with tag" xlink:title="Objects with Tags" target="_top">
<polygon fill="#cdabef" stroke="#dedede" points="278.71,-18 233.7,-36 143.67,-36 98.66,-18 143.67,0 233.7,0 278.71,-18"/>
<text text-anchor="middle" x="188.69" y="-12.95" font-family="Times,serif" font-size="14.00">Objects with Tags</text>
</a>
</g>
</g>
</g>
</svg>
