<?xml version="1.0" encoding="UTF-8" standalone="no"?>
<!DOCTYPE svg PUBLIC "-//W3C//DTD SVG 1.1//EN"
 "http://www.w3.org/Graphics/SVG/1.1/DTD/svg11.dtd">
<!-- Generated by graphviz version 2.50.0 (20211204.2007)
 -->
<!-- Title: TaxonName Pages: 1 -->
<svg width="879pt" height="1410pt"
 viewBox="0.00 0.00 879.39 1409.50" xmlns="http://www.w3.org/2000/svg" xmlns:xlink="http://www.w3.org/1999/xlink">
<g id="graph0" class="graph" transform="scale(1 1) rotate(0) translate(4 1405.5)">
<title>TaxonName</title>
<polygon fill="white" stroke="transparent" points="-4,4 -4,-1405.5 875.39,-1405.5 875.39,4 -4,4"/>
<text text-anchor="middle" x="435.69" y="-22.8" font-family="Times,serif" font-size="14.00">Algorithmically generated relationships for TaxonName based on assertions of &#39;has_many&#39;, &#39;has_one&#39;, &#39;belongs_to&#39;. </text>
<text text-anchor="middle" x="435.69" y="-7.8" font-family="Times,serif" font-size="14.00">Generated 2022&#45;01&#45;25 11:37:32 &#45;0600.</text>
<!-- AlternateValue&#45;&gt;AlternateValueLanguage -->
<g id="edge1" class="edge">
<title>AlternateValue&#45;&gt;AlternateValueLanguage</title>
<path fill="none" stroke="black" d="M119.97,-1365.12C130.61,-1366.78 141.99,-1368.55 153.31,-1370.31"/>
<polygon fill="black" stroke="black" points="152.81,-1373.78 163.23,-1371.86 153.89,-1366.86 152.81,-1373.78"/>
</g>
<!-- Citation&#45;&gt;Source -->
<g id="edge27" class="edge">
<title>Citation&#45;&gt;Source</title>
<path fill="none" stroke="black" d="M102.78,-1274.5C177.33,-1274.5 341.58,-1274.5 414.63,-1274.5"/>
<polygon fill="black" stroke="black" points="414.73,-1278 424.73,-1274.5 414.73,-1271 414.73,-1278"/>
</g>
<!-- Citation&#45;&gt;CitationTopic -->
<g id="edge5" class="edge">
<title>Citation&#45;&gt;CitationTopic</title>
<path fill="none" stroke="black" d="M96.46,-1284.59C120.57,-1292.24 154.31,-1302.96 182.79,-1312"/>
<polygon fill="black" stroke="black" points="182.03,-1315.43 192.62,-1315.13 184.15,-1308.76 182.03,-1315.43"/>
</g>
<!-- Confidence&#45;&gt;ConfidenceLevel -->
<g id="edge9" class="edge">
<title>Confidence&#45;&gt;ConfidenceLevel</title>
<path fill="none" stroke="black" d="M114.79,-685.5C133.34,-685.5 154.62,-685.5 174.21,-685.5"/>
<polygon fill="black" stroke="black" points="174.28,-689 184.28,-685.5 174.28,-682 174.28,-689"/>
</g>
<!-- Depiction&#45;&gt;Image -->
<g id="edge16" class="edge">
<title>Depiction&#45;&gt;Image</title>
<path fill="none" stroke="black" d="M109.3,-631.5C137.96,-631.5 174.73,-631.5 201.61,-631.5"/>
<polygon fill="black" stroke="black" points="201.74,-635 211.74,-631.5 201.74,-628 201.74,-635"/>
</g>
<!-- Tag&#45;&gt;Keyword -->
<g id="edge17" class="edge">
<title>Tag&#45;&gt;Keyword</title>
<path fill="none" stroke="black" d="M91,-577.5C118.58,-577.5 162.36,-577.5 194.96,-577.5"/>
<polygon fill="black" stroke="black" points="195.11,-581 205.11,-577.5 195.11,-574 195.11,-581"/>
</g>
<!-- TaxonName&#45;&gt;AlternateValue -->
<g id="edge2" class="edge">
<title>TaxonName&#45;&gt;AlternateValue</title>
<path fill="none" stroke="black" d="M238.43,-765.75C239.39,-844.63 234.32,-1116.07 127.39,-1301.5 120.24,-1313.89 109.27,-1324.91 98.49,-1333.78"/>
<polygon fill="black" stroke="black" points="96.09,-1331.21 90.36,-1340.12 100.4,-1336.73 96.09,-1331.21"/>
</g>
<!-- TaxonName&#45;&gt;Citation -->
<g id="edge6" class="edge">
<title>TaxonName&#45;&gt;Citation</title>
<path fill="none" stroke="black" d="M230.63,-765.75C202.96,-850.58 104.12,-1153.61 73.68,-1246.94"/>
<polygon fill="black" stroke="black" points="70.33,-1245.94 70.56,-1256.53 76.98,-1248.11 70.33,-1245.94"/>
</g>
<!-- TaxonName&#45;&gt;Confidence -->
<g id="edge10" class="edge">
<title>TaxonName&#45;&gt;Confidence</title>
<path fill="none" stroke="black" d="M191.94,-728.11C166.96,-719.75 136.13,-709.42 111.07,-701.03"/>
<polygon fill="black" stroke="black" points="112.02,-697.66 101.42,-697.8 109.8,-704.29 112.02,-697.66"/>
</g>
<!-- TaxonName&#45;&gt;DataAttribute -->
<g id="edge11" class="edge">
<title>TaxonName&#45;&gt;DataAttribute</title>
<path fill="none" stroke="black" d="M210.74,-764.74C188.97,-781.19 157.22,-803.91 127.39,-820.5 121.88,-823.56 115.96,-826.52 110.03,-829.28"/>
<polygon fill="black" stroke="black" points="108.46,-826.15 100.77,-833.44 111.33,-832.53 108.46,-826.15"/>
</g>
<!-- TaxonName&#45;&gt;Depiction -->
<g id="edge12" class="edge">
<title>TaxonName&#45;&gt;Depiction</title>
<path fill="none" stroke="black" d="M190.21,-728.59C180.74,-724.31 171.29,-719 163.39,-712.5 141.12,-694.17 149.55,-676.97 127.39,-658.5 122.01,-654.01 115.77,-650.16 109.35,-646.89"/>
<polygon fill="black" stroke="black" points="110.45,-643.54 99.91,-642.5 107.5,-649.89 110.45,-643.54"/>
</g>
<!-- TaxonName&#45;&gt;Identifier -->
<g id="edge15" class="edge">
<title>TaxonName&#45;&gt;Identifier</title>
<path fill="none" stroke="black" d="M188.12,-757.87C163.28,-765.04 133.46,-773.65 109.35,-780.61"/>
<polygon fill="black" stroke="black" points="108.38,-777.25 99.74,-783.38 110.32,-783.97 108.38,-777.25"/>
</g>
<!-- TaxonName&#45;&gt;Tag -->
<g id="edge30" class="edge">
<title>TaxonName&#45;&gt;Tag</title>
<path fill="none" stroke="black" d="M187.25,-729.37C178.42,-725.09 169.97,-719.58 163.39,-712.5 128.93,-675.45 161.62,-641.76 127.39,-604.5 119.86,-596.3 109.41,-590.48 99.19,-586.4"/>
<polygon fill="black" stroke="black" points="100.18,-583.04 89.58,-583 97.84,-589.63 100.18,-583.04"/>
</g>
<!-- TaxonName&#45;&gt;Note -->
<g id="edge18" class="edge">
<title>TaxonName&#45;&gt;Note</title>
<path fill="none" stroke="black" d="M175.48,-742.06C150.78,-741.49 123.21,-740.85 101.76,-740.36"/>
<polygon fill="black" stroke="black" points="101.83,-736.86 91.76,-740.12 101.67,-743.86 101.83,-736.86"/>
</g>
<!-- TaxonName&#45;&gt;Otu -->
<g id="edge21" class="edge">
<title>TaxonName&#45;&gt;Otu</title>
<path fill="none" stroke="black" d="M292.87,-730.28C301.27,-725.93 308.96,-720.16 314.39,-712.5 395.25,-598.48 262.69,-193.35 350.39,-84.5 365.59,-65.63 392.36,-58.83 414.45,-56.65"/>
<polygon fill="black" stroke="black" points="414.8,-60.13 424.53,-55.93 414.3,-53.15 414.8,-60.13"/>
</g>
<!-- TaxonName&#45;&gt;Source -->
<g id="edge46" class="edge">
<title>TaxonName&#45;&gt;Source</title>
<path fill="none" stroke="black" stroke-dasharray="1,5" d="M242.9,-775.7C252.78,-874.64 287.22,-1171.75 350.39,-1241.5 369.37,-1262.46 401.89,-1270.15 424.78,-1272.94"/>
<polygon fill="black" stroke="black" points="246.38,-775.3 241.92,-765.69 239.42,-775.99 246.38,-775.3"/>
</g>
<!-- TaxonName&#45;&gt;AncestorHierarchy -->
<g id="edge3" class="edge">
<title>TaxonName&#45;&gt;AncestorHierarchy</title>
<path fill="none" stroke="black" d="M292.32,-756.92C319.51,-763.88 353.07,-772.47 382.3,-779.95"/>
<polygon fill="black" stroke="black" points="381.47,-783.35 392.03,-782.44 383.21,-776.57 381.47,-783.35"/>
</g>
<!-- TaxonName&#45;&gt;Child -->
<g id="edge4" class="edge">
<title>TaxonName&#45;&gt;Child</title>
<path fill="none" stroke="black" d="M302.05,-743.5C338.59,-743.5 383.52,-743.5 414.4,-743.5"/>
<polygon fill="black" stroke="black" points="414.7,-747 424.7,-743.5 414.7,-740 414.7,-747"/>
</g>
<!-- TaxonName&#45;&gt;ClassifiedAsUnavailableOrInvalid -->
<g id="edge7" class="edge">
<title>TaxonName&#45;&gt;ClassifiedAsUnavailableOrInvalid</title>
<path fill="none" stroke="black" d="M292.32,-730.08C315.91,-724.04 344.29,-716.78 370.48,-710.08"/>
<polygon fill="black" stroke="black" points="371.58,-713.41 380.4,-707.54 369.84,-706.63 371.58,-713.41"/>
</g>
<!-- TaxonName&#45;&gt;DescendantHierarchy -->
<g id="edge13" class="edge">
<title>TaxonName&#45;&gt;DescendantHierarchy</title>
<path fill="none" stroke="black" d="M287.39,-728.37C296.88,-724.11 306.38,-718.85 314.39,-712.5 335.84,-695.48 327.86,-678.07 350.39,-662.5 357.92,-657.3 366.41,-653.09 375.18,-649.7"/>
<polygon fill="black" stroke="black" points="376.5,-652.95 384.77,-646.33 374.18,-646.34 376.5,-652.95"/>
</g>
<!-- TaxonName&#45;&gt;HistoricalTaxonName -->
<g id="edge14" class="edge">
<title>TaxonName&#45;&gt;HistoricalTaxonName</title>
<path fill="none" stroke="black" d="M290.47,-729.31C299.3,-725.04 307.77,-719.54 314.39,-712.5 347.9,-676.87 314.6,-641.84 350.39,-608.5 357.14,-602.21 365.19,-597.36 373.75,-593.62"/>
<polygon fill="black" stroke="black" points="375.14,-596.84 383.22,-589.98 372.63,-590.31 375.14,-596.84"/>
</g>
<!-- TaxonName&#45;&gt;ObservationMatrixRowItem -->
<g id="edge20" class="edge">
<title>TaxonName&#45;&gt;ObservationMatrixRowItem</title>
<path fill="none" stroke="black" d="M291.48,-729.69C300.12,-725.39 308.25,-719.78 314.39,-712.5 360.8,-657.43 300.45,-606.4 350.39,-554.5 352.71,-552.09 355.21,-549.89 357.87,-547.88"/>
<polygon fill="black" stroke="black" points="359.8,-550.8 366.26,-542.4 355.97,-544.94 359.8,-550.8"/>
</g>
<!-- TaxonName&#45;&gt;PinboardItem -->
<g id="edge22" class="edge">
<title>TaxonName&#45;&gt;PinboardItem</title>
<path fill="none" stroke="black" d="M292.4,-729.93C300.84,-725.61 308.67,-719.94 314.39,-712.5 387.11,-617.93 260.55,-525 350.39,-446.5 422.03,-383.9 542.88,-422.77 608.21,-451.3"/>
<polygon fill="black" stroke="black" points="606.88,-454.54 617.43,-455.42 609.73,-448.15 606.88,-454.54"/>
</g>
<!-- TaxonName&#45;&gt;RelatedTaxonNameRelationship -->
<g id="edge23" class="edge">
<title>TaxonName&#45;&gt;RelatedTaxonNameRelationship</title>
<path fill="none" stroke="black" d="M292.49,-729.99C300.92,-725.67 308.72,-719.98 314.39,-712.5 395.2,-605.8 265.07,-516.63 350.39,-413.5 352.74,-410.66 355.33,-408.07 358.13,-405.71"/>
<polygon fill="black" stroke="black" points="360.46,-408.35 366.49,-399.64 356.34,-402.69 360.46,-408.35"/>
</g>
<!-- TaxonName&#45;&gt;Role -->
<g id="edge24" class="edge">
<title>TaxonName&#45;&gt;Role</title>
<path fill="none" stroke="black" d="M292.69,-730.14C301.1,-725.81 308.85,-720.07 314.39,-712.5 368.67,-638.34 291.34,-370.93 350.39,-300.5 365.92,-281.98 392.67,-275.44 414.67,-273.42"/>
<polygon fill="black" stroke="black" points="414.95,-276.91 424.7,-272.77 414.5,-269.92 414.95,-276.91"/>
</g>
<!-- TaxonName&#45;&gt;SubsequentCitation -->
<g id="edge28" class="edge">
<title>TaxonName&#45;&gt;SubsequentCitation</title>
<path fill="none" stroke="black" d="M242.2,-765.68C251.25,-848.34 286.95,-1136.94 350.39,-1199.5 354.6,-1203.65 495.03,-1234.45 583.22,-1253.47"/>
<polygon fill="black" stroke="black" points="582.65,-1256.93 593.17,-1255.62 584.13,-1250.09 582.65,-1256.93"/>
</g>
<!-- TaxonName&#45;&gt;TaxonNameAuthorRole -->
<g id="edge32" class="edge">
<title>TaxonName&#45;&gt;TaxonNameAuthorRole</title>
<path fill="none" stroke="black" d="M292.75,-730.19C301.16,-725.85 308.88,-720.1 314.39,-712.5 375.31,-628.38 284.06,-326.42 350.39,-246.5 355.46,-240.39 361.75,-235.58 368.69,-231.81"/>
<polygon fill="black" stroke="black" points="370.21,-234.96 377.79,-227.57 367.25,-228.62 370.21,-234.96"/>
</g>
<!-- TaxonName&#45;&gt;TaxonNameClassification -->
<g id="edge34" class="edge">
<title>TaxonName&#45;&gt;TaxonNameClassification</title>
<path fill="none" stroke="black" d="M292.8,-730.23C301.2,-725.88 308.91,-720.12 314.39,-712.5 381.96,-618.42 276.77,-281.93 350.39,-192.5 354.21,-187.85 358.75,-183.96 363.73,-180.7"/>
<polygon fill="black" stroke="black" points="365.49,-183.73 372.52,-175.79 362.08,-177.61 365.49,-183.73"/>
</g>
<!-- TaxonName&#45;&gt;TaxonNameRelationship -->
<g id="edge35" class="edge">
<title>TaxonName&#45;&gt;TaxonNameRelationship</title>
<path fill="none" stroke="black" d="M292.84,-730.25C301.24,-725.91 308.94,-720.14 314.39,-712.5 388.6,-608.45 269.48,-237.44 350.39,-138.5 354.85,-133.05 360.27,-128.63 366.28,-125.06"/>
<polygon fill="black" stroke="black" points="368.1,-128.06 375.43,-120.41 364.93,-121.82 368.1,-128.06"/>
</g>
<!-- TaxonName&#45;&gt;VerifierRole -->
<g id="edge37" class="edge">
<title>TaxonName&#45;&gt;VerifierRole</title>
<path fill="none" stroke="black" d="M292.61,-730.08C301.03,-725.75 308.8,-720.04 314.39,-712.5 409.68,-584.08 246.85,-476.37 350.39,-354.5 362.73,-339.98 381.96,-332.84 400.31,-329.47"/>
<polygon fill="black" stroke="black" points="400.99,-332.9 410.36,-327.95 399.95,-325.98 400.99,-332.9"/>
</g>
<!-- TaxonName&#45;&gt;Version -->
<g id="edge39" class="edge">
<title>TaxonName&#45;&gt;Version</title>
<path fill="none" stroke="black" d="M291.81,-729.96C300.42,-725.63 308.46,-719.95 314.39,-712.5 373.91,-637.73 286.07,-571.19 350.39,-500.5 366.06,-483.27 391.43,-476.55 412.76,-474.12"/>
<polygon fill="black" stroke="black" points="413.19,-477.6 422.85,-473.24 412.58,-470.62 413.19,-477.6"/>
</g>
<!-- TaxonName&#45;&gt;Creator -->
<g id="edge40" class="edge">
<title>TaxonName&#45;&gt;Creator</title>
<path fill="none" stroke="black" stroke-dasharray="5,2" d="M270.96,-772.21C291.9,-789.98 320.97,-811.76 350.39,-824.5 434.61,-860.99 475.58,-813.81 553.39,-862.5 599.38,-891.28 631.33,-949.5 645.36,-979.19"/>
<polygon fill="black" stroke="black" points="273.21,-769.52 263.36,-765.63 268.63,-774.82 273.21,-769.52"/>
</g>
<!-- TaxonName&#45;&gt;Parent -->
<g id="edge41" class="edge">
<title>TaxonName&#45;&gt;Parent</title>
<path fill="none" stroke="black" stroke-dasharray="5,2" d="M240.85,-775.92C244.62,-842.61 262.91,-995.8 350.39,-1078.5 370.34,-1097.37 402.03,-1103.35 424.49,-1105.09"/>
<polygon fill="black" stroke="black" points="244.33,-775.43 240.34,-765.62 237.33,-775.78 244.33,-775.43"/>
</g>
<!-- TaxonName&#45;&gt;Project -->
<g id="edge42" class="edge">
<title>TaxonName&#45;&gt;Project</title>
<path fill="none" stroke="black" stroke-dasharray="5,2" d="M246.54,-775.53C258.5,-824.92 288.38,-919.31 350.39,-970.5 371.29,-987.75 402.2,-994.06 424.22,-996.32"/>
<polygon fill="black" stroke="black" points="249.93,-774.65 244.26,-765.7 243.11,-776.23 249.93,-774.65"/>
</g>
<!-- TaxonName&#45;&gt;Updater -->
<g id="edge43" class="edge">
<title>TaxonName&#45;&gt;Updater</title>
<path fill="none" stroke="black" stroke-dasharray="5,2" d="M244.09,-775.81C255.9,-861.09 292.37,-1088.67 350.39,-1132.5 422.38,-1186.89 465.76,-1153.97 553.39,-1132.5 646.47,-1109.7 743.28,-1046.98 787.58,-1015.72"/>
<polygon fill="black" stroke="black" points="247.52,-775.11 242.71,-765.68 240.59,-776.06 247.52,-775.11"/>
</g>
<!-- TaxonName&#45;&gt;ValidTaxonName -->
<g id="edge44" class="edge">
<title>TaxonName&#45;&gt;ValidTaxonName</title>
<path fill="none" stroke="black" stroke-dasharray="5,2" d="M243.19,-775.65C250.94,-834.06 275.69,-957.75 350.39,-1024.5 362.78,-1035.58 379.25,-1042.18 395.26,-1046.09"/>
<polygon fill="black" stroke="black" points="246.64,-775.02 241.93,-765.53 239.69,-775.88 246.64,-775.02"/>
</g>
<!-- TaxonName&#45;&gt;OriginCitation -->
<g id="edge45" class="edge">
<title>TaxonName&#45;&gt;OriginCitation</title>
<path fill="none" stroke="black" stroke-dasharray="1,5" d="M243.72,-775.62C255.04,-864.89 291.3,-1112.85 350.39,-1165.5 387.38,-1198.46 531.29,-1206.22 606.7,-1208"/>
<polygon fill="black" stroke="black" points="247.17,-775.03 242.46,-765.55 240.23,-775.9 247.17,-775.03"/>
</g>
<!-- TaxonName&#45;&gt;SourceClassifiedA -->
<g id="edge47" class="edge">
<title>TaxonName&#45;&gt;SourceClassifiedA</title>
<path fill="none" stroke="black" stroke-dasharray="1,5" d="M251.56,-774.87C267.73,-813.98 300.7,-880.09 350.39,-916.5 362.92,-925.68 378.38,-931.74 393.37,-935.74"/>
<polygon fill="black" stroke="black" points="254.79,-773.52 247.81,-765.55 248.3,-776.13 254.79,-773.52"/>
</g>
<!-- TaxonName&#45;&gt;SourceClassifiedAsRelationship -->
<g id="edge48" class="edge">
<title>TaxonName&#45;&gt;SourceClassifiedAsRelationship</title>
<path fill="none" stroke="black" stroke-dasharray="1,5" d="M261.95,-773.48C282.28,-799.15 314.66,-835.36 350.39,-857.5 359.18,-862.95 368.99,-867.55 378.94,-871.41"/>
<polygon fill="black" stroke="black" points="264.68,-771.3 255.78,-765.55 259.16,-775.59 264.68,-771.3"/>
</g>
<!-- Otu&#45;&gt;TaxonDetermination -->
<g id="edge31" class="edge">
<title>Otu&#45;&gt;TaxonDetermination</title>
<path fill="none" stroke="black" d="M479.1,-56.5C504.41,-56.5 543.95,-56.5 578.98,-56.5"/>
<polygon fill="black" stroke="black" points="579.2,-60 589.2,-56.5 579.2,-53 579.2,-60"/>
</g>
<!-- Source&#45;&gt;SubsequentCitation -->
<!-- Source&#45;&gt;OriginCitation -->
<!-- AncestorHierarchy&#45;&gt;SelfAndAncestor -->
<g id="edge25" class="edge">
<title>AncestorHierarchy&#45;&gt;SelfAndAncestor</title>
<path fill="none" stroke="black" d="M511.42,-797.5C535.8,-797.5 564.19,-797.5 589.15,-797.5"/>
<polygon fill="black" stroke="black" points="589.25,-801 599.25,-797.5 589.25,-794 589.25,-801"/>
</g>
<!-- CitationTopic&#45;&gt;Topic -->
<g id="edge36" class="edge">
<title>CitationTopic&#45;&gt;Topic</title>
<path fill="none" stroke="black" d="M284.89,-1329.5C323.67,-1329.5 378.91,-1329.5 414.83,-1329.5"/>
<polygon fill="black" stroke="black" points="414.87,-1333 424.87,-1329.5 414.87,-1326 414.87,-1333"/>
</g>
<!-- TaxonDetermination&#45;&gt;CollectionObject -->
<g id="edge8" class="edge">
<title>TaxonDetermination&#45;&gt;CollectionObject</title>
<path fill="none" stroke="black" d="M719.7,-56.5C729.15,-56.5 738.89,-56.5 748.34,-56.5"/>
<polygon fill="black" stroke="black" points="748.45,-60 758.45,-56.5 748.45,-53 748.45,-60"/>
</g>
<!-- DescendantHierarchy&#45;&gt;SelfAndDescendant -->
<g id="edge26" class="edge">
<title>DescendantHierarchy&#45;&gt;SelfAndDescendant</title>
<path fill="none" stroke="black" d="M519.1,-635.5C539.1,-635.5 561.15,-635.5 581.51,-635.5"/>
<polygon fill="black" stroke="black" points="581.66,-639 591.66,-635.5 581.66,-632 581.66,-639"/>
</g>
<!-- ObservationMatrixRowItem&#45;&gt;ObservationMatrix -->
<g id="edge19" class="edge">
<title>ObservationMatrixRowItem&#45;&gt;ObservationMatrix</title>
<path fill="none" stroke="black" d="M537.63,-527.5C553.09,-527.5 569.05,-527.5 583.99,-527.5"/>
<polygon fill="black" stroke="black" points="584.16,-531 594.16,-527.5 584.16,-524 584.16,-531"/>
</g>
<!-- Role&#45;&gt;Verifier -->
<!-- SubsequentCitation&#45;&gt;SubsequentSource -->
<g id="edge29" class="edge">
<title>SubsequentCitation&#45;&gt;SubsequentSource</title>
<path fill="none" stroke="black" d="M715.64,-1268.5C725.27,-1268.5 735.28,-1268.5 745.06,-1268.5"/>
<polygon fill="black" stroke="black" points="745.14,-1272 755.14,-1268.5 745.14,-1265 745.14,-1272"/>
</g>
<!-- TaxonNameAuthorRole&#45;&gt;TaxonNameAuthor -->
<g id="edge33" class="edge">
<title>TaxonNameAuthorRole&#45;&gt;TaxonNameAuthor</title>
<path fill="none" stroke="black" d="M526.12,-219.5C544.72,-219.5 564.65,-219.5 583.1,-219.5"/>
<polygon fill="black" stroke="black" points="583.17,-223 593.17,-219.5 583.17,-216 583.17,-223"/>
</g>
<!-- VerifierRole&#45;&gt;Verifier -->
<g id="edge38" class="edge">
<title>VerifierRole&#45;&gt;Verifier</title>
<path fill="none" stroke="black" d="M493.46,-322.04C529.14,-317.23 580.66,-310.29 615.5,-305.6"/>
<polygon fill="black" stroke="black" points="616.3,-309.03 625.75,-304.22 615.37,-302.09 616.3,-309.03"/>
</g>
<!-- Version&#45;&gt;PinboardItem -->
<!-- Creator&#45;&gt;Updater -->
<!-- Project&#45;&gt;Creator -->
<!-- AlternateValue -->
<g id="node1" class="node">
<title>AlternateValue</title>
<g id="a_node1"><a xlink:href="/develop/Data/models.html#alternate-value" xlink:title="AlternateValue" target="_top">
<ellipse fill="#abcdef" stroke="#dddeee" cx="63.69" cy="-1356.5" rx="63.89" ry="18"/>
<text text-anchor="middle" x="63.69" y="-1352.8" font-family="Times,serif" font-size="14.00">AlternateValue</text>
</a>
</g>
</g>
<!-- Citation -->
<g id="node2" class="node">
<title>Citation</title>
<g id="a_node2"><a xlink:href="/develop/Data/models.html#citation" xlink:title="Citation" target="_top">
<ellipse fill="#abcdef" stroke="#dddeee" cx="63.69" cy="-1274.5" rx="38.99" ry="18"/>
<text text-anchor="middle" x="63.69" y="-1270.8" font-family="Times,serif" font-size="14.00">Citation</text>
</a>
</g>
</g>
<!-- Confidence -->
<g id="node3" class="node">
<title>Confidence</title>
<g id="a_node3"><a xlink:href="/develop/Data/models.html#confidence" xlink:title="Confidence" target="_top">
<ellipse fill="#abcdef" stroke="#dddeee" cx="63.69" cy="-685.5" rx="50.89" ry="18"/>
<text text-anchor="middle" x="63.69" y="-681.8" font-family="Times,serif" font-size="14.00">Confidence</text>
</a>
</g>
</g>
<!-- DataAttribute -->
<g id="node4" class="node">
<title>DataAttribute</title>
<g id="a_node4"><a xlink:href="/develop/Data/models.html#data-attribute" xlink:title="DataAttribute" target="_top">
<ellipse fill="#abcdef" stroke="#dddeee" cx="63.69" cy="-847.5" rx="59.29" ry="18"/>
<text text-anchor="middle" x="63.69" y="-843.8" font-family="Times,serif" font-size="14.00">DataAttribute</text>
</a>
</g>
</g>
<!-- Depiction -->
<g id="node5" class="node">
<title>Depiction</title>
<g id="a_node5"><a xlink:href="/develop/Data/models.html#depiction" xlink:title="Depiction" target="_top">
<ellipse fill="#abcdef" stroke="#dddeee" cx="63.69" cy="-631.5" rx="45.49" ry="18"/>
<text text-anchor="middle" x="63.69" y="-627.8" font-family="Times,serif" font-size="14.00">Depiction</text>
</a>
</g>
</g>
<!-- Identifier -->
<g id="node6" class="node">
<title>Identifier</title>
<g id="a_node6"><a xlink:href="/develop/Data/models.html#identifier" xlink:title="Identifier" target="_top">
<ellipse fill="#abcdef" stroke="#dddeee" cx="63.69" cy="-793.5" rx="42.79" ry="18"/>
<text text-anchor="middle" x="63.69" y="-789.8" font-family="Times,serif" font-size="14.00">Identifier</text>
</a>
</g>
</g>
<!-- Tag -->
<g id="node7" class="node">
<title>Tag</title>
<g id="a_node7"><a xlink:href="/develop/Data/models.html#tag" xlink:title="Tag" target="_top">
<ellipse fill="#abcdef" stroke="#dddeee" cx="63.69" cy="-577.5" rx="27" ry="18"/>
<text text-anchor="middle" x="63.69" y="-573.8" font-family="Times,serif" font-size="14.00">Tag</text>
</a>
</g>
</g>
<!-- Note -->
<g id="node8" class="node">
<title>Note</title>
<g id="a_node8"><a xlink:href="/develop/Data/models.html#note" xlink:title="Note" target="_top">
<ellipse fill="#abcdef" stroke="#dddeee" cx="63.69" cy="-739.5" rx="27.9" ry="18"/>
<text text-anchor="middle" x="63.69" y="-735.8" font-family="Times,serif" font-size="14.00">Note</text>
</a>
</g>
</g>
<!-- TaxonName -->
<g id="node9" class="node">
<title>TaxonName</title>
<g id="a_node9"><a xlink:href="/develop/Data/models.html#taxon-name" xlink:title="TaxonName" target="_top">
<polygon fill="#cdefab" stroke="#dedede" points="298.07,-736.04 298.07,-750.96 263.4,-761.5 214.38,-761.5 179.71,-750.96 179.71,-736.04 214.38,-725.5 263.4,-725.5 298.07,-736.04"/>
<polygon fill="none" stroke="#dedede" points="302.08,-733.08 302.08,-753.92 264,-765.5 213.78,-765.5 175.7,-753.92 175.7,-733.08 213.78,-721.5 264,-721.5 302.08,-733.08"/>
<text text-anchor="middle" x="238.89" y="-739.8" font-family="Times,serif" font-size="14.00">TaxonName</text>
</a>
</g>
</g>
<!-- CollectionObject -->
<g id="node10" class="node">
<title>CollectionObject</title>
<g id="a_node10"><a xlink:href="/develop/Data/models.html#collection-object" xlink:title="CollectionObject" target="_top">
<path fill="#fedcba" stroke="#dddeee" d="M770.89,-38.5C770.89,-38.5 855.89,-38.5 855.89,-38.5 861.89,-38.5 867.89,-44.5 867.89,-50.5 867.89,-50.5 867.89,-62.5 867.89,-62.5 867.89,-68.5 861.89,-74.5 855.89,-74.5 855.89,-74.5 770.89,-74.5 770.89,-74.5 764.89,-74.5 758.89,-68.5 758.89,-62.5 758.89,-62.5 758.89,-50.5 758.89,-50.5 758.89,-44.5 764.89,-38.5 770.89,-38.5"/>
<text text-anchor="middle" x="813.39" y="-52.8" font-family="Times,serif" font-size="14.00">CollectionObject</text>
</a>
</g>
</g>
<!-- Otu -->
<g id="node11" class="node">
<title>Otu</title>
<g id="a_node11"><a xlink:href="/develop/Data/models.html#otu" xlink:title="Otu" target="_top">
<path fill="#fedcba" stroke="#dddeee" d="M436.89,-38.5C436.89,-38.5 466.89,-38.5 466.89,-38.5 472.89,-38.5 478.89,-44.5 478.89,-50.5 478.89,-50.5 478.89,-62.5 478.89,-62.5 478.89,-68.5 472.89,-74.5 466.89,-74.5 466.89,-74.5 436.89,-74.5 436.89,-74.5 430.89,-74.5 424.89,-68.5 424.89,-62.5 424.89,-62.5 424.89,-50.5 424.89,-50.5 424.89,-44.5 430.89,-38.5 436.89,-38.5"/>
<text text-anchor="middle" x="451.89" y="-52.8" font-family="Times,serif" font-size="14.00">Otu</text>
</a>
</g>
</g>
<!-- Source -->
<g id="node12" class="node">
<title>Source</title>
<g id="a_node12"><a xlink:href="/develop/Data/models.html#source" xlink:title="Source" target="_top">
<path fill="#fedcba" stroke="#dddeee" d="M436.89,-1256.5C436.89,-1256.5 466.89,-1256.5 466.89,-1256.5 472.89,-1256.5 478.89,-1262.5 478.89,-1268.5 478.89,-1268.5 478.89,-1280.5 478.89,-1280.5 478.89,-1286.5 472.89,-1292.5 466.89,-1292.5 466.89,-1292.5 436.89,-1292.5 436.89,-1292.5 430.89,-1292.5 424.89,-1286.5 424.89,-1280.5 424.89,-1280.5 424.89,-1268.5 424.89,-1268.5 424.89,-1262.5 430.89,-1256.5 436.89,-1256.5"/>
<text text-anchor="middle" x="451.89" y="-1270.8" font-family="Times,serif" font-size="14.00">Source</text>
</a>
</g>
</g>
<!-- AlternateValueLanguage -->
<g id="node13" class="node">
<title>AlternateValueLanguage</title>
<g id="a_node13"><a xlink:href="/develop/Data/models.html#alternate-value-language" xlink:title="AlternateValueLanguage" target="_top">
<polygon fill="#eeefff" stroke="#dddeee" points="314.39,-1401.5 163.39,-1401.5 163.39,-1365.5 314.39,-1365.5 314.39,-1401.5"/>
<text text-anchor="middle" x="238.89" y="-1379.8" font-family="Times,serif" font-size="14.00">AlternateValueLanguage</text>
</a>
</g>
</g>
<!-- AncestorHierarchy -->
<g id="node14" class="node">
<title>AncestorHierarchy</title>
<g id="a_node14"><a xlink:href="/develop/Data/models.html#ancestor-hierarchy" xlink:title="AncestorHierarchy" target="_top">
<polygon fill="#eeefff" stroke="#dddeee" points="511.39,-815.5 392.39,-815.5 392.39,-779.5 511.39,-779.5 511.39,-815.5"/>
<text text-anchor="middle" x="451.89" y="-793.8" font-family="Times,serif" font-size="14.00">AncestorHierarchy</text>
</a>
</g>
</g>
<!-- Child -->
<g id="node15" class="node">
<title>Child</title>
<g id="a_node15"><a xlink:href="/develop/Data/models.html#child" xlink:title="Child" target="_top">
<polygon fill="#eeefff" stroke="#dddeee" points="478.89,-761.5 424.89,-761.5 424.89,-725.5 478.89,-725.5 478.89,-761.5"/>
<text text-anchor="middle" x="451.89" y="-739.8" font-family="Times,serif" font-size="14.00">Child</text>
</a>
</g>
</g>
<!-- CitationTopic -->
<g id="node16" class="node">
<title>CitationTopic</title>
<g id="a_node16"><a xlink:href="/develop/Data/models.html#citation-topic" xlink:title="CitationTopic" target="_top">
<polygon fill="#eeefff" stroke="#dddeee" points="284.89,-1347.5 192.89,-1347.5 192.89,-1311.5 284.89,-1311.5 284.89,-1347.5"/>
<text text-anchor="middle" x="238.89" y="-1325.8" font-family="Times,serif" font-size="14.00">CitationTopic</text>
</a>
</g>
</g>
<!-- ClassifiedAsUnavailableOrInvalid -->
<g id="node17" class="node">
<title>ClassifiedAsUnavailableOrInvalid</title>
<g id="a_node17"><a xlink:href="/develop/Data/models.html#classified-as-unavailable-or-invalid" xlink:title="ClassifiedAsUnavailableOrInvalid" target="_top">
<polygon fill="#eeefff" stroke="#dddeee" points="553.39,-707.5 350.39,-707.5 350.39,-671.5 553.39,-671.5 553.39,-707.5"/>
<text text-anchor="middle" x="451.89" y="-685.8" font-family="Times,serif" font-size="14.00">ClassifiedAsUnavailableOrInvalid</text>
</a>
</g>
</g>
<!-- TaxonDetermination -->
<g id="node18" class="node">
<title>TaxonDetermination</title>
<g id="a_node18"><a xlink:href="/develop/Data/models.html#taxon-determination" xlink:title="TaxonDetermination" target="_top">
<polygon fill="#eeefff" stroke="#dddeee" points="719.39,-74.5 589.39,-74.5 589.39,-38.5 719.39,-38.5 719.39,-74.5"/>
<text text-anchor="middle" x="654.39" y="-52.8" font-family="Times,serif" font-size="14.00">TaxonDetermination</text>
</a>
</g>
</g>
<!-- ConfidenceLevel -->
<g id="node19" class="node">
<title>ConfidenceLevel</title>
<g id="a_node19"><a xlink:href="/develop/Data/models.html#confidence-level" xlink:title="ConfidenceLevel" target="_top">
<polygon fill="#eeefff" stroke="#dddeee" points="293.39,-703.5 184.39,-703.5 184.39,-667.5 293.39,-667.5 293.39,-703.5"/>
<text text-anchor="middle" x="238.89" y="-681.8" font-family="Times,serif" font-size="14.00">ConfidenceLevel</text>
</a>
</g>
</g>
<!-- DescendantHierarchy -->
<g id="node20" class="node">
<title>DescendantHierarchy</title>
<g id="a_node20"><a xlink:href="/develop/Data/models.html#descendant-hierarchy" xlink:title="DescendantHierarchy" target="_top">
<polygon fill="#eeefff" stroke="#dddeee" points="518.89,-653.5 384.89,-653.5 384.89,-617.5 518.89,-617.5 518.89,-653.5"/>
<text text-anchor="middle" x="451.89" y="-631.8" font-family="Times,serif" font-size="14.00">DescendantHierarchy</text>
</a>
</g>
</g>
<!-- HistoricalTaxonName -->
<g id="node21" class="node">
<title>HistoricalTaxonName</title>
<g id="a_node21"><a xlink:href="/develop/Data/models.html#historical-taxon-name" xlink:title="HistoricalTaxonName" target="_top">
<polygon fill="#eeefff" stroke="#dddeee" points="520.39,-599.5 383.39,-599.5 383.39,-563.5 520.39,-563.5 520.39,-599.5"/>
<text text-anchor="middle" x="451.89" y="-577.8" font-family="Times,serif" font-size="14.00">HistoricalTaxonName</text>
</a>
</g>
</g>
<!-- Image -->
<g id="node22" class="node">
<title>Image</title>
<g id="a_node22"><a xlink:href="/develop/Data/models.html#image" xlink:title="Image" target="_top">
<polygon fill="#eeefff" stroke="#dddeee" points="265.89,-649.5 211.89,-649.5 211.89,-613.5 265.89,-613.5 265.89,-649.5"/>
<text text-anchor="middle" x="238.89" y="-627.8" font-family="Times,serif" font-size="14.00">Image</text>
</a>
</g>
</g>
<!-- Keyword -->
<g id="node23" class="node">
<title>Keyword</title>
<g id="a_node23"><a xlink:href="/develop/Data/models.html#keyword" xlink:title="Keyword" target="_top">
<polygon fill="#eeefff" stroke="#dddeee" points="272.39,-595.5 205.39,-595.5 205.39,-559.5 272.39,-559.5 272.39,-595.5"/>
<text text-anchor="middle" x="238.89" y="-573.8" font-family="Times,serif" font-size="14.00">Keyword</text>
</a>
</g>
</g>
<!-- ObservationMatrixRowItem -->
<g id="node24" class="node">
<title>ObservationMatrixRowItem</title>
<g id="a_node24"><a xlink:href="/develop/Data/models.html#observation-matrix-row-item" xlink:title="ObservationMatrixRowItem" target="_top">
<polygon fill="#eeefff" stroke="#dddeee" points="537.39,-545.5 366.39,-545.5 366.39,-509.5 537.39,-509.5 537.39,-545.5"/>
<text text-anchor="middle" x="451.89" y="-523.8" font-family="Times,serif" font-size="14.00">ObservationMatrixRowItem</text>
</a>
</g>
</g>
<!-- ObservationMatrix -->
<g id="node25" class="node">
<title>ObservationMatrix</title>
<g id="a_node25"><a xlink:href="/develop/Data/models.html#observation-matrix" xlink:title="ObservationMatrix" target="_top">
<polygon fill="#eeefff" stroke="#dddeee" points="714.39,-545.5 594.39,-545.5 594.39,-509.5 714.39,-509.5 714.39,-545.5"/>
<text text-anchor="middle" x="654.39" y="-523.8" font-family="Times,serif" font-size="14.00">ObservationMatrix</text>
</a>
</g>
</g>
<!-- PinboardItem -->
<g id="node26" class="node">
<title>PinboardItem</title>
<g id="a_node26"><a xlink:href="/develop/Data/models.html#pinboard-item" xlink:title="PinboardItem" target="_top">
<polygon fill="#eeefff" stroke="#dddeee" points="699.89,-491.5 608.89,-491.5 608.89,-455.5 699.89,-455.5 699.89,-491.5"/>
<text text-anchor="middle" x="654.39" y="-469.8" font-family="Times,serif" font-size="14.00">PinboardItem</text>
</a>
</g>
</g>
<!-- RelatedTaxonNameRelationship -->
<g id="node27" class="node">
<title>RelatedTaxonNameRelationship</title>
<g id="a_node27"><a xlink:href="/develop/Data/models.html#related-taxon-name-relationship" xlink:title="RelatedTaxonNameRelationship" target="_top">
<polygon fill="#eeefff" stroke="#dddeee" points="548.89,-399.5 354.89,-399.5 354.89,-363.5 548.89,-363.5 548.89,-399.5"/>
<text text-anchor="middle" x="451.89" y="-377.8" font-family="Times,serif" font-size="14.00">RelatedTaxonNameRelationship</text>
</a>
</g>
</g>
<!-- Role -->
<g id="node28" class="node">
<title>Role</title>
<g id="a_node28"><a xlink:href="/develop/Data/models.html#role" xlink:title="Role" target="_top">
<polygon fill="#eeefff" stroke="#dddeee" points="478.89,-291.5 424.89,-291.5 424.89,-255.5 478.89,-255.5 478.89,-291.5"/>
<text text-anchor="middle" x="451.89" y="-269.8" font-family="Times,serif" font-size="14.00">Role</text>
</a>
</g>
</g>
<!-- SelfAndAncestor -->
<g id="node29" class="node">
<title>SelfAndAncestor</title>
<g id="a_node29"><a xlink:href="/develop/Data/models.html#self-and-ancestor" xlink:title="SelfAndAncestor" target="_top">
<polygon fill="#eeefff" stroke="#dddeee" points="709.39,-815.5 599.39,-815.5 599.39,-779.5 709.39,-779.5 709.39,-815.5"/>
<text text-anchor="middle" x="654.39" y="-793.8" font-family="Times,serif" font-size="14.00">SelfAndAncestor</text>
</a>
</g>
</g>
<!-- SelfAndDescendant -->
<g id="node30" class="node">
<title>SelfAndDescendant</title>
<g id="a_node30"><a xlink:href="/develop/Data/models.html#self-and-descendant" xlink:title="SelfAndDescendant" target="_top">
<polygon fill="#eeefff" stroke="#dddeee" points="716.89,-653.5 591.89,-653.5 591.89,-617.5 716.89,-617.5 716.89,-653.5"/>
<text text-anchor="middle" x="654.39" y="-631.8" font-family="Times,serif" font-size="14.00">SelfAndDescendant</text>
</a>
</g>
</g>
<!-- SubsequentCitation -->
<g id="node31" class="node">
<title>SubsequentCitation</title>
<g id="a_node31"><a xlink:href="/develop/Data/models.html#subsequent-citation" xlink:title="SubsequentCitation" target="_top">
<polygon fill="#eeefff" stroke="#dddeee" points="715.39,-1286.5 593.39,-1286.5 593.39,-1250.5 715.39,-1250.5 715.39,-1286.5"/>
<text text-anchor="middle" x="654.39" y="-1264.8" font-family="Times,serif" font-size="14.00">SubsequentCitation</text>
</a>
</g>
</g>
<!-- SubsequentSource -->
<g id="node32" class="node">
<title>SubsequentSource</title>
<g id="a_node32"><a xlink:href="/develop/Data/models.html#subsequent-source" xlink:title="SubsequentSource" target="_top">
<polygon fill="#eeefff" stroke="#dddeee" points="871.39,-1286.5 755.39,-1286.5 755.39,-1250.5 871.39,-1250.5 871.39,-1286.5"/>
<text text-anchor="middle" x="813.39" y="-1264.8" font-family="Times,serif" font-size="14.00">SubsequentSource</text>
</a>
</g>
</g>
<!-- TaxonNameAuthorRole -->
<g id="node33" class="node">
<title>TaxonNameAuthorRole</title>
<g id="a_node33"><a xlink:href="/develop/Data/models.html#taxon-name-author-role" xlink:title="TaxonNameAuthorRole" target="_top">
<polygon fill="#eeefff" stroke="#dddeee" points="525.89,-237.5 377.89,-237.5 377.89,-201.5 525.89,-201.5 525.89,-237.5"/>
<text text-anchor="middle" x="451.89" y="-215.8" font-family="Times,serif" font-size="14.00">TaxonNameAuthorRole</text>
</a>
</g>
</g>
<!-- TaxonNameAuthor -->
<g id="node34" class="node">
<title>TaxonNameAuthor</title>
<g id="a_node34"><a xlink:href="/develop/Data/models.html#taxon-name-author" xlink:title="TaxonNameAuthor" target="_top">
<polygon fill="#eeefff" stroke="#dddeee" points="715.39,-237.5 593.39,-237.5 593.39,-201.5 715.39,-201.5 715.39,-237.5"/>
<text text-anchor="middle" x="654.39" y="-215.8" font-family="Times,serif" font-size="14.00">TaxonNameAuthor</text>
</a>
</g>
</g>
<!-- TaxonNameClassification -->
<g id="node35" class="node">
<title>TaxonNameClassification</title>
<g id="a_node35"><a xlink:href="/develop/Data/models.html#taxon-name-classification" xlink:title="TaxonNameClassification" target="_top">
<polygon fill="#eeefff" stroke="#dddeee" points="530.89,-183.5 372.89,-183.5 372.89,-147.5 530.89,-147.5 530.89,-183.5"/>
<text text-anchor="middle" x="451.89" y="-161.8" font-family="Times,serif" font-size="14.00">TaxonNameClassification</text>
</a>
</g>
</g>
<!-- TaxonNameRelationship -->
<g id="node36" class="node">
<title>TaxonNameRelationship</title>
<g id="a_node36"><a xlink:href="/develop/Data/models.html#taxon-name-relationship" xlink:title="TaxonNameRelationship" target="_top">
<polygon fill="#eeefff" stroke="#dddeee" points="527.89,-129.5 375.89,-129.5 375.89,-93.5 527.89,-93.5 527.89,-129.5"/>
<text text-anchor="middle" x="451.89" y="-107.8" font-family="Times,serif" font-size="14.00">TaxonNameRelationship</text>
</a>
</g>
</g>
<!-- Topic -->
<g id="node37" class="node">
<title>Topic</title>
<g id="a_node37"><a xlink:href="/develop/Data/models.html#topic" xlink:title="Topic" target="_top">
<polygon fill="#eeefff" stroke="#dddeee" points="478.89,-1347.5 424.89,-1347.5 424.89,-1311.5 478.89,-1311.5 478.89,-1347.5"/>
<text text-anchor="middle" x="451.89" y="-1325.8" font-family="Times,serif" font-size="14.00">Topic</text>
</a>
</g>
</g>
<!-- VerifierRole -->
<g id="node38" class="node">
<title>VerifierRole</title>
<g id="a_node38"><a xlink:href="/develop/Data/models.html#verifier-role" xlink:title="VerifierRole" target="_top">
<polygon fill="#eeefff" stroke="#dddeee" points="493.39,-345.5 410.39,-345.5 410.39,-309.5 493.39,-309.5 493.39,-345.5"/>
<text text-anchor="middle" x="451.89" y="-323.8" font-family="Times,serif" font-size="14.00">VerifierRole</text>
</a>
</g>
</g>
<!-- Verifier -->
<g id="node39" class="node">
<title>Verifier</title>
<g id="a_node39"><a xlink:href="/develop/Data/models.html#verifier" xlink:title="Verifier" target="_top">
<polygon fill="#eeefff" stroke="#dddeee" points="682.89,-318.5 625.89,-318.5 625.89,-282.5 682.89,-282.5 682.89,-318.5"/>
<text text-anchor="middle" x="654.39" y="-296.8" font-family="Times,serif" font-size="14.00">Verifier</text>
</a>
</g>
</g>
<!-- Version -->
<g id="node40" class="node">
<title>Version</title>
<g id="a_node40"><a xlink:href="/develop/Data/models.html#version" xlink:title="Version" target="_top">
<polygon fill="#eeefff" stroke="#dddeee" points="480.89,-491.5 422.89,-491.5 422.89,-455.5 480.89,-455.5 480.89,-491.5"/>
<text text-anchor="middle" x="451.89" y="-469.8" font-family="Times,serif" font-size="14.00">Version</text>
</a>
</g>
</g>
<!-- Creator -->
<g id="node41" class="node">
<title>Creator</title>
<g id="a_node41"><a xlink:href="/develop/Data/models.html#creator" xlink:title="Creator" target="_top">
<polygon fill="#eeefff" stroke="#dddeee" points="682.89,-1015.5 625.89,-1015.5 625.89,-979.5 682.89,-979.5 682.89,-1015.5"/>
<text text-anchor="middle" x="654.39" y="-993.8" font-family="Times,serif" font-size="14.00">Creator</text>
</a>
</g>
</g>
<!-- Parent -->
<g id="node42" class="node">
<title>Parent</title>
<g id="a_node42"><a xlink:href="/develop/Data/models.html#parent" xlink:title="Parent" target="_top">
<polygon fill="#eeefff" stroke="#dddeee" points="478.89,-1123.5 424.89,-1123.5 424.89,-1087.5 478.89,-1087.5 478.89,-1123.5"/>
<text text-anchor="middle" x="451.89" y="-1101.8" font-family="Times,serif" font-size="14.00">Parent</text>
</a>
</g>
</g>
<!-- Project -->
<g id="node43" class="node">
<title>Project</title>
<g id="a_node43"><a xlink:href="/develop/Data/models.html#project" xlink:title="Project" target="_top">
<polygon fill="#eeefff" stroke="#dddeee" points="479.39,-1015.5 424.39,-1015.5 424.39,-979.5 479.39,-979.5 479.39,-1015.5"/>
<text text-anchor="middle" x="451.89" y="-993.8" font-family="Times,serif" font-size="14.00">Project</text>
</a>
</g>
</g>
<!-- Updater -->
<g id="node44" class="node">
<title>Updater</title>
<g id="a_node44"><a xlink:href="/develop/Data/models.html#updater" xlink:title="Updater" target="_top">
<polygon fill="#eeefff" stroke="#dddeee" points="843.39,-1015.5 783.39,-1015.5 783.39,-979.5 843.39,-979.5 843.39,-1015.5"/>
<text text-anchor="middle" x="813.39" y="-993.8" font-family="Times,serif" font-size="14.00">Updater</text>
</a>
</g>
</g>
<!-- ValidTaxonName -->
<g id="node45" class="node">
<title>ValidTaxonName</title>
<g id="a_node45"><a xlink:href="/develop/Data/models.html#valid-taxon-name" xlink:title="ValidTaxonName" target="_top">
<polygon fill="#eeefff" stroke="#dddeee" points="508.39,-1069.5 395.39,-1069.5 395.39,-1033.5 508.39,-1033.5 508.39,-1069.5"/>
<text text-anchor="middle" x="451.89" y="-1047.8" font-family="Times,serif" font-size="14.00">ValidTaxonName</text>
</a>
</g>
</g>
<!-- OriginCitation -->
<g id="node46" class="node">
<title>OriginCitation</title>
<g id="a_node46"><a xlink:href="/develop/Data/models.html#origin-citation" xlink:title="OriginCitation" target="_top">
<polygon fill="#eeefff" stroke="#dddeee" points="701.89,-1226.5 606.89,-1226.5 606.89,-1190.5 701.89,-1190.5 701.89,-1226.5"/>
<text text-anchor="middle" x="654.39" y="-1204.8" font-family="Times,serif" font-size="14.00">OriginCitation</text>
</a>
</g>
</g>
<!-- SourceClassifiedA -->
<g id="node47" class="node">
<title>SourceClassifiedA</title>
<g id="a_node47"><a xlink:href="/develop/Data/models.html#source-classified-a" xlink:title="SourceClassifiedA" target="_top">
<polygon fill="#eeefff" stroke="#dddeee" points="510.39,-961.5 393.39,-961.5 393.39,-925.5 510.39,-925.5 510.39,-961.5"/>
<text text-anchor="middle" x="451.89" y="-939.8" font-family="Times,serif" font-size="14.00">SourceClassifiedA</text>
</a>
</g>
</g>
<!-- SourceClassifiedAsRelationship -->
<g id="node48" class="node">
<title>SourceClassifiedAsRelationship</title>
<g id="a_node48"><a xlink:href="/develop/Data/models.html#source-classified-as-relationship" xlink:title="SourceClassifiedAsRelationship" target="_top">
<polygon fill="#eeefff" stroke="#dddeee" points="547.39,-907.5 356.39,-907.5 356.39,-871.5 547.39,-871.5 547.39,-907.5"/>
<text text-anchor="middle" x="451.89" y="-885.8" font-family="Times,serif" font-size="14.00">SourceClassifiedAsRelationship</text>
</a>
</g>
</g>
</g>
</svg>
