<?xml version="1.0" encoding="UTF-8" standalone="no"?>
<!DOCTYPE svg PUBLIC "-//W3C//DTD SVG 1.1//EN"
 "http://www.w3.org/Graphics/SVG/1.1/DTD/svg11.dtd">
<!-- Generated by graphviz version 12.2.1 (20241206.2353)
 -->
<!-- Title: TaxonName Pages: 1 -->
<svg width="900pt" height="1696pt"
 viewBox="0.00 0.00 900.39 1696.00" xmlns="http://www.w3.org/2000/svg" xmlns:xlink="http://www.w3.org/1999/xlink">
<g id="graph0" class="graph" transform="scale(1 1) rotate(0) translate(4 1692)">
<title>TaxonName</title>
<polygon fill="white" stroke="none" points="-4,4 -4,-1692 896.39,-1692 896.39,4 -4,4"/>
<!-- AlternateValue&#45;&gt;AlternateValueLanguage -->
<g id="edge1" class="edge">
<title>AlternateValue&#45;&gt;AlternateValueLanguage</title>
<path fill="none" stroke="black" stroke-dasharray="1,5" d="M124.6,-1651.84C134.9,-1653.43 145.84,-1655.11 156.74,-1656.79"/>
<polygon fill="black" stroke="black" points="156.14,-1660.24 166.56,-1658.3 157.21,-1653.32 156.14,-1660.24"/>
</g>
<!-- Citation&#45;&gt;Source -->
<g id="edge31" class="edge">
<title>Citation&#45;&gt;Source</title>
<path fill="none" stroke="black" stroke-dasharray="1,5" d="M107.06,-1561C183.92,-1561 351.62,-1561 426.55,-1561"/>
<polygon fill="black" stroke="black" points="426.23,-1564.5 436.23,-1561 426.23,-1557.5 426.23,-1564.5"/>
</g>
<!-- Citation&#45;&gt;CitationTopic -->
<g id="edge5" class="edge">
<title>Citation&#45;&gt;CitationTopic</title>
<path fill="none" stroke="black" stroke-dasharray="1,5" d="M100.17,-1571.35C124.62,-1579.02 158.52,-1589.65 187.11,-1598.62"/>
<polygon fill="black" stroke="black" points="185.74,-1601.86 196.33,-1601.51 187.83,-1595.18 185.74,-1601.86"/>
</g>
<!-- Confidence&#45;&gt;ConfidenceLevel -->
<g id="edge9" class="edge">
<title>Confidence&#45;&gt;ConfidenceLevel</title>
<path fill="none" stroke="black" stroke-dasharray="1,5" d="M119.8,-776C137.92,-776 158.44,-776 177.44,-776"/>
<polygon fill="black" stroke="black" points="177.22,-779.5 187.22,-776 177.22,-772.5 177.22,-779.5"/>
</g>
<!-- Depiction&#45;&gt;Image -->
<g id="edge17" class="edge">
<title>Depiction&#45;&gt;Image</title>
<path fill="none" stroke="black" stroke-dasharray="1,5" d="M113.72,-722C142.26,-722 178.33,-722 205.03,-722"/>
<polygon fill="black" stroke="black" points="204.7,-725.5 214.7,-722 204.7,-718.5 204.7,-725.5"/>
</g>
<!-- Tag&#45;&gt;Keyword -->
<g id="edge20" class="edge">
<title>Tag&#45;&gt;Keyword</title>
<path fill="none" stroke="black" stroke-dasharray="1,5" d="M93.44,-668C121.3,-668 165.78,-668 198.91,-668"/>
<polygon fill="black" stroke="black" points="198.6,-671.5 208.6,-668 198.6,-664.5 198.6,-671.5"/>
</g>
<!-- TaxonName&#45;&gt;AlternateValue -->
<g id="edge2" class="edge">
<title>TaxonName&#45;&gt;AlternateValue</title>
<path fill="none" stroke="black" d="M241.38,-856.15C235.44,-966.5 205.28,-1456.92 132.39,-1588 125.53,-1600.34 114.74,-1611.11 103.9,-1619.77"/>
<polygon fill="black" stroke="black" points="101.98,-1616.84 96.08,-1625.64 106.18,-1622.44 101.98,-1616.84"/>
</g>
<!-- TaxonName&#45;&gt;Citation -->
<g id="edge6" class="edge">
<title>TaxonName&#45;&gt;Citation</title>
<path fill="none" stroke="black" d="M237.1,-856.45C211.57,-962.32 103.21,-1411.64 74.31,-1531.51"/>
<polygon fill="black" stroke="black" points="70.91,-1530.65 71.97,-1541.19 77.72,-1532.29 70.91,-1530.65"/>
</g>
<!-- TaxonName&#45;&gt;Confidence -->
<g id="edge10" class="edge">
<title>TaxonName&#45;&gt;Confidence</title>
<path fill="none" stroke="black" d="M194.84,-818.23C170.42,-810.15 140.74,-800.33 116.14,-792.19"/>
<polygon fill="black" stroke="black" points="117.27,-788.88 106.67,-789.06 115.07,-795.52 117.27,-788.88"/>
</g>
<!-- TaxonName&#45;&gt;DataAttribute -->
<g id="edge11" class="edge">
<title>TaxonName&#45;&gt;DataAttribute</title>
<path fill="none" stroke="black" d="M215.09,-855.7C193.44,-872.2 162.05,-894.74 132.39,-911 127.08,-913.91 121.4,-916.7 115.68,-919.31"/>
<polygon fill="black" stroke="black" points="114.57,-915.98 106.81,-923.19 117.37,-922.39 114.57,-915.98"/>
</g>
<!-- TaxonName&#45;&gt;Depiction -->
<g id="edge12" class="edge">
<title>TaxonName&#45;&gt;Depiction</title>
<path fill="none" stroke="black" d="M193.91,-818.52C184.88,-814.34 175.92,-809.21 168.39,-803 146.13,-784.65 154.68,-767.31 132.39,-749 126.98,-744.56 120.75,-740.76 114.32,-737.53"/>
<polygon fill="black" stroke="black" points="116.08,-734.49 105.53,-733.54 113.19,-740.86 116.08,-734.49"/>
</g>
<!-- TaxonName&#45;&gt;Identifier -->
<g id="edge16" class="edge">
<title>TaxonName&#45;&gt;Identifier</title>
<path fill="none" stroke="black" d="M190.94,-848.71C166.7,-855.62 138,-863.81 114.34,-870.55"/>
<polygon fill="black" stroke="black" points="113.63,-867.12 104.98,-873.22 115.55,-873.85 113.63,-867.12"/>
</g>
<!-- TaxonName&#45;&gt;Tag -->
<g id="edge34" class="edge">
<title>TaxonName&#45;&gt;Tag</title>
<path fill="none" stroke="black" d="M190.98,-819.27C182.61,-815.08 174.65,-809.75 168.39,-803 133.97,-765.92 166.87,-732.02 132.39,-695 124.58,-686.62 113.78,-680.76 103.21,-676.69"/>
<polygon fill="black" stroke="black" points="104.44,-673.42 93.85,-673.56 102.22,-680.05 104.44,-673.42"/>
</g>
<!-- TaxonName&#45;&gt;Note -->
<g id="edge22" class="edge">
<title>TaxonName&#45;&gt;Note</title>
<path fill="none" stroke="black" d="M177.66,-832.52C153.84,-831.98 127.62,-831.38 106.7,-830.9"/>
<polygon fill="black" stroke="black" points="106.95,-827.41 96.88,-830.68 106.79,-834.4 106.95,-827.41"/>
</g>
<!-- TaxonName&#45;&gt;Otu -->
<g id="edge25" class="edge">
<title>TaxonName&#45;&gt;Otu</title>
<path fill="none" stroke="black" d="M247.59,-856.26C258.63,-932.84 298.51,-1183.71 354.64,-1239 373.51,-1257.59 402.94,-1264.36 426.53,-1266.6"/>
<polygon fill="black" stroke="black" points="426.17,-1270.09 436.39,-1267.28 426.65,-1263.1 426.17,-1270.09"/>
</g>
<!-- TaxonName&#45;&gt;Source -->
<g id="edge53" class="edge">
<title>TaxonName&#45;&gt;Source</title>
<path fill="none" stroke="black" stroke-dasharray="1,5" d="M245.24,-866.76C248.63,-990.48 266.74,-1427.3 354.64,-1528 372.7,-1548.7 403.23,-1556.66 427.46,-1559.61"/>
<polygon fill="none" stroke="black" points="240.98,-857.04 248.98,-856.83 249.19,-864.83 241.19,-865.04 240.98,-857.04"/>
<polyline fill="none" stroke="black" points="245.19,-864.93 245.24,-866.93"/>
<polygon fill="none" stroke="black" points="437.63,-1556.58 436.85,-1564.54 428.89,-1563.76 429.66,-1555.8 437.63,-1556.58"/>
<polyline fill="none" stroke="black" points="429.28,-1559.78 427.29,-1559.59"/>
</g>
<!-- TaxonName&#45;&gt;AncestorHierarchy -->
<g id="edge3" class="edge">
<title>TaxonName&#45;&gt;AncestorHierarchy</title>
<path fill="none" stroke="black" d="M247.98,-856.37C256.67,-904.49 283.94,-1018.22 354.64,-1077 365.96,-1086.42 380.09,-1092.63 394.39,-1096.71"/>
<polygon fill="black" stroke="black" points="393.3,-1100.04 403.85,-1099.06 394.99,-1093.25 393.3,-1100.04"/>
</g>
<!-- TaxonName&#45;&gt;Child -->
<g id="edge4" class="edge">
<title>TaxonName&#45;&gt;Child</title>
<path fill="none" stroke="black" d="M256.58,-856.45C274.07,-886.79 309.4,-940.37 354.64,-969 376.21,-982.65 404.22,-989.4 426.5,-992.74"/>
<polygon fill="black" stroke="black" points="426.01,-996.21 436.38,-994.03 426.92,-989.27 426.01,-996.21"/>
</g>
<!-- TaxonName&#45;&gt;ClassifiedAsUnavailableOrInvalid -->
<g id="edge7" class="edge">
<title>TaxonName&#45;&gt;ClassifiedAsUnavailableOrInvalid</title>
<path fill="none" stroke="black" d="M268.94,-856.39C290.13,-874.68 322.4,-899.9 354.64,-915 358.15,-916.65 361.78,-918.2 365.48,-919.67"/>
<polygon fill="black" stroke="black" points="364.07,-922.87 374.66,-923.04 366.48,-916.31 364.07,-922.87"/>
</g>
<!-- TaxonName&#45;&gt;DescendantHierarchy -->
<g id="edge13" class="edge">
<title>TaxonName&#45;&gt;DescendantHierarchy</title>
<path fill="none" stroke="black" d="M251.08,-856.27C264.02,-896.16 296.72,-979.64 354.64,-1023 364.29,-1030.22 375.63,-1035.53 387.29,-1039.43"/>
<polygon fill="black" stroke="black" points="386.02,-1042.71 396.6,-1042.2 388.01,-1036 386.02,-1042.71"/>
</g>
<!-- TaxonName&#45;&gt;HistoricalTaxonName -->
<g id="edge15" class="edge">
<title>TaxonName&#45;&gt;HistoricalTaxonName</title>
<path fill="none" stroke="black" d="M309.48,-834C333.16,-834 360.19,-834 384.96,-834"/>
<polygon fill="black" stroke="black" points="384.65,-837.5 394.65,-834 384.65,-830.5 384.65,-837.5"/>
</g>
<!-- TaxonName&#45;&gt;ImportAttribute -->
<g id="edge18" class="edge">
<title>TaxonName&#45;&gt;ImportAttribute</title>
<path fill="none" stroke="black" d="M299.9,-820.37C331.14,-812.69 370.25,-803.07 402.45,-795.15"/>
<polygon fill="black" stroke="black" points="403.18,-798.57 412.06,-792.78 401.51,-791.77 403.18,-798.57"/>
</g>
<!-- TaxonName&#45;&gt;InternalAttribute -->
<g id="edge19" class="edge">
<title>TaxonName&#45;&gt;InternalAttribute</title>
<path fill="none" stroke="black" d="M292.94,-818.31C301.99,-814.14 310.99,-809.07 318.64,-803 340.08,-785.96 331.95,-768.33 354.64,-753 368.2,-743.83 384.58,-737.77 400.49,-733.77"/>
<polygon fill="black" stroke="black" points="400.93,-737.26 409.92,-731.65 399.39,-730.43 400.93,-737.26"/>
</g>
<!-- TaxonName&#45;&gt;Label -->
<g id="edge21" class="edge">
<title>TaxonName&#45;&gt;Label</title>
<path fill="none" stroke="black" d="M295.98,-819.21C304.36,-815.02 312.34,-809.71 318.64,-803 352.12,-767.34 318.51,-731.97 354.64,-699 374.04,-681.29 403.19,-674.73 426.52,-672.5"/>
<polygon fill="black" stroke="black" points="426.53,-676.01 436.26,-671.81 426.04,-669.02 426.53,-676.01"/>
</g>
<!-- TaxonName&#45;&gt;ObservationMatrixRowItem -->
<g id="edge24" class="edge">
<title>TaxonName&#45;&gt;ObservationMatrixRowItem</title>
<path fill="none" stroke="black" d="M299.9,-847.63C323.57,-853.45 351.76,-860.38 378.03,-866.85"/>
<polygon fill="black" stroke="black" points="377.14,-870.23 387.68,-869.22 378.81,-863.43 377.14,-870.23"/>
</g>
<!-- TaxonName&#45;&gt;PinboardItem -->
<g id="edge26" class="edge">
<title>TaxonName&#45;&gt;PinboardItem</title>
<path fill="none" stroke="black" d="M296.98,-819.57C305.15,-815.35 312.8,-809.94 318.64,-803 365,-747.88 302.37,-694.55 354.64,-645 426.89,-576.51 478.18,-628.49 575.39,-607 589.89,-603.79 605.44,-599.83 619.85,-595.94"/>
<polygon fill="black" stroke="black" points="620.42,-599.42 629.14,-593.4 618.57,-592.67 620.42,-599.42"/>
</g>
<!-- TaxonName&#45;&gt;RelatedTaxonNameRelationship -->
<g id="edge27" class="edge">
<title>TaxonName&#45;&gt;RelatedTaxonNameRelationship</title>
<path fill="none" stroke="black" d="M297.98,-819.87C305.94,-815.63 313.26,-810.13 318.64,-803 400.57,-694.38 264.59,-600.99 354.64,-499 356.14,-497.3 357.74,-495.69 359.41,-494.18"/>
<polygon fill="black" stroke="black" points="361.31,-497.13 367.16,-488.29 357.08,-491.55 361.31,-497.13"/>
</g>
<!-- TaxonName&#45;&gt;Role -->
<g id="edge28" class="edge">
<title>TaxonName&#45;&gt;Role</title>
<path fill="none" stroke="black" d="M297.83,-819.76C305.81,-815.53 313.17,-810.06 318.64,-803 387.36,-714.24 279.28,-636.21 354.64,-553 372.58,-533.19 402.53,-526.84 426.55,-525.22"/>
<polygon fill="black" stroke="black" points="426.43,-528.72 436.28,-524.82 426.15,-521.73 426.43,-528.72"/>
</g>
<!-- TaxonName&#45;&gt;SubsequentCitation -->
<g id="edge32" class="edge">
<title>TaxonName&#45;&gt;SubsequentCitation</title>
<path fill="none" stroke="black" d="M244.82,-856.38C246.74,-961.39 260.39,-1403.97 354.64,-1495 372.23,-1511.99 514.47,-1525.32 603.41,-1532.09"/>
<polygon fill="black" stroke="black" points="603.04,-1535.57 613.27,-1532.83 603.56,-1528.59 603.04,-1535.57"/>
</g>
<!-- TaxonName&#45;&gt;TaxonNameAuthorRole -->
<g id="edge36" class="edge">
<title>TaxonName&#45;&gt;TaxonNameAuthorRole</title>
<path fill="none" stroke="black" d="M298.17,-820.01C306.11,-815.75 313.37,-810.21 318.64,-803 372.85,-728.79 294.87,-460.82 354.64,-391 361.62,-382.84 370.65,-376.94 380.51,-372.7"/>
<polygon fill="black" stroke="black" points="381.42,-376.09 389.62,-369.38 379.03,-369.52 381.42,-376.09"/>
</g>
<!-- TaxonName&#45;&gt;TaxonNameClassification -->
<g id="edge38" class="edge">
<title>TaxonName&#45;&gt;TaxonNameClassification</title>
<path fill="none" stroke="black" d="M298.26,-820.08C306.19,-815.81 313.43,-810.25 318.64,-803 383.54,-712.73 284.81,-390.51 354.64,-304 360.32,-296.96 367.45,-291.42 375.35,-287.06"/>
<polygon fill="black" stroke="black" points="376.8,-290.25 384.33,-282.8 373.8,-283.92 376.8,-290.25"/>
</g>
<!-- TaxonName&#45;&gt;TaxonNameRelationship -->
<g id="edge39" class="edge">
<title>TaxonName&#45;&gt;TaxonNameRelationship</title>
<path fill="none" stroke="black" d="M298.31,-820.11C306.23,-815.84 313.45,-810.27 318.64,-803 390.79,-701.84 274.91,-340.31 354.64,-245 361.07,-237.32 369.3,-231.63 378.36,-227.44"/>
<polygon fill="black" stroke="black" points="379.44,-230.78 387.48,-223.88 376.89,-224.26 379.44,-230.78"/>
</g>
<!-- TaxonName&#45;&gt;Uri -->
<g id="edge41" class="edge">
<title>TaxonName&#45;&gt;Uri</title>
<path fill="none" stroke="black" d="M298.34,-820.13C306.26,-815.86 313.47,-810.28 318.64,-803 397.43,-691.86 267.52,-295.74 354.64,-191 371.83,-170.32 402.11,-164.07 426.46,-162.71"/>
<polygon fill="black" stroke="black" points="426.44,-166.21 436.33,-162.43 426.24,-159.21 426.44,-166.21"/>
</g>
<!-- TaxonName&#45;&gt;Uuid -->
<g id="edge42" class="edge">
<title>TaxonName&#45;&gt;Uuid</title>
<path fill="none" stroke="black" d="M298.37,-820.15C306.29,-815.88 313.49,-810.3 318.64,-803 404.07,-681.89 260.13,-251.18 354.64,-137 371.79,-116.28 402.07,-110.03 426.42,-108.68"/>
<polygon fill="black" stroke="black" points="426.41,-112.18 436.31,-108.41 426.22,-105.19 426.41,-112.18"/>
</g>
<!-- TaxonName&#45;&gt;VerifierRole -->
<g id="edge43" class="edge">
<title>TaxonName&#45;&gt;VerifierRole</title>
<path fill="none" stroke="black" d="M298.09,-819.95C306.04,-815.7 313.32,-810.17 318.64,-803 366.22,-738.75 302.25,-505.4 354.64,-445 368.8,-428.67 391.13,-421.41 411.92,-418.43"/>
<polygon fill="black" stroke="black" points="412.19,-421.92 421.75,-417.35 411.43,-414.96 412.19,-421.92"/>
</g>
<!-- TaxonName&#45;&gt;Version -->
<g id="edge45" class="edge">
<title>TaxonName&#45;&gt;Version</title>
<path fill="none" stroke="black" d="M297.2,-819.75C305.35,-815.51 312.93,-810.05 318.64,-803 372.99,-735.86 296.63,-676.01 354.64,-612 372.25,-592.56 400.96,-584.67 424.55,-581.59"/>
<polygon fill="black" stroke="black" points="424.9,-585.07 434.48,-580.56 424.17,-578.11 424.9,-585.07"/>
</g>
<!-- TaxonName&#45;&gt;Creator -->
<g id="edge46" class="edge">
<title>TaxonName&#45;&gt;Creator</title>
<path fill="none" stroke="black" stroke-dasharray="5,2" d="M307.93,-814.03C312.01,-810.87 315.67,-807.22 318.64,-803 364.68,-737.45 301.51,-142.95 354.64,-83 387.65,-45.75 526.78,-55.74 575.39,-45 599.88,-39.58 627.38,-32.02 647.27,-26.27"/>
<polygon fill="black" stroke="black" points="306.18,-810.99 299.67,-819.35 309.97,-816.88 306.18,-810.99"/>
</g>
<!-- TaxonName&#45;&gt;Parent -->
<g id="edge47" class="edge">
<title>TaxonName&#45;&gt;Parent</title>
<path fill="none" stroke="black" stroke-dasharray="5,2" d="M246.14,-867.82C252.32,-982.02 277.94,-1350.91 354.64,-1436 375.7,-1459.37 412.79,-1466.05 437.88,-1467.76"/>
<polygon fill="black" stroke="black" points="249.64,-867.69 245.62,-857.89 242.65,-868.06 249.64,-867.69"/>
</g>
<!-- TaxonName&#45;&gt;Project -->
<g id="edge48" class="edge">
<title>TaxonName&#45;&gt;Project</title>
<path fill="none" stroke="black" stroke-dasharray="5,2" d="M307.94,-814.04C312.02,-810.88 315.68,-807.23 318.64,-803 414.78,-665.81 251.01,-181.62 354.64,-50 374.22,-25.13 412.05,-18.85 437.67,-17.63"/>
<polygon fill="black" stroke="black" points="306.19,-811 299.68,-819.36 309.98,-816.88 306.19,-811"/>
</g>
<!-- TaxonName&#45;&gt;Updater -->
<g id="edge49" class="edge">
<title>TaxonName&#45;&gt;Updater</title>
<path fill="none" stroke="black" stroke-dasharray="5,2" d="M307.8,-813.94C311.92,-810.8 315.61,-807.18 318.64,-803 379.48,-718.82 284.7,-413.79 354.64,-337 421.67,-263.4 487.98,-346.65 575.39,-299 696.95,-232.73 792.07,-87.37 822.9,-36.24"/>
<polygon fill="black" stroke="black" points="306.05,-810.91 299.51,-819.24 309.82,-816.8 306.05,-810.91"/>
</g>
<!-- TaxonName&#45;&gt;ValidTaxonName -->
<g id="edge50" class="edge">
<title>TaxonName&#45;&gt;ValidTaxonName</title>
<path fill="none" stroke="black" stroke-dasharray="5,2" d="M247.13,-867.74C255.83,-970.9 287.08,-1279.29 354.64,-1349 368.66,-1363.47 389.1,-1370.66 408.53,-1374.1"/>
<polygon fill="black" stroke="black" points="250.64,-867.67 246.33,-857.99 243.66,-868.24 250.64,-867.67"/>
</g>
<!-- TaxonName&#45;&gt;FamilyGroupNameFormRelationship -->
<g id="edge51" class="edge">
<title>TaxonName&#45;&gt;FamilyGroupNameFormRelationship</title>
<path fill="none" stroke="black" d="M247.94,-866.8C258.52,-961.67 293.65,-1233.55 354.64,-1295 355.33,-1295.7 356.04,-1296.38 356.76,-1297.04"/>
<polygon fill="none" stroke="black" points="242.88,-857.32 250.83,-856.44 251.7,-864.4 243.75,-865.27 242.88,-857.32"/>
<polyline fill="none" stroke="black" points="247.73,-864.83 247.95,-866.82"/>
<polygon fill="none" stroke="black" points="367.09,-1300.1 362.13,-1306.38 355.85,-1301.42 360.81,-1295.14 367.09,-1300.1"/>
<polyline fill="none" stroke="black" points="358.33,-1298.28 356.76,-1297.04"/>
</g>
<!-- TaxonName&#45;&gt;OriginCitation -->
<g id="edge52" class="edge">
<title>TaxonName&#45;&gt;OriginCitation</title>
<path fill="none" stroke="black" d="M246.05,-866.8C251.9,-976.5 276.53,-1327.91 354.64,-1403 364.06,-1412.06 528.72,-1433.8 618.21,-1445.03"/>
<polygon fill="none" stroke="black" points="241.55,-857.08 249.54,-856.67 249.95,-864.65 241.96,-865.07 241.55,-857.08"/>
<polyline fill="none" stroke="black" points="245.95,-864.86 246.06,-866.86"/>
<polygon fill="none" stroke="black" points="628.47,-1442.28 627.48,-1450.22 619.54,-1449.22 620.53,-1441.29 628.47,-1442.28"/>
<polyline fill="none" stroke="black" points="620.03,-1445.25 618.05,-1445.01"/>
</g>
<!-- TaxonName&#45;&gt;SourceClassifiedA -->
<g id="edge54" class="edge">
<title>TaxonName&#45;&gt;SourceClassifiedA</title>
<path fill="none" stroke="black" stroke-dasharray="1,5" d="M244.72,-866.64C247.02,-935.93 262.53,-1098.44 354.64,-1185 366.04,-1195.71 380.99,-1202.37 396.16,-1206.45"/>
<polygon fill="none" stroke="black" points="240.47,-856.95 248.47,-856.75 248.68,-864.74 240.68,-864.95 240.47,-856.95"/>
<polyline fill="none" stroke="black" points="244.68,-864.85 244.73,-866.85"/>
<polygon fill="none" stroke="black" points="406.55,-1204.78 404.73,-1212.57 396.94,-1210.74 398.76,-1202.95 406.55,-1204.78"/>
<polyline fill="none" stroke="black" points="397.85,-1206.85 395.9,-1206.39"/>
</g>
<!-- TaxonName&#45;&gt;SourceClassifiedAsRelationship -->
<g id="edge55" class="edge">
<title>TaxonName&#45;&gt;SourceClassifiedAsRelationship</title>
<path fill="none" stroke="black" d="M246.86,-866.34C253.1,-927.51 275.5,-1060.34 354.64,-1131 356.58,-1132.74 358.63,-1134.37 360.75,-1135.9"/>
<polygon fill="none" stroke="black" points="241.97,-857 249.93,-856.25 250.68,-864.22 242.72,-864.97 241.97,-857"/>
<polyline fill="none" stroke="black" points="246.7,-864.59 246.88,-866.58"/>
<polygon fill="none" stroke="black" points="371,-1137.66 366.72,-1144.42 359.96,-1140.14 364.24,-1133.38 371,-1137.66"/>
<polyline fill="none" stroke="black" points="362.1,-1136.76 360.41,-1135.69"/>
</g>
<!-- Otu&#45;&gt;TaxonDetermination -->
<g id="edge35" class="edge">
<title>Otu&#45;&gt;TaxonDetermination</title>
<path fill="none" stroke="black" stroke-dasharray="1,5" d="M492.48,-1267C519.36,-1267 562.24,-1267 599.68,-1267"/>
<polygon fill="black" stroke="black" points="599.59,-1270.5 609.59,-1267 599.59,-1263.5 599.59,-1270.5"/>
</g>
<!-- Source&#45;&gt;SubsequentCitation -->
<!-- Source&#45;&gt;OriginCitation -->
<!-- AncestorHierarchy&#45;&gt;SelfAndAncestor -->
<g id="edge29" class="edge">
<title>AncestorHierarchy&#45;&gt;SelfAndAncestor</title>
<path fill="none" stroke="black" stroke-dasharray="1,5" d="M524.79,-1104C551.2,-1104 582.46,-1104 609.61,-1104"/>
<polygon fill="black" stroke="black" points="609.46,-1107.5 619.46,-1104 609.46,-1100.5 609.46,-1107.5"/>
</g>
<!-- CitationTopic&#45;&gt;Topic -->
<g id="edge40" class="edge">
<title>CitationTopic&#45;&gt;Topic</title>
<path fill="none" stroke="black" stroke-dasharray="1,5" d="M289.46,-1616C329.93,-1616 388.7,-1616 426.65,-1616"/>
<polygon fill="black" stroke="black" points="426.2,-1619.5 436.2,-1616 426.2,-1612.5 426.2,-1619.5"/>
</g>
<!-- TaxonDetermination&#45;&gt;CollectionObject -->
<g id="edge8" class="edge">
<title>TaxonDetermination&#45;&gt;CollectionObject</title>
<path fill="none" stroke="black" stroke-dasharray="1,5" d="M729.56,-1248.53C742.66,-1243.93 756.85,-1238.94 770.4,-1234.18"/>
<polygon fill="black" stroke="black" points="771.4,-1237.54 779.68,-1230.92 769.08,-1230.93 771.4,-1237.54"/>
</g>
<!-- TaxonDetermination&#45;&gt;FieldOccurrence -->
<g id="edge14" class="edge">
<title>TaxonDetermination&#45;&gt;FieldOccurrence</title>
<path fill="none" stroke="black" stroke-dasharray="1,5" d="M741.12,-1267C750.6,-1267 760.37,-1267 769.84,-1267"/>
<polygon fill="black" stroke="black" points="769.7,-1270.5 779.7,-1267 769.7,-1263.5 769.7,-1270.5"/>
</g>
<!-- DescendantHierarchy&#45;&gt;SelfAndDescendant -->
<g id="edge30" class="edge">
<title>DescendantHierarchy&#45;&gt;SelfAndDescendant</title>
<path fill="none" stroke="black" stroke-dasharray="1,5" d="M531.85,-1050C554.27,-1050 579.45,-1050 602.37,-1050"/>
<polygon fill="black" stroke="black" points="602.25,-1053.5 612.25,-1050 602.25,-1046.5 602.25,-1053.5"/>
</g>
<!-- ObservationMatrixRowItem&#45;&gt;ObservationMatrix -->
<g id="edge23" class="edge">
<title>ObservationMatrixRowItem&#45;&gt;ObservationMatrix</title>
<path fill="none" stroke="black" stroke-dasharray="1,5" d="M550.72,-888C568.63,-888 587.35,-888 604.67,-888"/>
<polygon fill="black" stroke="black" points="604.31,-891.5 614.31,-888 604.31,-884.5 604.31,-891.5"/>
</g>
<!-- Role&#45;&gt;Verifier -->
<!-- SubsequentCitation&#45;&gt;SubsequentSource -->
<g id="edge33" class="edge">
<title>SubsequentCitation&#45;&gt;SubsequentSource</title>
<path fill="none" stroke="black" stroke-dasharray="1,5" d="M737.07,-1537C746.2,-1537 755.68,-1537 764.98,-1537"/>
<polygon fill="black" stroke="black" points="764.68,-1540.5 774.68,-1537 764.68,-1533.5 764.68,-1540.5"/>
</g>
<!-- TaxonNameAuthorRole&#45;&gt;TaxonNameAuthor -->
<g id="edge37" class="edge">
<title>TaxonNameAuthorRole&#45;&gt;TaxonNameAuthor</title>
<path fill="none" stroke="black" stroke-dasharray="1,5" d="M539.11,-364C559.97,-364 582.67,-364 603.43,-364"/>
<polygon fill="black" stroke="black" points="603.23,-367.5 613.23,-364 603.23,-360.5 603.23,-367.5"/>
</g>
<!-- VerifierRole&#45;&gt;Verifier -->
<g id="edge44" class="edge">
<title>VerifierRole&#45;&gt;Verifier</title>
<path fill="none" stroke="black" stroke-dasharray="1,5" d="M506.84,-427.85C527.43,-432.87 552.76,-439.14 575.39,-445 595.5,-450.21 617.83,-456.24 636.24,-461.27"/>
<polygon fill="black" stroke="black" points="635.12,-464.59 645.69,-463.87 636.97,-457.84 635.12,-464.59"/>
</g>
<!-- Version&#45;&gt;PinboardItem -->
<!-- Creator&#45;&gt;Updater -->
<!-- Project&#45;&gt;Creator -->
<!-- AlternateValue -->
<g id="node1" class="node">
<title>AlternateValue</title>
<g id="a_node1"><a xlink:href="/develop/Data/models.html#alternate-value" xlink:title="AlternateValue" target="_top">
<ellipse fill="#abcdef" stroke="#dddeee" cx="66.19" cy="-1643" rx="66.19" ry="18"/>
<text text-anchor="middle" x="66.19" y="-1637.95" font-family="Times,serif" font-size="14.00">AlternateValue</text>
</a>
</g>
</g>
<!-- Citation -->
<g id="node2" class="node">
<title>Citation</title>
<g id="a_node2"><a xlink:href="/develop/Data/models.html#citation" xlink:title="Citation" target="_top">
<ellipse fill="#abcdef" stroke="#dddeee" cx="66.19" cy="-1561" rx="40.6" ry="18"/>
<text text-anchor="middle" x="66.19" y="-1555.95" font-family="Times,serif" font-size="14.00">Citation</text>
</a>
</g>
</g>
<!-- Confidence -->
<g id="node3" class="node">
<title>Confidence</title>
<g id="a_node3"><a xlink:href="/develop/Data/models.html#confidence" xlink:title="Confidence" target="_top">
<ellipse fill="#abcdef" stroke="#dddeee" cx="66.19" cy="-776" rx="53.4" ry="18"/>
<text text-anchor="middle" x="66.19" y="-770.95" font-family="Times,serif" font-size="14.00">Confidence</text>
</a>
</g>
</g>
<!-- DataAttribute -->
<g id="node4" class="node">
<title>DataAttribute</title>
<g id="a_node4"><a xlink:href="/develop/Data/models.html#data-attribute" xlink:title="DataAttribute" target="_top">
<ellipse fill="#abcdef" stroke="#dddeee" cx="66.19" cy="-938" rx="61.59" ry="18"/>
<text text-anchor="middle" x="66.19" y="-932.95" font-family="Times,serif" font-size="14.00">DataAttribute</text>
</a>
</g>
</g>
<!-- Depiction -->
<g id="node5" class="node">
<title>Depiction</title>
<g id="a_node5"><a xlink:href="/develop/Data/models.html#depiction" xlink:title="Depiction" target="_top">
<ellipse fill="#abcdef" stroke="#dddeee" cx="66.19" cy="-722" rx="47.26" ry="18"/>
<text text-anchor="middle" x="66.19" y="-716.95" font-family="Times,serif" font-size="14.00">Depiction</text>
</a>
</g>
</g>
<!-- Identifier -->
<g id="node6" class="node">
<title>Identifier</title>
<g id="a_node6"><a xlink:href="/develop/Data/models.html#identifier" xlink:title="Identifier" target="_top">
<ellipse fill="#abcdef" stroke="#dddeee" cx="66.19" cy="-884" rx="45.21" ry="18"/>
<text text-anchor="middle" x="66.19" y="-878.95" font-family="Times,serif" font-size="14.00">Identifier</text>
</a>
</g>
</g>
<!-- Tag -->
<g id="node7" class="node">
<title>Tag</title>
<g id="a_node7"><a xlink:href="/develop/Data/models.html#tag" xlink:title="Tag" target="_top">
<ellipse fill="#abcdef" stroke="#dddeee" cx="66.19" cy="-668" rx="27" ry="18"/>
<text text-anchor="middle" x="66.19" y="-662.95" font-family="Times,serif" font-size="14.00">Tag</text>
</a>
</g>
</g>
<!-- Note -->
<g id="node8" class="node">
<title>Note</title>
<g id="a_node8"><a xlink:href="/develop/Data/models.html#note" xlink:title="Note" target="_top">
<ellipse fill="#abcdef" stroke="#dddeee" cx="66.19" cy="-830" rx="28.83" ry="18"/>
<text text-anchor="middle" x="66.19" y="-824.95" font-family="Times,serif" font-size="14.00">Note</text>
</a>
</g>
</g>
<!-- TaxonName -->
<g id="node9" class="node">
<title>TaxonName</title>
<g id="a_node9"><a xlink:href="/develop/Data/models.html#taxon-name" xlink:title="TaxonName" target="_top">
<polygon fill="#cdefab" stroke="#dedede" points="305.19,-826.54 305.19,-841.46 269.06,-852 217.97,-852 181.84,-841.46 181.84,-826.54 217.97,-816 269.06,-816 305.19,-826.54"/>
<polygon fill="none" stroke="#dedede" points="309.19,-823.54 309.19,-844.46 269.63,-856 217.39,-856 177.84,-844.46 177.84,-823.54 217.39,-812 269.63,-812 309.19,-823.54"/>
<text text-anchor="middle" x="243.51" y="-828.95" font-family="Times,serif" font-size="14.00">TaxonName</text>
</a>
</g>
</g>
<!-- CollectionObject -->
<g id="node10" class="node">
<title>CollectionObject</title>
<g id="a_node10"><a xlink:href="/develop/Data/models.html#collection-object" xlink:title="CollectionObject" target="_top">
<path fill="#fedcba" stroke="#dddeee" d="M792.39,-1194C792.39,-1194 876.64,-1194 876.64,-1194 882.64,-1194 888.64,-1200 888.64,-1206 888.64,-1206 888.64,-1218 888.64,-1218 888.64,-1224 882.64,-1230 876.64,-1230 876.64,-1230 792.39,-1230 792.39,-1230 786.39,-1230 780.39,-1224 780.39,-1218 780.39,-1218 780.39,-1206 780.39,-1206 780.39,-1200 786.39,-1194 792.39,-1194"/>
<text text-anchor="middle" x="834.51" y="-1207.2" font-family="Times,serif" font-size="14.00">CollectionObject</text>
</a>
</g>
</g>
<!-- Otu -->
<g id="node11" class="node">
<title>Otu</title>
<g id="a_node11"><a xlink:href="/develop/Data/models.html#otu" xlink:title="Otu" target="_top">
<path fill="#fedcba" stroke="#dddeee" d="M450.01,-1249C450.01,-1249 480.01,-1249 480.01,-1249 486.01,-1249 492.01,-1255 492.01,-1261 492.01,-1261 492.01,-1273 492.01,-1273 492.01,-1279 486.01,-1285 480.01,-1285 480.01,-1285 450.01,-1285 450.01,-1285 444.01,-1285 438.01,-1279 438.01,-1273 438.01,-1273 438.01,-1261 438.01,-1261 438.01,-1255 444.01,-1249 450.01,-1249"/>
<text text-anchor="middle" x="465.01" y="-1262.2" font-family="Times,serif" font-size="14.00">Otu</text>
</a>
</g>
</g>
<!-- Source -->
<g id="node12" class="node">
<title>Source</title>
<g id="a_node12"><a xlink:href="/develop/Data/models.html#source" xlink:title="Source" target="_top">
<path fill="#fedcba" stroke="#dddeee" d="M450.01,-1543C450.01,-1543 480.01,-1543 480.01,-1543 486.01,-1543 492.01,-1549 492.01,-1555 492.01,-1555 492.01,-1567 492.01,-1567 492.01,-1573 486.01,-1579 480.01,-1579 480.01,-1579 450.01,-1579 450.01,-1579 444.01,-1579 438.01,-1573 438.01,-1567 438.01,-1567 438.01,-1555 438.01,-1555 438.01,-1549 444.01,-1543 450.01,-1543"/>
<text text-anchor="middle" x="465.01" y="-1556.2" font-family="Times,serif" font-size="14.00">Source</text>
</a>
</g>
</g>
<!-- AlternateValueLanguage -->
<g id="node13" class="node">
<title>AlternateValueLanguage</title>
<g id="a_node13"><a xlink:href="/develop/Data/models.html#alternate-value-language" xlink:title="AlternateValueLanguage" target="_top">
<polygon fill="#eeefff" stroke="#dddeee" points="318.64,-1688 168.39,-1688 168.39,-1652 318.64,-1652 318.64,-1688"/>
<text text-anchor="middle" x="243.51" y="-1664.95" font-family="Times,serif" font-size="14.00">AlternateValueLanguage</text>
</a>
</g>
</g>
<!-- AncestorHierarchy -->
<g id="node14" class="node">
<title>AncestorHierarchy</title>
<g id="a_node14"><a xlink:href="/develop/Data/models.html#ancestor-hierarchy" xlink:title="AncestorHierarchy" target="_top">
<polygon fill="#eeefff" stroke="#dddeee" points="524.39,-1122 405.64,-1122 405.64,-1086 524.39,-1086 524.39,-1122"/>
<text text-anchor="middle" x="465.01" y="-1098.95" font-family="Times,serif" font-size="14.00">AncestorHierarchy</text>
</a>
</g>
</g>
<!-- Child -->
<g id="node15" class="node">
<title>Child</title>
<g id="a_node15"><a xlink:href="/develop/Data/models.html#child" xlink:title="Child" target="_top">
<polygon fill="#eeefff" stroke="#dddeee" points="492.01,-1014 438.01,-1014 438.01,-978 492.01,-978 492.01,-1014"/>
<text text-anchor="middle" x="465.01" y="-990.95" font-family="Times,serif" font-size="14.00">Child</text>
</a>
</g>
</g>
<!-- CitationTopic -->
<g id="node16" class="node">
<title>CitationTopic</title>
<g id="a_node16"><a xlink:href="/develop/Data/models.html#citation-topic" xlink:title="CitationTopic" target="_top">
<polygon fill="#eeefff" stroke="#dddeee" points="289.01,-1634 198.01,-1634 198.01,-1598 289.01,-1598 289.01,-1634"/>
<text text-anchor="middle" x="243.51" y="-1610.95" font-family="Times,serif" font-size="14.00">CitationTopic</text>
</a>
</g>
</g>
<!-- ClassifiedAsUnavailableOrInvalid -->
<g id="node17" class="node">
<title>ClassifiedAsUnavailableOrInvalid</title>
<g id="a_node17"><a xlink:href="/develop/Data/models.html#classified-as-unavailable-or-invalid" xlink:title="ClassifiedAsUnavailableOrInvalid" target="_top">
<polygon fill="#eeefff" stroke="#dddeee" points="566.39,-960 363.64,-960 363.64,-924 566.39,-924 566.39,-960"/>
<text text-anchor="middle" x="465.01" y="-936.95" font-family="Times,serif" font-size="14.00">ClassifiedAsUnavailableOrInvalid</text>
</a>
</g>
</g>
<!-- TaxonDetermination -->
<g id="node18" class="node">
<title>TaxonDetermination</title>
<g id="a_node18"><a xlink:href="/develop/Data/models.html#taxon-determination" xlink:title="TaxonDetermination" target="_top">
<polygon fill="#eeefff" stroke="#dddeee" points="740.64,-1285 611.39,-1285 611.39,-1249 740.64,-1249 740.64,-1285"/>
<text text-anchor="middle" x="676.01" y="-1261.95" font-family="Times,serif" font-size="14.00">TaxonDetermination</text>
</a>
</g>
</g>
<!-- ConfidenceLevel -->
<g id="node19" class="node">
<title>ConfidenceLevel</title>
<g id="a_node19"><a xlink:href="/develop/Data/models.html#confidence-level" xlink:title="ConfidenceLevel" target="_top">
<polygon fill="#eeefff" stroke="#dddeee" points="298.01,-794 189.01,-794 189.01,-758 298.01,-758 298.01,-794"/>
<text text-anchor="middle" x="243.51" y="-770.95" font-family="Times,serif" font-size="14.00">ConfidenceLevel</text>
</a>
</g>
</g>
<!-- DescendantHierarchy -->
<g id="node20" class="node">
<title>DescendantHierarchy</title>
<g id="a_node20"><a xlink:href="/develop/Data/models.html#descendant-hierarchy" xlink:title="DescendantHierarchy" target="_top">
<polygon fill="#eeefff" stroke="#dddeee" points="531.51,-1068 398.51,-1068 398.51,-1032 531.51,-1032 531.51,-1068"/>
<text text-anchor="middle" x="465.01" y="-1044.95" font-family="Times,serif" font-size="14.00">DescendantHierarchy</text>
</a>
</g>
</g>
<!-- FieldOccurrence -->
<g id="node21" class="node">
<title>FieldOccurrence</title>
<g id="a_node21"><a xlink:href="/develop/Data/models.html#field-occurrence" xlink:title="FieldOccurrence" target="_top">
<polygon fill="#eeefff" stroke="#dddeee" points="887.51,-1285 781.51,-1285 781.51,-1249 887.51,-1249 887.51,-1285"/>
<text text-anchor="middle" x="834.51" y="-1261.95" font-family="Times,serif" font-size="14.00">FieldOccurrence</text>
</a>
</g>
</g>
<!-- HistoricalTaxonName -->
<g id="node22" class="node">
<title>HistoricalTaxonName</title>
<g id="a_node22"><a xlink:href="/develop/Data/models.html#historical-taxon-name" xlink:title="HistoricalTaxonName" target="_top">
<polygon fill="#eeefff" stroke="#dddeee" points="533.39,-852 396.64,-852 396.64,-816 533.39,-816 533.39,-852"/>
<text text-anchor="middle" x="465.01" y="-828.95" font-family="Times,serif" font-size="14.00">HistoricalTaxonName</text>
</a>
</g>
</g>
<!-- Image -->
<g id="node23" class="node">
<title>Image</title>
<g id="a_node23"><a xlink:href="/develop/Data/models.html#image" xlink:title="Image" target="_top">
<polygon fill="#eeefff" stroke="#dddeee" points="270.51,-740 216.51,-740 216.51,-704 270.51,-704 270.51,-740"/>
<text text-anchor="middle" x="243.51" y="-716.95" font-family="Times,serif" font-size="14.00">Image</text>
</a>
</g>
</g>
<!-- ImportAttribute -->
<g id="node24" class="node">
<title>ImportAttribute</title>
<g id="a_node24"><a xlink:href="/develop/Data/models.html#import-attribute" xlink:title="ImportAttribute" target="_top">
<polygon fill="#eeefff" stroke="#dddeee" points="516.14,-798 413.89,-798 413.89,-762 516.14,-762 516.14,-798"/>
<text text-anchor="middle" x="465.01" y="-774.95" font-family="Times,serif" font-size="14.00">ImportAttribute</text>
</a>
</g>
</g>
<!-- InternalAttribute -->
<g id="node25" class="node">
<title>InternalAttribute</title>
<g id="a_node25"><a xlink:href="/develop/Data/models.html#internal-attribute" xlink:title="InternalAttribute" target="_top">
<polygon fill="#eeefff" stroke="#dddeee" points="518.39,-744 411.64,-744 411.64,-708 518.39,-708 518.39,-744"/>
<text text-anchor="middle" x="465.01" y="-720.95" font-family="Times,serif" font-size="14.00">InternalAttribute</text>
</a>
</g>
</g>
<!-- Keyword -->
<g id="node26" class="node">
<title>Keyword</title>
<g id="a_node26"><a xlink:href="/develop/Data/models.html#keyword" xlink:title="Keyword" target="_top">
<polygon fill="#eeefff" stroke="#dddeee" points="276.64,-686 210.39,-686 210.39,-650 276.64,-650 276.64,-686"/>
<text text-anchor="middle" x="243.51" y="-662.95" font-family="Times,serif" font-size="14.00">Keyword</text>
</a>
</g>
</g>
<!-- Label -->
<g id="node27" class="node">
<title>Label</title>
<g id="a_node27"><a xlink:href="/develop/Data/models.html#label" xlink:title="Label" target="_top">
<polygon fill="#eeefff" stroke="#dddeee" points="492.01,-690 438.01,-690 438.01,-654 492.01,-654 492.01,-690"/>
<text text-anchor="middle" x="465.01" y="-666.95" font-family="Times,serif" font-size="14.00">Label</text>
</a>
</g>
</g>
<!-- ObservationMatrixRowItem -->
<g id="node28" class="node">
<title>ObservationMatrixRowItem</title>
<g id="a_node28"><a xlink:href="/develop/Data/models.html#observation-matrix-row-item" xlink:title="ObservationMatrixRowItem" target="_top">
<polygon fill="#eeefff" stroke="#dddeee" points="550.26,-906 379.76,-906 379.76,-870 550.26,-870 550.26,-906"/>
<text text-anchor="middle" x="465.01" y="-882.95" font-family="Times,serif" font-size="14.00">ObservationMatrixRowItem</text>
</a>
</g>
</g>
<!-- ObservationMatrix -->
<g id="node29" class="node">
<title>ObservationMatrix</title>
<g id="a_node29"><a xlink:href="/develop/Data/models.html#observation-matrix" xlink:title="ObservationMatrix" target="_top">
<polygon fill="#eeefff" stroke="#dddeee" points="735.76,-906 616.26,-906 616.26,-870 735.76,-870 735.76,-906"/>
<text text-anchor="middle" x="676.01" y="-882.95" font-family="Times,serif" font-size="14.00">ObservationMatrix</text>
</a>
</g>
</g>
<!-- PinboardItem -->
<g id="node30" class="node">
<title>PinboardItem</title>
<g id="a_node30"><a xlink:href="/develop/Data/models.html#pinboard-item" xlink:title="PinboardItem" target="_top">
<polygon fill="#eeefff" stroke="#dddeee" points="721.14,-598 630.89,-598 630.89,-562 721.14,-562 721.14,-598"/>
<text text-anchor="middle" x="676.01" y="-574.95" font-family="Times,serif" font-size="14.00">PinboardItem</text>
</a>
</g>
</g>
<!-- RelatedTaxonNameRelationship -->
<g id="node31" class="node">
<title>RelatedTaxonNameRelationship</title>
<g id="a_node31"><a xlink:href="/develop/Data/models.html#related-taxon-name-relationship" xlink:title="RelatedTaxonNameRelationship" target="_top">
<polygon fill="#eeefff" stroke="#dddeee" points="561.51,-490 368.51,-490 368.51,-454 561.51,-454 561.51,-490"/>
<text text-anchor="middle" x="465.01" y="-466.95" font-family="Times,serif" font-size="14.00">RelatedTaxonNameRelationship</text>
</a>
</g>
</g>
<!-- Role -->
<g id="node32" class="node">
<title>Role</title>
<g id="a_node32"><a xlink:href="/develop/Data/models.html#role" xlink:title="Role" target="_top">
<polygon fill="#eeefff" stroke="#dddeee" points="492.01,-544 438.01,-544 438.01,-508 492.01,-508 492.01,-544"/>
<text text-anchor="middle" x="465.01" y="-520.95" font-family="Times,serif" font-size="14.00">Role</text>
</a>
</g>
</g>
<!-- SelfAndAncestor -->
<g id="node33" class="node">
<title>SelfAndAncestor</title>
<g id="a_node33"><a xlink:href="/develop/Data/models.html#self-and-ancestor" xlink:title="SelfAndAncestor" target="_top">
<polygon fill="#eeefff" stroke="#dddeee" points="730.89,-1122 621.14,-1122 621.14,-1086 730.89,-1086 730.89,-1122"/>
<text text-anchor="middle" x="676.01" y="-1098.95" font-family="Times,serif" font-size="14.00">SelfAndAncestor</text>
</a>
</g>
</g>
<!-- SelfAndDescendant -->
<g id="node34" class="node">
<title>SelfAndDescendant</title>
<g id="a_node34"><a xlink:href="/develop/Data/models.html#self-and-descendant" xlink:title="SelfAndDescendant" target="_top">
<polygon fill="#eeefff" stroke="#dddeee" points="738.01,-1068 614.01,-1068 614.01,-1032 738.01,-1032 738.01,-1068"/>
<text text-anchor="middle" x="676.01" y="-1044.95" font-family="Times,serif" font-size="14.00">SelfAndDescendant</text>
</a>
</g>
</g>
<!-- SubsequentCitation -->
<g id="node35" class="node">
<title>SubsequentCitation</title>
<g id="a_node35"><a xlink:href="/develop/Data/models.html#subsequent-citation" xlink:title="SubsequentCitation" target="_top">
<polygon fill="#eeefff" stroke="#dddeee" points="736.89,-1555 615.14,-1555 615.14,-1519 736.89,-1519 736.89,-1555"/>
<text text-anchor="middle" x="676.01" y="-1531.95" font-family="Times,serif" font-size="14.00">SubsequentCitation</text>
</a>
</g>
</g>
<!-- SubsequentSource -->
<g id="node36" class="node">
<title>SubsequentSource</title>
<g id="a_node36"><a xlink:href="/develop/Data/models.html#subsequent-source" xlink:title="SubsequentSource" target="_top">
<polygon fill="#eeefff" stroke="#dddeee" points="892.39,-1555 776.64,-1555 776.64,-1519 892.39,-1519 892.39,-1555"/>
<text text-anchor="middle" x="834.51" y="-1531.95" font-family="Times,serif" font-size="14.00">SubsequentSource</text>
</a>
</g>
</g>
<!-- TaxonNameAuthorRole -->
<g id="node37" class="node">
<title>TaxonNameAuthorRole</title>
<g id="a_node37"><a xlink:href="/develop/Data/models.html#taxon-name-author-role" xlink:title="TaxonNameAuthorRole" target="_top">
<polygon fill="#eeefff" stroke="#dddeee" points="538.64,-382 391.39,-382 391.39,-346 538.64,-346 538.64,-382"/>
<text text-anchor="middle" x="465.01" y="-358.95" font-family="Times,serif" font-size="14.00">TaxonNameAuthorRole</text>
</a>
</g>
</g>
<!-- TaxonNameAuthor -->
<g id="node38" class="node">
<title>TaxonNameAuthor</title>
<g id="a_node38"><a xlink:href="/develop/Data/models.html#taxon-name-author" xlink:title="TaxonNameAuthor" target="_top">
<polygon fill="#eeefff" stroke="#dddeee" points="736.89,-382 615.14,-382 615.14,-346 736.89,-346 736.89,-382"/>
<text text-anchor="middle" x="676.01" y="-358.95" font-family="Times,serif" font-size="14.00">TaxonNameAuthor</text>
</a>
</g>
</g>
<!-- TaxonNameClassification -->
<g id="node39" class="node">
<title>TaxonNameClassification</title>
<g id="a_node39"><a xlink:href="/develop/Data/models.html#taxon-name-classification" xlink:title="TaxonNameClassification" target="_top">
<polygon fill="#eeefff" stroke="#dddeee" points="543.89,-290 386.14,-290 386.14,-254 543.89,-254 543.89,-290"/>
<text text-anchor="middle" x="465.01" y="-266.95" font-family="Times,serif" font-size="14.00">TaxonNameClassification</text>
</a>
</g>
</g>
<!-- TaxonNameRelationship -->
<g id="node40" class="node">
<title>TaxonNameRelationship</title>
<g id="a_node40"><a xlink:href="/develop/Data/models.html#taxon-name-relationship" xlink:title="TaxonNameRelationship" target="_top">
<polygon fill="#eeefff" stroke="#dddeee" points="540.89,-236 389.14,-236 389.14,-200 540.89,-200 540.89,-236"/>
<text text-anchor="middle" x="465.01" y="-212.95" font-family="Times,serif" font-size="14.00">TaxonNameRelationship</text>
</a>
</g>
</g>
<!-- Topic -->
<g id="node41" class="node">
<title>Topic</title>
<g id="a_node41"><a xlink:href="/develop/Data/models.html#topic" xlink:title="Topic" target="_top">
<polygon fill="#eeefff" stroke="#dddeee" points="492.01,-1634 438.01,-1634 438.01,-1598 492.01,-1598 492.01,-1634"/>
<text text-anchor="middle" x="465.01" y="-1610.95" font-family="Times,serif" font-size="14.00">Topic</text>
</a>
</g>
</g>
<!-- Uri -->
<g id="node42" class="node">
<title>Uri</title>
<g id="a_node42"><a xlink:href="/develop/Data/models.html#uri" xlink:title="Uri" target="_top">
<polygon fill="#eeefff" stroke="#dddeee" points="492.01,-182 438.01,-182 438.01,-146 492.01,-146 492.01,-182"/>
<text text-anchor="middle" x="465.01" y="-158.95" font-family="Times,serif" font-size="14.00">Uri</text>
</a>
</g>
</g>
<!-- Uuid -->
<g id="node43" class="node">
<title>Uuid</title>
<g id="a_node43"><a xlink:href="/develop/Data/models.html#uuid" xlink:title="Uuid" target="_top">
<polygon fill="#eeefff" stroke="#dddeee" points="492.01,-128 438.01,-128 438.01,-92 492.01,-92 492.01,-128"/>
<text text-anchor="middle" x="465.01" y="-104.95" font-family="Times,serif" font-size="14.00">Uuid</text>
</a>
</g>
</g>
<!-- VerifierRole -->
<g id="node44" class="node">
<title>VerifierRole</title>
<g id="a_node44"><a xlink:href="/develop/Data/models.html#verifier-role" xlink:title="VerifierRole" target="_top">
<polygon fill="#eeefff" stroke="#dddeee" points="506.39,-436 423.64,-436 423.64,-400 506.39,-400 506.39,-436"/>
<text text-anchor="middle" x="465.01" y="-412.95" font-family="Times,serif" font-size="14.00">VerifierRole</text>
</a>
</g>
</g>
<!-- Verifier -->
<g id="node45" class="node">
<title>Verifier</title>
<g id="a_node45"><a xlink:href="/develop/Data/models.html#verifier" xlink:title="Verifier" target="_top">
<polygon fill="#eeefff" stroke="#dddeee" points="704.64,-490 647.39,-490 647.39,-454 704.64,-454 704.64,-490"/>
<text text-anchor="middle" x="676.01" y="-466.95" font-family="Times,serif" font-size="14.00">Verifier</text>
</a>
</g>
</g>
<!-- Version -->
<g id="node46" class="node">
<title>Version</title>
<g id="a_node46"><a xlink:href="/develop/Data/models.html#version" xlink:title="Version" target="_top">
<polygon fill="#eeefff" stroke="#dddeee" points="493.64,-598 436.39,-598 436.39,-562 493.64,-562 493.64,-598"/>
<text text-anchor="middle" x="465.01" y="-574.95" font-family="Times,serif" font-size="14.00">Version</text>
</a>
</g>
</g>
<!-- Creator -->
<g id="node47" class="node">
<title>Creator</title>
<g id="a_node47"><a xlink:href="/develop/Data/models.html#creator" xlink:title="Creator" target="_top">
<polygon fill="#eeefff" stroke="#dddeee" points="704.26,-36 647.76,-36 647.76,0 704.26,0 704.26,-36"/>
<text text-anchor="middle" x="676.01" y="-12.95" font-family="Times,serif" font-size="14.00">Creator</text>
</a>
</g>
</g>
<!-- Parent -->
<g id="node48" class="node">
<title>Parent</title>
<g id="a_node48"><a xlink:href="/develop/Data/models.html#parent" xlink:title="Parent" target="_top">
<polygon fill="#eeefff" stroke="#dddeee" points="492.01,-1486 438.01,-1486 438.01,-1450 492.01,-1450 492.01,-1486"/>
<text text-anchor="middle" x="465.01" y="-1462.95" font-family="Times,serif" font-size="14.00">Parent</text>
</a>
</g>
</g>
<!-- Project -->
<g id="node49" class="node">
<title>Project</title>
<g id="a_node49"><a xlink:href="/develop/Data/models.html#project" xlink:title="Project" target="_top">
<polygon fill="#eeefff" stroke="#dddeee" points="492.14,-36 437.89,-36 437.89,0 492.14,0 492.14,-36"/>
<text text-anchor="middle" x="465.01" y="-12.95" font-family="Times,serif" font-size="14.00">Project</text>
</a>
</g>
</g>
<!-- Updater -->
<g id="node50" class="node">
<title>Updater</title>
<g id="a_node50"><a xlink:href="/develop/Data/models.html#updater" xlink:title="Updater" target="_top">
<polygon fill="#eeefff" stroke="#dddeee" points="864.26,-36 804.76,-36 804.76,0 864.26,0 864.26,-36"/>
<text text-anchor="middle" x="834.51" y="-12.95" font-family="Times,serif" font-size="14.00">Updater</text>
</a>
</g>
</g>
<!-- ValidTaxonName -->
<g id="node51" class="node">
<title>ValidTaxonName</title>
<g id="a_node51"><a xlink:href="/develop/Data/models.html#valid-taxon-name" xlink:title="ValidTaxonName" target="_top">
<polygon fill="#eeefff" stroke="#dddeee" points="521.01,-1394 409.01,-1394 409.01,-1358 521.01,-1358 521.01,-1394"/>
<text text-anchor="middle" x="465.01" y="-1370.95" font-family="Times,serif" font-size="14.00">ValidTaxonName</text>
</a>
</g>
</g>
<!-- FamilyGroupNameFormRelationship -->
<g id="node52" class="node">
<title>FamilyGroupNameFormRelationship</title>
<g id="a_node52"><a xlink:href="/develop/Data/models.html#family-group-name-form-relationship" xlink:title="FamilyGroupNameFormRelationship" target="_top">
<polygon fill="#eeefff" stroke="#dddeee" points="575.39,-1340 354.64,-1340 354.64,-1304 575.39,-1304 575.39,-1340"/>
<text text-anchor="middle" x="465.01" y="-1316.95" font-family="Times,serif" font-size="14.00">FamilyGroupNameFormRelationship</text>
</a>
</g>
</g>
<!-- OriginCitation -->
<g id="node53" class="node">
<title>OriginCitation</title>
<g id="a_node53"><a xlink:href="/develop/Data/models.html#origin-citation" xlink:title="OriginCitation" target="_top">
<polygon fill="#eeefff" stroke="#dddeee" points="723.39,-1470 628.64,-1470 628.64,-1434 723.39,-1434 723.39,-1470"/>
<text text-anchor="middle" x="676.01" y="-1446.95" font-family="Times,serif" font-size="14.00">OriginCitation</text>
</a>
</g>
</g>
<!-- SourceClassifiedA -->
<g id="node54" class="node">
<title>SourceClassifiedA</title>
<g id="a_node54"><a xlink:href="/develop/Data/models.html#source-classified-a" xlink:title="SourceClassifiedA" target="_top">
<polygon fill="#eeefff" stroke="#dddeee" points="523.64,-1230 406.39,-1230 406.39,-1194 523.64,-1194 523.64,-1230"/>
<text text-anchor="middle" x="465.01" y="-1206.95" font-family="Times,serif" font-size="14.00">SourceClassifiedA</text>
</a>
</g>
</g>
<!-- SourceClassifiedAsRelationship -->
<g id="node55" class="node">
<title>SourceClassifiedAsRelationship</title>
<g id="a_node55"><a xlink:href="/develop/Data/models.html#source-classified-as-relationship" xlink:title="SourceClassifiedAsRelationship" target="_top">
<polygon fill="#eeefff" stroke="#dddeee" points="560.39,-1176 369.64,-1176 369.64,-1140 560.39,-1140 560.39,-1176"/>
<text text-anchor="middle" x="465.01" y="-1152.95" font-family="Times,serif" font-size="14.00">SourceClassifiedAsRelationship</text>
</a>
</g>
</g>
</g>
</svg>
