<?xml version="1.0" encoding="UTF-8" standalone="no"?>
<!DOCTYPE svg PUBLIC "-//W3C//DTD SVG 1.1//EN"
 "http://www.w3.org/Graphics/SVG/1.1/DTD/svg11.dtd">
<!-- Generated by graphviz version 2.50.0 (20211204.2007)
 -->
<!-- Title: TaxonName Pages: 1 -->
<svg width="879pt" height="1372pt"
 viewBox="0.00 0.00 879.39 1371.50" xmlns="http://www.w3.org/2000/svg" xmlns:xlink="http://www.w3.org/1999/xlink">
<g id="graph0" class="graph" transform="scale(1 1) rotate(0) translate(4 1367.5)">
<title>TaxonName</title>
<polygon fill="white" stroke="transparent" points="-4,4 -4,-1367.5 875.39,-1367.5 875.39,4 -4,4"/>
<!-- AlternateValue&#45;&gt;AlternateValueLanguage -->
<g id="edge1" class="edge">
<title>AlternateValue&#45;&gt;AlternateValueLanguage</title>
<path fill="none" stroke="black" d="M119.97,-1327.12C130.61,-1328.78 141.99,-1330.55 153.31,-1332.31"/>
<polygon fill="black" stroke="black" points="152.81,-1335.78 163.23,-1333.86 153.89,-1328.86 152.81,-1335.78"/>
</g>
<!-- Citation&#45;&gt;Source -->
<g id="edge27" class="edge">
<title>Citation&#45;&gt;Source</title>
<path fill="none" stroke="black" d="M102.78,-1236.5C177.33,-1236.5 341.58,-1236.5 414.63,-1236.5"/>
<polygon fill="black" stroke="black" points="414.73,-1240 424.73,-1236.5 414.73,-1233 414.73,-1240"/>
</g>
<!-- Citation&#45;&gt;CitationTopic -->
<g id="edge5" class="edge">
<title>Citation&#45;&gt;CitationTopic</title>
<path fill="none" stroke="black" d="M96.46,-1246.59C120.57,-1254.24 154.31,-1264.96 182.79,-1274"/>
<polygon fill="black" stroke="black" points="182.03,-1277.43 192.62,-1277.13 184.15,-1270.76 182.03,-1277.43"/>
</g>
<!-- Confidence&#45;&gt;ConfidenceLevel -->
<g id="edge9" class="edge">
<title>Confidence&#45;&gt;ConfidenceLevel</title>
<path fill="none" stroke="black" d="M114.79,-647.5C133.34,-647.5 154.62,-647.5 174.21,-647.5"/>
<polygon fill="black" stroke="black" points="174.28,-651 184.28,-647.5 174.28,-644 174.28,-651"/>
</g>
<!-- Depiction&#45;&gt;Image -->
<g id="edge16" class="edge">
<title>Depiction&#45;&gt;Image</title>
<path fill="none" stroke="black" d="M109.3,-593.5C137.96,-593.5 174.73,-593.5 201.61,-593.5"/>
<polygon fill="black" stroke="black" points="201.74,-597 211.74,-593.5 201.74,-590 201.74,-597"/>
</g>
<!-- Tag&#45;&gt;Keyword -->
<g id="edge17" class="edge">
<title>Tag&#45;&gt;Keyword</title>
<path fill="none" stroke="black" d="M91,-539.5C118.58,-539.5 162.36,-539.5 194.96,-539.5"/>
<polygon fill="black" stroke="black" points="195.11,-543 205.11,-539.5 195.11,-536 195.11,-543"/>
</g>
<!-- TaxonName&#45;&gt;AlternateValue -->
<g id="edge2" class="edge">
<title>TaxonName&#45;&gt;AlternateValue</title>
<path fill="none" stroke="black" d="M238.43,-727.75C239.39,-806.63 234.32,-1078.07 127.39,-1263.5 120.24,-1275.89 109.27,-1286.91 98.49,-1295.78"/>
<polygon fill="black" stroke="black" points="96.09,-1293.21 90.36,-1302.12 100.4,-1298.73 96.09,-1293.21"/>
</g>
<!-- TaxonName&#45;&gt;Citation -->
<g id="edge6" class="edge">
<title>TaxonName&#45;&gt;Citation</title>
<path fill="none" stroke="black" d="M230.63,-727.75C202.96,-812.58 104.12,-1115.61 73.68,-1208.94"/>
<polygon fill="black" stroke="black" points="70.33,-1207.94 70.56,-1218.53 76.98,-1210.11 70.33,-1207.94"/>
</g>
<!-- TaxonName&#45;&gt;Confidence -->
<g id="edge10" class="edge">
<title>TaxonName&#45;&gt;Confidence</title>
<path fill="none" stroke="black" d="M191.94,-690.11C166.96,-681.75 136.13,-671.42 111.07,-663.03"/>
<polygon fill="black" stroke="black" points="112.02,-659.66 101.42,-659.8 109.8,-666.29 112.02,-659.66"/>
</g>
<!-- TaxonName&#45;&gt;DataAttribute -->
<g id="edge11" class="edge">
<title>TaxonName&#45;&gt;DataAttribute</title>
<path fill="none" stroke="black" d="M210.74,-726.74C188.97,-743.19 157.22,-765.91 127.39,-782.5 121.88,-785.56 115.96,-788.52 110.03,-791.28"/>
<polygon fill="black" stroke="black" points="108.46,-788.15 100.77,-795.44 111.33,-794.53 108.46,-788.15"/>
</g>
<!-- TaxonName&#45;&gt;Depiction -->
<g id="edge12" class="edge">
<title>TaxonName&#45;&gt;Depiction</title>
<path fill="none" stroke="black" d="M190.21,-690.59C180.74,-686.31 171.29,-681 163.39,-674.5 141.12,-656.17 149.55,-638.97 127.39,-620.5 122.01,-616.01 115.77,-612.16 109.35,-608.89"/>
<polygon fill="black" stroke="black" points="110.45,-605.54 99.91,-604.5 107.5,-611.89 110.45,-605.54"/>
</g>
<!-- TaxonName&#45;&gt;Identifier -->
<g id="edge15" class="edge">
<title>TaxonName&#45;&gt;Identifier</title>
<path fill="none" stroke="black" d="M188.12,-719.87C163.28,-727.04 133.46,-735.65 109.35,-742.61"/>
<polygon fill="black" stroke="black" points="108.38,-739.25 99.74,-745.38 110.32,-745.97 108.38,-739.25"/>
</g>
<!-- TaxonName&#45;&gt;Tag -->
<g id="edge30" class="edge">
<title>TaxonName&#45;&gt;Tag</title>
<path fill="none" stroke="black" d="M187.25,-691.37C178.42,-687.09 169.97,-681.58 163.39,-674.5 128.93,-637.45 161.62,-603.76 127.39,-566.5 119.86,-558.3 109.41,-552.48 99.19,-548.4"/>
<polygon fill="black" stroke="black" points="100.18,-545.04 89.58,-545 97.84,-551.63 100.18,-545.04"/>
</g>
<!-- TaxonName&#45;&gt;Note -->
<g id="edge18" class="edge">
<title>TaxonName&#45;&gt;Note</title>
<path fill="none" stroke="black" d="M175.48,-704.06C150.78,-703.49 123.21,-702.85 101.76,-702.36"/>
<polygon fill="black" stroke="black" points="101.83,-698.86 91.76,-702.12 101.67,-705.86 101.83,-698.86"/>
</g>
<!-- TaxonName&#45;&gt;Otu -->
<g id="edge21" class="edge">
<title>TaxonName&#45;&gt;Otu</title>
<path fill="none" stroke="black" d="M292.87,-692.28C301.27,-687.93 308.96,-682.16 314.39,-674.5 395.25,-560.48 262.69,-155.35 350.39,-46.5 365.59,-27.63 392.36,-20.83 414.45,-18.65"/>
<polygon fill="black" stroke="black" points="414.8,-22.13 424.53,-17.93 414.3,-15.15 414.8,-22.13"/>
</g>
<!-- TaxonName&#45;&gt;Source -->
<g id="edge46" class="edge">
<title>TaxonName&#45;&gt;Source</title>
<path fill="none" stroke="black" stroke-dasharray="1,5" d="M242.9,-737.7C252.78,-836.64 287.22,-1133.75 350.39,-1203.5 369.37,-1224.46 401.89,-1232.15 424.78,-1234.94"/>
<polygon fill="black" stroke="black" points="246.38,-737.3 241.92,-727.69 239.42,-737.99 246.38,-737.3"/>
</g>
<!-- TaxonName&#45;&gt;AncestorHierarchy -->
<g id="edge3" class="edge">
<title>TaxonName&#45;&gt;AncestorHierarchy</title>
<path fill="none" stroke="black" d="M292.32,-718.92C319.51,-725.88 353.07,-734.47 382.3,-741.95"/>
<polygon fill="black" stroke="black" points="381.47,-745.35 392.03,-744.44 383.21,-738.57 381.47,-745.35"/>
</g>
<!-- TaxonName&#45;&gt;Child -->
<g id="edge4" class="edge">
<title>TaxonName&#45;&gt;Child</title>
<path fill="none" stroke="black" d="M302.05,-705.5C338.59,-705.5 383.52,-705.5 414.4,-705.5"/>
<polygon fill="black" stroke="black" points="414.7,-709 424.7,-705.5 414.7,-702 414.7,-709"/>
</g>
<!-- TaxonName&#45;&gt;ClassifiedAsUnavailableOrInvalid -->
<g id="edge7" class="edge">
<title>TaxonName&#45;&gt;ClassifiedAsUnavailableOrInvalid</title>
<path fill="none" stroke="black" d="M292.32,-692.08C315.91,-686.04 344.29,-678.78 370.48,-672.08"/>
<polygon fill="black" stroke="black" points="371.58,-675.41 380.4,-669.54 369.84,-668.63 371.58,-675.41"/>
</g>
<!-- TaxonName&#45;&gt;DescendantHierarchy -->
<g id="edge13" class="edge">
<title>TaxonName&#45;&gt;DescendantHierarchy</title>
<path fill="none" stroke="black" d="M287.39,-690.37C296.88,-686.11 306.38,-680.85 314.39,-674.5 335.84,-657.48 327.86,-640.07 350.39,-624.5 357.92,-619.3 366.41,-615.09 375.18,-611.7"/>
<polygon fill="black" stroke="black" points="376.5,-614.95 384.77,-608.33 374.18,-608.34 376.5,-614.95"/>
</g>
<!-- TaxonName&#45;&gt;HistoricalTaxonName -->
<g id="edge14" class="edge">
<title>TaxonName&#45;&gt;HistoricalTaxonName</title>
<path fill="none" stroke="black" d="M290.47,-691.31C299.3,-687.04 307.77,-681.54 314.39,-674.5 347.9,-638.87 314.6,-603.84 350.39,-570.5 357.14,-564.21 365.19,-559.36 373.75,-555.62"/>
<polygon fill="black" stroke="black" points="375.14,-558.84 383.22,-551.98 372.63,-552.31 375.14,-558.84"/>
</g>
<!-- TaxonName&#45;&gt;ObservationMatrixRowItem -->
<g id="edge20" class="edge">
<title>TaxonName&#45;&gt;ObservationMatrixRowItem</title>
<path fill="none" stroke="black" d="M291.48,-691.69C300.12,-687.39 308.25,-681.78 314.39,-674.5 360.8,-619.43 300.45,-568.4 350.39,-516.5 352.71,-514.09 355.21,-511.89 357.87,-509.88"/>
<polygon fill="black" stroke="black" points="359.8,-512.8 366.26,-504.4 355.97,-506.94 359.8,-512.8"/>
</g>
<!-- TaxonName&#45;&gt;PinboardItem -->
<g id="edge22" class="edge">
<title>TaxonName&#45;&gt;PinboardItem</title>
<path fill="none" stroke="black" d="M292.4,-691.93C300.84,-687.61 308.67,-681.94 314.39,-674.5 387.11,-579.93 260.55,-487 350.39,-408.5 422.03,-345.9 542.88,-384.77 608.21,-413.3"/>
<polygon fill="black" stroke="black" points="606.88,-416.54 617.43,-417.42 609.73,-410.15 606.88,-416.54"/>
</g>
<!-- TaxonName&#45;&gt;RelatedTaxonNameRelationship -->
<g id="edge23" class="edge">
<title>TaxonName&#45;&gt;RelatedTaxonNameRelationship</title>
<path fill="none" stroke="black" d="M292.49,-691.99C300.92,-687.67 308.72,-681.98 314.39,-674.5 395.2,-567.8 265.07,-478.63 350.39,-375.5 352.74,-372.66 355.33,-370.07 358.13,-367.71"/>
<polygon fill="black" stroke="black" points="360.46,-370.35 366.49,-361.64 356.34,-364.69 360.46,-370.35"/>
</g>
<!-- TaxonName&#45;&gt;Role -->
<g id="edge24" class="edge">
<title>TaxonName&#45;&gt;Role</title>
<path fill="none" stroke="black" d="M292.69,-692.14C301.1,-687.81 308.85,-682.07 314.39,-674.5 368.67,-600.34 291.34,-332.93 350.39,-262.5 365.92,-243.98 392.67,-237.44 414.67,-235.42"/>
<polygon fill="black" stroke="black" points="414.95,-238.91 424.7,-234.77 414.5,-231.92 414.95,-238.91"/>
</g>
<!-- TaxonName&#45;&gt;SubsequentCitation -->
<g id="edge28" class="edge">
<title>TaxonName&#45;&gt;SubsequentCitation</title>
<path fill="none" stroke="black" d="M242.2,-727.68C251.25,-810.34 286.95,-1098.94 350.39,-1161.5 354.6,-1165.65 495.03,-1196.45 583.22,-1215.47"/>
<polygon fill="black" stroke="black" points="582.65,-1218.93 593.17,-1217.62 584.13,-1212.09 582.65,-1218.93"/>
</g>
<!-- TaxonName&#45;&gt;TaxonNameAuthorRole -->
<g id="edge32" class="edge">
<title>TaxonName&#45;&gt;TaxonNameAuthorRole</title>
<path fill="none" stroke="black" d="M292.75,-692.19C301.16,-687.85 308.88,-682.1 314.39,-674.5 375.31,-590.38 284.06,-288.42 350.39,-208.5 355.46,-202.39 361.75,-197.58 368.69,-193.81"/>
<polygon fill="black" stroke="black" points="370.21,-196.96 377.79,-189.57 367.25,-190.62 370.21,-196.96"/>
</g>
<!-- TaxonName&#45;&gt;TaxonNameClassification -->
<g id="edge34" class="edge">
<title>TaxonName&#45;&gt;TaxonNameClassification</title>
<path fill="none" stroke="black" d="M292.8,-692.23C301.2,-687.88 308.91,-682.12 314.39,-674.5 381.96,-580.42 276.77,-243.93 350.39,-154.5 354.21,-149.85 358.75,-145.96 363.73,-142.7"/>
<polygon fill="black" stroke="black" points="365.49,-145.73 372.52,-137.79 362.08,-139.61 365.49,-145.73"/>
</g>
<!-- TaxonName&#45;&gt;TaxonNameRelationship -->
<g id="edge35" class="edge">
<title>TaxonName&#45;&gt;TaxonNameRelationship</title>
<path fill="none" stroke="black" d="M292.84,-692.25C301.24,-687.91 308.94,-682.14 314.39,-674.5 388.6,-570.45 269.48,-199.44 350.39,-100.5 354.85,-95.05 360.27,-90.63 366.28,-87.06"/>
<polygon fill="black" stroke="black" points="368.1,-90.06 375.43,-82.41 364.93,-83.82 368.1,-90.06"/>
</g>
<!-- TaxonName&#45;&gt;VerifierRole -->
<g id="edge37" class="edge">
<title>TaxonName&#45;&gt;VerifierRole</title>
<path fill="none" stroke="black" d="M292.61,-692.08C301.03,-687.75 308.8,-682.04 314.39,-674.5 409.68,-546.08 246.85,-438.37 350.39,-316.5 362.73,-301.98 381.96,-294.84 400.31,-291.47"/>
<polygon fill="black" stroke="black" points="400.99,-294.9 410.36,-289.95 399.95,-287.98 400.99,-294.9"/>
</g>
<!-- TaxonName&#45;&gt;Version -->
<g id="edge39" class="edge">
<title>TaxonName&#45;&gt;Version</title>
<path fill="none" stroke="black" d="M291.81,-691.96C300.42,-687.63 308.46,-681.95 314.39,-674.5 373.91,-599.73 286.07,-533.19 350.39,-462.5 366.06,-445.27 391.43,-438.55 412.76,-436.12"/>
<polygon fill="black" stroke="black" points="413.19,-439.6 422.85,-435.24 412.58,-432.62 413.19,-439.6"/>
</g>
<!-- TaxonName&#45;&gt;Creator -->
<g id="edge40" class="edge">
<title>TaxonName&#45;&gt;Creator</title>
<path fill="none" stroke="black" stroke-dasharray="5,2" d="M270.96,-734.21C291.9,-751.98 320.97,-773.76 350.39,-786.5 434.61,-822.99 475.58,-775.81 553.39,-824.5 599.38,-853.28 631.33,-911.5 645.36,-941.19"/>
<polygon fill="black" stroke="black" points="273.21,-731.52 263.36,-727.63 268.63,-736.82 273.21,-731.52"/>
</g>
<!-- TaxonName&#45;&gt;Parent -->
<g id="edge41" class="edge">
<title>TaxonName&#45;&gt;Parent</title>
<path fill="none" stroke="black" stroke-dasharray="5,2" d="M240.85,-737.92C244.62,-804.61 262.91,-957.8 350.39,-1040.5 370.34,-1059.37 402.03,-1065.35 424.49,-1067.09"/>
<polygon fill="black" stroke="black" points="244.33,-737.43 240.34,-727.62 237.33,-737.78 244.33,-737.43"/>
</g>
<!-- TaxonName&#45;&gt;Project -->
<g id="edge42" class="edge">
<title>TaxonName&#45;&gt;Project</title>
<path fill="none" stroke="black" stroke-dasharray="5,2" d="M246.54,-737.53C258.5,-786.92 288.38,-881.31 350.39,-932.5 371.29,-949.75 402.2,-956.06 424.22,-958.32"/>
<polygon fill="black" stroke="black" points="249.93,-736.65 244.26,-727.7 243.11,-738.23 249.93,-736.65"/>
</g>
<!-- TaxonName&#45;&gt;Updater -->
<g id="edge43" class="edge">
<title>TaxonName&#45;&gt;Updater</title>
<path fill="none" stroke="black" stroke-dasharray="5,2" d="M244.09,-737.81C255.9,-823.09 292.37,-1050.67 350.39,-1094.5 422.38,-1148.89 465.76,-1115.97 553.39,-1094.5 646.47,-1071.7 743.28,-1008.98 787.58,-977.72"/>
<polygon fill="black" stroke="black" points="247.52,-737.11 242.71,-727.68 240.59,-738.06 247.52,-737.11"/>
</g>
<!-- TaxonName&#45;&gt;ValidTaxonName -->
<g id="edge44" class="edge">
<title>TaxonName&#45;&gt;ValidTaxonName</title>
<path fill="none" stroke="black" stroke-dasharray="5,2" d="M243.19,-737.65C250.94,-796.06 275.69,-919.75 350.39,-986.5 362.78,-997.58 379.25,-1004.18 395.26,-1008.09"/>
<polygon fill="black" stroke="black" points="246.64,-737.02 241.93,-727.53 239.69,-737.88 246.64,-737.02"/>
</g>
<!-- TaxonName&#45;&gt;OriginCitation -->
<g id="edge45" class="edge">
<title>TaxonName&#45;&gt;OriginCitation</title>
<path fill="none" stroke="black" stroke-dasharray="1,5" d="M243.72,-737.62C255.04,-826.89 291.3,-1074.85 350.39,-1127.5 387.38,-1160.46 531.29,-1168.22 606.7,-1170"/>
<polygon fill="black" stroke="black" points="247.17,-737.03 242.46,-727.55 240.23,-737.9 247.17,-737.03"/>
</g>
<!-- TaxonName&#45;&gt;SourceClassifiedA -->
<g id="edge47" class="edge">
<title>TaxonName&#45;&gt;SourceClassifiedA</title>
<path fill="none" stroke="black" stroke-dasharray="1,5" d="M251.56,-736.87C267.73,-775.98 300.7,-842.09 350.39,-878.5 362.92,-887.68 378.38,-893.74 393.37,-897.74"/>
<polygon fill="black" stroke="black" points="254.79,-735.52 247.81,-727.55 248.3,-738.13 254.79,-735.52"/>
</g>
<!-- TaxonName&#45;&gt;SourceClassifiedAsRelationship -->
<g id="edge48" class="edge">
<title>TaxonName&#45;&gt;SourceClassifiedAsRelationship</title>
<path fill="none" stroke="black" stroke-dasharray="1,5" d="M261.95,-735.48C282.28,-761.15 314.66,-797.36 350.39,-819.5 359.18,-824.95 368.99,-829.55 378.94,-833.41"/>
<polygon fill="black" stroke="black" points="264.68,-733.3 255.78,-727.55 259.16,-737.59 264.68,-733.3"/>
</g>
<!-- Otu&#45;&gt;TaxonDetermination -->
<g id="edge31" class="edge">
<title>Otu&#45;&gt;TaxonDetermination</title>
<path fill="none" stroke="black" d="M479.1,-18.5C504.41,-18.5 543.95,-18.5 578.98,-18.5"/>
<polygon fill="black" stroke="black" points="579.2,-22 589.2,-18.5 579.2,-15 579.2,-22"/>
</g>
<!-- Source&#45;&gt;SubsequentCitation -->
<!-- Source&#45;&gt;OriginCitation -->
<!-- AncestorHierarchy&#45;&gt;SelfAndAncestor -->
<g id="edge25" class="edge">
<title>AncestorHierarchy&#45;&gt;SelfAndAncestor</title>
<path fill="none" stroke="black" d="M511.42,-759.5C535.8,-759.5 564.19,-759.5 589.15,-759.5"/>
<polygon fill="black" stroke="black" points="589.25,-763 599.25,-759.5 589.25,-756 589.25,-763"/>
</g>
<!-- CitationTopic&#45;&gt;Topic -->
<g id="edge36" class="edge">
<title>CitationTopic&#45;&gt;Topic</title>
<path fill="none" stroke="black" d="M284.89,-1291.5C323.67,-1291.5 378.91,-1291.5 414.83,-1291.5"/>
<polygon fill="black" stroke="black" points="414.87,-1295 424.87,-1291.5 414.87,-1288 414.87,-1295"/>
</g>
<!-- TaxonDetermination&#45;&gt;CollectionObject -->
<g id="edge8" class="edge">
<title>TaxonDetermination&#45;&gt;CollectionObject</title>
<path fill="none" stroke="black" d="M719.7,-18.5C729.15,-18.5 738.89,-18.5 748.34,-18.5"/>
<polygon fill="black" stroke="black" points="748.45,-22 758.45,-18.5 748.45,-15 748.45,-22"/>
</g>
<!-- DescendantHierarchy&#45;&gt;SelfAndDescendant -->
<g id="edge26" class="edge">
<title>DescendantHierarchy&#45;&gt;SelfAndDescendant</title>
<path fill="none" stroke="black" d="M519.1,-597.5C539.1,-597.5 561.15,-597.5 581.51,-597.5"/>
<polygon fill="black" stroke="black" points="581.66,-601 591.66,-597.5 581.66,-594 581.66,-601"/>
</g>
<!-- ObservationMatrixRowItem&#45;&gt;ObservationMatrix -->
<g id="edge19" class="edge">
<title>ObservationMatrixRowItem&#45;&gt;ObservationMatrix</title>
<path fill="none" stroke="black" d="M537.63,-489.5C553.09,-489.5 569.05,-489.5 583.99,-489.5"/>
<polygon fill="black" stroke="black" points="584.16,-493 594.16,-489.5 584.16,-486 584.16,-493"/>
</g>
<!-- Role&#45;&gt;Verifier -->
<!-- SubsequentCitation&#45;&gt;SubsequentSource -->
<g id="edge29" class="edge">
<title>SubsequentCitation&#45;&gt;SubsequentSource</title>
<path fill="none" stroke="black" d="M715.64,-1230.5C725.27,-1230.5 735.28,-1230.5 745.06,-1230.5"/>
<polygon fill="black" stroke="black" points="745.14,-1234 755.14,-1230.5 745.14,-1227 745.14,-1234"/>
</g>
<!-- TaxonNameAuthorRole&#45;&gt;TaxonNameAuthor -->
<g id="edge33" class="edge">
<title>TaxonNameAuthorRole&#45;&gt;TaxonNameAuthor</title>
<path fill="none" stroke="black" d="M526.12,-181.5C544.72,-181.5 564.65,-181.5 583.1,-181.5"/>
<polygon fill="black" stroke="black" points="583.17,-185 593.17,-181.5 583.17,-178 583.17,-185"/>
</g>
<!-- VerifierRole&#45;&gt;Verifier -->
<g id="edge38" class="edge">
<title>VerifierRole&#45;&gt;Verifier</title>
<path fill="none" stroke="black" d="M493.46,-284.04C529.14,-279.23 580.66,-272.29 615.5,-267.6"/>
<polygon fill="black" stroke="black" points="616.3,-271.03 625.75,-266.22 615.37,-264.09 616.3,-271.03"/>
</g>
<!-- Version&#45;&gt;PinboardItem -->
<!-- Creator&#45;&gt;Updater -->
<!-- Project&#45;&gt;Creator -->
<!-- AlternateValue -->
<g id="node1" class="node">
<title>AlternateValue</title>
<g id="a_node1"><a xlink:href="/develop/Data/models.html#alternate-value" xlink:title="AlternateValue" target="_top">
<ellipse fill="#abcdef" stroke="#dddeee" cx="63.69" cy="-1318.5" rx="63.89" ry="18"/>
<text text-anchor="middle" x="63.69" y="-1314.8" font-family="Times,serif" font-size="14.00">AlternateValue</text>
</a>
</g>
</g>
<!-- Citation -->
<g id="node2" class="node">
<title>Citation</title>
<g id="a_node2"><a xlink:href="/develop/Data/models.html#citation" xlink:title="Citation" target="_top">
<ellipse fill="#abcdef" stroke="#dddeee" cx="63.69" cy="-1236.5" rx="38.99" ry="18"/>
<text text-anchor="middle" x="63.69" y="-1232.8" font-family="Times,serif" font-size="14.00">Citation</text>
</a>
</g>
</g>
<!-- Confidence -->
<g id="node3" class="node">
<title>Confidence</title>
<g id="a_node3"><a xlink:href="/develop/Data/models.html#confidence" xlink:title="Confidence" target="_top">
<ellipse fill="#abcdef" stroke="#dddeee" cx="63.69" cy="-647.5" rx="50.89" ry="18"/>
<text text-anchor="middle" x="63.69" y="-643.8" font-family="Times,serif" font-size="14.00">Confidence</text>
</a>
</g>
</g>
<!-- DataAttribute -->
<g id="node4" class="node">
<title>DataAttribute</title>
<g id="a_node4"><a xlink:href="/develop/Data/models.html#data-attribute" xlink:title="DataAttribute" target="_top">
<ellipse fill="#abcdef" stroke="#dddeee" cx="63.69" cy="-809.5" rx="59.29" ry="18"/>
<text text-anchor="middle" x="63.69" y="-805.8" font-family="Times,serif" font-size="14.00">DataAttribute</text>
</a>
</g>
</g>
<!-- Depiction -->
<g id="node5" class="node">
<title>Depiction</title>
<g id="a_node5"><a xlink:href="/develop/Data/models.html#depiction" xlink:title="Depiction" target="_top">
<ellipse fill="#abcdef" stroke="#dddeee" cx="63.69" cy="-593.5" rx="45.49" ry="18"/>
<text text-anchor="middle" x="63.69" y="-589.8" font-family="Times,serif" font-size="14.00">Depiction</text>
</a>
</g>
</g>
<!-- Identifier -->
<g id="node6" class="node">
<title>Identifier</title>
<g id="a_node6"><a xlink:href="/develop/Data/models.html#identifier" xlink:title="Identifier" target="_top">
<ellipse fill="#abcdef" stroke="#dddeee" cx="63.69" cy="-755.5" rx="42.79" ry="18"/>
<text text-anchor="middle" x="63.69" y="-751.8" font-family="Times,serif" font-size="14.00">Identifier</text>
</a>
</g>
</g>
<!-- Tag -->
<g id="node7" class="node">
<title>Tag</title>
<g id="a_node7"><a xlink:href="/develop/Data/models.html#tag" xlink:title="Tag" target="_top">
<ellipse fill="#abcdef" stroke="#dddeee" cx="63.69" cy="-539.5" rx="27" ry="18"/>
<text text-anchor="middle" x="63.69" y="-535.8" font-family="Times,serif" font-size="14.00">Tag</text>
</a>
</g>
</g>
<!-- Note -->
<g id="node8" class="node">
<title>Note</title>
<g id="a_node8"><a xlink:href="/develop/Data/models.html#note" xlink:title="Note" target="_top">
<ellipse fill="#abcdef" stroke="#dddeee" cx="63.69" cy="-701.5" rx="27.9" ry="18"/>
<text text-anchor="middle" x="63.69" y="-697.8" font-family="Times,serif" font-size="14.00">Note</text>
</a>
</g>
</g>
<!-- TaxonName -->
<g id="node9" class="node">
<title>TaxonName</title>
<g id="a_node9"><a xlink:href="/develop/Data/models.html#taxon-name" xlink:title="TaxonName" target="_top">
<polygon fill="#cdefab" stroke="#dedede" points="298.07,-698.04 298.07,-712.96 263.4,-723.5 214.38,-723.5 179.71,-712.96 179.71,-698.04 214.38,-687.5 263.4,-687.5 298.07,-698.04"/>
<polygon fill="none" stroke="#dedede" points="302.08,-695.08 302.08,-715.92 264,-727.5 213.78,-727.5 175.7,-715.92 175.7,-695.08 213.78,-683.5 264,-683.5 302.08,-695.08"/>
<text text-anchor="middle" x="238.89" y="-701.8" font-family="Times,serif" font-size="14.00">TaxonName</text>
</a>
</g>
</g>
<!-- CollectionObject -->
<g id="node10" class="node">
<title>CollectionObject</title>
<g id="a_node10"><a xlink:href="/develop/Data/models.html#collection-object" xlink:title="CollectionObject" target="_top">
<path fill="#fedcba" stroke="#dddeee" d="M770.89,-0.5C770.89,-0.5 855.89,-0.5 855.89,-0.5 861.89,-0.5 867.89,-6.5 867.89,-12.5 867.89,-12.5 867.89,-24.5 867.89,-24.5 867.89,-30.5 861.89,-36.5 855.89,-36.5 855.89,-36.5 770.89,-36.5 770.89,-36.5 764.89,-36.5 758.89,-30.5 758.89,-24.5 758.89,-24.5 758.89,-12.5 758.89,-12.5 758.89,-6.5 764.89,-0.5 770.89,-0.5"/>
<text text-anchor="middle" x="813.39" y="-14.8" font-family="Times,serif" font-size="14.00">CollectionObject</text>
</a>
</g>
</g>
<!-- Otu -->
<g id="node11" class="node">
<title>Otu</title>
<g id="a_node11"><a xlink:href="/develop/Data/models.html#otu" xlink:title="Otu" target="_top">
<path fill="#fedcba" stroke="#dddeee" d="M436.89,-0.5C436.89,-0.5 466.89,-0.5 466.89,-0.5 472.89,-0.5 478.89,-6.5 478.89,-12.5 478.89,-12.5 478.89,-24.5 478.89,-24.5 478.89,-30.5 472.89,-36.5 466.89,-36.5 466.89,-36.5 436.89,-36.5 436.89,-36.5 430.89,-36.5 424.89,-30.5 424.89,-24.5 424.89,-24.5 424.89,-12.5 424.89,-12.5 424.89,-6.5 430.89,-0.5 436.89,-0.5"/>
<text text-anchor="middle" x="451.89" y="-14.8" font-family="Times,serif" font-size="14.00">Otu</text>
</a>
</g>
</g>
<!-- Source -->
<g id="node12" class="node">
<title>Source</title>
<g id="a_node12"><a xlink:href="/develop/Data/models.html#source" xlink:title="Source" target="_top">
<path fill="#fedcba" stroke="#dddeee" d="M436.89,-1218.5C436.89,-1218.5 466.89,-1218.5 466.89,-1218.5 472.89,-1218.5 478.89,-1224.5 478.89,-1230.5 478.89,-1230.5 478.89,-1242.5 478.89,-1242.5 478.89,-1248.5 472.89,-1254.5 466.89,-1254.5 466.89,-1254.5 436.89,-1254.5 436.89,-1254.5 430.89,-1254.5 424.89,-1248.5 424.89,-1242.5 424.89,-1242.5 424.89,-1230.5 424.89,-1230.5 424.89,-1224.5 430.89,-1218.5 436.89,-1218.5"/>
<text text-anchor="middle" x="451.89" y="-1232.8" font-family="Times,serif" font-size="14.00">Source</text>
</a>
</g>
</g>
<!-- AlternateValueLanguage -->
<g id="node13" class="node">
<title>AlternateValueLanguage</title>
<g id="a_node13"><a xlink:href="/develop/Data/models.html#alternate-value-language" xlink:title="AlternateValueLanguage" target="_top">
<polygon fill="#eeefff" stroke="#dddeee" points="314.39,-1363.5 163.39,-1363.5 163.39,-1327.5 314.39,-1327.5 314.39,-1363.5"/>
<text text-anchor="middle" x="238.89" y="-1341.8" font-family="Times,serif" font-size="14.00">AlternateValueLanguage</text>
</a>
</g>
</g>
<!-- AncestorHierarchy -->
<g id="node14" class="node">
<title>AncestorHierarchy</title>
<g id="a_node14"><a xlink:href="/develop/Data/models.html#ancestor-hierarchy" xlink:title="AncestorHierarchy" target="_top">
<polygon fill="#eeefff" stroke="#dddeee" points="511.39,-777.5 392.39,-777.5 392.39,-741.5 511.39,-741.5 511.39,-777.5"/>
<text text-anchor="middle" x="451.89" y="-755.8" font-family="Times,serif" font-size="14.00">AncestorHierarchy</text>
</a>
</g>
</g>
<!-- Child -->
<g id="node15" class="node">
<title>Child</title>
<g id="a_node15"><a xlink:href="/develop/Data/models.html#child" xlink:title="Child" target="_top">
<polygon fill="#eeefff" stroke="#dddeee" points="478.89,-723.5 424.89,-723.5 424.89,-687.5 478.89,-687.5 478.89,-723.5"/>
<text text-anchor="middle" x="451.89" y="-701.8" font-family="Times,serif" font-size="14.00">Child</text>
</a>
</g>
</g>
<!-- CitationTopic -->
<g id="node16" class="node">
<title>CitationTopic</title>
<g id="a_node16"><a xlink:href="/develop/Data/models.html#citation-topic" xlink:title="CitationTopic" target="_top">
<polygon fill="#eeefff" stroke="#dddeee" points="284.89,-1309.5 192.89,-1309.5 192.89,-1273.5 284.89,-1273.5 284.89,-1309.5"/>
<text text-anchor="middle" x="238.89" y="-1287.8" font-family="Times,serif" font-size="14.00">CitationTopic</text>
</a>
</g>
</g>
<!-- ClassifiedAsUnavailableOrInvalid -->
<g id="node17" class="node">
<title>ClassifiedAsUnavailableOrInvalid</title>
<g id="a_node17"><a xlink:href="/develop/Data/models.html#classified-as-unavailable-or-invalid" xlink:title="ClassifiedAsUnavailableOrInvalid" target="_top">
<polygon fill="#eeefff" stroke="#dddeee" points="553.39,-669.5 350.39,-669.5 350.39,-633.5 553.39,-633.5 553.39,-669.5"/>
<text text-anchor="middle" x="451.89" y="-647.8" font-family="Times,serif" font-size="14.00">ClassifiedAsUnavailableOrInvalid</text>
</a>
</g>
</g>
<!-- TaxonDetermination -->
<g id="node18" class="node">
<title>TaxonDetermination</title>
<g id="a_node18"><a xlink:href="/develop/Data/models.html#taxon-determination" xlink:title="TaxonDetermination" target="_top">
<polygon fill="#eeefff" stroke="#dddeee" points="719.39,-36.5 589.39,-36.5 589.39,-0.5 719.39,-0.5 719.39,-36.5"/>
<text text-anchor="middle" x="654.39" y="-14.8" font-family="Times,serif" font-size="14.00">TaxonDetermination</text>
</a>
</g>
</g>
<!-- ConfidenceLevel -->
<g id="node19" class="node">
<title>ConfidenceLevel</title>
<g id="a_node19"><a xlink:href="/develop/Data/models.html#confidence-level" xlink:title="ConfidenceLevel" target="_top">
<polygon fill="#eeefff" stroke="#dddeee" points="293.39,-665.5 184.39,-665.5 184.39,-629.5 293.39,-629.5 293.39,-665.5"/>
<text text-anchor="middle" x="238.89" y="-643.8" font-family="Times,serif" font-size="14.00">ConfidenceLevel</text>
</a>
</g>
</g>
<!-- DescendantHierarchy -->
<g id="node20" class="node">
<title>DescendantHierarchy</title>
<g id="a_node20"><a xlink:href="/develop/Data/models.html#descendant-hierarchy" xlink:title="DescendantHierarchy" target="_top">
<polygon fill="#eeefff" stroke="#dddeee" points="518.89,-615.5 384.89,-615.5 384.89,-579.5 518.89,-579.5 518.89,-615.5"/>
<text text-anchor="middle" x="451.89" y="-593.8" font-family="Times,serif" font-size="14.00">DescendantHierarchy</text>
</a>
</g>
</g>
<!-- HistoricalTaxonName -->
<g id="node21" class="node">
<title>HistoricalTaxonName</title>
<g id="a_node21"><a xlink:href="/develop/Data/models.html#historical-taxon-name" xlink:title="HistoricalTaxonName" target="_top">
<polygon fill="#eeefff" stroke="#dddeee" points="520.39,-561.5 383.39,-561.5 383.39,-525.5 520.39,-525.5 520.39,-561.5"/>
<text text-anchor="middle" x="451.89" y="-539.8" font-family="Times,serif" font-size="14.00">HistoricalTaxonName</text>
</a>
</g>
</g>
<!-- Image -->
<g id="node22" class="node">
<title>Image</title>
<g id="a_node22"><a xlink:href="/develop/Data/models.html#image" xlink:title="Image" target="_top">
<polygon fill="#eeefff" stroke="#dddeee" points="265.89,-611.5 211.89,-611.5 211.89,-575.5 265.89,-575.5 265.89,-611.5"/>
<text text-anchor="middle" x="238.89" y="-589.8" font-family="Times,serif" font-size="14.00">Image</text>
</a>
</g>
</g>
<!-- Keyword -->
<g id="node23" class="node">
<title>Keyword</title>
<g id="a_node23"><a xlink:href="/develop/Data/models.html#keyword" xlink:title="Keyword" target="_top">
<polygon fill="#eeefff" stroke="#dddeee" points="272.39,-557.5 205.39,-557.5 205.39,-521.5 272.39,-521.5 272.39,-557.5"/>
<text text-anchor="middle" x="238.89" y="-535.8" font-family="Times,serif" font-size="14.00">Keyword</text>
</a>
</g>
</g>
<!-- ObservationMatrixRowItem -->
<g id="node24" class="node">
<title>ObservationMatrixRowItem</title>
<g id="a_node24"><a xlink:href="/develop/Data/models.html#observation-matrix-row-item" xlink:title="ObservationMatrixRowItem" target="_top">
<polygon fill="#eeefff" stroke="#dddeee" points="537.39,-507.5 366.39,-507.5 366.39,-471.5 537.39,-471.5 537.39,-507.5"/>
<text text-anchor="middle" x="451.89" y="-485.8" font-family="Times,serif" font-size="14.00">ObservationMatrixRowItem</text>
</a>
</g>
</g>
<!-- ObservationMatrix -->
<g id="node25" class="node">
<title>ObservationMatrix</title>
<g id="a_node25"><a xlink:href="/develop/Data/models.html#observation-matrix" xlink:title="ObservationMatrix" target="_top">
<polygon fill="#eeefff" stroke="#dddeee" points="714.39,-507.5 594.39,-507.5 594.39,-471.5 714.39,-471.5 714.39,-507.5"/>
<text text-anchor="middle" x="654.39" y="-485.8" font-family="Times,serif" font-size="14.00">ObservationMatrix</text>
</a>
</g>
</g>
<!-- PinboardItem -->
<g id="node26" class="node">
<title>PinboardItem</title>
<g id="a_node26"><a xlink:href="/develop/Data/models.html#pinboard-item" xlink:title="PinboardItem" target="_top">
<polygon fill="#eeefff" stroke="#dddeee" points="699.89,-453.5 608.89,-453.5 608.89,-417.5 699.89,-417.5 699.89,-453.5"/>
<text text-anchor="middle" x="654.39" y="-431.8" font-family="Times,serif" font-size="14.00">PinboardItem</text>
</a>
</g>
</g>
<!-- RelatedTaxonNameRelationship -->
<g id="node27" class="node">
<title>RelatedTaxonNameRelationship</title>
<g id="a_node27"><a xlink:href="/develop/Data/models.html#related-taxon-name-relationship" xlink:title="RelatedTaxonNameRelationship" target="_top">
<polygon fill="#eeefff" stroke="#dddeee" points="548.89,-361.5 354.89,-361.5 354.89,-325.5 548.89,-325.5 548.89,-361.5"/>
<text text-anchor="middle" x="451.89" y="-339.8" font-family="Times,serif" font-size="14.00">RelatedTaxonNameRelationship</text>
</a>
</g>
</g>
<!-- Role -->
<g id="node28" class="node">
<title>Role</title>
<g id="a_node28"><a xlink:href="/develop/Data/models.html#role" xlink:title="Role" target="_top">
<polygon fill="#eeefff" stroke="#dddeee" points="478.89,-253.5 424.89,-253.5 424.89,-217.5 478.89,-217.5 478.89,-253.5"/>
<text text-anchor="middle" x="451.89" y="-231.8" font-family="Times,serif" font-size="14.00">Role</text>
</a>
</g>
</g>
<!-- SelfAndAncestor -->
<g id="node29" class="node">
<title>SelfAndAncestor</title>
<g id="a_node29"><a xlink:href="/develop/Data/models.html#self-and-ancestor" xlink:title="SelfAndAncestor" target="_top">
<polygon fill="#eeefff" stroke="#dddeee" points="709.39,-777.5 599.39,-777.5 599.39,-741.5 709.39,-741.5 709.39,-777.5"/>
<text text-anchor="middle" x="654.39" y="-755.8" font-family="Times,serif" font-size="14.00">SelfAndAncestor</text>
</a>
</g>
</g>
<!-- SelfAndDescendant -->
<g id="node30" class="node">
<title>SelfAndDescendant</title>
<g id="a_node30"><a xlink:href="/develop/Data/models.html#self-and-descendant" xlink:title="SelfAndDescendant" target="_top">
<polygon fill="#eeefff" stroke="#dddeee" points="716.89,-615.5 591.89,-615.5 591.89,-579.5 716.89,-579.5 716.89,-615.5"/>
<text text-anchor="middle" x="654.39" y="-593.8" font-family="Times,serif" font-size="14.00">SelfAndDescendant</text>
</a>
</g>
</g>
<!-- SubsequentCitation -->
<g id="node31" class="node">
<title>SubsequentCitation</title>
<g id="a_node31"><a xlink:href="/develop/Data/models.html#subsequent-citation" xlink:title="SubsequentCitation" target="_top">
<polygon fill="#eeefff" stroke="#dddeee" points="715.39,-1248.5 593.39,-1248.5 593.39,-1212.5 715.39,-1212.5 715.39,-1248.5"/>
<text text-anchor="middle" x="654.39" y="-1226.8" font-family="Times,serif" font-size="14.00">SubsequentCitation</text>
</a>
</g>
</g>
<!-- SubsequentSource -->
<g id="node32" class="node">
<title>SubsequentSource</title>
<g id="a_node32"><a xlink:href="/develop/Data/models.html#subsequent-source" xlink:title="SubsequentSource" target="_top">
<polygon fill="#eeefff" stroke="#dddeee" points="871.39,-1248.5 755.39,-1248.5 755.39,-1212.5 871.39,-1212.5 871.39,-1248.5"/>
<text text-anchor="middle" x="813.39" y="-1226.8" font-family="Times,serif" font-size="14.00">SubsequentSource</text>
</a>
</g>
</g>
<!-- TaxonNameAuthorRole -->
<g id="node33" class="node">
<title>TaxonNameAuthorRole</title>
<g id="a_node33"><a xlink:href="/develop/Data/models.html#taxon-name-author-role" xlink:title="TaxonNameAuthorRole" target="_top">
<polygon fill="#eeefff" stroke="#dddeee" points="525.89,-199.5 377.89,-199.5 377.89,-163.5 525.89,-163.5 525.89,-199.5"/>
<text text-anchor="middle" x="451.89" y="-177.8" font-family="Times,serif" font-size="14.00">TaxonNameAuthorRole</text>
</a>
</g>
</g>
<!-- TaxonNameAuthor -->
<g id="node34" class="node">
<title>TaxonNameAuthor</title>
<g id="a_node34"><a xlink:href="/develop/Data/models.html#taxon-name-author" xlink:title="TaxonNameAuthor" target="_top">
<polygon fill="#eeefff" stroke="#dddeee" points="715.39,-199.5 593.39,-199.5 593.39,-163.5 715.39,-163.5 715.39,-199.5"/>
<text text-anchor="middle" x="654.39" y="-177.8" font-family="Times,serif" font-size="14.00">TaxonNameAuthor</text>
</a>
</g>
</g>
<!-- TaxonNameClassification -->
<g id="node35" class="node">
<title>TaxonNameClassification</title>
<g id="a_node35"><a xlink:href="/develop/Data/models.html#taxon-name-classification" xlink:title="TaxonNameClassification" target="_top">
<polygon fill="#eeefff" stroke="#dddeee" points="530.89,-145.5 372.89,-145.5 372.89,-109.5 530.89,-109.5 530.89,-145.5"/>
<text text-anchor="middle" x="451.89" y="-123.8" font-family="Times,serif" font-size="14.00">TaxonNameClassification</text>
</a>
</g>
</g>
<!-- TaxonNameRelationship -->
<g id="node36" class="node">
<title>TaxonNameRelationship</title>
<g id="a_node36"><a xlink:href="/develop/Data/models.html#taxon-name-relationship" xlink:title="TaxonNameRelationship" target="_top">
<polygon fill="#eeefff" stroke="#dddeee" points="527.89,-91.5 375.89,-91.5 375.89,-55.5 527.89,-55.5 527.89,-91.5"/>
<text text-anchor="middle" x="451.89" y="-69.8" font-family="Times,serif" font-size="14.00">TaxonNameRelationship</text>
</a>
</g>
</g>
<!-- Topic -->
<g id="node37" class="node">
<title>Topic</title>
<g id="a_node37"><a xlink:href="/develop/Data/models.html#topic" xlink:title="Topic" target="_top">
<polygon fill="#eeefff" stroke="#dddeee" points="478.89,-1309.5 424.89,-1309.5 424.89,-1273.5 478.89,-1273.5 478.89,-1309.5"/>
<text text-anchor="middle" x="451.89" y="-1287.8" font-family="Times,serif" font-size="14.00">Topic</text>
</a>
</g>
</g>
<!-- VerifierRole -->
<g id="node38" class="node">
<title>VerifierRole</title>
<g id="a_node38"><a xlink:href="/develop/Data/models.html#verifier-role" xlink:title="VerifierRole" target="_top">
<polygon fill="#eeefff" stroke="#dddeee" points="493.39,-307.5 410.39,-307.5 410.39,-271.5 493.39,-271.5 493.39,-307.5"/>
<text text-anchor="middle" x="451.89" y="-285.8" font-family="Times,serif" font-size="14.00">VerifierRole</text>
</a>
</g>
</g>
<!-- Verifier -->
<g id="node39" class="node">
<title>Verifier</title>
<g id="a_node39"><a xlink:href="/develop/Data/models.html#verifier" xlink:title="Verifier" target="_top">
<polygon fill="#eeefff" stroke="#dddeee" points="682.89,-280.5 625.89,-280.5 625.89,-244.5 682.89,-244.5 682.89,-280.5"/>
<text text-anchor="middle" x="654.39" y="-258.8" font-family="Times,serif" font-size="14.00">Verifier</text>
</a>
</g>
</g>
<!-- Version -->
<g id="node40" class="node">
<title>Version</title>
<g id="a_node40"><a xlink:href="/develop/Data/models.html#version" xlink:title="Version" target="_top">
<polygon fill="#eeefff" stroke="#dddeee" points="480.89,-453.5 422.89,-453.5 422.89,-417.5 480.89,-417.5 480.89,-453.5"/>
<text text-anchor="middle" x="451.89" y="-431.8" font-family="Times,serif" font-size="14.00">Version</text>
</a>
</g>
</g>
<!-- Creator -->
<g id="node41" class="node">
<title>Creator</title>
<g id="a_node41"><a xlink:href="/develop/Data/models.html#creator" xlink:title="Creator" target="_top">
<polygon fill="#eeefff" stroke="#dddeee" points="682.89,-977.5 625.89,-977.5 625.89,-941.5 682.89,-941.5 682.89,-977.5"/>
<text text-anchor="middle" x="654.39" y="-955.8" font-family="Times,serif" font-size="14.00">Creator</text>
</a>
</g>
</g>
<!-- Parent -->
<g id="node42" class="node">
<title>Parent</title>
<g id="a_node42"><a xlink:href="/develop/Data/models.html#parent" xlink:title="Parent" target="_top">
<polygon fill="#eeefff" stroke="#dddeee" points="478.89,-1085.5 424.89,-1085.5 424.89,-1049.5 478.89,-1049.5 478.89,-1085.5"/>
<text text-anchor="middle" x="451.89" y="-1063.8" font-family="Times,serif" font-size="14.00">Parent</text>
</a>
</g>
</g>
<!-- Project -->
<g id="node43" class="node">
<title>Project</title>
<g id="a_node43"><a xlink:href="/develop/Data/models.html#project" xlink:title="Project" target="_top">
<polygon fill="#eeefff" stroke="#dddeee" points="479.39,-977.5 424.39,-977.5 424.39,-941.5 479.39,-941.5 479.39,-977.5"/>
<text text-anchor="middle" x="451.89" y="-955.8" font-family="Times,serif" font-size="14.00">Project</text>
</a>
</g>
</g>
<!-- Updater -->
<g id="node44" class="node">
<title>Updater</title>
<g id="a_node44"><a xlink:href="/develop/Data/models.html#updater" xlink:title="Updater" target="_top">
<polygon fill="#eeefff" stroke="#dddeee" points="843.39,-977.5 783.39,-977.5 783.39,-941.5 843.39,-941.5 843.39,-977.5"/>
<text text-anchor="middle" x="813.39" y="-955.8" font-family="Times,serif" font-size="14.00">Updater</text>
</a>
</g>
</g>
<!-- ValidTaxonName -->
<g id="node45" class="node">
<title>ValidTaxonName</title>
<g id="a_node45"><a xlink:href="/develop/Data/models.html#valid-taxon-name" xlink:title="ValidTaxonName" target="_top">
<polygon fill="#eeefff" stroke="#dddeee" points="508.39,-1031.5 395.39,-1031.5 395.39,-995.5 508.39,-995.5 508.39,-1031.5"/>
<text text-anchor="middle" x="451.89" y="-1009.8" font-family="Times,serif" font-size="14.00">ValidTaxonName</text>
</a>
</g>
</g>
<!-- OriginCitation -->
<g id="node46" class="node">
<title>OriginCitation</title>
<g id="a_node46"><a xlink:href="/develop/Data/models.html#origin-citation" xlink:title="OriginCitation" target="_top">
<polygon fill="#eeefff" stroke="#dddeee" points="701.89,-1188.5 606.89,-1188.5 606.89,-1152.5 701.89,-1152.5 701.89,-1188.5"/>
<text text-anchor="middle" x="654.39" y="-1166.8" font-family="Times,serif" font-size="14.00">OriginCitation</text>
</a>
</g>
</g>
<!-- SourceClassifiedA -->
<g id="node47" class="node">
<title>SourceClassifiedA</title>
<g id="a_node47"><a xlink:href="/develop/Data/models.html#source-classified-a" xlink:title="SourceClassifiedA" target="_top">
<polygon fill="#eeefff" stroke="#dddeee" points="510.39,-923.5 393.39,-923.5 393.39,-887.5 510.39,-887.5 510.39,-923.5"/>
<text text-anchor="middle" x="451.89" y="-901.8" font-family="Times,serif" font-size="14.00">SourceClassifiedA</text>
</a>
</g>
</g>
<!-- SourceClassifiedAsRelationship -->
<g id="node48" class="node">
<title>SourceClassifiedAsRelationship</title>
<g id="a_node48"><a xlink:href="/develop/Data/models.html#source-classified-as-relationship" xlink:title="SourceClassifiedAsRelationship" target="_top">
<polygon fill="#eeefff" stroke="#dddeee" points="547.39,-869.5 356.39,-869.5 356.39,-833.5 547.39,-833.5 547.39,-869.5"/>
<text text-anchor="middle" x="451.89" y="-847.8" font-family="Times,serif" font-size="14.00">SourceClassifiedAsRelationship</text>
</a>
</g>
</g>
</g>
</svg>
