<?xml version="1.0" encoding="UTF-8" standalone="no"?>
<!DOCTYPE svg PUBLIC "-//W3C//DTD SVG 1.1//EN"
 "http://www.w3.org/Graphics/SVG/1.1/DTD/svg11.dtd">
<!-- Generated by graphviz version 2.50.0 (20211204.2007)
 -->
<!-- Title: TaxonNameRelationship Pages: 1 -->
<svg width="815pt" height="602pt"
 viewBox="0.00 0.00 814.85 601.77" xmlns="http://www.w3.org/2000/svg" xmlns:xlink="http://www.w3.org/1999/xlink">
<g id="graph0" class="graph" transform="scale(1 1) rotate(0) translate(4 597.77)">
<title>TaxonNameRelationship</title>
<polygon fill="white" stroke="transparent" points="-4,4 -4,-597.77 810.85,-597.77 810.85,4 -4,4"/>
<text text-anchor="middle" x="403.43" y="-22.8" font-family="Times,serif" font-size="14.00">Algorithmically generated relationships for TaxonNameRelationship based on assertions of &#39;has_many&#39;, &#39;has_one&#39;, &#39;belongs_to&#39;. </text>
<text text-anchor="middle" x="403.43" y="-7.8" font-family="Times,serif" font-size="14.00">Generated 2022&#45;01&#45;25 11:37:30 &#45;0600.</text>
<!-- Citation&#45;&gt;Source -->
<g id="edge6" class="edge">
<title>Citation&#45;&gt;Source</title>
<path fill="none" stroke="black" d="M78.07,-520.77C153.78,-520.77 322.35,-520.77 396.8,-520.77"/>
<polygon fill="black" stroke="black" points="397.08,-524.27 407.08,-520.77 397.08,-517.27 397.08,-524.27"/>
</g>
<!-- Citation&#45;&gt;CitationTopic -->
<g id="edge1" class="edge">
<title>Citation&#45;&gt;CitationTopic</title>
<path fill="none" stroke="black" d="M72.03,-530.35C98.69,-538.32 137.24,-549.85 168.83,-559.3"/>
<polygon fill="black" stroke="black" points="168.24,-562.77 178.82,-562.28 170.24,-556.06 168.24,-562.77"/>
</g>
<!-- Source&#45;&gt;SubsequentCitation -->
<!-- Source&#45;&gt;OriginCitation -->
<!-- TaxonNameRelationship&#45;&gt;Citation -->
<g id="edge2" class="edge">
<title>TaxonNameRelationship&#45;&gt;Citation</title>
<path fill="none" stroke="black" d="M204.98,-327.02C170.33,-367.71 96.99,-453.84 60.92,-496.2"/>
<polygon fill="black" stroke="black" points="58.25,-493.94 54.43,-503.82 63.58,-498.48 58.25,-493.94"/>
</g>
<!-- TaxonNameRelationship&#45;&gt;Note -->
<g id="edge3" class="edge">
<title>TaxonNameRelationship&#45;&gt;Note</title>
<path fill="none" stroke="black" d="M114.02,-304.77C100.84,-304.77 88.17,-304.77 77.15,-304.77"/>
<polygon fill="black" stroke="black" points="77.14,-301.27 67.14,-304.77 77.14,-308.27 77.14,-301.27"/>
</g>
<!-- TaxonNameRelationship&#45;&gt;Source -->
<g id="edge18" class="edge">
<title>TaxonNameRelationship&#45;&gt;Source</title>
<path fill="none" stroke="black" stroke-dasharray="1,5" d="M244.92,-335.73C270.13,-374.91 317.83,-442.72 371.85,-487.77 382.37,-496.54 395.59,-504 407.07,-509.59"/>
<polygon fill="black" stroke="black" points="247.61,-333.44 239.29,-326.88 241.71,-337.2 247.61,-333.44"/>
</g>
<!-- TaxonNameRelationship&#45;&gt;PinboardItem -->
<g id="edge4" class="edge">
<title>TaxonNameRelationship&#45;&gt;PinboardItem</title>
<path fill="none" stroke="black" d="M331.16,-293.1C347.46,-291.29 363.71,-289.49 378.3,-287.87"/>
<polygon fill="black" stroke="black" points="379.05,-291.31 388.61,-286.73 378.28,-284.35 379.05,-291.31"/>
</g>
<!-- TaxonNameRelationship&#45;&gt;Role -->
<g id="edge5" class="edge">
<title>TaxonNameRelationship&#45;&gt;Role</title>
<path fill="none" stroke="black" d="M280.42,-284.54C317.52,-270.77 365.55,-252.94 397.8,-240.97"/>
<polygon fill="black" stroke="black" points="399.11,-244.21 407.27,-237.45 396.68,-237.65 399.11,-244.21"/>
</g>
<!-- TaxonNameRelationship&#45;&gt;SubsequentCitation -->
<g id="edge7" class="edge">
<title>TaxonNameRelationship&#45;&gt;SubsequentCitation</title>
<path fill="none" stroke="black" d="M325.86,-317.33C377.23,-324.53 440.69,-334.56 496.85,-346.77 505.4,-348.63 514.31,-350.8 523.1,-353.1"/>
<polygon fill="black" stroke="black" points="522.4,-356.53 532.96,-355.73 524.2,-349.77 522.4,-356.53"/>
</g>
<!-- TaxonNameRelationship&#45;&gt;VerifierRole -->
<g id="edge10" class="edge">
<title>TaxonNameRelationship&#45;&gt;VerifierRole</title>
<path fill="none" stroke="black" d="M253.3,-282.65C281.81,-260.26 328.3,-225.5 371.85,-200.77 375.56,-198.66 379.47,-196.61 383.43,-194.63"/>
<polygon fill="black" stroke="black" points="385.23,-197.65 392.74,-190.18 382.21,-191.34 385.23,-197.65"/>
</g>
<!-- TaxonNameRelationship&#45;&gt;Creator -->
<g id="edge12" class="edge">
<title>TaxonNameRelationship&#45;&gt;Creator</title>
<path fill="none" stroke="black" stroke-dasharray="5,2" d="M233.58,-272.7C248.9,-216.63 289.18,-102.24 371.85,-54.77 433.7,-19.26 521.19,-48.96 565.24,-68.32"/>
<polygon fill="black" stroke="black" points="230.18,-271.9 231.01,-282.46 236.94,-273.68 230.18,-271.9"/>
</g>
<!-- TaxonNameRelationship&#45;&gt;ObjectTaxonName -->
<g id="edge13" class="edge">
<title>TaxonNameRelationship&#45;&gt;ObjectTaxonName</title>
<path fill="none" stroke="black" stroke-dasharray="5,2" d="M264.84,-332.96C293.62,-353.16 334.18,-380.3 371.85,-400.77 377.49,-403.83 383.54,-406.82 389.57,-409.64"/>
<polygon fill="black" stroke="black" points="266.49,-329.84 256.3,-326.93 262.45,-335.56 266.49,-329.84"/>
</g>
<!-- TaxonNameRelationship&#45;&gt;Project -->
<g id="edge14" class="edge">
<title>TaxonNameRelationship&#45;&gt;Project</title>
<path fill="none" stroke="black" stroke-dasharray="5,2" d="M243.62,-273.79C268.15,-232.97 315.88,-160.83 371.85,-113.77 382.17,-105.09 395.23,-97.89 406.66,-92.52"/>
<polygon fill="black" stroke="black" points="240.55,-272.11 238.45,-282.49 246.57,-275.68 240.55,-272.11"/>
</g>
<!-- TaxonNameRelationship&#45;&gt;SubjectTaxonName -->
<g id="edge15" class="edge">
<title>TaxonNameRelationship&#45;&gt;SubjectTaxonName</title>
<path fill="none" stroke="black" stroke-dasharray="5,2" d="M294.12,-327.46C321.73,-336.64 353.16,-347.09 379.16,-355.74"/>
<polygon fill="black" stroke="black" points="295.13,-324.1 284.53,-324.27 292.92,-330.74 295.13,-324.1"/>
</g>
<!-- TaxonNameRelationship&#45;&gt;Updater -->
<g id="edge16" class="edge">
<title>TaxonNameRelationship&#45;&gt;Updater</title>
<path fill="none" stroke="black" stroke-dasharray="5,2" d="M244.76,-273.82C269.11,-236.83 315.19,-176.22 371.85,-146.77 484.46,-88.25 530.68,-134.98 654.85,-108.77 676.57,-104.19 700.62,-97.15 718.82,-91.41"/>
<polygon fill="black" stroke="black" points="241.52,-272.39 239.05,-282.69 247.41,-276.18 241.52,-272.39"/>
</g>
<!-- TaxonNameRelationship&#45;&gt;OriginCitation -->
<g id="edge17" class="edge">
<title>TaxonNameRelationship&#45;&gt;OriginCitation</title>
<path fill="none" stroke="black" stroke-dasharray="1,5" d="M246.63,-335.36C271.92,-370.13 318.02,-425.81 371.85,-454.77 426.89,-484.37 499.46,-493.38 546.15,-495.97"/>
<polygon fill="black" stroke="black" points="249.32,-333.1 240.66,-327 243.63,-337.17 249.32,-333.1"/>
</g>
<!-- CitationTopic&#45;&gt;Topic -->
<g id="edge9" class="edge">
<title>CitationTopic&#45;&gt;Topic</title>
<path fill="none" stroke="black" d="M270.93,-575.77C308.62,-575.77 361.73,-575.77 396.82,-575.77"/>
<polygon fill="black" stroke="black" points="397.1,-579.27 407.1,-575.77 397.1,-572.27 397.1,-579.27"/>
</g>
<!-- Role&#45;&gt;Verifier -->
<!-- SubsequentCitation&#45;&gt;SubsequentSource -->
<g id="edge8" class="edge">
<title>SubsequentCitation&#45;&gt;SubsequentSource</title>
<path fill="none" stroke="black" d="M654.89,-373.77C663.22,-373.77 671.82,-373.77 680.28,-373.77"/>
<polygon fill="black" stroke="black" points="680.5,-377.27 690.5,-373.77 680.5,-370.27 680.5,-377.27"/>
</g>
<!-- VerifierRole&#45;&gt;Verifier -->
<g id="edge11" class="edge">
<title>VerifierRole&#45;&gt;Verifier</title>
<path fill="none" stroke="black" d="M475.91,-180.72C500.37,-184.91 531.31,-190.22 555.22,-194.32"/>
<polygon fill="black" stroke="black" points="554.88,-197.81 565.32,-196.05 556.06,-190.91 554.88,-197.81"/>
</g>
<!-- Creator&#45;&gt;Updater -->
<!-- Project&#45;&gt;Creator -->
<!-- Citation -->
<g id="node1" class="node">
<title>Citation</title>
<g id="a_node1"><a xlink:href="/develop/Data/models.html#citation" xlink:title="Citation" target="_top">
<ellipse fill="#abcdef" stroke="#dddeee" cx="39" cy="-520.77" rx="38.99" ry="18"/>
<text text-anchor="middle" x="39" y="-517.07" font-family="Times,serif" font-size="14.00">Citation</text>
</a>
</g>
</g>
<!-- Note -->
<g id="node2" class="node">
<title>Note</title>
<g id="a_node2"><a xlink:href="/develop/Data/models.html#note" xlink:title="Note" target="_top">
<ellipse fill="#abcdef" stroke="#dddeee" cx="39" cy="-304.77" rx="27.9" ry="18"/>
<text text-anchor="middle" x="39" y="-301.07" font-family="Times,serif" font-size="14.00">Note</text>
</a>
</g>
</g>
<!-- Source -->
<g id="node3" class="node">
<title>Source</title>
<g id="a_node3"><a xlink:href="/develop/Data/models.html#source" xlink:title="Source" target="_top">
<path fill="#fedcba" stroke="#dddeee" d="M419.35,-502.77C419.35,-502.77 449.35,-502.77 449.35,-502.77 455.35,-502.77 461.35,-508.77 461.35,-514.77 461.35,-514.77 461.35,-526.77 461.35,-526.77 461.35,-532.77 455.35,-538.77 449.35,-538.77 449.35,-538.77 419.35,-538.77 419.35,-538.77 413.35,-538.77 407.35,-532.77 407.35,-526.77 407.35,-526.77 407.35,-514.77 407.35,-514.77 407.35,-508.77 413.35,-502.77 419.35,-502.77"/>
<text text-anchor="middle" x="434.35" y="-517.07" font-family="Times,serif" font-size="14.00">Source</text>
</a>
</g>
</g>
<!-- TaxonNameRelationship -->
<g id="node4" class="node">
<title>TaxonNameRelationship</title>
<g id="a_node4"><a xlink:href="/develop/Data/models.html#taxon-name-relationship" xlink:title="TaxonNameRelationship" target="_top">
<polygon fill="#cdefab" stroke="#dedede" points="331.79,-297.31 331.79,-312.23 269.19,-322.77 180.66,-322.77 118.06,-312.23 118.06,-297.31 180.66,-286.77 269.19,-286.77 331.79,-297.31"/>
<polygon fill="none" stroke="#dedede" points="335.79,-293.93 335.79,-315.61 269.52,-326.77 180.33,-326.77 114.06,-315.61 114.06,-293.93 180.33,-282.77 269.52,-282.77 335.79,-293.93"/>
<text text-anchor="middle" x="224.92" y="-301.07" font-family="Times,serif" font-size="14.00">TaxonNameRelationship</text>
</a>
</g>
</g>
<!-- CitationTopic -->
<g id="node5" class="node">
<title>CitationTopic</title>
<g id="a_node5"><a xlink:href="/develop/Data/models.html#citation-topic" xlink:title="CitationTopic" target="_top">
<polygon fill="#eeefff" stroke="#dddeee" points="270.92,-593.77 178.92,-593.77 178.92,-557.77 270.92,-557.77 270.92,-593.77"/>
<text text-anchor="middle" x="224.92" y="-572.07" font-family="Times,serif" font-size="14.00">CitationTopic</text>
</a>
</g>
</g>
<!-- PinboardItem -->
<g id="node6" class="node">
<title>PinboardItem</title>
<g id="a_node6"><a xlink:href="/develop/Data/models.html#pinboard-item" xlink:title="PinboardItem" target="_top">
<polygon fill="#eeefff" stroke="#dddeee" points="479.85,-299.77 388.85,-299.77 388.85,-263.77 479.85,-263.77 479.85,-299.77"/>
<text text-anchor="middle" x="434.35" y="-278.07" font-family="Times,serif" font-size="14.00">PinboardItem</text>
</a>
</g>
</g>
<!-- Role -->
<g id="node7" class="node">
<title>Role</title>
<g id="a_node7"><a xlink:href="/develop/Data/models.html#role" xlink:title="Role" target="_top">
<polygon fill="#eeefff" stroke="#dddeee" points="461.35,-245.77 407.35,-245.77 407.35,-209.77 461.35,-209.77 461.35,-245.77"/>
<text text-anchor="middle" x="434.35" y="-224.07" font-family="Times,serif" font-size="14.00">Role</text>
</a>
</g>
</g>
<!-- SubsequentCitation -->
<g id="node8" class="node">
<title>SubsequentCitation</title>
<g id="a_node8"><a xlink:href="/develop/Data/models.html#subsequent-citation" xlink:title="SubsequentCitation" target="_top">
<polygon fill="#eeefff" stroke="#dddeee" points="654.85,-391.77 532.85,-391.77 532.85,-355.77 654.85,-355.77 654.85,-391.77"/>
<text text-anchor="middle" x="593.85" y="-370.07" font-family="Times,serif" font-size="14.00">SubsequentCitation</text>
</a>
</g>
</g>
<!-- SubsequentSource -->
<g id="node9" class="node">
<title>SubsequentSource</title>
<g id="a_node9"><a xlink:href="/develop/Data/models.html#subsequent-source" xlink:title="SubsequentSource" target="_top">
<polygon fill="#eeefff" stroke="#dddeee" points="806.85,-391.77 690.85,-391.77 690.85,-355.77 806.85,-355.77 806.85,-391.77"/>
<text text-anchor="middle" x="748.85" y="-370.07" font-family="Times,serif" font-size="14.00">SubsequentSource</text>
</a>
</g>
</g>
<!-- Topic -->
<g id="node10" class="node">
<title>Topic</title>
<g id="a_node10"><a xlink:href="/develop/Data/models.html#topic" xlink:title="Topic" target="_top">
<polygon fill="#eeefff" stroke="#dddeee" points="461.35,-593.77 407.35,-593.77 407.35,-557.77 461.35,-557.77 461.35,-593.77"/>
<text text-anchor="middle" x="434.35" y="-572.07" font-family="Times,serif" font-size="14.00">Topic</text>
</a>
</g>
</g>
<!-- VerifierRole -->
<g id="node11" class="node">
<title>VerifierRole</title>
<g id="a_node11"><a xlink:href="/develop/Data/models.html#verifier-role" xlink:title="VerifierRole" target="_top">
<polygon fill="#eeefff" stroke="#dddeee" points="475.85,-191.77 392.85,-191.77 392.85,-155.77 475.85,-155.77 475.85,-191.77"/>
<text text-anchor="middle" x="434.35" y="-170.07" font-family="Times,serif" font-size="14.00">VerifierRole</text>
</a>
</g>
</g>
<!-- Verifier -->
<g id="node12" class="node">
<title>Verifier</title>
<g id="a_node12"><a xlink:href="/develop/Data/models.html#verifier" xlink:title="Verifier" target="_top">
<polygon fill="#eeefff" stroke="#dddeee" points="622.35,-218.77 565.35,-218.77 565.35,-182.77 622.35,-182.77 622.35,-218.77"/>
<text text-anchor="middle" x="593.85" y="-197.07" font-family="Times,serif" font-size="14.00">Verifier</text>
</a>
</g>
</g>
<!-- Creator -->
<g id="node13" class="node">
<title>Creator</title>
<g id="a_node13"><a xlink:href="/develop/Data/models.html#creator" xlink:title="Creator" target="_top">
<polygon fill="#eeefff" stroke="#dddeee" points="622.35,-99.77 565.35,-99.77 565.35,-63.77 622.35,-63.77 622.35,-99.77"/>
<text text-anchor="middle" x="593.85" y="-78.07" font-family="Times,serif" font-size="14.00">Creator</text>
</a>
</g>
</g>
<!-- ObjectTaxonName -->
<g id="node14" class="node">
<title>ObjectTaxonName</title>
<g id="a_node14"><a xlink:href="/develop/Data/models.html#object-taxon-name" xlink:title="ObjectTaxonName" target="_top">
<polygon fill="#eeefff" stroke="#dddeee" points="494.35,-445.77 374.35,-445.77 374.35,-409.77 494.35,-409.77 494.35,-445.77"/>
<text text-anchor="middle" x="434.35" y="-424.07" font-family="Times,serif" font-size="14.00">ObjectTaxonName</text>
</a>
</g>
</g>
<!-- Project -->
<g id="node15" class="node">
<title>Project</title>
<g id="a_node15"><a xlink:href="/develop/Data/models.html#project" xlink:title="Project" target="_top">
<polygon fill="#eeefff" stroke="#dddeee" points="461.85,-99.77 406.85,-99.77 406.85,-63.77 461.85,-63.77 461.85,-99.77"/>
<text text-anchor="middle" x="434.35" y="-78.07" font-family="Times,serif" font-size="14.00">Project</text>
</a>
</g>
</g>
<!-- SubjectTaxonName -->
<g id="node16" class="node">
<title>SubjectTaxonName</title>
<g id="a_node16"><a xlink:href="/develop/Data/models.html#subject-taxon-name" xlink:title="SubjectTaxonName" target="_top">
<polygon fill="#eeefff" stroke="#dddeee" points="496.85,-391.77 371.85,-391.77 371.85,-355.77 496.85,-355.77 496.85,-391.77"/>
<text text-anchor="middle" x="434.35" y="-370.07" font-family="Times,serif" font-size="14.00">SubjectTaxonName</text>
</a>
</g>
</g>
<!-- Updater -->
<g id="node17" class="node">
<title>Updater</title>
<g id="a_node17"><a xlink:href="/develop/Data/models.html#updater" xlink:title="Updater" target="_top">
<polygon fill="#eeefff" stroke="#dddeee" points="778.85,-99.77 718.85,-99.77 718.85,-63.77 778.85,-63.77 778.85,-99.77"/>
<text text-anchor="middle" x="748.85" y="-78.07" font-family="Times,serif" font-size="14.00">Updater</text>
</a>
</g>
</g>
<!-- OriginCitation -->
<g id="node18" class="node">
<title>OriginCitation</title>
<g id="a_node18"><a xlink:href="/develop/Data/models.html#origin-citation" xlink:title="OriginCitation" target="_top">
<polygon fill="#eeefff" stroke="#dddeee" points="641.35,-514.77 546.35,-514.77 546.35,-478.77 641.35,-478.77 641.35,-514.77"/>
<text text-anchor="middle" x="593.85" y="-493.07" font-family="Times,serif" font-size="14.00">OriginCitation</text>
</a>
</g>
</g>
</g>
</svg>
