<?xml version="1.0" encoding="UTF-8" standalone="no"?>
<!DOCTYPE svg PUBLIC "-//W3C//DTD SVG 1.1//EN"
 "http://www.w3.org/Graphics/SVG/1.1/DTD/svg11.dtd">
<!-- Generated by graphviz version 2.50.0 (20211204.2007)
 -->
<!-- Title: TaxonDetermination Pages: 1 -->
<svg width="916pt" height="724pt"
 viewBox="0.00 0.00 916.19 724.00" xmlns="http://www.w3.org/2000/svg" xmlns:xlink="http://www.w3.org/1999/xlink">
<g id="graph0" class="graph" transform="scale(1 1) rotate(0) translate(4 720)">
<title>TaxonDetermination</title>
<polygon fill="white" stroke="transparent" points="-4,4 -4,-720 912.19,-720 912.19,4 -4,4"/>
<text text-anchor="middle" x="454.1" y="-22.8" font-family="Times,serif" font-size="14.00">Algorithmically generated relationships for TaxonDetermination based on assertions of &#39;has_many&#39;, &#39;has_one&#39;, &#39;belongs_to&#39;. </text>
<text text-anchor="middle" x="454.1" y="-7.8" font-family="Times,serif" font-size="14.00">Generated 2022&#45;01&#45;25 11:43:49 &#45;0600.</text>
<!-- Citation&#45;&gt;Source -->
<g id="edge16" class="edge">
<title>Citation&#45;&gt;Source</title>
<path fill="none" stroke="black" d="M124.17,-643C206.02,-643 397.95,-643 478.31,-643"/>
<polygon fill="black" stroke="black" points="478.43,-646.5 488.43,-643 478.43,-639.5 478.43,-646.5"/>
</g>
<!-- Citation&#45;&gt;CitationTopic -->
<g id="edge1" class="edge">
<title>Citation&#45;&gt;CitationTopic</title>
<path fill="none" stroke="black" d="M119.67,-651.59C153.36,-660.23 205.85,-673.68 245.66,-683.88"/>
<polygon fill="black" stroke="black" points="244.93,-687.31 255.49,-686.4 246.67,-680.53 244.93,-687.31"/>
</g>
<!-- Confidence&#45;&gt;ConfidenceLevel -->
<g id="edge3" class="edge">
<title>Confidence&#45;&gt;ConfidenceLevel</title>
<path fill="none" stroke="black" d="M135.91,-347.77C165.97,-347.63 204.57,-347.45 236.86,-347.3"/>
<polygon fill="black" stroke="black" points="237.12,-350.8 247.11,-347.25 237.09,-343.8 237.12,-350.8"/>
</g>
<!-- Depiction&#45;&gt;Image -->
<g id="edge9" class="edge">
<title>Depiction&#45;&gt;Image</title>
<path fill="none" stroke="black" d="M130.87,-293C170.44,-293 227.48,-293 264.33,-293"/>
<polygon fill="black" stroke="black" points="264.62,-296.5 274.62,-293 264.62,-289.5 264.62,-296.5"/>
</g>
<!-- ProtocolRelationship&#45;&gt;Protocol -->
<g id="edge14" class="edge">
<title>ProtocolRelationship&#45;&gt;Protocol</title>
<path fill="none" stroke="black" d="M170.34,-239C201.27,-239 234.88,-239 260.23,-239"/>
<polygon fill="black" stroke="black" points="260.56,-242.5 270.56,-239 260.56,-235.5 260.56,-242.5"/>
</g>
<!-- Source&#45;&gt;SubsequentCitation -->
<!-- Source&#45;&gt;OriginCitation -->
<!-- TaxonDetermination&#45;&gt;Citation -->
<g id="edge2" class="edge">
<title>TaxonDetermination&#45;&gt;Citation</title>
<path fill="none" stroke="black" d="M280.8,-427.12C240.53,-471.78 149.78,-572.43 107.98,-618.78"/>
<polygon fill="black" stroke="black" points="105.33,-616.49 101.23,-626.26 110.53,-621.18 105.33,-616.49"/>
</g>
<!-- TaxonDetermination&#45;&gt;Confidence -->
<g id="edge4" class="edge">
<title>TaxonDetermination&#45;&gt;Confidence</title>
<path fill="none" stroke="black" d="M237.21,-388.13C204.92,-379.55 166.26,-369.28 136.12,-361.28"/>
<polygon fill="black" stroke="black" points="136.82,-357.84 126.25,-358.65 135.02,-364.6 136.82,-357.84"/>
</g>
<!-- TaxonDetermination&#45;&gt;DataAttribute -->
<g id="edge5" class="edge">
<title>TaxonDetermination&#45;&gt;DataAttribute</title>
<path fill="none" stroke="black" d="M233.85,-421.21C204.35,-428.36 170.07,-436.66 141.97,-443.47"/>
<polygon fill="black" stroke="black" points="140.81,-440.15 131.92,-445.91 142.46,-446.95 140.81,-440.15"/>
</g>
<!-- TaxonDetermination&#45;&gt;Depiction -->
<g id="edge6" class="edge">
<title>TaxonDetermination&#45;&gt;Depiction</title>
<path fill="none" stroke="black" d="M232.98,-388.86C223.5,-384.91 214.28,-380.02 206.28,-374 183.54,-356.87 192.99,-338.18 170.28,-321 160.31,-313.45 148.19,-307.88 136.29,-303.78"/>
<polygon fill="black" stroke="black" points="136.99,-300.33 126.4,-300.67 134.9,-307.01 136.99,-300.33"/>
</g>
<!-- TaxonDetermination&#45;&gt;Note -->
<g id="edge11" class="edge">
<title>TaxonDetermination&#45;&gt;Note</title>
<path fill="none" stroke="black" d="M206.28,-404.12C177.08,-403.85 146.58,-403.56 123.63,-403.35"/>
<polygon fill="black" stroke="black" points="123.35,-399.85 113.32,-403.25 123.29,-406.85 123.35,-399.85"/>
</g>
<!-- TaxonDetermination&#45;&gt;ProtocolRelationship -->
<g id="edge13" class="edge">
<title>TaxonDetermination&#45;&gt;ProtocolRelationship</title>
<path fill="none" stroke="black" d="M228.98,-389.61C220.61,-385.56 212.77,-380.45 206.28,-374 170.43,-338.31 206.26,-301.58 170.28,-266 166.33,-262.09 161.81,-258.75 156.96,-255.89"/>
<polygon fill="black" stroke="black" points="158.42,-252.7 147.93,-251.24 155.22,-258.93 158.42,-252.7"/>
</g>
<!-- TaxonDetermination&#45;&gt;Source -->
<g id="edge28" class="edge">
<title>TaxonDetermination&#45;&gt;Source</title>
<path fill="none" stroke="black" stroke-dasharray="1,5" d="M315.46,-436.74C334.73,-481.16 375.33,-561.81 433.19,-610 449.26,-623.38 471.47,-631.89 488.65,-636.91"/>
<polygon fill="black" stroke="black" points="318.58,-435.15 311.45,-427.31 312.14,-437.89 318.58,-435.15"/>
</g>
<!-- TaxonDetermination&#45;&gt;Otu -->
<g id="edge24" class="edge">
<title>TaxonDetermination&#45;&gt;Otu</title>
<path fill="none" stroke="black" stroke-dasharray="5,2" d="M371.46,-383.96C380.21,-380.84 388.97,-377.49 397.19,-374 413.85,-366.93 416.59,-362.18 433.19,-355 451.32,-347.16 472.42,-339.96 488.61,-334.83"/>
<polygon fill="black" stroke="black" points="370.3,-380.65 362.01,-387.25 372.6,-387.27 370.3,-380.65"/>
</g>
<!-- TaxonDetermination&#45;&gt;DeterminerRole -->
<g id="edge7" class="edge">
<title>TaxonDetermination&#45;&gt;DeterminerRole</title>
<path fill="none" stroke="black" d="M372.79,-389.26C381.63,-385.26 390.06,-380.26 397.19,-374 424.99,-349.61 405.43,-323.42 433.19,-299 439.32,-293.61 446.55,-289.29 454.14,-285.83"/>
<polygon fill="black" stroke="black" points="455.57,-289.03 463.52,-282.02 452.93,-282.54 455.57,-289.03"/>
</g>
<!-- TaxonDetermination&#45;&gt;Label -->
<g id="edge10" class="edge">
<title>TaxonDetermination&#45;&gt;Label</title>
<path fill="none" stroke="black" d="M375.27,-389.68C383.41,-385.62 390.99,-380.49 397.19,-374 438.33,-330.97 392.12,-288.08 433.19,-245 445,-232.61 462.62,-225.9 478.46,-222.27"/>
<polygon fill="black" stroke="black" points="479.38,-225.66 488.53,-220.3 478.04,-218.79 479.38,-225.66"/>
</g>
<!-- TaxonDetermination&#45;&gt;PinboardItem -->
<g id="edge12" class="edge">
<title>TaxonDetermination&#45;&gt;PinboardItem</title>
<path fill="none" stroke="black" d="M376.22,-389.89C384.11,-385.79 391.36,-380.59 397.19,-374 452.1,-311.9 378.38,-253.18 433.19,-191 440.44,-182.78 450.24,-177.06 460.54,-173.07"/>
<polygon fill="black" stroke="black" points="461.7,-176.37 470.07,-169.88 459.48,-169.74 461.7,-176.37"/>
</g>
<!-- TaxonDetermination&#45;&gt;Role -->
<g id="edge15" class="edge">
<title>TaxonDetermination&#45;&gt;Role</title>
<path fill="none" stroke="black" d="M376.5,-390.13C384.34,-385.99 391.51,-380.72 397.19,-374 466.01,-292.66 364.49,-218.43 433.19,-137 444.31,-123.82 462.02,-117.04 478.09,-113.57"/>
<polygon fill="black" stroke="black" points="479.11,-116.94 488.33,-111.73 477.87,-110.05 479.11,-116.94"/>
</g>
<!-- TaxonDetermination&#45;&gt;SubsequentCitation -->
<g id="edge17" class="edge">
<title>TaxonDetermination&#45;&gt;SubsequentCitation</title>
<path fill="none" stroke="black" d="M335.54,-427.15C361.19,-443.65 398.25,-465.71 433.19,-480 503.33,-508.7 525.05,-503.18 598.19,-523 606.63,-525.29 615.48,-527.72 624.24,-530.16"/>
<polygon fill="black" stroke="black" points="623.5,-533.58 634.07,-532.9 625.38,-526.84 623.5,-533.58"/>
</g>
<!-- TaxonDetermination&#45;&gt;VerifierRole -->
<g id="edge20" class="edge">
<title>TaxonDetermination&#45;&gt;VerifierRole</title>
<path fill="none" stroke="black" d="M377.14,-390.03C384.77,-385.91 391.71,-380.66 397.19,-374 479.98,-273.36 350.54,-183.76 433.19,-83 441.02,-73.46 452.31,-67.26 464.01,-63.25"/>
<polygon fill="black" stroke="black" points="465.25,-66.53 473.86,-60.36 463.28,-59.81 465.25,-66.53"/>
</g>
<!-- TaxonDetermination&#45;&gt;BiologicalCollectionObject -->
<g id="edge22" class="edge">
<title>TaxonDetermination&#45;&gt;BiologicalCollectionObject</title>
<path fill="none" stroke="black" stroke-dasharray="5,2" d="M330.87,-434.45C355.87,-459.32 394.39,-494.53 433.19,-518 441.78,-523.19 451.35,-527.83 460.84,-531.86"/>
<polygon fill="black" stroke="black" points="333.08,-431.71 323.55,-427.09 328.12,-436.65 333.08,-431.71"/>
</g>
<!-- TaxonDetermination&#45;&gt;Creator -->
<g id="edge23" class="edge">
<title>TaxonDetermination&#45;&gt;Creator</title>
<path fill="none" stroke="black" stroke-dasharray="5,2" d="M407.38,-414.04C464.1,-417.03 535.27,-417.68 598.19,-409 621.69,-405.76 647.53,-398.25 666.48,-391.98"/>
<polygon fill="black" stroke="black" points="407.51,-410.54 397.33,-413.48 407.11,-417.53 407.51,-410.54"/>
</g>
<!-- TaxonDetermination&#45;&gt;Project -->
<g id="edge25" class="edge">
<title>TaxonDetermination&#45;&gt;Project</title>
<path fill="none" stroke="black" stroke-dasharray="5,2" d="M407.37,-393.65C437.28,-390.4 467.33,-387.14 487.99,-384.9"/>
<polygon fill="black" stroke="black" points="406.81,-390.19 397.25,-394.74 407.57,-397.15 406.81,-390.19"/>
</g>
<!-- TaxonDetermination&#45;&gt;Updater -->
<g id="edge26" class="edge">
<title>TaxonDetermination&#45;&gt;Updater</title>
<path fill="none" stroke="black" stroke-dasharray="5,2" d="M386.95,-421.32C402.28,-423.68 418.17,-425.74 433.19,-427 576.47,-439 615.22,-437.28 756.19,-409 777.95,-404.63 802,-397.59 820.19,-391.79"/>
<polygon fill="black" stroke="black" points="387.4,-417.85 376.97,-419.72 386.3,-424.76 387.4,-417.85"/>
</g>
<!-- TaxonDetermination&#45;&gt;OriginCitation -->
<g id="edge27" class="edge">
<title>TaxonDetermination&#45;&gt;OriginCitation</title>
<path fill="none" stroke="black" stroke-dasharray="1,5" d="M317.09,-436.27C337.09,-476 377.27,-543.42 433.19,-577 468.51,-598.2 582.62,-610.32 647.66,-615.67"/>
<polygon fill="black" stroke="black" points="320.23,-434.71 312.68,-427.28 313.95,-437.8 320.23,-434.71"/>
</g>
<!-- CitationTopic&#45;&gt;Topic -->
<g id="edge19" class="edge">
<title>CitationTopic&#45;&gt;Topic</title>
<path fill="none" stroke="black" d="M347.95,-698C386.9,-698 442.39,-698 478.47,-698"/>
<polygon fill="black" stroke="black" points="478.56,-701.5 488.56,-698 478.56,-694.5 478.56,-701.5"/>
</g>
<!-- DeterminerRole&#45;&gt;Determiner -->
<g id="edge8" class="edge">
<title>DeterminerRole&#45;&gt;Determiner</title>
<path fill="none" stroke="black" d="M568.03,-272C592.38,-272 621.33,-272 645.35,-272"/>
<polygon fill="black" stroke="black" points="645.66,-275.5 655.66,-272 645.66,-268.5 645.66,-275.5"/>
</g>
<!-- Role&#45;&gt;Verifier -->
<!-- SubsequentCitation&#45;&gt;SubsequentSource -->
<g id="edge18" class="edge">
<title>SubsequentCitation&#45;&gt;SubsequentSource</title>
<path fill="none" stroke="black" d="M756.22,-550C764.56,-550 773.16,-550 781.62,-550"/>
<polygon fill="black" stroke="black" points="781.84,-553.5 791.84,-550 781.84,-546.5 781.84,-553.5"/>
</g>
<!-- VerifierRole&#45;&gt;Verifier -->
<g id="edge21" class="edge">
<title>VerifierRole&#45;&gt;Verifier</title>
<path fill="none" stroke="black" d="M557.42,-62.19C587.22,-66.73 627.38,-72.84 656.46,-77.26"/>
<polygon fill="black" stroke="black" points="656.22,-80.76 666.63,-78.81 657.27,-73.84 656.22,-80.76"/>
</g>
<!-- Creator&#45;&gt;Updater -->
<!-- Project&#45;&gt;Creator -->
<!-- Citation -->
<g id="node1" class="node">
<title>Citation</title>
<g id="a_node1"><a xlink:href="/develop/Data/models.html#citation" xlink:title="Citation" target="_top">
<ellipse fill="#abcdef" stroke="#dddeee" cx="85.14" cy="-643" rx="38.99" ry="18"/>
<text text-anchor="middle" x="85.14" y="-639.3" font-family="Times,serif" font-size="14.00">Citation</text>
</a>
</g>
</g>
<!-- Confidence -->
<g id="node2" class="node">
<title>Confidence</title>
<g id="a_node2"><a xlink:href="/develop/Data/models.html#confidence" xlink:title="Confidence" target="_top">
<ellipse fill="#abcdef" stroke="#dddeee" cx="85.14" cy="-348" rx="50.89" ry="18"/>
<text text-anchor="middle" x="85.14" y="-344.3" font-family="Times,serif" font-size="14.00">Confidence</text>
</a>
</g>
</g>
<!-- DataAttribute -->
<g id="node3" class="node">
<title>DataAttribute</title>
<g id="a_node3"><a xlink:href="/develop/Data/models.html#data-attribute" xlink:title="DataAttribute" target="_top">
<ellipse fill="#abcdef" stroke="#dddeee" cx="85.14" cy="-457" rx="59.29" ry="18"/>
<text text-anchor="middle" x="85.14" y="-453.3" font-family="Times,serif" font-size="14.00">DataAttribute</text>
</a>
</g>
</g>
<!-- Depiction -->
<g id="node4" class="node">
<title>Depiction</title>
<g id="a_node4"><a xlink:href="/develop/Data/models.html#depiction" xlink:title="Depiction" target="_top">
<ellipse fill="#abcdef" stroke="#dddeee" cx="85.14" cy="-293" rx="45.49" ry="18"/>
<text text-anchor="middle" x="85.14" y="-289.3" font-family="Times,serif" font-size="14.00">Depiction</text>
</a>
</g>
</g>
<!-- Note -->
<g id="node5" class="node">
<title>Note</title>
<g id="a_node5"><a xlink:href="/develop/Data/models.html#note" xlink:title="Note" target="_top">
<ellipse fill="#abcdef" stroke="#dddeee" cx="85.14" cy="-403" rx="27.9" ry="18"/>
<text text-anchor="middle" x="85.14" y="-399.3" font-family="Times,serif" font-size="14.00">Note</text>
</a>
</g>
</g>
<!-- ProtocolRelationship -->
<g id="node6" class="node">
<title>ProtocolRelationship</title>
<g id="a_node6"><a xlink:href="/develop/Data/models.html#protocol-relationship" xlink:title="ProtocolRelationship" target="_top">
<ellipse fill="#abcdef" stroke="#dddeee" cx="85.14" cy="-239" rx="85.29" ry="18"/>
<text text-anchor="middle" x="85.14" y="-235.3" font-family="Times,serif" font-size="14.00">ProtocolRelationship</text>
</a>
</g>
</g>
<!-- Source -->
<g id="node7" class="node">
<title>Source</title>
<g id="a_node7"><a xlink:href="/develop/Data/models.html#source" xlink:title="Source" target="_top">
<path fill="#fedcba" stroke="#dddeee" d="M500.69,-625C500.69,-625 530.69,-625 530.69,-625 536.69,-625 542.69,-631 542.69,-637 542.69,-637 542.69,-649 542.69,-649 542.69,-655 536.69,-661 530.69,-661 530.69,-661 500.69,-661 500.69,-661 494.69,-661 488.69,-655 488.69,-649 488.69,-649 488.69,-637 488.69,-637 488.69,-631 494.69,-625 500.69,-625"/>
<text text-anchor="middle" x="515.69" y="-639.3" font-family="Times,serif" font-size="14.00">Source</text>
</a>
</g>
</g>
<!-- Otu -->
<g id="node8" class="node">
<title>Otu</title>
<g id="a_node8"><a xlink:href="/develop/Data/models.html#otu" xlink:title="Otu" target="_top">
<path fill="#fedcba" stroke="#dddeee" d="M500.69,-309C500.69,-309 530.69,-309 530.69,-309 536.69,-309 542.69,-315 542.69,-321 542.69,-321 542.69,-333 542.69,-333 542.69,-339 536.69,-345 530.69,-345 530.69,-345 500.69,-345 500.69,-345 494.69,-345 488.69,-339 488.69,-333 488.69,-333 488.69,-321 488.69,-321 488.69,-315 494.69,-309 500.69,-309"/>
<text text-anchor="middle" x="515.69" y="-323.3" font-family="Times,serif" font-size="14.00">Otu</text>
</a>
</g>
</g>
<!-- TaxonDetermination -->
<g id="node9" class="node">
<title>TaxonDetermination</title>
<g id="a_node9"><a xlink:href="/develop/Data/models.html#taxon-determination" xlink:title="TaxonDetermination" target="_top">
<polygon fill="#cdefab" stroke="#dedede" points="393.15,-397.54 393.15,-412.46 339.6,-423 263.88,-423 210.33,-412.46 210.33,-397.54 263.88,-387 339.6,-387 393.15,-397.54"/>
<polygon fill="none" stroke="#dedede" points="397.15,-394.25 397.15,-415.75 339.99,-427 263.49,-427 206.33,-415.75 206.33,-394.25 263.49,-383 339.99,-383 397.15,-394.25"/>
<text text-anchor="middle" x="301.74" y="-401.3" font-family="Times,serif" font-size="14.00">TaxonDetermination</text>
</a>
</g>
</g>
<!-- CitationTopic -->
<g id="node10" class="node">
<title>CitationTopic</title>
<g id="a_node10"><a xlink:href="/develop/Data/models.html#citation-topic" xlink:title="CitationTopic" target="_top">
<polygon fill="#eeefff" stroke="#dddeee" points="347.74,-716 255.74,-716 255.74,-680 347.74,-680 347.74,-716"/>
<text text-anchor="middle" x="301.74" y="-694.3" font-family="Times,serif" font-size="14.00">CitationTopic</text>
</a>
</g>
</g>
<!-- ConfidenceLevel -->
<g id="node11" class="node">
<title>ConfidenceLevel</title>
<g id="a_node11"><a xlink:href="/develop/Data/models.html#confidence-level" xlink:title="ConfidenceLevel" target="_top">
<polygon fill="#eeefff" stroke="#dddeee" points="356.24,-365 247.24,-365 247.24,-329 356.24,-329 356.24,-365"/>
<text text-anchor="middle" x="301.74" y="-343.3" font-family="Times,serif" font-size="14.00">ConfidenceLevel</text>
</a>
</g>
</g>
<!-- DeterminerRole -->
<g id="node12" class="node">
<title>DeterminerRole</title>
<g id="a_node12"><a xlink:href="/develop/Data/models.html#determiner-role" xlink:title="DeterminerRole" target="_top">
<polygon fill="#eeefff" stroke="#dddeee" points="567.69,-290 463.69,-290 463.69,-254 567.69,-254 567.69,-290"/>
<text text-anchor="middle" x="515.69" y="-268.3" font-family="Times,serif" font-size="14.00">DeterminerRole</text>
</a>
</g>
</g>
<!-- Determiner -->
<g id="node13" class="node">
<title>Determiner</title>
<g id="a_node13"><a xlink:href="/develop/Data/models.html#determiner" xlink:title="Determiner" target="_top">
<polygon fill="#eeefff" stroke="#dddeee" points="734.69,-290 655.69,-290 655.69,-254 734.69,-254 734.69,-290"/>
<text text-anchor="middle" x="695.19" y="-268.3" font-family="Times,serif" font-size="14.00">Determiner</text>
</a>
</g>
</g>
<!-- Image -->
<g id="node14" class="node">
<title>Image</title>
<g id="a_node14"><a xlink:href="/develop/Data/models.html#image" xlink:title="Image" target="_top">
<polygon fill="#eeefff" stroke="#dddeee" points="328.74,-311 274.74,-311 274.74,-275 328.74,-275 328.74,-311"/>
<text text-anchor="middle" x="301.74" y="-289.3" font-family="Times,serif" font-size="14.00">Image</text>
</a>
</g>
</g>
<!-- Label -->
<g id="node15" class="node">
<title>Label</title>
<g id="a_node15"><a xlink:href="/develop/Data/models.html#label" xlink:title="Label" target="_top">
<polygon fill="#eeefff" stroke="#dddeee" points="542.69,-236 488.69,-236 488.69,-200 542.69,-200 542.69,-236"/>
<text text-anchor="middle" x="515.69" y="-214.3" font-family="Times,serif" font-size="14.00">Label</text>
</a>
</g>
</g>
<!-- PinboardItem -->
<g id="node16" class="node">
<title>PinboardItem</title>
<g id="a_node16"><a xlink:href="/develop/Data/models.html#pinboard-item" xlink:title="PinboardItem" target="_top">
<polygon fill="#eeefff" stroke="#dddeee" points="561.19,-182 470.19,-182 470.19,-146 561.19,-146 561.19,-182"/>
<text text-anchor="middle" x="515.69" y="-160.3" font-family="Times,serif" font-size="14.00">PinboardItem</text>
</a>
</g>
</g>
<!-- Protocol -->
<g id="node17" class="node">
<title>Protocol</title>
<g id="a_node17"><a xlink:href="/develop/Data/models.html#protocol" xlink:title="Protocol" target="_top">
<polygon fill="#eeefff" stroke="#dddeee" points="332.74,-257 270.74,-257 270.74,-221 332.74,-221 332.74,-257"/>
<text text-anchor="middle" x="301.74" y="-235.3" font-family="Times,serif" font-size="14.00">Protocol</text>
</a>
</g>
</g>
<!-- Role -->
<g id="node18" class="node">
<title>Role</title>
<g id="a_node18"><a xlink:href="/develop/Data/models.html#role" xlink:title="Role" target="_top">
<polygon fill="#eeefff" stroke="#dddeee" points="542.69,-128 488.69,-128 488.69,-92 542.69,-92 542.69,-128"/>
<text text-anchor="middle" x="515.69" y="-106.3" font-family="Times,serif" font-size="14.00">Role</text>
</a>
</g>
</g>
<!-- SubsequentCitation -->
<g id="node19" class="node">
<title>SubsequentCitation</title>
<g id="a_node19"><a xlink:href="/develop/Data/models.html#subsequent-citation" xlink:title="SubsequentCitation" target="_top">
<polygon fill="#eeefff" stroke="#dddeee" points="756.19,-568 634.19,-568 634.19,-532 756.19,-532 756.19,-568"/>
<text text-anchor="middle" x="695.19" y="-546.3" font-family="Times,serif" font-size="14.00">SubsequentCitation</text>
</a>
</g>
</g>
<!-- SubsequentSource -->
<g id="node20" class="node">
<title>SubsequentSource</title>
<g id="a_node20"><a xlink:href="/develop/Data/models.html#subsequent-source" xlink:title="SubsequentSource" target="_top">
<polygon fill="#eeefff" stroke="#dddeee" points="908.19,-568 792.19,-568 792.19,-532 908.19,-532 908.19,-568"/>
<text text-anchor="middle" x="850.19" y="-546.3" font-family="Times,serif" font-size="14.00">SubsequentSource</text>
</a>
</g>
</g>
<!-- Topic -->
<g id="node21" class="node">
<title>Topic</title>
<g id="a_node21"><a xlink:href="/develop/Data/models.html#topic" xlink:title="Topic" target="_top">
<polygon fill="#eeefff" stroke="#dddeee" points="542.69,-716 488.69,-716 488.69,-680 542.69,-680 542.69,-716"/>
<text text-anchor="middle" x="515.69" y="-694.3" font-family="Times,serif" font-size="14.00">Topic</text>
</a>
</g>
</g>
<!-- VerifierRole -->
<g id="node22" class="node">
<title>VerifierRole</title>
<g id="a_node22"><a xlink:href="/develop/Data/models.html#verifier-role" xlink:title="VerifierRole" target="_top">
<polygon fill="#eeefff" stroke="#dddeee" points="557.19,-74 474.19,-74 474.19,-38 557.19,-38 557.19,-74"/>
<text text-anchor="middle" x="515.69" y="-52.3" font-family="Times,serif" font-size="14.00">VerifierRole</text>
</a>
</g>
</g>
<!-- Verifier -->
<g id="node23" class="node">
<title>Verifier</title>
<g id="a_node23"><a xlink:href="/develop/Data/models.html#verifier" xlink:title="Verifier" target="_top">
<polygon fill="#eeefff" stroke="#dddeee" points="723.69,-101 666.69,-101 666.69,-65 723.69,-65 723.69,-101"/>
<text text-anchor="middle" x="695.19" y="-79.3" font-family="Times,serif" font-size="14.00">Verifier</text>
</a>
</g>
</g>
<!-- BiologicalCollectionObject -->
<g id="node24" class="node">
<title>BiologicalCollectionObject</title>
<g id="a_node24"><a xlink:href="/develop/Data/models.html#biological-collection-object" xlink:title="BiologicalCollectionObject" target="_top">
<polygon fill="#eeefff" stroke="#dddeee" points="598.19,-568 433.19,-568 433.19,-532 598.19,-532 598.19,-568"/>
<text text-anchor="middle" x="515.69" y="-546.3" font-family="Times,serif" font-size="14.00">BiologicalCollectionObject</text>
</a>
</g>
</g>
<!-- Creator -->
<g id="node25" class="node">
<title>Creator</title>
<g id="a_node25"><a xlink:href="/develop/Data/models.html#creator" xlink:title="Creator" target="_top">
<polygon fill="#eeefff" stroke="#dddeee" points="723.69,-400 666.69,-400 666.69,-364 723.69,-364 723.69,-400"/>
<text text-anchor="middle" x="695.19" y="-378.3" font-family="Times,serif" font-size="14.00">Creator</text>
</a>
</g>
</g>
<!-- Project -->
<g id="node26" class="node">
<title>Project</title>
<g id="a_node26"><a xlink:href="/develop/Data/models.html#project" xlink:title="Project" target="_top">
<polygon fill="#eeefff" stroke="#dddeee" points="543.19,-400 488.19,-400 488.19,-364 543.19,-364 543.19,-400"/>
<text text-anchor="middle" x="515.69" y="-378.3" font-family="Times,serif" font-size="14.00">Project</text>
</a>
</g>
</g>
<!-- Updater -->
<g id="node27" class="node">
<title>Updater</title>
<g id="a_node27"><a xlink:href="/develop/Data/models.html#updater" xlink:title="Updater" target="_top">
<polygon fill="#eeefff" stroke="#dddeee" points="880.19,-400 820.19,-400 820.19,-364 880.19,-364 880.19,-400"/>
<text text-anchor="middle" x="850.19" y="-378.3" font-family="Times,serif" font-size="14.00">Updater</text>
</a>
</g>
</g>
<!-- OriginCitation -->
<g id="node28" class="node">
<title>OriginCitation</title>
<g id="a_node28"><a xlink:href="/develop/Data/models.html#origin-citation" xlink:title="OriginCitation" target="_top">
<polygon fill="#eeefff" stroke="#dddeee" points="742.69,-637 647.69,-637 647.69,-601 742.69,-601 742.69,-637"/>
<text text-anchor="middle" x="695.19" y="-615.3" font-family="Times,serif" font-size="14.00">OriginCitation</text>
</a>
</g>
</g>
</g>
</svg>
