<?xml version="1.0" encoding="UTF-8" standalone="no"?>
<!DOCTYPE svg PUBLIC "-//W3C//DTD SVG 1.1//EN"
 "http://www.w3.org/Graphics/SVG/1.1/DTD/svg11.dtd">
<!-- Generated by graphviz version 12.2.1 (20241206.2353)
 -->
<!-- Title: TaxonNameClassification Pages: 1 -->
<svg width="802pt" height="509pt"
 viewBox="0.00 0.00 802.00 509.00" xmlns="http://www.w3.org/2000/svg" xmlns:xlink="http://www.w3.org/1999/xlink">
<g id="graph0" class="graph" transform="scale(1 1) rotate(0) translate(4 505)">
<title>TaxonNameClassification</title>
<polygon fill="white" stroke="none" points="-4,4 -4,-505 798,-505 798,4 -4,4"/>
<!-- Citation&#45;&gt;Source -->
<g id="edge6" class="edge">
<title>Citation&#45;&gt;Source</title>
<path fill="none" stroke="black" stroke-dasharray="1,5" d="M81.46,-428C158.32,-428 325.99,-428 400.91,-428"/>
<polygon fill="black" stroke="black" points="400.6,-431.5 410.6,-428 400.6,-424.5 400.6,-431.5"/>
</g>
<!-- Citation&#45;&gt;CitationTopic -->
<g id="edge1" class="edge">
<title>Citation&#45;&gt;CitationTopic</title>
<path fill="none" stroke="black" stroke-dasharray="1,5" d="M75.59,-437.58C104.66,-445.78 147.05,-457.73 181.07,-467.31"/>
<polygon fill="black" stroke="black" points="179.75,-470.58 190.33,-469.93 181.65,-463.84 179.75,-470.58"/>
</g>
<!-- Source&#45;&gt;SubsequentCitation -->
<!-- Source&#45;&gt;OriginCitation -->
<!-- TaxonNameClassification&#45;&gt;Citation -->
<g id="edge2" class="edge">
<title>TaxonNameClassification&#45;&gt;Citation</title>
<path fill="none" stroke="black" d="M213.18,-265.33C176.24,-300.36 104.97,-367.93 66.95,-403.98"/>
<polygon fill="black" stroke="black" points="64.87,-401.12 60.02,-410.54 69.68,-406.2 64.87,-401.12"/>
</g>
<!-- TaxonNameClassification&#45;&gt;Note -->
<g id="edge3" class="edge">
<title>TaxonNameClassification&#45;&gt;Note</title>
<path fill="none" stroke="black" d="M116.74,-243C103.97,-243 91.75,-243 81.01,-243"/>
<polygon fill="black" stroke="black" points="81.07,-239.5 71.07,-243 81.07,-246.5 81.07,-239.5"/>
</g>
<!-- TaxonNameClassification&#45;&gt;Source -->
<g id="edge17" class="edge">
<title>TaxonNameClassification&#45;&gt;Source</title>
<path fill="none" stroke="black" stroke-dasharray="1,5" d="M266.66,-272.53C296.99,-304.05 347.38,-354.88 394.25,-395 397.52,-397.8 401,-400.64 404.52,-403.41"/>
<polygon fill="none" stroke="black" points="257.22,-268.47 262.99,-262.93 268.53,-268.71 262.76,-274.24 257.22,-268.47"/>
<polyline fill="none" stroke="black" points="265.64,-271.47 267.03,-272.92"/>
<polygon fill="none" stroke="black" points="414.77,-406.24 409.89,-412.58 403.55,-407.71 408.42,-401.36 414.77,-406.24"/>
<polyline fill="none" stroke="black" points="405.98,-404.53 404.4,-403.32"/>
</g>
<!-- TaxonNameClassification&#45;&gt;TaxonName -->
<g id="edge14" class="edge">
<title>TaxonNameClassification&#45;&gt;TaxonName</title>
<path fill="none" stroke="black" stroke-dasharray="5,2" d="M275.3,-213.57C306.39,-188.89 352.5,-153.13 394.25,-124 398.86,-120.78 403.83,-117.48 408.7,-114.33"/>
<polygon fill="black" stroke="black" points="273.38,-210.62 267.74,-219.59 277.74,-216.1 273.38,-210.62"/>
</g>
<!-- TaxonNameClassification&#45;&gt;PinboardItem -->
<g id="edge4" class="edge">
<title>TaxonNameClassification&#45;&gt;PinboardItem</title>
<path fill="none" stroke="black" d="M255.1,-220.65C281.64,-185.4 336.89,-115.99 394.25,-68 395.03,-67.35 395.83,-66.7 396.65,-66.05"/>
<polygon fill="black" stroke="black" points="398.54,-69.01 404.57,-60.29 394.42,-63.34 398.54,-69.01"/>
</g>
<!-- TaxonNameClassification&#45;&gt;Role -->
<g id="edge5" class="edge">
<title>TaxonNameClassification&#45;&gt;Role</title>
<path fill="none" stroke="black" d="M308.83,-261.97C339.96,-270.38 375.32,-279.95 401.23,-286.96"/>
<polygon fill="black" stroke="black" points="400.03,-290.26 410.6,-289.49 401.86,-283.5 400.03,-290.26"/>
</g>
<!-- TaxonNameClassification&#45;&gt;SubsequentCitation -->
<g id="edge7" class="edge">
<title>TaxonNameClassification&#45;&gt;SubsequentCitation</title>
<path fill="none" stroke="black" d="M273.37,-265.4C303.95,-284.07 350.35,-309.84 394.25,-324 431.12,-335.9 473.8,-342.57 508.98,-346.3"/>
<polygon fill="black" stroke="black" points="508.31,-349.75 518.61,-347.26 509.01,-342.79 508.31,-349.75"/>
</g>
<!-- TaxonNameClassification&#45;&gt;VerifierRole -->
<g id="edge10" class="edge">
<title>TaxonNameClassification&#45;&gt;VerifierRole</title>
<path fill="none" stroke="black" d="M358.61,-243C368.17,-243 377.48,-243 386.16,-243"/>
<polygon fill="black" stroke="black" points="386.06,-246.5 396.06,-243 386.06,-239.5 386.06,-246.5"/>
</g>
<!-- TaxonNameClassification&#45;&gt;Creator -->
<g id="edge12" class="edge">
<title>TaxonNameClassification&#45;&gt;Creator</title>
<path fill="none" stroke="black" stroke-dasharray="5,2" d="M249.72,-209.87C269.25,-157.11 315.51,-55.71 394.25,-14 429.69,4.77 448.92,4.52 484.5,-14 533.16,-39.34 562.23,-101.94 574.11,-132.97"/>
<polygon fill="black" stroke="black" points="246.45,-208.64 246.37,-219.23 253.04,-211 246.45,-208.64"/>
</g>
<!-- TaxonNameClassification&#45;&gt;Project -->
<g id="edge13" class="edge">
<title>TaxonNameClassification&#45;&gt;Project</title>
<path fill="none" stroke="black" stroke-dasharray="5,2" d="M297.47,-215.93C335.38,-198.46 382.87,-176.58 411.9,-163.2"/>
<polygon fill="black" stroke="black" points="296.05,-212.74 288.43,-220.1 298.98,-219.09 296.05,-212.74"/>
</g>
<!-- TaxonNameClassification&#45;&gt;Updater -->
<g id="edge15" class="edge">
<title>TaxonNameClassification&#45;&gt;Updater</title>
<path fill="none" stroke="black" stroke-dasharray="5,2" d="M339.9,-225.14C357.98,-222.03 376.67,-218.88 394.25,-216 504.3,-198.02 533.36,-202.06 642.25,-178 663.89,-173.22 687.91,-166.19 706.09,-160.5"/>
<polygon fill="black" stroke="black" points="339.48,-221.66 330.22,-226.81 340.67,-228.56 339.48,-221.66"/>
</g>
<!-- TaxonNameClassification&#45;&gt;OriginCitation -->
<g id="edge16" class="edge">
<title>TaxonNameClassification&#45;&gt;OriginCitation</title>
<path fill="none" stroke="black" d="M275.83,-271.55C306.44,-294.23 351.62,-325.73 394.25,-348 436.11,-369.88 486.16,-388.87 523.82,-401.85"/>
<polygon fill="none" stroke="black" points="265.6,-268.91 270.39,-262.5 276.8,-267.28 272.01,-273.69 265.6,-268.91"/>
<polyline fill="none" stroke="black" points="274.41,-270.49 276.01,-271.69"/>
<polygon fill="none" stroke="black" points="534.41,-401.23 531.83,-408.81 524.26,-406.23 526.84,-398.65 534.41,-401.23"/>
<polyline fill="none" stroke="black" points="525.55,-402.44 523.66,-401.8"/>
</g>
<!-- CitationTopic&#45;&gt;Topic -->
<g id="edge9" class="edge">
<title>CitationTopic&#45;&gt;Topic</title>
<path fill="none" stroke="black" stroke-dasharray="1,5" d="M283.53,-483C318.91,-483 367.69,-483 400.99,-483"/>
<polygon fill="black" stroke="black" points="400.56,-486.5 410.56,-483 400.56,-479.5 400.56,-486.5"/>
</g>
<!-- Role&#45;&gt;Verifier -->
<!-- SubsequentCitation&#45;&gt;SubsequentSource -->
<g id="edge8" class="edge">
<title>SubsequentCitation&#45;&gt;SubsequentSource</title>
<path fill="none" stroke="black" stroke-dasharray="1,5" d="M642.74,-351C650.68,-351 658.85,-351 666.91,-351"/>
<polygon fill="black" stroke="black" points="666.66,-354.5 676.66,-351 666.66,-347.5 666.66,-354.5"/>
</g>
<!-- VerifierRole&#45;&gt;Verifier -->
<g id="edge11" class="edge">
<title>VerifierRole&#45;&gt;Verifier</title>
<path fill="none" stroke="black" stroke-dasharray="1,5" d="M481.24,-252.05C500.22,-256.26 522.68,-261.23 541.42,-265.38"/>
<polygon fill="black" stroke="black" points="540.54,-268.77 551.06,-267.51 542.06,-261.93 540.54,-268.77"/>
</g>
<!-- Creator&#45;&gt;Updater -->
<!-- Project&#45;&gt;Creator -->
<!-- Citation -->
<g id="node1" class="node">
<title>Citation</title>
<g id="a_node1"><a xlink:href="/develop/Data/models.html#citation" xlink:title="Citation" target="_top">
<ellipse fill="#abcdef" stroke="#dddeee" cx="40.6" cy="-428" rx="40.6" ry="18"/>
<text text-anchor="middle" x="40.6" y="-422.95" font-family="Times,serif" font-size="14.00">Citation</text>
</a>
</g>
</g>
<!-- Note -->
<g id="node2" class="node">
<title>Note</title>
<g id="a_node2"><a xlink:href="/develop/Data/models.html#note" xlink:title="Note" target="_top">
<ellipse fill="#abcdef" stroke="#dddeee" cx="40.6" cy="-243" rx="28.83" ry="18"/>
<text text-anchor="middle" x="40.6" y="-237.95" font-family="Times,serif" font-size="14.00">Note</text>
</a>
</g>
</g>
<!-- Source -->
<g id="node3" class="node">
<title>Source</title>
<g id="a_node3"><a xlink:href="/develop/Data/models.html#source" xlink:title="Source" target="_top">
<path fill="#fedcba" stroke="#dddeee" d="M424.37,-410C424.37,-410 454.37,-410 454.37,-410 460.37,-410 466.37,-416 466.37,-422 466.37,-422 466.37,-434 466.37,-434 466.37,-440 460.37,-446 454.37,-446 454.37,-446 424.37,-446 424.37,-446 418.37,-446 412.37,-440 412.37,-434 412.37,-434 412.37,-422 412.37,-422 412.37,-416 418.37,-410 424.37,-410"/>
<text text-anchor="middle" x="439.37" y="-423.2" font-family="Times,serif" font-size="14.00">Source</text>
</a>
</g>
</g>
<!-- TaxonName -->
<g id="node4" class="node">
<title>TaxonName</title>
<g id="a_node4"><a xlink:href="/develop/Data/models.html#taxon-name" xlink:title="TaxonName" target="_top">
<path fill="#fedcba" stroke="#dddeee" d="M409.62,-78C409.62,-78 469.12,-78 469.12,-78 475.12,-78 481.12,-84 481.12,-90 481.12,-90 481.12,-102 481.12,-102 481.12,-108 475.12,-114 469.12,-114 469.12,-114 409.62,-114 409.62,-114 403.62,-114 397.62,-108 397.62,-102 397.62,-102 397.62,-90 397.62,-90 397.62,-84 403.62,-78 409.62,-78"/>
<text text-anchor="middle" x="439.37" y="-91.2" font-family="Times,serif" font-size="14.00">TaxonName</text>
</a>
</g>
</g>
<!-- TaxonNameClassification -->
<g id="node5" class="node">
<title>TaxonNameClassification</title>
<g id="a_node5"><a xlink:href="/develop/Data/models.html#taxon-name-classification" xlink:title="TaxonNameClassification" target="_top">
<polygon fill="#cdefab" stroke="#dedede" points="354.25,-235.55 354.25,-250.46 285.99,-261 189.46,-261 121.21,-250.46 121.21,-235.55 189.46,-225 285.99,-225 354.25,-235.55"/>
<polygon fill="none" stroke="#dedede" points="358.25,-232.12 358.25,-253.89 286.3,-265 189.16,-265 117.21,-253.89 117.21,-232.12 189.16,-221 286.3,-221 358.25,-232.12"/>
<text text-anchor="middle" x="237.73" y="-237.95" font-family="Times,serif" font-size="14.00">TaxonNameClassification</text>
</a>
</g>
</g>
<!-- CitationTopic -->
<g id="node6" class="node">
<title>CitationTopic</title>
<g id="a_node6"><a xlink:href="/develop/Data/models.html#citation-topic" xlink:title="CitationTopic" target="_top">
<polygon fill="#eeefff" stroke="#dddeee" points="283.23,-501 192.23,-501 192.23,-465 283.23,-465 283.23,-501"/>
<text text-anchor="middle" x="237.73" y="-477.95" font-family="Times,serif" font-size="14.00">CitationTopic</text>
</a>
</g>
</g>
<!-- PinboardItem -->
<g id="node7" class="node">
<title>PinboardItem</title>
<g id="a_node7"><a xlink:href="/develop/Data/models.html#pinboard-item" xlink:title="PinboardItem" target="_top">
<polygon fill="#eeefff" stroke="#dddeee" points="484.5,-59 394.25,-59 394.25,-23 484.5,-23 484.5,-59"/>
<text text-anchor="middle" x="439.37" y="-35.95" font-family="Times,serif" font-size="14.00">PinboardItem</text>
</a>
</g>
</g>
<!-- Role -->
<g id="node8" class="node">
<title>Role</title>
<g id="a_node8"><a xlink:href="/develop/Data/models.html#role" xlink:title="Role" target="_top">
<polygon fill="#eeefff" stroke="#dddeee" points="466.37,-315 412.37,-315 412.37,-279 466.37,-279 466.37,-315"/>
<text text-anchor="middle" x="439.37" y="-291.95" font-family="Times,serif" font-size="14.00">Role</text>
</a>
</g>
</g>
<!-- SubsequentCitation -->
<g id="node9" class="node">
<title>SubsequentCitation</title>
<g id="a_node9"><a xlink:href="/develop/Data/models.html#subsequent-citation" xlink:title="SubsequentCitation" target="_top">
<polygon fill="#eeefff" stroke="#dddeee" points="642.25,-369 520.5,-369 520.5,-333 642.25,-333 642.25,-369"/>
<text text-anchor="middle" x="581.37" y="-345.95" font-family="Times,serif" font-size="14.00">SubsequentCitation</text>
</a>
</g>
</g>
<!-- SubsequentSource -->
<g id="node10" class="node">
<title>SubsequentSource</title>
<g id="a_node10"><a xlink:href="/develop/Data/models.html#subsequent-source" xlink:title="SubsequentSource" target="_top">
<polygon fill="#eeefff" stroke="#dddeee" points="794,-369 678.25,-369 678.25,-333 794,-333 794,-369"/>
<text text-anchor="middle" x="736.12" y="-345.95" font-family="Times,serif" font-size="14.00">SubsequentSource</text>
</a>
</g>
</g>
<!-- Topic -->
<g id="node11" class="node">
<title>Topic</title>
<g id="a_node11"><a xlink:href="/develop/Data/models.html#topic" xlink:title="Topic" target="_top">
<polygon fill="#eeefff" stroke="#dddeee" points="466.37,-501 412.37,-501 412.37,-465 466.37,-465 466.37,-501"/>
<text text-anchor="middle" x="439.37" y="-477.95" font-family="Times,serif" font-size="14.00">Topic</text>
</a>
</g>
</g>
<!-- VerifierRole -->
<g id="node12" class="node">
<title>VerifierRole</title>
<g id="a_node12"><a xlink:href="/develop/Data/models.html#verifier-role" xlink:title="VerifierRole" target="_top">
<polygon fill="#eeefff" stroke="#dddeee" points="480.75,-261 398,-261 398,-225 480.75,-225 480.75,-261"/>
<text text-anchor="middle" x="439.37" y="-237.95" font-family="Times,serif" font-size="14.00">VerifierRole</text>
</a>
</g>
</g>
<!-- Verifier -->
<g id="node13" class="node">
<title>Verifier</title>
<g id="a_node13"><a xlink:href="/develop/Data/models.html#verifier" xlink:title="Verifier" target="_top">
<polygon fill="#eeefff" stroke="#dddeee" points="610,-292 552.75,-292 552.75,-256 610,-256 610,-292"/>
<text text-anchor="middle" x="581.37" y="-268.95" font-family="Times,serif" font-size="14.00">Verifier</text>
</a>
</g>
</g>
<!-- Creator -->
<g id="node14" class="node">
<title>Creator</title>
<g id="a_node14"><a xlink:href="/develop/Data/models.html#creator" xlink:title="Creator" target="_top">
<polygon fill="#eeefff" stroke="#dddeee" points="609.62,-169 553.12,-169 553.12,-133 609.62,-133 609.62,-169"/>
<text text-anchor="middle" x="581.37" y="-145.95" font-family="Times,serif" font-size="14.00">Creator</text>
</a>
</g>
</g>
<!-- Project -->
<g id="node15" class="node">
<title>Project</title>
<g id="a_node15"><a xlink:href="/develop/Data/models.html#project" xlink:title="Project" target="_top">
<polygon fill="#eeefff" stroke="#dddeee" points="466.5,-169 412.25,-169 412.25,-133 466.5,-133 466.5,-169"/>
<text text-anchor="middle" x="439.37" y="-145.95" font-family="Times,serif" font-size="14.00">Project</text>
</a>
</g>
</g>
<!-- Updater -->
<g id="node16" class="node">
<title>Updater</title>
<g id="a_node16"><a xlink:href="/develop/Data/models.html#updater" xlink:title="Updater" target="_top">
<polygon fill="#eeefff" stroke="#dddeee" points="765.87,-169 706.37,-169 706.37,-133 765.87,-133 765.87,-169"/>
<text text-anchor="middle" x="736.12" y="-145.95" font-family="Times,serif" font-size="14.00">Updater</text>
</a>
</g>
</g>
<!-- OriginCitation -->
<g id="node17" class="node">
<title>OriginCitation</title>
<g id="a_node17"><a xlink:href="/develop/Data/models.html#origin-citation" xlink:title="OriginCitation" target="_top">
<polygon fill="#eeefff" stroke="#dddeee" points="628.75,-438 534,-438 534,-402 628.75,-402 628.75,-438"/>
<text text-anchor="middle" x="581.37" y="-414.95" font-family="Times,serif" font-size="14.00">OriginCitation</text>
</a>
</g>
</g>
</g>
</svg>
