<?xml version="1.0" encoding="UTF-8" standalone="no"?>
<!DOCTYPE svg PUBLIC "-//W3C//DTD SVG 1.1//EN"
 "http://www.w3.org/Graphics/SVG/1.1/DTD/svg11.dtd">
<!-- Generated by graphviz version 2.50.0 (20211204.2007)
 -->
<!-- Title: TaxonNameClassification Pages: 1 -->
<svg width="789pt" height="547pt"
 viewBox="0.00 0.00 789.30 547.24" xmlns="http://www.w3.org/2000/svg" xmlns:xlink="http://www.w3.org/1999/xlink">
<g id="graph0" class="graph" transform="scale(1 1) rotate(0) translate(4 543.24)">
<title>TaxonNameClassification</title>
<polygon fill="white" stroke="transparent" points="-4,4 -4,-543.24 785.3,-543.24 785.3,4 -4,4"/>
<text text-anchor="middle" x="390.65" y="-22.8" font-family="Times,serif" font-size="14.00">Algorithmically generated relationships for TaxonNameClassification based on assertions of &#39;has_many&#39;, &#39;has_one&#39;, &#39;belongs_to&#39;. </text>
<text text-anchor="middle" x="390.65" y="-7.8" font-family="Times,serif" font-size="14.00">Generated 2022&#45;01&#45;25 11:37:31 &#45;0600.</text>
<!-- Citation&#45;&gt;Source -->
<g id="edge6" class="edge">
<title>Citation&#45;&gt;Source</title>
<path fill="none" stroke="black" d="M78.3,-466.24C152.77,-466.24 316.12,-466.24 388.75,-466.24"/>
<polygon fill="black" stroke="black" points="388.79,-469.74 398.79,-466.24 388.79,-462.74 388.79,-469.74"/>
</g>
<!-- Citation&#45;&gt;CitationTopic -->
<g id="edge1" class="edge">
<title>Citation&#45;&gt;CitationTopic</title>
<path fill="none" stroke="black" d="M72.34,-475.7C99.95,-483.77 140.27,-495.56 172.97,-505.12"/>
<polygon fill="black" stroke="black" points="172.28,-508.56 182.86,-508 174.24,-501.84 172.28,-508.56"/>
</g>
<!-- Source&#45;&gt;SubsequentCitation -->
<!-- Source&#45;&gt;OriginCitation -->
<!-- TaxonNameClassification&#45;&gt;Citation -->
<g id="edge2" class="edge">
<title>TaxonNameClassification&#45;&gt;Citation</title>
<path fill="none" stroke="black" d="M205.74,-303.27C170.07,-338.35 100.65,-406.61 63.99,-442.65"/>
<polygon fill="black" stroke="black" points="61.37,-440.32 56.69,-449.83 66.28,-445.31 61.37,-440.32"/>
</g>
<!-- TaxonNameClassification&#45;&gt;Note -->
<g id="edge3" class="edge">
<title>TaxonNameClassification&#45;&gt;Note</title>
<path fill="none" stroke="black" d="M113.68,-281.24C100.63,-281.24 88.13,-281.24 77.25,-281.24"/>
<polygon fill="black" stroke="black" points="76.95,-277.74 66.95,-281.24 76.95,-284.74 76.95,-277.74"/>
</g>
<!-- TaxonNameClassification&#45;&gt;Source -->
<g id="edge17" class="edge">
<title>TaxonNameClassification&#45;&gt;Source</title>
<path fill="none" stroke="black" stroke-dasharray="1,5" d="M257.02,-311.06C286.14,-342.72 334.59,-393.57 380.3,-433.24 386.11,-438.29 392.63,-443.4 398.86,-448.05"/>
<polygon fill="black" stroke="black" points="259.38,-308.45 250.05,-303.44 254.22,-313.18 259.38,-308.45"/>
</g>
<!-- TaxonNameClassification&#45;&gt;TaxonName -->
<g id="edge14" class="edge">
<title>TaxonNameClassification&#45;&gt;TaxonName</title>
<path fill="none" stroke="black" stroke-dasharray="5,2" d="M264.35,-252.39C294.26,-227.58 339.22,-191.31 380.3,-162.24 384.92,-158.97 389.91,-155.65 394.82,-152.48"/>
<polygon fill="black" stroke="black" points="261.77,-249.98 256.33,-259.07 266.25,-255.36 261.77,-249.98"/>
</g>
<!-- TaxonNameClassification&#45;&gt;PinboardItem -->
<g id="edge4" class="edge">
<title>TaxonNameClassification&#45;&gt;PinboardItem</title>
<path fill="none" stroke="black" d="M245.56,-259.1C270.84,-223.83 323.97,-154.02 380.3,-106.24 381.46,-105.26 382.66,-104.28 383.9,-103.32"/>
<polygon fill="black" stroke="black" points="386.27,-105.93 392.35,-97.25 382.19,-100.24 386.27,-105.93"/>
</g>
<!-- TaxonNameClassification&#45;&gt;Role -->
<g id="edge5" class="edge">
<title>TaxonNameClassification&#45;&gt;Role</title>
<path fill="none" stroke="black" d="M297.13,-299.83C328.01,-308.39 363.4,-318.21 389.08,-325.34"/>
<polygon fill="black" stroke="black" points="388.19,-328.72 398.76,-328.02 390.06,-321.97 388.19,-328.72"/>
</g>
<!-- TaxonNameClassification&#45;&gt;SubsequentCitation -->
<g id="edge7" class="edge">
<title>TaxonNameClassification&#45;&gt;SubsequentCitation</title>
<path fill="none" stroke="black" d="M262.9,-303.31C292.33,-322.04 337.41,-348.07 380.3,-362.24 417.72,-374.6 461.2,-381.31 496.81,-384.95"/>
<polygon fill="black" stroke="black" points="496.83,-388.46 507.12,-385.93 497.5,-381.49 496.83,-388.46"/>
</g>
<!-- TaxonNameClassification&#45;&gt;VerifierRole -->
<g id="edge10" class="edge">
<title>TaxonNameClassification&#45;&gt;VerifierRole</title>
<path fill="none" stroke="black" d="M344.5,-281.24C354.72,-281.24 364.68,-281.24 373.92,-281.24"/>
<polygon fill="black" stroke="black" points="374.01,-284.74 384.01,-281.24 374.01,-277.74 374.01,-284.74"/>
</g>
<!-- TaxonNameClassification&#45;&gt;Creator -->
<g id="edge12" class="edge">
<title>TaxonNameClassification&#45;&gt;Creator</title>
<path fill="none" stroke="black" stroke-dasharray="5,2" d="M240.07,-249.14C258.22,-196.73 302.26,-94.39 380.3,-52.24 415.88,-33.02 435.42,-33.57 471.3,-52.24 519.99,-77.58 549.11,-140.18 561.02,-171.21"/>
<polygon fill="black" stroke="black" points="236.65,-248.33 236.78,-258.93 243.28,-250.56 236.65,-248.33"/>
</g>
<!-- TaxonNameClassification&#45;&gt;Project -->
<g id="edge13" class="edge">
<title>TaxonNameClassification&#45;&gt;Project</title>
<path fill="none" stroke="black" stroke-dasharray="5,2" d="M285.9,-254.89C322.69,-237.5 369.25,-215.5 398.02,-201.9"/>
<polygon fill="black" stroke="black" points="284.31,-251.77 276.77,-259.21 287.31,-258.1 284.31,-251.77"/>
</g>
<!-- TaxonNameClassification&#45;&gt;Updater -->
<g id="edge15" class="edge">
<title>TaxonNameClassification&#45;&gt;Updater</title>
<path fill="none" stroke="black" stroke-dasharray="5,2" d="M325.12,-263.77C343.42,-260.52 362.44,-257.21 380.3,-254.24 490.73,-235.89 519.97,-240.35 629.3,-216.24 650.97,-211.46 675.02,-204.44 693.23,-198.75"/>
<polygon fill="black" stroke="black" points="324.27,-260.37 315.04,-265.57 325.5,-267.26 324.27,-260.37"/>
</g>
<!-- TaxonNameClassification&#45;&gt;OriginCitation -->
<g id="edge16" class="edge">
<title>TaxonNameClassification&#45;&gt;OriginCitation</title>
<path fill="none" stroke="black" stroke-dasharray="1,5" d="M265.26,-309.49C294.73,-332.26 338.58,-364.05 380.3,-386.24 426.06,-410.59 481.9,-430.98 520.58,-443.78"/>
<polygon fill="black" stroke="black" points="267.38,-306.7 257.34,-303.32 263.08,-312.22 267.38,-306.7"/>
</g>
<!-- CitationTopic&#45;&gt;Topic -->
<g id="edge9" class="edge">
<title>CitationTopic&#45;&gt;Topic</title>
<path fill="none" stroke="black" d="M275.29,-521.24C309.7,-521.24 356.46,-521.24 388.47,-521.24"/>
<polygon fill="black" stroke="black" points="388.72,-524.74 398.72,-521.24 388.72,-517.74 388.72,-524.74"/>
</g>
<!-- Role&#45;&gt;Verifier -->
<!-- SubsequentCitation&#45;&gt;SubsequentSource -->
<g id="edge8" class="edge">
<title>SubsequentCitation&#45;&gt;SubsequentSource</title>
<path fill="none" stroke="black" d="M629.33,-389.24C637.66,-389.24 646.27,-389.24 654.72,-389.24"/>
<polygon fill="black" stroke="black" points="654.94,-392.74 664.94,-389.24 654.94,-385.74 654.94,-392.74"/>
</g>
<!-- VerifierRole&#45;&gt;Verifier -->
<g id="edge11" class="edge">
<title>VerifierRole&#45;&gt;Verifier</title>
<path fill="none" stroke="black" d="M467.44,-290.21C487.08,-294.54 510.51,-299.71 529.74,-303.96"/>
<polygon fill="black" stroke="black" points="529.13,-307.41 539.65,-306.14 530.64,-300.57 529.13,-307.41"/>
</g>
<!-- Creator&#45;&gt;Updater -->
<!-- Project&#45;&gt;Creator -->
<!-- Citation -->
<g id="node1" class="node">
<title>Citation</title>
<g id="a_node1"><a xlink:href="/develop/Data/models.html#citation" xlink:title="Citation" target="_top">
<ellipse fill="#abcdef" stroke="#dddeee" cx="39" cy="-466.24" rx="38.99" ry="18"/>
<text text-anchor="middle" x="39" y="-462.54" font-family="Times,serif" font-size="14.00">Citation</text>
</a>
</g>
</g>
<!-- Note -->
<g id="node2" class="node">
<title>Note</title>
<g id="a_node2"><a xlink:href="/develop/Data/models.html#note" xlink:title="Note" target="_top">
<ellipse fill="#abcdef" stroke="#dddeee" cx="39" cy="-281.24" rx="27.9" ry="18"/>
<text text-anchor="middle" x="39" y="-277.54" font-family="Times,serif" font-size="14.00">Note</text>
</a>
</g>
</g>
<!-- Source -->
<g id="node3" class="node">
<title>Source</title>
<g id="a_node3"><a xlink:href="/develop/Data/models.html#source" xlink:title="Source" target="_top">
<path fill="#fedcba" stroke="#dddeee" d="M410.8,-448.24C410.8,-448.24 440.8,-448.24 440.8,-448.24 446.8,-448.24 452.8,-454.24 452.8,-460.24 452.8,-460.24 452.8,-472.24 452.8,-472.24 452.8,-478.24 446.8,-484.24 440.8,-484.24 440.8,-484.24 410.8,-484.24 410.8,-484.24 404.8,-484.24 398.8,-478.24 398.8,-472.24 398.8,-472.24 398.8,-460.24 398.8,-460.24 398.8,-454.24 404.8,-448.24 410.8,-448.24"/>
<text text-anchor="middle" x="425.8" y="-462.54" font-family="Times,serif" font-size="14.00">Source</text>
</a>
</g>
</g>
<!-- TaxonName -->
<g id="node4" class="node">
<title>TaxonName</title>
<g id="a_node4"><a xlink:href="/develop/Data/models.html#taxon-name" xlink:title="TaxonName" target="_top">
<path fill="#fedcba" stroke="#dddeee" d="M395.8,-116.24C395.8,-116.24 455.8,-116.24 455.8,-116.24 461.8,-116.24 467.8,-122.24 467.8,-128.24 467.8,-128.24 467.8,-140.24 467.8,-140.24 467.8,-146.24 461.8,-152.24 455.8,-152.24 455.8,-152.24 395.8,-152.24 395.8,-152.24 389.8,-152.24 383.8,-146.24 383.8,-140.24 383.8,-140.24 383.8,-128.24 383.8,-128.24 383.8,-122.24 389.8,-116.24 395.8,-116.24"/>
<text text-anchor="middle" x="425.8" y="-130.54" font-family="Times,serif" font-size="14.00">TaxonName</text>
</a>
</g>
</g>
<!-- TaxonNameClassification -->
<g id="node5" class="node">
<title>TaxonNameClassification</title>
<g id="a_node5"><a xlink:href="/develop/Data/models.html#taxon-name-classification" xlink:title="TaxonNameClassification" target="_top">
<polygon fill="#cdefab" stroke="#dedede" points="340.44,-273.79 340.44,-288.7 275.25,-299.24 183.04,-299.24 117.85,-288.7 117.85,-273.79 183.04,-263.24 275.25,-263.24 340.44,-273.79"/>
<polygon fill="none" stroke="#dedede" points="344.45,-270.38 344.45,-292.1 275.57,-303.24 182.72,-303.24 113.84,-292.1 113.84,-270.38 182.72,-259.24 275.57,-259.24 344.45,-270.38"/>
<text text-anchor="middle" x="229.14" y="-277.54" font-family="Times,serif" font-size="14.00">TaxonNameClassification</text>
</a>
</g>
</g>
<!-- CitationTopic -->
<g id="node6" class="node">
<title>CitationTopic</title>
<g id="a_node6"><a xlink:href="/develop/Data/models.html#citation-topic" xlink:title="CitationTopic" target="_top">
<polygon fill="#eeefff" stroke="#dddeee" points="275.14,-539.24 183.14,-539.24 183.14,-503.24 275.14,-503.24 275.14,-539.24"/>
<text text-anchor="middle" x="229.14" y="-517.54" font-family="Times,serif" font-size="14.00">CitationTopic</text>
</a>
</g>
</g>
<!-- PinboardItem -->
<g id="node7" class="node">
<title>PinboardItem</title>
<g id="a_node7"><a xlink:href="/develop/Data/models.html#pinboard-item" xlink:title="PinboardItem" target="_top">
<polygon fill="#eeefff" stroke="#dddeee" points="471.3,-97.24 380.3,-97.24 380.3,-61.24 471.3,-61.24 471.3,-97.24"/>
<text text-anchor="middle" x="425.8" y="-75.54" font-family="Times,serif" font-size="14.00">PinboardItem</text>
</a>
</g>
</g>
<!-- Role -->
<g id="node8" class="node">
<title>Role</title>
<g id="a_node8"><a xlink:href="/develop/Data/models.html#role" xlink:title="Role" target="_top">
<polygon fill="#eeefff" stroke="#dddeee" points="452.8,-353.24 398.8,-353.24 398.8,-317.24 452.8,-317.24 452.8,-353.24"/>
<text text-anchor="middle" x="425.8" y="-331.54" font-family="Times,serif" font-size="14.00">Role</text>
</a>
</g>
</g>
<!-- SubsequentCitation -->
<g id="node9" class="node">
<title>SubsequentCitation</title>
<g id="a_node9"><a xlink:href="/develop/Data/models.html#subsequent-citation" xlink:title="SubsequentCitation" target="_top">
<polygon fill="#eeefff" stroke="#dddeee" points="629.3,-407.24 507.3,-407.24 507.3,-371.24 629.3,-371.24 629.3,-407.24"/>
<text text-anchor="middle" x="568.3" y="-385.54" font-family="Times,serif" font-size="14.00">SubsequentCitation</text>
</a>
</g>
</g>
<!-- SubsequentSource -->
<g id="node10" class="node">
<title>SubsequentSource</title>
<g id="a_node10"><a xlink:href="/develop/Data/models.html#subsequent-source" xlink:title="SubsequentSource" target="_top">
<polygon fill="#eeefff" stroke="#dddeee" points="781.3,-407.24 665.3,-407.24 665.3,-371.24 781.3,-371.24 781.3,-407.24"/>
<text text-anchor="middle" x="723.3" y="-385.54" font-family="Times,serif" font-size="14.00">SubsequentSource</text>
</a>
</g>
</g>
<!-- Topic -->
<g id="node11" class="node">
<title>Topic</title>
<g id="a_node11"><a xlink:href="/develop/Data/models.html#topic" xlink:title="Topic" target="_top">
<polygon fill="#eeefff" stroke="#dddeee" points="452.8,-539.24 398.8,-539.24 398.8,-503.24 452.8,-503.24 452.8,-539.24"/>
<text text-anchor="middle" x="425.8" y="-517.54" font-family="Times,serif" font-size="14.00">Topic</text>
</a>
</g>
</g>
<!-- VerifierRole -->
<g id="node12" class="node">
<title>VerifierRole</title>
<g id="a_node12"><a xlink:href="/develop/Data/models.html#verifier-role" xlink:title="VerifierRole" target="_top">
<polygon fill="#eeefff" stroke="#dddeee" points="467.3,-299.24 384.3,-299.24 384.3,-263.24 467.3,-263.24 467.3,-299.24"/>
<text text-anchor="middle" x="425.8" y="-277.54" font-family="Times,serif" font-size="14.00">VerifierRole</text>
</a>
</g>
</g>
<!-- Verifier -->
<g id="node13" class="node">
<title>Verifier</title>
<g id="a_node13"><a xlink:href="/develop/Data/models.html#verifier" xlink:title="Verifier" target="_top">
<polygon fill="#eeefff" stroke="#dddeee" points="596.8,-330.24 539.8,-330.24 539.8,-294.24 596.8,-294.24 596.8,-330.24"/>
<text text-anchor="middle" x="568.3" y="-308.54" font-family="Times,serif" font-size="14.00">Verifier</text>
</a>
</g>
</g>
<!-- Creator -->
<g id="node14" class="node">
<title>Creator</title>
<g id="a_node14"><a xlink:href="/develop/Data/models.html#creator" xlink:title="Creator" target="_top">
<polygon fill="#eeefff" stroke="#dddeee" points="596.8,-207.24 539.8,-207.24 539.8,-171.24 596.8,-171.24 596.8,-207.24"/>
<text text-anchor="middle" x="568.3" y="-185.54" font-family="Times,serif" font-size="14.00">Creator</text>
</a>
</g>
</g>
<!-- Project -->
<g id="node15" class="node">
<title>Project</title>
<g id="a_node15"><a xlink:href="/develop/Data/models.html#project" xlink:title="Project" target="_top">
<polygon fill="#eeefff" stroke="#dddeee" points="453.3,-207.24 398.3,-207.24 398.3,-171.24 453.3,-171.24 453.3,-207.24"/>
<text text-anchor="middle" x="425.8" y="-185.54" font-family="Times,serif" font-size="14.00">Project</text>
</a>
</g>
</g>
<!-- Updater -->
<g id="node16" class="node">
<title>Updater</title>
<g id="a_node16"><a xlink:href="/develop/Data/models.html#updater" xlink:title="Updater" target="_top">
<polygon fill="#eeefff" stroke="#dddeee" points="753.3,-207.24 693.3,-207.24 693.3,-171.24 753.3,-171.24 753.3,-207.24"/>
<text text-anchor="middle" x="723.3" y="-185.54" font-family="Times,serif" font-size="14.00">Updater</text>
</a>
</g>
</g>
<!-- OriginCitation -->
<g id="node17" class="node">
<title>OriginCitation</title>
<g id="a_node17"><a xlink:href="/develop/Data/models.html#origin-citation" xlink:title="OriginCitation" target="_top">
<polygon fill="#eeefff" stroke="#dddeee" points="615.8,-476.24 520.8,-476.24 520.8,-440.24 615.8,-440.24 615.8,-476.24"/>
<text text-anchor="middle" x="568.3" y="-454.54" font-family="Times,serif" font-size="14.00">OriginCitation</text>
</a>
</g>
</g>
</g>
</svg>
