<?xml version="1.0" encoding="UTF-8" standalone="no"?>
<!DOCTYPE svg PUBLIC "-//W3C//DTD SVG 1.1//EN"
 "http://www.w3.org/Graphics/SVG/1.1/DTD/svg11.dtd">
<!-- Generated by graphviz version 2.50.0 (20211204.2007)
 -->
<!-- Title: TaxonNameRelationship Pages: 1 -->
<svg width="815pt" height="564pt"
 viewBox="0.00 0.00 814.85 563.77" xmlns="http://www.w3.org/2000/svg" xmlns:xlink="http://www.w3.org/1999/xlink">
<g id="graph0" class="graph" transform="scale(1 1) rotate(0) translate(4 559.77)">
<title>TaxonNameRelationship</title>
<polygon fill="white" stroke="transparent" points="-4,4 -4,-559.77 810.85,-559.77 810.85,4 -4,4"/>
<!-- Citation&#45;&gt;Source -->
<g id="edge6" class="edge">
<title>Citation&#45;&gt;Source</title>
<path fill="none" stroke="black" d="M78.07,-482.77C153.78,-482.77 322.35,-482.77 396.8,-482.77"/>
<polygon fill="black" stroke="black" points="397.08,-486.27 407.08,-482.77 397.08,-479.27 397.08,-486.27"/>
</g>
<!-- Citation&#45;&gt;CitationTopic -->
<g id="edge1" class="edge">
<title>Citation&#45;&gt;CitationTopic</title>
<path fill="none" stroke="black" d="M72.03,-492.35C98.69,-500.32 137.24,-511.85 168.83,-521.3"/>
<polygon fill="black" stroke="black" points="168.24,-524.77 178.82,-524.28 170.24,-518.06 168.24,-524.77"/>
</g>
<!-- Source&#45;&gt;SubsequentCitation -->
<!-- Source&#45;&gt;OriginCitation -->
<!-- TaxonNameRelationship&#45;&gt;Citation -->
<g id="edge2" class="edge">
<title>TaxonNameRelationship&#45;&gt;Citation</title>
<path fill="none" stroke="black" d="M204.98,-289.02C170.33,-329.71 96.99,-415.84 60.92,-458.2"/>
<polygon fill="black" stroke="black" points="58.25,-455.94 54.43,-465.82 63.58,-460.48 58.25,-455.94"/>
</g>
<!-- TaxonNameRelationship&#45;&gt;Note -->
<g id="edge3" class="edge">
<title>TaxonNameRelationship&#45;&gt;Note</title>
<path fill="none" stroke="black" d="M114.02,-266.77C100.84,-266.77 88.17,-266.77 77.15,-266.77"/>
<polygon fill="black" stroke="black" points="77.14,-263.27 67.14,-266.77 77.14,-270.27 77.14,-263.27"/>
</g>
<!-- TaxonNameRelationship&#45;&gt;Source -->
<g id="edge18" class="edge">
<title>TaxonNameRelationship&#45;&gt;Source</title>
<path fill="none" stroke="black" stroke-dasharray="1,5" d="M244.92,-297.73C270.13,-336.91 317.83,-404.72 371.85,-449.77 382.37,-458.54 395.59,-466 407.07,-471.59"/>
<polygon fill="black" stroke="black" points="247.61,-295.44 239.29,-288.88 241.71,-299.2 247.61,-295.44"/>
</g>
<!-- TaxonNameRelationship&#45;&gt;PinboardItem -->
<g id="edge4" class="edge">
<title>TaxonNameRelationship&#45;&gt;PinboardItem</title>
<path fill="none" stroke="black" d="M331.16,-255.1C347.46,-253.29 363.71,-251.49 378.3,-249.87"/>
<polygon fill="black" stroke="black" points="379.05,-253.31 388.61,-248.73 378.28,-246.35 379.05,-253.31"/>
</g>
<!-- TaxonNameRelationship&#45;&gt;Role -->
<g id="edge5" class="edge">
<title>TaxonNameRelationship&#45;&gt;Role</title>
<path fill="none" stroke="black" d="M280.42,-246.54C317.52,-232.77 365.55,-214.94 397.8,-202.97"/>
<polygon fill="black" stroke="black" points="399.11,-206.21 407.27,-199.45 396.68,-199.65 399.11,-206.21"/>
</g>
<!-- TaxonNameRelationship&#45;&gt;SubsequentCitation -->
<g id="edge7" class="edge">
<title>TaxonNameRelationship&#45;&gt;SubsequentCitation</title>
<path fill="none" stroke="black" d="M325.86,-279.33C377.23,-286.53 440.69,-296.56 496.85,-308.77 505.4,-310.63 514.31,-312.8 523.1,-315.1"/>
<polygon fill="black" stroke="black" points="522.4,-318.53 532.96,-317.73 524.2,-311.77 522.4,-318.53"/>
</g>
<!-- TaxonNameRelationship&#45;&gt;VerifierRole -->
<g id="edge10" class="edge">
<title>TaxonNameRelationship&#45;&gt;VerifierRole</title>
<path fill="none" stroke="black" d="M253.3,-244.65C281.81,-222.26 328.3,-187.5 371.85,-162.77 375.56,-160.66 379.47,-158.61 383.43,-156.63"/>
<polygon fill="black" stroke="black" points="385.23,-159.65 392.74,-152.18 382.21,-153.34 385.23,-159.65"/>
</g>
<!-- TaxonNameRelationship&#45;&gt;Creator -->
<g id="edge12" class="edge">
<title>TaxonNameRelationship&#45;&gt;Creator</title>
<path fill="none" stroke="black" stroke-dasharray="5,2" d="M233.58,-234.7C248.9,-178.63 289.18,-64.24 371.85,-16.77 433.7,18.74 521.19,-10.96 565.24,-30.32"/>
<polygon fill="black" stroke="black" points="230.18,-233.9 231.01,-244.46 236.94,-235.68 230.18,-233.9"/>
</g>
<!-- TaxonNameRelationship&#45;&gt;ObjectTaxonName -->
<g id="edge13" class="edge">
<title>TaxonNameRelationship&#45;&gt;ObjectTaxonName</title>
<path fill="none" stroke="black" stroke-dasharray="5,2" d="M264.84,-294.96C293.62,-315.16 334.18,-342.3 371.85,-362.77 377.49,-365.83 383.54,-368.82 389.57,-371.64"/>
<polygon fill="black" stroke="black" points="266.49,-291.84 256.3,-288.93 262.45,-297.56 266.49,-291.84"/>
</g>
<!-- TaxonNameRelationship&#45;&gt;Project -->
<g id="edge14" class="edge">
<title>TaxonNameRelationship&#45;&gt;Project</title>
<path fill="none" stroke="black" stroke-dasharray="5,2" d="M243.62,-235.79C268.15,-194.97 315.88,-122.83 371.85,-75.77 382.17,-67.09 395.23,-59.89 406.66,-54.52"/>
<polygon fill="black" stroke="black" points="240.55,-234.11 238.45,-244.49 246.57,-237.68 240.55,-234.11"/>
</g>
<!-- TaxonNameRelationship&#45;&gt;SubjectTaxonName -->
<g id="edge15" class="edge">
<title>TaxonNameRelationship&#45;&gt;SubjectTaxonName</title>
<path fill="none" stroke="black" stroke-dasharray="5,2" d="M294.12,-289.46C321.73,-298.64 353.16,-309.09 379.16,-317.74"/>
<polygon fill="black" stroke="black" points="295.13,-286.1 284.53,-286.27 292.92,-292.74 295.13,-286.1"/>
</g>
<!-- TaxonNameRelationship&#45;&gt;Updater -->
<g id="edge16" class="edge">
<title>TaxonNameRelationship&#45;&gt;Updater</title>
<path fill="none" stroke="black" stroke-dasharray="5,2" d="M244.76,-235.82C269.11,-198.83 315.19,-138.22 371.85,-108.77 484.46,-50.25 530.68,-96.98 654.85,-70.77 676.57,-66.19 700.62,-59.15 718.82,-53.41"/>
<polygon fill="black" stroke="black" points="241.52,-234.39 239.05,-244.69 247.41,-238.18 241.52,-234.39"/>
</g>
<!-- TaxonNameRelationship&#45;&gt;OriginCitation -->
<g id="edge17" class="edge">
<title>TaxonNameRelationship&#45;&gt;OriginCitation</title>
<path fill="none" stroke="black" stroke-dasharray="1,5" d="M246.63,-297.36C271.92,-332.13 318.02,-387.81 371.85,-416.77 426.89,-446.37 499.46,-455.38 546.15,-457.97"/>
<polygon fill="black" stroke="black" points="249.32,-295.1 240.66,-289 243.63,-299.17 249.32,-295.1"/>
</g>
<!-- CitationTopic&#45;&gt;Topic -->
<g id="edge9" class="edge">
<title>CitationTopic&#45;&gt;Topic</title>
<path fill="none" stroke="black" d="M270.93,-537.77C308.62,-537.77 361.73,-537.77 396.82,-537.77"/>
<polygon fill="black" stroke="black" points="397.1,-541.27 407.1,-537.77 397.1,-534.27 397.1,-541.27"/>
</g>
<!-- Role&#45;&gt;Verifier -->
<!-- SubsequentCitation&#45;&gt;SubsequentSource -->
<g id="edge8" class="edge">
<title>SubsequentCitation&#45;&gt;SubsequentSource</title>
<path fill="none" stroke="black" d="M654.89,-335.77C663.22,-335.77 671.82,-335.77 680.28,-335.77"/>
<polygon fill="black" stroke="black" points="680.5,-339.27 690.5,-335.77 680.5,-332.27 680.5,-339.27"/>
</g>
<!-- VerifierRole&#45;&gt;Verifier -->
<g id="edge11" class="edge">
<title>VerifierRole&#45;&gt;Verifier</title>
<path fill="none" stroke="black" d="M475.91,-142.72C500.37,-146.91 531.31,-152.22 555.22,-156.32"/>
<polygon fill="black" stroke="black" points="554.88,-159.81 565.32,-158.05 556.06,-152.91 554.88,-159.81"/>
</g>
<!-- Creator&#45;&gt;Updater -->
<!-- Project&#45;&gt;Creator -->
<!-- Citation -->
<g id="node1" class="node">
<title>Citation</title>
<g id="a_node1"><a xlink:href="/develop/Data/models.html#citation" xlink:title="Citation" target="_top">
<ellipse fill="#abcdef" stroke="#dddeee" cx="39" cy="-482.77" rx="38.99" ry="18"/>
<text text-anchor="middle" x="39" y="-479.07" font-family="Times,serif" font-size="14.00">Citation</text>
</a>
</g>
</g>
<!-- Note -->
<g id="node2" class="node">
<title>Note</title>
<g id="a_node2"><a xlink:href="/develop/Data/models.html#note" xlink:title="Note" target="_top">
<ellipse fill="#abcdef" stroke="#dddeee" cx="39" cy="-266.77" rx="27.9" ry="18"/>
<text text-anchor="middle" x="39" y="-263.07" font-family="Times,serif" font-size="14.00">Note</text>
</a>
</g>
</g>
<!-- Source -->
<g id="node3" class="node">
<title>Source</title>
<g id="a_node3"><a xlink:href="/develop/Data/models.html#source" xlink:title="Source" target="_top">
<path fill="#fedcba" stroke="#dddeee" d="M419.35,-464.77C419.35,-464.77 449.35,-464.77 449.35,-464.77 455.35,-464.77 461.35,-470.77 461.35,-476.77 461.35,-476.77 461.35,-488.77 461.35,-488.77 461.35,-494.77 455.35,-500.77 449.35,-500.77 449.35,-500.77 419.35,-500.77 419.35,-500.77 413.35,-500.77 407.35,-494.77 407.35,-488.77 407.35,-488.77 407.35,-476.77 407.35,-476.77 407.35,-470.77 413.35,-464.77 419.35,-464.77"/>
<text text-anchor="middle" x="434.35" y="-479.07" font-family="Times,serif" font-size="14.00">Source</text>
</a>
</g>
</g>
<!-- TaxonNameRelationship -->
<g id="node4" class="node">
<title>TaxonNameRelationship</title>
<g id="a_node4"><a xlink:href="/develop/Data/models.html#taxon-name-relationship" xlink:title="TaxonNameRelationship" target="_top">
<polygon fill="#cdefab" stroke="#dedede" points="331.79,-259.31 331.79,-274.23 269.19,-284.77 180.66,-284.77 118.06,-274.23 118.06,-259.31 180.66,-248.77 269.19,-248.77 331.79,-259.31"/>
<polygon fill="none" stroke="#dedede" points="335.79,-255.93 335.79,-277.61 269.52,-288.77 180.33,-288.77 114.06,-277.61 114.06,-255.93 180.33,-244.77 269.52,-244.77 335.79,-255.93"/>
<text text-anchor="middle" x="224.92" y="-263.07" font-family="Times,serif" font-size="14.00">TaxonNameRelationship</text>
</a>
</g>
</g>
<!-- CitationTopic -->
<g id="node5" class="node">
<title>CitationTopic</title>
<g id="a_node5"><a xlink:href="/develop/Data/models.html#citation-topic" xlink:title="CitationTopic" target="_top">
<polygon fill="#eeefff" stroke="#dddeee" points="270.92,-555.77 178.92,-555.77 178.92,-519.77 270.92,-519.77 270.92,-555.77"/>
<text text-anchor="middle" x="224.92" y="-534.07" font-family="Times,serif" font-size="14.00">CitationTopic</text>
</a>
</g>
</g>
<!-- PinboardItem -->
<g id="node6" class="node">
<title>PinboardItem</title>
<g id="a_node6"><a xlink:href="/develop/Data/models.html#pinboard-item" xlink:title="PinboardItem" target="_top">
<polygon fill="#eeefff" stroke="#dddeee" points="479.85,-261.77 388.85,-261.77 388.85,-225.77 479.85,-225.77 479.85,-261.77"/>
<text text-anchor="middle" x="434.35" y="-240.07" font-family="Times,serif" font-size="14.00">PinboardItem</text>
</a>
</g>
</g>
<!-- Role -->
<g id="node7" class="node">
<title>Role</title>
<g id="a_node7"><a xlink:href="/develop/Data/models.html#role" xlink:title="Role" target="_top">
<polygon fill="#eeefff" stroke="#dddeee" points="461.35,-207.77 407.35,-207.77 407.35,-171.77 461.35,-171.77 461.35,-207.77"/>
<text text-anchor="middle" x="434.35" y="-186.07" font-family="Times,serif" font-size="14.00">Role</text>
</a>
</g>
</g>
<!-- SubsequentCitation -->
<g id="node8" class="node">
<title>SubsequentCitation</title>
<g id="a_node8"><a xlink:href="/develop/Data/models.html#subsequent-citation" xlink:title="SubsequentCitation" target="_top">
<polygon fill="#eeefff" stroke="#dddeee" points="654.85,-353.77 532.85,-353.77 532.85,-317.77 654.85,-317.77 654.85,-353.77"/>
<text text-anchor="middle" x="593.85" y="-332.07" font-family="Times,serif" font-size="14.00">SubsequentCitation</text>
</a>
</g>
</g>
<!-- SubsequentSource -->
<g id="node9" class="node">
<title>SubsequentSource</title>
<g id="a_node9"><a xlink:href="/develop/Data/models.html#subsequent-source" xlink:title="SubsequentSource" target="_top">
<polygon fill="#eeefff" stroke="#dddeee" points="806.85,-353.77 690.85,-353.77 690.85,-317.77 806.85,-317.77 806.85,-353.77"/>
<text text-anchor="middle" x="748.85" y="-332.07" font-family="Times,serif" font-size="14.00">SubsequentSource</text>
</a>
</g>
</g>
<!-- Topic -->
<g id="node10" class="node">
<title>Topic</title>
<g id="a_node10"><a xlink:href="/develop/Data/models.html#topic" xlink:title="Topic" target="_top">
<polygon fill="#eeefff" stroke="#dddeee" points="461.35,-555.77 407.35,-555.77 407.35,-519.77 461.35,-519.77 461.35,-555.77"/>
<text text-anchor="middle" x="434.35" y="-534.07" font-family="Times,serif" font-size="14.00">Topic</text>
</a>
</g>
</g>
<!-- VerifierRole -->
<g id="node11" class="node">
<title>VerifierRole</title>
<g id="a_node11"><a xlink:href="/develop/Data/models.html#verifier-role" xlink:title="VerifierRole" target="_top">
<polygon fill="#eeefff" stroke="#dddeee" points="475.85,-153.77 392.85,-153.77 392.85,-117.77 475.85,-117.77 475.85,-153.77"/>
<text text-anchor="middle" x="434.35" y="-132.07" font-family="Times,serif" font-size="14.00">VerifierRole</text>
</a>
</g>
</g>
<!-- Verifier -->
<g id="node12" class="node">
<title>Verifier</title>
<g id="a_node12"><a xlink:href="/develop/Data/models.html#verifier" xlink:title="Verifier" target="_top">
<polygon fill="#eeefff" stroke="#dddeee" points="622.35,-180.77 565.35,-180.77 565.35,-144.77 622.35,-144.77 622.35,-180.77"/>
<text text-anchor="middle" x="593.85" y="-159.07" font-family="Times,serif" font-size="14.00">Verifier</text>
</a>
</g>
</g>
<!-- Creator -->
<g id="node13" class="node">
<title>Creator</title>
<g id="a_node13"><a xlink:href="/develop/Data/models.html#creator" xlink:title="Creator" target="_top">
<polygon fill="#eeefff" stroke="#dddeee" points="622.35,-61.77 565.35,-61.77 565.35,-25.77 622.35,-25.77 622.35,-61.77"/>
<text text-anchor="middle" x="593.85" y="-40.07" font-family="Times,serif" font-size="14.00">Creator</text>
</a>
</g>
</g>
<!-- ObjectTaxonName -->
<g id="node14" class="node">
<title>ObjectTaxonName</title>
<g id="a_node14"><a xlink:href="/develop/Data/models.html#object-taxon-name" xlink:title="ObjectTaxonName" target="_top">
<polygon fill="#eeefff" stroke="#dddeee" points="494.35,-407.77 374.35,-407.77 374.35,-371.77 494.35,-371.77 494.35,-407.77"/>
<text text-anchor="middle" x="434.35" y="-386.07" font-family="Times,serif" font-size="14.00">ObjectTaxonName</text>
</a>
</g>
</g>
<!-- Project -->
<g id="node15" class="node">
<title>Project</title>
<g id="a_node15"><a xlink:href="/develop/Data/models.html#project" xlink:title="Project" target="_top">
<polygon fill="#eeefff" stroke="#dddeee" points="461.85,-61.77 406.85,-61.77 406.85,-25.77 461.85,-25.77 461.85,-61.77"/>
<text text-anchor="middle" x="434.35" y="-40.07" font-family="Times,serif" font-size="14.00">Project</text>
</a>
</g>
</g>
<!-- SubjectTaxonName -->
<g id="node16" class="node">
<title>SubjectTaxonName</title>
<g id="a_node16"><a xlink:href="/develop/Data/models.html#subject-taxon-name" xlink:title="SubjectTaxonName" target="_top">
<polygon fill="#eeefff" stroke="#dddeee" points="496.85,-353.77 371.85,-353.77 371.85,-317.77 496.85,-317.77 496.85,-353.77"/>
<text text-anchor="middle" x="434.35" y="-332.07" font-family="Times,serif" font-size="14.00">SubjectTaxonName</text>
</a>
</g>
</g>
<!-- Updater -->
<g id="node17" class="node">
<title>Updater</title>
<g id="a_node17"><a xlink:href="/develop/Data/models.html#updater" xlink:title="Updater" target="_top">
<polygon fill="#eeefff" stroke="#dddeee" points="778.85,-61.77 718.85,-61.77 718.85,-25.77 778.85,-25.77 778.85,-61.77"/>
<text text-anchor="middle" x="748.85" y="-40.07" font-family="Times,serif" font-size="14.00">Updater</text>
</a>
</g>
</g>
<!-- OriginCitation -->
<g id="node18" class="node">
<title>OriginCitation</title>
<g id="a_node18"><a xlink:href="/develop/Data/models.html#origin-citation" xlink:title="OriginCitation" target="_top">
<polygon fill="#eeefff" stroke="#dddeee" points="641.35,-476.77 546.35,-476.77 546.35,-440.77 641.35,-440.77 641.35,-476.77"/>
<text text-anchor="middle" x="593.85" y="-455.07" font-family="Times,serif" font-size="14.00">OriginCitation</text>
</a>
</g>
</g>
</g>
</svg>
