<?xml version="1.0" encoding="UTF-8" standalone="no"?>
<!DOCTYPE svg PUBLIC "-//W3C//DTD SVG 1.1//EN"
 "http://www.w3.org/Graphics/SVG/1.1/DTD/svg11.dtd">
<!-- Generated by graphviz version 2.50.0 (20211204.2007)
 -->
<!-- Title: TypeMaterial Pages: 1 -->
<svg width="753pt" height="616pt"
 viewBox="0.00 0.00 753.33 616.00" xmlns="http://www.w3.org/2000/svg" xmlns:xlink="http://www.w3.org/1999/xlink">
<g id="graph0" class="graph" transform="scale(1 1) rotate(0) translate(4 612)">
<title>TypeMaterial</title>
<polygon fill="white" stroke="transparent" points="-4,4 -4,-612 749.33,-612 749.33,4 -4,4"/>
<text text-anchor="middle" x="372.66" y="-22.8" font-family="Times,serif" font-size="14.00">Algorithmically generated relationships for TypeMaterial based on assertions of &#39;has_many&#39;, &#39;has_one&#39;, &#39;belongs_to&#39;. </text>
<text text-anchor="middle" x="372.66" y="-7.8" font-family="Times,serif" font-size="14.00">Generated 2022&#45;01&#45;25 11:43:50 &#45;0600.</text>
<!-- Citation&#45;&gt;Source -->
<g id="edge10" class="edge">
<title>Citation&#45;&gt;Source</title>
<path fill="none" stroke="black" d="M98.39,-535C160.46,-535 282.31,-535 343.27,-535"/>
<polygon fill="black" stroke="black" points="343.57,-538.5 353.57,-535 343.57,-531.5 343.57,-538.5"/>
</g>
<!-- Citation&#45;&gt;CitationTopic -->
<g id="edge1" class="edge">
<title>Citation&#45;&gt;CitationTopic</title>
<path fill="none" stroke="black" d="M91.22,-545.6C112.46,-552.85 141.18,-562.66 166.24,-571.21"/>
<polygon fill="black" stroke="black" points="165.4,-574.62 176,-574.54 167.67,-568 165.4,-574.62"/>
</g>
<!-- Confidence&#45;&gt;ConfidenceLevel -->
<g id="edge3" class="edge">
<title>Confidence&#45;&gt;ConfidenceLevel</title>
<path fill="none" stroke="black" d="M110.25,-285.69C125.19,-285.6 141.76,-285.49 157.44,-285.4"/>
<polygon fill="black" stroke="black" points="157.62,-288.9 167.6,-285.33 157.57,-281.9 157.62,-288.9"/>
</g>
<!-- Tag&#45;&gt;Keyword -->
<g id="edge6" class="edge">
<title>Tag&#45;&gt;Keyword</title>
<path fill="none" stroke="black" d="M86.4,-231.84C111.26,-231.68 149.04,-231.45 178.31,-231.27"/>
<polygon fill="black" stroke="black" points="178.68,-234.76 188.66,-231.2 178.64,-227.76 178.68,-234.76"/>
</g>
<!-- Source&#45;&gt;SubsequentCitation -->
<!-- Source&#45;&gt;OriginCitation -->
<!-- TypeMaterial&#45;&gt;Citation -->
<g id="edge2" class="edge">
<title>TypeMaterial&#45;&gt;Citation</title>
<path fill="none" stroke="black" d="M202.81,-365.03C172.51,-401.13 112.51,-472.61 80.84,-510.35"/>
<polygon fill="black" stroke="black" points="77.91,-508.39 74.16,-518.3 83.27,-512.89 77.91,-508.39"/>
</g>
<!-- TypeMaterial&#45;&gt;Confidence -->
<g id="edge4" class="edge">
<title>TypeMaterial&#45;&gt;Confidence</title>
<path fill="none" stroke="black" d="M174.92,-326.59C153.12,-318.88 127.22,-309.72 105.54,-302.06"/>
<polygon fill="black" stroke="black" points="106.51,-298.68 95.91,-298.65 104.17,-305.28 106.51,-298.68"/>
</g>
<!-- TypeMaterial&#45;&gt;DataAttribute -->
<g id="edge5" class="edge">
<title>TypeMaterial&#45;&gt;DataAttribute</title>
<path fill="none" stroke="black" d="M154.17,-342.17C145.71,-342.06 137.04,-341.95 128.56,-341.85"/>
<polygon fill="black" stroke="black" points="128.37,-338.35 118.33,-341.72 128.28,-345.35 128.37,-338.35"/>
</g>
<!-- TypeMaterial&#45;&gt;Tag -->
<g id="edge13" class="edge">
<title>TypeMaterial&#45;&gt;Tag</title>
<path fill="none" stroke="black" d="M176.02,-326.17C168.32,-322.19 160.74,-317.47 154.29,-312 132.58,-293.58 139.99,-277.44 118.29,-259 110.94,-252.75 101.9,-247.64 93.17,-243.61"/>
<polygon fill="black" stroke="black" points="94.46,-240.36 83.89,-239.66 91.72,-246.8 94.46,-240.36"/>
</g>
<!-- TypeMaterial&#45;&gt;Note -->
<g id="edge7" class="edge">
<title>TypeMaterial&#45;&gt;Note</title>
<path fill="none" stroke="black" d="M172.53,-358.74C147.23,-366.9 116.94,-376.67 94.19,-384.02"/>
<polygon fill="black" stroke="black" points="93.06,-380.7 84.62,-387.1 95.21,-387.36 93.06,-380.7"/>
</g>
<!-- TypeMaterial&#45;&gt;Source -->
<g id="edge23" class="edge">
<title>TypeMaterial&#45;&gt;Source</title>
<path fill="none" stroke="black" stroke-dasharray="1,5" d="M238.25,-374.33C255.78,-408.67 287.42,-463.95 326.33,-502 334.28,-509.78 344.39,-516.6 353.68,-521.99"/>
<polygon fill="black" stroke="black" points="241.3,-372.6 233.69,-365.23 235.05,-375.73 241.3,-372.6"/>
</g>
<!-- TypeMaterial&#45;&gt;CollectionObject -->
<g id="edge17" class="edge">
<title>TypeMaterial&#45;&gt;CollectionObject</title>
<path fill="none" stroke="black" stroke-dasharray="5,2" d="M278.04,-321.41C282.43,-318.59 286.61,-315.46 290.33,-312 314.51,-289.51 302.7,-270.07 326.33,-247 330.08,-243.34 334.4,-240.04 338.94,-237.1"/>
<polygon fill="black" stroke="black" points="276.25,-318.4 269.37,-326.46 279.77,-324.45 276.25,-318.4"/>
</g>
<!-- TypeMaterial&#45;&gt;PinboardItem -->
<g id="edge8" class="edge">
<title>TypeMaterial&#45;&gt;PinboardItem</title>
<path fill="none" stroke="black" d="M271.48,-326.93C278.51,-322.93 285.12,-318.01 290.33,-312 327.04,-269.57 290.34,-234.05 326.33,-191 326.94,-190.27 327.58,-189.55 328.24,-188.85"/>
<polygon fill="black" stroke="black" points="330.82,-191.24 336.05,-182.03 326.21,-185.97 330.82,-191.24"/>
</g>
<!-- TypeMaterial&#45;&gt;Role -->
<g id="edge9" class="edge">
<title>TypeMaterial&#45;&gt;Role</title>
<path fill="none" stroke="black" d="M271.93,-327.31C278.91,-323.26 285.39,-318.23 290.33,-312 339.65,-249.77 278.07,-200.06 326.33,-137 331.02,-130.87 337.49,-126.02 344.31,-122.23"/>
<polygon fill="black" stroke="black" points="346.22,-125.19 353.7,-117.69 343.18,-118.89 346.22,-125.19"/>
</g>
<!-- TypeMaterial&#45;&gt;SubsequentCitation -->
<g id="edge11" class="edge">
<title>TypeMaterial&#45;&gt;SubsequentCitation</title>
<path fill="none" stroke="black" d="M238.23,-365.35C256.3,-390.84 289.01,-432.18 326.33,-457 367.33,-484.27 419.81,-502.45 461.41,-513.72"/>
<polygon fill="black" stroke="black" points="460.64,-517.13 471.2,-516.3 462.42,-510.36 460.64,-517.13"/>
</g>
<!-- TypeMaterial&#45;&gt;VerifierRole -->
<g id="edge15" class="edge">
<title>TypeMaterial&#45;&gt;VerifierRole</title>
<path fill="none" stroke="black" d="M272.52,-327.3C279.34,-323.27 285.61,-318.24 290.33,-312 352.41,-229.78 265.65,-166.27 326.33,-83 327.72,-81.09 329.29,-79.3 330.99,-77.63"/>
<polygon fill="black" stroke="black" points="333.56,-80.06 339.17,-71.07 329.18,-74.6 333.56,-80.06"/>
</g>
<!-- TypeMaterial&#45;&gt;Creator -->
<g id="edge18" class="edge">
<title>TypeMaterial&#45;&gt;Creator</title>
<path fill="none" stroke="black" stroke-dasharray="5,2" d="M297.49,-329.78C338.32,-322.14 389.81,-311.89 435.33,-301 458.56,-295.44 484.64,-288.03 503.75,-282.38"/>
<polygon fill="black" stroke="black" points="296.8,-326.35 287.61,-331.62 298.08,-333.23 296.8,-326.35"/>
</g>
<!-- TypeMaterial&#45;&gt;Project -->
<g id="edge19" class="edge">
<title>TypeMaterial&#45;&gt;Project</title>
<path fill="none" stroke="black" stroke-dasharray="5,2" d="M273.51,-320.87C299.95,-309.21 331.31,-295.39 353.08,-285.79"/>
<polygon fill="black" stroke="black" points="271.76,-317.81 264.02,-325.05 274.58,-324.22 271.76,-317.81"/>
</g>
<!-- TypeMaterial&#45;&gt;Protonym -->
<g id="edge20" class="edge">
<title>TypeMaterial&#45;&gt;Protonym</title>
<path fill="none" stroke="black" stroke-dasharray="5,2" d="M300.74,-354.38C316.24,-356.66 331.78,-358.94 344.93,-360.87"/>
<polygon fill="black" stroke="black" points="301,-350.88 290.59,-352.89 299.98,-357.8 301,-350.88"/>
</g>
<!-- TypeMaterial&#45;&gt;Updater -->
<g id="edge21" class="edge">
<title>TypeMaterial&#45;&gt;Updater</title>
<path fill="none" stroke="black" stroke-dasharray="5,2" d="M264.89,-368.5C283.05,-378.21 305.04,-388.11 326.33,-393 373.54,-403.85 388.06,-403.64 435.33,-393 522.13,-373.46 614.19,-320.28 658.84,-292.09"/>
<polygon fill="black" stroke="black" points="266.21,-365.23 255.76,-363.47 262.83,-371.36 266.21,-365.23"/>
</g>
<!-- TypeMaterial&#45;&gt;OriginCitation -->
<g id="edge22" class="edge">
<title>TypeMaterial&#45;&gt;OriginCitation</title>
<path fill="none" stroke="black" stroke-dasharray="1,5" d="M251.79,-372.17C271.16,-390.34 298.29,-412.72 326.33,-426 377.26,-450.13 441.67,-460.81 484.56,-465.47"/>
<polygon fill="black" stroke="black" points="254.14,-369.58 244.5,-365.19 249.3,-374.63 254.14,-369.58"/>
</g>
<!-- CitationTopic&#45;&gt;Topic -->
<g id="edge14" class="edge">
<title>CitationTopic&#45;&gt;Topic</title>
<path fill="none" stroke="black" d="M268.58,-590C292.43,-590 321.28,-590 343.63,-590"/>
<polygon fill="black" stroke="black" points="343.71,-593.5 353.71,-590 343.71,-586.5 343.71,-593.5"/>
</g>
<!-- Role&#45;&gt;Verifier -->
<!-- SubsequentCitation&#45;&gt;SubsequentSource -->
<g id="edge12" class="edge">
<title>SubsequentCitation&#45;&gt;SubsequentSource</title>
<path fill="none" stroke="black" d="M593.36,-529C601.69,-529 610.29,-529 618.75,-529"/>
<polygon fill="black" stroke="black" points="618.97,-532.5 628.97,-529 618.97,-525.5 618.97,-532.5"/>
</g>
<!-- VerifierRole&#45;&gt;Verifier -->
<g id="edge16" class="edge">
<title>VerifierRole&#45;&gt;Verifier</title>
<path fill="none" stroke="black" d="M422.68,-63.38C444.82,-67.38 471.99,-72.28 493.62,-76.19"/>
<polygon fill="black" stroke="black" points="493.29,-79.69 503.75,-78.02 494.53,-72.8 493.29,-79.69"/>
</g>
<!-- Creator&#45;&gt;Updater -->
<!-- Project&#45;&gt;Creator -->
<!-- Citation -->
<g id="node1" class="node">
<title>Citation</title>
<g id="a_node1"><a xlink:href="/develop/Data/models.html#citation" xlink:title="Citation" target="_top">
<ellipse fill="#abcdef" stroke="#dddeee" cx="59.14" cy="-535" rx="38.99" ry="18"/>
<text text-anchor="middle" x="59.14" y="-531.3" font-family="Times,serif" font-size="14.00">Citation</text>
</a>
</g>
</g>
<!-- Confidence -->
<g id="node2" class="node">
<title>Confidence</title>
<g id="a_node2"><a xlink:href="/develop/Data/models.html#confidence" xlink:title="Confidence" target="_top">
<ellipse fill="#abcdef" stroke="#dddeee" cx="59.14" cy="-286" rx="50.89" ry="18"/>
<text text-anchor="middle" x="59.14" y="-282.3" font-family="Times,serif" font-size="14.00">Confidence</text>
</a>
</g>
</g>
<!-- DataAttribute -->
<g id="node3" class="node">
<title>DataAttribute</title>
<g id="a_node3"><a xlink:href="/develop/Data/models.html#data-attribute" xlink:title="DataAttribute" target="_top">
<ellipse fill="#abcdef" stroke="#dddeee" cx="59.14" cy="-341" rx="59.29" ry="18"/>
<text text-anchor="middle" x="59.14" y="-337.3" font-family="Times,serif" font-size="14.00">DataAttribute</text>
</a>
</g>
</g>
<!-- Tag -->
<g id="node4" class="node">
<title>Tag</title>
<g id="a_node4"><a xlink:href="/develop/Data/models.html#tag" xlink:title="Tag" target="_top">
<ellipse fill="#abcdef" stroke="#dddeee" cx="59.14" cy="-232" rx="27" ry="18"/>
<text text-anchor="middle" x="59.14" y="-228.3" font-family="Times,serif" font-size="14.00">Tag</text>
</a>
</g>
</g>
<!-- Note -->
<g id="node5" class="node">
<title>Note</title>
<g id="a_node5"><a xlink:href="/develop/Data/models.html#note" xlink:title="Note" target="_top">
<ellipse fill="#abcdef" stroke="#dddeee" cx="59.14" cy="-395" rx="27.9" ry="18"/>
<text text-anchor="middle" x="59.14" y="-391.3" font-family="Times,serif" font-size="14.00">Note</text>
</a>
</g>
</g>
<!-- Source -->
<g id="node6" class="node">
<title>Source</title>
<g id="a_node6"><a xlink:href="/develop/Data/models.html#source" xlink:title="Source" target="_top">
<path fill="#fedcba" stroke="#dddeee" d="M365.83,-517C365.83,-517 395.83,-517 395.83,-517 401.83,-517 407.83,-523 407.83,-529 407.83,-529 407.83,-541 407.83,-541 407.83,-547 401.83,-553 395.83,-553 395.83,-553 365.83,-553 365.83,-553 359.83,-553 353.83,-547 353.83,-541 353.83,-541 353.83,-529 353.83,-529 353.83,-523 359.83,-517 365.83,-517"/>
<text text-anchor="middle" x="380.83" y="-531.3" font-family="Times,serif" font-size="14.00">Source</text>
</a>
</g>
</g>
<!-- CollectionObject -->
<g id="node7" class="node">
<title>CollectionObject</title>
<g id="a_node7"><a xlink:href="/develop/Data/models.html#collection-object" xlink:title="CollectionObject" target="_top">
<path fill="#fedcba" stroke="#dddeee" d="M338.33,-201C338.33,-201 423.33,-201 423.33,-201 429.33,-201 435.33,-207 435.33,-213 435.33,-213 435.33,-225 435.33,-225 435.33,-231 429.33,-237 423.33,-237 423.33,-237 338.33,-237 338.33,-237 332.33,-237 326.33,-231 326.33,-225 326.33,-225 326.33,-213 326.33,-213 326.33,-207 332.33,-201 338.33,-201"/>
<text text-anchor="middle" x="380.83" y="-215.3" font-family="Times,serif" font-size="14.00">CollectionObject</text>
</a>
</g>
</g>
<!-- TypeMaterial -->
<g id="node8" class="node">
<title>TypeMaterial</title>
<g id="a_node8"><a xlink:href="/develop/Data/models.html#type-material" xlink:title="TypeMaterial" target="_top">
<polygon fill="#cdefab" stroke="#dedede" points="286.34,-335.54 286.34,-350.46 248.83,-361 195.78,-361 158.27,-350.46 158.27,-335.54 195.78,-325 248.83,-325 286.34,-335.54"/>
<polygon fill="none" stroke="#dedede" points="290.34,-332.51 290.34,-353.49 249.38,-365 195.23,-365 154.27,-353.49 154.27,-332.51 195.23,-321 249.38,-321 290.34,-332.51"/>
<text text-anchor="middle" x="222.31" y="-339.3" font-family="Times,serif" font-size="14.00">TypeMaterial</text>
</a>
</g>
</g>
<!-- CitationTopic -->
<g id="node9" class="node">
<title>CitationTopic</title>
<g id="a_node9"><a xlink:href="/develop/Data/models.html#citation-topic" xlink:title="CitationTopic" target="_top">
<polygon fill="#eeefff" stroke="#dddeee" points="268.31,-608 176.31,-608 176.31,-572 268.31,-572 268.31,-608"/>
<text text-anchor="middle" x="222.31" y="-586.3" font-family="Times,serif" font-size="14.00">CitationTopic</text>
</a>
</g>
</g>
<!-- ConfidenceLevel -->
<g id="node10" class="node">
<title>ConfidenceLevel</title>
<g id="a_node10"><a xlink:href="/develop/Data/models.html#confidence-level" xlink:title="ConfidenceLevel" target="_top">
<polygon fill="#eeefff" stroke="#dddeee" points="276.81,-303 167.81,-303 167.81,-267 276.81,-267 276.81,-303"/>
<text text-anchor="middle" x="222.31" y="-281.3" font-family="Times,serif" font-size="14.00">ConfidenceLevel</text>
</a>
</g>
</g>
<!-- Keyword -->
<g id="node11" class="node">
<title>Keyword</title>
<g id="a_node11"><a xlink:href="/develop/Data/models.html#keyword" xlink:title="Keyword" target="_top">
<polygon fill="#eeefff" stroke="#dddeee" points="255.81,-249 188.81,-249 188.81,-213 255.81,-213 255.81,-249"/>
<text text-anchor="middle" x="222.31" y="-227.3" font-family="Times,serif" font-size="14.00">Keyword</text>
</a>
</g>
</g>
<!-- PinboardItem -->
<g id="node12" class="node">
<title>PinboardItem</title>
<g id="a_node12"><a xlink:href="/develop/Data/models.html#pinboard-item" xlink:title="PinboardItem" target="_top">
<polygon fill="#eeefff" stroke="#dddeee" points="426.33,-182 335.33,-182 335.33,-146 426.33,-146 426.33,-182"/>
<text text-anchor="middle" x="380.83" y="-160.3" font-family="Times,serif" font-size="14.00">PinboardItem</text>
</a>
</g>
</g>
<!-- Role -->
<g id="node13" class="node">
<title>Role</title>
<g id="a_node13"><a xlink:href="/develop/Data/models.html#role" xlink:title="Role" target="_top">
<polygon fill="#eeefff" stroke="#dddeee" points="407.83,-128 353.83,-128 353.83,-92 407.83,-92 407.83,-128"/>
<text text-anchor="middle" x="380.83" y="-106.3" font-family="Times,serif" font-size="14.00">Role</text>
</a>
</g>
</g>
<!-- SubsequentCitation -->
<g id="node14" class="node">
<title>SubsequentCitation</title>
<g id="a_node14"><a xlink:href="/develop/Data/models.html#subsequent-citation" xlink:title="SubsequentCitation" target="_top">
<polygon fill="#eeefff" stroke="#dddeee" points="593.33,-547 471.33,-547 471.33,-511 593.33,-511 593.33,-547"/>
<text text-anchor="middle" x="532.33" y="-525.3" font-family="Times,serif" font-size="14.00">SubsequentCitation</text>
</a>
</g>
</g>
<!-- SubsequentSource -->
<g id="node15" class="node">
<title>SubsequentSource</title>
<g id="a_node15"><a xlink:href="/develop/Data/models.html#subsequent-source" xlink:title="SubsequentSource" target="_top">
<polygon fill="#eeefff" stroke="#dddeee" points="745.33,-547 629.33,-547 629.33,-511 745.33,-511 745.33,-547"/>
<text text-anchor="middle" x="687.33" y="-525.3" font-family="Times,serif" font-size="14.00">SubsequentSource</text>
</a>
</g>
</g>
<!-- Topic -->
<g id="node16" class="node">
<title>Topic</title>
<g id="a_node16"><a xlink:href="/develop/Data/models.html#topic" xlink:title="Topic" target="_top">
<polygon fill="#eeefff" stroke="#dddeee" points="407.83,-608 353.83,-608 353.83,-572 407.83,-572 407.83,-608"/>
<text text-anchor="middle" x="380.83" y="-586.3" font-family="Times,serif" font-size="14.00">Topic</text>
</a>
</g>
</g>
<!-- VerifierRole -->
<g id="node17" class="node">
<title>VerifierRole</title>
<g id="a_node17"><a xlink:href="/develop/Data/models.html#verifier-role" xlink:title="VerifierRole" target="_top">
<polygon fill="#eeefff" stroke="#dddeee" points="422.33,-74 339.33,-74 339.33,-38 422.33,-38 422.33,-74"/>
<text text-anchor="middle" x="380.83" y="-52.3" font-family="Times,serif" font-size="14.00">VerifierRole</text>
</a>
</g>
</g>
<!-- Verifier -->
<g id="node18" class="node">
<title>Verifier</title>
<g id="a_node18"><a xlink:href="/develop/Data/models.html#verifier" xlink:title="Verifier" target="_top">
<polygon fill="#eeefff" stroke="#dddeee" points="560.83,-101 503.83,-101 503.83,-65 560.83,-65 560.83,-101"/>
<text text-anchor="middle" x="532.33" y="-79.3" font-family="Times,serif" font-size="14.00">Verifier</text>
</a>
</g>
</g>
<!-- Creator -->
<g id="node19" class="node">
<title>Creator</title>
<g id="a_node19"><a xlink:href="/develop/Data/models.html#creator" xlink:title="Creator" target="_top">
<polygon fill="#eeefff" stroke="#dddeee" points="560.83,-292 503.83,-292 503.83,-256 560.83,-256 560.83,-292"/>
<text text-anchor="middle" x="532.33" y="-270.3" font-family="Times,serif" font-size="14.00">Creator</text>
</a>
</g>
</g>
<!-- Project -->
<g id="node20" class="node">
<title>Project</title>
<g id="a_node20"><a xlink:href="/develop/Data/models.html#project" xlink:title="Project" target="_top">
<polygon fill="#eeefff" stroke="#dddeee" points="408.33,-292 353.33,-292 353.33,-256 408.33,-256 408.33,-292"/>
<text text-anchor="middle" x="380.83" y="-270.3" font-family="Times,serif" font-size="14.00">Project</text>
</a>
</g>
</g>
<!-- Protonym -->
<g id="node21" class="node">
<title>Protonym</title>
<g id="a_node21"><a xlink:href="/develop/Data/models.html#protonym" xlink:title="Protonym" target="_top">
<polygon fill="#eeefff" stroke="#dddeee" points="416.33,-384 345.33,-384 345.33,-348 416.33,-348 416.33,-384"/>
<text text-anchor="middle" x="380.83" y="-362.3" font-family="Times,serif" font-size="14.00">Protonym</text>
</a>
</g>
</g>
<!-- Updater -->
<g id="node22" class="node">
<title>Updater</title>
<g id="a_node22"><a xlink:href="/develop/Data/models.html#updater" xlink:title="Updater" target="_top">
<polygon fill="#eeefff" stroke="#dddeee" points="717.33,-292 657.33,-292 657.33,-256 717.33,-256 717.33,-292"/>
<text text-anchor="middle" x="687.33" y="-270.3" font-family="Times,serif" font-size="14.00">Updater</text>
</a>
</g>
</g>
<!-- OriginCitation -->
<g id="node23" class="node">
<title>OriginCitation</title>
<g id="a_node23"><a xlink:href="/develop/Data/models.html#origin-citation" xlink:title="OriginCitation" target="_top">
<polygon fill="#eeefff" stroke="#dddeee" points="579.83,-487 484.83,-487 484.83,-451 579.83,-451 579.83,-487"/>
<text text-anchor="middle" x="532.33" y="-465.3" font-family="Times,serif" font-size="14.00">OriginCitation</text>
</a>
</g>
</g>
</g>
</svg>
