<?xml version="1.0" encoding="UTF-8" standalone="no"?>
<!-- Created with Inkscape (http://www.inkscape.org/) -->

<svg
   xmlns:dc="http://purl.org/dc/elements/1.1/"
   xmlns:cc="http://creativecommons.org/ns#"
   xmlns:rdf="http://www.w3.org/1999/02/22-rdf-syntax-ns#"
   xmlns:svg="http://www.w3.org/2000/svg"
   xmlns="http://www.w3.org/2000/svg"
   xmlns:sodipodi="http://sodipodi.sourceforge.net/DTD/sodipodi-0.dtd"
   xmlns:inkscape="http://www.inkscape.org/namespaces/inkscape"
   width="207.37955mm"
   height="213.15245mm"
   viewBox="0 0 207.37955 213.15245"
   version="1.1"
   id="svg974"
   inkscape:version="0.92.5 (2060ec1f9f, 2020-04-08)">
  <defs
     id="defs968" />
  <sodipodi:namedview
     id="base"
     pagecolor="#ffffff"
     bordercolor="#666666"
     borderopacity="1.0"
     inkscape:pageopacity="0.0"
     inkscape:pageshadow="2"
     inkscape:zoom="1.979899"
     inkscape:cx="94.712367"
     inkscape:cy="173.46491"
     inkscape:document-units="mm"
     inkscape:current-layer="layer1"
     showgrid="false"
     inkscape:window-width="5120"
     inkscape:window-height="2806"
     inkscape:window-x="0"
     inkscape:window-y="0"
     inkscape:window-maximized="1"
     fit-margin-top="0"
     fit-margin-left="0"
     fit-margin-right="0"
     fit-margin-bottom="0" />
  <metadata
     id="metadata971">
    <rdf:RDF>
      <cc:Work
         rdf:about="">
        <dc:format>image/svg+xml</dc:format>
        <dc:type
           rdf:resource="http://purl.org/dc/dcmitype/StillImage" />
        <dc:title></dc:title>
      </cc:Work>
    </rdf:RDF>
  </metadata>
  <g
     inkscape:label="Capa 1"
     inkscape:groupmode="layer"
     id="layer1"
     transform="translate(-1.425592,-0.88798891)">
    <g
       transform="matrix(4.4407685,0,0,4.4407685,1.425592,0.88799821)"
       style="fill:#000000;fill-rule:evenodd"
       id="g887">
      <path
         inkscape:connector-curvature="0"
         d="m 3.407,15.135 c 2.416,0 3.32,3.18 3.32,3.18 0,0 1.211,3.711 3.682,3.711 1.85,0 2.261,-1.516 2.352,-2.182 l 0.007,-0.09 0.017,-0.182 0.002,-0.036 C 12.872,18.656 12.138,18.38 12.138,18.38 11.414,18.135 10.775,17.685 10.224,17.047 8.689,15.27 9.508,12.963 11.304,11.379 10.465,10.414 9.371,9.301 8.414,8.795 6.312,7.681 4.636,9.419 4.509,9.555 L 4.484,9.59 C 4.34,9.787 4.2,9.985 4.062,10.186 L 4.046,10.21 C 3.901,10.423 3.759,10.638 3.621,10.856 L 3.598,10.892 C 3.479,11.083 3.36,11.273 3.246,11.467 A 23.675,23.675 0 0 0 2.464,12.9 l -0.06,0.123 A 24.76,24.76 0 0 0 2.099,13.66 L 2.085,13.691 A 24.486,24.486 0 0 0 1.513,15.067 L 1.455,15.219 C 1.369,15.45 1.287,15.682 1.208,15.917 l -0.029,0.09 -0.058,0.185 c 0.513,-0.565 1.256,-1.057 2.286,-1.057"
         id="path877" />
      <path
         inkscape:connector-curvature="0"
         d="m 12.76,25.657 a 22.944,22.944 0 0 1 -0.105,-1.513 4.427,4.427 0 0 1 -1.733,0.354 C 6.353,24.498 6.238,19.99 4.628,17.502 2.943,14.9 0.6,17.723 0.365,19.24 0.355,19.313 0.343,19.37 0.333,19.414 0.308,19.568 0.28,19.723 0.258,19.878 L 0.23,20.073 c -0.028,0.188 -0.05,0.376 -0.073,0.564 a 22.957,22.957 0 0 0 -0.091,0.941 l -0.004,0.079 c -0.016,0.225 -0.03,0.452 -0.038,0.679 -0.004,0.07 -0.006,0.139 -0.008,0.208 -0.008,0.221 -0.012,0.442 -0.014,0.664 L 0,23.291 v 0.059 c 0,0.097 0.002,0.193 0.004,0.29 0,0.092 0,0.184 0.004,0.275 0.002,0.139 0.008,0.277 0.014,0.416 l 0.006,0.168 c 0.369,7.603 4.375,14.251 10.316,18.242 -1.909,-1.878 -3.05,-4.26 -3.05,-6.851 0,-3.223 1.765,-6.233 4.574,-8.266 a 2.16,2.16 0 0 0 0.893,-1.967"
         id="path879" />
      <path
         inkscape:connector-curvature="0"
         d="m 30.793,40.798 c -1.07,0.442 -2.625,0.942 -4.393,1.064 a 12.16,12.16 0 0 1 -0.8,0.027 c -2.957,0 -6.807,-1.152 -9.77,-6.066 l -0.389,-0.642 c -0.447,0.672 -0.698,1.423 -0.698,2.24 0,3.332 3.996,6.355 8.795,6.355 1.254,0 2.736,-0.145 3.813,-0.477 -1.103,0.687 -3.32,1.332 -5.246,1.332 -5.505,0 -10.107,-3.65 -10.107,-7.98 0,-1.455 0.502,-2.965 1.38,-4.226 a 1.985,1.985 0 0 0 0.258,-1.726 c -2.53,1.468 -4.078,3.705 -4.078,6.384 0,4.125 3.674,7.653 8.872,9.093 0.294,0.064 0.591,0.12 0.89,0.172 3.755,0.628 7.088,-0.04 9.347,-2.196 0.97,-0.925 1.672,-2.06 2.126,-3.354"
         id="path881" />
      <path
         inkscape:connector-curvature="0"
         d="m 41.05,8.123 a 20.857,20.857 0 0 1 3.877,12.145 c 0,7.81 -4.276,14.622 -10.613,18.227 l -0.045,0.04 c 0,-0.053 -0.002,-0.1 0.034,-0.313 a 6.425,6.425 0 0 1 1.05,-2.59 c 1.79,-2.564 2.982,-6.484 -0.07,-11.543 -1.682,-2.79 -5.202,-6.725 -12.413,-9.625 a 40.086,40.086 0 0 0 -2.834,-1.016 l -0.37,-0.116 c -0.015,-0.004 -0.03,-0.01 -0.044,-0.013 a 43.04,43.04 0 0 0 -0.744,-0.22 l -0.036,-0.01 C 18.6,13.019 18.365,12.955 18.139,12.894 l -0.02,-0.005 A 39.79,39.79 0 0 0 17.798,12.805 L 17.782,12.801 A 32.727,32.727 0 0 0 17.13,12.639 45.767,45.767 0 0 0 16.584,12.512 l -0.041,-0.01 A 21.43,21.43 0 0 0 16.301,12.45 l -0.228,-0.05 -0.042,-0.008 -0.17,-0.034 -0.042,-0.01 a 11.506,11.506 0 0 0 -0.216,-0.042 c -0.046,-0.01 -0.091,-0.017 -0.133,-0.025 a 8.243,8.243 0 0 0 -0.186,-0.035 l -0.03,0.1 a 3.057,3.057 0 0 1 -0.032,0.11 l -0.011,0.045 -0.021,0.074 -0.015,0.053 a 8.07,8.07 0 0 0 -0.021,0.077 l -0.015,0.055 -0.023,0.084 -0.016,0.058 -0.025,0.093 -0.015,0.058 -0.03,0.112 c -0.006,0.024 -0.012,0.049 -0.02,0.074 l -0.033,0.133 a 1.643,1.643 0 0 1 -0.017,0.067 l -0.027,0.108 c -0.006,0.025 -0.012,0.05 -0.02,0.076 -0.007,0.035 -0.016,0.069 -0.024,0.104 l -0.021,0.087 a 3.785,3.785 0 0 1 -0.025,0.102 l -0.021,0.092 c -0.01,0.035 -0.017,0.07 -0.025,0.107 a 2.586,2.586 0 0 0 -0.022,0.094 c -0.01,0.038 -0.018,0.077 -0.027,0.116 l -0.02,0.09 -0.031,0.136 a 5.385,5.385 0 0 1 -0.026,0.123 7.286,7.286 0 0 0 -0.037,0.17 l -0.021,0.097 -0.027,0.132 -0.023,0.11 -0.025,0.123 -0.023,0.118 c -0.01,0.04 -0.017,0.083 -0.025,0.125 l -0.023,0.119 -0.025,0.13 -0.023,0.122 a 6.39,6.39 0 0 1 -0.025,0.135 48.081,48.081 0 0 0 -0.049,0.277 l -0.022,0.123 -0.04,0.24 -0.02,0.12 -0.025,0.155 a 4.897,4.897 0 0 0 -0.02,0.128 l -0.024,0.15 -0.02,0.136 -0.022,0.149 -0.02,0.139 -0.021,0.154 a 6.438,6.438 0 0 0 -0.02,0.137 l -0.02,0.163 -0.018,0.135 -0.023,0.182 -0.014,0.119 a 40.48,40.48 0 0 0 -0.135,1.315 l -0.002,0.035 c -0.012,0.135 -0.022,0.27 -0.032,0.41 l -10e-4,0.01 c -0.01,0.135 -0.02,0.272 -0.028,0.41 l -10e-4,0.019 c -0.008,0.137 -0.016,0.275 -0.022,0.415 l -10e-4,0.006 c -0.035,0.726 -0.05,1.493 -0.036,2.289 0.017,0.98 0.08,2.006 0.204,3.052 l 0.03,0.254 a 24.72,24.72 0 0 0 0.866,4.089 c 0.305,0.925 0.796,2.218 1.26,3.163 0.208,0.41 0.429,0.817 0.67,1.217 2.214,3.67 5.165,5.526 8.78,5.527 0.249,0 0.5,-0.01 0.756,-0.027 2.17,-0.15 3.98,-0.913 4.85,-1.344 1.183,-5.874 -2.007,-14.228 -8.655,-21.193 a 39.153,39.153 0 0 0 -2.91,-2.754 c 2.213,1.66 3.33,2.559 4.615,3.905 9.08,9.513 11.928,21.532 6.362,26.845 a 8.552,8.552 0 0 1 -2.861,1.794 c 1.412,-0.401 2.665,-1.086 3.7,-2.074 0.33,-0.316 0.63,-0.656 0.902,-1.017 C 40.767,41.39 46.699,33.064 46.699,23.35 A 23.257,23.257 0 0 0 41.05,8.123"
         id="path883" />
      <path
         inkscape:connector-curvature="0"
         d="m 34.988,8.143 c 0.52,-0.294 1.26,-0.23 1.855,0.216 0.594,0.445 0.865,1.136 0.729,1.719 -0.52,0.294 -1.26,0.229 -1.854,-0.216 -0.595,-0.445 -0.865,-1.136 -0.73,-1.72 M 8.675,7.918 c 1.284,0.422 2.736,1.638 3.772,2.634 A 7.417,7.417 0 0 1 14.571,9.696 C 13.998,8.508 13.23,6.62 13.4,5.3 c 0.342,-2.68 3.277,-2.886 3.277,-2.886 0,0 -2.693,0.579 -2.52,3.078 0.084,1.212 1.12,2.987 1.798,4.03 1.67,-0.024 3.123,0.647 3.78,1.918 0.066,0.128 0.12,0.26 0.168,0.394 h 0.002 c 0,0 0.207,0.446 0.56,0.575 a 42.09,42.09 0 0 1 2.795,1.006 35.915,35.915 0 0 1 4.072,1.934 c 0.218,0.122 0.432,-0.167 0.25,-0.34 -6.535,-6.274 -1.92,-8.723 -1.92,-8.723 -2.362,3.417 1.585,5.885 6.117,8.434 3.993,2.245 6.82,4.677 9.912,3.04 1.542,-0.816 0.465,-2.632 -0.23,-3.637 -0.522,-0.756 -0.877,-1.22 -1.343,-2.217 A 2.502,2.502 0 0 1 39.926,10.32 C 40.089,9.573 39.831,8.693 39.266,7.8 38.846,7.138 38.038,6.439 37.436,5.97 A 5.075,5.075 0 0 1 36.414,4.908 C 34.265,1.882 28.69,0.616 28.69,0.616 V 0.614 A 23.442,23.442 0 0 0 23.35,0 C 19.615,0 16.085,0.879 12.955,2.438 H 12.954 A 23.378,23.378 0 0 0 8.307,5.493 l -0.18,0.15 C 7.782,5.936 7.447,6.241 7.126,6.558 L 7.118,6.566 C 6.931,6.748 6.746,6.932 6.565,7.12 L 6.557,7.128 C 6.197,7.5 5.851,7.884 5.517,8.278 L 5.476,8.327 5.385,8.439 C 6.05,7.872 7.115,7.404 8.675,7.917"
         id="path885" />
    </g>
  </g>
</svg>
