<svg id="Layer_1" data-name="Layer 1" xmlns="http://www.w3.org/2000/svg" viewBox="0 0 846.57 111.41"><defs><style>.cls-1{fill:#41ba8d;}</style></defs><title>TaxonWorks</title><path class="cls-1" d="M74.38,0H0V14H28.71v95.91h6.22A10.58,10.58,0,0,0,45.51,99.36V14H74.38V0Z"/><path class="cls-1" d="M106,25.94q-15.82,0-25.45,5.55V47a41.61,41.61,0,0,1,24-7.34q9.46,0,13.54,4.32t4.08,12.8V61.5h-13.7q-16.15,0-25.12,6.61t-9,18.51a22.75,22.75,0,0,0,7.1,17.21q7.1,6.77,18.84,6.77,16,0,22.35-10.44v9.79h5.24a10.58,10.58,0,0,0,10.58-10.58V57.42Q138.49,25.94,106,25.94Zm16.15,56.44a15,15,0,0,1-4.49,11.34Q113.2,98,105.37,98q-6.85,0-10.44-3.26a11.51,11.51,0,0,1-3.59-9A11.07,11.07,0,0,1,96,76.67q4.65-3.59,13.78-3.59h12.4v9.3Z"/><path class="cls-1" d="M277.49,26.1q-17.62,0-28.38,12.32T238.35,69.32q0,18.27,10.44,30.18t28.71,11.91q18.43,0,29-12.07T317,68.67q0-18.6-10.28-30.58T277.49,26.1Zm16.88,63.62q-5.79,8.16-16.88,8.16A19.21,19.21,0,0,1,261,89.47q-6-8.4-6-20.63,0-12.39,5.87-20.8t16.47-8.4q11.74,0,17.29,8.24T300.17,69Q300.17,81.56,294.38,89.71Z"/><path class="cls-1" d="M381.08,26.1q-18.43,0-25.77,15.33V37.82a10.58,10.58,0,0,0-10.58-10.58h-5.4v82.7h5.4a10.58,10.58,0,0,0,10.58-10.58V65.08q0-11.9,6-18.51A19,19,0,0,1,375.86,40q7.18,0,11.5,4.57t4.32,13.21V99.36a10.58,10.58,0,0,0,10.58,10.58h5.4V54q0-12.88-7.18-20.39T381.08,26.1Z"/><path class="cls-1" d="M598,26.1q-17.62,0-28.38,12.32T558.82,69.32q0,18.27,10.44,30.18T598,111.41q18.43,0,29-12.07t10.52-30.67q0-18.6-10.28-30.58T598,26.1Zm16.88,63.62q-5.79,8.16-16.88,8.16a19.21,19.21,0,0,1-16.47-8.4q-6-8.4-6-20.63,0-12.39,5.87-20.8t16.47-8.4q11.74,0,17.29,8.24T620.64,69Q620.64,81.56,614.85,89.71Z"/><path class="cls-1" d="M673.57,41.76V37.82A10.58,10.58,0,0,0,663,27.24h-5.4v82.7H663a10.58,10.58,0,0,0,10.58-10.58V65.9A28.71,28.71,0,0,1,679,48.45q5.38-7.34,13.7-7.34a19.28,19.28,0,0,1,7.67,1.47V26.43h-5.06Q679.61,26.43,673.57,41.76Z"/><path class="cls-1" d="M841.1,73.06q-5.47-5.3-15.09-9.54-0.82-.32-2.85-1.22T820.3,61l-2.53-1.22a14.1,14.1,0,0,1-2.45-1.39q-0.73-.57-2-1.39a7.19,7.19,0,0,1-1.88-1.55,19.29,19.29,0,0,1-1.22-1.79,7.05,7.05,0,0,1-.9-2.12,9.75,9.75,0,0,1-.24-2.2,8.28,8.28,0,0,1,3.34-6.85q3.34-2.61,9.05-2.61Q834,39.87,842,44.6V30.08q-7.5-3.59-20.88-3.59-12.23,0-20.39,6.2t-8.16,17.13q0,15.5,19.41,23.49,6.85,2.94,9.71,4.32a20.51,20.51,0,0,1,5.63,4.24,9,9,0,0,1,2.77,6.44,8.14,8.14,0,0,1-3.51,6.85q-3.51,2.61-9.87,2.61a44.58,44.58,0,0,1-23.65-7v15.17q9.79,4.89,24.47,4.89,13.37,0,21.21-6.28t7.83-17.37Q846.57,78.36,841.1,73.06Z"/><path class="cls-1" d="M218.58,27.08a14.11,14.11,0,0,0-11.65,6.16l-15,22-15-22a14.11,14.11,0,0,0-11.65-6.16H154.59l28.27,41.43-28.27,41.43h10.65a14.11,14.11,0,0,0,11.65-6.16l15-22,15,22a14.11,14.11,0,0,0,11.65,6.16h10.65L201,68.51l28.27-41.43H218.58Z"/><path class="cls-1" d="M768.76,27.08a14.11,14.11,0,0,0-11.65,6.16L733.48,67.86V10.58A10.58,10.58,0,0,0,722.9,0h-5.51V109.94h5.51a10.58,10.58,0,0,0,10.58-10.58V69.16l23.63,34.63a14.11,14.11,0,0,0,11.65,6.16h10.65L751.14,68.51l28.27-41.43H768.76Z"/><path class="cls-1" d="M535.08,7.9L516.56,78.7,498,7.9A10.58,10.58,0,0,0,487.8,0h0a10.58,10.58,0,0,0-10.24,7.9L459,78.7,440.53,7.9A10.58,10.58,0,0,0,430.29,0h-8.17l28.76,109.94H459a10.58,10.58,0,0,0,10.24-7.9l18.52-70.8L506.32,102a10.58,10.58,0,0,0,10.24,7.9h8.17L553.49,0h-8.17A10.58,10.58,0,0,0,535.08,7.9Z"/></svg>